<?xml version="1.0" encoding="UTF-8" standalone="no"?>
<!DOCTYPE svg PUBLIC "-//W3C//DTD SVG 1.1//EN"
 "http://www.w3.org/Graphics/SVG/1.1/DTD/svg11.dtd">
<!-- Generated by graphviz version 2.43.0 (0)
 -->
<!-- Title: src/Math/AABB.hpp Pages: 1 -->
<svg width="1700pt" height="225pt"
 viewBox="0.00 0.00 1700.00 225.00" xmlns="http://www.w3.org/2000/svg" xmlns:xlink="http://www.w3.org/1999/xlink">
<g id="graph0" class="graph" transform="scale(1 1) rotate(0) translate(4 221)">
<title>src/Math/AABB.hpp</title>
<!-- Node1 -->
<g id="Node000001" class="node">
<title>Node1</title>
<g id="a_Node000001"><a xlink:title=" ">
<polygon fill="#999999" stroke="#666666" points="826.5,-217 716.5,-217 716.5,-198 826.5,-198 826.5,-217"/>
<text text-anchor="middle" x="771.5" y="-205" font-family="Helvetica,sans-Serif" font-size="10.00">src/Math/AABB.hpp</text>
</a>
</g>
</g>
<!-- Node2 -->
<g id="Node000002" class="node">
<title>Node2</title>
<g id="a_Node000002"><a xlink:href="_mesh_8hpp.html" target="_top" xlink:title=" ">
<polygon fill="white" stroke="#666666" points="539.5,-156.5 385.5,-156.5 385.5,-137.5 539.5,-137.5 539.5,-156.5"/>
<text text-anchor="middle" x="462.5" y="-144.5" font-family="Helvetica,sans-Serif" font-size="10.00">src/AssetManager/Mesh.hpp</text>
</a>
</g>
</g>
<!-- Node1&#45;&gt;Node2 -->
<g id="edge1_Node000001_Node000002" class="edge">
<title>Node1&#45;&gt;Node2</title>
<g id="a_edge1_Node000001_Node000002"><a xlink:title=" ">
<path fill="none" stroke="#63b8ff" d="M716.58,-196.1C656.97,-184.82 562.89,-167.01 507.49,-156.52"/>
<polygon fill="#63b8ff" stroke="#63b8ff" points="716.09,-199.57 726.57,-197.99 717.39,-192.69 716.09,-199.57"/>
</a>
</g>
</g>
<!-- Node12 -->
<g id="Node000012" class="node">
<title>Node12</title>
<g id="a_Node000012"><a xlink:href="_box_collider_component_8hpp.html" target="_top" xlink:title=" ">
<polygon fill="white" stroke="#666666" points="849,-162 694,-162 694,-132 849,-132 849,-162"/>
<text text-anchor="start" x="702" y="-150" font-family="Helvetica,sans-Serif" font-size="10.00">src/Components/BoxCollider</text>
<text text-anchor="middle" x="771.5" y="-139" font-family="Helvetica,sans-Serif" font-size="10.00">Component.hpp</text>
</a>
</g>
</g>
<!-- Node1&#45;&gt;Node12 -->
<g id="edge15_Node000001_Node000012" class="edge">
<title>Node1&#45;&gt;Node12</title>
<g id="a_edge15_Node000001_Node000012"><a xlink:title=" ">
<path fill="none" stroke="#63b8ff" d="M771.5,-187.65C771.5,-179.36 771.5,-169.78 771.5,-162.11"/>
<polygon fill="#63b8ff" stroke="#63b8ff" points="768,-187.87 771.5,-197.87 775,-187.87 768,-187.87"/>
</a>
</g>
</g>
<!-- Node19 -->
<g id="Node000019" class="node">
<title>Node19</title>
<g id="a_Node000019"><a xlink:href="_a_a_b_b_8cpp.html" target="_top" xlink:title=" ">
<polygon fill="white" stroke="#666666" points="976,-156.5 867,-156.5 867,-137.5 976,-137.5 976,-156.5"/>
<text text-anchor="middle" x="921.5" y="-144.5" font-family="Helvetica,sans-Serif" font-size="10.00">src/Math/AABB.cpp</text>
</a>
</g>
</g>
<!-- Node1&#45;&gt;Node19 -->
<g id="edge28_Node000001_Node000019" class="edge">
<title>Node1&#45;&gt;Node19</title>
<g id="a_edge28_Node000001_Node000019"><a xlink:title=" ">
<path fill="none" stroke="#63b8ff" d="M802.96,-194.23C831.95,-182.92 874.21,-166.44 899.66,-156.52"/>
<polygon fill="#63b8ff" stroke="#63b8ff" points="801.36,-191.1 793.31,-197.99 803.9,-197.62 801.36,-191.1"/>
</a>
</g>
</g>
<!-- Node3 -->
<g id="Node000003" class="node">
<title>Node3</title>
<g id="a_Node000003"><a xlink:href="_mesh_8cpp.html" target="_top" xlink:title=" ">
<polygon fill="white" stroke="#666666" points="220,-90.5 67,-90.5 67,-71.5 220,-71.5 220,-90.5"/>
<text text-anchor="middle" x="143.5" y="-78.5" font-family="Helvetica,sans-Serif" font-size="10.00">src/AssetManager/Mesh.cpp</text>
</a>
</g>
</g>
<!-- Node2&#45;&gt;Node3 -->
<g id="edge2_Node000002_Node000003" class="edge">
<title>Node2&#45;&gt;Node3</title>
<g id="a_edge2_Node000002_Node000003"><a xlink:title=" ">
<path fill="none" stroke="#63b8ff" d="M409.73,-135.41C347.04,-122.84 243.7,-102.1 185.94,-90.51"/>
<polygon fill="#63b8ff" stroke="#63b8ff" points="409.32,-138.9 419.81,-137.44 410.69,-132.04 409.32,-138.9"/>
</a>
</g>
</g>
<!-- Node4 -->
<g id="Node000004" class="node">
<title>Node4</title>
<g id="a_Node000004"><a xlink:href="_model_component_8hpp.html" target="_top" xlink:title=" ">
<polygon fill="white" stroke="#666666" points="667.5,-90.5 461.5,-90.5 461.5,-71.5 667.5,-71.5 667.5,-90.5"/>
<text text-anchor="middle" x="564.5" y="-78.5" font-family="Helvetica,sans-Serif" font-size="10.00">src/Components/ModelComponent.hpp</text>
</a>
</g>
</g>
<!-- Node2&#45;&gt;Node4 -->
<g id="edge3_Node000002_Node000004" class="edge">
<title>Node2&#45;&gt;Node4</title>
<g id="a_edge3_Node000002_Node000004"><a xlink:title=" ">
<path fill="none" stroke="#63b8ff" d="M484.78,-132.02C504.84,-119.43 533.7,-101.32 550.64,-90.7"/>
<polygon fill="#63b8ff" stroke="#63b8ff" points="482.87,-129.09 476.26,-137.37 486.59,-135.02 482.87,-129.09"/>
</a>
</g>
</g>
<!-- Node7 -->
<g id="Node000007" class="node">
<title>Node7</title>
<g id="a_Node000007"><a xlink:href="main_8cpp.html" target="_top" xlink:title=" ">
<polygon fill="white" stroke="#666666" points="79,-24.5 0,-24.5 0,-5.5 79,-5.5 79,-24.5"/>
<text text-anchor="middle" x="39.5" y="-12.5" font-family="Helvetica,sans-Serif" font-size="10.00">src/main.cpp</text>
</a>
</g>
</g>
<!-- Node2&#45;&gt;Node7 -->
<g id="edge14_Node000002_Node000007" class="edge">
<title>Node2&#45;&gt;Node7</title>
<g id="a_edge14_Node000002_Node000007"><a xlink:title=" ">
<path fill="none" stroke="#63b8ff" d="M374.92,-146.6C270,-145.42 102.66,-136.91 57.5,-96 37.03,-77.46 37.25,-41.08 38.55,-24.54"/>
<polygon fill="#63b8ff" stroke="#63b8ff" points="375.16,-150.1 385.19,-146.69 375.23,-143.1 375.16,-150.1"/>
</a>
</g>
</g>
<!-- Node10 -->
<g id="Node000010" class="node">
<title>Node10</title>
<g id="a_Node000010"><a xlink:href="_overlay_model_component_8hpp.html" target="_top" xlink:title=" ">
<polygon fill="white" stroke="#666666" points="443,-96 276,-96 276,-66 443,-66 443,-96"/>
<text text-anchor="start" x="284" y="-84" font-family="Helvetica,sans-Serif" font-size="10.00">src/Components/OverlayModel</text>
<text text-anchor="middle" x="359.5" y="-73" font-family="Helvetica,sans-Serif" font-size="10.00">Component.hpp</text>
</a>
</g>
</g>
<!-- Node2&#45;&gt;Node10 -->
<g id="edge9_Node000002_Node000010" class="edge">
<title>Node2&#45;&gt;Node10</title>
<g id="a_edge9_Node000002_Node000010"><a xlink:title=" ">
<path fill="none" stroke="#63b8ff" d="M439.83,-131.91C422.71,-121.28 399.34,-106.75 382.22,-96.12"/>
<polygon fill="#63b8ff" stroke="#63b8ff" points="438.27,-135.06 448.61,-137.37 441.96,-129.12 438.27,-135.06"/>
</a>
</g>
</g>
<!-- Node11 -->
<g id="Node000011" class="node">
<title>Node11</title>
<g id="a_Node000011"><a xlink:href="_gizmo_system_8cpp.html" target="_top" xlink:title=" ">
<polygon fill="white" stroke="#666666" points="837,-24.5 670,-24.5 670,-5.5 837,-5.5 837,-24.5"/>
<text text-anchor="middle" x="753.5" y="-12.5" font-family="Helvetica,sans-Serif" font-size="10.00">src/Systems/GizmoSystem.cpp</text>
</a>
</g>
</g>
<!-- Node2&#45;&gt;Node11 -->
<g id="edge13_Node000002_Node000011" class="edge">
<title>Node2&#45;&gt;Node11</title>
<g id="a_edge13_Node000002_Node000011"><a xlink:title=" ">
<path fill="none" stroke="#63b8ff" d="M549.56,-137.19C590.15,-130.28 637.89,-117.95 676.5,-96 709.01,-77.51 736.47,-41.1 747.86,-24.55"/>
<polygon fill="#63b8ff" stroke="#63b8ff" points="548.99,-133.74 539.68,-138.8 550.11,-140.65 548.99,-133.74"/>
</a>
</g>
</g>
<!-- Node5 -->
<g id="Node000005" class="node">
<title>Node5</title>
<g id="a_Node000005"><a xlink:href="_object_selection_system_8cpp.html" target="_top" xlink:title=" ">
<polygon fill="white" stroke="#666666" points="1010,-30 855,-30 855,0 1010,0 1010,-30"/>
<text text-anchor="start" x="863" y="-18" font-family="Helvetica,sans-Serif" font-size="10.00">src/Systems/ObjectSelection</text>
<text text-anchor="middle" x="932.5" y="-7" font-family="Helvetica,sans-Serif" font-size="10.00">System.cpp</text>
</a>
</g>
</g>
<!-- Node4&#45;&gt;Node5 -->
<g id="edge4_Node000004_Node000005" class="edge">
<title>Node4&#45;&gt;Node5</title>
<g id="a_edge4_Node000004_Node000005"><a xlink:title=" ">
<path fill="none" stroke="#63b8ff" d="M623.89,-69.67C686.7,-58.75 786.05,-41.47 854.99,-29.48"/>
<polygon fill="#63b8ff" stroke="#63b8ff" points="623,-66.27 613.75,-71.44 624.2,-73.17 623,-66.27"/>
</a>
</g>
</g>
<!-- Node6 -->
<g id="Node000006" class="node">
<title>Node6</title>
<g id="a_Node000006"><a xlink:href="_rendering_system_8cpp.html" target="_top" xlink:title=" ">
<polygon fill="white" stroke="#666666" points="282,-24.5 97,-24.5 97,-5.5 282,-5.5 282,-24.5"/>
<text text-anchor="middle" x="189.5" y="-12.5" font-family="Helvetica,sans-Serif" font-size="10.00">src/Systems/RenderingSystem.cpp</text>
</a>
</g>
</g>
<!-- Node4&#45;&gt;Node6 -->
<g id="edge5_Node000004_Node000006" class="edge">
<title>Node4&#45;&gt;Node6</title>
<g id="a_edge5_Node000004_Node000006"><a xlink:title=" ">
<path fill="none" stroke="#63b8ff" d="M504.28,-69.72C430.78,-57.18 307.85,-36.2 239.39,-24.51"/>
<polygon fill="#63b8ff" stroke="#63b8ff" points="503.87,-73.2 514.31,-71.44 505.05,-66.3 503.87,-73.2"/>
</a>
</g>
</g>
<!-- Node4&#45;&gt;Node7 -->
<g id="edge6_Node000004_Node000007" class="edge">
<title>Node4&#45;&gt;Node7</title>
<g id="a_edge6_Node000004_Node000007"><a xlink:title=" ">
<path fill="none" stroke="#63b8ff" d="M487.8,-70.24C475.66,-68.77 463.24,-67.31 451.5,-66 289.93,-48 247.1,-60.89 87.5,-30 80.26,-28.6 72.53,-26.58 65.44,-24.52"/>
<polygon fill="#63b8ff" stroke="#63b8ff" points="487.56,-73.73 497.91,-71.47 488.41,-66.79 487.56,-73.73"/>
</a>
</g>
</g>
<!-- Node8 -->
<g id="Node000008" class="node">
<title>Node8</title>
<g id="a_Node000008"><a xlink:href="_model_component_u_i_8hpp.html" target="_top" xlink:title=" ">
<polygon fill="white" stroke="#666666" points="497,-30 300,-30 300,0 497,0 497,-30"/>
<text text-anchor="start" x="308" y="-18" font-family="Helvetica,sans-Serif" font-size="10.00">src/ui/Components/ModelComponent</text>
<text text-anchor="middle" x="398.5" y="-7" font-family="Helvetica,sans-Serif" font-size="10.00">UI.hpp</text>
</a>
</g>
</g>
<!-- Node4&#45;&gt;Node8 -->
<g id="edge7_Node000004_Node000008" class="edge">
<title>Node4&#45;&gt;Node8</title>
<g id="a_edge7_Node000004_Node000008"><a xlink:title=" ">
<path fill="none" stroke="#63b8ff" d="M532.46,-67.65C504.6,-56.9 464.24,-41.35 435.11,-30.12"/>
<polygon fill="#63b8ff" stroke="#63b8ff" points="531.52,-71.04 542.11,-71.37 534.04,-64.51 531.52,-71.04"/>
</a>
</g>
</g>
<!-- Node9 -->
<g id="Node000009" class="node">
<title>Node9</title>
<g id="a_Node000009"><a xlink:href="_properties_widget_8cpp.html" target="_top" xlink:title=" ">
<polygon fill="white" stroke="#666666" points="652,-30 515,-30 515,0 652,0 652,-30"/>
<text text-anchor="start" x="523" y="-18" font-family="Helvetica,sans-Serif" font-size="10.00">src/ui/widgets/Properties</text>
<text text-anchor="middle" x="583.5" y="-7" font-family="Helvetica,sans-Serif" font-size="10.00">Widget.cpp</text>
</a>
</g>
</g>
<!-- Node4&#45;&gt;Node9 -->
<g id="edge8_Node000004_Node000009" class="edge">
<title>Node4&#45;&gt;Node9</title>
<g id="a_edge8_Node000004_Node000009"><a xlink:title=" ">
<path fill="none" stroke="#63b8ff" d="M569.94,-61.67C572.89,-51.72 576.49,-39.61 579.24,-30.36"/>
<polygon fill="#63b8ff" stroke="#63b8ff" points="566.55,-60.79 567.06,-71.37 573.26,-62.78 566.55,-60.79"/>
</a>
</g>
</g>
<!-- Node10&#45;&gt;Node6 -->
<g id="edge11_Node000010_Node000006" class="edge">
<title>Node10&#45;&gt;Node6</title>
<g id="a_edge11_Node000010_Node000006"><a xlink:title=" ">
<path fill="none" stroke="#63b8ff" d="M312.8,-62.42C280.05,-50.09 237.7,-34.15 212.12,-24.52"/>
<polygon fill="#63b8ff" stroke="#63b8ff" points="311.6,-65.71 322.19,-65.95 314.07,-59.16 311.6,-65.71"/>
</a>
</g>
</g>
<!-- Node10&#45;&gt;Node7 -->
<g id="edge12_Node000010_Node000007" class="edge">
<title>Node10&#45;&gt;Node7</title>
<g id="a_edge12_Node000010_Node000007"><a xlink:title=" ">
<path fill="none" stroke="#63b8ff" d="M265.71,-65.19C213.06,-56.26 146.31,-43.94 87.5,-30 80.83,-28.42 73.7,-26.48 67.04,-24.55"/>
<polygon fill="#63b8ff" stroke="#63b8ff" points="265.27,-68.66 275.71,-66.87 266.43,-61.76 265.27,-68.66"/>
</a>
</g>
</g>
<!-- Node10&#45;&gt;Node11 -->
<g id="edge10_Node000010_Node000011" class="edge">
<title>Node10&#45;&gt;Node11</title>
<g id="a_edge10_Node000010_Node000011"><a xlink:title=" ">
<path fill="none" stroke="#63b8ff" d="M453.31,-64.76C530.82,-52.17 638.01,-34.76 701.12,-24.51"/>
<polygon fill="#63b8ff" stroke="#63b8ff" points="452.37,-61.37 443.06,-66.43 453.49,-68.28 452.37,-61.37"/>
</a>
</g>
</g>
<!-- Node12&#45;&gt;Node5 -->
<g id="edge24_Node000012_Node000005" class="edge">
<title>Node12&#45;&gt;Node5</title>
<g id="a_edge24_Node000012_Node000005"><a xlink:title=" ">
<path fill="none" stroke="#63b8ff" d="M796.87,-125.52C829.81,-98.92 886.45,-53.18 914.99,-30.14"/>
<polygon fill="#63b8ff" stroke="#63b8ff" points="794.62,-122.83 789.04,-131.84 799.02,-128.28 794.62,-122.83"/>
</a>
</g>
</g>
<!-- Node12&#45;&gt;Node7 -->
<g id="edge25_Node000012_Node000007" class="edge">
<title>Node12&#45;&gt;Node7</title>
<g id="a_edge25_Node000012_Node000007"><a xlink:title=" ">
<path fill="none" stroke="#63b8ff" d="M683.49,-139.99C549.06,-130.4 304.12,-111.18 266.5,-96 246.55,-87.95 247.79,-75.54 228.5,-66 170.52,-37.34 149.89,-47.06 87.5,-30 81.22,-28.28 74.5,-26.37 68.14,-24.52"/>
<polygon fill="#63b8ff" stroke="#63b8ff" points="683.54,-143.5 693.77,-140.72 684.04,-136.52 683.54,-143.5"/>
</a>
</g>
</g>
<!-- Node12&#45;&gt;Node9 -->
<g id="edge27_Node000012_Node000009" class="edge">
<title>Node12&#45;&gt;Node9</title>
<g id="a_edge27_Node000012_Node000009"><a xlink:title=" ">
<path fill="none" stroke="#63b8ff" d="M749.42,-125.13C730.81,-108.11 703.03,-84.02 676.5,-66 656.33,-52.3 632.02,-39.34 613.31,-30.05"/>
<polygon fill="#63b8ff" stroke="#63b8ff" points="747.09,-127.74 756.81,-131.95 751.84,-122.6 747.09,-127.74"/>
</a>
</g>
</g>
<!-- Node12&#45;&gt;Node11 -->
<g id="edge23_Node000012_Node000011" class="edge">
<title>Node12&#45;&gt;Node11</title>
<g id="a_edge23_Node000012_Node000011"><a xlink:title=" ">
<path fill="none" stroke="#63b8ff" d="M768.12,-121.57C764.05,-92.17 757.42,-44.31 754.71,-24.75"/>
<polygon fill="#63b8ff" stroke="#63b8ff" points="764.7,-122.41 769.54,-131.84 771.63,-121.45 764.7,-122.41"/>
</a>
</g>
</g>
<!-- Node13 -->
<g id="Node000013" class="node">
<title>Node13</title>
<g id="a_Node000013"><a xlink:href="_input_manager_8hpp.html" target="_top" xlink:title=" ">
<polygon fill="white" stroke="#666666" points="1154.5,-90.5 962.5,-90.5 962.5,-71.5 1154.5,-71.5 1154.5,-90.5"/>
<text text-anchor="middle" x="1058.5" y="-78.5" font-family="Helvetica,sans-Serif" font-size="10.00">src/InputManager/InputManager.hpp</text>
</a>
</g>
</g>
<!-- Node12&#45;&gt;Node13 -->
<g id="edge16_Node000012_Node000013" class="edge">
<title>Node12&#45;&gt;Node13</title>
<g id="a_edge16_Node000012_Node000013"><a xlink:title=" ">
<path fill="none" stroke="#63b8ff" d="M844.36,-129.75C900.38,-117.26 975.55,-100.5 1020.31,-90.52"/>
<polygon fill="#63b8ff" stroke="#63b8ff" points="843.48,-126.36 834.48,-131.95 845.01,-133.19 843.48,-126.36"/>
</a>
</g>
</g>
<!-- Node18 -->
<g id="Node000018" class="node">
<title>Node18</title>
<g id="a_Node000018"><a xlink:href="_model_component_u_i_8cpp.html" target="_top" xlink:title=" ">
<polygon fill="white" stroke="#666666" points="1370,-96 1173,-96 1173,-66 1370,-66 1370,-96"/>
<text text-anchor="start" x="1181" y="-84" font-family="Helvetica,sans-Serif" font-size="10.00">src/ui/Components/ModelComponent</text>
<text text-anchor="middle" x="1271.5" y="-73" font-family="Helvetica,sans-Serif" font-size="10.00">UI.cpp</text>
</a>
</g>
</g>
<!-- Node12&#45;&gt;Node18 -->
<g id="edge26_Node000012_Node000018" class="edge">
<title>Node12&#45;&gt;Node18</title>
<g id="a_edge26_Node000012_Node000018"><a xlink:title=" ">
<path fill="none" stroke="#63b8ff" d="M859.23,-131.79C994.78,-112.98 1030.78,-112.41 1163.5,-96 1166.6,-95.62 1169.74,-95.23 1172.92,-94.83"/>
<polygon fill="#63b8ff" stroke="#63b8ff" points="858.71,-128.33 849.29,-133.18 859.68,-135.26 858.71,-128.33"/>
</a>
</g>
</g>
<!-- Node13&#45;&gt;Node5 -->
<g id="edge20_Node000013_Node000005" class="edge">
<title>Node13&#45;&gt;Node5</title>
<g id="a_edge20_Node000013_Node000005"><a xlink:title=" ">
<path fill="none" stroke="#63b8ff" d="M1032.49,-66.79C1011.43,-56.09 981.82,-41.05 960.29,-30.12"/>
<polygon fill="#63b8ff" stroke="#63b8ff" points="1031.01,-69.96 1041.51,-71.37 1034.18,-63.72 1031.01,-69.96"/>
</a>
</g>
</g>
<!-- Node13&#45;&gt;Node11 -->
<g id="edge19_Node000013_Node000011" class="edge">
<title>Node13&#45;&gt;Node11</title>
<g id="a_edge19_Node000013_Node000011"><a xlink:title=" ">
<path fill="none" stroke="#63b8ff" d="M1007.68,-69.34C947.7,-56.75 849.19,-36.08 794.08,-24.51"/>
<polygon fill="#63b8ff" stroke="#63b8ff" points="1007.18,-72.81 1017.68,-71.44 1008.61,-65.96 1007.18,-72.81"/>
</a>
</g>
</g>
<!-- Node14 -->
<g id="Node000014" class="node">
<title>Node14</title>
<g id="a_Node000014"><a xlink:href="_input_manager_8cpp.html" target="_top" xlink:title=" ">
<polygon fill="white" stroke="#666666" points="1219,-24.5 1028,-24.5 1028,-5.5 1219,-5.5 1219,-24.5"/>
<text text-anchor="middle" x="1123.5" y="-12.5" font-family="Helvetica,sans-Serif" font-size="10.00">src/InputManager/InputManager.cpp</text>
</a>
</g>
</g>
<!-- Node13&#45;&gt;Node14 -->
<g id="edge17_Node000013_Node000014" class="edge">
<title>Node13&#45;&gt;Node14</title>
<g id="a_edge17_Node000013_Node000014"><a xlink:title=" ">
<path fill="none" stroke="#63b8ff" d="M1074.42,-64.33C1087,-51.94 1104.12,-35.09 1114.46,-24.91"/>
<polygon fill="#63b8ff" stroke="#63b8ff" points="1071.94,-61.86 1067.27,-71.37 1076.85,-66.85 1071.94,-61.86"/>
</a>
</g>
</g>
<!-- Node15 -->
<g id="Node000015" class="node">
<title>Node15</title>
<g id="a_Node000015"><a xlink:href="_camera_movement_system_8cpp.html" target="_top" xlink:title=" ">
<polygon fill="white" stroke="#666666" points="1407.5,-30 1237.5,-30 1237.5,0 1407.5,0 1407.5,-30"/>
<text text-anchor="start" x="1245.5" y="-18" font-family="Helvetica,sans-Serif" font-size="10.00">src/Systems/CameraMovement</text>
<text text-anchor="middle" x="1322.5" y="-7" font-family="Helvetica,sans-Serif" font-size="10.00">System.cpp</text>
</a>
</g>
</g>
<!-- Node13&#45;&gt;Node15 -->
<g id="edge18_Node000013_Node000015" class="edge">
<title>Node13&#45;&gt;Node15</title>
<g id="a_edge18_Node000013_Node000015"><a xlink:title=" ">
<path fill="none" stroke="#63b8ff" d="M1103.77,-69.02C1148.24,-58.24 1216.28,-41.75 1264.65,-30.02"/>
<polygon fill="#63b8ff" stroke="#63b8ff" points="1102.72,-65.68 1093.83,-71.44 1104.37,-72.48 1102.72,-65.68"/>
</a>
</g>
</g>
<!-- Node16 -->
<g id="Node000016" class="node">
<title>Node16</title>
<g id="a_Node000016"><a xlink:href="_u_i_8cpp.html" target="_top" xlink:title=" ">
<polygon fill="white" stroke="#666666" points="1503,-24.5 1426,-24.5 1426,-5.5 1503,-5.5 1503,-24.5"/>
<text text-anchor="middle" x="1464.5" y="-12.5" font-family="Helvetica,sans-Serif" font-size="10.00">src/ui/UI.cpp</text>
</a>
</g>
</g>
<!-- Node13&#45;&gt;Node16 -->
<g id="edge21_Node000013_Node000016" class="edge">
<title>Node13&#45;&gt;Node16</title>
<g id="a_edge21_Node000013_Node000016"><a xlink:title=" ">
<path fill="none" stroke="#63b8ff" d="M1133.19,-70.16C1229.94,-57.32 1389.46,-35.8 1416.5,-30 1423.46,-28.51 1430.89,-26.53 1437.77,-24.54"/>
<polygon fill="#63b8ff" stroke="#63b8ff" points="1132.62,-66.7 1123.16,-71.49 1133.54,-73.64 1132.62,-66.7"/>
</a>
</g>
</g>
<!-- Node17 -->
<g id="Node000017" class="node">
<title>Node17</title>
<g id="a_Node000017"><a xlink:href="_scene_widget_8cpp.html" target="_top" xlink:title=" ">
<polygon fill="white" stroke="#666666" points="1692,-24.5 1521,-24.5 1521,-5.5 1692,-5.5 1692,-24.5"/>
<text text-anchor="middle" x="1606.5" y="-12.5" font-family="Helvetica,sans-Serif" font-size="10.00">src/ui/widgets/SceneWidget.cpp</text>
</a>
</g>
</g>
<!-- Node13&#45;&gt;Node17 -->
<g id="edge22_Node000013_Node000017" class="edge">
<title>Node13&#45;&gt;Node17</title>
<g id="a_edge22_Node000013_Node000017"><a xlink:title=" ">
<path fill="none" stroke="#63b8ff" d="M1130.91,-70.16C1142.15,-68.71 1153.63,-67.28 1164.5,-66 1318.93,-47.82 1358.23,-49.46 1512.5,-30 1525.27,-28.39 1538.98,-26.46 1551.88,-24.56"/>
<polygon fill="#63b8ff" stroke="#63b8ff" points="1130.14,-66.73 1120.68,-71.49 1131.05,-73.67 1130.14,-66.73"/>
</a>
</g>
</g>
</g>
</svg>
