<?xml version="1.0" encoding="UTF-8" standalone="no"?>
<!DOCTYPE svg PUBLIC "-//W3C//DTD SVG 1.1//EN"
 "http://www.w3.org/Graphics/SVG/1.1/DTD/svg11.dtd">
<!-- Generated by graphviz version 2.43.0 (0)
 -->
<!-- Title: src/Math/AABB.hpp Pages: 1 -->
<svg width="2476pt" height="225pt"
 viewBox="0.00 0.00 2476.00 225.00" xmlns="http://www.w3.org/2000/svg" xmlns:xlink="http://www.w3.org/1999/xlink">
<g id="graph0" class="graph" transform="scale(1 1) rotate(0) translate(4 221)">
<title>src/Math/AABB.hpp</title>
<!-- Node1 -->
<g id="Node000001" class="node">
<title>Node1</title>
<g id="a_Node000001"><a xlink:title=" ">
<polygon fill="#999999" stroke="#666666" points="1554.5,-217 1444.5,-217 1444.5,-198 1554.5,-198 1554.5,-217"/>
<text text-anchor="middle" x="1499.5" y="-205" font-family="Helvetica,sans-Serif" font-size="10.00">src/Math/AABB.hpp</text>
</a>
</g>
</g>
<!-- Node2 -->
<g id="Node000002" class="node">
<title>Node2</title>
<g id="a_Node000002"><a xlink:href="_mesh_8hpp.html" target="_top" xlink:title=" ">
<polygon fill="white" stroke="#666666" points="936.5,-156.5 782.5,-156.5 782.5,-137.5 936.5,-137.5 936.5,-156.5"/>
<text text-anchor="middle" x="859.5" y="-144.5" font-family="Helvetica,sans-Serif" font-size="10.00">src/AssetManager/Mesh.hpp</text>
</a>
</g>
</g>
<!-- Node1&#45;&gt;Node2 -->
<g id="edge1_Node000001_Node000002" class="edge">
<title>Node1&#45;&gt;Node2</title>
<g id="a_edge1_Node000001_Node000002"><a xlink:title=" ">
<path fill="none" stroke="#63b8ff" d="M1434.33,-200.54C1315.46,-189.68 1063.98,-166.69 936.72,-155.06"/>
<polygon fill="#63b8ff" stroke="#63b8ff" points="1434.1,-204.04 1444.38,-201.46 1434.74,-197.07 1434.1,-204.04"/>
</a>
</g>
</g>
<!-- Node17 -->
<g id="Node000017" class="node">
<title>Node17</title>
<g id="a_Node000017"><a xlink:href="_box_collider_component_8hpp.html" target="_top" xlink:title=" ">
<polygon fill="white" stroke="#666666" points="1577,-162 1422,-162 1422,-132 1577,-132 1577,-162"/>
<text text-anchor="start" x="1430" y="-150" font-family="Helvetica,sans-Serif" font-size="10.00">src/Components/BoxCollider</text>
<text text-anchor="middle" x="1499.5" y="-139" font-family="Helvetica,sans-Serif" font-size="10.00">Component.hpp</text>
</a>
</g>
</g>
<!-- Node1&#45;&gt;Node17 -->
<g id="edge24_Node000001_Node000017" class="edge">
<title>Node1&#45;&gt;Node17</title>
<g id="a_edge24_Node000001_Node000017"><a xlink:title=" ">
<path fill="none" stroke="#63b8ff" d="M1499.5,-187.65C1499.5,-179.36 1499.5,-169.78 1499.5,-162.11"/>
<polygon fill="#63b8ff" stroke="#63b8ff" points="1496,-187.87 1499.5,-197.87 1503,-187.87 1496,-187.87"/>
</a>
</g>
</g>
<!-- Node25 -->
<g id="Node000025" class="node">
<title>Node25</title>
<g id="a_Node000025"><a xlink:href="_a_a_b_b_8cpp.html" target="_top" xlink:title=" ">
<polygon fill="white" stroke="#666666" points="1704,-156.5 1595,-156.5 1595,-137.5 1704,-137.5 1704,-156.5"/>
<text text-anchor="middle" x="1649.5" y="-144.5" font-family="Helvetica,sans-Serif" font-size="10.00">src/Math/AABB.cpp</text>
</a>
</g>
</g>
<!-- Node1&#45;&gt;Node25 -->
<g id="edge39_Node000001_Node000025" class="edge">
<title>Node1&#45;&gt;Node25</title>
<g id="a_edge39_Node000001_Node000025"><a xlink:title=" ">
<path fill="none" stroke="#63b8ff" d="M1530.96,-194.23C1559.95,-182.92 1602.21,-166.44 1627.66,-156.52"/>
<polygon fill="#63b8ff" stroke="#63b8ff" points="1529.36,-191.1 1521.31,-197.99 1531.9,-197.62 1529.36,-191.1"/>
</a>
</g>
</g>
<!-- Node3 -->
<g id="Node000003" class="node">
<title>Node3</title>
<g id="a_Node000003"><a xlink:href="_mesh_8cpp.html" target="_top" xlink:title=" ">
<polygon fill="white" stroke="#666666" points="936,-90.5 783,-90.5 783,-71.5 936,-71.5 936,-90.5"/>
<text text-anchor="middle" x="859.5" y="-78.5" font-family="Helvetica,sans-Serif" font-size="10.00">src/AssetManager/Mesh.cpp</text>
</a>
</g>
</g>
<!-- Node2&#45;&gt;Node3 -->
<g id="edge2_Node000002_Node000003" class="edge">
<title>Node2&#45;&gt;Node3</title>
<g id="a_edge2_Node000002_Node000003"><a xlink:title=" ">
<path fill="none" stroke="#63b8ff" d="M859.5,-127.08C859.5,-115.13 859.5,-100.22 859.5,-90.91"/>
<polygon fill="#63b8ff" stroke="#63b8ff" points="856,-127.37 859.5,-137.37 863,-127.37 856,-127.37"/>
</a>
</g>
</g>
<!-- Node4 -->
<g id="Node000004" class="node">
<title>Node4</title>
<g id="a_Node000004"><a xlink:href="_billboard_component_8hpp.html" target="_top" xlink:title=" ">
<polygon fill="white" stroke="#666666" points="304.5,-96 162.5,-96 162.5,-66 304.5,-66 304.5,-96"/>
<text text-anchor="start" x="170.5" y="-84" font-family="Helvetica,sans-Serif" font-size="10.00">src/Components/Billboard</text>
<text text-anchor="middle" x="233.5" y="-73" font-family="Helvetica,sans-Serif" font-size="10.00">Component.hpp</text>
</a>
</g>
</g>
<!-- Node2&#45;&gt;Node4 -->
<g id="edge3_Node000002_Node000004" class="edge">
<title>Node2&#45;&gt;Node4</title>
<g id="a_edge3_Node000002_Node000004"><a xlink:title=" ">
<path fill="none" stroke="#63b8ff" d="M772.23,-140.22C664.23,-132.56 474.84,-117.47 313.5,-96 310.56,-95.61 307.57,-95.19 304.55,-94.75"/>
<polygon fill="#63b8ff" stroke="#63b8ff" points="772.2,-143.73 782.42,-140.94 772.69,-136.75 772.2,-143.73"/>
</a>
</g>
</g>
<!-- Node6 -->
<g id="Node000006" class="node">
<title>Node6</title>
<g id="a_Node000006"><a xlink:href="main_8cpp.html" target="_top" xlink:title=" ">
<polygon fill="white" stroke="#666666" points="825,-24.5 746,-24.5 746,-5.5 825,-5.5 825,-24.5"/>
<text text-anchor="middle" x="785.5" y="-12.5" font-family="Helvetica,sans-Serif" font-size="10.00">src/main.cpp</text>
</a>
</g>
</g>
<!-- Node2&#45;&gt;Node6 -->
<g id="edge20_Node000002_Node000006" class="edge">
<title>Node2&#45;&gt;Node6</title>
<g id="a_edge20_Node000002_Node000006"><a xlink:title=" ">
<path fill="none" stroke="#63b8ff" d="M820.39,-133.5C802.77,-125.69 783.67,-113.68 773.5,-96 760.19,-72.87 773.25,-40.01 780.86,-24.6"/>
<polygon fill="#63b8ff" stroke="#63b8ff" points="819.38,-136.87 829.96,-137.41 822.03,-130.39 819.38,-136.87"/>
</a>
</g>
</g>
<!-- Node9 -->
<g id="Node000009" class="node">
<title>Node9</title>
<g id="a_Node000009"><a xlink:href="_model_component_8hpp.html" target="_top" xlink:title=" ">
<polygon fill="white" stroke="#666666" points="726.5,-90.5 520.5,-90.5 520.5,-71.5 726.5,-71.5 726.5,-90.5"/>
<text text-anchor="middle" x="623.5" y="-78.5" font-family="Helvetica,sans-Serif" font-size="10.00">src/Components/ModelComponent.hpp</text>
</a>
</g>
</g>
<!-- Node2&#45;&gt;Node9 -->
<g id="edge8_Node000002_Node000009" class="edge">
<title>Node2&#45;&gt;Node9</title>
<g id="a_edge8_Node000002_Node000009"><a xlink:title=" ">
<path fill="none" stroke="#63b8ff" d="M817.91,-134.72C771.44,-122.12 697.21,-101.99 655.2,-90.6"/>
<polygon fill="#63b8ff" stroke="#63b8ff" points="817.1,-138.13 827.67,-137.37 818.94,-131.37 817.1,-138.13"/>
</a>
</g>
</g>
<!-- Node11 -->
<g id="Node000011" class="node">
<title>Node11</title>
<g id="a_Node000011"><a xlink:href="_model_component_u_i_8hpp.html" target="_top" xlink:title=" ">
<polygon fill="white" stroke="#666666" points="197,-30 0,-30 0,0 197,0 197,-30"/>
<text text-anchor="start" x="8" y="-18" font-family="Helvetica,sans-Serif" font-size="10.00">src/ui/Components/ModelComponent</text>
<text text-anchor="middle" x="98.5" y="-7" font-family="Helvetica,sans-Serif" font-size="10.00">UI.hpp</text>
</a>
</g>
</g>
<!-- Node2&#45;&gt;Node11 -->
<g id="edge22_Node000002_Node000011" class="edge">
<title>Node2&#45;&gt;Node11</title>
<g id="a_edge22_Node000002_Node000011"><a xlink:title=" ">
<path fill="none" stroke="#63b8ff" d="M772.13,-144.03C595.02,-139.43 205.98,-126.02 153.5,-96 127.75,-81.27 111.41,-48.98 103.71,-30.24"/>
<polygon fill="#63b8ff" stroke="#63b8ff" points="772.11,-147.53 782.2,-144.29 772.29,-140.53 772.11,-147.53"/>
</a>
</g>
</g>
<!-- Node12 -->
<g id="Node000012" class="node">
<title>Node12</title>
<g id="a_Node000012"><a xlink:href="_overlay_model_component_8hpp.html" target="_top" xlink:title=" ">
<polygon fill="white" stroke="#666666" points="1306,-96 1139,-96 1139,-66 1306,-66 1306,-96"/>
<text text-anchor="start" x="1147" y="-84" font-family="Helvetica,sans-Serif" font-size="10.00">src/Components/OverlayModel</text>
<text text-anchor="middle" x="1222.5" y="-73" font-family="Helvetica,sans-Serif" font-size="10.00">Component.hpp</text>
</a>
</g>
</g>
<!-- Node2&#45;&gt;Node12 -->
<g id="edge14_Node000002_Node000012" class="edge">
<title>Node2&#45;&gt;Node12</title>
<g id="a_edge14_Node000002_Node000012"><a xlink:title=" ">
<path fill="none" stroke="#63b8ff" d="M917.93,-135.7C978.95,-124.94 1075.04,-108 1142.95,-96.02"/>
<polygon fill="#63b8ff" stroke="#63b8ff" points="917.32,-132.25 908.08,-137.44 918.53,-139.15 917.32,-132.25"/>
</a>
</g>
</g>
<!-- Node13 -->
<g id="Node000013" class="node">
<title>Node13</title>
<g id="a_Node000013"><a xlink:href="_gizmo_system_8cpp.html" target="_top" xlink:title=" ">
<polygon fill="white" stroke="#666666" points="1455,-24.5 1288,-24.5 1288,-5.5 1455,-5.5 1455,-24.5"/>
<text text-anchor="middle" x="1371.5" y="-12.5" font-family="Helvetica,sans-Serif" font-size="10.00">src/Systems/GizmoSystem.cpp</text>
</a>
</g>
</g>
<!-- Node2&#45;&gt;Node13 -->
<g id="edge18_Node000002_Node000013" class="edge">
<title>Node2&#45;&gt;Node13</title>
<g id="a_edge18_Node000002_Node000013"><a xlink:title=" ">
<path fill="none" stroke="#63b8ff" d="M947,-144.78C1061.34,-141.77 1254.12,-131.43 1314.5,-96 1343.18,-79.17 1361.24,-41.56 1368.22,-24.6"/>
<polygon fill="#63b8ff" stroke="#63b8ff" points="946.78,-141.28 936.87,-145.03 946.95,-148.28 946.78,-141.28"/>
</a>
</g>
</g>
<!-- Node14 -->
<g id="Node000014" class="node">
<title>Node14</title>
<g id="a_Node000014"><a xlink:href="_asset_utils_8cpp.html" target="_top" xlink:title=" ">
<polygon fill="white" stroke="#666666" points="1083,-90.5 954,-90.5 954,-71.5 1083,-71.5 1083,-90.5"/>
<text text-anchor="middle" x="1018.5" y="-78.5" font-family="Helvetica,sans-Serif" font-size="10.00">src/Utils/AssetUtils.cpp</text>
</a>
</g>
</g>
<!-- Node2&#45;&gt;Node14 -->
<g id="edge19_Node000002_Node000014" class="edge">
<title>Node2&#45;&gt;Node14</title>
<g id="a_edge19_Node000002_Node000014"><a xlink:title=" ">
<path fill="none" stroke="#63b8ff" d="M890.53,-133.51C921.95,-120.86 969.73,-101.63 997.14,-90.6"/>
<polygon fill="#63b8ff" stroke="#63b8ff" points="888.91,-130.39 880.94,-137.37 891.53,-136.88 888.91,-130.39"/>
</a>
</g>
</g>
<!-- Node15 -->
<g id="Node000015" class="node">
<title>Node15</title>
<g id="a_Node000015"><a xlink:href="_asset_selector_8hpp.html" target="_top" xlink:title=" ">
<polygon fill="white" stroke="#666666" points="502.5,-90.5 322.5,-90.5 322.5,-71.5 502.5,-71.5 502.5,-90.5"/>
<text text-anchor="middle" x="412.5" y="-78.5" font-family="Helvetica,sans-Serif" font-size="10.00">src/ui/Common/AssetSelector.hpp</text>
</a>
</g>
</g>
<!-- Node2&#45;&gt;Node15 -->
<g id="edge21_Node000002_Node000015" class="edge">
<title>Node2&#45;&gt;Node15</title>
<g id="a_edge21_Node000002_Node000015"><a xlink:title=" ">
<path fill="none" stroke="#63b8ff" d="M789.59,-135.99C702.21,-123.48 554.16,-102.28 471.97,-90.51"/>
<polygon fill="#63b8ff" stroke="#63b8ff" points="789.28,-139.48 799.68,-137.44 790.28,-132.55 789.28,-139.48"/>
</a>
</g>
</g>
<!-- Node16 -->
<g id="Node000016" class="node">
<title>Node16</title>
<g id="a_Node000016"><a xlink:href="_filesystem_widget_8cpp.html" target="_top" xlink:title=" ">
<polygon fill="white" stroke="#666666" points="1786.5,-30 1646.5,-30 1646.5,0 1786.5,0 1786.5,-30"/>
<text text-anchor="start" x="1654.5" y="-18" font-family="Helvetica,sans-Serif" font-size="10.00">src/ui/widgets/Filesystem</text>
<text text-anchor="middle" x="1716.5" y="-7" font-family="Helvetica,sans-Serif" font-size="10.00">Widget.cpp</text>
</a>
</g>
</g>
<!-- Node2&#45;&gt;Node16 -->
<g id="edge23_Node000002_Node000016" class="edge">
<title>Node2&#45;&gt;Node16</title>
<g id="a_edge23_Node000002_Node000016"><a xlink:title=" ">
<path fill="none" stroke="#63b8ff" d="M946.73,-140.58C1044.01,-133.71 1205.82,-119.79 1343.5,-96 1398.95,-86.42 1411.57,-78.19 1466.5,-66 1527,-52.58 1596.09,-38.88 1646.29,-29.23"/>
<polygon fill="#63b8ff" stroke="#63b8ff" points="946.38,-137.1 936.64,-141.29 946.86,-144.08 946.38,-137.1"/>
</a>
</g>
</g>
<!-- Node5 -->
<g id="Node000005" class="node">
<title>Node5</title>
<g id="a_Node000005"><a xlink:href="_rendering_system_8cpp.html" target="_top" xlink:title=" ">
<polygon fill="white" stroke="#666666" points="728,-24.5 543,-24.5 543,-5.5 728,-5.5 728,-24.5"/>
<text text-anchor="middle" x="635.5" y="-12.5" font-family="Helvetica,sans-Serif" font-size="10.00">src/Systems/RenderingSystem.cpp</text>
</a>
</g>
</g>
<!-- Node4&#45;&gt;Node5 -->
<g id="edge4_Node000004_Node000005" class="edge">
<title>Node4&#45;&gt;Node5</title>
<g id="a_edge4_Node000004_Node000005"><a xlink:title=" ">
<path fill="none" stroke="#63b8ff" d="M314.72,-65.82C413.27,-49.61 516.18,-33.9 578.44,-24.52"/>
<polygon fill="#63b8ff" stroke="#63b8ff" points="313.89,-62.41 304.59,-67.49 315.02,-69.31 313.89,-62.41"/>
</a>
</g>
</g>
<!-- Node4&#45;&gt;Node6 -->
<g id="edge5_Node000004_Node000006" class="edge">
<title>Node4&#45;&gt;Node6</title>
<g id="a_edge5_Node000004_Node000006"><a xlink:title=" ">
<path fill="none" stroke="#63b8ff" d="M314.48,-65.96C502.37,-42.46 554.09,-63.49 736.5,-30 743.98,-28.63 751.97,-26.59 759.27,-24.5"/>
<polygon fill="#63b8ff" stroke="#63b8ff" points="314.03,-62.49 304.55,-67.23 314.91,-69.44 314.03,-62.49"/>
</a>
</g>
</g>
<!-- Node7 -->
<g id="Node000007" class="node">
<title>Node7</title>
<g id="a_Node000007"><a xlink:href="_billboard_component_u_i_8hpp.html" target="_top" xlink:title=" ">
<polygon fill="white" stroke="#666666" points="369.5,-30 215.5,-30 215.5,0 369.5,0 369.5,-30"/>
<text text-anchor="start" x="223.5" y="-18" font-family="Helvetica,sans-Serif" font-size="10.00">src/ui/Components/Billboard</text>
<text text-anchor="middle" x="292.5" y="-7" font-family="Helvetica,sans-Serif" font-size="10.00">ComponentUI.hpp</text>
</a>
</g>
</g>
<!-- Node4&#45;&gt;Node7 -->
<g id="edge6_Node000004_Node000007" class="edge">
<title>Node4&#45;&gt;Node7</title>
<g id="a_edge6_Node000004_Node000007"><a xlink:title=" ">
<path fill="none" stroke="#63b8ff" d="M253.44,-58.37C262.02,-49.06 271.81,-38.44 279.44,-30.16"/>
<polygon fill="#63b8ff" stroke="#63b8ff" points="250.8,-56.07 246.59,-65.8 255.95,-60.82 250.8,-56.07"/>
</a>
</g>
</g>
<!-- Node8 -->
<g id="Node000008" class="node">
<title>Node8</title>
<g id="a_Node000008"><a xlink:href="_properties_widget_8cpp.html" target="_top" xlink:title=" ">
<polygon fill="white" stroke="#666666" points="525,-30 388,-30 388,0 525,0 525,-30"/>
<text text-anchor="start" x="396" y="-18" font-family="Helvetica,sans-Serif" font-size="10.00">src/ui/widgets/Properties</text>
<text text-anchor="middle" x="456.5" y="-7" font-family="Helvetica,sans-Serif" font-size="10.00">Widget.cpp</text>
</a>
</g>
</g>
<!-- Node4&#45;&gt;Node8 -->
<g id="edge7_Node000004_Node000008" class="edge">
<title>Node4&#45;&gt;Node8</title>
<g id="a_edge7_Node000004_Node000008"><a xlink:title=" ">
<path fill="none" stroke="#63b8ff" d="M292.31,-63.12C328.27,-52.8 373.72,-39.76 407.68,-30.01"/>
<polygon fill="#63b8ff" stroke="#63b8ff" points="291.08,-59.83 282.44,-65.95 293.02,-66.56 291.08,-59.83"/>
</a>
</g>
</g>
<!-- Node9&#45;&gt;Node5 -->
<g id="edge10_Node000009_Node000005" class="edge">
<title>Node9&#45;&gt;Node5</title>
<g id="a_edge10_Node000009_Node000005"><a xlink:title=" ">
<path fill="none" stroke="#63b8ff" d="M626.98,-61.45C629.23,-49.43 632.07,-34.32 633.83,-24.91"/>
<polygon fill="#63b8ff" stroke="#63b8ff" points="623.52,-60.89 625.12,-71.37 630.4,-62.18 623.52,-60.89"/>
</a>
</g>
</g>
<!-- Node9&#45;&gt;Node6 -->
<g id="edge11_Node000009_Node000006" class="edge">
<title>Node9&#45;&gt;Node6</title>
<g id="a_edge11_Node000009_Node000006"><a xlink:title=" ">
<path fill="none" stroke="#63b8ff" d="M654.7,-67.68C686.71,-55.03 735.69,-35.68 763.74,-24.6"/>
<polygon fill="#63b8ff" stroke="#63b8ff" points="653.36,-64.44 645.35,-71.37 655.93,-70.95 653.36,-64.44"/>
</a>
</g>
</g>
<!-- Node9&#45;&gt;Node8 -->
<g id="edge13_Node000009_Node000008" class="edge">
<title>Node9&#45;&gt;Node8</title>
<g id="a_edge13_Node000009_Node000008"><a xlink:title=" ">
<path fill="none" stroke="#63b8ff" d="M591.63,-67.79C563.59,-57.04 522.77,-41.4 493.33,-30.12"/>
<polygon fill="#63b8ff" stroke="#63b8ff" points="590.39,-71.06 600.98,-71.37 592.89,-64.52 590.39,-71.06"/>
</a>
</g>
</g>
<!-- Node10 -->
<g id="Node000010" class="node">
<title>Node10</title>
<g id="a_Node000010"><a xlink:href="_object_selection_system_8cpp.html" target="_top" xlink:title=" ">
<polygon fill="white" stroke="#666666" points="1628,-30 1473,-30 1473,0 1628,0 1628,-30"/>
<text text-anchor="start" x="1481" y="-18" font-family="Helvetica,sans-Serif" font-size="10.00">src/Systems/ObjectSelection</text>
<text text-anchor="middle" x="1550.5" y="-7" font-family="Helvetica,sans-Serif" font-size="10.00">System.cpp</text>
</a>
</g>
</g>
<!-- Node9&#45;&gt;Node10 -->
<g id="edge9_Node000009_Node000010" class="edge">
<title>Node9&#45;&gt;Node10</title>
<g id="a_edge9_Node000009_Node000010"><a xlink:title=" ">
<path fill="none" stroke="#63b8ff" d="M718.4,-70.55C736.67,-68.9 755.67,-67.3 773.5,-66 1080.22,-43.71 1158.72,-62.76 1464.5,-30 1467.21,-29.71 1469.96,-29.39 1472.74,-29.05"/>
<polygon fill="#63b8ff" stroke="#63b8ff" points="717.97,-67.07 708.33,-71.47 718.61,-74.04 717.97,-67.07"/>
</a>
</g>
</g>
<!-- Node9&#45;&gt;Node11 -->
<g id="edge12_Node000009_Node000011" class="edge">
<title>Node9&#45;&gt;Node11</title>
<g id="a_edge12_Node000009_Node000011"><a xlink:title=" ">
<path fill="none" stroke="#63b8ff" d="M545.93,-70.23C534.39,-68.8 522.63,-67.35 511.5,-66 376,-49.53 341.96,-46.77 206.5,-30 203.4,-29.62 200.26,-29.22 197.08,-28.83"/>
<polygon fill="#63b8ff" stroke="#63b8ff" points="545.64,-73.72 555.99,-71.49 546.5,-66.78 545.64,-73.72"/>
</a>
</g>
</g>
<!-- Node12&#45;&gt;Node5 -->
<g id="edge16_Node000012_Node000005" class="edge">
<title>Node12&#45;&gt;Node5</title>
<g id="a_edge16_Node000012_Node000005"><a xlink:title=" ">
<path fill="none" stroke="#63b8ff" d="M1128.81,-66.4C1127.7,-66.26 1126.6,-66.13 1125.5,-66 953.08,-45.59 908.98,-49.92 736.5,-30 722.61,-28.4 707.67,-26.45 693.66,-24.52"/>
<polygon fill="#63b8ff" stroke="#63b8ff" points="1128.58,-69.89 1138.94,-67.66 1129.45,-62.95 1128.58,-69.89"/>
</a>
</g>
</g>
<!-- Node12&#45;&gt;Node6 -->
<g id="edge17_Node000012_Node000006" class="edge">
<title>Node12&#45;&gt;Node6</title>
<g id="a_edge17_Node000012_Node000006"><a xlink:title=" ">
<path fill="none" stroke="#63b8ff" d="M1128.63,-66.25C1034.2,-52.42 893.13,-31.76 825.05,-21.79"/>
<polygon fill="#63b8ff" stroke="#63b8ff" points="1128.36,-69.75 1138.76,-67.74 1129.37,-62.82 1128.36,-69.75"/>
</a>
</g>
</g>
<!-- Node12&#45;&gt;Node13 -->
<g id="edge15_Node000012_Node000013" class="edge">
<title>Node12&#45;&gt;Node13</title>
<g id="a_edge15_Node000012_Node000013"><a xlink:title=" ">
<path fill="none" stroke="#63b8ff" d="M1264.54,-61.94C1293.09,-49.68 1329.54,-34.02 1351.67,-24.52"/>
<polygon fill="#63b8ff" stroke="#63b8ff" points="1263.01,-58.79 1255.2,-65.95 1265.77,-65.22 1263.01,-58.79"/>
</a>
</g>
</g>
<!-- Node17&#45;&gt;Node6 -->
<g id="edge35_Node000017_Node000006" class="edge">
<title>Node17&#45;&gt;Node6</title>
<g id="a_edge35_Node000017_Node000006"><a xlink:title=" ">
<path fill="none" stroke="#63b8ff" d="M1464.9,-127.11C1428.59,-108.23 1369.26,-80.05 1314.5,-66 1136.01,-20.2 913.99,-15.43 825.04,-15.55"/>
<polygon fill="#63b8ff" stroke="#63b8ff" points="1463.59,-130.37 1474.07,-131.93 1466.85,-124.18 1463.59,-130.37"/>
</a>
</g>
</g>
<!-- Node17&#45;&gt;Node8 -->
<g id="edge38_Node000017_Node000008" class="edge">
<title>Node17&#45;&gt;Node8</title>
<g id="a_edge38_Node000017_Node000008"><a xlink:title=" ">
<path fill="none" stroke="#63b8ff" d="M1411.65,-139.5C1318.72,-131.68 1178.82,-116.93 1129.5,-96 1109.69,-87.59 1111.59,-73.71 1091.5,-66 975.49,-21.49 656.83,-45.14 533.5,-30 530.8,-29.67 528.06,-29.3 525.29,-28.91"/>
<polygon fill="#63b8ff" stroke="#63b8ff" points="1411.64,-143.01 1421.9,-140.35 1412.22,-136.03 1411.64,-143.01"/>
</a>
</g>
</g>
<!-- Node17&#45;&gt;Node10 -->
<g id="edge34_Node000017_Node000010" class="edge">
<title>Node17&#45;&gt;Node10</title>
<g id="a_edge34_Node000017_Node000010"><a xlink:title=" ">
<path fill="none" stroke="#63b8ff" d="M1587.57,-132.13C1661.51,-124.77 1816.79,-139.11 1854.5,-96 1863.28,-85.96 1863.13,-76.16 1854.5,-66 1854.04,-65.45 1718.16,-43.26 1628.24,-28.63"/>
<polygon fill="#63b8ff" stroke="#63b8ff" points="1586.78,-128.7 1577.27,-133.38 1587.62,-135.65 1586.78,-128.7"/>
</a>
</g>
</g>
<!-- Node17&#45;&gt;Node13 -->
<g id="edge33_Node000017_Node000013" class="edge">
<title>Node17&#45;&gt;Node13</title>
<g id="a_edge33_Node000017_Node000013"><a xlink:title=" ">
<path fill="none" stroke="#63b8ff" d="M1478.44,-124.61C1449.85,-95.58 1400.05,-45 1380.11,-24.75"/>
<polygon fill="#63b8ff" stroke="#63b8ff" points="1476.05,-127.17 1485.56,-131.84 1481.04,-122.26 1476.05,-127.17"/>
</a>
</g>
</g>
<!-- Node18 -->
<g id="Node000018" class="node">
<title>Node18</title>
<g id="a_Node000018"><a xlink:href="_input_manager_8hpp.html" target="_top" xlink:title=" ">
<polygon fill="white" stroke="#666666" points="2093.5,-90.5 1901.5,-90.5 1901.5,-71.5 2093.5,-71.5 2093.5,-90.5"/>
<text text-anchor="middle" x="1997.5" y="-78.5" font-family="Helvetica,sans-Serif" font-size="10.00">src/InputManager/InputManager.hpp</text>
</a>
</g>
</g>
<!-- Node17&#45;&gt;Node18 -->
<g id="edge25_Node000017_Node000018" class="edge">
<title>Node17&#45;&gt;Node18</title>
<g id="a_edge25_Node000017_Node000018"><a xlink:title=" ">
<path fill="none" stroke="#63b8ff" d="M1587.52,-131.89C1721.64,-113.25 1757.05,-112.1 1887.5,-96 1901.64,-94.25 1916.79,-92.35 1931.2,-90.52"/>
<polygon fill="#63b8ff" stroke="#63b8ff" points="1586.68,-128.48 1577.26,-133.33 1587.65,-135.41 1586.68,-128.48"/>
</a>
</g>
</g>
<!-- Node23 -->
<g id="Node000023" class="node">
<title>Node23</title>
<g id="a_Node000023"><a xlink:href="_billboard_component_u_i_8cpp.html" target="_top" xlink:title=" ">
<polygon fill="white" stroke="#666666" points="1629.5,-96 1475.5,-96 1475.5,-66 1629.5,-66 1629.5,-96"/>
<text text-anchor="start" x="1483.5" y="-84" font-family="Helvetica,sans-Serif" font-size="10.00">src/ui/Components/Billboard</text>
<text text-anchor="middle" x="1552.5" y="-73" font-family="Helvetica,sans-Serif" font-size="10.00">ComponentUI.cpp</text>
</a>
</g>
</g>
<!-- Node17&#45;&gt;Node23 -->
<g id="edge36_Node000017_Node000023" class="edge">
<title>Node17&#45;&gt;Node23</title>
<g id="a_edge36_Node000017_Node000023"><a xlink:title=" ">
<path fill="none" stroke="#63b8ff" d="M1517.65,-124.09C1525.3,-114.85 1533.98,-104.36 1540.77,-96.16"/>
<polygon fill="#63b8ff" stroke="#63b8ff" points="1514.94,-121.86 1511.26,-131.8 1520.34,-126.33 1514.94,-121.86"/>
</a>
</g>
</g>
<!-- Node24 -->
<g id="Node000024" class="node">
<title>Node24</title>
<g id="a_Node000024"><a xlink:href="_model_component_u_i_8cpp.html" target="_top" xlink:title=" ">
<polygon fill="white" stroke="#666666" points="1845,-96 1648,-96 1648,-66 1845,-66 1845,-96"/>
<text text-anchor="start" x="1656" y="-84" font-family="Helvetica,sans-Serif" font-size="10.00">src/ui/Components/ModelComponent</text>
<text text-anchor="middle" x="1746.5" y="-73" font-family="Helvetica,sans-Serif" font-size="10.00">UI.cpp</text>
</a>
</g>
</g>
<!-- Node17&#45;&gt;Node24 -->
<g id="edge37_Node000017_Node000024" class="edge">
<title>Node17&#45;&gt;Node24</title>
<g id="a_edge37_Node000017_Node000024"><a xlink:title=" ">
<path fill="none" stroke="#63b8ff" d="M1563.62,-129.39C1603.6,-119.03 1654.48,-105.84 1692.42,-96.01"/>
<polygon fill="#63b8ff" stroke="#63b8ff" points="1562.51,-126.06 1553.71,-131.95 1564.26,-132.83 1562.51,-126.06"/>
</a>
</g>
</g>
<!-- Node18&#45;&gt;Node10 -->
<g id="edge29_Node000018_Node000010" class="edge">
<title>Node18&#45;&gt;Node10</title>
<g id="a_edge29_Node000018_Node000010"><a xlink:title=" ">
<path fill="none" stroke="#63b8ff" d="M1923.06,-70.14C1850.21,-60.37 1736.14,-44.78 1637.5,-30 1634.47,-29.55 1631.39,-29.08 1628.28,-28.6"/>
<polygon fill="#63b8ff" stroke="#63b8ff" points="1922.68,-73.62 1933.06,-71.48 1923.61,-66.68 1922.68,-73.62"/>
</a>
</g>
</g>
<!-- Node18&#45;&gt;Node13 -->
<g id="edge28_Node000018_Node000013" class="edge">
<title>Node18&#45;&gt;Node13</title>
<g id="a_edge28_Node000018_Node000013"><a xlink:title=" ">
<path fill="none" stroke="#63b8ff" d="M1901.13,-70.49C1885.54,-68.97 1869.57,-67.43 1854.5,-66 1681.21,-49.52 1637.3,-50.96 1464.5,-30 1451.53,-28.43 1437.59,-26.47 1424.54,-24.52"/>
<polygon fill="#63b8ff" stroke="#63b8ff" points="1901.01,-74 1911.3,-71.48 1901.69,-67.03 1901.01,-74"/>
</a>
</g>
</g>
<!-- Node18&#45;&gt;Node16 -->
<g id="edge31_Node000018_Node000016" class="edge">
<title>Node18&#45;&gt;Node16</title>
<g id="a_edge31_Node000018_Node000016"><a xlink:title=" ">
<path fill="none" stroke="#63b8ff" d="M1949.91,-69.16C1902.59,-58.38 1829.78,-41.8 1778.08,-30.02"/>
<polygon fill="#63b8ff" stroke="#63b8ff" points="1949.37,-72.63 1959.89,-71.44 1950.92,-65.8 1949.37,-72.63"/>
</a>
</g>
</g>
<!-- Node19 -->
<g id="Node000019" class="node">
<title>Node19</title>
<g id="a_Node000019"><a xlink:href="_input_manager_8cpp.html" target="_top" xlink:title=" ">
<polygon fill="white" stroke="#666666" points="2468,-24.5 2277,-24.5 2277,-5.5 2468,-5.5 2468,-24.5"/>
<text text-anchor="middle" x="2372.5" y="-12.5" font-family="Helvetica,sans-Serif" font-size="10.00">src/InputManager/InputManager.cpp</text>
</a>
</g>
</g>
<!-- Node18&#45;&gt;Node19 -->
<g id="edge26_Node000018_Node000019" class="edge">
<title>Node18&#45;&gt;Node19</title>
<g id="a_edge26_Node000018_Node000019"><a xlink:title=" ">
<path fill="none" stroke="#63b8ff" d="M2057.72,-69.72C2131.22,-57.18 2254.15,-36.2 2322.61,-24.51"/>
<polygon fill="#63b8ff" stroke="#63b8ff" points="2056.95,-66.3 2047.69,-71.44 2058.13,-73.2 2056.95,-66.3"/>
</a>
</g>
</g>
<!-- Node20 -->
<g id="Node000020" class="node">
<title>Node20</title>
<g id="a_Node000020"><a xlink:href="_camera_movement_system_8cpp.html" target="_top" xlink:title=" ">
<polygon fill="white" stroke="#666666" points="1974.5,-30 1804.5,-30 1804.5,0 1974.5,0 1974.5,-30"/>
<text text-anchor="start" x="1812.5" y="-18" font-family="Helvetica,sans-Serif" font-size="10.00">src/Systems/CameraMovement</text>
<text text-anchor="middle" x="1889.5" y="-7" font-family="Helvetica,sans-Serif" font-size="10.00">System.cpp</text>
</a>
</g>
</g>
<!-- Node18&#45;&gt;Node20 -->
<g id="edge27_Node000018_Node000020" class="edge">
<title>Node18&#45;&gt;Node20</title>
<g id="a_edge27_Node000018_Node000020"><a xlink:title=" ">
<path fill="none" stroke="#63b8ff" d="M1974.22,-66.21C1956.24,-55.55 1931.44,-40.85 1913.32,-30.12"/>
<polygon fill="#63b8ff" stroke="#63b8ff" points="1972.55,-69.28 1982.93,-71.37 1976.12,-63.26 1972.55,-69.28"/>
</a>
</g>
</g>
<!-- Node21 -->
<g id="Node000021" class="node">
<title>Node21</title>
<g id="a_Node000021"><a xlink:href="_u_i_8cpp.html" target="_top" xlink:title=" ">
<polygon fill="white" stroke="#666666" points="2070,-24.5 1993,-24.5 1993,-5.5 2070,-5.5 2070,-24.5"/>
<text text-anchor="middle" x="2031.5" y="-12.5" font-family="Helvetica,sans-Serif" font-size="10.00">src/ui/UI.cpp</text>
</a>
</g>
</g>
<!-- Node18&#45;&gt;Node21 -->
<g id="edge30_Node000018_Node000021" class="edge">
<title>Node18&#45;&gt;Node21</title>
<g id="a_edge30_Node000018_Node000021"><a xlink:title=" ">
<path fill="none" stroke="#63b8ff" d="M2006.96,-62.18C2013.41,-50.05 2021.67,-34.51 2026.77,-24.91"/>
<polygon fill="#63b8ff" stroke="#63b8ff" points="2003.69,-60.9 2002.09,-71.37 2009.87,-64.18 2003.69,-60.9"/>
</a>
</g>
</g>
<!-- Node22 -->
<g id="Node000022" class="node">
<title>Node22</title>
<g id="a_Node000022"><a xlink:href="_scene_widget_8cpp.html" target="_top" xlink:title=" ">
<polygon fill="white" stroke="#666666" points="2259,-24.5 2088,-24.5 2088,-5.5 2259,-5.5 2259,-24.5"/>
<text text-anchor="middle" x="2173.5" y="-12.5" font-family="Helvetica,sans-Serif" font-size="10.00">src/ui/widgets/SceneWidget.cpp</text>
</a>
</g>
</g>
<!-- Node18&#45;&gt;Node22 -->
<g id="edge32_Node000018_Node000022" class="edge">
<title>Node18&#45;&gt;Node22</title>
<g id="a_edge32_Node000018_Node000022"><a xlink:title=" ">
<path fill="none" stroke="#63b8ff" d="M2030.94,-67.84C2065.71,-55.2 2119.25,-35.73 2149.86,-24.6"/>
<polygon fill="#63b8ff" stroke="#63b8ff" points="2029.44,-64.66 2021.24,-71.37 2031.83,-71.24 2029.44,-64.66"/>
</a>
</g>
</g>
</g>
</svg>
