<?xml version="1.0" encoding="UTF-8" standalone="no"?>
<!DOCTYPE svg PUBLIC "-//W3C//DTD SVG 1.1//EN"
 "http://www.w3.org/Graphics/SVG/1.1/DTD/svg11.dtd">
<!-- Generated by graphviz version 2.43.0 (0)
 -->
<!-- Title: src/ui/Components/AmbientLightComponentUI.hpp Pages: 1 -->
<svg width="774pt" height="313pt"
 viewBox="0.00 0.00 773.96 313.00" xmlns="http://www.w3.org/2000/svg" xmlns:xlink="http://www.w3.org/1999/xlink">
<g id="graph0" class="graph" transform="scale(1 1) rotate(0) translate(4 309)">
<title>src/ui/Components/AmbientLightComponentUI.hpp</title>
<!-- Node1 -->
<g id="Node000001" class="node">
<title>Node1</title>
<g id="a_Node000001"><a xlink:title=" ">
<polygon fill="#999999" stroke="#666666" points="542.96,-305 390.96,-305 390.96,-275 542.96,-275 542.96,-305"/>
<text text-anchor="start" x="398.96" y="-293" font-family="Helvetica,sans-Serif" font-size="10.00">src/ui/Components/Ambient</text>
<text text-anchor="middle" x="466.96" y="-282" font-family="Helvetica,sans-Serif" font-size="10.00">LightComponentUI.hpp</text>
</a>
</g>
</g>
<!-- Node2 -->
<g id="Node000002" class="node">
<title>Node2</title>
<g id="a_Node000002"><a xlink:href="_ambient_light_component_8hpp.html" target="_top" xlink:title=" ">
<polygon fill="white" stroke="#666666" points="279.96,-239 55.96,-239 55.96,-220 279.96,-220 279.96,-239"/>
<text text-anchor="middle" x="167.96" y="-227" font-family="Helvetica,sans-Serif" font-size="10.00">Components/AmbientLightComponent.hpp</text>
</a>
</g>
</g>
<!-- Node1&#45;&gt;Node2 -->
<g id="edge1_Node000001_Node000002" class="edge">
<title>Node1&#45;&gt;Node2</title>
<g id="a_edge1_Node000001_Node000002"><a xlink:title=" ">
<path fill="none" stroke="#63b8ff" d="M395.34,-274.99C341.95,-264.54 270.18,-250.5 221.66,-241.01"/>
<polygon fill="#63b8ff" stroke="#63b8ff" points="222.16,-237.54 211.68,-239.05 220.82,-244.41 222.16,-237.54"/>
</a>
</g>
</g>
<!-- Node12 -->
<g id="Node000012" class="node">
<title>Node12</title>
<g id="a_Node000012"><a xlink:title=" ">
<polygon fill="#e0e0e0" stroke="#999999" points="461.46,-239 298.46,-239 298.46,-220 461.46,-220 461.46,-239"/>
<text text-anchor="middle" x="379.96" y="-227" font-family="Helvetica,sans-Serif" font-size="10.00">UI/Common/ColorSelector.hpp</text>
</a>
</g>
</g>
<!-- Node1&#45;&gt;Node12 -->
<g id="edge13_Node000001_Node000012" class="edge">
<title>Node1&#45;&gt;Node12</title>
<g id="a_edge13_Node000001_Node000012"><a xlink:title=" ">
<path fill="none" stroke="#63b8ff" d="M445.9,-274.84C432.41,-265.77 414.97,-254.04 401.41,-244.92"/>
<polygon fill="#63b8ff" stroke="#63b8ff" points="402.99,-241.77 392.74,-239.09 399.08,-247.58 402.99,-241.77"/>
</a>
</g>
</g>
<!-- Node13 -->
<g id="Node000013" class="node">
<title>Node13</title>
<g id="a_Node000013"><a xlink:title=" ">
<polygon fill="#e0e0e0" stroke="#999999" points="629.96,-239 479.96,-239 479.96,-220 629.96,-220 629.96,-239"/>
<text text-anchor="middle" x="554.96" y="-227" font-family="Helvetica,sans-Serif" font-size="10.00">UI/Common/FloatSlider.hpp</text>
</a>
</g>
</g>
<!-- Node1&#45;&gt;Node13 -->
<g id="edge14_Node000001_Node000013" class="edge">
<title>Node1&#45;&gt;Node13</title>
<g id="a_edge14_Node000001_Node000013"><a xlink:title=" ">
<path fill="none" stroke="#63b8ff" d="M488.26,-274.84C502.03,-265.68 519.88,-253.82 533.65,-244.66"/>
<polygon fill="#63b8ff" stroke="#63b8ff" points="535.64,-247.55 542.03,-239.09 531.76,-241.72 535.64,-247.55"/>
</a>
</g>
</g>
<!-- Node14 -->
<g id="Node000014" class="node">
<title>Node14</title>
<g id="a_Node000014"><a xlink:title=" ">
<polygon fill="#e0e0e0" stroke="#999999" points="765.96,-239 647.96,-239 647.96,-220 765.96,-220 765.96,-239"/>
<text text-anchor="middle" x="706.96" y="-227" font-family="Helvetica,sans-Serif" font-size="10.00">UI/ComponentUI.hpp</text>
</a>
</g>
</g>
<!-- Node1&#45;&gt;Node14 -->
<g id="edge15_Node000001_Node000014" class="edge">
<title>Node1&#45;&gt;Node14</title>
<g id="a_edge15_Node000001_Node000014"><a xlink:title=" ">
<path fill="none" stroke="#63b8ff" d="M524.44,-274.99C566.58,-264.72 622.98,-250.97 661.88,-241.49"/>
<polygon fill="#63b8ff" stroke="#63b8ff" points="662.98,-244.82 671.87,-239.05 661.32,-238.02 662.98,-244.82"/>
</a>
</g>
</g>
<!-- Node3 -->
<g id="Node000003" class="node">
<title>Node3</title>
<g id="a_Node000003"><a xlink:href="_base_component_8hpp.html" target="_top" xlink:title=" ">
<polygon fill="white" stroke="#666666" points="184.96,-184 2.96,-184 2.96,-165 184.96,-165 184.96,-184"/>
<text text-anchor="middle" x="93.96" y="-172" font-family="Helvetica,sans-Serif" font-size="10.00">Components/BaseComponent.hpp</text>
</a>
</g>
</g>
<!-- Node2&#45;&gt;Node3 -->
<g id="edge2_Node000002_Node000003" class="edge">
<title>Node2&#45;&gt;Node3</title>
<g id="a_edge2_Node000002_Node000003"><a xlink:title=" ">
<path fill="none" stroke="#63b8ff" d="M156.07,-219.98C144.81,-211.92 127.67,-199.65 114.25,-190.03"/>
<polygon fill="#63b8ff" stroke="#63b8ff" points="116.23,-187.15 106.06,-184.17 112.16,-192.84 116.23,-187.15"/>
</a>
</g>
</g>
<!-- Node11 -->
<g id="Node000011" class="node">
<title>Node11</title>
<g id="a_Node000011"><a xlink:title=" ">
<polygon fill="#e0e0e0" stroke="#999999" points="280.96,-184 202.96,-184 202.96,-165 280.96,-165 280.96,-184"/>
<text text-anchor="middle" x="241.96" y="-172" font-family="Helvetica,sans-Serif" font-size="10.00">glm/glm.hpp</text>
</a>
</g>
</g>
<!-- Node2&#45;&gt;Node11 -->
<g id="edge12_Node000002_Node000011" class="edge">
<title>Node2&#45;&gt;Node11</title>
<g id="a_edge12_Node000002_Node000011"><a xlink:title=" ">
<path fill="none" stroke="#63b8ff" d="M179.85,-219.98C191.11,-211.92 208.24,-199.65 221.67,-190.03"/>
<polygon fill="#63b8ff" stroke="#63b8ff" points="223.76,-192.84 229.85,-184.17 219.68,-187.15 223.76,-192.84"/>
</a>
</g>
</g>
<!-- Node4 -->
<g id="Node000004" class="node">
<title>Node4</title>
<g id="a_Node000004"><a xlink:href="_type_info_8hpp.html" target="_top" xlink:title=" ">
<polygon fill="white" stroke="#666666" points="156.96,-74 30.96,-74 30.96,-55 156.96,-55 156.96,-74"/>
<text text-anchor="middle" x="93.96" y="-62" font-family="Helvetica,sans-Serif" font-size="10.00">Common/TypeInfo.hpp</text>
</a>
</g>
</g>
<!-- Node3&#45;&gt;Node4 -->
<g id="edge3_Node000003_Node000004" class="edge">
<title>Node3&#45;&gt;Node4</title>
<g id="a_edge3_Node000003_Node000004"><a xlink:title=" ">
<path fill="none" stroke="#63b8ff" d="M55.94,-164.85C36.83,-158.37 15.36,-147.36 3.96,-129 -10.88,-105.11 21.04,-87.71 50.89,-77.23"/>
<polygon fill="#63b8ff" stroke="#63b8ff" points="52.05,-80.53 60.44,-74.07 49.85,-73.88 52.05,-80.53"/>
</a>
</g>
</g>
<!-- Node7 -->
<g id="Node000007" class="node">
<title>Node7</title>
<g id="a_Node000007"><a xlink:href="_types_8hpp.html" target="_top" xlink:title=" ">
<polygon fill="white" stroke="#666666" points="305.46,-129 192.46,-129 192.46,-110 305.46,-110 305.46,-129"/>
<text text-anchor="middle" x="248.96" y="-117" font-family="Helvetica,sans-Serif" font-size="10.00">Common/Types.hpp</text>
</a>
</g>
</g>
<!-- Node3&#45;&gt;Node7 -->
<g id="edge6_Node000003_Node000007" class="edge">
<title>Node3&#45;&gt;Node7</title>
<g id="a_edge6_Node000003_Node000007"><a xlink:title=" ">
<path fill="none" stroke="#63b8ff" d="M118.86,-164.98C144.66,-156.16 185.18,-142.31 214.14,-132.41"/>
<polygon fill="#63b8ff" stroke="#63b8ff" points="215.53,-135.63 223.86,-129.08 213.26,-129.01 215.53,-135.63"/>
</a>
</g>
</g>
<!-- Node10 -->
<g id="Node000010" class="node">
<title>Node10</title>
<g id="a_Node000010"><a xlink:href="_requirements_8hpp.html" target="_top" xlink:title=" ">
<polygon fill="white" stroke="#666666" points="174.46,-129 13.46,-129 13.46,-110 174.46,-110 174.46,-129"/>
<text text-anchor="middle" x="93.96" y="-117" font-family="Helvetica,sans-Serif" font-size="10.00">JobSystem/Requirements.hpp</text>
</a>
</g>
</g>
<!-- Node3&#45;&gt;Node10 -->
<g id="edge10_Node000003_Node000010" class="edge">
<title>Node3&#45;&gt;Node10</title>
<g id="a_edge10_Node000003_Node000010"><a xlink:title=" ">
<path fill="none" stroke="#63b8ff" d="M93.96,-164.75C93.96,-157.8 93.96,-147.85 93.96,-139.13"/>
<polygon fill="#63b8ff" stroke="#63b8ff" points="97.46,-139.09 93.96,-129.09 90.46,-139.09 97.46,-139.09"/>
</a>
</g>
</g>
<!-- Node5 -->
<g id="Node000005" class="node">
<title>Node5</title>
<g id="a_Node000005"><a xlink:title=" ">
<polygon fill="#e0e0e0" stroke="#999999" points="190.96,-19 158.96,-19 158.96,0 190.96,0 190.96,-19"/>
<text text-anchor="middle" x="174.96" y="-7" font-family="Helvetica,sans-Serif" font-size="10.00">set</text>
</a>
</g>
</g>
<!-- Node4&#45;&gt;Node5 -->
<g id="edge4_Node000004_Node000005" class="edge">
<title>Node4&#45;&gt;Node5</title>
<g id="a_edge4_Node000004_Node000005"><a xlink:title=" ">
<path fill="none" stroke="#63b8ff" d="M106.97,-54.98C119.42,-46.84 138.41,-34.41 153.17,-24.76"/>
<polygon fill="#63b8ff" stroke="#63b8ff" points="155.26,-27.57 161.71,-19.17 151.42,-21.72 155.26,-27.57"/>
</a>
</g>
</g>
<!-- Node6 -->
<g id="Node000006" class="node">
<title>Node6</title>
<g id="a_Node000006"><a xlink:title=" ">
<polygon fill="#e0e0e0" stroke="#999999" points="130.46,-19 57.46,-19 57.46,0 130.46,0 130.46,-19"/>
<text text-anchor="middle" x="93.96" y="-7" font-family="Helvetica,sans-Serif" font-size="10.00">string_view</text>
</a>
</g>
</g>
<!-- Node4&#45;&gt;Node6 -->
<g id="edge5_Node000004_Node000006" class="edge">
<title>Node4&#45;&gt;Node6</title>
<g id="a_edge5_Node000004_Node000006"><a xlink:title=" ">
<path fill="none" stroke="#63b8ff" d="M93.96,-54.75C93.96,-47.8 93.96,-37.85 93.96,-29.13"/>
<polygon fill="#63b8ff" stroke="#63b8ff" points="97.46,-29.09 93.96,-19.09 90.46,-29.09 97.46,-29.09"/>
</a>
</g>
</g>
<!-- Node7&#45;&gt;Node5 -->
<g id="edge8_Node000007_Node000005" class="edge">
<title>Node7&#45;&gt;Node5</title>
<g id="a_edge8_Node000007_Node000005"><a xlink:title=" ">
<path fill="none" stroke="#63b8ff" d="M238.51,-109.79C228.89,-101.37 214.67,-87.89 204.96,-74 195.03,-59.81 186.88,-41.82 181.6,-28.61"/>
<polygon fill="#63b8ff" stroke="#63b8ff" points="184.84,-27.3 177.99,-19.21 178.31,-29.8 184.84,-27.3"/>
</a>
</g>
</g>
<!-- Node8 -->
<g id="Node000008" class="node">
<title>Node8</title>
<g id="a_Node000008"><a xlink:title=" ">
<polygon fill="#e0e0e0" stroke="#999999" points="281.96,-74 213.96,-74 213.96,-55 281.96,-55 281.96,-74"/>
<text text-anchor="middle" x="247.96" y="-62" font-family="Helvetica,sans-Serif" font-size="10.00">filesystem</text>
</a>
</g>
</g>
<!-- Node7&#45;&gt;Node8 -->
<g id="edge7_Node000007_Node000008" class="edge">
<title>Node7&#45;&gt;Node8</title>
<g id="a_edge7_Node000007_Node000008"><a xlink:title=" ">
<path fill="none" stroke="#63b8ff" d="M248.79,-109.75C248.66,-102.8 248.47,-92.85 248.31,-84.13"/>
<polygon fill="#63b8ff" stroke="#63b8ff" points="251.81,-84.02 248.12,-74.09 244.81,-84.15 251.81,-84.02"/>
</a>
</g>
</g>
<!-- Node9 -->
<g id="Node000009" class="node">
<title>Node9</title>
<g id="a_Node000009"><a xlink:title=" ">
<polygon fill="#e0e0e0" stroke="#999999" points="365.46,-74 300.46,-74 300.46,-55 365.46,-55 365.46,-74"/>
<text text-anchor="middle" x="332.96" y="-62" font-family="Helvetica,sans-Serif" font-size="10.00">typeindex</text>
</a>
</g>
</g>
<!-- Node7&#45;&gt;Node9 -->
<g id="edge9_Node000007_Node000009" class="edge">
<title>Node7&#45;&gt;Node9</title>
<g id="a_edge9_Node000007_Node000009"><a xlink:title=" ">
<path fill="none" stroke="#63b8ff" d="M262.45,-109.98C275.36,-101.84 295.06,-89.41 310.36,-79.76"/>
<polygon fill="#63b8ff" stroke="#63b8ff" points="312.63,-82.47 319.22,-74.17 308.89,-76.55 312.63,-82.47"/>
</a>
</g>
</g>
<!-- Node10&#45;&gt;Node4 -->
<g id="edge11_Node000010_Node000004" class="edge">
<title>Node10&#45;&gt;Node4</title>
<g id="a_edge11_Node000010_Node000004"><a xlink:title=" ">
<path fill="none" stroke="#63b8ff" d="M93.96,-109.75C93.96,-102.8 93.96,-92.85 93.96,-84.13"/>
<polygon fill="#63b8ff" stroke="#63b8ff" points="97.46,-84.09 93.96,-74.09 90.46,-84.09 97.46,-84.09"/>
</a>
</g>
</g>
</g>
</svg>
