<?xml version="1.0" encoding="UTF-8" standalone="no"?>
<!DOCTYPE svg PUBLIC "-//W3C//DTD SVG 1.1//EN"
 "http://www.w3.org/Graphics/SVG/1.1/DTD/svg11.dtd">
<!-- Generated by graphviz version 2.43.0 (0)
 -->
<!-- Title: src/ui/Components/AmbientLightComponentUI.hpp Pages: 1 -->
<svg width="889pt" height="207pt"
 viewBox="0.00 0.00 889.00 207.00" xmlns="http://www.w3.org/2000/svg" xmlns:xlink="http://www.w3.org/1999/xlink">
<g id="graph0" class="graph" transform="scale(1 1) rotate(0) translate(4 203)">
<title>src/ui/Components/AmbientLightComponentUI.hpp</title>
<polygon fill="white" stroke="transparent" points="-4,4 -4,-203 885,-203 885,4 -4,4"/>
<!-- Node1 -->
<g id="node1" class="node">
<title>Node1</title>
<g id="a_node1"><a xlink:title=" ">
<polygon fill="#bfbfbf" stroke="black" points="229,-168.5 229,-198.5 381,-198.5 381,-168.5 229,-168.5"/>
<text text-anchor="start" x="237" y="-186.5" font-family="Helvetica,sans-Serif" font-size="10.00">src/ui/Components/Ambient</text>
<text text-anchor="middle" x="305" y="-175.5" font-family="Helvetica,sans-Serif" font-size="10.00">LightComponentUI.hpp</text>
</a>
</g>
</g>
<!-- Node2 -->
<g id="node2" class="node">
<title>Node2</title>
<g id="a_node2"><a xlink:title=" ">
<polygon fill="white" stroke="#bfbfbf" points="0,-112.5 0,-131.5 118,-131.5 118,-112.5 0,-112.5"/>
<text text-anchor="middle" x="59" y="-119.5" font-family="Helvetica,sans-Serif" font-size="10.00">UI/ComponentUI.hpp</text>
</a>
</g>
</g>
<!-- Node1&#45;&gt;Node2 -->
<g id="edge1" class="edge">
<title>Node1&#45;&gt;Node2</title>
<path fill="none" stroke="midnightblue" d="M247.01,-168.47C203.28,-157.9 144.15,-143.59 103.96,-133.87"/>
<polygon fill="midnightblue" stroke="midnightblue" points="104.71,-130.46 94.17,-131.51 103.07,-137.26 104.71,-130.46"/>
</g>
<!-- Node3 -->
<g id="node3" class="node">
<title>Node3</title>
<g id="a_node3"><a xlink:title=" ">
<polygon fill="white" stroke="#bfbfbf" points="136.5,-112.5 136.5,-131.5 299.5,-131.5 299.5,-112.5 136.5,-112.5"/>
<text text-anchor="middle" x="218" y="-119.5" font-family="Helvetica,sans-Serif" font-size="10.00">UI/Common/ColorSelector.hpp</text>
</a>
</g>
</g>
<!-- Node1&#45;&gt;Node3 -->
<g id="edge2" class="edge">
<title>Node1&#45;&gt;Node3</title>
<path fill="none" stroke="midnightblue" d="M284.38,-168.4C270.7,-159.04 252.79,-146.79 239.02,-137.38"/>
<polygon fill="midnightblue" stroke="midnightblue" points="240.89,-134.41 230.66,-131.66 236.94,-140.19 240.89,-134.41"/>
</g>
<!-- Node4 -->
<g id="node4" class="node">
<title>Node4</title>
<g id="a_node4"><a xlink:title=" ">
<polygon fill="white" stroke="#bfbfbf" points="318,-112.5 318,-131.5 468,-131.5 468,-112.5 318,-112.5"/>
<text text-anchor="middle" x="393" y="-119.5" font-family="Helvetica,sans-Serif" font-size="10.00">UI/Common/FloatSlider.hpp</text>
</a>
</g>
</g>
<!-- Node1&#45;&gt;Node4 -->
<g id="edge3" class="edge">
<title>Node1&#45;&gt;Node4</title>
<path fill="none" stroke="midnightblue" d="M325.85,-168.4C339.7,-159.04 357.81,-146.79 371.74,-137.38"/>
<polygon fill="midnightblue" stroke="midnightblue" points="373.87,-140.16 380.2,-131.66 369.95,-134.36 373.87,-140.16"/>
</g>
<!-- Node5 -->
<g id="node5" class="node">
<title>Node5</title>
<g id="a_node5"><a xlink:href="_ambient_light_component_8hpp.html" target="_top" xlink:title=" ">
<polygon fill="white" stroke="black" points="486,-112.5 486,-131.5 710,-131.5 710,-112.5 486,-112.5"/>
<text text-anchor="middle" x="598" y="-119.5" font-family="Helvetica,sans-Serif" font-size="10.00">Components/AmbientLightComponent.hpp</text>
</a>
</g>
</g>
<!-- Node1&#45;&gt;Node5 -->
<g id="edge4" class="edge">
<title>Node1&#45;&gt;Node5</title>
<path fill="none" stroke="midnightblue" d="M374.07,-168.47C426.82,-157.76 498.38,-143.23 546.27,-133.51"/>
<polygon fill="midnightblue" stroke="midnightblue" points="547.01,-136.93 556.11,-131.51 545.61,-130.07 547.01,-136.93"/>
</g>
<!-- Node6 -->
<g id="node6" class="node">
<title>Node6</title>
<g id="a_node6"><a xlink:title=" ">
<polygon fill="white" stroke="#bfbfbf" points="463,-56.5 463,-75.5 507,-75.5 507,-56.5 463,-56.5"/>
<text text-anchor="middle" x="485" y="-63.5" font-family="Helvetica,sans-Serif" font-size="10.00">string</text>
</a>
</g>
</g>
<!-- Node5&#45;&gt;Node6 -->
<g id="edge5" class="edge">
<title>Node5&#45;&gt;Node6</title>
<path fill="none" stroke="midnightblue" d="M580.09,-112.44C561.75,-103.68 532.99,-89.94 511.91,-79.86"/>
<polygon fill="midnightblue" stroke="midnightblue" points="513.35,-76.67 502.82,-75.52 510.33,-82.99 513.35,-76.67"/>
</g>
<!-- Node7 -->
<g id="node7" class="node">
<title>Node7</title>
<g id="a_node7"><a xlink:title=" ">
<polygon fill="white" stroke="#bfbfbf" points="525,-56.5 525,-75.5 585,-75.5 585,-56.5 525,-56.5"/>
<text text-anchor="middle" x="555" y="-63.5" font-family="Helvetica,sans-Serif" font-size="10.00">iostream</text>
</a>
</g>
</g>
<!-- Node5&#45;&gt;Node7 -->
<g id="edge6" class="edge">
<title>Node5&#45;&gt;Node7</title>
<path fill="none" stroke="midnightblue" d="M590.9,-112.08C584.76,-104.38 575.73,-93.03 568.26,-83.65"/>
<polygon fill="midnightblue" stroke="midnightblue" points="570.94,-81.39 561.97,-75.75 565.46,-85.75 570.94,-81.39"/>
</g>
<!-- Node8 -->
<g id="node8" class="node">
<title>Node8</title>
<g id="a_node8"><a xlink:title=" ">
<polygon fill="white" stroke="#bfbfbf" points="603,-56.5 603,-75.5 681,-75.5 681,-56.5 603,-56.5"/>
<text text-anchor="middle" x="642" y="-63.5" font-family="Helvetica,sans-Serif" font-size="10.00">glm/glm.hpp</text>
</a>
</g>
</g>
<!-- Node5&#45;&gt;Node8 -->
<g id="edge7" class="edge">
<title>Node5&#45;&gt;Node8</title>
<path fill="none" stroke="midnightblue" d="M605.27,-112.08C611.54,-104.38 620.79,-93.03 628.43,-83.65"/>
<polygon fill="midnightblue" stroke="midnightblue" points="631.27,-85.71 634.87,-75.75 625.84,-81.29 631.27,-85.71"/>
</g>
<!-- Node9 -->
<g id="node9" class="node">
<title>Node9</title>
<g id="a_node9"><a xlink:href="_base_component_8hpp.html" target="_top" xlink:title=" ">
<polygon fill="white" stroke="black" points="699,-56.5 699,-75.5 881,-75.5 881,-56.5 699,-56.5"/>
<text text-anchor="middle" x="790" y="-63.5" font-family="Helvetica,sans-Serif" font-size="10.00">Components/BaseComponent.hpp</text>
</a>
</g>
</g>
<!-- Node5&#45;&gt;Node9 -->
<g id="edge8" class="edge">
<title>Node5&#45;&gt;Node9</title>
<path fill="none" stroke="midnightblue" d="M628.42,-112.44C661.28,-103.2 713.78,-88.44 749.97,-78.26"/>
<polygon fill="midnightblue" stroke="midnightblue" points="751.04,-81.59 759.72,-75.52 749.15,-74.85 751.04,-81.59"/>
</g>
<!-- Node10 -->
<g id="node10" class="node">
<title>Node10</title>
<g id="a_node10"><a xlink:href="_types_8hpp.html" target="_top" xlink:title=" ">
<polygon fill="white" stroke="black" points="733.5,-0.5 733.5,-19.5 846.5,-19.5 846.5,-0.5 733.5,-0.5"/>
<text text-anchor="middle" x="790" y="-7.5" font-family="Helvetica,sans-Serif" font-size="10.00">Common/Types.hpp</text>
</a>
</g>
</g>
<!-- Node9&#45;&gt;Node10 -->
<g id="edge9" class="edge">
<title>Node9&#45;&gt;Node10</title>
<path fill="none" stroke="midnightblue" d="M790,-56.08C790,-49.01 790,-38.86 790,-29.99"/>
<polygon fill="midnightblue" stroke="midnightblue" points="793.5,-29.75 790,-19.75 786.5,-29.75 793.5,-29.75"/>
</g>
</g>
</svg>
