<?xml version="1.0" encoding="UTF-8" standalone="no"?>
<!DOCTYPE svg PUBLIC "-//W3C//DTD SVG 1.1//EN"
 "http://www.w3.org/Graphics/SVG/1.1/DTD/svg11.dtd">
<!-- Generated by graphviz version 2.43.0 (0)
 -->
<!-- Title: src/Components/AssetComponents/AssetLoader.hpp Pages: 1 -->
<svg width="2224pt" height="302pt"
 viewBox="0.00 0.00 2224.00 302.00" xmlns="http://www.w3.org/2000/svg" xmlns:xlink="http://www.w3.org/1999/xlink">
<g id="graph0" class="graph" transform="scale(1 1) rotate(0) translate(4 298)">
<title>src/Components/AssetComponents/AssetLoader.hpp</title>
<!-- Node1 -->
<g id="Node000001" class="node">
<title>Node1</title>
<g id="a_Node000001"><a xlink:title=" ">
<polygon fill="#999999" stroke="#666666" points="697.5,-294 510.5,-294 510.5,-264 697.5,-264 697.5,-294"/>
<text text-anchor="start" x="518.5" y="-282" font-family="Helvetica,sans-Serif" font-size="10.00">src/Components/AssetComponents</text>
<text text-anchor="middle" x="604" y="-271" font-family="Helvetica,sans-Serif" font-size="10.00">/AssetLoader.hpp</text>
</a>
</g>
</g>
<!-- Node2 -->
<g id="Node000002" class="node">
<title>Node2</title>
<g id="a_Node000002"><a xlink:href="_asset_component_8hpp.html" target="_top" xlink:title=" ">
<polygon fill="white" stroke="#666666" points="697.5,-228 510.5,-228 510.5,-198 697.5,-198 697.5,-228"/>
<text text-anchor="start" x="518.5" y="-216" font-family="Helvetica,sans-Serif" font-size="10.00">src/Components/AssetComponents</text>
<text text-anchor="middle" x="604" y="-205" font-family="Helvetica,sans-Serif" font-size="10.00">/AssetComponent.hpp</text>
</a>
</g>
</g>
<!-- Node1&#45;&gt;Node2 -->
<g id="edge1_Node000001_Node000002" class="edge">
<title>Node1&#45;&gt;Node2</title>
<g id="a_edge1_Node000001_Node000002"><a xlink:title=" ">
<path fill="none" stroke="#63b8ff" d="M604,-253.54C604,-244.96 604,-235.61 604,-228.16"/>
<polygon fill="#63b8ff" stroke="#63b8ff" points="600.5,-253.8 604,-263.8 607.5,-253.8 600.5,-253.8"/>
</a>
</g>
</g>
<!-- Node4 -->
<g id="Node000004" class="node">
<title>Node4</title>
<g id="a_Node000004"><a xlink:href="_asset_loaders_8hpp.html" target="_top" xlink:title=" ">
<polygon fill="white" stroke="#666666" points="413,-90.5 267,-90.5 267,-71.5 413,-71.5 413,-90.5"/>
<text text-anchor="middle" x="340" y="-78.5" font-family="Helvetica,sans-Serif" font-size="10.00">src/Utils/AssetLoaders.hpp</text>
</a>
</g>
</g>
<!-- Node1&#45;&gt;Node4 -->
<g id="edge29_Node000001_Node000004" class="edge">
<title>Node1&#45;&gt;Node4</title>
<g id="a_edge29_Node000001_Node000004"><a xlink:title=" ">
<path fill="none" stroke="#63b8ff" d="M560.03,-259.7C541.47,-251.16 520.03,-240.19 502,-228 436.77,-183.88 370.59,-115.07 348.07,-90.82"/>
<polygon fill="#63b8ff" stroke="#63b8ff" points="558.6,-262.9 569.16,-263.82 561.48,-256.52 558.6,-262.9"/>
</a>
</g>
</g>
<!-- Node9 -->
<g id="Node000009" class="node">
<title>Node9</title>
<g id="a_Node000009"><a xlink:href="_asset_utils_8hpp.html" target="_top" xlink:title=" ">
<polygon fill="white" stroke="#666666" points="790,-156.5 660,-156.5 660,-137.5 790,-137.5 790,-156.5"/>
<text text-anchor="middle" x="725" y="-144.5" font-family="Helvetica,sans-Serif" font-size="10.00">src/Utils/AssetUtils.hpp</text>
</a>
</g>
</g>
<!-- Node1&#45;&gt;Node9 -->
<g id="edge30_Node000001_Node000009" class="edge">
<title>Node1&#45;&gt;Node9</title>
<g id="a_edge30_Node000001_Node000009"><a xlink:title=" ">
<path fill="none" stroke="#63b8ff" d="M663.82,-259.85C679.91,-252.33 695.91,-242 707,-228 723.89,-206.69 725.6,-172.65 725.37,-156.73"/>
<polygon fill="#63b8ff" stroke="#63b8ff" points="662.15,-256.76 654.37,-263.95 664.94,-263.18 662.15,-256.76"/>
</a>
</g>
</g>
<!-- Node3 -->
<g id="Node000003" class="node">
<title>Node3</title>
<g id="a_Node000003"><a xlink:href="_builders_8cpp.html" target="_top" xlink:title=" ">
<polygon fill="white" stroke="#666666" points="158,-24.5 0,-24.5 0,-5.5 158,-5.5 158,-24.5"/>
<text text-anchor="middle" x="79" y="-12.5" font-family="Helvetica,sans-Serif" font-size="10.00">src/Serialization/Builders.cpp</text>
</a>
</g>
</g>
<!-- Node2&#45;&gt;Node3 -->
<g id="edge2_Node000002_Node000003" class="edge">
<title>Node2&#45;&gt;Node3</title>
<g id="a_edge2_Node000002_Node000003"><a xlink:title=" ">
<path fill="none" stroke="#63b8ff" d="M500.42,-197.1C410.3,-181.15 278.19,-150.47 174,-96 137.31,-76.82 102.22,-41.41 86.96,-24.9"/>
<polygon fill="#63b8ff" stroke="#63b8ff" points="499.92,-200.56 510.37,-198.83 501.12,-193.66 499.92,-200.56"/>
</a>
</g>
</g>
<!-- Node2&#45;&gt;Node4 -->
<g id="edge3_Node000002_Node000004" class="edge">
<title>Node2&#45;&gt;Node4</title>
<g id="a_edge3_Node000002_Node000004"><a xlink:title=" ">
<path fill="none" stroke="#63b8ff" d="M574.85,-192.2C548.67,-174.94 508.79,-149.93 472,-132 436.75,-114.82 394,-99.59 366.9,-90.57"/>
<polygon fill="#63b8ff" stroke="#63b8ff" points="572.92,-195.12 583.18,-197.74 576.79,-189.29 572.92,-195.12"/>
</a>
</g>
</g>
<!-- Node2&#45;&gt;Node9 -->
<g id="edge9_Node000002_Node000009" class="edge">
<title>Node2&#45;&gt;Node9</title>
<g id="a_edge9_Node000002_Node000009"><a xlink:title=" ">
<path fill="none" stroke="#63b8ff" d="M639.66,-193.14C662.61,-181 691.32,-165.82 708.9,-156.52"/>
<polygon fill="#63b8ff" stroke="#63b8ff" points="637.76,-190.19 630.55,-197.95 641.03,-196.37 637.76,-190.19"/>
</a>
</g>
</g>
<!-- Node16 -->
<g id="Node000016" class="node">
<title>Node16</title>
<g id="a_Node000016"><a xlink:href="_asset_selector_8hpp.html" target="_top" xlink:title=" ">
<polygon fill="white" stroke="#666666" points="2216,-90.5 2036,-90.5 2036,-71.5 2216,-71.5 2216,-90.5"/>
<text text-anchor="middle" x="2126" y="-78.5" font-family="Helvetica,sans-Serif" font-size="10.00">src/ui/Common/AssetSelector.hpp</text>
</a>
</g>
</g>
<!-- Node2&#45;&gt;Node16 -->
<g id="edge27_Node000002_Node000016" class="edge">
<title>Node2&#45;&gt;Node16</title>
<g id="a_edge27_Node000002_Node000016"><a xlink:title=" ">
<path fill="none" stroke="#63b8ff" d="M700.2,-195.71C732.63,-188.06 768.34,-177.18 799,-162 818.28,-152.45 816.78,-139.36 837,-132 961.3,-86.73 1895.2,-107.28 2027,-96 2042.13,-94.71 2058.49,-92.66 2073.46,-90.53"/>
<polygon fill="#63b8ff" stroke="#63b8ff" points="699.22,-192.34 690.25,-197.98 700.78,-199.16 699.22,-192.34"/>
</a>
</g>
</g>
<!-- Node21 -->
<g id="Node000021" class="node">
<title>Node21</title>
<g id="a_Node000021"><a xlink:href="_inspector_widget_8hpp.html" target="_top" xlink:title=" ">
<polygon fill="white" stroke="#666666" points="978,-162 846,-162 846,-132 978,-132 978,-162"/>
<text text-anchor="start" x="854" y="-150" font-family="Helvetica,sans-Serif" font-size="10.00">src/ui/widgets/Inspector</text>
<text text-anchor="middle" x="912" y="-139" font-family="Helvetica,sans-Serif" font-size="10.00">Widget.hpp</text>
</a>
</g>
</g>
<!-- Node2&#45;&gt;Node21 -->
<g id="edge28_Node000002_Node000021" class="edge">
<title>Node2&#45;&gt;Node21</title>
<g id="a_edge28_Node000002_Node000021"><a xlink:title=" ">
<path fill="none" stroke="#63b8ff" d="M681.52,-195.89C732.2,-185.36 797.68,-171.76 845.89,-161.74"/>
<polygon fill="#63b8ff" stroke="#63b8ff" points="680.67,-192.49 671.59,-197.95 682.09,-199.35 680.67,-192.49"/>
</a>
</g>
</g>
<!-- Node4&#45;&gt;Node3 -->
<g id="edge4_Node000004_Node000003" class="edge">
<title>Node4&#45;&gt;Node3</title>
<g id="a_edge4_Node000004_Node000003"><a xlink:title=" ">
<path fill="none" stroke="#63b8ff" d="M295.23,-69.02C243.8,-56.41 160.5,-35.98 113.72,-24.51"/>
<polygon fill="#63b8ff" stroke="#63b8ff" points="294.53,-72.45 305.07,-71.44 296.19,-65.65 294.53,-72.45"/>
</a>
</g>
</g>
<!-- Node5 -->
<g id="Node000005" class="node">
<title>Node5</title>
<g id="a_Node000005"><a xlink:href="_asset_utils_8cpp.html" target="_top" xlink:title=" ">
<polygon fill="white" stroke="#666666" points="463.5,-24.5 334.5,-24.5 334.5,-5.5 463.5,-5.5 463.5,-24.5"/>
<text text-anchor="middle" x="399" y="-12.5" font-family="Helvetica,sans-Serif" font-size="10.00">src/Utils/AssetUtils.cpp</text>
</a>
</g>
</g>
<!-- Node4&#45;&gt;Node5 -->
<g id="edge5_Node000004_Node000005" class="edge">
<title>Node4&#45;&gt;Node5</title>
<g id="a_edge5_Node000004_Node000005"><a xlink:title=" ">
<path fill="none" stroke="#63b8ff" d="M354.77,-63.98C366.16,-51.62 381.49,-34.99 390.79,-24.91"/>
<polygon fill="#63b8ff" stroke="#63b8ff" points="352.16,-61.64 347.96,-71.37 357.31,-66.39 352.16,-61.64"/>
</a>
</g>
</g>
<!-- Node6 -->
<g id="Node000006" class="node">
<title>Node6</title>
<g id="a_Node000006"><a xlink:href="main_8cpp.html" target="_top" xlink:title=" ">
<polygon fill="white" stroke="#666666" points="560.5,-24.5 481.5,-24.5 481.5,-5.5 560.5,-5.5 560.5,-24.5"/>
<text text-anchor="middle" x="521" y="-12.5" font-family="Helvetica,sans-Serif" font-size="10.00">src/main.cpp</text>
</a>
</g>
</g>
<!-- Node4&#45;&gt;Node6 -->
<g id="edge6_Node000004_Node000006" class="edge">
<title>Node4&#45;&gt;Node6</title>
<g id="a_edge6_Node000004_Node000006"><a xlink:title=" ">
<path fill="none" stroke="#63b8ff" d="M373.93,-68C409.68,-55.36 465.07,-35.78 496.69,-24.6"/>
<polygon fill="#63b8ff" stroke="#63b8ff" points="372.67,-64.74 364.41,-71.37 375.01,-71.33 372.67,-64.74"/>
</a>
</g>
</g>
<!-- Node7 -->
<g id="Node000007" class="node">
<title>Node7</title>
<g id="a_Node000007"><a xlink:href="_filesystem_widget_8cpp.html" target="_top" xlink:title=" ">
<polygon fill="white" stroke="#666666" points="316,-30 176,-30 176,0 316,0 316,-30"/>
<text text-anchor="start" x="184" y="-18" font-family="Helvetica,sans-Serif" font-size="10.00">src/ui/widgets/Filesystem</text>
<text text-anchor="middle" x="246" y="-7" font-family="Helvetica,sans-Serif" font-size="10.00">Widget.cpp</text>
</a>
</g>
</g>
<!-- Node4&#45;&gt;Node7 -->
<g id="edge7_Node000004_Node000007" class="edge">
<title>Node4&#45;&gt;Node7</title>
<g id="a_edge7_Node000004_Node000007"><a xlink:title=" ">
<path fill="none" stroke="#63b8ff" d="M318.87,-65.62C303.3,-55.01 282.21,-40.66 266.73,-30.12"/>
<polygon fill="#63b8ff" stroke="#63b8ff" points="317.09,-68.63 327.32,-71.37 321.03,-62.85 317.09,-68.63"/>
</a>
</g>
</g>
<!-- Node8 -->
<g id="Node000008" class="node">
<title>Node8</title>
<g id="a_Node000008"><a xlink:href="_inspector_widget_8cpp.html" target="_top" xlink:title=" ">
<polygon fill="white" stroke="#666666" points="711,-30 579,-30 579,0 711,0 711,-30"/>
<text text-anchor="start" x="587" y="-18" font-family="Helvetica,sans-Serif" font-size="10.00">src/ui/widgets/Inspector</text>
<text text-anchor="middle" x="645" y="-7" font-family="Helvetica,sans-Serif" font-size="10.00">Widget.cpp</text>
</a>
</g>
</g>
<!-- Node4&#45;&gt;Node8 -->
<g id="edge8_Node000004_Node000008" class="edge">
<title>Node4&#45;&gt;Node8</title>
<g id="a_edge8_Node000004_Node000008"><a xlink:title=" ">
<path fill="none" stroke="#63b8ff" d="M390.72,-69.36C442.24,-58.55 522.25,-41.76 578.74,-29.9"/>
<polygon fill="#63b8ff" stroke="#63b8ff" points="389.89,-65.96 380.82,-71.44 391.32,-72.81 389.89,-65.96"/>
</a>
</g>
</g>
<!-- Node9&#45;&gt;Node3 -->
<g id="edge12_Node000009_Node000003" class="edge">
<title>Node9&#45;&gt;Node3</title>
<g id="a_edge12_Node000009_Node000003"><a xlink:title=" ">
<path fill="none" stroke="#63b8ff" d="M649.8,-145.15C556.39,-142.46 392.88,-132.38 258,-96 193.91,-78.71 123.6,-41.34 93.73,-24.52"/>
<polygon fill="#63b8ff" stroke="#63b8ff" points="649.91,-148.65 660,-145.42 650.1,-141.66 649.91,-148.65"/>
</a>
</g>
</g>
<!-- Node9&#45;&gt;Node4 -->
<g id="edge18_Node000009_Node000004" class="edge">
<title>Node9&#45;&gt;Node4</title>
<g id="a_edge18_Node000009_Node000004"><a xlink:title=" ">
<path fill="none" stroke="#63b8ff" d="M663.18,-135.72C587.72,-123.18 461.51,-102.2 391.22,-90.51"/>
<polygon fill="#63b8ff" stroke="#63b8ff" points="663.04,-139.25 673.48,-137.44 664.19,-132.34 663.04,-139.25"/>
</a>
</g>
</g>
<!-- Node9&#45;&gt;Node5 -->
<g id="edge19_Node000009_Node000005" class="edge">
<title>Node9&#45;&gt;Node5</title>
<g id="a_edge19_Node000009_Node000005"><a xlink:title=" ">
<path fill="none" stroke="#63b8ff" d="M649.75,-135.81C607.63,-128.31 554.93,-115.87 511,-96 468.98,-76.99 426.66,-41.17 408.38,-24.7"/>
<polygon fill="#63b8ff" stroke="#63b8ff" points="649.21,-139.27 659.66,-137.52 650.4,-132.37 649.21,-139.27"/>
</a>
</g>
</g>
<!-- Node9&#45;&gt;Node6 -->
<g id="edge20_Node000009_Node000006" class="edge">
<title>Node9&#45;&gt;Node6</title>
<g id="a_edge20_Node000009_Node000006"><a xlink:title=" ">
<path fill="none" stroke="#63b8ff" d="M649.82,-136.22C600.77,-128.19 542.98,-115.01 527,-96 509.79,-75.53 515.02,-40.77 518.71,-24.66"/>
<polygon fill="#63b8ff" stroke="#63b8ff" points="649.39,-139.7 659.82,-137.81 650.49,-132.79 649.39,-139.7"/>
</a>
</g>
</g>
<!-- Node9&#45;&gt;Node8 -->
<g id="edge25_Node000009_Node000008" class="edge">
<title>Node9&#45;&gt;Node8</title>
<g id="a_edge25_Node000009_Node000008"><a xlink:title=" ">
<path fill="none" stroke="#63b8ff" d="M651.4,-135.76C605,-127.63 551.24,-114.52 537,-96 514.88,-67.23 559.48,-43.9 597.91,-30.01"/>
<polygon fill="#63b8ff" stroke="#63b8ff" points="651.03,-139.25 661.47,-137.47 652.2,-132.35 651.03,-139.25"/>
</a>
</g>
</g>
<!-- Node10 -->
<g id="Node000010" class="node">
<title>Node10</title>
<g id="a_Node000010"><a xlink:href="_cube_map_8cpp.html" target="_top" xlink:title=" ">
<polygon fill="white" stroke="#666666" points="718.5,-90.5 545.5,-90.5 545.5,-71.5 718.5,-71.5 718.5,-90.5"/>
<text text-anchor="middle" x="632" y="-78.5" font-family="Helvetica,sans-Serif" font-size="10.00">src/AssetManager/CubeMap.cpp</text>
</a>
</g>
</g>
<!-- Node9&#45;&gt;Node10 -->
<g id="edge10_Node000009_Node000010" class="edge">
<title>Node9&#45;&gt;Node10</title>
<g id="a_edge10_Node000009_Node000010"><a xlink:title=" ">
<path fill="none" stroke="#63b8ff" d="M704.19,-131.68C685.92,-119.11 659.94,-101.23 644.64,-90.7"/>
<polygon fill="#63b8ff" stroke="#63b8ff" points="702.24,-134.58 712.46,-137.37 706.2,-128.82 702.24,-134.58"/>
</a>
</g>
</g>
<!-- Node11 -->
<g id="Node000011" class="node">
<title>Node11</title>
<g id="a_Node000011"><a xlink:href="_texture_8cpp.html" target="_top" xlink:title=" ">
<polygon fill="white" stroke="#666666" points="899.5,-90.5 736.5,-90.5 736.5,-71.5 899.5,-71.5 899.5,-90.5"/>
<text text-anchor="middle" x="818" y="-78.5" font-family="Helvetica,sans-Serif" font-size="10.00">src/AssetManager/Texture.cpp</text>
</a>
</g>
</g>
<!-- Node9&#45;&gt;Node11 -->
<g id="edge11_Node000009_Node000011" class="edge">
<title>Node9&#45;&gt;Node11</title>
<g id="a_edge11_Node000009_Node000011"><a xlink:title=" ">
<path fill="none" stroke="#63b8ff" d="M745.81,-131.68C764.08,-119.11 790.06,-101.23 805.36,-90.7"/>
<polygon fill="#63b8ff" stroke="#63b8ff" points="743.8,-128.82 737.54,-137.37 747.76,-134.58 743.8,-128.82"/>
</a>
</g>
</g>
<!-- Node12 -->
<g id="Node000012" class="node">
<title>Node12</title>
<g id="a_Node000012"><a xlink:href="_gizmo_system_8cpp.html" target="_top" xlink:title=" ">
<polygon fill="white" stroke="#666666" points="1084.5,-90.5 917.5,-90.5 917.5,-71.5 1084.5,-71.5 1084.5,-90.5"/>
<text text-anchor="middle" x="1001" y="-78.5" font-family="Helvetica,sans-Serif" font-size="10.00">src/Systems/GizmoSystem.cpp</text>
</a>
</g>
</g>
<!-- Node9&#45;&gt;Node12 -->
<g id="edge13_Node000009_Node000012" class="edge">
<title>Node9&#45;&gt;Node12</title>
<g id="a_edge13_Node000009_Node000012"><a xlink:title=" ">
<path fill="none" stroke="#63b8ff" d="M772,-135.1C826.37,-122.49 914.72,-102.01 964.28,-90.51"/>
<polygon fill="#63b8ff" stroke="#63b8ff" points="770.89,-131.77 761.94,-137.44 772.47,-138.59 770.89,-131.77"/>
</a>
</g>
</g>
<!-- Node13 -->
<g id="Node000013" class="node">
<title>Node13</title>
<g id="a_Node000013"><a xlink:href="_rendering_system_8hpp.html" target="_top" xlink:title=" ">
<polygon fill="white" stroke="#666666" points="1288,-90.5 1102,-90.5 1102,-71.5 1288,-71.5 1288,-90.5"/>
<text text-anchor="middle" x="1195" y="-78.5" font-family="Helvetica,sans-Serif" font-size="10.00">src/Systems/RenderingSystem.hpp</text>
</a>
</g>
</g>
<!-- Node9&#45;&gt;Node13 -->
<g id="edge14_Node000009_Node000013" class="edge">
<title>Node9&#45;&gt;Node13</title>
<g id="a_edge14_Node000009_Node000013"><a xlink:title=" ">
<path fill="none" stroke="#63b8ff" d="M780.94,-135.71C788.68,-134.4 796.53,-133.12 804,-132 932.43,-112.66 965.23,-112.92 1094,-96 1107.16,-94.27 1121.28,-92.35 1134.67,-90.51"/>
<polygon fill="#63b8ff" stroke="#63b8ff" points="780.14,-132.3 770.89,-137.45 781.34,-139.2 780.14,-132.3"/>
</a>
</g>
</g>
<!-- Node9&#45;&gt;Node16 -->
<g id="edge21_Node000009_Node000016" class="edge">
<title>Node9&#45;&gt;Node16</title>
<g id="a_edge21_Node000009_Node000016"><a xlink:title=" ">
<path fill="none" stroke="#63b8ff" d="M776.72,-135.72C785.78,-134.24 795.14,-132.91 804,-132 1344.94,-76.41 1485.17,-142.14 2027,-96 2042.13,-94.71 2058.49,-92.67 2073.46,-90.54"/>
<polygon fill="#63b8ff" stroke="#63b8ff" points="775.92,-132.31 766.66,-137.44 777.11,-139.21 775.92,-132.31"/>
</a>
</g>
</g>
<!-- Node17 -->
<g id="Node000017" class="node">
<title>Node17</title>
<g id="a_Node000017"><a xlink:href="_component_u_i_8hpp.html" target="_top" xlink:title=" ">
<polygon fill="white" stroke="#666666" points="1458,-90.5 1324,-90.5 1324,-71.5 1458,-71.5 1458,-90.5"/>
<text text-anchor="middle" x="1391" y="-78.5" font-family="Helvetica,sans-Serif" font-size="10.00">src/ui/ComponentUI.hpp</text>
</a>
</g>
</g>
<!-- Node9&#45;&gt;Node17 -->
<g id="edge22_Node000009_Node000017" class="edge">
<title>Node9&#45;&gt;Node17</title>
<g id="a_edge22_Node000009_Node000017"><a xlink:title=" ">
<path fill="none" stroke="#63b8ff" d="M778.27,-135.77C786.85,-134.35 795.65,-133.03 804,-132 1029.96,-104.1 1089.14,-124.67 1315,-96 1326.18,-94.58 1338.21,-92.59 1349.32,-90.55"/>
<polygon fill="#63b8ff" stroke="#63b8ff" points="777.61,-132.34 768.34,-137.47 778.79,-139.24 777.61,-132.34"/>
</a>
</g>
</g>
<!-- Node18 -->
<g id="Node000018" class="node">
<title>Node18</title>
<g id="a_Node000018"><a xlink:href="_console_widget_8cpp.html" target="_top" xlink:title=" ">
<polygon fill="white" stroke="#666666" points="1657.5,-90.5 1476.5,-90.5 1476.5,-71.5 1657.5,-71.5 1657.5,-90.5"/>
<text text-anchor="middle" x="1567" y="-78.5" font-family="Helvetica,sans-Serif" font-size="10.00">src/ui/widgets/ConsoleWidget.cpp</text>
</a>
</g>
</g>
<!-- Node9&#45;&gt;Node18 -->
<g id="edge23_Node000009_Node000018" class="edge">
<title>Node9&#45;&gt;Node18</title>
<g id="a_edge23_Node000009_Node000018"><a xlink:title=" ">
<path fill="none" stroke="#63b8ff" d="M777.64,-135.76C786.42,-134.31 795.45,-132.99 804,-132 1097.16,-98.19 1173.28,-124.48 1467,-96 1481.74,-94.57 1497.65,-92.56 1512.34,-90.51"/>
<polygon fill="#63b8ff" stroke="#63b8ff" points="776.77,-132.36 767.5,-137.49 777.95,-139.26 776.77,-132.36"/>
</a>
</g>
</g>
<!-- Node19 -->
<g id="Node000019" class="node">
<title>Node19</title>
<g id="a_Node000019"><a xlink:href="_filesystem_widget_8hpp.html" target="_top" xlink:title="Contains the declaration of the FilesystemWidget class, a user interface widget for interacting with ...">
<polygon fill="white" stroke="#666666" points="1816,-96 1676,-96 1676,-66 1816,-66 1816,-96"/>
<text text-anchor="start" x="1684" y="-84" font-family="Helvetica,sans-Serif" font-size="10.00">src/ui/widgets/Filesystem</text>
<text text-anchor="middle" x="1746" y="-73" font-family="Helvetica,sans-Serif" font-size="10.00">Widget.hpp</text>
</a>
</g>
</g>
<!-- Node9&#45;&gt;Node19 -->
<g id="edge24_Node000009_Node000019" class="edge">
<title>Node9&#45;&gt;Node19</title>
<g id="a_edge24_Node000009_Node000019"><a xlink:title=" ">
<path fill="none" stroke="#63b8ff" d="M777.04,-135.76C786,-134.29 795.25,-132.95 804,-132 1185.63,-90.41 1285.37,-137.59 1667,-96 1669.91,-95.68 1672.87,-95.32 1675.86,-94.93"/>
<polygon fill="#63b8ff" stroke="#63b8ff" points="776.34,-132.33 767.08,-137.47 777.53,-139.23 776.34,-132.33"/>
</a>
</g>
</g>
<!-- Node20 -->
<g id="Node000020" class="node">
<title>Node20</title>
<g id="a_Node000020"><a xlink:href="_runtime_widget_8cpp.html" target="_top" xlink:title=" ">
<polygon fill="white" stroke="#666666" points="2017.5,-90.5 1834.5,-90.5 1834.5,-71.5 2017.5,-71.5 2017.5,-90.5"/>
<text text-anchor="middle" x="1926" y="-78.5" font-family="Helvetica,sans-Serif" font-size="10.00">src/ui/widgets/RuntimeWidget.cpp</text>
</a>
</g>
</g>
<!-- Node9&#45;&gt;Node20 -->
<g id="edge26_Node000009_Node000020" class="edge">
<title>Node9&#45;&gt;Node20</title>
<g id="a_edge26_Node000009_Node000020"><a xlink:title=" ">
<path fill="none" stroke="#63b8ff" d="M776.72,-135.76C785.78,-134.28 795.14,-132.94 804,-132 1255.54,-84.27 1372.64,-135.22 1825,-96 1840.34,-94.67 1856.92,-92.63 1872.13,-90.51"/>
<polygon fill="#63b8ff" stroke="#63b8ff" points="775.93,-132.35 766.66,-137.49 777.11,-139.25 775.93,-132.35"/>
</a>
</g>
</g>
<!-- Node13&#45;&gt;Node13 -->
<g id="edge15_Node000013_Node000013" class="edge">
<title>Node13&#45;&gt;Node13</title>
<g id="a_edge15_Node000013_Node000013"><a xlink:title=" ">
<path fill="none" stroke="#63b8ff" d="M1239.6,-91.93C1272.7,-95.71 1306,-92.07 1306,-81 1306,-68.79 1265.45,-65.61 1229.38,-71.48"/>
<polygon fill="#63b8ff" stroke="#63b8ff" points="1239.76,-88.42 1229.38,-90.52 1238.81,-95.35 1239.76,-88.42"/>
</a>
</g>
</g>
<!-- Node14 -->
<g id="Node000014" class="node">
<title>Node14</title>
<g id="a_Node000014"><a xlink:href="_runtime_widget_8hpp.html" target="_top" xlink:title=" ">
<polygon fill="white" stroke="#666666" points="1189,-24.5 1005,-24.5 1005,-5.5 1189,-5.5 1189,-24.5"/>
<text text-anchor="middle" x="1097" y="-12.5" font-family="Helvetica,sans-Serif" font-size="10.00">src/ui/widgets/RuntimeWidget.hpp</text>
</a>
</g>
</g>
<!-- Node13&#45;&gt;Node14 -->
<g id="edge16_Node000013_Node000014" class="edge">
<title>Node13&#45;&gt;Node14</title>
<g id="a_edge16_Node000013_Node000014"><a xlink:title=" ">
<path fill="none" stroke="#63b8ff" d="M1173.33,-65.85C1154.07,-53.27 1126.52,-35.28 1110.32,-24.7"/>
<polygon fill="#63b8ff" stroke="#63b8ff" points="1171.5,-68.83 1181.78,-71.37 1175.32,-62.97 1171.5,-68.83"/>
</a>
</g>
</g>
<!-- Node15 -->
<g id="Node000015" class="node">
<title>Node15</title>
<g id="a_Node000015"><a xlink:href="_scene_widget_8hpp.html" target="_top" xlink:title="Contains the declaration of the SceneWidget class, a user interface widget for rendering scenes.">
<polygon fill="white" stroke="#666666" points="1379,-24.5 1207,-24.5 1207,-5.5 1379,-5.5 1379,-24.5"/>
<text text-anchor="middle" x="1293" y="-12.5" font-family="Helvetica,sans-Serif" font-size="10.00">src/ui/widgets/SceneWidget.hpp</text>
</a>
</g>
</g>
<!-- Node13&#45;&gt;Node15 -->
<g id="edge17_Node000013_Node000015" class="edge">
<title>Node13&#45;&gt;Node15</title>
<g id="a_edge17_Node000013_Node000015"><a xlink:title=" ">
<path fill="none" stroke="#63b8ff" d="M1216.67,-65.85C1235.93,-53.27 1263.48,-35.28 1279.68,-24.7"/>
<polygon fill="#63b8ff" stroke="#63b8ff" points="1214.68,-62.97 1208.22,-71.37 1218.5,-68.83 1214.68,-62.97"/>
</a>
</g>
</g>
</g>
</svg>
