<?xml version="1.0" encoding="UTF-8" standalone="no"?>
<!DOCTYPE svg PUBLIC "-//W3C//DTD SVG 1.1//EN"
 "http://www.w3.org/Graphics/SVG/1.1/DTD/svg11.dtd">
<!-- Generated by graphviz version 2.43.0 (0)
 -->
<!-- Title: src/Components/AssetComponents/AssetComponent.hpp Pages: 1 -->
<svg width="2127pt" height="236pt"
 viewBox="0.00 0.00 2127.00 236.00" xmlns="http://www.w3.org/2000/svg" xmlns:xlink="http://www.w3.org/1999/xlink">
<g id="graph0" class="graph" transform="scale(1 1) rotate(0) translate(4 232)">
<title>src/Components/AssetComponents/AssetComponent.hpp</title>
<!-- Node1 -->
<g id="Node000001" class="node">
<title>Node1</title>
<g id="a_Node000001"><a xlink:title=" ">
<polygon fill="#999999" stroke="#666666" points="1089.5,-228 902.5,-228 902.5,-198 1089.5,-198 1089.5,-228"/>
<text text-anchor="start" x="910.5" y="-216" font-family="Helvetica,sans-Serif" font-size="10.00">src/Components/AssetComponents</text>
<text text-anchor="middle" x="996" y="-205" font-family="Helvetica,sans-Serif" font-size="10.00">/AssetComponent.hpp</text>
</a>
</g>
</g>
<!-- Node2 -->
<g id="Node000002" class="node">
<title>Node2</title>
<g id="a_Node000002"><a xlink:href="_builders_8cpp.html" target="_top" xlink:title=" ">
<polygon fill="white" stroke="#666666" points="158,-24.5 0,-24.5 0,-5.5 158,-5.5 158,-24.5"/>
<text text-anchor="middle" x="79" y="-12.5" font-family="Helvetica,sans-Serif" font-size="10.00">src/Serialization/Builders.cpp</text>
</a>
</g>
</g>
<!-- Node1&#45;&gt;Node2 -->
<g id="edge1_Node000001_Node000002" class="edge">
<title>Node1&#45;&gt;Node2</title>
<g id="a_edge1_Node000001_Node000002"><a xlink:title=" ">
<path fill="none" stroke="#63b8ff" d="M892.19,-210.8C686.45,-206.46 236.44,-186.57 116,-96 92.27,-78.16 83.26,-41.42 80.28,-24.66"/>
<polygon fill="#63b8ff" stroke="#63b8ff" points="892.33,-214.3 902.4,-211.01 892.47,-207.3 892.33,-214.3"/>
</a>
</g>
</g>
<!-- Node3 -->
<g id="Node000003" class="node">
<title>Node3</title>
<g id="a_Node000003"><a xlink:href="_asset_loaders_8hpp.html" target="_top" xlink:title=" ">
<polygon fill="white" stroke="#666666" points="315,-90.5 169,-90.5 169,-71.5 315,-71.5 315,-90.5"/>
<text text-anchor="middle" x="242" y="-78.5" font-family="Helvetica,sans-Serif" font-size="10.00">src/Utils/AssetLoaders.hpp</text>
</a>
</g>
</g>
<!-- Node1&#45;&gt;Node3 -->
<g id="edge2_Node000001_Node000003" class="edge">
<title>Node1&#45;&gt;Node3</title>
<g id="a_edge2_Node000001_Node000003"><a xlink:title=" ">
<path fill="none" stroke="#63b8ff" d="M904.72,-196.26C744.07,-168.56 416.01,-112 291.46,-90.53"/>
<polygon fill="#63b8ff" stroke="#63b8ff" points="904.14,-199.71 914.59,-197.96 905.33,-192.82 904.14,-199.71"/>
</a>
</g>
</g>
<!-- Node8 -->
<g id="Node000008" class="node">
<title>Node8</title>
<g id="a_Node000008"><a xlink:href="_asset_utils_8hpp.html" target="_top" xlink:title=" ">
<polygon fill="white" stroke="#666666" points="1061,-156.5 931,-156.5 931,-137.5 1061,-137.5 1061,-156.5"/>
<text text-anchor="middle" x="996" y="-144.5" font-family="Helvetica,sans-Serif" font-size="10.00">src/Utils/AssetUtils.hpp</text>
</a>
</g>
</g>
<!-- Node1&#45;&gt;Node8 -->
<g id="edge8_Node000001_Node000008" class="edge">
<title>Node1&#45;&gt;Node8</title>
<g id="a_edge8_Node000001_Node000008"><a xlink:title=" ">
<path fill="none" stroke="#63b8ff" d="M996,-187.6C996,-176.8 996,-164.78 996,-156.84"/>
<polygon fill="#63b8ff" stroke="#63b8ff" points="992.5,-187.8 996,-197.8 999.5,-187.8 992.5,-187.8"/>
</a>
</g>
</g>
<!-- Node15 -->
<g id="Node000015" class="node">
<title>Node15</title>
<g id="a_Node000015"><a xlink:href="_asset_selector_8hpp.html" target="_top" xlink:title=" ">
<polygon fill="white" stroke="#666666" points="2119,-90.5 1939,-90.5 1939,-71.5 2119,-71.5 2119,-90.5"/>
<text text-anchor="middle" x="2029" y="-78.5" font-family="Helvetica,sans-Serif" font-size="10.00">src/ui/Common/AssetSelector.hpp</text>
</a>
</g>
</g>
<!-- Node1&#45;&gt;Node15 -->
<g id="edge26_Node000001_Node000015" class="edge">
<title>Node1&#45;&gt;Node15</title>
<g id="a_edge26_Node000001_Node000015"><a xlink:title=" ">
<path fill="none" stroke="#63b8ff" d="M1026.16,-192.35C1039.72,-183.33 1055.83,-172.36 1070,-162 1087.37,-149.3 1087.83,-139.5 1108,-132 1279.38,-68.27 1747.93,-112.82 1930,-96 1944.87,-94.63 1960.92,-92.6 1975.68,-90.5"/>
<polygon fill="#63b8ff" stroke="#63b8ff" points="1024.07,-189.54 1017.66,-197.97 1027.93,-195.38 1024.07,-189.54"/>
</a>
</g>
</g>
<!-- Node20 -->
<g id="Node000020" class="node">
<title>Node20</title>
<g id="a_Node000020"><a xlink:href="_inspector_widget_8hpp.html" target="_top" xlink:title=" ">
<polygon fill="white" stroke="#666666" points="1249,-162 1117,-162 1117,-132 1249,-132 1249,-162"/>
<text text-anchor="start" x="1125" y="-150" font-family="Helvetica,sans-Serif" font-size="10.00">src/ui/widgets/Inspector</text>
<text text-anchor="middle" x="1183" y="-139" font-family="Helvetica,sans-Serif" font-size="10.00">Widget.hpp</text>
</a>
</g>
</g>
<!-- Node1&#45;&gt;Node20 -->
<g id="edge27_Node000001_Node000020" class="edge">
<title>Node1&#45;&gt;Node20</title>
<g id="a_edge27_Node000001_Node000020"><a xlink:title=" ">
<path fill="none" stroke="#63b8ff" d="M1046.87,-194.59C1076.77,-184.36 1114.07,-171.59 1142.06,-162.01"/>
<polygon fill="#63b8ff" stroke="#63b8ff" points="1045.37,-191.41 1037.04,-197.95 1047.63,-198.03 1045.37,-191.41"/>
</a>
</g>
</g>
<!-- Node3&#45;&gt;Node2 -->
<g id="edge3_Node000003_Node000002" class="edge">
<title>Node3&#45;&gt;Node2</title>
<g id="a_edge3_Node000003_Node000002"><a xlink:title=" ">
<path fill="none" stroke="#63b8ff" d="M210.61,-67.68C178.4,-55.03 129.12,-35.68 100.89,-24.6"/>
<polygon fill="#63b8ff" stroke="#63b8ff" points="209.43,-70.97 220.02,-71.37 211.99,-64.46 209.43,-70.97"/>
</a>
</g>
</g>
<!-- Node4 -->
<g id="Node000004" class="node">
<title>Node4</title>
<g id="a_Node000004"><a xlink:href="_asset_utils_8cpp.html" target="_top" xlink:title=" ">
<polygon fill="white" stroke="#666666" points="911.5,-24.5 782.5,-24.5 782.5,-5.5 911.5,-5.5 911.5,-24.5"/>
<text text-anchor="middle" x="847" y="-12.5" font-family="Helvetica,sans-Serif" font-size="10.00">src/Utils/AssetUtils.cpp</text>
</a>
</g>
</g>
<!-- Node3&#45;&gt;Node4 -->
<g id="edge4_Node000003_Node000004" class="edge">
<title>Node3&#45;&gt;Node4</title>
<g id="a_edge4_Node000003_Node000004"><a xlink:title=" ">
<path fill="none" stroke="#63b8ff" d="M323.85,-70.3C336.61,-68.83 349.66,-67.36 362,-66 512.4,-49.47 689.23,-31.65 782.25,-22.4"/>
<polygon fill="#63b8ff" stroke="#63b8ff" points="323.22,-66.85 313.69,-71.48 324.02,-73.81 323.22,-66.85"/>
</a>
</g>
</g>
<!-- Node5 -->
<g id="Node000005" class="node">
<title>Node5</title>
<g id="a_Node000005"><a xlink:href="main_8cpp.html" target="_top" xlink:title=" ">
<polygon fill="white" stroke="#666666" points="1407.5,-24.5 1328.5,-24.5 1328.5,-5.5 1407.5,-5.5 1407.5,-24.5"/>
<text text-anchor="middle" x="1368" y="-12.5" font-family="Helvetica,sans-Serif" font-size="10.00">src/main.cpp</text>
</a>
</g>
</g>
<!-- Node3&#45;&gt;Node5 -->
<g id="edge5_Node000003_Node000005" class="edge">
<title>Node3&#45;&gt;Node5</title>
<g id="a_edge5_Node000003_Node000005"><a xlink:title=" ">
<path fill="none" stroke="#63b8ff" d="M318.2,-70.34C332.73,-68.72 347.82,-67.18 362,-66 737.11,-34.83 1192.64,-20.73 1328.16,-17.03"/>
<polygon fill="#63b8ff" stroke="#63b8ff" points="317.79,-66.86 308.25,-71.47 318.59,-73.82 317.79,-66.86"/>
</a>
</g>
</g>
<!-- Node6 -->
<g id="Node000006" class="node">
<title>Node6</title>
<g id="a_Node000006"><a xlink:href="_filesystem_widget_8cpp.html" target="_top" xlink:title=" ">
<polygon fill="white" stroke="#666666" points="316,-30 176,-30 176,0 316,0 316,-30"/>
<text text-anchor="start" x="184" y="-18" font-family="Helvetica,sans-Serif" font-size="10.00">src/ui/widgets/Filesystem</text>
<text text-anchor="middle" x="246" y="-7" font-family="Helvetica,sans-Serif" font-size="10.00">Widget.cpp</text>
</a>
</g>
</g>
<!-- Node3&#45;&gt;Node6 -->
<g id="edge6_Node000003_Node000006" class="edge">
<title>Node3&#45;&gt;Node6</title>
<g id="a_edge6_Node000003_Node000006"><a xlink:title=" ">
<path fill="none" stroke="#63b8ff" d="M243.17,-61.35C243.78,-51.47 244.53,-39.51 245.1,-30.36"/>
<polygon fill="#63b8ff" stroke="#63b8ff" points="239.67,-61.17 242.54,-71.37 246.66,-61.61 239.67,-61.17"/>
</a>
</g>
</g>
<!-- Node7 -->
<g id="Node000007" class="node">
<title>Node7</title>
<g id="a_Node000007"><a xlink:href="_inspector_widget_8cpp.html" target="_top" xlink:title=" ">
<polygon fill="white" stroke="#666666" points="466,-30 334,-30 334,0 466,0 466,-30"/>
<text text-anchor="start" x="342" y="-18" font-family="Helvetica,sans-Serif" font-size="10.00">src/ui/widgets/Inspector</text>
<text text-anchor="middle" x="400" y="-7" font-family="Helvetica,sans-Serif" font-size="10.00">Widget.cpp</text>
</a>
</g>
</g>
<!-- Node3&#45;&gt;Node7 -->
<g id="edge7_Node000003_Node000007" class="edge">
<title>Node3&#45;&gt;Node7</title>
<g id="a_edge7_Node000003_Node000007"><a xlink:title=" ">
<path fill="none" stroke="#63b8ff" d="M272.85,-67.5C299.35,-56.77 337.55,-41.3 365.15,-30.12"/>
<polygon fill="#63b8ff" stroke="#63b8ff" points="271.26,-64.37 263.31,-71.37 273.89,-70.86 271.26,-64.37"/>
</a>
</g>
</g>
<!-- Node8&#45;&gt;Node2 -->
<g id="edge11_Node000008_Node000002" class="edge">
<title>Node8&#45;&gt;Node2</title>
<g id="a_edge11_Node000008_Node000002"><a xlink:title=" ">
<path fill="none" stroke="#63b8ff" d="M920.79,-144.52C728.35,-140.3 228.41,-126.51 160,-96 124.62,-80.22 95.93,-41.71 84.43,-24.52"/>
<polygon fill="#63b8ff" stroke="#63b8ff" points="920.74,-148.02 930.82,-144.73 920.9,-141.02 920.74,-148.02"/>
</a>
</g>
</g>
<!-- Node8&#45;&gt;Node3 -->
<g id="edge17_Node000008_Node000003" class="edge">
<title>Node8&#45;&gt;Node3</title>
<g id="a_edge17_Node000008_Node000003"><a xlink:title=" ">
<path fill="none" stroke="#63b8ff" d="M920.85,-142.45C797.14,-136.13 542.97,-121.19 329,-96 316.39,-94.52 302.81,-92.52 290.22,-90.51"/>
<polygon fill="#63b8ff" stroke="#63b8ff" points="920.8,-145.95 930.97,-142.96 921.16,-138.96 920.8,-145.95"/>
</a>
</g>
</g>
<!-- Node8&#45;&gt;Node4 -->
<g id="edge18_Node000008_Node000004" class="edge">
<title>Node8&#45;&gt;Node4</title>
<g id="a_edge18_Node000008_Node000004"><a xlink:title=" ">
<path fill="none" stroke="#63b8ff" d="M1049.26,-135.73C1057.85,-134.32 1066.65,-133.01 1075,-132 1198.75,-117.08 1717.29,-156.89 1632,-66 1607.47,-39.86 1094.95,-22.96 911.55,-17.73"/>
<polygon fill="#63b8ff" stroke="#63b8ff" points="1048.6,-132.29 1039.33,-137.43 1049.78,-139.19 1048.6,-132.29"/>
</a>
</g>
</g>
<!-- Node8&#45;&gt;Node5 -->
<g id="edge19_Node000008_Node000005" class="edge">
<title>Node8&#45;&gt;Node5</title>
<g id="a_edge19_Node000008_Node000005"><a xlink:title=" ">
<path fill="none" stroke="#63b8ff" d="M1048.96,-135.77C1057.63,-134.34 1066.55,-133.01 1075,-132 1138.56,-124.4 1606.17,-142.66 1650,-96 1720.9,-20.52 1500.89,-14.49 1407.66,-15.19"/>
<polygon fill="#63b8ff" stroke="#63b8ff" points="1048.19,-132.35 1038.92,-137.49 1049.37,-139.25 1048.19,-132.35"/>
</a>
</g>
</g>
<!-- Node8&#45;&gt;Node7 -->
<g id="edge24_Node000008_Node000007" class="edge">
<title>Node8&#45;&gt;Node7</title>
<g id="a_edge24_Node000008_Node000007"><a xlink:title=" ">
<path fill="none" stroke="#63b8ff" d="M920.8,-142.77C756.93,-135.37 380.73,-116.26 362,-96 344.15,-76.69 367.1,-47.48 384.31,-30.22"/>
<polygon fill="#63b8ff" stroke="#63b8ff" points="920.66,-146.27 930.81,-143.22 920.97,-139.28 920.66,-146.27"/>
</a>
</g>
</g>
<!-- Node9 -->
<g id="Node000009" class="node">
<title>Node9</title>
<g id="a_Node000009"><a xlink:href="_cube_map_8cpp.html" target="_top" xlink:title=" ">
<polygon fill="white" stroke="#666666" points="544.5,-90.5 371.5,-90.5 371.5,-71.5 544.5,-71.5 544.5,-90.5"/>
<text text-anchor="middle" x="458" y="-78.5" font-family="Helvetica,sans-Serif" font-size="10.00">src/AssetManager/CubeMap.cpp</text>
</a>
</g>
</g>
<!-- Node8&#45;&gt;Node9 -->
<g id="edge9_Node000008_Node000009" class="edge">
<title>Node8&#45;&gt;Node9</title>
<g id="a_edge9_Node000008_Node000009"><a xlink:title=" ">
<path fill="none" stroke="#63b8ff" d="M920.6,-138.22C832.55,-128.96 682.55,-112.64 554,-96 541.14,-94.34 527.33,-92.41 514.3,-90.52"/>
<polygon fill="#63b8ff" stroke="#63b8ff" points="920.45,-141.72 930.77,-139.28 921.19,-134.76 920.45,-141.72"/>
</a>
</g>
</g>
<!-- Node10 -->
<g id="Node000010" class="node">
<title>Node10</title>
<g id="a_Node000010"><a xlink:href="_texture_8cpp.html" target="_top" xlink:title=" ">
<polygon fill="white" stroke="#666666" points="725.5,-90.5 562.5,-90.5 562.5,-71.5 725.5,-71.5 725.5,-90.5"/>
<text text-anchor="middle" x="644" y="-78.5" font-family="Helvetica,sans-Serif" font-size="10.00">src/AssetManager/Texture.cpp</text>
</a>
</g>
</g>
<!-- Node8&#45;&gt;Node10 -->
<g id="edge10_Node000008_Node000010" class="edge">
<title>Node8&#45;&gt;Node10</title>
<g id="a_edge10_Node000008_Node000010"><a xlink:title=" ">
<path fill="none" stroke="#63b8ff" d="M939.05,-135.65C870.01,-123.09 754.96,-102.17 690.83,-90.51"/>
<polygon fill="#63b8ff" stroke="#63b8ff" points="938.43,-139.09 948.89,-137.44 939.68,-132.2 938.43,-139.09"/>
</a>
</g>
</g>
<!-- Node11 -->
<g id="Node000011" class="node">
<title>Node11</title>
<g id="a_Node000011"><a xlink:href="_gizmo_system_8cpp.html" target="_top" xlink:title=" ">
<polygon fill="white" stroke="#666666" points="910.5,-90.5 743.5,-90.5 743.5,-71.5 910.5,-71.5 910.5,-90.5"/>
<text text-anchor="middle" x="827" y="-78.5" font-family="Helvetica,sans-Serif" font-size="10.00">src/Systems/GizmoSystem.cpp</text>
</a>
</g>
</g>
<!-- Node8&#45;&gt;Node11 -->
<g id="edge12_Node000008_Node000011" class="edge">
<title>Node8&#45;&gt;Node11</title>
<g id="a_edge12_Node000008_Node000011"><a xlink:title=" ">
<path fill="none" stroke="#63b8ff" d="M963.46,-133.68C930.06,-121.03 878.97,-101.68 849.7,-90.6"/>
<polygon fill="#63b8ff" stroke="#63b8ff" points="962.62,-137.1 973.21,-137.37 965.1,-130.55 962.62,-137.1"/>
</a>
</g>
</g>
<!-- Node12 -->
<g id="Node000012" class="node">
<title>Node12</title>
<g id="a_Node000012"><a xlink:href="_rendering_system_8hpp.html" target="_top" xlink:title=" ">
<polygon fill="white" stroke="#666666" points="1903,-90.5 1717,-90.5 1717,-71.5 1903,-71.5 1903,-90.5"/>
<text text-anchor="middle" x="1810" y="-78.5" font-family="Helvetica,sans-Serif" font-size="10.00">src/Systems/RenderingSystem.hpp</text>
</a>
</g>
</g>
<!-- Node8&#45;&gt;Node12 -->
<g id="edge13_Node000008_Node000012" class="edge">
<title>Node8&#45;&gt;Node12</title>
<g id="a_edge13_Node000008_Node000012"><a xlink:title=" ">
<path fill="none" stroke="#63b8ff" d="M1048.95,-135.73C1057.63,-134.3 1066.55,-132.99 1075,-132 1352.68,-99.55 1424.66,-122.15 1703,-96 1718.57,-94.54 1735.37,-92.54 1750.94,-90.51"/>
<polygon fill="#63b8ff" stroke="#63b8ff" points="1048.18,-132.31 1038.91,-137.44 1049.36,-139.21 1048.18,-132.31"/>
</a>
</g>
</g>
<!-- Node8&#45;&gt;Node15 -->
<g id="edge20_Node000008_Node000015" class="edge">
<title>Node8&#45;&gt;Node15</title>
<g id="a_edge20_Node000008_Node000015"><a xlink:title=" ">
<path fill="none" stroke="#63b8ff" d="M1048.04,-135.76C1057,-134.29 1066.25,-132.96 1075,-132 1453.09,-90.72 1551.25,-130.67 1930,-96 1944.87,-94.64 1960.92,-92.61 1975.68,-90.52"/>
<polygon fill="#63b8ff" stroke="#63b8ff" points="1047.34,-132.33 1038.08,-137.47 1048.53,-139.23 1047.34,-132.33"/>
</a>
</g>
</g>
<!-- Node16 -->
<g id="Node000016" class="node">
<title>Node16</title>
<g id="a_Node000016"><a xlink:href="_component_u_i_8hpp.html" target="_top" xlink:title=" ">
<polygon fill="white" stroke="#666666" points="1063,-90.5 929,-90.5 929,-71.5 1063,-71.5 1063,-90.5"/>
<text text-anchor="middle" x="996" y="-78.5" font-family="Helvetica,sans-Serif" font-size="10.00">src/ui/ComponentUI.hpp</text>
</a>
</g>
</g>
<!-- Node8&#45;&gt;Node16 -->
<g id="edge21_Node000008_Node000016" class="edge">
<title>Node8&#45;&gt;Node16</title>
<g id="a_edge21_Node000008_Node000016"><a xlink:title=" ">
<path fill="none" stroke="#63b8ff" d="M996,-127.08C996,-115.13 996,-100.22 996,-90.91"/>
<polygon fill="#63b8ff" stroke="#63b8ff" points="992.5,-127.37 996,-137.37 999.5,-127.37 992.5,-127.37"/>
</a>
</g>
</g>
<!-- Node17 -->
<g id="Node000017" class="node">
<title>Node17</title>
<g id="a_Node000017"><a xlink:href="_console_widget_8cpp.html" target="_top" xlink:title=" ">
<polygon fill="white" stroke="#666666" points="1262.5,-90.5 1081.5,-90.5 1081.5,-71.5 1262.5,-71.5 1262.5,-90.5"/>
<text text-anchor="middle" x="1172" y="-78.5" font-family="Helvetica,sans-Serif" font-size="10.00">src/ui/widgets/ConsoleWidget.cpp</text>
</a>
</g>
</g>
<!-- Node8&#45;&gt;Node17 -->
<g id="edge22_Node000008_Node000017" class="edge">
<title>Node8&#45;&gt;Node17</title>
<g id="a_edge22_Node000008_Node000017"><a xlink:title=" ">
<path fill="none" stroke="#63b8ff" d="M1029.44,-133.84C1064.21,-121.2 1117.75,-101.73 1148.36,-90.6"/>
<polygon fill="#63b8ff" stroke="#63b8ff" points="1027.94,-130.66 1019.74,-137.37 1030.33,-137.24 1027.94,-130.66"/>
</a>
</g>
</g>
<!-- Node18 -->
<g id="Node000018" class="node">
<title>Node18</title>
<g id="a_Node000018"><a xlink:href="_filesystem_widget_8hpp.html" target="_top" xlink:title="Contains the declaration of the FilesystemWidget class, a user interface widget for interacting with ...">
<polygon fill="white" stroke="#666666" points="1421,-96 1281,-96 1281,-66 1421,-66 1421,-96"/>
<text text-anchor="start" x="1289" y="-84" font-family="Helvetica,sans-Serif" font-size="10.00">src/ui/widgets/Filesystem</text>
<text text-anchor="middle" x="1351" y="-73" font-family="Helvetica,sans-Serif" font-size="10.00">Widget.hpp</text>
</a>
</g>
</g>
<!-- Node8&#45;&gt;Node18 -->
<g id="edge23_Node000008_Node000018" class="edge">
<title>Node8&#45;&gt;Node18</title>
<g id="a_edge23_Node000008_Node000018"><a xlink:title=" ">
<path fill="none" stroke="#63b8ff" d="M1053.51,-135.63C1115.54,-124.45 1214.31,-106.64 1280.85,-94.65"/>
<polygon fill="#63b8ff" stroke="#63b8ff" points="1052.73,-132.22 1043.51,-137.44 1053.97,-139.11 1052.73,-132.22"/>
</a>
</g>
</g>
<!-- Node19 -->
<g id="Node000019" class="node">
<title>Node19</title>
<g id="a_Node000019"><a xlink:href="_runtime_widget_8cpp.html" target="_top" xlink:title=" ">
<polygon fill="white" stroke="#666666" points="1622.5,-90.5 1439.5,-90.5 1439.5,-71.5 1622.5,-71.5 1622.5,-90.5"/>
<text text-anchor="middle" x="1531" y="-78.5" font-family="Helvetica,sans-Serif" font-size="10.00">src/ui/widgets/RuntimeWidget.cpp</text>
</a>
</g>
</g>
<!-- Node8&#45;&gt;Node19 -->
<g id="edge25_Node000008_Node000019" class="edge">
<title>Node8&#45;&gt;Node19</title>
<g id="a_edge25_Node000008_Node000019"><a xlink:title=" ">
<path fill="none" stroke="#63b8ff" d="M1050.49,-135.8C1058.69,-134.42 1067.06,-133.11 1075,-132 1232.07,-110.15 1272.54,-114.89 1430,-96 1443.71,-94.36 1458.44,-92.41 1472.3,-90.51"/>
<polygon fill="#63b8ff" stroke="#63b8ff" points="1049.87,-132.35 1040.61,-137.5 1051.06,-139.25 1049.87,-132.35"/>
</a>
</g>
</g>
<!-- Node12&#45;&gt;Node12 -->
<g id="edge14_Node000012_Node000012" class="edge">
<title>Node12&#45;&gt;Node12</title>
<g id="a_edge14_Node000012_Node000012"><a xlink:title=" ">
<path fill="none" stroke="#63b8ff" d="M1854.6,-91.93C1887.7,-95.71 1921,-92.07 1921,-81 1921,-68.79 1880.45,-65.61 1844.38,-71.48"/>
<polygon fill="#63b8ff" stroke="#63b8ff" points="1854.76,-88.42 1844.38,-90.52 1853.81,-95.35 1854.76,-88.42"/>
</a>
</g>
</g>
<!-- Node13 -->
<g id="Node000013" class="node">
<title>Node13</title>
<g id="a_Node000013"><a xlink:href="_runtime_widget_8hpp.html" target="_top" xlink:title=" ">
<polygon fill="white" stroke="#666666" points="2000,-24.5 1816,-24.5 1816,-5.5 2000,-5.5 2000,-24.5"/>
<text text-anchor="middle" x="1908" y="-12.5" font-family="Helvetica,sans-Serif" font-size="10.00">src/ui/widgets/RuntimeWidget.hpp</text>
</a>
</g>
</g>
<!-- Node12&#45;&gt;Node13 -->
<g id="edge15_Node000012_Node000013" class="edge">
<title>Node12&#45;&gt;Node13</title>
<g id="a_edge15_Node000012_Node000013"><a xlink:title=" ">
<path fill="none" stroke="#63b8ff" d="M1831.67,-65.85C1850.93,-53.27 1878.48,-35.28 1894.68,-24.7"/>
<polygon fill="#63b8ff" stroke="#63b8ff" points="1829.68,-62.97 1823.22,-71.37 1833.5,-68.83 1829.68,-62.97"/>
</a>
</g>
</g>
<!-- Node14 -->
<g id="Node000014" class="node">
<title>Node14</title>
<g id="a_Node000014"><a xlink:href="_scene_widget_8hpp.html" target="_top" xlink:title="Contains the declaration of the SceneWidget class, a user interface widget for rendering scenes.">
<polygon fill="white" stroke="#666666" points="1798,-24.5 1626,-24.5 1626,-5.5 1798,-5.5 1798,-24.5"/>
<text text-anchor="middle" x="1712" y="-12.5" font-family="Helvetica,sans-Serif" font-size="10.00">src/ui/widgets/SceneWidget.hpp</text>
</a>
</g>
</g>
<!-- Node12&#45;&gt;Node14 -->
<g id="edge16_Node000012_Node000014" class="edge">
<title>Node12&#45;&gt;Node14</title>
<g id="a_edge16_Node000012_Node000014"><a xlink:title=" ">
<path fill="none" stroke="#63b8ff" d="M1788.33,-65.85C1769.07,-53.27 1741.52,-35.28 1725.32,-24.7"/>
<polygon fill="#63b8ff" stroke="#63b8ff" points="1786.5,-68.83 1796.78,-71.37 1790.32,-62.97 1786.5,-68.83"/>
</a>
</g>
</g>
</g>
</svg>
