<?xml version="1.0" encoding="UTF-8" standalone="no"?>
<!DOCTYPE svg PUBLIC "-//W3C//DTD SVG 1.1//EN"
 "http://www.w3.org/Graphics/SVG/1.1/DTD/svg11.dtd">
<!-- Generated by graphviz version 2.43.0 (0)
 -->
<!-- Title: src/AssetManager/AssetManager.hpp Pages: 1 -->
<svg width="1967pt" height="95pt"
 viewBox="0.00 0.00 1966.50 95.00" xmlns="http://www.w3.org/2000/svg" xmlns:xlink="http://www.w3.org/1999/xlink">
<g id="graph0" class="graph" transform="scale(1 1) rotate(0) translate(4 91)">
<title>src/AssetManager/AssetManager.hpp</title>
<polygon fill="white" stroke="transparent" points="-4,4 -4,-91 1962.5,-91 1962.5,4 -4,4"/>
<!-- Node1 -->
<g id="node1" class="node">
<title>Node1</title>
<g id="a_node1"><a xlink:title=" ">
<polygon fill="#bfbfbf" stroke="black" points="881.5,-67.5 881.5,-86.5 1078.5,-86.5 1078.5,-67.5 881.5,-67.5"/>
<text text-anchor="middle" x="980" y="-74.5" font-family="Helvetica,sans-Serif" font-size="10.00">src/AssetManager/AssetManager.hpp</text>
</a>
</g>
</g>
<!-- Node2 -->
<g id="node2" class="node">
<title>Node2</title>
<g id="a_node2"><a xlink:href="_asset_manager_8cpp.html" target="_top" xlink:title=" ">
<polygon fill="white" stroke="black" points="0,-6 0,-25 196,-25 196,-6 0,-6"/>
<text text-anchor="middle" x="98" y="-13" font-family="Helvetica,sans-Serif" font-size="10.00">src/AssetManager/AssetManager.cpp</text>
</a>
</g>
</g>
<!-- Node1&#45;&gt;Node2 -->
<g id="edge1" class="edge">
<title>Node1&#45;&gt;Node2</title>
<path fill="none" stroke="midnightblue" d="M871.04,-72.36C720.71,-66.74 441.32,-54.08 204,-31 187.82,-29.43 170.32,-27.24 154.29,-25.03"/>
<polygon fill="midnightblue" stroke="midnightblue" points="871.08,-75.87 881.2,-72.74 871.34,-68.87 871.08,-75.87"/>
</g>
<!-- Node3 -->
<g id="node3" class="node">
<title>Node3</title>
<g id="a_node3"><a xlink:href="main_8cpp.html" target="_top" xlink:title=" ">
<polygon fill="white" stroke="black" points="213.5,-6 213.5,-25 292.5,-25 292.5,-6 213.5,-6"/>
<text text-anchor="middle" x="253" y="-13" font-family="Helvetica,sans-Serif" font-size="10.00">src/main.cpp</text>
</a>
</g>
</g>
<!-- Node1&#45;&gt;Node3 -->
<g id="edge2" class="edge">
<title>Node1&#45;&gt;Node3</title>
<path fill="none" stroke="midnightblue" d="M870.98,-76.36C736.07,-75.07 499.82,-67.13 301,-31 293.29,-29.6 285.07,-27.39 277.65,-25.12"/>
<polygon fill="midnightblue" stroke="midnightblue" points="871.29,-79.86 881.32,-76.45 871.35,-72.86 871.29,-79.86"/>
</g>
<!-- Node4 -->
<g id="node4" class="node">
<title>Node4</title>
<g id="a_node4"><a xlink:href="_texture_8cpp.html" target="_top" xlink:title=" ">
<polygon fill="white" stroke="black" points="310.5,-6 310.5,-25 453.5,-25 453.5,-6 310.5,-6"/>
<text text-anchor="middle" x="382" y="-13" font-family="Helvetica,sans-Serif" font-size="10.00">src/Rendering/Texture.cpp</text>
</a>
</g>
</g>
<!-- Node1&#45;&gt;Node4 -->
<g id="edge3" class="edge">
<title>Node1&#45;&gt;Node4</title>
<path fill="none" stroke="midnightblue" d="M871.38,-69.5C766.35,-62.53 602.85,-49.84 462,-31 449.97,-29.39 436.99,-27.23 425.06,-25.06"/>
<polygon fill="midnightblue" stroke="midnightblue" points="871.15,-72.99 881.36,-70.16 871.61,-66.01 871.15,-72.99"/>
</g>
<!-- Node5 -->
<g id="node5" class="node">
<title>Node5</title>
<g id="a_node5"><a xlink:href="_development_renderer_system_8cpp.html" target="_top" xlink:title=" ">
<polygon fill="white" stroke="black" points="471.5,-0.5 471.5,-30.5 660.5,-30.5 660.5,-0.5 471.5,-0.5"/>
<text text-anchor="start" x="479.5" y="-18.5" font-family="Helvetica,sans-Serif" font-size="10.00">src/Systems/DevelopmentRenderer</text>
<text text-anchor="middle" x="566" y="-7.5" font-family="Helvetica,sans-Serif" font-size="10.00">System.cpp</text>
</a>
</g>
</g>
<!-- Node1&#45;&gt;Node5 -->
<g id="edge4" class="edge">
<title>Node1&#45;&gt;Node5</title>
<path fill="none" stroke="midnightblue" d="M910.44,-66C841.96,-56.16 736.88,-41.06 660.79,-30.12"/>
<polygon fill="midnightblue" stroke="midnightblue" points="910.29,-69.52 920.68,-67.48 911.28,-62.59 910.29,-69.52"/>
</g>
<!-- Node6 -->
<g id="node6" class="node">
<title>Node6</title>
<g id="a_node6"><a xlink:href="_rendering_system_8cpp.html" target="_top" xlink:title=" ">
<polygon fill="white" stroke="black" points="678.5,-6 678.5,-25 863.5,-25 863.5,-6 678.5,-6"/>
<text text-anchor="middle" x="771" y="-13" font-family="Helvetica,sans-Serif" font-size="10.00">src/Systems/RenderingSystem.cpp</text>
</a>
</g>
</g>
<!-- Node1&#45;&gt;Node6 -->
<g id="edge5" class="edge">
<title>Node1&#45;&gt;Node6</title>
<path fill="none" stroke="midnightblue" d="M940.22,-64.68C899.61,-53.11 837.49,-35.43 800.89,-25.01"/>
<polygon fill="midnightblue" stroke="midnightblue" points="939.48,-68.1 950.06,-67.48 941.4,-61.37 939.48,-68.1"/>
</g>
<!-- Node7 -->
<g id="node7" class="node">
<title>Node7</title>
<g id="a_node7"><a xlink:href="_model_component_u_i_8cpp.html" target="_top" xlink:title=" ">
<polygon fill="white" stroke="black" points="881.5,-0.5 881.5,-30.5 1078.5,-30.5 1078.5,-0.5 881.5,-0.5"/>
<text text-anchor="start" x="889.5" y="-18.5" font-family="Helvetica,sans-Serif" font-size="10.00">src/ui/Components/ModelComponent</text>
<text text-anchor="middle" x="980" y="-7.5" font-family="Helvetica,sans-Serif" font-size="10.00">UI.cpp</text>
</a>
</g>
</g>
<!-- Node1&#45;&gt;Node7 -->
<g id="edge6" class="edge">
<title>Node1&#45;&gt;Node7</title>
<path fill="none" stroke="midnightblue" d="M980,-57.23C980,-48.59 980,-38.5 980,-30.52"/>
<polygon fill="midnightblue" stroke="midnightblue" points="976.5,-57.48 980,-67.48 983.5,-57.48 976.5,-57.48"/>
</g>
<!-- Node8 -->
<g id="node8" class="node">
<title>Node8</title>
<g id="a_node8"><a xlink:href="_wireframe_component_u_i_8cpp.html" target="_top" xlink:title=" ">
<polygon fill="white" stroke="black" points="1097,-0.5 1097,-30.5 1259,-30.5 1259,-0.5 1097,-0.5"/>
<text text-anchor="start" x="1105" y="-18.5" font-family="Helvetica,sans-Serif" font-size="10.00">src/ui/Components/Wireframe</text>
<text text-anchor="middle" x="1178" y="-7.5" font-family="Helvetica,sans-Serif" font-size="10.00">ComponentUI.cpp</text>
</a>
</g>
</g>
<!-- Node1&#45;&gt;Node8 -->
<g id="edge7" class="edge">
<title>Node1&#45;&gt;Node8</title>
<path fill="none" stroke="midnightblue" d="M1018.32,-64.48C1050.61,-54.78 1096.9,-40.87 1131.34,-30.52"/>
<polygon fill="midnightblue" stroke="midnightblue" points="1016.94,-61.25 1008.37,-67.48 1018.95,-67.95 1016.94,-61.25"/>
</g>
<!-- Node9 -->
<g id="node9" class="node">
<title>Node9</title>
<g id="a_node9"><a xlink:href="_component_u_i_8hpp.html" target="_top" xlink:title=" ">
<polygon fill="white" stroke="black" points="1277,-6 1277,-25 1411,-25 1411,-6 1277,-6"/>
<text text-anchor="middle" x="1344" y="-13" font-family="Helvetica,sans-Serif" font-size="10.00">src/ui/ComponentUI.hpp</text>
</a>
</g>
</g>
<!-- Node1&#45;&gt;Node9 -->
<g id="edge8" class="edge">
<title>Node1&#45;&gt;Node9</title>
<path fill="none" stroke="midnightblue" d="M1048.5,-65.96C1106.92,-57.23 1193.09,-43.99 1268,-31 1278.59,-29.16 1289.98,-27.06 1300.64,-25.03"/>
<polygon fill="midnightblue" stroke="midnightblue" points="1047.66,-62.54 1038.29,-67.48 1048.7,-69.47 1047.66,-62.54"/>
</g>
<!-- Node10 -->
<g id="node10" class="node">
<title>Node10</title>
<g id="a_node10"><a xlink:href="_console_widget_8cpp.html" target="_top" xlink:title=" ">
<polygon fill="white" stroke="black" points="1429.5,-6 1429.5,-25 1610.5,-25 1610.5,-6 1429.5,-6"/>
<text text-anchor="middle" x="1520" y="-13" font-family="Helvetica,sans-Serif" font-size="10.00">src/ui/widgets/ConsoleWidget.cpp</text>
</a>
</g>
</g>
<!-- Node1&#45;&gt;Node10 -->
<g id="edge9" class="edge">
<title>Node1&#45;&gt;Node10</title>
<path fill="none" stroke="midnightblue" d="M1084.67,-66.54C1173.9,-58.18 1305.53,-45.15 1420,-31 1434.36,-29.22 1449.85,-27.09 1464.26,-25.01"/>
<polygon fill="midnightblue" stroke="midnightblue" points="1084.17,-63.08 1074.54,-67.49 1084.83,-70.05 1084.17,-63.08"/>
</g>
<!-- Node11 -->
<g id="node11" class="node">
<title>Node11</title>
<g id="a_node11"><a xlink:href="_filesystem_widget_8cpp.html" target="_top" xlink:title=" ">
<polygon fill="white" stroke="black" points="1629,-0.5 1629,-30.5 1769,-30.5 1769,-0.5 1629,-0.5"/>
<text text-anchor="start" x="1637" y="-18.5" font-family="Helvetica,sans-Serif" font-size="10.00">src/ui/widgets/Filesystem</text>
<text text-anchor="middle" x="1699" y="-7.5" font-family="Helvetica,sans-Serif" font-size="10.00">Widget.cpp</text>
</a>
</g>
</g>
<!-- Node1&#45;&gt;Node11 -->
<g id="edge10" class="edge">
<title>Node1&#45;&gt;Node11</title>
<path fill="none" stroke="midnightblue" d="M1088.91,-72.04C1216.55,-66.54 1434.27,-54.5 1620,-31 1622.91,-30.63 1625.87,-30.23 1628.85,-29.79"/>
<polygon fill="midnightblue" stroke="midnightblue" points="1088.58,-68.55 1078.74,-72.47 1088.87,-75.54 1088.58,-68.55"/>
</g>
<!-- Node12 -->
<g id="node12" class="node">
<title>Node12</title>
<g id="a_node12"><a xlink:href="_scene_widget_8cpp.html" target="_top" xlink:title=" ">
<polygon fill="white" stroke="black" points="1787.5,-6 1787.5,-25 1958.5,-25 1958.5,-6 1787.5,-6"/>
<text text-anchor="middle" x="1873" y="-13" font-family="Helvetica,sans-Serif" font-size="10.00">src/ui/widgets/SceneWidget.cpp</text>
</a>
</g>
</g>
<!-- Node1&#45;&gt;Node12 -->
<g id="edge11" class="edge">
<title>Node1&#45;&gt;Node12</title>
<path fill="none" stroke="midnightblue" d="M1088.91,-73.14C1242.78,-68.35 1532.46,-56.6 1778,-31 1792.6,-29.48 1808.39,-27.29 1822.83,-25.07"/>
<polygon fill="midnightblue" stroke="midnightblue" points="1088.41,-69.65 1078.52,-73.46 1088.63,-76.65 1088.41,-69.65"/>
</g>
</g>
</svg>
