<?xml version="1.0" encoding="UTF-8" standalone="no"?>
<!DOCTYPE svg PUBLIC "-//W3C//DTD SVG 1.1//EN"
 "http://www.w3.org/Graphics/SVG/1.1/DTD/svg11.dtd">
<!-- Generated by graphviz version 2.43.0 (0)
 -->
<!-- Title: src/AssetManager/AssetManager.hpp Pages: 1 -->
<svg width="1760pt" height="95pt"
 viewBox="0.00 0.00 1759.50 95.00" xmlns="http://www.w3.org/2000/svg" xmlns:xlink="http://www.w3.org/1999/xlink">
<g id="graph0" class="graph" transform="scale(1 1) rotate(0) translate(4 91)">
<title>src/AssetManager/AssetManager.hpp</title>
<polygon fill="white" stroke="transparent" points="-4,4 -4,-91 1755.5,-91 1755.5,4 -4,4"/>
<!-- Node1 -->
<g id="node1" class="node">
<title>Node1</title>
<g id="a_node1"><a xlink:title=" ">
<polygon fill="#bfbfbf" stroke="black" points="773.5,-67.5 773.5,-86.5 970.5,-86.5 970.5,-67.5 773.5,-67.5"/>
<text text-anchor="middle" x="872" y="-74.5" font-family="Helvetica,sans-Serif" font-size="10.00">src/AssetManager/AssetManager.hpp</text>
</a>
</g>
</g>
<!-- Node2 -->
<g id="node2" class="node">
<title>Node2</title>
<g id="a_node2"><a xlink:href="_asset_manager_8cpp.html" target="_top" xlink:title=" ">
<polygon fill="white" stroke="black" points="0,-6 0,-25 196,-25 196,-6 0,-6"/>
<text text-anchor="middle" x="98" y="-13" font-family="Helvetica,sans-Serif" font-size="10.00">src/AssetManager/AssetManager.cpp</text>
</a>
</g>
</g>
<!-- Node1&#45;&gt;Node2 -->
<g id="edge1" class="edge">
<title>Node1&#45;&gt;Node2</title>
<path fill="none" stroke="midnightblue" d="M763.21,-70.97C630.84,-64.32 400.66,-51.05 204,-31 188.02,-29.37 170.73,-27.19 154.85,-25.01"/>
<polygon fill="midnightblue" stroke="midnightblue" points="763.19,-74.47 773.35,-71.48 763.54,-67.48 763.19,-74.47"/>
</g>
<!-- Node3 -->
<g id="node3" class="node">
<title>Node3</title>
<g id="a_node3"><a xlink:href="main_8cpp.html" target="_top" xlink:title=" ">
<polygon fill="white" stroke="black" points="213.5,-6 213.5,-25 292.5,-25 292.5,-6 213.5,-6"/>
<text text-anchor="middle" x="253" y="-13" font-family="Helvetica,sans-Serif" font-size="10.00">src/main.cpp</text>
</a>
</g>
</g>
<!-- Node1&#45;&gt;Node3 -->
<g id="edge2" class="edge">
<title>Node1&#45;&gt;Node3</title>
<path fill="none" stroke="midnightblue" d="M763.14,-74.35C647.56,-70.99 460.01,-60.92 301,-31 293.3,-29.55 285.08,-27.33 277.66,-25.06"/>
<polygon fill="midnightblue" stroke="midnightblue" points="763.31,-77.85 773.4,-74.64 763.51,-70.86 763.31,-77.85"/>
</g>
<!-- Node4 -->
<g id="node4" class="node">
<title>Node4</title>
<g id="a_node4"><a xlink:href="_texture_8cpp.html" target="_top" xlink:title=" ">
<polygon fill="white" stroke="black" points="310.5,-6 310.5,-25 453.5,-25 453.5,-6 310.5,-6"/>
<text text-anchor="middle" x="382" y="-13" font-family="Helvetica,sans-Serif" font-size="10.00">src/Rendering/Texture.cpp</text>
</a>
</g>
</g>
<!-- Node1&#45;&gt;Node4 -->
<g id="edge3" class="edge">
<title>Node1&#45;&gt;Node4</title>
<path fill="none" stroke="midnightblue" d="M766.71,-66.49C683.74,-58.5 565.23,-46 462,-31 450.27,-29.29 437.62,-27.15 425.92,-25.03"/>
<polygon fill="midnightblue" stroke="midnightblue" points="766.61,-70 776.9,-67.46 767.28,-63.03 766.61,-70"/>
</g>
<!-- Node5 -->
<g id="node5" class="node">
<title>Node5</title>
<g id="a_node5"><a xlink:href="_rendering_system_8cpp.html" target="_top" xlink:title=" ">
<polygon fill="white" stroke="black" points="471.5,-6 471.5,-25 656.5,-25 656.5,-6 471.5,-6"/>
<text text-anchor="middle" x="564" y="-13" font-family="Helvetica,sans-Serif" font-size="10.00">src/Systems/RenderingSystem.cpp</text>
</a>
</g>
</g>
<!-- Node1&#45;&gt;Node5 -->
<g id="edge4" class="edge">
<title>Node1&#45;&gt;Node5</title>
<path fill="none" stroke="midnightblue" d="M817.88,-65.55C758.21,-54.02 663.36,-35.69 608.05,-25.01"/>
<polygon fill="midnightblue" stroke="midnightblue" points="817.39,-69.01 827.87,-67.48 818.72,-62.14 817.39,-69.01"/>
</g>
<!-- Node6 -->
<g id="node6" class="node">
<title>Node6</title>
<g id="a_node6"><a xlink:href="_model_component_u_i_8cpp.html" target="_top" xlink:title=" ">
<polygon fill="white" stroke="black" points="674.5,-0.5 674.5,-30.5 871.5,-30.5 871.5,-0.5 674.5,-0.5"/>
<text text-anchor="start" x="682.5" y="-18.5" font-family="Helvetica,sans-Serif" font-size="10.00">src/ui/Components/ModelComponent</text>
<text text-anchor="middle" x="773" y="-7.5" font-family="Helvetica,sans-Serif" font-size="10.00">UI.cpp</text>
</a>
</g>
</g>
<!-- Node1&#45;&gt;Node6 -->
<g id="edge5" class="edge">
<title>Node1&#45;&gt;Node6</title>
<path fill="none" stroke="midnightblue" d="M849.17,-62.28C833.32,-52.75 812.28,-40.11 796.33,-30.52"/>
<polygon fill="midnightblue" stroke="midnightblue" points="847.44,-65.32 857.82,-67.48 851.05,-59.32 847.44,-65.32"/>
</g>
<!-- Node7 -->
<g id="node7" class="node">
<title>Node7</title>
<g id="a_node7"><a xlink:href="_wireframe_component_u_i_8cpp.html" target="_top" xlink:title=" ">
<polygon fill="white" stroke="black" points="890,-0.5 890,-30.5 1052,-30.5 1052,-0.5 890,-0.5"/>
<text text-anchor="start" x="898" y="-18.5" font-family="Helvetica,sans-Serif" font-size="10.00">src/ui/Components/Wireframe</text>
<text text-anchor="middle" x="971" y="-7.5" font-family="Helvetica,sans-Serif" font-size="10.00">ComponentUI.cpp</text>
</a>
</g>
</g>
<!-- Node1&#45;&gt;Node7 -->
<g id="edge6" class="edge">
<title>Node1&#45;&gt;Node7</title>
<path fill="none" stroke="midnightblue" d="M894.83,-62.28C910.68,-52.75 931.72,-40.11 947.67,-30.52"/>
<polygon fill="midnightblue" stroke="midnightblue" points="892.95,-59.32 886.18,-67.48 896.56,-65.32 892.95,-59.32"/>
</g>
<!-- Node8 -->
<g id="node8" class="node">
<title>Node8</title>
<g id="a_node8"><a xlink:href="_component_u_i_8hpp.html" target="_top" xlink:title=" ">
<polygon fill="white" stroke="black" points="1070,-6 1070,-25 1204,-25 1204,-6 1070,-6"/>
<text text-anchor="middle" x="1137" y="-13" font-family="Helvetica,sans-Serif" font-size="10.00">src/ui/ComponentUI.hpp</text>
</a>
</g>
</g>
<!-- Node1&#45;&gt;Node8 -->
<g id="edge7" class="edge">
<title>Node1&#45;&gt;Node8</title>
<path fill="none" stroke="midnightblue" d="M919.84,-65.26C971.25,-53.72 1051.91,-35.61 1099.1,-25.01"/>
<polygon fill="midnightblue" stroke="midnightblue" points="918.96,-61.87 909.97,-67.48 920.49,-68.7 918.96,-61.87"/>
</g>
<!-- Node9 -->
<g id="node9" class="node">
<title>Node9</title>
<g id="a_node9"><a xlink:href="_console_widget_8cpp.html" target="_top" xlink:title=" ">
<polygon fill="white" stroke="black" points="1222.5,-6 1222.5,-25 1403.5,-25 1403.5,-6 1222.5,-6"/>
<text text-anchor="middle" x="1313" y="-13" font-family="Helvetica,sans-Serif" font-size="10.00">src/ui/widgets/ConsoleWidget.cpp</text>
</a>
</g>
</g>
<!-- Node1&#45;&gt;Node9 -->
<g id="edge8" class="edge">
<title>Node1&#45;&gt;Node9</title>
<path fill="none" stroke="midnightblue" d="M948.3,-66.21C1017.43,-57.28 1122.09,-43.59 1213,-31 1226.64,-29.11 1241.32,-27.02 1255.12,-25.02"/>
<polygon fill="midnightblue" stroke="midnightblue" points="947.83,-62.75 938.36,-67.5 948.73,-69.69 947.83,-62.75"/>
</g>
<!-- Node10 -->
<g id="node10" class="node">
<title>Node10</title>
<g id="a_node10"><a xlink:href="_filesystem_widget_8cpp.html" target="_top" xlink:title=" ">
<polygon fill="white" stroke="black" points="1422,-0.5 1422,-30.5 1562,-30.5 1562,-0.5 1422,-0.5"/>
<text text-anchor="start" x="1430" y="-18.5" font-family="Helvetica,sans-Serif" font-size="10.00">src/ui/widgets/Filesystem</text>
<text text-anchor="middle" x="1492" y="-7.5" font-family="Helvetica,sans-Serif" font-size="10.00">Widget.cpp</text>
</a>
</g>
</g>
<!-- Node1&#45;&gt;Node10 -->
<g id="edge9" class="edge">
<title>Node1&#45;&gt;Node10</title>
<path fill="none" stroke="midnightblue" d="M980.6,-70.12C1090.08,-63.45 1263.74,-50.86 1413,-31 1415.9,-30.61 1418.86,-30.19 1421.85,-29.75"/>
<polygon fill="midnightblue" stroke="midnightblue" points="980.31,-66.63 970.54,-70.73 980.73,-73.62 980.31,-66.63"/>
</g>
<!-- Node11 -->
<g id="node11" class="node">
<title>Node11</title>
<g id="a_node11"><a xlink:href="_scene_widget_8cpp.html" target="_top" xlink:title=" ">
<polygon fill="white" stroke="black" points="1580.5,-6 1580.5,-25 1751.5,-25 1751.5,-6 1580.5,-6"/>
<text text-anchor="middle" x="1666" y="-13" font-family="Helvetica,sans-Serif" font-size="10.00">src/ui/widgets/SceneWidget.cpp</text>
</a>
</g>
</g>
<!-- Node1&#45;&gt;Node11 -->
<g id="edge10" class="edge">
<title>Node1&#45;&gt;Node11</title>
<path fill="none" stroke="midnightblue" d="M980.76,-71.94C1118.45,-66.12 1362.82,-53.54 1571,-31 1585.43,-29.44 1601.03,-27.26 1615.33,-25.07"/>
<polygon fill="midnightblue" stroke="midnightblue" points="980.47,-68.45 970.63,-72.36 980.77,-75.44 980.47,-68.45"/>
</g>
</g>
</svg>
