<?xml version="1.0" encoding="UTF-8" standalone="no"?>
<!DOCTYPE svg PUBLIC "-//W3C//DTD SVG 1.1//EN"
 "http://www.w3.org/Graphics/SVG/1.1/DTD/svg11.dtd">
<!-- Generated by graphviz version 2.43.0 (0)
 -->
<!-- Title: src/AssetManager/AssetManager.cpp Pages: 1 -->
<svg width="295pt" height="196pt"
 viewBox="0.00 0.00 295.00 196.00" xmlns="http://www.w3.org/2000/svg" xmlns:xlink="http://www.w3.org/1999/xlink">
<g id="graph0" class="graph" transform="scale(1 1) rotate(0) translate(4 192)">
<title>src/AssetManager/AssetManager.cpp</title>
<polygon fill="white" stroke="transparent" points="-4,4 -4,-192 291,-192 291,4 -4,4"/>
<!-- Node1 -->
<g id="node1" class="node">
<title>Node1</title>
<g id="a_node1"><a xlink:title=" ">
<polygon fill="#bfbfbf" stroke="black" points="23.5,-168.5 23.5,-187.5 219.5,-187.5 219.5,-168.5 23.5,-168.5"/>
<text text-anchor="middle" x="121.5" y="-175.5" font-family="Helvetica,sans-Serif" font-size="10.00">src/AssetManager/AssetManager.cpp</text>
</a>
</g>
</g>
<!-- Node2 -->
<g id="node2" class="node">
<title>Node2</title>
<g id="a_node2"><a xlink:href="_asset_manager_8hpp.html" target="_top" xlink:title=" ">
<polygon fill="white" stroke="black" points="32,-112.5 32,-131.5 211,-131.5 211,-112.5 32,-112.5"/>
<text text-anchor="middle" x="121.5" y="-119.5" font-family="Helvetica,sans-Serif" font-size="10.00">AssetManager/AssetManager.hpp</text>
</a>
</g>
</g>
<!-- Node1&#45;&gt;Node2 -->
<g id="edge1" class="edge">
<title>Node1&#45;&gt;Node2</title>
<path fill="none" stroke="midnightblue" d="M121.5,-168.08C121.5,-161.01 121.5,-150.86 121.5,-141.99"/>
<polygon fill="midnightblue" stroke="midnightblue" points="125,-141.75 121.5,-131.75 118,-141.75 125,-141.75"/>
</g>
<!-- Node3 -->
<g id="node3" class="node">
<title>Node3</title>
<g id="a_node3"><a xlink:title=" ">
<polygon fill="white" stroke="#bfbfbf" points="0,-56.5 0,-75.5 93,-75.5 93,-56.5 0,-56.5"/>
<text text-anchor="middle" x="46.5" y="-63.5" font-family="Helvetica,sans-Serif" font-size="10.00">unordered_map</text>
</a>
</g>
</g>
<!-- Node2&#45;&gt;Node3 -->
<g id="edge2" class="edge">
<title>Node2&#45;&gt;Node3</title>
<path fill="none" stroke="midnightblue" d="M109.45,-112.32C98.04,-104.11 80.67,-91.6 67.07,-81.81"/>
<polygon fill="midnightblue" stroke="midnightblue" points="68.93,-78.84 58.77,-75.83 64.84,-84.52 68.93,-78.84"/>
</g>
<!-- Node4 -->
<g id="node4" class="node">
<title>Node4</title>
<g id="a_node4"><a xlink:title=" ">
<polygon fill="white" stroke="#bfbfbf" points="135.5,-0.5 135.5,-19.5 203.5,-19.5 203.5,-0.5 135.5,-0.5"/>
<text text-anchor="middle" x="169.5" y="-7.5" font-family="Helvetica,sans-Serif" font-size="10.00">filesystem</text>
</a>
</g>
</g>
<!-- Node2&#45;&gt;Node4 -->
<g id="edge3" class="edge">
<title>Node2&#45;&gt;Node4</title>
<path fill="none" stroke="midnightblue" d="M123.41,-112.33C126.38,-99.62 132.69,-75.34 141.5,-56 145.94,-46.27 152.12,-36.09 157.54,-27.89"/>
<polygon fill="midnightblue" stroke="midnightblue" points="160.46,-29.82 163.22,-19.59 154.68,-25.87 160.46,-29.82"/>
</g>
<!-- Node5 -->
<g id="node5" class="node">
<title>Node5</title>
<g id="a_node5"><a xlink:href="_asset_8hpp.html" target="_top" xlink:title=" ">
<polygon fill="white" stroke="black" points="150,-56.5 150,-75.5 287,-75.5 287,-56.5 150,-56.5"/>
<text text-anchor="middle" x="218.5" y="-63.5" font-family="Helvetica,sans-Serif" font-size="10.00">AssetManager/Asset.hpp</text>
</a>
</g>
</g>
<!-- Node2&#45;&gt;Node5 -->
<g id="edge4" class="edge">
<title>Node2&#45;&gt;Node5</title>
<path fill="none" stroke="midnightblue" d="M137.08,-112.32C152.5,-103.74 176.31,-90.49 194.21,-80.52"/>
<polygon fill="midnightblue" stroke="midnightblue" points="195.92,-83.58 202.95,-75.65 192.51,-77.46 195.92,-83.58"/>
</g>
<!-- Node5&#45;&gt;Node4 -->
<g id="edge5" class="edge">
<title>Node5&#45;&gt;Node4</title>
<path fill="none" stroke="midnightblue" d="M210.41,-56.08C203.34,-48.3 192.91,-36.8 184.35,-27.37"/>
<polygon fill="midnightblue" stroke="midnightblue" points="186.75,-24.8 177.44,-19.75 181.57,-29.51 186.75,-24.8"/>
</g>
</g>
</svg>
