<?xml version="1.0" encoding="UTF-8" standalone="no"?>
<!DOCTYPE svg PUBLIC "-//W3C//DTD SVG 1.1//EN"
 "http://www.w3.org/Graphics/SVG/1.1/DTD/svg11.dtd">
<!-- Generated by graphviz version 2.43.0 (0)
 -->
<!-- Title: src/Utils/AssetLoaders.hpp Pages: 1 -->
<svg width="1975pt" height="489pt"
 viewBox="0.00 0.00 1975.00 489.00" xmlns="http://www.w3.org/2000/svg" xmlns:xlink="http://www.w3.org/1999/xlink">
<g id="graph0" class="graph" transform="scale(1 1) rotate(0) translate(4 485)">
<title>src/Utils/AssetLoaders.hpp</title>
<!-- Node1 -->
<g id="Node000001" class="node">
<title>Node1</title>
<g id="a_Node000001"><a xlink:title=" ">
<polygon fill="#999999" stroke="#666666" points="1119,-481 973,-481 973,-462 1119,-462 1119,-481"/>
<text text-anchor="middle" x="1046" y="-469" font-family="Helvetica,sans-Serif" font-size="10.00">src/Utils/AssetLoaders.hpp</text>
</a>
</g>
</g>
<!-- Node2 -->
<g id="Node000002" class="node">
<title>Node2</title>
<g id="a_Node000002"><a xlink:title=" ">
<polygon fill="#e0e0e0" stroke="#999999" points="952,-239 884,-239 884,-220 952,-220 952,-239"/>
<text text-anchor="middle" x="918" y="-227" font-family="Helvetica,sans-Serif" font-size="10.00">filesystem</text>
</a>
</g>
</g>
<!-- Node1&#45;&gt;Node2 -->
<g id="edge1_Node000001_Node000002" class="edge">
<title>Node1&#45;&gt;Node2</title>
<g id="a_edge1_Node000001_Node000002"><a xlink:title=" ">
<path fill="none" stroke="#63b8ff" d="M972.94,-467.73C905,-460.81 807.24,-438.78 759,-371 718.62,-314.26 824.6,-264.7 882.79,-242.66"/>
<polygon fill="#63b8ff" stroke="#63b8ff" points="884.21,-245.86 892.37,-239.11 881.78,-239.3 884.21,-245.86"/>
</a>
</g>
</g>
<!-- Node3 -->
<g id="Node000003" class="node">
<title>Node3</title>
<g id="a_Node000003"><a xlink:href="_asset_8hpp.html" target="_top" xlink:title=" ">
<polygon fill="white" stroke="#666666" points="1041.5,-299.5 904.5,-299.5 904.5,-280.5 1041.5,-280.5 1041.5,-299.5"/>
<text text-anchor="middle" x="973" y="-287.5" font-family="Helvetica,sans-Serif" font-size="10.00">AssetManager/Asset.hpp</text>
</a>
</g>
</g>
<!-- Node1&#45;&gt;Node3 -->
<g id="edge2_Node000001_Node000003" class="edge">
<title>Node1&#45;&gt;Node3</title>
<g id="a_edge2_Node000001_Node000003"><a xlink:title=" ">
<path fill="none" stroke="#63b8ff" d="M1042.48,-461.84C1031.18,-434.06 995.68,-346.77 980.26,-308.86"/>
<polygon fill="#63b8ff" stroke="#63b8ff" points="983.5,-307.52 976.49,-299.57 977.01,-310.15 983.5,-307.52"/>
</a>
</g>
</g>
<!-- Node4 -->
<g id="Node000004" class="node">
<title>Node4</title>
<g id="a_Node000004"><a xlink:href="_registry_8hpp.html" target="_top" xlink:title=" ">
<polygon fill="white" stroke="#666666" points="1650,-239 1552,-239 1552,-220 1650,-220 1650,-239"/>
<text text-anchor="middle" x="1601" y="-227" font-family="Helvetica,sans-Serif" font-size="10.00">ECS/Registry.hpp</text>
</a>
</g>
</g>
<!-- Node1&#45;&gt;Node4 -->
<g id="edge63_Node000001_Node000004" class="edge">
<title>Node1&#45;&gt;Node4</title>
<g id="a_edge63_Node000001_Node000004"><a xlink:title=" ">
<path fill="none" stroke="#63b8ff" d="M1119.32,-470.33C1314.9,-467.92 1838.66,-448.03 1905,-305 1910.61,-292.9 1913.72,-285.09 1905,-275 1874.04,-239.18 1739.82,-231.64 1660.45,-230.38"/>
<polygon fill="#63b8ff" stroke="#63b8ff" points="1660.15,-226.88 1650.11,-230.25 1660.06,-233.88 1660.15,-226.88"/>
</a>
</g>
</g>
<!-- Node18 -->
<g id="Node000018" class="node">
<title>Node18</title>
<g id="a_Node000018"><a xlink:href="_cube_map_8hpp.html" target="_top" xlink:title=" ">
<polygon fill="white" stroke="#666666" points="550,-365.5 394,-365.5 394,-346.5 550,-346.5 550,-365.5"/>
<text text-anchor="middle" x="472" y="-353.5" font-family="Helvetica,sans-Serif" font-size="10.00">AssetManager/CubeMap.hpp</text>
</a>
</g>
</g>
<!-- Node1&#45;&gt;Node18 -->
<g id="edge24_Node000001_Node000018" class="edge">
<title>Node1&#45;&gt;Node18</title>
<g id="a_edge24_Node000001_Node000018"><a xlink:title=" ">
<path fill="none" stroke="#63b8ff" d="M972.94,-465.22C900.71,-459.09 787.34,-447.03 691,-426 623.04,-411.16 545.96,-384.49 503.78,-369.01"/>
<polygon fill="#63b8ff" stroke="#63b8ff" points="504.93,-365.7 494.34,-365.52 502.5,-372.27 504.93,-365.7"/>
</a>
</g>
</g>
<!-- Node23 -->
<g id="Node000023" class="node">
<title>Node23</title>
<g id="a_Node000023"><a xlink:href="_material_8hpp.html" target="_top" xlink:title=" ">
<polygon fill="white" stroke="#666666" points="378.5,-426 227.5,-426 227.5,-407 378.5,-407 378.5,-426"/>
<text text-anchor="middle" x="303" y="-414" font-family="Helvetica,sans-Serif" font-size="10.00">AssetManager/Material.hpp</text>
</a>
</g>
</g>
<!-- Node1&#45;&gt;Node23 -->
<g id="edge31_Node000001_Node000023" class="edge">
<title>Node1&#45;&gt;Node23</title>
<g id="a_edge31_Node000001_Node000023"><a xlink:title=" ">
<path fill="none" stroke="#63b8ff" d="M972.72,-465.27C834.63,-455.42 536.52,-434.16 389.11,-423.64"/>
<polygon fill="#63b8ff" stroke="#63b8ff" points="388.99,-420.12 378.76,-422.9 388.49,-427.11 388.99,-420.12"/>
</a>
</g>
</g>
<!-- Node32 -->
<g id="Node000032" class="node">
<title>Node32</title>
<g id="a_Node000032"><a xlink:href="_shader_8hpp.html" target="_top" xlink:title=" ">
<polygon fill="white" stroke="#666666" points="711.5,-365.5 568.5,-365.5 568.5,-346.5 711.5,-346.5 711.5,-365.5"/>
<text text-anchor="middle" x="640" y="-353.5" font-family="Helvetica,sans-Serif" font-size="10.00">AssetManager/Shader.hpp</text>
</a>
</g>
</g>
<!-- Node1&#45;&gt;Node32 -->
<g id="edge46_Node000001_Node000032" class="edge">
<title>Node1&#45;&gt;Node32</title>
<g id="a_edge46_Node000001_Node000032"><a xlink:title=" ">
<path fill="none" stroke="#63b8ff" d="M972.82,-464.86C892.45,-457.87 769.07,-444.57 726,-426 697.56,-413.74 670.72,-389.41 654.81,-373.17"/>
<polygon fill="#63b8ff" stroke="#63b8ff" points="656.97,-370.36 647.54,-365.52 651.89,-375.18 656.97,-370.36"/>
</a>
</g>
</g>
<!-- Node33 -->
<g id="Node000033" class="node">
<title>Node33</title>
<g id="a_Node000033"><a xlink:href="_assert_8hpp.html" target="_top" xlink:title=" ">
<polygon fill="white" stroke="#666666" points="1818,-365.5 1702,-365.5 1702,-346.5 1818,-346.5 1818,-365.5"/>
<text text-anchor="middle" x="1760" y="-353.5" font-family="Helvetica,sans-Serif" font-size="10.00">Common/Assert.hpp</text>
</a>
</g>
</g>
<!-- Node1&#45;&gt;Node33 -->
<g id="edge49_Node000001_Node000033" class="edge">
<title>Node1&#45;&gt;Node33</title>
<g id="a_edge49_Node000001_Node000033"><a xlink:title=" ">
<path fill="none" stroke="#63b8ff" d="M1119.14,-466.55C1207.52,-461 1360.51,-448.9 1490,-426 1574.19,-411.11 1670.81,-383.9 1722.58,-368.47"/>
<polygon fill="#63b8ff" stroke="#63b8ff" points="1723.74,-371.77 1732.32,-365.55 1721.73,-365.07 1723.74,-371.77"/>
</a>
</g>
</g>
<!-- Node37 -->
<g id="Node000037" class="node">
<title>Node37</title>
<g id="a_Node000037"><a xlink:href="_types_8hpp.html" target="_top" xlink:title=" ">
<polygon fill="white" stroke="#666666" points="1145.5,-365.5 1032.5,-365.5 1032.5,-346.5 1145.5,-346.5 1145.5,-365.5"/>
<text text-anchor="middle" x="1089" y="-353.5" font-family="Helvetica,sans-Serif" font-size="10.00">Common/Types.hpp</text>
</a>
</g>
</g>
<!-- Node1&#45;&gt;Node37 -->
<g id="edge53_Node000001_Node000037" class="edge">
<title>Node1&#45;&gt;Node37</title>
<g id="a_edge53_Node000001_Node000037"><a xlink:title=" ">
<path fill="none" stroke="#63b8ff" d="M1049.23,-461.97C1056.17,-443.65 1072.64,-400.18 1082.06,-375.31"/>
<polygon fill="#63b8ff" stroke="#63b8ff" points="1085.46,-376.22 1085.73,-365.63 1078.91,-373.74 1085.46,-376.22"/>
</a>
</g>
</g>
<!-- Node38 -->
<g id="Node000038" class="node">
<title>Node38</title>
<g id="a_Node000038"><a xlink:href="_asset_component_8hpp.html" target="_top" xlink:title=" ">
<polygon fill="white" stroke="#666666" points="1334,-371 1164,-371 1164,-341 1334,-341 1334,-371"/>
<text text-anchor="start" x="1172" y="-359" font-family="Helvetica,sans-Serif" font-size="10.00">Components/AssetComponents</text>
<text text-anchor="middle" x="1249" y="-348" font-family="Helvetica,sans-Serif" font-size="10.00">/AssetComponent.hpp</text>
</a>
</g>
</g>
<!-- Node1&#45;&gt;Node38 -->
<g id="edge55_Node000001_Node000038" class="edge">
<title>Node1&#45;&gt;Node38</title>
<g id="a_edge55_Node000001_Node000038"><a xlink:title=" ">
<path fill="none" stroke="#63b8ff" d="M1061.26,-461.97C1093.69,-443.83 1170.18,-401.07 1214.88,-376.08"/>
<polygon fill="#63b8ff" stroke="#63b8ff" points="1216.62,-379.12 1223.64,-371.18 1213.2,-373.01 1216.62,-379.12"/>
</a>
</g>
</g>
<!-- Node39 -->
<g id="Node000039" class="node">
<title>Node39</title>
<g id="a_Node000039"><a xlink:href="_asset_loader_8hpp.html" target="_top" xlink:title=" ">
<polygon fill="white" stroke="#666666" points="1535,-305 1365,-305 1365,-275 1535,-275 1535,-305"/>
<text text-anchor="start" x="1373" y="-293" font-family="Helvetica,sans-Serif" font-size="10.00">Components/AssetComponents</text>
<text text-anchor="middle" x="1450" y="-282" font-family="Helvetica,sans-Serif" font-size="10.00">/AssetLoader.hpp</text>
</a>
</g>
</g>
<!-- Node1&#45;&gt;Node39 -->
<g id="edge58_Node000001_Node000039" class="edge">
<title>Node1&#45;&gt;Node39</title>
<g id="a_edge58_Node000001_Node000039"><a xlink:title=" ">
<path fill="none" stroke="#63b8ff" d="M1119.37,-467.29C1227.75,-461.8 1420.25,-448.93 1442,-426 1469.92,-396.57 1463.8,-345.37 1456.86,-315.19"/>
<polygon fill="#63b8ff" stroke="#63b8ff" points="1460.16,-313.95 1454.34,-305.1 1453.37,-315.66 1460.16,-313.95"/>
</a>
</g>
</g>
<!-- Node40 -->
<g id="Node000040" class="node">
<title>Node40</title>
<g id="a_Node000040"><a xlink:href="_directory_component_8hpp.html" target="_top" xlink:title=" ">
<polygon fill="white" stroke="#666666" points="938,-371 768,-371 768,-341 938,-341 938,-371"/>
<text text-anchor="start" x="776" y="-359" font-family="Helvetica,sans-Serif" font-size="10.00">Components/AssetComponents</text>
<text text-anchor="middle" x="853" y="-348" font-family="Helvetica,sans-Serif" font-size="10.00">/DirectoryComponent.hpp</text>
</a>
</g>
</g>
<!-- Node1&#45;&gt;Node40 -->
<g id="edge59_Node000001_Node000040" class="edge">
<title>Node1&#45;&gt;Node40</title>
<g id="a_edge59_Node000001_Node000040"><a xlink:title=" ">
<path fill="none" stroke="#63b8ff" d="M1031.49,-461.97C1000.78,-443.91 928.54,-401.43 885.98,-376.39"/>
<polygon fill="#63b8ff" stroke="#63b8ff" points="887.51,-373.23 877.11,-371.18 883.96,-379.27 887.51,-373.23"/>
</a>
</g>
</g>
<!-- Node41 -->
<g id="Node000041" class="node">
<title>Node41</title>
<g id="a_Node000041"><a xlink:href="_asset_utils_8hpp.html" target="_top" xlink:title=" ">
<polygon fill="white" stroke="#666666" points="1433.5,-426 1320.5,-426 1320.5,-407 1433.5,-407 1433.5,-426"/>
<text text-anchor="middle" x="1377" y="-414" font-family="Helvetica,sans-Serif" font-size="10.00">Utils/AssetUtils.hpp</text>
</a>
</g>
</g>
<!-- Node1&#45;&gt;Node41 -->
<g id="edge64_Node000001_Node000041" class="edge">
<title>Node1&#45;&gt;Node41</title>
<g id="a_edge64_Node000001_Node000041"><a xlink:title=" ">
<path fill="none" stroke="#63b8ff" d="M1099.18,-461.98C1157.61,-452.63 1251.39,-437.61 1313.59,-427.65"/>
<polygon fill="#63b8ff" stroke="#63b8ff" points="1314.36,-431.08 1323.68,-426.04 1313.25,-424.16 1314.36,-431.08"/>
</a>
</g>
</g>
<!-- Node3&#45;&gt;Node2 -->
<g id="edge3_Node000003_Node000002" class="edge">
<title>Node3&#45;&gt;Node2</title>
<g id="a_edge3_Node000003_Node000002"><a xlink:title=" ">
<path fill="none" stroke="#63b8ff" d="M964.88,-280.37C956.6,-271.55 943.53,-257.66 933.3,-246.77"/>
<polygon fill="#63b8ff" stroke="#63b8ff" points="935.55,-244.06 926.15,-239.17 930.45,-248.85 935.55,-244.06"/>
</a>
</g>
</g>
<!-- Node3&#45;&gt;Node4 -->
<g id="edge4_Node000003_Node000004" class="edge">
<title>Node3&#45;&gt;Node4</title>
<g id="a_edge4_Node000003_Node000004"><a xlink:title=" ">
<path fill="none" stroke="#63b8ff" d="M1041.7,-282.6C1165.74,-271.05 1425.02,-246.89 1541.77,-236.02"/>
<polygon fill="#63b8ff" stroke="#63b8ff" points="1542.31,-239.48 1551.95,-235.07 1541.67,-232.51 1542.31,-239.48"/>
</a>
</g>
</g>
<!-- Node5 -->
<g id="Node000005" class="node">
<title>Node5</title>
<g id="a_Node000005"><a xlink:title=" ">
<polygon fill="#e0e0e0" stroke="#999999" points="1967,-129 1881,-129 1881,-110 1967,-110 1967,-129"/>
<text text-anchor="middle" x="1924" y="-117" font-family="Helvetica,sans-Serif" font-size="10.00">unordered_set</text>
</a>
</g>
</g>
<!-- Node4&#45;&gt;Node5 -->
<g id="edge5_Node000004_Node000005" class="edge">
<title>Node4&#45;&gt;Node5</title>
<g id="a_edge5_Node000004_Node000005"><a xlink:title=" ">
<path fill="none" stroke="#63b8ff" d="M1650.18,-227.55C1726.3,-225.09 1867.77,-216.18 1905,-184 1917.78,-172.96 1922.15,-153.7 1923.55,-139.29"/>
<polygon fill="#63b8ff" stroke="#63b8ff" points="1927.06,-139.19 1924.15,-129.01 1920.08,-138.79 1927.06,-139.19"/>
</a>
</g>
</g>
<!-- Node6 -->
<g id="Node000006" class="node">
<title>Node6</title>
<g id="a_Node000006"><a xlink:href="_logger_8hpp.html" target="_top" xlink:title=" ">
<polygon fill="white" stroke="#666666" points="1360.5,-184 1243.5,-184 1243.5,-165 1360.5,-165 1360.5,-184"/>
<text text-anchor="middle" x="1302" y="-172" font-family="Helvetica,sans-Serif" font-size="10.00">Common/Logger.hpp</text>
</a>
</g>
</g>
<!-- Node4&#45;&gt;Node6 -->
<g id="edge6_Node000004_Node000006" class="edge">
<title>Node4&#45;&gt;Node6</title>
<g id="a_edge6_Node000004_Node000006"><a xlink:title=" ">
<path fill="none" stroke="#63b8ff" d="M1552.96,-219.98C1500.59,-210.7 1416.76,-195.84 1360.57,-185.88"/>
<polygon fill="#63b8ff" stroke="#63b8ff" points="1360.87,-182.38 1350.42,-184.08 1359.65,-189.27 1360.87,-182.38"/>
</a>
</g>
</g>
<!-- Node9 -->
<g id="Node000009" class="node">
<title>Node9</title>
<g id="a_Node000009"><a xlink:href="_entity_8hpp.html" target="_top" xlink:title=" ">
<polygon fill="white" stroke="#666666" points="1588,-74 1502,-74 1502,-55 1588,-55 1588,-74"/>
<text text-anchor="middle" x="1545" y="-62" font-family="Helvetica,sans-Serif" font-size="10.00">ECS/Entity.hpp</text>
</a>
</g>
</g>
<!-- Node4&#45;&gt;Node9 -->
<g id="edge9_Node000004_Node000009" class="edge">
<title>Node4&#45;&gt;Node9</title>
<g id="a_edge9_Node000004_Node000009"><a xlink:title=" ">
<path fill="none" stroke="#63b8ff" d="M1594.28,-219.78C1587.93,-211.13 1578.57,-197.3 1573,-184 1558.89,-150.32 1551.07,-108.14 1547.48,-84.27"/>
<polygon fill="#63b8ff" stroke="#63b8ff" points="1550.91,-83.54 1546.05,-74.13 1543.98,-84.52 1550.91,-83.54"/>
</a>
</g>
</g>
<!-- Node11 -->
<g id="Node000011" class="node">
<title>Node11</title>
<g id="a_Node000011"><a xlink:href="_entity_hierarchy_8hpp.html" target="_top" xlink:title=" ">
<polygon fill="white" stroke="#666666" points="1716,-184 1582,-184 1582,-165 1716,-165 1716,-184"/>
<text text-anchor="middle" x="1649" y="-172" font-family="Helvetica,sans-Serif" font-size="10.00">ECS/EntityHierarchy.hpp</text>
</a>
</g>
</g>
<!-- Node4&#45;&gt;Node11 -->
<g id="edge11_Node000004_Node000011" class="edge">
<title>Node4&#45;&gt;Node11</title>
<g id="a_edge11_Node000004_Node000011"><a xlink:title=" ">
<path fill="none" stroke="#63b8ff" d="M1608.93,-219.75C1615.85,-212.11 1626.07,-200.82 1634.45,-191.56"/>
<polygon fill="#63b8ff" stroke="#63b8ff" points="1637.1,-193.85 1641.22,-184.09 1631.91,-189.15 1637.1,-193.85"/>
</a>
</g>
</g>
<!-- Node15 -->
<g id="Node000015" class="node">
<title>Node15</title>
<g id="a_Node000015"><a xlink:href="_entity_provider_8hpp.html" target="_top" xlink:title="Manages a pool of unused entity identifiers and provides mechanisms for requesting and removing them.">
<polygon fill="white" stroke="#666666" points="1523,-129 1395,-129 1395,-110 1523,-110 1523,-129"/>
<text text-anchor="middle" x="1459" y="-117" font-family="Helvetica,sans-Serif" font-size="10.00">ECS/EntityProvider.hpp</text>
</a>
</g>
</g>
<!-- Node4&#45;&gt;Node15 -->
<g id="edge17_Node000004_Node000015" class="edge">
<title>Node4&#45;&gt;Node15</title>
<g id="a_edge17_Node000004_Node000015"><a xlink:title=" ">
<path fill="none" stroke="#63b8ff" d="M1551.87,-224.04C1500.73,-218.27 1425.66,-206.2 1408,-184 1394.41,-166.92 1415.75,-147.35 1434.84,-134.5"/>
<polygon fill="#63b8ff" stroke="#63b8ff" points="1436.76,-137.43 1443.32,-129.11 1433,-131.52 1436.76,-137.43"/>
</a>
</g>
</g>
<!-- Node16 -->
<g id="Node000016" class="node">
<title>Node16</title>
<g id="a_Node000016"><a xlink:href="_singleton_component_8hpp.html" target="_top" xlink:title=" ">
<polygon fill="white" stroke="#666666" points="1895.5,-184 1734.5,-184 1734.5,-165 1895.5,-165 1895.5,-184"/>
<text text-anchor="middle" x="1815" y="-172" font-family="Helvetica,sans-Serif" font-size="10.00">ECS/SingletonComponent.hpp</text>
</a>
</g>
</g>
<!-- Node4&#45;&gt;Node16 -->
<g id="edge21_Node000004_Node000016" class="edge">
<title>Node4&#45;&gt;Node16</title>
<g id="a_edge21_Node000004_Node000016"><a xlink:title=" ">
<path fill="none" stroke="#63b8ff" d="M1635.38,-219.98C1672.09,-210.89 1730.38,-196.46 1770.55,-186.51"/>
<polygon fill="#63b8ff" stroke="#63b8ff" points="1771.48,-189.88 1780.35,-184.08 1769.8,-183.09 1771.48,-189.88"/>
</a>
</g>
</g>
<!-- Node17 -->
<g id="Node000017" class="node">
<title>Node17</title>
<g id="a_Node000017"><a xlink:href="_sparse_set_8hpp.html" target="_top" xlink:title=" ">
<polygon fill="white" stroke="#666666" points="1525,-184 1417,-184 1417,-165 1525,-165 1525,-184"/>
<text text-anchor="middle" x="1471" y="-172" font-family="Helvetica,sans-Serif" font-size="10.00">ECS/SparseSet.hpp</text>
</a>
</g>
</g>
<!-- Node4&#45;&gt;Node17 -->
<g id="edge22_Node000004_Node000017" class="edge">
<title>Node4&#45;&gt;Node17</title>
<g id="a_edge22_Node000004_Node000017"><a xlink:title=" ">
<path fill="none" stroke="#63b8ff" d="M1580.11,-219.98C1558.92,-211.34 1525.87,-197.87 1501.7,-188.02"/>
<polygon fill="#63b8ff" stroke="#63b8ff" points="1502.85,-184.7 1492.27,-184.17 1500.21,-191.19 1502.85,-184.7"/>
</a>
</g>
</g>
<!-- Node7 -->
<g id="Node000007" class="node">
<title>Node7</title>
<g id="a_Node000007"><a xlink:title=" ">
<polygon fill="#e0e0e0" stroke="#999999" points="798,-129 750,-129 750,-110 798,-110 798,-129"/>
<text text-anchor="middle" x="774" y="-117" font-family="Helvetica,sans-Serif" font-size="10.00">mutex</text>
</a>
</g>
</g>
<!-- Node6&#45;&gt;Node7 -->
<g id="edge7_Node000006_Node000007" class="edge">
<title>Node6&#45;&gt;Node7</title>
<g id="a_edge7_Node000006_Node000007"><a xlink:title=" ">
<path fill="none" stroke="#63b8ff" d="M1243.48,-167.63C1132.92,-156.53 896.54,-132.8 808.23,-123.94"/>
<polygon fill="#63b8ff" stroke="#63b8ff" points="808.51,-120.45 798.21,-122.93 807.81,-127.41 808.51,-120.45"/>
</a>
</g>
</g>
<!-- Node8 -->
<g id="Node000008" class="node">
<title>Node8</title>
<g id="a_Node000008"><a xlink:title=" ">
<polygon fill="#e0e0e0" stroke="#999999" points="1383.5,-74 1336.5,-74 1336.5,-55 1383.5,-55 1383.5,-74"/>
<text text-anchor="middle" x="1360" y="-62" font-family="Helvetica,sans-Serif" font-size="10.00">queue</text>
</a>
</g>
</g>
<!-- Node6&#45;&gt;Node8 -->
<g id="edge8_Node000006_Node000008" class="edge">
<title>Node6&#45;&gt;Node8</title>
<g id="a_edge8_Node000006_Node000008"><a xlink:title=" ">
<path fill="none" stroke="#63b8ff" d="M1306.75,-164.66C1316.31,-146.85 1338.05,-106.37 1350.6,-83.01"/>
<polygon fill="#63b8ff" stroke="#63b8ff" points="1353.7,-84.62 1355.35,-74.16 1347.54,-81.31 1353.7,-84.62"/>
</a>
</g>
</g>
<!-- Node10 -->
<g id="Node000010" class="node">
<title>Node10</title>
<g id="a_Node000010"><a xlink:title=" ">
<polygon fill="#e0e0e0" stroke="#999999" points="1530.5,-19 1477.5,-19 1477.5,0 1530.5,0 1530.5,-19"/>
<text text-anchor="middle" x="1504" y="-7" font-family="Helvetica,sans-Serif" font-size="10.00">stdlib.h</text>
</a>
</g>
</g>
<!-- Node9&#45;&gt;Node10 -->
<g id="edge10_Node000009_Node000010" class="edge">
<title>Node9&#45;&gt;Node10</title>
<g id="a_edge10_Node000009_Node000010"><a xlink:title=" ">
<path fill="none" stroke="#63b8ff" d="M1538.23,-54.75C1532.44,-47.26 1523.94,-36.28 1516.86,-27.13"/>
<polygon fill="#63b8ff" stroke="#63b8ff" points="1519.53,-24.86 1510.64,-19.09 1513.99,-29.14 1519.53,-24.86"/>
</a>
</g>
</g>
<!-- Node11&#45;&gt;Node5 -->
<g id="edge15_Node000011_Node000005" class="edge">
<title>Node11&#45;&gt;Node5</title>
<g id="a_edge15_Node000011_Node000005"><a xlink:title=" ">
<path fill="none" stroke="#63b8ff" d="M1693.18,-164.98C1741.58,-155.66 1819.18,-140.7 1870.86,-130.74"/>
<polygon fill="#63b8ff" stroke="#63b8ff" points="1871.68,-134.15 1880.83,-128.82 1870.35,-127.28 1871.68,-134.15"/>
</a>
</g>
</g>
<!-- Node11&#45;&gt;Node9 -->
<g id="edge16_Node000011_Node000009" class="edge">
<title>Node11&#45;&gt;Node9</title>
<g id="a_edge16_Node000011_Node000009"><a xlink:title=" ">
<path fill="none" stroke="#63b8ff" d="M1640.49,-164.66C1622.96,-146.46 1582.6,-104.55 1560.38,-81.47"/>
<polygon fill="#63b8ff" stroke="#63b8ff" points="1562.8,-78.93 1553.34,-74.16 1557.75,-83.79 1562.8,-78.93"/>
</a>
</g>
</g>
<!-- Node12 -->
<g id="Node000012" class="node">
<title>Node12</title>
<g id="a_Node000012"><a xlink:title=" ">
<polygon fill="#e0e0e0" stroke="#999999" points="1682.5,-129 1617.5,-129 1617.5,-110 1682.5,-110 1682.5,-129"/>
<text text-anchor="middle" x="1650" y="-117" font-family="Helvetica,sans-Serif" font-size="10.00">functional</text>
</a>
</g>
</g>
<!-- Node11&#45;&gt;Node12 -->
<g id="edge12_Node000011_Node000012" class="edge">
<title>Node11&#45;&gt;Node12</title>
<g id="a_edge12_Node000011_Node000012"><a xlink:title=" ">
<path fill="none" stroke="#63b8ff" d="M1649.17,-164.75C1649.3,-157.8 1649.48,-147.85 1649.65,-139.13"/>
<polygon fill="#63b8ff" stroke="#63b8ff" points="1653.15,-139.15 1649.84,-129.09 1646.15,-139.02 1653.15,-139.15"/>
</a>
</g>
</g>
<!-- Node13 -->
<g id="Node000013" class="node">
<title>Node13</title>
<g id="a_Node000013"><a xlink:title=" ">
<polygon fill="#e0e0e0" stroke="#999999" points="1751,-129 1701,-129 1701,-110 1751,-110 1751,-129"/>
<text text-anchor="middle" x="1726" y="-117" font-family="Helvetica,sans-Serif" font-size="10.00">ranges</text>
</a>
</g>
</g>
<!-- Node11&#45;&gt;Node13 -->
<g id="edge13_Node000011_Node000013" class="edge">
<title>Node11&#45;&gt;Node13</title>
<g id="a_edge13_Node000011_Node000013"><a xlink:title=" ">
<path fill="none" stroke="#63b8ff" d="M1661.37,-164.98C1673.09,-156.92 1690.92,-144.65 1704.89,-135.03"/>
<polygon fill="#63b8ff" stroke="#63b8ff" points="1707.15,-137.72 1713.4,-129.17 1703.18,-131.96 1707.15,-137.72"/>
</a>
</g>
</g>
<!-- Node14 -->
<g id="Node000014" class="node">
<title>Node14</title>
<g id="a_Node000014"><a xlink:title=" ">
<polygon fill="#e0e0e0" stroke="#999999" points="1862.5,-129 1769.5,-129 1769.5,-110 1862.5,-110 1862.5,-129"/>
<text text-anchor="middle" x="1816" y="-117" font-family="Helvetica,sans-Serif" font-size="10.00">unordered_map</text>
</a>
</g>
</g>
<!-- Node11&#45;&gt;Node14 -->
<g id="edge14_Node000011_Node000014" class="edge">
<title>Node11&#45;&gt;Node14</title>
<g id="a_edge14_Node000011_Node000014"><a xlink:title=" ">
<path fill="none" stroke="#63b8ff" d="M1675.83,-164.98C1703.87,-156.09 1748.05,-142.07 1779.3,-132.15"/>
<polygon fill="#63b8ff" stroke="#63b8ff" points="1780.49,-135.44 1788.96,-129.08 1778.37,-128.77 1780.49,-135.44"/>
</a>
</g>
</g>
<!-- Node15&#45;&gt;Node8 -->
<g id="edge19_Node000015_Node000008" class="edge">
<title>Node15&#45;&gt;Node8</title>
<g id="a_edge19_Node000015_Node000008"><a xlink:title=" ">
<path fill="none" stroke="#63b8ff" d="M1443.09,-109.98C1427.45,-101.61 1403.34,-88.7 1385.12,-78.95"/>
<polygon fill="#63b8ff" stroke="#63b8ff" points="1386.66,-75.8 1376.2,-74.17 1383.36,-81.98 1386.66,-75.8"/>
</a>
</g>
</g>
<!-- Node15&#45;&gt;Node9 -->
<g id="edge20_Node000015_Node000009" class="edge">
<title>Node15&#45;&gt;Node9</title>
<g id="a_edge20_Node000015_Node000009"><a xlink:title=" ">
<path fill="none" stroke="#63b8ff" d="M1472.82,-109.98C1486.15,-101.77 1506.58,-89.18 1522.31,-79.49"/>
<polygon fill="#63b8ff" stroke="#63b8ff" points="1524.25,-82.4 1530.93,-74.17 1520.58,-76.44 1524.25,-82.4"/>
</a>
</g>
</g>
<!-- Node15&#45;&gt;Node10 -->
<g id="edge18_Node000015_Node000010" class="edge">
<title>Node15&#45;&gt;Node10</title>
<g id="a_edge18_Node000015_Node000010"><a xlink:title=" ">
<path fill="none" stroke="#63b8ff" d="M1462.68,-109.66C1470.04,-92.01 1486.67,-52.09 1496.44,-28.64"/>
<polygon fill="#63b8ff" stroke="#63b8ff" points="1499.78,-29.74 1500.39,-19.16 1493.32,-27.04 1499.78,-29.74"/>
</a>
</g>
</g>
<!-- Node17&#45;&gt;Node15 -->
<g id="edge23_Node000017_Node000015" class="edge">
<title>Node17&#45;&gt;Node15</title>
<g id="a_edge23_Node000017_Node000015"><a xlink:title=" ">
<path fill="none" stroke="#63b8ff" d="M1469.02,-164.75C1467.43,-157.72 1465.14,-147.62 1463.15,-138.84"/>
<polygon fill="#63b8ff" stroke="#63b8ff" points="1466.57,-138.07 1460.94,-129.09 1459.74,-139.62 1466.57,-138.07"/>
</a>
</g>
</g>
<!-- Node18&#45;&gt;Node3 -->
<g id="edge28_Node000018_Node000003" class="edge">
<title>Node18&#45;&gt;Node3</title>
<g id="a_edge28_Node000018_Node000003"><a xlink:title=" ">
<path fill="none" stroke="#63b8ff" d="M523.01,-346.45C534.82,-344.56 547.34,-342.64 559,-341 675.48,-324.6 810.86,-308.88 894.24,-299.58"/>
<polygon fill="#63b8ff" stroke="#63b8ff" points="894.85,-303.03 904.4,-298.45 894.07,-296.08 894.85,-303.03"/>
</a>
</g>
</g>
<!-- Node19 -->
<g id="Node000019" class="node">
<title>Node19</title>
<g id="a_Node000019"><a xlink:title=" ">
<polygon fill="#e0e0e0" stroke="#999999" points="570.5,-299.5 499.5,-299.5 499.5,-280.5 570.5,-280.5 570.5,-299.5"/>
<text text-anchor="middle" x="535" y="-287.5" font-family="Helvetica,sans-Serif" font-size="10.00">glad/glad.h</text>
</a>
</g>
</g>
<!-- Node18&#45;&gt;Node19 -->
<g id="edge25_Node000018_Node000019" class="edge">
<title>Node18&#45;&gt;Node19</title>
<g id="a_edge25_Node000018_Node000019"><a xlink:title=" ">
<path fill="none" stroke="#63b8ff" d="M480.5,-346.37C490.3,-336.4 506.66,-319.79 518.89,-307.36"/>
<polygon fill="#63b8ff" stroke="#63b8ff" points="521.71,-309.49 526.23,-299.91 516.72,-304.58 521.71,-309.49"/>
</a>
</g>
</g>
<!-- Node20 -->
<g id="Node000020" class="node">
<title>Node20</title>
<g id="a_Node000020"><a xlink:title=" ">
<polygon fill="#e0e0e0" stroke="#999999" points="314,-239 270,-239 270,-220 314,-220 314,-239"/>
<text text-anchor="middle" x="292" y="-227" font-family="Helvetica,sans-Serif" font-size="10.00">string</text>
</a>
</g>
</g>
<!-- Node18&#45;&gt;Node20 -->
<g id="edge26_Node000018_Node000020" class="edge">
<title>Node18&#45;&gt;Node20</title>
<g id="a_edge26_Node000018_Node000020"><a xlink:title=" ">
<path fill="none" stroke="#63b8ff" d="M420.67,-346.42C391.64,-339.38 356.21,-326.87 331,-305 313.81,-290.09 303.1,-265.72 297.34,-248.94"/>
<polygon fill="#63b8ff" stroke="#63b8ff" points="300.61,-247.66 294.26,-239.18 293.94,-249.77 300.61,-247.66"/>
</a>
</g>
</g>
<!-- Node21 -->
<g id="Node000021" class="node">
<title>Node21</title>
<g id="a_Node000021"><a xlink:title=" ">
<polygon fill="#e0e0e0" stroke="#999999" points="635.5,-299.5 588.5,-299.5 588.5,-280.5 635.5,-280.5 635.5,-299.5"/>
<text text-anchor="middle" x="612" y="-287.5" font-family="Helvetica,sans-Serif" font-size="10.00">vector</text>
</a>
</g>
</g>
<!-- Node18&#45;&gt;Node21 -->
<g id="edge27_Node000018_Node000021" class="edge">
<title>Node18&#45;&gt;Node21</title>
<g id="a_edge27_Node000018_Node000021"><a xlink:title=" ">
<path fill="none" stroke="#63b8ff" d="M490.88,-346.37C514.78,-335.44 556.17,-316.52 583.82,-303.88"/>
<polygon fill="#63b8ff" stroke="#63b8ff" points="585.33,-307.04 592.97,-299.7 582.42,-300.67 585.33,-307.04"/>
</a>
</g>
</g>
<!-- Node22 -->
<g id="Node000022" class="node">
<title>Node22</title>
<g id="a_Node000022"><a xlink:href="_image_8hpp.html" target="_top" xlink:title=" ">
<polygon fill="white" stroke="#666666" points="481.5,-299.5 340.5,-299.5 340.5,-280.5 481.5,-280.5 481.5,-299.5"/>
<text text-anchor="middle" x="411" y="-287.5" font-family="Helvetica,sans-Serif" font-size="10.00">AssetManager/Image.hpp</text>
</a>
</g>
</g>
<!-- Node18&#45;&gt;Node22 -->
<g id="edge29_Node000018_Node000022" class="edge">
<title>Node18&#45;&gt;Node22</title>
<g id="a_edge29_Node000018_Node000022"><a xlink:title=" ">
<path fill="none" stroke="#63b8ff" d="M463.77,-346.37C454.28,-336.4 438.44,-319.79 426.59,-307.36"/>
<polygon fill="#63b8ff" stroke="#63b8ff" points="428.92,-304.73 419.49,-299.91 423.85,-309.56 428.92,-304.73"/>
</a>
</g>
</g>
<!-- Node22&#45;&gt;Node2 -->
<g id="edge30_Node000022_Node000002" class="edge">
<title>Node22&#45;&gt;Node2</title>
<g id="a_edge30_Node000022_Node000002"><a xlink:title=" ">
<path fill="none" stroke="#63b8ff" d="M456.03,-280.44C467.11,-278.5 478.97,-276.55 490,-275 629.37,-255.43 795.4,-240.56 873.37,-234.08"/>
<polygon fill="#63b8ff" stroke="#63b8ff" points="874.1,-237.53 883.78,-233.22 873.52,-230.55 874.1,-237.53"/>
</a>
</g>
</g>
<!-- Node23&#45;&gt;Node3 -->
<g id="edge32_Node000023_Node000003" class="edge">
<title>Node23&#45;&gt;Node3</title>
<g id="a_edge32_Node000023_Node000003"><a xlink:title=" ">
<path fill="none" stroke="#63b8ff" d="M378.63,-414.96C539.2,-413.15 903.1,-405.26 947,-371 965.58,-356.5 971.07,-328.48 972.58,-309.75"/>
<polygon fill="#63b8ff" stroke="#63b8ff" points="976.08,-309.9 973.09,-299.74 969.09,-309.55 976.08,-309.9"/>
</a>
</g>
</g>
<!-- Node24 -->
<g id="Node000024" class="node">
<title>Node24</title>
<g id="a_Node000024"><a xlink:href="_texture_8hpp.html" target="_top" xlink:title=" ">
<polygon fill="white" stroke="#666666" points="376,-365.5 230,-365.5 230,-346.5 376,-346.5 376,-365.5"/>
<text text-anchor="middle" x="303" y="-353.5" font-family="Helvetica,sans-Serif" font-size="10.00">AssetManager/Texture.hpp</text>
</a>
</g>
</g>
<!-- Node23&#45;&gt;Node24 -->
<g id="edge33_Node000023_Node000024" class="edge">
<title>Node23&#45;&gt;Node24</title>
<g id="a_edge33_Node000023_Node000024"><a xlink:title=" ">
<path fill="none" stroke="#63b8ff" d="M303,-406.87C303,-398.75 303,-386.31 303,-375.89"/>
<polygon fill="#63b8ff" stroke="#63b8ff" points="306.5,-375.67 303,-365.67 299.5,-375.67 306.5,-375.67"/>
</a>
</g>
</g>
<!-- Node25 -->
<g id="Node000025" class="node">
<title>Node25</title>
<g id="a_Node000025"><a xlink:title=" ">
<polygon fill="#e0e0e0" stroke="#999999" points="284,-299.5 206,-299.5 206,-280.5 284,-280.5 284,-299.5"/>
<text text-anchor="middle" x="245" y="-287.5" font-family="Helvetica,sans-Serif" font-size="10.00">glm/glm.hpp</text>
</a>
</g>
</g>
<!-- Node23&#45;&gt;Node25 -->
<g id="edge45_Node000023_Node000025" class="edge">
<title>Node23&#45;&gt;Node25</title>
<g id="a_edge45_Node000023_Node000025"><a xlink:title=" ">
<path fill="none" stroke="#63b8ff" d="M270.79,-406.92C252.75,-400.29 231.77,-389.09 221,-371 209.24,-351.23 221.27,-325.25 232.12,-308.34"/>
<polygon fill="#63b8ff" stroke="#63b8ff" points="235.09,-310.2 237.87,-299.98 229.32,-306.23 235.09,-310.2"/>
</a>
</g>
</g>
<!-- Node26 -->
<g id="Node000026" class="node">
<title>Node26</title>
<g id="a_Node000026"><a xlink:href="_instance_counter_8hpp.html" target="_top" xlink:title=" ">
<polygon fill="white" stroke="#666666" points="174,-365.5 10,-365.5 10,-346.5 174,-346.5 174,-365.5"/>
<text text-anchor="middle" x="92" y="-353.5" font-family="Helvetica,sans-Serif" font-size="10.00">Common/InstanceCounter.hpp</text>
</a>
</g>
</g>
<!-- Node23&#45;&gt;Node26 -->
<g id="edge37_Node000023_Node000026" class="edge">
<title>Node23&#45;&gt;Node26</title>
<g id="a_edge37_Node000023_Node000026"><a xlink:title=" ">
<path fill="none" stroke="#63b8ff" d="M272.32,-406.99C235.44,-396.77 173.43,-379.58 132.61,-368.26"/>
<polygon fill="#63b8ff" stroke="#63b8ff" points="133.29,-364.82 122.72,-365.52 131.42,-371.56 133.29,-364.82"/>
</a>
</g>
</g>
<!-- Node24&#45;&gt;Node19 -->
<g id="edge34_Node000024_Node000019" class="edge">
<title>Node24&#45;&gt;Node19</title>
<g id="a_edge34_Node000024_Node000019"><a xlink:title=" ">
<path fill="none" stroke="#63b8ff" d="M336.55,-346.46C374.07,-336.82 436.57,-320.45 490,-305 492.64,-304.24 495.35,-303.44 498.08,-302.62"/>
<polygon fill="#63b8ff" stroke="#63b8ff" points="499.38,-305.88 507.93,-299.62 497.34,-299.18 499.38,-305.88"/>
</a>
</g>
</g>
<!-- Node24&#45;&gt;Node22 -->
<g id="edge35_Node000024_Node000022" class="edge">
<title>Node24&#45;&gt;Node22</title>
<g id="a_edge35_Node000024_Node000022"><a xlink:title=" ">
<path fill="none" stroke="#63b8ff" d="M317.57,-346.37C335.52,-335.73 366.27,-317.51 387.56,-304.89"/>
<polygon fill="#63b8ff" stroke="#63b8ff" points="389.5,-307.81 396.32,-299.7 385.93,-301.79 389.5,-307.81"/>
</a>
</g>
</g>
<!-- Node24&#45;&gt;Node25 -->
<g id="edge36_Node000024_Node000025" class="edge">
<title>Node24&#45;&gt;Node25</title>
<g id="a_edge36_Node000024_Node000025"><a xlink:title=" ">
<path fill="none" stroke="#63b8ff" d="M295.18,-346.37C286.15,-336.4 271.09,-319.79 259.83,-307.36"/>
<polygon fill="#63b8ff" stroke="#63b8ff" points="262.38,-304.96 253.07,-299.91 257.19,-309.67 262.38,-304.96"/>
</a>
</g>
</g>
<!-- Node27 -->
<g id="Node000027" class="node">
<title>Node27</title>
<g id="a_Node000027"><a xlink:title=" ">
<polygon fill="#e0e0e0" stroke="#999999" points="50,-299.5 0,-299.5 0,-280.5 50,-280.5 50,-299.5"/>
<text text-anchor="middle" x="25" y="-287.5" font-family="Helvetica,sans-Serif" font-size="10.00">atomic</text>
</a>
</g>
</g>
<!-- Node26&#45;&gt;Node27 -->
<g id="edge38_Node000026_Node000027" class="edge">
<title>Node26&#45;&gt;Node27</title>
<g id="a_edge38_Node000026_Node000027"><a xlink:title=" ">
<path fill="none" stroke="#63b8ff" d="M82.96,-346.37C72.43,-336.31 54.81,-319.48 41.76,-307.01"/>
<polygon fill="#63b8ff" stroke="#63b8ff" points="43.97,-304.28 34.32,-299.91 39.14,-309.34 43.97,-304.28"/>
</a>
</g>
</g>
<!-- Node28 -->
<g id="Node000028" class="node">
<title>Node28</title>
<g id="a_Node000028"><a xlink:href="_profiler_8hpp.html" target="_top" xlink:title=" ">
<polygon fill="white" stroke="#666666" points="187.5,-299.5 68.5,-299.5 68.5,-280.5 187.5,-280.5 187.5,-299.5"/>
<text text-anchor="middle" x="128" y="-287.5" font-family="Helvetica,sans-Serif" font-size="10.00">Common/Profiler.hpp</text>
</a>
</g>
</g>
<!-- Node26&#45;&gt;Node28 -->
<g id="edge39_Node000026_Node000028" class="edge">
<title>Node26&#45;&gt;Node28</title>
<g id="a_edge39_Node000026_Node000028"><a xlink:title=" ">
<path fill="none" stroke="#63b8ff" d="M96.86,-346.37C102.25,-336.78 111.1,-321.05 117.99,-308.8"/>
<polygon fill="#63b8ff" stroke="#63b8ff" points="121.14,-310.34 122.99,-299.91 115.04,-306.91 121.14,-310.34"/>
</a>
</g>
</g>
<!-- Node28&#45;&gt;Node7 -->
<g id="edge42_Node000028_Node000007" class="edge">
<title>Node28&#45;&gt;Node7</title>
<g id="a_edge42_Node000028_Node000007"><a xlink:title=" ">
<path fill="none" stroke="#63b8ff" d="M131.07,-280.09C136.77,-265.02 150.49,-234.7 173,-220 268.11,-157.89 626.8,-129.95 739.73,-122.57"/>
<polygon fill="#63b8ff" stroke="#63b8ff" points="740.12,-126.06 749.88,-121.92 739.67,-119.07 740.12,-126.06"/>
</a>
</g>
</g>
<!-- Node28&#45;&gt;Node20 -->
<g id="edge44_Node000028_Node000020" class="edge">
<title>Node28&#45;&gt;Node20</title>
<g id="a_edge44_Node000028_Node000020"><a xlink:title=" ">
<path fill="none" stroke="#63b8ff" d="M151.85,-280.49C180.46,-270.29 228.55,-253.13 260.28,-241.81"/>
<polygon fill="#63b8ff" stroke="#63b8ff" points="261.72,-245.02 269.96,-238.36 259.37,-238.42 261.72,-245.02"/>
</a>
</g>
</g>
<!-- Node29 -->
<g id="Node000029" class="node">
<title>Node29</title>
<g id="a_Node000029"><a xlink:title=" ">
<polygon fill="#e0e0e0" stroke="#999999" points="232,-239 182,-239 182,-220 232,-220 232,-239"/>
<text text-anchor="middle" x="207" y="-227" font-family="Helvetica,sans-Serif" font-size="10.00">chrono</text>
</a>
</g>
</g>
<!-- Node28&#45;&gt;Node29 -->
<g id="edge40_Node000028_Node000029" class="edge">
<title>Node28&#45;&gt;Node29</title>
<g id="a_edge40_Node000028_Node000029"><a xlink:title=" ">
<path fill="none" stroke="#63b8ff" d="M139.66,-280.37C152.14,-271.12 172.18,-256.28 187.16,-245.19"/>
<polygon fill="#63b8ff" stroke="#63b8ff" points="189.34,-247.93 195.3,-239.17 185.18,-242.31 189.34,-247.93"/>
</a>
</g>
</g>
<!-- Node30 -->
<g id="Node000030" class="node">
<title>Node30</title>
<g id="a_Node000030"><a xlink:title=" ">
<polygon fill="#e0e0e0" stroke="#999999" points="126,-239 78,-239 78,-220 126,-220 126,-239"/>
<text text-anchor="middle" x="102" y="-227" font-family="Helvetica,sans-Serif" font-size="10.00">thread</text>
</a>
</g>
</g>
<!-- Node28&#45;&gt;Node30 -->
<g id="edge41_Node000028_Node000030" class="edge">
<title>Node28&#45;&gt;Node30</title>
<g id="a_edge41_Node000028_Node000030"><a xlink:title=" ">
<path fill="none" stroke="#63b8ff" d="M124.16,-280.37C120.44,-271.99 114.67,-259.01 109.95,-248.39"/>
<polygon fill="#63b8ff" stroke="#63b8ff" points="113.11,-246.88 105.85,-239.17 106.72,-249.73 113.11,-246.88"/>
</a>
</g>
</g>
<!-- Node31 -->
<g id="Node000031" class="node">
<title>Node31</title>
<g id="a_Node000031"><a xlink:title=" ">
<polygon fill="#e0e0e0" stroke="#999999" points="556,-239 518,-239 518,-220 556,-220 556,-239"/>
<text text-anchor="middle" x="537" y="-227" font-family="Helvetica,sans-Serif" font-size="10.00">map</text>
</a>
</g>
</g>
<!-- Node28&#45;&gt;Node31 -->
<g id="edge43_Node000028_Node000031" class="edge">
<title>Node28&#45;&gt;Node31</title>
<g id="a_edge43_Node000028_Node000031"><a xlink:title=" ">
<path fill="none" stroke="#63b8ff" d="M167.68,-280.45C177.26,-278.53 187.48,-276.59 197,-275 311.43,-255.93 448.66,-240.11 507.67,-233.64"/>
<polygon fill="#63b8ff" stroke="#63b8ff" points="508.2,-237.1 517.76,-232.54 507.44,-230.14 508.2,-237.1"/>
</a>
</g>
</g>
<!-- Node32&#45;&gt;Node2 -->
<g id="edge48_Node000032_Node000002" class="edge">
<title>Node32&#45;&gt;Node2</title>
<g id="a_edge48_Node000032_Node000002"><a xlink:title=" ">
<path fill="none" stroke="#63b8ff" d="M646.54,-346.46C659.69,-329.94 691.07,-293.57 726,-275 772.83,-250.11 833.35,-239.05 873.8,-234.19"/>
<polygon fill="#63b8ff" stroke="#63b8ff" points="874.34,-237.65 883.89,-233.06 873.56,-230.7 874.34,-237.65"/>
</a>
</g>
</g>
<!-- Node32&#45;&gt;Node19 -->
<g id="edge47_Node000032_Node000019" class="edge">
<title>Node32&#45;&gt;Node19</title>
<g id="a_edge47_Node000032_Node000019"><a xlink:title=" ">
<path fill="none" stroke="#63b8ff" d="M625.84,-346.37C608.46,-335.78 578.76,-317.67 558.07,-305.06"/>
<polygon fill="#63b8ff" stroke="#63b8ff" points="559.63,-301.92 549.27,-299.7 555.99,-307.89 559.63,-301.92"/>
</a>
</g>
</g>
<!-- Node34 -->
<g id="Node000034" class="node">
<title>Node34</title>
<g id="a_Node000034"><a xlink:title=" ">
<polygon fill="#e0e0e0" stroke="#999999" points="1895.5,-299.5 1828.5,-299.5 1828.5,-280.5 1895.5,-280.5 1895.5,-299.5"/>
<text text-anchor="middle" x="1862" y="-287.5" font-family="Helvetica,sans-Serif" font-size="10.00">fmt/core.h</text>
</a>
</g>
</g>
<!-- Node33&#45;&gt;Node34 -->
<g id="edge50_Node000033_Node000034" class="edge">
<title>Node33&#45;&gt;Node34</title>
<g id="a_edge50_Node000033_Node000034"><a xlink:title=" ">
<path fill="none" stroke="#63b8ff" d="M1773.76,-346.37C1790.64,-335.78 1819.49,-317.67 1839.59,-305.06"/>
<polygon fill="#63b8ff" stroke="#63b8ff" points="1841.53,-307.98 1848.14,-299.7 1837.81,-302.05 1841.53,-307.98"/>
</a>
</g>
</g>
<!-- Node35 -->
<g id="Node000035" class="node">
<title>Node35</title>
<g id="a_Node000035"><a xlink:title=" ">
<polygon fill="#e0e0e0" stroke="#999999" points="1810.5,-299.5 1745.5,-299.5 1745.5,-280.5 1810.5,-280.5 1810.5,-299.5"/>
<text text-anchor="middle" x="1778" y="-287.5" font-family="Helvetica,sans-Serif" font-size="10.00">exception</text>
</a>
</g>
</g>
<!-- Node33&#45;&gt;Node35 -->
<g id="edge51_Node000033_Node000035" class="edge">
<title>Node33&#45;&gt;Node35</title>
<g id="a_edge51_Node000033_Node000035"><a xlink:title=" ">
<path fill="none" stroke="#63b8ff" d="M1762.43,-346.37C1765.04,-337.07 1769.29,-321.98 1772.68,-309.9"/>
<polygon fill="#63b8ff" stroke="#63b8ff" points="1776.16,-310.48 1775.5,-299.91 1769.42,-308.58 1776.16,-310.48"/>
</a>
</g>
</g>
<!-- Node36 -->
<g id="Node000036" class="node">
<title>Node36</title>
<g id="a_Node000036"><a xlink:title=" ">
<polygon fill="#e0e0e0" stroke="#999999" points="1727,-299.5 1667,-299.5 1667,-280.5 1727,-280.5 1727,-299.5"/>
<text text-anchor="middle" x="1697" y="-287.5" font-family="Helvetica,sans-Serif" font-size="10.00">iostream</text>
</a>
</g>
</g>
<!-- Node33&#45;&gt;Node36 -->
<g id="edge52_Node000033_Node000036" class="edge">
<title>Node33&#45;&gt;Node36</title>
<g id="a_edge52_Node000033_Node000036"><a xlink:title=" ">
<path fill="none" stroke="#63b8ff" d="M1751.5,-346.37C1741.7,-336.4 1725.34,-319.79 1713.11,-307.36"/>
<polygon fill="#63b8ff" stroke="#63b8ff" points="1715.28,-304.58 1705.77,-299.91 1710.29,-309.49 1715.28,-304.58"/>
</a>
</g>
</g>
<!-- Node37&#45;&gt;Node2 -->
<g id="edge54_Node000037_Node000002" class="edge">
<title>Node37&#45;&gt;Node2</title>
<g id="a_edge54_Node000037_Node000002"><a xlink:title=" ">
<path fill="none" stroke="#63b8ff" d="M1087.08,-346.17C1083.08,-329.79 1072.28,-294.59 1050,-275 1025.49,-253.45 990.15,-242.26 962.2,-236.49"/>
<polygon fill="#63b8ff" stroke="#63b8ff" points="962.75,-233.03 952.27,-234.6 961.44,-239.91 962.75,-233.03"/>
</a>
</g>
</g>
<!-- Node38&#45;&gt;Node3 -->
<g id="edge56_Node000038_Node000003" class="edge">
<title>Node38&#45;&gt;Node3</title>
<g id="a_edge56_Node000038_Node000003"><a xlink:title=" ">
<path fill="none" stroke="#63b8ff" d="M1188.43,-340.95C1137.58,-329.16 1065.98,-312.56 1019.53,-301.79"/>
<polygon fill="#63b8ff" stroke="#63b8ff" points="1020.26,-298.37 1009.73,-299.52 1018.68,-305.19 1020.26,-298.37"/>
</a>
</g>
</g>
<!-- Node38&#45;&gt;Node39 -->
<g id="edge57_Node000038_Node000039" class="edge">
<title>Node38&#45;&gt;Node39</title>
<g id="a_edge57_Node000038_Node000039"><a xlink:title=" ">
<path fill="none" stroke="#63b8ff" d="M1293.11,-340.95C1323.48,-331.28 1364.01,-318.38 1396.27,-308.11"/>
<polygon fill="#63b8ff" stroke="#63b8ff" points="1397.53,-311.38 1405.99,-305.01 1395.4,-304.71 1397.53,-311.38"/>
</a>
</g>
</g>
<!-- Node40&#45;&gt;Node2 -->
<g id="edge60_Node000040_Node000002" class="edge">
<title>Node40&#45;&gt;Node2</title>
<g id="a_edge60_Node000040_Node000002"><a xlink:title=" ">
<path fill="none" stroke="#63b8ff" d="M860.46,-340.72C872.41,-317.81 895.85,-272.93 908.82,-248.09"/>
<polygon fill="#63b8ff" stroke="#63b8ff" points="912,-249.55 913.53,-239.07 905.8,-246.31 912,-249.55"/>
</a>
</g>
</g>
<!-- Node40&#45;&gt;Node3 -->
<g id="edge62_Node000040_Node000003" class="edge">
<title>Node40&#45;&gt;Node3</title>
<g id="a_edge62_Node000040_Node000003"><a xlink:title=" ">
<path fill="none" stroke="#63b8ff" d="M879.33,-340.95C899.82,-330.03 928.06,-314.97 948.16,-304.25"/>
<polygon fill="#63b8ff" stroke="#63b8ff" points="949.85,-307.31 957.03,-299.52 946.56,-301.14 949.85,-307.31"/>
</a>
</g>
</g>
<!-- Node40&#45;&gt;Node31 -->
<g id="edge61_Node000040_Node000031" class="edge">
<title>Node40&#45;&gt;Node31</title>
<g id="a_edge61_Node000040_Node000031"><a xlink:title=" ">
<path fill="none" stroke="#63b8ff" d="M817.37,-340.96C754.17,-316.06 623.7,-264.66 565.78,-241.84"/>
<polygon fill="#63b8ff" stroke="#63b8ff" points="566.75,-238.46 556.16,-238.05 564.18,-244.97 566.75,-238.46"/>
</a>
</g>
</g>
<!-- Node41&#45;&gt;Node2 -->
<g id="edge65_Node000041_Node000002" class="edge">
<title>Node41&#45;&gt;Node2</title>
<g id="a_edge65_Node000041_Node000002"><a xlink:title=" ">
<path fill="none" stroke="#63b8ff" d="M1378.92,-406.91C1381.8,-391.63 1385.27,-359.6 1369,-341 1315.31,-279.63 1064.83,-246.25 962.12,-234.95"/>
<polygon fill="#63b8ff" stroke="#63b8ff" points="962.39,-231.45 952.07,-233.86 961.64,-238.41 962.39,-231.45"/>
</a>
</g>
</g>
<!-- Node41&#45;&gt;Node3 -->
<g id="edge66_Node000041_Node000003" class="edge">
<title>Node41&#45;&gt;Node3</title>
<g id="a_edge66_Node000041_Node000003"><a xlink:title=" ">
<path fill="none" stroke="#63b8ff" d="M1375.8,-406.91C1373.08,-391.04 1364.92,-357.27 1343,-341 1298.24,-307.78 1146.63,-296.63 1051.94,-292.89"/>
<polygon fill="#63b8ff" stroke="#63b8ff" points="1051.94,-289.39 1041.82,-292.51 1051.68,-296.38 1051.94,-289.39"/>
</a>
</g>
</g>
<!-- Node41&#45;&gt;Node4 -->
<g id="edge72_Node000041_Node000004" class="edge">
<title>Node41&#45;&gt;Node4</title>
<g id="a_edge72_Node000041_Node000004"><a xlink:title=" ">
<path fill="none" stroke="#63b8ff" d="M1433.79,-410.33C1510.91,-402.73 1640.83,-387.62 1655,-371 1687.1,-333.36 1642.19,-274.55 1616.62,-246.47"/>
<polygon fill="#63b8ff" stroke="#63b8ff" points="1619.1,-244 1609.7,-239.1 1613.99,-248.79 1619.1,-244"/>
</a>
</g>
</g>
<!-- Node41&#45;&gt;Node33 -->
<g id="edge67_Node000041_Node000033" class="edge">
<title>Node41&#45;&gt;Node33</title>
<g id="a_edge67_Node000041_Node000033"><a xlink:title=" ">
<path fill="none" stroke="#63b8ff" d="M1433.6,-408.27C1496.03,-400.08 1599.39,-385.94 1688,-371 1694.35,-369.93 1700.99,-368.74 1707.57,-367.51"/>
<polygon fill="#63b8ff" stroke="#63b8ff" points="1708.63,-370.87 1717.8,-365.57 1707.33,-363.99 1708.63,-370.87"/>
</a>
</g>
</g>
<!-- Node41&#45;&gt;Node37 -->
<g id="edge68_Node000041_Node000037" class="edge">
<title>Node41&#45;&gt;Node37</title>
<g id="a_edge68_Node000041_Node000037"><a xlink:title=" ">
<path fill="none" stroke="#63b8ff" d="M1333.58,-406.95C1288.81,-398.09 1216.98,-383.79 1155,-371 1149.69,-369.91 1144.15,-368.75 1138.63,-367.59"/>
<polygon fill="#63b8ff" stroke="#63b8ff" points="1139.28,-364.15 1128.77,-365.51 1137.83,-371 1139.28,-364.15"/>
</a>
</g>
</g>
<!-- Node41&#45;&gt;Node38 -->
<g id="edge69_Node000041_Node000038" class="edge">
<title>Node41&#45;&gt;Node38</title>
<g id="a_edge69_Node000041_Node000038"><a xlink:title=" ">
<path fill="none" stroke="#63b8ff" d="M1358.39,-406.99C1340.35,-398.75 1312.4,-385.98 1289.27,-375.4"/>
<polygon fill="#63b8ff" stroke="#63b8ff" points="1290.57,-372.15 1280.02,-371.18 1287.66,-378.52 1290.57,-372.15"/>
</a>
</g>
</g>
<!-- Node41&#45;&gt;Node39 -->
<g id="edge70_Node000041_Node000039" class="edge">
<title>Node41&#45;&gt;Node39</title>
<g id="a_edge70_Node000041_Node000039"><a xlink:title=" ">
<path fill="none" stroke="#63b8ff" d="M1385.42,-406.85C1393.47,-398.26 1405.59,-384.46 1414,-371 1425.22,-353.03 1434.88,-330.96 1441.36,-314.56"/>
<polygon fill="#63b8ff" stroke="#63b8ff" points="1444.65,-315.76 1444.97,-305.17 1438.11,-313.25 1444.65,-315.76"/>
</a>
</g>
</g>
<!-- Node41&#45;&gt;Node40 -->
<g id="edge71_Node000041_Node000040" class="edge">
<title>Node41&#45;&gt;Node40</title>
<g id="a_edge71_Node000041_Node000040"><a xlink:title=" ">
<path fill="none" stroke="#63b8ff" d="M1320.42,-409.18C1231.25,-399.23 1056.98,-379.77 948.25,-367.63"/>
<polygon fill="#63b8ff" stroke="#63b8ff" points="948.6,-364.15 938.27,-366.52 947.82,-371.11 948.6,-364.15"/>
</a>
</g>
</g>
<!-- Node42 -->
<g id="Node000042" class="node">
<title>Node42</title>
<g id="a_Node000042"><a xlink:href="_builders_8hpp.html" target="_top" xlink:title=" ">
<polygon fill="white" stroke="#666666" points="1645.5,-365.5 1504.5,-365.5 1504.5,-346.5 1645.5,-346.5 1645.5,-365.5"/>
<text text-anchor="middle" x="1575" y="-353.5" font-family="Helvetica,sans-Serif" font-size="10.00">Serialization/Builders.hpp</text>
</a>
</g>
</g>
<!-- Node41&#45;&gt;Node42 -->
<g id="edge73_Node000041_Node000042" class="edge">
<title>Node41&#45;&gt;Node42</title>
<g id="a_edge73_Node000041_Node000042"><a xlink:title=" ">
<path fill="none" stroke="#63b8ff" d="M1405.79,-406.99C1440.25,-396.81 1498.09,-379.72 1536.4,-368.4"/>
<polygon fill="#63b8ff" stroke="#63b8ff" points="1537.58,-371.71 1546.17,-365.52 1535.59,-364.99 1537.58,-371.71"/>
</a>
</g>
</g>
<!-- Node42&#45;&gt;Node2 -->
<g id="edge74_Node000042_Node000002" class="edge">
<title>Node42&#45;&gt;Node2</title>
<g id="a_edge74_Node000042_Node000002"><a xlink:title=" ">
<path fill="none" stroke="#63b8ff" d="M1574.54,-346.48C1573.12,-329.64 1567.37,-292.25 1544,-275 1497.49,-240.66 1097.78,-232.67 962.52,-230.95"/>
<polygon fill="#63b8ff" stroke="#63b8ff" points="962.17,-227.44 952.13,-230.82 962.08,-234.44 962.17,-227.44"/>
</a>
</g>
</g>
<!-- Node42&#45;&gt;Node4 -->
<g id="edge76_Node000042_Node000004" class="edge">
<title>Node42&#45;&gt;Node4</title>
<g id="a_edge76_Node000042_Node000004"><a xlink:title=" ">
<path fill="none" stroke="#63b8ff" d="M1576.79,-346.44C1580.96,-326.45 1591.43,-276.32 1597.14,-248.98"/>
<polygon fill="#63b8ff" stroke="#63b8ff" points="1600.58,-249.62 1599.2,-239.12 1593.73,-248.19 1600.58,-249.62"/>
</a>
</g>
</g>
<!-- Node42&#45;&gt;Node36 -->
<g id="edge75_Node000042_Node000036" class="edge">
<title>Node42&#45;&gt;Node36</title>
<g id="a_edge75_Node000042_Node000036"><a xlink:title=" ">
<path fill="none" stroke="#63b8ff" d="M1591.45,-346.37C1612.01,-335.59 1647.4,-317.02 1671.49,-304.38"/>
<polygon fill="#63b8ff" stroke="#63b8ff" points="1673.19,-307.44 1680.42,-299.7 1669.94,-301.25 1673.19,-307.44"/>
</a>
</g>
</g>
</g>
</svg>
