<?xml version="1.0" encoding="UTF-8" standalone="no"?>
<!DOCTYPE svg PUBLIC "-//W3C//DTD SVG 1.1//EN"
 "http://www.w3.org/Graphics/SVG/1.1/DTD/svg11.dtd">
<!-- Generated by graphviz version 2.43.0 (0)
 -->
<!-- Title: src/ui/Common/AssetSelector.hpp Pages: 1 -->
<svg width="1236pt" height="544pt"
 viewBox="0.00 0.00 1235.63 544.00" xmlns="http://www.w3.org/2000/svg" xmlns:xlink="http://www.w3.org/1999/xlink">
<g id="graph0" class="graph" transform="scale(1 1) rotate(0) translate(4 540)">
<title>src/ui/Common/AssetSelector.hpp</title>
<!-- Node1 -->
<g id="Node000001" class="node">
<title>Node1</title>
<g id="a_Node000001"><a xlink:title=" ">
<polygon fill="#999999" stroke="#666666" points="714.13,-536 534.13,-536 534.13,-517 714.13,-517 714.13,-536"/>
<text text-anchor="middle" x="624.13" y="-524" font-family="Helvetica,sans-Serif" font-size="10.00">src/ui/Common/AssetSelector.hpp</text>
</a>
</g>
</g>
<!-- Node2 -->
<g id="Node000002" class="node">
<title>Node2</title>
<g id="a_Node000002"><a xlink:href="_mesh_8hpp.html" target="_top" xlink:title=" ">
<polygon fill="white" stroke="#666666" points="216.63,-415 79.63,-415 79.63,-396 216.63,-396 216.63,-415"/>
<text text-anchor="middle" x="148.13" y="-403" font-family="Helvetica,sans-Serif" font-size="10.00">AssetManager/Mesh.hpp</text>
</a>
</g>
</g>
<!-- Node1&#45;&gt;Node2 -->
<g id="edge1_Node000001_Node000002" class="edge">
<title>Node1&#45;&gt;Node2</title>
<g id="a_edge1_Node000001_Node000002"><a xlink:title=" ">
<path fill="none" stroke="#63b8ff" d="M577.55,-516.96C533.65,-508.67 466.13,-495.26 408.13,-481 327.93,-461.28 235.2,-433.49 185.02,-418.03"/>
<polygon fill="#63b8ff" stroke="#63b8ff" points="185.86,-414.62 175.27,-415.02 183.79,-421.31 185.86,-414.62"/>
</a>
</g>
</g>
<!-- Node10 -->
<g id="Node000010" class="node">
<title>Node10</title>
<g id="a_Node000010"><a xlink:href="_registry_8hpp.html" target="_top" xlink:title=" ">
<polygon fill="white" stroke="#666666" points="826.13,-239 728.13,-239 728.13,-220 826.13,-220 826.13,-239"/>
<text text-anchor="middle" x="777.13" y="-227" font-family="Helvetica,sans-Serif" font-size="10.00">ECS/Registry.hpp</text>
</a>
</g>
</g>
<!-- Node1&#45;&gt;Node10 -->
<g id="edge50_Node000001_Node000010" class="edge">
<title>Node1&#45;&gt;Node10</title>
<g id="a_edge50_Node000001_Node000010"><a xlink:title=" ">
<path fill="none" stroke="#63b8ff" d="M714.29,-517.67C783.8,-506.09 868.13,-477.43 868.13,-406.5 868.13,-406.5 868.13,-406.5 868.13,-344 868.13,-300.43 826.81,-264.05 799.86,-244.94"/>
<polygon fill="#63b8ff" stroke="#63b8ff" points="801.58,-241.88 791.35,-239.14 797.64,-247.67 801.58,-241.88"/>
</a>
</g>
</g>
<!-- Node25 -->
<g id="Node000025" class="node">
<title>Node25</title>
<g id="a_Node000025"><a xlink:href="_wireframe_8hpp.html" target="_top" xlink:title=" ">
<polygon fill="white" stroke="#666666" points="558.13,-415 396.13,-415 396.13,-396 558.13,-396 558.13,-415"/>
<text text-anchor="middle" x="477.13" y="-403" font-family="Helvetica,sans-Serif" font-size="10.00">AssetManager/Wireframe.hpp</text>
</a>
</g>
</g>
<!-- Node1&#45;&gt;Node25 -->
<g id="edge33_Node000001_Node000025" class="edge">
<title>Node1&#45;&gt;Node25</title>
<g id="a_edge33_Node000001_Node000025"><a xlink:title=" ">
<path fill="none" stroke="#63b8ff" d="M533.96,-517.28C485.29,-510.77 432.14,-499.59 417.13,-481 408.75,-470.63 411.13,-462.91 417.13,-451 423.82,-437.71 436.57,-427.39 448.6,-420.05"/>
<polygon fill="#63b8ff" stroke="#63b8ff" points="450.54,-422.97 457.54,-415.02 447.11,-416.87 450.54,-422.97"/>
</a>
</g>
</g>
<!-- Node26 -->
<g id="Node000026" class="node">
<title>Node26</title>
<g id="a_Node000026"><a xlink:href="_types_8hpp.html" target="_top" xlink:title=" ">
<polygon fill="white" stroke="#666666" points="727.63,-294 614.63,-294 614.63,-275 727.63,-275 727.63,-294"/>
<text text-anchor="middle" x="671.13" y="-282" font-family="Helvetica,sans-Serif" font-size="10.00">Common/Types.hpp</text>
</a>
</g>
</g>
<!-- Node1&#45;&gt;Node26 -->
<g id="edge39_Node000001_Node000026" class="edge">
<title>Node1&#45;&gt;Node26</title>
<g id="a_edge39_Node000001_Node000026"><a xlink:title=" ">
<path fill="none" stroke="#63b8ff" d="M623.78,-516.65C622.95,-488.54 622.4,-399.07 645.13,-330 648.3,-320.35 653.78,-310.5 658.89,-302.53"/>
<polygon fill="#63b8ff" stroke="#63b8ff" points="661.84,-304.41 664.56,-294.17 656.05,-300.48 661.84,-304.41"/>
</a>
</g>
</g>
<!-- Node27 -->
<g id="Node000027" class="node">
<title>Node27</title>
<g id="a_Node000027"><a xlink:href="_name_component_8hpp.html" target="_top" xlink:title=" ">
<polygon fill="white" stroke="#666666" points="840.13,-415 652.13,-415 652.13,-396 840.13,-396 840.13,-415"/>
<text text-anchor="middle" x="746.13" y="-403" font-family="Helvetica,sans-Serif" font-size="10.00">Components/NameComponent.hpp</text>
</a>
</g>
</g>
<!-- Node1&#45;&gt;Node27 -->
<g id="edge41_Node000001_Node000027" class="edge">
<title>Node1&#45;&gt;Node27</title>
<g id="a_edge41_Node000001_Node000027"><a xlink:title=" ">
<path fill="none" stroke="#63b8ff" d="M632.9,-516.94C653.2,-497.14 703.67,-447.91 729.83,-422.4"/>
<polygon fill="#63b8ff" stroke="#63b8ff" points="732.39,-424.79 737.1,-415.3 727.5,-419.78 732.39,-424.79"/>
</a>
</g>
</g>
<!-- Node29 -->
<g id="Node000029" class="node">
<title>Node29</title>
<g id="a_Node000029"><a xlink:href="_asset_component_8hpp.html" target="_top" xlink:title=" ">
<polygon fill="white" stroke="#666666" points="596.13,-481 426.13,-481 426.13,-451 596.13,-451 596.13,-481"/>
<text text-anchor="start" x="434.13" y="-469" font-family="Helvetica,sans-Serif" font-size="10.00">Components/AssetComponents</text>
<text text-anchor="middle" x="511.13" y="-458" font-family="Helvetica,sans-Serif" font-size="10.00">/AssetComponent.hpp</text>
</a>
</g>
</g>
<!-- Node1&#45;&gt;Node29 -->
<g id="edge45_Node000001_Node000029" class="edge">
<title>Node1&#45;&gt;Node29</title>
<g id="a_edge45_Node000001_Node000029"><a xlink:title=" ">
<path fill="none" stroke="#63b8ff" d="M607.45,-516.87C591.69,-508.71 567.53,-496.2 547.34,-485.75"/>
<polygon fill="#63b8ff" stroke="#63b8ff" points="548.88,-482.6 538.39,-481.11 545.66,-488.82 548.88,-482.6"/>
</a>
</g>
</g>
<!-- Node31 -->
<g id="Node000031" class="node">
<title>Node31</title>
<g id="a_Node000031"><a xlink:title=" ">
<polygon fill="#e0e0e0" stroke="#999999" points="1019.63,-475.5 896.63,-475.5 896.63,-456.5 1019.63,-456.5 1019.63,-475.5"/>
<text text-anchor="middle" x="958.13" y="-463.5" font-family="Helvetica,sans-Serif" font-size="10.00">UI/Common/Style.hpp</text>
</a>
</g>
</g>
<!-- Node1&#45;&gt;Node31 -->
<g id="edge51_Node000001_Node000031" class="edge">
<title>Node1&#45;&gt;Node31</title>
<g id="a_edge51_Node000001_Node000031"><a xlink:title=" ">
<path fill="none" stroke="#63b8ff" d="M674.58,-516.97C726.61,-508.14 810.08,-493.85 882.13,-481 888.69,-479.83 895.58,-478.58 902.4,-477.34"/>
<polygon fill="#63b8ff" stroke="#63b8ff" points="903.12,-480.77 912.33,-475.52 901.86,-473.88 903.12,-480.77"/>
</a>
</g>
</g>
<!-- Node3 -->
<g id="Node000003" class="node">
<title>Node3</title>
<g id="a_Node000003"><a xlink:title=" ">
<polygon fill="#e0e0e0" stroke="#999999" points="132.13,-239 54.13,-239 54.13,-220 132.13,-220 132.13,-239"/>
<text text-anchor="middle" x="93.13" y="-227" font-family="Helvetica,sans-Serif" font-size="10.00">glm/glm.hpp</text>
</a>
</g>
</g>
<!-- Node2&#45;&gt;Node3 -->
<g id="edge2_Node000002_Node000003" class="edge">
<title>Node2&#45;&gt;Node3</title>
<g id="a_edge2_Node000002_Node000003"><a xlink:title=" ">
<path fill="none" stroke="#63b8ff" d="M79.31,-400.29C51.66,-394.8 22.31,-383.35 5.13,-360 -1.66,-350.78 -2.18,-289.68 7.13,-275 16.76,-259.81 33.36,-249.54 49.42,-242.74"/>
<polygon fill="#63b8ff" stroke="#63b8ff" points="50.7,-245.99 58.77,-239.12 48.18,-239.47 50.7,-245.99"/>
</a>
</g>
</g>
<!-- Node4 -->
<g id="Node000004" class="node">
<title>Node4</title>
<g id="a_Node000004"><a xlink:title=" ">
<polygon fill="#e0e0e0" stroke="#999999" points="453.63,-354.5 382.63,-354.5 382.63,-335.5 453.63,-335.5 453.63,-354.5"/>
<text text-anchor="middle" x="418.13" y="-342.5" font-family="Helvetica,sans-Serif" font-size="10.00">glad/glad.h</text>
</a>
</g>
</g>
<!-- Node2&#45;&gt;Node4 -->
<g id="edge3_Node000002_Node000004" class="edge">
<title>Node2&#45;&gt;Node4</title>
<g id="a_edge3_Node000002_Node000004"><a xlink:title=" ">
<path fill="none" stroke="#63b8ff" d="M199.41,-395.96C245.24,-387.95 314.07,-374.98 373.13,-360 376.12,-359.24 379.22,-358.4 382.31,-357.52"/>
<polygon fill="#63b8ff" stroke="#63b8ff" points="383.49,-360.82 392.09,-354.62 381.5,-354.11 383.49,-360.82"/>
</a>
</g>
</g>
<!-- Node5 -->
<g id="Node000005" class="node">
<title>Node5</title>
<g id="a_Node000005"><a xlink:title=" ">
<polygon fill="#e0e0e0" stroke="#999999" points="171.63,-354.5 124.63,-354.5 124.63,-335.5 171.63,-335.5 171.63,-354.5"/>
<text text-anchor="middle" x="148.13" y="-342.5" font-family="Helvetica,sans-Serif" font-size="10.00">vector</text>
</a>
</g>
</g>
<!-- Node2&#45;&gt;Node5 -->
<g id="edge4_Node000002_Node000005" class="edge">
<title>Node2&#45;&gt;Node5</title>
<g id="a_edge4_Node000002_Node000005"><a xlink:title=" ">
<path fill="none" stroke="#63b8ff" d="M148.13,-395.87C148.13,-387.75 148.13,-375.31 148.13,-364.89"/>
<polygon fill="#63b8ff" stroke="#63b8ff" points="151.63,-364.67 148.13,-354.67 144.63,-364.67 151.63,-364.67"/>
</a>
</g>
</g>
<!-- Node6 -->
<g id="Node000006" class="node">
<title>Node6</title>
<g id="a_Node000006"><a xlink:title=" ">
<polygon fill="#e0e0e0" stroke="#999999" points="516.13,-354.5 472.13,-354.5 472.13,-335.5 516.13,-335.5 516.13,-354.5"/>
<text text-anchor="middle" x="494.13" y="-342.5" font-family="Helvetica,sans-Serif" font-size="10.00">string</text>
</a>
</g>
</g>
<!-- Node2&#45;&gt;Node6 -->
<g id="edge5_Node000002_Node000006" class="edge">
<title>Node2&#45;&gt;Node6</title>
<g id="a_edge5_Node000002_Node000006"><a xlink:title=" ">
<path fill="none" stroke="#63b8ff" d="M215.22,-395.98C300.34,-385.01 438.92,-366.59 462.13,-360 463.81,-359.52 465.52,-358.97 467.23,-358.38"/>
<polygon fill="#63b8ff" stroke="#63b8ff" points="468.82,-361.51 476.84,-354.58 466.25,-355 468.82,-361.51"/>
</a>
</g>
</g>
<!-- Node7 -->
<g id="Node000007" class="node">
<title>Node7</title>
<g id="a_Node000007"><a xlink:href="_path_constructible_asset_8hpp.html" target="_top" xlink:title=" ">
<polygon fill="white" stroke="#666666" points="364.63,-360 189.63,-360 189.63,-330 364.63,-330 364.63,-360"/>
<text text-anchor="start" x="197.63" y="-348" font-family="Helvetica,sans-Serif" font-size="10.00">AssetManager/PathConstructible</text>
<text text-anchor="middle" x="277.13" y="-337" font-family="Helvetica,sans-Serif" font-size="10.00">Asset.hpp</text>
</a>
</g>
</g>
<!-- Node2&#45;&gt;Node7 -->
<g id="edge6_Node000002_Node000007" class="edge">
<title>Node2&#45;&gt;Node7</title>
<g id="a_edge6_Node000002_Node000007"><a xlink:title=" ">
<path fill="none" stroke="#63b8ff" d="M166.88,-395.99C185.06,-387.75 213.23,-374.98 236.54,-364.4"/>
<polygon fill="#63b8ff" stroke="#63b8ff" points="238.2,-367.5 245.86,-360.18 235.31,-361.12 238.2,-367.5"/>
</a>
</g>
</g>
<!-- Node23 -->
<g id="Node000023" class="node">
<title>Node23</title>
<g id="a_Node000023"><a xlink:href="_a_a_b_b_8hpp.html" target="_top" xlink:title=" ">
<polygon fill="white" stroke="#666666" points="106.13,-354.5 14.13,-354.5 14.13,-335.5 106.13,-335.5 106.13,-354.5"/>
<text text-anchor="middle" x="60.13" y="-342.5" font-family="Helvetica,sans-Serif" font-size="10.00">Math/AABB.hpp</text>
</a>
</g>
</g>
<!-- Node2&#45;&gt;Node23 -->
<g id="edge29_Node000002_Node000023" class="edge">
<title>Node2&#45;&gt;Node23</title>
<g id="a_edge29_Node000002_Node000023"><a xlink:title=" ">
<path fill="none" stroke="#63b8ff" d="M135.14,-395.87C121.1,-386.54 98.5,-371.51 81.76,-360.38"/>
<polygon fill="#63b8ff" stroke="#63b8ff" points="83.43,-357.29 73.16,-354.67 79.56,-363.12 83.43,-357.29"/>
</a>
</g>
</g>
<!-- Node8 -->
<g id="Node000008" class="node">
<title>Node8</title>
<g id="a_Node000008"><a xlink:title=" ">
<polygon fill="#e0e0e0" stroke="#999999" points="571.13,-239 503.13,-239 503.13,-220 571.13,-220 571.13,-239"/>
<text text-anchor="middle" x="537.13" y="-227" font-family="Helvetica,sans-Serif" font-size="10.00">filesystem</text>
</a>
</g>
</g>
<!-- Node7&#45;&gt;Node8 -->
<g id="edge7_Node000007_Node000008" class="edge">
<title>Node7&#45;&gt;Node8</title>
<g id="a_edge7_Node000007_Node000008"><a xlink:title=" ">
<path fill="none" stroke="#63b8ff" d="M301.83,-329.99C328.35,-315.26 371.97,-291.9 411.13,-275 440.37,-262.38 474.48,-250.5 499.83,-242.19"/>
<polygon fill="#63b8ff" stroke="#63b8ff" points="501,-245.49 509.43,-239.08 498.84,-238.83 501,-245.49"/>
</a>
</g>
</g>
<!-- Node9 -->
<g id="Node000009" class="node">
<title>Node9</title>
<g id="a_Node000009"><a xlink:href="_asset_8hpp.html" target="_top" xlink:title=" ">
<polygon fill="white" stroke="#666666" points="557.63,-294 420.63,-294 420.63,-275 557.63,-275 557.63,-294"/>
<text text-anchor="middle" x="489.13" y="-282" font-family="Helvetica,sans-Serif" font-size="10.00">AssetManager/Asset.hpp</text>
</a>
</g>
</g>
<!-- Node7&#45;&gt;Node9 -->
<g id="edge8_Node000007_Node000009" class="edge">
<title>Node7&#45;&gt;Node9</title>
<g id="a_edge8_Node000007_Node000009"><a xlink:title=" ">
<path fill="none" stroke="#63b8ff" d="M327.91,-329.99C364.81,-319.8 414.1,-306.2 448.43,-296.73"/>
<polygon fill="#63b8ff" stroke="#63b8ff" points="449.42,-300.09 458.13,-294.05 447.56,-293.34 449.42,-300.09"/>
</a>
</g>
</g>
<!-- Node9&#45;&gt;Node8 -->
<g id="edge9_Node000009_Node000008" class="edge">
<title>Node9&#45;&gt;Node8</title>
<g id="a_edge9_Node000009_Node000008"><a xlink:title=" ">
<path fill="none" stroke="#63b8ff" d="M497.05,-274.75C503.97,-267.11 514.19,-255.82 522.58,-246.56"/>
<polygon fill="#63b8ff" stroke="#63b8ff" points="525.23,-248.85 529.35,-239.09 520.04,-244.15 525.23,-248.85"/>
</a>
</g>
</g>
<!-- Node9&#45;&gt;Node10 -->
<g id="edge10_Node000009_Node000010" class="edge">
<title>Node9&#45;&gt;Node10</title>
<g id="a_edge10_Node000009_Node000010"><a xlink:title=" ">
<path fill="none" stroke="#63b8ff" d="M535.4,-274.98C585.74,-265.72 666.25,-250.9 720.37,-240.94"/>
<polygon fill="#63b8ff" stroke="#63b8ff" points="721.29,-244.33 730.49,-239.08 720.02,-237.45 721.29,-244.33"/>
</a>
</g>
</g>
<!-- Node11 -->
<g id="Node000011" class="node">
<title>Node11</title>
<g id="a_Node000011"><a xlink:title=" ">
<polygon fill="#e0e0e0" stroke="#999999" points="526.13,-129 440.13,-129 440.13,-110 526.13,-110 526.13,-129"/>
<text text-anchor="middle" x="483.13" y="-117" font-family="Helvetica,sans-Serif" font-size="10.00">unordered_set</text>
</a>
</g>
</g>
<!-- Node10&#45;&gt;Node11 -->
<g id="edge11_Node000010_Node000011" class="edge">
<title>Node10&#45;&gt;Node11</title>
<g id="a_edge11_Node000010_Node000011"><a xlink:title=" ">
<path fill="none" stroke="#63b8ff" d="M727.71,-228.32C677.47,-226.13 598.87,-217.05 540.13,-184 520.43,-172.92 503.96,-152.49 493.87,-137.79"/>
<polygon fill="#63b8ff" stroke="#63b8ff" points="496.6,-135.57 488.19,-129.12 490.74,-139.4 496.6,-135.57"/>
</a>
</g>
</g>
<!-- Node12 -->
<g id="Node000012" class="node">
<title>Node12</title>
<g id="a_Node000012"><a xlink:href="_logger_8hpp.html" target="_top" xlink:title=" ">
<polygon fill="white" stroke="#666666" points="1048.63,-184 931.63,-184 931.63,-165 1048.63,-165 1048.63,-184"/>
<text text-anchor="middle" x="990.13" y="-172" font-family="Helvetica,sans-Serif" font-size="10.00">Common/Logger.hpp</text>
</a>
</g>
</g>
<!-- Node10&#45;&gt;Node12 -->
<g id="edge12_Node000010_Node000012" class="edge">
<title>Node10&#45;&gt;Node12</title>
<g id="a_edge12_Node000010_Node000012"><a xlink:title=" ">
<path fill="none" stroke="#63b8ff" d="M811.35,-219.98C847.88,-210.89 905.9,-196.46 945.88,-186.51"/>
<polygon fill="#63b8ff" stroke="#63b8ff" points="946.78,-189.89 955.64,-184.08 945.09,-183.1 946.78,-189.89"/>
</a>
</g>
</g>
<!-- Node15 -->
<g id="Node000015" class="node">
<title>Node15</title>
<g id="a_Node000015"><a xlink:href="_entity_8hpp.html" target="_top" xlink:title=" ">
<polygon fill="white" stroke="#666666" points="840.13,-74 754.13,-74 754.13,-55 840.13,-55 840.13,-74"/>
<text text-anchor="middle" x="797.13" y="-62" font-family="Helvetica,sans-Serif" font-size="10.00">ECS/Entity.hpp</text>
</a>
</g>
</g>
<!-- Node10&#45;&gt;Node15 -->
<g id="edge15_Node000010_Node000015" class="edge">
<title>Node10&#45;&gt;Node15</title>
<g id="a_edge15_Node000010_Node000015"><a xlink:title=" ">
<path fill="none" stroke="#63b8ff" d="M727.78,-225.74C691.02,-221.45 641.31,-210.71 606.13,-184 577.58,-162.34 551.4,-137.71 574.13,-110 595.15,-84.37 684.54,-73.22 743.56,-68.58"/>
<polygon fill="#63b8ff" stroke="#63b8ff" points="744.13,-72.04 753.84,-67.81 743.61,-65.06 744.13,-72.04"/>
</a>
</g>
</g>
<!-- Node17 -->
<g id="Node000017" class="node">
<title>Node17</title>
<g id="a_Node000017"><a xlink:href="_entity_hierarchy_8hpp.html" target="_top" xlink:title=" ">
<polygon fill="white" stroke="#666666" points="749.13,-184 615.13,-184 615.13,-165 749.13,-165 749.13,-184"/>
<text text-anchor="middle" x="682.13" y="-172" font-family="Helvetica,sans-Serif" font-size="10.00">ECS/EntityHierarchy.hpp</text>
</a>
</g>
</g>
<!-- Node10&#45;&gt;Node17 -->
<g id="edge17_Node000010_Node000017" class="edge">
<title>Node10&#45;&gt;Node17</title>
<g id="a_edge17_Node000010_Node000017"><a xlink:title=" ">
<path fill="none" stroke="#63b8ff" d="M761.86,-219.98C746.99,-211.69 724.14,-198.94 706.71,-189.22"/>
<polygon fill="#63b8ff" stroke="#63b8ff" points="708.11,-185.99 697.67,-184.17 704.7,-192.1 708.11,-185.99"/>
</a>
</g>
</g>
<!-- Node20 -->
<g id="Node000020" class="node">
<title>Node20</title>
<g id="a_Node000020"><a xlink:href="_entity_provider_8hpp.html" target="_top" xlink:title="Manages a pool of unused entity identifiers and provides mechanisms for requesting and removing them.">
<polygon fill="white" stroke="#666666" points="943.13,-129 815.13,-129 815.13,-110 943.13,-110 943.13,-129"/>
<text text-anchor="middle" x="879.13" y="-117" font-family="Helvetica,sans-Serif" font-size="10.00">ECS/EntityProvider.hpp</text>
</a>
</g>
</g>
<!-- Node10&#45;&gt;Node20 -->
<g id="edge22_Node000010_Node000020" class="edge">
<title>Node10&#45;&gt;Node20</title>
<g id="a_edge22_Node000010_Node000020"><a xlink:title=" ">
<path fill="none" stroke="#63b8ff" d="M777.65,-219.72C778.87,-206.47 782.88,-181.22 796.13,-165 808.06,-150.39 826.09,-139.91 842.3,-132.81"/>
<polygon fill="#63b8ff" stroke="#63b8ff" points="843.65,-136.04 851.58,-129.01 841,-129.56 843.65,-136.04"/>
</a>
</g>
</g>
<!-- Node21 -->
<g id="Node000021" class="node">
<title>Node21</title>
<g id="a_Node000021"><a xlink:href="_sparse_set_8hpp.html" target="_top" xlink:title=" ">
<polygon fill="white" stroke="#666666" points="913.13,-184 805.13,-184 805.13,-165 913.13,-165 913.13,-184"/>
<text text-anchor="middle" x="859.13" y="-172" font-family="Helvetica,sans-Serif" font-size="10.00">ECS/SparseSet.hpp</text>
</a>
</g>
</g>
<!-- Node10&#45;&gt;Node21 -->
<g id="edge26_Node000010_Node000021" class="edge">
<title>Node10&#45;&gt;Node21</title>
<g id="a_edge26_Node000010_Node000021"><a xlink:title=" ">
<path fill="none" stroke="#63b8ff" d="M790.3,-219.98C802.9,-211.84 822.13,-199.41 837.07,-189.76"/>
<polygon fill="#63b8ff" stroke="#63b8ff" points="839.21,-192.54 845.71,-184.17 835.41,-186.66 839.21,-192.54"/>
</a>
</g>
</g>
<!-- Node22 -->
<g id="Node000022" class="node">
<title>Node22</title>
<g id="a_Node000022"><a xlink:href="_singleton_component_8hpp.html" target="_top" xlink:title=" ">
<polygon fill="white" stroke="#666666" points="1227.63,-184 1066.63,-184 1066.63,-165 1227.63,-165 1227.63,-184"/>
<text text-anchor="middle" x="1147.13" y="-172" font-family="Helvetica,sans-Serif" font-size="10.00">ECS/SingletonComponent.hpp</text>
</a>
</g>
</g>
<!-- Node10&#45;&gt;Node22 -->
<g id="edge28_Node000010_Node000022" class="edge">
<title>Node10&#45;&gt;Node22</title>
<g id="a_edge28_Node000010_Node000022"><a xlink:title=" ">
<path fill="none" stroke="#63b8ff" d="M826.26,-221.46C890.75,-212.22 1004.33,-195.95 1077.62,-185.46"/>
<polygon fill="#63b8ff" stroke="#63b8ff" points="1078.28,-188.9 1087.68,-184.01 1077.29,-181.97 1078.28,-188.9"/>
</a>
</g>
</g>
<!-- Node13 -->
<g id="Node000013" class="node">
<title>Node13</title>
<g id="a_Node000013"><a xlink:title=" ">
<polygon fill="#e0e0e0" stroke="#999999" points="1047.13,-129 999.13,-129 999.13,-110 1047.13,-110 1047.13,-129"/>
<text text-anchor="middle" x="1023.13" y="-117" font-family="Helvetica,sans-Serif" font-size="10.00">mutex</text>
</a>
</g>
</g>
<!-- Node12&#45;&gt;Node13 -->
<g id="edge13_Node000012_Node000013" class="edge">
<title>Node12&#45;&gt;Node13</title>
<g id="a_edge13_Node000012_Node000013"><a xlink:title=" ">
<path fill="none" stroke="#63b8ff" d="M995.58,-164.75C1000.14,-157.42 1006.8,-146.73 1012.42,-137.7"/>
<polygon fill="#63b8ff" stroke="#63b8ff" points="1015.46,-139.43 1017.78,-129.09 1009.52,-135.73 1015.46,-139.43"/>
</a>
</g>
</g>
<!-- Node14 -->
<g id="Node000014" class="node">
<title>Node14</title>
<g id="a_Node000014"><a xlink:title=" ">
<polygon fill="#e0e0e0" stroke="#999999" points="971.63,-74 924.63,-74 924.63,-55 971.63,-55 971.63,-74"/>
<text text-anchor="middle" x="948.13" y="-62" font-family="Helvetica,sans-Serif" font-size="10.00">queue</text>
</a>
</g>
</g>
<!-- Node12&#45;&gt;Node14 -->
<g id="edge14_Node000012_Node000014" class="edge">
<title>Node12&#45;&gt;Node14</title>
<g id="a_edge14_Node000012_Node000014"><a xlink:title=" ">
<path fill="none" stroke="#63b8ff" d="M986.69,-164.66C979.83,-147.01 964.3,-107.09 955.18,-83.64"/>
<polygon fill="#63b8ff" stroke="#63b8ff" points="958.38,-82.21 951.49,-74.16 951.86,-84.75 958.38,-82.21"/>
</a>
</g>
</g>
<!-- Node16 -->
<g id="Node000016" class="node">
<title>Node16</title>
<g id="a_Node000016"><a xlink:title=" ">
<polygon fill="#e0e0e0" stroke="#999999" points="858.63,-19 805.63,-19 805.63,0 858.63,0 858.63,-19"/>
<text text-anchor="middle" x="832.13" y="-7" font-family="Helvetica,sans-Serif" font-size="10.00">stdlib.h</text>
</a>
</g>
</g>
<!-- Node15&#45;&gt;Node16 -->
<g id="edge16_Node000015_Node000016" class="edge">
<title>Node15&#45;&gt;Node16</title>
<g id="a_edge16_Node000015_Node000016"><a xlink:title=" ">
<path fill="none" stroke="#63b8ff" d="M802.91,-54.75C807.75,-47.42 814.81,-36.73 820.77,-27.7"/>
<polygon fill="#63b8ff" stroke="#63b8ff" points="823.86,-29.36 826.45,-19.09 818.02,-25.5 823.86,-29.36"/>
</a>
</g>
</g>
<!-- Node17&#45;&gt;Node11 -->
<g id="edge19_Node000017_Node000011" class="edge">
<title>Node17&#45;&gt;Node11</title>
<g id="a_edge19_Node000017_Node000011"><a xlink:title=" ">
<path fill="none" stroke="#63b8ff" d="M650.15,-164.98C616.31,-155.97 562.73,-141.7 525.41,-131.76"/>
<polygon fill="#63b8ff" stroke="#63b8ff" points="525.91,-128.27 515.35,-129.08 524.11,-135.04 525.91,-128.27"/>
</a>
</g>
</g>
<!-- Node17&#45;&gt;Node15 -->
<g id="edge21_Node000017_Node000015" class="edge">
<title>Node17&#45;&gt;Node15</title>
<g id="a_edge21_Node000017_Node000015"><a xlink:title=" ">
<path fill="none" stroke="#63b8ff" d="M709.1,-164.87C727.7,-157.76 751.9,-146.05 768.13,-129 780.13,-116.39 787.79,-97.95 792.21,-84.18"/>
<polygon fill="#63b8ff" stroke="#63b8ff" points="795.63,-84.93 795.07,-74.35 788.91,-82.97 795.63,-84.93"/>
</a>
</g>
</g>
<!-- Node18 -->
<g id="Node000018" class="node">
<title>Node18</title>
<g id="a_Node000018"><a xlink:title=" ">
<polygon fill="#e0e0e0" stroke="#999999" points="647.63,-129 582.63,-129 582.63,-110 647.63,-110 647.63,-129"/>
<text text-anchor="middle" x="615.13" y="-117" font-family="Helvetica,sans-Serif" font-size="10.00">functional</text>
</a>
</g>
</g>
<!-- Node17&#45;&gt;Node18 -->
<g id="edge18_Node000017_Node000018" class="edge">
<title>Node17&#45;&gt;Node18</title>
<g id="a_edge18_Node000017_Node000018"><a xlink:title=" ">
<path fill="none" stroke="#63b8ff" d="M671.36,-164.98C661.36,-157.07 646.24,-145.11 634.2,-135.58"/>
<polygon fill="#63b8ff" stroke="#63b8ff" points="636.1,-132.63 626.09,-129.17 631.76,-138.12 636.1,-132.63"/>
</a>
</g>
</g>
<!-- Node19 -->
<g id="Node000019" class="node">
<title>Node19</title>
<g id="a_Node000019"><a xlink:title=" ">
<polygon fill="#e0e0e0" stroke="#999999" points="758.63,-129 665.63,-129 665.63,-110 758.63,-110 758.63,-129"/>
<text text-anchor="middle" x="712.13" y="-117" font-family="Helvetica,sans-Serif" font-size="10.00">unordered_map</text>
</a>
</g>
</g>
<!-- Node17&#45;&gt;Node19 -->
<g id="edge20_Node000017_Node000019" class="edge">
<title>Node17&#45;&gt;Node19</title>
<g id="a_edge20_Node000017_Node000019"><a xlink:title=" ">
<path fill="none" stroke="#63b8ff" d="M687.08,-164.75C691.19,-157.49 697.15,-146.95 702.23,-137.98"/>
<polygon fill="#63b8ff" stroke="#63b8ff" points="705.39,-139.52 707.27,-129.09 699.29,-136.07 705.39,-139.52"/>
</a>
</g>
</g>
<!-- Node20&#45;&gt;Node14 -->
<g id="edge24_Node000020_Node000014" class="edge">
<title>Node20&#45;&gt;Node14</title>
<g id="a_edge24_Node000020_Node000014"><a xlink:title=" ">
<path fill="none" stroke="#63b8ff" d="M890.21,-109.98C900.61,-102 916.39,-89.88 928.85,-80.31"/>
<polygon fill="#63b8ff" stroke="#63b8ff" points="931.04,-83.04 936.84,-74.17 926.78,-77.49 931.04,-83.04"/>
</a>
</g>
</g>
<!-- Node20&#45;&gt;Node15 -->
<g id="edge25_Node000020_Node000015" class="edge">
<title>Node20&#45;&gt;Node15</title>
<g id="a_edge25_Node000020_Node000015"><a xlink:title=" ">
<path fill="none" stroke="#63b8ff" d="M865.95,-109.98C853.36,-101.84 834.12,-89.41 819.19,-79.76"/>
<polygon fill="#63b8ff" stroke="#63b8ff" points="820.84,-76.66 810.54,-74.17 817.04,-82.54 820.84,-76.66"/>
</a>
</g>
</g>
<!-- Node20&#45;&gt;Node16 -->
<g id="edge23_Node000020_Node000016" class="edge">
<title>Node20&#45;&gt;Node16</title>
<g id="a_edge23_Node000020_Node000016"><a xlink:title=" ">
<path fill="none" stroke="#63b8ff" d="M875.28,-109.66C867.6,-92.01 850.23,-52.09 840.02,-28.64"/>
<polygon fill="#63b8ff" stroke="#63b8ff" points="843.09,-26.93 835.89,-19.16 836.68,-29.72 843.09,-26.93"/>
</a>
</g>
</g>
<!-- Node21&#45;&gt;Node20 -->
<g id="edge27_Node000021_Node000020" class="edge">
<title>Node21&#45;&gt;Node20</title>
<g id="a_edge27_Node000021_Node000020"><a xlink:title=" ">
<path fill="none" stroke="#63b8ff" d="M862.43,-164.75C865.11,-157.65 868.98,-147.4 872.31,-138.56"/>
<polygon fill="#63b8ff" stroke="#63b8ff" points="875.63,-139.68 875.89,-129.09 869.08,-137.21 875.63,-139.68"/>
</a>
</g>
</g>
<!-- Node23&#45;&gt;Node3 -->
<g id="edge30_Node000023_Node000003" class="edge">
<title>Node23&#45;&gt;Node3</title>
<g id="a_edge30_Node000023_Node000003"><a xlink:title=" ">
<path fill="none" stroke="#63b8ff" d="M72.72,-335.38C84.41,-326.55 101.03,-311.64 108.13,-294 114.07,-279.24 108.97,-261.56 103.17,-248.61"/>
<polygon fill="#63b8ff" stroke="#63b8ff" points="106.15,-246.76 98.55,-239.38 99.89,-249.89 106.15,-246.76"/>
</a>
</g>
</g>
<!-- Node24 -->
<g id="Node000024" class="node">
<title>Node24</title>
<g id="a_Node000024"><a xlink:href="_ray_8hpp.html" target="_top" xlink:title=" ">
<polygon fill="white" stroke="#666666" points="99.63,-294 16.63,-294 16.63,-275 99.63,-275 99.63,-294"/>
<text text-anchor="middle" x="58.13" y="-282" font-family="Helvetica,sans-Serif" font-size="10.00">Math/Ray.hpp</text>
</a>
</g>
</g>
<!-- Node23&#45;&gt;Node24 -->
<g id="edge31_Node000023_Node000024" class="edge">
<title>Node23&#45;&gt;Node24</title>
<g id="a_edge31_Node000023_Node000024"><a xlink:title=" ">
<path fill="none" stroke="#63b8ff" d="M59.83,-335.37C59.55,-327.25 59.13,-314.81 58.77,-304.39"/>
<polygon fill="#63b8ff" stroke="#63b8ff" points="62.26,-304.04 58.42,-294.17 55.27,-304.28 62.26,-304.04"/>
</a>
</g>
</g>
<!-- Node24&#45;&gt;Node3 -->
<g id="edge32_Node000024_Node000003" class="edge">
<title>Node24&#45;&gt;Node3</title>
<g id="a_edge32_Node000024_Node000003"><a xlink:title=" ">
<path fill="none" stroke="#63b8ff" d="M63.91,-274.75C68.75,-267.42 75.81,-256.73 81.77,-247.7"/>
<polygon fill="#63b8ff" stroke="#63b8ff" points="84.86,-249.36 87.45,-239.09 79.02,-245.5 84.86,-249.36"/>
</a>
</g>
</g>
<!-- Node25&#45;&gt;Node3 -->
<g id="edge34_Node000025_Node000003" class="edge">
<title>Node25&#45;&gt;Node3</title>
<g id="a_edge34_Node000025_Node000003"><a xlink:title=" ">
<path fill="none" stroke="#63b8ff" d="M489.93,-395.86C509.53,-381.57 542.95,-352.39 525.13,-330 513.07,-314.85 253.07,-262.05 142.35,-240.14"/>
<polygon fill="#63b8ff" stroke="#63b8ff" points="142.92,-236.68 132.43,-238.18 141.56,-243.55 142.92,-236.68"/>
</a>
</g>
</g>
<!-- Node25&#45;&gt;Node4 -->
<g id="edge35_Node000025_Node000004" class="edge">
<title>Node25&#45;&gt;Node4</title>
<g id="a_edge35_Node000025_Node000004"><a xlink:title=" ">
<path fill="none" stroke="#63b8ff" d="M468.42,-395.87C459.45,-386.97 445.24,-372.89 434.22,-361.95"/>
<polygon fill="#63b8ff" stroke="#63b8ff" points="436.43,-359.22 426.87,-354.67 431.51,-364.19 436.43,-359.22"/>
</a>
</g>
</g>
<!-- Node25&#45;&gt;Node5 -->
<g id="edge36_Node000025_Node000005" class="edge">
<title>Node25&#45;&gt;Node5</title>
<g id="a_edge36_Node000025_Node000005"><a xlink:title=" ">
<path fill="none" stroke="#63b8ff" d="M405.54,-395.98C331.54,-386.77 221.21,-371.84 180.13,-360 178.44,-359.52 176.73,-358.96 175.02,-358.36"/>
<polygon fill="#63b8ff" stroke="#63b8ff" points="176.01,-354.99 165.42,-354.56 173.43,-361.49 176.01,-354.99"/>
</a>
</g>
</g>
<!-- Node25&#45;&gt;Node6 -->
<g id="edge37_Node000025_Node000006" class="edge">
<title>Node25&#45;&gt;Node6</title>
<g id="a_edge37_Node000025_Node000006"><a xlink:title=" ">
<path fill="none" stroke="#63b8ff" d="M479.64,-395.87C482.02,-387.66 485.69,-375.04 488.74,-364.55"/>
<polygon fill="#63b8ff" stroke="#63b8ff" points="492.18,-365.25 491.61,-354.67 485.46,-363.29 492.18,-365.25"/>
</a>
</g>
</g>
<!-- Node25&#45;&gt;Node7 -->
<g id="edge38_Node000025_Node000007" class="edge">
<title>Node25&#45;&gt;Node7</title>
<g id="a_edge38_Node000025_Node000007"><a xlink:title=" ">
<path fill="none" stroke="#63b8ff" d="M448.05,-395.99C418.51,-387.35 371.96,-373.74 334.9,-362.9"/>
<polygon fill="#63b8ff" stroke="#63b8ff" points="335.79,-359.51 325.21,-360.06 333.83,-366.23 335.79,-359.51"/>
</a>
</g>
</g>
<!-- Node26&#45;&gt;Node8 -->
<g id="edge40_Node000026_Node000008" class="edge">
<title>Node26&#45;&gt;Node8</title>
<g id="a_edge40_Node000026_Node000008"><a xlink:title=" ">
<path fill="none" stroke="#63b8ff" d="M649.6,-274.98C627.65,-266.3 593.39,-252.75 568.44,-242.88"/>
<polygon fill="#63b8ff" stroke="#63b8ff" points="569.63,-239.59 559.05,-239.17 567.06,-246.1 569.63,-239.59"/>
</a>
</g>
</g>
<!-- Node27&#45;&gt;Node6 -->
<g id="edge42_Node000027_Node000006" class="edge">
<title>Node27&#45;&gt;Node6</title>
<g id="a_edge42_Node000027_Node000006"><a xlink:title=" ">
<path fill="none" stroke="#63b8ff" d="M709.48,-395.99C660.12,-384.53 573.04,-364.32 526.16,-353.44"/>
<polygon fill="#63b8ff" stroke="#63b8ff" points="526.78,-349.99 516.25,-351.14 525.2,-356.81 526.78,-349.99"/>
</a>
</g>
</g>
<!-- Node28 -->
<g id="Node000028" class="node">
<title>Node28</title>
<g id="a_Node000028"><a xlink:href="_base_component_8hpp.html" target="_top" xlink:title=" ">
<polygon fill="white" stroke="#666666" points="836.13,-354.5 654.13,-354.5 654.13,-335.5 836.13,-335.5 836.13,-354.5"/>
<text text-anchor="middle" x="745.13" y="-342.5" font-family="Helvetica,sans-Serif" font-size="10.00">Components/BaseComponent.hpp</text>
</a>
</g>
</g>
<!-- Node27&#45;&gt;Node28 -->
<g id="edge43_Node000027_Node000028" class="edge">
<title>Node27&#45;&gt;Node28</title>
<g id="a_edge43_Node000027_Node000028"><a xlink:title=" ">
<path fill="none" stroke="#63b8ff" d="M745.98,-395.87C745.84,-387.75 745.63,-375.31 745.45,-364.89"/>
<polygon fill="#63b8ff" stroke="#63b8ff" points="748.95,-364.61 745.28,-354.67 741.95,-364.73 748.95,-364.61"/>
</a>
</g>
</g>
<!-- Node28&#45;&gt;Node26 -->
<g id="edge44_Node000028_Node000026" class="edge">
<title>Node28&#45;&gt;Node26</title>
<g id="a_edge44_Node000028_Node000026"><a xlink:title=" ">
<path fill="none" stroke="#63b8ff" d="M734.21,-335.37C722.62,-326.21 704.09,-311.56 690.11,-300.51"/>
<polygon fill="#63b8ff" stroke="#63b8ff" points="692.11,-297.62 682.09,-294.17 687.76,-303.11 692.11,-297.62"/>
</a>
</g>
</g>
<!-- Node29&#45;&gt;Node8 -->
<g id="edge46_Node000029_Node000008" class="edge">
<title>Node29&#45;&gt;Node8</title>
<g id="a_edge46_Node000029_Node000008"><a xlink:title=" ">
<path fill="none" stroke="#63b8ff" d="M534.88,-450.8C546.96,-442.14 560.47,-429.87 567.13,-415 592.55,-358.21 585.31,-334.51 567.13,-275 564.04,-264.9 557.81,-255.02 551.82,-247.15"/>
<polygon fill="#63b8ff" stroke="#63b8ff" points="554.37,-244.74 545.34,-239.2 548.95,-249.16 554.37,-244.74"/>
</a>
</g>
</g>
<!-- Node30 -->
<g id="Node000030" class="node">
<title>Node30</title>
<g id="a_Node000030"><a xlink:href="_shader_8hpp.html" target="_top" xlink:title=" ">
<polygon fill="white" stroke="#666666" points="377.63,-415 234.63,-415 234.63,-396 377.63,-396 377.63,-415"/>
<text text-anchor="middle" x="306.13" y="-403" font-family="Helvetica,sans-Serif" font-size="10.00">AssetManager/Shader.hpp</text>
</a>
</g>
</g>
<!-- Node29&#45;&gt;Node30 -->
<g id="edge47_Node000029_Node000030" class="edge">
<title>Node29&#45;&gt;Node30</title>
<g id="a_edge47_Node000029_Node000030"><a xlink:title=" ">
<path fill="none" stroke="#63b8ff" d="M462.02,-450.99C426.49,-440.85 379.08,-427.32 345.91,-417.85"/>
<polygon fill="#63b8ff" stroke="#63b8ff" points="346.68,-414.43 336.1,-415.05 344.76,-421.16 346.68,-414.43"/>
</a>
</g>
</g>
<!-- Node30&#45;&gt;Node4 -->
<g id="edge48_Node000030_Node000004" class="edge">
<title>Node30&#45;&gt;Node4</title>
<g id="a_edge48_Node000030_Node000004"><a xlink:title=" ">
<path fill="none" stroke="#63b8ff" d="M322.65,-395.87C341.1,-386.23 371.17,-370.53 392.64,-359.31"/>
<polygon fill="#63b8ff" stroke="#63b8ff" points="394.29,-362.4 401.53,-354.67 391.05,-356.19 394.29,-362.4"/>
</a>
</g>
</g>
<!-- Node30&#45;&gt;Node7 -->
<g id="edge49_Node000030_Node000007" class="edge">
<title>Node30&#45;&gt;Node7</title>
<g id="a_edge49_Node000030_Node000007"><a xlink:title=" ">
<path fill="none" stroke="#63b8ff" d="M301.85,-395.87C298.35,-388.81 293.24,-378.5 288.57,-369.08"/>
<polygon fill="#63b8ff" stroke="#63b8ff" points="291.7,-367.52 284.12,-360.11 285.43,-370.63 291.7,-367.52"/>
</a>
</g>
</g>
</g>
</svg>
