<?xml version="1.0" encoding="UTF-8" standalone="no"?>
<!DOCTYPE svg PUBLIC "-//W3C//DTD SVG 1.1//EN"
 "http://www.w3.org/Graphics/SVG/1.1/DTD/svg11.dtd">
<!-- Generated by graphviz version 2.43.0 (0)
 -->
<!-- Title: src/ui/Common/AssetSelector.hpp Pages: 1 -->
<svg width="1872pt" height="489pt"
 viewBox="0.00 0.00 1872.41 489.00" xmlns="http://www.w3.org/2000/svg" xmlns:xlink="http://www.w3.org/1999/xlink">
<g id="graph0" class="graph" transform="scale(1 1) rotate(0) translate(4 485)">
<title>src/ui/Common/AssetSelector.hpp</title>
<!-- Node1 -->
<g id="Node000001" class="node">
<title>Node1</title>
<g id="a_Node000001"><a xlink:title=" ">
<polygon fill="#999999" stroke="#666666" points="935,-481 755,-481 755,-462 935,-462 935,-481"/>
<text text-anchor="middle" x="845" y="-469" font-family="Helvetica,sans-Serif" font-size="10.00">src/ui/Common/AssetSelector.hpp</text>
</a>
</g>
</g>
<!-- Node2 -->
<g id="Node000002" class="node">
<title>Node2</title>
<g id="a_Node000002"><a xlink:href="_asset_8hpp.html" target="_top" xlink:title=" ">
<polygon fill="white" stroke="#666666" points="1297.5,-299.5 1160.5,-299.5 1160.5,-280.5 1297.5,-280.5 1297.5,-299.5"/>
<text text-anchor="middle" x="1229" y="-287.5" font-family="Helvetica,sans-Serif" font-size="10.00">AssetManager/Asset.hpp</text>
</a>
</g>
</g>
<!-- Node1&#45;&gt;Node2 -->
<g id="edge1_Node000001_Node000002" class="edge">
<title>Node1&#45;&gt;Node2</title>
<g id="a_edge1_Node000001_Node000002"><a xlink:title=" ">
<path fill="none" stroke="#63b8ff" d="M935.21,-467.18C1002.67,-462.59 1096.43,-451.72 1175,-426 1223.58,-410.1 1249.89,-414.94 1276,-371 1289.34,-348.54 1266.92,-322.44 1248.69,-306.31"/>
<polygon fill="#63b8ff" stroke="#63b8ff" points="1250.67,-303.4 1240.76,-299.66 1246.17,-308.77 1250.67,-303.4"/>
</a>
</g>
</g>
<!-- Node4 -->
<g id="Node000004" class="node">
<title>Node4</title>
<g id="a_Node000004"><a xlink:href="_registry_8hpp.html" target="_top" xlink:title=" ">
<polygon fill="white" stroke="#666666" points="1555,-239 1457,-239 1457,-220 1555,-220 1555,-239"/>
<text text-anchor="middle" x="1506" y="-227" font-family="Helvetica,sans-Serif" font-size="10.00">ECS/Registry.hpp</text>
</a>
</g>
</g>
<!-- Node1&#45;&gt;Node4 -->
<g id="edge53_Node000001_Node000004" class="edge">
<title>Node1&#45;&gt;Node4</title>
<g id="a_edge53_Node000001_Node000004"><a xlink:title=" ">
<path fill="none" stroke="#63b8ff" d="M935.22,-470.81C1058.79,-469.73 1287.12,-462.35 1478,-426 1557.67,-410.83 1604.07,-436.42 1652,-371 1660.98,-358.75 1669.22,-299.26 1651,-275 1631.18,-248.61 1596.02,-237.39 1565.28,-232.82"/>
<polygon fill="#63b8ff" stroke="#63b8ff" points="1565.42,-229.31 1555.05,-231.51 1564.53,-236.25 1565.42,-229.31"/>
</a>
</g>
</g>
<!-- Node18 -->
<g id="Node000018" class="node">
<title>Node18</title>
<g id="a_Node000018"><a xlink:href="_mesh_8hpp.html" target="_top" xlink:title=" ">
<polygon fill="white" stroke="#666666" points="481.5,-426 344.5,-426 344.5,-407 481.5,-407 481.5,-426"/>
<text text-anchor="middle" x="413" y="-414" font-family="Helvetica,sans-Serif" font-size="10.00">AssetManager/Mesh.hpp</text>
</a>
</g>
</g>
<!-- Node1&#45;&gt;Node18 -->
<g id="edge23_Node000001_Node000018" class="edge">
<title>Node1&#45;&gt;Node18</title>
<g id="a_edge23_Node000001_Node000018"><a xlink:title=" ">
<path fill="none" stroke="#63b8ff" d="M775.59,-461.98C698.05,-452.47 572.8,-437.1 491.68,-427.15"/>
<polygon fill="#63b8ff" stroke="#63b8ff" points="491.87,-423.65 481.52,-425.91 491.02,-430.6 491.87,-423.65"/>
</a>
</g>
</g>
<!-- Node25 -->
<g id="Node000025" class="node">
<title>Node25</title>
<g id="a_Node000025"><a xlink:href="_texture_8hpp.html" target="_top" xlink:title=" ">
<polygon fill="white" stroke="#666666" points="146,-426 0,-426 0,-407 146,-407 146,-426"/>
<text text-anchor="middle" x="73" y="-414" font-family="Helvetica,sans-Serif" font-size="10.00">AssetManager/Texture.hpp</text>
</a>
</g>
</g>
<!-- Node1&#45;&gt;Node25 -->
<g id="edge33_Node000001_Node000025" class="edge">
<title>Node1&#45;&gt;Node25</title>
<g id="a_edge33_Node000001_Node000025"><a xlink:title=" ">
<path fill="none" stroke="#63b8ff" d="M754.77,-465.8C624.91,-458.79 377.5,-444.5 156.48,-426.09"/>
<polygon fill="#63b8ff" stroke="#63b8ff" points="156.56,-422.59 146.3,-425.24 155.98,-429.56 156.56,-422.59"/>
</a>
</g>
</g>
<!-- Node27 -->
<g id="Node000027" class="node">
<title>Node27</title>
<g id="a_Node000027"><a xlink:href="_wireframe_8hpp.html" target="_top" xlink:title=" ">
<polygon fill="white" stroke="#666666" points="326,-426 164,-426 164,-407 326,-407 326,-426"/>
<text text-anchor="middle" x="245" y="-414" font-family="Helvetica,sans-Serif" font-size="10.00">AssetManager/Wireframe.hpp</text>
</a>
</g>
</g>
<!-- Node1&#45;&gt;Node27 -->
<g id="edge38_Node000001_Node000027" class="edge">
<title>Node1&#45;&gt;Node27</title>
<g id="a_edge38_Node000001_Node000027"><a xlink:title=" ">
<path fill="none" stroke="#63b8ff" d="M754.88,-462.78C655.32,-454.22 489.95,-439.89 336.45,-426.04"/>
<polygon fill="#63b8ff" stroke="#63b8ff" points="336.64,-422.54 326.36,-425.12 336.01,-429.51 336.64,-422.54"/>
</a>
</g>
</g>
<!-- Node28 -->
<g id="Node000028" class="node">
<title>Node28</title>
<g id="a_Node000028"><a xlink:href="_types_8hpp.html" target="_top" xlink:title=" ">
<polygon fill="white" stroke="#666666" points="798.5,-299.5 685.5,-299.5 685.5,-280.5 798.5,-280.5 798.5,-299.5"/>
<text text-anchor="middle" x="742" y="-287.5" font-family="Helvetica,sans-Serif" font-size="10.00">Common/Types.hpp</text>
</a>
</g>
</g>
<!-- Node1&#45;&gt;Node28 -->
<g id="edge44_Node000001_Node000028" class="edge">
<title>Node1&#45;&gt;Node28</title>
<g id="a_edge44_Node000001_Node000028"><a xlink:title=" ">
<path fill="none" stroke="#63b8ff" d="M837.64,-461.96C823.6,-445.35 792.66,-407.15 773,-371 762.03,-350.82 753.02,-325.92 747.6,-309.31"/>
<polygon fill="#63b8ff" stroke="#63b8ff" points="750.92,-308.21 744.57,-299.73 744.25,-310.32 750.92,-308.21"/>
</a>
</g>
</g>
<!-- Node29 -->
<g id="Node000029" class="node">
<title>Node29</title>
<g id="a_Node000029"><a xlink:href="_asset_component_8hpp.html" target="_top" xlink:title=" ">
<polygon fill="white" stroke="#666666" points="1025,-371 855,-371 855,-341 1025,-341 1025,-371"/>
<text text-anchor="start" x="863" y="-359" font-family="Helvetica,sans-Serif" font-size="10.00">Components/AssetComponents</text>
<text text-anchor="middle" x="940" y="-348" font-family="Helvetica,sans-Serif" font-size="10.00">/AssetComponent.hpp</text>
</a>
</g>
</g>
<!-- Node1&#45;&gt;Node29 -->
<g id="edge46_Node000001_Node000029" class="edge">
<title>Node1&#45;&gt;Node29</title>
<g id="a_edge46_Node000001_Node000029"><a xlink:title=" ">
<path fill="none" stroke="#63b8ff" d="M852.14,-461.97C866.72,-444.55 900.31,-404.42 921.47,-379.13"/>
<polygon fill="#63b8ff" stroke="#63b8ff" points="924.4,-381.1 928.13,-371.18 919.03,-376.6 924.4,-381.1"/>
</a>
</g>
</g>
<!-- Node31 -->
<g id="Node000031" class="node">
<title>Node31</title>
<g id="a_Node000031"><a xlink:href="_name_component_8hpp.html" target="_top" xlink:title=" ">
<polygon fill="white" stroke="#666666" points="723,-426 535,-426 535,-407 723,-407 723,-426"/>
<text text-anchor="middle" x="629" y="-414" font-family="Helvetica,sans-Serif" font-size="10.00">Components/NameComponent.hpp</text>
</a>
</g>
</g>
<!-- Node1&#45;&gt;Node31 -->
<g id="edge49_Node000001_Node000031" class="edge">
<title>Node1&#45;&gt;Node31</title>
<g id="a_edge49_Node000001_Node000031"><a xlink:title=" ">
<path fill="none" stroke="#63b8ff" d="M810.3,-461.98C773.25,-452.89 714.41,-438.46 673.87,-428.51"/>
<polygon fill="#63b8ff" stroke="#63b8ff" points="674.52,-425.07 663.98,-426.08 672.85,-431.86 674.52,-425.07"/>
</a>
</g>
</g>
<!-- Node33 -->
<g id="Node000033" class="node">
<title>Node33</title>
<g id="a_Node000033"><a xlink:title=" ">
<polygon fill="#e0e0e0" stroke="#999999" points="1468.5,-426 1345.5,-426 1345.5,-407 1468.5,-407 1468.5,-426"/>
<text text-anchor="middle" x="1407" y="-414" font-family="Helvetica,sans-Serif" font-size="10.00">UI/Common/Style.hpp</text>
</a>
</g>
</g>
<!-- Node1&#45;&gt;Node33 -->
<g id="edge54_Node000001_Node000033" class="edge">
<title>Node1&#45;&gt;Node33</title>
<g id="a_edge54_Node000001_Node000033"><a xlink:title=" ">
<path fill="none" stroke="#63b8ff" d="M935.07,-462.8C1032.67,-454.32 1192.97,-440.04 1331,-426 1332.3,-425.87 1333.61,-425.73 1334.93,-425.6"/>
<polygon fill="#63b8ff" stroke="#63b8ff" points="1335.63,-429.04 1345.21,-424.52 1334.9,-422.08 1335.63,-429.04"/>
</a>
</g>
</g>
<!-- Node34 -->
<g id="Node000034" class="node">
<title>Node34</title>
<g id="a_Node000034"><a xlink:href="_asset_utils_8hpp.html" target="_top" xlink:title=" ">
<polygon fill="white" stroke="#666666" points="1165.5,-426 1052.5,-426 1052.5,-407 1165.5,-407 1165.5,-426"/>
<text text-anchor="middle" x="1109" y="-414" font-family="Helvetica,sans-Serif" font-size="10.00">Utils/AssetUtils.hpp</text>
</a>
</g>
</g>
<!-- Node1&#45;&gt;Node34 -->
<g id="edge55_Node000001_Node000034" class="edge">
<title>Node1&#45;&gt;Node34</title>
<g id="a_edge55_Node000001_Node000034"><a xlink:title=" ">
<path fill="none" stroke="#63b8ff" d="M887.42,-461.98C933.37,-452.76 1006.75,-438.03 1056.35,-428.07"/>
<polygon fill="#63b8ff" stroke="#63b8ff" points="1057.14,-431.48 1066.25,-426.08 1055.76,-424.62 1057.14,-431.48"/>
</a>
</g>
</g>
<!-- Node3 -->
<g id="Node000003" class="node">
<title>Node3</title>
<g id="a_Node000003"><a xlink:title=" ">
<polygon fill="#e0e0e0" stroke="#999999" points="818,-239 750,-239 750,-220 818,-220 818,-239"/>
<text text-anchor="middle" x="784" y="-227" font-family="Helvetica,sans-Serif" font-size="10.00">filesystem</text>
</a>
</g>
</g>
<!-- Node2&#45;&gt;Node3 -->
<g id="edge2_Node000002_Node000003" class="edge">
<title>Node2&#45;&gt;Node3</title>
<g id="a_edge2_Node000002_Node000003"><a xlink:title=" ">
<path fill="none" stroke="#63b8ff" d="M1184.11,-280.49C1173.29,-278.57 1161.75,-276.61 1151,-275 1034.94,-257.56 897.43,-242.33 828.33,-235.05"/>
<polygon fill="#63b8ff" stroke="#63b8ff" points="828.55,-231.56 818.24,-233.99 827.82,-238.52 828.55,-231.56"/>
</a>
</g>
</g>
<!-- Node2&#45;&gt;Node4 -->
<g id="edge3_Node000002_Node000004" class="edge">
<title>Node2&#45;&gt;Node4</title>
<g id="a_edge3_Node000002_Node000004"><a xlink:title=" ">
<path fill="none" stroke="#63b8ff" d="M1269.28,-280.49C1318.62,-270.07 1402.21,-252.42 1455.72,-241.12"/>
<polygon fill="#63b8ff" stroke="#63b8ff" points="1456.61,-244.51 1465.67,-239.02 1455.17,-237.66 1456.61,-244.51"/>
</a>
</g>
</g>
<!-- Node5 -->
<g id="Node000005" class="node">
<title>Node5</title>
<g id="a_Node000005"><a xlink:title=" ">
<polygon fill="#e0e0e0" stroke="#999999" points="1549,-129 1463,-129 1463,-110 1549,-110 1549,-129"/>
<text text-anchor="middle" x="1506" y="-117" font-family="Helvetica,sans-Serif" font-size="10.00">unordered_set</text>
</a>
</g>
</g>
<!-- Node4&#45;&gt;Node5 -->
<g id="edge4_Node000004_Node000005" class="edge">
<title>Node4&#45;&gt;Node5</title>
<g id="a_edge4_Node000004_Node000005"><a xlink:title=" ">
<path fill="none" stroke="#63b8ff" d="M1506,-219.66C1506,-202.17 1506,-162.8 1506,-139.27"/>
<polygon fill="#63b8ff" stroke="#63b8ff" points="1509.5,-139.16 1506,-129.16 1502.5,-139.16 1509.5,-139.16"/>
</a>
</g>
</g>
<!-- Node6 -->
<g id="Node000006" class="node">
<title>Node6</title>
<g id="a_Node000006"><a xlink:href="_logger_8hpp.html" target="_top" xlink:title=" ">
<polygon fill="white" stroke="#666666" points="1313.5,-184 1196.5,-184 1196.5,-165 1313.5,-165 1313.5,-184"/>
<text text-anchor="middle" x="1255" y="-172" font-family="Helvetica,sans-Serif" font-size="10.00">Common/Logger.hpp</text>
</a>
</g>
</g>
<!-- Node4&#45;&gt;Node6 -->
<g id="edge5_Node000004_Node000006" class="edge">
<title>Node4&#45;&gt;Node6</title>
<g id="a_edge5_Node000004_Node000006"><a xlink:title=" ">
<path fill="none" stroke="#63b8ff" d="M1465.67,-219.98C1422.16,-210.8 1352.8,-196.15 1305.65,-186.19"/>
<polygon fill="#63b8ff" stroke="#63b8ff" points="1306.15,-182.72 1295.64,-184.08 1304.7,-189.57 1306.15,-182.72"/>
</a>
</g>
</g>
<!-- Node9 -->
<g id="Node000009" class="node">
<title>Node9</title>
<g id="a_Node000009"><a xlink:href="_entity_8hpp.html" target="_top" xlink:title=" ">
<polygon fill="white" stroke="#666666" points="1725,-74 1639,-74 1639,-55 1725,-55 1725,-74"/>
<text text-anchor="middle" x="1682" y="-62" font-family="Helvetica,sans-Serif" font-size="10.00">ECS/Entity.hpp</text>
</a>
</g>
</g>
<!-- Node4&#45;&gt;Node9 -->
<g id="edge8_Node000004_Node000009" class="edge">
<title>Node4&#45;&gt;Node9</title>
<g id="a_edge8_Node000004_Node000009"><a xlink:title=" ">
<path fill="none" stroke="#63b8ff" d="M1555.04,-225.82C1646.87,-220.31 1837.35,-206.29 1857,-184 1872.62,-166.27 1859.96,-130.14 1839,-110 1811.32,-83.41 1768.96,-72.5 1735.22,-68.12"/>
<polygon fill="#63b8ff" stroke="#63b8ff" points="1735.38,-64.62 1725.05,-66.96 1734.59,-71.57 1735.38,-64.62"/>
</a>
</g>
</g>
<!-- Node11 -->
<g id="Node000011" class="node">
<title>Node11</title>
<g id="a_Node000011"><a xlink:href="_entity_hierarchy_8hpp.html" target="_top" xlink:title=" ">
<polygon fill="white" stroke="#666666" points="1668,-184 1534,-184 1534,-165 1668,-165 1668,-184"/>
<text text-anchor="middle" x="1601" y="-172" font-family="Helvetica,sans-Serif" font-size="10.00">ECS/EntityHierarchy.hpp</text>
</a>
</g>
</g>
<!-- Node4&#45;&gt;Node11 -->
<g id="edge10_Node000004_Node000011" class="edge">
<title>Node4&#45;&gt;Node11</title>
<g id="a_edge10_Node000004_Node000011"><a xlink:title=" ">
<path fill="none" stroke="#63b8ff" d="M1521.26,-219.98C1536.13,-211.69 1558.98,-198.94 1576.42,-189.22"/>
<polygon fill="#63b8ff" stroke="#63b8ff" points="1578.43,-192.1 1585.46,-184.17 1575.02,-185.99 1578.43,-192.1"/>
</a>
</g>
</g>
<!-- Node15 -->
<g id="Node000015" class="node">
<title>Node15</title>
<g id="a_Node000015"><a xlink:href="_entity_provider_8hpp.html" target="_top" xlink:title="Manages a pool of unused entity identifiers and provides mechanisms for requesting and removing them.">
<polygon fill="white" stroke="#666666" points="1445,-129 1317,-129 1317,-110 1445,-110 1445,-129"/>
<text text-anchor="middle" x="1381" y="-117" font-family="Helvetica,sans-Serif" font-size="10.00">ECS/EntityProvider.hpp</text>
</a>
</g>
</g>
<!-- Node4&#45;&gt;Node15 -->
<g id="edge16_Node000004_Node000015" class="edge">
<title>Node4&#45;&gt;Node15</title>
<g id="a_edge16_Node000004_Node000015"><a xlink:title=" ">
<path fill="none" stroke="#63b8ff" d="M1499.26,-219.63C1489.19,-206.71 1469.23,-182.37 1449,-165 1435.43,-153.35 1418.63,-142.33 1405.12,-134.17"/>
<polygon fill="#63b8ff" stroke="#63b8ff" points="1406.77,-131.08 1396.38,-129 1403.21,-137.1 1406.77,-131.08"/>
</a>
</g>
</g>
<!-- Node16 -->
<g id="Node000016" class="node">
<title>Node16</title>
<g id="a_Node000016"><a xlink:href="_singleton_component_8hpp.html" target="_top" xlink:title=" ">
<polygon fill="white" stroke="#666666" points="1847.5,-184 1686.5,-184 1686.5,-165 1847.5,-165 1847.5,-184"/>
<text text-anchor="middle" x="1767" y="-172" font-family="Helvetica,sans-Serif" font-size="10.00">ECS/SingletonComponent.hpp</text>
</a>
</g>
</g>
<!-- Node4&#45;&gt;Node16 -->
<g id="edge20_Node000004_Node000016" class="edge">
<title>Node4&#45;&gt;Node16</title>
<g id="a_edge20_Node000004_Node000016"><a xlink:title=" ">
<path fill="none" stroke="#63b8ff" d="M1547.93,-219.98C1593.27,-210.78 1665.61,-196.09 1714.65,-186.13"/>
<polygon fill="#63b8ff" stroke="#63b8ff" points="1715.63,-189.5 1724.74,-184.08 1714.24,-182.64 1715.63,-189.5"/>
</a>
</g>
</g>
<!-- Node17 -->
<g id="Node000017" class="node">
<title>Node17</title>
<g id="a_Node000017"><a xlink:href="_sparse_set_8hpp.html" target="_top" xlink:title=" ">
<polygon fill="white" stroke="#666666" points="1440,-184 1332,-184 1332,-165 1440,-165 1440,-184"/>
<text text-anchor="middle" x="1386" y="-172" font-family="Helvetica,sans-Serif" font-size="10.00">ECS/SparseSet.hpp</text>
</a>
</g>
</g>
<!-- Node4&#45;&gt;Node17 -->
<g id="edge21_Node000004_Node000017" class="edge">
<title>Node4&#45;&gt;Node17</title>
<g id="a_edge21_Node000004_Node000017"><a xlink:title=" ">
<path fill="none" stroke="#63b8ff" d="M1486.72,-219.98C1467.33,-211.42 1437.19,-198.11 1414.93,-188.28"/>
<polygon fill="#63b8ff" stroke="#63b8ff" points="1416.19,-185.01 1405.63,-184.17 1413.36,-191.41 1416.19,-185.01"/>
</a>
</g>
</g>
<!-- Node7 -->
<g id="Node000007" class="node">
<title>Node7</title>
<g id="a_Node000007"><a xlink:title=" ">
<polygon fill="#e0e0e0" stroke="#999999" points="1261,-129 1213,-129 1213,-110 1261,-110 1261,-129"/>
<text text-anchor="middle" x="1237" y="-117" font-family="Helvetica,sans-Serif" font-size="10.00">mutex</text>
</a>
</g>
</g>
<!-- Node6&#45;&gt;Node7 -->
<g id="edge6_Node000006_Node000007" class="edge">
<title>Node6&#45;&gt;Node7</title>
<g id="a_edge6_Node000006_Node000007"><a xlink:title=" ">
<path fill="none" stroke="#63b8ff" d="M1252.03,-164.75C1249.64,-157.72 1246.21,-147.62 1243.23,-138.84"/>
<polygon fill="#63b8ff" stroke="#63b8ff" points="1246.45,-137.43 1239.92,-129.09 1239.82,-139.68 1246.45,-137.43"/>
</a>
</g>
</g>
<!-- Node8 -->
<g id="Node000008" class="node">
<title>Node8</title>
<g id="a_Node000008"><a xlink:title=" ">
<polygon fill="#e0e0e0" stroke="#999999" points="1368.5,-74 1321.5,-74 1321.5,-55 1368.5,-55 1368.5,-74"/>
<text text-anchor="middle" x="1345" y="-62" font-family="Helvetica,sans-Serif" font-size="10.00">queue</text>
</a>
</g>
</g>
<!-- Node6&#45;&gt;Node8 -->
<g id="edge7_Node000006_Node000008" class="edge">
<title>Node6&#45;&gt;Node8</title>
<g id="a_edge7_Node000006_Node000008"><a xlink:title=" ">
<path fill="none" stroke="#63b8ff" d="M1262.37,-164.66C1277.4,-146.61 1311.85,-105.28 1331.19,-82.08"/>
<polygon fill="#63b8ff" stroke="#63b8ff" points="1334.07,-84.08 1337.78,-74.16 1328.69,-79.6 1334.07,-84.08"/>
</a>
</g>
</g>
<!-- Node10 -->
<g id="Node000010" class="node">
<title>Node10</title>
<g id="a_Node000010"><a xlink:title=" ">
<polygon fill="#e0e0e0" stroke="#999999" points="1575.5,-19 1522.5,-19 1522.5,0 1575.5,0 1575.5,-19"/>
<text text-anchor="middle" x="1549" y="-7" font-family="Helvetica,sans-Serif" font-size="10.00">stdlib.h</text>
</a>
</g>
</g>
<!-- Node9&#45;&gt;Node10 -->
<g id="edge9_Node000009_Node000010" class="edge">
<title>Node9&#45;&gt;Node10</title>
<g id="a_edge9_Node000009_Node000010"><a xlink:title=" ">
<path fill="none" stroke="#63b8ff" d="M1660.63,-54.98C1638.85,-46.3 1604.84,-32.75 1580.08,-22.88"/>
<polygon fill="#63b8ff" stroke="#63b8ff" points="1581.34,-19.62 1570.76,-19.17 1578.75,-26.12 1581.34,-19.62"/>
</a>
</g>
</g>
<!-- Node11&#45;&gt;Node5 -->
<g id="edge14_Node000011_Node000005" class="edge">
<title>Node11&#45;&gt;Node5</title>
<g id="a_edge14_Node000011_Node000005"><a xlink:title=" ">
<path fill="none" stroke="#63b8ff" d="M1585.74,-164.98C1570.87,-156.69 1548.02,-143.94 1530.58,-134.22"/>
<polygon fill="#63b8ff" stroke="#63b8ff" points="1531.98,-130.99 1521.54,-129.17 1528.57,-137.1 1531.98,-130.99"/>
</a>
</g>
</g>
<!-- Node11&#45;&gt;Node9 -->
<g id="edge15_Node000011_Node000009" class="edge">
<title>Node11&#45;&gt;Node9</title>
<g id="a_edge15_Node000011_Node000009"><a xlink:title=" ">
<path fill="none" stroke="#63b8ff" d="M1663.59,-164.99C1725.33,-155.96 1811.91,-141.32 1822,-129 1849.44,-95.48 1785.8,-78.94 1735.55,-71.32"/>
<polygon fill="#63b8ff" stroke="#63b8ff" points="1735.78,-67.82 1725.39,-69.87 1734.79,-74.75 1735.78,-67.82"/>
</a>
</g>
</g>
<!-- Node12 -->
<g id="Node000012" class="node">
<title>Node12</title>
<g id="a_Node000012"><a xlink:title=" ">
<polygon fill="#e0e0e0" stroke="#999999" points="1632.5,-129 1567.5,-129 1567.5,-110 1632.5,-110 1632.5,-129"/>
<text text-anchor="middle" x="1600" y="-117" font-family="Helvetica,sans-Serif" font-size="10.00">functional</text>
</a>
</g>
</g>
<!-- Node11&#45;&gt;Node12 -->
<g id="edge11_Node000011_Node000012" class="edge">
<title>Node11&#45;&gt;Node12</title>
<g id="a_edge11_Node000011_Node000012"><a xlink:title=" ">
<path fill="none" stroke="#63b8ff" d="M1600.83,-164.75C1600.7,-157.8 1600.52,-147.85 1600.35,-139.13"/>
<polygon fill="#63b8ff" stroke="#63b8ff" points="1603.85,-139.02 1600.16,-129.09 1596.85,-139.15 1603.85,-139.02"/>
</a>
</g>
</g>
<!-- Node13 -->
<g id="Node000013" class="node">
<title>Node13</title>
<g id="a_Node000013"><a xlink:title=" ">
<polygon fill="#e0e0e0" stroke="#999999" points="1701,-129 1651,-129 1651,-110 1701,-110 1701,-129"/>
<text text-anchor="middle" x="1676" y="-117" font-family="Helvetica,sans-Serif" font-size="10.00">ranges</text>
</a>
</g>
</g>
<!-- Node11&#45;&gt;Node13 -->
<g id="edge12_Node000011_Node000013" class="edge">
<title>Node11&#45;&gt;Node13</title>
<g id="a_edge12_Node000011_Node000013"><a xlink:title=" ">
<path fill="none" stroke="#63b8ff" d="M1613.05,-164.98C1624.46,-156.92 1641.83,-144.65 1655.43,-135.03"/>
<polygon fill="#63b8ff" stroke="#63b8ff" points="1657.58,-137.8 1663.73,-129.17 1653.54,-132.08 1657.58,-137.8"/>
</a>
</g>
</g>
<!-- Node14 -->
<g id="Node000014" class="node">
<title>Node14</title>
<g id="a_Node000014"><a xlink:title=" ">
<polygon fill="#e0e0e0" stroke="#999999" points="1812.5,-129 1719.5,-129 1719.5,-110 1812.5,-110 1812.5,-129"/>
<text text-anchor="middle" x="1766" y="-117" font-family="Helvetica,sans-Serif" font-size="10.00">unordered_map</text>
</a>
</g>
</g>
<!-- Node11&#45;&gt;Node14 -->
<g id="edge13_Node000011_Node000014" class="edge">
<title>Node11&#45;&gt;Node14</title>
<g id="a_edge13_Node000011_Node000014"><a xlink:title=" ">
<path fill="none" stroke="#63b8ff" d="M1627.51,-164.98C1655.21,-156.09 1698.86,-142.07 1729.74,-132.15"/>
<polygon fill="#63b8ff" stroke="#63b8ff" points="1730.83,-135.47 1739.28,-129.08 1728.69,-128.81 1730.83,-135.47"/>
</a>
</g>
</g>
<!-- Node15&#45;&gt;Node8 -->
<g id="edge18_Node000015_Node000008" class="edge">
<title>Node15&#45;&gt;Node8</title>
<g id="a_edge18_Node000015_Node000008"><a xlink:title=" ">
<path fill="none" stroke="#63b8ff" d="M1375.06,-109.75C1370.02,-102.34 1362.66,-91.5 1356.49,-82.41"/>
<polygon fill="#63b8ff" stroke="#63b8ff" points="1359.35,-80.39 1350.83,-74.09 1353.56,-84.33 1359.35,-80.39"/>
</a>
</g>
</g>
<!-- Node15&#45;&gt;Node9 -->
<g id="edge19_Node000015_Node000009" class="edge">
<title>Node15&#45;&gt;Node9</title>
<g id="a_edge19_Node000015_Node000009"><a xlink:title=" ">
<path fill="none" stroke="#63b8ff" d="M1429.36,-109.98C1483.8,-100.4 1572.01,-84.87 1628.48,-74.92"/>
<polygon fill="#63b8ff" stroke="#63b8ff" points="1629.4,-78.32 1638.64,-73.13 1628.19,-71.42 1629.4,-78.32"/>
</a>
</g>
</g>
<!-- Node15&#45;&gt;Node10 -->
<g id="edge17_Node000015_Node000010" class="edge">
<title>Node15&#45;&gt;Node10</title>
<g id="a_edge17_Node000015_Node000010"><a xlink:title=" ">
<path fill="none" stroke="#63b8ff" d="M1394.46,-109.84C1423.34,-91.28 1491.46,-47.49 1526.83,-24.75"/>
<polygon fill="#63b8ff" stroke="#63b8ff" points="1528.95,-27.55 1535.47,-19.2 1525.17,-21.66 1528.95,-27.55"/>
</a>
</g>
</g>
<!-- Node17&#45;&gt;Node15 -->
<g id="edge22_Node000017_Node000015" class="edge">
<title>Node17&#45;&gt;Node15</title>
<g id="a_edge22_Node000017_Node000015"><a xlink:title=" ">
<path fill="none" stroke="#63b8ff" d="M1385.17,-164.75C1384.52,-157.8 1383.58,-147.85 1382.76,-139.13"/>
<polygon fill="#63b8ff" stroke="#63b8ff" points="1386.23,-138.72 1381.81,-129.09 1379.27,-139.37 1386.23,-138.72"/>
</a>
</g>
</g>
<!-- Node18&#45;&gt;Node3 -->
<g id="edge25_Node000018_Node000003" class="edge">
<title>Node18&#45;&gt;Node3</title>
<g id="a_edge25_Node000018_Node000003"><a xlink:title=" ">
<path fill="none" stroke="#63b8ff" d="M430.55,-406.93C447.29,-398.5 473,-384.92 494,-371 511.94,-359.11 513.63,-352.21 532,-341 592.45,-304.13 612.08,-303.27 677,-275 702.59,-263.86 731.88,-251.72 753.33,-242.94"/>
<polygon fill="#63b8ff" stroke="#63b8ff" points="754.66,-246.18 762.6,-239.16 752.01,-239.7 754.66,-246.18"/>
</a>
</g>
</g>
<!-- Node19 -->
<g id="Node000019" class="node">
<title>Node19</title>
<g id="a_Node000019"><a xlink:title=" ">
<polygon fill="#e0e0e0" stroke="#999999" points="209.5,-365.5 138.5,-365.5 138.5,-346.5 209.5,-346.5 209.5,-365.5"/>
<text text-anchor="middle" x="174" y="-353.5" font-family="Helvetica,sans-Serif" font-size="10.00">glad/glad.h</text>
</a>
</g>
</g>
<!-- Node18&#45;&gt;Node19 -->
<g id="edge24_Node000018_Node000019" class="edge">
<title>Node18&#45;&gt;Node19</title>
<g id="a_edge24_Node000018_Node000019"><a xlink:title=" ">
<path fill="none" stroke="#63b8ff" d="M371.52,-406.94C332.09,-398.58 271.21,-385.09 219,-371 216.19,-370.24 213.28,-369.42 210.37,-368.57"/>
<polygon fill="#63b8ff" stroke="#63b8ff" points="211.14,-365.15 200.55,-365.63 209.13,-371.85 211.14,-365.15"/>
</a>
</g>
</g>
<!-- Node20 -->
<g id="Node000020" class="node">
<title>Node20</title>
<g id="a_Node000020"><a xlink:title=" ">
<polygon fill="#e0e0e0" stroke="#999999" points="143,-239 65,-239 65,-220 143,-220 143,-239"/>
<text text-anchor="middle" x="104" y="-227" font-family="Helvetica,sans-Serif" font-size="10.00">glm/glm.hpp</text>
</a>
</g>
</g>
<!-- Node18&#45;&gt;Node20 -->
<g id="edge26_Node000018_Node000020" class="edge">
<title>Node18&#45;&gt;Node20</title>
<g id="a_edge26_Node000018_Node000020"><a xlink:title=" ">
<path fill="none" stroke="#63b8ff" d="M412.11,-406.76C410.36,-392.34 405.58,-362.96 394,-341 375.78,-306.46 369.9,-294.39 336,-275 279,-242.39 202.55,-233.16 153.27,-230.83"/>
<polygon fill="#63b8ff" stroke="#63b8ff" points="153.32,-227.33 143.19,-230.43 153.04,-234.32 153.32,-227.33"/>
</a>
</g>
</g>
<!-- Node21 -->
<g id="Node000021" class="node">
<title>Node21</title>
<g id="a_Node000021"><a xlink:title=" ">
<polygon fill="#e0e0e0" stroke="#999999" points="485,-365.5 441,-365.5 441,-346.5 485,-346.5 485,-365.5"/>
<text text-anchor="middle" x="463" y="-353.5" font-family="Helvetica,sans-Serif" font-size="10.00">string</text>
</a>
</g>
</g>
<!-- Node18&#45;&gt;Node21 -->
<g id="edge27_Node000018_Node000021" class="edge">
<title>Node18&#45;&gt;Node21</title>
<g id="a_edge27_Node000018_Node000021"><a xlink:title=" ">
<path fill="none" stroke="#63b8ff" d="M420.38,-406.87C427.91,-398.05 439.79,-384.16 449.09,-373.27"/>
<polygon fill="#63b8ff" stroke="#63b8ff" points="451.76,-375.54 455.59,-365.67 446.43,-371 451.76,-375.54"/>
</a>
</g>
</g>
<!-- Node22 -->
<g id="Node000022" class="node">
<title>Node22</title>
<g id="a_Node000022"><a xlink:title=" ">
<polygon fill="#e0e0e0" stroke="#999999" points="274.5,-365.5 227.5,-365.5 227.5,-346.5 274.5,-346.5 274.5,-365.5"/>
<text text-anchor="middle" x="251" y="-353.5" font-family="Helvetica,sans-Serif" font-size="10.00">vector</text>
</a>
</g>
</g>
<!-- Node18&#45;&gt;Node22 -->
<g id="edge28_Node000018_Node000022" class="edge">
<title>Node18&#45;&gt;Node22</title>
<g id="a_edge28_Node000018_Node000022"><a xlink:title=" ">
<path fill="none" stroke="#63b8ff" d="M386.62,-406.99C360.41,-398.4 319.16,-384.51 284,-371 282.62,-370.47 281.21,-369.92 279.79,-369.35"/>
<polygon fill="#63b8ff" stroke="#63b8ff" points="281.03,-366.08 270.45,-365.52 278.37,-372.55 281.03,-366.08"/>
</a>
</g>
</g>
<!-- Node23 -->
<g id="Node000023" class="node">
<title>Node23</title>
<g id="a_Node000023"><a xlink:href="_a_a_b_b_8hpp.html" target="_top" xlink:title=" ">
<polygon fill="white" stroke="#666666" points="385,-365.5 293,-365.5 293,-346.5 385,-346.5 385,-365.5"/>
<text text-anchor="middle" x="339" y="-353.5" font-family="Helvetica,sans-Serif" font-size="10.00">Math/AABB.hpp</text>
</a>
</g>
</g>
<!-- Node18&#45;&gt;Node23 -->
<g id="edge29_Node000018_Node000023" class="edge">
<title>Node18&#45;&gt;Node23</title>
<g id="a_edge29_Node000018_Node000023"><a xlink:title=" ">
<path fill="none" stroke="#63b8ff" d="M402.08,-406.87C390.49,-397.71 371.97,-383.06 357.98,-372.01"/>
<polygon fill="#63b8ff" stroke="#63b8ff" points="359.98,-369.12 349.96,-365.67 355.64,-374.61 359.98,-369.12"/>
</a>
</g>
</g>
<!-- Node23&#45;&gt;Node20 -->
<g id="edge30_Node000023_Node000020" class="edge">
<title>Node23&#45;&gt;Node20</title>
<g id="a_edge30_Node000023_Node000020"><a xlink:title=" ">
<path fill="none" stroke="#63b8ff" d="M338.98,-346.28C338.43,-329.77 334.77,-293.9 314,-275 290.89,-253.97 207.95,-241.4 153.48,-235.22"/>
<polygon fill="#63b8ff" stroke="#63b8ff" points="153.64,-231.72 143.32,-234.11 152.88,-238.68 153.64,-231.72"/>
</a>
</g>
</g>
<!-- Node24 -->
<g id="Node000024" class="node">
<title>Node24</title>
<g id="a_Node000024"><a xlink:href="_ray_8hpp.html" target="_top" xlink:title=" ">
<polygon fill="white" stroke="#666666" points="145.5,-299.5 62.5,-299.5 62.5,-280.5 145.5,-280.5 145.5,-299.5"/>
<text text-anchor="middle" x="104" y="-287.5" font-family="Helvetica,sans-Serif" font-size="10.00">Math/Ray.hpp</text>
</a>
</g>
</g>
<!-- Node23&#45;&gt;Node24 -->
<g id="edge31_Node000023_Node000024" class="edge">
<title>Node23&#45;&gt;Node24</title>
<g id="a_edge31_Node000023_Node000024"><a xlink:title=" ">
<path fill="none" stroke="#63b8ff" d="M306.89,-346.42C269.98,-336.53 207.57,-319.74 154,-305 150.83,-304.13 147.54,-303.22 144.24,-302.3"/>
<polygon fill="#63b8ff" stroke="#63b8ff" points="144.97,-298.87 134.4,-299.56 143.09,-305.61 144.97,-298.87"/>
</a>
</g>
</g>
<!-- Node24&#45;&gt;Node20 -->
<g id="edge32_Node000024_Node000020" class="edge">
<title>Node24&#45;&gt;Node20</title>
<g id="a_edge32_Node000024_Node000020"><a xlink:title=" ">
<path fill="none" stroke="#63b8ff" d="M104,-280.37C104,-272.25 104,-259.81 104,-249.39"/>
<polygon fill="#63b8ff" stroke="#63b8ff" points="107.5,-249.17 104,-239.17 100.5,-249.17 107.5,-249.17"/>
</a>
</g>
</g>
<!-- Node25&#45;&gt;Node19 -->
<g id="edge34_Node000025_Node000019" class="edge">
<title>Node25&#45;&gt;Node19</title>
<g id="a_edge34_Node000025_Node000019"><a xlink:title=" ">
<path fill="none" stroke="#63b8ff" d="M87.9,-406.87C104.31,-397.36 130.93,-381.95 150.23,-370.77"/>
<polygon fill="#63b8ff" stroke="#63b8ff" points="152.14,-373.71 159.04,-365.67 148.63,-367.65 152.14,-373.71"/>
</a>
</g>
</g>
<!-- Node25&#45;&gt;Node20 -->
<g id="edge37_Node000025_Node000020" class="edge">
<title>Node25&#45;&gt;Node20</title>
<g id="a_edge37_Node000025_Node000020"><a xlink:title=" ">
<path fill="none" stroke="#63b8ff" d="M56.42,-406.87C43.83,-399.3 27.46,-387.01 20,-371 1.97,-332.33 -2,-311.56 20,-275 29.09,-259.89 45.22,-249.65 60.94,-242.83"/>
<polygon fill="#63b8ff" stroke="#63b8ff" points="62.58,-245.95 70.6,-239.02 60.01,-239.44 62.58,-245.95"/>
</a>
</g>
</g>
<!-- Node26 -->
<g id="Node000026" class="node">
<title>Node26</title>
<g id="a_Node000026"><a xlink:href="_image_8hpp.html" target="_top" xlink:title=" ">
<polygon fill="white" stroke="#666666" points="304.5,-299.5 163.5,-299.5 163.5,-280.5 304.5,-280.5 304.5,-299.5"/>
<text text-anchor="middle" x="234" y="-287.5" font-family="Helvetica,sans-Serif" font-size="10.00">AssetManager/Image.hpp</text>
</a>
</g>
</g>
<!-- Node25&#45;&gt;Node26 -->
<g id="edge35_Node000025_Node000026" class="edge">
<title>Node25&#45;&gt;Node26</title>
<g id="a_edge35_Node000025_Node000026"><a xlink:title=" ">
<path fill="none" stroke="#63b8ff" d="M73.26,-406.91C74.18,-391.64 78.26,-359.62 96,-341 114.7,-321.38 141.69,-309.43 166.85,-302.16"/>
<polygon fill="#63b8ff" stroke="#63b8ff" points="167.99,-305.48 176.75,-299.51 166.18,-298.72 167.99,-305.48"/>
</a>
</g>
</g>
<!-- Node26&#45;&gt;Node3 -->
<g id="edge36_Node000026_Node000003" class="edge">
<title>Node26&#45;&gt;Node3</title>
<g id="a_edge36_Node000026_Node000003"><a xlink:title=" ">
<path fill="none" stroke="#63b8ff" d="M304.56,-280.85C321.72,-278.9 340.01,-276.85 357,-275 496.59,-259.78 661.97,-242.86 739.59,-234.99"/>
<polygon fill="#63b8ff" stroke="#63b8ff" points="740.35,-238.43 749.95,-233.94 739.65,-231.46 740.35,-238.43"/>
</a>
</g>
</g>
<!-- Node27&#45;&gt;Node3 -->
<g id="edge40_Node000027_Node000003" class="edge">
<title>Node27&#45;&gt;Node3</title>
<g id="a_edge40_Node000027_Node000003"><a xlink:title=" ">
<path fill="none" stroke="#63b8ff" d="M185.53,-406.98C164.07,-400.71 141.95,-389.84 129,-371 121.45,-360.01 120.39,-351.18 129,-341 134,-335.08 592.97,-261.1 739.54,-237.61"/>
<polygon fill="#63b8ff" stroke="#63b8ff" points="740.23,-241.05 749.55,-236.01 739.12,-234.13 740.23,-241.05"/>
</a>
</g>
</g>
<!-- Node27&#45;&gt;Node19 -->
<g id="edge39_Node000027_Node000019" class="edge">
<title>Node27&#45;&gt;Node19</title>
<g id="a_edge39_Node000027_Node000019"><a xlink:title=" ">
<path fill="none" stroke="#63b8ff" d="M234.52,-406.87C223.51,-397.8 205.96,-383.34 192.59,-372.32"/>
<polygon fill="#63b8ff" stroke="#63b8ff" points="194.46,-369.33 184.52,-365.67 190.01,-374.73 194.46,-369.33"/>
</a>
</g>
</g>
<!-- Node27&#45;&gt;Node20 -->
<g id="edge41_Node000027_Node000020" class="edge">
<title>Node27&#45;&gt;Node20</title>
<g id="a_edge41_Node000027_Node000020"><a xlink:title=" ">
<path fill="none" stroke="#63b8ff" d="M182.56,-406.95C154.03,-400.64 121.09,-389.75 96,-371 58.55,-343.01 33.65,-317.56 53,-275 58.62,-262.63 69.57,-252.36 79.89,-244.81"/>
<polygon fill="#63b8ff" stroke="#63b8ff" points="81.96,-247.63 88.27,-239.12 78.03,-241.84 81.96,-247.63"/>
</a>
</g>
</g>
<!-- Node27&#45;&gt;Node21 -->
<g id="edge42_Node000027_Node000021" class="edge">
<title>Node27&#45;&gt;Node21</title>
<g id="a_edge42_Node000027_Node000021"><a xlink:title=" ">
<path fill="none" stroke="#63b8ff" d="M276.7,-406.99C317.96,-395.92 389.66,-376.68 431.05,-365.57"/>
<polygon fill="#63b8ff" stroke="#63b8ff" points="432.13,-368.91 440.88,-362.94 430.31,-362.15 432.13,-368.91"/>
</a>
</g>
</g>
<!-- Node27&#45;&gt;Node22 -->
<g id="edge43_Node000027_Node000022" class="edge">
<title>Node27&#45;&gt;Node22</title>
<g id="a_edge43_Node000027_Node000022"><a xlink:title=" ">
<path fill="none" stroke="#63b8ff" d="M245.89,-406.87C246.72,-398.75 247.99,-386.31 249.06,-375.89"/>
<polygon fill="#63b8ff" stroke="#63b8ff" points="252.57,-375.97 250.11,-365.67 245.61,-375.26 252.57,-375.97"/>
</a>
</g>
</g>
<!-- Node28&#45;&gt;Node3 -->
<g id="edge45_Node000028_Node000003" class="edge">
<title>Node28&#45;&gt;Node3</title>
<g id="a_edge45_Node000028_Node000003"><a xlink:title=" ">
<path fill="none" stroke="#63b8ff" d="M748.2,-280.37C754.4,-271.73 764.11,-258.2 771.86,-247.42"/>
<polygon fill="#63b8ff" stroke="#63b8ff" points="774.79,-249.33 777.78,-239.17 769.1,-245.25 774.79,-249.33"/>
</a>
</g>
</g>
<!-- Node29&#45;&gt;Node2 -->
<g id="edge47_Node000029_Node000002" class="edge">
<title>Node29&#45;&gt;Node2</title>
<g id="a_edge47_Node000029_Node000002"><a xlink:title=" ">
<path fill="none" stroke="#63b8ff" d="M1003.42,-340.95C1056.78,-329.14 1131.96,-312.49 1180.58,-301.72"/>
<polygon fill="#63b8ff" stroke="#63b8ff" points="1181.53,-305.1 1190.54,-299.52 1180.02,-298.26 1181.53,-305.1"/>
</a>
</g>
</g>
<!-- Node30 -->
<g id="Node000030" class="node">
<title>Node30</title>
<g id="a_Node000030"><a xlink:href="_asset_loader_8hpp.html" target="_top" xlink:title=" ">
<polygon fill="white" stroke="#666666" points="1031,-305 861,-305 861,-275 1031,-275 1031,-305"/>
<text text-anchor="start" x="869" y="-293" font-family="Helvetica,sans-Serif" font-size="10.00">Components/AssetComponents</text>
<text text-anchor="middle" x="946" y="-282" font-family="Helvetica,sans-Serif" font-size="10.00">/AssetLoader.hpp</text>
</a>
</g>
</g>
<!-- Node29&#45;&gt;Node30 -->
<g id="edge48_Node000029_Node000030" class="edge">
<title>Node29&#45;&gt;Node30</title>
<g id="a_edge48_Node000029_Node000030"><a xlink:title=" ">
<path fill="none" stroke="#63b8ff" d="M941.33,-340.8C942.04,-333.26 942.93,-323.78 943.74,-315.13"/>
<polygon fill="#63b8ff" stroke="#63b8ff" points="947.22,-315.45 944.67,-305.16 940.25,-314.79 947.22,-315.45"/>
</a>
</g>
</g>
<!-- Node31&#45;&gt;Node21 -->
<g id="edge50_Node000031_Node000021" class="edge">
<title>Node31&#45;&gt;Node21</title>
<g id="a_edge50_Node000031_Node000021"><a xlink:title=" ">
<path fill="none" stroke="#63b8ff" d="M604.86,-406.99C575.81,-396.76 526.95,-379.54 494.84,-368.22"/>
<polygon fill="#63b8ff" stroke="#63b8ff" points="495.64,-364.79 485.04,-364.77 493.31,-371.39 495.64,-364.79"/>
</a>
</g>
</g>
<!-- Node32 -->
<g id="Node000032" class="node">
<title>Node32</title>
<g id="a_Node000032"><a xlink:href="_base_component_8hpp.html" target="_top" xlink:title=" ">
<polygon fill="white" stroke="#666666" points="723,-365.5 541,-365.5 541,-346.5 723,-346.5 723,-365.5"/>
<text text-anchor="middle" x="632" y="-353.5" font-family="Helvetica,sans-Serif" font-size="10.00">Components/BaseComponent.hpp</text>
</a>
</g>
</g>
<!-- Node31&#45;&gt;Node32 -->
<g id="edge51_Node000031_Node000032" class="edge">
<title>Node31&#45;&gt;Node32</title>
<g id="a_edge51_Node000031_Node000032"><a xlink:title=" ">
<path fill="none" stroke="#63b8ff" d="M629.44,-406.87C629.86,-398.75 630.5,-386.31 631.03,-375.89"/>
<polygon fill="#63b8ff" stroke="#63b8ff" points="634.54,-375.83 631.56,-365.67 627.55,-375.47 634.54,-375.83"/>
</a>
</g>
</g>
<!-- Node32&#45;&gt;Node28 -->
<g id="edge52_Node000032_Node000028" class="edge">
<title>Node32&#45;&gt;Node28</title>
<g id="a_edge52_Node000032_Node000028"><a xlink:title=" ">
<path fill="none" stroke="#63b8ff" d="M646.84,-346.37C665.12,-335.73 696.44,-317.51 718.13,-304.89"/>
<polygon fill="#63b8ff" stroke="#63b8ff" points="720.17,-307.75 727.05,-299.7 716.64,-301.7 720.17,-307.75"/>
</a>
</g>
</g>
<!-- Node34&#45;&gt;Node2 -->
<g id="edge57_Node000034_Node000002" class="edge">
<title>Node34&#45;&gt;Node2</title>
<g id="a_edge57_Node000034_Node000002"><a xlink:title=" ">
<path fill="none" stroke="#63b8ff" d="M1165.76,-414.63C1198.92,-410.82 1238.4,-399.89 1260,-371 1274.43,-351.7 1258.24,-324.84 1244.37,-307.69"/>
<polygon fill="#63b8ff" stroke="#63b8ff" points="1246.67,-305 1237.5,-299.69 1241.36,-309.56 1246.67,-305"/>
</a>
</g>
</g>
<!-- Node34&#45;&gt;Node3 -->
<g id="edge56_Node000034_Node000003" class="edge">
<title>Node34&#45;&gt;Node3</title>
<g id="a_edge56_Node000034_Node000003"><a xlink:title=" ">
<path fill="none" stroke="#63b8ff" d="M1052.34,-412.35C984.72,-407.5 876.9,-396.03 846,-371 810.34,-342.12 827.37,-316.6 808,-275 803.79,-265.95 798.58,-256.15 794.09,-248.07"/>
<polygon fill="#63b8ff" stroke="#63b8ff" points="797.06,-246.2 789.09,-239.21 790.96,-249.64 797.06,-246.2"/>
</a>
</g>
</g>
<!-- Node34&#45;&gt;Node4 -->
<g id="edge69_Node000034_Node000004" class="edge">
<title>Node34&#45;&gt;Node4</title>
<g id="a_edge69_Node000034_Node000004"><a xlink:title=" ">
<path fill="none" stroke="#63b8ff" d="M1165.72,-412.7C1297.51,-405.92 1614.46,-387.93 1630,-371 1658.86,-339.57 1654.55,-309.9 1630,-275 1615.14,-253.87 1589.25,-242.73 1564.97,-236.87"/>
<polygon fill="#63b8ff" stroke="#63b8ff" points="1565.56,-233.41 1555.05,-234.73 1564.09,-240.26 1565.56,-233.41"/>
</a>
</g>
</g>
<!-- Node34&#45;&gt;Node28 -->
<g id="edge62_Node000034_Node000028" class="edge">
<title>Node34&#45;&gt;Node28</title>
<g id="a_edge62_Node000034_Node000028"><a xlink:title=" ">
<path fill="none" stroke="#63b8ff" d="M1052.44,-411.59C978.38,-405.7 853.25,-392.84 813,-371 785.9,-356.3 764.08,-327.01 752.1,-308.24"/>
<polygon fill="#63b8ff" stroke="#63b8ff" points="754.96,-306.22 746.75,-299.52 748.99,-309.88 754.96,-306.22"/>
</a>
</g>
</g>
<!-- Node34&#45;&gt;Node29 -->
<g id="edge63_Node000034_Node000029" class="edge">
<title>Node34&#45;&gt;Node29</title>
<g id="a_edge63_Node000034_Node000029"><a xlink:title=" ">
<path fill="none" stroke="#63b8ff" d="M1084.43,-406.99C1059.89,-398.5 1021.47,-385.2 990.42,-374.45"/>
<polygon fill="#63b8ff" stroke="#63b8ff" points="991.22,-371.03 980.63,-371.06 988.94,-377.64 991.22,-371.03"/>
</a>
</g>
</g>
<!-- Node34&#45;&gt;Node30 -->
<g id="edge64_Node000034_Node000030" class="edge">
<title>Node34&#45;&gt;Node30</title>
<g id="a_edge64_Node000034_Node000030"><a xlink:title=" ">
<path fill="none" stroke="#63b8ff" d="M1101.75,-406.94C1089.05,-392.26 1061.48,-361.86 1034,-341 1018.67,-329.36 1000.36,-318.53 984.41,-309.95"/>
<polygon fill="#63b8ff" stroke="#63b8ff" points="985.82,-306.73 975.34,-305.17 982.55,-312.93 985.82,-306.73"/>
</a>
</g>
</g>
<!-- Node35 -->
<g id="Node000035" class="node">
<title>Node35</title>
<g id="a_Node000035"><a xlink:href="_assert_8hpp.html" target="_top" xlink:title=" ">
<polygon fill="white" stroke="#666666" points="1621,-365.5 1505,-365.5 1505,-346.5 1621,-346.5 1621,-365.5"/>
<text text-anchor="middle" x="1563" y="-353.5" font-family="Helvetica,sans-Serif" font-size="10.00">Common/Assert.hpp</text>
</a>
</g>
</g>
<!-- Node34&#45;&gt;Node35 -->
<g id="edge58_Node000034_Node000035" class="edge">
<title>Node34&#45;&gt;Node35</title>
<g id="a_edge58_Node000034_Node000035"><a xlink:title=" ">
<path fill="none" stroke="#63b8ff" d="M1165.62,-410.63C1241.22,-403.74 1379.16,-389.88 1496,-371 1502.24,-369.99 1508.77,-368.8 1515.21,-367.54"/>
<polygon fill="#63b8ff" stroke="#63b8ff" points="1516.09,-370.94 1525.2,-365.53 1514.7,-364.07 1516.09,-370.94"/>
</a>
</g>
</g>
<!-- Node39 -->
<g id="Node000039" class="node">
<title>Node39</title>
<g id="a_Node000039"><a xlink:href="_directory_component_8hpp.html" target="_top" xlink:title=" ">
<polygon fill="white" stroke="#666666" points="1251,-371 1081,-371 1081,-341 1251,-341 1251,-371"/>
<text text-anchor="start" x="1089" y="-359" font-family="Helvetica,sans-Serif" font-size="10.00">Components/AssetComponents</text>
<text text-anchor="middle" x="1166" y="-348" font-family="Helvetica,sans-Serif" font-size="10.00">/DirectoryComponent.hpp</text>
</a>
</g>
</g>
<!-- Node34&#45;&gt;Node39 -->
<g id="edge65_Node000034_Node000039" class="edge">
<title>Node34&#45;&gt;Node39</title>
<g id="a_edge65_Node000034_Node000039"><a xlink:title=" ">
<path fill="none" stroke="#63b8ff" d="M1117.41,-406.87C1124.72,-399.37 1135.6,-388.2 1145.22,-378.33"/>
<polygon fill="#63b8ff" stroke="#63b8ff" points="1147.78,-380.72 1152.25,-371.11 1142.76,-375.83 1147.78,-380.72"/>
</a>
</g>
</g>
<!-- Node41 -->
<g id="Node000041" class="node">
<title>Node41</title>
<g id="a_Node000041"><a xlink:href="_builders_8hpp.html" target="_top" xlink:title=" ">
<polygon fill="white" stroke="#666666" points="1486.5,-365.5 1345.5,-365.5 1345.5,-346.5 1486.5,-346.5 1486.5,-365.5"/>
<text text-anchor="middle" x="1416" y="-353.5" font-family="Helvetica,sans-Serif" font-size="10.00">Serialization/Builders.hpp</text>
</a>
</g>
</g>
<!-- Node34&#45;&gt;Node41 -->
<g id="edge70_Node000034_Node000041" class="edge">
<title>Node34&#45;&gt;Node41</title>
<g id="a_edge70_Node000034_Node000041"><a xlink:title=" ">
<path fill="none" stroke="#63b8ff" d="M1153.64,-406.99C1208.66,-396.51 1302.13,-378.7 1361.38,-367.41"/>
<polygon fill="#63b8ff" stroke="#63b8ff" points="1362.14,-370.83 1371.31,-365.52 1360.83,-363.95 1362.14,-370.83"/>
</a>
</g>
</g>
<!-- Node36 -->
<g id="Node000036" class="node">
<title>Node36</title>
<g id="a_Node000036"><a xlink:title=" ">
<polygon fill="#e0e0e0" stroke="#999999" points="1620.5,-299.5 1553.5,-299.5 1553.5,-280.5 1620.5,-280.5 1620.5,-299.5"/>
<text text-anchor="middle" x="1587" y="-287.5" font-family="Helvetica,sans-Serif" font-size="10.00">fmt/core.h</text>
</a>
</g>
</g>
<!-- Node35&#45;&gt;Node36 -->
<g id="edge59_Node000035_Node000036" class="edge">
<title>Node35&#45;&gt;Node36</title>
<g id="a_edge59_Node000035_Node000036"><a xlink:title=" ">
<path fill="none" stroke="#63b8ff" d="M1566.24,-346.37C1569.76,-336.97 1575.5,-321.67 1580.05,-309.53"/>
<polygon fill="#63b8ff" stroke="#63b8ff" points="1583.43,-310.5 1583.66,-299.91 1576.87,-308.04 1583.43,-310.5"/>
</a>
</g>
</g>
<!-- Node37 -->
<g id="Node000037" class="node">
<title>Node37</title>
<g id="a_Node000037"><a xlink:title=" ">
<polygon fill="#e0e0e0" stroke="#999999" points="1535.5,-299.5 1470.5,-299.5 1470.5,-280.5 1535.5,-280.5 1535.5,-299.5"/>
<text text-anchor="middle" x="1503" y="-287.5" font-family="Helvetica,sans-Serif" font-size="10.00">exception</text>
</a>
</g>
</g>
<!-- Node35&#45;&gt;Node37 -->
<g id="edge60_Node000035_Node000037" class="edge">
<title>Node35&#45;&gt;Node37</title>
<g id="a_edge60_Node000035_Node000037"><a xlink:title=" ">
<path fill="none" stroke="#63b8ff" d="M1554.91,-346.37C1545.57,-336.4 1529.99,-319.79 1518.34,-307.36"/>
<polygon fill="#63b8ff" stroke="#63b8ff" points="1520.74,-304.81 1511.35,-299.91 1515.63,-309.59 1520.74,-304.81"/>
</a>
</g>
</g>
<!-- Node38 -->
<g id="Node000038" class="node">
<title>Node38</title>
<g id="a_Node000038"><a xlink:title=" ">
<polygon fill="#e0e0e0" stroke="#999999" points="1452,-299.5 1392,-299.5 1392,-280.5 1452,-280.5 1452,-299.5"/>
<text text-anchor="middle" x="1422" y="-287.5" font-family="Helvetica,sans-Serif" font-size="10.00">iostream</text>
</a>
</g>
</g>
<!-- Node35&#45;&gt;Node38 -->
<g id="edge61_Node000035_Node000038" class="edge">
<title>Node35&#45;&gt;Node38</title>
<g id="a_edge61_Node000035_Node000038"><a xlink:title=" ">
<path fill="none" stroke="#63b8ff" d="M1543.98,-346.37C1519.91,-335.44 1478.23,-316.52 1450.39,-303.88"/>
<polygon fill="#63b8ff" stroke="#63b8ff" points="1451.72,-300.65 1441.16,-299.7 1448.82,-307.02 1451.72,-300.65"/>
</a>
</g>
</g>
<!-- Node39&#45;&gt;Node2 -->
<g id="edge68_Node000039_Node000002" class="edge">
<title>Node39&#45;&gt;Node2</title>
<g id="a_edge68_Node000039_Node000002"><a xlink:title=" ">
<path fill="none" stroke="#63b8ff" d="M1179.98,-340.8C1189.8,-330.82 1202.96,-317.46 1213.17,-307.09"/>
<polygon fill="#63b8ff" stroke="#63b8ff" points="1215.77,-309.43 1220.29,-299.84 1210.78,-304.52 1215.77,-309.43"/>
</a>
</g>
</g>
<!-- Node39&#45;&gt;Node3 -->
<g id="edge66_Node000039_Node000003" class="edge">
<title>Node39&#45;&gt;Node3</title>
<g id="a_edge66_Node000039_Node000003"><a xlink:title=" ">
<path fill="none" stroke="#63b8ff" d="M1146.02,-340.94C1116.4,-320.35 1061.99,-283.5 1040,-275 969.14,-247.61 880.73,-237 828.52,-232.94"/>
<polygon fill="#63b8ff" stroke="#63b8ff" points="828.49,-229.43 818.27,-232.2 827.98,-236.41 828.49,-229.43"/>
</a>
</g>
</g>
<!-- Node40 -->
<g id="Node000040" class="node">
<title>Node40</title>
<g id="a_Node000040"><a xlink:title=" ">
<polygon fill="#e0e0e0" stroke="#999999" points="1142,-299.5 1104,-299.5 1104,-280.5 1142,-280.5 1142,-299.5"/>
<text text-anchor="middle" x="1123" y="-287.5" font-family="Helvetica,sans-Serif" font-size="10.00">map</text>
</a>
</g>
</g>
<!-- Node39&#45;&gt;Node40 -->
<g id="edge67_Node000039_Node000040" class="edge">
<title>Node39&#45;&gt;Node40</title>
<g id="a_edge67_Node000039_Node000040"><a xlink:title=" ">
<path fill="none" stroke="#63b8ff" d="M1156.46,-340.8C1150.02,-331.21 1141.48,-318.5 1134.64,-308.32"/>
<polygon fill="#63b8ff" stroke="#63b8ff" points="1137.42,-306.19 1128.94,-299.84 1131.61,-310.1 1137.42,-306.19"/>
</a>
</g>
</g>
<!-- Node41&#45;&gt;Node3 -->
<g id="edge71_Node000041_Node000003" class="edge">
<title>Node41&#45;&gt;Node3</title>
<g id="a_edge71_Node000041_Node000003"><a xlink:title=" ">
<path fill="none" stroke="#63b8ff" d="M1407.68,-346.28C1390.67,-329.08 1349.85,-291.08 1307,-275 1219.7,-242.24 937.75,-233.42 828.15,-231.2"/>
<polygon fill="#63b8ff" stroke="#63b8ff" points="828.16,-227.7 818.1,-231 828.03,-234.7 828.16,-227.7"/>
</a>
</g>
</g>
<!-- Node41&#45;&gt;Node4 -->
<g id="edge73_Node000041_Node000004" class="edge">
<title>Node41&#45;&gt;Node4</title>
<g id="a_edge73_Node000041_Node000004"><a xlink:title=" ">
<path fill="none" stroke="#63b8ff" d="M1407.28,-346.45C1392.72,-331.12 1366.6,-298.37 1383,-275 1397.62,-254.17 1423,-243.05 1446.93,-237.13"/>
<polygon fill="#63b8ff" stroke="#63b8ff" points="1447.7,-240.54 1456.71,-234.97 1446.19,-233.71 1447.7,-240.54"/>
</a>
</g>
</g>
<!-- Node41&#45;&gt;Node38 -->
<g id="edge72_Node000041_Node000038" class="edge">
<title>Node41&#45;&gt;Node38</title>
<g id="a_edge72_Node000041_Node000038"><a xlink:title=" ">
<path fill="none" stroke="#63b8ff" d="M1416.81,-346.37C1417.68,-337.07 1419.1,-321.98 1420.23,-309.9"/>
<polygon fill="#63b8ff" stroke="#63b8ff" points="1423.72,-310.19 1421.17,-299.91 1416.75,-309.53 1423.72,-310.19"/>
</a>
</g>
</g>
</g>
</svg>
