<?xml version="1.0" encoding="UTF-8" standalone="no"?>
<!DOCTYPE svg PUBLIC "-//W3C//DTD SVG 1.1//EN"
 "http://www.w3.org/Graphics/SVG/1.1/DTD/svg11.dtd">
<!-- Generated by graphviz version 2.43.0 (0)
 -->
<!-- Title: src/AssetManager/AssetManager.hpp Pages: 1 -->
<svg width="1296pt" height="95pt"
 viewBox="0.00 0.00 1295.50 95.00" xmlns="http://www.w3.org/2000/svg" xmlns:xlink="http://www.w3.org/1999/xlink">
<g id="graph0" class="graph" transform="scale(1 1) rotate(0) translate(4 91)">
<title>src/AssetManager/AssetManager.hpp</title>
<polygon fill="white" stroke="transparent" points="-4,4 -4,-91 1291.5,-91 1291.5,4 -4,4"/>
<!-- Node1 -->
<g id="node1" class="node">
<title>Node1</title>
<g id="a_node1"><a xlink:title=" ">
<polygon fill="#bfbfbf" stroke="black" points="511.5,-67.5 511.5,-86.5 708.5,-86.5 708.5,-67.5 511.5,-67.5"/>
<text text-anchor="middle" x="610" y="-74.5" font-family="Helvetica,sans-Serif" font-size="10.00">src/AssetManager/AssetManager.hpp</text>
</a>
</g>
</g>
<!-- Node2 -->
<g id="node2" class="node">
<title>Node2</title>
<g id="a_node2"><a xlink:href="_asset_manager_8cpp.html" target="_top" xlink:title=" ">
<polygon fill="white" stroke="black" points="0,-6 0,-25 196,-25 196,-6 0,-6"/>
<text text-anchor="middle" x="98" y="-13" font-family="Helvetica,sans-Serif" font-size="10.00">src/AssetManager/AssetManager.cpp</text>
</a>
</g>
</g>
<!-- Node1&#45;&gt;Node2 -->
<g id="edge1" class="edge">
<title>Node1&#45;&gt;Node2</title>
<path fill="none" stroke="midnightblue" d="M517.42,-66.42C435.08,-57.74 311.42,-44.3 204,-31 189.16,-29.16 173.17,-27.05 158.23,-25.01"/>
<polygon fill="midnightblue" stroke="midnightblue" points="517.19,-69.91 527.5,-67.48 517.92,-62.95 517.19,-69.91"/>
</g>
<!-- Node3 -->
<g id="node3" class="node">
<title>Node3</title>
<g id="a_node3"><a xlink:href="main_8cpp.html" target="_top" xlink:title=" ">
<polygon fill="white" stroke="black" points="213.5,-6 213.5,-25 292.5,-25 292.5,-6 213.5,-6"/>
<text text-anchor="middle" x="253" y="-13" font-family="Helvetica,sans-Serif" font-size="10.00">src/main.cpp</text>
</a>
</g>
</g>
<!-- Node1&#45;&gt;Node3 -->
<g id="edge2" class="edge">
<title>Node1&#45;&gt;Node3</title>
<path fill="none" stroke="midnightblue" d="M518.28,-66.27C456.46,-58.83 373.31,-47.09 301,-31 293.69,-29.37 285.88,-27.2 278.72,-25.04"/>
<polygon fill="midnightblue" stroke="midnightblue" points="518.06,-69.77 528.4,-67.47 518.88,-62.82 518.06,-69.77"/>
</g>
<!-- Node4 -->
<g id="node4" class="node">
<title>Node4</title>
<g id="a_node4"><a xlink:href="_development_renderer_system_8cpp.html" target="_top" xlink:title=" ">
<polygon fill="white" stroke="black" points="310.5,-0.5 310.5,-30.5 499.5,-30.5 499.5,-0.5 310.5,-0.5"/>
<text text-anchor="start" x="318.5" y="-18.5" font-family="Helvetica,sans-Serif" font-size="10.00">src/Systems/DevelopmentRenderer</text>
<text text-anchor="middle" x="405" y="-7.5" font-family="Helvetica,sans-Serif" font-size="10.00">System.cpp</text>
</a>
</g>
</g>
<!-- Node1&#45;&gt;Node4 -->
<g id="edge3" class="edge">
<title>Node1&#45;&gt;Node4</title>
<path fill="none" stroke="midnightblue" d="M570.75,-64.61C537.31,-54.9 489.12,-40.92 453.31,-30.52"/>
<polygon fill="midnightblue" stroke="midnightblue" points="570.05,-68.05 580.63,-67.48 572,-61.33 570.05,-68.05"/>
</g>
<!-- Node5 -->
<g id="node5" class="node">
<title>Node5</title>
<g id="a_node5"><a xlink:href="_rendering_system_8cpp.html" target="_top" xlink:title=" ">
<polygon fill="white" stroke="black" points="517.5,-6 517.5,-25 702.5,-25 702.5,-6 517.5,-6"/>
<text text-anchor="middle" x="610" y="-13" font-family="Helvetica,sans-Serif" font-size="10.00">src/Systems/RenderingSystem.cpp</text>
</a>
</g>
</g>
<!-- Node1&#45;&gt;Node5 -->
<g id="edge4" class="edge">
<title>Node1&#45;&gt;Node5</title>
<path fill="none" stroke="midnightblue" d="M610,-57.32C610,-46.5 610,-33.4 610,-25.01"/>
<polygon fill="midnightblue" stroke="midnightblue" points="606.5,-57.48 610,-67.48 613.5,-57.48 606.5,-57.48"/>
</g>
<!-- Node6 -->
<g id="node6" class="node">
<title>Node6</title>
<g id="a_node6"><a xlink:href="_model_component_u_i_8cpp.html" target="_top" xlink:title=" ">
<polygon fill="white" stroke="black" points="720.5,-0.5 720.5,-30.5 917.5,-30.5 917.5,-0.5 720.5,-0.5"/>
<text text-anchor="start" x="728.5" y="-18.5" font-family="Helvetica,sans-Serif" font-size="10.00">src/ui/Components/ModelComponent</text>
<text text-anchor="middle" x="819" y="-7.5" font-family="Helvetica,sans-Serif" font-size="10.00">UI.cpp</text>
</a>
</g>
</g>
<!-- Node1&#45;&gt;Node6 -->
<g id="edge5" class="edge">
<title>Node1&#45;&gt;Node6</title>
<path fill="none" stroke="midnightblue" d="M649.57,-64.73C683.68,-55.02 733.08,-40.96 769.74,-30.52"/>
<polygon fill="midnightblue" stroke="midnightblue" points="648.6,-61.37 639.94,-67.48 650.52,-68.1 648.6,-61.37"/>
</g>
<!-- Node7 -->
<g id="node7" class="node">
<title>Node7</title>
<g id="a_node7"><a xlink:href="_wireframe_component_u_i_8cpp.html" target="_top" xlink:title=" ">
<polygon fill="white" stroke="black" points="936,-0.5 936,-30.5 1098,-30.5 1098,-0.5 936,-0.5"/>
<text text-anchor="start" x="944" y="-18.5" font-family="Helvetica,sans-Serif" font-size="10.00">src/ui/Components/Wireframe</text>
<text text-anchor="middle" x="1017" y="-7.5" font-family="Helvetica,sans-Serif" font-size="10.00">ComponentUI.cpp</text>
</a>
</g>
</g>
<!-- Node1&#45;&gt;Node7 -->
<g id="edge6" class="edge">
<title>Node1&#45;&gt;Node7</title>
<path fill="none" stroke="midnightblue" d="M682.64,-66.08C746.93,-57.21 843.27,-43.69 927,-31 929.82,-30.57 932.68,-30.13 935.58,-29.69"/>
<polygon fill="midnightblue" stroke="midnightblue" points="682.03,-62.63 672.6,-67.47 682.99,-69.57 682.03,-62.63"/>
</g>
<!-- Node8 -->
<g id="node8" class="node">
<title>Node8</title>
<g id="a_node8"><a xlink:href="_scene_widget_8cpp.html" target="_top" xlink:title=" ">
<polygon fill="white" stroke="black" points="1116.5,-6 1116.5,-25 1287.5,-25 1287.5,-6 1116.5,-6"/>
<text text-anchor="middle" x="1202" y="-13" font-family="Helvetica,sans-Serif" font-size="10.00">src/ui/widgets/SceneWidget.cpp</text>
</a>
</g>
</g>
<!-- Node1&#45;&gt;Node8 -->
<g id="edge7" class="edge">
<title>Node1&#45;&gt;Node8</title>
<path fill="none" stroke="midnightblue" d="M718.93,-68.06C819.76,-60.26 973.75,-47.19 1107,-31 1120.91,-29.31 1135.92,-27.17 1149.81,-25.05"/>
<polygon fill="midnightblue" stroke="midnightblue" points="718.43,-64.59 708.73,-68.85 718.97,-71.57 718.43,-64.59"/>
</g>
</g>
</svg>
