<?xml version="1.0" encoding="UTF-8" standalone="no"?>
<!DOCTYPE svg PUBLIC "-//W3C//DTD SVG 1.1//EN"
 "http://www.w3.org/Graphics/SVG/1.1/DTD/svg11.dtd">
<!-- Generated by graphviz version 2.43.0 (0)
 -->
<!-- Title: src/Components/BaseComponent.hpp Pages: 1 -->
<svg width="1793pt" height="229pt"
 viewBox="0.00 0.00 1793.00 229.00" xmlns="http://www.w3.org/2000/svg" xmlns:xlink="http://www.w3.org/1999/xlink">
<g id="graph0" class="graph" transform="scale(1 1) rotate(0) translate(4 225)">
<title>src/Components/BaseComponent.hpp</title>
<polygon fill="white" stroke="transparent" points="-4,4 -4,-225 1789,-225 1789,4 -4,4"/>
<!-- Node1 -->
<g id="node1" class="node">
<title>Node1</title>
<g id="a_node1"><a xlink:title=" ">
<polygon fill="#bfbfbf" stroke="black" points="515.5,-201.5 515.5,-220.5 715.5,-220.5 715.5,-201.5 515.5,-201.5"/>
<text text-anchor="middle" x="615.5" y="-208.5" font-family="Helvetica,sans-Serif" font-size="10.00">src/Components/BaseComponent.hpp</text>
</a>
</g>
</g>
<!-- Node2 -->
<g id="node2" class="node">
<title>Node2</title>
<g id="a_node2"><a xlink:href="_model_component_8hpp.html" target="_top" xlink:title=" ">
<polygon fill="white" stroke="black" points="172.5,-73 172.5,-92 378.5,-92 378.5,-73 172.5,-73"/>
<text text-anchor="middle" x="275.5" y="-80" font-family="Helvetica,sans-Serif" font-size="10.00">src/Components/ModelComponent.hpp</text>
</a>
</g>
</g>
<!-- Node1&#45;&gt;Node2 -->
<g id="edge1" class="edge">
<title>Node1&#45;&gt;Node2</title>
<path fill="none" stroke="midnightblue" d="M582.99,-197.9C514.7,-172.5 357.79,-114.12 298.63,-92.11"/>
<polygon fill="midnightblue" stroke="midnightblue" points="581.8,-201.2 592.4,-201.4 584.25,-194.64 581.8,-201.2"/>
</g>
<!-- Node7 -->
<g id="node7" class="node">
<title>Node7</title>
<g id="a_node7"><a xlink:href="_name_component_8hpp.html" target="_top" xlink:title=" ">
<polygon fill="white" stroke="black" points="513,-140 513,-159 718,-159 718,-140 513,-140"/>
<text text-anchor="middle" x="615.5" y="-147" font-family="Helvetica,sans-Serif" font-size="10.00">src/Components/NameComponent.hpp</text>
</a>
</g>
</g>
<!-- Node1&#45;&gt;Node7 -->
<g id="edge6" class="edge">
<title>Node1&#45;&gt;Node7</title>
<path fill="none" stroke="midnightblue" d="M615.5,-191.32C615.5,-180.5 615.5,-167.4 615.5,-159.01"/>
<polygon fill="midnightblue" stroke="midnightblue" points="612,-191.48 615.5,-201.48 619,-191.48 612,-191.48"/>
</g>
<!-- Node10 -->
<g id="node10" class="node">
<title>Node10</title>
<g id="a_node10"><a xlink:href="_point_light_component_8hpp.html" target="_top" xlink:title=" ">
<polygon fill="white" stroke="black" points="7,-67.5 7,-97.5 154,-97.5 154,-67.5 7,-67.5"/>
<text text-anchor="start" x="15" y="-85.5" font-family="Helvetica,sans-Serif" font-size="10.00">src/Components/PointLight</text>
<text text-anchor="middle" x="80.5" y="-74.5" font-family="Helvetica,sans-Serif" font-size="10.00">Component.hpp</text>
</a>
</g>
</g>
<!-- Node1&#45;&gt;Node10 -->
<g id="edge11" class="edge">
<title>Node1&#45;&gt;Node10</title>
<path fill="none" stroke="midnightblue" d="M565.74,-199.38C524.38,-190.46 464.03,-177.26 411.5,-165 314.24,-142.3 201.38,-114.12 135.75,-97.54"/>
<polygon fill="midnightblue" stroke="midnightblue" points="565.05,-202.81 575.56,-201.49 566.52,-195.97 565.05,-202.81"/>
</g>
<!-- Node12 -->
<g id="node12" class="node">
<title>Node12</title>
<g id="a_node12"><a xlink:href="_transform_component_8hpp.html" target="_top" xlink:title=" ">
<polygon fill="white" stroke="black" points="873,-134.5 873,-164.5 1020,-164.5 1020,-134.5 873,-134.5"/>
<text text-anchor="start" x="881" y="-152.5" font-family="Helvetica,sans-Serif" font-size="10.00">src/Components/Transform</text>
<text text-anchor="middle" x="946.5" y="-141.5" font-family="Helvetica,sans-Serif" font-size="10.00">Component.hpp</text>
</a>
</g>
</g>
<!-- Node1&#45;&gt;Node12 -->
<g id="edge16" class="edge">
<title>Node1&#45;&gt;Node12</title>
<path fill="none" stroke="midnightblue" d="M672.93,-199.68C728.38,-189.71 812.58,-174.57 872.92,-163.73"/>
<polygon fill="midnightblue" stroke="midnightblue" points="672.15,-196.26 662.92,-201.48 673.39,-203.15 672.15,-196.26"/>
</g>
<!-- Node18 -->
<g id="node18" class="node">
<title>Node18</title>
<g id="a_node18"><a xlink:href="_wireframe_component_8hpp.html" target="_top" xlink:title=" ">
<polygon fill="white" stroke="black" points="1571.5,-67.5 1571.5,-97.5 1721.5,-97.5 1721.5,-67.5 1571.5,-67.5"/>
<text text-anchor="start" x="1579.5" y="-85.5" font-family="Helvetica,sans-Serif" font-size="10.00">src/Components/Wireframe</text>
<text text-anchor="middle" x="1646.5" y="-74.5" font-family="Helvetica,sans-Serif" font-size="10.00">Component.hpp</text>
</a>
</g>
</g>
<!-- Node1&#45;&gt;Node18 -->
<g id="edge29" class="edge">
<title>Node1&#45;&gt;Node18</title>
<path fill="none" stroke="midnightblue" d="M713.37,-200.48C885.66,-183.26 1254.17,-144.4 1563.5,-98 1566.1,-97.61 1568.75,-97.2 1571.43,-96.78"/>
<polygon fill="midnightblue" stroke="midnightblue" points="712.92,-197.01 703.31,-201.48 713.61,-203.97 712.92,-197.01"/>
</g>
<!-- Node3 -->
<g id="node3" class="node">
<title>Node3</title>
<g id="a_node3"><a xlink:href="main_8cpp.html" target="_top" xlink:title=" ">
<polygon fill="white" stroke="black" points="805,-6 805,-25 884,-25 884,-6 805,-6"/>
<text text-anchor="middle" x="844.5" y="-13" font-family="Helvetica,sans-Serif" font-size="10.00">src/main.cpp</text>
</a>
</g>
</g>
<!-- Node2&#45;&gt;Node3 -->
<g id="edge2" class="edge">
<title>Node2&#45;&gt;Node3</title>
<path fill="none" stroke="midnightblue" d="M349.74,-71.69C362.34,-70.08 375.29,-68.47 387.5,-67 468.14,-57.33 709.35,-31.12 804.9,-20.78"/>
<polygon fill="midnightblue" stroke="midnightblue" points="349.21,-68.23 339.74,-72.97 350.1,-75.17 349.21,-68.23"/>
</g>
<!-- Node4 -->
<g id="node4" class="node">
<title>Node4</title>
<g id="a_node4"><a xlink:href="_model_renderer_system_8cpp.html" target="_top" xlink:title=" ">
<polygon fill="white" stroke="black" points="392,-0.5 392,-30.5 545,-30.5 545,-0.5 392,-0.5"/>
<text text-anchor="start" x="400" y="-18.5" font-family="Helvetica,sans-Serif" font-size="10.00">src/Systems/ModelRenderer</text>
<text text-anchor="middle" x="468.5" y="-7.5" font-family="Helvetica,sans-Serif" font-size="10.00">System.cpp</text>
</a>
</g>
</g>
<!-- Node2&#45;&gt;Node4 -->
<g id="edge3" class="edge">
<title>Node2&#45;&gt;Node4</title>
<path fill="none" stroke="midnightblue" d="M310.74,-69.63C343.46,-58.61 392.21,-42.19 426.85,-30.53"/>
<polygon fill="midnightblue" stroke="midnightblue" points="309.49,-66.36 301.13,-72.87 311.72,-72.99 309.49,-66.36"/>
</g>
<!-- Node5 -->
<g id="node5" class="node">
<title>Node5</title>
<g id="a_node5"><a xlink:href="_model_component_u_i_8hpp.html" target="_top" xlink:title=" ">
<polygon fill="white" stroke="black" points="177,-0.5 177,-30.5 374,-30.5 374,-0.5 177,-0.5"/>
<text text-anchor="start" x="185" y="-18.5" font-family="Helvetica,sans-Serif" font-size="10.00">src/ui/Components/ModelComponent</text>
<text text-anchor="middle" x="275.5" y="-7.5" font-family="Helvetica,sans-Serif" font-size="10.00">UI.hpp</text>
</a>
</g>
</g>
<!-- Node2&#45;&gt;Node5 -->
<g id="edge4" class="edge">
<title>Node2&#45;&gt;Node5</title>
<path fill="none" stroke="midnightblue" d="M275.5,-62.41C275.5,-52.22 275.5,-39.9 275.5,-30.59"/>
<polygon fill="midnightblue" stroke="midnightblue" points="272,-62.73 275.5,-72.73 279,-62.73 272,-62.73"/>
</g>
<!-- Node6 -->
<g id="node6" class="node">
<title>Node6</title>
<g id="a_node6"><a xlink:href="_properties_widget_8cpp.html" target="_top" xlink:title=" ">
<polygon fill="white" stroke="black" points="563,-0.5 563,-30.5 700,-30.5 700,-0.5 563,-0.5"/>
<text text-anchor="start" x="571" y="-18.5" font-family="Helvetica,sans-Serif" font-size="10.00">src/ui/widgets/Properties</text>
<text text-anchor="middle" x="631.5" y="-7.5" font-family="Helvetica,sans-Serif" font-size="10.00">Widget.cpp</text>
</a>
</g>
</g>
<!-- Node2&#45;&gt;Node6 -->
<g id="edge5" class="edge">
<title>Node2&#45;&gt;Node6</title>
<path fill="none" stroke="midnightblue" d="M333.57,-71.11C390.02,-60.99 478.17,-45.09 554.5,-31 557.18,-30.51 559.9,-30 562.66,-29.49"/>
<polygon fill="midnightblue" stroke="midnightblue" points="332.63,-67.72 323.41,-72.93 333.87,-74.61 332.63,-67.72"/>
</g>
<!-- Node7&#45;&gt;Node3 -->
<g id="edge7" class="edge">
<title>Node7&#45;&gt;Node3</title>
<path fill="none" stroke="midnightblue" d="M619.55,-129.96C624.59,-111.34 635.01,-83.16 654.5,-67 697.46,-31.39 763.05,-20.66 804.84,-17.57"/>
<polygon fill="midnightblue" stroke="midnightblue" points="616.1,-129.35 617.13,-139.89 622.9,-131.01 616.1,-129.35"/>
</g>
<!-- Node7&#45;&gt;Node6 -->
<g id="edge9" class="edge">
<title>Node7&#45;&gt;Node6</title>
<path fill="none" stroke="midnightblue" d="M615.83,-129.89C616.32,-113.32 617.52,-88.45 620.5,-67 622.23,-54.56 625.35,-40.62 627.83,-30.55"/>
<polygon fill="midnightblue" stroke="midnightblue" points="612.33,-129.81 615.6,-139.89 619.33,-129.98 612.33,-129.81"/>
</g>
<!-- Node8 -->
<g id="node8" class="node">
<title>Node8</title>
<g id="a_node8"><a xlink:href="_objects_widget_8cpp.html" target="_top" xlink:title=" ">
<polygon fill="white" stroke="black" points="663,-73 663,-92 842,-92 842,-73 663,-73"/>
<text text-anchor="middle" x="752.5" y="-80" font-family="Helvetica,sans-Serif" font-size="10.00">src/ui/widgets/ObjectsWidget.cpp</text>
</a>
</g>
</g>
<!-- Node7&#45;&gt;Node8 -->
<g id="edge8" class="edge">
<title>Node7&#45;&gt;Node8</title>
<path fill="none" stroke="midnightblue" d="M643.02,-135.44C670.15,-122.57 710.86,-103.26 734.23,-92.17"/>
<polygon fill="midnightblue" stroke="midnightblue" points="641.23,-132.42 633.69,-139.87 644.23,-138.74 641.23,-132.42"/>
</g>
<!-- Node9 -->
<g id="node9" class="node">
<title>Node9</title>
<g id="a_node9"><a xlink:href="_scene_widget_8cpp.html" target="_top" xlink:title=" ">
<polygon fill="white" stroke="black" points="397,-73 397,-92 568,-92 568,-73 397,-73"/>
<text text-anchor="middle" x="482.5" y="-80" font-family="Helvetica,sans-Serif" font-size="10.00">src/ui/widgets/SceneWidget.cpp</text>
</a>
</g>
</g>
<!-- Node7&#45;&gt;Node9 -->
<g id="edge10" class="edge">
<title>Node7&#45;&gt;Node9</title>
<path fill="none" stroke="midnightblue" d="M588.78,-135.44C562.44,-122.57 522.93,-103.26 500.23,-92.17"/>
<polygon fill="midnightblue" stroke="midnightblue" points="587.32,-138.62 597.84,-139.87 590.39,-132.33 587.32,-138.62"/>
</g>
<!-- Node10&#45;&gt;Node3 -->
<g id="edge12" class="edge">
<title>Node10&#45;&gt;Node3</title>
<path fill="none" stroke="midnightblue" d="M164.39,-66.99C406.7,-38.41 470.53,-51.7 709.5,-31 741.67,-28.21 778.07,-24.26 804.96,-21.18"/>
<polygon fill="midnightblue" stroke="midnightblue" points="163.72,-63.54 154.21,-68.2 164.55,-70.49 163.72,-63.54"/>
</g>
<!-- Node10&#45;&gt;Node4 -->
<g id="edge13" class="edge">
<title>Node10&#45;&gt;Node4</title>
<path fill="none" stroke="midnightblue" d="M164.3,-66.87C262.4,-50.29 288.34,-46.68 382.5,-31 385.49,-30.5 388.53,-29.99 391.61,-29.48"/>
<polygon fill="midnightblue" stroke="midnightblue" points="163.53,-63.45 154.26,-68.57 164.7,-70.36 163.53,-63.45"/>
</g>
<!-- Node10&#45;&gt;Node6 -->
<g id="edge15" class="edge">
<title>Node10&#45;&gt;Node6</title>
<path fill="none" stroke="midnightblue" d="M164.22,-66.98C338.21,-44.37 384.88,-54.73 554.5,-31 557.19,-30.62 559.94,-30.22 562.71,-29.79"/>
<polygon fill="midnightblue" stroke="midnightblue" points="163.68,-63.53 154.22,-68.3 164.59,-70.47 163.68,-63.53"/>
</g>
<!-- Node11 -->
<g id="node11" class="node">
<title>Node11</title>
<g id="a_node11"><a xlink:href="_point_light_component_u_i_8hpp.html" target="_top" xlink:title=" ">
<polygon fill="white" stroke="black" points="0,-0.5 0,-30.5 159,-30.5 159,-0.5 0,-0.5"/>
<text text-anchor="start" x="8" y="-18.5" font-family="Helvetica,sans-Serif" font-size="10.00">src/ui/Components/PointLight</text>
<text text-anchor="middle" x="79.5" y="-7.5" font-family="Helvetica,sans-Serif" font-size="10.00">ComponentUI.hpp</text>
</a>
</g>
</g>
<!-- Node10&#45;&gt;Node11 -->
<g id="edge14" class="edge">
<title>Node10&#45;&gt;Node11</title>
<path fill="none" stroke="midnightblue" d="M80.12,-57.11C79.99,-48.15 79.84,-38.32 79.72,-30.58"/>
<polygon fill="midnightblue" stroke="midnightblue" points="76.63,-57.45 80.28,-67.4 83.63,-57.34 76.63,-57.45"/>
</g>
<!-- Node12&#45;&gt;Node3 -->
<g id="edge22" class="edge">
<title>Node12&#45;&gt;Node3</title>
<path fill="none" stroke="midnightblue" d="M943.89,-124.25C941.01,-106.9 935,-83.74 922.5,-67 907.83,-47.35 883.08,-33.23 865.4,-25"/>
<polygon fill="midnightblue" stroke="midnightblue" points="940.43,-124.79 945.31,-134.2 947.36,-123.8 940.43,-124.79"/>
</g>
<!-- Node12&#45;&gt;Node4 -->
<g id="edge24" class="edge">
<title>Node12&#45;&gt;Node4</title>
<path fill="none" stroke="midnightblue" d="M920.45,-127.96C909.24,-118.94 896.07,-108.13 884.5,-98 869.36,-84.75 869.73,-75.52 851.5,-67 731.05,-10.68 686.09,-50.06 554.5,-31 551.5,-30.57 548.45,-30.11 545.37,-29.64"/>
<polygon fill="midnightblue" stroke="midnightblue" points="918.59,-130.95 928.59,-134.46 922.96,-125.48 918.59,-130.95"/>
</g>
<!-- Node12&#45;&gt;Node6 -->
<g id="edge28" class="edge">
<title>Node12&#45;&gt;Node6</title>
<path fill="none" stroke="midnightblue" d="M935.16,-125.63C924.64,-106.88 907.2,-81.19 884.5,-67 828.86,-32.22 754.05,-20.7 700.23,-17.22"/>
<polygon fill="midnightblue" stroke="midnightblue" points="932.08,-127.3 939.89,-134.46 938.25,-123.99 932.08,-127.3"/>
</g>
<!-- Node12&#45;&gt;Node8 -->
<g id="edge27" class="edge">
<title>Node12&#45;&gt;Node8</title>
<path fill="none" stroke="midnightblue" d="M894.59,-131.11C856.85,-118.46 807.39,-101.89 777.89,-92.01"/>
<polygon fill="midnightblue" stroke="midnightblue" points="893.81,-134.54 904.4,-134.4 896.03,-127.9 893.81,-134.54"/>
</g>
<!-- Node13 -->
<g id="node13" class="node">
<title>Node13</title>
<g id="a_node13"><a xlink:href="_camera_component_8hpp.html" target="_top" xlink:title=" ">
<polygon fill="white" stroke="black" points="974.5,-73 974.5,-92 1188.5,-92 1188.5,-73 974.5,-73"/>
<text text-anchor="middle" x="1081.5" y="-80" font-family="Helvetica,sans-Serif" font-size="10.00">src/Components/CameraComponent.hpp</text>
</a>
</g>
</g>
<!-- Node12&#45;&gt;Node13 -->
<g id="edge17" class="edge">
<title>Node12&#45;&gt;Node13</title>
<path fill="none" stroke="midnightblue" d="M984.99,-129.97C1010.92,-117.48 1043.91,-101.6 1063.83,-92.01"/>
<polygon fill="midnightblue" stroke="midnightblue" points="983.28,-126.9 975.79,-134.4 986.32,-133.21 983.28,-126.9"/>
</g>
<!-- Node15 -->
<g id="node15" class="node">
<title>Node15</title>
<g id="a_node15"><a xlink:href="_wireframe_renderer_system_8cpp.html" target="_top" xlink:title=" ">
<polygon fill="white" stroke="black" points="1610,-0.5 1610,-30.5 1785,-30.5 1785,-0.5 1610,-0.5"/>
<text text-anchor="start" x="1618" y="-18.5" font-family="Helvetica,sans-Serif" font-size="10.00">src/Systems/WireframeRenderer</text>
<text text-anchor="middle" x="1697.5" y="-7.5" font-family="Helvetica,sans-Serif" font-size="10.00">System.cpp</text>
</a>
</g>
</g>
<!-- Node12&#45;&gt;Node15 -->
<g id="edge25" class="edge">
<title>Node12&#45;&gt;Node15</title>
<path fill="none" stroke="midnightblue" d="M1030.08,-146.16C1227.28,-140.22 1706.82,-123.26 1730.5,-98 1748.56,-78.74 1727.14,-48.29 1711.35,-30.57"/>
<polygon fill="midnightblue" stroke="midnightblue" points="1029.94,-142.66 1020.05,-146.46 1030.15,-149.66 1029.94,-142.66"/>
</g>
<!-- Node16 -->
<g id="node16" class="node">
<title>Node16</title>
<g id="a_node16"><a xlink:href="_camera_movement_system_8cpp.html" target="_top" xlink:title=" ">
<polygon fill="white" stroke="black" points="1206.5,-67.5 1206.5,-97.5 1376.5,-97.5 1376.5,-67.5 1206.5,-67.5"/>
<text text-anchor="start" x="1214.5" y="-85.5" font-family="Helvetica,sans-Serif" font-size="10.00">src/Systems/CameraMovement</text>
<text text-anchor="middle" x="1291.5" y="-74.5" font-family="Helvetica,sans-Serif" font-size="10.00">System.cpp</text>
</a>
</g>
</g>
<!-- Node12&#45;&gt;Node16 -->
<g id="edge23" class="edge">
<title>Node12&#45;&gt;Node16</title>
<path fill="none" stroke="midnightblue" d="M1030.17,-132.74C1087.24,-121.98 1162.15,-107.87 1217.13,-97.51"/>
<polygon fill="midnightblue" stroke="midnightblue" points="1029.27,-129.34 1020.09,-134.64 1030.56,-136.22 1029.27,-129.34"/>
</g>
<!-- Node17 -->
<g id="node17" class="node">
<title>Node17</title>
<g id="a_node17"><a xlink:href="_transform_component_u_i_8hpp.html" target="_top" xlink:title=" ">
<polygon fill="white" stroke="black" points="1395,-67.5 1395,-97.5 1554,-97.5 1554,-67.5 1395,-67.5"/>
<text text-anchor="start" x="1403" y="-85.5" font-family="Helvetica,sans-Serif" font-size="10.00">src/ui/Components/Transform</text>
<text text-anchor="middle" x="1474.5" y="-74.5" font-family="Helvetica,sans-Serif" font-size="10.00">ComponentUI.hpp</text>
</a>
</g>
</g>
<!-- Node12&#45;&gt;Node17 -->
<g id="edge26" class="edge">
<title>Node12&#45;&gt;Node17</title>
<path fill="none" stroke="midnightblue" d="M1030.01,-140.07C1118.44,-130.87 1262.03,-115.15 1385.5,-98 1388.6,-97.57 1391.76,-97.12 1394.95,-96.65"/>
<polygon fill="midnightblue" stroke="midnightblue" points="1029.62,-136.59 1020.04,-141.11 1030.34,-143.56 1029.62,-136.59"/>
</g>
<!-- Node13&#45;&gt;Node3 -->
<g id="edge18" class="edge">
<title>Node13&#45;&gt;Node3</title>
<path fill="none" stroke="midnightblue" d="M1040.2,-70.17C993.33,-57.32 917.94,-36.64 875.72,-25.06"/>
<polygon fill="midnightblue" stroke="midnightblue" points="1039.46,-73.6 1050.03,-72.87 1041.31,-66.85 1039.46,-73.6"/>
</g>
<!-- Node13&#45;&gt;Node4 -->
<g id="edge19" class="edge">
<title>Node13&#45;&gt;Node4</title>
<path fill="none" stroke="midnightblue" d="M964.08,-72.67C857.1,-64.05 694.86,-49.53 554.5,-31 551.5,-30.6 548.44,-30.18 545.35,-29.74"/>
<polygon fill="midnightblue" stroke="midnightblue" points="964.01,-76.17 974.26,-73.48 964.57,-69.2 964.01,-76.17"/>
</g>
<!-- Node14 -->
<g id="node14" class="node">
<title>Node14</title>
<g id="a_node14"><a xlink:href="_rendering_system_8cpp.html" target="_top" xlink:title=" ">
<polygon fill="white" stroke="black" points="989,-6 989,-25 1174,-25 1174,-6 989,-6"/>
<text text-anchor="middle" x="1081.5" y="-13" font-family="Helvetica,sans-Serif" font-size="10.00">src/Systems/RenderingSystem.cpp</text>
</a>
</g>
</g>
<!-- Node13&#45;&gt;Node14 -->
<g id="edge20" class="edge">
<title>Node13&#45;&gt;Node14</title>
<path fill="none" stroke="midnightblue" d="M1081.5,-62.54C1081.5,-50.17 1081.5,-34.62 1081.5,-25.13"/>
<polygon fill="midnightblue" stroke="midnightblue" points="1078,-62.73 1081.5,-72.73 1085,-62.73 1078,-62.73"/>
</g>
<!-- Node13&#45;&gt;Node15 -->
<g id="edge21" class="edge">
<title>Node13&#45;&gt;Node15</title>
<path fill="none" stroke="midnightblue" d="M1156.74,-71.7C1170.3,-70.05 1184.31,-68.41 1197.5,-67 1376.3,-47.84 1421.94,-52.3 1600.5,-31 1603.54,-30.64 1606.64,-30.25 1609.76,-29.85"/>
<polygon fill="midnightblue" stroke="midnightblue" points="1155.98,-68.27 1146.49,-72.97 1156.84,-75.22 1155.98,-68.27"/>
</g>
<!-- Node18&#45;&gt;Node3 -->
<g id="edge30" class="edge">
<title>Node18&#45;&gt;Node3</title>
<path fill="none" stroke="midnightblue" d="M1561.43,-66.83C1303.96,-37.02 1235.91,-52.49 980.5,-31 947.97,-28.26 911.15,-24.28 884.03,-21.18"/>
<polygon fill="midnightblue" stroke="midnightblue" points="1561.11,-70.32 1571.45,-68 1561.93,-63.37 1561.11,-70.32"/>
</g>
<!-- Node18&#45;&gt;Node6 -->
<g id="edge33" class="edge">
<title>Node18&#45;&gt;Node6</title>
<path fill="none" stroke="midnightblue" d="M1561.36,-66.85C1222.57,-30.03 1133.67,-53.72 796.5,-31 764.8,-28.86 729.72,-25.87 700.09,-23.16"/>
<polygon fill="midnightblue" stroke="midnightblue" points="1561.14,-70.34 1571.46,-67.95 1561.9,-63.38 1561.14,-70.34"/>
</g>
<!-- Node18&#45;&gt;Node15 -->
<g id="edge31" class="edge">
<title>Node18&#45;&gt;Node15</title>
<path fill="none" stroke="midnightblue" d="M1663.8,-59.45C1671.29,-49.9 1679.84,-39 1686.46,-30.58"/>
<polygon fill="midnightblue" stroke="midnightblue" points="1660.99,-57.37 1657.57,-67.4 1666.49,-61.69 1660.99,-57.37"/>
</g>
<!-- Node19 -->
<g id="node19" class="node">
<title>Node19</title>
<g id="a_node19"><a xlink:href="_wireframe_component_u_i_8hpp.html" target="_top" xlink:title=" ">
<polygon fill="white" stroke="black" points="1429.5,-0.5 1429.5,-30.5 1591.5,-30.5 1591.5,-0.5 1429.5,-0.5"/>
<text text-anchor="start" x="1437.5" y="-18.5" font-family="Helvetica,sans-Serif" font-size="10.00">src/ui/Components/Wireframe</text>
<text text-anchor="middle" x="1510.5" y="-7.5" font-family="Helvetica,sans-Serif" font-size="10.00">ComponentUI.hpp</text>
</a>
</g>
</g>
<!-- Node18&#45;&gt;Node19 -->
<g id="edge32" class="edge">
<title>Node18&#45;&gt;Node19</title>
<path fill="none" stroke="midnightblue" d="M1607.78,-62.99C1586.22,-52.69 1559.81,-40.07 1539.95,-30.58"/>
<polygon fill="midnightblue" stroke="midnightblue" points="1606.46,-66.24 1616.99,-67.4 1609.48,-59.93 1606.46,-66.24"/>
</g>
</g>
</svg>
