<?xml version="1.0" encoding="UTF-8" standalone="no"?>
<!DOCTYPE svg PUBLIC "-//W3C//DTD SVG 1.1//EN"
 "http://www.w3.org/Graphics/SVG/1.1/DTD/svg11.dtd">
<!-- Generated by graphviz version 2.43.0 (0)
 -->
<!-- Title: src/Components/BaseComponent.hpp Pages: 1 -->
<svg width="1950pt" height="229pt"
 viewBox="0.00 0.00 1950.27 229.00" xmlns="http://www.w3.org/2000/svg" xmlns:xlink="http://www.w3.org/1999/xlink">
<g id="graph0" class="graph" transform="scale(1 1) rotate(0) translate(4 225)">
<title>src/Components/BaseComponent.hpp</title>
<polygon fill="white" stroke="transparent" points="-4,4 -4,-225 1946.27,-225 1946.27,4 -4,4"/>
<!-- Node1 -->
<g id="node1" class="node">
<title>Node1</title>
<g id="a_node1"><a xlink:title=" ">
<polygon fill="#bfbfbf" stroke="black" points="770.77,-201.5 770.77,-220.5 970.77,-220.5 970.77,-201.5 770.77,-201.5"/>
<text text-anchor="middle" x="870.77" y="-208.5" font-family="Helvetica,sans-Serif" font-size="10.00">src/Components/BaseComponent.hpp</text>
</a>
</g>
</g>
<!-- Node2 -->
<g id="node2" class="node">
<title>Node2</title>
<g id="a_node2"><a xlink:href="_box_collider_component_8hpp.html" target="_top" xlink:title=" ">
<polygon fill="white" stroke="black" points="645.27,-67.5 645.27,-97.5 800.27,-97.5 800.27,-67.5 645.27,-67.5"/>
<text text-anchor="start" x="653.27" y="-85.5" font-family="Helvetica,sans-Serif" font-size="10.00">src/Components/BoxCollider</text>
<text text-anchor="middle" x="722.77" y="-74.5" font-family="Helvetica,sans-Serif" font-size="10.00">Component.hpp</text>
</a>
</g>
</g>
<!-- Node1&#45;&gt;Node2 -->
<g id="edge1" class="edge">
<title>Node1&#45;&gt;Node2</title>
<path fill="none" stroke="midnightblue" d="M852.93,-194.75C824.12,-170.12 767.75,-121.95 739.6,-97.89"/>
<polygon fill="midnightblue" stroke="midnightblue" points="850.72,-197.47 860.6,-201.31 855.27,-192.15 850.72,-197.47"/>
</g>
<!-- Node7 -->
<g id="node7" class="node">
<title>Node7</title>
<g id="a_node7"><a xlink:href="_model_component_8hpp.html" target="_top" xlink:title=" ">
<polygon fill="white" stroke="black" points="856.77,-73 856.77,-92 1062.77,-92 1062.77,-73 856.77,-73"/>
<text text-anchor="middle" x="959.77" y="-80" font-family="Helvetica,sans-Serif" font-size="10.00">src/Components/ModelComponent.hpp</text>
</a>
</g>
</g>
<!-- Node1&#45;&gt;Node7 -->
<g id="edge6" class="edge">
<title>Node1&#45;&gt;Node7</title>
<path fill="none" stroke="midnightblue" d="M882.65,-193.12C901.83,-165.86 938.96,-113.08 953.61,-92.26"/>
<polygon fill="midnightblue" stroke="midnightblue" points="879.78,-191.11 876.89,-201.31 885.5,-195.14 879.78,-191.11"/>
</g>
<!-- Node10 -->
<g id="node10" class="node">
<title>Node10</title>
<g id="a_node10"><a xlink:href="_name_component_8hpp.html" target="_top" xlink:title=" ">
<polygon fill="white" stroke="black" points="278.27,-140 278.27,-159 483.27,-159 483.27,-140 278.27,-140"/>
<text text-anchor="middle" x="380.77" y="-147" font-family="Helvetica,sans-Serif" font-size="10.00">src/Components/NameComponent.hpp</text>
</a>
</g>
</g>
<!-- Node1&#45;&gt;Node10 -->
<g id="edge12" class="edge">
<title>Node1&#45;&gt;Node10</title>
<path fill="none" stroke="midnightblue" d="M790.49,-200.25C696.01,-188.78 540.66,-169.91 450.85,-159.01"/>
<polygon fill="midnightblue" stroke="midnightblue" points="790.22,-203.74 800.57,-201.48 791.06,-196.8 790.22,-203.74"/>
</g>
<!-- Node13 -->
<g id="node13" class="node">
<title>Node13</title>
<g id="a_node13"><a xlink:href="_point_light_component_8hpp.html" target="_top" xlink:title=" ">
<polygon fill="white" stroke="black" points="16.27,-67.5 16.27,-97.5 163.27,-97.5 163.27,-67.5 16.27,-67.5"/>
<text text-anchor="start" x="24.27" y="-85.5" font-family="Helvetica,sans-Serif" font-size="10.00">src/Components/PointLight</text>
<text text-anchor="middle" x="89.77" y="-74.5" font-family="Helvetica,sans-Serif" font-size="10.00">Component.hpp</text>
</a>
</g>
</g>
<!-- Node1&#45;&gt;Node13 -->
<g id="edge17" class="edge">
<title>Node1&#45;&gt;Node13</title>
<path fill="none" stroke="midnightblue" d="M760.59,-206.4C612.87,-200.77 358.77,-188.07 268.77,-165 210.06,-149.95 146.71,-116.59 113.38,-97.54"/>
<polygon fill="midnightblue" stroke="midnightblue" points="760.48,-209.9 770.6,-206.77 760.74,-202.9 760.48,-209.9"/>
</g>
<!-- Node15 -->
<g id="node15" class="node">
<title>Node15</title>
<g id="a_node15"><a xlink:href="_transform_component_8hpp.html" target="_top" xlink:title=" ">
<polygon fill="white" stroke="black" points="1185.27,-134.5 1185.27,-164.5 1332.27,-164.5 1332.27,-134.5 1185.27,-134.5"/>
<text text-anchor="start" x="1193.27" y="-152.5" font-family="Helvetica,sans-Serif" font-size="10.00">src/Components/Transform</text>
<text text-anchor="middle" x="1258.77" y="-141.5" font-family="Helvetica,sans-Serif" font-size="10.00">Component.hpp</text>
</a>
</g>
</g>
<!-- Node1&#45;&gt;Node15 -->
<g id="edge22" class="edge">
<title>Node1&#45;&gt;Node15</title>
<path fill="none" stroke="midnightblue" d="M936.65,-199.9C1005.53,-189.34 1113.37,-172.8 1185.04,-161.81"/>
<polygon fill="midnightblue" stroke="midnightblue" points="935.72,-196.5 926.36,-201.48 936.78,-203.42 935.72,-196.5"/>
</g>
<!-- Node21 -->
<g id="node21" class="node">
<title>Node21</title>
<g id="a_node21"><a xlink:href="_wireframe_component_8hpp.html" target="_top" xlink:title=" ">
<polygon fill="white" stroke="black" points="1080.77,-67.5 1080.77,-97.5 1230.77,-97.5 1230.77,-67.5 1080.77,-67.5"/>
<text text-anchor="start" x="1088.77" y="-85.5" font-family="Helvetica,sans-Serif" font-size="10.00">src/Components/Wireframe</text>
<text text-anchor="middle" x="1155.77" y="-74.5" font-family="Helvetica,sans-Serif" font-size="10.00">Component.hpp</text>
</a>
</g>
</g>
<!-- Node1&#45;&gt;Node21 -->
<g id="edge38" class="edge">
<title>Node1&#45;&gt;Node21</title>
<path fill="none" stroke="midnightblue" d="M899.64,-197.19C953.28,-173.38 1067.93,-122.49 1123.82,-97.68"/>
<polygon fill="midnightblue" stroke="midnightblue" points="898.08,-194.05 890.36,-201.31 900.92,-200.45 898.08,-194.05"/>
</g>
<!-- Node3 -->
<g id="node3" class="node">
<title>Node3</title>
<g id="a_node3"><a xlink:href="main_8cpp.html" target="_top" xlink:title=" ">
<polygon fill="white" stroke="black" points="637.27,-6 637.27,-25 716.27,-25 716.27,-6 637.27,-6"/>
<text text-anchor="middle" x="676.77" y="-13" font-family="Helvetica,sans-Serif" font-size="10.00">src/main.cpp</text>
</a>
</g>
</g>
<!-- Node2&#45;&gt;Node3 -->
<g id="edge2" class="edge">
<title>Node2&#45;&gt;Node3</title>
<path fill="none" stroke="midnightblue" d="M706.83,-58.97C698.59,-47.33 689.01,-33.8 682.92,-25.19"/>
<polygon fill="midnightblue" stroke="midnightblue" points="704.16,-61.26 712.79,-67.4 709.87,-57.21 704.16,-61.26"/>
</g>
<!-- Node4 -->
<g id="node4" class="node">
<title>Node4</title>
<g id="a_node4"><a xlink:href="_object_selection_system_8cpp.html" target="_top" xlink:title=" ">
<polygon fill="white" stroke="black" points="1301.27,-0.5 1301.27,-30.5 1456.27,-30.5 1456.27,-0.5 1301.27,-0.5"/>
<text text-anchor="start" x="1309.27" y="-18.5" font-family="Helvetica,sans-Serif" font-size="10.00">src/Systems/ObjectSelection</text>
<text text-anchor="middle" x="1378.77" y="-7.5" font-family="Helvetica,sans-Serif" font-size="10.00">System.cpp</text>
</a>
</g>
</g>
<!-- Node2&#45;&gt;Node4 -->
<g id="edge3" class="edge">
<title>Node2&#45;&gt;Node4</title>
<path fill="none" stroke="midnightblue" d="M810.4,-70.95C822.94,-69.55 835.68,-68.19 847.77,-67 1044.8,-47.59 1095.29,-55.3 1291.77,-31 1294.81,-30.62 1297.91,-30.22 1301.03,-29.79"/>
<polygon fill="midnightblue" stroke="midnightblue" points="809.95,-67.47 800.41,-72.07 810.74,-74.43 809.95,-67.47"/>
</g>
<!-- Node5 -->
<g id="node5" class="node">
<title>Node5</title>
<g id="a_node5"><a xlink:href="_model_component_u_i_8cpp.html" target="_top" xlink:title=" ">
<polygon fill="white" stroke="black" points="422.27,-0.5 422.27,-30.5 619.27,-30.5 619.27,-0.5 422.27,-0.5"/>
<text text-anchor="start" x="430.27" y="-18.5" font-family="Helvetica,sans-Serif" font-size="10.00">src/ui/Components/ModelComponent</text>
<text text-anchor="middle" x="520.77" y="-7.5" font-family="Helvetica,sans-Serif" font-size="10.00">UI.cpp</text>
</a>
</g>
</g>
<!-- Node2&#45;&gt;Node5 -->
<g id="edge4" class="edge">
<title>Node2&#45;&gt;Node5</title>
<path fill="none" stroke="midnightblue" d="M669.09,-64.23C636.42,-53.71 595.2,-40.45 564.52,-30.58"/>
<polygon fill="midnightblue" stroke="midnightblue" points="668.35,-67.66 678.94,-67.4 670.49,-61 668.35,-67.66"/>
</g>
<!-- Node6 -->
<g id="node6" class="node">
<title>Node6</title>
<g id="a_node6"><a xlink:href="_properties_widget_8cpp.html" target="_top" xlink:title=" ">
<polygon fill="white" stroke="black" points="267.27,-0.5 267.27,-30.5 404.27,-30.5 404.27,-0.5 267.27,-0.5"/>
<text text-anchor="start" x="275.27" y="-18.5" font-family="Helvetica,sans-Serif" font-size="10.00">src/ui/widgets/Properties</text>
<text text-anchor="middle" x="335.77" y="-7.5" font-family="Helvetica,sans-Serif" font-size="10.00">Widget.cpp</text>
</a>
</g>
</g>
<!-- Node2&#45;&gt;Node6 -->
<g id="edge5" class="edge">
<title>Node2&#45;&gt;Node6</title>
<path fill="none" stroke="midnightblue" d="M634.87,-67.43C558.66,-55.18 454.28,-38.29 412.77,-31 410.09,-30.53 407.36,-30.04 404.6,-29.55"/>
<polygon fill="midnightblue" stroke="midnightblue" points="634.53,-70.92 644.96,-69.05 635.64,-64.01 634.53,-70.92"/>
</g>
<!-- Node7&#45;&gt;Node3 -->
<g id="edge7" class="edge">
<title>Node7&#45;&gt;Node3</title>
<path fill="none" stroke="midnightblue" d="M905.46,-70.98C857.86,-61.48 786.92,-46.62 725.77,-31 718.81,-29.22 711.35,-27.12 704.4,-25.07"/>
<polygon fill="midnightblue" stroke="midnightblue" points="905.06,-74.47 915.55,-72.99 906.42,-67.61 905.06,-74.47"/>
</g>
<!-- Node7&#45;&gt;Node4 -->
<g id="edge9" class="edge">
<title>Node7&#45;&gt;Node4</title>
<path fill="none" stroke="midnightblue" d="M1027.41,-71.5C1094.53,-61.51 1200.32,-45.58 1291.77,-31 1294.8,-30.52 1297.88,-30.02 1300.99,-29.52"/>
<polygon fill="midnightblue" stroke="midnightblue" points="1026.76,-68.06 1017.39,-72.99 1027.79,-74.98 1026.76,-68.06"/>
</g>
<!-- Node7&#45;&gt;Node6 -->
<g id="edge11" class="edge">
<title>Node7&#45;&gt;Node6</title>
<path fill="none" stroke="midnightblue" d="M862.31,-71.99C844.82,-70.31 826.76,-68.59 809.77,-67 633.37,-50.48 588.25,-55.42 412.77,-31 410.08,-30.62 407.33,-30.22 404.56,-29.79"/>
<polygon fill="midnightblue" stroke="midnightblue" points="862.24,-75.5 872.53,-72.98 862.91,-68.54 862.24,-75.5"/>
</g>
<!-- Node8 -->
<g id="node8" class="node">
<title>Node8</title>
<g id="a_node8"><a xlink:href="_model_renderer_system_8cpp.html" target="_top" xlink:title=" ">
<polygon fill="white" stroke="black" points="949.27,-0.5 949.27,-30.5 1102.27,-30.5 1102.27,-0.5 949.27,-0.5"/>
<text text-anchor="start" x="957.27" y="-18.5" font-family="Helvetica,sans-Serif" font-size="10.00">src/Systems/ModelRenderer</text>
<text text-anchor="middle" x="1025.77" y="-7.5" font-family="Helvetica,sans-Serif" font-size="10.00">System.cpp</text>
</a>
</g>
</g>
<!-- Node7&#45;&gt;Node8 -->
<g id="edge8" class="edge">
<title>Node7&#45;&gt;Node8</title>
<path fill="none" stroke="midnightblue" d="M975.9,-65.62C986.77,-54.91 1000.99,-40.9 1011.47,-30.59"/>
<polygon fill="midnightblue" stroke="midnightblue" points="973.34,-63.22 968.67,-72.73 978.25,-68.21 973.34,-63.22"/>
</g>
<!-- Node9 -->
<g id="node9" class="node">
<title>Node9</title>
<g id="a_node9"><a xlink:href="_model_component_u_i_8hpp.html" target="_top" xlink:title=" ">
<polygon fill="white" stroke="black" points="734.27,-0.5 734.27,-30.5 931.27,-30.5 931.27,-0.5 734.27,-0.5"/>
<text text-anchor="start" x="742.27" y="-18.5" font-family="Helvetica,sans-Serif" font-size="10.00">src/ui/Components/ModelComponent</text>
<text text-anchor="middle" x="832.77" y="-7.5" font-family="Helvetica,sans-Serif" font-size="10.00">UI.hpp</text>
</a>
</g>
</g>
<!-- Node7&#45;&gt;Node9 -->
<g id="edge10" class="edge">
<title>Node7&#45;&gt;Node9</title>
<path fill="none" stroke="midnightblue" d="M933.77,-68.19C912.41,-57.26 882.22,-41.81 860.42,-30.65"/>
<polygon fill="midnightblue" stroke="midnightblue" points="932.41,-71.43 942.91,-72.87 935.6,-65.2 932.41,-71.43"/>
</g>
<!-- Node10&#45;&gt;Node3 -->
<g id="edge13" class="edge">
<title>Node10&#45;&gt;Node3</title>
<path fill="none" stroke="midnightblue" d="M379.6,-129.62C379.55,-110.93 382.67,-82.89 399.77,-67 437.5,-31.93 578.55,-42.48 628.77,-31 635.98,-29.35 643.7,-27.2 650.79,-25.06"/>
<polygon fill="midnightblue" stroke="midnightblue" points="376.11,-129.97 379.94,-139.85 383.11,-129.74 376.11,-129.97"/>
</g>
<!-- Node10&#45;&gt;Node6 -->
<g id="edge15" class="edge">
<title>Node10&#45;&gt;Node6</title>
<path fill="none" stroke="midnightblue" d="M267.67,-140.68C163.96,-132.33 23.91,-117.6 6.77,-98 -2.3,-87.63 -2.2,-77.46 6.77,-67 23.49,-47.51 175.61,-30.74 267.03,-22.31"/>
<polygon fill="midnightblue" stroke="midnightblue" points="267.66,-144.19 277.91,-141.5 268.22,-137.21 267.66,-144.19"/>
</g>
<!-- Node11 -->
<g id="node11" class="node">
<title>Node11</title>
<g id="a_node11"><a xlink:href="_objects_widget_8cpp.html" target="_top" xlink:title=" ">
<polygon fill="white" stroke="black" points="409.27,-73 409.27,-92 588.27,-92 588.27,-73 409.27,-73"/>
<text text-anchor="middle" x="498.77" y="-80" font-family="Helvetica,sans-Serif" font-size="10.00">src/ui/widgets/ObjectsWidget.cpp</text>
</a>
</g>
</g>
<!-- Node10&#45;&gt;Node11 -->
<g id="edge14" class="edge">
<title>Node10&#45;&gt;Node11</title>
<path fill="none" stroke="midnightblue" d="M405.66,-134.79C429.05,-121.9 463.33,-103.02 483.11,-92.13"/>
<polygon fill="midnightblue" stroke="midnightblue" points="403.76,-131.84 396.68,-139.73 407.13,-137.97 403.76,-131.84"/>
</g>
<!-- Node12 -->
<g id="node12" class="node">
<title>Node12</title>
<g id="a_node12"><a xlink:href="_scene_widget_8cpp.html" target="_top" xlink:title=" ">
<polygon fill="white" stroke="black" points="181.27,-73 181.27,-92 352.27,-92 352.27,-73 181.27,-73"/>
<text text-anchor="middle" x="266.77" y="-80" font-family="Helvetica,sans-Serif" font-size="10.00">src/ui/widgets/SceneWidget.cpp</text>
</a>
</g>
</g>
<!-- Node10&#45;&gt;Node12 -->
<g id="edge16" class="edge">
<title>Node10&#45;&gt;Node12</title>
<path fill="none" stroke="midnightblue" d="M356.42,-134.62C333.83,-121.74 300.93,-102.98 281.9,-92.13"/>
<polygon fill="midnightblue" stroke="midnightblue" points="354.98,-137.82 365.4,-139.73 358.44,-131.74 354.98,-137.82"/>
</g>
<!-- Node13&#45;&gt;Node3 -->
<g id="edge18" class="edge">
<title>Node13&#45;&gt;Node3</title>
<path fill="none" stroke="midnightblue" d="M173.53,-66.86C375.67,-42.1 431.77,-68.07 628.77,-31 636.47,-29.55 644.69,-27.33 652.11,-25.06"/>
<polygon fill="midnightblue" stroke="midnightblue" points="172.96,-63.41 163.48,-68.12 173.83,-70.35 172.96,-63.41"/>
</g>
<!-- Node13&#45;&gt;Node6 -->
<g id="edge21" class="edge">
<title>Node13&#45;&gt;Node6</title>
<path fill="none" stroke="midnightblue" d="M152.53,-64.92C192.68,-54.31 244.19,-40.7 282.37,-30.61"/>
<polygon fill="midnightblue" stroke="midnightblue" points="151.62,-61.54 142.85,-67.48 153.41,-68.31 151.62,-61.54"/>
</g>
<!-- Node13&#45;&gt;Node8 -->
<g id="edge19" class="edge">
<title>Node13&#45;&gt;Node8</title>
<path fill="none" stroke="midnightblue" d="M173.6,-66.89C513.58,-29.88 603.93,-67.48 940.77,-31 943.45,-30.71 946.17,-30.39 948.92,-30.04"/>
<polygon fill="midnightblue" stroke="midnightblue" points="173.02,-63.43 163.46,-68.01 173.79,-70.39 173.02,-63.43"/>
</g>
<!-- Node14 -->
<g id="node14" class="node">
<title>Node14</title>
<g id="a_node14"><a xlink:href="_point_light_component_u_i_8hpp.html" target="_top" xlink:title=" ">
<polygon fill="white" stroke="black" points="10.27,-0.5 10.27,-30.5 169.27,-30.5 169.27,-0.5 10.27,-0.5"/>
<text text-anchor="start" x="18.27" y="-18.5" font-family="Helvetica,sans-Serif" font-size="10.00">src/ui/Components/PointLight</text>
<text text-anchor="middle" x="89.77" y="-7.5" font-family="Helvetica,sans-Serif" font-size="10.00">ComponentUI.hpp</text>
</a>
</g>
</g>
<!-- Node13&#45;&gt;Node14 -->
<g id="edge20" class="edge">
<title>Node13&#45;&gt;Node14</title>
<path fill="none" stroke="midnightblue" d="M89.77,-57.11C89.77,-48.15 89.77,-38.32 89.77,-30.58"/>
<polygon fill="midnightblue" stroke="midnightblue" points="86.27,-57.4 89.77,-67.4 93.27,-57.4 86.27,-57.4"/>
</g>
<!-- Node15&#45;&gt;Node2 -->
<g id="edge23" class="edge">
<title>Node15&#45;&gt;Node2</title>
<path fill="none" stroke="midnightblue" d="M1175.12,-140.07C1085.76,-130.81 940.06,-114.99 814.77,-98 810.12,-97.37 805.35,-96.7 800.54,-96"/>
<polygon fill="midnightblue" stroke="midnightblue" points="1174.89,-143.57 1185.19,-141.11 1175.61,-136.6 1174.89,-143.57"/>
</g>
<!-- Node15&#45;&gt;Node3 -->
<g id="edge30" class="edge">
<title>Node15&#45;&gt;Node3</title>
<path fill="none" stroke="midnightblue" d="M1175.19,-143.71C1072.53,-136.88 904.96,-122.4 847.77,-98 827.72,-89.45 828.65,-77.9 809.77,-67 790.95,-56.13 735.14,-36.34 702.1,-25.03"/>
<polygon fill="midnightblue" stroke="midnightblue" points="1175.02,-147.21 1185.23,-144.37 1175.48,-140.22 1175.02,-147.21"/>
</g>
<!-- Node15&#45;&gt;Node4 -->
<g id="edge33" class="edge">
<title>Node15&#45;&gt;Node4</title>
<path fill="none" stroke="midnightblue" d="M1272.32,-125.57C1282.99,-108.48 1298.84,-85.08 1315.77,-67 1328.61,-53.29 1345.27,-40.1 1358.23,-30.64"/>
<polygon fill="midnightblue" stroke="midnightblue" points="1269.19,-123.98 1266.95,-134.34 1275.16,-127.64 1269.19,-123.98"/>
</g>
<!-- Node15&#45;&gt;Node6 -->
<g id="edge37" class="edge">
<title>Node15&#45;&gt;Node6</title>
<path fill="none" stroke="midnightblue" d="M1174.78,-147.58C1028.31,-145 732.63,-135.2 636.77,-98 615.8,-89.86 617.26,-76.28 596.77,-67 594.55,-65.99 481.18,-44.24 404.61,-29.62"/>
<polygon fill="midnightblue" stroke="midnightblue" points="1175,-151.08 1185.06,-147.75 1175.12,-144.08 1175,-151.08"/>
</g>
<!-- Node15&#45;&gt;Node8 -->
<g id="edge32" class="edge">
<title>Node15&#45;&gt;Node8</title>
<path fill="none" stroke="midnightblue" d="M1259.54,-124.15C1258.75,-106.01 1254.62,-81.89 1239.77,-67 1229.78,-56.98 1159.59,-41.63 1102.28,-30.48"/>
<polygon fill="midnightblue" stroke="midnightblue" points="1256.04,-124.33 1259.67,-134.28 1263.04,-124.24 1256.04,-124.33"/>
</g>
<!-- Node15&#45;&gt;Node11 -->
<g id="edge36" class="edge">
<title>Node15&#45;&gt;Node11</title>
<path fill="none" stroke="midnightblue" d="M1174.59,-143.69C1049.61,-136.16 807.67,-120.15 602.77,-98 587.36,-96.33 570.72,-94.18 555.37,-92.04"/>
<polygon fill="midnightblue" stroke="midnightblue" points="1174.66,-147.2 1184.85,-144.3 1175.08,-140.21 1174.66,-147.2"/>
</g>
<!-- Node16 -->
<g id="node16" class="node">
<title>Node16</title>
<g id="a_node16"><a xlink:href="_camera_component_8hpp.html" target="_top" xlink:title=" ">
<polygon fill="white" stroke="black" points="1324.77,-73 1324.77,-92 1538.77,-92 1538.77,-73 1324.77,-73"/>
<text text-anchor="middle" x="1431.77" y="-80" font-family="Helvetica,sans-Serif" font-size="10.00">src/Components/CameraComponent.hpp</text>
</a>
</g>
</g>
<!-- Node15&#45;&gt;Node16 -->
<g id="edge24" class="edge">
<title>Node15&#45;&gt;Node16</title>
<path fill="none" stroke="midnightblue" d="M1305.92,-130.78C1339.47,-118.18 1383.04,-101.81 1409.13,-92.01"/>
<polygon fill="midnightblue" stroke="midnightblue" points="1304.44,-127.6 1296.31,-134.4 1306.9,-134.16 1304.44,-127.6"/>
</g>
<!-- Node18 -->
<g id="node18" class="node">
<title>Node18</title>
<g id="a_node18"><a xlink:href="_wireframe_renderer_system_8cpp.html" target="_top" xlink:title=" ">
<polygon fill="white" stroke="black" points="1677.27,-0.5 1677.27,-30.5 1852.27,-30.5 1852.27,-0.5 1677.27,-0.5"/>
<text text-anchor="start" x="1685.27" y="-18.5" font-family="Helvetica,sans-Serif" font-size="10.00">src/Systems/WireframeRenderer</text>
<text text-anchor="middle" x="1764.77" y="-7.5" font-family="Helvetica,sans-Serif" font-size="10.00">System.cpp</text>
</a>
</g>
</g>
<!-- Node15&#45;&gt;Node18 -->
<g id="edge34" class="edge">
<title>Node15&#45;&gt;Node18</title>
<path fill="none" stroke="midnightblue" d="M1342.58,-145.09C1402.13,-140.03 1482.74,-127.72 1547.77,-98 1567.59,-88.94 1566.43,-77.06 1585.77,-67 1618,-50.24 1656.47,-38.45 1689.47,-30.51"/>
<polygon fill="midnightblue" stroke="midnightblue" points="1342.15,-141.61 1332.46,-145.89 1342.71,-148.59 1342.15,-141.61"/>
</g>
<!-- Node19 -->
<g id="node19" class="node">
<title>Node19</title>
<g id="a_node19"><a xlink:href="_camera_movement_system_8cpp.html" target="_top" xlink:title=" ">
<polygon fill="white" stroke="black" points="1594.77,-67.5 1594.77,-97.5 1764.77,-97.5 1764.77,-67.5 1594.77,-67.5"/>
<text text-anchor="start" x="1602.77" y="-85.5" font-family="Helvetica,sans-Serif" font-size="10.00">src/Systems/CameraMovement</text>
<text text-anchor="middle" x="1679.77" y="-74.5" font-family="Helvetica,sans-Serif" font-size="10.00">System.cpp</text>
</a>
</g>
</g>
<!-- Node15&#45;&gt;Node19 -->
<g id="edge31" class="edge">
<title>Node15&#45;&gt;Node19</title>
<path fill="none" stroke="midnightblue" d="M1342.67,-135.55C1415.67,-124.28 1521,-108.01 1594.43,-96.68"/>
<polygon fill="midnightblue" stroke="midnightblue" points="1341.93,-132.12 1332.59,-137.1 1343,-139.04 1341.93,-132.12"/>
</g>
<!-- Node20 -->
<g id="node20" class="node">
<title>Node20</title>
<g id="a_node20"><a xlink:href="_transform_component_u_i_8hpp.html" target="_top" xlink:title=" ">
<polygon fill="white" stroke="black" points="1783.27,-67.5 1783.27,-97.5 1942.27,-97.5 1942.27,-67.5 1783.27,-67.5"/>
<text text-anchor="start" x="1791.27" y="-85.5" font-family="Helvetica,sans-Serif" font-size="10.00">src/ui/Components/Transform</text>
<text text-anchor="middle" x="1862.77" y="-74.5" font-family="Helvetica,sans-Serif" font-size="10.00">ComponentUI.hpp</text>
</a>
</g>
</g>
<!-- Node15&#45;&gt;Node20 -->
<g id="edge35" class="edge">
<title>Node15&#45;&gt;Node20</title>
<path fill="none" stroke="midnightblue" d="M1342.53,-141.94C1444.59,-133.56 1622.19,-117.76 1773.77,-98 1776.88,-97.6 1780.04,-97.17 1783.23,-96.72"/>
<polygon fill="midnightblue" stroke="midnightblue" points="1341.96,-138.47 1332.28,-142.78 1342.53,-145.45 1341.96,-138.47"/>
</g>
<!-- Node16&#45;&gt;Node3 -->
<g id="edge25" class="edge">
<title>Node16&#45;&gt;Node3</title>
<path fill="none" stroke="midnightblue" d="M1314.51,-72.54C1289.83,-70.69 1263.95,-68.76 1239.77,-67 1011.37,-50.38 951.12,-71.73 725.77,-31 717.83,-29.56 709.34,-27.32 701.7,-25.02"/>
<polygon fill="midnightblue" stroke="midnightblue" points="1314.41,-76.04 1324.64,-73.31 1314.93,-69.06 1314.41,-76.04"/>
</g>
<!-- Node16&#45;&gt;Node4 -->
<g id="edge27" class="edge">
<title>Node16&#45;&gt;Node4</title>
<path fill="none" stroke="midnightblue" d="M1418.05,-64.67C1409.42,-54.09 1398.42,-40.6 1390.26,-30.59"/>
<polygon fill="midnightblue" stroke="midnightblue" points="1415.59,-67.2 1424.62,-72.73 1421.02,-62.77 1415.59,-67.2"/>
</g>
<!-- Node16&#45;&gt;Node8 -->
<g id="edge26" class="edge">
<title>Node16&#45;&gt;Node8</title>
<path fill="none" stroke="midnightblue" d="M1366.48,-71.4C1301.78,-61.35 1199.89,-45.38 1111.77,-31 1108.78,-30.51 1105.74,-30.01 1102.66,-29.5"/>
<polygon fill="midnightblue" stroke="midnightblue" points="1366.11,-74.89 1376.53,-72.96 1367.19,-67.97 1366.11,-74.89"/>
</g>
<!-- Node17 -->
<g id="node17" class="node">
<title>Node17</title>
<g id="a_node17"><a xlink:href="_rendering_system_8cpp.html" target="_top" xlink:title=" ">
<polygon fill="white" stroke="black" points="1474.27,-6 1474.27,-25 1659.27,-25 1659.27,-6 1474.27,-6"/>
<text text-anchor="middle" x="1566.77" y="-13" font-family="Helvetica,sans-Serif" font-size="10.00">src/Systems/RenderingSystem.cpp</text>
</a>
</g>
</g>
<!-- Node16&#45;&gt;Node17 -->
<g id="edge28" class="edge">
<title>Node16&#45;&gt;Node17</title>
<path fill="none" stroke="midnightblue" d="M1458.89,-68.44C1485.63,-55.57 1525.74,-36.26 1548.77,-25.17"/>
<polygon fill="midnightblue" stroke="midnightblue" points="1457.19,-65.38 1449.7,-72.87 1460.23,-71.68 1457.19,-65.38"/>
</g>
<!-- Node16&#45;&gt;Node18 -->
<g id="edge29" class="edge">
<title>Node16&#45;&gt;Node18</title>
<path fill="none" stroke="midnightblue" d="M1485.77,-70.96C1542.04,-59.98 1630.54,-42.7 1692.74,-30.56"/>
<polygon fill="midnightblue" stroke="midnightblue" points="1484.79,-67.58 1475.65,-72.94 1486.13,-74.45 1484.79,-67.58"/>
</g>
<!-- Node21&#45;&gt;Node3 -->
<g id="edge39" class="edge">
<title>Node21&#45;&gt;Node3</title>
<path fill="none" stroke="midnightblue" d="M1070.42,-66.89C916.8,-46.47 874.17,-60.42 725.77,-31 718.03,-29.46 709.74,-27.24 702.23,-25"/>
<polygon fill="midnightblue" stroke="midnightblue" points="1070.32,-70.41 1080.7,-68.28 1071.27,-63.47 1070.32,-70.41"/>
</g>
<!-- Node21&#45;&gt;Node6 -->
<g id="edge42" class="edge">
<title>Node21&#45;&gt;Node6</title>
<path fill="none" stroke="midnightblue" d="M1070.69,-66.98C778.57,-34.71 700.7,-65.82 412.77,-31 410.07,-30.67 407.32,-30.31 404.55,-29.92"/>
<polygon fill="midnightblue" stroke="midnightblue" points="1070.4,-70.47 1080.73,-68.1 1071.18,-63.51 1070.4,-70.47"/>
</g>
<!-- Node21&#45;&gt;Node18 -->
<g id="edge40" class="edge">
<title>Node21&#45;&gt;Node18</title>
<path fill="none" stroke="midnightblue" d="M1241.05,-73.65C1364.85,-62.15 1588.33,-41.03 1668.77,-31 1671.53,-30.66 1674.33,-30.3 1677.16,-29.92"/>
<polygon fill="midnightblue" stroke="midnightblue" points="1240.48,-70.18 1230.85,-74.59 1241.13,-77.15 1240.48,-70.18"/>
</g>
<!-- Node22 -->
<g id="node22" class="node">
<title>Node22</title>
<g id="a_node22"><a xlink:href="_wireframe_component_u_i_8hpp.html" target="_top" xlink:title=" ">
<polygon fill="white" stroke="black" points="1120.77,-0.5 1120.77,-30.5 1282.77,-30.5 1282.77,-0.5 1120.77,-0.5"/>
<text text-anchor="start" x="1128.77" y="-18.5" font-family="Helvetica,sans-Serif" font-size="10.00">src/ui/Components/Wireframe</text>
<text text-anchor="middle" x="1201.77" y="-7.5" font-family="Helvetica,sans-Serif" font-size="10.00">ComponentUI.hpp</text>
</a>
</g>
</g>
<!-- Node21&#45;&gt;Node22 -->
<g id="edge41" class="edge">
<title>Node21&#45;&gt;Node22</title>
<path fill="none" stroke="midnightblue" d="M1171.58,-59.16C1178.29,-49.68 1185.91,-38.92 1191.81,-30.58"/>
<polygon fill="midnightblue" stroke="midnightblue" points="1168.67,-57.21 1165.75,-67.4 1174.39,-61.26 1168.67,-57.21"/>
</g>
</g>
</svg>
