<?xml version="1.0" encoding="UTF-8" standalone="no"?>
<!DOCTYPE svg PUBLIC "-//W3C//DTD SVG 1.1//EN"
 "http://www.w3.org/Graphics/SVG/1.1/DTD/svg11.dtd">
<!-- Generated by graphviz version 2.43.0 (0)
 -->
<!-- Title: src/Components/BillboardComponent.hpp Pages: 1 -->
<svg width="1854pt" height="423pt"
 viewBox="0.00 0.00 1854.16 423.00" xmlns="http://www.w3.org/2000/svg" xmlns:xlink="http://www.w3.org/1999/xlink">
<g id="graph0" class="graph" transform="scale(1 1) rotate(0) translate(4 419)">
<title>src/Components/BillboardComponent.hpp</title>
<!-- Node1 -->
<g id="Node000001" class="node">
<title>Node1</title>
<g id="a_Node000001"><a xlink:title=" ">
<polygon fill="#999999" stroke="#666666" points="418,-415 276,-415 276,-385 418,-385 418,-415"/>
<text text-anchor="start" x="284" y="-403" font-family="Helvetica,sans-Serif" font-size="10.00">src/Components/Billboard</text>
<text text-anchor="middle" x="347" y="-392" font-family="Helvetica,sans-Serif" font-size="10.00">Component.hpp</text>
</a>
</g>
</g>
<!-- Node2 -->
<g id="Node000002" class="node">
<title>Node2</title>
<g id="a_Node000002"><a xlink:title=" ">
<polygon fill="#e0e0e0" stroke="#999999" points="390,-74 330,-74 330,-55 390,-55 390,-74"/>
<text text-anchor="middle" x="360" y="-62" font-family="Helvetica,sans-Serif" font-size="10.00">iostream</text>
</a>
</g>
</g>
<!-- Node1&#45;&gt;Node2 -->
<g id="edge1_Node000001_Node000002" class="edge">
<title>Node1&#45;&gt;Node2</title>
<g id="a_edge1_Node000001_Node000002"><a xlink:title=" ">
<path fill="none" stroke="#63b8ff" d="M275.97,-394.51C221.25,-388.97 144.76,-376.59 83,-349 40.59,-330.06 0,-331.95 0,-285.5 0,-285.5 0,-285.5 0,-173.5 0,-107.3 226.13,-78.2 319.95,-68.97"/>
<polygon fill="#63b8ff" stroke="#63b8ff" points="320.3,-72.45 329.93,-68.01 319.64,-65.48 320.3,-72.45"/>
</a>
</g>
</g>
<!-- Node3 -->
<g id="Node000003" class="node">
<title>Node3</title>
<g id="a_Node000003"><a xlink:title=" ">
<polygon fill="#e0e0e0" stroke="#999999" points="98,-184 54,-184 54,-165 98,-165 98,-184"/>
<text text-anchor="middle" x="76" y="-172" font-family="Helvetica,sans-Serif" font-size="10.00">string</text>
</a>
</g>
</g>
<!-- Node1&#45;&gt;Node3 -->
<g id="edge2_Node000001_Node000003" class="edge">
<title>Node1&#45;&gt;Node3</title>
<g id="a_edge2_Node000001_Node000003"><a xlink:title=" ">
<path fill="none" stroke="#63b8ff" d="M275.72,-392.36C212.6,-385.11 126.61,-371.43 101,-349 56.59,-310.1 65.13,-230.52 71.87,-194.25"/>
<polygon fill="#63b8ff" stroke="#63b8ff" points="75.37,-194.6 73.93,-184.11 68.51,-193.21 75.37,-194.6"/>
</a>
</g>
</g>
<!-- Node4 -->
<g id="Node000004" class="node">
<title>Node4</title>
<g id="a_Node000004"><a xlink:title=" ">
<polygon fill="#e0e0e0" stroke="#999999" points="368,-184 290,-184 290,-165 368,-165 368,-184"/>
<text text-anchor="middle" x="329" y="-172" font-family="Helvetica,sans-Serif" font-size="10.00">glm/glm.hpp</text>
</a>
</g>
</g>
<!-- Node1&#45;&gt;Node4 -->
<g id="edge3_Node000001_Node000004" class="edge">
<title>Node1&#45;&gt;Node4</title>
<g id="a_edge3_Node000001_Node000004"><a xlink:title=" ">
<path fill="none" stroke="#63b8ff" d="M392.65,-384.87C409.66,-377.14 427.21,-365.64 437,-349 466.08,-299.59 468.9,-267.64 437,-220 423.74,-200.2 399.9,-189.2 377.99,-183.09"/>
<polygon fill="#63b8ff" stroke="#63b8ff" points="378.65,-179.65 368.1,-180.62 376.95,-186.44 378.65,-179.65"/>
</a>
</g>
</g>
<!-- Node5 -->
<g id="Node000005" class="node">
<title>Node5</title>
<g id="a_Node000005"><a xlink:title=" ">
<polygon fill="#e0e0e0" stroke="#999999" points="428.5,-349 265.5,-349 265.5,-330 428.5,-330 428.5,-349"/>
<text text-anchor="middle" x="347" y="-337" font-family="Helvetica,sans-Serif" font-size="10.00">glm/gtc/matrix_transform.hpp</text>
</a>
</g>
</g>
<!-- Node1&#45;&gt;Node5 -->
<g id="edge4_Node000001_Node000005" class="edge">
<title>Node1&#45;&gt;Node5</title>
<g id="a_edge4_Node000001_Node000005"><a xlink:title=" ">
<path fill="none" stroke="#63b8ff" d="M347,-384.84C347,-377.21 347,-367.7 347,-359.45"/>
<polygon fill="#63b8ff" stroke="#63b8ff" points="350.5,-359.27 347,-349.27 343.5,-359.27 350.5,-359.27"/>
</a>
</g>
</g>
<!-- Node6 -->
<g id="Node000006" class="node">
<title>Node6</title>
<g id="a_Node000006"><a xlink:href="_material_8hpp.html" target="_top" xlink:title=" ">
<polygon fill="white" stroke="#666666" points="734.5,-349 583.5,-349 583.5,-330 734.5,-330 734.5,-349"/>
<text text-anchor="middle" x="659" y="-337" font-family="Helvetica,sans-Serif" font-size="10.00">AssetManager/Material.hpp</text>
</a>
</g>
</g>
<!-- Node1&#45;&gt;Node6 -->
<g id="edge5_Node000001_Node000006" class="edge">
<title>Node1&#45;&gt;Node6</title>
<g id="a_edge5_Node000001_Node000006"><a xlink:title=" ">
<path fill="none" stroke="#63b8ff" d="M418.19,-385.65C474.34,-375.12 551.54,-360.65 603.25,-350.95"/>
<polygon fill="#63b8ff" stroke="#63b8ff" points="604.06,-354.36 613.24,-349.08 602.77,-347.48 604.06,-354.36"/>
</a>
</g>
</g>
<!-- Node43 -->
<g id="Node000043" class="node">
<title>Node43</title>
<g id="a_Node000043"><a xlink:href="_mesh_8hpp.html" target="_top" xlink:title=" ">
<polygon fill="white" stroke="#666666" points="247.5,-349 110.5,-349 110.5,-330 247.5,-330 247.5,-349"/>
<text text-anchor="middle" x="179" y="-337" font-family="Helvetica,sans-Serif" font-size="10.00">AssetManager/Mesh.hpp</text>
</a>
</g>
</g>
<!-- Node1&#45;&gt;Node43 -->
<g id="edge61_Node000001_Node000043" class="edge">
<title>Node1&#45;&gt;Node43</title>
<g id="a_edge61_Node000001_Node000043"><a xlink:title=" ">
<path fill="none" stroke="#63b8ff" d="M306.76,-384.99C278.23,-375.05 240.35,-361.86 213.27,-352.43"/>
<polygon fill="#63b8ff" stroke="#63b8ff" points="214.4,-349.12 203.81,-349.14 212.1,-355.73 214.4,-349.12"/>
</a>
</g>
</g>
<!-- Node47 -->
<g id="Node000047" class="node">
<title>Node47</title>
<g id="a_Node000047"><a xlink:href="_base_component_8hpp.html" target="_top" xlink:title=" ">
<polygon fill="white" stroke="#666666" points="1740,-239 1558,-239 1558,-220 1740,-220 1740,-239"/>
<text text-anchor="middle" x="1649" y="-227" font-family="Helvetica,sans-Serif" font-size="10.00">Components/BaseComponent.hpp</text>
</a>
</g>
</g>
<!-- Node1&#45;&gt;Node47 -->
<g id="edge71_Node000001_Node000047" class="edge">
<title>Node1&#45;&gt;Node47</title>
<g id="a_edge71_Node000001_Node000047"><a xlink:title=" ">
<path fill="none" stroke="#63b8ff" d="M418.01,-390.16C497.45,-380.24 629.96,-363.63 744,-349 1052.43,-309.43 1419.8,-260.89 1574.5,-240.39"/>
<polygon fill="#63b8ff" stroke="#63b8ff" points="1575.37,-243.8 1584.82,-239.02 1574.45,-236.86 1575.37,-243.8"/>
</a>
</g>
</g>
<!-- Node6&#45;&gt;Node4 -->
<g id="edge60_Node000006_Node000004" class="edge">
<title>Node6&#45;&gt;Node4</title>
<g id="a_edge60_Node000006_Node000004"><a xlink:title=" ">
<path fill="none" stroke="#63b8ff" d="M658.73,-329.96C657.87,-316.58 654.31,-290.6 640,-275 637.19,-271.94 504.95,-221.29 501,-220 459.89,-206.61 412.24,-194.54 377.53,-186.36"/>
<polygon fill="#63b8ff" stroke="#63b8ff" points="378.18,-182.92 367.65,-184.06 376.59,-189.74 378.18,-182.92"/>
</a>
</g>
</g>
<!-- Node7 -->
<g id="Node000007" class="node">
<title>Node7</title>
<g id="a_Node000007"><a xlink:href="_asset_8hpp.html" target="_top" xlink:title=" ">
<polygon fill="white" stroke="#666666" points="824.5,-294 687.5,-294 687.5,-275 824.5,-275 824.5,-294"/>
<text text-anchor="middle" x="756" y="-282" font-family="Helvetica,sans-Serif" font-size="10.00">AssetManager/Asset.hpp</text>
</a>
</g>
</g>
<!-- Node6&#45;&gt;Node7 -->
<g id="edge6_Node000006_Node000007" class="edge">
<title>Node6&#45;&gt;Node7</title>
<g id="a_edge6_Node000006_Node000007"><a xlink:title=" ">
<path fill="none" stroke="#63b8ff" d="M674.58,-329.98C689.77,-321.69 713.1,-308.94 730.9,-299.22"/>
<polygon fill="#63b8ff" stroke="#63b8ff" points="733.03,-302.04 740.13,-294.17 729.68,-295.89 733.03,-302.04"/>
</a>
</g>
</g>
<!-- Node35 -->
<g id="Node000035" class="node">
<title>Node35</title>
<g id="a_Node000035"><a xlink:href="_texture_8hpp.html" target="_top" xlink:title=" ">
<polygon fill="white" stroke="#666666" points="631,-294 485,-294 485,-275 631,-275 631,-294"/>
<text text-anchor="middle" x="558" y="-282" font-family="Helvetica,sans-Serif" font-size="10.00">AssetManager/Texture.hpp</text>
</a>
</g>
</g>
<!-- Node6&#45;&gt;Node35 -->
<g id="edge47_Node000006_Node000035" class="edge">
<title>Node6&#45;&gt;Node35</title>
<g id="a_edge47_Node000006_Node000035"><a xlink:title=" ">
<path fill="none" stroke="#63b8ff" d="M642.77,-329.98C626.82,-321.61 602.22,-308.7 583.62,-298.95"/>
<polygon fill="#63b8ff" stroke="#63b8ff" points="585,-295.72 574.52,-294.17 581.75,-301.92 585,-295.72"/>
</a>
</g>
</g>
<!-- Node38 -->
<g id="Node000038" class="node">
<title>Node38</title>
<g id="a_Node000038"><a xlink:href="_instance_counter_8hpp.html" target="_top" xlink:title=" ">
<polygon fill="white" stroke="#666666" points="1156,-294 992,-294 992,-275 1156,-275 1156,-294"/>
<text text-anchor="middle" x="1074" y="-282" font-family="Helvetica,sans-Serif" font-size="10.00">Common/InstanceCounter.hpp</text>
</a>
</g>
</g>
<!-- Node6&#45;&gt;Node38 -->
<g id="edge52_Node000006_Node000038" class="edge">
<title>Node6&#45;&gt;Node38</title>
<g id="a_edge52_Node000006_Node000038"><a xlink:title=" ">
<path fill="none" stroke="#63b8ff" d="M725.68,-329.98C799.68,-320.53 918.94,-305.3 996.9,-295.35"/>
<polygon fill="#63b8ff" stroke="#63b8ff" points="997.67,-298.78 1007.14,-294.04 996.78,-291.83 997.67,-298.78"/>
</a>
</g>
</g>
<!-- Node8 -->
<g id="Node000008" class="node">
<title>Node8</title>
<g id="a_Node000008"><a xlink:href="_registry_8hpp.html" target="_top" xlink:title=" ">
<polygon fill="white" stroke="#666666" points="960,-239 862,-239 862,-220 960,-220 960,-239"/>
<text text-anchor="middle" x="911" y="-227" font-family="Helvetica,sans-Serif" font-size="10.00">ECS/Registry.hpp</text>
</a>
</g>
</g>
<!-- Node7&#45;&gt;Node8 -->
<g id="edge7_Node000007_Node000008" class="edge">
<title>Node7&#45;&gt;Node8</title>
<g id="a_edge7_Node000007_Node000008"><a xlink:title=" ">
<path fill="none" stroke="#63b8ff" d="M780.9,-274.98C806.7,-266.16 847.22,-252.31 876.18,-242.41"/>
<polygon fill="#63b8ff" stroke="#63b8ff" points="877.57,-245.63 885.9,-239.08 875.31,-239.01 877.57,-245.63"/>
</a>
</g>
</g>
<!-- Node19 -->
<g id="Node000019" class="node">
<title>Node19</title>
<g id="a_Node000019"><a xlink:title=" ">
<polygon fill="#e0e0e0" stroke="#999999" points="449,-129 381,-129 381,-110 449,-110 449,-129"/>
<text text-anchor="middle" x="415" y="-117" font-family="Helvetica,sans-Serif" font-size="10.00">filesystem</text>
</a>
</g>
</g>
<!-- Node7&#45;&gt;Node19 -->
<g id="edge46_Node000007_Node000019" class="edge">
<title>Node7&#45;&gt;Node19</title>
<g id="a_edge46_Node000007_Node000019"><a xlink:title=" ">
<path fill="none" stroke="#63b8ff" d="M752.7,-274.78C746.85,-260.67 733.25,-233.07 712,-220 613.01,-159.11 549.9,-248.16 453,-184 436.97,-173.38 426.69,-153.48 420.92,-138.77"/>
<polygon fill="#63b8ff" stroke="#63b8ff" points="424.16,-137.43 417.5,-129.19 417.57,-139.78 424.16,-137.43"/>
</a>
</g>
</g>
<!-- Node9 -->
<g id="Node000009" class="node">
<title>Node9</title>
<g id="a_Node000009"><a xlink:title=" ">
<polygon fill="#e0e0e0" stroke="#999999" points="842,-184 784,-184 784,-165 842,-165 842,-184"/>
<text text-anchor="middle" x="813" y="-172" font-family="Helvetica,sans-Serif" font-size="10.00">memory</text>
</a>
</g>
</g>
<!-- Node8&#45;&gt;Node9 -->
<g id="edge8_Node000008_Node000009" class="edge">
<title>Node8&#45;&gt;Node9</title>
<g id="a_edge8_Node000008_Node000009"><a xlink:title=" ">
<path fill="none" stroke="#63b8ff" d="M895.25,-219.98C879.77,-211.61 855.91,-198.7 837.86,-188.95"/>
<polygon fill="#63b8ff" stroke="#63b8ff" points="839.49,-185.85 829.03,-184.17 836.16,-192.01 839.49,-185.85"/>
</a>
</g>
</g>
<!-- Node10 -->
<g id="Node000010" class="node">
<title>Node10</title>
<g id="a_Node000010"><a xlink:title=" ">
<polygon fill="#e0e0e0" stroke="#999999" points="1291.5,-129 1226.5,-129 1226.5,-110 1291.5,-110 1291.5,-129"/>
<text text-anchor="middle" x="1259" y="-117" font-family="Helvetica,sans-Serif" font-size="10.00">typeindex</text>
</a>
</g>
</g>
<!-- Node8&#45;&gt;Node10 -->
<g id="edge9_Node000008_Node000010" class="edge">
<title>Node8&#45;&gt;Node10</title>
<g id="a_edge9_Node000008_Node000010"><a xlink:title=" ">
<path fill="none" stroke="#63b8ff" d="M960.21,-223.67C1027.71,-216.5 1145.08,-201.95 1184,-184 1208.31,-172.79 1231,-151.46 1244.92,-136.63"/>
<polygon fill="#63b8ff" stroke="#63b8ff" points="1247.57,-138.92 1251.71,-129.17 1242.39,-134.21 1247.57,-138.92"/>
</a>
</g>
</g>
<!-- Node11 -->
<g id="Node000011" class="node">
<title>Node11</title>
<g id="a_Node000011"><a xlink:title=" ">
<polygon fill="#e0e0e0" stroke="#999999" points="728,-184 642,-184 642,-165 728,-165 728,-184"/>
<text text-anchor="middle" x="685" y="-172" font-family="Helvetica,sans-Serif" font-size="10.00">unordered_set</text>
</a>
</g>
</g>
<!-- Node8&#45;&gt;Node11 -->
<g id="edge10_Node000008_Node000011" class="edge">
<title>Node8&#45;&gt;Node11</title>
<g id="a_edge10_Node000008_Node000011"><a xlink:title=" ">
<path fill="none" stroke="#63b8ff" d="M874.69,-219.98C835.76,-210.86 773.84,-196.33 731.4,-186.38"/>
<polygon fill="#63b8ff" stroke="#63b8ff" points="732.13,-182.96 721.6,-184.08 730.53,-189.77 732.13,-182.96"/>
</a>
</g>
</g>
<!-- Node12 -->
<g id="Node000012" class="node">
<title>Node12</title>
<g id="a_Node000012"><a xlink:href="_assert_8hpp.html" target="_top" xlink:title=" ">
<polygon fill="white" stroke="#666666" points="848,-129 732,-129 732,-110 848,-110 848,-129"/>
<text text-anchor="middle" x="790" y="-117" font-family="Helvetica,sans-Serif" font-size="10.00">Common/Assert.hpp</text>
</a>
</g>
</g>
<!-- Node8&#45;&gt;Node12 -->
<g id="edge11_Node000008_Node000012" class="edge">
<title>Node8&#45;&gt;Node12</title>
<g id="a_edge11_Node000008_Node000012"><a xlink:title=" ">
<path fill="none" stroke="#63b8ff" d="M903.69,-219.8C892.83,-207.11 871.49,-183.04 851,-165 838.61,-154.09 823.66,-143.15 811.65,-134.85"/>
<polygon fill="#63b8ff" stroke="#63b8ff" points="813.38,-131.79 803.14,-129.05 809.44,-137.57 813.38,-131.79"/>
</a>
</g>
</g>
<!-- Node15 -->
<g id="Node000015" class="node">
<title>Node15</title>
<g id="a_Node000015"><a xlink:href="_logger_8hpp.html" target="_top" xlink:title=" ">
<polygon fill="white" stroke="#666666" points="1141.5,-184 1024.5,-184 1024.5,-165 1141.5,-165 1141.5,-184"/>
<text text-anchor="middle" x="1083" y="-172" font-family="Helvetica,sans-Serif" font-size="10.00">Common/Logger.hpp</text>
</a>
</g>
</g>
<!-- Node8&#45;&gt;Node15 -->
<g id="edge15_Node000008_Node000015" class="edge">
<title>Node8&#45;&gt;Node15</title>
<g id="a_edge15_Node000008_Node000015"><a xlink:title=" ">
<path fill="none" stroke="#63b8ff" d="M938.63,-219.98C967.51,-211.09 1013.01,-197.07 1045.2,-187.15"/>
<polygon fill="#63b8ff" stroke="#63b8ff" points="1046.62,-190.37 1055.15,-184.08 1044.56,-183.68 1046.62,-190.37"/>
</a>
</g>
</g>
<!-- Node18 -->
<g id="Node000018" class="node">
<title>Node18</title>
<g id="a_Node000018"><a xlink:href="_types_8hpp.html" target="_top" xlink:title=" ">
<polygon fill="white" stroke="#666666" points="1387.5,-184 1274.5,-184 1274.5,-165 1387.5,-165 1387.5,-184"/>
<text text-anchor="middle" x="1331" y="-172" font-family="Helvetica,sans-Serif" font-size="10.00">Common/Types.hpp</text>
</a>
</g>
</g>
<!-- Node8&#45;&gt;Node18 -->
<g id="edge18_Node000008_Node000018" class="edge">
<title>Node8&#45;&gt;Node18</title>
<g id="a_edge18_Node000008_Node000018"><a xlink:title=" ">
<path fill="none" stroke="#63b8ff" d="M960,-222.32C1035.27,-212.82 1179.52,-194.62 1264.27,-183.92"/>
<polygon fill="#63b8ff" stroke="#63b8ff" points="1264.82,-187.38 1274.3,-182.66 1263.94,-180.43 1264.82,-187.38"/>
</a>
</g>
</g>
<!-- Node21 -->
<g id="Node000021" class="node">
<title>Node21</title>
<g id="a_Node000021"><a xlink:href="_entity_8hpp.html" target="_top" xlink:title=" ">
<polygon fill="white" stroke="#666666" points="1167,-74 1081,-74 1081,-55 1167,-55 1167,-74"/>
<text text-anchor="middle" x="1124" y="-62" font-family="Helvetica,sans-Serif" font-size="10.00">ECS/Entity.hpp</text>
</a>
</g>
</g>
<!-- Node8&#45;&gt;Node21 -->
<g id="edge22_Node000008_Node000021" class="edge">
<title>Node8&#45;&gt;Node21</title>
<g id="a_edge22_Node000008_Node000021"><a xlink:title=" ">
<path fill="none" stroke="#63b8ff" d="M960.22,-226.55C1023.25,-222.89 1127.22,-212.59 1151,-184 1163.56,-168.9 1143.58,-113.11 1131.74,-83.78"/>
<polygon fill="#63b8ff" stroke="#63b8ff" points="1134.88,-82.21 1127.82,-74.3 1128.41,-84.88 1134.88,-82.21"/>
</a>
</g>
</g>
<!-- Node23 -->
<g id="Node000023" class="node">
<title>Node23</title>
<g id="a_Node000023"><a xlink:href="_entity_hierarchy_8hpp.html" target="_top" xlink:title=" ">
<polygon fill="white" stroke="#666666" points="1540,-184 1406,-184 1406,-165 1540,-165 1540,-184"/>
<text text-anchor="middle" x="1473" y="-172" font-family="Helvetica,sans-Serif" font-size="10.00">ECS/EntityHierarchy.hpp</text>
</a>
</g>
</g>
<!-- Node8&#45;&gt;Node23 -->
<g id="edge24_Node000008_Node000023" class="edge">
<title>Node8&#45;&gt;Node23</title>
<g id="a_edge24_Node000008_Node000023"><a xlink:title=" ">
<path fill="none" stroke="#63b8ff" d="M960.01,-224.34C1045.91,-216.98 1229.53,-200.92 1395.47,-184.14"/>
<polygon fill="#63b8ff" stroke="#63b8ff" points="1396.28,-187.57 1405.87,-183.08 1395.57,-180.61 1396.28,-187.57"/>
</a>
</g>
</g>
<!-- Node30 -->
<g id="Node000030" class="node">
<title>Node30</title>
<g id="a_Node000030"><a xlink:href="_entity_provider_8hpp.html" target="_top" xlink:title="Manages a pool of unused entity identifiers and provides mechanisms for requesting and removing them.">
<polygon fill="white" stroke="#666666" points="994,-129 866,-129 866,-110 994,-110 994,-129"/>
<text text-anchor="middle" x="930" y="-117" font-family="Helvetica,sans-Serif" font-size="10.00">ECS/EntityProvider.hpp</text>
</a>
</g>
</g>
<!-- Node8&#45;&gt;Node30 -->
<g id="edge35_Node000008_Node000030" class="edge">
<title>Node8&#45;&gt;Node30</title>
<g id="a_edge35_Node000008_Node000030"><a xlink:title=" ">
<path fill="none" stroke="#63b8ff" d="M861.86,-223.15C813.11,-215.79 749.13,-199.34 775,-165 786.29,-150.01 828.24,-138.52 865.65,-130.97"/>
<polygon fill="#63b8ff" stroke="#63b8ff" points="866.41,-134.39 875.55,-129.05 865.07,-127.52 866.41,-134.39"/>
</a>
</g>
</g>
<!-- Node31 -->
<g id="Node000031" class="node">
<title>Node31</title>
<g id="a_Node000031"><a xlink:href="_singleton_component_8hpp.html" target="_top" xlink:title=" ">
<polygon fill="white" stroke="#666666" points="623.5,-184 462.5,-184 462.5,-165 623.5,-165 623.5,-184"/>
<text text-anchor="middle" x="543" y="-172" font-family="Helvetica,sans-Serif" font-size="10.00">ECS/SingletonComponent.hpp</text>
</a>
</g>
</g>
<!-- Node8&#45;&gt;Node31 -->
<g id="edge39_Node000008_Node000031" class="edge">
<title>Node8&#45;&gt;Node31</title>
<g id="a_edge39_Node000008_Node000031"><a xlink:title=" ">
<path fill="none" stroke="#63b8ff" d="M861.75,-221.41C797.59,-212.17 685.04,-195.96 612.29,-185.48"/>
<polygon fill="#63b8ff" stroke="#63b8ff" points="612.7,-182 602.3,-184.04 611.7,-188.93 612.7,-182"/>
</a>
</g>
</g>
<!-- Node33 -->
<g id="Node000033" class="node">
<title>Node33</title>
<g id="a_Node000033"><a xlink:href="_sparse_set_8hpp.html" target="_top" xlink:title=" ">
<polygon fill="white" stroke="#666666" points="1006,-184 898,-184 898,-165 1006,-165 1006,-184"/>
<text text-anchor="middle" x="952" y="-172" font-family="Helvetica,sans-Serif" font-size="10.00">ECS/SparseSet.hpp</text>
</a>
</g>
</g>
<!-- Node8&#45;&gt;Node33 -->
<g id="edge41_Node000008_Node000033" class="edge">
<title>Node8&#45;&gt;Node33</title>
<g id="a_edge41_Node000008_Node000033"><a xlink:title=" ">
<path fill="none" stroke="#63b8ff" d="M917.77,-219.75C923.56,-212.26 932.06,-201.28 939.14,-192.13"/>
<polygon fill="#63b8ff" stroke="#63b8ff" points="942.01,-194.14 945.36,-184.09 936.47,-189.86 942.01,-194.14"/>
</a>
</g>
</g>
<!-- Node12&#45;&gt;Node2 -->
<g id="edge14_Node000012_Node000002" class="edge">
<title>Node12&#45;&gt;Node2</title>
<g id="a_edge14_Node000012_Node000002"><a xlink:title=" ">
<path fill="none" stroke="#63b8ff" d="M731.56,-111.3C642.96,-100.38 476.88,-79.91 400.42,-70.48"/>
<polygon fill="#63b8ff" stroke="#63b8ff" points="400.59,-66.98 390.24,-69.23 399.74,-73.92 400.59,-66.98"/>
</a>
</g>
</g>
<!-- Node13 -->
<g id="Node000013" class="node">
<title>Node13</title>
<g id="a_Node000013"><a xlink:title=" ">
<polygon fill="#e0e0e0" stroke="#999999" points="865.5,-74 798.5,-74 798.5,-55 865.5,-55 865.5,-74"/>
<text text-anchor="middle" x="832" y="-62" font-family="Helvetica,sans-Serif" font-size="10.00">fmt/core.h</text>
</a>
</g>
</g>
<!-- Node12&#45;&gt;Node13 -->
<g id="edge12_Node000012_Node000013" class="edge">
<title>Node12&#45;&gt;Node13</title>
<g id="a_edge12_Node000012_Node000013"><a xlink:title=" ">
<path fill="none" stroke="#63b8ff" d="M796.94,-109.75C802.87,-102.26 811.57,-91.28 818.82,-82.13"/>
<polygon fill="#63b8ff" stroke="#63b8ff" points="821.73,-84.1 825.19,-74.09 816.24,-79.75 821.73,-84.1"/>
</a>
</g>
</g>
<!-- Node14 -->
<g id="Node000014" class="node">
<title>Node14</title>
<g id="a_Node000014"><a xlink:title=" ">
<polygon fill="#e0e0e0" stroke="#999999" points="780.5,-74 715.5,-74 715.5,-55 780.5,-55 780.5,-74"/>
<text text-anchor="middle" x="748" y="-62" font-family="Helvetica,sans-Serif" font-size="10.00">exception</text>
</a>
</g>
</g>
<!-- Node12&#45;&gt;Node14 -->
<g id="edge13_Node000012_Node000014" class="edge">
<title>Node12&#45;&gt;Node14</title>
<g id="a_edge13_Node000012_Node000014"><a xlink:title=" ">
<path fill="none" stroke="#63b8ff" d="M783.06,-109.75C777.13,-102.26 768.43,-91.28 761.18,-82.13"/>
<polygon fill="#63b8ff" stroke="#63b8ff" points="763.76,-79.75 754.81,-74.09 758.27,-84.1 763.76,-79.75"/>
</a>
</g>
</g>
<!-- Node16 -->
<g id="Node000016" class="node">
<title>Node16</title>
<g id="a_Node000016"><a xlink:title=" ">
<polygon fill="#e0e0e0" stroke="#999999" points="1208,-129 1160,-129 1160,-110 1208,-110 1208,-129"/>
<text text-anchor="middle" x="1184" y="-117" font-family="Helvetica,sans-Serif" font-size="10.00">mutex</text>
</a>
</g>
</g>
<!-- Node15&#45;&gt;Node16 -->
<g id="edge16_Node000015_Node000016" class="edge">
<title>Node15&#45;&gt;Node16</title>
<g id="a_edge16_Node000015_Node000016"><a xlink:title=" ">
<path fill="none" stroke="#63b8ff" d="M1099.23,-164.98C1115.18,-156.61 1139.78,-143.7 1158.38,-133.95"/>
<polygon fill="#63b8ff" stroke="#63b8ff" points="1160.25,-136.92 1167.48,-129.17 1157,-130.72 1160.25,-136.92"/>
</a>
</g>
</g>
<!-- Node17 -->
<g id="Node000017" class="node">
<title>Node17</title>
<g id="a_Node000017"><a xlink:title=" ">
<polygon fill="#e0e0e0" stroke="#999999" points="1046.5,-74 999.5,-74 999.5,-55 1046.5,-55 1046.5,-74"/>
<text text-anchor="middle" x="1023" y="-62" font-family="Helvetica,sans-Serif" font-size="10.00">queue</text>
</a>
</g>
</g>
<!-- Node15&#45;&gt;Node17 -->
<g id="edge17_Node000015_Node000017" class="edge">
<title>Node15&#45;&gt;Node17</title>
<g id="a_edge17_Node000015_Node000017"><a xlink:title=" ">
<path fill="none" stroke="#63b8ff" d="M1083.81,-164.69C1084.59,-151.85 1084.49,-127.61 1075,-110 1068.48,-97.9 1057.25,-87.66 1046.88,-80.06"/>
<polygon fill="#63b8ff" stroke="#63b8ff" points="1048.73,-77.08 1038.5,-74.31 1044.77,-82.85 1048.73,-77.08"/>
</a>
</g>
</g>
<!-- Node18&#45;&gt;Node10 -->
<g id="edge21_Node000018_Node000010" class="edge">
<title>Node18&#45;&gt;Node10</title>
<g id="a_edge21_Node000018_Node000010"><a xlink:title=" ">
<path fill="none" stroke="#63b8ff" d="M1319.43,-164.98C1308.58,-157 1292.12,-144.88 1279.12,-135.31"/>
<polygon fill="#63b8ff" stroke="#63b8ff" points="1280.91,-132.28 1270.78,-129.17 1276.76,-137.92 1280.91,-132.28"/>
</a>
</g>
</g>
<!-- Node18&#45;&gt;Node19 -->
<g id="edge19_Node000018_Node000019" class="edge">
<title>Node18&#45;&gt;Node19</title>
<g id="a_edge19_Node000018_Node000019"><a xlink:title=" ">
<path fill="none" stroke="#63b8ff" d="M1274.39,-170.22C1106.03,-160.48 610.75,-131.83 459.42,-123.07"/>
<polygon fill="#63b8ff" stroke="#63b8ff" points="459.32,-119.56 449.13,-122.47 458.91,-126.55 459.32,-119.56"/>
</a>
</g>
</g>
<!-- Node20 -->
<g id="Node000020" class="node">
<title>Node20</title>
<g id="a_Node000020"><a xlink:title=" ">
<polygon fill="#e0e0e0" stroke="#999999" points="1564,-19 1532,-19 1532,0 1564,0 1564,-19"/>
<text text-anchor="middle" x="1548" y="-7" font-family="Helvetica,sans-Serif" font-size="10.00">set</text>
</a>
</g>
</g>
<!-- Node18&#45;&gt;Node20 -->
<g id="edge20_Node000018_Node000020" class="edge">
<title>Node18&#45;&gt;Node20</title>
<g id="a_edge20_Node000018_Node000020"><a xlink:title=" ">
<path fill="none" stroke="#63b8ff" d="M1335.85,-164.83C1343.51,-151.74 1359.43,-126.68 1378,-110 1422.93,-69.66 1486.76,-37.63 1522.04,-21.64"/>
<polygon fill="#63b8ff" stroke="#63b8ff" points="1523.89,-24.65 1531.6,-17.38 1521.04,-18.25 1523.89,-24.65"/>
</a>
</g>
</g>
<!-- Node22 -->
<g id="Node000022" class="node">
<title>Node22</title>
<g id="a_Node000022"><a xlink:title=" ">
<polygon fill="#e0e0e0" stroke="#999999" points="1082.5,-19 1029.5,-19 1029.5,0 1082.5,0 1082.5,-19"/>
<text text-anchor="middle" x="1056" y="-7" font-family="Helvetica,sans-Serif" font-size="10.00">stdlib.h</text>
</a>
</g>
</g>
<!-- Node21&#45;&gt;Node22 -->
<g id="edge23_Node000021_Node000022" class="edge">
<title>Node21&#45;&gt;Node22</title>
<g id="a_edge23_Node000021_Node000022"><a xlink:title=" ">
<path fill="none" stroke="#63b8ff" d="M1113.07,-54.98C1102.92,-47.07 1087.58,-35.11 1075.35,-25.58"/>
<polygon fill="#63b8ff" stroke="#63b8ff" points="1077.16,-22.56 1067.12,-19.17 1072.86,-28.08 1077.16,-22.56"/>
</a>
</g>
</g>
<!-- Node23&#45;&gt;Node20 -->
<g id="edge28_Node000023_Node000020" class="edge">
<title>Node23&#45;&gt;Node20</title>
<g id="a_edge28_Node000023_Node000020"><a xlink:title=" ">
<path fill="none" stroke="#63b8ff" d="M1489.54,-164.89C1502.46,-157.26 1519.72,-144.87 1529,-129 1547.34,-97.64 1549.51,-54.02 1549.03,-29.39"/>
<polygon fill="#63b8ff" stroke="#63b8ff" points="1552.52,-29.11 1548.66,-19.24 1545.53,-29.37 1552.52,-29.11"/>
</a>
</g>
</g>
<!-- Node23&#45;&gt;Node21 -->
<g id="edge32_Node000023_Node000021" class="edge">
<title>Node23&#45;&gt;Node21</title>
<g id="a_edge32_Node000023_Node000021"><a xlink:title=" ">
<path fill="none" stroke="#63b8ff" d="M1452.07,-164.94C1419.93,-151.99 1356.35,-127.12 1301,-110 1258.3,-96.79 1208.91,-84.63 1173.17,-76.37"/>
<polygon fill="#63b8ff" stroke="#63b8ff" points="1173.53,-72.86 1163,-74.04 1171.97,-79.68 1173.53,-72.86"/>
</a>
</g>
</g>
<!-- Node24 -->
<g id="Node000024" class="node">
<title>Node24</title>
<g id="a_Node000024"><a xlink:title=" ">
<polygon fill="#e0e0e0" stroke="#999999" points="1451.5,-129 1386.5,-129 1386.5,-110 1451.5,-110 1451.5,-129"/>
<text text-anchor="middle" x="1419" y="-117" font-family="Helvetica,sans-Serif" font-size="10.00">functional</text>
</a>
</g>
</g>
<!-- Node23&#45;&gt;Node24 -->
<g id="edge25_Node000023_Node000024" class="edge">
<title>Node23&#45;&gt;Node24</title>
<g id="a_edge25_Node000023_Node000024"><a xlink:title=" ">
<path fill="none" stroke="#63b8ff" d="M1464.08,-164.75C1456.22,-157.03 1444.57,-145.6 1435.08,-136.28"/>
<polygon fill="#63b8ff" stroke="#63b8ff" points="1437.34,-133.6 1427.75,-129.09 1432.44,-138.59 1437.34,-133.6"/>
</a>
</g>
</g>
<!-- Node25 -->
<g id="Node000025" class="node">
<title>Node25</title>
<g id="a_Node000025"><a xlink:title=" ">
<polygon fill="#e0e0e0" stroke="#999999" points="1652,-129 1614,-129 1614,-110 1652,-110 1652,-129"/>
<text text-anchor="middle" x="1633" y="-117" font-family="Helvetica,sans-Serif" font-size="10.00">map</text>
</a>
</g>
</g>
<!-- Node23&#45;&gt;Node25 -->
<g id="edge26_Node000023_Node000025" class="edge">
<title>Node23&#45;&gt;Node25</title>
<g id="a_edge26_Node000023_Node000025"><a xlink:title=" ">
<path fill="none" stroke="#63b8ff" d="M1498.71,-164.98C1527.47,-155.46 1573.96,-140.06 1604,-130.11"/>
<polygon fill="#63b8ff" stroke="#63b8ff" points="1605.49,-133.3 1613.88,-126.83 1603.29,-126.65 1605.49,-133.3"/>
</a>
</g>
</g>
<!-- Node26 -->
<g id="Node000026" class="node">
<title>Node26</title>
<g id="a_Node000026"><a xlink:title=" ">
<polygon fill="#e0e0e0" stroke="#999999" points="1520,-129 1470,-129 1470,-110 1520,-110 1520,-129"/>
<text text-anchor="middle" x="1495" y="-117" font-family="Helvetica,sans-Serif" font-size="10.00">ranges</text>
</a>
</g>
</g>
<!-- Node23&#45;&gt;Node26 -->
<g id="edge27_Node000023_Node000026" class="edge">
<title>Node23&#45;&gt;Node26</title>
<g id="a_edge27_Node000023_Node000026"><a xlink:title=" ">
<path fill="none" stroke="#63b8ff" d="M1476.63,-164.75C1479.58,-157.65 1483.83,-147.4 1487.51,-138.56"/>
<polygon fill="#63b8ff" stroke="#63b8ff" points="1490.83,-139.67 1491.43,-129.09 1484.37,-136.98 1490.83,-139.67"/>
</a>
</g>
</g>
<!-- Node27 -->
<g id="Node000027" class="node">
<title>Node27</title>
<g id="a_Node000027"><a xlink:href="_type_info_8hpp.html" target="_top" xlink:title=" ">
<polygon fill="white" stroke="#666666" points="1758,-74 1632,-74 1632,-55 1758,-55 1758,-74"/>
<text text-anchor="middle" x="1695" y="-62" font-family="Helvetica,sans-Serif" font-size="10.00">Common/TypeInfo.hpp</text>
</a>
</g>
</g>
<!-- Node23&#45;&gt;Node27 -->
<g id="edge29_Node000023_Node000027" class="edge">
<title>Node23&#45;&gt;Node27</title>
<g id="a_edge29_Node000023_Node000027"><a xlink:title=" ">
<path fill="none" stroke="#63b8ff" d="M1490.79,-164.84C1529.7,-145.92 1622.51,-100.77 1668.39,-78.45"/>
<polygon fill="#63b8ff" stroke="#63b8ff" points="1669.97,-81.57 1677.43,-74.05 1666.91,-75.27 1669.97,-81.57"/>
</a>
</g>
</g>
<!-- Node29 -->
<g id="Node000029" class="node">
<title>Node29</title>
<g id="a_Node000029"><a xlink:href="_requirements_8hpp.html" target="_top" xlink:title=" ">
<polygon fill="white" stroke="#666666" points="1831.5,-129 1670.5,-129 1670.5,-110 1831.5,-110 1831.5,-129"/>
<text text-anchor="middle" x="1751" y="-117" font-family="Helvetica,sans-Serif" font-size="10.00">JobSystem/Requirements.hpp</text>
</a>
</g>
</g>
<!-- Node23&#45;&gt;Node29 -->
<g id="edge33_Node000023_Node000029" class="edge">
<title>Node23&#45;&gt;Node29</title>
<g id="a_edge33_Node000023_Node000029"><a xlink:title=" ">
<path fill="none" stroke="#63b8ff" d="M1517.67,-164.98C1566.16,-155.74 1643.65,-140.97 1695.89,-131.01"/>
<polygon fill="#63b8ff" stroke="#63b8ff" points="1696.82,-134.39 1705.98,-129.08 1695.51,-127.52 1696.82,-134.39"/>
</a>
</g>
</g>
<!-- Node27&#45;&gt;Node20 -->
<g id="edge30_Node000027_Node000020" class="edge">
<title>Node27&#45;&gt;Node20</title>
<g id="a_edge30_Node000027_Node000020"><a xlink:title=" ">
<path fill="none" stroke="#63b8ff" d="M1671.38,-54.98C1644.75,-45.38 1601.59,-29.82 1574.02,-19.88"/>
<polygon fill="#63b8ff" stroke="#63b8ff" points="1574.87,-16.47 1564.28,-16.37 1572.5,-23.05 1574.87,-16.47"/>
</a>
</g>
</g>
<!-- Node28 -->
<g id="Node000028" class="node">
<title>Node28</title>
<g id="a_Node000028"><a xlink:title=" ">
<polygon fill="#e0e0e0" stroke="#999999" points="1731.5,-19 1658.5,-19 1658.5,0 1731.5,0 1731.5,-19"/>
<text text-anchor="middle" x="1695" y="-7" font-family="Helvetica,sans-Serif" font-size="10.00">string_view</text>
</a>
</g>
</g>
<!-- Node27&#45;&gt;Node28 -->
<g id="edge31_Node000027_Node000028" class="edge">
<title>Node27&#45;&gt;Node28</title>
<g id="a_edge31_Node000027_Node000028"><a xlink:title=" ">
<path fill="none" stroke="#63b8ff" d="M1695,-54.75C1695,-47.8 1695,-37.85 1695,-29.13"/>
<polygon fill="#63b8ff" stroke="#63b8ff" points="1698.5,-29.09 1695,-19.09 1691.5,-29.09 1698.5,-29.09"/>
</a>
</g>
</g>
<!-- Node29&#45;&gt;Node27 -->
<g id="edge34_Node000029_Node000027" class="edge">
<title>Node29&#45;&gt;Node27</title>
<g id="a_edge34_Node000029_Node000027"><a xlink:title=" ">
<path fill="none" stroke="#63b8ff" d="M1742,-109.98C1733.81,-102.23 1721.49,-90.58 1711.53,-81.14"/>
<polygon fill="#63b8ff" stroke="#63b8ff" points="1713.83,-78.5 1704.16,-74.17 1709.02,-83.59 1713.83,-78.5"/>
</a>
</g>
</g>
<!-- Node30&#45;&gt;Node17 -->
<g id="edge37_Node000030_Node000017" class="edge">
<title>Node30&#45;&gt;Node17</title>
<g id="a_edge37_Node000030_Node000017"><a xlink:title=" ">
<path fill="none" stroke="#63b8ff" d="M944.94,-109.98C959.5,-101.69 981.87,-88.94 998.93,-79.22"/>
<polygon fill="#63b8ff" stroke="#63b8ff" points="1000.83,-82.16 1007.79,-74.17 997.36,-76.08 1000.83,-82.16"/>
</a>
</g>
</g>
<!-- Node30&#45;&gt;Node21 -->
<g id="edge38_Node000030_Node000021" class="edge">
<title>Node30&#45;&gt;Node21</title>
<g id="a_edge38_Node000030_Node000021"><a xlink:title=" ">
<path fill="none" stroke="#63b8ff" d="M961.17,-109.98C994.16,-100.97 1046.4,-86.7 1082.77,-76.76"/>
<polygon fill="#63b8ff" stroke="#63b8ff" points="1083.86,-80.09 1092.59,-74.08 1082.02,-73.34 1083.86,-80.09"/>
</a>
</g>
</g>
<!-- Node30&#45;&gt;Node22 -->
<g id="edge36_Node000030_Node000022" class="edge">
<title>Node30&#45;&gt;Node22</title>
<g id="a_edge36_Node000030_Node000022"><a xlink:title=" ">
<path fill="none" stroke="#63b8ff" d="M937.39,-109.74C948.38,-96.95 970.01,-72.79 991,-55 1004.18,-43.83 1020.18,-32.85 1033.01,-24.59"/>
<polygon fill="#63b8ff" stroke="#63b8ff" points="1035.12,-27.39 1041.71,-19.09 1031.38,-21.48 1035.12,-27.39"/>
</a>
</g>
</g>
<!-- Node32 -->
<g id="Node000032" class="node">
<title>Node32</title>
<g id="a_Node000032"><a xlink:title=" ">
<polygon fill="#e0e0e0" stroke="#999999" points="645.5,-129 576.5,-129 576.5,-110 645.5,-110 645.5,-129"/>
<text text-anchor="middle" x="611" y="-117" font-family="Helvetica,sans-Serif" font-size="10.00">type_traits</text>
</a>
</g>
</g>
<!-- Node31&#45;&gt;Node32 -->
<g id="edge40_Node000031_Node000032" class="edge">
<title>Node31&#45;&gt;Node32</title>
<g id="a_edge40_Node000031_Node000032"><a xlink:title=" ">
<path fill="none" stroke="#63b8ff" d="M553.93,-164.98C564.08,-157.07 579.42,-145.11 591.65,-135.58"/>
<polygon fill="#63b8ff" stroke="#63b8ff" points="594.14,-138.08 599.88,-129.17 589.84,-132.56 594.14,-138.08"/>
</a>
</g>
</g>
<!-- Node33&#45;&gt;Node12 -->
<g id="edge42_Node000033_Node000012" class="edge">
<title>Node33&#45;&gt;Node12</title>
<g id="a_edge42_Node000033_Node000012"><a xlink:title=" ">
<path fill="none" stroke="#63b8ff" d="M925.97,-164.98C898.89,-156.13 856.29,-142.19 825.99,-132.28"/>
<polygon fill="#63b8ff" stroke="#63b8ff" points="826.82,-128.87 816.23,-129.08 824.65,-135.52 826.82,-128.87"/>
</a>
</g>
</g>
<!-- Node33&#45;&gt;Node30 -->
<g id="edge43_Node000033_Node000030" class="edge">
<title>Node33&#45;&gt;Node30</title>
<g id="a_edge43_Node000033_Node000030"><a xlink:title=" ">
<path fill="none" stroke="#63b8ff" d="M948.37,-164.75C945.42,-157.65 941.17,-147.4 937.49,-138.56"/>
<polygon fill="#63b8ff" stroke="#63b8ff" points="940.63,-136.98 933.57,-129.09 934.17,-139.67 940.63,-136.98"/>
</a>
</g>
</g>
<!-- Node33&#45;&gt;Node32 -->
<g id="edge45_Node000033_Node000032" class="edge">
<title>Node33&#45;&gt;Node32</title>
<g id="a_edge45_Node000033_Node000032"><a xlink:title=" ">
<path fill="none" stroke="#63b8ff" d="M897.97,-165.1C830.9,-154.68 717.78,-137.1 655.48,-127.41"/>
<polygon fill="#63b8ff" stroke="#63b8ff" points="655.98,-123.95 645.56,-125.87 654.91,-130.87 655.98,-123.95"/>
</a>
</g>
</g>
<!-- Node34 -->
<g id="Node000034" class="node">
<title>Node34</title>
<g id="a_Node000034"><a xlink:title=" ">
<polygon fill="#e0e0e0" stroke="#999999" points="1065.5,-129 1012.5,-129 1012.5,-110 1065.5,-110 1065.5,-129"/>
<text text-anchor="middle" x="1039" y="-117" font-family="Helvetica,sans-Serif" font-size="10.00">cstddef</text>
</a>
</g>
</g>
<!-- Node33&#45;&gt;Node34 -->
<g id="edge44_Node000033_Node000034" class="edge">
<title>Node33&#45;&gt;Node34</title>
<g id="a_edge44_Node000033_Node000034"><a xlink:title=" ">
<path fill="none" stroke="#63b8ff" d="M965.98,-164.98C979.47,-156.77 1000.13,-144.18 1016.04,-134.49"/>
<polygon fill="#63b8ff" stroke="#63b8ff" points="1018.05,-137.36 1024.77,-129.17 1014.41,-131.38 1018.05,-137.36"/>
</a>
</g>
</g>
<!-- Node35&#45;&gt;Node4 -->
<g id="edge51_Node000035_Node000004" class="edge">
<title>Node35&#45;&gt;Node4</title>
<g id="a_edge51_Node000035_Node000004"><a xlink:title=" ">
<path fill="none" stroke="#63b8ff" d="M548.52,-274.93C533.23,-261.52 501.72,-235.49 471,-220 441.52,-205.13 406.08,-194.02 377.98,-186.62"/>
<polygon fill="#63b8ff" stroke="#63b8ff" points="378.54,-183.15 367.99,-184.06 376.81,-189.93 378.54,-183.15"/>
</a>
</g>
</g>
<!-- Node36 -->
<g id="Node000036" class="node">
<title>Node36</title>
<g id="a_Node000036"><a xlink:title=" ">
<polygon fill="#e0e0e0" stroke="#999999" points="428.5,-239 357.5,-239 357.5,-220 428.5,-220 428.5,-239"/>
<text text-anchor="middle" x="393" y="-227" font-family="Helvetica,sans-Serif" font-size="10.00">glad/glad.h</text>
</a>
</g>
</g>
<!-- Node35&#45;&gt;Node36 -->
<g id="edge48_Node000035_Node000036" class="edge">
<title>Node35&#45;&gt;Node36</title>
<g id="a_edge48_Node000035_Node000036"><a xlink:title=" ">
<path fill="none" stroke="#63b8ff" d="M531.49,-274.98C503.79,-266.09 460.14,-252.07 429.26,-242.15"/>
<polygon fill="#63b8ff" stroke="#63b8ff" points="430.31,-238.81 419.72,-239.08 428.17,-245.47 430.31,-238.81"/>
</a>
</g>
</g>
<!-- Node37 -->
<g id="Node000037" class="node">
<title>Node37</title>
<g id="a_Node000037"><a xlink:href="_image_8hpp.html" target="_top" xlink:title=" ">
<polygon fill="white" stroke="#666666" points="702.5,-239 561.5,-239 561.5,-220 702.5,-220 702.5,-239"/>
<text text-anchor="middle" x="632" y="-227" font-family="Helvetica,sans-Serif" font-size="10.00">AssetManager/Image.hpp</text>
</a>
</g>
</g>
<!-- Node35&#45;&gt;Node37 -->
<g id="edge49_Node000035_Node000037" class="edge">
<title>Node35&#45;&gt;Node37</title>
<g id="a_edge49_Node000035_Node000037"><a xlink:title=" ">
<path fill="none" stroke="#63b8ff" d="M569.89,-274.98C581.15,-266.92 598.29,-254.65 611.71,-245.03"/>
<polygon fill="#63b8ff" stroke="#63b8ff" points="613.8,-247.84 619.89,-239.17 609.73,-242.15 613.8,-247.84"/>
</a>
</g>
</g>
<!-- Node37&#45;&gt;Node19 -->
<g id="edge50_Node000037_Node000019" class="edge">
<title>Node37&#45;&gt;Node19</title>
<g id="a_edge50_Node000037_Node000019"><a xlink:title=" ">
<path fill="none" stroke="#63b8ff" d="M574.02,-219.96C514.84,-210.68 430.21,-195.61 420,-184 409.4,-171.94 409.21,-153.14 411.04,-139.12"/>
<polygon fill="#63b8ff" stroke="#63b8ff" points="414.51,-139.57 412.78,-129.12 407.62,-138.37 414.51,-139.57"/>
</a>
</g>
</g>
<!-- Node39 -->
<g id="Node000039" class="node">
<title>Node39</title>
<g id="a_Node000039"><a xlink:title=" ">
<polygon fill="#e0e0e0" stroke="#999999" points="1099,-239 1049,-239 1049,-220 1099,-220 1099,-239"/>
<text text-anchor="middle" x="1074" y="-227" font-family="Helvetica,sans-Serif" font-size="10.00">atomic</text>
</a>
</g>
</g>
<!-- Node38&#45;&gt;Node39 -->
<g id="edge53_Node000038_Node000039" class="edge">
<title>Node38&#45;&gt;Node39</title>
<g id="a_edge53_Node000038_Node000039"><a xlink:title=" ">
<path fill="none" stroke="#63b8ff" d="M1074,-274.75C1074,-267.8 1074,-257.85 1074,-249.13"/>
<polygon fill="#63b8ff" stroke="#63b8ff" points="1077.5,-249.09 1074,-239.09 1070.5,-249.09 1077.5,-249.09"/>
</a>
</g>
</g>
<!-- Node40 -->
<g id="Node000040" class="node">
<title>Node40</title>
<g id="a_Node000040"><a xlink:href="_profiler_8hpp.html" target="_top" xlink:title=" ">
<polygon fill="white" stroke="#666666" points="1358.5,-239 1239.5,-239 1239.5,-220 1358.5,-220 1358.5,-239"/>
<text text-anchor="middle" x="1299" y="-227" font-family="Helvetica,sans-Serif" font-size="10.00">Common/Profiler.hpp</text>
</a>
</g>
</g>
<!-- Node38&#45;&gt;Node40 -->
<g id="edge54_Node000038_Node000040" class="edge">
<title>Node38&#45;&gt;Node40</title>
<g id="a_edge54_Node000038_Node000040"><a xlink:title=" ">
<path fill="none" stroke="#63b8ff" d="M1110.15,-274.98C1148.91,-265.86 1210.55,-251.33 1252.8,-241.38"/>
<polygon fill="#63b8ff" stroke="#63b8ff" points="1253.64,-244.78 1262.57,-239.08 1252.03,-237.97 1253.64,-244.78"/>
</a>
</g>
</g>
<!-- Node40&#45;&gt;Node3 -->
<g id="edge58_Node000040_Node000003" class="edge">
<title>Node40&#45;&gt;Node3</title>
<g id="a_edge58_Node000040_Node000003"><a xlink:title=" ">
<path fill="none" stroke="#63b8ff" d="M1239.21,-225.82C1201.56,-224.13 1151.94,-221.92 1108,-220 714.13,-202.74 235.67,-182.31 108.37,-176.88"/>
<polygon fill="#63b8ff" stroke="#63b8ff" points="108.29,-173.37 98.15,-176.44 107.99,-180.37 108.29,-173.37"/>
</a>
</g>
</g>
<!-- Node40&#45;&gt;Node16 -->
<g id="edge57_Node000040_Node000016" class="edge">
<title>Node40&#45;&gt;Node16</title>
<g id="a_edge57_Node000040_Node000016"><a xlink:title=" ">
<path fill="none" stroke="#63b8ff" d="M1289.59,-219.66C1270.12,-201.38 1225.19,-159.18 1200.68,-136.17"/>
<polygon fill="#63b8ff" stroke="#63b8ff" points="1202.91,-133.45 1193.22,-129.16 1198.11,-138.56 1202.91,-133.45"/>
</a>
</g>
</g>
<!-- Node40&#45;&gt;Node25 -->
<g id="edge56_Node000040_Node000025" class="edge">
<title>Node40&#45;&gt;Node25</title>
<g id="a_edge56_Node000040_Node000025"><a xlink:title=" ">
<path fill="none" stroke="#63b8ff" d="M1358.59,-225.88C1461.07,-220.75 1661.82,-207.77 1683,-184 1697.49,-167.74 1676.02,-147.85 1656.88,-134.71"/>
<polygon fill="#63b8ff" stroke="#63b8ff" points="1658.68,-131.71 1648.38,-129.19 1654.86,-137.57 1658.68,-131.71"/>
</a>
</g>
</g>
<!-- Node41 -->
<g id="Node000041" class="node">
<title>Node41</title>
<g id="a_Node000041"><a xlink:title=" ">
<polygon fill="#e0e0e0" stroke="#999999" points="1608,-184 1558,-184 1558,-165 1608,-165 1608,-184"/>
<text text-anchor="middle" x="1583" y="-172" font-family="Helvetica,sans-Serif" font-size="10.00">chrono</text>
</a>
</g>
</g>
<!-- Node40&#45;&gt;Node41 -->
<g id="edge55_Node000040_Node000041" class="edge">
<title>Node40&#45;&gt;Node41</title>
<g id="a_edge55_Node000040_Node000041"><a xlink:title=" ">
<path fill="none" stroke="#63b8ff" d="M1353.34,-219.93C1401.94,-212.02 1475.32,-199.47 1548.01,-184.09"/>
<polygon fill="#63b8ff" stroke="#63b8ff" points="1548.74,-187.52 1557.79,-182.01 1547.28,-180.67 1548.74,-187.52"/>
</a>
</g>
</g>
<!-- Node42 -->
<g id="Node000042" class="node">
<title>Node42</title>
<g id="a_Node000042"><a xlink:title=" ">
<polygon fill="#e0e0e0" stroke="#999999" points="1674,-184 1626,-184 1626,-165 1674,-165 1674,-184"/>
<text text-anchor="middle" x="1650" y="-172" font-family="Helvetica,sans-Serif" font-size="10.00">thread</text>
</a>
</g>
</g>
<!-- Node40&#45;&gt;Node42 -->
<g id="edge59_Node000040_Node000042" class="edge">
<title>Node40&#45;&gt;Node42</title>
<g id="a_edge59_Node000040_Node000042"><a xlink:title=" ">
<path fill="none" stroke="#63b8ff" d="M1358.53,-222.21C1420.55,-215.19 1520.67,-202.58 1616.11,-183.98"/>
<polygon fill="#63b8ff" stroke="#63b8ff" points="1616.79,-187.41 1625.92,-182.04 1615.43,-180.54 1616.79,-187.41"/>
</a>
</g>
</g>
<!-- Node43&#45;&gt;Node3 -->
<g id="edge65_Node000043_Node000003" class="edge">
<title>Node43&#45;&gt;Node3</title>
<g id="a_edge65_Node000043_Node000003"><a xlink:title=" ">
<path fill="none" stroke="#63b8ff" d="M148.31,-329.91C129.95,-323.16 107.78,-311.85 95,-294 73.65,-264.18 72.68,-219.33 74.15,-194.23"/>
<polygon fill="#63b8ff" stroke="#63b8ff" points="77.65,-194.46 74.94,-184.21 70.67,-193.91 77.65,-194.46"/>
</a>
</g>
</g>
<!-- Node43&#45;&gt;Node4 -->
<g id="edge64_Node000043_Node000004" class="edge">
<title>Node43&#45;&gt;Node4</title>
<g id="a_edge64_Node000043_Node000004"><a xlink:title=" ">
<path fill="none" stroke="#63b8ff" d="M245.42,-329.97C268.71,-323.69 293.02,-312.82 309,-294 332.89,-265.87 333.31,-220.03 331.29,-194.39"/>
<polygon fill="#63b8ff" stroke="#63b8ff" points="334.75,-193.77 330.27,-184.17 327.78,-194.47 334.75,-193.77"/>
</a>
</g>
</g>
<!-- Node43&#45;&gt;Node19 -->
<g id="edge63_Node000043_Node000019" class="edge">
<title>Node43&#45;&gt;Node19</title>
<g id="a_edge63_Node000043_Node000019"><a xlink:title=" ">
<path fill="none" stroke="#63b8ff" d="M175.16,-329.94C166.52,-309.25 147.92,-255.59 170,-220 212.59,-151.37 312.36,-130.08 370.59,-123.47"/>
<polygon fill="#63b8ff" stroke="#63b8ff" points="371.03,-126.94 380.61,-122.43 370.31,-119.98 371.03,-126.94"/>
</a>
</g>
</g>
<!-- Node43&#45;&gt;Node36 -->
<g id="edge62_Node000043_Node000036" class="edge">
<title>Node43&#45;&gt;Node36</title>
<g id="a_edge62_Node000043_Node000036"><a xlink:title=" ">
<path fill="none" stroke="#63b8ff" d="M247.29,-329.99C278.42,-323.69 314.58,-312.8 343,-294 360.5,-282.43 374.61,-262.72 383.32,-248.32"/>
<polygon fill="#63b8ff" stroke="#63b8ff" points="386.52,-249.78 388.47,-239.36 380.45,-246.29 386.52,-249.78"/>
</a>
</g>
</g>
<!-- Node44 -->
<g id="Node000044" class="node">
<title>Node44</title>
<g id="a_Node000044"><a xlink:title=" ">
<polygon fill="#e0e0e0" stroke="#999999" points="151.5,-294 104.5,-294 104.5,-275 151.5,-275 151.5,-294"/>
<text text-anchor="middle" x="128" y="-282" font-family="Helvetica,sans-Serif" font-size="10.00">vector</text>
</a>
</g>
</g>
<!-- Node43&#45;&gt;Node44 -->
<g id="edge66_Node000043_Node000044" class="edge">
<title>Node43&#45;&gt;Node44</title>
<g id="a_edge66_Node000043_Node000044"><a xlink:title=" ">
<path fill="none" stroke="#63b8ff" d="M170.58,-329.75C163.23,-322.11 152.37,-310.82 143.46,-301.56"/>
<polygon fill="#63b8ff" stroke="#63b8ff" points="145.72,-298.87 136.26,-294.09 140.68,-303.72 145.72,-298.87"/>
</a>
</g>
</g>
<!-- Node45 -->
<g id="Node000045" class="node">
<title>Node45</title>
<g id="a_Node000045"><a xlink:href="_a_a_b_b_8hpp.html" target="_top" xlink:title=" ">
<polygon fill="white" stroke="#666666" points="300,-294 208,-294 208,-275 300,-275 300,-294"/>
<text text-anchor="middle" x="254" y="-282" font-family="Helvetica,sans-Serif" font-size="10.00">Math/AABB.hpp</text>
</a>
</g>
</g>
<!-- Node43&#45;&gt;Node45 -->
<g id="edge67_Node000043_Node000045" class="edge">
<title>Node43&#45;&gt;Node45</title>
<g id="a_edge67_Node000043_Node000045"><a xlink:title=" ">
<path fill="none" stroke="#63b8ff" d="M191.05,-329.98C202.46,-321.92 219.83,-309.65 233.43,-300.03"/>
<polygon fill="#63b8ff" stroke="#63b8ff" points="235.58,-302.8 241.73,-294.17 231.54,-297.08 235.58,-302.8"/>
</a>
</g>
</g>
<!-- Node45&#45;&gt;Node4 -->
<g id="edge70_Node000045_Node000004" class="edge">
<title>Node45&#45;&gt;Node4</title>
<g id="a_edge70_Node000045_Node000004"><a xlink:title=" ">
<path fill="none" stroke="#63b8ff" d="M260.14,-274.66C272.62,-256.69 301.12,-215.64 317.28,-192.38"/>
<polygon fill="#63b8ff" stroke="#63b8ff" points="320.16,-194.37 322.99,-184.16 314.41,-190.38 320.16,-194.37"/>
</a>
</g>
</g>
<!-- Node46 -->
<g id="Node000046" class="node">
<title>Node46</title>
<g id="a_Node000046"><a xlink:href="_ray_8hpp.html" target="_top" xlink:title=" ">
<polygon fill="white" stroke="#666666" points="262.5,-239 179.5,-239 179.5,-220 262.5,-220 262.5,-239"/>
<text text-anchor="middle" x="221" y="-227" font-family="Helvetica,sans-Serif" font-size="10.00">Math/Ray.hpp</text>
</a>
</g>
</g>
<!-- Node45&#45;&gt;Node46 -->
<g id="edge68_Node000045_Node000046" class="edge">
<title>Node45&#45;&gt;Node46</title>
<g id="a_edge68_Node000045_Node000046"><a xlink:title=" ">
<path fill="none" stroke="#63b8ff" d="M248.55,-274.75C243.99,-267.42 237.33,-256.73 231.71,-247.7"/>
<polygon fill="#63b8ff" stroke="#63b8ff" points="234.6,-245.73 226.35,-239.09 228.66,-249.43 234.6,-245.73"/>
</a>
</g>
</g>
<!-- Node46&#45;&gt;Node4 -->
<g id="edge69_Node000046_Node000004" class="edge">
<title>Node46&#45;&gt;Node4</title>
<g id="a_edge69_Node000046_Node000004"><a xlink:title=" ">
<path fill="none" stroke="#63b8ff" d="M238.35,-219.98C255.57,-211.54 282.2,-198.47 302.15,-188.68"/>
<polygon fill="#63b8ff" stroke="#63b8ff" points="303.9,-191.72 311.33,-184.17 300.81,-185.43 303.9,-191.72"/>
</a>
</g>
</g>
<!-- Node47&#45;&gt;Node18 -->
<g id="edge73_Node000047_Node000018" class="edge">
<title>Node47&#45;&gt;Node18</title>
<g id="a_edge73_Node000047_Node000018"><a xlink:title=" ">
<path fill="none" stroke="#63b8ff" d="M1597.91,-219.98C1541.89,-210.65 1452.05,-195.67 1392.29,-185.71"/>
<polygon fill="#63b8ff" stroke="#63b8ff" points="1392.67,-182.23 1382.23,-184.04 1391.52,-189.13 1392.67,-182.23"/>
</a>
</g>
</g>
<!-- Node47&#45;&gt;Node27 -->
<g id="edge72_Node000047_Node000027" class="edge">
<title>Node47&#45;&gt;Node27</title>
<g id="a_edge72_Node000047_Node000027"><a xlink:title=" ">
<path fill="none" stroke="#63b8ff" d="M1691.96,-219.92C1738.01,-208.17 1808.83,-182.16 1841,-129 1861.26,-95.51 1814.43,-79.64 1768.54,-72.15"/>
<polygon fill="#63b8ff" stroke="#63b8ff" points="1768.89,-68.66 1758.48,-70.63 1767.84,-75.58 1768.89,-68.66"/>
</a>
</g>
</g>
<!-- Node47&#45;&gt;Node29 -->
<g id="edge74_Node000047_Node000029" class="edge">
<title>Node47&#45;&gt;Node29</title>
<g id="a_edge74_Node000047_Node000029"><a xlink:title=" ">
<path fill="none" stroke="#63b8ff" d="M1666.65,-219.86C1681.25,-212.04 1701.81,-199.41 1716,-184 1728.37,-170.57 1737.95,-151.98 1743.94,-138.38"/>
<polygon fill="#63b8ff" stroke="#63b8ff" points="1747.18,-139.7 1747.81,-129.13 1740.72,-137 1747.18,-139.7"/>
</a>
</g>
</g>
</g>
</svg>
