<?xml version="1.0" encoding="UTF-8" standalone="no"?>
<!DOCTYPE svg PUBLIC "-//W3C//DTD SVG 1.1//EN"
 "http://www.w3.org/Graphics/SVG/1.1/DTD/svg11.dtd">
<!-- Generated by graphviz version 2.43.0 (0)
 -->
<!-- Title: src/ui/Components/BillboardComponentUI.hpp Pages: 1 -->
<svg width="1951pt" height="489pt"
 viewBox="0.00 0.00 1950.52 489.00" xmlns="http://www.w3.org/2000/svg" xmlns:xlink="http://www.w3.org/1999/xlink">
<g id="graph0" class="graph" transform="scale(1 1) rotate(0) translate(4 485)">
<title>src/ui/Components/BillboardComponentUI.hpp</title>
<!-- Node1 -->
<g id="Node000001" class="node">
<title>Node1</title>
<g id="a_Node000001"><a xlink:title=" ">
<polygon fill="#999999" stroke="#666666" points="1505.52,-481 1351.52,-481 1351.52,-451 1505.52,-451 1505.52,-481"/>
<text text-anchor="start" x="1359.52" y="-469" font-family="Helvetica,sans-Serif" font-size="10.00">src/ui/Components/Billboard</text>
<text text-anchor="middle" x="1428.52" y="-458" font-family="Helvetica,sans-Serif" font-size="10.00">ComponentUI.hpp</text>
</a>
</g>
</g>
<!-- Node2 -->
<g id="Node000002" class="node">
<title>Node2</title>
<g id="a_Node000002"><a xlink:href="_material_8hpp.html" target="_top" xlink:title=" ">
<polygon fill="white" stroke="#666666" points="1078.02,-360 927.02,-360 927.02,-341 1078.02,-341 1078.02,-360"/>
<text text-anchor="middle" x="1002.52" y="-348" font-family="Helvetica,sans-Serif" font-size="10.00">AssetManager/Material.hpp</text>
</a>
</g>
</g>
<!-- Node1&#45;&gt;Node2 -->
<g id="edge1_Node000001_Node000002" class="edge">
<title>Node1&#45;&gt;Node2</title>
<g id="a_edge1_Node000001_Node000002"><a xlink:title=" ">
<path fill="none" stroke="#63b8ff" d="M1370.94,-450.96C1331.15,-441.16 1277.03,-427.61 1229.52,-415 1163.52,-397.48 1087.1,-375.82 1041.9,-362.86"/>
<polygon fill="#63b8ff" stroke="#63b8ff" points="1042.78,-359.47 1032.2,-360.07 1040.84,-366.2 1042.78,-359.47"/>
</a>
</g>
</g>
<!-- Node6 -->
<g id="Node000006" class="node">
<title>Node6</title>
<g id="a_Node000006"><a xlink:href="_registry_8hpp.html" target="_top" xlink:title=" ">
<polygon fill="white" stroke="#666666" points="462.52,-250 364.52,-250 364.52,-231 462.52,-231 462.52,-250"/>
<text text-anchor="middle" x="413.52" y="-238" font-family="Helvetica,sans-Serif" font-size="10.00">ECS/Registry.hpp</text>
</a>
</g>
</g>
<!-- Node1&#45;&gt;Node6 -->
<g id="edge31_Node000001_Node000006" class="edge">
<title>Node1&#45;&gt;Node6</title>
<g id="a_edge31_Node000001_Node000006"><a xlink:title=" ">
<path fill="none" stroke="#63b8ff" d="M1351.28,-451.6C1296.76,-441.95 1222.04,-428.33 1156.52,-415 936.53,-370.25 881.9,-357.08 663.52,-305 590.17,-287.5 505.14,-265.55 455.54,-252.57"/>
<polygon fill="#63b8ff" stroke="#63b8ff" points="456.37,-249.17 445.81,-250.02 454.6,-255.94 456.37,-249.17"/>
</a>
</g>
</g>
<!-- Node23 -->
<g id="Node000023" class="node">
<title>Node23</title>
<g id="a_Node000023"><a xlink:title=" ">
<polygon fill="#e0e0e0" stroke="#999999" points="1576.52,-415 1458.52,-415 1458.52,-396 1576.52,-396 1576.52,-415"/>
<text text-anchor="middle" x="1517.52" y="-403" font-family="Helvetica,sans-Serif" font-size="10.00">UI/ComponentUI.hpp</text>
</a>
</g>
</g>
<!-- Node1&#45;&gt;Node23 -->
<g id="edge32_Node000001_Node000023" class="edge">
<title>Node1&#45;&gt;Node23</title>
<g id="a_edge32_Node000001_Node000023"><a xlink:title=" ">
<path fill="none" stroke="#63b8ff" d="M1450.07,-450.84C1463.99,-441.68 1482.05,-429.82 1495.98,-420.66"/>
<polygon fill="#63b8ff" stroke="#63b8ff" points="1498.01,-423.51 1504.45,-415.09 1494.17,-417.66 1498.01,-423.51"/>
</a>
</g>
</g>
<!-- Node24 -->
<g id="Node000024" class="node">
<title>Node24</title>
<g id="a_Node000024"><a xlink:title=" ">
<polygon fill="#e0e0e0" stroke="#999999" points="1760.02,-415 1595.02,-415 1595.02,-396 1760.02,-396 1760.02,-415"/>
<text text-anchor="middle" x="1677.52" y="-403" font-family="Helvetica,sans-Serif" font-size="10.00">UI/Common/EnumSelector.hpp</text>
</a>
</g>
</g>
<!-- Node1&#45;&gt;Node24 -->
<g id="edge33_Node000001_Node000024" class="edge">
<title>Node1&#45;&gt;Node24</title>
<g id="a_edge33_Node000001_Node000024"><a xlink:title=" ">
<path fill="none" stroke="#63b8ff" d="M1488.16,-450.99C1532.07,-440.67 1590.9,-426.85 1631.27,-417.37"/>
<polygon fill="#63b8ff" stroke="#63b8ff" points="1632.18,-420.75 1641.11,-415.05 1630.58,-413.93 1632.18,-420.75"/>
</a>
</g>
</g>
<!-- Node25 -->
<g id="Node000025" class="node">
<title>Node25</title>
<g id="a_Node000025"><a xlink:title=" ">
<polygon fill="#e0e0e0" stroke="#999999" points="1942.52,-415 1778.52,-415 1778.52,-396 1942.52,-396 1942.52,-415"/>
<text text-anchor="middle" x="1860.52" y="-403" font-family="Helvetica,sans-Serif" font-size="10.00">UI/Common/AssetSelector.hpp</text>
</a>
</g>
</g>
<!-- Node1&#45;&gt;Node25 -->
<g id="edge34_Node000001_Node000025" class="edge">
<title>Node1&#45;&gt;Node25</title>
<g id="a_edge34_Node000001_Node000025"><a xlink:title=" ">
<path fill="none" stroke="#63b8ff" d="M1505.75,-454.54C1585.54,-443.74 1709.12,-427 1787.37,-416.41"/>
<polygon fill="#63b8ff" stroke="#63b8ff" points="1788.19,-419.83 1797.63,-415.02 1787.25,-412.89 1788.19,-419.83"/>
</a>
</g>
</g>
<!-- Node26 -->
<g id="Node000026" class="node">
<title>Node26</title>
<g id="a_Node000026"><a xlink:href="_billboard_component_8hpp.html" target="_top" xlink:title=" ">
<polygon fill="white" stroke="#666666" points="1440.52,-415 1238.52,-415 1238.52,-396 1440.52,-396 1440.52,-415"/>
<text text-anchor="middle" x="1339.52" y="-403" font-family="Helvetica,sans-Serif" font-size="10.00">Components/BillboardComponent.hpp</text>
</a>
</g>
</g>
<!-- Node1&#45;&gt;Node26 -->
<g id="edge35_Node000001_Node000026" class="edge">
<title>Node1&#45;&gt;Node26</title>
<g id="a_edge35_Node000001_Node000026"><a xlink:title=" ">
<path fill="none" stroke="#63b8ff" d="M1406.98,-450.84C1393.05,-441.68 1374.99,-429.82 1361.07,-420.66"/>
<polygon fill="#63b8ff" stroke="#63b8ff" points="1362.88,-417.66 1352.6,-415.09 1359.03,-423.51 1362.88,-417.66"/>
</a>
</g>
</g>
<!-- Node3 -->
<g id="Node000003" class="node">
<title>Node3</title>
<g id="a_Node000003"><a xlink:title=" ">
<polygon fill="#e0e0e0" stroke="#999999" points="1240.52,-189.5 1162.52,-189.5 1162.52,-170.5 1240.52,-170.5 1240.52,-189.5"/>
<text text-anchor="middle" x="1201.52" y="-177.5" font-family="Helvetica,sans-Serif" font-size="10.00">glm/glm.hpp</text>
</a>
</g>
</g>
<!-- Node2&#45;&gt;Node3 -->
<g id="edge2_Node000002_Node000003" class="edge">
<title>Node2&#45;&gt;Node3</title>
<g id="a_edge2_Node000002_Node000003"><a xlink:title=" ">
<path fill="none" stroke="#63b8ff" d="M1001.05,-340.74C997.95,-319.12 993.19,-262.69 1021.52,-231 1054.2,-194.44 1111.06,-183.62 1152.14,-180.9"/>
<polygon fill="#63b8ff" stroke="#63b8ff" points="1152.42,-184.39 1162.22,-180.37 1152.05,-177.4 1152.42,-184.39"/>
</a>
</g>
</g>
<!-- Node4 -->
<g id="Node000004" class="node">
<title>Node4</title>
<g id="a_Node000004"><a xlink:href="_asset_8hpp.html" target="_top" xlink:title=" ">
<polygon fill="white" stroke="#666666" points="810.02,-305 673.02,-305 673.02,-286 810.02,-286 810.02,-305"/>
<text text-anchor="middle" x="741.52" y="-293" font-family="Helvetica,sans-Serif" font-size="10.00">AssetManager/Asset.hpp</text>
</a>
</g>
</g>
<!-- Node2&#45;&gt;Node4 -->
<g id="edge3_Node000002_Node000004" class="edge">
<title>Node2&#45;&gt;Node4</title>
<g id="a_edge3_Node000002_Node000004"><a xlink:title=" ">
<path fill="none" stroke="#63b8ff" d="M960.59,-340.98C915.25,-331.78 842.91,-317.09 793.88,-307.13"/>
<polygon fill="#63b8ff" stroke="#63b8ff" points="794.28,-303.64 783.78,-305.08 792.89,-310.5 794.28,-303.64"/>
</a>
</g>
</g>
<!-- Node19 -->
<g id="Node000019" class="node">
<title>Node19</title>
<g id="a_Node000019"><a xlink:href="_texture_8hpp.html" target="_top" xlink:title=" ">
<polygon fill="white" stroke="#666666" points="974.52,-305 828.52,-305 828.52,-286 974.52,-286 974.52,-305"/>
<text text-anchor="middle" x="901.52" y="-293" font-family="Helvetica,sans-Serif" font-size="10.00">AssetManager/Texture.hpp</text>
</a>
</g>
</g>
<!-- Node2&#45;&gt;Node19 -->
<g id="edge24_Node000002_Node000019" class="edge">
<title>Node2&#45;&gt;Node19</title>
<g id="a_edge24_Node000002_Node000019"><a xlink:title=" ">
<path fill="none" stroke="#63b8ff" d="M986.29,-340.98C970.34,-332.61 945.74,-319.7 927.14,-309.95"/>
<polygon fill="#63b8ff" stroke="#63b8ff" points="928.53,-306.72 918.04,-305.17 925.27,-312.92 928.53,-306.72"/>
</a>
</g>
</g>
<!-- Node5 -->
<g id="Node000005" class="node">
<title>Node5</title>
<g id="a_Node000005"><a xlink:title=" ">
<polygon fill="#e0e0e0" stroke="#999999" points="957.52,-129 889.52,-129 889.52,-110 957.52,-110 957.52,-129"/>
<text text-anchor="middle" x="923.52" y="-117" font-family="Helvetica,sans-Serif" font-size="10.00">filesystem</text>
</a>
</g>
</g>
<!-- Node4&#45;&gt;Node5 -->
<g id="edge4_Node000004_Node000005" class="edge">
<title>Node4&#45;&gt;Node5</title>
<g id="a_edge4_Node000004_Node000005"><a xlink:title=" ">
<path fill="none" stroke="#63b8ff" d="M746.5,-285.7C753.99,-272.87 769.05,-248.65 785.52,-231 822.18,-191.72 873.23,-154.49 901.85,-134.87"/>
<polygon fill="#63b8ff" stroke="#63b8ff" points="903.99,-137.65 910.31,-129.14 900.06,-131.86 903.99,-137.65"/>
</a>
</g>
</g>
<!-- Node4&#45;&gt;Node6 -->
<g id="edge5_Node000004_Node000006" class="edge">
<title>Node4&#45;&gt;Node6</title>
<g id="a_edge5_Node000004_Node000006"><a xlink:title=" ">
<path fill="none" stroke="#63b8ff" d="M688.82,-285.98C629.73,-276.44 534.12,-260.99 472.56,-251.04"/>
<polygon fill="#63b8ff" stroke="#63b8ff" points="473.04,-247.57 462.61,-249.43 471.92,-254.48 473.04,-247.57"/>
</a>
</g>
</g>
<!-- Node7 -->
<g id="Node000007" class="node">
<title>Node7</title>
<g id="a_Node000007"><a xlink:title=" ">
<polygon fill="#e0e0e0" stroke="#999999" points="98.52,-129 12.52,-129 12.52,-110 98.52,-110 98.52,-129"/>
<text text-anchor="middle" x="55.52" y="-117" font-family="Helvetica,sans-Serif" font-size="10.00">unordered_set</text>
</a>
</g>
</g>
<!-- Node6&#45;&gt;Node7 -->
<g id="edge6_Node000006_Node000007" class="edge">
<title>Node6&#45;&gt;Node7</title>
<g id="a_edge6_Node000006_Node000007"><a xlink:title=" ">
<path fill="none" stroke="#63b8ff" d="M364.33,-236.77C289.99,-231.9 153.26,-219.81 111.52,-195 89.2,-181.73 72.85,-155.82 63.77,-138.33"/>
<polygon fill="#63b8ff" stroke="#63b8ff" points="66.82,-136.6 59.26,-129.16 60.53,-139.68 66.82,-136.6"/>
</a>
</g>
</g>
<!-- Node8 -->
<g id="Node000008" class="node">
<title>Node8</title>
<g id="a_Node000008"><a xlink:href="_logger_8hpp.html" target="_top" xlink:title=" ">
<polygon fill="white" stroke="#666666" points="559.02,-189.5 442.02,-189.5 442.02,-170.5 559.02,-170.5 559.02,-189.5"/>
<text text-anchor="middle" x="500.52" y="-177.5" font-family="Helvetica,sans-Serif" font-size="10.00">Common/Logger.hpp</text>
</a>
</g>
</g>
<!-- Node6&#45;&gt;Node8 -->
<g id="edge7_Node000006_Node000008" class="edge">
<title>Node6&#45;&gt;Node8</title>
<g id="a_edge7_Node000006_Node000008"><a xlink:title=" ">
<path fill="none" stroke="#63b8ff" d="M426.36,-230.87C440.24,-221.54 462.59,-206.51 479.13,-195.38"/>
<polygon fill="#63b8ff" stroke="#63b8ff" points="481.29,-198.15 487.63,-189.67 477.38,-192.34 481.29,-198.15"/>
</a>
</g>
</g>
<!-- Node11 -->
<g id="Node000011" class="node">
<title>Node11</title>
<g id="a_Node000011"><a xlink:href="_entity_8hpp.html" target="_top" xlink:title=" ">
<polygon fill="white" stroke="#666666" points="256.52,-74 170.52,-74 170.52,-55 256.52,-55 256.52,-74"/>
<text text-anchor="middle" x="213.52" y="-62" font-family="Helvetica,sans-Serif" font-size="10.00">ECS/Entity.hpp</text>
</a>
</g>
</g>
<!-- Node6&#45;&gt;Node11 -->
<g id="edge10_Node000006_Node000011" class="edge">
<title>Node6&#45;&gt;Node11</title>
<g id="a_edge10_Node000006_Node000011"><a xlink:title=" ">
<path fill="none" stroke="#63b8ff" d="M364.35,-236.54C283.76,-231.11 127.53,-217.94 77.52,-195 37.46,-176.63 21.54,-169.22 3.52,-129 0.07,-121.29 -1.79,-116.56 3.52,-110 22.9,-86.08 104.74,-74.5 160.34,-69.3"/>
<polygon fill="#63b8ff" stroke="#63b8ff" points="160.74,-72.77 170.39,-68.4 160.12,-65.8 160.74,-72.77"/>
</a>
</g>
</g>
<!-- Node13 -->
<g id="Node000013" class="node">
<title>Node13</title>
<g id="a_Node000013"><a xlink:href="_entity_hierarchy_8hpp.html" target="_top" xlink:title=" ">
<polygon fill="white" stroke="#666666" points="254.52,-189.5 120.52,-189.5 120.52,-170.5 254.52,-170.5 254.52,-189.5"/>
<text text-anchor="middle" x="187.52" y="-177.5" font-family="Helvetica,sans-Serif" font-size="10.00">ECS/EntityHierarchy.hpp</text>
</a>
</g>
</g>
<!-- Node6&#45;&gt;Node13 -->
<g id="edge12_Node000006_Node000013" class="edge">
<title>Node6&#45;&gt;Node13</title>
<g id="a_edge12_Node000006_Node000013"><a xlink:title=" ">
<path fill="none" stroke="#63b8ff" d="M380.66,-230.99C340.91,-220.7 273.9,-203.36 230.19,-192.04"/>
<polygon fill="#63b8ff" stroke="#63b8ff" points="230.98,-188.63 220.42,-189.52 229.23,-195.41 230.98,-188.63"/>
</a>
</g>
</g>
<!-- Node16 -->
<g id="Node000016" class="node">
<title>Node16</title>
<g id="a_Node000016"><a xlink:href="_entity_provider_8hpp.html" target="_top" xlink:title="Manages a pool of unused entity identifiers and provides mechanisms for requesting and removing them.">
<polygon fill="white" stroke="#666666" points="477.52,-129 349.52,-129 349.52,-110 477.52,-110 477.52,-129"/>
<text text-anchor="middle" x="413.52" y="-117" font-family="Helvetica,sans-Serif" font-size="10.00">ECS/EntityProvider.hpp</text>
</a>
</g>
</g>
<!-- Node6&#45;&gt;Node16 -->
<g id="edge17_Node000006_Node000016" class="edge">
<title>Node6&#45;&gt;Node16</title>
<g id="a_edge17_Node000006_Node000016"><a xlink:title=" ">
<path fill="none" stroke="#63b8ff" d="M413.52,-230.94C413.52,-211.91 413.52,-165.69 413.52,-139.47"/>
<polygon fill="#63b8ff" stroke="#63b8ff" points="417.02,-139.3 413.52,-129.3 410.02,-139.3 417.02,-139.3"/>
</a>
</g>
</g>
<!-- Node17 -->
<g id="Node000017" class="node">
<title>Node17</title>
<g id="a_Node000017"><a xlink:href="_sparse_set_8hpp.html" target="_top" xlink:title=" ">
<polygon fill="white" stroke="#666666" points="385.52,-189.5 277.52,-189.5 277.52,-170.5 385.52,-170.5 385.52,-189.5"/>
<text text-anchor="middle" x="331.52" y="-177.5" font-family="Helvetica,sans-Serif" font-size="10.00">ECS/SparseSet.hpp</text>
</a>
</g>
</g>
<!-- Node6&#45;&gt;Node17 -->
<g id="edge21_Node000006_Node000017" class="edge">
<title>Node6&#45;&gt;Node17</title>
<g id="a_edge21_Node000006_Node000017"><a xlink:title=" ">
<path fill="none" stroke="#63b8ff" d="M401.42,-230.87C388.46,-221.62 367.66,-206.78 352.12,-195.69"/>
<polygon fill="#63b8ff" stroke="#63b8ff" points="353.84,-192.63 343.67,-189.67 349.78,-198.32 353.84,-192.63"/>
</a>
</g>
</g>
<!-- Node18 -->
<g id="Node000018" class="node">
<title>Node18</title>
<g id="a_Node000018"><a xlink:href="_singleton_component_8hpp.html" target="_top" xlink:title=" ">
<polygon fill="white" stroke="#666666" points="738.02,-189.5 577.02,-189.5 577.02,-170.5 738.02,-170.5 738.02,-189.5"/>
<text text-anchor="middle" x="657.52" y="-177.5" font-family="Helvetica,sans-Serif" font-size="10.00">ECS/SingletonComponent.hpp</text>
</a>
</g>
</g>
<!-- Node6&#45;&gt;Node18 -->
<g id="edge23_Node000006_Node000018" class="edge">
<title>Node6&#45;&gt;Node18</title>
<g id="a_edge23_Node000006_Node000018"><a xlink:title=" ">
<path fill="none" stroke="#63b8ff" d="M449,-230.99C492.1,-220.66 564.88,-203.21 612.05,-191.9"/>
<polygon fill="#63b8ff" stroke="#63b8ff" points="613.09,-195.25 622,-189.52 611.46,-188.44 613.09,-195.25"/>
</a>
</g>
</g>
<!-- Node9 -->
<g id="Node000009" class="node">
<title>Node9</title>
<g id="a_Node000009"><a xlink:title=" ">
<polygon fill="#e0e0e0" stroke="#999999" points="543.52,-129 495.52,-129 495.52,-110 543.52,-110 543.52,-129"/>
<text text-anchor="middle" x="519.52" y="-117" font-family="Helvetica,sans-Serif" font-size="10.00">mutex</text>
</a>
</g>
</g>
<!-- Node8&#45;&gt;Node9 -->
<g id="edge8_Node000008_Node000009" class="edge">
<title>Node8&#45;&gt;Node9</title>
<g id="a_edge8_Node000008_Node000009"><a xlink:title=" ">
<path fill="none" stroke="#63b8ff" d="M503.32,-170.37C506.02,-162.07 510.18,-149.28 513.6,-138.72"/>
<polygon fill="#63b8ff" stroke="#63b8ff" points="516.95,-139.76 516.71,-129.17 510.29,-137.6 516.95,-139.76"/>
</a>
</g>
</g>
<!-- Node10 -->
<g id="Node000010" class="node">
<title>Node10</title>
<g id="a_Node000010"><a xlink:title=" ">
<polygon fill="#e0e0e0" stroke="#999999" points="483.02,-74 436.02,-74 436.02,-55 483.02,-55 483.02,-74"/>
<text text-anchor="middle" x="459.52" y="-62" font-family="Helvetica,sans-Serif" font-size="10.00">queue</text>
</a>
</g>
</g>
<!-- Node8&#45;&gt;Node10 -->
<g id="edge9_Node000008_Node000010" class="edge">
<title>Node8&#45;&gt;Node10</title>
<g id="a_edge9_Node000008_Node000010"><a xlink:title=" ">
<path fill="none" stroke="#63b8ff" d="M515.35,-170.41C535.36,-157.68 566.91,-132.84 552.52,-110 539.57,-89.44 514.19,-78.17 493.21,-72.12"/>
<polygon fill="#63b8ff" stroke="#63b8ff" points="493.9,-68.68 483.35,-69.55 492.14,-75.46 493.9,-68.68"/>
</a>
</g>
</g>
<!-- Node12 -->
<g id="Node000012" class="node">
<title>Node12</title>
<g id="a_Node000012"><a xlink:title=" ">
<polygon fill="#e0e0e0" stroke="#999999" points="275.02,-19 222.02,-19 222.02,0 275.02,0 275.02,-19"/>
<text text-anchor="middle" x="248.52" y="-7" font-family="Helvetica,sans-Serif" font-size="10.00">stdlib.h</text>
</a>
</g>
</g>
<!-- Node11&#45;&gt;Node12 -->
<g id="edge11_Node000011_Node000012" class="edge">
<title>Node11&#45;&gt;Node12</title>
<g id="a_edge11_Node000011_Node000012"><a xlink:title=" ">
<path fill="none" stroke="#63b8ff" d="M219.3,-54.75C224.14,-47.42 231.2,-36.73 237.17,-27.7"/>
<polygon fill="#63b8ff" stroke="#63b8ff" points="240.26,-29.36 242.85,-19.09 234.42,-25.5 240.26,-29.36"/>
</a>
</g>
</g>
<!-- Node13&#45;&gt;Node7 -->
<g id="edge14_Node000013_Node000007" class="edge">
<title>Node13&#45;&gt;Node7</title>
<g id="a_edge14_Node000013_Node000007"><a xlink:title=" ">
<path fill="none" stroke="#63b8ff" d="M168.33,-170.49C146.14,-160.66 109.4,-144.38 83.91,-133.08"/>
<polygon fill="#63b8ff" stroke="#63b8ff" points="85.3,-129.87 74.74,-129.02 82.46,-136.27 85.3,-129.87"/>
</a>
</g>
</g>
<!-- Node13&#45;&gt;Node11 -->
<g id="edge16_Node000013_Node000011" class="edge">
<title>Node13&#45;&gt;Node11</title>
<g id="a_edge16_Node000013_Node000011"><a xlink:title=" ">
<path fill="none" stroke="#63b8ff" d="M175.71,-170.45C159.44,-157.58 133.45,-132.33 145.52,-110 153.1,-95.98 167.23,-85.67 180.65,-78.53"/>
<polygon fill="#63b8ff" stroke="#63b8ff" points="182.29,-81.62 189.74,-74.08 179.22,-75.33 182.29,-81.62"/>
</a>
</g>
</g>
<!-- Node14 -->
<g id="Node000014" class="node">
<title>Node14</title>
<g id="a_Node000014"><a xlink:title=" ">
<polygon fill="#e0e0e0" stroke="#999999" points="220.02,-129 155.02,-129 155.02,-110 220.02,-110 220.02,-129"/>
<text text-anchor="middle" x="187.52" y="-117" font-family="Helvetica,sans-Serif" font-size="10.00">functional</text>
</a>
</g>
</g>
<!-- Node13&#45;&gt;Node14 -->
<g id="edge13_Node000013_Node000014" class="edge">
<title>Node13&#45;&gt;Node14</title>
<g id="a_edge13_Node000013_Node000014"><a xlink:title=" ">
<path fill="none" stroke="#63b8ff" d="M187.52,-170.37C187.52,-162.25 187.52,-149.81 187.52,-139.39"/>
<polygon fill="#63b8ff" stroke="#63b8ff" points="191.02,-139.17 187.52,-129.17 184.02,-139.17 191.02,-139.17"/>
</a>
</g>
</g>
<!-- Node15 -->
<g id="Node000015" class="node">
<title>Node15</title>
<g id="a_Node000015"><a xlink:title=" ">
<polygon fill="#e0e0e0" stroke="#999999" points="331.02,-129 238.02,-129 238.02,-110 331.02,-110 331.02,-129"/>
<text text-anchor="middle" x="284.52" y="-117" font-family="Helvetica,sans-Serif" font-size="10.00">unordered_map</text>
</a>
</g>
</g>
<!-- Node13&#45;&gt;Node15 -->
<g id="edge15_Node000013_Node000015" class="edge">
<title>Node13&#45;&gt;Node15</title>
<g id="a_edge15_Node000013_Node000015"><a xlink:title=" ">
<path fill="none" stroke="#63b8ff" d="M201.83,-170.37C217.52,-160.91 242.92,-145.59 261.44,-134.42"/>
<polygon fill="#63b8ff" stroke="#63b8ff" points="263.39,-137.33 270.15,-129.17 259.78,-131.33 263.39,-137.33"/>
</a>
</g>
</g>
<!-- Node16&#45;&gt;Node10 -->
<g id="edge19_Node000016_Node000010" class="edge">
<title>Node16&#45;&gt;Node10</title>
<g id="a_edge19_Node000016_Node000010"><a xlink:title=" ">
<path fill="none" stroke="#63b8ff" d="M421.12,-109.75C427.68,-102.18 437.34,-91.05 445.34,-81.84"/>
<polygon fill="#63b8ff" stroke="#63b8ff" points="448.16,-83.94 452.07,-74.09 442.87,-79.35 448.16,-83.94"/>
</a>
</g>
</g>
<!-- Node16&#45;&gt;Node11 -->
<g id="edge20_Node000016_Node000011" class="edge">
<title>Node16&#45;&gt;Node11</title>
<g id="a_edge20_Node000016_Node000011"><a xlink:title=" ">
<path fill="none" stroke="#63b8ff" d="M381.39,-109.98C347.37,-100.97 293.53,-86.7 256.02,-76.76"/>
<polygon fill="#63b8ff" stroke="#63b8ff" points="256.47,-73.26 245.91,-74.08 254.68,-80.03 256.47,-73.26"/>
</a>
</g>
</g>
<!-- Node16&#45;&gt;Node12 -->
<g id="edge18_Node000016_Node000012" class="edge">
<title>Node16&#45;&gt;Node12</title>
<g id="a_edge18_Node000016_Node000012"><a xlink:title=" ">
<path fill="none" stroke="#63b8ff" d="M400.3,-109.84C371.94,-91.28 305.03,-47.49 270.3,-24.75"/>
<polygon fill="#63b8ff" stroke="#63b8ff" points="272.09,-21.74 261.81,-19.2 268.26,-27.6 272.09,-21.74"/>
</a>
</g>
</g>
<!-- Node17&#45;&gt;Node16 -->
<g id="edge22_Node000017_Node000016" class="edge">
<title>Node17&#45;&gt;Node16</title>
<g id="a_edge22_Node000017_Node000016"><a xlink:title=" ">
<path fill="none" stroke="#63b8ff" d="M343.62,-170.37C356.58,-161.12 377.38,-146.28 392.93,-135.19"/>
<polygon fill="#63b8ff" stroke="#63b8ff" points="395.26,-137.82 401.37,-129.17 391.2,-132.13 395.26,-137.82"/>
</a>
</g>
</g>
<!-- Node19&#45;&gt;Node3 -->
<g id="edge26_Node000019_Node000003" class="edge">
<title>Node19&#45;&gt;Node3</title>
<g id="a_edge26_Node000019_Node000003"><a xlink:title=" ">
<path fill="none" stroke="#63b8ff" d="M910.88,-285.66C925.99,-271.88 957.25,-245.36 988.52,-231 1041.68,-206.59 1107.96,-193.45 1152.34,-186.86"/>
<polygon fill="#63b8ff" stroke="#63b8ff" points="1152.9,-190.32 1162.3,-185.44 1151.91,-183.39 1152.9,-190.32"/>
</a>
</g>
</g>
<!-- Node20 -->
<g id="Node000020" class="node">
<title>Node20</title>
<g id="a_Node000020"><a xlink:title=" ">
<polygon fill="#e0e0e0" stroke="#999999" points="1102.02,-250 1031.02,-250 1031.02,-231 1102.02,-231 1102.02,-250"/>
<text text-anchor="middle" x="1066.52" y="-238" font-family="Helvetica,sans-Serif" font-size="10.00">glad/glad.h</text>
</a>
</g>
</g>
<!-- Node19&#45;&gt;Node20 -->
<g id="edge25_Node000019_Node000020" class="edge">
<title>Node19&#45;&gt;Node20</title>
<g id="a_edge25_Node000019_Node000020"><a xlink:title=" ">
<path fill="none" stroke="#63b8ff" d="M928.03,-285.98C955.73,-277.09 999.38,-263.07 1030.26,-253.15"/>
<polygon fill="#63b8ff" stroke="#63b8ff" points="1031.35,-256.47 1039.8,-250.08 1029.21,-249.81 1031.35,-256.47"/>
</a>
</g>
</g>
<!-- Node21 -->
<g id="Node000021" class="node">
<title>Node21</title>
<g id="a_Node000021"><a xlink:href="_image_8hpp.html" target="_top" xlink:title=" ">
<polygon fill="white" stroke="#666666" points="936.02,-250 795.02,-250 795.02,-231 936.02,-231 936.02,-250"/>
<text text-anchor="middle" x="865.52" y="-238" font-family="Helvetica,sans-Serif" font-size="10.00">AssetManager/Image.hpp</text>
</a>
</g>
</g>
<!-- Node19&#45;&gt;Node21 -->
<g id="edge27_Node000019_Node000021" class="edge">
<title>Node19&#45;&gt;Node21</title>
<g id="a_edge27_Node000019_Node000021"><a xlink:title=" ">
<path fill="none" stroke="#63b8ff" d="M895.58,-285.75C890.54,-278.34 883.18,-267.5 877.01,-258.41"/>
<polygon fill="#63b8ff" stroke="#63b8ff" points="879.87,-256.39 871.36,-250.09 874.08,-260.33 879.87,-256.39"/>
</a>
</g>
</g>
<!-- Node21&#45;&gt;Node5 -->
<g id="edge28_Node000021_Node000005" class="edge">
<title>Node21&#45;&gt;Node5</title>
<g id="a_edge28_Node000021_Node000005"><a xlink:title=" ">
<path fill="none" stroke="#63b8ff" d="M866.41,-230.76C868.17,-216.34 872.95,-186.97 884.52,-165 890.12,-154.37 898.75,-144.16 906.47,-136.21"/>
<polygon fill="#63b8ff" stroke="#63b8ff" points="909.05,-138.58 913.74,-129.07 904.15,-133.58 909.05,-138.58"/>
</a>
</g>
</g>
<!-- Node22 -->
<g id="Node000022" class="node">
<title>Node22</title>
<g id="a_Node000022"><a xlink:href="_path_constructible_asset_8hpp.html" target="_top" xlink:title=" ">
<polygon fill="white" stroke="#666666" points="1069.02,-195 894.02,-195 894.02,-165 1069.02,-165 1069.02,-195"/>
<text text-anchor="start" x="902.02" y="-183" font-family="Helvetica,sans-Serif" font-size="10.00">AssetManager/PathConstructible</text>
<text text-anchor="middle" x="981.52" y="-172" font-family="Helvetica,sans-Serif" font-size="10.00">Asset.hpp</text>
</a>
</g>
</g>
<!-- Node21&#45;&gt;Node22 -->
<g id="edge29_Node000021_Node000022" class="edge">
<title>Node21&#45;&gt;Node22</title>
<g id="a_edge29_Node000021_Node000022"><a xlink:title=" ">
<path fill="none" stroke="#63b8ff" d="M882.64,-230.87C898.81,-222.71 923.63,-210.2 944.35,-199.75"/>
<polygon fill="#63b8ff" stroke="#63b8ff" points="946.18,-202.74 953.53,-195.11 943.03,-196.49 946.18,-202.74"/>
</a>
</g>
</g>
<!-- Node22&#45;&gt;Node5 -->
<g id="edge30_Node000022_Node000005" class="edge">
<title>Node22&#45;&gt;Node5</title>
<g id="a_edge30_Node000022_Node000005"><a xlink:title=" ">
<path fill="none" stroke="#63b8ff" d="M967.48,-164.84C958.98,-156.26 948.11,-145.3 939.3,-136.42"/>
<polygon fill="#63b8ff" stroke="#63b8ff" points="941.74,-133.9 932.21,-129.27 936.77,-138.83 941.74,-133.9"/>
</a>
</g>
</g>
<!-- Node26&#45;&gt;Node2 -->
<g id="edge50_Node000026_Node000002" class="edge">
<title>Node26&#45;&gt;Node2</title>
<g id="a_edge50_Node000026_Node000002"><a xlink:title=" ">
<path fill="none" stroke="#63b8ff" d="M1285.38,-395.98C1225.89,-386.63 1130.41,-371.61 1067.08,-361.65"/>
<polygon fill="#63b8ff" stroke="#63b8ff" points="1067.23,-358.13 1056.81,-360.04 1066.15,-365.05 1067.23,-358.13"/>
</a>
</g>
</g>
<!-- Node26&#45;&gt;Node3 -->
<g id="edge38_Node000026_Node000003" class="edge">
<title>Node26&#45;&gt;Node3</title>
<g id="a_edge38_Node000026_Node000003"><a xlink:title=" ">
<path fill="none" stroke="#63b8ff" d="M1343.52,-395.97C1351.18,-379.06 1367.72,-339.94 1373.52,-305 1379.39,-269.65 1369.08,-253.9 1341.52,-231 1333.3,-224.17 1277.07,-205.23 1238.43,-192.73"/>
<polygon fill="#63b8ff" stroke="#63b8ff" points="1239.12,-189.27 1228.53,-189.54 1236.98,-195.94 1239.12,-189.27"/>
</a>
</g>
</g>
<!-- Node27 -->
<g id="Node000027" class="node">
<title>Node27</title>
<g id="a_Node000027"><a xlink:title=" ">
<polygon fill="#e0e0e0" stroke="#999999" points="1364.52,-305 1320.52,-305 1320.52,-286 1364.52,-286 1364.52,-305"/>
<text text-anchor="middle" x="1342.52" y="-293" font-family="Helvetica,sans-Serif" font-size="10.00">string</text>
</a>
</g>
</g>
<!-- Node26&#45;&gt;Node27 -->
<g id="edge36_Node000026_Node000027" class="edge">
<title>Node26&#45;&gt;Node27</title>
<g id="a_edge36_Node000026_Node000027"><a xlink:title=" ">
<path fill="none" stroke="#63b8ff" d="M1339.77,-395.66C1340.25,-378.17 1341.35,-338.8 1342,-315.27"/>
<polygon fill="#63b8ff" stroke="#63b8ff" points="1345.5,-315.25 1342.28,-305.16 1338.5,-315.06 1345.5,-315.25"/>
</a>
</g>
</g>
<!-- Node28 -->
<g id="Node000028" class="node">
<title>Node28</title>
<g id="a_Node000028"><a xlink:title=" ">
<polygon fill="#e0e0e0" stroke="#999999" points="1665.52,-360 1605.52,-360 1605.52,-341 1665.52,-341 1665.52,-360"/>
<text text-anchor="middle" x="1635.52" y="-348" font-family="Helvetica,sans-Serif" font-size="10.00">iostream</text>
</a>
</g>
</g>
<!-- Node26&#45;&gt;Node28 -->
<g id="edge37_Node000026_Node000028" class="edge">
<title>Node26&#45;&gt;Node28</title>
<g id="a_edge37_Node000026_Node000028"><a xlink:title=" ">
<path fill="none" stroke="#63b8ff" d="M1392.8,-395.96C1442.63,-387.82 1519.36,-374.89 1595.12,-360.21"/>
<polygon fill="#63b8ff" stroke="#63b8ff" points="1596.17,-363.57 1605.31,-358.22 1594.83,-356.7 1596.17,-363.57"/>
</a>
</g>
</g>
<!-- Node29 -->
<g id="Node000029" class="node">
<title>Node29</title>
<g id="a_Node000029"><a xlink:title=" ">
<polygon fill="#e0e0e0" stroke="#999999" points="1847.02,-360 1684.02,-360 1684.02,-341 1847.02,-341 1847.02,-360"/>
<text text-anchor="middle" x="1765.52" y="-348" font-family="Helvetica,sans-Serif" font-size="10.00">glm/gtc/matrix_transform.hpp</text>
</a>
</g>
</g>
<!-- Node26&#45;&gt;Node29 -->
<g id="edge39_Node000026_Node000029" class="edge">
<title>Node26&#45;&gt;Node29</title>
<g id="a_edge39_Node000026_Node000029"><a xlink:title=" ">
<path fill="none" stroke="#63b8ff" d="M1407.97,-395.98C1484.09,-386.51 1606.85,-371.24 1686.87,-361.29"/>
<polygon fill="#63b8ff" stroke="#63b8ff" points="1687.4,-364.75 1696.89,-360.04 1686.54,-357.8 1687.4,-364.75"/>
</a>
</g>
</g>
<!-- Node30 -->
<g id="Node000030" class="node">
<title>Node30</title>
<g id="a_Node000030"><a xlink:href="_mesh_8hpp.html" target="_top" xlink:title=" ">
<polygon fill="white" stroke="#666666" points="1251.02,-360 1114.02,-360 1114.02,-341 1251.02,-341 1251.02,-360"/>
<text text-anchor="middle" x="1182.52" y="-348" font-family="Helvetica,sans-Serif" font-size="10.00">AssetManager/Mesh.hpp</text>
</a>
</g>
</g>
<!-- Node26&#45;&gt;Node30 -->
<g id="edge40_Node000026_Node000030" class="edge">
<title>Node26&#45;&gt;Node30</title>
<g id="a_edge40_Node000026_Node000030"><a xlink:title=" ">
<path fill="none" stroke="#63b8ff" d="M1314.3,-395.98C1288.17,-387.16 1247.12,-373.31 1217.79,-363.41"/>
<polygon fill="#63b8ff" stroke="#63b8ff" points="1218.54,-359.96 1207.94,-360.08 1216.3,-366.6 1218.54,-359.96"/>
</a>
</g>
</g>
<!-- Node34 -->
<g id="Node000034" class="node">
<title>Node34</title>
<g id="a_Node000034"><a xlink:href="_base_component_8hpp.html" target="_top" xlink:title=" ">
<polygon fill="white" stroke="#666666" points="1587.52,-360 1405.52,-360 1405.52,-341 1587.52,-341 1587.52,-360"/>
<text text-anchor="middle" x="1496.52" y="-348" font-family="Helvetica,sans-Serif" font-size="10.00">Components/BaseComponent.hpp</text>
</a>
</g>
</g>
<!-- Node26&#45;&gt;Node34 -->
<g id="edge51_Node000026_Node000034" class="edge">
<title>Node26&#45;&gt;Node34</title>
<g id="a_edge51_Node000026_Node000034"><a xlink:title=" ">
<path fill="none" stroke="#63b8ff" d="M1364.75,-395.98C1390.88,-387.16 1431.92,-373.31 1461.25,-363.41"/>
<polygon fill="#63b8ff" stroke="#63b8ff" points="1462.74,-366.6 1471.1,-360.08 1460.5,-359.96 1462.74,-366.6"/>
</a>
</g>
</g>
<!-- Node30&#45;&gt;Node3 -->
<g id="edge41_Node000030_Node000003" class="edge">
<title>Node30&#45;&gt;Node3</title>
<g id="a_edge41_Node000030_Node000003"><a xlink:title=" ">
<path fill="none" stroke="#63b8ff" d="M1183.49,-340.91C1186.42,-314.89 1195.27,-236.47 1199.38,-200.01"/>
<polygon fill="#63b8ff" stroke="#63b8ff" points="1202.89,-200.1 1200.53,-189.77 1195.93,-199.32 1202.89,-200.1"/>
</a>
</g>
</g>
<!-- Node30&#45;&gt;Node20 -->
<g id="edge42_Node000030_Node000020" class="edge">
<title>Node30&#45;&gt;Node20</title>
<g id="a_edge42_Node000030_Node000020"><a xlink:title=" ">
<path fill="none" stroke="#63b8ff" d="M1121.13,-340.96C1099.59,-334.69 1077.54,-323.82 1064.52,-305 1055.51,-291.97 1057.24,-273.58 1060.49,-259.94"/>
<polygon fill="#63b8ff" stroke="#63b8ff" points="1063.89,-260.79 1063.25,-250.21 1057.16,-258.88 1063.89,-260.79"/>
</a>
</g>
</g>
<!-- Node30&#45;&gt;Node22 -->
<g id="edge45_Node000030_Node000022" class="edge">
<title>Node30&#45;&gt;Node22</title>
<g id="a_edge45_Node000030_Node000022"><a xlink:title=" ">
<path fill="none" stroke="#63b8ff" d="M1148.3,-340.93C1129.81,-334.37 1108.56,-323.24 1097.52,-305 1080.23,-276.43 1129.39,-258.55 1110.52,-231 1100.65,-216.59 1085.98,-206.33 1070.03,-199.03"/>
<polygon fill="#63b8ff" stroke="#63b8ff" points="1071.09,-195.68 1060.51,-195.06 1068.4,-202.14 1071.09,-195.68"/>
</a>
</g>
</g>
<!-- Node30&#45;&gt;Node27 -->
<g id="edge44_Node000030_Node000027" class="edge">
<title>Node30&#45;&gt;Node27</title>
<g id="a_edge44_Node000030_Node000027"><a xlink:title=" ">
<path fill="none" stroke="#63b8ff" d="M1208.23,-340.98C1236.16,-331.73 1280.83,-316.94 1310.89,-306.98"/>
<polygon fill="#63b8ff" stroke="#63b8ff" points="1312.09,-310.27 1320.48,-303.8 1309.89,-303.62 1312.09,-310.27"/>
</a>
</g>
</g>
<!-- Node31 -->
<g id="Node000031" class="node">
<title>Node31</title>
<g id="a_Node000031"><a xlink:title=" ">
<polygon fill="#e0e0e0" stroke="#999999" points="1154.02,-305 1107.02,-305 1107.02,-286 1154.02,-286 1154.02,-305"/>
<text text-anchor="middle" x="1130.52" y="-293" font-family="Helvetica,sans-Serif" font-size="10.00">vector</text>
</a>
</g>
</g>
<!-- Node30&#45;&gt;Node31 -->
<g id="edge43_Node000030_Node000031" class="edge">
<title>Node30&#45;&gt;Node31</title>
<g id="a_edge43_Node000030_Node000031"><a xlink:title=" ">
<path fill="none" stroke="#63b8ff" d="M1173.93,-340.75C1166.36,-333.03 1155.14,-321.6 1146.01,-312.28"/>
<polygon fill="#63b8ff" stroke="#63b8ff" points="1148.45,-309.78 1138.95,-305.09 1143.45,-314.68 1148.45,-309.78"/>
</a>
</g>
</g>
<!-- Node32 -->
<g id="Node000032" class="node">
<title>Node32</title>
<g id="a_Node000032"><a xlink:href="_a_a_b_b_8hpp.html" target="_top" xlink:title=" ">
<polygon fill="white" stroke="#666666" points="1302.52,-305 1210.52,-305 1210.52,-286 1302.52,-286 1302.52,-305"/>
<text text-anchor="middle" x="1256.52" y="-293" font-family="Helvetica,sans-Serif" font-size="10.00">Math/AABB.hpp</text>
</a>
</g>
</g>
<!-- Node30&#45;&gt;Node32 -->
<g id="edge46_Node000030_Node000032" class="edge">
<title>Node30&#45;&gt;Node32</title>
<g id="a_edge46_Node000030_Node000032"><a xlink:title=" ">
<path fill="none" stroke="#63b8ff" d="M1194.41,-340.98C1205.67,-332.92 1222.81,-320.65 1236.23,-311.03"/>
<polygon fill="#63b8ff" stroke="#63b8ff" points="1238.32,-313.84 1244.42,-305.17 1234.25,-308.15 1238.32,-313.84"/>
</a>
</g>
</g>
<!-- Node32&#45;&gt;Node3 -->
<g id="edge47_Node000032_Node000003" class="edge">
<title>Node32&#45;&gt;Node3</title>
<g id="a_edge47_Node000032_Node000003"><a xlink:title=" ">
<path fill="none" stroke="#63b8ff" d="M1252.39,-285.97C1243.43,-267.48 1222.07,-223.4 1210.07,-198.64"/>
<polygon fill="#63b8ff" stroke="#63b8ff" points="1213.21,-197.1 1205.7,-189.63 1206.91,-200.16 1213.21,-197.1"/>
</a>
</g>
</g>
<!-- Node33 -->
<g id="Node000033" class="node">
<title>Node33</title>
<g id="a_Node000033"><a xlink:href="_ray_8hpp.html" target="_top" xlink:title=" ">
<polygon fill="white" stroke="#666666" points="1332.02,-250 1249.02,-250 1249.02,-231 1332.02,-231 1332.02,-250"/>
<text text-anchor="middle" x="1290.52" y="-238" font-family="Helvetica,sans-Serif" font-size="10.00">Math/Ray.hpp</text>
</a>
</g>
</g>
<!-- Node32&#45;&gt;Node33 -->
<g id="edge48_Node000032_Node000033" class="edge">
<title>Node32&#45;&gt;Node33</title>
<g id="a_edge48_Node000032_Node000033"><a xlink:title=" ">
<path fill="none" stroke="#63b8ff" d="M1262.14,-285.75C1266.84,-278.42 1273.69,-267.73 1279.49,-258.7"/>
<polygon fill="#63b8ff" stroke="#63b8ff" points="1282.56,-260.4 1285.01,-250.09 1276.67,-256.62 1282.56,-260.4"/>
</a>
</g>
</g>
<!-- Node33&#45;&gt;Node3 -->
<g id="edge49_Node000033_Node000003" class="edge">
<title>Node33&#45;&gt;Node3</title>
<g id="a_edge49_Node000033_Node000003"><a xlink:title=" ">
<path fill="none" stroke="#63b8ff" d="M1277.39,-230.87C1263.19,-221.54 1240.33,-206.51 1223.4,-195.38"/>
<polygon fill="#63b8ff" stroke="#63b8ff" points="1224.99,-192.24 1214.71,-189.67 1221.14,-198.08 1224.99,-192.24"/>
</a>
</g>
</g>
<!-- Node35 -->
<g id="Node000035" class="node">
<title>Node35</title>
<g id="a_Node000035"><a xlink:href="_types_8hpp.html" target="_top" xlink:title=" ">
<polygon fill="white" stroke="#666666" points="1545.02,-250 1432.02,-250 1432.02,-231 1545.02,-231 1545.02,-250"/>
<text text-anchor="middle" x="1488.52" y="-238" font-family="Helvetica,sans-Serif" font-size="10.00">Common/Types.hpp</text>
</a>
</g>
</g>
<!-- Node34&#45;&gt;Node35 -->
<g id="edge52_Node000034_Node000035" class="edge">
<title>Node34&#45;&gt;Node35</title>
<g id="a_edge52_Node000034_Node000035"><a xlink:title=" ">
<path fill="none" stroke="#63b8ff" d="M1495.87,-340.66C1494.57,-323.17 1491.66,-283.8 1489.91,-260.27"/>
<polygon fill="#63b8ff" stroke="#63b8ff" points="1493.39,-259.87 1489.16,-250.16 1486.41,-260.39 1493.39,-259.87"/>
</a>
</g>
</g>
<!-- Node35&#45;&gt;Node5 -->
<g id="edge53_Node000035_Node000005" class="edge">
<title>Node35&#45;&gt;Node5</title>
<g id="a_edge53_Node000035_Node000005"><a xlink:title=" ">
<path fill="none" stroke="#63b8ff" d="M1465.46,-230.9C1423.22,-215.46 1330.34,-182.98 1249.52,-165 1149.96,-142.85 1030.69,-129.95 967.64,-124.17"/>
<polygon fill="#63b8ff" stroke="#63b8ff" points="967.91,-120.68 957.64,-123.27 967.29,-127.65 967.91,-120.68"/>
</a>
</g>
</g>
</g>
</svg>
