<?xml version="1.0" encoding="UTF-8" standalone="no"?>
<!DOCTYPE svg PUBLIC "-//W3C//DTD SVG 1.1//EN"
 "http://www.w3.org/Graphics/SVG/1.1/DTD/svg11.dtd">
<!-- Generated by graphviz version 2.43.0 (0)
 -->
<!-- Title: src/Components/BillboardComponent.hpp Pages: 1 -->
<svg width="1571pt" height="544pt"
 viewBox="0.00 0.00 1571.30 544.00" xmlns="http://www.w3.org/2000/svg" xmlns:xlink="http://www.w3.org/1999/xlink">
<g id="graph0" class="graph" transform="scale(1 1) rotate(0) translate(4 540)">
<title>src/Components/BillboardComponent.hpp</title>
<!-- Node1 -->
<g id="Node000001" class="node">
<title>Node1</title>
<g id="a_Node000001"><a xlink:title=" ">
<polygon fill="#999999" stroke="#666666" points="414.8,-536 272.8,-536 272.8,-506 414.8,-506 414.8,-536"/>
<text text-anchor="start" x="280.8" y="-524" font-family="Helvetica,sans-Serif" font-size="10.00">src/Components/Billboard</text>
<text text-anchor="middle" x="343.8" y="-513" font-family="Helvetica,sans-Serif" font-size="10.00">Component.hpp</text>
</a>
</g>
</g>
<!-- Node2 -->
<g id="Node000002" class="node">
<title>Node2</title>
<g id="a_Node000002"><a xlink:title=" ">
<polygon fill="#e0e0e0" stroke="#999999" points="178.8,-129 134.8,-129 134.8,-110 178.8,-110 178.8,-129"/>
<text text-anchor="middle" x="156.8" y="-117" font-family="Helvetica,sans-Serif" font-size="10.00">string</text>
</a>
</g>
</g>
<!-- Node1&#45;&gt;Node2 -->
<g id="edge1_Node000001_Node000002" class="edge">
<title>Node1&#45;&gt;Node2</title>
<g id="a_edge1_Node000001_Node000002"><a xlink:title=" ">
<path fill="none" stroke="#63b8ff" d="M272.5,-517.69C188.73,-513.53 56.5,-501.96 19.8,-470 -2.41,-450.65 0.8,-435.96 0.8,-406.5 0.8,-406.5 0.8,-406.5 0.8,-228.5 0.8,-168.63 79.44,-139.33 125.05,-127.38"/>
<polygon fill="#63b8ff" stroke="#63b8ff" points="125.92,-130.76 134.78,-124.95 124.23,-123.97 125.92,-130.76"/>
</a>
</g>
</g>
<!-- Node3 -->
<g id="Node000003" class="node">
<title>Node3</title>
<g id="a_Node000003"><a xlink:title=" ">
<polygon fill="#e0e0e0" stroke="#999999" points="88.8,-470 28.8,-470 28.8,-451 88.8,-451 88.8,-470"/>
<text text-anchor="middle" x="58.8" y="-458" font-family="Helvetica,sans-Serif" font-size="10.00">iostream</text>
</a>
</g>
</g>
<!-- Node1&#45;&gt;Node3 -->
<g id="edge2_Node000001_Node000003" class="edge">
<title>Node1&#45;&gt;Node3</title>
<g id="a_edge2_Node000001_Node000003"><a xlink:title=" ">
<path fill="none" stroke="#63b8ff" d="M273.5,-505.98C226.67,-496.58 163.5,-483.78 98.97,-470.23"/>
<polygon fill="#63b8ff" stroke="#63b8ff" points="99.53,-466.77 89.03,-468.13 98.09,-473.62 99.53,-466.77"/>
</a>
</g>
</g>
<!-- Node4 -->
<g id="Node000004" class="node">
<title>Node4</title>
<g id="a_Node000004"><a xlink:title=" ">
<polygon fill="#e0e0e0" stroke="#999999" points="392.8,-299.5 314.8,-299.5 314.8,-280.5 392.8,-280.5 392.8,-299.5"/>
<text text-anchor="middle" x="353.8" y="-287.5" font-family="Helvetica,sans-Serif" font-size="10.00">glm/glm.hpp</text>
</a>
</g>
</g>
<!-- Node1&#45;&gt;Node4 -->
<g id="edge3_Node000001_Node000004" class="edge">
<title>Node1&#45;&gt;Node4</title>
<g id="a_edge3_Node000001_Node000004"><a xlink:title=" ">
<path fill="none" stroke="#63b8ff" d="M389.45,-505.87C406.47,-498.14 424.01,-486.64 433.8,-470 451.15,-440.52 391.96,-347.01 365.71,-308.17"/>
<polygon fill="#63b8ff" stroke="#63b8ff" points="368.35,-305.83 359.81,-299.55 362.57,-309.78 368.35,-305.83"/>
</a>
</g>
</g>
<!-- Node5 -->
<g id="Node000005" class="node">
<title>Node5</title>
<g id="a_Node000005"><a xlink:title=" ">
<polygon fill="#e0e0e0" stroke="#999999" points="425.3,-470 262.3,-470 262.3,-451 425.3,-451 425.3,-470"/>
<text text-anchor="middle" x="343.8" y="-458" font-family="Helvetica,sans-Serif" font-size="10.00">glm/gtc/matrix_transform.hpp</text>
</a>
</g>
</g>
<!-- Node1&#45;&gt;Node5 -->
<g id="edge4_Node000001_Node000005" class="edge">
<title>Node1&#45;&gt;Node5</title>
<g id="a_edge4_Node000001_Node000005"><a xlink:title=" ">
<path fill="none" stroke="#63b8ff" d="M343.8,-505.84C343.8,-498.21 343.8,-488.7 343.8,-480.45"/>
<polygon fill="#63b8ff" stroke="#63b8ff" points="347.3,-480.27 343.8,-470.27 340.3,-480.27 347.3,-480.27"/>
</a>
</g>
</g>
<!-- Node6 -->
<g id="Node000006" class="node">
<title>Node6</title>
<g id="a_Node000006"><a xlink:href="_mesh_8hpp.html" target="_top" xlink:title=" ">
<polygon fill="white" stroke="#666666" points="244.3,-470 107.3,-470 107.3,-451 244.3,-451 244.3,-470"/>
<text text-anchor="middle" x="175.8" y="-458" font-family="Helvetica,sans-Serif" font-size="10.00">AssetManager/Mesh.hpp</text>
</a>
</g>
</g>
<!-- Node1&#45;&gt;Node6 -->
<g id="edge5_Node000001_Node000006" class="edge">
<title>Node1&#45;&gt;Node6</title>
<g id="a_edge5_Node000001_Node000006"><a xlink:title=" ">
<path fill="none" stroke="#63b8ff" d="M303.56,-505.99C275.03,-496.05 237.16,-482.86 210.07,-473.43"/>
<polygon fill="#63b8ff" stroke="#63b8ff" points="211.21,-470.12 200.61,-470.14 208.91,-476.73 211.21,-470.12"/>
</a>
</g>
</g>
<!-- Node20 -->
<g id="Node000020" class="node">
<title>Node20</title>
<g id="a_Node000020"><a xlink:href="_material_8hpp.html" target="_top" xlink:title=" ">
<polygon fill="white" stroke="#666666" points="833.3,-470 682.3,-470 682.3,-451 833.3,-451 833.3,-470"/>
<text text-anchor="middle" x="757.8" y="-458" font-family="Helvetica,sans-Serif" font-size="10.00">AssetManager/Material.hpp</text>
</a>
</g>
</g>
<!-- Node1&#45;&gt;Node20 -->
<g id="edge24_Node000001_Node000020" class="edge">
<title>Node1&#45;&gt;Node20</title>
<g id="a_edge24_Node000001_Node000020"><a xlink:title=" ">
<path fill="none" stroke="#63b8ff" d="M414.97,-509.94C491.31,-499.16 611.76,-482.14 687.68,-471.41"/>
<polygon fill="#63b8ff" stroke="#63b8ff" points="688.22,-474.87 697.63,-470 687.24,-467.94 688.22,-474.87"/>
</a>
</g>
</g>
<!-- Node36 -->
<g id="Node000036" class="node">
<title>Node36</title>
<g id="a_Node000036"><a xlink:href="_base_component_8hpp.html" target="_top" xlink:title=" ">
<polygon fill="white" stroke="#666666" points="663.8,-470 481.8,-470 481.8,-451 663.8,-451 663.8,-470"/>
<text text-anchor="middle" x="572.8" y="-458" font-family="Helvetica,sans-Serif" font-size="10.00">Components/BaseComponent.hpp</text>
</a>
</g>
</g>
<!-- Node1&#45;&gt;Node36 -->
<g id="edge54_Node000001_Node000036" class="edge">
<title>Node1&#45;&gt;Node36</title>
<g id="a_edge54_Node000001_Node000036"><a xlink:title=" ">
<path fill="none" stroke="#63b8ff" d="M398.65,-505.99C438.69,-495.76 492.22,-482.09 529.32,-472.61"/>
<polygon fill="#63b8ff" stroke="#63b8ff" points="530.5,-475.92 539.32,-470.05 528.76,-469.14 530.5,-475.92"/>
</a>
</g>
</g>
<!-- Node6&#45;&gt;Node2 -->
<g id="edge9_Node000006_Node000002" class="edge">
<title>Node6&#45;&gt;Node2</title>
<g id="a_edge9_Node000006_Node000002"><a xlink:title=" ">
<path fill="none" stroke="#63b8ff" d="M173.24,-450.91C168.05,-432.74 156.8,-389 156.8,-351.5 156.8,-351.5 156.8,-351.5 156.8,-228.5 156.8,-197.19 156.8,-160.77 156.8,-139.23"/>
<polygon fill="#63b8ff" stroke="#63b8ff" points="160.3,-139.18 156.8,-129.18 153.3,-139.18 160.3,-139.18"/>
</a>
</g>
</g>
<!-- Node6&#45;&gt;Node4 -->
<g id="edge6_Node000006_Node000004" class="edge">
<title>Node6&#45;&gt;Node4</title>
<g id="a_edge6_Node000006_Node000004"><a xlink:title=" ">
<path fill="none" stroke="#63b8ff" d="M176.08,-450.74C177.22,-429.11 183.15,-372.67 213.8,-341 237.75,-316.26 274.76,-303.72 304.72,-297.39"/>
<polygon fill="#63b8ff" stroke="#63b8ff" points="305.43,-300.82 314.58,-295.48 304.09,-293.95 305.43,-300.82"/>
</a>
</g>
</g>
<!-- Node7 -->
<g id="Node000007" class="node">
<title>Node7</title>
<g id="a_Node000007"><a xlink:title=" ">
<polygon fill="#e0e0e0" stroke="#999999" points="510.3,-360 439.3,-360 439.3,-341 510.3,-341 510.3,-360"/>
<text text-anchor="middle" x="474.8" y="-348" font-family="Helvetica,sans-Serif" font-size="10.00">glad/glad.h</text>
</a>
</g>
</g>
<!-- Node6&#45;&gt;Node7 -->
<g id="edge7_Node000006_Node000007" class="edge">
<title>Node6&#45;&gt;Node7</title>
<g id="a_edge7_Node000006_Node000007"><a xlink:title=" ">
<path fill="none" stroke="#63b8ff" d="M207.59,-451C237.78,-442.67 284.29,-429.2 323.8,-415 367.32,-399.36 416.48,-377.96 446.56,-364.44"/>
<polygon fill="#63b8ff" stroke="#63b8ff" points="448.32,-367.48 455.99,-360.17 445.44,-361.11 448.32,-367.48"/>
</a>
</g>
</g>
<!-- Node8 -->
<g id="Node000008" class="node">
<title>Node8</title>
<g id="a_Node000008"><a xlink:title=" ">
<polygon fill="#e0e0e0" stroke="#999999" points="128.3,-415 81.3,-415 81.3,-396 128.3,-396 128.3,-415"/>
<text text-anchor="middle" x="104.8" y="-403" font-family="Helvetica,sans-Serif" font-size="10.00">vector</text>
</a>
</g>
</g>
<!-- Node6&#45;&gt;Node8 -->
<g id="edge8_Node000006_Node000008" class="edge">
<title>Node6&#45;&gt;Node8</title>
<g id="a_edge8_Node000006_Node000008"><a xlink:title=" ">
<path fill="none" stroke="#63b8ff" d="M164.4,-450.98C153.69,-443 137.46,-430.88 124.64,-421.31"/>
<polygon fill="#63b8ff" stroke="#63b8ff" points="126.53,-418.35 116.42,-415.17 122.34,-423.96 126.53,-418.35"/>
</a>
</g>
</g>
<!-- Node9 -->
<g id="Node000009" class="node">
<title>Node9</title>
<g id="a_Node000009"><a xlink:href="_path_constructible_asset_8hpp.html" target="_top" xlink:title=" ">
<polygon fill="white" stroke="#666666" points="874.3,-305 699.3,-305 699.3,-275 874.3,-275 874.3,-305"/>
<text text-anchor="start" x="707.3" y="-293" font-family="Helvetica,sans-Serif" font-size="10.00">AssetManager/PathConstructible</text>
<text text-anchor="middle" x="786.8" y="-282" font-family="Helvetica,sans-Serif" font-size="10.00">Asset.hpp</text>
</a>
</g>
</g>
<!-- Node6&#45;&gt;Node9 -->
<g id="edge10_Node000006_Node000009" class="edge">
<title>Node6&#45;&gt;Node9</title>
<g id="a_edge10_Node000006_Node000009"><a xlink:title=" ">
<path fill="none" stroke="#63b8ff" d="M244.63,-451.74C247.39,-451.48 250.12,-451.23 252.8,-451 314.81,-445.58 757.84,-446 811.8,-415 843.69,-396.68 864.67,-374.17 848.8,-341 843.01,-328.89 832.7,-318.78 822.13,-310.89"/>
<polygon fill="#63b8ff" stroke="#63b8ff" points="823.89,-307.85 813.68,-305.04 819.91,-313.61 823.89,-307.85"/>
</a>
</g>
</g>
<!-- Node18 -->
<g id="Node000018" class="node">
<title>Node18</title>
<g id="a_Node000018"><a xlink:href="_a_a_b_b_8hpp.html" target="_top" xlink:title=" ">
<polygon fill="white" stroke="#666666" points="314.8,-415 222.8,-415 222.8,-396 314.8,-396 314.8,-415"/>
<text text-anchor="middle" x="268.8" y="-403" font-family="Helvetica,sans-Serif" font-size="10.00">Math/AABB.hpp</text>
</a>
</g>
</g>
<!-- Node6&#45;&gt;Node18 -->
<g id="edge20_Node000006_Node000018" class="edge">
<title>Node6&#45;&gt;Node18</title>
<g id="a_edge20_Node000006_Node000018"><a xlink:title=" ">
<path fill="none" stroke="#63b8ff" d="M190.75,-450.98C205.3,-442.69 227.67,-429.94 244.74,-420.22"/>
<polygon fill="#63b8ff" stroke="#63b8ff" points="246.63,-423.16 253.59,-415.17 243.17,-417.08 246.63,-423.16"/>
</a>
</g>
</g>
<!-- Node10 -->
<g id="Node000010" class="node">
<title>Node10</title>
<g id="a_Node000010"><a xlink:title=" ">
<polygon fill="#e0e0e0" stroke="#999999" points="692.8,-239 624.8,-239 624.8,-220 692.8,-220 692.8,-239"/>
<text text-anchor="middle" x="658.8" y="-227" font-family="Helvetica,sans-Serif" font-size="10.00">filesystem</text>
</a>
</g>
</g>
<!-- Node9&#45;&gt;Node10 -->
<g id="edge11_Node000009_Node000010" class="edge">
<title>Node9&#45;&gt;Node10</title>
<g id="a_edge11_Node000009_Node000010"><a xlink:title=" ">
<path fill="none" stroke="#63b8ff" d="M756.14,-274.99C735.07,-265.36 707.32,-252.67 686.83,-243.31"/>
<polygon fill="#63b8ff" stroke="#63b8ff" points="688.26,-240.11 677.71,-239.14 685.35,-246.48 688.26,-240.11"/>
</a>
</g>
</g>
<!-- Node11 -->
<g id="Node000011" class="node">
<title>Node11</title>
<g id="a_Node000011"><a xlink:href="_instance_counter_8hpp.html" target="_top" xlink:title=" ">
<polygon fill="white" stroke="#666666" points="874.8,-239 710.8,-239 710.8,-220 874.8,-220 874.8,-239"/>
<text text-anchor="middle" x="792.8" y="-227" font-family="Helvetica,sans-Serif" font-size="10.00">Common/InstanceCounter.hpp</text>
</a>
</g>
</g>
<!-- Node9&#45;&gt;Node11 -->
<g id="edge12_Node000009_Node000011" class="edge">
<title>Node9&#45;&gt;Node11</title>
<g id="a_edge12_Node000009_Node000011"><a xlink:title=" ">
<path fill="none" stroke="#63b8ff" d="M788.26,-274.84C789.04,-267.21 790.01,-257.7 790.86,-249.45"/>
<polygon fill="#63b8ff" stroke="#63b8ff" points="794.37,-249.57 791.9,-239.27 787.4,-248.86 794.37,-249.57"/>
</a>
</g>
</g>
<!-- Node12 -->
<g id="Node000012" class="node">
<title>Node12</title>
<g id="a_Node000012"><a xlink:title=" ">
<polygon fill="#e0e0e0" stroke="#999999" points="572.8,-184 522.8,-184 522.8,-165 572.8,-165 572.8,-184"/>
<text text-anchor="middle" x="547.8" y="-172" font-family="Helvetica,sans-Serif" font-size="10.00">atomic</text>
</a>
</g>
</g>
<!-- Node11&#45;&gt;Node12 -->
<g id="edge13_Node000011_Node000012" class="edge">
<title>Node11&#45;&gt;Node12</title>
<g id="a_edge13_Node000011_Node000012"><a xlink:title=" ">
<path fill="none" stroke="#63b8ff" d="M749.86,-219.93C709.24,-211.71 646.33,-198.71 582.81,-184.17"/>
<polygon fill="#63b8ff" stroke="#63b8ff" points="583.56,-180.75 573.03,-181.92 581.99,-187.57 583.56,-180.75"/>
</a>
</g>
</g>
<!-- Node13 -->
<g id="Node000013" class="node">
<title>Node13</title>
<g id="a_Node000013"><a xlink:href="_profiler_8hpp.html" target="_top" xlink:title=" ">
<polygon fill="white" stroke="#666666" points="710.3,-184 591.3,-184 591.3,-165 710.3,-165 710.3,-184"/>
<text text-anchor="middle" x="650.8" y="-172" font-family="Helvetica,sans-Serif" font-size="10.00">Common/Profiler.hpp</text>
</a>
</g>
</g>
<!-- Node11&#45;&gt;Node13 -->
<g id="edge14_Node000011_Node000013" class="edge">
<title>Node11&#45;&gt;Node13</title>
<g id="a_edge14_Node000011_Node000013"><a xlink:title=" ">
<path fill="none" stroke="#63b8ff" d="M769.99,-219.98C746.63,-211.27 710.1,-197.63 683.63,-187.75"/>
<polygon fill="#63b8ff" stroke="#63b8ff" points="684.63,-184.39 674.03,-184.17 682.18,-190.95 684.63,-184.39"/>
</a>
</g>
</g>
<!-- Node13&#45;&gt;Node2 -->
<g id="edge19_Node000013_Node000002" class="edge">
<title>Node13&#45;&gt;Node2</title>
<g id="a_edge19_Node000013_Node000002"><a xlink:title=" ">
<path fill="none" stroke="#63b8ff" d="M590.97,-166.06C587.87,-165.7 584.8,-165.34 581.8,-165 435.27,-148.3 260.03,-130.7 189.03,-123.67"/>
<polygon fill="#63b8ff" stroke="#63b8ff" points="189.24,-120.18 178.94,-122.67 188.55,-127.14 189.24,-120.18"/>
</a>
</g>
</g>
<!-- Node14 -->
<g id="Node000014" class="node">
<title>Node14</title>
<g id="a_Node000014"><a xlink:title=" ">
<polygon fill="#e0e0e0" stroke="#999999" points="608.8,-129 558.8,-129 558.8,-110 608.8,-110 608.8,-129"/>
<text text-anchor="middle" x="583.8" y="-117" font-family="Helvetica,sans-Serif" font-size="10.00">chrono</text>
</a>
</g>
</g>
<!-- Node13&#45;&gt;Node14 -->
<g id="edge15_Node000013_Node000014" class="edge">
<title>Node13&#45;&gt;Node14</title>
<g id="a_edge15_Node000013_Node000014"><a xlink:title=" ">
<path fill="none" stroke="#63b8ff" d="M640.04,-164.98C630.04,-157.07 614.92,-145.11 602.87,-135.58"/>
<polygon fill="#63b8ff" stroke="#63b8ff" points="604.78,-132.63 594.76,-129.17 600.44,-138.12 604.78,-132.63"/>
</a>
</g>
</g>
<!-- Node15 -->
<g id="Node000015" class="node">
<title>Node15</title>
<g id="a_Node000015"><a xlink:title=" ">
<polygon fill="#e0e0e0" stroke="#999999" points="674.8,-129 626.8,-129 626.8,-110 674.8,-110 674.8,-129"/>
<text text-anchor="middle" x="650.8" y="-117" font-family="Helvetica,sans-Serif" font-size="10.00">thread</text>
</a>
</g>
</g>
<!-- Node13&#45;&gt;Node15 -->
<g id="edge16_Node000013_Node000015" class="edge">
<title>Node13&#45;&gt;Node15</title>
<g id="a_edge16_Node000013_Node000015"><a xlink:title=" ">
<path fill="none" stroke="#63b8ff" d="M650.8,-164.75C650.8,-157.8 650.8,-147.85 650.8,-139.13"/>
<polygon fill="#63b8ff" stroke="#63b8ff" points="654.3,-139.09 650.8,-129.09 647.3,-139.09 654.3,-139.09"/>
</a>
</g>
</g>
<!-- Node16 -->
<g id="Node000016" class="node">
<title>Node16</title>
<g id="a_Node000016"><a xlink:title=" ">
<polygon fill="#e0e0e0" stroke="#999999" points="893.8,-129 845.8,-129 845.8,-110 893.8,-110 893.8,-129"/>
<text text-anchor="middle" x="869.8" y="-117" font-family="Helvetica,sans-Serif" font-size="10.00">mutex</text>
</a>
</g>
</g>
<!-- Node13&#45;&gt;Node16 -->
<g id="edge17_Node000013_Node000016" class="edge">
<title>Node13&#45;&gt;Node16</title>
<g id="a_edge17_Node000013_Node000016"><a xlink:title=" ">
<path fill="none" stroke="#63b8ff" d="M685.99,-164.98C727.23,-155 795.1,-138.58 835.82,-128.72"/>
<polygon fill="#63b8ff" stroke="#63b8ff" points="836.66,-132.12 845.55,-126.37 835.01,-125.32 836.66,-132.12"/>
</a>
</g>
</g>
<!-- Node17 -->
<g id="Node000017" class="node">
<title>Node17</title>
<g id="a_Node000017"><a xlink:title=" ">
<polygon fill="#e0e0e0" stroke="#999999" points="730.8,-129 692.8,-129 692.8,-110 730.8,-110 730.8,-129"/>
<text text-anchor="middle" x="711.8" y="-117" font-family="Helvetica,sans-Serif" font-size="10.00">map</text>
</a>
</g>
</g>
<!-- Node13&#45;&gt;Node17 -->
<g id="edge18_Node000013_Node000017" class="edge">
<title>Node13&#45;&gt;Node17</title>
<g id="a_edge18_Node000013_Node000017"><a xlink:title=" ">
<path fill="none" stroke="#63b8ff" d="M660.6,-164.98C669.62,-157.15 683.21,-145.34 694.12,-135.86"/>
<polygon fill="#63b8ff" stroke="#63b8ff" points="696.57,-138.37 701.82,-129.17 691.98,-133.09 696.57,-138.37"/>
</a>
</g>
</g>
<!-- Node18&#45;&gt;Node4 -->
<g id="edge21_Node000018_Node000004" class="edge">
<title>Node18&#45;&gt;Node4</title>
<g id="a_edge21_Node000018_Node000004"><a xlink:title=" ">
<path fill="none" stroke="#63b8ff" d="M279.52,-395.71C289.44,-387.24 304.2,-373.71 314.8,-360 327.27,-343.88 338.36,-323.33 345.5,-308.86"/>
<polygon fill="#63b8ff" stroke="#63b8ff" points="348.79,-310.08 349.96,-299.55 342.48,-307.06 348.79,-310.08"/>
</a>
</g>
</g>
<!-- Node19 -->
<g id="Node000019" class="node">
<title>Node19</title>
<g id="a_Node000019"><a xlink:href="_ray_8hpp.html" target="_top" xlink:title=" ">
<polygon fill="white" stroke="#666666" points="306.3,-360 223.3,-360 223.3,-341 306.3,-341 306.3,-360"/>
<text text-anchor="middle" x="264.8" y="-348" font-family="Helvetica,sans-Serif" font-size="10.00">Math/Ray.hpp</text>
</a>
</g>
</g>
<!-- Node18&#45;&gt;Node19 -->
<g id="edge22_Node000018_Node000019" class="edge">
<title>Node18&#45;&gt;Node19</title>
<g id="a_edge22_Node000018_Node000019"><a xlink:title=" ">
<path fill="none" stroke="#63b8ff" d="M268.14,-395.75C267.62,-388.8 266.87,-378.85 266.21,-370.13"/>
<polygon fill="#63b8ff" stroke="#63b8ff" points="269.69,-369.8 265.45,-360.09 262.71,-370.32 269.69,-369.8"/>
</a>
</g>
</g>
<!-- Node19&#45;&gt;Node4 -->
<g id="edge23_Node000019_Node000004" class="edge">
<title>Node19&#45;&gt;Node4</title>
<g id="a_edge23_Node000019_Node000004"><a xlink:title=" ">
<path fill="none" stroke="#63b8ff" d="M277.94,-340.87C292.13,-331.54 315,-316.51 331.92,-305.38"/>
<polygon fill="#63b8ff" stroke="#63b8ff" points="334.18,-308.08 340.62,-299.67 330.34,-302.24 334.18,-308.08"/>
</a>
</g>
</g>
<!-- Node20&#45;&gt;Node4 -->
<g id="edge25_Node000020_Node000004" class="edge">
<title>Node20&#45;&gt;Node4</title>
<g id="a_edge25_Node000020_Node000004"><a xlink:title=" ">
<path fill="none" stroke="#63b8ff" d="M705.26,-450.97C638,-438.45 519.48,-410.85 429.8,-360 405.21,-346.06 381.92,-322.9 367.75,-307.3"/>
<polygon fill="#63b8ff" stroke="#63b8ff" points="370.12,-304.69 360.87,-299.52 364.87,-309.33 370.12,-304.69"/>
</a>
</g>
</g>
<!-- Node20&#45;&gt;Node11 -->
<g id="edge53_Node000020_Node000011" class="edge">
<title>Node20&#45;&gt;Node11</title>
<g id="a_edge53_Node000020_Node000011"><a xlink:title=" ">
<path fill="none" stroke="#63b8ff" d="M782.78,-450.9C800.61,-443.68 824.12,-431.83 839.8,-415 875.7,-376.48 875.09,-356.93 883.8,-305 886.01,-291.85 890.86,-286.31 883.8,-275 874.15,-259.54 857.4,-249.3 840.87,-242.59"/>
<polygon fill="#63b8ff" stroke="#63b8ff" points="841.82,-239.21 831.23,-239.04 839.4,-245.78 841.82,-239.21"/>
</a>
</g>
</g>
<!-- Node21 -->
<g id="Node000021" class="node">
<title>Node21</title>
<g id="a_Node000021"><a xlink:href="_asset_8hpp.html" target="_top" xlink:title=" ">
<polygon fill="white" stroke="#666666" points="1071.3,-299.5 934.3,-299.5 934.3,-280.5 1071.3,-280.5 1071.3,-299.5"/>
<text text-anchor="middle" x="1002.8" y="-287.5" font-family="Helvetica,sans-Serif" font-size="10.00">AssetManager/Asset.hpp</text>
</a>
</g>
</g>
<!-- Node20&#45;&gt;Node21 -->
<g id="edge26_Node000020_Node000021" class="edge">
<title>Node20&#45;&gt;Node21</title>
<g id="a_edge26_Node000020_Node000021"><a xlink:title=" ">
<path fill="none" stroke="#63b8ff" d="M829.97,-450.98C859.9,-444.71 893.66,-433.84 919.8,-415 958.02,-387.45 983.83,-336.47 995.57,-309.25"/>
<polygon fill="#63b8ff" stroke="#63b8ff" points="998.9,-310.35 999.5,-299.77 992.43,-307.67 998.9,-310.35"/>
</a>
</g>
</g>
<!-- Node34 -->
<g id="Node000034" class="node">
<title>Node34</title>
<g id="a_Node000034"><a xlink:href="_texture_8hpp.html" target="_top" xlink:title=" ">
<polygon fill="white" stroke="#666666" points="802.8,-415 656.8,-415 656.8,-396 802.8,-396 802.8,-415"/>
<text text-anchor="middle" x="729.8" y="-403" font-family="Helvetica,sans-Serif" font-size="10.00">AssetManager/Texture.hpp</text>
</a>
</g>
</g>
<!-- Node20&#45;&gt;Node34 -->
<g id="edge47_Node000020_Node000034" class="edge">
<title>Node20&#45;&gt;Node34</title>
<g id="a_edge47_Node000020_Node000034"><a xlink:title=" ">
<path fill="none" stroke="#63b8ff" d="M753.18,-450.75C749.35,-443.49 743.78,-432.95 739.04,-423.98"/>
<polygon fill="#63b8ff" stroke="#63b8ff" points="742.11,-422.3 734.34,-415.09 735.92,-425.57 742.11,-422.3"/>
</a>
</g>
</g>
<!-- Node21&#45;&gt;Node10 -->
<g id="edge27_Node000021_Node000010" class="edge">
<title>Node21&#45;&gt;Node10</title>
<g id="a_edge27_Node000021_Node000010"><a xlink:title=" ">
<path fill="none" stroke="#63b8ff" d="M948.34,-280.47C890.1,-271.23 794.79,-255.77 703.06,-239.19"/>
<polygon fill="#63b8ff" stroke="#63b8ff" points="703.52,-235.71 693.05,-237.37 702.27,-242.6 703.52,-235.71"/>
</a>
</g>
</g>
<!-- Node22 -->
<g id="Node000022" class="node">
<title>Node22</title>
<g id="a_Node000022"><a xlink:href="_registry_8hpp.html" target="_top" xlink:title=" ">
<polygon fill="white" stroke="#666666" points="1186.8,-239 1088.8,-239 1088.8,-220 1186.8,-220 1186.8,-239"/>
<text text-anchor="middle" x="1137.8" y="-227" font-family="Helvetica,sans-Serif" font-size="10.00">ECS/Registry.hpp</text>
</a>
</g>
</g>
<!-- Node21&#45;&gt;Node22 -->
<g id="edge28_Node000021_Node000022" class="edge">
<title>Node21&#45;&gt;Node22</title>
<g id="a_edge28_Node000021_Node000022"><a xlink:title=" ">
<path fill="none" stroke="#63b8ff" d="M1022.43,-280.49C1045.13,-270.66 1082.7,-254.38 1108.77,-243.08"/>
<polygon fill="#63b8ff" stroke="#63b8ff" points="1110.37,-246.2 1118.15,-239.02 1107.58,-239.78 1110.37,-246.2"/>
</a>
</g>
</g>
<!-- Node23 -->
<g id="Node000023" class="node">
<title>Node23</title>
<g id="a_Node000023"><a xlink:title=" ">
<polygon fill="#e0e0e0" stroke="#999999" points="1330.8,-129 1244.8,-129 1244.8,-110 1330.8,-110 1330.8,-129"/>
<text text-anchor="middle" x="1287.8" y="-117" font-family="Helvetica,sans-Serif" font-size="10.00">unordered_set</text>
</a>
</g>
</g>
<!-- Node22&#45;&gt;Node23 -->
<g id="edge29_Node000022_Node000023" class="edge">
<title>Node22&#45;&gt;Node23</title>
<g id="a_edge29_Node000022_Node000023"><a xlink:title=" ">
<path fill="none" stroke="#63b8ff" d="M1162.17,-219.9C1181.83,-212.27 1209.6,-199.88 1230.8,-184 1248.51,-170.74 1264.95,-151.35 1275.58,-137.49"/>
<polygon fill="#63b8ff" stroke="#63b8ff" points="1278.51,-139.41 1281.68,-129.3 1272.9,-135.23 1278.51,-139.41"/>
</a>
</g>
</g>
<!-- Node24 -->
<g id="Node000024" class="node">
<title>Node24</title>
<g id="a_Node000024"><a xlink:href="_logger_8hpp.html" target="_top" xlink:title=" ">
<polygon fill="white" stroke="#666666" points="1024.3,-184 907.3,-184 907.3,-165 1024.3,-165 1024.3,-184"/>
<text text-anchor="middle" x="965.8" y="-172" font-family="Helvetica,sans-Serif" font-size="10.00">Common/Logger.hpp</text>
</a>
</g>
</g>
<!-- Node22&#45;&gt;Node24 -->
<g id="edge30_Node000022_Node000024" class="edge">
<title>Node22&#45;&gt;Node24</title>
<g id="a_edge30_Node000022_Node000024"><a xlink:title=" ">
<path fill="none" stroke="#63b8ff" d="M1110.17,-219.98C1081.29,-211.09 1035.79,-197.07 1003.6,-187.15"/>
<polygon fill="#63b8ff" stroke="#63b8ff" points="1004.24,-183.68 993.65,-184.08 1002.18,-190.37 1004.24,-183.68"/>
</a>
</g>
</g>
<!-- Node26 -->
<g id="Node000026" class="node">
<title>Node26</title>
<g id="a_Node000026"><a xlink:href="_entity_8hpp.html" target="_top" xlink:title=" ">
<polygon fill="white" stroke="#666666" points="1253.8,-74 1167.8,-74 1167.8,-55 1253.8,-55 1253.8,-74"/>
<text text-anchor="middle" x="1210.8" y="-62" font-family="Helvetica,sans-Serif" font-size="10.00">ECS/Entity.hpp</text>
</a>
</g>
</g>
<!-- Node22&#45;&gt;Node26 -->
<g id="edge33_Node000022_Node000026" class="edge">
<title>Node22&#45;&gt;Node26</title>
<g id="a_edge33_Node000022_Node000026"><a xlink:title=" ">
<path fill="none" stroke="#63b8ff" d="M1146.01,-219.83C1153.85,-211.23 1165.65,-197.42 1173.8,-184 1187.65,-161.2 1189.75,-154.43 1197.8,-129 1202.48,-114.23 1205.89,-96.98 1208.04,-84.19"/>
<polygon fill="#63b8ff" stroke="#63b8ff" points="1211.5,-84.7 1209.6,-74.27 1204.59,-83.61 1211.5,-84.7"/>
</a>
</g>
</g>
<!-- Node28 -->
<g id="Node000028" class="node">
<title>Node28</title>
<g id="a_Node000028"><a xlink:href="_entity_hierarchy_8hpp.html" target="_top" xlink:title=" ">
<polygon fill="white" stroke="#666666" points="1425.8,-184 1291.8,-184 1291.8,-165 1425.8,-165 1425.8,-184"/>
<text text-anchor="middle" x="1358.8" y="-172" font-family="Helvetica,sans-Serif" font-size="10.00">ECS/EntityHierarchy.hpp</text>
</a>
</g>
</g>
<!-- Node22&#45;&gt;Node28 -->
<g id="edge35_Node000022_Node000028" class="edge">
<title>Node22&#45;&gt;Node28</title>
<g id="a_edge35_Node000022_Node000028"><a xlink:title=" ">
<path fill="none" stroke="#63b8ff" d="M1173.31,-219.98C1211.3,-210.87 1271.67,-196.4 1313.16,-186.45"/>
<polygon fill="#63b8ff" stroke="#63b8ff" points="1314.11,-189.82 1323.02,-184.08 1312.48,-183.01 1314.11,-189.82"/>
</a>
</g>
</g>
<!-- Node31 -->
<g id="Node000031" class="node">
<title>Node31</title>
<g id="a_Node000031"><a xlink:href="_entity_provider_8hpp.html" target="_top" xlink:title="Manages a pool of unused entity identifiers and provides mechanisms for requesting and removing them.">
<polygon fill="white" stroke="#666666" points="1188.8,-129 1060.8,-129 1060.8,-110 1188.8,-110 1188.8,-129"/>
<text text-anchor="middle" x="1124.8" y="-117" font-family="Helvetica,sans-Serif" font-size="10.00">ECS/EntityProvider.hpp</text>
</a>
</g>
</g>
<!-- Node22&#45;&gt;Node31 -->
<g id="edge40_Node000022_Node000031" class="edge">
<title>Node22&#45;&gt;Node31</title>
<g id="a_edge40_Node000022_Node000031"><a xlink:title=" ">
<path fill="none" stroke="#63b8ff" d="M1144.58,-219.87C1153.31,-207.66 1166.6,-184.63 1159.8,-165 1156.13,-154.38 1148.76,-144.38 1141.73,-136.55"/>
<polygon fill="#63b8ff" stroke="#63b8ff" points="1144.15,-134.02 1134.69,-129.25 1139.11,-138.88 1144.15,-134.02"/>
</a>
</g>
</g>
<!-- Node32 -->
<g id="Node000032" class="node">
<title>Node32</title>
<g id="a_Node000032"><a xlink:href="_sparse_set_8hpp.html" target="_top" xlink:title=" ">
<polygon fill="white" stroke="#666666" points="1150.8,-184 1042.8,-184 1042.8,-165 1150.8,-165 1150.8,-184"/>
<text text-anchor="middle" x="1096.8" y="-172" font-family="Helvetica,sans-Serif" font-size="10.00">ECS/SparseSet.hpp</text>
</a>
</g>
</g>
<!-- Node22&#45;&gt;Node32 -->
<g id="edge44_Node000022_Node000032" class="edge">
<title>Node22&#45;&gt;Node32</title>
<g id="a_edge44_Node000022_Node000032"><a xlink:title=" ">
<path fill="none" stroke="#63b8ff" d="M1131.03,-219.75C1125.24,-212.26 1116.74,-201.28 1109.67,-192.13"/>
<polygon fill="#63b8ff" stroke="#63b8ff" points="1112.33,-189.86 1103.45,-184.09 1106.8,-194.14 1112.33,-189.86"/>
</a>
</g>
</g>
<!-- Node33 -->
<g id="Node000033" class="node">
<title>Node33</title>
<g id="a_Node000033"><a xlink:href="_singleton_component_8hpp.html" target="_top" xlink:title=" ">
<polygon fill="white" stroke="#666666" points="889.3,-184 728.3,-184 728.3,-165 889.3,-165 889.3,-184"/>
<text text-anchor="middle" x="808.8" y="-172" font-family="Helvetica,sans-Serif" font-size="10.00">ECS/SingletonComponent.hpp</text>
</a>
</g>
</g>
<!-- Node22&#45;&gt;Node33 -->
<g id="edge46_Node000022_Node000033" class="edge">
<title>Node22&#45;&gt;Node33</title>
<g id="a_edge46_Node000022_Node000033"><a xlink:title=" ">
<path fill="none" stroke="#63b8ff" d="M1088.55,-220.57C1030.82,-211.26 935.02,-195.83 871.9,-185.66"/>
<polygon fill="#63b8ff" stroke="#63b8ff" points="872.1,-182.15 861.67,-184.02 870.98,-189.06 872.1,-182.15"/>
</a>
</g>
</g>
<!-- Node24&#45;&gt;Node16 -->
<g id="edge31_Node000024_Node000016" class="edge">
<title>Node24&#45;&gt;Node16</title>
<g id="a_edge31_Node000024_Node000016"><a xlink:title=" ">
<path fill="none" stroke="#63b8ff" d="M950.38,-164.98C935.35,-156.69 912.26,-143.94 894.65,-134.22"/>
<polygon fill="#63b8ff" stroke="#63b8ff" points="895.95,-130.94 885.51,-129.17 892.57,-137.07 895.95,-130.94"/>
</a>
</g>
</g>
<!-- Node25 -->
<g id="Node000025" class="node">
<title>Node25</title>
<g id="a_Node000025"><a xlink:title=" ">
<polygon fill="#e0e0e0" stroke="#999999" points="1081.3,-74 1034.3,-74 1034.3,-55 1081.3,-55 1081.3,-74"/>
<text text-anchor="middle" x="1057.8" y="-62" font-family="Helvetica,sans-Serif" font-size="10.00">queue</text>
</a>
</g>
</g>
<!-- Node24&#45;&gt;Node25 -->
<g id="edge32_Node000024_Node000025" class="edge">
<title>Node24&#45;&gt;Node25</title>
<g id="a_edge32_Node000024_Node000025"><a xlink:title=" ">
<path fill="none" stroke="#63b8ff" d="M973.33,-164.66C988.71,-146.61 1023.92,-105.28 1043.68,-82.08"/>
<polygon fill="#63b8ff" stroke="#63b8ff" points="1046.61,-84.04 1050.43,-74.16 1041.28,-79.5 1046.61,-84.04"/>
</a>
</g>
</g>
<!-- Node27 -->
<g id="Node000027" class="node">
<title>Node27</title>
<g id="a_Node000027"><a xlink:title=" ">
<polygon fill="#e0e0e0" stroke="#999999" points="1191.3,-19 1138.3,-19 1138.3,0 1191.3,0 1191.3,-19"/>
<text text-anchor="middle" x="1164.8" y="-7" font-family="Helvetica,sans-Serif" font-size="10.00">stdlib.h</text>
</a>
</g>
</g>
<!-- Node26&#45;&gt;Node27 -->
<g id="edge34_Node000026_Node000027" class="edge">
<title>Node26&#45;&gt;Node27</title>
<g id="a_edge34_Node000026_Node000027"><a xlink:title=" ">
<path fill="none" stroke="#63b8ff" d="M1203.21,-54.75C1196.64,-47.18 1186.98,-36.05 1178.99,-26.84"/>
<polygon fill="#63b8ff" stroke="#63b8ff" points="1181.46,-24.35 1172.26,-19.09 1176.17,-28.94 1181.46,-24.35"/>
</a>
</g>
</g>
<!-- Node28&#45;&gt;Node23 -->
<g id="edge37_Node000028_Node000023" class="edge">
<title>Node28&#45;&gt;Node23</title>
<g id="a_edge37_Node000028_Node000023"><a xlink:title=" ">
<path fill="none" stroke="#63b8ff" d="M1347.4,-164.98C1336.69,-157 1320.46,-144.88 1307.64,-135.31"/>
<polygon fill="#63b8ff" stroke="#63b8ff" points="1309.53,-132.35 1299.42,-129.17 1305.34,-137.96 1309.53,-132.35"/>
</a>
</g>
</g>
<!-- Node28&#45;&gt;Node26 -->
<g id="edge39_Node000028_Node000026" class="edge">
<title>Node28&#45;&gt;Node26</title>
<g id="a_edge39_Node000028_Node000026"><a xlink:title=" ">
<path fill="none" stroke="#63b8ff" d="M1358.62,-164.88C1357.86,-151.4 1354.46,-125.28 1339.8,-110 1319.97,-89.32 1290.08,-78.25 1264.07,-72.32"/>
<polygon fill="#63b8ff" stroke="#63b8ff" points="1264.45,-68.83 1253.95,-70.22 1263.03,-75.68 1264.45,-68.83"/>
</a>
</g>
</g>
<!-- Node29 -->
<g id="Node000029" class="node">
<title>Node29</title>
<g id="a_Node000029"><a xlink:title=" ">
<polygon fill="#e0e0e0" stroke="#999999" points="1563.3,-129 1498.3,-129 1498.3,-110 1563.3,-110 1563.3,-129"/>
<text text-anchor="middle" x="1530.8" y="-117" font-family="Helvetica,sans-Serif" font-size="10.00">functional</text>
</a>
</g>
</g>
<!-- Node28&#45;&gt;Node29 -->
<g id="edge36_Node000028_Node000029" class="edge">
<title>Node28&#45;&gt;Node29</title>
<g id="a_edge36_Node000028_Node000029"><a xlink:title=" ">
<path fill="none" stroke="#63b8ff" d="M1386.44,-164.98C1415.31,-156.09 1460.81,-142.07 1493.01,-132.15"/>
<polygon fill="#63b8ff" stroke="#63b8ff" points="1494.43,-135.37 1502.95,-129.08 1492.36,-128.68 1494.43,-135.37"/>
</a>
</g>
</g>
<!-- Node30 -->
<g id="Node000030" class="node">
<title>Node30</title>
<g id="a_Node000030"><a xlink:title=" ">
<polygon fill="#e0e0e0" stroke="#999999" points="1480.3,-129 1387.3,-129 1387.3,-110 1480.3,-110 1480.3,-129"/>
<text text-anchor="middle" x="1433.8" y="-117" font-family="Helvetica,sans-Serif" font-size="10.00">unordered_map</text>
</a>
</g>
</g>
<!-- Node28&#45;&gt;Node30 -->
<g id="edge38_Node000028_Node000030" class="edge">
<title>Node28&#45;&gt;Node30</title>
<g id="a_edge38_Node000028_Node000030"><a xlink:title=" ">
<path fill="none" stroke="#63b8ff" d="M1370.85,-164.98C1382.27,-156.92 1399.63,-144.65 1413.24,-135.03"/>
<polygon fill="#63b8ff" stroke="#63b8ff" points="1415.39,-137.8 1421.53,-129.17 1411.35,-132.08 1415.39,-137.8"/>
</a>
</g>
</g>
<!-- Node31&#45;&gt;Node25 -->
<g id="edge42_Node000031_Node000025" class="edge">
<title>Node31&#45;&gt;Node25</title>
<g id="a_edge42_Node000031_Node000025"><a xlink:title=" ">
<path fill="none" stroke="#63b8ff" d="M1114.04,-109.98C1104.04,-102.07 1088.92,-90.11 1076.87,-80.58"/>
<polygon fill="#63b8ff" stroke="#63b8ff" points="1078.78,-77.63 1068.76,-74.17 1074.44,-83.12 1078.78,-77.63"/>
</a>
</g>
</g>
<!-- Node31&#45;&gt;Node26 -->
<g id="edge43_Node000031_Node000026" class="edge">
<title>Node31&#45;&gt;Node26</title>
<g id="a_edge43_Node000031_Node000026"><a xlink:title=" ">
<path fill="none" stroke="#63b8ff" d="M1138.62,-109.98C1151.96,-101.77 1172.38,-89.18 1188.11,-79.49"/>
<polygon fill="#63b8ff" stroke="#63b8ff" points="1190.06,-82.4 1196.73,-74.17 1186.39,-76.44 1190.06,-82.4"/>
</a>
</g>
</g>
<!-- Node31&#45;&gt;Node27 -->
<g id="edge41_Node000031_Node000027" class="edge">
<title>Node31&#45;&gt;Node27</title>
<g id="a_edge41_Node000031_Node000027"><a xlink:title=" ">
<path fill="none" stroke="#63b8ff" d="M1128.08,-109.66C1134.61,-92.01 1149.4,-52.09 1158.09,-28.64"/>
<polygon fill="#63b8ff" stroke="#63b8ff" points="1161.41,-29.75 1161.6,-19.16 1154.84,-27.32 1161.41,-29.75"/>
</a>
</g>
</g>
<!-- Node32&#45;&gt;Node31 -->
<g id="edge45_Node000032_Node000031" class="edge">
<title>Node32&#45;&gt;Node31</title>
<g id="a_edge45_Node000032_Node000031"><a xlink:title=" ">
<path fill="none" stroke="#63b8ff" d="M1101.43,-164.75C1105.26,-157.49 1110.83,-146.95 1115.57,-137.98"/>
<polygon fill="#63b8ff" stroke="#63b8ff" points="1118.69,-139.57 1120.27,-129.09 1112.5,-136.3 1118.69,-139.57"/>
</a>
</g>
</g>
<!-- Node34&#45;&gt;Node4 -->
<g id="edge49_Node000034_Node000004" class="edge">
<title>Node34&#45;&gt;Node4</title>
<g id="a_edge49_Node000034_Node000004"><a xlink:title=" ">
<path fill="none" stroke="#63b8ff" d="M687.02,-395.93C651.77,-388.28 600.78,-375.85 557.8,-360 539.71,-353.33 536.75,-348.04 518.8,-341 478.52,-325.2 431.13,-311.3 397.49,-302.2"/>
<polygon fill="#63b8ff" stroke="#63b8ff" points="398.08,-298.73 387.52,-299.53 396.27,-305.49 398.08,-298.73"/>
</a>
</g>
</g>
<!-- Node34&#45;&gt;Node7 -->
<g id="edge48_Node000034_Node000007" class="edge">
<title>Node34&#45;&gt;Node7</title>
<g id="a_edge48_Node000034_Node000007"><a xlink:title=" ">
<path fill="none" stroke="#63b8ff" d="M688.83,-395.98C642.8,-386.42 568.26,-370.92 520.41,-360.98"/>
<polygon fill="#63b8ff" stroke="#63b8ff" points="520.83,-357.49 510.32,-358.88 519.4,-364.34 520.83,-357.49"/>
</a>
</g>
</g>
<!-- Node35 -->
<g id="Node000035" class="node">
<title>Node35</title>
<g id="a_Node000035"><a xlink:href="_image_8hpp.html" target="_top" xlink:title=" ">
<polygon fill="white" stroke="#666666" points="839.3,-360 698.3,-360 698.3,-341 839.3,-341 839.3,-360"/>
<text text-anchor="middle" x="768.8" y="-348" font-family="Helvetica,sans-Serif" font-size="10.00">AssetManager/Image.hpp</text>
</a>
</g>
</g>
<!-- Node34&#45;&gt;Node35 -->
<g id="edge50_Node000034_Node000035" class="edge">
<title>Node34&#45;&gt;Node35</title>
<g id="a_edge50_Node000034_Node000035"><a xlink:title=" ">
<path fill="none" stroke="#63b8ff" d="M736.24,-395.75C741.7,-388.34 749.67,-377.5 756.36,-368.41"/>
<polygon fill="#63b8ff" stroke="#63b8ff" points="759.38,-370.22 762.48,-360.09 753.74,-366.07 759.38,-370.22"/>
</a>
</g>
</g>
<!-- Node35&#45;&gt;Node9 -->
<g id="edge52_Node000035_Node000009" class="edge">
<title>Node35&#45;&gt;Node9</title>
<g id="a_edge52_Node000035_Node000009"><a xlink:title=" ">
<path fill="none" stroke="#63b8ff" d="M771.46,-340.87C773.56,-334.03 776.61,-324.14 779.43,-314.97"/>
<polygon fill="#63b8ff" stroke="#63b8ff" points="782.86,-315.7 782.46,-305.11 776.17,-313.64 782.86,-315.7"/>
</a>
</g>
</g>
<!-- Node35&#45;&gt;Node10 -->
<g id="edge51_Node000035_Node000010" class="edge">
<title>Node35&#45;&gt;Node10</title>
<g id="a_edge51_Node000035_Node000010"><a xlink:title=" ">
<path fill="none" stroke="#63b8ff" d="M744.95,-340.98C727.65,-333.75 704.75,-321.83 689.8,-305 675.6,-289 667.31,-265.57 662.93,-249.27"/>
<polygon fill="#63b8ff" stroke="#63b8ff" points="666.27,-248.19 660.5,-239.31 659.47,-249.85 666.27,-248.19"/>
</a>
</g>
</g>
<!-- Node37 -->
<g id="Node000037" class="node">
<title>Node37</title>
<g id="a_Node000037"><a xlink:href="_types_8hpp.html" target="_top" xlink:title=" ">
<polygon fill="white" stroke="#666666" points="680.3,-360 567.3,-360 567.3,-341 680.3,-341 680.3,-360"/>
<text text-anchor="middle" x="623.8" y="-348" font-family="Helvetica,sans-Serif" font-size="10.00">Common/Types.hpp</text>
</a>
</g>
</g>
<!-- Node36&#45;&gt;Node37 -->
<g id="edge55_Node000036_Node000037" class="edge">
<title>Node36&#45;&gt;Node37</title>
<g id="a_edge55_Node000036_Node000037"><a xlink:title=" ">
<path fill="none" stroke="#63b8ff" d="M576.98,-450.66C585.35,-432.93 604.33,-392.73 615.39,-369.32"/>
<polygon fill="#63b8ff" stroke="#63b8ff" points="618.61,-370.7 619.71,-360.16 612.28,-367.71 618.61,-370.7"/>
</a>
</g>
</g>
<!-- Node37&#45;&gt;Node10 -->
<g id="edge56_Node000037_Node000010" class="edge">
<title>Node37&#45;&gt;Node10</title>
<g id="a_edge56_Node000037_Node000010"><a xlink:title=" ">
<path fill="none" stroke="#63b8ff" d="M626.32,-340.94C631.94,-321.82 645.63,-275.27 653.33,-249.12"/>
<polygon fill="#63b8ff" stroke="#63b8ff" points="656.75,-249.88 656.21,-239.3 650.04,-247.91 656.75,-249.88"/>
</a>
</g>
</g>
</g>
</svg>
