<?xml version="1.0" encoding="UTF-8" standalone="no"?>
<!DOCTYPE svg PUBLIC "-//W3C//DTD SVG 1.1//EN"
 "http://www.w3.org/Graphics/SVG/1.1/DTD/svg11.dtd">
<!-- Generated by graphviz version 2.43.0 (0)
 -->
<!-- Title: src/Components/BillboardComponent.hpp Pages: 1 -->
<svg width="1134pt" height="544pt"
 viewBox="0.00 0.00 1133.88 544.00" xmlns="http://www.w3.org/2000/svg" xmlns:xlink="http://www.w3.org/1999/xlink">
<g id="graph0" class="graph" transform="scale(1 1) rotate(0) translate(4 540)">
<title>src/Components/BillboardComponent.hpp</title>
<!-- Node1 -->
<g id="Node000001" class="node">
<title>Node1</title>
<g id="a_Node000001"><a xlink:title=" ">
<polygon fill="#999999" stroke="#666666" points="812.88,-536 670.88,-536 670.88,-506 812.88,-506 812.88,-536"/>
<text text-anchor="start" x="678.88" y="-524" font-family="Helvetica,sans-Serif" font-size="10.00">src/Components/Billboard</text>
<text text-anchor="middle" x="741.88" y="-513" font-family="Helvetica,sans-Serif" font-size="10.00">Component.hpp</text>
</a>
</g>
</g>
<!-- Node2 -->
<g id="Node000002" class="node">
<title>Node2</title>
<g id="a_Node000002"><a xlink:title=" ">
<polygon fill="#e0e0e0" stroke="#999999" points="272.88,-470 212.88,-470 212.88,-451 272.88,-451 272.88,-470"/>
<text text-anchor="middle" x="242.88" y="-458" font-family="Helvetica,sans-Serif" font-size="10.00">iostream</text>
</a>
</g>
</g>
<!-- Node1&#45;&gt;Node2 -->
<g id="edge1_Node000001_Node000002" class="edge">
<title>Node1&#45;&gt;Node2</title>
<g id="a_edge1_Node000001_Node000002"><a xlink:title=" ">
<path fill="none" stroke="#63b8ff" d="M670.64,-514.62C582.08,-507.4 426.17,-492.97 283.31,-470.07"/>
<polygon fill="#63b8ff" stroke="#63b8ff" points="283.48,-466.55 273.05,-468.41 282.36,-473.46 283.48,-466.55"/>
</a>
</g>
</g>
<!-- Node3 -->
<g id="Node000003" class="node">
<title>Node3</title>
<g id="a_Node000003"><a xlink:title=" ">
<polygon fill="#e0e0e0" stroke="#999999" points="1109.88,-129 1065.88,-129 1065.88,-110 1109.88,-110 1109.88,-129"/>
<text text-anchor="middle" x="1087.88" y="-117" font-family="Helvetica,sans-Serif" font-size="10.00">string</text>
</a>
</g>
</g>
<!-- Node1&#45;&gt;Node3 -->
<g id="edge2_Node000001_Node000003" class="edge">
<title>Node1&#45;&gt;Node3</title>
<g id="a_edge2_Node000001_Node000003"><a xlink:title=" ">
<path fill="none" stroke="#63b8ff" d="M813.2,-513.59C924.25,-501.61 1125.88,-470.98 1125.88,-406.5 1125.88,-406.5 1125.88,-406.5 1125.88,-228.5 1125.88,-195.02 1109.42,-158.84 1098.17,-138.01"/>
<polygon fill="#63b8ff" stroke="#63b8ff" points="1101.11,-136.1 1093.16,-129.1 1095.01,-139.53 1101.11,-136.1"/>
</a>
</g>
</g>
<!-- Node4 -->
<g id="Node000004" class="node">
<title>Node4</title>
<g id="a_Node000004"><a xlink:title=" ">
<polygon fill="#e0e0e0" stroke="#999999" points="909.88,-299.5 831.88,-299.5 831.88,-280.5 909.88,-280.5 909.88,-299.5"/>
<text text-anchor="middle" x="870.88" y="-287.5" font-family="Helvetica,sans-Serif" font-size="10.00">glm/glm.hpp</text>
</a>
</g>
</g>
<!-- Node1&#45;&gt;Node4 -->
<g id="edge3_Node000001_Node000004" class="edge">
<title>Node1&#45;&gt;Node4</title>
<g id="a_edge3_Node000001_Node000004"><a xlink:title=" ">
<path fill="none" stroke="#63b8ff" d="M812.92,-518.49C864.82,-514.46 935.06,-502.67 987.88,-470 1014.26,-453.68 1020.77,-444.34 1030.88,-415 1051.08,-356.35 967.36,-319.63 913.42,-302.48"/>
<polygon fill="#63b8ff" stroke="#63b8ff" points="914.31,-299.09 903.72,-299.5 912.25,-305.78 914.31,-299.09"/>
</a>
</g>
</g>
<!-- Node5 -->
<g id="Node000005" class="node">
<title>Node5</title>
<g id="a_Node000005"><a xlink:title=" ">
<polygon fill="#e0e0e0" stroke="#999999" points="823.38,-470 660.38,-470 660.38,-451 823.38,-451 823.38,-470"/>
<text text-anchor="middle" x="741.88" y="-458" font-family="Helvetica,sans-Serif" font-size="10.00">glm/gtc/matrix_transform.hpp</text>
</a>
</g>
</g>
<!-- Node1&#45;&gt;Node5 -->
<g id="edge4_Node000001_Node000005" class="edge">
<title>Node1&#45;&gt;Node5</title>
<g id="a_edge4_Node000001_Node000005"><a xlink:title=" ">
<path fill="none" stroke="#63b8ff" d="M741.88,-505.84C741.88,-498.21 741.88,-488.7 741.88,-480.45"/>
<polygon fill="#63b8ff" stroke="#63b8ff" points="745.38,-480.27 741.88,-470.27 738.38,-480.27 745.38,-480.27"/>
</a>
</g>
</g>
<!-- Node6 -->
<g id="Node000006" class="node">
<title>Node6</title>
<g id="a_Node000006"><a xlink:href="_material_8hpp.html" target="_top" xlink:title=" ">
<polygon fill="white" stroke="#666666" points="642.38,-470 491.38,-470 491.38,-451 642.38,-451 642.38,-470"/>
<text text-anchor="middle" x="566.88" y="-458" font-family="Helvetica,sans-Serif" font-size="10.00">AssetManager/Material.hpp</text>
</a>
</g>
</g>
<!-- Node1&#45;&gt;Node6 -->
<g id="edge5_Node000001_Node000006" class="edge">
<title>Node1&#45;&gt;Node6</title>
<g id="a_edge5_Node000001_Node000006"><a xlink:title=" ">
<path fill="none" stroke="#63b8ff" d="M699.96,-505.99C670.15,-496.02 630.55,-482.78 602.31,-473.35"/>
<polygon fill="#63b8ff" stroke="#63b8ff" points="603.06,-469.9 592.46,-470.05 600.84,-476.54 603.06,-469.9"/>
</a>
</g>
</g>
<!-- Node32 -->
<g id="Node000032" class="node">
<title>Node32</title>
<g id="a_Node000032"><a xlink:href="_mesh_8hpp.html" target="_top" xlink:title=" ">
<polygon fill="white" stroke="#666666" points="978.38,-470 841.38,-470 841.38,-451 978.38,-451 978.38,-470"/>
<text text-anchor="middle" x="909.88" y="-458" font-family="Helvetica,sans-Serif" font-size="10.00">AssetManager/Mesh.hpp</text>
</a>
</g>
</g>
<!-- Node1&#45;&gt;Node32 -->
<g id="edge44_Node000001_Node000032" class="edge">
<title>Node1&#45;&gt;Node32</title>
<g id="a_edge44_Node000001_Node000032"><a xlink:title=" ">
<path fill="none" stroke="#63b8ff" d="M782.12,-505.99C810.65,-496.05 848.52,-482.86 875.61,-473.43"/>
<polygon fill="#63b8ff" stroke="#63b8ff" points="876.77,-476.73 885.07,-470.14 874.47,-470.12 876.77,-476.73"/>
</a>
</g>
</g>
<!-- Node36 -->
<g id="Node000036" class="node">
<title>Node36</title>
<g id="a_Node000036"><a xlink:href="_base_component_8hpp.html" target="_top" xlink:title=" ">
<polygon fill="white" stroke="#666666" points="472.88,-470 290.88,-470 290.88,-451 472.88,-451 472.88,-470"/>
<text text-anchor="middle" x="381.88" y="-458" font-family="Helvetica,sans-Serif" font-size="10.00">Components/BaseComponent.hpp</text>
</a>
</g>
</g>
<!-- Node1&#45;&gt;Node36 -->
<g id="edge54_Node000001_Node000036" class="edge">
<title>Node1&#45;&gt;Node36</title>
<g id="a_edge54_Node000001_Node000036"><a xlink:title=" ">
<path fill="none" stroke="#63b8ff" d="M670.75,-508.44C604.75,-497.72 507.48,-481.91 444.39,-471.66"/>
<polygon fill="#63b8ff" stroke="#63b8ff" points="444.62,-468.15 434.19,-470 443.5,-475.06 444.62,-468.15"/>
</a>
</g>
</g>
<!-- Node6&#45;&gt;Node4 -->
<g id="edge43_Node000006_Node000004" class="edge">
<title>Node6&#45;&gt;Node4</title>
<g id="a_edge43_Node000006_Node000004"><a xlink:title=" ">
<path fill="none" stroke="#63b8ff" d="M603.35,-450.97C631.48,-443.59 670.86,-431.51 702.88,-415 762.99,-384 824.72,-332.32 853.78,-306.57"/>
<polygon fill="#63b8ff" stroke="#63b8ff" points="856.28,-309.03 861.39,-299.75 851.61,-303.81 856.28,-309.03"/>
</a>
</g>
</g>
<!-- Node7 -->
<g id="Node000007" class="node">
<title>Node7</title>
<g id="a_Node000007"><a xlink:href="_asset_8hpp.html" target="_top" xlink:title=" ">
<polygon fill="white" stroke="#666666" points="315.38,-299.5 178.38,-299.5 178.38,-280.5 315.38,-280.5 315.38,-299.5"/>
<text text-anchor="middle" x="246.88" y="-287.5" font-family="Helvetica,sans-Serif" font-size="10.00">AssetManager/Asset.hpp</text>
</a>
</g>
</g>
<!-- Node6&#45;&gt;Node7 -->
<g id="edge6_Node000006_Node000007" class="edge">
<title>Node6&#45;&gt;Node7</title>
<g id="a_edge6_Node000006_Node000007"><a xlink:title=" ">
<path fill="none" stroke="#63b8ff" d="M498.1,-450.96C434.68,-439.85 341.32,-414.9 279.88,-360 265.05,-346.76 256.28,-325.41 251.55,-309.97"/>
<polygon fill="#63b8ff" stroke="#63b8ff" points="254.83,-308.67 248.8,-299.96 248.08,-310.54 254.83,-308.67"/>
</a>
</g>
</g>
<!-- Node22 -->
<g id="Node000022" class="node">
<title>Node22</title>
<g id="a_Node000022"><a xlink:href="_texture_8hpp.html" target="_top" xlink:title=" ">
<polygon fill="white" stroke="#666666" points="693.88,-415 547.88,-415 547.88,-396 693.88,-396 693.88,-415"/>
<text text-anchor="middle" x="620.88" y="-403" font-family="Helvetica,sans-Serif" font-size="10.00">AssetManager/Texture.hpp</text>
</a>
</g>
</g>
<!-- Node6&#45;&gt;Node22 -->
<g id="edge27_Node000006_Node000022" class="edge">
<title>Node6&#45;&gt;Node22</title>
<g id="a_edge27_Node000006_Node000022"><a xlink:title=" ">
<path fill="none" stroke="#63b8ff" d="M575.79,-450.75C583.66,-443.03 595.31,-431.6 604.79,-422.28"/>
<polygon fill="#63b8ff" stroke="#63b8ff" points="607.44,-424.59 612.12,-415.09 602.54,-419.6 607.44,-424.59"/>
</a>
</g>
</g>
<!-- Node26 -->
<g id="Node000026" class="node">
<title>Node26</title>
<g id="a_Node000026"><a xlink:href="_instance_counter_8hpp.html" target="_top" xlink:title=" ">
<polygon fill="white" stroke="#666666" points="764.88,-239 600.88,-239 600.88,-220 764.88,-220 764.88,-239"/>
<text text-anchor="middle" x="682.88" y="-227" font-family="Helvetica,sans-Serif" font-size="10.00">Common/InstanceCounter.hpp</text>
</a>
</g>
</g>
<!-- Node6&#45;&gt;Node26 -->
<g id="edge42_Node000006_Node000026" class="edge">
<title>Node6&#45;&gt;Node26</title>
<g id="a_edge42_Node000006_Node000026"><a xlink:title=" ">
<path fill="none" stroke="#63b8ff" d="M558.38,-450.93C547.41,-438.77 530.67,-415.81 538.88,-396 547.53,-375.09 559.61,-376.71 574.88,-360 610.57,-320.92 649.72,-272.45 669.63,-247.34"/>
<polygon fill="#63b8ff" stroke="#63b8ff" points="672.61,-249.23 676.06,-239.21 667.11,-244.89 672.61,-249.23"/>
</a>
</g>
</g>
<!-- Node8 -->
<g id="Node000008" class="node">
<title>Node8</title>
<g id="a_Node000008"><a xlink:href="_registry_8hpp.html" target="_top" xlink:title=" ">
<polygon fill="white" stroke="#666666" points="293.88,-239 195.88,-239 195.88,-220 293.88,-220 293.88,-239"/>
<text text-anchor="middle" x="244.88" y="-227" font-family="Helvetica,sans-Serif" font-size="10.00">ECS/Registry.hpp</text>
</a>
</g>
</g>
<!-- Node7&#45;&gt;Node8 -->
<g id="edge7_Node000007_Node000008" class="edge">
<title>Node7&#45;&gt;Node8</title>
<g id="a_edge7_Node000007_Node000008"><a xlink:title=" ">
<path fill="none" stroke="#63b8ff" d="M246.58,-280.37C246.3,-272.25 245.88,-259.81 245.52,-249.39"/>
<polygon fill="#63b8ff" stroke="#63b8ff" points="249.01,-249.04 245.17,-239.17 242.02,-249.28 249.01,-249.04"/>
</a>
</g>
</g>
<!-- Node21 -->
<g id="Node000021" class="node">
<title>Node21</title>
<g id="a_Node000021"><a xlink:title=" ">
<polygon fill="#e0e0e0" stroke="#999999" points="397.88,-239 329.88,-239 329.88,-220 397.88,-220 397.88,-239"/>
<text text-anchor="middle" x="363.88" y="-227" font-family="Helvetica,sans-Serif" font-size="10.00">filesystem</text>
</a>
</g>
</g>
<!-- Node7&#45;&gt;Node21 -->
<g id="edge26_Node000007_Node000021" class="edge">
<title>Node7&#45;&gt;Node21</title>
<g id="a_edge26_Node000007_Node000021"><a xlink:title=" ">
<path fill="none" stroke="#63b8ff" d="M263.89,-280.49C283.3,-270.79 315.26,-254.81 337.82,-243.53"/>
<polygon fill="#63b8ff" stroke="#63b8ff" points="339.46,-246.62 346.84,-239.02 336.33,-240.36 339.46,-246.62"/>
</a>
</g>
</g>
<!-- Node9 -->
<g id="Node000009" class="node">
<title>Node9</title>
<g id="a_Node000009"><a xlink:title=" ">
<polygon fill="#e0e0e0" stroke="#999999" points="255.88,-129 169.88,-129 169.88,-110 255.88,-110 255.88,-129"/>
<text text-anchor="middle" x="212.88" y="-117" font-family="Helvetica,sans-Serif" font-size="10.00">unordered_set</text>
</a>
</g>
</g>
<!-- Node8&#45;&gt;Node9 -->
<g id="edge8_Node000008_Node000009" class="edge">
<title>Node8&#45;&gt;Node9</title>
<g id="a_edge8_Node000008_Node000009"><a xlink:title=" ">
<path fill="none" stroke="#63b8ff" d="M237.65,-219.96C230.93,-211.46 221.31,-197.72 216.88,-184 212.2,-169.53 211.4,-152.26 211.65,-139.38"/>
<polygon fill="#63b8ff" stroke="#63b8ff" points="215.15,-139.52 212.08,-129.38 208.16,-139.22 215.15,-139.52"/>
</a>
</g>
</g>
<!-- Node10 -->
<g id="Node000010" class="node">
<title>Node10</title>
<g id="a_Node000010"><a xlink:href="_logger_8hpp.html" target="_top" xlink:title=" ">
<polygon fill="white" stroke="#666666" points="674.38,-184 557.38,-184 557.38,-165 674.38,-165 674.38,-184"/>
<text text-anchor="middle" x="615.88" y="-172" font-family="Helvetica,sans-Serif" font-size="10.00">Common/Logger.hpp</text>
</a>
</g>
</g>
<!-- Node8&#45;&gt;Node10 -->
<g id="edge9_Node000008_Node000010" class="edge">
<title>Node8&#45;&gt;Node10</title>
<g id="a_edge9_Node000008_Node000010"><a xlink:title=" ">
<path fill="none" stroke="#63b8ff" d="M294.14,-221.46C359.09,-212.18 473.69,-195.81 547.14,-185.32"/>
<polygon fill="#63b8ff" stroke="#63b8ff" points="547.82,-188.76 557.22,-183.88 546.83,-181.83 547.82,-188.76"/>
</a>
</g>
</g>
<!-- Node13 -->
<g id="Node000013" class="node">
<title>Node13</title>
<g id="a_Node000013"><a xlink:href="_entity_8hpp.html" target="_top" xlink:title=" ">
<polygon fill="white" stroke="#666666" points="165.88,-74 79.88,-74 79.88,-55 165.88,-55 165.88,-74"/>
<text text-anchor="middle" x="122.88" y="-62" font-family="Helvetica,sans-Serif" font-size="10.00">ECS/Entity.hpp</text>
</a>
</g>
</g>
<!-- Node8&#45;&gt;Node13 -->
<g id="edge12_Node000008_Node000013" class="edge">
<title>Node8&#45;&gt;Node13</title>
<g id="a_edge12_Node000008_Node000013"><a xlink:title=" ">
<path fill="none" stroke="#63b8ff" d="M195.87,-226.11C135.27,-222.01 37.36,-211.25 14.88,-184 -6.06,-158.63 -3.42,-137.33 14.88,-110 27.34,-91.38 49.17,-80.54 69.95,-74.24"/>
<polygon fill="#63b8ff" stroke="#63b8ff" points="70.98,-77.59 79.71,-71.57 69.14,-70.83 70.98,-77.59"/>
</a>
</g>
</g>
<!-- Node15 -->
<g id="Node000015" class="node">
<title>Node15</title>
<g id="a_Node000015"><a xlink:href="_entity_hierarchy_8hpp.html" target="_top" xlink:title=" ">
<polygon fill="white" stroke="#666666" points="359.88,-184 225.88,-184 225.88,-165 359.88,-165 359.88,-184"/>
<text text-anchor="middle" x="292.88" y="-172" font-family="Helvetica,sans-Serif" font-size="10.00">ECS/EntityHierarchy.hpp</text>
</a>
</g>
</g>
<!-- Node8&#45;&gt;Node15 -->
<g id="edge14_Node000008_Node000015" class="edge">
<title>Node8&#45;&gt;Node15</title>
<g id="a_edge14_Node000008_Node000015"><a xlink:title=" ">
<path fill="none" stroke="#63b8ff" d="M252.8,-219.75C259.72,-212.11 269.94,-200.82 278.33,-191.56"/>
<polygon fill="#63b8ff" stroke="#63b8ff" points="280.98,-193.85 285.1,-184.09 275.79,-189.15 280.98,-193.85"/>
</a>
</g>
</g>
<!-- Node18 -->
<g id="Node000018" class="node">
<title>Node18</title>
<g id="a_Node000018"><a xlink:href="_entity_provider_8hpp.html" target="_top" xlink:title="Manages a pool of unused entity identifiers and provides mechanisms for requesting and removing them.">
<polygon fill="white" stroke="#666666" points="151.88,-129 23.88,-129 23.88,-110 151.88,-110 151.88,-129"/>
<text text-anchor="middle" x="87.88" y="-117" font-family="Helvetica,sans-Serif" font-size="10.00">ECS/EntityProvider.hpp</text>
</a>
</g>
</g>
<!-- Node8&#45;&gt;Node18 -->
<g id="edge19_Node000008_Node000018" class="edge">
<title>Node8&#45;&gt;Node18</title>
<g id="a_edge19_Node000008_Node000018"><a xlink:title=" ">
<path fill="none" stroke="#63b8ff" d="M232.29,-219.84C205.42,-201.36 142.19,-157.86 109.02,-135.05"/>
<polygon fill="#63b8ff" stroke="#63b8ff" points="110.74,-131.98 100.52,-129.2 106.77,-137.75 110.74,-131.98"/>
</a>
</g>
</g>
<!-- Node19 -->
<g id="Node000019" class="node">
<title>Node19</title>
<g id="a_Node000019"><a xlink:href="_singleton_component_8hpp.html" target="_top" xlink:title=" ">
<polygon fill="white" stroke="#666666" points="539.38,-184 378.38,-184 378.38,-165 539.38,-165 539.38,-184"/>
<text text-anchor="middle" x="458.88" y="-172" font-family="Helvetica,sans-Serif" font-size="10.00">ECS/SingletonComponent.hpp</text>
</a>
</g>
</g>
<!-- Node8&#45;&gt;Node19 -->
<g id="edge23_Node000008_Node000019" class="edge">
<title>Node8&#45;&gt;Node19</title>
<g id="a_edge23_Node000008_Node000019"><a xlink:title=" ">
<path fill="none" stroke="#63b8ff" d="M279.26,-219.98C315.96,-210.89 374.26,-196.46 414.43,-186.51"/>
<polygon fill="#63b8ff" stroke="#63b8ff" points="415.36,-189.88 424.22,-184.08 413.67,-183.09 415.36,-189.88"/>
</a>
</g>
</g>
<!-- Node20 -->
<g id="Node000020" class="node">
<title>Node20</title>
<g id="a_Node000020"><a xlink:href="_sparse_set_8hpp.html" target="_top" xlink:title=" ">
<polygon fill="white" stroke="#666666" points="131.88,-184 23.88,-184 23.88,-165 131.88,-165 131.88,-184"/>
<text text-anchor="middle" x="77.88" y="-172" font-family="Helvetica,sans-Serif" font-size="10.00">ECS/SparseSet.hpp</text>
</a>
</g>
</g>
<!-- Node8&#45;&gt;Node20 -->
<g id="edge24_Node000008_Node000020" class="edge">
<title>Node8&#45;&gt;Node20</title>
<g id="a_edge24_Node000008_Node000020"><a xlink:title=" ">
<path fill="none" stroke="#63b8ff" d="M218.04,-219.98C190.01,-211.09 145.83,-197.07 114.57,-187.15"/>
<polygon fill="#63b8ff" stroke="#63b8ff" points="115.51,-183.77 104.92,-184.08 113.39,-190.44 115.51,-183.77"/>
</a>
</g>
</g>
<!-- Node11 -->
<g id="Node000011" class="node">
<title>Node11</title>
<g id="a_Node000011"><a xlink:title=" ">
<polygon fill="#e0e0e0" stroke="#999999" points="642.88,-129 594.88,-129 594.88,-110 642.88,-110 642.88,-129"/>
<text text-anchor="middle" x="618.88" y="-117" font-family="Helvetica,sans-Serif" font-size="10.00">mutex</text>
</a>
</g>
</g>
<!-- Node10&#45;&gt;Node11 -->
<g id="edge10_Node000010_Node000011" class="edge">
<title>Node10&#45;&gt;Node11</title>
<g id="a_edge10_Node000010_Node000011"><a xlink:title=" ">
<path fill="none" stroke="#63b8ff" d="M616.37,-164.75C616.76,-157.8 617.33,-147.85 617.82,-139.13"/>
<polygon fill="#63b8ff" stroke="#63b8ff" points="621.32,-139.27 618.39,-129.09 614.33,-138.88 621.32,-139.27"/>
</a>
</g>
</g>
<!-- Node12 -->
<g id="Node000012" class="node">
<title>Node12</title>
<g id="a_Node000012"><a xlink:title=" ">
<polygon fill="#e0e0e0" stroke="#999999" points="415.38,-74 368.38,-74 368.38,-55 415.38,-55 415.38,-74"/>
<text text-anchor="middle" x="391.88" y="-62" font-family="Helvetica,sans-Serif" font-size="10.00">queue</text>
</a>
</g>
</g>
<!-- Node10&#45;&gt;Node12 -->
<g id="edge11_Node000010_Node000012" class="edge">
<title>Node10&#45;&gt;Node12</title>
<g id="a_edge11_Node000010_Node000012"><a xlink:title=" ">
<path fill="none" stroke="#63b8ff" d="M600.84,-164.81C578.65,-152.11 535.66,-128.05 497.88,-110 473.31,-98.27 444.83,-86.4 423.58,-77.88"/>
<polygon fill="#63b8ff" stroke="#63b8ff" points="424.66,-74.54 414.07,-74.1 422.07,-81.05 424.66,-74.54"/>
</a>
</g>
</g>
<!-- Node14 -->
<g id="Node000014" class="node">
<title>Node14</title>
<g id="a_Node000014"><a xlink:title=" ">
<polygon fill="#e0e0e0" stroke="#999999" points="113.38,-19 60.38,-19 60.38,0 113.38,0 113.38,-19"/>
<text text-anchor="middle" x="86.88" y="-7" font-family="Helvetica,sans-Serif" font-size="10.00">stdlib.h</text>
</a>
</g>
</g>
<!-- Node13&#45;&gt;Node14 -->
<g id="edge13_Node000013_Node000014" class="edge">
<title>Node13&#45;&gt;Node14</title>
<g id="a_edge13_Node000013_Node000014"><a xlink:title=" ">
<path fill="none" stroke="#63b8ff" d="M116.93,-54.75C111.9,-47.34 104.54,-36.5 98.36,-27.41"/>
<polygon fill="#63b8ff" stroke="#63b8ff" points="101.22,-25.39 92.71,-19.09 95.43,-29.33 101.22,-25.39"/>
</a>
</g>
</g>
<!-- Node15&#45;&gt;Node9 -->
<g id="edge17_Node000015_Node000009" class="edge">
<title>Node15&#45;&gt;Node9</title>
<g id="a_edge17_Node000015_Node000009"><a xlink:title=" ">
<path fill="none" stroke="#63b8ff" d="M280.02,-164.98C267.73,-156.84 248.97,-144.41 234.4,-134.76"/>
<polygon fill="#63b8ff" stroke="#63b8ff" points="236.23,-131.78 225.96,-129.17 232.37,-137.61 236.23,-131.78"/>
</a>
</g>
</g>
<!-- Node15&#45;&gt;Node13 -->
<g id="edge18_Node000015_Node000013" class="edge">
<title>Node15&#45;&gt;Node13</title>
<g id="a_edge18_Node000015_Node000013"><a xlink:title=" ">
<path fill="none" stroke="#63b8ff" d="M291.4,-164.76C288.64,-151.12 281.4,-124.78 264.88,-110 240.41,-88.13 205.27,-77 176.06,-71.35"/>
<polygon fill="#63b8ff" stroke="#63b8ff" points="176.46,-67.86 166,-69.57 175.24,-74.76 176.46,-67.86"/>
</a>
</g>
</g>
<!-- Node16 -->
<g id="Node000016" class="node">
<title>Node16</title>
<g id="a_Node000016"><a xlink:title=" ">
<polygon fill="#e0e0e0" stroke="#999999" points="488.38,-129 423.38,-129 423.38,-110 488.38,-110 488.38,-129"/>
<text text-anchor="middle" x="455.88" y="-117" font-family="Helvetica,sans-Serif" font-size="10.00">functional</text>
</a>
</g>
</g>
<!-- Node15&#45;&gt;Node16 -->
<g id="edge15_Node000015_Node000016" class="edge">
<title>Node15&#45;&gt;Node16</title>
<g id="a_edge15_Node000015_Node000016"><a xlink:title=" ">
<path fill="none" stroke="#63b8ff" d="M319.06,-164.98C346.31,-156.13 389.18,-142.19 419.66,-132.28"/>
<polygon fill="#63b8ff" stroke="#63b8ff" points="421.05,-135.5 429.48,-129.08 418.89,-128.85 421.05,-135.5"/>
</a>
</g>
</g>
<!-- Node17 -->
<g id="Node000017" class="node">
<title>Node17</title>
<g id="a_Node000017"><a xlink:title=" ">
<polygon fill="#e0e0e0" stroke="#999999" points="405.38,-129 312.38,-129 312.38,-110 405.38,-110 405.38,-129"/>
<text text-anchor="middle" x="358.88" y="-117" font-family="Helvetica,sans-Serif" font-size="10.00">unordered_map</text>
</a>
</g>
</g>
<!-- Node15&#45;&gt;Node17 -->
<g id="edge16_Node000015_Node000017" class="edge">
<title>Node15&#45;&gt;Node17</title>
<g id="a_edge16_Node000015_Node000017"><a xlink:title=" ">
<path fill="none" stroke="#63b8ff" d="M303.48,-164.98C313.33,-157.07 328.23,-145.11 340.09,-135.58"/>
<polygon fill="#63b8ff" stroke="#63b8ff" points="342.47,-138.16 348.08,-129.17 338.09,-132.7 342.47,-138.16"/>
</a>
</g>
</g>
<!-- Node18&#45;&gt;Node12 -->
<g id="edge21_Node000018_Node000012" class="edge">
<title>Node18&#45;&gt;Node12</title>
<g id="a_edge21_Node000018_Node000012"><a xlink:title=" ">
<path fill="none" stroke="#63b8ff" d="M136.72,-109.98C198.71,-99.18 304.06,-80.81 357.94,-71.42"/>
<polygon fill="#63b8ff" stroke="#63b8ff" points="358.75,-74.83 368,-69.66 357.55,-67.93 358.75,-74.83"/>
</a>
</g>
</g>
<!-- Node18&#45;&gt;Node13 -->
<g id="edge22_Node000018_Node000013" class="edge">
<title>Node18&#45;&gt;Node13</title>
<g id="a_edge22_Node000018_Node000013"><a xlink:title=" ">
<path fill="none" stroke="#63b8ff" d="M93.65,-109.75C98.5,-102.42 105.55,-91.73 111.52,-82.7"/>
<polygon fill="#63b8ff" stroke="#63b8ff" points="114.61,-84.36 117.2,-74.09 108.77,-80.5 114.61,-84.36"/>
</a>
</g>
</g>
<!-- Node18&#45;&gt;Node14 -->
<g id="edge20_Node000018_Node000014" class="edge">
<title>Node18&#45;&gt;Node14</title>
<g id="a_edge20_Node000018_Node000014"><a xlink:title=" ">
<path fill="none" stroke="#63b8ff" d="M83.51,-109.91C79.32,-101.14 73.28,-87.01 70.88,-74 68.01,-58.45 72.98,-41.06 78.11,-28.41"/>
<polygon fill="#63b8ff" stroke="#63b8ff" points="81.41,-29.61 82.3,-19.05 75.02,-26.75 81.41,-29.61"/>
</a>
</g>
</g>
<!-- Node20&#45;&gt;Node18 -->
<g id="edge25_Node000020_Node000018" class="edge">
<title>Node20&#45;&gt;Node18</title>
<g id="a_edge25_Node000020_Node000018"><a xlink:title=" ">
<path fill="none" stroke="#63b8ff" d="M79.53,-164.75C80.84,-157.8 82.72,-147.85 84.36,-139.13"/>
<polygon fill="#63b8ff" stroke="#63b8ff" points="87.84,-139.56 86.25,-129.09 80.96,-138.27 87.84,-139.56"/>
</a>
</g>
</g>
<!-- Node22&#45;&gt;Node4 -->
<g id="edge41_Node000022_Node000004" class="edge">
<title>Node22&#45;&gt;Node4</title>
<g id="a_edge41_Node000022_Node000004"><a xlink:title=" ">
<path fill="none" stroke="#63b8ff" d="M622.66,-395.59C625.91,-381.69 634.19,-355.03 651.88,-341 700.55,-302.39 773.46,-292.47 821.58,-290.49"/>
<polygon fill="#63b8ff" stroke="#63b8ff" points="821.87,-293.98 831.76,-290.17 821.65,-286.98 821.87,-293.98"/>
</a>
</g>
</g>
<!-- Node23 -->
<g id="Node000023" class="node">
<title>Node23</title>
<g id="a_Node000023"><a xlink:title=" ">
<polygon fill="#e0e0e0" stroke="#999999" points="731.38,-360 660.38,-360 660.38,-341 731.38,-341 731.38,-360"/>
<text text-anchor="middle" x="695.88" y="-348" font-family="Helvetica,sans-Serif" font-size="10.00">glad/glad.h</text>
</a>
</g>
</g>
<!-- Node22&#45;&gt;Node23 -->
<g id="edge28_Node000022_Node000023" class="edge">
<title>Node22&#45;&gt;Node23</title>
<g id="a_edge28_Node000022_Node000023"><a xlink:title=" ">
<path fill="none" stroke="#63b8ff" d="M632.93,-395.98C644.34,-387.92 661.71,-375.65 675.31,-366.03"/>
<polygon fill="#63b8ff" stroke="#63b8ff" points="677.46,-368.8 683.61,-360.17 673.42,-363.08 677.46,-368.8"/>
</a>
</g>
</g>
<!-- Node24 -->
<g id="Node000024" class="node">
<title>Node24</title>
<g id="a_Node000024"><a xlink:href="_image_8hpp.html" target="_top" xlink:title=" ">
<polygon fill="white" stroke="#666666" points="565.38,-360 424.38,-360 424.38,-341 565.38,-341 565.38,-360"/>
<text text-anchor="middle" x="494.88" y="-348" font-family="Helvetica,sans-Serif" font-size="10.00">AssetManager/Image.hpp</text>
</a>
</g>
</g>
<!-- Node22&#45;&gt;Node24 -->
<g id="edge29_Node000022_Node000024" class="edge">
<title>Node22&#45;&gt;Node24</title>
<g id="a_edge29_Node000022_Node000024"><a xlink:title=" ">
<path fill="none" stroke="#63b8ff" d="M600.63,-395.98C580.18,-387.38 548.34,-373.99 524.94,-364.15"/>
<polygon fill="#63b8ff" stroke="#63b8ff" points="526.06,-360.82 515.49,-360.17 523.35,-367.27 526.06,-360.82"/>
</a>
</g>
</g>
<!-- Node24&#45;&gt;Node21 -->
<g id="edge30_Node000024_Node000021" class="edge">
<title>Node24&#45;&gt;Node21</title>
<g id="a_edge30_Node000024_Node000021"><a xlink:title=" ">
<path fill="none" stroke="#63b8ff" d="M465.52,-340.99C445.58,-333.99 419.69,-322.37 401.88,-305 385.84,-289.37 375.34,-265.53 369.52,-249.05"/>
<polygon fill="#63b8ff" stroke="#63b8ff" points="372.81,-247.85 366.36,-239.44 366.16,-250.04 372.81,-247.85"/>
</a>
</g>
</g>
<!-- Node25 -->
<g id="Node000025" class="node">
<title>Node25</title>
<g id="a_Node000025"><a xlink:href="_path_constructible_asset_8hpp.html" target="_top" xlink:title=" ">
<polygon fill="white" stroke="#666666" points="585.38,-305 410.38,-305 410.38,-275 585.38,-275 585.38,-305"/>
<text text-anchor="start" x="418.38" y="-293" font-family="Helvetica,sans-Serif" font-size="10.00">AssetManager/PathConstructible</text>
<text text-anchor="middle" x="497.88" y="-282" font-family="Helvetica,sans-Serif" font-size="10.00">Asset.hpp</text>
</a>
</g>
</g>
<!-- Node24&#45;&gt;Node25 -->
<g id="edge31_Node000024_Node000025" class="edge">
<title>Node24&#45;&gt;Node25</title>
<g id="a_edge31_Node000024_Node000025"><a xlink:title=" ">
<path fill="none" stroke="#63b8ff" d="M495.32,-340.87C495.66,-334.11 496.16,-324.35 496.63,-315.26"/>
<polygon fill="#63b8ff" stroke="#63b8ff" points="500.13,-315.28 497.15,-305.11 493.14,-314.92 500.13,-315.28"/>
</a>
</g>
</g>
<!-- Node25&#45;&gt;Node21 -->
<g id="edge32_Node000025_Node000021" class="edge">
<title>Node25&#45;&gt;Node21</title>
<g id="a_edge32_Node000025_Node000021"><a xlink:title=" ">
<path fill="none" stroke="#63b8ff" d="M465.78,-274.99C443.62,-265.31 414.4,-252.56 392.93,-243.18"/>
<polygon fill="#63b8ff" stroke="#63b8ff" points="394.23,-239.93 383.66,-239.14 391.43,-246.35 394.23,-239.93"/>
</a>
</g>
</g>
<!-- Node25&#45;&gt;Node26 -->
<g id="edge33_Node000025_Node000026" class="edge">
<title>Node25&#45;&gt;Node26</title>
<g id="a_edge33_Node000025_Node000026"><a xlink:title=" ">
<path fill="none" stroke="#63b8ff" d="M542.19,-274.99C573.98,-264.94 616.3,-251.55 646.2,-242.1"/>
<polygon fill="#63b8ff" stroke="#63b8ff" points="647.35,-245.41 655.83,-239.05 645.24,-238.73 647.35,-245.41"/>
</a>
</g>
</g>
<!-- Node27 -->
<g id="Node000027" class="node">
<title>Node27</title>
<g id="a_Node000027"><a xlink:title=" ">
<polygon fill="#e0e0e0" stroke="#999999" points="879.88,-184 829.88,-184 829.88,-165 879.88,-165 879.88,-184"/>
<text text-anchor="middle" x="854.88" y="-172" font-family="Helvetica,sans-Serif" font-size="10.00">atomic</text>
</a>
</g>
</g>
<!-- Node26&#45;&gt;Node27 -->
<g id="edge34_Node000026_Node000027" class="edge">
<title>Node26&#45;&gt;Node27</title>
<g id="a_edge34_Node000026_Node000027"><a xlink:title=" ">
<path fill="none" stroke="#63b8ff" d="M710.51,-219.98C740.24,-210.82 787.6,-196.23 819.91,-186.27"/>
<polygon fill="#63b8ff" stroke="#63b8ff" points="821.3,-189.51 829.83,-183.22 819.24,-182.82 821.3,-189.51"/>
</a>
</g>
</g>
<!-- Node28 -->
<g id="Node000028" class="node">
<title>Node28</title>
<g id="a_Node000028"><a xlink:href="_profiler_8hpp.html" target="_top" xlink:title=" ">
<polygon fill="white" stroke="#666666" points="811.38,-184 692.38,-184 692.38,-165 811.38,-165 811.38,-184"/>
<text text-anchor="middle" x="751.88" y="-172" font-family="Helvetica,sans-Serif" font-size="10.00">Common/Profiler.hpp</text>
</a>
</g>
</g>
<!-- Node26&#45;&gt;Node28 -->
<g id="edge35_Node000026_Node000028" class="edge">
<title>Node26&#45;&gt;Node28</title>
<g id="a_edge35_Node000026_Node000028"><a xlink:title=" ">
<path fill="none" stroke="#63b8ff" d="M693.96,-219.98C704.36,-212 720.14,-199.88 732.6,-190.31"/>
<polygon fill="#63b8ff" stroke="#63b8ff" points="734.79,-193.04 740.59,-184.17 730.52,-187.49 734.79,-193.04"/>
</a>
</g>
</g>
<!-- Node28&#45;&gt;Node3 -->
<g id="edge39_Node000028_Node000003" class="edge">
<title>Node28&#45;&gt;Node3</title>
<g id="a_edge39_Node000028_Node000003"><a xlink:title=" ">
<path fill="none" stroke="#63b8ff" d="M805.86,-164.98C876.41,-153.86 997.76,-134.71 1055.51,-125.6"/>
<polygon fill="#63b8ff" stroke="#63b8ff" points="1056.2,-129.04 1065.53,-124.02 1055.11,-122.13 1056.2,-129.04"/>
</a>
</g>
</g>
<!-- Node28&#45;&gt;Node11 -->
<g id="edge38_Node000028_Node000011" class="edge">
<title>Node28&#45;&gt;Node11</title>
<g id="a_edge38_Node000028_Node000011"><a xlink:title=" ">
<path fill="none" stroke="#63b8ff" d="M730.51,-164.98C708.73,-156.3 674.71,-142.75 649.95,-132.88"/>
<polygon fill="#63b8ff" stroke="#63b8ff" points="651.22,-129.62 640.63,-129.17 648.63,-136.12 651.22,-129.62"/>
</a>
</g>
</g>
<!-- Node29 -->
<g id="Node000029" class="node">
<title>Node29</title>
<g id="a_Node000029"><a xlink:title=" ">
<polygon fill="#e0e0e0" stroke="#999999" points="714.88,-129 664.88,-129 664.88,-110 714.88,-110 714.88,-129"/>
<text text-anchor="middle" x="689.88" y="-117" font-family="Helvetica,sans-Serif" font-size="10.00">chrono</text>
</a>
</g>
</g>
<!-- Node28&#45;&gt;Node29 -->
<g id="edge36_Node000028_Node000029" class="edge">
<title>Node28&#45;&gt;Node29</title>
<g id="a_edge36_Node000028_Node000029"><a xlink:title=" ">
<path fill="none" stroke="#63b8ff" d="M741.91,-164.98C732.75,-157.15 718.94,-145.34 707.85,-135.86"/>
<polygon fill="#63b8ff" stroke="#63b8ff" points="709.89,-133.01 700.02,-129.17 705.34,-138.33 709.89,-133.01"/>
</a>
</g>
</g>
<!-- Node30 -->
<g id="Node000030" class="node">
<title>Node30</title>
<g id="a_Node000030"><a xlink:title=" ">
<polygon fill="#e0e0e0" stroke="#999999" points="770.88,-129 732.88,-129 732.88,-110 770.88,-110 770.88,-129"/>
<text text-anchor="middle" x="751.88" y="-117" font-family="Helvetica,sans-Serif" font-size="10.00">map</text>
</a>
</g>
</g>
<!-- Node28&#45;&gt;Node30 -->
<g id="edge37_Node000028_Node000030" class="edge">
<title>Node28&#45;&gt;Node30</title>
<g id="a_edge37_Node000028_Node000030"><a xlink:title=" ">
<path fill="none" stroke="#63b8ff" d="M751.88,-164.75C751.88,-157.8 751.88,-147.85 751.88,-139.13"/>
<polygon fill="#63b8ff" stroke="#63b8ff" points="755.38,-139.09 751.88,-129.09 748.38,-139.09 755.38,-139.09"/>
</a>
</g>
</g>
<!-- Node31 -->
<g id="Node000031" class="node">
<title>Node31</title>
<g id="a_Node000031"><a xlink:title=" ">
<polygon fill="#e0e0e0" stroke="#999999" points="836.88,-129 788.88,-129 788.88,-110 836.88,-110 836.88,-129"/>
<text text-anchor="middle" x="812.88" y="-117" font-family="Helvetica,sans-Serif" font-size="10.00">thread</text>
</a>
</g>
</g>
<!-- Node28&#45;&gt;Node31 -->
<g id="edge40_Node000028_Node000031" class="edge">
<title>Node28&#45;&gt;Node31</title>
<g id="a_edge40_Node000028_Node000031"><a xlink:title=" ">
<path fill="none" stroke="#63b8ff" d="M761.68,-164.98C770.69,-157.15 784.28,-145.34 795.19,-135.86"/>
<polygon fill="#63b8ff" stroke="#63b8ff" points="797.64,-138.37 802.9,-129.17 793.05,-133.09 797.64,-138.37"/>
</a>
</g>
</g>
<!-- Node32&#45;&gt;Node3 -->
<g id="edge47_Node000032_Node000003" class="edge">
<title>Node32&#45;&gt;Node3</title>
<g id="a_edge47_Node000032_Node000003"><a xlink:title=" ">
<path fill="none" stroke="#63b8ff" d="M960.88,-450.98C1013.48,-438.93 1087.88,-411.32 1087.88,-351.5 1087.88,-351.5 1087.88,-351.5 1087.88,-228.5 1087.88,-197.19 1087.88,-160.77 1087.88,-139.23"/>
<polygon fill="#63b8ff" stroke="#63b8ff" points="1091.38,-139.18 1087.88,-129.18 1084.38,-139.18 1091.38,-139.18"/>
</a>
</g>
</g>
<!-- Node32&#45;&gt;Node4 -->
<g id="edge46_Node000032_Node000004" class="edge">
<title>Node32&#45;&gt;Node4</title>
<g id="a_edge46_Node000032_Node000004"><a xlink:title=" ">
<path fill="none" stroke="#63b8ff" d="M892.42,-450.88C879.4,-443.38 862.6,-431.18 854.88,-415 838.27,-380.2 852.41,-334 862.63,-308.97"/>
<polygon fill="#63b8ff" stroke="#63b8ff" points="865.91,-310.2 866.66,-299.63 859.48,-307.42 865.91,-310.2"/>
</a>
</g>
</g>
<!-- Node32&#45;&gt;Node23 -->
<g id="edge45_Node000032_Node000023" class="edge">
<title>Node32&#45;&gt;Node23</title>
<g id="a_edge45_Node000032_Node000023"><a xlink:title=" ">
<path fill="none" stroke="#63b8ff" d="M877.76,-450.93C851.65,-443.31 814.29,-430.92 783.88,-415 757.86,-401.38 730.91,-380.81 713.8,-366.8"/>
<polygon fill="#63b8ff" stroke="#63b8ff" points="715.73,-363.86 705.81,-360.14 711.25,-369.23 715.73,-363.86"/>
</a>
</g>
</g>
<!-- Node32&#45;&gt;Node25 -->
<g id="edge49_Node000032_Node000025" class="edge">
<title>Node32&#45;&gt;Node25</title>
<g id="a_edge49_Node000032_Node000025"><a xlink:title=" ">
<path fill="none" stroke="#63b8ff" d="M896.88,-450.7C883.72,-441.78 862.82,-427.52 844.88,-415 798.36,-382.53 792.89,-363.65 740.88,-341 695.07,-321.06 640.89,-308.92 595.32,-301.61"/>
<polygon fill="#63b8ff" stroke="#63b8ff" points="595.86,-298.15 585.44,-300.08 594.79,-305.07 595.86,-298.15"/>
</a>
</g>
</g>
<!-- Node33 -->
<g id="Node000033" class="node">
<title>Node33</title>
<g id="a_Node000033"><a xlink:title=" ">
<polygon fill="#e0e0e0" stroke="#999999" points="1021.38,-415 974.38,-415 974.38,-396 1021.38,-396 1021.38,-415"/>
<text text-anchor="middle" x="997.88" y="-403" font-family="Helvetica,sans-Serif" font-size="10.00">vector</text>
</a>
</g>
</g>
<!-- Node32&#45;&gt;Node33 -->
<g id="edge48_Node000032_Node000033" class="edge">
<title>Node32&#45;&gt;Node33</title>
<g id="a_edge48_Node000032_Node000033"><a xlink:title=" ">
<path fill="none" stroke="#63b8ff" d="M924.01,-450.98C937.66,-442.77 958.56,-430.18 974.65,-420.49"/>
<polygon fill="#63b8ff" stroke="#63b8ff" points="976.72,-423.33 983.48,-415.17 973.11,-417.33 976.72,-423.33"/>
</a>
</g>
</g>
<!-- Node34 -->
<g id="Node000034" class="node">
<title>Node34</title>
<g id="a_Node000034"><a xlink:href="_a_a_b_b_8hpp.html" target="_top" xlink:title=" ">
<polygon fill="white" stroke="#666666" points="955.88,-415 863.88,-415 863.88,-396 955.88,-396 955.88,-415"/>
<text text-anchor="middle" x="909.88" y="-403" font-family="Helvetica,sans-Serif" font-size="10.00">Math/AABB.hpp</text>
</a>
</g>
</g>
<!-- Node32&#45;&gt;Node34 -->
<g id="edge50_Node000032_Node000034" class="edge">
<title>Node32&#45;&gt;Node34</title>
<g id="a_edge50_Node000032_Node000034"><a xlink:title=" ">
<path fill="none" stroke="#63b8ff" d="M909.88,-450.75C909.88,-443.8 909.88,-433.85 909.88,-425.13"/>
<polygon fill="#63b8ff" stroke="#63b8ff" points="913.38,-425.09 909.88,-415.09 906.38,-425.09 913.38,-425.09"/>
</a>
</g>
</g>
<!-- Node34&#45;&gt;Node4 -->
<g id="edge53_Node000034_Node000004" class="edge">
<title>Node34&#45;&gt;Node4</title>
<g id="a_edge53_Node000034_Node000004"><a xlink:title=" ">
<path fill="none" stroke="#63b8ff" d="M924.3,-395.9C942.18,-384.09 968.91,-361.92 956.88,-341 946.7,-323.32 927.61,-311.31 909.99,-303.5"/>
<polygon fill="#63b8ff" stroke="#63b8ff" points="911,-300.13 900.42,-299.59 908.35,-306.61 911,-300.13"/>
</a>
</g>
</g>
<!-- Node35 -->
<g id="Node000035" class="node">
<title>Node35</title>
<g id="a_Node000035"><a xlink:href="_ray_8hpp.html" target="_top" xlink:title=" ">
<polygon fill="white" stroke="#666666" points="947.38,-360 864.38,-360 864.38,-341 947.38,-341 947.38,-360"/>
<text text-anchor="middle" x="905.88" y="-348" font-family="Helvetica,sans-Serif" font-size="10.00">Math/Ray.hpp</text>
</a>
</g>
</g>
<!-- Node34&#45;&gt;Node35 -->
<g id="edge51_Node000034_Node000035" class="edge">
<title>Node34&#45;&gt;Node35</title>
<g id="a_edge51_Node000034_Node000035"><a xlink:title=" ">
<path fill="none" stroke="#63b8ff" d="M909.21,-395.75C908.69,-388.8 907.94,-378.85 907.28,-370.13"/>
<polygon fill="#63b8ff" stroke="#63b8ff" points="910.77,-369.8 906.52,-360.09 903.79,-370.32 910.77,-369.8"/>
</a>
</g>
</g>
<!-- Node35&#45;&gt;Node4 -->
<g id="edge52_Node000035_Node000004" class="edge">
<title>Node35&#45;&gt;Node4</title>
<g id="a_edge52_Node000035_Node000004"><a xlink:title=" ">
<path fill="none" stroke="#63b8ff" d="M900.71,-340.87C895.64,-332.4 887.77,-319.24 881.38,-308.57"/>
<polygon fill="#63b8ff" stroke="#63b8ff" points="884.2,-306.45 876.06,-299.67 878.19,-310.05 884.2,-306.45"/>
</a>
</g>
</g>
<!-- Node37 -->
<g id="Node000037" class="node">
<title>Node37</title>
<g id="a_Node000037"><a xlink:href="_types_8hpp.html" target="_top" xlink:title=" ">
<polygon fill="white" stroke="#666666" points="402.38,-360 289.38,-360 289.38,-341 402.38,-341 402.38,-360"/>
<text text-anchor="middle" x="345.88" y="-348" font-family="Helvetica,sans-Serif" font-size="10.00">Common/Types.hpp</text>
</a>
</g>
</g>
<!-- Node36&#45;&gt;Node37 -->
<g id="edge55_Node000036_Node000037" class="edge">
<title>Node36&#45;&gt;Node37</title>
<g id="a_edge55_Node000036_Node000037"><a xlink:title=" ">
<path fill="none" stroke="#63b8ff" d="M378.93,-450.66C373.07,-433.09 359.86,-393.45 352.03,-369.95"/>
<polygon fill="#63b8ff" stroke="#63b8ff" points="355.24,-368.54 348.76,-360.16 348.6,-370.75 355.24,-368.54"/>
</a>
</g>
</g>
<!-- Node37&#45;&gt;Node21 -->
<g id="edge56_Node000037_Node000021" class="edge">
<title>Node37&#45;&gt;Node21</title>
<g id="a_edge56_Node000037_Node000021"><a xlink:title=" ">
<path fill="none" stroke="#63b8ff" d="M347.17,-340.94C350.05,-321.91 357.04,-275.69 361.01,-249.47"/>
<polygon fill="#63b8ff" stroke="#63b8ff" points="364.51,-249.71 362.54,-239.3 357.59,-248.67 364.51,-249.71"/>
</a>
</g>
</g>
</g>
</svg>
