<?xml version="1.0" encoding="UTF-8" standalone="no"?>
<!DOCTYPE svg PUBLIC "-//W3C//DTD SVG 1.1//EN"
 "http://www.w3.org/Graphics/SVG/1.1/DTD/svg11.dtd">
<!-- Generated by graphviz version 2.43.0 (0)
 -->
<!-- Title: src/Components/BoxColliderComponent.hpp Pages: 1 -->
<svg width="760pt" height="207pt"
 viewBox="0.00 0.00 759.50 207.00" xmlns="http://www.w3.org/2000/svg" xmlns:xlink="http://www.w3.org/1999/xlink">
<g id="graph0" class="graph" transform="scale(1 1) rotate(0) translate(4 203)">
<title>src/Components/BoxColliderComponent.hpp</title>
<polygon fill="white" stroke="transparent" points="-4,4 -4,-203 755.5,-203 755.5,4 -4,4"/>
<!-- Node1 -->
<g id="node1" class="node">
<title>Node1</title>
<g id="a_node1"><a xlink:title=" ">
<polygon fill="#bfbfbf" stroke="black" points="161,-168.5 161,-198.5 316,-198.5 316,-168.5 161,-168.5"/>
<text text-anchor="start" x="169" y="-186.5" font-family="Helvetica,sans-Serif" font-size="10.00">src/Components/BoxCollider</text>
<text text-anchor="middle" x="238.5" y="-175.5" font-family="Helvetica,sans-Serif" font-size="10.00">Component.hpp</text>
</a>
</g>
</g>
<!-- Node2 -->
<g id="node2" class="node">
<title>Node2</title>
<g id="a_node2"><a xlink:title=" ">
<polygon fill="white" stroke="#bfbfbf" points="139.5,-56.5 139.5,-75.5 183.5,-75.5 183.5,-56.5 139.5,-56.5"/>
<text text-anchor="middle" x="161.5" y="-63.5" font-family="Helvetica,sans-Serif" font-size="10.00">string</text>
</a>
</g>
</g>
<!-- Node1&#45;&gt;Node2 -->
<g id="edge1" class="edge">
<title>Node1&#45;&gt;Node2</title>
<path fill="none" stroke="midnightblue" d="M222.74,-168.1C212.9,-158.54 200.44,-145.33 191.5,-132 181.66,-117.34 173.51,-98.94 168.2,-85.46"/>
<polygon fill="midnightblue" stroke="midnightblue" points="171.38,-83.99 164.57,-75.87 164.83,-86.46 171.38,-83.99"/>
</g>
<!-- Node3 -->
<g id="node3" class="node">
<title>Node3</title>
<g id="a_node3"><a xlink:href="_box_8hpp.html" target="_top" xlink:title=" ">
<polygon fill="white" stroke="black" points="60.5,-112.5 60.5,-131.5 144.5,-131.5 144.5,-112.5 60.5,-112.5"/>
<text text-anchor="middle" x="102.5" y="-119.5" font-family="Helvetica,sans-Serif" font-size="10.00">Math/Box.hpp</text>
</a>
</g>
</g>
<!-- Node1&#45;&gt;Node3 -->
<g id="edge2" class="edge">
<title>Node1&#45;&gt;Node3</title>
<path fill="none" stroke="midnightblue" d="M206.27,-168.4C183.66,-158.51 153.66,-145.38 131.74,-135.79"/>
<polygon fill="midnightblue" stroke="midnightblue" points="132.85,-132.46 122.29,-131.66 130.05,-138.87 132.85,-132.46"/>
</g>
<!-- Node6 -->
<g id="node6" class="node">
<title>Node6</title>
<g id="a_node6"><a xlink:href="_base_component_8hpp.html" target="_top" xlink:title=" ">
<polygon fill="white" stroke="black" points="569.5,-56.5 569.5,-75.5 751.5,-75.5 751.5,-56.5 569.5,-56.5"/>
<text text-anchor="middle" x="660.5" y="-63.5" font-family="Helvetica,sans-Serif" font-size="10.00">Components/BaseComponent.hpp</text>
</a>
</g>
</g>
<!-- Node1&#45;&gt;Node6 -->
<g id="edge6" class="edge">
<title>Node1&#45;&gt;Node6</title>
<path fill="none" stroke="midnightblue" d="M289.82,-168.45C374.54,-145.27 541.96,-99.44 619.42,-78.24"/>
<polygon fill="midnightblue" stroke="midnightblue" points="620.57,-81.56 629.29,-75.54 618.72,-74.81 620.57,-81.56"/>
</g>
<!-- Node8 -->
<g id="node8" class="node">
<title>Node8</title>
<g id="a_node8"><a xlink:href="_transform_component_8hpp.html" target="_top" xlink:title=" ">
<polygon fill="white" stroke="black" points="201,-112.5 201,-131.5 408,-131.5 408,-112.5 201,-112.5"/>
<text text-anchor="middle" x="304.5" y="-119.5" font-family="Helvetica,sans-Serif" font-size="10.00">Components/TransformComponent.hpp</text>
</a>
</g>
</g>
<!-- Node1&#45;&gt;Node8 -->
<g id="edge8" class="edge">
<title>Node1&#45;&gt;Node8</title>
<path fill="none" stroke="midnightblue" d="M254.14,-168.4C264.13,-159.4 277.08,-147.72 287.35,-138.47"/>
<polygon fill="midnightblue" stroke="midnightblue" points="289.81,-140.95 294.9,-131.66 285.13,-135.75 289.81,-140.95"/>
</g>
<!-- Node4 -->
<g id="node4" class="node">
<title>Node4</title>
<g id="a_node4"><a xlink:title=" ">
<polygon fill="white" stroke="#bfbfbf" points="72.5,-0.5 72.5,-19.5 150.5,-19.5 150.5,-0.5 72.5,-0.5"/>
<text text-anchor="middle" x="111.5" y="-7.5" font-family="Helvetica,sans-Serif" font-size="10.00">glm/glm.hpp</text>
</a>
</g>
</g>
<!-- Node3&#45;&gt;Node4 -->
<g id="edge3" class="edge">
<title>Node3&#45;&gt;Node4</title>
<path fill="none" stroke="midnightblue" d="M103.21,-112.37C104.66,-94.62 108.01,-53.67 109.98,-29.6"/>
<polygon fill="midnightblue" stroke="midnightblue" points="113.47,-29.84 110.8,-19.59 106.49,-29.27 113.47,-29.84"/>
</g>
<!-- Node5 -->
<g id="node5" class="node">
<title>Node5</title>
<g id="a_node5"><a xlink:href="_ray_8hpp.html" target="_top" xlink:title=" ">
<polygon fill="white" stroke="black" points="0,-56.5 0,-75.5 83,-75.5 83,-56.5 0,-56.5"/>
<text text-anchor="middle" x="41.5" y="-63.5" font-family="Helvetica,sans-Serif" font-size="10.00">Math/Ray.hpp</text>
</a>
</g>
</g>
<!-- Node3&#45;&gt;Node5 -->
<g id="edge4" class="edge">
<title>Node3&#45;&gt;Node5</title>
<path fill="none" stroke="midnightblue" d="M92.7,-112.32C83.68,-104.34 70.09,-92.31 59.18,-82.65"/>
<polygon fill="midnightblue" stroke="midnightblue" points="61.29,-79.84 51.48,-75.83 56.65,-85.08 61.29,-79.84"/>
</g>
<!-- Node5&#45;&gt;Node4 -->
<g id="edge5" class="edge">
<title>Node5&#45;&gt;Node4</title>
<path fill="none" stroke="midnightblue" d="M52.75,-56.32C63.3,-48.18 79.3,-35.84 91.94,-26.09"/>
<polygon fill="midnightblue" stroke="midnightblue" points="94.27,-28.71 100.05,-19.83 89.99,-23.17 94.27,-28.71"/>
</g>
<!-- Node7 -->
<g id="node7" class="node">
<title>Node7</title>
<g id="a_node7"><a xlink:href="_types_8hpp.html" target="_top" xlink:title=" ">
<polygon fill="white" stroke="black" points="604,-0.5 604,-19.5 717,-19.5 717,-0.5 604,-0.5"/>
<text text-anchor="middle" x="660.5" y="-7.5" font-family="Helvetica,sans-Serif" font-size="10.00">Common/Types.hpp</text>
</a>
</g>
</g>
<!-- Node6&#45;&gt;Node7 -->
<g id="edge7" class="edge">
<title>Node6&#45;&gt;Node7</title>
<path fill="none" stroke="midnightblue" d="M660.5,-56.08C660.5,-49.01 660.5,-38.86 660.5,-29.99"/>
<polygon fill="midnightblue" stroke="midnightblue" points="664,-29.75 660.5,-19.75 657,-29.75 664,-29.75"/>
</g>
<!-- Node8&#45;&gt;Node2 -->
<g id="edge9" class="edge">
<title>Node8&#45;&gt;Node2</title>
<path fill="none" stroke="midnightblue" d="M281.84,-112.44C257.96,-103.42 220.15,-89.15 193.29,-79"/>
<polygon fill="midnightblue" stroke="midnightblue" points="194.17,-75.6 183.58,-75.34 191.7,-82.15 194.17,-75.6"/>
</g>
<!-- Node8&#45;&gt;Node4 -->
<g id="edge10" class="edge">
<title>Node8&#45;&gt;Node4</title>
<path fill="none" stroke="midnightblue" d="M290.05,-112.5C268.76,-100 227.69,-75.98 192.5,-56 173.56,-45.24 151.99,-33.27 135.87,-24.39"/>
<polygon fill="midnightblue" stroke="midnightblue" points="137.52,-21.3 127.08,-19.54 134.15,-27.43 137.52,-21.3"/>
</g>
<!-- Node8&#45;&gt;Node6 -->
<g id="edge13" class="edge">
<title>Node8&#45;&gt;Node6</title>
<path fill="none" stroke="midnightblue" d="M360.91,-112.44C424.31,-102.83 527.15,-87.23 594.3,-77.04"/>
<polygon fill="midnightblue" stroke="midnightblue" points="594.99,-80.48 604.35,-75.52 593.94,-73.56 594.99,-80.48"/>
</g>
<!-- Node9 -->
<g id="node9" class="node">
<title>Node9</title>
<g id="a_node9"><a xlink:title=" ">
<polygon fill="white" stroke="#bfbfbf" points="239.5,-56.5 239.5,-75.5 369.5,-75.5 369.5,-56.5 239.5,-56.5"/>
<text text-anchor="middle" x="304.5" y="-63.5" font-family="Helvetica,sans-Serif" font-size="10.00">glm/gtc/quaternion.hpp</text>
</a>
</g>
</g>
<!-- Node8&#45;&gt;Node9 -->
<g id="edge11" class="edge">
<title>Node8&#45;&gt;Node9</title>
<path fill="none" stroke="midnightblue" d="M304.5,-112.08C304.5,-105.01 304.5,-94.86 304.5,-85.99"/>
<polygon fill="midnightblue" stroke="midnightblue" points="308,-85.75 304.5,-75.75 301,-85.75 308,-85.75"/>
</g>
<!-- Node10 -->
<g id="node10" class="node">
<title>Node10</title>
<g id="a_node10"><a xlink:title=" ">
<polygon fill="white" stroke="#bfbfbf" points="388,-56.5 388,-75.5 551,-75.5 551,-56.5 388,-56.5"/>
<text text-anchor="middle" x="469.5" y="-63.5" font-family="Helvetica,sans-Serif" font-size="10.00">glm/gtc/matrix_transform.hpp</text>
</a>
</g>
</g>
<!-- Node8&#45;&gt;Node10 -->
<g id="edge12" class="edge">
<title>Node8&#45;&gt;Node10</title>
<path fill="none" stroke="midnightblue" d="M330.64,-112.44C358.52,-103.32 402.85,-88.81 433.9,-78.65"/>
<polygon fill="midnightblue" stroke="midnightblue" points="435.06,-81.95 443.48,-75.52 432.88,-75.3 435.06,-81.95"/>
</g>
</g>
</svg>
