<?xml version="1.0" encoding="UTF-8" standalone="no"?>
<!DOCTYPE svg PUBLIC "-//W3C//DTD SVG 1.1//EN"
 "http://www.w3.org/Graphics/SVG/1.1/DTD/svg11.dtd">
<!-- Generated by graphviz version 2.43.0 (0)
 -->
<!-- Title: src/Components/CameraComponent.hpp Pages: 1 -->
<svg width="1905pt" height="269pt"
 viewBox="0.00 0.00 1904.50 269.00" xmlns="http://www.w3.org/2000/svg" xmlns:xlink="http://www.w3.org/1999/xlink">
<g id="graph0" class="graph" transform="scale(1 1) rotate(0) translate(4 265)">
<title>src/Components/CameraComponent.hpp</title>
<!-- Node1 -->
<g id="Node000001" class="node">
<title>Node1</title>
<g id="a_Node000001"><a xlink:title=" ">
<polygon fill="#999999" stroke="#666666" points="1369,-261 1155,-261 1155,-242 1369,-242 1369,-261"/>
<text text-anchor="middle" x="1262" y="-249" font-family="Helvetica,sans-Serif" font-size="10.00">src/Components/CameraComponent.hpp</text>
</a>
</g>
</g>
<!-- Node2 -->
<g id="Node000002" class="node">
<title>Node2</title>
<g id="a_Node000002"><a xlink:href="_directional_light_component_8hpp.html" target="_top" xlink:title=" ">
<polygon fill="white" stroke="#666666" points="550,-206 398,-206 398,-176 550,-176 550,-206"/>
<text text-anchor="start" x="406" y="-194" font-family="Helvetica,sans-Serif" font-size="10.00">src/Components/Directional</text>
<text text-anchor="middle" x="474" y="-183" font-family="Helvetica,sans-Serif" font-size="10.00">LightComponent.hpp</text>
</a>
</g>
</g>
<!-- Node1&#45;&gt;Node2 -->
<g id="edge1_Node000001_Node000002" class="edge">
<title>Node1&#45;&gt;Node2</title>
<g id="a_edge1_Node000001_Node000002"><a xlink:title=" ">
<path fill="none" stroke="#63b8ff" d="M1144.5,-243.25C1015.89,-235.1 803.66,-221.04 621,-206 598.01,-204.11 573.01,-201.81 550.26,-199.64"/>
<polygon fill="#63b8ff" stroke="#63b8ff" points="1144.56,-246.76 1154.76,-243.9 1145,-239.77 1144.56,-246.76"/>
</a>
</g>
</g>
<!-- Node3 -->
<g id="Node000003" class="node">
<title>Node3</title>
<g id="a_Node000003"><a xlink:href="_rendering_system_8cpp.html" target="_top" xlink:title=" ">
<polygon fill="white" stroke="#666666" points="674.5,-74 489.5,-74 489.5,-55 674.5,-55 674.5,-74"/>
<text text-anchor="middle" x="582" y="-62" font-family="Helvetica,sans-Serif" font-size="10.00">src/Systems/RenderingSystem.cpp</text>
</a>
</g>
</g>
<!-- Node1&#45;&gt;Node3 -->
<g id="edge20_Node000001_Node000003" class="edge">
<title>Node1&#45;&gt;Node3</title>
<g id="a_edge20_Node000001_Node000003"><a xlink:title=" ">
<path fill="none" stroke="#63b8ff" d="M1144.5,-242.73C1028.78,-231.54 849.2,-204.55 707,-140 687.09,-130.96 686.45,-121.74 668,-110 645.87,-95.92 618.78,-82.48 600.99,-74.12"/>
<polygon fill="#63b8ff" stroke="#63b8ff" points="1144.52,-246.25 1154.8,-243.7 1145.17,-239.28 1144.52,-246.25"/>
</a>
</g>
</g>
<!-- Node8 -->
<g id="Node000008" class="node">
<title>Node8</title>
<g id="a_Node000008"><a xlink:href="main_8cpp.html" target="_top" xlink:title=" ">
<polygon fill="white" stroke="#666666" points="659.5,-134.5 580.5,-134.5 580.5,-115.5 659.5,-115.5 659.5,-134.5"/>
<text text-anchor="middle" x="620" y="-122.5" font-family="Helvetica,sans-Serif" font-size="10.00">src/main.cpp</text>
</a>
</g>
</g>
<!-- Node1&#45;&gt;Node8 -->
<g id="edge21_Node000001_Node000008" class="edge">
<title>Node1&#45;&gt;Node8</title>
<g id="a_edge21_Node000001_Node000008"><a xlink:title=" ">
<path fill="none" stroke="#63b8ff" d="M1144.36,-247.06C984.4,-241.56 713.55,-228.97 674,-206 645.75,-189.59 629.2,-151.76 622.92,-134.67"/>
<polygon fill="#63b8ff" stroke="#63b8ff" points="1144.62,-250.57 1154.74,-247.41 1144.86,-243.58 1144.62,-250.57"/>
</a>
</g>
</g>
<!-- Node11 -->
<g id="Node000011" class="node">
<title>Node11</title>
<g id="a_Node000011"><a xlink:href="_input_manager_8hpp.html" target="_top" xlink:title=" ">
<polygon fill="white" stroke="#666666" points="1358,-200.5 1166,-200.5 1166,-181.5 1358,-181.5 1358,-200.5"/>
<text text-anchor="middle" x="1262" y="-188.5" font-family="Helvetica,sans-Serif" font-size="10.00">src/InputManager/InputManager.hpp</text>
</a>
</g>
</g>
<!-- Node1&#45;&gt;Node11 -->
<g id="edge11_Node000001_Node000011" class="edge">
<title>Node1&#45;&gt;Node11</title>
<g id="a_edge11_Node000001_Node000011"><a xlink:title=" ">
<path fill="none" stroke="#63b8ff" d="M1262,-231.66C1262,-221.24 1262,-208.8 1262,-200.67"/>
<polygon fill="#63b8ff" stroke="#63b8ff" points="1258.5,-231.87 1262,-241.87 1265.5,-231.87 1258.5,-231.87"/>
</a>
</g>
</g>
<!-- Node15 -->
<g id="Node000015" class="node">
<title>Node15</title>
<g id="a_Node000015"><a xlink:href="_object_selection_system_8cpp.html" target="_top" xlink:title=" ">
<polygon fill="white" stroke="#666666" points="1707.5,-140 1552.5,-140 1552.5,-110 1707.5,-110 1707.5,-140"/>
<text text-anchor="start" x="1560.5" y="-128" font-family="Helvetica,sans-Serif" font-size="10.00">src/Systems/ObjectSelection</text>
<text text-anchor="middle" x="1630" y="-117" font-family="Helvetica,sans-Serif" font-size="10.00">System.cpp</text>
</a>
</g>
</g>
<!-- Node1&#45;&gt;Node15 -->
<g id="edge19_Node000001_Node000015" class="edge">
<title>Node1&#45;&gt;Node15</title>
<g id="a_edge19_Node000001_Node000015"><a xlink:title=" ">
<path fill="none" stroke="#63b8ff" d="M1295.49,-238.37C1316.54,-230.24 1343.96,-218.73 1367,-206 1387.39,-194.73 1388.69,-185.42 1410,-176 1435.61,-164.67 1501.26,-150.4 1554.22,-140.01"/>
<polygon fill="#63b8ff" stroke="#63b8ff" points="1294.12,-235.14 1286.02,-241.96 1296.61,-241.69 1294.12,-235.14"/>
</a>
</g>
</g>
<!-- Node18 -->
<g id="Node000018" class="node">
<title>Node18</title>
<g id="a_Node000018"><a xlink:href="_scene_widget_8cpp.html" target="_top" xlink:title=" ">
<polygon fill="white" stroke="#666666" points="1896.5,-134.5 1725.5,-134.5 1725.5,-115.5 1896.5,-115.5 1896.5,-134.5"/>
<text text-anchor="middle" x="1811" y="-122.5" font-family="Helvetica,sans-Serif" font-size="10.00">src/ui/widgets/SceneWidget.cpp</text>
</a>
</g>
</g>
<!-- Node1&#45;&gt;Node18 -->
<g id="edge23_Node000001_Node000018" class="edge">
<title>Node1&#45;&gt;Node18</title>
<g id="a_edge23_Node000001_Node000018"><a xlink:title=" ">
<path fill="none" stroke="#63b8ff" d="M1310.01,-239.38C1337.75,-231.94 1372.83,-220.81 1402,-206 1422.13,-195.78 1422.04,-184.4 1443,-176 1557.01,-130.31 1595.36,-157.05 1717,-140 1729.25,-138.28 1742.4,-136.37 1754.86,-134.52"/>
<polygon fill="#63b8ff" stroke="#63b8ff" points="1308.93,-236.04 1300.14,-241.95 1310.7,-242.81 1308.93,-236.04"/>
</a>
</g>
</g>
<!-- Node19 -->
<g id="Node000019" class="node">
<title>Node19</title>
<g id="a_Node000019"><a xlink:href="_camera_component_u_i_8hpp.html" target="_top" xlink:title=" ">
<polygon fill="white" stroke="#666666" points="1600.5,-206 1451.5,-206 1451.5,-176 1600.5,-176 1600.5,-206"/>
<text text-anchor="start" x="1459.5" y="-194" font-family="Helvetica,sans-Serif" font-size="10.00">src/ui/Components/Camera</text>
<text text-anchor="middle" x="1526" y="-183" font-family="Helvetica,sans-Serif" font-size="10.00">ComponentUI.hpp</text>
</a>
</g>
</g>
<!-- Node1&#45;&gt;Node19 -->
<g id="edge22_Node000001_Node000019" class="edge">
<title>Node1&#45;&gt;Node19</title>
<g id="a_edge22_Node000001_Node000019"><a xlink:title=" ">
<path fill="none" stroke="#63b8ff" d="M1310.28,-239.8C1353.11,-230.31 1415.96,-216.38 1462.79,-206.01"/>
<polygon fill="#63b8ff" stroke="#63b8ff" points="1309.39,-236.41 1300.39,-241.99 1310.91,-243.25 1309.39,-236.41"/>
</a>
</g>
</g>
<!-- Node2&#45;&gt;Node3 -->
<g id="edge2_Node000002_Node000003" class="edge">
<title>Node2&#45;&gt;Node3</title>
<g id="a_edge2_Node000002_Node000003"><a xlink:title=" ">
<path fill="none" stroke="#63b8ff" d="M501.39,-169.53C511.89,-161.01 523.59,-150.63 533,-140 552.09,-118.44 569.31,-88.88 577.29,-74.33"/>
<polygon fill="#63b8ff" stroke="#63b8ff" points="498.97,-166.98 493.3,-175.93 503.31,-172.47 498.97,-166.98"/>
</a>
</g>
</g>
<!-- Node4 -->
<g id="Node000004" class="node">
<title>Node4</title>
<g id="a_Node000004"><a xlink:href="_rendering_system_8hpp.html" target="_top" xlink:title=" ">
<polygon fill="white" stroke="#666666" points="524,-134.5 338,-134.5 338,-115.5 524,-115.5 524,-134.5"/>
<text text-anchor="middle" x="431" y="-122.5" font-family="Helvetica,sans-Serif" font-size="10.00">src/Systems/RenderingSystem.hpp</text>
</a>
</g>
</g>
<!-- Node2&#45;&gt;Node4 -->
<g id="edge3_Node000002_Node000004" class="edge">
<title>Node2&#45;&gt;Node4</title>
<g id="a_edge3_Node000002_Node000004"><a xlink:title=" ">
<path fill="none" stroke="#63b8ff" d="M458.73,-167.28C451.2,-156.07 442.55,-143.19 436.94,-134.84"/>
<polygon fill="#63b8ff" stroke="#63b8ff" points="455.97,-169.45 464.46,-175.8 461.79,-165.54 455.97,-169.45"/>
</a>
</g>
</g>
<!-- Node2&#45;&gt;Node8 -->
<g id="edge8_Node000002_Node000008" class="edge">
<title>Node2&#45;&gt;Node8</title>
<g id="a_edge8_Node000002_Node000008"><a xlink:title=" ">
<path fill="none" stroke="#63b8ff" d="M515.56,-171.78C543.48,-159.54 578.98,-143.98 600.57,-134.52"/>
<polygon fill="#63b8ff" stroke="#63b8ff" points="513.79,-168.73 506.04,-175.95 516.6,-175.15 513.79,-168.73"/>
</a>
</g>
</g>
<!-- Node9 -->
<g id="Node000009" class="node">
<title>Node9</title>
<g id="a_Node000009"><a xlink:href="_directional_light_component_u_i_8hpp.html" target="_top" xlink:title=" ">
<polygon fill="white" stroke="#666666" points="164,-140 0,-140 0,-110 164,-110 164,-140"/>
<text text-anchor="start" x="8" y="-128" font-family="Helvetica,sans-Serif" font-size="10.00">src/ui/Components/Directional</text>
<text text-anchor="middle" x="82" y="-117" font-family="Helvetica,sans-Serif" font-size="10.00">LightComponentUI.hpp</text>
</a>
</g>
</g>
<!-- Node2&#45;&gt;Node9 -->
<g id="edge9_Node000002_Node000009" class="edge">
<title>Node2&#45;&gt;Node9</title>
<g id="a_edge9_Node000002_Node000009"><a xlink:title=" ">
<path fill="none" stroke="#63b8ff" d="M387.91,-175.94C321.36,-165.08 229.83,-150.14 164.26,-139.43"/>
<polygon fill="#63b8ff" stroke="#63b8ff" points="387.52,-179.43 397.95,-177.58 388.65,-172.52 387.52,-179.43"/>
</a>
</g>
</g>
<!-- Node10 -->
<g id="Node000010" class="node">
<title>Node10</title>
<g id="a_Node000010"><a xlink:href="_properties_widget_8cpp.html" target="_top" xlink:title=" ">
<polygon fill="white" stroke="#666666" points="319.5,-140 182.5,-140 182.5,-110 319.5,-110 319.5,-140"/>
<text text-anchor="start" x="190.5" y="-128" font-family="Helvetica,sans-Serif" font-size="10.00">src/ui/widgets/Properties</text>
<text text-anchor="middle" x="251" y="-117" font-family="Helvetica,sans-Serif" font-size="10.00">Widget.cpp</text>
</a>
</g>
</g>
<!-- Node2&#45;&gt;Node10 -->
<g id="edge10_Node000002_Node000010" class="edge">
<title>Node2&#45;&gt;Node10</title>
<g id="a_edge10_Node000002_Node000010"><a xlink:title=" ">
<path fill="none" stroke="#63b8ff" d="M415.19,-173.12C379.23,-162.8 333.78,-149.76 299.82,-140.01"/>
<polygon fill="#63b8ff" stroke="#63b8ff" points="414.48,-176.56 425.06,-175.95 416.42,-169.83 414.48,-176.56"/>
</a>
</g>
</g>
<!-- Node4&#45;&gt;Node3 -->
<g id="edge7_Node000004_Node000003" class="edge">
<title>Node4&#45;&gt;Node3</title>
<g id="a_edge7_Node000004_Node000003"><a xlink:title=" ">
<path fill="none" stroke="#63b8ff" d="M462.29,-111.88C491.48,-100.57 534.28,-83.99 560.02,-74.02"/>
<polygon fill="#63b8ff" stroke="#63b8ff" points="461.02,-108.62 452.96,-115.49 463.55,-115.14 461.02,-108.62"/>
</a>
</g>
</g>
<!-- Node5 -->
<g id="Node000005" class="node">
<title>Node5</title>
<g id="a_Node000005"><a xlink:href="_runtime_8hpp.html" target="_top" xlink:title=" ">
<polygon fill="white" stroke="#666666" points="471,-74 331,-74 331,-55 471,-55 471,-74"/>
<text text-anchor="middle" x="401" y="-62" font-family="Helvetica,sans-Serif" font-size="10.00">src/Runtime/Runtime.hpp</text>
</a>
</g>
</g>
<!-- Node4&#45;&gt;Node5 -->
<g id="edge4_Node000004_Node000005" class="edge">
<title>Node4&#45;&gt;Node5</title>
<g id="a_edge4_Node000004_Node000005"><a xlink:title=" ">
<path fill="none" stroke="#63b8ff" d="M421.85,-106.15C416.41,-95.54 409.75,-82.56 405.44,-74.17"/>
<polygon fill="#63b8ff" stroke="#63b8ff" points="418.9,-108.07 426.57,-115.37 425.12,-104.87 418.9,-108.07"/>
</a>
</g>
</g>
<!-- Node6 -->
<g id="Node000006" class="node">
<title>Node6</title>
<g id="a_Node000006"><a xlink:href="_runtime_8cpp.html" target="_top" xlink:title=" ">
<polygon fill="white" stroke="#666666" points="384,-19 244,-19 244,0 384,0 384,-19"/>
<text text-anchor="middle" x="314" y="-7" font-family="Helvetica,sans-Serif" font-size="10.00">src/Runtime/Runtime.cpp</text>
</a>
</g>
</g>
<!-- Node5&#45;&gt;Node6 -->
<g id="edge5_Node000005_Node000006" class="edge">
<title>Node5&#45;&gt;Node6</title>
<g id="a_edge5_Node000005_Node000006"><a xlink:title=" ">
<path fill="none" stroke="#63b8ff" d="M378.34,-49.7C362.49,-40.04 341.81,-27.44 328.23,-19.17"/>
<polygon fill="#63b8ff" stroke="#63b8ff" points="376.66,-52.77 387.02,-54.98 380.3,-46.79 376.66,-52.77"/>
</a>
</g>
</g>
<!-- Node7 -->
<g id="Node000007" class="node">
<title>Node7</title>
<g id="a_Node000007"><a xlink:href="_scene_widget_8hpp.html" target="_top" xlink:title="Contains the declaration of the SceneWidget class, a user interface widget for rendering scenes.">
<polygon fill="white" stroke="#666666" points="574,-19 402,-19 402,0 574,0 574,-19"/>
<text text-anchor="middle" x="488" y="-7" font-family="Helvetica,sans-Serif" font-size="10.00">src/ui/widgets/SceneWidget.hpp</text>
</a>
</g>
</g>
<!-- Node5&#45;&gt;Node7 -->
<g id="edge6_Node000005_Node000007" class="edge">
<title>Node5&#45;&gt;Node7</title>
<g id="a_edge6_Node000005_Node000007"><a xlink:title=" ">
<path fill="none" stroke="#63b8ff" d="M423.66,-49.7C439.51,-40.04 460.19,-27.44 473.77,-19.17"/>
<polygon fill="#63b8ff" stroke="#63b8ff" points="421.7,-46.79 414.98,-54.98 425.34,-52.77 421.7,-46.79"/>
</a>
</g>
</g>
<!-- Node12 -->
<g id="Node000012" class="node">
<title>Node12</title>
<g id="a_Node000012"><a xlink:href="_input_manager_8cpp.html" target="_top" xlink:title=" ">
<polygon fill="white" stroke="#666666" points="1065.5,-134.5 874.5,-134.5 874.5,-115.5 1065.5,-115.5 1065.5,-134.5"/>
<text text-anchor="middle" x="970" y="-122.5" font-family="Helvetica,sans-Serif" font-size="10.00">src/InputManager/InputManager.cpp</text>
</a>
</g>
</g>
<!-- Node11&#45;&gt;Node12 -->
<g id="edge12_Node000011_Node000012" class="edge">
<title>Node11&#45;&gt;Node12</title>
<g id="a_edge12_Node000011_Node000012"><a xlink:title=" ">
<path fill="none" stroke="#63b8ff" d="M1212.99,-179.26C1155.54,-166.67 1061.5,-146.06 1008.85,-134.51"/>
<polygon fill="#63b8ff" stroke="#63b8ff" points="1212.41,-182.71 1222.92,-181.44 1213.9,-175.88 1212.41,-182.71"/>
</a>
</g>
</g>
<!-- Node13 -->
<g id="Node000013" class="node">
<title>Node13</title>
<g id="a_Node000013"><a xlink:href="_camera_movement_system_8cpp.html" target="_top" xlink:title=" ">
<polygon fill="white" stroke="#666666" points="1254,-140 1084,-140 1084,-110 1254,-110 1254,-140"/>
<text text-anchor="start" x="1092" y="-128" font-family="Helvetica,sans-Serif" font-size="10.00">src/Systems/CameraMovement</text>
<text text-anchor="middle" x="1169" y="-117" font-family="Helvetica,sans-Serif" font-size="10.00">System.cpp</text>
</a>
</g>
</g>
<!-- Node11&#45;&gt;Node13 -->
<g id="edge13_Node000011_Node000013" class="edge">
<title>Node11&#45;&gt;Node13</title>
<g id="a_edge13_Node000011_Node000013"><a xlink:title=" ">
<path fill="none" stroke="#63b8ff" d="M1241.1,-175.62C1225.69,-165.01 1204.83,-150.66 1189.51,-140.12"/>
<polygon fill="#63b8ff" stroke="#63b8ff" points="1239.24,-178.58 1249.46,-181.37 1243.2,-172.82 1239.24,-178.58"/>
</a>
</g>
</g>
<!-- Node14 -->
<g id="Node000014" class="node">
<title>Node14</title>
<g id="a_Node000014"><a xlink:href="_gizmo_system_8cpp.html" target="_top" xlink:title=" ">
<polygon fill="white" stroke="#666666" points="1439.5,-134.5 1272.5,-134.5 1272.5,-115.5 1439.5,-115.5 1439.5,-134.5"/>
<text text-anchor="middle" x="1356" y="-122.5" font-family="Helvetica,sans-Serif" font-size="10.00">src/Systems/GizmoSystem.cpp</text>
</a>
</g>
</g>
<!-- Node11&#45;&gt;Node14 -->
<g id="edge14_Node000011_Node000014" class="edge">
<title>Node11&#45;&gt;Node14</title>
<g id="a_edge14_Node000011_Node000014"><a xlink:title=" ">
<path fill="none" stroke="#63b8ff" d="M1283.03,-175.68C1301.5,-163.11 1327.76,-145.23 1343.22,-134.7"/>
<polygon fill="#63b8ff" stroke="#63b8ff" points="1280.97,-172.85 1274.68,-181.37 1284.91,-178.63 1280.97,-172.85"/>
</a>
</g>
</g>
<!-- Node11&#45;&gt;Node15 -->
<g id="edge15_Node000011_Node000015" class="edge">
<title>Node11&#45;&gt;Node15</title>
<g id="a_edge15_Node000011_Node000015"><a xlink:title=" ">
<path fill="none" stroke="#63b8ff" d="M1321.39,-179.67C1384.2,-168.75 1483.55,-151.47 1552.49,-139.48"/>
<polygon fill="#63b8ff" stroke="#63b8ff" points="1320.5,-176.27 1311.25,-181.44 1321.7,-183.17 1320.5,-176.27"/>
</a>
</g>
</g>
<!-- Node16 -->
<g id="Node000016" class="node">
<title>Node16</title>
<g id="a_Node000016"><a xlink:href="_u_i_8cpp.html" target="_top" xlink:title=" ">
<polygon fill="white" stroke="#666666" points="1534.5,-134.5 1457.5,-134.5 1457.5,-115.5 1534.5,-115.5 1534.5,-134.5"/>
<text text-anchor="middle" x="1496" y="-122.5" font-family="Helvetica,sans-Serif" font-size="10.00">src/ui/UI.cpp</text>
</a>
</g>
</g>
<!-- Node11&#45;&gt;Node16 -->
<g id="edge16_Node000011_Node000016" class="edge">
<title>Node11&#45;&gt;Node16</title>
<g id="a_edge16_Node000011_Node000016"><a xlink:title=" ">
<path fill="none" stroke="#63b8ff" d="M1304.78,-178.78C1342.52,-168.81 1399,-153.73 1448,-140 1454.19,-138.27 1460.81,-136.37 1467.09,-134.54"/>
<polygon fill="#63b8ff" stroke="#63b8ff" points="1303.43,-175.51 1294.65,-181.45 1305.21,-182.28 1303.43,-175.51"/>
</a>
</g>
</g>
<!-- Node17 -->
<g id="Node000017" class="node">
<title>Node17</title>
<g id="a_Node000017"><a xlink:href="_filesystem_widget_8cpp.html" target="_top" xlink:title=" ">
<polygon fill="white" stroke="#666666" points="856,-140 716,-140 716,-110 856,-110 856,-140"/>
<text text-anchor="start" x="724" y="-128" font-family="Helvetica,sans-Serif" font-size="10.00">src/ui/widgets/Filesystem</text>
<text text-anchor="middle" x="786" y="-117" font-family="Helvetica,sans-Serif" font-size="10.00">Widget.cpp</text>
</a>
</g>
</g>
<!-- Node11&#45;&gt;Node17 -->
<g id="edge17_Node000011_Node000017" class="edge">
<title>Node11&#45;&gt;Node17</title>
<g id="a_edge17_Node000011_Node000017"><a xlink:title=" ">
<path fill="none" stroke="#63b8ff" d="M1174.9,-180.3C1094.34,-171.03 971.38,-156.11 865,-140 862.11,-139.56 859.16,-139.1 856.18,-138.63"/>
<polygon fill="#63b8ff" stroke="#63b8ff" points="1174.66,-183.8 1184.99,-181.46 1175.46,-176.84 1174.66,-183.8"/>
</a>
</g>
</g>
<!-- Node11&#45;&gt;Node18 -->
<g id="edge18_Node000011_Node000018" class="edge">
<title>Node11&#45;&gt;Node18</title>
<g id="a_edge18_Node000011_Node000018"><a xlink:title=" ">
<path fill="none" stroke="#63b8ff" d="M1358.65,-180.47C1450.84,-171.11 1593.56,-155.97 1717,-140 1729.6,-138.37 1743.12,-136.45 1755.88,-134.57"/>
<polygon fill="#63b8ff" stroke="#63b8ff" points="1358.09,-177 1348.5,-181.49 1358.8,-183.97 1358.09,-177"/>
</a>
</g>
</g>
</g>
</svg>
