<?xml version="1.0" encoding="UTF-8" standalone="no"?>
<!DOCTYPE svg PUBLIC "-//W3C//DTD SVG 1.1//EN"
 "http://www.w3.org/Graphics/SVG/1.1/DTD/svg11.dtd">
<!-- Generated by graphviz version 2.43.0 (0)
 -->
<!-- Title: src/Systems/CameraMovementSystem.hpp Pages: 1 -->
<svg width="1789pt" height="478pt"
 viewBox="0.00 0.00 1788.50 478.00" xmlns="http://www.w3.org/2000/svg" xmlns:xlink="http://www.w3.org/1999/xlink">
<g id="graph0" class="graph" transform="scale(1 1) rotate(0) translate(4 474)">
<title>src/Systems/CameraMovementSystem.hpp</title>
<!-- Node1 -->
<g id="Node000001" class="node">
<title>Node1</title>
<g id="a_Node000001"><a xlink:title=" ">
<polygon fill="#999999" stroke="#666666" points="438.5,-470 268.5,-470 268.5,-440 438.5,-440 438.5,-470"/>
<text text-anchor="start" x="276.5" y="-458" font-family="Helvetica,sans-Serif" font-size="10.00">src/Systems/CameraMovement</text>
<text text-anchor="middle" x="353.5" y="-447" font-family="Helvetica,sans-Serif" font-size="10.00">System.hpp</text>
</a>
</g>
</g>
<!-- Node1&#45;&gt;Node1 -->
<g id="edge61_Node000001_Node000001" class="edge">
<title>Node1&#45;&gt;Node1</title>
<g id="a_edge61_Node000001_Node000001"><a xlink:title=" ">
<path fill="none" stroke="#63b8ff" d="M438.75,-464.8C449.45,-463.07 456.5,-459.8 456.5,-455 456.5,-451.92 453.61,-449.48 448.72,-447.66"/>
<polygon fill="#63b8ff" stroke="#63b8ff" points="449.3,-444.2 438.75,-445.2 447.62,-451 449.3,-444.2"/>
</a>
</g>
</g>
<!-- Node2 -->
<g id="Node000002" class="node">
<title>Node2</title>
<g id="a_Node000002"><a xlink:title=" ">
<polygon fill="#e0e0e0" stroke="#999999" points="80.5,-404 22.5,-404 22.5,-385 80.5,-385 80.5,-404"/>
<text text-anchor="middle" x="51.5" y="-392" font-family="Helvetica,sans-Serif" font-size="10.00">memory</text>
</a>
</g>
</g>
<!-- Node1&#45;&gt;Node2 -->
<g id="edge1_Node000001_Node000002" class="edge">
<title>Node1&#45;&gt;Node2</title>
<g id="a_edge1_Node000001_Node000002"><a xlink:title=" ">
<path fill="none" stroke="#63b8ff" d="M275.68,-439.96C225.5,-430.74 158.59,-418.15 90.57,-404.17"/>
<polygon fill="#63b8ff" stroke="#63b8ff" points="91.03,-400.69 80.52,-402.1 89.61,-407.54 91.03,-400.69"/>
</a>
</g>
</g>
<!-- Node3 -->
<g id="Node000003" class="node">
<title>Node3</title>
<g id="a_Node000003"><a xlink:href="_scene_camera_8hpp.html" target="_top" xlink:title=" ">
<polygon fill="white" stroke="#666666" points="268.5,-404 98.5,-404 98.5,-385 268.5,-385 268.5,-404"/>
<text text-anchor="middle" x="183.5" y="-392" font-family="Helvetica,sans-Serif" font-size="10.00">Components/SceneCamera.hpp</text>
</a>
</g>
</g>
<!-- Node1&#45;&gt;Node3 -->
<g id="edge2_Node000001_Node000003" class="edge">
<title>Node1&#45;&gt;Node3</title>
<g id="a_edge2_Node000001_Node000003"><a xlink:title=" ">
<path fill="none" stroke="#63b8ff" d="M312.78,-439.99C283.91,-430.05 245.59,-416.86 218.17,-407.43"/>
<polygon fill="#63b8ff" stroke="#63b8ff" points="219.2,-404.08 208.61,-404.14 216.92,-410.7 219.2,-404.08"/>
</a>
</g>
</g>
<!-- Node5 -->
<g id="Node000005" class="node">
<title>Node5</title>
<g id="a_Node000005"><a xlink:href="_transform_component_8hpp.html" target="_top" xlink:title=" ">
<polygon fill="white" stroke="#666666" points="1046,-294 839,-294 839,-275 1046,-275 1046,-294"/>
<text text-anchor="middle" x="942.5" y="-282" font-family="Helvetica,sans-Serif" font-size="10.00">Components/TransformComponent.hpp</text>
</a>
</g>
</g>
<!-- Node1&#45;&gt;Node5 -->
<g id="edge4_Node000001_Node000005" class="edge">
<title>Node1&#45;&gt;Node5</title>
<g id="a_edge4_Node000001_Node000005"><a xlink:title=" ">
<path fill="none" stroke="#63b8ff" d="M384,-439.88C427.17,-419.85 508.52,-381.97 577.5,-349 594.9,-340.69 598.05,-335.6 616.5,-330 685.25,-309.15 765.13,-298.04 828.62,-292.14"/>
<polygon fill="#63b8ff" stroke="#63b8ff" points="829.01,-295.62 838.66,-291.24 828.39,-288.65 829.01,-295.62"/>
</a>
</g>
</g>
<!-- Node7 -->
<g id="Node000007" class="node">
<title>Node7</title>
<g id="a_Node000007"><a xlink:title=" ">
<polygon fill="#e0e0e0" stroke="#999999" points="460.5,-239 400.5,-239 400.5,-220 460.5,-220 460.5,-239"/>
<text text-anchor="middle" x="430.5" y="-227" font-family="Helvetica,sans-Serif" font-size="10.00">iostream</text>
</a>
</g>
</g>
<!-- Node1&#45;&gt;Node7 -->
<g id="edge62_Node000001_Node000007" class="edge">
<title>Node1&#45;&gt;Node7</title>
<g id="a_edge62_Node000001_Node000007"><a xlink:title=" ">
<path fill="none" stroke="#63b8ff" d="M358.43,-439.68C371.9,-400.6 409.26,-292.15 424.2,-248.78"/>
<polygon fill="#63b8ff" stroke="#63b8ff" points="427.54,-249.83 427.49,-239.23 420.93,-247.55 427.54,-249.83"/>
</a>
</g>
</g>
<!-- Node14 -->
<g id="Node000014" class="node">
<title>Node14</title>
<g id="a_Node000014"><a xlink:href="_registry_8hpp.html" target="_top" xlink:title=" ">
<polygon fill="white" stroke="#666666" points="344.5,-239 246.5,-239 246.5,-220 344.5,-220 344.5,-239"/>
<text text-anchor="middle" x="295.5" y="-227" font-family="Helvetica,sans-Serif" font-size="10.00">ECS/Registry.hpp</text>
</a>
</g>
</g>
<!-- Node1&#45;&gt;Node14 -->
<g id="edge37_Node000001_Node000014" class="edge">
<title>Node1&#45;&gt;Node14</title>
<g id="a_edge37_Node000001_Node000014"><a xlink:title=" ">
<path fill="none" stroke="#63b8ff" d="M349.56,-439.91C341.81,-412.09 324.16,-348.1 310.5,-294 306.68,-278.88 302.63,-261.66 299.71,-248.97"/>
<polygon fill="#63b8ff" stroke="#63b8ff" points="303.1,-248.11 297.45,-239.15 296.28,-249.68 303.1,-248.11"/>
</a>
</g>
</g>
<!-- Node30 -->
<g id="Node000030" class="node">
<title>Node30</title>
<g id="a_Node000030"><a xlink:href="_input_manager_8hpp.html" target="_top" xlink:title=" ">
<polygon fill="white" stroke="#666666" points="890,-404 715,-404 715,-385 890,-385 890,-404"/>
<text text-anchor="middle" x="802.5" y="-392" font-family="Helvetica,sans-Serif" font-size="10.00">InputManager/InputManager.hpp</text>
</a>
</g>
</g>
<!-- Node1&#45;&gt;Node30 -->
<g id="edge38_Node000001_Node000030" class="edge">
<title>Node1&#45;&gt;Node30</title>
<g id="a_edge38_Node000001_Node000030"><a xlink:title=" ">
<path fill="none" stroke="#63b8ff" d="M438.75,-442.89C522.04,-432.04 647.6,-415.68 727.28,-405.3"/>
<polygon fill="#63b8ff" stroke="#63b8ff" points="727.78,-408.76 737.25,-404 726.88,-401.82 727.78,-408.76"/>
</a>
</g>
</g>
<!-- Node4 -->
<g id="Node000004" class="node">
<title>Node4</title>
<g id="a_Node000004"><a xlink:href="_singleton_component_8hpp.html" target="_top" xlink:title=" ">
<polygon fill="white" stroke="#666666" points="161,-184 0,-184 0,-165 161,-165 161,-184"/>
<text text-anchor="middle" x="80.5" y="-172" font-family="Helvetica,sans-Serif" font-size="10.00">ECS/SingletonComponent.hpp</text>
</a>
</g>
</g>
<!-- Node3&#45;&gt;Node4 -->
<g id="edge3_Node000003_Node000004" class="edge">
<title>Node3&#45;&gt;Node4</title>
<g id="a_edge3_Node000003_Node000004"><a xlink:title=" ">
<path fill="none" stroke="#63b8ff" d="M179.46,-384.95C164.24,-352.74 110.14,-238.23 89.03,-193.55"/>
<polygon fill="#63b8ff" stroke="#63b8ff" points="92.06,-191.77 84.62,-184.22 85.73,-194.76 92.06,-191.77"/>
</a>
</g>
</g>
<!-- Node6 -->
<g id="Node000006" class="node">
<title>Node6</title>
<g id="a_Node000006"><a xlink:title=" ">
<polygon fill="#e0e0e0" stroke="#999999" points="1374.5,-239 1330.5,-239 1330.5,-220 1374.5,-220 1374.5,-239"/>
<text text-anchor="middle" x="1352.5" y="-227" font-family="Helvetica,sans-Serif" font-size="10.00">string</text>
</a>
</g>
</g>
<!-- Node5&#45;&gt;Node6 -->
<g id="edge5_Node000005_Node000006" class="edge">
<title>Node5&#45;&gt;Node6</title>
<g id="a_edge5_Node000005_Node000006"><a xlink:title=" ">
<path fill="none" stroke="#63b8ff" d="M1046.1,-275.58C1120.11,-268.93 1222.12,-257.75 1320.16,-238.99"/>
<polygon fill="#63b8ff" stroke="#63b8ff" points="1321.09,-242.38 1330.24,-237.03 1319.76,-235.51 1321.09,-242.38"/>
</a>
</g>
</g>
<!-- Node5&#45;&gt;Node7 -->
<g id="edge6_Node000005_Node000007" class="edge">
<title>Node5&#45;&gt;Node7</title>
<g id="a_edge6_Node000005_Node000007"><a xlink:title=" ">
<path fill="none" stroke="#63b8ff" d="M857.05,-274.96C769.32,-266.15 628.85,-251.9 507.5,-239 495.6,-237.74 482.68,-236.32 470.88,-235.02"/>
<polygon fill="#63b8ff" stroke="#63b8ff" points="471.17,-231.53 460.85,-233.91 470.4,-238.49 471.17,-231.53"/>
</a>
</g>
</g>
<!-- Node8 -->
<g id="Node000008" class="node">
<title>Node8</title>
<g id="a_Node000008"><a xlink:title=" ">
<polygon fill="#e0e0e0" stroke="#999999" points="1390.5,-184 1312.5,-184 1312.5,-165 1390.5,-165 1390.5,-184"/>
<text text-anchor="middle" x="1351.5" y="-172" font-family="Helvetica,sans-Serif" font-size="10.00">glm/glm.hpp</text>
</a>
</g>
</g>
<!-- Node5&#45;&gt;Node8 -->
<g id="edge7_Node000005_Node000008" class="edge">
<title>Node5&#45;&gt;Node8</title>
<g id="a_edge7_Node000005_Node000008"><a xlink:title=" ">
<path fill="none" stroke="#63b8ff" d="M958.81,-274.97C991.17,-258.08 1060.86,-221.83 1066.5,-220 1146.54,-194 1244.3,-182.96 1302.03,-178.44"/>
<polygon fill="#63b8ff" stroke="#63b8ff" points="1302.62,-181.91 1312.33,-177.67 1302.1,-174.93 1302.62,-181.91"/>
</a>
</g>
</g>
<!-- Node9 -->
<g id="Node000009" class="node">
<title>Node9</title>
<g id="a_Node000009"><a xlink:title=" ">
<polygon fill="#e0e0e0" stroke="#999999" points="646.5,-239 516.5,-239 516.5,-220 646.5,-220 646.5,-239"/>
<text text-anchor="middle" x="581.5" y="-227" font-family="Helvetica,sans-Serif" font-size="10.00">glm/gtc/quaternion.hpp</text>
</a>
</g>
</g>
<!-- Node5&#45;&gt;Node9 -->
<g id="edge8_Node000005_Node000009" class="edge">
<title>Node5&#45;&gt;Node9</title>
<g id="a_edge8_Node000005_Node000009"><a xlink:title=" ">
<path fill="none" stroke="#63b8ff" d="M884.5,-274.98C820.52,-265.59 717.65,-250.49 649.82,-240.53"/>
<polygon fill="#63b8ff" stroke="#63b8ff" points="650.06,-237.03 639.66,-239.04 649.04,-243.95 650.06,-237.03"/>
</a>
</g>
</g>
<!-- Node10 -->
<g id="Node000010" class="node">
<title>Node10</title>
<g id="a_Node000010"><a xlink:title=" ">
<polygon fill="#e0e0e0" stroke="#999999" points="828,-239 665,-239 665,-220 828,-220 828,-239"/>
<text text-anchor="middle" x="746.5" y="-227" font-family="Helvetica,sans-Serif" font-size="10.00">glm/gtc/matrix_transform.hpp</text>
</a>
</g>
</g>
<!-- Node5&#45;&gt;Node10 -->
<g id="edge9_Node000005_Node000010" class="edge">
<title>Node5&#45;&gt;Node10</title>
<g id="a_edge9_Node000005_Node000010"><a xlink:title=" ">
<path fill="none" stroke="#63b8ff" d="M911.01,-274.98C877.68,-265.97 824.9,-251.7 788.15,-241.76"/>
<polygon fill="#63b8ff" stroke="#63b8ff" points="788.8,-238.31 778.24,-239.08 786.98,-245.07 788.8,-238.31"/>
</a>
</g>
</g>
<!-- Node11 -->
<g id="Node000011" class="node">
<title>Node11</title>
<g id="a_Node000011"><a xlink:title=" ">
<polygon fill="#e0e0e0" stroke="#999999" points="1018.5,-239 846.5,-239 846.5,-220 1018.5,-220 1018.5,-239"/>
<text text-anchor="middle" x="932.5" y="-227" font-family="Helvetica,sans-Serif" font-size="10.00">glm/gtx/matrix_decompose.hpp</text>
</a>
</g>
</g>
<!-- Node5&#45;&gt;Node11 -->
<g id="edge10_Node000005_Node000011" class="edge">
<title>Node5&#45;&gt;Node11</title>
<g id="a_edge10_Node000005_Node000011"><a xlink:title=" ">
<path fill="none" stroke="#63b8ff" d="M940.85,-274.75C939.54,-267.8 937.66,-257.85 936.02,-249.13"/>
<polygon fill="#63b8ff" stroke="#63b8ff" points="939.41,-248.27 934.12,-239.09 932.54,-249.56 939.41,-248.27"/>
</a>
</g>
</g>
<!-- Node12 -->
<g id="Node000012" class="node">
<title>Node12</title>
<g id="a_Node000012"><a xlink:title=" ">
<polygon fill="#e0e0e0" stroke="#999999" points="1206,-239 1075,-239 1075,-220 1206,-220 1206,-239"/>
<text text-anchor="middle" x="1140.5" y="-227" font-family="Helvetica,sans-Serif" font-size="10.00">glm/gtx/string_cast.hpp</text>
</a>
</g>
</g>
<!-- Node5&#45;&gt;Node12 -->
<g id="edge11_Node000005_Node000012" class="edge">
<title>Node5&#45;&gt;Node12</title>
<g id="a_edge11_Node000005_Node000012"><a xlink:title=" ">
<path fill="none" stroke="#63b8ff" d="M974.31,-274.98C1007.99,-265.97 1061.3,-251.7 1098.42,-241.76"/>
<polygon fill="#63b8ff" stroke="#63b8ff" points="1099.68,-245.05 1108.44,-239.08 1097.87,-238.29 1099.68,-245.05"/>
</a>
</g>
</g>
<!-- Node13 -->
<g id="Node000013" class="node">
<title>Node13</title>
<g id="a_Node000013"><a xlink:href="_math_2_utils_8hpp.html" target="_top" xlink:title=" ">
<polygon fill="white" stroke="#666666" points="1312.5,-239 1224.5,-239 1224.5,-220 1312.5,-220 1312.5,-239"/>
<text text-anchor="middle" x="1268.5" y="-227" font-family="Helvetica,sans-Serif" font-size="10.00">Math/Utils.hpp</text>
</a>
</g>
</g>
<!-- Node5&#45;&gt;Node13 -->
<g id="edge12_Node000005_Node000013" class="edge">
<title>Node5&#45;&gt;Node13</title>
<g id="a_edge12_Node000005_Node000013"><a xlink:title=" ">
<path fill="none" stroke="#63b8ff" d="M994.88,-274.98C1055.02,-265.21 1153.22,-249.24 1214.17,-239.33"/>
<polygon fill="#63b8ff" stroke="#63b8ff" points="1215.05,-242.74 1224.36,-237.68 1213.93,-235.83 1215.05,-242.74"/>
</a>
</g>
</g>
<!-- Node5&#45;&gt;Node14 -->
<g id="edge14_Node000005_Node000014" class="edge">
<title>Node5&#45;&gt;Node14</title>
<g id="a_edge14_Node000005_Node000014"><a xlink:title=" ">
<path fill="none" stroke="#63b8ff" d="M838.9,-275.37C728.13,-266.63 547.38,-252.19 391.5,-239 379.65,-238 366.97,-236.9 354.85,-235.83"/>
<polygon fill="#63b8ff" stroke="#63b8ff" points="355.09,-232.34 344.82,-234.94 354.48,-239.31 355.09,-232.34"/>
</a>
</g>
</g>
<!-- Node27 -->
<g id="Node000027" class="node">
<title>Node27</title>
<g id="a_Node000027"><a xlink:href="_base_component_8hpp.html" target="_top" xlink:title=" ">
<polygon fill="white" stroke="#666666" points="1714.5,-239 1532.5,-239 1532.5,-220 1714.5,-220 1714.5,-239"/>
<text text-anchor="middle" x="1623.5" y="-227" font-family="Helvetica,sans-Serif" font-size="10.00">Components/BaseComponent.hpp</text>
</a>
</g>
</g>
<!-- Node5&#45;&gt;Node27 -->
<g id="edge34_Node000005_Node000027" class="edge">
<title>Node5&#45;&gt;Node27</title>
<g id="a_edge34_Node000005_Node000027"><a xlink:title=" ">
<path fill="none" stroke="#63b8ff" d="M1046.3,-275.42C1175.36,-265.38 1394.21,-248.35 1522.13,-238.39"/>
<polygon fill="#63b8ff" stroke="#63b8ff" points="1522.62,-241.86 1532.32,-237.6 1522.08,-234.88 1522.62,-241.86"/>
</a>
</g>
</g>
<!-- Node13&#45;&gt;Node8 -->
<g id="edge13_Node000013_Node000008" class="edge">
<title>Node13&#45;&gt;Node8</title>
<g id="a_edge13_Node000013_Node000008"><a xlink:title=" ">
<path fill="none" stroke="#63b8ff" d="M1281.84,-219.98C1294.59,-211.84 1314.05,-199.41 1329.17,-189.76"/>
<polygon fill="#63b8ff" stroke="#63b8ff" points="1331.38,-192.5 1337.92,-184.17 1327.61,-186.6 1331.38,-192.5"/>
</a>
</g>
</g>
<!-- Node14&#45;&gt;Node4 -->
<g id="edge31_Node000014_Node000004" class="edge">
<title>Node14&#45;&gt;Node4</title>
<g id="a_edge31_Node000014_Node000004"><a xlink:title=" ">
<path fill="none" stroke="#63b8ff" d="M260.96,-219.98C224.08,-210.89 165.51,-196.46 125.16,-186.51"/>
<polygon fill="#63b8ff" stroke="#63b8ff" points="125.86,-183.08 115.31,-184.08 124.19,-189.87 125.86,-183.08"/>
</a>
</g>
</g>
<!-- Node15 -->
<g id="Node000015" class="node">
<title>Node15</title>
<g id="a_Node000015"><a xlink:title=" ">
<polygon fill="#e0e0e0" stroke="#999999" points="667.5,-129 581.5,-129 581.5,-110 667.5,-110 667.5,-129"/>
<text text-anchor="middle" x="624.5" y="-117" font-family="Helvetica,sans-Serif" font-size="10.00">unordered_set</text>
</a>
</g>
</g>
<!-- Node14&#45;&gt;Node15 -->
<g id="edge15_Node000014_Node000015" class="edge">
<title>Node14&#45;&gt;Node15</title>
<g id="a_edge15_Node000014_Node000015"><a xlink:title=" ">
<path fill="none" stroke="#63b8ff" d="M344.56,-221.78C422.93,-210.91 568.61,-190.06 578.5,-184 596.04,-173.25 608.9,-153.06 616.5,-138.33"/>
<polygon fill="#63b8ff" stroke="#63b8ff" points="619.72,-139.71 620.9,-129.18 613.41,-136.67 619.72,-139.71"/>
</a>
</g>
</g>
<!-- Node16 -->
<g id="Node000016" class="node">
<title>Node16</title>
<g id="a_Node000016"><a xlink:href="_logger_8hpp.html" target="_top" xlink:title=" ">
<polygon fill="white" stroke="#666666" points="752,-184 635,-184 635,-165 752,-165 752,-184"/>
<text text-anchor="middle" x="693.5" y="-172" font-family="Helvetica,sans-Serif" font-size="10.00">Common/Logger.hpp</text>
</a>
</g>
</g>
<!-- Node14&#45;&gt;Node16 -->
<g id="edge16_Node000014_Node000016" class="edge">
<title>Node14&#45;&gt;Node16</title>
<g id="a_edge16_Node000014_Node000016"><a xlink:title=" ">
<path fill="none" stroke="#63b8ff" d="M344.68,-221.85C349.35,-221.23 354.02,-220.6 358.5,-220 450.6,-207.67 556.95,-193.57 624.68,-184.6"/>
<polygon fill="#63b8ff" stroke="#63b8ff" points="625.34,-188.04 634.8,-183.26 624.42,-181.1 625.34,-188.04"/>
</a>
</g>
</g>
<!-- Node19 -->
<g id="Node000019" class="node">
<title>Node19</title>
<g id="a_Node000019"><a xlink:href="_entity_8hpp.html" target="_top" xlink:title=" ">
<polygon fill="white" stroke="#666666" points="359.5,-74 273.5,-74 273.5,-55 359.5,-55 359.5,-74"/>
<text text-anchor="middle" x="316.5" y="-62" font-family="Helvetica,sans-Serif" font-size="10.00">ECS/Entity.hpp</text>
</a>
</g>
</g>
<!-- Node14&#45;&gt;Node19 -->
<g id="edge19_Node000014_Node000019" class="edge">
<title>Node14&#45;&gt;Node19</title>
<g id="a_edge19_Node000014_Node000019"><a xlink:title=" ">
<path fill="none" stroke="#63b8ff" d="M280.28,-219.77C248.49,-200.4 180.24,-152.2 208.5,-110 220.97,-91.38 242.79,-80.54 263.58,-74.24"/>
<polygon fill="#63b8ff" stroke="#63b8ff" points="264.61,-77.59 273.33,-71.57 262.76,-70.83 264.61,-77.59"/>
</a>
</g>
</g>
<!-- Node21 -->
<g id="Node000021" class="node">
<title>Node21</title>
<g id="a_Node000021"><a xlink:href="_entity_hierarchy_8hpp.html" target="_top" xlink:title=" ">
<polygon fill="white" stroke="#666666" points="569.5,-184 435.5,-184 435.5,-165 569.5,-165 569.5,-184"/>
<text text-anchor="middle" x="502.5" y="-172" font-family="Helvetica,sans-Serif" font-size="10.00">ECS/EntityHierarchy.hpp</text>
</a>
</g>
</g>
<!-- Node14&#45;&gt;Node21 -->
<g id="edge21_Node000014_Node000021" class="edge">
<title>Node14&#45;&gt;Node21</title>
<g id="a_edge21_Node000014_Node000021"><a xlink:title=" ">
<path fill="none" stroke="#63b8ff" d="M328.76,-219.98C364.11,-210.93 420.17,-196.58 459.01,-186.64"/>
<polygon fill="#63b8ff" stroke="#63b8ff" points="460.16,-189.95 468.98,-184.08 458.43,-183.17 460.16,-189.95"/>
</a>
</g>
</g>
<!-- Node25 -->
<g id="Node000025" class="node">
<title>Node25</title>
<g id="a_Node000025"><a xlink:href="_entity_provider_8hpp.html" target="_top" xlink:title="Manages a pool of unused entity identifiers and provides mechanisms for requesting and removing them.">
<polygon fill="white" stroke="#666666" points="345.5,-129 217.5,-129 217.5,-110 345.5,-110 345.5,-129"/>
<text text-anchor="middle" x="281.5" y="-117" font-family="Helvetica,sans-Serif" font-size="10.00">ECS/EntityProvider.hpp</text>
</a>
</g>
</g>
<!-- Node14&#45;&gt;Node25 -->
<g id="edge27_Node000014_Node000025" class="edge">
<title>Node14&#45;&gt;Node25</title>
<g id="a_edge27_Node000014_Node000025"><a xlink:title=" ">
<path fill="none" stroke="#63b8ff" d="M289.66,-219.76C284.25,-211.1 276.6,-197.26 273.5,-184 270.02,-169.1 272.6,-151.86 275.72,-139.11"/>
<polygon fill="#63b8ff" stroke="#63b8ff" points="279.16,-139.8 278.47,-129.23 272.42,-137.92 279.16,-139.8"/>
</a>
</g>
</g>
<!-- Node26 -->
<g id="Node000026" class="node">
<title>Node26</title>
<g id="a_Node000026"><a xlink:href="_sparse_set_8hpp.html" target="_top" xlink:title=" ">
<polygon fill="white" stroke="#666666" points="390.5,-184 282.5,-184 282.5,-165 390.5,-165 390.5,-184"/>
<text text-anchor="middle" x="336.5" y="-172" font-family="Helvetica,sans-Serif" font-size="10.00">ECS/SparseSet.hpp</text>
</a>
</g>
</g>
<!-- Node14&#45;&gt;Node26 -->
<g id="edge32_Node000014_Node000026" class="edge">
<title>Node14&#45;&gt;Node26</title>
<g id="a_edge32_Node000014_Node000026"><a xlink:title=" ">
<path fill="none" stroke="#63b8ff" d="M302.27,-219.75C308.06,-212.26 316.56,-201.28 323.64,-192.13"/>
<polygon fill="#63b8ff" stroke="#63b8ff" points="326.51,-194.14 329.86,-184.09 320.97,-189.86 326.51,-194.14"/>
</a>
</g>
</g>
<!-- Node17 -->
<g id="Node000017" class="node">
<title>Node17</title>
<g id="a_Node000017"><a xlink:title=" ">
<polygon fill="#e0e0e0" stroke="#999999" points="771.5,-129 723.5,-129 723.5,-110 771.5,-110 771.5,-129"/>
<text text-anchor="middle" x="747.5" y="-117" font-family="Helvetica,sans-Serif" font-size="10.00">mutex</text>
</a>
</g>
</g>
<!-- Node16&#45;&gt;Node17 -->
<g id="edge17_Node000016_Node000017" class="edge">
<title>Node16&#45;&gt;Node17</title>
<g id="a_edge17_Node000016_Node000017"><a xlink:title=" ">
<path fill="none" stroke="#63b8ff" d="M702.42,-164.75C710.28,-157.03 721.93,-145.6 731.42,-136.28"/>
<polygon fill="#63b8ff" stroke="#63b8ff" points="734.06,-138.59 738.75,-129.09 729.16,-133.6 734.06,-138.59"/>
</a>
</g>
</g>
<!-- Node18 -->
<g id="Node000018" class="node">
<title>Node18</title>
<g id="a_Node000018"><a xlink:title=" ">
<polygon fill="#e0e0e0" stroke="#999999" points="589,-74 542,-74 542,-55 589,-55 589,-74"/>
<text text-anchor="middle" x="565.5" y="-62" font-family="Helvetica,sans-Serif" font-size="10.00">queue</text>
</a>
</g>
</g>
<!-- Node16&#45;&gt;Node18 -->
<g id="edge18_Node000016_Node000018" class="edge">
<title>Node16&#45;&gt;Node18</title>
<g id="a_edge18_Node000016_Node000018"><a xlink:title=" ">
<path fill="none" stroke="#63b8ff" d="M693.53,-164.98C693.12,-151.64 690.43,-125.71 676.5,-110 656.73,-87.71 624.25,-76.43 599.51,-70.81"/>
<polygon fill="#63b8ff" stroke="#63b8ff" points="599.95,-67.33 589.45,-68.74 598.54,-74.19 599.95,-67.33"/>
</a>
</g>
</g>
<!-- Node20 -->
<g id="Node000020" class="node">
<title>Node20</title>
<g id="a_Node000020"><a xlink:title=" ">
<polygon fill="#e0e0e0" stroke="#999999" points="307,-19 254,-19 254,0 307,0 307,-19"/>
<text text-anchor="middle" x="280.5" y="-7" font-family="Helvetica,sans-Serif" font-size="10.00">stdlib.h</text>
</a>
</g>
</g>
<!-- Node19&#45;&gt;Node20 -->
<g id="edge20_Node000019_Node000020" class="edge">
<title>Node19&#45;&gt;Node20</title>
<g id="a_edge20_Node000019_Node000020"><a xlink:title=" ">
<path fill="none" stroke="#63b8ff" d="M310.56,-54.75C305.52,-47.34 298.16,-36.5 291.99,-27.41"/>
<polygon fill="#63b8ff" stroke="#63b8ff" points="294.85,-25.39 286.33,-19.09 289.06,-29.33 294.85,-25.39"/>
</a>
</g>
</g>
<!-- Node21&#45;&gt;Node15 -->
<g id="edge25_Node000021_Node000015" class="edge">
<title>Node21&#45;&gt;Node15</title>
<g id="a_edge25_Node000021_Node000015"><a xlink:title=" ">
<path fill="none" stroke="#63b8ff" d="M522.1,-164.98C541.82,-156.42 572.45,-143.11 595.08,-133.28"/>
<polygon fill="#63b8ff" stroke="#63b8ff" points="596.76,-136.37 604.54,-129.17 593.98,-129.94 596.76,-136.37"/>
</a>
</g>
</g>
<!-- Node21&#45;&gt;Node19 -->
<g id="edge26_Node000021_Node000019" class="edge">
<title>Node21&#45;&gt;Node19</title>
<g id="a_edge26_Node000021_Node000019"><a xlink:title=" ">
<path fill="none" stroke="#63b8ff" d="M513,-164.58C527.02,-151.61 548.55,-127.21 534.5,-110 514.1,-85.02 427.57,-73.69 369.85,-68.84"/>
<polygon fill="#63b8ff" stroke="#63b8ff" points="370.04,-65.34 359.79,-68.03 369.48,-72.32 370.04,-65.34"/>
</a>
</g>
</g>
<!-- Node22 -->
<g id="Node000022" class="node">
<title>Node22</title>
<g id="a_Node000022"><a xlink:title=" ">
<polygon fill="#e0e0e0" stroke="#999999" points="1247,-129 1182,-129 1182,-110 1247,-110 1247,-129"/>
<text text-anchor="middle" x="1214.5" y="-117" font-family="Helvetica,sans-Serif" font-size="10.00">functional</text>
</a>
</g>
</g>
<!-- Node21&#45;&gt;Node22 -->
<g id="edge22_Node000021_Node000022" class="edge">
<title>Node21&#45;&gt;Node22</title>
<g id="a_edge22_Node000021_Node000022"><a xlink:title=" ">
<path fill="none" stroke="#63b8ff" d="M569.8,-168.49C714.5,-157.72 1051.75,-132.62 1171.43,-123.71"/>
<polygon fill="#63b8ff" stroke="#63b8ff" points="1171.95,-127.18 1181.66,-122.94 1171.43,-120.2 1171.95,-127.18"/>
</a>
</g>
</g>
<!-- Node23 -->
<g id="Node000023" class="node">
<title>Node23</title>
<g id="a_Node000023"><a xlink:title=" ">
<polygon fill="#e0e0e0" stroke="#999999" points="525.5,-129 475.5,-129 475.5,-110 525.5,-110 525.5,-129"/>
<text text-anchor="middle" x="500.5" y="-117" font-family="Helvetica,sans-Serif" font-size="10.00">ranges</text>
</a>
</g>
</g>
<!-- Node21&#45;&gt;Node23 -->
<g id="edge23_Node000021_Node000023" class="edge">
<title>Node21&#45;&gt;Node23</title>
<g id="a_edge23_Node000021_Node000023"><a xlink:title=" ">
<path fill="none" stroke="#63b8ff" d="M502.17,-164.75C501.91,-157.8 501.53,-147.85 501.2,-139.13"/>
<polygon fill="#63b8ff" stroke="#63b8ff" points="504.7,-138.95 500.82,-129.09 497.7,-139.21 504.7,-138.95"/>
</a>
</g>
</g>
<!-- Node24 -->
<g id="Node000024" class="node">
<title>Node24</title>
<g id="a_Node000024"><a xlink:title=" ">
<polygon fill="#e0e0e0" stroke="#999999" points="457,-129 364,-129 364,-110 457,-110 457,-129"/>
<text text-anchor="middle" x="410.5" y="-117" font-family="Helvetica,sans-Serif" font-size="10.00">unordered_map</text>
</a>
</g>
</g>
<!-- Node21&#45;&gt;Node24 -->
<g id="edge24_Node000021_Node000024" class="edge">
<title>Node21&#45;&gt;Node24</title>
<g id="a_edge24_Node000021_Node000024"><a xlink:title=" ">
<path fill="none" stroke="#63b8ff" d="M487.72,-164.98C473.32,-156.69 451.19,-143.94 434.31,-134.22"/>
<polygon fill="#63b8ff" stroke="#63b8ff" points="435.96,-131.13 425.55,-129.17 432.47,-137.19 435.96,-131.13"/>
</a>
</g>
</g>
<!-- Node25&#45;&gt;Node18 -->
<g id="edge29_Node000025_Node000018" class="edge">
<title>Node25&#45;&gt;Node18</title>
<g id="a_edge29_Node000025_Node000018"><a xlink:title=" ">
<path fill="none" stroke="#63b8ff" d="M327.13,-109.98C384.34,-99.31 481.06,-81.26 531.93,-71.76"/>
<polygon fill="#63b8ff" stroke="#63b8ff" points="532.58,-75.2 541.76,-69.93 531.29,-68.32 532.58,-75.2"/>
</a>
</g>
</g>
<!-- Node25&#45;&gt;Node19 -->
<g id="edge30_Node000025_Node000019" class="edge">
<title>Node25&#45;&gt;Node19</title>
<g id="a_edge30_Node000025_Node000019"><a xlink:title=" ">
<path fill="none" stroke="#63b8ff" d="M287.28,-109.75C292.12,-102.42 299.18,-91.73 305.14,-82.7"/>
<polygon fill="#63b8ff" stroke="#63b8ff" points="308.24,-84.36 310.83,-74.09 302.4,-80.5 308.24,-84.36"/>
</a>
</g>
</g>
<!-- Node25&#45;&gt;Node20 -->
<g id="edge28_Node000025_Node000020" class="edge">
<title>Node25&#45;&gt;Node20</title>
<g id="a_edge28_Node000025_Node000020"><a xlink:title=" ">
<path fill="none" stroke="#63b8ff" d="M277.13,-109.91C272.94,-101.14 266.9,-87.01 264.5,-74 261.63,-58.45 266.6,-41.06 271.74,-28.41"/>
<polygon fill="#63b8ff" stroke="#63b8ff" points="275.04,-29.61 275.93,-19.05 268.65,-26.75 275.04,-29.61"/>
</a>
</g>
</g>
<!-- Node26&#45;&gt;Node25 -->
<g id="edge33_Node000026_Node000025" class="edge">
<title>Node26&#45;&gt;Node25</title>
<g id="a_edge33_Node000026_Node000025"><a xlink:title=" ">
<path fill="none" stroke="#63b8ff" d="M327.42,-164.75C319.41,-157.03 307.54,-145.6 297.88,-136.28"/>
<polygon fill="#63b8ff" stroke="#63b8ff" points="300.04,-133.51 290.41,-129.09 295.19,-138.55 300.04,-133.51"/>
</a>
</g>
</g>
<!-- Node28 -->
<g id="Node000028" class="node">
<title>Node28</title>
<g id="a_Node000028"><a xlink:href="_types_8hpp.html" target="_top" xlink:title=" ">
<polygon fill="white" stroke="#666666" points="1680,-184 1567,-184 1567,-165 1680,-165 1680,-184"/>
<text text-anchor="middle" x="1623.5" y="-172" font-family="Helvetica,sans-Serif" font-size="10.00">Common/Types.hpp</text>
</a>
</g>
</g>
<!-- Node27&#45;&gt;Node28 -->
<g id="edge35_Node000027_Node000028" class="edge">
<title>Node27&#45;&gt;Node28</title>
<g id="a_edge35_Node000027_Node000028"><a xlink:title=" ">
<path fill="none" stroke="#63b8ff" d="M1623.5,-219.75C1623.5,-212.8 1623.5,-202.85 1623.5,-194.13"/>
<polygon fill="#63b8ff" stroke="#63b8ff" points="1627,-194.09 1623.5,-184.09 1620,-194.09 1627,-194.09"/>
</a>
</g>
</g>
<!-- Node29 -->
<g id="Node000029" class="node">
<title>Node29</title>
<g id="a_Node000029"><a xlink:title=" ">
<polygon fill="#e0e0e0" stroke="#999999" points="1657.5,-129 1589.5,-129 1589.5,-110 1657.5,-110 1657.5,-129"/>
<text text-anchor="middle" x="1623.5" y="-117" font-family="Helvetica,sans-Serif" font-size="10.00">filesystem</text>
</a>
</g>
</g>
<!-- Node28&#45;&gt;Node29 -->
<g id="edge36_Node000028_Node000029" class="edge">
<title>Node28&#45;&gt;Node29</title>
<g id="a_edge36_Node000028_Node000029"><a xlink:title=" ">
<path fill="none" stroke="#63b8ff" d="M1623.5,-164.75C1623.5,-157.8 1623.5,-147.85 1623.5,-139.13"/>
<polygon fill="#63b8ff" stroke="#63b8ff" points="1627,-139.09 1623.5,-129.09 1620,-139.09 1627,-139.09"/>
</a>
</g>
</g>
<!-- Node30&#45;&gt;Node5 -->
<g id="edge59_Node000030_Node000005" class="edge">
<title>Node30&#45;&gt;Node5</title>
<g id="a_edge59_Node000030_Node000005"><a xlink:title=" ">
<path fill="none" stroke="#63b8ff" d="M869.37,-384.98C892.57,-378.69 916.7,-367.81 932.5,-349 942.82,-336.72 944.7,-318.2 944.37,-304.33"/>
<polygon fill="#63b8ff" stroke="#63b8ff" points="947.84,-303.77 943.71,-294.01 940.85,-304.22 947.84,-303.77"/>
</a>
</g>
</g>
<!-- Node30&#45;&gt;Node8 -->
<g id="edge41_Node000030_Node000008" class="edge">
<title>Node30&#45;&gt;Node8</title>
<g id="a_edge41_Node000030_Node000008"><a xlink:title=" ">
<path fill="none" stroke="#63b8ff" d="M890.04,-393.96C1101.85,-392.86 1631.37,-376.21 1723.5,-239 1728.21,-231.99 1729.11,-226.32 1723.5,-220 1702.41,-196.24 1496.83,-182.83 1400.65,-177.81"/>
<polygon fill="#63b8ff" stroke="#63b8ff" points="1400.75,-174.31 1390.59,-177.29 1400.39,-181.3 1400.75,-174.31"/>
</a>
</g>
</g>
<!-- Node30&#45;&gt;Node14 -->
<g id="edge60_Node000030_Node000014" class="edge">
<title>Node30&#45;&gt;Node14</title>
<g id="a_edge60_Node000030_Node000014"><a xlink:title=" ">
<path fill="none" stroke="#63b8ff" d="M714.67,-394.3C602.13,-393.72 414.87,-386.82 358.5,-349 340.33,-336.81 314.9,-278.7 302.65,-248.63"/>
<polygon fill="#63b8ff" stroke="#63b8ff" points="305.88,-247.26 298.9,-239.28 299.38,-249.87 305.88,-247.26"/>
</a>
</g>
</g>
<!-- Node30&#45;&gt;Node16 -->
<g id="edge46_Node000030_Node000016" class="edge">
<title>Node30&#45;&gt;Node16</title>
<g id="a_edge46_Node000030_Node000016"><a xlink:title=" ">
<path fill="none" stroke="#63b8ff" d="M714.99,-392.15C622.9,-389.11 485.54,-379.41 443.5,-349 399.69,-317.3 403.34,-291.76 391.5,-239 389.65,-230.76 385.98,-226.39 391.5,-220 399.09,-211.21 537.91,-193.59 624.66,-183.36"/>
<polygon fill="#63b8ff" stroke="#63b8ff" points="625.19,-186.82 634.71,-182.18 624.37,-179.87 625.19,-186.82"/>
</a>
</g>
</g>
<!-- Node30&#45;&gt;Node22 -->
<g id="edge39_Node000030_Node000022" class="edge">
<title>Node30&#45;&gt;Node22</title>
<g id="a_edge39_Node000030_Node000022"><a xlink:title=" ">
<path fill="none" stroke="#63b8ff" d="M890.15,-392.93C1130.2,-390.22 1780.5,-374.65 1780.5,-285.5 1780.5,-285.5 1780.5,-285.5 1780.5,-228.5 1780.5,-179.18 1735.81,-181.97 1689.5,-165 1610.64,-136.09 1358.58,-125.06 1257.26,-121.72"/>
<polygon fill="#63b8ff" stroke="#63b8ff" points="1257.2,-118.22 1247.09,-121.39 1256.97,-125.21 1257.2,-118.22"/>
</a>
</g>
</g>
<!-- Node31 -->
<g id="Node000031" class="node">
<title>Node31</title>
<g id="a_Node000031"><a xlink:title=" ">
<polygon fill="#e0e0e0" stroke="#999999" points="923,-349 840,-349 840,-330 923,-330 923,-349"/>
<text text-anchor="middle" x="881.5" y="-337" font-family="Helvetica,sans-Serif" font-size="10.00">GLFW/glfw3.h</text>
</a>
</g>
</g>
<!-- Node30&#45;&gt;Node31 -->
<g id="edge40_Node000030_Node000031" class="edge">
<title>Node30&#45;&gt;Node31</title>
<g id="a_edge40_Node000030_Node000031"><a xlink:title=" ">
<path fill="none" stroke="#63b8ff" d="M815.19,-384.98C827.33,-376.84 845.86,-364.41 860.25,-354.76"/>
<polygon fill="#63b8ff" stroke="#63b8ff" points="862.22,-357.65 868.58,-349.17 858.32,-351.84 862.22,-357.65"/>
</a>
</g>
</g>
<!-- Node32 -->
<g id="Node000032" class="node">
<title>Node32</title>
<g id="a_Node000032"><a xlink:href="_assert_8hpp.html" target="_top" xlink:title=" ">
<polygon fill="white" stroke="#666666" points="568.5,-349 452.5,-349 452.5,-330 568.5,-330 568.5,-349"/>
<text text-anchor="middle" x="510.5" y="-337" font-family="Helvetica,sans-Serif" font-size="10.00">Common/Assert.hpp</text>
</a>
</g>
</g>
<!-- Node30&#45;&gt;Node32 -->
<g id="edge42_Node000030_Node000032" class="edge">
<title>Node30&#45;&gt;Node32</title>
<g id="a_edge42_Node000030_Node000032"><a xlink:title=" ">
<path fill="none" stroke="#63b8ff" d="M755.59,-384.98C704.44,-375.7 622.58,-360.84 567.7,-350.88"/>
<polygon fill="#63b8ff" stroke="#63b8ff" points="568.25,-347.42 557.78,-349.08 567,-354.31 568.25,-347.42"/>
</a>
</g>
</g>
<!-- Node35 -->
<g id="Node000035" class="node">
<title>Node35</title>
<g id="a_Node000035"><a xlink:href="_box_collider_component_8hpp.html" target="_top" xlink:title=" ">
<polygon fill="white" stroke="#666666" points="1445,-349 1230,-349 1230,-330 1445,-330 1445,-349"/>
<text text-anchor="middle" x="1337.5" y="-337" font-family="Helvetica,sans-Serif" font-size="10.00">Components/BoxColliderComponent.hpp</text>
</a>
</g>
</g>
<!-- Node30&#45;&gt;Node35 -->
<g id="edge47_Node000030_Node000035" class="edge">
<title>Node30&#45;&gt;Node35</title>
<g id="a_edge47_Node000030_Node000035"><a xlink:title=" ">
<path fill="none" stroke="#63b8ff" d="M888.46,-384.98C984.84,-375.44 1140.75,-359.99 1241.17,-350.04"/>
<polygon fill="#63b8ff" stroke="#63b8ff" points="1241.71,-353.51 1251.31,-349.04 1241.02,-346.54 1241.71,-353.51"/>
</a>
</g>
</g>
<!-- Node38 -->
<g id="Node000038" class="node">
<title>Node38</title>
<g id="a_Node000038"><a xlink:href="_camera_component_8hpp.html" target="_top" xlink:title=" ">
<polygon fill="white" stroke="#666666" points="822,-349 625,-349 625,-330 822,-330 822,-349"/>
<text text-anchor="middle" x="723.5" y="-337" font-family="Helvetica,sans-Serif" font-size="10.00">Components/CameraComponent.hpp</text>
</a>
</g>
</g>
<!-- Node30&#45;&gt;Node38 -->
<g id="edge55_Node000030_Node000038" class="edge">
<title>Node30&#45;&gt;Node38</title>
<g id="a_edge55_Node000030_Node000038"><a xlink:title=" ">
<path fill="none" stroke="#63b8ff" d="M789.81,-384.98C777.67,-376.84 759.14,-364.41 744.75,-354.76"/>
<polygon fill="#63b8ff" stroke="#63b8ff" points="746.68,-351.84 736.42,-349.17 742.78,-357.65 746.68,-351.84"/>
</a>
</g>
</g>
<!-- Node32&#45;&gt;Node7 -->
<g id="edge45_Node000032_Node000007" class="edge">
<title>Node32&#45;&gt;Node7</title>
<g id="a_edge45_Node000032_Node000007"><a xlink:title=" ">
<path fill="none" stroke="#63b8ff" d="M501.2,-329.81C492.25,-321.2 478.63,-307.38 468.5,-294 457.38,-279.31 446.79,-261.14 439.63,-248.01"/>
<polygon fill="#63b8ff" stroke="#63b8ff" points="442.66,-246.27 434.87,-239.09 436.49,-249.56 442.66,-246.27"/>
</a>
</g>
</g>
<!-- Node33 -->
<g id="Node000033" class="node">
<title>Node33</title>
<g id="a_Node000033"><a xlink:title=" ">
<polygon fill="#e0e0e0" stroke="#999999" points="544,-294 477,-294 477,-275 544,-275 544,-294"/>
<text text-anchor="middle" x="510.5" y="-282" font-family="Helvetica,sans-Serif" font-size="10.00">fmt/core.h</text>
</a>
</g>
</g>
<!-- Node32&#45;&gt;Node33 -->
<g id="edge43_Node000032_Node000033" class="edge">
<title>Node32&#45;&gt;Node33</title>
<g id="a_edge43_Node000032_Node000033"><a xlink:title=" ">
<path fill="none" stroke="#63b8ff" d="M510.5,-329.75C510.5,-322.8 510.5,-312.85 510.5,-304.13"/>
<polygon fill="#63b8ff" stroke="#63b8ff" points="514,-304.09 510.5,-294.09 507,-304.09 514,-304.09"/>
</a>
</g>
</g>
<!-- Node34 -->
<g id="Node000034" class="node">
<title>Node34</title>
<g id="a_Node000034"><a xlink:title=" ">
<polygon fill="#e0e0e0" stroke="#999999" points="627,-294 562,-294 562,-275 627,-275 627,-294"/>
<text text-anchor="middle" x="594.5" y="-282" font-family="Helvetica,sans-Serif" font-size="10.00">exception</text>
</a>
</g>
</g>
<!-- Node32&#45;&gt;Node34 -->
<g id="edge44_Node000032_Node000034" class="edge">
<title>Node32&#45;&gt;Node34</title>
<g id="a_edge44_Node000032_Node000034"><a xlink:title=" ">
<path fill="none" stroke="#63b8ff" d="M524,-329.98C536.9,-321.84 556.6,-309.41 571.9,-299.76"/>
<polygon fill="#63b8ff" stroke="#63b8ff" points="574.17,-302.47 580.76,-294.17 570.43,-296.55 574.17,-302.47"/>
</a>
</g>
</g>
<!-- Node35&#45;&gt;Node5 -->
<g id="edge50_Node000035_Node000005" class="edge">
<title>Node35&#45;&gt;Node5</title>
<g id="a_edge50_Node000035_Node000005"><a xlink:title=" ">
<path fill="none" stroke="#63b8ff" d="M1274.04,-329.98C1203.74,-320.55 1090.55,-305.36 1016.34,-295.41"/>
<polygon fill="#63b8ff" stroke="#63b8ff" points="1016.51,-291.9 1006.13,-294.04 1015.58,-298.84 1016.51,-291.9"/>
</a>
</g>
</g>
<!-- Node35&#45;&gt;Node6 -->
<g id="edge48_Node000035_Node000006" class="edge">
<title>Node35&#45;&gt;Node6</title>
<g id="a_edge48_Node000035_Node000006"><a xlink:title=" ">
<path fill="none" stroke="#63b8ff" d="M1338.73,-329.66C1341.16,-312.17 1346.62,-272.8 1349.89,-249.27"/>
<polygon fill="#63b8ff" stroke="#63b8ff" points="1353.39,-249.54 1351.3,-239.16 1346.45,-248.58 1353.39,-249.54"/>
</a>
</g>
</g>
<!-- Node35&#45;&gt;Node27 -->
<g id="edge49_Node000035_Node000027" class="edge">
<title>Node35&#45;&gt;Node27</title>
<g id="a_edge49_Node000035_Node000027"><a xlink:title=" ">
<path fill="none" stroke="#63b8ff" d="M1380.23,-329.96C1414.49,-322.44 1463.46,-310.17 1504.5,-294 1539.54,-280.19 1577.53,-258.67 1600.92,-244.58"/>
<polygon fill="#63b8ff" stroke="#63b8ff" points="1603,-247.41 1609.72,-239.21 1599.36,-241.43 1603,-247.41"/>
</a>
</g>
</g>
<!-- Node36 -->
<g id="Node000036" class="node">
<title>Node36</title>
<g id="a_Node000036"><a xlink:href="_a_a_b_b_8hpp.html" target="_top" xlink:title=" ">
<polygon fill="white" stroke="#666666" points="1495.5,-294 1403.5,-294 1403.5,-275 1495.5,-275 1495.5,-294"/>
<text text-anchor="middle" x="1449.5" y="-282" font-family="Helvetica,sans-Serif" font-size="10.00">Math/AABB.hpp</text>
</a>
</g>
</g>
<!-- Node35&#45;&gt;Node36 -->
<g id="edge51_Node000035_Node000036" class="edge">
<title>Node35&#45;&gt;Node36</title>
<g id="a_edge51_Node000035_Node000036"><a xlink:title=" ">
<path fill="none" stroke="#63b8ff" d="M1355.49,-329.98C1373.43,-321.5 1401.22,-308.35 1421.93,-298.54"/>
<polygon fill="#63b8ff" stroke="#63b8ff" points="1423.64,-301.61 1431.18,-294.17 1420.64,-295.28 1423.64,-301.61"/>
</a>
</g>
</g>
<!-- Node36&#45;&gt;Node8 -->
<g id="edge52_Node000036_Node000008" class="edge">
<title>Node36&#45;&gt;Node8</title>
<g id="a_edge52_Node000036_Node000008"><a xlink:title=" ">
<path fill="none" stroke="#63b8ff" d="M1460.66,-274.92C1475.63,-262.38 1498.85,-238.5 1485.5,-220 1466.32,-193.42 1430.61,-182.46 1400.87,-178.06"/>
<polygon fill="#63b8ff" stroke="#63b8ff" points="1401,-174.55 1390.64,-176.77 1400.12,-181.5 1401,-174.55"/>
</a>
</g>
</g>
<!-- Node37 -->
<g id="Node000037" class="node">
<title>Node37</title>
<g id="a_Node000037"><a xlink:href="_ray_8hpp.html" target="_top" xlink:title=" ">
<polygon fill="white" stroke="#666666" points="1476,-239 1393,-239 1393,-220 1476,-220 1476,-239"/>
<text text-anchor="middle" x="1434.5" y="-227" font-family="Helvetica,sans-Serif" font-size="10.00">Math/Ray.hpp</text>
</a>
</g>
</g>
<!-- Node36&#45;&gt;Node37 -->
<g id="edge53_Node000036_Node000037" class="edge">
<title>Node36&#45;&gt;Node37</title>
<g id="a_edge53_Node000036_Node000037"><a xlink:title=" ">
<path fill="none" stroke="#63b8ff" d="M1447.02,-274.75C1445.04,-267.72 1442.18,-257.62 1439.69,-248.84"/>
<polygon fill="#63b8ff" stroke="#63b8ff" points="1443.02,-247.76 1436.93,-239.09 1436.29,-249.66 1443.02,-247.76"/>
</a>
</g>
</g>
<!-- Node37&#45;&gt;Node8 -->
<g id="edge54_Node000037_Node000008" class="edge">
<title>Node37&#45;&gt;Node8</title>
<g id="a_edge54_Node000037_Node000008"><a xlink:title=" ">
<path fill="none" stroke="#63b8ff" d="M1421.16,-219.98C1408.41,-211.84 1388.95,-199.41 1373.83,-189.76"/>
<polygon fill="#63b8ff" stroke="#63b8ff" points="1375.39,-186.6 1365.08,-184.17 1371.62,-192.5 1375.39,-186.6"/>
</a>
</g>
</g>
<!-- Node38&#45;&gt;Node5 -->
<g id="edge57_Node000038_Node000005" class="edge">
<title>Node38&#45;&gt;Node5</title>
<g id="a_edge57_Node000038_Node000005"><a xlink:title=" ">
<path fill="none" stroke="#63b8ff" d="M758.69,-329.98C796.33,-320.87 856.16,-306.4 897.27,-296.45"/>
<polygon fill="#63b8ff" stroke="#63b8ff" points="898.14,-299.84 907.04,-294.08 896.5,-293.03 898.14,-299.84"/>
</a>
</g>
</g>
<!-- Node38&#45;&gt;Node8 -->
<g id="edge56_Node000038_Node000008" class="edge">
<title>Node38&#45;&gt;Node8</title>
<g id="a_edge56_Node000038_Node000008"><a xlink:title=" ">
<path fill="none" stroke="#63b8ff" d="M714.07,-329.82C698.86,-316.25 667.46,-290.01 636.5,-275 580.41,-247.82 464.6,-265.22 507.5,-220 534.98,-191.04 1125.88,-179.16 1302.24,-176.25"/>
<polygon fill="#63b8ff" stroke="#63b8ff" points="1302.33,-179.75 1312.28,-176.08 1302.22,-172.75 1302.33,-179.75"/>
</a>
</g>
</g>
<!-- Node38&#45;&gt;Node37 -->
<g id="edge58_Node000038_Node000037" class="edge">
<title>Node38&#45;&gt;Node37</title>
<g id="a_edge58_Node000038_Node000037"><a xlink:title=" ">
<path fill="none" stroke="#63b8ff" d="M791.95,-329.99C859.14,-321.48 964.5,-307.72 1055.5,-294 1172.61,-276.35 1309.55,-252.64 1382.5,-239.77"/>
<polygon fill="#63b8ff" stroke="#63b8ff" points="1383.55,-243.14 1392.79,-237.95 1382.33,-236.24 1383.55,-243.14"/>
</a>
</g>
</g>
</g>
</svg>
