<?xml version="1.0" encoding="UTF-8" standalone="no"?>
<!DOCTYPE svg PUBLIC "-//W3C//DTD SVG 1.1//EN"
 "http://www.w3.org/Graphics/SVG/1.1/DTD/svg11.dtd">
<!-- Generated by graphviz version 2.43.0 (0)
 -->
<!-- Title: src/Components/CameraComponent.hpp Pages: 1 -->
<svg width="799pt" height="274pt"
 viewBox="0.00 0.00 799.29 274.00" xmlns="http://www.w3.org/2000/svg" xmlns:xlink="http://www.w3.org/1999/xlink">
<g id="graph0" class="graph" transform="scale(1 1) rotate(0) translate(4 270)">
<title>src/Components/CameraComponent.hpp</title>
<polygon fill="white" stroke="transparent" points="-4,4 -4,-270 795.29,-270 795.29,4 -4,4"/>
<!-- Node1 -->
<g id="node1" class="node">
<title>Node1</title>
<g id="a_node1"><a xlink:title=" ">
<polygon fill="#bfbfbf" stroke="black" points="94.29,-246.5 94.29,-265.5 308.29,-265.5 308.29,-246.5 94.29,-246.5"/>
<text text-anchor="middle" x="201.29" y="-253.5" font-family="Helvetica,sans-Serif" font-size="10.00">src/Components/CameraComponent.hpp</text>
</a>
</g>
</g>
<!-- Node2 -->
<g id="node2" class="node">
<title>Node2</title>
<g id="a_node2"><a xlink:href="_directional_light_component_8hpp.html" target="_top" xlink:title=" ">
<polygon fill="white" stroke="black" points="125.29,-179.5 125.29,-209.5 277.29,-209.5 277.29,-179.5 125.29,-179.5"/>
<text text-anchor="start" x="133.29" y="-197.5" font-family="Helvetica,sans-Serif" font-size="10.00">src/Components/Directional</text>
<text text-anchor="middle" x="201.29" y="-186.5" font-family="Helvetica,sans-Serif" font-size="10.00">LightComponent.hpp</text>
</a>
</g>
</g>
<!-- Node1&#45;&gt;Node2 -->
<g id="edge1" class="edge">
<title>Node1&#45;&gt;Node2</title>
<path fill="none" stroke="midnightblue" d="M201.29,-236.23C201.29,-227.59 201.29,-217.5 201.29,-209.52"/>
<polygon fill="midnightblue" stroke="midnightblue" points="197.79,-236.48 201.29,-246.48 204.79,-236.48 197.79,-236.48"/>
</g>
<!-- Node3 -->
<g id="node3" class="node">
<title>Node3</title>
<g id="a_node3"><a xlink:href="main_8cpp.html" target="_top" xlink:title=" ">
<polygon fill="white" stroke="black" points="21.79,-118 21.79,-137 100.79,-137 100.79,-118 21.79,-118"/>
<text text-anchor="middle" x="61.29" y="-125" font-family="Helvetica,sans-Serif" font-size="10.00">src/main.cpp</text>
</a>
</g>
</g>
<!-- Node1&#45;&gt;Node3 -->
<g id="edge11" class="edge">
<title>Node1&#45;&gt;Node3</title>
<path fill="none" stroke="midnightblue" d="M168.63,-242.28C151.75,-234.63 131.55,-223.71 116.29,-210 91.91,-188.09 73.17,-153.2 65.32,-137.13"/>
<polygon fill="midnightblue" stroke="midnightblue" points="167.55,-245.62 178.12,-246.4 170.34,-239.2 167.55,-245.62"/>
</g>
<!-- Node4 -->
<g id="node4" class="node">
<title>Node4</title>
<g id="a_node4"><a xlink:href="_rendering_system_8cpp.html" target="_top" xlink:title=" ">
<polygon fill="white" stroke="black" points="344.79,-56.5 344.79,-75.5 529.79,-75.5 529.79,-56.5 344.79,-56.5"/>
<text text-anchor="middle" x="437.29" y="-63.5" font-family="Helvetica,sans-Serif" font-size="10.00">src/Systems/RenderingSystem.cpp</text>
</a>
</g>
</g>
<!-- Node1&#45;&gt;Node4 -->
<g id="edge13" class="edge">
<title>Node1&#45;&gt;Node4</title>
<path fill="none" stroke="midnightblue" d="M160.87,-243.36C90.95,-221.32 -40.3,-170.45 12.29,-112 34.1,-87.76 226.27,-75.6 344.61,-70.35"/>
<polygon fill="midnightblue" stroke="midnightblue" points="160.13,-246.79 170.71,-246.4 162.19,-240.1 160.13,-246.79"/>
</g>
<!-- Node11 -->
<g id="node11" class="node">
<title>Node11</title>
<g id="a_node11"><a xlink:href="_object_selection_system_8cpp.html" target="_top" xlink:title=" ">
<polygon fill="white" stroke="black" points="295.79,-179.5 295.79,-209.5 450.79,-209.5 450.79,-179.5 295.79,-179.5"/>
<text text-anchor="start" x="303.79" y="-197.5" font-family="Helvetica,sans-Serif" font-size="10.00">src/Systems/ObjectSelection</text>
<text text-anchor="middle" x="373.29" y="-186.5" font-family="Helvetica,sans-Serif" font-size="10.00">System.cpp</text>
</a>
</g>
</g>
<!-- Node1&#45;&gt;Node11 -->
<g id="edge12" class="edge">
<title>Node1&#45;&gt;Node11</title>
<path fill="none" stroke="midnightblue" d="M235.68,-243.1C263.67,-233.42 303.23,-219.74 332.76,-209.52"/>
<polygon fill="midnightblue" stroke="midnightblue" points="234.24,-239.9 225.94,-246.48 236.53,-246.51 234.24,-239.9"/>
</g>
<!-- Node12 -->
<g id="node12" class="node">
<title>Node12</title>
<g id="a_node12"><a xlink:href="_scene_widget_8cpp.html" target="_top" xlink:title=" ">
<polygon fill="white" stroke="black" points="468.79,-185 468.79,-204 639.79,-204 639.79,-185 468.79,-185"/>
<text text-anchor="middle" x="554.29" y="-192" font-family="Helvetica,sans-Serif" font-size="10.00">src/ui/widgets/SceneWidget.cpp</text>
</a>
</g>
</g>
<!-- Node1&#45;&gt;Node12 -->
<g id="edge14" class="edge">
<title>Node1&#45;&gt;Node12</title>
<path fill="none" stroke="midnightblue" d="M262.05,-244.76C330.36,-233.25 440.03,-214.76 503.81,-204.01"/>
<polygon fill="midnightblue" stroke="midnightblue" points="261.15,-241.36 251.87,-246.48 262.31,-248.26 261.15,-241.36"/>
</g>
<!-- Node2&#45;&gt;Node3 -->
<g id="edge2" class="edge">
<title>Node2&#45;&gt;Node3</title>
<path fill="none" stroke="midnightblue" d="M161.73,-175.13C134.78,-162.62 100.36,-146.64 79.62,-137.01"/>
<polygon fill="midnightblue" stroke="midnightblue" points="160.37,-178.36 170.91,-179.4 163.32,-172.01 160.37,-178.36"/>
</g>
<!-- Node2&#45;&gt;Node4 -->
<g id="edge3" class="edge">
<title>Node2&#45;&gt;Node4</title>
<path fill="none" stroke="midnightblue" d="M287.48,-178.45C356.29,-166.02 442.06,-149.42 447.29,-143 463.27,-123.41 450.02,-91.03 442.13,-75.64"/>
<polygon fill="midnightblue" stroke="midnightblue" points="286.69,-175.04 277.46,-180.25 287.92,-181.93 286.69,-175.04"/>
</g>
<!-- Node5 -->
<g id="node5" class="node">
<title>Node5</title>
<g id="a_node5"><a xlink:href="_rendering_system_8hpp.html" target="_top" xlink:title=" ">
<polygon fill="white" stroke="black" points="495.29,-118 495.29,-137 681.29,-137 681.29,-118 495.29,-118"/>
<text text-anchor="middle" x="588.29" y="-125" font-family="Helvetica,sans-Serif" font-size="10.00">src/Systems/RenderingSystem.hpp</text>
</a>
</g>
</g>
<!-- Node2&#45;&gt;Node5 -->
<g id="edge4" class="edge">
<title>Node2&#45;&gt;Node5</title>
<path fill="none" stroke="midnightblue" d="M287.67,-178.77C381.31,-162.97 478.95,-146.68 536.99,-137.03"/>
<polygon fill="midnightblue" stroke="midnightblue" points="287.02,-175.33 277.75,-180.45 288.19,-182.23 287.02,-175.33"/>
</g>
<!-- Node9 -->
<g id="node9" class="node">
<title>Node9</title>
<g id="a_node9"><a xlink:href="_directional_light_component_u_i_8hpp.html" target="_top" xlink:title=" ">
<polygon fill="white" stroke="black" points="119.29,-112.5 119.29,-142.5 283.29,-142.5 283.29,-112.5 119.29,-112.5"/>
<text text-anchor="start" x="127.29" y="-130.5" font-family="Helvetica,sans-Serif" font-size="10.00">src/ui/Components/Directional</text>
<text text-anchor="middle" x="201.29" y="-119.5" font-family="Helvetica,sans-Serif" font-size="10.00">LightComponentUI.hpp</text>
</a>
</g>
</g>
<!-- Node2&#45;&gt;Node9 -->
<g id="edge9" class="edge">
<title>Node2&#45;&gt;Node9</title>
<path fill="none" stroke="midnightblue" d="M201.29,-169.11C201.29,-160.15 201.29,-150.32 201.29,-142.58"/>
<polygon fill="midnightblue" stroke="midnightblue" points="197.79,-169.4 201.29,-179.4 204.79,-169.4 197.79,-169.4"/>
</g>
<!-- Node10 -->
<g id="node10" class="node">
<title>Node10</title>
<g id="a_node10"><a xlink:href="_properties_widget_8cpp.html" target="_top" xlink:title=" ">
<polygon fill="white" stroke="black" points="301.79,-112.5 301.79,-142.5 438.79,-142.5 438.79,-112.5 301.79,-112.5"/>
<text text-anchor="start" x="309.79" y="-130.5" font-family="Helvetica,sans-Serif" font-size="10.00">src/ui/widgets/Properties</text>
<text text-anchor="middle" x="370.29" y="-119.5" font-family="Helvetica,sans-Serif" font-size="10.00">Widget.cpp</text>
</a>
</g>
</g>
<!-- Node2&#45;&gt;Node10 -->
<g id="edge10" class="edge">
<title>Node2&#45;&gt;Node10</title>
<path fill="none" stroke="midnightblue" d="M247.62,-175.68C274.73,-165.26 308.46,-152.28 333.69,-142.58"/>
<polygon fill="midnightblue" stroke="midnightblue" points="246.04,-172.54 237.96,-179.4 248.55,-179.07 246.04,-172.54"/>
</g>
<!-- Node5&#45;&gt;Node4 -->
<g id="edge8" class="edge">
<title>Node5&#45;&gt;Node4</title>
<path fill="none" stroke="midnightblue" d="M557.29,-114.28C527.94,-102.72 484.66,-85.66 458.89,-75.51"/>
<polygon fill="midnightblue" stroke="midnightblue" points="556.07,-117.57 566.66,-117.98 558.64,-111.05 556.07,-117.57"/>
</g>
<!-- Node6 -->
<g id="node6" class="node">
<title>Node6</title>
<g id="a_node6"><a xlink:href="_runtime_8hpp.html" target="_top" xlink:title=" ">
<polygon fill="white" stroke="black" points="548.29,-56.5 548.29,-75.5 688.29,-75.5 688.29,-56.5 548.29,-56.5"/>
<text text-anchor="middle" x="618.29" y="-63.5" font-family="Helvetica,sans-Serif" font-size="10.00">src/Runtime/Runtime.hpp</text>
</a>
</g>
</g>
<!-- Node5&#45;&gt;Node6 -->
<g id="edge5" class="edge">
<title>Node5&#45;&gt;Node6</title>
<path fill="none" stroke="midnightblue" d="M597.2,-108.83C602.75,-97.83 609.64,-84.16 614,-75.51"/>
<polygon fill="midnightblue" stroke="midnightblue" points="593.97,-107.47 592.59,-117.98 600.22,-110.62 593.97,-107.47"/>
</g>
<!-- Node7 -->
<g id="node7" class="node">
<title>Node7</title>
<g id="a_node7"><a xlink:href="_runtime_8cpp.html" target="_top" xlink:title=" ">
<polygon fill="white" stroke="black" points="461.29,-0.5 461.29,-19.5 601.29,-19.5 601.29,-0.5 461.29,-0.5"/>
<text text-anchor="middle" x="531.29" y="-7.5" font-family="Helvetica,sans-Serif" font-size="10.00">src/Runtime/Runtime.cpp</text>
</a>
</g>
</g>
<!-- Node6&#45;&gt;Node7 -->
<g id="edge6" class="edge">
<title>Node6&#45;&gt;Node7</title>
<path fill="none" stroke="midnightblue" d="M595.58,-50.9C579.62,-41 558.8,-28.07 545.24,-19.65"/>
<polygon fill="midnightblue" stroke="midnightblue" points="593.97,-54.02 604.31,-56.32 597.66,-48.08 593.97,-54.02"/>
</g>
<!-- Node8 -->
<g id="node8" class="node">
<title>Node8</title>
<g id="a_node8"><a xlink:href="_scene_widget_8hpp.html" target="_top" xlink:title="Contains the declaration of the SceneWidget class, a user interface widget for rendering scenes.">
<polygon fill="white" stroke="black" points="619.29,-0.5 619.29,-19.5 791.29,-19.5 791.29,-0.5 619.29,-0.5"/>
<text text-anchor="middle" x="705.29" y="-7.5" font-family="Helvetica,sans-Serif" font-size="10.00">src/ui/widgets/SceneWidget.hpp</text>
</a>
</g>
</g>
<!-- Node6&#45;&gt;Node8 -->
<g id="edge7" class="edge">
<title>Node6&#45;&gt;Node8</title>
<path fill="none" stroke="midnightblue" d="M641.01,-50.9C656.96,-41 677.79,-28.07 691.35,-19.65"/>
<polygon fill="midnightblue" stroke="midnightblue" points="638.92,-48.08 632.27,-56.32 642.61,-54.02 638.92,-48.08"/>
</g>
</g>
</svg>
