<?xml version="1.0" encoding="UTF-8" standalone="no"?>
<!DOCTYPE svg PUBLIC "-//W3C//DTD SVG 1.1//EN"
 "http://www.w3.org/Graphics/SVG/1.1/DTD/svg11.dtd">
<!-- Generated by graphviz version 2.43.0 (0)
 -->
<!-- Title: src/Systems/CameraMovementSystem.cpp Pages: 1 -->
<svg width="1213pt" height="375pt"
 viewBox="0.00 0.00 1213.00 375.00" xmlns="http://www.w3.org/2000/svg" xmlns:xlink="http://www.w3.org/1999/xlink">
<g id="graph0" class="graph" transform="scale(1 1) rotate(0) translate(4 371)">
<title>src/Systems/CameraMovementSystem.cpp</title>
<polygon fill="white" stroke="transparent" points="-4,4 -4,-371 1209,-371 1209,4 -4,4"/>
<!-- Node1 -->
<g id="node1" class="node">
<title>Node1</title>
<g id="a_node1"><a xlink:title=" ">
<polygon fill="#bfbfbf" stroke="black" points="519,-336.5 519,-366.5 689,-366.5 689,-336.5 519,-336.5"/>
<text text-anchor="start" x="527" y="-354.5" font-family="Helvetica,sans-Serif" font-size="10.00">src/Systems/CameraMovement</text>
<text text-anchor="middle" x="604" y="-343.5" font-family="Helvetica,sans-Serif" font-size="10.00">System.cpp</text>
</a>
</g>
</g>
<!-- Node2 -->
<g id="node2" class="node">
<title>Node2</title>
<g id="a_node2"><a xlink:href="_camera_movement_system_8hpp.html" target="_top" xlink:title=" ">
<polygon fill="white" stroke="black" points="89,-280.5 89,-299.5 299,-299.5 299,-280.5 89,-280.5"/>
<text text-anchor="middle" x="194" y="-287.5" font-family="Helvetica,sans-Serif" font-size="10.00">Systems/CameraMovementSystem.hpp</text>
</a>
</g>
</g>
<!-- Node1&#45;&gt;Node2 -->
<g id="edge1" class="edge">
<title>Node1&#45;&gt;Node2</title>
<path fill="none" stroke="midnightblue" d="M518.55,-338.1C442.72,-327.09 333.35,-311.22 262.96,-301.01"/>
<polygon fill="midnightblue" stroke="midnightblue" points="263.27,-297.52 252.87,-299.54 262.27,-304.44 263.27,-297.52"/>
</g>
<!-- Node14 -->
<g id="node14" class="node">
<title>Node14</title>
<g id="a_node14"><a xlink:href="_input_manager_8hpp.html" target="_top" xlink:title=" ">
<polygon fill="white" stroke="black" points="294.5,-224.5 294.5,-243.5 469.5,-243.5 469.5,-224.5 294.5,-224.5"/>
<text text-anchor="middle" x="382" y="-231.5" font-family="Helvetica,sans-Serif" font-size="10.00">InputManager/InputManager.hpp</text>
</a>
</g>
</g>
<!-- Node1&#45;&gt;Node14 -->
<g id="edge18" class="edge">
<title>Node1&#45;&gt;Node14</title>
<path fill="none" stroke="midnightblue" d="M576.78,-336.34C533.49,-313.82 449.56,-270.15 407.43,-248.23"/>
<polygon fill="midnightblue" stroke="midnightblue" points="408.87,-245.03 398.38,-243.52 405.64,-251.24 408.87,-245.03"/>
</g>
<!-- Node17 -->
<g id="node17" class="node">
<title>Node17</title>
<g id="a_node17"><a xlink:href="_transform_component_8hpp.html" target="_top" xlink:title=" ">
<polygon fill="white" stroke="black" points="575.5,-280.5 575.5,-299.5 782.5,-299.5 782.5,-280.5 575.5,-280.5"/>
<text text-anchor="middle" x="679" y="-287.5" font-family="Helvetica,sans-Serif" font-size="10.00">Components/TransformComponent.hpp</text>
</a>
</g>
</g>
<!-- Node1&#45;&gt;Node17 -->
<g id="edge22" class="edge">
<title>Node1&#45;&gt;Node17</title>
<path fill="none" stroke="midnightblue" d="M621.77,-336.4C633.35,-327.22 648.42,-315.26 660.2,-305.92"/>
<polygon fill="midnightblue" stroke="midnightblue" points="662.43,-308.61 668.09,-299.66 658.08,-303.13 662.43,-308.61"/>
</g>
<!-- Node24 -->
<g id="node24" class="node">
<title>Node24</title>
<g id="a_node24"><a xlink:title=" ">
<polygon fill="white" stroke="#bfbfbf" points="801,-280.5 801,-299.5 861,-299.5 861,-280.5 801,-280.5"/>
<text text-anchor="middle" x="831" y="-287.5" font-family="Helvetica,sans-Serif" font-size="10.00">iostream</text>
</a>
</g>
</g>
<!-- Node1&#45;&gt;Node24 -->
<g id="edge32" class="edge">
<title>Node1&#45;&gt;Node24</title>
<path fill="none" stroke="midnightblue" d="M657.51,-336.47C698.36,-325.77 753.77,-311.24 790.88,-301.52"/>
<polygon fill="midnightblue" stroke="midnightblue" points="792.04,-304.83 800.83,-298.91 790.27,-298.06 792.04,-304.83"/>
</g>
<!-- Node3 -->
<g id="node3" class="node">
<title>Node3</title>
<g id="a_node3"><a xlink:title=" ">
<polygon fill="white" stroke="#bfbfbf" points="69,-224.5 69,-243.5 127,-243.5 127,-224.5 69,-224.5"/>
<text text-anchor="middle" x="98" y="-231.5" font-family="Helvetica,sans-Serif" font-size="10.00">memory</text>
</a>
</g>
</g>
<!-- Node2&#45;&gt;Node3 -->
<g id="edge2" class="edge">
<title>Node2&#45;&gt;Node3</title>
<path fill="none" stroke="midnightblue" d="M178.58,-280.32C163.46,-271.82 140.18,-258.73 122.53,-248.8"/>
<polygon fill="midnightblue" stroke="midnightblue" points="123.82,-245.51 113.39,-243.65 120.39,-251.61 123.82,-245.51"/>
</g>
<!-- Node4 -->
<g id="node4" class="node">
<title>Node4</title>
<g id="a_node4"><a xlink:href="_registry_8hpp.html" target="_top" xlink:title=" ">
<polygon fill="white" stroke="black" points="145,-224.5 145,-243.5 243,-243.5 243,-224.5 145,-224.5"/>
<text text-anchor="middle" x="194" y="-231.5" font-family="Helvetica,sans-Serif" font-size="10.00">ECS/Registry.hpp</text>
</a>
</g>
</g>
<!-- Node2&#45;&gt;Node4 -->
<g id="edge3" class="edge">
<title>Node2&#45;&gt;Node4</title>
<path fill="none" stroke="midnightblue" d="M194,-280.08C194,-273.01 194,-262.86 194,-253.99"/>
<polygon fill="midnightblue" stroke="midnightblue" points="197.5,-253.75 194,-243.75 190.5,-253.75 197.5,-253.75"/>
</g>
<!-- Node5 -->
<g id="node5" class="node">
<title>Node5</title>
<g id="a_node5"><a xlink:title=" ">
<polygon fill="white" stroke="#bfbfbf" points="184,-112.5 184,-131.5 270,-131.5 270,-112.5 184,-112.5"/>
<text text-anchor="middle" x="227" y="-119.5" font-family="Helvetica,sans-Serif" font-size="10.00">unordered_set</text>
</a>
</g>
</g>
<!-- Node4&#45;&gt;Node5 -->
<g id="edge4" class="edge">
<title>Node4&#45;&gt;Node5</title>
<path fill="none" stroke="midnightblue" d="M196.53,-224.15C200.13,-211.63 206.96,-188.04 213,-168 215.66,-159.18 218.69,-149.41 221.25,-141.23"/>
<polygon fill="midnightblue" stroke="midnightblue" points="224.61,-142.2 224.27,-131.61 217.94,-140.1 224.61,-142.2"/>
</g>
<!-- Node6 -->
<g id="node6" class="node">
<title>Node6</title>
<g id="a_node6"><a xlink:href="_entity_8hpp.html" target="_top" xlink:title=" ">
<polygon fill="white" stroke="black" points="113,-56.5 113,-75.5 199,-75.5 199,-56.5 113,-56.5"/>
<text text-anchor="middle" x="156" y="-63.5" font-family="Helvetica,sans-Serif" font-size="10.00">ECS/Entity.hpp</text>
</a>
</g>
</g>
<!-- Node4&#45;&gt;Node6 -->
<g id="edge5" class="edge">
<title>Node4&#45;&gt;Node6</title>
<path fill="none" stroke="midnightblue" d="M191.96,-224.08C185.98,-197.95 168.41,-121.21 160.25,-85.58"/>
<polygon fill="midnightblue" stroke="midnightblue" points="163.6,-84.53 157.96,-75.57 156.78,-86.1 163.6,-84.53"/>
</g>
<!-- Node8 -->
<g id="node8" class="node">
<title>Node8</title>
<g id="a_node8"><a xlink:href="_entity_hierarchy_8hpp.html" target="_top" xlink:title=" ">
<polygon fill="white" stroke="black" points="222,-168.5 222,-187.5 356,-187.5 356,-168.5 222,-168.5"/>
<text text-anchor="middle" x="289" y="-175.5" font-family="Helvetica,sans-Serif" font-size="10.00">ECS/EntityHierarchy.hpp</text>
</a>
</g>
</g>
<!-- Node4&#45;&gt;Node8 -->
<g id="edge7" class="edge">
<title>Node4&#45;&gt;Node8</title>
<path fill="none" stroke="midnightblue" d="M209.26,-224.32C224.22,-215.82 247.25,-202.73 264.73,-192.8"/>
<polygon fill="midnightblue" stroke="midnightblue" points="266.81,-195.64 273.77,-187.65 263.35,-189.55 266.81,-195.64"/>
</g>
<!-- Node11 -->
<g id="node11" class="node">
<title>Node11</title>
<g id="a_node11"><a xlink:href="_entity_provider_8hpp.html" target="_top" xlink:title="Manages a pool of unused entity identifiers and provides mechanisms for requesting and removing them.">
<polygon fill="white" stroke="black" points="0,-112.5 0,-131.5 128,-131.5 128,-112.5 0,-112.5"/>
<text text-anchor="middle" x="64" y="-119.5" font-family="Helvetica,sans-Serif" font-size="10.00">ECS/EntityProvider.hpp</text>
</a>
</g>
</g>
<!-- Node4&#45;&gt;Node11 -->
<g id="edge12" class="edge">
<title>Node4&#45;&gt;Node11</title>
<path fill="none" stroke="midnightblue" d="M146.54,-224.45C95.19,-214.72 19.45,-198.78 11,-188 -3.01,-170.13 19.71,-149.92 39.61,-136.84"/>
<polygon fill="midnightblue" stroke="midnightblue" points="41.5,-139.79 48.14,-131.54 37.8,-133.85 41.5,-139.79"/>
</g>
<!-- Node13 -->
<g id="node13" class="node">
<title>Node13</title>
<g id="a_node13"><a xlink:href="_sparse_set_8hpp.html" target="_top" xlink:title=" ">
<polygon fill="white" stroke="black" points="20,-168.5 20,-187.5 128,-187.5 128,-168.5 20,-168.5"/>
<text text-anchor="middle" x="74" y="-175.5" font-family="Helvetica,sans-Serif" font-size="10.00">ECS/SparseSet.hpp</text>
</a>
</g>
</g>
<!-- Node4&#45;&gt;Node13 -->
<g id="edge16" class="edge">
<title>Node4&#45;&gt;Node13</title>
<path fill="none" stroke="midnightblue" d="M174.99,-224.44C155.41,-215.64 124.69,-201.81 102.27,-191.72"/>
<polygon fill="midnightblue" stroke="midnightblue" points="103.48,-188.43 92.93,-187.52 100.61,-194.81 103.48,-188.43"/>
</g>
<!-- Node7 -->
<g id="node7" class="node">
<title>Node7</title>
<g id="a_node7"><a xlink:title=" ">
<polygon fill="white" stroke="#bfbfbf" points="60.5,-0.5 60.5,-19.5 113.5,-19.5 113.5,-0.5 60.5,-0.5"/>
<text text-anchor="middle" x="87" y="-7.5" font-family="Helvetica,sans-Serif" font-size="10.00">stdlib.h</text>
</a>
</g>
</g>
<!-- Node6&#45;&gt;Node7 -->
<g id="edge6" class="edge">
<title>Node6&#45;&gt;Node7</title>
<path fill="none" stroke="midnightblue" d="M144.91,-56.32C134.51,-48.18 118.74,-35.84 106.28,-26.09"/>
<polygon fill="midnightblue" stroke="midnightblue" points="108.32,-23.24 98.29,-19.83 104.01,-28.75 108.32,-23.24"/>
</g>
<!-- Node8&#45;&gt;Node5 -->
<g id="edge9" class="edge">
<title>Node8&#45;&gt;Node5</title>
<path fill="none" stroke="midnightblue" d="M279.04,-168.32C269.87,-160.34 256.06,-148.31 244.97,-138.65"/>
<polygon fill="midnightblue" stroke="midnightblue" points="246.98,-135.76 237.14,-131.83 242.38,-141.04 246.98,-135.76"/>
</g>
<!-- Node8&#45;&gt;Node6 -->
<g id="edge11" class="edge">
<title>Node8&#45;&gt;Node6</title>
<path fill="none" stroke="midnightblue" d="M290.23,-168.32C291.65,-154.72 292.31,-128.25 279,-112 261.84,-91.05 234.03,-79.86 209.19,-73.87"/>
<polygon fill="midnightblue" stroke="midnightblue" points="209.64,-70.39 199.12,-71.68 208.15,-77.23 209.64,-70.39"/>
</g>
<!-- Node9 -->
<g id="node9" class="node">
<title>Node9</title>
<g id="a_node9"><a xlink:title=" ">
<polygon fill="white" stroke="#bfbfbf" points="445.5,-112.5 445.5,-131.5 510.5,-131.5 510.5,-112.5 445.5,-112.5"/>
<text text-anchor="middle" x="478" y="-119.5" font-family="Helvetica,sans-Serif" font-size="10.00">functional</text>
</a>
</g>
</g>
<!-- Node8&#45;&gt;Node9 -->
<g id="edge8" class="edge">
<title>Node8&#45;&gt;Node9</title>
<path fill="none" stroke="midnightblue" d="M318.95,-168.44C351.16,-159.24 402.53,-144.56 438.14,-134.39"/>
<polygon fill="midnightblue" stroke="midnightblue" points="439.54,-137.63 448.19,-131.52 437.62,-130.9 439.54,-137.63"/>
</g>
<!-- Node10 -->
<g id="node10" class="node">
<title>Node10</title>
<g id="a_node10"><a xlink:title=" ">
<polygon fill="white" stroke="#bfbfbf" points="326.5,-112.5 326.5,-131.5 419.5,-131.5 419.5,-112.5 326.5,-112.5"/>
<text text-anchor="middle" x="373" y="-119.5" font-family="Helvetica,sans-Serif" font-size="10.00">unordered_map</text>
</a>
</g>
</g>
<!-- Node8&#45;&gt;Node10 -->
<g id="edge10" class="edge">
<title>Node8&#45;&gt;Node10</title>
<path fill="none" stroke="midnightblue" d="M302.5,-168.32C315.6,-159.9 335.71,-146.97 351.11,-137.07"/>
<polygon fill="midnightblue" stroke="midnightblue" points="353.02,-140.01 359.54,-131.65 349.23,-134.12 353.02,-140.01"/>
</g>
<!-- Node11&#45;&gt;Node6 -->
<g id="edge15" class="edge">
<title>Node11&#45;&gt;Node6</title>
<path fill="none" stroke="midnightblue" d="M78.78,-112.32C93.27,-103.82 115.57,-90.73 132.49,-80.8"/>
<polygon fill="midnightblue" stroke="midnightblue" points="134.4,-83.74 141.26,-75.65 130.86,-77.7 134.4,-83.74"/>
</g>
<!-- Node11&#45;&gt;Node7 -->
<g id="edge13" class="edge">
<title>Node11&#45;&gt;Node7</title>
<path fill="none" stroke="midnightblue" d="M55.81,-112.09C45.27,-99.49 29.3,-75.81 38,-56 43.39,-43.73 53.96,-33.34 63.9,-25.65"/>
<polygon fill="midnightblue" stroke="midnightblue" points="66.25,-28.27 72.34,-19.6 62.17,-22.58 66.25,-28.27"/>
</g>
<!-- Node12 -->
<g id="node12" class="node">
<title>Node12</title>
<g id="a_node12"><a xlink:title=" ">
<polygon fill="white" stroke="#bfbfbf" points="47.5,-56.5 47.5,-75.5 94.5,-75.5 94.5,-56.5 47.5,-56.5"/>
<text text-anchor="middle" x="71" y="-63.5" font-family="Helvetica,sans-Serif" font-size="10.00">queue</text>
</a>
</g>
</g>
<!-- Node11&#45;&gt;Node12 -->
<g id="edge14" class="edge">
<title>Node11&#45;&gt;Node12</title>
<path fill="none" stroke="midnightblue" d="M65.16,-112.08C66.08,-104.93 67.42,-94.64 68.58,-85.69"/>
<polygon fill="midnightblue" stroke="midnightblue" points="72.05,-86.12 69.87,-75.75 65.11,-85.22 72.05,-86.12"/>
</g>
<!-- Node13&#45;&gt;Node11 -->
<g id="edge17" class="edge">
<title>Node13&#45;&gt;Node11</title>
<path fill="none" stroke="midnightblue" d="M72.35,-168.08C71.02,-160.93 69.12,-150.64 67.46,-141.69"/>
<polygon fill="midnightblue" stroke="midnightblue" points="70.88,-140.95 65.62,-131.75 64,-142.22 70.88,-140.95"/>
</g>
<!-- Node14&#45;&gt;Node9 -->
<g id="edge19" class="edge">
<title>Node14&#45;&gt;Node9</title>
<path fill="none" stroke="midnightblue" d="M411.73,-224.43C430.19,-217.56 452.83,-206.04 466,-188 475.62,-174.82 478.26,-156.23 478.7,-142.31"/>
<polygon fill="midnightblue" stroke="midnightblue" points="482.2,-141.91 478.66,-131.93 475.2,-141.94 482.2,-141.91"/>
</g>
<!-- Node15 -->
<g id="node15" class="node">
<title>Node15</title>
<g id="a_node15"><a xlink:title=" ">
<polygon fill="white" stroke="#bfbfbf" points="374.5,-168.5 374.5,-187.5 457.5,-187.5 457.5,-168.5 374.5,-168.5"/>
<text text-anchor="middle" x="416" y="-175.5" font-family="Helvetica,sans-Serif" font-size="10.00">GLFW/glfw3.h</text>
</a>
</g>
</g>
<!-- Node14&#45;&gt;Node15 -->
<g id="edge20" class="edge">
<title>Node14&#45;&gt;Node15</title>
<path fill="none" stroke="midnightblue" d="M387.61,-224.08C392.37,-216.53 399.32,-205.49 405.15,-196.23"/>
<polygon fill="midnightblue" stroke="midnightblue" points="408.12,-198.08 410.49,-187.75 402.2,-194.35 408.12,-198.08"/>
</g>
<!-- Node16 -->
<g id="node16" class="node">
<title>Node16</title>
<g id="a_node16"><a xlink:title=" ">
<polygon fill="white" stroke="#bfbfbf" points="640,-168.5 640,-187.5 718,-187.5 718,-168.5 640,-168.5"/>
<text text-anchor="middle" x="679" y="-175.5" font-family="Helvetica,sans-Serif" font-size="10.00">glm/glm.hpp</text>
</a>
</g>
</g>
<!-- Node14&#45;&gt;Node16 -->
<g id="edge21" class="edge">
<title>Node14&#45;&gt;Node16</title>
<path fill="none" stroke="midnightblue" d="M429.06,-224.44C483.88,-214.48 574.02,-198.09 629.76,-187.95"/>
<polygon fill="midnightblue" stroke="midnightblue" points="630.53,-191.37 639.75,-186.14 629.28,-184.48 630.53,-191.37"/>
</g>
<!-- Node17&#45;&gt;Node4 -->
<g id="edge29" class="edge">
<title>Node17&#45;&gt;Node4</title>
<path fill="none" stroke="midnightblue" d="M602.42,-280.47C505.62,-269.7 341.05,-251.37 253.28,-241.6"/>
<polygon fill="midnightblue" stroke="midnightblue" points="253.55,-238.11 243.22,-240.48 252.77,-245.07 253.55,-238.11"/>
</g>
<!-- Node17&#45;&gt;Node16 -->
<g id="edge24" class="edge">
<title>Node17&#45;&gt;Node16</title>
<path fill="none" stroke="midnightblue" d="M679,-280.37C679,-262.62 679,-221.67 679,-197.6"/>
<polygon fill="midnightblue" stroke="midnightblue" points="682.5,-197.59 679,-187.59 675.5,-197.59 682.5,-197.59"/>
</g>
<!-- Node18 -->
<g id="node18" class="node">
<title>Node18</title>
<g id="a_node18"><a xlink:title=" ">
<polygon fill="white" stroke="#bfbfbf" points="1013,-224.5 1013,-243.5 1057,-243.5 1057,-224.5 1013,-224.5"/>
<text text-anchor="middle" x="1035" y="-231.5" font-family="Helvetica,sans-Serif" font-size="10.00">string</text>
</a>
</g>
</g>
<!-- Node17&#45;&gt;Node18 -->
<g id="edge23" class="edge">
<title>Node17&#45;&gt;Node18</title>
<path fill="none" stroke="midnightblue" d="M765.47,-280.48C828.85,-273.43 917.08,-261.97 1002.84,-243.99"/>
<polygon fill="midnightblue" stroke="midnightblue" points="1003.69,-247.38 1012.75,-241.88 1002.24,-240.54 1003.69,-247.38"/>
</g>
<!-- Node19 -->
<g id="node19" class="node">
<title>Node19</title>
<g id="a_node19"><a xlink:title=" ">
<polygon fill="white" stroke="#bfbfbf" points="1075,-224.5 1075,-243.5 1205,-243.5 1205,-224.5 1075,-224.5"/>
<text text-anchor="middle" x="1140" y="-231.5" font-family="Helvetica,sans-Serif" font-size="10.00">glm/gtc/quaternion.hpp</text>
</a>
</g>
</g>
<!-- Node17&#45;&gt;Node19 -->
<g id="edge25" class="edge">
<title>Node17&#45;&gt;Node19</title>
<path fill="none" stroke="midnightblue" d="M753.2,-280.49C828.91,-271.78 950.09,-257.76 1064.63,-244.16"/>
<polygon fill="midnightblue" stroke="midnightblue" points="1065.12,-247.63 1074.63,-242.97 1064.29,-240.67 1065.12,-247.63"/>
</g>
<!-- Node20 -->
<g id="node20" class="node">
<title>Node20</title>
<g id="a_node20"><a xlink:title=" ">
<polygon fill="white" stroke="#bfbfbf" points="487.5,-224.5 487.5,-243.5 650.5,-243.5 650.5,-224.5 487.5,-224.5"/>
<text text-anchor="middle" x="569" y="-231.5" font-family="Helvetica,sans-Serif" font-size="10.00">glm/gtc/matrix_transform.hpp</text>
</a>
</g>
</g>
<!-- Node17&#45;&gt;Node20 -->
<g id="edge26" class="edge">
<title>Node17&#45;&gt;Node20</title>
<path fill="none" stroke="midnightblue" d="M661.33,-280.32C643.61,-271.62 616.1,-258.12 595.71,-248.11"/>
<polygon fill="midnightblue" stroke="midnightblue" points="597.15,-244.92 586.63,-243.65 594.06,-251.2 597.15,-244.92"/>
</g>
<!-- Node21 -->
<g id="node21" class="node">
<title>Node21</title>
<g id="a_node21"><a xlink:href="_math_2_utils_8hpp.html" target="_top" xlink:title=" ">
<polygon fill="white" stroke="black" points="707,-224.5 707,-243.5 795,-243.5 795,-224.5 707,-224.5"/>
<text text-anchor="middle" x="751" y="-231.5" font-family="Helvetica,sans-Serif" font-size="10.00">Math/Utils.hpp</text>
</a>
</g>
</g>
<!-- Node17&#45;&gt;Node21 -->
<g id="edge27" class="edge">
<title>Node17&#45;&gt;Node21</title>
<path fill="none" stroke="midnightblue" d="M690.57,-280.32C701.42,-272.18 717.88,-259.84 730.88,-250.09"/>
<polygon fill="midnightblue" stroke="midnightblue" points="733.32,-252.63 739.22,-243.83 729.12,-247.03 733.32,-252.63"/>
</g>
<!-- Node22 -->
<g id="node22" class="node">
<title>Node22</title>
<g id="a_node22"><a xlink:href="_base_component_8hpp.html" target="_top" xlink:title=" ">
<polygon fill="white" stroke="black" points="813,-224.5 813,-243.5 995,-243.5 995,-224.5 813,-224.5"/>
<text text-anchor="middle" x="904" y="-231.5" font-family="Helvetica,sans-Serif" font-size="10.00">Components/BaseComponent.hpp</text>
</a>
</g>
</g>
<!-- Node17&#45;&gt;Node22 -->
<g id="edge30" class="edge">
<title>Node17&#45;&gt;Node22</title>
<path fill="none" stroke="midnightblue" d="M714.65,-280.44C753.66,-271.08 816.27,-256.06 858.72,-245.87"/>
<polygon fill="midnightblue" stroke="midnightblue" points="859.61,-249.25 868.51,-243.52 857.97,-242.45 859.61,-249.25"/>
</g>
<!-- Node21&#45;&gt;Node16 -->
<g id="edge28" class="edge">
<title>Node21&#45;&gt;Node16</title>
<path fill="none" stroke="midnightblue" d="M739.43,-224.32C728.58,-216.18 712.12,-203.84 699.12,-194.09"/>
<polygon fill="midnightblue" stroke="midnightblue" points="700.88,-191.03 690.78,-187.83 696.68,-196.63 700.88,-191.03"/>
</g>
<!-- Node23 -->
<g id="node23" class="node">
<title>Node23</title>
<g id="a_node23"><a xlink:href="_types_8hpp.html" target="_top" xlink:title=" ">
<polygon fill="white" stroke="black" points="847.5,-168.5 847.5,-187.5 960.5,-187.5 960.5,-168.5 847.5,-168.5"/>
<text text-anchor="middle" x="904" y="-175.5" font-family="Helvetica,sans-Serif" font-size="10.00">Common/Types.hpp</text>
</a>
</g>
</g>
<!-- Node22&#45;&gt;Node23 -->
<g id="edge31" class="edge">
<title>Node22&#45;&gt;Node23</title>
<path fill="none" stroke="midnightblue" d="M904,-224.08C904,-217.01 904,-206.86 904,-197.99"/>
<polygon fill="midnightblue" stroke="midnightblue" points="907.5,-197.75 904,-187.75 900.5,-197.75 907.5,-197.75"/>
</g>
</g>
</svg>
