<?xml version="1.0" encoding="UTF-8" standalone="no"?>
<!DOCTYPE svg PUBLIC "-//W3C//DTD SVG 1.1//EN"
 "http://www.w3.org/Graphics/SVG/1.1/DTD/svg11.dtd">
<!-- Generated by graphviz version 2.43.0 (0)
 -->
<!-- Title: src/Components/CameraComponent.hpp Pages: 1 -->
<svg width="858pt" height="274pt"
 viewBox="0.00 0.00 857.82 274.00" xmlns="http://www.w3.org/2000/svg" xmlns:xlink="http://www.w3.org/1999/xlink">
<g id="graph0" class="graph" transform="scale(1 1) rotate(0) translate(4 270)">
<title>src/Components/CameraComponent.hpp</title>
<polygon fill="white" stroke="transparent" points="-4,4 -4,-270 853.82,-270 853.82,4 -4,4"/>
<!-- Node1 -->
<g id="node1" class="node">
<title>Node1</title>
<g id="a_node1"><a xlink:title=" ">
<polygon fill="#bfbfbf" stroke="black" points="191.32,-246.5 191.32,-265.5 405.32,-265.5 405.32,-246.5 191.32,-246.5"/>
<text text-anchor="middle" x="298.32" y="-253.5" font-family="Helvetica,sans-Serif" font-size="10.00">src/Components/CameraComponent.hpp</text>
</a>
</g>
</g>
<!-- Node2 -->
<g id="node2" class="node">
<title>Node2</title>
<g id="a_node2"><a xlink:href="_directional_light_component_8hpp.html" target="_top" xlink:title=" ">
<polygon fill="white" stroke="black" points="128.32,-179.5 128.32,-209.5 280.32,-209.5 280.32,-179.5 128.32,-179.5"/>
<text text-anchor="start" x="136.32" y="-197.5" font-family="Helvetica,sans-Serif" font-size="10.00">src/Components/Directional</text>
<text text-anchor="middle" x="204.32" y="-186.5" font-family="Helvetica,sans-Serif" font-size="10.00">LightComponent.hpp</text>
</a>
</g>
</g>
<!-- Node1&#45;&gt;Node2 -->
<g id="edge1" class="edge">
<title>Node1&#45;&gt;Node2</title>
<path fill="none" stroke="midnightblue" d="M276.22,-241.01C261.22,-231.52 241.48,-219.02 226.47,-209.52"/>
<polygon fill="midnightblue" stroke="midnightblue" points="274.53,-244.08 284.85,-246.48 278.27,-238.17 274.53,-244.08"/>
</g>
<!-- Node3 -->
<g id="node3" class="node">
<title>Node3</title>
<g id="a_node3"><a xlink:href="main_8cpp.html" target="_top" xlink:title=" ">
<polygon fill="white" stroke="black" points="24.82,-118 24.82,-137 103.82,-137 103.82,-118 24.82,-118"/>
<text text-anchor="middle" x="64.32" y="-125" font-family="Helvetica,sans-Serif" font-size="10.00">src/main.cpp</text>
</a>
</g>
</g>
<!-- Node1&#45;&gt;Node3 -->
<g id="edge11" class="edge">
<title>Node1&#45;&gt;Node3</title>
<path fill="none" stroke="midnightblue" d="M202.73,-244.32C174.03,-237.74 143.72,-227.12 119.32,-210 92.21,-190.98 74.6,-153.98 67.66,-137.18"/>
<polygon fill="midnightblue" stroke="midnightblue" points="202.28,-247.81 212.8,-246.49 203.76,-240.96 202.28,-247.81"/>
</g>
<!-- Node4 -->
<g id="node4" class="node">
<title>Node4</title>
<g id="a_node4"><a xlink:href="_rendering_system_8cpp.html" target="_top" xlink:title=" ">
<polygon fill="white" stroke="black" points="347.82,-56.5 347.82,-75.5 532.82,-75.5 532.82,-56.5 347.82,-56.5"/>
<text text-anchor="middle" x="440.32" y="-63.5" font-family="Helvetica,sans-Serif" font-size="10.00">src/Systems/RenderingSystem.cpp</text>
</a>
</g>
</g>
<!-- Node1&#45;&gt;Node4 -->
<g id="edge14" class="edge">
<title>Node1&#45;&gt;Node4</title>
<path fill="none" stroke="midnightblue" d="M224.89,-244.84C120.31,-227.5 -51.83,-186.63 15.32,-112 37.12,-87.76 229.3,-75.6 347.64,-70.35"/>
<polygon fill="midnightblue" stroke="midnightblue" points="224.35,-248.3 234.78,-246.44 225.47,-241.39 224.35,-248.3"/>
</g>
<!-- Node11 -->
<g id="node11" class="node">
<title>Node11</title>
<g id="a_node11"><a xlink:href="_development_renderer_system_8cpp.html" target="_top" xlink:title=" ">
<polygon fill="white" stroke="black" points="298.82,-179.5 298.82,-209.5 487.82,-209.5 487.82,-179.5 298.82,-179.5"/>
<text text-anchor="start" x="306.82" y="-197.5" font-family="Helvetica,sans-Serif" font-size="10.00">src/Systems/DevelopmentRenderer</text>
<text text-anchor="middle" x="393.32" y="-186.5" font-family="Helvetica,sans-Serif" font-size="10.00">System.cpp</text>
</a>
</g>
</g>
<!-- Node1&#45;&gt;Node11 -->
<g id="edge12" class="edge">
<title>Node1&#45;&gt;Node11</title>
<path fill="none" stroke="midnightblue" d="M320.66,-241.01C335.81,-231.52 355.77,-219.02 370.93,-209.52"/>
<polygon fill="midnightblue" stroke="midnightblue" points="318.55,-238.2 311.93,-246.48 322.26,-244.13 318.55,-238.2"/>
</g>
<!-- Node12 -->
<g id="node12" class="node">
<title>Node12</title>
<g id="a_node12"><a xlink:href="_object_selection_system_8cpp.html" target="_top" xlink:title=" ">
<polygon fill="white" stroke="black" points="505.82,-179.5 505.82,-209.5 660.82,-209.5 660.82,-179.5 505.82,-179.5"/>
<text text-anchor="start" x="513.82" y="-197.5" font-family="Helvetica,sans-Serif" font-size="10.00">src/Systems/ObjectSelection</text>
<text text-anchor="middle" x="583.32" y="-186.5" font-family="Helvetica,sans-Serif" font-size="10.00">System.cpp</text>
</a>
</g>
</g>
<!-- Node1&#45;&gt;Node12 -->
<g id="edge13" class="edge">
<title>Node1&#45;&gt;Node12</title>
<path fill="none" stroke="midnightblue" d="M349.02,-244.41C395.61,-234.69 464.97,-220.21 516.15,-209.52"/>
<polygon fill="midnightblue" stroke="midnightblue" points="348.23,-241.01 339.15,-246.48 349.66,-247.86 348.23,-241.01"/>
</g>
<!-- Node13 -->
<g id="node13" class="node">
<title>Node13</title>
<g id="a_node13"><a xlink:href="_scene_widget_8cpp.html" target="_top" xlink:title=" ">
<polygon fill="white" stroke="black" points="678.82,-185 678.82,-204 849.82,-204 849.82,-185 678.82,-185"/>
<text text-anchor="middle" x="764.32" y="-192" font-family="Helvetica,sans-Serif" font-size="10.00">src/ui/widgets/SceneWidget.cpp</text>
</a>
</g>
</g>
<!-- Node1&#45;&gt;Node13 -->
<g id="edge15" class="edge">
<title>Node1&#45;&gt;Node13</title>
<path fill="none" stroke="midnightblue" d="M384.94,-245.33C460.4,-236.72 572.71,-223.43 670.32,-210 683.57,-208.18 697.85,-206.06 711.17,-204.01"/>
<polygon fill="midnightblue" stroke="midnightblue" points="384.54,-241.86 375,-246.46 385.33,-248.81 384.54,-241.86"/>
</g>
<!-- Node2&#45;&gt;Node3 -->
<g id="edge2" class="edge">
<title>Node2&#45;&gt;Node3</title>
<path fill="none" stroke="midnightblue" d="M164.76,-175.13C137.81,-162.62 103.39,-146.64 82.64,-137.01"/>
<polygon fill="midnightblue" stroke="midnightblue" points="163.4,-178.36 173.94,-179.4 166.35,-172.01 163.4,-178.36"/>
</g>
<!-- Node2&#45;&gt;Node4 -->
<g id="edge3" class="edge">
<title>Node2&#45;&gt;Node4</title>
<path fill="none" stroke="midnightblue" d="M290.51,-178.45C359.32,-166.02 445.08,-149.42 450.32,-143 466.3,-123.41 453.05,-91.03 445.16,-75.64"/>
<polygon fill="midnightblue" stroke="midnightblue" points="289.71,-175.04 280.49,-180.25 290.95,-181.93 289.71,-175.04"/>
</g>
<!-- Node5 -->
<g id="node5" class="node">
<title>Node5</title>
<g id="a_node5"><a xlink:href="_rendering_system_8hpp.html" target="_top" xlink:title=" ">
<polygon fill="white" stroke="black" points="498.32,-118 498.32,-137 684.32,-137 684.32,-118 498.32,-118"/>
<text text-anchor="middle" x="591.32" y="-125" font-family="Helvetica,sans-Serif" font-size="10.00">src/Systems/RenderingSystem.hpp</text>
</a>
</g>
</g>
<!-- Node2&#45;&gt;Node5 -->
<g id="edge4" class="edge">
<title>Node2&#45;&gt;Node5</title>
<path fill="none" stroke="midnightblue" d="M290.7,-178.77C384.34,-162.97 481.98,-146.68 540.01,-137.03"/>
<polygon fill="midnightblue" stroke="midnightblue" points="290.05,-175.33 280.77,-180.45 291.22,-182.23 290.05,-175.33"/>
</g>
<!-- Node9 -->
<g id="node9" class="node">
<title>Node9</title>
<g id="a_node9"><a xlink:href="_directional_light_component_u_i_8hpp.html" target="_top" xlink:title=" ">
<polygon fill="white" stroke="black" points="122.32,-112.5 122.32,-142.5 286.32,-142.5 286.32,-112.5 122.32,-112.5"/>
<text text-anchor="start" x="130.32" y="-130.5" font-family="Helvetica,sans-Serif" font-size="10.00">src/ui/Components/Directional</text>
<text text-anchor="middle" x="204.32" y="-119.5" font-family="Helvetica,sans-Serif" font-size="10.00">LightComponentUI.hpp</text>
</a>
</g>
</g>
<!-- Node2&#45;&gt;Node9 -->
<g id="edge9" class="edge">
<title>Node2&#45;&gt;Node9</title>
<path fill="none" stroke="midnightblue" d="M204.32,-169.11C204.32,-160.15 204.32,-150.32 204.32,-142.58"/>
<polygon fill="midnightblue" stroke="midnightblue" points="200.82,-169.4 204.32,-179.4 207.82,-169.4 200.82,-169.4"/>
</g>
<!-- Node10 -->
<g id="node10" class="node">
<title>Node10</title>
<g id="a_node10"><a xlink:href="_properties_widget_8cpp.html" target="_top" xlink:title=" ">
<polygon fill="white" stroke="black" points="304.82,-112.5 304.82,-142.5 441.82,-142.5 441.82,-112.5 304.82,-112.5"/>
<text text-anchor="start" x="312.82" y="-130.5" font-family="Helvetica,sans-Serif" font-size="10.00">src/ui/widgets/Properties</text>
<text text-anchor="middle" x="373.32" y="-119.5" font-family="Helvetica,sans-Serif" font-size="10.00">Widget.cpp</text>
</a>
</g>
</g>
<!-- Node2&#45;&gt;Node10 -->
<g id="edge10" class="edge">
<title>Node2&#45;&gt;Node10</title>
<path fill="none" stroke="midnightblue" d="M250.65,-175.68C277.75,-165.26 311.49,-152.28 336.72,-142.58"/>
<polygon fill="midnightblue" stroke="midnightblue" points="249.07,-172.54 240.99,-179.4 251.58,-179.07 249.07,-172.54"/>
</g>
<!-- Node5&#45;&gt;Node4 -->
<g id="edge8" class="edge">
<title>Node5&#45;&gt;Node4</title>
<path fill="none" stroke="midnightblue" d="M560.31,-114.28C530.97,-102.72 487.69,-85.66 461.91,-75.51"/>
<polygon fill="midnightblue" stroke="midnightblue" points="559.1,-117.57 569.69,-117.98 561.66,-111.05 559.1,-117.57"/>
</g>
<!-- Node6 -->
<g id="node6" class="node">
<title>Node6</title>
<g id="a_node6"><a xlink:href="_runtime_8hpp.html" target="_top" xlink:title=" ">
<polygon fill="white" stroke="black" points="551.32,-56.5 551.32,-75.5 691.32,-75.5 691.32,-56.5 551.32,-56.5"/>
<text text-anchor="middle" x="621.32" y="-63.5" font-family="Helvetica,sans-Serif" font-size="10.00">src/Runtime/Runtime.hpp</text>
</a>
</g>
</g>
<!-- Node5&#45;&gt;Node6 -->
<g id="edge5" class="edge">
<title>Node5&#45;&gt;Node6</title>
<path fill="none" stroke="midnightblue" d="M600.23,-108.83C605.78,-97.83 612.67,-84.16 617.03,-75.51"/>
<polygon fill="midnightblue" stroke="midnightblue" points="597,-107.47 595.62,-117.98 603.25,-110.62 597,-107.47"/>
</g>
<!-- Node7 -->
<g id="node7" class="node">
<title>Node7</title>
<g id="a_node7"><a xlink:href="_runtime_8cpp.html" target="_top" xlink:title=" ">
<polygon fill="white" stroke="black" points="464.32,-0.5 464.32,-19.5 604.32,-19.5 604.32,-0.5 464.32,-0.5"/>
<text text-anchor="middle" x="534.32" y="-7.5" font-family="Helvetica,sans-Serif" font-size="10.00">src/Runtime/Runtime.cpp</text>
</a>
</g>
</g>
<!-- Node6&#45;&gt;Node7 -->
<g id="edge6" class="edge">
<title>Node6&#45;&gt;Node7</title>
<path fill="none" stroke="midnightblue" d="M598.6,-50.9C582.65,-41 561.82,-28.07 548.26,-19.65"/>
<polygon fill="midnightblue" stroke="midnightblue" points="597,-54.02 607.34,-56.32 600.69,-48.08 597,-54.02"/>
</g>
<!-- Node8 -->
<g id="node8" class="node">
<title>Node8</title>
<g id="a_node8"><a xlink:href="_scene_widget_8hpp.html" target="_top" xlink:title="Contains the declaration of the SceneWidget class, a user interface widget for rendering scenes.">
<polygon fill="white" stroke="black" points="622.32,-0.5 622.32,-19.5 794.32,-19.5 794.32,-0.5 622.32,-0.5"/>
<text text-anchor="middle" x="708.32" y="-7.5" font-family="Helvetica,sans-Serif" font-size="10.00">src/ui/widgets/SceneWidget.hpp</text>
</a>
</g>
</g>
<!-- Node6&#45;&gt;Node8 -->
<g id="edge7" class="edge">
<title>Node6&#45;&gt;Node8</title>
<path fill="none" stroke="midnightblue" d="M644.04,-50.9C659.99,-41 680.82,-28.07 694.38,-19.65"/>
<polygon fill="midnightblue" stroke="midnightblue" points="641.95,-48.08 635.3,-56.32 645.64,-54.02 641.95,-48.08"/>
</g>
</g>
</svg>
