<?xml version="1.0" encoding="UTF-8" standalone="no"?>
<!DOCTYPE svg PUBLIC "-//W3C//DTD SVG 1.1//EN"
 "http://www.w3.org/Graphics/SVG/1.1/DTD/svg11.dtd">
<!-- Generated by graphviz version 2.43.0 (0)
 -->
<!-- Title: src/Systems/CameraMovementSystem.hpp Pages: 1 -->
<svg width="1882pt" height="478pt"
 viewBox="0.00 0.00 1882.00 478.00" xmlns="http://www.w3.org/2000/svg" xmlns:xlink="http://www.w3.org/1999/xlink">
<g id="graph0" class="graph" transform="scale(1 1) rotate(0) translate(4 474)">
<title>src/Systems/CameraMovementSystem.hpp</title>
<!-- Node1 -->
<g id="Node000001" class="node">
<title>Node1</title>
<g id="a_Node000001"><a xlink:title=" ">
<polygon fill="#999999" stroke="#666666" points="473,-470 303,-470 303,-440 473,-440 473,-470"/>
<text text-anchor="start" x="311" y="-458" font-family="Helvetica,sans-Serif" font-size="10.00">src/Systems/CameraMovement</text>
<text text-anchor="middle" x="388" y="-447" font-family="Helvetica,sans-Serif" font-size="10.00">System.hpp</text>
</a>
</g>
</g>
<!-- Node1&#45;&gt;Node1 -->
<g id="edge61_Node000001_Node000001" class="edge">
<title>Node1&#45;&gt;Node1</title>
<g id="a_edge61_Node000001_Node000001"><a xlink:title=" ">
<path fill="none" stroke="#63b8ff" d="M473.25,-464.8C483.95,-463.07 491,-459.8 491,-455 491,-451.92 488.11,-449.48 483.22,-447.66"/>
<polygon fill="#63b8ff" stroke="#63b8ff" points="483.8,-444.2 473.25,-445.2 482.12,-451 483.8,-444.2"/>
</a>
</g>
</g>
<!-- Node2 -->
<g id="Node000002" class="node">
<title>Node2</title>
<g id="a_Node000002"><a xlink:title=" ">
<polygon fill="#e0e0e0" stroke="#999999" points="58,-404 0,-404 0,-385 58,-385 58,-404"/>
<text text-anchor="middle" x="29" y="-392" font-family="Helvetica,sans-Serif" font-size="10.00">memory</text>
</a>
</g>
</g>
<!-- Node1&#45;&gt;Node2 -->
<g id="edge1_Node000001_Node000002" class="edge">
<title>Node1&#45;&gt;Node2</title>
<g id="a_edge1_Node000001_Node000002"><a xlink:title=" ">
<path fill="none" stroke="#63b8ff" d="M302.92,-442.3C240.48,-433.35 153.41,-420.12 67.89,-404.06"/>
<polygon fill="#63b8ff" stroke="#63b8ff" points="68.48,-400.61 58.01,-402.19 67.18,-407.49 68.48,-400.61"/>
</a>
</g>
</g>
<!-- Node3 -->
<g id="Node000003" class="node">
<title>Node3</title>
<g id="a_Node000003"><a xlink:href="_camera_tags_8hpp.html" target="_top" xlink:title=" ">
<polygon fill="white" stroke="#666666" points="238,-404 76,-404 76,-385 238,-385 238,-404"/>
<text text-anchor="middle" x="157" y="-392" font-family="Helvetica,sans-Serif" font-size="10.00">Components/CameraTags.hpp</text>
</a>
</g>
</g>
<!-- Node1&#45;&gt;Node3 -->
<g id="edge2_Node000001_Node000003" class="edge">
<title>Node1&#45;&gt;Node3</title>
<g id="a_edge2_Node000001_Node000003"><a xlink:title=" ">
<path fill="none" stroke="#63b8ff" d="M332.67,-439.99C292.29,-429.76 238.29,-416.09 200.87,-406.61"/>
<polygon fill="#63b8ff" stroke="#63b8ff" points="201.33,-403.12 190.78,-404.05 199.61,-409.9 201.33,-403.12"/>
</a>
</g>
</g>
<!-- Node5 -->
<g id="Node000005" class="node">
<title>Node5</title>
<g id="a_Node000005"><a xlink:href="_transform_component_8hpp.html" target="_top" xlink:title=" ">
<polygon fill="white" stroke="#666666" points="1145.5,-294 938.5,-294 938.5,-275 1145.5,-275 1145.5,-294"/>
<text text-anchor="middle" x="1042" y="-282" font-family="Helvetica,sans-Serif" font-size="10.00">Components/TransformComponent.hpp</text>
</a>
</g>
</g>
<!-- Node1&#45;&gt;Node5 -->
<g id="edge4_Node000001_Node000005" class="edge">
<title>Node1&#45;&gt;Node5</title>
<g id="a_edge4_Node000001_Node000005"><a xlink:title=" ">
<path fill="none" stroke="#63b8ff" d="M473.24,-445.81C615.91,-430.97 895.89,-396.7 982,-349 1002.44,-337.68 1020,-316.99 1030.75,-302.31"/>
<polygon fill="#63b8ff" stroke="#63b8ff" points="1033.65,-304.28 1036.53,-294.08 1027.92,-300.25 1033.65,-304.28"/>
</a>
</g>
</g>
<!-- Node6 -->
<g id="Node000006" class="node">
<title>Node6</title>
<g id="a_Node000006"><a xlink:title=" ">
<polygon fill="#e0e0e0" stroke="#999999" points="318,-239 258,-239 258,-220 318,-220 318,-239"/>
<text text-anchor="middle" x="288" y="-227" font-family="Helvetica,sans-Serif" font-size="10.00">iostream</text>
</a>
</g>
</g>
<!-- Node1&#45;&gt;Node6 -->
<g id="edge62_Node000001_Node000006" class="edge">
<title>Node1&#45;&gt;Node6</title>
<g id="a_edge62_Node000001_Node000006"><a xlink:title=" ">
<path fill="none" stroke="#63b8ff" d="M376.29,-439.68C355.22,-412.97 311.4,-352.9 293,-294 288.51,-279.61 287.38,-262.55 287.31,-249.74"/>
<polygon fill="#63b8ff" stroke="#63b8ff" points="290.82,-249.41 287.48,-239.36 283.82,-249.3 290.82,-249.41"/>
</a>
</g>
</g>
<!-- Node16 -->
<g id="Node000016" class="node">
<title>Node16</title>
<g id="a_Node000016"><a xlink:href="_registry_8hpp.html" target="_top" xlink:title=" ">
<polygon fill="white" stroke="#666666" points="544,-239 446,-239 446,-220 544,-220 544,-239"/>
<text text-anchor="middle" x="495" y="-227" font-family="Helvetica,sans-Serif" font-size="10.00">ECS/Registry.hpp</text>
</a>
</g>
</g>
<!-- Node1&#45;&gt;Node16 -->
<g id="edge37_Node000001_Node000016" class="edge">
<title>Node1&#45;&gt;Node16</title>
<g id="a_edge37_Node000001_Node000016"><a xlink:title=" ">
<path fill="none" stroke="#63b8ff" d="M399.59,-439.89C415.03,-420.48 442.34,-383.96 459,-349 475.05,-315.32 485.88,-272.86 491.2,-248.99"/>
<polygon fill="#63b8ff" stroke="#63b8ff" points="494.63,-249.67 493.3,-239.16 487.78,-248.2 494.63,-249.67"/>
</a>
</g>
</g>
<!-- Node30 -->
<g id="Node000030" class="node">
<title>Node30</title>
<g id="a_Node000030"><a xlink:href="_input_manager_8hpp.html" target="_top" xlink:title=" ">
<polygon fill="white" stroke="#666666" points="698.5,-404 523.5,-404 523.5,-385 698.5,-385 698.5,-404"/>
<text text-anchor="middle" x="611" y="-392" font-family="Helvetica,sans-Serif" font-size="10.00">InputManager/InputManager.hpp</text>
</a>
</g>
</g>
<!-- Node1&#45;&gt;Node30 -->
<g id="edge38_Node000001_Node000030" class="edge">
<title>Node1&#45;&gt;Node30</title>
<g id="a_edge38_Node000001_Node000030"><a xlink:title=" ">
<path fill="none" stroke="#63b8ff" d="M441.41,-439.99C480.4,-429.76 532.53,-416.09 568.65,-406.61"/>
<polygon fill="#63b8ff" stroke="#63b8ff" points="569.61,-409.98 578.39,-404.05 567.83,-403.21 569.61,-409.98"/>
</a>
</g>
</g>
<!-- Node4 -->
<g id="Node000004" class="node">
<title>Node4</title>
<g id="a_Node000004"><a xlink:href="_singleton_component_8hpp.html" target="_top" xlink:title=" ">
<polygon fill="white" stroke="#666666" points="371.5,-184 210.5,-184 210.5,-165 371.5,-165 371.5,-184"/>
<text text-anchor="middle" x="291" y="-172" font-family="Helvetica,sans-Serif" font-size="10.00">ECS/SingletonComponent.hpp</text>
</a>
</g>
</g>
<!-- Node3&#45;&gt;Node4 -->
<g id="edge3_Node000003_Node000004" class="edge">
<title>Node3&#45;&gt;Node4</title>
<g id="a_edge3_Node000003_Node000004"><a xlink:title=" ">
<path fill="none" stroke="#63b8ff" d="M160.64,-384.72C171.76,-358.42 207.08,-278.46 249,-220 256.41,-209.66 266.08,-199.26 274.27,-191.12"/>
<polygon fill="#63b8ff" stroke="#63b8ff" points="276.79,-193.54 281.55,-184.07 271.93,-188.51 276.79,-193.54"/>
</a>
</g>
</g>
<!-- Node5&#45;&gt;Node6 -->
<g id="edge5_Node000005_Node000006" class="edge">
<title>Node5&#45;&gt;Node6</title>
<g id="a_edge5_Node000005_Node000006"><a xlink:title=" ">
<path fill="none" stroke="#63b8ff" d="M938.35,-276.21C769.44,-264.34 442.24,-241.34 328.29,-233.33"/>
<polygon fill="#63b8ff" stroke="#63b8ff" points="328.48,-229.84 318.26,-232.63 327.99,-236.82 328.48,-229.84"/>
</a>
</g>
</g>
<!-- Node7 -->
<g id="Node000007" class="node">
<title>Node7</title>
<g id="a_Node000007"><a xlink:title=" ">
<polygon fill="#e0e0e0" stroke="#999999" points="1534,-239 1490,-239 1490,-220 1534,-220 1534,-239"/>
<text text-anchor="middle" x="1512" y="-227" font-family="Helvetica,sans-Serif" font-size="10.00">string</text>
</a>
</g>
</g>
<!-- Node5&#45;&gt;Node7 -->
<g id="edge6_Node000005_Node000007" class="edge">
<title>Node5&#45;&gt;Node7</title>
<g id="a_edge6_Node000005_Node000007"><a xlink:title=" ">
<path fill="none" stroke="#63b8ff" d="M1145.58,-277.88C1232.54,-272.04 1360.08,-260.83 1479.68,-238.95"/>
<polygon fill="#63b8ff" stroke="#63b8ff" points="1480.56,-242.35 1489.75,-237.08 1479.28,-235.46 1480.56,-242.35"/>
</a>
</g>
</g>
<!-- Node8 -->
<g id="Node000008" class="node">
<title>Node8</title>
<g id="a_Node000008"><a xlink:title=" ">
<polygon fill="#e0e0e0" stroke="#999999" points="1340,-184 1262,-184 1262,-165 1340,-165 1340,-184"/>
<text text-anchor="middle" x="1301" y="-172" font-family="Helvetica,sans-Serif" font-size="10.00">glm/glm.hpp</text>
</a>
</g>
</g>
<!-- Node5&#45;&gt;Node8 -->
<g id="edge7_Node000005_Node000008" class="edge">
<title>Node5&#45;&gt;Node8</title>
<g id="a_edge7_Node000005_Node000008"><a xlink:title=" ">
<path fill="none" stroke="#63b8ff" d="M1065.16,-274.99C1088.15,-266.39 1124.31,-252.49 1155,-239 1172.65,-231.24 1176.42,-227.93 1194,-220 1219.29,-208.59 1248.37,-196.57 1269.83,-187.89"/>
<polygon fill="#63b8ff" stroke="#63b8ff" points="1271.14,-191.14 1279.12,-184.16 1268.53,-184.65 1271.14,-191.14"/>
</a>
</g>
</g>
<!-- Node9 -->
<g id="Node000009" class="node">
<title>Node9</title>
<g id="a_Node000009"><a xlink:title=" ">
<polygon fill="#e0e0e0" stroke="#999999" points="1365.5,-239 1202.5,-239 1202.5,-220 1365.5,-220 1365.5,-239"/>
<text text-anchor="middle" x="1284" y="-227" font-family="Helvetica,sans-Serif" font-size="10.00">glm/gtc/matrix_transform.hpp</text>
</a>
</g>
</g>
<!-- Node5&#45;&gt;Node9 -->
<g id="edge8_Node000005_Node000009" class="edge">
<title>Node5&#45;&gt;Node9</title>
<g id="a_edge8_Node000005_Node000009"><a xlink:title=" ">
<path fill="none" stroke="#63b8ff" d="M1080.88,-274.98C1122.74,-265.82 1189.43,-251.21 1234.88,-241.26"/>
<polygon fill="#63b8ff" stroke="#63b8ff" points="1235.79,-244.64 1244.81,-239.08 1234.3,-237.8 1235.79,-244.64"/>
</a>
</g>
</g>
<!-- Node10 -->
<g id="Node000010" class="node">
<title>Node10</title>
<g id="a_Node000010"><a xlink:title=" ">
<polygon fill="#e0e0e0" stroke="#999999" points="806,-239 676,-239 676,-220 806,-220 806,-239"/>
<text text-anchor="middle" x="741" y="-227" font-family="Helvetica,sans-Serif" font-size="10.00">glm/gtc/quaternion.hpp</text>
</a>
</g>
</g>
<!-- Node5&#45;&gt;Node10 -->
<g id="edge9_Node000005_Node000010" class="edge">
<title>Node5&#45;&gt;Node10</title>
<g id="a_edge9_Node000005_Node000010"><a xlink:title=" ">
<path fill="none" stroke="#63b8ff" d="M993.64,-274.98C940.81,-265.68 856.18,-250.78 799.61,-240.82"/>
<polygon fill="#63b8ff" stroke="#63b8ff" points="800.2,-237.37 789.74,-239.08 798.98,-244.26 800.2,-237.37"/>
</a>
</g>
</g>
<!-- Node11 -->
<g id="Node000011" class="node">
<title>Node11</title>
<g id="a_Node000011"><a xlink:title=" ">
<polygon fill="#e0e0e0" stroke="#999999" points="996,-239 824,-239 824,-220 996,-220 996,-239"/>
<text text-anchor="middle" x="910" y="-227" font-family="Helvetica,sans-Serif" font-size="10.00">glm/gtx/matrix_decompose.hpp</text>
</a>
</g>
</g>
<!-- Node5&#45;&gt;Node11 -->
<g id="edge10_Node000005_Node000011" class="edge">
<title>Node5&#45;&gt;Node11</title>
<g id="a_edge10_Node000005_Node000011"><a xlink:title=" ">
<path fill="none" stroke="#63b8ff" d="M1020.79,-274.98C999.27,-266.34 965.72,-252.87 941.17,-243.02"/>
<polygon fill="#63b8ff" stroke="#63b8ff" points="942.18,-239.65 931.59,-239.17 939.57,-246.14 942.18,-239.65"/>
</a>
</g>
</g>
<!-- Node12 -->
<g id="Node000012" class="node">
<title>Node12</title>
<g id="a_Node000012"><a xlink:title=" ">
<polygon fill="#e0e0e0" stroke="#999999" points="1145.5,-239 1014.5,-239 1014.5,-220 1145.5,-220 1145.5,-239"/>
<text text-anchor="middle" x="1080" y="-227" font-family="Helvetica,sans-Serif" font-size="10.00">glm/gtx/string_cast.hpp</text>
</a>
</g>
</g>
<!-- Node5&#45;&gt;Node12 -->
<g id="edge11_Node000005_Node000012" class="edge">
<title>Node5&#45;&gt;Node12</title>
<g id="a_edge11_Node000005_Node000012"><a xlink:title=" ">
<path fill="none" stroke="#63b8ff" d="M1048.27,-274.75C1053.59,-267.34 1061.36,-256.5 1067.88,-247.41"/>
<polygon fill="#63b8ff" stroke="#63b8ff" points="1070.86,-249.26 1073.84,-239.09 1065.17,-245.18 1070.86,-249.26"/>
</a>
</g>
</g>
<!-- Node13 -->
<g id="Node000013" class="node">
<title>Node13</title>
<g id="a_Node000013"><a xlink:href="_base_component_8hpp.html" target="_top" xlink:title=" ">
<polygon fill="white" stroke="#666666" points="1874,-239 1692,-239 1692,-220 1874,-220 1874,-239"/>
<text text-anchor="middle" x="1783" y="-227" font-family="Helvetica,sans-Serif" font-size="10.00">Components/BaseComponent.hpp</text>
</a>
</g>
</g>
<!-- Node5&#45;&gt;Node13 -->
<g id="edge12_Node000005_Node000013" class="edge">
<title>Node5&#45;&gt;Node13</title>
<g id="a_edge12_Node000005_Node000013"><a xlink:title=" ">
<path fill="none" stroke="#63b8ff" d="M1145.81,-276.07C1287.74,-265.92 1540.75,-247.83 1681.47,-237.76"/>
<polygon fill="#63b8ff" stroke="#63b8ff" points="1682.1,-241.23 1691.82,-237.02 1681.6,-234.24 1682.1,-241.23"/>
</a>
</g>
</g>
<!-- Node5&#45;&gt;Node16 -->
<g id="edge15_Node000005_Node000016" class="edge">
<title>Node5&#45;&gt;Node16</title>
<g id="a_edge15_Node000005_Node000016"><a xlink:title=" ">
<path fill="none" stroke="#63b8ff" d="M954.11,-274.98C841.93,-264.12 650.86,-245.6 554.43,-236.26"/>
<polygon fill="#63b8ff" stroke="#63b8ff" points="554.56,-232.75 544.27,-235.27 553.89,-239.72 554.56,-232.75"/>
</a>
</g>
</g>
<!-- Node29 -->
<g id="Node000029" class="node">
<title>Node29</title>
<g id="a_Node000029"><a xlink:href="_math_2_utils_8hpp.html" target="_top" xlink:title=" ">
<polygon fill="white" stroke="#666666" points="1472,-239 1384,-239 1384,-220 1472,-220 1472,-239"/>
<text text-anchor="middle" x="1428" y="-227" font-family="Helvetica,sans-Serif" font-size="10.00">Math/Utils.hpp</text>
</a>
</g>
</g>
<!-- Node5&#45;&gt;Node29 -->
<g id="edge35_Node000005_Node000029" class="edge">
<title>Node5&#45;&gt;Node29</title>
<g id="a_edge35_Node000005_Node000029"><a xlink:title=" ">
<path fill="none" stroke="#63b8ff" d="M1109.68,-274.98C1174.78,-266.67 1276.23,-253.4 1373.74,-239.15"/>
<polygon fill="#63b8ff" stroke="#63b8ff" points="1374.38,-242.6 1383.77,-237.68 1373.36,-235.67 1374.38,-242.6"/>
</a>
</g>
</g>
<!-- Node14 -->
<g id="Node000014" class="node">
<title>Node14</title>
<g id="a_Node000014"><a xlink:href="_types_8hpp.html" target="_top" xlink:title=" ">
<polygon fill="white" stroke="#666666" points="1839.5,-184 1726.5,-184 1726.5,-165 1839.5,-165 1839.5,-184"/>
<text text-anchor="middle" x="1783" y="-172" font-family="Helvetica,sans-Serif" font-size="10.00">Common/Types.hpp</text>
</a>
</g>
</g>
<!-- Node13&#45;&gt;Node14 -->
<g id="edge13_Node000013_Node000014" class="edge">
<title>Node13&#45;&gt;Node14</title>
<g id="a_edge13_Node000013_Node000014"><a xlink:title=" ">
<path fill="none" stroke="#63b8ff" d="M1783,-219.75C1783,-212.8 1783,-202.85 1783,-194.13"/>
<polygon fill="#63b8ff" stroke="#63b8ff" points="1786.5,-194.09 1783,-184.09 1779.5,-194.09 1786.5,-194.09"/>
</a>
</g>
</g>
<!-- Node15 -->
<g id="Node000015" class="node">
<title>Node15</title>
<g id="a_Node000015"><a xlink:title=" ">
<polygon fill="#e0e0e0" stroke="#999999" points="1817,-129 1749,-129 1749,-110 1817,-110 1817,-129"/>
<text text-anchor="middle" x="1783" y="-117" font-family="Helvetica,sans-Serif" font-size="10.00">filesystem</text>
</a>
</g>
</g>
<!-- Node14&#45;&gt;Node15 -->
<g id="edge14_Node000014_Node000015" class="edge">
<title>Node14&#45;&gt;Node15</title>
<g id="a_edge14_Node000014_Node000015"><a xlink:title=" ">
<path fill="none" stroke="#63b8ff" d="M1783,-164.75C1783,-157.8 1783,-147.85 1783,-139.13"/>
<polygon fill="#63b8ff" stroke="#63b8ff" points="1786.5,-139.09 1783,-129.09 1779.5,-139.09 1786.5,-139.09"/>
</a>
</g>
</g>
<!-- Node16&#45;&gt;Node4 -->
<g id="edge32_Node000016_Node000004" class="edge">
<title>Node16&#45;&gt;Node4</title>
<g id="a_edge32_Node000016_Node000004"><a xlink:title=" ">
<path fill="none" stroke="#63b8ff" d="M462.22,-219.98C427.38,-210.93 372.13,-196.58 333.86,-186.64"/>
<polygon fill="#63b8ff" stroke="#63b8ff" points="334.59,-183.21 324.03,-184.08 332.83,-189.98 334.59,-183.21"/>
</a>
</g>
</g>
<!-- Node17 -->
<g id="Node000017" class="node">
<title>Node17</title>
<g id="a_Node000017"><a xlink:title=" ">
<polygon fill="#e0e0e0" stroke="#999999" points="667,-129 581,-129 581,-110 667,-110 667,-129"/>
<text text-anchor="middle" x="624" y="-117" font-family="Helvetica,sans-Serif" font-size="10.00">unordered_set</text>
</a>
</g>
</g>
<!-- Node16&#45;&gt;Node17 -->
<g id="edge16_Node000016_Node000017" class="edge">
<title>Node16&#45;&gt;Node17</title>
<g id="a_edge16_Node000016_Node000017"><a xlink:title=" ">
<path fill="none" stroke="#63b8ff" d="M513.66,-219.87C529.79,-211.89 553.26,-199.02 571,-184 587.21,-170.28 602.37,-151.22 612.3,-137.57"/>
<polygon fill="#63b8ff" stroke="#63b8ff" points="615.36,-139.3 618.27,-129.12 609.64,-135.26 615.36,-139.3"/>
</a>
</g>
</g>
<!-- Node18 -->
<g id="Node000018" class="node">
<title>Node18</title>
<g id="a_Node000018"><a xlink:href="_logger_8hpp.html" target="_top" xlink:title=" ">
<polygon fill="white" stroke="#666666" points="899.5,-184 782.5,-184 782.5,-165 899.5,-165 899.5,-184"/>
<text text-anchor="middle" x="841" y="-172" font-family="Helvetica,sans-Serif" font-size="10.00">Common/Logger.hpp</text>
</a>
</g>
</g>
<!-- Node16&#45;&gt;Node18 -->
<g id="edge17_Node000016_Node000018" class="edge">
<title>Node16&#45;&gt;Node18</title>
<g id="a_edge17_Node000016_Node000018"><a xlink:title=" ">
<path fill="none" stroke="#63b8ff" d="M544.21,-220.96C604.81,-211.68 707.97,-195.88 775.3,-185.56"/>
<polygon fill="#63b8ff" stroke="#63b8ff" points="776.02,-188.99 785.38,-184.02 774.96,-182.07 776.02,-188.99"/>
</a>
</g>
</g>
<!-- Node21 -->
<g id="Node000021" class="node">
<title>Node21</title>
<g id="a_Node000021"><a xlink:href="_entity_8hpp.html" target="_top" xlink:title=" ">
<polygon fill="white" stroke="#666666" points="650,-74 564,-74 564,-55 650,-55 650,-74"/>
<text text-anchor="middle" x="607" y="-62" font-family="Helvetica,sans-Serif" font-size="10.00">ECS/Entity.hpp</text>
</a>
</g>
</g>
<!-- Node16&#45;&gt;Node21 -->
<g id="edge20_Node000016_Node000021" class="edge">
<title>Node16&#45;&gt;Node21</title>
<g id="a_edge20_Node000016_Node000021"><a xlink:title=" ">
<path fill="none" stroke="#63b8ff" d="M480.38,-219.98C454.15,-204.77 399.96,-173.72 380,-165 333.25,-144.58 300.89,-170.35 271,-129 266.05,-122.16 265.43,-116.35 271,-110 289.32,-89.09 463.67,-74.8 553.72,-68.76"/>
<polygon fill="#63b8ff" stroke="#63b8ff" points="554,-72.24 563.74,-68.09 553.53,-65.26 554,-72.24"/>
</a>
</g>
</g>
<!-- Node23 -->
<g id="Node000023" class="node">
<title>Node23</title>
<g id="a_Node000023"><a xlink:href="_entity_hierarchy_8hpp.html" target="_top" xlink:title=" ">
<polygon fill="white" stroke="#666666" points="562,-184 428,-184 428,-165 562,-165 562,-184"/>
<text text-anchor="middle" x="495" y="-172" font-family="Helvetica,sans-Serif" font-size="10.00">ECS/EntityHierarchy.hpp</text>
</a>
</g>
</g>
<!-- Node16&#45;&gt;Node23 -->
<g id="edge22_Node000016_Node000023" class="edge">
<title>Node16&#45;&gt;Node23</title>
<g id="a_edge22_Node000016_Node000023"><a xlink:title=" ">
<path fill="none" stroke="#63b8ff" d="M495,-219.75C495,-212.8 495,-202.85 495,-194.13"/>
<polygon fill="#63b8ff" stroke="#63b8ff" points="498.5,-194.09 495,-184.09 491.5,-194.09 498.5,-194.09"/>
</a>
</g>
</g>
<!-- Node27 -->
<g id="Node000027" class="node">
<title>Node27</title>
<g id="a_Node000027"><a xlink:href="_entity_provider_8hpp.html" target="_top" xlink:title="Manages a pool of unused entity identifiers and provides mechanisms for requesting and removing them.">
<polygon fill="white" stroke="#666666" points="813,-129 685,-129 685,-110 813,-110 813,-129"/>
<text text-anchor="middle" x="749" y="-117" font-family="Helvetica,sans-Serif" font-size="10.00">ECS/EntityProvider.hpp</text>
</a>
</g>
</g>
<!-- Node16&#45;&gt;Node27 -->
<g id="edge28_Node000016_Node000027" class="edge">
<title>Node16&#45;&gt;Node27</title>
<g id="a_edge28_Node000016_Node000027"><a xlink:title=" ">
<path fill="none" stroke="#63b8ff" d="M544.09,-220.82C612.28,-209.94 728.15,-190.63 735,-184 746.78,-172.61 749.7,-153.71 750.02,-139.49"/>
<polygon fill="#63b8ff" stroke="#63b8ff" points="753.52,-139.25 749.84,-129.32 746.52,-139.38 753.52,-139.25"/>
</a>
</g>
</g>
<!-- Node28 -->
<g id="Node000028" class="node">
<title>Node28</title>
<g id="a_Node000028"><a xlink:href="_sparse_set_8hpp.html" target="_top" xlink:title=" ">
<polygon fill="white" stroke="#666666" points="726,-184 618,-184 618,-165 726,-165 726,-184"/>
<text text-anchor="middle" x="672" y="-172" font-family="Helvetica,sans-Serif" font-size="10.00">ECS/SparseSet.hpp</text>
</a>
</g>
</g>
<!-- Node16&#45;&gt;Node28 -->
<g id="edge33_Node000016_Node000028" class="edge">
<title>Node16&#45;&gt;Node28</title>
<g id="a_edge33_Node000016_Node000028"><a xlink:title=" ">
<path fill="none" stroke="#63b8ff" d="M523.44,-219.98C553.28,-211.05 600.38,-196.94 633.53,-187.02"/>
<polygon fill="#63b8ff" stroke="#63b8ff" points="634.76,-190.3 643.34,-184.08 632.76,-183.6 634.76,-190.3"/>
</a>
</g>
</g>
<!-- Node19 -->
<g id="Node000019" class="node">
<title>Node19</title>
<g id="a_Node000019"><a xlink:title=" ">
<polygon fill="#e0e0e0" stroke="#999999" points="917,-129 869,-129 869,-110 917,-110 917,-129"/>
<text text-anchor="middle" x="893" y="-117" font-family="Helvetica,sans-Serif" font-size="10.00">mutex</text>
</a>
</g>
</g>
<!-- Node18&#45;&gt;Node19 -->
<g id="edge18_Node000018_Node000019" class="edge">
<title>Node18&#45;&gt;Node19</title>
<g id="a_edge18_Node000018_Node000019"><a xlink:title=" ">
<path fill="none" stroke="#63b8ff" d="M849.59,-164.75C857.16,-157.03 868.38,-145.6 877.51,-136.28"/>
<polygon fill="#63b8ff" stroke="#63b8ff" points="880.07,-138.68 884.57,-129.09 875.07,-133.78 880.07,-138.68"/>
</a>
</g>
</g>
<!-- Node20 -->
<g id="Node000020" class="node">
<title>Node20</title>
<g id="a_Node000020"><a xlink:title=" ">
<polygon fill="#e0e0e0" stroke="#999999" points="807.5,-74 760.5,-74 760.5,-55 807.5,-55 807.5,-74"/>
<text text-anchor="middle" x="784" y="-62" font-family="Helvetica,sans-Serif" font-size="10.00">queue</text>
</a>
</g>
</g>
<!-- Node18&#45;&gt;Node20 -->
<g id="edge19_Node000018_Node000020" class="edge">
<title>Node18&#45;&gt;Node20</title>
<g id="a_edge19_Node000018_Node000020"><a xlink:title=" ">
<path fill="none" stroke="#63b8ff" d="M839.59,-164.84C837.28,-152.19 831.91,-128.19 822,-110 816.31,-99.56 807.89,-89.37 800.41,-81.38"/>
<polygon fill="#63b8ff" stroke="#63b8ff" points="802.89,-78.9 793.39,-74.19 797.88,-83.79 802.89,-78.9"/>
</a>
</g>
</g>
<!-- Node22 -->
<g id="Node000022" class="node">
<title>Node22</title>
<g id="a_Node000022"><a xlink:title=" ">
<polygon fill="#e0e0e0" stroke="#999999" points="668.5,-19 615.5,-19 615.5,0 668.5,0 668.5,-19"/>
<text text-anchor="middle" x="642" y="-7" font-family="Helvetica,sans-Serif" font-size="10.00">stdlib.h</text>
</a>
</g>
</g>
<!-- Node21&#45;&gt;Node22 -->
<g id="edge21_Node000021_Node000022" class="edge">
<title>Node21&#45;&gt;Node22</title>
<g id="a_edge21_Node000021_Node000022"><a xlink:title=" ">
<path fill="none" stroke="#63b8ff" d="M612.78,-54.75C617.62,-47.42 624.68,-36.73 630.64,-27.7"/>
<polygon fill="#63b8ff" stroke="#63b8ff" points="633.74,-29.36 636.33,-19.09 627.9,-25.5 633.74,-29.36"/>
</a>
</g>
</g>
<!-- Node23&#45;&gt;Node17 -->
<g id="edge26_Node000023_Node000017" class="edge">
<title>Node23&#45;&gt;Node17</title>
<g id="a_edge26_Node000023_Node000017"><a xlink:title=" ">
<path fill="none" stroke="#63b8ff" d="M515.73,-164.98C536.76,-156.34 569.55,-142.87 593.54,-133.02"/>
<polygon fill="#63b8ff" stroke="#63b8ff" points="594.98,-136.21 602.9,-129.17 592.32,-129.73 594.98,-136.21"/>
</a>
</g>
</g>
<!-- Node23&#45;&gt;Node21 -->
<g id="edge27_Node000023_Node000021" class="edge">
<title>Node23&#45;&gt;Node21</title>
<g id="a_edge27_Node000023_Node000021"><a xlink:title=" ">
<path fill="none" stroke="#63b8ff" d="M504.17,-164.66C523.13,-146.38 566.89,-104.18 590.75,-81.17"/>
<polygon fill="#63b8ff" stroke="#63b8ff" points="593.25,-83.62 598.02,-74.16 588.39,-78.58 593.25,-83.62"/>
</a>
</g>
</g>
<!-- Node24 -->
<g id="Node000024" class="node">
<title>Node24</title>
<g id="a_Node000024"><a xlink:title=" ">
<polygon fill="#e0e0e0" stroke="#999999" points="345.5,-129 280.5,-129 280.5,-110 345.5,-110 345.5,-129"/>
<text text-anchor="middle" x="313" y="-117" font-family="Helvetica,sans-Serif" font-size="10.00">functional</text>
</a>
</g>
</g>
<!-- Node23&#45;&gt;Node24 -->
<g id="edge23_Node000023_Node000024" class="edge">
<title>Node23&#45;&gt;Node24</title>
<g id="a_edge23_Node000023_Node000024"><a xlink:title=" ">
<path fill="none" stroke="#63b8ff" d="M465.76,-164.98C434.94,-156.01 386.22,-141.82 352.11,-131.89"/>
<polygon fill="#63b8ff" stroke="#63b8ff" points="353.05,-128.52 342.47,-129.08 351.09,-135.24 353.05,-128.52"/>
</a>
</g>
</g>
<!-- Node25 -->
<g id="Node000025" class="node">
<title>Node25</title>
<g id="a_Node000025"><a xlink:title=" ">
<polygon fill="#e0e0e0" stroke="#999999" points="525,-129 475,-129 475,-110 525,-110 525,-129"/>
<text text-anchor="middle" x="500" y="-117" font-family="Helvetica,sans-Serif" font-size="10.00">ranges</text>
</a>
</g>
</g>
<!-- Node23&#45;&gt;Node25 -->
<g id="edge24_Node000023_Node000025" class="edge">
<title>Node23&#45;&gt;Node25</title>
<g id="a_edge24_Node000023_Node000025"><a xlink:title=" ">
<path fill="none" stroke="#63b8ff" d="M495.83,-164.75C496.48,-157.8 497.42,-147.85 498.24,-139.13"/>
<polygon fill="#63b8ff" stroke="#63b8ff" points="501.73,-139.37 499.19,-129.09 494.77,-138.72 501.73,-139.37"/>
</a>
</g>
</g>
<!-- Node26 -->
<g id="Node000026" class="node">
<title>Node26</title>
<g id="a_Node000026"><a xlink:title=" ">
<polygon fill="#e0e0e0" stroke="#999999" points="456.5,-129 363.5,-129 363.5,-110 456.5,-110 456.5,-129"/>
<text text-anchor="middle" x="410" y="-117" font-family="Helvetica,sans-Serif" font-size="10.00">unordered_map</text>
</a>
</g>
</g>
<!-- Node23&#45;&gt;Node26 -->
<g id="edge25_Node000023_Node000026" class="edge">
<title>Node23&#45;&gt;Node26</title>
<g id="a_edge25_Node000023_Node000026"><a xlink:title=" ">
<path fill="none" stroke="#63b8ff" d="M481.34,-164.98C468.16,-156.77 447.97,-144.18 432.43,-134.49"/>
<polygon fill="#63b8ff" stroke="#63b8ff" points="434.24,-131.49 423.91,-129.17 430.54,-137.43 434.24,-131.49"/>
</a>
</g>
</g>
<!-- Node27&#45;&gt;Node20 -->
<g id="edge30_Node000027_Node000020" class="edge">
<title>Node27&#45;&gt;Node20</title>
<g id="a_edge30_Node000027_Node000020"><a xlink:title=" ">
<path fill="none" stroke="#63b8ff" d="M754.78,-109.75C759.62,-102.42 766.68,-91.73 772.64,-82.7"/>
<polygon fill="#63b8ff" stroke="#63b8ff" points="775.74,-84.36 778.33,-74.09 769.9,-80.5 775.74,-84.36"/>
</a>
</g>
</g>
<!-- Node27&#45;&gt;Node21 -->
<g id="edge31_Node000027_Node000021" class="edge">
<title>Node27&#45;&gt;Node21</title>
<g id="a_edge31_Node000027_Node000021"><a xlink:title=" ">
<path fill="none" stroke="#63b8ff" d="M726.19,-109.98C702.83,-101.27 666.3,-87.63 639.83,-77.75"/>
<polygon fill="#63b8ff" stroke="#63b8ff" points="640.82,-74.39 630.23,-74.17 638.37,-80.95 640.82,-74.39"/>
</a>
</g>
</g>
<!-- Node27&#45;&gt;Node22 -->
<g id="edge29_Node000027_Node000022" class="edge">
<title>Node27&#45;&gt;Node22</title>
<g id="a_edge29_Node000027_Node000022"><a xlink:title=" ">
<path fill="none" stroke="#63b8ff" d="M740.24,-109.66C722.21,-91.46 680.69,-49.55 657.82,-26.47"/>
<polygon fill="#63b8ff" stroke="#63b8ff" points="660.1,-23.8 650.58,-19.16 655.13,-28.73 660.1,-23.8"/>
</a>
</g>
</g>
<!-- Node28&#45;&gt;Node27 -->
<g id="edge34_Node000028_Node000027" class="edge">
<title>Node28&#45;&gt;Node27</title>
<g id="a_edge34_Node000028_Node000027"><a xlink:title=" ">
<path fill="none" stroke="#63b8ff" d="M684.37,-164.98C696.09,-156.92 713.92,-144.65 727.89,-135.03"/>
<polygon fill="#63b8ff" stroke="#63b8ff" points="730.15,-137.72 736.4,-129.17 726.18,-131.96 730.15,-137.72"/>
</a>
</g>
</g>
<!-- Node29&#45;&gt;Node8 -->
<g id="edge36_Node000029_Node000008" class="edge">
<title>Node29&#45;&gt;Node8</title>
<g id="a_edge36_Node000029_Node000008"><a xlink:title=" ">
<path fill="none" stroke="#63b8ff" d="M1407.6,-219.98C1386.98,-211.38 1354.89,-197.99 1331.31,-188.15"/>
<polygon fill="#63b8ff" stroke="#63b8ff" points="1332.35,-184.79 1321.78,-184.17 1329.66,-191.25 1332.35,-184.79"/>
</a>
</g>
</g>
<!-- Node30&#45;&gt;Node5 -->
<g id="edge59_Node000030_Node000005" class="edge">
<title>Node30&#45;&gt;Node5</title>
<g id="a_edge59_Node000030_Node000005"><a xlink:title=" ">
<path fill="none" stroke="#63b8ff" d="M698.69,-393.38C769.07,-390.63 869.26,-380.67 951,-349 979.71,-337.87 1008.05,-315.89 1025.28,-300.94"/>
<polygon fill="#63b8ff" stroke="#63b8ff" points="1027.66,-303.51 1032.8,-294.24 1023.01,-298.28 1027.66,-303.51"/>
</a>
</g>
</g>
<!-- Node30&#45;&gt;Node8 -->
<g id="edge41_Node000030_Node000008" class="edge">
<title>Node30&#45;&gt;Node8</title>
<g id="a_edge41_Node000030_Node000008"><a xlink:title=" ">
<path fill="none" stroke="#63b8ff" d="M609.91,-384.89C606.83,-356.17 601.26,-263.05 652,-220 674.79,-200.67 1103.58,-182.88 1251.41,-177.3"/>
<polygon fill="#63b8ff" stroke="#63b8ff" points="1251.69,-180.79 1261.56,-176.92 1251.43,-173.8 1251.69,-180.79"/>
</a>
</g>
</g>
<!-- Node30&#45;&gt;Node16 -->
<g id="edge60_Node000030_Node000016" class="edge">
<title>Node30&#45;&gt;Node16</title>
<g id="a_edge60_Node000030_Node000016"><a xlink:title=" ">
<path fill="none" stroke="#63b8ff" d="M598.01,-384.79C586.46,-376.56 569.64,-363.38 558,-349 532.2,-317.13 512.11,-273.09 502.06,-248.66"/>
<polygon fill="#63b8ff" stroke="#63b8ff" points="505.24,-247.19 498.27,-239.21 498.74,-249.79 505.24,-247.19"/>
</a>
</g>
</g>
<!-- Node30&#45;&gt;Node18 -->
<g id="edge46_Node000030_Node000018" class="edge">
<title>Node30&#45;&gt;Node18</title>
<g id="a_edge46_Node000030_Node000018"><a xlink:title=" ">
<path fill="none" stroke="#63b8ff" d="M606.38,-384.64C592.52,-356.72 554.73,-269.44 596,-220 607.3,-206.47 703.68,-192.11 772.12,-183.48"/>
<polygon fill="#63b8ff" stroke="#63b8ff" points="772.93,-186.9 782.42,-182.19 772.07,-179.96 772.93,-186.9"/>
</a>
</g>
</g>
<!-- Node30&#45;&gt;Node24 -->
<g id="edge39_Node000030_Node000024" class="edge">
<title>Node30&#45;&gt;Node24</title>
<g id="a_edge39_Node000030_Node000024"><a xlink:title=" ">
<path fill="none" stroke="#63b8ff" d="M523.26,-387.1C451.81,-380.57 357.64,-368.58 325,-349 240.43,-298.27 145.62,-246.6 201,-165 216.49,-142.18 245.73,-131.06 270.45,-125.64"/>
<polygon fill="#63b8ff" stroke="#63b8ff" points="271.21,-129.06 280.36,-123.71 269.88,-122.19 271.21,-129.06"/>
</a>
</g>
</g>
<!-- Node31 -->
<g id="Node000031" class="node">
<title>Node31</title>
<g id="a_Node000031"><a xlink:title=" ">
<polygon fill="#e0e0e0" stroke="#999999" points="721.5,-349 638.5,-349 638.5,-330 721.5,-330 721.5,-349"/>
<text text-anchor="middle" x="680" y="-337" font-family="Helvetica,sans-Serif" font-size="10.00">GLFW/glfw3.h</text>
</a>
</g>
</g>
<!-- Node30&#45;&gt;Node31 -->
<g id="edge40_Node000030_Node000031" class="edge">
<title>Node30&#45;&gt;Node31</title>
<g id="a_edge40_Node000030_Node000031"><a xlink:title=" ">
<path fill="none" stroke="#63b8ff" d="M622.09,-384.98C632.49,-377 648.26,-364.88 660.72,-355.31"/>
<polygon fill="#63b8ff" stroke="#63b8ff" points="662.91,-358.04 668.71,-349.17 658.65,-352.49 662.91,-358.04"/>
</a>
</g>
</g>
<!-- Node32 -->
<g id="Node000032" class="node">
<title>Node32</title>
<g id="a_Node000032"><a xlink:href="_assert_8hpp.html" target="_top" xlink:title=" ">
<polygon fill="white" stroke="#666666" points="450,-349 334,-349 334,-330 450,-330 450,-349"/>
<text text-anchor="middle" x="392" y="-337" font-family="Helvetica,sans-Serif" font-size="10.00">Common/Assert.hpp</text>
</a>
</g>
</g>
<!-- Node30&#45;&gt;Node32 -->
<g id="edge42_Node000030_Node000032" class="edge">
<title>Node30&#45;&gt;Node32</title>
<g id="a_edge42_Node000030_Node000032"><a xlink:title=" ">
<path fill="none" stroke="#63b8ff" d="M575.81,-384.98C538.17,-375.87 478.34,-361.4 437.23,-351.45"/>
<polygon fill="#63b8ff" stroke="#63b8ff" points="438,-348.03 427.46,-349.08 436.36,-354.84 438,-348.03"/>
</a>
</g>
</g>
<!-- Node35 -->
<g id="Node000035" class="node">
<title>Node35</title>
<g id="a_Node000035"><a xlink:href="_box_collider_component_8hpp.html" target="_top" xlink:title=" ">
<polygon fill="white" stroke="#666666" points="1604.5,-349 1389.5,-349 1389.5,-330 1604.5,-330 1604.5,-349"/>
<text text-anchor="middle" x="1497" y="-337" font-family="Helvetica,sans-Serif" font-size="10.00">Components/BoxColliderComponent.hpp</text>
</a>
</g>
</g>
<!-- Node30&#45;&gt;Node35 -->
<g id="edge47_Node000030_Node000035" class="edge">
<title>Node30&#45;&gt;Node35</title>
<g id="a_edge47_Node000030_Node000035"><a xlink:title=" ">
<path fill="none" stroke="#63b8ff" d="M698.78,-388.25C859.03,-378.66 1198.98,-358.33 1379.17,-347.55"/>
<polygon fill="#63b8ff" stroke="#63b8ff" points="1379.44,-351.04 1389.21,-346.95 1379.02,-344.05 1379.44,-351.04"/>
</a>
</g>
</g>
<!-- Node38 -->
<g id="Node000038" class="node">
<title>Node38</title>
<g id="a_Node000038"><a xlink:href="_camera_component_8hpp.html" target="_top" xlink:title=" ">
<polygon fill="white" stroke="#666666" points="941.5,-349 744.5,-349 744.5,-330 941.5,-330 941.5,-349"/>
<text text-anchor="middle" x="843" y="-337" font-family="Helvetica,sans-Serif" font-size="10.00">Components/CameraComponent.hpp</text>
</a>
</g>
</g>
<!-- Node30&#45;&gt;Node38 -->
<g id="edge55_Node000030_Node000038" class="edge">
<title>Node30&#45;&gt;Node38</title>
<g id="a_edge55_Node000030_Node000038"><a xlink:title=" ">
<path fill="none" stroke="#63b8ff" d="M648.27,-384.98C688.32,-375.84 752.07,-361.27 795.64,-351.32"/>
<polygon fill="#63b8ff" stroke="#63b8ff" points="796.46,-354.72 805.43,-349.08 794.9,-347.9 796.46,-354.72"/>
</a>
</g>
</g>
<!-- Node32&#45;&gt;Node6 -->
<g id="edge45_Node000032_Node000006" class="edge">
<title>Node32&#45;&gt;Node6</title>
<g id="a_edge45_Node000032_Node000006"><a xlink:title=" ">
<path fill="none" stroke="#63b8ff" d="M362.98,-329.85C344.5,-322.94 321.41,-311.48 307,-294 296.59,-281.38 291.88,-263.19 289.75,-249.51"/>
<polygon fill="#63b8ff" stroke="#63b8ff" points="293.19,-248.8 288.5,-239.3 286.25,-249.65 293.19,-248.8"/>
</a>
</g>
</g>
<!-- Node33 -->
<g id="Node000033" class="node">
<title>Node33</title>
<g id="a_Node000033"><a xlink:title=" ">
<polygon fill="#e0e0e0" stroke="#999999" points="466.5,-294 399.5,-294 399.5,-275 466.5,-275 466.5,-294"/>
<text text-anchor="middle" x="433" y="-282" font-family="Helvetica,sans-Serif" font-size="10.00">fmt/core.h</text>
</a>
</g>
</g>
<!-- Node32&#45;&gt;Node33 -->
<g id="edge43_Node000032_Node000033" class="edge">
<title>Node32&#45;&gt;Node33</title>
<g id="a_edge43_Node000032_Node000033"><a xlink:title=" ">
<path fill="none" stroke="#63b8ff" d="M398.77,-329.75C404.56,-322.26 413.06,-311.28 420.14,-302.13"/>
<polygon fill="#63b8ff" stroke="#63b8ff" points="423.01,-304.14 426.36,-294.09 417.47,-299.86 423.01,-304.14"/>
</a>
</g>
</g>
<!-- Node34 -->
<g id="Node000034" class="node">
<title>Node34</title>
<g id="a_Node000034"><a xlink:title=" ">
<polygon fill="#e0e0e0" stroke="#999999" points="381.5,-294 316.5,-294 316.5,-275 381.5,-275 381.5,-294"/>
<text text-anchor="middle" x="349" y="-282" font-family="Helvetica,sans-Serif" font-size="10.00">exception</text>
</a>
</g>
</g>
<!-- Node32&#45;&gt;Node34 -->
<g id="edge44_Node000032_Node000034" class="edge">
<title>Node32&#45;&gt;Node34</title>
<g id="a_edge44_Node000032_Node000034"><a xlink:title=" ">
<path fill="none" stroke="#63b8ff" d="M384.9,-329.75C378.83,-322.26 369.91,-311.28 362.49,-302.13"/>
<polygon fill="#63b8ff" stroke="#63b8ff" points="364.99,-299.65 355.97,-294.09 359.55,-304.06 364.99,-299.65"/>
</a>
</g>
</g>
<!-- Node35&#45;&gt;Node5 -->
<g id="edge50_Node000035_Node000005" class="edge">
<title>Node35&#45;&gt;Node5</title>
<g id="a_edge50_Node000035_Node000005"><a xlink:title=" ">
<path fill="none" stroke="#63b8ff" d="M1423.9,-329.98C1342.43,-320.49 1210.94,-305.18 1125.49,-295.22"/>
<polygon fill="#63b8ff" stroke="#63b8ff" points="1125.64,-291.72 1115.3,-294.04 1124.83,-298.67 1125.64,-291.72"/>
</a>
</g>
</g>
<!-- Node35&#45;&gt;Node7 -->
<g id="edge48_Node000035_Node000007" class="edge">
<title>Node35&#45;&gt;Node7</title>
<g id="a_edge48_Node000035_Node000007"><a xlink:title=" ">
<path fill="none" stroke="#63b8ff" d="M1498.23,-329.66C1500.66,-312.17 1506.12,-272.8 1509.39,-249.27"/>
<polygon fill="#63b8ff" stroke="#63b8ff" points="1512.89,-249.54 1510.8,-239.16 1505.95,-248.58 1512.89,-249.54"/>
</a>
</g>
</g>
<!-- Node35&#45;&gt;Node13 -->
<g id="edge49_Node000035_Node000013" class="edge">
<title>Node35&#45;&gt;Node13</title>
<g id="a_edge49_Node000035_Node000013"><a xlink:title=" ">
<path fill="none" stroke="#63b8ff" d="M1539.73,-329.96C1573.99,-322.44 1622.96,-310.17 1664,-294 1699.04,-280.19 1737.03,-258.67 1760.42,-244.58"/>
<polygon fill="#63b8ff" stroke="#63b8ff" points="1762.5,-247.41 1769.22,-239.21 1758.86,-241.43 1762.5,-247.41"/>
</a>
</g>
</g>
<!-- Node36 -->
<g id="Node000036" class="node">
<title>Node36</title>
<g id="a_Node000036"><a xlink:href="_a_a_b_b_8hpp.html" target="_top" xlink:title=" ">
<polygon fill="white" stroke="#666666" points="1655,-294 1563,-294 1563,-275 1655,-275 1655,-294"/>
<text text-anchor="middle" x="1609" y="-282" font-family="Helvetica,sans-Serif" font-size="10.00">Math/AABB.hpp</text>
</a>
</g>
</g>
<!-- Node35&#45;&gt;Node36 -->
<g id="edge51_Node000035_Node000036" class="edge">
<title>Node35&#45;&gt;Node36</title>
<g id="a_edge51_Node000035_Node000036"><a xlink:title=" ">
<path fill="none" stroke="#63b8ff" d="M1514.99,-329.98C1532.93,-321.5 1560.72,-308.35 1581.43,-298.54"/>
<polygon fill="#63b8ff" stroke="#63b8ff" points="1583.14,-301.61 1590.68,-294.17 1580.14,-295.28 1583.14,-301.61"/>
</a>
</g>
</g>
<!-- Node36&#45;&gt;Node8 -->
<g id="edge54_Node000036_Node000008" class="edge">
<title>Node36&#45;&gt;Node8</title>
<g id="a_edge54_Node000036_Node000008"><a xlink:title=" ">
<path fill="none" stroke="#63b8ff" d="M1620.1,-274.99C1635.61,-262.11 1660.23,-237.32 1645,-220 1625.84,-198.2 1440.39,-183.99 1350.02,-178.31"/>
<polygon fill="#63b8ff" stroke="#63b8ff" points="1350.2,-174.81 1340.01,-177.69 1349.77,-181.8 1350.2,-174.81"/>
</a>
</g>
</g>
<!-- Node37 -->
<g id="Node000037" class="node">
<title>Node37</title>
<g id="a_Node000037"><a xlink:href="_ray_8hpp.html" target="_top" xlink:title=" ">
<polygon fill="white" stroke="#666666" points="1635.5,-239 1552.5,-239 1552.5,-220 1635.5,-220 1635.5,-239"/>
<text text-anchor="middle" x="1594" y="-227" font-family="Helvetica,sans-Serif" font-size="10.00">Math/Ray.hpp</text>
</a>
</g>
</g>
<!-- Node36&#45;&gt;Node37 -->
<g id="edge52_Node000036_Node000037" class="edge">
<title>Node36&#45;&gt;Node37</title>
<g id="a_edge52_Node000036_Node000037"><a xlink:title=" ">
<path fill="none" stroke="#63b8ff" d="M1606.52,-274.75C1604.54,-267.72 1601.68,-257.62 1599.19,-248.84"/>
<polygon fill="#63b8ff" stroke="#63b8ff" points="1602.52,-247.76 1596.43,-239.09 1595.79,-249.66 1602.52,-247.76"/>
</a>
</g>
</g>
<!-- Node37&#45;&gt;Node8 -->
<g id="edge53_Node000037_Node000008" class="edge">
<title>Node37&#45;&gt;Node8</title>
<g id="a_edge53_Node000037_Node000008"><a xlink:title=" ">
<path fill="none" stroke="#63b8ff" d="M1552.33,-220.96C1499.08,-211.33 1407.04,-194.68 1350.34,-184.43"/>
<polygon fill="#63b8ff" stroke="#63b8ff" points="1350.65,-180.92 1340.18,-182.59 1349.4,-187.81 1350.65,-180.92"/>
</a>
</g>
</g>
<!-- Node38&#45;&gt;Node5 -->
<g id="edge57_Node000038_Node000005" class="edge">
<title>Node38&#45;&gt;Node5</title>
<g id="a_edge57_Node000038_Node000005"><a xlink:title=" ">
<path fill="none" stroke="#63b8ff" d="M874.97,-329.98C908.82,-320.97 962.4,-306.7 999.71,-296.76"/>
<polygon fill="#63b8ff" stroke="#63b8ff" points="1001.01,-300.04 1009.78,-294.08 999.21,-293.27 1001.01,-300.04"/>
</a>
</g>
</g>
<!-- Node38&#45;&gt;Node8 -->
<g id="edge56_Node000038_Node000008" class="edge">
<title>Node38&#45;&gt;Node8</title>
<g id="a_edge56_Node000038_Node000008"><a xlink:title=" ">
<path fill="none" stroke="#63b8ff" d="M807.46,-329.95C743.17,-312.95 618.52,-272 667,-220 686.87,-198.69 1105.53,-182.25 1251.4,-177.15"/>
<polygon fill="#63b8ff" stroke="#63b8ff" points="1251.96,-180.64 1261.83,-176.79 1251.72,-173.64 1251.96,-180.64"/>
</a>
</g>
</g>
<!-- Node38&#45;&gt;Node37 -->
<g id="edge58_Node000038_Node000037" class="edge">
<title>Node38&#45;&gt;Node37</title>
<g id="a_edge58_Node000038_Node000037"><a xlink:title=" ">
<path fill="none" stroke="#63b8ff" d="M906.78,-329.96C1028.22,-313.57 1301.27,-276.19 1542.26,-239.08"/>
<polygon fill="#63b8ff" stroke="#63b8ff" points="1542.91,-242.52 1552.26,-237.54 1541.85,-235.6 1542.91,-242.52"/>
</a>
</g>
</g>
</g>
</svg>
