<?xml version="1.0" encoding="UTF-8" standalone="no"?>
<!DOCTYPE svg PUBLIC "-//W3C//DTD SVG 1.1//EN"
 "http://www.w3.org/Graphics/SVG/1.1/DTD/svg11.dtd">
<!-- Generated by graphviz version 2.43.0 (0)
 -->
<!-- Title: src/ui/Components/CameraComponentUI.cpp Pages: 1 -->
<svg width="524pt" height="225pt"
 viewBox="0.00 0.00 524.00 225.00" xmlns="http://www.w3.org/2000/svg" xmlns:xlink="http://www.w3.org/1999/xlink">
<g id="graph0" class="graph" transform="scale(1 1) rotate(0) translate(4 221)">
<title>src/ui/Components/CameraComponentUI.cpp</title>
<!-- Node1 -->
<g id="Node000001" class="node">
<title>Node1</title>
<g id="a_Node000001"><a xlink:title=" ">
<polygon fill="#999999" stroke="#666666" points="249,-217 100,-217 100,-187 249,-187 249,-217"/>
<text text-anchor="start" x="108" y="-205" font-family="Helvetica,sans-Serif" font-size="10.00">src/ui/Components/Camera</text>
<text text-anchor="middle" x="174.5" y="-194" font-family="Helvetica,sans-Serif" font-size="10.00">ComponentUI.cpp</text>
</a>
</g>
</g>
<!-- Node2 -->
<g id="Node000002" class="node">
<title>Node2</title>
<g id="a_Node000002"><a xlink:title=" ">
<polygon fill="#e0e0e0" stroke="#999999" points="53,-145.5 0,-145.5 0,-126.5 53,-126.5 53,-145.5"/>
<text text-anchor="middle" x="26.5" y="-133.5" font-family="Helvetica,sans-Serif" font-size="10.00">imgui.h</text>
</a>
</g>
</g>
<!-- Node1&#45;&gt;Node2 -->
<g id="edge1_Node000001_Node000002" class="edge">
<title>Node1&#45;&gt;Node2</title>
<g id="a_edge1_Node000001_Node000002"><a xlink:title=" ">
<path fill="none" stroke="#63b8ff" d="M142.02,-186.95C116.18,-175.78 80.35,-160.29 55.47,-149.53"/>
<polygon fill="#63b8ff" stroke="#63b8ff" points="56.76,-146.27 46.2,-145.52 53.99,-152.7 56.76,-146.27"/>
</a>
</g>
</g>
<!-- Node3 -->
<g id="Node000003" class="node">
<title>Node3</title>
<g id="a_Node000003"><a xlink:title=" ">
<polygon fill="#e0e0e0" stroke="#999999" points="149.5,-145.5 71.5,-145.5 71.5,-126.5 149.5,-126.5 149.5,-145.5"/>
<text text-anchor="middle" x="110.5" y="-133.5" font-family="Helvetica,sans-Serif" font-size="10.00">glm/glm.hpp</text>
</a>
</g>
</g>
<!-- Node1&#45;&gt;Node3 -->
<g id="edge2_Node000001_Node000003" class="edge">
<title>Node1&#45;&gt;Node3</title>
<g id="a_edge2_Node000001_Node000003"><a xlink:title=" ">
<path fill="none" stroke="#63b8ff" d="M160.3,-186.8C150.32,-176.82 136.96,-163.46 126.59,-153.09"/>
<polygon fill="#63b8ff" stroke="#63b8ff" points="128.89,-150.44 119.34,-145.84 123.94,-155.39 128.89,-150.44"/>
</a>
</g>
</g>
<!-- Node4 -->
<g id="Node000004" class="node">
<title>Node4</title>
<g id="a_Node000004"><a xlink:href="_image_8hpp.html" target="_top" xlink:title=" ">
<polygon fill="white" stroke="#666666" points="309,-145.5 168,-145.5 168,-126.5 309,-126.5 309,-145.5"/>
<text text-anchor="middle" x="238.5" y="-133.5" font-family="Helvetica,sans-Serif" font-size="10.00">AssetManager/Image.hpp</text>
</a>
</g>
</g>
<!-- Node1&#45;&gt;Node4 -->
<g id="edge3_Node000001_Node000004" class="edge">
<title>Node1&#45;&gt;Node4</title>
<g id="a_edge3_Node000001_Node000004"><a xlink:title=" ">
<path fill="none" stroke="#63b8ff" d="M188.7,-186.8C198.68,-176.82 212.04,-163.46 222.41,-153.09"/>
<polygon fill="#63b8ff" stroke="#63b8ff" points="225.06,-155.39 229.66,-145.84 220.11,-150.44 225.06,-155.39"/>
</a>
</g>
</g>
<!-- Node7 -->
<g id="Node000007" class="node">
<title>Node7</title>
<g id="a_Node000007"><a xlink:title=" ">
<polygon fill="#e0e0e0" stroke="#999999" points="516,-151 327,-151 327,-121 516,-121 516,-151"/>
<text text-anchor="start" x="335" y="-139" font-family="Helvetica,sans-Serif" font-size="10.00">UI/Components/CameraComponent</text>
<text text-anchor="middle" x="421.5" y="-128" font-family="Helvetica,sans-Serif" font-size="10.00">UI.hpp</text>
</a>
</g>
</g>
<!-- Node1&#45;&gt;Node7 -->
<g id="edge7_Node000001_Node000007" class="edge">
<title>Node1&#45;&gt;Node7</title>
<g id="a_edge7_Node000001_Node000007"><a xlink:title=" ">
<path fill="none" stroke="#63b8ff" d="M228.71,-186.95C266.67,-177.12 317.55,-163.93 357.51,-153.58"/>
<polygon fill="#63b8ff" stroke="#63b8ff" points="358.62,-156.91 367.42,-151.01 356.86,-150.13 358.62,-156.91"/>
</a>
</g>
</g>
<!-- Node5 -->
<g id="Node000005" class="node">
<title>Node5</title>
<g id="a_Node000005"><a xlink:title=" ">
<polygon fill="#e0e0e0" stroke="#999999" points="272.5,-19 204.5,-19 204.5,0 272.5,0 272.5,-19"/>
<text text-anchor="middle" x="238.5" y="-7" font-family="Helvetica,sans-Serif" font-size="10.00">filesystem</text>
</a>
</g>
</g>
<!-- Node4&#45;&gt;Node5 -->
<g id="edge4_Node000004_Node000005" class="edge">
<title>Node4&#45;&gt;Node5</title>
<g id="a_edge4_Node000004_Node000005"><a xlink:title=" ">
<path fill="none" stroke="#63b8ff" d="M228.58,-126.21C219.03,-117.02 205.23,-101.66 199.5,-85 195.16,-72.39 194.81,-67.48 199.5,-55 203.68,-43.89 212.02,-33.75 219.93,-25.96"/>
<polygon fill="#63b8ff" stroke="#63b8ff" points="222.51,-28.35 227.51,-19.01 217.78,-23.19 222.51,-28.35"/>
</a>
</g>
</g>
<!-- Node6 -->
<g id="Node000006" class="node">
<title>Node6</title>
<g id="a_Node000006"><a xlink:href="_path_constructible_asset_8hpp.html" target="_top" xlink:title=" ">
<polygon fill="white" stroke="#666666" points="384,-85 209,-85 209,-55 384,-55 384,-85"/>
<text text-anchor="start" x="217" y="-73" font-family="Helvetica,sans-Serif" font-size="10.00">AssetManager/PathConstructible</text>
<text text-anchor="middle" x="296.5" y="-62" font-family="Helvetica,sans-Serif" font-size="10.00">Asset.hpp</text>
</a>
</g>
</g>
<!-- Node4&#45;&gt;Node6 -->
<g id="edge5_Node000004_Node000006" class="edge">
<title>Node4&#45;&gt;Node6</title>
<g id="a_edge5_Node000004_Node000006"><a xlink:title=" ">
<path fill="none" stroke="#63b8ff" d="M246.32,-126.37C254.06,-117.83 266.22,-104.41 276.63,-92.92"/>
<polygon fill="#63b8ff" stroke="#63b8ff" points="279.36,-95.12 283.49,-85.36 274.18,-90.42 279.36,-95.12"/>
</a>
</g>
</g>
<!-- Node6&#45;&gt;Node5 -->
<g id="edge6_Node000006_Node000005" class="edge">
<title>Node6&#45;&gt;Node5</title>
<g id="a_edge6_Node000006_Node000005"><a xlink:title=" ">
<path fill="none" stroke="#63b8ff" d="M282.46,-54.84C273.95,-46.26 263.09,-35.3 254.28,-26.42"/>
<polygon fill="#63b8ff" stroke="#63b8ff" points="256.72,-23.9 247.19,-19.27 251.75,-28.83 256.72,-23.9"/>
</a>
</g>
</g>
</g>
</svg>
