<?xml version="1.0" encoding="UTF-8" standalone="no"?>
<!DOCTYPE svg PUBLIC "-//W3C//DTD SVG 1.1//EN"
 "http://www.w3.org/Graphics/SVG/1.1/DTD/svg11.dtd">
<!-- Generated by graphviz version 2.43.0 (0)
 -->
<!-- Title: src/Systems/CameraMovementSystem.cpp Pages: 1 -->
<svg width="1141pt" height="319pt"
 viewBox="0.00 0.00 1141.00 319.00" xmlns="http://www.w3.org/2000/svg" xmlns:xlink="http://www.w3.org/1999/xlink">
<g id="graph0" class="graph" transform="scale(1 1) rotate(0) translate(4 315)">
<title>src/Systems/CameraMovementSystem.cpp</title>
<polygon fill="white" stroke="transparent" points="-4,4 -4,-315 1137,-315 1137,4 -4,4"/>
<!-- Node1 -->
<g id="node1" class="node">
<title>Node1</title>
<g id="a_node1"><a xlink:title=" ">
<polygon fill="#bfbfbf" stroke="black" points="372,-280.5 372,-310.5 542,-310.5 542,-280.5 372,-280.5"/>
<text text-anchor="start" x="380" y="-298.5" font-family="Helvetica,sans-Serif" font-size="10.00">src/Systems/CameraMovement</text>
<text text-anchor="middle" x="457" y="-287.5" font-family="Helvetica,sans-Serif" font-size="10.00">System.cpp</text>
</a>
</g>
</g>
<!-- Node2 -->
<g id="node2" class="node">
<title>Node2</title>
<g id="a_node2"><a xlink:href="_camera_movement_system_8hpp.html" target="_top" xlink:title=" ">
<polygon fill="white" stroke="black" points="20,-224.5 20,-243.5 230,-243.5 230,-224.5 20,-224.5"/>
<text text-anchor="middle" x="125" y="-231.5" font-family="Helvetica,sans-Serif" font-size="10.00">Systems/CameraMovementSystem.hpp</text>
</a>
</g>
</g>
<!-- Node1&#45;&gt;Node2 -->
<g id="edge1" class="edge">
<title>Node1&#45;&gt;Node2</title>
<path fill="none" stroke="midnightblue" d="M378.74,-280.47C318.59,-269.69 236.86,-255.05 182.6,-245.32"/>
<polygon fill="midnightblue" stroke="midnightblue" points="182.92,-241.83 172.46,-243.51 181.69,-248.72 182.92,-241.83"/>
</g>
<!-- Node10 -->
<g id="node10" class="node">
<title>Node10</title>
<g id="a_node10"><a xlink:href="_input_manager_8hpp.html" target="_top" xlink:title=" ">
<polygon fill="white" stroke="black" points="265.5,-224.5 265.5,-243.5 440.5,-243.5 440.5,-224.5 265.5,-224.5"/>
<text text-anchor="middle" x="353" y="-231.5" font-family="Helvetica,sans-Serif" font-size="10.00">InputManager/InputManager.hpp</text>
</a>
</g>
</g>
<!-- Node1&#45;&gt;Node10 -->
<g id="edge10" class="edge">
<title>Node1&#45;&gt;Node10</title>
<path fill="none" stroke="midnightblue" d="M432.35,-280.4C415.68,-270.86 393.77,-258.32 377.19,-248.84"/>
<polygon fill="midnightblue" stroke="midnightblue" points="378.55,-245.59 368.13,-243.66 375.07,-251.66 378.55,-245.59"/>
</g>
<!-- Node14 -->
<g id="node14" class="node">
<title>Node14</title>
<g id="a_node14"><a xlink:href="_transform_component_8hpp.html" target="_top" xlink:title=" ">
<polygon fill="white" stroke="black" points="467.5,-224.5 467.5,-243.5 674.5,-243.5 674.5,-224.5 467.5,-224.5"/>
<text text-anchor="middle" x="571" y="-231.5" font-family="Helvetica,sans-Serif" font-size="10.00">Components/TransformComponent.hpp</text>
</a>
</g>
</g>
<!-- Node1&#45;&gt;Node14 -->
<g id="edge14" class="edge">
<title>Node1&#45;&gt;Node14</title>
<path fill="none" stroke="midnightblue" d="M484.02,-280.4C502.63,-270.68 527.21,-257.86 545.49,-248.31"/>
<polygon fill="midnightblue" stroke="midnightblue" points="547.17,-251.39 554.41,-243.66 543.93,-245.18 547.17,-251.39"/>
</g>
<!-- Node21 -->
<g id="node21" class="node">
<title>Node21</title>
<g id="a_node21"><a xlink:title=" ">
<polygon fill="white" stroke="#bfbfbf" points="693,-224.5 693,-243.5 753,-243.5 753,-224.5 693,-224.5"/>
<text text-anchor="middle" x="723" y="-231.5" font-family="Helvetica,sans-Serif" font-size="10.00">iostream</text>
</a>
</g>
</g>
<!-- Node1&#45;&gt;Node21 -->
<g id="edge23" class="edge">
<title>Node1&#45;&gt;Node21</title>
<path fill="none" stroke="midnightblue" d="M519.84,-280.48C565.19,-270.36 627.88,-256.36 683,-244 683.1,-243.98 683.2,-243.96 683.3,-243.93"/>
<polygon fill="midnightblue" stroke="midnightblue" points="683.87,-247.39 692.86,-241.79 682.34,-240.56 683.87,-247.39"/>
</g>
<!-- Node3 -->
<g id="node3" class="node">
<title>Node3</title>
<g id="a_node3"><a xlink:title=" ">
<polygon fill="white" stroke="#bfbfbf" points="0,-168.5 0,-187.5 58,-187.5 58,-168.5 0,-168.5"/>
<text text-anchor="middle" x="29" y="-175.5" font-family="Helvetica,sans-Serif" font-size="10.00">memory</text>
</a>
</g>
</g>
<!-- Node2&#45;&gt;Node3 -->
<g id="edge2" class="edge">
<title>Node2&#45;&gt;Node3</title>
<path fill="none" stroke="midnightblue" d="M109.58,-224.32C94.46,-215.82 71.18,-202.73 53.53,-192.8"/>
<polygon fill="midnightblue" stroke="midnightblue" points="54.82,-189.51 44.39,-187.65 51.39,-195.61 54.82,-189.51"/>
</g>
<!-- Node4 -->
<g id="node4" class="node">
<title>Node4</title>
<g id="a_node4"><a xlink:href="_registry_8hpp.html" target="_top" xlink:title=" ">
<polygon fill="white" stroke="black" points="76,-168.5 76,-187.5 174,-187.5 174,-168.5 76,-168.5"/>
<text text-anchor="middle" x="125" y="-175.5" font-family="Helvetica,sans-Serif" font-size="10.00">ECS/Registry.hpp</text>
</a>
</g>
</g>
<!-- Node2&#45;&gt;Node4 -->
<g id="edge3" class="edge">
<title>Node2&#45;&gt;Node4</title>
<path fill="none" stroke="midnightblue" d="M125,-224.08C125,-217.01 125,-206.86 125,-197.99"/>
<polygon fill="midnightblue" stroke="midnightblue" points="128.5,-197.75 125,-187.75 121.5,-197.75 128.5,-197.75"/>
</g>
<!-- Node5 -->
<g id="node5" class="node">
<title>Node5</title>
<g id="a_node5"><a xlink:title=" ">
<polygon fill="white" stroke="#bfbfbf" points="11,-112.5 11,-131.5 97,-131.5 97,-112.5 11,-112.5"/>
<text text-anchor="middle" x="54" y="-119.5" font-family="Helvetica,sans-Serif" font-size="10.00">unordered_set</text>
</a>
</g>
</g>
<!-- Node4&#45;&gt;Node5 -->
<g id="edge4" class="edge">
<title>Node4&#45;&gt;Node5</title>
<path fill="none" stroke="midnightblue" d="M113.59,-168.32C102.89,-160.18 86.66,-147.84 73.84,-138.09"/>
<polygon fill="midnightblue" stroke="midnightblue" points="75.69,-135.1 65.61,-131.83 71.46,-140.67 75.69,-135.1"/>
</g>
<!-- Node6 -->
<g id="node6" class="node">
<title>Node6</title>
<g id="a_node6"><a xlink:href="_entity_provider_8hpp.html" target="_top" xlink:title="Manages a pool of unused entity identifiers and provides mechanisms for requesting and removing them.">
<polygon fill="white" stroke="black" points="102,-56.5 102,-75.5 230,-75.5 230,-56.5 102,-56.5"/>
<text text-anchor="middle" x="166" y="-63.5" font-family="Helvetica,sans-Serif" font-size="10.00">ECS/EntityProvider.hpp</text>
</a>
</g>
</g>
<!-- Node4&#45;&gt;Node6 -->
<g id="edge5" class="edge">
<title>Node4&#45;&gt;Node6</title>
<path fill="none" stroke="midnightblue" d="M127.01,-168.43C130.07,-155.85 136.36,-131.73 144,-112 147.57,-102.78 152.31,-92.86 156.48,-84.7"/>
<polygon fill="midnightblue" stroke="midnightblue" points="159.62,-86.25 161.16,-75.76 153.42,-83 159.62,-86.25"/>
</g>
<!-- Node9 -->
<g id="node9" class="node">
<title>Node9</title>
<g id="a_node9"><a xlink:href="_sparse_set_8hpp.html" target="_top" xlink:title=" ">
<polygon fill="white" stroke="black" points="153,-112.5 153,-131.5 261,-131.5 261,-112.5 153,-112.5"/>
<text text-anchor="middle" x="207" y="-119.5" font-family="Helvetica,sans-Serif" font-size="10.00">ECS/SparseSet.hpp</text>
</a>
</g>
</g>
<!-- Node4&#45;&gt;Node9 -->
<g id="edge8" class="edge">
<title>Node4&#45;&gt;Node9</title>
<path fill="none" stroke="midnightblue" d="M138.17,-168.32C150.85,-159.98 170.23,-147.21 185.21,-137.35"/>
<polygon fill="midnightblue" stroke="midnightblue" points="187.43,-140.08 193.86,-131.65 183.58,-134.23 187.43,-140.08"/>
</g>
<!-- Node7 -->
<g id="node7" class="node">
<title>Node7</title>
<g id="a_node7"><a xlink:title=" ">
<polygon fill="white" stroke="#bfbfbf" points="105.5,-0.5 105.5,-19.5 158.5,-19.5 158.5,-0.5 105.5,-0.5"/>
<text text-anchor="middle" x="132" y="-7.5" font-family="Helvetica,sans-Serif" font-size="10.00">stdlib.h</text>
</a>
</g>
</g>
<!-- Node6&#45;&gt;Node7 -->
<g id="edge6" class="edge">
<title>Node6&#45;&gt;Node7</title>
<path fill="none" stroke="midnightblue" d="M160.39,-56.08C155.63,-48.53 148.68,-37.49 142.85,-28.23"/>
<polygon fill="midnightblue" stroke="midnightblue" points="145.8,-26.35 137.51,-19.75 139.88,-30.08 145.8,-26.35"/>
</g>
<!-- Node8 -->
<g id="node8" class="node">
<title>Node8</title>
<g id="a_node8"><a xlink:title=" ">
<polygon fill="white" stroke="#bfbfbf" points="176.5,-0.5 176.5,-19.5 223.5,-19.5 223.5,-0.5 176.5,-0.5"/>
<text text-anchor="middle" x="200" y="-7.5" font-family="Helvetica,sans-Serif" font-size="10.00">queue</text>
</a>
</g>
</g>
<!-- Node6&#45;&gt;Node8 -->
<g id="edge7" class="edge">
<title>Node6&#45;&gt;Node8</title>
<path fill="none" stroke="midnightblue" d="M171.61,-56.08C176.37,-48.53 183.32,-37.49 189.15,-28.23"/>
<polygon fill="midnightblue" stroke="midnightblue" points="192.12,-30.08 194.49,-19.75 186.2,-26.35 192.12,-30.08"/>
</g>
<!-- Node9&#45;&gt;Node6 -->
<g id="edge9" class="edge">
<title>Node9&#45;&gt;Node6</title>
<path fill="none" stroke="midnightblue" d="M200.23,-112.08C194.44,-104.46 185.94,-93.26 178.86,-83.94"/>
<polygon fill="midnightblue" stroke="midnightblue" points="181.48,-81.6 172.64,-75.75 175.9,-85.83 181.48,-81.6"/>
</g>
<!-- Node11 -->
<g id="node11" class="node">
<title>Node11</title>
<g id="a_node11"><a xlink:title=" ">
<polygon fill="white" stroke="#bfbfbf" points="192.5,-168.5 192.5,-187.5 257.5,-187.5 257.5,-168.5 192.5,-168.5"/>
<text text-anchor="middle" x="225" y="-175.5" font-family="Helvetica,sans-Serif" font-size="10.00">functional</text>
</a>
</g>
</g>
<!-- Node10&#45;&gt;Node11 -->
<g id="edge11" class="edge">
<title>Node10&#45;&gt;Node11</title>
<path fill="none" stroke="midnightblue" d="M332.72,-224.44C311.65,-215.56 278.48,-201.56 254.51,-191.45"/>
<polygon fill="midnightblue" stroke="midnightblue" points="255.76,-188.18 245.19,-187.52 253.04,-194.63 255.76,-188.18"/>
</g>
<!-- Node12 -->
<g id="node12" class="node">
<title>Node12</title>
<g id="a_node12"><a xlink:title=" ">
<polygon fill="white" stroke="#bfbfbf" points="275.5,-168.5 275.5,-187.5 358.5,-187.5 358.5,-168.5 275.5,-168.5"/>
<text text-anchor="middle" x="317" y="-175.5" font-family="Helvetica,sans-Serif" font-size="10.00">GLFW/glfw3.h</text>
</a>
</g>
</g>
<!-- Node10&#45;&gt;Node12 -->
<g id="edge12" class="edge">
<title>Node10&#45;&gt;Node12</title>
<path fill="none" stroke="midnightblue" d="M347.06,-224.08C342.02,-216.53 334.66,-205.49 328.49,-196.23"/>
<polygon fill="midnightblue" stroke="midnightblue" points="331.29,-194.13 322.83,-187.75 325.47,-198.01 331.29,-194.13"/>
</g>
<!-- Node13 -->
<g id="node13" class="node">
<title>Node13</title>
<g id="a_node13"><a xlink:title=" ">
<polygon fill="white" stroke="#bfbfbf" points="386,-112.5 386,-131.5 464,-131.5 464,-112.5 386,-112.5"/>
<text text-anchor="middle" x="425" y="-119.5" font-family="Helvetica,sans-Serif" font-size="10.00">glm/glm.hpp</text>
</a>
</g>
</g>
<!-- Node10&#45;&gt;Node13 -->
<g id="edge13" class="edge">
<title>Node10&#45;&gt;Node13</title>
<path fill="none" stroke="midnightblue" d="M358.65,-224.37C370.53,-206.22 398.29,-163.8 413.88,-139.99"/>
<polygon fill="midnightblue" stroke="midnightblue" points="416.83,-141.88 419.38,-131.59 410.97,-138.04 416.83,-141.88"/>
</g>
<!-- Node14&#45;&gt;Node13 -->
<g id="edge16" class="edge">
<title>Node14&#45;&gt;Node13</title>
<path fill="none" stroke="midnightblue" d="M513.06,-224.46C488.79,-218.13 462.08,-207.12 444,-188 432.27,-175.6 427.74,-156.35 426.01,-142.02"/>
<polygon fill="midnightblue" stroke="midnightblue" points="429.47,-141.47 425.14,-131.8 422.5,-142.06 429.47,-141.47"/>
</g>
<!-- Node15 -->
<g id="node15" class="node">
<title>Node15</title>
<g id="a_node15"><a xlink:title=" ">
<polygon fill="white" stroke="#bfbfbf" points="453,-168.5 453,-187.5 497,-187.5 497,-168.5 453,-168.5"/>
<text text-anchor="middle" x="475" y="-175.5" font-family="Helvetica,sans-Serif" font-size="10.00">string</text>
</a>
</g>
</g>
<!-- Node14&#45;&gt;Node15 -->
<g id="edge15" class="edge">
<title>Node14&#45;&gt;Node15</title>
<path fill="none" stroke="midnightblue" d="M555.58,-224.32C540.46,-215.82 517.18,-202.73 499.53,-192.8"/>
<polygon fill="midnightblue" stroke="midnightblue" points="500.82,-189.51 490.39,-187.65 497.39,-195.61 500.82,-189.51"/>
</g>
<!-- Node16 -->
<g id="node16" class="node">
<title>Node16</title>
<g id="a_node16"><a xlink:title=" ">
<polygon fill="white" stroke="#bfbfbf" points="515,-168.5 515,-187.5 645,-187.5 645,-168.5 515,-168.5"/>
<text text-anchor="middle" x="580" y="-175.5" font-family="Helvetica,sans-Serif" font-size="10.00">glm/gtc/quaternion.hpp</text>
</a>
</g>
</g>
<!-- Node14&#45;&gt;Node16 -->
<g id="edge17" class="edge">
<title>Node14&#45;&gt;Node16</title>
<path fill="none" stroke="midnightblue" d="M572.49,-224.08C573.68,-216.93 575.39,-206.64 576.88,-197.69"/>
<polygon fill="midnightblue" stroke="midnightblue" points="580.35,-198.19 578.54,-187.75 573.45,-197.04 580.35,-198.19"/>
</g>
<!-- Node17 -->
<g id="node17" class="node">
<title>Node17</title>
<g id="a_node17"><a xlink:title=" ">
<polygon fill="white" stroke="#bfbfbf" points="663.5,-168.5 663.5,-187.5 826.5,-187.5 826.5,-168.5 663.5,-168.5"/>
<text text-anchor="middle" x="745" y="-175.5" font-family="Helvetica,sans-Serif" font-size="10.00">glm/gtc/matrix_transform.hpp</text>
</a>
</g>
</g>
<!-- Node14&#45;&gt;Node17 -->
<g id="edge18" class="edge">
<title>Node14&#45;&gt;Node17</title>
<path fill="none" stroke="midnightblue" d="M598.57,-224.44C628.1,-215.28 675.12,-200.69 707.88,-190.52"/>
<polygon fill="midnightblue" stroke="midnightblue" points="709.04,-193.82 717.56,-187.52 706.97,-187.14 709.04,-193.82"/>
</g>
<!-- Node18 -->
<g id="node18" class="node">
<title>Node18</title>
<g id="a_node18"><a xlink:href="_math_2_utils_8hpp.html" target="_top" xlink:title=" ">
<polygon fill="white" stroke="black" points="845,-168.5 845,-187.5 933,-187.5 933,-168.5 845,-168.5"/>
<text text-anchor="middle" x="889" y="-175.5" font-family="Helvetica,sans-Serif" font-size="10.00">Math/Utils.hpp</text>
</a>
</g>
</g>
<!-- Node14&#45;&gt;Node18 -->
<g id="edge19" class="edge">
<title>Node14&#45;&gt;Node18</title>
<path fill="none" stroke="midnightblue" d="M621.39,-224.44C679.66,-214.55 775.22,-198.32 834.99,-188.17"/>
<polygon fill="midnightblue" stroke="midnightblue" points="835.72,-191.6 844.99,-186.47 834.55,-184.7 835.72,-191.6"/>
</g>
<!-- Node19 -->
<g id="node19" class="node">
<title>Node19</title>
<g id="a_node19"><a xlink:href="_base_component_8hpp.html" target="_top" xlink:title=" ">
<polygon fill="white" stroke="black" points="951,-168.5 951,-187.5 1133,-187.5 1133,-168.5 951,-168.5"/>
<text text-anchor="middle" x="1042" y="-175.5" font-family="Helvetica,sans-Serif" font-size="10.00">Components/BaseComponent.hpp</text>
</a>
</g>
</g>
<!-- Node14&#45;&gt;Node19 -->
<g id="edge21" class="edge">
<title>Node14&#45;&gt;Node19</title>
<path fill="none" stroke="midnightblue" d="M645.37,-224.47C730.24,-214.74 868.74,-198.86 957.59,-188.68"/>
<polygon fill="midnightblue" stroke="midnightblue" points="958.09,-192.14 967.63,-187.53 957.3,-185.19 958.09,-192.14"/>
</g>
<!-- Node18&#45;&gt;Node13 -->
<g id="edge20" class="edge">
<title>Node18&#45;&gt;Node13</title>
<path fill="none" stroke="midnightblue" d="M844.83,-169.43C841.5,-168.93 838.2,-168.44 835,-168 705.26,-150.08 551.63,-134.8 474.47,-127.53"/>
<polygon fill="midnightblue" stroke="midnightblue" points="474.38,-124.01 464.1,-126.56 473.73,-130.98 474.38,-124.01"/>
</g>
<!-- Node20 -->
<g id="node20" class="node">
<title>Node20</title>
<g id="a_node20"><a xlink:href="_types_8hpp.html" target="_top" xlink:title=" ">
<polygon fill="white" stroke="black" points="985.5,-112.5 985.5,-131.5 1098.5,-131.5 1098.5,-112.5 985.5,-112.5"/>
<text text-anchor="middle" x="1042" y="-119.5" font-family="Helvetica,sans-Serif" font-size="10.00">Common/Types.hpp</text>
</a>
</g>
</g>
<!-- Node19&#45;&gt;Node20 -->
<g id="edge22" class="edge">
<title>Node19&#45;&gt;Node20</title>
<path fill="none" stroke="midnightblue" d="M1042,-168.08C1042,-161.01 1042,-150.86 1042,-141.99"/>
<polygon fill="midnightblue" stroke="midnightblue" points="1045.5,-141.75 1042,-131.75 1038.5,-141.75 1045.5,-141.75"/>
</g>
</g>
</svg>
