<?xml version="1.0" encoding="UTF-8" standalone="no"?>
<!DOCTYPE svg PUBLIC "-//W3C//DTD SVG 1.1//EN"
 "http://www.w3.org/Graphics/SVG/1.1/DTD/svg11.dtd">
<!-- Generated by graphviz version 2.43.0 (0)
 -->
<!-- Title: src/Systems/CameraMovementSystem.hpp Pages: 1 -->
<svg width="277pt" height="263pt"
 viewBox="0.00 0.00 277.00 263.00" xmlns="http://www.w3.org/2000/svg" xmlns:xlink="http://www.w3.org/1999/xlink">
<g id="graph0" class="graph" transform="scale(1 1) rotate(0) translate(4 259)">
<title>src/Systems/CameraMovementSystem.hpp</title>
<polygon fill="white" stroke="transparent" points="-4,4 -4,-259 273,-259 273,4 -4,4"/>
<!-- Node1 -->
<g id="node1" class="node">
<title>Node1</title>
<g id="a_node1"><a xlink:title=" ">
<polygon fill="#bfbfbf" stroke="black" points="0,-224.5 0,-254.5 170,-254.5 170,-224.5 0,-224.5"/>
<text text-anchor="start" x="8" y="-242.5" font-family="Helvetica,sans-Serif" font-size="10.00">src/Systems/CameraMovement</text>
<text text-anchor="middle" x="85" y="-231.5" font-family="Helvetica,sans-Serif" font-size="10.00">System.hpp</text>
</a>
</g>
</g>
<!-- Node2 -->
<g id="node2" class="node">
<title>Node2</title>
<g id="a_node2"><a xlink:title=" ">
<polygon fill="white" stroke="#bfbfbf" points="8,-168.5 8,-187.5 66,-187.5 66,-168.5 8,-168.5"/>
<text text-anchor="middle" x="37" y="-175.5" font-family="Helvetica,sans-Serif" font-size="10.00">memory</text>
</a>
</g>
</g>
<!-- Node1&#45;&gt;Node2 -->
<g id="edge1" class="edge">
<title>Node1&#45;&gt;Node2</title>
<path fill="none" stroke="midnightblue" d="M73.62,-224.4C66.65,-215.75 57.69,-204.64 50.37,-195.58"/>
<polygon fill="midnightblue" stroke="midnightblue" points="52.99,-193.24 43.98,-187.66 47.54,-197.64 52.99,-193.24"/>
</g>
<!-- Node3 -->
<g id="node3" class="node">
<title>Node3</title>
<g id="a_node3"><a xlink:href="_registry_8hpp.html" target="_top" xlink:title=" ">
<polygon fill="white" stroke="black" points="84,-168.5 84,-187.5 182,-187.5 182,-168.5 84,-168.5"/>
<text text-anchor="middle" x="133" y="-175.5" font-family="Helvetica,sans-Serif" font-size="10.00">ECS/Registry.hpp</text>
</a>
</g>
</g>
<!-- Node1&#45;&gt;Node3 -->
<g id="edge2" class="edge">
<title>Node1&#45;&gt;Node3</title>
<path fill="none" stroke="midnightblue" d="M96.38,-224.4C103.35,-215.75 112.31,-204.64 119.63,-195.58"/>
<polygon fill="midnightblue" stroke="midnightblue" points="122.46,-197.64 126.02,-187.66 117.01,-193.24 122.46,-197.64"/>
</g>
<!-- Node4 -->
<g id="node4" class="node">
<title>Node4</title>
<g id="a_node4"><a xlink:title=" ">
<polygon fill="white" stroke="#bfbfbf" points="19,-112.5 19,-131.5 105,-131.5 105,-112.5 19,-112.5"/>
<text text-anchor="middle" x="62" y="-119.5" font-family="Helvetica,sans-Serif" font-size="10.00">unordered_set</text>
</a>
</g>
</g>
<!-- Node3&#45;&gt;Node4 -->
<g id="edge3" class="edge">
<title>Node3&#45;&gt;Node4</title>
<path fill="none" stroke="midnightblue" d="M121.59,-168.32C110.89,-160.18 94.66,-147.84 81.84,-138.09"/>
<polygon fill="midnightblue" stroke="midnightblue" points="83.69,-135.1 73.61,-131.83 79.46,-140.67 83.69,-135.1"/>
</g>
<!-- Node5 -->
<g id="node5" class="node">
<title>Node5</title>
<g id="a_node5"><a xlink:href="_entity_provider_8hpp.html" target="_top" xlink:title="Manages a pool of unused entity identifiers and provides mechanisms for requesting and removing them.">
<polygon fill="white" stroke="black" points="110,-56.5 110,-75.5 238,-75.5 238,-56.5 110,-56.5"/>
<text text-anchor="middle" x="174" y="-63.5" font-family="Helvetica,sans-Serif" font-size="10.00">ECS/EntityProvider.hpp</text>
</a>
</g>
</g>
<!-- Node3&#45;&gt;Node5 -->
<g id="edge4" class="edge">
<title>Node3&#45;&gt;Node5</title>
<path fill="none" stroke="midnightblue" d="M135.01,-168.43C138.07,-155.85 144.36,-131.73 152,-112 155.57,-102.78 160.31,-92.86 164.48,-84.7"/>
<polygon fill="midnightblue" stroke="midnightblue" points="167.62,-86.25 169.16,-75.76 161.42,-83 167.62,-86.25"/>
</g>
<!-- Node8 -->
<g id="node8" class="node">
<title>Node8</title>
<g id="a_node8"><a xlink:href="_sparse_set_8hpp.html" target="_top" xlink:title=" ">
<polygon fill="white" stroke="black" points="161,-112.5 161,-131.5 269,-131.5 269,-112.5 161,-112.5"/>
<text text-anchor="middle" x="215" y="-119.5" font-family="Helvetica,sans-Serif" font-size="10.00">ECS/SparseSet.hpp</text>
</a>
</g>
</g>
<!-- Node3&#45;&gt;Node8 -->
<g id="edge7" class="edge">
<title>Node3&#45;&gt;Node8</title>
<path fill="none" stroke="midnightblue" d="M146.17,-168.32C158.85,-159.98 178.23,-147.21 193.21,-137.35"/>
<polygon fill="midnightblue" stroke="midnightblue" points="195.43,-140.08 201.86,-131.65 191.58,-134.23 195.43,-140.08"/>
</g>
<!-- Node6 -->
<g id="node6" class="node">
<title>Node6</title>
<g id="a_node6"><a xlink:title=" ">
<polygon fill="white" stroke="#bfbfbf" points="113.5,-0.5 113.5,-19.5 166.5,-19.5 166.5,-0.5 113.5,-0.5"/>
<text text-anchor="middle" x="140" y="-7.5" font-family="Helvetica,sans-Serif" font-size="10.00">stdlib.h</text>
</a>
</g>
</g>
<!-- Node5&#45;&gt;Node6 -->
<g id="edge5" class="edge">
<title>Node5&#45;&gt;Node6</title>
<path fill="none" stroke="midnightblue" d="M168.39,-56.08C163.63,-48.53 156.68,-37.49 150.85,-28.23"/>
<polygon fill="midnightblue" stroke="midnightblue" points="153.8,-26.35 145.51,-19.75 147.88,-30.08 153.8,-26.35"/>
</g>
<!-- Node7 -->
<g id="node7" class="node">
<title>Node7</title>
<g id="a_node7"><a xlink:title=" ">
<polygon fill="white" stroke="#bfbfbf" points="184.5,-0.5 184.5,-19.5 231.5,-19.5 231.5,-0.5 184.5,-0.5"/>
<text text-anchor="middle" x="208" y="-7.5" font-family="Helvetica,sans-Serif" font-size="10.00">queue</text>
</a>
</g>
</g>
<!-- Node5&#45;&gt;Node7 -->
<g id="edge6" class="edge">
<title>Node5&#45;&gt;Node7</title>
<path fill="none" stroke="midnightblue" d="M179.61,-56.08C184.37,-48.53 191.32,-37.49 197.15,-28.23"/>
<polygon fill="midnightblue" stroke="midnightblue" points="200.12,-30.08 202.49,-19.75 194.2,-26.35 200.12,-30.08"/>
</g>
<!-- Node8&#45;&gt;Node5 -->
<g id="edge8" class="edge">
<title>Node8&#45;&gt;Node5</title>
<path fill="none" stroke="midnightblue" d="M208.23,-112.08C202.44,-104.46 193.94,-93.26 186.86,-83.94"/>
<polygon fill="midnightblue" stroke="midnightblue" points="189.48,-81.6 180.64,-75.75 183.9,-85.83 189.48,-81.6"/>
</g>
</g>
</svg>
