<?xml version="1.0" encoding="UTF-8" standalone="no"?>
<!DOCTYPE svg PUBLIC "-//W3C//DTD SVG 1.1//EN"
 "http://www.w3.org/Graphics/SVG/1.1/DTD/svg11.dtd">
<!-- Generated by graphviz version 2.43.0 (0)
 -->
<!-- Title: src/ui/ComponentUI.hpp Pages: 1 -->
<svg width="1661pt" height="489pt"
 viewBox="0.00 0.00 1661.00 489.00" xmlns="http://www.w3.org/2000/svg" xmlns:xlink="http://www.w3.org/1999/xlink">
<g id="graph0" class="graph" transform="scale(1 1) rotate(0) translate(4 485)">
<title>src/ui/ComponentUI.hpp</title>
<!-- Node1 -->
<g id="Node000001" class="node">
<title>Node1</title>
<g id="a_Node000001"><a xlink:title=" ">
<polygon fill="#999999" stroke="#666666" points="471,-481 337,-481 337,-462 471,-462 471,-481"/>
<text text-anchor="middle" x="404" y="-469" font-family="Helvetica,sans-Serif" font-size="10.00">src/ui/ComponentUI.hpp</text>
</a>
</g>
</g>
<!-- Node2 -->
<g id="Node000002" class="node">
<title>Node2</title>
<g id="a_Node000002"><a xlink:href="_texture_8hpp.html" target="_top" xlink:title=" ">
<polygon fill="white" stroke="#666666" points="237,-426 91,-426 91,-407 237,-407 237,-426"/>
<text text-anchor="middle" x="164" y="-414" font-family="Helvetica,sans-Serif" font-size="10.00">AssetManager/Texture.hpp</text>
</a>
</g>
</g>
<!-- Node1&#45;&gt;Node2 -->
<g id="edge1_Node000001_Node000002" class="edge">
<title>Node1&#45;&gt;Node2</title>
<g id="a_edge1_Node000001_Node000002"><a xlink:title=" ">
<path fill="none" stroke="#63b8ff" d="M365.44,-461.98C323.93,-452.82 257.79,-438.21 212.71,-428.26"/>
<polygon fill="#63b8ff" stroke="#63b8ff" points="213.38,-424.82 202.86,-426.08 211.87,-431.66 213.38,-424.82"/>
</a>
</g>
</g>
<!-- Node7 -->
<g id="Node000007" class="node">
<title>Node7</title>
<g id="a_Node000007"><a xlink:href="_asset_utils_8hpp.html" target="_top" xlink:title=" ">
<polygon fill="white" stroke="#666666" points="789.5,-426 676.5,-426 676.5,-407 789.5,-407 789.5,-426"/>
<text text-anchor="middle" x="733" y="-414" font-family="Helvetica,sans-Serif" font-size="10.00">Utils/AssetUtils.hpp</text>
</a>
</g>
</g>
<!-- Node1&#45;&gt;Node7 -->
<g id="edge6_Node000001_Node000007" class="edge">
<title>Node1&#45;&gt;Node7</title>
<g id="a_edge6_Node000001_Node000007"><a xlink:title=" ">
<path fill="none" stroke="#63b8ff" d="M456.86,-461.98C514.93,-452.63 608.15,-437.61 669.98,-427.65"/>
<polygon fill="#63b8ff" stroke="#63b8ff" points="670.68,-431.08 680,-426.04 669.57,-424.17 670.68,-431.08"/>
</a>
</g>
</g>
<!-- Node3 -->
<g id="Node000003" class="node">
<title>Node3</title>
<g id="a_Node000003"><a xlink:title=" ">
<polygon fill="#e0e0e0" stroke="#999999" points="167.5,-365.5 96.5,-365.5 96.5,-346.5 167.5,-346.5 167.5,-365.5"/>
<text text-anchor="middle" x="132" y="-353.5" font-family="Helvetica,sans-Serif" font-size="10.00">glad/glad.h</text>
</a>
</g>
</g>
<!-- Node2&#45;&gt;Node3 -->
<g id="edge2_Node000002_Node000003" class="edge">
<title>Node2&#45;&gt;Node3</title>
<g id="a_edge2_Node000002_Node000003"><a xlink:title=" ">
<path fill="none" stroke="#63b8ff" d="M159.28,-406.87C154.65,-398.4 147.45,-385.24 141.61,-374.57"/>
<polygon fill="#63b8ff" stroke="#63b8ff" points="144.61,-372.76 136.74,-365.67 138.47,-376.12 144.61,-372.76"/>
</a>
</g>
</g>
<!-- Node4 -->
<g id="Node000004" class="node">
<title>Node4</title>
<g id="a_Node000004"><a xlink:href="_image_8hpp.html" target="_top" xlink:title=" ">
<polygon fill="white" stroke="#666666" points="235.5,-239 94.5,-239 94.5,-220 235.5,-220 235.5,-239"/>
<text text-anchor="middle" x="165" y="-227" font-family="Helvetica,sans-Serif" font-size="10.00">AssetManager/Image.hpp</text>
</a>
</g>
</g>
<!-- Node2&#45;&gt;Node4 -->
<g id="edge3_Node000002_Node000004" class="edge">
<title>Node2&#45;&gt;Node4</title>
<g id="a_edge3_Node000002_Node000004"><a xlink:title=" ">
<path fill="none" stroke="#63b8ff" d="M167.09,-406.77C170.05,-397.9 174.32,-383.69 176,-371 181.76,-327.49 174.05,-275.98 168.92,-249.03"/>
<polygon fill="#63b8ff" stroke="#63b8ff" points="172.32,-248.2 166.92,-239.09 165.46,-249.58 172.32,-248.2"/>
</a>
</g>
</g>
<!-- Node6 -->
<g id="Node000006" class="node">
<title>Node6</title>
<g id="a_Node000006"><a xlink:title=" ">
<polygon fill="#e0e0e0" stroke="#999999" points="78,-365.5 0,-365.5 0,-346.5 78,-346.5 78,-365.5"/>
<text text-anchor="middle" x="39" y="-353.5" font-family="Helvetica,sans-Serif" font-size="10.00">glm/glm.hpp</text>
</a>
</g>
</g>
<!-- Node2&#45;&gt;Node6 -->
<g id="edge5_Node000002_Node000006" class="edge">
<title>Node2&#45;&gt;Node6</title>
<g id="a_edge5_Node000002_Node000006"><a xlink:title=" ">
<path fill="none" stroke="#63b8ff" d="M145.82,-406.99C124.99,-397.25 90.63,-381.16 66.52,-369.88"/>
<polygon fill="#63b8ff" stroke="#63b8ff" points="67.74,-366.59 57.2,-365.52 64.77,-372.93 67.74,-366.59"/>
</a>
</g>
</g>
<!-- Node5 -->
<g id="Node000005" class="node">
<title>Node5</title>
<g id="a_Node000005"><a xlink:title=" ">
<polygon fill="#e0e0e0" stroke="#999999" points="344,-129 276,-129 276,-110 344,-110 344,-129"/>
<text text-anchor="middle" x="310" y="-117" font-family="Helvetica,sans-Serif" font-size="10.00">filesystem</text>
</a>
</g>
</g>
<!-- Node4&#45;&gt;Node5 -->
<g id="edge4_Node000004_Node000005" class="edge">
<title>Node4&#45;&gt;Node5</title>
<g id="a_edge4_Node000004_Node000005"><a xlink:title=" ">
<path fill="none" stroke="#63b8ff" d="M176.54,-219.86C192.88,-207.63 223.7,-184.58 250,-165 263.43,-155 278.57,-143.77 290.29,-135.09"/>
<polygon fill="#63b8ff" stroke="#63b8ff" points="292.54,-137.78 298.49,-129.02 288.37,-132.16 292.54,-137.78"/>
</a>
</g>
</g>
<!-- Node7&#45;&gt;Node5 -->
<g id="edge7_Node000007_Node000005" class="edge">
<title>Node7&#45;&gt;Node5</title>
<g id="a_edge7_Node000007_Node000005"><a xlink:title=" ">
<path fill="none" stroke="#63b8ff" d="M676.43,-412.39C551.69,-403.99 264,-375.45 264,-291 264,-291 264,-291 264,-228.5 264,-194.04 284.07,-157.98 297.7,-137.47"/>
<polygon fill="#63b8ff" stroke="#63b8ff" points="300.6,-139.42 303.41,-129.2 294.85,-135.44 300.6,-139.42"/>
</a>
</g>
</g>
<!-- Node8 -->
<g id="Node000008" class="node">
<title>Node8</title>
<g id="a_Node000008"><a xlink:href="_asset_8hpp.html" target="_top" xlink:title=" ">
<polygon fill="white" stroke="#666666" points="745.5,-299.5 608.5,-299.5 608.5,-280.5 745.5,-280.5 745.5,-299.5"/>
<text text-anchor="middle" x="677" y="-287.5" font-family="Helvetica,sans-Serif" font-size="10.00">AssetManager/Asset.hpp</text>
</a>
</g>
</g>
<!-- Node7&#45;&gt;Node8 -->
<g id="edge8_Node000007_Node000008" class="edge">
<title>Node7&#45;&gt;Node8</title>
<g id="a_edge8_Node000007_Node000008"><a xlink:title=" ">
<path fill="none" stroke="#63b8ff" d="M723.68,-406.85C715.21,-398.48 703.01,-385.02 696,-371 686.25,-351.49 681.37,-326.78 679.02,-310.02"/>
<polygon fill="#63b8ff" stroke="#63b8ff" points="682.47,-309.35 677.77,-299.85 675.52,-310.21 682.47,-309.35"/>
</a>
</g>
</g>
<!-- Node9 -->
<g id="Node000009" class="node">
<title>Node9</title>
<g id="a_Node000009"><a xlink:href="_registry_8hpp.html" target="_top" xlink:title=" ">
<polygon fill="white" stroke="#666666" points="1072,-239 974,-239 974,-220 1072,-220 1072,-239"/>
<text text-anchor="middle" x="1023" y="-227" font-family="Helvetica,sans-Serif" font-size="10.00">ECS/Registry.hpp</text>
</a>
</g>
</g>
<!-- Node7&#45;&gt;Node9 -->
<g id="edge59_Node000007_Node000009" class="edge">
<title>Node7&#45;&gt;Node9</title>
<g id="a_edge59_Node000007_Node000009"><a xlink:title=" ">
<path fill="none" stroke="#63b8ff" d="M789.62,-407.37C884.26,-392.45 1067.73,-357.33 1103,-305 1110.45,-293.94 1109.76,-286.49 1103,-275 1094.26,-260.14 1078.56,-249.88 1063.37,-242.99"/>
<polygon fill="#63b8ff" stroke="#63b8ff" points="1064.62,-239.72 1054.05,-239.13 1061.94,-246.19 1064.62,-239.72"/>
</a>
</g>
</g>
<!-- Node13 -->
<g id="Node000013" class="node">
<title>Node13</title>
<g id="a_Node000013"><a xlink:href="_assert_8hpp.html" target="_top" xlink:title=" ">
<polygon fill="white" stroke="#666666" points="1587,-129 1471,-129 1471,-110 1587,-110 1587,-129"/>
<text text-anchor="middle" x="1529" y="-117" font-family="Helvetica,sans-Serif" font-size="10.00">Common/Assert.hpp</text>
</a>
</g>
</g>
<!-- Node7&#45;&gt;Node13 -->
<g id="edge49_Node000007_Node000013" class="edge">
<title>Node7&#45;&gt;Node13</title>
<g id="a_edge49_Node000007_Node000013"><a xlink:title=" ">
<path fill="none" stroke="#63b8ff" d="M789.51,-413.83C989.67,-407.2 1653,-378.59 1653,-291 1653,-291 1653,-291 1653,-228.5 1653,-180.54 1599.61,-149.02 1562.89,-133.01"/>
<polygon fill="#63b8ff" stroke="#63b8ff" points="1564.08,-129.71 1553.5,-129.09 1561.38,-136.17 1564.08,-129.71"/>
</a>
</g>
</g>
<!-- Node20 -->
<g id="Node000020" class="node">
<title>Node20</title>
<g id="a_Node000020"><a xlink:href="_types_8hpp.html" target="_top" xlink:title=" ">
<polygon fill="white" stroke="#666666" points="557.5,-184 444.5,-184 444.5,-165 557.5,-165 557.5,-184"/>
<text text-anchor="middle" x="501" y="-172" font-family="Helvetica,sans-Serif" font-size="10.00">Common/Types.hpp</text>
</a>
</g>
</g>
<!-- Node7&#45;&gt;Node20 -->
<g id="edge50_Node000007_Node000020" class="edge">
<title>Node7&#45;&gt;Node20</title>
<g id="a_edge50_Node000007_Node000020"><a xlink:title=" ">
<path fill="none" stroke="#63b8ff" d="M676.44,-414.16C607.19,-411.19 495.89,-401.64 470,-371 426.02,-318.95 468.77,-230.25 490.28,-192.9"/>
<polygon fill="#63b8ff" stroke="#63b8ff" points="493.36,-194.56 495.46,-184.17 487.34,-190.98 493.36,-194.56"/>
</a>
</g>
</g>
<!-- Node36 -->
<g id="Node000036" class="node">
<title>Node36</title>
<g id="a_Node000036"><a xlink:href="_asset_component_8hpp.html" target="_top" xlink:title=" ">
<polygon fill="white" stroke="#666666" points="875,-371 705,-371 705,-341 875,-341 875,-371"/>
<text text-anchor="start" x="713" y="-359" font-family="Helvetica,sans-Serif" font-size="10.00">Components/AssetComponents</text>
<text text-anchor="middle" x="790" y="-348" font-family="Helvetica,sans-Serif" font-size="10.00">/AssetComponent.hpp</text>
</a>
</g>
</g>
<!-- Node7&#45;&gt;Node36 -->
<g id="edge51_Node000007_Node000036" class="edge">
<title>Node7&#45;&gt;Node36</title>
<g id="a_edge51_Node000007_Node000036"><a xlink:title=" ">
<path fill="none" stroke="#63b8ff" d="M741.41,-406.87C748.72,-399.37 759.6,-388.2 769.22,-378.33"/>
<polygon fill="#63b8ff" stroke="#63b8ff" points="771.78,-380.72 776.25,-371.11 766.76,-375.83 771.78,-380.72"/>
</a>
</g>
</g>
<!-- Node37 -->
<g id="Node000037" class="node">
<title>Node37</title>
<g id="a_Node000037"><a xlink:href="_asset_loader_8hpp.html" target="_top" xlink:title=" ">
<polygon fill="white" stroke="#666666" points="934,-305 764,-305 764,-275 934,-275 934,-305"/>
<text text-anchor="start" x="772" y="-293" font-family="Helvetica,sans-Serif" font-size="10.00">Components/AssetComponents</text>
<text text-anchor="middle" x="849" y="-282" font-family="Helvetica,sans-Serif" font-size="10.00">/AssetLoader.hpp</text>
</a>
</g>
</g>
<!-- Node7&#45;&gt;Node37 -->
<g id="edge54_Node000007_Node000037" class="edge">
<title>Node7&#45;&gt;Node37</title>
<g id="a_edge54_Node000007_Node000037"><a xlink:title=" ">
<path fill="none" stroke="#63b8ff" d="M789.76,-414.63C822.92,-410.82 862.4,-399.89 884,-371 897.26,-353.26 883.99,-329.72 870.15,-312.77"/>
<polygon fill="#63b8ff" stroke="#63b8ff" points="872.62,-310.28 863.42,-305.03 867.34,-314.87 872.62,-310.28"/>
</a>
</g>
</g>
<!-- Node38 -->
<g id="Node000038" class="node">
<title>Node38</title>
<g id="a_Node000038"><a xlink:href="_directory_component_8hpp.html" target="_top" xlink:title=" ">
<polygon fill="white" stroke="#666666" points="649,-371 479,-371 479,-341 649,-341 649,-371"/>
<text text-anchor="start" x="487" y="-359" font-family="Helvetica,sans-Serif" font-size="10.00">Components/AssetComponents</text>
<text text-anchor="middle" x="564" y="-348" font-family="Helvetica,sans-Serif" font-size="10.00">/DirectoryComponent.hpp</text>
</a>
</g>
</g>
<!-- Node7&#45;&gt;Node38 -->
<g id="edge55_Node000007_Node000038" class="edge">
<title>Node7&#45;&gt;Node38</title>
<g id="a_edge55_Node000007_Node000038"><a xlink:title=" ">
<path fill="none" stroke="#63b8ff" d="M708.43,-406.99C683.89,-398.5 645.47,-385.2 614.42,-374.45"/>
<polygon fill="#63b8ff" stroke="#63b8ff" points="615.22,-371.03 604.63,-371.06 612.94,-377.64 615.22,-371.03"/>
</a>
</g>
</g>
<!-- Node39 -->
<g id="Node000039" class="node">
<title>Node39</title>
<g id="a_Node000039"><a xlink:href="_builders_8hpp.html" target="_top" xlink:title=" ">
<polygon fill="white" stroke="#666666" points="1093.5,-299.5 952.5,-299.5 952.5,-280.5 1093.5,-280.5 1093.5,-299.5"/>
<text text-anchor="middle" x="1023" y="-287.5" font-family="Helvetica,sans-Serif" font-size="10.00">Serialization/Builders.hpp</text>
</a>
</g>
</g>
<!-- Node7&#45;&gt;Node39 -->
<g id="edge60_Node000007_Node000039" class="edge">
<title>Node7&#45;&gt;Node39</title>
<g id="a_edge60_Node000007_Node000039"><a xlink:title=" ">
<path fill="none" stroke="#63b8ff" d="M780.79,-406.96C814.94,-399.86 861.48,-388.13 900,-371 939.83,-353.28 981.38,-323.5 1004.54,-305.7"/>
<polygon fill="#63b8ff" stroke="#63b8ff" points="1006.74,-308.43 1012.48,-299.52 1002.44,-302.91 1006.74,-308.43"/>
</a>
</g>
</g>
<!-- Node8&#45;&gt;Node5 -->
<g id="edge48_Node000008_Node000005" class="edge">
<title>Node8&#45;&gt;Node5</title>
<g id="a_edge48_Node000008_Node000005"><a xlink:title=" ">
<path fill="none" stroke="#63b8ff" d="M608.49,-282.78C538.35,-275.33 435.07,-261.03 402,-239 369.37,-217.27 378.58,-195.54 354,-165 345.84,-154.87 335.69,-144.48 327.2,-136.29"/>
<polygon fill="#63b8ff" stroke="#63b8ff" points="329.35,-133.51 319.68,-129.19 324.55,-138.6 329.35,-133.51"/>
</a>
</g>
</g>
<!-- Node8&#45;&gt;Node9 -->
<g id="edge9_Node000008_Node000009" class="edge">
<title>Node8&#45;&gt;Node9</title>
<g id="a_edge9_Node000008_Node000009"><a xlink:title=" ">
<path fill="none" stroke="#63b8ff" d="M724,-280.46C734.22,-278.63 744.97,-276.73 755,-275 826.61,-262.63 909.09,-249.03 963.43,-240.16"/>
<polygon fill="#63b8ff" stroke="#63b8ff" points="964.27,-243.57 973.57,-238.51 963.14,-236.66 964.27,-243.57"/>
</a>
</g>
</g>
<!-- Node10 -->
<g id="Node000010" class="node">
<title>Node10</title>
<g id="a_Node000010"><a xlink:title=" ">
<polygon fill="#e0e0e0" stroke="#999999" points="1322,-184 1264,-184 1264,-165 1322,-165 1322,-184"/>
<text text-anchor="middle" x="1293" y="-172" font-family="Helvetica,sans-Serif" font-size="10.00">memory</text>
</a>
</g>
</g>
<!-- Node9&#45;&gt;Node10 -->
<g id="edge10_Node000009_Node000010" class="edge">
<title>Node9&#45;&gt;Node10</title>
<g id="a_edge10_Node000009_Node000010"><a xlink:title=" ">
<path fill="none" stroke="#63b8ff" d="M1069.74,-219.97C1114.55,-211.69 1184.33,-198.55 1254.13,-184.13"/>
<polygon fill="#63b8ff" stroke="#63b8ff" points="1254.89,-187.55 1263.97,-182.09 1253.47,-180.69 1254.89,-187.55"/>
</a>
</g>
</g>
<!-- Node11 -->
<g id="Node000011" class="node">
<title>Node11</title>
<g id="a_Node000011"><a xlink:title=" ">
<polygon fill="#e0e0e0" stroke="#999999" points="821.5,-129 756.5,-129 756.5,-110 821.5,-110 821.5,-129"/>
<text text-anchor="middle" x="789" y="-117" font-family="Helvetica,sans-Serif" font-size="10.00">typeindex</text>
</a>
</g>
</g>
<!-- Node9&#45;&gt;Node11 -->
<g id="edge11_Node000009_Node000011" class="edge">
<title>Node9&#45;&gt;Node11</title>
<g id="a_edge11_Node000009_Node000011"><a xlink:title=" ">
<path fill="none" stroke="#63b8ff" d="M973.81,-225.41C914.69,-220.62 820.5,-209.18 797,-184 785.99,-172.21 784.9,-153.36 786.01,-139.26"/>
<polygon fill="#63b8ff" stroke="#63b8ff" points="789.5,-139.54 787.23,-129.2 782.55,-138.7 789.5,-139.54"/>
</a>
</g>
</g>
<!-- Node12 -->
<g id="Node000012" class="node">
<title>Node12</title>
<g id="a_Node000012"><a xlink:title=" ">
<polygon fill="#e0e0e0" stroke="#999999" points="1066,-184 980,-184 980,-165 1066,-165 1066,-184"/>
<text text-anchor="middle" x="1023" y="-172" font-family="Helvetica,sans-Serif" font-size="10.00">unordered_set</text>
</a>
</g>
</g>
<!-- Node9&#45;&gt;Node12 -->
<g id="edge12_Node000009_Node000012" class="edge">
<title>Node9&#45;&gt;Node12</title>
<g id="a_edge12_Node000009_Node000012"><a xlink:title=" ">
<path fill="none" stroke="#63b8ff" d="M1023,-219.75C1023,-212.8 1023,-202.85 1023,-194.13"/>
<polygon fill="#63b8ff" stroke="#63b8ff" points="1026.5,-194.09 1023,-184.09 1019.5,-194.09 1026.5,-194.09"/>
</a>
</g>
</g>
<!-- Node9&#45;&gt;Node13 -->
<g id="edge13_Node000009_Node000013" class="edge">
<title>Node9&#45;&gt;Node13</title>
<g id="a_edge13_Node000009_Node000013"><a xlink:title=" ">
<path fill="none" stroke="#63b8ff" d="M1072.32,-229.24C1177.8,-229.97 1421.32,-226.82 1490,-184 1506.43,-173.76 1516.98,-153.78 1522.91,-138.96"/>
<polygon fill="#63b8ff" stroke="#63b8ff" points="1526.3,-139.89 1526.43,-129.29 1519.72,-137.49 1526.3,-139.89"/>
</a>
</g>
</g>
<!-- Node17 -->
<g id="Node000017" class="node">
<title>Node17</title>
<g id="a_Node000017"><a xlink:href="_logger_8hpp.html" target="_top" xlink:title=" ">
<polygon fill="white" stroke="#666666" points="923.5,-184 806.5,-184 806.5,-165 923.5,-165 923.5,-184"/>
<text text-anchor="middle" x="865" y="-172" font-family="Helvetica,sans-Serif" font-size="10.00">Common/Logger.hpp</text>
</a>
</g>
</g>
<!-- Node9&#45;&gt;Node17 -->
<g id="edge17_Node000009_Node000017" class="edge">
<title>Node9&#45;&gt;Node17</title>
<g id="a_edge17_Node000009_Node000017"><a xlink:title=" ">
<path fill="none" stroke="#63b8ff" d="M997.61,-219.98C971.2,-211.13 929.65,-197.19 900.11,-187.28"/>
<polygon fill="#63b8ff" stroke="#63b8ff" points="901.18,-183.94 890.58,-184.08 898.95,-190.58 901.18,-183.94"/>
</a>
</g>
</g>
<!-- Node9&#45;&gt;Node20 -->
<g id="edge20_Node000009_Node000020" class="edge">
<title>Node9&#45;&gt;Node20</title>
<g id="a_edge20_Node000009_Node000020"><a xlink:title=" ">
<path fill="none" stroke="#63b8ff" d="M973.89,-223.51C879.85,-213.97 674.24,-193.09 567.81,-182.28"/>
<polygon fill="#63b8ff" stroke="#63b8ff" points="568.13,-178.8 557.82,-181.27 567.42,-185.76 568.13,-178.8"/>
</a>
</g>
</g>
<!-- Node22 -->
<g id="Node000022" class="node">
<title>Node22</title>
<g id="a_Node000022"><a xlink:href="_entity_8hpp.html" target="_top" xlink:title=" ">
<polygon fill="white" stroke="#666666" points="1159,-74 1073,-74 1073,-55 1159,-55 1159,-74"/>
<text text-anchor="middle" x="1116" y="-62" font-family="Helvetica,sans-Serif" font-size="10.00">ECS/Entity.hpp</text>
</a>
</g>
</g>
<!-- Node9&#45;&gt;Node22 -->
<g id="edge24_Node000009_Node000022" class="edge">
<title>Node9&#45;&gt;Node22</title>
<g id="a_edge24_Node000009_Node000022"><a xlink:title=" ">
<path fill="none" stroke="#63b8ff" d="M1072.17,-227.09C1180.38,-223.49 1431.59,-212.15 1457,-184 1479.28,-159.32 1450.86,-127.87 1424,-110 1383.34,-82.96 1246.56,-71.92 1169.66,-67.77"/>
<polygon fill="#63b8ff" stroke="#63b8ff" points="1169.39,-64.25 1159.22,-67.22 1169.02,-71.24 1169.39,-64.25"/>
</a>
</g>
</g>
<!-- Node24 -->
<g id="Node000024" class="node">
<title>Node24</title>
<g id="a_Node000024"><a xlink:href="_entity_hierarchy_8hpp.html" target="_top" xlink:title=" ">
<polygon fill="white" stroke="#666666" points="750,-184 616,-184 616,-165 750,-165 750,-184"/>
<text text-anchor="middle" x="683" y="-172" font-family="Helvetica,sans-Serif" font-size="10.00">ECS/EntityHierarchy.hpp</text>
</a>
</g>
</g>
<!-- Node9&#45;&gt;Node24 -->
<g id="edge26_Node000009_Node000024" class="edge">
<title>Node9&#45;&gt;Node24</title>
<g id="a_edge26_Node000009_Node000024"><a xlink:title=" ">
<path fill="none" stroke="#63b8ff" d="M973.92,-220.85C914.4,-211.57 813.86,-195.9 747.96,-185.63"/>
<polygon fill="#63b8ff" stroke="#63b8ff" points="748.11,-182.11 737.69,-184.03 747.03,-189.02 748.11,-182.11"/>
</a>
</g>
</g>
<!-- Node31 -->
<g id="Node000031" class="node">
<title>Node31</title>
<g id="a_Node000031"><a xlink:href="_entity_provider_8hpp.html" target="_top" xlink:title="Manages a pool of unused entity identifiers and provides mechanisms for requesting and removing them.">
<polygon fill="white" stroke="#666666" points="1216,-129 1088,-129 1088,-110 1216,-110 1216,-129"/>
<text text-anchor="middle" x="1152" y="-117" font-family="Helvetica,sans-Serif" font-size="10.00">ECS/EntityProvider.hpp</text>
</a>
</g>
</g>
<!-- Node9&#45;&gt;Node31 -->
<g id="edge37_Node000009_Node000031" class="edge">
<title>Node9&#45;&gt;Node31</title>
<g id="a_edge37_Node000009_Node000031"><a xlink:title=" ">
<path fill="none" stroke="#63b8ff" d="M1007.1,-219.97C986.6,-207.86 955.35,-184.96 971,-165 984.43,-147.87 1033.72,-136.46 1077.48,-129.48"/>
<polygon fill="#63b8ff" stroke="#63b8ff" points="1078.23,-132.91 1087.59,-127.93 1077.17,-125.99 1078.23,-132.91"/>
</a>
</g>
</g>
<!-- Node32 -->
<g id="Node000032" class="node">
<title>Node32</title>
<g id="a_Node000032"><a xlink:href="_singleton_component_8hpp.html" target="_top" xlink:title=" ">
<polygon fill="white" stroke="#666666" points="1245.5,-184 1084.5,-184 1084.5,-165 1245.5,-165 1245.5,-184"/>
<text text-anchor="middle" x="1165" y="-172" font-family="Helvetica,sans-Serif" font-size="10.00">ECS/SingletonComponent.hpp</text>
</a>
</g>
</g>
<!-- Node9&#45;&gt;Node32 -->
<g id="edge41_Node000009_Node000032" class="edge">
<title>Node9&#45;&gt;Node32</title>
<g id="a_edge41_Node000009_Node000032"><a xlink:title=" ">
<path fill="none" stroke="#63b8ff" d="M1045.81,-219.98C1069.17,-211.27 1105.7,-197.63 1132.17,-187.75"/>
<polygon fill="#63b8ff" stroke="#63b8ff" points="1133.63,-190.95 1141.77,-184.17 1131.18,-184.39 1133.63,-190.95"/>
</a>
</g>
</g>
<!-- Node34 -->
<g id="Node000034" class="node">
<title>Node34</title>
<g id="a_Node000034"><a xlink:href="_sparse_set_8hpp.html" target="_top" xlink:title=" ">
<polygon fill="white" stroke="#666666" points="1448,-184 1340,-184 1340,-165 1448,-165 1448,-184"/>
<text text-anchor="middle" x="1394" y="-172" font-family="Helvetica,sans-Serif" font-size="10.00">ECS/SparseSet.hpp</text>
</a>
</g>
</g>
<!-- Node9&#45;&gt;Node34 -->
<g id="edge43_Node000009_Node000034" class="edge">
<title>Node9&#45;&gt;Node34</title>
<g id="a_edge43_Node000009_Node000034"><a xlink:title=" ">
<path fill="none" stroke="#63b8ff" d="M1072.27,-221.46C1138.53,-212 1256.49,-195.14 1329.68,-184.69"/>
<polygon fill="#63b8ff" stroke="#63b8ff" points="1330.3,-188.14 1339.71,-183.26 1329.31,-181.21 1330.3,-188.14"/>
</a>
</g>
</g>
<!-- Node14 -->
<g id="Node000014" class="node">
<title>Node14</title>
<g id="a_Node000014"><a xlink:title=" ">
<polygon fill="#e0e0e0" stroke="#999999" points="1563.5,-74 1496.5,-74 1496.5,-55 1563.5,-55 1563.5,-74"/>
<text text-anchor="middle" x="1530" y="-62" font-family="Helvetica,sans-Serif" font-size="10.00">fmt/core.h</text>
</a>
</g>
</g>
<!-- Node13&#45;&gt;Node14 -->
<g id="edge14_Node000013_Node000014" class="edge">
<title>Node13&#45;&gt;Node14</title>
<g id="a_edge14_Node000013_Node000014"><a xlink:title=" ">
<path fill="none" stroke="#63b8ff" d="M1529.17,-109.75C1529.3,-102.8 1529.48,-92.85 1529.65,-84.13"/>
<polygon fill="#63b8ff" stroke="#63b8ff" points="1533.15,-84.15 1529.84,-74.09 1526.15,-84.02 1533.15,-84.15"/>
</a>
</g>
</g>
<!-- Node15 -->
<g id="Node000015" class="node">
<title>Node15</title>
<g id="a_Node000015"><a xlink:title=" ">
<polygon fill="#e0e0e0" stroke="#999999" points="1478.5,-74 1413.5,-74 1413.5,-55 1478.5,-55 1478.5,-74"/>
<text text-anchor="middle" x="1446" y="-62" font-family="Helvetica,sans-Serif" font-size="10.00">exception</text>
</a>
</g>
</g>
<!-- Node13&#45;&gt;Node15 -->
<g id="edge15_Node000013_Node000015" class="edge">
<title>Node13&#45;&gt;Node15</title>
<g id="a_edge15_Node000013_Node000015"><a xlink:title=" ">
<path fill="none" stroke="#63b8ff" d="M1515.66,-109.98C1502.91,-101.84 1483.45,-89.41 1468.33,-79.76"/>
<polygon fill="#63b8ff" stroke="#63b8ff" points="1469.89,-76.6 1459.58,-74.17 1466.12,-82.5 1469.89,-76.6"/>
</a>
</g>
</g>
<!-- Node16 -->
<g id="Node000016" class="node">
<title>Node16</title>
<g id="a_Node000016"><a xlink:title=" ">
<polygon fill="#e0e0e0" stroke="#999999" points="1644,-74 1584,-74 1584,-55 1644,-55 1644,-74"/>
<text text-anchor="middle" x="1614" y="-62" font-family="Helvetica,sans-Serif" font-size="10.00">iostream</text>
</a>
</g>
</g>
<!-- Node13&#45;&gt;Node16 -->
<g id="edge16_Node000013_Node000016" class="edge">
<title>Node13&#45;&gt;Node16</title>
<g id="a_edge16_Node000013_Node000016"><a xlink:title=" ">
<path fill="none" stroke="#63b8ff" d="M1542.66,-109.98C1555.84,-101.77 1576.03,-89.18 1591.57,-79.49"/>
<polygon fill="#63b8ff" stroke="#63b8ff" points="1593.46,-82.43 1600.09,-74.17 1589.76,-76.49 1593.46,-82.43"/>
</a>
</g>
</g>
<!-- Node18 -->
<g id="Node000018" class="node">
<title>Node18</title>
<g id="a_Node000018"><a xlink:title=" ">
<polygon fill="#e0e0e0" stroke="#999999" points="1070,-129 1022,-129 1022,-110 1070,-110 1070,-129"/>
<text text-anchor="middle" x="1046" y="-117" font-family="Helvetica,sans-Serif" font-size="10.00">mutex</text>
</a>
</g>
</g>
<!-- Node17&#45;&gt;Node18 -->
<g id="edge18_Node000017_Node000018" class="edge">
<title>Node17&#45;&gt;Node18</title>
<g id="a_edge18_Node000017_Node000018"><a xlink:title=" ">
<path fill="none" stroke="#63b8ff" d="M894.08,-164.98C926.23,-155.57 977.96,-140.42 1011.97,-130.46"/>
<polygon fill="#63b8ff" stroke="#63b8ff" points="1013.3,-133.72 1021.91,-127.55 1011.33,-127 1013.3,-133.72"/>
</a>
</g>
</g>
<!-- Node19 -->
<g id="Node000019" class="node">
<title>Node19</title>
<g id="a_Node000019"><a xlink:title=" ">
<polygon fill="#e0e0e0" stroke="#999999" points="1034.5,-74 987.5,-74 987.5,-55 1034.5,-55 1034.5,-74"/>
<text text-anchor="middle" x="1011" y="-62" font-family="Helvetica,sans-Serif" font-size="10.00">queue</text>
</a>
</g>
</g>
<!-- Node17&#45;&gt;Node19 -->
<g id="edge19_Node000017_Node000019" class="edge">
<title>Node17&#45;&gt;Node19</title>
<g id="a_edge19_Node000017_Node000019"><a xlink:title=" ">
<path fill="none" stroke="#63b8ff" d="M880.34,-164.95C895.22,-156.44 918.26,-142.7 937,-129 957.56,-113.96 979.52,-94.67 994.12,-81.31"/>
<polygon fill="#63b8ff" stroke="#63b8ff" points="996.84,-83.57 1001.81,-74.21 992.09,-78.43 996.84,-83.57"/>
</a>
</g>
</g>
<!-- Node20&#45;&gt;Node5 -->
<g id="edge21_Node000020_Node000005" class="edge">
<title>Node20&#45;&gt;Node5</title>
<g id="a_edge21_Node000020_Node000005"><a xlink:title=" ">
<path fill="none" stroke="#63b8ff" d="M470.31,-164.98C437.83,-155.97 386.4,-141.7 350.59,-131.76"/>
<polygon fill="#63b8ff" stroke="#63b8ff" points="351.5,-128.38 340.93,-129.08 349.63,-135.13 351.5,-128.38"/>
</a>
</g>
</g>
<!-- Node20&#45;&gt;Node11 -->
<g id="edge23_Node000020_Node000011" class="edge">
<title>Node20&#45;&gt;Node11</title>
<g id="a_edge23_Node000020_Node000011"><a xlink:title=" ">
<path fill="none" stroke="#63b8ff" d="M550.06,-164.93C597.62,-156.56 672.06,-143.27 746.44,-129.07"/>
<polygon fill="#63b8ff" stroke="#63b8ff" points="747.29,-132.47 756.45,-127.16 745.97,-125.6 747.29,-132.47"/>
</a>
</g>
</g>
<!-- Node21 -->
<g id="Node000021" class="node">
<title>Node21</title>
<g id="a_Node000021"><a xlink:title=" ">
<polygon fill="#e0e0e0" stroke="#999999" points="482,-19 450,-19 450,0 482,0 482,-19"/>
<text text-anchor="middle" x="466" y="-7" font-family="Helvetica,sans-Serif" font-size="10.00">set</text>
</a>
</g>
</g>
<!-- Node20&#45;&gt;Node21 -->
<g id="edge22_Node000020_Node000021" class="edge">
<title>Node20&#45;&gt;Node21</title>
<g id="a_edge22_Node000020_Node000021"><a xlink:title=" ">
<path fill="none" stroke="#63b8ff" d="M446.84,-164.92C425.76,-158.65 403.67,-147.79 391,-129 366.23,-92.25 414.6,-47.85 444.63,-25.26"/>
<polygon fill="#63b8ff" stroke="#63b8ff" points="446.88,-27.95 452.9,-19.23 442.75,-22.29 446.88,-27.95"/>
</a>
</g>
</g>
<!-- Node23 -->
<g id="Node000023" class="node">
<title>Node23</title>
<g id="a_Node000023"><a xlink:title=" ">
<polygon fill="#e0e0e0" stroke="#999999" points="1177.5,-19 1124.5,-19 1124.5,0 1177.5,0 1177.5,-19"/>
<text text-anchor="middle" x="1151" y="-7" font-family="Helvetica,sans-Serif" font-size="10.00">stdlib.h</text>
</a>
</g>
</g>
<!-- Node22&#45;&gt;Node23 -->
<g id="edge25_Node000022_Node000023" class="edge">
<title>Node22&#45;&gt;Node23</title>
<g id="a_edge25_Node000022_Node000023"><a xlink:title=" ">
<path fill="none" stroke="#63b8ff" d="M1121.78,-54.75C1126.62,-47.42 1133.68,-36.73 1139.64,-27.7"/>
<polygon fill="#63b8ff" stroke="#63b8ff" points="1142.74,-29.36 1145.33,-19.09 1136.9,-25.5 1142.74,-29.36"/>
</a>
</g>
</g>
<!-- Node24&#45;&gt;Node21 -->
<g id="edge30_Node000024_Node000021" class="edge">
<title>Node24&#45;&gt;Node21</title>
<g id="a_edge30_Node000024_Node000021"><a xlink:title=" ">
<path fill="none" stroke="#63b8ff" d="M615.78,-166.46C565.6,-159.78 502.76,-147.9 485,-129 459.52,-101.89 460.34,-54.94 463.17,-29.02"/>
<polygon fill="#63b8ff" stroke="#63b8ff" points="466.65,-29.4 464.48,-19.03 459.71,-28.49 466.65,-29.4"/>
</a>
</g>
</g>
<!-- Node24&#45;&gt;Node22 -->
<g id="edge34_Node000024_Node000022" class="edge">
<title>Node24&#45;&gt;Node22</title>
<g id="a_edge34_Node000024_Node000022"><a xlink:title=" ">
<path fill="none" stroke="#63b8ff" d="M749.44,-164.97C801.07,-157.59 874.22,-145.51 937,-129 990.4,-114.95 1050.54,-92.11 1085.74,-77.99"/>
<polygon fill="#63b8ff" stroke="#63b8ff" points="1087.45,-81.08 1095.41,-74.08 1084.83,-74.59 1087.45,-81.08"/>
</a>
</g>
</g>
<!-- Node25 -->
<g id="Node000025" class="node">
<title>Node25</title>
<g id="a_Node000025"><a xlink:title=" ">
<polygon fill="#e0e0e0" stroke="#999999" points="738.5,-129 673.5,-129 673.5,-110 738.5,-110 738.5,-129"/>
<text text-anchor="middle" x="706" y="-117" font-family="Helvetica,sans-Serif" font-size="10.00">functional</text>
</a>
</g>
</g>
<!-- Node24&#45;&gt;Node25 -->
<g id="edge27_Node000024_Node000025" class="edge">
<title>Node24&#45;&gt;Node25</title>
<g id="a_edge27_Node000024_Node000025"><a xlink:title=" ">
<path fill="none" stroke="#63b8ff" d="M686.8,-164.75C689.91,-157.57 694.42,-147.18 698.29,-138.27"/>
<polygon fill="#63b8ff" stroke="#63b8ff" points="701.5,-139.66 702.27,-129.09 695.08,-136.87 701.5,-139.66"/>
</a>
</g>
</g>
<!-- Node26 -->
<g id="Node000026" class="node">
<title>Node26</title>
<g id="a_Node000026"><a xlink:title=" ">
<polygon fill="#e0e0e0" stroke="#999999" points="438,-129 400,-129 400,-110 438,-110 438,-129"/>
<text text-anchor="middle" x="419" y="-117" font-family="Helvetica,sans-Serif" font-size="10.00">map</text>
</a>
</g>
</g>
<!-- Node24&#45;&gt;Node26 -->
<g id="edge28_Node000024_Node000026" class="edge">
<title>Node24&#45;&gt;Node26</title>
<g id="a_edge28_Node000024_Node000026"><a xlink:title=" ">
<path fill="none" stroke="#63b8ff" d="M634.15,-164.99C587.27,-156.62 514.56,-143.07 452,-129 450.73,-128.72 449.44,-128.42 448.14,-128.11"/>
<polygon fill="#63b8ff" stroke="#63b8ff" points="448.69,-124.64 438.15,-125.65 447.02,-131.44 448.69,-124.64"/>
</a>
</g>
</g>
<!-- Node27 -->
<g id="Node000027" class="node">
<title>Node27</title>
<g id="a_Node000027"><a xlink:title=" ">
<polygon fill="#e0e0e0" stroke="#999999" points="928,-129 878,-129 878,-110 928,-110 928,-129"/>
<text text-anchor="middle" x="903" y="-117" font-family="Helvetica,sans-Serif" font-size="10.00">ranges</text>
</a>
</g>
</g>
<!-- Node24&#45;&gt;Node27 -->
<g id="edge29_Node000024_Node000027" class="edge">
<title>Node24&#45;&gt;Node27</title>
<g id="a_edge29_Node000024_Node000027"><a xlink:title=" ">
<path fill="none" stroke="#63b8ff" d="M718.35,-164.98C759.44,-155.08 826.85,-138.84 867.86,-128.97"/>
<polygon fill="#63b8ff" stroke="#63b8ff" points="868.78,-132.34 877.68,-126.6 867.14,-125.54 868.78,-132.34"/>
</a>
</g>
</g>
<!-- Node28 -->
<g id="Node000028" class="node">
<title>Node28</title>
<g id="a_Node000028"><a xlink:href="_type_info_8hpp.html" target="_top" xlink:title=" ">
<polygon fill="white" stroke="#666666" points="638,-74 512,-74 512,-55 638,-55 638,-74"/>
<text text-anchor="middle" x="575" y="-62" font-family="Helvetica,sans-Serif" font-size="10.00">Common/TypeInfo.hpp</text>
</a>
</g>
</g>
<!-- Node24&#45;&gt;Node28 -->
<g id="edge31_Node000024_Node000028" class="edge">
<title>Node24&#45;&gt;Node28</title>
<g id="a_edge31_Node000024_Node000028"><a xlink:title=" ">
<path fill="none" stroke="#63b8ff" d="M750.03,-166.51C800.64,-158.56 857.1,-142.24 830,-110 807.14,-82.8 715.22,-72.22 648.29,-68.11"/>
<polygon fill="#63b8ff" stroke="#63b8ff" points="648.37,-64.61 638.19,-67.53 647.97,-71.6 648.37,-64.61"/>
</a>
</g>
</g>
<!-- Node30 -->
<g id="Node000030" class="node">
<title>Node30</title>
<g id="a_Node000030"><a xlink:href="_requirements_8hpp.html" target="_top" xlink:title=" ">
<polygon fill="white" stroke="#666666" points="655.5,-129 494.5,-129 494.5,-110 655.5,-110 655.5,-129"/>
<text text-anchor="middle" x="575" y="-117" font-family="Helvetica,sans-Serif" font-size="10.00">JobSystem/Requirements.hpp</text>
</a>
</g>
</g>
<!-- Node24&#45;&gt;Node30 -->
<g id="edge35_Node000024_Node000030" class="edge">
<title>Node24&#45;&gt;Node30</title>
<g id="a_edge35_Node000024_Node000030"><a xlink:title=" ">
<path fill="none" stroke="#63b8ff" d="M665.65,-164.98C648.43,-156.54 621.8,-143.47 601.85,-133.68"/>
<polygon fill="#63b8ff" stroke="#63b8ff" points="603.19,-130.43 592.67,-129.17 600.1,-136.72 603.19,-130.43"/>
</a>
</g>
</g>
<!-- Node28&#45;&gt;Node21 -->
<g id="edge32_Node000028_Node000021" class="edge">
<title>Node28&#45;&gt;Node21</title>
<g id="a_edge32_Node000028_Node000021"><a xlink:title=" ">
<path fill="none" stroke="#63b8ff" d="M557.49,-54.98C539.51,-46.24 511.37,-32.56 491.05,-22.68"/>
<polygon fill="#63b8ff" stroke="#63b8ff" points="492.57,-19.53 482.05,-18.3 489.51,-25.82 492.57,-19.53"/>
</a>
</g>
</g>
<!-- Node29 -->
<g id="Node000029" class="node">
<title>Node29</title>
<g id="a_Node000029"><a xlink:title=" ">
<polygon fill="#e0e0e0" stroke="#999999" points="611.5,-19 538.5,-19 538.5,0 611.5,0 611.5,-19"/>
<text text-anchor="middle" x="575" y="-7" font-family="Helvetica,sans-Serif" font-size="10.00">string_view</text>
</a>
</g>
</g>
<!-- Node28&#45;&gt;Node29 -->
<g id="edge33_Node000028_Node000029" class="edge">
<title>Node28&#45;&gt;Node29</title>
<g id="a_edge33_Node000028_Node000029"><a xlink:title=" ">
<path fill="none" stroke="#63b8ff" d="M575,-54.75C575,-47.8 575,-37.85 575,-29.13"/>
<polygon fill="#63b8ff" stroke="#63b8ff" points="578.5,-29.09 575,-19.09 571.5,-29.09 578.5,-29.09"/>
</a>
</g>
</g>
<!-- Node30&#45;&gt;Node28 -->
<g id="edge36_Node000030_Node000028" class="edge">
<title>Node30&#45;&gt;Node28</title>
<g id="a_edge36_Node000030_Node000028"><a xlink:title=" ">
<path fill="none" stroke="#63b8ff" d="M575,-109.75C575,-102.8 575,-92.85 575,-84.13"/>
<polygon fill="#63b8ff" stroke="#63b8ff" points="578.5,-84.09 575,-74.09 571.5,-84.09 578.5,-84.09"/>
</a>
</g>
</g>
<!-- Node31&#45;&gt;Node19 -->
<g id="edge39_Node000031_Node000019" class="edge">
<title>Node31&#45;&gt;Node19</title>
<g id="a_edge39_Node000031_Node000019"><a xlink:title=" ">
<path fill="none" stroke="#63b8ff" d="M1129.35,-109.98C1106.15,-101.27 1069.88,-87.63 1043.6,-77.75"/>
<polygon fill="#63b8ff" stroke="#63b8ff" points="1044.66,-74.41 1034.07,-74.17 1042.2,-80.97 1044.66,-74.41"/>
</a>
</g>
</g>
<!-- Node31&#45;&gt;Node22 -->
<g id="edge40_Node000031_Node000022" class="edge">
<title>Node31&#45;&gt;Node22</title>
<g id="a_edge40_Node000031_Node000022"><a xlink:title=" ">
<path fill="none" stroke="#63b8ff" d="M1146.06,-109.75C1141.02,-102.34 1133.66,-91.5 1127.49,-82.41"/>
<polygon fill="#63b8ff" stroke="#63b8ff" points="1130.35,-80.39 1121.83,-74.09 1124.56,-84.33 1130.35,-80.39"/>
</a>
</g>
</g>
<!-- Node31&#45;&gt;Node23 -->
<g id="edge38_Node000031_Node000023" class="edge">
<title>Node31&#45;&gt;Node23</title>
<g id="a_edge38_Node000031_Node000023"><a xlink:title=" ">
<path fill="none" stroke="#63b8ff" d="M1156.57,-109.95C1162.5,-97.83 1171.67,-74.9 1168,-55 1166.33,-45.95 1162.9,-36.36 1159.56,-28.41"/>
<polygon fill="#63b8ff" stroke="#63b8ff" points="1162.66,-26.78 1155.37,-19.09 1156.27,-29.65 1162.66,-26.78"/>
</a>
</g>
</g>
<!-- Node33 -->
<g id="Node000033" class="node">
<title>Node33</title>
<g id="a_Node000033"><a xlink:title=" ">
<polygon fill="#e0e0e0" stroke="#999999" points="1320.5,-129 1251.5,-129 1251.5,-110 1320.5,-110 1320.5,-129"/>
<text text-anchor="middle" x="1286" y="-117" font-family="Helvetica,sans-Serif" font-size="10.00">type_traits</text>
</a>
</g>
</g>
<!-- Node32&#45;&gt;Node33 -->
<g id="edge42_Node000032_Node000033" class="edge">
<title>Node32&#45;&gt;Node33</title>
<g id="a_edge42_Node000032_Node000033"><a xlink:title=" ">
<path fill="none" stroke="#63b8ff" d="M1184.44,-164.98C1203.99,-156.42 1234.38,-143.11 1256.82,-133.28"/>
<polygon fill="#63b8ff" stroke="#63b8ff" points="1258.45,-136.39 1266.21,-129.17 1255.64,-129.98 1258.45,-136.39"/>
</a>
</g>
</g>
<!-- Node34&#45;&gt;Node13 -->
<g id="edge44_Node000034_Node000013" class="edge">
<title>Node34&#45;&gt;Node13</title>
<g id="a_edge44_Node000034_Node000013"><a xlink:title=" ">
<path fill="none" stroke="#63b8ff" d="M1415.69,-164.98C1437.8,-156.3 1472.32,-142.75 1497.45,-132.88"/>
<polygon fill="#63b8ff" stroke="#63b8ff" points="1498.89,-136.08 1506.92,-129.17 1496.33,-129.57 1498.89,-136.08"/>
</a>
</g>
</g>
<!-- Node34&#45;&gt;Node31 -->
<g id="edge45_Node000034_Node000031" class="edge">
<title>Node34&#45;&gt;Node31</title>
<g id="a_edge45_Node000034_Node000031"><a xlink:title=" ">
<path fill="none" stroke="#63b8ff" d="M1355.12,-164.98C1313.26,-155.82 1246.57,-141.21 1201.12,-131.26"/>
<polygon fill="#63b8ff" stroke="#63b8ff" points="1201.7,-127.8 1191.19,-129.08 1200.21,-134.64 1201.7,-127.8"/>
</a>
</g>
</g>
<!-- Node34&#45;&gt;Node33 -->
<g id="edge47_Node000034_Node000033" class="edge">
<title>Node34&#45;&gt;Node33</title>
<g id="a_edge47_Node000034_Node000033"><a xlink:title=" ">
<path fill="none" stroke="#63b8ff" d="M1376.65,-164.98C1359.43,-156.54 1332.8,-143.47 1312.85,-133.68"/>
<polygon fill="#63b8ff" stroke="#63b8ff" points="1314.19,-130.43 1303.67,-129.17 1311.1,-136.72 1314.19,-130.43"/>
</a>
</g>
</g>
<!-- Node35 -->
<g id="Node000035" class="node">
<title>Node35</title>
<g id="a_Node000035"><a xlink:title=" ">
<polygon fill="#e0e0e0" stroke="#999999" points="1414.5,-129 1361.5,-129 1361.5,-110 1414.5,-110 1414.5,-129"/>
<text text-anchor="middle" x="1388" y="-117" font-family="Helvetica,sans-Serif" font-size="10.00">cstddef</text>
</a>
</g>
</g>
<!-- Node34&#45;&gt;Node35 -->
<g id="edge46_Node000034_Node000035" class="edge">
<title>Node34&#45;&gt;Node35</title>
<g id="a_edge46_Node000034_Node000035"><a xlink:title=" ">
<path fill="none" stroke="#63b8ff" d="M1393.01,-164.75C1392.22,-157.8 1391.1,-147.85 1390.11,-139.13"/>
<polygon fill="#63b8ff" stroke="#63b8ff" points="1393.58,-138.63 1388.97,-129.09 1386.62,-139.42 1393.58,-138.63"/>
</a>
</g>
</g>
<!-- Node36&#45;&gt;Node8 -->
<g id="edge52_Node000036_Node000008" class="edge">
<title>Node36&#45;&gt;Node8</title>
<g id="a_edge52_Node000036_Node000008"><a xlink:title=" ">
<path fill="none" stroke="#63b8ff" d="M765.2,-340.95C746.08,-330.13 719.8,-315.24 700.91,-304.54"/>
<polygon fill="#63b8ff" stroke="#63b8ff" points="702.46,-301.4 692.04,-299.52 699.01,-307.49 702.46,-301.4"/>
</a>
</g>
</g>
<!-- Node36&#45;&gt;Node37 -->
<g id="edge53_Node000036_Node000037" class="edge">
<title>Node36&#45;&gt;Node37</title>
<g id="a_edge53_Node000036_Node000037"><a xlink:title=" ">
<path fill="none" stroke="#63b8ff" d="M803.09,-340.8C810.73,-332.51 820.52,-321.89 829.1,-312.59"/>
<polygon fill="#63b8ff" stroke="#63b8ff" points="831.74,-314.89 835.94,-305.16 826.59,-310.14 831.74,-314.89"/>
</a>
</g>
</g>
<!-- Node38&#45;&gt;Node5 -->
<g id="edge56_Node000038_Node000005" class="edge">
<title>Node38&#45;&gt;Node5</title>
<g id="a_edge56_Node000038_Node000005"><a xlink:title=" ">
<path fill="none" stroke="#63b8ff" d="M531.96,-340.86C492.27,-322.11 424.35,-285.86 379,-239 349.59,-208.61 327.78,-163.35 317.17,-138.48"/>
<polygon fill="#63b8ff" stroke="#63b8ff" points="320.38,-137.07 313.33,-129.17 313.91,-139.75 320.38,-137.07"/>
</a>
</g>
</g>
<!-- Node38&#45;&gt;Node8 -->
<g id="edge58_Node000038_Node000008" class="edge">
<title>Node38&#45;&gt;Node8</title>
<g id="a_edge58_Node000038_Node000008"><a xlink:title=" ">
<path fill="none" stroke="#63b8ff" d="M588.8,-340.95C607.92,-330.13 634.2,-315.24 653.09,-304.54"/>
<polygon fill="#63b8ff" stroke="#63b8ff" points="654.99,-307.49 661.96,-299.52 651.54,-301.4 654.99,-307.49"/>
</a>
</g>
</g>
<!-- Node38&#45;&gt;Node26 -->
<g id="edge57_Node000038_Node000026" class="edge">
<title>Node38&#45;&gt;Node26</title>
<g id="a_edge57_Node000038_Node000026"><a xlink:title=" ">
<path fill="none" stroke="#63b8ff" d="M569.35,-340.86C581.27,-306.74 605.91,-218.78 566,-165 551.95,-146.06 487.14,-132.05 448.42,-125.2"/>
<polygon fill="#63b8ff" stroke="#63b8ff" points="448.71,-121.7 438.26,-123.46 447.52,-128.6 448.71,-121.7"/>
</a>
</g>
</g>
<!-- Node39&#45;&gt;Node5 -->
<g id="edge61_Node000039_Node000005" class="edge">
<title>Node39&#45;&gt;Node5</title>
<g id="a_edge61_Node000039_Node000005"><a xlink:title=" ">
<path fill="none" stroke="#63b8ff" d="M974.49,-280.43C834.86,-255.76 441.47,-186.17 435,-184 397.31,-171.37 356.83,-149.01 332.47,-134.47"/>
<polygon fill="#63b8ff" stroke="#63b8ff" points="334.03,-131.33 323.66,-129.14 330.4,-137.32 334.03,-131.33"/>
</a>
</g>
</g>
<!-- Node39&#45;&gt;Node9 -->
<g id="edge63_Node000039_Node000009" class="edge">
<title>Node39&#45;&gt;Node9</title>
<g id="a_edge63_Node000039_Node000009"><a xlink:title=" ">
<path fill="none" stroke="#63b8ff" d="M1023,-280.37C1023,-272.25 1023,-259.81 1023,-249.39"/>
<polygon fill="#63b8ff" stroke="#63b8ff" points="1026.5,-249.17 1023,-239.17 1019.5,-249.17 1026.5,-249.17"/>
</a>
</g>
</g>
<!-- Node39&#45;&gt;Node16 -->
<g id="edge62_Node000039_Node000016" class="edge">
<title>Node39&#45;&gt;Node16</title>
<g id="a_edge62_Node000039_Node000016"><a xlink:title=" ">
<path fill="none" stroke="#63b8ff" d="M1093.64,-282.23C1191.15,-271.04 1371.05,-243.71 1513,-184 1553.79,-166.84 1569.9,-164.73 1596,-129 1605.61,-115.84 1610.1,-97.71 1612.19,-84.19"/>
<polygon fill="#63b8ff" stroke="#63b8ff" points="1615.68,-84.48 1613.44,-74.13 1608.73,-83.62 1615.68,-84.48"/>
</a>
</g>
</g>
</g>
</svg>
