<?xml version="1.0" encoding="UTF-8" standalone="no"?>
<!DOCTYPE svg PUBLIC "-//W3C//DTD SVG 1.1//EN"
 "http://www.w3.org/Graphics/SVG/1.1/DTD/svg11.dtd">
<!-- Generated by graphviz version 2.43.0 (0)
 -->
<!-- Title: src/game/Component.cpp Pages: 1 -->
<svg width="360pt" height="252pt"
 viewBox="0.00 0.00 359.50 252.00" xmlns="http://www.w3.org/2000/svg" xmlns:xlink="http://www.w3.org/1999/xlink">
<g id="graph0" class="graph" transform="scale(1 1) rotate(0) translate(4 248)">
<title>src/game/Component.cpp</title>
<polygon fill="white" stroke="transparent" points="-4,4 -4,-248 355.5,-248 355.5,4 -4,4"/>
<!-- Node1 -->
<g id="node1" class="node">
<title>Node1</title>
<g id="a_node1"><a xlink:title=" ">
<polygon fill="#bfbfbf" stroke="black" points="4.5,-224.5 4.5,-243.5 145.5,-243.5 145.5,-224.5 4.5,-224.5"/>
<text text-anchor="middle" x="75" y="-231.5" font-family="Helvetica,sans-Serif" font-size="10.00">src/game/Component.cpp</text>
</a>
</g>
</g>
<!-- Node2 -->
<g id="node2" class="node">
<title>Node2</title>
<g id="a_node2"><a xlink:href="_component_8hpp.html" target="_top" xlink:title="Contains the declaration of the Component class, a base class for game components.">
<polygon fill="white" stroke="black" points="12.5,-168.5 12.5,-187.5 137.5,-187.5 137.5,-168.5 12.5,-168.5"/>
<text text-anchor="middle" x="75" y="-175.5" font-family="Helvetica,sans-Serif" font-size="10.00">game/Component.hpp</text>
</a>
</g>
</g>
<!-- Node1&#45;&gt;Node2 -->
<g id="edge1" class="edge">
<title>Node1&#45;&gt;Node2</title>
<path fill="none" stroke="midnightblue" d="M75,-224.08C75,-217.01 75,-206.86 75,-197.99"/>
<polygon fill="midnightblue" stroke="midnightblue" points="78.5,-197.75 75,-187.75 71.5,-197.75 78.5,-197.75"/>
</g>
<!-- Node3 -->
<g id="node3" class="node">
<title>Node3</title>
<g id="a_node3"><a xlink:title=" ">
<polygon fill="white" stroke="#bfbfbf" points="0,-56.5 0,-75.5 58,-75.5 58,-56.5 0,-56.5"/>
<text text-anchor="middle" x="29" y="-63.5" font-family="Helvetica,sans-Serif" font-size="10.00">memory</text>
</a>
</g>
</g>
<!-- Node2&#45;&gt;Node3 -->
<g id="edge2" class="edge">
<title>Node2&#45;&gt;Node3</title>
<path fill="none" stroke="midnightblue" d="M68.92,-168.4C62.93,-159.59 53.84,-145.36 48,-132 41.37,-116.85 36.29,-98.73 33.06,-85.48"/>
<polygon fill="midnightblue" stroke="midnightblue" points="36.45,-84.61 30.79,-75.66 29.63,-86.19 36.45,-84.61"/>
</g>
<!-- Node4 -->
<g id="node4" class="node">
<title>Node4</title>
<g id="a_node4"><a xlink:href="_game_object_8hpp.html" target="_top" xlink:title="Contains the declaration of the GameObject class, representing a game object in the system.">
<polygon fill="white" stroke="black" points="57.5,-112.5 57.5,-131.5 186.5,-131.5 186.5,-112.5 57.5,-112.5"/>
<text text-anchor="middle" x="122" y="-119.5" font-family="Helvetica,sans-Serif" font-size="10.00">game/GameObject.hpp</text>
</a>
</g>
</g>
<!-- Node2&#45;&gt;Node4 -->
<g id="edge3" class="edge">
<title>Node2&#45;&gt;Node4</title>
<path fill="none" stroke="midnightblue" d="M82.76,-168.08C89.54,-160.3 99.54,-148.8 107.76,-139.37"/>
<polygon fill="midnightblue" stroke="midnightblue" points="110.46,-141.59 114.38,-131.75 105.18,-137 110.46,-141.59"/>
</g>
<!-- Node4&#45;&gt;Node3 -->
<g id="edge4" class="edge">
<title>Node4&#45;&gt;Node3</title>
<path fill="none" stroke="midnightblue" d="M107.06,-112.32C92.41,-103.82 69.87,-90.73 52.76,-80.8"/>
<polygon fill="midnightblue" stroke="midnightblue" points="54.31,-77.65 43.9,-75.65 50.8,-83.7 54.31,-77.65"/>
</g>
<!-- Node5 -->
<g id="node5" class="node">
<title>Node5</title>
<g id="a_node5"><a xlink:title=" ">
<polygon fill="white" stroke="#bfbfbf" points="76,-56.5 76,-75.5 120,-75.5 120,-56.5 76,-56.5"/>
<text text-anchor="middle" x="98" y="-63.5" font-family="Helvetica,sans-Serif" font-size="10.00">string</text>
</a>
</g>
</g>
<!-- Node4&#45;&gt;Node5 -->
<g id="edge5" class="edge">
<title>Node4&#45;&gt;Node5</title>
<path fill="none" stroke="midnightblue" d="M118.04,-112.08C114.79,-104.77 110.08,-94.18 106.05,-85.1"/>
<polygon fill="midnightblue" stroke="midnightblue" points="109.15,-83.47 101.89,-75.75 102.75,-86.31 109.15,-83.47"/>
</g>
<!-- Node6 -->
<g id="node6" class="node">
<title>Node6</title>
<g id="a_node6"><a xlink:title=" ">
<polygon fill="white" stroke="#bfbfbf" points="138.5,-56.5 138.5,-75.5 185.5,-75.5 185.5,-56.5 138.5,-56.5"/>
<text text-anchor="middle" x="162" y="-63.5" font-family="Helvetica,sans-Serif" font-size="10.00">vector</text>
</a>
</g>
</g>
<!-- Node4&#45;&gt;Node6 -->
<g id="edge6" class="edge">
<title>Node4&#45;&gt;Node6</title>
<path fill="none" stroke="midnightblue" d="M128.61,-112.08C134.26,-104.46 142.54,-93.26 149.45,-83.94"/>
<polygon fill="midnightblue" stroke="midnightblue" points="152.38,-85.87 155.52,-75.75 146.75,-81.7 152.38,-85.87"/>
</g>
<!-- Node7 -->
<g id="node7" class="node">
<title>Node7</title>
<g id="a_node7"><a xlink:href="_entity_8hpp.html" target="_top" xlink:title=" ">
<polygon fill="white" stroke="black" points="203.5,-56.5 203.5,-75.5 292.5,-75.5 292.5,-56.5 203.5,-56.5"/>
<text text-anchor="middle" x="248" y="-63.5" font-family="Helvetica,sans-Serif" font-size="10.00">core/Entity.hpp</text>
</a>
</g>
</g>
<!-- Node4&#45;&gt;Node7 -->
<g id="edge7" class="edge">
<title>Node4&#45;&gt;Node7</title>
<path fill="none" stroke="midnightblue" d="M141.97,-112.44C162.61,-103.6 195.06,-89.69 218.63,-79.59"/>
<polygon fill="midnightblue" stroke="midnightblue" points="220.32,-82.67 228.13,-75.52 217.56,-76.24 220.32,-82.67"/>
</g>
<!-- Node8 -->
<g id="node8" class="node">
<title>Node8</title>
<g id="a_node8"><a xlink:title=" ">
<polygon fill="white" stroke="#bfbfbf" points="120,-0.5 120,-19.5 250,-19.5 250,-0.5 120,-0.5"/>
<text text-anchor="middle" x="185" y="-7.5" font-family="Helvetica,sans-Serif" font-size="10.00">glm/gtc/quaternion.hpp</text>
</a>
</g>
</g>
<!-- Node7&#45;&gt;Node8 -->
<g id="edge8" class="edge">
<title>Node7&#45;&gt;Node8</title>
<path fill="none" stroke="midnightblue" d="M237.88,-56.32C228.47,-48.26 214.26,-36.08 202.93,-26.37"/>
<polygon fill="midnightblue" stroke="midnightblue" points="205.18,-23.68 195.31,-19.83 200.62,-29 205.18,-23.68"/>
</g>
<!-- Node9 -->
<g id="node9" class="node">
<title>Node9</title>
<g id="a_node9"><a xlink:title=" ">
<polygon fill="white" stroke="#bfbfbf" points="268.5,-0.5 268.5,-19.5 351.5,-19.5 351.5,-0.5 268.5,-0.5"/>
<text text-anchor="middle" x="310" y="-7.5" font-family="Helvetica,sans-Serif" font-size="10.00">glm/vec3.hpp</text>
</a>
</g>
</g>
<!-- Node7&#45;&gt;Node9 -->
<g id="edge9" class="edge">
<title>Node7&#45;&gt;Node9</title>
<path fill="none" stroke="midnightblue" d="M257.96,-56.32C267.13,-48.34 280.94,-36.31 292.03,-26.65"/>
<polygon fill="midnightblue" stroke="midnightblue" points="294.62,-29.04 299.86,-19.83 290.02,-23.76 294.62,-29.04"/>
</g>
</g>
</svg>
