<?xml version="1.0" encoding="UTF-8" standalone="no"?>
<!DOCTYPE svg PUBLIC "-//W3C//DTD SVG 1.1//EN"
 "http://www.w3.org/Graphics/SVG/1.1/DTD/svg11.dtd">
<!-- Generated by graphviz version 2.43.0 (0)
 -->
<!-- Title: src/ui/widgets/ConsoleWidget.cpp Pages: 1 -->
<svg width="598pt" height="140pt"
 viewBox="0.00 0.00 597.50 140.00" xmlns="http://www.w3.org/2000/svg" xmlns:xlink="http://www.w3.org/1999/xlink">
<g id="graph0" class="graph" transform="scale(1 1) rotate(0) translate(4 136)">
<title>src/ui/widgets/ConsoleWidget.cpp</title>
<polygon fill="white" stroke="transparent" points="-4,4 -4,-136 593.5,-136 593.5,4 -4,4"/>
<!-- Node1 -->
<g id="node1" class="node">
<title>Node1</title>
<g id="a_node1"><a xlink:title=" ">
<polygon fill="#bfbfbf" stroke="black" points="128.5,-112.5 128.5,-131.5 309.5,-131.5 309.5,-112.5 128.5,-112.5"/>
<text text-anchor="middle" x="219" y="-119.5" font-family="Helvetica,sans-Serif" font-size="10.00">src/ui/widgets/ConsoleWidget.cpp</text>
</a>
</g>
</g>
<!-- Node2 -->
<g id="node2" class="node">
<title>Node2</title>
<g id="a_node2"><a xlink:title=" ">
<polygon fill="white" stroke="#bfbfbf" points="0,-56.5 0,-75.5 60,-75.5 60,-56.5 0,-56.5"/>
<text text-anchor="middle" x="30" y="-63.5" font-family="Helvetica,sans-Serif" font-size="10.00">iostream</text>
</a>
</g>
</g>
<!-- Node1&#45;&gt;Node2 -->
<g id="edge1" class="edge">
<title>Node1&#45;&gt;Node2</title>
<path fill="none" stroke="midnightblue" d="M189.05,-112.44C156.84,-103.24 105.47,-88.56 69.86,-78.39"/>
<polygon fill="midnightblue" stroke="midnightblue" points="70.38,-74.9 59.81,-75.52 68.46,-81.63 70.38,-74.9"/>
</g>
<!-- Node3 -->
<g id="node3" class="node">
<title>Node3</title>
<g id="a_node3"><a xlink:title=" ">
<polygon fill="white" stroke="#bfbfbf" points="78,-56.5 78,-75.5 174,-75.5 174,-56.5 78,-56.5"/>
<text text-anchor="middle" x="126" y="-63.5" font-family="Helvetica,sans-Serif" font-size="10.00">imgui_internal.h</text>
</a>
</g>
</g>
<!-- Node1&#45;&gt;Node3 -->
<g id="edge2" class="edge">
<title>Node1&#45;&gt;Node3</title>
<path fill="none" stroke="midnightblue" d="M204.06,-112.32C189.41,-103.82 166.87,-90.73 149.76,-80.8"/>
<polygon fill="midnightblue" stroke="midnightblue" points="151.31,-77.65 140.9,-75.65 147.8,-83.7 151.31,-77.65"/>
</g>
<!-- Node4 -->
<g id="node4" class="node">
<title>Node4</title>
<g id="a_node4"><a xlink:title=" ">
<polygon fill="white" stroke="#bfbfbf" points="192.5,-56.5 192.5,-75.5 245.5,-75.5 245.5,-56.5 192.5,-56.5"/>
<text text-anchor="middle" x="219" y="-63.5" font-family="Helvetica,sans-Serif" font-size="10.00">imgui.h</text>
</a>
</g>
</g>
<!-- Node1&#45;&gt;Node4 -->
<g id="edge3" class="edge">
<title>Node1&#45;&gt;Node4</title>
<path fill="none" stroke="midnightblue" d="M219,-112.08C219,-105.01 219,-94.86 219,-85.99"/>
<polygon fill="midnightblue" stroke="midnightblue" points="222.5,-85.75 219,-75.75 215.5,-85.75 222.5,-85.75"/>
</g>
<!-- Node5 -->
<g id="node5" class="node">
<title>Node5</title>
<g id="a_node5"><a xlink:href="_image_8hpp.html" target="_top" xlink:title=" ">
<polygon fill="white" stroke="black" points="263.5,-56.5 263.5,-75.5 404.5,-75.5 404.5,-56.5 263.5,-56.5"/>
<text text-anchor="middle" x="334" y="-63.5" font-family="Helvetica,sans-Serif" font-size="10.00">AssetManager/Image.hpp</text>
</a>
</g>
</g>
<!-- Node1&#45;&gt;Node5 -->
<g id="edge4" class="edge">
<title>Node1&#45;&gt;Node5</title>
<path fill="none" stroke="midnightblue" d="M237.22,-112.44C255.9,-103.68 285.16,-89.94 306.62,-79.86"/>
<polygon fill="midnightblue" stroke="midnightblue" points="308.3,-82.93 315.86,-75.52 305.32,-76.6 308.3,-82.93"/>
</g>
<!-- Node7 -->
<g id="node7" class="node">
<title>Node7</title>
<g id="a_node7"><a xlink:title=" ">
<polygon fill="white" stroke="#bfbfbf" points="422.5,-56.5 422.5,-75.5 589.5,-75.5 589.5,-56.5 422.5,-56.5"/>
<text text-anchor="middle" x="506" y="-63.5" font-family="Helvetica,sans-Serif" font-size="10.00">UI/Widgets/ConsoleWidget.hpp</text>
</a>
</g>
</g>
<!-- Node1&#45;&gt;Node7 -->
<g id="edge6" class="edge">
<title>Node1&#45;&gt;Node7</title>
<path fill="none" stroke="midnightblue" d="M264.48,-112.44C314.96,-102.94 396.46,-87.61 450.62,-77.42"/>
<polygon fill="midnightblue" stroke="midnightblue" points="451.56,-80.81 460.74,-75.52 450.26,-73.93 451.56,-80.81"/>
</g>
<!-- Node6 -->
<g id="node6" class="node">
<title>Node6</title>
<g id="a_node6"><a xlink:title=" ">
<polygon fill="white" stroke="#bfbfbf" points="300,-0.5 300,-19.5 368,-19.5 368,-0.5 300,-0.5"/>
<text text-anchor="middle" x="334" y="-7.5" font-family="Helvetica,sans-Serif" font-size="10.00">filesystem</text>
</a>
</g>
</g>
<!-- Node5&#45;&gt;Node6 -->
<g id="edge5" class="edge">
<title>Node5&#45;&gt;Node6</title>
<path fill="none" stroke="midnightblue" d="M334,-56.08C334,-49.01 334,-38.86 334,-29.99"/>
<polygon fill="midnightblue" stroke="midnightblue" points="337.5,-29.75 334,-19.75 330.5,-29.75 337.5,-29.75"/>
</g>
</g>
</svg>
