<?xml version="1.0" encoding="UTF-8" standalone="no"?>
<!DOCTYPE svg PUBLIC "-//W3C//DTD SVG 1.1//EN"
 "http://www.w3.org/Graphics/SVG/1.1/DTD/svg11.dtd">
<!-- Generated by graphviz version 2.43.0 (0)
 -->
<!-- Title: src/ui/widgets/ConsoleWidget.cpp Pages: 1 -->
<svg width="1208pt" height="489pt"
 viewBox="0.00 0.00 1207.50 489.00" xmlns="http://www.w3.org/2000/svg" xmlns:xlink="http://www.w3.org/1999/xlink">
<g id="graph0" class="graph" transform="scale(1 1) rotate(0) translate(4 485)">
<title>src/ui/widgets/ConsoleWidget.cpp</title>
<!-- Node1 -->
<g id="Node000001" class="node">
<title>Node1</title>
<g id="a_Node000001"><a xlink:title=" ">
<polygon fill="#999999" stroke="#666666" points="642.5,-481 461.5,-481 461.5,-462 642.5,-462 642.5,-481"/>
<text text-anchor="middle" x="552" y="-469" font-family="Helvetica,sans-Serif" font-size="10.00">src/ui/widgets/ConsoleWidget.cpp</text>
</a>
</g>
</g>
<!-- Node2 -->
<g id="Node000002" class="node">
<title>Node2</title>
<g id="a_Node000002"><a xlink:title=" ">
<polygon fill="#e0e0e0" stroke="#999999" points="740,-299.5 680,-299.5 680,-280.5 740,-280.5 740,-299.5"/>
<text text-anchor="middle" x="710" y="-287.5" font-family="Helvetica,sans-Serif" font-size="10.00">iostream</text>
</a>
</g>
</g>
<!-- Node1&#45;&gt;Node2 -->
<g id="edge1_Node000001_Node000002" class="edge">
<title>Node1&#45;&gt;Node2</title>
<g id="a_edge1_Node000001_Node000002"><a xlink:title=" ">
<path fill="none" stroke="#63b8ff" d="M616.31,-461.97C709.43,-448.14 874.58,-417.61 910,-371 953.26,-314.08 820.36,-297.56 750.29,-292.84"/>
<polygon fill="#63b8ff" stroke="#63b8ff" points="750.22,-289.33 740.03,-292.2 749.79,-296.32 750.22,-289.33"/>
</a>
</g>
</g>
<!-- Node3 -->
<g id="Node000003" class="node">
<title>Node3</title>
<g id="a_Node000003"><a xlink:title=" ">
<polygon fill="#e0e0e0" stroke="#999999" points="406,-426 310,-426 310,-407 406,-407 406,-426"/>
<text text-anchor="middle" x="358" y="-414" font-family="Helvetica,sans-Serif" font-size="10.00">imgui_internal.h</text>
</a>
</g>
</g>
<!-- Node1&#45;&gt;Node3 -->
<g id="edge2_Node000001_Node000003" class="edge">
<title>Node1&#45;&gt;Node3</title>
<g id="a_edge2_Node000001_Node000003"><a xlink:title=" ">
<path fill="none" stroke="#63b8ff" d="M520.83,-461.98C487.84,-452.97 435.6,-438.7 399.23,-428.76"/>
<polygon fill="#63b8ff" stroke="#63b8ff" points="399.98,-425.34 389.41,-426.08 398.14,-432.09 399.98,-425.34"/>
</a>
</g>
</g>
<!-- Node4 -->
<g id="Node000004" class="node">
<title>Node4</title>
<g id="a_Node000004"><a xlink:title=" ">
<polygon fill="#e0e0e0" stroke="#999999" points="477.5,-426 424.5,-426 424.5,-407 477.5,-407 477.5,-426"/>
<text text-anchor="middle" x="451" y="-414" font-family="Helvetica,sans-Serif" font-size="10.00">imgui.h</text>
</a>
</g>
</g>
<!-- Node1&#45;&gt;Node4 -->
<g id="edge3_Node000001_Node000004" class="edge">
<title>Node1&#45;&gt;Node4</title>
<g id="a_edge3_Node000001_Node000004"><a xlink:title=" ">
<path fill="none" stroke="#63b8ff" d="M535.77,-461.98C519.82,-453.61 495.22,-440.7 476.62,-430.95"/>
<polygon fill="#63b8ff" stroke="#63b8ff" points="478,-427.72 467.52,-426.17 474.75,-433.92 478,-427.72"/>
</a>
</g>
</g>
<!-- Node5 -->
<g id="Node000005" class="node">
<title>Node5</title>
<g id="a_Node000005"><a xlink:href="_asset_utils_8hpp.html" target="_top" xlink:title=" ">
<polygon fill="white" stroke="#666666" points="608.5,-426 495.5,-426 495.5,-407 608.5,-407 608.5,-426"/>
<text text-anchor="middle" x="552" y="-414" font-family="Helvetica,sans-Serif" font-size="10.00">Utils/AssetUtils.hpp</text>
</a>
</g>
</g>
<!-- Node1&#45;&gt;Node5 -->
<g id="edge4_Node000001_Node000005" class="edge">
<title>Node1&#45;&gt;Node5</title>
<g id="a_edge4_Node000001_Node000005"><a xlink:title=" ">
<path fill="none" stroke="#63b8ff" d="M552,-461.75C552,-454.8 552,-444.85 552,-436.13"/>
<polygon fill="#63b8ff" stroke="#63b8ff" points="555.5,-436.09 552,-426.09 548.5,-436.09 555.5,-436.09"/>
</a>
</g>
</g>
<!-- Node10 -->
<g id="Node000010" class="node">
<title>Node10</title>
<g id="a_Node000010"><a xlink:href="_logger_8hpp.html" target="_top" xlink:title=" ">
<polygon fill="white" stroke="#666666" points="867.5,-184 750.5,-184 750.5,-165 867.5,-165 867.5,-184"/>
<text text-anchor="middle" x="809" y="-172" font-family="Helvetica,sans-Serif" font-size="10.00">Common/Logger.hpp</text>
</a>
</g>
</g>
<!-- Node1&#45;&gt;Node10 -->
<g id="edge49_Node000001_Node000010" class="edge">
<title>Node1&#45;&gt;Node10</title>
<g id="a_edge49_Node000001_Node000010"><a xlink:title=" ">
<path fill="none" stroke="#63b8ff" d="M642.58,-466.1C774.78,-457.16 1005,-430.98 1005,-357 1005,-357 1005,-357 1005,-289 1005,-228.26 933.63,-199.49 877.03,-186.23"/>
<polygon fill="#63b8ff" stroke="#63b8ff" points="877.53,-182.76 867.01,-184.01 876.01,-189.59 877.53,-182.76"/>
</a>
</g>
</g>
<!-- Node31 -->
<g id="Node000031" class="node">
<title>Node31</title>
<g id="a_Node000031"><a xlink:href="_image_8hpp.html" target="_top" xlink:title=" ">
<polygon fill="white" stroke="#666666" points="169.5,-426 28.5,-426 28.5,-407 169.5,-407 169.5,-426"/>
<text text-anchor="middle" x="99" y="-414" font-family="Helvetica,sans-Serif" font-size="10.00">AssetManager/Image.hpp</text>
</a>
</g>
</g>
<!-- Node1&#45;&gt;Node31 -->
<g id="edge47_Node000001_Node000031" class="edge">
<title>Node1&#45;&gt;Node31</title>
<g id="a_edge47_Node000001_Node000031"><a xlink:title=" ">
<path fill="none" stroke="#63b8ff" d="M479.22,-461.98C397.38,-452.41 264.86,-436.91 179.86,-426.96"/>
<polygon fill="#63b8ff" stroke="#63b8ff" points="180.08,-423.46 169.74,-425.78 179.26,-430.41 180.08,-423.46"/>
</a>
</g>
</g>
<!-- Node32 -->
<g id="Node000032" class="node">
<title>Node32</title>
<g id="a_Node000032"><a xlink:title=" ">
<polygon fill="#e0e0e0" stroke="#999999" points="1199.5,-426 1032.5,-426 1032.5,-407 1199.5,-407 1199.5,-426"/>
<text text-anchor="middle" x="1116" y="-414" font-family="Helvetica,sans-Serif" font-size="10.00">UI/Widgets/ConsoleWidget.hpp</text>
</a>
</g>
</g>
<!-- Node1&#45;&gt;Node32 -->
<g id="edge50_Node000001_Node000032" class="edge">
<title>Node1&#45;&gt;Node32</title>
<g id="a_edge50_Node000001_Node000032"><a xlink:title=" ">
<path fill="none" stroke="#63b8ff" d="M642.62,-461.98C746.69,-452.2 916.6,-436.24 1022.05,-426.33"/>
<polygon fill="#63b8ff" stroke="#63b8ff" points="1022.43,-429.81 1032.05,-425.39 1021.77,-422.84 1022.43,-429.81"/>
</a>
</g>
</g>
<!-- Node6 -->
<g id="Node000006" class="node">
<title>Node6</title>
<g id="a_Node000006"><a xlink:title=" ">
<polygon fill="#e0e0e0" stroke="#999999" points="605,-239 537,-239 537,-220 605,-220 605,-239"/>
<text text-anchor="middle" x="571" y="-227" font-family="Helvetica,sans-Serif" font-size="10.00">filesystem</text>
</a>
</g>
</g>
<!-- Node5&#45;&gt;Node6 -->
<g id="edge5_Node000005_Node000006" class="edge">
<title>Node5&#45;&gt;Node6</title>
<g id="a_edge5_Node000005_Node000006"><a xlink:title=" ">
<path fill="none" stroke="#63b8ff" d="M608.7,-412.51C704.61,-406.86 890.41,-393.18 910,-371 996.73,-272.82 725.44,-241.72 615.3,-233.28"/>
<polygon fill="#63b8ff" stroke="#63b8ff" points="615.39,-229.77 605.16,-232.53 614.88,-236.75 615.39,-229.77"/>
</a>
</g>
</g>
<!-- Node7 -->
<g id="Node000007" class="node">
<title>Node7</title>
<g id="a_Node000007"><a xlink:href="_asset_8hpp.html" target="_top" xlink:title=" ">
<polygon fill="white" stroke="#666666" points="304.5,-299.5 167.5,-299.5 167.5,-280.5 304.5,-280.5 304.5,-299.5"/>
<text text-anchor="middle" x="236" y="-287.5" font-family="Helvetica,sans-Serif" font-size="10.00">AssetManager/Asset.hpp</text>
</a>
</g>
</g>
<!-- Node5&#45;&gt;Node7 -->
<g id="edge6_Node000005_Node000007" class="edge">
<title>Node5&#45;&gt;Node7</title>
<g id="a_edge6_Node000005_Node000007"><a xlink:title=" ">
<path fill="none" stroke="#63b8ff" d="M495.19,-407.66C411.24,-395.95 263.42,-374.88 259,-371 241.56,-355.68 236.95,-328.08 235.94,-309.65"/>
<polygon fill="#63b8ff" stroke="#63b8ff" points="239.43,-309.46 235.69,-299.55 232.43,-309.63 239.43,-309.46"/>
</a>
</g>
</g>
<!-- Node8 -->
<g id="Node000008" class="node">
<title>Node8</title>
<g id="a_Node000008"><a xlink:href="_registry_8hpp.html" target="_top" xlink:title=" ">
<polygon fill="white" stroke="#666666" points="481,-239 383,-239 383,-220 481,-220 481,-239"/>
<text text-anchor="middle" x="432" y="-227" font-family="Helvetica,sans-Serif" font-size="10.00">ECS/Registry.hpp</text>
</a>
</g>
</g>
<!-- Node5&#45;&gt;Node8 -->
<g id="edge42_Node000005_Node000008" class="edge">
<title>Node5&#45;&gt;Node8</title>
<g id="a_edge42_Node000005_Node000008"><a xlink:title=" ">
<path fill="none" stroke="#63b8ff" d="M495.3,-407.91C492.49,-407.59 489.72,-407.29 487,-407 436.67,-401.72 67.34,-408.17 33,-371 7.95,-343.89 50.13,-285.03 64,-275 112.02,-240.28 281.38,-232.49 372.66,-230.84"/>
<polygon fill="#63b8ff" stroke="#63b8ff" points="372.91,-234.34 382.85,-230.68 372.8,-227.34 372.91,-234.34"/>
</a>
</g>
</g>
<!-- Node22 -->
<g id="Node000022" class="node">
<title>Node22</title>
<g id="a_Node000022"><a xlink:href="_assert_8hpp.html" target="_top" xlink:title=" ">
<polygon fill="white" stroke="#666666" points="610,-365.5 494,-365.5 494,-346.5 610,-346.5 610,-365.5"/>
<text text-anchor="middle" x="552" y="-353.5" font-family="Helvetica,sans-Serif" font-size="10.00">Common/Assert.hpp</text>
</a>
</g>
</g>
<!-- Node5&#45;&gt;Node22 -->
<g id="edge28_Node000005_Node000022" class="edge">
<title>Node5&#45;&gt;Node22</title>
<g id="a_edge28_Node000005_Node000022"><a xlink:title=" ">
<path fill="none" stroke="#63b8ff" d="M552,-406.87C552,-398.75 552,-386.31 552,-375.89"/>
<polygon fill="#63b8ff" stroke="#63b8ff" points="555.5,-375.67 552,-365.67 548.5,-375.67 555.5,-375.67"/>
</a>
</g>
</g>
<!-- Node25 -->
<g id="Node000025" class="node">
<title>Node25</title>
<g id="a_Node000025"><a xlink:href="_types_8hpp.html" target="_top" xlink:title=" ">
<polygon fill="white" stroke="#666666" points="900.5,-365.5 787.5,-365.5 787.5,-346.5 900.5,-346.5 900.5,-365.5"/>
<text text-anchor="middle" x="844" y="-353.5" font-family="Helvetica,sans-Serif" font-size="10.00">Common/Types.hpp</text>
</a>
</g>
</g>
<!-- Node5&#45;&gt;Node25 -->
<g id="edge32_Node000005_Node000025" class="edge">
<title>Node5&#45;&gt;Node25</title>
<g id="a_edge32_Node000005_Node000025"><a xlink:title=" ">
<path fill="none" stroke="#63b8ff" d="M596.84,-406.96C642.67,-398.18 715.87,-383.99 779,-371 784.1,-369.95 789.42,-368.84 794.72,-367.71"/>
<polygon fill="#63b8ff" stroke="#63b8ff" points="795.79,-371.07 804.84,-365.56 794.33,-364.22 795.79,-371.07"/>
</a>
</g>
</g>
<!-- Node26 -->
<g id="Node000026" class="node">
<title>Node26</title>
<g id="a_Node000026"><a xlink:href="_asset_component_8hpp.html" target="_top" xlink:title=" ">
<polygon fill="white" stroke="#666666" points="438,-371 268,-371 268,-341 438,-341 438,-371"/>
<text text-anchor="start" x="276" y="-359" font-family="Helvetica,sans-Serif" font-size="10.00">Components/AssetComponents</text>
<text text-anchor="middle" x="353" y="-348" font-family="Helvetica,sans-Serif" font-size="10.00">/AssetComponent.hpp</text>
</a>
</g>
</g>
<!-- Node5&#45;&gt;Node26 -->
<g id="edge34_Node000005_Node000026" class="edge">
<title>Node5&#45;&gt;Node26</title>
<g id="a_edge34_Node000005_Node000026"><a xlink:title=" ">
<path fill="none" stroke="#63b8ff" d="M523.06,-406.99C493.67,-398.35 447.36,-384.74 410.48,-373.9"/>
<polygon fill="#63b8ff" stroke="#63b8ff" points="411.42,-370.53 400.84,-371.06 409.45,-377.24 411.42,-370.53"/>
</a>
</g>
</g>
<!-- Node27 -->
<g id="Node000027" class="node">
<title>Node27</title>
<g id="a_Node000027"><a xlink:href="_asset_loader_8hpp.html" target="_top" xlink:title=" ">
<polygon fill="white" stroke="#666666" points="493,-305 323,-305 323,-275 493,-275 493,-305"/>
<text text-anchor="start" x="331" y="-293" font-family="Helvetica,sans-Serif" font-size="10.00">Components/AssetComponents</text>
<text text-anchor="middle" x="408" y="-282" font-family="Helvetica,sans-Serif" font-size="10.00">/AssetLoader.hpp</text>
</a>
</g>
</g>
<!-- Node5&#45;&gt;Node27 -->
<g id="edge37_Node000005_Node000027" class="edge">
<title>Node5&#45;&gt;Node27</title>
<g id="a_edge37_Node000005_Node000027"><a xlink:title=" ">
<path fill="none" stroke="#63b8ff" d="M537.24,-406.98C523.22,-398.6 501.83,-385.05 485,-371 463.5,-353.06 441.62,-329.73 426.7,-312.9"/>
<polygon fill="#63b8ff" stroke="#63b8ff" points="429.19,-310.43 419.97,-305.21 423.92,-315.04 429.19,-310.43"/>
</a>
</g>
</g>
<!-- Node28 -->
<g id="Node000028" class="node">
<title>Node28</title>
<g id="a_Node000028"><a xlink:href="_directory_component_8hpp.html" target="_top" xlink:title=" ">
<polygon fill="white" stroke="#666666" points="212,-371 42,-371 42,-341 212,-341 212,-371"/>
<text text-anchor="start" x="50" y="-359" font-family="Helvetica,sans-Serif" font-size="10.00">Components/AssetComponents</text>
<text text-anchor="middle" x="127" y="-348" font-family="Helvetica,sans-Serif" font-size="10.00">/DirectoryComponent.hpp</text>
</a>
</g>
</g>
<!-- Node5&#45;&gt;Node28 -->
<g id="edge38_Node000005_Node000028" class="edge">
<title>Node5&#45;&gt;Node28</title>
<g id="a_edge38_Node000005_Node000028"><a xlink:title=" ">
<path fill="none" stroke="#63b8ff" d="M495.45,-407.86C430.43,-399.07 320.49,-384.13 226,-371 224.72,-370.82 223.43,-370.64 222.13,-370.46"/>
<polygon fill="#63b8ff" stroke="#63b8ff" points="222.44,-366.97 212.05,-369.05 221.47,-373.9 222.44,-366.97"/>
</a>
</g>
</g>
<!-- Node30 -->
<g id="Node000030" class="node">
<title>Node30</title>
<g id="a_Node000030"><a xlink:href="_builders_8hpp.html" target="_top" xlink:title=" ">
<polygon fill="white" stroke="#666666" points="769.5,-365.5 628.5,-365.5 628.5,-346.5 769.5,-346.5 769.5,-365.5"/>
<text text-anchor="middle" x="699" y="-353.5" font-family="Helvetica,sans-Serif" font-size="10.00">Serialization/Builders.hpp</text>
</a>
</g>
</g>
<!-- Node5&#45;&gt;Node30 -->
<g id="edge43_Node000005_Node000030" class="edge">
<title>Node5&#45;&gt;Node30</title>
<g id="a_edge43_Node000005_Node000030"><a xlink:title=" ">
<path fill="none" stroke="#63b8ff" d="M573.38,-406.99C598.31,-397.07 639.72,-380.59 668.14,-369.28"/>
<polygon fill="#63b8ff" stroke="#63b8ff" points="669.6,-372.47 677.6,-365.52 667.01,-365.96 669.6,-372.47"/>
</a>
</g>
</g>
<!-- Node7&#45;&gt;Node6 -->
<g id="edge7_Node000007_Node000006" class="edge">
<title>Node7&#45;&gt;Node6</title>
<g id="a_edge7_Node000007_Node000006"><a xlink:title=" ">
<path fill="none" stroke="#63b8ff" d="M283.43,-280.44C293.52,-278.63 304.11,-276.74 314,-275 388.68,-261.83 475.63,-246.85 526.84,-238.06"/>
<polygon fill="#63b8ff" stroke="#63b8ff" points="527.64,-241.48 536.9,-236.34 526.45,-234.58 527.64,-241.48"/>
</a>
</g>
</g>
<!-- Node7&#45;&gt;Node8 -->
<g id="edge8_Node000007_Node000008" class="edge">
<title>Node7&#45;&gt;Node8</title>
<g id="a_edge8_Node000007_Node000008"><a xlink:title=" ">
<path fill="none" stroke="#63b8ff" d="M264.5,-280.49C298.61,-270.31 355.87,-253.22 393.79,-241.9"/>
<polygon fill="#63b8ff" stroke="#63b8ff" points="394.88,-245.23 403.47,-239.02 392.88,-238.52 394.88,-245.23"/>
</a>
</g>
</g>
<!-- Node9 -->
<g id="Node000009" class="node">
<title>Node9</title>
<g id="a_Node000009"><a xlink:title=" ">
<polygon fill="#e0e0e0" stroke="#999999" points="86,-129 0,-129 0,-110 86,-110 86,-129"/>
<text text-anchor="middle" x="43" y="-117" font-family="Helvetica,sans-Serif" font-size="10.00">unordered_set</text>
</a>
</g>
</g>
<!-- Node8&#45;&gt;Node9 -->
<g id="edge9_Node000008_Node000009" class="edge">
<title>Node8&#45;&gt;Node9</title>
<g id="a_edge9_Node000008_Node000009"><a xlink:title=" ">
<path fill="none" stroke="#63b8ff" d="M382.8,-223.63C331.34,-217.66 248.66,-205.57 180,-184 138.79,-171.05 93.88,-148.47 67.1,-134.01"/>
<polygon fill="#63b8ff" stroke="#63b8ff" points="68.54,-130.82 58.09,-129.09 65.19,-136.96 68.54,-130.82"/>
</a>
</g>
</g>
<!-- Node8&#45;&gt;Node10 -->
<g id="edge10_Node000008_Node000010" class="edge">
<title>Node8&#45;&gt;Node10</title>
<g id="a_edge10_Node000008_Node000010"><a xlink:title=" ">
<path fill="none" stroke="#63b8ff" d="M481.29,-221.57C547.43,-212.27 665.25,-195.71 740.14,-185.18"/>
<polygon fill="#63b8ff" stroke="#63b8ff" points="741,-188.59 750.41,-183.74 740.02,-181.66 741,-188.59"/>
</a>
</g>
</g>
<!-- Node13 -->
<g id="Node000013" class="node">
<title>Node13</title>
<g id="a_Node000013"><a xlink:href="_entity_8hpp.html" target="_top" xlink:title=" ">
<polygon fill="white" stroke="#666666" points="506,-74 420,-74 420,-55 506,-55 506,-74"/>
<text text-anchor="middle" x="463" y="-62" font-family="Helvetica,sans-Serif" font-size="10.00">ECS/Entity.hpp</text>
</a>
</g>
</g>
<!-- Node8&#45;&gt;Node13 -->
<g id="edge13_Node000008_Node000013" class="edge">
<title>Node8&#45;&gt;Node13</title>
<g id="a_edge13_Node000008_Node000013"><a xlink:title=" ">
<path fill="none" stroke="#63b8ff" d="M422.39,-219.69C414.13,-211.41 402.8,-198.18 398,-184 395.29,-176 395.59,-173.09 398,-165 407.75,-132.24 432.09,-100.22 448.06,-81.7"/>
<polygon fill="#63b8ff" stroke="#63b8ff" points="450.71,-83.98 454.73,-74.18 445.48,-79.34 450.71,-83.98"/>
</a>
</g>
</g>
<!-- Node15 -->
<g id="Node000015" class="node">
<title>Node15</title>
<g id="a_Node000015"><a xlink:href="_entity_hierarchy_8hpp.html" target="_top" xlink:title=" ">
<polygon fill="white" stroke="#666666" points="323,-184 189,-184 189,-165 323,-165 323,-184"/>
<text text-anchor="middle" x="256" y="-172" font-family="Helvetica,sans-Serif" font-size="10.00">ECS/EntityHierarchy.hpp</text>
</a>
</g>
</g>
<!-- Node8&#45;&gt;Node15 -->
<g id="edge15_Node000008_Node000015" class="edge">
<title>Node8&#45;&gt;Node15</title>
<g id="a_edge15_Node000008_Node000015"><a xlink:title=" ">
<path fill="none" stroke="#63b8ff" d="M403.72,-219.98C374.05,-211.05 327.21,-196.94 294.25,-187.02"/>
<polygon fill="#63b8ff" stroke="#63b8ff" points="295.08,-183.61 284.5,-184.08 293.07,-190.32 295.08,-183.61"/>
</a>
</g>
</g>
<!-- Node19 -->
<g id="Node000019" class="node">
<title>Node19</title>
<g id="a_Node000019"><a xlink:href="_entity_provider_8hpp.html" target="_top" xlink:title="Manages a pool of unused entity identifiers and provides mechanisms for requesting and removing them.">
<polygon fill="white" stroke="#666666" points="660,-129 532,-129 532,-110 660,-110 660,-129"/>
<text text-anchor="middle" x="596" y="-117" font-family="Helvetica,sans-Serif" font-size="10.00">ECS/EntityProvider.hpp</text>
</a>
</g>
</g>
<!-- Node8&#45;&gt;Node19 -->
<g id="edge21_Node000008_Node000019" class="edge">
<title>Node8&#45;&gt;Node19</title>
<g id="a_edge21_Node000008_Node000019"><a xlink:title=" ">
<path fill="none" stroke="#63b8ff" d="M481.08,-225.08C512.42,-220.38 551.77,-209.41 577,-184 588.77,-172.14 593.3,-153.31 595.02,-139.23"/>
<polygon fill="#63b8ff" stroke="#63b8ff" points="598.51,-139.44 595.88,-129.18 591.54,-138.84 598.51,-139.44"/>
</a>
</g>
</g>
<!-- Node20 -->
<g id="Node000020" class="node">
<title>Node20</title>
<g id="a_Node000020"><a xlink:href="_singleton_component_8hpp.html" target="_top" xlink:title=" ">
<polygon fill="white" stroke="#666666" points="567.5,-184 406.5,-184 406.5,-165 567.5,-165 567.5,-184"/>
<text text-anchor="middle" x="487" y="-172" font-family="Helvetica,sans-Serif" font-size="10.00">ECS/SingletonComponent.hpp</text>
</a>
</g>
</g>
<!-- Node8&#45;&gt;Node20 -->
<g id="edge25_Node000008_Node000020" class="edge">
<title>Node8&#45;&gt;Node20</title>
<g id="a_edge25_Node000008_Node000020"><a xlink:title=" ">
<path fill="none" stroke="#63b8ff" d="M441.08,-219.75C449.09,-212.03 460.96,-200.6 470.62,-191.28"/>
<polygon fill="#63b8ff" stroke="#63b8ff" points="473.31,-193.55 478.09,-184.09 468.46,-188.51 473.31,-193.55"/>
</a>
</g>
</g>
<!-- Node21 -->
<g id="Node000021" class="node">
<title>Node21</title>
<g id="a_Node000021"><a xlink:href="_sparse_set_8hpp.html" target="_top" xlink:title=" ">
<polygon fill="white" stroke="#666666" points="732,-184 624,-184 624,-165 732,-165 732,-184"/>
<text text-anchor="middle" x="678" y="-172" font-family="Helvetica,sans-Serif" font-size="10.00">ECS/SparseSet.hpp</text>
</a>
</g>
</g>
<!-- Node8&#45;&gt;Node21 -->
<g id="edge26_Node000008_Node000021" class="edge">
<title>Node8&#45;&gt;Node21</title>
<g id="a_edge26_Node000008_Node000021"><a xlink:title=" ">
<path fill="none" stroke="#63b8ff" d="M471.52,-219.98C514.17,-210.8 582.15,-196.15 628.36,-186.19"/>
<polygon fill="#63b8ff" stroke="#63b8ff" points="629.13,-189.61 638.17,-184.08 627.65,-182.77 629.13,-189.61"/>
</a>
</g>
</g>
<!-- Node11 -->
<g id="Node000011" class="node">
<title>Node11</title>
<g id="a_Node000011"><a xlink:title=" ">
<polygon fill="#e0e0e0" stroke="#999999" points="781,-129 733,-129 733,-110 781,-110 781,-129"/>
<text text-anchor="middle" x="757" y="-117" font-family="Helvetica,sans-Serif" font-size="10.00">mutex</text>
</a>
</g>
</g>
<!-- Node10&#45;&gt;Node11 -->
<g id="edge11_Node000010_Node000011" class="edge">
<title>Node10&#45;&gt;Node11</title>
<g id="a_edge11_Node000010_Node000011"><a xlink:title=" ">
<path fill="none" stroke="#63b8ff" d="M800.41,-164.75C792.84,-157.03 781.62,-145.6 772.49,-136.28"/>
<polygon fill="#63b8ff" stroke="#63b8ff" points="774.93,-133.78 765.43,-129.09 769.93,-138.68 774.93,-133.78"/>
</a>
</g>
</g>
<!-- Node12 -->
<g id="Node000012" class="node">
<title>Node12</title>
<g id="a_Node000012"><a xlink:title=" ">
<polygon fill="#e0e0e0" stroke="#999999" points="645.5,-74 598.5,-74 598.5,-55 645.5,-55 645.5,-74"/>
<text text-anchor="middle" x="622" y="-62" font-family="Helvetica,sans-Serif" font-size="10.00">queue</text>
</a>
</g>
</g>
<!-- Node10&#45;&gt;Node12 -->
<g id="edge12_Node000010_Node000012" class="edge">
<title>Node10&#45;&gt;Node12</title>
<g id="a_edge12_Node000010_Node000012"><a xlink:title=" ">
<path fill="none" stroke="#63b8ff" d="M808.95,-164.75C808.37,-151.09 805.21,-124.73 790,-110 753.9,-75.03 693.66,-66.73 655.97,-65.2"/>
<polygon fill="#63b8ff" stroke="#63b8ff" points="655.61,-61.68 645.52,-64.92 655.42,-68.68 655.61,-61.68"/>
</a>
</g>
</g>
<!-- Node14 -->
<g id="Node000014" class="node">
<title>Node14</title>
<g id="a_Node000014"><a xlink:title=" ">
<polygon fill="#e0e0e0" stroke="#999999" points="524.5,-19 471.5,-19 471.5,0 524.5,0 524.5,-19"/>
<text text-anchor="middle" x="498" y="-7" font-family="Helvetica,sans-Serif" font-size="10.00">stdlib.h</text>
</a>
</g>
</g>
<!-- Node13&#45;&gt;Node14 -->
<g id="edge14_Node000013_Node000014" class="edge">
<title>Node13&#45;&gt;Node14</title>
<g id="a_edge14_Node000013_Node000014"><a xlink:title=" ">
<path fill="none" stroke="#63b8ff" d="M468.78,-54.75C473.62,-47.42 480.68,-36.73 486.64,-27.7"/>
<polygon fill="#63b8ff" stroke="#63b8ff" points="489.74,-29.36 492.33,-19.09 483.9,-25.5 489.74,-29.36"/>
</a>
</g>
</g>
<!-- Node15&#45;&gt;Node9 -->
<g id="edge19_Node000015_Node000009" class="edge">
<title>Node15&#45;&gt;Node9</title>
<g id="a_edge19_Node000015_Node000009"><a xlink:title=" ">
<path fill="none" stroke="#63b8ff" d="M221.78,-164.98C185.24,-155.89 127.22,-141.46 87.24,-131.51"/>
<polygon fill="#63b8ff" stroke="#63b8ff" points="88.04,-128.1 77.49,-129.08 86.35,-134.89 88.04,-128.1"/>
</a>
</g>
</g>
<!-- Node15&#45;&gt;Node13 -->
<g id="edge20_Node000015_Node000013" class="edge">
<title>Node15&#45;&gt;Node13</title>
<g id="a_edge20_Node000015_Node000013"><a xlink:title=" ">
<path fill="none" stroke="#63b8ff" d="M250.76,-164.6C243.63,-151.19 233.16,-125.74 246,-110 266.3,-85.12 352.43,-73.76 409.89,-68.88"/>
<polygon fill="#63b8ff" stroke="#63b8ff" points="410.22,-72.36 419.91,-68.06 409.66,-65.38 410.22,-72.36"/>
</a>
</g>
</g>
<!-- Node16 -->
<g id="Node000016" class="node">
<title>Node16</title>
<g id="a_Node000016"><a xlink:title=" ">
<polygon fill="#e0e0e0" stroke="#999999" points="319.5,-129 254.5,-129 254.5,-110 319.5,-110 319.5,-129"/>
<text text-anchor="middle" x="287" y="-117" font-family="Helvetica,sans-Serif" font-size="10.00">functional</text>
</a>
</g>
</g>
<!-- Node15&#45;&gt;Node16 -->
<g id="edge16_Node000015_Node000016" class="edge">
<title>Node15&#45;&gt;Node16</title>
<g id="a_edge16_Node000015_Node000016"><a xlink:title=" ">
<path fill="none" stroke="#63b8ff" d="M261.12,-164.75C265.36,-157.49 271.53,-146.95 276.78,-137.98"/>
<polygon fill="#63b8ff" stroke="#63b8ff" points="279.95,-139.49 281.98,-129.09 273.91,-135.95 279.95,-139.49"/>
</a>
</g>
</g>
<!-- Node17 -->
<g id="Node000017" class="node">
<title>Node17</title>
<g id="a_Node000017"><a xlink:title=" ">
<polygon fill="#e0e0e0" stroke="#999999" points="388,-129 338,-129 338,-110 388,-110 388,-129"/>
<text text-anchor="middle" x="363" y="-117" font-family="Helvetica,sans-Serif" font-size="10.00">ranges</text>
</a>
</g>
</g>
<!-- Node15&#45;&gt;Node17 -->
<g id="edge17_Node000015_Node000017" class="edge">
<title>Node15&#45;&gt;Node17</title>
<g id="a_edge17_Node000015_Node000017"><a xlink:title=" ">
<path fill="none" stroke="#63b8ff" d="M273.19,-164.98C290.25,-156.54 316.63,-143.47 336.4,-133.68"/>
<polygon fill="#63b8ff" stroke="#63b8ff" points="338.09,-136.75 345.5,-129.17 334.98,-130.47 338.09,-136.75"/>
</a>
</g>
</g>
<!-- Node18 -->
<g id="Node000018" class="node">
<title>Node18</title>
<g id="a_Node000018"><a xlink:title=" ">
<polygon fill="#e0e0e0" stroke="#999999" points="197.5,-129 104.5,-129 104.5,-110 197.5,-110 197.5,-129"/>
<text text-anchor="middle" x="151" y="-117" font-family="Helvetica,sans-Serif" font-size="10.00">unordered_map</text>
</a>
</g>
</g>
<!-- Node15&#45;&gt;Node18 -->
<g id="edge18_Node000015_Node000018" class="edge">
<title>Node15&#45;&gt;Node18</title>
<g id="a_edge18_Node000015_Node000018"><a xlink:title=" ">
<path fill="none" stroke="#63b8ff" d="M239.13,-164.98C222.39,-156.54 196.5,-143.47 177.11,-133.68"/>
<polygon fill="#63b8ff" stroke="#63b8ff" points="178.68,-130.55 168.18,-129.17 175.53,-136.8 178.68,-130.55"/>
</a>
</g>
</g>
<!-- Node19&#45;&gt;Node12 -->
<g id="edge23_Node000019_Node000012" class="edge">
<title>Node19&#45;&gt;Node12</title>
<g id="a_edge23_Node000019_Node000012"><a xlink:title=" ">
<path fill="none" stroke="#63b8ff" d="M600.29,-109.75C603.81,-102.57 608.91,-92.18 613.28,-83.27"/>
<polygon fill="#63b8ff" stroke="#63b8ff" points="616.52,-84.61 617.79,-74.09 610.24,-81.53 616.52,-84.61"/>
</a>
</g>
</g>
<!-- Node19&#45;&gt;Node13 -->
<g id="edge24_Node000019_Node000013" class="edge">
<title>Node19&#45;&gt;Node13</title>
<g id="a_edge24_Node000019_Node000013"><a xlink:title=" ">
<path fill="none" stroke="#63b8ff" d="M574.63,-109.98C552.85,-101.3 518.84,-87.75 494.08,-77.88"/>
<polygon fill="#63b8ff" stroke="#63b8ff" points="495.34,-74.62 484.76,-74.17 492.75,-81.12 495.34,-74.62"/>
</a>
</g>
</g>
<!-- Node19&#45;&gt;Node14 -->
<g id="edge22_Node000019_Node000014" class="edge">
<title>Node19&#45;&gt;Node14</title>
<g id="a_edge22_Node000019_Node000014"><a xlink:title=" ">
<path fill="none" stroke="#63b8ff" d="M587.98,-109.66C571.53,-91.54 533.76,-49.91 512.76,-26.77"/>
<polygon fill="#63b8ff" stroke="#63b8ff" points="515.17,-24.21 505.86,-19.16 509.98,-28.92 515.17,-24.21"/>
</a>
</g>
</g>
<!-- Node21&#45;&gt;Node19 -->
<g id="edge27_Node000021_Node000019" class="edge">
<title>Node21&#45;&gt;Node19</title>
<g id="a_edge27_Node000021_Node000019"><a xlink:title=" ">
<path fill="none" stroke="#63b8ff" d="M664.83,-164.98C652.23,-156.84 633,-144.41 618.06,-134.76"/>
<polygon fill="#63b8ff" stroke="#63b8ff" points="619.71,-131.66 609.41,-129.17 615.91,-137.54 619.71,-131.66"/>
</a>
</g>
</g>
<!-- Node22&#45;&gt;Node2 -->
<g id="edge31_Node000022_Node000002" class="edge">
<title>Node22&#45;&gt;Node2</title>
<g id="a_edge31_Node000022_Node000002"><a xlink:title=" ">
<path fill="none" stroke="#63b8ff" d="M573.31,-346.37C600.6,-335.32 648.07,-316.08 679.27,-303.45"/>
<polygon fill="#63b8ff" stroke="#63b8ff" points="680.82,-306.59 688.78,-299.6 678.19,-300.11 680.82,-306.59"/>
</a>
</g>
</g>
<!-- Node23 -->
<g id="Node000023" class="node">
<title>Node23</title>
<g id="a_Node000023"><a xlink:title=" ">
<polygon fill="#e0e0e0" stroke="#999999" points="578.5,-299.5 511.5,-299.5 511.5,-280.5 578.5,-280.5 578.5,-299.5"/>
<text text-anchor="middle" x="545" y="-287.5" font-family="Helvetica,sans-Serif" font-size="10.00">fmt/core.h</text>
</a>
</g>
</g>
<!-- Node22&#45;&gt;Node23 -->
<g id="edge29_Node000022_Node000023" class="edge">
<title>Node22&#45;&gt;Node23</title>
<g id="a_edge29_Node000022_Node000023"><a xlink:title=" ">
<path fill="none" stroke="#63b8ff" d="M551.06,-346.37C550.04,-337.07 548.39,-321.98 547.07,-309.9"/>
<polygon fill="#63b8ff" stroke="#63b8ff" points="550.54,-309.47 545.97,-299.91 543.58,-310.23 550.54,-309.47"/>
</a>
</g>
</g>
<!-- Node24 -->
<g id="Node000024" class="node">
<title>Node24</title>
<g id="a_Node000024"><a xlink:title=" ">
<polygon fill="#e0e0e0" stroke="#999999" points="661.5,-299.5 596.5,-299.5 596.5,-280.5 661.5,-280.5 661.5,-299.5"/>
<text text-anchor="middle" x="629" y="-287.5" font-family="Helvetica,sans-Serif" font-size="10.00">exception</text>
</a>
</g>
</g>
<!-- Node22&#45;&gt;Node24 -->
<g id="edge30_Node000022_Node000024" class="edge">
<title>Node22&#45;&gt;Node24</title>
<g id="a_edge30_Node000022_Node000024"><a xlink:title=" ">
<path fill="none" stroke="#63b8ff" d="M562.38,-346.37C574.72,-336.12 595.51,-318.84 610.59,-306.31"/>
<polygon fill="#63b8ff" stroke="#63b8ff" points="612.83,-308.99 618.29,-299.91 608.36,-303.61 612.83,-308.99"/>
</a>
</g>
</g>
<!-- Node25&#45;&gt;Node6 -->
<g id="edge33_Node000025_Node000006" class="edge">
<title>Node25&#45;&gt;Node6</title>
<g id="a_edge33_Node000025_Node000006"><a xlink:title=" ">
<path fill="none" stroke="#63b8ff" d="M841.66,-346.38C836.66,-329.71 823.27,-293.09 798,-275 769.33,-254.48 673.22,-241.17 615.65,-234.84"/>
<polygon fill="#63b8ff" stroke="#63b8ff" points="615.69,-231.33 605.37,-233.74 614.94,-238.29 615.69,-231.33"/>
</a>
</g>
</g>
<!-- Node26&#45;&gt;Node7 -->
<g id="edge35_Node000026_Node000007" class="edge">
<title>Node26&#45;&gt;Node7</title>
<g id="a_edge35_Node000026_Node000007"><a xlink:title=" ">
<path fill="none" stroke="#63b8ff" d="M327.32,-340.95C307.44,-330.08 280.07,-315.11 260.49,-304.4"/>
<polygon fill="#63b8ff" stroke="#63b8ff" points="262.02,-301.25 251.57,-299.52 258.66,-307.39 262.02,-301.25"/>
</a>
</g>
</g>
<!-- Node26&#45;&gt;Node27 -->
<g id="edge36_Node000026_Node000027" class="edge">
<title>Node26&#45;&gt;Node27</title>
<g id="a_edge36_Node000026_Node000027"><a xlink:title=" ">
<path fill="none" stroke="#63b8ff" d="M365.21,-340.8C372.26,-332.59 381.27,-322.1 389.21,-312.87"/>
<polygon fill="#63b8ff" stroke="#63b8ff" points="391.96,-315.03 395.83,-305.16 386.66,-310.47 391.96,-315.03"/>
</a>
</g>
</g>
<!-- Node28&#45;&gt;Node6 -->
<g id="edge39_Node000028_Node000006" class="edge">
<title>Node28&#45;&gt;Node6</title>
<g id="a_edge39_Node000028_Node000006"><a xlink:title=" ">
<path fill="none" stroke="#63b8ff" d="M128.32,-340.79C130.85,-322.4 138.14,-290.82 159,-275 159.91,-274.31 420.27,-246.54 526.58,-235.22"/>
<polygon fill="#63b8ff" stroke="#63b8ff" points="527.1,-238.69 536.67,-234.15 526.36,-231.73 527.1,-238.69"/>
</a>
</g>
</g>
<!-- Node28&#45;&gt;Node7 -->
<g id="edge41_Node000028_Node000007" class="edge">
<title>Node28&#45;&gt;Node7</title>
<g id="a_edge41_Node000028_Node000007"><a xlink:title=" ">
<path fill="none" stroke="#63b8ff" d="M150.92,-340.95C169.28,-330.18 194.48,-315.38 212.69,-304.69"/>
<polygon fill="#63b8ff" stroke="#63b8ff" points="214.64,-307.6 221.49,-299.52 211.1,-301.56 214.64,-307.6"/>
</a>
</g>
</g>
<!-- Node29 -->
<g id="Node000029" class="node">
<title>Node29</title>
<g id="a_Node000029"><a xlink:title=" ">
<polygon fill="#e0e0e0" stroke="#999999" points="111,-299.5 73,-299.5 73,-280.5 111,-280.5 111,-299.5"/>
<text text-anchor="middle" x="92" y="-287.5" font-family="Helvetica,sans-Serif" font-size="10.00">map</text>
</a>
</g>
</g>
<!-- Node28&#45;&gt;Node29 -->
<g id="edge40_Node000028_Node000029" class="edge">
<title>Node28&#45;&gt;Node29</title>
<g id="a_edge40_Node000028_Node000029"><a xlink:title=" ">
<path fill="none" stroke="#63b8ff" d="M119.23,-340.8C114.04,-331.31 107.18,-318.76 101.64,-308.63"/>
<polygon fill="#63b8ff" stroke="#63b8ff" points="104.71,-306.94 96.84,-299.84 98.56,-310.3 104.71,-306.94"/>
</a>
</g>
</g>
<!-- Node30&#45;&gt;Node2 -->
<g id="edge45_Node000030_Node000002" class="edge">
<title>Node30&#45;&gt;Node2</title>
<g id="a_edge45_Node000030_Node000002"><a xlink:title=" ">
<path fill="none" stroke="#63b8ff" d="M700.48,-346.37C702.08,-337.07 704.68,-321.98 706.75,-309.9"/>
<polygon fill="#63b8ff" stroke="#63b8ff" points="710.22,-310.35 708.47,-299.91 703.33,-309.17 710.22,-310.35"/>
</a>
</g>
</g>
<!-- Node30&#45;&gt;Node6 -->
<g id="edge44_Node000030_Node000006" class="edge">
<title>Node30&#45;&gt;Node6</title>
<g id="a_edge44_Node000030_Node000006"><a xlink:title=" ">
<path fill="none" stroke="#63b8ff" d="M720.25,-346.48C751.88,-332.57 805.26,-303.68 782,-275 761.45,-249.66 671.1,-238.2 615.5,-233.46"/>
<polygon fill="#63b8ff" stroke="#63b8ff" points="615.47,-229.95 605.22,-232.63 614.9,-236.93 615.47,-229.95"/>
</a>
</g>
</g>
<!-- Node30&#45;&gt;Node8 -->
<g id="edge46_Node000030_Node000008" class="edge">
<title>Node30&#45;&gt;Node8</title>
<g id="a_edge46_Node000030_Node000008"><a xlink:title=" ">
<path fill="none" stroke="#63b8ff" d="M711.33,-346.47C731.99,-331.18 769.42,-298.48 749,-275 740.62,-265.36 580.67,-246.6 491.26,-236.81"/>
<polygon fill="#63b8ff" stroke="#63b8ff" points="491.57,-233.32 481.25,-235.71 490.81,-240.28 491.57,-233.32"/>
</a>
</g>
</g>
<!-- Node31&#45;&gt;Node6 -->
<g id="edge48_Node000031_Node000006" class="edge">
<title>Node31&#45;&gt;Node6</title>
<g id="a_edge48_Node000031_Node000006"><a xlink:title=" ">
<path fill="none" stroke="#63b8ff" d="M76.22,-406.89C60.97,-399.79 42.08,-388.08 33,-371 11.95,-331.41 27.2,-300.61 64,-275 141.98,-220.73 395.42,-247.96 490,-239 501.87,-237.88 514.7,-236.57 526.58,-235.32"/>
<polygon fill="#63b8ff" stroke="#63b8ff" points="527.15,-238.78 536.73,-234.25 526.41,-231.82 527.15,-238.78"/>
</a>
</g>
</g>
</g>
</svg>
