<?xml version="1.0" encoding="UTF-8" standalone="no"?>
<!DOCTYPE svg PUBLIC "-//W3C//DTD SVG 1.1//EN"
 "http://www.w3.org/Graphics/SVG/1.1/DTD/svg11.dtd">
<!-- Generated by graphviz version 2.43.0 (0)
 -->
<!-- Title: src/ui/widgets/ConsoleWidget.hpp Pages: 1 -->
<svg width="1393pt" height="357pt"
 viewBox="0.00 0.00 1393.00 357.00" xmlns="http://www.w3.org/2000/svg" xmlns:xlink="http://www.w3.org/1999/xlink">
<g id="graph0" class="graph" transform="scale(1 1) rotate(0) translate(4 353)">
<title>src/ui/widgets/ConsoleWidget.hpp</title>
<!-- Node1 -->
<g id="Node000001" class="node">
<title>Node1</title>
<g id="a_Node000001"><a xlink:title="Contains the declaration of classes related to logging and a console user interface widget.">
<polygon fill="#999999" stroke="#666666" points="1013,-349 831,-349 831,-330 1013,-330 1013,-349"/>
<text text-anchor="middle" x="922" y="-337" font-family="Helvetica,sans-Serif" font-size="10.00">src/ui/widgets/ConsoleWidget.hpp</text>
</a>
</g>
</g>
<!-- Node2 -->
<g id="Node000002" class="node">
<title>Node2</title>
<g id="a_Node000002"><a xlink:title=" ">
<polygon fill="#e0e0e0" stroke="#999999" points="230,-184 172,-184 172,-165 230,-165 230,-184"/>
<text text-anchor="middle" x="201" y="-172" font-family="Helvetica,sans-Serif" font-size="10.00">memory</text>
</a>
</g>
</g>
<!-- Node1&#45;&gt;Node2 -->
<g id="edge1_Node000001_Node000002" class="edge">
<title>Node1&#45;&gt;Node2</title>
<g id="a_edge1_Node000001_Node000002"><a xlink:title=" ">
<path fill="none" stroke="#63b8ff" d="M830.91,-330.11C764.48,-323.05 672.56,-311.29 593,-294 457.53,-264.56 301.01,-211.22 234.1,-187.47"/>
<polygon fill="#63b8ff" stroke="#63b8ff" points="235.11,-184.11 224.52,-184.05 232.76,-190.71 235.11,-184.11"/>
</a>
</g>
</g>
<!-- Node3 -->
<g id="Node000003" class="node">
<title>Node3</title>
<g id="a_Node000003"><a xlink:title=" ">
<polygon fill="#e0e0e0" stroke="#999999" points="979,-129 931,-129 931,-110 979,-110 979,-129"/>
<text text-anchor="middle" x="955" y="-117" font-family="Helvetica,sans-Serif" font-size="10.00">mutex</text>
</a>
</g>
</g>
<!-- Node1&#45;&gt;Node3 -->
<g id="edge2_Node000001_Node000003" class="edge">
<title>Node1&#45;&gt;Node3</title>
<g id="a_edge2_Node000001_Node000003"><a xlink:title=" ">
<path fill="none" stroke="#63b8ff" d="M923.36,-329.97C924.78,-321.02 927.08,-306.52 929,-294 937.65,-237.69 947.54,-171.05 952.24,-139.23"/>
<polygon fill="#63b8ff" stroke="#63b8ff" points="955.73,-139.57 953.72,-129.17 948.8,-138.55 955.73,-139.57"/>
</a>
</g>
</g>
<!-- Node4 -->
<g id="Node000004" class="node">
<title>Node4</title>
<g id="a_Node000004"><a xlink:title=" ">
<polygon fill="#e0e0e0" stroke="#999999" points="919.5,-294 872.5,-294 872.5,-275 919.5,-275 919.5,-294"/>
<text text-anchor="middle" x="896" y="-282" font-family="Helvetica,sans-Serif" font-size="10.00">vector</text>
</a>
</g>
</g>
<!-- Node1&#45;&gt;Node4 -->
<g id="edge3_Node000001_Node000004" class="edge">
<title>Node1&#45;&gt;Node4</title>
<g id="a_edge3_Node000001_Node000004"><a xlink:title=" ">
<path fill="none" stroke="#63b8ff" d="M917.71,-329.75C914.19,-322.57 909.09,-312.18 904.72,-303.27"/>
<polygon fill="#63b8ff" stroke="#63b8ff" points="907.76,-301.53 900.21,-294.09 901.48,-304.61 907.76,-301.53"/>
</a>
</g>
</g>
<!-- Node5 -->
<g id="Node000005" class="node">
<title>Node5</title>
<g id="a_Node000005"><a xlink:href="_asset_8hpp.html" target="_top" xlink:title=" ">
<polygon fill="white" stroke="#666666" points="738.5,-294 601.5,-294 601.5,-275 738.5,-275 738.5,-294"/>
<text text-anchor="middle" x="670" y="-282" font-family="Helvetica,sans-Serif" font-size="10.00">AssetManager/Asset.hpp</text>
</a>
</g>
</g>
<!-- Node1&#45;&gt;Node5 -->
<g id="edge4_Node000001_Node000005" class="edge">
<title>Node1&#45;&gt;Node5</title>
<g id="a_edge4_Node000001_Node000005"><a xlink:title=" ">
<path fill="none" stroke="#63b8ff" d="M881.51,-329.98C837.83,-320.8 768.19,-306.15 720.85,-296.19"/>
<polygon fill="#63b8ff" stroke="#63b8ff" points="721.31,-292.72 710.81,-294.08 719.87,-299.57 721.31,-292.72"/>
</a>
</g>
</g>
<!-- Node32 -->
<g id="Node000032" class="node">
<title>Node32</title>
<g id="a_Node000032"><a xlink:href="_texture_8hpp.html" target="_top" xlink:title=" ">
<polygon fill="white" stroke="#666666" points="1122,-294 976,-294 976,-275 1122,-275 1122,-294"/>
<text text-anchor="middle" x="1049" y="-282" font-family="Helvetica,sans-Serif" font-size="10.00">AssetManager/Texture.hpp</text>
</a>
</g>
</g>
<!-- Node1&#45;&gt;Node32 -->
<g id="edge45_Node000001_Node000032" class="edge">
<title>Node1&#45;&gt;Node32</title>
<g id="a_edge45_Node000001_Node000032"><a xlink:title=" ">
<path fill="none" stroke="#63b8ff" d="M942.4,-329.98C963.02,-321.38 995.11,-307.99 1018.69,-298.15"/>
<polygon fill="#63b8ff" stroke="#63b8ff" points="1020.34,-301.25 1028.22,-294.17 1017.65,-294.79 1020.34,-301.25"/>
</a>
</g>
</g>
<!-- Node36 -->
<g id="Node000036" class="node">
<title>Node36</title>
<g id="a_Node000036"><a xlink:title=" ">
<polygon fill="#e0e0e0" stroke="#999999" points="1226,-294 1140,-294 1140,-275 1226,-275 1226,-294"/>
<text text-anchor="middle" x="1183" y="-282" font-family="Helvetica,sans-Serif" font-size="10.00">UI/Widget.hpp</text>
</a>
</g>
</g>
<!-- Node1&#45;&gt;Node36 -->
<g id="edge50_Node000001_Node000036" class="edge">
<title>Node1&#45;&gt;Node36</title>
<g id="a_edge50_Node000001_Node000036"><a xlink:title=" ">
<path fill="none" stroke="#63b8ff" d="M963.93,-329.98C1009.27,-320.78 1081.61,-306.09 1130.65,-296.13"/>
<polygon fill="#63b8ff" stroke="#63b8ff" points="1131.63,-299.5 1140.74,-294.08 1130.24,-292.64 1131.63,-299.5"/>
</a>
</g>
</g>
<!-- Node6 -->
<g id="Node000006" class="node">
<title>Node6</title>
<g id="a_Node000006"><a xlink:href="_registry_8hpp.html" target="_top" xlink:title=" ">
<polygon fill="white" stroke="#666666" points="719,-239 621,-239 621,-220 719,-220 719,-239"/>
<text text-anchor="middle" x="670" y="-227" font-family="Helvetica,sans-Serif" font-size="10.00">ECS/Registry.hpp</text>
</a>
</g>
</g>
<!-- Node5&#45;&gt;Node6 -->
<g id="edge5_Node000005_Node000006" class="edge">
<title>Node5&#45;&gt;Node6</title>
<g id="a_edge5_Node000005_Node000006"><a xlink:title=" ">
<path fill="none" stroke="#63b8ff" d="M670,-274.75C670,-267.8 670,-257.85 670,-249.13"/>
<polygon fill="#63b8ff" stroke="#63b8ff" points="673.5,-249.09 670,-239.09 666.5,-249.09 673.5,-249.09"/>
</a>
</g>
</g>
<!-- Node16 -->
<g id="Node000016" class="node">
<title>Node16</title>
<g id="a_Node000016"><a xlink:title=" ">
<polygon fill="#e0e0e0" stroke="#999999" points="68,-129 0,-129 0,-110 68,-110 68,-129"/>
<text text-anchor="middle" x="34" y="-117" font-family="Helvetica,sans-Serif" font-size="10.00">filesystem</text>
</a>
</g>
</g>
<!-- Node5&#45;&gt;Node16 -->
<g id="edge44_Node000005_Node000016" class="edge">
<title>Node5&#45;&gt;Node16</title>
<g id="a_edge44_Node000005_Node000016"><a xlink:title=" ">
<path fill="none" stroke="#63b8ff" d="M601.09,-282.76C481.82,-280.61 242.34,-272.16 166,-239 113.47,-216.18 67.6,-163.98 46.43,-137.13"/>
<polygon fill="#63b8ff" stroke="#63b8ff" points="49.11,-134.86 40.23,-129.07 43.56,-139.13 49.11,-134.86"/>
</a>
</g>
</g>
<!-- Node6&#45;&gt;Node2 -->
<g id="edge6_Node000006_Node000002" class="edge">
<title>Node6&#45;&gt;Node2</title>
<g id="a_edge6_Node000006_Node000002"><a xlink:title=" ">
<path fill="none" stroke="#63b8ff" d="M620.95,-225.32C542.52,-219.81 383.87,-207 240.27,-184.03"/>
<polygon fill="#63b8ff" stroke="#63b8ff" points="240.82,-180.58 230.39,-182.43 239.7,-187.49 240.82,-180.58"/>
</a>
</g>
</g>
<!-- Node7 -->
<g id="Node000007" class="node">
<title>Node7</title>
<g id="a_Node000007"><a xlink:title=" ">
<polygon fill="#e0e0e0" stroke="#999999" points="189.5,-129 124.5,-129 124.5,-110 189.5,-110 189.5,-129"/>
<text text-anchor="middle" x="157" y="-117" font-family="Helvetica,sans-Serif" font-size="10.00">typeindex</text>
</a>
</g>
</g>
<!-- Node6&#45;&gt;Node7 -->
<g id="edge7_Node000006_Node000007" class="edge">
<title>Node6&#45;&gt;Node7</title>
<g id="a_edge7_Node000006_Node000007"><a xlink:title=" ">
<path fill="none" stroke="#63b8ff" d="M620.86,-220.13C574.13,-211.91 501.98,-198.51 440,-184 409.03,-176.75 401.92,-172.46 371,-165 311.92,-150.74 243,-136.9 199.68,-128.54"/>
<polygon fill="#63b8ff" stroke="#63b8ff" points="200.25,-125.09 189.77,-126.64 198.93,-131.97 200.25,-125.09"/>
</a>
</g>
</g>
<!-- Node8 -->
<g id="Node000008" class="node">
<title>Node8</title>
<g id="a_Node000008"><a xlink:title=" ">
<polygon fill="#e0e0e0" stroke="#999999" points="784,-184 698,-184 698,-165 784,-165 784,-184"/>
<text text-anchor="middle" x="741" y="-172" font-family="Helvetica,sans-Serif" font-size="10.00">unordered_set</text>
</a>
</g>
</g>
<!-- Node6&#45;&gt;Node8 -->
<g id="edge8_Node000006_Node000008" class="edge">
<title>Node6&#45;&gt;Node8</title>
<g id="a_edge8_Node000006_Node000008"><a xlink:title=" ">
<path fill="none" stroke="#63b8ff" d="M681.41,-219.98C692.11,-212 708.34,-199.88 721.16,-190.31"/>
<polygon fill="#63b8ff" stroke="#63b8ff" points="723.47,-192.96 729.39,-184.17 719.28,-187.35 723.47,-192.96"/>
</a>
</g>
</g>
<!-- Node9 -->
<g id="Node000009" class="node">
<title>Node9</title>
<g id="a_Node000009"><a xlink:href="_assert_8hpp.html" target="_top" xlink:title=" ">
<polygon fill="white" stroke="#666666" points="1332,-129 1216,-129 1216,-110 1332,-110 1332,-129"/>
<text text-anchor="middle" x="1274" y="-117" font-family="Helvetica,sans-Serif" font-size="10.00">Common/Assert.hpp</text>
</a>
</g>
</g>
<!-- Node6&#45;&gt;Node9 -->
<g id="edge9_Node000006_Node000009" class="edge">
<title>Node6&#45;&gt;Node9</title>
<g id="a_edge9_Node000006_Node000009"><a xlink:title=" ">
<path fill="none" stroke="#63b8ff" d="M719.08,-226.67C859.5,-221.19 1254.07,-204.06 1273,-184 1284.1,-172.24 1282.81,-153.12 1279.68,-138.93"/>
<polygon fill="#63b8ff" stroke="#63b8ff" points="1283.06,-138.01 1277.11,-129.24 1276.3,-139.81 1283.06,-138.01"/>
</a>
</g>
</g>
<!-- Node13 -->
<g id="Node000013" class="node">
<title>Node13</title>
<g id="a_Node000013"><a xlink:href="_logger_8hpp.html" target="_top" xlink:title=" ">
<polygon fill="white" stroke="#666666" points="919.5,-184 802.5,-184 802.5,-165 919.5,-165 919.5,-184"/>
<text text-anchor="middle" x="861" y="-172" font-family="Helvetica,sans-Serif" font-size="10.00">Common/Logger.hpp</text>
</a>
</g>
</g>
<!-- Node6&#45;&gt;Node13 -->
<g id="edge13_Node000006_Node000013" class="edge">
<title>Node6&#45;&gt;Node13</title>
<g id="a_edge13_Node000006_Node000013"><a xlink:title=" ">
<path fill="none" stroke="#63b8ff" d="M700.69,-219.98C733.17,-210.97 784.6,-196.7 820.41,-186.76"/>
<polygon fill="#63b8ff" stroke="#63b8ff" points="821.37,-190.13 830.07,-184.08 819.5,-183.38 821.37,-190.13"/>
</a>
</g>
</g>
<!-- Node15 -->
<g id="Node000015" class="node">
<title>Node15</title>
<g id="a_Node000015"><a xlink:href="_types_8hpp.html" target="_top" xlink:title=" ">
<polygon fill="white" stroke="#666666" points="361.5,-184 248.5,-184 248.5,-165 361.5,-165 361.5,-184"/>
<text text-anchor="middle" x="305" y="-172" font-family="Helvetica,sans-Serif" font-size="10.00">Common/Types.hpp</text>
</a>
</g>
</g>
<!-- Node6&#45;&gt;Node15 -->
<g id="edge16_Node000006_Node000015" class="edge">
<title>Node6&#45;&gt;Node15</title>
<g id="a_edge16_Node000006_Node000015"><a xlink:title=" ">
<path fill="none" stroke="#63b8ff" d="M620.77,-221.35C556.51,-212.02 443.77,-195.65 371.82,-185.2"/>
<polygon fill="#63b8ff" stroke="#63b8ff" points="371.92,-181.68 361.52,-183.71 370.91,-188.61 371.92,-181.68"/>
</a>
</g>
</g>
<!-- Node18 -->
<g id="Node000018" class="node">
<title>Node18</title>
<g id="a_Node000018"><a xlink:href="_entity_8hpp.html" target="_top" xlink:title=" ">
<polygon fill="white" stroke="#666666" points="767,-74 681,-74 681,-55 767,-55 767,-74"/>
<text text-anchor="middle" x="724" y="-62" font-family="Helvetica,sans-Serif" font-size="10.00">ECS/Entity.hpp</text>
</a>
</g>
</g>
<!-- Node6&#45;&gt;Node18 -->
<g id="edge20_Node000006_Node000018" class="edge">
<title>Node6&#45;&gt;Node18</title>
<g id="a_edge20_Node000006_Node000018"><a xlink:title=" ">
<path fill="none" stroke="#63b8ff" d="M669.26,-219.69C668.47,-207.27 667.94,-183.98 673,-165 677.46,-148.27 700.47,-106.53 714.02,-82.77"/>
<polygon fill="#63b8ff" stroke="#63b8ff" points="717.06,-84.5 719,-74.08 710.99,-81.01 717.06,-84.5"/>
</a>
</g>
</g>
<!-- Node20 -->
<g id="Node000020" class="node">
<title>Node20</title>
<g id="a_Node000020"><a xlink:href="_entity_hierarchy_8hpp.html" target="_top" xlink:title=" ">
<polygon fill="white" stroke="#666666" points="583,-184 449,-184 449,-165 583,-165 583,-184"/>
<text text-anchor="middle" x="516" y="-172" font-family="Helvetica,sans-Serif" font-size="10.00">ECS/EntityHierarchy.hpp</text>
</a>
</g>
</g>
<!-- Node6&#45;&gt;Node20 -->
<g id="edge22_Node000006_Node000020" class="edge">
<title>Node6&#45;&gt;Node20</title>
<g id="a_edge22_Node000006_Node000020"><a xlink:title=" ">
<path fill="none" stroke="#63b8ff" d="M645.26,-219.98C619.63,-211.16 579.37,-197.31 550.59,-187.41"/>
<polygon fill="#63b8ff" stroke="#63b8ff" points="551.53,-184.03 540.94,-184.08 549.25,-190.65 551.53,-184.03"/>
</a>
</g>
</g>
<!-- Node27 -->
<g id="Node000027" class="node">
<title>Node27</title>
<g id="a_Node000027"><a xlink:href="_entity_provider_8hpp.html" target="_top" xlink:title="Manages a pool of unused entity identifiers and provides mechanisms for requesting and removing them.">
<polygon fill="white" stroke="#666666" points="875,-129 747,-129 747,-110 875,-110 875,-129"/>
<text text-anchor="middle" x="811" y="-117" font-family="Helvetica,sans-Serif" font-size="10.00">ECS/EntityProvider.hpp</text>
</a>
</g>
</g>
<!-- Node6&#45;&gt;Node27 -->
<g id="edge33_Node000006_Node000027" class="edge">
<title>Node6&#45;&gt;Node27</title>
<g id="a_edge33_Node000006_Node000027"><a xlink:title=" ">
<path fill="none" stroke="#63b8ff" d="M670.22,-219.91C671.02,-206.47 674.48,-180.41 689,-165 704.29,-148.78 725.96,-138.46 746.8,-131.89"/>
<polygon fill="#63b8ff" stroke="#63b8ff" points="747.99,-135.19 756.61,-129.04 746.04,-128.46 747.99,-135.19"/>
</a>
</g>
</g>
<!-- Node28 -->
<g id="Node000028" class="node">
<title>Node28</title>
<g id="a_Node000028"><a xlink:href="_singleton_component_8hpp.html" target="_top" xlink:title=" ">
<polygon fill="white" stroke="#666666" points="1263.5,-184 1102.5,-184 1102.5,-165 1263.5,-165 1263.5,-184"/>
<text text-anchor="middle" x="1183" y="-172" font-family="Helvetica,sans-Serif" font-size="10.00">ECS/SingletonComponent.hpp</text>
</a>
</g>
</g>
<!-- Node6&#45;&gt;Node28 -->
<g id="edge37_Node000006_Node000028" class="edge">
<title>Node6&#45;&gt;Node28</title>
<g id="a_edge37_Node000006_Node000028"><a xlink:title=" ">
<path fill="none" stroke="#63b8ff" d="M719.19,-223.42C805.03,-214.55 983.41,-196.12 1092.22,-184.88"/>
<polygon fill="#63b8ff" stroke="#63b8ff" points="1092.62,-188.36 1102.2,-183.85 1091.9,-181.39 1092.62,-188.36"/>
</a>
</g>
</g>
<!-- Node30 -->
<g id="Node000030" class="node">
<title>Node30</title>
<g id="a_Node000030"><a xlink:href="_sparse_set_8hpp.html" target="_top" xlink:title=" ">
<polygon fill="white" stroke="#666666" points="1084,-184 976,-184 976,-165 1084,-165 1084,-184"/>
<text text-anchor="middle" x="1030" y="-172" font-family="Helvetica,sans-Serif" font-size="10.00">ECS/SparseSet.hpp</text>
</a>
</g>
</g>
<!-- Node6&#45;&gt;Node30 -->
<g id="edge39_Node000006_Node000030" class="edge">
<title>Node6&#45;&gt;Node30</title>
<g id="a_edge39_Node000006_Node000030"><a xlink:title=" ">
<path fill="none" stroke="#63b8ff" d="M719.3,-221.24C783.27,-211.82 895,-195.37 965.61,-184.98"/>
<polygon fill="#63b8ff" stroke="#63b8ff" points="966.33,-188.41 975.72,-183.49 965.31,-181.49 966.33,-188.41"/>
</a>
</g>
</g>
<!-- Node10 -->
<g id="Node000010" class="node">
<title>Node10</title>
<g id="a_Node000010"><a xlink:title=" ">
<polygon fill="#e0e0e0" stroke="#999999" points="1223.5,-74 1156.5,-74 1156.5,-55 1223.5,-55 1223.5,-74"/>
<text text-anchor="middle" x="1190" y="-62" font-family="Helvetica,sans-Serif" font-size="10.00">fmt/core.h</text>
</a>
</g>
</g>
<!-- Node9&#45;&gt;Node10 -->
<g id="edge10_Node000009_Node000010" class="edge">
<title>Node9&#45;&gt;Node10</title>
<g id="a_edge10_Node000009_Node000010"><a xlink:title=" ">
<path fill="none" stroke="#63b8ff" d="M1260.5,-109.98C1247.6,-101.84 1227.9,-89.41 1212.6,-79.76"/>
<polygon fill="#63b8ff" stroke="#63b8ff" points="1214.07,-76.55 1203.74,-74.17 1210.33,-82.47 1214.07,-76.55"/>
</a>
</g>
</g>
<!-- Node11 -->
<g id="Node000011" class="node">
<title>Node11</title>
<g id="a_Node000011"><a xlink:title=" ">
<polygon fill="#e0e0e0" stroke="#999999" points="1306.5,-74 1241.5,-74 1241.5,-55 1306.5,-55 1306.5,-74"/>
<text text-anchor="middle" x="1274" y="-62" font-family="Helvetica,sans-Serif" font-size="10.00">exception</text>
</a>
</g>
</g>
<!-- Node9&#45;&gt;Node11 -->
<g id="edge11_Node000009_Node000011" class="edge">
<title>Node9&#45;&gt;Node11</title>
<g id="a_edge11_Node000009_Node000011"><a xlink:title=" ">
<path fill="none" stroke="#63b8ff" d="M1274,-109.75C1274,-102.8 1274,-92.85 1274,-84.13"/>
<polygon fill="#63b8ff" stroke="#63b8ff" points="1277.5,-84.09 1274,-74.09 1270.5,-84.09 1277.5,-84.09"/>
</a>
</g>
</g>
<!-- Node12 -->
<g id="Node000012" class="node">
<title>Node12</title>
<g id="a_Node000012"><a xlink:title=" ">
<polygon fill="#e0e0e0" stroke="#999999" points="1385,-74 1325,-74 1325,-55 1385,-55 1385,-74"/>
<text text-anchor="middle" x="1355" y="-62" font-family="Helvetica,sans-Serif" font-size="10.00">iostream</text>
</a>
</g>
</g>
<!-- Node9&#45;&gt;Node12 -->
<g id="edge12_Node000009_Node000012" class="edge">
<title>Node9&#45;&gt;Node12</title>
<g id="a_edge12_Node000009_Node000012"><a xlink:title=" ">
<path fill="none" stroke="#63b8ff" d="M1287.01,-109.98C1299.46,-101.84 1318.46,-89.41 1333.21,-79.76"/>
<polygon fill="#63b8ff" stroke="#63b8ff" points="1335.3,-82.57 1341.75,-74.17 1331.46,-76.72 1335.3,-82.57"/>
</a>
</g>
</g>
<!-- Node13&#45;&gt;Node3 -->
<g id="edge14_Node000013_Node000003" class="edge">
<title>Node13&#45;&gt;Node3</title>
<g id="a_edge14_Node000013_Node000003"><a xlink:title=" ">
<path fill="none" stroke="#63b8ff" d="M876.1,-164.98C890.82,-156.69 913.42,-143.94 930.67,-134.22"/>
<polygon fill="#63b8ff" stroke="#63b8ff" points="932.63,-137.13 939.62,-129.17 929.19,-131.03 932.63,-137.13"/>
</a>
</g>
</g>
<!-- Node14 -->
<g id="Node000014" class="node">
<title>Node14</title>
<g id="a_Node000014"><a xlink:title=" ">
<polygon fill="#e0e0e0" stroke="#999999" points="910.5,-74 863.5,-74 863.5,-55 910.5,-55 910.5,-74"/>
<text text-anchor="middle" x="887" y="-62" font-family="Helvetica,sans-Serif" font-size="10.00">queue</text>
</a>
</g>
</g>
<!-- Node13&#45;&gt;Node14 -->
<g id="edge15_Node000013_Node000014" class="edge">
<title>Node13&#45;&gt;Node14</title>
<g id="a_edge15_Node000013_Node000014"><a xlink:title=" ">
<path fill="none" stroke="#63b8ff" d="M866.97,-164.76C872.51,-156.11 880.44,-142.27 884,-129 887.9,-114.47 888.5,-97.42 888.2,-84.64"/>
<polygon fill="#63b8ff" stroke="#63b8ff" points="891.68,-84.15 887.75,-74.31 884.69,-84.45 891.68,-84.15"/>
</a>
</g>
</g>
<!-- Node15&#45;&gt;Node7 -->
<g id="edge19_Node000015_Node000007" class="edge">
<title>Node15&#45;&gt;Node7</title>
<g id="a_edge19_Node000015_Node000007"><a xlink:title=" ">
<path fill="none" stroke="#63b8ff" d="M281.22,-164.98C256.77,-156.23 218.47,-142.51 190.85,-132.62"/>
<polygon fill="#63b8ff" stroke="#63b8ff" points="191.81,-129.25 181.21,-129.17 189.45,-135.84 191.81,-129.25"/>
</a>
</g>
</g>
<!-- Node15&#45;&gt;Node16 -->
<g id="edge17_Node000015_Node000016" class="edge">
<title>Node15&#45;&gt;Node16</title>
<g id="a_edge17_Node000015_Node000016"><a xlink:title=" ">
<path fill="none" stroke="#63b8ff" d="M261.46,-164.98C211.21,-155.16 129.01,-139.08 78.4,-129.18"/>
<polygon fill="#63b8ff" stroke="#63b8ff" points="78.89,-125.71 68.41,-127.23 77.55,-132.58 78.89,-125.71"/>
</a>
</g>
</g>
<!-- Node17 -->
<g id="Node000017" class="node">
<title>Node17</title>
<g id="a_Node000017"><a xlink:title=" ">
<polygon fill="#e0e0e0" stroke="#999999" points="234,-19 202,-19 202,0 234,0 234,-19"/>
<text text-anchor="middle" x="218" y="-7" font-family="Helvetica,sans-Serif" font-size="10.00">set</text>
</a>
</g>
</g>
<!-- Node15&#45;&gt;Node17 -->
<g id="edge18_Node000015_Node000017" class="edge">
<title>Node15&#45;&gt;Node17</title>
<g id="a_edge18_Node000015_Node000017"><a xlink:title=" ">
<path fill="none" stroke="#63b8ff" d="M254.3,-164.95C201.03,-155.46 123.73,-140.02 115,-129 83.25,-88.96 153.24,-44.01 192.98,-22.82"/>
<polygon fill="#63b8ff" stroke="#63b8ff" points="194.63,-25.91 201.89,-18.2 191.4,-19.7 194.63,-25.91"/>
</a>
</g>
</g>
<!-- Node19 -->
<g id="Node000019" class="node">
<title>Node19</title>
<g id="a_Node000019"><a xlink:title=" ">
<polygon fill="#e0e0e0" stroke="#999999" points="790.5,-19 737.5,-19 737.5,0 790.5,0 790.5,-19"/>
<text text-anchor="middle" x="764" y="-7" font-family="Helvetica,sans-Serif" font-size="10.00">stdlib.h</text>
</a>
</g>
</g>
<!-- Node18&#45;&gt;Node19 -->
<g id="edge21_Node000018_Node000019" class="edge">
<title>Node18&#45;&gt;Node19</title>
<g id="a_edge21_Node000018_Node000019"><a xlink:title=" ">
<path fill="none" stroke="#63b8ff" d="M730.61,-54.75C736.26,-47.26 744.54,-36.28 751.45,-27.13"/>
<polygon fill="#63b8ff" stroke="#63b8ff" points="754.29,-29.18 757.52,-19.09 748.7,-24.96 754.29,-29.18"/>
</a>
</g>
</g>
<!-- Node20&#45;&gt;Node17 -->
<g id="edge26_Node000020_Node000017" class="edge">
<title>Node20&#45;&gt;Node17</title>
<g id="a_edge26_Node000020_Node000017"><a xlink:title=" ">
<path fill="none" stroke="#63b8ff" d="M448.94,-168.05C385.36,-161.74 295.46,-149.5 267,-129 234.44,-105.55 223.44,-56.37 219.78,-29.33"/>
<polygon fill="#63b8ff" stroke="#63b8ff" points="223.24,-28.76 218.62,-19.23 216.28,-29.56 223.24,-28.76"/>
</a>
</g>
</g>
<!-- Node20&#45;&gt;Node18 -->
<g id="edge30_Node000020_Node000018" class="edge">
<title>Node20&#45;&gt;Node18</title>
<g id="a_edge30_Node000020_Node000018"><a xlink:title=" ">
<path fill="none" stroke="#63b8ff" d="M565.22,-164.94C594.81,-158.27 632.34,-147.04 662,-129 682.06,-116.8 700.2,-96.62 711.61,-82.29"/>
<polygon fill="#63b8ff" stroke="#63b8ff" points="714.47,-84.31 717.79,-74.25 708.92,-80.04 714.47,-84.31"/>
</a>
</g>
</g>
<!-- Node21 -->
<g id="Node000021" class="node">
<title>Node21</title>
<g id="a_Node000021"><a xlink:title=" ">
<polygon fill="#e0e0e0" stroke="#999999" points="528.5,-129 463.5,-129 463.5,-110 528.5,-110 528.5,-129"/>
<text text-anchor="middle" x="496" y="-117" font-family="Helvetica,sans-Serif" font-size="10.00">functional</text>
</a>
</g>
</g>
<!-- Node20&#45;&gt;Node21 -->
<g id="edge23_Node000020_Node000021" class="edge">
<title>Node20&#45;&gt;Node21</title>
<g id="a_edge23_Node000020_Node000021"><a xlink:title=" ">
<path fill="none" stroke="#63b8ff" d="M512.7,-164.75C510.02,-157.65 506.15,-147.4 502.81,-138.56"/>
<polygon fill="#63b8ff" stroke="#63b8ff" points="506.05,-137.21 499.24,-129.09 499.5,-139.68 506.05,-137.21"/>
</a>
</g>
</g>
<!-- Node22 -->
<g id="Node000022" class="node">
<title>Node22</title>
<g id="a_Node000022"><a xlink:title=" ">
<polygon fill="#e0e0e0" stroke="#999999" points="585,-129 547,-129 547,-110 585,-110 585,-129"/>
<text text-anchor="middle" x="566" y="-117" font-family="Helvetica,sans-Serif" font-size="10.00">map</text>
</a>
</g>
</g>
<!-- Node20&#45;&gt;Node22 -->
<g id="edge24_Node000020_Node000022" class="edge">
<title>Node20&#45;&gt;Node22</title>
<g id="a_edge24_Node000020_Node000022"><a xlink:title=" ">
<path fill="none" stroke="#63b8ff" d="M524.26,-164.75C531.46,-157.11 542.11,-145.82 550.85,-136.56"/>
<polygon fill="#63b8ff" stroke="#63b8ff" points="553.58,-138.76 557.9,-129.09 548.49,-133.96 553.58,-138.76"/>
</a>
</g>
</g>
<!-- Node23 -->
<g id="Node000023" class="node">
<title>Node23</title>
<g id="a_Node000023"><a xlink:title=" ">
<polygon fill="#e0e0e0" stroke="#999999" points="653,-129 603,-129 603,-110 653,-110 653,-129"/>
<text text-anchor="middle" x="628" y="-117" font-family="Helvetica,sans-Serif" font-size="10.00">ranges</text>
</a>
</g>
</g>
<!-- Node20&#45;&gt;Node23 -->
<g id="edge25_Node000020_Node000023" class="edge">
<title>Node20&#45;&gt;Node23</title>
<g id="a_edge25_Node000020_Node000023"><a xlink:title=" ">
<path fill="none" stroke="#63b8ff" d="M533.99,-164.98C551.93,-156.5 579.72,-143.35 600.43,-133.54"/>
<polygon fill="#63b8ff" stroke="#63b8ff" points="602.14,-136.61 609.68,-129.17 599.14,-130.28 602.14,-136.61"/>
</a>
</g>
</g>
<!-- Node24 -->
<g id="Node000024" class="node">
<title>Node24</title>
<g id="a_Node000024"><a xlink:href="_type_info_8hpp.html" target="_top" xlink:title=" ">
<polygon fill="white" stroke="#666666" points="372,-74 246,-74 246,-55 372,-55 372,-74"/>
<text text-anchor="middle" x="309" y="-62" font-family="Helvetica,sans-Serif" font-size="10.00">Common/TypeInfo.hpp</text>
</a>
</g>
</g>
<!-- Node20&#45;&gt;Node24 -->
<g id="edge27_Node000020_Node000024" class="edge">
<title>Node20&#45;&gt;Node24</title>
<g id="a_edge27_Node000020_Node000024"><a xlink:title=" ">
<path fill="none" stroke="#63b8ff" d="M448.98,-165.49C381.9,-156.78 287.08,-142.32 276,-129 264.05,-114.63 277.55,-95.21 290.71,-81.65"/>
<polygon fill="#63b8ff" stroke="#63b8ff" points="293.44,-83.88 298.22,-74.42 288.59,-78.83 293.44,-83.88"/>
</a>
</g>
</g>
<!-- Node26 -->
<g id="Node000026" class="node">
<title>Node26</title>
<g id="a_Node000026"><a xlink:href="_requirements_8hpp.html" target="_top" xlink:title=" ">
<polygon fill="white" stroke="#666666" points="445.5,-129 284.5,-129 284.5,-110 445.5,-110 445.5,-129"/>
<text text-anchor="middle" x="365" y="-117" font-family="Helvetica,sans-Serif" font-size="10.00">JobSystem/Requirements.hpp</text>
</a>
</g>
</g>
<!-- Node20&#45;&gt;Node26 -->
<g id="edge31_Node000020_Node000026" class="edge">
<title>Node20&#45;&gt;Node26</title>
<g id="a_edge31_Node000020_Node000026"><a xlink:title=" ">
<path fill="none" stroke="#63b8ff" d="M491.74,-164.98C466.68,-156.19 427.37,-142.39 399.17,-132.49"/>
<polygon fill="#63b8ff" stroke="#63b8ff" points="400.3,-129.18 389.7,-129.17 397.98,-135.78 400.3,-129.18"/>
</a>
</g>
</g>
<!-- Node24&#45;&gt;Node17 -->
<g id="edge28_Node000024_Node000017" class="edge">
<title>Node24&#45;&gt;Node17</title>
<g id="a_edge28_Node000024_Node000017"><a xlink:title=" ">
<path fill="none" stroke="#63b8ff" d="M294.38,-54.98C280.14,-46.69 258.25,-33.94 241.55,-24.22"/>
<polygon fill="#63b8ff" stroke="#63b8ff" points="243.29,-21.18 232.89,-19.17 239.77,-27.23 243.29,-21.18"/>
</a>
</g>
</g>
<!-- Node25 -->
<g id="Node000025" class="node">
<title>Node25</title>
<g id="a_Node000025"><a xlink:title=" ">
<polygon fill="#e0e0e0" stroke="#999999" points="345.5,-19 272.5,-19 272.5,0 345.5,0 345.5,-19"/>
<text text-anchor="middle" x="309" y="-7" font-family="Helvetica,sans-Serif" font-size="10.00">string_view</text>
</a>
</g>
</g>
<!-- Node24&#45;&gt;Node25 -->
<g id="edge29_Node000024_Node000025" class="edge">
<title>Node24&#45;&gt;Node25</title>
<g id="a_edge29_Node000024_Node000025"><a xlink:title=" ">
<path fill="none" stroke="#63b8ff" d="M309,-54.75C309,-47.8 309,-37.85 309,-29.13"/>
<polygon fill="#63b8ff" stroke="#63b8ff" points="312.5,-29.09 309,-19.09 305.5,-29.09 312.5,-29.09"/>
</a>
</g>
</g>
<!-- Node26&#45;&gt;Node24 -->
<g id="edge32_Node000026_Node000024" class="edge">
<title>Node26&#45;&gt;Node24</title>
<g id="a_edge32_Node000026_Node000024"><a xlink:title=" ">
<path fill="none" stroke="#63b8ff" d="M356,-109.98C347.81,-102.23 335.49,-90.58 325.53,-81.14"/>
<polygon fill="#63b8ff" stroke="#63b8ff" points="327.83,-78.5 318.16,-74.17 323.02,-83.59 327.83,-78.5"/>
</a>
</g>
</g>
<!-- Node27&#45;&gt;Node14 -->
<g id="edge35_Node000027_Node000014" class="edge">
<title>Node27&#45;&gt;Node14</title>
<g id="a_edge35_Node000027_Node000014"><a xlink:title=" ">
<path fill="none" stroke="#63b8ff" d="M823.21,-109.98C834.78,-101.92 852.38,-89.65 866.16,-80.03"/>
<polygon fill="#63b8ff" stroke="#63b8ff" points="868.37,-82.76 874.57,-74.17 864.36,-77.02 868.37,-82.76"/>
</a>
</g>
</g>
<!-- Node27&#45;&gt;Node18 -->
<g id="edge36_Node000027_Node000018" class="edge">
<title>Node27&#45;&gt;Node18</title>
<g id="a_edge36_Node000027_Node000018"><a xlink:title=" ">
<path fill="none" stroke="#63b8ff" d="M797.02,-109.98C783.53,-101.77 762.87,-89.18 746.96,-79.49"/>
<polygon fill="#63b8ff" stroke="#63b8ff" points="748.59,-76.38 738.23,-74.17 744.95,-82.36 748.59,-76.38"/>
</a>
</g>
</g>
<!-- Node27&#45;&gt;Node19 -->
<g id="edge34_Node000027_Node000019" class="edge">
<title>Node27&#45;&gt;Node19</title>
<g id="a_edge34_Node000027_Node000019"><a xlink:title=" ">
<path fill="none" stroke="#63b8ff" d="M807.15,-109.66C799.47,-92.01 782.1,-52.09 771.89,-28.64"/>
<polygon fill="#63b8ff" stroke="#63b8ff" points="774.97,-26.93 767.77,-19.16 768.55,-29.72 774.97,-26.93"/>
</a>
</g>
</g>
<!-- Node29 -->
<g id="Node000029" class="node">
<title>Node29</title>
<g id="a_Node000029"><a xlink:title=" ">
<polygon fill="#e0e0e0" stroke="#999999" points="1161.5,-129 1092.5,-129 1092.5,-110 1161.5,-110 1161.5,-129"/>
<text text-anchor="middle" x="1127" y="-117" font-family="Helvetica,sans-Serif" font-size="10.00">type_traits</text>
</a>
</g>
</g>
<!-- Node28&#45;&gt;Node29 -->
<g id="edge38_Node000028_Node000029" class="edge">
<title>Node28&#45;&gt;Node29</title>
<g id="a_edge38_Node000028_Node000029"><a xlink:title=" ">
<path fill="none" stroke="#63b8ff" d="M1174,-164.98C1165.81,-157.23 1153.49,-145.58 1143.53,-136.14"/>
<polygon fill="#63b8ff" stroke="#63b8ff" points="1145.83,-133.5 1136.16,-129.17 1141.02,-138.59 1145.83,-133.5"/>
</a>
</g>
</g>
<!-- Node30&#45;&gt;Node9 -->
<g id="edge40_Node000030_Node000009" class="edge">
<title>Node30&#45;&gt;Node9</title>
<g id="a_edge40_Node000030_Node000009"><a xlink:title=" ">
<path fill="none" stroke="#63b8ff" d="M1069.2,-164.98C1111.41,-155.82 1178.65,-141.21 1224.48,-131.26"/>
<polygon fill="#63b8ff" stroke="#63b8ff" points="1225.46,-134.63 1234.49,-129.08 1223.97,-127.78 1225.46,-134.63"/>
</a>
</g>
</g>
<!-- Node30&#45;&gt;Node27 -->
<g id="edge41_Node000030_Node000027" class="edge">
<title>Node30&#45;&gt;Node27</title>
<g id="a_edge41_Node000030_Node000027"><a xlink:title=" ">
<path fill="none" stroke="#63b8ff" d="M994.81,-164.98C957.17,-155.87 897.34,-141.4 856.23,-131.45"/>
<polygon fill="#63b8ff" stroke="#63b8ff" points="857,-128.03 846.46,-129.08 855.36,-134.84 857,-128.03"/>
</a>
</g>
</g>
<!-- Node30&#45;&gt;Node29 -->
<g id="edge43_Node000030_Node000029" class="edge">
<title>Node30&#45;&gt;Node29</title>
<g id="a_edge43_Node000030_Node000029"><a xlink:title=" ">
<path fill="none" stroke="#63b8ff" d="M1045.58,-164.98C1060.77,-156.69 1084.1,-143.94 1101.9,-134.22"/>
<polygon fill="#63b8ff" stroke="#63b8ff" points="1104.03,-137.04 1111.13,-129.17 1100.68,-130.89 1104.03,-137.04"/>
</a>
</g>
</g>
<!-- Node31 -->
<g id="Node000031" class="node">
<title>Node31</title>
<g id="a_Node000031"><a xlink:title=" ">
<polygon fill="#e0e0e0" stroke="#999999" points="1056.5,-129 1003.5,-129 1003.5,-110 1056.5,-110 1056.5,-129"/>
<text text-anchor="middle" x="1030" y="-117" font-family="Helvetica,sans-Serif" font-size="10.00">cstddef</text>
</a>
</g>
</g>
<!-- Node30&#45;&gt;Node31 -->
<g id="edge42_Node000030_Node000031" class="edge">
<title>Node30&#45;&gt;Node31</title>
<g id="a_edge42_Node000030_Node000031"><a xlink:title=" ">
<path fill="none" stroke="#63b8ff" d="M1030,-164.75C1030,-157.8 1030,-147.85 1030,-139.13"/>
<polygon fill="#63b8ff" stroke="#63b8ff" points="1033.5,-139.09 1030,-129.09 1026.5,-139.09 1033.5,-139.09"/>
</a>
</g>
</g>
<!-- Node33 -->
<g id="Node000033" class="node">
<title>Node33</title>
<g id="a_Node000033"><a xlink:title=" ">
<polygon fill="#e0e0e0" stroke="#999999" points="1160.5,-239 1089.5,-239 1089.5,-220 1160.5,-220 1160.5,-239"/>
<text text-anchor="middle" x="1125" y="-227" font-family="Helvetica,sans-Serif" font-size="10.00">glad/glad.h</text>
</a>
</g>
</g>
<!-- Node32&#45;&gt;Node33 -->
<g id="edge46_Node000032_Node000033" class="edge">
<title>Node32&#45;&gt;Node33</title>
<g id="a_edge46_Node000032_Node000033"><a xlink:title=" ">
<path fill="none" stroke="#63b8ff" d="M1061.21,-274.98C1072.78,-266.92 1090.38,-254.65 1104.16,-245.03"/>
<polygon fill="#63b8ff" stroke="#63b8ff" points="1106.37,-247.76 1112.57,-239.17 1102.36,-242.02 1106.37,-247.76"/>
</a>
</g>
</g>
<!-- Node34 -->
<g id="Node000034" class="node">
<title>Node34</title>
<g id="a_Node000034"><a xlink:href="_image_8hpp.html" target="_top" xlink:title=" ">
<polygon fill="white" stroke="#666666" points="316.5,-239 175.5,-239 175.5,-220 316.5,-220 316.5,-239"/>
<text text-anchor="middle" x="246" y="-227" font-family="Helvetica,sans-Serif" font-size="10.00">AssetManager/Image.hpp</text>
</a>
</g>
</g>
<!-- Node32&#45;&gt;Node34 -->
<g id="edge47_Node000032_Node000034" class="edge">
<title>Node32&#45;&gt;Node34</title>
<g id="a_edge47_Node000032_Node000034"><a xlink:title=" ">
<path fill="none" stroke="#63b8ff" d="M975.71,-278.24C960.28,-277.15 944.11,-276.03 929,-275 711.42,-260.21 454.77,-243.75 326.9,-235.62"/>
<polygon fill="#63b8ff" stroke="#63b8ff" points="327,-232.12 316.8,-234.98 326.56,-239.11 327,-232.12"/>
</a>
</g>
</g>
<!-- Node35 -->
<g id="Node000035" class="node">
<title>Node35</title>
<g id="a_Node000035"><a xlink:title=" ">
<polygon fill="#e0e0e0" stroke="#999999" points="1071,-239 993,-239 993,-220 1071,-220 1071,-239"/>
<text text-anchor="middle" x="1032" y="-227" font-family="Helvetica,sans-Serif" font-size="10.00">glm/glm.hpp</text>
</a>
</g>
</g>
<!-- Node32&#45;&gt;Node35 -->
<g id="edge49_Node000032_Node000035" class="edge">
<title>Node32&#45;&gt;Node35</title>
<g id="a_edge49_Node000032_Node000035"><a xlink:title=" ">
<path fill="none" stroke="#63b8ff" d="M1046.19,-274.75C1043.94,-267.72 1040.7,-257.62 1037.88,-248.84"/>
<polygon fill="#63b8ff" stroke="#63b8ff" points="1041.14,-247.54 1034.75,-239.09 1034.48,-249.68 1041.14,-247.54"/>
</a>
</g>
</g>
<!-- Node34&#45;&gt;Node16 -->
<g id="edge48_Node000034_Node000016" class="edge">
<title>Node34&#45;&gt;Node16</title>
<g id="a_edge48_Node000034_Node000016"><a xlink:title=" ">
<path fill="none" stroke="#63b8ff" d="M229.01,-219.84C191.94,-200.96 103.6,-155.96 59.69,-133.59"/>
<polygon fill="#63b8ff" stroke="#63b8ff" points="61.28,-130.47 50.78,-129.05 58.1,-136.7 61.28,-130.47"/>
</a>
</g>
</g>
</g>
</svg>
