<?xml version="1.0" encoding="UTF-8" standalone="no"?>
<!DOCTYPE svg PUBLIC "-//W3C//DTD SVG 1.1//EN"
 "http://www.w3.org/Graphics/SVG/1.1/DTD/svg11.dtd">
<!-- Generated by graphviz version 2.43.0 (0)
 -->
<!-- Title: src/Rendering/CubeMap.hpp Pages: 1 -->
<svg width="784pt" height="478pt"
 viewBox="0.00 0.00 784.00 478.00" xmlns="http://www.w3.org/2000/svg" xmlns:xlink="http://www.w3.org/1999/xlink">
<g id="graph0" class="graph" transform="scale(1 1) rotate(0) translate(4 474)">
<title>src/Rendering/CubeMap.hpp</title>
<!-- Node1 -->
<g id="Node000001" class="node">
<title>Node1</title>
<g id="a_Node000001"><a xlink:title=" ">
<polygon fill="#999999" stroke="#666666" points="220,-470 67,-470 67,-451 220,-451 220,-470"/>
<text text-anchor="middle" x="143.5" y="-458" font-family="Helvetica,sans-Serif" font-size="10.00">src/Rendering/CubeMap.hpp</text>
</a>
</g>
</g>
<!-- Node2 -->
<g id="Node000002" class="node">
<title>Node2</title>
<g id="a_Node000002"><a xlink:title=" ">
<polygon fill="#e0e0e0" stroke="#999999" points="71,-415 0,-415 0,-396 71,-396 71,-415"/>
<text text-anchor="middle" x="35.5" y="-403" font-family="Helvetica,sans-Serif" font-size="10.00">glad/glad.h</text>
</a>
</g>
</g>
<!-- Node1&#45;&gt;Node2 -->
<g id="edge1_Node000001_Node000002" class="edge">
<title>Node1&#45;&gt;Node2</title>
<g id="a_edge1_Node000001_Node000002"><a xlink:title=" ">
<path fill="none" stroke="#63b8ff" d="M126.15,-450.98C108.93,-442.54 82.3,-429.47 62.35,-419.68"/>
<polygon fill="#63b8ff" stroke="#63b8ff" points="63.69,-416.43 53.17,-415.17 60.6,-422.72 63.69,-416.43"/>
</a>
</g>
</g>
<!-- Node3 -->
<g id="Node000003" class="node">
<title>Node3</title>
<g id="a_Node000003"><a xlink:title=" ">
<polygon fill="#e0e0e0" stroke="#999999" points="133.5,-415 89.5,-415 89.5,-396 133.5,-396 133.5,-415"/>
<text text-anchor="middle" x="111.5" y="-403" font-family="Helvetica,sans-Serif" font-size="10.00">string</text>
</a>
</g>
</g>
<!-- Node1&#45;&gt;Node3 -->
<g id="edge2_Node000001_Node000003" class="edge">
<title>Node1&#45;&gt;Node3</title>
<g id="a_edge2_Node000001_Node000003"><a xlink:title=" ">
<path fill="none" stroke="#63b8ff" d="M138.22,-450.75C133.79,-443.42 127.34,-432.73 121.88,-423.7"/>
<polygon fill="#63b8ff" stroke="#63b8ff" points="124.85,-421.84 116.69,-415.09 118.86,-425.46 124.85,-421.84"/>
</a>
</g>
</g>
<!-- Node4 -->
<g id="Node000004" class="node">
<title>Node4</title>
<g id="a_Node000004"><a xlink:title=" ">
<polygon fill="#e0e0e0" stroke="#999999" points="199,-415 152,-415 152,-396 199,-396 199,-415"/>
<text text-anchor="middle" x="175.5" y="-403" font-family="Helvetica,sans-Serif" font-size="10.00">vector</text>
</a>
</g>
</g>
<!-- Node1&#45;&gt;Node4 -->
<g id="edge3_Node000001_Node000004" class="edge">
<title>Node1&#45;&gt;Node4</title>
<g id="a_edge3_Node000001_Node000004"><a xlink:title=" ">
<path fill="none" stroke="#63b8ff" d="M148.78,-450.75C153.21,-443.42 159.66,-432.73 165.12,-423.7"/>
<polygon fill="#63b8ff" stroke="#63b8ff" points="168.14,-425.46 170.31,-415.09 162.15,-421.84 168.14,-425.46"/>
</a>
</g>
</g>
<!-- Node5 -->
<g id="Node000005" class="node">
<title>Node5</title>
<g id="a_Node000005"><a xlink:href="_image_8hpp.html" target="_top" xlink:title=" ">
<polygon fill="white" stroke="#666666" points="358,-415 217,-415 217,-396 358,-396 358,-415"/>
<text text-anchor="middle" x="287.5" y="-403" font-family="Helvetica,sans-Serif" font-size="10.00">AssetManager/Image.hpp</text>
</a>
</g>
</g>
<!-- Node1&#45;&gt;Node5 -->
<g id="edge4_Node000001_Node000005" class="edge">
<title>Node1&#45;&gt;Node5</title>
<g id="a_edge4_Node000001_Node000005"><a xlink:title=" ">
<path fill="none" stroke="#63b8ff" d="M166.64,-450.98C190.32,-442.27 227.37,-428.63 254.21,-418.75"/>
<polygon fill="#63b8ff" stroke="#63b8ff" points="255.77,-421.91 263.94,-415.17 253.35,-415.34 255.77,-421.91"/>
</a>
</g>
</g>
<!-- Node6 -->
<g id="Node000006" class="node">
<title>Node6</title>
<g id="a_Node000006"><a xlink:title=" ">
<polygon fill="#e0e0e0" stroke="#999999" points="299.5,-239 231.5,-239 231.5,-220 299.5,-220 299.5,-239"/>
<text text-anchor="middle" x="265.5" y="-227" font-family="Helvetica,sans-Serif" font-size="10.00">filesystem</text>
</a>
</g>
</g>
<!-- Node5&#45;&gt;Node6 -->
<g id="edge5_Node000005_Node000006" class="edge">
<title>Node5&#45;&gt;Node6</title>
<g id="a_edge5_Node000005_Node000006"><a xlink:title=" ">
<path fill="none" stroke="#63b8ff" d="M276.79,-395.93C267.57,-387.8 254.91,-374.68 249.5,-360 235.57,-322.25 248.68,-274.54 258,-248.87"/>
<polygon fill="#63b8ff" stroke="#63b8ff" points="261.36,-249.9 261.68,-239.31 254.82,-247.38 261.36,-249.9"/>
</a>
</g>
</g>
<!-- Node7 -->
<g id="Node000007" class="node">
<title>Node7</title>
<g id="a_Node000007"><a xlink:href="_path_constructible_asset_8hpp.html" target="_top" xlink:title=" ">
<polygon fill="white" stroke="#666666" points="433,-360 258,-360 258,-330 433,-330 433,-360"/>
<text text-anchor="start" x="266" y="-348" font-family="Helvetica,sans-Serif" font-size="10.00">AssetManager/PathConstructible</text>
<text text-anchor="middle" x="345.5" y="-337" font-family="Helvetica,sans-Serif" font-size="10.00">Asset.hpp</text>
</a>
</g>
</g>
<!-- Node5&#45;&gt;Node7 -->
<g id="edge6_Node000005_Node000007" class="edge">
<title>Node5&#45;&gt;Node7</title>
<g id="a_edge6_Node000005_Node000007"><a xlink:title=" ">
<path fill="none" stroke="#63b8ff" d="M296.06,-395.87C303.49,-388.37 314.57,-377.2 324.36,-367.33"/>
<polygon fill="#63b8ff" stroke="#63b8ff" points="326.95,-369.68 331.51,-360.11 321.98,-364.75 326.95,-369.68"/>
</a>
</g>
</g>
<!-- Node7&#45;&gt;Node6 -->
<g id="edge7_Node000007_Node000006" class="edge">
<title>Node7&#45;&gt;Node6</title>
<g id="a_edge7_Node000007_Node000006"><a xlink:title=" ">
<path fill="none" stroke="#63b8ff" d="M324.23,-329.98C312.01,-320.97 297.21,-308.3 287.5,-294 278.28,-280.43 272.55,-262.6 269.26,-249.3"/>
<polygon fill="#63b8ff" stroke="#63b8ff" points="272.64,-248.37 267.05,-239.37 265.81,-249.9 272.64,-248.37"/>
</a>
</g>
</g>
<!-- Node8 -->
<g id="Node000008" class="node">
<title>Node8</title>
<g id="a_Node000008"><a xlink:href="_asset_8hpp.html" target="_top" xlink:title=" ">
<polygon fill="white" stroke="#666666" points="433,-294 296,-294 296,-275 433,-275 433,-294"/>
<text text-anchor="middle" x="364.5" y="-282" font-family="Helvetica,sans-Serif" font-size="10.00">AssetManager/Asset.hpp</text>
</a>
</g>
</g>
<!-- Node7&#45;&gt;Node8 -->
<g id="edge8_Node000007_Node000008" class="edge">
<title>Node7&#45;&gt;Node8</title>
<g id="a_edge8_Node000007_Node000008"><a xlink:title=" ">
<path fill="none" stroke="#63b8ff" d="M350.1,-329.84C352.63,-322.04 355.81,-312.27 358.53,-303.89"/>
<polygon fill="#63b8ff" stroke="#63b8ff" points="361.89,-304.86 361.65,-294.27 355.24,-302.7 361.89,-304.86"/>
</a>
</g>
</g>
<!-- Node8&#45;&gt;Node6 -->
<g id="edge9_Node000008_Node000006" class="edge">
<title>Node8&#45;&gt;Node6</title>
<g id="a_edge9_Node000008_Node000006"><a xlink:title=" ">
<path fill="none" stroke="#63b8ff" d="M348.59,-274.98C332.95,-266.61 308.84,-253.7 290.62,-243.95"/>
<polygon fill="#63b8ff" stroke="#63b8ff" points="292.16,-240.8 281.7,-239.17 288.86,-246.98 292.16,-240.8"/>
</a>
</g>
</g>
<!-- Node9 -->
<g id="Node000009" class="node">
<title>Node9</title>
<g id="a_Node000009"><a xlink:href="_registry_8hpp.html" target="_top" xlink:title=" ">
<polygon fill="white" stroke="#666666" points="415.5,-239 317.5,-239 317.5,-220 415.5,-220 415.5,-239"/>
<text text-anchor="middle" x="366.5" y="-227" font-family="Helvetica,sans-Serif" font-size="10.00">ECS/Registry.hpp</text>
</a>
</g>
</g>
<!-- Node8&#45;&gt;Node9 -->
<g id="edge10_Node000008_Node000009" class="edge">
<title>Node8&#45;&gt;Node9</title>
<g id="a_edge10_Node000008_Node000009"><a xlink:title=" ">
<path fill="none" stroke="#63b8ff" d="M364.83,-274.75C365.09,-267.8 365.47,-257.85 365.8,-249.13"/>
<polygon fill="#63b8ff" stroke="#63b8ff" points="369.3,-249.21 366.18,-239.09 362.3,-248.95 369.3,-249.21"/>
</a>
</g>
</g>
<!-- Node10 -->
<g id="Node000010" class="node">
<title>Node10</title>
<g id="a_Node000010"><a xlink:title=" ">
<polygon fill="#e0e0e0" stroke="#999999" points="479.5,-129 393.5,-129 393.5,-110 479.5,-110 479.5,-129"/>
<text text-anchor="middle" x="436.5" y="-117" font-family="Helvetica,sans-Serif" font-size="10.00">unordered_set</text>
</a>
</g>
</g>
<!-- Node9&#45;&gt;Node10 -->
<g id="edge11_Node000009_Node000010" class="edge">
<title>Node9&#45;&gt;Node10</title>
<g id="a_edge11_Node000009_Node000010"><a xlink:title=" ">
<path fill="none" stroke="#63b8ff" d="M372.23,-219.66C383.82,-201.77 410.25,-161 425.36,-137.69"/>
<polygon fill="#63b8ff" stroke="#63b8ff" points="428.39,-139.45 430.89,-129.16 422.51,-135.65 428.39,-139.45"/>
</a>
</g>
</g>
<!-- Node11 -->
<g id="Node000011" class="node">
<title>Node11</title>
<g id="a_Node000011"><a xlink:href="_logger_8hpp.html" target="_top" xlink:title=" ">
<polygon fill="white" stroke="#666666" points="174,-184 57,-184 57,-165 174,-165 174,-184"/>
<text text-anchor="middle" x="115.5" y="-172" font-family="Helvetica,sans-Serif" font-size="10.00">Common/Logger.hpp</text>
</a>
</g>
</g>
<!-- Node9&#45;&gt;Node11 -->
<g id="edge12_Node000009_Node000011" class="edge">
<title>Node9&#45;&gt;Node11</title>
<g id="a_edge12_Node000009_Node000011"><a xlink:title=" ">
<path fill="none" stroke="#63b8ff" d="M326.17,-219.98C282.66,-210.8 213.3,-196.15 166.15,-186.19"/>
<polygon fill="#63b8ff" stroke="#63b8ff" points="166.65,-182.72 156.14,-184.08 165.2,-189.57 166.65,-182.72"/>
</a>
</g>
</g>
<!-- Node14 -->
<g id="Node000014" class="node">
<title>Node14</title>
<g id="a_Node000014"><a xlink:href="_entity_8hpp.html" target="_top" xlink:title=" ">
<polygon fill="white" stroke="#666666" points="402.5,-74 316.5,-74 316.5,-55 402.5,-55 402.5,-74"/>
<text text-anchor="middle" x="359.5" y="-62" font-family="Helvetica,sans-Serif" font-size="10.00">ECS/Entity.hpp</text>
</a>
</g>
</g>
<!-- Node9&#45;&gt;Node14 -->
<g id="edge15_Node000009_Node000014" class="edge">
<title>Node9&#45;&gt;Node14</title>
<g id="a_edge15_Node000009_Node000014"><a xlink:title=" ">
<path fill="none" stroke="#63b8ff" d="M366.12,-219.74C365.03,-194.31 361.84,-120.08 360.32,-84.69"/>
<polygon fill="#63b8ff" stroke="#63b8ff" points="363.8,-84.15 359.88,-74.31 356.81,-84.45 363.8,-84.15"/>
</a>
</g>
</g>
<!-- Node16 -->
<g id="Node000016" class="node">
<title>Node16</title>
<g id="a_Node000016"><a xlink:href="_entity_hierarchy_8hpp.html" target="_top" xlink:title=" ">
<polygon fill="white" stroke="#666666" points="596.5,-184 462.5,-184 462.5,-165 596.5,-165 596.5,-184"/>
<text text-anchor="middle" x="529.5" y="-172" font-family="Helvetica,sans-Serif" font-size="10.00">ECS/EntityHierarchy.hpp</text>
</a>
</g>
</g>
<!-- Node9&#45;&gt;Node16 -->
<g id="edge17_Node000009_Node000016" class="edge">
<title>Node9&#45;&gt;Node16</title>
<g id="a_edge17_Node000009_Node000016"><a xlink:title=" ">
<path fill="none" stroke="#63b8ff" d="M392.69,-219.98C419.94,-211.13 462.8,-197.19 493.28,-187.28"/>
<polygon fill="#63b8ff" stroke="#63b8ff" points="494.68,-190.5 503.11,-184.08 492.51,-183.85 494.68,-190.5"/>
</a>
</g>
</g>
<!-- Node19 -->
<g id="Node000019" class="node">
<title>Node19</title>
<g id="a_Node000019"><a xlink:href="_entity_provider_8hpp.html" target="_top" xlink:title="Manages a pool of unused entity identifiers and provides mechanisms for requesting and removing them.">
<polygon fill="white" stroke="#666666" points="337.5,-129 209.5,-129 209.5,-110 337.5,-110 337.5,-129"/>
<text text-anchor="middle" x="273.5" y="-117" font-family="Helvetica,sans-Serif" font-size="10.00">ECS/EntityProvider.hpp</text>
</a>
</g>
</g>
<!-- Node9&#45;&gt;Node19 -->
<g id="edge22_Node000009_Node000019" class="edge">
<title>Node9&#45;&gt;Node19</title>
<g id="a_edge22_Node000009_Node000019"><a xlink:title=" ">
<path fill="none" stroke="#63b8ff" d="M358.89,-219.66C343.28,-201.54 307.44,-159.91 287.51,-136.77"/>
<polygon fill="#63b8ff" stroke="#63b8ff" points="290.13,-134.45 280.96,-129.16 284.83,-139.02 290.13,-134.45"/>
</a>
</g>
</g>
<!-- Node20 -->
<g id="Node000020" class="node">
<title>Node20</title>
<g id="a_Node000020"><a xlink:href="_sparse_set_8hpp.html" target="_top" xlink:title=" ">
<polygon fill="white" stroke="#666666" points="300.5,-184 192.5,-184 192.5,-165 300.5,-165 300.5,-184"/>
<text text-anchor="middle" x="246.5" y="-172" font-family="Helvetica,sans-Serif" font-size="10.00">ECS/SparseSet.hpp</text>
</a>
</g>
</g>
<!-- Node9&#45;&gt;Node20 -->
<g id="edge26_Node000009_Node000020" class="edge">
<title>Node9&#45;&gt;Node20</title>
<g id="a_edge26_Node000009_Node000020"><a xlink:title=" ">
<path fill="none" stroke="#63b8ff" d="M347.22,-219.98C327.83,-211.42 297.69,-198.11 275.43,-188.28"/>
<polygon fill="#63b8ff" stroke="#63b8ff" points="276.69,-185.01 266.13,-184.17 273.86,-191.41 276.69,-185.01"/>
</a>
</g>
</g>
<!-- Node21 -->
<g id="Node000021" class="node">
<title>Node21</title>
<g id="a_Node000021"><a xlink:href="_singleton_component_8hpp.html" target="_top" xlink:title=" ">
<polygon fill="white" stroke="#666666" points="776,-184 615,-184 615,-165 776,-165 776,-184"/>
<text text-anchor="middle" x="695.5" y="-172" font-family="Helvetica,sans-Serif" font-size="10.00">ECS/SingletonComponent.hpp</text>
</a>
</g>
</g>
<!-- Node9&#45;&gt;Node21 -->
<g id="edge28_Node000009_Node000021" class="edge">
<title>Node9&#45;&gt;Node21</title>
<g id="a_edge28_Node000009_Node000021"><a xlink:title=" ">
<path fill="none" stroke="#63b8ff" d="M415.75,-220.57C473.49,-211.26 569.28,-195.83 632.41,-185.66"/>
<polygon fill="#63b8ff" stroke="#63b8ff" points="633.32,-189.06 642.63,-184.02 632.21,-182.15 633.32,-189.06"/>
</a>
</g>
</g>
<!-- Node12 -->
<g id="Node000012" class="node">
<title>Node12</title>
<g id="a_Node000012"><a xlink:title=" ">
<polygon fill="#e0e0e0" stroke="#999999" points="191.5,-129 143.5,-129 143.5,-110 191.5,-110 191.5,-129"/>
<text text-anchor="middle" x="167.5" y="-117" font-family="Helvetica,sans-Serif" font-size="10.00">mutex</text>
</a>
</g>
</g>
<!-- Node11&#45;&gt;Node12 -->
<g id="edge13_Node000011_Node000012" class="edge">
<title>Node11&#45;&gt;Node12</title>
<g id="a_edge13_Node000011_Node000012"><a xlink:title=" ">
<path fill="none" stroke="#63b8ff" d="M124.09,-164.75C131.66,-157.03 142.88,-145.6 152.01,-136.28"/>
<polygon fill="#63b8ff" stroke="#63b8ff" points="154.57,-138.68 159.07,-129.09 149.57,-133.78 154.57,-138.68"/>
</a>
</g>
</g>
<!-- Node13 -->
<g id="Node000013" class="node">
<title>Node13</title>
<g id="a_Node000013"><a xlink:title=" ">
<polygon fill="#e0e0e0" stroke="#999999" points="197,-74 150,-74 150,-55 197,-55 197,-74"/>
<text text-anchor="middle" x="173.5" y="-62" font-family="Helvetica,sans-Serif" font-size="10.00">queue</text>
</a>
</g>
</g>
<!-- Node11&#45;&gt;Node13 -->
<g id="edge14_Node000011_Node000013" class="edge">
<title>Node11&#45;&gt;Node13</title>
<g id="a_edge14_Node000011_Node000013"><a xlink:title=" ">
<path fill="none" stroke="#63b8ff" d="M116.88,-164.83C119.15,-152.16 124.48,-128.13 134.5,-110 140.32,-99.48 148.96,-89.28 156.64,-81.31"/>
<polygon fill="#63b8ff" stroke="#63b8ff" points="159.22,-83.68 163.85,-74.15 154.29,-78.71 159.22,-83.68"/>
</a>
</g>
</g>
<!-- Node15 -->
<g id="Node000015" class="node">
<title>Node15</title>
<g id="a_Node000015"><a xlink:title=" ">
<polygon fill="#e0e0e0" stroke="#999999" points="345,-19 292,-19 292,0 345,0 345,-19"/>
<text text-anchor="middle" x="318.5" y="-7" font-family="Helvetica,sans-Serif" font-size="10.00">stdlib.h</text>
</a>
</g>
</g>
<!-- Node14&#45;&gt;Node15 -->
<g id="edge16_Node000014_Node000015" class="edge">
<title>Node14&#45;&gt;Node15</title>
<g id="a_edge16_Node000014_Node000015"><a xlink:title=" ">
<path fill="none" stroke="#63b8ff" d="M352.73,-54.75C346.94,-47.26 338.44,-36.28 331.36,-27.13"/>
<polygon fill="#63b8ff" stroke="#63b8ff" points="334.03,-24.86 325.14,-19.09 328.49,-29.14 334.03,-24.86"/>
</a>
</g>
</g>
<!-- Node16&#45;&gt;Node10 -->
<g id="edge19_Node000016_Node000010" class="edge">
<title>Node16&#45;&gt;Node10</title>
<g id="a_edge19_Node000016_Node000010"><a xlink:title=" ">
<path fill="none" stroke="#63b8ff" d="M514.56,-164.98C500,-156.69 477.63,-143.94 460.57,-134.22"/>
<polygon fill="#63b8ff" stroke="#63b8ff" points="462.14,-131.08 451.71,-129.17 458.67,-137.16 462.14,-131.08"/>
</a>
</g>
</g>
<!-- Node16&#45;&gt;Node14 -->
<g id="edge21_Node000016_Node000014" class="edge">
<title>Node16&#45;&gt;Node14</title>
<g id="a_edge21_Node000016_Node000014"><a xlink:title=" ">
<path fill="none" stroke="#63b8ff" d="M583.2,-164.98C622.59,-157.51 671.25,-145.29 683.5,-129 688.58,-122.25 689.05,-116.36 683.5,-110 649.06,-70.5 495.81,-64.83 413.01,-64.74"/>
<polygon fill="#63b8ff" stroke="#63b8ff" points="412.78,-61.24 402.79,-64.75 412.79,-68.24 412.78,-61.24"/>
</a>
</g>
</g>
<!-- Node17 -->
<g id="Node000017" class="node">
<title>Node17</title>
<g id="a_Node000017"><a xlink:title=" ">
<polygon fill="#e0e0e0" stroke="#999999" points="674,-129 609,-129 609,-110 674,-110 674,-129"/>
<text text-anchor="middle" x="641.5" y="-117" font-family="Helvetica,sans-Serif" font-size="10.00">functional</text>
</a>
</g>
</g>
<!-- Node16&#45;&gt;Node17 -->
<g id="edge18_Node000016_Node000017" class="edge">
<title>Node16&#45;&gt;Node17</title>
<g id="a_edge18_Node000016_Node000017"><a xlink:title=" ">
<path fill="none" stroke="#63b8ff" d="M547.49,-164.98C565.43,-156.5 593.22,-143.35 613.93,-133.54"/>
<polygon fill="#63b8ff" stroke="#63b8ff" points="615.64,-136.61 623.18,-129.17 612.64,-130.28 615.64,-136.61"/>
</a>
</g>
</g>
<!-- Node18 -->
<g id="Node000018" class="node">
<title>Node18</title>
<g id="a_Node000018"><a xlink:title=" ">
<polygon fill="#e0e0e0" stroke="#999999" points="591,-129 498,-129 498,-110 591,-110 591,-129"/>
<text text-anchor="middle" x="544.5" y="-117" font-family="Helvetica,sans-Serif" font-size="10.00">unordered_map</text>
</a>
</g>
</g>
<!-- Node16&#45;&gt;Node18 -->
<g id="edge20_Node000016_Node000018" class="edge">
<title>Node16&#45;&gt;Node18</title>
<g id="a_edge20_Node000016_Node000018"><a xlink:title=" ">
<path fill="none" stroke="#63b8ff" d="M531.98,-164.75C533.96,-157.72 536.82,-147.62 539.31,-138.84"/>
<polygon fill="#63b8ff" stroke="#63b8ff" points="542.71,-139.66 542.07,-129.09 535.98,-137.76 542.71,-139.66"/>
</a>
</g>
</g>
<!-- Node19&#45;&gt;Node13 -->
<g id="edge24_Node000019_Node000013" class="edge">
<title>Node19&#45;&gt;Node13</title>
<g id="a_edge24_Node000019_Node000013"><a xlink:title=" ">
<path fill="none" stroke="#63b8ff" d="M257.43,-109.98C241.64,-101.61 217.28,-88.7 198.87,-78.95"/>
<polygon fill="#63b8ff" stroke="#63b8ff" points="200.33,-75.76 189.86,-74.17 197.06,-81.95 200.33,-75.76"/>
</a>
</g>
</g>
<!-- Node19&#45;&gt;Node14 -->
<g id="edge25_Node000019_Node000014" class="edge">
<title>Node19&#45;&gt;Node14</title>
<g id="a_edge25_Node000019_Node000014"><a xlink:title=" ">
<path fill="none" stroke="#63b8ff" d="M287.32,-109.98C300.65,-101.77 321.08,-89.18 336.81,-79.49"/>
<polygon fill="#63b8ff" stroke="#63b8ff" points="338.75,-82.4 345.43,-74.17 335.08,-76.44 338.75,-82.4"/>
</a>
</g>
</g>
<!-- Node19&#45;&gt;Node15 -->
<g id="edge23_Node000019_Node000015" class="edge">
<title>Node19&#45;&gt;Node15</title>
<g id="a_edge23_Node000019_Node000015"><a xlink:title=" ">
<path fill="none" stroke="#63b8ff" d="M277.18,-109.66C284.54,-92.01 301.17,-52.09 310.94,-28.64"/>
<polygon fill="#63b8ff" stroke="#63b8ff" points="314.28,-29.74 314.89,-19.16 307.82,-27.04 314.28,-29.74"/>
</a>
</g>
</g>
<!-- Node20&#45;&gt;Node19 -->
<g id="edge27_Node000020_Node000019" class="edge">
<title>Node20&#45;&gt;Node19</title>
<g id="a_edge27_Node000020_Node000019"><a xlink:title=" ">
<path fill="none" stroke="#63b8ff" d="M250.96,-164.75C254.62,-157.57 259.91,-147.18 264.45,-138.27"/>
<polygon fill="#63b8ff" stroke="#63b8ff" points="267.7,-139.59 269.12,-129.09 261.47,-136.41 267.7,-139.59"/>
</a>
</g>
</g>
</g>
</svg>
