<?xml version="1.0" encoding="UTF-8" standalone="no"?>
<!DOCTYPE svg PUBLIC "-//W3C//DTD SVG 1.1//EN"
 "http://www.w3.org/Graphics/SVG/1.1/DTD/svg11.dtd">
<!-- Generated by graphviz version 2.43.0 (0)
 -->
<!-- Title: src/Rendering/CubeMap.hpp Pages: 1 -->
<svg width="872pt" height="207pt"
 viewBox="0.00 0.00 871.50 207.00" xmlns="http://www.w3.org/2000/svg" xmlns:xlink="http://www.w3.org/1999/xlink">
<g id="graph0" class="graph" transform="scale(1 1) rotate(0) translate(4 203)">
<title>src/Rendering/CubeMap.hpp</title>
<polygon fill="white" stroke="transparent" points="-4,4 -4,-203 867.5,-203 867.5,4 -4,4"/>
<!-- Node1 -->
<g id="node1" class="node">
<title>Node1</title>
<g id="a_node1"><a xlink:title=" ">
<polygon fill="#bfbfbf" stroke="black" points="197,-179.5 197,-198.5 350,-198.5 350,-179.5 197,-179.5"/>
<text text-anchor="middle" x="273.5" y="-186.5" font-family="Helvetica,sans-Serif" font-size="10.00">src/Rendering/CubeMap.hpp</text>
</a>
</g>
</g>
<!-- Node2 -->
<g id="node2" class="node">
<title>Node2</title>
<g id="a_node2"><a xlink:href="_skybox_component_8hpp.html" target="_top" xlink:title=" ">
<polygon fill="white" stroke="black" points="68,-123.5 68,-142.5 279,-142.5 279,-123.5 68,-123.5"/>
<text text-anchor="middle" x="173.5" y="-130.5" font-family="Helvetica,sans-Serif" font-size="10.00">src/Components/SkyboxComponent.hpp</text>
</a>
</g>
</g>
<!-- Node1&#45;&gt;Node2 -->
<g id="edge1" class="edge">
<title>Node1&#45;&gt;Node2</title>
<path fill="none" stroke="midnightblue" d="M248.41,-174.45C229.95,-164.48 205.4,-151.23 189.53,-142.65"/>
<polygon fill="midnightblue" stroke="midnightblue" points="246.97,-177.65 257.43,-179.32 250.3,-171.49 246.97,-177.65"/>
</g>
<!-- Node3 -->
<g id="node3" class="node">
<title>Node3</title>
<g id="a_node3"><a xlink:href="main_8cpp.html" target="_top" xlink:title=" ">
<polygon fill="white" stroke="black" points="0,-62 0,-81 79,-81 79,-62 0,-62"/>
<text text-anchor="middle" x="39.5" y="-69" font-family="Helvetica,sans-Serif" font-size="10.00">src/main.cpp</text>
</a>
</g>
</g>
<!-- Node1&#45;&gt;Node3 -->
<g id="edge6" class="edge">
<title>Node1&#45;&gt;Node3</title>
<path fill="none" stroke="midnightblue" d="M186.82,-179.12C135.57,-172.14 77.15,-160.62 58.5,-143 41.18,-126.64 39.05,-96.28 39.14,-81.32"/>
<polygon fill="midnightblue" stroke="midnightblue" points="186.58,-182.62 196.95,-180.45 187.5,-175.68 186.58,-182.62"/>
</g>
<!-- Node7 -->
<g id="node7" class="node">
<title>Node7</title>
<g id="a_node7"><a xlink:href="_cube_map_8cpp.html" target="_top" xlink:title=" ">
<polygon fill="white" stroke="black" points="297.5,-123.5 297.5,-142.5 449.5,-142.5 449.5,-123.5 297.5,-123.5"/>
<text text-anchor="middle" x="373.5" y="-130.5" font-family="Helvetica,sans-Serif" font-size="10.00">src/Rendering/CubeMap.cpp</text>
</a>
</g>
</g>
<!-- Node1&#45;&gt;Node7 -->
<g id="edge7" class="edge">
<title>Node1&#45;&gt;Node7</title>
<path fill="none" stroke="midnightblue" d="M298.59,-174.45C317.05,-164.48 341.6,-151.23 357.47,-142.65"/>
<polygon fill="midnightblue" stroke="midnightblue" points="296.7,-171.49 289.57,-179.32 300.03,-177.65 296.7,-171.49"/>
</g>
<!-- Node8 -->
<g id="node8" class="node">
<title>Node8</title>
<g id="a_node8"><a xlink:href="_rendering_system_8hpp.html" target="_top" xlink:title=" ">
<polygon fill="white" stroke="black" points="467.5,-123.5 467.5,-142.5 653.5,-142.5 653.5,-123.5 467.5,-123.5"/>
<text text-anchor="middle" x="560.5" y="-130.5" font-family="Helvetica,sans-Serif" font-size="10.00">src/Systems/RenderingSystem.hpp</text>
</a>
</g>
</g>
<!-- Node1&#45;&gt;Node8 -->
<g id="edge8" class="edge">
<title>Node1&#45;&gt;Node8</title>
<path fill="none" stroke="midnightblue" d="M329.11,-177.54C383.35,-167.33 464.84,-152 515.24,-142.52"/>
<polygon fill="midnightblue" stroke="midnightblue" points="328.16,-174.15 318.98,-179.44 329.45,-181.03 328.16,-174.15"/>
</g>
<!-- Node2&#45;&gt;Node3 -->
<g id="edge2" class="edge">
<title>Node2&#45;&gt;Node3</title>
<path fill="none" stroke="midnightblue" d="M144.96,-119.33C118.95,-107.78 81.24,-91.03 58.66,-81.01"/>
<polygon fill="midnightblue" stroke="midnightblue" points="143.74,-122.62 154.3,-123.48 146.58,-116.22 143.74,-122.62"/>
</g>
<!-- Node4 -->
<g id="node4" class="node">
<title>Node4</title>
<g id="a_node4"><a xlink:href="_rendering_system_8cpp.html" target="_top" xlink:title=" ">
<polygon fill="white" stroke="black" points="417,-62 417,-81 602,-81 602,-62 417,-62"/>
<text text-anchor="middle" x="509.5" y="-69" font-family="Helvetica,sans-Serif" font-size="10.00">src/Systems/RenderingSystem.cpp</text>
</a>
</g>
</g>
<!-- Node2&#45;&gt;Node4 -->
<g id="edge3" class="edge">
<title>Node2&#45;&gt;Node4</title>
<path fill="none" stroke="midnightblue" d="M231.73,-121.69C296.78,-110.17 400.86,-91.74 461.45,-81.01"/>
<polygon fill="midnightblue" stroke="midnightblue" points="230.88,-118.28 221.64,-123.48 232.1,-125.18 230.88,-118.28"/>
</g>
<!-- Node5 -->
<g id="node5" class="node">
<title>Node5</title>
<g id="a_node5"><a xlink:href="_skybox_component_u_i_8hpp.html" target="_top" xlink:title=" ">
<polygon fill="white" stroke="black" points="97.5,-56.5 97.5,-86.5 243.5,-86.5 243.5,-56.5 97.5,-56.5"/>
<text text-anchor="start" x="105.5" y="-74.5" font-family="Helvetica,sans-Serif" font-size="10.00">src/ui/Components/Skybox</text>
<text text-anchor="middle" x="170.5" y="-63.5" font-family="Helvetica,sans-Serif" font-size="10.00">ComponentUI.hpp</text>
</a>
</g>
</g>
<!-- Node2&#45;&gt;Node5 -->
<g id="edge4" class="edge">
<title>Node2&#45;&gt;Node5</title>
<path fill="none" stroke="midnightblue" d="M172.55,-113.23C172.12,-104.59 171.61,-94.5 171.21,-86.52"/>
<polygon fill="midnightblue" stroke="midnightblue" points="169.07,-113.66 173.07,-123.48 176.06,-113.31 169.07,-113.66"/>
</g>
<!-- Node6 -->
<g id="node6" class="node">
<title>Node6</title>
<g id="a_node6"><a xlink:href="_properties_widget_8cpp.html" target="_top" xlink:title=" ">
<polygon fill="white" stroke="black" points="262,-56.5 262,-86.5 399,-86.5 399,-56.5 262,-56.5"/>
<text text-anchor="start" x="270" y="-74.5" font-family="Helvetica,sans-Serif" font-size="10.00">src/ui/widgets/Properties</text>
<text text-anchor="middle" x="330.5" y="-63.5" font-family="Helvetica,sans-Serif" font-size="10.00">Widget.cpp</text>
</a>
</g>
</g>
<!-- Node2&#45;&gt;Node6 -->
<g id="edge5" class="edge">
<title>Node2&#45;&gt;Node6</title>
<path fill="none" stroke="midnightblue" d="M205.57,-119.85C231.07,-110.18 266.78,-96.65 293.5,-86.52"/>
<polygon fill="midnightblue" stroke="midnightblue" points="204.1,-116.66 195.99,-123.48 206.59,-123.2 204.1,-116.66"/>
</g>
<!-- Node8&#45;&gt;Node4 -->
<g id="edge12" class="edge">
<title>Node8&#45;&gt;Node4</title>
<path fill="none" stroke="midnightblue" d="M546.5,-115.67C536.89,-104.45 524.51,-90.02 516.79,-81.01"/>
<polygon fill="midnightblue" stroke="midnightblue" points="544.03,-118.16 553.19,-123.48 549.34,-113.6 544.03,-118.16"/>
</g>
<!-- Node9 -->
<g id="node9" class="node">
<title>Node9</title>
<g id="a_node9"><a xlink:href="_runtime_8hpp.html" target="_top" xlink:title=" ">
<polygon fill="white" stroke="black" points="620.5,-62 620.5,-81 760.5,-81 760.5,-62 620.5,-62"/>
<text text-anchor="middle" x="690.5" y="-69" font-family="Helvetica,sans-Serif" font-size="10.00">src/Runtime/Runtime.hpp</text>
</a>
</g>
</g>
<!-- Node8&#45;&gt;Node9 -->
<g id="edge9" class="edge">
<title>Node8&#45;&gt;Node9</title>
<path fill="none" stroke="midnightblue" d="M588.52,-119.17C613.75,-107.63 650.11,-90.99 671.91,-81.01"/>
<polygon fill="midnightblue" stroke="midnightblue" points="586.76,-116.13 579.13,-123.48 589.68,-122.5 586.76,-116.13"/>
</g>
<!-- Node10 -->
<g id="node10" class="node">
<title>Node10</title>
<g id="a_node10"><a xlink:href="_runtime_8cpp.html" target="_top" xlink:title=" ">
<polygon fill="white" stroke="black" points="533.5,-0.5 533.5,-19.5 673.5,-19.5 673.5,-0.5 533.5,-0.5"/>
<text text-anchor="middle" x="603.5" y="-7.5" font-family="Helvetica,sans-Serif" font-size="10.00">src/Runtime/Runtime.cpp</text>
</a>
</g>
</g>
<!-- Node9&#45;&gt;Node10 -->
<g id="edge10" class="edge">
<title>Node9&#45;&gt;Node10</title>
<path fill="none" stroke="midnightblue" d="M669.46,-56.11C652.73,-44.67 629.89,-29.05 615.94,-19.51"/>
<polygon fill="midnightblue" stroke="midnightblue" points="667.8,-59.22 678.04,-61.98 671.76,-53.44 667.8,-59.22"/>
</g>
<!-- Node11 -->
<g id="node11" class="node">
<title>Node11</title>
<g id="a_node11"><a xlink:href="_scene_widget_8hpp.html" target="_top" xlink:title="Contains the declaration of the SceneWidget class, a user interface widget for rendering scenes.">
<polygon fill="white" stroke="black" points="691.5,-0.5 691.5,-19.5 863.5,-19.5 863.5,-0.5 691.5,-0.5"/>
<text text-anchor="middle" x="777.5" y="-7.5" font-family="Helvetica,sans-Serif" font-size="10.00">src/ui/widgets/SceneWidget.hpp</text>
</a>
</g>
</g>
<!-- Node9&#45;&gt;Node11 -->
<g id="edge11" class="edge">
<title>Node9&#45;&gt;Node11</title>
<path fill="none" stroke="midnightblue" d="M711.54,-56.11C728.27,-44.67 751.11,-29.05 765.06,-19.51"/>
<polygon fill="midnightblue" stroke="midnightblue" points="709.24,-53.44 702.96,-61.98 713.2,-59.22 709.24,-53.44"/>
</g>
</g>
</svg>
