<?xml version="1.0" encoding="UTF-8" standalone="no"?>
<!DOCTYPE svg PUBLIC "-//W3C//DTD SVG 1.1//EN"
 "http://www.w3.org/Graphics/SVG/1.1/DTD/svg11.dtd">
<!-- Generated by graphviz version 2.43.0 (0)
 -->
<!-- Title: src/AssetManager/CubeMap.hpp Pages: 1 -->
<svg width="675pt" height="357pt"
 viewBox="0.00 0.00 674.98 357.00" xmlns="http://www.w3.org/2000/svg" xmlns:xlink="http://www.w3.org/1999/xlink">
<g id="graph0" class="graph" transform="scale(1 1) rotate(0) translate(4 353)">
<title>src/AssetManager/CubeMap.hpp</title>
<!-- Node1 -->
<g id="Node000001" class="node">
<title>Node1</title>
<g id="a_Node000001"><a xlink:title=" ">
<polygon fill="#999999" stroke="#666666" points="286,-349 113,-349 113,-330 286,-330 286,-349"/>
<text text-anchor="middle" x="199.5" y="-337" font-family="Helvetica,sans-Serif" font-size="10.00">src/AssetManager/CubeMap.hpp</text>
</a>
</g>
</g>
<!-- Node2 -->
<g id="Node000002" class="node">
<title>Node2</title>
<g id="a_Node000002"><a xlink:title=" ">
<polygon fill="#e0e0e0" stroke="#999999" points="95,-294 24,-294 24,-275 95,-275 95,-294"/>
<text text-anchor="middle" x="59.5" y="-282" font-family="Helvetica,sans-Serif" font-size="10.00">glad/glad.h</text>
</a>
</g>
</g>
<!-- Node1&#45;&gt;Node2 -->
<g id="edge1_Node000001_Node000002" class="edge">
<title>Node1&#45;&gt;Node2</title>
<g id="a_edge1_Node000001_Node000002"><a xlink:title=" ">
<path fill="none" stroke="#63b8ff" d="M177.01,-329.98C153.98,-321.27 117.96,-307.63 91.87,-297.75"/>
<polygon fill="#63b8ff" stroke="#63b8ff" points="92.99,-294.44 82.4,-294.17 90.52,-300.98 92.99,-294.44"/>
</a>
</g>
</g>
<!-- Node3 -->
<g id="Node000003" class="node">
<title>Node3</title>
<g id="a_Node000003"><a xlink:title=" ">
<polygon fill="#e0e0e0" stroke="#999999" points="157.5,-294 113.5,-294 113.5,-275 157.5,-275 157.5,-294"/>
<text text-anchor="middle" x="135.5" y="-282" font-family="Helvetica,sans-Serif" font-size="10.00">string</text>
</a>
</g>
</g>
<!-- Node1&#45;&gt;Node3 -->
<g id="edge2_Node000001_Node000003" class="edge">
<title>Node1&#45;&gt;Node3</title>
<g id="a_edge2_Node000001_Node000003"><a xlink:title=" ">
<path fill="none" stroke="#63b8ff" d="M189.22,-329.98C179.66,-322.07 165.22,-310.11 153.72,-300.58"/>
<polygon fill="#63b8ff" stroke="#63b8ff" points="155.9,-297.85 145.97,-294.17 151.44,-303.24 155.9,-297.85"/>
</a>
</g>
</g>
<!-- Node4 -->
<g id="Node000004" class="node">
<title>Node4</title>
<g id="a_Node000004"><a xlink:title=" ">
<polygon fill="#e0e0e0" stroke="#999999" points="223,-294 176,-294 176,-275 223,-275 223,-294"/>
<text text-anchor="middle" x="199.5" y="-282" font-family="Helvetica,sans-Serif" font-size="10.00">vector</text>
</a>
</g>
</g>
<!-- Node1&#45;&gt;Node4 -->
<g id="edge3_Node000001_Node000004" class="edge">
<title>Node1&#45;&gt;Node4</title>
<g id="a_edge3_Node000001_Node000004"><a xlink:title=" ">
<path fill="none" stroke="#63b8ff" d="M199.5,-329.75C199.5,-322.8 199.5,-312.85 199.5,-304.13"/>
<polygon fill="#63b8ff" stroke="#63b8ff" points="203,-304.09 199.5,-294.09 196,-304.09 203,-304.09"/>
</a>
</g>
</g>
<!-- Node5 -->
<g id="Node000005" class="node">
<title>Node5</title>
<g id="a_Node000005"><a xlink:href="_asset_8hpp.html" target="_top" xlink:title=" ">
<polygon fill="white" stroke="#666666" points="378,-294 241,-294 241,-275 378,-275 378,-294"/>
<text text-anchor="middle" x="309.5" y="-282" font-family="Helvetica,sans-Serif" font-size="10.00">AssetManager/Asset.hpp</text>
</a>
</g>
</g>
<!-- Node1&#45;&gt;Node5 -->
<g id="edge4_Node000001_Node000005" class="edge">
<title>Node1&#45;&gt;Node5</title>
<g id="a_edge4_Node000001_Node000005"><a xlink:title=" ">
<path fill="none" stroke="#63b8ff" d="M217.17,-329.98C234.79,-321.5 262.08,-308.35 282.43,-298.54"/>
<polygon fill="#63b8ff" stroke="#63b8ff" points="284.02,-301.66 291.51,-294.17 280.98,-295.36 284.02,-301.66"/>
</a>
</g>
</g>
<!-- Node21 -->
<g id="Node000021" class="node">
<title>Node21</title>
<g id="a_Node000021"><a xlink:href="_image_8hpp.html" target="_top" xlink:title=" ">
<polygon fill="white" stroke="#666666" points="537,-294 396,-294 396,-275 537,-275 537,-294"/>
<text text-anchor="middle" x="466.5" y="-282" font-family="Helvetica,sans-Serif" font-size="10.00">AssetManager/Image.hpp</text>
</a>
</g>
</g>
<!-- Node1&#45;&gt;Node21 -->
<g id="edge26_Node000001_Node000021" class="edge">
<title>Node1&#45;&gt;Node21</title>
<g id="a_edge26_Node000001_Node000021"><a xlink:title=" ">
<path fill="none" stroke="#63b8ff" d="M242.4,-329.98C288.87,-320.76 363.09,-306.03 413.26,-296.07"/>
<polygon fill="#63b8ff" stroke="#63b8ff" points="414.14,-299.46 423.27,-294.08 412.78,-292.6 414.14,-299.46"/>
</a>
</g>
</g>
<!-- Node6 -->
<g id="Node000006" class="node">
<title>Node6</title>
<g id="a_Node000006"><a xlink:href="_registry_8hpp.html" target="_top" xlink:title=" ">
<polygon fill="white" stroke="#666666" points="358.5,-239 260.5,-239 260.5,-220 358.5,-220 358.5,-239"/>
<text text-anchor="middle" x="309.5" y="-227" font-family="Helvetica,sans-Serif" font-size="10.00">ECS/Registry.hpp</text>
</a>
</g>
</g>
<!-- Node5&#45;&gt;Node6 -->
<g id="edge5_Node000005_Node000006" class="edge">
<title>Node5&#45;&gt;Node6</title>
<g id="a_edge5_Node000005_Node000006"><a xlink:title=" ">
<path fill="none" stroke="#63b8ff" d="M309.5,-274.75C309.5,-267.8 309.5,-257.85 309.5,-249.13"/>
<polygon fill="#63b8ff" stroke="#63b8ff" points="313,-249.09 309.5,-239.09 306,-249.09 313,-249.09"/>
</a>
</g>
</g>
<!-- Node20 -->
<g id="Node000020" class="node">
<title>Node20</title>
<g id="a_Node000020"><a xlink:title=" ">
<polygon fill="#e0e0e0" stroke="#999999" points="472.5,-239 404.5,-239 404.5,-220 472.5,-220 472.5,-239"/>
<text text-anchor="middle" x="438.5" y="-227" font-family="Helvetica,sans-Serif" font-size="10.00">filesystem</text>
</a>
</g>
</g>
<!-- Node5&#45;&gt;Node20 -->
<g id="edge25_Node000005_Node000020" class="edge">
<title>Node5&#45;&gt;Node20</title>
<g id="a_edge25_Node000005_Node000020"><a xlink:title=" ">
<path fill="none" stroke="#63b8ff" d="M330.23,-274.98C351.26,-266.34 384.05,-252.87 408.04,-243.02"/>
<polygon fill="#63b8ff" stroke="#63b8ff" points="409.48,-246.21 417.4,-239.17 406.82,-239.73 409.48,-246.21"/>
</a>
</g>
</g>
<!-- Node7 -->
<g id="Node000007" class="node">
<title>Node7</title>
<g id="a_Node000007"><a xlink:title=" ">
<polygon fill="#e0e0e0" stroke="#999999" points="352.5,-129 266.5,-129 266.5,-110 352.5,-110 352.5,-129"/>
<text text-anchor="middle" x="309.5" y="-117" font-family="Helvetica,sans-Serif" font-size="10.00">unordered_set</text>
</a>
</g>
</g>
<!-- Node6&#45;&gt;Node7 -->
<g id="edge6_Node000006_Node000007" class="edge">
<title>Node6&#45;&gt;Node7</title>
<g id="a_edge6_Node000006_Node000007"><a xlink:title=" ">
<path fill="none" stroke="#63b8ff" d="M309.5,-219.66C309.5,-202.17 309.5,-162.8 309.5,-139.27"/>
<polygon fill="#63b8ff" stroke="#63b8ff" points="313,-139.16 309.5,-129.16 306,-139.16 313,-139.16"/>
</a>
</g>
</g>
<!-- Node8 -->
<g id="Node000008" class="node">
<title>Node8</title>
<g id="a_Node000008"><a xlink:href="_logger_8hpp.html" target="_top" xlink:title=" ">
<polygon fill="white" stroke="#666666" points="117,-184 0,-184 0,-165 117,-165 117,-184"/>
<text text-anchor="middle" x="58.5" y="-172" font-family="Helvetica,sans-Serif" font-size="10.00">Common/Logger.hpp</text>
</a>
</g>
</g>
<!-- Node6&#45;&gt;Node8 -->
<g id="edge7_Node000006_Node000008" class="edge">
<title>Node6&#45;&gt;Node8</title>
<g id="a_edge7_Node000006_Node000008"><a xlink:title=" ">
<path fill="none" stroke="#63b8ff" d="M269.17,-219.98C225.66,-210.8 156.3,-196.15 109.15,-186.19"/>
<polygon fill="#63b8ff" stroke="#63b8ff" points="109.65,-182.72 99.14,-184.08 108.2,-189.57 109.65,-182.72"/>
</a>
</g>
</g>
<!-- Node11 -->
<g id="Node000011" class="node">
<title>Node11</title>
<g id="a_Node000011"><a xlink:href="_entity_8hpp.html" target="_top" xlink:title=" ">
<polygon fill="white" stroke="#666666" points="528.5,-74 442.5,-74 442.5,-55 528.5,-55 528.5,-74"/>
<text text-anchor="middle" x="485.5" y="-62" font-family="Helvetica,sans-Serif" font-size="10.00">ECS/Entity.hpp</text>
</a>
</g>
</g>
<!-- Node6&#45;&gt;Node11 -->
<g id="edge10_Node000006_Node000011" class="edge">
<title>Node6&#45;&gt;Node11</title>
<g id="a_edge10_Node000006_Node000011"><a xlink:title=" ">
<path fill="none" stroke="#63b8ff" d="M358.81,-223.08C454.07,-212.49 654.57,-189.6 659.5,-184 674.73,-166.71 663.48,-130.49 642.5,-110 615.04,-83.18 572.67,-72.28 538.87,-67.97"/>
<polygon fill="#63b8ff" stroke="#63b8ff" points="539,-64.46 528.68,-66.83 538.23,-71.42 539,-64.46"/>
</a>
</g>
</g>
<!-- Node13 -->
<g id="Node000013" class="node">
<title>Node13</title>
<g id="a_Node000013"><a xlink:href="_entity_hierarchy_8hpp.html" target="_top" xlink:title=" ">
<polygon fill="white" stroke="#666666" points="471.5,-184 337.5,-184 337.5,-165 471.5,-165 471.5,-184"/>
<text text-anchor="middle" x="404.5" y="-172" font-family="Helvetica,sans-Serif" font-size="10.00">ECS/EntityHierarchy.hpp</text>
</a>
</g>
</g>
<!-- Node6&#45;&gt;Node13 -->
<g id="edge12_Node000006_Node000013" class="edge">
<title>Node6&#45;&gt;Node13</title>
<g id="a_edge12_Node000006_Node000013"><a xlink:title=" ">
<path fill="none" stroke="#63b8ff" d="M324.76,-219.98C339.63,-211.69 362.48,-198.94 379.92,-189.22"/>
<polygon fill="#63b8ff" stroke="#63b8ff" points="381.93,-192.1 388.96,-184.17 378.52,-185.99 381.93,-192.1"/>
</a>
</g>
</g>
<!-- Node17 -->
<g id="Node000017" class="node">
<title>Node17</title>
<g id="a_Node000017"><a xlink:href="_entity_provider_8hpp.html" target="_top" xlink:title="Manages a pool of unused entity identifiers and provides mechanisms for requesting and removing them.">
<polygon fill="white" stroke="#666666" points="248.5,-129 120.5,-129 120.5,-110 248.5,-110 248.5,-129"/>
<text text-anchor="middle" x="184.5" y="-117" font-family="Helvetica,sans-Serif" font-size="10.00">ECS/EntityProvider.hpp</text>
</a>
</g>
</g>
<!-- Node6&#45;&gt;Node17 -->
<g id="edge18_Node000006_Node000017" class="edge">
<title>Node6&#45;&gt;Node17</title>
<g id="a_edge18_Node000006_Node000017"><a xlink:title=" ">
<path fill="none" stroke="#63b8ff" d="M302.76,-219.63C292.69,-206.71 272.73,-182.37 252.5,-165 238.93,-153.35 222.13,-142.33 208.62,-134.17"/>
<polygon fill="#63b8ff" stroke="#63b8ff" points="210.27,-131.08 199.88,-129 206.71,-137.1 210.27,-131.08"/>
</a>
</g>
</g>
<!-- Node18 -->
<g id="Node000018" class="node">
<title>Node18</title>
<g id="a_Node000018"><a xlink:href="_singleton_component_8hpp.html" target="_top" xlink:title=" ">
<polygon fill="white" stroke="#666666" points="651,-184 490,-184 490,-165 651,-165 651,-184"/>
<text text-anchor="middle" x="570.5" y="-172" font-family="Helvetica,sans-Serif" font-size="10.00">ECS/SingletonComponent.hpp</text>
</a>
</g>
</g>
<!-- Node6&#45;&gt;Node18 -->
<g id="edge22_Node000006_Node000018" class="edge">
<title>Node6&#45;&gt;Node18</title>
<g id="a_edge22_Node000006_Node000018"><a xlink:title=" ">
<path fill="none" stroke="#63b8ff" d="M351.43,-219.98C396.77,-210.78 469.11,-196.09 518.15,-186.13"/>
<polygon fill="#63b8ff" stroke="#63b8ff" points="519.13,-189.5 528.24,-184.08 517.74,-182.64 519.13,-189.5"/>
</a>
</g>
</g>
<!-- Node19 -->
<g id="Node000019" class="node">
<title>Node19</title>
<g id="a_Node000019"><a xlink:href="_sparse_set_8hpp.html" target="_top" xlink:title=" ">
<polygon fill="white" stroke="#666666" points="243.5,-184 135.5,-184 135.5,-165 243.5,-165 243.5,-184"/>
<text text-anchor="middle" x="189.5" y="-172" font-family="Helvetica,sans-Serif" font-size="10.00">ECS/SparseSet.hpp</text>
</a>
</g>
</g>
<!-- Node6&#45;&gt;Node19 -->
<g id="edge23_Node000006_Node000019" class="edge">
<title>Node6&#45;&gt;Node19</title>
<g id="a_edge23_Node000006_Node000019"><a xlink:title=" ">
<path fill="none" stroke="#63b8ff" d="M290.22,-219.98C270.83,-211.42 240.69,-198.11 218.43,-188.28"/>
<polygon fill="#63b8ff" stroke="#63b8ff" points="219.69,-185.01 209.13,-184.17 216.86,-191.41 219.69,-185.01"/>
</a>
</g>
</g>
<!-- Node9 -->
<g id="Node000009" class="node">
<title>Node9</title>
<g id="a_Node000009"><a xlink:title=" ">
<polygon fill="#e0e0e0" stroke="#999999" points="64.5,-129 16.5,-129 16.5,-110 64.5,-110 64.5,-129"/>
<text text-anchor="middle" x="40.5" y="-117" font-family="Helvetica,sans-Serif" font-size="10.00">mutex</text>
</a>
</g>
</g>
<!-- Node8&#45;&gt;Node9 -->
<g id="edge8_Node000008_Node000009" class="edge">
<title>Node8&#45;&gt;Node9</title>
<g id="a_edge8_Node000008_Node000009"><a xlink:title=" ">
<path fill="none" stroke="#63b8ff" d="M55.53,-164.75C53.14,-157.72 49.71,-147.62 46.73,-138.84"/>
<polygon fill="#63b8ff" stroke="#63b8ff" points="49.95,-137.43 43.42,-129.09 43.32,-139.68 49.95,-137.43"/>
</a>
</g>
</g>
<!-- Node10 -->
<g id="Node000010" class="node">
<title>Node10</title>
<g id="a_Node000010"><a xlink:title=" ">
<polygon fill="#e0e0e0" stroke="#999999" points="172,-74 125,-74 125,-55 172,-55 172,-74"/>
<text text-anchor="middle" x="148.5" y="-62" font-family="Helvetica,sans-Serif" font-size="10.00">queue</text>
</a>
</g>
</g>
<!-- Node8&#45;&gt;Node10 -->
<g id="edge9_Node000008_Node000010" class="edge">
<title>Node8&#45;&gt;Node10</title>
<g id="a_edge9_Node000008_Node000010"><a xlink:title=" ">
<path fill="none" stroke="#63b8ff" d="M65.87,-164.66C80.9,-146.61 115.35,-105.28 134.69,-82.08"/>
<polygon fill="#63b8ff" stroke="#63b8ff" points="137.57,-84.08 141.28,-74.16 132.19,-79.6 137.57,-84.08"/>
</a>
</g>
</g>
<!-- Node12 -->
<g id="Node000012" class="node">
<title>Node12</title>
<g id="a_Node000012"><a xlink:title=" ">
<polygon fill="#e0e0e0" stroke="#999999" points="379,-19 326,-19 326,0 379,0 379,-19"/>
<text text-anchor="middle" x="352.5" y="-7" font-family="Helvetica,sans-Serif" font-size="10.00">stdlib.h</text>
</a>
</g>
</g>
<!-- Node11&#45;&gt;Node12 -->
<g id="edge11_Node000011_Node000012" class="edge">
<title>Node11&#45;&gt;Node12</title>
<g id="a_edge11_Node000011_Node000012"><a xlink:title=" ">
<path fill="none" stroke="#63b8ff" d="M464.13,-54.98C442.35,-46.3 408.34,-32.75 383.58,-22.88"/>
<polygon fill="#63b8ff" stroke="#63b8ff" points="384.84,-19.62 374.26,-19.17 382.25,-26.12 384.84,-19.62"/>
</a>
</g>
</g>
<!-- Node13&#45;&gt;Node7 -->
<g id="edge16_Node000013_Node000007" class="edge">
<title>Node13&#45;&gt;Node7</title>
<g id="a_edge16_Node000013_Node000007"><a xlink:title=" ">
<path fill="none" stroke="#63b8ff" d="M389.24,-164.98C374.37,-156.69 351.52,-143.94 334.08,-134.22"/>
<polygon fill="#63b8ff" stroke="#63b8ff" points="335.48,-130.99 325.04,-129.17 332.07,-137.1 335.48,-130.99"/>
</a>
</g>
</g>
<!-- Node13&#45;&gt;Node11 -->
<g id="edge17_Node000013_Node000011" class="edge">
<title>Node13&#45;&gt;Node11</title>
<g id="a_edge17_Node000013_Node000011"><a xlink:title=" ">
<path fill="none" stroke="#63b8ff" d="M466.81,-164.97C528.27,-155.93 614.46,-141.27 624.5,-129 651.77,-95.67 588.57,-79.08 538.67,-71.4"/>
<polygon fill="#63b8ff" stroke="#63b8ff" points="538.98,-67.9 528.58,-69.93 537.98,-74.83 538.98,-67.9"/>
</a>
</g>
</g>
<!-- Node14 -->
<g id="Node000014" class="node">
<title>Node14</title>
<g id="a_Node000014"><a xlink:title=" ">
<polygon fill="#e0e0e0" stroke="#999999" points="436,-129 371,-129 371,-110 436,-110 436,-129"/>
<text text-anchor="middle" x="403.5" y="-117" font-family="Helvetica,sans-Serif" font-size="10.00">functional</text>
</a>
</g>
</g>
<!-- Node13&#45;&gt;Node14 -->
<g id="edge13_Node000013_Node000014" class="edge">
<title>Node13&#45;&gt;Node14</title>
<g id="a_edge13_Node000013_Node000014"><a xlink:title=" ">
<path fill="none" stroke="#63b8ff" d="M404.33,-164.75C404.2,-157.8 404.02,-147.85 403.85,-139.13"/>
<polygon fill="#63b8ff" stroke="#63b8ff" points="407.35,-139.02 403.66,-129.09 400.35,-139.15 407.35,-139.02"/>
</a>
</g>
</g>
<!-- Node15 -->
<g id="Node000015" class="node">
<title>Node15</title>
<g id="a_Node000015"><a xlink:title=" ">
<polygon fill="#e0e0e0" stroke="#999999" points="504.5,-129 454.5,-129 454.5,-110 504.5,-110 504.5,-129"/>
<text text-anchor="middle" x="479.5" y="-117" font-family="Helvetica,sans-Serif" font-size="10.00">ranges</text>
</a>
</g>
</g>
<!-- Node13&#45;&gt;Node15 -->
<g id="edge14_Node000013_Node000015" class="edge">
<title>Node13&#45;&gt;Node15</title>
<g id="a_edge14_Node000013_Node000015"><a xlink:title=" ">
<path fill="none" stroke="#63b8ff" d="M416.55,-164.98C427.96,-156.92 445.33,-144.65 458.93,-135.03"/>
<polygon fill="#63b8ff" stroke="#63b8ff" points="461.08,-137.8 467.23,-129.17 457.04,-132.08 461.08,-137.8"/>
</a>
</g>
</g>
<!-- Node16 -->
<g id="Node000016" class="node">
<title>Node16</title>
<g id="a_Node000016"><a xlink:title=" ">
<polygon fill="#e0e0e0" stroke="#999999" points="616,-129 523,-129 523,-110 616,-110 616,-129"/>
<text text-anchor="middle" x="569.5" y="-117" font-family="Helvetica,sans-Serif" font-size="10.00">unordered_map</text>
</a>
</g>
</g>
<!-- Node13&#45;&gt;Node16 -->
<g id="edge15_Node000013_Node000016" class="edge">
<title>Node13&#45;&gt;Node16</title>
<g id="a_edge15_Node000013_Node000016"><a xlink:title=" ">
<path fill="none" stroke="#63b8ff" d="M431.01,-164.98C458.71,-156.09 502.36,-142.07 533.24,-132.15"/>
<polygon fill="#63b8ff" stroke="#63b8ff" points="534.33,-135.47 542.78,-129.08 532.19,-128.81 534.33,-135.47"/>
</a>
</g>
</g>
<!-- Node17&#45;&gt;Node10 -->
<g id="edge20_Node000017_Node000010" class="edge">
<title>Node17&#45;&gt;Node10</title>
<g id="a_edge20_Node000017_Node000010"><a xlink:title=" ">
<path fill="none" stroke="#63b8ff" d="M178.56,-109.75C173.52,-102.34 166.16,-91.5 159.99,-82.41"/>
<polygon fill="#63b8ff" stroke="#63b8ff" points="162.85,-80.39 154.33,-74.09 157.06,-84.33 162.85,-80.39"/>
</a>
</g>
</g>
<!-- Node17&#45;&gt;Node11 -->
<g id="edge21_Node000017_Node000011" class="edge">
<title>Node17&#45;&gt;Node11</title>
<g id="a_edge21_Node000017_Node000011"><a xlink:title=" ">
<path fill="none" stroke="#63b8ff" d="M232.86,-109.98C287.3,-100.4 375.51,-84.87 431.98,-74.92"/>
<polygon fill="#63b8ff" stroke="#63b8ff" points="432.9,-78.32 442.14,-73.13 431.69,-71.42 432.9,-78.32"/>
</a>
</g>
</g>
<!-- Node17&#45;&gt;Node12 -->
<g id="edge19_Node000017_Node000012" class="edge">
<title>Node17&#45;&gt;Node12</title>
<g id="a_edge19_Node000017_Node000012"><a xlink:title=" ">
<path fill="none" stroke="#63b8ff" d="M197.96,-109.84C226.84,-91.28 294.96,-47.49 330.33,-24.75"/>
<polygon fill="#63b8ff" stroke="#63b8ff" points="332.45,-27.55 338.97,-19.2 328.67,-21.66 332.45,-27.55"/>
</a>
</g>
</g>
<!-- Node19&#45;&gt;Node17 -->
<g id="edge24_Node000019_Node000017" class="edge">
<title>Node19&#45;&gt;Node17</title>
<g id="a_edge24_Node000019_Node000017"><a xlink:title=" ">
<path fill="none" stroke="#63b8ff" d="M188.67,-164.75C188.02,-157.8 187.08,-147.85 186.26,-139.13"/>
<polygon fill="#63b8ff" stroke="#63b8ff" points="189.73,-138.72 185.31,-129.09 182.77,-139.37 189.73,-138.72"/>
</a>
</g>
</g>
<!-- Node21&#45;&gt;Node20 -->
<g id="edge27_Node000021_Node000020" class="edge">
<title>Node21&#45;&gt;Node20</title>
<g id="a_edge27_Node000021_Node000020"><a xlink:title=" ">
<path fill="none" stroke="#63b8ff" d="M461.88,-274.75C458.04,-267.49 452.48,-256.95 447.74,-247.98"/>
<polygon fill="#63b8ff" stroke="#63b8ff" points="450.8,-246.3 443.04,-239.09 444.61,-249.57 450.8,-246.3"/>
</a>
</g>
</g>
</g>
</svg>
