<?xml version="1.0" encoding="UTF-8" standalone="no"?>
<!DOCTYPE svg PUBLIC "-//W3C//DTD SVG 1.1//EN"
 "http://www.w3.org/Graphics/SVG/1.1/DTD/svg11.dtd">
<!-- Generated by graphviz version 2.43.0 (0)
 -->
<!-- Title: src/Rendering/FrameBuffers/DepthFrameBuffer.hpp Pages: 1 -->
<svg width="335pt" height="263pt"
 viewBox="0.00 0.00 334.50 263.00" xmlns="http://www.w3.org/2000/svg" xmlns:xlink="http://www.w3.org/1999/xlink">
<g id="graph0" class="graph" transform="scale(1 1) rotate(0) translate(4 259)">
<title>src/Rendering/FrameBuffers/DepthFrameBuffer.hpp</title>
<polygon fill="white" stroke="transparent" points="-4,4 -4,-259 330.5,-259 330.5,4 -4,4"/>
<!-- Node1 -->
<g id="node1" class="node">
<title>Node1</title>
<g id="a_node1"><a xlink:title=" ">
<polygon fill="#bfbfbf" stroke="black" points="10,-224.5 10,-254.5 162,-254.5 162,-224.5 10,-224.5"/>
<text text-anchor="start" x="18" y="-242.5" font-family="Helvetica,sans-Serif" font-size="10.00">src/Rendering/FrameBuffers</text>
<text text-anchor="middle" x="86" y="-231.5" font-family="Helvetica,sans-Serif" font-size="10.00">/DepthFrameBuffer.hpp</text>
</a>
</g>
</g>
<!-- Node2 -->
<g id="node2" class="node">
<title>Node2</title>
<g id="a_node2"><a xlink:title=" ">
<polygon fill="white" stroke="#bfbfbf" points="0,-168.5 0,-187.5 58,-187.5 58,-168.5 0,-168.5"/>
<text text-anchor="middle" x="29" y="-175.5" font-family="Helvetica,sans-Serif" font-size="10.00">memory</text>
</a>
</g>
</g>
<!-- Node1&#45;&gt;Node2 -->
<g id="edge1" class="edge">
<title>Node1&#45;&gt;Node2</title>
<path fill="none" stroke="midnightblue" d="M72.49,-224.4C64.04,-215.58 53.12,-204.18 44.34,-195.02"/>
<polygon fill="midnightblue" stroke="midnightblue" points="46.74,-192.46 37.29,-187.66 41.68,-197.3 46.74,-192.46"/>
</g>
<!-- Node3 -->
<g id="node3" class="node">
<title>Node3</title>
<g id="a_node3"><a xlink:title=" ">
<polygon fill="white" stroke="#bfbfbf" points="50.5,-112.5 50.5,-131.5 121.5,-131.5 121.5,-112.5 50.5,-112.5"/>
<text text-anchor="middle" x="86" y="-119.5" font-family="Helvetica,sans-Serif" font-size="10.00">glad/glad.h</text>
</a>
</g>
</g>
<!-- Node1&#45;&gt;Node3 -->
<g id="edge2" class="edge">
<title>Node1&#45;&gt;Node3</title>
<path fill="none" stroke="midnightblue" d="M86,-224.34C86,-203.62 86,-165.02 86,-141.9"/>
<polygon fill="midnightblue" stroke="midnightblue" points="89.5,-141.67 86,-131.67 82.5,-141.67 89.5,-141.67"/>
</g>
<!-- Node4 -->
<g id="node4" class="node">
<title>Node4</title>
<g id="a_node4"><a xlink:href="_texture_8hpp.html" target="_top" xlink:title=" ">
<polygon fill="white" stroke="black" points="114,-168.5 114,-187.5 240,-187.5 240,-168.5 114,-168.5"/>
<text text-anchor="middle" x="177" y="-175.5" font-family="Helvetica,sans-Serif" font-size="10.00">Rendering/Texture.hpp</text>
</a>
</g>
</g>
<!-- Node1&#45;&gt;Node4 -->
<g id="edge3" class="edge">
<title>Node1&#45;&gt;Node4</title>
<path fill="none" stroke="midnightblue" d="M107.57,-224.4C121.88,-215.04 140.61,-202.79 155.01,-193.38"/>
<polygon fill="midnightblue" stroke="midnightblue" points="157.3,-196.06 163.76,-187.66 153.47,-190.2 157.3,-196.06"/>
</g>
<!-- Node4&#45;&gt;Node3 -->
<g id="edge4" class="edge">
<title>Node4&#45;&gt;Node3</title>
<path fill="none" stroke="midnightblue" d="M162.38,-168.32C148.05,-159.82 125.99,-146.73 109.25,-136.8"/>
<polygon fill="midnightblue" stroke="midnightblue" points="110.97,-133.75 100.58,-131.65 107.4,-139.77 110.97,-133.75"/>
</g>
<!-- Node5 -->
<g id="node5" class="node">
<title>Node5</title>
<g id="a_node5"><a xlink:href="_image_8hpp.html" target="_top" xlink:title=" ">
<polygon fill="white" stroke="black" points="139.5,-112.5 139.5,-131.5 280.5,-131.5 280.5,-112.5 139.5,-112.5"/>
<text text-anchor="middle" x="210" y="-119.5" font-family="Helvetica,sans-Serif" font-size="10.00">AssetManager/Image.hpp</text>
</a>
</g>
</g>
<!-- Node4&#45;&gt;Node5 -->
<g id="edge5" class="edge">
<title>Node4&#45;&gt;Node5</title>
<path fill="none" stroke="midnightblue" d="M182.45,-168.08C187.01,-160.61 193.67,-149.72 199.29,-140.52"/>
<polygon fill="midnightblue" stroke="midnightblue" points="202.42,-142.11 204.65,-131.75 196.45,-138.46 202.42,-142.11"/>
</g>
<!-- Node6 -->
<g id="node6" class="node">
<title>Node6</title>
<g id="a_node6"><a xlink:title=" ">
<polygon fill="white" stroke="#bfbfbf" points="175,-0.5 175,-19.5 243,-19.5 243,-0.5 175,-0.5"/>
<text text-anchor="middle" x="209" y="-7.5" font-family="Helvetica,sans-Serif" font-size="10.00">filesystem</text>
</a>
</g>
</g>
<!-- Node5&#45;&gt;Node6 -->
<g id="edge6" class="edge">
<title>Node5&#45;&gt;Node6</title>
<path fill="none" stroke="midnightblue" d="M201.79,-112.18C194.46,-103.66 184.24,-90.02 180,-76 174.82,-58.9 184.75,-40.37 194.37,-27.49"/>
<polygon fill="midnightblue" stroke="midnightblue" points="197.22,-29.54 200.79,-19.56 191.78,-25.13 197.22,-29.54"/>
</g>
<!-- Node7 -->
<g id="node7" class="node">
<title>Node7</title>
<g id="a_node7"><a xlink:href="_asset_8hpp.html" target="_top" xlink:title=" ">
<polygon fill="white" stroke="black" points="189.5,-56.5 189.5,-75.5 326.5,-75.5 326.5,-56.5 189.5,-56.5"/>
<text text-anchor="middle" x="258" y="-63.5" font-family="Helvetica,sans-Serif" font-size="10.00">AssetManager/Asset.hpp</text>
</a>
</g>
</g>
<!-- Node5&#45;&gt;Node7 -->
<g id="edge7" class="edge">
<title>Node5&#45;&gt;Node7</title>
<path fill="none" stroke="midnightblue" d="M217.93,-112.08C224.85,-104.3 235.07,-92.8 243.45,-83.37"/>
<polygon fill="midnightblue" stroke="midnightblue" points="246.19,-85.55 250.22,-75.75 240.96,-80.9 246.19,-85.55"/>
</g>
<!-- Node7&#45;&gt;Node6 -->
<g id="edge8" class="edge">
<title>Node7&#45;&gt;Node6</title>
<path fill="none" stroke="midnightblue" d="M249.91,-56.08C242.84,-48.3 232.41,-36.8 223.85,-27.37"/>
<polygon fill="midnightblue" stroke="midnightblue" points="226.25,-24.8 216.94,-19.75 221.07,-29.51 226.25,-24.8"/>
</g>
</g>
</svg>
