<?xml version="1.0" encoding="UTF-8" standalone="no"?>
<!DOCTYPE svg PUBLIC "-//W3C//DTD SVG 1.1//EN"
 "http://www.w3.org/Graphics/SVG/1.1/DTD/svg11.dtd">
<!-- Generated by graphviz version 2.43.0 (0)
 -->
<!-- Title: src/Rendering/FrameBuffers/DepthCubeMapFrameBuffer.cpp Pages: 1 -->
<svg width="572pt" height="445pt"
 viewBox="0.00 0.00 571.50 445.00" xmlns="http://www.w3.org/2000/svg" xmlns:xlink="http://www.w3.org/1999/xlink">
<g id="graph0" class="graph" transform="scale(1 1) rotate(0) translate(4 441)">
<title>src/Rendering/FrameBuffers/DepthCubeMapFrameBuffer.cpp</title>
<!-- Node1 -->
<g id="Node000001" class="node">
<title>Node1</title>
<g id="a_Node000001"><a xlink:title=" ">
<polygon fill="#999999" stroke="#666666" points="227.5,-437 53.5,-437 53.5,-407 227.5,-407 227.5,-437"/>
<text text-anchor="start" x="61.5" y="-425" font-family="Helvetica,sans-Serif" font-size="10.00">src/Rendering/FrameBuffers</text>
<text text-anchor="middle" x="140.5" y="-414" font-family="Helvetica,sans-Serif" font-size="10.00">/DepthCubeMapFrameBuffer.cpp</text>
</a>
</g>
</g>
<!-- Node2 -->
<g id="Node000002" class="node">
<title>Node2</title>
<g id="a_Node000002"><a xlink:href="_logger_8hpp.html" target="_top" xlink:title=" ">
<polygon fill="white" stroke="#666666" points="117,-365.5 0,-365.5 0,-346.5 117,-346.5 117,-365.5"/>
<text text-anchor="middle" x="58.5" y="-353.5" font-family="Helvetica,sans-Serif" font-size="10.00">Common/Logger.hpp</text>
</a>
</g>
</g>
<!-- Node1&#45;&gt;Node2 -->
<g id="edge1_Node000001_Node000002" class="edge">
<title>Node1&#45;&gt;Node2</title>
<g id="a_edge1_Node000001_Node000002"><a xlink:title=" ">
<path fill="none" stroke="#63b8ff" d="M122.3,-406.8C109.14,-396.53 91.39,-382.67 77.95,-372.18"/>
<polygon fill="#63b8ff" stroke="#63b8ff" points="79.87,-369.24 69.83,-365.84 75.56,-374.76 79.87,-369.24"/>
</a>
</g>
</g>
<!-- Node5 -->
<g id="Node000005" class="node">
<title>Node5</title>
<g id="a_Node000005"><a xlink:href="_depth_cube_map_frame_buffer_8hpp.html" target="_top" xlink:title=" ">
<polygon fill="white" stroke="#666666" points="310,-371 135,-371 135,-341 310,-341 310,-371"/>
<text text-anchor="start" x="143" y="-359" font-family="Helvetica,sans-Serif" font-size="10.00">Rendering/FrameBuffers</text>
<text text-anchor="middle" x="222.5" y="-348" font-family="Helvetica,sans-Serif" font-size="10.00">/DepthCubeMapFrameBuffer.hpp</text>
</a>
</g>
</g>
<!-- Node1&#45;&gt;Node5 -->
<g id="edge4_Node000001_Node000005" class="edge">
<title>Node1&#45;&gt;Node5</title>
<g id="a_edge4_Node000001_Node000005"><a xlink:title=" ">
<path fill="none" stroke="#63b8ff" d="M158.7,-406.8C169.74,-398.18 184.01,-387.04 196.26,-377.48"/>
<polygon fill="#63b8ff" stroke="#63b8ff" points="198.62,-380.08 204.35,-371.16 194.32,-374.56 198.62,-380.08"/>
</a>
</g>
</g>
<!-- Node3 -->
<g id="Node000003" class="node">
<title>Node3</title>
<g id="a_Node000003"><a xlink:title=" ">
<polygon fill="#e0e0e0" stroke="#999999" points="189.5,-19 141.5,-19 141.5,0 189.5,0 189.5,-19"/>
<text text-anchor="middle" x="165.5" y="-7" font-family="Helvetica,sans-Serif" font-size="10.00">mutex</text>
</a>
</g>
</g>
<!-- Node2&#45;&gt;Node3 -->
<g id="edge2_Node000002_Node000003" class="edge">
<title>Node2&#45;&gt;Node3</title>
<g id="a_edge2_Node000002_Node000003"><a xlink:title=" ">
<path fill="none" stroke="#63b8ff" d="M56.41,-346.23C52.07,-327.25 42.5,-280.9 42.5,-241.5 42.5,-241.5 42.5,-241.5 42.5,-118.5 42.5,-70.63 95.75,-39 132.18,-22.96"/>
<polygon fill="#63b8ff" stroke="#63b8ff" points="133.64,-26.14 141.49,-19.03 130.92,-19.69 133.64,-26.14"/>
</a>
</g>
</g>
<!-- Node4 -->
<g id="Node000004" class="node">
<title>Node4</title>
<g id="a_Node000004"><a xlink:title=" ">
<polygon fill="#e0e0e0" stroke="#999999" points="118,-305 71,-305 71,-286 118,-286 118,-305"/>
<text text-anchor="middle" x="94.5" y="-293" font-family="Helvetica,sans-Serif" font-size="10.00">queue</text>
</a>
</g>
</g>
<!-- Node2&#45;&gt;Node4 -->
<g id="edge3_Node000002_Node000004" class="edge">
<title>Node2&#45;&gt;Node4</title>
<g id="a_edge3_Node000002_Node000004"><a xlink:title=" ">
<path fill="none" stroke="#63b8ff" d="M63.81,-346.37C69.08,-337.81 77.29,-324.47 83.89,-313.74"/>
<polygon fill="#63b8ff" stroke="#63b8ff" points="86.91,-315.52 89.17,-305.17 80.94,-311.85 86.91,-315.52"/>
</a>
</g>
</g>
<!-- Node6 -->
<g id="Node000006" class="node">
<title>Node6</title>
<g id="a_Node000006"><a xlink:title=" ">
<polygon fill="#e0e0e0" stroke="#999999" points="194.5,-305 136.5,-305 136.5,-286 194.5,-286 194.5,-305"/>
<text text-anchor="middle" x="165.5" y="-293" font-family="Helvetica,sans-Serif" font-size="10.00">memory</text>
</a>
</g>
</g>
<!-- Node5&#45;&gt;Node6 -->
<g id="edge5_Node000005_Node000006" class="edge">
<title>Node5&#45;&gt;Node6</title>
<g id="a_edge5_Node000005_Node000006"><a xlink:title=" ">
<path fill="none" stroke="#63b8ff" d="M208.7,-340.84C200.43,-332.35 189.88,-321.52 181.27,-312.69"/>
<polygon fill="#63b8ff" stroke="#63b8ff" points="183.53,-309.99 174.04,-305.27 178.51,-314.87 183.53,-309.99"/>
</a>
</g>
</g>
<!-- Node7 -->
<g id="Node000007" class="node">
<title>Node7</title>
<g id="a_Node000007"><a xlink:title=" ">
<polygon fill="#e0e0e0" stroke="#999999" points="258,-250 187,-250 187,-231 258,-231 258,-250"/>
<text text-anchor="middle" x="222.5" y="-238" font-family="Helvetica,sans-Serif" font-size="10.00">glad/glad.h</text>
</a>
</g>
</g>
<!-- Node5&#45;&gt;Node7 -->
<g id="edge6_Node000005_Node000007" class="edge">
<title>Node5&#45;&gt;Node7</title>
<g id="a_edge6_Node000005_Node000007"><a xlink:title=" ">
<path fill="none" stroke="#63b8ff" d="M222.5,-340.63C222.5,-320.21 222.5,-282.81 222.5,-260.24"/>
<polygon fill="#63b8ff" stroke="#63b8ff" points="226,-260.23 222.5,-250.23 219,-260.23 226,-260.23"/>
</a>
</g>
</g>
<!-- Node8 -->
<g id="Node000008" class="node">
<title>Node8</title>
<g id="a_Node000008"><a xlink:href="_texture_8hpp.html" target="_top" xlink:title=" ">
<polygon fill="white" stroke="#666666" points="396.5,-305 250.5,-305 250.5,-286 396.5,-286 396.5,-305"/>
<text text-anchor="middle" x="323.5" y="-293" font-family="Helvetica,sans-Serif" font-size="10.00">AssetManager/Texture.hpp</text>
</a>
</g>
</g>
<!-- Node5&#45;&gt;Node8 -->
<g id="edge7_Node000005_Node000008" class="edge">
<title>Node5&#45;&gt;Node8</title>
<g id="a_edge7_Node000005_Node000008"><a xlink:title=" ">
<path fill="none" stroke="#63b8ff" d="M246.69,-340.99C262.79,-331.66 283.84,-319.47 299.83,-310.21"/>
<polygon fill="#63b8ff" stroke="#63b8ff" points="301.69,-313.18 308.58,-305.14 298.18,-307.12 301.69,-313.18"/>
</a>
</g>
</g>
<!-- Node8&#45;&gt;Node7 -->
<g id="edge8_Node000008_Node000007" class="edge">
<title>Node8&#45;&gt;Node7</title>
<g id="a_edge8_Node000008_Node000007"><a xlink:title=" ">
<path fill="none" stroke="#63b8ff" d="M307.27,-285.98C291.32,-277.61 266.72,-264.7 248.12,-254.95"/>
<polygon fill="#63b8ff" stroke="#63b8ff" points="249.5,-251.72 239.02,-250.17 246.25,-257.92 249.5,-251.72"/>
</a>
</g>
</g>
<!-- Node9 -->
<g id="Node000009" class="node">
<title>Node9</title>
<g id="a_Node000009"><a xlink:title=" ">
<polygon fill="#e0e0e0" stroke="#999999" points="354.5,-250 276.5,-250 276.5,-231 354.5,-231 354.5,-250"/>
<text text-anchor="middle" x="315.5" y="-238" font-family="Helvetica,sans-Serif" font-size="10.00">glm/glm.hpp</text>
</a>
</g>
</g>
<!-- Node8&#45;&gt;Node9 -->
<g id="edge9_Node000008_Node000009" class="edge">
<title>Node8&#45;&gt;Node9</title>
<g id="a_edge9_Node000008_Node000009"><a xlink:title=" ">
<path fill="none" stroke="#63b8ff" d="M322.18,-285.75C321.13,-278.8 319.63,-268.85 318.31,-260.13"/>
<polygon fill="#63b8ff" stroke="#63b8ff" points="321.75,-259.45 316.8,-250.09 314.83,-260.5 321.75,-259.45"/>
</a>
</g>
</g>
<!-- Node10 -->
<g id="Node000010" class="node">
<title>Node10</title>
<g id="a_Node000010"><a xlink:href="_image_8hpp.html" target="_top" xlink:title=" ">
<polygon fill="white" stroke="#666666" points="514,-250 373,-250 373,-231 514,-231 514,-250"/>
<text text-anchor="middle" x="443.5" y="-238" font-family="Helvetica,sans-Serif" font-size="10.00">AssetManager/Image.hpp</text>
</a>
</g>
</g>
<!-- Node8&#45;&gt;Node10 -->
<g id="edge10_Node000008_Node000010" class="edge">
<title>Node8&#45;&gt;Node10</title>
<g id="a_edge10_Node000008_Node000010"><a xlink:title=" ">
<path fill="none" stroke="#63b8ff" d="M342.78,-285.98C362.17,-277.42 392.31,-264.11 414.57,-254.28"/>
<polygon fill="#63b8ff" stroke="#63b8ff" points="416.14,-257.41 423.87,-250.17 413.31,-251.01 416.14,-257.41"/>
</a>
</g>
</g>
<!-- Node11 -->
<g id="Node000011" class="node">
<title>Node11</title>
<g id="a_Node000011"><a xlink:title=" ">
<polygon fill="#e0e0e0" stroke="#999999" points="352.5,-129 284.5,-129 284.5,-110 352.5,-110 352.5,-129"/>
<text text-anchor="middle" x="318.5" y="-117" font-family="Helvetica,sans-Serif" font-size="10.00">filesystem</text>
</a>
</g>
</g>
<!-- Node10&#45;&gt;Node11 -->
<g id="edge11_Node000010_Node000011" class="edge">
<title>Node10&#45;&gt;Node11</title>
<g id="a_edge11_Node000010_Node000011"><a xlink:title=" ">
<path fill="none" stroke="#63b8ff" d="M409.89,-230.89C389.48,-224.13 364.23,-212.81 347.5,-195 332.99,-179.55 325.47,-156.01 321.76,-139.54"/>
<polygon fill="#63b8ff" stroke="#63b8ff" points="325.14,-138.58 319.77,-129.45 318.28,-139.94 325.14,-138.58"/>
</a>
</g>
</g>
<!-- Node12 -->
<g id="Node000012" class="node">
<title>Node12</title>
<g id="a_Node000012"><a xlink:href="_path_constructible_asset_8hpp.html" target="_top" xlink:title=" ">
<polygon fill="white" stroke="#666666" points="531,-195 356,-195 356,-165 531,-165 531,-195"/>
<text text-anchor="start" x="364" y="-183" font-family="Helvetica,sans-Serif" font-size="10.00">AssetManager/PathConstructible</text>
<text text-anchor="middle" x="443.5" y="-172" font-family="Helvetica,sans-Serif" font-size="10.00">Asset.hpp</text>
</a>
</g>
</g>
<!-- Node10&#45;&gt;Node12 -->
<g id="edge12_Node000010_Node000012" class="edge">
<title>Node10&#45;&gt;Node12</title>
<g id="a_edge12_Node000010_Node000012"><a xlink:title=" ">
<path fill="none" stroke="#63b8ff" d="M443.5,-230.87C443.5,-224.11 443.5,-214.35 443.5,-205.26"/>
<polygon fill="#63b8ff" stroke="#63b8ff" points="447,-205.11 443.5,-195.11 440,-205.11 447,-205.11"/>
</a>
</g>
</g>
<!-- Node12&#45;&gt;Node11 -->
<g id="edge13_Node000012_Node000011" class="edge">
<title>Node12&#45;&gt;Node11</title>
<g id="a_edge13_Node000012_Node000011"><a xlink:title=" ">
<path fill="none" stroke="#63b8ff" d="M413.56,-164.99C393.08,-155.4 366.12,-142.79 346.15,-133.44"/>
<polygon fill="#63b8ff" stroke="#63b8ff" points="347.5,-130.21 336.96,-129.14 344.53,-136.55 347.5,-130.21"/>
</a>
</g>
</g>
<!-- Node13 -->
<g id="Node000013" class="node">
<title>Node13</title>
<g id="a_Node000013"><a xlink:href="_instance_counter_8hpp.html" target="_top" xlink:title=" ">
<polygon fill="white" stroke="#666666" points="534.5,-129 370.5,-129 370.5,-110 534.5,-110 534.5,-129"/>
<text text-anchor="middle" x="452.5" y="-117" font-family="Helvetica,sans-Serif" font-size="10.00">Common/InstanceCounter.hpp</text>
</a>
</g>
</g>
<!-- Node12&#45;&gt;Node13 -->
<g id="edge14_Node000012_Node000013" class="edge">
<title>Node12&#45;&gt;Node13</title>
<g id="a_edge14_Node000012_Node000013"><a xlink:title=" ">
<path fill="none" stroke="#63b8ff" d="M445.68,-164.84C446.87,-157.13 448.35,-147.49 449.63,-139.17"/>
<polygon fill="#63b8ff" stroke="#63b8ff" points="453.09,-139.68 451.15,-129.27 446.17,-138.62 453.09,-139.68"/>
</a>
</g>
</g>
<!-- Node14 -->
<g id="Node000014" class="node">
<title>Node14</title>
<g id="a_Node000014"><a xlink:title=" ">
<polygon fill="#e0e0e0" stroke="#999999" points="374.5,-74 324.5,-74 324.5,-55 374.5,-55 374.5,-74"/>
<text text-anchor="middle" x="349.5" y="-62" font-family="Helvetica,sans-Serif" font-size="10.00">atomic</text>
</a>
</g>
</g>
<!-- Node13&#45;&gt;Node14 -->
<g id="edge15_Node000013_Node000014" class="edge">
<title>Node13&#45;&gt;Node14</title>
<g id="a_edge15_Node000013_Node000014"><a xlink:title=" ">
<path fill="none" stroke="#63b8ff" d="M435.95,-109.98C419.61,-101.57 394.37,-88.59 375.37,-78.81"/>
<polygon fill="#63b8ff" stroke="#63b8ff" points="376.84,-75.63 366.35,-74.17 373.64,-81.86 376.84,-75.63"/>
</a>
</g>
</g>
<!-- Node15 -->
<g id="Node000015" class="node">
<title>Node15</title>
<g id="a_Node000015"><a xlink:href="_profiler_8hpp.html" target="_top" xlink:title=" ">
<polygon fill="white" stroke="#666666" points="512,-74 393,-74 393,-55 512,-55 512,-74"/>
<text text-anchor="middle" x="452.5" y="-62" font-family="Helvetica,sans-Serif" font-size="10.00">Common/Profiler.hpp</text>
</a>
</g>
</g>
<!-- Node13&#45;&gt;Node15 -->
<g id="edge16_Node000013_Node000015" class="edge">
<title>Node13&#45;&gt;Node15</title>
<g id="a_edge16_Node000013_Node000015"><a xlink:title=" ">
<path fill="none" stroke="#63b8ff" d="M452.5,-109.75C452.5,-102.8 452.5,-92.85 452.5,-84.13"/>
<polygon fill="#63b8ff" stroke="#63b8ff" points="456,-84.09 452.5,-74.09 449,-84.09 456,-84.09"/>
</a>
</g>
</g>
<!-- Node15&#45;&gt;Node3 -->
<g id="edge19_Node000015_Node000003" class="edge">
<title>Node15&#45;&gt;Node3</title>
<g id="a_edge19_Node000015_Node000003"><a xlink:title=" ">
<path fill="none" stroke="#63b8ff" d="M406.39,-54.98C348.72,-44.34 251.33,-26.35 199.82,-16.84"/>
<polygon fill="#63b8ff" stroke="#63b8ff" points="200.32,-13.37 189.86,-15 199.05,-20.26 200.32,-13.37"/>
</a>
</g>
</g>
<!-- Node16 -->
<g id="Node000016" class="node">
<title>Node16</title>
<g id="a_Node000016"><a xlink:title=" ">
<polygon fill="#e0e0e0" stroke="#999999" points="379.5,-19 329.5,-19 329.5,0 379.5,0 379.5,-19"/>
<text text-anchor="middle" x="354.5" y="-7" font-family="Helvetica,sans-Serif" font-size="10.00">chrono</text>
</a>
</g>
</g>
<!-- Node15&#45;&gt;Node16 -->
<g id="edge17_Node000015_Node000016" class="edge">
<title>Node15&#45;&gt;Node16</title>
<g id="a_edge17_Node000015_Node000016"><a xlink:title=" ">
<path fill="none" stroke="#63b8ff" d="M436.75,-54.98C421.27,-46.61 397.41,-33.7 379.36,-23.95"/>
<polygon fill="#63b8ff" stroke="#63b8ff" points="380.99,-20.85 370.53,-19.17 377.66,-27.01 380.99,-20.85"/>
</a>
</g>
</g>
<!-- Node17 -->
<g id="Node000017" class="node">
<title>Node17</title>
<g id="a_Node000017"><a xlink:title=" ">
<polygon fill="#e0e0e0" stroke="#999999" points="445.5,-19 397.5,-19 397.5,0 445.5,0 445.5,-19"/>
<text text-anchor="middle" x="421.5" y="-7" font-family="Helvetica,sans-Serif" font-size="10.00">thread</text>
</a>
</g>
</g>
<!-- Node15&#45;&gt;Node17 -->
<g id="edge18_Node000015_Node000017" class="edge">
<title>Node15&#45;&gt;Node17</title>
<g id="a_edge18_Node000015_Node000017"><a xlink:title=" ">
<path fill="none" stroke="#63b8ff" d="M447.38,-54.75C443.14,-47.49 436.97,-36.95 431.72,-27.98"/>
<polygon fill="#63b8ff" stroke="#63b8ff" points="434.59,-25.95 426.52,-19.09 428.55,-29.49 434.59,-25.95"/>
</a>
</g>
</g>
<!-- Node18 -->
<g id="Node000018" class="node">
<title>Node18</title>
<g id="a_Node000018"><a xlink:title=" ">
<polygon fill="#e0e0e0" stroke="#999999" points="501.5,-19 463.5,-19 463.5,0 501.5,0 501.5,-19"/>
<text text-anchor="middle" x="482.5" y="-7" font-family="Helvetica,sans-Serif" font-size="10.00">map</text>
</a>
</g>
</g>
<!-- Node15&#45;&gt;Node18 -->
<g id="edge20_Node000015_Node000018" class="edge">
<title>Node15&#45;&gt;Node18</title>
<g id="a_edge20_Node000015_Node000018"><a xlink:title=" ">
<path fill="none" stroke="#63b8ff" d="M457.45,-54.75C461.56,-47.49 467.53,-36.95 472.6,-27.98"/>
<polygon fill="#63b8ff" stroke="#63b8ff" points="475.76,-29.52 477.64,-19.09 469.67,-26.07 475.76,-29.52"/>
</a>
</g>
</g>
<!-- Node19 -->
<g id="Node000019" class="node">
<title>Node19</title>
<g id="a_Node000019"><a xlink:title=" ">
<polygon fill="#e0e0e0" stroke="#999999" points="563.5,-19 519.5,-19 519.5,0 563.5,0 563.5,-19"/>
<text text-anchor="middle" x="541.5" y="-7" font-family="Helvetica,sans-Serif" font-size="10.00">string</text>
</a>
</g>
</g>
<!-- Node15&#45;&gt;Node19 -->
<g id="edge21_Node000015_Node000019" class="edge">
<title>Node15&#45;&gt;Node19</title>
<g id="a_edge21_Node000015_Node000019"><a xlink:title=" ">
<path fill="none" stroke="#63b8ff" d="M466.8,-54.98C480.6,-46.77 501.74,-34.18 518.01,-24.49"/>
<polygon fill="#63b8ff" stroke="#63b8ff" points="520.14,-27.29 526.94,-19.17 516.56,-21.28 520.14,-27.29"/>
</a>
</g>
</g>
</g>
</svg>
