<?xml version="1.0" encoding="UTF-8" standalone="no"?>
<!DOCTYPE svg PUBLIC "-//W3C//DTD SVG 1.1//EN"
 "http://www.w3.org/Graphics/SVG/1.1/DTD/svg11.dtd">
<!-- Generated by graphviz version 2.43.0 (0)
 -->
<!-- Title: src/Rendering/FrameBuffers/DepthCubeMapFrameBuffer.hpp Pages: 1 -->
<svg width="336pt" height="263pt"
 viewBox="0.00 0.00 336.00 263.00" xmlns="http://www.w3.org/2000/svg" xmlns:xlink="http://www.w3.org/1999/xlink">
<g id="graph0" class="graph" transform="scale(1 1) rotate(0) translate(4 259)">
<title>src/Rendering/FrameBuffers/DepthCubeMapFrameBuffer.hpp</title>
<polygon fill="white" stroke="transparent" points="-4,4 -4,-259 332,-259 332,4 -4,4"/>
<!-- Node1 -->
<g id="node1" class="node">
<title>Node1</title>
<g id="a_node1"><a xlink:title=" ">
<polygon fill="#bfbfbf" stroke="black" points="0,-224.5 0,-254.5 175,-254.5 175,-224.5 0,-224.5"/>
<text text-anchor="start" x="8" y="-242.5" font-family="Helvetica,sans-Serif" font-size="10.00">src/Rendering/FrameBuffers</text>
<text text-anchor="middle" x="87.5" y="-231.5" font-family="Helvetica,sans-Serif" font-size="10.00">/DepthCubeMapFrameBuffer.hpp</text>
</a>
</g>
</g>
<!-- Node2 -->
<g id="node2" class="node">
<title>Node2</title>
<g id="a_node2"><a xlink:title=" ">
<polygon fill="white" stroke="#bfbfbf" points="1.5,-168.5 1.5,-187.5 59.5,-187.5 59.5,-168.5 1.5,-168.5"/>
<text text-anchor="middle" x="30.5" y="-175.5" font-family="Helvetica,sans-Serif" font-size="10.00">memory</text>
</a>
</g>
</g>
<!-- Node1&#45;&gt;Node2 -->
<g id="edge1" class="edge">
<title>Node1&#45;&gt;Node2</title>
<path fill="none" stroke="midnightblue" d="M73.99,-224.4C65.54,-215.58 54.62,-204.18 45.84,-195.02"/>
<polygon fill="midnightblue" stroke="midnightblue" points="48.24,-192.46 38.79,-187.66 43.18,-197.3 48.24,-192.46"/>
</g>
<!-- Node3 -->
<g id="node3" class="node">
<title>Node3</title>
<g id="a_node3"><a xlink:title=" ">
<polygon fill="white" stroke="#bfbfbf" points="52,-112.5 52,-131.5 123,-131.5 123,-112.5 52,-112.5"/>
<text text-anchor="middle" x="87.5" y="-119.5" font-family="Helvetica,sans-Serif" font-size="10.00">glad/glad.h</text>
</a>
</g>
</g>
<!-- Node1&#45;&gt;Node3 -->
<g id="edge2" class="edge">
<title>Node1&#45;&gt;Node3</title>
<path fill="none" stroke="midnightblue" d="M87.5,-224.34C87.5,-203.62 87.5,-165.02 87.5,-141.9"/>
<polygon fill="midnightblue" stroke="midnightblue" points="91,-141.67 87.5,-131.67 84,-141.67 91,-141.67"/>
</g>
<!-- Node4 -->
<g id="node4" class="node">
<title>Node4</title>
<g id="a_node4"><a xlink:href="_texture_8hpp.html" target="_top" xlink:title=" ">
<polygon fill="white" stroke="black" points="115.5,-168.5 115.5,-187.5 241.5,-187.5 241.5,-168.5 115.5,-168.5"/>
<text text-anchor="middle" x="178.5" y="-175.5" font-family="Helvetica,sans-Serif" font-size="10.00">Rendering/Texture.hpp</text>
</a>
</g>
</g>
<!-- Node1&#45;&gt;Node4 -->
<g id="edge3" class="edge">
<title>Node1&#45;&gt;Node4</title>
<path fill="none" stroke="midnightblue" d="M109.07,-224.4C123.38,-215.04 142.11,-202.79 156.51,-193.38"/>
<polygon fill="midnightblue" stroke="midnightblue" points="158.8,-196.06 165.26,-187.66 154.97,-190.2 158.8,-196.06"/>
</g>
<!-- Node4&#45;&gt;Node3 -->
<g id="edge4" class="edge">
<title>Node4&#45;&gt;Node3</title>
<path fill="none" stroke="midnightblue" d="M163.88,-168.32C149.55,-159.82 127.49,-146.73 110.75,-136.8"/>
<polygon fill="midnightblue" stroke="midnightblue" points="112.47,-133.75 102.08,-131.65 108.9,-139.77 112.47,-133.75"/>
</g>
<!-- Node5 -->
<g id="node5" class="node">
<title>Node5</title>
<g id="a_node5"><a xlink:href="_image_8hpp.html" target="_top" xlink:title=" ">
<polygon fill="white" stroke="black" points="141,-112.5 141,-131.5 282,-131.5 282,-112.5 141,-112.5"/>
<text text-anchor="middle" x="211.5" y="-119.5" font-family="Helvetica,sans-Serif" font-size="10.00">AssetManager/Image.hpp</text>
</a>
</g>
</g>
<!-- Node4&#45;&gt;Node5 -->
<g id="edge5" class="edge">
<title>Node4&#45;&gt;Node5</title>
<path fill="none" stroke="midnightblue" d="M183.95,-168.08C188.51,-160.61 195.17,-149.72 200.79,-140.52"/>
<polygon fill="midnightblue" stroke="midnightblue" points="203.92,-142.11 206.15,-131.75 197.95,-138.46 203.92,-142.11"/>
</g>
<!-- Node6 -->
<g id="node6" class="node">
<title>Node6</title>
<g id="a_node6"><a xlink:title=" ">
<polygon fill="white" stroke="#bfbfbf" points="176.5,-0.5 176.5,-19.5 244.5,-19.5 244.5,-0.5 176.5,-0.5"/>
<text text-anchor="middle" x="210.5" y="-7.5" font-family="Helvetica,sans-Serif" font-size="10.00">filesystem</text>
</a>
</g>
</g>
<!-- Node5&#45;&gt;Node6 -->
<g id="edge6" class="edge">
<title>Node5&#45;&gt;Node6</title>
<path fill="none" stroke="midnightblue" d="M203.29,-112.18C195.96,-103.66 185.74,-90.02 181.5,-76 176.32,-58.9 186.25,-40.37 195.87,-27.49"/>
<polygon fill="midnightblue" stroke="midnightblue" points="198.72,-29.54 202.29,-19.56 193.28,-25.13 198.72,-29.54"/>
</g>
<!-- Node7 -->
<g id="node7" class="node">
<title>Node7</title>
<g id="a_node7"><a xlink:href="_asset_8hpp.html" target="_top" xlink:title=" ">
<polygon fill="white" stroke="black" points="191,-56.5 191,-75.5 328,-75.5 328,-56.5 191,-56.5"/>
<text text-anchor="middle" x="259.5" y="-63.5" font-family="Helvetica,sans-Serif" font-size="10.00">AssetManager/Asset.hpp</text>
</a>
</g>
</g>
<!-- Node5&#45;&gt;Node7 -->
<g id="edge7" class="edge">
<title>Node5&#45;&gt;Node7</title>
<path fill="none" stroke="midnightblue" d="M219.43,-112.08C226.35,-104.3 236.57,-92.8 244.95,-83.37"/>
<polygon fill="midnightblue" stroke="midnightblue" points="247.69,-85.55 251.72,-75.75 242.46,-80.9 247.69,-85.55"/>
</g>
<!-- Node7&#45;&gt;Node6 -->
<g id="edge8" class="edge">
<title>Node7&#45;&gt;Node6</title>
<path fill="none" stroke="midnightblue" d="M251.41,-56.08C244.34,-48.3 233.91,-36.8 225.35,-27.37"/>
<polygon fill="midnightblue" stroke="midnightblue" points="227.75,-24.8 218.44,-19.75 222.57,-29.51 227.75,-24.8"/>
</g>
</g>
</svg>
