<?xml version="1.0" encoding="UTF-8" standalone="no"?>
<!DOCTYPE svg PUBLIC "-//W3C//DTD SVG 1.1//EN"
 "http://www.w3.org/Graphics/SVG/1.1/DTD/svg11.dtd">
<!-- Generated by graphviz version 2.43.0 (0)
 -->
<!-- Title: src/Rendering/FrameBuffers/DepthCubeMapFrameBuffer.cpp Pages: 1 -->
<svg width="485pt" height="330pt"
 viewBox="0.00 0.00 484.50 330.00" xmlns="http://www.w3.org/2000/svg" xmlns:xlink="http://www.w3.org/1999/xlink">
<g id="graph0" class="graph" transform="scale(1 1) rotate(0) translate(4 326)">
<title>src/Rendering/FrameBuffers/DepthCubeMapFrameBuffer.cpp</title>
<polygon fill="white" stroke="transparent" points="-4,4 -4,-326 480.5,-326 480.5,4 -4,4"/>
<!-- Node1 -->
<g id="node1" class="node">
<title>Node1</title>
<g id="a_node1"><a xlink:title=" ">
<polygon fill="#bfbfbf" stroke="black" points="67,-291.5 67,-321.5 241,-321.5 241,-291.5 67,-291.5"/>
<text text-anchor="start" x="75" y="-309.5" font-family="Helvetica,sans-Serif" font-size="10.00">src/Rendering/FrameBuffers</text>
<text text-anchor="middle" x="154" y="-298.5" font-family="Helvetica,sans-Serif" font-size="10.00">/DepthCubeMapFrameBuffer.cpp</text>
</a>
</g>
</g>
<!-- Node2 -->
<g id="node2" class="node">
<title>Node2</title>
<g id="a_node2"><a xlink:href="_logger_8hpp.html" target="_top" xlink:title=" ">
<polygon fill="white" stroke="black" points="13.5,-230 13.5,-249 130.5,-249 130.5,-230 13.5,-230"/>
<text text-anchor="middle" x="72" y="-237" font-family="Helvetica,sans-Serif" font-size="10.00">Common/Logger.hpp</text>
</a>
</g>
</g>
<!-- Node1&#45;&gt;Node2 -->
<g id="edge1" class="edge">
<title>Node1&#45;&gt;Node2</title>
<path fill="none" stroke="midnightblue" d="M136.21,-291.4C122.92,-280.86 104.77,-266.48 91.16,-255.69"/>
<polygon fill="midnightblue" stroke="midnightblue" points="92.98,-252.66 82.97,-249.19 88.63,-258.15 92.98,-252.66"/>
</g>
<!-- Node5 -->
<g id="node5" class="node">
<title>Node5</title>
<g id="a_node5"><a xlink:href="_depth_cube_map_frame_buffer_8hpp.html" target="_top" xlink:title=" ">
<polygon fill="white" stroke="black" points="148.5,-224.5 148.5,-254.5 323.5,-254.5 323.5,-224.5 148.5,-224.5"/>
<text text-anchor="start" x="156.5" y="-242.5" font-family="Helvetica,sans-Serif" font-size="10.00">Rendering/FrameBuffers</text>
<text text-anchor="middle" x="236" y="-231.5" font-family="Helvetica,sans-Serif" font-size="10.00">/DepthCubeMapFrameBuffer.hpp</text>
</a>
</g>
</g>
<!-- Node1&#45;&gt;Node5 -->
<g id="edge4" class="edge">
<title>Node1&#45;&gt;Node5</title>
<path fill="none" stroke="midnightblue" d="M171.79,-291.4C183.08,-282.45 197.85,-270.74 210.39,-260.8"/>
<polygon fill="midnightblue" stroke="midnightblue" points="212.58,-263.53 218.24,-254.58 208.23,-258.05 212.58,-263.53"/>
</g>
<!-- Node3 -->
<g id="node3" class="node">
<title>Node3</title>
<g id="a_node3"><a xlink:title=" ">
<polygon fill="white" stroke="#bfbfbf" points="0,-168.5 0,-187.5 48,-187.5 48,-168.5 0,-168.5"/>
<text text-anchor="middle" x="24" y="-175.5" font-family="Helvetica,sans-Serif" font-size="10.00">mutex</text>
</a>
</g>
</g>
<!-- Node2&#45;&gt;Node3 -->
<g id="edge2" class="edge">
<title>Node2&#45;&gt;Node3</title>
<path fill="none" stroke="midnightblue" d="M65.12,-229.98C57.85,-220.96 46.2,-206.52 37.16,-195.31"/>
<polygon fill="midnightblue" stroke="midnightblue" points="39.87,-193.09 30.86,-187.51 34.42,-197.49 39.87,-193.09"/>
</g>
<!-- Node4 -->
<g id="node4" class="node">
<title>Node4</title>
<g id="a_node4"><a xlink:title=" ">
<polygon fill="white" stroke="#bfbfbf" points="66.5,-168.5 66.5,-187.5 113.5,-187.5 113.5,-168.5 66.5,-168.5"/>
<text text-anchor="middle" x="90" y="-175.5" font-family="Helvetica,sans-Serif" font-size="10.00">queue</text>
</a>
</g>
</g>
<!-- Node2&#45;&gt;Node4 -->
<g id="edge3" class="edge">
<title>Node2&#45;&gt;Node4</title>
<path fill="none" stroke="midnightblue" d="M74.58,-229.98C77.15,-221.49 81.17,-208.2 84.46,-197.32"/>
<polygon fill="midnightblue" stroke="midnightblue" points="87.88,-198.09 87.43,-187.51 81.18,-196.07 87.88,-198.09"/>
</g>
<!-- Node6 -->
<g id="node6" class="node">
<title>Node6</title>
<g id="a_node6"><a xlink:title=" ">
<polygon fill="white" stroke="#bfbfbf" points="150,-168.5 150,-187.5 208,-187.5 208,-168.5 150,-168.5"/>
<text text-anchor="middle" x="179" y="-175.5" font-family="Helvetica,sans-Serif" font-size="10.00">memory</text>
</a>
</g>
</g>
<!-- Node5&#45;&gt;Node6 -->
<g id="edge5" class="edge">
<title>Node5&#45;&gt;Node6</title>
<path fill="none" stroke="midnightblue" d="M222.49,-224.4C214.04,-215.58 203.12,-204.18 194.34,-195.02"/>
<polygon fill="midnightblue" stroke="midnightblue" points="196.74,-192.46 187.29,-187.66 191.68,-197.3 196.74,-192.46"/>
</g>
<!-- Node7 -->
<g id="node7" class="node">
<title>Node7</title>
<g id="a_node7"><a xlink:title=" ">
<polygon fill="white" stroke="#bfbfbf" points="200.5,-112.5 200.5,-131.5 271.5,-131.5 271.5,-112.5 200.5,-112.5"/>
<text text-anchor="middle" x="236" y="-119.5" font-family="Helvetica,sans-Serif" font-size="10.00">glad/glad.h</text>
</a>
</g>
</g>
<!-- Node5&#45;&gt;Node7 -->
<g id="edge6" class="edge">
<title>Node5&#45;&gt;Node7</title>
<path fill="none" stroke="midnightblue" d="M236,-224.34C236,-203.62 236,-165.02 236,-141.9"/>
<polygon fill="midnightblue" stroke="midnightblue" points="239.5,-141.67 236,-131.67 232.5,-141.67 239.5,-141.67"/>
</g>
<!-- Node8 -->
<g id="node8" class="node">
<title>Node8</title>
<g id="a_node8"><a xlink:href="_texture_8hpp.html" target="_top" xlink:title=" ">
<polygon fill="white" stroke="black" points="264,-168.5 264,-187.5 390,-187.5 390,-168.5 264,-168.5"/>
<text text-anchor="middle" x="327" y="-175.5" font-family="Helvetica,sans-Serif" font-size="10.00">Rendering/Texture.hpp</text>
</a>
</g>
</g>
<!-- Node5&#45;&gt;Node8 -->
<g id="edge7" class="edge">
<title>Node5&#45;&gt;Node8</title>
<path fill="none" stroke="midnightblue" d="M257.57,-224.4C271.88,-215.04 290.61,-202.79 305.01,-193.38"/>
<polygon fill="midnightblue" stroke="midnightblue" points="307.3,-196.06 313.76,-187.66 303.47,-190.2 307.3,-196.06"/>
</g>
<!-- Node8&#45;&gt;Node7 -->
<g id="edge8" class="edge">
<title>Node8&#45;&gt;Node7</title>
<path fill="none" stroke="midnightblue" d="M312.38,-168.32C298.05,-159.82 275.99,-146.73 259.25,-136.8"/>
<polygon fill="midnightblue" stroke="midnightblue" points="260.97,-133.75 250.58,-131.65 257.4,-139.77 260.97,-133.75"/>
</g>
<!-- Node9 -->
<g id="node9" class="node">
<title>Node9</title>
<g id="a_node9"><a xlink:href="_image_8hpp.html" target="_top" xlink:title=" ">
<polygon fill="white" stroke="black" points="289.5,-112.5 289.5,-131.5 430.5,-131.5 430.5,-112.5 289.5,-112.5"/>
<text text-anchor="middle" x="360" y="-119.5" font-family="Helvetica,sans-Serif" font-size="10.00">AssetManager/Image.hpp</text>
</a>
</g>
</g>
<!-- Node8&#45;&gt;Node9 -->
<g id="edge9" class="edge">
<title>Node8&#45;&gt;Node9</title>
<path fill="none" stroke="midnightblue" d="M332.45,-168.08C337.01,-160.61 343.67,-149.72 349.29,-140.52"/>
<polygon fill="midnightblue" stroke="midnightblue" points="352.42,-142.11 354.65,-131.75 346.45,-138.46 352.42,-142.11"/>
</g>
<!-- Node10 -->
<g id="node10" class="node">
<title>Node10</title>
<g id="a_node10"><a xlink:title=" ">
<polygon fill="white" stroke="#bfbfbf" points="325,-0.5 325,-19.5 393,-19.5 393,-0.5 325,-0.5"/>
<text text-anchor="middle" x="359" y="-7.5" font-family="Helvetica,sans-Serif" font-size="10.00">filesystem</text>
</a>
</g>
</g>
<!-- Node9&#45;&gt;Node10 -->
<g id="edge10" class="edge">
<title>Node9&#45;&gt;Node10</title>
<path fill="none" stroke="midnightblue" d="M351.79,-112.18C344.46,-103.66 334.24,-90.02 330,-76 324.82,-58.9 334.75,-40.37 344.37,-27.49"/>
<polygon fill="midnightblue" stroke="midnightblue" points="347.22,-29.54 350.79,-19.56 341.78,-25.13 347.22,-29.54"/>
</g>
<!-- Node11 -->
<g id="node11" class="node">
<title>Node11</title>
<g id="a_node11"><a xlink:href="_asset_8hpp.html" target="_top" xlink:title=" ">
<polygon fill="white" stroke="black" points="339.5,-56.5 339.5,-75.5 476.5,-75.5 476.5,-56.5 339.5,-56.5"/>
<text text-anchor="middle" x="408" y="-63.5" font-family="Helvetica,sans-Serif" font-size="10.00">AssetManager/Asset.hpp</text>
</a>
</g>
</g>
<!-- Node9&#45;&gt;Node11 -->
<g id="edge11" class="edge">
<title>Node9&#45;&gt;Node11</title>
<path fill="none" stroke="midnightblue" d="M367.93,-112.08C374.85,-104.3 385.07,-92.8 393.45,-83.37"/>
<polygon fill="midnightblue" stroke="midnightblue" points="396.19,-85.55 400.22,-75.75 390.96,-80.9 396.19,-85.55"/>
</g>
<!-- Node11&#45;&gt;Node10 -->
<g id="edge12" class="edge">
<title>Node11&#45;&gt;Node10</title>
<path fill="none" stroke="midnightblue" d="M399.91,-56.08C392.84,-48.3 382.41,-36.8 373.85,-27.37"/>
<polygon fill="midnightblue" stroke="midnightblue" points="376.25,-24.8 366.94,-19.75 371.07,-29.51 376.25,-24.8"/>
</g>
</g>
</svg>
