<?xml version="1.0" encoding="UTF-8" standalone="no"?>
<!DOCTYPE svg PUBLIC "-//W3C//DTD SVG 1.1//EN"
 "http://www.w3.org/Graphics/SVG/1.1/DTD/svg11.dtd">
<!-- Generated by graphviz version 2.43.0 (0)
 -->
<!-- Title: src/Rendering/FrameBuffers/DepthCubeMapFrameBuffer.hpp Pages: 1 -->
<svg width="727pt" height="544pt"
 viewBox="0.00 0.00 727.00 544.00" xmlns="http://www.w3.org/2000/svg" xmlns:xlink="http://www.w3.org/1999/xlink">
<g id="graph0" class="graph" transform="scale(1 1) rotate(0) translate(4 540)">
<title>src/Rendering/FrameBuffers/DepthCubeMapFrameBuffer.hpp</title>
<!-- Node1 -->
<g id="Node000001" class="node">
<title>Node1</title>
<g id="a_Node000001"><a xlink:title=" ">
<polygon fill="#999999" stroke="#666666" points="194,-536 19,-536 19,-506 194,-506 194,-536"/>
<text text-anchor="start" x="27" y="-524" font-family="Helvetica,sans-Serif" font-size="10.00">src/Rendering/FrameBuffers</text>
<text text-anchor="middle" x="106.5" y="-513" font-family="Helvetica,sans-Serif" font-size="10.00">/DepthCubeMapFrameBuffer.hpp</text>
</a>
</g>
</g>
<!-- Node2 -->
<g id="Node000002" class="node">
<title>Node2</title>
<g id="a_Node000002"><a xlink:title=" ">
<polygon fill="#e0e0e0" stroke="#999999" points="78.5,-470 20.5,-470 20.5,-451 78.5,-451 78.5,-470"/>
<text text-anchor="middle" x="49.5" y="-458" font-family="Helvetica,sans-Serif" font-size="10.00">memory</text>
</a>
</g>
</g>
<!-- Node1&#45;&gt;Node2 -->
<g id="edge1_Node000001_Node000002" class="edge">
<title>Node1&#45;&gt;Node2</title>
<g id="a_edge1_Node000001_Node000002"><a xlink:title=" ">
<path fill="none" stroke="#63b8ff" d="M92.7,-505.84C84.43,-497.35 73.88,-486.52 65.27,-477.69"/>
<polygon fill="#63b8ff" stroke="#63b8ff" points="67.53,-474.99 58.04,-470.27 62.51,-479.87 67.53,-474.99"/>
</a>
</g>
</g>
<!-- Node3 -->
<g id="Node000003" class="node">
<title>Node3</title>
<g id="a_Node000003"><a xlink:title=" ">
<polygon fill="#e0e0e0" stroke="#999999" points="142,-415 71,-415 71,-396 142,-396 142,-415"/>
<text text-anchor="middle" x="106.5" y="-403" font-family="Helvetica,sans-Serif" font-size="10.00">glad/glad.h</text>
</a>
</g>
</g>
<!-- Node1&#45;&gt;Node3 -->
<g id="edge2_Node000001_Node000003" class="edge">
<title>Node1&#45;&gt;Node3</title>
<g id="a_edge2_Node000001_Node000003"><a xlink:title=" ">
<path fill="none" stroke="#63b8ff" d="M106.5,-505.63C106.5,-485.21 106.5,-447.81 106.5,-425.24"/>
<polygon fill="#63b8ff" stroke="#63b8ff" points="110,-425.23 106.5,-415.23 103,-425.23 110,-425.23"/>
</a>
</g>
</g>
<!-- Node4 -->
<g id="Node000004" class="node">
<title>Node4</title>
<g id="a_Node000004"><a xlink:href="_texture_8hpp.html" target="_top" xlink:title=" ">
<polygon fill="white" stroke="#666666" points="280.5,-470 134.5,-470 134.5,-451 280.5,-451 280.5,-470"/>
<text text-anchor="middle" x="207.5" y="-458" font-family="Helvetica,sans-Serif" font-size="10.00">AssetManager/Texture.hpp</text>
</a>
</g>
</g>
<!-- Node1&#45;&gt;Node4 -->
<g id="edge3_Node000001_Node000004" class="edge">
<title>Node1&#45;&gt;Node4</title>
<g id="a_edge3_Node000001_Node000004"><a xlink:title=" ">
<path fill="none" stroke="#63b8ff" d="M130.69,-505.99C146.79,-496.66 167.84,-484.47 183.83,-475.21"/>
<polygon fill="#63b8ff" stroke="#63b8ff" points="185.69,-478.18 192.58,-470.14 182.18,-472.12 185.69,-478.18"/>
</a>
</g>
</g>
<!-- Node4&#45;&gt;Node3 -->
<g id="edge4_Node000004_Node000003" class="edge">
<title>Node4&#45;&gt;Node3</title>
<g id="a_edge4_Node000004_Node000003"><a xlink:title=" ">
<path fill="none" stroke="#63b8ff" d="M191.27,-450.98C175.32,-442.61 150.72,-429.7 132.12,-419.95"/>
<polygon fill="#63b8ff" stroke="#63b8ff" points="133.5,-416.72 123.02,-415.17 130.25,-422.92 133.5,-416.72"/>
</a>
</g>
</g>
<!-- Node5 -->
<g id="Node000005" class="node">
<title>Node5</title>
<g id="a_Node000005"><a xlink:href="_image_8hpp.html" target="_top" xlink:title=" ">
<polygon fill="white" stroke="#666666" points="301,-415 160,-415 160,-396 301,-396 301,-415"/>
<text text-anchor="middle" x="230.5" y="-403" font-family="Helvetica,sans-Serif" font-size="10.00">AssetManager/Image.hpp</text>
</a>
</g>
</g>
<!-- Node4&#45;&gt;Node5 -->
<g id="edge5_Node000004_Node000005" class="edge">
<title>Node4&#45;&gt;Node5</title>
<g id="a_edge5_Node000004_Node000005"><a xlink:title=" ">
<path fill="none" stroke="#63b8ff" d="M211.3,-450.75C214.41,-443.57 218.92,-433.18 222.79,-424.27"/>
<polygon fill="#63b8ff" stroke="#63b8ff" points="226,-425.66 226.77,-415.09 219.58,-422.87 226,-425.66"/>
</a>
</g>
</g>
<!-- Node6 -->
<g id="Node000006" class="node">
<title>Node6</title>
<g id="a_Node000006"><a xlink:title=" ">
<polygon fill="#e0e0e0" stroke="#999999" points="242.5,-239 174.5,-239 174.5,-220 242.5,-220 242.5,-239"/>
<text text-anchor="middle" x="208.5" y="-227" font-family="Helvetica,sans-Serif" font-size="10.00">filesystem</text>
</a>
</g>
</g>
<!-- Node5&#45;&gt;Node6 -->
<g id="edge6_Node000005_Node000006" class="edge">
<title>Node5&#45;&gt;Node6</title>
<g id="a_edge6_Node000005_Node000006"><a xlink:title=" ">
<path fill="none" stroke="#63b8ff" d="M219.79,-395.93C210.57,-387.8 197.91,-374.68 192.5,-360 178.57,-322.25 191.68,-274.54 201,-248.87"/>
<polygon fill="#63b8ff" stroke="#63b8ff" points="204.36,-249.9 204.68,-239.31 197.82,-247.38 204.36,-249.9"/>
</a>
</g>
</g>
<!-- Node7 -->
<g id="Node000007" class="node">
<title>Node7</title>
<g id="a_Node000007"><a xlink:href="_path_constructible_asset_8hpp.html" target="_top" xlink:title=" ">
<polygon fill="white" stroke="#666666" points="376,-360 201,-360 201,-330 376,-330 376,-360"/>
<text text-anchor="start" x="209" y="-348" font-family="Helvetica,sans-Serif" font-size="10.00">AssetManager/PathConstructible</text>
<text text-anchor="middle" x="288.5" y="-337" font-family="Helvetica,sans-Serif" font-size="10.00">Asset.hpp</text>
</a>
</g>
</g>
<!-- Node5&#45;&gt;Node7 -->
<g id="edge7_Node000005_Node000007" class="edge">
<title>Node5&#45;&gt;Node7</title>
<g id="a_edge7_Node000005_Node000007"><a xlink:title=" ">
<path fill="none" stroke="#63b8ff" d="M239.06,-395.87C246.49,-388.37 257.57,-377.2 267.36,-367.33"/>
<polygon fill="#63b8ff" stroke="#63b8ff" points="269.95,-369.68 274.51,-360.11 264.98,-364.75 269.95,-369.68"/>
</a>
</g>
</g>
<!-- Node7&#45;&gt;Node6 -->
<g id="edge8_Node000007_Node000006" class="edge">
<title>Node7&#45;&gt;Node6</title>
<g id="a_edge8_Node000007_Node000006"><a xlink:title=" ">
<path fill="none" stroke="#63b8ff" d="M267.23,-329.98C255.01,-320.97 240.21,-308.3 230.5,-294 221.28,-280.43 215.55,-262.6 212.26,-249.3"/>
<polygon fill="#63b8ff" stroke="#63b8ff" points="215.64,-248.37 210.05,-239.37 208.81,-249.9 215.64,-248.37"/>
</a>
</g>
</g>
<!-- Node8 -->
<g id="Node000008" class="node">
<title>Node8</title>
<g id="a_Node000008"><a xlink:href="_asset_8hpp.html" target="_top" xlink:title=" ">
<polygon fill="white" stroke="#666666" points="376,-294 239,-294 239,-275 376,-275 376,-294"/>
<text text-anchor="middle" x="307.5" y="-282" font-family="Helvetica,sans-Serif" font-size="10.00">AssetManager/Asset.hpp</text>
</a>
</g>
</g>
<!-- Node7&#45;&gt;Node8 -->
<g id="edge9_Node000007_Node000008" class="edge">
<title>Node7&#45;&gt;Node8</title>
<g id="a_edge9_Node000007_Node000008"><a xlink:title=" ">
<path fill="none" stroke="#63b8ff" d="M293.1,-329.84C295.63,-322.04 298.81,-312.27 301.53,-303.89"/>
<polygon fill="#63b8ff" stroke="#63b8ff" points="304.89,-304.86 304.65,-294.27 298.24,-302.7 304.89,-304.86"/>
</a>
</g>
</g>
<!-- Node8&#45;&gt;Node6 -->
<g id="edge10_Node000008_Node000006" class="edge">
<title>Node8&#45;&gt;Node6</title>
<g id="a_edge10_Node000008_Node000006"><a xlink:title=" ">
<path fill="none" stroke="#63b8ff" d="M291.59,-274.98C275.95,-266.61 251.84,-253.7 233.62,-243.95"/>
<polygon fill="#63b8ff" stroke="#63b8ff" points="235.16,-240.8 224.7,-239.17 231.86,-246.98 235.16,-240.8"/>
</a>
</g>
</g>
<!-- Node9 -->
<g id="Node000009" class="node">
<title>Node9</title>
<g id="a_Node000009"><a xlink:href="_registry_8hpp.html" target="_top" xlink:title=" ">
<polygon fill="white" stroke="#666666" points="358.5,-239 260.5,-239 260.5,-220 358.5,-220 358.5,-239"/>
<text text-anchor="middle" x="309.5" y="-227" font-family="Helvetica,sans-Serif" font-size="10.00">ECS/Registry.hpp</text>
</a>
</g>
</g>
<!-- Node8&#45;&gt;Node9 -->
<g id="edge11_Node000008_Node000009" class="edge">
<title>Node8&#45;&gt;Node9</title>
<g id="a_edge11_Node000008_Node000009"><a xlink:title=" ">
<path fill="none" stroke="#63b8ff" d="M307.83,-274.75C308.09,-267.8 308.47,-257.85 308.8,-249.13"/>
<polygon fill="#63b8ff" stroke="#63b8ff" points="312.3,-249.21 309.18,-239.09 305.3,-248.95 312.3,-249.21"/>
</a>
</g>
</g>
<!-- Node10 -->
<g id="Node000010" class="node">
<title>Node10</title>
<g id="a_Node000010"><a xlink:title=" ">
<polygon fill="#e0e0e0" stroke="#999999" points="422.5,-129 336.5,-129 336.5,-110 422.5,-110 422.5,-129"/>
<text text-anchor="middle" x="379.5" y="-117" font-family="Helvetica,sans-Serif" font-size="10.00">unordered_set</text>
</a>
</g>
</g>
<!-- Node9&#45;&gt;Node10 -->
<g id="edge12_Node000009_Node000010" class="edge">
<title>Node9&#45;&gt;Node10</title>
<g id="a_edge12_Node000009_Node000010"><a xlink:title=" ">
<path fill="none" stroke="#63b8ff" d="M315.23,-219.66C326.82,-201.77 353.25,-161 368.36,-137.69"/>
<polygon fill="#63b8ff" stroke="#63b8ff" points="371.39,-139.45 373.89,-129.16 365.51,-135.65 371.39,-139.45"/>
</a>
</g>
</g>
<!-- Node11 -->
<g id="Node000011" class="node">
<title>Node11</title>
<g id="a_Node000011"><a xlink:href="_logger_8hpp.html" target="_top" xlink:title=" ">
<polygon fill="white" stroke="#666666" points="117,-184 0,-184 0,-165 117,-165 117,-184"/>
<text text-anchor="middle" x="58.5" y="-172" font-family="Helvetica,sans-Serif" font-size="10.00">Common/Logger.hpp</text>
</a>
</g>
</g>
<!-- Node9&#45;&gt;Node11 -->
<g id="edge13_Node000009_Node000011" class="edge">
<title>Node9&#45;&gt;Node11</title>
<g id="a_edge13_Node000009_Node000011"><a xlink:title=" ">
<path fill="none" stroke="#63b8ff" d="M269.17,-219.98C225.66,-210.8 156.3,-196.15 109.15,-186.19"/>
<polygon fill="#63b8ff" stroke="#63b8ff" points="109.65,-182.72 99.14,-184.08 108.2,-189.57 109.65,-182.72"/>
</a>
</g>
</g>
<!-- Node14 -->
<g id="Node000014" class="node">
<title>Node14</title>
<g id="a_Node000014"><a xlink:href="_entity_8hpp.html" target="_top" xlink:title=" ">
<polygon fill="white" stroke="#666666" points="345.5,-74 259.5,-74 259.5,-55 345.5,-55 345.5,-74"/>
<text text-anchor="middle" x="302.5" y="-62" font-family="Helvetica,sans-Serif" font-size="10.00">ECS/Entity.hpp</text>
</a>
</g>
</g>
<!-- Node9&#45;&gt;Node14 -->
<g id="edge16_Node000009_Node000014" class="edge">
<title>Node9&#45;&gt;Node14</title>
<g id="a_edge16_Node000009_Node000014"><a xlink:title=" ">
<path fill="none" stroke="#63b8ff" d="M309.12,-219.74C308.03,-194.31 304.84,-120.08 303.32,-84.69"/>
<polygon fill="#63b8ff" stroke="#63b8ff" points="306.8,-84.15 302.88,-74.31 299.81,-84.45 306.8,-84.15"/>
</a>
</g>
</g>
<!-- Node16 -->
<g id="Node000016" class="node">
<title>Node16</title>
<g id="a_Node000016"><a xlink:href="_entity_hierarchy_8hpp.html" target="_top" xlink:title=" ">
<polygon fill="white" stroke="#666666" points="539.5,-184 405.5,-184 405.5,-165 539.5,-165 539.5,-184"/>
<text text-anchor="middle" x="472.5" y="-172" font-family="Helvetica,sans-Serif" font-size="10.00">ECS/EntityHierarchy.hpp</text>
</a>
</g>
</g>
<!-- Node9&#45;&gt;Node16 -->
<g id="edge18_Node000009_Node000016" class="edge">
<title>Node9&#45;&gt;Node16</title>
<g id="a_edge18_Node000009_Node000016"><a xlink:title=" ">
<path fill="none" stroke="#63b8ff" d="M335.69,-219.98C362.94,-211.13 405.8,-197.19 436.28,-187.28"/>
<polygon fill="#63b8ff" stroke="#63b8ff" points="437.68,-190.5 446.11,-184.08 435.51,-183.85 437.68,-190.5"/>
</a>
</g>
</g>
<!-- Node19 -->
<g id="Node000019" class="node">
<title>Node19</title>
<g id="a_Node000019"><a xlink:href="_entity_provider_8hpp.html" target="_top" xlink:title="Manages a pool of unused entity identifiers and provides mechanisms for requesting and removing them.">
<polygon fill="white" stroke="#666666" points="280.5,-129 152.5,-129 152.5,-110 280.5,-110 280.5,-129"/>
<text text-anchor="middle" x="216.5" y="-117" font-family="Helvetica,sans-Serif" font-size="10.00">ECS/EntityProvider.hpp</text>
</a>
</g>
</g>
<!-- Node9&#45;&gt;Node19 -->
<g id="edge23_Node000009_Node000019" class="edge">
<title>Node9&#45;&gt;Node19</title>
<g id="a_edge23_Node000009_Node000019"><a xlink:title=" ">
<path fill="none" stroke="#63b8ff" d="M301.89,-219.66C286.28,-201.54 250.44,-159.91 230.51,-136.77"/>
<polygon fill="#63b8ff" stroke="#63b8ff" points="233.13,-134.45 223.96,-129.16 227.83,-139.02 233.13,-134.45"/>
</a>
</g>
</g>
<!-- Node20 -->
<g id="Node000020" class="node">
<title>Node20</title>
<g id="a_Node000020"><a xlink:href="_sparse_set_8hpp.html" target="_top" xlink:title=" ">
<polygon fill="white" stroke="#666666" points="243.5,-184 135.5,-184 135.5,-165 243.5,-165 243.5,-184"/>
<text text-anchor="middle" x="189.5" y="-172" font-family="Helvetica,sans-Serif" font-size="10.00">ECS/SparseSet.hpp</text>
</a>
</g>
</g>
<!-- Node9&#45;&gt;Node20 -->
<g id="edge27_Node000009_Node000020" class="edge">
<title>Node9&#45;&gt;Node20</title>
<g id="a_edge27_Node000009_Node000020"><a xlink:title=" ">
<path fill="none" stroke="#63b8ff" d="M290.22,-219.98C270.83,-211.42 240.69,-198.11 218.43,-188.28"/>
<polygon fill="#63b8ff" stroke="#63b8ff" points="219.69,-185.01 209.13,-184.17 216.86,-191.41 219.69,-185.01"/>
</a>
</g>
</g>
<!-- Node21 -->
<g id="Node000021" class="node">
<title>Node21</title>
<g id="a_Node000021"><a xlink:href="_singleton_component_8hpp.html" target="_top" xlink:title=" ">
<polygon fill="white" stroke="#666666" points="719,-184 558,-184 558,-165 719,-165 719,-184"/>
<text text-anchor="middle" x="638.5" y="-172" font-family="Helvetica,sans-Serif" font-size="10.00">ECS/SingletonComponent.hpp</text>
</a>
</g>
</g>
<!-- Node9&#45;&gt;Node21 -->
<g id="edge29_Node000009_Node000021" class="edge">
<title>Node9&#45;&gt;Node21</title>
<g id="a_edge29_Node000009_Node000021"><a xlink:title=" ">
<path fill="none" stroke="#63b8ff" d="M358.75,-220.57C416.49,-211.26 512.28,-195.83 575.41,-185.66"/>
<polygon fill="#63b8ff" stroke="#63b8ff" points="576.32,-189.06 585.63,-184.02 575.21,-182.15 576.32,-189.06"/>
</a>
</g>
</g>
<!-- Node12 -->
<g id="Node000012" class="node">
<title>Node12</title>
<g id="a_Node000012"><a xlink:title=" ">
<polygon fill="#e0e0e0" stroke="#999999" points="134.5,-129 86.5,-129 86.5,-110 134.5,-110 134.5,-129"/>
<text text-anchor="middle" x="110.5" y="-117" font-family="Helvetica,sans-Serif" font-size="10.00">mutex</text>
</a>
</g>
</g>
<!-- Node11&#45;&gt;Node12 -->
<g id="edge14_Node000011_Node000012" class="edge">
<title>Node11&#45;&gt;Node12</title>
<g id="a_edge14_Node000011_Node000012"><a xlink:title=" ">
<path fill="none" stroke="#63b8ff" d="M67.09,-164.75C74.66,-157.03 85.88,-145.6 95.01,-136.28"/>
<polygon fill="#63b8ff" stroke="#63b8ff" points="97.57,-138.68 102.07,-129.09 92.57,-133.78 97.57,-138.68"/>
</a>
</g>
</g>
<!-- Node13 -->
<g id="Node000013" class="node">
<title>Node13</title>
<g id="a_Node000013"><a xlink:title=" ">
<polygon fill="#e0e0e0" stroke="#999999" points="140,-74 93,-74 93,-55 140,-55 140,-74"/>
<text text-anchor="middle" x="116.5" y="-62" font-family="Helvetica,sans-Serif" font-size="10.00">queue</text>
</a>
</g>
</g>
<!-- Node11&#45;&gt;Node13 -->
<g id="edge15_Node000011_Node000013" class="edge">
<title>Node11&#45;&gt;Node13</title>
<g id="a_edge15_Node000011_Node000013"><a xlink:title=" ">
<path fill="none" stroke="#63b8ff" d="M59.88,-164.83C62.15,-152.16 67.48,-128.13 77.5,-110 83.32,-99.48 91.96,-89.28 99.64,-81.31"/>
<polygon fill="#63b8ff" stroke="#63b8ff" points="102.22,-83.68 106.85,-74.15 97.29,-78.71 102.22,-83.68"/>
</a>
</g>
</g>
<!-- Node15 -->
<g id="Node000015" class="node">
<title>Node15</title>
<g id="a_Node000015"><a xlink:title=" ">
<polygon fill="#e0e0e0" stroke="#999999" points="288,-19 235,-19 235,0 288,0 288,-19"/>
<text text-anchor="middle" x="261.5" y="-7" font-family="Helvetica,sans-Serif" font-size="10.00">stdlib.h</text>
</a>
</g>
</g>
<!-- Node14&#45;&gt;Node15 -->
<g id="edge17_Node000014_Node000015" class="edge">
<title>Node14&#45;&gt;Node15</title>
<g id="a_edge17_Node000014_Node000015"><a xlink:title=" ">
<path fill="none" stroke="#63b8ff" d="M295.73,-54.75C289.94,-47.26 281.44,-36.28 274.36,-27.13"/>
<polygon fill="#63b8ff" stroke="#63b8ff" points="277.03,-24.86 268.14,-19.09 271.49,-29.14 277.03,-24.86"/>
</a>
</g>
</g>
<!-- Node16&#45;&gt;Node10 -->
<g id="edge20_Node000016_Node000010" class="edge">
<title>Node16&#45;&gt;Node10</title>
<g id="a_edge20_Node000016_Node000010"><a xlink:title=" ">
<path fill="none" stroke="#63b8ff" d="M457.56,-164.98C443,-156.69 420.63,-143.94 403.57,-134.22"/>
<polygon fill="#63b8ff" stroke="#63b8ff" points="405.14,-131.08 394.71,-129.17 401.67,-137.16 405.14,-131.08"/>
</a>
</g>
</g>
<!-- Node16&#45;&gt;Node14 -->
<g id="edge22_Node000016_Node000014" class="edge">
<title>Node16&#45;&gt;Node14</title>
<g id="a_edge22_Node000016_Node000014"><a xlink:title=" ">
<path fill="none" stroke="#63b8ff" d="M526.2,-164.98C565.59,-157.51 614.25,-145.29 626.5,-129 631.58,-122.25 632.05,-116.36 626.5,-110 592.06,-70.5 438.81,-64.83 356.01,-64.74"/>
<polygon fill="#63b8ff" stroke="#63b8ff" points="355.78,-61.24 345.79,-64.75 355.79,-68.24 355.78,-61.24"/>
</a>
</g>
</g>
<!-- Node17 -->
<g id="Node000017" class="node">
<title>Node17</title>
<g id="a_Node000017"><a xlink:title=" ">
<polygon fill="#e0e0e0" stroke="#999999" points="617,-129 552,-129 552,-110 617,-110 617,-129"/>
<text text-anchor="middle" x="584.5" y="-117" font-family="Helvetica,sans-Serif" font-size="10.00">functional</text>
</a>
</g>
</g>
<!-- Node16&#45;&gt;Node17 -->
<g id="edge19_Node000016_Node000017" class="edge">
<title>Node16&#45;&gt;Node17</title>
<g id="a_edge19_Node000016_Node000017"><a xlink:title=" ">
<path fill="none" stroke="#63b8ff" d="M490.49,-164.98C508.43,-156.5 536.22,-143.35 556.93,-133.54"/>
<polygon fill="#63b8ff" stroke="#63b8ff" points="558.64,-136.61 566.18,-129.17 555.64,-130.28 558.64,-136.61"/>
</a>
</g>
</g>
<!-- Node18 -->
<g id="Node000018" class="node">
<title>Node18</title>
<g id="a_Node000018"><a xlink:title=" ">
<polygon fill="#e0e0e0" stroke="#999999" points="534,-129 441,-129 441,-110 534,-110 534,-129"/>
<text text-anchor="middle" x="487.5" y="-117" font-family="Helvetica,sans-Serif" font-size="10.00">unordered_map</text>
</a>
</g>
</g>
<!-- Node16&#45;&gt;Node18 -->
<g id="edge21_Node000016_Node000018" class="edge">
<title>Node16&#45;&gt;Node18</title>
<g id="a_edge21_Node000016_Node000018"><a xlink:title=" ">
<path fill="none" stroke="#63b8ff" d="M474.98,-164.75C476.96,-157.72 479.82,-147.62 482.31,-138.84"/>
<polygon fill="#63b8ff" stroke="#63b8ff" points="485.71,-139.66 485.07,-129.09 478.98,-137.76 485.71,-139.66"/>
</a>
</g>
</g>
<!-- Node19&#45;&gt;Node13 -->
<g id="edge25_Node000019_Node000013" class="edge">
<title>Node19&#45;&gt;Node13</title>
<g id="a_edge25_Node000019_Node000013"><a xlink:title=" ">
<path fill="none" stroke="#63b8ff" d="M200.43,-109.98C184.64,-101.61 160.28,-88.7 141.87,-78.95"/>
<polygon fill="#63b8ff" stroke="#63b8ff" points="143.33,-75.76 132.86,-74.17 140.06,-81.95 143.33,-75.76"/>
</a>
</g>
</g>
<!-- Node19&#45;&gt;Node14 -->
<g id="edge26_Node000019_Node000014" class="edge">
<title>Node19&#45;&gt;Node14</title>
<g id="a_edge26_Node000019_Node000014"><a xlink:title=" ">
<path fill="none" stroke="#63b8ff" d="M230.32,-109.98C243.65,-101.77 264.08,-89.18 279.81,-79.49"/>
<polygon fill="#63b8ff" stroke="#63b8ff" points="281.75,-82.4 288.43,-74.17 278.08,-76.44 281.75,-82.4"/>
</a>
</g>
</g>
<!-- Node19&#45;&gt;Node15 -->
<g id="edge24_Node000019_Node000015" class="edge">
<title>Node19&#45;&gt;Node15</title>
<g id="a_edge24_Node000019_Node000015"><a xlink:title=" ">
<path fill="none" stroke="#63b8ff" d="M220.18,-109.66C227.54,-92.01 244.17,-52.09 253.94,-28.64"/>
<polygon fill="#63b8ff" stroke="#63b8ff" points="257.28,-29.74 257.89,-19.16 250.82,-27.04 257.28,-29.74"/>
</a>
</g>
</g>
<!-- Node20&#45;&gt;Node19 -->
<g id="edge28_Node000020_Node000019" class="edge">
<title>Node20&#45;&gt;Node19</title>
<g id="a_edge28_Node000020_Node000019"><a xlink:title=" ">
<path fill="none" stroke="#63b8ff" d="M193.96,-164.75C197.62,-157.57 202.91,-147.18 207.45,-138.27"/>
<polygon fill="#63b8ff" stroke="#63b8ff" points="210.7,-139.59 212.12,-129.09 204.47,-136.41 210.7,-139.59"/>
</a>
</g>
</g>
</g>
</svg>
