<?xml version="1.0" encoding="UTF-8" standalone="no"?>
<!DOCTYPE svg PUBLIC "-//W3C//DTD SVG 1.1//EN"
 "http://www.w3.org/Graphics/SVG/1.1/DTD/svg11.dtd">
<!-- Generated by graphviz version 2.43.0 (0)
 -->
<!-- Title: src/Rendering/FrameBuffers/DepthAtlasFrameBuffer.hpp Pages: 1 -->
<svg width="467pt" height="269pt"
 viewBox="0.00 0.00 466.50 269.00" xmlns="http://www.w3.org/2000/svg" xmlns:xlink="http://www.w3.org/1999/xlink">
<g id="graph0" class="graph" transform="scale(1 1) rotate(0) translate(4 265)">
<title>src/Rendering/FrameBuffers/DepthAtlasFrameBuffer.hpp</title>
<!-- Node1 -->
<g id="Node000001" class="node">
<title>Node1</title>
<g id="a_Node000001"><a xlink:title=" ">
<polygon fill="#999999" stroke="#666666" points="163,-261 9,-261 9,-231 163,-231 163,-261"/>
<text text-anchor="start" x="17" y="-249" font-family="Helvetica,sans-Serif" font-size="10.00">src/Rendering/FrameBuffers</text>
<text text-anchor="middle" x="86" y="-238" font-family="Helvetica,sans-Serif" font-size="10.00">/DepthAtlasFrameBuffer.hpp</text>
</a>
</g>
</g>
<!-- Node2 -->
<g id="Node000002" class="node">
<title>Node2</title>
<g id="a_Node000002"><a xlink:title=" ">
<polygon fill="#e0e0e0" stroke="#999999" points="58,-195 0,-195 0,-176 58,-176 58,-195"/>
<text text-anchor="middle" x="29" y="-183" font-family="Helvetica,sans-Serif" font-size="10.00">memory</text>
</a>
</g>
</g>
<!-- Node1&#45;&gt;Node2 -->
<g id="edge1_Node000001_Node000002" class="edge">
<title>Node1&#45;&gt;Node2</title>
<g id="a_edge1_Node000001_Node000002"><a xlink:title=" ">
<path fill="none" stroke="#63b8ff" d="M72.2,-230.84C63.93,-222.35 53.38,-211.52 44.77,-202.69"/>
<polygon fill="#63b8ff" stroke="#63b8ff" points="47.03,-199.99 37.54,-195.27 42.01,-204.87 47.03,-199.99"/>
</a>
</g>
</g>
<!-- Node3 -->
<g id="Node000003" class="node">
<title>Node3</title>
<g id="a_Node000003"><a xlink:title=" ">
<polygon fill="#e0e0e0" stroke="#999999" points="125.5,-140 54.5,-140 54.5,-121 125.5,-121 125.5,-140"/>
<text text-anchor="middle" x="90" y="-128" font-family="Helvetica,sans-Serif" font-size="10.00">glad/glad.h</text>
</a>
</g>
</g>
<!-- Node1&#45;&gt;Node3 -->
<g id="edge2_Node000001_Node000003" class="edge">
<title>Node1&#45;&gt;Node3</title>
<g id="a_edge2_Node000001_Node000003"><a xlink:title=" ">
<path fill="none" stroke="#63b8ff" d="M86.51,-230.63C87.23,-210.21 88.54,-172.81 89.34,-150.24"/>
<polygon fill="#63b8ff" stroke="#63b8ff" points="92.84,-150.35 89.69,-140.23 85.84,-150.1 92.84,-150.35"/>
</a>
</g>
</g>
<!-- Node4 -->
<g id="Node000004" class="node">
<title>Node4</title>
<g id="a_Node000004"><a xlink:href="_texture_8hpp.html" target="_top" xlink:title=" ">
<polygon fill="white" stroke="#666666" points="260,-195 114,-195 114,-176 260,-176 260,-195"/>
<text text-anchor="middle" x="187" y="-183" font-family="Helvetica,sans-Serif" font-size="10.00">AssetManager/Texture.hpp</text>
</a>
</g>
</g>
<!-- Node1&#45;&gt;Node4 -->
<g id="edge3_Node000001_Node000004" class="edge">
<title>Node1&#45;&gt;Node4</title>
<g id="a_edge3_Node000001_Node000004"><a xlink:title=" ">
<path fill="none" stroke="#63b8ff" d="M110.19,-230.99C126.29,-221.66 147.34,-209.47 163.33,-200.21"/>
<polygon fill="#63b8ff" stroke="#63b8ff" points="165.19,-203.18 172.08,-195.14 161.68,-197.12 165.19,-203.18"/>
</a>
</g>
</g>
<!-- Node4&#45;&gt;Node3 -->
<g id="edge4_Node000004_Node000003" class="edge">
<title>Node4&#45;&gt;Node3</title>
<g id="a_edge4_Node000004_Node000003"><a xlink:title=" ">
<path fill="none" stroke="#63b8ff" d="M171.42,-175.98C156.23,-167.69 132.9,-154.94 115.1,-145.22"/>
<polygon fill="#63b8ff" stroke="#63b8ff" points="116.32,-141.89 105.87,-140.17 112.97,-148.04 116.32,-141.89"/>
</a>
</g>
</g>
<!-- Node5 -->
<g id="Node000005" class="node">
<title>Node5</title>
<g id="a_Node000005"><a xlink:title=" ">
<polygon fill="#e0e0e0" stroke="#999999" points="224,-140 146,-140 146,-121 224,-121 224,-140"/>
<text text-anchor="middle" x="185" y="-128" font-family="Helvetica,sans-Serif" font-size="10.00">glm/glm.hpp</text>
</a>
</g>
</g>
<!-- Node4&#45;&gt;Node5 -->
<g id="edge5_Node000004_Node000005" class="edge">
<title>Node4&#45;&gt;Node5</title>
<g id="a_edge5_Node000004_Node000005"><a xlink:title=" ">
<path fill="none" stroke="#63b8ff" d="M186.67,-175.75C186.41,-168.8 186.03,-158.85 185.7,-150.13"/>
<polygon fill="#63b8ff" stroke="#63b8ff" points="189.2,-149.95 185.32,-140.09 182.2,-150.21 189.2,-149.95"/>
</a>
</g>
</g>
<!-- Node6 -->
<g id="Node000006" class="node">
<title>Node6</title>
<g id="a_Node000006"><a xlink:href="_image_8hpp.html" target="_top" xlink:title=" ">
<polygon fill="white" stroke="#666666" points="383.5,-140 242.5,-140 242.5,-121 383.5,-121 383.5,-140"/>
<text text-anchor="middle" x="313" y="-128" font-family="Helvetica,sans-Serif" font-size="10.00">AssetManager/Image.hpp</text>
</a>
</g>
</g>
<!-- Node4&#45;&gt;Node6 -->
<g id="edge6_Node000004_Node000006" class="edge">
<title>Node4&#45;&gt;Node6</title>
<g id="a_edge6_Node000004_Node000006"><a xlink:title=" ">
<path fill="none" stroke="#63b8ff" d="M207.24,-175.98C227.7,-167.38 259.53,-153.99 282.93,-144.15"/>
<polygon fill="#63b8ff" stroke="#63b8ff" points="284.53,-147.27 292.39,-140.17 281.81,-140.82 284.53,-147.27"/>
</a>
</g>
</g>
<!-- Node7 -->
<g id="Node000007" class="node">
<title>Node7</title>
<g id="a_Node000007"><a xlink:title=" ">
<polygon fill="#e0e0e0" stroke="#999999" points="347,-19 279,-19 279,0 347,0 347,-19"/>
<text text-anchor="middle" x="313" y="-7" font-family="Helvetica,sans-Serif" font-size="10.00">filesystem</text>
</a>
</g>
</g>
<!-- Node6&#45;&gt;Node7 -->
<g id="edge7_Node000006_Node000007" class="edge">
<title>Node6&#45;&gt;Node7</title>
<g id="a_edge7_Node000006_Node000007"><a xlink:title=" ">
<path fill="none" stroke="#63b8ff" d="M302.01,-120.99C292.55,-112.9 279.57,-99.81 274,-85 269.31,-72.52 269.31,-67.48 274,-55 278.18,-43.89 286.52,-33.75 294.43,-25.96"/>
<polygon fill="#63b8ff" stroke="#63b8ff" points="297.01,-28.35 302.01,-19.01 292.28,-23.19 297.01,-28.35"/>
</a>
</g>
</g>
<!-- Node8 -->
<g id="Node000008" class="node">
<title>Node8</title>
<g id="a_Node000008"><a xlink:href="_path_constructible_asset_8hpp.html" target="_top" xlink:title=" ">
<polygon fill="white" stroke="#666666" points="458.5,-85 283.5,-85 283.5,-55 458.5,-55 458.5,-85"/>
<text text-anchor="start" x="291.5" y="-73" font-family="Helvetica,sans-Serif" font-size="10.00">AssetManager/PathConstructible</text>
<text text-anchor="middle" x="371" y="-62" font-family="Helvetica,sans-Serif" font-size="10.00">Asset.hpp</text>
</a>
</g>
</g>
<!-- Node6&#45;&gt;Node8 -->
<g id="edge8_Node000006_Node000008" class="edge">
<title>Node6&#45;&gt;Node8</title>
<g id="a_edge8_Node000006_Node000008"><a xlink:title=" ">
<path fill="none" stroke="#63b8ff" d="M321.56,-120.87C328.99,-113.37 340.07,-102.2 349.86,-92.33"/>
<polygon fill="#63b8ff" stroke="#63b8ff" points="352.45,-94.68 357.01,-85.11 347.48,-89.75 352.45,-94.68"/>
</a>
</g>
</g>
<!-- Node8&#45;&gt;Node7 -->
<g id="edge9_Node000008_Node000007" class="edge">
<title>Node8&#45;&gt;Node7</title>
<g id="a_edge9_Node000008_Node000007"><a xlink:title=" ">
<path fill="none" stroke="#63b8ff" d="M356.96,-54.84C348.45,-46.26 337.59,-35.3 328.78,-26.42"/>
<polygon fill="#63b8ff" stroke="#63b8ff" points="331.22,-23.9 321.69,-19.27 326.25,-28.83 331.22,-23.9"/>
</a>
</g>
</g>
</g>
</svg>
