<?xml version="1.0" encoding="UTF-8" standalone="no"?>
<!DOCTYPE svg PUBLIC "-//W3C//DTD SVG 1.1//EN"
 "http://www.w3.org/Graphics/SVG/1.1/DTD/svg11.dtd">
<!-- Generated by graphviz version 2.43.0 (0)
 -->
<!-- Title: src/Rendering/FrameBuffers/DepthAtlasFrameBuffer.cpp Pages: 1 -->
<svg width="533pt" height="445pt"
 viewBox="0.00 0.00 533.00 445.00" xmlns="http://www.w3.org/2000/svg" xmlns:xlink="http://www.w3.org/1999/xlink">
<g id="graph0" class="graph" transform="scale(1 1) rotate(0) translate(4 441)">
<title>src/Rendering/FrameBuffers/DepthAtlasFrameBuffer.cpp</title>
<!-- Node1 -->
<g id="Node000001" class="node">
<title>Node1</title>
<g id="a_Node000001"><a xlink:title=" ">
<polygon fill="#999999" stroke="#666666" points="213.5,-437 60.5,-437 60.5,-407 213.5,-407 213.5,-437"/>
<text text-anchor="start" x="68.5" y="-425" font-family="Helvetica,sans-Serif" font-size="10.00">src/Rendering/FrameBuffers</text>
<text text-anchor="middle" x="137" y="-414" font-family="Helvetica,sans-Serif" font-size="10.00">/DepthAtlasFrameBuffer.cpp</text>
</a>
</g>
</g>
<!-- Node2 -->
<g id="Node000002" class="node">
<title>Node2</title>
<g id="a_Node000002"><a xlink:title=" ">
<polygon fill="#e0e0e0" stroke="#999999" points="60,-365.5 0,-365.5 0,-346.5 60,-346.5 60,-365.5"/>
<text text-anchor="middle" x="30" y="-353.5" font-family="Helvetica,sans-Serif" font-size="10.00">iostream</text>
</a>
</g>
</g>
<!-- Node1&#45;&gt;Node2 -->
<g id="edge1_Node000001_Node000002" class="edge">
<title>Node1&#45;&gt;Node2</title>
<g id="a_edge1_Node000001_Node000002"><a xlink:title=" ">
<path fill="none" stroke="#63b8ff" d="M113.52,-406.95C95.5,-396.18 70.76,-381.38 52.89,-370.69"/>
<polygon fill="#63b8ff" stroke="#63b8ff" points="54.62,-367.65 44.24,-365.52 51.03,-373.65 54.62,-367.65"/>
</a>
</g>
</g>
<!-- Node3 -->
<g id="Node000003" class="node">
<title>Node3</title>
<g id="a_Node000003"><a xlink:href="_logger_8hpp.html" target="_top" xlink:title=" ">
<polygon fill="white" stroke="#666666" points="195.5,-365.5 78.5,-365.5 78.5,-346.5 195.5,-346.5 195.5,-365.5"/>
<text text-anchor="middle" x="137" y="-353.5" font-family="Helvetica,sans-Serif" font-size="10.00">Common/Logger.hpp</text>
</a>
</g>
</g>
<!-- Node1&#45;&gt;Node3 -->
<g id="edge2_Node000001_Node000003" class="edge">
<title>Node1&#45;&gt;Node3</title>
<g id="a_edge2_Node000001_Node000003"><a xlink:title=" ">
<path fill="none" stroke="#63b8ff" d="M137,-406.8C137,-397.7 137,-385.79 137,-375.9"/>
<polygon fill="#63b8ff" stroke="#63b8ff" points="140.5,-375.84 137,-365.84 133.5,-375.84 140.5,-375.84"/>
</a>
</g>
</g>
<!-- Node6 -->
<g id="Node000006" class="node">
<title>Node6</title>
<g id="a_Node000006"><a xlink:href="_depth_atlas_frame_buffer_8hpp.html" target="_top" xlink:title=" ">
<polygon fill="white" stroke="#666666" points="368,-371 214,-371 214,-341 368,-341 368,-371"/>
<text text-anchor="start" x="222" y="-359" font-family="Helvetica,sans-Serif" font-size="10.00">Rendering/FrameBuffers</text>
<text text-anchor="middle" x="291" y="-348" font-family="Helvetica,sans-Serif" font-size="10.00">/DepthAtlasFrameBuffer.hpp</text>
</a>
</g>
</g>
<!-- Node1&#45;&gt;Node6 -->
<g id="edge5_Node000001_Node000006" class="edge">
<title>Node1&#45;&gt;Node6</title>
<g id="a_edge5_Node000001_Node000006"><a xlink:title=" ">
<path fill="none" stroke="#63b8ff" d="M170.8,-406.95C193.46,-397.53 223.52,-385.04 247.9,-374.91"/>
<polygon fill="#63b8ff" stroke="#63b8ff" points="249.39,-378.08 257.28,-371.01 246.71,-371.62 249.39,-378.08"/>
</a>
</g>
</g>
<!-- Node4 -->
<g id="Node000004" class="node">
<title>Node4</title>
<g id="a_Node000004"><a xlink:title=" ">
<polygon fill="#e0e0e0" stroke="#999999" points="193,-19 145,-19 145,0 193,0 193,-19"/>
<text text-anchor="middle" x="169" y="-7" font-family="Helvetica,sans-Serif" font-size="10.00">mutex</text>
</a>
</g>
</g>
<!-- Node3&#45;&gt;Node4 -->
<g id="edge3_Node000003_Node000004" class="edge">
<title>Node3&#45;&gt;Node4</title>
<g id="a_edge3_Node000003_Node000004"><a xlink:title=" ">
<path fill="none" stroke="#63b8ff" d="M136.11,-346.47C134.23,-327.58 130,-280.79 130,-241.5 130,-241.5 130,-241.5 130,-118.5 130,-84.92 146.88,-48.78 158.43,-27.98"/>
<polygon fill="#63b8ff" stroke="#63b8ff" points="161.6,-29.49 163.58,-19.08 155.54,-25.98 161.6,-29.49"/>
</a>
</g>
</g>
<!-- Node5 -->
<g id="Node000005" class="node">
<title>Node5</title>
<g id="a_Node000005"><a xlink:title=" ">
<polygon fill="#e0e0e0" stroke="#999999" points="205.5,-305 158.5,-305 158.5,-286 205.5,-286 205.5,-305"/>
<text text-anchor="middle" x="182" y="-293" font-family="Helvetica,sans-Serif" font-size="10.00">queue</text>
</a>
</g>
</g>
<!-- Node3&#45;&gt;Node5 -->
<g id="edge4_Node000003_Node000005" class="edge">
<title>Node3&#45;&gt;Node5</title>
<g id="a_edge4_Node000003_Node000005"><a xlink:title=" ">
<path fill="none" stroke="#63b8ff" d="M143.64,-346.37C150.29,-337.73 160.69,-324.2 168.99,-313.42"/>
<polygon fill="#63b8ff" stroke="#63b8ff" points="172.01,-315.23 175.33,-305.17 166.46,-310.96 172.01,-315.23"/>
</a>
</g>
</g>
<!-- Node7 -->
<g id="Node000007" class="node">
<title>Node7</title>
<g id="a_Node000007"><a xlink:title=" ">
<polygon fill="#e0e0e0" stroke="#999999" points="269.5,-250 198.5,-250 198.5,-231 269.5,-231 269.5,-250"/>
<text text-anchor="middle" x="234" y="-238" font-family="Helvetica,sans-Serif" font-size="10.00">glad/glad.h</text>
</a>
</g>
</g>
<!-- Node6&#45;&gt;Node7 -->
<g id="edge6_Node000006_Node000007" class="edge">
<title>Node6&#45;&gt;Node7</title>
<g id="a_edge6_Node000006_Node000007"><a xlink:title=" ">
<path fill="none" stroke="#63b8ff" d="M277.85,-340.63C269.72,-331.11 259.62,-318.02 253,-305 245.74,-290.72 240.76,-273.19 237.72,-260.17"/>
<polygon fill="#63b8ff" stroke="#63b8ff" points="241.08,-259.12 235.55,-250.08 234.23,-260.6 241.08,-259.12"/>
</a>
</g>
</g>
<!-- Node8 -->
<g id="Node000008" class="node">
<title>Node8</title>
<g id="a_Node000008"><a xlink:title=" ">
<polygon fill="#e0e0e0" stroke="#999999" points="320,-305 262,-305 262,-286 320,-286 320,-305"/>
<text text-anchor="middle" x="291" y="-293" font-family="Helvetica,sans-Serif" font-size="10.00">memory</text>
</a>
</g>
</g>
<!-- Node6&#45;&gt;Node8 -->
<g id="edge7_Node000006_Node000008" class="edge">
<title>Node6&#45;&gt;Node8</title>
<g id="a_edge7_Node000006_Node000008"><a xlink:title=" ">
<path fill="none" stroke="#63b8ff" d="M291,-340.84C291,-333.21 291,-323.7 291,-315.45"/>
<polygon fill="#63b8ff" stroke="#63b8ff" points="294.5,-315.27 291,-305.27 287.5,-315.27 294.5,-315.27"/>
</a>
</g>
</g>
<!-- Node9 -->
<g id="Node000009" class="node">
<title>Node9</title>
<g id="a_Node000009"><a xlink:href="_texture_8hpp.html" target="_top" xlink:title=" ">
<polygon fill="white" stroke="#666666" points="484,-305 338,-305 338,-286 484,-286 484,-305"/>
<text text-anchor="middle" x="411" y="-293" font-family="Helvetica,sans-Serif" font-size="10.00">AssetManager/Texture.hpp</text>
</a>
</g>
</g>
<!-- Node6&#45;&gt;Node9 -->
<g id="edge8_Node000006_Node000009" class="edge">
<title>Node6&#45;&gt;Node9</title>
<g id="a_edge8_Node000006_Node000009"><a xlink:title=" ">
<path fill="none" stroke="#63b8ff" d="M319.74,-340.99C339.32,-331.45 365.05,-318.9 384.2,-309.57"/>
<polygon fill="#63b8ff" stroke="#63b8ff" points="385.82,-312.67 393.28,-305.14 382.76,-306.38 385.82,-312.67"/>
</a>
</g>
</g>
<!-- Node9&#45;&gt;Node7 -->
<g id="edge9_Node000009_Node000007" class="edge">
<title>Node9&#45;&gt;Node7</title>
<g id="a_edge9_Node000009_Node000007"><a xlink:title=" ">
<path fill="none" stroke="#63b8ff" d="M382.56,-285.98C352.72,-277.05 305.62,-262.94 272.47,-253.02"/>
<polygon fill="#63b8ff" stroke="#63b8ff" points="273.24,-249.6 262.66,-250.08 271.24,-256.3 273.24,-249.6"/>
</a>
</g>
</g>
<!-- Node10 -->
<g id="Node000010" class="node">
<title>Node10</title>
<g id="a_Node000010"><a xlink:href="_image_8hpp.html" target="_top" xlink:title=" ">
<polygon fill="white" stroke="#666666" points="428.5,-250 287.5,-250 287.5,-231 428.5,-231 428.5,-250"/>
<text text-anchor="middle" x="358" y="-238" font-family="Helvetica,sans-Serif" font-size="10.00">AssetManager/Image.hpp</text>
</a>
</g>
</g>
<!-- Node9&#45;&gt;Node10 -->
<g id="edge10_Node000009_Node000010" class="edge">
<title>Node9&#45;&gt;Node10</title>
<g id="a_edge10_Node000009_Node000010"><a xlink:title=" ">
<path fill="none" stroke="#63b8ff" d="M402.25,-285.75C394.53,-278.03 383.1,-266.6 373.78,-257.28"/>
<polygon fill="#63b8ff" stroke="#63b8ff" points="376.14,-254.69 366.59,-250.09 371.19,-259.64 376.14,-254.69"/>
</a>
</g>
</g>
<!-- Node20 -->
<g id="Node000020" class="node">
<title>Node20</title>
<g id="a_Node000020"><a xlink:title=" ">
<polygon fill="#e0e0e0" stroke="#999999" points="525,-250 447,-250 447,-231 525,-231 525,-250"/>
<text text-anchor="middle" x="486" y="-238" font-family="Helvetica,sans-Serif" font-size="10.00">glm/glm.hpp</text>
</a>
</g>
</g>
<!-- Node9&#45;&gt;Node20 -->
<g id="edge22_Node000009_Node000020" class="edge">
<title>Node9&#45;&gt;Node20</title>
<g id="a_edge22_Node000009_Node000020"><a xlink:title=" ">
<path fill="none" stroke="#63b8ff" d="M423.05,-285.98C434.46,-277.92 451.83,-265.65 465.43,-256.03"/>
<polygon fill="#63b8ff" stroke="#63b8ff" points="467.58,-258.8 473.73,-250.17 463.54,-253.08 467.58,-258.8"/>
</a>
</g>
</g>
<!-- Node11 -->
<g id="Node000011" class="node">
<title>Node11</title>
<g id="a_Node000011"><a xlink:title=" ">
<polygon fill="#e0e0e0" stroke="#999999" points="267,-129 199,-129 199,-110 267,-110 267,-129"/>
<text text-anchor="middle" x="233" y="-117" font-family="Helvetica,sans-Serif" font-size="10.00">filesystem</text>
</a>
</g>
</g>
<!-- Node10&#45;&gt;Node11 -->
<g id="edge11_Node000010_Node000011" class="edge">
<title>Node10&#45;&gt;Node11</title>
<g id="a_edge11_Node000010_Node000011"><a xlink:title=" ">
<path fill="none" stroke="#63b8ff" d="M324.39,-230.89C303.98,-224.13 278.73,-212.81 262,-195 247.49,-179.55 239.97,-156.01 236.26,-139.54"/>
<polygon fill="#63b8ff" stroke="#63b8ff" points="239.64,-138.58 234.27,-129.45 232.78,-139.94 239.64,-138.58"/>
</a>
</g>
</g>
<!-- Node12 -->
<g id="Node000012" class="node">
<title>Node12</title>
<g id="a_Node000012"><a xlink:href="_path_constructible_asset_8hpp.html" target="_top" xlink:title=" ">
<polygon fill="white" stroke="#666666" points="445.5,-195 270.5,-195 270.5,-165 445.5,-165 445.5,-195"/>
<text text-anchor="start" x="278.5" y="-183" font-family="Helvetica,sans-Serif" font-size="10.00">AssetManager/PathConstructible</text>
<text text-anchor="middle" x="358" y="-172" font-family="Helvetica,sans-Serif" font-size="10.00">Asset.hpp</text>
</a>
</g>
</g>
<!-- Node10&#45;&gt;Node12 -->
<g id="edge12_Node000010_Node000012" class="edge">
<title>Node10&#45;&gt;Node12</title>
<g id="a_edge12_Node000010_Node000012"><a xlink:title=" ">
<path fill="none" stroke="#63b8ff" d="M358,-230.87C358,-224.11 358,-214.35 358,-205.26"/>
<polygon fill="#63b8ff" stroke="#63b8ff" points="361.5,-205.11 358,-195.11 354.5,-205.11 361.5,-205.11"/>
</a>
</g>
</g>
<!-- Node12&#45;&gt;Node11 -->
<g id="edge13_Node000012_Node000011" class="edge">
<title>Node12&#45;&gt;Node11</title>
<g id="a_edge13_Node000012_Node000011"><a xlink:title=" ">
<path fill="none" stroke="#63b8ff" d="M328.06,-164.99C307.58,-155.4 280.62,-142.79 260.65,-133.44"/>
<polygon fill="#63b8ff" stroke="#63b8ff" points="262,-130.21 251.46,-129.14 259.03,-136.55 262,-130.21"/>
</a>
</g>
</g>
<!-- Node13 -->
<g id="Node000013" class="node">
<title>Node13</title>
<g id="a_Node000013"><a xlink:href="_instance_counter_8hpp.html" target="_top" xlink:title=" ">
<polygon fill="white" stroke="#666666" points="449,-129 285,-129 285,-110 449,-110 449,-129"/>
<text text-anchor="middle" x="367" y="-117" font-family="Helvetica,sans-Serif" font-size="10.00">Common/InstanceCounter.hpp</text>
</a>
</g>
</g>
<!-- Node12&#45;&gt;Node13 -->
<g id="edge14_Node000012_Node000013" class="edge">
<title>Node12&#45;&gt;Node13</title>
<g id="a_edge14_Node000012_Node000013"><a xlink:title=" ">
<path fill="none" stroke="#63b8ff" d="M360.18,-164.84C361.37,-157.13 362.85,-147.49 364.13,-139.17"/>
<polygon fill="#63b8ff" stroke="#63b8ff" points="367.59,-139.68 365.65,-129.27 360.67,-138.62 367.59,-139.68"/>
</a>
</g>
</g>
<!-- Node14 -->
<g id="Node000014" class="node">
<title>Node14</title>
<g id="a_Node000014"><a xlink:title=" ">
<polygon fill="#e0e0e0" stroke="#999999" points="289,-74 239,-74 239,-55 289,-55 289,-74"/>
<text text-anchor="middle" x="264" y="-62" font-family="Helvetica,sans-Serif" font-size="10.00">atomic</text>
</a>
</g>
</g>
<!-- Node13&#45;&gt;Node14 -->
<g id="edge15_Node000013_Node000014" class="edge">
<title>Node13&#45;&gt;Node14</title>
<g id="a_edge15_Node000013_Node000014"><a xlink:title=" ">
<path fill="none" stroke="#63b8ff" d="M350.45,-109.98C334.11,-101.57 308.87,-88.59 289.87,-78.81"/>
<polygon fill="#63b8ff" stroke="#63b8ff" points="291.34,-75.63 280.85,-74.17 288.14,-81.86 291.34,-75.63"/>
</a>
</g>
</g>
<!-- Node15 -->
<g id="Node000015" class="node">
<title>Node15</title>
<g id="a_Node000015"><a xlink:href="_profiler_8hpp.html" target="_top" xlink:title=" ">
<polygon fill="white" stroke="#666666" points="426.5,-74 307.5,-74 307.5,-55 426.5,-55 426.5,-74"/>
<text text-anchor="middle" x="367" y="-62" font-family="Helvetica,sans-Serif" font-size="10.00">Common/Profiler.hpp</text>
</a>
</g>
</g>
<!-- Node13&#45;&gt;Node15 -->
<g id="edge16_Node000013_Node000015" class="edge">
<title>Node13&#45;&gt;Node15</title>
<g id="a_edge16_Node000013_Node000015"><a xlink:title=" ">
<path fill="none" stroke="#63b8ff" d="M367,-109.75C367,-102.8 367,-92.85 367,-84.13"/>
<polygon fill="#63b8ff" stroke="#63b8ff" points="370.5,-84.09 367,-74.09 363.5,-84.09 370.5,-84.09"/>
</a>
</g>
</g>
<!-- Node15&#45;&gt;Node4 -->
<g id="edge19_Node000015_Node000004" class="edge">
<title>Node15&#45;&gt;Node4</title>
<g id="a_edge19_Node000015_Node000004"><a xlink:title=" ">
<path fill="none" stroke="#63b8ff" d="M335.19,-54.98C299.02,-45.3 240.19,-29.56 203.09,-19.63"/>
<polygon fill="#63b8ff" stroke="#63b8ff" points="203.81,-16.19 193.24,-16.99 202,-22.96 203.81,-16.19"/>
</a>
</g>
</g>
<!-- Node16 -->
<g id="Node000016" class="node">
<title>Node16</title>
<g id="a_Node000016"><a xlink:title=" ">
<polygon fill="#e0e0e0" stroke="#999999" points="300,-19 250,-19 250,0 300,0 300,-19"/>
<text text-anchor="middle" x="275" y="-7" font-family="Helvetica,sans-Serif" font-size="10.00">chrono</text>
</a>
</g>
</g>
<!-- Node15&#45;&gt;Node16 -->
<g id="edge17_Node000015_Node000016" class="edge">
<title>Node15&#45;&gt;Node16</title>
<g id="a_edge17_Node000015_Node000016"><a xlink:title=" ">
<path fill="none" stroke="#63b8ff" d="M352.22,-54.98C337.82,-46.69 315.69,-33.94 298.81,-24.22"/>
<polygon fill="#63b8ff" stroke="#63b8ff" points="300.46,-21.13 290.05,-19.17 296.97,-27.19 300.46,-21.13"/>
</a>
</g>
</g>
<!-- Node17 -->
<g id="Node000017" class="node">
<title>Node17</title>
<g id="a_Node000017"><a xlink:title=" ">
<polygon fill="#e0e0e0" stroke="#999999" points="356,-19 318,-19 318,0 356,0 356,-19"/>
<text text-anchor="middle" x="337" y="-7" font-family="Helvetica,sans-Serif" font-size="10.00">map</text>
</a>
</g>
</g>
<!-- Node15&#45;&gt;Node17 -->
<g id="edge18_Node000015_Node000017" class="edge">
<title>Node15&#45;&gt;Node17</title>
<g id="a_edge18_Node000015_Node000017"><a xlink:title=" ">
<path fill="none" stroke="#63b8ff" d="M362.05,-54.75C357.94,-47.49 351.97,-36.95 346.9,-27.98"/>
<polygon fill="#63b8ff" stroke="#63b8ff" points="349.83,-26.07 341.86,-19.09 343.74,-29.52 349.83,-26.07"/>
</a>
</g>
</g>
<!-- Node18 -->
<g id="Node000018" class="node">
<title>Node18</title>
<g id="a_Node000018"><a xlink:title=" ">
<polygon fill="#e0e0e0" stroke="#999999" points="418,-19 374,-19 374,0 418,0 418,-19"/>
<text text-anchor="middle" x="396" y="-7" font-family="Helvetica,sans-Serif" font-size="10.00">string</text>
</a>
</g>
</g>
<!-- Node15&#45;&gt;Node18 -->
<g id="edge20_Node000015_Node000018" class="edge">
<title>Node15&#45;&gt;Node18</title>
<g id="a_edge20_Node000015_Node000018"><a xlink:title=" ">
<path fill="none" stroke="#63b8ff" d="M371.79,-54.75C375.76,-47.49 381.53,-36.95 386.43,-27.98"/>
<polygon fill="#63b8ff" stroke="#63b8ff" points="389.57,-29.54 391.3,-19.09 383.43,-26.18 389.57,-29.54"/>
</a>
</g>
</g>
<!-- Node19 -->
<g id="Node000019" class="node">
<title>Node19</title>
<g id="a_Node000019"><a xlink:title=" ">
<polygon fill="#e0e0e0" stroke="#999999" points="484,-19 436,-19 436,0 484,0 484,-19"/>
<text text-anchor="middle" x="460" y="-7" font-family="Helvetica,sans-Serif" font-size="10.00">thread</text>
</a>
</g>
</g>
<!-- Node15&#45;&gt;Node19 -->
<g id="edge21_Node000015_Node000019" class="edge">
<title>Node15&#45;&gt;Node19</title>
<g id="a_edge21_Node000015_Node000019"><a xlink:title=" ">
<path fill="none" stroke="#63b8ff" d="M381.94,-54.98C396.5,-46.69 418.87,-33.94 435.93,-24.22"/>
<polygon fill="#63b8ff" stroke="#63b8ff" points="437.83,-27.16 444.79,-19.17 434.36,-21.08 437.83,-27.16"/>
</a>
</g>
</g>
</g>
</svg>
