<?xml version="1.0" encoding="UTF-8" standalone="no"?>
<!DOCTYPE svg PUBLIC "-//W3C//DTD SVG 1.1//EN"
 "http://www.w3.org/Graphics/SVG/1.1/DTD/svg11.dtd">
<!-- Generated by graphviz version 2.43.0 (0)
 -->
<!-- Title: src/Rendering/FrameBuffers/DepthAtlasFrameBuffer.cpp Pages: 1 -->
<svg width="672pt" height="335pt"
 viewBox="0.00 0.00 671.50 335.00" xmlns="http://www.w3.org/2000/svg" xmlns:xlink="http://www.w3.org/1999/xlink">
<g id="graph0" class="graph" transform="scale(1 1) rotate(0) translate(4 331)">
<title>src/Rendering/FrameBuffers/DepthAtlasFrameBuffer.cpp</title>
<!-- Node1 -->
<g id="Node000001" class="node">
<title>Node1</title>
<g id="a_Node000001"><a xlink:title=" ">
<polygon fill="#999999" stroke="#666666" points="213.5,-327 60.5,-327 60.5,-297 213.5,-297 213.5,-327"/>
<text text-anchor="start" x="68.5" y="-315" font-family="Helvetica,sans-Serif" font-size="10.00">src/Rendering/FrameBuffers</text>
<text text-anchor="middle" x="137" y="-304" font-family="Helvetica,sans-Serif" font-size="10.00">/DepthAtlasFrameBuffer.cpp</text>
</a>
</g>
</g>
<!-- Node2 -->
<g id="Node000002" class="node">
<title>Node2</title>
<g id="a_Node000002"><a xlink:title=" ">
<polygon fill="#e0e0e0" stroke="#999999" points="60,-255.5 0,-255.5 0,-236.5 60,-236.5 60,-255.5"/>
<text text-anchor="middle" x="30" y="-243.5" font-family="Helvetica,sans-Serif" font-size="10.00">iostream</text>
</a>
</g>
</g>
<!-- Node1&#45;&gt;Node2 -->
<g id="edge1_Node000001_Node000002" class="edge">
<title>Node1&#45;&gt;Node2</title>
<g id="a_edge1_Node000001_Node000002"><a xlink:title=" ">
<path fill="none" stroke="#63b8ff" d="M113.52,-296.95C95.5,-286.18 70.76,-271.38 52.89,-260.69"/>
<polygon fill="#63b8ff" stroke="#63b8ff" points="54.62,-257.65 44.24,-255.52 51.03,-263.65 54.62,-257.65"/>
</a>
</g>
</g>
<!-- Node3 -->
<g id="Node000003" class="node">
<title>Node3</title>
<g id="a_Node000003"><a xlink:href="_logger_8hpp.html" target="_top" xlink:title=" ">
<polygon fill="white" stroke="#666666" points="195.5,-255.5 78.5,-255.5 78.5,-236.5 195.5,-236.5 195.5,-255.5"/>
<text text-anchor="middle" x="137" y="-243.5" font-family="Helvetica,sans-Serif" font-size="10.00">Common/Logger.hpp</text>
</a>
</g>
</g>
<!-- Node1&#45;&gt;Node3 -->
<g id="edge2_Node000001_Node000003" class="edge">
<title>Node1&#45;&gt;Node3</title>
<g id="a_edge2_Node000001_Node000003"><a xlink:title=" ">
<path fill="none" stroke="#63b8ff" d="M137,-296.8C137,-287.7 137,-275.79 137,-265.9"/>
<polygon fill="#63b8ff" stroke="#63b8ff" points="140.5,-265.84 137,-255.84 133.5,-265.84 140.5,-265.84"/>
</a>
</g>
</g>
<!-- Node6 -->
<g id="Node000006" class="node">
<title>Node6</title>
<g id="a_Node000006"><a xlink:href="_depth_atlas_frame_buffer_8hpp.html" target="_top" xlink:title=" ">
<polygon fill="white" stroke="#666666" points="368,-261 214,-261 214,-231 368,-231 368,-261"/>
<text text-anchor="start" x="222" y="-249" font-family="Helvetica,sans-Serif" font-size="10.00">Rendering/FrameBuffers</text>
<text text-anchor="middle" x="291" y="-238" font-family="Helvetica,sans-Serif" font-size="10.00">/DepthAtlasFrameBuffer.hpp</text>
</a>
</g>
</g>
<!-- Node1&#45;&gt;Node6 -->
<g id="edge5_Node000001_Node000006" class="edge">
<title>Node1&#45;&gt;Node6</title>
<g id="a_edge5_Node000001_Node000006"><a xlink:title=" ">
<path fill="none" stroke="#63b8ff" d="M170.8,-296.95C193.46,-287.53 223.52,-275.04 247.9,-264.91"/>
<polygon fill="#63b8ff" stroke="#63b8ff" points="249.39,-268.08 257.28,-261.01 246.71,-261.62 249.39,-268.08"/>
</a>
</g>
</g>
<!-- Node4 -->
<g id="Node000004" class="node">
<title>Node4</title>
<g id="a_Node000004"><a xlink:title=" ">
<polygon fill="#e0e0e0" stroke="#999999" points="108,-195 60,-195 60,-176 108,-176 108,-195"/>
<text text-anchor="middle" x="84" y="-183" font-family="Helvetica,sans-Serif" font-size="10.00">mutex</text>
</a>
</g>
</g>
<!-- Node3&#45;&gt;Node4 -->
<g id="edge3_Node000003_Node000004" class="edge">
<title>Node3&#45;&gt;Node4</title>
<g id="a_edge3_Node000003_Node000004"><a xlink:title=" ">
<path fill="none" stroke="#63b8ff" d="M129.18,-236.37C121.19,-227.55 108.61,-213.66 98.74,-202.77"/>
<polygon fill="#63b8ff" stroke="#63b8ff" points="101.16,-200.23 91.85,-195.17 95.97,-204.93 101.16,-200.23"/>
</a>
</g>
</g>
<!-- Node5 -->
<g id="Node000005" class="node">
<title>Node5</title>
<g id="a_Node000005"><a xlink:title=" ">
<polygon fill="#e0e0e0" stroke="#999999" points="173.5,-195 126.5,-195 126.5,-176 173.5,-176 173.5,-195"/>
<text text-anchor="middle" x="150" y="-183" font-family="Helvetica,sans-Serif" font-size="10.00">queue</text>
</a>
</g>
</g>
<!-- Node3&#45;&gt;Node5 -->
<g id="edge4_Node000003_Node000005" class="edge">
<title>Node3&#45;&gt;Node5</title>
<g id="a_edge4_Node000003_Node000005"><a xlink:title=" ">
<path fill="none" stroke="#63b8ff" d="M138.92,-236.37C140.74,-228.16 143.55,-215.54 145.88,-205.05"/>
<polygon fill="#63b8ff" stroke="#63b8ff" points="149.32,-205.69 148.07,-195.17 142.49,-204.17 149.32,-205.69"/>
</a>
</g>
</g>
<!-- Node7 -->
<g id="Node000007" class="node">
<title>Node7</title>
<g id="a_Node000007"><a xlink:title=" ">
<polygon fill="#e0e0e0" stroke="#999999" points="263,-195 205,-195 205,-176 263,-176 263,-195"/>
<text text-anchor="middle" x="234" y="-183" font-family="Helvetica,sans-Serif" font-size="10.00">memory</text>
</a>
</g>
</g>
<!-- Node6&#45;&gt;Node7 -->
<g id="edge6_Node000006_Node000007" class="edge">
<title>Node6&#45;&gt;Node7</title>
<g id="a_edge6_Node000006_Node000007"><a xlink:title=" ">
<path fill="none" stroke="#63b8ff" d="M277.2,-230.84C268.93,-222.35 258.38,-211.52 249.77,-202.69"/>
<polygon fill="#63b8ff" stroke="#63b8ff" points="252.03,-199.99 242.54,-195.27 247.01,-204.87 252.03,-199.99"/>
</a>
</g>
</g>
<!-- Node8 -->
<g id="Node000008" class="node">
<title>Node8</title>
<g id="a_Node000008"><a xlink:title=" ">
<polygon fill="#e0e0e0" stroke="#999999" points="330.5,-140 259.5,-140 259.5,-121 330.5,-121 330.5,-140"/>
<text text-anchor="middle" x="295" y="-128" font-family="Helvetica,sans-Serif" font-size="10.00">glad/glad.h</text>
</a>
</g>
</g>
<!-- Node6&#45;&gt;Node8 -->
<g id="edge7_Node000006_Node000008" class="edge">
<title>Node6&#45;&gt;Node8</title>
<g id="a_edge7_Node000006_Node000008"><a xlink:title=" ">
<path fill="none" stroke="#63b8ff" d="M291.51,-230.63C292.23,-210.21 293.54,-172.81 294.34,-150.24"/>
<polygon fill="#63b8ff" stroke="#63b8ff" points="297.84,-150.35 294.69,-140.23 290.84,-150.1 297.84,-150.35"/>
</a>
</g>
</g>
<!-- Node9 -->
<g id="Node000009" class="node">
<title>Node9</title>
<g id="a_Node000009"><a xlink:href="_texture_8hpp.html" target="_top" xlink:title=" ">
<polygon fill="white" stroke="#666666" points="465,-195 319,-195 319,-176 465,-176 465,-195"/>
<text text-anchor="middle" x="392" y="-183" font-family="Helvetica,sans-Serif" font-size="10.00">AssetManager/Texture.hpp</text>
</a>
</g>
</g>
<!-- Node6&#45;&gt;Node9 -->
<g id="edge8_Node000006_Node000009" class="edge">
<title>Node6&#45;&gt;Node9</title>
<g id="a_edge8_Node000006_Node000009"><a xlink:title=" ">
<path fill="none" stroke="#63b8ff" d="M315.19,-230.99C331.29,-221.66 352.34,-209.47 368.33,-200.21"/>
<polygon fill="#63b8ff" stroke="#63b8ff" points="370.19,-203.18 377.08,-195.14 366.68,-197.12 370.19,-203.18"/>
</a>
</g>
</g>
<!-- Node9&#45;&gt;Node8 -->
<g id="edge9_Node000009_Node000008" class="edge">
<title>Node9&#45;&gt;Node8</title>
<g id="a_edge9_Node000009_Node000008"><a xlink:title=" ">
<path fill="none" stroke="#63b8ff" d="M376.42,-175.98C361.23,-167.69 337.9,-154.94 320.1,-145.22"/>
<polygon fill="#63b8ff" stroke="#63b8ff" points="321.32,-141.89 310.87,-140.17 317.97,-148.04 321.32,-141.89"/>
</a>
</g>
</g>
<!-- Node10 -->
<g id="Node000010" class="node">
<title>Node10</title>
<g id="a_Node000010"><a xlink:title=" ">
<polygon fill="#e0e0e0" stroke="#999999" points="429,-140 351,-140 351,-121 429,-121 429,-140"/>
<text text-anchor="middle" x="390" y="-128" font-family="Helvetica,sans-Serif" font-size="10.00">glm/glm.hpp</text>
</a>
</g>
</g>
<!-- Node9&#45;&gt;Node10 -->
<g id="edge10_Node000009_Node000010" class="edge">
<title>Node9&#45;&gt;Node10</title>
<g id="a_edge10_Node000009_Node000010"><a xlink:title=" ">
<path fill="none" stroke="#63b8ff" d="M391.67,-175.75C391.41,-168.8 391.03,-158.85 390.7,-150.13"/>
<polygon fill="#63b8ff" stroke="#63b8ff" points="394.2,-149.95 390.32,-140.09 387.2,-150.21 394.2,-149.95"/>
</a>
</g>
</g>
<!-- Node11 -->
<g id="Node000011" class="node">
<title>Node11</title>
<g id="a_Node000011"><a xlink:href="_image_8hpp.html" target="_top" xlink:title=" ">
<polygon fill="white" stroke="#666666" points="588.5,-140 447.5,-140 447.5,-121 588.5,-121 588.5,-140"/>
<text text-anchor="middle" x="518" y="-128" font-family="Helvetica,sans-Serif" font-size="10.00">AssetManager/Image.hpp</text>
</a>
</g>
</g>
<!-- Node9&#45;&gt;Node11 -->
<g id="edge11_Node000009_Node000011" class="edge">
<title>Node9&#45;&gt;Node11</title>
<g id="a_edge11_Node000009_Node000011"><a xlink:title=" ">
<path fill="none" stroke="#63b8ff" d="M412.24,-175.98C432.7,-167.38 464.53,-153.99 487.93,-144.15"/>
<polygon fill="#63b8ff" stroke="#63b8ff" points="489.53,-147.27 497.39,-140.17 486.81,-140.82 489.53,-147.27"/>
</a>
</g>
</g>
<!-- Node12 -->
<g id="Node000012" class="node">
<title>Node12</title>
<g id="a_Node000012"><a xlink:title=" ">
<polygon fill="#e0e0e0" stroke="#999999" points="552,-19 484,-19 484,0 552,0 552,-19"/>
<text text-anchor="middle" x="518" y="-7" font-family="Helvetica,sans-Serif" font-size="10.00">filesystem</text>
</a>
</g>
</g>
<!-- Node11&#45;&gt;Node12 -->
<g id="edge12_Node000011_Node000012" class="edge">
<title>Node11&#45;&gt;Node12</title>
<g id="a_edge12_Node000011_Node000012"><a xlink:title=" ">
<path fill="none" stroke="#63b8ff" d="M507.01,-120.99C497.55,-112.9 484.57,-99.81 479,-85 474.31,-72.52 474.31,-67.48 479,-55 483.18,-43.89 491.52,-33.75 499.43,-25.96"/>
<polygon fill="#63b8ff" stroke="#63b8ff" points="502.01,-28.35 507.01,-19.01 497.28,-23.19 502.01,-28.35"/>
</a>
</g>
</g>
<!-- Node13 -->
<g id="Node000013" class="node">
<title>Node13</title>
<g id="a_Node000013"><a xlink:href="_path_constructible_asset_8hpp.html" target="_top" xlink:title=" ">
<polygon fill="white" stroke="#666666" points="663.5,-85 488.5,-85 488.5,-55 663.5,-55 663.5,-85"/>
<text text-anchor="start" x="496.5" y="-73" font-family="Helvetica,sans-Serif" font-size="10.00">AssetManager/PathConstructible</text>
<text text-anchor="middle" x="576" y="-62" font-family="Helvetica,sans-Serif" font-size="10.00">Asset.hpp</text>
</a>
</g>
</g>
<!-- Node11&#45;&gt;Node13 -->
<g id="edge13_Node000011_Node000013" class="edge">
<title>Node11&#45;&gt;Node13</title>
<g id="a_edge13_Node000011_Node000013"><a xlink:title=" ">
<path fill="none" stroke="#63b8ff" d="M526.56,-120.87C533.99,-113.37 545.07,-102.2 554.86,-92.33"/>
<polygon fill="#63b8ff" stroke="#63b8ff" points="557.45,-94.68 562.01,-85.11 552.48,-89.75 557.45,-94.68"/>
</a>
</g>
</g>
<!-- Node13&#45;&gt;Node12 -->
<g id="edge14_Node000013_Node000012" class="edge">
<title>Node13&#45;&gt;Node12</title>
<g id="a_edge14_Node000013_Node000012"><a xlink:title=" ">
<path fill="none" stroke="#63b8ff" d="M561.96,-54.84C553.45,-46.26 542.59,-35.3 533.78,-26.42"/>
<polygon fill="#63b8ff" stroke="#63b8ff" points="536.22,-23.9 526.69,-19.27 531.25,-28.83 536.22,-23.9"/>
</a>
</g>
</g>
</g>
</svg>
