<?xml version="1.0" encoding="UTF-8" standalone="no"?>
<!DOCTYPE svg PUBLIC "-//W3C//DTD SVG 1.1//EN"
 "http://www.w3.org/Graphics/SVG/1.1/DTD/svg11.dtd">
<!-- Generated by graphviz version 2.43.0 (0)
 -->
<!-- Title: src/Rendering/FrameBuffers/DepthCubeMapFrameBuffer.hpp Pages: 1 -->
<svg width="482pt" height="379pt"
 viewBox="0.00 0.00 481.50 379.00" xmlns="http://www.w3.org/2000/svg" xmlns:xlink="http://www.w3.org/1999/xlink">
<g id="graph0" class="graph" transform="scale(1 1) rotate(0) translate(4 375)">
<title>src/Rendering/FrameBuffers/DepthCubeMapFrameBuffer.hpp</title>
<!-- Node1 -->
<g id="Node000001" class="node">
<title>Node1</title>
<g id="a_Node000001"><a xlink:title=" ">
<polygon fill="#999999" stroke="#666666" points="175,-371 0,-371 0,-341 175,-341 175,-371"/>
<text text-anchor="start" x="8" y="-359" font-family="Helvetica,sans-Serif" font-size="10.00">src/Rendering/FrameBuffers</text>
<text text-anchor="middle" x="87.5" y="-348" font-family="Helvetica,sans-Serif" font-size="10.00">/DepthCubeMapFrameBuffer.hpp</text>
</a>
</g>
</g>
<!-- Node2 -->
<g id="Node000002" class="node">
<title>Node2</title>
<g id="a_Node000002"><a xlink:title=" ">
<polygon fill="#e0e0e0" stroke="#999999" points="92,-250 21,-250 21,-231 92,-231 92,-250"/>
<text text-anchor="middle" x="56.5" y="-238" font-family="Helvetica,sans-Serif" font-size="10.00">glad/glad.h</text>
</a>
</g>
</g>
<!-- Node1&#45;&gt;Node2 -->
<g id="edge1_Node000001_Node000002" class="edge">
<title>Node1&#45;&gt;Node2</title>
<g id="a_edge1_Node000001_Node000002"><a xlink:title=" ">
<path fill="none" stroke="#63b8ff" d="M72.62,-340.77C64.05,-331.51 54.09,-318.64 49.5,-305 44.58,-290.38 47.07,-272.91 50.37,-259.99"/>
<polygon fill="#63b8ff" stroke="#63b8ff" points="53.73,-260.96 53.19,-250.38 47.02,-258.99 53.73,-260.96"/>
</a>
</g>
</g>
<!-- Node3 -->
<g id="Node000003" class="node">
<title>Node3</title>
<g id="a_Node000003"><a xlink:title=" ">
<polygon fill="#e0e0e0" stroke="#999999" points="116.5,-305 58.5,-305 58.5,-286 116.5,-286 116.5,-305"/>
<text text-anchor="middle" x="87.5" y="-293" font-family="Helvetica,sans-Serif" font-size="10.00">memory</text>
</a>
</g>
</g>
<!-- Node1&#45;&gt;Node3 -->
<g id="edge2_Node000001_Node000003" class="edge">
<title>Node1&#45;&gt;Node3</title>
<g id="a_edge2_Node000001_Node000003"><a xlink:title=" ">
<path fill="none" stroke="#63b8ff" d="M87.5,-340.84C87.5,-333.21 87.5,-323.7 87.5,-315.45"/>
<polygon fill="#63b8ff" stroke="#63b8ff" points="91,-315.27 87.5,-305.27 84,-315.27 91,-315.27"/>
</a>
</g>
</g>
<!-- Node4 -->
<g id="Node000004" class="node">
<title>Node4</title>
<g id="a_Node000004"><a xlink:href="_texture_8hpp.html" target="_top" xlink:title=" ">
<polygon fill="white" stroke="#666666" points="280.5,-305 134.5,-305 134.5,-286 280.5,-286 280.5,-305"/>
<text text-anchor="middle" x="207.5" y="-293" font-family="Helvetica,sans-Serif" font-size="10.00">AssetManager/Texture.hpp</text>
</a>
</g>
</g>
<!-- Node1&#45;&gt;Node4 -->
<g id="edge3_Node000001_Node000004" class="edge">
<title>Node1&#45;&gt;Node4</title>
<g id="a_edge3_Node000001_Node000004"><a xlink:title=" ">
<path fill="none" stroke="#63b8ff" d="M116.24,-340.99C135.82,-331.45 161.55,-318.9 180.7,-309.57"/>
<polygon fill="#63b8ff" stroke="#63b8ff" points="182.32,-312.67 189.78,-305.14 179.26,-306.38 182.32,-312.67"/>
</a>
</g>
</g>
<!-- Node4&#45;&gt;Node2 -->
<g id="edge4_Node000004_Node000002" class="edge">
<title>Node4&#45;&gt;Node2</title>
<g id="a_edge4_Node000004_Node000002"><a xlink:title=" ">
<path fill="none" stroke="#63b8ff" d="M183.24,-285.98C158.18,-277.19 118.87,-263.39 90.67,-253.49"/>
<polygon fill="#63b8ff" stroke="#63b8ff" points="91.8,-250.18 81.2,-250.17 89.48,-256.78 91.8,-250.18"/>
</a>
</g>
</g>
<!-- Node5 -->
<g id="Node000005" class="node">
<title>Node5</title>
<g id="a_Node000005"><a xlink:href="_image_8hpp.html" target="_top" xlink:title=" ">
<polygon fill="white" stroke="#666666" points="264,-250 123,-250 123,-231 264,-231 264,-250"/>
<text text-anchor="middle" x="193.5" y="-238" font-family="Helvetica,sans-Serif" font-size="10.00">AssetManager/Image.hpp</text>
</a>
</g>
</g>
<!-- Node4&#45;&gt;Node5 -->
<g id="edge5_Node000004_Node000005" class="edge">
<title>Node4&#45;&gt;Node5</title>
<g id="a_edge5_Node000004_Node000005"><a xlink:title=" ">
<path fill="none" stroke="#63b8ff" d="M205.19,-285.75C203.33,-278.72 200.66,-268.62 198.35,-259.84"/>
<polygon fill="#63b8ff" stroke="#63b8ff" points="201.71,-258.86 195.77,-250.09 194.94,-260.65 201.71,-258.86"/>
</a>
</g>
</g>
<!-- Node16 -->
<g id="Node000016" class="node">
<title>Node16</title>
<g id="a_Node000016"><a xlink:title=" ">
<polygon fill="#e0e0e0" stroke="#999999" points="360.5,-250 282.5,-250 282.5,-231 360.5,-231 360.5,-250"/>
<text text-anchor="middle" x="321.5" y="-238" font-family="Helvetica,sans-Serif" font-size="10.00">glm/glm.hpp</text>
</a>
</g>
</g>
<!-- Node4&#45;&gt;Node16 -->
<g id="edge17_Node000004_Node000016" class="edge">
<title>Node4&#45;&gt;Node16</title>
<g id="a_edge17_Node000004_Node000016"><a xlink:title=" ">
<path fill="none" stroke="#63b8ff" d="M225.82,-285.98C244.16,-277.46 272.61,-264.23 293.73,-254.41"/>
<polygon fill="#63b8ff" stroke="#63b8ff" points="295.26,-257.56 302.85,-250.17 292.31,-251.21 295.26,-257.56"/>
</a>
</g>
</g>
<!-- Node6 -->
<g id="Node000006" class="node">
<title>Node6</title>
<g id="a_Node000006"><a xlink:title=" ">
<polygon fill="#e0e0e0" stroke="#999999" points="169.5,-129 101.5,-129 101.5,-110 169.5,-110 169.5,-129"/>
<text text-anchor="middle" x="135.5" y="-117" font-family="Helvetica,sans-Serif" font-size="10.00">filesystem</text>
</a>
</g>
</g>
<!-- Node5&#45;&gt;Node6 -->
<g id="edge6_Node000005_Node000006" class="edge">
<title>Node5&#45;&gt;Node6</title>
<g id="a_edge6_Node000005_Node000006"><a xlink:title=" ">
<path fill="none" stroke="#63b8ff" d="M183.71,-230.93C174.82,-222.6 161.97,-209.18 154.5,-195 145.19,-177.32 140.27,-154.85 137.79,-139.23"/>
<polygon fill="#63b8ff" stroke="#63b8ff" points="141.25,-138.65 136.39,-129.24 134.31,-139.63 141.25,-138.65"/>
</a>
</g>
</g>
<!-- Node7 -->
<g id="Node000007" class="node">
<title>Node7</title>
<g id="a_Node000007"><a xlink:href="_path_constructible_asset_8hpp.html" target="_top" xlink:title=" ">
<polygon fill="white" stroke="#666666" points="339,-195 164,-195 164,-165 339,-165 339,-195"/>
<text text-anchor="start" x="172" y="-183" font-family="Helvetica,sans-Serif" font-size="10.00">AssetManager/PathConstructible</text>
<text text-anchor="middle" x="251.5" y="-172" font-family="Helvetica,sans-Serif" font-size="10.00">Asset.hpp</text>
</a>
</g>
</g>
<!-- Node5&#45;&gt;Node7 -->
<g id="edge7_Node000005_Node000007" class="edge">
<title>Node5&#45;&gt;Node7</title>
<g id="a_edge7_Node000005_Node000007"><a xlink:title=" ">
<path fill="none" stroke="#63b8ff" d="M202.06,-230.87C209.49,-223.37 220.57,-212.2 230.36,-202.33"/>
<polygon fill="#63b8ff" stroke="#63b8ff" points="232.95,-204.68 237.51,-195.11 227.98,-199.75 232.95,-204.68"/>
</a>
</g>
</g>
<!-- Node7&#45;&gt;Node6 -->
<g id="edge8_Node000007_Node000006" class="edge">
<title>Node7&#45;&gt;Node6</title>
<g id="a_edge8_Node000007_Node000006"><a xlink:title=" ">
<path fill="none" stroke="#63b8ff" d="M223.72,-164.99C204.88,-155.49 180.15,-143.02 161.66,-133.69"/>
<polygon fill="#63b8ff" stroke="#63b8ff" points="163.14,-130.52 152.63,-129.14 159.98,-136.77 163.14,-130.52"/>
</a>
</g>
</g>
<!-- Node8 -->
<g id="Node000008" class="node">
<title>Node8</title>
<g id="a_Node000008"><a xlink:href="_instance_counter_8hpp.html" target="_top" xlink:title=" ">
<polygon fill="white" stroke="#666666" points="351.5,-129 187.5,-129 187.5,-110 351.5,-110 351.5,-129"/>
<text text-anchor="middle" x="269.5" y="-117" font-family="Helvetica,sans-Serif" font-size="10.00">Common/InstanceCounter.hpp</text>
</a>
</g>
</g>
<!-- Node7&#45;&gt;Node8 -->
<g id="edge9_Node000007_Node000008" class="edge">
<title>Node7&#45;&gt;Node8</title>
<g id="a_edge9_Node000007_Node000008"><a xlink:title=" ">
<path fill="none" stroke="#63b8ff" d="M255.86,-164.84C258.26,-157.04 261.26,-147.27 263.84,-138.89"/>
<polygon fill="#63b8ff" stroke="#63b8ff" points="267.21,-139.85 266.8,-129.27 260.52,-137.79 267.21,-139.85"/>
</a>
</g>
</g>
<!-- Node9 -->
<g id="Node000009" class="node">
<title>Node9</title>
<g id="a_Node000009"><a xlink:title=" ">
<polygon fill="#e0e0e0" stroke="#999999" points="243.5,-74 193.5,-74 193.5,-55 243.5,-55 243.5,-74"/>
<text text-anchor="middle" x="218.5" y="-62" font-family="Helvetica,sans-Serif" font-size="10.00">atomic</text>
</a>
</g>
</g>
<!-- Node8&#45;&gt;Node9 -->
<g id="edge10_Node000008_Node000009" class="edge">
<title>Node8&#45;&gt;Node9</title>
<g id="a_edge10_Node000008_Node000009"><a xlink:title=" ">
<path fill="none" stroke="#63b8ff" d="M261.08,-109.75C253.73,-102.11 242.87,-90.82 233.96,-81.56"/>
<polygon fill="#63b8ff" stroke="#63b8ff" points="236.22,-78.87 226.76,-74.09 231.18,-83.72 236.22,-78.87"/>
</a>
</g>
</g>
<!-- Node10 -->
<g id="Node000010" class="node">
<title>Node10</title>
<g id="a_Node000010"><a xlink:href="_profiler_8hpp.html" target="_top" xlink:title=" ">
<polygon fill="white" stroke="#666666" points="381,-74 262,-74 262,-55 381,-55 381,-74"/>
<text text-anchor="middle" x="321.5" y="-62" font-family="Helvetica,sans-Serif" font-size="10.00">Common/Profiler.hpp</text>
</a>
</g>
</g>
<!-- Node8&#45;&gt;Node10 -->
<g id="edge11_Node000008_Node000010" class="edge">
<title>Node8&#45;&gt;Node10</title>
<g id="a_edge11_Node000008_Node000010"><a xlink:title=" ">
<path fill="none" stroke="#63b8ff" d="M278.09,-109.75C285.66,-102.03 296.88,-90.6 306.01,-81.28"/>
<polygon fill="#63b8ff" stroke="#63b8ff" points="308.57,-83.68 313.07,-74.09 303.57,-78.78 308.57,-83.68"/>
</a>
</g>
</g>
<!-- Node11 -->
<g id="Node000011" class="node">
<title>Node11</title>
<g id="a_Node000011"><a xlink:title=" ">
<polygon fill="#e0e0e0" stroke="#999999" points="223.5,-19 173.5,-19 173.5,0 223.5,0 223.5,-19"/>
<text text-anchor="middle" x="198.5" y="-7" font-family="Helvetica,sans-Serif" font-size="10.00">chrono</text>
</a>
</g>
</g>
<!-- Node10&#45;&gt;Node11 -->
<g id="edge12_Node000010_Node000011" class="edge">
<title>Node10&#45;&gt;Node11</title>
<g id="a_edge12_Node000010_Node000011"><a xlink:title=" ">
<path fill="none" stroke="#63b8ff" d="M301.74,-54.98C281.77,-46.38 250.7,-32.99 227.85,-23.15"/>
<polygon fill="#63b8ff" stroke="#63b8ff" points="229.19,-19.91 218.62,-19.17 226.42,-26.34 229.19,-19.91"/>
</a>
</g>
</g>
<!-- Node12 -->
<g id="Node000012" class="node">
<title>Node12</title>
<g id="a_Node000012"><a xlink:title=" ">
<polygon fill="#e0e0e0" stroke="#999999" points="279.5,-19 241.5,-19 241.5,0 279.5,0 279.5,-19"/>
<text text-anchor="middle" x="260.5" y="-7" font-family="Helvetica,sans-Serif" font-size="10.00">map</text>
</a>
</g>
</g>
<!-- Node10&#45;&gt;Node12 -->
<g id="edge13_Node000010_Node000012" class="edge">
<title>Node10&#45;&gt;Node12</title>
<g id="a_edge13_Node000010_Node000012"><a xlink:title=" ">
<path fill="none" stroke="#63b8ff" d="M311.7,-54.98C302.68,-47.15 289.09,-35.34 278.18,-25.86"/>
<polygon fill="#63b8ff" stroke="#63b8ff" points="280.32,-23.09 270.48,-19.17 275.73,-28.37 280.32,-23.09"/>
</a>
</g>
</g>
<!-- Node13 -->
<g id="Node000013" class="node">
<title>Node13</title>
<g id="a_Node000013"><a xlink:title=" ">
<polygon fill="#e0e0e0" stroke="#999999" points="345.5,-19 297.5,-19 297.5,0 345.5,0 345.5,-19"/>
<text text-anchor="middle" x="321.5" y="-7" font-family="Helvetica,sans-Serif" font-size="10.00">mutex</text>
</a>
</g>
</g>
<!-- Node10&#45;&gt;Node13 -->
<g id="edge14_Node000010_Node000013" class="edge">
<title>Node10&#45;&gt;Node13</title>
<g id="a_edge14_Node000010_Node000013"><a xlink:title=" ">
<path fill="none" stroke="#63b8ff" d="M321.5,-54.75C321.5,-47.8 321.5,-37.85 321.5,-29.13"/>
<polygon fill="#63b8ff" stroke="#63b8ff" points="325,-29.09 321.5,-19.09 318,-29.09 325,-29.09"/>
</a>
</g>
</g>
<!-- Node14 -->
<g id="Node000014" class="node">
<title>Node14</title>
<g id="a_Node000014"><a xlink:title=" ">
<polygon fill="#e0e0e0" stroke="#999999" points="407.5,-19 363.5,-19 363.5,0 407.5,0 407.5,-19"/>
<text text-anchor="middle" x="385.5" y="-7" font-family="Helvetica,sans-Serif" font-size="10.00">string</text>
</a>
</g>
</g>
<!-- Node10&#45;&gt;Node14 -->
<g id="edge15_Node000010_Node000014" class="edge">
<title>Node10&#45;&gt;Node14</title>
<g id="a_edge15_Node000010_Node000014"><a xlink:title=" ">
<path fill="none" stroke="#63b8ff" d="M331.78,-54.98C341.34,-47.07 355.78,-35.11 367.28,-25.58"/>
<polygon fill="#63b8ff" stroke="#63b8ff" points="369.56,-28.24 375.03,-19.17 365.1,-22.85 369.56,-28.24"/>
</a>
</g>
</g>
<!-- Node15 -->
<g id="Node000015" class="node">
<title>Node15</title>
<g id="a_Node000015"><a xlink:title=" ">
<polygon fill="#e0e0e0" stroke="#999999" points="473.5,-19 425.5,-19 425.5,0 473.5,0 473.5,-19"/>
<text text-anchor="middle" x="449.5" y="-7" font-family="Helvetica,sans-Serif" font-size="10.00">thread</text>
</a>
</g>
</g>
<!-- Node10&#45;&gt;Node15 -->
<g id="edge16_Node000010_Node000015" class="edge">
<title>Node10&#45;&gt;Node15</title>
<g id="a_edge16_Node000010_Node000015"><a xlink:title=" ">
<path fill="none" stroke="#63b8ff" d="M342.07,-54.98C362.93,-46.34 395.47,-32.87 419.27,-23.02"/>
<polygon fill="#63b8ff" stroke="#63b8ff" points="420.66,-26.23 428.56,-19.17 417.98,-19.76 420.66,-26.23"/>
</a>
</g>
</g>
</g>
</svg>
