<?xml version="1.0" encoding="UTF-8" standalone="no"?>
<!DOCTYPE svg PUBLIC "-//W3C//DTD SVG 1.1//EN"
 "http://www.w3.org/Graphics/SVG/1.1/DTD/svg11.dtd">
<!-- Generated by graphviz version 2.43.0 (0)
 -->
<!-- Title: src/Systems/DevelopmentRendererSystem.hpp Pages: 1 -->
<svg width="721pt" height="263pt"
 viewBox="0.00 0.00 721.00 263.00" xmlns="http://www.w3.org/2000/svg" xmlns:xlink="http://www.w3.org/1999/xlink">
<g id="graph0" class="graph" transform="scale(1 1) rotate(0) translate(4 259)">
<title>src/Systems/DevelopmentRendererSystem.hpp</title>
<polygon fill="white" stroke="transparent" points="-4,4 -4,-259 717,-259 717,4 -4,4"/>
<!-- Node1 -->
<g id="node1" class="node">
<title>Node1</title>
<g id="a_node1"><a xlink:title=" ">
<polygon fill="#bfbfbf" stroke="black" points="20,-224.5 20,-254.5 209,-254.5 209,-224.5 20,-224.5"/>
<text text-anchor="start" x="28" y="-242.5" font-family="Helvetica,sans-Serif" font-size="10.00">src/Systems/DevelopmentRenderer</text>
<text text-anchor="middle" x="114.5" y="-231.5" font-family="Helvetica,sans-Serif" font-size="10.00">System.hpp</text>
</a>
</g>
</g>
<!-- Node2 -->
<g id="node2" class="node">
<title>Node2</title>
<g id="a_node2"><a xlink:title=" ">
<polygon fill="white" stroke="#bfbfbf" points="0,-168.5 0,-187.5 47,-187.5 47,-168.5 0,-168.5"/>
<text text-anchor="middle" x="23.5" y="-175.5" font-family="Helvetica,sans-Serif" font-size="10.00">vector</text>
</a>
</g>
</g>
<!-- Node1&#45;&gt;Node2 -->
<g id="edge1" class="edge">
<title>Node1&#45;&gt;Node2</title>
<path fill="none" stroke="midnightblue" d="M92.93,-224.4C78.62,-215.04 59.89,-202.79 45.49,-193.38"/>
<polygon fill="midnightblue" stroke="midnightblue" points="47.03,-190.2 36.74,-187.66 43.2,-196.06 47.03,-190.2"/>
</g>
<!-- Node3 -->
<g id="node3" class="node">
<title>Node3</title>
<g id="a_node3"><a xlink:href="_registry_8hpp.html" target="_top" xlink:title=" ">
<polygon fill="white" stroke="black" points="65.5,-168.5 65.5,-187.5 163.5,-187.5 163.5,-168.5 65.5,-168.5"/>
<text text-anchor="middle" x="114.5" y="-175.5" font-family="Helvetica,sans-Serif" font-size="10.00">ECS/Registry.hpp</text>
</a>
</g>
</g>
<!-- Node1&#45;&gt;Node3 -->
<g id="edge2" class="edge">
<title>Node1&#45;&gt;Node3</title>
<path fill="none" stroke="midnightblue" d="M114.5,-224.4C114.5,-216.47 114.5,-206.46 114.5,-197.86"/>
<polygon fill="midnightblue" stroke="midnightblue" points="118,-197.66 114.5,-187.66 111,-197.66 118,-197.66"/>
</g>
<!-- Node8 -->
<g id="node8" class="node">
<title>Node8</title>
<g id="a_node8"><a xlink:href="_shader_program_8hpp.html" target="_top" xlink:title=" ">
<polygon fill="white" stroke="black" points="267,-168.5 267,-187.5 432,-187.5 432,-168.5 267,-168.5"/>
<text text-anchor="middle" x="349.5" y="-175.5" font-family="Helvetica,sans-Serif" font-size="10.00">Rendering/ShaderProgram.hpp</text>
</a>
</g>
</g>
<!-- Node1&#45;&gt;Node8 -->
<g id="edge8" class="edge">
<title>Node1&#45;&gt;Node8</title>
<path fill="none" stroke="midnightblue" d="M169.89,-224.47C211.5,-213.94 267.68,-199.72 306.06,-190"/>
<polygon fill="midnightblue" stroke="midnightblue" points="307.07,-193.35 315.9,-187.51 305.35,-186.57 307.07,-193.35"/>
</g>
<!-- Node4 -->
<g id="node4" class="node">
<title>Node4</title>
<g id="a_node4"><a xlink:href="_entity_provider_8hpp.html" target="_top" xlink:title="Manages a pool of unused entity identifiers and provides mechanisms for requesting and removing them.">
<polygon fill="white" stroke="black" points="20.5,-56.5 20.5,-75.5 148.5,-75.5 148.5,-56.5 20.5,-56.5"/>
<text text-anchor="middle" x="84.5" y="-63.5" font-family="Helvetica,sans-Serif" font-size="10.00">ECS/EntityProvider.hpp</text>
</a>
</g>
</g>
<!-- Node3&#45;&gt;Node4 -->
<g id="edge3" class="edge">
<title>Node3&#45;&gt;Node4</title>
<path fill="none" stroke="midnightblue" d="M93.65,-168.43C78.92,-161.13 60.3,-149.09 51.5,-132 42.96,-115.41 55.2,-96.38 67.12,-83.21"/>
<polygon fill="midnightblue" stroke="midnightblue" points="69.82,-85.45 74.31,-75.85 64.82,-80.56 69.82,-85.45"/>
</g>
<!-- Node7 -->
<g id="node7" class="node">
<title>Node7</title>
<g id="a_node7"><a xlink:href="_sparse_set_8hpp.html" target="_top" xlink:title=" ">
<polygon fill="white" stroke="black" points="60.5,-112.5 60.5,-131.5 168.5,-131.5 168.5,-112.5 60.5,-112.5"/>
<text text-anchor="middle" x="114.5" y="-119.5" font-family="Helvetica,sans-Serif" font-size="10.00">ECS/SparseSet.hpp</text>
</a>
</g>
</g>
<!-- Node3&#45;&gt;Node7 -->
<g id="edge6" class="edge">
<title>Node3&#45;&gt;Node7</title>
<path fill="none" stroke="midnightblue" d="M114.5,-168.08C114.5,-161.01 114.5,-150.86 114.5,-141.99"/>
<polygon fill="midnightblue" stroke="midnightblue" points="118,-141.75 114.5,-131.75 111,-141.75 118,-141.75"/>
</g>
<!-- Node5 -->
<g id="node5" class="node">
<title>Node5</title>
<g id="a_node5"><a xlink:title=" ">
<polygon fill="white" stroke="#bfbfbf" points="24,-0.5 24,-19.5 77,-19.5 77,-0.5 24,-0.5"/>
<text text-anchor="middle" x="50.5" y="-7.5" font-family="Helvetica,sans-Serif" font-size="10.00">stdlib.h</text>
</a>
</g>
</g>
<!-- Node4&#45;&gt;Node5 -->
<g id="edge4" class="edge">
<title>Node4&#45;&gt;Node5</title>
<path fill="none" stroke="midnightblue" d="M78.89,-56.08C74.13,-48.53 67.18,-37.49 61.35,-28.23"/>
<polygon fill="midnightblue" stroke="midnightblue" points="64.3,-26.35 56.01,-19.75 58.38,-30.08 64.3,-26.35"/>
</g>
<!-- Node6 -->
<g id="node6" class="node">
<title>Node6</title>
<g id="a_node6"><a xlink:title=" ">
<polygon fill="white" stroke="#bfbfbf" points="95,-0.5 95,-19.5 142,-19.5 142,-0.5 95,-0.5"/>
<text text-anchor="middle" x="118.5" y="-7.5" font-family="Helvetica,sans-Serif" font-size="10.00">queue</text>
</a>
</g>
</g>
<!-- Node4&#45;&gt;Node6 -->
<g id="edge5" class="edge">
<title>Node4&#45;&gt;Node6</title>
<path fill="none" stroke="midnightblue" d="M90.11,-56.08C94.87,-48.53 101.82,-37.49 107.65,-28.23"/>
<polygon fill="midnightblue" stroke="midnightblue" points="110.62,-30.08 112.99,-19.75 104.7,-26.35 110.62,-30.08"/>
</g>
<!-- Node7&#45;&gt;Node4 -->
<g id="edge7" class="edge">
<title>Node7&#45;&gt;Node4</title>
<path fill="none" stroke="midnightblue" d="M109.55,-112.08C105.4,-104.61 99.35,-93.72 94.23,-84.52"/>
<polygon fill="midnightblue" stroke="midnightblue" points="97.28,-82.79 89.36,-75.75 91.16,-86.19 97.28,-82.79"/>
</g>
<!-- Node9 -->
<g id="node9" class="node">
<title>Node9</title>
<g id="a_node9"><a xlink:title=" ">
<polygon fill="white" stroke="#bfbfbf" points="190,-56.5 190,-75.5 261,-75.5 261,-56.5 190,-56.5"/>
<text text-anchor="middle" x="225.5" y="-63.5" font-family="Helvetica,sans-Serif" font-size="10.00">glad/glad.h</text>
</a>
</g>
</g>
<!-- Node8&#45;&gt;Node9 -->
<g id="edge9" class="edge">
<title>Node8&#45;&gt;Node9</title>
<path fill="none" stroke="midnightblue" d="M273.31,-168.45C251.07,-162.01 229.11,-150.93 215.5,-132 205.74,-118.42 210.42,-99.11 216.21,-85.06"/>
<polygon fill="midnightblue" stroke="midnightblue" points="219.42,-86.47 220.44,-75.92 213.06,-83.53 219.42,-86.47"/>
</g>
<!-- Node10 -->
<g id="node10" class="node">
<title>Node10</title>
<g id="a_node10"><a xlink:title=" ">
<polygon fill="white" stroke="#bfbfbf" points="224.5,-112.5 224.5,-131.5 302.5,-131.5 302.5,-112.5 224.5,-112.5"/>
<text text-anchor="middle" x="263.5" y="-119.5" font-family="Helvetica,sans-Serif" font-size="10.00">glm/glm.hpp</text>
</a>
</g>
</g>
<!-- Node8&#45;&gt;Node10 -->
<g id="edge10" class="edge">
<title>Node8&#45;&gt;Node10</title>
<path fill="none" stroke="midnightblue" d="M335.68,-168.32C322.27,-159.9 301.68,-146.97 285.91,-137.07"/>
<polygon fill="midnightblue" stroke="midnightblue" points="287.61,-134.01 277.28,-131.65 283.89,-139.94 287.61,-134.01"/>
</g>
<!-- Node11 -->
<g id="node11" class="node">
<title>Node11</title>
<g id="a_node11"><a xlink:title=" ">
<polygon fill="white" stroke="#bfbfbf" points="320.5,-112.5 320.5,-131.5 378.5,-131.5 378.5,-112.5 320.5,-112.5"/>
<text text-anchor="middle" x="349.5" y="-119.5" font-family="Helvetica,sans-Serif" font-size="10.00">memory</text>
</a>
</g>
</g>
<!-- Node8&#45;&gt;Node11 -->
<g id="edge11" class="edge">
<title>Node8&#45;&gt;Node11</title>
<path fill="none" stroke="midnightblue" d="M349.5,-168.08C349.5,-161.01 349.5,-150.86 349.5,-141.99"/>
<polygon fill="midnightblue" stroke="midnightblue" points="353,-141.75 349.5,-131.75 346,-141.75 353,-141.75"/>
</g>
<!-- Node12 -->
<g id="node12" class="node">
<title>Node12</title>
<g id="a_node12"><a xlink:title=" ">
<polygon fill="white" stroke="#bfbfbf" points="396.5,-112.5 396.5,-131.5 440.5,-131.5 440.5,-112.5 396.5,-112.5"/>
<text text-anchor="middle" x="418.5" y="-119.5" font-family="Helvetica,sans-Serif" font-size="10.00">string</text>
</a>
</g>
</g>
<!-- Node8&#45;&gt;Node12 -->
<g id="edge12" class="edge">
<title>Node8&#45;&gt;Node12</title>
<path fill="none" stroke="midnightblue" d="M360.59,-168.32C370.99,-160.18 386.76,-147.84 399.22,-138.09"/>
<polygon fill="midnightblue" stroke="midnightblue" points="401.49,-140.75 407.21,-131.83 397.18,-135.24 401.49,-140.75"/>
</g>
<!-- Node13 -->
<g id="node13" class="node">
<title>Node13</title>
<g id="a_node13"><a xlink:title=" ">
<polygon fill="white" stroke="#bfbfbf" points="459,-112.5 459,-131.5 552,-131.5 552,-112.5 459,-112.5"/>
<text text-anchor="middle" x="505.5" y="-119.5" font-family="Helvetica,sans-Serif" font-size="10.00">unordered_map</text>
</a>
</g>
</g>
<!-- Node8&#45;&gt;Node13 -->
<g id="edge13" class="edge">
<title>Node8&#45;&gt;Node13</title>
<path fill="none" stroke="midnightblue" d="M374.22,-168.44C400.35,-159.4 441.76,-145.06 471.08,-134.92"/>
<polygon fill="midnightblue" stroke="midnightblue" points="472.59,-138.1 480.9,-131.52 470.3,-131.48 472.59,-138.1"/>
</g>
<!-- Node14 -->
<g id="node14" class="node">
<title>Node14</title>
<g id="a_node14"><a xlink:href="_shader_8hpp.html" target="_top" xlink:title=" ">
<polygon fill="white" stroke="black" points="570,-112.5 570,-131.5 713,-131.5 713,-112.5 570,-112.5"/>
<text text-anchor="middle" x="641.5" y="-119.5" font-family="Helvetica,sans-Serif" font-size="10.00">AssetManager/Shader.hpp</text>
</a>
</g>
</g>
<!-- Node8&#45;&gt;Node14 -->
<g id="edge14" class="edge">
<title>Node8&#45;&gt;Node14</title>
<path fill="none" stroke="midnightblue" d="M395.77,-168.44C447.24,-158.92 530.39,-143.55 585.5,-133.36"/>
<polygon fill="midnightblue" stroke="midnightblue" points="586.25,-136.78 595.45,-131.52 584.98,-129.89 586.25,-136.78"/>
</g>
<!-- Node14&#45;&gt;Node9 -->
<g id="edge15" class="edge">
<title>Node14&#45;&gt;Node9</title>
<path fill="none" stroke="midnightblue" d="M575.58,-112.44C490.75,-101.43 345.51,-82.58 271.61,-72.99"/>
<polygon fill="midnightblue" stroke="midnightblue" points="271.61,-69.46 261.24,-71.64 270.71,-76.4 271.61,-69.46"/>
</g>
<!-- Node15 -->
<g id="node15" class="node">
<title>Node15</title>
<g id="a_node15"><a xlink:href="_asset_8hpp.html" target="_top" xlink:title=" ">
<polygon fill="white" stroke="black" points="573,-56.5 573,-75.5 710,-75.5 710,-56.5 573,-56.5"/>
<text text-anchor="middle" x="641.5" y="-63.5" font-family="Helvetica,sans-Serif" font-size="10.00">AssetManager/Asset.hpp</text>
</a>
</g>
</g>
<!-- Node14&#45;&gt;Node15 -->
<g id="edge16" class="edge">
<title>Node14&#45;&gt;Node15</title>
<path fill="none" stroke="midnightblue" d="M641.5,-112.08C641.5,-105.01 641.5,-94.86 641.5,-85.99"/>
<polygon fill="midnightblue" stroke="midnightblue" points="645,-85.75 641.5,-75.75 638,-85.75 645,-85.75"/>
</g>
<!-- Node16 -->
<g id="node16" class="node">
<title>Node16</title>
<g id="a_node16"><a xlink:title=" ">
<polygon fill="white" stroke="#bfbfbf" points="607.5,-0.5 607.5,-19.5 675.5,-19.5 675.5,-0.5 607.5,-0.5"/>
<text text-anchor="middle" x="641.5" y="-7.5" font-family="Helvetica,sans-Serif" font-size="10.00">filesystem</text>
</a>
</g>
</g>
<!-- Node15&#45;&gt;Node16 -->
<g id="edge17" class="edge">
<title>Node15&#45;&gt;Node16</title>
<path fill="none" stroke="midnightblue" d="M641.5,-56.08C641.5,-49.01 641.5,-38.86 641.5,-29.99"/>
<polygon fill="midnightblue" stroke="midnightblue" points="645,-29.75 641.5,-19.75 638,-29.75 645,-29.75"/>
</g>
</g>
</svg>
