<?xml version="1.0" encoding="UTF-8" standalone="no"?>
<!DOCTYPE svg PUBLIC "-//W3C//DTD SVG 1.1//EN"
 "http://www.w3.org/Graphics/SVG/1.1/DTD/svg11.dtd">
<!-- Generated by graphviz version 2.43.0 (0)
 -->
<!-- Title: src/ui/Components/DirectionalLightComponentUI.hpp Pages: 1 -->
<svg width="1191pt" height="498pt"
 viewBox="0.00 0.00 1190.50 498.00" xmlns="http://www.w3.org/2000/svg" xmlns:xlink="http://www.w3.org/1999/xlink">
<g id="graph0" class="graph" transform="scale(1 1) rotate(0) translate(4 494)">
<title>src/ui/Components/DirectionalLightComponentUI.hpp</title>
<polygon fill="white" stroke="transparent" points="-4,4 -4,-494 1186.5,-494 1186.5,4 -4,4"/>
<!-- Node1 -->
<g id="node1" class="node">
<title>Node1</title>
<g id="a_node1"><a xlink:title=" ">
<polygon fill="#bfbfbf" stroke="black" points="223,-459.5 223,-489.5 387,-489.5 387,-459.5 223,-459.5"/>
<text text-anchor="start" x="231" y="-477.5" font-family="Helvetica,sans-Serif" font-size="10.00">src/ui/Components/Directional</text>
<text text-anchor="middle" x="305" y="-466.5" font-family="Helvetica,sans-Serif" font-size="10.00">LightComponentUI.hpp</text>
</a>
</g>
</g>
<!-- Node2 -->
<g id="node2" class="node">
<title>Node2</title>
<g id="a_node2"><a xlink:title=" ">
<polygon fill="white" stroke="#bfbfbf" points="0,-398 0,-417 118,-417 118,-398 0,-398"/>
<text text-anchor="middle" x="59" y="-405" font-family="Helvetica,sans-Serif" font-size="10.00">UI/ComponentUI.hpp</text>
</a>
</g>
</g>
<!-- Node1&#45;&gt;Node2 -->
<g id="edge1" class="edge">
<title>Node1&#45;&gt;Node2</title>
<path fill="none" stroke="midnightblue" d="M251.92,-459.48C206.78,-447.55 142.81,-430.64 101.11,-419.63"/>
<polygon fill="midnightblue" stroke="midnightblue" points="101.84,-416.2 91.28,-417.03 100.05,-422.97 101.84,-416.2"/>
</g>
<!-- Node3 -->
<g id="node3" class="node">
<title>Node3</title>
<g id="a_node3"><a xlink:title=" ">
<polygon fill="white" stroke="#bfbfbf" points="136.5,-398 136.5,-417 299.5,-417 299.5,-398 136.5,-398"/>
<text text-anchor="middle" x="218" y="-405" font-family="Helvetica,sans-Serif" font-size="10.00">UI/Common/ColorSelector.hpp</text>
</a>
</g>
</g>
<!-- Node1&#45;&gt;Node3 -->
<g id="edge2" class="edge">
<title>Node1&#45;&gt;Node3</title>
<path fill="none" stroke="midnightblue" d="M286.12,-459.4C271.89,-448.76 252.4,-434.2 237.92,-423.38"/>
<polygon fill="midnightblue" stroke="midnightblue" points="239.74,-420.38 229.64,-417.19 235.55,-425.98 239.74,-420.38"/>
</g>
<!-- Node4 -->
<g id="node4" class="node">
<title>Node4</title>
<g id="a_node4"><a xlink:title=" ">
<polygon fill="white" stroke="#bfbfbf" points="318,-398 318,-417 468,-417 468,-398 318,-398"/>
<text text-anchor="middle" x="393" y="-405" font-family="Helvetica,sans-Serif" font-size="10.00">UI/Common/FloatSlider.hpp</text>
</a>
</g>
</g>
<!-- Node1&#45;&gt;Node4 -->
<g id="edge3" class="edge">
<title>Node1&#45;&gt;Node4</title>
<path fill="none" stroke="midnightblue" d="M324.09,-459.4C338.58,-448.7 358.43,-434.03 373.11,-423.19"/>
<polygon fill="midnightblue" stroke="midnightblue" points="375.52,-425.76 381.48,-417.01 371.36,-420.13 375.52,-425.76"/>
</g>
<!-- Node5 -->
<g id="node5" class="node">
<title>Node5</title>
<g id="a_node5"><a xlink:href="_directional_light_component_8hpp.html" target="_top" xlink:title=" ">
<polygon fill="white" stroke="black" points="486,-392.5 486,-422.5 644,-422.5 644,-392.5 486,-392.5"/>
<text text-anchor="start" x="494" y="-410.5" font-family="Helvetica,sans-Serif" font-size="10.00">Components/DirectionalLight</text>
<text text-anchor="middle" x="565" y="-399.5" font-family="Helvetica,sans-Serif" font-size="10.00">Component.hpp</text>
</a>
</g>
</g>
<!-- Node1&#45;&gt;Node5 -->
<g id="edge4" class="edge">
<title>Node1&#45;&gt;Node5</title>
<path fill="none" stroke="midnightblue" d="M361.1,-459.48C401.54,-449.37 456.26,-435.68 498.84,-425.04"/>
<polygon fill="midnightblue" stroke="midnightblue" points="499.7,-428.43 508.56,-422.61 498.01,-421.64 499.7,-428.43"/>
</g>
<!-- Node6 -->
<g id="node6" class="node">
<title>Node6</title>
<g id="a_node6"><a xlink:title=" ">
<polygon fill="white" stroke="#bfbfbf" points="314,-224.5 314,-243.5 358,-243.5 358,-224.5 314,-224.5"/>
<text text-anchor="middle" x="336" y="-231.5" font-family="Helvetica,sans-Serif" font-size="10.00">string</text>
</a>
</g>
</g>
<!-- Node5&#45;&gt;Node6 -->
<g id="edge5" class="edge">
<title>Node5&#45;&gt;Node6</title>
<path fill="none" stroke="midnightblue" d="M554.9,-392.35C543.63,-377.22 524.31,-353.09 504,-336 458.89,-298.05 397.91,-265.22 363.19,-247.95"/>
<polygon fill="midnightblue" stroke="midnightblue" points="364.65,-244.77 354.13,-243.5 361.56,-251.05 364.65,-244.77"/>
</g>
<!-- Node7 -->
<g id="node7" class="node">
<title>Node7</title>
<g id="a_node7"><a xlink:title=" ">
<polygon fill="white" stroke="#bfbfbf" points="435,-336.5 435,-355.5 495,-355.5 495,-336.5 435,-336.5"/>
<text text-anchor="middle" x="465" y="-343.5" font-family="Helvetica,sans-Serif" font-size="10.00">iostream</text>
</a>
</g>
</g>
<!-- Node5&#45;&gt;Node7 -->
<g id="edge6" class="edge">
<title>Node5&#45;&gt;Node7</title>
<path fill="none" stroke="midnightblue" d="M541.3,-392.4C525.27,-382.86 504.2,-370.32 488.26,-360.84"/>
<polygon fill="midnightblue" stroke="midnightblue" points="489.93,-357.76 479.55,-355.66 486.36,-363.78 489.93,-357.76"/>
</g>
<!-- Node8 -->
<g id="node8" class="node">
<title>Node8</title>
<g id="a_node8"><a xlink:title=" ">
<polygon fill="white" stroke="#bfbfbf" points="937,-168.5 937,-187.5 1015,-187.5 1015,-168.5 937,-168.5"/>
<text text-anchor="middle" x="976" y="-175.5" font-family="Helvetica,sans-Serif" font-size="10.00">glm/glm.hpp</text>
</a>
</g>
</g>
<!-- Node5&#45;&gt;Node8 -->
<g id="edge7" class="edge">
<title>Node5&#45;&gt;Node8</title>
<path fill="none" stroke="midnightblue" d="M633.59,-392.43C716.33,-372.33 855.33,-328.14 944,-244 957.38,-231.31 965.93,-211.83 970.79,-197.5"/>
<polygon fill="midnightblue" stroke="midnightblue" points="974.2,-198.34 973.81,-187.75 967.51,-196.27 974.2,-198.34"/>
</g>
<!-- Node9 -->
<g id="node9" class="node">
<title>Node9</title>
<g id="a_node9"><a xlink:href="_base_component_8hpp.html" target="_top" xlink:title=" ">
<polygon fill="white" stroke="black" points="114,-224.5 114,-243.5 296,-243.5 296,-224.5 114,-224.5"/>
<text text-anchor="middle" x="205" y="-231.5" font-family="Helvetica,sans-Serif" font-size="10.00">Components/BaseComponent.hpp</text>
</a>
</g>
</g>
<!-- Node5&#45;&gt;Node9 -->
<g id="edge8" class="edge">
<title>Node5&#45;&gt;Node9</title>
<path fill="none" stroke="midnightblue" d="M521.12,-392.47C493.42,-383.15 457.11,-370.07 426,-356 350.91,-322.04 266.65,-272.53 227.39,-248.75"/>
<polygon fill="midnightblue" stroke="midnightblue" points="229.2,-245.76 218.84,-243.55 225.56,-251.74 229.2,-245.76"/>
</g>
<!-- Node11 -->
<g id="node11" class="node">
<title>Node11</title>
<g id="a_node11"><a xlink:href="_transform_component_8hpp.html" target="_top" xlink:title=" ">
<polygon fill="white" stroke="black" points="551.5,-280.5 551.5,-299.5 758.5,-299.5 758.5,-280.5 551.5,-280.5"/>
<text text-anchor="middle" x="655" y="-287.5" font-family="Helvetica,sans-Serif" font-size="10.00">Components/TransformComponent.hpp</text>
</a>
</g>
</g>
<!-- Node5&#45;&gt;Node11 -->
<g id="edge10" class="edge">
<title>Node5&#45;&gt;Node11</title>
<path fill="none" stroke="midnightblue" d="M576.04,-392.34C592.69,-370.96 624.2,-330.53 641.96,-307.73"/>
<polygon fill="midnightblue" stroke="midnightblue" points="644.86,-309.71 648.24,-299.67 639.34,-305.41 644.86,-309.71"/>
</g>
<!-- Node25 -->
<g id="node25" class="node">
<title>Node25</title>
<g id="a_node25"><a xlink:href="_camera_component_8hpp.html" target="_top" xlink:title=" ">
<polygon fill="white" stroke="black" points="985.5,-336.5 985.5,-355.5 1182.5,-355.5 1182.5,-336.5 985.5,-336.5"/>
<text text-anchor="middle" x="1084" y="-343.5" font-family="Helvetica,sans-Serif" font-size="10.00">Components/CameraComponent.hpp</text>
</a>
</g>
</g>
<!-- Node5&#45;&gt;Node25 -->
<g id="edge33" class="edge">
<title>Node5&#45;&gt;Node25</title>
<path fill="none" stroke="midnightblue" d="M644.11,-397.43C740.03,-386.43 901.04,-367.98 999.38,-356.7"/>
<polygon fill="midnightblue" stroke="midnightblue" points="1000.04,-360.15 1009.58,-355.53 999.25,-353.19 1000.04,-360.15"/>
</g>
<!-- Node10 -->
<g id="node10" class="node">
<title>Node10</title>
<g id="a_node10"><a xlink:href="_types_8hpp.html" target="_top" xlink:title=" ">
<polygon fill="white" stroke="black" points="134.5,-168.5 134.5,-187.5 247.5,-187.5 247.5,-168.5 134.5,-168.5"/>
<text text-anchor="middle" x="191" y="-175.5" font-family="Helvetica,sans-Serif" font-size="10.00">Common/Types.hpp</text>
</a>
</g>
</g>
<!-- Node9&#45;&gt;Node10 -->
<g id="edge9" class="edge">
<title>Node9&#45;&gt;Node10</title>
<path fill="none" stroke="midnightblue" d="M202.69,-224.08C200.83,-216.93 198.16,-206.64 195.85,-197.69"/>
<polygon fill="midnightblue" stroke="midnightblue" points="199.17,-196.55 193.27,-187.75 192.39,-198.31 199.17,-196.55"/>
</g>
<!-- Node11&#45;&gt;Node6 -->
<g id="edge11" class="edge">
<title>Node11&#45;&gt;Node6</title>
<path fill="none" stroke="midnightblue" d="M584.11,-280.49C527.92,-273.15 447.3,-261.33 368.38,-244.08"/>
<polygon fill="midnightblue" stroke="midnightblue" points="368.78,-240.58 358.26,-241.83 367.27,-247.41 368.78,-240.58"/>
</g>
<!-- Node11&#45;&gt;Node8 -->
<g id="edge12" class="edge">
<title>Node11&#45;&gt;Node8</title>
<path fill="none" stroke="midnightblue" d="M742.27,-280.47C807.11,-272.96 889.27,-260.62 919,-244 939.18,-232.72 955.71,-211.48 965.68,-196.35"/>
<polygon fill="midnightblue" stroke="midnightblue" points="968.65,-198.2 971.01,-187.87 962.73,-194.47 968.65,-198.2"/>
</g>
<!-- Node11&#45;&gt;Node9 -->
<g id="edge32" class="edge">
<title>Node11&#45;&gt;Node9</title>
<path fill="none" stroke="midnightblue" d="M583.7,-280.44C502.73,-270.73 370.89,-254.91 286.07,-244.73"/>
<polygon fill="midnightblue" stroke="midnightblue" points="286.32,-241.23 275.97,-243.52 285.48,-248.18 286.32,-241.23"/>
</g>
<!-- Node12 -->
<g id="node12" class="node">
<title>Node12</title>
<g id="a_node12"><a xlink:title=" ">
<polygon fill="white" stroke="#bfbfbf" points="492,-224.5 492,-243.5 622,-243.5 622,-224.5 492,-224.5"/>
<text text-anchor="middle" x="557" y="-231.5" font-family="Helvetica,sans-Serif" font-size="10.00">glm/gtc/quaternion.hpp</text>
</a>
</g>
</g>
<!-- Node11&#45;&gt;Node12 -->
<g id="edge13" class="edge">
<title>Node11&#45;&gt;Node12</title>
<path fill="none" stroke="midnightblue" d="M639.25,-280.32C623.68,-271.74 599.62,-258.49 581.54,-248.52"/>
<polygon fill="midnightblue" stroke="midnightblue" points="583.15,-245.42 572.71,-243.65 579.78,-251.55 583.15,-245.42"/>
</g>
<!-- Node13 -->
<g id="node13" class="node">
<title>Node13</title>
<g id="a_node13"><a xlink:title=" ">
<polygon fill="white" stroke="#bfbfbf" points="640.5,-224.5 640.5,-243.5 803.5,-243.5 803.5,-224.5 640.5,-224.5"/>
<text text-anchor="middle" x="722" y="-231.5" font-family="Helvetica,sans-Serif" font-size="10.00">glm/gtc/matrix_transform.hpp</text>
</a>
</g>
</g>
<!-- Node11&#45;&gt;Node13 -->
<g id="edge14" class="edge">
<title>Node11&#45;&gt;Node13</title>
<path fill="none" stroke="midnightblue" d="M665.76,-280.32C675.77,-272.26 690.89,-260.08 702.93,-250.37"/>
<polygon fill="midnightblue" stroke="midnightblue" points="705.45,-252.83 711.04,-243.83 701.06,-247.38 705.45,-252.83"/>
</g>
<!-- Node14 -->
<g id="node14" class="node">
<title>Node14</title>
<g id="a_node14"><a xlink:href="_math_2_utils_8hpp.html" target="_top" xlink:title=" ">
<polygon fill="white" stroke="black" points="822,-224.5 822,-243.5 910,-243.5 910,-224.5 822,-224.5"/>
<text text-anchor="middle" x="866" y="-231.5" font-family="Helvetica,sans-Serif" font-size="10.00">Math/Utils.hpp</text>
</a>
</g>
</g>
<!-- Node11&#45;&gt;Node14 -->
<g id="edge15" class="edge">
<title>Node11&#45;&gt;Node14</title>
<path fill="none" stroke="midnightblue" d="M688.43,-280.44C724.86,-271.12 783.23,-256.18 823.03,-246"/>
<polygon fill="midnightblue" stroke="midnightblue" points="823.9,-249.39 832.72,-243.52 822.17,-242.61 823.9,-249.39"/>
</g>
<!-- Node15 -->
<g id="node15" class="node">
<title>Node15</title>
<g id="a_node15"><a xlink:href="_registry_8hpp.html" target="_top" xlink:title=" ">
<polygon fill="white" stroke="black" points="376,-224.5 376,-243.5 474,-243.5 474,-224.5 376,-224.5"/>
<text text-anchor="middle" x="425" y="-231.5" font-family="Helvetica,sans-Serif" font-size="10.00">ECS/Registry.hpp</text>
</a>
</g>
</g>
<!-- Node11&#45;&gt;Node15 -->
<g id="edge17" class="edge">
<title>Node11&#45;&gt;Node15</title>
<path fill="none" stroke="midnightblue" d="M618.56,-280.44C578.6,-271.06 514.41,-255.99 471.02,-245.8"/>
<polygon fill="midnightblue" stroke="midnightblue" points="471.81,-242.39 461.27,-243.52 470.21,-249.21 471.81,-242.39"/>
</g>
<!-- Node14&#45;&gt;Node8 -->
<g id="edge16" class="edge">
<title>Node14&#45;&gt;Node8</title>
<path fill="none" stroke="midnightblue" d="M883.67,-224.32C901.39,-215.62 928.9,-202.12 949.29,-192.11"/>
<polygon fill="midnightblue" stroke="midnightblue" points="950.94,-195.2 958.37,-187.65 947.85,-188.92 950.94,-195.2"/>
</g>
<!-- Node16 -->
<g id="node16" class="node">
<title>Node16</title>
<g id="a_node16"><a xlink:title=" ">
<polygon fill="white" stroke="#bfbfbf" points="701,-112.5 701,-131.5 787,-131.5 787,-112.5 701,-112.5"/>
<text text-anchor="middle" x="744" y="-119.5" font-family="Helvetica,sans-Serif" font-size="10.00">unordered_set</text>
</a>
</g>
</g>
<!-- Node15&#45;&gt;Node16 -->
<g id="edge18" class="edge">
<title>Node15&#45;&gt;Node16</title>
<path fill="none" stroke="midnightblue" d="M474.3,-225C549.16,-212.78 683.36,-190.63 688,-188 707.78,-176.82 723.88,-155.87 733.65,-140.78"/>
<polygon fill="midnightblue" stroke="midnightblue" points="736.88,-142.21 739.14,-131.86 730.92,-138.55 736.88,-142.21"/>
</g>
<!-- Node17 -->
<g id="node17" class="node">
<title>Node17</title>
<g id="a_node17"><a xlink:href="_entity_8hpp.html" target="_top" xlink:title=" ">
<polygon fill="white" stroke="black" points="397,-56.5 397,-75.5 483,-75.5 483,-56.5 397,-56.5"/>
<text text-anchor="middle" x="440" y="-63.5" font-family="Helvetica,sans-Serif" font-size="10.00">ECS/Entity.hpp</text>
</a>
</g>
</g>
<!-- Node15&#45;&gt;Node17 -->
<g id="edge19" class="edge">
<title>Node15&#45;&gt;Node17</title>
<path fill="none" stroke="midnightblue" d="M425.81,-224.08C428.17,-197.95 435.1,-121.21 438.32,-85.58"/>
<polygon fill="midnightblue" stroke="midnightblue" points="441.81,-85.84 439.23,-75.57 434.84,-85.21 441.81,-85.84"/>
</g>
<!-- Node19 -->
<g id="node19" class="node">
<title>Node19</title>
<g id="a_node19"><a xlink:href="_entity_hierarchy_8hpp.html" target="_top" xlink:title=" ">
<polygon fill="white" stroke="black" points="545,-168.5 545,-187.5 679,-187.5 679,-168.5 545,-168.5"/>
<text text-anchor="middle" x="612" y="-175.5" font-family="Helvetica,sans-Serif" font-size="10.00">ECS/EntityHierarchy.hpp</text>
</a>
</g>
</g>
<!-- Node15&#45;&gt;Node19 -->
<g id="edge21" class="edge">
<title>Node15&#45;&gt;Node19</title>
<path fill="none" stroke="midnightblue" d="M454.63,-224.44C486.5,-215.24 537.33,-200.56 572.56,-190.39"/>
<polygon fill="midnightblue" stroke="midnightblue" points="573.87,-193.65 582.51,-187.52 571.93,-186.93 573.87,-193.65"/>
</g>
<!-- Node22 -->
<g id="node22" class="node">
<title>Node22</title>
<g id="a_node22"><a xlink:href="_entity_provider_8hpp.html" target="_top" xlink:title="Manages a pool of unused entity identifiers and provides mechanisms for requesting and removing them.">
<polygon fill="white" stroke="black" points="284,-112.5 284,-131.5 412,-131.5 412,-112.5 284,-112.5"/>
<text text-anchor="middle" x="348" y="-119.5" font-family="Helvetica,sans-Serif" font-size="10.00">ECS/EntityProvider.hpp</text>
</a>
</g>
</g>
<!-- Node15&#45;&gt;Node22 -->
<g id="edge26" class="edge">
<title>Node15&#45;&gt;Node22</title>
<path fill="none" stroke="midnightblue" d="M384.94,-224.48C350.84,-216.31 305.7,-203.03 295,-188 281.96,-169.69 303.92,-149.83 323.4,-136.94"/>
<polygon fill="midnightblue" stroke="midnightblue" points="325.42,-139.81 332.05,-131.55 321.71,-133.87 325.42,-139.81"/>
</g>
<!-- Node24 -->
<g id="node24" class="node">
<title>Node24</title>
<g id="a_node24"><a xlink:href="_sparse_set_8hpp.html" target="_top" xlink:title=" ">
<polygon fill="white" stroke="black" points="304,-168.5 304,-187.5 412,-187.5 412,-168.5 304,-168.5"/>
<text text-anchor="middle" x="358" y="-175.5" font-family="Helvetica,sans-Serif" font-size="10.00">ECS/SparseSet.hpp</text>
</a>
</g>
</g>
<!-- Node15&#45;&gt;Node24 -->
<g id="edge30" class="edge">
<title>Node15&#45;&gt;Node24</title>
<path fill="none" stroke="midnightblue" d="M414.24,-224.32C404.23,-216.26 389.11,-204.08 377.07,-194.37"/>
<polygon fill="midnightblue" stroke="midnightblue" points="378.94,-191.38 368.96,-187.83 374.55,-196.83 378.94,-191.38"/>
</g>
<!-- Node18 -->
<g id="node18" class="node">
<title>Node18</title>
<g id="a_node18"><a xlink:title=" ">
<polygon fill="white" stroke="#bfbfbf" points="344.5,-0.5 344.5,-19.5 397.5,-19.5 397.5,-0.5 344.5,-0.5"/>
<text text-anchor="middle" x="371" y="-7.5" font-family="Helvetica,sans-Serif" font-size="10.00">stdlib.h</text>
</a>
</g>
</g>
<!-- Node17&#45;&gt;Node18 -->
<g id="edge20" class="edge">
<title>Node17&#45;&gt;Node18</title>
<path fill="none" stroke="midnightblue" d="M428.91,-56.32C418.51,-48.18 402.74,-35.84 390.28,-26.09"/>
<polygon fill="midnightblue" stroke="midnightblue" points="392.32,-23.24 382.29,-19.83 388.01,-28.75 392.32,-23.24"/>
</g>
<!-- Node19&#45;&gt;Node16 -->
<g id="edge23" class="edge">
<title>Node19&#45;&gt;Node16</title>
<path fill="none" stroke="midnightblue" d="M632.92,-168.44C654.74,-159.52 689.15,-145.44 713.89,-135.32"/>
<polygon fill="midnightblue" stroke="midnightblue" points="715.25,-138.54 723.18,-131.52 712.6,-132.06 715.25,-138.54"/>
</g>
<!-- Node19&#45;&gt;Node17 -->
<g id="edge25" class="edge">
<title>Node19&#45;&gt;Node17</title>
<path fill="none" stroke="midnightblue" d="M624.65,-168.39C641.98,-155.56 669.32,-130.88 654,-112 634.18,-87.58 550.37,-75.92 493.71,-70.73"/>
<polygon fill="midnightblue" stroke="midnightblue" points="493.73,-67.22 483.47,-69.84 493.12,-74.19 493.73,-67.22"/>
</g>
<!-- Node20 -->
<g id="node20" class="node">
<title>Node20</title>
<g id="a_node20"><a xlink:title=" ">
<polygon fill="white" stroke="#bfbfbf" points="579.5,-112.5 579.5,-131.5 644.5,-131.5 644.5,-112.5 579.5,-112.5"/>
<text text-anchor="middle" x="612" y="-119.5" font-family="Helvetica,sans-Serif" font-size="10.00">functional</text>
</a>
</g>
</g>
<!-- Node19&#45;&gt;Node20 -->
<g id="edge22" class="edge">
<title>Node19&#45;&gt;Node20</title>
<path fill="none" stroke="midnightblue" d="M612,-168.08C612,-161.01 612,-150.86 612,-141.99"/>
<polygon fill="midnightblue" stroke="midnightblue" points="615.5,-141.75 612,-131.75 608.5,-141.75 615.5,-141.75"/>
</g>
<!-- Node21 -->
<g id="node21" class="node">
<title>Node21</title>
<g id="a_node21"><a xlink:title=" ">
<polygon fill="white" stroke="#bfbfbf" points="468.5,-112.5 468.5,-131.5 561.5,-131.5 561.5,-112.5 468.5,-112.5"/>
<text text-anchor="middle" x="515" y="-119.5" font-family="Helvetica,sans-Serif" font-size="10.00">unordered_map</text>
</a>
</g>
</g>
<!-- Node19&#45;&gt;Node21 -->
<g id="edge24" class="edge">
<title>Node19&#45;&gt;Node21</title>
<path fill="none" stroke="midnightblue" d="M596.42,-168.32C581,-159.74 557.19,-146.49 539.29,-136.52"/>
<polygon fill="midnightblue" stroke="midnightblue" points="540.99,-133.46 530.55,-131.65 537.58,-139.58 540.99,-133.46"/>
</g>
<!-- Node22&#45;&gt;Node17 -->
<g id="edge29" class="edge">
<title>Node22&#45;&gt;Node17</title>
<path fill="none" stroke="midnightblue" d="M362.78,-112.32C377.27,-103.82 399.57,-90.73 416.49,-80.8"/>
<polygon fill="midnightblue" stroke="midnightblue" points="418.4,-83.74 425.26,-75.65 414.86,-77.7 418.4,-83.74"/>
</g>
<!-- Node22&#45;&gt;Node18 -->
<g id="edge27" class="edge">
<title>Node22&#45;&gt;Node18</title>
<path fill="none" stroke="midnightblue" d="M339.81,-112.09C329.27,-99.49 313.3,-75.81 322,-56 327.39,-43.73 337.96,-33.34 347.9,-25.65"/>
<polygon fill="midnightblue" stroke="midnightblue" points="350.25,-28.27 356.34,-19.6 346.17,-22.58 350.25,-28.27"/>
</g>
<!-- Node23 -->
<g id="node23" class="node">
<title>Node23</title>
<g id="a_node23"><a xlink:title=" ">
<polygon fill="white" stroke="#bfbfbf" points="331.5,-56.5 331.5,-75.5 378.5,-75.5 378.5,-56.5 331.5,-56.5"/>
<text text-anchor="middle" x="355" y="-63.5" font-family="Helvetica,sans-Serif" font-size="10.00">queue</text>
</a>
</g>
</g>
<!-- Node22&#45;&gt;Node23 -->
<g id="edge28" class="edge">
<title>Node22&#45;&gt;Node23</title>
<path fill="none" stroke="midnightblue" d="M349.16,-112.08C350.08,-104.93 351.42,-94.64 352.58,-85.69"/>
<polygon fill="midnightblue" stroke="midnightblue" points="356.05,-86.12 353.87,-75.75 349.11,-85.22 356.05,-86.12"/>
</g>
<!-- Node24&#45;&gt;Node22 -->
<g id="edge31" class="edge">
<title>Node24&#45;&gt;Node22</title>
<path fill="none" stroke="midnightblue" d="M356.35,-168.08C355.02,-160.93 353.12,-150.64 351.46,-141.69"/>
<polygon fill="midnightblue" stroke="midnightblue" points="354.88,-140.95 349.62,-131.75 348,-142.22 354.88,-140.95"/>
</g>
<!-- Node25&#45;&gt;Node8 -->
<g id="edge34" class="edge">
<title>Node25&#45;&gt;Node8</title>
<path fill="none" stroke="midnightblue" d="M1072.07,-336.44C1061.1,-328.11 1044.92,-314.59 1034,-300 1009.32,-267.02 991.06,-221.87 982.13,-197.1"/>
<polygon fill="midnightblue" stroke="midnightblue" points="985.39,-195.83 978.79,-187.54 978.78,-198.14 985.39,-195.83"/>
</g>
<!-- Node25&#45;&gt;Node11 -->
<g id="edge37" class="edge">
<title>Node25&#45;&gt;Node11</title>
<path fill="none" stroke="midnightblue" d="M1016.02,-336.44C938.99,-326.75 813.66,-310.97 732.78,-300.79"/>
<polygon fill="midnightblue" stroke="midnightblue" points="733.02,-297.29 722.66,-299.52 732.14,-304.24 733.02,-297.29"/>
</g>
<!-- Node26 -->
<g id="node26" class="node">
<title>Node26</title>
<g id="a_node26"><a xlink:href="_ray_8hpp.html" target="_top" xlink:title=" ">
<polygon fill="white" stroke="black" points="1042.5,-280.5 1042.5,-299.5 1125.5,-299.5 1125.5,-280.5 1042.5,-280.5"/>
<text text-anchor="middle" x="1084" y="-287.5" font-family="Helvetica,sans-Serif" font-size="10.00">Math/Ray.hpp</text>
</a>
</g>
</g>
<!-- Node25&#45;&gt;Node26 -->
<g id="edge35" class="edge">
<title>Node25&#45;&gt;Node26</title>
<path fill="none" stroke="midnightblue" d="M1084,-336.08C1084,-329.01 1084,-318.86 1084,-309.99"/>
<polygon fill="midnightblue" stroke="midnightblue" points="1087.5,-309.75 1084,-299.75 1080.5,-309.75 1087.5,-309.75"/>
</g>
<!-- Node26&#45;&gt;Node8 -->
<g id="edge36" class="edge">
<title>Node26&#45;&gt;Node8</title>
<path fill="none" stroke="midnightblue" d="M1077.13,-280.23C1066.93,-267.4 1046.94,-242.98 1028,-224 1017.46,-213.44 1004.81,-202.46 994.63,-193.99"/>
<polygon fill="midnightblue" stroke="midnightblue" points="996.71,-191.17 986.76,-187.53 992.27,-196.58 996.71,-191.17"/>
</g>
</g>
</svg>
