<?xml version="1.0" encoding="UTF-8" standalone="no"?>
<!DOCTYPE svg PUBLIC "-//W3C//DTD SVG 1.1//EN"
 "http://www.w3.org/Graphics/SVG/1.1/DTD/svg11.dtd">
<!-- Generated by graphviz version 2.43.0 (0)
 -->
<!-- Title: src/ECS/EntityProvider.cpp Pages: 1 -->
<svg width="208pt" height="192pt"
 viewBox="0.00 0.00 208.00 192.00" xmlns="http://www.w3.org/2000/svg" xmlns:xlink="http://www.w3.org/1999/xlink">
<g id="graph0" class="graph" transform="scale(1 1) rotate(0) translate(4 188)">
<title>src/ECS/EntityProvider.cpp</title>
<!-- Node1 -->
<g id="Node000001" class="node">
<title>Node1</title>
<g id="a_Node000001"><a xlink:title=" ">
<polygon fill="#999999" stroke="#666666" points="144,-184 0,-184 0,-165 144,-165 144,-184"/>
<text text-anchor="middle" x="72" y="-172" font-family="Helvetica,sans-Serif" font-size="10.00">src/ECS/EntityProvider.cpp</text>
</a>
</g>
</g>
<!-- Node2 -->
<g id="Node000002" class="node">
<title>Node2</title>
<g id="a_Node000002"><a xlink:href="_entity_provider_8hpp.html" target="_top" xlink:title="Manages a pool of unused entity identifiers and provides mechanisms for requesting and removing them.">
<polygon fill="white" stroke="#666666" points="136,-129 8,-129 8,-110 136,-110 136,-129"/>
<text text-anchor="middle" x="72" y="-117" font-family="Helvetica,sans-Serif" font-size="10.00">ECS/EntityProvider.hpp</text>
</a>
</g>
</g>
<!-- Node1&#45;&gt;Node2 -->
<g id="edge1_Node000001_Node000002" class="edge">
<title>Node1&#45;&gt;Node2</title>
<g id="a_edge1_Node000001_Node000002"><a xlink:title=" ">
<path fill="none" stroke="#63b8ff" d="M72,-164.75C72,-157.8 72,-147.85 72,-139.13"/>
<polygon fill="#63b8ff" stroke="#63b8ff" points="75.5,-139.09 72,-129.09 68.5,-139.09 75.5,-139.09"/>
</a>
</g>
</g>
<!-- Node3 -->
<g id="Node000003" class="node">
<title>Node3</title>
<g id="a_Node000003"><a xlink:title=" ">
<polygon fill="#e0e0e0" stroke="#999999" points="114.5,-19 61.5,-19 61.5,0 114.5,0 114.5,-19"/>
<text text-anchor="middle" x="88" y="-7" font-family="Helvetica,sans-Serif" font-size="10.00">stdlib.h</text>
</a>
</g>
</g>
<!-- Node2&#45;&gt;Node3 -->
<g id="edge2_Node000002_Node000003" class="edge">
<title>Node2&#45;&gt;Node3</title>
<g id="a_edge2_Node000002_Node000003"><a xlink:title=" ">
<path fill="none" stroke="#63b8ff" d="M61.75,-109.63C49.07,-97.51 30.15,-74.99 39,-55 44.32,-42.97 54.68,-32.8 64.51,-25.24"/>
<polygon fill="#63b8ff" stroke="#63b8ff" points="66.76,-27.93 72.87,-19.27 62.7,-22.23 66.76,-27.93"/>
</a>
</g>
</g>
<!-- Node4 -->
<g id="Node000004" class="node">
<title>Node4</title>
<g id="a_Node000004"><a xlink:title=" ">
<polygon fill="#e0e0e0" stroke="#999999" points="95.5,-74 48.5,-74 48.5,-55 95.5,-55 95.5,-74"/>
<text text-anchor="middle" x="72" y="-62" font-family="Helvetica,sans-Serif" font-size="10.00">queue</text>
</a>
</g>
</g>
<!-- Node2&#45;&gt;Node4 -->
<g id="edge3_Node000002_Node000004" class="edge">
<title>Node2&#45;&gt;Node4</title>
<g id="a_edge3_Node000002_Node000004"><a xlink:title=" ">
<path fill="none" stroke="#63b8ff" d="M72,-109.75C72,-102.8 72,-92.85 72,-84.13"/>
<polygon fill="#63b8ff" stroke="#63b8ff" points="75.5,-84.09 72,-74.09 68.5,-84.09 75.5,-84.09"/>
</a>
</g>
</g>
<!-- Node5 -->
<g id="Node000005" class="node">
<title>Node5</title>
<g id="a_Node000005"><a xlink:href="_entity_8hpp.html" target="_top" xlink:title=" ">
<polygon fill="white" stroke="#666666" points="200,-74 114,-74 114,-55 200,-55 200,-74"/>
<text text-anchor="middle" x="157" y="-62" font-family="Helvetica,sans-Serif" font-size="10.00">ECS/Entity.hpp</text>
</a>
</g>
</g>
<!-- Node2&#45;&gt;Node5 -->
<g id="edge4_Node000002_Node000005" class="edge">
<title>Node2&#45;&gt;Node5</title>
<g id="a_edge4_Node000002_Node000005"><a xlink:title=" ">
<path fill="none" stroke="#63b8ff" d="M85.66,-109.98C98.84,-101.77 119.03,-89.18 134.57,-79.49"/>
<polygon fill="#63b8ff" stroke="#63b8ff" points="136.46,-82.43 143.09,-74.17 132.76,-76.49 136.46,-82.43"/>
</a>
</g>
</g>
<!-- Node5&#45;&gt;Node3 -->
<g id="edge5_Node000005_Node000003" class="edge">
<title>Node5&#45;&gt;Node3</title>
<g id="a_edge5_Node000005_Node000003"><a xlink:title=" ">
<path fill="none" stroke="#63b8ff" d="M145.91,-54.98C135.51,-47 119.74,-34.88 107.28,-25.31"/>
<polygon fill="#63b8ff" stroke="#63b8ff" points="109.35,-22.49 99.29,-19.17 105.09,-28.04 109.35,-22.49"/>
</a>
</g>
</g>
</g>
</svg>
