<?xml version="1.0" encoding="UTF-8" standalone="no"?>
<!DOCTYPE svg PUBLIC "-//W3C//DTD SVG 1.1//EN"
 "http://www.w3.org/Graphics/SVG/1.1/DTD/svg11.dtd">
<!-- Generated by graphviz version 2.43.0 (0)
 -->
<!-- Title: src/ui/widgets/FilesystemWidget.hpp Pages: 1 -->
<svg width="958pt" height="621pt"
 viewBox="0.00 0.00 957.50 621.00" xmlns="http://www.w3.org/2000/svg" xmlns:xlink="http://www.w3.org/1999/xlink">
<g id="graph0" class="graph" transform="scale(1 1) rotate(0) translate(4 617)">
<title>src/ui/widgets/FilesystemWidget.hpp</title>
<!-- Node1 -->
<g id="Node000001" class="node">
<title>Node1</title>
<g id="a_Node000001"><a xlink:title="Contains the declaration of the FilesystemWidget class, a user interface widget for interacting with ...">
<polygon fill="#999999" stroke="#666666" points="497.5,-613 357.5,-613 357.5,-583 497.5,-583 497.5,-613"/>
<text text-anchor="start" x="365.5" y="-601" font-family="Helvetica,sans-Serif" font-size="10.00">src/ui/widgets/Filesystem</text>
<text text-anchor="middle" x="427.5" y="-590" font-family="Helvetica,sans-Serif" font-size="10.00">Widget.hpp</text>
</a>
</g>
</g>
<!-- Node2 -->
<g id="Node000002" class="node">
<title>Node2</title>
<g id="a_Node000002"><a xlink:title=" ">
<polygon fill="#e0e0e0" stroke="#999999" points="65,-129 0,-129 0,-110 65,-110 65,-129"/>
<text text-anchor="middle" x="32.5" y="-117" font-family="Helvetica,sans-Serif" font-size="10.00">functional</text>
</a>
</g>
</g>
<!-- Node1&#45;&gt;Node2 -->
<g id="edge1_Node000001_Node000002" class="edge">
<title>Node1&#45;&gt;Node2</title>
<g id="a_edge1_Node000001_Node000002"><a xlink:title=" ">
<path fill="none" stroke="#63b8ff" d="M357.15,-589.16C248.81,-575.11 53.5,-541.03 53.5,-478 53.5,-478 53.5,-478 53.5,-228.5 53.5,-196.46 44.48,-160.03 38.27,-138.73"/>
<polygon fill="#63b8ff" stroke="#63b8ff" points="41.59,-137.62 35.33,-129.07 34.89,-139.65 41.59,-137.62"/>
</a>
</g>
</g>
<!-- Node3 -->
<g id="Node000003" class="node">
<title>Node3</title>
<g id="a_Node000003"><a xlink:href="_name_component_8hpp.html" target="_top" xlink:title=" ">
<polygon fill="white" stroke="#666666" points="803.5,-547 615.5,-547 615.5,-528 803.5,-528 803.5,-547"/>
<text text-anchor="middle" x="709.5" y="-535" font-family="Helvetica,sans-Serif" font-size="10.00">Components/NameComponent.hpp</text>
</a>
</g>
</g>
<!-- Node1&#45;&gt;Node3 -->
<g id="edge2_Node000001_Node000003" class="edge">
<title>Node1&#45;&gt;Node3</title>
<g id="a_edge2_Node000001_Node000003"><a xlink:title=" ">
<path fill="none" stroke="#63b8ff" d="M495.05,-582.99C545.19,-572.59 612.52,-558.62 658.27,-549.13"/>
<polygon fill="#63b8ff" stroke="#63b8ff" points="659.19,-552.51 668.27,-547.05 657.76,-545.66 659.19,-552.51"/>
</a>
</g>
</g>
<!-- Node8 -->
<g id="Node000008" class="node">
<title>Node8</title>
<g id="a_Node000008"><a xlink:href="_texture_8hpp.html" target="_top" xlink:title=" ">
<polygon fill="white" stroke="#666666" points="611.5,-486.5 465.5,-486.5 465.5,-467.5 611.5,-467.5 611.5,-486.5"/>
<text text-anchor="middle" x="538.5" y="-474.5" font-family="Helvetica,sans-Serif" font-size="10.00">AssetManager/Texture.hpp</text>
</a>
</g>
</g>
<!-- Node1&#45;&gt;Node8 -->
<g id="edge7_Node000001_Node000008" class="edge">
<title>Node1&#45;&gt;Node8</title>
<g id="a_edge7_Node000001_Node000008"><a xlink:title=" ">
<path fill="none" stroke="#63b8ff" d="M440.67,-582.88C461.42,-560.63 501.62,-517.54 523.47,-494.11"/>
<polygon fill="#63b8ff" stroke="#63b8ff" points="526.11,-496.41 530.37,-486.71 520.99,-491.64 526.11,-496.41"/>
</a>
</g>
</g>
<!-- Node13 -->
<g id="Node000013" class="node">
<title>Node13</title>
<g id="a_Node000013"><a xlink:href="_registry_8hpp.html" target="_top" xlink:title=" ">
<polygon fill="white" stroke="#666666" points="417.5,-239 319.5,-239 319.5,-220 417.5,-220 417.5,-239"/>
<text text-anchor="middle" x="368.5" y="-227" font-family="Helvetica,sans-Serif" font-size="10.00">ECS/Registry.hpp</text>
</a>
</g>
</g>
<!-- Node1&#45;&gt;Node13 -->
<g id="edge46_Node000001_Node000013" class="edge">
<title>Node1&#45;&gt;Node13</title>
<g id="a_edge46_Node000001_Node000013"><a xlink:title=" ">
<path fill="none" stroke="#63b8ff" d="M357.42,-593.41C282.24,-585.34 173.5,-559.57 173.5,-478 173.5,-478 173.5,-478 173.5,-355 173.5,-315.44 182.18,-300.41 212.5,-275 239.57,-252.31 277.57,-241.17 309.28,-235.71"/>
<polygon fill="#63b8ff" stroke="#63b8ff" points="310,-239.14 319.33,-234.13 308.91,-232.23 310,-239.14"/>
</a>
</g>
</g>
<!-- Node25 -->
<g id="Node000025" class="node">
<title>Node25</title>
<g id="a_Node000025"><a xlink:title=" ">
<polygon fill="#e0e0e0" stroke="#999999" points="907.5,-547 821.5,-547 821.5,-528 907.5,-528 907.5,-547"/>
<text text-anchor="middle" x="864.5" y="-535" font-family="Helvetica,sans-Serif" font-size="10.00">UI/Widget.hpp</text>
</a>
</g>
</g>
<!-- Node1&#45;&gt;Node25 -->
<g id="edge34_Node000001_Node000025" class="edge">
<title>Node1&#45;&gt;Node25</title>
<g id="a_edge34_Node000001_Node000025"><a xlink:title=" ">
<path fill="none" stroke="#63b8ff" d="M497.85,-588.57C572.92,-579.41 695.61,-563.99 811.29,-547.14"/>
<polygon fill="#63b8ff" stroke="#63b8ff" points="812,-550.57 821.39,-545.66 810.99,-543.64 812,-550.57"/>
</a>
</g>
</g>
<!-- Node26 -->
<g id="Node000026" class="node">
<title>Node26</title>
<g id="a_Node000026"><a xlink:href="_asset_utils_8hpp.html" target="_top" xlink:title=" ">
<polygon fill="white" stroke="#666666" points="442,-547 329,-547 329,-528 442,-528 442,-547"/>
<text text-anchor="middle" x="385.5" y="-535" font-family="Helvetica,sans-Serif" font-size="10.00">Utils/AssetUtils.hpp</text>
</a>
</g>
</g>
<!-- Node1&#45;&gt;Node26 -->
<g id="edge35_Node000001_Node000026" class="edge">
<title>Node1&#45;&gt;Node26</title>
<g id="a_edge35_Node000001_Node000026"><a xlink:title=" ">
<path fill="none" stroke="#63b8ff" d="M417.33,-582.84C411.42,-574.61 403.94,-564.18 397.71,-555.51"/>
<polygon fill="#63b8ff" stroke="#63b8ff" points="400.47,-553.35 391.79,-547.27 394.78,-557.43 400.47,-553.35"/>
</a>
</g>
</g>
<!-- Node4 -->
<g id="Node000004" class="node">
<title>Node4</title>
<g id="a_Node000004"><a xlink:title=" ">
<polygon fill="#e0e0e0" stroke="#999999" points="949.5,-486.5 905.5,-486.5 905.5,-467.5 949.5,-467.5 949.5,-486.5"/>
<text text-anchor="middle" x="927.5" y="-474.5" font-family="Helvetica,sans-Serif" font-size="10.00">string</text>
</a>
</g>
</g>
<!-- Node3&#45;&gt;Node4 -->
<g id="edge3_Node000003_Node000004" class="edge">
<title>Node3&#45;&gt;Node4</title>
<g id="a_edge3_Node000003_Node000004"><a xlink:title=" ">
<path fill="none" stroke="#63b8ff" d="M751.13,-527.95C788.3,-519.93 844.03,-506.96 891.5,-492 893.37,-491.41 895.28,-490.77 897.21,-490.11"/>
<polygon fill="#63b8ff" stroke="#63b8ff" points="898.54,-493.34 906.73,-486.61 896.13,-486.77 898.54,-493.34"/>
</a>
</g>
</g>
<!-- Node5 -->
<g id="Node000005" class="node">
<title>Node5</title>
<g id="a_Node000005"><a xlink:href="_base_component_8hpp.html" target="_top" xlink:title=" ">
<polygon fill="white" stroke="#666666" points="849.5,-486.5 667.5,-486.5 667.5,-467.5 849.5,-467.5 849.5,-486.5"/>
<text text-anchor="middle" x="758.5" y="-474.5" font-family="Helvetica,sans-Serif" font-size="10.00">Components/BaseComponent.hpp</text>
</a>
</g>
</g>
<!-- Node3&#45;&gt;Node5 -->
<g id="edge4_Node000003_Node000005" class="edge">
<title>Node3&#45;&gt;Node5</title>
<g id="a_edge4_Node000003_Node000005"><a xlink:title=" ">
<path fill="none" stroke="#63b8ff" d="M716.73,-527.87C724.04,-519.14 735.52,-505.43 744.6,-494.59"/>
<polygon fill="#63b8ff" stroke="#63b8ff" points="747.5,-496.58 751.24,-486.67 742.14,-492.09 747.5,-496.58"/>
</a>
</g>
</g>
<!-- Node6 -->
<g id="Node000006" class="node">
<title>Node6</title>
<g id="a_Node000006"><a xlink:href="_types_8hpp.html" target="_top" xlink:title=" ">
<polygon fill="white" stroke="#666666" points="787,-426 674,-426 674,-407 787,-407 787,-426"/>
<text text-anchor="middle" x="730.5" y="-414" font-family="Helvetica,sans-Serif" font-size="10.00">Common/Types.hpp</text>
</a>
</g>
</g>
<!-- Node5&#45;&gt;Node6 -->
<g id="edge5_Node000005_Node000006" class="edge">
<title>Node5&#45;&gt;Node6</title>
<g id="a_edge5_Node000005_Node000006"><a xlink:title=" ">
<path fill="none" stroke="#63b8ff" d="M754.37,-467.37C750.36,-458.99 744.15,-446.01 739.06,-435.39"/>
<polygon fill="#63b8ff" stroke="#63b8ff" points="742.12,-433.68 734.65,-426.17 735.81,-436.7 742.12,-433.68"/>
</a>
</g>
</g>
<!-- Node7 -->
<g id="Node000007" class="node">
<title>Node7</title>
<g id="a_Node000007"><a xlink:title=" ">
<polygon fill="#e0e0e0" stroke="#999999" points="565.5,-239 497.5,-239 497.5,-220 565.5,-220 565.5,-239"/>
<text text-anchor="middle" x="531.5" y="-227" font-family="Helvetica,sans-Serif" font-size="10.00">filesystem</text>
</a>
</g>
</g>
<!-- Node6&#45;&gt;Node7 -->
<g id="edge6_Node000006_Node000007" class="edge">
<title>Node6&#45;&gt;Node7</title>
<g id="a_edge6_Node000006_Node000007"><a xlink:title=" ">
<path fill="none" stroke="#63b8ff" d="M721.61,-406.81C698.81,-384.57 636.21,-323.89 582.5,-275 571.64,-265.11 559.22,-254.27 549.36,-245.77"/>
<polygon fill="#63b8ff" stroke="#63b8ff" points="551.64,-243.1 541.77,-239.24 547.07,-248.41 551.64,-243.1"/>
</a>
</g>
</g>
<!-- Node9 -->
<g id="Node000009" class="node">
<title>Node9</title>
<g id="a_Node000009"><a xlink:title=" ">
<polygon fill="#e0e0e0" stroke="#999999" points="387,-365.5 316,-365.5 316,-346.5 387,-346.5 387,-365.5"/>
<text text-anchor="middle" x="351.5" y="-353.5" font-family="Helvetica,sans-Serif" font-size="10.00">glad/glad.h</text>
</a>
</g>
</g>
<!-- Node8&#45;&gt;Node9 -->
<g id="edge8_Node000008_Node000009" class="edge">
<title>Node8&#45;&gt;Node9</title>
<g id="a_edge8_Node000008_Node000009"><a xlink:title=" ">
<path fill="none" stroke="#63b8ff" d="M493.92,-467.48C439.56,-456.65 353.74,-437.92 344.5,-426 333.35,-411.62 337.81,-390.17 343.33,-375.01"/>
<polygon fill="#63b8ff" stroke="#63b8ff" points="346.59,-376.27 347.14,-365.68 340.11,-373.62 346.59,-376.27"/>
</a>
</g>
</g>
<!-- Node10 -->
<g id="Node000010" class="node">
<title>Node10</title>
<g id="a_Node000010"><a xlink:href="_image_8hpp.html" target="_top" xlink:title=" ">
<polygon fill="white" stroke="#666666" points="656,-426 515,-426 515,-407 656,-407 656,-426"/>
<text text-anchor="middle" x="585.5" y="-414" font-family="Helvetica,sans-Serif" font-size="10.00">AssetManager/Image.hpp</text>
</a>
</g>
</g>
<!-- Node8&#45;&gt;Node10 -->
<g id="edge9_Node000008_Node000010" class="edge">
<title>Node8&#45;&gt;Node10</title>
<g id="a_edge9_Node000008_Node000010"><a xlink:title=" ">
<path fill="none" stroke="#63b8ff" d="M545.44,-467.37C552.45,-458.64 563.46,-444.93 572.17,-434.09"/>
<polygon fill="#63b8ff" stroke="#63b8ff" points="575,-436.16 578.54,-426.17 569.54,-431.77 575,-436.16"/>
</a>
</g>
</g>
<!-- Node10&#45;&gt;Node7 -->
<g id="edge10_Node000010_Node000007" class="edge">
<title>Node10&#45;&gt;Node7</title>
<g id="a_edge10_Node000010_Node000007"><a xlink:title=" ">
<path fill="none" stroke="#63b8ff" d="M587.62,-406.63C590.64,-392.5 595.2,-364.14 589.5,-341 580.69,-305.24 558.01,-268.26 543.76,-247.44"/>
<polygon fill="#63b8ff" stroke="#63b8ff" points="546.5,-245.24 537.89,-239.07 540.77,-249.27 546.5,-245.24"/>
</a>
</g>
</g>
<!-- Node11 -->
<g id="Node000011" class="node">
<title>Node11</title>
<g id="a_Node000011"><a xlink:href="_path_constructible_asset_8hpp.html" target="_top" xlink:title=" ">
<polygon fill="white" stroke="#666666" points="580,-371 405,-371 405,-341 580,-341 580,-371"/>
<text text-anchor="start" x="413" y="-359" font-family="Helvetica,sans-Serif" font-size="10.00">AssetManager/PathConstructible</text>
<text text-anchor="middle" x="492.5" y="-348" font-family="Helvetica,sans-Serif" font-size="10.00">Asset.hpp</text>
</a>
</g>
</g>
<!-- Node10&#45;&gt;Node11 -->
<g id="edge11_Node000010_Node000011" class="edge">
<title>Node10&#45;&gt;Node11</title>
<g id="a_edge11_Node000010_Node000011"><a xlink:title=" ">
<path fill="none" stroke="#63b8ff" d="M571.78,-406.87C559.16,-398.93 539.99,-386.87 523.66,-376.6"/>
<polygon fill="#63b8ff" stroke="#63b8ff" points="525.27,-373.48 514.94,-371.11 521.54,-379.4 525.27,-373.48"/>
</a>
</g>
</g>
<!-- Node11&#45;&gt;Node7 -->
<g id="edge12_Node000011_Node000007" class="edge">
<title>Node11&#45;&gt;Node7</title>
<g id="a_edge12_Node000011_Node000007"><a xlink:title=" ">
<path fill="none" stroke="#63b8ff" d="M498.78,-340.74C503,-330.84 508.5,-317.27 512.5,-305 518.57,-286.39 523.92,-264.66 527.38,-249.49"/>
<polygon fill="#63b8ff" stroke="#63b8ff" points="530.89,-249.84 529.64,-239.32 524.05,-248.32 530.89,-249.84"/>
</a>
</g>
</g>
<!-- Node12 -->
<g id="Node000012" class="node">
<title>Node12</title>
<g id="a_Node000012"><a xlink:href="_asset_8hpp.html" target="_top" xlink:title=" ">
<polygon fill="white" stroke="#666666" points="503,-299.5 366,-299.5 366,-280.5 503,-280.5 503,-299.5"/>
<text text-anchor="middle" x="434.5" y="-287.5" font-family="Helvetica,sans-Serif" font-size="10.00">AssetManager/Asset.hpp</text>
</a>
</g>
</g>
<!-- Node11&#45;&gt;Node12 -->
<g id="edge13_Node000011_Node000012" class="edge">
<title>Node11&#45;&gt;Node12</title>
<g id="a_edge13_Node000011_Node000012"><a xlink:title=" ">
<path fill="none" stroke="#63b8ff" d="M479.63,-340.8C470.67,-330.92 458.71,-317.72 449.36,-307.39"/>
<polygon fill="#63b8ff" stroke="#63b8ff" points="451.82,-304.9 442.52,-299.84 446.64,-309.6 451.82,-304.9"/>
</a>
</g>
</g>
<!-- Node12&#45;&gt;Node7 -->
<g id="edge14_Node000012_Node000007" class="edge">
<title>Node12&#45;&gt;Node7</title>
<g id="a_edge14_Node000012_Node000007"><a xlink:title=" ">
<path fill="none" stroke="#63b8ff" d="M448.81,-280.37C464.5,-270.91 489.9,-255.59 508.41,-244.42"/>
<polygon fill="#63b8ff" stroke="#63b8ff" points="510.37,-247.33 517.13,-239.17 506.76,-241.33 510.37,-247.33"/>
</a>
</g>
</g>
<!-- Node12&#45;&gt;Node13 -->
<g id="edge15_Node000012_Node000013" class="edge">
<title>Node12&#45;&gt;Node13</title>
<g id="a_edge15_Node000012_Node000013"><a xlink:title=" ">
<path fill="none" stroke="#63b8ff" d="M424.76,-280.37C414.53,-271.3 398.21,-256.84 385.78,-245.82"/>
<polygon fill="#63b8ff" stroke="#63b8ff" points="388.08,-243.18 378.28,-239.17 383.44,-248.42 388.08,-243.18"/>
</a>
</g>
</g>
<!-- Node14 -->
<g id="Node000014" class="node">
<title>Node14</title>
<g id="a_Node000014"><a xlink:title=" ">
<polygon fill="#e0e0e0" stroke="#999999" points="319.5,-129 233.5,-129 233.5,-110 319.5,-110 319.5,-129"/>
<text text-anchor="middle" x="276.5" y="-117" font-family="Helvetica,sans-Serif" font-size="10.00">unordered_set</text>
</a>
</g>
</g>
<!-- Node13&#45;&gt;Node14 -->
<g id="edge16_Node000013_Node000014" class="edge">
<title>Node13&#45;&gt;Node14</title>
<g id="a_edge16_Node000013_Node000014"><a xlink:title=" ">
<path fill="none" stroke="#63b8ff" d="M349.08,-219.96C333.98,-212.45 313.48,-200.17 300.5,-184 290.01,-170.93 283.77,-152.79 280.29,-139.24"/>
<polygon fill="#63b8ff" stroke="#63b8ff" points="283.63,-138.13 277.99,-129.16 276.8,-139.69 283.63,-138.13"/>
</a>
</g>
</g>
<!-- Node15 -->
<g id="Node000015" class="node">
<title>Node15</title>
<g id="a_Node000015"><a xlink:href="_logger_8hpp.html" target="_top" xlink:title=" ">
<polygon fill="white" stroke="#666666" points="639,-184 522,-184 522,-165 639,-165 639,-184"/>
<text text-anchor="middle" x="580.5" y="-172" font-family="Helvetica,sans-Serif" font-size="10.00">Common/Logger.hpp</text>
</a>
</g>
</g>
<!-- Node13&#45;&gt;Node15 -->
<g id="edge17_Node000013_Node000015" class="edge">
<title>Node13&#45;&gt;Node15</title>
<g id="a_edge17_Node000013_Node000015"><a xlink:title=" ">
<path fill="none" stroke="#63b8ff" d="M402.56,-219.98C438.92,-210.89 496.67,-196.46 536.47,-186.51"/>
<polygon fill="#63b8ff" stroke="#63b8ff" points="537.32,-189.9 546.17,-184.08 535.62,-183.11 537.32,-189.9"/>
</a>
</g>
</g>
<!-- Node18 -->
<g id="Node000018" class="node">
<title>Node18</title>
<g id="a_Node000018"><a xlink:href="_entity_8hpp.html" target="_top" xlink:title=" ">
<polygon fill="white" stroke="#666666" points="493.5,-74 407.5,-74 407.5,-55 493.5,-55 493.5,-74"/>
<text text-anchor="middle" x="450.5" y="-62" font-family="Helvetica,sans-Serif" font-size="10.00">ECS/Entity.hpp</text>
</a>
</g>
</g>
<!-- Node13&#45;&gt;Node18 -->
<g id="edge20_Node000013_Node000018" class="edge">
<title>Node13&#45;&gt;Node18</title>
<g id="a_edge20_Node000013_Node000018"><a xlink:title=" ">
<path fill="none" stroke="#63b8ff" d="M357.66,-219.66C344.23,-207.58 324.2,-185.11 333.5,-165 352,-124.99 395.39,-95.16 423.82,-79.05"/>
<polygon fill="#63b8ff" stroke="#63b8ff" points="425.74,-81.99 432.83,-74.12 422.37,-75.85 425.74,-81.99"/>
</a>
</g>
</g>
<!-- Node20 -->
<g id="Node000020" class="node">
<title>Node20</title>
<g id="a_Node000020"><a xlink:href="_entity_hierarchy_8hpp.html" target="_top" xlink:title=" ">
<polygon fill="white" stroke="#666666" points="235.5,-184 101.5,-184 101.5,-165 235.5,-165 235.5,-184"/>
<text text-anchor="middle" x="168.5" y="-172" font-family="Helvetica,sans-Serif" font-size="10.00">ECS/EntityHierarchy.hpp</text>
</a>
</g>
</g>
<!-- Node13&#45;&gt;Node20 -->
<g id="edge22_Node000013_Node000020" class="edge">
<title>Node13&#45;&gt;Node20</title>
<g id="a_edge22_Node000013_Node000020"><a xlink:title=" ">
<path fill="none" stroke="#63b8ff" d="M336.37,-219.98C302.35,-210.97 248.5,-196.7 211,-186.76"/>
<polygon fill="#63b8ff" stroke="#63b8ff" points="211.45,-183.26 200.89,-184.08 209.66,-190.03 211.45,-183.26"/>
</a>
</g>
</g>
<!-- Node22 -->
<g id="Node000022" class="node">
<title>Node22</title>
<g id="a_Node000022"><a xlink:href="_entity_provider_8hpp.html" target="_top" xlink:title="Manages a pool of unused entity identifiers and provides mechanisms for requesting and removing them.">
<polygon fill="white" stroke="#666666" points="755.5,-129 627.5,-129 627.5,-110 755.5,-110 755.5,-129"/>
<text text-anchor="middle" x="691.5" y="-117" font-family="Helvetica,sans-Serif" font-size="10.00">ECS/EntityProvider.hpp</text>
</a>
</g>
</g>
<!-- Node13&#45;&gt;Node22 -->
<g id="edge27_Node000013_Node000022" class="edge">
<title>Node13&#45;&gt;Node22</title>
<g id="a_edge27_Node000013_Node000022"><a xlink:title=" ">
<path fill="none" stroke="#63b8ff" d="M417.77,-224.85C523.33,-216.79 762.71,-197.15 774.5,-184 793.3,-163.03 758.79,-144.15 728.71,-132.53"/>
<polygon fill="#63b8ff" stroke="#63b8ff" points="729.77,-129.19 719.17,-129.02 727.35,-135.76 729.77,-129.19"/>
</a>
</g>
</g>
<!-- Node23 -->
<g id="Node000023" class="node">
<title>Node23</title>
<g id="a_Node000023"><a xlink:href="_sparse_set_8hpp.html" target="_top" xlink:title=" ">
<polygon fill="white" stroke="#666666" points="765.5,-184 657.5,-184 657.5,-165 765.5,-165 765.5,-184"/>
<text text-anchor="middle" x="711.5" y="-172" font-family="Helvetica,sans-Serif" font-size="10.00">ECS/SparseSet.hpp</text>
</a>
</g>
</g>
<!-- Node13&#45;&gt;Node23 -->
<g id="edge31_Node000013_Node000023" class="edge">
<title>Node13&#45;&gt;Node23</title>
<g id="a_edge31_Node000013_Node000023"><a xlink:title=" ">
<path fill="none" stroke="#63b8ff" d="M417.64,-220.91C478.08,-211.57 580.81,-195.69 647.4,-185.41"/>
<polygon fill="#63b8ff" stroke="#63b8ff" points="648.01,-188.85 657.35,-183.87 646.94,-181.93 648.01,-188.85"/>
</a>
</g>
</g>
<!-- Node24 -->
<g id="Node000024" class="node">
<title>Node24</title>
<g id="a_Node000024"><a xlink:href="_singleton_component_8hpp.html" target="_top" xlink:title=" ">
<polygon fill="white" stroke="#666666" points="504,-184 343,-184 343,-165 504,-165 504,-184"/>
<text text-anchor="middle" x="423.5" y="-172" font-family="Helvetica,sans-Serif" font-size="10.00">ECS/SingletonComponent.hpp</text>
</a>
</g>
</g>
<!-- Node13&#45;&gt;Node24 -->
<g id="edge33_Node000013_Node000024" class="edge">
<title>Node13&#45;&gt;Node24</title>
<g id="a_edge33_Node000013_Node000024"><a xlink:title=" ">
<path fill="none" stroke="#63b8ff" d="M377.58,-219.75C385.59,-212.03 397.46,-200.6 407.12,-191.28"/>
<polygon fill="#63b8ff" stroke="#63b8ff" points="409.81,-193.55 414.59,-184.09 404.96,-188.51 409.81,-193.55"/>
</a>
</g>
</g>
<!-- Node16 -->
<g id="Node000016" class="node">
<title>Node16</title>
<g id="a_Node000016"><a xlink:title=" ">
<polygon fill="#e0e0e0" stroke="#999999" points="571.5,-129 523.5,-129 523.5,-110 571.5,-110 571.5,-129"/>
<text text-anchor="middle" x="547.5" y="-117" font-family="Helvetica,sans-Serif" font-size="10.00">mutex</text>
</a>
</g>
</g>
<!-- Node15&#45;&gt;Node16 -->
<g id="edge18_Node000015_Node000016" class="edge">
<title>Node15&#45;&gt;Node16</title>
<g id="a_edge18_Node000015_Node000016"><a xlink:title=" ">
<path fill="none" stroke="#63b8ff" d="M575.05,-164.75C570.49,-157.42 563.83,-146.73 558.21,-137.7"/>
<polygon fill="#63b8ff" stroke="#63b8ff" points="561.1,-135.73 552.85,-129.09 555.16,-139.43 561.1,-135.73"/>
</a>
</g>
</g>
<!-- Node17 -->
<g id="Node000017" class="node">
<title>Node17</title>
<g id="a_Node000017"><a xlink:title=" ">
<polygon fill="#e0e0e0" stroke="#999999" points="633,-74 586,-74 586,-55 633,-55 633,-74"/>
<text text-anchor="middle" x="609.5" y="-62" font-family="Helvetica,sans-Serif" font-size="10.00">queue</text>
</a>
</g>
</g>
<!-- Node15&#45;&gt;Node17 -->
<g id="edge19_Node000015_Node000017" class="edge">
<title>Node15&#45;&gt;Node17</title>
<g id="a_edge19_Node000015_Node000017"><a xlink:title=" ">
<path fill="none" stroke="#63b8ff" d="M582.87,-164.66C587.59,-147.09 598.24,-107.45 604.54,-83.95"/>
<polygon fill="#63b8ff" stroke="#63b8ff" points="607.96,-84.72 607.18,-74.16 601.2,-82.91 607.96,-84.72"/>
</a>
</g>
</g>
<!-- Node19 -->
<g id="Node000019" class="node">
<title>Node19</title>
<g id="a_Node000019"><a xlink:title=" ">
<polygon fill="#e0e0e0" stroke="#999999" points="545,-19 492,-19 492,0 545,0 545,-19"/>
<text text-anchor="middle" x="518.5" y="-7" font-family="Helvetica,sans-Serif" font-size="10.00">stdlib.h</text>
</a>
</g>
</g>
<!-- Node18&#45;&gt;Node19 -->
<g id="edge21_Node000018_Node000019" class="edge">
<title>Node18&#45;&gt;Node19</title>
<g id="a_edge21_Node000018_Node000019"><a xlink:title=" ">
<path fill="none" stroke="#63b8ff" d="M461.43,-54.98C471.58,-47.07 486.92,-35.11 499.15,-25.58"/>
<polygon fill="#63b8ff" stroke="#63b8ff" points="501.64,-28.08 507.38,-19.17 497.34,-22.56 501.64,-28.08"/>
</a>
</g>
</g>
<!-- Node20&#45;&gt;Node2 -->
<g id="edge23_Node000020_Node000002" class="edge">
<title>Node20&#45;&gt;Node2</title>
<g id="a_edge23_Node000020_Node000002"><a xlink:title=" ">
<path fill="none" stroke="#63b8ff" d="M146.65,-164.98C124.38,-156.3 89.6,-142.75 64.28,-132.88"/>
<polygon fill="#63b8ff" stroke="#63b8ff" points="65.34,-129.54 54.75,-129.17 62.79,-136.06 65.34,-129.54"/>
</a>
</g>
</g>
<!-- Node20&#45;&gt;Node14 -->
<g id="edge24_Node000020_Node000014" class="edge">
<title>Node20&#45;&gt;Node14</title>
<g id="a_edge24_Node000020_Node000014"><a xlink:title=" ">
<path fill="none" stroke="#63b8ff" d="M185.85,-164.98C203.07,-156.54 229.7,-143.47 249.65,-133.68"/>
<polygon fill="#63b8ff" stroke="#63b8ff" points="251.4,-136.72 258.83,-129.17 248.31,-130.43 251.4,-136.72"/>
</a>
</g>
</g>
<!-- Node20&#45;&gt;Node18 -->
<g id="edge26_Node000020_Node000018" class="edge">
<title>Node20&#45;&gt;Node18</title>
<g id="a_edge26_Node000020_Node000018"><a xlink:title=" ">
<path fill="none" stroke="#63b8ff" d="M151.27,-164.89C129.06,-152.69 95.25,-129.67 112.5,-110 130.96,-88.95 306.77,-74.71 397.25,-68.71"/>
<polygon fill="#63b8ff" stroke="#63b8ff" points="397.57,-72.2 407.32,-68.05 397.11,-65.21 397.57,-72.2"/>
</a>
</g>
</g>
<!-- Node21 -->
<g id="Node000021" class="node">
<title>Node21</title>
<g id="a_Node000021"><a xlink:title=" ">
<polygon fill="#e0e0e0" stroke="#999999" points="215,-129 122,-129 122,-110 215,-110 215,-129"/>
<text text-anchor="middle" x="168.5" y="-117" font-family="Helvetica,sans-Serif" font-size="10.00">unordered_map</text>
</a>
</g>
</g>
<!-- Node20&#45;&gt;Node21 -->
<g id="edge25_Node000020_Node000021" class="edge">
<title>Node20&#45;&gt;Node21</title>
<g id="a_edge25_Node000020_Node000021"><a xlink:title=" ">
<path fill="none" stroke="#63b8ff" d="M168.5,-164.75C168.5,-157.8 168.5,-147.85 168.5,-139.13"/>
<polygon fill="#63b8ff" stroke="#63b8ff" points="172,-139.09 168.5,-129.09 165,-139.09 172,-139.09"/>
</a>
</g>
</g>
<!-- Node22&#45;&gt;Node17 -->
<g id="edge29_Node000022_Node000017" class="edge">
<title>Node22&#45;&gt;Node17</title>
<g id="a_edge29_Node000022_Node000017"><a xlink:title=" ">
<path fill="none" stroke="#63b8ff" d="M678.33,-109.98C665.73,-101.84 646.5,-89.41 631.56,-79.76"/>
<polygon fill="#63b8ff" stroke="#63b8ff" points="633.21,-76.66 622.91,-74.17 629.41,-82.54 633.21,-76.66"/>
</a>
</g>
</g>
<!-- Node22&#45;&gt;Node18 -->
<g id="edge30_Node000022_Node000018" class="edge">
<title>Node22&#45;&gt;Node18</title>
<g id="a_edge30_Node000022_Node000018"><a xlink:title=" ">
<path fill="none" stroke="#63b8ff" d="M652.78,-109.98C611.09,-100.82 544.68,-86.21 499.41,-76.26"/>
<polygon fill="#63b8ff" stroke="#63b8ff" points="500.04,-72.81 489.52,-74.08 498.54,-79.65 500.04,-72.81"/>
</a>
</g>
</g>
<!-- Node22&#45;&gt;Node19 -->
<g id="edge28_Node000022_Node000019" class="edge">
<title>Node22&#45;&gt;Node19</title>
<g id="a_edge28_Node000022_Node000019"><a xlink:title=" ">
<path fill="none" stroke="#63b8ff" d="M686.97,-109.83C679.47,-96.28 663.22,-70.08 642.5,-55 616.38,-35.99 581.33,-24.41 555.16,-17.85"/>
<polygon fill="#63b8ff" stroke="#63b8ff" points="555.79,-14.4 545.25,-15.5 554.17,-21.21 555.79,-14.4"/>
</a>
</g>
</g>
<!-- Node23&#45;&gt;Node22 -->
<g id="edge32_Node000023_Node000022" class="edge">
<title>Node23&#45;&gt;Node22</title>
<g id="a_edge32_Node000023_Node000022"><a xlink:title=" ">
<path fill="none" stroke="#63b8ff" d="M708.2,-164.75C705.52,-157.65 701.65,-147.4 698.31,-138.56"/>
<polygon fill="#63b8ff" stroke="#63b8ff" points="701.55,-137.21 694.74,-129.09 695,-139.68 701.55,-137.21"/>
</a>
</g>
</g>
<!-- Node26&#45;&gt;Node6 -->
<g id="edge37_Node000026_Node000006" class="edge">
<title>Node26&#45;&gt;Node6</title>
<g id="a_edge37_Node000026_Node000006"><a xlink:title=" ">
<path fill="none" stroke="#63b8ff" d="M442.39,-533.35C491.47,-528.89 563.26,-518.09 620.5,-492 640.08,-483.07 640.87,-474.34 658.5,-462 674.2,-451.01 692.59,-439.66 706.86,-431.18"/>
<polygon fill="#63b8ff" stroke="#63b8ff" points="708.72,-434.14 715.57,-426.05 705.17,-428.11 708.72,-434.14"/>
</a>
</g>
</g>
<!-- Node26&#45;&gt;Node7 -->
<g id="edge36_Node000026_Node000007" class="edge">
<title>Node26&#45;&gt;Node7</title>
<g id="a_edge36_Node000026_Node000007"><a xlink:title=" ">
<path fill="none" stroke="#63b8ff" d="M333.56,-527.93C310.66,-521.62 285.21,-510.73 268.5,-492 245.75,-466.5 249.5,-451.67 249.5,-417.5 249.5,-417.5 249.5,-417.5 249.5,-355 249.5,-307.75 278.72,-298.86 319.5,-275 347.48,-258.63 433.91,-244.13 487.38,-236.4"/>
<polygon fill="#63b8ff" stroke="#63b8ff" points="487.88,-239.87 497.29,-234.99 486.89,-232.94 487.88,-239.87"/>
</a>
</g>
</g>
<!-- Node26&#45;&gt;Node13 -->
<g id="edge38_Node000026_Node000013" class="edge">
<title>Node26&#45;&gt;Node13</title>
<g id="a_edge38_Node000026_Node000013"><a xlink:title=" ">
<path fill="none" stroke="#63b8ff" d="M328.79,-532.41C297.58,-527.34 260.27,-516.2 235.5,-492 210.62,-467.69 211.5,-452.29 211.5,-417.5 211.5,-417.5 211.5,-417.5 211.5,-355 211.5,-317.88 209.67,-301.66 235.5,-275 254.87,-255.01 283.47,-244 309.18,-237.94"/>
<polygon fill="#63b8ff" stroke="#63b8ff" points="310.2,-241.3 319.24,-235.77 308.73,-234.45 310.2,-241.3"/>
</a>
</g>
</g>
<!-- Node27 -->
<g id="Node000027" class="node">
<title>Node27</title>
<g id="a_Node000027"><a xlink:href="_directory_component_8hpp.html" target="_top" xlink:title=" ">
<polygon fill="white" stroke="#666666" points="924.5,-305 754.5,-305 754.5,-275 924.5,-275 924.5,-305"/>
<text text-anchor="start" x="762.5" y="-293" font-family="Helvetica,sans-Serif" font-size="10.00">Components/AssetComponents</text>
<text text-anchor="middle" x="839.5" y="-282" font-family="Helvetica,sans-Serif" font-size="10.00">/DirectoryComponent.hpp</text>
</a>
</g>
</g>
<!-- Node26&#45;&gt;Node27 -->
<g id="edge39_Node000026_Node000027" class="edge">
<title>Node26&#45;&gt;Node27</title>
<g id="a_edge39_Node000026_Node000027"><a xlink:title=" ">
<path fill="none" stroke="#63b8ff" d="M442.43,-533.18C565.13,-525.74 844.65,-507.21 858.5,-492 903.39,-442.69 871.07,-355.66 851.5,-314.21"/>
<polygon fill="#63b8ff" stroke="#63b8ff" points="854.62,-312.61 847.09,-305.16 848.33,-315.68 854.62,-312.61"/>
</a>
</g>
</g>
<!-- Node28 -->
<g id="Node000028" class="node">
<title>Node28</title>
<g id="a_Node000028"><a xlink:href="_asset_component_8hpp.html" target="_top" xlink:title=" ">
<polygon fill="white" stroke="#666666" points="447.5,-492 277.5,-492 277.5,-462 447.5,-462 447.5,-492"/>
<text text-anchor="start" x="285.5" y="-480" font-family="Helvetica,sans-Serif" font-size="10.00">Components/AssetComponents</text>
<text text-anchor="middle" x="362.5" y="-469" font-family="Helvetica,sans-Serif" font-size="10.00">/AssetComponent.hpp</text>
</a>
</g>
</g>
<!-- Node26&#45;&gt;Node28 -->
<g id="edge41_Node000026_Node000028" class="edge">
<title>Node26&#45;&gt;Node28</title>
<g id="a_edge41_Node000026_Node000028"><a xlink:title=" ">
<path fill="none" stroke="#63b8ff" d="M382.11,-527.87C379.39,-520.96 375.45,-510.93 371.81,-501.67"/>
<polygon fill="#63b8ff" stroke="#63b8ff" points="374.97,-500.14 368.05,-492.11 368.45,-502.7 374.97,-500.14"/>
</a>
</g>
</g>
<!-- Node27&#45;&gt;Node7 -->
<g id="edge40_Node000027_Node000007" class="edge">
<title>Node27&#45;&gt;Node7</title>
<g id="a_edge40_Node000027_Node000007"><a xlink:title=" ">
<path fill="none" stroke="#63b8ff" d="M765.73,-274.99C706.58,-263.75 625.52,-248.36 575.92,-238.94"/>
<polygon fill="#63b8ff" stroke="#63b8ff" points="576.31,-235.45 565.84,-237.02 575.01,-242.33 576.31,-235.45"/>
</a>
</g>
</g>
<!-- Node28&#45;&gt;Node7 -->
<g id="edge42_Node000028_Node000007" class="edge">
<title>Node28&#45;&gt;Node7</title>
<g id="a_edge42_Node000028_Node000007"><a xlink:title=" ">
<path fill="none" stroke="#63b8ff" d="M349.19,-461.67C328.23,-437.28 291.39,-385.98 306.5,-341 318.22,-306.12 325.83,-295.34 356.5,-275 395.9,-248.86 449.62,-238.08 487.1,-233.63"/>
<polygon fill="#63b8ff" stroke="#63b8ff" points="487.66,-237.09 497.22,-232.53 486.9,-230.13 487.66,-237.09"/>
</a>
</g>
</g>
<!-- Node29 -->
<g id="Node000029" class="node">
<title>Node29</title>
<g id="a_Node000029"><a xlink:href="_shader_8hpp.html" target="_top" xlink:title=" ">
<polygon fill="white" stroke="#666666" points="497,-426 354,-426 354,-407 497,-407 497,-426"/>
<text text-anchor="middle" x="425.5" y="-414" font-family="Helvetica,sans-Serif" font-size="10.00">AssetManager/Shader.hpp</text>
</a>
</g>
</g>
<!-- Node28&#45;&gt;Node29 -->
<g id="edge43_Node000028_Node000029" class="edge">
<title>Node28&#45;&gt;Node29</title>
<g id="a_edge43_Node000028_Node000029"><a xlink:title=" ">
<path fill="none" stroke="#63b8ff" d="M377.75,-461.84C387.08,-453.17 399.03,-442.08 408.65,-433.15"/>
<polygon fill="#63b8ff" stroke="#63b8ff" points="411.11,-435.64 416.06,-426.27 406.35,-430.51 411.11,-435.64"/>
</a>
</g>
</g>
<!-- Node29&#45;&gt;Node9 -->
<g id="edge44_Node000029_Node000009" class="edge">
<title>Node29&#45;&gt;Node9</title>
<g id="a_edge44_Node000029_Node000009"><a xlink:title=" ">
<path fill="none" stroke="#63b8ff" d="M414.58,-406.87C402.99,-397.71 384.47,-383.06 370.48,-372.01"/>
<polygon fill="#63b8ff" stroke="#63b8ff" points="372.48,-369.12 362.46,-365.67 368.14,-374.61 372.48,-369.12"/>
</a>
</g>
</g>
<!-- Node29&#45;&gt;Node11 -->
<g id="edge45_Node000029_Node000011" class="edge">
<title>Node29&#45;&gt;Node11</title>
<g id="a_edge45_Node000029_Node000011"><a xlink:title=" ">
<path fill="none" stroke="#63b8ff" d="M435.39,-406.87C444.14,-399.22 457.27,-387.76 468.74,-377.75"/>
<polygon fill="#63b8ff" stroke="#63b8ff" points="471.1,-380.33 476.33,-371.11 466.5,-375.06 471.1,-380.33"/>
</a>
</g>
</g>
</g>
</svg>
