<?xml version="1.0" encoding="UTF-8" standalone="no"?>
<!DOCTYPE svg PUBLIC "-//W3C//DTD SVG 1.1//EN"
 "http://www.w3.org/Graphics/SVG/1.1/DTD/svg11.dtd">
<!-- Generated by graphviz version 2.43.0 (0)
 -->
<!-- Title: src/ui/widgets/FilesystemWidget.hpp Pages: 1 -->
<svg width="1503pt" height="456pt"
 viewBox="0.00 0.00 1503.00 456.00" xmlns="http://www.w3.org/2000/svg" xmlns:xlink="http://www.w3.org/1999/xlink">
<g id="graph0" class="graph" transform="scale(1 1) rotate(0) translate(4 452)">
<title>src/ui/widgets/FilesystemWidget.hpp</title>
<!-- Node1 -->
<g id="Node000001" class="node">
<title>Node1</title>
<g id="a_Node000001"><a xlink:title="Contains the declaration of the FilesystemWidget class, a user interface widget for interacting with ...">
<polygon fill="#999999" stroke="#666666" points="987,-448 847,-448 847,-418 987,-418 987,-448"/>
<text text-anchor="start" x="855" y="-436" font-family="Helvetica,sans-Serif" font-size="10.00">src/ui/widgets/Filesystem</text>
<text text-anchor="middle" x="917" y="-425" font-family="Helvetica,sans-Serif" font-size="10.00">Widget.hpp</text>
</a>
</g>
</g>
<!-- Node2 -->
<g id="Node000002" class="node">
<title>Node2</title>
<g id="a_Node000002"><a xlink:title=" ">
<polygon fill="#e0e0e0" stroke="#999999" points="131.5,-129 66.5,-129 66.5,-110 131.5,-110 131.5,-129"/>
<text text-anchor="middle" x="99" y="-117" font-family="Helvetica,sans-Serif" font-size="10.00">functional</text>
</a>
</g>
</g>
<!-- Node1&#45;&gt;Node2 -->
<g id="edge1_Node000001_Node000002" class="edge">
<title>Node1&#45;&gt;Node2</title>
<g id="a_edge1_Node000001_Node000002"><a xlink:title=" ">
<path fill="none" stroke="#63b8ff" d="M846.95,-430.26C632.58,-424.01 0,-398.34 0,-313 0,-313 0,-313 0,-245 0,-196.2 47.18,-155.45 76.4,-134.88"/>
<polygon fill="#63b8ff" stroke="#63b8ff" points="78.51,-137.68 84.82,-129.17 74.58,-131.89 78.51,-137.68"/>
</a>
</g>
</g>
<!-- Node3 -->
<g id="Node000003" class="node">
<title>Node3</title>
<g id="a_Node000003"><a xlink:href="_name_component_8hpp.html" target="_top" xlink:title=" ">
<polygon fill="white" stroke="#666666" points="1149,-382 961,-382 961,-363 1149,-363 1149,-382"/>
<text text-anchor="middle" x="1055" y="-370" font-family="Helvetica,sans-Serif" font-size="10.00">Components/NameComponent.hpp</text>
</a>
</g>
</g>
<!-- Node1&#45;&gt;Node3 -->
<g id="edge2_Node000001_Node000003" class="edge">
<title>Node1&#45;&gt;Node3</title>
<g id="a_edge2_Node000001_Node000003"><a xlink:title=" ">
<path fill="none" stroke="#63b8ff" d="M950.05,-417.99C972.98,-408.27 1003.24,-395.44 1025.38,-386.06"/>
<polygon fill="#63b8ff" stroke="#63b8ff" points="1026.78,-389.26 1034.62,-382.14 1024.05,-382.82 1026.78,-389.26"/>
</a>
</g>
</g>
<!-- Node8 -->
<g id="Node000008" class="node">
<title>Node8</title>
<g id="a_Node000008"><a xlink:href="_texture_8hpp.html" target="_top" xlink:title=" ">
<polygon fill="white" stroke="#666666" points="1495,-321.5 1349,-321.5 1349,-302.5 1495,-302.5 1495,-321.5"/>
<text text-anchor="middle" x="1422" y="-309.5" font-family="Helvetica,sans-Serif" font-size="10.00">AssetManager/Texture.hpp</text>
</a>
</g>
</g>
<!-- Node1&#45;&gt;Node8 -->
<g id="edge7_Node000001_Node000008" class="edge">
<title>Node1&#45;&gt;Node8</title>
<g id="a_edge7_Node000001_Node000008"><a xlink:title=" ">
<path fill="none" stroke="#63b8ff" d="M987.11,-422.38C1035.9,-414.5 1101.99,-401.44 1158,-382 1175.84,-375.81 1178.2,-369.31 1196,-363 1227.09,-351.98 1311.22,-334.54 1367.6,-323.44"/>
<polygon fill="#63b8ff" stroke="#63b8ff" points="1368.29,-326.87 1377.43,-321.51 1366.95,-320 1368.29,-326.87"/>
</a>
</g>
</g>
<!-- Node13 -->
<g id="Node000013" class="node">
<title>Node13</title>
<g id="a_Node000013"><a xlink:title=" ">
<polygon fill="#e0e0e0" stroke="#999999" points="1291,-382 1205,-382 1205,-363 1291,-363 1291,-382"/>
<text text-anchor="middle" x="1248" y="-370" font-family="Helvetica,sans-Serif" font-size="10.00">UI/Widget.hpp</text>
</a>
</g>
</g>
<!-- Node1&#45;&gt;Node13 -->
<g id="edge14_Node000001_Node000013" class="edge">
<title>Node1&#45;&gt;Node13</title>
<g id="a_edge14_Node000001_Node000013"><a xlink:title=" ">
<path fill="none" stroke="#63b8ff" d="M987.2,-419.59C1049.19,-408.64 1138.24,-392.9 1194.59,-382.94"/>
<polygon fill="#63b8ff" stroke="#63b8ff" points="1195.48,-386.34 1204.72,-381.15 1194.26,-379.44 1195.48,-386.34"/>
</a>
</g>
</g>
<!-- Node14 -->
<g id="Node000014" class="node">
<title>Node14</title>
<g id="a_Node000014"><a xlink:href="_asset_utils_8hpp.html" target="_top" xlink:title=" ">
<polygon fill="white" stroke="#666666" points="889.5,-382 776.5,-382 776.5,-363 889.5,-363 889.5,-382"/>
<text text-anchor="middle" x="833" y="-370" font-family="Helvetica,sans-Serif" font-size="10.00">Utils/AssetUtils.hpp</text>
</a>
</g>
</g>
<!-- Node1&#45;&gt;Node14 -->
<g id="edge15_Node000001_Node000014" class="edge">
<title>Node1&#45;&gt;Node14</title>
<g id="a_edge15_Node000001_Node000014"><a xlink:title=" ">
<path fill="none" stroke="#63b8ff" d="M896.67,-417.84C883.73,-408.83 867.01,-397.18 853.95,-388.09"/>
<polygon fill="#63b8ff" stroke="#63b8ff" points="855.79,-385.11 845.59,-382.27 851.79,-390.85 855.79,-385.11"/>
</a>
</g>
</g>
<!-- Node16 -->
<g id="Node000016" class="node">
<title>Node16</title>
<g id="a_Node000016"><a xlink:href="_registry_8hpp.html" target="_top" xlink:title=" ">
<polygon fill="white" stroke="#666666" points="534,-255.5 436,-255.5 436,-236.5 534,-236.5 534,-255.5"/>
<text text-anchor="middle" x="485" y="-243.5" font-family="Helvetica,sans-Serif" font-size="10.00">ECS/Registry.hpp</text>
</a>
</g>
</g>
<!-- Node1&#45;&gt;Node16 -->
<g id="edge47_Node000001_Node000016" class="edge">
<title>Node1&#45;&gt;Node16</title>
<g id="a_edge47_Node000001_Node000016"><a xlink:title=" ">
<path fill="none" stroke="#63b8ff" d="M846.67,-419.6C774.96,-404.91 662.16,-376.01 575,-327 544.93,-310.09 516.24,-281.75 499.63,-263.73"/>
<polygon fill="#63b8ff" stroke="#63b8ff" points="501.8,-260.9 492.5,-255.81 496.59,-265.58 501.8,-260.9"/>
</a>
</g>
</g>
<!-- Node4 -->
<g id="Node000004" class="node">
<title>Node4</title>
<g id="a_Node000004"><a xlink:title=" ">
<polygon fill="#e0e0e0" stroke="#999999" points="1131,-321.5 1087,-321.5 1087,-302.5 1131,-302.5 1131,-321.5"/>
<text text-anchor="middle" x="1109" y="-309.5" font-family="Helvetica,sans-Serif" font-size="10.00">string</text>
</a>
</g>
</g>
<!-- Node3&#45;&gt;Node4 -->
<g id="edge3_Node000003_Node000004" class="edge">
<title>Node3&#45;&gt;Node4</title>
<g id="a_edge3_Node000003_Node000004"><a xlink:title=" ">
<path fill="none" stroke="#63b8ff" d="M1062.97,-362.87C1071.1,-354.05 1083.93,-340.16 1093.98,-329.27"/>
<polygon fill="#63b8ff" stroke="#63b8ff" points="1096.79,-331.39 1101,-321.67 1091.64,-326.64 1096.79,-331.39"/>
</a>
</g>
</g>
<!-- Node5 -->
<g id="Node000005" class="node">
<title>Node5</title>
<g id="a_Node000005"><a xlink:href="_base_component_8hpp.html" target="_top" xlink:title=" ">
<polygon fill="white" stroke="#666666" points="1331,-321.5 1149,-321.5 1149,-302.5 1331,-302.5 1331,-321.5"/>
<text text-anchor="middle" x="1240" y="-309.5" font-family="Helvetica,sans-Serif" font-size="10.00">Components/BaseComponent.hpp</text>
</a>
</g>
</g>
<!-- Node3&#45;&gt;Node5 -->
<g id="edge4_Node000003_Node000005" class="edge">
<title>Node3&#45;&gt;Node5</title>
<g id="a_edge4_Node000003_Node000005"><a xlink:title=" ">
<path fill="none" stroke="#63b8ff" d="M1081.9,-362.99C1113.96,-352.86 1167.68,-335.87 1203.48,-324.55"/>
<polygon fill="#63b8ff" stroke="#63b8ff" points="1204.59,-327.87 1213.07,-321.52 1202.48,-321.19 1204.59,-327.87"/>
</a>
</g>
</g>
<!-- Node6 -->
<g id="Node000006" class="node">
<title>Node6</title>
<g id="a_Node000006"><a xlink:href="_types_8hpp.html" target="_top" xlink:title=" ">
<polygon fill="white" stroke="#666666" points="1173.5,-255.5 1060.5,-255.5 1060.5,-236.5 1173.5,-236.5 1173.5,-255.5"/>
<text text-anchor="middle" x="1117" y="-243.5" font-family="Helvetica,sans-Serif" font-size="10.00">Common/Types.hpp</text>
</a>
</g>
</g>
<!-- Node5&#45;&gt;Node6 -->
<g id="edge5_Node000005_Node000006" class="edge">
<title>Node5&#45;&gt;Node6</title>
<g id="a_edge5_Node000005_Node000006"><a xlink:title=" ">
<path fill="none" stroke="#63b8ff" d="M1223.41,-302.37C1202.69,-291.59 1167,-273.02 1142.72,-260.38"/>
<polygon fill="#63b8ff" stroke="#63b8ff" points="1144.2,-257.21 1133.72,-255.7 1140.97,-263.42 1144.2,-257.21"/>
</a>
</g>
</g>
<!-- Node7 -->
<g id="Node000007" class="node">
<title>Node7</title>
<g id="a_Node000007"><a xlink:title=" ">
<polygon fill="#e0e0e0" stroke="#999999" points="905,-129 837,-129 837,-110 905,-110 905,-129"/>
<text text-anchor="middle" x="871" y="-117" font-family="Helvetica,sans-Serif" font-size="10.00">filesystem</text>
</a>
</g>
</g>
<!-- Node6&#45;&gt;Node7 -->
<g id="edge6_Node000006_Node000007" class="edge">
<title>Node6&#45;&gt;Node7</title>
<g id="a_edge6_Node000006_Node000007"><a xlink:title=" ">
<path fill="none" stroke="#63b8ff" d="M1079.42,-236.44C1028.01,-224.51 940.64,-203.43 928,-195 906.37,-180.57 889.55,-155.16 879.95,-138.08"/>
<polygon fill="#63b8ff" stroke="#63b8ff" points="882.96,-136.29 875.15,-129.13 876.79,-139.6 882.96,-136.29"/>
</a>
</g>
</g>
<!-- Node9 -->
<g id="Node000009" class="node">
<title>Node9</title>
<g id="a_Node000009"><a xlink:title=" ">
<polygon fill="#e0e0e0" stroke="#999999" points="1008.5,-189.5 937.5,-189.5 937.5,-170.5 1008.5,-170.5 1008.5,-189.5"/>
<text text-anchor="middle" x="973" y="-177.5" font-family="Helvetica,sans-Serif" font-size="10.00">glad/glad.h</text>
</a>
</g>
</g>
<!-- Node8&#45;&gt;Node9 -->
<g id="edge8_Node000008_Node000009" class="edge">
<title>Node8&#45;&gt;Node9</title>
<g id="a_edge8_Node000008_Node000009"><a xlink:title=" ">
<path fill="none" stroke="#63b8ff" d="M1379.17,-302.44C1329.06,-292.05 1249.47,-274.28 1222,-261 1202.31,-251.48 1202.84,-240.21 1183,-231 1114.53,-199.21 1089.94,-214.47 1017,-195 1014.17,-194.24 1011.25,-193.42 1008.32,-192.56"/>
<polygon fill="#63b8ff" stroke="#63b8ff" points="1009.06,-189.12 998.47,-189.55 1007.02,-195.82 1009.06,-189.12"/>
</a>
</g>
</g>
<!-- Node10 -->
<g id="Node000010" class="node">
<title>Node10</title>
<g id="a_Node000010"><a xlink:title=" ">
<polygon fill="#e0e0e0" stroke="#999999" points="1468,-255.5 1390,-255.5 1390,-236.5 1468,-236.5 1468,-255.5"/>
<text text-anchor="middle" x="1429" y="-243.5" font-family="Helvetica,sans-Serif" font-size="10.00">glm/glm.hpp</text>
</a>
</g>
</g>
<!-- Node8&#45;&gt;Node10 -->
<g id="edge9_Node000008_Node000010" class="edge">
<title>Node8&#45;&gt;Node10</title>
<g id="a_edge9_Node000008_Node000010"><a xlink:title=" ">
<path fill="none" stroke="#63b8ff" d="M1422.94,-302.37C1423.96,-293.07 1425.61,-277.98 1426.93,-265.9"/>
<polygon fill="#63b8ff" stroke="#63b8ff" points="1430.42,-266.23 1428.03,-255.91 1423.46,-265.47 1430.42,-266.23"/>
</a>
</g>
</g>
<!-- Node11 -->
<g id="Node000011" class="node">
<title>Node11</title>
<g id="a_Node000011"><a xlink:href="_image_8hpp.html" target="_top" xlink:title=" ">
<polygon fill="white" stroke="#666666" points="1371.5,-255.5 1230.5,-255.5 1230.5,-236.5 1371.5,-236.5 1371.5,-255.5"/>
<text text-anchor="middle" x="1301" y="-243.5" font-family="Helvetica,sans-Serif" font-size="10.00">AssetManager/Image.hpp</text>
</a>
</g>
</g>
<!-- Node8&#45;&gt;Node11 -->
<g id="edge10_Node000008_Node000011" class="edge">
<title>Node8&#45;&gt;Node11</title>
<g id="a_edge10_Node000008_Node000011"><a xlink:title=" ">
<path fill="none" stroke="#63b8ff" d="M1405.68,-302.37C1385.29,-291.59 1350.19,-273.02 1326.3,-260.38"/>
<polygon fill="#63b8ff" stroke="#63b8ff" points="1327.92,-257.28 1317.45,-255.7 1324.65,-263.47 1327.92,-257.28"/>
</a>
</g>
</g>
<!-- Node11&#45;&gt;Node7 -->
<g id="edge11_Node000011_Node000007" class="edge">
<title>Node11&#45;&gt;Node7</title>
<g id="a_edge11_Node000011_Node000007"><a xlink:title=" ">
<path fill="none" stroke="#63b8ff" d="M1294.42,-236.42C1280.89,-219.49 1248.08,-181.93 1211,-165 1159.24,-141.36 995.19,-128.21 915.42,-123.07"/>
<polygon fill="#63b8ff" stroke="#63b8ff" points="915.4,-119.56 905.2,-122.42 914.96,-126.55 915.4,-119.56"/>
</a>
</g>
</g>
<!-- Node12 -->
<g id="Node000012" class="node">
<title>Node12</title>
<g id="a_Node000012"><a xlink:href="_path_constructible_asset_8hpp.html" target="_top" xlink:title=" ">
<polygon fill="white" stroke="#666666" points="1201.5,-195 1026.5,-195 1026.5,-165 1201.5,-165 1201.5,-195"/>
<text text-anchor="start" x="1034.5" y="-183" font-family="Helvetica,sans-Serif" font-size="10.00">AssetManager/PathConstructible</text>
<text text-anchor="middle" x="1114" y="-172" font-family="Helvetica,sans-Serif" font-size="10.00">Asset.hpp</text>
</a>
</g>
</g>
<!-- Node11&#45;&gt;Node12 -->
<g id="edge12_Node000011_Node000012" class="edge">
<title>Node11&#45;&gt;Node12</title>
<g id="a_edge12_Node000011_Node000012"><a xlink:title=" ">
<path fill="none" stroke="#63b8ff" d="M1275.78,-236.37C1247.53,-226.7 1201,-210.77 1165.07,-198.48"/>
<polygon fill="#63b8ff" stroke="#63b8ff" points="1165.84,-195.04 1155.24,-195.12 1163.57,-201.67 1165.84,-195.04"/>
</a>
</g>
</g>
<!-- Node12&#45;&gt;Node7 -->
<g id="edge13_Node000012_Node000007" class="edge">
<title>Node12&#45;&gt;Node7</title>
<g id="a_edge13_Node000012_Node000007"><a xlink:title=" ">
<path fill="none" stroke="#63b8ff" d="M1055.8,-164.99C1012.53,-154.57 954.39,-140.58 914.97,-131.09"/>
<polygon fill="#63b8ff" stroke="#63b8ff" points="915.66,-127.65 905.12,-128.71 914.02,-134.46 915.66,-127.65"/>
</a>
</g>
</g>
<!-- Node14&#45;&gt;Node6 -->
<g id="edge38_Node000014_Node000006" class="edge">
<title>Node14&#45;&gt;Node6</title>
<g id="a_edge38_Node000014_Node000006"><a xlink:title=" ">
<path fill="none" stroke="#63b8ff" d="M889.74,-368.28C933.21,-363.76 993.43,-352.93 1040,-327 1067.95,-311.43 1092.02,-282.43 1105.5,-263.95"/>
<polygon fill="#63b8ff" stroke="#63b8ff" points="1108.48,-265.79 1111.39,-255.6 1102.76,-261.76 1108.48,-265.79"/>
</a>
</g>
</g>
<!-- Node14&#45;&gt;Node7 -->
<g id="edge16_Node000014_Node000007" class="edge">
<title>Node14&#45;&gt;Node7</title>
<g id="a_edge16_Node000014_Node000007"><a xlink:title=" ">
<path fill="none" stroke="#63b8ff" d="M834.31,-362.86C839.73,-327.03 860.53,-189.66 868.17,-139.22"/>
<polygon fill="#63b8ff" stroke="#63b8ff" points="871.66,-139.51 869.7,-129.1 864.74,-138.47 871.66,-139.51"/>
</a>
</g>
</g>
<!-- Node15 -->
<g id="Node000015" class="node">
<title>Node15</title>
<g id="a_Node000015"><a xlink:href="_asset_8hpp.html" target="_top" xlink:title=" ">
<polygon fill="white" stroke="#666666" points="804.5,-321.5 667.5,-321.5 667.5,-302.5 804.5,-302.5 804.5,-321.5"/>
<text text-anchor="middle" x="736" y="-309.5" font-family="Helvetica,sans-Serif" font-size="10.00">AssetManager/Asset.hpp</text>
</a>
</g>
</g>
<!-- Node14&#45;&gt;Node15 -->
<g id="edge17_Node000014_Node000015" class="edge">
<title>Node14&#45;&gt;Node15</title>
<g id="a_edge17_Node000014_Node000015"><a xlink:title=" ">
<path fill="none" stroke="#63b8ff" d="M818.69,-362.87C803,-353.41 777.6,-338.09 759.09,-326.92"/>
<polygon fill="#63b8ff" stroke="#63b8ff" points="760.74,-323.83 750.37,-321.67 757.13,-329.83 760.74,-323.83"/>
</a>
</g>
</g>
<!-- Node14&#45;&gt;Node16 -->
<g id="edge39_Node000014_Node000016" class="edge">
<title>Node14&#45;&gt;Node16</title>
<g id="a_edge39_Node000014_Node000016"><a xlink:title=" ">
<path fill="none" stroke="#63b8ff" d="M783.68,-362.95C745.45,-355.56 691.5,-343.47 646,-327 594.94,-308.51 538.91,-278.2 508.26,-260.67"/>
<polygon fill="#63b8ff" stroke="#63b8ff" points="510,-257.64 499.59,-255.67 506.5,-263.7 510,-257.64"/>
</a>
</g>
</g>
<!-- Node28 -->
<g id="Node000028" class="node">
<title>Node28</title>
<g id="a_Node000028"><a xlink:href="_directory_component_8hpp.html" target="_top" xlink:title=" ">
<polygon fill="white" stroke="#666666" points="746,-261 576,-261 576,-231 746,-231 746,-261"/>
<text text-anchor="start" x="584" y="-249" font-family="Helvetica,sans-Serif" font-size="10.00">Components/AssetComponents</text>
<text text-anchor="middle" x="661" y="-238" font-family="Helvetica,sans-Serif" font-size="10.00">/DirectoryComponent.hpp</text>
</a>
</g>
</g>
<!-- Node14&#45;&gt;Node28 -->
<g id="edge40_Node000014_Node000028" class="edge">
<title>Node14&#45;&gt;Node28</title>
<g id="a_edge40_Node000014_Node000028"><a xlink:title=" ">
<path fill="none" stroke="#63b8ff" d="M776.16,-364.61C730.8,-357.81 672.53,-345.68 658,-327 645.85,-311.37 648.15,-288.37 652.58,-271.03"/>
<polygon fill="#63b8ff" stroke="#63b8ff" points="656.04,-271.67 655.5,-261.09 649.32,-269.7 656.04,-271.67"/>
</a>
</g>
</g>
<!-- Node29 -->
<g id="Node000029" class="node">
<title>Node29</title>
<g id="a_Node000029"><a xlink:href="_asset_component_8hpp.html" target="_top" xlink:title=" ">
<polygon fill="white" stroke="#666666" points="1031,-327 861,-327 861,-297 1031,-297 1031,-327"/>
<text text-anchor="start" x="869" y="-315" font-family="Helvetica,sans-Serif" font-size="10.00">Components/AssetComponents</text>
<text text-anchor="middle" x="946" y="-304" font-family="Helvetica,sans-Serif" font-size="10.00">/AssetComponent.hpp</text>
</a>
</g>
</g>
<!-- Node14&#45;&gt;Node29 -->
<g id="edge42_Node000014_Node000029" class="edge">
<title>Node14&#45;&gt;Node29</title>
<g id="a_edge42_Node000014_Node000029"><a xlink:title=" ">
<path fill="none" stroke="#63b8ff" d="M849.67,-362.87C865.43,-354.71 889.6,-342.2 909.79,-331.75"/>
<polygon fill="#63b8ff" stroke="#63b8ff" points="911.46,-334.82 918.74,-327.11 908.25,-328.6 911.46,-334.82"/>
</a>
</g>
</g>
<!-- Node15&#45;&gt;Node7 -->
<g id="edge18_Node000015_Node000007" class="edge">
<title>Node15&#45;&gt;Node7</title>
<g id="a_edge18_Node000015_Node000007"><a xlink:title=" ">
<path fill="none" stroke="#63b8ff" d="M739.59,-302.46C749.73,-278.92 780.4,-211.78 819,-165 828.22,-153.83 840.44,-143.21 850.73,-135.15"/>
<polygon fill="#63b8ff" stroke="#63b8ff" points="852.95,-137.86 858.8,-129.02 848.71,-132.28 852.95,-137.86"/>
</a>
</g>
</g>
<!-- Node15&#45;&gt;Node16 -->
<g id="edge19_Node000015_Node000016" class="edge">
<title>Node15&#45;&gt;Node16</title>
<g id="a_edge19_Node000015_Node000016"><a xlink:title=" ">
<path fill="none" stroke="#63b8ff" d="M702.41,-302.44C657.42,-290.96 577.54,-270.6 528.15,-258"/>
<polygon fill="#63b8ff" stroke="#63b8ff" points="528.95,-254.59 518.39,-255.51 527.22,-261.38 528.95,-254.59"/>
</a>
</g>
</g>
<!-- Node17 -->
<g id="Node000017" class="node">
<title>Node17</title>
<g id="a_Node000017"><a xlink:title=" ">
<polygon fill="#e0e0e0" stroke="#999999" points="236,-129 150,-129 150,-110 236,-110 236,-129"/>
<text text-anchor="middle" x="193" y="-117" font-family="Helvetica,sans-Serif" font-size="10.00">unordered_set</text>
</a>
</g>
</g>
<!-- Node16&#45;&gt;Node17 -->
<g id="edge20_Node000016_Node000017" class="edge">
<title>Node16&#45;&gt;Node17</title>
<g id="a_edge20_Node000016_Node000017"><a xlink:title=" ">
<path fill="none" stroke="#63b8ff" d="M435.83,-242.08C338.21,-235.77 127.44,-219.45 106,-195 97.21,-184.97 99.04,-176.37 106,-165 115.4,-149.64 131.96,-139.36 148.14,-132.6"/>
<polygon fill="#63b8ff" stroke="#63b8ff" points="149.46,-135.84 157.56,-129.01 146.96,-129.3 149.46,-135.84"/>
</a>
</g>
</g>
<!-- Node18 -->
<g id="Node000018" class="node">
<title>Node18</title>
<g id="a_Node000018"><a xlink:href="_logger_8hpp.html" target="_top" xlink:title=" ">
<polygon fill="white" stroke="#666666" points="728.5,-189.5 611.5,-189.5 611.5,-170.5 728.5,-170.5 728.5,-189.5"/>
<text text-anchor="middle" x="670" y="-177.5" font-family="Helvetica,sans-Serif" font-size="10.00">Common/Logger.hpp</text>
</a>
</g>
</g>
<!-- Node16&#45;&gt;Node18 -->
<g id="edge21_Node000016_Node000018" class="edge">
<title>Node16&#45;&gt;Node18</title>
<g id="a_edge21_Node000016_Node000018"><a xlink:title=" ">
<path fill="none" stroke="#63b8ff" d="M509.95,-236.37C542.31,-225.17 598.94,-205.58 635.43,-192.96"/>
<polygon fill="#63b8ff" stroke="#63b8ff" points="636.84,-196.17 645.15,-189.6 634.56,-189.56 636.84,-196.17"/>
</a>
</g>
</g>
<!-- Node21 -->
<g id="Node000021" class="node">
<title>Node21</title>
<g id="a_Node000021"><a xlink:href="_entity_8hpp.html" target="_top" xlink:title=" ">
<polygon fill="white" stroke="#666666" points="429,-74 343,-74 343,-55 429,-55 429,-74"/>
<text text-anchor="middle" x="386" y="-62" font-family="Helvetica,sans-Serif" font-size="10.00">ECS/Entity.hpp</text>
</a>
</g>
</g>
<!-- Node16&#45;&gt;Node21 -->
<g id="edge24_Node000016_Node000021" class="edge">
<title>Node16&#45;&gt;Node21</title>
<g id="a_edge24_Node000016_Node000021"><a xlink:title=" ">
<path fill="none" stroke="#63b8ff" d="M435.69,-243.89C344.07,-240.99 151.86,-230.71 97,-195 68.25,-176.29 66.23,-162.04 57,-129 54.73,-120.87 51.44,-116.36 57,-110 92.18,-69.74 249.14,-64.46 332.91,-64.61"/>
<polygon fill="#63b8ff" stroke="#63b8ff" points="332.98,-68.11 342.99,-64.65 333.01,-61.11 332.98,-68.11"/>
</a>
</g>
</g>
<!-- Node23 -->
<g id="Node000023" class="node">
<title>Node23</title>
<g id="a_Node000023"><a xlink:href="_entity_hierarchy_8hpp.html" target="_top" xlink:title=" ">
<polygon fill="white" stroke="#666666" points="249,-189.5 115,-189.5 115,-170.5 249,-170.5 249,-189.5"/>
<text text-anchor="middle" x="182" y="-177.5" font-family="Helvetica,sans-Serif" font-size="10.00">ECS/EntityHierarchy.hpp</text>
</a>
</g>
</g>
<!-- Node16&#45;&gt;Node23 -->
<g id="edge26_Node000016_Node000023" class="edge">
<title>Node16&#45;&gt;Node23</title>
<g id="a_edge26_Node000016_Node000023"><a xlink:title=" ">
<path fill="none" stroke="#63b8ff" d="M444.45,-236.44C389.57,-224.84 291.7,-204.17 232.23,-191.61"/>
<polygon fill="#63b8ff" stroke="#63b8ff" points="232.82,-188.16 222.31,-189.51 231.37,-195.01 232.82,-188.16"/>
</a>
</g>
</g>
<!-- Node25 -->
<g id="Node000025" class="node">
<title>Node25</title>
<g id="a_Node000025"><a xlink:href="_entity_provider_8hpp.html" target="_top" xlink:title="Manages a pool of unused entity identifiers and provides mechanisms for requesting and removing them.">
<polygon fill="white" stroke="#666666" points="532,-129 404,-129 404,-110 532,-110 532,-129"/>
<text text-anchor="middle" x="468" y="-117" font-family="Helvetica,sans-Serif" font-size="10.00">ECS/EntityProvider.hpp</text>
</a>
</g>
</g>
<!-- Node16&#45;&gt;Node25 -->
<g id="edge31_Node000016_Node000025" class="edge">
<title>Node16&#45;&gt;Node25</title>
<g id="a_edge31_Node000016_Node000025"><a xlink:title=" ">
<path fill="none" stroke="#63b8ff" d="M509.97,-236.49C528.27,-228.79 551.81,-215.46 563,-195 569.4,-183.3 570.15,-176.25 563,-165 553.12,-149.45 536.21,-139.25 519.38,-132.58"/>
<polygon fill="#63b8ff" stroke="#63b8ff" points="520.12,-129.13 509.53,-129.06 517.76,-135.72 520.12,-129.13"/>
</a>
</g>
</g>
<!-- Node26 -->
<g id="Node000026" class="node">
<title>Node26</title>
<g id="a_Node000026"><a xlink:href="_sparse_set_8hpp.html" target="_top" xlink:title=" ">
<polygon fill="white" stroke="#666666" points="375,-189.5 267,-189.5 267,-170.5 375,-170.5 375,-189.5"/>
<text text-anchor="middle" x="321" y="-177.5" font-family="Helvetica,sans-Serif" font-size="10.00">ECS/SparseSet.hpp</text>
</a>
</g>
</g>
<!-- Node16&#45;&gt;Node26 -->
<g id="edge35_Node000016_Node000026" class="edge">
<title>Node16&#45;&gt;Node26</title>
<g id="a_edge35_Node000016_Node000026"><a xlink:title=" ">
<path fill="none" stroke="#63b8ff" d="M462.88,-236.37C434.44,-225.27 384.85,-205.92 352.48,-193.28"/>
<polygon fill="#63b8ff" stroke="#63b8ff" points="353.62,-189.97 343.03,-189.6 351.07,-196.49 353.62,-189.97"/>
</a>
</g>
</g>
<!-- Node27 -->
<g id="Node000027" class="node">
<title>Node27</title>
<g id="a_Node000027"><a xlink:href="_singleton_component_8hpp.html" target="_top" xlink:title=" ">
<polygon fill="white" stroke="#666666" points="554.5,-189.5 393.5,-189.5 393.5,-170.5 554.5,-170.5 554.5,-189.5"/>
<text text-anchor="middle" x="474" y="-177.5" font-family="Helvetica,sans-Serif" font-size="10.00">ECS/SingletonComponent.hpp</text>
</a>
</g>
</g>
<!-- Node16&#45;&gt;Node27 -->
<g id="edge37_Node000016_Node000027" class="edge">
<title>Node16&#45;&gt;Node27</title>
<g id="a_edge37_Node000016_Node000027"><a xlink:title=" ">
<path fill="none" stroke="#63b8ff" d="M483.52,-236.37C481.92,-227.07 479.32,-211.98 477.25,-199.9"/>
<polygon fill="#63b8ff" stroke="#63b8ff" points="480.67,-199.17 475.53,-189.91 473.78,-200.35 480.67,-199.17"/>
</a>
</g>
</g>
<!-- Node19 -->
<g id="Node000019" class="node">
<title>Node19</title>
<g id="a_Node000019"><a xlink:title=" ">
<polygon fill="#e0e0e0" stroke="#999999" points="642,-129 594,-129 594,-110 642,-110 642,-129"/>
<text text-anchor="middle" x="618" y="-117" font-family="Helvetica,sans-Serif" font-size="10.00">mutex</text>
</a>
</g>
</g>
<!-- Node18&#45;&gt;Node19 -->
<g id="edge22_Node000018_Node000019" class="edge">
<title>Node18&#45;&gt;Node19</title>
<g id="a_edge22_Node000018_Node000019"><a xlink:title=" ">
<path fill="none" stroke="#63b8ff" d="M662.33,-170.37C654.49,-161.55 642.14,-147.66 632.46,-136.77"/>
<polygon fill="#63b8ff" stroke="#63b8ff" points="634.96,-134.32 625.7,-129.17 629.73,-138.97 634.96,-134.32"/>
</a>
</g>
</g>
<!-- Node20 -->
<g id="Node000020" class="node">
<title>Node20</title>
<g id="a_Node000020"><a xlink:title=" ">
<polygon fill="#e0e0e0" stroke="#999999" points="609.5,-74 562.5,-74 562.5,-55 609.5,-55 609.5,-74"/>
<text text-anchor="middle" x="586" y="-62" font-family="Helvetica,sans-Serif" font-size="10.00">queue</text>
</a>
</g>
</g>
<!-- Node18&#45;&gt;Node20 -->
<g id="edge23_Node000018_Node000020" class="edge">
<title>Node18&#45;&gt;Node20</title>
<g id="a_edge23_Node000018_Node000020"><a xlink:title=" ">
<path fill="none" stroke="#63b8ff" d="M669.49,-170.11C668.28,-156.11 664.28,-128.61 651,-110 641.67,-96.92 627.21,-86.47 614.3,-79"/>
<polygon fill="#63b8ff" stroke="#63b8ff" points="615.72,-75.79 605.27,-74.08 612.38,-81.94 615.72,-75.79"/>
</a>
</g>
</g>
<!-- Node22 -->
<g id="Node000022" class="node">
<title>Node22</title>
<g id="a_Node000022"><a xlink:title=" ">
<polygon fill="#e0e0e0" stroke="#999999" points="447.5,-19 394.5,-19 394.5,0 447.5,0 447.5,-19"/>
<text text-anchor="middle" x="421" y="-7" font-family="Helvetica,sans-Serif" font-size="10.00">stdlib.h</text>
</a>
</g>
</g>
<!-- Node21&#45;&gt;Node22 -->
<g id="edge25_Node000021_Node000022" class="edge">
<title>Node21&#45;&gt;Node22</title>
<g id="a_edge25_Node000021_Node000022"><a xlink:title=" ">
<path fill="none" stroke="#63b8ff" d="M391.78,-54.75C396.62,-47.42 403.68,-36.73 409.64,-27.7"/>
<polygon fill="#63b8ff" stroke="#63b8ff" points="412.74,-29.36 415.33,-19.09 406.9,-25.5 412.74,-29.36"/>
</a>
</g>
</g>
<!-- Node23&#45;&gt;Node2 -->
<g id="edge27_Node000023_Node000002" class="edge">
<title>Node23&#45;&gt;Node2</title>
<g id="a_edge27_Node000023_Node000002"><a xlink:title=" ">
<path fill="none" stroke="#63b8ff" d="M169.75,-170.37C156.64,-161.12 135.58,-146.28 119.85,-135.19"/>
<polygon fill="#63b8ff" stroke="#63b8ff" points="121.49,-132.07 111.3,-129.17 117.45,-137.79 121.49,-132.07"/>
</a>
</g>
</g>
<!-- Node23&#45;&gt;Node17 -->
<g id="edge28_Node000023_Node000017" class="edge">
<title>Node23&#45;&gt;Node17</title>
<g id="a_edge28_Node000023_Node000017"><a xlink:title=" ">
<path fill="none" stroke="#63b8ff" d="M183.62,-170.37C185.17,-162.16 187.54,-149.54 189.51,-139.05"/>
<polygon fill="#63b8ff" stroke="#63b8ff" points="192.96,-139.64 191.37,-129.17 186.08,-138.35 192.96,-139.64"/>
</a>
</g>
</g>
<!-- Node23&#45;&gt;Node21 -->
<g id="edge30_Node000023_Node000021" class="edge">
<title>Node23&#45;&gt;Node21</title>
<g id="a_edge30_Node000023_Node000021"><a xlink:title=" ">
<path fill="none" stroke="#63b8ff" d="M226.89,-170.48C271.68,-161.23 336.54,-145.54 356,-129 369.62,-117.42 377.48,-98.27 381.71,-84.03"/>
<polygon fill="#63b8ff" stroke="#63b8ff" points="385.11,-84.86 384.27,-74.29 378.34,-83.07 385.11,-84.86"/>
</a>
</g>
</g>
<!-- Node24 -->
<g id="Node000024" class="node">
<title>Node24</title>
<g id="a_Node000024"><a xlink:title=" ">
<polygon fill="#e0e0e0" stroke="#999999" points="347.5,-129 254.5,-129 254.5,-110 347.5,-110 347.5,-129"/>
<text text-anchor="middle" x="301" y="-117" font-family="Helvetica,sans-Serif" font-size="10.00">unordered_map</text>
</a>
</g>
</g>
<!-- Node23&#45;&gt;Node24 -->
<g id="edge29_Node000023_Node000024" class="edge">
<title>Node23&#45;&gt;Node24</title>
<g id="a_edge29_Node000023_Node000024"><a xlink:title=" ">
<path fill="none" stroke="#63b8ff" d="M199.3,-170.49C219.05,-160.79 251.55,-144.81 274.49,-133.53"/>
<polygon fill="#63b8ff" stroke="#63b8ff" points="276.25,-136.57 283.68,-129.02 273.16,-130.29 276.25,-136.57"/>
</a>
</g>
</g>
<!-- Node25&#45;&gt;Node20 -->
<g id="edge33_Node000025_Node000020" class="edge">
<title>Node25&#45;&gt;Node20</title>
<g id="a_edge33_Node000025_Node000020"><a xlink:title=" ">
<path fill="none" stroke="#63b8ff" d="M486.96,-109.98C506.03,-101.42 535.66,-88.11 557.55,-78.28"/>
<polygon fill="#63b8ff" stroke="#63b8ff" points="559.01,-81.46 566.7,-74.17 556.14,-75.07 559.01,-81.46"/>
</a>
</g>
</g>
<!-- Node25&#45;&gt;Node21 -->
<g id="edge34_Node000025_Node000021" class="edge">
<title>Node25&#45;&gt;Node21</title>
<g id="a_edge34_Node000025_Node000021"><a xlink:title=" ">
<path fill="none" stroke="#63b8ff" d="M454.83,-109.98C442.23,-101.84 423,-89.41 408.06,-79.76"/>
<polygon fill="#63b8ff" stroke="#63b8ff" points="409.71,-76.66 399.41,-74.17 405.91,-82.54 409.71,-76.66"/>
</a>
</g>
</g>
<!-- Node25&#45;&gt;Node22 -->
<g id="edge32_Node000025_Node000022" class="edge">
<title>Node25&#45;&gt;Node22</title>
<g id="a_edge32_Node000025_Node000022"><a xlink:title=" ">
<path fill="none" stroke="#63b8ff" d="M464.15,-109.66C456.47,-92.01 439.1,-52.09 428.89,-28.64"/>
<polygon fill="#63b8ff" stroke="#63b8ff" points="431.97,-26.93 424.77,-19.16 425.55,-29.72 431.97,-26.93"/>
</a>
</g>
</g>
<!-- Node26&#45;&gt;Node25 -->
<g id="edge36_Node000026_Node000025" class="edge">
<title>Node26&#45;&gt;Node25</title>
<g id="a_edge36_Node000026_Node000025"><a xlink:title=" ">
<path fill="none" stroke="#63b8ff" d="M342.38,-170.49C367.31,-160.57 408.72,-144.09 437.14,-132.78"/>
<polygon fill="#63b8ff" stroke="#63b8ff" points="438.6,-135.97 446.6,-129.02 436.01,-129.46 438.6,-135.97"/>
</a>
</g>
</g>
<!-- Node28&#45;&gt;Node7 -->
<g id="edge41_Node000028_Node000007" class="edge">
<title>Node28&#45;&gt;Node7</title>
<g id="a_edge41_Node000028_Node000007"><a xlink:title=" ">
<path fill="none" stroke="#63b8ff" d="M682.68,-230.87C697.92,-220.91 718.76,-207.22 737,-195 756.66,-181.83 760.56,-176.94 781,-165 800.94,-153.35 824.34,-141.84 842.28,-133.45"/>
<polygon fill="#63b8ff" stroke="#63b8ff" points="844.03,-136.5 851.63,-129.12 841.09,-130.14 844.03,-136.5"/>
</a>
</g>
</g>
<!-- Node29&#45;&gt;Node7 -->
<g id="edge43_Node000029_Node000007" class="edge">
<title>Node29&#45;&gt;Node7</title>
<g id="a_edge43_Node000029_Node000007"><a xlink:title=" ">
<path fill="none" stroke="#63b8ff" d="M923.59,-296.84C911.61,-288.04 897.76,-275.62 890,-261 869,-221.45 868.25,-167.15 869.58,-139.05"/>
<polygon fill="#63b8ff" stroke="#63b8ff" points="873.07,-139.22 870.2,-129.03 866.09,-138.79 873.07,-139.22"/>
</a>
</g>
</g>
<!-- Node30 -->
<g id="Node000030" class="node">
<title>Node30</title>
<g id="a_Node000030"><a xlink:href="_shader_8hpp.html" target="_top" xlink:title=" ">
<polygon fill="white" stroke="#666666" points="1042.5,-255.5 899.5,-255.5 899.5,-236.5 1042.5,-236.5 1042.5,-255.5"/>
<text text-anchor="middle" x="971" y="-243.5" font-family="Helvetica,sans-Serif" font-size="10.00">AssetManager/Shader.hpp</text>
</a>
</g>
</g>
<!-- Node29&#45;&gt;Node30 -->
<g id="edge44_Node000029_Node000030" class="edge">
<title>Node29&#45;&gt;Node30</title>
<g id="a_edge44_Node000029_Node000030"><a xlink:title=" ">
<path fill="none" stroke="#63b8ff" d="M951.55,-296.8C955.18,-287.5 959.96,-275.27 963.87,-265.26"/>
<polygon fill="#63b8ff" stroke="#63b8ff" points="967.17,-266.43 967.55,-255.84 960.65,-263.89 967.17,-266.43"/>
</a>
</g>
</g>
<!-- Node30&#45;&gt;Node9 -->
<g id="edge46_Node000030_Node000009" class="edge">
<title>Node30&#45;&gt;Node9</title>
<g id="a_edge46_Node000030_Node000009"><a xlink:title=" ">
<path fill="none" stroke="#63b8ff" d="M971.27,-236.37C971.56,-227.16 972.02,-212.29 972.4,-200.27"/>
<polygon fill="#63b8ff" stroke="#63b8ff" points="975.91,-200.01 972.72,-189.91 968.91,-199.79 975.91,-200.01"/>
</a>
</g>
</g>
<!-- Node30&#45;&gt;Node12 -->
<g id="edge45_Node000030_Node000012" class="edge">
<title>Node30&#45;&gt;Node12</title>
<g id="a_edge45_Node000030_Node000012"><a xlink:title=" ">
<path fill="none" stroke="#63b8ff" d="M990.29,-236.37C1011.43,-226.91 1045.96,-211.45 1073.17,-199.27"/>
<polygon fill="#63b8ff" stroke="#63b8ff" points="1074.76,-202.4 1082.46,-195.12 1071.9,-196.01 1074.76,-202.4"/>
</a>
</g>
</g>
</g>
</svg>
