<?xml version="1.0" encoding="UTF-8" standalone="no"?>
<!DOCTYPE svg PUBLIC "-//W3C//DTD SVG 1.1//EN"
 "http://www.w3.org/Graphics/SVG/1.1/DTD/svg11.dtd">
<!-- Generated by graphviz version 2.43.0 (0)
 -->
<!-- Title: src/ui/widgets/FilesystemWidget.cpp Pages: 1 -->
<svg width="1021pt" height="207pt"
 viewBox="0.00 0.00 1021.00 207.00" xmlns="http://www.w3.org/2000/svg" xmlns:xlink="http://www.w3.org/1999/xlink">
<g id="graph0" class="graph" transform="scale(1 1) rotate(0) translate(4 203)">
<title>src/ui/widgets/FilesystemWidget.cpp</title>
<polygon fill="white" stroke="transparent" points="-4,4 -4,-203 1017,-203 1017,4 -4,4"/>
<!-- Node1 -->
<g id="node1" class="node">
<title>Node1</title>
<g id="a_node1"><a xlink:title=" ">
<polygon fill="#bfbfbf" stroke="black" points="340,-168.5 340,-198.5 480,-198.5 480,-168.5 340,-168.5"/>
<text text-anchor="start" x="348" y="-186.5" font-family="Helvetica,sans-Serif" font-size="10.00">src/ui/widgets/Filesystem</text>
<text text-anchor="middle" x="410" y="-175.5" font-family="Helvetica,sans-Serif" font-size="10.00">Widget.cpp</text>
</a>
</g>
</g>
<!-- Node2 -->
<g id="node2" class="node">
<title>Node2</title>
<g id="a_node2"><a xlink:title=" ">
<polygon fill="white" stroke="#bfbfbf" points="0,-112.5 0,-131.5 96,-131.5 96,-112.5 0,-112.5"/>
<text text-anchor="middle" x="48" y="-119.5" font-family="Helvetica,sans-Serif" font-size="10.00">imgui_internal.h</text>
</a>
</g>
</g>
<!-- Node1&#45;&gt;Node2 -->
<g id="edge1" class="edge">
<title>Node1&#45;&gt;Node2</title>
<path fill="none" stroke="midnightblue" d="M339.77,-170.96C271.8,-159.78 169.96,-143.05 106.33,-132.59"/>
<polygon fill="midnightblue" stroke="midnightblue" points="106.5,-129.07 96.07,-130.9 105.37,-135.98 106.5,-129.07"/>
</g>
<!-- Node3 -->
<g id="node3" class="node">
<title>Node3</title>
<g id="a_node3"><a xlink:title=" ">
<polygon fill="white" stroke="#bfbfbf" points="114.5,-112.5 114.5,-131.5 167.5,-131.5 167.5,-112.5 114.5,-112.5"/>
<text text-anchor="middle" x="141" y="-119.5" font-family="Helvetica,sans-Serif" font-size="10.00">imgui.h</text>
</a>
</g>
</g>
<!-- Node1&#45;&gt;Node3 -->
<g id="edge2" class="edge">
<title>Node1&#45;&gt;Node3</title>
<path fill="none" stroke="midnightblue" d="M342.58,-168.47C298.35,-159.14 239.02,-146.36 177.59,-132.08"/>
<polygon fill="midnightblue" stroke="midnightblue" points="178.25,-128.64 167.71,-129.78 176.66,-135.46 178.25,-128.64"/>
</g>
<!-- Node4 -->
<g id="node4" class="node">
<title>Node4</title>
<g id="a_node4"><a xlink:title=" ">
<polygon fill="white" stroke="#bfbfbf" points="186,-112.5 186,-131.5 246,-131.5 246,-112.5 186,-112.5"/>
<text text-anchor="middle" x="216" y="-119.5" font-family="Helvetica,sans-Serif" font-size="10.00">iostream</text>
</a>
</g>
</g>
<!-- Node1&#45;&gt;Node4 -->
<g id="edge3" class="edge">
<title>Node1&#45;&gt;Node4</title>
<path fill="none" stroke="midnightblue" d="M364.02,-168.4C330.36,-158.07 285.22,-144.23 253.68,-134.56"/>
<polygon fill="midnightblue" stroke="midnightblue" points="254.53,-131.16 243.95,-131.57 252.48,-137.85 254.53,-131.16"/>
</g>
<!-- Node5 -->
<g id="node5" class="node">
<title>Node5</title>
<g id="a_node5"><a xlink:href="_image_8hpp.html" target="_top" xlink:title=" ">
<polygon fill="white" stroke="black" points="264.5,-112.5 264.5,-131.5 405.5,-131.5 405.5,-112.5 264.5,-112.5"/>
<text text-anchor="middle" x="335" y="-119.5" font-family="Helvetica,sans-Serif" font-size="10.00">AssetManager/Image.hpp</text>
</a>
</g>
</g>
<!-- Node1&#45;&gt;Node5 -->
<g id="edge4" class="edge">
<title>Node1&#45;&gt;Node5</title>
<path fill="none" stroke="midnightblue" d="M392.23,-168.4C380.65,-159.22 365.58,-147.26 353.8,-137.92"/>
<polygon fill="midnightblue" stroke="midnightblue" points="355.92,-135.13 345.91,-131.66 351.57,-140.61 355.92,-135.13"/>
</g>
<!-- Node8 -->
<g id="node8" class="node">
<title>Node8</title>
<g id="a_node8"><a xlink:title=" ">
<polygon fill="white" stroke="#bfbfbf" points="423.5,-112.5 423.5,-131.5 546.5,-131.5 546.5,-112.5 423.5,-112.5"/>
<text text-anchor="middle" x="485" y="-119.5" font-family="Helvetica,sans-Serif" font-size="10.00">UI/Common/Style.hpp</text>
</a>
</g>
</g>
<!-- Node1&#45;&gt;Node8 -->
<g id="edge8" class="edge">
<title>Node1&#45;&gt;Node8</title>
<path fill="none" stroke="midnightblue" d="M427.77,-168.4C439.35,-159.22 454.42,-147.26 466.2,-137.92"/>
<polygon fill="midnightblue" stroke="midnightblue" points="468.43,-140.61 474.09,-131.66 464.08,-135.13 468.43,-140.61"/>
</g>
<!-- Node9 -->
<g id="node9" class="node">
<title>Node9</title>
<g id="a_node9"><a xlink:title=" ">
<polygon fill="white" stroke="#bfbfbf" points="565,-112.5 565,-131.5 627,-131.5 627,-112.5 565,-112.5"/>
<text text-anchor="middle" x="596" y="-119.5" font-family="Helvetica,sans-Serif" font-size="10.00">UI/UI.hpp</text>
</a>
</g>
</g>
<!-- Node1&#45;&gt;Node9 -->
<g id="edge9" class="edge">
<title>Node1&#45;&gt;Node9</title>
<path fill="none" stroke="midnightblue" d="M454.08,-168.4C486.22,-158.12 529.26,-144.35 559.48,-134.68"/>
<polygon fill="midnightblue" stroke="midnightblue" points="560.75,-137.95 569.21,-131.57 558.62,-131.28 560.75,-137.95"/>
</g>
<!-- Node10 -->
<g id="node10" class="node">
<title>Node10</title>
<g id="a_node10"><a xlink:title=" ">
<polygon fill="white" stroke="#bfbfbf" points="645.5,-112.5 645.5,-131.5 812.5,-131.5 812.5,-112.5 645.5,-112.5"/>
<text text-anchor="middle" x="729" y="-119.5" font-family="Helvetica,sans-Serif" font-size="10.00">UI/Widgets/ConsoleWidget.hpp</text>
</a>
</g>
</g>
<!-- Node1&#45;&gt;Node10 -->
<g id="edge10" class="edge">
<title>Node1&#45;&gt;Node10</title>
<path fill="none" stroke="midnightblue" d="M480.01,-169.44C538.07,-158.61 619.53,-143.42 673.25,-133.4"/>
<polygon fill="midnightblue" stroke="midnightblue" points="674.09,-136.8 683.28,-131.53 672.81,-129.92 674.09,-136.8"/>
</g>
<!-- Node11 -->
<g id="node11" class="node">
<title>Node11</title>
<g id="a_node11"><a xlink:title=" ">
<polygon fill="white" stroke="#bfbfbf" points="831,-112.5 831,-131.5 1013,-131.5 1013,-112.5 831,-112.5"/>
<text text-anchor="middle" x="922" y="-119.5" font-family="Helvetica,sans-Serif" font-size="10.00">UI/Widgets/FilesystemWidget.hpp</text>
</a>
</g>
</g>
<!-- Node1&#45;&gt;Node11 -->
<g id="edge11" class="edge">
<title>Node1&#45;&gt;Node11</title>
<path fill="none" stroke="midnightblue" d="M480.12,-174.35C573.59,-163.49 738.78,-144.29 838.55,-132.7"/>
<polygon fill="midnightblue" stroke="midnightblue" points="839.06,-136.16 848.59,-131.53 838.26,-129.21 839.06,-136.16"/>
</g>
<!-- Node6 -->
<g id="node6" class="node">
<title>Node6</title>
<g id="a_node6"><a xlink:title=" ">
<polygon fill="white" stroke="#bfbfbf" points="300,-0.5 300,-19.5 368,-19.5 368,-0.5 300,-0.5"/>
<text text-anchor="middle" x="334" y="-7.5" font-family="Helvetica,sans-Serif" font-size="10.00">filesystem</text>
</a>
</g>
</g>
<!-- Node5&#45;&gt;Node6 -->
<g id="edge5" class="edge">
<title>Node5&#45;&gt;Node6</title>
<path fill="none" stroke="midnightblue" d="M326.79,-112.18C319.46,-103.66 309.24,-90.02 305,-76 299.82,-58.9 309.75,-40.37 319.37,-27.49"/>
<polygon fill="midnightblue" stroke="midnightblue" points="322.22,-29.54 325.79,-19.56 316.78,-25.13 322.22,-29.54"/>
</g>
<!-- Node7 -->
<g id="node7" class="node">
<title>Node7</title>
<g id="a_node7"><a xlink:href="_asset_8hpp.html" target="_top" xlink:title=" ">
<polygon fill="white" stroke="black" points="314.5,-56.5 314.5,-75.5 451.5,-75.5 451.5,-56.5 314.5,-56.5"/>
<text text-anchor="middle" x="383" y="-63.5" font-family="Helvetica,sans-Serif" font-size="10.00">AssetManager/Asset.hpp</text>
</a>
</g>
</g>
<!-- Node5&#45;&gt;Node7 -->
<g id="edge6" class="edge">
<title>Node5&#45;&gt;Node7</title>
<path fill="none" stroke="midnightblue" d="M342.93,-112.08C349.85,-104.3 360.07,-92.8 368.45,-83.37"/>
<polygon fill="midnightblue" stroke="midnightblue" points="371.19,-85.55 375.22,-75.75 365.96,-80.9 371.19,-85.55"/>
</g>
<!-- Node7&#45;&gt;Node6 -->
<g id="edge7" class="edge">
<title>Node7&#45;&gt;Node6</title>
<path fill="none" stroke="midnightblue" d="M374.91,-56.08C367.84,-48.3 357.41,-36.8 348.85,-27.37"/>
<polygon fill="midnightblue" stroke="midnightblue" points="351.25,-24.8 341.94,-19.75 346.07,-29.51 351.25,-24.8"/>
</g>
</g>
</svg>
