<?xml version="1.0" encoding="UTF-8" standalone="no"?>
<!DOCTYPE svg PUBLIC "-//W3C//DTD SVG 1.1//EN"
 "http://www.w3.org/Graphics/SVG/1.1/DTD/svg11.dtd">
<!-- Generated by graphviz version 2.43.0 (0)
 -->
<!-- Title: src/ui/Common/FloatSlider.cpp Pages: 1 -->
<svg width="370pt" height="84pt"
 viewBox="0.00 0.00 370.00 84.00" xmlns="http://www.w3.org/2000/svg" xmlns:xlink="http://www.w3.org/1999/xlink">
<g id="graph0" class="graph" transform="scale(1 1) rotate(0) translate(4 80)">
<title>src/ui/Common/FloatSlider.cpp</title>
<polygon fill="white" stroke="transparent" points="-4,4 -4,-80 366,-80 366,4 -4,4"/>
<!-- Node1 -->
<g id="node1" class="node">
<title>Node1</title>
<g id="a_node1"><a xlink:title=" ">
<polygon fill="#bfbfbf" stroke="black" points="63,-56.5 63,-75.5 228,-75.5 228,-56.5 63,-56.5"/>
<text text-anchor="middle" x="145.5" y="-63.5" font-family="Helvetica,sans-Serif" font-size="10.00">src/ui/Common/FloatSlider.cpp</text>
</a>
</g>
</g>
<!-- Node2 -->
<g id="node2" class="node">
<title>Node2</title>
<g id="a_node2"><a xlink:title=" ">
<polygon fill="white" stroke="#bfbfbf" points="0,-0.5 0,-19.5 53,-19.5 53,-0.5 0,-0.5"/>
<text text-anchor="middle" x="26.5" y="-7.5" font-family="Helvetica,sans-Serif" font-size="10.00">imgui.h</text>
</a>
</g>
</g>
<!-- Node1&#45;&gt;Node2 -->
<g id="edge1" class="edge">
<title>Node1&#45;&gt;Node2</title>
<path fill="none" stroke="midnightblue" d="M126.64,-56.44C107.23,-47.64 76.77,-33.81 54.54,-23.72"/>
<polygon fill="midnightblue" stroke="midnightblue" points="55.82,-20.46 45.27,-19.52 52.93,-26.84 55.82,-20.46"/>
</g>
<!-- Node3 -->
<g id="node3" class="node">
<title>Node3</title>
<g id="a_node3"><a xlink:title=" ">
<polygon fill="white" stroke="#bfbfbf" points="70.5,-0.5 70.5,-19.5 220.5,-19.5 220.5,-0.5 70.5,-0.5"/>
<text text-anchor="middle" x="145.5" y="-7.5" font-family="Helvetica,sans-Serif" font-size="10.00">UI/Common/FloatSlider.hpp</text>
</a>
</g>
</g>
<!-- Node1&#45;&gt;Node3 -->
<g id="edge2" class="edge">
<title>Node1&#45;&gt;Node3</title>
<path fill="none" stroke="midnightblue" d="M145.5,-56.08C145.5,-49.01 145.5,-38.86 145.5,-29.99"/>
<polygon fill="midnightblue" stroke="midnightblue" points="149,-29.75 145.5,-19.75 142,-29.75 149,-29.75"/>
</g>
<!-- Node4 -->
<g id="node4" class="node">
<title>Node4</title>
<g id="a_node4"><a xlink:title=" ">
<polygon fill="white" stroke="#bfbfbf" points="239,-0.5 239,-19.5 362,-19.5 362,-0.5 239,-0.5"/>
<text text-anchor="middle" x="300.5" y="-7.5" font-family="Helvetica,sans-Serif" font-size="10.00">UI/Common/Style.hpp</text>
</a>
</g>
</g>
<!-- Node1&#45;&gt;Node4 -->
<g id="edge3" class="edge">
<title>Node1&#45;&gt;Node4</title>
<path fill="none" stroke="midnightblue" d="M170.06,-56.44C196.02,-47.4 237.17,-33.06 266.3,-22.92"/>
<polygon fill="midnightblue" stroke="midnightblue" points="267.76,-26.11 276.05,-19.52 265.46,-19.5 267.76,-26.11"/>
</g>
</g>
</svg>
