<?xml version="1.0" encoding="UTF-8" standalone="no"?>
<!DOCTYPE svg PUBLIC "-//W3C//DTD SVG 1.1//EN"
 "http://www.w3.org/Graphics/SVG/1.1/DTD/svg11.dtd">
<!-- Generated by graphviz version 2.43.0 (0)
 -->
<!-- Title: src/AssetManager/Image.hpp Pages: 1 -->
<svg width="3158pt" height="335pt"
 viewBox="0.00 0.00 3157.50 335.00" xmlns="http://www.w3.org/2000/svg" xmlns:xlink="http://www.w3.org/1999/xlink">
<g id="graph0" class="graph" transform="scale(1 1) rotate(0) translate(4 331)">
<title>src/AssetManager/Image.hpp</title>
<!-- Node1 -->
<g id="Node000001" class="node">
<title>Node1</title>
<g id="a_Node000001"><a xlink:title=" ">
<polygon fill="#999999" stroke="#666666" points="1953,-327 1795,-327 1795,-308 1953,-308 1953,-327"/>
<text text-anchor="middle" x="1874" y="-315" font-family="Helvetica,sans-Serif" font-size="10.00">src/AssetManager/Image.hpp</text>
</a>
</g>
</g>
<!-- Node2 -->
<g id="Node000002" class="node">
<title>Node2</title>
<g id="a_Node000002"><a xlink:href="_image_8cpp.html" target="_top" xlink:title=" ">
<polygon fill="white" stroke="#666666" points="158,-266.5 0,-266.5 0,-247.5 158,-247.5 158,-266.5"/>
<text text-anchor="middle" x="79" y="-254.5" font-family="Helvetica,sans-Serif" font-size="10.00">src/AssetManager/Image.cpp</text>
</a>
</g>
</g>
<!-- Node1&#45;&gt;Node2 -->
<g id="edge1_Node000001_Node000002" class="edge">
<title>Node1&#45;&gt;Node2</title>
<g id="a_edge1_Node000001_Node000002"><a xlink:title=" ">
<path fill="none" stroke="#63b8ff" d="M1784.77,-315.62C1481.21,-312.4 489.71,-299.96 172,-272 157.69,-270.74 142.22,-268.69 128.09,-266.55"/>
<polygon fill="#63b8ff" stroke="#63b8ff" points="1784.81,-319.12 1794.85,-315.73 1784.88,-312.12 1784.81,-319.12"/>
</a>
</g>
</g>
<!-- Node3 -->
<g id="Node000003" class="node">
<title>Node3</title>
<g id="a_Node000003"><a xlink:href="_cube_map_8hpp.html" target="_top" xlink:title=" ">
<polygon fill="white" stroke="#666666" points="728.5,-266.5 575.5,-266.5 575.5,-247.5 728.5,-247.5 728.5,-266.5"/>
<text text-anchor="middle" x="652" y="-254.5" font-family="Helvetica,sans-Serif" font-size="10.00">src/Rendering/CubeMap.hpp</text>
</a>
</g>
</g>
<!-- Node1&#45;&gt;Node3 -->
<g id="edge2_Node000001_Node000003" class="edge">
<title>Node1&#45;&gt;Node3</title>
<g id="a_edge2_Node000001_Node000003"><a xlink:title=" ">
<path fill="none" stroke="#63b8ff" d="M1784.76,-312.23C1554.66,-301.21 944.24,-271.99 728.7,-261.67"/>
<polygon fill="#63b8ff" stroke="#63b8ff" points="1784.61,-315.72 1794.76,-312.71 1784.94,-308.73 1784.61,-315.72"/>
</a>
</g>
</g>
<!-- Node8 -->
<g id="Node000008" class="node">
<title>Node8</title>
<g id="a_Node000008"><a xlink:href="main_8cpp.html" target="_top" xlink:title=" ">
<polygon fill="white" stroke="#666666" points="263.5,-134.5 184.5,-134.5 184.5,-115.5 263.5,-115.5 263.5,-134.5"/>
<text text-anchor="middle" x="224" y="-122.5" font-family="Helvetica,sans-Serif" font-size="10.00">src/main.cpp</text>
</a>
</g>
</g>
<!-- Node1&#45;&gt;Node8 -->
<g id="edge33_Node000001_Node000008" class="edge">
<title>Node1&#45;&gt;Node8</title>
<g id="a_edge33_Node000001_Node000008"><a xlink:title=" ">
<path fill="none" stroke="#63b8ff" d="M1784.42,-315.27C1529.42,-311.5 802.76,-298.64 566,-272 411.73,-254.64 321.86,-325.69 223,-206 206.02,-185.44 215.07,-150.72 220.66,-134.64"/>
<polygon fill="#63b8ff" stroke="#63b8ff" points="1784.7,-318.78 1794.75,-315.43 1784.8,-311.78 1784.7,-318.78"/>
</a>
</g>
</g>
<!-- Node15 -->
<g id="Node000015" class="node">
<title>Node15</title>
<g id="a_Node000015"><a xlink:href="_texture_8hpp.html" target="_top" xlink:title=" ">
<polygon fill="white" stroke="#666666" points="1366.5,-266.5 1223.5,-266.5 1223.5,-247.5 1366.5,-247.5 1366.5,-266.5"/>
<text text-anchor="middle" x="1295" y="-254.5" font-family="Helvetica,sans-Serif" font-size="10.00">src/Rendering/Texture.hpp</text>
</a>
</g>
</g>
<!-- Node1&#45;&gt;Node15 -->
<g id="edge16_Node000001_Node000015" class="edge">
<title>Node1&#45;&gt;Node15</title>
<g id="a_edge16_Node000001_Node000015"><a xlink:title=" ">
<path fill="none" stroke="#63b8ff" d="M1784.58,-310.36C1685.65,-303.11 1521.61,-289.77 1381,-272 1368.84,-270.46 1355.77,-268.5 1343.58,-266.53"/>
<polygon fill="#63b8ff" stroke="#63b8ff" points="1784.6,-313.87 1794.83,-311.1 1785.11,-306.89 1784.6,-313.87"/>
</a>
</g>
</g>
<!-- Node25 -->
<g id="Node000025" class="node">
<title>Node25</title>
<g id="a_Node000025"><a xlink:href="_component_u_i_8hpp.html" target="_top" xlink:title=" ">
<polygon fill="white" stroke="#666666" points="2062,-200.5 1928,-200.5 1928,-181.5 2062,-181.5 2062,-200.5"/>
<text text-anchor="middle" x="1995" y="-188.5" font-family="Helvetica,sans-Serif" font-size="10.00">src/ui/ComponentUI.hpp</text>
</a>
</g>
</g>
<!-- Node1&#45;&gt;Node25 -->
<g id="edge34_Node000001_Node000025" class="edge">
<title>Node1&#45;&gt;Node25</title>
<g id="a_edge34_Node000001_Node000025"><a xlink:title=" ">
<path fill="none" stroke="#63b8ff" d="M1784.66,-314.19C1657.89,-309.98 1438.38,-298.86 1414,-272 1405.04,-262.13 1404.91,-251.76 1414,-242 1452.34,-200.83 1863.2,-213.11 1919,-206 1930.18,-204.58 1942.21,-202.58 1953.32,-200.54"/>
<polygon fill="#63b8ff" stroke="#63b8ff" points="1784.64,-317.69 1794.75,-314.52 1784.87,-310.7 1784.64,-317.69"/>
</a>
</g>
</g>
<!-- Node28 -->
<g id="Node000028" class="node">
<title>Node28</title>
<g id="a_Node000028"><a xlink:href="_ambient_light_component_u_i_8cpp.html" target="_top" xlink:title=" ">
<polygon fill="white" stroke="#666666" points="1575,-272 1423,-272 1423,-242 1575,-242 1575,-272"/>
<text text-anchor="start" x="1431" y="-260" font-family="Helvetica,sans-Serif" font-size="10.00">src/ui/Components/Ambient</text>
<text text-anchor="middle" x="1499" y="-249" font-family="Helvetica,sans-Serif" font-size="10.00">LightComponentUI.cpp</text>
</a>
</g>
</g>
<!-- Node1&#45;&gt;Node28 -->
<g id="edge35_Node000001_Node000028" class="edge">
<title>Node1&#45;&gt;Node28</title>
<g id="a_edge35_Node000001_Node000028"><a xlink:title=" ">
<path fill="none" stroke="#63b8ff" d="M1807.39,-306.49C1748.59,-297.6 1660.56,-284.18 1584,-272 1581.19,-271.55 1578.34,-271.1 1575.45,-270.63"/>
<polygon fill="#63b8ff" stroke="#63b8ff" points="1806.88,-309.95 1817.29,-307.99 1807.93,-303.03 1806.88,-309.95"/>
</a>
</g>
</g>
<!-- Node29 -->
<g id="Node000029" class="node">
<title>Node29</title>
<g id="a_Node000029"><a xlink:href="_directional_light_component_u_i_8cpp.html" target="_top" xlink:title=" ">
<polygon fill="white" stroke="#666666" points="1757,-272 1593,-272 1593,-242 1757,-242 1757,-272"/>
<text text-anchor="start" x="1601" y="-260" font-family="Helvetica,sans-Serif" font-size="10.00">src/ui/Components/Directional</text>
<text text-anchor="middle" x="1675" y="-249" font-family="Helvetica,sans-Serif" font-size="10.00">LightComponentUI.cpp</text>
</a>
</g>
</g>
<!-- Node1&#45;&gt;Node29 -->
<g id="edge36_Node000001_Node000029" class="edge">
<title>Node1&#45;&gt;Node29</title>
<g id="a_edge36_Node000001_Node000029"><a xlink:title=" ">
<path fill="none" stroke="#63b8ff" d="M1835.14,-305.08C1803.01,-295.63 1757.23,-282.17 1722.84,-272.06"/>
<polygon fill="#63b8ff" stroke="#63b8ff" points="1834.48,-308.53 1845.06,-307.99 1836.46,-301.82 1834.48,-308.53"/>
</a>
</g>
</g>
<!-- Node30 -->
<g id="Node000030" class="node">
<title>Node30</title>
<g id="a_Node000030"><a xlink:href="_model_component_u_i_8cpp.html" target="_top" xlink:title=" ">
<polygon fill="white" stroke="#666666" points="1972.5,-272 1775.5,-272 1775.5,-242 1972.5,-242 1972.5,-272"/>
<text text-anchor="start" x="1783.5" y="-260" font-family="Helvetica,sans-Serif" font-size="10.00">src/ui/Components/ModelComponent</text>
<text text-anchor="middle" x="1874" y="-249" font-family="Helvetica,sans-Serif" font-size="10.00">UI.cpp</text>
</a>
</g>
</g>
<!-- Node1&#45;&gt;Node30 -->
<g id="edge37_Node000001_Node000030" class="edge">
<title>Node1&#45;&gt;Node30</title>
<g id="a_edge37_Node000001_Node000030"><a xlink:title=" ">
<path fill="none" stroke="#63b8ff" d="M1874,-297.65C1874,-289.36 1874,-279.78 1874,-272.11"/>
<polygon fill="#63b8ff" stroke="#63b8ff" points="1870.5,-297.87 1874,-307.87 1877.5,-297.87 1870.5,-297.87"/>
</a>
</g>
</g>
<!-- Node31 -->
<g id="Node000031" class="node">
<title>Node31</title>
<g id="a_Node000031"><a xlink:href="_point_light_component_u_i_8cpp.html" target="_top" xlink:title=" ">
<polygon fill="white" stroke="#666666" points="2149.5,-272 1990.5,-272 1990.5,-242 2149.5,-242 2149.5,-272"/>
<text text-anchor="start" x="1998.5" y="-260" font-family="Helvetica,sans-Serif" font-size="10.00">src/ui/Components/PointLight</text>
<text text-anchor="middle" x="2070" y="-249" font-family="Helvetica,sans-Serif" font-size="10.00">ComponentUI.cpp</text>
</a>
</g>
</g>
<!-- Node1&#45;&gt;Node31 -->
<g id="edge38_Node000001_Node000031" class="edge">
<title>Node1&#45;&gt;Node31</title>
<g id="a_edge38_Node000001_Node000031"><a xlink:title=" ">
<path fill="none" stroke="#63b8ff" d="M1912.27,-305.08C1943.92,-295.63 1989.01,-282.17 2022.88,-272.06"/>
<polygon fill="#63b8ff" stroke="#63b8ff" points="1911.08,-301.78 1902.5,-307.99 1913.08,-308.49 1911.08,-301.78"/>
</a>
</g>
</g>
<!-- Node32 -->
<g id="Node000032" class="node">
<title>Node32</title>
<g id="a_Node000032"><a xlink:href="_transform_component_u_i_8hpp.html" target="_top" xlink:title=" ">
<polygon fill="white" stroke="#666666" points="2326.5,-272 2167.5,-272 2167.5,-242 2326.5,-242 2326.5,-272"/>
<text text-anchor="start" x="2175.5" y="-260" font-family="Helvetica,sans-Serif" font-size="10.00">src/ui/Components/Transform</text>
<text text-anchor="middle" x="2247" y="-249" font-family="Helvetica,sans-Serif" font-size="10.00">ComponentUI.hpp</text>
</a>
</g>
</g>
<!-- Node1&#45;&gt;Node32 -->
<g id="edge39_Node000001_Node000032" class="edge">
<title>Node1&#45;&gt;Node32</title>
<g id="a_edge39_Node000001_Node000032"><a xlink:title=" ">
<path fill="none" stroke="#63b8ff" d="M1938.99,-306.41C1996.76,-297.42 2083.52,-283.9 2159,-272 2161.75,-271.57 2164.55,-271.12 2167.38,-270.68"/>
<polygon fill="#63b8ff" stroke="#63b8ff" points="1938.25,-302.98 1928.91,-307.97 1939.33,-309.9 1938.25,-302.98"/>
</a>
</g>
</g>
<!-- Node33 -->
<g id="Node000033" class="node">
<title>Node33</title>
<g id="a_Node000033"><a xlink:href="_wireframe_component_u_i_8cpp.html" target="_top" xlink:title=" ">
<polygon fill="white" stroke="#666666" points="2507,-272 2345,-272 2345,-242 2507,-242 2507,-272"/>
<text text-anchor="start" x="2353" y="-260" font-family="Helvetica,sans-Serif" font-size="10.00">src/ui/Components/Wireframe</text>
<text text-anchor="middle" x="2426" y="-249" font-family="Helvetica,sans-Serif" font-size="10.00">ComponentUI.cpp</text>
</a>
</g>
</g>
<!-- Node1&#45;&gt;Node33 -->
<g id="edge40_Node000001_Node000033" class="edge">
<title>Node1&#45;&gt;Node33</title>
<g id="a_edge40_Node000001_Node000033"><a xlink:title=" ">
<path fill="none" stroke="#63b8ff" d="M1963.28,-309.45C2056.46,-301.74 2206.73,-288.27 2336,-272 2338.82,-271.64 2341.7,-271.27 2344.59,-270.88"/>
<polygon fill="#63b8ff" stroke="#63b8ff" points="1962.72,-305.99 1953.04,-310.3 1963.3,-312.96 1962.72,-305.99"/>
</a>
</g>
</g>
<!-- Node34 -->
<g id="Node000034" class="node">
<title>Node34</title>
<g id="a_Node000034"><a xlink:href="_u_i_8cpp.html" target="_top" xlink:title=" ">
<polygon fill="white" stroke="#666666" points="2602.5,-266.5 2525.5,-266.5 2525.5,-247.5 2602.5,-247.5 2602.5,-266.5"/>
<text text-anchor="middle" x="2564" y="-254.5" font-family="Helvetica,sans-Serif" font-size="10.00">src/ui/UI.cpp</text>
</a>
</g>
</g>
<!-- Node1&#45;&gt;Node34 -->
<g id="edge41_Node000001_Node000034" class="edge">
<title>Node1&#45;&gt;Node34</title>
<g id="a_edge41_Node000001_Node000034"><a xlink:title=" ">
<path fill="none" stroke="#63b8ff" d="M1963.5,-316.33C2088.24,-314.73 2321.02,-306.77 2516,-272 2523.43,-270.67 2531.36,-268.63 2538.58,-266.51"/>
<polygon fill="#63b8ff" stroke="#63b8ff" points="1963.19,-312.83 1953.24,-316.45 1963.28,-319.83 1963.19,-312.83"/>
</a>
</g>
</g>
<!-- Node35 -->
<g id="Node000035" class="node">
<title>Node35</title>
<g id="a_Node000035"><a xlink:href="_console_widget_8cpp.html" target="_top" xlink:title=" ">
<polygon fill="white" stroke="#666666" points="2801.5,-266.5 2620.5,-266.5 2620.5,-247.5 2801.5,-247.5 2801.5,-266.5"/>
<text text-anchor="middle" x="2711" y="-254.5" font-family="Helvetica,sans-Serif" font-size="10.00">src/ui/widgets/ConsoleWidget.cpp</text>
</a>
</g>
</g>
<!-- Node1&#45;&gt;Node35 -->
<g id="edge42_Node000001_Node000035" class="edge">
<title>Node1&#45;&gt;Node35</title>
<g id="a_edge42_Node000001_Node000035"><a xlink:title=" ">
<path fill="none" stroke="#63b8ff" d="M1963.25,-313.43C2102.19,-308.13 2378.54,-295.51 2612,-272 2626.42,-270.55 2641.97,-268.55 2656.37,-266.53"/>
<polygon fill="#63b8ff" stroke="#63b8ff" points="1962.94,-309.94 1953.08,-313.82 1963.2,-316.94 1962.94,-309.94"/>
</a>
</g>
</g>
<!-- Node36 -->
<g id="Node000036" class="node">
<title>Node36</title>
<g id="a_Node000036"><a xlink:href="_filesystem_widget_8cpp.html" target="_top" xlink:title=" ">
<polygon fill="white" stroke="#666666" points="2960,-272 2820,-272 2820,-242 2960,-242 2960,-272"/>
<text text-anchor="start" x="2828" y="-260" font-family="Helvetica,sans-Serif" font-size="10.00">src/ui/widgets/Filesystem</text>
<text text-anchor="middle" x="2890" y="-249" font-family="Helvetica,sans-Serif" font-size="10.00">Widget.cpp</text>
</a>
</g>
</g>
<!-- Node1&#45;&gt;Node36 -->
<g id="edge43_Node000001_Node000036" class="edge">
<title>Node1&#45;&gt;Node36</title>
<g id="a_edge43_Node000001_Node000036"><a xlink:title=" ">
<path fill="none" stroke="#63b8ff" d="M1963.47,-316.05C2130.54,-314.37 2501.08,-306.68 2811,-272 2813.91,-271.67 2816.87,-271.31 2819.86,-270.91"/>
<polygon fill="#63b8ff" stroke="#63b8ff" points="1963.21,-312.56 1953.25,-316.15 1963.28,-319.55 1963.21,-312.56"/>
</a>
</g>
</g>
<!-- Node37 -->
<g id="Node000037" class="node">
<title>Node37</title>
<g id="a_Node000037"><a xlink:href="_scene_widget_8cpp.html" target="_top" xlink:title=" ">
<polygon fill="white" stroke="#666666" points="3149.5,-266.5 2978.5,-266.5 2978.5,-247.5 3149.5,-247.5 3149.5,-266.5"/>
<text text-anchor="middle" x="3064" y="-254.5" font-family="Helvetica,sans-Serif" font-size="10.00">src/ui/widgets/SceneWidget.cpp</text>
</a>
</g>
</g>
<!-- Node1&#45;&gt;Node37 -->
<g id="edge44_Node000001_Node000037" class="edge">
<title>Node1&#45;&gt;Node37</title>
<g id="a_edge44_Node000001_Node000037"><a xlink:title=" ">
<path fill="none" stroke="#63b8ff" d="M1963.26,-316.06C2150.22,-314.45 2596.52,-306.92 2969,-272 2983.27,-270.66 2998.68,-268.64 3012.84,-266.55"/>
<polygon fill="#63b8ff" stroke="#63b8ff" points="1963.17,-312.56 1953.2,-316.15 1963.23,-319.56 1963.17,-312.56"/>
</a>
</g>
</g>
<!-- Node4 -->
<g id="Node000004" class="node">
<title>Node4</title>
<g id="a_Node000004"><a xlink:href="_gizmo_handle_component_8hpp.html" target="_top" xlink:title=" ">
<polygon fill="white" stroke="#666666" points="646,-206 482,-206 482,-176 646,-176 646,-206"/>
<text text-anchor="start" x="490" y="-194" font-family="Helvetica,sans-Serif" font-size="10.00">src/Components/GizmoHandle</text>
<text text-anchor="middle" x="564" y="-183" font-family="Helvetica,sans-Serif" font-size="10.00">Component.hpp</text>
</a>
</g>
</g>
<!-- Node3&#45;&gt;Node4 -->
<g id="edge3_Node000003_Node000004" class="edge">
<title>Node3&#45;&gt;Node4</title>
<g id="a_edge3_Node000003_Node000004"><a xlink:title=" ">
<path fill="none" stroke="#63b8ff" d="M631.81,-241.32C617.27,-230.74 597.77,-216.56 583.41,-206.12"/>
<polygon fill="#63b8ff" stroke="#63b8ff" points="629.99,-244.32 640.13,-247.37 634.1,-238.66 629.99,-244.32"/>
</a>
</g>
</g>
<!-- Node6 -->
<g id="Node000006" class="node">
<title>Node6</title>
<g id="a_Node000006"><a xlink:href="_skybox_component_8hpp.html" target="_top" xlink:title=" ">
<polygon fill="white" stroke="#666666" points="463.5,-200.5 252.5,-200.5 252.5,-181.5 463.5,-181.5 463.5,-200.5"/>
<text text-anchor="middle" x="358" y="-188.5" font-family="Helvetica,sans-Serif" font-size="10.00">src/Components/SkyboxComponent.hpp</text>
</a>
</g>
</g>
<!-- Node3&#45;&gt;Node6 -->
<g id="edge5_Node000003_Node000006" class="edge">
<title>Node3&#45;&gt;Node6</title>
<g id="a_edge5_Node000003_Node000006"><a xlink:title=" ">
<path fill="none" stroke="#63b8ff" d="M602.65,-245.26C544.81,-232.67 450.13,-212.06 397.11,-200.51"/>
<polygon fill="#63b8ff" stroke="#63b8ff" points="602.14,-248.73 612.65,-247.44 603.63,-241.89 602.14,-248.73"/>
</a>
</g>
</g>
<!-- Node3&#45;&gt;Node8 -->
<g id="edge15_Node000003_Node000008" class="edge">
<title>Node3&#45;&gt;Node8</title>
<g id="a_edge15_Node000003_Node000008"><a xlink:title=" ">
<path fill="none" stroke="#63b8ff" d="M565.3,-256.65C459.54,-255.57 289.1,-247.23 243,-206 222.36,-187.54 222.09,-151.12 223.17,-134.56"/>
<polygon fill="#63b8ff" stroke="#63b8ff" points="565.3,-260.15 575.33,-256.73 565.36,-253.15 565.3,-260.15"/>
</a>
</g>
</g>
<!-- Node10 -->
<g id="Node000010" class="node">
<title>Node10</title>
<g id="a_Node000010"><a xlink:href="_cube_map_8cpp.html" target="_top" xlink:title=" ">
<polygon fill="white" stroke="#666666" points="816,-200.5 664,-200.5 664,-181.5 816,-181.5 816,-200.5"/>
<text text-anchor="middle" x="740" y="-188.5" font-family="Helvetica,sans-Serif" font-size="10.00">src/Rendering/CubeMap.cpp</text>
</a>
</g>
</g>
<!-- Node3&#45;&gt;Node10 -->
<g id="edge9_Node000003_Node000010" class="edge">
<title>Node3&#45;&gt;Node10</title>
<g id="a_edge9_Node000003_Node000010"><a xlink:title=" ">
<path fill="none" stroke="#63b8ff" d="M672.17,-241.33C689.43,-228.78 713.69,-211.13 728.04,-200.7"/>
<polygon fill="#63b8ff" stroke="#63b8ff" points="669.9,-238.66 663.87,-247.37 674.01,-244.32 669.9,-238.66"/>
</a>
</g>
</g>
<!-- Node11 -->
<g id="Node000011" class="node">
<title>Node11</title>
<g id="a_Node000011"><a xlink:href="_rendering_system_8hpp.html" target="_top" xlink:title=" ">
<polygon fill="white" stroke="#666666" points="1208,-134.5 1022,-134.5 1022,-115.5 1208,-115.5 1208,-134.5"/>
<text text-anchor="middle" x="1115" y="-122.5" font-family="Helvetica,sans-Serif" font-size="10.00">src/Systems/RenderingSystem.hpp</text>
</a>
</g>
</g>
<!-- Node3&#45;&gt;Node11 -->
<g id="edge10_Node000003_Node000011" class="edge">
<title>Node3&#45;&gt;Node11</title>
<g id="a_edge10_Node000003_Node000011"><a xlink:title=" ">
<path fill="none" stroke="#63b8ff" d="M738.96,-255.66C810.39,-252.53 912.82,-241.38 995,-206 1014.76,-197.49 1015.34,-188.29 1033,-176 1055.58,-160.29 1083.12,-144.06 1099.84,-134.51"/>
<polygon fill="#63b8ff" stroke="#63b8ff" points="738.51,-252.17 728.65,-256.06 738.78,-259.17 738.51,-252.17"/>
</a>
</g>
</g>
<!-- Node5 -->
<g id="Node000005" class="node">
<title>Node5</title>
<g id="a_Node000005"><a xlink:href="_gizmo_system_8cpp.html" target="_top" xlink:title=" ">
<polygon fill="white" stroke="#666666" points="647.5,-134.5 480.5,-134.5 480.5,-115.5 647.5,-115.5 647.5,-134.5"/>
<text text-anchor="middle" x="564" y="-122.5" font-family="Helvetica,sans-Serif" font-size="10.00">src/Systems/GizmoSystem.cpp</text>
</a>
</g>
</g>
<!-- Node4&#45;&gt;Node5 -->
<g id="edge4_Node000004_Node000005" class="edge">
<title>Node4&#45;&gt;Node5</title>
<g id="a_edge4_Node000004_Node000005"><a xlink:title=" ">
<path fill="none" stroke="#63b8ff" d="M564,-165.6C564,-154.8 564,-142.78 564,-134.84"/>
<polygon fill="#63b8ff" stroke="#63b8ff" points="560.5,-165.8 564,-175.8 567.5,-165.8 560.5,-165.8"/>
</a>
</g>
</g>
<!-- Node7 -->
<g id="Node000007" class="node">
<title>Node7</title>
<g id="a_Node000007"><a xlink:href="_rendering_system_8cpp.html" target="_top" xlink:title=" ">
<polygon fill="white" stroke="#666666" points="894.5,-74 709.5,-74 709.5,-55 894.5,-55 894.5,-74"/>
<text text-anchor="middle" x="802" y="-62" font-family="Helvetica,sans-Serif" font-size="10.00">src/Systems/RenderingSystem.cpp</text>
</a>
</g>
</g>
<!-- Node6&#45;&gt;Node7 -->
<g id="edge6_Node000006_Node000007" class="edge">
<title>Node6&#45;&gt;Node7</title>
<g id="a_edge6_Node000006_Node000007"><a xlink:title=" ">
<path fill="none" stroke="#63b8ff" d="M380.15,-175.9C395.25,-166.12 415.59,-152.64 433,-140 450.41,-127.36 451.19,-118.4 471,-110 493.62,-100.41 631.39,-84.01 721.92,-74.02"/>
<polygon fill="#63b8ff" stroke="#63b8ff" points="378.01,-173.11 371.5,-181.47 381.8,-179 378.01,-173.11"/>
</a>
</g>
</g>
<!-- Node6&#45;&gt;Node8 -->
<g id="edge7_Node000006_Node000008" class="edge">
<title>Node6&#45;&gt;Node8</title>
<g id="a_edge7_Node000006_Node000008"><a xlink:title=" ">
<path fill="none" stroke="#63b8ff" d="M330.84,-177.03C304.43,-164.42 265.06,-145.61 242.21,-134.7"/>
<polygon fill="#63b8ff" stroke="#63b8ff" points="329.4,-180.22 339.93,-181.37 332.41,-173.9 329.4,-180.22"/>
</a>
</g>
</g>
<!-- Node9 -->
<g id="Node000009" class="node">
<title>Node9</title>
<g id="a_Node000009"><a xlink:href="_properties_widget_8cpp.html" target="_top" xlink:title=" ">
<polygon fill="white" stroke="#666666" points="424.5,-140 287.5,-140 287.5,-110 424.5,-110 424.5,-140"/>
<text text-anchor="start" x="295.5" y="-128" font-family="Helvetica,sans-Serif" font-size="10.00">src/ui/widgets/Properties</text>
<text text-anchor="middle" x="356" y="-117" font-family="Helvetica,sans-Serif" font-size="10.00">Widget.cpp</text>
</a>
</g>
</g>
<!-- Node6&#45;&gt;Node9 -->
<g id="edge8_Node000006_Node000009" class="edge">
<title>Node6&#45;&gt;Node9</title>
<g id="a_edge8_Node000006_Node000009"><a xlink:title=" ">
<path fill="none" stroke="#63b8ff" d="M357.42,-171.35C357.11,-161.47 356.73,-149.51 356.45,-140.36"/>
<polygon fill="#63b8ff" stroke="#63b8ff" points="353.92,-171.48 357.73,-181.37 360.92,-171.26 353.92,-171.48"/>
</a>
</g>
</g>
<!-- Node11&#45;&gt;Node7 -->
<g id="edge14_Node000011_Node000007" class="edge">
<title>Node11&#45;&gt;Node7</title>
<g id="a_edge14_Node000011_Node000007"><a xlink:title=" ">
<path fill="none" stroke="#63b8ff" d="M1059.37,-113.6C998.99,-102.32 903.69,-84.51 847.57,-74.02"/>
<polygon fill="#63b8ff" stroke="#63b8ff" points="1059.01,-117.1 1069.49,-115.49 1060.3,-110.22 1059.01,-117.1"/>
</a>
</g>
</g>
<!-- Node12 -->
<g id="Node000012" class="node">
<title>Node12</title>
<g id="a_Node000012"><a xlink:href="_runtime_8hpp.html" target="_top" xlink:title=" ">
<polygon fill="white" stroke="#666666" points="1124,-74 984,-74 984,-55 1124,-55 1124,-74"/>
<text text-anchor="middle" x="1054" y="-62" font-family="Helvetica,sans-Serif" font-size="10.00">src/Runtime/Runtime.hpp</text>
</a>
</g>
</g>
<!-- Node11&#45;&gt;Node12 -->
<g id="edge11_Node000011_Node000012" class="edge">
<title>Node11&#45;&gt;Node12</title>
<g id="a_edge11_Node000011_Node000012"><a xlink:title=" ">
<path fill="none" stroke="#63b8ff" d="M1098.74,-108.41C1087.3,-97.44 1072.42,-83.17 1063.04,-74.17"/>
<polygon fill="#63b8ff" stroke="#63b8ff" points="1096.36,-110.97 1106,-115.37 1101.2,-105.92 1096.36,-110.97"/>
</a>
</g>
</g>
<!-- Node13 -->
<g id="Node000013" class="node">
<title>Node13</title>
<g id="a_Node000013"><a xlink:href="_runtime_8cpp.html" target="_top" xlink:title=" ">
<polygon fill="white" stroke="#666666" points="1037,-19 897,-19 897,0 1037,0 1037,-19"/>
<text text-anchor="middle" x="967" y="-7" font-family="Helvetica,sans-Serif" font-size="10.00">src/Runtime/Runtime.cpp</text>
</a>
</g>
</g>
<!-- Node12&#45;&gt;Node13 -->
<g id="edge12_Node000012_Node000013" class="edge">
<title>Node12&#45;&gt;Node13</title>
<g id="a_edge12_Node000012_Node000013"><a xlink:title=" ">
<path fill="none" stroke="#63b8ff" d="M1031.34,-49.7C1015.49,-40.04 994.81,-27.44 981.23,-19.17"/>
<polygon fill="#63b8ff" stroke="#63b8ff" points="1029.66,-52.77 1040.02,-54.98 1033.3,-46.79 1029.66,-52.77"/>
</a>
</g>
</g>
<!-- Node14 -->
<g id="Node000014" class="node">
<title>Node14</title>
<g id="a_Node000014"><a xlink:href="_scene_widget_8hpp.html" target="_top" xlink:title="Contains the declaration of the SceneWidget class, a user interface widget for rendering scenes.">
<polygon fill="white" stroke="#666666" points="1227,-19 1055,-19 1055,0 1227,0 1227,-19"/>
<text text-anchor="middle" x="1141" y="-7" font-family="Helvetica,sans-Serif" font-size="10.00">src/ui/widgets/SceneWidget.hpp</text>
</a>
</g>
</g>
<!-- Node12&#45;&gt;Node14 -->
<g id="edge13_Node000012_Node000014" class="edge">
<title>Node12&#45;&gt;Node14</title>
<g id="a_edge13_Node000012_Node000014"><a xlink:title=" ">
<path fill="none" stroke="#63b8ff" d="M1076.66,-49.7C1092.51,-40.04 1113.19,-27.44 1126.77,-19.17"/>
<polygon fill="#63b8ff" stroke="#63b8ff" points="1074.7,-46.79 1067.98,-54.98 1078.34,-52.77 1074.7,-46.79"/>
</a>
</g>
</g>
<!-- Node16 -->
<g id="Node000016" class="node">
<title>Node16</title>
<g id="a_Node000016"><a xlink:href="_depth_atlas_frame_buffer_8hpp.html" target="_top" xlink:title=" ">
<polygon fill="white" stroke="#666666" points="1716,-206 1562,-206 1562,-176 1716,-176 1716,-206"/>
<text text-anchor="start" x="1570" y="-194" font-family="Helvetica,sans-Serif" font-size="10.00">src/Rendering/FrameBuffers</text>
<text text-anchor="middle" x="1639" y="-183" font-family="Helvetica,sans-Serif" font-size="10.00">/DepthAtlasFrameBuffer.hpp</text>
</a>
</g>
</g>
<!-- Node15&#45;&gt;Node16 -->
<g id="edge17_Node000015_Node000016" class="edge">
<title>Node15&#45;&gt;Node16</title>
<g id="a_edge17_Node000015_Node000016"><a xlink:title=" ">
<path fill="none" stroke="#63b8ff" d="M1351.09,-245.56C1408.95,-234.8 1499.53,-217.95 1563.62,-206.02"/>
<polygon fill="#63b8ff" stroke="#63b8ff" points="1350.23,-242.16 1341.04,-247.44 1351.51,-249.05 1350.23,-242.16"/>
</a>
</g>
</g>
<!-- Node18 -->
<g id="Node000018" class="node">
<title>Node18</title>
<g id="a_Node000018"><a xlink:href="_depth_cube_map_frame_buffer_8hpp.html" target="_top" xlink:title=" ">
<polygon fill="white" stroke="#666666" points="1909.5,-206 1734.5,-206 1734.5,-176 1909.5,-176 1909.5,-206"/>
<text text-anchor="start" x="1742.5" y="-194" font-family="Helvetica,sans-Serif" font-size="10.00">src/Rendering/FrameBuffers</text>
<text text-anchor="middle" x="1822" y="-183" font-family="Helvetica,sans-Serif" font-size="10.00">/DepthCubeMapFrameBuffer.hpp</text>
</a>
</g>
</g>
<!-- Node15&#45;&gt;Node18 -->
<g id="edge20_Node000015_Node000018" class="edge">
<title>Node15&#45;&gt;Node18</title>
<g id="a_edge20_Node000015_Node000018"><a xlink:title=" ">
<path fill="none" stroke="#63b8ff" d="M1354.43,-245.87C1363.32,-244.49 1372.39,-243.15 1381,-242 1533.37,-221.64 1572.45,-224.98 1725,-206 1728.04,-205.62 1731.13,-205.23 1734.25,-204.82"/>
<polygon fill="#63b8ff" stroke="#63b8ff" points="1353.83,-242.42 1344.5,-247.45 1354.92,-249.34 1353.83,-242.42"/>
</a>
</g>
</g>
<!-- Node20 -->
<g id="Node000020" class="node">
<title>Node20</title>
<g id="a_Node000020"><a xlink:href="_scene_frame_buffer_8hpp.html" target="_top" xlink:title=" ">
<polygon fill="white" stroke="#666666" points="986,-206 834,-206 834,-176 986,-176 986,-206"/>
<text text-anchor="start" x="842" y="-194" font-family="Helvetica,sans-Serif" font-size="10.00">src/Rendering/FrameBuffers</text>
<text text-anchor="middle" x="910" y="-183" font-family="Helvetica,sans-Serif" font-size="10.00">/SceneFrameBuffer.hpp</text>
</a>
</g>
</g>
<!-- Node15&#45;&gt;Node20 -->
<g id="edge22_Node000015_Node000020" class="edge">
<title>Node15&#45;&gt;Node20</title>
<g id="a_edge22_Node000015_Node000020"><a xlink:title=" ">
<path fill="none" stroke="#63b8ff" d="M1233.46,-245.77C1166.24,-234.6 1058.53,-216.69 986.07,-204.65"/>
<polygon fill="#63b8ff" stroke="#63b8ff" points="1233.04,-249.25 1243.48,-247.44 1234.19,-242.34 1233.04,-249.25"/>
</a>
</g>
</g>
<!-- Node24 -->
<g id="Node000024" class="node">
<title>Node24</title>
<g id="a_Node000024"><a xlink:href="_texture_8cpp.html" target="_top" xlink:title=" ">
<polygon fill="white" stroke="#666666" points="1185.5,-200.5 1042.5,-200.5 1042.5,-181.5 1185.5,-181.5 1185.5,-200.5"/>
<text text-anchor="middle" x="1114" y="-188.5" font-family="Helvetica,sans-Serif" font-size="10.00">src/Rendering/Texture.cpp</text>
</a>
</g>
</g>
<!-- Node15&#45;&gt;Node24 -->
<g id="edge29_Node000015_Node000024" class="edge">
<title>Node15&#45;&gt;Node24</title>
<g id="a_edge29_Node000015_Node000024"><a xlink:title=" ">
<path fill="none" stroke="#63b8ff" d="M1261.07,-244C1225.32,-231.36 1169.93,-211.78 1138.31,-200.6"/>
<polygon fill="#63b8ff" stroke="#63b8ff" points="1259.99,-247.33 1270.59,-247.37 1262.33,-240.74 1259.99,-247.33"/>
</a>
</g>
</g>
<!-- Node15&#45;&gt;Node25 -->
<g id="edge30_Node000015_Node000025" class="edge">
<title>Node15&#45;&gt;Node25</title>
<g id="a_edge30_Node000015_Node000025"><a xlink:title=" ">
<path fill="none" stroke="#63b8ff" d="M1352.1,-245.93C1361.72,-244.45 1371.63,-243.07 1381,-242 1619.09,-214.72 1681.21,-235.76 1919,-206 1930.18,-204.6 1942.21,-202.61 1953.32,-200.57"/>
<polygon fill="#63b8ff" stroke="#63b8ff" points="1351.53,-242.48 1342.2,-247.49 1352.63,-249.39 1351.53,-242.48"/>
</a>
</g>
</g>
<!-- Node26 -->
<g id="Node000026" class="node">
<title>Node26</title>
<g id="a_Node000026"><a xlink:href="_console_widget_8hpp.html" target="_top" xlink:title="Contains the declaration of classes related to logging and a console user interface widget.">
<polygon fill="white" stroke="#666666" points="1386,-200.5 1204,-200.5 1204,-181.5 1386,-181.5 1386,-200.5"/>
<text text-anchor="middle" x="1295" y="-188.5" font-family="Helvetica,sans-Serif" font-size="10.00">src/ui/widgets/ConsoleWidget.hpp</text>
</a>
</g>
</g>
<!-- Node15&#45;&gt;Node26 -->
<g id="edge31_Node000015_Node000026" class="edge">
<title>Node15&#45;&gt;Node26</title>
<g id="a_edge31_Node000015_Node000026"><a xlink:title=" ">
<path fill="none" stroke="#63b8ff" d="M1295,-237.08C1295,-225.13 1295,-210.22 1295,-200.91"/>
<polygon fill="#63b8ff" stroke="#63b8ff" points="1291.5,-237.37 1295,-247.37 1298.5,-237.37 1291.5,-237.37"/>
</a>
</g>
</g>
<!-- Node27 -->
<g id="Node000027" class="node">
<title>Node27</title>
<g id="a_Node000027"><a xlink:href="_filesystem_widget_8hpp.html" target="_top" xlink:title="Contains the declaration of the FilesystemWidget class, a user interface widget for interacting with ...">
<polygon fill="white" stroke="#666666" points="1544,-206 1404,-206 1404,-176 1544,-176 1544,-206"/>
<text text-anchor="start" x="1412" y="-194" font-family="Helvetica,sans-Serif" font-size="10.00">src/ui/widgets/Filesystem</text>
<text text-anchor="middle" x="1474" y="-183" font-family="Helvetica,sans-Serif" font-size="10.00">Widget.hpp</text>
</a>
</g>
</g>
<!-- Node15&#45;&gt;Node27 -->
<g id="edge32_Node000015_Node000027" class="edge">
<title>Node15&#45;&gt;Node27</title>
<g id="a_edge32_Node000015_Node000027"><a xlink:title=" ">
<path fill="none" stroke="#63b8ff" d="M1328.76,-243.93C1358.83,-233.18 1402.84,-217.44 1434.52,-206.12"/>
<polygon fill="#63b8ff" stroke="#63b8ff" points="1327.38,-240.71 1319.14,-247.37 1329.74,-247.3 1327.38,-240.71"/>
</a>
</g>
</g>
<!-- Node16&#45;&gt;Node11 -->
<g id="edge19_Node000016_Node000011" class="edge">
<title>Node16&#45;&gt;Node11</title>
<g id="a_edge19_Node000016_Node000011"><a xlink:title=" ">
<path fill="none" stroke="#63b8ff" d="M1551.68,-175.86C1423.57,-158.3 1286.49,-143.41 1200.35,-134.53"/>
<polygon fill="#63b8ff" stroke="#63b8ff" points="1551.29,-179.33 1561.67,-177.23 1552.24,-172.4 1551.29,-179.33"/>
</a>
</g>
</g>
<!-- Node17 -->
<g id="Node000017" class="node">
<title>Node17</title>
<g id="a_Node000017"><a xlink:href="_depth_atlas_frame_buffer_8cpp.html" target="_top" xlink:title=" ">
<polygon fill="white" stroke="#666666" points="1715.5,-140 1562.5,-140 1562.5,-110 1715.5,-110 1715.5,-140"/>
<text text-anchor="start" x="1570.5" y="-128" font-family="Helvetica,sans-Serif" font-size="10.00">src/Rendering/FrameBuffers</text>
<text text-anchor="middle" x="1639" y="-117" font-family="Helvetica,sans-Serif" font-size="10.00">/DepthAtlasFrameBuffer.cpp</text>
</a>
</g>
</g>
<!-- Node16&#45;&gt;Node17 -->
<g id="edge18_Node000016_Node000017" class="edge">
<title>Node16&#45;&gt;Node17</title>
<g id="a_edge18_Node000016_Node000017"><a xlink:title=" ">
<path fill="none" stroke="#63b8ff" d="M1639,-165.54C1639,-156.96 1639,-147.61 1639,-140.16"/>
<polygon fill="#63b8ff" stroke="#63b8ff" points="1635.5,-165.8 1639,-175.8 1642.5,-165.8 1635.5,-165.8"/>
</a>
</g>
</g>
<!-- Node19 -->
<g id="Node000019" class="node">
<title>Node19</title>
<g id="a_Node000019"><a xlink:href="_depth_cube_map_frame_buffer_8cpp.html" target="_top" xlink:title=" ">
<polygon fill="white" stroke="#666666" points="1909,-140 1735,-140 1735,-110 1909,-110 1909,-140"/>
<text text-anchor="start" x="1743" y="-128" font-family="Helvetica,sans-Serif" font-size="10.00">src/Rendering/FrameBuffers</text>
<text text-anchor="middle" x="1822" y="-117" font-family="Helvetica,sans-Serif" font-size="10.00">/DepthCubeMapFrameBuffer.cpp</text>
</a>
</g>
</g>
<!-- Node18&#45;&gt;Node19 -->
<g id="edge21_Node000018_Node000019" class="edge">
<title>Node18&#45;&gt;Node19</title>
<g id="a_edge21_Node000018_Node000019"><a xlink:title=" ">
<path fill="none" stroke="#63b8ff" d="M1822,-165.54C1822,-156.96 1822,-147.61 1822,-140.16"/>
<polygon fill="#63b8ff" stroke="#63b8ff" points="1818.5,-165.8 1822,-175.8 1825.5,-165.8 1818.5,-165.8"/>
</a>
</g>
</g>
<!-- Node20&#45;&gt;Node11 -->
<g id="edge28_Node000020_Node000011" class="edge">
<title>Node20&#45;&gt;Node11</title>
<g id="a_edge28_Node000020_Node000011"><a xlink:title=" ">
<path fill="none" stroke="#63b8ff" d="M964.54,-172.97C1004.27,-160.57 1056.41,-144.29 1087.72,-134.52"/>
<polygon fill="#63b8ff" stroke="#63b8ff" points="963.49,-169.63 954.99,-175.95 965.58,-176.32 963.49,-169.63"/>
</a>
</g>
</g>
<!-- Node20&#45;&gt;Node12 -->
<g id="edge27_Node000020_Node000012" class="edge">
<title>Node20&#45;&gt;Node12</title>
<g id="a_edge27_Node000020_Node000012"><a xlink:title=" ">
<path fill="none" stroke="#63b8ff" d="M937.6,-169.73C949.34,-160.87 963.06,-150.18 975,-140 1001.69,-117.25 1031.3,-88.23 1045.5,-74.06"/>
<polygon fill="#63b8ff" stroke="#63b8ff" points="935.36,-167.04 929.46,-175.83 939.56,-172.64 935.36,-167.04"/>
</a>
</g>
</g>
<!-- Node21 -->
<g id="Node000021" class="node">
<title>Node21</title>
<g id="a_Node000021"><a xlink:href="_scene_frame_buffer_8cpp.html" target="_top" xlink:title=" ">
<polygon fill="white" stroke="#666666" points="966,-140 814,-140 814,-110 966,-110 966,-140"/>
<text text-anchor="start" x="822" y="-128" font-family="Helvetica,sans-Serif" font-size="10.00">src/Rendering/FrameBuffers</text>
<text text-anchor="middle" x="890" y="-117" font-family="Helvetica,sans-Serif" font-size="10.00">/SceneFrameBuffer.cpp</text>
</a>
</g>
</g>
<!-- Node20&#45;&gt;Node21 -->
<g id="edge23_Node000020_Node000021" class="edge">
<title>Node20&#45;&gt;Node21</title>
<g id="a_edge23_Node000020_Node000021"><a xlink:title=" ">
<path fill="none" stroke="#63b8ff" d="M902.53,-166.11C899.81,-157.38 896.81,-147.78 894.43,-140.16"/>
<polygon fill="#63b8ff" stroke="#63b8ff" points="899.24,-167.3 905.56,-175.8 905.92,-165.21 899.24,-167.3"/>
</a>
</g>
</g>
<!-- Node22 -->
<g id="Node000022" class="node">
<title>Node22</title>
<g id="a_Node000022"><a xlink:href="_rendering_2_utils_8hpp.html" target="_top" xlink:title=" ">
<polygon fill="white" stroke="#666666" points="796,-134.5 666,-134.5 666,-115.5 796,-115.5 796,-134.5"/>
<text text-anchor="middle" x="731" y="-122.5" font-family="Helvetica,sans-Serif" font-size="10.00">src/Rendering/Utils.hpp</text>
</a>
</g>
</g>
<!-- Node20&#45;&gt;Node22 -->
<g id="edge24_Node000020_Node000022" class="edge">
<title>Node20&#45;&gt;Node22</title>
<g id="a_edge24_Node000020_Node000022"><a xlink:title=" ">
<path fill="none" stroke="#63b8ff" d="M861.27,-172.58C826.72,-160.23 781.87,-144.19 754.82,-134.52"/>
<polygon fill="#63b8ff" stroke="#63b8ff" points="860.12,-175.88 870.72,-175.95 862.48,-169.29 860.12,-175.88"/>
</a>
</g>
</g>
<!-- Node22&#45;&gt;Node7 -->
<g id="edge26_Node000022_Node000007" class="edge">
<title>Node22&#45;&gt;Node7</title>
<g id="a_edge26_Node000022_Node000007"><a xlink:title=" ">
<path fill="none" stroke="#63b8ff" d="M749.54,-108.72C762.9,-97.71 780.45,-83.25 791.48,-74.17"/>
<polygon fill="#63b8ff" stroke="#63b8ff" points="746.97,-106.31 741.48,-115.37 751.42,-111.71 746.97,-106.31"/>
</a>
</g>
</g>
<!-- Node23 -->
<g id="Node000023" class="node">
<title>Node23</title>
<g id="a_Node000023"><a xlink:href="_rendering_2_utils_8cpp.html" target="_top" xlink:title=" ">
<polygon fill="white" stroke="#666666" points="691.5,-74 562.5,-74 562.5,-55 691.5,-55 691.5,-74"/>
<text text-anchor="middle" x="627" y="-62" font-family="Helvetica,sans-Serif" font-size="10.00">src/Rendering/Utils.cpp</text>
</a>
</g>
</g>
<!-- Node22&#45;&gt;Node23 -->
<g id="edge25_Node000022_Node000023" class="edge">
<title>Node22&#45;&gt;Node23</title>
<g id="a_edge25_Node000022_Node000023"><a xlink:title=" ">
<path fill="none" stroke="#63b8ff" d="M706.86,-110.42C686.99,-99.24 659.41,-83.73 642.41,-74.17"/>
<polygon fill="#63b8ff" stroke="#63b8ff" points="705.22,-113.52 715.65,-115.37 708.65,-107.41 705.22,-113.52"/>
</a>
</g>
</g>
</g>
</svg>
