<?xml version="1.0" encoding="UTF-8" standalone="no"?>
<!DOCTYPE svg PUBLIC "-//W3C//DTD SVG 1.1//EN"
 "http://www.w3.org/Graphics/SVG/1.1/DTD/svg11.dtd">
<!-- Generated by graphviz version 2.43.0 (0)
 -->
<!-- Title: src/AssetManager/Image.hpp Pages: 1 -->
<svg width="1741pt" height="95pt"
 viewBox="0.00 0.00 1740.50 95.00" xmlns="http://www.w3.org/2000/svg" xmlns:xlink="http://www.w3.org/1999/xlink">
<g id="graph0" class="graph" transform="scale(1 1) rotate(0) translate(4 91)">
<title>src/AssetManager/Image.hpp</title>
<polygon fill="white" stroke="transparent" points="-4,4 -4,-91 1736.5,-91 1736.5,4 -4,4"/>
<!-- Node1 -->
<g id="node1" class="node">
<title>Node1</title>
<g id="a_node1"><a xlink:title=" ">
<polygon fill="#bfbfbf" stroke="black" points="840,-67.5 840,-86.5 998,-86.5 998,-67.5 840,-67.5"/>
<text text-anchor="middle" x="919" y="-74.5" font-family="Helvetica,sans-Serif" font-size="10.00">src/AssetManager/Image.hpp</text>
</a>
</g>
</g>
<!-- Node2 -->
<g id="node2" class="node">
<title>Node2</title>
<g id="a_node2"><a xlink:href="_image_8cpp.html" target="_top" xlink:title=" ">
<polygon fill="white" stroke="black" points="0,-6 0,-25 158,-25 158,-6 0,-6"/>
<text text-anchor="middle" x="79" y="-13" font-family="Helvetica,sans-Serif" font-size="10.00">src/AssetManager/Image.cpp</text>
</a>
</g>
</g>
<!-- Node1&#45;&gt;Node2 -->
<g id="edge1" class="edge">
<title>Node1&#45;&gt;Node2</title>
<path fill="none" stroke="midnightblue" d="M829.4,-73.64C688.19,-69.24 405.39,-57.7 167,-31 153.31,-29.47 138.5,-27.25 125,-25"/>
<polygon fill="midnightblue" stroke="midnightblue" points="829.63,-77.15 839.73,-73.95 829.85,-70.15 829.63,-77.15"/>
</g>
<!-- Node3 -->
<g id="node3" class="node">
<title>Node3</title>
<g id="a_node3"><a xlink:href="_directional_light_component_u_i_8cpp.html" target="_top" xlink:title=" ">
<polygon fill="white" stroke="black" points="176,-0.5 176,-30.5 340,-30.5 340,-0.5 176,-0.5"/>
<text text-anchor="start" x="184" y="-18.5" font-family="Helvetica,sans-Serif" font-size="10.00">src/ui/Components/Directional</text>
<text text-anchor="middle" x="258" y="-7.5" font-family="Helvetica,sans-Serif" font-size="10.00">LightComponentUI.cpp</text>
</a>
</g>
</g>
<!-- Node1&#45;&gt;Node3 -->
<g id="edge2" class="edge">
<title>Node1&#45;&gt;Node3</title>
<path fill="none" stroke="midnightblue" d="M829.7,-71.15C717.3,-64.53 518.43,-51.15 349,-31 346.14,-30.66 343.23,-30.3 340.3,-29.91"/>
<polygon fill="midnightblue" stroke="midnightblue" points="829.78,-74.66 839.97,-71.75 830.19,-67.67 829.78,-74.66"/>
</g>
<!-- Node4 -->
<g id="node4" class="node">
<title>Node4</title>
<g id="a_node4"><a xlink:href="_model_component_u_i_8cpp.html" target="_top" xlink:title=" ">
<polygon fill="white" stroke="black" points="358.5,-0.5 358.5,-30.5 555.5,-30.5 555.5,-0.5 358.5,-0.5"/>
<text text-anchor="start" x="366.5" y="-18.5" font-family="Helvetica,sans-Serif" font-size="10.00">src/ui/Components/ModelComponent</text>
<text text-anchor="middle" x="457" y="-7.5" font-family="Helvetica,sans-Serif" font-size="10.00">UI.cpp</text>
</a>
</g>
</g>
<!-- Node1&#45;&gt;Node4 -->
<g id="edge3" class="edge">
<title>Node1&#45;&gt;Node4</title>
<path fill="none" stroke="midnightblue" d="M839.92,-66.17C767.96,-57.18 658.82,-43.43 564,-31 561.21,-30.63 558.38,-30.26 555.53,-29.88"/>
<polygon fill="midnightblue" stroke="midnightblue" points="839.9,-69.7 850.26,-67.46 840.77,-62.75 839.9,-69.7"/>
</g>
<!-- Node5 -->
<g id="node5" class="node">
<title>Node5</title>
<g id="a_node5"><a xlink:href="_point_light_component_u_i_8cpp.html" target="_top" xlink:title=" ">
<polygon fill="white" stroke="black" points="573.5,-0.5 573.5,-30.5 732.5,-30.5 732.5,-0.5 573.5,-0.5"/>
<text text-anchor="start" x="581.5" y="-18.5" font-family="Helvetica,sans-Serif" font-size="10.00">src/ui/Components/PointLight</text>
<text text-anchor="middle" x="653" y="-7.5" font-family="Helvetica,sans-Serif" font-size="10.00">ComponentUI.cpp</text>
</a>
</g>
</g>
<!-- Node1&#45;&gt;Node5 -->
<g id="edge4" class="edge">
<title>Node1&#45;&gt;Node5</title>
<path fill="none" stroke="midnightblue" d="M871.13,-65.29C827.66,-55.57 763.26,-41.16 715.69,-30.52"/>
<polygon fill="midnightblue" stroke="midnightblue" points="870.37,-68.71 880.89,-67.48 871.89,-61.88 870.37,-68.71"/>
</g>
<!-- Node6 -->
<g id="node6" class="node">
<title>Node6</title>
<g id="a_node6"><a xlink:href="_transform_component_u_i_8hpp.html" target="_top" xlink:title=" ">
<polygon fill="white" stroke="black" points="750.5,-0.5 750.5,-30.5 909.5,-30.5 909.5,-0.5 750.5,-0.5"/>
<text text-anchor="start" x="758.5" y="-18.5" font-family="Helvetica,sans-Serif" font-size="10.00">src/ui/Components/Transform</text>
<text text-anchor="middle" x="830" y="-7.5" font-family="Helvetica,sans-Serif" font-size="10.00">ComponentUI.hpp</text>
</a>
</g>
</g>
<!-- Node1&#45;&gt;Node6 -->
<g id="edge5" class="edge">
<title>Node1&#45;&gt;Node6</title>
<path fill="none" stroke="midnightblue" d="M897.67,-61.74C883.52,-52.28 865.05,-39.93 850.98,-30.52"/>
<polygon fill="midnightblue" stroke="midnightblue" points="895.99,-64.83 906.25,-67.48 899.88,-59.01 895.99,-64.83"/>
</g>
<!-- Node7 -->
<g id="node7" class="node">
<title>Node7</title>
<g id="a_node7"><a xlink:href="_wireframe_component_u_i_8cpp.html" target="_top" xlink:title=" ">
<polygon fill="white" stroke="black" points="928,-0.5 928,-30.5 1090,-30.5 1090,-0.5 928,-0.5"/>
<text text-anchor="start" x="936" y="-18.5" font-family="Helvetica,sans-Serif" font-size="10.00">src/ui/Components/Wireframe</text>
<text text-anchor="middle" x="1009" y="-7.5" font-family="Helvetica,sans-Serif" font-size="10.00">ComponentUI.cpp</text>
</a>
</g>
</g>
<!-- Node1&#45;&gt;Node7 -->
<g id="edge6" class="edge">
<title>Node1&#45;&gt;Node7</title>
<path fill="none" stroke="midnightblue" d="M940.57,-61.74C954.88,-52.28 973.56,-39.93 987.79,-30.52"/>
<polygon fill="midnightblue" stroke="midnightblue" points="938.31,-59.04 931.89,-67.48 942.17,-64.88 938.31,-59.04"/>
</g>
<!-- Node8 -->
<g id="node8" class="node">
<title>Node8</title>
<g id="a_node8"><a xlink:href="_u_i_8cpp.html" target="_top" xlink:title=" ">
<polygon fill="white" stroke="black" points="1108.5,-6 1108.5,-25 1185.5,-25 1185.5,-6 1108.5,-6"/>
<text text-anchor="middle" x="1147" y="-13" font-family="Helvetica,sans-Serif" font-size="10.00">src/ui/UI.cpp</text>
</a>
</g>
</g>
<!-- Node1&#45;&gt;Node8 -->
<g id="edge7" class="edge">
<title>Node1&#45;&gt;Node8</title>
<path fill="none" stroke="midnightblue" d="M965.18,-65.1C1001.64,-56.35 1053.73,-43.49 1099,-31 1105.71,-29.15 1112.92,-27.04 1119.65,-25.01"/>
<polygon fill="midnightblue" stroke="midnightblue" points="964.25,-61.73 955.34,-67.46 965.88,-68.54 964.25,-61.73"/>
</g>
<!-- Node9 -->
<g id="node9" class="node">
<title>Node9</title>
<g id="a_node9"><a xlink:href="_console_widget_8cpp.html" target="_top" xlink:title=" ">
<polygon fill="white" stroke="black" points="1203.5,-6 1203.5,-25 1384.5,-25 1384.5,-6 1203.5,-6"/>
<text text-anchor="middle" x="1294" y="-13" font-family="Helvetica,sans-Serif" font-size="10.00">src/ui/widgets/ConsoleWidget.cpp</text>
</a>
</g>
</g>
<!-- Node1&#45;&gt;Node9 -->
<g id="edge8" class="edge">
<title>Node1&#45;&gt;Node9</title>
<path fill="none" stroke="midnightblue" d="M982.65,-65.9C1055.15,-54.4 1172.33,-35.8 1240.37,-25.01"/>
<polygon fill="midnightblue" stroke="midnightblue" points="982.06,-62.45 972.73,-67.48 983.15,-69.36 982.06,-62.45"/>
</g>
<!-- Node10 -->
<g id="node10" class="node">
<title>Node10</title>
<g id="a_node10"><a xlink:href="_filesystem_widget_8cpp.html" target="_top" xlink:title=" ">
<polygon fill="white" stroke="black" points="1403,-0.5 1403,-30.5 1543,-30.5 1543,-0.5 1403,-0.5"/>
<text text-anchor="start" x="1411" y="-18.5" font-family="Helvetica,sans-Serif" font-size="10.00">src/ui/widgets/Filesystem</text>
<text text-anchor="middle" x="1473" y="-7.5" font-family="Helvetica,sans-Serif" font-size="10.00">Widget.cpp</text>
</a>
</g>
</g>
<!-- Node1&#45;&gt;Node10 -->
<g id="edge9" class="edge">
<title>Node1&#45;&gt;Node10</title>
<path fill="none" stroke="midnightblue" d="M1008.46,-69.86C1104.15,-62.75 1260.22,-49.58 1394,-31 1396.9,-30.6 1399.86,-30.16 1402.84,-29.71"/>
<polygon fill="midnightblue" stroke="midnightblue" points="1007.96,-66.39 998.25,-70.61 1008.48,-73.37 1007.96,-66.39"/>
</g>
<!-- Node11 -->
<g id="node11" class="node">
<title>Node11</title>
<g id="a_node11"><a xlink:href="_scene_widget_8cpp.html" target="_top" xlink:title=" ">
<polygon fill="white" stroke="black" points="1561.5,-6 1561.5,-25 1732.5,-25 1732.5,-6 1561.5,-6"/>
<text text-anchor="middle" x="1647" y="-13" font-family="Helvetica,sans-Serif" font-size="10.00">src/ui/widgets/SceneWidget.cpp</text>
</a>
</g>
</g>
<!-- Node1&#45;&gt;Node11 -->
<g id="edge10" class="edge">
<title>Node1&#45;&gt;Node11</title>
<path fill="none" stroke="midnightblue" d="M1008.23,-71.92C1130.98,-65.8 1358.71,-52.59 1552,-31 1566.43,-29.39 1582.02,-27.2 1596.32,-25.01"/>
<polygon fill="midnightblue" stroke="midnightblue" points="1007.95,-68.43 998.13,-72.42 1008.29,-75.43 1007.95,-68.43"/>
</g>
</g>
</svg>
