<?xml version="1.0" encoding="UTF-8" standalone="no"?>
<!DOCTYPE svg PUBLIC "-//W3C//DTD SVG 1.1//EN"
 "http://www.w3.org/Graphics/SVG/1.1/DTD/svg11.dtd">
<!-- Generated by graphviz version 2.43.0 (0)
 -->
<!-- Title: src/AssetManager/Image.cpp Pages: 1 -->
<svg width="657pt" height="313pt"
 viewBox="0.00 0.00 657.00 313.00" xmlns="http://www.w3.org/2000/svg" xmlns:xlink="http://www.w3.org/1999/xlink">
<g id="graph0" class="graph" transform="scale(1 1) rotate(0) translate(4 309)">
<title>src/AssetManager/Image.cpp</title>
<!-- Node1 -->
<g id="Node000001" class="node">
<title>Node1</title>
<g id="a_Node000001"><a xlink:title=" ">
<polygon fill="#999999" stroke="#666666" points="251,-305 93,-305 93,-286 251,-286 251,-305"/>
<text text-anchor="middle" x="172" y="-293" font-family="Helvetica,sans-Serif" font-size="10.00">src/AssetManager/Image.cpp</text>
</a>
</g>
</g>
<!-- Node2 -->
<g id="Node000002" class="node">
<title>Node2</title>
<g id="a_Node000002"><a xlink:title=" ">
<polygon fill="#e0e0e0" stroke="#999999" points="60,-250 0,-250 0,-231 60,-231 60,-250"/>
<text text-anchor="middle" x="30" y="-238" font-family="Helvetica,sans-Serif" font-size="10.00">iostream</text>
</a>
</g>
</g>
<!-- Node1&#45;&gt;Node2 -->
<g id="edge1_Node000001_Node000002" class="edge">
<title>Node1&#45;&gt;Node2</title>
<g id="a_edge1_Node000001_Node000002"><a xlink:title=" ">
<path fill="none" stroke="#63b8ff" d="M149.19,-285.98C125.83,-277.27 89.3,-263.63 62.83,-253.75"/>
<polygon fill="#63b8ff" stroke="#63b8ff" points="63.82,-250.39 53.23,-250.17 61.37,-256.95 63.82,-250.39"/>
</a>
</g>
</g>
<!-- Node3 -->
<g id="Node000003" class="node">
<title>Node3</title>
<g id="a_Node000003"><a xlink:title=" ">
<polygon fill="#e0e0e0" stroke="#999999" points="155.5,-250 78.5,-250 78.5,-231 155.5,-231 155.5,-250"/>
<text text-anchor="middle" x="117" y="-238" font-family="Helvetica,sans-Serif" font-size="10.00">stb_image.h</text>
</a>
</g>
</g>
<!-- Node1&#45;&gt;Node3 -->
<g id="edge2_Node000001_Node000003" class="edge">
<title>Node1&#45;&gt;Node3</title>
<g id="a_edge2_Node000001_Node000003"><a xlink:title=" ">
<path fill="none" stroke="#63b8ff" d="M162.92,-285.75C154.91,-278.03 143.04,-266.6 133.38,-257.28"/>
<polygon fill="#63b8ff" stroke="#63b8ff" points="135.54,-254.51 125.91,-250.09 130.69,-259.55 135.54,-254.51"/>
</a>
</g>
</g>
<!-- Node4 -->
<g id="Node000004" class="node">
<title>Node4</title>
<g id="a_Node000004"><a xlink:title=" ">
<polygon fill="#e0e0e0" stroke="#999999" points="280.5,-250 173.5,-250 173.5,-231 280.5,-231 280.5,-250"/>
<text text-anchor="middle" x="227" y="-238" font-family="Helvetica,sans-Serif" font-size="10.00">stb_image_write.h</text>
</a>
</g>
</g>
<!-- Node1&#45;&gt;Node4 -->
<g id="edge3_Node000001_Node000004" class="edge">
<title>Node1&#45;&gt;Node4</title>
<g id="a_edge3_Node000001_Node000004"><a xlink:title=" ">
<path fill="none" stroke="#63b8ff" d="M181.08,-285.75C189.09,-278.03 200.96,-266.6 210.62,-257.28"/>
<polygon fill="#63b8ff" stroke="#63b8ff" points="213.31,-259.55 218.09,-250.09 208.46,-254.51 213.31,-259.55"/>
</a>
</g>
</g>
<!-- Node5 -->
<g id="Node000005" class="node">
<title>Node5</title>
<g id="a_Node000005"><a xlink:href="_image_8hpp.html" target="_top" xlink:title=" ">
<polygon fill="white" stroke="#666666" points="439.5,-250 298.5,-250 298.5,-231 439.5,-231 439.5,-250"/>
<text text-anchor="middle" x="369" y="-238" font-family="Helvetica,sans-Serif" font-size="10.00">AssetManager/Image.hpp</text>
</a>
</g>
</g>
<!-- Node1&#45;&gt;Node5 -->
<g id="edge4_Node000001_Node000005" class="edge">
<title>Node1&#45;&gt;Node5</title>
<g id="a_edge4_Node000001_Node000005"><a xlink:title=" ">
<path fill="none" stroke="#63b8ff" d="M203.65,-285.98C237.16,-276.97 290.2,-262.7 327.14,-252.76"/>
<polygon fill="#63b8ff" stroke="#63b8ff" points="328.35,-256.06 337.1,-250.08 326.53,-249.3 328.35,-256.06"/>
</a>
</g>
</g>
<!-- Node6 -->
<g id="Node000006" class="node">
<title>Node6</title>
<g id="a_Node000006"><a xlink:title=" ">
<polygon fill="#e0e0e0" stroke="#999999" points="345,-129 277,-129 277,-110 345,-110 345,-129"/>
<text text-anchor="middle" x="311" y="-117" font-family="Helvetica,sans-Serif" font-size="10.00">filesystem</text>
</a>
</g>
</g>
<!-- Node5&#45;&gt;Node6 -->
<g id="edge5_Node000005_Node000006" class="edge">
<title>Node5&#45;&gt;Node6</title>
<g id="a_edge5_Node000005_Node000006"><a xlink:title=" ">
<path fill="none" stroke="#63b8ff" d="M359.21,-230.93C350.32,-222.6 337.47,-209.18 330,-195 320.69,-177.32 315.77,-154.85 313.29,-139.23"/>
<polygon fill="#63b8ff" stroke="#63b8ff" points="316.75,-138.65 311.89,-129.24 309.81,-139.63 316.75,-138.65"/>
</a>
</g>
</g>
<!-- Node7 -->
<g id="Node000007" class="node">
<title>Node7</title>
<g id="a_Node000007"><a xlink:href="_path_constructible_asset_8hpp.html" target="_top" xlink:title=" ">
<polygon fill="white" stroke="#666666" points="514.5,-195 339.5,-195 339.5,-165 514.5,-165 514.5,-195"/>
<text text-anchor="start" x="347.5" y="-183" font-family="Helvetica,sans-Serif" font-size="10.00">AssetManager/PathConstructible</text>
<text text-anchor="middle" x="427" y="-172" font-family="Helvetica,sans-Serif" font-size="10.00">Asset.hpp</text>
</a>
</g>
</g>
<!-- Node5&#45;&gt;Node7 -->
<g id="edge6_Node000005_Node000007" class="edge">
<title>Node5&#45;&gt;Node7</title>
<g id="a_edge6_Node000005_Node000007"><a xlink:title=" ">
<path fill="none" stroke="#63b8ff" d="M377.56,-230.87C384.99,-223.37 396.07,-212.2 405.86,-202.33"/>
<polygon fill="#63b8ff" stroke="#63b8ff" points="408.45,-204.68 413.01,-195.11 403.48,-199.75 408.45,-204.68"/>
</a>
</g>
</g>
<!-- Node7&#45;&gt;Node6 -->
<g id="edge7_Node000007_Node000006" class="edge">
<title>Node7&#45;&gt;Node6</title>
<g id="a_edge7_Node000007_Node000006"><a xlink:title=" ">
<path fill="none" stroke="#63b8ff" d="M399.22,-164.99C380.38,-155.49 355.65,-143.02 337.16,-133.69"/>
<polygon fill="#63b8ff" stroke="#63b8ff" points="338.64,-130.52 328.13,-129.14 335.48,-136.77 338.64,-130.52"/>
</a>
</g>
</g>
<!-- Node8 -->
<g id="Node000008" class="node">
<title>Node8</title>
<g id="a_Node000008"><a xlink:href="_instance_counter_8hpp.html" target="_top" xlink:title=" ">
<polygon fill="white" stroke="#666666" points="527,-129 363,-129 363,-110 527,-110 527,-129"/>
<text text-anchor="middle" x="445" y="-117" font-family="Helvetica,sans-Serif" font-size="10.00">Common/InstanceCounter.hpp</text>
</a>
</g>
</g>
<!-- Node7&#45;&gt;Node8 -->
<g id="edge8_Node000007_Node000008" class="edge">
<title>Node7&#45;&gt;Node8</title>
<g id="a_edge8_Node000007_Node000008"><a xlink:title=" ">
<path fill="none" stroke="#63b8ff" d="M431.36,-164.84C433.76,-157.04 436.76,-147.27 439.34,-138.89"/>
<polygon fill="#63b8ff" stroke="#63b8ff" points="442.71,-139.85 442.3,-129.27 436.02,-137.79 442.71,-139.85"/>
</a>
</g>
</g>
<!-- Node9 -->
<g id="Node000009" class="node">
<title>Node9</title>
<g id="a_Node000009"><a xlink:title=" ">
<polygon fill="#e0e0e0" stroke="#999999" points="419,-74 369,-74 369,-55 419,-55 419,-74"/>
<text text-anchor="middle" x="394" y="-62" font-family="Helvetica,sans-Serif" font-size="10.00">atomic</text>
</a>
</g>
</g>
<!-- Node8&#45;&gt;Node9 -->
<g id="edge9_Node000008_Node000009" class="edge">
<title>Node8&#45;&gt;Node9</title>
<g id="a_edge9_Node000008_Node000009"><a xlink:title=" ">
<path fill="none" stroke="#63b8ff" d="M436.58,-109.75C429.23,-102.11 418.37,-90.82 409.46,-81.56"/>
<polygon fill="#63b8ff" stroke="#63b8ff" points="411.72,-78.87 402.26,-74.09 406.68,-83.72 411.72,-78.87"/>
</a>
</g>
</g>
<!-- Node10 -->
<g id="Node000010" class="node">
<title>Node10</title>
<g id="a_Node000010"><a xlink:href="_profiler_8hpp.html" target="_top" xlink:title=" ">
<polygon fill="white" stroke="#666666" points="556.5,-74 437.5,-74 437.5,-55 556.5,-55 556.5,-74"/>
<text text-anchor="middle" x="497" y="-62" font-family="Helvetica,sans-Serif" font-size="10.00">Common/Profiler.hpp</text>
</a>
</g>
</g>
<!-- Node8&#45;&gt;Node10 -->
<g id="edge10_Node000008_Node000010" class="edge">
<title>Node8&#45;&gt;Node10</title>
<g id="a_edge10_Node000008_Node000010"><a xlink:title=" ">
<path fill="none" stroke="#63b8ff" d="M453.59,-109.75C461.16,-102.03 472.38,-90.6 481.51,-81.28"/>
<polygon fill="#63b8ff" stroke="#63b8ff" points="484.07,-83.68 488.57,-74.09 479.07,-78.78 484.07,-83.68"/>
</a>
</g>
</g>
<!-- Node11 -->
<g id="Node000011" class="node">
<title>Node11</title>
<g id="a_Node000011"><a xlink:title=" ">
<polygon fill="#e0e0e0" stroke="#999999" points="399,-19 349,-19 349,0 399,0 399,-19"/>
<text text-anchor="middle" x="374" y="-7" font-family="Helvetica,sans-Serif" font-size="10.00">chrono</text>
</a>
</g>
</g>
<!-- Node10&#45;&gt;Node11 -->
<g id="edge11_Node000010_Node000011" class="edge">
<title>Node10&#45;&gt;Node11</title>
<g id="a_edge11_Node000010_Node000011"><a xlink:title=" ">
<path fill="none" stroke="#63b8ff" d="M477.24,-54.98C457.27,-46.38 426.2,-32.99 403.35,-23.15"/>
<polygon fill="#63b8ff" stroke="#63b8ff" points="404.69,-19.91 394.12,-19.17 401.92,-26.34 404.69,-19.91"/>
</a>
</g>
</g>
<!-- Node12 -->
<g id="Node000012" class="node">
<title>Node12</title>
<g id="a_Node000012"><a xlink:title=" ">
<polygon fill="#e0e0e0" stroke="#999999" points="455,-19 417,-19 417,0 455,0 455,-19"/>
<text text-anchor="middle" x="436" y="-7" font-family="Helvetica,sans-Serif" font-size="10.00">map</text>
</a>
</g>
</g>
<!-- Node10&#45;&gt;Node12 -->
<g id="edge12_Node000010_Node000012" class="edge">
<title>Node10&#45;&gt;Node12</title>
<g id="a_edge12_Node000010_Node000012"><a xlink:title=" ">
<path fill="none" stroke="#63b8ff" d="M487.2,-54.98C478.18,-47.15 464.59,-35.34 453.68,-25.86"/>
<polygon fill="#63b8ff" stroke="#63b8ff" points="455.82,-23.09 445.98,-19.17 451.23,-28.37 455.82,-23.09"/>
</a>
</g>
</g>
<!-- Node13 -->
<g id="Node000013" class="node">
<title>Node13</title>
<g id="a_Node000013"><a xlink:title=" ">
<polygon fill="#e0e0e0" stroke="#999999" points="521,-19 473,-19 473,0 521,0 521,-19"/>
<text text-anchor="middle" x="497" y="-7" font-family="Helvetica,sans-Serif" font-size="10.00">mutex</text>
</a>
</g>
</g>
<!-- Node10&#45;&gt;Node13 -->
<g id="edge13_Node000010_Node000013" class="edge">
<title>Node10&#45;&gt;Node13</title>
<g id="a_edge13_Node000010_Node000013"><a xlink:title=" ">
<path fill="none" stroke="#63b8ff" d="M497,-54.75C497,-47.8 497,-37.85 497,-29.13"/>
<polygon fill="#63b8ff" stroke="#63b8ff" points="500.5,-29.09 497,-19.09 493.5,-29.09 500.5,-29.09"/>
</a>
</g>
</g>
<!-- Node14 -->
<g id="Node000014" class="node">
<title>Node14</title>
<g id="a_Node000014"><a xlink:title=" ">
<polygon fill="#e0e0e0" stroke="#999999" points="583,-19 539,-19 539,0 583,0 583,-19"/>
<text text-anchor="middle" x="561" y="-7" font-family="Helvetica,sans-Serif" font-size="10.00">string</text>
</a>
</g>
</g>
<!-- Node10&#45;&gt;Node14 -->
<g id="edge14_Node000010_Node000014" class="edge">
<title>Node10&#45;&gt;Node14</title>
<g id="a_edge14_Node000010_Node000014"><a xlink:title=" ">
<path fill="none" stroke="#63b8ff" d="M507.28,-54.98C516.84,-47.07 531.28,-35.11 542.78,-25.58"/>
<polygon fill="#63b8ff" stroke="#63b8ff" points="545.06,-28.24 550.53,-19.17 540.6,-22.85 545.06,-28.24"/>
</a>
</g>
</g>
<!-- Node15 -->
<g id="Node000015" class="node">
<title>Node15</title>
<g id="a_Node000015"><a xlink:title=" ">
<polygon fill="#e0e0e0" stroke="#999999" points="649,-19 601,-19 601,0 649,0 649,-19"/>
<text text-anchor="middle" x="625" y="-7" font-family="Helvetica,sans-Serif" font-size="10.00">thread</text>
</a>
</g>
</g>
<!-- Node10&#45;&gt;Node15 -->
<g id="edge15_Node000010_Node000015" class="edge">
<title>Node10&#45;&gt;Node15</title>
<g id="a_edge15_Node000010_Node000015"><a xlink:title=" ">
<path fill="none" stroke="#63b8ff" d="M517.57,-54.98C538.43,-46.34 570.97,-32.87 594.77,-23.02"/>
<polygon fill="#63b8ff" stroke="#63b8ff" points="596.16,-26.23 604.06,-19.17 593.48,-19.76 596.16,-26.23"/>
</a>
</g>
</g>
</g>
</svg>
