<?xml version="1.0" encoding="UTF-8" standalone="no"?>
<!DOCTYPE svg PUBLIC "-//W3C//DTD SVG 1.1//EN"
 "http://www.w3.org/Graphics/SVG/1.1/DTD/svg11.dtd">
<!-- Generated by graphviz version 2.43.0 (0)
 -->
<!-- Title: src/core/Image.hpp Pages: 1 -->
<svg width="1091pt" height="95pt"
 viewBox="0.00 0.00 1091.00 95.00" xmlns="http://www.w3.org/2000/svg" xmlns:xlink="http://www.w3.org/1999/xlink">
<g id="graph0" class="graph" transform="scale(1 1) rotate(0) translate(4 91)">
<title>src/core/Image.hpp</title>
<polygon fill="white" stroke="transparent" points="-4,4 -4,-91 1087,-91 1087,4 -4,4"/>
<!-- Node1 -->
<g id="node1" class="node">
<title>Node1</title>
<g id="a_node1"><a xlink:title=" ">
<polygon fill="#bfbfbf" stroke="black" points="442.5,-67.5 442.5,-86.5 552.5,-86.5 552.5,-67.5 442.5,-67.5"/>
<text text-anchor="middle" x="497.5" y="-74.5" font-family="Helvetica,sans-Serif" font-size="10.00">src/core/Image.hpp</text>
</a>
</g>
</g>
<!-- Node2 -->
<g id="node2" class="node">
<title>Node2</title>
<g id="a_node2"><a xlink:href="_image_8cpp.html" target="_top" xlink:title=" ">
<polygon fill="white" stroke="black" points="0,-6 0,-25 109,-25 109,-6 0,-6"/>
<text text-anchor="middle" x="54.5" y="-13" font-family="Helvetica,sans-Serif" font-size="10.00">src/core/Image.cpp</text>
</a>
</g>
</g>
<!-- Node1&#45;&gt;Node2 -->
<g id="edge1" class="edge">
<title>Node1&#45;&gt;Node2</title>
<path fill="none" stroke="midnightblue" d="M432.12,-70.43C356.16,-63.45 227.21,-50.06 117.5,-31 107.99,-29.35 97.76,-27.17 88.37,-25"/>
<polygon fill="midnightblue" stroke="midnightblue" points="432.21,-73.95 442.48,-71.37 432.84,-66.98 432.21,-73.95"/>
</g>
<!-- Node3 -->
<g id="node3" class="node">
<title>Node3</title>
<g id="a_node3"><a xlink:href="_script_u_i_component_8cpp.html" target="_top" xlink:title=" ">
<polygon fill="white" stroke="black" points="127,-0.5 127,-30.5 264,-30.5 264,-0.5 127,-0.5"/>
<text text-anchor="start" x="135" y="-18.5" font-family="Helvetica,sans-Serif" font-size="10.00">src/ui/components/Script</text>
<text text-anchor="middle" x="195.5" y="-7.5" font-family="Helvetica,sans-Serif" font-size="10.00">UIComponent.cpp</text>
</a>
</g>
</g>
<!-- Node1&#45;&gt;Node3 -->
<g id="edge2" class="edge">
<title>Node1&#45;&gt;Node3</title>
<path fill="none" stroke="midnightblue" d="M444.24,-65.51C394.08,-55.62 318.7,-40.77 264.07,-30.01"/>
<polygon fill="midnightblue" stroke="midnightblue" points="443.74,-68.98 454.23,-67.48 445.1,-62.11 443.74,-68.98"/>
</g>
<!-- Node4 -->
<g id="node4" class="node">
<title>Node4</title>
<g id="a_node4"><a xlink:href="_transform_u_i_component_8cpp.html" target="_top" xlink:title=" ">
<polygon fill="white" stroke="black" points="282.5,-0.5 282.5,-30.5 440.5,-30.5 440.5,-0.5 282.5,-0.5"/>
<text text-anchor="start" x="290.5" y="-18.5" font-family="Helvetica,sans-Serif" font-size="10.00">src/ui/components/Transform</text>
<text text-anchor="middle" x="361.5" y="-7.5" font-family="Helvetica,sans-Serif" font-size="10.00">UIComponent.cpp</text>
</a>
</g>
</g>
<!-- Node1&#45;&gt;Node4 -->
<g id="edge3" class="edge">
<title>Node1&#45;&gt;Node4</title>
<path fill="none" stroke="midnightblue" d="M468.84,-63.46C446.81,-53.82 416.39,-40.51 393.55,-30.52"/>
<polygon fill="midnightblue" stroke="midnightblue" points="467.45,-66.67 478.01,-67.48 470.26,-60.26 467.45,-66.67"/>
</g>
<!-- Node5 -->
<g id="node5" class="node">
<title>Node5</title>
<g id="a_node5"><a xlink:href="_u_i_8cpp.html" target="_top" xlink:title=" ">
<polygon fill="white" stroke="black" points="459,-6 459,-25 536,-25 536,-6 459,-6"/>
<text text-anchor="middle" x="497.5" y="-13" font-family="Helvetica,sans-Serif" font-size="10.00">src/ui/UI.cpp</text>
</a>
</g>
</g>
<!-- Node1&#45;&gt;Node5 -->
<g id="edge4" class="edge">
<title>Node1&#45;&gt;Node5</title>
<path fill="none" stroke="midnightblue" d="M497.5,-57.32C497.5,-46.5 497.5,-33.4 497.5,-25.01"/>
<polygon fill="midnightblue" stroke="midnightblue" points="494,-57.48 497.5,-67.48 501,-57.48 494,-57.48"/>
</g>
<!-- Node6 -->
<g id="node6" class="node">
<title>Node6</title>
<g id="a_node6"><a xlink:href="_console_widget_8cpp.html" target="_top" xlink:title=" ">
<polygon fill="white" stroke="black" points="554,-6 554,-25 735,-25 735,-6 554,-6"/>
<text text-anchor="middle" x="644.5" y="-13" font-family="Helvetica,sans-Serif" font-size="10.00">src/ui/widgets/ConsoleWidget.cpp</text>
</a>
</g>
</g>
<!-- Node1&#45;&gt;Node6 -->
<g id="edge5" class="edge">
<title>Node1&#45;&gt;Node6</title>
<path fill="none" stroke="midnightblue" d="M528.06,-63.63C556.62,-52.07 598.5,-35.12 623.48,-25.01"/>
<polygon fill="midnightblue" stroke="midnightblue" points="526.52,-60.48 518.56,-67.48 529.14,-66.97 526.52,-60.48"/>
</g>
<!-- Node7 -->
<g id="node7" class="node">
<title>Node7</title>
<g id="a_node7"><a xlink:href="_filesystem_widget_8cpp.html" target="_top" xlink:title=" ">
<polygon fill="white" stroke="black" points="753.5,-0.5 753.5,-30.5 893.5,-30.5 893.5,-0.5 753.5,-0.5"/>
<text text-anchor="start" x="761.5" y="-18.5" font-family="Helvetica,sans-Serif" font-size="10.00">src/ui/widgets/Filesystem</text>
<text text-anchor="middle" x="823.5" y="-7.5" font-family="Helvetica,sans-Serif" font-size="10.00">Widget.cpp</text>
</a>
</g>
</g>
<!-- Node1&#45;&gt;Node7 -->
<g id="edge6" class="edge">
<title>Node1&#45;&gt;Node7</title>
<path fill="none" stroke="midnightblue" d="M554.38,-65.66C604.44,-56.55 679.32,-42.92 744.5,-31 747.38,-30.47 750.32,-29.94 753.29,-29.39"/>
<polygon fill="midnightblue" stroke="midnightblue" points="553.61,-62.24 544.4,-67.48 554.86,-69.13 553.61,-62.24"/>
</g>
<!-- Node8 -->
<g id="node8" class="node">
<title>Node8</title>
<g id="a_node8"><a xlink:href="_scene_widget_8cpp.html" target="_top" xlink:title=" ">
<polygon fill="white" stroke="black" points="912,-6 912,-25 1083,-25 1083,-6 912,-6"/>
<text text-anchor="middle" x="997.5" y="-13" font-family="Helvetica,sans-Serif" font-size="10.00">src/ui/widgets/SceneWidget.cpp</text>
</a>
</g>
</g>
<!-- Node1&#45;&gt;Node8 -->
<g id="edge7" class="edge">
<title>Node1&#45;&gt;Node8</title>
<path fill="none" stroke="midnightblue" d="M563.04,-69.55C643.22,-61.46 783.02,-46.75 902.5,-31 916.06,-29.21 930.69,-27.08 944.29,-25.01"/>
<polygon fill="midnightblue" stroke="midnightblue" points="562.21,-66.11 552.61,-70.6 562.91,-73.08 562.21,-66.11"/>
</g>
</g>
</svg>
