<?xml version="1.0" encoding="UTF-8" standalone="no"?>
<!DOCTYPE svg PUBLIC "-//W3C//DTD SVG 1.1//EN"
 "http://www.w3.org/Graphics/SVG/1.1/DTD/svg11.dtd">
<!-- Generated by graphviz version 2.43.0 (0)
 -->
<!-- Title: src/AssetManager/Image.hpp Pages: 1 -->
<svg width="1559pt" height="95pt"
 viewBox="0.00 0.00 1558.50 95.00" xmlns="http://www.w3.org/2000/svg" xmlns:xlink="http://www.w3.org/1999/xlink">
<g id="graph0" class="graph" transform="scale(1 1) rotate(0) translate(4 91)">
<title>src/AssetManager/Image.hpp</title>
<polygon fill="white" stroke="transparent" points="-4,4 -4,-91 1554.5,-91 1554.5,4 -4,4"/>
<!-- Node1 -->
<g id="node1" class="node">
<title>Node1</title>
<g id="a_node1"><a xlink:title=" ">
<polygon fill="#bfbfbf" stroke="black" points="748,-67.5 748,-86.5 906,-86.5 906,-67.5 748,-67.5"/>
<text text-anchor="middle" x="827" y="-74.5" font-family="Helvetica,sans-Serif" font-size="10.00">src/AssetManager/Image.hpp</text>
</a>
</g>
</g>
<!-- Node2 -->
<g id="node2" class="node">
<title>Node2</title>
<g id="a_node2"><a xlink:href="_image_8cpp.html" target="_top" xlink:title=" ">
<polygon fill="white" stroke="black" points="0,-6 0,-25 158,-25 158,-6 0,-6"/>
<text text-anchor="middle" x="79" y="-13" font-family="Helvetica,sans-Serif" font-size="10.00">src/AssetManager/Image.cpp</text>
</a>
</g>
</g>
<!-- Node1&#45;&gt;Node2 -->
<g id="edge1" class="edge">
<title>Node1&#45;&gt;Node2</title>
<path fill="none" stroke="midnightblue" d="M737.71,-72.61C610.63,-67.18 370.4,-54.64 167,-31 153.47,-29.43 138.84,-27.22 125.47,-25.01"/>
<polygon fill="midnightblue" stroke="midnightblue" points="737.65,-76.11 747.79,-73.04 737.94,-69.12 737.65,-76.11"/>
</g>
<!-- Node3 -->
<g id="node3" class="node">
<title>Node3</title>
<g id="a_node3"><a xlink:href="_model_component_u_i_8cpp.html" target="_top" xlink:title=" ">
<polygon fill="white" stroke="black" points="176.5,-0.5 176.5,-30.5 373.5,-30.5 373.5,-0.5 176.5,-0.5"/>
<text text-anchor="start" x="184.5" y="-18.5" font-family="Helvetica,sans-Serif" font-size="10.00">src/ui/Components/ModelComponent</text>
<text text-anchor="middle" x="275" y="-7.5" font-family="Helvetica,sans-Serif" font-size="10.00">UI.cpp</text>
</a>
</g>
</g>
<!-- Node1&#45;&gt;Node3 -->
<g id="edge2" class="edge">
<title>Node1&#45;&gt;Node3</title>
<path fill="none" stroke="midnightblue" d="M737.57,-67.86C647.65,-59.45 505.07,-45.56 382,-31 379.21,-30.67 376.37,-30.33 373.52,-29.98"/>
<polygon fill="midnightblue" stroke="midnightblue" points="737.45,-71.36 747.73,-68.8 738.1,-64.39 737.45,-71.36"/>
</g>
<!-- Node4 -->
<g id="node4" class="node">
<title>Node4</title>
<g id="a_node4"><a xlink:href="_point_light_component_u_i_8cpp.html" target="_top" xlink:title=" ">
<polygon fill="white" stroke="black" points="391.5,-0.5 391.5,-30.5 550.5,-30.5 550.5,-0.5 391.5,-0.5"/>
<text text-anchor="start" x="399.5" y="-18.5" font-family="Helvetica,sans-Serif" font-size="10.00">src/ui/Components/PointLight</text>
<text text-anchor="middle" x="471" y="-7.5" font-family="Helvetica,sans-Serif" font-size="10.00">ComponentUI.cpp</text>
</a>
</g>
</g>
<!-- Node1&#45;&gt;Node4 -->
<g id="edge3" class="edge">
<title>Node1&#45;&gt;Node4</title>
<path fill="none" stroke="midnightblue" d="M766.01,-65.81C706.59,-55.88 615.94,-40.73 550.82,-29.84"/>
<polygon fill="midnightblue" stroke="midnightblue" points="765.55,-69.28 775.99,-67.48 766.71,-62.37 765.55,-69.28"/>
</g>
<!-- Node5 -->
<g id="node5" class="node">
<title>Node5</title>
<g id="a_node5"><a xlink:href="_transform_component_u_i_8hpp.html" target="_top" xlink:title=" ">
<polygon fill="white" stroke="black" points="568.5,-0.5 568.5,-30.5 727.5,-30.5 727.5,-0.5 568.5,-0.5"/>
<text text-anchor="start" x="576.5" y="-18.5" font-family="Helvetica,sans-Serif" font-size="10.00">src/ui/Components/Transform</text>
<text text-anchor="middle" x="648" y="-7.5" font-family="Helvetica,sans-Serif" font-size="10.00">ComponentUI.hpp</text>
</a>
</g>
</g>
<!-- Node1&#45;&gt;Node5 -->
<g id="edge4" class="edge">
<title>Node1&#45;&gt;Node5</title>
<path fill="none" stroke="midnightblue" d="M791.59,-64.23C762.44,-54.54 721.05,-40.78 690.19,-30.52"/>
<polygon fill="midnightblue" stroke="midnightblue" points="790.76,-67.64 801.35,-67.48 792.97,-61 790.76,-67.64"/>
</g>
<!-- Node6 -->
<g id="node6" class="node">
<title>Node6</title>
<g id="a_node6"><a xlink:href="_wireframe_component_u_i_8cpp.html" target="_top" xlink:title=" ">
<polygon fill="white" stroke="black" points="746,-0.5 746,-30.5 908,-30.5 908,-0.5 746,-0.5"/>
<text text-anchor="start" x="754" y="-18.5" font-family="Helvetica,sans-Serif" font-size="10.00">src/ui/Components/Wireframe</text>
<text text-anchor="middle" x="827" y="-7.5" font-family="Helvetica,sans-Serif" font-size="10.00">ComponentUI.cpp</text>
</a>
</g>
</g>
<!-- Node1&#45;&gt;Node6 -->
<g id="edge5" class="edge">
<title>Node1&#45;&gt;Node6</title>
<path fill="none" stroke="midnightblue" d="M827,-57.23C827,-48.59 827,-38.5 827,-30.52"/>
<polygon fill="midnightblue" stroke="midnightblue" points="823.5,-57.48 827,-67.48 830.5,-57.48 823.5,-57.48"/>
</g>
<!-- Node7 -->
<g id="node7" class="node">
<title>Node7</title>
<g id="a_node7"><a xlink:href="_u_i_8cpp.html" target="_top" xlink:title=" ">
<polygon fill="white" stroke="black" points="926.5,-6 926.5,-25 1003.5,-25 1003.5,-6 926.5,-6"/>
<text text-anchor="middle" x="965" y="-13" font-family="Helvetica,sans-Serif" font-size="10.00">src/ui/UI.cpp</text>
</a>
</g>
</g>
<!-- Node1&#45;&gt;Node7 -->
<g id="edge6" class="edge">
<title>Node1&#45;&gt;Node7</title>
<path fill="none" stroke="midnightblue" d="M856.04,-63.48C882.84,-51.92 921.92,-35.08 945.26,-25.01"/>
<polygon fill="midnightblue" stroke="midnightblue" points="854.57,-60.3 846.77,-67.48 857.34,-66.73 854.57,-60.3"/>
</g>
<!-- Node8 -->
<g id="node8" class="node">
<title>Node8</title>
<g id="a_node8"><a xlink:href="_console_widget_8cpp.html" target="_top" xlink:title=" ">
<polygon fill="white" stroke="black" points="1021.5,-6 1021.5,-25 1202.5,-25 1202.5,-6 1021.5,-6"/>
<text text-anchor="middle" x="1112" y="-13" font-family="Helvetica,sans-Serif" font-size="10.00">src/ui/widgets/ConsoleWidget.cpp</text>
</a>
</g>
</g>
<!-- Node1&#45;&gt;Node8 -->
<g id="edge7" class="edge">
<title>Node1&#45;&gt;Node8</title>
<path fill="none" stroke="midnightblue" d="M877.76,-65.4C933.01,-53.87 1020.27,-35.65 1071.24,-25.01"/>
<polygon fill="midnightblue" stroke="midnightblue" points="876.91,-62.01 867.83,-67.48 878.34,-68.86 876.91,-62.01"/>
</g>
<!-- Node9 -->
<g id="node9" class="node">
<title>Node9</title>
<g id="a_node9"><a xlink:href="_filesystem_widget_8cpp.html" target="_top" xlink:title=" ">
<polygon fill="white" stroke="black" points="1221,-0.5 1221,-30.5 1361,-30.5 1361,-0.5 1221,-0.5"/>
<text text-anchor="start" x="1229" y="-18.5" font-family="Helvetica,sans-Serif" font-size="10.00">src/ui/widgets/Filesystem</text>
<text text-anchor="middle" x="1291" y="-7.5" font-family="Helvetica,sans-Serif" font-size="10.00">Widget.cpp</text>
</a>
</g>
</g>
<!-- Node1&#45;&gt;Node9 -->
<g id="edge8" class="edge">
<title>Node1&#45;&gt;Node9</title>
<path fill="none" stroke="midnightblue" d="M916.39,-67.22C994.56,-59.14 1111.05,-46.15 1212,-31 1214.9,-30.57 1217.85,-30.1 1220.83,-29.62"/>
<polygon fill="midnightblue" stroke="midnightblue" points="915.69,-63.77 906.1,-68.28 916.4,-70.74 915.69,-63.77"/>
</g>
<!-- Node10 -->
<g id="node10" class="node">
<title>Node10</title>
<g id="a_node10"><a xlink:href="_scene_widget_8cpp.html" target="_top" xlink:title=" ">
<polygon fill="white" stroke="black" points="1379.5,-6 1379.5,-25 1550.5,-25 1550.5,-6 1379.5,-6"/>
<text text-anchor="middle" x="1465" y="-13" font-family="Helvetica,sans-Serif" font-size="10.00">src/ui/widgets/SceneWidget.cpp</text>
</a>
</g>
</g>
<!-- Node1&#45;&gt;Node10 -->
<g id="edge9" class="edge">
<title>Node1&#45;&gt;Node10</title>
<path fill="none" stroke="midnightblue" d="M916.49,-70.48C1024.28,-63.39 1210.73,-49.73 1370,-31 1384.08,-29.34 1399.29,-27.19 1413.32,-25.05"/>
<polygon fill="midnightblue" stroke="midnightblue" points="916.06,-67 906.31,-71.14 916.51,-73.98 916.06,-67"/>
</g>
</g>
</svg>
