<?xml version="1.0" encoding="UTF-8" standalone="no"?>
<!DOCTYPE svg PUBLIC "-//W3C//DTD SVG 1.1//EN"
 "http://www.w3.org/Graphics/SVG/1.1/DTD/svg11.dtd">
<!-- Generated by graphviz version 2.43.0 (0)
 -->
<!-- Title: src/InputManager/InputManager.cpp Pages: 1 -->
<svg width="1784pt" height="467pt"
 viewBox="0.00 0.00 1784.00 467.00" xmlns="http://www.w3.org/2000/svg" xmlns:xlink="http://www.w3.org/1999/xlink">
<g id="graph0" class="graph" transform="scale(1 1) rotate(0) translate(4 463)">
<title>src/InputManager/InputManager.cpp</title>
<!-- Node1 -->
<g id="Node000001" class="node">
<title>Node1</title>
<g id="a_Node000001"><a xlink:title=" ">
<polygon fill="#999999" stroke="#666666" points="592.5,-459 401.5,-459 401.5,-440 592.5,-440 592.5,-459"/>
<text text-anchor="middle" x="497" y="-447" font-family="Helvetica,sans-Serif" font-size="10.00">src/InputManager/InputManager.cpp</text>
</a>
</g>
</g>
<!-- Node2 -->
<g id="Node000002" class="node">
<title>Node2</title>
<g id="a_Node000002"><a xlink:href="_input_manager_8hpp.html" target="_top" xlink:title=" ">
<polygon fill="white" stroke="#666666" points="584.5,-404 409.5,-404 409.5,-385 584.5,-385 584.5,-404"/>
<text text-anchor="middle" x="497" y="-392" font-family="Helvetica,sans-Serif" font-size="10.00">InputManager/InputManager.hpp</text>
</a>
</g>
</g>
<!-- Node1&#45;&gt;Node2 -->
<g id="edge1_Node000001_Node000002" class="edge">
<title>Node1&#45;&gt;Node2</title>
<g id="a_edge1_Node000001_Node000002"><a xlink:title=" ">
<path fill="none" stroke="#63b8ff" d="M497,-439.75C497,-432.8 497,-422.85 497,-414.13"/>
<polygon fill="#63b8ff" stroke="#63b8ff" points="500.5,-414.09 497,-404.09 493.5,-414.09 500.5,-414.09"/>
</a>
</g>
</g>
<!-- Node3 -->
<g id="Node000003" class="node">
<title>Node3</title>
<g id="a_Node000003"><a xlink:title=" ">
<polygon fill="#e0e0e0" stroke="#999999" points="315.5,-129 250.5,-129 250.5,-110 315.5,-110 315.5,-129"/>
<text text-anchor="middle" x="283" y="-117" font-family="Helvetica,sans-Serif" font-size="10.00">functional</text>
</a>
</g>
</g>
<!-- Node2&#45;&gt;Node3 -->
<g id="edge2_Node000002_Node000003" class="edge">
<title>Node2&#45;&gt;Node3</title>
<g id="a_edge2_Node000002_Node000003"><a xlink:title=" ">
<path fill="none" stroke="#63b8ff" d="M411.86,-384.96C351.06,-373.61 280,-347.15 280,-285.5 280,-285.5 280,-285.5 280,-228.5 280,-197.18 281.28,-160.77 282.16,-139.23"/>
<polygon fill="#63b8ff" stroke="#63b8ff" points="285.66,-139.32 282.6,-129.18 278.67,-139.02 285.66,-139.32"/>
</a>
</g>
</g>
<!-- Node4 -->
<g id="Node000004" class="node">
<title>Node4</title>
<g id="a_Node000004"><a xlink:title=" ">
<polygon fill="#e0e0e0" stroke="#999999" points="1125.5,-349 1042.5,-349 1042.5,-330 1125.5,-330 1125.5,-349"/>
<text text-anchor="middle" x="1084" y="-337" font-family="Helvetica,sans-Serif" font-size="10.00">GLFW/glfw3.h</text>
</a>
</g>
</g>
<!-- Node2&#45;&gt;Node4 -->
<g id="edge3_Node000002_Node000004" class="edge">
<title>Node2&#45;&gt;Node4</title>
<g id="a_edge3_Node000002_Node000004"><a xlink:title=" ">
<path fill="none" stroke="#63b8ff" d="M584.67,-388.55C689,-382.14 868.66,-369.45 1032.06,-349.15"/>
<polygon fill="#63b8ff" stroke="#63b8ff" points="1032.81,-352.58 1042.3,-347.86 1031.94,-345.64 1032.81,-352.58"/>
</a>
</g>
</g>
<!-- Node5 -->
<g id="Node000005" class="node">
<title>Node5</title>
<g id="a_Node000005"><a xlink:title=" ">
<polygon fill="#e0e0e0" stroke="#999999" points="704,-184 626,-184 626,-165 704,-165 704,-184"/>
<text text-anchor="middle" x="665" y="-172" font-family="Helvetica,sans-Serif" font-size="10.00">glm/glm.hpp</text>
</a>
</g>
</g>
<!-- Node2&#45;&gt;Node5 -->
<g id="edge4_Node000002_Node000005" class="edge">
<title>Node2&#45;&gt;Node5</title>
<g id="a_edge4_Node000002_Node000005"><a xlink:title=" ">
<path fill="none" stroke="#63b8ff" d="M484.22,-385C473.61,-377.1 459.28,-364.27 453,-349 436.66,-309.23 420.58,-279.14 480,-220 498.91,-201.18 567.59,-188.39 615.72,-181.52"/>
<polygon fill="#63b8ff" stroke="#63b8ff" points="616.23,-184.98 625.66,-180.14 615.27,-178.05 616.23,-184.98"/>
</a>
</g>
</g>
<!-- Node6 -->
<g id="Node000006" class="node">
<title>Node6</title>
<g id="a_Node000006"><a xlink:href="_registry_8hpp.html" target="_top" xlink:title=" ">
<polygon fill="white" stroke="#666666" points="406,-239 308,-239 308,-220 406,-220 406,-239"/>
<text text-anchor="middle" x="357" y="-227" font-family="Helvetica,sans-Serif" font-size="10.00">ECS/Registry.hpp</text>
</a>
</g>
</g>
<!-- Node2&#45;&gt;Node6 -->
<g id="edge5_Node000002_Node000006" class="edge">
<title>Node2&#45;&gt;Node6</title>
<g id="a_edge5_Node000002_Node000006"><a xlink:title=" ">
<path fill="none" stroke="#63b8ff" d="M475.24,-384.9C458.5,-377.41 435.66,-365.22 420,-349 391.39,-319.36 372.24,-274.12 363.14,-248.98"/>
<polygon fill="#63b8ff" stroke="#63b8ff" points="366.35,-247.56 359.76,-239.26 359.74,-249.85 366.35,-247.56"/>
</a>
</g>
</g>
<!-- Node15 -->
<g id="Node000015" class="node">
<title>Node15</title>
<g id="a_Node000015"><a xlink:href="_logger_8hpp.html" target="_top" xlink:title=" ">
<polygon fill="white" stroke="#666666" points="134.5,-349 17.5,-349 17.5,-330 134.5,-330 134.5,-349"/>
<text text-anchor="middle" x="76" y="-337" font-family="Helvetica,sans-Serif" font-size="10.00">Common/Logger.hpp</text>
</a>
</g>
</g>
<!-- Node2&#45;&gt;Node15 -->
<g id="edge20_Node000002_Node000015" class="edge">
<title>Node2&#45;&gt;Node15</title>
<g id="a_edge20_Node000002_Node000015"><a xlink:title=" ">
<path fill="none" stroke="#63b8ff" d="M429.36,-384.98C351.28,-375.16 223.55,-359.08 144.93,-349.18"/>
<polygon fill="#63b8ff" stroke="#63b8ff" points="145,-345.66 134.65,-347.88 144.13,-352.6 145,-345.66"/>
</a>
</g>
</g>
<!-- Node17 -->
<g id="Node000017" class="node">
<title>Node17</title>
<g id="a_Node000017"><a xlink:href="_camera_component_8hpp.html" target="_top" xlink:title=" ">
<polygon fill="white" stroke="#666666" points="659.5,-349 462.5,-349 462.5,-330 659.5,-330 659.5,-349"/>
<text text-anchor="middle" x="561" y="-337" font-family="Helvetica,sans-Serif" font-size="10.00">Components/CameraComponent.hpp</text>
</a>
</g>
</g>
<!-- Node2&#45;&gt;Node17 -->
<g id="edge23_Node000002_Node000017" class="edge">
<title>Node2&#45;&gt;Node17</title>
<g id="a_edge23_Node000002_Node000017"><a xlink:title=" ">
<path fill="none" stroke="#63b8ff" d="M507.28,-384.98C516.84,-377.07 531.28,-365.11 542.78,-355.58"/>
<polygon fill="#63b8ff" stroke="#63b8ff" points="545.06,-358.24 550.53,-349.17 540.6,-352.85 545.06,-358.24"/>
</a>
</g>
</g>
<!-- Node19 -->
<g id="Node000019" class="node">
<title>Node19</title>
<g id="a_Node000019"><a xlink:href="_transform_component_8hpp.html" target="_top" xlink:title=" ">
<polygon fill="white" stroke="#666666" points="1051.5,-294 844.5,-294 844.5,-275 1051.5,-275 1051.5,-294"/>
<text text-anchor="middle" x="948" y="-282" font-family="Helvetica,sans-Serif" font-size="10.00">Components/TransformComponent.hpp</text>
</a>
</g>
</g>
<!-- Node2&#45;&gt;Node19 -->
<g id="edge47_Node000002_Node000019" class="edge">
<title>Node2&#45;&gt;Node19</title>
<g id="a_edge47_Node000002_Node000019"><a xlink:title=" ">
<path fill="none" stroke="#63b8ff" d="M532.77,-384.94C614.01,-365.48 812.38,-317.98 902.33,-296.44"/>
<polygon fill="#63b8ff" stroke="#63b8ff" points="903.32,-299.8 912.23,-294.07 901.69,-292.99 903.32,-299.8"/>
</a>
</g>
</g>
<!-- Node29 -->
<g id="Node000029" class="node">
<title>Node29</title>
<g id="a_Node000029"><a xlink:href="_box_collider_component_8hpp.html" target="_top" xlink:title=" ">
<polygon fill="white" stroke="#666666" points="1024.5,-349 809.5,-349 809.5,-330 1024.5,-330 1024.5,-349"/>
<text text-anchor="middle" x="917" y="-337" font-family="Helvetica,sans-Serif" font-size="10.00">Components/BoxColliderComponent.hpp</text>
</a>
</g>
</g>
<!-- Node2&#45;&gt;Node29 -->
<g id="edge40_Node000002_Node000029" class="edge">
<title>Node2&#45;&gt;Node29</title>
<g id="a_edge40_Node000002_Node000029"><a xlink:title=" ">
<path fill="none" stroke="#63b8ff" d="M564.48,-384.98C639.38,-375.53 760.07,-360.3 838.97,-350.35"/>
<polygon fill="#63b8ff" stroke="#63b8ff" points="839.86,-353.76 849.34,-349.04 838.98,-346.82 839.86,-353.76"/>
</a>
</g>
</g>
<!-- Node7 -->
<g id="Node000007" class="node">
<title>Node7</title>
<g id="a_Node000007"><a xlink:title=" ">
<polygon fill="#e0e0e0" stroke="#999999" points="420,-129 334,-129 334,-110 420,-110 420,-129"/>
<text text-anchor="middle" x="377" y="-117" font-family="Helvetica,sans-Serif" font-size="10.00">unordered_set</text>
</a>
</g>
</g>
<!-- Node6&#45;&gt;Node7 -->
<g id="edge6_Node000006_Node000007" class="edge">
<title>Node6&#45;&gt;Node7</title>
<g id="a_edge6_Node000006_Node000007"><a xlink:title=" ">
<path fill="none" stroke="#63b8ff" d="M358.64,-219.66C361.88,-202.17 369.17,-162.8 373.52,-139.27"/>
<polygon fill="#63b8ff" stroke="#63b8ff" points="377.02,-139.63 375.4,-129.16 370.13,-138.35 377.02,-139.63"/>
</a>
</g>
</g>
<!-- Node8 -->
<g id="Node000008" class="node">
<title>Node8</title>
<g id="a_Node000008"><a xlink:href="_entity_8hpp.html" target="_top" xlink:title=" ">
<polygon fill="white" stroke="#666666" points="422,-74 336,-74 336,-55 422,-55 422,-74"/>
<text text-anchor="middle" x="379" y="-62" font-family="Helvetica,sans-Serif" font-size="10.00">ECS/Entity.hpp</text>
</a>
</g>
</g>
<!-- Node6&#45;&gt;Node8 -->
<g id="edge7_Node000006_Node000008" class="edge">
<title>Node6&#45;&gt;Node8</title>
<g id="a_edge7_Node000006_Node000008"><a xlink:title=" ">
<path fill="none" stroke="#63b8ff" d="M400.75,-219.96C443.74,-211.05 505.86,-196.66 527,-184 555.6,-166.87 565.83,-160.03 578,-129 581.08,-121.14 583.28,-116.59 578,-110 560.05,-87.59 484.97,-75.72 432.35,-70.02"/>
<polygon fill="#63b8ff" stroke="#63b8ff" points="432.46,-66.51 422.15,-68.96 431.74,-73.48 432.46,-66.51"/>
</a>
</g>
</g>
<!-- Node10 -->
<g id="Node000010" class="node">
<title>Node10</title>
<g id="a_Node000010"><a xlink:href="_entity_hierarchy_8hpp.html" target="_top" xlink:title=" ">
<polygon fill="white" stroke="#666666" points="518,-184 384,-184 384,-165 518,-165 518,-184"/>
<text text-anchor="middle" x="451" y="-172" font-family="Helvetica,sans-Serif" font-size="10.00">ECS/EntityHierarchy.hpp</text>
</a>
</g>
</g>
<!-- Node6&#45;&gt;Node10 -->
<g id="edge9_Node000006_Node000010" class="edge">
<title>Node6&#45;&gt;Node10</title>
<g id="a_edge9_Node000006_Node000010"><a xlink:title=" ">
<path fill="none" stroke="#63b8ff" d="M372.1,-219.98C386.82,-211.69 409.42,-198.94 426.67,-189.22"/>
<polygon fill="#63b8ff" stroke="#63b8ff" points="428.63,-192.13 435.62,-184.17 425.19,-186.03 428.63,-192.13"/>
</a>
</g>
</g>
<!-- Node12 -->
<g id="Node000012" class="node">
<title>Node12</title>
<g id="a_Node000012"><a xlink:href="_entity_provider_8hpp.html" target="_top" xlink:title="Manages a pool of unused entity identifiers and provides mechanisms for requesting and removing them.">
<polygon fill="white" stroke="#666666" points="232,-129 104,-129 104,-110 232,-110 232,-129"/>
<text text-anchor="middle" x="168" y="-117" font-family="Helvetica,sans-Serif" font-size="10.00">ECS/EntityProvider.hpp</text>
</a>
</g>
</g>
<!-- Node6&#45;&gt;Node12 -->
<g id="edge14_Node000006_Node000012" class="edge">
<title>Node6&#45;&gt;Node12</title>
<g id="a_edge14_Node000006_Node000012"><a xlink:title=" ">
<path fill="none" stroke="#63b8ff" d="M341.92,-219.87C320.57,-207.65 280.31,-184.6 246,-165 227.84,-154.62 207.29,-142.9 191.85,-134.1"/>
<polygon fill="#63b8ff" stroke="#63b8ff" points="193.38,-130.94 182.96,-129.03 189.91,-137.02 193.38,-130.94"/>
</a>
</g>
</g>
<!-- Node14 -->
<g id="Node000014" class="node">
<title>Node14</title>
<g id="a_Node000014"><a xlink:href="_sparse_set_8hpp.html" target="_top" xlink:title=" ">
<polygon fill="white" stroke="#666666" points="237,-184 129,-184 129,-165 237,-165 237,-184"/>
<text text-anchor="middle" x="183" y="-172" font-family="Helvetica,sans-Serif" font-size="10.00">ECS/SparseSet.hpp</text>
</a>
</g>
</g>
<!-- Node6&#45;&gt;Node14 -->
<g id="edge18_Node000006_Node000014" class="edge">
<title>Node6&#45;&gt;Node14</title>
<g id="a_edge18_Node000006_Node000014"><a xlink:title=" ">
<path fill="none" stroke="#63b8ff" d="M329.04,-219.98C299.7,-211.05 253.4,-196.94 220.81,-187.02"/>
<polygon fill="#63b8ff" stroke="#63b8ff" points="221.76,-183.65 211.18,-184.08 219.72,-190.34 221.76,-183.65"/>
</a>
</g>
</g>
<!-- Node9 -->
<g id="Node000009" class="node">
<title>Node9</title>
<g id="a_Node000009"><a xlink:title=" ">
<polygon fill="#e0e0e0" stroke="#999999" points="317.5,-19 264.5,-19 264.5,0 317.5,0 317.5,-19"/>
<text text-anchor="middle" x="291" y="-7" font-family="Helvetica,sans-Serif" font-size="10.00">stdlib.h</text>
</a>
</g>
</g>
<!-- Node8&#45;&gt;Node9 -->
<g id="edge8_Node000008_Node000009" class="edge">
<title>Node8&#45;&gt;Node9</title>
<g id="a_edge8_Node000008_Node000009"><a xlink:title=" ">
<path fill="none" stroke="#63b8ff" d="M364.86,-54.98C351.21,-46.77 330.31,-34.18 314.22,-24.49"/>
<polygon fill="#63b8ff" stroke="#63b8ff" points="315.77,-21.33 305.4,-19.17 312.16,-27.33 315.77,-21.33"/>
</a>
</g>
</g>
<!-- Node10&#45;&gt;Node3 -->
<g id="edge10_Node000010_Node000003" class="edge">
<title>Node10&#45;&gt;Node3</title>
<g id="a_edge10_Node000010_Node000003"><a xlink:title=" ">
<path fill="none" stroke="#63b8ff" d="M424.01,-164.98C395.8,-156.09 351.36,-142.07 319.92,-132.15"/>
<polygon fill="#63b8ff" stroke="#63b8ff" points="320.79,-128.75 310.2,-129.08 318.69,-135.43 320.79,-128.75"/>
</a>
</g>
</g>
<!-- Node10&#45;&gt;Node7 -->
<g id="edge11_Node000010_Node000007" class="edge">
<title>Node10&#45;&gt;Node7</title>
<g id="a_edge11_Node000010_Node000007"><a xlink:title=" ">
<path fill="none" stroke="#63b8ff" d="M439.11,-164.98C427.85,-156.92 410.71,-144.65 397.29,-135.03"/>
<polygon fill="#63b8ff" stroke="#63b8ff" points="399.27,-132.15 389.11,-129.17 395.2,-137.84 399.27,-132.15"/>
</a>
</g>
</g>
<!-- Node10&#45;&gt;Node8 -->
<g id="edge13_Node000010_Node000008" class="edge">
<title>Node10&#45;&gt;Node8</title>
<g id="a_edge13_Node000010_Node000008"><a xlink:title=" ">
<path fill="none" stroke="#63b8ff" d="M449.42,-164.65C446.8,-151.76 440.66,-127.47 429,-110 421.42,-98.64 410.25,-88.33 400.4,-80.5"/>
<polygon fill="#63b8ff" stroke="#63b8ff" points="402.28,-77.53 392.2,-74.29 398.06,-83.12 402.28,-77.53"/>
</a>
</g>
</g>
<!-- Node11 -->
<g id="Node000011" class="node">
<title>Node11</title>
<g id="a_Node000011"><a xlink:title=" ">
<polygon fill="#e0e0e0" stroke="#999999" points="569.5,-129 476.5,-129 476.5,-110 569.5,-110 569.5,-129"/>
<text text-anchor="middle" x="523" y="-117" font-family="Helvetica,sans-Serif" font-size="10.00">unordered_map</text>
</a>
</g>
</g>
<!-- Node10&#45;&gt;Node11 -->
<g id="edge12_Node000010_Node000011" class="edge">
<title>Node10&#45;&gt;Node11</title>
<g id="a_edge12_Node000010_Node000011"><a xlink:title=" ">
<path fill="none" stroke="#63b8ff" d="M462.57,-164.98C473.42,-157 489.88,-144.88 502.88,-135.31"/>
<polygon fill="#63b8ff" stroke="#63b8ff" points="505.24,-137.92 511.22,-129.17 501.09,-132.28 505.24,-137.92"/>
</a>
</g>
</g>
<!-- Node12&#45;&gt;Node8 -->
<g id="edge17_Node000012_Node000008" class="edge">
<title>Node12&#45;&gt;Node8</title>
<g id="a_edge17_Node000012_Node000008"><a xlink:title=" ">
<path fill="none" stroke="#63b8ff" d="M201.9,-109.98C238.02,-100.91 295.32,-86.52 334.92,-76.57"/>
<polygon fill="#63b8ff" stroke="#63b8ff" points="335.99,-79.91 344.83,-74.08 334.28,-73.12 335.99,-79.91"/>
</a>
</g>
</g>
<!-- Node12&#45;&gt;Node9 -->
<g id="edge15_Node000012_Node000009" class="edge">
<title>Node12&#45;&gt;Node9</title>
<g id="a_edge15_Node000012_Node000009"><a xlink:title=" ">
<path fill="none" stroke="#63b8ff" d="M178.07,-109.66C198.98,-91.3 247.37,-48.81 273.5,-25.87"/>
<polygon fill="#63b8ff" stroke="#63b8ff" points="275.93,-28.39 281.14,-19.16 271.32,-23.13 275.93,-28.39"/>
</a>
</g>
</g>
<!-- Node13 -->
<g id="Node000013" class="node">
<title>Node13</title>
<g id="a_Node000013"><a xlink:title=" ">
<polygon fill="#e0e0e0" stroke="#999999" points="155.5,-74 108.5,-74 108.5,-55 155.5,-55 155.5,-74"/>
<text text-anchor="middle" x="132" y="-62" font-family="Helvetica,sans-Serif" font-size="10.00">queue</text>
</a>
</g>
</g>
<!-- Node12&#45;&gt;Node13 -->
<g id="edge16_Node000012_Node000013" class="edge">
<title>Node12&#45;&gt;Node13</title>
<g id="a_edge16_Node000012_Node000013"><a xlink:title=" ">
<path fill="none" stroke="#63b8ff" d="M162.06,-109.75C157.02,-102.34 149.66,-91.5 143.49,-82.41"/>
<polygon fill="#63b8ff" stroke="#63b8ff" points="146.35,-80.39 137.83,-74.09 140.56,-84.33 146.35,-80.39"/>
</a>
</g>
</g>
<!-- Node14&#45;&gt;Node12 -->
<g id="edge19_Node000014_Node000012" class="edge">
<title>Node14&#45;&gt;Node12</title>
<g id="a_edge19_Node000014_Node000012"><a xlink:title=" ">
<path fill="none" stroke="#63b8ff" d="M180.52,-164.75C178.54,-157.72 175.68,-147.62 173.19,-138.84"/>
<polygon fill="#63b8ff" stroke="#63b8ff" points="176.52,-137.76 170.43,-129.09 169.79,-139.66 176.52,-137.76"/>
</a>
</g>
</g>
<!-- Node15&#45;&gt;Node13 -->
<g id="edge22_Node000015_Node000013" class="edge">
<title>Node15&#45;&gt;Node13</title>
<g id="a_edge22_Node000015_Node000013"><a xlink:title=" ">
<path fill="none" stroke="#63b8ff" d="M76,-329.82C76,-311.48 76,-267.44 76,-230.5 76,-230.5 76,-230.5 76,-173.5 76,-144.04 81.08,-135.96 95,-110 100.5,-99.75 108.59,-89.67 115.81,-81.7"/>
<polygon fill="#63b8ff" stroke="#63b8ff" points="118.53,-83.91 122.86,-74.24 113.45,-79.1 118.53,-83.91"/>
</a>
</g>
</g>
<!-- Node16 -->
<g id="Node000016" class="node">
<title>Node16</title>
<g id="a_Node000016"><a xlink:title=" ">
<polygon fill="#e0e0e0" stroke="#999999" points="48,-294 0,-294 0,-275 48,-275 48,-294"/>
<text text-anchor="middle" x="24" y="-282" font-family="Helvetica,sans-Serif" font-size="10.00">mutex</text>
</a>
</g>
</g>
<!-- Node15&#45;&gt;Node16 -->
<g id="edge21_Node000015_Node000016" class="edge">
<title>Node15&#45;&gt;Node16</title>
<g id="a_edge21_Node000015_Node000016"><a xlink:title=" ">
<path fill="none" stroke="#63b8ff" d="M67.41,-329.75C59.84,-322.03 48.62,-310.6 39.49,-301.28"/>
<polygon fill="#63b8ff" stroke="#63b8ff" points="41.93,-298.78 32.43,-294.09 36.93,-303.68 41.93,-298.78"/>
</a>
</g>
</g>
<!-- Node17&#45;&gt;Node5 -->
<g id="edge24_Node000017_Node000005" class="edge">
<title>Node17&#45;&gt;Node5</title>
<g id="a_edge24_Node000017_Node000005"><a xlink:title=" ">
<path fill="none" stroke="#63b8ff" d="M549.02,-330C522.1,-309.86 461.4,-258.12 491,-220 506.2,-200.42 569.62,-188 615.52,-181.39"/>
<polygon fill="#63b8ff" stroke="#63b8ff" points="616.17,-184.84 625.6,-180 615.21,-177.9 616.17,-184.84"/>
</a>
</g>
</g>
<!-- Node18 -->
<g id="Node000018" class="node">
<title>Node18</title>
<g id="a_Node000018"><a xlink:href="_ray_8hpp.html" target="_top" xlink:title=" ">
<polygon fill="white" stroke="#666666" points="583.5,-239 500.5,-239 500.5,-220 583.5,-220 583.5,-239"/>
<text text-anchor="middle" x="542" y="-227" font-family="Helvetica,sans-Serif" font-size="10.00">Math/Ray.hpp</text>
</a>
</g>
</g>
<!-- Node17&#45;&gt;Node18 -->
<g id="edge25_Node000017_Node000018" class="edge">
<title>Node17&#45;&gt;Node18</title>
<g id="a_edge25_Node000017_Node000018"><a xlink:title=" ">
<path fill="none" stroke="#63b8ff" d="M559.45,-329.66C556.37,-312.17 549.44,-272.8 545.3,-249.27"/>
<polygon fill="#63b8ff" stroke="#63b8ff" points="548.7,-248.4 543.52,-239.16 541.81,-249.61 548.7,-248.4"/>
</a>
</g>
</g>
<!-- Node17&#45;&gt;Node19 -->
<g id="edge27_Node000017_Node000019" class="edge">
<title>Node17&#45;&gt;Node19</title>
<g id="a_edge27_Node000017_Node000019"><a xlink:title=" ">
<path fill="none" stroke="#63b8ff" d="M623.18,-329.98C692.05,-320.55 802.95,-305.36 875.66,-295.41"/>
<polygon fill="#63b8ff" stroke="#63b8ff" points="876.22,-298.86 885.66,-294.04 875.27,-291.93 876.22,-298.86"/>
</a>
</g>
</g>
<!-- Node18&#45;&gt;Node5 -->
<g id="edge26_Node000018_Node000005" class="edge">
<title>Node18&#45;&gt;Node5</title>
<g id="a_edge26_Node000018_Node000005"><a xlink:title=" ">
<path fill="none" stroke="#63b8ff" d="M561.76,-219.98C581.73,-211.38 612.8,-197.99 635.65,-188.15"/>
<polygon fill="#63b8ff" stroke="#63b8ff" points="637.08,-191.34 644.88,-184.17 634.31,-184.91 637.08,-191.34"/>
</a>
</g>
</g>
<!-- Node19&#45;&gt;Node5 -->
<g id="edge30_Node000019_Node000005" class="edge">
<title>Node19&#45;&gt;Node5</title>
<g id="a_edge30_Node000019_Node000005"><a xlink:title=" ">
<path fill="none" stroke="#63b8ff" d="M1051.73,-283.15C1193.6,-280.85 1425.61,-269.61 1379,-220 1356.25,-195.79 872.78,-180.96 714.6,-176.75"/>
<polygon fill="#63b8ff" stroke="#63b8ff" points="714.31,-173.24 704.22,-176.47 714.13,-180.24 714.31,-173.24"/>
</a>
</g>
</g>
<!-- Node19&#45;&gt;Node6 -->
<g id="edge37_Node000019_Node000006" class="edge">
<title>Node19&#45;&gt;Node6</title>
<g id="a_edge37_Node000019_Node000006"><a xlink:title=" ">
<path fill="none" stroke="#63b8ff" d="M853.05,-274.98C729.86,-263.94 518.63,-244.99 416.18,-235.81"/>
<polygon fill="#63b8ff" stroke="#63b8ff" points="416.29,-232.3 406.02,-234.9 415.67,-239.28 416.29,-232.3"/>
</a>
</g>
</g>
<!-- Node20 -->
<g id="Node000020" class="node">
<title>Node20</title>
<g id="a_Node000020"><a xlink:title=" ">
<polygon fill="#e0e0e0" stroke="#999999" points="1576,-239 1532,-239 1532,-220 1576,-220 1576,-239"/>
<text text-anchor="middle" x="1554" y="-227" font-family="Helvetica,sans-Serif" font-size="10.00">string</text>
</a>
</g>
</g>
<!-- Node19&#45;&gt;Node20 -->
<g id="edge28_Node000019_Node000020" class="edge">
<title>Node19&#45;&gt;Node20</title>
<g id="a_edge28_Node000019_Node000020"><a xlink:title=" ">
<path fill="none" stroke="#63b8ff" d="M1051.57,-281.41C1165,-277.77 1352.26,-267.83 1521.66,-238.89"/>
<polygon fill="#63b8ff" stroke="#63b8ff" points="1522.51,-242.3 1531.76,-237.14 1521.31,-235.4 1522.51,-242.3"/>
</a>
</g>
</g>
<!-- Node21 -->
<g id="Node000021" class="node">
<title>Node21</title>
<g id="a_Node000021"><a xlink:title=" ">
<polygon fill="#e0e0e0" stroke="#999999" points="700,-239 640,-239 640,-220 700,-220 700,-239"/>
<text text-anchor="middle" x="670" y="-227" font-family="Helvetica,sans-Serif" font-size="10.00">iostream</text>
</a>
</g>
</g>
<!-- Node19&#45;&gt;Node21 -->
<g id="edge29_Node000019_Node000021" class="edge">
<title>Node19&#45;&gt;Node21</title>
<g id="a_edge29_Node000019_Node000021"><a xlink:title=" ">
<path fill="none" stroke="#63b8ff" d="M899.85,-274.98C853.69,-266.71 781.81,-253.58 710.3,-239.21"/>
<polygon fill="#63b8ff" stroke="#63b8ff" points="710.71,-235.73 700.21,-237.18 709.32,-242.59 710.71,-235.73"/>
</a>
</g>
</g>
<!-- Node22 -->
<g id="Node000022" class="node">
<title>Node22</title>
<g id="a_Node000022"><a xlink:title=" ">
<polygon fill="#e0e0e0" stroke="#999999" points="848,-239 718,-239 718,-220 848,-220 848,-239"/>
<text text-anchor="middle" x="783" y="-227" font-family="Helvetica,sans-Serif" font-size="10.00">glm/gtc/quaternion.hpp</text>
</a>
</g>
</g>
<!-- Node19&#45;&gt;Node22 -->
<g id="edge31_Node000019_Node000022" class="edge">
<title>Node19&#45;&gt;Node22</title>
<g id="a_edge31_Node000019_Node000022"><a xlink:title=" ">
<path fill="none" stroke="#63b8ff" d="M921.49,-274.98C893.79,-266.09 850.14,-252.07 819.26,-242.15"/>
<polygon fill="#63b8ff" stroke="#63b8ff" points="820.31,-238.81 809.72,-239.08 818.17,-245.47 820.31,-238.81"/>
</a>
</g>
</g>
<!-- Node23 -->
<g id="Node000023" class="node">
<title>Node23</title>
<g id="a_Node000023"><a xlink:title=" ">
<polygon fill="#e0e0e0" stroke="#999999" points="1029.5,-239 866.5,-239 866.5,-220 1029.5,-220 1029.5,-239"/>
<text text-anchor="middle" x="948" y="-227" font-family="Helvetica,sans-Serif" font-size="10.00">glm/gtc/matrix_transform.hpp</text>
</a>
</g>
</g>
<!-- Node19&#45;&gt;Node23 -->
<g id="edge32_Node000019_Node000023" class="edge">
<title>Node19&#45;&gt;Node23</title>
<g id="a_edge32_Node000019_Node000023"><a xlink:title=" ">
<path fill="none" stroke="#63b8ff" d="M948,-274.75C948,-267.8 948,-257.85 948,-249.13"/>
<polygon fill="#63b8ff" stroke="#63b8ff" points="951.5,-249.09 948,-239.09 944.5,-249.09 951.5,-249.09"/>
</a>
</g>
</g>
<!-- Node24 -->
<g id="Node000024" class="node">
<title>Node24</title>
<g id="a_Node000024"><a xlink:title=" ">
<polygon fill="#e0e0e0" stroke="#999999" points="1220,-239 1048,-239 1048,-220 1220,-220 1220,-239"/>
<text text-anchor="middle" x="1134" y="-227" font-family="Helvetica,sans-Serif" font-size="10.00">glm/gtx/matrix_decompose.hpp</text>
</a>
</g>
</g>
<!-- Node19&#45;&gt;Node24 -->
<g id="edge33_Node000019_Node000024" class="edge">
<title>Node19&#45;&gt;Node24</title>
<g id="a_edge33_Node000019_Node000024"><a xlink:title=" ">
<path fill="none" stroke="#63b8ff" d="M977.88,-274.98C1009.38,-266.01 1059.17,-251.82 1094.03,-241.89"/>
<polygon fill="#63b8ff" stroke="#63b8ff" points="1095.22,-245.19 1103.88,-239.08 1093.31,-238.46 1095.22,-245.19"/>
</a>
</g>
</g>
<!-- Node25 -->
<g id="Node000025" class="node">
<title>Node25</title>
<g id="a_Node000025"><a xlink:title=" ">
<polygon fill="#e0e0e0" stroke="#999999" points="1369.5,-239 1238.5,-239 1238.5,-220 1369.5,-220 1369.5,-239"/>
<text text-anchor="middle" x="1304" y="-227" font-family="Helvetica,sans-Serif" font-size="10.00">glm/gtx/string_cast.hpp</text>
</a>
</g>
</g>
<!-- Node19&#45;&gt;Node25 -->
<g id="edge34_Node000019_Node000025" class="edge">
<title>Node19&#45;&gt;Node25</title>
<g id="a_edge34_Node000019_Node000025"><a xlink:title=" ">
<path fill="none" stroke="#63b8ff" d="M1005.2,-274.98C1068.29,-265.59 1169.73,-250.49 1236.63,-240.53"/>
<polygon fill="#63b8ff" stroke="#63b8ff" points="1237.27,-243.97 1246.65,-239.04 1236.24,-237.05 1237.27,-243.97"/>
</a>
</g>
</g>
<!-- Node26 -->
<g id="Node000026" class="node">
<title>Node26</title>
<g id="a_Node000026"><a xlink:href="_math_2_utils_8hpp.html" target="_top" xlink:title=" ">
<polygon fill="white" stroke="#666666" points="1514,-239 1426,-239 1426,-220 1514,-220 1514,-239"/>
<text text-anchor="middle" x="1470" y="-227" font-family="Helvetica,sans-Serif" font-size="10.00">Math/Utils.hpp</text>
</a>
</g>
</g>
<!-- Node19&#45;&gt;Node26 -->
<g id="edge35_Node000019_Node000026" class="edge">
<title>Node19&#45;&gt;Node26</title>
<g id="a_edge35_Node000019_Node000026"><a xlink:title=" ">
<path fill="none" stroke="#63b8ff" d="M1051.82,-275.04C1145.96,-267.01 1288.48,-253.96 1412,-239 1413.11,-238.87 1414.23,-238.73 1415.37,-238.58"/>
<polygon fill="#63b8ff" stroke="#63b8ff" points="1416.24,-242 1425.7,-237.22 1415.33,-235.06 1416.24,-242"/>
</a>
</g>
</g>
<!-- Node27 -->
<g id="Node000027" class="node">
<title>Node27</title>
<g id="a_Node000027"><a xlink:href="_base_component_8hpp.html" target="_top" xlink:title=" ">
<polygon fill="white" stroke="#666666" points="1776,-239 1594,-239 1594,-220 1776,-220 1776,-239"/>
<text text-anchor="middle" x="1685" y="-227" font-family="Helvetica,sans-Serif" font-size="10.00">Components/BaseComponent.hpp</text>
</a>
</g>
</g>
<!-- Node19&#45;&gt;Node27 -->
<g id="edge38_Node000019_Node000027" class="edge">
<title>Node19&#45;&gt;Node27</title>
<g id="a_edge38_Node000019_Node000027"><a xlink:title=" ">
<path fill="none" stroke="#63b8ff" d="M1051.75,-276.73C1175.7,-268.54 1389.63,-254.05 1583.87,-239.08"/>
<polygon fill="#63b8ff" stroke="#63b8ff" points="1584.29,-242.55 1593.99,-238.29 1583.75,-235.58 1584.29,-242.55"/>
</a>
</g>
</g>
<!-- Node26&#45;&gt;Node5 -->
<g id="edge36_Node000026_Node000005" class="edge">
<title>Node26&#45;&gt;Node5</title>
<g id="a_edge36_Node000026_Node000005"><a xlink:title=" ">
<path fill="none" stroke="#63b8ff" d="M1425.72,-221.61C1421.09,-221.01 1416.45,-220.46 1412,-220 1150.12,-193.06 834.8,-180.89 714.71,-176.98"/>
<polygon fill="#63b8ff" stroke="#63b8ff" points="714.48,-173.47 704.38,-176.65 714.26,-180.47 714.48,-173.47"/>
</a>
</g>
</g>
<!-- Node28 -->
<g id="Node000028" class="node">
<title>Node28</title>
<g id="a_Node000028"><a xlink:href="_types_8hpp.html" target="_top" xlink:title=" ">
<polygon fill="white" stroke="#666666" points="1741.5,-184 1628.5,-184 1628.5,-165 1741.5,-165 1741.5,-184"/>
<text text-anchor="middle" x="1685" y="-172" font-family="Helvetica,sans-Serif" font-size="10.00">Common/Types.hpp</text>
</a>
</g>
</g>
<!-- Node27&#45;&gt;Node28 -->
<g id="edge39_Node000027_Node000028" class="edge">
<title>Node27&#45;&gt;Node28</title>
<g id="a_edge39_Node000027_Node000028"><a xlink:title=" ">
<path fill="none" stroke="#63b8ff" d="M1685,-219.75C1685,-212.8 1685,-202.85 1685,-194.13"/>
<polygon fill="#63b8ff" stroke="#63b8ff" points="1688.5,-194.09 1685,-184.09 1681.5,-194.09 1688.5,-194.09"/>
</a>
</g>
</g>
<!-- Node29&#45;&gt;Node19 -->
<g id="edge46_Node000029_Node000019" class="edge">
<title>Node29&#45;&gt;Node19</title>
<g id="a_edge46_Node000029_Node000019"><a xlink:title=" ">
<path fill="none" stroke="#63b8ff" d="M922.12,-329.75C926.36,-322.49 932.53,-311.95 937.78,-302.98"/>
<polygon fill="#63b8ff" stroke="#63b8ff" points="940.95,-304.49 942.98,-294.09 934.91,-300.95 940.95,-304.49"/>
</a>
</g>
</g>
<!-- Node29&#45;&gt;Node20 -->
<g id="edge41_Node000029_Node000020" class="edge">
<title>Node29&#45;&gt;Node20</title>
<g id="a_edge41_Node000029_Node000020"><a xlink:title=" ">
<path fill="none" stroke="#63b8ff" d="M982.89,-329.99C1092.85,-315.28 1320.73,-282.64 1521.86,-239.06"/>
<polygon fill="#63b8ff" stroke="#63b8ff" points="1522.69,-242.46 1531.72,-236.91 1521.2,-235.62 1522.69,-242.46"/>
</a>
</g>
</g>
<!-- Node29&#45;&gt;Node27 -->
<g id="edge45_Node000029_Node000027" class="edge">
<title>Node29&#45;&gt;Node27</title>
<g id="a_edge45_Node000029_Node000027"><a xlink:title=" ">
<path fill="none" stroke="#63b8ff" d="M999.05,-329.99C1076.1,-321.73 1194.55,-308.37 1297,-294 1414.5,-277.51 1551.32,-254.14 1627.05,-240.83"/>
<polygon fill="#63b8ff" stroke="#63b8ff" points="1628.08,-244.2 1637.32,-239.02 1626.87,-237.31 1628.08,-244.2"/>
</a>
</g>
</g>
<!-- Node30 -->
<g id="Node000030" class="node">
<title>Node30</title>
<g id="a_Node000030"><a xlink:href="_a_a_b_b_8hpp.html" target="_top" xlink:title=" ">
<polygon fill="white" stroke="#666666" points="662,-294 570,-294 570,-275 662,-275 662,-294"/>
<text text-anchor="middle" x="616" y="-282" font-family="Helvetica,sans-Serif" font-size="10.00">Math/AABB.hpp</text>
</a>
</g>
</g>
<!-- Node29&#45;&gt;Node30 -->
<g id="edge42_Node000029_Node000030" class="edge">
<title>Node29&#45;&gt;Node30</title>
<g id="a_edge42_Node000029_Node000030"><a xlink:title=" ">
<path fill="none" stroke="#63b8ff" d="M868.64,-329.98C815.02,-320.54 728.66,-305.34 672.11,-295.38"/>
<polygon fill="#63b8ff" stroke="#63b8ff" points="672.72,-291.93 662.26,-293.65 671.51,-298.83 672.72,-291.93"/>
</a>
</g>
</g>
<!-- Node30&#45;&gt;Node5 -->
<g id="edge43_Node000030_Node000005" class="edge">
<title>Node30&#45;&gt;Node5</title>
<g id="a_edge43_Node000030_Node000005"><a xlink:title=" ">
<path fill="none" stroke="#63b8ff" d="M616.87,-274.91C618.4,-262.34 622.27,-238.43 631,-220 635.77,-209.93 643.08,-199.96 649.7,-192.02"/>
<polygon fill="#63b8ff" stroke="#63b8ff" points="652.51,-194.12 656.46,-184.29 647.24,-189.51 652.51,-194.12"/>
</a>
</g>
</g>
<!-- Node30&#45;&gt;Node18 -->
<g id="edge44_Node000030_Node000018" class="edge">
<title>Node30&#45;&gt;Node18</title>
<g id="a_edge44_Node000030_Node000018"><a xlink:title=" ">
<path fill="none" stroke="#63b8ff" d="M604.11,-274.98C592.85,-266.92 575.71,-254.65 562.29,-245.03"/>
<polygon fill="#63b8ff" stroke="#63b8ff" points="564.27,-242.15 554.11,-239.17 560.2,-247.84 564.27,-242.15"/>
</a>
</g>
</g>
</g>
</svg>
