<?xml version="1.0" encoding="UTF-8" standalone="no"?>
<!DOCTYPE svg PUBLIC "-//W3C//DTD SVG 1.1//EN"
 "http://www.w3.org/Graphics/SVG/1.1/DTD/svg11.dtd">
<!-- Generated by graphviz version 2.43.0 (0)
 -->
<!-- Title: src/InputManager/InputManager.hpp Pages: 1 -->
<svg width="1965pt" height="412pt"
 viewBox="0.00 0.00 1965.00 412.00" xmlns="http://www.w3.org/2000/svg" xmlns:xlink="http://www.w3.org/1999/xlink">
<g id="graph0" class="graph" transform="scale(1 1) rotate(0) translate(4 408)">
<title>src/InputManager/InputManager.hpp</title>
<!-- Node1 -->
<g id="Node000001" class="node">
<title>Node1</title>
<g id="a_Node000001"><a xlink:title=" ">
<polygon fill="#999999" stroke="#666666" points="877.5,-404 685.5,-404 685.5,-385 877.5,-385 877.5,-404"/>
<text text-anchor="middle" x="781.5" y="-392" font-family="Helvetica,sans-Serif" font-size="10.00">src/InputManager/InputManager.hpp</text>
</a>
</g>
</g>
<!-- Node2 -->
<g id="Node000002" class="node">
<title>Node2</title>
<g id="a_Node000002"><a xlink:title=" ">
<polygon fill="#e0e0e0" stroke="#999999" points="195,-129 130,-129 130,-110 195,-110 195,-129"/>
<text text-anchor="middle" x="162.5" y="-117" font-family="Helvetica,sans-Serif" font-size="10.00">functional</text>
</a>
</g>
</g>
<!-- Node1&#45;&gt;Node2 -->
<g id="edge1_Node000001_Node000002" class="edge">
<title>Node1&#45;&gt;Node2</title>
<g id="a_edge1_Node000001_Node000002"><a xlink:title=" ">
<path fill="none" stroke="#63b8ff" d="M685.25,-386.94C507.45,-373.53 145.5,-339.57 145.5,-285.5 145.5,-285.5 145.5,-285.5 145.5,-228.5 145.5,-196.8 152.73,-160.51 157.76,-139.09"/>
<polygon fill="#63b8ff" stroke="#63b8ff" points="161.23,-139.65 160.21,-129.11 154.43,-137.99 161.23,-139.65"/>
</a>
</g>
</g>
<!-- Node3 -->
<g id="Node000003" class="node">
<title>Node3</title>
<g id="a_Node000003"><a xlink:title=" ">
<polygon fill="#e0e0e0" stroke="#999999" points="1957,-349 1874,-349 1874,-330 1957,-330 1957,-349"/>
<text text-anchor="middle" x="1915.5" y="-337" font-family="Helvetica,sans-Serif" font-size="10.00">GLFW/glfw3.h</text>
</a>
</g>
</g>
<!-- Node1&#45;&gt;Node3 -->
<g id="edge2_Node000001_Node000003" class="edge">
<title>Node1&#45;&gt;Node3</title>
<g id="a_edge2_Node000001_Node000003"><a xlink:title=" ">
<path fill="none" stroke="#63b8ff" d="M877.77,-393.54C1065.51,-392.75 1493.78,-386.66 1863.71,-348.92"/>
<polygon fill="#63b8ff" stroke="#63b8ff" points="1864.22,-352.39 1873.81,-347.88 1863.5,-345.42 1864.22,-352.39"/>
</a>
</g>
</g>
<!-- Node4 -->
<g id="Node000004" class="node">
<title>Node4</title>
<g id="a_Node000004"><a xlink:title=" ">
<polygon fill="#e0e0e0" stroke="#999999" points="1003.5,-184 925.5,-184 925.5,-165 1003.5,-165 1003.5,-184"/>
<text text-anchor="middle" x="964.5" y="-172" font-family="Helvetica,sans-Serif" font-size="10.00">glm/glm.hpp</text>
</a>
</g>
</g>
<!-- Node1&#45;&gt;Node4 -->
<g id="edge3_Node000001_Node000004" class="edge">
<title>Node1&#45;&gt;Node4</title>
<g id="a_edge3_Node000001_Node000004"><a xlink:title=" ">
<path fill="none" stroke="#63b8ff" d="M751.61,-384.97C676.14,-362.06 488.57,-295.74 556.5,-220 562.44,-213.37 807.75,-189.97 915.08,-180.03"/>
<polygon fill="#63b8ff" stroke="#63b8ff" points="915.69,-183.49 925.33,-179.08 915.05,-176.52 915.69,-183.49"/>
</a>
</g>
</g>
<!-- Node5 -->
<g id="Node000005" class="node">
<title>Node5</title>
<g id="a_Node000005"><a xlink:href="_assert_8hpp.html" target="_top" xlink:title=" ">
<polygon fill="white" stroke="#666666" points="1855.5,-349 1739.5,-349 1739.5,-330 1855.5,-330 1855.5,-349"/>
<text text-anchor="middle" x="1797.5" y="-337" font-family="Helvetica,sans-Serif" font-size="10.00">Common/Assert.hpp</text>
</a>
</g>
</g>
<!-- Node1&#45;&gt;Node5 -->
<g id="edge4_Node000001_Node000005" class="edge">
<title>Node1&#45;&gt;Node5</title>
<g id="a_edge4_Node000001_Node000005"><a xlink:title=" ">
<path fill="none" stroke="#63b8ff" d="M877.54,-388.49C1081.36,-377.86 1552.94,-353.26 1729.3,-344.06"/>
<polygon fill="#63b8ff" stroke="#63b8ff" points="1729.68,-347.54 1739.49,-343.53 1729.32,-340.55 1729.68,-347.54"/>
</a>
</g>
</g>
<!-- Node9 -->
<g id="Node000009" class="node">
<title>Node9</title>
<g id="a_Node000009"><a xlink:href="_logger_8hpp.html" target="_top" xlink:title=" ">
<polygon fill="white" stroke="#666666" points="117,-184 0,-184 0,-165 117,-165 117,-184"/>
<text text-anchor="middle" x="58.5" y="-172" font-family="Helvetica,sans-Serif" font-size="10.00">Common/Logger.hpp</text>
</a>
</g>
</g>
<!-- Node1&#45;&gt;Node9 -->
<g id="edge8_Node000001_Node000009" class="edge">
<title>Node1&#45;&gt;Node9</title>
<g id="a_edge8_Node000001_Node000009"><a xlink:title=" ">
<path fill="none" stroke="#63b8ff" d="M685.23,-392.42C515.2,-389.71 175.42,-380.38 131.5,-349 79.92,-312.14 64.59,-231.51 60.19,-194.61"/>
<polygon fill="#63b8ff" stroke="#63b8ff" points="63.64,-193.87 59.12,-184.28 56.67,-194.59 63.64,-193.87"/>
</a>
</g>
</g>
<!-- Node12 -->
<g id="Node000012" class="node">
<title>Node12</title>
<g id="a_Node000012"><a xlink:href="_box_collider_component_8hpp.html" target="_top" xlink:title=" ">
<polygon fill="white" stroke="#666666" points="889,-349 674,-349 674,-330 889,-330 889,-349"/>
<text text-anchor="middle" x="781.5" y="-337" font-family="Helvetica,sans-Serif" font-size="10.00">Components/BoxColliderComponent.hpp</text>
</a>
</g>
</g>
<!-- Node1&#45;&gt;Node12 -->
<g id="edge11_Node000001_Node000012" class="edge">
<title>Node1&#45;&gt;Node12</title>
<g id="a_edge11_Node000001_Node000012"><a xlink:title=" ">
<path fill="none" stroke="#63b8ff" d="M781.5,-384.75C781.5,-377.8 781.5,-367.85 781.5,-359.13"/>
<polygon fill="#63b8ff" stroke="#63b8ff" points="785,-359.09 781.5,-349.09 778,-359.09 785,-359.09"/>
</a>
</g>
</g>
<!-- Node17 -->
<g id="Node000017" class="node">
<title>Node17</title>
<g id="a_Node000017"><a xlink:href="_transform_component_8hpp.html" target="_top" xlink:title=" ">
<polygon fill="white" stroke="#666666" points="1236,-294 1029,-294 1029,-275 1236,-275 1236,-294"/>
<text text-anchor="middle" x="1132.5" y="-282" font-family="Helvetica,sans-Serif" font-size="10.00">Components/TransformComponent.hpp</text>
</a>
</g>
</g>
<!-- Node1&#45;&gt;Node17 -->
<g id="edge53_Node000001_Node000017" class="edge">
<title>Node1&#45;&gt;Node17</title>
<g id="a_edge53_Node000001_Node000017"><a xlink:title=" ">
<path fill="none" stroke="#63b8ff" d="M877.72,-391.77C962.56,-388.28 1077.9,-378.12 1112.5,-349 1125.48,-338.08 1130.15,-318.81 1131.77,-304.35"/>
<polygon fill="#63b8ff" stroke="#63b8ff" points="1135.29,-304.27 1132.52,-294.04 1128.31,-303.76 1135.29,-304.27"/>
</a>
</g>
</g>
<!-- Node22 -->
<g id="Node000022" class="node">
<title>Node22</title>
<g id="a_Node000022"><a xlink:href="_registry_8hpp.html" target="_top" xlink:title=" ">
<polygon fill="white" stroke="#666666" points="509.5,-239 411.5,-239 411.5,-220 509.5,-220 509.5,-239"/>
<text text-anchor="middle" x="460.5" y="-227" font-family="Helvetica,sans-Serif" font-size="10.00">ECS/Registry.hpp</text>
</a>
</g>
</g>
<!-- Node1&#45;&gt;Node22 -->
<g id="edge54_Node000001_Node000022" class="edge">
<title>Node1&#45;&gt;Node22</title>
<g id="a_edge54_Node000001_Node000022"><a xlink:title=" ">
<path fill="none" stroke="#63b8ff" d="M685.46,-385.75C623.22,-379.09 549.14,-367.55 523.5,-349 489.48,-324.38 472.13,-275.68 464.85,-249.02"/>
<polygon fill="#63b8ff" stroke="#63b8ff" points="468.18,-247.91 462.32,-239.08 461.39,-249.63 468.18,-247.91"/>
</a>
</g>
</g>
<!-- Node35 -->
<g id="Node000035" class="node">
<title>Node35</title>
<g id="a_Node000035"><a xlink:href="_camera_component_8hpp.html" target="_top" xlink:title=" ">
<polygon fill="white" stroke="#666666" points="1104,-349 907,-349 907,-330 1104,-330 1104,-349"/>
<text text-anchor="middle" x="1005.5" y="-337" font-family="Helvetica,sans-Serif" font-size="10.00">Components/CameraComponent.hpp</text>
</a>
</g>
</g>
<!-- Node1&#45;&gt;Node35 -->
<g id="edge49_Node000001_Node000035" class="edge">
<title>Node1&#45;&gt;Node35</title>
<g id="a_edge49_Node000001_Node000035"><a xlink:title=" ">
<path fill="none" stroke="#63b8ff" d="M817.49,-384.98C855.99,-375.87 917.19,-361.4 959.24,-351.45"/>
<polygon fill="#63b8ff" stroke="#63b8ff" points="960.3,-354.79 969.23,-349.08 958.69,-347.98 960.3,-354.79"/>
</a>
</g>
</g>
<!-- Node6 -->
<g id="Node000006" class="node">
<title>Node6</title>
<g id="a_Node000006"><a xlink:title=" ">
<polygon fill="#e0e0e0" stroke="#999999" points="1831,-294 1764,-294 1764,-275 1831,-275 1831,-294"/>
<text text-anchor="middle" x="1797.5" y="-282" font-family="Helvetica,sans-Serif" font-size="10.00">fmt/core.h</text>
</a>
</g>
</g>
<!-- Node5&#45;&gt;Node6 -->
<g id="edge5_Node000005_Node000006" class="edge">
<title>Node5&#45;&gt;Node6</title>
<g id="a_edge5_Node000005_Node000006"><a xlink:title=" ">
<path fill="none" stroke="#63b8ff" d="M1797.5,-329.75C1797.5,-322.8 1797.5,-312.85 1797.5,-304.13"/>
<polygon fill="#63b8ff" stroke="#63b8ff" points="1801,-304.09 1797.5,-294.09 1794,-304.09 1801,-304.09"/>
</a>
</g>
</g>
<!-- Node7 -->
<g id="Node000007" class="node">
<title>Node7</title>
<g id="a_Node000007"><a xlink:title=" ">
<polygon fill="#e0e0e0" stroke="#999999" points="1914,-294 1849,-294 1849,-275 1914,-275 1914,-294"/>
<text text-anchor="middle" x="1881.5" y="-282" font-family="Helvetica,sans-Serif" font-size="10.00">exception</text>
</a>
</g>
</g>
<!-- Node5&#45;&gt;Node7 -->
<g id="edge6_Node000005_Node000007" class="edge">
<title>Node5&#45;&gt;Node7</title>
<g id="a_edge6_Node000005_Node000007"><a xlink:title=" ">
<path fill="none" stroke="#63b8ff" d="M1811,-329.98C1823.9,-321.84 1843.6,-309.41 1858.9,-299.76"/>
<polygon fill="#63b8ff" stroke="#63b8ff" points="1861.17,-302.47 1867.76,-294.17 1857.43,-296.55 1861.17,-302.47"/>
</a>
</g>
</g>
<!-- Node8 -->
<g id="Node000008" class="node">
<title>Node8</title>
<g id="a_Node000008"><a xlink:title=" ">
<polygon fill="#e0e0e0" stroke="#999999" points="1840.5,-239 1780.5,-239 1780.5,-220 1840.5,-220 1840.5,-239"/>
<text text-anchor="middle" x="1810.5" y="-227" font-family="Helvetica,sans-Serif" font-size="10.00">iostream</text>
</a>
</g>
</g>
<!-- Node5&#45;&gt;Node8 -->
<g id="edge7_Node000005_Node000008" class="edge">
<title>Node5&#45;&gt;Node8</title>
<g id="a_edge7_Node000005_Node000008"><a xlink:title=" ">
<path fill="none" stroke="#63b8ff" d="M1836.33,-329.96C1869.4,-321.81 1913.15,-308.63 1923.5,-294 1945.06,-263.51 1891.2,-245.87 1850.62,-237.23"/>
<polygon fill="#63b8ff" stroke="#63b8ff" points="1851.14,-233.76 1840.65,-235.22 1849.76,-240.63 1851.14,-233.76"/>
</a>
</g>
</g>
<!-- Node10 -->
<g id="Node000010" class="node">
<title>Node10</title>
<g id="a_Node000010"><a xlink:title=" ">
<polygon fill="#e0e0e0" stroke="#999999" points="73.5,-129 25.5,-129 25.5,-110 73.5,-110 73.5,-129"/>
<text text-anchor="middle" x="49.5" y="-117" font-family="Helvetica,sans-Serif" font-size="10.00">mutex</text>
</a>
</g>
</g>
<!-- Node9&#45;&gt;Node10 -->
<g id="edge9_Node000009_Node000010" class="edge">
<title>Node9&#45;&gt;Node10</title>
<g id="a_edge9_Node000009_Node000010"><a xlink:title=" ">
<path fill="none" stroke="#63b8ff" d="M57.01,-164.75C55.83,-157.8 54.14,-147.85 52.66,-139.13"/>
<polygon fill="#63b8ff" stroke="#63b8ff" points="56.08,-138.36 50.96,-129.09 49.18,-139.53 56.08,-138.36"/>
</a>
</g>
</g>
<!-- Node11 -->
<g id="Node000011" class="node">
<title>Node11</title>
<g id="a_Node000011"><a xlink:title=" ">
<polygon fill="#e0e0e0" stroke="#999999" points="331,-74 284,-74 284,-55 331,-55 331,-74"/>
<text text-anchor="middle" x="307.5" y="-62" font-family="Helvetica,sans-Serif" font-size="10.00">queue</text>
</a>
</g>
</g>
<!-- Node9&#45;&gt;Node11 -->
<g id="edge10_Node000009_Node000011" class="edge">
<title>Node9&#45;&gt;Node11</title>
<g id="a_edge10_Node000009_Node000011"><a xlink:title=" ">
<path fill="none" stroke="#63b8ff" d="M64.6,-164.57C74.6,-150.67 95.83,-123.98 120.5,-110 169.31,-82.35 234.64,-71.82 273.76,-67.86"/>
<polygon fill="#63b8ff" stroke="#63b8ff" points="274.19,-71.33 283.82,-66.92 273.54,-64.36 274.19,-71.33"/>
</a>
</g>
</g>
<!-- Node13 -->
<g id="Node000013" class="node">
<title>Node13</title>
<g id="a_Node000013"><a xlink:title=" ">
<polygon fill="#e0e0e0" stroke="#999999" points="949.5,-239 905.5,-239 905.5,-220 949.5,-220 949.5,-239"/>
<text text-anchor="middle" x="927.5" y="-227" font-family="Helvetica,sans-Serif" font-size="10.00">string</text>
</a>
</g>
</g>
<!-- Node12&#45;&gt;Node13 -->
<g id="edge12_Node000012_Node000013" class="edge">
<title>Node12&#45;&gt;Node13</title>
<g id="a_edge12_Node000012_Node000013"><a xlink:title=" ">
<path fill="none" stroke="#63b8ff" d="M793.2,-329.84C818.08,-311.44 876.49,-268.23 907.44,-245.34"/>
<polygon fill="#63b8ff" stroke="#63b8ff" points="909.79,-247.96 915.74,-239.2 905.62,-242.33 909.79,-247.96"/>
</a>
</g>
</g>
<!-- Node14 -->
<g id="Node000014" class="node">
<title>Node14</title>
<g id="a_Node000014"><a xlink:href="_base_component_8hpp.html" target="_top" xlink:title=" ">
<polygon fill="white" stroke="#666666" points="747.5,-239 565.5,-239 565.5,-220 747.5,-220 747.5,-239"/>
<text text-anchor="middle" x="656.5" y="-227" font-family="Helvetica,sans-Serif" font-size="10.00">Components/BaseComponent.hpp</text>
</a>
</g>
</g>
<!-- Node12&#45;&gt;Node14 -->
<g id="edge13_Node000012_Node000014" class="edge">
<title>Node12&#45;&gt;Node14</title>
<g id="a_edge13_Node000012_Node000014"><a xlink:title=" ">
<path fill="none" stroke="#63b8ff" d="M770.39,-329.81C759.18,-320.97 741.42,-306.79 726.5,-294 707.96,-278.11 687.32,-259.24 673.29,-246.22"/>
<polygon fill="#63b8ff" stroke="#63b8ff" points="675.56,-243.55 665.86,-239.3 670.79,-248.68 675.56,-243.55"/>
</a>
</g>
</g>
<!-- Node12&#45;&gt;Node17 -->
<g id="edge16_Node000012_Node000017" class="edge">
<title>Node12&#45;&gt;Node17</title>
<g id="a_edge16_Node000012_Node000017"><a xlink:title=" ">
<path fill="none" stroke="#63b8ff" d="M837.89,-329.98C899.98,-320.61 999.71,-305.55 1065.67,-295.59"/>
<polygon fill="#63b8ff" stroke="#63b8ff" points="1066.59,-298.99 1075.96,-294.04 1065.54,-292.07 1066.59,-298.99"/>
</a>
</g>
</g>
<!-- Node33 -->
<g id="Node000033" class="node">
<title>Node33</title>
<g id="a_Node000033"><a xlink:href="_a_a_b_b_8hpp.html" target="_top" xlink:title=" ">
<polygon fill="white" stroke="#666666" points="827.5,-294 735.5,-294 735.5,-275 827.5,-275 827.5,-294"/>
<text text-anchor="middle" x="781.5" y="-282" font-family="Helvetica,sans-Serif" font-size="10.00">Math/AABB.hpp</text>
</a>
</g>
</g>
<!-- Node12&#45;&gt;Node33 -->
<g id="edge45_Node000012_Node000033" class="edge">
<title>Node12&#45;&gt;Node33</title>
<g id="a_edge45_Node000012_Node000033"><a xlink:title=" ">
<path fill="none" stroke="#63b8ff" d="M781.5,-329.75C781.5,-322.8 781.5,-312.85 781.5,-304.13"/>
<polygon fill="#63b8ff" stroke="#63b8ff" points="785,-304.09 781.5,-294.09 778,-304.09 785,-304.09"/>
</a>
</g>
</g>
<!-- Node15 -->
<g id="Node000015" class="node">
<title>Node15</title>
<g id="a_Node000015"><a xlink:href="_types_8hpp.html" target="_top" xlink:title=" ">
<polygon fill="white" stroke="#666666" points="859,-184 746,-184 746,-165 859,-165 859,-184"/>
<text text-anchor="middle" x="802.5" y="-172" font-family="Helvetica,sans-Serif" font-size="10.00">Common/Types.hpp</text>
</a>
</g>
</g>
<!-- Node14&#45;&gt;Node15 -->
<g id="edge14_Node000014_Node000015" class="edge">
<title>Node14&#45;&gt;Node15</title>
<g id="a_edge14_Node000014_Node000015"><a xlink:title=" ">
<path fill="none" stroke="#63b8ff" d="M679.96,-219.98C704.08,-211.23 741.87,-197.51 769.1,-187.62"/>
<polygon fill="#63b8ff" stroke="#63b8ff" points="770.41,-190.87 778.62,-184.17 768.02,-184.29 770.41,-190.87"/>
</a>
</g>
</g>
<!-- Node16 -->
<g id="Node000016" class="node">
<title>Node16</title>
<g id="a_Node000016"><a xlink:title=" ">
<polygon fill="#e0e0e0" stroke="#999999" points="836.5,-129 768.5,-129 768.5,-110 836.5,-110 836.5,-129"/>
<text text-anchor="middle" x="802.5" y="-117" font-family="Helvetica,sans-Serif" font-size="10.00">filesystem</text>
</a>
</g>
</g>
<!-- Node15&#45;&gt;Node16 -->
<g id="edge15_Node000015_Node000016" class="edge">
<title>Node15&#45;&gt;Node16</title>
<g id="a_edge15_Node000015_Node000016"><a xlink:title=" ">
<path fill="none" stroke="#63b8ff" d="M802.5,-164.75C802.5,-157.8 802.5,-147.85 802.5,-139.13"/>
<polygon fill="#63b8ff" stroke="#63b8ff" points="806,-139.09 802.5,-129.09 799,-139.09 806,-139.09"/>
</a>
</g>
</g>
<!-- Node17&#45;&gt;Node4 -->
<g id="edge19_Node000017_Node000004" class="edge">
<title>Node17&#45;&gt;Node4</title>
<g id="a_edge19_Node000017_Node000004"><a xlink:title=" ">
<path fill="none" stroke="#63b8ff" d="M1236.29,-283.33C1399.35,-281.96 1700.46,-274.58 1733.5,-239 1739.25,-232.81 1739.3,-226.14 1733.5,-220 1708.76,-193.78 1180.06,-180.16 1013.97,-176.51"/>
<polygon fill="#63b8ff" stroke="#63b8ff" points="1013.64,-173.01 1003.56,-176.29 1013.48,-180.01 1013.64,-173.01"/>
</a>
</g>
</g>
<!-- Node17&#45;&gt;Node8 -->
<g id="edge17_Node000017_Node000008" class="edge">
<title>Node17&#45;&gt;Node8</title>
<g id="a_edge17_Node000017_Node000008"><a xlink:title=" ">
<path fill="none" stroke="#63b8ff" d="M1236.11,-280.07C1361.96,-275.02 1580.52,-263.4 1766.5,-239 1767.76,-238.83 1769.03,-238.66 1770.32,-238.47"/>
<polygon fill="#63b8ff" stroke="#63b8ff" points="1770.98,-241.91 1780.28,-236.84 1769.85,-235 1770.98,-241.91"/>
</a>
</g>
</g>
<!-- Node17&#45;&gt;Node13 -->
<g id="edge18_Node000017_Node000013" class="edge">
<title>Node17&#45;&gt;Node13</title>
<g id="a_edge18_Node000017_Node000013"><a xlink:title=" ">
<path fill="none" stroke="#63b8ff" d="M1098.45,-274.98C1065.33,-266.64 1013.34,-253.46 959.26,-239.17"/>
<polygon fill="#63b8ff" stroke="#63b8ff" points="960.07,-235.76 949.5,-236.58 958.27,-242.53 960.07,-235.76"/>
</a>
</g>
</g>
<!-- Node17&#45;&gt;Node14 -->
<g id="edge24_Node000017_Node000014" class="edge">
<title>Node17&#45;&gt;Node14</title>
<g id="a_edge24_Node000017_Node000014"><a xlink:title=" ">
<path fill="none" stroke="#63b8ff" d="M1056.02,-274.98C970.62,-265.48 832.67,-250.12 743.29,-240.16"/>
<polygon fill="#63b8ff" stroke="#63b8ff" points="743.51,-236.67 733.18,-239.04 742.73,-243.62 743.51,-236.67"/>
</a>
</g>
</g>
<!-- Node18 -->
<g id="Node000018" class="node">
<title>Node18</title>
<g id="a_Node000018"><a xlink:title=" ">
<polygon fill="#e0e0e0" stroke="#999999" points="1724,-239 1561,-239 1561,-220 1724,-220 1724,-239"/>
<text text-anchor="middle" x="1642.5" y="-227" font-family="Helvetica,sans-Serif" font-size="10.00">glm/gtc/matrix_transform.hpp</text>
</a>
</g>
</g>
<!-- Node17&#45;&gt;Node18 -->
<g id="edge20_Node000017_Node000018" class="edge">
<title>Node17&#45;&gt;Node18</title>
<g id="a_edge20_Node000017_Node000018"><a xlink:title=" ">
<path fill="none" stroke="#63b8ff" d="M1214.44,-274.98C1306.36,-265.43 1455.08,-249.98 1550.8,-240.03"/>
<polygon fill="#63b8ff" stroke="#63b8ff" points="1551.18,-243.51 1560.76,-238.99 1550.45,-236.55 1551.18,-243.51"/>
</a>
</g>
</g>
<!-- Node19 -->
<g id="Node000019" class="node">
<title>Node19</title>
<g id="a_Node000019"><a xlink:title=" ">
<polygon fill="#e0e0e0" stroke="#999999" points="1203.5,-239 1073.5,-239 1073.5,-220 1203.5,-220 1203.5,-239"/>
<text text-anchor="middle" x="1138.5" y="-227" font-family="Helvetica,sans-Serif" font-size="10.00">glm/gtc/quaternion.hpp</text>
</a>
</g>
</g>
<!-- Node17&#45;&gt;Node19 -->
<g id="edge21_Node000017_Node000019" class="edge">
<title>Node17&#45;&gt;Node19</title>
<g id="a_edge21_Node000017_Node000019"><a xlink:title=" ">
<path fill="none" stroke="#63b8ff" d="M1133.49,-274.75C1134.28,-267.8 1135.4,-257.85 1136.39,-249.13"/>
<polygon fill="#63b8ff" stroke="#63b8ff" points="1139.88,-249.42 1137.53,-239.09 1132.92,-248.63 1139.88,-249.42"/>
</a>
</g>
</g>
<!-- Node20 -->
<g id="Node000020" class="node">
<title>Node20</title>
<g id="a_Node000020"><a xlink:title=" ">
<polygon fill="#e0e0e0" stroke="#999999" points="1393.5,-239 1221.5,-239 1221.5,-220 1393.5,-220 1393.5,-239"/>
<text text-anchor="middle" x="1307.5" y="-227" font-family="Helvetica,sans-Serif" font-size="10.00">glm/gtx/matrix_decompose.hpp</text>
</a>
</g>
</g>
<!-- Node17&#45;&gt;Node20 -->
<g id="edge22_Node000017_Node000020" class="edge">
<title>Node17&#45;&gt;Node20</title>
<g id="a_edge22_Node000017_Node000020"><a xlink:title=" ">
<path fill="none" stroke="#63b8ff" d="M1160.62,-274.98C1190.12,-266.05 1236.69,-251.94 1269.47,-242.02"/>
<polygon fill="#63b8ff" stroke="#63b8ff" points="1270.61,-245.33 1279.16,-239.08 1268.58,-238.63 1270.61,-245.33"/>
</a>
</g>
</g>
<!-- Node21 -->
<g id="Node000021" class="node">
<title>Node21</title>
<g id="a_Node000021"><a xlink:title=" ">
<polygon fill="#e0e0e0" stroke="#999999" points="1543,-239 1412,-239 1412,-220 1543,-220 1543,-239"/>
<text text-anchor="middle" x="1477.5" y="-227" font-family="Helvetica,sans-Serif" font-size="10.00">glm/gtx/string_cast.hpp</text>
</a>
</g>
</g>
<!-- Node17&#45;&gt;Node21 -->
<g id="edge23_Node000017_Node000021" class="edge">
<title>Node17&#45;&gt;Node21</title>
<g id="a_edge23_Node000017_Node000021"><a xlink:title=" ">
<path fill="none" stroke="#63b8ff" d="M1187.93,-274.98C1248.95,-265.61 1346.98,-250.55 1411.81,-240.59"/>
<polygon fill="#63b8ff" stroke="#63b8ff" points="1412.57,-244.02 1421.92,-239.04 1411.51,-237.1 1412.57,-244.02"/>
</a>
</g>
</g>
<!-- Node17&#45;&gt;Node22 -->
<g id="edge25_Node000017_Node000022" class="edge">
<title>Node17&#45;&gt;Node22</title>
<g id="a_edge25_Node000017_Node000022"><a xlink:title=" ">
<path fill="none" stroke="#63b8ff" d="M1028.94,-275.85C913.61,-267.25 721.68,-252.69 556.5,-239 544.65,-238.02 531.97,-236.92 519.85,-235.86"/>
<polygon fill="#63b8ff" stroke="#63b8ff" points="520.09,-232.37 509.82,-234.97 519.48,-239.34 520.09,-232.37"/>
</a>
</g>
</g>
<!-- Node32 -->
<g id="Node000032" class="node">
<title>Node32</title>
<g id="a_Node000032"><a xlink:href="_math_2_utils_8hpp.html" target="_top" xlink:title=" ">
<polygon fill="white" stroke="#666666" points="1055.5,-239 967.5,-239 967.5,-220 1055.5,-220 1055.5,-239"/>
<text text-anchor="middle" x="1011.5" y="-227" font-family="Helvetica,sans-Serif" font-size="10.00">Math/Utils.hpp</text>
</a>
</g>
</g>
<!-- Node17&#45;&gt;Node32 -->
<g id="edge43_Node000017_Node000032" class="edge">
<title>Node17&#45;&gt;Node32</title>
<g id="a_edge43_Node000017_Node000032"><a xlink:title=" ">
<path fill="none" stroke="#63b8ff" d="M1113.06,-274.98C1093.51,-266.42 1063.12,-253.11 1040.68,-243.28"/>
<polygon fill="#63b8ff" stroke="#63b8ff" points="1041.86,-239.98 1031.29,-239.17 1039.05,-246.39 1041.86,-239.98"/>
</a>
</g>
</g>
<!-- Node22&#45;&gt;Node9 -->
<g id="edge27_Node000022_Node000009" class="edge">
<title>Node22&#45;&gt;Node9</title>
<g id="a_edge27_Node000022_Node000009"><a xlink:title=" ">
<path fill="none" stroke="#63b8ff" d="M411.21,-222C340.03,-212.62 208.18,-195.23 127.41,-184.58"/>
<polygon fill="#63b8ff" stroke="#63b8ff" points="127.7,-181.09 117.33,-183.26 126.79,-188.03 127.7,-181.09"/>
</a>
</g>
</g>
<!-- Node23 -->
<g id="Node000023" class="node">
<title>Node23</title>
<g id="a_Node000023"><a xlink:title=" ">
<polygon fill="#e0e0e0" stroke="#999999" points="517.5,-129 431.5,-129 431.5,-110 517.5,-110 517.5,-129"/>
<text text-anchor="middle" x="474.5" y="-117" font-family="Helvetica,sans-Serif" font-size="10.00">unordered_set</text>
</a>
</g>
</g>
<!-- Node22&#45;&gt;Node23 -->
<g id="edge26_Node000022_Node000023" class="edge">
<title>Node22&#45;&gt;Node23</title>
<g id="a_edge26_Node000022_Node000023"><a xlink:title=" ">
<path fill="none" stroke="#63b8ff" d="M470.38,-219.75C478.89,-211.5 490.55,-198.3 495.5,-184 500.89,-168.44 493.86,-150.62 486.52,-137.83"/>
<polygon fill="#63b8ff" stroke="#63b8ff" points="489.34,-135.75 481.04,-129.15 483.42,-139.48 489.34,-135.75"/>
</a>
</g>
</g>
<!-- Node24 -->
<g id="Node000024" class="node">
<title>Node24</title>
<g id="a_Node000024"><a xlink:href="_entity_8hpp.html" target="_top" xlink:title=" ">
<polygon fill="white" stroke="#666666" points="606.5,-74 520.5,-74 520.5,-55 606.5,-55 606.5,-74"/>
<text text-anchor="middle" x="563.5" y="-62" font-family="Helvetica,sans-Serif" font-size="10.00">ECS/Entity.hpp</text>
</a>
</g>
</g>
<!-- Node22&#45;&gt;Node24 -->
<g id="edge28_Node000022_Node000024" class="edge">
<title>Node22&#45;&gt;Node24</title>
<g id="a_edge28_Node000022_Node000024"><a xlink:title=" ">
<path fill="none" stroke="#63b8ff" d="M509.51,-221.76C570.2,-212.91 666.91,-196.98 677.5,-184 687.28,-172.01 693.5,-138.39 672.5,-110 659.12,-91.91 637.1,-81.15 616.33,-74.76"/>
<polygon fill="#63b8ff" stroke="#63b8ff" points="617.18,-71.36 606.6,-72.04 615.29,-78.11 617.18,-71.36"/>
</a>
</g>
</g>
<!-- Node26 -->
<g id="Node000026" class="node">
<title>Node26</title>
<g id="a_Node000026"><a xlink:href="_entity_hierarchy_8hpp.html" target="_top" xlink:title=" ">
<polygon fill="white" stroke="#666666" points="307.5,-184 173.5,-184 173.5,-165 307.5,-165 307.5,-184"/>
<text text-anchor="middle" x="240.5" y="-172" font-family="Helvetica,sans-Serif" font-size="10.00">ECS/EntityHierarchy.hpp</text>
</a>
</g>
</g>
<!-- Node22&#45;&gt;Node26 -->
<g id="edge30_Node000022_Node000026" class="edge">
<title>Node22&#45;&gt;Node26</title>
<g id="a_edge30_Node000022_Node000026"><a xlink:title=" ">
<path fill="none" stroke="#63b8ff" d="M425.15,-219.98C387.34,-210.87 327.24,-196.4 285.93,-186.45"/>
<polygon fill="#63b8ff" stroke="#63b8ff" points="286.67,-183.02 276.12,-184.08 285.03,-189.83 286.67,-183.02"/>
</a>
</g>
</g>
<!-- Node29 -->
<g id="Node000029" class="node">
<title>Node29</title>
<g id="a_Node000029"><a xlink:href="_entity_provider_8hpp.html" target="_top" xlink:title="Manages a pool of unused entity identifiers and provides mechanisms for requesting and removing them.">
<polygon fill="white" stroke="#666666" points="663.5,-129 535.5,-129 535.5,-110 663.5,-110 663.5,-129"/>
<text text-anchor="middle" x="599.5" y="-117" font-family="Helvetica,sans-Serif" font-size="10.00">ECS/EntityProvider.hpp</text>
</a>
</g>
</g>
<!-- Node22&#45;&gt;Node29 -->
<g id="edge36_Node000022_Node000029" class="edge">
<title>Node22&#45;&gt;Node29</title>
<g id="a_edge36_Node000022_Node000029"><a xlink:title=" ">
<path fill="none" stroke="#63b8ff" d="M509.85,-220.8C565.95,-211.55 651.04,-195.79 660.5,-184 675.29,-165.55 649.94,-146.21 627.55,-133.8"/>
<polygon fill="#63b8ff" stroke="#63b8ff" points="629.06,-130.64 618.58,-129.08 625.8,-136.83 629.06,-130.64"/>
</a>
</g>
</g>
<!-- Node30 -->
<g id="Node000030" class="node">
<title>Node30</title>
<g id="a_Node000030"><a xlink:href="_singleton_component_8hpp.html" target="_top" xlink:title=" ">
<polygon fill="white" stroke="#666666" points="487,-184 326,-184 326,-165 487,-165 487,-184"/>
<text text-anchor="middle" x="406.5" y="-172" font-family="Helvetica,sans-Serif" font-size="10.00">ECS/SingletonComponent.hpp</text>
</a>
</g>
</g>
<!-- Node22&#45;&gt;Node30 -->
<g id="edge40_Node000022_Node000030" class="edge">
<title>Node22&#45;&gt;Node30</title>
<g id="a_edge40_Node000022_Node000030"><a xlink:title=" ">
<path fill="none" stroke="#63b8ff" d="M451.58,-219.75C443.72,-212.03 432.07,-200.6 422.58,-191.28"/>
<polygon fill="#63b8ff" stroke="#63b8ff" points="424.84,-188.6 415.25,-184.09 419.94,-193.59 424.84,-188.6"/>
</a>
</g>
</g>
<!-- Node31 -->
<g id="Node000031" class="node">
<title>Node31</title>
<g id="a_Node000031"><a xlink:href="_sparse_set_8hpp.html" target="_top" xlink:title=" ">
<polygon fill="white" stroke="#666666" points="651.5,-184 543.5,-184 543.5,-165 651.5,-165 651.5,-184"/>
<text text-anchor="middle" x="597.5" y="-172" font-family="Helvetica,sans-Serif" font-size="10.00">ECS/SparseSet.hpp</text>
</a>
</g>
</g>
<!-- Node22&#45;&gt;Node31 -->
<g id="edge41_Node000022_Node000031" class="edge">
<title>Node22&#45;&gt;Node31</title>
<g id="a_edge41_Node000022_Node000031"><a xlink:title=" ">
<path fill="none" stroke="#63b8ff" d="M482.51,-219.98C504.95,-211.3 539.98,-197.75 565.49,-187.88"/>
<polygon fill="#63b8ff" stroke="#63b8ff" points="567.02,-191.04 575.09,-184.17 564.5,-184.51 567.02,-191.04"/>
</a>
</g>
</g>
<!-- Node25 -->
<g id="Node000025" class="node">
<title>Node25</title>
<g id="a_Node000025"><a xlink:title=" ">
<polygon fill="#e0e0e0" stroke="#999999" points="625,-19 572,-19 572,0 625,0 625,-19"/>
<text text-anchor="middle" x="598.5" y="-7" font-family="Helvetica,sans-Serif" font-size="10.00">stdlib.h</text>
</a>
</g>
</g>
<!-- Node24&#45;&gt;Node25 -->
<g id="edge29_Node000024_Node000025" class="edge">
<title>Node24&#45;&gt;Node25</title>
<g id="a_edge29_Node000024_Node000025"><a xlink:title=" ">
<path fill="none" stroke="#63b8ff" d="M569.28,-54.75C574.12,-47.42 581.18,-36.73 587.14,-27.7"/>
<polygon fill="#63b8ff" stroke="#63b8ff" points="590.24,-29.36 592.83,-19.09 584.4,-25.5 590.24,-29.36"/>
</a>
</g>
</g>
<!-- Node26&#45;&gt;Node2 -->
<g id="edge31_Node000026_Node000002" class="edge">
<title>Node26&#45;&gt;Node2</title>
<g id="a_edge31_Node000026_Node000002"><a xlink:title=" ">
<path fill="none" stroke="#63b8ff" d="M227.97,-164.98C216.1,-156.92 198.04,-144.65 183.89,-135.03"/>
<polygon fill="#63b8ff" stroke="#63b8ff" points="185.5,-131.9 175.26,-129.17 181.56,-137.69 185.5,-131.9"/>
</a>
</g>
</g>
<!-- Node26&#45;&gt;Node23 -->
<g id="edge34_Node000026_Node000023" class="edge">
<title>Node26&#45;&gt;Node23</title>
<g id="a_edge34_Node000026_Node000023"><a xlink:title=" ">
<path fill="none" stroke="#63b8ff" d="M278.1,-164.98C318.49,-155.84 382.78,-141.27 426.73,-131.32"/>
<polygon fill="#63b8ff" stroke="#63b8ff" points="427.63,-134.7 436.61,-129.08 426.08,-127.88 427.63,-134.7"/>
</a>
</g>
</g>
<!-- Node26&#45;&gt;Node24 -->
<g id="edge35_Node000026_Node000024" class="edge">
<title>Node26&#45;&gt;Node24</title>
<g id="a_edge35_Node000026_Node000024"><a xlink:title=" ">
<path fill="none" stroke="#63b8ff" d="M272.79,-164.97C302.09,-156.87 346.28,-143.76 383.5,-129 401.42,-121.89 404.59,-117.14 422.5,-110 455.31,-96.91 493.58,-85.04 521.97,-76.85"/>
<polygon fill="#63b8ff" stroke="#63b8ff" points="523.29,-80.12 531.95,-74.01 521.38,-73.38 523.29,-80.12"/>
</a>
</g>
</g>
<!-- Node27 -->
<g id="Node000027" class="node">
<title>Node27</title>
<g id="a_Node000027"><a xlink:title=" ">
<polygon fill="#e0e0e0" stroke="#999999" points="263.5,-129 213.5,-129 213.5,-110 263.5,-110 263.5,-129"/>
<text text-anchor="middle" x="238.5" y="-117" font-family="Helvetica,sans-Serif" font-size="10.00">ranges</text>
</a>
</g>
</g>
<!-- Node26&#45;&gt;Node27 -->
<g id="edge32_Node000026_Node000027" class="edge">
<title>Node26&#45;&gt;Node27</title>
<g id="a_edge32_Node000026_Node000027"><a xlink:title=" ">
<path fill="none" stroke="#63b8ff" d="M240.17,-164.75C239.91,-157.8 239.53,-147.85 239.2,-139.13"/>
<polygon fill="#63b8ff" stroke="#63b8ff" points="242.7,-138.95 238.82,-129.09 235.7,-139.21 242.7,-138.95"/>
</a>
</g>
</g>
<!-- Node28 -->
<g id="Node000028" class="node">
<title>Node28</title>
<g id="a_Node000028"><a xlink:title=" ">
<polygon fill="#e0e0e0" stroke="#999999" points="375,-129 282,-129 282,-110 375,-110 375,-129"/>
<text text-anchor="middle" x="328.5" y="-117" font-family="Helvetica,sans-Serif" font-size="10.00">unordered_map</text>
</a>
</g>
</g>
<!-- Node26&#45;&gt;Node28 -->
<g id="edge33_Node000026_Node000028" class="edge">
<title>Node26&#45;&gt;Node28</title>
<g id="a_edge33_Node000026_Node000028"><a xlink:title=" ">
<path fill="none" stroke="#63b8ff" d="M254.64,-164.98C268.29,-156.77 289.19,-144.18 305.28,-134.49"/>
<polygon fill="#63b8ff" stroke="#63b8ff" points="307.34,-137.33 314.1,-129.17 303.73,-131.33 307.34,-137.33"/>
</a>
</g>
</g>
<!-- Node29&#45;&gt;Node11 -->
<g id="edge38_Node000029_Node000011" class="edge">
<title>Node29&#45;&gt;Node11</title>
<g id="a_edge38_Node000029_Node000011"><a xlink:title=" ">
<path fill="none" stroke="#63b8ff" d="M552.59,-109.98C493.46,-99.25 393.29,-81.07 341.21,-71.62"/>
<polygon fill="#63b8ff" stroke="#63b8ff" points="341.63,-68.14 331.16,-69.8 340.38,-75.02 341.63,-68.14"/>
</a>
</g>
</g>
<!-- Node29&#45;&gt;Node24 -->
<g id="edge39_Node000029_Node000024" class="edge">
<title>Node29&#45;&gt;Node24</title>
<g id="a_edge39_Node000029_Node000024"><a xlink:title=" ">
<path fill="none" stroke="#63b8ff" d="M593.56,-109.75C588.52,-102.34 581.16,-91.5 574.99,-82.41"/>
<polygon fill="#63b8ff" stroke="#63b8ff" points="577.85,-80.39 569.33,-74.09 572.06,-84.33 577.85,-80.39"/>
</a>
</g>
</g>
<!-- Node29&#45;&gt;Node25 -->
<g id="edge37_Node000029_Node000025" class="edge">
<title>Node29&#45;&gt;Node25</title>
<g id="a_edge37_Node000029_Node000025"><a xlink:title=" ">
<path fill="none" stroke="#63b8ff" d="M604.07,-109.95C610,-97.83 619.17,-74.9 615.5,-55 613.83,-45.95 610.4,-36.36 607.06,-28.41"/>
<polygon fill="#63b8ff" stroke="#63b8ff" points="610.16,-26.78 602.87,-19.09 603.77,-29.65 610.16,-26.78"/>
</a>
</g>
</g>
<!-- Node31&#45;&gt;Node29 -->
<g id="edge42_Node000031_Node000029" class="edge">
<title>Node31&#45;&gt;Node29</title>
<g id="a_edge42_Node000031_Node000029"><a xlink:title=" ">
<path fill="none" stroke="#63b8ff" d="M597.83,-164.75C598.09,-157.8 598.47,-147.85 598.8,-139.13"/>
<polygon fill="#63b8ff" stroke="#63b8ff" points="602.3,-139.21 599.18,-129.09 595.3,-138.95 602.3,-139.21"/>
</a>
</g>
</g>
<!-- Node32&#45;&gt;Node4 -->
<g id="edge44_Node000032_Node000004" class="edge">
<title>Node32&#45;&gt;Node4</title>
<g id="a_edge44_Node000032_Node000004"><a xlink:title=" ">
<path fill="none" stroke="#63b8ff" d="M1003.74,-219.75C997.03,-212.18 987.16,-201.05 978.99,-191.84"/>
<polygon fill="#63b8ff" stroke="#63b8ff" points="981.37,-189.25 972.12,-184.09 976.13,-193.89 981.37,-189.25"/>
</a>
</g>
</g>
<!-- Node33&#45;&gt;Node4 -->
<g id="edge48_Node000033_Node000004" class="edge">
<title>Node33&#45;&gt;Node4</title>
<g id="a_edge48_Node000033_Node000004"><a xlink:title=" ">
<path fill="none" stroke="#63b8ff" d="M780.63,-274.82C779.77,-261.26 780.26,-235.03 794.5,-220 811,-202.59 871.37,-189.77 915.49,-182.48"/>
<polygon fill="#63b8ff" stroke="#63b8ff" points="916.16,-185.92 925.48,-180.88 915.05,-179.01 916.16,-185.92"/>
</a>
</g>
</g>
<!-- Node34 -->
<g id="Node000034" class="node">
<title>Node34</title>
<g id="a_Node000034"><a xlink:href="_ray_8hpp.html" target="_top" xlink:title=" ">
<polygon fill="white" stroke="#666666" points="887,-239 804,-239 804,-220 887,-220 887,-239"/>
<text text-anchor="middle" x="845.5" y="-227" font-family="Helvetica,sans-Serif" font-size="10.00">Math/Ray.hpp</text>
</a>
</g>
</g>
<!-- Node33&#45;&gt;Node34 -->
<g id="edge46_Node000033_Node000034" class="edge">
<title>Node33&#45;&gt;Node34</title>
<g id="a_edge46_Node000033_Node000034"><a xlink:title=" ">
<path fill="none" stroke="#63b8ff" d="M791.78,-274.98C801.34,-267.07 815.78,-255.11 827.28,-245.58"/>
<polygon fill="#63b8ff" stroke="#63b8ff" points="829.56,-248.24 835.03,-239.17 825.1,-242.85 829.56,-248.24"/>
</a>
</g>
</g>
<!-- Node34&#45;&gt;Node4 -->
<g id="edge47_Node000034_Node000004" class="edge">
<title>Node34&#45;&gt;Node4</title>
<g id="a_edge47_Node000034_Node000004"><a xlink:title=" ">
<path fill="none" stroke="#63b8ff" d="M864.62,-219.98C883.85,-211.42 913.73,-198.11 935.81,-188.28"/>
<polygon fill="#63b8ff" stroke="#63b8ff" points="937.32,-191.44 945.03,-184.17 934.47,-185.04 937.32,-191.44"/>
</a>
</g>
</g>
<!-- Node35&#45;&gt;Node4 -->
<g id="edge50_Node000035_Node000004" class="edge">
<title>Node35&#45;&gt;Node4</title>
<g id="a_edge50_Node000035_Node000004"><a xlink:title=" ">
<path fill="none" stroke="#63b8ff" d="M1104.34,-334.1C1316.57,-323.63 1800.67,-293.93 1849.5,-239 1855.11,-232.69 1855.32,-226.12 1849.5,-220 1820.53,-189.53 1195.56,-178.65 1013.72,-176.12"/>
<polygon fill="#63b8ff" stroke="#63b8ff" points="1013.68,-172.62 1003.63,-175.98 1013.59,-179.62 1013.68,-172.62"/>
</a>
</g>
</g>
<!-- Node35&#45;&gt;Node17 -->
<g id="edge51_Node000035_Node000017" class="edge">
<title>Node35&#45;&gt;Node17</title>
<g id="a_edge51_Node000035_Node000017"><a xlink:title=" ">
<path fill="none" stroke="#63b8ff" d="M1025.9,-329.98C1046.52,-321.38 1078.61,-307.99 1102.19,-298.15"/>
<polygon fill="#63b8ff" stroke="#63b8ff" points="1103.84,-301.25 1111.72,-294.17 1101.15,-294.79 1103.84,-301.25"/>
</a>
</g>
</g>
<!-- Node35&#45;&gt;Node34 -->
<g id="edge52_Node000035_Node000034" class="edge">
<title>Node35&#45;&gt;Node34</title>
<g id="a_edge52_Node000035_Node000034"><a xlink:title=" ">
<path fill="none" stroke="#63b8ff" d="M992.68,-329.84C965.29,-311.36 900.85,-267.86 867.05,-245.05"/>
<polygon fill="#63b8ff" stroke="#63b8ff" points="868.63,-241.89 858.38,-239.2 864.71,-247.69 868.63,-241.89"/>
</a>
</g>
</g>
</g>
</svg>
