<?xml version="1.0" encoding="UTF-8" standalone="no"?>
<!DOCTYPE svg PUBLIC "-//W3C//DTD SVG 1.1//EN"
 "http://www.w3.org/Graphics/SVG/1.1/DTD/svg11.dtd">
<!-- Generated by graphviz version 2.43.0 (0)
 -->
<!-- Title: src/InputManager/InputManager.hpp Pages: 1 -->
<svg width="1873pt" height="412pt"
 viewBox="0.00 0.00 1872.50 412.00" xmlns="http://www.w3.org/2000/svg" xmlns:xlink="http://www.w3.org/1999/xlink">
<g id="graph0" class="graph" transform="scale(1 1) rotate(0) translate(4 408)">
<title>src/InputManager/InputManager.hpp</title>
<!-- Node1 -->
<g id="Node000001" class="node">
<title>Node1</title>
<g id="a_Node000001"><a xlink:title=" ">
<polygon fill="#999999" stroke="#666666" points="681.5,-404 489.5,-404 489.5,-385 681.5,-385 681.5,-404"/>
<text text-anchor="middle" x="585.5" y="-392" font-family="Helvetica,sans-Serif" font-size="10.00">src/InputManager/InputManager.hpp</text>
</a>
</g>
</g>
<!-- Node2 -->
<g id="Node000002" class="node">
<title>Node2</title>
<g id="a_Node000002"><a xlink:title=" ">
<polygon fill="#e0e0e0" stroke="#999999" points="451,-129 386,-129 386,-110 451,-110 451,-129"/>
<text text-anchor="middle" x="418.5" y="-117" font-family="Helvetica,sans-Serif" font-size="10.00">functional</text>
</a>
</g>
</g>
<!-- Node1&#45;&gt;Node2 -->
<g id="edge1_Node000001_Node000002" class="edge">
<title>Node1&#45;&gt;Node2</title>
<g id="a_edge1_Node000001_Node000002"><a xlink:title=" ">
<path fill="none" stroke="#63b8ff" d="M489.48,-389.14C360.02,-380.58 145.5,-355.8 145.5,-285.5 145.5,-285.5 145.5,-285.5 145.5,-228.5 145.5,-199.04 142.43,-184.52 164.5,-165 233.71,-103.79 279.43,-143.63 375.84,-128.91"/>
<polygon fill="#63b8ff" stroke="#63b8ff" points="376.69,-132.31 385.96,-127.19 375.52,-125.41 376.69,-132.31"/>
</a>
</g>
</g>
<!-- Node3 -->
<g id="Node000003" class="node">
<title>Node3</title>
<g id="a_Node000003"><a xlink:title=" ">
<polygon fill="#e0e0e0" stroke="#999999" points="1216,-349 1133,-349 1133,-330 1216,-330 1216,-349"/>
<text text-anchor="middle" x="1174.5" y="-337" font-family="Helvetica,sans-Serif" font-size="10.00">GLFW/glfw3.h</text>
</a>
</g>
</g>
<!-- Node1&#45;&gt;Node3 -->
<g id="edge2_Node000001_Node000003" class="edge">
<title>Node1&#45;&gt;Node3</title>
<g id="a_edge2_Node000001_Node000003"><a xlink:title=" ">
<path fill="none" stroke="#63b8ff" d="M681.66,-388.06C787.46,-381.51 962.72,-368.99 1122.77,-349.12"/>
<polygon fill="#63b8ff" stroke="#63b8ff" points="1123.31,-352.58 1132.8,-347.87 1122.44,-345.64 1123.31,-352.58"/>
</a>
</g>
</g>
<!-- Node4 -->
<g id="Node000004" class="node">
<title>Node4</title>
<g id="a_Node000004"><a xlink:title=" ">
<polygon fill="#e0e0e0" stroke="#999999" points="839.5,-184 761.5,-184 761.5,-165 839.5,-165 839.5,-184"/>
<text text-anchor="middle" x="800.5" y="-172" font-family="Helvetica,sans-Serif" font-size="10.00">glm/glm.hpp</text>
</a>
</g>
</g>
<!-- Node1&#45;&gt;Node4 -->
<g id="edge3_Node000001_Node000004" class="edge">
<title>Node1&#45;&gt;Node4</title>
<g id="a_edge3_Node000001_Node000004"><a xlink:title=" ">
<path fill="none" stroke="#63b8ff" d="M572.72,-385C562.11,-377.1 547.78,-364.27 541.5,-349 525.02,-308.9 508.29,-277.21 568.5,-220 581.64,-207.51 687.28,-191.05 751.39,-182.06"/>
<polygon fill="#63b8ff" stroke="#63b8ff" points="751.88,-185.52 761.3,-180.68 750.91,-178.59 751.88,-185.52"/>
</a>
</g>
</g>
<!-- Node5 -->
<g id="Node000005" class="node">
<title>Node5</title>
<g id="a_Node000005"><a xlink:href="_logger_8hpp.html" target="_top" xlink:title=" ">
<polygon fill="white" stroke="#666666" points="117,-184 0,-184 0,-165 117,-165 117,-184"/>
<text text-anchor="middle" x="58.5" y="-172" font-family="Helvetica,sans-Serif" font-size="10.00">Common/Logger.hpp</text>
</a>
</g>
</g>
<!-- Node1&#45;&gt;Node5 -->
<g id="edge4_Node000001_Node000005" class="edge">
<title>Node1&#45;&gt;Node5</title>
<g id="a_edge4_Node000001_Node000005"><a xlink:title=" ">
<path fill="none" stroke="#63b8ff" d="M489.48,-389.29C364.78,-383.03 159.63,-369.73 131.5,-349 80.46,-311.39 64.86,-231.14 60.29,-194.48"/>
<polygon fill="#63b8ff" stroke="#63b8ff" points="63.73,-193.78 59.17,-184.22 56.78,-194.54 63.73,-193.78"/>
</a>
</g>
</g>
<!-- Node8 -->
<g id="Node000008" class="node">
<title>Node8</title>
<g id="a_Node000008"><a xlink:href="_box_collider_component_8hpp.html" target="_top" xlink:title=" ">
<polygon fill="white" stroke="#666666" points="1115,-349 900,-349 900,-330 1115,-330 1115,-349"/>
<text text-anchor="middle" x="1007.5" y="-337" font-family="Helvetica,sans-Serif" font-size="10.00">Components/BoxColliderComponent.hpp</text>
</a>
</g>
</g>
<!-- Node1&#45;&gt;Node8 -->
<g id="edge7_Node000001_Node000008" class="edge">
<title>Node1&#45;&gt;Node8</title>
<g id="a_edge7_Node000001_Node000008"><a xlink:title=" ">
<path fill="none" stroke="#63b8ff" d="M653.3,-384.98C728.71,-375.51 850.32,-360.24 929.59,-350.29"/>
<polygon fill="#63b8ff" stroke="#63b8ff" points="930.03,-353.76 939.52,-349.04 929.16,-346.81 930.03,-353.76"/>
</a>
</g>
</g>
<!-- Node13 -->
<g id="Node000013" class="node">
<title>Node13</title>
<g id="a_Node000013"><a xlink:href="_transform_component_8hpp.html" target="_top" xlink:title=" ">
<polygon fill="white" stroke="#666666" points="1142,-294 935,-294 935,-275 1142,-275 1142,-294"/>
<text text-anchor="middle" x="1038.5" y="-282" font-family="Helvetica,sans-Serif" font-size="10.00">Components/TransformComponent.hpp</text>
</a>
</g>
</g>
<!-- Node1&#45;&gt;Node13 -->
<g id="edge48_Node000001_Node000013" class="edge">
<title>Node1&#45;&gt;Node13</title>
<g id="a_edge48_Node000001_Node000013"><a xlink:title=" ">
<path fill="none" stroke="#63b8ff" d="M621.42,-384.94C703.03,-365.48 902.28,-317.98 992.62,-296.44"/>
<polygon fill="#63b8ff" stroke="#63b8ff" points="993.66,-299.79 1002.57,-294.07 992.03,-292.98 993.66,-299.79"/>
</a>
</g>
</g>
<!-- Node19 -->
<g id="Node000019" class="node">
<title>Node19</title>
<g id="a_Node000019"><a xlink:href="_registry_8hpp.html" target="_top" xlink:title=" ">
<polygon fill="white" stroke="#666666" points="494.5,-239 396.5,-239 396.5,-220 494.5,-220 494.5,-239"/>
<text text-anchor="middle" x="445.5" y="-227" font-family="Helvetica,sans-Serif" font-size="10.00">ECS/Registry.hpp</text>
</a>
</g>
</g>
<!-- Node1&#45;&gt;Node19 -->
<g id="edge49_Node000001_Node000019" class="edge">
<title>Node1&#45;&gt;Node19</title>
<g id="a_edge49_Node000001_Node000019"><a xlink:title=" ">
<path fill="none" stroke="#63b8ff" d="M563.74,-384.9C547,-377.41 524.16,-365.22 508.5,-349 479.89,-319.36 460.74,-274.12 451.64,-248.98"/>
<polygon fill="#63b8ff" stroke="#63b8ff" points="454.85,-247.56 448.26,-239.26 448.24,-249.85 454.85,-247.56"/>
</a>
</g>
</g>
<!-- Node31 -->
<g id="Node000031" class="node">
<title>Node31</title>
<g id="a_Node000031"><a xlink:href="_camera_component_8hpp.html" target="_top" xlink:title=" ">
<polygon fill="white" stroke="#666666" points="748,-349 551,-349 551,-330 748,-330 748,-349"/>
<text text-anchor="middle" x="649.5" y="-337" font-family="Helvetica,sans-Serif" font-size="10.00">Components/CameraComponent.hpp</text>
</a>
</g>
</g>
<!-- Node1&#45;&gt;Node31 -->
<g id="edge44_Node000001_Node000031" class="edge">
<title>Node1&#45;&gt;Node31</title>
<g id="a_edge44_Node000001_Node000031"><a xlink:title=" ">
<path fill="none" stroke="#63b8ff" d="M595.78,-384.98C605.34,-377.07 619.78,-365.11 631.28,-355.58"/>
<polygon fill="#63b8ff" stroke="#63b8ff" points="633.56,-358.24 639.03,-349.17 629.1,-352.85 633.56,-358.24"/>
</a>
</g>
</g>
<!-- Node6 -->
<g id="Node000006" class="node">
<title>Node6</title>
<g id="a_Node000006"><a xlink:title=" ">
<polygon fill="#e0e0e0" stroke="#999999" points="134.5,-129 86.5,-129 86.5,-110 134.5,-110 134.5,-129"/>
<text text-anchor="middle" x="110.5" y="-117" font-family="Helvetica,sans-Serif" font-size="10.00">mutex</text>
</a>
</g>
</g>
<!-- Node5&#45;&gt;Node6 -->
<g id="edge5_Node000005_Node000006" class="edge">
<title>Node5&#45;&gt;Node6</title>
<g id="a_edge5_Node000005_Node000006"><a xlink:title=" ">
<path fill="none" stroke="#63b8ff" d="M67.09,-164.75C74.66,-157.03 85.88,-145.6 95.01,-136.28"/>
<polygon fill="#63b8ff" stroke="#63b8ff" points="97.57,-138.68 102.07,-129.09 92.57,-133.78 97.57,-138.68"/>
</a>
</g>
</g>
<!-- Node7 -->
<g id="Node000007" class="node">
<title>Node7</title>
<g id="a_Node000007"><a xlink:title=" ">
<polygon fill="#e0e0e0" stroke="#999999" points="223,-74 176,-74 176,-55 223,-55 223,-74"/>
<text text-anchor="middle" x="199.5" y="-62" font-family="Helvetica,sans-Serif" font-size="10.00">queue</text>
</a>
</g>
</g>
<!-- Node5&#45;&gt;Node7 -->
<g id="edge6_Node000005_Node000007" class="edge">
<title>Node5&#45;&gt;Node7</title>
<g id="a_edge6_Node000005_Node000007"><a xlink:title=" ">
<path fill="none" stroke="#63b8ff" d="M58.72,-164.91C59.52,-151.47 62.98,-125.41 77.5,-110 100.67,-85.42 138.52,-74.36 165.92,-69.43"/>
<polygon fill="#63b8ff" stroke="#63b8ff" points="166.55,-72.87 175.86,-67.82 165.43,-65.96 166.55,-72.87"/>
</a>
</g>
</g>
<!-- Node9 -->
<g id="Node000009" class="node">
<title>Node9</title>
<g id="a_Node000009"><a xlink:title=" ">
<polygon fill="#e0e0e0" stroke="#999999" points="1664.5,-239 1620.5,-239 1620.5,-220 1664.5,-220 1664.5,-239"/>
<text text-anchor="middle" x="1642.5" y="-227" font-family="Helvetica,sans-Serif" font-size="10.00">string</text>
</a>
</g>
</g>
<!-- Node8&#45;&gt;Node9 -->
<g id="edge8_Node000008_Node000009" class="edge">
<title>Node8&#45;&gt;Node9</title>
<g id="a_edge8_Node000008_Node000009"><a xlink:title=" ">
<path fill="none" stroke="#63b8ff" d="M1073.17,-329.97C1182.77,-315.24 1409.89,-282.56 1610.39,-239.05"/>
<polygon fill="#63b8ff" stroke="#63b8ff" points="1611.19,-242.46 1620.22,-236.91 1609.7,-235.62 1611.19,-242.46"/>
</a>
</g>
</g>
<!-- Node10 -->
<g id="Node000010" class="node">
<title>Node10</title>
<g id="a_Node000010"><a xlink:href="_base_component_8hpp.html" target="_top" xlink:title=" ">
<polygon fill="white" stroke="#666666" points="1864.5,-239 1682.5,-239 1682.5,-220 1864.5,-220 1864.5,-239"/>
<text text-anchor="middle" x="1773.5" y="-227" font-family="Helvetica,sans-Serif" font-size="10.00">Components/BaseComponent.hpp</text>
</a>
</g>
</g>
<!-- Node8&#45;&gt;Node10 -->
<g id="edge9_Node000008_Node000010" class="edge">
<title>Node8&#45;&gt;Node10</title>
<g id="a_edge9_Node000008_Node000010"><a xlink:title=" ">
<path fill="none" stroke="#63b8ff" d="M1089.11,-329.97C1165.76,-321.7 1283.59,-308.33 1385.5,-294 1502.99,-277.48 1639.81,-254.12 1715.55,-240.82"/>
<polygon fill="#63b8ff" stroke="#63b8ff" points="1716.58,-244.19 1725.82,-239.01 1715.36,-237.3 1716.58,-244.19"/>
</a>
</g>
</g>
<!-- Node8&#45;&gt;Node13 -->
<g id="edge12_Node000008_Node000013" class="edge">
<title>Node8&#45;&gt;Node13</title>
<g id="a_edge12_Node000008_Node000013"><a xlink:title=" ">
<path fill="none" stroke="#63b8ff" d="M1012.62,-329.75C1016.86,-322.49 1023.03,-311.95 1028.28,-302.98"/>
<polygon fill="#63b8ff" stroke="#63b8ff" points="1031.45,-304.49 1033.48,-294.09 1025.41,-300.95 1031.45,-304.49"/>
</a>
</g>
</g>
<!-- Node29 -->
<g id="Node000029" class="node">
<title>Node29</title>
<g id="a_Node000029"><a xlink:href="_a_a_b_b_8hpp.html" target="_top" xlink:title=" ">
<polygon fill="white" stroke="#666666" points="750.5,-294 658.5,-294 658.5,-275 750.5,-275 750.5,-294"/>
<text text-anchor="middle" x="704.5" y="-282" font-family="Helvetica,sans-Serif" font-size="10.00">Math/AABB.hpp</text>
</a>
</g>
</g>
<!-- Node8&#45;&gt;Node29 -->
<g id="edge40_Node000008_Node000029" class="edge">
<title>Node8&#45;&gt;Node29</title>
<g id="a_edge40_Node000008_Node000029"><a xlink:title=" ">
<path fill="none" stroke="#63b8ff" d="M958.82,-329.98C904.69,-320.52 817.4,-305.25 760.49,-295.29"/>
<polygon fill="#63b8ff" stroke="#63b8ff" points="761.03,-291.84 750.58,-293.56 759.83,-298.73 761.03,-291.84"/>
</a>
</g>
</g>
<!-- Node11 -->
<g id="Node000011" class="node">
<title>Node11</title>
<g id="a_Node000011"><a xlink:href="_types_8hpp.html" target="_top" xlink:title=" ">
<polygon fill="white" stroke="#666666" points="1830,-184 1717,-184 1717,-165 1830,-165 1830,-184"/>
<text text-anchor="middle" x="1773.5" y="-172" font-family="Helvetica,sans-Serif" font-size="10.00">Common/Types.hpp</text>
</a>
</g>
</g>
<!-- Node10&#45;&gt;Node11 -->
<g id="edge10_Node000010_Node000011" class="edge">
<title>Node10&#45;&gt;Node11</title>
<g id="a_edge10_Node000010_Node000011"><a xlink:title=" ">
<path fill="none" stroke="#63b8ff" d="M1773.5,-219.75C1773.5,-212.8 1773.5,-202.85 1773.5,-194.13"/>
<polygon fill="#63b8ff" stroke="#63b8ff" points="1777,-194.09 1773.5,-184.09 1770,-194.09 1777,-194.09"/>
</a>
</g>
</g>
<!-- Node12 -->
<g id="Node000012" class="node">
<title>Node12</title>
<g id="a_Node000012"><a xlink:title=" ">
<polygon fill="#e0e0e0" stroke="#999999" points="1807.5,-129 1739.5,-129 1739.5,-110 1807.5,-110 1807.5,-129"/>
<text text-anchor="middle" x="1773.5" y="-117" font-family="Helvetica,sans-Serif" font-size="10.00">filesystem</text>
</a>
</g>
</g>
<!-- Node11&#45;&gt;Node12 -->
<g id="edge11_Node000011_Node000012" class="edge">
<title>Node11&#45;&gt;Node12</title>
<g id="a_edge11_Node000011_Node000012"><a xlink:title=" ">
<path fill="none" stroke="#63b8ff" d="M1773.5,-164.75C1773.5,-157.8 1773.5,-147.85 1773.5,-139.13"/>
<polygon fill="#63b8ff" stroke="#63b8ff" points="1777,-139.09 1773.5,-129.09 1770,-139.09 1777,-139.09"/>
</a>
</g>
</g>
<!-- Node13&#45;&gt;Node4 -->
<g id="edge15_Node000013_Node000004" class="edge">
<title>Node13&#45;&gt;Node4</title>
<g id="a_edge15_Node000013_Node000004"><a xlink:title=" ">
<path fill="none" stroke="#63b8ff" d="M1142.01,-283.11C1283.22,-280.76 1513.76,-269.45 1467.5,-220 1425.54,-175.15 996.97,-174.04 849.8,-175.01"/>
<polygon fill="#63b8ff" stroke="#63b8ff" points="849.67,-171.51 839.7,-175.08 849.72,-178.51 849.67,-171.51"/>
</a>
</g>
</g>
<!-- Node13&#45;&gt;Node9 -->
<g id="edge14_Node000013_Node000009" class="edge">
<title>Node13&#45;&gt;Node9</title>
<g id="a_edge14_Node000013_Node000009"><a xlink:title=" ">
<path fill="none" stroke="#63b8ff" d="M1142.23,-281.36C1255.33,-277.69 1441.61,-267.71 1610.21,-238.89"/>
<polygon fill="#63b8ff" stroke="#63b8ff" points="1611.01,-242.3 1620.26,-237.14 1609.81,-235.4 1611.01,-242.3"/>
</a>
</g>
</g>
<!-- Node13&#45;&gt;Node10 -->
<g id="edge20_Node000013_Node000010" class="edge">
<title>Node13&#45;&gt;Node10</title>
<g id="a_edge20_Node000013_Node000010"><a xlink:title=" ">
<path fill="none" stroke="#63b8ff" d="M1142.2,-276.71C1265.8,-268.5 1478.89,-254.02 1672.41,-239.07"/>
<polygon fill="#63b8ff" stroke="#63b8ff" points="1672.79,-242.56 1682.49,-238.29 1672.25,-235.58 1672.79,-242.56"/>
</a>
</g>
</g>
<!-- Node14 -->
<g id="Node000014" class="node">
<title>Node14</title>
<g id="a_Node000014"><a xlink:title=" ">
<polygon fill="#e0e0e0" stroke="#999999" points="938.5,-239 878.5,-239 878.5,-220 938.5,-220 938.5,-239"/>
<text text-anchor="middle" x="908.5" y="-227" font-family="Helvetica,sans-Serif" font-size="10.00">iostream</text>
</a>
</g>
</g>
<!-- Node13&#45;&gt;Node14 -->
<g id="edge13_Node000013_Node000014" class="edge">
<title>Node13&#45;&gt;Node14</title>
<g id="a_edge13_Node000013_Node000014"><a xlink:title=" ">
<path fill="none" stroke="#63b8ff" d="M1017.61,-274.98C996.42,-266.34 963.37,-252.87 939.2,-243.02"/>
<polygon fill="#63b8ff" stroke="#63b8ff" points="940.35,-239.7 929.77,-239.17 937.71,-246.19 940.35,-239.7"/>
</a>
</g>
</g>
<!-- Node15 -->
<g id="Node000015" class="node">
<title>Node15</title>
<g id="a_Node000015"><a xlink:title=" ">
<polygon fill="#e0e0e0" stroke="#999999" points="1120,-239 957,-239 957,-220 1120,-220 1120,-239"/>
<text text-anchor="middle" x="1038.5" y="-227" font-family="Helvetica,sans-Serif" font-size="10.00">glm/gtc/matrix_transform.hpp</text>
</a>
</g>
</g>
<!-- Node13&#45;&gt;Node15 -->
<g id="edge16_Node000013_Node000015" class="edge">
<title>Node13&#45;&gt;Node15</title>
<g id="a_edge16_Node000013_Node000015"><a xlink:title=" ">
<path fill="none" stroke="#63b8ff" d="M1038.5,-274.75C1038.5,-267.8 1038.5,-257.85 1038.5,-249.13"/>
<polygon fill="#63b8ff" stroke="#63b8ff" points="1042,-249.09 1038.5,-239.09 1035,-249.09 1042,-249.09"/>
</a>
</g>
</g>
<!-- Node16 -->
<g id="Node000016" class="node">
<title>Node16</title>
<g id="a_Node000016"><a xlink:title=" ">
<polygon fill="#e0e0e0" stroke="#999999" points="1268.5,-239 1138.5,-239 1138.5,-220 1268.5,-220 1268.5,-239"/>
<text text-anchor="middle" x="1203.5" y="-227" font-family="Helvetica,sans-Serif" font-size="10.00">glm/gtc/quaternion.hpp</text>
</a>
</g>
</g>
<!-- Node13&#45;&gt;Node16 -->
<g id="edge17_Node000013_Node000016" class="edge">
<title>Node13&#45;&gt;Node16</title>
<g id="a_edge17_Node000013_Node000016"><a xlink:title=" ">
<path fill="none" stroke="#63b8ff" d="M1065.01,-274.98C1092.71,-266.09 1136.36,-252.07 1167.24,-242.15"/>
<polygon fill="#63b8ff" stroke="#63b8ff" points="1168.33,-245.47 1176.78,-239.08 1166.19,-238.81 1168.33,-245.47"/>
</a>
</g>
</g>
<!-- Node17 -->
<g id="Node000017" class="node">
<title>Node17</title>
<g id="a_Node000017"><a xlink:title=" ">
<polygon fill="#e0e0e0" stroke="#999999" points="1458.5,-239 1286.5,-239 1286.5,-220 1458.5,-220 1458.5,-239"/>
<text text-anchor="middle" x="1372.5" y="-227" font-family="Helvetica,sans-Serif" font-size="10.00">glm/gtx/matrix_decompose.hpp</text>
</a>
</g>
</g>
<!-- Node13&#45;&gt;Node17 -->
<g id="edge18_Node000013_Node000017" class="edge">
<title>Node13&#45;&gt;Node17</title>
<g id="a_edge18_Node000013_Node000017"><a xlink:title=" ">
<path fill="none" stroke="#63b8ff" d="M1092.16,-274.98C1151.12,-265.63 1245.75,-250.61 1308.52,-240.65"/>
<polygon fill="#63b8ff" stroke="#63b8ff" points="1309.37,-244.06 1318.69,-239.04 1308.27,-237.15 1309.37,-244.06"/>
</a>
</g>
</g>
<!-- Node18 -->
<g id="Node000018" class="node">
<title>Node18</title>
<g id="a_Node000018"><a xlink:title=" ">
<polygon fill="#e0e0e0" stroke="#999999" points="860,-239 729,-239 729,-220 860,-220 860,-239"/>
<text text-anchor="middle" x="794.5" y="-227" font-family="Helvetica,sans-Serif" font-size="10.00">glm/gtx/string_cast.hpp</text>
</a>
</g>
</g>
<!-- Node13&#45;&gt;Node18 -->
<g id="edge19_Node000013_Node000018" class="edge">
<title>Node13&#45;&gt;Node18</title>
<g id="a_edge19_Node000013_Node000018"><a xlink:title=" ">
<path fill="none" stroke="#63b8ff" d="M999.3,-274.98C957.09,-265.82 889.85,-251.21 844.02,-241.26"/>
<polygon fill="#63b8ff" stroke="#63b8ff" points="844.53,-237.78 834.01,-239.08 843.04,-244.63 844.53,-237.78"/>
</a>
</g>
</g>
<!-- Node13&#45;&gt;Node19 -->
<g id="edge21_Node000013_Node000019" class="edge">
<title>Node13&#45;&gt;Node19</title>
<g id="a_edge21_Node000013_Node000019"><a xlink:title=" ">
<path fill="none" stroke="#63b8ff" d="M943.22,-274.98C819.62,-263.94 607.68,-244.99 504.88,-235.81"/>
<polygon fill="#63b8ff" stroke="#63b8ff" points="504.96,-232.3 494.68,-234.9 504.33,-239.27 504.96,-232.3"/>
</a>
</g>
</g>
<!-- Node28 -->
<g id="Node000028" class="node">
<title>Node28</title>
<g id="a_Node000028"><a xlink:href="_math_2_utils_8hpp.html" target="_top" xlink:title=" ">
<polygon fill="white" stroke="#666666" points="1602.5,-239 1514.5,-239 1514.5,-220 1602.5,-220 1602.5,-239"/>
<text text-anchor="middle" x="1558.5" y="-227" font-family="Helvetica,sans-Serif" font-size="10.00">Math/Utils.hpp</text>
</a>
</g>
</g>
<!-- Node13&#45;&gt;Node28 -->
<g id="edge38_Node000013_Node000028" class="edge">
<title>Node13&#45;&gt;Node28</title>
<g id="a_edge38_Node000013_Node000028"><a xlink:title=" ">
<path fill="none" stroke="#63b8ff" d="M1142.33,-274.98C1236.07,-266.93 1377.71,-253.9 1500.5,-239 1501.61,-238.87 1502.73,-238.73 1503.87,-238.58"/>
<polygon fill="#63b8ff" stroke="#63b8ff" points="1504.74,-242 1514.2,-237.22 1503.83,-235.06 1504.74,-242"/>
</a>
</g>
</g>
<!-- Node19&#45;&gt;Node5 -->
<g id="edge23_Node000019_Node000005" class="edge">
<title>Node19&#45;&gt;Node5</title>
<g id="a_edge23_Node000019_Node000005"><a xlink:title=" ">
<path fill="none" stroke="#63b8ff" d="M396.49,-221.79C328.36,-212.46 204.71,-195.52 127.35,-184.93"/>
<polygon fill="#63b8ff" stroke="#63b8ff" points="127.6,-181.43 117.22,-183.54 126.65,-188.37 127.6,-181.43"/>
</a>
</g>
</g>
<!-- Node20 -->
<g id="Node000020" class="node">
<title>Node20</title>
<g id="a_Node000020"><a xlink:title=" ">
<polygon fill="#e0e0e0" stroke="#999999" points="555.5,-129 469.5,-129 469.5,-110 555.5,-110 555.5,-129"/>
<text text-anchor="middle" x="512.5" y="-117" font-family="Helvetica,sans-Serif" font-size="10.00">unordered_set</text>
</a>
</g>
</g>
<!-- Node19&#45;&gt;Node20 -->
<g id="edge22_Node000019_Node000020" class="edge">
<title>Node19&#45;&gt;Node20</title>
<g id="a_edge22_Node000019_Node000020"><a xlink:title=" ">
<path fill="none" stroke="#63b8ff" d="M466.03,-219.92C480.6,-212.64 499.16,-200.72 508.5,-184 516,-170.57 516.52,-152.97 515.44,-139.7"/>
<polygon fill="#63b8ff" stroke="#63b8ff" points="518.87,-138.89 514.22,-129.38 511.92,-139.72 518.87,-138.89"/>
</a>
</g>
</g>
<!-- Node21 -->
<g id="Node000021" class="node">
<title>Node21</title>
<g id="a_Node000021"><a xlink:href="_entity_8hpp.html" target="_top" xlink:title=" ">
<polygon fill="white" stroke="#666666" points="573.5,-74 487.5,-74 487.5,-55 573.5,-55 573.5,-74"/>
<text text-anchor="middle" x="530.5" y="-62" font-family="Helvetica,sans-Serif" font-size="10.00">ECS/Entity.hpp</text>
</a>
</g>
</g>
<!-- Node19&#45;&gt;Node21 -->
<g id="edge24_Node000019_Node000021" class="edge">
<title>Node19&#45;&gt;Node21</title>
<g id="a_edge24_Node000019_Node000021"><a xlink:title=" ">
<path fill="none" stroke="#63b8ff" d="M494.52,-221.25C565.95,-210.5 690.99,-190.85 698.5,-184 723.3,-161.39 734.24,-136.38 713.5,-110 697.56,-89.72 631.76,-77.53 583.61,-71.17"/>
<polygon fill="#63b8ff" stroke="#63b8ff" points="583.99,-67.69 573.63,-69.9 583.1,-74.63 583.99,-67.69"/>
</a>
</g>
</g>
<!-- Node23 -->
<g id="Node000023" class="node">
<title>Node23</title>
<g id="a_Node000023"><a xlink:href="_entity_hierarchy_8hpp.html" target="_top" xlink:title=" ">
<polygon fill="white" stroke="#666666" points="689.5,-184 555.5,-184 555.5,-165 689.5,-165 689.5,-184"/>
<text text-anchor="middle" x="622.5" y="-172" font-family="Helvetica,sans-Serif" font-size="10.00">ECS/EntityHierarchy.hpp</text>
</a>
</g>
</g>
<!-- Node19&#45;&gt;Node23 -->
<g id="edge26_Node000019_Node000023" class="edge">
<title>Node19&#45;&gt;Node23</title>
<g id="a_edge26_Node000019_Node000023"><a xlink:title=" ">
<path fill="none" stroke="#63b8ff" d="M473.94,-219.98C503.78,-211.05 550.88,-196.94 584.03,-187.02"/>
<polygon fill="#63b8ff" stroke="#63b8ff" points="585.26,-190.3 593.84,-184.08 583.26,-183.6 585.26,-190.3"/>
</a>
</g>
</g>
<!-- Node25 -->
<g id="Node000025" class="node">
<title>Node25</title>
<g id="a_Node000025"><a xlink:href="_entity_provider_8hpp.html" target="_top" xlink:title="Manages a pool of unused entity identifiers and provides mechanisms for requesting and removing them.">
<polygon fill="white" stroke="#666666" points="367.5,-129 239.5,-129 239.5,-110 367.5,-110 367.5,-129"/>
<text text-anchor="middle" x="303.5" y="-117" font-family="Helvetica,sans-Serif" font-size="10.00">ECS/EntityProvider.hpp</text>
</a>
</g>
</g>
<!-- Node19&#45;&gt;Node25 -->
<g id="edge31_Node000019_Node000025" class="edge">
<title>Node19&#45;&gt;Node25</title>
<g id="a_edge31_Node000019_Node000025"><a xlink:title=" ">
<path fill="none" stroke="#63b8ff" d="M432.78,-219.86C419.94,-211.06 399.61,-196.9 382.5,-184 361.28,-168 337.6,-148.78 321.75,-135.7"/>
<polygon fill="#63b8ff" stroke="#63b8ff" points="323.75,-132.81 313.82,-129.13 319.29,-138.21 323.75,-132.81"/>
</a>
</g>
</g>
<!-- Node26 -->
<g id="Node000026" class="node">
<title>Node26</title>
<g id="a_Node000026"><a xlink:href="_singleton_component_8hpp.html" target="_top" xlink:title=" ">
<polygon fill="white" stroke="#666666" points="335,-184 174,-184 174,-165 335,-165 335,-184"/>
<text text-anchor="middle" x="254.5" y="-172" font-family="Helvetica,sans-Serif" font-size="10.00">ECS/SingletonComponent.hpp</text>
</a>
</g>
</g>
<!-- Node19&#45;&gt;Node26 -->
<g id="edge35_Node000019_Node000026" class="edge">
<title>Node19&#45;&gt;Node26</title>
<g id="a_edge35_Node000019_Node000026"><a xlink:title=" ">
<path fill="none" stroke="#63b8ff" d="M414.81,-219.98C382.33,-210.97 330.9,-196.7 295.09,-186.76"/>
<polygon fill="#63b8ff" stroke="#63b8ff" points="296,-183.38 285.43,-184.08 294.13,-190.13 296,-183.38"/>
</a>
</g>
</g>
<!-- Node27 -->
<g id="Node000027" class="node">
<title>Node27</title>
<g id="a_Node000027"><a xlink:href="_sparse_set_8hpp.html" target="_top" xlink:title=" ">
<polygon fill="white" stroke="#666666" points="499.5,-184 391.5,-184 391.5,-165 499.5,-165 499.5,-184"/>
<text text-anchor="middle" x="445.5" y="-172" font-family="Helvetica,sans-Serif" font-size="10.00">ECS/SparseSet.hpp</text>
</a>
</g>
</g>
<!-- Node19&#45;&gt;Node27 -->
<g id="edge36_Node000019_Node000027" class="edge">
<title>Node19&#45;&gt;Node27</title>
<g id="a_edge36_Node000019_Node000027"><a xlink:title=" ">
<path fill="none" stroke="#63b8ff" d="M445.5,-219.75C445.5,-212.8 445.5,-202.85 445.5,-194.13"/>
<polygon fill="#63b8ff" stroke="#63b8ff" points="449,-194.09 445.5,-184.09 442,-194.09 449,-194.09"/>
</a>
</g>
</g>
<!-- Node22 -->
<g id="Node000022" class="node">
<title>Node22</title>
<g id="a_Node000022"><a xlink:title=" ">
<polygon fill="#e0e0e0" stroke="#999999" points="469,-19 416,-19 416,0 469,0 469,-19"/>
<text text-anchor="middle" x="442.5" y="-7" font-family="Helvetica,sans-Serif" font-size="10.00">stdlib.h</text>
</a>
</g>
</g>
<!-- Node21&#45;&gt;Node22 -->
<g id="edge25_Node000021_Node000022" class="edge">
<title>Node21&#45;&gt;Node22</title>
<g id="a_edge25_Node000021_Node000022"><a xlink:title=" ">
<path fill="none" stroke="#63b8ff" d="M516.36,-54.98C502.71,-46.77 481.81,-34.18 465.72,-24.49"/>
<polygon fill="#63b8ff" stroke="#63b8ff" points="467.27,-21.33 456.9,-19.17 463.66,-27.33 467.27,-21.33"/>
</a>
</g>
</g>
<!-- Node23&#45;&gt;Node2 -->
<g id="edge27_Node000023_Node000002" class="edge">
<title>Node23&#45;&gt;Node2</title>
<g id="a_edge27_Node000023_Node000002"><a xlink:title=" ">
<path fill="none" stroke="#63b8ff" d="M589.72,-164.98C554.78,-155.91 499.31,-141.49 461.02,-131.55"/>
<polygon fill="#63b8ff" stroke="#63b8ff" points="461.75,-128.12 451.19,-128.99 459.99,-134.9 461.75,-128.12"/>
</a>
</g>
</g>
<!-- Node23&#45;&gt;Node20 -->
<g id="edge29_Node000023_Node000020" class="edge">
<title>Node23&#45;&gt;Node20</title>
<g id="a_edge29_Node000023_Node000020"><a xlink:title=" ">
<path fill="none" stroke="#63b8ff" d="M604.83,-164.98C587.21,-156.5 559.92,-143.35 539.57,-133.54"/>
<polygon fill="#63b8ff" stroke="#63b8ff" points="541.02,-130.36 530.49,-129.17 537.98,-136.66 541.02,-130.36"/>
</a>
</g>
</g>
<!-- Node23&#45;&gt;Node21 -->
<g id="edge30_Node000023_Node000021" class="edge">
<title>Node23&#45;&gt;Node21</title>
<g id="a_edge30_Node000023_Node000021"><a xlink:title=" ">
<path fill="none" stroke="#63b8ff" d="M614.97,-164.66C599.6,-146.61 564.38,-105.28 544.62,-82.08"/>
<polygon fill="#63b8ff" stroke="#63b8ff" points="547.02,-79.5 537.88,-74.16 541.7,-84.04 547.02,-79.5"/>
</a>
</g>
</g>
<!-- Node24 -->
<g id="Node000024" class="node">
<title>Node24</title>
<g id="a_Node000024"><a xlink:title=" ">
<polygon fill="#e0e0e0" stroke="#999999" points="705,-129 612,-129 612,-110 705,-110 705,-129"/>
<text text-anchor="middle" x="658.5" y="-117" font-family="Helvetica,sans-Serif" font-size="10.00">unordered_map</text>
</a>
</g>
</g>
<!-- Node23&#45;&gt;Node24 -->
<g id="edge28_Node000023_Node000024" class="edge">
<title>Node23&#45;&gt;Node24</title>
<g id="a_edge28_Node000023_Node000024"><a xlink:title=" ">
<path fill="none" stroke="#63b8ff" d="M628.44,-164.75C633.48,-157.34 640.84,-146.5 647.01,-137.41"/>
<polygon fill="#63b8ff" stroke="#63b8ff" points="649.94,-139.33 652.67,-129.09 644.15,-135.39 649.94,-139.33"/>
</a>
</g>
</g>
<!-- Node25&#45;&gt;Node7 -->
<g id="edge33_Node000025_Node000007" class="edge">
<title>Node25&#45;&gt;Node7</title>
<g id="a_edge33_Node000025_Node000007"><a xlink:title=" ">
<path fill="none" stroke="#63b8ff" d="M286.79,-109.98C270.29,-101.57 244.8,-88.59 225.62,-78.81"/>
<polygon fill="#63b8ff" stroke="#63b8ff" points="227.01,-75.59 216.51,-74.17 223.83,-81.83 227.01,-75.59"/>
</a>
</g>
</g>
<!-- Node25&#45;&gt;Node21 -->
<g id="edge34_Node000025_Node000021" class="edge">
<title>Node25&#45;&gt;Node21</title>
<g id="a_edge34_Node000025_Node000021"><a xlink:title=" ">
<path fill="none" stroke="#63b8ff" d="M339.97,-109.98C379.07,-100.86 441.27,-86.33 483.89,-76.38"/>
<polygon fill="#63b8ff" stroke="#63b8ff" points="484.8,-79.76 493.74,-74.08 483.21,-72.95 484.8,-79.76"/>
</a>
</g>
</g>
<!-- Node25&#45;&gt;Node22 -->
<g id="edge32_Node000025_Node000022" class="edge">
<title>Node25&#45;&gt;Node22</title>
<g id="a_edge32_Node000025_Node000022"><a xlink:title=" ">
<path fill="none" stroke="#63b8ff" d="M314.87,-109.66C338.61,-91.22 393.66,-48.45 423.1,-25.57"/>
<polygon fill="#63b8ff" stroke="#63b8ff" points="425.61,-28.06 431.36,-19.16 421.31,-22.53 425.61,-28.06"/>
</a>
</g>
</g>
<!-- Node27&#45;&gt;Node25 -->
<g id="edge37_Node000027_Node000025" class="edge">
<title>Node27&#45;&gt;Node25</title>
<g id="a_edge37_Node000027_Node000025"><a xlink:title=" ">
<path fill="none" stroke="#63b8ff" d="M422.69,-164.98C399.33,-156.27 362.8,-142.63 336.33,-132.75"/>
<polygon fill="#63b8ff" stroke="#63b8ff" points="337.32,-129.39 326.73,-129.17 334.87,-135.95 337.32,-129.39"/>
</a>
</g>
</g>
<!-- Node28&#45;&gt;Node4 -->
<g id="edge39_Node000028_Node000004" class="edge">
<title>Node28&#45;&gt;Node4</title>
<g id="a_edge39_Node000028_Node000004"><a xlink:title=" ">
<path fill="none" stroke="#63b8ff" d="M1514.21,-221.63C1509.59,-221.02 1504.95,-220.47 1500.5,-220 1257.1,-194.47 964.44,-181.6 849.88,-177.25"/>
<polygon fill="#63b8ff" stroke="#63b8ff" points="849.8,-173.74 839.68,-176.86 849.54,-180.74 849.8,-173.74"/>
</a>
</g>
</g>
<!-- Node29&#45;&gt;Node4 -->
<g id="edge43_Node000029_Node000004" class="edge">
<title>Node29&#45;&gt;Node4</title>
<g id="a_edge43_Node000029_Node000004"><a xlink:title=" ">
<path fill="none" stroke="#63b8ff" d="M704.41,-274.76C704.7,-261.58 707.02,-236.41 719.5,-220 730.52,-205.51 747.68,-195.12 763.38,-188.05"/>
<polygon fill="#63b8ff" stroke="#63b8ff" points="765.02,-191.16 772.89,-184.07 762.31,-184.7 765.02,-191.16"/>
</a>
</g>
</g>
<!-- Node30 -->
<g id="Node000030" class="node">
<title>Node30</title>
<g id="a_Node000030"><a xlink:href="_ray_8hpp.html" target="_top" xlink:title=" ">
<polygon fill="white" stroke="#666666" points="672,-239 589,-239 589,-220 672,-220 672,-239"/>
<text text-anchor="middle" x="630.5" y="-227" font-family="Helvetica,sans-Serif" font-size="10.00">Math/Ray.hpp</text>
</a>
</g>
</g>
<!-- Node29&#45;&gt;Node30 -->
<g id="edge41_Node000029_Node000030" class="edge">
<title>Node29&#45;&gt;Node30</title>
<g id="a_edge41_Node000029_Node000030"><a xlink:title=" ">
<path fill="none" stroke="#63b8ff" d="M692.61,-274.98C681.35,-266.92 664.21,-254.65 650.79,-245.03"/>
<polygon fill="#63b8ff" stroke="#63b8ff" points="652.77,-242.15 642.61,-239.17 648.7,-247.84 652.77,-242.15"/>
</a>
</g>
</g>
<!-- Node30&#45;&gt;Node4 -->
<g id="edge42_Node000030_Node000004" class="edge">
<title>Node30&#45;&gt;Node4</title>
<g id="a_edge42_Node000030_Node000004"><a xlink:title=" ">
<path fill="none" stroke="#63b8ff" d="M657.81,-219.98C686.35,-211.09 731.33,-197.07 763.14,-187.15"/>
<polygon fill="#63b8ff" stroke="#63b8ff" points="764.47,-190.4 772.97,-184.08 762.38,-183.72 764.47,-190.4"/>
</a>
</g>
</g>
<!-- Node31&#45;&gt;Node4 -->
<g id="edge45_Node000031_Node000004" class="edge">
<title>Node31&#45;&gt;Node4</title>
<g id="a_edge45_Node000031_Node000004"><a xlink:title=" ">
<path fill="none" stroke="#63b8ff" d="M637.39,-329.89C610.18,-309.54 548.92,-257.35 579.5,-220 590.33,-206.77 689.38,-190.86 751.14,-182.1"/>
<polygon fill="#63b8ff" stroke="#63b8ff" points="751.67,-185.56 761.09,-180.71 750.7,-178.63 751.67,-185.56"/>
</a>
</g>
</g>
<!-- Node31&#45;&gt;Node13 -->
<g id="edge46_Node000031_Node000013" class="edge">
<title>Node31&#45;&gt;Node13</title>
<g id="a_edge46_Node000031_Node000013"><a xlink:title=" ">
<path fill="none" stroke="#63b8ff" d="M712,-329.98C781.23,-320.55 892.7,-305.36 965.78,-295.41"/>
<polygon fill="#63b8ff" stroke="#63b8ff" points="966.4,-298.86 975.83,-294.04 965.45,-291.92 966.4,-298.86"/>
</a>
</g>
</g>
<!-- Node31&#45;&gt;Node30 -->
<g id="edge47_Node000031_Node000030" class="edge">
<title>Node31&#45;&gt;Node30</title>
<g id="a_edge47_Node000031_Node000030"><a xlink:title=" ">
<path fill="none" stroke="#63b8ff" d="M647.95,-329.66C644.87,-312.17 637.94,-272.8 633.8,-249.27"/>
<polygon fill="#63b8ff" stroke="#63b8ff" points="637.2,-248.4 632.02,-239.16 630.31,-249.61 637.2,-248.4"/>
</a>
</g>
</g>
</g>
</svg>
