<?xml version="1.0" encoding="UTF-8" standalone="no"?>
<!DOCTYPE svg PUBLIC "-//W3C//DTD SVG 1.1//EN"
 "http://www.w3.org/Graphics/SVG/1.1/DTD/svg11.dtd">
<!-- Generated by graphviz version 2.43.0 (0)
 -->
<!-- Title: src/InputManager/InputManager.cpp Pages: 1 -->
<svg width="2199pt" height="467pt"
 viewBox="0.00 0.00 2198.50 467.00" xmlns="http://www.w3.org/2000/svg" xmlns:xlink="http://www.w3.org/1999/xlink">
<g id="graph0" class="graph" transform="scale(1 1) rotate(0) translate(4 463)">
<title>src/InputManager/InputManager.cpp</title>
<!-- Node1 -->
<g id="Node000001" class="node">
<title>Node1</title>
<g id="a_Node000001"><a xlink:title=" ">
<polygon fill="#999999" stroke="#666666" points="473.5,-459 282.5,-459 282.5,-440 473.5,-440 473.5,-459"/>
<text text-anchor="middle" x="378" y="-447" font-family="Helvetica,sans-Serif" font-size="10.00">src/InputManager/InputManager.cpp</text>
</a>
</g>
</g>
<!-- Node2 -->
<g id="Node000002" class="node">
<title>Node2</title>
<g id="a_Node000002"><a xlink:href="_profiler_8hpp.html" target="_top" xlink:title=" ">
<polygon fill="white" stroke="#666666" points="184.5,-294 65.5,-294 65.5,-275 184.5,-275 184.5,-294"/>
<text text-anchor="middle" x="125" y="-282" font-family="Helvetica,sans-Serif" font-size="10.00">Common/Profiler.hpp</text>
</a>
</g>
</g>
<!-- Node1&#45;&gt;Node2 -->
<g id="edge1_Node000001_Node000002" class="edge">
<title>Node1&#45;&gt;Node2</title>
<g id="a_edge1_Node000001_Node000002"><a xlink:title=" ">
<path fill="none" stroke="#63b8ff" d="M297.33,-439.96C239.19,-429.14 164.47,-404.6 126,-349 117.08,-336.11 117.76,-317.95 120.13,-304.35"/>
<polygon fill="#63b8ff" stroke="#63b8ff" points="123.63,-304.73 122.34,-294.21 116.79,-303.24 123.63,-304.73"/>
</a>
</g>
</g>
<!-- Node8 -->
<g id="Node000008" class="node">
<title>Node8</title>
<g id="a_Node000008"><a xlink:href="_input_manager_8hpp.html" target="_top" xlink:title=" ">
<polygon fill="white" stroke="#666666" points="895.5,-404 720.5,-404 720.5,-385 895.5,-385 895.5,-404"/>
<text text-anchor="middle" x="808" y="-392" font-family="Helvetica,sans-Serif" font-size="10.00">InputManager/InputManager.hpp</text>
</a>
</g>
</g>
<!-- Node1&#45;&gt;Node8 -->
<g id="edge7_Node000001_Node000008" class="edge">
<title>Node1&#45;&gt;Node8</title>
<g id="a_edge7_Node000001_Node000008"><a xlink:title=" ">
<path fill="none" stroke="#63b8ff" d="M447.09,-439.98C523.92,-430.51 647.84,-415.24 728.61,-405.29"/>
<polygon fill="#63b8ff" stroke="#63b8ff" points="729.23,-408.74 738.73,-404.04 728.38,-401.79 729.23,-408.74"/>
</a>
</g>
</g>
<!-- Node3 -->
<g id="Node000003" class="node">
<title>Node3</title>
<g id="a_Node000003"><a xlink:title=" ">
<polygon fill="#e0e0e0" stroke="#999999" points="50,-239 0,-239 0,-220 50,-220 50,-239"/>
<text text-anchor="middle" x="25" y="-227" font-family="Helvetica,sans-Serif" font-size="10.00">chrono</text>
</a>
</g>
</g>
<!-- Node2&#45;&gt;Node3 -->
<g id="edge2_Node000002_Node000003" class="edge">
<title>Node2&#45;&gt;Node3</title>
<g id="a_edge2_Node000002_Node000003"><a xlink:title=" ">
<path fill="none" stroke="#63b8ff" d="M108.93,-274.98C93.14,-266.61 68.78,-253.7 50.37,-243.95"/>
<polygon fill="#63b8ff" stroke="#63b8ff" points="51.83,-240.76 41.36,-239.17 48.56,-246.95 51.83,-240.76"/>
</a>
</g>
</g>
<!-- Node4 -->
<g id="Node000004" class="node">
<title>Node4</title>
<g id="a_Node000004"><a xlink:title=" ">
<polygon fill="#e0e0e0" stroke="#999999" points="106,-239 68,-239 68,-220 106,-220 106,-239"/>
<text text-anchor="middle" x="87" y="-227" font-family="Helvetica,sans-Serif" font-size="10.00">map</text>
</a>
</g>
</g>
<!-- Node2&#45;&gt;Node4 -->
<g id="edge3_Node000002_Node000004" class="edge">
<title>Node2&#45;&gt;Node4</title>
<g id="a_edge3_Node000002_Node000004"><a xlink:title=" ">
<path fill="none" stroke="#63b8ff" d="M118.73,-274.75C113.41,-267.34 105.64,-256.5 99.12,-247.41"/>
<polygon fill="#63b8ff" stroke="#63b8ff" points="101.83,-245.18 93.16,-239.09 96.14,-249.26 101.83,-245.18"/>
</a>
</g>
</g>
<!-- Node5 -->
<g id="Node000005" class="node">
<title>Node5</title>
<g id="a_Node000005"><a xlink:title=" ">
<polygon fill="#e0e0e0" stroke="#999999" points="242,-129 194,-129 194,-110 242,-110 242,-129"/>
<text text-anchor="middle" x="218" y="-117" font-family="Helvetica,sans-Serif" font-size="10.00">mutex</text>
</a>
</g>
</g>
<!-- Node2&#45;&gt;Node5 -->
<g id="edge4_Node000002_Node000005" class="edge">
<title>Node2&#45;&gt;Node5</title>
<g id="a_edge4_Node000002_Node000005"><a xlink:title=" ">
<path fill="none" stroke="#63b8ff" d="M128.37,-274.66C133.23,-262.19 142.77,-238.85 153,-220 169.32,-189.92 191.77,-157.05 205.57,-137.63"/>
<polygon fill="#63b8ff" stroke="#63b8ff" points="208.59,-139.42 211.58,-129.25 202.91,-135.34 208.59,-139.42"/>
</a>
</g>
</g>
<!-- Node6 -->
<g id="Node000006" class="node">
<title>Node6</title>
<g id="a_Node000006"><a xlink:title=" ">
<polygon fill="#e0e0e0" stroke="#999999" points="310,-239 266,-239 266,-220 310,-220 310,-239"/>
<text text-anchor="middle" x="288" y="-227" font-family="Helvetica,sans-Serif" font-size="10.00">string</text>
</a>
</g>
</g>
<!-- Node2&#45;&gt;Node6 -->
<g id="edge5_Node000002_Node000006" class="edge">
<title>Node2&#45;&gt;Node6</title>
<g id="a_edge5_Node000002_Node000006"><a xlink:title=" ">
<path fill="none" stroke="#63b8ff" d="M151.19,-274.98C179.73,-265.7 225.41,-250.85 256.04,-240.89"/>
<polygon fill="#63b8ff" stroke="#63b8ff" points="257.38,-244.14 265.8,-237.72 255.21,-237.48 257.38,-244.14"/>
</a>
</g>
</g>
<!-- Node7 -->
<g id="Node000007" class="node">
<title>Node7</title>
<g id="a_Node000007"><a xlink:title=" ">
<polygon fill="#e0e0e0" stroke="#999999" points="210,-239 162,-239 162,-220 210,-220 210,-239"/>
<text text-anchor="middle" x="186" y="-227" font-family="Helvetica,sans-Serif" font-size="10.00">thread</text>
</a>
</g>
</g>
<!-- Node2&#45;&gt;Node7 -->
<g id="edge6_Node000002_Node000007" class="edge">
<title>Node2&#45;&gt;Node7</title>
<g id="a_edge6_Node000002_Node000007"><a xlink:title=" ">
<path fill="none" stroke="#63b8ff" d="M134.8,-274.98C143.82,-267.15 157.41,-255.34 168.32,-245.86"/>
<polygon fill="#63b8ff" stroke="#63b8ff" points="170.77,-248.37 176.02,-239.17 166.18,-243.09 170.77,-248.37"/>
</a>
</g>
</g>
<!-- Node9 -->
<g id="Node000009" class="node">
<title>Node9</title>
<g id="a_Node000009"><a xlink:title=" ">
<polygon fill="#e0e0e0" stroke="#999999" points="2190.5,-129 2125.5,-129 2125.5,-110 2190.5,-110 2190.5,-129"/>
<text text-anchor="middle" x="2158" y="-117" font-family="Helvetica,sans-Serif" font-size="10.00">functional</text>
</a>
</g>
</g>
<!-- Node8&#45;&gt;Node9 -->
<g id="edge8_Node000008_Node000009" class="edge">
<title>Node8&#45;&gt;Node9</title>
<g id="a_edge8_Node000008_Node000009"><a xlink:title=" ">
<path fill="none" stroke="#63b8ff" d="M895.52,-390.75C1185.41,-381.08 2096,-345.88 2096,-285.5 2096,-285.5 2096,-285.5 2096,-228.5 2096,-191.64 2123.5,-155.97 2141.87,-136.26"/>
<polygon fill="#63b8ff" stroke="#63b8ff" points="2144.41,-138.67 2148.85,-129.06 2139.38,-133.8 2144.41,-138.67"/>
</a>
</g>
</g>
<!-- Node10 -->
<g id="Node000010" class="node">
<title>Node10</title>
<g id="a_Node000010"><a xlink:title=" ">
<polygon fill="#e0e0e0" stroke="#999999" points="218.5,-349 135.5,-349 135.5,-330 218.5,-330 218.5,-349"/>
<text text-anchor="middle" x="177" y="-337" font-family="Helvetica,sans-Serif" font-size="10.00">GLFW/glfw3.h</text>
</a>
</g>
</g>
<!-- Node8&#45;&gt;Node10 -->
<g id="edge9_Node000008_Node000010" class="edge">
<title>Node8&#45;&gt;Node10</title>
<g id="a_edge9_Node000008_Node000010"><a xlink:title=" ">
<path fill="none" stroke="#63b8ff" d="M720.14,-388.71C607.18,-382.09 405.09,-368.69 233,-349 231.53,-348.83 230.05,-348.66 228.55,-348.47"/>
<polygon fill="#63b8ff" stroke="#63b8ff" points="228.92,-344.99 218.54,-347.15 228,-351.93 228.92,-344.99"/>
</a>
</g>
</g>
<!-- Node11 -->
<g id="Node000011" class="node">
<title>Node11</title>
<g id="a_Node000011"><a xlink:title=" ">
<polygon fill="#e0e0e0" stroke="#999999" points="1413,-184 1335,-184 1335,-165 1413,-165 1413,-184"/>
<text text-anchor="middle" x="1374" y="-172" font-family="Helvetica,sans-Serif" font-size="10.00">glm/glm.hpp</text>
</a>
</g>
</g>
<!-- Node8&#45;&gt;Node11 -->
<g id="edge10_Node000008_Node000011" class="edge">
<title>Node8&#45;&gt;Node11</title>
<g id="a_edge10_Node000008_Node000011"><a xlink:title=" ">
<path fill="none" stroke="#63b8ff" d="M895.61,-391.36C1065.01,-385.65 1429.64,-365.2 1530,-294 1559.83,-272.84 1588.76,-248.63 1566,-220 1561.49,-214.33 1478.83,-196.67 1423.45,-185.37"/>
<polygon fill="#63b8ff" stroke="#63b8ff" points="1423.95,-181.9 1413.45,-183.34 1422.56,-188.76 1423.95,-181.9"/>
</a>
</g>
</g>
<!-- Node12 -->
<g id="Node000012" class="node">
<title>Node12</title>
<g id="a_Node000012"><a xlink:href="_assert_8hpp.html" target="_top" xlink:title=" ">
<polygon fill="white" stroke="#666666" points="521,-349 405,-349 405,-330 521,-330 521,-349"/>
<text text-anchor="middle" x="463" y="-337" font-family="Helvetica,sans-Serif" font-size="10.00">Common/Assert.hpp</text>
</a>
</g>
</g>
<!-- Node8&#45;&gt;Node12 -->
<g id="edge11_Node000008_Node000012" class="edge">
<title>Node8&#45;&gt;Node12</title>
<g id="a_edge11_Node000008_Node000012"><a xlink:title=" ">
<path fill="none" stroke="#63b8ff" d="M752.57,-384.98C691.55,-375.61 593.52,-360.55 528.69,-350.59"/>
<polygon fill="#63b8ff" stroke="#63b8ff" points="528.99,-347.1 518.58,-349.04 527.93,-354.02 528.99,-347.1"/>
</a>
</g>
</g>
<!-- Node16 -->
<g id="Node000016" class="node">
<title>Node16</title>
<g id="a_Node000016"><a xlink:href="_logger_8hpp.html" target="_top" xlink:title=" ">
<polygon fill="white" stroke="#666666" points="359.5,-184 242.5,-184 242.5,-165 359.5,-165 359.5,-184"/>
<text text-anchor="middle" x="301" y="-172" font-family="Helvetica,sans-Serif" font-size="10.00">Common/Logger.hpp</text>
</a>
</g>
</g>
<!-- Node8&#45;&gt;Node16 -->
<g id="edge15_Node000008_Node000016" class="edge">
<title>Node8&#45;&gt;Node16</title>
<g id="a_edge15_Node000008_Node000016"><a xlink:title=" ">
<path fill="none" stroke="#63b8ff" d="M720.26,-388.54C617.54,-381.94 454.06,-368.76 396,-349 321.42,-323.62 285.04,-312.62 257,-239 250.06,-220.77 265.21,-202.76 279.59,-190.6"/>
<polygon fill="#63b8ff" stroke="#63b8ff" points="282.09,-193.09 287.79,-184.16 277.76,-187.58 282.09,-193.09"/>
</a>
</g>
</g>
<!-- Node18 -->
<g id="Node000018" class="node">
<title>Node18</title>
<g id="a_Node000018"><a xlink:href="_box_collider_component_8hpp.html" target="_top" xlink:title=" ">
<polygon fill="white" stroke="#666666" points="847.5,-349 632.5,-349 632.5,-330 847.5,-330 847.5,-349"/>
<text text-anchor="middle" x="740" y="-337" font-family="Helvetica,sans-Serif" font-size="10.00">Components/BoxColliderComponent.hpp</text>
</a>
</g>
</g>
<!-- Node8&#45;&gt;Node18 -->
<g id="edge18_Node000008_Node000018" class="edge">
<title>Node8&#45;&gt;Node18</title>
<g id="a_edge18_Node000008_Node000018"><a xlink:title=" ">
<path fill="none" stroke="#63b8ff" d="M797.07,-384.98C786.92,-377.07 771.58,-365.11 759.35,-355.58"/>
<polygon fill="#63b8ff" stroke="#63b8ff" points="761.16,-352.56 751.12,-349.17 756.86,-358.08 761.16,-352.56"/>
</a>
</g>
</g>
<!-- Node22 -->
<g id="Node000022" class="node">
<title>Node22</title>
<g id="a_Node000022"><a xlink:href="_transform_component_8hpp.html" target="_top" xlink:title=" ">
<polygon fill="white" stroke="#666666" points="979.5,-294 772.5,-294 772.5,-275 979.5,-275 979.5,-294"/>
<text text-anchor="middle" x="876" y="-282" font-family="Helvetica,sans-Serif" font-size="10.00">Components/TransformComponent.hpp</text>
</a>
</g>
</g>
<!-- Node8&#45;&gt;Node22 -->
<g id="edge60_Node000008_Node000022" class="edge">
<title>Node8&#45;&gt;Node22</title>
<g id="a_edge60_Node000008_Node000022"><a xlink:title=" ">
<path fill="none" stroke="#63b8ff" d="M820.33,-384.98C831.17,-376.89 846.64,-363.79 856,-349 864.69,-335.27 869.87,-317.46 872.77,-304.2"/>
<polygon fill="#63b8ff" stroke="#63b8ff" points="876.22,-304.8 874.7,-294.32 869.35,-303.46 876.22,-304.8"/>
</a>
</g>
</g>
<!-- Node27 -->
<g id="Node000027" class="node">
<title>Node27</title>
<g id="a_Node000027"><a xlink:href="_registry_8hpp.html" target="_top" xlink:title=" ">
<polygon fill="white" stroke="#666666" points="1734,-239 1636,-239 1636,-220 1734,-220 1734,-239"/>
<text text-anchor="middle" x="1685" y="-227" font-family="Helvetica,sans-Serif" font-size="10.00">ECS/Registry.hpp</text>
</a>
</g>
</g>
<!-- Node8&#45;&gt;Node27 -->
<g id="edge61_Node000008_Node000027" class="edge">
<title>Node8&#45;&gt;Node27</title>
<g id="a_edge61_Node000008_Node000027"><a xlink:title=" ">
<path fill="none" stroke="#63b8ff" d="M895.54,-393.52C1093.28,-392.9 1561.99,-387.33 1622,-349 1657.73,-326.18 1674.49,-275.95 1681.2,-248.79"/>
<polygon fill="#63b8ff" stroke="#63b8ff" points="1684.62,-249.54 1683.43,-239.01 1677.8,-247.98 1684.62,-249.54"/>
</a>
</g>
</g>
<!-- Node40 -->
<g id="Node000040" class="node">
<title>Node40</title>
<g id="a_Node000040"><a xlink:href="_camera_component_8hpp.html" target="_top" xlink:title=" ">
<polygon fill="white" stroke="#666666" points="1299.5,-349 1102.5,-349 1102.5,-330 1299.5,-330 1299.5,-349"/>
<text text-anchor="middle" x="1201" y="-337" font-family="Helvetica,sans-Serif" font-size="10.00">Components/CameraComponent.hpp</text>
</a>
</g>
</g>
<!-- Node8&#45;&gt;Node40 -->
<g id="edge56_Node000008_Node000040" class="edge">
<title>Node8&#45;&gt;Node40</title>
<g id="a_edge56_Node000008_Node000040"><a xlink:title=" ">
<path fill="none" stroke="#63b8ff" d="M871.14,-384.98C941.08,-375.55 1053.7,-360.36 1127.54,-350.41"/>
<polygon fill="#63b8ff" stroke="#63b8ff" points="1128.25,-353.84 1137.69,-349.04 1127.31,-346.91 1128.25,-353.84"/>
</a>
</g>
</g>
<!-- Node13 -->
<g id="Node000013" class="node">
<title>Node13</title>
<g id="a_Node000013"><a xlink:title=" ">
<polygon fill="#e0e0e0" stroke="#999999" points="465.5,-294 398.5,-294 398.5,-275 465.5,-275 465.5,-294"/>
<text text-anchor="middle" x="432" y="-282" font-family="Helvetica,sans-Serif" font-size="10.00">fmt/core.h</text>
</a>
</g>
</g>
<!-- Node12&#45;&gt;Node13 -->
<g id="edge12_Node000012_Node000013" class="edge">
<title>Node12&#45;&gt;Node13</title>
<g id="a_edge12_Node000012_Node000013"><a xlink:title=" ">
<path fill="none" stroke="#63b8ff" d="M457.88,-329.75C453.64,-322.49 447.47,-311.95 442.22,-302.98"/>
<polygon fill="#63b8ff" stroke="#63b8ff" points="445.09,-300.95 437.02,-294.09 439.05,-304.49 445.09,-300.95"/>
</a>
</g>
</g>
<!-- Node14 -->
<g id="Node000014" class="node">
<title>Node14</title>
<g id="a_Node000014"><a xlink:title=" ">
<polygon fill="#e0e0e0" stroke="#999999" points="380.5,-294 315.5,-294 315.5,-275 380.5,-275 380.5,-294"/>
<text text-anchor="middle" x="348" y="-282" font-family="Helvetica,sans-Serif" font-size="10.00">exception</text>
</a>
</g>
</g>
<!-- Node12&#45;&gt;Node14 -->
<g id="edge13_Node000012_Node000014" class="edge">
<title>Node12&#45;&gt;Node14</title>
<g id="a_edge13_Node000012_Node000014"><a xlink:title=" ">
<path fill="none" stroke="#63b8ff" d="M444.52,-329.98C426.02,-321.46 397.32,-308.23 376.02,-298.41"/>
<polygon fill="#63b8ff" stroke="#63b8ff" points="377.36,-295.18 366.81,-294.17 374.43,-301.53 377.36,-295.18"/>
</a>
</g>
</g>
<!-- Node15 -->
<g id="Node000015" class="node">
<title>Node15</title>
<g id="a_Node000015"><a xlink:title=" ">
<polygon fill="#e0e0e0" stroke="#999999" points="388,-239 328,-239 328,-220 388,-220 388,-239"/>
<text text-anchor="middle" x="358" y="-227" font-family="Helvetica,sans-Serif" font-size="10.00">iostream</text>
</a>
</g>
</g>
<!-- Node12&#45;&gt;Node15 -->
<g id="edge14_Node000012_Node000015" class="edge">
<title>Node12&#45;&gt;Node15</title>
<g id="a_edge14_Node000012_Node000015"><a xlink:title=" ">
<path fill="none" stroke="#63b8ff" d="M468.12,-329.86C475.11,-316.8 485.54,-291.78 474,-275 464.97,-261.86 427.7,-249.06 397.81,-240.59"/>
<polygon fill="#63b8ff" stroke="#63b8ff" points="398.58,-237.17 388.01,-237.89 396.72,-243.92 398.58,-237.17"/>
</a>
</g>
</g>
<!-- Node16&#45;&gt;Node5 -->
<g id="edge16_Node000016_Node000005" class="edge">
<title>Node16&#45;&gt;Node5</title>
<g id="a_edge16_Node000016_Node000005"><a xlink:title=" ">
<path fill="none" stroke="#63b8ff" d="M287.66,-164.98C274.91,-156.84 255.45,-144.41 240.33,-134.76"/>
<polygon fill="#63b8ff" stroke="#63b8ff" points="241.89,-131.6 231.58,-129.17 238.12,-137.5 241.89,-131.6"/>
</a>
</g>
</g>
<!-- Node17 -->
<g id="Node000017" class="node">
<title>Node17</title>
<g id="a_Node000017"><a xlink:title=" ">
<polygon fill="#e0e0e0" stroke="#999999" points="1083.5,-74 1036.5,-74 1036.5,-55 1083.5,-55 1083.5,-74"/>
<text text-anchor="middle" x="1060" y="-62" font-family="Helvetica,sans-Serif" font-size="10.00">queue</text>
</a>
</g>
</g>
<!-- Node16&#45;&gt;Node17 -->
<g id="edge17_Node000016_Node000017" class="edge">
<title>Node16&#45;&gt;Node17</title>
<g id="a_edge17_Node000016_Node000017"><a xlink:title=" ">
<path fill="none" stroke="#63b8ff" d="M316.95,-164.86C344.16,-150.59 401.68,-122.44 454,-110 564.13,-83.83 915.48,-70.26 1026.23,-66.56"/>
<polygon fill="#63b8ff" stroke="#63b8ff" points="1026.59,-70.05 1036.47,-66.22 1026.36,-63.05 1026.59,-70.05"/>
</a>
</g>
</g>
<!-- Node18&#45;&gt;Node6 -->
<g id="edge19_Node000018_Node000006" class="edge">
<title>Node18&#45;&gt;Node6</title>
<g id="a_edge19_Node000018_Node000006"><a xlink:title=" ">
<path fill="none" stroke="#63b8ff" d="M704.31,-329.91C653.27,-317.63 556.49,-294.43 474,-275 408.25,-259.52 389.24,-256.6 320.38,-239.28"/>
<polygon fill="#63b8ff" stroke="#63b8ff" points="320.88,-235.79 310.32,-236.73 319.16,-242.58 320.88,-235.79"/>
</a>
</g>
</g>
<!-- Node19 -->
<g id="Node000019" class="node">
<title>Node19</title>
<g id="a_Node000019"><a xlink:href="_base_component_8hpp.html" target="_top" xlink:title=" ">
<polygon fill="white" stroke="#666666" points="588,-239 406,-239 406,-220 588,-220 588,-239"/>
<text text-anchor="middle" x="497" y="-227" font-family="Helvetica,sans-Serif" font-size="10.00">Components/BaseComponent.hpp</text>
</a>
</g>
</g>
<!-- Node18&#45;&gt;Node19 -->
<g id="edge20_Node000018_Node000019" class="edge">
<title>Node18&#45;&gt;Node19</title>
<g id="a_edge20_Node000018_Node000019"><a xlink:title=" ">
<path fill="none" stroke="#63b8ff" d="M729.78,-329.92C713.32,-316.49 679.49,-290.44 647,-275 615.37,-259.96 577.56,-248.79 547.81,-241.39"/>
<polygon fill="#63b8ff" stroke="#63b8ff" points="548.59,-237.98 538.05,-239.03 546.94,-244.79 548.59,-237.98"/>
</a>
</g>
</g>
<!-- Node18&#45;&gt;Node22 -->
<g id="edge23_Node000018_Node000022" class="edge">
<title>Node18&#45;&gt;Node22</title>
<g id="a_edge23_Node000018_Node000022"><a xlink:title=" ">
<path fill="none" stroke="#63b8ff" d="M761.85,-329.98C784.12,-321.3 818.9,-307.75 844.22,-297.88"/>
<polygon fill="#63b8ff" stroke="#63b8ff" points="845.71,-301.06 853.75,-294.17 843.16,-294.54 845.71,-301.06"/>
</a>
</g>
</g>
<!-- Node38 -->
<g id="Node000038" class="node">
<title>Node38</title>
<g id="a_Node000038"><a xlink:href="_a_a_b_b_8hpp.html" target="_top" xlink:title=" ">
<polygon fill="white" stroke="#666666" points="1472,-294 1380,-294 1380,-275 1472,-275 1472,-294"/>
<text text-anchor="middle" x="1426" y="-282" font-family="Helvetica,sans-Serif" font-size="10.00">Math/AABB.hpp</text>
</a>
</g>
</g>
<!-- Node18&#45;&gt;Node38 -->
<g id="edge52_Node000018_Node000038" class="edge">
<title>Node18&#45;&gt;Node38</title>
<g id="a_edge52_Node000018_Node000038"><a xlink:title=" ">
<path fill="none" stroke="#63b8ff" d="M847.56,-330.19C995.29,-318.78 1255.61,-298.66 1369.73,-289.85"/>
<polygon fill="#63b8ff" stroke="#63b8ff" points="1370.28,-293.32 1379.98,-289.06 1369.74,-286.34 1370.28,-293.32"/>
</a>
</g>
</g>
<!-- Node20 -->
<g id="Node000020" class="node">
<title>Node20</title>
<g id="a_Node000020"><a xlink:href="_types_8hpp.html" target="_top" xlink:title=" ">
<polygon fill="white" stroke="#666666" points="553.5,-184 440.5,-184 440.5,-165 553.5,-165 553.5,-184"/>
<text text-anchor="middle" x="497" y="-172" font-family="Helvetica,sans-Serif" font-size="10.00">Common/Types.hpp</text>
</a>
</g>
</g>
<!-- Node19&#45;&gt;Node20 -->
<g id="edge21_Node000019_Node000020" class="edge">
<title>Node19&#45;&gt;Node20</title>
<g id="a_edge21_Node000019_Node000020"><a xlink:title=" ">
<path fill="none" stroke="#63b8ff" d="M497,-219.75C497,-212.8 497,-202.85 497,-194.13"/>
<polygon fill="#63b8ff" stroke="#63b8ff" points="500.5,-194.09 497,-184.09 493.5,-194.09 500.5,-194.09"/>
</a>
</g>
</g>
<!-- Node21 -->
<g id="Node000021" class="node">
<title>Node21</title>
<g id="a_Node000021"><a xlink:title=" ">
<polygon fill="#e0e0e0" stroke="#999999" points="531,-129 463,-129 463,-110 531,-110 531,-129"/>
<text text-anchor="middle" x="497" y="-117" font-family="Helvetica,sans-Serif" font-size="10.00">filesystem</text>
</a>
</g>
</g>
<!-- Node20&#45;&gt;Node21 -->
<g id="edge22_Node000020_Node000021" class="edge">
<title>Node20&#45;&gt;Node21</title>
<g id="a_edge22_Node000020_Node000021"><a xlink:title=" ">
<path fill="none" stroke="#63b8ff" d="M497,-164.75C497,-157.8 497,-147.85 497,-139.13"/>
<polygon fill="#63b8ff" stroke="#63b8ff" points="500.5,-139.09 497,-129.09 493.5,-139.09 500.5,-139.09"/>
</a>
</g>
</g>
<!-- Node22&#45;&gt;Node6 -->
<g id="edge25_Node000022_Node000006" class="edge">
<title>Node22&#45;&gt;Node6</title>
<g id="a_edge25_Node000022_Node000006"><a xlink:title=" ">
<path fill="none" stroke="#63b8ff" d="M772.35,-281.03C662.25,-277.09 483.11,-266.9 320.43,-238.92"/>
<polygon fill="#63b8ff" stroke="#63b8ff" points="320.69,-235.41 310.24,-237.14 319.49,-242.3 320.69,-235.41"/>
</a>
</g>
</g>
<!-- Node22&#45;&gt;Node11 -->
<g id="edge26_Node000022_Node000011" class="edge">
<title>Node22&#45;&gt;Node11</title>
<g id="a_edge26_Node000022_Node000011"><a xlink:title=" ">
<path fill="none" stroke="#63b8ff" d="M979.59,-281.39C1117.08,-277.52 1345.65,-266.92 1372,-239 1382.99,-227.35 1382.16,-208.49 1379.38,-194.35"/>
<polygon fill="#63b8ff" stroke="#63b8ff" points="1382.68,-193.13 1376.92,-184.24 1375.88,-194.78 1382.68,-193.13"/>
</a>
</g>
</g>
<!-- Node22&#45;&gt;Node15 -->
<g id="edge24_Node000022_Node000015" class="edge">
<title>Node22&#45;&gt;Node15</title>
<g id="a_edge24_Node000022_Node000015"><a xlink:title=" ">
<path fill="none" stroke="#63b8ff" d="M772.3,-277.53C677.36,-271.22 532.81,-259.49 398.25,-239.01"/>
<polygon fill="#63b8ff" stroke="#63b8ff" points="398.58,-235.52 388.17,-237.46 397.52,-242.44 398.58,-235.52"/>
</a>
</g>
</g>
<!-- Node22&#45;&gt;Node19 -->
<g id="edge31_Node000022_Node000019" class="edge">
<title>Node22&#45;&gt;Node19</title>
<g id="a_edge31_Node000022_Node000019"><a xlink:title=" ">
<path fill="none" stroke="#63b8ff" d="M815.11,-274.98C747.8,-265.57 639.5,-250.43 568.28,-240.47"/>
<polygon fill="#63b8ff" stroke="#63b8ff" points="568.44,-236.96 558.06,-239.04 567.47,-243.89 568.44,-236.96"/>
</a>
</g>
</g>
<!-- Node23 -->
<g id="Node000023" class="node">
<title>Node23</title>
<g id="a_Node000023"><a xlink:title=" ">
<polygon fill="#e0e0e0" stroke="#999999" points="875.5,-239 712.5,-239 712.5,-220 875.5,-220 875.5,-239"/>
<text text-anchor="middle" x="794" y="-227" font-family="Helvetica,sans-Serif" font-size="10.00">glm/gtc/matrix_transform.hpp</text>
</a>
</g>
</g>
<!-- Node22&#45;&gt;Node23 -->
<g id="edge27_Node000022_Node000023" class="edge">
<title>Node22&#45;&gt;Node23</title>
<g id="a_edge27_Node000022_Node000023"><a xlink:title=" ">
<path fill="none" stroke="#63b8ff" d="M862.83,-274.98C850.23,-266.84 831,-254.41 816.06,-244.76"/>
<polygon fill="#63b8ff" stroke="#63b8ff" points="817.71,-241.66 807.41,-239.17 813.91,-247.54 817.71,-241.66"/>
</a>
</g>
</g>
<!-- Node24 -->
<g id="Node000024" class="node">
<title>Node24</title>
<g id="a_Node000024"><a xlink:title=" ">
<polygon fill="#e0e0e0" stroke="#999999" points="1024,-239 894,-239 894,-220 1024,-220 1024,-239"/>
<text text-anchor="middle" x="959" y="-227" font-family="Helvetica,sans-Serif" font-size="10.00">glm/gtc/quaternion.hpp</text>
</a>
</g>
</g>
<!-- Node22&#45;&gt;Node24 -->
<g id="edge28_Node000022_Node000024" class="edge">
<title>Node22&#45;&gt;Node24</title>
<g id="a_edge28_Node000022_Node000024"><a xlink:title=" ">
<path fill="none" stroke="#63b8ff" d="M889.34,-274.98C902.09,-266.84 921.55,-254.41 936.67,-244.76"/>
<polygon fill="#63b8ff" stroke="#63b8ff" points="938.88,-247.5 945.42,-239.17 935.11,-241.6 938.88,-247.5"/>
</a>
</g>
</g>
<!-- Node25 -->
<g id="Node000025" class="node">
<title>Node25</title>
<g id="a_Node000025"><a xlink:title=" ">
<polygon fill="#e0e0e0" stroke="#999999" points="1214,-239 1042,-239 1042,-220 1214,-220 1214,-239"/>
<text text-anchor="middle" x="1128" y="-227" font-family="Helvetica,sans-Serif" font-size="10.00">glm/gtx/matrix_decompose.hpp</text>
</a>
</g>
</g>
<!-- Node22&#45;&gt;Node25 -->
<g id="edge29_Node000022_Node000025" class="edge">
<title>Node22&#45;&gt;Node25</title>
<g id="a_edge29_Node000022_Node000025"><a xlink:title=" ">
<path fill="none" stroke="#63b8ff" d="M916.49,-274.98C960.17,-265.8 1029.81,-251.15 1077.15,-241.19"/>
<polygon fill="#63b8ff" stroke="#63b8ff" points="1078.13,-244.57 1087.19,-239.08 1076.69,-237.72 1078.13,-244.57"/>
</a>
</g>
</g>
<!-- Node26 -->
<g id="Node000026" class="node">
<title>Node26</title>
<g id="a_Node000026"><a xlink:title=" ">
<polygon fill="#e0e0e0" stroke="#999999" points="1363.5,-239 1232.5,-239 1232.5,-220 1363.5,-220 1363.5,-239"/>
<text text-anchor="middle" x="1298" y="-227" font-family="Helvetica,sans-Serif" font-size="10.00">glm/gtx/string_cast.hpp</text>
</a>
</g>
</g>
<!-- Node22&#45;&gt;Node26 -->
<g id="edge30_Node000022_Node000026" class="edge">
<title>Node22&#45;&gt;Node26</title>
<g id="a_edge30_Node000022_Node000026"><a xlink:title=" ">
<path fill="none" stroke="#63b8ff" d="M943.8,-274.98C1019.84,-265.44 1142.84,-249.99 1222.05,-240.04"/>
<polygon fill="#63b8ff" stroke="#63b8ff" points="1222.96,-243.45 1232.45,-238.73 1222.09,-236.51 1222.96,-243.45"/>
</a>
</g>
</g>
<!-- Node22&#45;&gt;Node27 -->
<g id="edge32_Node000022_Node000027" class="edge">
<title>Node22&#45;&gt;Node27</title>
<g id="a_edge32_Node000022_Node000027"><a xlink:title=" ">
<path fill="none" stroke="#63b8ff" d="M979.69,-276.71C1151.31,-265.46 1489,-243.34 1625.58,-234.39"/>
<polygon fill="#63b8ff" stroke="#63b8ff" points="1626.09,-237.87 1635.84,-233.72 1625.63,-230.88 1626.09,-237.87"/>
</a>
</g>
</g>
<!-- Node37 -->
<g id="Node000037" class="node">
<title>Node37</title>
<g id="a_Node000037"><a xlink:href="_math_2_utils_8hpp.html" target="_top" xlink:title=" ">
<polygon fill="white" stroke="#666666" points="694,-239 606,-239 606,-220 694,-220 694,-239"/>
<text text-anchor="middle" x="650" y="-227" font-family="Helvetica,sans-Serif" font-size="10.00">Math/Utils.hpp</text>
</a>
</g>
</g>
<!-- Node22&#45;&gt;Node37 -->
<g id="edge50_Node000022_Node000037" class="edge">
<title>Node22&#45;&gt;Node37</title>
<g id="a_edge50_Node000022_Node000037"><a xlink:title=" ">
<path fill="none" stroke="#63b8ff" d="M839.69,-274.98C800.76,-265.86 738.84,-251.33 696.4,-241.38"/>
<polygon fill="#63b8ff" stroke="#63b8ff" points="697.13,-237.96 686.6,-239.08 695.53,-244.77 697.13,-237.96"/>
</a>
</g>
</g>
<!-- Node27&#45;&gt;Node16 -->
<g id="edge34_Node000027_Node000016" class="edge">
<title>Node27&#45;&gt;Node16</title>
<g id="a_edge34_Node000027_Node000016"><a xlink:title=" ">
<path fill="none" stroke="#63b8ff" d="M1635.96,-225.05C1610.36,-223.34 1578.5,-221.36 1550,-220 1052.97,-196.36 928,-208.24 431,-184 411.09,-183.03 389.48,-181.72 369.7,-180.42"/>
<polygon fill="#63b8ff" stroke="#63b8ff" points="369.75,-176.91 359.54,-179.74 369.29,-183.9 369.75,-176.91"/>
</a>
</g>
</g>
<!-- Node28 -->
<g id="Node000028" class="node">
<title>Node28</title>
<g id="a_Node000028"><a xlink:title=" ">
<polygon fill="#e0e0e0" stroke="#999999" points="1890,-129 1804,-129 1804,-110 1890,-110 1890,-129"/>
<text text-anchor="middle" x="1847" y="-117" font-family="Helvetica,sans-Serif" font-size="10.00">unordered_set</text>
</a>
</g>
</g>
<!-- Node27&#45;&gt;Node28 -->
<g id="edge33_Node000027_Node000028" class="edge">
<title>Node27&#45;&gt;Node28</title>
<g id="a_edge33_Node000027_Node000028"><a xlink:title=" ">
<path fill="none" stroke="#63b8ff" d="M1720.95,-219.98C1744.77,-213.07 1775.79,-201.57 1799,-184 1815.47,-171.53 1829.08,-151.97 1837.54,-137.85"/>
<polygon fill="#63b8ff" stroke="#63b8ff" points="1840.62,-139.52 1842.56,-129.1 1834.55,-136.04 1840.62,-139.52"/>
</a>
</g>
</g>
<!-- Node29 -->
<g id="Node000029" class="node">
<title>Node29</title>
<g id="a_Node000029"><a xlink:href="_entity_8hpp.html" target="_top" xlink:title=" ">
<polygon fill="white" stroke="#666666" points="1813,-74 1727,-74 1727,-55 1813,-55 1813,-74"/>
<text text-anchor="middle" x="1770" y="-62" font-family="Helvetica,sans-Serif" font-size="10.00">ECS/Entity.hpp</text>
</a>
</g>
</g>
<!-- Node27&#45;&gt;Node29 -->
<g id="edge35_Node000027_Node000029" class="edge">
<title>Node27&#45;&gt;Node29</title>
<g id="a_edge35_Node000027_Node000029"><a xlink:title=" ">
<path fill="none" stroke="#63b8ff" d="M1715.8,-219.99C1733.72,-213.31 1754.91,-202.04 1766,-184 1784.97,-153.13 1779.74,-108.68 1774.63,-83.93"/>
<polygon fill="#63b8ff" stroke="#63b8ff" points="1778.01,-83.02 1772.37,-74.06 1771.19,-84.59 1778.01,-83.02"/>
</a>
</g>
</g>
<!-- Node31 -->
<g id="Node000031" class="node">
<title>Node31</title>
<g id="a_Node000031"><a xlink:href="_entity_hierarchy_8hpp.html" target="_top" xlink:title=" ">
<polygon fill="white" stroke="#666666" points="2015,-184 1881,-184 1881,-165 2015,-165 2015,-184"/>
<text text-anchor="middle" x="1948" y="-172" font-family="Helvetica,sans-Serif" font-size="10.00">ECS/EntityHierarchy.hpp</text>
</a>
</g>
</g>
<!-- Node27&#45;&gt;Node31 -->
<g id="edge37_Node000027_Node000031" class="edge">
<title>Node27&#45;&gt;Node31</title>
<g id="a_edge37_Node000027_Node000031"><a xlink:title=" ">
<path fill="none" stroke="#63b8ff" d="M1727.26,-219.98C1773.04,-210.76 1846.14,-196.03 1895.55,-186.07"/>
<polygon fill="#63b8ff" stroke="#63b8ff" points="1896.3,-189.49 1905.41,-184.08 1894.92,-182.63 1896.3,-189.49"/>
</a>
</g>
</g>
<!-- Node34 -->
<g id="Node000034" class="node">
<title>Node34</title>
<g id="a_Node000034"><a xlink:href="_entity_provider_8hpp.html" target="_top" xlink:title="Manages a pool of unused entity identifiers and provides mechanisms for requesting and removing them.">
<polygon fill="white" stroke="#666666" points="1748,-129 1620,-129 1620,-110 1748,-110 1748,-129"/>
<text text-anchor="middle" x="1684" y="-117" font-family="Helvetica,sans-Serif" font-size="10.00">ECS/EntityProvider.hpp</text>
</a>
</g>
</g>
<!-- Node27&#45;&gt;Node34 -->
<g id="edge43_Node000027_Node000034" class="edge">
<title>Node27&#45;&gt;Node34</title>
<g id="a_edge43_Node000027_Node000034"><a xlink:title=" ">
<path fill="none" stroke="#63b8ff" d="M1671.51,-219.75C1660.71,-211.87 1646.35,-199.21 1640,-184 1632.37,-165.72 1648.18,-147.41 1662.93,-135.17"/>
<polygon fill="#63b8ff" stroke="#63b8ff" points="1665.09,-137.93 1670.86,-129.04 1660.8,-132.39 1665.09,-137.93"/>
</a>
</g>
</g>
<!-- Node35 -->
<g id="Node000035" class="node">
<title>Node35</title>
<g id="a_Node000035"><a xlink:href="_singleton_component_8hpp.html" target="_top" xlink:title=" ">
<polygon fill="white" stroke="#666666" points="1592.5,-184 1431.5,-184 1431.5,-165 1592.5,-165 1592.5,-184"/>
<text text-anchor="middle" x="1512" y="-172" font-family="Helvetica,sans-Serif" font-size="10.00">ECS/SingletonComponent.hpp</text>
</a>
</g>
</g>
<!-- Node27&#45;&gt;Node35 -->
<g id="edge47_Node000027_Node000035" class="edge">
<title>Node27&#45;&gt;Node35</title>
<g id="a_edge47_Node000027_Node000035"><a xlink:title=" ">
<path fill="none" stroke="#63b8ff" d="M1657.2,-219.98C1628.03,-211.05 1582,-196.94 1549.6,-187.02"/>
<polygon fill="#63b8ff" stroke="#63b8ff" points="1550.6,-183.66 1540.01,-184.08 1548.55,-190.36 1550.6,-183.66"/>
</a>
</g>
</g>
<!-- Node36 -->
<g id="Node000036" class="node">
<title>Node36</title>
<g id="a_Node000036"><a xlink:href="_sparse_set_8hpp.html" target="_top" xlink:title=" ">
<polygon fill="white" stroke="#666666" points="1757,-184 1649,-184 1649,-165 1757,-165 1757,-184"/>
<text text-anchor="middle" x="1703" y="-172" font-family="Helvetica,sans-Serif" font-size="10.00">ECS/SparseSet.hpp</text>
</a>
</g>
</g>
<!-- Node27&#45;&gt;Node36 -->
<g id="edge48_Node000027_Node000036" class="edge">
<title>Node27&#45;&gt;Node36</title>
<g id="a_edge48_Node000027_Node000036"><a xlink:title=" ">
<path fill="none" stroke="#63b8ff" d="M1687.97,-219.75C1690.36,-212.72 1693.79,-202.62 1696.77,-193.84"/>
<polygon fill="#63b8ff" stroke="#63b8ff" points="1700.18,-194.68 1700.08,-184.09 1693.55,-192.43 1700.18,-194.68"/>
</a>
</g>
</g>
<!-- Node30 -->
<g id="Node000030" class="node">
<title>Node30</title>
<g id="a_Node000030"><a xlink:title=" ">
<polygon fill="#e0e0e0" stroke="#999999" points="1750.5,-19 1697.5,-19 1697.5,0 1750.5,0 1750.5,-19"/>
<text text-anchor="middle" x="1724" y="-7" font-family="Helvetica,sans-Serif" font-size="10.00">stdlib.h</text>
</a>
</g>
</g>
<!-- Node29&#45;&gt;Node30 -->
<g id="edge36_Node000029_Node000030" class="edge">
<title>Node29&#45;&gt;Node30</title>
<g id="a_edge36_Node000029_Node000030"><a xlink:title=" ">
<path fill="none" stroke="#63b8ff" d="M1762.4,-54.75C1755.84,-47.18 1746.18,-36.05 1738.19,-26.84"/>
<polygon fill="#63b8ff" stroke="#63b8ff" points="1740.65,-24.35 1731.45,-19.09 1735.37,-28.94 1740.65,-24.35"/>
</a>
</g>
</g>
<!-- Node31&#45;&gt;Node9 -->
<g id="edge38_Node000031_Node000009" class="edge">
<title>Node31&#45;&gt;Node9</title>
<g id="a_edge38_Node000031_Node000009"><a xlink:title=" ">
<path fill="none" stroke="#63b8ff" d="M1981.74,-164.98C2018.11,-155.81 2076.08,-141.18 2115.53,-131.22"/>
<polygon fill="#63b8ff" stroke="#63b8ff" points="2116.54,-134.57 2125.38,-128.73 2114.83,-127.79 2116.54,-134.57"/>
</a>
</g>
</g>
<!-- Node31&#45;&gt;Node28 -->
<g id="edge41_Node000031_Node000028" class="edge">
<title>Node31&#45;&gt;Node28</title>
<g id="a_edge41_Node000031_Node000028"><a xlink:title=" ">
<path fill="none" stroke="#63b8ff" d="M1931.77,-164.98C1915.82,-156.61 1891.22,-143.7 1872.62,-133.95"/>
<polygon fill="#63b8ff" stroke="#63b8ff" points="1874,-130.72 1863.52,-129.17 1870.75,-136.92 1874,-130.72"/>
</a>
</g>
</g>
<!-- Node31&#45;&gt;Node29 -->
<g id="edge42_Node000031_Node000029" class="edge">
<title>Node31&#45;&gt;Node29</title>
<g id="a_edge42_Node000031_Node000029"><a xlink:title=" ">
<path fill="none" stroke="#63b8ff" d="M1943.49,-164.8C1936.02,-151.21 1919.81,-124.95 1899,-110 1876.59,-93.91 1847.88,-83.24 1823.23,-76.41"/>
<polygon fill="#63b8ff" stroke="#63b8ff" points="1823.86,-72.95 1813.3,-73.79 1822.08,-79.72 1823.86,-72.95"/>
</a>
</g>
</g>
<!-- Node32 -->
<g id="Node000032" class="node">
<title>Node32</title>
<g id="a_Node000032"><a xlink:title=" ">
<polygon fill="#e0e0e0" stroke="#999999" points="1996,-129 1946,-129 1946,-110 1996,-110 1996,-129"/>
<text text-anchor="middle" x="1971" y="-117" font-family="Helvetica,sans-Serif" font-size="10.00">ranges</text>
</a>
</g>
</g>
<!-- Node31&#45;&gt;Node32 -->
<g id="edge39_Node000031_Node000032" class="edge">
<title>Node31&#45;&gt;Node32</title>
<g id="a_edge39_Node000031_Node000032"><a xlink:title=" ">
<path fill="none" stroke="#63b8ff" d="M1951.8,-164.75C1954.91,-157.57 1959.42,-147.18 1963.29,-138.27"/>
<polygon fill="#63b8ff" stroke="#63b8ff" points="1966.5,-139.66 1967.27,-129.09 1960.08,-136.87 1966.5,-139.66"/>
</a>
</g>
</g>
<!-- Node33 -->
<g id="Node000033" class="node">
<title>Node33</title>
<g id="a_Node000033"><a xlink:title=" ">
<polygon fill="#e0e0e0" stroke="#999999" points="2107.5,-129 2014.5,-129 2014.5,-110 2107.5,-110 2107.5,-129"/>
<text text-anchor="middle" x="2061" y="-117" font-family="Helvetica,sans-Serif" font-size="10.00">unordered_map</text>
</a>
</g>
</g>
<!-- Node31&#45;&gt;Node33 -->
<g id="edge40_Node000031_Node000033" class="edge">
<title>Node31&#45;&gt;Node33</title>
<g id="a_edge40_Node000031_Node000033"><a xlink:title=" ">
<path fill="none" stroke="#63b8ff" d="M1966.16,-164.98C1984.25,-156.5 2012.28,-143.35 2033.19,-133.54"/>
<polygon fill="#63b8ff" stroke="#63b8ff" points="2034.95,-136.59 2042.51,-129.17 2031.97,-130.25 2034.95,-136.59"/>
</a>
</g>
</g>
<!-- Node34&#45;&gt;Node17 -->
<g id="edge45_Node000034_Node000017" class="edge">
<title>Node34&#45;&gt;Node17</title>
<g id="a_edge45_Node000034_Node000017"><a xlink:title=" ">
<path fill="none" stroke="#63b8ff" d="M1619.86,-113.05C1488.73,-101.91 1193.9,-76.87 1093.91,-68.38"/>
<polygon fill="#63b8ff" stroke="#63b8ff" points="1094.03,-64.88 1083.77,-67.52 1093.44,-71.85 1094.03,-64.88"/>
</a>
</g>
</g>
<!-- Node34&#45;&gt;Node29 -->
<g id="edge46_Node000034_Node000029" class="edge">
<title>Node34&#45;&gt;Node29</title>
<g id="a_edge46_Node000034_Node000029"><a xlink:title=" ">
<path fill="none" stroke="#63b8ff" d="M1697.82,-109.98C1711.15,-101.77 1731.58,-89.18 1747.31,-79.49"/>
<polygon fill="#63b8ff" stroke="#63b8ff" points="1749.25,-82.4 1755.93,-74.17 1745.58,-76.44 1749.25,-82.4"/>
</a>
</g>
</g>
<!-- Node34&#45;&gt;Node30 -->
<g id="edge44_Node000034_Node000030" class="edge">
<title>Node34&#45;&gt;Node30</title>
<g id="a_edge44_Node000034_Node000030"><a xlink:title=" ">
<path fill="none" stroke="#63b8ff" d="M1687.27,-109.66C1693.81,-92.01 1708.6,-52.09 1717.28,-28.64"/>
<polygon fill="#63b8ff" stroke="#63b8ff" points="1720.6,-29.75 1720.79,-19.16 1714.04,-27.32 1720.6,-29.75"/>
</a>
</g>
</g>
<!-- Node36&#45;&gt;Node34 -->
<g id="edge49_Node000036_Node000034" class="edge">
<title>Node36&#45;&gt;Node34</title>
<g id="a_edge49_Node000036_Node000034"><a xlink:title=" ">
<path fill="none" stroke="#63b8ff" d="M1699.86,-164.75C1697.32,-157.65 1693.64,-147.4 1690.47,-138.56"/>
<polygon fill="#63b8ff" stroke="#63b8ff" points="1693.75,-137.32 1687.08,-129.09 1687.16,-139.68 1693.75,-137.32"/>
</a>
</g>
</g>
<!-- Node37&#45;&gt;Node11 -->
<g id="edge51_Node000037_Node000011" class="edge">
<title>Node37&#45;&gt;Node11</title>
<g id="a_edge51_Node000037_Node000011"><a xlink:title=" ">
<path fill="none" stroke="#63b8ff" d="M694.2,-221.1C697.18,-220.7 700.13,-220.32 703,-220 934.79,-193.78 1213.51,-181.38 1324.7,-177.2"/>
<polygon fill="#63b8ff" stroke="#63b8ff" points="1325.07,-180.69 1334.93,-176.82 1324.81,-173.7 1325.07,-180.69"/>
</a>
</g>
</g>
<!-- Node38&#45;&gt;Node11 -->
<g id="edge55_Node000038_Node000011" class="edge">
<title>Node38&#45;&gt;Node11</title>
<g id="a_edge55_Node000038_Node000011"><a xlink:title=" ">
<path fill="none" stroke="#63b8ff" d="M1424.22,-274.95C1421.42,-262.44 1415.32,-238.6 1406,-220 1401.06,-210.13 1394.02,-200.06 1387.8,-192.01"/>
<polygon fill="#63b8ff" stroke="#63b8ff" points="1390.5,-189.78 1381.52,-184.16 1385.04,-194.15 1390.5,-189.78"/>
</a>
</g>
</g>
<!-- Node39 -->
<g id="Node000039" class="node">
<title>Node39</title>
<g id="a_Node000039"><a xlink:href="_ray_8hpp.html" target="_top" xlink:title=" ">
<polygon fill="white" stroke="#666666" points="1541.5,-239 1458.5,-239 1458.5,-220 1541.5,-220 1541.5,-239"/>
<text text-anchor="middle" x="1500" y="-227" font-family="Helvetica,sans-Serif" font-size="10.00">Math/Ray.hpp</text>
</a>
</g>
</g>
<!-- Node38&#45;&gt;Node39 -->
<g id="edge53_Node000038_Node000039" class="edge">
<title>Node38&#45;&gt;Node39</title>
<g id="a_edge53_Node000038_Node000039"><a xlink:title=" ">
<path fill="none" stroke="#63b8ff" d="M1437.89,-274.98C1449.15,-266.92 1466.29,-254.65 1479.71,-245.03"/>
<polygon fill="#63b8ff" stroke="#63b8ff" points="1481.8,-247.84 1487.89,-239.17 1477.73,-242.15 1481.8,-247.84"/>
</a>
</g>
</g>
<!-- Node39&#45;&gt;Node11 -->
<g id="edge54_Node000039_Node000011" class="edge">
<title>Node39&#45;&gt;Node11</title>
<g id="a_edge54_Node000039_Node000011"><a xlink:title=" ">
<path fill="none" stroke="#63b8ff" d="M1479.76,-219.98C1459.3,-211.38 1427.47,-197.99 1404.07,-188.15"/>
<polygon fill="#63b8ff" stroke="#63b8ff" points="1405.19,-184.82 1394.61,-184.17 1402.47,-191.27 1405.19,-184.82"/>
</a>
</g>
</g>
<!-- Node40&#45;&gt;Node11 -->
<g id="edge57_Node000040_Node000011" class="edge">
<title>Node40&#45;&gt;Node11</title>
<g id="a_edge57_Node000040_Node000011"><a xlink:title=" ">
<path fill="none" stroke="#63b8ff" d="M1299.71,-331.29C1373.74,-324.52 1467.93,-312.61 1502,-294 1530.47,-278.44 1538.61,-269.38 1550,-239 1552.97,-231.09 1555.19,-226.66 1550,-220 1542.07,-209.82 1472.3,-194.46 1423.03,-184.71"/>
<polygon fill="#63b8ff" stroke="#63b8ff" points="1423.65,-181.27 1413.17,-182.78 1422.31,-188.14 1423.65,-181.27"/>
</a>
</g>
</g>
<!-- Node40&#45;&gt;Node22 -->
<g id="edge58_Node000040_Node000022" class="edge">
<title>Node40&#45;&gt;Node22</title>
<g id="a_edge58_Node000040_Node000022"><a xlink:title=" ">
<path fill="none" stroke="#63b8ff" d="M1148.78,-329.98C1091.42,-320.63 999.33,-305.61 938.26,-295.65"/>
<polygon fill="#63b8ff" stroke="#63b8ff" points="938.79,-292.19 928.36,-294.04 937.66,-299.1 938.79,-292.19"/>
</a>
</g>
</g>
<!-- Node40&#45;&gt;Node39 -->
<g id="edge59_Node000040_Node000039" class="edge">
<title>Node40&#45;&gt;Node39</title>
<g id="a_edge59_Node000040_Node000039"><a xlink:title=" ">
<path fill="none" stroke="#63b8ff" d="M1299.57,-333.8C1369.07,-328.5 1454.33,-317.34 1481,-294 1493.57,-283 1498,-264.05 1499.47,-249.71"/>
<polygon fill="#63b8ff" stroke="#63b8ff" points="1502.98,-249.64 1500.12,-239.43 1495.99,-249.19 1502.98,-249.64"/>
</a>
</g>
</g>
</g>
</svg>
