<?xml version="1.0" encoding="UTF-8" standalone="no"?>
<!DOCTYPE svg PUBLIC "-//W3C//DTD SVG 1.1//EN"
 "http://www.w3.org/Graphics/SVG/1.1/DTD/svg11.dtd">
<!-- Generated by graphviz version 2.43.0 (0)
 -->
<!-- Title: src/InputManager/InputManager.cpp Pages: 1 -->
<svg width="1991pt" height="467pt"
 viewBox="0.00 0.00 1991.00 467.00" xmlns="http://www.w3.org/2000/svg" xmlns:xlink="http://www.w3.org/1999/xlink">
<g id="graph0" class="graph" transform="scale(1 1) rotate(0) translate(4 463)">
<title>src/InputManager/InputManager.cpp</title>
<!-- Node1 -->
<g id="Node000001" class="node">
<title>Node1</title>
<g id="a_Node000001"><a xlink:title=" ">
<polygon fill="#999999" stroke="#666666" points="1601.5,-459 1410.5,-459 1410.5,-440 1601.5,-440 1601.5,-459"/>
<text text-anchor="middle" x="1506" y="-447" font-family="Helvetica,sans-Serif" font-size="10.00">src/InputManager/InputManager.cpp</text>
</a>
</g>
</g>
<!-- Node2 -->
<g id="Node000002" class="node">
<title>Node2</title>
<g id="a_Node000002"><a xlink:href="_input_manager_8hpp.html" target="_top" xlink:title=" ">
<polygon fill="white" stroke="#666666" points="1366.5,-404 1191.5,-404 1191.5,-385 1366.5,-385 1366.5,-404"/>
<text text-anchor="middle" x="1279" y="-392" font-family="Helvetica,sans-Serif" font-size="10.00">InputManager/InputManager.hpp</text>
</a>
</g>
</g>
<!-- Node1&#45;&gt;Node2 -->
<g id="edge1_Node000001_Node000002" class="edge">
<title>Node1&#45;&gt;Node2</title>
<g id="a_edge1_Node000001_Node000002"><a xlink:title=" ">
<path fill="none" stroke="#63b8ff" d="M1469.53,-439.98C1430.43,-430.86 1368.23,-416.33 1325.61,-406.38"/>
<polygon fill="#63b8ff" stroke="#63b8ff" points="1326.29,-402.95 1315.76,-404.08 1324.7,-409.76 1326.29,-402.95"/>
</a>
</g>
</g>
<!-- Node37 -->
<g id="Node000037" class="node">
<title>Node37</title>
<g id="a_Node000037"><a xlink:href="_profiler_8hpp.html" target="_top" xlink:title=" ">
<polygon fill="white" stroke="#666666" points="1856.5,-294 1737.5,-294 1737.5,-275 1856.5,-275 1856.5,-294"/>
<text text-anchor="middle" x="1797" y="-282" font-family="Helvetica,sans-Serif" font-size="10.00">Common/Profiler.hpp</text>
</a>
</g>
</g>
<!-- Node1&#45;&gt;Node37 -->
<g id="edge56_Node000001_Node000037" class="edge">
<title>Node1&#45;&gt;Node37</title>
<g id="a_edge56_Node000001_Node000037"><a xlink:title=" ">
<path fill="none" stroke="#63b8ff" d="M1523.65,-439.94C1557.67,-423.29 1634.48,-385.04 1697,-349 1724.81,-332.97 1755.88,-312.88 1775.9,-299.64"/>
<polygon fill="#63b8ff" stroke="#63b8ff" points="1777.88,-302.53 1784.27,-294.08 1774.01,-296.7 1777.88,-302.53"/>
</a>
</g>
</g>
<!-- Node3 -->
<g id="Node000003" class="node">
<title>Node3</title>
<g id="a_Node000003"><a xlink:title=" ">
<polygon fill="#e0e0e0" stroke="#999999" points="1747.5,-129 1682.5,-129 1682.5,-110 1747.5,-110 1747.5,-129"/>
<text text-anchor="middle" x="1715" y="-117" font-family="Helvetica,sans-Serif" font-size="10.00">functional</text>
</a>
</g>
</g>
<!-- Node2&#45;&gt;Node3 -->
<g id="edge2_Node000002_Node000003" class="edge">
<title>Node2&#45;&gt;Node3</title>
<g id="a_edge2_Node000002_Node000003"><a xlink:title=" ">
<path fill="none" stroke="#63b8ff" d="M1348.58,-385C1445.4,-371.19 1609,-339.83 1609,-285.5 1609,-285.5 1609,-285.5 1609,-228.5 1609,-198.91 1609.96,-187.65 1629,-165 1641.3,-150.37 1659.64,-139.96 1676.22,-132.91"/>
<polygon fill="#63b8ff" stroke="#63b8ff" points="1677.72,-136.08 1685.73,-129.13 1675.14,-129.57 1677.72,-136.08"/>
</a>
</g>
</g>
<!-- Node4 -->
<g id="Node000004" class="node">
<title>Node4</title>
<g id="a_Node000004"><a xlink:title=" ">
<polygon fill="#e0e0e0" stroke="#999999" points="545.5,-349 462.5,-349 462.5,-330 545.5,-330 545.5,-349"/>
<text text-anchor="middle" x="504" y="-337" font-family="Helvetica,sans-Serif" font-size="10.00">GLFW/glfw3.h</text>
</a>
</g>
</g>
<!-- Node2&#45;&gt;Node4 -->
<g id="edge3_Node000002_Node000004" class="edge">
<title>Node2&#45;&gt;Node4</title>
<g id="a_edge3_Node000002_Node000004"><a xlink:title=" ">
<path fill="none" stroke="#63b8ff" d="M1191.26,-391.04C1056.74,-386.63 791.32,-375.34 555.83,-348.96"/>
<polygon fill="#63b8ff" stroke="#63b8ff" points="556.03,-345.46 545.7,-347.81 555.24,-352.41 556.03,-345.46"/>
</a>
</g>
</g>
<!-- Node5 -->
<g id="Node000005" class="node">
<title>Node5</title>
<g id="a_Node000005"><a xlink:title=" ">
<polygon fill="#e0e0e0" stroke="#999999" points="1009,-184 931,-184 931,-165 1009,-165 1009,-184"/>
<text text-anchor="middle" x="970" y="-172" font-family="Helvetica,sans-Serif" font-size="10.00">glm/glm.hpp</text>
</a>
</g>
</g>
<!-- Node2&#45;&gt;Node5 -->
<g id="edge4_Node000002_Node000005" class="edge">
<title>Node2&#45;&gt;Node5</title>
<g id="a_edge4_Node000002_Node000005"><a xlink:title=" ">
<path fill="none" stroke="#63b8ff" d="M1291.49,-384.93C1301.87,-376.99 1315.88,-364.14 1322,-349 1337.43,-310.83 1366.89,-281.05 1303,-220 1258.92,-177.88 1096.64,-192.11 1019.33,-183.89"/>
<polygon fill="#63b8ff" stroke="#63b8ff" points="1019.37,-180.37 1009.01,-182.57 1018.48,-187.31 1019.37,-180.37"/>
</a>
</g>
</g>
<!-- Node6 -->
<g id="Node000006" class="node">
<title>Node6</title>
<g id="a_Node000006"><a xlink:href="_assert_8hpp.html" target="_top" xlink:title=" ">
<polygon fill="white" stroke="#666666" points="680,-349 564,-349 564,-330 680,-330 680,-349"/>
<text text-anchor="middle" x="622" y="-337" font-family="Helvetica,sans-Serif" font-size="10.00">Common/Assert.hpp</text>
</a>
</g>
</g>
<!-- Node2&#45;&gt;Node6 -->
<g id="edge5_Node000002_Node000006" class="edge">
<title>Node2&#45;&gt;Node6</title>
<g id="a_edge5_Node000002_Node000006"><a xlink:title=" ">
<path fill="none" stroke="#63b8ff" d="M1191.42,-386.43C1059.02,-375.75 810.68,-355.72 690.55,-346.03"/>
<polygon fill="#63b8ff" stroke="#63b8ff" points="690.62,-342.52 680.38,-345.21 690.06,-349.5 690.62,-342.52"/>
</a>
</g>
</g>
<!-- Node10 -->
<g id="Node000010" class="node">
<title>Node10</title>
<g id="a_Node000010"><a xlink:href="_logger_8hpp.html" target="_top" xlink:title=" ">
<polygon fill="white" stroke="#666666" points="1754.5,-184 1637.5,-184 1637.5,-165 1754.5,-165 1754.5,-184"/>
<text text-anchor="middle" x="1696" y="-172" font-family="Helvetica,sans-Serif" font-size="10.00">Common/Logger.hpp</text>
</a>
</g>
</g>
<!-- Node2&#45;&gt;Node10 -->
<g id="edge9_Node000002_Node000010" class="edge">
<title>Node2&#45;&gt;Node10</title>
<g id="a_edge9_Node000002_Node000010"><a xlink:title=" ">
<path fill="none" stroke="#63b8ff" d="M1366.75,-391.92C1455.16,-388.64 1583.95,-378.73 1623,-349 1673.45,-310.6 1689.36,-230.76 1694.11,-194.34"/>
<polygon fill="#63b8ff" stroke="#63b8ff" points="1697.61,-194.49 1695.28,-184.15 1690.66,-193.68 1697.61,-194.49"/>
</a>
</g>
</g>
<!-- Node13 -->
<g id="Node000013" class="node">
<title>Node13</title>
<g id="a_Node000013"><a xlink:href="_box_collider_component_8hpp.html" target="_top" xlink:title=" ">
<polygon fill="white" stroke="#666666" points="1098.5,-349 883.5,-349 883.5,-330 1098.5,-330 1098.5,-349"/>
<text text-anchor="middle" x="991" y="-337" font-family="Helvetica,sans-Serif" font-size="10.00">Components/BoxColliderComponent.hpp</text>
</a>
</g>
</g>
<!-- Node2&#45;&gt;Node13 -->
<g id="edge12_Node000002_Node000013" class="edge">
<title>Node2&#45;&gt;Node13</title>
<g id="a_edge12_Node000002_Node000013"><a xlink:title=" ">
<path fill="none" stroke="#63b8ff" d="M1232.73,-384.98C1182.39,-375.72 1101.88,-360.9 1047.76,-350.94"/>
<polygon fill="#63b8ff" stroke="#63b8ff" points="1048.1,-347.45 1037.63,-349.08 1046.84,-354.33 1048.1,-347.45"/>
</a>
</g>
</g>
<!-- Node18 -->
<g id="Node000018" class="node">
<title>Node18</title>
<g id="a_Node000018"><a xlink:href="_transform_component_8hpp.html" target="_top" xlink:title=" ">
<polygon fill="white" stroke="#666666" points="919.5,-294 712.5,-294 712.5,-275 919.5,-275 919.5,-294"/>
<text text-anchor="middle" x="816" y="-282" font-family="Helvetica,sans-Serif" font-size="10.00">Components/TransformComponent.hpp</text>
</a>
</g>
</g>
<!-- Node2&#45;&gt;Node18 -->
<g id="edge54_Node000002_Node000018" class="edge">
<title>Node2&#45;&gt;Node18</title>
<g id="a_edge54_Node000002_Node000018"><a xlink:title=" ">
<path fill="none" stroke="#63b8ff" d="M1191.19,-391.05C1089.09,-386.95 927.68,-376.27 874,-349 853.5,-338.58 836.67,-317.71 826.52,-302.74"/>
<polygon fill="#63b8ff" stroke="#63b8ff" points="829.45,-300.83 821.08,-294.33 823.57,-304.63 829.45,-300.83"/>
</a>
</g>
</g>
<!-- Node24 -->
<g id="Node000024" class="node">
<title>Node24</title>
<g id="a_Node000024"><a xlink:href="_registry_8hpp.html" target="_top" xlink:title=" ">
<polygon fill="white" stroke="#666666" points="1468,-239 1370,-239 1370,-220 1468,-220 1468,-239"/>
<text text-anchor="middle" x="1419" y="-227" font-family="Helvetica,sans-Serif" font-size="10.00">ECS/Registry.hpp</text>
</a>
</g>
</g>
<!-- Node2&#45;&gt;Node24 -->
<g id="edge55_Node000002_Node000024" class="edge">
<title>Node2&#45;&gt;Node24</title>
<g id="a_edge55_Node000002_Node000024"><a xlink:title=" ">
<path fill="none" stroke="#63b8ff" d="M1300.76,-384.9C1317.5,-377.41 1340.34,-365.22 1356,-349 1384.61,-319.36 1403.76,-274.12 1412.86,-248.98"/>
<polygon fill="#63b8ff" stroke="#63b8ff" points="1416.26,-249.85 1416.24,-239.26 1409.65,-247.56 1416.26,-249.85"/>
</a>
</g>
</g>
<!-- Node36 -->
<g id="Node000036" class="node">
<title>Node36</title>
<g id="a_Node000036"><a xlink:href="_camera_component_8hpp.html" target="_top" xlink:title=" ">
<polygon fill="white" stroke="#666666" points="1313.5,-349 1116.5,-349 1116.5,-330 1313.5,-330 1313.5,-349"/>
<text text-anchor="middle" x="1215" y="-337" font-family="Helvetica,sans-Serif" font-size="10.00">Components/CameraComponent.hpp</text>
</a>
</g>
</g>
<!-- Node2&#45;&gt;Node36 -->
<g id="edge50_Node000002_Node000036" class="edge">
<title>Node2&#45;&gt;Node36</title>
<g id="a_edge50_Node000002_Node000036"><a xlink:title=" ">
<path fill="none" stroke="#63b8ff" d="M1268.72,-384.98C1259.16,-377.07 1244.72,-365.11 1233.22,-355.58"/>
<polygon fill="#63b8ff" stroke="#63b8ff" points="1235.4,-352.85 1225.47,-349.17 1230.94,-358.24 1235.4,-352.85"/>
</a>
</g>
</g>
<!-- Node7 -->
<g id="Node000007" class="node">
<title>Node7</title>
<g id="a_Node000007"><a xlink:title=" ">
<polygon fill="#e0e0e0" stroke="#999999" points="655.5,-294 588.5,-294 588.5,-275 655.5,-275 655.5,-294"/>
<text text-anchor="middle" x="622" y="-282" font-family="Helvetica,sans-Serif" font-size="10.00">fmt/core.h</text>
</a>
</g>
</g>
<!-- Node6&#45;&gt;Node7 -->
<g id="edge6_Node000006_Node000007" class="edge">
<title>Node6&#45;&gt;Node7</title>
<g id="a_edge6_Node000006_Node000007"><a xlink:title=" ">
<path fill="none" stroke="#63b8ff" d="M622,-329.75C622,-322.8 622,-312.85 622,-304.13"/>
<polygon fill="#63b8ff" stroke="#63b8ff" points="625.5,-304.09 622,-294.09 618.5,-304.09 625.5,-304.09"/>
</a>
</g>
</g>
<!-- Node8 -->
<g id="Node000008" class="node">
<title>Node8</title>
<g id="a_Node000008"><a xlink:title=" ">
<polygon fill="#e0e0e0" stroke="#999999" points="531.5,-294 466.5,-294 466.5,-275 531.5,-275 531.5,-294"/>
<text text-anchor="middle" x="499" y="-282" font-family="Helvetica,sans-Serif" font-size="10.00">exception</text>
</a>
</g>
</g>
<!-- Node6&#45;&gt;Node8 -->
<g id="edge7_Node000006_Node000008" class="edge">
<title>Node6&#45;&gt;Node8</title>
<g id="a_edge7_Node000006_Node000008"><a xlink:title=" ">
<path fill="none" stroke="#63b8ff" d="M602.24,-329.98C582.27,-321.38 551.2,-307.99 528.35,-298.15"/>
<polygon fill="#63b8ff" stroke="#63b8ff" points="529.69,-294.91 519.12,-294.17 526.92,-301.34 529.69,-294.91"/>
</a>
</g>
</g>
<!-- Node9 -->
<g id="Node000009" class="node">
<title>Node9</title>
<g id="a_Node000009"><a xlink:title=" ">
<polygon fill="#e0e0e0" stroke="#999999" points="60,-239 0,-239 0,-220 60,-220 60,-239"/>
<text text-anchor="middle" x="30" y="-227" font-family="Helvetica,sans-Serif" font-size="10.00">iostream</text>
</a>
</g>
</g>
<!-- Node6&#45;&gt;Node9 -->
<g id="edge8_Node000006_Node000009" class="edge">
<title>Node6&#45;&gt;Node9</title>
<g id="a_edge8_Node000006_Node000009"><a xlink:title=" ">
<path fill="none" stroke="#63b8ff" d="M613.97,-329.55C600.38,-315.1 571.25,-287.04 540,-275 444.82,-238.34 187.97,-253.3 70.1,-238.85"/>
<polygon fill="#63b8ff" stroke="#63b8ff" points="70.54,-235.37 60.16,-237.5 69.6,-242.31 70.54,-235.37"/>
</a>
</g>
</g>
<!-- Node11 -->
<g id="Node000011" class="node">
<title>Node11</title>
<g id="a_Node000011"><a xlink:title=" ">
<polygon fill="#e0e0e0" stroke="#999999" points="1852,-129 1804,-129 1804,-110 1852,-110 1852,-129"/>
<text text-anchor="middle" x="1828" y="-117" font-family="Helvetica,sans-Serif" font-size="10.00">mutex</text>
</a>
</g>
</g>
<!-- Node10&#45;&gt;Node11 -->
<g id="edge10_Node000010_Node000011" class="edge">
<title>Node10&#45;&gt;Node11</title>
<g id="a_edge10_Node000010_Node000011"><a xlink:title=" ">
<path fill="none" stroke="#63b8ff" d="M1717.21,-164.98C1738.73,-156.34 1772.28,-142.87 1796.83,-133.02"/>
<polygon fill="#63b8ff" stroke="#63b8ff" points="1798.43,-136.14 1806.41,-129.17 1795.82,-129.65 1798.43,-136.14"/>
</a>
</g>
</g>
<!-- Node12 -->
<g id="Node000012" class="node">
<title>Node12</title>
<g id="a_Node000012"><a xlink:title=" ">
<polygon fill="#e0e0e0" stroke="#999999" points="1617.5,-74 1570.5,-74 1570.5,-55 1617.5,-55 1617.5,-74"/>
<text text-anchor="middle" x="1594" y="-62" font-family="Helvetica,sans-Serif" font-size="10.00">queue</text>
</a>
</g>
</g>
<!-- Node10&#45;&gt;Node12 -->
<g id="edge11_Node000010_Node000012" class="edge">
<title>Node10&#45;&gt;Node12</title>
<g id="a_edge11_Node000010_Node000012"><a xlink:title=" ">
<path fill="none" stroke="#63b8ff" d="M1715.33,-164.84C1738.77,-153.13 1773.24,-131.26 1757,-110 1741.38,-89.54 1670.55,-76.22 1627.56,-69.86"/>
<polygon fill="#63b8ff" stroke="#63b8ff" points="1627.94,-66.38 1617.54,-68.43 1626.95,-73.31 1627.94,-66.38"/>
</a>
</g>
</g>
<!-- Node14 -->
<g id="Node000014" class="node">
<title>Node14</title>
<g id="a_Node000014"><a xlink:title=" ">
<polygon fill="#e0e0e0" stroke="#999999" points="1136,-239 1092,-239 1092,-220 1136,-220 1136,-239"/>
<text text-anchor="middle" x="1114" y="-227" font-family="Helvetica,sans-Serif" font-size="10.00">string</text>
</a>
</g>
</g>
<!-- Node13&#45;&gt;Node14 -->
<g id="edge13_Node000013_Node000014" class="edge">
<title>Node13&#45;&gt;Node14</title>
<g id="a_edge13_Node000013_Node000014"><a xlink:title=" ">
<path fill="none" stroke="#63b8ff" d="M1001.07,-329.66C1021.98,-311.3 1070.37,-268.81 1096.5,-245.87"/>
<polygon fill="#63b8ff" stroke="#63b8ff" points="1098.93,-248.39 1104.14,-239.16 1094.32,-243.13 1098.93,-248.39"/>
</a>
</g>
</g>
<!-- Node15 -->
<g id="Node000015" class="node">
<title>Node15</title>
<g id="a_Node000015"><a xlink:href="_base_component_8hpp.html" target="_top" xlink:title=" ">
<polygon fill="white" stroke="#666666" points="260,-239 78,-239 78,-220 260,-220 260,-239"/>
<text text-anchor="middle" x="169" y="-227" font-family="Helvetica,sans-Serif" font-size="10.00">Components/BaseComponent.hpp</text>
</a>
</g>
</g>
<!-- Node13&#45;&gt;Node15 -->
<g id="edge14_Node000013_Node000015" class="edge">
<title>Node13&#45;&gt;Node15</title>
<g id="a_edge14_Node000013_Node000015"><a xlink:title=" ">
<path fill="none" stroke="#63b8ff" d="M886.66,-330C831.19,-323.59 762.39,-312.59 703,-294 684.6,-288.24 682.57,-280.17 664,-275 654.62,-272.39 412.27,-251.33 270.22,-239.14"/>
<polygon fill="#63b8ff" stroke="#63b8ff" points="270.43,-235.64 260.17,-238.28 269.84,-242.62 270.43,-235.64"/>
</a>
</g>
</g>
<!-- Node13&#45;&gt;Node18 -->
<g id="edge17_Node000013_Node000018" class="edge">
<title>Node13&#45;&gt;Node18</title>
<g id="a_edge17_Node000013_Node000018"><a xlink:title=" ">
<path fill="none" stroke="#63b8ff" d="M962.88,-329.98C933.38,-321.05 886.81,-306.94 854.03,-297.02"/>
<polygon fill="#63b8ff" stroke="#63b8ff" points="854.92,-293.63 844.34,-294.08 852.89,-300.33 854.92,-293.63"/>
</a>
</g>
</g>
<!-- Node34 -->
<g id="Node000034" class="node">
<title>Node34</title>
<g id="a_Node000034"><a xlink:href="_a_a_b_b_8hpp.html" target="_top" xlink:title=" ">
<polygon fill="white" stroke="#666666" points="1206,-294 1114,-294 1114,-275 1206,-275 1206,-294"/>
<text text-anchor="middle" x="1160" y="-282" font-family="Helvetica,sans-Serif" font-size="10.00">Math/AABB.hpp</text>
</a>
</g>
</g>
<!-- Node13&#45;&gt;Node34 -->
<g id="edge46_Node000013_Node000034" class="edge">
<title>Node13&#45;&gt;Node34</title>
<g id="a_edge46_Node000013_Node000034"><a xlink:title=" ">
<path fill="none" stroke="#63b8ff" d="M1018.15,-329.98C1046.53,-321.09 1091.23,-307.07 1122.86,-297.15"/>
<polygon fill="#63b8ff" stroke="#63b8ff" points="1124.14,-300.41 1132.63,-294.08 1122.05,-293.73 1124.14,-300.41"/>
</a>
</g>
</g>
<!-- Node16 -->
<g id="Node000016" class="node">
<title>Node16</title>
<g id="a_Node000016"><a xlink:href="_types_8hpp.html" target="_top" xlink:title=" ">
<polygon fill="white" stroke="#666666" points="225.5,-184 112.5,-184 112.5,-165 225.5,-165 225.5,-184"/>
<text text-anchor="middle" x="169" y="-172" font-family="Helvetica,sans-Serif" font-size="10.00">Common/Types.hpp</text>
</a>
</g>
</g>
<!-- Node15&#45;&gt;Node16 -->
<g id="edge15_Node000015_Node000016" class="edge">
<title>Node15&#45;&gt;Node16</title>
<g id="a_edge15_Node000015_Node000016"><a xlink:title=" ">
<path fill="none" stroke="#63b8ff" d="M169,-219.75C169,-212.8 169,-202.85 169,-194.13"/>
<polygon fill="#63b8ff" stroke="#63b8ff" points="172.5,-194.09 169,-184.09 165.5,-194.09 172.5,-194.09"/>
</a>
</g>
</g>
<!-- Node17 -->
<g id="Node000017" class="node">
<title>Node17</title>
<g id="a_Node000017"><a xlink:title=" ">
<polygon fill="#e0e0e0" stroke="#999999" points="203,-129 135,-129 135,-110 203,-110 203,-129"/>
<text text-anchor="middle" x="169" y="-117" font-family="Helvetica,sans-Serif" font-size="10.00">filesystem</text>
</a>
</g>
</g>
<!-- Node16&#45;&gt;Node17 -->
<g id="edge16_Node000016_Node000017" class="edge">
<title>Node16&#45;&gt;Node17</title>
<g id="a_edge16_Node000016_Node000017"><a xlink:title=" ">
<path fill="none" stroke="#63b8ff" d="M169,-164.75C169,-157.8 169,-147.85 169,-139.13"/>
<polygon fill="#63b8ff" stroke="#63b8ff" points="172.5,-139.09 169,-129.09 165.5,-139.09 172.5,-139.09"/>
</a>
</g>
</g>
<!-- Node18&#45;&gt;Node5 -->
<g id="edge20_Node000018_Node000005" class="edge">
<title>Node18&#45;&gt;Node5</title>
<g id="a_edge20_Node000018_Node000005"><a xlink:title=" ">
<path fill="none" stroke="#63b8ff" d="M712.47,-275.5C596.39,-266.02 422.95,-250.11 413,-239 407.37,-232.71 407.27,-226.2 413,-220 447.08,-183.09 790.68,-176.78 920.6,-175.71"/>
<polygon fill="#63b8ff" stroke="#63b8ff" points="920.7,-179.21 930.67,-175.64 920.65,-172.21 920.7,-179.21"/>
</a>
</g>
</g>
<!-- Node18&#45;&gt;Node9 -->
<g id="edge19_Node000018_Node000009" class="edge">
<title>Node18&#45;&gt;Node9</title>
<g id="a_edge19_Node000018_Node000009"><a xlink:title=" ">
<path fill="none" stroke="#63b8ff" d="M712.42,-277.54C524.36,-266.69 140.33,-244.39 70.17,-238.54"/>
<polygon fill="#63b8ff" stroke="#63b8ff" points="70.45,-235.05 60.15,-237.56 69.76,-242.02 70.45,-235.05"/>
</a>
</g>
</g>
<!-- Node18&#45;&gt;Node14 -->
<g id="edge18_Node000018_Node000014" class="edge">
<title>Node18&#45;&gt;Node14</title>
<g id="a_edge18_Node000018_Node000014"><a xlink:title=" ">
<path fill="none" stroke="#63b8ff" d="M878.12,-274.99C930.12,-267.44 1006.45,-255.4 1081.6,-239.12"/>
<polygon fill="#63b8ff" stroke="#63b8ff" points="1082.7,-242.46 1091.72,-236.9 1081.2,-235.63 1082.7,-242.46"/>
</a>
</g>
</g>
<!-- Node18&#45;&gt;Node15 -->
<g id="edge45_Node000018_Node000015" class="edge">
<title>Node18&#45;&gt;Node15</title>
<g id="a_edge45_Node000018_Node000015"><a xlink:title=" ">
<path fill="none" stroke="#63b8ff" d="M712.4,-275.18C604.64,-266.51 430.73,-252.44 270.09,-239.09"/>
<polygon fill="#63b8ff" stroke="#63b8ff" points="270.27,-235.59 260.02,-238.25 269.69,-242.57 270.27,-235.59"/>
</a>
</g>
</g>
<!-- Node19 -->
<g id="Node000019" class="node">
<title>Node19</title>
<g id="a_Node000019"><a xlink:title=" ">
<polygon fill="#e0e0e0" stroke="#999999" points="702,-239 572,-239 572,-220 702,-220 702,-239"/>
<text text-anchor="middle" x="637" y="-227" font-family="Helvetica,sans-Serif" font-size="10.00">glm/gtc/quaternion.hpp</text>
</a>
</g>
</g>
<!-- Node18&#45;&gt;Node19 -->
<g id="edge21_Node000018_Node000019" class="edge">
<title>Node18&#45;&gt;Node19</title>
<g id="a_edge21_Node000018_Node000019"><a xlink:title=" ">
<path fill="none" stroke="#63b8ff" d="M787.24,-274.98C757.06,-266.05 709.43,-251.94 675.9,-242.02"/>
<polygon fill="#63b8ff" stroke="#63b8ff" points="676.57,-238.57 665.98,-239.08 674.58,-245.28 676.57,-238.57"/>
</a>
</g>
</g>
<!-- Node20 -->
<g id="Node000020" class="node">
<title>Node20</title>
<g id="a_Node000020"><a xlink:title=" ">
<polygon fill="#e0e0e0" stroke="#999999" points="883.5,-239 720.5,-239 720.5,-220 883.5,-220 883.5,-239"/>
<text text-anchor="middle" x="802" y="-227" font-family="Helvetica,sans-Serif" font-size="10.00">glm/gtc/matrix_transform.hpp</text>
</a>
</g>
</g>
<!-- Node18&#45;&gt;Node20 -->
<g id="edge22_Node000018_Node000020" class="edge">
<title>Node18&#45;&gt;Node20</title>
<g id="a_edge22_Node000018_Node000020"><a xlink:title=" ">
<path fill="none" stroke="#63b8ff" d="M813.69,-274.75C811.83,-267.72 809.16,-257.62 806.85,-248.84"/>
<polygon fill="#63b8ff" stroke="#63b8ff" points="810.21,-247.86 804.27,-239.09 803.44,-249.65 810.21,-247.86"/>
</a>
</g>
</g>
<!-- Node21 -->
<g id="Node000021" class="node">
<title>Node21</title>
<g id="a_Node000021"><a xlink:title=" ">
<polygon fill="#e0e0e0" stroke="#999999" points="1074,-239 902,-239 902,-220 1074,-220 1074,-239"/>
<text text-anchor="middle" x="988" y="-227" font-family="Helvetica,sans-Serif" font-size="10.00">glm/gtx/matrix_decompose.hpp</text>
</a>
</g>
</g>
<!-- Node18&#45;&gt;Node21 -->
<g id="edge23_Node000018_Node000021" class="edge">
<title>Node18&#45;&gt;Node21</title>
<g id="a_edge23_Node000018_Node000021"><a xlink:title=" ">
<path fill="none" stroke="#63b8ff" d="M843.63,-274.98C872.51,-266.09 918.01,-252.07 950.2,-242.15"/>
<polygon fill="#63b8ff" stroke="#63b8ff" points="951.62,-245.37 960.15,-239.08 949.56,-238.68 951.62,-245.37"/>
</a>
</g>
</g>
<!-- Node22 -->
<g id="Node000022" class="node">
<title>Node22</title>
<g id="a_Node000022"><a xlink:title=" ">
<polygon fill="#e0e0e0" stroke="#999999" points="553.5,-239 422.5,-239 422.5,-220 553.5,-220 553.5,-239"/>
<text text-anchor="middle" x="488" y="-227" font-family="Helvetica,sans-Serif" font-size="10.00">glm/gtx/string_cast.hpp</text>
</a>
</g>
</g>
<!-- Node18&#45;&gt;Node22 -->
<g id="edge24_Node000018_Node000022" class="edge">
<title>Node18&#45;&gt;Node22</title>
<g id="a_edge24_Node000018_Node000022"><a xlink:title=" ">
<path fill="none" stroke="#63b8ff" d="M763.3,-274.98C705.41,-265.63 612.47,-250.61 550.83,-240.65"/>
<polygon fill="#63b8ff" stroke="#63b8ff" points="551.27,-237.18 540.84,-239.04 550.15,-244.09 551.27,-237.18"/>
</a>
</g>
</g>
<!-- Node23 -->
<g id="Node000023" class="node">
<title>Node23</title>
<g id="a_Node000023"><a xlink:href="_math_2_utils_8hpp.html" target="_top" xlink:title=" ">
<polygon fill="white" stroke="#666666" points="366,-239 278,-239 278,-220 366,-220 366,-239"/>
<text text-anchor="middle" x="322" y="-227" font-family="Helvetica,sans-Serif" font-size="10.00">Math/Utils.hpp</text>
</a>
</g>
</g>
<!-- Node18&#45;&gt;Node23 -->
<g id="edge25_Node000018_Node000023" class="edge">
<title>Node18&#45;&gt;Node23</title>
<g id="a_edge25_Node000018_Node000023"><a xlink:title=" ">
<path fill="none" stroke="#63b8ff" d="M720.61,-274.98C632.18,-266.79 497.04,-253.54 380,-239 378.89,-238.86 377.77,-238.72 376.64,-238.57"/>
<polygon fill="#63b8ff" stroke="#63b8ff" points="376.68,-235.05 366.31,-237.2 375.76,-241.99 376.68,-235.05"/>
</a>
</g>
</g>
<!-- Node18&#45;&gt;Node24 -->
<g id="edge27_Node000018_Node000024" class="edge">
<title>Node18&#45;&gt;Node24</title>
<g id="a_edge27_Node000018_Node000024"><a xlink:title=" ">
<path fill="none" stroke="#63b8ff" d="M912.88,-274.98C1039.02,-263.9 1255.63,-244.86 1359.73,-235.71"/>
<polygon fill="#63b8ff" stroke="#63b8ff" points="1360.1,-239.19 1369.75,-234.83 1359.48,-232.22 1360.1,-239.19"/>
</a>
</g>
</g>
<!-- Node23&#45;&gt;Node5 -->
<g id="edge26_Node000023_Node000005" class="edge">
<title>Node23&#45;&gt;Node5</title>
<g id="a_edge26_Node000023_Node000005"><a xlink:title=" ">
<path fill="none" stroke="#63b8ff" d="M366.29,-221.68C370.92,-221.07 375.55,-220.49 380,-220 579.92,-197.84 819.21,-183.54 920.66,-178.05"/>
<polygon fill="#63b8ff" stroke="#63b8ff" points="921.11,-181.53 930.91,-177.5 920.73,-174.54 921.11,-181.53"/>
</a>
</g>
</g>
<!-- Node24&#45;&gt;Node10 -->
<g id="edge29_Node000024_Node000010" class="edge">
<title>Node24&#45;&gt;Node10</title>
<g id="a_edge29_Node000024_Node000010"><a xlink:title=" ">
<path fill="none" stroke="#63b8ff" d="M1463.5,-219.98C1511.82,-210.74 1589.04,-195.97 1641.09,-186.01"/>
<polygon fill="#63b8ff" stroke="#63b8ff" points="1641.98,-189.4 1651.15,-184.08 1640.67,-182.52 1641.98,-189.4"/>
</a>
</g>
</g>
<!-- Node25 -->
<g id="Node000025" class="node">
<title>Node25</title>
<g id="a_Node000025"><a xlink:title=" ">
<polygon fill="#e0e0e0" stroke="#999999" points="1447,-129 1361,-129 1361,-110 1447,-110 1447,-129"/>
<text text-anchor="middle" x="1404" y="-117" font-family="Helvetica,sans-Serif" font-size="10.00">unordered_set</text>
</a>
</g>
</g>
<!-- Node24&#45;&gt;Node25 -->
<g id="edge28_Node000024_Node000025" class="edge">
<title>Node24&#45;&gt;Node25</title>
<g id="a_edge28_Node000024_Node000025"><a xlink:title=" ">
<path fill="none" stroke="#63b8ff" d="M1417.77,-219.66C1415.34,-202.17 1409.88,-162.8 1406.61,-139.27"/>
<polygon fill="#63b8ff" stroke="#63b8ff" points="1410.05,-138.58 1405.2,-129.16 1403.11,-139.54 1410.05,-138.58"/>
</a>
</g>
</g>
<!-- Node26 -->
<g id="Node000026" class="node">
<title>Node26</title>
<g id="a_Node000026"><a xlink:href="_entity_8hpp.html" target="_top" xlink:title=" ">
<polygon fill="white" stroke="#666666" points="1370,-74 1284,-74 1284,-55 1370,-55 1370,-74"/>
<text text-anchor="middle" x="1327" y="-62" font-family="Helvetica,sans-Serif" font-size="10.00">ECS/Entity.hpp</text>
</a>
</g>
</g>
<!-- Node24&#45;&gt;Node26 -->
<g id="edge30_Node000024_Node000026" class="edge">
<title>Node24&#45;&gt;Node26</title>
<g id="a_edge30_Node000024_Node000026"><a xlink:title=" ">
<path fill="none" stroke="#63b8ff" d="M1412.22,-219.85C1399.28,-203.07 1370.7,-164.58 1352,-129 1344.34,-114.42 1337.62,-96.94 1333.09,-84.01"/>
<polygon fill="#63b8ff" stroke="#63b8ff" points="1336.35,-82.74 1329.82,-74.39 1329.72,-84.99 1336.35,-82.74"/>
</a>
</g>
</g>
<!-- Node28 -->
<g id="Node000028" class="node">
<title>Node28</title>
<g id="a_Node000028"><a xlink:href="_entity_hierarchy_8hpp.html" target="_top" xlink:title=" ">
<polygon fill="white" stroke="#666666" points="1581,-184 1447,-184 1447,-165 1581,-165 1581,-184"/>
<text text-anchor="middle" x="1514" y="-172" font-family="Helvetica,sans-Serif" font-size="10.00">ECS/EntityHierarchy.hpp</text>
</a>
</g>
</g>
<!-- Node24&#45;&gt;Node28 -->
<g id="edge32_Node000024_Node000028" class="edge">
<title>Node24&#45;&gt;Node28</title>
<g id="a_edge32_Node000024_Node000028"><a xlink:title=" ">
<path fill="none" stroke="#63b8ff" d="M1434.26,-219.98C1449.13,-211.69 1471.98,-198.94 1489.42,-189.22"/>
<polygon fill="#63b8ff" stroke="#63b8ff" points="1491.43,-192.1 1498.46,-184.17 1488.02,-185.99 1491.43,-192.1"/>
</a>
</g>
</g>
<!-- Node31 -->
<g id="Node000031" class="node">
<title>Node31</title>
<g id="a_Node000031"><a xlink:href="_entity_provider_8hpp.html" target="_top" xlink:title="Manages a pool of unused entity identifiers and provides mechanisms for requesting and removing them.">
<polygon fill="white" stroke="#666666" points="1305,-129 1177,-129 1177,-110 1305,-110 1305,-129"/>
<text text-anchor="middle" x="1241" y="-117" font-family="Helvetica,sans-Serif" font-size="10.00">ECS/EntityProvider.hpp</text>
</a>
</g>
</g>
<!-- Node24&#45;&gt;Node31 -->
<g id="edge38_Node000024_Node000031" class="edge">
<title>Node24&#45;&gt;Node31</title>
<g id="a_edge38_Node000024_Node000031"><a xlink:title=" ">
<path fill="none" stroke="#63b8ff" d="M1371.08,-220C1319.74,-210.4 1244.44,-194.73 1236,-184 1226.09,-171.39 1229.01,-152.69 1233.41,-138.84"/>
<polygon fill="#63b8ff" stroke="#63b8ff" points="1236.72,-139.98 1236.87,-129.38 1230.15,-137.57 1236.72,-139.98"/>
</a>
</g>
</g>
<!-- Node32 -->
<g id="Node000032" class="node">
<title>Node32</title>
<g id="a_Node000032"><a xlink:href="_singleton_component_8hpp.html" target="_top" xlink:title=" ">
<polygon fill="white" stroke="#666666" points="1188.5,-184 1027.5,-184 1027.5,-165 1188.5,-165 1188.5,-184"/>
<text text-anchor="middle" x="1108" y="-172" font-family="Helvetica,sans-Serif" font-size="10.00">ECS/SingletonComponent.hpp</text>
</a>
</g>
</g>
<!-- Node24&#45;&gt;Node32 -->
<g id="edge42_Node000024_Node000032" class="edge">
<title>Node24&#45;&gt;Node32</title>
<g id="a_edge42_Node000024_Node000032"><a xlink:title=" ">
<path fill="none" stroke="#63b8ff" d="M1369.72,-220.1C1315,-210.78 1226.65,-195.72 1167.95,-185.72"/>
<polygon fill="#63b8ff" stroke="#63b8ff" points="1168.52,-182.26 1158.08,-184.03 1167.35,-189.16 1168.52,-182.26"/>
</a>
</g>
</g>
<!-- Node33 -->
<g id="Node000033" class="node">
<title>Node33</title>
<g id="a_Node000033"><a xlink:href="_sparse_set_8hpp.html" target="_top" xlink:title=" ">
<polygon fill="white" stroke="#666666" points="1353,-184 1245,-184 1245,-165 1353,-165 1353,-184"/>
<text text-anchor="middle" x="1299" y="-172" font-family="Helvetica,sans-Serif" font-size="10.00">ECS/SparseSet.hpp</text>
</a>
</g>
</g>
<!-- Node24&#45;&gt;Node33 -->
<g id="edge43_Node000024_Node000033" class="edge">
<title>Node24&#45;&gt;Node33</title>
<g id="a_edge43_Node000024_Node000033"><a xlink:title=" ">
<path fill="none" stroke="#63b8ff" d="M1399.72,-219.98C1380.33,-211.42 1350.19,-198.11 1327.93,-188.28"/>
<polygon fill="#63b8ff" stroke="#63b8ff" points="1329.19,-185.01 1318.63,-184.17 1326.36,-191.41 1329.19,-185.01"/>
</a>
</g>
</g>
<!-- Node27 -->
<g id="Node000027" class="node">
<title>Node27</title>
<g id="a_Node000027"><a xlink:title=" ">
<polygon fill="#e0e0e0" stroke="#999999" points="1315.5,-19 1262.5,-19 1262.5,0 1315.5,0 1315.5,-19"/>
<text text-anchor="middle" x="1289" y="-7" font-family="Helvetica,sans-Serif" font-size="10.00">stdlib.h</text>
</a>
</g>
</g>
<!-- Node26&#45;&gt;Node27 -->
<g id="edge31_Node000026_Node000027" class="edge">
<title>Node26&#45;&gt;Node27</title>
<g id="a_edge31_Node000026_Node000027"><a xlink:title=" ">
<path fill="none" stroke="#63b8ff" d="M1320.73,-54.75C1315.41,-47.34 1307.64,-36.5 1301.12,-27.41"/>
<polygon fill="#63b8ff" stroke="#63b8ff" points="1303.83,-25.18 1295.16,-19.09 1298.14,-29.26 1303.83,-25.18"/>
</a>
</g>
</g>
<!-- Node28&#45;&gt;Node3 -->
<g id="edge33_Node000028_Node000003" class="edge">
<title>Node28&#45;&gt;Node3</title>
<g id="a_edge33_Node000028_Node000003"><a xlink:title=" ">
<path fill="none" stroke="#63b8ff" d="M1546.29,-164.98C1580.62,-155.93 1635.06,-141.58 1672.77,-131.64"/>
<polygon fill="#63b8ff" stroke="#63b8ff" points="1673.68,-135.02 1682.45,-129.08 1671.89,-128.25 1673.68,-135.02"/>
</a>
</g>
</g>
<!-- Node28&#45;&gt;Node25 -->
<g id="edge36_Node000028_Node000025" class="edge">
<title>Node28&#45;&gt;Node25</title>
<g id="a_edge36_Node000028_Node000025"><a xlink:title=" ">
<path fill="none" stroke="#63b8ff" d="M1496.33,-164.98C1478.71,-156.5 1451.42,-143.35 1431.07,-133.54"/>
<polygon fill="#63b8ff" stroke="#63b8ff" points="1432.52,-130.36 1421.99,-129.17 1429.48,-136.66 1432.52,-130.36"/>
</a>
</g>
</g>
<!-- Node28&#45;&gt;Node26 -->
<g id="edge37_Node000028_Node000026" class="edge">
<title>Node28&#45;&gt;Node26</title>
<g id="a_edge37_Node000028_Node000026"><a xlink:title=" ">
<path fill="none" stroke="#63b8ff" d="M1508.27,-164.84C1498.88,-151.29 1478.96,-125.09 1456,-110 1432.23,-94.38 1402.38,-83.62 1377.38,-76.6"/>
<polygon fill="#63b8ff" stroke="#63b8ff" points="1378.28,-73.22 1367.71,-74 1376.46,-79.98 1378.28,-73.22"/>
</a>
</g>
</g>
<!-- Node29 -->
<g id="Node000029" class="node">
<title>Node29</title>
<g id="a_Node000029"><a xlink:title=" ">
<polygon fill="#e0e0e0" stroke="#999999" points="1553,-129 1503,-129 1503,-110 1553,-110 1553,-129"/>
<text text-anchor="middle" x="1528" y="-117" font-family="Helvetica,sans-Serif" font-size="10.00">ranges</text>
</a>
</g>
</g>
<!-- Node28&#45;&gt;Node29 -->
<g id="edge34_Node000028_Node000029" class="edge">
<title>Node28&#45;&gt;Node29</title>
<g id="a_edge34_Node000028_Node000029"><a xlink:title=" ">
<path fill="none" stroke="#63b8ff" d="M1516.31,-164.75C1518.17,-157.72 1520.84,-147.62 1523.15,-138.84"/>
<polygon fill="#63b8ff" stroke="#63b8ff" points="1526.56,-139.65 1525.73,-129.09 1519.79,-137.86 1526.56,-139.65"/>
</a>
</g>
</g>
<!-- Node30 -->
<g id="Node000030" class="node">
<title>Node30</title>
<g id="a_Node000030"><a xlink:title=" ">
<polygon fill="#e0e0e0" stroke="#999999" points="1664.5,-129 1571.5,-129 1571.5,-110 1664.5,-110 1664.5,-129"/>
<text text-anchor="middle" x="1618" y="-117" font-family="Helvetica,sans-Serif" font-size="10.00">unordered_map</text>
</a>
</g>
</g>
<!-- Node28&#45;&gt;Node30 -->
<g id="edge35_Node000028_Node000030" class="edge">
<title>Node28&#45;&gt;Node30</title>
<g id="a_edge35_Node000028_Node000030"><a xlink:title=" ">
<path fill="none" stroke="#63b8ff" d="M1530.71,-164.98C1547.21,-156.57 1572.7,-143.59 1591.88,-133.81"/>
<polygon fill="#63b8ff" stroke="#63b8ff" points="1593.67,-136.83 1600.99,-129.17 1590.49,-130.59 1593.67,-136.83"/>
</a>
</g>
</g>
<!-- Node31&#45;&gt;Node12 -->
<g id="edge40_Node000031_Node000012" class="edge">
<title>Node31&#45;&gt;Node12</title>
<g id="a_edge40_Node000031_Node000012"><a xlink:title=" ">
<path fill="none" stroke="#63b8ff" d="M1297.72,-109.98C1371.81,-98.86 1499.22,-79.73 1559.93,-70.62"/>
<polygon fill="#63b8ff" stroke="#63b8ff" points="1560.74,-74.03 1570.11,-69.09 1559.7,-67.11 1560.74,-74.03"/>
</a>
</g>
</g>
<!-- Node31&#45;&gt;Node26 -->
<g id="edge41_Node000031_Node000026" class="edge">
<title>Node31&#45;&gt;Node26</title>
<g id="a_edge41_Node000031_Node000026"><a xlink:title=" ">
<path fill="none" stroke="#63b8ff" d="M1254.82,-109.98C1268.15,-101.77 1288.58,-89.18 1304.31,-79.49"/>
<polygon fill="#63b8ff" stroke="#63b8ff" points="1306.25,-82.4 1312.93,-74.17 1302.58,-76.44 1306.25,-82.4"/>
</a>
</g>
</g>
<!-- Node31&#45;&gt;Node27 -->
<g id="edge39_Node000031_Node000027" class="edge">
<title>Node31&#45;&gt;Node27</title>
<g id="a_edge39_Node000031_Node000027"><a xlink:title=" ">
<path fill="none" stroke="#63b8ff" d="M1244.93,-109.66C1252.81,-91.93 1270.68,-51.73 1281.08,-28.32"/>
<polygon fill="#63b8ff" stroke="#63b8ff" points="1284.29,-29.72 1285.15,-19.16 1277.89,-26.87 1284.29,-29.72"/>
</a>
</g>
</g>
<!-- Node33&#45;&gt;Node31 -->
<g id="edge44_Node000033_Node000031" class="edge">
<title>Node33&#45;&gt;Node31</title>
<g id="a_edge44_Node000033_Node000031"><a xlink:title=" ">
<path fill="none" stroke="#63b8ff" d="M1289.68,-164.98C1281.19,-157.23 1268.44,-145.58 1258.12,-136.14"/>
<polygon fill="#63b8ff" stroke="#63b8ff" points="1260.23,-133.33 1250.49,-129.17 1255.51,-138.5 1260.23,-133.33"/>
</a>
</g>
</g>
<!-- Node34&#45;&gt;Node5 -->
<g id="edge47_Node000034_Node000005" class="edge">
<title>Node34&#45;&gt;Node5</title>
<g id="a_edge47_Node000034_Node000005"><a xlink:title=" ">
<path fill="none" stroke="#63b8ff" d="M1160.58,-274.78C1160.97,-261.16 1159.61,-234.86 1145,-220 1136.05,-210.9 1067.62,-195.36 1019.04,-185.26"/>
<polygon fill="#63b8ff" stroke="#63b8ff" points="1019.5,-181.78 1009,-183.19 1018.09,-188.64 1019.5,-181.78"/>
</a>
</g>
</g>
<!-- Node35 -->
<g id="Node000035" class="node">
<title>Node35</title>
<g id="a_Node000035"><a xlink:href="_ray_8hpp.html" target="_top" xlink:title=" ">
<polygon fill="white" stroke="#666666" points="1275.5,-239 1192.5,-239 1192.5,-220 1275.5,-220 1275.5,-239"/>
<text text-anchor="middle" x="1234" y="-227" font-family="Helvetica,sans-Serif" font-size="10.00">Math/Ray.hpp</text>
</a>
</g>
</g>
<!-- Node34&#45;&gt;Node35 -->
<g id="edge48_Node000034_Node000035" class="edge">
<title>Node34&#45;&gt;Node35</title>
<g id="a_edge48_Node000034_Node000035"><a xlink:title=" ">
<path fill="none" stroke="#63b8ff" d="M1171.89,-274.98C1183.15,-266.92 1200.29,-254.65 1213.71,-245.03"/>
<polygon fill="#63b8ff" stroke="#63b8ff" points="1215.8,-247.84 1221.89,-239.17 1211.73,-242.15 1215.8,-247.84"/>
</a>
</g>
</g>
<!-- Node35&#45;&gt;Node5 -->
<g id="edge49_Node000035_Node000005" class="edge">
<title>Node35&#45;&gt;Node5</title>
<g id="a_edge49_Node000035_Node000005"><a xlink:title=" ">
<path fill="none" stroke="#63b8ff" d="M1192.46,-220.16C1145.46,-210.72 1068.97,-195.37 1019.06,-185.35"/>
<polygon fill="#63b8ff" stroke="#63b8ff" points="1019.64,-181.9 1009.15,-183.36 1018.26,-188.76 1019.64,-181.9"/>
</a>
</g>
</g>
<!-- Node36&#45;&gt;Node5 -->
<g id="edge51_Node000036_Node000005" class="edge">
<title>Node36&#45;&gt;Node5</title>
<g id="a_edge51_Node000036_Node000005"><a xlink:title=" ">
<path fill="none" stroke="#63b8ff" d="M1227.14,-329.74C1254.39,-309.06 1315.64,-256.21 1284,-220 1246.59,-177.19 1092.39,-191.64 1019.2,-183.86"/>
<polygon fill="#63b8ff" stroke="#63b8ff" points="1019.38,-180.36 1009.01,-182.55 1018.48,-187.3 1019.38,-180.36"/>
</a>
</g>
</g>
<!-- Node36&#45;&gt;Node18 -->
<g id="edge52_Node000036_Node000018" class="edge">
<title>Node36&#45;&gt;Node18</title>
<g id="a_edge52_Node000036_Node000018"><a xlink:title=" ">
<path fill="none" stroke="#63b8ff" d="M1150.89,-329.98C1079.89,-320.55 965.55,-305.36 890.59,-295.41"/>
<polygon fill="#63b8ff" stroke="#63b8ff" points="890.65,-291.89 880.28,-294.04 889.73,-298.82 890.65,-291.89"/>
</a>
</g>
</g>
<!-- Node36&#45;&gt;Node35 -->
<g id="edge53_Node000036_Node000035" class="edge">
<title>Node36&#45;&gt;Node35</title>
<g id="a_edge53_Node000036_Node000035"><a xlink:title=" ">
<path fill="none" stroke="#63b8ff" d="M1216.55,-329.66C1219.63,-312.17 1226.56,-272.8 1230.7,-249.27"/>
<polygon fill="#63b8ff" stroke="#63b8ff" points="1234.19,-249.61 1232.48,-239.16 1227.3,-248.4 1234.19,-249.61"/>
</a>
</g>
</g>
<!-- Node37&#45;&gt;Node11 -->
<g id="edge59_Node000037_Node000011" class="edge">
<title>Node37&#45;&gt;Node11</title>
<g id="a_edge59_Node000037_Node000011"><a xlink:title=" ">
<path fill="none" stroke="#63b8ff" d="M1797.2,-274.81C1797.59,-262.53 1798.73,-239.41 1802,-220 1806.86,-191.18 1816.14,-158.54 1822.19,-138.74"/>
<polygon fill="#63b8ff" stroke="#63b8ff" points="1825.54,-139.76 1825.18,-129.17 1818.86,-137.68 1825.54,-139.76"/>
</a>
</g>
</g>
<!-- Node37&#45;&gt;Node14 -->
<g id="edge61_Node000037_Node000014" class="edge">
<title>Node37&#45;&gt;Node14</title>
<g id="a_edge61_Node000037_Node000014"><a xlink:title=" ">
<path fill="none" stroke="#63b8ff" d="M1737.21,-280.17C1627.32,-273.82 1385.9,-258.84 1183,-239 1170.95,-237.82 1157.75,-236.26 1146.15,-234.8"/>
<polygon fill="#63b8ff" stroke="#63b8ff" points="1146.4,-231.3 1136.03,-233.5 1145.5,-238.25 1146.4,-231.3"/>
</a>
</g>
</g>
<!-- Node38 -->
<g id="Node000038" class="node">
<title>Node38</title>
<g id="a_Node000038"><a xlink:title=" ">
<polygon fill="#e0e0e0" stroke="#999999" points="1861,-239 1811,-239 1811,-220 1861,-220 1861,-239"/>
<text text-anchor="middle" x="1836" y="-227" font-family="Helvetica,sans-Serif" font-size="10.00">chrono</text>
</a>
</g>
</g>
<!-- Node37&#45;&gt;Node38 -->
<g id="edge57_Node000037_Node000038" class="edge">
<title>Node37&#45;&gt;Node38</title>
<g id="a_edge57_Node000037_Node000038"><a xlink:title=" ">
<path fill="none" stroke="#63b8ff" d="M1803.44,-274.75C1808.89,-267.34 1816.86,-256.5 1823.56,-247.41"/>
<polygon fill="#63b8ff" stroke="#63b8ff" points="1826.57,-249.22 1829.68,-239.09 1820.93,-245.07 1826.57,-249.22"/>
</a>
</g>
</g>
<!-- Node39 -->
<g id="Node000039" class="node">
<title>Node39</title>
<g id="a_Node000039"><a xlink:title=" ">
<polygon fill="#e0e0e0" stroke="#999999" points="1927,-239 1879,-239 1879,-220 1927,-220 1927,-239"/>
<text text-anchor="middle" x="1903" y="-227" font-family="Helvetica,sans-Serif" font-size="10.00">thread</text>
</a>
</g>
</g>
<!-- Node37&#45;&gt;Node39 -->
<g id="edge58_Node000037_Node000039" class="edge">
<title>Node37&#45;&gt;Node39</title>
<g id="a_edge58_Node000037_Node000039"><a xlink:title=" ">
<path fill="none" stroke="#63b8ff" d="M1814.03,-274.98C1830.93,-266.54 1857.06,-253.47 1876.64,-243.68"/>
<polygon fill="#63b8ff" stroke="#63b8ff" points="1878.28,-246.77 1885.66,-239.17 1875.15,-240.51 1878.28,-246.77"/>
</a>
</g>
</g>
<!-- Node40 -->
<g id="Node000040" class="node">
<title>Node40</title>
<g id="a_Node000040"><a xlink:title=" ">
<polygon fill="#e0e0e0" stroke="#999999" points="1983,-239 1945,-239 1945,-220 1983,-220 1983,-239"/>
<text text-anchor="middle" x="1964" y="-227" font-family="Helvetica,sans-Serif" font-size="10.00">map</text>
</a>
</g>
</g>
<!-- Node37&#45;&gt;Node40 -->
<g id="edge60_Node000037_Node000040" class="edge">
<title>Node37&#45;&gt;Node40</title>
<g id="a_edge60_Node000037_Node000040"><a xlink:title=" ">
<path fill="none" stroke="#63b8ff" d="M1823.83,-274.98C1854.15,-265.36 1903.34,-249.75 1934.66,-239.81"/>
<polygon fill="#63b8ff" stroke="#63b8ff" points="1936.07,-243.04 1944.54,-236.68 1933.95,-236.37 1936.07,-243.04"/>
</a>
</g>
</g>
</g>
</svg>
