<?xml version="1.0" encoding="UTF-8" standalone="no"?>
<!DOCTYPE svg PUBLIC "-//W3C//DTD SVG 1.1//EN"
 "http://www.w3.org/Graphics/SVG/1.1/DTD/svg11.dtd">
<!-- Generated by graphviz version 2.43.0 (0)
 -->
<!-- Title: src/ui/widgets/InspectorWidget.hpp Pages: 1 -->
<svg width="1392pt" height="445pt"
 viewBox="0.00 0.00 1391.50 445.00" xmlns="http://www.w3.org/2000/svg" xmlns:xlink="http://www.w3.org/1999/xlink">
<g id="graph0" class="graph" transform="scale(1 1) rotate(0) translate(4 441)">
<title>src/ui/widgets/InspectorWidget.hpp</title>
<!-- Node1 -->
<g id="Node000001" class="node">
<title>Node1</title>
<g id="a_Node000001"><a xlink:title=" ">
<polygon fill="#999999" stroke="#666666" points="812.5,-437 680.5,-437 680.5,-407 812.5,-407 812.5,-437"/>
<text text-anchor="start" x="688.5" y="-425" font-family="Helvetica,sans-Serif" font-size="10.00">src/ui/widgets/Inspector</text>
<text text-anchor="middle" x="746.5" y="-414" font-family="Helvetica,sans-Serif" font-size="10.00">Widget.hpp</text>
</a>
</g>
</g>
<!-- Node2 -->
<g id="Node000002" class="node">
<title>Node2</title>
<g id="a_Node000002"><a xlink:href="_asset_8hpp.html" target="_top" xlink:title=" ">
<polygon fill="white" stroke="#666666" points="482,-299.5 345,-299.5 345,-280.5 482,-280.5 482,-299.5"/>
<text text-anchor="middle" x="413.5" y="-287.5" font-family="Helvetica,sans-Serif" font-size="10.00">AssetManager/Asset.hpp</text>
</a>
</g>
</g>
<!-- Node1&#45;&gt;Node2 -->
<g id="edge1_Node000001_Node000002" class="edge">
<title>Node1&#45;&gt;Node2</title>
<g id="a_edge1_Node000001_Node000002"><a xlink:title=" ">
<path fill="none" stroke="#63b8ff" d="M680.11,-416.79C578.33,-409.64 393.34,-393.68 373.5,-371 356.56,-351.64 378.29,-323.84 395.74,-306.63"/>
<polygon fill="#63b8ff" stroke="#63b8ff" points="398.4,-308.93 403.3,-299.54 393.61,-303.83 398.4,-308.93"/>
</a>
</g>
</g>
<!-- Node18 -->
<g id="Node000018" class="node">
<title>Node18</title>
<g id="a_Node000018"><a xlink:href="_texture_8hpp.html" target="_top" xlink:title=" ">
<polygon fill="white" stroke="#666666" points="306.5,-365.5 160.5,-365.5 160.5,-346.5 306.5,-346.5 306.5,-365.5"/>
<text text-anchor="middle" x="233.5" y="-353.5" font-family="Helvetica,sans-Serif" font-size="10.00">AssetManager/Texture.hpp</text>
</a>
</g>
</g>
<!-- Node1&#45;&gt;Node18 -->
<g id="edge23_Node000001_Node000018" class="edge">
<title>Node1&#45;&gt;Node18</title>
<g id="a_edge23_Node000001_Node000018"><a xlink:title=" ">
<path fill="none" stroke="#63b8ff" d="M680.38,-413.01C600.01,-403.27 460.27,-386.21 340.5,-371 329.97,-369.66 318.86,-368.23 307.94,-366.81"/>
<polygon fill="#63b8ff" stroke="#63b8ff" points="308.36,-363.34 297.99,-365.52 307.46,-370.28 308.36,-363.34"/>
</a>
</g>
</g>
<!-- Node22 -->
<g id="Node000022" class="node">
<title>Node22</title>
<g id="a_Node000022"><a xlink:href="_asset_component_8hpp.html" target="_top" xlink:title=" ">
<polygon fill="white" stroke="#666666" points="552.5,-371 382.5,-371 382.5,-341 552.5,-341 552.5,-371"/>
<text text-anchor="start" x="390.5" y="-359" font-family="Helvetica,sans-Serif" font-size="10.00">Components/AssetComponents</text>
<text text-anchor="middle" x="467.5" y="-348" font-family="Helvetica,sans-Serif" font-size="10.00">/AssetComponent.hpp</text>
</a>
</g>
</g>
<!-- Node1&#45;&gt;Node22 -->
<g id="edge28_Node000001_Node000022" class="edge">
<title>Node1&#45;&gt;Node22</title>
<g id="a_edge28_Node000001_Node000022"><a xlink:title=" ">
<path fill="none" stroke="#63b8ff" d="M685.27,-406.95C641.93,-397.01 583.69,-383.65 538.35,-373.25"/>
<polygon fill="#63b8ff" stroke="#63b8ff" points="539.11,-369.84 528.58,-371.01 537.55,-376.66 539.11,-369.84"/>
</a>
</g>
</g>
<!-- Node24 -->
<g id="Node000024" class="node">
<title>Node24</title>
<g id="a_Node000024"><a xlink:title=" ">
<polygon fill="#e0e0e0" stroke="#999999" points="734.5,-365.5 570.5,-365.5 570.5,-346.5 734.5,-346.5 734.5,-365.5"/>
<text text-anchor="middle" x="652.5" y="-353.5" font-family="Helvetica,sans-Serif" font-size="10.00">UI/Common/AssetSelector.hpp</text>
</a>
</g>
</g>
<!-- Node1&#45;&gt;Node24 -->
<g id="edge31_Node000001_Node000024" class="edge">
<title>Node1&#45;&gt;Node24</title>
<g id="a_edge31_Node000001_Node000024"><a xlink:title=" ">
<path fill="none" stroke="#63b8ff" d="M725.64,-406.8C710.18,-396.27 689.18,-381.97 673.65,-371.4"/>
<polygon fill="#63b8ff" stroke="#63b8ff" points="675.45,-368.39 665.22,-365.66 671.51,-374.18 675.45,-368.39"/>
</a>
</g>
</g>
<!-- Node25 -->
<g id="Node000025" class="node">
<title>Node25</title>
<g id="a_Node000025"><a xlink:title=" ">
<polygon fill="#e0e0e0" stroke="#999999" points="930,-365.5 753,-365.5 753,-346.5 930,-346.5 930,-365.5"/>
<text text-anchor="middle" x="841.5" y="-353.5" font-family="Helvetica,sans-Serif" font-size="10.00">UI/Common/BooleanSelector.hpp</text>
</a>
</g>
</g>
<!-- Node1&#45;&gt;Node25 -->
<g id="edge32_Node000001_Node000025" class="edge">
<title>Node1&#45;&gt;Node25</title>
<g id="a_edge32_Node000001_Node000025"><a xlink:title=" ">
<path fill="none" stroke="#63b8ff" d="M767.58,-406.8C783.21,-396.27 804.43,-381.97 820.13,-371.4"/>
<polygon fill="#63b8ff" stroke="#63b8ff" points="822.31,-374.15 828.65,-365.66 818.4,-368.34 822.31,-374.15"/>
</a>
</g>
</g>
<!-- Node26 -->
<g id="Node000026" class="node">
<title>Node26</title>
<g id="a_Node000026"><a xlink:title=" ">
<polygon fill="#e0e0e0" stroke="#999999" points="1111,-365.5 948,-365.5 948,-346.5 1111,-346.5 1111,-365.5"/>
<text text-anchor="middle" x="1029.5" y="-353.5" font-family="Helvetica,sans-Serif" font-size="10.00">UI/Common/ColorSelector.hpp</text>
</a>
</g>
</g>
<!-- Node1&#45;&gt;Node26 -->
<g id="edge33_Node000001_Node000026" class="edge">
<title>Node1&#45;&gt;Node26</title>
<g id="a_edge33_Node000001_Node000026"><a xlink:title=" ">
<path fill="none" stroke="#63b8ff" d="M808.61,-406.95C860.75,-395.16 934.16,-378.56 981.79,-367.79"/>
<polygon fill="#63b8ff" stroke="#63b8ff" points="982.86,-371.14 991.84,-365.52 981.31,-364.31 982.86,-371.14"/>
</a>
</g>
</g>
<!-- Node27 -->
<g id="Node000027" class="node">
<title>Node27</title>
<g id="a_Node000027"><a xlink:title=" ">
<polygon fill="#e0e0e0" stroke="#999999" points="1279.5,-365.5 1129.5,-365.5 1129.5,-346.5 1279.5,-346.5 1279.5,-365.5"/>
<text text-anchor="middle" x="1204.5" y="-353.5" font-family="Helvetica,sans-Serif" font-size="10.00">UI/Common/FloatSlider.hpp</text>
</a>
</g>
</g>
<!-- Node1&#45;&gt;Node27 -->
<g id="edge34_Node000001_Node000027" class="edge">
<title>Node1&#45;&gt;Node27</title>
<g id="a_edge34_Node000001_Node000027"><a xlink:title=" ">
<path fill="none" stroke="#63b8ff" d="M812.8,-412.79C887.63,-403.38 1012.96,-387.15 1120.5,-371 1128.4,-369.81 1136.71,-368.5 1144.9,-367.18"/>
<polygon fill="#63b8ff" stroke="#63b8ff" points="1145.49,-370.63 1154.79,-365.56 1144.36,-363.72 1145.49,-370.63"/>
</a>
</g>
</g>
<!-- Node28 -->
<g id="Node000028" class="node">
<title>Node28</title>
<g id="a_Node000028"><a xlink:title=" ">
<polygon fill="#e0e0e0" stroke="#999999" points="1383.5,-365.5 1297.5,-365.5 1297.5,-346.5 1383.5,-346.5 1383.5,-365.5"/>
<text text-anchor="middle" x="1340.5" y="-353.5" font-family="Helvetica,sans-Serif" font-size="10.00">UI/Widget.hpp</text>
</a>
</g>
</g>
<!-- Node1&#45;&gt;Node28 -->
<g id="edge35_Node000001_Node000028" class="edge">
<title>Node1&#45;&gt;Node28</title>
<g id="a_edge35_Node000001_Node000028"><a xlink:title=" ">
<path fill="none" stroke="#63b8ff" d="M812.9,-418.53C915.58,-413.9 1118.75,-401.45 1288.5,-371 1293.02,-370.19 1297.72,-369.17 1302.37,-368.06"/>
<polygon fill="#63b8ff" stroke="#63b8ff" points="1303.53,-371.38 1312.36,-365.52 1301.81,-364.59 1303.53,-371.38"/>
</a>
</g>
</g>
<!-- Node3 -->
<g id="Node000003" class="node">
<title>Node3</title>
<g id="a_Node000003"><a xlink:href="_registry_8hpp.html" target="_top" xlink:title=" ">
<polygon fill="white" stroke="#666666" points="462.5,-239 364.5,-239 364.5,-220 462.5,-220 462.5,-239"/>
<text text-anchor="middle" x="413.5" y="-227" font-family="Helvetica,sans-Serif" font-size="10.00">ECS/Registry.hpp</text>
</a>
</g>
</g>
<!-- Node2&#45;&gt;Node3 -->
<g id="edge2_Node000002_Node000003" class="edge">
<title>Node2&#45;&gt;Node3</title>
<g id="a_edge2_Node000002_Node000003"><a xlink:title=" ">
<path fill="none" stroke="#63b8ff" d="M413.5,-280.37C413.5,-272.25 413.5,-259.81 413.5,-249.39"/>
<polygon fill="#63b8ff" stroke="#63b8ff" points="417,-249.17 413.5,-239.17 410,-249.17 417,-249.17"/>
</a>
</g>
</g>
<!-- Node17 -->
<g id="Node000017" class="node">
<title>Node17</title>
<g id="a_Node000017"><a xlink:title=" ">
<polygon fill="#e0e0e0" stroke="#999999" points="270.5,-239 202.5,-239 202.5,-220 270.5,-220 270.5,-239"/>
<text text-anchor="middle" x="236.5" y="-227" font-family="Helvetica,sans-Serif" font-size="10.00">filesystem</text>
</a>
</g>
</g>
<!-- Node2&#45;&gt;Node17 -->
<g id="edge22_Node000002_Node000017" class="edge">
<title>Node2&#45;&gt;Node17</title>
<g id="a_edge22_Node000002_Node000017"><a xlink:title=" ">
<path fill="none" stroke="#63b8ff" d="M387.76,-280.49C357.22,-270.4 306.13,-253.51 271.88,-242.19"/>
<polygon fill="#63b8ff" stroke="#63b8ff" points="272.86,-238.83 262.27,-239.02 270.66,-245.48 272.86,-238.83"/>
</a>
</g>
</g>
<!-- Node4 -->
<g id="Node000004" class="node">
<title>Node4</title>
<g id="a_Node000004"><a xlink:title=" ">
<polygon fill="#e0e0e0" stroke="#999999" points="456.5,-129 370.5,-129 370.5,-110 456.5,-110 456.5,-129"/>
<text text-anchor="middle" x="413.5" y="-117" font-family="Helvetica,sans-Serif" font-size="10.00">unordered_set</text>
</a>
</g>
</g>
<!-- Node3&#45;&gt;Node4 -->
<g id="edge3_Node000003_Node000004" class="edge">
<title>Node3&#45;&gt;Node4</title>
<g id="a_edge3_Node000003_Node000004"><a xlink:title=" ">
<path fill="none" stroke="#63b8ff" d="M413.5,-219.66C413.5,-202.17 413.5,-162.8 413.5,-139.27"/>
<polygon fill="#63b8ff" stroke="#63b8ff" points="417,-139.16 413.5,-129.16 410,-139.16 417,-139.16"/>
</a>
</g>
</g>
<!-- Node5 -->
<g id="Node000005" class="node">
<title>Node5</title>
<g id="a_Node000005"><a xlink:href="_logger_8hpp.html" target="_top" xlink:title=" ">
<polygon fill="white" stroke="#666666" points="221,-184 104,-184 104,-165 221,-165 221,-184"/>
<text text-anchor="middle" x="162.5" y="-172" font-family="Helvetica,sans-Serif" font-size="10.00">Common/Logger.hpp</text>
</a>
</g>
</g>
<!-- Node3&#45;&gt;Node5 -->
<g id="edge4_Node000003_Node000005" class="edge">
<title>Node3&#45;&gt;Node5</title>
<g id="a_edge4_Node000003_Node000005"><a xlink:title=" ">
<path fill="none" stroke="#63b8ff" d="M373.17,-219.98C329.66,-210.8 260.3,-196.15 213.15,-186.19"/>
<polygon fill="#63b8ff" stroke="#63b8ff" points="213.65,-182.72 203.14,-184.08 212.2,-189.57 213.65,-182.72"/>
</a>
</g>
</g>
<!-- Node8 -->
<g id="Node000008" class="node">
<title>Node8</title>
<g id="a_Node000008"><a xlink:href="_entity_8hpp.html" target="_top" xlink:title=" ">
<polygon fill="white" stroke="#666666" points="632.5,-74 546.5,-74 546.5,-55 632.5,-55 632.5,-74"/>
<text text-anchor="middle" x="589.5" y="-62" font-family="Helvetica,sans-Serif" font-size="10.00">ECS/Entity.hpp</text>
</a>
</g>
</g>
<!-- Node3&#45;&gt;Node8 -->
<g id="edge7_Node000003_Node000008" class="edge">
<title>Node3&#45;&gt;Node8</title>
<g id="a_edge7_Node000003_Node000008"><a xlink:title=" ">
<path fill="none" stroke="#63b8ff" d="M462.54,-225.82C554.37,-220.31 744.85,-206.29 764.5,-184 780.12,-166.27 767.46,-130.14 746.5,-110 718.82,-83.41 676.46,-72.5 642.72,-68.12"/>
<polygon fill="#63b8ff" stroke="#63b8ff" points="642.88,-64.62 632.55,-66.96 642.09,-71.57 642.88,-64.62"/>
</a>
</g>
</g>
<!-- Node10 -->
<g id="Node000010" class="node">
<title>Node10</title>
<g id="a_Node000010"><a xlink:href="_entity_hierarchy_8hpp.html" target="_top" xlink:title=" ">
<polygon fill="white" stroke="#666666" points="575.5,-184 441.5,-184 441.5,-165 575.5,-165 575.5,-184"/>
<text text-anchor="middle" x="508.5" y="-172" font-family="Helvetica,sans-Serif" font-size="10.00">ECS/EntityHierarchy.hpp</text>
</a>
</g>
</g>
<!-- Node3&#45;&gt;Node10 -->
<g id="edge9_Node000003_Node000010" class="edge">
<title>Node3&#45;&gt;Node10</title>
<g id="a_edge9_Node000003_Node000010"><a xlink:title=" ">
<path fill="none" stroke="#63b8ff" d="M428.76,-219.98C443.63,-211.69 466.48,-198.94 483.92,-189.22"/>
<polygon fill="#63b8ff" stroke="#63b8ff" points="485.93,-192.1 492.96,-184.17 482.52,-185.99 485.93,-192.1"/>
</a>
</g>
</g>
<!-- Node14 -->
<g id="Node000014" class="node">
<title>Node14</title>
<g id="a_Node000014"><a xlink:href="_entity_provider_8hpp.html" target="_top" xlink:title="Manages a pool of unused entity identifiers and provides mechanisms for requesting and removing them.">
<polygon fill="white" stroke="#666666" points="352.5,-129 224.5,-129 224.5,-110 352.5,-110 352.5,-129"/>
<text text-anchor="middle" x="288.5" y="-117" font-family="Helvetica,sans-Serif" font-size="10.00">ECS/EntityProvider.hpp</text>
</a>
</g>
</g>
<!-- Node3&#45;&gt;Node14 -->
<g id="edge15_Node000003_Node000014" class="edge">
<title>Node3&#45;&gt;Node14</title>
<g id="a_edge15_Node000003_Node000014"><a xlink:title=" ">
<path fill="none" stroke="#63b8ff" d="M406.76,-219.63C396.69,-206.71 376.73,-182.37 356.5,-165 342.93,-153.35 326.13,-142.33 312.62,-134.17"/>
<polygon fill="#63b8ff" stroke="#63b8ff" points="314.27,-131.08 303.88,-129 310.71,-137.1 314.27,-131.08"/>
</a>
</g>
</g>
<!-- Node15 -->
<g id="Node000015" class="node">
<title>Node15</title>
<g id="a_Node000015"><a xlink:href="_singleton_component_8hpp.html" target="_top" xlink:title=" ">
<polygon fill="white" stroke="#666666" points="755,-184 594,-184 594,-165 755,-165 755,-184"/>
<text text-anchor="middle" x="674.5" y="-172" font-family="Helvetica,sans-Serif" font-size="10.00">ECS/SingletonComponent.hpp</text>
</a>
</g>
</g>
<!-- Node3&#45;&gt;Node15 -->
<g id="edge19_Node000003_Node000015" class="edge">
<title>Node3&#45;&gt;Node15</title>
<g id="a_edge19_Node000003_Node000015"><a xlink:title=" ">
<path fill="none" stroke="#63b8ff" d="M455.43,-219.98C500.77,-210.78 573.11,-196.09 622.15,-186.13"/>
<polygon fill="#63b8ff" stroke="#63b8ff" points="623.13,-189.5 632.24,-184.08 621.74,-182.64 623.13,-189.5"/>
</a>
</g>
</g>
<!-- Node16 -->
<g id="Node000016" class="node">
<title>Node16</title>
<g id="a_Node000016"><a xlink:href="_sparse_set_8hpp.html" target="_top" xlink:title=" ">
<polygon fill="white" stroke="#666666" points="347.5,-184 239.5,-184 239.5,-165 347.5,-165 347.5,-184"/>
<text text-anchor="middle" x="293.5" y="-172" font-family="Helvetica,sans-Serif" font-size="10.00">ECS/SparseSet.hpp</text>
</a>
</g>
</g>
<!-- Node3&#45;&gt;Node16 -->
<g id="edge20_Node000003_Node000016" class="edge">
<title>Node3&#45;&gt;Node16</title>
<g id="a_edge20_Node000003_Node000016"><a xlink:title=" ">
<path fill="none" stroke="#63b8ff" d="M394.22,-219.98C374.83,-211.42 344.69,-198.11 322.43,-188.28"/>
<polygon fill="#63b8ff" stroke="#63b8ff" points="323.69,-185.01 313.13,-184.17 320.86,-191.41 323.69,-185.01"/>
</a>
</g>
</g>
<!-- Node6 -->
<g id="Node000006" class="node">
<title>Node6</title>
<g id="a_Node000006"><a xlink:title=" ">
<polygon fill="#e0e0e0" stroke="#999999" points="168.5,-129 120.5,-129 120.5,-110 168.5,-110 168.5,-129"/>
<text text-anchor="middle" x="144.5" y="-117" font-family="Helvetica,sans-Serif" font-size="10.00">mutex</text>
</a>
</g>
</g>
<!-- Node5&#45;&gt;Node6 -->
<g id="edge5_Node000005_Node000006" class="edge">
<title>Node5&#45;&gt;Node6</title>
<g id="a_edge5_Node000005_Node000006"><a xlink:title=" ">
<path fill="none" stroke="#63b8ff" d="M159.53,-164.75C157.14,-157.72 153.71,-147.62 150.73,-138.84"/>
<polygon fill="#63b8ff" stroke="#63b8ff" points="153.95,-137.43 147.42,-129.09 147.32,-139.68 153.95,-137.43"/>
</a>
</g>
</g>
<!-- Node7 -->
<g id="Node000007" class="node">
<title>Node7</title>
<g id="a_Node000007"><a xlink:title=" ">
<polygon fill="#e0e0e0" stroke="#999999" points="276,-74 229,-74 229,-55 276,-55 276,-74"/>
<text text-anchor="middle" x="252.5" y="-62" font-family="Helvetica,sans-Serif" font-size="10.00">queue</text>
</a>
</g>
</g>
<!-- Node5&#45;&gt;Node7 -->
<g id="edge6_Node000005_Node000007" class="edge">
<title>Node5&#45;&gt;Node7</title>
<g id="a_edge6_Node000005_Node000007"><a xlink:title=" ">
<path fill="none" stroke="#63b8ff" d="M169.87,-164.66C184.9,-146.61 219.35,-105.28 238.69,-82.08"/>
<polygon fill="#63b8ff" stroke="#63b8ff" points="241.57,-84.08 245.28,-74.16 236.19,-79.6 241.57,-84.08"/>
</a>
</g>
</g>
<!-- Node9 -->
<g id="Node000009" class="node">
<title>Node9</title>
<g id="a_Node000009"><a xlink:title=" ">
<polygon fill="#e0e0e0" stroke="#999999" points="483,-19 430,-19 430,0 483,0 483,-19"/>
<text text-anchor="middle" x="456.5" y="-7" font-family="Helvetica,sans-Serif" font-size="10.00">stdlib.h</text>
</a>
</g>
</g>
<!-- Node8&#45;&gt;Node9 -->
<g id="edge8_Node000008_Node000009" class="edge">
<title>Node8&#45;&gt;Node9</title>
<g id="a_edge8_Node000008_Node000009"><a xlink:title=" ">
<path fill="none" stroke="#63b8ff" d="M568.13,-54.98C546.35,-46.3 512.34,-32.75 487.58,-22.88"/>
<polygon fill="#63b8ff" stroke="#63b8ff" points="488.84,-19.62 478.26,-19.17 486.25,-26.12 488.84,-19.62"/>
</a>
</g>
</g>
<!-- Node10&#45;&gt;Node4 -->
<g id="edge13_Node000010_Node000004" class="edge">
<title>Node10&#45;&gt;Node4</title>
<g id="a_edge13_Node000010_Node000004"><a xlink:title=" ">
<path fill="none" stroke="#63b8ff" d="M493.24,-164.98C478.37,-156.69 455.52,-143.94 438.08,-134.22"/>
<polygon fill="#63b8ff" stroke="#63b8ff" points="439.48,-130.99 429.04,-129.17 436.07,-137.1 439.48,-130.99"/>
</a>
</g>
</g>
<!-- Node10&#45;&gt;Node8 -->
<g id="edge14_Node000010_Node000008" class="edge">
<title>Node10&#45;&gt;Node8</title>
<g id="a_edge14_Node000010_Node000008"><a xlink:title=" ">
<path fill="none" stroke="#63b8ff" d="M571.09,-164.99C632.83,-155.96 719.41,-141.32 729.5,-129 756.94,-95.48 693.3,-78.94 643.05,-71.32"/>
<polygon fill="#63b8ff" stroke="#63b8ff" points="643.28,-67.82 632.89,-69.87 642.29,-74.75 643.28,-67.82"/>
</a>
</g>
</g>
<!-- Node11 -->
<g id="Node000011" class="node">
<title>Node11</title>
<g id="a_Node000011"><a xlink:title=" ">
<polygon fill="#e0e0e0" stroke="#999999" points="540,-129 475,-129 475,-110 540,-110 540,-129"/>
<text text-anchor="middle" x="507.5" y="-117" font-family="Helvetica,sans-Serif" font-size="10.00">functional</text>
</a>
</g>
</g>
<!-- Node10&#45;&gt;Node11 -->
<g id="edge10_Node000010_Node000011" class="edge">
<title>Node10&#45;&gt;Node11</title>
<g id="a_edge10_Node000010_Node000011"><a xlink:title=" ">
<path fill="none" stroke="#63b8ff" d="M508.33,-164.75C508.2,-157.8 508.02,-147.85 507.85,-139.13"/>
<polygon fill="#63b8ff" stroke="#63b8ff" points="511.35,-139.02 507.66,-129.09 504.35,-139.15 511.35,-139.02"/>
</a>
</g>
</g>
<!-- Node12 -->
<g id="Node000012" class="node">
<title>Node12</title>
<g id="a_Node000012"><a xlink:title=" ">
<polygon fill="#e0e0e0" stroke="#999999" points="608.5,-129 558.5,-129 558.5,-110 608.5,-110 608.5,-129"/>
<text text-anchor="middle" x="583.5" y="-117" font-family="Helvetica,sans-Serif" font-size="10.00">ranges</text>
</a>
</g>
</g>
<!-- Node10&#45;&gt;Node12 -->
<g id="edge11_Node000010_Node000012" class="edge">
<title>Node10&#45;&gt;Node12</title>
<g id="a_edge11_Node000010_Node000012"><a xlink:title=" ">
<path fill="none" stroke="#63b8ff" d="M520.55,-164.98C531.96,-156.92 549.33,-144.65 562.93,-135.03"/>
<polygon fill="#63b8ff" stroke="#63b8ff" points="565.08,-137.8 571.23,-129.17 561.04,-132.08 565.08,-137.8"/>
</a>
</g>
</g>
<!-- Node13 -->
<g id="Node000013" class="node">
<title>Node13</title>
<g id="a_Node000013"><a xlink:title=" ">
<polygon fill="#e0e0e0" stroke="#999999" points="720,-129 627,-129 627,-110 720,-110 720,-129"/>
<text text-anchor="middle" x="673.5" y="-117" font-family="Helvetica,sans-Serif" font-size="10.00">unordered_map</text>
</a>
</g>
</g>
<!-- Node10&#45;&gt;Node13 -->
<g id="edge12_Node000010_Node000013" class="edge">
<title>Node10&#45;&gt;Node13</title>
<g id="a_edge12_Node000010_Node000013"><a xlink:title=" ">
<path fill="none" stroke="#63b8ff" d="M535.01,-164.98C562.71,-156.09 606.36,-142.07 637.24,-132.15"/>
<polygon fill="#63b8ff" stroke="#63b8ff" points="638.33,-135.47 646.78,-129.08 636.19,-128.81 638.33,-135.47"/>
</a>
</g>
</g>
<!-- Node14&#45;&gt;Node7 -->
<g id="edge17_Node000014_Node000007" class="edge">
<title>Node14&#45;&gt;Node7</title>
<g id="a_edge17_Node000014_Node000007"><a xlink:title=" ">
<path fill="none" stroke="#63b8ff" d="M282.56,-109.75C277.52,-102.34 270.16,-91.5 263.99,-82.41"/>
<polygon fill="#63b8ff" stroke="#63b8ff" points="266.85,-80.39 258.33,-74.09 261.06,-84.33 266.85,-80.39"/>
</a>
</g>
</g>
<!-- Node14&#45;&gt;Node8 -->
<g id="edge18_Node000014_Node000008" class="edge">
<title>Node14&#45;&gt;Node8</title>
<g id="a_edge18_Node000014_Node000008"><a xlink:title=" ">
<path fill="none" stroke="#63b8ff" d="M336.86,-109.98C391.3,-100.4 479.51,-84.87 535.98,-74.92"/>
<polygon fill="#63b8ff" stroke="#63b8ff" points="536.9,-78.32 546.14,-73.13 535.69,-71.42 536.9,-78.32"/>
</a>
</g>
</g>
<!-- Node14&#45;&gt;Node9 -->
<g id="edge16_Node000014_Node000009" class="edge">
<title>Node14&#45;&gt;Node9</title>
<g id="a_edge16_Node000014_Node000009"><a xlink:title=" ">
<path fill="none" stroke="#63b8ff" d="M301.96,-109.84C330.84,-91.28 398.96,-47.49 434.33,-24.75"/>
<polygon fill="#63b8ff" stroke="#63b8ff" points="436.45,-27.55 442.97,-19.2 432.67,-21.66 436.45,-27.55"/>
</a>
</g>
</g>
<!-- Node16&#45;&gt;Node14 -->
<g id="edge21_Node000016_Node000014" class="edge">
<title>Node16&#45;&gt;Node14</title>
<g id="a_edge21_Node000016_Node000014"><a xlink:title=" ">
<path fill="none" stroke="#63b8ff" d="M292.67,-164.75C292.02,-157.8 291.08,-147.85 290.26,-139.13"/>
<polygon fill="#63b8ff" stroke="#63b8ff" points="293.73,-138.72 289.31,-129.09 286.77,-139.37 293.73,-138.72"/>
</a>
</g>
</g>
<!-- Node19 -->
<g id="Node000019" class="node">
<title>Node19</title>
<g id="a_Node000019"><a xlink:title=" ">
<polygon fill="#e0e0e0" stroke="#999999" points="71,-299.5 0,-299.5 0,-280.5 71,-280.5 71,-299.5"/>
<text text-anchor="middle" x="35.5" y="-287.5" font-family="Helvetica,sans-Serif" font-size="10.00">glad/glad.h</text>
</a>
</g>
</g>
<!-- Node18&#45;&gt;Node19 -->
<g id="edge24_Node000018_Node000019" class="edge">
<title>Node18&#45;&gt;Node19</title>
<g id="a_edge24_Node000018_Node000019"><a xlink:title=" ">
<path fill="none" stroke="#63b8ff" d="M206.8,-346.37C172.01,-335.12 111.04,-315.42 72,-302.8"/>
<polygon fill="#63b8ff" stroke="#63b8ff" points="72.69,-299.34 62.1,-299.6 70.53,-306 72.69,-299.34"/>
</a>
</g>
</g>
<!-- Node20 -->
<g id="Node000020" class="node">
<title>Node20</title>
<g id="a_Node000020"><a xlink:href="_image_8hpp.html" target="_top" xlink:title=" ">
<polygon fill="white" stroke="#666666" points="230,-299.5 89,-299.5 89,-280.5 230,-280.5 230,-299.5"/>
<text text-anchor="middle" x="159.5" y="-287.5" font-family="Helvetica,sans-Serif" font-size="10.00">AssetManager/Image.hpp</text>
</a>
</g>
</g>
<!-- Node18&#45;&gt;Node20 -->
<g id="edge25_Node000018_Node000020" class="edge">
<title>Node18&#45;&gt;Node20</title>
<g id="a_edge25_Node000018_Node000020"><a xlink:title=" ">
<path fill="none" stroke="#63b8ff" d="M223.52,-346.37C211.78,-336.21 192.06,-319.16 177.6,-306.65"/>
<polygon fill="#63b8ff" stroke="#63b8ff" points="179.65,-303.8 169.8,-299.91 175.07,-309.09 179.65,-303.8"/>
</a>
</g>
</g>
<!-- Node21 -->
<g id="Node000021" class="node">
<title>Node21</title>
<g id="a_Node000021"><a xlink:title=" ">
<polygon fill="#e0e0e0" stroke="#999999" points="326.5,-299.5 248.5,-299.5 248.5,-280.5 326.5,-280.5 326.5,-299.5"/>
<text text-anchor="middle" x="287.5" y="-287.5" font-family="Helvetica,sans-Serif" font-size="10.00">glm/glm.hpp</text>
</a>
</g>
</g>
<!-- Node18&#45;&gt;Node21 -->
<g id="edge27_Node000018_Node000021" class="edge">
<title>Node18&#45;&gt;Node21</title>
<g id="a_edge27_Node000018_Node000021"><a xlink:title=" ">
<path fill="none" stroke="#63b8ff" d="M240.78,-346.37C249.11,-336.5 262.94,-320.11 273.39,-307.72"/>
<polygon fill="#63b8ff" stroke="#63b8ff" points="276.21,-309.81 279.99,-299.91 270.86,-305.29 276.21,-309.81"/>
</a>
</g>
</g>
<!-- Node20&#45;&gt;Node17 -->
<g id="edge26_Node000020_Node000017" class="edge">
<title>Node20&#45;&gt;Node17</title>
<g id="a_edge26_Node000020_Node000017"><a xlink:title=" ">
<path fill="none" stroke="#63b8ff" d="M170.86,-280.37C182.92,-271.21 202.2,-256.56 216.75,-245.51"/>
<polygon fill="#63b8ff" stroke="#63b8ff" points="219.25,-248 225.09,-239.17 215.01,-242.43 219.25,-248"/>
</a>
</g>
</g>
<!-- Node22&#45;&gt;Node2 -->
<g id="edge29_Node000022_Node000002" class="edge">
<title>Node22&#45;&gt;Node2</title>
<g id="a_edge29_Node000022_Node000002"><a xlink:title=" ">
<path fill="none" stroke="#63b8ff" d="M455.52,-340.8C447.26,-331.01 436.26,-317.98 427.59,-307.7"/>
<polygon fill="#63b8ff" stroke="#63b8ff" points="430.09,-305.23 420.96,-299.84 424.74,-309.74 430.09,-305.23"/>
</a>
</g>
</g>
<!-- Node23 -->
<g id="Node000023" class="node">
<title>Node23</title>
<g id="a_Node000023"><a xlink:href="_asset_loader_8hpp.html" target="_top" xlink:title=" ">
<polygon fill="white" stroke="#666666" points="670.5,-305 500.5,-305 500.5,-275 670.5,-275 670.5,-305"/>
<text text-anchor="start" x="508.5" y="-293" font-family="Helvetica,sans-Serif" font-size="10.00">Components/AssetComponents</text>
<text text-anchor="middle" x="585.5" y="-282" font-family="Helvetica,sans-Serif" font-size="10.00">/AssetLoader.hpp</text>
</a>
</g>
</g>
<!-- Node22&#45;&gt;Node23 -->
<g id="edge30_Node000022_Node000023" class="edge">
<title>Node22&#45;&gt;Node23</title>
<g id="a_edge30_Node000022_Node000023"><a xlink:title=" ">
<path fill="none" stroke="#63b8ff" d="M493.4,-340.95C510.23,-331.83 532.37,-319.82 550.73,-309.86"/>
<polygon fill="#63b8ff" stroke="#63b8ff" points="552.54,-312.86 559.66,-305.01 549.21,-306.7 552.54,-312.86"/>
</a>
</g>
</g>
</g>
</svg>
