<?xml version="1.0" encoding="UTF-8" standalone="no"?>
<!DOCTYPE svg PUBLIC "-//W3C//DTD SVG 1.1//EN"
 "http://www.w3.org/Graphics/SVG/1.1/DTD/svg11.dtd">
<!-- Generated by graphviz version 2.43.0 (0)
 -->
<!-- Title: src/Common/InstanceCounter.hpp Pages: 1 -->
<svg width="2275pt" height="269pt"
 viewBox="0.00 0.00 2274.50 269.00" xmlns="http://www.w3.org/2000/svg" xmlns:xlink="http://www.w3.org/1999/xlink">
<g id="graph0" class="graph" transform="scale(1 1) rotate(0) translate(4 265)">
<title>src/Common/InstanceCounter.hpp</title>
<!-- Node1 -->
<g id="Node000001" class="node">
<title>Node1</title>
<g id="a_Node000001"><a xlink:title=" ">
<polygon fill="#999999" stroke="#666666" points="1612,-261 1431,-261 1431,-242 1612,-242 1612,-261"/>
<text text-anchor="middle" x="1521.5" y="-249" font-family="Helvetica,sans-Serif" font-size="10.00">src/Common/InstanceCounter.hpp</text>
</a>
</g>
</g>
<!-- Node2 -->
<g id="Node000002" class="node">
<title>Node2</title>
<g id="a_Node000002"><a xlink:href="_material_8hpp.html" target="_top" xlink:title=" ">
<polygon fill="white" stroke="#666666" points="1549.5,-206 1381.5,-206 1381.5,-187 1549.5,-187 1549.5,-206"/>
<text text-anchor="middle" x="1465.5" y="-194" font-family="Helvetica,sans-Serif" font-size="10.00">src/AssetManager/Material.hpp</text>
</a>
</g>
</g>
<!-- Node1&#45;&gt;Node2 -->
<g id="edge1_Node000001_Node000002" class="edge">
<title>Node1&#45;&gt;Node2</title>
<g id="a_edge1_Node000001_Node000002"><a xlink:title=" ">
<path fill="none" stroke="#63b8ff" d="M1505.17,-235.04C1495.24,-225.64 1482.91,-213.98 1474.66,-206.17"/>
<polygon fill="#63b8ff" stroke="#63b8ff" points="1502.83,-237.65 1512.5,-241.98 1507.65,-232.57 1502.83,-237.65"/>
</a>
</g>
</g>
<!-- Node23 -->
<g id="Node000023" class="node">
<title>Node23</title>
<g id="a_Node000023"><a xlink:href="_profiler_widget_8cpp.html" target="_top" xlink:title=" ">
<polygon fill="white" stroke="#666666" points="2093.5,-145.5 1917.5,-145.5 1917.5,-126.5 2093.5,-126.5 2093.5,-145.5"/>
<text text-anchor="middle" x="2005.5" y="-133.5" font-family="Helvetica,sans-Serif" font-size="10.00">src/ui/widgets/ProfilerWidget.cpp</text>
</a>
</g>
</g>
<!-- Node1&#45;&gt;Node23 -->
<g id="edge44_Node000001_Node000023" class="edge">
<title>Node1&#45;&gt;Node23</title>
<g id="a_edge44_Node000001_Node000023"><a xlink:title=" ">
<path fill="none" stroke="#63b8ff" d="M1567.86,-239.63C1663.78,-217.13 1882.29,-165.89 1969.03,-145.55"/>
<polygon fill="#63b8ff" stroke="#63b8ff" points="1566.82,-236.28 1557.88,-241.97 1568.41,-243.09 1566.82,-236.28"/>
</a>
</g>
</g>
<!-- Node3 -->
<g id="Node000003" class="node">
<title>Node3</title>
<g id="a_Node000003"><a xlink:href="_billboard_component_8hpp.html" target="_top" xlink:title=" ">
<polygon fill="white" stroke="#666666" points="1437.5,-151 1295.5,-151 1295.5,-121 1437.5,-121 1437.5,-151"/>
<text text-anchor="start" x="1303.5" y="-139" font-family="Helvetica,sans-Serif" font-size="10.00">src/Components/Billboard</text>
<text text-anchor="middle" x="1366.5" y="-128" font-family="Helvetica,sans-Serif" font-size="10.00">Component.hpp</text>
</a>
</g>
</g>
<!-- Node2&#45;&gt;Node3 -->
<g id="edge2_Node000002_Node000003" class="edge">
<title>Node2&#45;&gt;Node3</title>
<g id="a_edge2_Node000002_Node000003"><a xlink:title=" ">
<path fill="none" stroke="#63b8ff" d="M1441.9,-181.55C1426.33,-172.36 1406.01,-160.35 1390.39,-151.11"/>
<polygon fill="#63b8ff" stroke="#63b8ff" points="1440.5,-184.79 1450.89,-186.87 1444.06,-178.77 1440.5,-184.79"/>
</a>
</g>
</g>
<!-- Node4 -->
<g id="Node000004" class="node">
<title>Node4</title>
<g id="a_Node000004"><a xlink:href="_builders_8cpp.html" target="_top" xlink:title=" ">
<polygon fill="white" stroke="#666666" points="1346.5,-79.5 1188.5,-79.5 1188.5,-60.5 1346.5,-60.5 1346.5,-79.5"/>
<text text-anchor="middle" x="1267.5" y="-67.5" font-family="Helvetica,sans-Serif" font-size="10.00">src/Serialization/Builders.cpp</text>
</a>
</g>
</g>
<!-- Node2&#45;&gt;Node4 -->
<g id="edge31_Node000002_Node000004" class="edge">
<title>Node2&#45;&gt;Node4</title>
<g id="a_edge31_Node000002_Node000004"><a xlink:title=" ">
<path fill="none" stroke="#63b8ff" d="M1393.07,-185.29C1350.3,-177.82 1301.65,-166.31 1286.5,-151 1267.22,-131.52 1266.17,-96.26 1266.85,-79.85"/>
<polygon fill="#63b8ff" stroke="#63b8ff" points="1392.49,-188.74 1402.94,-186.96 1393.66,-181.84 1392.49,-188.74"/>
</a>
</g>
</g>
<!-- Node5 -->
<g id="Node000005" class="node">
<title>Node5</title>
<g id="a_Node000005"><a xlink:href="_rendering_system_8hpp.html" target="_top" xlink:title=" ">
<polygon fill="white" stroke="#666666" points="600.5,-79.5 414.5,-79.5 414.5,-60.5 600.5,-60.5 600.5,-79.5"/>
<text text-anchor="middle" x="507.5" y="-67.5" font-family="Helvetica,sans-Serif" font-size="10.00">src/Systems/RenderingSystem.hpp</text>
</a>
</g>
</g>
<!-- Node2&#45;&gt;Node5 -->
<g id="edge32_Node000002_Node000005" class="edge">
<title>Node2&#45;&gt;Node5</title>
<g id="a_edge32_Node000002_Node000005"><a xlink:title=" ">
<path fill="none" stroke="#63b8ff" d="M1371.47,-194C1195.71,-190.56 823.83,-179.99 698.5,-151 629.85,-135.12 554.36,-96.66 522.74,-79.51"/>
<polygon fill="#63b8ff" stroke="#63b8ff" points="1371.41,-197.5 1381.48,-194.2 1371.55,-190.51 1371.41,-197.5"/>
</a>
</g>
</g>
<!-- Node8 -->
<g id="Node000008" class="node">
<title>Node8</title>
<g id="a_Node000008"><a xlink:href="_billboard_component_u_i_8hpp.html" target="_top" xlink:title=" ">
<polygon fill="white" stroke="#666666" points="1772.5,-85 1618.5,-85 1618.5,-55 1772.5,-55 1772.5,-85"/>
<text text-anchor="start" x="1626.5" y="-73" font-family="Helvetica,sans-Serif" font-size="10.00">src/ui/Components/Billboard</text>
<text text-anchor="middle" x="1695.5" y="-62" font-family="Helvetica,sans-Serif" font-size="10.00">ComponentUI.hpp</text>
</a>
</g>
</g>
<!-- Node2&#45;&gt;Node8 -->
<g id="edge39_Node000002_Node000008" class="edge">
<title>Node2&#45;&gt;Node8</title>
<g id="a_edge39_Node000002_Node000008"><a xlink:title=" ">
<path fill="none" stroke="#63b8ff" d="M1490.13,-182.17C1533.84,-158.51 1624.56,-109.4 1669.34,-85.16"/>
<polygon fill="#63b8ff" stroke="#63b8ff" points="1488.44,-179.1 1481.31,-186.94 1491.77,-185.26 1488.44,-179.1"/>
</a>
</g>
</g>
<!-- Node10 -->
<g id="Node000010" class="node">
<title>Node10</title>
<g id="a_Node000010"><a xlink:href="_model_component_8hpp.html" target="_top" xlink:title=" ">
<polygon fill="white" stroke="#666666" points="1195.5,-145.5 989.5,-145.5 989.5,-126.5 1195.5,-126.5 1195.5,-145.5"/>
<text text-anchor="middle" x="1092.5" y="-133.5" font-family="Helvetica,sans-Serif" font-size="10.00">src/Components/ModelComponent.hpp</text>
</a>
</g>
</g>
<!-- Node2&#45;&gt;Node10 -->
<g id="edge10_Node000002_Node000010" class="edge">
<title>Node2&#45;&gt;Node10</title>
<g id="a_edge10_Node000002_Node000010"><a xlink:title=" ">
<path fill="none" stroke="#63b8ff" d="M1400.98,-185.38C1329.13,-174.11 1214.24,-156.09 1146.8,-145.52"/>
<polygon fill="#63b8ff" stroke="#63b8ff" points="1400.84,-188.9 1411.26,-186.99 1401.93,-181.99 1400.84,-188.9"/>
</a>
</g>
</g>
<!-- Node12 -->
<g id="Node000012" class="node">
<title>Node12</title>
<g id="a_Node000012"><a xlink:href="_model_component_u_i_8hpp.html" target="_top" xlink:title=" ">
<polygon fill="white" stroke="#666666" points="1562,-85 1365,-85 1365,-55 1562,-55 1562,-85"/>
<text text-anchor="start" x="1373" y="-73" font-family="Helvetica,sans-Serif" font-size="10.00">src/ui/Components/ModelComponent</text>
<text text-anchor="middle" x="1463.5" y="-62" font-family="Helvetica,sans-Serif" font-size="10.00">UI.hpp</text>
</a>
</g>
</g>
<!-- Node2&#45;&gt;Node12 -->
<g id="edge40_Node000002_Node000012" class="edge">
<title>Node2&#45;&gt;Node12</title>
<g id="a_edge40_Node000002_Node000012"><a xlink:title=" ">
<path fill="none" stroke="#63b8ff" d="M1465.2,-176.91C1464.8,-151.83 1464.09,-107.72 1463.73,-85.16"/>
<polygon fill="#63b8ff" stroke="#63b8ff" points="1461.7,-177 1465.36,-186.94 1468.7,-176.89 1461.7,-177"/>
</a>
</g>
</g>
<!-- Node13 -->
<g id="Node000013" class="node">
<title>Node13</title>
<g id="a_Node000013"><a xlink:href="_overlay_model_component_8hpp.html" target="_top" xlink:title=" ">
<polygon fill="white" stroke="#666666" points="531,-151 364,-151 364,-121 531,-121 531,-151"/>
<text text-anchor="start" x="372" y="-139" font-family="Helvetica,sans-Serif" font-size="10.00">src/Components/OverlayModel</text>
<text text-anchor="middle" x="447.5" y="-128" font-family="Helvetica,sans-Serif" font-size="10.00">Component.hpp</text>
</a>
</g>
</g>
<!-- Node2&#45;&gt;Node13 -->
<g id="edge17_Node000002_Node000013" class="edge">
<title>Node2&#45;&gt;Node13</title>
<g id="a_edge17_Node000002_Node000013"><a xlink:title=" ">
<path fill="none" stroke="#63b8ff" d="M1370.86,-191.07C1216.73,-183.7 901.92,-168.06 635.5,-151 601.37,-148.81 563.77,-146.08 531.23,-143.61"/>
<polygon fill="#63b8ff" stroke="#63b8ff" points="1371.07,-194.58 1381.23,-191.56 1371.41,-187.59 1371.07,-194.58"/>
</a>
</g>
</g>
<!-- Node15 -->
<g id="Node000015" class="node">
<title>Node15</title>
<g id="a_Node000015"><a xlink:href="_particle_emitter_component_8hpp.html" target="_top" xlink:title=" ">
<polygon fill="white" stroke="#666666" points="877.5,-151 707.5,-151 707.5,-121 877.5,-121 877.5,-151"/>
<text text-anchor="start" x="715.5" y="-139" font-family="Helvetica,sans-Serif" font-size="10.00">src/Components/ParticleEmitter</text>
<text text-anchor="middle" x="792.5" y="-128" font-family="Helvetica,sans-Serif" font-size="10.00">Component.hpp</text>
</a>
</g>
</g>
<!-- Node2&#45;&gt;Node15 -->
<g id="edge21_Node000002_Node000015" class="edge">
<title>Node2&#45;&gt;Node15</title>
<g id="a_edge21_Node000002_Node000015"><a xlink:title=" ">
<path fill="none" stroke="#63b8ff" d="M1371.24,-187.31C1239.91,-175.89 1003.84,-155.37 877.6,-144.4"/>
<polygon fill="#63b8ff" stroke="#63b8ff" points="1371.02,-190.8 1381.29,-188.18 1371.63,-183.83 1371.02,-190.8"/>
</a>
</g>
</g>
<!-- Node19 -->
<g id="Node000019" class="node">
<title>Node19</title>
<g id="a_Node000019"><a xlink:href="_asset_loaders_8hpp.html" target="_top" xlink:title=" ">
<polygon fill="white" stroke="#666666" points="1823.5,-145.5 1677.5,-145.5 1677.5,-126.5 1823.5,-126.5 1823.5,-145.5"/>
<text text-anchor="middle" x="1750.5" y="-133.5" font-family="Helvetica,sans-Serif" font-size="10.00">src/Utils/AssetLoaders.hpp</text>
</a>
</g>
</g>
<!-- Node2&#45;&gt;Node19 -->
<g id="edge33_Node000002_Node000019" class="edge">
<title>Node2&#45;&gt;Node19</title>
<g id="a_edge33_Node000002_Node000019"><a xlink:title=" ">
<path fill="none" stroke="#63b8ff" d="M1516.83,-184.96C1571.85,-173.67 1658.12,-155.96 1709.01,-145.52"/>
<polygon fill="#63b8ff" stroke="#63b8ff" points="1516.03,-181.55 1506.94,-186.99 1517.44,-188.41 1516.03,-181.55"/>
</a>
</g>
</g>
<!-- Node21 -->
<g id="Node000021" class="node">
<title>Node21</title>
<g id="a_Node000021"><a xlink:href="_filesystem_widget_8cpp.html" target="_top" xlink:title=" ">
<polygon fill="white" stroke="#666666" points="2116.5,-85 1976.5,-85 1976.5,-55 2116.5,-55 2116.5,-85"/>
<text text-anchor="start" x="1984.5" y="-73" font-family="Helvetica,sans-Serif" font-size="10.00">src/ui/widgets/Filesystem</text>
<text text-anchor="middle" x="2046.5" y="-62" font-family="Helvetica,sans-Serif" font-size="10.00">Widget.cpp</text>
</a>
</g>
</g>
<!-- Node2&#45;&gt;Node21 -->
<g id="edge41_Node000002_Node000021" class="edge">
<title>Node2&#45;&gt;Node21</title>
<g id="a_edge41_Node000002_Node000021"><a xlink:title=" ">
<path fill="none" stroke="#63b8ff" d="M1559.73,-189.28C1651.58,-182.28 1784.25,-169.43 1832.5,-151 1854.27,-142.68 1854.49,-131.07 1875.5,-121 1908.55,-105.16 1947.65,-93.27 1980.11,-85.07"/>
<polygon fill="#63b8ff" stroke="#63b8ff" points="1559.29,-185.8 1549.58,-190.04 1559.81,-192.78 1559.29,-185.8"/>
</a>
</g>
</g>
<!-- Node22 -->
<g id="Node000022" class="node">
<title>Node22</title>
<g id="a_Node000022"><a xlink:href="_inspector_widget_8cpp.html" target="_top" xlink:title=" ">
<polygon fill="white" stroke="#666666" points="2266.5,-85 2134.5,-85 2134.5,-55 2266.5,-55 2266.5,-85"/>
<text text-anchor="start" x="2142.5" y="-73" font-family="Helvetica,sans-Serif" font-size="10.00">src/ui/widgets/Inspector</text>
<text text-anchor="middle" x="2200.5" y="-62" font-family="Helvetica,sans-Serif" font-size="10.00">Widget.cpp</text>
</a>
</g>
</g>
<!-- Node2&#45;&gt;Node22 -->
<g id="edge42_Node000002_Node000022" class="edge">
<title>Node2&#45;&gt;Node22</title>
<g id="a_edge42_Node000002_Node000022"><a xlink:title=" ">
<path fill="none" stroke="#63b8ff" d="M1560.12,-190.82C1661.21,-184.79 1814.24,-172.47 1868.5,-151 1889.16,-142.82 1888.07,-129.73 1908.5,-121 1998.39,-82.57 2029.22,-101.97 2125.5,-85 2128.37,-84.49 2131.3,-83.97 2134.26,-83.44"/>
<polygon fill="#63b8ff" stroke="#63b8ff" points="1559.67,-187.34 1549.89,-191.41 1560.08,-194.32 1559.67,-187.34"/>
</a>
</g>
</g>
<!-- Node2&#45;&gt;Node23 -->
<g id="edge43_Node000002_Node000023" class="edge">
<title>Node2&#45;&gt;Node23</title>
<g id="a_edge43_Node000002_Node000023"><a xlink:title=" ">
<path fill="none" stroke="#63b8ff" d="M1559.61,-186.9C1648.38,-178.57 1785.11,-165.13 1903.5,-151 1917.25,-149.36 1932.03,-147.43 1945.95,-145.53"/>
<polygon fill="#63b8ff" stroke="#63b8ff" points="1559.19,-183.43 1549.56,-187.84 1559.85,-190.4 1559.19,-183.43"/>
</a>
</g>
</g>
<!-- Node3&#45;&gt;Node4 -->
<g id="edge3_Node000003_Node000004" class="edge">
<title>Node3&#45;&gt;Node4</title>
<g id="a_edge3_Node000003_Node000004"><a xlink:title=" ">
<path fill="none" stroke="#63b8ff" d="M1336.12,-115.36C1317.65,-103.42 1294.99,-88.77 1280.89,-79.66"/>
<polygon fill="#63b8ff" stroke="#63b8ff" points="1334.23,-118.31 1344.53,-120.8 1338.03,-112.43 1334.23,-118.31"/>
</a>
</g>
</g>
<!-- Node3&#45;&gt;Node5 -->
<g id="edge4_Node000003_Node000005" class="edge">
<title>Node3&#45;&gt;Node5</title>
<g id="a_edge4_Node000003_Node000005"><a xlink:title=" ">
<path fill="none" stroke="#63b8ff" d="M1285.06,-127.55C1259.31,-125.3 1230.72,-122.93 1204.5,-121 940.28,-101.59 873.15,-111.03 609.5,-85 594.65,-83.53 578.63,-81.53 563.79,-79.51"/>
<polygon fill="#63b8ff" stroke="#63b8ff" points="1284.89,-131.05 1295.16,-128.44 1285.5,-124.07 1284.89,-131.05"/>
</a>
</g>
</g>
<!-- Node6 -->
<g id="Node000006" class="node">
<title>Node6</title>
<g id="a_Node000006"><a xlink:href="main_8cpp.html" target="_top" xlink:title=" ">
<polygon fill="white" stroke="#666666" points="832,-19 753,-19 753,0 832,0 832,-19"/>
<text text-anchor="middle" x="792.5" y="-7" font-family="Helvetica,sans-Serif" font-size="10.00">src/main.cpp</text>
</a>
</g>
</g>
<!-- Node3&#45;&gt;Node6 -->
<g id="edge7_Node000003_Node000006" class="edge">
<title>Node3&#45;&gt;Node6</title>
<g id="a_edge7_Node000003_Node000006"><a xlink:title=" ">
<path fill="none" stroke="#63b8ff" d="M1448.05,-128.43C1521.65,-119.55 1612.41,-99.38 1570.5,-55 1544.91,-27.91 986.84,-14.48 832.02,-11.27"/>
<polygon fill="#63b8ff" stroke="#63b8ff" points="1447.33,-124.99 1437.8,-129.61 1448.13,-131.95 1447.33,-124.99"/>
</a>
</g>
</g>
<!-- Node3&#45;&gt;Node8 -->
<g id="edge8_Node000003_Node000008" class="edge">
<title>Node3&#45;&gt;Node8</title>
<g id="a_edge8_Node000003_Node000008"><a xlink:title=" ">
<path fill="none" stroke="#63b8ff" d="M1447.74,-119.2C1501.57,-108.72 1571.55,-95.11 1623.4,-85.03"/>
<polygon fill="#63b8ff" stroke="#63b8ff" points="1447.04,-115.77 1437.89,-121.11 1448.37,-122.64 1447.04,-115.77"/>
</a>
</g>
</g>
<!-- Node9 -->
<g id="Node000009" class="node">
<title>Node9</title>
<g id="a_Node000009"><a xlink:href="_properties_widget_8cpp.html" target="_top" xlink:title=" ">
<polygon fill="white" stroke="#666666" points="958,-85 821,-85 821,-55 958,-55 958,-85"/>
<text text-anchor="start" x="829" y="-73" font-family="Helvetica,sans-Serif" font-size="10.00">src/ui/widgets/Properties</text>
<text text-anchor="middle" x="889.5" y="-62" font-family="Helvetica,sans-Serif" font-size="10.00">Widget.cpp</text>
</a>
</g>
</g>
<!-- Node3&#45;&gt;Node9 -->
<g id="edge9_Node000003_Node000009" class="edge">
<title>Node3&#45;&gt;Node9</title>
<g id="a_edge9_Node000003_Node000009"><a xlink:title=" ">
<path fill="none" stroke="#63b8ff" d="M1285.24,-124.1C1193.24,-111.75 1044.93,-91.85 958.38,-80.24"/>
<polygon fill="#63b8ff" stroke="#63b8ff" points="1284.97,-127.59 1295.35,-125.45 1285.9,-120.65 1284.97,-127.59"/>
</a>
</g>
</g>
<!-- Node5&#45;&gt;Node6 -->
<g id="edge5_Node000005_Node000006" class="edge">
<title>Node5&#45;&gt;Node6</title>
<g id="a_edge5_Node000005_Node000006"><a xlink:title=" ">
<path fill="none" stroke="#63b8ff" d="M558.95,-58.44C614.64,-47.01 702.25,-29.02 752.85,-18.64"/>
<polygon fill="#63b8ff" stroke="#63b8ff" points="558.03,-55.05 548.94,-60.49 559.44,-61.91 558.03,-55.05"/>
</a>
</g>
</g>
<!-- Node7 -->
<g id="Node000007" class="node">
<title>Node7</title>
<g id="a_Node000007"><a xlink:href="_runtime_widget_8hpp.html" target="_top" xlink:title=" ">
<polygon fill="white" stroke="#666666" points="579.5,-19 395.5,-19 395.5,0 579.5,0 579.5,-19"/>
<text text-anchor="middle" x="487.5" y="-7" font-family="Helvetica,sans-Serif" font-size="10.00">src/ui/widgets/RuntimeWidget.hpp</text>
</a>
</g>
</g>
<!-- Node5&#45;&gt;Node7 -->
<g id="edge6_Node000005_Node000007" class="edge">
<title>Node5&#45;&gt;Node7</title>
<g id="a_edge6_Node000005_Node000007"><a xlink:title=" ">
<path fill="none" stroke="#63b8ff" d="M501.29,-50.82C497.68,-40.28 493.3,-27.48 490.46,-19.17"/>
<polygon fill="#63b8ff" stroke="#63b8ff" points="498,-52.04 504.55,-60.37 504.63,-49.77 498,-52.04"/>
</a>
</g>
</g>
<!-- Node10&#45;&gt;Node4 -->
<g id="edge11_Node000010_Node000004" class="edge">
<title>Node10&#45;&gt;Node4</title>
<g id="a_edge11_Node000010_Node000004"><a xlink:title=" ">
<path fill="none" stroke="#63b8ff" d="M1125.75,-122.84C1160.33,-110.2 1213.56,-90.73 1243.99,-79.6"/>
<polygon fill="#63b8ff" stroke="#63b8ff" points="1124.29,-119.65 1116.1,-126.37 1126.7,-126.22 1124.29,-119.65"/>
</a>
</g>
</g>
<!-- Node10&#45;&gt;Node5 -->
<g id="edge13_Node000010_Node000005" class="edge">
<title>Node10&#45;&gt;Node5</title>
<g id="a_edge13_Node000010_Node000005"><a xlink:title=" ">
<path fill="none" stroke="#63b8ff" d="M991.42,-125.52C893.63,-116.12 741.27,-100.86 609.5,-85 595.75,-83.34 580.97,-81.41 567.06,-79.51"/>
<polygon fill="#63b8ff" stroke="#63b8ff" points="991.31,-129.03 1001.6,-126.5 991.98,-122.06 991.31,-129.03"/>
</a>
</g>
</g>
<!-- Node10&#45;&gt;Node6 -->
<g id="edge14_Node000010_Node000006" class="edge">
<title>Node10&#45;&gt;Node6</title>
<g id="a_edge14_Node000010_Node000006"><a xlink:title=" ">
<path fill="none" stroke="#63b8ff" d="M1066.98,-121.51C1049.34,-111.91 1025.55,-98.38 1005.5,-85 987.31,-72.86 986.16,-64.57 966.5,-55 923.05,-33.85 868.42,-21.99 832.09,-15.94"/>
<polygon fill="#63b8ff" stroke="#63b8ff" points="1065.61,-124.75 1076.07,-126.42 1068.93,-118.59 1065.61,-124.75"/>
</a>
</g>
</g>
<!-- Node10&#45;&gt;Node9 -->
<g id="edge16_Node000010_Node000009" class="edge">
<title>Node10&#45;&gt;Node9</title>
<g id="a_edge16_Node000010_Node000009"><a xlink:title=" ">
<path fill="none" stroke="#63b8ff" d="M1055.53,-123.35C1021.42,-112.59 970.67,-96.59 934.27,-85.12"/>
<polygon fill="#63b8ff" stroke="#63b8ff" points="1054.53,-126.7 1065.12,-126.37 1056.64,-120.02 1054.53,-126.7"/>
</a>
</g>
</g>
<!-- Node11 -->
<g id="Node000011" class="node">
<title>Node11</title>
<g id="a_Node000011"><a xlink:href="_object_selection_system_8cpp.html" target="_top" xlink:title=" ">
<polygon fill="white" stroke="#666666" points="1170,-85 1015,-85 1015,-55 1170,-55 1170,-85"/>
<text text-anchor="start" x="1023" y="-73" font-family="Helvetica,sans-Serif" font-size="10.00">src/Systems/ObjectSelection</text>
<text text-anchor="middle" x="1092.5" y="-62" font-family="Helvetica,sans-Serif" font-size="10.00">System.cpp</text>
</a>
</g>
</g>
<!-- Node10&#45;&gt;Node11 -->
<g id="edge12_Node000010_Node000011" class="edge">
<title>Node10&#45;&gt;Node11</title>
<g id="a_edge12_Node000010_Node000011"><a xlink:title=" ">
<path fill="none" stroke="#63b8ff" d="M1092.5,-116.35C1092.5,-106.47 1092.5,-94.51 1092.5,-85.36"/>
<polygon fill="#63b8ff" stroke="#63b8ff" points="1089,-116.37 1092.5,-126.37 1096,-116.37 1089,-116.37"/>
</a>
</g>
</g>
<!-- Node10&#45;&gt;Node12 -->
<g id="edge15_Node000010_Node000012" class="edge">
<title>Node10&#45;&gt;Node12</title>
<g id="a_edge15_Node000010_Node000012"><a xlink:title=" ">
<path fill="none" stroke="#63b8ff" d="M1152.22,-124.7C1214.58,-113.94 1312.79,-97 1382.2,-85.02"/>
<polygon fill="#63b8ff" stroke="#63b8ff" points="1151.41,-121.29 1142.15,-126.44 1152.6,-128.18 1151.41,-121.29"/>
</a>
</g>
</g>
<!-- Node13&#45;&gt;Node5 -->
<g id="edge19_Node000013_Node000005" class="edge">
<title>Node13&#45;&gt;Node5</title>
<g id="a_edge19_Node000013_Node000005"><a xlink:title=" ">
<path fill="none" stroke="#63b8ff" d="M467.87,-113.27C478.59,-101.84 491.15,-88.44 499.21,-79.84"/>
<polygon fill="#63b8ff" stroke="#63b8ff" points="465.1,-111.11 460.82,-120.8 470.21,-115.89 465.1,-111.11"/>
</a>
</g>
</g>
<!-- Node13&#45;&gt;Node6 -->
<g id="edge20_Node000013_Node000006" class="edge">
<title>Node13&#45;&gt;Node6</title>
<g id="a_edge20_Node000013_Node000006"><a xlink:title=" ">
<path fill="none" stroke="#63b8ff" d="M422.94,-113.35C406.37,-96.17 390.11,-72.26 405.5,-55 428.37,-29.35 658.87,-16.38 752.89,-12.12"/>
<polygon fill="#63b8ff" stroke="#63b8ff" points="420.87,-116.22 430.46,-120.72 425.77,-111.22 420.87,-116.22"/>
</a>
</g>
</g>
<!-- Node14 -->
<g id="Node000014" class="node">
<title>Node14</title>
<g id="a_Node000014"><a xlink:href="_gizmo_system_8cpp.html" target="_top" xlink:title=" ">
<polygon fill="white" stroke="#666666" points="167,-79.5 0,-79.5 0,-60.5 167,-60.5 167,-79.5"/>
<text text-anchor="middle" x="83.5" y="-67.5" font-family="Helvetica,sans-Serif" font-size="10.00">src/Systems/GizmoSystem.cpp</text>
</a>
</g>
</g>
<!-- Node13&#45;&gt;Node14 -->
<g id="edge18_Node000013_Node000014" class="edge">
<title>Node13&#45;&gt;Node14</title>
<g id="a_edge18_Node000013_Node000014"><a xlink:title=" ">
<path fill="none" stroke="#63b8ff" d="M357.73,-119.22C286.42,-106.68 189.42,-89.62 131.94,-79.52"/>
<polygon fill="#63b8ff" stroke="#63b8ff" points="357.16,-122.67 367.62,-120.95 358.38,-115.78 357.16,-122.67"/>
</a>
</g>
</g>
<!-- Node15&#45;&gt;Node4 -->
<g id="edge22_Node000015_Node000004" class="edge">
<title>Node15&#45;&gt;Node4</title>
<g id="a_edge22_Node000015_Node000004"><a xlink:title=" ">
<path fill="none" stroke="#63b8ff" d="M888,-123.36C966.17,-113.66 1079.6,-99.18 1178.5,-85 1190.27,-83.31 1202.89,-81.39 1214.83,-79.53"/>
<polygon fill="#63b8ff" stroke="#63b8ff" points="887.18,-119.94 877.68,-124.64 888.04,-126.89 887.18,-119.94"/>
</a>
</g>
</g>
<!-- Node15&#45;&gt;Node5 -->
<g id="edge27_Node000015_Node000005" class="edge">
<title>Node15&#45;&gt;Node5</title>
<g id="a_edge27_Node000015_Node000005"><a xlink:title=" ">
<path fill="none" stroke="#63b8ff" d="M720.15,-118.75C664.52,-106.26 589.88,-89.5 545.43,-79.52"/>
<polygon fill="#63b8ff" stroke="#63b8ff" points="719.43,-122.18 729.96,-120.95 720.97,-115.35 719.43,-122.18"/>
</a>
</g>
</g>
<!-- Node15&#45;&gt;Node6 -->
<g id="edge28_Node000015_Node000006" class="edge">
<title>Node15&#45;&gt;Node6</title>
<g id="a_edge28_Node000015_Node000006"><a xlink:title=" ">
<path fill="none" stroke="#63b8ff" d="M792.5,-110.48C792.5,-82.34 792.5,-37.67 792.5,-19.07"/>
<polygon fill="#63b8ff" stroke="#63b8ff" points="789,-110.72 792.5,-120.72 796,-110.72 789,-110.72"/>
</a>
</g>
</g>
<!-- Node15&#45;&gt;Node9 -->
<g id="edge30_Node000015_Node000009" class="edge">
<title>Node15&#45;&gt;Node9</title>
<g id="a_edge30_Node000015_Node000009"><a xlink:title=" ">
<path fill="none" stroke="#63b8ff" d="M822.77,-115.03C837.45,-105.34 854.73,-93.94 868.03,-85.16"/>
<polygon fill="#63b8ff" stroke="#63b8ff" points="820.45,-112.37 814.03,-120.8 824.3,-118.21 820.45,-112.37"/>
</a>
</g>
</g>
<!-- Node16 -->
<g id="Node000016" class="node">
<title>Node16</title>
<g id="a_Node000016"><a xlink:href="_particle_system_8hpp.html" target="_top" xlink:title=" ">
<polygon fill="white" stroke="#666666" points="358,-79.5 185,-79.5 185,-60.5 358,-60.5 358,-79.5"/>
<text text-anchor="middle" x="271.5" y="-67.5" font-family="Helvetica,sans-Serif" font-size="10.00">src/Systems/ParticleSystem.hpp</text>
</a>
</g>
</g>
<!-- Node15&#45;&gt;Node16 -->
<g id="edge23_Node000015_Node000016" class="edge">
<title>Node15&#45;&gt;Node16</title>
<g id="a_edge23_Node000015_Node000016"><a xlink:title=" ">
<path fill="none" stroke="#63b8ff" d="M697.25,-123.3C594.21,-110.64 432.43,-90.77 340.82,-79.52"/>
<polygon fill="#63b8ff" stroke="#63b8ff" points="696.99,-126.79 707.34,-124.54 697.84,-119.85 696.99,-126.79"/>
</a>
</g>
</g>
<!-- Node18 -->
<g id="Node000018" class="node">
<title>Node18</title>
<g id="a_Node000018"><a xlink:href="_particle_emitter_component_u_i_8hpp.html" target="_top" xlink:title=" ">
<polygon fill="white" stroke="#666666" points="764.5,-85 618.5,-85 618.5,-55 764.5,-55 764.5,-85"/>
<text text-anchor="start" x="626.5" y="-73" font-family="Helvetica,sans-Serif" font-size="10.00">src/ui/Components/Particle</text>
<text text-anchor="middle" x="691.5" y="-62" font-family="Helvetica,sans-Serif" font-size="10.00">EmitterComponentUI.hpp</text>
</a>
</g>
</g>
<!-- Node15&#45;&gt;Node18 -->
<g id="edge29_Node000015_Node000018" class="edge">
<title>Node15&#45;&gt;Node18</title>
<g id="a_edge29_Node000015_Node000018"><a xlink:title=" ">
<path fill="none" stroke="#63b8ff" d="M761.41,-115.3C746.04,-105.56 727.83,-94.02 713.85,-85.16"/>
<polygon fill="#63b8ff" stroke="#63b8ff" points="759.76,-118.4 770.08,-120.8 763.51,-112.49 759.76,-118.4"/>
</a>
</g>
</g>
<!-- Node16&#45;&gt;Node6 -->
<g id="edge25_Node000016_Node000006" class="edge">
<title>Node16&#45;&gt;Node6</title>
<g id="a_edge25_Node000016_Node000006"><a xlink:title=" ">
<path fill="none" stroke="#63b8ff" d="M340.81,-59.09C351.42,-57.66 362.25,-56.25 372.5,-55 512.06,-37.94 678.19,-21.47 752.79,-14.28"/>
<polygon fill="#63b8ff" stroke="#63b8ff" points="340.18,-55.65 330.74,-60.46 341.12,-62.58 340.18,-55.65"/>
</a>
</g>
</g>
<!-- Node16&#45;&gt;Node7 -->
<g id="edge26_Node000016_Node000007" class="edge">
<title>Node16&#45;&gt;Node7</title>
<g id="a_edge26_Node000016_Node000007"><a xlink:title=" ">
<path fill="none" stroke="#63b8ff" d="M312.77,-57.82C354.54,-46.51 418.2,-29.27 456.05,-19.02"/>
<polygon fill="#63b8ff" stroke="#63b8ff" points="311.65,-54.5 302.91,-60.49 313.48,-61.26 311.65,-54.5"/>
</a>
</g>
</g>
<!-- Node17 -->
<g id="Node000017" class="node">
<title>Node17</title>
<g id="a_Node000017"><a xlink:href="_particle_system_8cpp.html" target="_top" xlink:title=" ">
<polygon fill="white" stroke="#666666" points="357.5,-19 185.5,-19 185.5,0 357.5,0 357.5,-19"/>
<text text-anchor="middle" x="271.5" y="-7" font-family="Helvetica,sans-Serif" font-size="10.00">src/Systems/ParticleSystem.cpp</text>
</a>
</g>
</g>
<!-- Node16&#45;&gt;Node17 -->
<g id="edge24_Node000016_Node000017" class="edge">
<title>Node16&#45;&gt;Node17</title>
<g id="a_edge24_Node000016_Node000017"><a xlink:title=" ">
<path fill="none" stroke="#63b8ff" d="M271.5,-50.16C271.5,-39.74 271.5,-27.3 271.5,-19.17"/>
<polygon fill="#63b8ff" stroke="#63b8ff" points="268,-50.37 271.5,-60.37 275,-50.37 268,-50.37"/>
</a>
</g>
</g>
<!-- Node19&#45;&gt;Node4 -->
<g id="edge34_Node000019_Node000004" class="edge">
<title>Node19&#45;&gt;Node4</title>
<g id="a_edge34_Node000019_Node000004"><a xlink:title=" ">
<path fill="none" stroke="#63b8ff" d="M1667.59,-125.28C1587.59,-115.72 1463.12,-100.37 1355.5,-85 1343.86,-83.34 1331.38,-81.43 1319.57,-79.57"/>
<polygon fill="#63b8ff" stroke="#63b8ff" points="1667.26,-128.77 1677.6,-126.48 1668.09,-121.82 1667.26,-128.77"/>
</a>
</g>
</g>
<!-- Node19&#45;&gt;Node6 -->
<g id="edge36_Node000019_Node000006" class="edge">
<title>Node19&#45;&gt;Node6</title>
<g id="a_edge36_Node000019_Node000006"><a xlink:title=" ">
<path fill="none" stroke="#63b8ff" d="M1765.9,-118.59C1780.7,-100.86 1798.48,-72.76 1781.5,-55 1748.17,-20.14 1012.71,-12.2 832.22,-10.77"/>
<polygon fill="#63b8ff" stroke="#63b8ff" points="1763.03,-116.56 1759.05,-126.38 1768.29,-121.19 1763.03,-116.56"/>
</a>
</g>
</g>
<!-- Node20 -->
<g id="Node000020" class="node">
<title>Node20</title>
<g id="a_Node000020"><a xlink:href="_asset_utils_8cpp.html" target="_top" xlink:title=" ">
<polygon fill="white" stroke="#666666" points="1958,-79.5 1829,-79.5 1829,-60.5 1958,-60.5 1958,-79.5"/>
<text text-anchor="middle" x="1893.5" y="-67.5" font-family="Helvetica,sans-Serif" font-size="10.00">src/Utils/AssetUtils.cpp</text>
</a>
</g>
</g>
<!-- Node19&#45;&gt;Node20 -->
<g id="edge35_Node000019_Node000020" class="edge">
<title>Node19&#45;&gt;Node20</title>
<g id="a_edge35_Node000019_Node000020"><a xlink:title=" ">
<path fill="none" stroke="#63b8ff" d="M1779.11,-122.19C1807.3,-109.58 1849.58,-90.66 1874.06,-79.7"/>
<polygon fill="#63b8ff" stroke="#63b8ff" points="1777.48,-119.09 1769.79,-126.37 1780.34,-125.48 1777.48,-119.09"/>
</a>
</g>
</g>
<!-- Node19&#45;&gt;Node21 -->
<g id="edge37_Node000019_Node000021" class="edge">
<title>Node19&#45;&gt;Node21</title>
<g id="a_edge37_Node000019_Node000021"><a xlink:title=" ">
<path fill="none" stroke="#63b8ff" d="M1800.01,-124.3C1849.84,-113.52 1926.94,-96.85 1981.64,-85.02"/>
<polygon fill="#63b8ff" stroke="#63b8ff" points="1799.15,-120.9 1790.11,-126.44 1800.63,-127.74 1799.15,-120.9"/>
</a>
</g>
</g>
<!-- Node19&#45;&gt;Node22 -->
<g id="edge38_Node000019_Node000022" class="edge">
<title>Node19&#45;&gt;Node22</title>
<g id="a_edge38_Node000019_Node000022"><a xlink:title=" ">
<path fill="none" stroke="#63b8ff" d="M1832.91,-125.26C1909.01,-115.97 2025.1,-101.05 2125.5,-85 2128.38,-84.54 2131.31,-84.06 2134.28,-83.55"/>
<polygon fill="#63b8ff" stroke="#63b8ff" points="1832.41,-121.8 1822.9,-126.48 1833.25,-128.75 1832.41,-121.8"/>
</a>
</g>
</g>
</g>
</svg>
