<?xml version="1.0" encoding="UTF-8" standalone="no"?>
<!DOCTYPE svg PUBLIC "-//W3C//DTD SVG 1.1//EN"
 "http://www.w3.org/Graphics/SVG/1.1/DTD/svg11.dtd">
<!-- Generated by graphviz version 2.43.0 (0)
 -->
<!-- Title: src/python/Interpreter.hpp Pages: 1 -->
<svg width="768pt" height="95pt"
 viewBox="0.00 0.00 767.50 95.00" xmlns="http://www.w3.org/2000/svg" xmlns:xlink="http://www.w3.org/1999/xlink">
<g id="graph0" class="graph" transform="scale(1 1) rotate(0) translate(4 91)">
<title>src/python/Interpreter.hpp</title>
<polygon fill="white" stroke="transparent" points="-4,4 -4,-91 763.5,-91 763.5,4 -4,4"/>
<!-- Node1 -->
<g id="node1" class="node">
<title>Node1</title>
<g id="a_node1"><a xlink:title=" ">
<polygon fill="#bfbfbf" stroke="black" points="335.5,-67.5 335.5,-86.5 478.5,-86.5 478.5,-67.5 335.5,-67.5"/>
<text text-anchor="middle" x="407" y="-74.5" font-family="Helvetica,sans-Serif" font-size="10.00">src/python/Interpreter.hpp</text>
</a>
</g>
</g>
<!-- Node2 -->
<g id="node2" class="node">
<title>Node2</title>
<g id="a_node2"><a xlink:href="_interpreter_8cpp.html" target="_top" xlink:title=" ">
<polygon fill="white" stroke="black" points="0,-6 0,-25 142,-25 142,-6 0,-6"/>
<text text-anchor="middle" x="71" y="-13" font-family="Helvetica,sans-Serif" font-size="10.00">src/python/Interpreter.cpp</text>
</a>
</g>
</g>
<!-- Node1&#45;&gt;Node2 -->
<g id="edge1" class="edge">
<title>Node1&#45;&gt;Node2</title>
<path fill="none" stroke="midnightblue" d="M347.88,-65.7C295.99,-56.64 218.47,-43.04 151,-31 140.3,-29.09 128.8,-27.02 117.95,-25.05"/>
<polygon fill="midnightblue" stroke="midnightblue" points="347.46,-69.18 357.91,-67.45 348.66,-62.28 347.46,-69.18"/>
</g>
<!-- Node3 -->
<g id="node3" class="node">
<title>Node3</title>
<g id="a_node3"><a xlink:href="_static_analysis_8cpp.html" target="_top" xlink:title=" ">
<polygon fill="white" stroke="black" points="160,-6 160,-25 320,-25 320,-6 160,-6"/>
<text text-anchor="middle" x="240" y="-13" font-family="Helvetica,sans-Serif" font-size="10.00">src/python/StaticAnalysis.cpp</text>
</a>
</g>
</g>
<!-- Node1&#45;&gt;Node3 -->
<g id="edge2" class="edge">
<title>Node1&#45;&gt;Node3</title>
<path fill="none" stroke="midnightblue" d="M373.55,-64.08C341.09,-52.52 292.63,-35.25 263.88,-25.01"/>
<polygon fill="midnightblue" stroke="midnightblue" points="372.48,-67.42 383.07,-67.48 374.83,-60.82 372.48,-67.42"/>
</g>
<!-- Node4 -->
<g id="node4" class="node">
<title>Node4</title>
<g id="a_node4"><a xlink:href="_script_u_i_component_8cpp.html" target="_top" xlink:title=" ">
<polygon fill="white" stroke="black" points="338.5,-0.5 338.5,-30.5 475.5,-30.5 475.5,-0.5 338.5,-0.5"/>
<text text-anchor="start" x="346.5" y="-18.5" font-family="Helvetica,sans-Serif" font-size="10.00">src/ui/components/Script</text>
<text text-anchor="middle" x="407" y="-7.5" font-family="Helvetica,sans-Serif" font-size="10.00">UIComponent.cpp</text>
</a>
</g>
</g>
<!-- Node1&#45;&gt;Node4 -->
<g id="edge3" class="edge">
<title>Node1&#45;&gt;Node4</title>
<path fill="none" stroke="midnightblue" d="M407,-57.23C407,-48.59 407,-38.5 407,-30.52"/>
<polygon fill="midnightblue" stroke="midnightblue" points="403.5,-57.48 407,-67.48 410.5,-57.48 403.5,-57.48"/>
</g>
<!-- Node5 -->
<g id="node5" class="node">
<title>Node5</title>
<g id="a_node5"><a xlink:href="_u_i_8cpp.html" target="_top" xlink:title=" ">
<polygon fill="white" stroke="black" points="493.5,-6 493.5,-25 570.5,-25 570.5,-6 493.5,-6"/>
<text text-anchor="middle" x="532" y="-13" font-family="Helvetica,sans-Serif" font-size="10.00">src/ui/UI.cpp</text>
</a>
</g>
</g>
<!-- Node1&#45;&gt;Node5 -->
<g id="edge4" class="edge">
<title>Node1&#45;&gt;Node5</title>
<path fill="none" stroke="midnightblue" d="M433.94,-63.17C458.2,-51.63 493.16,-34.99 514.12,-25.01"/>
<polygon fill="midnightblue" stroke="midnightblue" points="432.43,-60.02 424.91,-67.48 435.44,-66.34 432.43,-60.02"/>
</g>
<!-- Node6 -->
<g id="node6" class="node">
<title>Node6</title>
<g id="a_node6"><a xlink:href="_scene_widget_8cpp.html" target="_top" xlink:title=" ">
<polygon fill="white" stroke="black" points="588.5,-6 588.5,-25 759.5,-25 759.5,-6 588.5,-6"/>
<text text-anchor="middle" x="674" y="-13" font-family="Helvetica,sans-Serif" font-size="10.00">src/ui/widgets/SceneWidget.cpp</text>
</a>
</g>
</g>
<!-- Node1&#45;&gt;Node6 -->
<g id="edge5" class="edge">
<title>Node1&#45;&gt;Node6</title>
<path fill="none" stroke="midnightblue" d="M455.2,-65.26C507,-53.72 588.27,-35.61 635.82,-25.01"/>
<polygon fill="midnightblue" stroke="midnightblue" points="454.25,-61.88 445.25,-67.48 455.78,-68.72 454.25,-61.88"/>
</g>
</g>
</svg>
