<?xml version="1.0" encoding="UTF-8" standalone="no"?>
<!DOCTYPE svg PUBLIC "-//W3C//DTD SVG 1.1//EN"
 "http://www.w3.org/Graphics/SVG/1.1/DTD/svg11.dtd">
<!-- Generated by graphviz version 2.43.0 (0)
 -->
<!-- Title: src/python/Interpreter.hpp Pages: 1 -->
<svg width="720pt" height="308pt"
 viewBox="0.00 0.00 720.00 308.00" xmlns="http://www.w3.org/2000/svg" xmlns:xlink="http://www.w3.org/1999/xlink">
<g id="graph0" class="graph" transform="scale(1 1) rotate(0) translate(4 304)">
<title>src/python/Interpreter.hpp</title>
<polygon fill="white" stroke="transparent" points="-4,4 -4,-304 716,-304 716,4 -4,4"/>
<!-- Node1 -->
<g id="node1" class="node">
<title>Node1</title>
<g id="a_node1"><a xlink:title=" ">
<polygon fill="#bfbfbf" stroke="black" points="173,-280.5 173,-299.5 316,-299.5 316,-280.5 173,-280.5"/>
<text text-anchor="middle" x="244.5" y="-287.5" font-family="Helvetica,sans-Serif" font-size="10.00">src/python/Interpreter.hpp</text>
</a>
</g>
</g>
<!-- Node2 -->
<g id="node2" class="node">
<title>Node2</title>
<g id="a_node2"><a xlink:title=" ">
<polygon fill="white" stroke="#bfbfbf" points="0,-224.5 0,-243.5 107,-243.5 107,-224.5 0,-224.5"/>
<text text-anchor="middle" x="53.5" y="-231.5" font-family="Helvetica,sans-Serif" font-size="10.00">pybind11/embed.h</text>
</a>
</g>
</g>
<!-- Node1&#45;&gt;Node2 -->
<g id="edge1" class="edge">
<title>Node1&#45;&gt;Node2</title>
<path fill="none" stroke="midnightblue" d="M214.24,-280.44C181.54,-271.2 129.32,-256.44 93.32,-246.26"/>
<polygon fill="midnightblue" stroke="midnightblue" points="94.2,-242.87 83.62,-243.52 92.29,-249.61 94.2,-242.87"/>
</g>
<!-- Node3 -->
<g id="node3" class="node">
<title>Node3</title>
<g id="a_node3"><a xlink:title=" ">
<polygon fill="white" stroke="#bfbfbf" points="125,-224.5 125,-243.5 244,-243.5 244,-224.5 125,-224.5"/>
<text text-anchor="middle" x="184.5" y="-231.5" font-family="Helvetica,sans-Serif" font-size="10.00">pybind11/pybind11.h</text>
</a>
</g>
</g>
<!-- Node1&#45;&gt;Node3 -->
<g id="edge2" class="edge">
<title>Node1&#45;&gt;Node3</title>
<path fill="none" stroke="midnightblue" d="M234.86,-280.32C225.99,-272.34 212.63,-260.31 201.89,-250.65"/>
<polygon fill="midnightblue" stroke="midnightblue" points="204.09,-247.92 194.32,-243.83 199.41,-253.13 204.09,-247.92"/>
</g>
<!-- Node4 -->
<g id="node4" class="node">
<title>Node4</title>
<g id="a_node4"><a xlink:title=" ">
<polygon fill="white" stroke="#bfbfbf" points="262.5,-224.5 262.5,-243.5 348.5,-243.5 348.5,-224.5 262.5,-224.5"/>
<text text-anchor="middle" x="305.5" y="-231.5" font-family="Helvetica,sans-Serif" font-size="10.00">pybind11/stl.h</text>
</a>
</g>
</g>
<!-- Node1&#45;&gt;Node4 -->
<g id="edge3" class="edge">
<title>Node1&#45;&gt;Node4</title>
<path fill="none" stroke="midnightblue" d="M254.3,-280.32C263.32,-272.34 276.91,-260.31 287.82,-250.65"/>
<polygon fill="midnightblue" stroke="midnightblue" points="290.35,-253.08 295.52,-243.83 285.71,-247.84 290.35,-253.08"/>
</g>
<!-- Node5 -->
<g id="node5" class="node">
<title>Node5</title>
<g id="a_node5"><a xlink:href="_renderer_8hpp.html" target="_top" xlink:title=" ">
<polygon fill="white" stroke="black" points="367,-224.5 367,-243.5 492,-243.5 492,-224.5 367,-224.5"/>
<text text-anchor="middle" x="429.5" y="-231.5" font-family="Helvetica,sans-Serif" font-size="10.00">renderer/Renderer.hpp</text>
</a>
</g>
</g>
<!-- Node1&#45;&gt;Node5 -->
<g id="edge4" class="edge">
<title>Node1&#45;&gt;Node5</title>
<path fill="none" stroke="midnightblue" d="M273.81,-280.44C305.34,-271.24 355.63,-256.56 390.49,-246.39"/>
<polygon fill="midnightblue" stroke="midnightblue" points="391.7,-249.68 400.32,-243.52 389.74,-242.96 391.7,-249.68"/>
</g>
<!-- Node6 -->
<g id="node6" class="node">
<title>Node6</title>
<g id="a_node6"><a xlink:href="_game_8hpp.html" target="_top" xlink:title="Contains the declaration of the Game class, representing the game environment.">
<polygon fill="white" stroke="black" points="380.5,-168.5 380.5,-187.5 478.5,-187.5 478.5,-168.5 380.5,-168.5"/>
<text text-anchor="middle" x="429.5" y="-175.5" font-family="Helvetica,sans-Serif" font-size="10.00">game/Game.hpp</text>
</a>
</g>
</g>
<!-- Node5&#45;&gt;Node6 -->
<g id="edge5" class="edge">
<title>Node5&#45;&gt;Node6</title>
<path fill="none" stroke="midnightblue" d="M429.5,-224.08C429.5,-217.01 429.5,-206.86 429.5,-197.99"/>
<polygon fill="midnightblue" stroke="midnightblue" points="433,-197.75 429.5,-187.75 426,-197.75 433,-197.75"/>
</g>
<!-- Node7 -->
<g id="node7" class="node">
<title>Node7</title>
<g id="a_node7"><a xlink:title=" ">
<polygon fill="white" stroke="#bfbfbf" points="359.5,-56.5 359.5,-75.5 417.5,-75.5 417.5,-56.5 359.5,-56.5"/>
<text text-anchor="middle" x="388.5" y="-63.5" font-family="Helvetica,sans-Serif" font-size="10.00">memory</text>
</a>
</g>
</g>
<!-- Node6&#45;&gt;Node7 -->
<g id="edge6" class="edge">
<title>Node6&#45;&gt;Node7</title>
<path fill="none" stroke="midnightblue" d="M426.28,-168.37C419.64,-150.54 404.26,-109.3 395.31,-85.27"/>
<polygon fill="midnightblue" stroke="midnightblue" points="398.47,-83.74 391.7,-75.59 391.92,-86.18 398.47,-83.74"/>
</g>
<!-- Node8 -->
<g id="node8" class="node">
<title>Node8</title>
<g id="a_node8"><a xlink:title=" ">
<polygon fill="white" stroke="#bfbfbf" points="436,-56.5 436,-75.5 483,-75.5 483,-56.5 436,-56.5"/>
<text text-anchor="middle" x="459.5" y="-63.5" font-family="Helvetica,sans-Serif" font-size="10.00">vector</text>
</a>
</g>
</g>
<!-- Node6&#45;&gt;Node8 -->
<g id="edge7" class="edge">
<title>Node6&#45;&gt;Node8</title>
<path fill="none" stroke="midnightblue" d="M431.85,-168.37C436.72,-150.54 447.96,-109.3 454.52,-85.27"/>
<polygon fill="midnightblue" stroke="midnightblue" points="457.9,-86.16 457.16,-75.59 451.15,-84.32 457.9,-86.16"/>
</g>
<!-- Node9 -->
<g id="node9" class="node">
<title>Node9</title>
<g id="a_node9"><a xlink:href="_game_object_8hpp.html" target="_top" xlink:title="Contains the declaration of the GameObject class, representing a game object in the system.">
<polygon fill="white" stroke="black" points="458,-112.5 458,-131.5 587,-131.5 587,-112.5 458,-112.5"/>
<text text-anchor="middle" x="522.5" y="-119.5" font-family="Helvetica,sans-Serif" font-size="10.00">game/GameObject.hpp</text>
</a>
</g>
</g>
<!-- Node6&#45;&gt;Node9 -->
<g id="edge8" class="edge">
<title>Node6&#45;&gt;Node9</title>
<path fill="none" stroke="midnightblue" d="M444.44,-168.32C459.09,-159.82 481.63,-146.73 498.74,-136.8"/>
<polygon fill="midnightblue" stroke="midnightblue" points="500.7,-139.7 507.6,-131.65 497.19,-133.65 500.7,-139.7"/>
</g>
<!-- Node9&#45;&gt;Node7 -->
<g id="edge9" class="edge">
<title>Node9&#45;&gt;Node7</title>
<path fill="none" stroke="midnightblue" d="M501.27,-112.44C479.12,-103.52 444.18,-89.44 419.06,-79.32"/>
<polygon fill="midnightblue" stroke="midnightblue" points="420.22,-76.01 409.63,-75.52 417.6,-82.5 420.22,-76.01"/>
</g>
<!-- Node9&#45;&gt;Node8 -->
<g id="edge11" class="edge">
<title>Node9&#45;&gt;Node8</title>
<path fill="none" stroke="midnightblue" d="M512.38,-112.32C502.97,-104.26 488.76,-92.08 477.43,-82.37"/>
<polygon fill="midnightblue" stroke="midnightblue" points="479.68,-79.68 469.81,-75.83 475.12,-85 479.68,-79.68"/>
</g>
<!-- Node10 -->
<g id="node10" class="node">
<title>Node10</title>
<g id="a_node10"><a xlink:title=" ">
<polygon fill="white" stroke="#bfbfbf" points="501.5,-56.5 501.5,-75.5 545.5,-75.5 545.5,-56.5 501.5,-56.5"/>
<text text-anchor="middle" x="523.5" y="-63.5" font-family="Helvetica,sans-Serif" font-size="10.00">string</text>
</a>
</g>
</g>
<!-- Node9&#45;&gt;Node10 -->
<g id="edge10" class="edge">
<title>Node9&#45;&gt;Node10</title>
<path fill="none" stroke="midnightblue" d="M522.67,-112.08C522.8,-105.01 522.98,-94.86 523.15,-85.99"/>
<polygon fill="midnightblue" stroke="midnightblue" points="526.65,-85.81 523.34,-75.75 519.65,-85.68 526.65,-85.81"/>
</g>
<!-- Node11 -->
<g id="node11" class="node">
<title>Node11</title>
<g id="a_node11"><a xlink:href="_entity_8hpp.html" target="_top" xlink:title=" ">
<polygon fill="white" stroke="black" points="564,-56.5 564,-75.5 653,-75.5 653,-56.5 564,-56.5"/>
<text text-anchor="middle" x="608.5" y="-63.5" font-family="Helvetica,sans-Serif" font-size="10.00">core/Entity.hpp</text>
</a>
</g>
</g>
<!-- Node9&#45;&gt;Node11 -->
<g id="edge12" class="edge">
<title>Node9&#45;&gt;Node11</title>
<path fill="none" stroke="midnightblue" d="M536.32,-112.32C549.73,-103.9 570.32,-90.97 586.09,-81.07"/>
<polygon fill="midnightblue" stroke="midnightblue" points="588.11,-83.94 594.72,-75.65 584.39,-78.01 588.11,-83.94"/>
</g>
<!-- Node12 -->
<g id="node12" class="node">
<title>Node12</title>
<g id="a_node12"><a xlink:title=" ">
<polygon fill="white" stroke="#bfbfbf" points="480.5,-0.5 480.5,-19.5 610.5,-19.5 610.5,-0.5 480.5,-0.5"/>
<text text-anchor="middle" x="545.5" y="-7.5" font-family="Helvetica,sans-Serif" font-size="10.00">glm/gtc/quaternion.hpp</text>
</a>
</g>
</g>
<!-- Node11&#45;&gt;Node12 -->
<g id="edge13" class="edge">
<title>Node11&#45;&gt;Node12</title>
<path fill="none" stroke="midnightblue" d="M598.38,-56.32C588.97,-48.26 574.76,-36.08 563.43,-26.37"/>
<polygon fill="midnightblue" stroke="midnightblue" points="565.68,-23.68 555.81,-19.83 561.12,-29 565.68,-23.68"/>
</g>
<!-- Node13 -->
<g id="node13" class="node">
<title>Node13</title>
<g id="a_node13"><a xlink:title=" ">
<polygon fill="white" stroke="#bfbfbf" points="629,-0.5 629,-19.5 712,-19.5 712,-0.5 629,-0.5"/>
<text text-anchor="middle" x="670.5" y="-7.5" font-family="Helvetica,sans-Serif" font-size="10.00">glm/vec3.hpp</text>
</a>
</g>
</g>
<!-- Node11&#45;&gt;Node13 -->
<g id="edge14" class="edge">
<title>Node11&#45;&gt;Node13</title>
<path fill="none" stroke="midnightblue" d="M618.46,-56.32C627.63,-48.34 641.44,-36.31 652.53,-26.65"/>
<polygon fill="midnightblue" stroke="midnightblue" points="655.12,-29.04 660.36,-19.83 650.52,-23.76 655.12,-29.04"/>
</g>
</g>
</svg>
