<?xml version="1.0" encoding="UTF-8" standalone="no"?>
<!DOCTYPE svg PUBLIC "-//W3C//DTD SVG 1.1//EN"
 "http://www.w3.org/Graphics/SVG/1.1/DTD/svg11.dtd">
<!-- Generated by graphviz version 2.43.0 (0)
 -->
<!-- Title: src/AssetManager/Material.hpp Pages: 1 -->
<svg width="1018pt" height="159pt"
 viewBox="0.00 0.00 1018.00 159.00" xmlns="http://www.w3.org/2000/svg" xmlns:xlink="http://www.w3.org/1999/xlink">
<g id="graph0" class="graph" transform="scale(1 1) rotate(0) translate(4 155)">
<title>src/AssetManager/Material.hpp</title>
<!-- Node1 -->
<g id="Node000001" class="node">
<title>Node1</title>
<g id="a_Node000001"><a xlink:title=" ">
<polygon fill="#999999" stroke="#666666" points="543.5,-151 375.5,-151 375.5,-132 543.5,-132 543.5,-151"/>
<text text-anchor="middle" x="459.5" y="-139" font-family="Helvetica,sans-Serif" font-size="10.00">src/AssetManager/Material.hpp</text>
</a>
</g>
</g>
<!-- Node2 -->
<g id="Node000002" class="node">
<title>Node2</title>
<g id="a_Node000002"><a xlink:href="_material_8cpp.html" target="_top" xlink:title=" ">
<polygon fill="white" stroke="#666666" points="256,-90.5 89,-90.5 89,-71.5 256,-71.5 256,-90.5"/>
<text text-anchor="middle" x="172.5" y="-78.5" font-family="Helvetica,sans-Serif" font-size="10.00">src/AssetManager/Material.cpp</text>
</a>
</g>
</g>
<!-- Node1&#45;&gt;Node2 -->
<g id="edge1_Node000001_Node000002" class="edge">
<title>Node1&#45;&gt;Node2</title>
<g id="a_edge1_Node000001_Node000002"><a xlink:title=" ">
<path fill="none" stroke="#63b8ff" d="M407.8,-129.96C352.4,-118.67 265.53,-100.96 214.28,-90.52"/>
<polygon fill="#63b8ff" stroke="#63b8ff" points="407.27,-133.43 417.77,-131.99 408.67,-126.57 407.27,-133.43"/>
</a>
</g>
</g>
<!-- Node3 -->
<g id="Node000003" class="node">
<title>Node3</title>
<g id="a_Node000003"><a xlink:href="_model_component_8hpp.html" target="_top" xlink:title=" ">
<polygon fill="white" stroke="#666666" points="665.5,-90.5 459.5,-90.5 459.5,-71.5 665.5,-71.5 665.5,-90.5"/>
<text text-anchor="middle" x="562.5" y="-78.5" font-family="Helvetica,sans-Serif" font-size="10.00">src/Components/ModelComponent.hpp</text>
</a>
</g>
</g>
<!-- Node1&#45;&gt;Node3 -->
<g id="edge2_Node000001_Node000003" class="edge">
<title>Node1&#45;&gt;Node3</title>
<g id="a_edge2_Node000001_Node000003"><a xlink:title=" ">
<path fill="none" stroke="#63b8ff" d="M483.4,-126.92C503.09,-115.74 530.4,-100.23 547.24,-90.67"/>
<polygon fill="#63b8ff" stroke="#63b8ff" points="481.66,-123.89 474.7,-131.87 485.12,-129.97 481.66,-123.89"/>
</a>
</g>
</g>
<!-- Node7 -->
<g id="Node000007" class="node">
<title>Node7</title>
<g id="a_Node000007"><a xlink:href="_model_component_u_i_8hpp.html" target="_top" xlink:title=" ">
<polygon fill="white" stroke="#666666" points="1010,-30 813,-30 813,0 1010,0 1010,-30"/>
<text text-anchor="start" x="821" y="-18" font-family="Helvetica,sans-Serif" font-size="10.00">src/ui/Components/ModelComponent</text>
<text text-anchor="middle" x="911.5" y="-7" font-family="Helvetica,sans-Serif" font-size="10.00">UI.hpp</text>
</a>
</g>
</g>
<!-- Node1&#45;&gt;Node7 -->
<g id="edge12_Node000001_Node000007" class="edge">
<title>Node1&#45;&gt;Node7</title>
<g id="a_edge12_Node000001_Node000007"><a xlink:title=" ">
<path fill="none" stroke="#63b8ff" d="M519.54,-130.1C562.91,-122.09 622.73,-110.04 674.5,-96 746.38,-76.51 828.32,-47.23 874.58,-30.02"/>
<polygon fill="#63b8ff" stroke="#63b8ff" points="518.64,-126.7 509.43,-131.94 519.9,-133.59 518.64,-126.7"/>
</a>
</g>
</g>
<!-- Node9 -->
<g id="Node000009" class="node">
<title>Node9</title>
<g id="a_Node000009"><a xlink:href="_overlay_model_component_8hpp.html" target="_top" xlink:title=" ">
<polygon fill="white" stroke="#666666" points="441,-96 274,-96 274,-66 441,-66 441,-96"/>
<text text-anchor="start" x="282" y="-84" font-family="Helvetica,sans-Serif" font-size="10.00">src/Components/OverlayModel</text>
<text text-anchor="middle" x="357.5" y="-73" font-family="Helvetica,sans-Serif" font-size="10.00">Component.hpp</text>
</a>
</g>
</g>
<!-- Node1&#45;&gt;Node9 -->
<g id="edge8_Node000001_Node000009" class="edge">
<title>Node1&#45;&gt;Node9</title>
<g id="a_edge8_Node000001_Node000009"><a xlink:title=" ">
<path fill="none" stroke="#63b8ff" d="M435.64,-126.81C419.54,-117.58 398.36,-105.43 382.11,-96.11"/>
<polygon fill="#63b8ff" stroke="#63b8ff" points="434.03,-129.93 444.45,-131.87 437.52,-123.86 434.03,-129.93"/>
</a>
</g>
</g>
<!-- Node4 -->
<g id="Node000004" class="node">
<title>Node4</title>
<g id="a_Node000004"><a xlink:href="_object_selection_system_8cpp.html" target="_top" xlink:title=" ">
<polygon fill="white" stroke="#666666" points="640,-30 485,-30 485,0 640,0 640,-30"/>
<text text-anchor="start" x="493" y="-18" font-family="Helvetica,sans-Serif" font-size="10.00">src/Systems/ObjectSelection</text>
<text text-anchor="middle" x="562.5" y="-7" font-family="Helvetica,sans-Serif" font-size="10.00">System.cpp</text>
</a>
</g>
</g>
<!-- Node3&#45;&gt;Node4 -->
<g id="edge3_Node000003_Node000004" class="edge">
<title>Node3&#45;&gt;Node4</title>
<g id="a_edge3_Node000003_Node000004"><a xlink:title=" ">
<path fill="none" stroke="#63b8ff" d="M562.5,-61.35C562.5,-51.47 562.5,-39.51 562.5,-30.36"/>
<polygon fill="#63b8ff" stroke="#63b8ff" points="559,-61.37 562.5,-71.37 566,-61.37 559,-61.37"/>
</a>
</g>
</g>
<!-- Node5 -->
<g id="Node000005" class="node">
<title>Node5</title>
<g id="a_Node000005"><a xlink:href="_rendering_system_8cpp.html" target="_top" xlink:title=" ">
<polygon fill="white" stroke="#666666" points="370,-24.5 185,-24.5 185,-5.5 370,-5.5 370,-24.5"/>
<text text-anchor="middle" x="277.5" y="-12.5" font-family="Helvetica,sans-Serif" font-size="10.00">src/Systems/RenderingSystem.cpp</text>
</a>
</g>
</g>
<!-- Node3&#45;&gt;Node5 -->
<g id="edge4_Node000003_Node000005" class="edge">
<title>Node3&#45;&gt;Node5</title>
<g id="a_edge4_Node000003_Node000005"><a xlink:title=" ">
<path fill="none" stroke="#63b8ff" d="M514.31,-69.18C458.21,-56.58 366.7,-36.03 315.41,-24.51"/>
<polygon fill="#63b8ff" stroke="#63b8ff" points="513.84,-72.66 524.36,-71.44 515.37,-65.83 513.84,-72.66"/>
</a>
</g>
</g>
<!-- Node6 -->
<g id="Node000006" class="node">
<title>Node6</title>
<g id="a_Node000006"><a xlink:href="main_8cpp.html" target="_top" xlink:title=" ">
<polygon fill="white" stroke="#666666" points="467,-24.5 388,-24.5 388,-5.5 467,-5.5 467,-24.5"/>
<text text-anchor="middle" x="427.5" y="-12.5" font-family="Helvetica,sans-Serif" font-size="10.00">src/main.cpp</text>
</a>
</g>
</g>
<!-- Node3&#45;&gt;Node6 -->
<g id="edge5_Node000003_Node000006" class="edge">
<title>Node3&#45;&gt;Node6</title>
<g id="a_edge5_Node000003_Node000006"><a xlink:title=" ">
<path fill="none" stroke="#63b8ff" d="M535.14,-67.03C508.53,-54.42 468.87,-35.61 445.85,-24.7"/>
<polygon fill="#63b8ff" stroke="#63b8ff" points="533.76,-70.25 544.29,-71.37 536.76,-63.92 533.76,-70.25"/>
</a>
</g>
</g>
<!-- Node3&#45;&gt;Node7 -->
<g id="edge6_Node000003_Node000007" class="edge">
<title>Node3&#45;&gt;Node7</title>
<g id="a_edge6_Node000003_Node000007"><a xlink:title=" ">
<path fill="none" stroke="#63b8ff" d="M619.04,-69.63C677.72,-58.87 769.86,-41.97 835.02,-30.02"/>
<polygon fill="#63b8ff" stroke="#63b8ff" points="618.41,-66.19 609.21,-71.44 619.67,-73.07 618.41,-66.19"/>
</a>
</g>
</g>
<!-- Node8 -->
<g id="Node000008" class="node">
<title>Node8</title>
<g id="a_Node000008"><a xlink:href="_properties_widget_8cpp.html" target="_top" xlink:title=" ">
<polygon fill="white" stroke="#666666" points="795,-30 658,-30 658,0 795,0 795,-30"/>
<text text-anchor="start" x="666" y="-18" font-family="Helvetica,sans-Serif" font-size="10.00">src/ui/widgets/Properties</text>
<text text-anchor="middle" x="726.5" y="-7" font-family="Helvetica,sans-Serif" font-size="10.00">Widget.cpp</text>
</a>
</g>
</g>
<!-- Node3&#45;&gt;Node8 -->
<g id="edge7_Node000003_Node000008" class="edge">
<title>Node3&#45;&gt;Node8</title>
<g id="a_edge7_Node000003_Node000008"><a xlink:title=" ">
<path fill="none" stroke="#63b8ff" d="M594.16,-67.65C621.68,-56.9 661.55,-41.35 690.33,-30.12"/>
<polygon fill="#63b8ff" stroke="#63b8ff" points="592.66,-64.47 584.62,-71.37 595.21,-70.99 592.66,-64.47"/>
</a>
</g>
</g>
<!-- Node9&#45;&gt;Node5 -->
<g id="edge10_Node000009_Node000005" class="edge">
<title>Node9&#45;&gt;Node5</title>
<g id="a_edge10_Node000009_Node000005"><a xlink:title=" ">
<path fill="none" stroke="#63b8ff" d="M331.57,-59.26C317.02,-47.61 299.61,-33.69 288.56,-24.84"/>
<polygon fill="#63b8ff" stroke="#63b8ff" points="329.75,-62.28 339.75,-65.8 334.12,-56.82 329.75,-62.28"/>
</a>
</g>
</g>
<!-- Node9&#45;&gt;Node6 -->
<g id="edge11_Node000009_Node000006" class="edge">
<title>Node9&#45;&gt;Node6</title>
<g id="a_edge11_Node000009_Node000006"><a xlink:title=" ">
<path fill="none" stroke="#63b8ff" d="M380.54,-58.93C393.21,-47.35 408.24,-33.61 417.83,-24.84"/>
<polygon fill="#63b8ff" stroke="#63b8ff" points="378.05,-56.47 373.04,-65.8 382.78,-61.63 378.05,-56.47"/>
</a>
</g>
</g>
<!-- Node10 -->
<g id="Node000010" class="node">
<title>Node10</title>
<g id="a_Node000010"><a xlink:href="_gizmo_system_8cpp.html" target="_top" xlink:title=" ">
<polygon fill="white" stroke="#666666" points="167,-24.5 0,-24.5 0,-5.5 167,-5.5 167,-24.5"/>
<text text-anchor="middle" x="83.5" y="-12.5" font-family="Helvetica,sans-Serif" font-size="10.00">src/Systems/GizmoSystem.cpp</text>
</a>
</g>
</g>
<!-- Node9&#45;&gt;Node10 -->
<g id="edge9_Node000009_Node000010" class="edge">
<title>Node9&#45;&gt;Node10</title>
<g id="a_edge9_Node000009_Node000010"><a xlink:title=" ">
<path fill="none" stroke="#63b8ff" d="M287.61,-63.68C234.16,-51.19 162.61,-34.48 119.96,-24.52"/>
<polygon fill="#63b8ff" stroke="#63b8ff" points="286.84,-67.09 297.37,-65.95 288.43,-60.27 286.84,-67.09"/>
</a>
</g>
</g>
</g>
</svg>
