<?xml version="1.0" encoding="UTF-8" standalone="no"?>
<!DOCTYPE svg PUBLIC "-//W3C//DTD SVG 1.1//EN"
 "http://www.w3.org/Graphics/SVG/1.1/DTD/svg11.dtd">
<!-- Generated by graphviz version 2.43.0 (0)
 -->
<!-- Title: src/AssetManager/Material.hpp Pages: 1 -->
<svg width="1294pt" height="357pt"
 viewBox="0.00 0.00 1293.79 357.00" xmlns="http://www.w3.org/2000/svg" xmlns:xlink="http://www.w3.org/1999/xlink">
<g id="graph0" class="graph" transform="scale(1 1) rotate(0) translate(4 353)">
<title>src/AssetManager/Material.hpp</title>
<!-- Node1 -->
<g id="Node000001" class="node">
<title>Node1</title>
<g id="a_Node000001"><a xlink:title=" ">
<polygon fill="#999999" stroke="#666666" points="1064,-349 896,-349 896,-330 1064,-330 1064,-349"/>
<text text-anchor="middle" x="980" y="-337" font-family="Helvetica,sans-Serif" font-size="10.00">src/AssetManager/Material.hpp</text>
</a>
</g>
</g>
<!-- Node2 -->
<g id="Node000002" class="node">
<title>Node2</title>
<g id="a_Node000002"><a xlink:href="_asset_8hpp.html" target="_top" xlink:title=" ">
<polygon fill="white" stroke="#666666" points="783.5,-294 646.5,-294 646.5,-275 783.5,-275 783.5,-294"/>
<text text-anchor="middle" x="715" y="-282" font-family="Helvetica,sans-Serif" font-size="10.00">AssetManager/Asset.hpp</text>
</a>
</g>
</g>
<!-- Node1&#45;&gt;Node2 -->
<g id="edge1_Node000001_Node000002" class="edge">
<title>Node1&#45;&gt;Node2</title>
<g id="a_edge1_Node000001_Node000002"><a xlink:title=" ">
<path fill="none" stroke="#63b8ff" d="M937.42,-329.98C891.3,-320.76 817.64,-306.03 767.84,-296.07"/>
<polygon fill="#63b8ff" stroke="#63b8ff" points="768.4,-292.61 757.91,-294.08 767.03,-299.48 768.4,-292.61"/>
</a>
</g>
</g>
<!-- Node18 -->
<g id="Node000018" class="node">
<title>Node18</title>
<g id="a_Node000018"><a xlink:href="_texture_8hpp.html" target="_top" xlink:title=" ">
<polygon fill="white" stroke="#666666" points="1003,-294 857,-294 857,-275 1003,-275 1003,-294"/>
<text text-anchor="middle" x="930" y="-282" font-family="Helvetica,sans-Serif" font-size="10.00">AssetManager/Texture.hpp</text>
</a>
</g>
</g>
<!-- Node1&#45;&gt;Node18 -->
<g id="edge23_Node000001_Node000018" class="edge">
<title>Node1&#45;&gt;Node18</title>
<g id="a_edge23_Node000001_Node000018"><a xlink:title=" ">
<path fill="none" stroke="#63b8ff" d="M971.74,-329.75C964.54,-322.11 953.89,-310.82 945.15,-301.56"/>
<polygon fill="#63b8ff" stroke="#63b8ff" points="947.51,-298.96 938.1,-294.09 942.42,-303.76 947.51,-298.96"/>
</a>
</g>
</g>
<!-- Node21 -->
<g id="Node000021" class="node">
<title>Node21</title>
<g id="a_Node000021"><a xlink:title=" ">
<polygon fill="#e0e0e0" stroke="#999999" points="1070,-239 992,-239 992,-220 1070,-220 1070,-239"/>
<text text-anchor="middle" x="1031" y="-227" font-family="Helvetica,sans-Serif" font-size="10.00">glm/glm.hpp</text>
</a>
</g>
</g>
<!-- Node1&#45;&gt;Node21 -->
<g id="edge36_Node000001_Node000021" class="edge">
<title>Node1&#45;&gt;Node21</title>
<g id="a_edge36_Node000001_Node000021"><a xlink:title=" ">
<path fill="none" stroke="#63b8ff" d="M987.56,-329.86C994.73,-321.28 1005.36,-307.49 1012,-294 1019.07,-279.62 1024.07,-262.1 1027.16,-249.11"/>
<polygon fill="#63b8ff" stroke="#63b8ff" points="1030.64,-249.57 1029.39,-239.05 1023.81,-248.06 1030.64,-249.57"/>
</a>
</g>
</g>
<!-- Node22 -->
<g id="Node000022" class="node">
<title>Node22</title>
<g id="a_Node000022"><a xlink:href="_instance_counter_8hpp.html" target="_top" xlink:title=" ">
<polygon fill="white" stroke="#666666" points="1223,-294 1059,-294 1059,-275 1223,-275 1223,-294"/>
<text text-anchor="middle" x="1141" y="-282" font-family="Helvetica,sans-Serif" font-size="10.00">Common/InstanceCounter.hpp</text>
</a>
</g>
</g>
<!-- Node1&#45;&gt;Node22 -->
<g id="edge28_Node000001_Node000022" class="edge">
<title>Node1&#45;&gt;Node22</title>
<g id="a_edge28_Node000001_Node000022"><a xlink:title=" ">
<path fill="none" stroke="#63b8ff" d="M1005.87,-329.98C1032.78,-321.13 1075.12,-307.19 1105.23,-297.28"/>
<polygon fill="#63b8ff" stroke="#63b8ff" points="1106.53,-300.53 1114.93,-294.08 1104.34,-293.88 1106.53,-300.53"/>
</a>
</g>
</g>
<!-- Node3 -->
<g id="Node000003" class="node">
<title>Node3</title>
<g id="a_Node000003"><a xlink:href="_registry_8hpp.html" target="_top" xlink:title=" ">
<polygon fill="white" stroke="#666666" points="615,-239 517,-239 517,-220 615,-220 615,-239"/>
<text text-anchor="middle" x="566" y="-227" font-family="Helvetica,sans-Serif" font-size="10.00">ECS/Registry.hpp</text>
</a>
</g>
</g>
<!-- Node2&#45;&gt;Node3 -->
<g id="edge2_Node000002_Node000003" class="edge">
<title>Node2&#45;&gt;Node3</title>
<g id="a_edge2_Node000002_Node000003"><a xlink:title=" ">
<path fill="none" stroke="#63b8ff" d="M691.06,-274.98C666.44,-266.23 627.88,-252.51 600.08,-242.62"/>
<polygon fill="#63b8ff" stroke="#63b8ff" points="600.97,-239.22 590.38,-239.17 598.62,-245.82 600.97,-239.22"/>
</a>
</g>
</g>
<!-- Node17 -->
<g id="Node000017" class="node">
<title>Node17</title>
<g id="a_Node000017"><a xlink:title=" ">
<polygon fill="#e0e0e0" stroke="#999999" points="921,-184 853,-184 853,-165 921,-165 921,-184"/>
<text text-anchor="middle" x="887" y="-172" font-family="Helvetica,sans-Serif" font-size="10.00">filesystem</text>
</a>
</g>
</g>
<!-- Node2&#45;&gt;Node17 -->
<g id="edge22_Node000002_Node000017" class="edge">
<title>Node2&#45;&gt;Node17</title>
<g id="a_edge22_Node000002_Node000017"><a xlink:title=" ">
<path fill="none" stroke="#63b8ff" d="M715.1,-274.8C715.73,-261.19 718.97,-234.91 734,-220 741.93,-212.13 800.78,-196.47 843.13,-185.99"/>
<polygon fill="#63b8ff" stroke="#63b8ff" points="844.08,-189.36 852.96,-183.57 842.41,-182.56 844.08,-189.36"/>
</a>
</g>
</g>
<!-- Node4 -->
<g id="Node000004" class="node">
<title>Node4</title>
<g id="a_Node000004"><a xlink:title=" ">
<polygon fill="#e0e0e0" stroke="#999999" points="387,-129 301,-129 301,-110 387,-110 387,-129"/>
<text text-anchor="middle" x="344" y="-117" font-family="Helvetica,sans-Serif" font-size="10.00">unordered_set</text>
</a>
</g>
</g>
<!-- Node3&#45;&gt;Node4 -->
<g id="edge3_Node000003_Node000004" class="edge">
<title>Node3&#45;&gt;Node4</title>
<g id="a_edge3_Node000003_Node000004"><a xlink:title=" ">
<path fill="none" stroke="#63b8ff" d="M516.78,-226.55C453.75,-222.89 349.78,-212.59 326,-184 315.17,-170.97 322.85,-151.81 331.28,-137.94"/>
<polygon fill="#63b8ff" stroke="#63b8ff" points="334.39,-139.59 337.01,-129.33 328.56,-135.71 334.39,-139.59"/>
</a>
</g>
</g>
<!-- Node5 -->
<g id="Node000005" class="node">
<title>Node5</title>
<g id="a_Node000005"><a xlink:href="_logger_8hpp.html" target="_top" xlink:title=" ">
<polygon fill="white" stroke="#666666" points="834.5,-184 717.5,-184 717.5,-165 834.5,-165 834.5,-184"/>
<text text-anchor="middle" x="776" y="-172" font-family="Helvetica,sans-Serif" font-size="10.00">Common/Logger.hpp</text>
</a>
</g>
</g>
<!-- Node3&#45;&gt;Node5 -->
<g id="edge4_Node000003_Node000005" class="edge">
<title>Node3&#45;&gt;Node5</title>
<g id="a_edge4_Node000003_Node000005"><a xlink:title=" ">
<path fill="none" stroke="#63b8ff" d="M599.74,-219.98C635.68,-210.91 692.72,-196.52 732.13,-186.57"/>
<polygon fill="#63b8ff" stroke="#63b8ff" points="733.16,-189.92 742,-184.08 731.44,-183.14 733.16,-189.92"/>
</a>
</g>
</g>
<!-- Node8 -->
<g id="Node000008" class="node">
<title>Node8</title>
<g id="a_Node000008"><a xlink:href="_entity_8hpp.html" target="_top" xlink:title=" ">
<polygon fill="white" stroke="#666666" points="578,-74 492,-74 492,-55 578,-55 578,-74"/>
<text text-anchor="middle" x="535" y="-62" font-family="Helvetica,sans-Serif" font-size="10.00">ECS/Entity.hpp</text>
</a>
</g>
</g>
<!-- Node3&#45;&gt;Node8 -->
<g id="edge7_Node000003_Node000008" class="edge">
<title>Node3&#45;&gt;Node8</title>
<g id="a_edge7_Node000003_Node000008"><a xlink:title=" ">
<path fill="none" stroke="#63b8ff" d="M560.38,-219.7C555.14,-211.01 547.6,-197.13 544,-184 534.58,-149.63 533.78,-107.69 534.25,-84.05"/>
<polygon fill="#63b8ff" stroke="#63b8ff" points="537.75,-84.12 534.55,-74.02 530.75,-83.91 537.75,-84.12"/>
</a>
</g>
</g>
<!-- Node10 -->
<g id="Node000010" class="node">
<title>Node10</title>
<g id="a_Node000010"><a xlink:href="_entity_hierarchy_8hpp.html" target="_top" xlink:title=" ">
<polygon fill="white" stroke="#666666" points="279,-184 145,-184 145,-165 279,-165 279,-184"/>
<text text-anchor="middle" x="212" y="-172" font-family="Helvetica,sans-Serif" font-size="10.00">ECS/EntityHierarchy.hpp</text>
</a>
</g>
</g>
<!-- Node3&#45;&gt;Node10 -->
<g id="edge9_Node000003_Node000010" class="edge">
<title>Node3&#45;&gt;Node10</title>
<g id="a_edge9_Node000003_Node000010"><a xlink:title=" ">
<path fill="none" stroke="#63b8ff" d="M516.78,-221.13C454.85,-211.86 348.24,-195.9 278.94,-185.52"/>
<polygon fill="#63b8ff" stroke="#63b8ff" points="279.41,-182.05 269,-184.03 278.37,-188.98 279.41,-182.05"/>
</a>
</g>
</g>
<!-- Node14 -->
<g id="Node000014" class="node">
<title>Node14</title>
<g id="a_Node000014"><a xlink:href="_entity_provider_8hpp.html" target="_top" xlink:title="Manages a pool of unused entity identifiers and provides mechanisms for requesting and removing them.">
<polygon fill="white" stroke="#666666" points="681,-129 553,-129 553,-110 681,-110 681,-129"/>
<text text-anchor="middle" x="617" y="-117" font-family="Helvetica,sans-Serif" font-size="10.00">ECS/EntityProvider.hpp</text>
</a>
</g>
</g>
<!-- Node3&#45;&gt;Node14 -->
<g id="edge15_Node000003_Node000014" class="edge">
<title>Node3&#45;&gt;Node14</title>
<g id="a_edge15_Node000003_Node000014"><a xlink:title=" ">
<path fill="none" stroke="#63b8ff" d="M614.85,-219.95C635.5,-213.65 657.62,-202.77 670,-184 682.02,-165.79 661.1,-146.83 642.11,-134.42"/>
<polygon fill="#63b8ff" stroke="#63b8ff" points="643.72,-131.3 633.37,-129.05 640.06,-137.27 643.72,-131.3"/>
</a>
</g>
</g>
<!-- Node15 -->
<g id="Node000015" class="node">
<title>Node15</title>
<g id="a_Node000015"><a xlink:href="_singleton_component_8hpp.html" target="_top" xlink:title=" ">
<polygon fill="white" stroke="#666666" points="496.5,-184 335.5,-184 335.5,-165 496.5,-165 496.5,-184"/>
<text text-anchor="middle" x="416" y="-172" font-family="Helvetica,sans-Serif" font-size="10.00">ECS/SingletonComponent.hpp</text>
</a>
</g>
</g>
<!-- Node3&#45;&gt;Node15 -->
<g id="edge19_Node000003_Node000015" class="edge">
<title>Node3&#45;&gt;Node15</title>
<g id="a_edge19_Node000003_Node000015"><a xlink:title=" ">
<path fill="none" stroke="#63b8ff" d="M541.9,-219.98C517.12,-211.23 478.3,-197.51 450.31,-187.62"/>
<polygon fill="#63b8ff" stroke="#63b8ff" points="451.13,-184.2 440.54,-184.17 448.8,-190.8 451.13,-184.2"/>
</a>
</g>
</g>
<!-- Node16 -->
<g id="Node000016" class="node">
<title>Node16</title>
<g id="a_Node000016"><a xlink:href="_sparse_set_8hpp.html" target="_top" xlink:title=" ">
<polygon fill="white" stroke="#666666" points="661,-184 553,-184 553,-165 661,-165 661,-184"/>
<text text-anchor="middle" x="607" y="-172" font-family="Helvetica,sans-Serif" font-size="10.00">ECS/SparseSet.hpp</text>
</a>
</g>
</g>
<!-- Node3&#45;&gt;Node16 -->
<g id="edge20_Node000003_Node000016" class="edge">
<title>Node3&#45;&gt;Node16</title>
<g id="a_edge20_Node000003_Node000016"><a xlink:title=" ">
<path fill="none" stroke="#63b8ff" d="M572.77,-219.75C578.56,-212.26 587.06,-201.28 594.14,-192.13"/>
<polygon fill="#63b8ff" stroke="#63b8ff" points="597.01,-194.14 600.36,-184.09 591.47,-189.86 597.01,-194.14"/>
</a>
</g>
</g>
<!-- Node6 -->
<g id="Node000006" class="node">
<title>Node6</title>
<g id="a_Node000006"><a xlink:title=" ">
<polygon fill="#e0e0e0" stroke="#999999" points="1076,-129 1028,-129 1028,-110 1076,-110 1076,-129"/>
<text text-anchor="middle" x="1052" y="-117" font-family="Helvetica,sans-Serif" font-size="10.00">mutex</text>
</a>
</g>
</g>
<!-- Node5&#45;&gt;Node6 -->
<g id="edge5_Node000005_Node000006" class="edge">
<title>Node5&#45;&gt;Node6</title>
<g id="a_edge5_Node000005_Node000006"><a xlink:title=" ">
<path fill="none" stroke="#63b8ff" d="M820.34,-164.98C875.4,-154.41 968.11,-136.61 1017.92,-127.05"/>
<polygon fill="#63b8ff" stroke="#63b8ff" points="1018.7,-130.46 1027.86,-125.13 1017.38,-123.58 1018.7,-130.46"/>
</a>
</g>
</g>
<!-- Node7 -->
<g id="Node000007" class="node">
<title>Node7</title>
<g id="a_Node000007"><a xlink:title=" ">
<polygon fill="#e0e0e0" stroke="#999999" points="742.5,-74 695.5,-74 695.5,-55 742.5,-55 742.5,-74"/>
<text text-anchor="middle" x="719" y="-62" font-family="Helvetica,sans-Serif" font-size="10.00">queue</text>
</a>
</g>
</g>
<!-- Node5&#45;&gt;Node7 -->
<g id="edge6_Node000005_Node000007" class="edge">
<title>Node5&#45;&gt;Node7</title>
<g id="a_edge6_Node000005_Node000007"><a xlink:title=" ">
<path fill="none" stroke="#63b8ff" d="M771.34,-164.66C761.94,-146.85 740.57,-106.37 728.24,-83.01"/>
<polygon fill="#63b8ff" stroke="#63b8ff" points="731.33,-81.37 723.57,-74.16 725.14,-84.64 731.33,-81.37"/>
</a>
</g>
</g>
<!-- Node9 -->
<g id="Node000009" class="node">
<title>Node9</title>
<g id="a_Node000009"><a xlink:title=" ">
<polygon fill="#e0e0e0" stroke="#999999" points="596.5,-19 543.5,-19 543.5,0 596.5,0 596.5,-19"/>
<text text-anchor="middle" x="570" y="-7" font-family="Helvetica,sans-Serif" font-size="10.00">stdlib.h</text>
</a>
</g>
</g>
<!-- Node8&#45;&gt;Node9 -->
<g id="edge8_Node000008_Node000009" class="edge">
<title>Node8&#45;&gt;Node9</title>
<g id="a_edge8_Node000008_Node000009"><a xlink:title=" ">
<path fill="none" stroke="#63b8ff" d="M540.78,-54.75C545.62,-47.42 552.68,-36.73 558.64,-27.7"/>
<polygon fill="#63b8ff" stroke="#63b8ff" points="561.74,-29.36 564.33,-19.09 555.9,-25.5 561.74,-29.36"/>
</a>
</g>
</g>
<!-- Node10&#45;&gt;Node4 -->
<g id="edge13_Node000010_Node000004" class="edge">
<title>Node10&#45;&gt;Node4</title>
<g id="a_edge13_Node000010_Node000004"><a xlink:title=" ">
<path fill="none" stroke="#63b8ff" d="M233.21,-164.98C254.73,-156.34 288.28,-142.87 312.83,-133.02"/>
<polygon fill="#63b8ff" stroke="#63b8ff" points="314.43,-136.14 322.41,-129.17 311.82,-129.65 314.43,-136.14"/>
</a>
</g>
</g>
<!-- Node10&#45;&gt;Node8 -->
<g id="edge14_Node000010_Node000008" class="edge">
<title>Node10&#45;&gt;Node8</title>
<g id="a_edge14_Node000010_Node000008"><a xlink:title=" ">
<path fill="none" stroke="#63b8ff" d="M219.94,-164.91C233.34,-150.98 261.97,-123.63 292,-110 353.38,-82.14 430.99,-71.72 481.76,-67.82"/>
<polygon fill="#63b8ff" stroke="#63b8ff" points="482.13,-71.3 491.86,-67.1 481.64,-64.32 482.13,-71.3"/>
</a>
</g>
</g>
<!-- Node11 -->
<g id="Node000011" class="node">
<title>Node11</title>
<g id="a_Node000011"><a xlink:title=" ">
<polygon fill="#e0e0e0" stroke="#999999" points="244.5,-129 179.5,-129 179.5,-110 244.5,-110 244.5,-129"/>
<text text-anchor="middle" x="212" y="-117" font-family="Helvetica,sans-Serif" font-size="10.00">functional</text>
</a>
</g>
</g>
<!-- Node10&#45;&gt;Node11 -->
<g id="edge10_Node000010_Node000011" class="edge">
<title>Node10&#45;&gt;Node11</title>
<g id="a_edge10_Node000010_Node000011"><a xlink:title=" ">
<path fill="none" stroke="#63b8ff" d="M212,-164.75C212,-157.8 212,-147.85 212,-139.13"/>
<polygon fill="#63b8ff" stroke="#63b8ff" points="215.5,-139.09 212,-129.09 208.5,-139.09 215.5,-139.09"/>
</a>
</g>
</g>
<!-- Node12 -->
<g id="Node000012" class="node">
<title>Node12</title>
<g id="a_Node000012"><a xlink:title=" ">
<polygon fill="#e0e0e0" stroke="#999999" points="50,-129 0,-129 0,-110 50,-110 50,-129"/>
<text text-anchor="middle" x="25" y="-117" font-family="Helvetica,sans-Serif" font-size="10.00">ranges</text>
</a>
</g>
</g>
<!-- Node10&#45;&gt;Node12 -->
<g id="edge11_Node000010_Node000012" class="edge">
<title>Node10&#45;&gt;Node12</title>
<g id="a_edge11_Node000010_Node000012"><a xlink:title=" ">
<path fill="none" stroke="#63b8ff" d="M181.96,-164.98C148.69,-155.56 95.14,-140.38 60,-130.42"/>
<polygon fill="#63b8ff" stroke="#63b8ff" points="60.75,-126.99 50.17,-127.63 58.84,-133.73 60.75,-126.99"/>
</a>
</g>
</g>
<!-- Node13 -->
<g id="Node000013" class="node">
<title>Node13</title>
<g id="a_Node000013"><a xlink:title=" ">
<polygon fill="#e0e0e0" stroke="#999999" points="161.5,-129 68.5,-129 68.5,-110 161.5,-110 161.5,-129"/>
<text text-anchor="middle" x="115" y="-117" font-family="Helvetica,sans-Serif" font-size="10.00">unordered_map</text>
</a>
</g>
</g>
<!-- Node10&#45;&gt;Node13 -->
<g id="edge12_Node000010_Node000013" class="edge">
<title>Node10&#45;&gt;Node13</title>
<g id="a_edge12_Node000010_Node000013"><a xlink:title=" ">
<path fill="none" stroke="#63b8ff" d="M196.42,-164.98C181.23,-156.69 157.9,-143.94 140.1,-134.22"/>
<polygon fill="#63b8ff" stroke="#63b8ff" points="141.32,-130.89 130.87,-129.17 137.97,-137.04 141.32,-130.89"/>
</a>
</g>
</g>
<!-- Node14&#45;&gt;Node7 -->
<g id="edge17_Node000014_Node000007" class="edge">
<title>Node14&#45;&gt;Node7</title>
<g id="a_edge17_Node000014_Node000007"><a xlink:title=" ">
<path fill="none" stroke="#63b8ff" d="M633.39,-109.98C649.57,-101.57 674.57,-88.59 693.38,-78.81"/>
<polygon fill="#63b8ff" stroke="#63b8ff" points="695.05,-81.89 702.31,-74.17 691.83,-75.68 695.05,-81.89"/>
</a>
</g>
</g>
<!-- Node14&#45;&gt;Node8 -->
<g id="edge18_Node000014_Node000008" class="edge">
<title>Node14&#45;&gt;Node8</title>
<g id="a_edge18_Node000014_Node000008"><a xlink:title=" ">
<path fill="none" stroke="#63b8ff" d="M603.83,-109.98C591.23,-101.84 572,-89.41 557.06,-79.76"/>
<polygon fill="#63b8ff" stroke="#63b8ff" points="558.71,-76.66 548.41,-74.17 554.91,-82.54 558.71,-76.66"/>
</a>
</g>
</g>
<!-- Node14&#45;&gt;Node9 -->
<g id="edge16_Node000014_Node000009" class="edge">
<title>Node14&#45;&gt;Node9</title>
<g id="a_edge16_Node000014_Node000009"><a xlink:title=" ">
<path fill="none" stroke="#63b8ff" d="M613.15,-109.66C605.47,-92.01 588.1,-52.09 577.89,-28.64"/>
<polygon fill="#63b8ff" stroke="#63b8ff" points="580.97,-26.93 573.77,-19.16 574.55,-29.72 580.97,-26.93"/>
</a>
</g>
</g>
<!-- Node16&#45;&gt;Node14 -->
<g id="edge21_Node000016_Node000014" class="edge">
<title>Node16&#45;&gt;Node14</title>
<g id="a_edge21_Node000016_Node000014"><a xlink:title=" ">
<path fill="none" stroke="#63b8ff" d="M608.65,-164.75C609.96,-157.8 611.84,-147.85 613.48,-139.13"/>
<polygon fill="#63b8ff" stroke="#63b8ff" points="616.96,-139.56 615.38,-129.09 610.09,-138.27 616.96,-139.56"/>
</a>
</g>
</g>
<!-- Node19 -->
<g id="Node000019" class="node">
<title>Node19</title>
<g id="a_Node000019"><a xlink:title=" ">
<polygon fill="#e0e0e0" stroke="#999999" points="973.5,-239 902.5,-239 902.5,-220 973.5,-220 973.5,-239"/>
<text text-anchor="middle" x="938" y="-227" font-family="Helvetica,sans-Serif" font-size="10.00">glad/glad.h</text>
</a>
</g>
</g>
<!-- Node18&#45;&gt;Node19 -->
<g id="edge24_Node000018_Node000019" class="edge">
<title>Node18&#45;&gt;Node19</title>
<g id="a_edge24_Node000018_Node000019"><a xlink:title=" ">
<path fill="none" stroke="#63b8ff" d="M931.32,-274.75C932.37,-267.8 933.87,-257.85 935.19,-249.13"/>
<polygon fill="#63b8ff" stroke="#63b8ff" points="938.67,-249.5 936.7,-239.09 931.75,-248.45 938.67,-249.5"/>
</a>
</g>
</g>
<!-- Node20 -->
<g id="Node000020" class="node">
<title>Node20</title>
<g id="a_Node000020"><a xlink:href="_image_8hpp.html" target="_top" xlink:title=" ">
<polygon fill="white" stroke="#666666" points="884.5,-239 743.5,-239 743.5,-220 884.5,-220 884.5,-239"/>
<text text-anchor="middle" x="814" y="-227" font-family="Helvetica,sans-Serif" font-size="10.00">AssetManager/Image.hpp</text>
</a>
</g>
</g>
<!-- Node18&#45;&gt;Node20 -->
<g id="edge25_Node000018_Node000020" class="edge">
<title>Node18&#45;&gt;Node20</title>
<g id="a_edge25_Node000018_Node000020"><a xlink:title=" ">
<path fill="none" stroke="#63b8ff" d="M911.36,-274.98C892.7,-266.46 863.75,-253.23 842.26,-243.41"/>
<polygon fill="#63b8ff" stroke="#63b8ff" points="843.53,-240.14 832.98,-239.17 840.62,-246.51 843.53,-240.14"/>
</a>
</g>
</g>
<!-- Node18&#45;&gt;Node21 -->
<g id="edge27_Node000018_Node000021" class="edge">
<title>Node18&#45;&gt;Node21</title>
<g id="a_edge27_Node000018_Node000021"><a xlink:title=" ">
<path fill="none" stroke="#63b8ff" d="M946.23,-274.98C962.18,-266.61 986.78,-253.7 1005.38,-243.95"/>
<polygon fill="#63b8ff" stroke="#63b8ff" points="1007.25,-246.92 1014.48,-239.17 1004,-240.72 1007.25,-246.92"/>
</a>
</g>
</g>
<!-- Node20&#45;&gt;Node17 -->
<g id="edge26_Node000020_Node000017" class="edge">
<title>Node20&#45;&gt;Node17</title>
<g id="a_edge26_Node000020_Node000017"><a xlink:title=" ">
<path fill="none" stroke="#63b8ff" d="M825.73,-219.98C836.73,-212 853.42,-199.88 866.6,-190.31"/>
<polygon fill="#63b8ff" stroke="#63b8ff" points="869.02,-192.88 875.06,-184.17 864.91,-187.21 869.02,-192.88"/>
</a>
</g>
</g>
<!-- Node23 -->
<g id="Node000023" class="node">
<title>Node23</title>
<g id="a_Node000023"><a xlink:title=" ">
<polygon fill="#e0e0e0" stroke="#999999" points="1138,-239 1088,-239 1088,-220 1138,-220 1138,-239"/>
<text text-anchor="middle" x="1113" y="-227" font-family="Helvetica,sans-Serif" font-size="10.00">atomic</text>
</a>
</g>
</g>
<!-- Node22&#45;&gt;Node23 -->
<g id="edge29_Node000022_Node000023" class="edge">
<title>Node22&#45;&gt;Node23</title>
<g id="a_edge29_Node000022_Node000023"><a xlink:title=" ">
<path fill="none" stroke="#63b8ff" d="M1136.38,-274.75C1132.54,-267.49 1126.98,-256.95 1122.24,-247.98"/>
<polygon fill="#63b8ff" stroke="#63b8ff" points="1125.3,-246.3 1117.54,-239.09 1119.11,-249.57 1125.3,-246.3"/>
</a>
</g>
</g>
<!-- Node24 -->
<g id="Node000024" class="node">
<title>Node24</title>
<g id="a_Node000024"><a xlink:href="_profiler_8hpp.html" target="_top" xlink:title=" ">
<polygon fill="white" stroke="#666666" points="1275.5,-239 1156.5,-239 1156.5,-220 1275.5,-220 1275.5,-239"/>
<text text-anchor="middle" x="1216" y="-227" font-family="Helvetica,sans-Serif" font-size="10.00">Common/Profiler.hpp</text>
</a>
</g>
</g>
<!-- Node22&#45;&gt;Node24 -->
<g id="edge30_Node000022_Node000024" class="edge">
<title>Node22&#45;&gt;Node24</title>
<g id="a_edge30_Node000022_Node000024"><a xlink:title=" ">
<path fill="none" stroke="#63b8ff" d="M1153.05,-274.98C1164.46,-266.92 1181.83,-254.65 1195.43,-245.03"/>
<polygon fill="#63b8ff" stroke="#63b8ff" points="1197.58,-247.8 1203.73,-239.17 1193.54,-242.08 1197.58,-247.8"/>
</a>
</g>
</g>
<!-- Node24&#45;&gt;Node6 -->
<g id="edge33_Node000024_Node000006" class="edge">
<title>Node24&#45;&gt;Node6</title>
<g id="a_edge33_Node000024_Node000006"><a xlink:title=" ">
<path fill="none" stroke="#63b8ff" d="M1236.68,-219.85C1261.74,-208.15 1298.56,-186.3 1281,-165 1256.75,-135.58 1144.3,-125.36 1086.5,-122.02"/>
<polygon fill="#63b8ff" stroke="#63b8ff" points="1086.56,-118.52 1076.38,-121.47 1086.18,-125.51 1086.56,-118.52"/>
</a>
</g>
</g>
<!-- Node25 -->
<g id="Node000025" class="node">
<title>Node25</title>
<g id="a_Node000025"><a xlink:title=" ">
<polygon fill="#e0e0e0" stroke="#999999" points="1088,-184 1038,-184 1038,-165 1088,-165 1088,-184"/>
<text text-anchor="middle" x="1063" y="-172" font-family="Helvetica,sans-Serif" font-size="10.00">chrono</text>
</a>
</g>
</g>
<!-- Node24&#45;&gt;Node25 -->
<g id="edge31_Node000024_Node000025" class="edge">
<title>Node24&#45;&gt;Node25</title>
<g id="a_edge31_Node000024_Node000025"><a xlink:title=" ">
<path fill="none" stroke="#63b8ff" d="M1191.42,-219.98C1165.95,-211.16 1125.96,-197.31 1097.37,-187.41"/>
<polygon fill="#63b8ff" stroke="#63b8ff" points="1098.37,-184.05 1087.77,-184.08 1096.08,-190.66 1098.37,-184.05"/>
</a>
</g>
</g>
<!-- Node26 -->
<g id="Node000026" class="node">
<title>Node26</title>
<g id="a_Node000026"><a xlink:title=" ">
<polygon fill="#e0e0e0" stroke="#999999" points="1144,-184 1106,-184 1106,-165 1144,-165 1144,-184"/>
<text text-anchor="middle" x="1125" y="-172" font-family="Helvetica,sans-Serif" font-size="10.00">map</text>
</a>
</g>
</g>
<!-- Node24&#45;&gt;Node26 -->
<g id="edge32_Node000024_Node000026" class="edge">
<title>Node24&#45;&gt;Node26</title>
<g id="a_edge32_Node000024_Node000026"><a xlink:title=" ">
<path fill="none" stroke="#63b8ff" d="M1201.38,-219.98C1187.14,-211.69 1165.25,-198.94 1148.55,-189.22"/>
<polygon fill="#63b8ff" stroke="#63b8ff" points="1150.29,-186.18 1139.89,-184.17 1146.77,-192.23 1150.29,-186.18"/>
</a>
</g>
</g>
<!-- Node27 -->
<g id="Node000027" class="node">
<title>Node27</title>
<g id="a_Node000027"><a xlink:title=" ">
<polygon fill="#e0e0e0" stroke="#999999" points="1206,-184 1162,-184 1162,-165 1206,-165 1206,-184"/>
<text text-anchor="middle" x="1184" y="-172" font-family="Helvetica,sans-Serif" font-size="10.00">string</text>
</a>
</g>
</g>
<!-- Node24&#45;&gt;Node27 -->
<g id="edge34_Node000024_Node000027" class="edge">
<title>Node24&#45;&gt;Node27</title>
<g id="a_edge34_Node000024_Node000027"><a xlink:title=" ">
<path fill="none" stroke="#63b8ff" d="M1210.72,-219.75C1206.29,-212.42 1199.84,-201.73 1194.38,-192.7"/>
<polygon fill="#63b8ff" stroke="#63b8ff" points="1197.35,-190.84 1189.19,-184.09 1191.36,-194.46 1197.35,-190.84"/>
</a>
</g>
</g>
<!-- Node28 -->
<g id="Node000028" class="node">
<title>Node28</title>
<g id="a_Node000028"><a xlink:title=" ">
<polygon fill="#e0e0e0" stroke="#999999" points="1272,-184 1224,-184 1224,-165 1272,-165 1272,-184"/>
<text text-anchor="middle" x="1248" y="-172" font-family="Helvetica,sans-Serif" font-size="10.00">thread</text>
</a>
</g>
</g>
<!-- Node24&#45;&gt;Node28 -->
<g id="edge35_Node000024_Node000028" class="edge">
<title>Node24&#45;&gt;Node28</title>
<g id="a_edge35_Node000024_Node000028"><a xlink:title=" ">
<path fill="none" stroke="#63b8ff" d="M1221.28,-219.75C1225.71,-212.42 1232.16,-201.73 1237.62,-192.7"/>
<polygon fill="#63b8ff" stroke="#63b8ff" points="1240.64,-194.46 1242.81,-184.09 1234.65,-190.84 1240.64,-194.46"/>
</a>
</g>
</g>
</g>
</svg>
