<?xml version="1.0" encoding="UTF-8" standalone="no"?>
<!DOCTYPE svg PUBLIC "-//W3C//DTD SVG 1.1//EN"
 "http://www.w3.org/Graphics/SVG/1.1/DTD/svg11.dtd">
<!-- Generated by graphviz version 2.43.0 (0)
 -->
<!-- Title: src/AssetManager/Material.cpp Pages: 1 -->
<svg width="1121pt" height="423pt"
 viewBox="0.00 0.00 1120.50 423.00" xmlns="http://www.w3.org/2000/svg" xmlns:xlink="http://www.w3.org/1999/xlink">
<g id="graph0" class="graph" transform="scale(1 1) rotate(0) translate(4 419)">
<title>src/AssetManager/Material.cpp</title>
<!-- Node1 -->
<g id="Node000001" class="node">
<title>Node1</title>
<g id="a_Node000001"><a xlink:title=" ">
<polygon fill="#999999" stroke="#666666" points="223.5,-415 56.5,-415 56.5,-396 223.5,-396 223.5,-415"/>
<text text-anchor="middle" x="140" y="-403" font-family="Helvetica,sans-Serif" font-size="10.00">src/AssetManager/Material.cpp</text>
</a>
</g>
</g>
<!-- Node2 -->
<g id="Node000002" class="node">
<title>Node2</title>
<g id="a_Node000002"><a xlink:href="_material_8hpp.html" target="_top" xlink:title=" ">
<polygon fill="white" stroke="#666666" points="215.5,-360 64.5,-360 64.5,-341 215.5,-341 215.5,-360"/>
<text text-anchor="middle" x="140" y="-348" font-family="Helvetica,sans-Serif" font-size="10.00">AssetManager/Material.hpp</text>
</a>
</g>
</g>
<!-- Node1&#45;&gt;Node2 -->
<g id="edge1_Node000001_Node000002" class="edge">
<title>Node1&#45;&gt;Node2</title>
<g id="a_edge1_Node000001_Node000002"><a xlink:title=" ">
<path fill="none" stroke="#63b8ff" d="M140,-395.75C140,-388.8 140,-378.85 140,-370.13"/>
<polygon fill="#63b8ff" stroke="#63b8ff" points="143.5,-370.09 140,-360.09 136.5,-370.09 143.5,-370.09"/>
</a>
</g>
</g>
<!-- Node3 -->
<g id="Node000003" class="node">
<title>Node3</title>
<g id="a_Node000003"><a xlink:title=" ">
<polygon fill="#e0e0e0" stroke="#999999" points="78,-250 0,-250 0,-231 78,-231 78,-250"/>
<text text-anchor="middle" x="39" y="-238" font-family="Helvetica,sans-Serif" font-size="10.00">glm/glm.hpp</text>
</a>
</g>
</g>
<!-- Node2&#45;&gt;Node3 -->
<g id="edge2_Node000002_Node000003" class="edge">
<title>Node2&#45;&gt;Node3</title>
<g id="a_edge2_Node000002_Node000003"><a xlink:title=" ">
<path fill="none" stroke="#63b8ff" d="M112.78,-340.91C94.82,-333.93 72.09,-322.35 58,-305 47.68,-292.3 42.97,-274.12 40.81,-260.46"/>
<polygon fill="#63b8ff" stroke="#63b8ff" points="44.25,-259.76 39.54,-250.28 37.3,-260.63 44.25,-259.76"/>
</a>
</g>
</g>
<!-- Node4 -->
<g id="Node000004" class="node">
<title>Node4</title>
<g id="a_Node000004"><a xlink:href="_asset_8hpp.html" target="_top" xlink:title=" ">
<polygon fill="white" stroke="#666666" points="440.5,-305 303.5,-305 303.5,-286 440.5,-286 440.5,-305"/>
<text text-anchor="middle" x="372" y="-293" font-family="Helvetica,sans-Serif" font-size="10.00">AssetManager/Asset.hpp</text>
</a>
</g>
</g>
<!-- Node2&#45;&gt;Node4 -->
<g id="edge3_Node000002_Node000004" class="edge">
<title>Node2&#45;&gt;Node4</title>
<g id="a_edge3_Node000002_Node000004"><a xlink:title=" ">
<path fill="none" stroke="#63b8ff" d="M177.27,-340.98C217.32,-331.84 281.07,-317.27 324.64,-307.32"/>
<polygon fill="#63b8ff" stroke="#63b8ff" points="325.46,-310.72 334.43,-305.08 323.9,-303.9 325.46,-310.72"/>
</a>
</g>
</g>
<!-- Node19 -->
<g id="Node000019" class="node">
<title>Node19</title>
<g id="a_Node000019"><a xlink:href="_texture_8hpp.html" target="_top" xlink:title=" ">
<polygon fill="white" stroke="#666666" points="213,-305 67,-305 67,-286 213,-286 213,-305"/>
<text text-anchor="middle" x="140" y="-293" font-family="Helvetica,sans-Serif" font-size="10.00">AssetManager/Texture.hpp</text>
</a>
</g>
</g>
<!-- Node2&#45;&gt;Node19 -->
<g id="edge24_Node000002_Node000019" class="edge">
<title>Node2&#45;&gt;Node19</title>
<g id="a_edge24_Node000002_Node000019"><a xlink:title=" ">
<path fill="none" stroke="#63b8ff" d="M140,-340.75C140,-333.8 140,-323.85 140,-315.13"/>
<polygon fill="#63b8ff" stroke="#63b8ff" points="143.5,-315.09 140,-305.09 136.5,-315.09 143.5,-315.09"/>
</a>
</g>
</g>
<!-- Node5 -->
<g id="Node000005" class="node">
<title>Node5</title>
<g id="a_Node000005"><a xlink:title=" ">
<polygon fill="#e0e0e0" stroke="#999999" points="278,-129 210,-129 210,-110 278,-110 278,-129"/>
<text text-anchor="middle" x="244" y="-117" font-family="Helvetica,sans-Serif" font-size="10.00">filesystem</text>
</a>
</g>
</g>
<!-- Node4&#45;&gt;Node5 -->
<g id="edge4_Node000004_Node000005" class="edge">
<title>Node4&#45;&gt;Node5</title>
<g id="a_edge4_Node000004_Node000005"><a xlink:title=" ">
<path fill="none" stroke="#63b8ff" d="M373.33,-285.82C376.27,-263.24 380.98,-201.83 352,-165 343.01,-153.57 310.21,-140.99 283.09,-132.12"/>
<polygon fill="#63b8ff" stroke="#63b8ff" points="284,-128.74 273.41,-129.04 281.87,-135.41 284,-128.74"/>
</a>
</g>
</g>
<!-- Node6 -->
<g id="Node000006" class="node">
<title>Node6</title>
<g id="a_Node000006"><a xlink:href="_registry_8hpp.html" target="_top" xlink:title=" ">
<polygon fill="white" stroke="#666666" points="726,-250 628,-250 628,-231 726,-231 726,-250"/>
<text text-anchor="middle" x="677" y="-238" font-family="Helvetica,sans-Serif" font-size="10.00">ECS/Registry.hpp</text>
</a>
</g>
</g>
<!-- Node4&#45;&gt;Node6 -->
<g id="edge5_Node000004_Node000006" class="edge">
<title>Node4&#45;&gt;Node6</title>
<g id="a_edge5_Node000004_Node000006"><a xlink:title=" ">
<path fill="none" stroke="#63b8ff" d="M421,-285.98C474.62,-276.67 560.54,-261.74 617.86,-251.78"/>
<polygon fill="#63b8ff" stroke="#63b8ff" points="618.61,-255.2 627.87,-250.04 617.41,-248.3 618.61,-255.2"/>
</a>
</g>
</g>
<!-- Node7 -->
<g id="Node000007" class="node">
<title>Node7</title>
<g id="a_Node000007"><a xlink:title=" ">
<polygon fill="#e0e0e0" stroke="#999999" points="615,-129 529,-129 529,-110 615,-110 615,-129"/>
<text text-anchor="middle" x="572" y="-117" font-family="Helvetica,sans-Serif" font-size="10.00">unordered_set</text>
</a>
</g>
</g>
<!-- Node6&#45;&gt;Node7 -->
<g id="edge6_Node000006_Node000007" class="edge">
<title>Node6&#45;&gt;Node7</title>
<g id="a_edge6_Node000006_Node000007"><a xlink:title=" ">
<path fill="none" stroke="#63b8ff" d="M658.61,-230.91C643.7,-223.21 622.96,-210.72 609,-195 594.35,-178.51 584.01,-155.17 578.05,-139.03"/>
<polygon fill="#63b8ff" stroke="#63b8ff" points="581.22,-137.48 574.63,-129.18 574.61,-139.77 581.22,-137.48"/>
</a>
</g>
</g>
<!-- Node8 -->
<g id="Node000008" class="node">
<title>Node8</title>
<g id="a_Node000008"><a xlink:href="_logger_8hpp.html" target="_top" xlink:title=" ">
<polygon fill="white" stroke="#666666" points="1112.5,-189.5 995.5,-189.5 995.5,-170.5 1112.5,-170.5 1112.5,-189.5"/>
<text text-anchor="middle" x="1054" y="-177.5" font-family="Helvetica,sans-Serif" font-size="10.00">Common/Logger.hpp</text>
</a>
</g>
</g>
<!-- Node6&#45;&gt;Node8 -->
<g id="edge7_Node000006_Node000008" class="edge">
<title>Node6&#45;&gt;Node8</title>
<g id="a_edge7_Node000006_Node000008"><a xlink:title=" ">
<path fill="none" stroke="#63b8ff" d="M726.11,-233.35C787.19,-225.49 894.57,-210.98 986,-195 991.93,-193.96 998.14,-192.8 1004.29,-191.59"/>
<polygon fill="#63b8ff" stroke="#63b8ff" points="1005.4,-194.94 1014.52,-189.55 1004.03,-188.08 1005.4,-194.94"/>
</a>
</g>
</g>
<!-- Node11 -->
<g id="Node000011" class="node">
<title>Node11</title>
<g id="a_Node000011"><a xlink:href="_entity_8hpp.html" target="_top" xlink:title=" ">
<polygon fill="white" stroke="#666666" points="733,-74 647,-74 647,-55 733,-55 733,-74"/>
<text text-anchor="middle" x="690" y="-62" font-family="Helvetica,sans-Serif" font-size="10.00">ECS/Entity.hpp</text>
</a>
</g>
</g>
<!-- Node6&#45;&gt;Node11 -->
<g id="edge10_Node000006_Node000011" class="edge">
<title>Node6&#45;&gt;Node11</title>
<g id="a_edge10_Node000006_Node000011"><a xlink:title=" ">
<path fill="none" stroke="#63b8ff" d="M667.39,-230.69C659.13,-222.41 647.8,-209.18 643,-195 638.73,-182.37 640.08,-178.01 643,-165 649.9,-134.22 667.45,-101.76 679.04,-82.58"/>
<polygon fill="#63b8ff" stroke="#63b8ff" points="682.02,-84.42 684.33,-74.08 676.08,-80.72 682.02,-84.42"/>
</a>
</g>
</g>
<!-- Node13 -->
<g id="Node000013" class="node">
<title>Node13</title>
<g id="a_Node000013"><a xlink:href="_entity_hierarchy_8hpp.html" target="_top" xlink:title=" ">
<polygon fill="white" stroke="#666666" points="557,-189.5 423,-189.5 423,-170.5 557,-170.5 557,-189.5"/>
<text text-anchor="middle" x="490" y="-177.5" font-family="Helvetica,sans-Serif" font-size="10.00">ECS/EntityHierarchy.hpp</text>
</a>
</g>
</g>
<!-- Node6&#45;&gt;Node13 -->
<g id="edge12_Node000006_Node000013" class="edge">
<title>Node6&#45;&gt;Node13</title>
<g id="a_edge12_Node000006_Node000013"><a xlink:title=" ">
<path fill="none" stroke="#63b8ff" d="M649.81,-230.99C617.4,-220.86 563.1,-203.87 526.92,-192.55"/>
<polygon fill="#63b8ff" stroke="#63b8ff" points="527.81,-189.16 517.22,-189.52 525.72,-195.84 527.81,-189.16"/>
</a>
</g>
</g>
<!-- Node16 -->
<g id="Node000016" class="node">
<title>Node16</title>
<g id="a_Node000016"><a xlink:href="_entity_provider_8hpp.html" target="_top" xlink:title="Manages a pool of unused entity identifiers and provides mechanisms for requesting and removing them.">
<polygon fill="white" stroke="#666666" points="905,-129 777,-129 777,-110 905,-110 905,-129"/>
<text text-anchor="middle" x="841" y="-117" font-family="Helvetica,sans-Serif" font-size="10.00">ECS/EntityProvider.hpp</text>
</a>
</g>
</g>
<!-- Node6&#45;&gt;Node16 -->
<g id="edge17_Node000006_Node000016" class="edge">
<title>Node6&#45;&gt;Node16</title>
<g id="a_edge17_Node000006_Node000016"><a xlink:title=" ">
<path fill="none" stroke="#63b8ff" d="M726.08,-236.47C757.62,-231.94 797.2,-221.02 822,-195 836.22,-180.08 840.2,-156.07 841.12,-139.35"/>
<polygon fill="#63b8ff" stroke="#63b8ff" points="844.62,-139.22 841.35,-129.14 837.62,-139.06 844.62,-139.22"/>
</a>
</g>
</g>
<!-- Node17 -->
<g id="Node000017" class="node">
<title>Node17</title>
<g id="a_Node000017"><a xlink:href="_sparse_set_8hpp.html" target="_top" xlink:title=" ">
<polygon fill="white" stroke="#666666" points="977,-189.5 869,-189.5 869,-170.5 977,-170.5 977,-189.5"/>
<text text-anchor="middle" x="923" y="-177.5" font-family="Helvetica,sans-Serif" font-size="10.00">ECS/SparseSet.hpp</text>
</a>
</g>
</g>
<!-- Node6&#45;&gt;Node17 -->
<g id="edge21_Node000006_Node000017" class="edge">
<title>Node6&#45;&gt;Node17</title>
<g id="a_edge21_Node000006_Node000017"><a xlink:title=" ">
<path fill="none" stroke="#63b8ff" d="M712.77,-230.99C756.31,-220.64 829.9,-203.14 877.45,-191.83"/>
<polygon fill="#63b8ff" stroke="#63b8ff" points="878.27,-195.24 887.19,-189.52 876.65,-188.43 878.27,-195.24"/>
</a>
</g>
</g>
<!-- Node18 -->
<g id="Node000018" class="node">
<title>Node18</title>
<g id="a_Node000018"><a xlink:href="_singleton_component_8hpp.html" target="_top" xlink:title=" ">
<polygon fill="white" stroke="#666666" points="812.5,-189.5 651.5,-189.5 651.5,-170.5 812.5,-170.5 812.5,-189.5"/>
<text text-anchor="middle" x="732" y="-177.5" font-family="Helvetica,sans-Serif" font-size="10.00">ECS/SingletonComponent.hpp</text>
</a>
</g>
</g>
<!-- Node6&#45;&gt;Node18 -->
<g id="edge23_Node000006_Node000018" class="edge">
<title>Node6&#45;&gt;Node18</title>
<g id="a_edge23_Node000006_Node000018"><a xlink:title=" ">
<path fill="none" stroke="#63b8ff" d="M685.12,-230.87C693.4,-222.05 706.47,-208.16 716.7,-197.27"/>
<polygon fill="#63b8ff" stroke="#63b8ff" points="719.55,-199.35 723.85,-189.67 714.45,-194.56 719.55,-199.35"/>
</a>
</g>
</g>
<!-- Node9 -->
<g id="Node000009" class="node">
<title>Node9</title>
<g id="a_Node000009"><a xlink:title=" ">
<polygon fill="#e0e0e0" stroke="#999999" points="1026,-129 978,-129 978,-110 1026,-110 1026,-129"/>
<text text-anchor="middle" x="1002" y="-117" font-family="Helvetica,sans-Serif" font-size="10.00">mutex</text>
</a>
</g>
</g>
<!-- Node8&#45;&gt;Node9 -->
<g id="edge8_Node000008_Node000009" class="edge">
<title>Node8&#45;&gt;Node9</title>
<g id="a_edge8_Node000008_Node000009"><a xlink:title=" ">
<path fill="none" stroke="#63b8ff" d="M1046.33,-170.37C1038.49,-161.55 1026.14,-147.66 1016.46,-136.77"/>
<polygon fill="#63b8ff" stroke="#63b8ff" points="1018.96,-134.32 1009.7,-129.17 1013.73,-138.97 1018.96,-134.32"/>
</a>
</g>
</g>
<!-- Node10 -->
<g id="Node000010" class="node">
<title>Node10</title>
<g id="a_Node000010"><a xlink:title=" ">
<polygon fill="#e0e0e0" stroke="#999999" points="900.5,-74 853.5,-74 853.5,-55 900.5,-55 900.5,-74"/>
<text text-anchor="middle" x="877" y="-62" font-family="Helvetica,sans-Serif" font-size="10.00">queue</text>
</a>
</g>
</g>
<!-- Node8&#45;&gt;Node10 -->
<g id="edge9_Node000008_Node000010" class="edge">
<title>Node8&#45;&gt;Node10</title>
<g id="a_edge9_Node000008_Node000010"><a xlink:title=" ">
<path fill="none" stroke="#63b8ff" d="M1054.18,-170.49C1054,-156.01 1051.47,-126.57 1035,-110 1002.13,-76.94 946.76,-67.96 911.06,-65.79"/>
<polygon fill="#63b8ff" stroke="#63b8ff" points="910.81,-62.27 900.66,-65.31 910.49,-69.26 910.81,-62.27"/>
</a>
</g>
</g>
<!-- Node12 -->
<g id="Node000012" class="node">
<title>Node12</title>
<g id="a_Node000012"><a xlink:title=" ">
<polygon fill="#e0e0e0" stroke="#999999" points="751.5,-19 698.5,-19 698.5,0 751.5,0 751.5,-19"/>
<text text-anchor="middle" x="725" y="-7" font-family="Helvetica,sans-Serif" font-size="10.00">stdlib.h</text>
</a>
</g>
</g>
<!-- Node11&#45;&gt;Node12 -->
<g id="edge11_Node000011_Node000012" class="edge">
<title>Node11&#45;&gt;Node12</title>
<g id="a_edge11_Node000011_Node000012"><a xlink:title=" ">
<path fill="none" stroke="#63b8ff" d="M695.78,-54.75C700.62,-47.42 707.68,-36.73 713.64,-27.7"/>
<polygon fill="#63b8ff" stroke="#63b8ff" points="716.74,-29.36 719.33,-19.09 710.9,-25.5 716.74,-29.36"/>
</a>
</g>
</g>
<!-- Node13&#45;&gt;Node7 -->
<g id="edge14_Node000013_Node000007" class="edge">
<title>Node13&#45;&gt;Node7</title>
<g id="a_edge14_Node000013_Node000007"><a xlink:title=" ">
<path fill="none" stroke="#63b8ff" d="M502.1,-170.37C515.06,-161.12 535.86,-146.28 551.4,-135.19"/>
<polygon fill="#63b8ff" stroke="#63b8ff" points="553.74,-137.82 559.85,-129.17 549.68,-132.13 553.74,-137.82"/>
</a>
</g>
</g>
<!-- Node13&#45;&gt;Node11 -->
<g id="edge16_Node000013_Node000011" class="edge">
<title>Node13&#45;&gt;Node11</title>
<g id="a_edge16_Node000013_Node000011"><a xlink:title=" ">
<path fill="none" stroke="#63b8ff" d="M491.28,-170.36C493.91,-155.7 501.35,-125.98 520,-110 552.4,-82.24 600.14,-71.53 636.78,-67.53"/>
<polygon fill="#63b8ff" stroke="#63b8ff" points="637.18,-71 646.8,-66.57 636.51,-64.04 637.18,-71"/>
</a>
</g>
</g>
<!-- Node14 -->
<g id="Node000014" class="node">
<title>Node14</title>
<g id="a_Node000014"><a xlink:title=" ">
<polygon fill="#e0e0e0" stroke="#999999" points="361.5,-129 296.5,-129 296.5,-110 361.5,-110 361.5,-129"/>
<text text-anchor="middle" x="329" y="-117" font-family="Helvetica,sans-Serif" font-size="10.00">functional</text>
</a>
</g>
</g>
<!-- Node13&#45;&gt;Node14 -->
<g id="edge13_Node000013_Node000014" class="edge">
<title>Node13&#45;&gt;Node14</title>
<g id="a_edge13_Node000013_Node000014"><a xlink:title=" ">
<path fill="none" stroke="#63b8ff" d="M466.59,-170.49C439.05,-160.49 393.13,-143.8 361.99,-132.49"/>
<polygon fill="#63b8ff" stroke="#63b8ff" points="363.03,-129.14 352.44,-129.02 360.64,-135.72 363.03,-129.14"/>
</a>
</g>
</g>
<!-- Node15 -->
<g id="Node000015" class="node">
<title>Node15</title>
<g id="a_Node000015"><a xlink:title=" ">
<polygon fill="#e0e0e0" stroke="#999999" points="472.5,-129 379.5,-129 379.5,-110 472.5,-110 472.5,-129"/>
<text text-anchor="middle" x="426" y="-117" font-family="Helvetica,sans-Serif" font-size="10.00">unordered_map</text>
</a>
</g>
</g>
<!-- Node13&#45;&gt;Node15 -->
<g id="edge15_Node000013_Node000015" class="edge">
<title>Node13&#45;&gt;Node15</title>
<g id="a_edge15_Node000013_Node000015"><a xlink:title=" ">
<path fill="none" stroke="#63b8ff" d="M480.56,-170.37C470.73,-161.38 455.11,-147.11 443.11,-136.14"/>
<polygon fill="#63b8ff" stroke="#63b8ff" points="445.22,-133.33 435.48,-129.17 440.5,-138.5 445.22,-133.33"/>
</a>
</g>
</g>
<!-- Node16&#45;&gt;Node10 -->
<g id="edge19_Node000016_Node000010" class="edge">
<title>Node16&#45;&gt;Node10</title>
<g id="a_edge19_Node000016_Node000010"><a xlink:title=" ">
<path fill="none" stroke="#63b8ff" d="M846.94,-109.75C851.98,-102.34 859.34,-91.5 865.51,-82.41"/>
<polygon fill="#63b8ff" stroke="#63b8ff" points="868.44,-84.33 871.17,-74.09 862.65,-80.39 868.44,-84.33"/>
</a>
</g>
</g>
<!-- Node16&#45;&gt;Node11 -->
<g id="edge20_Node000016_Node000011" class="edge">
<title>Node16&#45;&gt;Node11</title>
<g id="a_edge20_Node000016_Node000011"><a xlink:title=" ">
<path fill="none" stroke="#63b8ff" d="M816.74,-109.98C791.68,-101.19 752.37,-87.39 724.17,-77.49"/>
<polygon fill="#63b8ff" stroke="#63b8ff" points="725.3,-74.18 714.7,-74.17 722.98,-80.78 725.3,-74.18"/>
</a>
</g>
</g>
<!-- Node16&#45;&gt;Node12 -->
<g id="edge18_Node000016_Node000012" class="edge">
<title>Node16&#45;&gt;Node12</title>
<g id="a_edge18_Node000016_Node000012"><a xlink:title=" ">
<path fill="none" stroke="#63b8ff" d="M831.51,-109.66C811.87,-91.38 766.55,-49.18 741.83,-26.17"/>
<polygon fill="#63b8ff" stroke="#63b8ff" points="744,-23.41 734.3,-19.16 739.23,-28.53 744,-23.41"/>
</a>
</g>
</g>
<!-- Node17&#45;&gt;Node16 -->
<g id="edge22_Node000017_Node000016" class="edge">
<title>Node17&#45;&gt;Node16</title>
<g id="a_edge22_Node000017_Node000016"><a xlink:title=" ">
<path fill="none" stroke="#63b8ff" d="M910.9,-170.37C897.94,-161.12 877.14,-146.28 861.6,-135.19"/>
<polygon fill="#63b8ff" stroke="#63b8ff" points="863.32,-132.13 853.15,-129.17 859.26,-137.82 863.32,-132.13"/>
</a>
</g>
</g>
<!-- Node19&#45;&gt;Node3 -->
<g id="edge26_Node000019_Node000003" class="edge">
<title>Node19&#45;&gt;Node3</title>
<g id="a_edge26_Node000019_Node000003"><a xlink:title=" ">
<path fill="none" stroke="#63b8ff" d="M123.77,-285.98C107.82,-277.61 83.22,-264.7 64.62,-254.95"/>
<polygon fill="#63b8ff" stroke="#63b8ff" points="66,-251.72 55.52,-250.17 62.75,-257.92 66,-251.72"/>
</a>
</g>
</g>
<!-- Node20 -->
<g id="Node000020" class="node">
<title>Node20</title>
<g id="a_Node000020"><a xlink:title=" ">
<polygon fill="#e0e0e0" stroke="#999999" points="167.5,-250 96.5,-250 96.5,-231 167.5,-231 167.5,-250"/>
<text text-anchor="middle" x="132" y="-238" font-family="Helvetica,sans-Serif" font-size="10.00">glad/glad.h</text>
</a>
</g>
</g>
<!-- Node19&#45;&gt;Node20 -->
<g id="edge25_Node000019_Node000020" class="edge">
<title>Node19&#45;&gt;Node20</title>
<g id="a_edge25_Node000019_Node000020"><a xlink:title=" ">
<path fill="none" stroke="#63b8ff" d="M138.68,-285.75C137.63,-278.8 136.13,-268.85 134.81,-260.13"/>
<polygon fill="#63b8ff" stroke="#63b8ff" points="138.25,-259.45 133.3,-250.09 131.33,-260.5 138.25,-259.45"/>
</a>
</g>
</g>
<!-- Node21 -->
<g id="Node000021" class="node">
<title>Node21</title>
<g id="a_Node000021"><a xlink:href="_image_8hpp.html" target="_top" xlink:title=" ">
<polygon fill="white" stroke="#666666" points="326.5,-250 185.5,-250 185.5,-231 326.5,-231 326.5,-250"/>
<text text-anchor="middle" x="256" y="-238" font-family="Helvetica,sans-Serif" font-size="10.00">AssetManager/Image.hpp</text>
</a>
</g>
</g>
<!-- Node19&#45;&gt;Node21 -->
<g id="edge27_Node000019_Node000021" class="edge">
<title>Node19&#45;&gt;Node21</title>
<g id="a_edge27_Node000019_Node000021"><a xlink:title=" ">
<path fill="none" stroke="#63b8ff" d="M158.64,-285.98C177.3,-277.46 206.25,-264.23 227.74,-254.41"/>
<polygon fill="#63b8ff" stroke="#63b8ff" points="229.38,-257.51 237.02,-250.17 226.47,-251.14 229.38,-257.51"/>
</a>
</g>
</g>
<!-- Node21&#45;&gt;Node5 -->
<g id="edge28_Node000021_Node000005" class="edge">
<title>Node21&#45;&gt;Node5</title>
<g id="a_edge28_Node000021_Node000005"><a xlink:title=" ">
<path fill="none" stroke="#63b8ff" d="M212.87,-230.93C192.88,-224.57 170.95,-213.64 159,-195 151.8,-183.78 152.1,-176.41 159,-165 168.14,-149.89 184.29,-139.67 200.07,-132.87"/>
<polygon fill="#63b8ff" stroke="#63b8ff" points="201.74,-135.97 209.78,-129.07 199.19,-129.46 201.74,-135.97"/>
</a>
</g>
</g>
<!-- Node22 -->
<g id="Node000022" class="node">
<title>Node22</title>
<g id="a_Node000022"><a xlink:href="_path_constructible_asset_8hpp.html" target="_top" xlink:title=" ">
<polygon fill="white" stroke="#666666" points="343.5,-195 168.5,-195 168.5,-165 343.5,-165 343.5,-195"/>
<text text-anchor="start" x="176.5" y="-183" font-family="Helvetica,sans-Serif" font-size="10.00">AssetManager/PathConstructible</text>
<text text-anchor="middle" x="256" y="-172" font-family="Helvetica,sans-Serif" font-size="10.00">Asset.hpp</text>
</a>
</g>
</g>
<!-- Node21&#45;&gt;Node22 -->
<g id="edge29_Node000021_Node000022" class="edge">
<title>Node21&#45;&gt;Node22</title>
<g id="a_edge29_Node000021_Node000022"><a xlink:title=" ">
<path fill="none" stroke="#63b8ff" d="M256,-230.87C256,-224.11 256,-214.35 256,-205.26"/>
<polygon fill="#63b8ff" stroke="#63b8ff" points="259.5,-205.11 256,-195.11 252.5,-205.11 259.5,-205.11"/>
</a>
</g>
</g>
<!-- Node22&#45;&gt;Node5 -->
<g id="edge30_Node000022_Node000005" class="edge">
<title>Node22&#45;&gt;Node5</title>
<g id="a_edge30_Node000022_Node000005"><a xlink:title=" ">
<path fill="none" stroke="#63b8ff" d="M253.1,-164.84C251.51,-157.13 249.54,-147.49 247.83,-139.17"/>
<polygon fill="#63b8ff" stroke="#63b8ff" points="251.24,-138.36 245.8,-129.27 244.38,-139.77 251.24,-138.36"/>
</a>
</g>
</g>
</g>
</svg>
