<?xml version="1.0" encoding="UTF-8" standalone="no"?>
<!DOCTYPE svg PUBLIC "-//W3C//DTD SVG 1.1//EN"
 "http://www.w3.org/Graphics/SVG/1.1/DTD/svg11.dtd">
<!-- Generated by graphviz version 2.43.0 (0)
 -->
<!-- Title: src/AssetManager/Material.cpp Pages: 1 -->
<svg width="898pt" height="533pt"
 viewBox="0.00 0.00 897.77 533.00" xmlns="http://www.w3.org/2000/svg" xmlns:xlink="http://www.w3.org/1999/xlink">
<g id="graph0" class="graph" transform="scale(1 1) rotate(0) translate(4 529)">
<title>src/AssetManager/Material.cpp</title>
<!-- Node1 -->
<g id="Node000001" class="node">
<title>Node1</title>
<g id="a_Node000001"><a xlink:title=" ">
<polygon fill="#999999" stroke="#666666" points="714.27,-525 547.27,-525 547.27,-506 714.27,-506 714.27,-525"/>
<text text-anchor="middle" x="630.77" y="-513" font-family="Helvetica,sans-Serif" font-size="10.00">src/AssetManager/Material.cpp</text>
</a>
</g>
</g>
<!-- Node2 -->
<g id="Node000002" class="node">
<title>Node2</title>
<g id="a_Node000002"><a xlink:href="_material_8hpp.html" target="_top" xlink:title=" ">
<polygon fill="white" stroke="#666666" points="706.27,-470 555.27,-470 555.27,-451 706.27,-451 706.27,-470"/>
<text text-anchor="middle" x="630.77" y="-458" font-family="Helvetica,sans-Serif" font-size="10.00">AssetManager/Material.hpp</text>
</a>
</g>
</g>
<!-- Node1&#45;&gt;Node2 -->
<g id="edge1_Node000001_Node000002" class="edge">
<title>Node1&#45;&gt;Node2</title>
<g id="a_edge1_Node000001_Node000002"><a xlink:title=" ">
<path fill="none" stroke="#63b8ff" d="M630.77,-505.75C630.77,-498.8 630.77,-488.85 630.77,-480.13"/>
<polygon fill="#63b8ff" stroke="#63b8ff" points="634.27,-480.09 630.77,-470.09 627.27,-480.09 634.27,-480.09"/>
</a>
</g>
</g>
<!-- Node3 -->
<g id="Node000003" class="node">
<title>Node3</title>
<g id="a_Node000003"><a xlink:href="_asset_8hpp.html" target="_top" xlink:title=" ">
<polygon fill="white" stroke="#666666" points="430.27,-299.5 293.27,-299.5 293.27,-280.5 430.27,-280.5 430.27,-299.5"/>
<text text-anchor="middle" x="361.77" y="-287.5" font-family="Helvetica,sans-Serif" font-size="10.00">AssetManager/Asset.hpp</text>
</a>
</g>
</g>
<!-- Node2&#45;&gt;Node3 -->
<g id="edge2_Node000002_Node000003" class="edge">
<title>Node2&#45;&gt;Node3</title>
<g id="a_edge2_Node000002_Node000003"><a xlink:title=" ">
<path fill="none" stroke="#63b8ff" d="M566,-450.98C508.77,-439.95 427.36,-415.12 380.77,-360 368.88,-345.93 364.39,-325.03 362.72,-309.91"/>
<polygon fill="#63b8ff" stroke="#63b8ff" points="366.19,-309.39 361.91,-299.7 359.21,-309.94 366.19,-309.39"/>
</a>
</g>
</g>
<!-- Node18 -->
<g id="Node000018" class="node">
<title>Node18</title>
<g id="a_Node000018"><a xlink:href="_texture_8hpp.html" target="_top" xlink:title=" ">
<polygon fill="white" stroke="#666666" points="653.77,-415 507.77,-415 507.77,-396 653.77,-396 653.77,-415"/>
<text text-anchor="middle" x="580.77" y="-403" font-family="Helvetica,sans-Serif" font-size="10.00">AssetManager/Texture.hpp</text>
</a>
</g>
</g>
<!-- Node2&#45;&gt;Node18 -->
<g id="edge23_Node000002_Node000018" class="edge">
<title>Node2&#45;&gt;Node18</title>
<g id="a_edge23_Node000002_Node000018"><a xlink:title=" ">
<path fill="none" stroke="#63b8ff" d="M622.51,-450.75C615.31,-443.11 604.66,-431.82 595.92,-422.56"/>
<polygon fill="#63b8ff" stroke="#63b8ff" points="598.28,-419.96 588.87,-415.09 593.19,-424.76 598.28,-419.96"/>
</a>
</g>
</g>
<!-- Node22 -->
<g id="Node000022" class="node">
<title>Node22</title>
<g id="a_Node000022"><a xlink:href="_instance_counter_8hpp.html" target="_top" xlink:title=" ">
<polygon fill="white" stroke="#666666" points="826.77,-239 662.77,-239 662.77,-220 826.77,-220 826.77,-239"/>
<text text-anchor="middle" x="744.77" y="-227" font-family="Helvetica,sans-Serif" font-size="10.00">Common/InstanceCounter.hpp</text>
</a>
</g>
</g>
<!-- Node2&#45;&gt;Node22 -->
<g id="edge38_Node000002_Node000022" class="edge">
<title>Node2&#45;&gt;Node22</title>
<g id="a_edge38_Node000002_Node000022"><a xlink:title=" ">
<path fill="none" stroke="#63b8ff" d="M643.43,-450.84C664.79,-435.43 707.42,-400.98 725.77,-360 742.2,-323.31 745,-275.49 745.16,-249.44"/>
<polygon fill="#63b8ff" stroke="#63b8ff" points="748.65,-249.1 745.08,-239.12 741.65,-249.15 748.65,-249.1"/>
</a>
</g>
</g>
<!-- Node29 -->
<g id="Node000029" class="node">
<title>Node29</title>
<g id="a_Node000029"><a xlink:title=" ">
<polygon fill="#e0e0e0" stroke="#999999" points="716.77,-360 638.77,-360 638.77,-341 716.77,-341 716.77,-360"/>
<text text-anchor="middle" x="677.77" y="-348" font-family="Helvetica,sans-Serif" font-size="10.00">glm/glm.hpp</text>
</a>
</g>
</g>
<!-- Node2&#45;&gt;Node29 -->
<g id="edge39_Node000002_Node000029" class="edge">
<title>Node2&#45;&gt;Node29</title>
<g id="a_edge39_Node000002_Node000029"><a xlink:title=" ">
<path fill="none" stroke="#63b8ff" d="M638.51,-450.94C645.81,-442.43 656.53,-428.68 662.77,-415 669.31,-400.65 673.17,-383.13 675.34,-370.13"/>
<polygon fill="#63b8ff" stroke="#63b8ff" points="678.83,-370.47 676.82,-360.06 671.9,-369.44 678.83,-370.47"/>
</a>
</g>
</g>
<!-- Node4 -->
<g id="Node000004" class="node">
<title>Node4</title>
<g id="a_Node000004"><a xlink:href="_registry_8hpp.html" target="_top" xlink:title=" ">
<polygon fill="white" stroke="#666666" points="371.77,-239 273.77,-239 273.77,-220 371.77,-220 371.77,-239"/>
<text text-anchor="middle" x="322.77" y="-227" font-family="Helvetica,sans-Serif" font-size="10.00">ECS/Registry.hpp</text>
</a>
</g>
</g>
<!-- Node3&#45;&gt;Node4 -->
<g id="edge3_Node000003_Node000004" class="edge">
<title>Node3&#45;&gt;Node4</title>
<g id="a_edge3_Node000003_Node000004"><a xlink:title=" ">
<path fill="none" stroke="#63b8ff" d="M356.02,-280.37C350.31,-271.81 341.42,-258.47 334.26,-247.74"/>
<polygon fill="#63b8ff" stroke="#63b8ff" points="337.01,-245.55 328.55,-239.17 331.18,-249.43 337.01,-245.55"/>
</a>
</g>
</g>
<!-- Node17 -->
<g id="Node000017" class="node">
<title>Node17</title>
<g id="a_Node000017"><a xlink:title=" ">
<polygon fill="#e0e0e0" stroke="#999999" points="493.77,-239 425.77,-239 425.77,-220 493.77,-220 493.77,-239"/>
<text text-anchor="middle" x="459.77" y="-227" font-family="Helvetica,sans-Serif" font-size="10.00">filesystem</text>
</a>
</g>
</g>
<!-- Node3&#45;&gt;Node17 -->
<g id="edge22_Node000003_Node000017" class="edge">
<title>Node3&#45;&gt;Node17</title>
<g id="a_edge22_Node000003_Node000017"><a xlink:title=" ">
<path fill="none" stroke="#63b8ff" d="M376.23,-280.37C392.08,-270.91 417.74,-255.59 436.45,-244.42"/>
<polygon fill="#63b8ff" stroke="#63b8ff" points="438.46,-247.3 445.25,-239.17 434.87,-241.29 438.46,-247.3"/>
</a>
</g>
</g>
<!-- Node5 -->
<g id="Node000005" class="node">
<title>Node5</title>
<g id="a_Node000005"><a xlink:title=" ">
<polygon fill="#e0e0e0" stroke="#999999" points="332.77,-129 246.77,-129 246.77,-110 332.77,-110 332.77,-129"/>
<text text-anchor="middle" x="289.77" y="-117" font-family="Helvetica,sans-Serif" font-size="10.00">unordered_set</text>
</a>
</g>
</g>
<!-- Node4&#45;&gt;Node5 -->
<g id="edge4_Node000004_Node000005" class="edge">
<title>Node4&#45;&gt;Node5</title>
<g id="a_edge4_Node000004_Node000005"><a xlink:title=" ">
<path fill="none" stroke="#63b8ff" d="M273.59,-224.61C246.16,-219.63 214.12,-208.53 196.77,-184 179.99,-160.28 214.04,-142.7 245.56,-132.12"/>
<polygon fill="#63b8ff" stroke="#63b8ff" points="246.72,-135.42 255.2,-129.07 244.61,-128.75 246.72,-135.42"/>
</a>
</g>
</g>
<!-- Node6 -->
<g id="Node000006" class="node">
<title>Node6</title>
<g id="a_Node000006"><a xlink:href="_logger_8hpp.html" target="_top" xlink:title=" ">
<polygon fill="white" stroke="#666666" points="667.27,-184 550.27,-184 550.27,-165 667.27,-165 667.27,-184"/>
<text text-anchor="middle" x="608.77" y="-172" font-family="Helvetica,sans-Serif" font-size="10.00">Common/Logger.hpp</text>
</a>
</g>
</g>
<!-- Node4&#45;&gt;Node6 -->
<g id="edge5_Node000004_Node000006" class="edge">
<title>Node4&#45;&gt;Node6</title>
<g id="a_edge5_Node000004_Node000006"><a xlink:title=" ">
<path fill="none" stroke="#63b8ff" d="M368.72,-219.98C418.71,-210.72 498.66,-195.9 552.41,-185.94"/>
<polygon fill="#63b8ff" stroke="#63b8ff" points="553.26,-189.35 562.46,-184.08 551.99,-182.46 553.26,-189.35"/>
</a>
</g>
</g>
<!-- Node9 -->
<g id="Node000009" class="node">
<title>Node9</title>
<g id="a_Node000009"><a xlink:href="_entity_8hpp.html" target="_top" xlink:title=" ">
<polygon fill="white" stroke="#666666" points="192.77,-74 106.77,-74 106.77,-55 192.77,-55 192.77,-74"/>
<text text-anchor="middle" x="149.77" y="-62" font-family="Helvetica,sans-Serif" font-size="10.00">ECS/Entity.hpp</text>
</a>
</g>
</g>
<!-- Node4&#45;&gt;Node9 -->
<g id="edge8_Node000004_Node000009" class="edge">
<title>Node4&#45;&gt;Node9</title>
<g id="a_edge8_Node000004_Node000009"><a xlink:title=" ">
<path fill="none" stroke="#63b8ff" d="M273.68,-229.07C193.7,-228.82 40.75,-223.1 6.77,-184 -12.76,-161.53 14.48,-129.01 35.77,-110 53.5,-94.17 77.5,-83.68 98.91,-76.88"/>
<polygon fill="#63b8ff" stroke="#63b8ff" points="99.95,-80.22 108.53,-74.01 97.95,-73.52 99.95,-80.22"/>
</a>
</g>
</g>
<!-- Node11 -->
<g id="Node000011" class="node">
<title>Node11</title>
<g id="a_Node000011"><a xlink:href="_entity_hierarchy_8hpp.html" target="_top" xlink:title=" ">
<polygon fill="white" stroke="#666666" points="149.77,-184 15.77,-184 15.77,-165 149.77,-165 149.77,-184"/>
<text text-anchor="middle" x="82.77" y="-172" font-family="Helvetica,sans-Serif" font-size="10.00">ECS/EntityHierarchy.hpp</text>
</a>
</g>
</g>
<!-- Node4&#45;&gt;Node11 -->
<g id="edge10_Node000004_Node000011" class="edge">
<title>Node4&#45;&gt;Node11</title>
<g id="a_edge10_Node000004_Node000011"><a xlink:title=" ">
<path fill="none" stroke="#63b8ff" d="M284.21,-219.98C242.7,-210.82 176.56,-196.21 131.48,-186.26"/>
<polygon fill="#63b8ff" stroke="#63b8ff" points="132.15,-182.82 121.63,-184.08 130.64,-189.66 132.15,-182.82"/>
</a>
</g>
</g>
<!-- Node14 -->
<g id="Node000014" class="node">
<title>Node14</title>
<g id="a_Node000014"><a xlink:href="_entity_provider_8hpp.html" target="_top" xlink:title="Manages a pool of unused entity identifiers and provides mechanisms for requesting and removing them.">
<polygon fill="white" stroke="#666666" points="503.77,-129 375.77,-129 375.77,-110 503.77,-110 503.77,-129"/>
<text text-anchor="middle" x="439.77" y="-117" font-family="Helvetica,sans-Serif" font-size="10.00">ECS/EntityProvider.hpp</text>
</a>
</g>
</g>
<!-- Node4&#45;&gt;Node14 -->
<g id="edge15_Node000004_Node000014" class="edge">
<title>Node4&#45;&gt;Node14</title>
<g id="a_edge15_Node000004_Node000014"><a xlink:title=" ">
<path fill="none" stroke="#63b8ff" d="M372.14,-223.09C419.72,-216.74 486.8,-204.4 502.77,-184 517.49,-165.19 491.78,-146.06 468.91,-133.79"/>
<polygon fill="#63b8ff" stroke="#63b8ff" points="470.23,-130.53 459.73,-129.12 467.06,-136.77 470.23,-130.53"/>
</a>
</g>
</g>
<!-- Node15 -->
<g id="Node000015" class="node">
<title>Node15</title>
<g id="a_Node000015"><a xlink:href="_singleton_component_8hpp.html" target="_top" xlink:title=" ">
<polygon fill="white" stroke="#666666" points="367.27,-184 206.27,-184 206.27,-165 367.27,-165 367.27,-184"/>
<text text-anchor="middle" x="286.77" y="-172" font-family="Helvetica,sans-Serif" font-size="10.00">ECS/SingletonComponent.hpp</text>
</a>
</g>
</g>
<!-- Node4&#45;&gt;Node15 -->
<g id="edge19_Node000004_Node000015" class="edge">
<title>Node4&#45;&gt;Node15</title>
<g id="a_edge19_Node000004_Node000015"><a xlink:title=" ">
<path fill="none" stroke="#63b8ff" d="M316.83,-219.75C311.79,-212.34 304.43,-201.5 298.26,-192.41"/>
<polygon fill="#63b8ff" stroke="#63b8ff" points="301.12,-190.39 292.6,-184.09 295.33,-194.33 301.12,-190.39"/>
</a>
</g>
</g>
<!-- Node16 -->
<g id="Node000016" class="node">
<title>Node16</title>
<g id="a_Node000016"><a xlink:href="_sparse_set_8hpp.html" target="_top" xlink:title=" ">
<polygon fill="white" stroke="#666666" points="493.77,-184 385.77,-184 385.77,-165 493.77,-165 493.77,-184"/>
<text text-anchor="middle" x="439.77" y="-172" font-family="Helvetica,sans-Serif" font-size="10.00">ECS/SparseSet.hpp</text>
</a>
</g>
</g>
<!-- Node4&#45;&gt;Node16 -->
<g id="edge20_Node000004_Node000016" class="edge">
<title>Node4&#45;&gt;Node16</title>
<g id="a_edge20_Node000004_Node000016"><a xlink:title=" ">
<path fill="none" stroke="#63b8ff" d="M341.57,-219.98C360.39,-211.46 389.59,-198.23 411.27,-188.41"/>
<polygon fill="#63b8ff" stroke="#63b8ff" points="412.96,-191.48 420.63,-184.17 410.08,-185.11 412.96,-191.48"/>
</a>
</g>
</g>
<!-- Node7 -->
<g id="Node000007" class="node">
<title>Node7</title>
<g id="a_Node000007"><a xlink:title=" ">
<polygon fill="#e0e0e0" stroke="#999999" points="634.77,-129 586.77,-129 586.77,-110 634.77,-110 634.77,-129"/>
<text text-anchor="middle" x="610.77" y="-117" font-family="Helvetica,sans-Serif" font-size="10.00">mutex</text>
</a>
</g>
</g>
<!-- Node6&#45;&gt;Node7 -->
<g id="edge6_Node000006_Node000007" class="edge">
<title>Node6&#45;&gt;Node7</title>
<g id="a_edge6_Node000006_Node000007"><a xlink:title=" ">
<path fill="none" stroke="#63b8ff" d="M609.1,-164.75C609.36,-157.8 609.74,-147.85 610.07,-139.13"/>
<polygon fill="#63b8ff" stroke="#63b8ff" points="613.57,-139.21 610.45,-129.09 606.57,-138.95 613.57,-139.21"/>
</a>
</g>
</g>
<!-- Node8 -->
<g id="Node000008" class="node">
<title>Node8</title>
<g id="a_Node000008"><a xlink:title=" ">
<polygon fill="#e0e0e0" stroke="#999999" points="515.27,-74 468.27,-74 468.27,-55 515.27,-55 515.27,-74"/>
<text text-anchor="middle" x="491.77" y="-62" font-family="Helvetica,sans-Serif" font-size="10.00">queue</text>
</a>
</g>
</g>
<!-- Node6&#45;&gt;Node8 -->
<g id="edge7_Node000006_Node000008" class="edge">
<title>Node6&#45;&gt;Node8</title>
<g id="a_edge7_Node000006_Node000008"><a xlink:title=" ">
<path fill="none" stroke="#63b8ff" d="M599.2,-164.66C579.39,-146.38 533.67,-104.18 508.74,-81.17"/>
<polygon fill="#63b8ff" stroke="#63b8ff" points="510.87,-78.37 501.15,-74.16 506.12,-83.51 510.87,-78.37"/>
</a>
</g>
</g>
<!-- Node10 -->
<g id="Node000010" class="node">
<title>Node10</title>
<g id="a_Node000010"><a xlink:title=" ">
<polygon fill="#e0e0e0" stroke="#999999" points="211.27,-19 158.27,-19 158.27,0 211.27,0 211.27,-19"/>
<text text-anchor="middle" x="184.77" y="-7" font-family="Helvetica,sans-Serif" font-size="10.00">stdlib.h</text>
</a>
</g>
</g>
<!-- Node9&#45;&gt;Node10 -->
<g id="edge9_Node000009_Node000010" class="edge">
<title>Node9&#45;&gt;Node10</title>
<g id="a_edge9_Node000009_Node000010"><a xlink:title=" ">
<path fill="none" stroke="#63b8ff" d="M155.55,-54.75C160.39,-47.42 167.45,-36.73 173.41,-27.7"/>
<polygon fill="#63b8ff" stroke="#63b8ff" points="176.51,-29.36 179.1,-19.09 170.67,-25.5 176.51,-29.36"/>
</a>
</g>
</g>
<!-- Node11&#45;&gt;Node5 -->
<g id="edge13_Node000011_Node000005" class="edge">
<title>Node11&#45;&gt;Node5</title>
<g id="a_edge13_Node000011_Node000005"><a xlink:title=" ">
<path fill="none" stroke="#63b8ff" d="M116.03,-164.98C151.38,-155.93 207.44,-141.58 246.28,-131.64"/>
<polygon fill="#63b8ff" stroke="#63b8ff" points="247.43,-134.95 256.25,-129.08 245.7,-128.17 247.43,-134.95"/>
</a>
</g>
</g>
<!-- Node11&#45;&gt;Node9 -->
<g id="edge14_Node000011_Node000009" class="edge">
<title>Node11&#45;&gt;Node9</title>
<g id="a_edge14_Node000011_Node000009"><a xlink:title=" ">
<path fill="none" stroke="#63b8ff" d="M70.58,-164.99C54.54,-152.72 29.83,-129.4 42.77,-110 55.06,-91.58 76.56,-80.77 97.08,-74.44"/>
<polygon fill="#63b8ff" stroke="#63b8ff" points="98.02,-77.81 106.72,-71.75 96.14,-71.06 98.02,-77.81"/>
</a>
</g>
</g>
<!-- Node12 -->
<g id="Node000012" class="node">
<title>Node12</title>
<g id="a_Node000012"><a xlink:title=" ">
<polygon fill="#e0e0e0" stroke="#999999" points="117.27,-129 52.27,-129 52.27,-110 117.27,-110 117.27,-129"/>
<text text-anchor="middle" x="84.77" y="-117" font-family="Helvetica,sans-Serif" font-size="10.00">functional</text>
</a>
</g>
</g>
<!-- Node11&#45;&gt;Node12 -->
<g id="edge11_Node000011_Node000012" class="edge">
<title>Node11&#45;&gt;Node12</title>
<g id="a_edge11_Node000011_Node000012"><a xlink:title=" ">
<path fill="none" stroke="#63b8ff" d="M83.1,-164.75C83.36,-157.8 83.74,-147.85 84.07,-139.13"/>
<polygon fill="#63b8ff" stroke="#63b8ff" points="87.57,-139.21 84.45,-129.09 80.57,-138.95 87.57,-139.21"/>
</a>
</g>
</g>
<!-- Node13 -->
<g id="Node000013" class="node">
<title>Node13</title>
<g id="a_Node000013"><a xlink:title=" ">
<polygon fill="#e0e0e0" stroke="#999999" points="228.27,-129 135.27,-129 135.27,-110 228.27,-110 228.27,-129"/>
<text text-anchor="middle" x="181.77" y="-117" font-family="Helvetica,sans-Serif" font-size="10.00">unordered_map</text>
</a>
</g>
</g>
<!-- Node11&#45;&gt;Node13 -->
<g id="edge12_Node000011_Node000013" class="edge">
<title>Node11&#45;&gt;Node13</title>
<g id="a_edge12_Node000011_Node000013"><a xlink:title=" ">
<path fill="none" stroke="#63b8ff" d="M98.68,-164.98C114.31,-156.61 138.42,-143.7 156.65,-133.95"/>
<polygon fill="#63b8ff" stroke="#63b8ff" points="158.41,-136.98 165.57,-129.17 155.11,-130.8 158.41,-136.98"/>
</a>
</g>
</g>
<!-- Node14&#45;&gt;Node8 -->
<g id="edge17_Node000014_Node000008" class="edge">
<title>Node14&#45;&gt;Node8</title>
<g id="a_edge17_Node000014_Node000008"><a xlink:title=" ">
<path fill="none" stroke="#63b8ff" d="M448.36,-109.75C455.93,-102.03 467.15,-90.6 476.28,-81.28"/>
<polygon fill="#63b8ff" stroke="#63b8ff" points="478.84,-83.68 483.34,-74.09 473.84,-78.78 478.84,-83.68"/>
</a>
</g>
</g>
<!-- Node14&#45;&gt;Node9 -->
<g id="edge18_Node000014_Node000009" class="edge">
<title>Node14&#45;&gt;Node9</title>
<g id="a_edge18_Node000014_Node000009"><a xlink:title=" ">
<path fill="none" stroke="#63b8ff" d="M393.18,-109.98C341.28,-100.5 257.55,-85.2 203.08,-75.24"/>
<polygon fill="#63b8ff" stroke="#63b8ff" points="203.4,-71.74 192.93,-73.39 202.14,-78.63 203.4,-71.74"/>
</a>
</g>
</g>
<!-- Node14&#45;&gt;Node10 -->
<g id="edge16_Node000014_Node000010" class="edge">
<title>Node14&#45;&gt;Node10</title>
<g id="a_edge16_Node000014_Node000010"><a xlink:title=" ">
<path fill="none" stroke="#63b8ff" d="M419.33,-109.84C374.37,-90.8 266.7,-45.2 214.35,-23.03"/>
<polygon fill="#63b8ff" stroke="#63b8ff" points="215.52,-19.72 204.95,-19.05 212.79,-26.17 215.52,-19.72"/>
</a>
</g>
</g>
<!-- Node16&#45;&gt;Node14 -->
<g id="edge21_Node000016_Node000014" class="edge">
<title>Node16&#45;&gt;Node14</title>
<g id="a_edge21_Node000016_Node000014"><a xlink:title=" ">
<path fill="none" stroke="#63b8ff" d="M439.77,-164.75C439.77,-157.8 439.77,-147.85 439.77,-139.13"/>
<polygon fill="#63b8ff" stroke="#63b8ff" points="443.27,-139.09 439.77,-129.09 436.27,-139.09 443.27,-139.09"/>
</a>
</g>
</g>
<!-- Node19 -->
<g id="Node000019" class="node">
<title>Node19</title>
<g id="a_Node000019"><a xlink:title=" ">
<polygon fill="#e0e0e0" stroke="#999999" points="620.27,-360 549.27,-360 549.27,-341 620.27,-341 620.27,-360"/>
<text text-anchor="middle" x="584.77" y="-348" font-family="Helvetica,sans-Serif" font-size="10.00">glad/glad.h</text>
</a>
</g>
</g>
<!-- Node18&#45;&gt;Node19 -->
<g id="edge24_Node000018_Node000019" class="edge">
<title>Node18&#45;&gt;Node19</title>
<g id="a_edge24_Node000018_Node000019"><a xlink:title=" ">
<path fill="none" stroke="#63b8ff" d="M581.43,-395.75C581.95,-388.8 582.71,-378.85 583.36,-370.13"/>
<polygon fill="#63b8ff" stroke="#63b8ff" points="586.86,-370.32 584.12,-360.09 579.88,-369.8 586.86,-370.32"/>
</a>
</g>
</g>
<!-- Node20 -->
<g id="Node000020" class="node">
<title>Node20</title>
<g id="a_Node000020"><a xlink:href="_image_8hpp.html" target="_top" xlink:title=" ">
<polygon fill="white" stroke="#666666" points="531.27,-360 390.27,-360 390.27,-341 531.27,-341 531.27,-360"/>
<text text-anchor="middle" x="460.77" y="-348" font-family="Helvetica,sans-Serif" font-size="10.00">AssetManager/Image.hpp</text>
</a>
</g>
</g>
<!-- Node18&#45;&gt;Node20 -->
<g id="edge25_Node000018_Node000020" class="edge">
<title>Node18&#45;&gt;Node20</title>
<g id="a_edge25_Node000018_Node000020"><a xlink:title=" ">
<path fill="none" stroke="#63b8ff" d="M561.49,-395.98C542.1,-387.42 511.96,-374.11 489.7,-364.28"/>
<polygon fill="#63b8ff" stroke="#63b8ff" points="490.96,-361.01 480.4,-360.17 488.13,-367.41 490.96,-361.01"/>
</a>
</g>
</g>
<!-- Node18&#45;&gt;Node29 -->
<g id="edge37_Node000018_Node000029" class="edge">
<title>Node18&#45;&gt;Node29</title>
<g id="a_edge37_Node000018_Node000029"><a xlink:title=" ">
<path fill="none" stroke="#63b8ff" d="M596.35,-395.98C611.54,-387.69 634.87,-374.94 652.67,-365.22"/>
<polygon fill="#63b8ff" stroke="#63b8ff" points="654.8,-368.04 661.9,-360.17 651.45,-361.89 654.8,-368.04"/>
</a>
</g>
</g>
<!-- Node20&#45;&gt;Node17 -->
<g id="edge26_Node000020_Node000017" class="edge">
<title>Node20&#45;&gt;Node17</title>
<g id="a_edge26_Node000020_Node000017"><a xlink:title=" ">
<path fill="none" stroke="#63b8ff" d="M460.7,-340.94C460.54,-321.91 460.15,-275.69 459.93,-249.47"/>
<polygon fill="#63b8ff" stroke="#63b8ff" points="463.43,-249.27 459.84,-239.3 456.43,-249.33 463.43,-249.27"/>
</a>
</g>
</g>
<!-- Node21 -->
<g id="Node000021" class="node">
<title>Node21</title>
<g id="a_Node000021"><a xlink:href="_path_constructible_asset_8hpp.html" target="_top" xlink:title=" ">
<polygon fill="white" stroke="#666666" points="663.27,-305 488.27,-305 488.27,-275 663.27,-275 663.27,-305"/>
<text text-anchor="start" x="496.27" y="-293" font-family="Helvetica,sans-Serif" font-size="10.00">AssetManager/PathConstructible</text>
<text text-anchor="middle" x="575.77" y="-282" font-family="Helvetica,sans-Serif" font-size="10.00">Asset.hpp</text>
</a>
</g>
</g>
<!-- Node20&#45;&gt;Node21 -->
<g id="edge27_Node000020_Node000021" class="edge">
<title>Node20&#45;&gt;Node21</title>
<g id="a_edge27_Node000020_Node000021"><a xlink:title=" ">
<path fill="none" stroke="#63b8ff" d="M477.74,-340.87C493.78,-332.71 518.37,-320.2 538.92,-309.75"/>
<polygon fill="#63b8ff" stroke="#63b8ff" points="540.7,-312.77 548.02,-305.11 537.52,-306.53 540.7,-312.77"/>
</a>
</g>
</g>
<!-- Node21&#45;&gt;Node17 -->
<g id="edge28_Node000021_Node000017" class="edge">
<title>Node21&#45;&gt;Node17</title>
<g id="a_edge28_Node000021_Node000017"><a xlink:title=" ">
<path fill="none" stroke="#63b8ff" d="M547.98,-274.99C529.15,-265.49 504.42,-253.02 485.93,-243.69"/>
<polygon fill="#63b8ff" stroke="#63b8ff" points="487.41,-240.52 476.9,-239.14 484.25,-246.77 487.41,-240.52"/>
</a>
</g>
</g>
<!-- Node21&#45;&gt;Node22 -->
<g id="edge29_Node000021_Node000022" class="edge">
<title>Node21&#45;&gt;Node22</title>
<g id="a_edge29_Node000021_Node000022"><a xlink:title=" ">
<path fill="none" stroke="#63b8ff" d="M616.25,-274.99C644.95,-265.05 683.05,-251.86 710.3,-242.43"/>
<polygon fill="#63b8ff" stroke="#63b8ff" points="711.51,-245.72 719.81,-239.14 709.22,-239.1 711.51,-245.72"/>
</a>
</g>
</g>
<!-- Node23 -->
<g id="Node000023" class="node">
<title>Node23</title>
<g id="a_Node000023"><a xlink:title=" ">
<polygon fill="#e0e0e0" stroke="#999999" points="872.77,-184 822.77,-184 822.77,-165 872.77,-165 872.77,-184"/>
<text text-anchor="middle" x="847.77" y="-172" font-family="Helvetica,sans-Serif" font-size="10.00">atomic</text>
</a>
</g>
</g>
<!-- Node22&#45;&gt;Node23 -->
<g id="edge30_Node000022_Node000023" class="edge">
<title>Node22&#45;&gt;Node23</title>
<g id="a_edge30_Node000022_Node000023"><a xlink:title=" ">
<path fill="none" stroke="#63b8ff" d="M761.32,-219.98C777.66,-211.57 802.9,-198.59 821.9,-188.81"/>
<polygon fill="#63b8ff" stroke="#63b8ff" points="823.63,-191.86 830.92,-184.17 820.43,-185.63 823.63,-191.86"/>
</a>
</g>
</g>
<!-- Node24 -->
<g id="Node000024" class="node">
<title>Node24</title>
<g id="a_Node000024"><a xlink:href="_profiler_8hpp.html" target="_top" xlink:title=" ">
<polygon fill="white" stroke="#666666" points="804.27,-184 685.27,-184 685.27,-165 804.27,-165 804.27,-184"/>
<text text-anchor="middle" x="744.77" y="-172" font-family="Helvetica,sans-Serif" font-size="10.00">Common/Profiler.hpp</text>
</a>
</g>
</g>
<!-- Node22&#45;&gt;Node24 -->
<g id="edge31_Node000022_Node000024" class="edge">
<title>Node22&#45;&gt;Node24</title>
<g id="a_edge31_Node000022_Node000024"><a xlink:title=" ">
<path fill="none" stroke="#63b8ff" d="M744.77,-219.75C744.77,-212.8 744.77,-202.85 744.77,-194.13"/>
<polygon fill="#63b8ff" stroke="#63b8ff" points="748.27,-194.09 744.77,-184.09 741.27,-194.09 748.27,-194.09"/>
</a>
</g>
</g>
<!-- Node24&#45;&gt;Node7 -->
<g id="edge34_Node000024_Node000007" class="edge">
<title>Node24&#45;&gt;Node7</title>
<g id="a_edge34_Node000024_Node000007"><a xlink:title=" ">
<path fill="none" stroke="#63b8ff" d="M723.24,-164.98C701.3,-156.3 667.03,-142.75 642.08,-132.88"/>
<polygon fill="#63b8ff" stroke="#63b8ff" points="643.28,-129.59 632.69,-129.17 640.7,-136.1 643.28,-129.59"/>
</a>
</g>
</g>
<!-- Node25 -->
<g id="Node000025" class="node">
<title>Node25</title>
<g id="a_Node000025"><a xlink:title=" ">
<polygon fill="#e0e0e0" stroke="#999999" points="705.77,-129 655.77,-129 655.77,-110 705.77,-110 705.77,-129"/>
<text text-anchor="middle" x="680.77" y="-117" font-family="Helvetica,sans-Serif" font-size="10.00">chrono</text>
</a>
</g>
</g>
<!-- Node24&#45;&gt;Node25 -->
<g id="edge32_Node000024_Node000025" class="edge">
<title>Node24&#45;&gt;Node25</title>
<g id="a_edge32_Node000024_Node000025"><a xlink:title=" ">
<path fill="none" stroke="#63b8ff" d="M734.49,-164.98C724.93,-157.07 710.49,-145.11 698.99,-135.58"/>
<polygon fill="#63b8ff" stroke="#63b8ff" points="701.17,-132.85 691.24,-129.17 696.71,-138.24 701.17,-132.85"/>
</a>
</g>
</g>
<!-- Node26 -->
<g id="Node000026" class="node">
<title>Node26</title>
<g id="a_Node000026"><a xlink:title=" ">
<polygon fill="#e0e0e0" stroke="#999999" points="761.77,-129 723.77,-129 723.77,-110 761.77,-110 761.77,-129"/>
<text text-anchor="middle" x="742.77" y="-117" font-family="Helvetica,sans-Serif" font-size="10.00">map</text>
</a>
</g>
</g>
<!-- Node24&#45;&gt;Node26 -->
<g id="edge33_Node000024_Node000026" class="edge">
<title>Node24&#45;&gt;Node26</title>
<g id="a_edge33_Node000024_Node000026"><a xlink:title=" ">
<path fill="none" stroke="#63b8ff" d="M744.44,-164.75C744.18,-157.8 743.8,-147.85 743.47,-139.13"/>
<polygon fill="#63b8ff" stroke="#63b8ff" points="746.97,-138.95 743.09,-129.09 739.97,-139.21 746.97,-138.95"/>
</a>
</g>
</g>
<!-- Node27 -->
<g id="Node000027" class="node">
<title>Node27</title>
<g id="a_Node000027"><a xlink:title=" ">
<polygon fill="#e0e0e0" stroke="#999999" points="823.77,-129 779.77,-129 779.77,-110 823.77,-110 823.77,-129"/>
<text text-anchor="middle" x="801.77" y="-117" font-family="Helvetica,sans-Serif" font-size="10.00">string</text>
</a>
</g>
</g>
<!-- Node24&#45;&gt;Node27 -->
<g id="edge35_Node000024_Node000027" class="edge">
<title>Node24&#45;&gt;Node27</title>
<g id="a_edge35_Node000024_Node000027"><a xlink:title=" ">
<path fill="none" stroke="#63b8ff" d="M753.93,-164.98C762.27,-157.23 774.8,-145.58 784.95,-136.14"/>
<polygon fill="#63b8ff" stroke="#63b8ff" points="787.51,-138.54 792.45,-129.17 782.74,-133.42 787.51,-138.54"/>
</a>
</g>
</g>
<!-- Node28 -->
<g id="Node000028" class="node">
<title>Node28</title>
<g id="a_Node000028"><a xlink:title=" ">
<polygon fill="#e0e0e0" stroke="#999999" points="889.77,-129 841.77,-129 841.77,-110 889.77,-110 889.77,-129"/>
<text text-anchor="middle" x="865.77" y="-117" font-family="Helvetica,sans-Serif" font-size="10.00">thread</text>
</a>
</g>
</g>
<!-- Node24&#45;&gt;Node28 -->
<g id="edge36_Node000024_Node000028" class="edge">
<title>Node24&#45;&gt;Node28</title>
<g id="a_edge36_Node000024_Node000028"><a xlink:title=" ">
<path fill="none" stroke="#63b8ff" d="M764.21,-164.98C783.76,-156.42 814.15,-143.11 836.59,-133.28"/>
<polygon fill="#63b8ff" stroke="#63b8ff" points="838.22,-136.39 845.98,-129.17 835.41,-129.98 838.22,-136.39"/>
</a>
</g>
</g>
</g>
</svg>
