<?xml version="1.0" encoding="UTF-8" standalone="no"?>
<!DOCTYPE svg PUBLIC "-//W3C//DTD SVG 1.1//EN"
 "http://www.w3.org/Graphics/SVG/1.1/DTD/svg11.dtd">
<!-- Generated by graphviz version 2.43.0 (0)
 -->
<!-- Title: src/AssetManager/Material.hpp Pages: 1 -->
<svg width="2199pt" height="269pt"
 viewBox="0.00 0.00 2199.00 269.00" xmlns="http://www.w3.org/2000/svg" xmlns:xlink="http://www.w3.org/1999/xlink">
<g id="graph0" class="graph" transform="scale(1 1) rotate(0) translate(4 265)">
<title>src/AssetManager/Material.hpp</title>
<!-- Node1 -->
<g id="Node000001" class="node">
<title>Node1</title>
<g id="a_Node000001"><a xlink:title=" ">
<polygon fill="#999999" stroke="#666666" points="1117,-261 949,-261 949,-242 1117,-242 1117,-261"/>
<text text-anchor="middle" x="1033" y="-249" font-family="Helvetica,sans-Serif" font-size="10.00">src/AssetManager/Material.hpp</text>
</a>
</g>
</g>
<!-- Node2 -->
<g id="Node000002" class="node">
<title>Node2</title>
<g id="a_Node000002"><a xlink:href="_billboard_component_8hpp.html" target="_top" xlink:title=" ">
<polygon fill="white" stroke="#666666" points="575,-206 433,-206 433,-176 575,-176 575,-206"/>
<text text-anchor="start" x="441" y="-194" font-family="Helvetica,sans-Serif" font-size="10.00">src/Components/Billboard</text>
<text text-anchor="middle" x="504" y="-183" font-family="Helvetica,sans-Serif" font-size="10.00">Component.hpp</text>
</a>
</g>
</g>
<!-- Node1&#45;&gt;Node2 -->
<g id="edge1_Node000001_Node000002" class="edge">
<title>Node1&#45;&gt;Node2</title>
<g id="a_edge1_Node000001_Node000002"><a xlink:title=" ">
<path fill="none" stroke="#63b8ff" d="M938.77,-243.21C847.75,-235.69 706.12,-222.71 584,-206 581.07,-205.6 578.08,-205.17 575.06,-204.72"/>
<polygon fill="#63b8ff" stroke="#63b8ff" points="938.53,-246.71 948.79,-244.04 939.11,-239.73 938.53,-246.71"/>
</a>
</g>
</g>
<!-- Node3 -->
<g id="Node000003" class="node">
<title>Node3</title>
<g id="a_Node000003"><a xlink:href="_builders_8cpp.html" target="_top" xlink:title=" ">
<polygon fill="white" stroke="#666666" points="504,-134.5 346,-134.5 346,-115.5 504,-115.5 504,-134.5"/>
<text text-anchor="middle" x="425" y="-122.5" font-family="Helvetica,sans-Serif" font-size="10.00">src/Serialization/Builders.cpp</text>
</a>
</g>
</g>
<!-- Node1&#45;&gt;Node3 -->
<g id="edge31_Node000001_Node000003" class="edge">
<title>Node1&#45;&gt;Node3</title>
<g id="a_edge31_Node000001_Node000003"><a xlink:title=" ">
<path fill="none" stroke="#63b8ff" d="M938.53,-250.5C776.17,-249.51 458.23,-242.82 424,-206 405.84,-186.47 415.48,-151.23 421.44,-134.84"/>
<polygon fill="#63b8ff" stroke="#63b8ff" points="938.97,-254 948.99,-250.56 939.01,-247 938.97,-254"/>
</a>
</g>
</g>
<!-- Node4 -->
<g id="Node000004" class="node">
<title>Node4</title>
<g id="a_Node000004"><a xlink:href="_rendering_system_8hpp.html" target="_top" xlink:title=" ">
<polygon fill="white" stroke="#666666" points="864,-134.5 678,-134.5 678,-115.5 864,-115.5 864,-134.5"/>
<text text-anchor="middle" x="771" y="-122.5" font-family="Helvetica,sans-Serif" font-size="10.00">src/Systems/RenderingSystem.hpp</text>
</a>
</g>
</g>
<!-- Node1&#45;&gt;Node4 -->
<g id="edge32_Node000001_Node000004" class="edge">
<title>Node1&#45;&gt;Node4</title>
<g id="a_edge32_Node000001_Node000004"><a xlink:title=" ">
<path fill="none" stroke="#63b8ff" d="M943.32,-240.1C911.08,-233.6 875.43,-223.07 846,-206 814.05,-187.47 787.45,-151.08 776.44,-134.54"/>
<polygon fill="#63b8ff" stroke="#63b8ff" points="942.73,-243.55 953.21,-241.99 944.05,-236.67 942.73,-243.55"/>
</a>
</g>
</g>
<!-- Node9 -->
<g id="Node000009" class="node">
<title>Node9</title>
<g id="a_Node000009"><a xlink:href="_billboard_component_u_i_8hpp.html" target="_top" xlink:title=" ">
<polygon fill="white" stroke="#666666" points="154,-140 0,-140 0,-110 154,-110 154,-140"/>
<text text-anchor="start" x="8" y="-128" font-family="Helvetica,sans-Serif" font-size="10.00">src/ui/Components/Billboard</text>
<text text-anchor="middle" x="77" y="-117" font-family="Helvetica,sans-Serif" font-size="10.00">ComponentUI.hpp</text>
</a>
</g>
</g>
<!-- Node1&#45;&gt;Node9 -->
<g id="edge39_Node000001_Node000009" class="edge">
<title>Node1&#45;&gt;Node9</title>
<g id="a_edge39_Node000001_Node000009"><a xlink:title=" ">
<path fill="none" stroke="#63b8ff" d="M938.78,-248.59C816.29,-245 596.05,-234.79 410,-206 306.88,-190.04 188.65,-158.37 124.48,-140.02"/>
<polygon fill="#63b8ff" stroke="#63b8ff" points="938.78,-252.09 948.87,-248.87 938.97,-245.09 938.78,-252.09"/>
</a>
</g>
</g>
<!-- Node11 -->
<g id="Node000011" class="node">
<title>Node11</title>
<g id="a_Node000011"><a xlink:href="_model_component_8hpp.html" target="_top" xlink:title=" ">
<polygon fill="white" stroke="#666666" points="799,-200.5 593,-200.5 593,-181.5 799,-181.5 799,-200.5"/>
<text text-anchor="middle" x="696" y="-188.5" font-family="Helvetica,sans-Serif" font-size="10.00">src/Components/ModelComponent.hpp</text>
</a>
</g>
</g>
<!-- Node1&#45;&gt;Node11 -->
<g id="edge11_Node000001_Node000011" class="edge">
<title>Node1&#45;&gt;Node11</title>
<g id="a_edge11_Node000001_Node000011"><a xlink:title=" ">
<path fill="none" stroke="#63b8ff" d="M973.91,-240.24C908.94,-228.96 805.74,-211.05 745.06,-200.52"/>
<polygon fill="#63b8ff" stroke="#63b8ff" points="973.55,-243.73 984,-241.99 974.74,-236.83 973.55,-243.73"/>
</a>
</g>
</g>
<!-- Node13 -->
<g id="Node000013" class="node">
<title>Node13</title>
<g id="a_Node000013"><a xlink:href="_model_component_u_i_8hpp.html" target="_top" xlink:title=" ">
<polygon fill="white" stroke="#666666" points="1194.5,-140 997.5,-140 997.5,-110 1194.5,-110 1194.5,-140"/>
<text text-anchor="start" x="1005.5" y="-128" font-family="Helvetica,sans-Serif" font-size="10.00">src/ui/Components/ModelComponent</text>
<text text-anchor="middle" x="1096" y="-117" font-family="Helvetica,sans-Serif" font-size="10.00">UI.hpp</text>
</a>
</g>
</g>
<!-- Node1&#45;&gt;Node13 -->
<g id="edge40_Node000001_Node000013" class="edge">
<title>Node1&#45;&gt;Node13</title>
<g id="a_edge40_Node000001_Node000013"><a xlink:title=" ">
<path fill="none" stroke="#63b8ff" d="M1118.91,-240.44C1161.67,-233.48 1207,-222.46 1220,-206 1243.98,-175.64 1196.53,-153.27 1153.57,-140.01"/>
<polygon fill="#63b8ff" stroke="#63b8ff" points="1118.32,-236.99 1108.98,-242 1119.4,-243.91 1118.32,-236.99"/>
</a>
</g>
</g>
<!-- Node14 -->
<g id="Node000014" class="node">
<title>Node14</title>
<g id="a_Node000014"><a xlink:href="_overlay_model_component_8hpp.html" target="_top" xlink:title=" ">
<polygon fill="white" stroke="#666666" points="1210.5,-206 1043.5,-206 1043.5,-176 1210.5,-176 1210.5,-206"/>
<text text-anchor="start" x="1051.5" y="-194" font-family="Helvetica,sans-Serif" font-size="10.00">src/Components/OverlayModel</text>
<text text-anchor="middle" x="1127" y="-183" font-family="Helvetica,sans-Serif" font-size="10.00">Component.hpp</text>
</a>
</g>
</g>
<!-- Node1&#45;&gt;Node14 -->
<g id="edge18_Node000001_Node000014" class="edge">
<title>Node1&#45;&gt;Node14</title>
<g id="a_edge18_Node000001_Node000014"><a xlink:title=" ">
<path fill="none" stroke="#63b8ff" d="M1055.41,-236.55C1070.19,-227.36 1089.49,-215.35 1104.32,-206.11"/>
<polygon fill="#63b8ff" stroke="#63b8ff" points="1053.51,-233.61 1046.87,-241.87 1057.21,-239.56 1053.51,-233.61"/>
</a>
</g>
</g>
<!-- Node16 -->
<g id="Node000016" class="node">
<title>Node16</title>
<g id="a_Node000016"><a xlink:href="_particle_emitter_component_8hpp.html" target="_top" xlink:title=" ">
<polygon fill="white" stroke="#666666" points="1025,-206 855,-206 855,-176 1025,-176 1025,-206"/>
<text text-anchor="start" x="863" y="-194" font-family="Helvetica,sans-Serif" font-size="10.00">src/Components/ParticleEmitter</text>
<text text-anchor="middle" x="940" y="-183" font-family="Helvetica,sans-Serif" font-size="10.00">Component.hpp</text>
</a>
</g>
</g>
<!-- Node1&#45;&gt;Node16 -->
<g id="edge22_Node000001_Node000016" class="edge">
<title>Node1&#45;&gt;Node16</title>
<g id="a_edge22_Node000001_Node000016"><a xlink:title=" ">
<path fill="none" stroke="#63b8ff" d="M1010.41,-236.29C995.85,-227.13 976.98,-215.26 962.44,-206.11"/>
<polygon fill="#63b8ff" stroke="#63b8ff" points="1008.95,-239.51 1019.28,-241.87 1012.68,-233.58 1008.95,-239.51"/>
</a>
</g>
</g>
<!-- Node20 -->
<g id="Node000020" class="node">
<title>Node20</title>
<g id="a_Node000020"><a xlink:href="_asset_loaders_8hpp.html" target="_top" xlink:title=" ">
<polygon fill="white" stroke="#666666" points="1412,-200.5 1266,-200.5 1266,-181.5 1412,-181.5 1412,-200.5"/>
<text text-anchor="middle" x="1339" y="-188.5" font-family="Helvetica,sans-Serif" font-size="10.00">src/Utils/AssetLoaders.hpp</text>
</a>
</g>
</g>
<!-- Node1&#45;&gt;Node20 -->
<g id="edge33_Node000001_Node000020" class="edge">
<title>Node1&#45;&gt;Node20</title>
<g id="a_edge33_Node000001_Node000020"><a xlink:title=" ">
<path fill="none" stroke="#63b8ff" d="M1087.38,-240.1C1146.42,-228.82 1239.58,-211.01 1294.45,-200.52"/>
<polygon fill="#63b8ff" stroke="#63b8ff" points="1086.66,-236.68 1077.5,-241.99 1087.97,-243.55 1086.66,-236.68"/>
</a>
</g>
</g>
<!-- Node22 -->
<g id="Node000022" class="node">
<title>Node22</title>
<g id="a_Node000022"><a xlink:href="_filesystem_widget_8cpp.html" target="_top" xlink:title=" ">
<polygon fill="white" stroke="#666666" points="2041,-140 1901,-140 1901,-110 2041,-110 2041,-140"/>
<text text-anchor="start" x="1909" y="-128" font-family="Helvetica,sans-Serif" font-size="10.00">src/ui/widgets/Filesystem</text>
<text text-anchor="middle" x="1971" y="-117" font-family="Helvetica,sans-Serif" font-size="10.00">Widget.cpp</text>
</a>
</g>
</g>
<!-- Node1&#45;&gt;Node22 -->
<g id="edge41_Node000001_Node000022" class="edge">
<title>Node1&#45;&gt;Node22</title>
<g id="a_edge41_Node000001_Node000022"><a xlink:title=" ">
<path fill="none" stroke="#63b8ff" d="M1127.26,-245.01C1224.48,-238.39 1369.02,-225.67 1421,-206 1442.8,-197.75 1442.08,-183.91 1464,-176 1643.55,-111.16 1702.71,-164.68 1892,-140 1894.9,-139.62 1897.86,-139.21 1900.84,-138.78"/>
<polygon fill="#63b8ff" stroke="#63b8ff" points="1126.86,-241.52 1117.12,-245.68 1127.33,-248.51 1126.86,-241.52"/>
</a>
</g>
</g>
<!-- Node23 -->
<g id="Node000023" class="node">
<title>Node23</title>
<g id="a_Node000023"><a xlink:href="_inspector_widget_8cpp.html" target="_top" xlink:title=" ">
<polygon fill="white" stroke="#666666" points="2191,-140 2059,-140 2059,-110 2191,-110 2191,-140"/>
<text text-anchor="start" x="2067" y="-128" font-family="Helvetica,sans-Serif" font-size="10.00">src/ui/widgets/Inspector</text>
<text text-anchor="middle" x="2125" y="-117" font-family="Helvetica,sans-Serif" font-size="10.00">Widget.cpp</text>
</a>
</g>
</g>
<!-- Node1&#45;&gt;Node23 -->
<g id="edge42_Node000001_Node000023" class="edge">
<title>Node1&#45;&gt;Node23</title>
<g id="a_edge42_Node000001_Node000023"><a xlink:title=" ">
<path fill="none" stroke="#63b8ff" d="M1127.47,-246.29C1233.42,-240.56 1398.02,-228.37 1456,-206 1477.07,-197.87 1475.78,-183.71 1497,-176 1612.75,-133.96 1927.81,-155.33 2050,-140 2052.89,-139.64 2055.84,-139.23 2058.81,-138.8"/>
<polygon fill="#63b8ff" stroke="#63b8ff" points="1127.2,-242.8 1117.4,-246.82 1127.57,-249.79 1127.2,-242.8"/>
</a>
</g>
</g>
<!-- Node24 -->
<g id="Node000024" class="node">
<title>Node24</title>
<g id="a_Node000024"><a xlink:href="_profiler_widget_8cpp.html" target="_top" xlink:title=" ">
<polygon fill="white" stroke="#666666" points="1682,-200.5 1506,-200.5 1506,-181.5 1682,-181.5 1682,-200.5"/>
<text text-anchor="middle" x="1594" y="-188.5" font-family="Helvetica,sans-Serif" font-size="10.00">src/ui/widgets/ProfilerWidget.cpp</text>
</a>
</g>
</g>
<!-- Node1&#45;&gt;Node24 -->
<g id="edge43_Node000001_Node000024" class="edge">
<title>Node1&#45;&gt;Node24</title>
<g id="a_edge43_Node000001_Node000024"><a xlink:title=" ">
<path fill="none" stroke="#63b8ff" d="M1127.5,-242.44C1220.39,-234.26 1366.11,-220.74 1492,-206 1505.94,-204.37 1520.92,-202.42 1534.99,-200.51"/>
<polygon fill="#63b8ff" stroke="#63b8ff" points="1126.94,-238.98 1117.28,-243.34 1127.55,-245.95 1126.94,-238.98"/>
</a>
</g>
</g>
<!-- Node2&#45;&gt;Node3 -->
<g id="edge2_Node000002_Node000003" class="edge">
<title>Node2&#45;&gt;Node3</title>
<g id="a_edge2_Node000002_Node000003"><a xlink:title=" ">
<path fill="none" stroke="#63b8ff" d="M478.4,-169.26C464.02,-157.61 446.83,-143.69 435.92,-134.84"/>
<polygon fill="#63b8ff" stroke="#63b8ff" points="476.49,-172.22 486.47,-175.8 480.9,-166.78 476.49,-172.22"/>
</a>
</g>
</g>
<!-- Node2&#45;&gt;Node4 -->
<g id="edge3_Node000002_Node000004" class="edge">
<title>Node2&#45;&gt;Node4</title>
<g id="a_edge3_Node000002_Node000004"><a xlink:title=" ">
<path fill="none" stroke="#63b8ff" d="M572.43,-173.6C624.48,-161.12 694,-144.46 735.47,-134.52"/>
<polygon fill="#63b8ff" stroke="#63b8ff" points="571.5,-170.22 562.59,-175.95 573.13,-177.03 571.5,-170.22"/>
</a>
</g>
</g>
<!-- Node8 -->
<g id="Node000008" class="node">
<title>Node8</title>
<g id="a_Node000008"><a xlink:href="main_8cpp.html" target="_top" xlink:title=" ">
<polygon fill="white" stroke="#666666" points="979.5,-134.5 900.5,-134.5 900.5,-115.5 979.5,-115.5 979.5,-134.5"/>
<text text-anchor="middle" x="940" y="-122.5" font-family="Helvetica,sans-Serif" font-size="10.00">src/main.cpp</text>
</a>
</g>
</g>
<!-- Node2&#45;&gt;Node8 -->
<g id="edge8_Node000002_Node000008" class="edge">
<title>Node2&#45;&gt;Node8</title>
<g id="a_edge8_Node000002_Node000008"><a xlink:title=" ">
<path fill="none" stroke="#63b8ff" d="M585.08,-175.91C721.7,-156.64 759.45,-166.33 891,-140 898.2,-138.56 905.88,-136.58 912.98,-134.57"/>
<polygon fill="#63b8ff" stroke="#63b8ff" points="584.47,-172.46 575.07,-177.35 585.46,-179.39 584.47,-172.46"/>
</a>
</g>
</g>
<!-- Node2&#45;&gt;Node9 -->
<g id="edge9_Node000002_Node000009" class="edge">
<title>Node2&#45;&gt;Node9</title>
<g id="a_edge9_Node000002_Node000009"><a xlink:title=" ">
<path fill="none" stroke="#63b8ff" d="M422.81,-178.46C353.68,-168.55 251.77,-153.73 163,-140 160.16,-139.56 157.27,-139.11 154.35,-138.65"/>
<polygon fill="#63b8ff" stroke="#63b8ff" points="422.37,-181.94 432.76,-179.89 423.36,-175.01 422.37,-181.94"/>
</a>
</g>
</g>
<!-- Node10 -->
<g id="Node000010" class="node">
<title>Node10</title>
<g id="a_Node000010"><a xlink:href="_properties_widget_8cpp.html" target="_top" xlink:title=" ">
<polygon fill="white" stroke="#666666" points="659.5,-140 522.5,-140 522.5,-110 659.5,-110 659.5,-140"/>
<text text-anchor="start" x="530.5" y="-128" font-family="Helvetica,sans-Serif" font-size="10.00">src/ui/widgets/Properties</text>
<text text-anchor="middle" x="591" y="-117" font-family="Helvetica,sans-Serif" font-size="10.00">Widget.cpp</text>
</a>
</g>
</g>
<!-- Node2&#45;&gt;Node10 -->
<g id="edge10_Node000002_Node000010" class="edge">
<title>Node2&#45;&gt;Node10</title>
<g id="a_edge10_Node000002_Node000010"><a xlink:title=" ">
<path fill="none" stroke="#63b8ff" d="M531.52,-169.75C544.61,-160.13 559.93,-148.86 571.75,-140.16"/>
<polygon fill="#63b8ff" stroke="#63b8ff" points="529.29,-167.05 523.31,-175.8 533.44,-172.69 529.29,-167.05"/>
</a>
</g>
</g>
<!-- Node4&#45;&gt;Node4 -->
<g id="edge7_Node000004_Node000004" class="edge">
<title>Node4&#45;&gt;Node4</title>
<g id="a_edge7_Node000004_Node000004"><a xlink:title=" ">
<path fill="none" stroke="#63b8ff" d="M822.03,-135.52C852.87,-137.92 882,-134.41 882,-125 882,-114.57 846.22,-111.39 811.99,-115.47"/>
<polygon fill="#63b8ff" stroke="#63b8ff" points="822.28,-132.03 811.99,-134.53 821.6,-138.99 822.28,-132.03"/>
</a>
</g>
</g>
<!-- Node5 -->
<g id="Node000005" class="node">
<title>Node5</title>
<g id="a_Node000005"><a xlink:href="_runtime_8hpp.html" target="_top" xlink:title=" ">
<polygon fill="white" stroke="#666666" points="1018,-74 878,-74 878,-55 1018,-55 1018,-74"/>
<text text-anchor="middle" x="948" y="-62" font-family="Helvetica,sans-Serif" font-size="10.00">src/Runtime/Runtime.hpp</text>
</a>
</g>
</g>
<!-- Node4&#45;&gt;Node5 -->
<g id="edge4_Node000004_Node000005" class="edge">
<title>Node4&#45;&gt;Node5</title>
<g id="a_edge4_Node000004_Node000005"><a xlink:title=" ">
<path fill="none" stroke="#63b8ff" d="M806.35,-112.32C840.58,-101 891.67,-84.12 922.23,-74.02"/>
<polygon fill="#63b8ff" stroke="#63b8ff" points="805.13,-109.03 796.74,-115.49 807.33,-115.68 805.13,-109.03"/>
</a>
</g>
</g>
<!-- Node6 -->
<g id="Node000006" class="node">
<title>Node6</title>
<g id="a_Node000006"><a xlink:href="_runtime_8cpp.html" target="_top" xlink:title=" ">
<polygon fill="white" stroke="#666666" points="931,-19 791,-19 791,0 931,0 931,-19"/>
<text text-anchor="middle" x="861" y="-7" font-family="Helvetica,sans-Serif" font-size="10.00">src/Runtime/Runtime.cpp</text>
</a>
</g>
</g>
<!-- Node5&#45;&gt;Node6 -->
<g id="edge5_Node000005_Node000006" class="edge">
<title>Node5&#45;&gt;Node6</title>
<g id="a_edge5_Node000005_Node000006"><a xlink:title=" ">
<path fill="none" stroke="#63b8ff" d="M925.34,-49.7C909.49,-40.04 888.81,-27.44 875.23,-19.17"/>
<polygon fill="#63b8ff" stroke="#63b8ff" points="923.66,-52.77 934.02,-54.98 927.3,-46.79 923.66,-52.77"/>
</a>
</g>
</g>
<!-- Node7 -->
<g id="Node000007" class="node">
<title>Node7</title>
<g id="a_Node000007"><a xlink:href="_scene_widget_8hpp.html" target="_top" xlink:title="Contains the declaration of the SceneWidget class, a user interface widget for rendering scenes.">
<polygon fill="white" stroke="#666666" points="1121,-19 949,-19 949,0 1121,0 1121,-19"/>
<text text-anchor="middle" x="1035" y="-7" font-family="Helvetica,sans-Serif" font-size="10.00">src/ui/widgets/SceneWidget.hpp</text>
</a>
</g>
</g>
<!-- Node5&#45;&gt;Node7 -->
<g id="edge6_Node000005_Node000007" class="edge">
<title>Node5&#45;&gt;Node7</title>
<g id="a_edge6_Node000005_Node000007"><a xlink:title=" ">
<path fill="none" stroke="#63b8ff" d="M970.66,-49.7C986.51,-40.04 1007.19,-27.44 1020.77,-19.17"/>
<polygon fill="#63b8ff" stroke="#63b8ff" points="968.7,-46.79 961.98,-54.98 972.34,-52.77 968.7,-46.79"/>
</a>
</g>
</g>
<!-- Node11&#45;&gt;Node3 -->
<g id="edge12_Node000011_Node000003" class="edge">
<title>Node11&#45;&gt;Node3</title>
<g id="a_edge12_Node000011_Node000003"><a xlink:title=" ">
<path fill="none" stroke="#63b8ff" d="M649.85,-179.1C596.47,-166.49 509.72,-146.01 461.05,-134.51"/>
<polygon fill="#63b8ff" stroke="#63b8ff" points="649.2,-182.54 659.73,-181.44 650.81,-175.73 649.2,-182.54"/>
</a>
</g>
</g>
<!-- Node11&#45;&gt;Node4 -->
<g id="edge14_Node000011_Node000004" class="edge">
<title>Node11&#45;&gt;Node4</title>
<g id="a_edge14_Node000011_Node000004"><a xlink:title=" ">
<path fill="none" stroke="#63b8ff" d="M713.95,-174.68C728.51,-162.26 748.52,-145.18 760.56,-134.91"/>
<polygon fill="#63b8ff" stroke="#63b8ff" points="711.45,-172.22 706.11,-181.37 715.99,-177.54 711.45,-172.22"/>
</a>
</g>
</g>
<!-- Node11&#45;&gt;Node8 -->
<g id="edge15_Node000011_Node000008" class="edge">
<title>Node11&#45;&gt;Node8</title>
<g id="a_edge15_Node000011_Node000008"><a xlink:title=" ">
<path fill="none" stroke="#63b8ff" d="M740.46,-178.97C780.04,-169.06 839.49,-153.96 891,-140 897.32,-138.29 904.08,-136.4 910.5,-134.57"/>
<polygon fill="#63b8ff" stroke="#63b8ff" points="739.45,-175.61 730.59,-181.43 741.15,-182.4 739.45,-175.61"/>
</a>
</g>
</g>
<!-- Node11&#45;&gt;Node10 -->
<g id="edge17_Node000011_Node000010" class="edge">
<title>Node11&#45;&gt;Node10</title>
<g id="a_edge17_Node000011_Node000010"><a xlink:title=" ">
<path fill="none" stroke="#63b8ff" d="M672.89,-175.91C655.44,-165.28 631.61,-150.75 614.16,-140.12"/>
<polygon fill="#63b8ff" stroke="#63b8ff" points="671.48,-179.15 681.84,-181.37 675.12,-173.18 671.48,-179.15"/>
</a>
</g>
</g>
<!-- Node12 -->
<g id="Node000012" class="node">
<title>Node12</title>
<g id="a_Node000012"><a xlink:href="_object_selection_system_8cpp.html" target="_top" xlink:title=" ">
<polygon fill="white" stroke="#666666" points="327.5,-140 172.5,-140 172.5,-110 327.5,-110 327.5,-140"/>
<text text-anchor="start" x="180.5" y="-128" font-family="Helvetica,sans-Serif" font-size="10.00">src/Systems/ObjectSelection</text>
<text text-anchor="middle" x="250" y="-117" font-family="Helvetica,sans-Serif" font-size="10.00">System.cpp</text>
</a>
</g>
</g>
<!-- Node11&#45;&gt;Node12 -->
<g id="edge13_Node000011_Node000012" class="edge">
<title>Node11&#45;&gt;Node12</title>
<g id="a_edge13_Node000011_Node000012"><a xlink:title=" ">
<path fill="none" stroke="#63b8ff" d="M621.77,-180.13C549.12,-170.36 435.37,-154.76 337,-140 333.97,-139.55 330.89,-139.08 327.78,-138.6"/>
<polygon fill="#63b8ff" stroke="#63b8ff" points="621.36,-183.6 631.74,-181.47 622.29,-176.67 621.36,-183.6"/>
</a>
</g>
</g>
<!-- Node11&#45;&gt;Node13 -->
<g id="edge16_Node000011_Node000013" class="edge">
<title>Node11&#45;&gt;Node13</title>
<g id="a_edge16_Node000011_Node000013"><a xlink:title=" ">
<path fill="none" stroke="#63b8ff" d="M759.56,-179.83C826.75,-169.08 933.2,-152.05 1008.34,-140.02"/>
<polygon fill="#63b8ff" stroke="#63b8ff" points="758.85,-176.4 749.53,-181.44 759.96,-183.31 758.85,-176.4"/>
</a>
</g>
</g>
<!-- Node14&#45;&gt;Node4 -->
<g id="edge20_Node000014_Node000004" class="edge">
<title>Node14&#45;&gt;Node4</title>
<g id="a_edge20_Node000014_Node000004"><a xlink:title=" ">
<path fill="none" stroke="#63b8ff" d="M1038.78,-174.14C969.07,-161.61 874.47,-144.6 818.38,-134.52"/>
<polygon fill="#63b8ff" stroke="#63b8ff" points="1038.41,-177.63 1048.87,-175.95 1039.65,-170.74 1038.41,-177.63"/>
</a>
</g>
</g>
<!-- Node14&#45;&gt;Node8 -->
<g id="edge21_Node000014_Node000008" class="edge">
<title>Node14&#45;&gt;Node8</title>
<g id="a_edge21_Node000014_Node000008"><a xlink:title=" ">
<path fill="none" stroke="#63b8ff" d="M1076.09,-172.58C1040,-160.23 993.14,-144.19 964.89,-134.52"/>
<polygon fill="#63b8ff" stroke="#63b8ff" points="1075.37,-176.03 1085.96,-175.95 1077.63,-169.41 1075.37,-176.03"/>
</a>
</g>
</g>
<!-- Node15 -->
<g id="Node000015" class="node">
<title>Node15</title>
<g id="a_Node000015"><a xlink:href="_gizmo_system_8cpp.html" target="_top" xlink:title=" ">
<polygon fill="white" stroke="#666666" points="1735.5,-134.5 1568.5,-134.5 1568.5,-115.5 1735.5,-115.5 1735.5,-134.5"/>
<text text-anchor="middle" x="1652" y="-122.5" font-family="Helvetica,sans-Serif" font-size="10.00">src/Systems/GizmoSystem.cpp</text>
</a>
</g>
</g>
<!-- Node14&#45;&gt;Node15 -->
<g id="edge19_Node000014_Node000015" class="edge">
<title>Node14&#45;&gt;Node15</title>
<g id="a_edge19_Node000014_Node000015"><a xlink:title=" ">
<path fill="none" stroke="#63b8ff" d="M1220.77,-179.53C1327.65,-167.52 1495.74,-148.42 1559,-140 1571.46,-138.34 1584.84,-136.41 1597.46,-134.53"/>
<polygon fill="#63b8ff" stroke="#63b8ff" points="1220.17,-176.07 1210.62,-180.67 1220.95,-183.03 1220.17,-176.07"/>
</a>
</g>
</g>
<!-- Node16&#45;&gt;Node3 -->
<g id="edge23_Node000016_Node000003" class="edge">
<title>Node16&#45;&gt;Node3</title>
<g id="a_edge23_Node000016_Node000003"><a xlink:title=" ">
<path fill="none" stroke="#63b8ff" d="M844.73,-179.98C758.1,-170.6 626.79,-155.71 513,-140 501.2,-138.37 488.54,-136.46 476.6,-134.57"/>
<polygon fill="#63b8ff" stroke="#63b8ff" points="844.48,-183.47 854.8,-181.07 845.24,-176.52 844.48,-183.47"/>
</a>
</g>
</g>
<!-- Node16&#45;&gt;Node4 -->
<g id="edge27_Node000016_Node000004" class="edge">
<title>Node16&#45;&gt;Node4</title>
<g id="a_edge27_Node000016_Node000004"><a xlink:title=" ">
<path fill="none" stroke="#63b8ff" d="M893.15,-172.26C860.65,-159.95 818.81,-144.11 793.49,-134.52"/>
<polygon fill="#63b8ff" stroke="#63b8ff" points="892.32,-175.69 902.91,-175.95 894.8,-169.14 892.32,-175.69"/>
</a>
</g>
</g>
<!-- Node16&#45;&gt;Node8 -->
<g id="edge28_Node000016_Node000008" class="edge">
<title>Node16&#45;&gt;Node8</title>
<g id="a_edge28_Node000016_Node000008"><a xlink:title=" ">
<path fill="none" stroke="#63b8ff" d="M940,-165.6C940,-154.8 940,-142.78 940,-134.84"/>
<polygon fill="#63b8ff" stroke="#63b8ff" points="936.5,-165.8 940,-175.8 943.5,-165.8 936.5,-165.8"/>
</a>
</g>
</g>
<!-- Node16&#45;&gt;Node10 -->
<g id="edge30_Node000016_Node000010" class="edge">
<title>Node16&#45;&gt;Node10</title>
<g id="a_edge30_Node000016_Node000010"><a xlink:title=" ">
<path fill="none" stroke="#63b8ff" d="M853.23,-174.09C793.48,-163.13 715.16,-148.77 659.72,-138.6"/>
<polygon fill="#63b8ff" stroke="#63b8ff" points="852.94,-177.59 863.41,-175.95 854.21,-170.71 852.94,-177.59"/>
</a>
</g>
</g>
<!-- Node17 -->
<g id="Node000017" class="node">
<title>Node17</title>
<g id="a_Node000017"><a xlink:href="_particle_system_8hpp.html" target="_top" xlink:title=" ">
<polygon fill="white" stroke="#666666" points="1385.5,-134.5 1212.5,-134.5 1212.5,-115.5 1385.5,-115.5 1385.5,-134.5"/>
<text text-anchor="middle" x="1299" y="-122.5" font-family="Helvetica,sans-Serif" font-size="10.00">src/Systems/ParticleSystem.hpp</text>
</a>
</g>
</g>
<!-- Node16&#45;&gt;Node17 -->
<g id="edge24_Node000016_Node000017" class="edge">
<title>Node16&#45;&gt;Node17</title>
<g id="a_edge24_Node000016_Node000017"><a xlink:title=" ">
<path fill="none" stroke="#63b8ff" d="M1028.97,-174.14C1099.26,-161.61 1194.66,-144.6 1251.22,-134.52"/>
<polygon fill="#63b8ff" stroke="#63b8ff" points="1028.01,-170.75 1018.78,-175.95 1029.24,-177.65 1028.01,-170.75"/>
</a>
</g>
</g>
<!-- Node19 -->
<g id="Node000019" class="node">
<title>Node19</title>
<g id="a_Node000019"><a xlink:href="_particle_emitter_component_u_i_8hpp.html" target="_top" xlink:title=" ">
<polygon fill="white" stroke="#666666" points="1550,-140 1404,-140 1404,-110 1550,-110 1550,-140"/>
<text text-anchor="start" x="1412" y="-128" font-family="Helvetica,sans-Serif" font-size="10.00">src/ui/Components/Particle</text>
<text text-anchor="middle" x="1477" y="-117" font-family="Helvetica,sans-Serif" font-size="10.00">EmitterComponentUI.hpp</text>
</a>
</g>
</g>
<!-- Node16&#45;&gt;Node19 -->
<g id="edge29_Node000016_Node000019" class="edge">
<title>Node16&#45;&gt;Node19</title>
<g id="a_edge29_Node000016_Node000019"><a xlink:title=" ">
<path fill="none" stroke="#63b8ff" d="M1035.43,-175.99C1196.32,-156.48 1238.92,-161.1 1395,-140 1397.86,-139.61 1400.78,-139.2 1403.72,-138.77"/>
<polygon fill="#63b8ff" stroke="#63b8ff" points="1034.67,-172.56 1025.17,-177.25 1035.52,-179.51 1034.67,-172.56"/>
</a>
</g>
</g>
<!-- Node17&#45;&gt;Node5 -->
<g id="edge25_Node000017_Node000005" class="edge">
<title>Node17&#45;&gt;Node5</title>
<g id="a_edge25_Node000017_Node000005"><a xlink:title=" ">
<path fill="none" stroke="#63b8ff" d="M1237.87,-113.81C1170.23,-102.54 1062.43,-84.57 999.1,-74.02"/>
<polygon fill="#63b8ff" stroke="#63b8ff" points="1237.52,-117.3 1247.96,-115.49 1238.67,-110.4 1237.52,-117.3"/>
</a>
</g>
</g>
<!-- Node18 -->
<g id="Node000018" class="node">
<title>Node18</title>
<g id="a_Node000018"><a xlink:href="_particle_system_8cpp.html" target="_top" xlink:title=" ">
<polygon fill="white" stroke="#666666" points="1385,-74 1213,-74 1213,-55 1385,-55 1385,-74"/>
<text text-anchor="middle" x="1299" y="-62" font-family="Helvetica,sans-Serif" font-size="10.00">src/Systems/ParticleSystem.cpp</text>
</a>
</g>
</g>
<!-- Node17&#45;&gt;Node18 -->
<g id="edge26_Node000017_Node000018" class="edge">
<title>Node17&#45;&gt;Node18</title>
<g id="a_edge26_Node000017_Node000018"><a xlink:title=" ">
<path fill="none" stroke="#63b8ff" d="M1299,-105.16C1299,-94.74 1299,-82.3 1299,-74.17"/>
<polygon fill="#63b8ff" stroke="#63b8ff" points="1295.5,-105.37 1299,-115.37 1302.5,-105.37 1295.5,-105.37"/>
</a>
</g>
</g>
<!-- Node20&#45;&gt;Node3 -->
<g id="edge34_Node000020_Node000003" class="edge">
<title>Node20&#45;&gt;Node3</title>
<g id="a_edge34_Node000020_Node000003"><a xlink:title=" ">
<path fill="none" stroke="#63b8ff" d="M1263.02,-180.3C1248.74,-178.69 1233.93,-177.17 1220,-176 906.48,-149.6 825.92,-172.76 513,-140 499.92,-138.63 485.83,-136.63 472.83,-134.56"/>
<polygon fill="#63b8ff" stroke="#63b8ff" points="1262.96,-183.82 1273.3,-181.48 1263.76,-176.86 1262.96,-183.82"/>
</a>
</g>
</g>
<!-- Node20&#45;&gt;Node8 -->
<g id="edge36_Node000020_Node000008" class="edge">
<title>Node20&#45;&gt;Node8</title>
<g id="a_edge36_Node000020_Node000008"><a xlink:title=" ">
<path fill="none" stroke="#63b8ff" d="M1261.38,-180.17C1174.55,-168.95 1039.45,-150.76 989,-140 981.9,-138.49 974.33,-136.51 967.3,-134.51"/>
<polygon fill="#63b8ff" stroke="#63b8ff" points="1261.1,-183.66 1271.46,-181.47 1261.99,-176.72 1261.1,-183.66"/>
</a>
</g>
</g>
<!-- Node21 -->
<g id="Node000021" class="node">
<title>Node21</title>
<g id="a_Node000021"><a xlink:href="_asset_utils_8cpp.html" target="_top" xlink:title=" ">
<polygon fill="white" stroke="#666666" points="1882.5,-134.5 1753.5,-134.5 1753.5,-115.5 1882.5,-115.5 1882.5,-134.5"/>
<text text-anchor="middle" x="1818" y="-122.5" font-family="Helvetica,sans-Serif" font-size="10.00">src/Utils/AssetUtils.cpp</text>
</a>
</g>
</g>
<!-- Node20&#45;&gt;Node21 -->
<g id="edge35_Node000020_Node000021" class="edge">
<title>Node20&#45;&gt;Node21</title>
<g id="a_edge35_Node000020_Node000021"><a xlink:title=" ">
<path fill="none" stroke="#63b8ff" d="M1399.47,-179.89C1408.36,-178.52 1417.41,-177.18 1426,-176 1567.36,-156.66 1603.94,-161.45 1745,-140 1755.21,-138.45 1766.16,-136.5 1776.4,-134.55"/>
<polygon fill="#63b8ff" stroke="#63b8ff" points="1398.88,-176.44 1389.54,-181.45 1399.97,-183.36 1398.88,-176.44"/>
</a>
</g>
</g>
<!-- Node20&#45;&gt;Node22 -->
<g id="edge37_Node000020_Node000022" class="edge">
<title>Node20&#45;&gt;Node22</title>
<g id="a_edge37_Node000020_Node000022"><a xlink:title=" ">
<path fill="none" stroke="#63b8ff" d="M1397.77,-179.87C1407.19,-178.44 1416.85,-177.09 1426,-176 1632.28,-151.48 1685.93,-166.16 1892,-140 1894.9,-139.63 1897.86,-139.23 1900.84,-138.8"/>
<polygon fill="#63b8ff" stroke="#63b8ff" points="1397.02,-176.44 1387.68,-181.44 1398.09,-183.36 1397.02,-176.44"/>
</a>
</g>
</g>
<!-- Node20&#45;&gt;Node23 -->
<g id="edge38_Node000020_Node000023" class="edge">
<title>Node20&#45;&gt;Node23</title>
<g id="a_edge38_Node000020_Node000023"><a xlink:title=" ">
<path fill="none" stroke="#63b8ff" d="M1419.48,-180.38C1434.28,-178.79 1449.59,-177.25 1464,-176 1723.96,-153.47 1791.03,-172 2050,-140 2052.89,-139.64 2055.84,-139.24 2058.82,-138.81"/>
<polygon fill="#63b8ff" stroke="#63b8ff" points="1418.9,-176.93 1409.34,-181.5 1419.67,-183.88 1418.9,-176.93"/>
</a>
</g>
</g>
</g>
</svg>
