<?xml version="1.0" encoding="UTF-8" standalone="no"?>
<!DOCTYPE svg PUBLIC "-//W3C//DTD SVG 1.1//EN"
 "http://www.w3.org/Graphics/SVG/1.1/DTD/svg11.dtd">
<!-- Generated by graphviz version 2.43.0 (0)
 -->
<!-- Title: src/Math/Utils.hpp Pages: 1 -->
<svg width="2461pt" height="346pt"
 viewBox="0.00 0.00 2461.00 346.00" xmlns="http://www.w3.org/2000/svg" xmlns:xlink="http://www.w3.org/1999/xlink">
<g id="graph0" class="graph" transform="scale(1 1) rotate(0) translate(4 342)">
<title>src/Math/Utils.hpp</title>
<!-- Node1 -->
<g id="Node000001" class="node">
<title>Node1</title>
<g id="a_Node000001"><a xlink:title=" ">
<polygon fill="#999999" stroke="#666666" points="1458,-338 1353,-338 1353,-319 1458,-319 1458,-338"/>
<text text-anchor="middle" x="1405.5" y="-326" font-family="Helvetica,sans-Serif" font-size="10.00">src/Math/Utils.hpp</text>
</a>
</g>
</g>
<!-- Node2 -->
<g id="Node000002" class="node">
<title>Node2</title>
<g id="a_Node000002"><a xlink:href="_transform_component_8hpp.html" target="_top" xlink:title=" ">
<polygon fill="white" stroke="#666666" points="1407,-283 1260,-283 1260,-253 1407,-253 1407,-283"/>
<text text-anchor="start" x="1268" y="-271" font-family="Helvetica,sans-Serif" font-size="10.00">src/Components/Transform</text>
<text text-anchor="middle" x="1333.5" y="-260" font-family="Helvetica,sans-Serif" font-size="10.00">Component.hpp</text>
</a>
</g>
</g>
<!-- Node1&#45;&gt;Node2 -->
<g id="edge1_Node000001_Node000002" class="edge">
<title>Node1&#45;&gt;Node2</title>
<g id="a_edge1_Node000001_Node000002"><a xlink:title=" ">
<path fill="none" stroke="#63b8ff" d="M1387.04,-312.5C1375.9,-303.45 1361.81,-292 1350.87,-283.11"/>
<polygon fill="#63b8ff" stroke="#63b8ff" points="1384.91,-315.28 1394.88,-318.87 1389.32,-309.85 1384.91,-315.28"/>
</a>
</g>
</g>
<!-- Node28 -->
<g id="Node000028" class="node">
<title>Node28</title>
<g id="a_Node000028"><a xlink:href="_math_2_utils_8cpp.html" target="_top" xlink:title=" ">
<polygon fill="white" stroke="#666666" points="1529.5,-277.5 1425.5,-277.5 1425.5,-258.5 1529.5,-258.5 1529.5,-277.5"/>
<text text-anchor="middle" x="1477.5" y="-265.5" font-family="Helvetica,sans-Serif" font-size="10.00">src/Math/Utils.cpp</text>
</a>
</g>
</g>
<!-- Node1&#45;&gt;Node28 -->
<g id="edge51_Node000001_Node000028" class="edge">
<title>Node1&#45;&gt;Node28</title>
<g id="a_edge51_Node000001_Node000028"><a xlink:title=" ">
<path fill="none" stroke="#63b8ff" d="M1423.92,-312.54C1437.51,-301.49 1455.54,-286.84 1466.83,-277.67"/>
<polygon fill="#63b8ff" stroke="#63b8ff" points="1421.68,-309.85 1416.12,-318.87 1426.09,-315.28 1421.68,-309.85"/>
</a>
</g>
</g>
<!-- Node3 -->
<g id="Node000003" class="node">
<title>Node3</title>
<g id="a_Node000003"><a xlink:href="_box_collider_component_8hpp.html" target="_top" xlink:title=" ">
<polygon fill="white" stroke="#666666" points="1097,-217 942,-217 942,-187 1097,-187 1097,-217"/>
<text text-anchor="start" x="950" y="-205" font-family="Helvetica,sans-Serif" font-size="10.00">src/Components/BoxCollider</text>
<text text-anchor="middle" x="1019.5" y="-194" font-family="Helvetica,sans-Serif" font-size="10.00">Component.hpp</text>
</a>
</g>
</g>
<!-- Node2&#45;&gt;Node3 -->
<g id="edge2_Node000002_Node000003" class="edge">
<title>Node2&#45;&gt;Node3</title>
<g id="a_edge2_Node000002_Node000003"><a xlink:title=" ">
<path fill="none" stroke="#63b8ff" d="M1254.56,-250.91C1203.35,-240.47 1137.29,-227.01 1088.25,-217.01"/>
<polygon fill="#63b8ff" stroke="#63b8ff" points="1254.09,-254.39 1264.59,-252.95 1255.49,-247.53 1254.09,-254.39"/>
</a>
</g>
</g>
<!-- Node4 -->
<g id="Node000004" class="node">
<title>Node4</title>
<g id="a_Node000004"><a xlink:href="_input_manager_8hpp.html" target="_top" xlink:title=" ">
<polygon fill="white" stroke="#666666" points="1115.5,-145.5 923.5,-145.5 923.5,-126.5 1115.5,-126.5 1115.5,-145.5"/>
<text text-anchor="middle" x="1019.5" y="-133.5" font-family="Helvetica,sans-Serif" font-size="10.00">src/InputManager/InputManager.hpp</text>
</a>
</g>
</g>
<!-- Node2&#45;&gt;Node4 -->
<g id="edge40_Node000002_Node000004" class="edge">
<title>Node2&#45;&gt;Node4</title>
<g id="a_edge40_Node000002_Node000004"><a xlink:title=" ">
<path fill="none" stroke="#63b8ff" d="M1267.02,-250.31C1236.24,-241.74 1199.47,-230.29 1167.5,-217 1140.8,-205.9 1066.87,-164.11 1034.74,-145.75"/>
<polygon fill="#63b8ff" stroke="#63b8ff" points="1266.23,-253.72 1276.8,-252.99 1268.08,-246.97 1266.23,-253.72"/>
</a>
</g>
</g>
<!-- Node6 -->
<g id="Node000006" class="node">
<title>Node6</title>
<g id="a_Node000006"><a xlink:href="_camera_movement_system_8hpp.html" target="_top" xlink:title=" ">
<polygon fill="white" stroke="#666666" points="355.5,-85 185.5,-85 185.5,-55 355.5,-55 355.5,-85"/>
<text text-anchor="start" x="193.5" y="-73" font-family="Helvetica,sans-Serif" font-size="10.00">src/Systems/CameraMovement</text>
<text text-anchor="middle" x="270.5" y="-62" font-family="Helvetica,sans-Serif" font-size="10.00">System.hpp</text>
</a>
</g>
</g>
<!-- Node2&#45;&gt;Node6 -->
<g id="edge42_Node000002_Node000006" class="edge">
<title>Node2&#45;&gt;Node6</title>
<g id="a_edge42_Node000002_Node000006"><a xlink:title=" ">
<path fill="none" stroke="#63b8ff" d="M1249.59,-265.66C1078.17,-262.25 693.29,-250.96 566.5,-217 456.35,-187.5 338.59,-115.64 291.61,-85.1"/>
<polygon fill="#63b8ff" stroke="#63b8ff" points="1249.76,-269.16 1259.82,-265.86 1249.89,-262.17 1249.76,-269.16"/>
</a>
</g>
</g>
<!-- Node8 -->
<g id="Node000008" class="node">
<title>Node8</title>
<g id="a_Node000008"><a xlink:href="_gizmo_system_8cpp.html" target="_top" xlink:title=" ">
<polygon fill="white" stroke="#666666" points="167,-79.5 0,-79.5 0,-60.5 167,-60.5 167,-79.5"/>
<text text-anchor="middle" x="83.5" y="-67.5" font-family="Helvetica,sans-Serif" font-size="10.00">src/Systems/GizmoSystem.cpp</text>
</a>
</g>
</g>
<!-- Node2&#45;&gt;Node8 -->
<g id="edge43_Node000002_Node000008" class="edge">
<title>Node2&#45;&gt;Node8</title>
<g id="a_edge43_Node000002_Node000008"><a xlink:title=" ">
<path fill="none" stroke="#63b8ff" d="M1249.71,-265.26C1064.11,-260.89 623.27,-247.55 477.5,-217 326.14,-185.27 155.27,-105.97 101,-79.64"/>
<polygon fill="#63b8ff" stroke="#63b8ff" points="1249.88,-268.76 1259.96,-265.5 1250.04,-261.77 1249.88,-268.76"/>
</a>
</g>
</g>
<!-- Node9 -->
<g id="Node000009" class="node">
<title>Node9</title>
<g id="a_Node000009"><a xlink:href="_object_selection_system_8cpp.html" target="_top" xlink:title=" ">
<polygon fill="white" stroke="#666666" points="547,-85 392,-85 392,-55 547,-55 547,-85"/>
<text text-anchor="start" x="400" y="-73" font-family="Helvetica,sans-Serif" font-size="10.00">src/Systems/ObjectSelection</text>
<text text-anchor="middle" x="469.5" y="-62" font-family="Helvetica,sans-Serif" font-size="10.00">System.cpp</text>
</a>
</g>
</g>
<!-- Node2&#45;&gt;Node9 -->
<g id="edge44_Node000002_Node000009" class="edge">
<title>Node2&#45;&gt;Node9</title>
<g id="a_edge44_Node000002_Node000009"><a xlink:title=" ">
<path fill="none" stroke="#63b8ff" d="M1249.62,-261.96C1042.4,-248.67 519.35,-209.58 468.5,-151 452.75,-132.85 458.74,-102.7 464.29,-85.05"/>
<polygon fill="#63b8ff" stroke="#63b8ff" points="1249.64,-265.47 1259.84,-262.62 1250.08,-258.49 1249.64,-265.47"/>
</a>
</g>
</g>
<!-- Node14 -->
<g id="Node000014" class="node">
<title>Node14</title>
<g id="a_Node000014"><a xlink:href="_builders_8cpp.html" target="_top" xlink:title=" ">
<polygon fill="white" stroke="#666666" points="1731.5,-79.5 1573.5,-79.5 1573.5,-60.5 1731.5,-60.5 1731.5,-79.5"/>
<text text-anchor="middle" x="1652.5" y="-67.5" font-family="Helvetica,sans-Serif" font-size="10.00">src/Serialization/Builders.cpp</text>
</a>
</g>
</g>
<!-- Node2&#45;&gt;Node14 -->
<g id="edge41_Node000002_Node000014" class="edge">
<title>Node2&#45;&gt;Node14</title>
<g id="a_edge41_Node000002_Node000014"><a xlink:title=" ">
<path fill="none" stroke="#63b8ff" d="M1307.14,-245.97C1290.29,-229.86 1273.63,-207.07 1285.5,-187 1316.48,-134.61 1348.35,-141.94 1405.5,-121 1440.73,-108.09 1539.61,-90.04 1601.05,-79.53"/>
<polygon fill="#63b8ff" stroke="#63b8ff" points="1305.03,-248.78 1314.8,-252.87 1309.71,-243.58 1305.03,-248.78"/>
</a>
</g>
</g>
<!-- Node15 -->
<g id="Node000015" class="node">
<title>Node15</title>
<g id="a_Node000015"><a xlink:href="main_8cpp.html" target="_top" xlink:title=" ">
<polygon fill="white" stroke="#666666" points="1828,-79.5 1749,-79.5 1749,-60.5 1828,-60.5 1828,-79.5"/>
<text text-anchor="middle" x="1788.5" y="-67.5" font-family="Helvetica,sans-Serif" font-size="10.00">src/main.cpp</text>
</a>
</g>
</g>
<!-- Node2&#45;&gt;Node15 -->
<g id="edge47_Node000002_Node000015" class="edge">
<title>Node2&#45;&gt;Node15</title>
<g id="a_edge47_Node000002_Node000015"><a xlink:title=" ">
<path fill="none" stroke="#63b8ff" d="M1417.35,-252.13C1545.85,-228.49 1779.17,-181.86 1802.5,-151 1818.74,-129.52 1802.95,-95.56 1793.89,-79.7"/>
<polygon fill="#63b8ff" stroke="#63b8ff" points="1416.35,-248.76 1407.15,-254 1417.62,-255.64 1416.35,-248.76"/>
</a>
</g>
</g>
<!-- Node18 -->
<g id="Node000018" class="node">
<title>Node18</title>
<g id="a_Node000018"><a xlink:href="_properties_widget_8cpp.html" target="_top" xlink:title=" ">
<polygon fill="white" stroke="#666666" points="1555,-85 1418,-85 1418,-55 1555,-55 1555,-85"/>
<text text-anchor="start" x="1426" y="-73" font-family="Helvetica,sans-Serif" font-size="10.00">src/ui/widgets/Properties</text>
<text text-anchor="middle" x="1486.5" y="-62" font-family="Helvetica,sans-Serif" font-size="10.00">Widget.cpp</text>
</a>
</g>
</g>
<!-- Node2&#45;&gt;Node18 -->
<g id="edge50_Node000002_Node000018" class="edge">
<title>Node2&#45;&gt;Node18</title>
<g id="a_edge50_Node000002_Node000018"><a xlink:title=" ">
<path fill="none" stroke="#63b8ff" d="M1278.68,-248.33C1264.78,-240.84 1251.53,-230.65 1243.5,-217 1221.86,-180.23 1216.54,-154.07 1243.5,-121 1246.31,-117.55 1347.05,-97.66 1417.92,-84.03"/>
<polygon fill="#63b8ff" stroke="#63b8ff" points="1277.34,-251.57 1287.85,-252.87 1280.45,-245.3 1277.34,-251.57"/>
</a>
</g>
</g>
<!-- Node19 -->
<g id="Node000019" class="node">
<title>Node19</title>
<g id="a_Node000019"><a xlink:href="_camera_component_8hpp.html" target="_top" xlink:title=" ">
<polygon fill="white" stroke="#666666" points="1508.5,-211.5 1294.5,-211.5 1294.5,-192.5 1508.5,-192.5 1508.5,-211.5"/>
<text text-anchor="middle" x="1401.5" y="-199.5" font-family="Helvetica,sans-Serif" font-size="10.00">src/Components/CameraComponent.hpp</text>
</a>
</g>
</g>
<!-- Node2&#45;&gt;Node19 -->
<g id="edge21_Node000002_Node000019" class="edge">
<title>Node2&#45;&gt;Node19</title>
<g id="a_edge21_Node000002_Node000019"><a xlink:title=" ">
<path fill="none" stroke="#63b8ff" d="M1355.88,-245.93C1368.19,-234.35 1382.79,-220.61 1392.1,-211.84"/>
<polygon fill="#63b8ff" stroke="#63b8ff" points="1353.47,-243.39 1348.59,-252.8 1358.27,-248.49 1353.47,-243.39"/>
</a>
</g>
</g>
<!-- Node20 -->
<g id="Node000020" class="node">
<title>Node20</title>
<g id="a_Node000020"><a xlink:href="_directional_light_component_8hpp.html" target="_top" xlink:title=" ">
<polygon fill="white" stroke="#666666" points="1793.5,-151 1641.5,-151 1641.5,-121 1793.5,-121 1793.5,-151"/>
<text text-anchor="start" x="1649.5" y="-139" font-family="Helvetica,sans-Serif" font-size="10.00">src/Components/Directional</text>
<text text-anchor="middle" x="1717.5" y="-128" font-family="Helvetica,sans-Serif" font-size="10.00">LightComponent.hpp</text>
</a>
</g>
</g>
<!-- Node2&#45;&gt;Node20 -->
<g id="edge39_Node000002_Node000020" class="edge">
<title>Node2&#45;&gt;Node20</title>
<g id="a_edge39_Node000002_Node000020"><a xlink:title=" ">
<path fill="none" stroke="#63b8ff" d="M1402.1,-250.36C1436.95,-241.41 1479.79,-229.62 1517.5,-217 1577.97,-196.77 1646.6,-168 1685.71,-151.04"/>
<polygon fill="#63b8ff" stroke="#63b8ff" points="1400.85,-247.07 1392.02,-252.93 1402.58,-253.85 1400.85,-247.07"/>
</a>
</g>
</g>
<!-- Node21 -->
<g id="Node000021" class="node">
<title>Node21</title>
<g id="a_Node000021"><a xlink:href="_rendering_system_8hpp.html" target="_top" xlink:title=" ">
<polygon fill="white" stroke="#666666" points="2214.5,-79.5 2028.5,-79.5 2028.5,-60.5 2214.5,-60.5 2214.5,-79.5"/>
<text text-anchor="middle" x="2121.5" y="-67.5" font-family="Helvetica,sans-Serif" font-size="10.00">src/Systems/RenderingSystem.hpp</text>
</a>
</g>
</g>
<!-- Node2&#45;&gt;Node21 -->
<g id="edge46_Node000002_Node000021" class="edge">
<title>Node2&#45;&gt;Node21</title>
<g id="a_edge46_Node000002_Node000021"><a xlink:title=" ">
<path fill="none" stroke="#63b8ff" d="M1417.25,-252.93C1529.16,-236.01 1560.21,-241.52 1666.5,-217 1836.26,-177.83 2033.68,-104.68 2099.15,-79.65"/>
<polygon fill="#63b8ff" stroke="#63b8ff" points="1416.6,-249.49 1407.25,-254.47 1417.67,-256.4 1416.6,-249.49"/>
</a>
</g>
</g>
<!-- Node25 -->
<g id="Node000025" class="node">
<title>Node25</title>
<g id="a_Node000025"><a xlink:href="_particle_system_8cpp.html" target="_top" xlink:title=" ">
<polygon fill="white" stroke="#666666" points="2078.5,-211.5 1906.5,-211.5 1906.5,-192.5 2078.5,-192.5 2078.5,-211.5"/>
<text text-anchor="middle" x="1992.5" y="-199.5" font-family="Helvetica,sans-Serif" font-size="10.00">src/Systems/ParticleSystem.cpp</text>
</a>
</g>
</g>
<!-- Node2&#45;&gt;Node25 -->
<g id="edge45_Node000002_Node000025" class="edge">
<title>Node2&#45;&gt;Node25</title>
<g id="a_edge45_Node000002_Node000025"><a xlink:title=" ">
<path fill="none" stroke="#63b8ff" d="M1417.4,-252.97C1628.84,-227.71 1684.86,-239.36 1892.5,-217 1906.71,-215.47 1922,-213.5 1936.25,-211.51"/>
<polygon fill="#63b8ff" stroke="#63b8ff" points="1416.72,-249.53 1407.22,-254.21 1417.56,-256.48 1416.72,-249.53"/>
</a>
</g>
</g>
<!-- Node26 -->
<g id="Node000026" class="node">
<title>Node26</title>
<g id="a_Node000026"><a xlink:href="_transform_component_u_i_8hpp.html" target="_top" xlink:title=" ">
<polygon fill="white" stroke="#666666" points="2256,-217 2097,-217 2097,-187 2256,-187 2256,-217"/>
<text text-anchor="start" x="2105" y="-205" font-family="Helvetica,sans-Serif" font-size="10.00">src/ui/Components/Transform</text>
<text text-anchor="middle" x="2176.5" y="-194" font-family="Helvetica,sans-Serif" font-size="10.00">ComponentUI.hpp</text>
</a>
</g>
</g>
<!-- Node2&#45;&gt;Node26 -->
<g id="edge48_Node000002_Node000026" class="edge">
<title>Node2&#45;&gt;Node26</title>
<g id="a_edge48_Node000002_Node000026"><a xlink:title=" ">
<path fill="none" stroke="#63b8ff" d="M1417.43,-253C1715.1,-220.73 1793.82,-247.89 2087.5,-217 2090.61,-216.67 2093.78,-216.31 2096.98,-215.92"/>
<polygon fill="#63b8ff" stroke="#63b8ff" points="1416.76,-249.55 1407.21,-254.12 1417.53,-256.51 1416.76,-249.55"/>
</a>
</g>
</g>
<!-- Node27 -->
<g id="Node000027" class="node">
<title>Node27</title>
<g id="a_Node000027"><a xlink:href="_objects_widget_8cpp.html" target="_top" xlink:title=" ">
<polygon fill="white" stroke="#666666" points="2453,-211.5 2274,-211.5 2274,-192.5 2453,-192.5 2453,-211.5"/>
<text text-anchor="middle" x="2363.5" y="-199.5" font-family="Helvetica,sans-Serif" font-size="10.00">src/ui/widgets/ObjectsWidget.cpp</text>
</a>
</g>
</g>
<!-- Node2&#45;&gt;Node27 -->
<g id="edge49_Node000002_Node000027" class="edge">
<title>Node2&#45;&gt;Node27</title>
<g id="a_edge49_Node000002_Node000027"><a xlink:title=" ">
<path fill="none" stroke="#63b8ff" d="M1417.28,-253.03C1793.84,-214.18 1892.73,-251.44 2265.5,-217 2280.22,-215.64 2296.11,-213.61 2310.72,-211.52"/>
<polygon fill="#63b8ff" stroke="#63b8ff" points="1416.78,-249.56 1407.2,-254.08 1417.51,-256.52 1416.78,-249.56"/>
</a>
</g>
</g>
<!-- Node3&#45;&gt;Node4 -->
<g id="edge3_Node000003_Node000004" class="edge">
<title>Node3&#45;&gt;Node4</title>
<g id="a_edge3_Node000003_Node000004"><a xlink:title=" ">
<path fill="none" stroke="#63b8ff" d="M1019.5,-176.6C1019.5,-165.8 1019.5,-153.78 1019.5,-145.84"/>
<polygon fill="#63b8ff" stroke="#63b8ff" points="1016,-176.8 1019.5,-186.8 1023,-176.8 1016,-176.8"/>
</a>
</g>
</g>
<!-- Node3&#45;&gt;Node8 -->
<g id="edge15_Node000003_Node000008" class="edge">
<title>Node3&#45;&gt;Node8</title>
<g id="a_edge15_Node000003_Node000008"><a xlink:title=" ">
<path fill="none" stroke="#63b8ff" d="M931.31,-196.12C822.2,-189.36 630.95,-175.17 468.5,-151 337.84,-131.56 184.74,-95.8 117.77,-79.5"/>
<polygon fill="#63b8ff" stroke="#63b8ff" points="931.41,-199.63 941.6,-196.75 931.84,-192.64 931.41,-199.63"/>
</a>
</g>
</g>
<!-- Node3&#45;&gt;Node9 -->
<g id="edge16_Node000003_Node000009" class="edge">
<title>Node3&#45;&gt;Node9</title>
<g id="a_edge16_Node000003_Node000009"><a xlink:title=" ">
<path fill="none" stroke="#63b8ff" d="M931.71,-198.25C789.48,-192.99 521.17,-179.41 488.5,-151 469.65,-134.61 467.69,-103.24 468.34,-85.04"/>
<polygon fill="#63b8ff" stroke="#63b8ff" points="931.61,-201.75 941.73,-198.62 931.87,-194.76 931.61,-201.75"/>
</a>
</g>
</g>
<!-- Node3&#45;&gt;Node14 -->
<g id="edge14_Node000003_Node000014" class="edge">
<title>Node3&#45;&gt;Node14</title>
<g id="a_edge14_Node000003_Node000014"><a xlink:title=" ">
<path fill="none" stroke="#63b8ff" d="M1068.53,-183.49C1134.41,-159.95 1243.36,-121.03 1243.5,-121 1383.37,-88.64 1422.24,-104.28 1564.5,-85 1576.46,-83.38 1589.3,-81.45 1601.37,-79.54"/>
<polygon fill="#63b8ff" stroke="#63b8ff" points="1066.98,-180.32 1058.74,-186.98 1069.34,-186.91 1066.98,-180.32"/>
</a>
</g>
</g>
<!-- Node3&#45;&gt;Node15 -->
<g id="edge17_Node000003_Node000015" class="edge">
<title>Node3&#45;&gt;Node15</title>
<g id="a_edge17_Node000003_Node000015"><a xlink:title=" ">
<path fill="none" stroke="#63b8ff" d="M1093.16,-184.79C1174.81,-167.24 1310.57,-139.31 1428.5,-121 1566.43,-99.59 1603.68,-112.64 1740.5,-85 1747.65,-83.56 1755.27,-81.55 1762.29,-79.51"/>
<polygon fill="#63b8ff" stroke="#63b8ff" points="1092.03,-181.45 1082.99,-186.98 1093.5,-188.29 1092.03,-181.45"/>
</a>
</g>
</g>
<!-- Node16 -->
<g id="Node000016" class="node">
<title>Node16</title>
<g id="a_Node000016"><a xlink:href="_billboard_component_u_i_8cpp.html" target="_top" xlink:title=" ">
<polygon fill="white" stroke="#666666" points="651.5,-151 497.5,-151 497.5,-121 651.5,-121 651.5,-151"/>
<text text-anchor="start" x="505.5" y="-139" font-family="Helvetica,sans-Serif" font-size="10.00">src/ui/Components/Billboard</text>
<text text-anchor="middle" x="574.5" y="-128" font-family="Helvetica,sans-Serif" font-size="10.00">ComponentUI.cpp</text>
</a>
</g>
</g>
<!-- Node3&#45;&gt;Node16 -->
<g id="edge18_Node000003_Node000016" class="edge">
<title>Node3&#45;&gt;Node16</title>
<g id="a_edge18_Node000003_Node000016"><a xlink:title=" ">
<path fill="none" stroke="#63b8ff" d="M931.66,-189.34C858.92,-179.55 752.91,-164.96 660.5,-151 657.66,-150.57 654.76,-150.13 651.84,-149.68"/>
<polygon fill="#63b8ff" stroke="#63b8ff" points="931.31,-192.82 941.69,-190.69 932.25,-185.89 931.31,-192.82"/>
</a>
</g>
</g>
<!-- Node17 -->
<g id="Node000017" class="node">
<title>Node17</title>
<g id="a_Node000017"><a xlink:href="_model_component_u_i_8cpp.html" target="_top" xlink:title=" ">
<polygon fill="white" stroke="#666666" points="867,-151 670,-151 670,-121 867,-121 867,-151"/>
<text text-anchor="start" x="678" y="-139" font-family="Helvetica,sans-Serif" font-size="10.00">src/ui/Components/ModelComponent</text>
<text text-anchor="middle" x="768.5" y="-128" font-family="Helvetica,sans-Serif" font-size="10.00">UI.cpp</text>
</a>
</g>
</g>
<!-- Node3&#45;&gt;Node17 -->
<g id="edge19_Node000003_Node000017" class="edge">
<title>Node3&#45;&gt;Node17</title>
<g id="a_edge19_Node000003_Node000017"><a xlink:title=" ">
<path fill="none" stroke="#63b8ff" d="M954.6,-184.45C913.93,-174.08 862.09,-160.86 823.45,-151.01"/>
<polygon fill="#63b8ff" stroke="#63b8ff" points="953.86,-187.88 964.42,-186.95 955.59,-181.09 953.86,-187.88"/>
</a>
</g>
</g>
<!-- Node3&#45;&gt;Node18 -->
<g id="edge20_Node000003_Node000018" class="edge">
<title>Node3&#45;&gt;Node18</title>
<g id="a_edge20_Node000003_Node000018"><a xlink:title=" ">
<path fill="none" stroke="#63b8ff" d="M1062.06,-182.67C1081.49,-173.81 1104.55,-162.6 1124.5,-151 1144.64,-139.28 1145.85,-129.61 1167.5,-121 1268.55,-80.83 1302.22,-102.73 1409.5,-85 1412.18,-84.56 1414.91,-84.1 1417.67,-83.63"/>
<polygon fill="#63b8ff" stroke="#63b8ff" points="1060.53,-179.52 1052.85,-186.81 1063.4,-185.9 1060.53,-179.52"/>
</a>
</g>
</g>
<!-- Node5 -->
<g id="Node000005" class="node">
<title>Node5</title>
<g id="a_Node000005"><a xlink:href="_input_manager_8cpp.html" target="_top" xlink:title=" ">
<polygon fill="white" stroke="#666666" points="915,-79.5 724,-79.5 724,-60.5 915,-60.5 915,-79.5"/>
<text text-anchor="middle" x="819.5" y="-67.5" font-family="Helvetica,sans-Serif" font-size="10.00">src/InputManager/InputManager.cpp</text>
</a>
</g>
</g>
<!-- Node4&#45;&gt;Node5 -->
<g id="edge4_Node000004_Node000005" class="edge">
<title>Node4&#45;&gt;Node5</title>
<g id="a_edge4_Node000004_Node000005"><a xlink:title=" ">
<path fill="none" stroke="#63b8ff" d="M982.76,-123.24C943.29,-110.61 881.52,-90.85 846.36,-79.6"/>
<polygon fill="#63b8ff" stroke="#63b8ff" points="981.94,-126.65 992.53,-126.37 984.07,-119.99 981.94,-126.65"/>
</a>
</g>
</g>
<!-- Node4&#45;&gt;Node6 -->
<g id="edge5_Node000004_Node000006" class="edge">
<title>Node4&#45;&gt;Node6</title>
<g id="a_edge5_Node000004_Node000006"><a xlink:title=" ">
<path fill="none" stroke="#63b8ff" d="M925.82,-125.49C909.39,-123.92 892.45,-122.36 876.5,-121 657.16,-102.27 601.57,-106.66 382.5,-85 373.82,-84.14 364.78,-83.16 355.75,-82.12"/>
<polygon fill="#63b8ff" stroke="#63b8ff" points="925.69,-129 935.98,-126.47 926.36,-122.03 925.69,-129"/>
</a>
</g>
</g>
<!-- Node4&#45;&gt;Node8 -->
<g id="edge8_Node000004_Node000008" class="edge">
<title>Node4&#45;&gt;Node8</title>
<g id="a_edge8_Node000004_Node000008"><a xlink:title=" ">
<path fill="none" stroke="#63b8ff" d="M929.2,-125.52C911.72,-123.87 893.55,-122.27 876.5,-121 565.84,-97.82 486.45,-116.22 176.5,-85 162.69,-83.61 147.8,-81.6 134.07,-79.53"/>
<polygon fill="#63b8ff" stroke="#63b8ff" points="929.1,-129.03 939.39,-126.5 929.77,-122.06 929.1,-129.03"/>
</a>
</g>
</g>
<!-- Node4&#45;&gt;Node9 -->
<g id="edge9_Node000004_Node000009" class="edge">
<title>Node4&#45;&gt;Node9</title>
<g id="a_edge9_Node000004_Node000009"><a xlink:title=" ">
<path fill="none" stroke="#63b8ff" d="M944.48,-125.2C932.78,-123.74 920.82,-122.3 909.5,-121 752.82,-103.04 712.86,-105.54 556.5,-85 553.47,-84.6 550.38,-84.18 547.26,-83.74"/>
<polygon fill="#63b8ff" stroke="#63b8ff" points="944.32,-128.71 954.68,-126.48 945.19,-121.76 944.32,-128.71"/>
</a>
</g>
</g>
<!-- Node10 -->
<g id="Node000010" class="node">
<title>Node10</title>
<g id="a_Node000010"><a xlink:href="_u_i_8cpp.html" target="_top" xlink:title=" ">
<polygon fill="white" stroke="#666666" points="1010,-79.5 933,-79.5 933,-60.5 1010,-60.5 1010,-79.5"/>
<text text-anchor="middle" x="971.5" y="-67.5" font-family="Helvetica,sans-Serif" font-size="10.00">src/ui/UI.cpp</text>
</a>
</g>
</g>
<!-- Node4&#45;&gt;Node10 -->
<g id="edge10_Node000004_Node000010" class="edge">
<title>Node4&#45;&gt;Node10</title>
<g id="a_edge10_Node000004_Node000010"><a xlink:title=" ">
<path fill="none" stroke="#63b8ff" d="M1006.95,-118.27C997.74,-105.99 985.6,-89.8 978.18,-79.91"/>
<polygon fill="#63b8ff" stroke="#63b8ff" points="1004.23,-120.47 1013.03,-126.37 1009.83,-116.27 1004.23,-120.47"/>
</a>
</g>
</g>
<!-- Node11 -->
<g id="Node000011" class="node">
<title>Node11</title>
<g id="a_Node000011"><a xlink:href="_filesystem_widget_8cpp.html" target="_top" xlink:title=" ">
<polygon fill="white" stroke="#666666" points="705.5,-85 565.5,-85 565.5,-55 705.5,-55 705.5,-85"/>
<text text-anchor="start" x="573.5" y="-73" font-family="Helvetica,sans-Serif" font-size="10.00">src/ui/widgets/Filesystem</text>
<text text-anchor="middle" x="635.5" y="-62" font-family="Helvetica,sans-Serif" font-size="10.00">Widget.cpp</text>
</a>
</g>
</g>
<!-- Node4&#45;&gt;Node11 -->
<g id="edge11_Node000004_Node000011" class="edge">
<title>Node4&#45;&gt;Node11</title>
<g id="a_edge11_Node000004_Node000011"><a xlink:title=" ">
<path fill="none" stroke="#63b8ff" d="M956.32,-124.89C894.61,-114.95 798.05,-99.25 714.5,-85 711.62,-84.51 708.67,-84 705.7,-83.49"/>
<polygon fill="#63b8ff" stroke="#63b8ff" points="955.87,-128.36 966.3,-126.49 956.98,-121.45 955.87,-128.36"/>
</a>
</g>
</g>
<!-- Node12 -->
<g id="Node000012" class="node">
<title>Node12</title>
<g id="a_Node000012"><a xlink:href="_runtime_widget_8cpp.html" target="_top" xlink:title=" ">
<polygon fill="white" stroke="#666666" points="1211,-79.5 1028,-79.5 1028,-60.5 1211,-60.5 1211,-79.5"/>
<text text-anchor="middle" x="1119.5" y="-67.5" font-family="Helvetica,sans-Serif" font-size="10.00">src/ui/widgets/RuntimeWidget.cpp</text>
</a>
</g>
</g>
<!-- Node4&#45;&gt;Node12 -->
<g id="edge12_Node000004_Node000012" class="edge">
<title>Node4&#45;&gt;Node12</title>
<g id="a_edge12_Node000004_Node000012"><a xlink:title=" ">
<path fill="none" stroke="#63b8ff" d="M1041.61,-120.85C1061.27,-108.27 1089.38,-90.28 1105.91,-79.7"/>
<polygon fill="#63b8ff" stroke="#63b8ff" points="1039.52,-118.03 1032.99,-126.37 1043.3,-123.93 1039.52,-118.03"/>
</a>
</g>
</g>
<!-- Node13 -->
<g id="Node000013" class="node">
<title>Node13</title>
<g id="a_Node000013"><a xlink:href="_scene_widget_8cpp.html" target="_top" xlink:title=" ">
<polygon fill="white" stroke="#666666" points="1400,-79.5 1229,-79.5 1229,-60.5 1400,-60.5 1400,-79.5"/>
<text text-anchor="middle" x="1314.5" y="-67.5" font-family="Helvetica,sans-Serif" font-size="10.00">src/ui/widgets/SceneWidget.cpp</text>
</a>
</g>
</g>
<!-- Node4&#45;&gt;Node13 -->
<g id="edge13_Node000004_Node000013" class="edge">
<title>Node4&#45;&gt;Node13</title>
<g id="a_edge13_Node000004_Node000013"><a xlink:title=" ">
<path fill="none" stroke="#63b8ff" d="M1069.02,-124.26C1127.06,-111.67 1222.06,-91.06 1275.25,-79.51"/>
<polygon fill="#63b8ff" stroke="#63b8ff" points="1068.01,-120.89 1058.98,-126.44 1069.49,-127.74 1068.01,-120.89"/>
</a>
</g>
</g>
<!-- Node6&#45;&gt;Node6 -->
<g id="edge6_Node000006_Node000006" class="edge">
<title>Node6&#45;&gt;Node6</title>
<g id="a_edge6_Node000006_Node000006"><a xlink:title=" ">
<path fill="none" stroke="#63b8ff" d="M365.72,-77.34C370.61,-75.52 373.5,-73.08 373.5,-70 373.5,-65.2 366.45,-61.93 355.75,-60.2"/>
<polygon fill="#63b8ff" stroke="#63b8ff" points="364.62,-74 355.75,-79.8 366.3,-80.8 364.62,-74"/>
</a>
</g>
</g>
<!-- Node7 -->
<g id="Node000007" class="node">
<title>Node7</title>
<g id="a_Node000007"><a xlink:href="_scene_widget_8hpp.html" target="_top" xlink:title="Contains the declaration of the SceneWidget class, a user interface widget for rendering scenes.">
<polygon fill="white" stroke="#666666" points="1184.5,-19 1012.5,-19 1012.5,0 1184.5,0 1184.5,-19"/>
<text text-anchor="middle" x="1098.5" y="-7" font-family="Helvetica,sans-Serif" font-size="10.00">src/ui/widgets/SceneWidget.hpp</text>
</a>
</g>
</g>
<!-- Node6&#45;&gt;Node7 -->
<g id="edge7_Node000006_Node000007" class="edge">
<title>Node6&#45;&gt;Node7</title>
<g id="a_edge7_Node000006_Node000007"><a xlink:title=" ">
<path fill="none" stroke="#63b8ff" d="M365.89,-56.67C371.5,-56.07 377.07,-55.51 382.5,-55 609.43,-33.79 877.8,-20.16 1012.4,-14.12"/>
<polygon fill="#63b8ff" stroke="#63b8ff" points="365.3,-53.21 355.75,-57.78 366.07,-60.17 365.3,-53.21"/>
</a>
</g>
</g>
<!-- Node19&#45;&gt;Node4 -->
<g id="edge31_Node000019_Node000004" class="edge">
<title>Node19&#45;&gt;Node4</title>
<g id="a_edge31_Node000019_Node000004"><a xlink:title=" ">
<path fill="none" stroke="#63b8ff" d="M1340.16,-190.72C1265.29,-178.18 1140.06,-157.2 1070.32,-145.51"/>
<polygon fill="#63b8ff" stroke="#63b8ff" points="1339.94,-194.23 1350.38,-192.44 1341.09,-187.33 1339.94,-194.23"/>
</a>
</g>
</g>
<!-- Node19&#45;&gt;Node9 -->
<g id="edge33_Node000019_Node000009" class="edge">
<title>Node19&#45;&gt;Node9</title>
<g id="a_edge33_Node000019_Node000009"><a xlink:title=" ">
<path fill="none" stroke="#63b8ff" d="M1284.16,-196.47C1161.9,-190.43 979.28,-177.27 914.5,-151 894.56,-142.91 896.4,-129.18 876.5,-121 744.14,-66.57 698.3,-104.37 556.5,-85 553.47,-84.59 550.38,-84.15 547.26,-83.7"/>
<polygon fill="#63b8ff" stroke="#63b8ff" points="1284.17,-199.98 1294.32,-196.97 1284.5,-192.99 1284.17,-199.98"/>
</a>
</g>
</g>
<!-- Node19&#45;&gt;Node12 -->
<g id="edge37_Node000019_Node000012" class="edge">
<title>Node19&#45;&gt;Node12</title>
<g id="a_edge37_Node000019_Node000012"><a xlink:title=" ">
<path fill="none" stroke="#63b8ff" d="M1373.82,-188.24C1316.57,-161.85 1186.45,-101.86 1138.07,-79.56"/>
<polygon fill="#63b8ff" stroke="#63b8ff" points="1372.45,-191.46 1383,-192.47 1375.38,-185.11 1372.45,-191.46"/>
</a>
</g>
</g>
<!-- Node19&#45;&gt;Node13 -->
<g id="edge38_Node000019_Node000013" class="edge">
<title>Node19&#45;&gt;Node13</title>
<g id="a_edge38_Node000019_Node000013"><a xlink:title=" ">
<path fill="none" stroke="#63b8ff" d="M1390.19,-184.1C1371.45,-156.1 1334.62,-101.06 1320.34,-79.73"/>
<polygon fill="#63b8ff" stroke="#63b8ff" points="1387.32,-186.11 1395.79,-192.47 1393.14,-182.21 1387.32,-186.11"/>
</a>
</g>
</g>
<!-- Node19&#45;&gt;Node14 -->
<g id="edge32_Node000019_Node000014" class="edge">
<title>Node19&#45;&gt;Node14</title>
<g id="a_edge32_Node000019_Node000014"><a xlink:title=" ">
<path fill="none" stroke="#63b8ff" d="M1402.69,-182.24C1404.89,-163.95 1411.08,-136.67 1428.5,-121 1441.39,-109.41 1540.24,-90.48 1602.24,-79.54"/>
<polygon fill="#63b8ff" stroke="#63b8ff" points="1399.2,-182.01 1401.78,-192.29 1406.17,-182.65 1399.2,-182.01"/>
</a>
</g>
</g>
<!-- Node19&#45;&gt;Node15 -->
<g id="edge35_Node000019_Node000015" class="edge">
<title>Node19&#45;&gt;Node15</title>
<g id="a_edge35_Node000019_Node000015"><a xlink:title=" ">
<path fill="none" stroke="#63b8ff" d="M1471.13,-190.55C1509.28,-183 1556.58,-170.61 1595.5,-151 1614.41,-141.47 1613.88,-131.07 1632.5,-121 1643.88,-114.84 1717.93,-92.17 1759.78,-79.58"/>
<polygon fill="#63b8ff" stroke="#63b8ff" points="1470.3,-187.14 1461.14,-192.45 1471.62,-194.02 1470.3,-187.14"/>
</a>
</g>
</g>
<!-- Node19&#45;&gt;Node20 -->
<g id="edge22_Node000019_Node000020" class="edge">
<title>Node19&#45;&gt;Node20</title>
<g id="a_edge22_Node000019_Node000020"><a xlink:title=" ">
<path fill="none" stroke="#63b8ff" d="M1453.69,-190.43C1506.86,-179.66 1589.62,-162.9 1648.25,-151.02"/>
<polygon fill="#63b8ff" stroke="#63b8ff" points="1452.9,-187.02 1443.79,-192.44 1454.29,-193.88 1452.9,-187.02"/>
</a>
</g>
</g>
<!-- Node19&#45;&gt;Node21 -->
<g id="edge34_Node000019_Node000021" class="edge">
<title>Node19&#45;&gt;Node21</title>
<g id="a_edge34_Node000019_Node000021"><a xlink:title=" ">
<path fill="none" stroke="#63b8ff" d="M1518.86,-193.53C1599.5,-186.66 1708.54,-173.93 1802.5,-151 1839.8,-141.9 1846.61,-131.64 1883.5,-121 1946.78,-102.74 2021.32,-88.17 2069.89,-79.57"/>
<polygon fill="#63b8ff" stroke="#63b8ff" points="1518.34,-190.06 1508.67,-194.38 1518.93,-197.04 1518.34,-190.06"/>
</a>
</g>
</g>
<!-- Node24 -->
<g id="Node000024" class="node">
<title>Node24</title>
<g id="a_Node000024"><a xlink:href="_camera_component_u_i_8hpp.html" target="_top" xlink:title=" ">
<polygon fill="white" stroke="#666666" points="1586,-151 1437,-151 1437,-121 1586,-121 1586,-151"/>
<text text-anchor="start" x="1445" y="-139" font-family="Helvetica,sans-Serif" font-size="10.00">src/ui/Components/Camera</text>
<text text-anchor="middle" x="1511.5" y="-128" font-family="Helvetica,sans-Serif" font-size="10.00">ComponentUI.hpp</text>
</a>
</g>
</g>
<!-- Node19&#45;&gt;Node24 -->
<g id="edge36_Node000019_Node000024" class="edge">
<title>Node19&#45;&gt;Node24</title>
<g id="a_edge36_Node000019_Node000024"><a xlink:title=" ">
<path fill="none" stroke="#63b8ff" d="M1425.21,-187.21C1443.53,-176.55 1468.78,-161.85 1487.24,-151.12"/>
<polygon fill="#63b8ff" stroke="#63b8ff" points="1423.22,-184.31 1416.34,-192.37 1426.74,-190.36 1423.22,-184.31"/>
</a>
</g>
</g>
<!-- Node20&#45;&gt;Node14 -->
<g id="edge23_Node000020_Node000014" class="edge">
<title>Node20&#45;&gt;Node14</title>
<g id="a_edge23_Node000020_Node000014"><a xlink:title=" ">
<path fill="none" stroke="#63b8ff" d="M1695.77,-113.6C1684.08,-102.1 1670.3,-88.52 1661.48,-79.84"/>
<polygon fill="#63b8ff" stroke="#63b8ff" points="1693.49,-116.27 1703.07,-120.8 1698.4,-111.29 1693.49,-116.27"/>
</a>
</g>
</g>
<!-- Node20&#45;&gt;Node15 -->
<g id="edge28_Node000020_Node000015" class="edge">
<title>Node20&#45;&gt;Node15</title>
<g id="a_edge28_Node000020_Node000015"><a xlink:title=" ">
<path fill="none" stroke="#63b8ff" d="M1740.87,-113.93C1753.72,-102.35 1768.97,-88.61 1778.69,-79.84"/>
<polygon fill="#63b8ff" stroke="#63b8ff" points="1738.34,-111.5 1733.26,-120.8 1743.03,-116.7 1738.34,-111.5"/>
</a>
</g>
</g>
<!-- Node20&#45;&gt;Node18 -->
<g id="edge30_Node000020_Node000018" class="edge">
<title>Node20&#45;&gt;Node18</title>
<g id="a_edge30_Node000020_Node000018"><a xlink:title=" ">
<path fill="none" stroke="#63b8ff" d="M1657.06,-118.25C1619.74,-107.91 1572.4,-94.8 1537.08,-85.01"/>
<polygon fill="#63b8ff" stroke="#63b8ff" points="1656.23,-121.66 1666.81,-120.95 1658.1,-114.91 1656.23,-121.66"/>
</a>
</g>
</g>
<!-- Node20&#45;&gt;Node21 -->
<g id="edge24_Node000020_Node000021" class="edge">
<title>Node20&#45;&gt;Node21</title>
<g id="a_edge24_Node000020_Node000021"><a xlink:title=" ">
<path fill="none" stroke="#63b8ff" d="M1804.01,-121.29C1883.95,-108.63 2000.22,-90.21 2067.62,-79.53"/>
<polygon fill="#63b8ff" stroke="#63b8ff" points="1803.29,-117.87 1793.96,-122.89 1804.39,-124.78 1803.29,-117.87"/>
</a>
</g>
</g>
<!-- Node23 -->
<g id="Node000023" class="node">
<title>Node23</title>
<g id="a_Node000023"><a xlink:href="_directional_light_component_u_i_8hpp.html" target="_top" xlink:title=" ">
<polygon fill="white" stroke="#666666" points="2010.5,-85 1846.5,-85 1846.5,-55 2010.5,-55 2010.5,-85"/>
<text text-anchor="start" x="1854.5" y="-73" font-family="Helvetica,sans-Serif" font-size="10.00">src/ui/Components/Directional</text>
<text text-anchor="middle" x="1928.5" y="-62" font-family="Helvetica,sans-Serif" font-size="10.00">LightComponentUI.hpp</text>
</a>
</g>
</g>
<!-- Node20&#45;&gt;Node23 -->
<g id="edge29_Node000020_Node000023" class="edge">
<title>Node20&#45;&gt;Node23</title>
<g id="a_edge29_Node000020_Node000023"><a xlink:title=" ">
<path fill="none" stroke="#63b8ff" d="M1773.58,-117.99C1807.53,-107.69 1850.31,-94.72 1882.3,-85.01"/>
<polygon fill="#63b8ff" stroke="#63b8ff" points="1772.36,-114.7 1763.8,-120.95 1774.39,-121.4 1772.36,-114.7"/>
</a>
</g>
</g>
<!-- Node21&#45;&gt;Node7 -->
<g id="edge27_Node000021_Node000007" class="edge">
<title>Node21&#45;&gt;Node7</title>
<g id="a_edge27_Node000021_Node000007"><a xlink:title=" ">
<path fill="none" stroke="#63b8ff" d="M2055.98,-59.14C2043.87,-57.56 2031.32,-56.09 2019.5,-55 1713.25,-26.64 1347.94,-15.78 1184.7,-12.13"/>
<polygon fill="#63b8ff" stroke="#63b8ff" points="2055.64,-62.62 2066.02,-60.48 2056.57,-55.69 2055.64,-62.62"/>
</a>
</g>
</g>
<!-- Node21&#45;&gt;Node21 -->
<g id="edge25_Node000021_Node000021" class="edge">
<title>Node21&#45;&gt;Node21</title>
<g id="a_edge25_Node000021_Node000021"><a xlink:title=" ">
<path fill="none" stroke="#63b8ff" d="M2172.53,-80.52C2203.37,-82.92 2232.5,-79.41 2232.5,-70 2232.5,-59.57 2196.72,-56.39 2162.49,-60.47"/>
<polygon fill="#63b8ff" stroke="#63b8ff" points="2172.78,-77.03 2162.49,-79.53 2172.1,-83.99 2172.78,-77.03"/>
</a>
</g>
</g>
<!-- Node22 -->
<g id="Node000022" class="node">
<title>Node22</title>
<g id="a_Node000022"><a xlink:href="_runtime_widget_8hpp.html" target="_top" xlink:title=" ">
<polygon fill="white" stroke="#666666" points="2213.5,-19 2029.5,-19 2029.5,0 2213.5,0 2213.5,-19"/>
<text text-anchor="middle" x="2121.5" y="-7" font-family="Helvetica,sans-Serif" font-size="10.00">src/ui/widgets/RuntimeWidget.hpp</text>
</a>
</g>
</g>
<!-- Node21&#45;&gt;Node22 -->
<g id="edge26_Node000021_Node000022" class="edge">
<title>Node21&#45;&gt;Node22</title>
<g id="a_edge26_Node000021_Node000022"><a xlink:title=" ">
<path fill="none" stroke="#63b8ff" d="M2121.5,-50.16C2121.5,-39.74 2121.5,-27.3 2121.5,-19.17"/>
<polygon fill="#63b8ff" stroke="#63b8ff" points="2118,-50.37 2121.5,-60.37 2125,-50.37 2118,-50.37"/>
</a>
</g>
</g>
</g>
</svg>
