<?xml version="1.0" encoding="UTF-8" standalone="no"?>
<!DOCTYPE svg PUBLIC "-//W3C//DTD SVG 1.1//EN"
 "http://www.w3.org/Graphics/SVG/1.1/DTD/svg11.dtd">
<!-- Generated by graphviz version 2.43.0 (0)
 -->
<!-- Title: src/Math/Utils.hpp Pages: 1 -->
<svg width="2366pt" height="401pt"
 viewBox="0.00 0.00 2365.50 401.00" xmlns="http://www.w3.org/2000/svg" xmlns:xlink="http://www.w3.org/1999/xlink">
<g id="graph0" class="graph" transform="scale(1 1) rotate(0) translate(4 397)">
<title>src/Math/Utils.hpp</title>
<!-- Node1 -->
<g id="Node000001" class="node">
<title>Node1</title>
<g id="a_Node000001"><a xlink:title=" ">
<polygon fill="#999999" stroke="#666666" points="1476.5,-393 1371.5,-393 1371.5,-374 1476.5,-374 1476.5,-393"/>
<text text-anchor="middle" x="1424" y="-381" font-family="Helvetica,sans-Serif" font-size="10.00">src/Math/Utils.hpp</text>
</a>
</g>
</g>
<!-- Node2 -->
<g id="Node000002" class="node">
<title>Node2</title>
<g id="a_Node000002"><a xlink:href="_transform_component_8hpp.html" target="_top" xlink:title=" ">
<polygon fill="white" stroke="#666666" points="1425.5,-338 1278.5,-338 1278.5,-308 1425.5,-308 1425.5,-338"/>
<text text-anchor="start" x="1286.5" y="-326" font-family="Helvetica,sans-Serif" font-size="10.00">src/Components/Transform</text>
<text text-anchor="middle" x="1352" y="-315" font-family="Helvetica,sans-Serif" font-size="10.00">Component.hpp</text>
</a>
</g>
</g>
<!-- Node1&#45;&gt;Node2 -->
<g id="edge1_Node000001_Node000002" class="edge">
<title>Node1&#45;&gt;Node2</title>
<g id="a_edge1_Node000001_Node000002"><a xlink:title=" ">
<path fill="none" stroke="#63b8ff" d="M1405.54,-367.5C1394.4,-358.45 1380.31,-347 1369.37,-338.11"/>
<polygon fill="#63b8ff" stroke="#63b8ff" points="1403.41,-370.28 1413.38,-373.87 1407.82,-364.85 1403.41,-370.28"/>
</a>
</g>
</g>
<!-- Node28 -->
<g id="Node000028" class="node">
<title>Node28</title>
<g id="a_Node000028"><a xlink:href="_math_2_utils_8cpp.html" target="_top" xlink:title=" ">
<polygon fill="white" stroke="#666666" points="1548,-332.5 1444,-332.5 1444,-313.5 1548,-313.5 1548,-332.5"/>
<text text-anchor="middle" x="1496" y="-320.5" font-family="Helvetica,sans-Serif" font-size="10.00">src/Math/Utils.cpp</text>
</a>
</g>
</g>
<!-- Node1&#45;&gt;Node28 -->
<g id="edge45_Node000001_Node000028" class="edge">
<title>Node1&#45;&gt;Node28</title>
<g id="a_edge45_Node000001_Node000028"><a xlink:title=" ">
<path fill="none" stroke="#63b8ff" d="M1442.42,-367.54C1456.01,-356.49 1474.04,-341.84 1485.33,-332.67"/>
<polygon fill="#63b8ff" stroke="#63b8ff" points="1440.18,-364.85 1434.62,-373.87 1444.59,-370.28 1440.18,-364.85"/>
</a>
</g>
</g>
<!-- Node3 -->
<g id="Node000003" class="node">
<title>Node3</title>
<g id="a_Node000003"><a xlink:href="_box_collider_component_8hpp.html" target="_top" xlink:title=" ">
<polygon fill="white" stroke="#666666" points="1074.5,-272 919.5,-272 919.5,-242 1074.5,-242 1074.5,-272"/>
<text text-anchor="start" x="927.5" y="-260" font-family="Helvetica,sans-Serif" font-size="10.00">src/Components/BoxCollider</text>
<text text-anchor="middle" x="997" y="-249" font-family="Helvetica,sans-Serif" font-size="10.00">Component.hpp</text>
</a>
</g>
</g>
<!-- Node2&#45;&gt;Node3 -->
<g id="edge2_Node000002_Node000003" class="edge">
<title>Node2&#45;&gt;Node3</title>
<g id="a_edge2_Node000002_Node000003"><a xlink:title=" ">
<path fill="none" stroke="#63b8ff" d="M1268.47,-306.94C1209.87,-296.38 1132.06,-282.35 1074.77,-272.02"/>
<polygon fill="#63b8ff" stroke="#63b8ff" points="1267.98,-310.41 1278.44,-308.74 1269.22,-303.52 1267.98,-310.41"/>
</a>
</g>
</g>
<!-- Node4 -->
<g id="Node000004" class="node">
<title>Node4</title>
<g id="a_Node000004"><a xlink:href="_input_manager_8hpp.html" target="_top" xlink:title=" ">
<polygon fill="white" stroke="#666666" points="1003,-200.5 811,-200.5 811,-181.5 1003,-181.5 1003,-200.5"/>
<text text-anchor="middle" x="907" y="-188.5" font-family="Helvetica,sans-Serif" font-size="10.00">src/InputManager/InputManager.hpp</text>
</a>
</g>
</g>
<!-- Node2&#45;&gt;Node4 -->
<g id="edge35_Node000002_Node000004" class="edge">
<title>Node2&#45;&gt;Node4</title>
<g id="a_edge35_Node000002_Node000004"><a xlink:title=" ">
<path fill="none" stroke="#63b8ff" d="M1268.32,-318.33C1146.95,-312.15 933.88,-297.75 910,-272 891.85,-252.43 899.24,-217.22 904.07,-200.83"/>
<polygon fill="#63b8ff" stroke="#63b8ff" points="1268.17,-321.82 1278.33,-318.83 1268.52,-314.83 1268.17,-321.82"/>
</a>
</g>
</g>
<!-- Node6 -->
<g id="Node000006" class="node">
<title>Node6</title>
<g id="a_Node000006"><a xlink:href="_camera_movement_system_8cpp.html" target="_top" xlink:title=" ">
<polygon fill="white" stroke="#666666" points="170,-140 0,-140 0,-110 170,-110 170,-140"/>
<text text-anchor="start" x="8" y="-128" font-family="Helvetica,sans-Serif" font-size="10.00">src/Systems/CameraMovement</text>
<text text-anchor="middle" x="85" y="-117" font-family="Helvetica,sans-Serif" font-size="10.00">System.cpp</text>
</a>
</g>
</g>
<!-- Node2&#45;&gt;Node6 -->
<g id="edge36_Node000002_Node000006" class="edge">
<title>Node2&#45;&gt;Node6</title>
<g id="a_edge36_Node000002_Node000006"><a xlink:title=" ">
<path fill="none" stroke="#63b8ff" d="M1268.29,-319.77C1086.68,-314.48 661.5,-299.5 520,-272 364.58,-241.8 188.29,-170.49 117.22,-140.11"/>
<polygon fill="#63b8ff" stroke="#63b8ff" points="1268.23,-323.27 1278.32,-320.06 1268.43,-316.27 1268.23,-323.27"/>
</a>
</g>
</g>
<!-- Node7 -->
<g id="Node000007" class="node">
<title>Node7</title>
<g id="a_Node000007"><a xlink:href="_gizmo_system_8cpp.html" target="_top" xlink:title=" ">
<polygon fill="white" stroke="#666666" points="355.5,-134.5 188.5,-134.5 188.5,-115.5 355.5,-115.5 355.5,-134.5"/>
<text text-anchor="middle" x="272" y="-122.5" font-family="Helvetica,sans-Serif" font-size="10.00">src/Systems/GizmoSystem.cpp</text>
</a>
</g>
</g>
<!-- Node2&#45;&gt;Node7 -->
<g id="edge37_Node000002_Node000007" class="edge">
<title>Node2&#45;&gt;Node7</title>
<g id="a_edge37_Node000002_Node000007"><a xlink:title=" ">
<path fill="none" stroke="#63b8ff" d="M1268.01,-317.83C1062.05,-306.67 537.05,-272.41 376,-206 334.93,-189.07 296.09,-151.51 279.91,-134.58"/>
<polygon fill="#63b8ff" stroke="#63b8ff" points="1267.99,-321.33 1278.16,-318.37 1268.36,-314.34 1267.99,-321.33"/>
</a>
</g>
</g>
<!-- Node8 -->
<g id="Node000008" class="node">
<title>Node8</title>
<g id="a_Node000008"><a xlink:href="_object_selection_system_8cpp.html" target="_top" xlink:title=" ">
<polygon fill="white" stroke="#666666" points="1180.5,-140 1025.5,-140 1025.5,-110 1180.5,-110 1180.5,-140"/>
<text text-anchor="start" x="1033.5" y="-128" font-family="Helvetica,sans-Serif" font-size="10.00">src/Systems/ObjectSelection</text>
<text text-anchor="middle" x="1103" y="-117" font-family="Helvetica,sans-Serif" font-size="10.00">System.cpp</text>
</a>
</g>
</g>
<!-- Node2&#45;&gt;Node8 -->
<g id="edge38_Node000002_Node000008" class="edge">
<title>Node2&#45;&gt;Node8</title>
<g id="a_edge38_Node000002_Node000008"><a xlink:title=" ">
<path fill="none" stroke="#63b8ff" d="M1287.65,-304.67C1265.58,-296.87 1241.53,-286.15 1222,-272 1170.1,-234.39 1127.92,-168.79 1110.99,-140.1"/>
<polygon fill="#63b8ff" stroke="#63b8ff" points="1286.71,-308.05 1297.3,-307.95 1288.96,-301.42 1286.71,-308.05"/>
</a>
</g>
</g>
<!-- Node12 -->
<g id="Node000012" class="node">
<title>Node12</title>
<g id="a_Node000012"><a xlink:href="main_8cpp.html" target="_top" xlink:title=" ">
<polygon fill="white" stroke="#666666" points="1432.5,-134.5 1353.5,-134.5 1353.5,-115.5 1432.5,-115.5 1432.5,-134.5"/>
<text text-anchor="middle" x="1393" y="-122.5" font-family="Helvetica,sans-Serif" font-size="10.00">src/main.cpp</text>
</a>
</g>
</g>
<!-- Node2&#45;&gt;Node12 -->
<g id="edge41_Node000002_Node000012" class="edge">
<title>Node2&#45;&gt;Node12</title>
<g id="a_edge41_Node000002_Node000012"><a xlink:title=" ">
<path fill="none" stroke="#63b8ff" d="M1409.32,-304.31C1429.19,-296.44 1450.78,-285.77 1468,-272 1496.33,-249.35 1504.78,-240.49 1516,-206 1520.12,-193.32 1523.44,-187.06 1516,-176 1510.24,-167.44 1452.4,-146.41 1418.13,-134.53"/>
<polygon fill="#63b8ff" stroke="#63b8ff" points="1407.84,-301.13 1399.73,-307.96 1410.33,-307.68 1407.84,-301.13"/>
</a>
</g>
</g>
<!-- Node15 -->
<g id="Node000015" class="node">
<title>Node15</title>
<g id="a_Node000015"><a xlink:href="_properties_widget_8cpp.html" target="_top" xlink:title=" ">
<polygon fill="white" stroke="#666666" points="1335.5,-140 1198.5,-140 1198.5,-110 1335.5,-110 1335.5,-140"/>
<text text-anchor="start" x="1206.5" y="-128" font-family="Helvetica,sans-Serif" font-size="10.00">src/ui/widgets/Properties</text>
<text text-anchor="middle" x="1267" y="-117" font-family="Helvetica,sans-Serif" font-size="10.00">Widget.cpp</text>
</a>
</g>
</g>
<!-- Node2&#45;&gt;Node15 -->
<g id="edge44_Node000002_Node000015" class="edge">
<title>Node2&#45;&gt;Node15</title>
<g id="a_edge44_Node000002_Node000015"><a xlink:title=" ">
<path fill="none" stroke="#63b8ff" d="M1275.73,-303.98C1260.06,-296.67 1245.47,-286.4 1236,-272 1208.37,-230 1240.42,-167.81 1257.56,-140.15"/>
<polygon fill="#63b8ff" stroke="#63b8ff" points="1274.47,-307.26 1285.05,-307.96 1277.22,-300.82 1274.47,-307.26"/>
</a>
</g>
</g>
<!-- Node16 -->
<g id="Node000016" class="node">
<title>Node16</title>
<g id="a_Node000016"><a xlink:href="_camera_component_8hpp.html" target="_top" xlink:title=" ">
<polygon fill="white" stroke="#666666" points="1459,-266.5 1245,-266.5 1245,-247.5 1459,-247.5 1459,-266.5"/>
<text text-anchor="middle" x="1352" y="-254.5" font-family="Helvetica,sans-Serif" font-size="10.00">src/Components/CameraComponent.hpp</text>
</a>
</g>
</g>
<!-- Node2&#45;&gt;Node16 -->
<g id="edge17_Node000002_Node000016" class="edge">
<title>Node2&#45;&gt;Node16</title>
<g id="a_edge17_Node000002_Node000016"><a xlink:title=" ">
<path fill="none" stroke="#63b8ff" d="M1352,-297.6C1352,-286.8 1352,-274.78 1352,-266.84"/>
<polygon fill="#63b8ff" stroke="#63b8ff" points="1348.5,-297.8 1352,-307.8 1355.5,-297.8 1348.5,-297.8"/>
</a>
</g>
</g>
<!-- Node17 -->
<g id="Node000017" class="node">
<title>Node17</title>
<g id="a_Node000017"><a xlink:href="_directional_light_component_8hpp.html" target="_top" xlink:title=" ">
<polygon fill="white" stroke="#666666" points="1715,-206 1563,-206 1563,-176 1715,-176 1715,-206"/>
<text text-anchor="start" x="1571" y="-194" font-family="Helvetica,sans-Serif" font-size="10.00">src/Components/Directional</text>
<text text-anchor="middle" x="1639" y="-183" font-family="Helvetica,sans-Serif" font-size="10.00">LightComponent.hpp</text>
</a>
</g>
</g>
<!-- Node2&#45;&gt;Node17 -->
<g id="edge34_Node000002_Node000017" class="edge">
<title>Node2&#45;&gt;Node17</title>
<g id="a_edge34_Node000002_Node000017"><a xlink:title=" ">
<path fill="none" stroke="#63b8ff" d="M1431.58,-305.81C1476.83,-295.83 1528.45,-282.9 1549,-272 1581.14,-254.96 1611.17,-224.12 1627.11,-206.12"/>
<polygon fill="#63b8ff" stroke="#63b8ff" points="1430.76,-302.41 1421.74,-307.96 1432.25,-309.25 1430.76,-302.41"/>
</a>
</g>
</g>
<!-- Node18 -->
<g id="Node000018" class="node">
<title>Node18</title>
<g id="a_Node000018"><a xlink:href="_rendering_system_8cpp.html" target="_top" xlink:title=" ">
<polygon fill="white" stroke="#666666" points="1957.5,-74 1772.5,-74 1772.5,-55 1957.5,-55 1957.5,-74"/>
<text text-anchor="middle" x="1865" y="-62" font-family="Helvetica,sans-Serif" font-size="10.00">src/Systems/RenderingSystem.cpp</text>
</a>
</g>
</g>
<!-- Node2&#45;&gt;Node18 -->
<g id="edge40_Node000002_Node000018" class="edge">
<title>Node2&#45;&gt;Node18</title>
<g id="a_edge40_Node000002_Node000018"><a xlink:title=" ">
<path fill="none" stroke="#63b8ff" d="M1435.39,-306.16C1479.54,-297.23 1534.51,-285.21 1583,-272 1673.31,-247.4 1700.02,-249.32 1783,-206 1826.34,-183.38 1849.14,-183.73 1871,-140 1881.79,-118.41 1873.74,-88.87 1868.52,-74.32"/>
<polygon fill="#63b8ff" stroke="#63b8ff" points="1434.68,-302.74 1425.56,-308.14 1436.06,-309.6 1434.68,-302.74"/>
</a>
</g>
</g>
<!-- Node25 -->
<g id="Node000025" class="node">
<title>Node25</title>
<g id="a_Node000025"><a xlink:href="_particle_system_8cpp.html" target="_top" xlink:title=" ">
<polygon fill="white" stroke="#666666" points="1983,-266.5 1811,-266.5 1811,-247.5 1983,-247.5 1983,-266.5"/>
<text text-anchor="middle" x="1897" y="-254.5" font-family="Helvetica,sans-Serif" font-size="10.00">src/Systems/ParticleSystem.cpp</text>
</a>
</g>
</g>
<!-- Node2&#45;&gt;Node25 -->
<g id="edge39_Node000002_Node000025" class="edge">
<title>Node2&#45;&gt;Node25</title>
<g id="a_edge39_Node000002_Node000025"><a xlink:title=" ">
<path fill="none" stroke="#63b8ff" d="M1436,-307.93C1596.99,-286.72 1639.76,-290.82 1797,-272 1810.58,-270.38 1825.16,-268.44 1838.88,-266.54"/>
<polygon fill="#63b8ff" stroke="#63b8ff" points="1435.18,-304.51 1425.73,-309.3 1436.1,-311.45 1435.18,-304.51"/>
</a>
</g>
</g>
<!-- Node26 -->
<g id="Node000026" class="node">
<title>Node26</title>
<g id="a_Node000026"><a xlink:href="_transform_component_u_i_8hpp.html" target="_top" xlink:title=" ">
<polygon fill="white" stroke="#666666" points="2160.5,-272 2001.5,-272 2001.5,-242 2160.5,-242 2160.5,-272"/>
<text text-anchor="start" x="2009.5" y="-260" font-family="Helvetica,sans-Serif" font-size="10.00">src/ui/Components/Transform</text>
<text text-anchor="middle" x="2081" y="-249" font-family="Helvetica,sans-Serif" font-size="10.00">ComponentUI.hpp</text>
</a>
</g>
</g>
<!-- Node2&#45;&gt;Node26 -->
<g id="edge42_Node000002_Node000026" class="edge">
<title>Node2&#45;&gt;Node26</title>
<g id="a_edge42_Node000002_Node000026"><a xlink:title=" ">
<path fill="none" stroke="#63b8ff" d="M1435.72,-308.01C1683.13,-279.85 1748.69,-298.94 1992,-272 1995.11,-271.66 1998.28,-271.28 2001.47,-270.88"/>
<polygon fill="#63b8ff" stroke="#63b8ff" points="1435.24,-304.54 1425.71,-309.16 1436.05,-311.5 1435.24,-304.54"/>
</a>
</g>
</g>
<!-- Node27 -->
<g id="Node000027" class="node">
<title>Node27</title>
<g id="a_Node000027"><a xlink:href="_objects_widget_8cpp.html" target="_top" xlink:title=" ">
<polygon fill="white" stroke="#666666" points="2357.5,-266.5 2178.5,-266.5 2178.5,-247.5 2357.5,-247.5 2357.5,-266.5"/>
<text text-anchor="middle" x="2268" y="-254.5" font-family="Helvetica,sans-Serif" font-size="10.00">src/ui/widgets/ObjectsWidget.cpp</text>
</a>
</g>
</g>
<!-- Node2&#45;&gt;Node27 -->
<g id="edge43_Node000002_Node000027" class="edge">
<title>Node2&#45;&gt;Node27</title>
<g id="a_edge43_Node000002_Node000027"><a xlink:title=" ">
<path fill="none" stroke="#63b8ff" d="M1435.91,-308.01C1761.91,-273.36 1847.77,-302.84 2170,-272 2184.54,-270.61 2200.23,-268.6 2214.7,-266.53"/>
<polygon fill="#63b8ff" stroke="#63b8ff" points="1435.27,-304.55 1425.7,-309.1 1436.02,-311.51 1435.27,-304.55"/>
</a>
</g>
</g>
<!-- Node3&#45;&gt;Node4 -->
<g id="edge3_Node000003_Node000004" class="edge">
<title>Node3&#45;&gt;Node4</title>
<g id="a_edge3_Node000003_Node000004"><a xlink:title=" ">
<path fill="none" stroke="#63b8ff" d="M968.7,-235.87C952.04,-224.03 931.82,-209.65 919.18,-200.66"/>
<polygon fill="#63b8ff" stroke="#63b8ff" points="966.85,-238.85 977.03,-241.8 970.9,-233.15 966.85,-238.85"/>
</a>
</g>
</g>
<!-- Node3&#45;&gt;Node7 -->
<g id="edge11_Node000003_Node000007" class="edge">
<title>Node3&#45;&gt;Node7</title>
<g id="a_edge11_Node000003_Node000007"><a xlink:title=" ">
<path fill="none" stroke="#63b8ff" d="M909.11,-249.26C816.96,-241.27 678.9,-226.42 630,-206 609.82,-197.57 611.09,-184.63 591,-176 587.98,-174.7 418.26,-148.48 327.65,-134.55"/>
<polygon fill="#63b8ff" stroke="#63b8ff" points="909.01,-252.76 919.27,-250.13 909.6,-245.79 909.01,-252.76"/>
</a>
</g>
</g>
<!-- Node3&#45;&gt;Node8 -->
<g id="edge12_Node000003_Node000008" class="edge">
<title>Node3&#45;&gt;Node8</title>
<g id="a_edge12_Node000003_Node000008"><a xlink:title=" ">
<path fill="none" stroke="#63b8ff" d="M1015.1,-233.8C1036.96,-206.99 1073.08,-162.7 1091.47,-140.14"/>
<polygon fill="#63b8ff" stroke="#63b8ff" points="1012.15,-231.88 1008.55,-241.84 1017.58,-236.3 1012.15,-231.88"/>
</a>
</g>
</g>
<!-- Node3&#45;&gt;Node12 -->
<g id="edge13_Node000003_Node000012" class="edge">
<title>Node3&#45;&gt;Node12</title>
<g id="a_edge13_Node000003_Node000012"><a xlink:title=" ">
<path fill="none" stroke="#63b8ff" d="M1049.29,-238.83C1135,-210.7 1302.29,-155.78 1366.78,-134.61"/>
<polygon fill="#63b8ff" stroke="#63b8ff" points="1048.16,-235.52 1039.76,-241.96 1050.35,-242.17 1048.16,-235.52"/>
</a>
</g>
</g>
<!-- Node13 -->
<g id="Node000013" class="node">
<title>Node13</title>
<g id="a_Node000013"><a xlink:href="_billboard_component_u_i_8cpp.html" target="_top" xlink:title=" ">
<polygon fill="white" stroke="#666666" points="793,-206 639,-206 639,-176 793,-176 793,-206"/>
<text text-anchor="start" x="647" y="-194" font-family="Helvetica,sans-Serif" font-size="10.00">src/ui/Components/Billboard</text>
<text text-anchor="middle" x="716" y="-183" font-family="Helvetica,sans-Serif" font-size="10.00">ComponentUI.cpp</text>
</a>
</g>
</g>
<!-- Node3&#45;&gt;Node13 -->
<g id="edge14_Node000003_Node000013" class="edge">
<title>Node3&#45;&gt;Node13</title>
<g id="a_edge14_Node000003_Node000013"><a xlink:title=" ">
<path fill="none" stroke="#63b8ff" d="M925.49,-239.71C879.79,-229.31 821.14,-215.95 777.52,-206.01"/>
<polygon fill="#63b8ff" stroke="#63b8ff" points="924.81,-243.15 935.33,-241.95 926.36,-236.32 924.81,-243.15"/>
</a>
</g>
</g>
<!-- Node14 -->
<g id="Node000014" class="node">
<title>Node14</title>
<g id="a_Node000014"><a xlink:href="_model_component_u_i_8cpp.html" target="_top" xlink:title=" ">
<polygon fill="white" stroke="#666666" points="582.5,-206 385.5,-206 385.5,-176 582.5,-176 582.5,-206"/>
<text text-anchor="start" x="393.5" y="-194" font-family="Helvetica,sans-Serif" font-size="10.00">src/ui/Components/ModelComponent</text>
<text text-anchor="middle" x="484" y="-183" font-family="Helvetica,sans-Serif" font-size="10.00">UI.cpp</text>
</a>
</g>
</g>
<!-- Node3&#45;&gt;Node14 -->
<g id="edge15_Node000003_Node000014" class="edge">
<title>Node3&#45;&gt;Node14</title>
<g id="a_edge15_Node000003_Node000014"><a xlink:title=" ">
<path fill="none" stroke="#63b8ff" d="M909.38,-245.07C818.64,-233.75 677.15,-216.1 582.56,-204.3"/>
<polygon fill="#63b8ff" stroke="#63b8ff" points="909.01,-248.55 919.36,-246.31 909.88,-241.6 909.01,-248.55"/>
</a>
</g>
</g>
<!-- Node3&#45;&gt;Node15 -->
<g id="edge16_Node000003_Node000015" class="edge">
<title>Node3&#45;&gt;Node15</title>
<g id="a_edge16_Node000003_Node000015"><a xlink:title=" ">
<path fill="none" stroke="#63b8ff" d="M1035.47,-237.48C1089.98,-211.23 1188.49,-163.8 1237.56,-140.17"/>
<polygon fill="#63b8ff" stroke="#63b8ff" points="1033.64,-234.47 1026.15,-241.96 1036.68,-240.78 1033.64,-234.47"/>
</a>
</g>
</g>
<!-- Node5 -->
<g id="Node000005" class="node">
<title>Node5</title>
<g id="a_Node000005"><a xlink:href="_input_manager_8cpp.html" target="_top" xlink:title=" ">
<polygon fill="white" stroke="#666666" points="818.5,-134.5 627.5,-134.5 627.5,-115.5 818.5,-115.5 818.5,-134.5"/>
<text text-anchor="middle" x="723" y="-122.5" font-family="Helvetica,sans-Serif" font-size="10.00">src/InputManager/InputManager.cpp</text>
</a>
</g>
</g>
<!-- Node4&#45;&gt;Node5 -->
<g id="edge4_Node000004_Node000005" class="edge">
<title>Node4&#45;&gt;Node5</title>
<g id="a_edge4_Node000004_Node000005"><a xlink:title=" ">
<path fill="none" stroke="#63b8ff" d="M872.5,-178C836.17,-165.36 779.85,-145.78 747.72,-134.6"/>
<polygon fill="#63b8ff" stroke="#63b8ff" points="871.59,-181.39 882.18,-181.37 873.89,-174.78 871.59,-181.39"/>
</a>
</g>
</g>
<!-- Node4&#45;&gt;Node6 -->
<g id="edge5_Node000004_Node000006" class="edge">
<title>Node4&#45;&gt;Node6</title>
<g id="a_edge5_Node000004_Node000006"><a xlink:title=" ">
<path fill="none" stroke="#63b8ff" d="M838.87,-180.16C826.62,-178.61 813.94,-177.14 802,-176 525.9,-149.65 454.89,-168.46 179,-140 176.05,-139.7 173.04,-139.36 170.01,-139.01"/>
<polygon fill="#63b8ff" stroke="#63b8ff" points="838.68,-183.67 849.05,-181.48 839.58,-176.72 838.68,-183.67"/>
</a>
</g>
</g>
<!-- Node4&#45;&gt;Node7 -->
<g id="edge6_Node000004_Node000007" class="edge">
<title>Node4&#45;&gt;Node7</title>
<g id="a_edge6_Node000004_Node000007"><a xlink:title=" ">
<path fill="none" stroke="#63b8ff" d="M836.95,-180.16C825.29,-178.67 813.31,-177.22 802,-176 607.8,-155.09 558,-162.71 364,-140 351,-138.48 337.02,-136.52 323.98,-134.55"/>
<polygon fill="#63b8ff" stroke="#63b8ff" points="836.73,-183.66 847.09,-181.48 837.63,-176.72 836.73,-183.66"/>
</a>
</g>
</g>
<!-- Node4&#45;&gt;Node8 -->
<g id="edge7_Node000004_Node000008" class="edge">
<title>Node4&#45;&gt;Node8</title>
<g id="a_edge7_Node000004_Node000008"><a xlink:title=" ">
<path fill="none" stroke="#63b8ff" d="M943.12,-178.21C976.05,-167.45 1024.78,-151.54 1059.77,-140.12"/>
<polygon fill="#63b8ff" stroke="#63b8ff" points="941.85,-174.94 933.43,-181.37 944.03,-181.59 941.85,-174.94"/>
</a>
</g>
</g>
<!-- Node9 -->
<g id="Node000009" class="node">
<title>Node9</title>
<g id="a_Node000009"><a xlink:href="_u_i_8cpp.html" target="_top" xlink:title=" ">
<polygon fill="white" stroke="#666666" points="450.5,-134.5 373.5,-134.5 373.5,-115.5 450.5,-115.5 450.5,-134.5"/>
<text text-anchor="middle" x="412" y="-122.5" font-family="Helvetica,sans-Serif" font-size="10.00">src/ui/UI.cpp</text>
</a>
</g>
</g>
<!-- Node4&#45;&gt;Node9 -->
<g id="edge8_Node000004_Node000009" class="edge">
<title>Node4&#45;&gt;Node9</title>
<g id="a_edge8_Node000004_Node000009"><a xlink:title=" ">
<path fill="none" stroke="#63b8ff" d="M835.27,-180.17C824.14,-178.72 812.77,-177.28 802,-176 650.24,-157.9 609.96,-169.52 460,-140 452.85,-138.59 445.22,-136.6 438.2,-134.56"/>
<polygon fill="#63b8ff" stroke="#63b8ff" points="835.04,-183.67 845.41,-181.5 835.95,-176.73 835.04,-183.67"/>
</a>
</g>
</g>
<!-- Node10 -->
<g id="Node000010" class="node">
<title>Node10</title>
<g id="a_Node000010"><a xlink:href="_filesystem_widget_8cpp.html" target="_top" xlink:title=" ">
<polygon fill="white" stroke="#666666" points="609,-140 469,-140 469,-110 609,-110 609,-140"/>
<text text-anchor="start" x="477" y="-128" font-family="Helvetica,sans-Serif" font-size="10.00">src/ui/widgets/Filesystem</text>
<text text-anchor="middle" x="539" y="-117" font-family="Helvetica,sans-Serif" font-size="10.00">Widget.cpp</text>
</a>
</g>
</g>
<!-- Node4&#45;&gt;Node10 -->
<g id="edge9_Node000004_Node000010" class="edge">
<title>Node4&#45;&gt;Node10</title>
<g id="a_edge9_Node000004_Node000010"><a xlink:title=" ">
<path fill="none" stroke="#63b8ff" d="M847.22,-179.73C788.77,-169.67 697.25,-153.88 618,-140 615.12,-139.5 612.18,-138.98 609.21,-138.46"/>
<polygon fill="#63b8ff" stroke="#63b8ff" points="846.94,-183.23 857.39,-181.48 848.12,-176.33 846.94,-183.23"/>
</a>
</g>
</g>
<!-- Node11 -->
<g id="Node000011" class="node">
<title>Node11</title>
<g id="a_Node000011"><a xlink:href="_scene_widget_8cpp.html" target="_top" xlink:title=" ">
<polygon fill="white" stroke="#666666" points="1007.5,-134.5 836.5,-134.5 836.5,-115.5 1007.5,-115.5 1007.5,-134.5"/>
<text text-anchor="middle" x="922" y="-122.5" font-family="Helvetica,sans-Serif" font-size="10.00">src/ui/widgets/SceneWidget.cpp</text>
</a>
</g>
</g>
<!-- Node4&#45;&gt;Node11 -->
<g id="edge10_Node000004_Node000011" class="edge">
<title>Node4&#45;&gt;Node11</title>
<g id="a_edge10_Node000004_Node000011"><a xlink:title=" ">
<path fill="none" stroke="#63b8ff" d="M911.35,-171.45C914.16,-159.43 917.71,-144.32 919.91,-134.91"/>
<polygon fill="#63b8ff" stroke="#63b8ff" points="907.9,-170.83 909.02,-181.37 914.71,-172.43 907.9,-170.83"/>
</a>
</g>
</g>
<!-- Node16&#45;&gt;Node4 -->
<g id="edge28_Node000016_Node000004" class="edge">
<title>Node16&#45;&gt;Node4</title>
<g id="a_edge28_Node000016_Node000004"><a xlink:title=" ">
<path fill="none" stroke="#63b8ff" d="M1282.41,-245.99C1195.41,-233.48 1048.03,-212.28 966.2,-200.51"/>
<polygon fill="#63b8ff" stroke="#63b8ff" points="1282.05,-249.48 1292.45,-247.44 1283.05,-242.55 1282.05,-249.48"/>
</a>
</g>
</g>
<!-- Node16&#45;&gt;Node8 -->
<g id="edge29_Node000016_Node000008" class="edge">
<title>Node16&#45;&gt;Node8</title>
<g id="a_edge29_Node000016_Node000008"><a xlink:title=" ">
<path fill="none" stroke="#63b8ff" d="M1326.71,-242.8C1279.5,-218.15 1178.38,-165.35 1129.94,-140.07"/>
<polygon fill="#63b8ff" stroke="#63b8ff" points="1325.18,-245.94 1335.66,-247.47 1328.42,-239.74 1325.18,-245.94"/>
</a>
</g>
</g>
<!-- Node16&#45;&gt;Node11 -->
<g id="edge33_Node000016_Node000011" class="edge">
<title>Node16&#45;&gt;Node11</title>
<g id="a_edge33_Node000016_Node000011"><a xlink:title=" ">
<path fill="none" stroke="#63b8ff" d="M1314.03,-244.52C1229.09,-218.84 1025.31,-157.23 950.32,-134.56"/>
<polygon fill="#63b8ff" stroke="#63b8ff" points="1313.2,-247.93 1323.79,-247.47 1315.23,-241.23 1313.2,-247.93"/>
</a>
</g>
</g>
<!-- Node16&#45;&gt;Node12 -->
<g id="edge31_Node000016_Node000012" class="edge">
<title>Node16&#45;&gt;Node12</title>
<g id="a_edge31_Node000016_Node000012"><a xlink:title=" ">
<path fill="none" stroke="#63b8ff" d="M1347.69,-237.17C1344.76,-220.53 1342.62,-195.9 1350,-176 1356.37,-158.82 1371.57,-143.59 1382.08,-134.57"/>
<polygon fill="#63b8ff" stroke="#63b8ff" points="1344.31,-238.14 1349.73,-247.25 1351.17,-236.75 1344.31,-238.14"/>
</a>
</g>
</g>
<!-- Node16&#45;&gt;Node17 -->
<g id="edge18_Node000016_Node000017" class="edge">
<title>Node16&#45;&gt;Node17</title>
<g id="a_edge18_Node000016_Node000017"><a xlink:title=" ">
<path fill="none" stroke="#63b8ff" d="M1400.3,-245.23C1448.63,-234.45 1523.19,-217.83 1576.11,-206.02"/>
<polygon fill="#63b8ff" stroke="#63b8ff" points="1399.41,-241.84 1390.41,-247.44 1400.93,-248.67 1399.41,-241.84"/>
</a>
</g>
</g>
<!-- Node16&#45;&gt;Node18 -->
<g id="edge30_Node000016_Node000018" class="edge">
<title>Node16&#45;&gt;Node18</title>
<g id="a_edge30_Node000016_Node000018"><a xlink:title=" ">
<path fill="none" stroke="#63b8ff" d="M1469.46,-250.51C1543.81,-244.54 1641.18,-232.06 1724,-206 1785.06,-186.79 1814.1,-191.58 1852,-140 1866.62,-120.11 1866.78,-89.25 1865.83,-74.27"/>
<polygon fill="#63b8ff" stroke="#63b8ff" points="1468.83,-247.05 1459.13,-251.31 1469.37,-254.03 1468.83,-247.05"/>
</a>
</g>
</g>
<!-- Node24 -->
<g id="Node000024" class="node">
<title>Node24</title>
<g id="a_Node000024"><a xlink:href="_camera_component_u_i_8hpp.html" target="_top" xlink:title=" ">
<polygon fill="white" stroke="#666666" points="1507.5,-206 1358.5,-206 1358.5,-176 1507.5,-176 1507.5,-206"/>
<text text-anchor="start" x="1366.5" y="-194" font-family="Helvetica,sans-Serif" font-size="10.00">src/ui/Components/Camera</text>
<text text-anchor="middle" x="1433" y="-183" font-family="Helvetica,sans-Serif" font-size="10.00">ComponentUI.hpp</text>
</a>
</g>
</g>
<!-- Node16&#45;&gt;Node24 -->
<g id="edge32_Node000016_Node000024" class="edge">
<title>Node16&#45;&gt;Node24</title>
<g id="a_edge32_Node000016_Node000024"><a xlink:title=" ">
<path fill="none" stroke="#63b8ff" d="M1370.96,-241.02C1384.3,-230.48 1402.04,-216.46 1415.13,-206.12"/>
<polygon fill="#63b8ff" stroke="#63b8ff" points="1368.6,-238.42 1362.92,-247.37 1372.94,-243.92 1368.6,-238.42"/>
</a>
</g>
</g>
<!-- Node17&#45;&gt;Node12 -->
<g id="edge25_Node000017_Node000012" class="edge">
<title>Node17&#45;&gt;Node12</title>
<g id="a_edge25_Node000017_Node000012"><a xlink:title=" ">
<path fill="none" stroke="#63b8ff" d="M1570.81,-173.43C1532.56,-163.97 1484.02,-151.7 1441,-140 1434.72,-138.29 1428,-136.38 1421.63,-134.54"/>
<polygon fill="#63b8ff" stroke="#63b8ff" points="1570.26,-176.9 1580.81,-175.9 1571.94,-170.1 1570.26,-176.9"/>
</a>
</g>
</g>
<!-- Node17&#45;&gt;Node15 -->
<g id="edge27_Node000017_Node000015" class="edge">
<title>Node17&#45;&gt;Node15</title>
<g id="a_edge27_Node000017_Node000015"><a xlink:title=" ">
<path fill="none" stroke="#63b8ff" d="M1552.86,-175.68C1494.01,-165.83 1414.25,-152.34 1344,-140 1341.32,-139.53 1338.6,-139.05 1335.84,-138.56"/>
<polygon fill="#63b8ff" stroke="#63b8ff" points="1552.42,-179.15 1562.86,-177.35 1553.58,-172.25 1552.42,-179.15"/>
</a>
</g>
</g>
<!-- Node17&#45;&gt;Node18 -->
<g id="edge19_Node000017_Node000018" class="edge">
<title>Node17&#45;&gt;Node18</title>
<g id="a_edge19_Node000017_Node000018"><a xlink:title=" ">
<path fill="none" stroke="#63b8ff" d="M1725.24,-182.4C1759.88,-175.68 1798.31,-163.18 1827,-140 1848.57,-122.57 1859.11,-89.68 1863.07,-74.1"/>
<polygon fill="#63b8ff" stroke="#63b8ff" points="1724.33,-179.01 1715.11,-184.22 1725.57,-185.9 1724.33,-179.01"/>
</a>
</g>
</g>
<!-- Node19 -->
<g id="Node000019" class="node">
<title>Node19</title>
<g id="a_Node000019"><a xlink:href="_rendering_system_8hpp.html" target="_top" xlink:title=" ">
<polygon fill="white" stroke="#666666" points="1636,-134.5 1450,-134.5 1450,-115.5 1636,-115.5 1636,-134.5"/>
<text text-anchor="middle" x="1543" y="-122.5" font-family="Helvetica,sans-Serif" font-size="10.00">src/Systems/RenderingSystem.hpp</text>
</a>
</g>
</g>
<!-- Node17&#45;&gt;Node19 -->
<g id="edge20_Node000017_Node000019" class="edge">
<title>Node17&#45;&gt;Node19</title>
<g id="a_edge20_Node000017_Node000019"><a xlink:title=" ">
<path fill="none" stroke="#63b8ff" d="M1609.3,-170.2C1591.43,-158.29 1569.6,-143.73 1555.99,-134.66"/>
<polygon fill="#63b8ff" stroke="#63b8ff" points="1607.43,-173.16 1617.69,-175.8 1611.32,-167.34 1607.43,-173.16"/>
</a>
</g>
</g>
<!-- Node23 -->
<g id="Node000023" class="node">
<title>Node23</title>
<g id="a_Node000023"><a xlink:href="_directional_light_component_u_i_8hpp.html" target="_top" xlink:title=" ">
<polygon fill="white" stroke="#666666" points="1818,-140 1654,-140 1654,-110 1818,-110 1818,-140"/>
<text text-anchor="start" x="1662" y="-128" font-family="Helvetica,sans-Serif" font-size="10.00">src/ui/Components/Directional</text>
<text text-anchor="middle" x="1736" y="-117" font-family="Helvetica,sans-Serif" font-size="10.00">LightComponentUI.hpp</text>
</a>
</g>
</g>
<!-- Node17&#45;&gt;Node23 -->
<g id="edge26_Node000017_Node000023" class="edge">
<title>Node17&#45;&gt;Node23</title>
<g id="a_edge26_Node000017_Node000023"><a xlink:title=" ">
<path fill="none" stroke="#63b8ff" d="M1669.27,-170.03C1683.95,-160.34 1701.23,-148.94 1714.53,-140.16"/>
<polygon fill="#63b8ff" stroke="#63b8ff" points="1666.95,-167.37 1660.53,-175.8 1670.8,-173.21 1666.95,-167.37"/>
</a>
</g>
</g>
<!-- Node19&#45;&gt;Node18 -->
<g id="edge24_Node000019_Node000018" class="edge">
<title>Node19&#45;&gt;Node18</title>
<g id="a_edge24_Node000019_Node000018"><a xlink:title=" ">
<path fill="none" stroke="#63b8ff" d="M1599.84,-113.67C1661.94,-102.39 1760.27,-84.53 1818.12,-74.02"/>
<polygon fill="#63b8ff" stroke="#63b8ff" points="1599.03,-110.26 1589.82,-115.49 1600.29,-117.15 1599.03,-110.26"/>
</a>
</g>
</g>
<!-- Node20 -->
<g id="Node000020" class="node">
<title>Node20</title>
<g id="a_Node000020"><a xlink:href="_runtime_8hpp.html" target="_top" xlink:title=" ">
<polygon fill="white" stroke="#666666" points="1613,-74 1473,-74 1473,-55 1613,-55 1613,-74"/>
<text text-anchor="middle" x="1543" y="-62" font-family="Helvetica,sans-Serif" font-size="10.00">src/Runtime/Runtime.hpp</text>
</a>
</g>
</g>
<!-- Node19&#45;&gt;Node20 -->
<g id="edge21_Node000019_Node000020" class="edge">
<title>Node19&#45;&gt;Node20</title>
<g id="a_edge21_Node000019_Node000020"><a xlink:title=" ">
<path fill="none" stroke="#63b8ff" d="M1543,-105.16C1543,-94.74 1543,-82.3 1543,-74.17"/>
<polygon fill="#63b8ff" stroke="#63b8ff" points="1539.5,-105.37 1543,-115.37 1546.5,-105.37 1539.5,-105.37"/>
</a>
</g>
</g>
<!-- Node21 -->
<g id="Node000021" class="node">
<title>Node21</title>
<g id="a_Node000021"><a xlink:href="_runtime_8cpp.html" target="_top" xlink:title=" ">
<polygon fill="white" stroke="#666666" points="1526,-19 1386,-19 1386,0 1526,0 1526,-19"/>
<text text-anchor="middle" x="1456" y="-7" font-family="Helvetica,sans-Serif" font-size="10.00">src/Runtime/Runtime.cpp</text>
</a>
</g>
</g>
<!-- Node20&#45;&gt;Node21 -->
<g id="edge22_Node000020_Node000021" class="edge">
<title>Node20&#45;&gt;Node21</title>
<g id="a_edge22_Node000020_Node000021"><a xlink:title=" ">
<path fill="none" stroke="#63b8ff" d="M1520.34,-49.7C1504.49,-40.04 1483.81,-27.44 1470.23,-19.17"/>
<polygon fill="#63b8ff" stroke="#63b8ff" points="1518.66,-52.77 1529.02,-54.98 1522.3,-46.79 1518.66,-52.77"/>
</a>
</g>
</g>
<!-- Node22 -->
<g id="Node000022" class="node">
<title>Node22</title>
<g id="a_Node000022"><a xlink:href="_scene_widget_8hpp.html" target="_top" xlink:title="Contains the declaration of the SceneWidget class, a user interface widget for rendering scenes.">
<polygon fill="white" stroke="#666666" points="1716,-19 1544,-19 1544,0 1716,0 1716,-19"/>
<text text-anchor="middle" x="1630" y="-7" font-family="Helvetica,sans-Serif" font-size="10.00">src/ui/widgets/SceneWidget.hpp</text>
</a>
</g>
</g>
<!-- Node20&#45;&gt;Node22 -->
<g id="edge23_Node000020_Node000022" class="edge">
<title>Node20&#45;&gt;Node22</title>
<g id="a_edge23_Node000020_Node000022"><a xlink:title=" ">
<path fill="none" stroke="#63b8ff" d="M1565.66,-49.7C1581.51,-40.04 1602.19,-27.44 1615.77,-19.17"/>
<polygon fill="#63b8ff" stroke="#63b8ff" points="1563.7,-46.79 1556.98,-54.98 1567.34,-52.77 1563.7,-46.79"/>
</a>
</g>
</g>
</g>
</svg>
