<?xml version="1.0" encoding="UTF-8" standalone="no"?>
<!DOCTYPE svg PUBLIC "-//W3C//DTD SVG 1.1//EN"
 "http://www.w3.org/Graphics/SVG/1.1/DTD/svg11.dtd">
<!-- Generated by graphviz version 2.43.0 (0)
 -->
<!-- Title: src/AssetManager/Mesh.hpp Pages: 1 -->
<svg width="481pt" height="196pt"
 viewBox="0.00 0.00 481.38 196.00" xmlns="http://www.w3.org/2000/svg" xmlns:xlink="http://www.w3.org/1999/xlink">
<g id="graph0" class="graph" transform="scale(1 1) rotate(0) translate(4 192)">
<title>src/AssetManager/Mesh.hpp</title>
<polygon fill="white" stroke="transparent" points="-4,4 -4,-192 477.38,-192 477.38,4 -4,4"/>
<!-- Node1 -->
<g id="node1" class="node">
<title>Node1</title>
<g id="a_node1"><a xlink:title=" ">
<polygon fill="#bfbfbf" stroke="black" points="83.88,-168.5 83.88,-187.5 237.88,-187.5 237.88,-168.5 83.88,-168.5"/>
<text text-anchor="middle" x="160.88" y="-175.5" font-family="Helvetica,sans-Serif" font-size="10.00">src/AssetManager/Mesh.hpp</text>
</a>
</g>
</g>
<!-- Node2 -->
<g id="node2" class="node">
<title>Node2</title>
<g id="a_node2"><a xlink:title=" ">
<polygon fill="white" stroke="#bfbfbf" points="322.88,-0.5 322.88,-19.5 400.88,-19.5 400.88,-0.5 322.88,-0.5"/>
<text text-anchor="middle" x="361.88" y="-7.5" font-family="Helvetica,sans-Serif" font-size="10.00">glm/glm.hpp</text>
</a>
</g>
</g>
<!-- Node1&#45;&gt;Node2 -->
<g id="edge1" class="edge">
<title>Node1&#45;&gt;Node2</title>
<path fill="none" stroke="midnightblue" d="M83.78,-169.71C33.57,-161.75 -18.3,-145.35 6.88,-112 43.84,-63.06 224.01,-30.84 312.56,-17.7"/>
<polygon fill="midnightblue" stroke="midnightblue" points="313.24,-21.13 322.63,-16.22 312.23,-14.21 313.24,-21.13"/>
</g>
<!-- Node3 -->
<g id="node3" class="node">
<title>Node3</title>
<g id="a_node3"><a xlink:title=" ">
<polygon fill="white" stroke="#bfbfbf" points="16.38,-112.5 16.38,-131.5 87.38,-131.5 87.38,-112.5 16.38,-112.5"/>
<text text-anchor="middle" x="51.88" y="-119.5" font-family="Helvetica,sans-Serif" font-size="10.00">glad/glad.h</text>
</a>
</g>
</g>
<!-- Node1&#45;&gt;Node3 -->
<g id="edge2" class="edge">
<title>Node1&#45;&gt;Node3</title>
<path fill="none" stroke="midnightblue" d="M143.37,-168.32C125.81,-159.62 98.55,-146.12 78.35,-136.11"/>
<polygon fill="midnightblue" stroke="midnightblue" points="79.86,-132.96 69.35,-131.65 76.76,-139.23 79.86,-132.96"/>
</g>
<!-- Node4 -->
<g id="node4" class="node">
<title>Node4</title>
<g id="a_node4"><a xlink:title=" ">
<polygon fill="white" stroke="#bfbfbf" points="105.38,-112.5 105.38,-131.5 152.38,-131.5 152.38,-112.5 105.38,-112.5"/>
<text text-anchor="middle" x="128.88" y="-119.5" font-family="Helvetica,sans-Serif" font-size="10.00">vector</text>
</a>
</g>
</g>
<!-- Node1&#45;&gt;Node4 -->
<g id="edge3" class="edge">
<title>Node1&#45;&gt;Node4</title>
<path fill="none" stroke="midnightblue" d="M155.6,-168.08C151.17,-160.61 144.72,-149.72 139.26,-140.52"/>
<polygon fill="midnightblue" stroke="midnightblue" points="142.17,-138.57 134.07,-131.75 136.15,-142.14 142.17,-138.57"/>
</g>
<!-- Node5 -->
<g id="node5" class="node">
<title>Node5</title>
<g id="a_node5"><a xlink:title=" ">
<polygon fill="white" stroke="#bfbfbf" points="170.88,-112.5 170.88,-131.5 214.88,-131.5 214.88,-112.5 170.88,-112.5"/>
<text text-anchor="middle" x="192.88" y="-119.5" font-family="Helvetica,sans-Serif" font-size="10.00">string</text>
</a>
</g>
</g>
<!-- Node1&#45;&gt;Node5 -->
<g id="edge4" class="edge">
<title>Node1&#45;&gt;Node5</title>
<path fill="none" stroke="midnightblue" d="M166.16,-168.08C170.59,-160.61 177.04,-149.72 182.5,-140.52"/>
<polygon fill="midnightblue" stroke="midnightblue" points="185.61,-142.14 187.69,-131.75 179.58,-138.57 185.61,-142.14"/>
</g>
<!-- Node6 -->
<g id="node6" class="node">
<title>Node6</title>
<g id="a_node6"><a xlink:href="_asset_8hpp.html" target="_top" xlink:title=" ">
<polygon fill="white" stroke="black" points="233.38,-112.5 233.38,-131.5 370.38,-131.5 370.38,-112.5 233.38,-112.5"/>
<text text-anchor="middle" x="301.88" y="-119.5" font-family="Helvetica,sans-Serif" font-size="10.00">AssetManager/Asset.hpp</text>
</a>
</g>
</g>
<!-- Node1&#45;&gt;Node6 -->
<g id="edge5" class="edge">
<title>Node1&#45;&gt;Node6</title>
<path fill="none" stroke="midnightblue" d="M183.22,-168.44C206.63,-159.48 243.61,-145.31 270.07,-135.18"/>
<polygon fill="midnightblue" stroke="midnightblue" points="271.56,-138.36 279.64,-131.52 269.05,-131.82 271.56,-138.36"/>
</g>
<!-- Node8 -->
<g id="node8" class="node">
<title>Node8</title>
<g id="a_node8"><a xlink:href="_box_8hpp.html" target="_top" xlink:title=" ">
<polygon fill="white" stroke="black" points="388.88,-112.5 388.88,-131.5 472.88,-131.5 472.88,-112.5 388.88,-112.5"/>
<text text-anchor="middle" x="430.88" y="-119.5" font-family="Helvetica,sans-Serif" font-size="10.00">Math/Box.hpp</text>
</a>
</g>
</g>
<!-- Node1&#45;&gt;Node8 -->
<g id="edge7" class="edge">
<title>Node1&#45;&gt;Node8</title>
<path fill="none" stroke="midnightblue" d="M203.66,-168.44C251.2,-158.94 327.96,-143.58 378.91,-133.39"/>
<polygon fill="midnightblue" stroke="midnightblue" points="379.62,-136.82 388.74,-131.43 378.25,-129.96 379.62,-136.82"/>
</g>
<!-- Node7 -->
<g id="node7" class="node">
<title>Node7</title>
<g id="a_node7"><a xlink:title=" ">
<polygon fill="white" stroke="#bfbfbf" points="265.88,-56.5 265.88,-75.5 333.88,-75.5 333.88,-56.5 265.88,-56.5"/>
<text text-anchor="middle" x="299.88" y="-63.5" font-family="Helvetica,sans-Serif" font-size="10.00">filesystem</text>
</a>
</g>
</g>
<!-- Node6&#45;&gt;Node7 -->
<g id="edge6" class="edge">
<title>Node6&#45;&gt;Node7</title>
<path fill="none" stroke="midnightblue" d="M301.55,-112.08C301.29,-105.01 300.91,-94.86 300.58,-85.99"/>
<polygon fill="midnightblue" stroke="midnightblue" points="304.07,-85.61 300.2,-75.75 297.08,-85.87 304.07,-85.61"/>
</g>
<!-- Node8&#45;&gt;Node2 -->
<g id="edge8" class="edge">
<title>Node8&#45;&gt;Node2</title>
<path fill="none" stroke="midnightblue" d="M418.26,-112.42C407.18,-104.27 391.38,-91.04 381.88,-76 372.92,-61.81 367.74,-43.33 364.91,-29.7"/>
<polygon fill="midnightblue" stroke="midnightblue" points="368.3,-28.8 363.05,-19.6 361.42,-30.07 368.3,-28.8"/>
</g>
<!-- Node9 -->
<g id="node9" class="node">
<title>Node9</title>
<g id="a_node9"><a xlink:href="_ray_8hpp.html" target="_top" xlink:title=" ">
<polygon fill="white" stroke="black" points="390.38,-56.5 390.38,-75.5 473.38,-75.5 473.38,-56.5 390.38,-56.5"/>
<text text-anchor="middle" x="431.88" y="-63.5" font-family="Helvetica,sans-Serif" font-size="10.00">Math/Ray.hpp</text>
</a>
</g>
</g>
<!-- Node8&#45;&gt;Node9 -->
<g id="edge9" class="edge">
<title>Node8&#45;&gt;Node9</title>
<path fill="none" stroke="midnightblue" d="M431.04,-112.08C431.18,-105.01 431.36,-94.86 431.53,-85.99"/>
<polygon fill="midnightblue" stroke="midnightblue" points="435.03,-85.81 431.72,-75.75 428.03,-85.68 435.03,-85.81"/>
</g>
<!-- Node9&#45;&gt;Node2 -->
<g id="edge10" class="edge">
<title>Node9&#45;&gt;Node2</title>
<path fill="none" stroke="midnightblue" d="M420.63,-56.32C410.08,-48.18 394.08,-35.84 381.44,-26.09"/>
<polygon fill="midnightblue" stroke="midnightblue" points="383.39,-23.17 373.33,-19.83 379.11,-28.71 383.39,-23.17"/>
</g>
</g>
</svg>
