<?xml version="1.0" encoding="UTF-8" standalone="no"?>
<!DOCTYPE svg PUBLIC "-//W3C//DTD SVG 1.1//EN"
 "http://www.w3.org/Graphics/SVG/1.1/DTD/svg11.dtd">
<!-- Generated by graphviz version 2.43.0 (0)
 -->
<!-- Title: src/AssetManager/Mesh.hpp Pages: 1 -->
<svg width="527pt" height="203pt"
 viewBox="0.00 0.00 527.46 203.00" xmlns="http://www.w3.org/2000/svg" xmlns:xlink="http://www.w3.org/1999/xlink">
<g id="graph0" class="graph" transform="scale(1 1) rotate(0) translate(4 199)">
<title>src/AssetManager/Mesh.hpp</title>
<!-- Node1 -->
<g id="Node000001" class="node">
<title>Node1</title>
<g id="a_Node000001"><a xlink:title=" ">
<polygon fill="#999999" stroke="#666666" points="238.46,-195 84.46,-195 84.46,-176 238.46,-176 238.46,-195"/>
<text text-anchor="middle" x="161.46" y="-183" font-family="Helvetica,sans-Serif" font-size="10.00">src/AssetManager/Mesh.hpp</text>
</a>
</g>
</g>
<!-- Node2 -->
<g id="Node000002" class="node">
<title>Node2</title>
<g id="a_Node000002"><a xlink:title=" ">
<polygon fill="#e0e0e0" stroke="#999999" points="442.46,-19 364.46,-19 364.46,0 442.46,0 442.46,-19"/>
<text text-anchor="middle" x="403.46" y="-7" font-family="Helvetica,sans-Serif" font-size="10.00">glm/glm.hpp</text>
</a>
</g>
</g>
<!-- Node1&#45;&gt;Node2 -->
<g id="edge1_Node000001_Node000002" class="edge">
<title>Node1&#45;&gt;Node2</title>
<g id="a_edge1_Node000001_Node000002"><a xlink:title=" ">
<path fill="none" stroke="#63b8ff" d="M96.02,-175.96C42.18,-166.15 -20.99,-146.48 7.46,-110 49.99,-55.46 257.78,-26.25 354.17,-15.45"/>
<polygon fill="#63b8ff" stroke="#63b8ff" points="354.69,-18.91 364.25,-14.34 353.93,-11.95 354.69,-18.91"/>
</a>
</g>
</g>
<!-- Node3 -->
<g id="Node000003" class="node">
<title>Node3</title>
<g id="a_Node000003"><a xlink:title=" ">
<polygon fill="#e0e0e0" stroke="#999999" points="87.96,-134.5 16.96,-134.5 16.96,-115.5 87.96,-115.5 87.96,-134.5"/>
<text text-anchor="middle" x="52.46" y="-122.5" font-family="Helvetica,sans-Serif" font-size="10.00">glad/glad.h</text>
</a>
</g>
</g>
<!-- Node1&#45;&gt;Node3 -->
<g id="edge2_Node000001_Node000003" class="edge">
<title>Node1&#45;&gt;Node3</title>
<g id="a_edge2_Node000001_Node000003"><a xlink:title=" ">
<path fill="none" stroke="#63b8ff" d="M145.38,-175.87C127.51,-166.28 98.42,-150.67 77.55,-139.47"/>
<polygon fill="#63b8ff" stroke="#63b8ff" points="79.08,-136.31 68.61,-134.67 75.77,-142.48 79.08,-136.31"/>
</a>
</g>
</g>
<!-- Node4 -->
<g id="Node000004" class="node">
<title>Node4</title>
<g id="a_Node000004"><a xlink:title=" ">
<polygon fill="#e0e0e0" stroke="#999999" points="152.96,-134.5 105.96,-134.5 105.96,-115.5 152.96,-115.5 152.96,-134.5"/>
<text text-anchor="middle" x="129.46" y="-122.5" font-family="Helvetica,sans-Serif" font-size="10.00">vector</text>
</a>
</g>
</g>
<!-- Node1&#45;&gt;Node4 -->
<g id="edge3_Node000001_Node000004" class="edge">
<title>Node1&#45;&gt;Node4</title>
<g id="a_edge3_Node000001_Node000004"><a xlink:title=" ">
<path fill="none" stroke="#63b8ff" d="M156.74,-175.87C152.11,-167.4 144.91,-154.24 139.07,-143.57"/>
<polygon fill="#63b8ff" stroke="#63b8ff" points="142.07,-141.76 134.2,-134.67 135.93,-145.12 142.07,-141.76"/>
</a>
</g>
</g>
<!-- Node5 -->
<g id="Node000005" class="node">
<title>Node5</title>
<g id="a_Node000005"><a xlink:title=" ">
<polygon fill="#e0e0e0" stroke="#999999" points="215.46,-134.5 171.46,-134.5 171.46,-115.5 215.46,-115.5 215.46,-134.5"/>
<text text-anchor="middle" x="193.46" y="-122.5" font-family="Helvetica,sans-Serif" font-size="10.00">string</text>
</a>
</g>
</g>
<!-- Node1&#45;&gt;Node5 -->
<g id="edge4_Node000001_Node000005" class="edge">
<title>Node1&#45;&gt;Node5</title>
<g id="a_edge4_Node000001_Node000005"><a xlink:title=" ">
<path fill="none" stroke="#63b8ff" d="M166.18,-175.87C170.81,-167.4 178.01,-154.24 183.85,-143.57"/>
<polygon fill="#63b8ff" stroke="#63b8ff" points="186.99,-145.12 188.72,-134.67 180.85,-141.76 186.99,-145.12"/>
</a>
</g>
</g>
<!-- Node6 -->
<g id="Node000006" class="node">
<title>Node6</title>
<g id="a_Node000006"><a xlink:href="_path_constructible_asset_8hpp.html" target="_top" xlink:title=" ">
<polygon fill="white" stroke="#666666" points="408.96,-140 233.96,-140 233.96,-110 408.96,-110 408.96,-140"/>
<text text-anchor="start" x="241.96" y="-128" font-family="Helvetica,sans-Serif" font-size="10.00">AssetManager/PathConstructible</text>
<text text-anchor="middle" x="321.46" y="-117" font-family="Helvetica,sans-Serif" font-size="10.00">Asset.hpp</text>
</a>
</g>
</g>
<!-- Node1&#45;&gt;Node6 -->
<g id="edge5_Node000001_Node000006" class="edge">
<title>Node1&#45;&gt;Node6</title>
<g id="a_edge5_Node000001_Node000006"><a xlink:title=" ">
<path fill="none" stroke="#63b8ff" d="M184.73,-175.99C207.85,-167.54 244.01,-154.32 273.34,-143.59"/>
<polygon fill="#63b8ff" stroke="#63b8ff" points="274.8,-146.79 282.99,-140.06 272.4,-140.21 274.8,-146.79"/>
</a>
</g>
</g>
<!-- Node8 -->
<g id="Node000008" class="node">
<title>Node8</title>
<g id="a_Node000008"><a xlink:href="_a_a_b_b_8hpp.html" target="_top" xlink:title=" ">
<polygon fill="white" stroke="#666666" points="519.46,-134.5 427.46,-134.5 427.46,-115.5 519.46,-115.5 519.46,-134.5"/>
<text text-anchor="middle" x="473.46" y="-122.5" font-family="Helvetica,sans-Serif" font-size="10.00">Math/AABB.hpp</text>
</a>
</g>
</g>
<!-- Node1&#45;&gt;Node8 -->
<g id="edge7_Node000001_Node000008" class="edge">
<title>Node1&#45;&gt;Node8</title>
<g id="a_edge7_Node000001_Node000008"><a xlink:title=" ">
<path fill="none" stroke="#63b8ff" d="M218.11,-175.99C270.34,-167.83 349.93,-154.63 418.46,-140 422.81,-139.07 427.33,-138.04 431.83,-136.96"/>
<polygon fill="#63b8ff" stroke="#63b8ff" points="432.69,-140.35 441.57,-134.57 431.02,-133.55 432.69,-140.35"/>
</a>
</g>
</g>
<!-- Node7 -->
<g id="Node000007" class="node">
<title>Node7</title>
<g id="a_Node000007"><a xlink:title=" ">
<polygon fill="#e0e0e0" stroke="#999999" points="355.46,-74 287.46,-74 287.46,-55 355.46,-55 355.46,-74"/>
<text text-anchor="middle" x="321.46" y="-62" font-family="Helvetica,sans-Serif" font-size="10.00">filesystem</text>
</a>
</g>
</g>
<!-- Node6&#45;&gt;Node7 -->
<g id="edge6_Node000006_Node000007" class="edge">
<title>Node6&#45;&gt;Node7</title>
<g id="a_edge6_Node000006_Node000007"><a xlink:title=" ">
<path fill="none" stroke="#63b8ff" d="M321.46,-109.84C321.46,-102.21 321.46,-92.7 321.46,-84.45"/>
<polygon fill="#63b8ff" stroke="#63b8ff" points="324.96,-84.27 321.46,-74.27 317.96,-84.27 324.96,-84.27"/>
</a>
</g>
</g>
<!-- Node8&#45;&gt;Node2 -->
<g id="edge8_Node000008_Node000002" class="edge">
<title>Node8&#45;&gt;Node2</title>
<g id="a_edge8_Node000008_Node000002"><a xlink:title=" ">
<path fill="none" stroke="#63b8ff" d="M461.94,-115.26C450.63,-106.13 433.65,-90.79 423.46,-74 415.03,-60.1 409.83,-42.31 406.85,-29.1"/>
<polygon fill="#63b8ff" stroke="#63b8ff" points="410.27,-28.37 404.85,-19.26 403.41,-29.76 410.27,-28.37"/>
</a>
</g>
</g>
<!-- Node9 -->
<g id="Node000009" class="node">
<title>Node9</title>
<g id="a_Node000009"><a xlink:href="_ray_8hpp.html" target="_top" xlink:title=" ">
<polygon fill="white" stroke="#666666" points="514.96,-74 431.96,-74 431.96,-55 514.96,-55 514.96,-74"/>
<text text-anchor="middle" x="473.46" y="-62" font-family="Helvetica,sans-Serif" font-size="10.00">Math/Ray.hpp</text>
</a>
</g>
</g>
<!-- Node8&#45;&gt;Node9 -->
<g id="edge9_Node000008_Node000009" class="edge">
<title>Node8&#45;&gt;Node9</title>
<g id="a_edge9_Node000008_Node000009"><a xlink:title=" ">
<path fill="none" stroke="#63b8ff" d="M473.46,-115.37C473.46,-107.25 473.46,-94.81 473.46,-84.39"/>
<polygon fill="#63b8ff" stroke="#63b8ff" points="476.96,-84.17 473.46,-74.17 469.96,-84.17 476.96,-84.17"/>
</a>
</g>
</g>
<!-- Node9&#45;&gt;Node2 -->
<g id="edge10_Node000009_Node000002" class="edge">
<title>Node9&#45;&gt;Node2</title>
<g id="a_edge10_Node000009_Node000002"><a xlink:title=" ">
<path fill="none" stroke="#63b8ff" d="M462.21,-54.98C451.66,-47 435.66,-34.88 423.02,-25.31"/>
<polygon fill="#63b8ff" stroke="#63b8ff" points="425,-22.42 414.91,-19.17 420.77,-28 425,-22.42"/>
</a>
</g>
</g>
</g>
</svg>
