<?xml version="1.0" encoding="UTF-8" standalone="no"?>
<!DOCTYPE svg PUBLIC "-//W3C//DTD SVG 1.1//EN"
 "http://www.w3.org/Graphics/SVG/1.1/DTD/svg11.dtd">
<!-- Generated by graphviz version 2.43.0 (0)
 -->
<!-- Title: src/Systems/ModelRendererSystem.hpp Pages: 1 -->
<svg width="407pt" height="162pt"
 viewBox="0.00 0.00 406.50 162.00" xmlns="http://www.w3.org/2000/svg" xmlns:xlink="http://www.w3.org/1999/xlink">
<g id="graph0" class="graph" transform="scale(1 1) rotate(0) translate(4 158)">
<title>src/Systems/ModelRendererSystem.hpp</title>
<polygon fill="white" stroke="transparent" points="-4,4 -4,-158 402.5,-158 402.5,4 -4,4"/>
<!-- Node1 -->
<g id="node1" class="node">
<title>Node1</title>
<g id="a_node1"><a xlink:title=" ">
<polygon fill="#bfbfbf" stroke="black" points="162.5,-123.5 162.5,-153.5 315.5,-153.5 315.5,-123.5 162.5,-123.5"/>
<text text-anchor="start" x="170.5" y="-141.5" font-family="Helvetica,sans-Serif" font-size="10.00">src/Systems/ModelRenderer</text>
<text text-anchor="middle" x="239" y="-130.5" font-family="Helvetica,sans-Serif" font-size="10.00">System.hpp</text>
</a>
</g>
</g>
<!-- Node2 -->
<g id="node2" class="node">
<title>Node2</title>
<g id="a_node2"><a xlink:href="_runtime_8hpp.html" target="_top" xlink:title=" ">
<polygon fill="white" stroke="black" points="87,-62 87,-81 227,-81 227,-62 87,-62"/>
<text text-anchor="middle" x="157" y="-69" font-family="Helvetica,sans-Serif" font-size="10.00">src/Runtime/Runtime.hpp</text>
</a>
</g>
</g>
<!-- Node1&#45;&gt;Node2 -->
<g id="edge1" class="edge">
<title>Node1&#45;&gt;Node2</title>
<path fill="none" stroke="midnightblue" d="M213.15,-117.01C197.93,-104.94 179.46,-90.3 167.97,-81.19"/>
<polygon fill="midnightblue" stroke="midnightblue" points="211.2,-119.93 221.21,-123.4 215.54,-114.44 211.2,-119.93"/>
</g>
<!-- Node5 -->
<g id="node5" class="node">
<title>Node5</title>
<g id="a_node5"><a xlink:href="_model_renderer_system_8cpp.html" target="_top" xlink:title=" ">
<polygon fill="white" stroke="black" points="245.5,-56.5 245.5,-86.5 398.5,-86.5 398.5,-56.5 245.5,-56.5"/>
<text text-anchor="start" x="253.5" y="-74.5" font-family="Helvetica,sans-Serif" font-size="10.00">src/Systems/ModelRenderer</text>
<text text-anchor="middle" x="322" y="-63.5" font-family="Helvetica,sans-Serif" font-size="10.00">System.cpp</text>
</a>
</g>
</g>
<!-- Node1&#45;&gt;Node5 -->
<g id="edge4" class="edge">
<title>Node1&#45;&gt;Node5</title>
<path fill="none" stroke="midnightblue" d="M264.96,-117.17C277.65,-107.23 292.61,-95.51 304.03,-86.58"/>
<polygon fill="midnightblue" stroke="midnightblue" points="262.72,-114.47 257.01,-123.4 267.04,-119.99 262.72,-114.47"/>
</g>
<!-- Node3 -->
<g id="node3" class="node">
<title>Node3</title>
<g id="a_node3"><a xlink:href="_runtime_8cpp.html" target="_top" xlink:title=" ">
<polygon fill="white" stroke="black" points="0,-0.5 0,-19.5 140,-19.5 140,-0.5 0,-0.5"/>
<text text-anchor="middle" x="70" y="-7.5" font-family="Helvetica,sans-Serif" font-size="10.00">src/Runtime/Runtime.cpp</text>
</a>
</g>
</g>
<!-- Node2&#45;&gt;Node3 -->
<g id="edge2" class="edge">
<title>Node2&#45;&gt;Node3</title>
<path fill="none" stroke="midnightblue" d="M135.96,-56.11C119.23,-44.67 96.39,-29.05 82.44,-19.51"/>
<polygon fill="midnightblue" stroke="midnightblue" points="134.3,-59.22 144.54,-61.98 138.26,-53.44 134.3,-59.22"/>
</g>
<!-- Node4 -->
<g id="node4" class="node">
<title>Node4</title>
<g id="a_node4"><a xlink:href="_scene_widget_8hpp.html" target="_top" xlink:title="Contains the declaration of the SceneWidget class, a user interface widget for rendering scenes.">
<polygon fill="white" stroke="black" points="158,-0.5 158,-19.5 330,-19.5 330,-0.5 158,-0.5"/>
<text text-anchor="middle" x="244" y="-7.5" font-family="Helvetica,sans-Serif" font-size="10.00">src/ui/widgets/SceneWidget.hpp</text>
</a>
</g>
</g>
<!-- Node2&#45;&gt;Node4 -->
<g id="edge3" class="edge">
<title>Node2&#45;&gt;Node4</title>
<path fill="none" stroke="midnightblue" d="M178.04,-56.11C194.77,-44.67 217.61,-29.05 231.56,-19.51"/>
<polygon fill="midnightblue" stroke="midnightblue" points="175.74,-53.44 169.46,-61.98 179.7,-59.22 175.74,-53.44"/>
</g>
</g>
</svg>
