<?xml version="1.0" encoding="UTF-8" standalone="no"?>
<!DOCTYPE svg PUBLIC "-//W3C//DTD SVG 1.1//EN"
 "http://www.w3.org/Graphics/SVG/1.1/DTD/svg11.dtd">
<!-- Generated by graphviz version 2.43.0 (0)
 -->
<!-- Title: src/ui/Components/ModelComponentUI.hpp Pages: 1 -->
<svg width="1213pt" height="319pt"
 viewBox="0.00 0.00 1212.85 319.00" xmlns="http://www.w3.org/2000/svg" xmlns:xlink="http://www.w3.org/1999/xlink">
<g id="graph0" class="graph" transform="scale(1 1) rotate(0) translate(4 315)">
<title>src/ui/Components/ModelComponentUI.hpp</title>
<polygon fill="white" stroke="transparent" points="-4,4 -4,-315 1208.85,-315 1208.85,4 -4,4"/>
<!-- Node1 -->
<g id="node1" class="node">
<title>Node1</title>
<g id="a_node1"><a xlink:title=" ">
<polygon fill="#bfbfbf" stroke="black" points="346.35,-280.5 346.35,-310.5 543.35,-310.5 543.35,-280.5 346.35,-280.5"/>
<text text-anchor="start" x="354.35" y="-298.5" font-family="Helvetica,sans-Serif" font-size="10.00">src/ui/Components/ModelComponent</text>
<text text-anchor="middle" x="444.85" y="-287.5" font-family="Helvetica,sans-Serif" font-size="10.00">UI.hpp</text>
</a>
</g>
</g>
<!-- Node2 -->
<g id="node2" class="node">
<title>Node2</title>
<g id="a_node2"><a xlink:href="_registry_8hpp.html" target="_top" xlink:title=" ">
<polygon fill="white" stroke="black" points="192.85,-224.5 192.85,-243.5 290.85,-243.5 290.85,-224.5 192.85,-224.5"/>
<text text-anchor="middle" x="241.85" y="-231.5" font-family="Helvetica,sans-Serif" font-size="10.00">ECS/Registry.hpp</text>
</a>
</g>
</g>
<!-- Node1&#45;&gt;Node2 -->
<g id="edge1" class="edge">
<title>Node1&#45;&gt;Node2</title>
<path fill="none" stroke="midnightblue" d="M396.99,-280.47C361.51,-270.08 313.76,-256.08 280.64,-246.37"/>
<polygon fill="midnightblue" stroke="midnightblue" points="281.45,-242.96 270.87,-243.51 279.48,-249.68 281.45,-242.96"/>
</g>
<!-- Node12 -->
<g id="node12" class="node">
<title>Node12</title>
<g id="a_node12"><a xlink:title=" ">
<polygon fill="white" stroke="#bfbfbf" points="308.85,-224.5 308.85,-243.5 426.85,-243.5 426.85,-224.5 308.85,-224.5"/>
<text text-anchor="middle" x="367.85" y="-231.5" font-family="Helvetica,sans-Serif" font-size="10.00">UI/ComponentUI.hpp</text>
</a>
</g>
</g>
<!-- Node1&#45;&gt;Node12 -->
<g id="edge16" class="edge">
<title>Node1&#45;&gt;Node12</title>
<path fill="none" stroke="midnightblue" d="M426.6,-280.4C414.72,-271.22 399.24,-259.26 387.15,-249.92"/>
<polygon fill="midnightblue" stroke="midnightblue" points="389.1,-247 379.05,-243.66 384.82,-252.54 389.1,-247"/>
</g>
<!-- Node13 -->
<g id="node13" class="node">
<title>Node13</title>
<g id="a_node13"><a xlink:title=" ">
<polygon fill="white" stroke="#bfbfbf" points="445.35,-224.5 445.35,-243.5 600.35,-243.5 600.35,-224.5 445.35,-224.5"/>
<text text-anchor="middle" x="522.85" y="-231.5" font-family="Helvetica,sans-Serif" font-size="10.00">UI/Common/FileSelector.hpp</text>
</a>
</g>
</g>
<!-- Node1&#45;&gt;Node13 -->
<g id="edge17" class="edge">
<title>Node1&#45;&gt;Node13</title>
<path fill="none" stroke="midnightblue" d="M463.33,-280.4C475.37,-271.22 491.05,-259.26 503.29,-249.92"/>
<polygon fill="midnightblue" stroke="midnightblue" points="505.67,-252.51 511.5,-243.66 501.42,-246.94 505.67,-252.51"/>
</g>
<!-- Node14 -->
<g id="node14" class="node">
<title>Node14</title>
<g id="a_node14"><a xlink:href="_model_component_8hpp.html" target="_top" xlink:title=" ">
<polygon fill="white" stroke="black" points="618.85,-224.5 618.85,-243.5 806.85,-243.5 806.85,-224.5 618.85,-224.5"/>
<text text-anchor="middle" x="712.85" y="-231.5" font-family="Helvetica,sans-Serif" font-size="10.00">Components/ModelComponent.hpp</text>
</a>
</g>
</g>
<!-- Node1&#45;&gt;Node14 -->
<g id="edge18" class="edge">
<title>Node1&#45;&gt;Node14</title>
<path fill="none" stroke="midnightblue" d="M508.02,-280.47C555.97,-269.83 620.9,-255.41 664.7,-245.69"/>
<polygon fill="midnightblue" stroke="midnightblue" points="665.53,-249.09 674.53,-243.51 664.01,-242.26 665.53,-249.09"/>
</g>
<!-- Node3 -->
<g id="node3" class="node">
<title>Node3</title>
<g id="a_node3"><a xlink:title=" ">
<polygon fill="white" stroke="#bfbfbf" points="20.85,-112.5 20.85,-131.5 106.85,-131.5 106.85,-112.5 20.85,-112.5"/>
<text text-anchor="middle" x="63.85" y="-119.5" font-family="Helvetica,sans-Serif" font-size="10.00">unordered_set</text>
</a>
</g>
</g>
<!-- Node2&#45;&gt;Node3 -->
<g id="edge2" class="edge">
<title>Node2&#45;&gt;Node3</title>
<path fill="none" stroke="midnightblue" d="M226.91,-224.35C211.52,-215.39 186.88,-200.92 165.85,-188 137.92,-170.84 106.13,-150.44 85.57,-137.13"/>
<polygon fill="midnightblue" stroke="midnightblue" points="87.26,-134.06 76.96,-131.55 83.45,-139.93 87.26,-134.06"/>
</g>
<!-- Node4 -->
<g id="node4" class="node">
<title>Node4</title>
<g id="a_node4"><a xlink:href="_entity_8hpp.html" target="_top" xlink:title=" ">
<polygon fill="white" stroke="black" points="217.85,-56.5 217.85,-75.5 303.85,-75.5 303.85,-56.5 217.85,-56.5"/>
<text text-anchor="middle" x="260.85" y="-63.5" font-family="Helvetica,sans-Serif" font-size="10.00">ECS/Entity.hpp</text>
</a>
</g>
</g>
<!-- Node2&#45;&gt;Node4 -->
<g id="edge3" class="edge">
<title>Node2&#45;&gt;Node4</title>
<path fill="none" stroke="midnightblue" d="M192.58,-226.08C109.8,-212.48 -43.05,-177.7 11.85,-112 36.27,-82.76 141.93,-72.48 207.51,-68.9"/>
<polygon fill="midnightblue" stroke="midnightblue" points="207.87,-72.38 217.67,-68.38 207.51,-65.39 207.87,-72.38"/>
</g>
<!-- Node6 -->
<g id="node6" class="node">
<title>Node6</title>
<g id="a_node6"><a xlink:href="_entity_hierarchy_8hpp.html" target="_top" xlink:title=" ">
<polygon fill="white" stroke="black" points="174.85,-168.5 174.85,-187.5 308.85,-187.5 308.85,-168.5 174.85,-168.5"/>
<text text-anchor="middle" x="241.85" y="-175.5" font-family="Helvetica,sans-Serif" font-size="10.00">ECS/EntityHierarchy.hpp</text>
</a>
</g>
</g>
<!-- Node2&#45;&gt;Node6 -->
<g id="edge5" class="edge">
<title>Node2&#45;&gt;Node6</title>
<path fill="none" stroke="midnightblue" d="M241.85,-224.08C241.85,-217.01 241.85,-206.86 241.85,-197.99"/>
<polygon fill="midnightblue" stroke="midnightblue" points="245.35,-197.75 241.85,-187.75 238.35,-197.75 245.35,-197.75"/>
</g>
<!-- Node9 -->
<g id="node9" class="node">
<title>Node9</title>
<g id="a_node9"><a xlink:href="_entity_provider_8hpp.html" target="_top" xlink:title="Manages a pool of unused entity identifiers and provides mechanisms for requesting and removing them.">
<polygon fill="white" stroke="black" points="358.85,-112.5 358.85,-131.5 486.85,-131.5 486.85,-112.5 358.85,-112.5"/>
<text text-anchor="middle" x="422.85" y="-119.5" font-family="Helvetica,sans-Serif" font-size="10.00">ECS/EntityProvider.hpp</text>
</a>
</g>
</g>
<!-- Node2&#45;&gt;Node9 -->
<g id="edge10" class="edge">
<title>Node2&#45;&gt;Node9</title>
<path fill="none" stroke="midnightblue" d="M256.47,-224.46C271.81,-215.47 296.6,-200.87 317.85,-188 346.44,-170.69 379.16,-150.35 400.36,-137.1"/>
<polygon fill="midnightblue" stroke="midnightblue" points="402.35,-139.98 408.97,-131.71 398.64,-134.05 402.35,-139.98"/>
</g>
<!-- Node11 -->
<g id="node11" class="node">
<title>Node11</title>
<g id="a_node11"><a xlink:href="_sparse_set_8hpp.html" target="_top" xlink:title=" ">
<polygon fill="white" stroke="black" points="366.85,-168.5 366.85,-187.5 474.85,-187.5 474.85,-168.5 366.85,-168.5"/>
<text text-anchor="middle" x="420.85" y="-175.5" font-family="Helvetica,sans-Serif" font-size="10.00">ECS/SparseSet.hpp</text>
</a>
</g>
</g>
<!-- Node2&#45;&gt;Node11 -->
<g id="edge14" class="edge">
<title>Node2&#45;&gt;Node11</title>
<path fill="none" stroke="midnightblue" d="M270.21,-224.44C300.58,-215.28 348.96,-200.69 382.66,-190.52"/>
<polygon fill="midnightblue" stroke="midnightblue" points="384.05,-193.76 392.62,-187.52 382.03,-187.05 384.05,-193.76"/>
</g>
<!-- Node5 -->
<g id="node5" class="node">
<title>Node5</title>
<g id="a_node5"><a xlink:title=" ">
<polygon fill="white" stroke="#bfbfbf" points="296.35,-0.5 296.35,-19.5 349.35,-19.5 349.35,-0.5 296.35,-0.5"/>
<text text-anchor="middle" x="322.85" y="-7.5" font-family="Helvetica,sans-Serif" font-size="10.00">stdlib.h</text>
</a>
</g>
</g>
<!-- Node4&#45;&gt;Node5 -->
<g id="edge4" class="edge">
<title>Node4&#45;&gt;Node5</title>
<path fill="none" stroke="midnightblue" d="M270.81,-56.32C279.97,-48.34 293.78,-36.31 304.87,-26.65"/>
<polygon fill="midnightblue" stroke="midnightblue" points="307.46,-29.04 312.7,-19.83 302.86,-23.76 307.46,-29.04"/>
</g>
<!-- Node6&#45;&gt;Node3 -->
<g id="edge7" class="edge">
<title>Node6&#45;&gt;Node3</title>
<path fill="none" stroke="midnightblue" d="M213.64,-168.44C183.44,-159.28 135.33,-144.69 101.82,-134.52"/>
<polygon fill="midnightblue" stroke="midnightblue" points="102.5,-131.07 91.92,-131.52 100.47,-137.77 102.5,-131.07"/>
</g>
<!-- Node6&#45;&gt;Node4 -->
<g id="edge9" class="edge">
<title>Node6&#45;&gt;Node4</title>
<path fill="none" stroke="midnightblue" d="M243.34,-168.37C246.4,-150.62 253.48,-109.67 257.63,-85.6"/>
<polygon fill="midnightblue" stroke="midnightblue" points="261.11,-86.04 259.36,-75.59 254.21,-84.85 261.11,-86.04"/>
</g>
<!-- Node7 -->
<g id="node7" class="node">
<title>Node7</title>
<g id="a_node7"><a xlink:title=" ">
<polygon fill="white" stroke="#bfbfbf" points="275.35,-112.5 275.35,-131.5 340.35,-131.5 340.35,-112.5 275.35,-112.5"/>
<text text-anchor="middle" x="307.85" y="-119.5" font-family="Helvetica,sans-Serif" font-size="10.00">functional</text>
</a>
</g>
</g>
<!-- Node6&#45;&gt;Node7 -->
<g id="edge6" class="edge">
<title>Node6&#45;&gt;Node7</title>
<path fill="none" stroke="midnightblue" d="M252.45,-168.32C262.3,-160.26 277.2,-148.08 289.06,-138.37"/>
<polygon fill="midnightblue" stroke="midnightblue" points="291.53,-140.88 297.05,-131.83 287.09,-135.46 291.53,-140.88"/>
</g>
<!-- Node8 -->
<g id="node8" class="node">
<title>Node8</title>
<g id="a_node8"><a xlink:title=" ">
<polygon fill="white" stroke="#bfbfbf" points="125.35,-112.5 125.35,-131.5 218.35,-131.5 218.35,-112.5 125.35,-112.5"/>
<text text-anchor="middle" x="171.85" y="-119.5" font-family="Helvetica,sans-Serif" font-size="10.00">unordered_map</text>
</a>
</g>
</g>
<!-- Node6&#45;&gt;Node8 -->
<g id="edge8" class="edge">
<title>Node6&#45;&gt;Node8</title>
<path fill="none" stroke="midnightblue" d="M230.6,-168.32C220.05,-160.18 204.04,-147.84 191.4,-138.09"/>
<polygon fill="midnightblue" stroke="midnightblue" points="193.35,-135.17 183.3,-131.83 189.08,-140.71 193.35,-135.17"/>
</g>
<!-- Node9&#45;&gt;Node4 -->
<g id="edge13" class="edge">
<title>Node9&#45;&gt;Node4</title>
<path fill="none" stroke="midnightblue" d="M397.18,-112.44C369.92,-103.36 326.66,-88.94 296.2,-78.78"/>
<polygon fill="midnightblue" stroke="midnightblue" points="296.99,-75.36 286.39,-75.52 294.77,-82 296.99,-75.36"/>
</g>
<!-- Node9&#45;&gt;Node5 -->
<g id="edge11" class="edge">
<title>Node9&#45;&gt;Node5</title>
<path fill="none" stroke="midnightblue" d="M415,-112.37C398.28,-93.97 358.91,-50.67 337.44,-27.05"/>
<polygon fill="midnightblue" stroke="midnightblue" points="339.97,-24.64 330.66,-19.59 334.79,-29.35 339.97,-24.64"/>
</g>
<!-- Node10 -->
<g id="node10" class="node">
<title>Node10</title>
<g id="a_node10"><a xlink:title=" ">
<polygon fill="white" stroke="#bfbfbf" points="399.35,-56.5 399.35,-75.5 446.35,-75.5 446.35,-56.5 399.35,-56.5"/>
<text text-anchor="middle" x="422.85" y="-63.5" font-family="Helvetica,sans-Serif" font-size="10.00">queue</text>
</a>
</g>
</g>
<!-- Node9&#45;&gt;Node10 -->
<g id="edge12" class="edge">
<title>Node9&#45;&gt;Node10</title>
<path fill="none" stroke="midnightblue" d="M422.85,-112.08C422.85,-105.01 422.85,-94.86 422.85,-85.99"/>
<polygon fill="midnightblue" stroke="midnightblue" points="426.35,-85.75 422.85,-75.75 419.35,-85.75 426.35,-85.75"/>
</g>
<!-- Node11&#45;&gt;Node9 -->
<g id="edge15" class="edge">
<title>Node11&#45;&gt;Node9</title>
<path fill="none" stroke="midnightblue" d="M421.18,-168.08C421.44,-161.01 421.81,-150.86 422.14,-141.99"/>
<polygon fill="midnightblue" stroke="midnightblue" points="425.65,-141.87 422.52,-131.75 418.65,-141.61 425.65,-141.87"/>
</g>
<!-- Node15 -->
<g id="node15" class="node">
<title>Node15</title>
<g id="a_node15"><a xlink:title=" ">
<polygon fill="white" stroke="#bfbfbf" points="504.85,-112.5 504.85,-131.5 548.85,-131.5 548.85,-112.5 504.85,-112.5"/>
<text text-anchor="middle" x="526.85" y="-119.5" font-family="Helvetica,sans-Serif" font-size="10.00">string</text>
</a>
</g>
</g>
<!-- Node14&#45;&gt;Node15 -->
<g id="edge19" class="edge">
<title>Node14&#45;&gt;Node15</title>
<path fill="none" stroke="midnightblue" d="M636.69,-224.45C609,-218.11 579.08,-207.1 556.85,-188 542.87,-176 535.02,-156.1 530.89,-141.48"/>
<polygon fill="midnightblue" stroke="midnightblue" points="534.23,-140.4 528.41,-131.54 527.44,-142.09 534.23,-140.4"/>
</g>
<!-- Node16 -->
<g id="node16" class="node">
<title>Node16</title>
<g id="a_node16"><a xlink:title=" ">
<polygon fill="white" stroke="#bfbfbf" points="565.85,-168.5 565.85,-187.5 625.85,-187.5 625.85,-168.5 565.85,-168.5"/>
<text text-anchor="middle" x="595.85" y="-175.5" font-family="Helvetica,sans-Serif" font-size="10.00">iostream</text>
</a>
</g>
</g>
<!-- Node14&#45;&gt;Node16 -->
<g id="edge20" class="edge">
<title>Node14&#45;&gt;Node16</title>
<path fill="none" stroke="midnightblue" d="M694.31,-224.44C675.22,-215.64 645.27,-201.81 623.41,-191.72"/>
<polygon fill="midnightblue" stroke="midnightblue" points="624.84,-188.53 614.3,-187.52 621.91,-194.88 624.84,-188.53"/>
</g>
<!-- Node17 -->
<g id="node17" class="node">
<title>Node17</title>
<g id="a_node17"><a xlink:href="_mesh_8hpp.html" target="_top" xlink:title=" ">
<polygon fill="white" stroke="black" points="644.35,-168.5 644.35,-187.5 781.35,-187.5 781.35,-168.5 644.35,-168.5"/>
<text text-anchor="middle" x="712.85" y="-175.5" font-family="Helvetica,sans-Serif" font-size="10.00">AssetManager/Mesh.hpp</text>
</a>
</g>
</g>
<!-- Node14&#45;&gt;Node17 -->
<g id="edge21" class="edge">
<title>Node14&#45;&gt;Node17</title>
<path fill="none" stroke="midnightblue" d="M712.85,-224.08C712.85,-217.01 712.85,-206.86 712.85,-197.99"/>
<polygon fill="midnightblue" stroke="midnightblue" points="716.35,-197.75 712.85,-187.75 709.35,-197.75 716.35,-197.75"/>
</g>
<!-- Node25 -->
<g id="node25" class="node">
<title>Node25</title>
<g id="a_node25"><a xlink:href="_material_8hpp.html" target="_top" xlink:title=" ">
<polygon fill="white" stroke="black" points="853.35,-168.5 853.35,-187.5 1004.35,-187.5 1004.35,-168.5 853.35,-168.5"/>
<text text-anchor="middle" x="928.85" y="-175.5" font-family="Helvetica,sans-Serif" font-size="10.00">AssetManager/Material.hpp</text>
</a>
</g>
</g>
<!-- Node14&#45;&gt;Node25 -->
<g id="edge32" class="edge">
<title>Node14&#45;&gt;Node25</title>
<path fill="none" stroke="midnightblue" d="M747.07,-224.44C784.36,-215.12 844.11,-200.18 884.86,-190"/>
<polygon fill="midnightblue" stroke="midnightblue" points="885.93,-193.34 894.78,-187.52 884.23,-186.55 885.93,-193.34"/>
</g>
<!-- Node26 -->
<g id="node26" class="node">
<title>Node26</title>
<g id="a_node26"><a xlink:href="_base_component_8hpp.html" target="_top" xlink:title=" ">
<polygon fill="white" stroke="black" points="1022.85,-168.5 1022.85,-187.5 1204.85,-187.5 1204.85,-168.5 1022.85,-168.5"/>
<text text-anchor="middle" x="1113.85" y="-175.5" font-family="Helvetica,sans-Serif" font-size="10.00">Components/BaseComponent.hpp</text>
</a>
</g>
</g>
<!-- Node14&#45;&gt;Node26 -->
<g id="edge35" class="edge">
<title>Node14&#45;&gt;Node26</title>
<path fill="none" stroke="midnightblue" d="M776.39,-224.44C848.25,-214.77 965.07,-199.04 1040.68,-188.85"/>
<polygon fill="midnightblue" stroke="midnightblue" points="1041.16,-192.32 1050.6,-187.52 1040.23,-185.38 1041.16,-192.32"/>
</g>
<!-- Node17&#45;&gt;Node15 -->
<g id="edge25" class="edge">
<title>Node17&#45;&gt;Node15</title>
<path fill="none" stroke="midnightblue" d="M683.37,-168.44C649.34,-158.56 593.58,-142.37 558.61,-132.22"/>
<polygon fill="midnightblue" stroke="midnightblue" points="559.48,-128.83 548.9,-129.4 557.53,-135.55 559.48,-128.83"/>
</g>
<!-- Node18 -->
<g id="node18" class="node">
<title>Node18</title>
<g id="a_node18"><a xlink:title=" ">
<polygon fill="white" stroke="#bfbfbf" points="708.85,-0.5 708.85,-19.5 786.85,-19.5 786.85,-0.5 708.85,-0.5"/>
<text text-anchor="middle" x="747.85" y="-7.5" font-family="Helvetica,sans-Serif" font-size="10.00">glm/glm.hpp</text>
</a>
</g>
</g>
<!-- Node17&#45;&gt;Node18 -->
<g id="edge22" class="edge">
<title>Node17&#45;&gt;Node18</title>
<path fill="none" stroke="midnightblue" d="M697.11,-168.24C684.96,-160.48 669.03,-147.93 661.85,-132 655.97,-118.98 647.88,-80.36 662.85,-56 672.34,-40.54 689.09,-30.1 705.23,-23.2"/>
<polygon fill="midnightblue" stroke="midnightblue" points="706.56,-26.43 714.6,-19.53 704.01,-19.91 706.56,-26.43"/>
</g>
<!-- Node19 -->
<g id="node19" class="node">
<title>Node19</title>
<g id="a_node19"><a xlink:title=" ">
<polygon fill="white" stroke="#bfbfbf" points="773.35,-112.5 773.35,-131.5 844.35,-131.5 844.35,-112.5 773.35,-112.5"/>
<text text-anchor="middle" x="808.85" y="-119.5" font-family="Helvetica,sans-Serif" font-size="10.00">glad/glad.h</text>
</a>
</g>
</g>
<!-- Node17&#45;&gt;Node19 -->
<g id="edge23" class="edge">
<title>Node17&#45;&gt;Node19</title>
<path fill="none" stroke="midnightblue" d="M728.27,-168.32C743.39,-159.82 766.66,-146.73 784.32,-136.8"/>
<polygon fill="midnightblue" stroke="midnightblue" points="786.46,-139.61 793.46,-131.65 783.03,-133.51 786.46,-139.61"/>
</g>
<!-- Node20 -->
<g id="node20" class="node">
<title>Node20</title>
<g id="a_node20"><a xlink:title=" ">
<polygon fill="white" stroke="#bfbfbf" points="567.35,-112.5 567.35,-131.5 614.35,-131.5 614.35,-112.5 567.35,-112.5"/>
<text text-anchor="middle" x="590.85" y="-119.5" font-family="Helvetica,sans-Serif" font-size="10.00">vector</text>
</a>
</g>
</g>
<!-- Node17&#45;&gt;Node20 -->
<g id="edge24" class="edge">
<title>Node17&#45;&gt;Node20</title>
<path fill="none" stroke="midnightblue" d="M693.51,-168.44C673.53,-159.6 642.1,-145.69 619.28,-135.59"/>
<polygon fill="midnightblue" stroke="midnightblue" points="620.65,-132.36 610.09,-131.52 617.81,-138.76 620.65,-132.36"/>
</g>
<!-- Node21 -->
<g id="node21" class="node">
<title>Node21</title>
<g id="a_node21"><a xlink:href="_asset_8hpp.html" target="_top" xlink:title=" ">
<polygon fill="white" stroke="black" points="862.35,-112.5 862.35,-131.5 999.35,-131.5 999.35,-112.5 862.35,-112.5"/>
<text text-anchor="middle" x="930.85" y="-119.5" font-family="Helvetica,sans-Serif" font-size="10.00">AssetManager/Asset.hpp</text>
</a>
</g>
</g>
<!-- Node17&#45;&gt;Node21 -->
<g id="edge26" class="edge">
<title>Node17&#45;&gt;Node21</title>
<path fill="none" stroke="midnightblue" d="M747.39,-168.44C785.1,-159.1 845.59,-144.12 886.71,-133.93"/>
<polygon fill="midnightblue" stroke="midnightblue" points="887.6,-137.32 896.46,-131.52 885.92,-130.52 887.6,-137.32"/>
</g>
<!-- Node23 -->
<g id="node23" class="node">
<title>Node23</title>
<g id="a_node23"><a xlink:href="_box_8hpp.html" target="_top" xlink:title=" ">
<polygon fill="white" stroke="black" points="670.85,-112.5 670.85,-131.5 754.85,-131.5 754.85,-112.5 670.85,-112.5"/>
<text text-anchor="middle" x="712.85" y="-119.5" font-family="Helvetica,sans-Serif" font-size="10.00">Math/Box.hpp</text>
</a>
</g>
</g>
<!-- Node17&#45;&gt;Node23 -->
<g id="edge28" class="edge">
<title>Node17&#45;&gt;Node23</title>
<path fill="none" stroke="midnightblue" d="M712.85,-168.08C712.85,-161.01 712.85,-150.86 712.85,-141.99"/>
<polygon fill="midnightblue" stroke="midnightblue" points="716.35,-141.75 712.85,-131.75 709.35,-141.75 716.35,-141.75"/>
</g>
<!-- Node22 -->
<g id="node22" class="node">
<title>Node22</title>
<g id="a_node22"><a xlink:title=" ">
<polygon fill="white" stroke="#bfbfbf" points="896.85,-56.5 896.85,-75.5 964.85,-75.5 964.85,-56.5 896.85,-56.5"/>
<text text-anchor="middle" x="930.85" y="-63.5" font-family="Helvetica,sans-Serif" font-size="10.00">filesystem</text>
</a>
</g>
</g>
<!-- Node21&#45;&gt;Node22 -->
<g id="edge27" class="edge">
<title>Node21&#45;&gt;Node22</title>
<path fill="none" stroke="midnightblue" d="M930.85,-112.08C930.85,-105.01 930.85,-94.86 930.85,-85.99"/>
<polygon fill="midnightblue" stroke="midnightblue" points="934.35,-85.75 930.85,-75.75 927.35,-85.75 934.35,-85.75"/>
</g>
<!-- Node23&#45;&gt;Node18 -->
<g id="edge29" class="edge">
<title>Node23&#45;&gt;Node18</title>
<path fill="none" stroke="midnightblue" d="M728.58,-112.24C740.73,-104.48 756.66,-91.93 763.85,-76 770.7,-60.81 764.85,-42.23 758.38,-28.84"/>
<polygon fill="midnightblue" stroke="midnightblue" points="761.32,-26.91 753.51,-19.74 755.15,-30.21 761.32,-26.91"/>
</g>
<!-- Node24 -->
<g id="node24" class="node">
<title>Node24</title>
<g id="a_node24"><a xlink:href="_ray_8hpp.html" target="_top" xlink:title=" ">
<polygon fill="white" stroke="black" points="671.35,-56.5 671.35,-75.5 754.35,-75.5 754.35,-56.5 671.35,-56.5"/>
<text text-anchor="middle" x="712.85" y="-63.5" font-family="Helvetica,sans-Serif" font-size="10.00">Math/Ray.hpp</text>
</a>
</g>
</g>
<!-- Node23&#45;&gt;Node24 -->
<g id="edge30" class="edge">
<title>Node23&#45;&gt;Node24</title>
<path fill="none" stroke="midnightblue" d="M712.85,-112.08C712.85,-105.01 712.85,-94.86 712.85,-85.99"/>
<polygon fill="midnightblue" stroke="midnightblue" points="716.35,-85.75 712.85,-75.75 709.35,-85.75 716.35,-85.75"/>
</g>
<!-- Node24&#45;&gt;Node18 -->
<g id="edge31" class="edge">
<title>Node24&#45;&gt;Node18</title>
<path fill="none" stroke="midnightblue" d="M718.63,-56.08C723.52,-48.53 730.67,-37.49 736.68,-28.23"/>
<polygon fill="midnightblue" stroke="midnightblue" points="739.67,-30.05 742.17,-19.75 733.8,-26.24 739.67,-30.05"/>
</g>
<!-- Node25&#45;&gt;Node18 -->
<g id="edge33" class="edge">
<title>Node25&#45;&gt;Node18</title>
<path fill="none" stroke="midnightblue" d="M959.09,-168.49C976.97,-161.73 998.15,-150.29 1008.85,-132 1026.29,-102.18 980.06,-60.29 973.85,-56 945.74,-36.59 854.59,-23.05 796.99,-16.19"/>
<polygon fill="midnightblue" stroke="midnightblue" points="797.34,-12.71 787,-15.03 796.53,-19.66 797.34,-12.71"/>
</g>
<!-- Node25&#45;&gt;Node21 -->
<g id="edge34" class="edge">
<title>Node25&#45;&gt;Node21</title>
<path fill="none" stroke="midnightblue" d="M929.18,-168.08C929.44,-161.01 929.81,-150.86 930.14,-141.99"/>
<polygon fill="midnightblue" stroke="midnightblue" points="933.65,-141.87 930.52,-131.75 926.65,-141.61 933.65,-141.87"/>
</g>
<!-- Node27 -->
<g id="node27" class="node">
<title>Node27</title>
<g id="a_node27"><a xlink:href="_types_8hpp.html" target="_top" xlink:title=" ">
<polygon fill="white" stroke="black" points="1057.35,-112.5 1057.35,-131.5 1170.35,-131.5 1170.35,-112.5 1057.35,-112.5"/>
<text text-anchor="middle" x="1113.85" y="-119.5" font-family="Helvetica,sans-Serif" font-size="10.00">Common/Types.hpp</text>
</a>
</g>
</g>
<!-- Node26&#45;&gt;Node27 -->
<g id="edge36" class="edge">
<title>Node26&#45;&gt;Node27</title>
<path fill="none" stroke="midnightblue" d="M1113.85,-168.08C1113.85,-161.01 1113.85,-150.86 1113.85,-141.99"/>
<polygon fill="midnightblue" stroke="midnightblue" points="1117.35,-141.75 1113.85,-131.75 1110.35,-141.75 1117.35,-141.75"/>
</g>
</g>
</svg>
