<?xml version="1.0" encoding="UTF-8" standalone="no"?>
<!DOCTYPE svg PUBLIC "-//W3C//DTD SVG 1.1//EN"
 "http://www.w3.org/Graphics/SVG/1.1/DTD/svg11.dtd">
<!-- Generated by graphviz version 2.43.0 (0)
 -->
<!-- Title: src/ui/Components/ModelComponentUI.hpp Pages: 1 -->
<svg width="924pt" height="319pt"
 viewBox="0.00 0.00 924.00 319.00" xmlns="http://www.w3.org/2000/svg" xmlns:xlink="http://www.w3.org/1999/xlink">
<g id="graph0" class="graph" transform="scale(1 1) rotate(0) translate(4 315)">
<title>src/ui/Components/ModelComponentUI.hpp</title>
<polygon fill="white" stroke="transparent" points="-4,4 -4,-315 920,-315 920,4 -4,4"/>
<!-- Node1 -->
<g id="node1" class="node">
<title>Node1</title>
<g id="a_node1"><a xlink:title=" ">
<polygon fill="#bfbfbf" stroke="black" points="239.5,-280.5 239.5,-310.5 436.5,-310.5 436.5,-280.5 239.5,-280.5"/>
<text text-anchor="start" x="247.5" y="-298.5" font-family="Helvetica,sans-Serif" font-size="10.00">src/ui/Components/ModelComponent</text>
<text text-anchor="middle" x="338" y="-287.5" font-family="Helvetica,sans-Serif" font-size="10.00">UI.hpp</text>
</a>
</g>
</g>
<!-- Node2 -->
<g id="node2" class="node">
<title>Node2</title>
<g id="a_node2"><a xlink:href="_registry_8hpp.html" target="_top" xlink:title=" ">
<polygon fill="white" stroke="black" points="77,-224.5 77,-243.5 175,-243.5 175,-224.5 77,-224.5"/>
<text text-anchor="middle" x="126" y="-231.5" font-family="Helvetica,sans-Serif" font-size="10.00">ECS/Registry.hpp</text>
</a>
</g>
</g>
<!-- Node1&#45;&gt;Node2 -->
<g id="edge1" class="edge">
<title>Node1&#45;&gt;Node2</title>
<path fill="none" stroke="midnightblue" d="M288.03,-280.47C250.81,-270.03 200.67,-255.96 166.07,-246.25"/>
<polygon fill="midnightblue" stroke="midnightblue" points="166.88,-242.84 156.31,-243.51 164.99,-249.58 166.88,-242.84"/>
</g>
<!-- Node7 -->
<g id="node7" class="node">
<title>Node7</title>
<g id="a_node7"><a xlink:title=" ">
<polygon fill="white" stroke="#bfbfbf" points="202,-224.5 202,-243.5 320,-243.5 320,-224.5 202,-224.5"/>
<text text-anchor="middle" x="261" y="-231.5" font-family="Helvetica,sans-Serif" font-size="10.00">UI/ComponentUI.hpp</text>
</a>
</g>
</g>
<!-- Node1&#45;&gt;Node7 -->
<g id="edge7" class="edge">
<title>Node1&#45;&gt;Node7</title>
<path fill="none" stroke="midnightblue" d="M319.75,-280.4C307.87,-271.22 292.39,-259.26 280.31,-249.92"/>
<polygon fill="midnightblue" stroke="midnightblue" points="282.26,-247 272.2,-243.66 277.98,-252.54 282.26,-247"/>
</g>
<!-- Node8 -->
<g id="node8" class="node">
<title>Node8</title>
<g id="a_node8"><a xlink:title=" ">
<polygon fill="white" stroke="#bfbfbf" points="338.5,-224.5 338.5,-243.5 493.5,-243.5 493.5,-224.5 338.5,-224.5"/>
<text text-anchor="middle" x="416" y="-231.5" font-family="Helvetica,sans-Serif" font-size="10.00">UI/Common/FileSelector.hpp</text>
</a>
</g>
</g>
<!-- Node1&#45;&gt;Node8 -->
<g id="edge8" class="edge">
<title>Node1&#45;&gt;Node8</title>
<path fill="none" stroke="midnightblue" d="M356.48,-280.4C368.52,-271.22 384.2,-259.26 396.44,-249.92"/>
<polygon fill="midnightblue" stroke="midnightblue" points="398.82,-252.51 404.65,-243.66 394.58,-246.94 398.82,-252.51"/>
</g>
<!-- Node9 -->
<g id="node9" class="node">
<title>Node9</title>
<g id="a_node9"><a xlink:href="_model_component_8hpp.html" target="_top" xlink:title=" ">
<polygon fill="white" stroke="black" points="516,-224.5 516,-243.5 704,-243.5 704,-224.5 516,-224.5"/>
<text text-anchor="middle" x="610" y="-231.5" font-family="Helvetica,sans-Serif" font-size="10.00">Components/ModelComponent.hpp</text>
</a>
</g>
</g>
<!-- Node1&#45;&gt;Node9 -->
<g id="edge9" class="edge">
<title>Node1&#45;&gt;Node9</title>
<path fill="none" stroke="midnightblue" d="M402.12,-280.47C450.78,-269.83 516.68,-255.41 561.14,-245.69"/>
<polygon fill="midnightblue" stroke="midnightblue" points="562.09,-249.06 571.11,-243.51 560.6,-242.22 562.09,-249.06"/>
</g>
<!-- Node3 -->
<g id="node3" class="node">
<title>Node3</title>
<g id="a_node3"><a xlink:href="_entity_provider_8hpp.html" target="_top" xlink:title="Manages a pool of unused entity identifiers and provides mechanisms for requesting and removing them.">
<polygon fill="white" stroke="black" points="0,-112.5 0,-131.5 128,-131.5 128,-112.5 0,-112.5"/>
<text text-anchor="middle" x="64" y="-119.5" font-family="Helvetica,sans-Serif" font-size="10.00">ECS/EntityProvider.hpp</text>
</a>
</g>
</g>
<!-- Node2&#45;&gt;Node3 -->
<g id="edge2" class="edge">
<title>Node2&#45;&gt;Node3</title>
<path fill="none" stroke="midnightblue" d="M105.15,-224.43C90.42,-217.13 71.8,-205.09 63,-188 55.66,-173.73 56.78,-155.26 59.23,-141.66"/>
<polygon fill="midnightblue" stroke="midnightblue" points="62.72,-142.09 61.44,-131.58 55.88,-140.59 62.72,-142.09"/>
</g>
<!-- Node6 -->
<g id="node6" class="node">
<title>Node6</title>
<g id="a_node6"><a xlink:href="_sparse_set_8hpp.html" target="_top" xlink:title=" ">
<polygon fill="white" stroke="black" points="72,-168.5 72,-187.5 180,-187.5 180,-168.5 72,-168.5"/>
<text text-anchor="middle" x="126" y="-175.5" font-family="Helvetica,sans-Serif" font-size="10.00">ECS/SparseSet.hpp</text>
</a>
</g>
</g>
<!-- Node2&#45;&gt;Node6 -->
<g id="edge5" class="edge">
<title>Node2&#45;&gt;Node6</title>
<path fill="none" stroke="midnightblue" d="M126,-224.08C126,-217.01 126,-206.86 126,-197.99"/>
<polygon fill="midnightblue" stroke="midnightblue" points="129.5,-197.75 126,-187.75 122.5,-197.75 129.5,-197.75"/>
</g>
<!-- Node4 -->
<g id="node4" class="node">
<title>Node4</title>
<g id="a_node4"><a xlink:title=" ">
<polygon fill="white" stroke="#bfbfbf" points="66.5,-56.5 66.5,-75.5 119.5,-75.5 119.5,-56.5 66.5,-56.5"/>
<text text-anchor="middle" x="93" y="-63.5" font-family="Helvetica,sans-Serif" font-size="10.00">stdlib.h</text>
</a>
</g>
</g>
<!-- Node3&#45;&gt;Node4 -->
<g id="edge3" class="edge">
<title>Node3&#45;&gt;Node4</title>
<path fill="none" stroke="midnightblue" d="M68.79,-112.08C72.76,-104.69 78.53,-93.95 83.43,-84.81"/>
<polygon fill="midnightblue" stroke="midnightblue" points="86.65,-86.22 88.3,-75.75 80.49,-82.91 86.65,-86.22"/>
</g>
<!-- Node5 -->
<g id="node5" class="node">
<title>Node5</title>
<g id="a_node5"><a xlink:title=" ">
<polygon fill="white" stroke="#bfbfbf" points="1.5,-56.5 1.5,-75.5 48.5,-75.5 48.5,-56.5 1.5,-56.5"/>
<text text-anchor="middle" x="25" y="-63.5" font-family="Helvetica,sans-Serif" font-size="10.00">queue</text>
</a>
</g>
</g>
<!-- Node3&#45;&gt;Node5 -->
<g id="edge4" class="edge">
<title>Node3&#45;&gt;Node5</title>
<path fill="none" stroke="midnightblue" d="M57.56,-112.08C52.05,-104.46 43.97,-93.26 37.24,-83.94"/>
<polygon fill="midnightblue" stroke="midnightblue" points="40.01,-81.81 31.32,-75.75 34.34,-85.91 40.01,-81.81"/>
</g>
<!-- Node6&#45;&gt;Node3 -->
<g id="edge6" class="edge">
<title>Node6&#45;&gt;Node3</title>
<path fill="none" stroke="midnightblue" d="M116.04,-168.32C106.87,-160.34 93.06,-148.31 81.97,-138.65"/>
<polygon fill="midnightblue" stroke="midnightblue" points="83.98,-135.76 74.14,-131.83 79.38,-141.04 83.98,-135.76"/>
</g>
<!-- Node10 -->
<g id="node10" class="node">
<title>Node10</title>
<g id="a_node10"><a xlink:title=" ">
<polygon fill="white" stroke="#bfbfbf" points="644,-112.5 644,-131.5 688,-131.5 688,-112.5 644,-112.5"/>
<text text-anchor="middle" x="666" y="-119.5" font-family="Helvetica,sans-Serif" font-size="10.00">string</text>
</a>
</g>
</g>
<!-- Node9&#45;&gt;Node10 -->
<g id="edge10" class="edge">
<title>Node9&#45;&gt;Node10</title>
<path fill="none" stroke="midnightblue" d="M614.39,-224.37C623.55,-206.38 644.85,-164.55 657.03,-140.63"/>
<polygon fill="midnightblue" stroke="midnightblue" points="660.21,-142.09 661.63,-131.59 653.97,-138.92 660.21,-142.09"/>
</g>
<!-- Node11 -->
<g id="node11" class="node">
<title>Node11</title>
<g id="a_node11"><a xlink:title=" ">
<polygon fill="white" stroke="#bfbfbf" points="856,-168.5 856,-187.5 916,-187.5 916,-168.5 856,-168.5"/>
<text text-anchor="middle" x="886" y="-175.5" font-family="Helvetica,sans-Serif" font-size="10.00">iostream</text>
</a>
</g>
</g>
<!-- Node9&#45;&gt;Node11 -->
<g id="edge11" class="edge">
<title>Node9&#45;&gt;Node11</title>
<path fill="none" stroke="midnightblue" d="M657.77,-224.5C703.56,-216.22 774.87,-203 845.79,-188.19"/>
<polygon fill="midnightblue" stroke="midnightblue" points="846.72,-191.57 855.79,-186.09 845.29,-184.72 846.72,-191.57"/>
</g>
<!-- Node12 -->
<g id="node12" class="node">
<title>Node12</title>
<g id="a_node12"><a xlink:href="_mesh_8hpp.html" target="_top" xlink:title=" ">
<polygon fill="white" stroke="black" points="462.5,-168.5 462.5,-187.5 599.5,-187.5 599.5,-168.5 462.5,-168.5"/>
<text text-anchor="middle" x="531" y="-175.5" font-family="Helvetica,sans-Serif" font-size="10.00">AssetManager/Mesh.hpp</text>
</a>
</g>
</g>
<!-- Node9&#45;&gt;Node12 -->
<g id="edge12" class="edge">
<title>Node9&#45;&gt;Node12</title>
<path fill="none" stroke="midnightblue" d="M597.31,-224.32C585.1,-215.98 566.42,-203.21 552,-193.35"/>
<polygon fill="midnightblue" stroke="midnightblue" points="553.89,-190.41 543.66,-187.65 549.94,-196.19 553.89,-190.41"/>
</g>
<!-- Node20 -->
<g id="node20" class="node">
<title>Node20</title>
<g id="a_node20"><a xlink:href="_material_8hpp.html" target="_top" xlink:title=" ">
<polygon fill="white" stroke="black" points="198.5,-168.5 198.5,-187.5 349.5,-187.5 349.5,-168.5 198.5,-168.5"/>
<text text-anchor="middle" x="274" y="-175.5" font-family="Helvetica,sans-Serif" font-size="10.00">AssetManager/Material.hpp</text>
</a>
</g>
</g>
<!-- Node9&#45;&gt;Node20 -->
<g id="edge23" class="edge">
<title>Node9&#45;&gt;Node20</title>
<path fill="none" stroke="midnightblue" d="M556.76,-224.44C497.04,-214.85 400.26,-199.29 336.87,-189.1"/>
<polygon fill="midnightblue" stroke="midnightblue" points="337.42,-185.65 326.99,-187.52 336.31,-192.56 337.42,-185.65"/>
</g>
<!-- Node21 -->
<g id="node21" class="node">
<title>Node21</title>
<g id="a_node21"><a xlink:href="_base_component_8hpp.html" target="_top" xlink:title=" ">
<polygon fill="white" stroke="black" points="656,-168.5 656,-187.5 838,-187.5 838,-168.5 656,-168.5"/>
<text text-anchor="middle" x="747" y="-175.5" font-family="Helvetica,sans-Serif" font-size="10.00">Components/BaseComponent.hpp</text>
</a>
</g>
</g>
<!-- Node9&#45;&gt;Node21 -->
<g id="edge26" class="edge">
<title>Node9&#45;&gt;Node21</title>
<path fill="none" stroke="midnightblue" d="M631.71,-224.44C654.35,-215.52 690.07,-201.44 715.75,-191.32"/>
<polygon fill="midnightblue" stroke="midnightblue" points="717.37,-194.44 725.39,-187.52 714.81,-187.93 717.37,-194.44"/>
</g>
<!-- Node12&#45;&gt;Node10 -->
<g id="edge16" class="edge">
<title>Node12&#45;&gt;Node10</title>
<path fill="none" stroke="midnightblue" d="M552.39,-168.44C574.71,-159.52 609.9,-145.44 635.21,-135.32"/>
<polygon fill="midnightblue" stroke="midnightblue" points="636.72,-138.48 644.71,-131.52 634.12,-131.98 636.72,-138.48"/>
</g>
<!-- Node13 -->
<g id="node13" class="node">
<title>Node13</title>
<g id="a_node13"><a xlink:title=" ">
<polygon fill="white" stroke="#bfbfbf" points="488,-0.5 488,-19.5 566,-19.5 566,-0.5 488,-0.5"/>
<text text-anchor="middle" x="527" y="-7.5" font-family="Helvetica,sans-Serif" font-size="10.00">glm/glm.hpp</text>
</a>
</g>
</g>
<!-- Node12&#45;&gt;Node13 -->
<g id="edge13" class="edge">
<title>Node12&#45;&gt;Node13</title>
<path fill="none" stroke="midnightblue" d="M553.46,-168.38C568.77,-161.18 587.86,-149.29 597,-132 601.15,-124.14 599.65,-120.48 597,-112 586.41,-78.12 560.02,-45.62 542.84,-27.01"/>
<polygon fill="midnightblue" stroke="midnightblue" points="545.32,-24.54 535.89,-19.71 540.24,-29.37 545.32,-24.54"/>
</g>
<!-- Node14 -->
<g id="node14" class="node">
<title>Node14</title>
<g id="a_node14"><a xlink:title=" ">
<polygon fill="white" stroke="#bfbfbf" points="349.5,-112.5 349.5,-131.5 420.5,-131.5 420.5,-112.5 349.5,-112.5"/>
<text text-anchor="middle" x="385" y="-119.5" font-family="Helvetica,sans-Serif" font-size="10.00">glad/glad.h</text>
</a>
</g>
</g>
<!-- Node12&#45;&gt;Node14 -->
<g id="edge14" class="edge">
<title>Node12&#45;&gt;Node14</title>
<path fill="none" stroke="midnightblue" d="M507.87,-168.44C483.52,-159.44 444.99,-145.19 417.58,-135.05"/>
<polygon fill="midnightblue" stroke="midnightblue" points="418.62,-131.7 408.03,-131.52 416.19,-138.27 418.62,-131.7"/>
</g>
<!-- Node15 -->
<g id="node15" class="node">
<title>Node15</title>
<g id="a_node15"><a xlink:title=" ">
<polygon fill="white" stroke="#bfbfbf" points="438.5,-112.5 438.5,-131.5 485.5,-131.5 485.5,-112.5 438.5,-112.5"/>
<text text-anchor="middle" x="462" y="-119.5" font-family="Helvetica,sans-Serif" font-size="10.00">vector</text>
</a>
</g>
</g>
<!-- Node12&#45;&gt;Node15 -->
<g id="edge15" class="edge">
<title>Node12&#45;&gt;Node15</title>
<path fill="none" stroke="midnightblue" d="M519.91,-168.32C509.51,-160.18 493.74,-147.84 481.28,-138.09"/>
<polygon fill="midnightblue" stroke="midnightblue" points="483.32,-135.24 473.29,-131.83 479.01,-140.75 483.32,-135.24"/>
</g>
<!-- Node16 -->
<g id="node16" class="node">
<title>Node16</title>
<g id="a_node16"><a xlink:href="_asset_8hpp.html" target="_top" xlink:title=" ">
<polygon fill="white" stroke="black" points="194.5,-112.5 194.5,-131.5 331.5,-131.5 331.5,-112.5 194.5,-112.5"/>
<text text-anchor="middle" x="263" y="-119.5" font-family="Helvetica,sans-Serif" font-size="10.00">AssetManager/Asset.hpp</text>
</a>
</g>
</g>
<!-- Node12&#45;&gt;Node16 -->
<g id="edge17" class="edge">
<title>Node12&#45;&gt;Node16</title>
<path fill="none" stroke="midnightblue" d="M488.53,-168.44C441.59,-158.98 365.92,-143.74 315.35,-133.55"/>
<polygon fill="midnightblue" stroke="midnightblue" points="315.76,-130.06 305.27,-131.52 314.38,-136.92 315.76,-130.06"/>
</g>
<!-- Node18 -->
<g id="node18" class="node">
<title>Node18</title>
<g id="a_node18"><a xlink:href="_box_8hpp.html" target="_top" xlink:title=" ">
<polygon fill="white" stroke="black" points="504,-112.5 504,-131.5 588,-131.5 588,-112.5 504,-112.5"/>
<text text-anchor="middle" x="546" y="-119.5" font-family="Helvetica,sans-Serif" font-size="10.00">Math/Box.hpp</text>
</a>
</g>
</g>
<!-- Node12&#45;&gt;Node18 -->
<g id="edge19" class="edge">
<title>Node12&#45;&gt;Node18</title>
<path fill="none" stroke="midnightblue" d="M533.48,-168.08C535.49,-160.85 538.39,-150.41 540.89,-141.4"/>
<polygon fill="midnightblue" stroke="midnightblue" points="544.26,-142.32 543.57,-131.75 537.52,-140.45 544.26,-142.32"/>
</g>
<!-- Node17 -->
<g id="node17" class="node">
<title>Node17</title>
<g id="a_node17"><a xlink:title=" ">
<polygon fill="white" stroke="#bfbfbf" points="229,-56.5 229,-75.5 297,-75.5 297,-56.5 229,-56.5"/>
<text text-anchor="middle" x="263" y="-63.5" font-family="Helvetica,sans-Serif" font-size="10.00">filesystem</text>
</a>
</g>
</g>
<!-- Node16&#45;&gt;Node17 -->
<g id="edge18" class="edge">
<title>Node16&#45;&gt;Node17</title>
<path fill="none" stroke="midnightblue" d="M263,-112.08C263,-105.01 263,-94.86 263,-85.99"/>
<polygon fill="midnightblue" stroke="midnightblue" points="266.5,-85.75 263,-75.75 259.5,-85.75 266.5,-85.75"/>
</g>
<!-- Node18&#45;&gt;Node13 -->
<g id="edge20" class="edge">
<title>Node18&#45;&gt;Node13</title>
<path fill="none" stroke="midnightblue" d="M546.4,-112.49C546.81,-99.98 546.92,-75.95 543,-56 541.22,-46.95 537.97,-37.27 534.86,-29.21"/>
<polygon fill="midnightblue" stroke="midnightblue" points="538.01,-27.68 530.98,-19.75 531.53,-30.33 538.01,-27.68"/>
</g>
<!-- Node19 -->
<g id="node19" class="node">
<title>Node19</title>
<g id="a_node19"><a xlink:href="_ray_8hpp.html" target="_top" xlink:title=" ">
<polygon fill="white" stroke="black" points="450.5,-56.5 450.5,-75.5 533.5,-75.5 533.5,-56.5 450.5,-56.5"/>
<text text-anchor="middle" x="492" y="-63.5" font-family="Helvetica,sans-Serif" font-size="10.00">Math/Ray.hpp</text>
</a>
</g>
</g>
<!-- Node18&#45;&gt;Node19 -->
<g id="edge21" class="edge">
<title>Node18&#45;&gt;Node19</title>
<path fill="none" stroke="midnightblue" d="M537.08,-112.08C529.22,-104.22 517.57,-92.57 508.08,-83.08"/>
<polygon fill="midnightblue" stroke="midnightblue" points="510.3,-80.35 500.75,-75.75 505.35,-85.3 510.3,-80.35"/>
</g>
<!-- Node19&#45;&gt;Node13 -->
<g id="edge22" class="edge">
<title>Node19&#45;&gt;Node13</title>
<path fill="none" stroke="midnightblue" d="M497.78,-56.08C502.67,-48.53 509.83,-37.49 515.83,-28.23"/>
<polygon fill="midnightblue" stroke="midnightblue" points="518.83,-30.05 521.33,-19.75 512.95,-26.24 518.83,-30.05"/>
</g>
<!-- Node20&#45;&gt;Node13 -->
<g id="edge24" class="edge">
<title>Node20&#45;&gt;Node13</title>
<path fill="none" stroke="midnightblue" d="M237.3,-168.35C218.17,-161.77 196.43,-150.58 185,-132 166.89,-102.55 211.57,-61.51 220,-56 261.51,-28.87 402.07,-17.49 477.76,-13.24"/>
<polygon fill="midnightblue" stroke="midnightblue" points="478.2,-16.72 488,-12.68 477.82,-9.73 478.2,-16.72"/>
</g>
<!-- Node20&#45;&gt;Node16 -->
<g id="edge25" class="edge">
<title>Node20&#45;&gt;Node16</title>
<path fill="none" stroke="midnightblue" d="M272.18,-168.08C270.73,-160.93 268.63,-150.64 266.81,-141.69"/>
<polygon fill="midnightblue" stroke="midnightblue" points="270.21,-140.85 264.78,-131.75 263.35,-142.25 270.21,-140.85"/>
</g>
<!-- Node22 -->
<g id="node22" class="node">
<title>Node22</title>
<g id="a_node22"><a xlink:href="_types_8hpp.html" target="_top" xlink:title=" ">
<polygon fill="white" stroke="black" points="706.5,-112.5 706.5,-131.5 819.5,-131.5 819.5,-112.5 706.5,-112.5"/>
<text text-anchor="middle" x="763" y="-119.5" font-family="Helvetica,sans-Serif" font-size="10.00">Common/Types.hpp</text>
</a>
</g>
</g>
<!-- Node21&#45;&gt;Node22 -->
<g id="edge27" class="edge">
<title>Node21&#45;&gt;Node22</title>
<path fill="none" stroke="midnightblue" d="M749.64,-168.08C751.79,-160.85 754.88,-150.41 757.55,-141.4"/>
<polygon fill="midnightblue" stroke="midnightblue" points="760.92,-142.33 760.41,-131.75 754.21,-140.34 760.92,-142.33"/>
</g>
</g>
</svg>
