<?xml version="1.0" encoding="UTF-8" standalone="no"?>
<!DOCTYPE svg PUBLIC "-//W3C//DTD SVG 1.1//EN"
 "http://www.w3.org/Graphics/SVG/1.1/DTD/svg11.dtd">
<!-- Generated by graphviz version 2.43.0 (0)
 -->
<!-- Title: src/Systems/ModelRendererSystem.cpp Pages: 1 -->
<svg width="1900pt" height="319pt"
 viewBox="0.00 0.00 1900.03 319.00" xmlns="http://www.w3.org/2000/svg" xmlns:xlink="http://www.w3.org/1999/xlink">
<g id="graph0" class="graph" transform="scale(1 1) rotate(0) translate(4 315)">
<title>src/Systems/ModelRendererSystem.cpp</title>
<polygon fill="white" stroke="transparent" points="-4,4 -4,-315 1896.03,-315 1896.03,4 -4,4"/>
<!-- Node1 -->
<g id="node1" class="node">
<title>Node1</title>
<g id="a_node1"><a xlink:title=" ">
<polygon fill="#bfbfbf" stroke="black" points="1113.5,-280.5 1113.5,-310.5 1266.5,-310.5 1266.5,-280.5 1113.5,-280.5"/>
<text text-anchor="start" x="1121.5" y="-298.5" font-family="Helvetica,sans-Serif" font-size="10.00">src/Systems/ModelRenderer</text>
<text text-anchor="middle" x="1190" y="-287.5" font-family="Helvetica,sans-Serif" font-size="10.00">System.cpp</text>
</a>
</g>
</g>
<!-- Node2 -->
<g id="node2" class="node">
<title>Node2</title>
<g id="a_node2"><a xlink:href="_model_renderer_system_8hpp.html" target="_top" xlink:title=" ">
<polygon fill="white" stroke="black" points="167,-224.5 167,-243.5 361,-243.5 361,-224.5 167,-224.5"/>
<text text-anchor="middle" x="264" y="-231.5" font-family="Helvetica,sans-Serif" font-size="10.00">Systems/ModelRendererSystem.hpp</text>
</a>
</g>
</g>
<!-- Node1&#45;&gt;Node2 -->
<g id="edge1" class="edge">
<title>Node1&#45;&gt;Node2</title>
<path fill="none" stroke="midnightblue" d="M1113.43,-289.58C948.77,-279 560.61,-254.06 371.42,-241.9"/>
<polygon fill="midnightblue" stroke="midnightblue" points="371.39,-238.39 361.18,-241.24 370.94,-245.38 371.39,-238.39"/>
</g>
<!-- Node17 -->
<g id="node17" class="node">
<title>Node17</title>
<g id="a_node17"><a xlink:href="_asset_manager_8hpp.html" target="_top" xlink:title=" ">
<polygon fill="white" stroke="black" points="576.5,-168.5 576.5,-187.5 755.5,-187.5 755.5,-168.5 576.5,-168.5"/>
<text text-anchor="middle" x="666" y="-175.5" font-family="Helvetica,sans-Serif" font-size="10.00">AssetManager/AssetManager.hpp</text>
</a>
</g>
</g>
<!-- Node1&#45;&gt;Node17 -->
<g id="edge19" class="edge">
<title>Node1&#45;&gt;Node17</title>
<path fill="none" stroke="midnightblue" d="M1126.27,-280.45C1020.22,-257.08 809.79,-210.69 714.68,-189.73"/>
<polygon fill="midnightblue" stroke="midnightblue" points="715.27,-186.28 704.75,-187.54 713.77,-193.11 715.27,-186.28"/>
</g>
<!-- Node18 -->
<g id="node18" class="node">
<title>Node18</title>
<g id="a_node18"><a xlink:href="_transform_component_8hpp.html" target="_top" xlink:title=" ">
<polygon fill="white" stroke="black" points="1423.5,-168.5 1423.5,-187.5 1630.5,-187.5 1630.5,-168.5 1423.5,-168.5"/>
<text text-anchor="middle" x="1527" y="-175.5" font-family="Helvetica,sans-Serif" font-size="10.00">Components/TransformComponent.hpp</text>
</a>
</g>
</g>
<!-- Node1&#45;&gt;Node18 -->
<g id="edge23" class="edge">
<title>Node1&#45;&gt;Node18</title>
<path fill="none" stroke="midnightblue" d="M1230.99,-280.45C1297.95,-257.5 1429.62,-212.38 1492.28,-190.9"/>
<polygon fill="midnightblue" stroke="midnightblue" points="1493.75,-194.1 1502.08,-187.54 1491.48,-187.47 1493.75,-194.1"/>
</g>
<!-- Node22 -->
<g id="node22" class="node">
<title>Node22</title>
<g id="a_node22"><a xlink:href="_model_component_8hpp.html" target="_top" xlink:title=" ">
<polygon fill="white" stroke="black" points="1011,-224.5 1011,-243.5 1199,-243.5 1199,-224.5 1011,-224.5"/>
<text text-anchor="middle" x="1105" y="-231.5" font-family="Helvetica,sans-Serif" font-size="10.00">Components/ModelComponent.hpp</text>
</a>
</g>
</g>
<!-- Node1&#45;&gt;Node22 -->
<g id="edge29" class="edge">
<title>Node1&#45;&gt;Node22</title>
<path fill="none" stroke="midnightblue" d="M1169.86,-280.4C1156.61,-271.13 1139.32,-259.03 1125.92,-249.65"/>
<polygon fill="midnightblue" stroke="midnightblue" points="1127.57,-246.53 1117.37,-243.66 1123.55,-252.26 1127.57,-246.53"/>
</g>
<!-- Node29 -->
<g id="node29" class="node">
<title>Node29</title>
<g id="a_node29"><a xlink:href="_camera_component_8hpp.html" target="_top" xlink:title=" ">
<polygon fill="white" stroke="black" points="1673.5,-224.5 1673.5,-243.5 1870.5,-243.5 1870.5,-224.5 1673.5,-224.5"/>
<text text-anchor="middle" x="1772" y="-231.5" font-family="Helvetica,sans-Serif" font-size="10.00">Components/CameraComponent.hpp</text>
</a>
</g>
</g>
<!-- Node1&#45;&gt;Node29 -->
<g id="edge46" class="edge">
<title>Node1&#45;&gt;Node29</title>
<path fill="none" stroke="midnightblue" d="M1266.68,-286.66C1372.75,-275.82 1564.06,-256.26 1678.41,-244.57"/>
<polygon fill="midnightblue" stroke="midnightblue" points="1678.96,-248.03 1688.55,-243.53 1678.25,-241.07 1678.96,-248.03"/>
</g>
<!-- Node30 -->
<g id="node30" class="node">
<title>Node30</title>
<g id="a_node30"><a xlink:href="_point_light_component_8hpp.html" target="_top" xlink:title=" ">
<polygon fill="white" stroke="black" points="1159.5,-168.5 1159.5,-187.5 1366.5,-187.5 1366.5,-168.5 1159.5,-168.5"/>
<text text-anchor="middle" x="1263" y="-175.5" font-family="Helvetica,sans-Serif" font-size="10.00">Components/PointLightComponent.hpp</text>
</a>
</g>
</g>
<!-- Node1&#45;&gt;Node30 -->
<g id="edge51" class="edge">
<title>Node1&#45;&gt;Node30</title>
<path fill="none" stroke="midnightblue" d="M1198.95,-280.34C1212.34,-259.15 1237.56,-219.24 1252.04,-196.34"/>
<polygon fill="midnightblue" stroke="midnightblue" points="1255.14,-197.99 1257.52,-187.67 1249.22,-194.25 1255.14,-197.99"/>
</g>
<!-- Node3 -->
<g id="node3" class="node">
<title>Node3</title>
<g id="a_node3"><a xlink:title=" ">
<polygon fill="white" stroke="#bfbfbf" points="174,-112.5 174,-131.5 232,-131.5 232,-112.5 174,-112.5"/>
<text text-anchor="middle" x="203" y="-119.5" font-family="Helvetica,sans-Serif" font-size="10.00">memory</text>
</a>
</g>
</g>
<!-- Node2&#45;&gt;Node3 -->
<g id="edge2" class="edge">
<title>Node2&#45;&gt;Node3</title>
<path fill="none" stroke="midnightblue" d="M255.38,-224.36C247.18,-215.75 234.95,-201.86 227,-188 218.58,-173.33 212.17,-155.16 208.1,-141.77"/>
<polygon fill="midnightblue" stroke="midnightblue" points="211.37,-140.46 205.24,-131.82 204.64,-142.4 211.37,-140.46"/>
</g>
<!-- Node4 -->
<g id="node4" class="node">
<title>Node4</title>
<g id="a_node4"><a xlink:href="_registry_8hpp.html" target="_top" xlink:title=" ">
<polygon fill="white" stroke="black" points="82,-168.5 82,-187.5 180,-187.5 180,-168.5 82,-168.5"/>
<text text-anchor="middle" x="131" y="-175.5" font-family="Helvetica,sans-Serif" font-size="10.00">ECS/Registry.hpp</text>
</a>
</g>
</g>
<!-- Node2&#45;&gt;Node4 -->
<g id="edge3" class="edge">
<title>Node2&#45;&gt;Node4</title>
<path fill="none" stroke="midnightblue" d="M242.93,-224.44C220.94,-215.52 186.27,-201.44 161.34,-191.32"/>
<polygon fill="midnightblue" stroke="midnightblue" points="162.56,-188.04 151.98,-187.52 159.92,-194.52 162.56,-188.04"/>
</g>
<!-- Node9 -->
<g id="node9" class="node">
<title>Node9</title>
<g id="a_node9"><a xlink:href="_shader_program_8hpp.html" target="_top" xlink:title=" ">
<polygon fill="white" stroke="black" points="236.5,-168.5 236.5,-187.5 401.5,-187.5 401.5,-168.5 236.5,-168.5"/>
<text text-anchor="middle" x="319" y="-175.5" font-family="Helvetica,sans-Serif" font-size="10.00">Rendering/ShaderProgram.hpp</text>
</a>
</g>
</g>
<!-- Node2&#45;&gt;Node9 -->
<g id="edge9" class="edge">
<title>Node2&#45;&gt;Node9</title>
<path fill="none" stroke="midnightblue" d="M273.08,-224.08C281.17,-216.14 293.2,-204.34 302.91,-194.8"/>
<polygon fill="midnightblue" stroke="midnightblue" points="305.4,-197.25 310.09,-187.75 300.5,-192.26 305.4,-197.25"/>
</g>
<!-- Node5 -->
<g id="node5" class="node">
<title>Node5</title>
<g id="a_node5"><a xlink:href="_entity_provider_8hpp.html" target="_top" xlink:title="Manages a pool of unused entity identifiers and provides mechanisms for requesting and removing them.">
<polygon fill="white" stroke="black" points="31,-56.5 31,-75.5 159,-75.5 159,-56.5 31,-56.5"/>
<text text-anchor="middle" x="95" y="-63.5" font-family="Helvetica,sans-Serif" font-size="10.00">ECS/EntityProvider.hpp</text>
</a>
</g>
</g>
<!-- Node4&#45;&gt;Node5 -->
<g id="edge4" class="edge">
<title>Node4&#45;&gt;Node5</title>
<path fill="none" stroke="midnightblue" d="M129.83,-168.41C127.96,-155.79 123.8,-131.63 117,-112 113.76,-102.65 109.06,-92.73 104.83,-84.58"/>
<polygon fill="midnightblue" stroke="midnightblue" points="107.86,-82.84 100.04,-75.69 101.7,-86.16 107.86,-82.84"/>
</g>
<!-- Node8 -->
<g id="node8" class="node">
<title>Node8</title>
<g id="a_node8"><a xlink:href="_sparse_set_8hpp.html" target="_top" xlink:title=" ">
<polygon fill="white" stroke="black" points="0,-112.5 0,-131.5 108,-131.5 108,-112.5 0,-112.5"/>
<text text-anchor="middle" x="54" y="-119.5" font-family="Helvetica,sans-Serif" font-size="10.00">ECS/SparseSet.hpp</text>
</a>
</g>
</g>
<!-- Node4&#45;&gt;Node8 -->
<g id="edge7" class="edge">
<title>Node4&#45;&gt;Node8</title>
<path fill="none" stroke="midnightblue" d="M118.63,-168.32C106.84,-160.06 88.87,-147.45 74.86,-137.63"/>
<polygon fill="midnightblue" stroke="midnightblue" points="76.54,-134.53 66.34,-131.65 72.52,-140.26 76.54,-134.53"/>
</g>
<!-- Node6 -->
<g id="node6" class="node">
<title>Node6</title>
<g id="a_node6"><a xlink:title=" ">
<polygon fill="white" stroke="#bfbfbf" points="34.5,-0.5 34.5,-19.5 87.5,-19.5 87.5,-0.5 34.5,-0.5"/>
<text text-anchor="middle" x="61" y="-7.5" font-family="Helvetica,sans-Serif" font-size="10.00">stdlib.h</text>
</a>
</g>
</g>
<!-- Node5&#45;&gt;Node6 -->
<g id="edge5" class="edge">
<title>Node5&#45;&gt;Node6</title>
<path fill="none" stroke="midnightblue" d="M89.39,-56.08C84.63,-48.53 77.68,-37.49 71.85,-28.23"/>
<polygon fill="midnightblue" stroke="midnightblue" points="74.8,-26.35 66.51,-19.75 68.88,-30.08 74.8,-26.35"/>
</g>
<!-- Node7 -->
<g id="node7" class="node">
<title>Node7</title>
<g id="a_node7"><a xlink:title=" ">
<polygon fill="white" stroke="#bfbfbf" points="105.5,-0.5 105.5,-19.5 152.5,-19.5 152.5,-0.5 105.5,-0.5"/>
<text text-anchor="middle" x="129" y="-7.5" font-family="Helvetica,sans-Serif" font-size="10.00">queue</text>
</a>
</g>
</g>
<!-- Node5&#45;&gt;Node7 -->
<g id="edge6" class="edge">
<title>Node5&#45;&gt;Node7</title>
<path fill="none" stroke="midnightblue" d="M100.61,-56.08C105.37,-48.53 112.32,-37.49 118.15,-28.23"/>
<polygon fill="midnightblue" stroke="midnightblue" points="121.12,-30.08 123.49,-19.75 115.2,-26.35 121.12,-30.08"/>
</g>
<!-- Node8&#45;&gt;Node5 -->
<g id="edge8" class="edge">
<title>Node8&#45;&gt;Node5</title>
<path fill="none" stroke="midnightblue" d="M60.77,-112.08C66.56,-104.46 75.06,-93.26 82.14,-83.94"/>
<polygon fill="midnightblue" stroke="midnightblue" points="85.1,-85.83 88.36,-75.75 79.52,-81.6 85.1,-85.83"/>
</g>
<!-- Node9&#45;&gt;Node3 -->
<g id="edge12" class="edge">
<title>Node9&#45;&gt;Node3</title>
<path fill="none" stroke="midnightblue" d="M300.62,-168.44C281.78,-159.68 252.27,-145.94 230.62,-135.86"/>
<polygon fill="midnightblue" stroke="midnightblue" points="231.84,-132.56 221.29,-131.52 228.88,-138.91 231.84,-132.56"/>
</g>
<!-- Node10 -->
<g id="node10" class="node">
<title>Node10</title>
<g id="a_node10"><a xlink:title=" ">
<polygon fill="white" stroke="#bfbfbf" points="362.5,-56.5 362.5,-75.5 433.5,-75.5 433.5,-56.5 362.5,-56.5"/>
<text text-anchor="middle" x="398" y="-63.5" font-family="Helvetica,sans-Serif" font-size="10.00">glad/glad.h</text>
</a>
</g>
</g>
<!-- Node9&#45;&gt;Node10 -->
<g id="edge10" class="edge">
<title>Node9&#45;&gt;Node10</title>
<path fill="none" stroke="midnightblue" d="M315.98,-168.29C311.99,-155.09 306.58,-129.71 317,-112 325.92,-96.84 341.99,-86.43 357.48,-79.46"/>
<polygon fill="midnightblue" stroke="midnightblue" points="359.06,-82.6 366.98,-75.56 356.4,-76.12 359.06,-82.6"/>
</g>
<!-- Node11 -->
<g id="node11" class="node">
<title>Node11</title>
<g id="a_node11"><a xlink:title=" ">
<polygon fill="white" stroke="#bfbfbf" points="1062,-0.5 1062,-19.5 1140,-19.5 1140,-0.5 1062,-0.5"/>
<text text-anchor="middle" x="1101" y="-7.5" font-family="Helvetica,sans-Serif" font-size="10.00">glm/glm.hpp</text>
</a>
</g>
</g>
<!-- Node9&#45;&gt;Node11 -->
<g id="edge11" class="edge">
<title>Node9&#45;&gt;Node11</title>
<path fill="none" stroke="midnightblue" d="M314.86,-168.35C309.38,-155.67 301.16,-131.43 308,-112 318.6,-81.88 324.63,-70.66 353,-56 384.05,-39.96 890.1,-19.14 1051.77,-12.87"/>
<polygon fill="midnightblue" stroke="midnightblue" points="1052.05,-16.36 1061.91,-12.47 1051.78,-9.36 1052.05,-16.36"/>
</g>
<!-- Node12 -->
<g id="node12" class="node">
<title>Node12</title>
<g id="a_node12"><a xlink:title=" ">
<polygon fill="white" stroke="#bfbfbf" points="1126,-112.5 1126,-131.5 1170,-131.5 1170,-112.5 1126,-112.5"/>
<text text-anchor="middle" x="1148" y="-119.5" font-family="Helvetica,sans-Serif" font-size="10.00">string</text>
</a>
</g>
</g>
<!-- Node9&#45;&gt;Node12 -->
<g id="edge13" class="edge">
<title>Node9&#45;&gt;Node12</title>
<path fill="none" stroke="midnightblue" d="M401.67,-173.4C584.71,-165.28 1015.34,-145.32 1115.9,-131.61"/>
<polygon fill="midnightblue" stroke="midnightblue" points="1116.43,-135.07 1125.79,-130.1 1115.37,-128.15 1116.43,-135.07"/>
</g>
<!-- Node13 -->
<g id="node13" class="node">
<title>Node13</title>
<g id="a_node13"><a xlink:title=" ">
<polygon fill="white" stroke="#bfbfbf" points="487.5,-112.5 487.5,-131.5 580.5,-131.5 580.5,-112.5 487.5,-112.5"/>
<text text-anchor="middle" x="534" y="-119.5" font-family="Helvetica,sans-Serif" font-size="10.00">unordered_map</text>
</a>
</g>
</g>
<!-- Node9&#45;&gt;Node13 -->
<g id="edge14" class="edge">
<title>Node9&#45;&gt;Node13</title>
<path fill="none" stroke="midnightblue" d="M353.07,-168.44C390.18,-159.12 449.66,-144.18 490.21,-134"/>
<polygon fill="midnightblue" stroke="midnightblue" points="491.25,-137.35 500.09,-131.52 489.54,-130.56 491.25,-137.35"/>
</g>
<!-- Node14 -->
<g id="node14" class="node">
<title>Node14</title>
<g id="a_node14"><a xlink:href="_shader_8hpp.html" target="_top" xlink:title=" ">
<polygon fill="white" stroke="black" points="326.5,-112.5 326.5,-131.5 469.5,-131.5 469.5,-112.5 326.5,-112.5"/>
<text text-anchor="middle" x="398" y="-119.5" font-family="Helvetica,sans-Serif" font-size="10.00">AssetManager/Shader.hpp</text>
</a>
</g>
</g>
<!-- Node9&#45;&gt;Node14 -->
<g id="edge15" class="edge">
<title>Node9&#45;&gt;Node14</title>
<path fill="none" stroke="midnightblue" d="M331.69,-168.32C343.9,-159.98 362.58,-147.21 377,-137.35"/>
<polygon fill="midnightblue" stroke="midnightblue" points="379.06,-140.19 385.34,-131.65 375.11,-134.41 379.06,-140.19"/>
</g>
<!-- Node14&#45;&gt;Node10 -->
<g id="edge16" class="edge">
<title>Node14&#45;&gt;Node10</title>
<path fill="none" stroke="midnightblue" d="M398,-112.08C398,-105.01 398,-94.86 398,-85.99"/>
<polygon fill="midnightblue" stroke="midnightblue" points="401.5,-85.75 398,-75.75 394.5,-85.75 401.5,-85.75"/>
</g>
<!-- Node15 -->
<g id="node15" class="node">
<title>Node15</title>
<g id="a_node15"><a xlink:href="_asset_8hpp.html" target="_top" xlink:title=" ">
<polygon fill="white" stroke="black" points="675.5,-56.5 675.5,-75.5 812.5,-75.5 812.5,-56.5 675.5,-56.5"/>
<text text-anchor="middle" x="744" y="-63.5" font-family="Helvetica,sans-Serif" font-size="10.00">AssetManager/Asset.hpp</text>
</a>
</g>
</g>
<!-- Node14&#45;&gt;Node15 -->
<g id="edge17" class="edge">
<title>Node14&#45;&gt;Node15</title>
<path fill="none" stroke="midnightblue" d="M452.82,-112.44C514.32,-102.85 613.98,-87.29 679.26,-77.1"/>
<polygon fill="midnightblue" stroke="midnightblue" points="680.09,-80.52 689.43,-75.52 679.01,-73.6 680.09,-80.52"/>
</g>
<!-- Node16 -->
<g id="node16" class="node">
<title>Node16</title>
<g id="a_node16"><a xlink:title=" ">
<polygon fill="white" stroke="#bfbfbf" points="661,-0.5 661,-19.5 729,-19.5 729,-0.5 661,-0.5"/>
<text text-anchor="middle" x="695" y="-7.5" font-family="Helvetica,sans-Serif" font-size="10.00">filesystem</text>
</a>
</g>
</g>
<!-- Node15&#45;&gt;Node16 -->
<g id="edge18" class="edge">
<title>Node15&#45;&gt;Node16</title>
<path fill="none" stroke="midnightblue" d="M735.91,-56.08C728.84,-48.3 718.41,-36.8 709.85,-27.37"/>
<polygon fill="midnightblue" stroke="midnightblue" points="712.25,-24.8 702.94,-19.75 707.07,-29.51 712.25,-24.8"/>
</g>
<!-- Node17&#45;&gt;Node13 -->
<g id="edge20" class="edge">
<title>Node17&#45;&gt;Node13</title>
<path fill="none" stroke="midnightblue" d="M645.08,-168.44C623.26,-159.52 588.85,-145.44 564.11,-135.32"/>
<polygon fill="midnightblue" stroke="midnightblue" points="565.4,-132.06 554.82,-131.52 562.75,-138.54 565.4,-132.06"/>
</g>
<!-- Node17&#45;&gt;Node15 -->
<g id="edge22" class="edge">
<title>Node17&#45;&gt;Node15</title>
<path fill="none" stroke="midnightblue" d="M671.36,-168.45C679.31,-155.88 694.79,-131.78 709,-112 715.86,-102.45 723.88,-92.08 730.52,-83.7"/>
<polygon fill="midnightblue" stroke="midnightblue" points="733.31,-85.81 736.82,-75.81 727.85,-81.44 733.31,-85.81"/>
</g>
<!-- Node17&#45;&gt;Node16 -->
<g id="edge21" class="edge">
<title>Node17&#45;&gt;Node16</title>
<path fill="none" stroke="midnightblue" d="M664.49,-168.26C661.33,-148.02 655.23,-96.55 667,-56 669.94,-45.86 675.88,-35.76 681.53,-27.71"/>
<polygon fill="midnightblue" stroke="midnightblue" points="684.41,-29.7 687.61,-19.6 678.81,-25.5 684.41,-29.7"/>
</g>
<!-- Node18&#45;&gt;Node11 -->
<g id="edge25" class="edge">
<title>Node18&#45;&gt;Node11</title>
<path fill="none" stroke="midnightblue" d="M1525.2,-168.39C1521.82,-154.38 1513.16,-126.75 1495,-112 1393.1,-29.24 1231.42,-13.42 1150.52,-10.96"/>
<polygon fill="midnightblue" stroke="midnightblue" points="1150.21,-7.45 1140.13,-10.7 1150.04,-14.44 1150.21,-7.45"/>
</g>
<!-- Node18&#45;&gt;Node12 -->
<g id="edge24" class="edge">
<title>Node18&#45;&gt;Node12</title>
<path fill="none" stroke="midnightblue" d="M1429.95,-168.49C1362.24,-161.61 1269.71,-150.33 1180.04,-131.94"/>
<polygon fill="midnightblue" stroke="midnightblue" points="1180.75,-128.52 1170.25,-129.9 1179.32,-135.37 1180.75,-128.52"/>
</g>
<!-- Node19 -->
<g id="node19" class="node">
<title>Node19</title>
<g id="a_node19"><a xlink:title=" ">
<polygon fill="white" stroke="#bfbfbf" points="1542,-112.5 1542,-131.5 1672,-131.5 1672,-112.5 1542,-112.5"/>
<text text-anchor="middle" x="1607" y="-119.5" font-family="Helvetica,sans-Serif" font-size="10.00">glm/gtc/quaternion.hpp</text>
</a>
</g>
</g>
<!-- Node18&#45;&gt;Node19 -->
<g id="edge26" class="edge">
<title>Node18&#45;&gt;Node19</title>
<path fill="none" stroke="midnightblue" d="M1539.85,-168.32C1552.22,-159.98 1571.13,-147.21 1585.74,-137.35"/>
<polygon fill="midnightblue" stroke="midnightblue" points="1587.85,-140.15 1594.18,-131.65 1583.93,-134.35 1587.85,-140.15"/>
</g>
<!-- Node20 -->
<g id="node20" class="node">
<title>Node20</title>
<g id="a_node20"><a xlink:title=" ">
<polygon fill="white" stroke="#bfbfbf" points="1690.5,-112.5 1690.5,-131.5 1853.5,-131.5 1853.5,-112.5 1690.5,-112.5"/>
<text text-anchor="middle" x="1772" y="-119.5" font-family="Helvetica,sans-Serif" font-size="10.00">glm/gtc/matrix_transform.hpp</text>
</a>
</g>
</g>
<!-- Node18&#45;&gt;Node20 -->
<g id="edge27" class="edge">
<title>Node18&#45;&gt;Node20</title>
<path fill="none" stroke="midnightblue" d="M1565.82,-168.44C1608.56,-159.02 1677.33,-143.87 1723.57,-133.68"/>
<polygon fill="midnightblue" stroke="midnightblue" points="1724.35,-137.09 1733.36,-131.52 1722.84,-130.25 1724.35,-137.09"/>
</g>
<!-- Node21 -->
<g id="node21" class="node">
<title>Node21</title>
<g id="a_node21"><a xlink:href="_base_component_8hpp.html" target="_top" xlink:title=" ">
<polygon fill="white" stroke="black" points="1304,-112.5 1304,-131.5 1486,-131.5 1486,-112.5 1304,-112.5"/>
<text text-anchor="middle" x="1395" y="-119.5" font-family="Helvetica,sans-Serif" font-size="10.00">Components/BaseComponent.hpp</text>
</a>
</g>
</g>
<!-- Node18&#45;&gt;Node21 -->
<g id="edge28" class="edge">
<title>Node18&#45;&gt;Node21</title>
<path fill="none" stroke="midnightblue" d="M1506.08,-168.44C1484.26,-159.52 1449.85,-145.44 1425.11,-135.32"/>
<polygon fill="midnightblue" stroke="midnightblue" points="1426.4,-132.06 1415.82,-131.52 1423.75,-138.54 1426.4,-132.06"/>
</g>
<!-- Node22&#45;&gt;Node12 -->
<g id="edge30" class="edge">
<title>Node22&#45;&gt;Node12</title>
<path fill="none" stroke="midnightblue" d="M1105.45,-224.26C1106.37,-211.46 1109.09,-187.08 1117,-168 1121.21,-157.83 1127.98,-147.64 1134.11,-139.53"/>
<polygon fill="midnightblue" stroke="midnightblue" points="1136.89,-141.65 1140.37,-131.65 1131.41,-137.3 1136.89,-141.65"/>
</g>
<!-- Node22&#45;&gt;Node21 -->
<g id="edge45" class="edge">
<title>Node22&#45;&gt;Node21</title>
<path fill="none" stroke="midnightblue" d="M1199.07,-227.9C1266.62,-222.33 1350.13,-210.94 1376,-188 1389.04,-176.44 1393.35,-156.48 1394.67,-141.72"/>
<polygon fill="midnightblue" stroke="midnightblue" points="1398.16,-141.83 1395.18,-131.67 1391.17,-141.47 1398.16,-141.83"/>
</g>
<!-- Node23 -->
<g id="node23" class="node">
<title>Node23</title>
<g id="a_node23"><a xlink:title=" ">
<polygon fill="white" stroke="#bfbfbf" points="1188,-112.5 1188,-131.5 1248,-131.5 1248,-112.5 1188,-112.5"/>
<text text-anchor="middle" x="1218" y="-119.5" font-family="Helvetica,sans-Serif" font-size="10.00">iostream</text>
</a>
</g>
</g>
<!-- Node22&#45;&gt;Node23 -->
<g id="edge31" class="edge">
<title>Node22&#45;&gt;Node23</title>
<path fill="none" stroke="midnightblue" d="M1109.79,-224.25C1117.34,-211.01 1132.99,-185.57 1151,-168 1163.55,-155.75 1179.84,-144.73 1193.21,-136.66"/>
<polygon fill="midnightblue" stroke="midnightblue" points="1195.06,-139.63 1201.92,-131.56 1191.52,-133.59 1195.06,-139.63"/>
</g>
<!-- Node24 -->
<g id="node24" class="node">
<title>Node24</title>
<g id="a_node24"><a xlink:href="_mesh_8hpp.html" target="_top" xlink:title=" ">
<polygon fill="white" stroke="black" points="927.5,-168.5 927.5,-187.5 1064.5,-187.5 1064.5,-168.5 927.5,-168.5"/>
<text text-anchor="middle" x="996" y="-175.5" font-family="Helvetica,sans-Serif" font-size="10.00">AssetManager/Mesh.hpp</text>
</a>
</g>
</g>
<!-- Node22&#45;&gt;Node24 -->
<g id="edge32" class="edge">
<title>Node22&#45;&gt;Node24</title>
<path fill="none" stroke="midnightblue" d="M1087.49,-224.32C1069.93,-215.62 1042.67,-202.12 1022.47,-192.11"/>
<polygon fill="midnightblue" stroke="midnightblue" points="1023.98,-188.96 1013.47,-187.65 1020.88,-195.23 1023.98,-188.96"/>
</g>
<!-- Node28 -->
<g id="node28" class="node">
<title>Node28</title>
<g id="a_node28"><a xlink:href="_material_8hpp.html" target="_top" xlink:title=" ">
<polygon fill="white" stroke="black" points="751.5,-112.5 751.5,-131.5 902.5,-131.5 902.5,-112.5 751.5,-112.5"/>
<text text-anchor="middle" x="827" y="-119.5" font-family="Helvetica,sans-Serif" font-size="10.00">AssetManager/Material.hpp</text>
</a>
</g>
</g>
<!-- Node22&#45;&gt;Node28 -->
<g id="edge42" class="edge">
<title>Node22&#45;&gt;Node28</title>
<path fill="none" stroke="midnightblue" d="M1045.31,-224.47C1007.87,-217.7 959.23,-206.27 919,-188 890.54,-175.08 861.75,-152.95 844.14,-138.15"/>
<polygon fill="midnightblue" stroke="midnightblue" points="846.31,-135.4 836.45,-131.55 841.76,-140.72 846.31,-135.4"/>
</g>
<!-- Node24&#45;&gt;Node10 -->
<g id="edge34" class="edge">
<title>Node24&#45;&gt;Node10</title>
<path fill="none" stroke="midnightblue" d="M943.64,-168.5C890.14,-159.72 804.68,-145.45 731,-132 628.35,-113.27 508.32,-89.34 444.11,-76.37"/>
<polygon fill="midnightblue" stroke="midnightblue" points="444.41,-72.86 433.92,-74.31 443.03,-79.72 444.41,-72.86"/>
</g>
<!-- Node24&#45;&gt;Node11 -->
<g id="edge33" class="edge">
<title>Node24&#45;&gt;Node11</title>
<path fill="none" stroke="midnightblue" d="M997.37,-168.14C999.64,-155.19 1004.95,-130.62 1015,-112 1033.28,-78.13 1064.34,-45.44 1083.71,-26.82"/>
<polygon fill="midnightblue" stroke="midnightblue" points="1086.35,-29.15 1091.22,-19.74 1081.54,-24.05 1086.35,-29.15"/>
</g>
<!-- Node24&#45;&gt;Node12 -->
<g id="edge36" class="edge">
<title>Node24&#45;&gt;Node12</title>
<path fill="none" stroke="midnightblue" d="M1020.08,-168.44C1045.99,-159.24 1087.32,-144.56 1115.96,-134.38"/>
<polygon fill="midnightblue" stroke="midnightblue" points="1117.26,-137.63 1125.51,-130.99 1114.92,-131.04 1117.26,-137.63"/>
</g>
<!-- Node24&#45;&gt;Node15 -->
<g id="edge37" class="edge">
<title>Node24&#45;&gt;Node15</title>
<path fill="none" stroke="midnightblue" d="M927.49,-174.42C860.77,-170.3 766.14,-159.61 743,-132 732.37,-119.32 734.25,-99.84 737.79,-85.51"/>
<polygon fill="midnightblue" stroke="midnightblue" points="741.19,-86.34 740.64,-75.76 734.48,-84.37 741.19,-86.34"/>
</g>
<!-- Node25 -->
<g id="node25" class="node">
<title>Node25</title>
<g id="a_node25"><a xlink:title=" ">
<polygon fill="white" stroke="#bfbfbf" points="920.5,-112.5 920.5,-131.5 967.5,-131.5 967.5,-112.5 920.5,-112.5"/>
<text text-anchor="middle" x="944" y="-119.5" font-family="Helvetica,sans-Serif" font-size="10.00">vector</text>
</a>
</g>
</g>
<!-- Node24&#45;&gt;Node25 -->
<g id="edge35" class="edge">
<title>Node24&#45;&gt;Node25</title>
<path fill="none" stroke="midnightblue" d="M987.41,-168.08C979.84,-160.22 968.62,-148.57 959.49,-139.08"/>
<polygon fill="midnightblue" stroke="midnightblue" points="961.88,-136.53 952.43,-131.75 956.84,-141.38 961.88,-136.53"/>
</g>
<!-- Node26 -->
<g id="node26" class="node">
<title>Node26</title>
<g id="a_node26"><a xlink:href="_box_8hpp.html" target="_top" xlink:title=" ">
<polygon fill="white" stroke="black" points="1024,-112.5 1024,-131.5 1108,-131.5 1108,-112.5 1024,-112.5"/>
<text text-anchor="middle" x="1066" y="-119.5" font-family="Helvetica,sans-Serif" font-size="10.00">Math/Box.hpp</text>
</a>
</g>
</g>
<!-- Node24&#45;&gt;Node26 -->
<g id="edge38" class="edge">
<title>Node24&#45;&gt;Node26</title>
<path fill="none" stroke="midnightblue" d="M1007.25,-168.32C1017.8,-160.18 1033.8,-147.84 1046.44,-138.09"/>
<polygon fill="midnightblue" stroke="midnightblue" points="1048.77,-140.71 1054.55,-131.83 1044.49,-135.17 1048.77,-140.71"/>
</g>
<!-- Node26&#45;&gt;Node11 -->
<g id="edge39" class="edge">
<title>Node26&#45;&gt;Node11</title>
<path fill="none" stroke="midnightblue" d="M1068.65,-112.15C1072.42,-99.62 1079.59,-76.01 1086,-56 1088.83,-47.17 1092.07,-37.39 1094.82,-29.22"/>
<polygon fill="midnightblue" stroke="midnightblue" points="1098.18,-30.2 1098.06,-19.61 1091.55,-27.96 1098.18,-30.2"/>
</g>
<!-- Node27 -->
<g id="node27" class="node">
<title>Node27</title>
<g id="a_node27"><a xlink:href="_ray_8hpp.html" target="_top" xlink:title=" ">
<polygon fill="white" stroke="black" points="1094.5,-56.5 1094.5,-75.5 1177.5,-75.5 1177.5,-56.5 1094.5,-56.5"/>
<text text-anchor="middle" x="1136" y="-63.5" font-family="Helvetica,sans-Serif" font-size="10.00">Math/Ray.hpp</text>
</a>
</g>
</g>
<!-- Node26&#45;&gt;Node27 -->
<g id="edge40" class="edge">
<title>Node26&#45;&gt;Node27</title>
<path fill="none" stroke="midnightblue" d="M1077.25,-112.32C1087.8,-104.18 1103.8,-91.84 1116.44,-82.09"/>
<polygon fill="midnightblue" stroke="midnightblue" points="1118.77,-84.71 1124.55,-75.83 1114.49,-79.17 1118.77,-84.71"/>
</g>
<!-- Node27&#45;&gt;Node11 -->
<g id="edge41" class="edge">
<title>Node27&#45;&gt;Node11</title>
<path fill="none" stroke="midnightblue" d="M1130.22,-56.08C1125.33,-48.53 1118.17,-37.49 1112.17,-28.23"/>
<polygon fill="midnightblue" stroke="midnightblue" points="1115.05,-26.24 1106.67,-19.75 1109.17,-30.05 1115.05,-26.24"/>
</g>
<!-- Node28&#45;&gt;Node11 -->
<g id="edge43" class="edge">
<title>Node28&#45;&gt;Node11</title>
<path fill="none" stroke="midnightblue" d="M846.97,-112.36C876.4,-99.68 933.21,-75.45 982,-56 1010.9,-44.48 1044.03,-32.01 1067.98,-23.13"/>
<polygon fill="midnightblue" stroke="midnightblue" points="1069.48,-26.3 1077.65,-19.55 1067.05,-19.74 1069.48,-26.3"/>
</g>
<!-- Node28&#45;&gt;Node15 -->
<g id="edge44" class="edge">
<title>Node28&#45;&gt;Node15</title>
<path fill="none" stroke="midnightblue" d="M813.66,-112.32C800.84,-103.98 781.22,-91.21 766.06,-81.35"/>
<polygon fill="midnightblue" stroke="midnightblue" points="767.59,-78.17 757.3,-75.65 763.78,-84.04 767.59,-78.17"/>
</g>
<!-- Node29&#45;&gt;Node11 -->
<g id="edge47" class="edge">
<title>Node29&#45;&gt;Node11</title>
<path fill="none" stroke="midnightblue" d="M1802.49,-224.41C1821.96,-217.49 1846.39,-205.91 1862,-188 1884.88,-161.76 1903.98,-138.15 1881,-112 1832.52,-56.83 1314.59,-23.05 1150.54,-13.68"/>
<polygon fill="midnightblue" stroke="midnightblue" points="1150.43,-10.17 1140.25,-13.1 1150.04,-17.16 1150.43,-10.17"/>
</g>
<!-- Node29&#45;&gt;Node18 -->
<g id="edge50" class="edge">
<title>Node29&#45;&gt;Node18</title>
<path fill="none" stroke="midnightblue" d="M1733.18,-224.44C1690.44,-215.02 1621.67,-199.87 1575.43,-189.68"/>
<polygon fill="midnightblue" stroke="midnightblue" points="1576.16,-186.25 1565.64,-187.52 1574.65,-193.09 1576.16,-186.25"/>
</g>
<!-- Node29&#45;&gt;Node20 -->
<g id="edge48" class="edge">
<title>Node29&#45;&gt;Node20</title>
<path fill="none" stroke="midnightblue" d="M1772,-224.37C1772,-206.62 1772,-165.67 1772,-141.6"/>
<polygon fill="midnightblue" stroke="midnightblue" points="1775.5,-141.59 1772,-131.59 1768.5,-141.59 1775.5,-141.59"/>
</g>
<!-- Node29&#45;&gt;Node27 -->
<g id="edge49" class="edge">
<title>Node29&#45;&gt;Node27</title>
<path fill="none" stroke="midnightblue" d="M1787.04,-224.44C1821.3,-203.92 1899.46,-150.78 1863,-112 1839.91,-87.43 1350.52,-72.56 1187.97,-68.29"/>
<polygon fill="midnightblue" stroke="midnightblue" points="1187.83,-64.78 1177.74,-68.02 1187.65,-71.78 1187.83,-64.78"/>
</g>
<!-- Node30&#45;&gt;Node11 -->
<g id="edge54" class="edge">
<title>Node30&#45;&gt;Node11</title>
<path fill="none" stroke="midnightblue" d="M1264.24,-168.4C1265.69,-155.35 1266.78,-130.16 1257,-112 1232.14,-65.85 1176,-37.59 1138.29,-23.11"/>
<polygon fill="midnightblue" stroke="midnightblue" points="1139.26,-19.73 1128.66,-19.55 1136.83,-26.3 1139.26,-19.73"/>
</g>
<!-- Node30&#45;&gt;Node12 -->
<g id="edge52" class="edge">
<title>Node30&#45;&gt;Node12</title>
<path fill="none" stroke="midnightblue" d="M1244.78,-168.44C1226.1,-159.68 1196.84,-145.94 1175.38,-135.86"/>
<polygon fill="midnightblue" stroke="midnightblue" points="1176.68,-132.6 1166.14,-131.52 1173.7,-138.93 1176.68,-132.6"/>
</g>
<!-- Node30&#45;&gt;Node21 -->
<g id="edge55" class="edge">
<title>Node30&#45;&gt;Node21</title>
<path fill="none" stroke="midnightblue" d="M1283.92,-168.44C1305.74,-159.52 1340.15,-145.44 1364.89,-135.32"/>
<polygon fill="midnightblue" stroke="midnightblue" points="1366.25,-138.54 1374.18,-131.52 1363.6,-132.06 1366.25,-138.54"/>
</g>
<!-- Node30&#45;&gt;Node23 -->
<g id="edge53" class="edge">
<title>Node30&#45;&gt;Node23</title>
<path fill="none" stroke="midnightblue" d="M1255.57,-168.08C1249.15,-160.38 1239.69,-149.03 1231.88,-139.65"/>
<polygon fill="midnightblue" stroke="midnightblue" points="1234.38,-137.19 1225.29,-131.75 1229.01,-141.67 1234.38,-137.19"/>
</g>
</g>
</svg>
