<?xml version="1.0" encoding="UTF-8" standalone="no"?>
<!DOCTYPE svg PUBLIC "-//W3C//DTD SVG 1.1//EN"
 "http://www.w3.org/Graphics/SVG/1.1/DTD/svg11.dtd">
<!-- Generated by graphviz version 2.43.0 (0)
 -->
<!-- Title: src/Components/ModelComponent.hpp Pages: 1 -->
<svg width="696pt" height="252pt"
 viewBox="0.00 0.00 696.00 252.00" xmlns="http://www.w3.org/2000/svg" xmlns:xlink="http://www.w3.org/1999/xlink">
<g id="graph0" class="graph" transform="scale(1 1) rotate(0) translate(4 248)">
<title>src/Components/ModelComponent.hpp</title>
<polygon fill="white" stroke="transparent" points="-4,4 -4,-248 692,-248 692,4 -4,4"/>
<!-- Node1 -->
<g id="node1" class="node">
<title>Node1</title>
<g id="a_node1"><a xlink:title=" ">
<polygon fill="#bfbfbf" stroke="black" points="135,-224.5 135,-243.5 341,-243.5 341,-224.5 135,-224.5"/>
<text text-anchor="middle" x="238" y="-231.5" font-family="Helvetica,sans-Serif" font-size="10.00">src/Components/ModelComponent.hpp</text>
</a>
</g>
</g>
<!-- Node2 -->
<g id="node2" class="node">
<title>Node2</title>
<g id="a_node2"><a xlink:title=" ">
<polygon fill="white" stroke="#bfbfbf" points="0,-112.5 0,-131.5 44,-131.5 44,-112.5 0,-112.5"/>
<text text-anchor="middle" x="22" y="-119.5" font-family="Helvetica,sans-Serif" font-size="10.00">string</text>
</a>
</g>
</g>
<!-- Node1&#45;&gt;Node2 -->
<g id="edge1" class="edge">
<title>Node1&#45;&gt;Node2</title>
<path fill="none" stroke="midnightblue" d="M181.92,-224.48C150.79,-217.94 112.34,-206.73 82,-188 61.87,-175.57 44.24,-154.57 33.39,-139.81"/>
<polygon fill="midnightblue" stroke="midnightblue" points="36.19,-137.7 27.55,-131.56 30.47,-141.74 36.19,-137.7"/>
</g>
<!-- Node3 -->
<g id="node3" class="node">
<title>Node3</title>
<g id="a_node3"><a xlink:title=" ">
<polygon fill="white" stroke="#bfbfbf" points="91,-168.5 91,-187.5 151,-187.5 151,-168.5 91,-168.5"/>
<text text-anchor="middle" x="121" y="-175.5" font-family="Helvetica,sans-Serif" font-size="10.00">iostream</text>
</a>
</g>
</g>
<!-- Node1&#45;&gt;Node3 -->
<g id="edge2" class="edge">
<title>Node1&#45;&gt;Node3</title>
<path fill="none" stroke="midnightblue" d="M219.46,-224.44C200.38,-215.64 170.43,-201.81 148.56,-191.72"/>
<polygon fill="midnightblue" stroke="midnightblue" points="150,-188.53 139.45,-187.52 147.07,-194.88 150,-188.53"/>
</g>
<!-- Node4 -->
<g id="node4" class="node">
<title>Node4</title>
<g id="a_node4"><a xlink:href="_mesh_8hpp.html" target="_top" xlink:title=" ">
<polygon fill="white" stroke="black" points="169.5,-168.5 169.5,-187.5 306.5,-187.5 306.5,-168.5 169.5,-168.5"/>
<text text-anchor="middle" x="238" y="-175.5" font-family="Helvetica,sans-Serif" font-size="10.00">AssetManager/Mesh.hpp</text>
</a>
</g>
</g>
<!-- Node1&#45;&gt;Node4 -->
<g id="edge3" class="edge">
<title>Node1&#45;&gt;Node4</title>
<path fill="none" stroke="midnightblue" d="M238,-224.08C238,-217.01 238,-206.86 238,-197.99"/>
<polygon fill="midnightblue" stroke="midnightblue" points="241.5,-197.75 238,-187.75 234.5,-197.75 241.5,-197.75"/>
</g>
<!-- Node12 -->
<g id="node12" class="node">
<title>Node12</title>
<g id="a_node12"><a xlink:href="_material_8hpp.html" target="_top" xlink:title=" ">
<polygon fill="white" stroke="black" points="336.5,-168.5 336.5,-187.5 487.5,-187.5 487.5,-168.5 336.5,-168.5"/>
<text text-anchor="middle" x="412" y="-175.5" font-family="Helvetica,sans-Serif" font-size="10.00">AssetManager/Material.hpp</text>
</a>
</g>
</g>
<!-- Node1&#45;&gt;Node12 -->
<g id="edge14" class="edge">
<title>Node1&#45;&gt;Node12</title>
<path fill="none" stroke="midnightblue" d="M265.57,-224.44C295.1,-215.28 342.12,-200.69 374.88,-190.52"/>
<polygon fill="midnightblue" stroke="midnightblue" points="376.04,-193.82 384.56,-187.52 373.97,-187.14 376.04,-193.82"/>
</g>
<!-- Node13 -->
<g id="node13" class="node">
<title>Node13</title>
<g id="a_node13"><a xlink:href="_base_component_8hpp.html" target="_top" xlink:title=" ">
<polygon fill="white" stroke="black" points="506,-168.5 506,-187.5 688,-187.5 688,-168.5 506,-168.5"/>
<text text-anchor="middle" x="597" y="-175.5" font-family="Helvetica,sans-Serif" font-size="10.00">Components/BaseComponent.hpp</text>
</a>
</g>
</g>
<!-- Node1&#45;&gt;Node13 -->
<g id="edge17" class="edge">
<title>Node1&#45;&gt;Node13</title>
<path fill="none" stroke="midnightblue" d="M294.88,-224.44C358.82,-214.83 462.52,-199.23 530.25,-189.04"/>
<polygon fill="midnightblue" stroke="midnightblue" points="531.01,-192.47 540.38,-187.52 529.97,-185.54 531.01,-192.47"/>
</g>
<!-- Node4&#45;&gt;Node2 -->
<g id="edge7" class="edge">
<title>Node4&#45;&gt;Node2</title>
<path fill="none" stroke="midnightblue" d="M203.77,-168.44C162.63,-158.16 94.12,-141.03 53.99,-131"/>
<polygon fill="midnightblue" stroke="midnightblue" points="54.75,-127.58 44.2,-128.55 53.05,-134.37 54.75,-127.58"/>
</g>
<!-- Node5 -->
<g id="node5" class="node">
<title>Node5</title>
<g id="a_node5"><a xlink:title=" ">
<polygon fill="white" stroke="#bfbfbf" points="122,-0.5 122,-19.5 200,-19.5 200,-0.5 122,-0.5"/>
<text text-anchor="middle" x="161" y="-7.5" font-family="Helvetica,sans-Serif" font-size="10.00">glm/glm.hpp</text>
</a>
</g>
</g>
<!-- Node4&#45;&gt;Node5 -->
<g id="edge4" class="edge">
<title>Node4&#45;&gt;Node5</title>
<path fill="none" stroke="midnightblue" d="M189,-168.44C151,-160.69 102.86,-148.04 91,-132 64.47,-96.13 112.15,-49.37 141.13,-25.87"/>
<polygon fill="midnightblue" stroke="midnightblue" points="143.38,-28.55 149.08,-19.62 139.05,-23.05 143.38,-28.55"/>
</g>
<!-- Node6 -->
<g id="node6" class="node">
<title>Node6</title>
<g id="a_node6"><a xlink:title=" ">
<polygon fill="white" stroke="#bfbfbf" points="202.5,-112.5 202.5,-131.5 273.5,-131.5 273.5,-112.5 202.5,-112.5"/>
<text text-anchor="middle" x="238" y="-119.5" font-family="Helvetica,sans-Serif" font-size="10.00">glad/glad.h</text>
</a>
</g>
</g>
<!-- Node4&#45;&gt;Node6 -->
<g id="edge5" class="edge">
<title>Node4&#45;&gt;Node6</title>
<path fill="none" stroke="midnightblue" d="M238,-168.08C238,-161.01 238,-150.86 238,-141.99"/>
<polygon fill="midnightblue" stroke="midnightblue" points="241.5,-141.75 238,-131.75 234.5,-141.75 241.5,-141.75"/>
</g>
<!-- Node7 -->
<g id="node7" class="node">
<title>Node7</title>
<g id="a_node7"><a xlink:title=" ">
<polygon fill="white" stroke="#bfbfbf" points="291.5,-112.5 291.5,-131.5 338.5,-131.5 338.5,-112.5 291.5,-112.5"/>
<text text-anchor="middle" x="315" y="-119.5" font-family="Helvetica,sans-Serif" font-size="10.00">vector</text>
</a>
</g>
</g>
<!-- Node4&#45;&gt;Node7 -->
<g id="edge6" class="edge">
<title>Node4&#45;&gt;Node7</title>
<path fill="none" stroke="midnightblue" d="M250.37,-168.32C262.16,-160.06 280.13,-147.45 294.14,-137.63"/>
<polygon fill="midnightblue" stroke="midnightblue" points="296.48,-140.26 302.66,-131.65 292.46,-134.53 296.48,-140.26"/>
</g>
<!-- Node8 -->
<g id="node8" class="node">
<title>Node8</title>
<g id="a_node8"><a xlink:href="_asset_8hpp.html" target="_top" xlink:title=" ">
<polygon fill="white" stroke="black" points="356.5,-112.5 356.5,-131.5 493.5,-131.5 493.5,-112.5 356.5,-112.5"/>
<text text-anchor="middle" x="425" y="-119.5" font-family="Helvetica,sans-Serif" font-size="10.00">AssetManager/Asset.hpp</text>
</a>
</g>
</g>
<!-- Node4&#45;&gt;Node8 -->
<g id="edge8" class="edge">
<title>Node4&#45;&gt;Node8</title>
<path fill="none" stroke="midnightblue" d="M267.63,-168.44C299.5,-159.24 350.33,-144.56 385.56,-134.39"/>
<polygon fill="midnightblue" stroke="midnightblue" points="386.87,-137.65 395.51,-131.52 384.93,-130.93 386.87,-137.65"/>
</g>
<!-- Node10 -->
<g id="node10" class="node">
<title>Node10</title>
<g id="a_node10"><a xlink:href="_box_8hpp.html" target="_top" xlink:title=" ">
<polygon fill="white" stroke="black" points="100,-112.5 100,-131.5 184,-131.5 184,-112.5 100,-112.5"/>
<text text-anchor="middle" x="142" y="-119.5" font-family="Helvetica,sans-Serif" font-size="10.00">Math/Box.hpp</text>
</a>
</g>
</g>
<!-- Node4&#45;&gt;Node10 -->
<g id="edge10" class="edge">
<title>Node4&#45;&gt;Node10</title>
<path fill="none" stroke="midnightblue" d="M222.58,-168.32C207.46,-159.82 184.18,-146.73 166.53,-136.8"/>
<polygon fill="midnightblue" stroke="midnightblue" points="167.82,-133.51 157.39,-131.65 164.39,-139.61 167.82,-133.51"/>
</g>
<!-- Node9 -->
<g id="node9" class="node">
<title>Node9</title>
<g id="a_node9"><a xlink:title=" ">
<polygon fill="white" stroke="#bfbfbf" points="391,-56.5 391,-75.5 459,-75.5 459,-56.5 391,-56.5"/>
<text text-anchor="middle" x="425" y="-63.5" font-family="Helvetica,sans-Serif" font-size="10.00">filesystem</text>
</a>
</g>
</g>
<!-- Node8&#45;&gt;Node9 -->
<g id="edge9" class="edge">
<title>Node8&#45;&gt;Node9</title>
<path fill="none" stroke="midnightblue" d="M425,-112.08C425,-105.01 425,-94.86 425,-85.99"/>
<polygon fill="midnightblue" stroke="midnightblue" points="428.5,-85.75 425,-75.75 421.5,-85.75 428.5,-85.75"/>
</g>
<!-- Node10&#45;&gt;Node5 -->
<g id="edge11" class="edge">
<title>Node10&#45;&gt;Node5</title>
<path fill="none" stroke="midnightblue" d="M141.6,-112.49C141.19,-99.98 141.08,-75.95 145,-56 146.78,-46.95 150.03,-37.27 153.14,-29.21"/>
<polygon fill="midnightblue" stroke="midnightblue" points="156.47,-30.33 157.02,-19.75 149.99,-27.68 156.47,-30.33"/>
</g>
<!-- Node11 -->
<g id="node11" class="node">
<title>Node11</title>
<g id="a_node11"><a xlink:href="_ray_8hpp.html" target="_top" xlink:title=" ">
<polygon fill="white" stroke="black" points="154.5,-56.5 154.5,-75.5 237.5,-75.5 237.5,-56.5 154.5,-56.5"/>
<text text-anchor="middle" x="196" y="-63.5" font-family="Helvetica,sans-Serif" font-size="10.00">Math/Ray.hpp</text>
</a>
</g>
</g>
<!-- Node10&#45;&gt;Node11 -->
<g id="edge12" class="edge">
<title>Node10&#45;&gt;Node11</title>
<path fill="none" stroke="midnightblue" d="M150.92,-112.08C158.78,-104.22 170.43,-92.57 179.92,-83.08"/>
<polygon fill="midnightblue" stroke="midnightblue" points="182.65,-85.3 187.25,-75.75 177.7,-80.35 182.65,-85.3"/>
</g>
<!-- Node11&#45;&gt;Node5 -->
<g id="edge13" class="edge">
<title>Node11&#45;&gt;Node5</title>
<path fill="none" stroke="midnightblue" d="M190.22,-56.08C185.33,-48.53 178.17,-37.49 172.17,-28.23"/>
<polygon fill="midnightblue" stroke="midnightblue" points="175.05,-26.24 166.67,-19.75 169.17,-30.05 175.05,-26.24"/>
</g>
<!-- Node12&#45;&gt;Node5 -->
<g id="edge15" class="edge">
<title>Node12&#45;&gt;Node5</title>
<path fill="none" stroke="midnightblue" d="M449.1,-168.46C468.44,-161.92 490.43,-150.72 502,-132 519.88,-103.07 476.61,-61.71 468,-56 426.67,-28.61 286.03,-17.34 210.28,-13.17"/>
<polygon fill="midnightblue" stroke="midnightblue" points="210.21,-9.66 200.04,-12.63 209.84,-16.65 210.21,-9.66"/>
</g>
<!-- Node12&#45;&gt;Node8 -->
<g id="edge16" class="edge">
<title>Node12&#45;&gt;Node8</title>
<path fill="none" stroke="midnightblue" d="M414.15,-168.08C415.87,-160.93 418.35,-150.64 420.5,-141.69"/>
<polygon fill="midnightblue" stroke="midnightblue" points="423.96,-142.29 422.89,-131.75 417.15,-140.65 423.96,-142.29"/>
</g>
</g>
</svg>
