<?xml version="1.0" encoding="UTF-8" standalone="no"?>
<!DOCTYPE svg PUBLIC "-//W3C//DTD SVG 1.1//EN"
 "http://www.w3.org/Graphics/SVG/1.1/DTD/svg11.dtd">
<!-- Generated by graphviz version 2.43.0 (0)
 -->
<!-- Title: src/Components/ModelComponent.hpp Pages: 1 -->
<svg width="1558pt" height="423pt"
 viewBox="0.00 0.00 1557.50 423.00" xmlns="http://www.w3.org/2000/svg" xmlns:xlink="http://www.w3.org/1999/xlink">
<g id="graph0" class="graph" transform="scale(1 1) rotate(0) translate(4 419)">
<title>src/Components/ModelComponent.hpp</title>
<!-- Node1 -->
<g id="Node000001" class="node">
<title>Node1</title>
<g id="a_Node000001"><a xlink:title=" ">
<polygon fill="#999999" stroke="#666666" points="513,-415 307,-415 307,-396 513,-396 513,-415"/>
<text text-anchor="middle" x="410" y="-403" font-family="Helvetica,sans-Serif" font-size="10.00">src/Components/ModelComponent.hpp</text>
</a>
</g>
</g>
<!-- Node2 -->
<g id="Node000002" class="node">
<title>Node2</title>
<g id="a_Node000002"><a xlink:title=" ">
<polygon fill="#e0e0e0" stroke="#999999" points="44,-305 0,-305 0,-286 44,-286 44,-305"/>
<text text-anchor="middle" x="22" y="-293" font-family="Helvetica,sans-Serif" font-size="10.00">string</text>
</a>
</g>
</g>
<!-- Node1&#45;&gt;Node2 -->
<g id="edge1_Node000001_Node000002" class="edge">
<title>Node1&#45;&gt;Node2</title>
<g id="a_edge1_Node000001_Node000002"><a xlink:title=" ">
<path fill="none" stroke="#63b8ff" d="M329.16,-395.98C278.58,-389.27 212.53,-377.98 156,-360 115.58,-347.14 71.68,-324.53 45.53,-310.05"/>
<polygon fill="#63b8ff" stroke="#63b8ff" points="47.16,-306.95 36.73,-305.11 43.74,-313.06 47.16,-306.95"/>
</a>
</g>
</g>
<!-- Node3 -->
<g id="Node000003" class="node">
<title>Node3</title>
<g id="a_Node000003"><a xlink:title=" ">
<polygon fill="#e0e0e0" stroke="#999999" points="764,-360 704,-360 704,-341 764,-341 764,-360"/>
<text text-anchor="middle" x="734" y="-348" font-family="Helvetica,sans-Serif" font-size="10.00">iostream</text>
</a>
</g>
</g>
<!-- Node1&#45;&gt;Node3 -->
<g id="edge2_Node000001_Node000003" class="edge">
<title>Node1&#45;&gt;Node3</title>
<g id="a_edge2_Node000001_Node000003"><a xlink:title=" ">
<path fill="none" stroke="#63b8ff" d="M471.61,-395.96C527.2,-388.02 611.43,-375.36 693.77,-360.14"/>
<polygon fill="#63b8ff" stroke="#63b8ff" points="694.61,-363.54 703.8,-358.27 693.33,-356.66 694.61,-363.54"/>
</a>
</g>
</g>
<!-- Node4 -->
<g id="Node000004" class="node">
<title>Node4</title>
<g id="a_Node000004"><a xlink:href="_mesh_8hpp.html" target="_top" xlink:title=" ">
<polygon fill="white" stroke="#666666" points="302.5,-360 165.5,-360 165.5,-341 302.5,-341 302.5,-360"/>
<text text-anchor="middle" x="234" y="-348" font-family="Helvetica,sans-Serif" font-size="10.00">AssetManager/Mesh.hpp</text>
</a>
</g>
</g>
<!-- Node1&#45;&gt;Node4 -->
<g id="edge3_Node000001_Node000004" class="edge">
<title>Node1&#45;&gt;Node4</title>
<g id="a_edge3_Node000001_Node000004"><a xlink:title=" ">
<path fill="none" stroke="#63b8ff" d="M381.72,-395.98C352.05,-387.05 305.21,-372.94 272.25,-363.02"/>
<polygon fill="#63b8ff" stroke="#63b8ff" points="273.08,-359.61 262.5,-360.08 271.07,-366.32 273.08,-359.61"/>
</a>
</g>
</g>
<!-- Node12 -->
<g id="Node000012" class="node">
<title>Node12</title>
<g id="a_Node000012"><a xlink:href="_material_8hpp.html" target="_top" xlink:title=" ">
<polygon fill="white" stroke="#666666" points="485.5,-360 334.5,-360 334.5,-341 485.5,-341 485.5,-360"/>
<text text-anchor="middle" x="410" y="-348" font-family="Helvetica,sans-Serif" font-size="10.00">AssetManager/Material.hpp</text>
</a>
</g>
</g>
<!-- Node1&#45;&gt;Node12 -->
<g id="edge14_Node000001_Node000012" class="edge">
<title>Node1&#45;&gt;Node12</title>
<g id="a_edge14_Node000001_Node000012"><a xlink:title=" ">
<path fill="none" stroke="#63b8ff" d="M410,-395.75C410,-388.8 410,-378.85 410,-370.13"/>
<polygon fill="#63b8ff" stroke="#63b8ff" points="413.5,-370.09 410,-360.09 406.5,-370.09 413.5,-370.09"/>
</a>
</g>
</g>
<!-- Node29 -->
<g id="Node000029" class="node">
<title>Node29</title>
<g id="a_Node000029"><a xlink:href="_base_component_8hpp.html" target="_top" xlink:title=" ">
<polygon fill="white" stroke="#666666" points="686,-360 504,-360 504,-341 686,-341 686,-360"/>
<text text-anchor="middle" x="595" y="-348" font-family="Helvetica,sans-Serif" font-size="10.00">Components/BaseComponent.hpp</text>
</a>
</g>
</g>
<!-- Node1&#45;&gt;Node29 -->
<g id="edge43_Node000001_Node000029" class="edge">
<title>Node1&#45;&gt;Node29</title>
<g id="a_edge43_Node000001_Node000029"><a xlink:title=" ">
<path fill="none" stroke="#63b8ff" d="M439.72,-395.98C471.05,-387.01 520.57,-372.82 555.24,-362.89"/>
<polygon fill="#63b8ff" stroke="#63b8ff" points="556.39,-366.2 565.04,-360.08 554.47,-359.47 556.39,-366.2"/>
</a>
</g>
</g>
<!-- Node4&#45;&gt;Node2 -->
<g id="edge7_Node000004_Node000002" class="edge">
<title>Node4&#45;&gt;Node2</title>
<g id="a_edge7_Node000004_Node000002"><a xlink:title=" ">
<path fill="none" stroke="#63b8ff" d="M198.21,-341C163.72,-332.74 109.81,-319.66 54.34,-305.3"/>
<polygon fill="#63b8ff" stroke="#63b8ff" points="54.89,-301.83 44.33,-302.7 53.13,-308.6 54.89,-301.83"/>
</a>
</g>
</g>
<!-- Node5 -->
<g id="Node000005" class="node">
<title>Node5</title>
<g id="a_Node000005"><a xlink:title=" ">
<polygon fill="#e0e0e0" stroke="#999999" points="221,-189.5 143,-189.5 143,-170.5 221,-170.5 221,-189.5"/>
<text text-anchor="middle" x="182" y="-177.5" font-family="Helvetica,sans-Serif" font-size="10.00">glm/glm.hpp</text>
</a>
</g>
</g>
<!-- Node4&#45;&gt;Node5 -->
<g id="edge4_Node000004_Node000005" class="edge">
<title>Node4&#45;&gt;Node5</title>
<g id="a_edge4_Node000004_Node000005"><a xlink:title=" ">
<path fill="none" stroke="#63b8ff" d="M225.47,-340.77C217.77,-332.34 206.77,-318.85 201,-305 186.38,-269.95 182.86,-225.11 182.11,-200.09"/>
<polygon fill="#63b8ff" stroke="#63b8ff" points="185.6,-199.74 181.92,-189.8 178.6,-199.87 185.6,-199.74"/>
</a>
</g>
</g>
<!-- Node6 -->
<g id="Node000006" class="node">
<title>Node6</title>
<g id="a_Node000006"><a xlink:title=" ">
<polygon fill="#e0e0e0" stroke="#999999" points="321.5,-250 250.5,-250 250.5,-231 321.5,-231 321.5,-250"/>
<text text-anchor="middle" x="286" y="-238" font-family="Helvetica,sans-Serif" font-size="10.00">glad/glad.h</text>
</a>
</g>
</g>
<!-- Node4&#45;&gt;Node6 -->
<g id="edge5_Node000004_Node000006" class="edge">
<title>Node4&#45;&gt;Node6</title>
<g id="a_edge5_Node000004_Node000006"><a xlink:title=" ">
<path fill="none" stroke="#63b8ff" d="M241.52,-340.84C248.66,-332.24 259.27,-318.44 266,-305 273.21,-290.61 278.49,-273.09 281.81,-260.1"/>
<polygon fill="#63b8ff" stroke="#63b8ff" points="285.29,-260.59 284.22,-250.05 278.49,-258.96 285.29,-260.59"/>
</a>
</g>
</g>
<!-- Node7 -->
<g id="Node000007" class="node">
<title>Node7</title>
<g id="a_Node000007"><a xlink:title=" ">
<polygon fill="#e0e0e0" stroke="#999999" points="257.5,-305 210.5,-305 210.5,-286 257.5,-286 257.5,-305"/>
<text text-anchor="middle" x="234" y="-293" font-family="Helvetica,sans-Serif" font-size="10.00">vector</text>
</a>
</g>
</g>
<!-- Node4&#45;&gt;Node7 -->
<g id="edge6_Node000004_Node000007" class="edge">
<title>Node4&#45;&gt;Node7</title>
<g id="a_edge6_Node000004_Node000007"><a xlink:title=" ">
<path fill="none" stroke="#63b8ff" d="M234,-340.75C234,-333.8 234,-323.85 234,-315.13"/>
<polygon fill="#63b8ff" stroke="#63b8ff" points="237.5,-315.09 234,-305.09 230.5,-315.09 237.5,-315.09"/>
</a>
</g>
</g>
<!-- Node8 -->
<g id="Node000008" class="node">
<title>Node8</title>
<g id="a_Node000008"><a xlink:href="_path_constructible_asset_8hpp.html" target="_top" xlink:title=" ">
<polygon fill="white" stroke="#666666" points="619.5,-195 444.5,-195 444.5,-165 619.5,-165 619.5,-195"/>
<text text-anchor="start" x="452.5" y="-183" font-family="Helvetica,sans-Serif" font-size="10.00">AssetManager/PathConstructible</text>
<text text-anchor="middle" x="532" y="-172" font-family="Helvetica,sans-Serif" font-size="10.00">Asset.hpp</text>
</a>
</g>
</g>
<!-- Node4&#45;&gt;Node8 -->
<g id="edge8_Node000004_Node000008" class="edge">
<title>Node4&#45;&gt;Node8</title>
<g id="a_edge8_Node000004_Node000008"><a xlink:title=" ">
<path fill="none" stroke="#63b8ff" d="M302.72,-341.9C378.34,-332.97 491.34,-317.76 507,-305 535.98,-281.38 537.47,-234.33 535.22,-205.47"/>
<polygon fill="#63b8ff" stroke="#63b8ff" points="538.69,-204.99 534.22,-195.38 531.72,-205.68 538.69,-204.99"/>
</a>
</g>
</g>
<!-- Node10 -->
<g id="Node000010" class="node">
<title>Node10</title>
<g id="a_Node000010"><a xlink:href="_a_a_b_b_8hpp.html" target="_top" xlink:title=" ">
<polygon fill="white" stroke="#666666" points="154,-305 62,-305 62,-286 154,-286 154,-305"/>
<text text-anchor="middle" x="108" y="-293" font-family="Helvetica,sans-Serif" font-size="10.00">Math/AABB.hpp</text>
</a>
</g>
</g>
<!-- Node4&#45;&gt;Node10 -->
<g id="edge10_Node000004_Node000010" class="edge">
<title>Node4&#45;&gt;Node10</title>
<g id="a_edge10_Node000004_Node000010"><a xlink:title=" ">
<path fill="none" stroke="#63b8ff" d="M213.76,-340.98C193.3,-332.38 161.47,-318.99 138.07,-309.15"/>
<polygon fill="#63b8ff" stroke="#63b8ff" points="139.19,-305.82 128.61,-305.17 136.47,-312.27 139.19,-305.82"/>
</a>
</g>
</g>
<!-- Node9 -->
<g id="Node000009" class="node">
<title>Node9</title>
<g id="a_Node000009"><a xlink:title=" ">
<polygon fill="#e0e0e0" stroke="#999999" points="624,-129 556,-129 556,-110 624,-110 624,-129"/>
<text text-anchor="middle" x="590" y="-117" font-family="Helvetica,sans-Serif" font-size="10.00">filesystem</text>
</a>
</g>
</g>
<!-- Node8&#45;&gt;Node9 -->
<g id="edge9_Node000008_Node000009" class="edge">
<title>Node8&#45;&gt;Node9</title>
<g id="a_edge9_Node000008_Node000009"><a xlink:title=" ">
<path fill="none" stroke="#63b8ff" d="M546.04,-164.84C554.55,-156.26 565.41,-145.3 574.22,-136.42"/>
<polygon fill="#63b8ff" stroke="#63b8ff" points="576.75,-138.83 581.31,-129.27 571.78,-133.9 576.75,-138.83"/>
</a>
</g>
</g>
<!-- Node10&#45;&gt;Node5 -->
<g id="edge11_Node000010_Node000005" class="edge">
<title>Node10&#45;&gt;Node5</title>
<g id="a_edge11_Node000010_Node000005"><a xlink:title=" ">
<path fill="none" stroke="#63b8ff" d="M113.56,-285.97C125.67,-267.4 154.61,-223.01 170.71,-198.32"/>
<polygon fill="#63b8ff" stroke="#63b8ff" points="173.84,-199.92 176.37,-189.63 167.98,-196.1 173.84,-199.92"/>
</a>
</g>
</g>
<!-- Node11 -->
<g id="Node000011" class="node">
<title>Node11</title>
<g id="a_Node000011"><a xlink:href="_ray_8hpp.html" target="_top" xlink:title=" ">
<polygon fill="white" stroke="#666666" points="115.5,-250 32.5,-250 32.5,-231 115.5,-231 115.5,-250"/>
<text text-anchor="middle" x="74" y="-238" font-family="Helvetica,sans-Serif" font-size="10.00">Math/Ray.hpp</text>
</a>
</g>
</g>
<!-- Node10&#45;&gt;Node11 -->
<g id="edge12_Node000010_Node000011" class="edge">
<title>Node10&#45;&gt;Node11</title>
<g id="a_edge12_Node000010_Node000011"><a xlink:title=" ">
<path fill="none" stroke="#63b8ff" d="M102.39,-285.75C97.68,-278.42 90.83,-267.73 85.03,-258.7"/>
<polygon fill="#63b8ff" stroke="#63b8ff" points="87.86,-256.62 79.51,-250.09 81.96,-260.4 87.86,-256.62"/>
</a>
</g>
</g>
<!-- Node11&#45;&gt;Node5 -->
<g id="edge13_Node000011_Node000005" class="edge">
<title>Node11&#45;&gt;Node5</title>
<g id="a_edge13_Node000011_Node000005"><a xlink:title=" ">
<path fill="none" stroke="#63b8ff" d="M89.94,-230.87C107.64,-221.28 136.46,-205.67 157.14,-194.47"/>
<polygon fill="#63b8ff" stroke="#63b8ff" points="158.87,-197.51 166,-189.67 155.54,-191.35 158.87,-197.51"/>
</a>
</g>
</g>
<!-- Node12&#45;&gt;Node5 -->
<g id="edge15_Node000012_Node000005" class="edge">
<title>Node12&#45;&gt;Node5</title>
<g id="a_edge15_Node000012_Node000005"><a xlink:title=" ">
<path fill="none" stroke="#63b8ff" d="M391.21,-341C358.56,-325.69 290.18,-291.23 241,-250 222.6,-234.57 205.2,-213.06 194.13,-198.18"/>
<polygon fill="#63b8ff" stroke="#63b8ff" points="196.81,-195.92 188.1,-189.88 191.15,-200.03 196.81,-195.92"/>
</a>
</g>
</g>
<!-- Node13 -->
<g id="Node000013" class="node">
<title>Node13</title>
<g id="a_Node000013"><a xlink:href="_asset_8hpp.html" target="_top" xlink:title=" ">
<polygon fill="white" stroke="#666666" points="713.5,-305 576.5,-305 576.5,-286 713.5,-286 713.5,-305"/>
<text text-anchor="middle" x="645" y="-293" font-family="Helvetica,sans-Serif" font-size="10.00">AssetManager/Asset.hpp</text>
</a>
</g>
</g>
<!-- Node12&#45;&gt;Node13 -->
<g id="edge16_Node000012_Node000013" class="edge">
<title>Node12&#45;&gt;Node13</title>
<g id="a_edge16_Node000012_Node000013"><a xlink:title=" ">
<path fill="none" stroke="#63b8ff" d="M447.76,-340.98C488.32,-331.84 552.89,-317.27 597.03,-307.32"/>
<polygon fill="#63b8ff" stroke="#63b8ff" points="597.96,-310.7 606.95,-305.08 596.42,-303.87 597.96,-310.7"/>
</a>
</g>
</g>
<!-- Node27 -->
<g id="Node000027" class="node">
<title>Node27</title>
<g id="a_Node000027"><a xlink:href="_texture_8hpp.html" target="_top" xlink:title=" ">
<polygon fill="white" stroke="#666666" points="498,-305 352,-305 352,-286 498,-286 498,-305"/>
<text text-anchor="middle" x="425" y="-293" font-family="Helvetica,sans-Serif" font-size="10.00">AssetManager/Texture.hpp</text>
</a>
</g>
</g>
<!-- Node12&#45;&gt;Node27 -->
<g id="edge37_Node000012_Node000027" class="edge">
<title>Node12&#45;&gt;Node27</title>
<g id="a_edge37_Node000012_Node000027"><a xlink:title=" ">
<path fill="none" stroke="#63b8ff" d="M412.48,-340.75C414.46,-333.72 417.32,-323.62 419.81,-314.84"/>
<polygon fill="#63b8ff" stroke="#63b8ff" points="423.21,-315.66 422.57,-305.09 416.48,-313.76 423.21,-315.66"/>
</a>
</g>
</g>
<!-- Node13&#45;&gt;Node9 -->
<g id="edge17_Node000013_Node000009" class="edge">
<title>Node13&#45;&gt;Node9</title>
<g id="a_edge17_Node000013_Node000009"><a xlink:title=" ">
<path fill="none" stroke="#63b8ff" d="M645.51,-285.87C646.43,-264.4 646.81,-207.26 628,-165 623.23,-154.28 615.03,-144.17 607.46,-136.31"/>
<polygon fill="#63b8ff" stroke="#63b8ff" points="609.85,-133.75 600.26,-129.26 604.96,-138.75 609.85,-133.75"/>
</a>
</g>
</g>
<!-- Node14 -->
<g id="Node000014" class="node">
<title>Node14</title>
<g id="a_Node000014"><a xlink:href="_registry_8hpp.html" target="_top" xlink:title=" ">
<polygon fill="white" stroke="#666666" points="1129,-250 1031,-250 1031,-231 1129,-231 1129,-250"/>
<text text-anchor="middle" x="1080" y="-238" font-family="Helvetica,sans-Serif" font-size="10.00">ECS/Registry.hpp</text>
</a>
</g>
</g>
<!-- Node13&#45;&gt;Node14 -->
<g id="edge18_Node000013_Node000014" class="edge">
<title>Node13&#45;&gt;Node14</title>
<g id="a_edge18_Node000013_Node000014"><a xlink:title=" ">
<path fill="none" stroke="#63b8ff" d="M713.93,-286.1C798.53,-275.79 940.58,-258.49 1020.58,-248.74"/>
<polygon fill="#63b8ff" stroke="#63b8ff" points="1021.47,-252.16 1030.97,-247.47 1020.62,-245.21 1021.47,-252.16"/>
</a>
</g>
</g>
<!-- Node15 -->
<g id="Node000015" class="node">
<title>Node15</title>
<g id="a_Node000015"><a xlink:title=" ">
<polygon fill="#e0e0e0" stroke="#999999" points="1317,-129 1231,-129 1231,-110 1317,-110 1317,-129"/>
<text text-anchor="middle" x="1274" y="-117" font-family="Helvetica,sans-Serif" font-size="10.00">unordered_set</text>
</a>
</g>
</g>
<!-- Node14&#45;&gt;Node15 -->
<g id="edge19_Node000014_Node000015" class="edge">
<title>Node14&#45;&gt;Node15</title>
<g id="a_edge19_Node000014_Node000015"><a xlink:title=" ">
<path fill="none" stroke="#63b8ff" d="M1129.23,-231.04C1156.89,-224.53 1190.97,-213.42 1217,-195 1238.11,-180.06 1254.97,-154.98 1264.72,-138.09"/>
<polygon fill="#63b8ff" stroke="#63b8ff" points="1267.84,-139.68 1269.62,-129.24 1261.72,-136.29 1267.84,-139.68"/>
</a>
</g>
</g>
<!-- Node16 -->
<g id="Node000016" class="node">
<title>Node16</title>
<g id="a_Node000016"><a xlink:href="_logger_8hpp.html" target="_top" xlink:title=" ">
<polygon fill="white" stroke="#666666" points="831.5,-189.5 714.5,-189.5 714.5,-170.5 831.5,-170.5 831.5,-189.5"/>
<text text-anchor="middle" x="773" y="-177.5" font-family="Helvetica,sans-Serif" font-size="10.00">Common/Logger.hpp</text>
</a>
</g>
</g>
<!-- Node14&#45;&gt;Node16 -->
<g id="edge20_Node000014_Node000016" class="edge">
<title>Node14&#45;&gt;Node16</title>
<g id="a_edge20_Node000014_Node000016"><a xlink:title=" ">
<path fill="none" stroke="#63b8ff" d="M1032.13,-230.95C983.64,-222.22 906.52,-208.12 840,-195 834.53,-193.92 828.82,-192.77 823.14,-191.61"/>
<polygon fill="#63b8ff" stroke="#63b8ff" points="823.51,-188.11 813,-189.51 822.09,-194.96 823.51,-188.11"/>
</a>
</g>
</g>
<!-- Node19 -->
<g id="Node000019" class="node">
<title>Node19</title>
<g id="a_Node000019"><a xlink:href="_entity_8hpp.html" target="_top" xlink:title=" ">
<polygon fill="white" stroke="#666666" points="1240,-74 1154,-74 1154,-55 1240,-55 1240,-74"/>
<text text-anchor="middle" x="1197" y="-62" font-family="Helvetica,sans-Serif" font-size="10.00">ECS/Entity.hpp</text>
</a>
</g>
</g>
<!-- Node14&#45;&gt;Node19 -->
<g id="edge23_Node000014_Node000019" class="edge">
<title>Node14&#45;&gt;Node19</title>
<g id="a_edge23_Node000014_Node000019"><a xlink:title=" ">
<path fill="none" stroke="#63b8ff" d="M1126.13,-230.93C1147.12,-224.59 1170.29,-213.68 1184,-195 1208.1,-162.17 1204.71,-111.37 1200.59,-84.18"/>
<polygon fill="#63b8ff" stroke="#63b8ff" points="1204,-83.36 1198.86,-74.1 1197.1,-84.54 1204,-83.36"/>
</a>
</g>
</g>
<!-- Node21 -->
<g id="Node000021" class="node">
<title>Node21</title>
<g id="a_Node000021"><a xlink:href="_entity_hierarchy_8hpp.html" target="_top" xlink:title=" ">
<polygon fill="white" stroke="#666666" points="1412,-189.5 1278,-189.5 1278,-170.5 1412,-170.5 1412,-189.5"/>
<text text-anchor="middle" x="1345" y="-177.5" font-family="Helvetica,sans-Serif" font-size="10.00">ECS/EntityHierarchy.hpp</text>
</a>
</g>
</g>
<!-- Node14&#45;&gt;Node21 -->
<g id="edge25_Node000014_Node000021" class="edge">
<title>Node14&#45;&gt;Node21</title>
<g id="a_edge25_Node000014_Node000021"><a xlink:title=" ">
<path fill="none" stroke="#63b8ff" d="M1118.53,-230.99C1165.64,-220.6 1245.38,-202.99 1296.58,-191.69"/>
<polygon fill="#63b8ff" stroke="#63b8ff" points="1297.41,-195.09 1306.42,-189.52 1295.9,-188.25 1297.41,-195.09"/>
</a>
</g>
</g>
<!-- Node24 -->
<g id="Node000024" class="node">
<title>Node24</title>
<g id="a_Node000024"><a xlink:href="_entity_provider_8hpp.html" target="_top" xlink:title="Manages a pool of unused entity identifiers and provides mechanisms for requesting and removing them.">
<polygon fill="white" stroke="#666666" points="1175,-129 1047,-129 1047,-110 1175,-110 1175,-129"/>
<text text-anchor="middle" x="1111" y="-117" font-family="Helvetica,sans-Serif" font-size="10.00">ECS/EntityProvider.hpp</text>
</a>
</g>
</g>
<!-- Node14&#45;&gt;Node24 -->
<g id="edge30_Node000014_Node000024" class="edge">
<title>Node14&#45;&gt;Node24</title>
<g id="a_edge30_Node000014_Node000024"><a xlink:title=" ">
<path fill="none" stroke="#63b8ff" d="M1073.59,-230.94C1063.82,-216.76 1047.4,-187.74 1058,-165 1063.83,-152.49 1075.09,-142.25 1085.75,-134.76"/>
<polygon fill="#63b8ff" stroke="#63b8ff" points="1087.94,-137.51 1094.42,-129.13 1084.12,-131.64 1087.94,-137.51"/>
</a>
</g>
</g>
<!-- Node25 -->
<g id="Node000025" class="node">
<title>Node25</title>
<g id="a_Node000025"><a xlink:href="_sparse_set_8hpp.html" target="_top" xlink:title=" ">
<polygon fill="white" stroke="#666666" points="1175,-189.5 1067,-189.5 1067,-170.5 1175,-170.5 1175,-189.5"/>
<text text-anchor="middle" x="1121" y="-177.5" font-family="Helvetica,sans-Serif" font-size="10.00">ECS/SparseSet.hpp</text>
</a>
</g>
</g>
<!-- Node14&#45;&gt;Node25 -->
<g id="edge34_Node000014_Node000025" class="edge">
<title>Node14&#45;&gt;Node25</title>
<g id="a_edge34_Node000014_Node000025"><a xlink:title=" ">
<path fill="none" stroke="#63b8ff" d="M1086.05,-230.87C1092.11,-222.23 1101.59,-208.7 1109.14,-197.92"/>
<polygon fill="#63b8ff" stroke="#63b8ff" points="1112.05,-199.87 1114.93,-189.67 1106.32,-195.85 1112.05,-199.87"/>
</a>
</g>
</g>
<!-- Node26 -->
<g id="Node000026" class="node">
<title>Node26</title>
<g id="a_Node000026"><a xlink:href="_singleton_component_8hpp.html" target="_top" xlink:title=" ">
<polygon fill="white" stroke="#666666" points="1010.5,-189.5 849.5,-189.5 849.5,-170.5 1010.5,-170.5 1010.5,-189.5"/>
<text text-anchor="middle" x="930" y="-177.5" font-family="Helvetica,sans-Serif" font-size="10.00">ECS/SingletonComponent.hpp</text>
</a>
</g>
</g>
<!-- Node14&#45;&gt;Node26 -->
<g id="edge36_Node000014_Node000026" class="edge">
<title>Node14&#45;&gt;Node26</title>
<g id="a_edge36_Node000014_Node000026"><a xlink:title=" ">
<path fill="none" stroke="#63b8ff" d="M1058.19,-230.99C1032.75,-221.07 990.49,-204.59 961.49,-193.28"/>
<polygon fill="#63b8ff" stroke="#63b8ff" points="962.43,-189.89 951.84,-189.52 959.88,-196.41 962.43,-189.89"/>
</a>
</g>
</g>
<!-- Node17 -->
<g id="Node000017" class="node">
<title>Node17</title>
<g id="a_Node000017"><a xlink:title=" ">
<polygon fill="#e0e0e0" stroke="#999999" points="849,-129 801,-129 801,-110 849,-110 849,-129"/>
<text text-anchor="middle" x="825" y="-117" font-family="Helvetica,sans-Serif" font-size="10.00">mutex</text>
</a>
</g>
</g>
<!-- Node16&#45;&gt;Node17 -->
<g id="edge21_Node000016_Node000017" class="edge">
<title>Node16&#45;&gt;Node17</title>
<g id="a_edge21_Node000016_Node000017"><a xlink:title=" ">
<path fill="none" stroke="#63b8ff" d="M780.67,-170.37C788.51,-161.55 800.86,-147.66 810.54,-136.77"/>
<polygon fill="#63b8ff" stroke="#63b8ff" points="813.27,-138.97 817.3,-129.17 808.04,-134.32 813.27,-138.97"/>
</a>
</g>
</g>
<!-- Node18 -->
<g id="Node000018" class="node">
<title>Node18</title>
<g id="a_Node000018"><a xlink:title=" ">
<polygon fill="#e0e0e0" stroke="#999999" points="944.5,-74 897.5,-74 897.5,-55 944.5,-55 944.5,-74"/>
<text text-anchor="middle" x="921" y="-62" font-family="Helvetica,sans-Serif" font-size="10.00">queue</text>
</a>
</g>
</g>
<!-- Node16&#45;&gt;Node18 -->
<g id="edge22_Node000016_Node000018" class="edge">
<title>Node16&#45;&gt;Node18</title>
<g id="a_edge22_Node000016_Node000018"><a xlink:title=" ">
<path fill="none" stroke="#63b8ff" d="M772.94,-170.12C773.32,-155.64 776.19,-126.85 792,-110 816.83,-83.54 858.14,-72.81 887.31,-68.46"/>
<polygon fill="#63b8ff" stroke="#63b8ff" points="887.99,-71.9 897.45,-67.13 887.08,-64.96 887.99,-71.9"/>
</a>
</g>
</g>
<!-- Node20 -->
<g id="Node000020" class="node">
<title>Node20</title>
<g id="a_Node000020"><a xlink:title=" ">
<polygon fill="#e0e0e0" stroke="#999999" points="1182.5,-19 1129.5,-19 1129.5,0 1182.5,0 1182.5,-19"/>
<text text-anchor="middle" x="1156" y="-7" font-family="Helvetica,sans-Serif" font-size="10.00">stdlib.h</text>
</a>
</g>
</g>
<!-- Node19&#45;&gt;Node20 -->
<g id="edge24_Node000019_Node000020" class="edge">
<title>Node19&#45;&gt;Node20</title>
<g id="a_edge24_Node000019_Node000020"><a xlink:title=" ">
<path fill="none" stroke="#63b8ff" d="M1190.23,-54.75C1184.44,-47.26 1175.94,-36.28 1168.86,-27.13"/>
<polygon fill="#63b8ff" stroke="#63b8ff" points="1171.53,-24.86 1162.64,-19.09 1165.99,-29.14 1171.53,-24.86"/>
</a>
</g>
</g>
<!-- Node21&#45;&gt;Node15 -->
<g id="edge27_Node000021_Node000015" class="edge">
<title>Node21&#45;&gt;Node15</title>
<g id="a_edge27_Node000021_Node000015"><a xlink:title=" ">
<path fill="none" stroke="#63b8ff" d="M1334.52,-170.37C1323.51,-161.3 1305.96,-146.84 1292.59,-135.82"/>
<polygon fill="#63b8ff" stroke="#63b8ff" points="1294.46,-132.83 1284.52,-129.17 1290.01,-138.23 1294.46,-132.83"/>
</a>
</g>
</g>
<!-- Node21&#45;&gt;Node19 -->
<g id="edge29_Node000021_Node000019" class="edge">
<title>Node21&#45;&gt;Node19</title>
<g id="a_edge29_Node000021_Node000019"><a xlink:title=" ">
<path fill="none" stroke="#63b8ff" d="M1345.06,-170.12C1344.68,-155.64 1341.81,-126.85 1326,-110 1306.23,-88.94 1276.03,-77.84 1249.82,-72"/>
<polygon fill="#63b8ff" stroke="#63b8ff" points="1250.5,-68.57 1240,-70.01 1249.11,-75.43 1250.5,-68.57"/>
</a>
</g>
</g>
<!-- Node22 -->
<g id="Node000022" class="node">
<title>Node22</title>
<g id="a_Node000022"><a xlink:title=" ">
<polygon fill="#e0e0e0" stroke="#999999" points="1438.5,-129 1373.5,-129 1373.5,-110 1438.5,-110 1438.5,-129"/>
<text text-anchor="middle" x="1406" y="-117" font-family="Helvetica,sans-Serif" font-size="10.00">functional</text>
</a>
</g>
</g>
<!-- Node21&#45;&gt;Node22 -->
<g id="edge26_Node000021_Node000022" class="edge">
<title>Node21&#45;&gt;Node22</title>
<g id="a_edge26_Node000021_Node000022"><a xlink:title=" ">
<path fill="none" stroke="#63b8ff" d="M1354,-170.37C1363.37,-161.38 1378.25,-147.11 1389.7,-136.14"/>
<polygon fill="#63b8ff" stroke="#63b8ff" points="1392.17,-138.62 1396.96,-129.17 1387.32,-133.56 1392.17,-138.62"/>
</a>
</g>
</g>
<!-- Node23 -->
<g id="Node000023" class="node">
<title>Node23</title>
<g id="a_Node000023"><a xlink:title=" ">
<polygon fill="#e0e0e0" stroke="#999999" points="1549.5,-129 1456.5,-129 1456.5,-110 1549.5,-110 1549.5,-129"/>
<text text-anchor="middle" x="1503" y="-117" font-family="Helvetica,sans-Serif" font-size="10.00">unordered_map</text>
</a>
</g>
</g>
<!-- Node21&#45;&gt;Node23 -->
<g id="edge28_Node000021_Node000023" class="edge">
<title>Node21&#45;&gt;Node23</title>
<g id="a_edge28_Node000021_Node000023"><a xlink:title=" ">
<path fill="none" stroke="#63b8ff" d="M1367.97,-170.49C1394.89,-160.53 1439.67,-143.95 1470.23,-132.63"/>
<polygon fill="#63b8ff" stroke="#63b8ff" points="1471.84,-135.77 1480,-129.02 1469.4,-129.21 1471.84,-135.77"/>
</a>
</g>
</g>
<!-- Node24&#45;&gt;Node18 -->
<g id="edge32_Node000024_Node000018" class="edge">
<title>Node24&#45;&gt;Node18</title>
<g id="a_edge32_Node000024_Node000018"><a xlink:title=" ">
<path fill="none" stroke="#63b8ff" d="M1080.47,-109.98C1046.01,-100.37 990.1,-84.78 954.47,-74.84"/>
<polygon fill="#63b8ff" stroke="#63b8ff" points="955.12,-71.38 944.55,-72.07 953.24,-78.13 955.12,-71.38"/>
</a>
</g>
</g>
<!-- Node24&#45;&gt;Node19 -->
<g id="edge33_Node000024_Node000019" class="edge">
<title>Node24&#45;&gt;Node19</title>
<g id="a_edge33_Node000024_Node000019"><a xlink:title=" ">
<path fill="none" stroke="#63b8ff" d="M1124.82,-109.98C1138.15,-101.77 1158.58,-89.18 1174.31,-79.49"/>
<polygon fill="#63b8ff" stroke="#63b8ff" points="1176.25,-82.4 1182.93,-74.17 1172.58,-76.44 1176.25,-82.4"/>
</a>
</g>
</g>
<!-- Node24&#45;&gt;Node20 -->
<g id="edge31_Node000024_Node000020" class="edge">
<title>Node24&#45;&gt;Node20</title>
<g id="a_edge31_Node000024_Node000020"><a xlink:title=" ">
<path fill="none" stroke="#63b8ff" d="M1114.68,-109.66C1122.04,-92.01 1138.67,-52.09 1148.44,-28.64"/>
<polygon fill="#63b8ff" stroke="#63b8ff" points="1151.78,-29.74 1152.39,-19.16 1145.32,-27.04 1151.78,-29.74"/>
</a>
</g>
</g>
<!-- Node25&#45;&gt;Node24 -->
<g id="edge35_Node000025_Node000024" class="edge">
<title>Node25&#45;&gt;Node24</title>
<g id="a_edge35_Node000025_Node000024"><a xlink:title=" ">
<path fill="none" stroke="#63b8ff" d="M1119.52,-170.37C1118.12,-162.16 1115.96,-149.54 1114.17,-139.05"/>
<polygon fill="#63b8ff" stroke="#63b8ff" points="1117.62,-138.43 1112.48,-129.17 1110.72,-139.61 1117.62,-138.43"/>
</a>
</g>
</g>
<!-- Node27&#45;&gt;Node5 -->
<g id="edge39_Node000027_Node000005" class="edge">
<title>Node27&#45;&gt;Node5</title>
<g id="a_edge39_Node000027_Node000005"><a xlink:title=" ">
<path fill="none" stroke="#63b8ff" d="M414.18,-285.87C397.12,-272.59 362.57,-247.04 330,-231 296.12,-214.32 255.3,-200.99 225.12,-192.3"/>
<polygon fill="#63b8ff" stroke="#63b8ff" points="225.9,-188.88 215.32,-189.54 224,-195.62 225.9,-188.88"/>
</a>
</g>
</g>
<!-- Node27&#45;&gt;Node6 -->
<g id="edge38_Node000027_Node000006" class="edge">
<title>Node27&#45;&gt;Node6</title>
<g id="a_edge38_Node000027_Node000006"><a xlink:title=" ">
<path fill="none" stroke="#63b8ff" d="M402.67,-285.98C379.8,-277.27 344.04,-263.63 318.14,-253.75"/>
<polygon fill="#63b8ff" stroke="#63b8ff" points="319.33,-250.46 308.74,-250.17 316.84,-257 319.33,-250.46"/>
</a>
</g>
</g>
<!-- Node28 -->
<g id="Node000028" class="node">
<title>Node28</title>
<g id="a_Node000028"><a xlink:href="_image_8hpp.html" target="_top" xlink:title=" ">
<polygon fill="white" stroke="#666666" points="519.5,-250 378.5,-250 378.5,-231 519.5,-231 519.5,-250"/>
<text text-anchor="middle" x="449" y="-238" font-family="Helvetica,sans-Serif" font-size="10.00">AssetManager/Image.hpp</text>
</a>
</g>
</g>
<!-- Node27&#45;&gt;Node28 -->
<g id="edge40_Node000027_Node000028" class="edge">
<title>Node27&#45;&gt;Node28</title>
<g id="a_edge40_Node000027_Node000028"><a xlink:title=" ">
<path fill="none" stroke="#63b8ff" d="M428.96,-285.75C432.21,-278.57 436.92,-268.18 440.95,-259.27"/>
<polygon fill="#63b8ff" stroke="#63b8ff" points="444.17,-260.64 445.11,-250.09 437.8,-257.75 444.17,-260.64"/>
</a>
</g>
</g>
<!-- Node28&#45;&gt;Node8 -->
<g id="edge42_Node000028_Node000008" class="edge">
<title>Node28&#45;&gt;Node8</title>
<g id="a_edge42_Node000028_Node000008"><a xlink:title=" ">
<path fill="none" stroke="#63b8ff" d="M461.25,-230.87C472.4,-223 489.3,-211.09 503.79,-200.89"/>
<polygon fill="#63b8ff" stroke="#63b8ff" points="505.82,-203.74 511.97,-195.11 501.78,-198.01 505.82,-203.74"/>
</a>
</g>
</g>
<!-- Node28&#45;&gt;Node9 -->
<g id="edge41_Node000028_Node000009" class="edge">
<title>Node28&#45;&gt;Node9</title>
<g id="a_edge41_Node000028_Node000009"><a xlink:title=" ">
<path fill="none" stroke="#63b8ff" d="M443.41,-230.71C434.64,-215.68 420.11,-184.76 435,-165 448.39,-147.22 504.96,-134.36 545.89,-127.16"/>
<polygon fill="#63b8ff" stroke="#63b8ff" points="546.65,-130.59 555.92,-125.46 545.48,-123.68 546.65,-130.59"/>
</a>
</g>
</g>
<!-- Node30 -->
<g id="Node000030" class="node">
<title>Node30</title>
<g id="a_Node000030"><a xlink:href="_types_8hpp.html" target="_top" xlink:title=" ">
<polygon fill="white" stroke="#666666" points="792.5,-250 679.5,-250 679.5,-231 792.5,-231 792.5,-250"/>
<text text-anchor="middle" x="736" y="-238" font-family="Helvetica,sans-Serif" font-size="10.00">Common/Types.hpp</text>
</a>
</g>
</g>
<!-- Node29&#45;&gt;Node30 -->
<g id="edge44_Node000029_Node000030" class="edge">
<title>Node29&#45;&gt;Node30</title>
<g id="a_edge44_Node000029_Node000030"><a xlink:title=" ">
<path fill="none" stroke="#63b8ff" d="M656.8,-340.92C680.27,-334.65 705.34,-323.79 722,-305 732.77,-292.86 735.86,-274.33 736.5,-260.42"/>
<polygon fill="#63b8ff" stroke="#63b8ff" points="740,-260.08 736.57,-250.06 733,-260.03 740,-260.08"/>
</a>
</g>
</g>
<!-- Node30&#45;&gt;Node9 -->
<g id="edge45_Node000030_Node000009" class="edge">
<title>Node30&#45;&gt;Node9</title>
<g id="a_edge45_Node000030_Node000009"><a xlink:title=" ">
<path fill="none" stroke="#63b8ff" d="M728.38,-230.57C715.59,-215.86 688.55,-186.09 662,-165 647.27,-153.31 629.28,-142.18 614.96,-133.98"/>
<polygon fill="#63b8ff" stroke="#63b8ff" points="616.59,-130.88 606.16,-129.04 613.16,-136.99 616.59,-130.88"/>
</a>
</g>
</g>
</g>
</svg>
