<?xml version="1.0" encoding="UTF-8" standalone="no"?>
<!DOCTYPE svg PUBLIC "-//W3C//DTD SVG 1.1//EN"
 "http://www.w3.org/Graphics/SVG/1.1/DTD/svg11.dtd">
<!-- Generated by graphviz version 2.43.0 (0)
 -->
<!-- Title: src/ui/Components/ModelComponentUI.hpp Pages: 1 -->
<svg width="1025pt" height="544pt"
 viewBox="0.00 0.00 1024.50 544.00" xmlns="http://www.w3.org/2000/svg" xmlns:xlink="http://www.w3.org/1999/xlink">
<g id="graph0" class="graph" transform="scale(1 1) rotate(0) translate(4 540)">
<title>src/ui/Components/ModelComponentUI.hpp</title>
<!-- Node1 -->
<g id="Node000001" class="node">
<title>Node1</title>
<g id="a_Node000001"><a xlink:title=" ">
<polygon fill="#999999" stroke="#666666" points="555,-536 358,-536 358,-506 555,-506 555,-536"/>
<text text-anchor="start" x="366" y="-524" font-family="Helvetica,sans-Serif" font-size="10.00">src/ui/Components/ModelComponent</text>
<text text-anchor="middle" x="456.5" y="-513" font-family="Helvetica,sans-Serif" font-size="10.00">UI.hpp</text>
</a>
</g>
</g>
<!-- Node2 -->
<g id="Node000002" class="node">
<title>Node2</title>
<g id="a_Node000002"><a xlink:href="_mesh_8hpp.html" target="_top" xlink:title=" ">
<polygon fill="white" stroke="#666666" points="701,-415 564,-415 564,-396 701,-396 701,-415"/>
<text text-anchor="middle" x="632.5" y="-403" font-family="Helvetica,sans-Serif" font-size="10.00">AssetManager/Mesh.hpp</text>
</a>
</g>
</g>
<!-- Node1&#45;&gt;Node2 -->
<g id="edge1_Node000001_Node000002" class="edge">
<title>Node1&#45;&gt;Node2</title>
<g id="a_edge1_Node000001_Node000002"><a xlink:title=" ">
<path fill="none" stroke="#63b8ff" d="M444.39,-505.96C433,-490.98 419.49,-467.23 432.5,-451 447.83,-431.89 504.58,-420.46 553.72,-413.98"/>
<polygon fill="#63b8ff" stroke="#63b8ff" points="554.28,-417.44 563.76,-412.71 553.4,-410.49 554.28,-417.44"/>
</a>
</g>
</g>
<!-- Node10 -->
<g id="Node000010" class="node">
<title>Node10</title>
<g id="a_Node000010"><a xlink:href="_registry_8hpp.html" target="_top" xlink:title=" ">
<polygon fill="white" stroke="#666666" points="358.5,-239 260.5,-239 260.5,-220 358.5,-220 358.5,-239"/>
<text text-anchor="middle" x="309.5" y="-227" font-family="Helvetica,sans-Serif" font-size="10.00">ECS/Registry.hpp</text>
</a>
</g>
</g>
<!-- Node1&#45;&gt;Node10 -->
<g id="edge36_Node000001_Node000010" class="edge">
<title>Node1&#45;&gt;Node10</title>
<g id="a_edge36_Node000001_Node000010"><a xlink:title=" ">
<path fill="none" stroke="#63b8ff" d="M377.03,-505.95C323.46,-491.38 262.5,-462.5 262.5,-406.5 262.5,-406.5 262.5,-406.5 262.5,-344 262.5,-312.19 268.67,-304.11 281.5,-275 285.68,-265.51 291.66,-255.69 297.02,-247.69"/>
<polygon fill="#63b8ff" stroke="#63b8ff" points="300.05,-249.48 302.89,-239.27 294.3,-245.47 300.05,-249.48"/>
</a>
</g>
</g>
<!-- Node25 -->
<g id="Node000025" class="node">
<title>Node25</title>
<g id="a_Node000025"><a xlink:href="_material_8hpp.html" target="_top" xlink:title=" ">
<polygon fill="white" stroke="#666666" points="494,-415 343,-415 343,-396 494,-396 494,-415"/>
<text text-anchor="middle" x="418.5" y="-403" font-family="Helvetica,sans-Serif" font-size="10.00">AssetManager/Material.hpp</text>
</a>
</g>
</g>
<!-- Node1&#45;&gt;Node25 -->
<g id="edge33_Node000001_Node000025" class="edge">
<title>Node1&#45;&gt;Node25</title>
<g id="a_edge33_Node000001_Node000025"><a xlink:title=" ">
<path fill="none" stroke="#63b8ff" d="M432.33,-505.9C420.04,-497.26 406.29,-484.99 399.5,-470 392.76,-455.13 399.33,-437.25 406.52,-424.25"/>
<polygon fill="#63b8ff" stroke="#63b8ff" points="409.7,-425.75 411.93,-415.4 403.73,-422.1 409.7,-425.75"/>
</a>
</g>
</g>
<!-- Node26 -->
<g id="Node000026" class="node">
<title>Node26</title>
<g id="a_Node000026"><a xlink:title=" ">
<polygon fill="#e0e0e0" stroke="#999999" points="559.5,-470 441.5,-470 441.5,-451 559.5,-451 559.5,-470"/>
<text text-anchor="middle" x="500.5" y="-458" font-family="Helvetica,sans-Serif" font-size="10.00">UI/ComponentUI.hpp</text>
</a>
</g>
</g>
<!-- Node1&#45;&gt;Node26 -->
<g id="edge37_Node000001_Node000026" class="edge">
<title>Node1&#45;&gt;Node26</title>
<g id="a_edge37_Node000001_Node000026"><a xlink:title=" ">
<path fill="none" stroke="#63b8ff" d="M467.15,-505.84C473.34,-497.61 481.19,-487.18 487.71,-478.51"/>
<polygon fill="#63b8ff" stroke="#63b8ff" points="490.69,-480.36 493.91,-470.27 485.1,-476.15 490.69,-480.36"/>
</a>
</g>
</g>
<!-- Node27 -->
<g id="Node000027" class="node">
<title>Node27</title>
<g id="a_Node000027"><a xlink:title=" ">
<polygon fill="#e0e0e0" stroke="#999999" points="741.5,-470 577.5,-470 577.5,-451 741.5,-451 741.5,-470"/>
<text text-anchor="middle" x="659.5" y="-458" font-family="Helvetica,sans-Serif" font-size="10.00">UI/Common/AssetSelector.hpp</text>
</a>
</g>
</g>
<!-- Node1&#45;&gt;Node27 -->
<g id="edge38_Node000001_Node000027" class="edge">
<title>Node1&#45;&gt;Node27</title>
<g id="a_edge38_Node000001_Node000027"><a xlink:title=" ">
<path fill="none" stroke="#63b8ff" d="M505.12,-505.99C540.31,-495.85 587.26,-482.32 620.1,-472.85"/>
<polygon fill="#63b8ff" stroke="#63b8ff" points="621.18,-476.19 629.82,-470.05 619.24,-469.46 621.18,-476.19"/>
</a>
</g>
</g>
<!-- Node28 -->
<g id="Node000028" class="node">
<title>Node28</title>
<g id="a_Node000028"><a xlink:href="_model_component_8hpp.html" target="_top" xlink:title=" ">
<polygon fill="white" stroke="#666666" points="947.5,-470 759.5,-470 759.5,-451 947.5,-451 947.5,-470"/>
<text text-anchor="middle" x="853.5" y="-458" font-family="Helvetica,sans-Serif" font-size="10.00">Components/ModelComponent.hpp</text>
</a>
</g>
</g>
<!-- Node1&#45;&gt;Node28 -->
<g id="edge39_Node000001_Node000028" class="edge">
<title>Node1&#45;&gt;Node28</title>
<g id="a_edge39_Node000001_Node000028"><a xlink:title=" ">
<path fill="none" stroke="#63b8ff" d="M551.59,-505.99C623.77,-495.35 721.27,-480.99 785.69,-471.49"/>
<polygon fill="#63b8ff" stroke="#63b8ff" points="786.36,-474.93 795.74,-470.01 785.34,-468.01 786.36,-474.93"/>
</a>
</g>
</g>
<!-- Node3 -->
<g id="Node000003" class="node">
<title>Node3</title>
<g id="a_Node000003"><a xlink:title=" ">
<polygon fill="#e0e0e0" stroke="#999999" points="849.5,-239 771.5,-239 771.5,-220 849.5,-220 849.5,-239"/>
<text text-anchor="middle" x="810.5" y="-227" font-family="Helvetica,sans-Serif" font-size="10.00">glm/glm.hpp</text>
</a>
</g>
</g>
<!-- Node2&#45;&gt;Node3 -->
<g id="edge2_Node000002_Node000003" class="edge">
<title>Node2&#45;&gt;Node3</title>
<g id="a_edge2_Node000002_Node000003"><a xlink:title=" ">
<path fill="none" stroke="#63b8ff" d="M653.66,-395.95C669.89,-388.49 691.91,-376.31 706.5,-360 734.21,-329.02 718.71,-306.78 745.5,-275 756.14,-262.38 771.19,-251.77 784.14,-244.07"/>
<polygon fill="#63b8ff" stroke="#63b8ff" points="786.12,-246.97 793.1,-239 782.67,-240.88 786.12,-246.97"/>
</a>
</g>
</g>
<!-- Node4 -->
<g id="Node000004" class="node">
<title>Node4</title>
<g id="a_Node000004"><a xlink:title=" ">
<polygon fill="#e0e0e0" stroke="#999999" points="632,-354.5 561,-354.5 561,-335.5 632,-335.5 632,-354.5"/>
<text text-anchor="middle" x="596.5" y="-342.5" font-family="Helvetica,sans-Serif" font-size="10.00">glad/glad.h</text>
</a>
</g>
</g>
<!-- Node2&#45;&gt;Node4 -->
<g id="edge3_Node000002_Node000004" class="edge">
<title>Node2&#45;&gt;Node4</title>
<g id="a_edge3_Node000002_Node000004"><a xlink:title=" ">
<path fill="none" stroke="#63b8ff" d="M627.19,-395.87C621.92,-387.31 613.71,-373.97 607.11,-363.24"/>
<polygon fill="#63b8ff" stroke="#63b8ff" points="610.06,-361.35 601.83,-354.67 604.09,-365.02 610.06,-361.35"/>
</a>
</g>
</g>
<!-- Node5 -->
<g id="Node000005" class="node">
<title>Node5</title>
<g id="a_Node000005"><a xlink:title=" ">
<polygon fill="#e0e0e0" stroke="#999999" points="697,-354.5 650,-354.5 650,-335.5 697,-335.5 697,-354.5"/>
<text text-anchor="middle" x="673.5" y="-342.5" font-family="Helvetica,sans-Serif" font-size="10.00">vector</text>
</a>
</g>
</g>
<!-- Node2&#45;&gt;Node5 -->
<g id="edge4_Node000002_Node000005" class="edge">
<title>Node2&#45;&gt;Node5</title>
<g id="a_edge4_Node000002_Node000005"><a xlink:title=" ">
<path fill="none" stroke="#63b8ff" d="M638.55,-395.87C644.61,-387.23 654.09,-373.7 661.64,-362.92"/>
<polygon fill="#63b8ff" stroke="#63b8ff" points="664.55,-364.87 667.43,-354.67 658.82,-360.85 664.55,-364.87"/>
</a>
</g>
</g>
<!-- Node6 -->
<g id="Node000006" class="node">
<title>Node6</title>
<g id="a_Node000006"><a xlink:title=" ">
<polygon fill="#e0e0e0" stroke="#999999" points="1016.5,-354.5 972.5,-354.5 972.5,-335.5 1016.5,-335.5 1016.5,-354.5"/>
<text text-anchor="middle" x="994.5" y="-342.5" font-family="Helvetica,sans-Serif" font-size="10.00">string</text>
</a>
</g>
</g>
<!-- Node2&#45;&gt;Node6 -->
<g id="edge5_Node000002_Node000006" class="edge">
<title>Node2&#45;&gt;Node6</title>
<g id="a_edge5_Node000002_Node000006"><a xlink:title=" ">
<path fill="none" stroke="#63b8ff" d="M701.1,-396.28C779.96,-386.59 904.43,-370.47 950.5,-360 954.43,-359.11 958.52,-358.02 962.55,-356.86"/>
<polygon fill="#63b8ff" stroke="#63b8ff" points="963.78,-360.14 972.32,-353.86 961.73,-353.45 963.78,-360.14"/>
</a>
</g>
</g>
<!-- Node7 -->
<g id="Node000007" class="node">
<title>Node7</title>
<g id="a_Node000007"><a xlink:href="_path_constructible_asset_8hpp.html" target="_top" xlink:title=" ">
<polygon fill="white" stroke="#666666" points="504,-360 329,-360 329,-330 504,-330 504,-360"/>
<text text-anchor="start" x="337" y="-348" font-family="Helvetica,sans-Serif" font-size="10.00">AssetManager/PathConstructible</text>
<text text-anchor="middle" x="416.5" y="-337" font-family="Helvetica,sans-Serif" font-size="10.00">Asset.hpp</text>
</a>
</g>
</g>
<!-- Node2&#45;&gt;Node7 -->
<g id="edge6_Node000002_Node000007" class="edge">
<title>Node2&#45;&gt;Node7</title>
<g id="a_edge6_Node000002_Node000007"><a xlink:title=" ">
<path fill="none" stroke="#63b8ff" d="M601.09,-395.99C568.99,-387.3 518.28,-373.57 478.13,-362.69"/>
<polygon fill="#63b8ff" stroke="#63b8ff" points="479,-359.3 468.43,-360.06 477.17,-366.06 479,-359.3"/>
</a>
</g>
</g>
<!-- Node23 -->
<g id="Node000023" class="node">
<title>Node23</title>
<g id="a_Node000023"><a xlink:href="_a_a_b_b_8hpp.html" target="_top" xlink:title=" ">
<polygon fill="white" stroke="#666666" points="941.5,-354.5 849.5,-354.5 849.5,-335.5 941.5,-335.5 941.5,-354.5"/>
<text text-anchor="middle" x="895.5" y="-342.5" font-family="Helvetica,sans-Serif" font-size="10.00">Math/AABB.hpp</text>
</a>
</g>
</g>
<!-- Node2&#45;&gt;Node23 -->
<g id="edge29_Node000002_Node000023" class="edge">
<title>Node2&#45;&gt;Node23</title>
<g id="a_edge29_Node000002_Node000023"><a xlink:title=" ">
<path fill="none" stroke="#63b8ff" d="M670.74,-395.99C717.49,-385.6 796.63,-367.99 847.44,-356.69"/>
<polygon fill="#63b8ff" stroke="#63b8ff" points="848.21,-360.1 857.21,-354.52 846.69,-353.27 848.21,-360.1"/>
</a>
</g>
</g>
<!-- Node8 -->
<g id="Node000008" class="node">
<title>Node8</title>
<g id="a_Node000008"><a xlink:title=" ">
<polygon fill="#e0e0e0" stroke="#999999" points="490.5,-239 422.5,-239 422.5,-220 490.5,-220 490.5,-239"/>
<text text-anchor="middle" x="456.5" y="-227" font-family="Helvetica,sans-Serif" font-size="10.00">filesystem</text>
</a>
</g>
</g>
<!-- Node7&#45;&gt;Node8 -->
<g id="edge7_Node000007_Node000008" class="edge">
<title>Node7&#45;&gt;Node8</title>
<g id="a_edge7_Node000007_Node000008"><a xlink:title=" ">
<path fill="none" stroke="#63b8ff" d="M422.98,-329.72C427.36,-319.8 433.12,-306.23 437.5,-294 442.85,-279.09 447.94,-261.85 451.5,-249.1"/>
<polygon fill="#63b8ff" stroke="#63b8ff" points="454.94,-249.79 454.21,-239.22 448.19,-247.94 454.94,-249.79"/>
</a>
</g>
</g>
<!-- Node9 -->
<g id="Node000009" class="node">
<title>Node9</title>
<g id="a_Node000009"><a xlink:href="_asset_8hpp.html" target="_top" xlink:title=" ">
<polygon fill="white" stroke="#666666" points="428,-294 291,-294 291,-275 428,-275 428,-294"/>
<text text-anchor="middle" x="359.5" y="-282" font-family="Helvetica,sans-Serif" font-size="10.00">AssetManager/Asset.hpp</text>
</a>
</g>
</g>
<!-- Node7&#45;&gt;Node9 -->
<g id="edge8_Node000007_Node000009" class="edge">
<title>Node7&#45;&gt;Node9</title>
<g id="a_edge8_Node000007_Node000009"><a xlink:title=" ">
<path fill="none" stroke="#63b8ff" d="M402.7,-329.84C394.43,-321.35 383.88,-310.52 375.27,-301.69"/>
<polygon fill="#63b8ff" stroke="#63b8ff" points="377.53,-298.99 368.04,-294.27 372.51,-303.87 377.53,-298.99"/>
</a>
</g>
</g>
<!-- Node9&#45;&gt;Node8 -->
<g id="edge9_Node000009_Node000008" class="edge">
<title>Node9&#45;&gt;Node8</title>
<g id="a_edge9_Node000009_Node000008"><a xlink:title=" ">
<path fill="none" stroke="#63b8ff" d="M375.08,-274.98C390.27,-266.69 413.6,-253.94 431.4,-244.22"/>
<polygon fill="#63b8ff" stroke="#63b8ff" points="433.53,-247.04 440.63,-239.17 430.18,-240.89 433.53,-247.04"/>
</a>
</g>
</g>
<!-- Node9&#45;&gt;Node10 -->
<g id="edge10_Node000009_Node000010" class="edge">
<title>Node9&#45;&gt;Node10</title>
<g id="a_edge10_Node000009_Node000010"><a xlink:title=" ">
<path fill="none" stroke="#63b8ff" d="M351.24,-274.75C344.04,-267.11 333.39,-255.82 324.65,-246.56"/>
<polygon fill="#63b8ff" stroke="#63b8ff" points="327.01,-243.96 317.6,-239.09 321.92,-248.76 327.01,-243.96"/>
</a>
</g>
</g>
<!-- Node11 -->
<g id="Node000011" class="node">
<title>Node11</title>
<g id="a_Node000011"><a xlink:title=" ">
<polygon fill="#e0e0e0" stroke="#999999" points="422.5,-129 336.5,-129 336.5,-110 422.5,-110 422.5,-129"/>
<text text-anchor="middle" x="379.5" y="-117" font-family="Helvetica,sans-Serif" font-size="10.00">unordered_set</text>
</a>
</g>
</g>
<!-- Node10&#45;&gt;Node11 -->
<g id="edge11_Node000010_Node000011" class="edge">
<title>Node10&#45;&gt;Node11</title>
<g id="a_edge11_Node000010_Node000011"><a xlink:title=" ">
<path fill="none" stroke="#63b8ff" d="M315.23,-219.66C326.82,-201.77 353.25,-161 368.36,-137.69"/>
<polygon fill="#63b8ff" stroke="#63b8ff" points="371.39,-139.45 373.89,-129.16 365.51,-135.65 371.39,-139.45"/>
</a>
</g>
</g>
<!-- Node12 -->
<g id="Node000012" class="node">
<title>Node12</title>
<g id="a_Node000012"><a xlink:href="_logger_8hpp.html" target="_top" xlink:title=" ">
<polygon fill="white" stroke="#666666" points="117,-184 0,-184 0,-165 117,-165 117,-184"/>
<text text-anchor="middle" x="58.5" y="-172" font-family="Helvetica,sans-Serif" font-size="10.00">Common/Logger.hpp</text>
</a>
</g>
</g>
<!-- Node10&#45;&gt;Node12 -->
<g id="edge12_Node000010_Node000012" class="edge">
<title>Node10&#45;&gt;Node12</title>
<g id="a_edge12_Node000010_Node000012"><a xlink:title=" ">
<path fill="none" stroke="#63b8ff" d="M269.17,-219.98C225.66,-210.8 156.3,-196.15 109.15,-186.19"/>
<polygon fill="#63b8ff" stroke="#63b8ff" points="109.65,-182.72 99.14,-184.08 108.2,-189.57 109.65,-182.72"/>
</a>
</g>
</g>
<!-- Node15 -->
<g id="Node000015" class="node">
<title>Node15</title>
<g id="a_Node000015"><a xlink:href="_entity_8hpp.html" target="_top" xlink:title=" ">
<polygon fill="white" stroke="#666666" points="345.5,-74 259.5,-74 259.5,-55 345.5,-55 345.5,-74"/>
<text text-anchor="middle" x="302.5" y="-62" font-family="Helvetica,sans-Serif" font-size="10.00">ECS/Entity.hpp</text>
</a>
</g>
</g>
<!-- Node10&#45;&gt;Node15 -->
<g id="edge15_Node000010_Node000015" class="edge">
<title>Node10&#45;&gt;Node15</title>
<g id="a_edge15_Node000010_Node000015"><a xlink:title=" ">
<path fill="none" stroke="#63b8ff" d="M309.12,-219.74C308.03,-194.31 304.84,-120.08 303.32,-84.69"/>
<polygon fill="#63b8ff" stroke="#63b8ff" points="306.8,-84.15 302.88,-74.31 299.81,-84.45 306.8,-84.15"/>
</a>
</g>
</g>
<!-- Node17 -->
<g id="Node000017" class="node">
<title>Node17</title>
<g id="a_Node000017"><a xlink:href="_entity_hierarchy_8hpp.html" target="_top" xlink:title=" ">
<polygon fill="white" stroke="#666666" points="539.5,-184 405.5,-184 405.5,-165 539.5,-165 539.5,-184"/>
<text text-anchor="middle" x="472.5" y="-172" font-family="Helvetica,sans-Serif" font-size="10.00">ECS/EntityHierarchy.hpp</text>
</a>
</g>
</g>
<!-- Node10&#45;&gt;Node17 -->
<g id="edge17_Node000010_Node000017" class="edge">
<title>Node10&#45;&gt;Node17</title>
<g id="a_edge17_Node000010_Node000017"><a xlink:title=" ">
<path fill="none" stroke="#63b8ff" d="M335.69,-219.98C362.94,-211.13 405.8,-197.19 436.28,-187.28"/>
<polygon fill="#63b8ff" stroke="#63b8ff" points="437.68,-190.5 446.11,-184.08 435.51,-183.85 437.68,-190.5"/>
</a>
</g>
</g>
<!-- Node20 -->
<g id="Node000020" class="node">
<title>Node20</title>
<g id="a_Node000020"><a xlink:href="_entity_provider_8hpp.html" target="_top" xlink:title="Manages a pool of unused entity identifiers and provides mechanisms for requesting and removing them.">
<polygon fill="white" stroke="#666666" points="280.5,-129 152.5,-129 152.5,-110 280.5,-110 280.5,-129"/>
<text text-anchor="middle" x="216.5" y="-117" font-family="Helvetica,sans-Serif" font-size="10.00">ECS/EntityProvider.hpp</text>
</a>
</g>
</g>
<!-- Node10&#45;&gt;Node20 -->
<g id="edge22_Node000010_Node000020" class="edge">
<title>Node10&#45;&gt;Node20</title>
<g id="a_edge22_Node000010_Node000020"><a xlink:title=" ">
<path fill="none" stroke="#63b8ff" d="M301.89,-219.66C286.28,-201.54 250.44,-159.91 230.51,-136.77"/>
<polygon fill="#63b8ff" stroke="#63b8ff" points="233.13,-134.45 223.96,-129.16 227.83,-139.02 233.13,-134.45"/>
</a>
</g>
</g>
<!-- Node21 -->
<g id="Node000021" class="node">
<title>Node21</title>
<g id="a_Node000021"><a xlink:href="_sparse_set_8hpp.html" target="_top" xlink:title=" ">
<polygon fill="white" stroke="#666666" points="243.5,-184 135.5,-184 135.5,-165 243.5,-165 243.5,-184"/>
<text text-anchor="middle" x="189.5" y="-172" font-family="Helvetica,sans-Serif" font-size="10.00">ECS/SparseSet.hpp</text>
</a>
</g>
</g>
<!-- Node10&#45;&gt;Node21 -->
<g id="edge26_Node000010_Node000021" class="edge">
<title>Node10&#45;&gt;Node21</title>
<g id="a_edge26_Node000010_Node000021"><a xlink:title=" ">
<path fill="none" stroke="#63b8ff" d="M290.22,-219.98C270.83,-211.42 240.69,-198.11 218.43,-188.28"/>
<polygon fill="#63b8ff" stroke="#63b8ff" points="219.69,-185.01 209.13,-184.17 216.86,-191.41 219.69,-185.01"/>
</a>
</g>
</g>
<!-- Node22 -->
<g id="Node000022" class="node">
<title>Node22</title>
<g id="a_Node000022"><a xlink:href="_singleton_component_8hpp.html" target="_top" xlink:title=" ">
<polygon fill="white" stroke="#666666" points="719,-184 558,-184 558,-165 719,-165 719,-184"/>
<text text-anchor="middle" x="638.5" y="-172" font-family="Helvetica,sans-Serif" font-size="10.00">ECS/SingletonComponent.hpp</text>
</a>
</g>
</g>
<!-- Node10&#45;&gt;Node22 -->
<g id="edge28_Node000010_Node000022" class="edge">
<title>Node10&#45;&gt;Node22</title>
<g id="a_edge28_Node000010_Node000022"><a xlink:title=" ">
<path fill="none" stroke="#63b8ff" d="M358.75,-220.57C416.49,-211.26 512.28,-195.83 575.41,-185.66"/>
<polygon fill="#63b8ff" stroke="#63b8ff" points="576.32,-189.06 585.63,-184.02 575.21,-182.15 576.32,-189.06"/>
</a>
</g>
</g>
<!-- Node13 -->
<g id="Node000013" class="node">
<title>Node13</title>
<g id="a_Node000013"><a xlink:title=" ">
<polygon fill="#e0e0e0" stroke="#999999" points="134.5,-129 86.5,-129 86.5,-110 134.5,-110 134.5,-129"/>
<text text-anchor="middle" x="110.5" y="-117" font-family="Helvetica,sans-Serif" font-size="10.00">mutex</text>
</a>
</g>
</g>
<!-- Node12&#45;&gt;Node13 -->
<g id="edge13_Node000012_Node000013" class="edge">
<title>Node12&#45;&gt;Node13</title>
<g id="a_edge13_Node000012_Node000013"><a xlink:title=" ">
<path fill="none" stroke="#63b8ff" d="M67.09,-164.75C74.66,-157.03 85.88,-145.6 95.01,-136.28"/>
<polygon fill="#63b8ff" stroke="#63b8ff" points="97.57,-138.68 102.07,-129.09 92.57,-133.78 97.57,-138.68"/>
</a>
</g>
</g>
<!-- Node14 -->
<g id="Node000014" class="node">
<title>Node14</title>
<g id="a_Node000014"><a xlink:title=" ">
<polygon fill="#e0e0e0" stroke="#999999" points="140,-74 93,-74 93,-55 140,-55 140,-74"/>
<text text-anchor="middle" x="116.5" y="-62" font-family="Helvetica,sans-Serif" font-size="10.00">queue</text>
</a>
</g>
</g>
<!-- Node12&#45;&gt;Node14 -->
<g id="edge14_Node000012_Node000014" class="edge">
<title>Node12&#45;&gt;Node14</title>
<g id="a_edge14_Node000012_Node000014"><a xlink:title=" ">
<path fill="none" stroke="#63b8ff" d="M59.88,-164.83C62.15,-152.16 67.48,-128.13 77.5,-110 83.32,-99.48 91.96,-89.28 99.64,-81.31"/>
<polygon fill="#63b8ff" stroke="#63b8ff" points="102.22,-83.68 106.85,-74.15 97.29,-78.71 102.22,-83.68"/>
</a>
</g>
</g>
<!-- Node16 -->
<g id="Node000016" class="node">
<title>Node16</title>
<g id="a_Node000016"><a xlink:title=" ">
<polygon fill="#e0e0e0" stroke="#999999" points="288,-19 235,-19 235,0 288,0 288,-19"/>
<text text-anchor="middle" x="261.5" y="-7" font-family="Helvetica,sans-Serif" font-size="10.00">stdlib.h</text>
</a>
</g>
</g>
<!-- Node15&#45;&gt;Node16 -->
<g id="edge16_Node000015_Node000016" class="edge">
<title>Node15&#45;&gt;Node16</title>
<g id="a_edge16_Node000015_Node000016"><a xlink:title=" ">
<path fill="none" stroke="#63b8ff" d="M295.73,-54.75C289.94,-47.26 281.44,-36.28 274.36,-27.13"/>
<polygon fill="#63b8ff" stroke="#63b8ff" points="277.03,-24.86 268.14,-19.09 271.49,-29.14 277.03,-24.86"/>
</a>
</g>
</g>
<!-- Node17&#45;&gt;Node11 -->
<g id="edge19_Node000017_Node000011" class="edge">
<title>Node17&#45;&gt;Node11</title>
<g id="a_edge19_Node000017_Node000011"><a xlink:title=" ">
<path fill="none" stroke="#63b8ff" d="M457.56,-164.98C443,-156.69 420.63,-143.94 403.57,-134.22"/>
<polygon fill="#63b8ff" stroke="#63b8ff" points="405.14,-131.08 394.71,-129.17 401.67,-137.16 405.14,-131.08"/>
</a>
</g>
</g>
<!-- Node17&#45;&gt;Node15 -->
<g id="edge21_Node000017_Node000015" class="edge">
<title>Node17&#45;&gt;Node15</title>
<g id="a_edge21_Node000017_Node000015"><a xlink:title=" ">
<path fill="none" stroke="#63b8ff" d="M526.2,-164.98C565.59,-157.51 614.25,-145.29 626.5,-129 631.58,-122.25 632.05,-116.36 626.5,-110 592.06,-70.5 438.81,-64.83 356.01,-64.74"/>
<polygon fill="#63b8ff" stroke="#63b8ff" points="355.78,-61.24 345.79,-64.75 355.79,-68.24 355.78,-61.24"/>
</a>
</g>
</g>
<!-- Node18 -->
<g id="Node000018" class="node">
<title>Node18</title>
<g id="a_Node000018"><a xlink:title=" ">
<polygon fill="#e0e0e0" stroke="#999999" points="617,-129 552,-129 552,-110 617,-110 617,-129"/>
<text text-anchor="middle" x="584.5" y="-117" font-family="Helvetica,sans-Serif" font-size="10.00">functional</text>
</a>
</g>
</g>
<!-- Node17&#45;&gt;Node18 -->
<g id="edge18_Node000017_Node000018" class="edge">
<title>Node17&#45;&gt;Node18</title>
<g id="a_edge18_Node000017_Node000018"><a xlink:title=" ">
<path fill="none" stroke="#63b8ff" d="M490.49,-164.98C508.43,-156.5 536.22,-143.35 556.93,-133.54"/>
<polygon fill="#63b8ff" stroke="#63b8ff" points="558.64,-136.61 566.18,-129.17 555.64,-130.28 558.64,-136.61"/>
</a>
</g>
</g>
<!-- Node19 -->
<g id="Node000019" class="node">
<title>Node19</title>
<g id="a_Node000019"><a xlink:title=" ">
<polygon fill="#e0e0e0" stroke="#999999" points="534,-129 441,-129 441,-110 534,-110 534,-129"/>
<text text-anchor="middle" x="487.5" y="-117" font-family="Helvetica,sans-Serif" font-size="10.00">unordered_map</text>
</a>
</g>
</g>
<!-- Node17&#45;&gt;Node19 -->
<g id="edge20_Node000017_Node000019" class="edge">
<title>Node17&#45;&gt;Node19</title>
<g id="a_edge20_Node000017_Node000019"><a xlink:title=" ">
<path fill="none" stroke="#63b8ff" d="M474.98,-164.75C476.96,-157.72 479.82,-147.62 482.31,-138.84"/>
<polygon fill="#63b8ff" stroke="#63b8ff" points="485.71,-139.66 485.07,-129.09 478.98,-137.76 485.71,-139.66"/>
</a>
</g>
</g>
<!-- Node20&#45;&gt;Node14 -->
<g id="edge24_Node000020_Node000014" class="edge">
<title>Node20&#45;&gt;Node14</title>
<g id="a_edge24_Node000020_Node000014"><a xlink:title=" ">
<path fill="none" stroke="#63b8ff" d="M200.43,-109.98C184.64,-101.61 160.28,-88.7 141.87,-78.95"/>
<polygon fill="#63b8ff" stroke="#63b8ff" points="143.33,-75.76 132.86,-74.17 140.06,-81.95 143.33,-75.76"/>
</a>
</g>
</g>
<!-- Node20&#45;&gt;Node15 -->
<g id="edge25_Node000020_Node000015" class="edge">
<title>Node20&#45;&gt;Node15</title>
<g id="a_edge25_Node000020_Node000015"><a xlink:title=" ">
<path fill="none" stroke="#63b8ff" d="M230.32,-109.98C243.65,-101.77 264.08,-89.18 279.81,-79.49"/>
<polygon fill="#63b8ff" stroke="#63b8ff" points="281.75,-82.4 288.43,-74.17 278.08,-76.44 281.75,-82.4"/>
</a>
</g>
</g>
<!-- Node20&#45;&gt;Node16 -->
<g id="edge23_Node000020_Node000016" class="edge">
<title>Node20&#45;&gt;Node16</title>
<g id="a_edge23_Node000020_Node000016"><a xlink:title=" ">
<path fill="none" stroke="#63b8ff" d="M220.18,-109.66C227.54,-92.01 244.17,-52.09 253.94,-28.64"/>
<polygon fill="#63b8ff" stroke="#63b8ff" points="257.28,-29.74 257.89,-19.16 250.82,-27.04 257.28,-29.74"/>
</a>
</g>
</g>
<!-- Node21&#45;&gt;Node20 -->
<g id="edge27_Node000021_Node000020" class="edge">
<title>Node21&#45;&gt;Node20</title>
<g id="a_edge27_Node000021_Node000020"><a xlink:title=" ">
<path fill="none" stroke="#63b8ff" d="M193.96,-164.75C197.62,-157.57 202.91,-147.18 207.45,-138.27"/>
<polygon fill="#63b8ff" stroke="#63b8ff" points="210.7,-139.59 212.12,-129.09 204.47,-136.41 210.7,-139.59"/>
</a>
</g>
</g>
<!-- Node23&#45;&gt;Node3 -->
<g id="edge30_Node000023_Node000003" class="edge">
<title>Node23&#45;&gt;Node3</title>
<g id="a_edge30_Node000023_Node000003"><a xlink:title=" ">
<path fill="none" stroke="#63b8ff" d="M895,-335.1C893.82,-321.09 889.84,-293.57 876.5,-275 867.03,-261.82 852.35,-251.36 839.24,-243.91"/>
<polygon fill="#63b8ff" stroke="#63b8ff" points="840.53,-240.63 830.06,-239.01 837.24,-246.81 840.53,-240.63"/>
</a>
</g>
</g>
<!-- Node24 -->
<g id="Node000024" class="node">
<title>Node24</title>
<g id="a_Node000024"><a xlink:href="_ray_8hpp.html" target="_top" xlink:title=" ">
<polygon fill="white" stroke="#666666" points="1007,-294 924,-294 924,-275 1007,-275 1007,-294"/>
<text text-anchor="middle" x="965.5" y="-282" font-family="Helvetica,sans-Serif" font-size="10.00">Math/Ray.hpp</text>
</a>
</g>
</g>
<!-- Node23&#45;&gt;Node24 -->
<g id="edge31_Node000023_Node000024" class="edge">
<title>Node23&#45;&gt;Node24</title>
<g id="a_edge31_Node000023_Node000024"><a xlink:title=" ">
<path fill="none" stroke="#63b8ff" d="M905.83,-335.37C916.69,-326.3 933.99,-311.84 947.17,-300.82"/>
<polygon fill="#63b8ff" stroke="#63b8ff" points="949.7,-303.27 955.13,-294.17 945.21,-297.89 949.7,-303.27"/>
</a>
</g>
</g>
<!-- Node24&#45;&gt;Node3 -->
<g id="edge32_Node000024_Node000003" class="edge">
<title>Node24&#45;&gt;Node3</title>
<g id="a_edge32_Node000024_Node000003"><a xlink:title=" ">
<path fill="none" stroke="#63b8ff" d="M940.6,-274.98C914.8,-266.16 874.28,-252.31 845.32,-242.41"/>
<polygon fill="#63b8ff" stroke="#63b8ff" points="846.19,-239.01 835.6,-239.08 843.93,-245.63 846.19,-239.01"/>
</a>
</g>
</g>
<!-- Node25&#45;&gt;Node3 -->
<g id="edge34_Node000025_Node000003" class="edge">
<title>Node25&#45;&gt;Node3</title>
<g id="a_edge34_Node000025_Node000003"><a xlink:title=" ">
<path fill="none" stroke="#63b8ff" d="M440.32,-395.88C460.03,-387.73 489.54,-374.59 513.5,-360 532.18,-348.63 533.43,-340.71 552.5,-330 625.29,-289.11 718.24,-257.86 770.38,-242.02"/>
<polygon fill="#63b8ff" stroke="#63b8ff" points="771.67,-245.28 780.24,-239.06 769.66,-238.58 771.67,-245.28"/>
</a>
</g>
</g>
<!-- Node25&#45;&gt;Node9 -->
<g id="edge35_Node000025_Node000009" class="edge">
<title>Node25&#45;&gt;Node9</title>
<g id="a_edge35_Node000025_Node000009"><a xlink:title=" ">
<path fill="none" stroke="#63b8ff" d="M373.74,-395.92C353.55,-389.58 331.58,-378.67 319.5,-360 306.75,-340.3 325.52,-316.15 341.41,-300.8"/>
<polygon fill="#63b8ff" stroke="#63b8ff" points="343.81,-303.35 348.84,-294.02 339.09,-298.18 343.81,-303.35"/>
</a>
</g>
</g>
<!-- Node28&#45;&gt;Node2 -->
<g id="edge42_Node000028_Node000002" class="edge">
<title>Node28&#45;&gt;Node2</title>
<g id="a_edge42_Node000028_Node000002"><a xlink:title=" ">
<path fill="none" stroke="#63b8ff" d="M817.99,-450.98C780.01,-441.87 719.63,-427.4 678.14,-417.45"/>
<polygon fill="#63b8ff" stroke="#63b8ff" points="678.83,-414.01 668.29,-415.08 677.19,-420.82 678.83,-414.01"/>
</a>
</g>
</g>
<!-- Node28&#45;&gt;Node6 -->
<g id="edge40_Node000028_Node000006" class="edge">
<title>Node28&#45;&gt;Node6</title>
<g id="a_edge40_Node000028_Node000006"><a xlink:title=" ">
<path fill="none" stroke="#63b8ff" d="M928.2,-450.95C950.9,-444.59 973.72,-433.67 988.5,-415 999.56,-401.03 999.83,-380.1 998.09,-364.96"/>
<polygon fill="#63b8ff" stroke="#63b8ff" points="1001.49,-364.07 996.51,-354.72 994.57,-365.14 1001.49,-364.07"/>
</a>
</g>
</g>
<!-- Node28&#45;&gt;Node25 -->
<g id="edge43_Node000028_Node000025" class="edge">
<title>Node28&#45;&gt;Node25</title>
<g id="a_edge43_Node000028_Node000025"><a xlink:title=" ">
<path fill="none" stroke="#63b8ff" d="M783.61,-450.98C705.88,-441.51 580.52,-426.24 498.81,-416.29"/>
<polygon fill="#63b8ff" stroke="#63b8ff" points="498.93,-412.77 488.58,-415.04 498.08,-419.72 498.93,-412.77"/>
</a>
</g>
</g>
<!-- Node29 -->
<g id="Node000029" class="node">
<title>Node29</title>
<g id="a_Node000029"><a xlink:title=" ">
<polygon fill="#e0e0e0" stroke="#999999" points="979.5,-415 919.5,-415 919.5,-396 979.5,-396 979.5,-415"/>
<text text-anchor="middle" x="949.5" y="-403" font-family="Helvetica,sans-Serif" font-size="10.00">iostream</text>
</a>
</g>
</g>
<!-- Node28&#45;&gt;Node29 -->
<g id="edge41_Node000028_Node000029" class="edge">
<title>Node28&#45;&gt;Node29</title>
<g id="a_edge41_Node000028_Node000029"><a xlink:title=" ">
<path fill="none" stroke="#63b8ff" d="M868.92,-450.98C883.95,-442.69 907.04,-429.94 924.66,-420.22"/>
<polygon fill="#63b8ff" stroke="#63b8ff" points="926.73,-423.07 933.8,-415.17 923.35,-416.94 926.73,-423.07"/>
</a>
</g>
</g>
<!-- Node30 -->
<g id="Node000030" class="node">
<title>Node30</title>
<g id="a_Node000030"><a xlink:href="_base_component_8hpp.html" target="_top" xlink:title=" ">
<polygon fill="white" stroke="#666666" points="901.5,-415 719.5,-415 719.5,-396 901.5,-396 901.5,-415"/>
<text text-anchor="middle" x="810.5" y="-403" font-family="Helvetica,sans-Serif" font-size="10.00">Components/BaseComponent.hpp</text>
</a>
</g>
</g>
<!-- Node28&#45;&gt;Node30 -->
<g id="edge44_Node000028_Node000030" class="edge">
<title>Node28&#45;&gt;Node30</title>
<g id="a_edge44_Node000028_Node000030"><a xlink:title=" ">
<path fill="none" stroke="#63b8ff" d="M846.4,-450.75C840.33,-443.26 831.41,-432.28 823.99,-423.13"/>
<polygon fill="#63b8ff" stroke="#63b8ff" points="826.49,-420.65 817.47,-415.09 821.05,-425.06 826.49,-420.65"/>
</a>
</g>
</g>
<!-- Node31 -->
<g id="Node000031" class="node">
<title>Node31</title>
<g id="a_Node000031"><a xlink:href="_types_8hpp.html" target="_top" xlink:title=" ">
<polygon fill="white" stroke="#666666" points="867,-294 754,-294 754,-275 867,-275 867,-294"/>
<text text-anchor="middle" x="810.5" y="-282" font-family="Helvetica,sans-Serif" font-size="10.00">Common/Types.hpp</text>
</a>
</g>
</g>
<!-- Node30&#45;&gt;Node31 -->
<g id="edge45_Node000030_Node000031" class="edge">
<title>Node30&#45;&gt;Node31</title>
<g id="a_edge45_Node000030_Node000031"><a xlink:title=" ">
<path fill="none" stroke="#63b8ff" d="M810.5,-395.94C810.5,-376.91 810.5,-330.69 810.5,-304.47"/>
<polygon fill="#63b8ff" stroke="#63b8ff" points="814,-304.3 810.5,-294.3 807,-304.3 814,-304.3"/>
</a>
</g>
</g>
<!-- Node31&#45;&gt;Node8 -->
<g id="edge46_Node000031_Node000008" class="edge">
<title>Node31&#45;&gt;Node8</title>
<g id="a_edge46_Node000031_Node000008"><a xlink:title=" ">
<path fill="none" stroke="#63b8ff" d="M753.62,-274.98C683.27,-264.45 564.98,-246.74 500.93,-237.15"/>
<polygon fill="#63b8ff" stroke="#63b8ff" points="501.16,-233.65 490.75,-235.63 500.13,-240.57 501.16,-233.65"/>
</a>
</g>
</g>
</g>
</svg>
