<?xml version="1.0" encoding="UTF-8" standalone="no"?>
<!DOCTYPE svg PUBLIC "-//W3C//DTD SVG 1.1//EN"
 "http://www.w3.org/Graphics/SVG/1.1/DTD/svg11.dtd">
<!-- Generated by graphviz version 2.43.0 (0)
 -->
<!-- Title: src/ui/Components/ModelComponentUI.hpp Pages: 1 -->
<svg width="1367pt" height="489pt"
 viewBox="0.00 0.00 1366.75 489.00" xmlns="http://www.w3.org/2000/svg" xmlns:xlink="http://www.w3.org/1999/xlink">
<g id="graph0" class="graph" transform="scale(1 1) rotate(0) translate(4 485)">
<title>src/ui/Components/ModelComponentUI.hpp</title>
<!-- Node1 -->
<g id="Node000001" class="node">
<title>Node1</title>
<g id="a_Node000001"><a xlink:title=" ">
<polygon fill="#999999" stroke="#666666" points="767.75,-481 570.75,-481 570.75,-451 767.75,-451 767.75,-481"/>
<text text-anchor="start" x="578.75" y="-469" font-family="Helvetica,sans-Serif" font-size="10.00">src/ui/Components/ModelComponent</text>
<text text-anchor="middle" x="669.25" y="-458" font-family="Helvetica,sans-Serif" font-size="10.00">UI.hpp</text>
</a>
</g>
</g>
<!-- Node2 -->
<g id="Node000002" class="node">
<title>Node2</title>
<g id="a_Node000002"><a xlink:href="_mesh_8hpp.html" target="_top" xlink:title=" ">
<polygon fill="white" stroke="#666666" points="284.75,-360 147.75,-360 147.75,-341 284.75,-341 284.75,-360"/>
<text text-anchor="middle" x="216.25" y="-348" font-family="Helvetica,sans-Serif" font-size="10.00">AssetManager/Mesh.hpp</text>
</a>
</g>
</g>
<!-- Node1&#45;&gt;Node2 -->
<g id="edge1_Node000001_Node000002" class="edge">
<title>Node1&#45;&gt;Node2</title>
<g id="a_edge1_Node000001_Node000002"><a xlink:title=" ">
<path fill="none" stroke="#63b8ff" d="M570.72,-454.34C511.57,-446.52 435.24,-433.92 369.25,-415 323.3,-401.82 272.53,-378.99 242.56,-364.59"/>
<polygon fill="#63b8ff" stroke="#63b8ff" points="243.75,-361.28 233.23,-360.06 240.69,-367.58 243.75,-361.28"/>
</a>
</g>
</g>
<!-- Node11 -->
<g id="Node000011" class="node">
<title>Node11</title>
<g id="a_Node000011"><a xlink:href="_material_8hpp.html" target="_top" xlink:title=" ">
<polygon fill="white" stroke="#666666" points="492.75,-360 341.75,-360 341.75,-341 492.75,-341 492.75,-360"/>
<text text-anchor="middle" x="417.25" y="-348" font-family="Helvetica,sans-Serif" font-size="10.00">AssetManager/Material.hpp</text>
</a>
</g>
</g>
<!-- Node1&#45;&gt;Node11 -->
<g id="edge12_Node000001_Node000011" class="edge">
<title>Node1&#45;&gt;Node11</title>
<g id="a_edge12_Node000001_Node000011"><a xlink:title=" ">
<path fill="none" stroke="#63b8ff" d="M653.77,-450.88C636.01,-435.37 605.46,-410.73 575.25,-396 543.13,-380.33 504.56,-369.33 473.56,-362.19"/>
<polygon fill="#63b8ff" stroke="#63b8ff" points="474.31,-358.77 463.79,-360.01 472.78,-365.6 474.31,-358.77"/>
</a>
</g>
</g>
<!-- Node13 -->
<g id="Node000013" class="node">
<title>Node13</title>
<g id="a_Node000013"><a xlink:href="_registry_8hpp.html" target="_top" xlink:title=" ">
<polygon fill="white" stroke="#666666" points="861.25,-250 763.25,-250 763.25,-231 861.25,-231 861.25,-250"/>
<text text-anchor="middle" x="812.25" y="-238" font-family="Helvetica,sans-Serif" font-size="10.00">ECS/Registry.hpp</text>
</a>
</g>
</g>
<!-- Node1&#45;&gt;Node13 -->
<g id="edge41_Node000001_Node000013" class="edge">
<title>Node1&#45;&gt;Node13</title>
<g id="a_edge41_Node000001_Node000013"><a xlink:title=" ">
<path fill="none" stroke="#63b8ff" d="M690.14,-450.84C715.28,-432.71 756.99,-398.94 780.25,-360 799.31,-328.1 807.25,-284.67 810.38,-260.23"/>
<polygon fill="#63b8ff" stroke="#63b8ff" points="813.87,-260.49 811.53,-250.16 806.92,-259.7 813.87,-260.49"/>
</a>
</g>
</g>
<!-- Node28 -->
<g id="Node000028" class="node">
<title>Node28</title>
<g id="a_Node000028"><a xlink:title=" ">
<polygon fill="#e0e0e0" stroke="#999999" points="945.25,-415 827.25,-415 827.25,-396 945.25,-396 945.25,-415"/>
<text text-anchor="middle" x="886.25" y="-403" font-family="Helvetica,sans-Serif" font-size="10.00">UI/ComponentUI.hpp</text>
</a>
</g>
</g>
<!-- Node1&#45;&gt;Node28 -->
<g id="edge42_Node000001_Node000028" class="edge">
<title>Node1&#45;&gt;Node28</title>
<g id="a_edge42_Node000001_Node000028"><a xlink:title=" ">
<path fill="none" stroke="#63b8ff" d="M721.23,-450.99C759,-440.8 809.46,-427.2 844.59,-417.73"/>
<polygon fill="#63b8ff" stroke="#63b8ff" points="845.78,-421.04 854.52,-415.05 843.96,-414.28 845.78,-421.04"/>
</a>
</g>
</g>
<!-- Node29 -->
<g id="Node000029" class="node">
<title>Node29</title>
<g id="a_Node000029"><a xlink:title=" ">
<polygon fill="#e0e0e0" stroke="#999999" points="1127.25,-415 963.25,-415 963.25,-396 1127.25,-396 1127.25,-415"/>
<text text-anchor="middle" x="1045.25" y="-403" font-family="Helvetica,sans-Serif" font-size="10.00">UI/Common/AssetSelector.hpp</text>
</a>
</g>
</g>
<!-- Node1&#45;&gt;Node29 -->
<g id="edge43_Node000001_Node000029" class="edge">
<title>Node1&#45;&gt;Node29</title>
<g id="a_edge43_Node000001_Node000029"><a xlink:title=" ">
<path fill="none" stroke="#63b8ff" d="M759.31,-450.99C827.54,-440.37 919.63,-426.04 980.66,-416.55"/>
<polygon fill="#63b8ff" stroke="#63b8ff" points="981.21,-420.01 990.55,-415.01 980.13,-413.09 981.21,-420.01"/>
</a>
</g>
</g>
<!-- Node30 -->
<g id="Node000030" class="node">
<title>Node30</title>
<g id="a_Node000030"><a xlink:href="_model_component_8hpp.html" target="_top" xlink:title=" ">
<polygon fill="white" stroke="#666666" points="566.25,-415 378.25,-415 378.25,-396 566.25,-396 566.25,-415"/>
<text text-anchor="middle" x="472.25" y="-403" font-family="Helvetica,sans-Serif" font-size="10.00">Components/ModelComponent.hpp</text>
</a>
</g>
</g>
<!-- Node1&#45;&gt;Node30 -->
<g id="edge44_Node000001_Node000030" class="edge">
<title>Node1&#45;&gt;Node30</title>
<g id="a_edge44_Node000001_Node000030"><a xlink:title=" ">
<path fill="none" stroke="#63b8ff" d="M622.07,-450.99C588.07,-440.89 542.75,-427.44 510.9,-417.98"/>
<polygon fill="#63b8ff" stroke="#63b8ff" points="511.64,-414.55 501.06,-415.05 509.65,-421.26 511.64,-414.55"/>
</a>
</g>
</g>
<!-- Node3 -->
<g id="Node000003" class="node">
<title>Node3</title>
<g id="a_Node000003"><a xlink:title=" ">
<polygon fill="#e0e0e0" stroke="#999999" points="173.25,-189.5 95.25,-189.5 95.25,-170.5 173.25,-170.5 173.25,-189.5"/>
<text text-anchor="middle" x="134.25" y="-177.5" font-family="Helvetica,sans-Serif" font-size="10.00">glm/glm.hpp</text>
</a>
</g>
</g>
<!-- Node2&#45;&gt;Node3 -->
<g id="edge2_Node000002_Node000003" class="edge">
<title>Node2&#45;&gt;Node3</title>
<g id="a_edge2_Node000002_Node000003"><a xlink:title=" ">
<path fill="none" stroke="#63b8ff" d="M147.55,-343.9C94.21,-337.96 26.52,-326.37 9.25,-305 -26.6,-260.62 56.27,-215.04 103.8,-193.6"/>
<polygon fill="#63b8ff" stroke="#63b8ff" points="105.33,-196.75 113.07,-189.52 102.51,-190.35 105.33,-196.75"/>
</a>
</g>
</g>
<!-- Node4 -->
<g id="Node000004" class="node">
<title>Node4</title>
<g id="a_Node000004"><a xlink:title=" ">
<polygon fill="#e0e0e0" stroke="#999999" points="312.75,-250 241.75,-250 241.75,-231 312.75,-231 312.75,-250"/>
<text text-anchor="middle" x="277.25" y="-238" font-family="Helvetica,sans-Serif" font-size="10.00">glad/glad.h</text>
</a>
</g>
</g>
<!-- Node2&#45;&gt;Node4 -->
<g id="edge3_Node000002_Node000004" class="edge">
<title>Node2&#45;&gt;Node4</title>
<g id="a_edge3_Node000002_Node000004"><a xlink:title=" ">
<path fill="none" stroke="#63b8ff" d="M221.25,-340.66C231.3,-322.85 254.17,-282.37 267.37,-259.01"/>
<polygon fill="#63b8ff" stroke="#63b8ff" points="270.49,-260.59 272.36,-250.16 264.4,-257.14 270.49,-260.59"/>
</a>
</g>
</g>
<!-- Node5 -->
<g id="Node000005" class="node">
<title>Node5</title>
<g id="a_Node000005"><a xlink:title=" ">
<polygon fill="#e0e0e0" stroke="#999999" points="175.75,-305 128.75,-305 128.75,-286 175.75,-286 175.75,-305"/>
<text text-anchor="middle" x="152.25" y="-293" font-family="Helvetica,sans-Serif" font-size="10.00">vector</text>
</a>
</g>
</g>
<!-- Node2&#45;&gt;Node5 -->
<g id="edge4_Node000002_Node000005" class="edge">
<title>Node2&#45;&gt;Node5</title>
<g id="a_edge4_Node000002_Node000005"><a xlink:title=" ">
<path fill="none" stroke="#63b8ff" d="M205.97,-340.98C196.42,-333.07 181.97,-321.11 170.47,-311.58"/>
<polygon fill="#63b8ff" stroke="#63b8ff" points="172.66,-308.85 162.72,-305.17 168.19,-314.24 172.66,-308.85"/>
</a>
</g>
</g>
<!-- Node6 -->
<g id="Node000006" class="node">
<title>Node6</title>
<g id="a_Node000006"><a xlink:title=" ">
<polygon fill="#e0e0e0" stroke="#999999" points="314.25,-305 270.25,-305 270.25,-286 314.25,-286 314.25,-305"/>
<text text-anchor="middle" x="292.25" y="-293" font-family="Helvetica,sans-Serif" font-size="10.00">string</text>
</a>
</g>
</g>
<!-- Node2&#45;&gt;Node6 -->
<g id="edge5_Node000002_Node000006" class="edge">
<title>Node2&#45;&gt;Node6</title>
<g id="a_edge5_Node000002_Node000006"><a xlink:title=" ">
<path fill="none" stroke="#63b8ff" d="M228.46,-340.98C240.03,-332.92 257.63,-320.65 271.41,-311.03"/>
<polygon fill="#63b8ff" stroke="#63b8ff" points="273.62,-313.76 279.82,-305.17 269.62,-308.02 273.62,-313.76"/>
</a>
</g>
</g>
<!-- Node7 -->
<g id="Node000007" class="node">
<title>Node7</title>
<g id="a_Node000007"><a xlink:href="_path_constructible_asset_8hpp.html" target="_top" xlink:title=" ">
<polygon fill="white" stroke="#666666" points="536.75,-195 361.75,-195 361.75,-165 536.75,-165 536.75,-195"/>
<text text-anchor="start" x="369.75" y="-183" font-family="Helvetica,sans-Serif" font-size="10.00">AssetManager/PathConstructible</text>
<text text-anchor="middle" x="449.25" y="-172" font-family="Helvetica,sans-Serif" font-size="10.00">Asset.hpp</text>
</a>
</g>
</g>
<!-- Node2&#45;&gt;Node7 -->
<g id="edge6_Node000002_Node000007" class="edge">
<title>Node2&#45;&gt;Node7</title>
<g id="a_edge6_Node000002_Node000007"><a xlink:title=" ">
<path fill="none" stroke="#63b8ff" d="M214.43,-340.69C210.5,-318.96 203.72,-262.29 232.25,-231 248.73,-212.93 301.93,-200.5 351.53,-192.56"/>
<polygon fill="#63b8ff" stroke="#63b8ff" points="352.37,-195.97 361.72,-190.98 351.3,-189.06 352.37,-195.97"/>
</a>
</g>
</g>
<!-- Node9 -->
<g id="Node000009" class="node">
<title>Node9</title>
<g id="a_Node000009"><a xlink:href="_a_a_b_b_8hpp.html" target="_top" xlink:title=" ">
<polygon fill="white" stroke="#666666" points="110.25,-305 18.25,-305 18.25,-286 110.25,-286 110.25,-305"/>
<text text-anchor="middle" x="64.25" y="-293" font-family="Helvetica,sans-Serif" font-size="10.00">Math/AABB.hpp</text>
</a>
</g>
</g>
<!-- Node2&#45;&gt;Node9 -->
<g id="edge8_Node000002_Node000009" class="edge">
<title>Node2&#45;&gt;Node9</title>
<g id="a_edge8_Node000002_Node000009"><a xlink:title=" ">
<path fill="none" stroke="#63b8ff" d="M191.83,-340.98C166.53,-332.16 126.8,-318.31 98.4,-308.41"/>
<polygon fill="#63b8ff" stroke="#63b8ff" points="99.46,-305.07 88.87,-305.08 97.16,-311.68 99.46,-305.07"/>
</a>
</g>
</g>
<!-- Node8 -->
<g id="Node000008" class="node">
<title>Node8</title>
<g id="a_Node000008"><a xlink:title=" ">
<polygon fill="#e0e0e0" stroke="#999999" points="618.25,-129 550.25,-129 550.25,-110 618.25,-110 618.25,-129"/>
<text text-anchor="middle" x="584.25" y="-117" font-family="Helvetica,sans-Serif" font-size="10.00">filesystem</text>
</a>
</g>
</g>
<!-- Node7&#45;&gt;Node8 -->
<g id="edge7_Node000007_Node000008" class="edge">
<title>Node7&#45;&gt;Node8</title>
<g id="a_edge7_Node000007_Node000008"><a xlink:title=" ">
<path fill="none" stroke="#63b8ff" d="M481.59,-164.99C503.91,-155.31 533.35,-142.56 554.98,-133.18"/>
<polygon fill="#63b8ff" stroke="#63b8ff" points="556.53,-136.33 564.32,-129.14 553.75,-129.9 556.53,-136.33"/>
</a>
</g>
</g>
<!-- Node9&#45;&gt;Node3 -->
<g id="edge9_Node000009_Node000003" class="edge">
<title>Node9&#45;&gt;Node3</title>
<g id="a_edge9_Node000009_Node000003"><a xlink:title=" ">
<path fill="none" stroke="#63b8ff" d="M65.45,-285.72C67.51,-272.92 72.55,-248.73 83.25,-231 91.34,-217.6 103.86,-205.25 114.46,-196.18"/>
<polygon fill="#63b8ff" stroke="#63b8ff" points="116.92,-198.7 122.44,-189.65 112.49,-193.28 116.92,-198.7"/>
</a>
</g>
</g>
<!-- Node10 -->
<g id="Node000010" class="node">
<title>Node10</title>
<g id="a_Node000010"><a xlink:href="_ray_8hpp.html" target="_top" xlink:title=" ">
<polygon fill="white" stroke="#666666" points="175.75,-250 92.75,-250 92.75,-231 175.75,-231 175.75,-250"/>
<text text-anchor="middle" x="134.25" y="-238" font-family="Helvetica,sans-Serif" font-size="10.00">Math/Ray.hpp</text>
</a>
</g>
</g>
<!-- Node9&#45;&gt;Node10 -->
<g id="edge10_Node000009_Node000010" class="edge">
<title>Node9&#45;&gt;Node10</title>
<g id="a_edge10_Node000009_Node000010"><a xlink:title=" ">
<path fill="none" stroke="#63b8ff" d="M75.5,-285.98C86.05,-278 102.05,-265.88 114.7,-256.31"/>
<polygon fill="#63b8ff" stroke="#63b8ff" points="116.94,-259 122.8,-250.17 112.72,-253.42 116.94,-259"/>
</a>
</g>
</g>
<!-- Node10&#45;&gt;Node3 -->
<g id="edge11_Node000010_Node000003" class="edge">
<title>Node10&#45;&gt;Node3</title>
<g id="a_edge11_Node000010_Node000003"><a xlink:title=" ">
<path fill="none" stroke="#63b8ff" d="M134.25,-230.87C134.25,-222.75 134.25,-210.31 134.25,-199.89"/>
<polygon fill="#63b8ff" stroke="#63b8ff" points="137.75,-199.67 134.25,-189.67 130.75,-199.67 137.75,-199.67"/>
</a>
</g>
</g>
<!-- Node11&#45;&gt;Node3 -->
<g id="edge13_Node000011_Node000003" class="edge">
<title>Node11&#45;&gt;Node3</title>
<g id="a_edge13_Node000011_Node000003"><a xlink:title=" ">
<path fill="none" stroke="#63b8ff" d="M440.48,-340.83C466.46,-329.77 502.97,-309.24 487.25,-286 468.88,-258.82 381.55,-240.84 350.25,-231 293.87,-213.27 227.42,-198.83 183.26,-190.1"/>
<polygon fill="#63b8ff" stroke="#63b8ff" points="183.85,-186.65 173.37,-188.16 182.51,-193.52 183.85,-186.65"/>
</a>
</g>
</g>
<!-- Node12 -->
<g id="Node000012" class="node">
<title>Node12</title>
<g id="a_Node000012"><a xlink:href="_asset_8hpp.html" target="_top" xlink:title=" ">
<polygon fill="white" stroke="#666666" points="671.75,-305 534.75,-305 534.75,-286 671.75,-286 671.75,-305"/>
<text text-anchor="middle" x="603.25" y="-293" font-family="Helvetica,sans-Serif" font-size="10.00">AssetManager/Asset.hpp</text>
</a>
</g>
</g>
<!-- Node11&#45;&gt;Node12 -->
<g id="edge14_Node000011_Node000012" class="edge">
<title>Node11&#45;&gt;Node12</title>
<g id="a_edge14_Node000011_Node000012"><a xlink:title=" ">
<path fill="none" stroke="#63b8ff" d="M447.14,-340.98C478.63,-332.01 528.42,-317.82 563.28,-307.89"/>
<polygon fill="#63b8ff" stroke="#63b8ff" points="564.48,-311.19 573.13,-305.08 562.56,-304.46 564.48,-311.19"/>
</a>
</g>
</g>
<!-- Node26 -->
<g id="Node000026" class="node">
<title>Node26</title>
<g id="a_Node000026"><a xlink:href="_texture_8hpp.html" target="_top" xlink:title=" ">
<polygon fill="white" stroke="#666666" points="478.25,-305 332.25,-305 332.25,-286 478.25,-286 478.25,-305"/>
<text text-anchor="middle" x="405.25" y="-293" font-family="Helvetica,sans-Serif" font-size="10.00">AssetManager/Texture.hpp</text>
</a>
</g>
</g>
<!-- Node11&#45;&gt;Node26 -->
<g id="edge35_Node000011_Node000026" class="edge">
<title>Node11&#45;&gt;Node26</title>
<g id="a_edge35_Node000011_Node000026"><a xlink:title=" ">
<path fill="none" stroke="#63b8ff" d="M415.27,-340.75C413.68,-333.72 411.39,-323.62 409.41,-314.84"/>
<polygon fill="#63b8ff" stroke="#63b8ff" points="412.82,-314.07 407.2,-305.09 405.99,-315.62 412.82,-314.07"/>
</a>
</g>
</g>
<!-- Node12&#45;&gt;Node8 -->
<g id="edge15_Node000012_Node000008" class="edge">
<title>Node12&#45;&gt;Node8</title>
<g id="a_edge15_Node000012_Node000008"><a xlink:title=" ">
<path fill="none" stroke="#63b8ff" d="M602.28,-285.63C599.32,-258.52 590.35,-176.32 586.29,-139.13"/>
<polygon fill="#63b8ff" stroke="#63b8ff" points="589.76,-138.7 585.2,-129.14 582.8,-139.46 589.76,-138.7"/>
</a>
</g>
</g>
<!-- Node12&#45;&gt;Node13 -->
<g id="edge16_Node000012_Node000013" class="edge">
<title>Node12&#45;&gt;Node13</title>
<g id="a_edge16_Node000012_Node000013"><a xlink:title=" ">
<path fill="none" stroke="#63b8ff" d="M636.83,-285.98C672.6,-276.91 729.37,-262.52 768.59,-252.57"/>
<polygon fill="#63b8ff" stroke="#63b8ff" points="769.58,-255.93 778.41,-250.08 767.86,-249.15 769.58,-255.93"/>
</a>
</g>
</g>
<!-- Node14 -->
<g id="Node000014" class="node">
<title>Node14</title>
<g id="a_Node000014"><a xlink:title=" ">
<polygon fill="#e0e0e0" stroke="#999999" points="793.25,-129 707.25,-129 707.25,-110 793.25,-110 793.25,-129"/>
<text text-anchor="middle" x="750.25" y="-117" font-family="Helvetica,sans-Serif" font-size="10.00">unordered_set</text>
</a>
</g>
</g>
<!-- Node13&#45;&gt;Node14 -->
<g id="edge17_Node000013_Node000014" class="edge">
<title>Node13&#45;&gt;Node14</title>
<g id="a_edge17_Node000013_Node000014"><a xlink:title=" ">
<path fill="none" stroke="#63b8ff" d="M783.87,-230.92C766.79,-224.13 746.44,-212.77 736.25,-195 726.27,-177.58 733.16,-154.46 740.35,-138.62"/>
<polygon fill="#63b8ff" stroke="#63b8ff" points="743.62,-139.91 744.95,-129.4 737.36,-136.79 743.62,-139.91"/>
</a>
</g>
</g>
<!-- Node15 -->
<g id="Node000015" class="node">
<title>Node15</title>
<g id="a_Node000015"><a xlink:href="_logger_8hpp.html" target="_top" xlink:title=" ">
<polygon fill="white" stroke="#666666" points="1358.75,-189.5 1241.75,-189.5 1241.75,-170.5 1358.75,-170.5 1358.75,-189.5"/>
<text text-anchor="middle" x="1300.25" y="-177.5" font-family="Helvetica,sans-Serif" font-size="10.00">Common/Logger.hpp</text>
</a>
</g>
</g>
<!-- Node13&#45;&gt;Node15 -->
<g id="edge18_Node000013_Node000015" class="edge">
<title>Node13&#45;&gt;Node15</title>
<g id="a_edge18_Node000013_Node000015"><a xlink:title=" ">
<path fill="none" stroke="#63b8ff" d="M861.28,-235.87C939.86,-229.69 1098.76,-215.76 1232.25,-195 1238.66,-194 1245.38,-192.81 1252,-191.54"/>
<polygon fill="#63b8ff" stroke="#63b8ff" points="1253.12,-194.88 1262.25,-189.51 1251.76,-188.02 1253.12,-194.88"/>
</a>
</g>
</g>
<!-- Node18 -->
<g id="Node000018" class="node">
<title>Node18</title>
<g id="a_Node000018"><a xlink:href="_entity_8hpp.html" target="_top" xlink:title=" ">
<polygon fill="white" stroke="#666666" points="951.25,-74 865.25,-74 865.25,-55 951.25,-55 951.25,-74"/>
<text text-anchor="middle" x="908.25" y="-62" font-family="Helvetica,sans-Serif" font-size="10.00">ECS/Entity.hpp</text>
</a>
</g>
</g>
<!-- Node13&#45;&gt;Node18 -->
<g id="edge21_Node000013_Node000018" class="edge">
<title>Node13&#45;&gt;Node18</title>
<g id="a_edge21_Node000013_Node000018"><a xlink:title=" ">
<path fill="none" stroke="#63b8ff" d="M785.52,-230.87C767.1,-223.75 743.17,-212.04 727.25,-195 700.01,-165.83 673.12,-141.01 698.25,-110 717.64,-86.08 799.47,-74.5 855.07,-69.3"/>
<polygon fill="#63b8ff" stroke="#63b8ff" points="855.48,-72.77 865.12,-68.4 854.85,-65.8 855.48,-72.77"/>
</a>
</g>
</g>
<!-- Node20 -->
<g id="Node000020" class="node">
<title>Node20</title>
<g id="a_Node000020"><a xlink:href="_entity_hierarchy_8hpp.html" target="_top" xlink:title=" ">
<polygon fill="white" stroke="#666666" points="879.25,-189.5 745.25,-189.5 745.25,-170.5 879.25,-170.5 879.25,-189.5"/>
<text text-anchor="middle" x="812.25" y="-177.5" font-family="Helvetica,sans-Serif" font-size="10.00">ECS/EntityHierarchy.hpp</text>
</a>
</g>
</g>
<!-- Node13&#45;&gt;Node20 -->
<g id="edge23_Node000013_Node000020" class="edge">
<title>Node13&#45;&gt;Node20</title>
<g id="a_edge23_Node000013_Node000020"><a xlink:title=" ">
<path fill="none" stroke="#63b8ff" d="M812.25,-230.87C812.25,-222.75 812.25,-210.31 812.25,-199.89"/>
<polygon fill="#63b8ff" stroke="#63b8ff" points="815.75,-199.67 812.25,-189.67 808.75,-199.67 815.75,-199.67"/>
</a>
</g>
</g>
<!-- Node23 -->
<g id="Node000023" class="node">
<title>Node23</title>
<g id="a_Node000023"><a xlink:href="_entity_provider_8hpp.html" target="_top" xlink:title="Manages a pool of unused entity identifiers and provides mechanisms for requesting and removing them.">
<polygon fill="white" stroke="#666666" points="1172.25,-129 1044.25,-129 1044.25,-110 1172.25,-110 1172.25,-129"/>
<text text-anchor="middle" x="1108.25" y="-117" font-family="Helvetica,sans-Serif" font-size="10.00">ECS/EntityProvider.hpp</text>
</a>
</g>
</g>
<!-- Node13&#45;&gt;Node23 -->
<g id="edge28_Node000013_Node000023" class="edge">
<title>Node13&#45;&gt;Node23</title>
<g id="a_edge28_Node000013_Node000023"><a xlink:title=" ">
<path fill="none" stroke="#63b8ff" d="M861.37,-236.05C926.2,-230.66 1035.92,-218.33 1068.25,-195 1087,-181.47 1097.82,-156.39 1103.37,-139.09"/>
<polygon fill="#63b8ff" stroke="#63b8ff" points="1106.86,-139.63 1106.29,-129.05 1100.14,-137.68 1106.86,-139.63"/>
</a>
</g>
</g>
<!-- Node24 -->
<g id="Node000024" class="node">
<title>Node24</title>
<g id="a_Node000024"><a xlink:href="_sparse_set_8hpp.html" target="_top" xlink:title=" ">
<polygon fill="white" stroke="#666666" points="1223.25,-189.5 1115.25,-189.5 1115.25,-170.5 1223.25,-170.5 1223.25,-189.5"/>
<text text-anchor="middle" x="1169.25" y="-177.5" font-family="Helvetica,sans-Serif" font-size="10.00">ECS/SparseSet.hpp</text>
</a>
</g>
</g>
<!-- Node13&#45;&gt;Node24 -->
<g id="edge32_Node000013_Node000024" class="edge">
<title>Node13&#45;&gt;Node24</title>
<g id="a_edge32_Node000013_Node000024"><a xlink:title=" ">
<path fill="none" stroke="#63b8ff" d="M861.47,-232.69C919.08,-224.54 1017.31,-210.09 1101.25,-195 1107.1,-193.95 1113.23,-192.78 1119.3,-191.58"/>
<polygon fill="#63b8ff" stroke="#63b8ff" points="1120.29,-194.95 1129.41,-189.55 1118.91,-188.09 1120.29,-194.95"/>
</a>
</g>
</g>
<!-- Node25 -->
<g id="Node000025" class="node">
<title>Node25</title>
<g id="a_Node000025"><a xlink:href="_singleton_component_8hpp.html" target="_top" xlink:title=" ">
<polygon fill="white" stroke="#666666" points="1058.75,-189.5 897.75,-189.5 897.75,-170.5 1058.75,-170.5 1058.75,-189.5"/>
<text text-anchor="middle" x="978.25" y="-177.5" font-family="Helvetica,sans-Serif" font-size="10.00">ECS/SingletonComponent.hpp</text>
</a>
</g>
</g>
<!-- Node13&#45;&gt;Node25 -->
<g id="edge34_Node000013_Node000025" class="edge">
<title>Node13&#45;&gt;Node25</title>
<g id="a_edge34_Node000013_Node000025"><a xlink:title=" ">
<path fill="none" stroke="#63b8ff" d="M836.39,-230.99C864.79,-220.99 912.13,-204.3 944.24,-192.99"/>
<polygon fill="#63b8ff" stroke="#63b8ff" points="945.82,-196.14 954.09,-189.52 943.49,-189.54 945.82,-196.14"/>
</a>
</g>
</g>
<!-- Node16 -->
<g id="Node000016" class="node">
<title>Node16</title>
<g id="a_Node000016"><a xlink:title=" ">
<polygon fill="#e0e0e0" stroke="#999999" points="1324.25,-129 1276.25,-129 1276.25,-110 1324.25,-110 1324.25,-129"/>
<text text-anchor="middle" x="1300.25" y="-117" font-family="Helvetica,sans-Serif" font-size="10.00">mutex</text>
</a>
</g>
</g>
<!-- Node15&#45;&gt;Node16 -->
<g id="edge19_Node000015_Node000016" class="edge">
<title>Node15&#45;&gt;Node16</title>
<g id="a_edge19_Node000015_Node000016"><a xlink:title=" ">
<path fill="none" stroke="#63b8ff" d="M1300.25,-170.37C1300.25,-162.25 1300.25,-149.81 1300.25,-139.39"/>
<polygon fill="#63b8ff" stroke="#63b8ff" points="1303.75,-139.17 1300.25,-129.17 1296.75,-139.17 1303.75,-139.17"/>
</a>
</g>
</g>
<!-- Node17 -->
<g id="Node000017" class="node">
<title>Node17</title>
<g id="a_Node000017"><a xlink:title=" ">
<polygon fill="#e0e0e0" stroke="#999999" points="1177.75,-74 1130.75,-74 1130.75,-55 1177.75,-55 1177.75,-74"/>
<text text-anchor="middle" x="1154.25" y="-62" font-family="Helvetica,sans-Serif" font-size="10.00">queue</text>
</a>
</g>
</g>
<!-- Node15&#45;&gt;Node17 -->
<g id="edge20_Node000015_Node000017" class="edge">
<title>Node15&#45;&gt;Node17</title>
<g id="a_edge20_Node000015_Node000017"><a xlink:title=" ">
<path fill="none" stroke="#63b8ff" d="M1289.28,-170.47C1264.55,-151.24 1204.21,-104.33 1173.25,-80.27"/>
<polygon fill="#63b8ff" stroke="#63b8ff" points="1175.4,-77.5 1165.35,-74.13 1171.1,-83.03 1175.4,-77.5"/>
</a>
</g>
</g>
<!-- Node19 -->
<g id="Node000019" class="node">
<title>Node19</title>
<g id="a_Node000019"><a xlink:title=" ">
<polygon fill="#e0e0e0" stroke="#999999" points="969.75,-19 916.75,-19 916.75,0 969.75,0 969.75,-19"/>
<text text-anchor="middle" x="943.25" y="-7" font-family="Helvetica,sans-Serif" font-size="10.00">stdlib.h</text>
</a>
</g>
</g>
<!-- Node18&#45;&gt;Node19 -->
<g id="edge22_Node000018_Node000019" class="edge">
<title>Node18&#45;&gt;Node19</title>
<g id="a_edge22_Node000018_Node000019"><a xlink:title=" ">
<path fill="none" stroke="#63b8ff" d="M914.03,-54.75C918.87,-47.42 925.93,-36.73 931.9,-27.7"/>
<polygon fill="#63b8ff" stroke="#63b8ff" points="934.99,-29.36 937.58,-19.09 929.15,-25.5 934.99,-29.36"/>
</a>
</g>
</g>
<!-- Node20&#45;&gt;Node14 -->
<g id="edge25_Node000020_Node000014" class="edge">
<title>Node20&#45;&gt;Node14</title>
<g id="a_edge25_Node000020_Node000014"><a xlink:title=" ">
<path fill="none" stroke="#63b8ff" d="M803.1,-170.37C793.58,-161.38 778.46,-147.11 766.82,-136.14"/>
<polygon fill="#63b8ff" stroke="#63b8ff" points="769.11,-133.48 759.44,-129.17 764.31,-138.58 769.11,-133.48"/>
</a>
</g>
</g>
<!-- Node20&#45;&gt;Node18 -->
<g id="edge27_Node000020_Node000018" class="edge">
<title>Node20&#45;&gt;Node18</title>
<g id="a_edge27_Node000020_Node000018"><a xlink:title=" ">
<path fill="none" stroke="#63b8ff" d="M814.23,-170.07C817.7,-156.01 826.01,-128.42 841.25,-110 851.96,-97.06 867.39,-86.46 880.74,-78.85"/>
<polygon fill="#63b8ff" stroke="#63b8ff" points="882.45,-81.91 889.57,-74.08 879.11,-75.76 882.45,-81.91"/>
</a>
</g>
</g>
<!-- Node21 -->
<g id="Node000021" class="node">
<title>Node21</title>
<g id="a_Node000021"><a xlink:title=" ">
<polygon fill="#e0e0e0" stroke="#999999" points="914.75,-129 849.75,-129 849.75,-110 914.75,-110 914.75,-129"/>
<text text-anchor="middle" x="882.25" y="-117" font-family="Helvetica,sans-Serif" font-size="10.00">functional</text>
</a>
</g>
</g>
<!-- Node20&#45;&gt;Node21 -->
<g id="edge24_Node000020_Node000021" class="edge">
<title>Node20&#45;&gt;Node21</title>
<g id="a_edge24_Node000020_Node000021"><a xlink:title=" ">
<path fill="none" stroke="#63b8ff" d="M822.58,-170.37C833.44,-161.3 850.74,-146.84 863.92,-135.82"/>
<polygon fill="#63b8ff" stroke="#63b8ff" points="866.45,-138.27 871.88,-129.17 861.96,-132.89 866.45,-138.27"/>
</a>
</g>
</g>
<!-- Node22 -->
<g id="Node000022" class="node">
<title>Node22</title>
<g id="a_Node000022"><a xlink:title=" ">
<polygon fill="#e0e0e0" stroke="#999999" points="1025.75,-129 932.75,-129 932.75,-110 1025.75,-110 1025.75,-129"/>
<text text-anchor="middle" x="979.25" y="-117" font-family="Helvetica,sans-Serif" font-size="10.00">unordered_map</text>
</a>
</g>
</g>
<!-- Node20&#45;&gt;Node22 -->
<g id="edge26_Node000020_Node000022" class="edge">
<title>Node20&#45;&gt;Node22</title>
<g id="a_edge26_Node000020_Node000022"><a xlink:title=" ">
<path fill="none" stroke="#63b8ff" d="M836.54,-170.49C865.23,-160.44 913.14,-143.66 945.45,-132.34"/>
<polygon fill="#63b8ff" stroke="#63b8ff" points="946.66,-135.63 954.94,-129.02 944.35,-129.02 946.66,-135.63"/>
</a>
</g>
</g>
<!-- Node23&#45;&gt;Node17 -->
<g id="edge30_Node000023_Node000017" class="edge">
<title>Node23&#45;&gt;Node17</title>
<g id="a_edge30_Node000023_Node000017"><a xlink:title=" ">
<path fill="none" stroke="#63b8ff" d="M1115.85,-109.75C1122.41,-102.18 1132.08,-91.05 1140.07,-81.84"/>
<polygon fill="#63b8ff" stroke="#63b8ff" points="1142.89,-83.94 1146.8,-74.09 1137.6,-79.35 1142.89,-83.94"/>
</a>
</g>
</g>
<!-- Node23&#45;&gt;Node18 -->
<g id="edge31_Node000023_Node000018" class="edge">
<title>Node23&#45;&gt;Node18</title>
<g id="a_edge31_Node000023_Node000018"><a xlink:title=" ">
<path fill="none" stroke="#63b8ff" d="M1076.12,-109.98C1042.11,-100.97 988.26,-86.7 950.75,-76.76"/>
<polygon fill="#63b8ff" stroke="#63b8ff" points="951.2,-73.26 940.64,-74.08 949.41,-80.03 951.2,-73.26"/>
</a>
</g>
</g>
<!-- Node23&#45;&gt;Node19 -->
<g id="edge29_Node000023_Node000019" class="edge">
<title>Node23&#45;&gt;Node19</title>
<g id="a_edge29_Node000023_Node000019"><a xlink:title=" ">
<path fill="none" stroke="#63b8ff" d="M1095.03,-109.84C1066.67,-91.28 999.76,-47.49 965.03,-24.75"/>
<polygon fill="#63b8ff" stroke="#63b8ff" points="966.82,-21.74 956.54,-19.2 962.99,-27.6 966.82,-21.74"/>
</a>
</g>
</g>
<!-- Node24&#45;&gt;Node23 -->
<g id="edge33_Node000024_Node000023" class="edge">
<title>Node24&#45;&gt;Node23</title>
<g id="a_edge33_Node000024_Node000023"><a xlink:title=" ">
<path fill="none" stroke="#63b8ff" d="M1160.25,-170.37C1150.88,-161.38 1136,-147.11 1124.56,-136.14"/>
<polygon fill="#63b8ff" stroke="#63b8ff" points="1126.93,-133.56 1117.29,-129.17 1122.09,-138.62 1126.93,-133.56"/>
</a>
</g>
</g>
<!-- Node26&#45;&gt;Node3 -->
<g id="edge37_Node000026_Node000003" class="edge">
<title>Node26&#45;&gt;Node3</title>
<g id="a_edge37_Node000026_Node000003"><a xlink:title=" ">
<path fill="none" stroke="#63b8ff" d="M396.23,-285.76C381.65,-272.11 351.48,-245.76 321.25,-231 277.04,-209.41 222.23,-196.16 183.41,-188.77"/>
<polygon fill="#63b8ff" stroke="#63b8ff" points="183.87,-185.3 173.4,-186.93 182.6,-192.18 183.87,-185.3"/>
</a>
</g>
</g>
<!-- Node26&#45;&gt;Node4 -->
<g id="edge36_Node000026_Node000004" class="edge">
<title>Node26&#45;&gt;Node4</title>
<g id="a_edge36_Node000026_Node000004"><a xlink:title=" ">
<path fill="none" stroke="#63b8ff" d="M384.69,-285.98C363.82,-277.34 331.28,-263.87 307.48,-254.02"/>
<polygon fill="#63b8ff" stroke="#63b8ff" points="308.77,-250.76 298.19,-250.17 306.09,-257.23 308.77,-250.76"/>
</a>
</g>
</g>
<!-- Node27 -->
<g id="Node000027" class="node">
<title>Node27</title>
<g id="a_Node000027"><a xlink:href="_image_8hpp.html" target="_top" xlink:title=" ">
<polygon fill="white" stroke="#666666" points="574.75,-250 433.75,-250 433.75,-231 574.75,-231 574.75,-250"/>
<text text-anchor="middle" x="504.25" y="-238" font-family="Helvetica,sans-Serif" font-size="10.00">AssetManager/Image.hpp</text>
</a>
</g>
</g>
<!-- Node26&#45;&gt;Node27 -->
<g id="edge38_Node000026_Node000027" class="edge">
<title>Node26&#45;&gt;Node27</title>
<g id="a_edge38_Node000026_Node000027"><a xlink:title=" ">
<path fill="none" stroke="#63b8ff" d="M421.16,-285.98C436.8,-277.61 460.91,-264.7 479.14,-254.95"/>
<polygon fill="#63b8ff" stroke="#63b8ff" points="480.89,-257.98 488.06,-250.17 477.59,-251.8 480.89,-257.98"/>
</a>
</g>
</g>
<!-- Node27&#45;&gt;Node7 -->
<g id="edge40_Node000027_Node000007" class="edge">
<title>Node27&#45;&gt;Node7</title>
<g id="a_edge40_Node000027_Node000007"><a xlink:title=" ">
<path fill="none" stroke="#63b8ff" d="M496.14,-230.87C489.16,-223.44 478.79,-212.42 469.58,-202.62"/>
<polygon fill="#63b8ff" stroke="#63b8ff" points="471.92,-200 462.52,-195.11 466.82,-204.8 471.92,-200"/>
</a>
</g>
</g>
<!-- Node27&#45;&gt;Node8 -->
<g id="edge39_Node000027_Node000008" class="edge">
<title>Node27&#45;&gt;Node8</title>
<g id="a_edge39_Node000027_Node000008"><a xlink:title=" ">
<path fill="none" stroke="#63b8ff" d="M513.75,-230.96C522.85,-222.45 536.58,-208.72 546.25,-195 558.9,-177.07 569.86,-154.34 576.71,-138.74"/>
<polygon fill="#63b8ff" stroke="#63b8ff" points="580.07,-139.78 580.77,-129.21 573.63,-137.04 580.07,-139.78"/>
</a>
</g>
</g>
<!-- Node30&#45;&gt;Node2 -->
<g id="edge47_Node000030_Node000002" class="edge">
<title>Node30&#45;&gt;Node2</title>
<g id="a_edge47_Node000030_Node000002"><a xlink:title=" ">
<path fill="none" stroke="#63b8ff" d="M431.12,-395.98C386.65,-386.78 315.7,-372.09 267.6,-362.13"/>
<polygon fill="#63b8ff" stroke="#63b8ff" points="268.21,-358.68 257.71,-360.08 266.79,-365.54 268.21,-358.68"/>
</a>
</g>
</g>
<!-- Node30&#45;&gt;Node6 -->
<g id="edge45_Node000030_Node000006" class="edge">
<title>Node30&#45;&gt;Node6</title>
<g id="a_edge45_Node000030_Node000006"><a xlink:title=" ">
<path fill="none" stroke="#63b8ff" d="M415.85,-395.94C388.47,-389.58 356.36,-378.64 332.25,-360 316.99,-348.2 306,-328.81 299.45,-314.55"/>
<polygon fill="#63b8ff" stroke="#63b8ff" points="302.62,-313.07 295.46,-305.26 296.19,-315.83 302.62,-313.07"/>
</a>
</g>
</g>
<!-- Node30&#45;&gt;Node11 -->
<g id="edge48_Node000030_Node000011" class="edge">
<title>Node30&#45;&gt;Node11</title>
<g id="a_edge48_Node000030_Node000011"><a xlink:title=" ">
<path fill="none" stroke="#63b8ff" d="M463.17,-395.75C455.16,-388.03 443.3,-376.6 433.63,-367.28"/>
<polygon fill="#63b8ff" stroke="#63b8ff" points="435.8,-364.51 426.17,-360.09 430.94,-369.55 435.8,-364.51"/>
</a>
</g>
</g>
<!-- Node31 -->
<g id="Node000031" class="node">
<title>Node31</title>
<g id="a_Node000031"><a xlink:title=" ">
<polygon fill="#e0e0e0" stroke="#999999" points="771.25,-360 711.25,-360 711.25,-341 771.25,-341 771.25,-360"/>
<text text-anchor="middle" x="741.25" y="-348" font-family="Helvetica,sans-Serif" font-size="10.00">iostream</text>
</a>
</g>
</g>
<!-- Node30&#45;&gt;Node31 -->
<g id="edge46_Node000030_Node000031" class="edge">
<title>Node30&#45;&gt;Node31</title>
<g id="a_edge46_Node000030_Node000031"><a xlink:title=" ">
<path fill="none" stroke="#63b8ff" d="M518.14,-395.95C562.43,-387.62 631.65,-374.42 700.83,-360.26"/>
<polygon fill="#63b8ff" stroke="#63b8ff" points="701.94,-363.6 711.03,-358.16 700.53,-356.74 701.94,-363.6"/>
</a>
</g>
</g>
<!-- Node32 -->
<g id="Node000032" class="node">
<title>Node32</title>
<g id="a_Node000032"><a xlink:href="_base_component_8hpp.html" target="_top" xlink:title=" ">
<polygon fill="white" stroke="#666666" points="693.25,-360 511.25,-360 511.25,-341 693.25,-341 693.25,-360"/>
<text text-anchor="middle" x="602.25" y="-348" font-family="Helvetica,sans-Serif" font-size="10.00">Components/BaseComponent.hpp</text>
</a>
</g>
</g>
<!-- Node30&#45;&gt;Node32 -->
<g id="edge49_Node000030_Node000032" class="edge">
<title>Node30&#45;&gt;Node32</title>
<g id="a_edge49_Node000030_Node000032"><a xlink:title=" ">
<path fill="none" stroke="#63b8ff" d="M493.14,-395.98C514.34,-387.34 547.38,-373.87 571.55,-364.02"/>
<polygon fill="#63b8ff" stroke="#63b8ff" points="573.05,-367.19 580.99,-360.17 570.4,-360.7 573.05,-367.19"/>
</a>
</g>
</g>
<!-- Node33 -->
<g id="Node000033" class="node">
<title>Node33</title>
<g id="a_Node000033"><a xlink:href="_types_8hpp.html" target="_top" xlink:title=" ">
<polygon fill="white" stroke="#666666" points="744.75,-250 631.75,-250 631.75,-231 744.75,-231 744.75,-250"/>
<text text-anchor="middle" x="688.25" y="-238" font-family="Helvetica,sans-Serif" font-size="10.00">Common/Types.hpp</text>
</a>
</g>
</g>
<!-- Node32&#45;&gt;Node33 -->
<g id="edge50_Node000032_Node000033" class="edge">
<title>Node32&#45;&gt;Node33</title>
<g id="a_edge50_Node000032_Node000033"><a xlink:title=" ">
<path fill="none" stroke="#63b8ff" d="M630.67,-340.96C648.21,-334.14 669.54,-322.73 681.25,-305 689.95,-291.84 691.14,-273.71 690.49,-260.19"/>
<polygon fill="#63b8ff" stroke="#63b8ff" points="693.97,-259.79 689.63,-250.13 686.99,-260.39 693.97,-259.79"/>
</a>
</g>
</g>
<!-- Node33&#45;&gt;Node8 -->
<g id="edge51_Node000033_Node000008" class="edge">
<title>Node33&#45;&gt;Node8</title>
<g id="a_edge51_Node000033_Node000008"><a xlink:title=" ">
<path fill="none" stroke="#63b8ff" d="M680.77,-230.94C663.62,-211.31 621.19,-162.76 598.73,-137.07"/>
<polygon fill="#63b8ff" stroke="#63b8ff" points="601.16,-134.53 591.95,-129.3 595.89,-139.13 601.16,-134.53"/>
</a>
</g>
</g>
</g>
</svg>
