<?xml version="1.0" encoding="UTF-8" standalone="no"?>
<!DOCTYPE svg PUBLIC "-//W3C//DTD SVG 1.1//EN"
 "http://www.w3.org/Graphics/SVG/1.1/DTD/svg11.dtd">
<!-- Generated by graphviz version 2.43.0 (0)
 -->
<!-- Title: src/Components/ModelComponent.hpp Pages: 1 -->
<svg width="1030pt" height="203pt"
 viewBox="0.00 0.00 1029.50 203.00" xmlns="http://www.w3.org/2000/svg" xmlns:xlink="http://www.w3.org/1999/xlink">
<g id="graph0" class="graph" transform="scale(1 1) rotate(0) translate(4 199)">
<title>src/Components/ModelComponent.hpp</title>
<!-- Node1 -->
<g id="Node000001" class="node">
<title>Node1</title>
<g id="a_Node000001"><a xlink:title=" ">
<polygon fill="#999999" stroke="#666666" points="630,-195 424,-195 424,-176 630,-176 630,-195"/>
<text text-anchor="middle" x="527" y="-183" font-family="Helvetica,sans-Serif" font-size="10.00">src/Components/ModelComponent.hpp</text>
</a>
</g>
</g>
<!-- Node2 -->
<g id="Node000002" class="node">
<title>Node2</title>
<g id="a_Node000002"><a xlink:href="_builders_8cpp.html" target="_top" xlink:title=" ">
<polygon fill="white" stroke="#666666" points="158,-134.5 0,-134.5 0,-115.5 158,-115.5 158,-134.5"/>
<text text-anchor="middle" x="79" y="-122.5" font-family="Helvetica,sans-Serif" font-size="10.00">src/Serialization/Builders.cpp</text>
</a>
</g>
</g>
<!-- Node1&#45;&gt;Node2 -->
<g id="edge1_Node000001_Node000002" class="edge">
<title>Node1&#45;&gt;Node2</title>
<g id="a_edge1_Node000001_Node000002"><a xlink:title=" ">
<path fill="none" stroke="#63b8ff" d="M442.27,-174.79C369.46,-166.25 261.7,-153.17 168,-140 156.07,-138.32 143.27,-136.39 131.2,-134.5"/>
<polygon fill="#63b8ff" stroke="#63b8ff" points="441.97,-178.28 452.3,-175.96 442.78,-171.32 441.97,-178.28"/>
</a>
</g>
</g>
<!-- Node3 -->
<g id="Node000003" class="node">
<title>Node3</title>
<g id="a_Node000003"><a xlink:href="_object_selection_system_8cpp.html" target="_top" xlink:title=" ">
<polygon fill="white" stroke="#666666" points="331.5,-140 176.5,-140 176.5,-110 331.5,-110 331.5,-140"/>
<text text-anchor="start" x="184.5" y="-128" font-family="Helvetica,sans-Serif" font-size="10.00">src/Systems/ObjectSelection</text>
<text text-anchor="middle" x="254" y="-117" font-family="Helvetica,sans-Serif" font-size="10.00">System.cpp</text>
</a>
</g>
</g>
<!-- Node1&#45;&gt;Node3 -->
<g id="edge2_Node000001_Node000003" class="edge">
<title>Node1&#45;&gt;Node3</title>
<g id="a_edge2_Node000001_Node000003"><a xlink:title=" ">
<path fill="none" stroke="#63b8ff" d="M477.35,-173.86C433.06,-164.37 367.89,-150.41 319.37,-140.01"/>
<polygon fill="#63b8ff" stroke="#63b8ff" points="476.79,-177.32 487.3,-175.99 478.26,-170.48 476.79,-177.32"/>
</a>
</g>
</g>
<!-- Node4 -->
<g id="Node000004" class="node">
<title>Node4</title>
<g id="a_Node000004"><a xlink:href="_rendering_system_8hpp.html" target="_top" xlink:title=" ">
<polygon fill="white" stroke="#666666" points="536,-134.5 350,-134.5 350,-115.5 536,-115.5 536,-134.5"/>
<text text-anchor="middle" x="443" y="-122.5" font-family="Helvetica,sans-Serif" font-size="10.00">src/Systems/RenderingSystem.hpp</text>
</a>
</g>
</g>
<!-- Node1&#45;&gt;Node4 -->
<g id="edge3_Node000001_Node000004" class="edge">
<title>Node1&#45;&gt;Node4</title>
<g id="a_edge3_Node000001_Node000004"><a xlink:title=" ">
<path fill="none" stroke="#63b8ff" d="M505.96,-169.85C490.05,-158.77 468.74,-143.93 455.45,-134.67"/>
<polygon fill="#63b8ff" stroke="#63b8ff" points="504.4,-173.03 514.61,-175.87 508.4,-167.28 504.4,-173.03"/>
</a>
</g>
</g>
<!-- Node8 -->
<g id="Node000008" class="node">
<title>Node8</title>
<g id="a_Node000008"><a xlink:href="main_8cpp.html" target="_top" xlink:title=" ">
<polygon fill="white" stroke="#666666" points="651.5,-134.5 572.5,-134.5 572.5,-115.5 651.5,-115.5 651.5,-134.5"/>
<text text-anchor="middle" x="612" y="-122.5" font-family="Helvetica,sans-Serif" font-size="10.00">src/main.cpp</text>
</a>
</g>
</g>
<!-- Node1&#45;&gt;Node8 -->
<g id="edge8_Node000001_Node000008" class="edge">
<title>Node1&#45;&gt;Node8</title>
<g id="a_edge8_Node000001_Node000008"><a xlink:title=" ">
<path fill="none" stroke="#63b8ff" d="M547.84,-170.16C563.99,-159.05 585.83,-144.01 599.41,-134.67"/>
<polygon fill="#63b8ff" stroke="#63b8ff" points="545.8,-167.32 539.54,-175.87 549.76,-173.08 545.8,-167.32"/>
</a>
</g>
</g>
<!-- Node9 -->
<g id="Node000009" class="node">
<title>Node9</title>
<g id="a_Node000009"><a xlink:href="_model_component_u_i_8hpp.html" target="_top" xlink:title=" ">
<polygon fill="white" stroke="#666666" points="866.5,-140 669.5,-140 669.5,-110 866.5,-110 866.5,-140"/>
<text text-anchor="start" x="677.5" y="-128" font-family="Helvetica,sans-Serif" font-size="10.00">src/ui/Components/ModelComponent</text>
<text text-anchor="middle" x="768" y="-117" font-family="Helvetica,sans-Serif" font-size="10.00">UI.hpp</text>
</a>
</g>
</g>
<!-- Node1&#45;&gt;Node9 -->
<g id="edge9_Node000001_Node000009" class="edge">
<title>Node1&#45;&gt;Node9</title>
<g id="a_edge9_Node000001_Node000009"><a xlink:title=" ">
<path fill="none" stroke="#63b8ff" d="M572.05,-173.56C611.05,-164.1 667.69,-150.35 710.06,-140.06"/>
<polygon fill="#63b8ff" stroke="#63b8ff" points="570.94,-170.23 562.04,-175.99 572.59,-177.04 570.94,-170.23"/>
</a>
</g>
</g>
<!-- Node10 -->
<g id="Node000010" class="node">
<title>Node10</title>
<g id="a_Node000010"><a xlink:href="_properties_widget_8cpp.html" target="_top" xlink:title=" ">
<polygon fill="white" stroke="#666666" points="1021.5,-140 884.5,-140 884.5,-110 1021.5,-110 1021.5,-140"/>
<text text-anchor="start" x="892.5" y="-128" font-family="Helvetica,sans-Serif" font-size="10.00">src/ui/widgets/Properties</text>
<text text-anchor="middle" x="953" y="-117" font-family="Helvetica,sans-Serif" font-size="10.00">Widget.cpp</text>
</a>
</g>
</g>
<!-- Node1&#45;&gt;Node10 -->
<g id="edge10_Node000001_Node000010" class="edge">
<title>Node1&#45;&gt;Node10</title>
<g id="a_edge10_Node000001_Node000010"><a xlink:title=" ">
<path fill="none" stroke="#63b8ff" d="M613.27,-174.79C684.01,-166.52 786.68,-153.8 876,-140 878.69,-139.58 881.42,-139.15 884.18,-138.7"/>
<polygon fill="#63b8ff" stroke="#63b8ff" points="612.6,-171.34 603.07,-175.98 613.41,-178.3 612.6,-171.34"/>
</a>
</g>
</g>
<!-- Node4&#45;&gt;Node4 -->
<g id="edge7_Node000004_Node000004" class="edge">
<title>Node4&#45;&gt;Node4</title>
<g id="a_edge7_Node000004_Node000004"><a xlink:title=" ">
<path fill="none" stroke="#63b8ff" d="M494.03,-135.52C524.87,-137.92 554,-134.41 554,-125 554,-114.57 518.22,-111.39 483.99,-115.47"/>
<polygon fill="#63b8ff" stroke="#63b8ff" points="494.28,-132.03 483.99,-134.53 493.6,-138.99 494.28,-132.03"/>
</a>
</g>
</g>
<!-- Node5 -->
<g id="Node000005" class="node">
<title>Node5</title>
<g id="a_Node000005"><a xlink:href="_runtime_8hpp.html" target="_top" xlink:title=" ">
<polygon fill="white" stroke="#666666" points="513,-74 373,-74 373,-55 513,-55 513,-74"/>
<text text-anchor="middle" x="443" y="-62" font-family="Helvetica,sans-Serif" font-size="10.00">src/Runtime/Runtime.hpp</text>
</a>
</g>
</g>
<!-- Node4&#45;&gt;Node5 -->
<g id="edge4_Node000004_Node000005" class="edge">
<title>Node4&#45;&gt;Node5</title>
<g id="a_edge4_Node000004_Node000005"><a xlink:title=" ">
<path fill="none" stroke="#63b8ff" d="M443,-105.16C443,-94.74 443,-82.3 443,-74.17"/>
<polygon fill="#63b8ff" stroke="#63b8ff" points="439.5,-105.37 443,-115.37 446.5,-105.37 439.5,-105.37"/>
</a>
</g>
</g>
<!-- Node6 -->
<g id="Node000006" class="node">
<title>Node6</title>
<g id="a_Node000006"><a xlink:href="_runtime_8cpp.html" target="_top" xlink:title=" ">
<polygon fill="white" stroke="#666666" points="426,-19 286,-19 286,0 426,0 426,-19"/>
<text text-anchor="middle" x="356" y="-7" font-family="Helvetica,sans-Serif" font-size="10.00">src/Runtime/Runtime.cpp</text>
</a>
</g>
</g>
<!-- Node5&#45;&gt;Node6 -->
<g id="edge5_Node000005_Node000006" class="edge">
<title>Node5&#45;&gt;Node6</title>
<g id="a_edge5_Node000005_Node000006"><a xlink:title=" ">
<path fill="none" stroke="#63b8ff" d="M420.34,-49.7C404.49,-40.04 383.81,-27.44 370.23,-19.17"/>
<polygon fill="#63b8ff" stroke="#63b8ff" points="418.66,-52.77 429.02,-54.98 422.3,-46.79 418.66,-52.77"/>
</a>
</g>
</g>
<!-- Node7 -->
<g id="Node000007" class="node">
<title>Node7</title>
<g id="a_Node000007"><a xlink:href="_scene_widget_8hpp.html" target="_top" xlink:title="Contains the declaration of the SceneWidget class, a user interface widget for rendering scenes.">
<polygon fill="white" stroke="#666666" points="616,-19 444,-19 444,0 616,0 616,-19"/>
<text text-anchor="middle" x="530" y="-7" font-family="Helvetica,sans-Serif" font-size="10.00">src/ui/widgets/SceneWidget.hpp</text>
</a>
</g>
</g>
<!-- Node5&#45;&gt;Node7 -->
<g id="edge6_Node000005_Node000007" class="edge">
<title>Node5&#45;&gt;Node7</title>
<g id="a_edge6_Node000005_Node000007"><a xlink:title=" ">
<path fill="none" stroke="#63b8ff" d="M465.66,-49.7C481.51,-40.04 502.19,-27.44 515.77,-19.17"/>
<polygon fill="#63b8ff" stroke="#63b8ff" points="463.7,-46.79 456.98,-54.98 467.34,-52.77 463.7,-46.79"/>
</a>
</g>
</g>
</g>
</svg>
