<?xml version="1.0" encoding="UTF-8" standalone="no"?>
<!DOCTYPE svg PUBLIC "-//W3C//DTD SVG 1.1//EN"
 "http://www.w3.org/Graphics/SVG/1.1/DTD/svg11.dtd">
<!-- Generated by graphviz version 2.43.0 (0)
 -->
<!-- Title: src/Components/NameComponent.hpp Pages: 1 -->
<svg width="448pt" height="247pt"
 viewBox="0.00 0.00 448.00 247.00" xmlns="http://www.w3.org/2000/svg" xmlns:xlink="http://www.w3.org/1999/xlink">
<g id="graph0" class="graph" transform="scale(1 1) rotate(0) translate(4 243)">
<title>src/Components/NameComponent.hpp</title>
<!-- Node1 -->
<g id="Node000001" class="node">
<title>Node1</title>
<g id="a_Node000001"><a xlink:title=" ">
<polygon fill="#999999" stroke="#666666" points="205,-239 0,-239 0,-220 205,-220 205,-239"/>
<text text-anchor="middle" x="102.5" y="-227" font-family="Helvetica,sans-Serif" font-size="10.00">src/Components/NameComponent.hpp</text>
</a>
</g>
</g>
<!-- Node2 -->
<g id="Node000002" class="node">
<title>Node2</title>
<g id="a_Node000002"><a xlink:title=" ">
<polygon fill="#e0e0e0" stroke="#999999" points="59.5,-184 15.5,-184 15.5,-165 59.5,-165 59.5,-184"/>
<text text-anchor="middle" x="37.5" y="-172" font-family="Helvetica,sans-Serif" font-size="10.00">string</text>
</a>
</g>
</g>
<!-- Node1&#45;&gt;Node2 -->
<g id="edge1_Node000001_Node000002" class="edge">
<title>Node1&#45;&gt;Node2</title>
<g id="a_edge1_Node000001_Node000002"><a xlink:title=" ">
<path fill="none" stroke="#63b8ff" d="M92.06,-219.98C82.35,-212.07 67.68,-200.11 56,-190.58"/>
<polygon fill="#63b8ff" stroke="#63b8ff" points="58.1,-187.78 48.13,-184.17 53.67,-193.2 58.1,-187.78"/>
</a>
</g>
</g>
<!-- Node3 -->
<g id="Node000003" class="node">
<title>Node3</title>
<g id="a_Node000003"><a xlink:href="_base_component_8hpp.html" target="_top" xlink:title=" ">
<polygon fill="white" stroke="#666666" points="259.5,-184 77.5,-184 77.5,-165 259.5,-165 259.5,-184"/>
<text text-anchor="middle" x="168.5" y="-172" font-family="Helvetica,sans-Serif" font-size="10.00">Components/BaseComponent.hpp</text>
</a>
</g>
</g>
<!-- Node1&#45;&gt;Node3 -->
<g id="edge2_Node000001_Node000003" class="edge">
<title>Node1&#45;&gt;Node3</title>
<g id="a_edge2_Node000001_Node000003"><a xlink:title=" ">
<path fill="none" stroke="#63b8ff" d="M113.1,-219.98C122.96,-212.07 137.85,-200.11 149.72,-190.58"/>
<polygon fill="#63b8ff" stroke="#63b8ff" points="152.1,-193.16 157.7,-184.17 147.71,-187.7 152.1,-193.16"/>
</a>
</g>
</g>
<!-- Node4 -->
<g id="Node000004" class="node">
<title>Node4</title>
<g id="a_Node000004"><a xlink:href="_type_info_8hpp.html" target="_top" xlink:title=" ">
<polygon fill="white" stroke="#666666" points="231.5,-74 105.5,-74 105.5,-55 231.5,-55 231.5,-74"/>
<text text-anchor="middle" x="168.5" y="-62" font-family="Helvetica,sans-Serif" font-size="10.00">Common/TypeInfo.hpp</text>
</a>
</g>
</g>
<!-- Node3&#45;&gt;Node4 -->
<g id="edge3_Node000003_Node000004" class="edge">
<title>Node3&#45;&gt;Node4</title>
<g id="a_edge3_Node000003_Node000004"><a xlink:title=" ">
<path fill="none" stroke="#63b8ff" d="M130.49,-164.85C111.38,-158.37 89.9,-147.36 78.5,-129 63.66,-105.11 95.58,-87.71 125.43,-77.23"/>
<polygon fill="#63b8ff" stroke="#63b8ff" points="126.59,-80.53 134.99,-74.07 124.39,-73.88 126.59,-80.53"/>
</a>
</g>
</g>
<!-- Node7 -->
<g id="Node000007" class="node">
<title>Node7</title>
<g id="a_Node000007"><a xlink:href="_types_8hpp.html" target="_top" xlink:title=" ">
<polygon fill="white" stroke="#666666" points="380,-129 267,-129 267,-110 380,-110 380,-129"/>
<text text-anchor="middle" x="323.5" y="-117" font-family="Helvetica,sans-Serif" font-size="10.00">Common/Types.hpp</text>
</a>
</g>
</g>
<!-- Node3&#45;&gt;Node7 -->
<g id="edge6_Node000003_Node000007" class="edge">
<title>Node3&#45;&gt;Node7</title>
<g id="a_edge6_Node000003_Node000007"><a xlink:title=" ">
<path fill="none" stroke="#63b8ff" d="M193.4,-164.98C219.2,-156.16 259.72,-142.31 288.68,-132.41"/>
<polygon fill="#63b8ff" stroke="#63b8ff" points="290.07,-135.63 298.4,-129.08 287.81,-129.01 290.07,-135.63"/>
</a>
</g>
</g>
<!-- Node10 -->
<g id="Node000010" class="node">
<title>Node10</title>
<g id="a_Node000010"><a xlink:href="_requirements_8hpp.html" target="_top" xlink:title=" ">
<polygon fill="white" stroke="#666666" points="249,-129 88,-129 88,-110 249,-110 249,-129"/>
<text text-anchor="middle" x="168.5" y="-117" font-family="Helvetica,sans-Serif" font-size="10.00">JobSystem/Requirements.hpp</text>
</a>
</g>
</g>
<!-- Node3&#45;&gt;Node10 -->
<g id="edge10_Node000003_Node000010" class="edge">
<title>Node3&#45;&gt;Node10</title>
<g id="a_edge10_Node000003_Node000010"><a xlink:title=" ">
<path fill="none" stroke="#63b8ff" d="M168.5,-164.75C168.5,-157.8 168.5,-147.85 168.5,-139.13"/>
<polygon fill="#63b8ff" stroke="#63b8ff" points="172,-139.09 168.5,-129.09 165,-139.09 172,-139.09"/>
</a>
</g>
</g>
<!-- Node5 -->
<g id="Node000005" class="node">
<title>Node5</title>
<g id="a_Node000005"><a xlink:title=" ">
<polygon fill="#e0e0e0" stroke="#999999" points="265.5,-19 233.5,-19 233.5,0 265.5,0 265.5,-19"/>
<text text-anchor="middle" x="249.5" y="-7" font-family="Helvetica,sans-Serif" font-size="10.00">set</text>
</a>
</g>
</g>
<!-- Node4&#45;&gt;Node5 -->
<g id="edge4_Node000004_Node000005" class="edge">
<title>Node4&#45;&gt;Node5</title>
<g id="a_edge4_Node000004_Node000005"><a xlink:title=" ">
<path fill="none" stroke="#63b8ff" d="M181.51,-54.98C193.96,-46.84 212.96,-34.41 227.71,-24.76"/>
<polygon fill="#63b8ff" stroke="#63b8ff" points="229.8,-27.57 236.25,-19.17 225.96,-21.72 229.8,-27.57"/>
</a>
</g>
</g>
<!-- Node6 -->
<g id="Node000006" class="node">
<title>Node6</title>
<g id="a_Node000006"><a xlink:title=" ">
<polygon fill="#e0e0e0" stroke="#999999" points="205,-19 132,-19 132,0 205,0 205,-19"/>
<text text-anchor="middle" x="168.5" y="-7" font-family="Helvetica,sans-Serif" font-size="10.00">string_view</text>
</a>
</g>
</g>
<!-- Node4&#45;&gt;Node6 -->
<g id="edge5_Node000004_Node000006" class="edge">
<title>Node4&#45;&gt;Node6</title>
<g id="a_edge5_Node000004_Node000006"><a xlink:title=" ">
<path fill="none" stroke="#63b8ff" d="M168.5,-54.75C168.5,-47.8 168.5,-37.85 168.5,-29.13"/>
<polygon fill="#63b8ff" stroke="#63b8ff" points="172,-29.09 168.5,-19.09 165,-29.09 172,-29.09"/>
</a>
</g>
</g>
<!-- Node7&#45;&gt;Node5 -->
<g id="edge8_Node000007_Node000005" class="edge">
<title>Node7&#45;&gt;Node5</title>
<g id="a_edge8_Node000007_Node000005"><a xlink:title=" ">
<path fill="none" stroke="#63b8ff" d="M313.05,-109.79C303.43,-101.37 289.22,-87.89 279.5,-74 269.57,-59.81 261.43,-41.82 256.14,-28.61"/>
<polygon fill="#63b8ff" stroke="#63b8ff" points="259.38,-27.3 252.54,-19.21 252.85,-29.8 259.38,-27.3"/>
</a>
</g>
</g>
<!-- Node8 -->
<g id="Node000008" class="node">
<title>Node8</title>
<g id="a_Node000008"><a xlink:title=" ">
<polygon fill="#e0e0e0" stroke="#999999" points="356.5,-74 288.5,-74 288.5,-55 356.5,-55 356.5,-74"/>
<text text-anchor="middle" x="322.5" y="-62" font-family="Helvetica,sans-Serif" font-size="10.00">filesystem</text>
</a>
</g>
</g>
<!-- Node7&#45;&gt;Node8 -->
<g id="edge7_Node000007_Node000008" class="edge">
<title>Node7&#45;&gt;Node8</title>
<g id="a_edge7_Node000007_Node000008"><a xlink:title=" ">
<path fill="none" stroke="#63b8ff" d="M323.33,-109.75C323.2,-102.8 323.02,-92.85 322.85,-84.13"/>
<polygon fill="#63b8ff" stroke="#63b8ff" points="326.35,-84.02 322.66,-74.09 319.35,-84.15 326.35,-84.02"/>
</a>
</g>
</g>
<!-- Node9 -->
<g id="Node000009" class="node">
<title>Node9</title>
<g id="a_Node000009"><a xlink:title=" ">
<polygon fill="#e0e0e0" stroke="#999999" points="440,-74 375,-74 375,-55 440,-55 440,-74"/>
<text text-anchor="middle" x="407.5" y="-62" font-family="Helvetica,sans-Serif" font-size="10.00">typeindex</text>
</a>
</g>
</g>
<!-- Node7&#45;&gt;Node9 -->
<g id="edge9_Node000007_Node000009" class="edge">
<title>Node7&#45;&gt;Node9</title>
<g id="a_edge9_Node000007_Node000009"><a xlink:title=" ">
<path fill="none" stroke="#63b8ff" d="M337,-109.98C349.9,-101.84 369.6,-89.41 384.9,-79.76"/>
<polygon fill="#63b8ff" stroke="#63b8ff" points="387.17,-82.47 393.76,-74.17 383.43,-76.55 387.17,-82.47"/>
</a>
</g>
</g>
<!-- Node10&#45;&gt;Node4 -->
<g id="edge11_Node000010_Node000004" class="edge">
<title>Node10&#45;&gt;Node4</title>
<g id="a_edge11_Node000010_Node000004"><a xlink:title=" ">
<path fill="none" stroke="#63b8ff" d="M168.5,-109.75C168.5,-102.8 168.5,-92.85 168.5,-84.13"/>
<polygon fill="#63b8ff" stroke="#63b8ff" points="172,-84.09 168.5,-74.09 165,-84.09 172,-84.09"/>
</a>
</g>
</g>
</g>
</svg>
