<?xml version="1.0" encoding="UTF-8" standalone="no"?>
<!DOCTYPE svg PUBLIC "-//W3C//DTD SVG 1.1//EN"
 "http://www.w3.org/Graphics/SVG/1.1/DTD/svg11.dtd">
<!-- Generated by graphviz version 2.43.0 (0)
 -->
<!-- Title: src/Components/NameComponent.hpp Pages: 1 -->
<svg width="2240pt" height="148pt"
 viewBox="0.00 0.00 2239.50 148.00" xmlns="http://www.w3.org/2000/svg" xmlns:xlink="http://www.w3.org/1999/xlink">
<g id="graph0" class="graph" transform="scale(1 1) rotate(0) translate(4 144)">
<title>src/Components/NameComponent.hpp</title>
<!-- Node1 -->
<g id="Node000001" class="node">
<title>Node1</title>
<g id="a_Node000001"><a xlink:title=" ">
<polygon fill="#999999" stroke="#666666" points="1193.5,-140 988.5,-140 988.5,-121 1193.5,-121 1193.5,-140"/>
<text text-anchor="middle" x="1091" y="-128" font-family="Helvetica,sans-Serif" font-size="10.00">src/Components/NameComponent.hpp</text>
</a>
</g>
</g>
<!-- Node2 -->
<g id="Node000002" class="node">
<title>Node2</title>
<g id="a_Node000002"><a xlink:href="_builders_8cpp.html" target="_top" xlink:title=" ">
<polygon fill="white" stroke="#666666" points="158,-79.5 0,-79.5 0,-60.5 158,-60.5 158,-79.5"/>
<text text-anchor="middle" x="79" y="-67.5" font-family="Helvetica,sans-Serif" font-size="10.00">src/Serialization/Builders.cpp</text>
</a>
</g>
</g>
<!-- Node1&#45;&gt;Node2 -->
<g id="edge1_Node000001_Node000002" class="edge">
<title>Node1&#45;&gt;Node2</title>
<g id="a_edge1_Node000001_Node000002"><a xlink:title=" ">
<path fill="none" stroke="#63b8ff" d="M978.18,-128.12C803.64,-125.07 457.82,-115.4 166,-85 152.91,-83.64 138.8,-81.61 125.83,-79.52"/>
<polygon fill="#63b8ff" stroke="#63b8ff" points="978.34,-131.62 988.4,-128.29 978.46,-124.62 978.34,-131.62"/>
</a>
</g>
</g>
<!-- Node3 -->
<g id="Node000003" class="node">
<title>Node3</title>
<g id="a_Node000003"><a xlink:href="_gizmo_system_8cpp.html" target="_top" xlink:title=" ">
<polygon fill="white" stroke="#666666" points="342.5,-79.5 175.5,-79.5 175.5,-60.5 342.5,-60.5 342.5,-79.5"/>
<text text-anchor="middle" x="259" y="-67.5" font-family="Helvetica,sans-Serif" font-size="10.00">src/Systems/GizmoSystem.cpp</text>
</a>
</g>
</g>
<!-- Node1&#45;&gt;Node3 -->
<g id="edge2_Node000001_Node000003" class="edge">
<title>Node1&#45;&gt;Node3</title>
<g id="a_edge2_Node000001_Node000003"><a xlink:title=" ">
<path fill="none" stroke="#63b8ff" d="M978.15,-125.91C832.81,-120.55 572.54,-108.47 351,-85 337.5,-83.57 322.96,-81.57 309.51,-79.53"/>
<polygon fill="#63b8ff" stroke="#63b8ff" points="978.29,-129.41 988.41,-126.28 978.54,-122.42 978.29,-129.41"/>
</a>
</g>
</g>
<!-- Node4 -->
<g id="Node000004" class="node">
<title>Node4</title>
<g id="a_Node000004"><a xlink:href="_object_selection_system_8cpp.html" target="_top" xlink:title=" ">
<polygon fill="white" stroke="#666666" points="515.5,-85 360.5,-85 360.5,-55 515.5,-55 515.5,-85"/>
<text text-anchor="start" x="368.5" y="-73" font-family="Helvetica,sans-Serif" font-size="10.00">src/Systems/ObjectSelection</text>
<text text-anchor="middle" x="438" y="-62" font-family="Helvetica,sans-Serif" font-size="10.00">System.cpp</text>
</a>
</g>
</g>
<!-- Node1&#45;&gt;Node4 -->
<g id="edge3_Node000001_Node000004" class="edge">
<title>Node1&#45;&gt;Node4</title>
<g id="a_edge3_Node000001_Node000004"><a xlink:title=" ">
<path fill="none" stroke="#63b8ff" d="M978.07,-123.32C863.64,-116.43 681.64,-103.73 525,-85 521.96,-84.64 518.87,-84.24 515.74,-83.83"/>
<polygon fill="#63b8ff" stroke="#63b8ff" points="978.06,-126.83 988.25,-123.93 978.47,-119.84 978.06,-126.83"/>
</a>
</g>
</g>
<!-- Node5 -->
<g id="Node000005" class="node">
<title>Node5</title>
<g id="a_Node000005"><a xlink:href="_rendering_system_8hpp.html" target="_top" xlink:title=" ">
<polygon fill="white" stroke="#666666" points="720,-79.5 534,-79.5 534,-60.5 720,-60.5 720,-79.5"/>
<text text-anchor="middle" x="627" y="-67.5" font-family="Helvetica,sans-Serif" font-size="10.00">src/Systems/RenderingSystem.hpp</text>
</a>
</g>
</g>
<!-- Node1&#45;&gt;Node5 -->
<g id="edge4_Node000001_Node000005" class="edge">
<title>Node1&#45;&gt;Node5</title>
<g id="a_edge4_Node000001_Node000005"><a xlink:title=" ">
<path fill="none" stroke="#63b8ff" d="M1013.47,-119.73C924.29,-108.48 779.3,-90.2 694.55,-79.52"/>
<polygon fill="#63b8ff" stroke="#63b8ff" points="1013.17,-123.22 1023.53,-120.99 1014.05,-116.27 1013.17,-123.22"/>
</a>
</g>
</g>
<!-- Node8 -->
<g id="Node000008" class="node">
<title>Node8</title>
<g id="a_Node000008"><a xlink:href="_asset_utils_8cpp.html" target="_top" xlink:title=" ">
<polygon fill="white" stroke="#666666" points="885.5,-79.5 756.5,-79.5 756.5,-60.5 885.5,-60.5 885.5,-79.5"/>
<text text-anchor="middle" x="821" y="-67.5" font-family="Helvetica,sans-Serif" font-size="10.00">src/Utils/AssetUtils.cpp</text>
</a>
</g>
</g>
<!-- Node1&#45;&gt;Node8 -->
<g id="edge8_Node000001_Node000008" class="edge">
<title>Node1&#45;&gt;Node8</title>
<g id="a_edge8_Node000001_Node000008"><a xlink:title=" ">
<path fill="none" stroke="#63b8ff" d="M1041.72,-118.82C989.57,-107.52 908.32,-89.92 860.31,-79.52"/>
<polygon fill="#63b8ff" stroke="#63b8ff" points="1041.23,-122.3 1051.74,-120.99 1042.71,-115.46 1041.23,-122.3"/>
</a>
</g>
</g>
<!-- Node9 -->
<g id="Node000009" class="node">
<title>Node9</title>
<g id="a_Node000009"><a xlink:href="main_8cpp.html" target="_top" xlink:title=" ">
<polygon fill="white" stroke="#666666" points="982.5,-79.5 903.5,-79.5 903.5,-60.5 982.5,-60.5 982.5,-79.5"/>
<text text-anchor="middle" x="943" y="-67.5" font-family="Helvetica,sans-Serif" font-size="10.00">src/main.cpp</text>
</a>
</g>
</g>
<!-- Node1&#45;&gt;Node9 -->
<g id="edge9_Node000001_Node000009" class="edge">
<title>Node1&#45;&gt;Node9</title>
<g id="a_edge9_Node000001_Node000009"><a xlink:title=" ">
<path fill="none" stroke="#63b8ff" d="M1059.96,-117.23C1031.36,-105.92 989.66,-89.44 964.55,-79.52"/>
<polygon fill="#63b8ff" stroke="#63b8ff" points="1058.89,-120.57 1069.48,-120.99 1061.47,-114.06 1058.89,-120.57"/>
</a>
</g>
</g>
<!-- Node10 -->
<g id="Node000010" class="node">
<title>Node10</title>
<g id="a_Node000010"><a xlink:href="_asset_selector_8hpp.html" target="_top" xlink:title=" ">
<polygon fill="white" stroke="#666666" points="1181,-79.5 1001,-79.5 1001,-60.5 1181,-60.5 1181,-79.5"/>
<text text-anchor="middle" x="1091" y="-67.5" font-family="Helvetica,sans-Serif" font-size="10.00">src/ui/Common/AssetSelector.hpp</text>
</a>
</g>
</g>
<!-- Node1&#45;&gt;Node10 -->
<g id="edge10_Node000001_Node000010" class="edge">
<title>Node1&#45;&gt;Node10</title>
<g id="a_edge10_Node000001_Node000010"><a xlink:title=" ">
<path fill="none" stroke="#63b8ff" d="M1091,-110.66C1091,-100.24 1091,-87.8 1091,-79.67"/>
<polygon fill="#63b8ff" stroke="#63b8ff" points="1087.5,-110.87 1091,-120.87 1094.5,-110.87 1087.5,-110.87"/>
</a>
</g>
</g>
<!-- Node11 -->
<g id="Node000011" class="node">
<title>Node11</title>
<g id="a_Node000011"><a xlink:href="_filesystem_widget_8hpp.html" target="_top" xlink:title="Contains the declaration of the FilesystemWidget class, a user interface widget for interacting with ...">
<polygon fill="white" stroke="#666666" points="1339,-85 1199,-85 1199,-55 1339,-55 1339,-85"/>
<text text-anchor="start" x="1207" y="-73" font-family="Helvetica,sans-Serif" font-size="10.00">src/ui/widgets/Filesystem</text>
<text text-anchor="middle" x="1269" y="-62" font-family="Helvetica,sans-Serif" font-size="10.00">Widget.hpp</text>
</a>
</g>
</g>
<!-- Node1&#45;&gt;Node11 -->
<g id="edge11_Node000001_Node000011" class="edge">
<title>Node1&#45;&gt;Node11</title>
<g id="a_edge11_Node000001_Node000011"><a xlink:title=" ">
<path fill="none" stroke="#63b8ff" d="M1126.51,-117.83C1155.21,-108.4 1195.71,-95.09 1226.21,-85.06"/>
<polygon fill="#63b8ff" stroke="#63b8ff" points="1125.29,-114.55 1116.88,-120.99 1127.48,-121.2 1125.29,-114.55"/>
</a>
</g>
</g>
<!-- Node12 -->
<g id="Node000012" class="node">
<title>Node12</title>
<g id="a_Node000012"><a xlink:href="_inspector_widget_8cpp.html" target="_top" xlink:title=" ">
<polygon fill="white" stroke="#666666" points="1489,-85 1357,-85 1357,-55 1489,-55 1489,-85"/>
<text text-anchor="start" x="1365" y="-73" font-family="Helvetica,sans-Serif" font-size="10.00">src/ui/widgets/Inspector</text>
<text text-anchor="middle" x="1423" y="-62" font-family="Helvetica,sans-Serif" font-size="10.00">Widget.cpp</text>
</a>
</g>
</g>
<!-- Node1&#45;&gt;Node12 -->
<g id="edge12_Node000001_Node000012" class="edge">
<title>Node1&#45;&gt;Node12</title>
<g id="a_edge12_Node000001_Node000012"><a xlink:title=" ">
<path fill="none" stroke="#63b8ff" d="M1151.34,-119.28C1203.45,-110.4 1280.73,-97.1 1348,-85 1350.87,-84.48 1353.8,-83.95 1356.76,-83.41"/>
<polygon fill="#63b8ff" stroke="#63b8ff" points="1150.54,-115.87 1141.26,-121 1151.71,-122.77 1150.54,-115.87"/>
</a>
</g>
</g>
<!-- Node13 -->
<g id="Node000013" class="node">
<title>Node13</title>
<g id="a_Node000013"><a xlink:href="_objects_widget_8cpp.html" target="_top" xlink:title=" ">
<polygon fill="white" stroke="#666666" points="1686.5,-79.5 1507.5,-79.5 1507.5,-60.5 1686.5,-60.5 1686.5,-79.5"/>
<text text-anchor="middle" x="1597" y="-67.5" font-family="Helvetica,sans-Serif" font-size="10.00">src/ui/widgets/ObjectsWidget.cpp</text>
</a>
</g>
</g>
<!-- Node1&#45;&gt;Node13 -->
<g id="edge13_Node000001_Node000013" class="edge">
<title>Node1&#45;&gt;Node13</title>
<g id="a_edge13_Node000001_Node000013"><a xlink:title=" ">
<path fill="none" stroke="#63b8ff" d="M1186.17,-119.95C1268.72,-111.47 1391.36,-98.37 1498,-85 1511.26,-83.34 1525.5,-81.41 1538.93,-79.52"/>
<polygon fill="#63b8ff" stroke="#63b8ff" points="1185.65,-116.49 1176.06,-120.99 1186.36,-123.45 1185.65,-116.49"/>
</a>
</g>
</g>
<!-- Node14 -->
<g id="Node000014" class="node">
<title>Node14</title>
<g id="a_Node000014"><a xlink:href="_properties_widget_8cpp.html" target="_top" xlink:title=" ">
<polygon fill="white" stroke="#666666" points="1841.5,-85 1704.5,-85 1704.5,-55 1841.5,-55 1841.5,-85"/>
<text text-anchor="start" x="1712.5" y="-73" font-family="Helvetica,sans-Serif" font-size="10.00">src/ui/widgets/Properties</text>
<text text-anchor="middle" x="1773" y="-62" font-family="Helvetica,sans-Serif" font-size="10.00">Widget.cpp</text>
</a>
</g>
</g>
<!-- Node1&#45;&gt;Node14 -->
<g id="edge14_Node000001_Node000014" class="edge">
<title>Node1&#45;&gt;Node14</title>
<g id="a_edge14_Node000001_Node000014"><a xlink:title=" ">
<path fill="none" stroke="#63b8ff" d="M1203.64,-124.8C1325.41,-118.89 1525.03,-106.77 1696,-85 1698.7,-84.66 1701.44,-84.28 1704.21,-83.88"/>
<polygon fill="#63b8ff" stroke="#63b8ff" points="1203.38,-121.31 1193.56,-125.29 1203.72,-128.3 1203.38,-121.31"/>
</a>
</g>
</g>
<!-- Node15 -->
<g id="Node000015" class="node">
<title>Node15</title>
<g id="a_Node000015"><a xlink:href="_runtime_widget_8cpp.html" target="_top" xlink:title=" ">
<polygon fill="white" stroke="#666666" points="2042.5,-79.5 1859.5,-79.5 1859.5,-60.5 2042.5,-60.5 2042.5,-79.5"/>
<text text-anchor="middle" x="1951" y="-67.5" font-family="Helvetica,sans-Serif" font-size="10.00">src/ui/widgets/RuntimeWidget.cpp</text>
</a>
</g>
</g>
<!-- Node1&#45;&gt;Node15 -->
<g id="edge15_Node000001_Node000015" class="edge">
<title>Node1&#45;&gt;Node15</title>
<g id="a_edge15_Node000001_Node000015"><a xlink:title=" ">
<path fill="none" stroke="#63b8ff" d="M1203.59,-125.75C1352.15,-120.14 1621.66,-107.73 1851,-85 1865.65,-83.55 1881.46,-81.54 1896.08,-79.5"/>
<polygon fill="#63b8ff" stroke="#63b8ff" points="1203.4,-122.25 1193.54,-126.12 1203.67,-129.24 1203.4,-122.25"/>
</a>
</g>
</g>
<!-- Node16 -->
<g id="Node000016" class="node">
<title>Node16</title>
<g id="a_Node000016"><a xlink:href="_scene_widget_8cpp.html" target="_top" xlink:title=" ">
<polygon fill="white" stroke="#666666" points="2231.5,-79.5 2060.5,-79.5 2060.5,-60.5 2231.5,-60.5 2231.5,-79.5"/>
<text text-anchor="middle" x="2146" y="-67.5" font-family="Helvetica,sans-Serif" font-size="10.00">src/ui/widgets/SceneWidget.cpp</text>
</a>
</g>
</g>
<!-- Node1&#45;&gt;Node16 -->
<g id="edge16_Node000001_Node000016" class="edge">
<title>Node1&#45;&gt;Node16</title>
<g id="a_edge16_Node000001_Node000016"><a xlink:title=" ">
<path fill="none" stroke="#63b8ff" d="M1203.91,-127.98C1383.77,-124.73 1746.25,-114.77 2052,-85 2066.12,-83.62 2081.37,-81.59 2095.38,-79.5"/>
<polygon fill="#63b8ff" stroke="#63b8ff" points="1203.58,-124.49 1193.65,-128.17 1203.71,-131.49 1203.58,-124.49"/>
</a>
</g>
</g>
<!-- Node5&#45;&gt;Node5 -->
<g id="edge5_Node000005_Node000005" class="edge">
<title>Node5&#45;&gt;Node5</title>
<g id="a_edge5_Node000005_Node000005"><a xlink:title=" ">
<path fill="none" stroke="#63b8ff" d="M678.03,-80.52C708.87,-82.92 738,-79.41 738,-70 738,-59.57 702.22,-56.39 667.99,-60.47"/>
<polygon fill="#63b8ff" stroke="#63b8ff" points="678.28,-77.03 667.99,-79.53 677.6,-83.99 678.28,-77.03"/>
</a>
</g>
</g>
<!-- Node6 -->
<g id="Node000006" class="node">
<title>Node6</title>
<g id="a_Node000006"><a xlink:href="_runtime_widget_8hpp.html" target="_top" xlink:title=" ">
<polygon fill="white" stroke="#666666" points="621,-19 437,-19 437,0 621,0 621,-19"/>
<text text-anchor="middle" x="529" y="-7" font-family="Helvetica,sans-Serif" font-size="10.00">src/ui/widgets/RuntimeWidget.hpp</text>
</a>
</g>
</g>
<!-- Node5&#45;&gt;Node6 -->
<g id="edge6_Node000005_Node000006" class="edge">
<title>Node5&#45;&gt;Node6</title>
<g id="a_edge6_Node000005_Node000006"><a xlink:title=" ">
<path fill="none" stroke="#63b8ff" d="M603.75,-55.12C585.06,-43.96 559.39,-28.64 543.52,-19.17"/>
<polygon fill="#63b8ff" stroke="#63b8ff" points="602.16,-58.25 612.54,-60.37 605.75,-52.24 602.16,-58.25"/>
</a>
</g>
</g>
<!-- Node7 -->
<g id="Node000007" class="node">
<title>Node7</title>
<g id="a_Node000007"><a xlink:href="_scene_widget_8hpp.html" target="_top" xlink:title="Contains the declaration of the SceneWidget class, a user interface widget for rendering scenes.">
<polygon fill="white" stroke="#666666" points="811,-19 639,-19 639,0 811,0 811,-19"/>
<text text-anchor="middle" x="725" y="-7" font-family="Helvetica,sans-Serif" font-size="10.00">src/ui/widgets/SceneWidget.hpp</text>
</a>
</g>
</g>
<!-- Node5&#45;&gt;Node7 -->
<g id="edge7_Node000005_Node000007" class="edge">
<title>Node5&#45;&gt;Node7</title>
<g id="a_edge7_Node000005_Node000007"><a xlink:title=" ">
<path fill="none" stroke="#63b8ff" d="M650.25,-55.12C668.94,-43.96 694.61,-28.64 710.48,-19.17"/>
<polygon fill="#63b8ff" stroke="#63b8ff" points="648.25,-52.24 641.46,-60.37 651.84,-58.25 648.25,-52.24"/>
</a>
</g>
</g>
</g>
</svg>
