<?xml version="1.0" encoding="UTF-8" standalone="no"?>
<!DOCTYPE svg PUBLIC "-//W3C//DTD SVG 1.1//EN"
 "http://www.w3.org/Graphics/SVG/1.1/DTD/svg11.dtd">
<!-- Generated by graphviz version 2.43.0 (0)
 -->
<!-- Title: src/Systems/ObjectSelectionSystem.cpp Pages: 1 -->
<svg width="1650pt" height="319pt"
 viewBox="0.00 0.00 1649.57 319.00" xmlns="http://www.w3.org/2000/svg" xmlns:xlink="http://www.w3.org/1999/xlink">
<g id="graph0" class="graph" transform="scale(1 1) rotate(0) translate(4 315)">
<title>src/Systems/ObjectSelectionSystem.cpp</title>
<polygon fill="white" stroke="transparent" points="-4,4 -4,-315 1645.57,-315 1645.57,4 -4,4"/>
<!-- Node1 -->
<g id="node1" class="node">
<title>Node1</title>
<g id="a_node1"><a xlink:title=" ">
<polygon fill="#bfbfbf" stroke="black" points="737.57,-280.5 737.57,-310.5 892.57,-310.5 892.57,-280.5 737.57,-280.5"/>
<text text-anchor="start" x="745.57" y="-298.5" font-family="Helvetica,sans-Serif" font-size="10.00">src/Systems/ObjectSelection</text>
<text text-anchor="middle" x="815.07" y="-287.5" font-family="Helvetica,sans-Serif" font-size="10.00">System.cpp</text>
</a>
</g>
</g>
<!-- Node2 -->
<g id="node2" class="node">
<title>Node2</title>
<g id="a_node2"><a xlink:href="_object_selection_system_8hpp.html" target="_top" xlink:title=" ">
<polygon fill="white" stroke="black" points="79.07,-224.5 79.07,-243.5 275.07,-243.5 275.07,-224.5 79.07,-224.5"/>
<text text-anchor="middle" x="177.07" y="-231.5" font-family="Helvetica,sans-Serif" font-size="10.00">Systems/ObjectSelectionSystem.hpp</text>
</a>
</g>
</g>
<!-- Node1&#45;&gt;Node2 -->
<g id="edge1" class="edge">
<title>Node1&#45;&gt;Node2</title>
<path fill="none" stroke="midnightblue" d="M737.48,-287.26C622.29,-276.52 405.97,-256.35 278.41,-244.45"/>
<polygon fill="midnightblue" stroke="midnightblue" points="278.53,-240.95 268.25,-243.5 277.88,-247.92 278.53,-240.95"/>
</g>
<!-- Node10 -->
<g id="node10" class="node">
<title>Node10</title>
<g id="a_node10"><a xlink:href="_box_collider_component_8hpp.html" target="_top" xlink:title=" ">
<polygon fill="white" stroke="black" points="707.57,-224.5 707.57,-243.5 922.57,-243.5 922.57,-224.5 707.57,-224.5"/>
<text text-anchor="middle" x="815.07" y="-231.5" font-family="Helvetica,sans-Serif" font-size="10.00">Components/BoxColliderComponent.hpp</text>
</a>
</g>
</g>
<!-- Node1&#45;&gt;Node10 -->
<g id="edge10" class="edge">
<title>Node1&#45;&gt;Node10</title>
<path fill="none" stroke="midnightblue" d="M815.07,-280.4C815.07,-272.47 815.07,-262.46 815.07,-253.86"/>
<polygon fill="midnightblue" stroke="midnightblue" points="818.57,-253.66 815.07,-243.66 811.57,-253.66 818.57,-253.66"/>
</g>
<!-- Node17 -->
<g id="node17" class="node">
<title>Node17</title>
<g id="a_node17"><a xlink:href="_transform_component_8hpp.html" target="_top" xlink:title=" ">
<polygon fill="white" stroke="black" points="554.57,-168.5 554.57,-187.5 761.57,-187.5 761.57,-168.5 554.57,-168.5"/>
<text text-anchor="middle" x="658.07" y="-175.5" font-family="Helvetica,sans-Serif" font-size="10.00">Components/TransformComponent.hpp</text>
</a>
</g>
</g>
<!-- Node1&#45;&gt;Node17 -->
<g id="edge24" class="edge">
<title>Node1&#45;&gt;Node17</title>
<path fill="none" stroke="midnightblue" d="M764.91,-280.46C742.65,-272.43 717.22,-260.58 698.07,-244 683.23,-231.16 672.18,-211.43 665.49,-197.08"/>
<polygon fill="midnightblue" stroke="midnightblue" points="668.62,-195.5 661.41,-187.75 662.21,-198.31 668.62,-195.5"/>
</g>
<!-- Node20 -->
<g id="node20" class="node">
<title>Node20</title>
<g id="a_node20"><a xlink:href="_model_component_8hpp.html" target="_top" xlink:title=" ">
<polygon fill="white" stroke="black" points="945.07,-224.5 945.07,-243.5 1133.07,-243.5 1133.07,-224.5 945.07,-224.5"/>
<text text-anchor="middle" x="1039.07" y="-231.5" font-family="Helvetica,sans-Serif" font-size="10.00">Components/ModelComponent.hpp</text>
</a>
</g>
</g>
<!-- Node1&#45;&gt;Node20 -->
<g id="edge25" class="edge">
<title>Node1&#45;&gt;Node20</title>
<path fill="none" stroke="midnightblue" d="M867.87,-280.47C907.36,-269.99 960.62,-255.84 997.2,-246.12"/>
<polygon fill="midnightblue" stroke="midnightblue" points="998.28,-249.46 1007.04,-243.51 996.48,-242.69 998.28,-249.46"/>
</g>
<!-- Node21 -->
<g id="node21" class="node">
<title>Node21</title>
<g id="a_node21"><a xlink:title=" ">
<polygon fill="white" stroke="#bfbfbf" points="1297.07,-168.5 1297.07,-187.5 1357.07,-187.5 1357.07,-168.5 1297.07,-168.5"/>
<text text-anchor="middle" x="1327.07" y="-175.5" font-family="Helvetica,sans-Serif" font-size="10.00">iostream</text>
</a>
</g>
</g>
<!-- Node1&#45;&gt;Node21 -->
<g id="edge49" class="edge">
<title>Node1&#45;&gt;Node21</title>
<path fill="none" stroke="midnightblue" d="M892.84,-286.59C959.61,-278.82 1058.07,-265.05 1142.07,-244 1198.06,-229.97 1261.04,-206.01 1297.19,-191.43"/>
<polygon fill="midnightblue" stroke="midnightblue" points="1298.7,-194.59 1306.64,-187.58 1296.06,-188.11 1298.7,-194.59"/>
</g>
<!-- Node28 -->
<g id="node28" class="node">
<title>Node28</title>
<g id="a_node28"><a xlink:href="_camera_component_8hpp.html" target="_top" xlink:title=" ">
<polygon fill="white" stroke="black" points="301.57,-224.5 301.57,-243.5 498.57,-243.5 498.57,-224.5 301.57,-224.5"/>
<text text-anchor="middle" x="400.07" y="-231.5" font-family="Helvetica,sans-Serif" font-size="10.00">Components/CameraComponent.hpp</text>
</a>
</g>
</g>
<!-- Node1&#45;&gt;Node28 -->
<g id="edge40" class="edge">
<title>Node1&#45;&gt;Node28</title>
<path fill="none" stroke="midnightblue" d="M737.5,-283.38C660.53,-272.34 543.66,-255.59 469.62,-244.97"/>
<polygon fill="midnightblue" stroke="midnightblue" points="469.86,-241.47 459.47,-243.52 468.87,-248.4 469.86,-241.47"/>
</g>
<!-- Node29 -->
<g id="node29" class="node">
<title>Node29</title>
<g id="a_node29"><a xlink:href="_input_manager_8hpp.html" target="_top" xlink:title=" ">
<polygon fill="white" stroke="black" points="1394.57,-224.5 1394.57,-243.5 1569.57,-243.5 1569.57,-224.5 1394.57,-224.5"/>
<text text-anchor="middle" x="1482.07" y="-231.5" font-family="Helvetica,sans-Serif" font-size="10.00">InputManager/InputManager.hpp</text>
</a>
</g>
</g>
<!-- Node1&#45;&gt;Node29 -->
<g id="edge45" class="edge">
<title>Node1&#45;&gt;Node29</title>
<path fill="none" stroke="midnightblue" d="M892.89,-287.56C1014.88,-276.68 1250.95,-255.62 1384.26,-243.73"/>
<polygon fill="midnightblue" stroke="midnightblue" points="1384.82,-247.19 1394.46,-242.81 1384.19,-240.22 1384.82,-247.19"/>
</g>
<!-- Node3 -->
<g id="node3" class="node">
<title>Node3</title>
<g id="a_node3"><a xlink:title=" ">
<polygon fill="white" stroke="#bfbfbf" points="148.07,-168.5 148.07,-187.5 206.07,-187.5 206.07,-168.5 148.07,-168.5"/>
<text text-anchor="middle" x="177.07" y="-175.5" font-family="Helvetica,sans-Serif" font-size="10.00">memory</text>
</a>
</g>
</g>
<!-- Node2&#45;&gt;Node3 -->
<g id="edge2" class="edge">
<title>Node2&#45;&gt;Node3</title>
<path fill="none" stroke="midnightblue" d="M177.07,-224.08C177.07,-217.01 177.07,-206.86 177.07,-197.99"/>
<polygon fill="midnightblue" stroke="midnightblue" points="180.57,-197.75 177.07,-187.75 173.57,-197.75 180.57,-197.75"/>
</g>
<!-- Node4 -->
<g id="node4" class="node">
<title>Node4</title>
<g id="a_node4"><a xlink:href="_registry_8hpp.html" target="_top" xlink:title=" ">
<polygon fill="white" stroke="black" points="15.07,-168.5 15.07,-187.5 113.07,-187.5 113.07,-168.5 15.07,-168.5"/>
<text text-anchor="middle" x="64.07" y="-175.5" font-family="Helvetica,sans-Serif" font-size="10.00">ECS/Registry.hpp</text>
</a>
</g>
</g>
<!-- Node2&#45;&gt;Node4 -->
<g id="edge3" class="edge">
<title>Node2&#45;&gt;Node4</title>
<path fill="none" stroke="midnightblue" d="M159.16,-224.44C140.81,-215.68 112.06,-201.94 90.97,-191.86"/>
<polygon fill="midnightblue" stroke="midnightblue" points="92.42,-188.67 81.89,-187.52 89.4,-194.99 92.42,-188.67"/>
</g>
<!-- Node5 -->
<g id="node5" class="node">
<title>Node5</title>
<g id="a_node5"><a xlink:title=" ">
<polygon fill="white" stroke="#bfbfbf" points="12.07,-112.5 12.07,-131.5 98.07,-131.5 98.07,-112.5 12.07,-112.5"/>
<text text-anchor="middle" x="55.07" y="-119.5" font-family="Helvetica,sans-Serif" font-size="10.00">unordered_set</text>
</a>
</g>
</g>
<!-- Node4&#45;&gt;Node5 -->
<g id="edge4" class="edge">
<title>Node4&#45;&gt;Node5</title>
<path fill="none" stroke="midnightblue" d="M62.58,-168.08C61.39,-160.93 59.67,-150.64 58.18,-141.69"/>
<polygon fill="midnightblue" stroke="midnightblue" points="61.62,-141.04 56.53,-131.75 54.72,-142.19 61.62,-141.04"/>
</g>
<!-- Node6 -->
<g id="node6" class="node">
<title>Node6</title>
<g id="a_node6"><a xlink:href="_entity_provider_8hpp.html" target="_top" xlink:title="Manages a pool of unused entity identifiers and provides mechanisms for requesting and removing them.">
<polygon fill="white" stroke="black" points="8.07,-56.5 8.07,-75.5 136.07,-75.5 136.07,-56.5 8.07,-56.5"/>
<text text-anchor="middle" x="72.07" y="-63.5" font-family="Helvetica,sans-Serif" font-size="10.00">ECS/EntityProvider.hpp</text>
</a>
</g>
</g>
<!-- Node4&#45;&gt;Node6 -->
<g id="edge5" class="edge">
<title>Node4&#45;&gt;Node6</title>
<path fill="none" stroke="midnightblue" d="M44.97,-168.36C22.66,-156.95 -9.68,-135.54 3.07,-112 10.82,-97.7 25.3,-87.22 39.01,-79.99"/>
<polygon fill="midnightblue" stroke="midnightblue" points="40.81,-83.01 48.28,-75.5 37.75,-76.71 40.81,-83.01"/>
</g>
<!-- Node9 -->
<g id="node9" class="node">
<title>Node9</title>
<g id="a_node9"><a xlink:href="_sparse_set_8hpp.html" target="_top" xlink:title=" ">
<polygon fill="white" stroke="black" points="116.07,-112.5 116.07,-131.5 224.07,-131.5 224.07,-112.5 116.07,-112.5"/>
<text text-anchor="middle" x="170.07" y="-119.5" font-family="Helvetica,sans-Serif" font-size="10.00">ECS/SparseSet.hpp</text>
</a>
</g>
</g>
<!-- Node4&#45;&gt;Node9 -->
<g id="edge8" class="edge">
<title>Node4&#45;&gt;Node9</title>
<path fill="none" stroke="midnightblue" d="M81.1,-168.32C98.1,-159.66 124.44,-146.24 144.06,-136.25"/>
<polygon fill="midnightblue" stroke="midnightblue" points="145.76,-139.31 153.08,-131.65 142.58,-133.08 145.76,-139.31"/>
</g>
<!-- Node7 -->
<g id="node7" class="node">
<title>Node7</title>
<g id="a_node7"><a xlink:title=" ">
<polygon fill="white" stroke="#bfbfbf" points="79.57,-0.5 79.57,-19.5 132.57,-19.5 132.57,-0.5 79.57,-0.5"/>
<text text-anchor="middle" x="106.07" y="-7.5" font-family="Helvetica,sans-Serif" font-size="10.00">stdlib.h</text>
</a>
</g>
</g>
<!-- Node6&#45;&gt;Node7 -->
<g id="edge6" class="edge">
<title>Node6&#45;&gt;Node7</title>
<path fill="none" stroke="midnightblue" d="M77.68,-56.08C82.44,-48.53 89.39,-37.49 95.22,-28.23"/>
<polygon fill="midnightblue" stroke="midnightblue" points="98.19,-30.08 100.56,-19.75 92.27,-26.35 98.19,-30.08"/>
</g>
<!-- Node8 -->
<g id="node8" class="node">
<title>Node8</title>
<g id="a_node8"><a xlink:title=" ">
<polygon fill="white" stroke="#bfbfbf" points="14.57,-0.5 14.57,-19.5 61.57,-19.5 61.57,-0.5 14.57,-0.5"/>
<text text-anchor="middle" x="38.07" y="-7.5" font-family="Helvetica,sans-Serif" font-size="10.00">queue</text>
</a>
</g>
</g>
<!-- Node6&#45;&gt;Node8 -->
<g id="edge7" class="edge">
<title>Node6&#45;&gt;Node8</title>
<path fill="none" stroke="midnightblue" d="M66.45,-56.08C61.7,-48.53 54.75,-37.49 48.92,-28.23"/>
<polygon fill="midnightblue" stroke="midnightblue" points="51.87,-26.35 43.58,-19.75 45.94,-30.08 51.87,-26.35"/>
</g>
<!-- Node9&#45;&gt;Node6 -->
<g id="edge9" class="edge">
<title>Node9&#45;&gt;Node6</title>
<path fill="none" stroke="midnightblue" d="M154.32,-112.32C138.75,-103.74 114.69,-90.49 96.61,-80.52"/>
<polygon fill="midnightblue" stroke="midnightblue" points="98.22,-77.42 87.77,-75.65 94.84,-83.55 98.22,-77.42"/>
</g>
<!-- Node11 -->
<g id="node11" class="node">
<title>Node11</title>
<g id="a_node11"><a xlink:title=" ">
<polygon fill="white" stroke="#bfbfbf" points="886.07,-112.5 886.07,-131.5 930.07,-131.5 930.07,-112.5 886.07,-112.5"/>
<text text-anchor="middle" x="908.07" y="-119.5" font-family="Helvetica,sans-Serif" font-size="10.00">string</text>
</a>
</g>
</g>
<!-- Node10&#45;&gt;Node11 -->
<g id="edge11" class="edge">
<title>Node10&#45;&gt;Node11</title>
<path fill="none" stroke="midnightblue" d="M822.37,-224.37C837.85,-206.05 874.21,-163.05 894.23,-139.36"/>
<polygon fill="midnightblue" stroke="midnightblue" points="897.02,-141.49 900.8,-131.59 891.68,-136.97 897.02,-141.49"/>
</g>
<!-- Node12 -->
<g id="node12" class="node">
<title>Node12</title>
<g id="a_node12"><a xlink:href="_box_8hpp.html" target="_top" xlink:title=" ">
<polygon fill="white" stroke="black" points="948.07,-112.5 948.07,-131.5 1032.07,-131.5 1032.07,-112.5 948.07,-112.5"/>
<text text-anchor="middle" x="990.07" y="-119.5" font-family="Helvetica,sans-Serif" font-size="10.00">Math/Box.hpp</text>
</a>
</g>
</g>
<!-- Node10&#45;&gt;Node12 -->
<g id="edge12" class="edge">
<title>Node10&#45;&gt;Node12</title>
<path fill="none" stroke="midnightblue" d="M828.8,-224.37C858.96,-205.41 931.2,-160 967.89,-136.94"/>
<polygon fill="midnightblue" stroke="midnightblue" points="969.8,-139.88 976.4,-131.59 966.07,-133.95 969.8,-139.88"/>
</g>
<!-- Node15 -->
<g id="node15" class="node">
<title>Node15</title>
<g id="a_node15"><a xlink:href="_base_component_8hpp.html" target="_top" xlink:title=" ">
<polygon fill="white" stroke="black" points="686.07,-112.5 686.07,-131.5 868.07,-131.5 868.07,-112.5 686.07,-112.5"/>
<text text-anchor="middle" x="777.07" y="-119.5" font-family="Helvetica,sans-Serif" font-size="10.00">Components/BaseComponent.hpp</text>
</a>
</g>
</g>
<!-- Node10&#45;&gt;Node15 -->
<g id="edge16" class="edge">
<title>Node10&#45;&gt;Node15</title>
<path fill="none" stroke="midnightblue" d="M812.09,-224.37C805.93,-206.54 791.68,-165.3 783.38,-141.27"/>
<polygon fill="midnightblue" stroke="midnightblue" points="786.61,-139.9 780.04,-131.59 779.99,-142.19 786.61,-139.9"/>
</g>
<!-- Node10&#45;&gt;Node17 -->
<g id="edge18" class="edge">
<title>Node10&#45;&gt;Node17</title>
<path fill="none" stroke="midnightblue" d="M790.19,-224.44C763.78,-215.36 721.85,-200.94 692.33,-190.78"/>
<polygon fill="midnightblue" stroke="midnightblue" points="693.42,-187.46 682.83,-187.52 691.15,-194.08 693.42,-187.46"/>
</g>
<!-- Node13 -->
<g id="node13" class="node">
<title>Node13</title>
<g id="a_node13"><a xlink:title=" ">
<polygon fill="white" stroke="#bfbfbf" points="967.07,-0.5 967.07,-19.5 1045.07,-19.5 1045.07,-0.5 967.07,-0.5"/>
<text text-anchor="middle" x="1006.07" y="-7.5" font-family="Helvetica,sans-Serif" font-size="10.00">glm/glm.hpp</text>
</a>
</g>
</g>
<!-- Node12&#45;&gt;Node13 -->
<g id="edge13" class="edge">
<title>Node12&#45;&gt;Node13</title>
<path fill="none" stroke="midnightblue" d="M991.32,-112.37C993.91,-94.62 999.86,-53.67 1003.36,-29.6"/>
<polygon fill="midnightblue" stroke="midnightblue" points="1006.84,-29.99 1004.82,-19.59 999.92,-28.98 1006.84,-29.99"/>
</g>
<!-- Node14 -->
<g id="node14" class="node">
<title>Node14</title>
<g id="a_node14"><a xlink:href="_ray_8hpp.html" target="_top" xlink:title=" ">
<polygon fill="white" stroke="black" points="894.57,-56.5 894.57,-75.5 977.57,-75.5 977.57,-56.5 894.57,-56.5"/>
<text text-anchor="middle" x="936.07" y="-63.5" font-family="Helvetica,sans-Serif" font-size="10.00">Math/Ray.hpp</text>
</a>
</g>
</g>
<!-- Node12&#45;&gt;Node14 -->
<g id="edge14" class="edge">
<title>Node12&#45;&gt;Node14</title>
<path fill="none" stroke="midnightblue" d="M981.15,-112.08C973.29,-104.22 961.64,-92.57 952.15,-83.08"/>
<polygon fill="midnightblue" stroke="midnightblue" points="954.37,-80.35 944.82,-75.75 949.42,-85.3 954.37,-80.35"/>
</g>
<!-- Node14&#45;&gt;Node13 -->
<g id="edge15" class="edge">
<title>Node14&#45;&gt;Node13</title>
<path fill="none" stroke="midnightblue" d="M947.32,-56.32C957.87,-48.18 973.87,-35.84 986.51,-26.09"/>
<polygon fill="midnightblue" stroke="midnightblue" points="988.84,-28.71 994.62,-19.83 984.56,-23.17 988.84,-28.71"/>
</g>
<!-- Node16 -->
<g id="node16" class="node">
<title>Node16</title>
<g id="a_node16"><a xlink:href="_types_8hpp.html" target="_top" xlink:title=" ">
<polygon fill="white" stroke="black" points="720.57,-56.5 720.57,-75.5 833.57,-75.5 833.57,-56.5 720.57,-56.5"/>
<text text-anchor="middle" x="777.07" y="-63.5" font-family="Helvetica,sans-Serif" font-size="10.00">Common/Types.hpp</text>
</a>
</g>
</g>
<!-- Node15&#45;&gt;Node16 -->
<g id="edge17" class="edge">
<title>Node15&#45;&gt;Node16</title>
<path fill="none" stroke="midnightblue" d="M777.07,-112.08C777.07,-105.01 777.07,-94.86 777.07,-85.99"/>
<polygon fill="midnightblue" stroke="midnightblue" points="780.57,-85.75 777.07,-75.75 773.57,-85.75 780.57,-85.75"/>
</g>
<!-- Node17&#45;&gt;Node11 -->
<g id="edge19" class="edge">
<title>Node17&#45;&gt;Node11</title>
<path fill="none" stroke="midnightblue" d="M705.31,-168.42C747.65,-160.48 811.66,-147.86 875.89,-132.15"/>
<polygon fill="midnightblue" stroke="midnightblue" points="876.91,-135.5 885.78,-129.7 875.23,-128.7 876.91,-135.5"/>
</g>
<!-- Node17&#45;&gt;Node13 -->
<g id="edge20" class="edge">
<title>Node17&#45;&gt;Node13</title>
<path fill="none" stroke="midnightblue" d="M658.81,-168.29C661.3,-145.2 671.58,-82.34 711.07,-56 750.35,-29.8 883.26,-18.09 956.55,-13.53"/>
<polygon fill="midnightblue" stroke="midnightblue" points="957.14,-17 966.91,-12.9 956.72,-10.01 957.14,-17"/>
</g>
<!-- Node17&#45;&gt;Node15 -->
<g id="edge23" class="edge">
<title>Node17&#45;&gt;Node15</title>
<path fill="none" stroke="midnightblue" d="M676.92,-168.44C696.33,-159.64 726.8,-145.81 749.03,-135.72"/>
<polygon fill="midnightblue" stroke="midnightblue" points="750.64,-138.84 758.3,-131.52 747.75,-132.46 750.64,-138.84"/>
</g>
<!-- Node18 -->
<g id="node18" class="node">
<title>Node18</title>
<g id="a_node18"><a xlink:title=" ">
<polygon fill="white" stroke="#bfbfbf" points="500.07,-112.5 500.07,-131.5 630.07,-131.5 630.07,-112.5 500.07,-112.5"/>
<text text-anchor="middle" x="565.07" y="-119.5" font-family="Helvetica,sans-Serif" font-size="10.00">glm/gtc/quaternion.hpp</text>
</a>
</g>
</g>
<!-- Node17&#45;&gt;Node18 -->
<g id="edge21" class="edge">
<title>Node17&#45;&gt;Node18</title>
<path fill="none" stroke="midnightblue" d="M643.13,-168.32C628.48,-159.82 605.93,-146.73 588.83,-136.8"/>
<polygon fill="midnightblue" stroke="midnightblue" points="590.38,-133.65 579.97,-131.65 586.86,-139.7 590.38,-133.65"/>
</g>
<!-- Node19 -->
<g id="node19" class="node">
<title>Node19</title>
<g id="a_node19"><a xlink:title=" ">
<polygon fill="white" stroke="#bfbfbf" points="318.57,-112.5 318.57,-131.5 481.57,-131.5 481.57,-112.5 318.57,-112.5"/>
<text text-anchor="middle" x="400.07" y="-119.5" font-family="Helvetica,sans-Serif" font-size="10.00">glm/gtc/matrix_transform.hpp</text>
</a>
</g>
</g>
<!-- Node17&#45;&gt;Node19 -->
<g id="edge22" class="edge">
<title>Node17&#45;&gt;Node19</title>
<path fill="none" stroke="midnightblue" d="M617.19,-168.44C572.09,-159 499.46,-143.8 450.77,-133.61"/>
<polygon fill="midnightblue" stroke="midnightblue" points="451.26,-130.14 440.76,-131.52 449.83,-136.99 451.26,-130.14"/>
</g>
<!-- Node20&#45;&gt;Node11 -->
<g id="edge26" class="edge">
<title>Node20&#45;&gt;Node11</title>
<path fill="none" stroke="midnightblue" d="M1020.76,-224.36C1004.64,-216.26 980.99,-203.14 963.07,-188 946.21,-173.76 930.31,-154.02 919.98,-140.04"/>
<polygon fill="midnightblue" stroke="midnightblue" points="922.73,-137.87 914.05,-131.8 917.05,-141.96 922.73,-137.87"/>
</g>
<!-- Node20&#45;&gt;Node15 -->
<g id="edge39" class="edge">
<title>Node20&#45;&gt;Node15</title>
<path fill="none" stroke="midnightblue" d="M1018.51,-224.37C972.4,-205.01 860.59,-158.06 806.86,-135.51"/>
<polygon fill="midnightblue" stroke="midnightblue" points="808.11,-132.24 797.53,-131.59 805.4,-138.69 808.11,-132.24"/>
</g>
<!-- Node20&#45;&gt;Node21 -->
<g id="edge27" class="edge">
<title>Node20&#45;&gt;Node21</title>
<path fill="none" stroke="midnightblue" d="M1090.23,-224.49C1138.5,-216.3 1213.11,-203.21 1286.93,-188.16"/>
<polygon fill="midnightblue" stroke="midnightblue" points="1287.77,-191.56 1296.87,-186.12 1286.37,-184.7 1287.77,-191.56"/>
</g>
<!-- Node22 -->
<g id="node22" class="node">
<title>Node22</title>
<g id="a_node22"><a xlink:href="_mesh_8hpp.html" target="_top" xlink:title=" ">
<polygon fill="white" stroke="black" points="1141.57,-168.5 1141.57,-187.5 1278.57,-187.5 1278.57,-168.5 1141.57,-168.5"/>
<text text-anchor="middle" x="1210.07" y="-175.5" font-family="Helvetica,sans-Serif" font-size="10.00">AssetManager/Mesh.hpp</text>
</a>
</g>
</g>
<!-- Node20&#45;&gt;Node22 -->
<g id="edge28" class="edge">
<title>Node20&#45;&gt;Node22</title>
<path fill="none" stroke="midnightblue" d="M1066.16,-224.44C1095.06,-215.32 1140.99,-200.81 1173.17,-190.65"/>
<polygon fill="midnightblue" stroke="midnightblue" points="1174.62,-193.87 1183.1,-187.52 1172.51,-187.19 1174.62,-193.87"/>
</g>
<!-- Node27 -->
<g id="node27" class="node">
<title>Node27</title>
<g id="a_node27"><a xlink:href="_material_8hpp.html" target="_top" xlink:title=" ">
<polygon fill="white" stroke="black" points="972.57,-168.5 972.57,-187.5 1123.57,-187.5 1123.57,-168.5 972.57,-168.5"/>
<text text-anchor="middle" x="1048.07" y="-175.5" font-family="Helvetica,sans-Serif" font-size="10.00">AssetManager/Material.hpp</text>
</a>
</g>
</g>
<!-- Node20&#45;&gt;Node27 -->
<g id="edge36" class="edge">
<title>Node20&#45;&gt;Node27</title>
<path fill="none" stroke="midnightblue" d="M1040.55,-224.08C1041.75,-216.93 1043.46,-206.64 1044.95,-197.69"/>
<polygon fill="midnightblue" stroke="midnightblue" points="1048.42,-198.19 1046.61,-187.75 1041.51,-197.04 1048.42,-198.19"/>
</g>
<!-- Node22&#45;&gt;Node11 -->
<g id="edge32" class="edge">
<title>Node22&#45;&gt;Node11</title>
<path fill="none" stroke="midnightblue" d="M1145.59,-168.48C1092.79,-161 1016,-149 940.5,-132.11"/>
<polygon fill="midnightblue" stroke="midnightblue" points="940.86,-128.6 930.34,-129.81 939.32,-135.43 940.86,-128.6"/>
</g>
<!-- Node22&#45;&gt;Node12 -->
<g id="edge35" class="edge">
<title>Node22&#45;&gt;Node12</title>
<path fill="none" stroke="midnightblue" d="M1175.21,-168.44C1137.15,-159.1 1076.11,-144.12 1034.61,-133.93"/>
<polygon fill="midnightblue" stroke="midnightblue" points="1035.31,-130.5 1024.77,-131.52 1033.64,-137.3 1035.31,-130.5"/>
</g>
<!-- Node22&#45;&gt;Node13 -->
<g id="edge29" class="edge">
<title>Node22&#45;&gt;Node13</title>
<path fill="none" stroke="midnightblue" d="M1216.44,-168.23C1222.33,-159.53 1230.68,-145.57 1234.07,-132 1243.04,-96.1 1230.04,-77.7 1200.07,-56 1157.63,-25.29 1097.48,-15.16 1055.44,-12.02"/>
<polygon fill="midnightblue" stroke="midnightblue" points="1055.63,-8.53 1045.43,-11.38 1055.18,-15.51 1055.63,-8.53"/>
</g>
<!-- Node23 -->
<g id="node23" class="node">
<title>Node23</title>
<g id="a_node23"><a xlink:title=" ">
<polygon fill="white" stroke="#bfbfbf" points="1347.57,-112.5 1347.57,-131.5 1418.57,-131.5 1418.57,-112.5 1347.57,-112.5"/>
<text text-anchor="middle" x="1383.07" y="-119.5" font-family="Helvetica,sans-Serif" font-size="10.00">glad/glad.h</text>
</a>
</g>
</g>
<!-- Node22&#45;&gt;Node23 -->
<g id="edge30" class="edge">
<title>Node22&#45;&gt;Node23</title>
<path fill="none" stroke="midnightblue" d="M1237.48,-168.44C1266.84,-159.28 1313.59,-144.69 1346.16,-134.52"/>
<polygon fill="midnightblue" stroke="midnightblue" points="1347.28,-137.84 1355.78,-131.52 1345.2,-131.16 1347.28,-137.84"/>
</g>
<!-- Node24 -->
<g id="node24" class="node">
<title>Node24</title>
<g id="a_node24"><a xlink:title=" ">
<polygon fill="white" stroke="#bfbfbf" points="1282.57,-112.5 1282.57,-131.5 1329.57,-131.5 1329.57,-112.5 1282.57,-112.5"/>
<text text-anchor="middle" x="1306.07" y="-119.5" font-family="Helvetica,sans-Serif" font-size="10.00">vector</text>
</a>
</g>
</g>
<!-- Node22&#45;&gt;Node24 -->
<g id="edge31" class="edge">
<title>Node22&#45;&gt;Node24</title>
<path fill="none" stroke="midnightblue" d="M1225.49,-168.32C1240.61,-159.82 1263.88,-146.73 1281.54,-136.8"/>
<polygon fill="midnightblue" stroke="midnightblue" points="1283.68,-139.61 1290.68,-131.65 1280.25,-133.51 1283.68,-139.61"/>
</g>
<!-- Node25 -->
<g id="node25" class="node">
<title>Node25</title>
<g id="a_node25"><a xlink:href="_asset_8hpp.html" target="_top" xlink:title=" ">
<polygon fill="white" stroke="black" points="1088.57,-112.5 1088.57,-131.5 1225.57,-131.5 1225.57,-112.5 1088.57,-112.5"/>
<text text-anchor="middle" x="1157.07" y="-119.5" font-family="Helvetica,sans-Serif" font-size="10.00">AssetManager/Asset.hpp</text>
</a>
</g>
</g>
<!-- Node22&#45;&gt;Node25 -->
<g id="edge33" class="edge">
<title>Node22&#45;&gt;Node25</title>
<path fill="none" stroke="midnightblue" d="M1201.32,-168.08C1193.6,-160.22 1182.16,-148.57 1172.85,-139.08"/>
<polygon fill="midnightblue" stroke="midnightblue" points="1175.16,-136.44 1165.66,-131.75 1170.16,-141.34 1175.16,-136.44"/>
</g>
<!-- Node26 -->
<g id="node26" class="node">
<title>Node26</title>
<g id="a_node26"><a xlink:title=" ">
<polygon fill="white" stroke="#bfbfbf" points="1123.07,-56.5 1123.07,-75.5 1191.07,-75.5 1191.07,-56.5 1123.07,-56.5"/>
<text text-anchor="middle" x="1157.07" y="-63.5" font-family="Helvetica,sans-Serif" font-size="10.00">filesystem</text>
</a>
</g>
</g>
<!-- Node25&#45;&gt;Node26 -->
<g id="edge34" class="edge">
<title>Node25&#45;&gt;Node26</title>
<path fill="none" stroke="midnightblue" d="M1157.07,-112.08C1157.07,-105.01 1157.07,-94.86 1157.07,-85.99"/>
<polygon fill="midnightblue" stroke="midnightblue" points="1160.57,-85.75 1157.07,-75.75 1153.57,-85.75 1160.57,-85.75"/>
</g>
<!-- Node27&#45;&gt;Node13 -->
<g id="edge37" class="edge">
<title>Node27&#45;&gt;Node13</title>
<path fill="none" stroke="midnightblue" d="M1047.77,-168.49C1047.18,-155.97 1045.54,-131.94 1041.07,-112 1034.4,-82.22 1021.85,-49.02 1013.74,-29.09"/>
<polygon fill="midnightblue" stroke="midnightblue" points="1016.91,-27.62 1009.85,-19.72 1010.45,-30.3 1016.91,-27.62"/>
</g>
<!-- Node27&#45;&gt;Node25 -->
<g id="edge38" class="edge">
<title>Node27&#45;&gt;Node25</title>
<path fill="none" stroke="midnightblue" d="M1065.58,-168.32C1083.14,-159.62 1110.4,-146.12 1130.6,-136.11"/>
<polygon fill="midnightblue" stroke="midnightblue" points="1132.19,-139.23 1139.6,-131.65 1129.08,-132.96 1132.19,-139.23"/>
</g>
<!-- Node28&#45;&gt;Node13 -->
<g id="edge41" class="edge">
<title>Node28&#45;&gt;Node13</title>
<path fill="none" stroke="midnightblue" d="M369.96,-224.49C350.8,-217.6 326.89,-206.03 312.07,-188 290.14,-161.34 273.45,-138.08 296.07,-112 339.53,-61.89 802.63,-25.22 956.6,-14.34"/>
<polygon fill="midnightblue" stroke="midnightblue" points="956.99,-17.82 966.72,-13.63 956.5,-10.84 956.99,-17.82"/>
</g>
<!-- Node28&#45;&gt;Node14 -->
<g id="edge43" class="edge">
<title>Node28&#45;&gt;Node14</title>
<path fill="none" stroke="midnightblue" d="M385.04,-224.45C350.82,-203.96 272.72,-150.88 309.07,-112 349.6,-68.64 782.91,-80.83 842.07,-76 855.74,-74.88 870.52,-73.54 884.22,-72.23"/>
<polygon fill="midnightblue" stroke="midnightblue" points="884.83,-75.68 894.44,-71.24 884.15,-68.72 884.83,-75.68"/>
</g>
<!-- Node28&#45;&gt;Node17 -->
<g id="edge44" class="edge">
<title>Node28&#45;&gt;Node17</title>
<path fill="none" stroke="midnightblue" d="M440.95,-224.44C486.05,-215 558.68,-199.8 607.37,-189.61"/>
<polygon fill="midnightblue" stroke="midnightblue" points="608.31,-192.99 617.38,-187.52 606.87,-186.14 608.31,-192.99"/>
</g>
<!-- Node28&#45;&gt;Node19 -->
<g id="edge42" class="edge">
<title>Node28&#45;&gt;Node19</title>
<path fill="none" stroke="midnightblue" d="M400.07,-224.37C400.07,-206.62 400.07,-165.67 400.07,-141.6"/>
<polygon fill="midnightblue" stroke="midnightblue" points="403.57,-141.59 400.07,-131.59 396.57,-141.59 403.57,-141.59"/>
</g>
<!-- Node29&#45;&gt;Node13 -->
<g id="edge48" class="edge">
<title>Node29&#45;&gt;Node13</title>
<path fill="none" stroke="midnightblue" d="M1479.24,-224.21C1470.98,-199.09 1446.37,-127.76 1428.07,-112 1372.1,-63.82 1154.34,-30.2 1055.43,-17.09"/>
<polygon fill="midnightblue" stroke="midnightblue" points="1055.76,-13.61 1045.39,-15.78 1054.85,-20.55 1055.76,-13.61"/>
</g>
<!-- Node30 -->
<g id="node30" class="node">
<title>Node30</title>
<g id="a_node30"><a xlink:title=" ">
<polygon fill="white" stroke="#bfbfbf" points="1576.57,-168.5 1576.57,-187.5 1641.57,-187.5 1641.57,-168.5 1576.57,-168.5"/>
<text text-anchor="middle" x="1609.07" y="-175.5" font-family="Helvetica,sans-Serif" font-size="10.00">functional</text>
</a>
</g>
</g>
<!-- Node29&#45;&gt;Node30 -->
<g id="edge46" class="edge">
<title>Node29&#45;&gt;Node30</title>
<path fill="none" stroke="midnightblue" d="M1502.19,-224.44C1523.09,-215.56 1556,-201.56 1579.78,-191.45"/>
<polygon fill="midnightblue" stroke="midnightblue" points="1581.21,-194.65 1589.04,-187.52 1578.47,-188.21 1581.21,-194.65"/>
</g>
<!-- Node31 -->
<g id="node31" class="node">
<title>Node31</title>
<g id="a_node31"><a xlink:title=" ">
<polygon fill="white" stroke="#bfbfbf" points="1475.57,-168.5 1475.57,-187.5 1558.57,-187.5 1558.57,-168.5 1475.57,-168.5"/>
<text text-anchor="middle" x="1517.07" y="-175.5" font-family="Helvetica,sans-Serif" font-size="10.00">GLFW/glfw3.h</text>
</a>
</g>
</g>
<!-- Node29&#45;&gt;Node31 -->
<g id="edge47" class="edge">
<title>Node29&#45;&gt;Node31</title>
<path fill="none" stroke="midnightblue" d="M1487.85,-224.08C1492.74,-216.53 1499.9,-205.49 1505.9,-196.23"/>
<polygon fill="midnightblue" stroke="midnightblue" points="1508.89,-198.05 1511.4,-187.75 1503.02,-194.24 1508.89,-198.05"/>
</g>
</g>
</svg>
