<?xml version="1.0" encoding="UTF-8" standalone="no"?>
<!DOCTYPE svg PUBLIC "-//W3C//DTD SVG 1.1//EN"
 "http://www.w3.org/Graphics/SVG/1.1/DTD/svg11.dtd">
<!-- Generated by graphviz version 2.43.0 (0)
 -->
<!-- Title: src/ui/widgets/ObjectsWidget.hpp Pages: 1 -->
<svg width="352pt" height="252pt"
 viewBox="0.00 0.00 352.00 252.00" xmlns="http://www.w3.org/2000/svg" xmlns:xlink="http://www.w3.org/1999/xlink">
<g id="graph0" class="graph" transform="scale(1 1) rotate(0) translate(4 248)">
<title>src/ui/widgets/ObjectsWidget.hpp</title>
<polygon fill="white" stroke="transparent" points="-4,4 -4,-248 348,-248 348,4 -4,4"/>
<!-- Node1 -->
<g id="node1" class="node">
<title>Node1</title>
<g id="a_node1"><a xlink:title="Contains the declaration of the ObjectsWidget class, a user interface widget for managing game object...">
<polygon fill="#bfbfbf" stroke="black" points="55.5,-224.5 55.5,-243.5 234.5,-243.5 234.5,-224.5 55.5,-224.5"/>
<text text-anchor="middle" x="145" y="-231.5" font-family="Helvetica,sans-Serif" font-size="10.00">src/ui/widgets/ObjectsWidget.hpp</text>
</a>
</g>
</g>
<!-- Node2 -->
<g id="node2" class="node">
<title>Node2</title>
<g id="a_node2"><a xlink:title=" ">
<polygon fill="white" stroke="#bfbfbf" points="0,-168.5 0,-187.5 58,-187.5 58,-168.5 0,-168.5"/>
<text text-anchor="middle" x="29" y="-175.5" font-family="Helvetica,sans-Serif" font-size="10.00">memory</text>
</a>
</g>
</g>
<!-- Node1&#45;&gt;Node2 -->
<g id="edge1" class="edge">
<title>Node1&#45;&gt;Node2</title>
<path fill="none" stroke="midnightblue" d="M126.62,-224.44C107.78,-215.68 78.27,-201.94 56.62,-191.86"/>
<polygon fill="midnightblue" stroke="midnightblue" points="57.84,-188.56 47.29,-187.52 54.88,-194.91 57.84,-188.56"/>
</g>
<!-- Node3 -->
<g id="node3" class="node">
<title>Node3</title>
<g id="a_node3"><a xlink:title=" ">
<polygon fill="white" stroke="#bfbfbf" points="76.5,-168.5 76.5,-187.5 123.5,-187.5 123.5,-168.5 76.5,-168.5"/>
<text text-anchor="middle" x="100" y="-175.5" font-family="Helvetica,sans-Serif" font-size="10.00">vector</text>
</a>
</g>
</g>
<!-- Node1&#45;&gt;Node3 -->
<g id="edge2" class="edge">
<title>Node1&#45;&gt;Node3</title>
<path fill="none" stroke="midnightblue" d="M137.57,-224.08C131.15,-216.38 121.69,-205.03 113.88,-195.65"/>
<polygon fill="midnightblue" stroke="midnightblue" points="116.38,-193.19 107.29,-187.75 111.01,-197.67 116.38,-193.19"/>
</g>
<!-- Node4 -->
<g id="node4" class="node">
<title>Node4</title>
<g id="a_node4"><a xlink:href="_registry_8hpp.html" target="_top" xlink:title=" ">
<polygon fill="white" stroke="black" points="142,-168.5 142,-187.5 240,-187.5 240,-168.5 142,-168.5"/>
<text text-anchor="middle" x="191" y="-175.5" font-family="Helvetica,sans-Serif" font-size="10.00">ECS/Registry.hpp</text>
</a>
</g>
</g>
<!-- Node1&#45;&gt;Node4 -->
<g id="edge3" class="edge">
<title>Node1&#45;&gt;Node4</title>
<path fill="none" stroke="midnightblue" d="M152.6,-224.08C159.23,-216.3 169.02,-204.8 177.06,-195.37"/>
<polygon fill="midnightblue" stroke="midnightblue" points="179.73,-197.63 183.55,-187.75 174.4,-193.09 179.73,-197.63"/>
</g>
<!-- Node10 -->
<g id="node10" class="node">
<title>Node10</title>
<g id="a_node10"><a xlink:title=" ">
<polygon fill="white" stroke="#bfbfbf" points="258,-168.5 258,-187.5 344,-187.5 344,-168.5 258,-168.5"/>
<text text-anchor="middle" x="301" y="-175.5" font-family="Helvetica,sans-Serif" font-size="10.00">UI/Widget.hpp</text>
</a>
</g>
</g>
<!-- Node1&#45;&gt;Node10 -->
<g id="edge10" class="edge">
<title>Node1&#45;&gt;Node10</title>
<path fill="none" stroke="midnightblue" d="M169.72,-224.44C195.85,-215.4 237.26,-201.06 266.58,-190.92"/>
<polygon fill="midnightblue" stroke="midnightblue" points="268.09,-194.1 276.4,-187.52 265.8,-187.48 268.09,-194.1"/>
</g>
<!-- Node5 -->
<g id="node5" class="node">
<title>Node5</title>
<g id="a_node5"><a xlink:title=" ">
<polygon fill="white" stroke="#bfbfbf" points="77,-112.5 77,-131.5 163,-131.5 163,-112.5 77,-112.5"/>
<text text-anchor="middle" x="120" y="-119.5" font-family="Helvetica,sans-Serif" font-size="10.00">unordered_set</text>
</a>
</g>
</g>
<!-- Node4&#45;&gt;Node5 -->
<g id="edge4" class="edge">
<title>Node4&#45;&gt;Node5</title>
<path fill="none" stroke="midnightblue" d="M179.59,-168.32C168.89,-160.18 152.66,-147.84 139.84,-138.09"/>
<polygon fill="midnightblue" stroke="midnightblue" points="141.69,-135.1 131.61,-131.83 137.46,-140.67 141.69,-135.1"/>
</g>
<!-- Node6 -->
<g id="node6" class="node">
<title>Node6</title>
<g id="a_node6"><a xlink:href="_entity_provider_8hpp.html" target="_top" xlink:title="Manages a pool of unused entity identifiers and provides mechanisms for requesting and removing them.">
<polygon fill="white" stroke="black" points="168,-56.5 168,-75.5 296,-75.5 296,-56.5 168,-56.5"/>
<text text-anchor="middle" x="232" y="-63.5" font-family="Helvetica,sans-Serif" font-size="10.00">ECS/EntityProvider.hpp</text>
</a>
</g>
</g>
<!-- Node4&#45;&gt;Node6 -->
<g id="edge5" class="edge">
<title>Node4&#45;&gt;Node6</title>
<path fill="none" stroke="midnightblue" d="M193.01,-168.43C196.07,-155.85 202.36,-131.73 210,-112 213.57,-102.78 218.31,-92.86 222.48,-84.7"/>
<polygon fill="midnightblue" stroke="midnightblue" points="225.62,-86.25 227.16,-75.76 219.42,-83 225.62,-86.25"/>
</g>
<!-- Node9 -->
<g id="node9" class="node">
<title>Node9</title>
<g id="a_node9"><a xlink:href="_sparse_set_8hpp.html" target="_top" xlink:title=" ">
<polygon fill="white" stroke="black" points="219,-112.5 219,-131.5 327,-131.5 327,-112.5 219,-112.5"/>
<text text-anchor="middle" x="273" y="-119.5" font-family="Helvetica,sans-Serif" font-size="10.00">ECS/SparseSet.hpp</text>
</a>
</g>
</g>
<!-- Node4&#45;&gt;Node9 -->
<g id="edge8" class="edge">
<title>Node4&#45;&gt;Node9</title>
<path fill="none" stroke="midnightblue" d="M204.17,-168.32C216.85,-159.98 236.23,-147.21 251.21,-137.35"/>
<polygon fill="midnightblue" stroke="midnightblue" points="253.43,-140.08 259.86,-131.65 249.58,-134.23 253.43,-140.08"/>
</g>
<!-- Node7 -->
<g id="node7" class="node">
<title>Node7</title>
<g id="a_node7"><a xlink:title=" ">
<polygon fill="white" stroke="#bfbfbf" points="171.5,-0.5 171.5,-19.5 224.5,-19.5 224.5,-0.5 171.5,-0.5"/>
<text text-anchor="middle" x="198" y="-7.5" font-family="Helvetica,sans-Serif" font-size="10.00">stdlib.h</text>
</a>
</g>
</g>
<!-- Node6&#45;&gt;Node7 -->
<g id="edge6" class="edge">
<title>Node6&#45;&gt;Node7</title>
<path fill="none" stroke="midnightblue" d="M226.39,-56.08C221.63,-48.53 214.68,-37.49 208.85,-28.23"/>
<polygon fill="midnightblue" stroke="midnightblue" points="211.8,-26.35 203.51,-19.75 205.88,-30.08 211.8,-26.35"/>
</g>
<!-- Node8 -->
<g id="node8" class="node">
<title>Node8</title>
<g id="a_node8"><a xlink:title=" ">
<polygon fill="white" stroke="#bfbfbf" points="242.5,-0.5 242.5,-19.5 289.5,-19.5 289.5,-0.5 242.5,-0.5"/>
<text text-anchor="middle" x="266" y="-7.5" font-family="Helvetica,sans-Serif" font-size="10.00">queue</text>
</a>
</g>
</g>
<!-- Node6&#45;&gt;Node8 -->
<g id="edge7" class="edge">
<title>Node6&#45;&gt;Node8</title>
<path fill="none" stroke="midnightblue" d="M237.61,-56.08C242.37,-48.53 249.32,-37.49 255.15,-28.23"/>
<polygon fill="midnightblue" stroke="midnightblue" points="258.12,-30.08 260.49,-19.75 252.2,-26.35 258.12,-30.08"/>
</g>
<!-- Node9&#45;&gt;Node6 -->
<g id="edge9" class="edge">
<title>Node9&#45;&gt;Node6</title>
<path fill="none" stroke="midnightblue" d="M266.23,-112.08C260.44,-104.46 251.94,-93.26 244.86,-83.94"/>
<polygon fill="midnightblue" stroke="midnightblue" points="247.48,-81.6 238.64,-75.75 241.9,-85.83 247.48,-81.6"/>
</g>
</g>
</svg>
