<?xml version="1.0" encoding="UTF-8" standalone="no"?>
<!DOCTYPE svg PUBLIC "-//W3C//DTD SVG 1.1//EN"
 "http://www.w3.org/Graphics/SVG/1.1/DTD/svg11.dtd">
<!-- Generated by graphviz version 2.43.0 (0)
 -->
<!-- Title: src/Systems/ObjectSelectionSystem.cpp Pages: 1 -->
<svg width="1538pt" height="431pt"
 viewBox="0.00 0.00 1537.50 431.00" xmlns="http://www.w3.org/2000/svg" xmlns:xlink="http://www.w3.org/1999/xlink">
<g id="graph0" class="graph" transform="scale(1 1) rotate(0) translate(4 427)">
<title>src/Systems/ObjectSelectionSystem.cpp</title>
<polygon fill="white" stroke="transparent" points="-4,4 -4,-427 1533.5,-427 1533.5,4 -4,4"/>
<!-- Node1 -->
<g id="node1" class="node">
<title>Node1</title>
<g id="a_node1"><a xlink:title=" ">
<polygon fill="#bfbfbf" stroke="black" points="790.5,-392.5 790.5,-422.5 945.5,-422.5 945.5,-392.5 790.5,-392.5"/>
<text text-anchor="start" x="798.5" y="-410.5" font-family="Helvetica,sans-Serif" font-size="10.00">src/Systems/ObjectSelection</text>
<text text-anchor="middle" x="868" y="-399.5" font-family="Helvetica,sans-Serif" font-size="10.00">System.cpp</text>
</a>
</g>
</g>
<!-- Node2 -->
<g id="node2" class="node">
<title>Node2</title>
<g id="a_node2"><a xlink:href="_object_selection_system_8hpp.html" target="_top" xlink:title=" ">
<polygon fill="white" stroke="black" points="72,-336.5 72,-355.5 268,-355.5 268,-336.5 72,-336.5"/>
<text text-anchor="middle" x="170" y="-343.5" font-family="Helvetica,sans-Serif" font-size="10.00">Systems/ObjectSelectionSystem.hpp</text>
</a>
</g>
</g>
<!-- Node1&#45;&gt;Node2 -->
<g id="edge1" class="edge">
<title>Node1&#45;&gt;Node2</title>
<path fill="none" stroke="midnightblue" d="M790.3,-399.88C665.46,-389.23 419.89,-368.3 278.05,-356.21"/>
<polygon fill="midnightblue" stroke="midnightblue" points="278.28,-352.72 268.02,-355.36 277.68,-359.69 278.28,-352.72"/>
</g>
<!-- Node14 -->
<g id="node14" class="node">
<title>Node14</title>
<g id="a_node14"><a xlink:href="_box_collider_component_8hpp.html" target="_top" xlink:title=" ">
<polygon fill="white" stroke="black" points="760.5,-336.5 760.5,-355.5 975.5,-355.5 975.5,-336.5 760.5,-336.5"/>
<text text-anchor="middle" x="868" y="-343.5" font-family="Helvetica,sans-Serif" font-size="10.00">Components/BoxColliderComponent.hpp</text>
</a>
</g>
</g>
<!-- Node1&#45;&gt;Node14 -->
<g id="edge18" class="edge">
<title>Node1&#45;&gt;Node14</title>
<path fill="none" stroke="midnightblue" d="M868,-392.4C868,-384.47 868,-374.46 868,-365.86"/>
<polygon fill="midnightblue" stroke="midnightblue" points="871.5,-365.66 868,-355.66 864.5,-365.66 871.5,-365.66"/>
</g>
<!-- Node21 -->
<g id="node21" class="node">
<title>Node21</title>
<g id="a_node21"><a xlink:href="_transform_component_8hpp.html" target="_top" xlink:title=" ">
<polygon fill="white" stroke="black" points="598.5,-280.5 598.5,-299.5 805.5,-299.5 805.5,-280.5 598.5,-280.5"/>
<text text-anchor="middle" x="702" y="-287.5" font-family="Helvetica,sans-Serif" font-size="10.00">Components/TransformComponent.hpp</text>
</a>
</g>
</g>
<!-- Node1&#45;&gt;Node21 -->
<g id="edge35" class="edge">
<title>Node1&#45;&gt;Node21</title>
<path fill="none" stroke="midnightblue" d="M821.59,-392.41C799.12,-384.13 772.6,-372.08 752,-356 735.22,-342.9 720.99,-322.93 712.05,-308.59"/>
<polygon fill="midnightblue" stroke="midnightblue" points="714.88,-306.49 706.74,-299.71 708.87,-310.09 714.88,-306.49"/>
</g>
<!-- Node25 -->
<g id="node25" class="node">
<title>Node25</title>
<g id="a_node25"><a xlink:href="_model_component_8hpp.html" target="_top" xlink:title=" ">
<polygon fill="white" stroke="black" points="1007,-336.5 1007,-355.5 1195,-355.5 1195,-336.5 1007,-336.5"/>
<text text-anchor="middle" x="1101" y="-343.5" font-family="Helvetica,sans-Serif" font-size="10.00">Components/ModelComponent.hpp</text>
</a>
</g>
</g>
<!-- Node1&#45;&gt;Node25 -->
<g id="edge36" class="edge">
<title>Node1&#45;&gt;Node25</title>
<path fill="none" stroke="midnightblue" d="M922.92,-392.47C964.17,-381.94 1019.88,-367.72 1057.93,-358"/>
<polygon fill="midnightblue" stroke="midnightblue" points="1058.87,-361.37 1067.69,-355.51 1057.13,-354.59 1058.87,-361.37"/>
</g>
<!-- Node26 -->
<g id="node26" class="node">
<title>Node26</title>
<g id="a_node26"><a xlink:title=" ">
<polygon fill="white" stroke="#bfbfbf" points="1364,-280.5 1364,-299.5 1424,-299.5 1424,-280.5 1364,-280.5"/>
<text text-anchor="middle" x="1394" y="-287.5" font-family="Helvetica,sans-Serif" font-size="10.00">iostream</text>
</a>
</g>
</g>
<!-- Node1&#45;&gt;Node26 -->
<g id="edge59" class="edge">
<title>Node1&#45;&gt;Node26</title>
<path fill="none" stroke="midnightblue" d="M945.5,-398.87C1014.1,-391.17 1116.61,-377.33 1204,-356 1261.43,-341.98 1326.13,-318.02 1363.28,-303.43"/>
<polygon fill="midnightblue" stroke="midnightblue" points="1364.99,-306.52 1373,-299.58 1362.42,-300.01 1364.99,-306.52"/>
</g>
<!-- Node33 -->
<g id="node33" class="node">
<title>Node33</title>
<g id="a_node33"><a xlink:href="_camera_component_8hpp.html" target="_top" xlink:title=" ">
<polygon fill="white" stroke="black" points="1332.5,-336.5 1332.5,-355.5 1529.5,-355.5 1529.5,-336.5 1332.5,-336.5"/>
<text text-anchor="middle" x="1431" y="-343.5" font-family="Helvetica,sans-Serif" font-size="10.00">Components/CameraComponent.hpp</text>
</a>
</g>
</g>
<!-- Node1&#45;&gt;Node33 -->
<g id="edge51" class="edge">
<title>Node1&#45;&gt;Node33</title>
<path fill="none" stroke="midnightblue" d="M945.69,-398.29C1048.95,-387.38 1231.07,-368.13 1340.44,-356.57"/>
<polygon fill="midnightblue" stroke="midnightblue" points="1340.89,-360.04 1350.47,-355.51 1340.16,-353.08 1340.89,-360.04"/>
</g>
<!-- Node34 -->
<g id="node34" class="node">
<title>Node34</title>
<g id="a_node34"><a xlink:href="_input_manager_8hpp.html" target="_top" xlink:title=" ">
<polygon fill="white" stroke="black" points="413.5,-168.5 413.5,-187.5 588.5,-187.5 588.5,-168.5 413.5,-168.5"/>
<text text-anchor="middle" x="501" y="-175.5" font-family="Helvetica,sans-Serif" font-size="10.00">InputManager/InputManager.hpp</text>
</a>
</g>
</g>
<!-- Node1&#45;&gt;Node34 -->
<g id="edge55" class="edge">
<title>Node1&#45;&gt;Node34</title>
<path fill="none" stroke="midnightblue" d="M790.5,-395.23C652.27,-373.38 372.3,-320.56 315,-244 309.67,-236.88 309.5,-230.99 315,-224 328.06,-207.41 374,-196.2 416.95,-189.12"/>
<polygon fill="midnightblue" stroke="midnightblue" points="417.59,-192.56 426.92,-187.54 416.49,-185.65 417.59,-192.56"/>
</g>
<!-- Node3 -->
<g id="node3" class="node">
<title>Node3</title>
<g id="a_node3"><a xlink:title=" ">
<polygon fill="white" stroke="#bfbfbf" points="98,-280.5 98,-299.5 156,-299.5 156,-280.5 98,-280.5"/>
<text text-anchor="middle" x="127" y="-287.5" font-family="Helvetica,sans-Serif" font-size="10.00">memory</text>
</a>
</g>
</g>
<!-- Node2&#45;&gt;Node3 -->
<g id="edge2" class="edge">
<title>Node2&#45;&gt;Node3</title>
<path fill="none" stroke="midnightblue" d="M162.9,-336.08C156.76,-328.38 147.73,-317.03 140.26,-307.65"/>
<polygon fill="midnightblue" stroke="midnightblue" points="142.94,-305.39 133.97,-299.75 137.46,-309.75 142.94,-305.39"/>
</g>
<!-- Node4 -->
<g id="node4" class="node">
<title>Node4</title>
<g id="a_node4"><a xlink:href="_registry_8hpp.html" target="_top" xlink:title=" ">
<polygon fill="white" stroke="black" points="135,-224.5 135,-243.5 233,-243.5 233,-224.5 135,-224.5"/>
<text text-anchor="middle" x="184" y="-231.5" font-family="Helvetica,sans-Serif" font-size="10.00">ECS/Registry.hpp</text>
</a>
</g>
</g>
<!-- Node2&#45;&gt;Node4 -->
<g id="edge3" class="edge">
<title>Node2&#45;&gt;Node4</title>
<path fill="none" stroke="midnightblue" d="M171.1,-336.37C173.36,-318.62 178.57,-277.67 181.63,-253.6"/>
<polygon fill="midnightblue" stroke="midnightblue" points="185.12,-253.95 182.91,-243.59 178.17,-253.07 185.12,-253.95"/>
</g>
<!-- Node5 -->
<g id="node5" class="node">
<title>Node5</title>
<g id="a_node5"><a xlink:title=" ">
<polygon fill="white" stroke="#bfbfbf" points="202,-112.5 202,-131.5 288,-131.5 288,-112.5 202,-112.5"/>
<text text-anchor="middle" x="245" y="-119.5" font-family="Helvetica,sans-Serif" font-size="10.00">unordered_set</text>
</a>
</g>
</g>
<!-- Node4&#45;&gt;Node5 -->
<g id="edge4" class="edge">
<title>Node4&#45;&gt;Node5</title>
<path fill="none" stroke="midnightblue" d="M188.79,-224.37C198.76,-206.38 221.96,-164.55 235.23,-140.63"/>
<polygon fill="midnightblue" stroke="midnightblue" points="238.45,-142.03 240.24,-131.59 232.33,-138.64 238.45,-142.03"/>
</g>
<!-- Node6 -->
<g id="node6" class="node">
<title>Node6</title>
<g id="a_node6"><a xlink:href="_entity_8hpp.html" target="_top" xlink:title=" ">
<polygon fill="white" stroke="black" points="131,-56.5 131,-75.5 217,-75.5 217,-56.5 131,-56.5"/>
<text text-anchor="middle" x="174" y="-63.5" font-family="Helvetica,sans-Serif" font-size="10.00">ECS/Entity.hpp</text>
</a>
</g>
</g>
<!-- Node4&#45;&gt;Node6 -->
<g id="edge5" class="edge">
<title>Node4&#45;&gt;Node6</title>
<path fill="none" stroke="midnightblue" d="M183.46,-224.08C181.89,-197.95 177.27,-121.21 175.12,-85.58"/>
<polygon fill="midnightblue" stroke="midnightblue" points="178.61,-85.34 174.52,-75.57 171.62,-85.76 178.61,-85.34"/>
</g>
<!-- Node8 -->
<g id="node8" class="node">
<title>Node8</title>
<g id="a_node8"><a xlink:href="_entity_hierarchy_8hpp.html" target="_top" xlink:title=" ">
<polygon fill="white" stroke="black" points="261,-168.5 261,-187.5 395,-187.5 395,-168.5 261,-168.5"/>
<text text-anchor="middle" x="328" y="-175.5" font-family="Helvetica,sans-Serif" font-size="10.00">ECS/EntityHierarchy.hpp</text>
</a>
</g>
</g>
<!-- Node4&#45;&gt;Node8 -->
<g id="edge7" class="edge">
<title>Node4&#45;&gt;Node8</title>
<path fill="none" stroke="midnightblue" d="M206.82,-224.44C230.83,-215.44 268.83,-201.19 295.87,-191.05"/>
<polygon fill="midnightblue" stroke="midnightblue" points="297.16,-194.3 305.29,-187.52 294.7,-187.75 297.16,-194.3"/>
</g>
<!-- Node11 -->
<g id="node11" class="node">
<title>Node11</title>
<g id="a_node11"><a xlink:href="_entity_provider_8hpp.html" target="_top" xlink:title="Manages a pool of unused entity identifiers and provides mechanisms for requesting and removing them.">
<polygon fill="white" stroke="black" points="18,-112.5 18,-131.5 146,-131.5 146,-112.5 18,-112.5"/>
<text text-anchor="middle" x="82" y="-119.5" font-family="Helvetica,sans-Serif" font-size="10.00">ECS/EntityProvider.hpp</text>
</a>
</g>
</g>
<!-- Node4&#45;&gt;Node11 -->
<g id="edge12" class="edge">
<title>Node4&#45;&gt;Node11</title>
<path fill="none" stroke="midnightblue" d="M176,-224.37C158.94,-205.97 118.79,-162.67 96.88,-139.05"/>
<polygon fill="midnightblue" stroke="midnightblue" points="99.33,-136.54 89.97,-131.59 94.2,-141.3 99.33,-136.54"/>
</g>
<!-- Node13 -->
<g id="node13" class="node">
<title>Node13</title>
<g id="a_node13"><a xlink:href="_sparse_set_8hpp.html" target="_top" xlink:title=" ">
<polygon fill="white" stroke="black" points="0,-168.5 0,-187.5 108,-187.5 108,-168.5 0,-168.5"/>
<text text-anchor="middle" x="54" y="-175.5" font-family="Helvetica,sans-Serif" font-size="10.00">ECS/SparseSet.hpp</text>
</a>
</g>
</g>
<!-- Node4&#45;&gt;Node13 -->
<g id="edge16" class="edge">
<title>Node4&#45;&gt;Node13</title>
<path fill="none" stroke="midnightblue" d="M163.4,-224.44C142.01,-215.56 108.32,-201.56 83.98,-191.45"/>
<polygon fill="midnightblue" stroke="midnightblue" points="85.08,-188.12 74.5,-187.52 82.39,-194.58 85.08,-188.12"/>
</g>
<!-- Node7 -->
<g id="node7" class="node">
<title>Node7</title>
<g id="a_node7"><a xlink:title=" ">
<polygon fill="white" stroke="#bfbfbf" points="78.5,-0.5 78.5,-19.5 131.5,-19.5 131.5,-0.5 78.5,-0.5"/>
<text text-anchor="middle" x="105" y="-7.5" font-family="Helvetica,sans-Serif" font-size="10.00">stdlib.h</text>
</a>
</g>
</g>
<!-- Node6&#45;&gt;Node7 -->
<g id="edge6" class="edge">
<title>Node6&#45;&gt;Node7</title>
<path fill="none" stroke="midnightblue" d="M162.91,-56.32C152.51,-48.18 136.74,-35.84 124.28,-26.09"/>
<polygon fill="midnightblue" stroke="midnightblue" points="126.32,-23.24 116.29,-19.83 122.01,-28.75 126.32,-23.24"/>
</g>
<!-- Node8&#45;&gt;Node5 -->
<g id="edge9" class="edge">
<title>Node8&#45;&gt;Node5</title>
<path fill="none" stroke="midnightblue" d="M314.66,-168.32C301.84,-159.98 282.22,-147.21 267.06,-137.35"/>
<polygon fill="midnightblue" stroke="midnightblue" points="268.59,-134.17 258.3,-131.65 264.78,-140.04 268.59,-134.17"/>
</g>
<!-- Node8&#45;&gt;Node6 -->
<g id="edge11" class="edge">
<title>Node8&#45;&gt;Node6</title>
<path fill="none" stroke="midnightblue" d="M354.56,-168.42C385.15,-157.15 428.82,-135.97 409,-112 386.37,-84.63 289.14,-73.75 227.05,-69.54"/>
<polygon fill="midnightblue" stroke="midnightblue" points="227.23,-66.04 217.03,-68.89 226.79,-73.03 227.23,-66.04"/>
</g>
<!-- Node9 -->
<g id="node9" class="node">
<title>Node9</title>
<g id="a_node9"><a xlink:title=" ">
<polygon fill="white" stroke="#bfbfbf" points="456.5,-112.5 456.5,-131.5 521.5,-131.5 521.5,-112.5 456.5,-112.5"/>
<text text-anchor="middle" x="489" y="-119.5" font-family="Helvetica,sans-Serif" font-size="10.00">functional</text>
</a>
</g>
</g>
<!-- Node8&#45;&gt;Node9 -->
<g id="edge8" class="edge">
<title>Node8&#45;&gt;Node9</title>
<path fill="none" stroke="midnightblue" d="M353.51,-168.44C380.6,-159.36 423.59,-144.94 453.87,-134.78"/>
<polygon fill="midnightblue" stroke="midnightblue" points="455.24,-138.01 463.61,-131.52 453.01,-131.38 455.24,-138.01"/>
</g>
<!-- Node10 -->
<g id="node10" class="node">
<title>Node10</title>
<g id="a_node10"><a xlink:title=" ">
<polygon fill="white" stroke="#bfbfbf" points="306.5,-112.5 306.5,-131.5 399.5,-131.5 399.5,-112.5 306.5,-112.5"/>
<text text-anchor="middle" x="353" y="-119.5" font-family="Helvetica,sans-Serif" font-size="10.00">unordered_map</text>
</a>
</g>
</g>
<!-- Node8&#45;&gt;Node10 -->
<g id="edge10" class="edge">
<title>Node8&#45;&gt;Node10</title>
<path fill="none" stroke="midnightblue" d="M332.13,-168.08C335.51,-160.77 340.42,-150.18 344.62,-141.1"/>
<polygon fill="midnightblue" stroke="midnightblue" points="347.92,-142.3 348.95,-131.75 341.57,-139.36 347.92,-142.3"/>
</g>
<!-- Node11&#45;&gt;Node6 -->
<g id="edge15" class="edge">
<title>Node11&#45;&gt;Node6</title>
<path fill="none" stroke="midnightblue" d="M96.78,-112.32C111.27,-103.82 133.57,-90.73 150.49,-80.8"/>
<polygon fill="midnightblue" stroke="midnightblue" points="152.4,-83.74 159.26,-75.65 148.86,-77.7 152.4,-83.74"/>
</g>
<!-- Node11&#45;&gt;Node7 -->
<g id="edge13" class="edge">
<title>Node11&#45;&gt;Node7</title>
<path fill="none" stroke="midnightblue" d="M73.81,-112.09C63.27,-99.49 47.3,-75.81 56,-56 61.39,-43.73 71.96,-33.34 81.9,-25.65"/>
<polygon fill="midnightblue" stroke="midnightblue" points="84.25,-28.27 90.34,-19.6 80.17,-22.58 84.25,-28.27"/>
</g>
<!-- Node12 -->
<g id="node12" class="node">
<title>Node12</title>
<g id="a_node12"><a xlink:title=" ">
<polygon fill="white" stroke="#bfbfbf" points="65.5,-56.5 65.5,-75.5 112.5,-75.5 112.5,-56.5 65.5,-56.5"/>
<text text-anchor="middle" x="89" y="-63.5" font-family="Helvetica,sans-Serif" font-size="10.00">queue</text>
</a>
</g>
</g>
<!-- Node11&#45;&gt;Node12 -->
<g id="edge14" class="edge">
<title>Node11&#45;&gt;Node12</title>
<path fill="none" stroke="midnightblue" d="M83.16,-112.08C84.08,-104.93 85.42,-94.64 86.58,-85.69"/>
<polygon fill="midnightblue" stroke="midnightblue" points="90.05,-86.12 87.87,-75.75 83.11,-85.22 90.05,-86.12"/>
</g>
<!-- Node13&#45;&gt;Node11 -->
<g id="edge17" class="edge">
<title>Node13&#45;&gt;Node11</title>
<path fill="none" stroke="midnightblue" d="M58.62,-168.08C62.46,-160.69 68.02,-149.95 72.76,-140.81"/>
<polygon fill="midnightblue" stroke="midnightblue" points="75.97,-142.24 77.46,-131.75 69.75,-139.02 75.97,-142.24"/>
</g>
<!-- Node15 -->
<g id="node15" class="node">
<title>Node15</title>
<g id="a_node15"><a xlink:title=" ">
<polygon fill="white" stroke="#bfbfbf" points="930,-224.5 930,-243.5 974,-243.5 974,-224.5 930,-224.5"/>
<text text-anchor="middle" x="952" y="-231.5" font-family="Helvetica,sans-Serif" font-size="10.00">string</text>
</a>
</g>
</g>
<!-- Node14&#45;&gt;Node15 -->
<g id="edge19" class="edge">
<title>Node14&#45;&gt;Node15</title>
<path fill="none" stroke="midnightblue" d="M874.41,-336.09C883.52,-323.49 900.78,-299.8 916,-280 923.33,-270.46 931.72,-259.96 938.55,-251.5"/>
<polygon fill="midnightblue" stroke="midnightblue" points="941.42,-253.52 945,-243.55 935.98,-249.11 941.42,-253.52"/>
</g>
<!-- Node16 -->
<g id="node16" class="node">
<title>Node16</title>
<g id="a_node16"><a xlink:href="_box_8hpp.html" target="_top" xlink:title=" ">
<polygon fill="white" stroke="black" points="992,-224.5 992,-243.5 1076,-243.5 1076,-224.5 992,-224.5"/>
<text text-anchor="middle" x="1034" y="-231.5" font-family="Helvetica,sans-Serif" font-size="10.00">Math/Box.hpp</text>
</a>
</g>
</g>
<!-- Node14&#45;&gt;Node16 -->
<g id="edge20" class="edge">
<title>Node14&#45;&gt;Node16</title>
<path fill="none" stroke="midnightblue" d="M881.03,-336.37C909.51,-317.49 977.58,-272.38 1012.52,-249.24"/>
<polygon fill="midnightblue" stroke="midnightblue" points="1014.63,-252.03 1021.03,-243.59 1010.77,-246.2 1014.63,-252.03"/>
</g>
<!-- Node19 -->
<g id="node19" class="node">
<title>Node19</title>
<g id="a_node19"><a xlink:href="_base_component_8hpp.html" target="_top" xlink:title=" ">
<polygon fill="white" stroke="black" points="730,-224.5 730,-243.5 912,-243.5 912,-224.5 730,-224.5"/>
<text text-anchor="middle" x="821" y="-231.5" font-family="Helvetica,sans-Serif" font-size="10.00">Components/BaseComponent.hpp</text>
</a>
</g>
</g>
<!-- Node14&#45;&gt;Node19 -->
<g id="edge24" class="edge">
<title>Node14&#45;&gt;Node19</title>
<path fill="none" stroke="midnightblue" d="M864.31,-336.37C856.66,-318.46 838.91,-276.92 828.67,-252.95"/>
<polygon fill="midnightblue" stroke="midnightblue" points="831.82,-251.41 824.67,-243.59 825.38,-254.16 831.82,-251.41"/>
</g>
<!-- Node14&#45;&gt;Node21 -->
<g id="edge26" class="edge">
<title>Node14&#45;&gt;Node21</title>
<path fill="none" stroke="midnightblue" d="M841.7,-336.44C813.65,-327.32 769.06,-312.81 737.82,-302.65"/>
<polygon fill="midnightblue" stroke="midnightblue" points="738.77,-299.28 728.18,-299.52 736.61,-305.94 738.77,-299.28"/>
</g>
<!-- Node17 -->
<g id="node17" class="node">
<title>Node17</title>
<g id="a_node17"><a xlink:title=" ">
<polygon fill="white" stroke="#bfbfbf" points="1030,-112.5 1030,-131.5 1108,-131.5 1108,-112.5 1030,-112.5"/>
<text text-anchor="middle" x="1069" y="-119.5" font-family="Helvetica,sans-Serif" font-size="10.00">glm/glm.hpp</text>
</a>
</g>
</g>
<!-- Node16&#45;&gt;Node17 -->
<g id="edge21" class="edge">
<title>Node16&#45;&gt;Node17</title>
<path fill="none" stroke="midnightblue" d="M1036.65,-224.15C1040.42,-211.62 1047.59,-188.01 1054,-168 1056.83,-159.17 1060.07,-149.39 1062.82,-141.22"/>
<polygon fill="midnightblue" stroke="midnightblue" points="1066.18,-142.2 1066.06,-131.61 1059.55,-139.96 1066.18,-142.2"/>
</g>
<!-- Node18 -->
<g id="node18" class="node">
<title>Node18</title>
<g id="a_node18"><a xlink:href="_ray_8hpp.html" target="_top" xlink:title=" ">
<polygon fill="white" stroke="black" points="1062.5,-168.5 1062.5,-187.5 1145.5,-187.5 1145.5,-168.5 1062.5,-168.5"/>
<text text-anchor="middle" x="1104" y="-175.5" font-family="Helvetica,sans-Serif" font-size="10.00">Math/Ray.hpp</text>
</a>
</g>
</g>
<!-- Node16&#45;&gt;Node18 -->
<g id="edge22" class="edge">
<title>Node16&#45;&gt;Node18</title>
<path fill="none" stroke="midnightblue" d="M1045.25,-224.32C1055.8,-216.18 1071.8,-203.84 1084.44,-194.09"/>
<polygon fill="midnightblue" stroke="midnightblue" points="1086.77,-196.71 1092.55,-187.83 1082.49,-191.17 1086.77,-196.71"/>
</g>
<!-- Node18&#45;&gt;Node17 -->
<g id="edge23" class="edge">
<title>Node18&#45;&gt;Node17</title>
<path fill="none" stroke="midnightblue" d="M1098.22,-168.08C1093.33,-160.53 1086.17,-149.49 1080.17,-140.23"/>
<polygon fill="midnightblue" stroke="midnightblue" points="1083.05,-138.24 1074.67,-131.75 1077.17,-142.05 1083.05,-138.24"/>
</g>
<!-- Node20 -->
<g id="node20" class="node">
<title>Node20</title>
<g id="a_node20"><a xlink:href="_types_8hpp.html" target="_top" xlink:title=" ">
<polygon fill="white" stroke="black" points="764.5,-168.5 764.5,-187.5 877.5,-187.5 877.5,-168.5 764.5,-168.5"/>
<text text-anchor="middle" x="821" y="-175.5" font-family="Helvetica,sans-Serif" font-size="10.00">Common/Types.hpp</text>
</a>
</g>
</g>
<!-- Node19&#45;&gt;Node20 -->
<g id="edge25" class="edge">
<title>Node19&#45;&gt;Node20</title>
<path fill="none" stroke="midnightblue" d="M821,-224.08C821,-217.01 821,-206.86 821,-197.99"/>
<polygon fill="midnightblue" stroke="midnightblue" points="824.5,-197.75 821,-187.75 817.5,-197.75 824.5,-197.75"/>
</g>
<!-- Node21&#45;&gt;Node4 -->
<g id="edge33" class="edge">
<title>Node21&#45;&gt;Node4</title>
<path fill="none" stroke="midnightblue" d="M620.21,-280.47C515.24,-269.53 335.65,-250.81 243.06,-241.16"/>
<polygon fill="midnightblue" stroke="midnightblue" points="243.33,-237.67 233.02,-240.11 242.6,-244.63 243.33,-237.67"/>
</g>
<!-- Node21&#45;&gt;Node15 -->
<g id="edge27" class="edge">
<title>Node21&#45;&gt;Node15</title>
<path fill="none" stroke="midnightblue" d="M749.24,-280.42C791.58,-272.48 855.59,-259.86 919.82,-244.15"/>
<polygon fill="midnightblue" stroke="midnightblue" points="920.84,-247.5 929.71,-241.7 919.16,-240.7 920.84,-247.5"/>
</g>
<!-- Node21&#45;&gt;Node17 -->
<g id="edge28" class="edge">
<title>Node21&#45;&gt;Node17</title>
<path fill="none" stroke="midnightblue" d="M702.79,-280.26C705.42,-257.06 716.1,-194 756,-168 798.45,-140.34 942.39,-129.17 1019.41,-125.1"/>
<polygon fill="midnightblue" stroke="midnightblue" points="1020,-128.57 1029.81,-124.57 1019.65,-121.58 1020,-128.57"/>
</g>
<!-- Node21&#45;&gt;Node19 -->
<g id="edge34" class="edge">
<title>Node21&#45;&gt;Node19</title>
<path fill="none" stroke="midnightblue" d="M720.86,-280.44C740.27,-271.64 770.73,-257.81 792.96,-247.72"/>
<polygon fill="midnightblue" stroke="midnightblue" points="794.57,-250.84 802.23,-243.52 791.68,-244.46 794.57,-250.84"/>
</g>
<!-- Node22 -->
<g id="node22" class="node">
<title>Node22</title>
<g id="a_node22"><a xlink:title=" ">
<polygon fill="white" stroke="#bfbfbf" points="324,-224.5 324,-243.5 454,-243.5 454,-224.5 324,-224.5"/>
<text text-anchor="middle" x="389" y="-231.5" font-family="Helvetica,sans-Serif" font-size="10.00">glm/gtc/quaternion.hpp</text>
</a>
</g>
</g>
<!-- Node21&#45;&gt;Node22 -->
<g id="edge29" class="edge">
<title>Node21&#45;&gt;Node22</title>
<path fill="none" stroke="midnightblue" d="M652.4,-280.44C597,-270.89 507.36,-255.42 448.29,-245.23"/>
<polygon fill="midnightblue" stroke="midnightblue" points="448.81,-241.77 438.36,-243.52 447.62,-248.67 448.81,-241.77"/>
</g>
<!-- Node23 -->
<g id="node23" class="node">
<title>Node23</title>
<g id="a_node23"><a xlink:title=" ">
<polygon fill="white" stroke="#bfbfbf" points="472.5,-224.5 472.5,-243.5 635.5,-243.5 635.5,-224.5 472.5,-224.5"/>
<text text-anchor="middle" x="554" y="-231.5" font-family="Helvetica,sans-Serif" font-size="10.00">glm/gtc/matrix_transform.hpp</text>
</a>
</g>
</g>
<!-- Node21&#45;&gt;Node23 -->
<g id="edge30" class="edge">
<title>Node21&#45;&gt;Node23</title>
<path fill="none" stroke="midnightblue" d="M678.55,-280.44C653.87,-271.44 614.81,-257.19 587.02,-247.05"/>
<polygon fill="midnightblue" stroke="midnightblue" points="587.94,-243.66 577.34,-243.52 585.54,-250.23 587.94,-243.66"/>
</g>
<!-- Node24 -->
<g id="node24" class="node">
<title>Node24</title>
<g id="a_node24"><a xlink:href="_math_2_utils_8hpp.html" target="_top" xlink:title=" ">
<polygon fill="white" stroke="black" points="607,-168.5 607,-187.5 695,-187.5 695,-168.5 607,-168.5"/>
<text text-anchor="middle" x="651" y="-175.5" font-family="Helvetica,sans-Serif" font-size="10.00">Math/Utils.hpp</text>
</a>
</g>
</g>
<!-- Node21&#45;&gt;Node24 -->
<g id="edge31" class="edge">
<title>Node21&#45;&gt;Node24</title>
<path fill="none" stroke="midnightblue" d="M698,-280.37C689.69,-262.46 670.44,-220.92 659.32,-196.95"/>
<polygon fill="midnightblue" stroke="midnightblue" points="662.36,-195.19 654.98,-187.59 656.01,-198.14 662.36,-195.19"/>
</g>
<!-- Node24&#45;&gt;Node17 -->
<g id="edge32" class="edge">
<title>Node24&#45;&gt;Node17</title>
<path fill="none" stroke="midnightblue" d="M695.31,-169.99C699.93,-169.3 704.56,-168.62 709,-168 819.8,-152.48 950.16,-136.83 1019.6,-128.71"/>
<polygon fill="midnightblue" stroke="midnightblue" points="1020.27,-132.15 1029.8,-127.52 1019.46,-125.2 1020.27,-132.15"/>
</g>
<!-- Node25&#45;&gt;Node15 -->
<g id="edge37" class="edge">
<title>Node25&#45;&gt;Node15</title>
<path fill="none" stroke="midnightblue" d="M1086.46,-336.34C1072.07,-327.61 1049.56,-313.53 1031,-300 1009.2,-284.11 985.46,-264.2 969.76,-250.63"/>
<polygon fill="midnightblue" stroke="midnightblue" points="971.76,-247.73 961.92,-243.81 967.17,-253.01 971.76,-247.73"/>
</g>
<!-- Node25&#45;&gt;Node19 -->
<g id="edge50" class="edge">
<title>Node25&#45;&gt;Node19</title>
<path fill="none" stroke="midnightblue" d="M1079.03,-336.37C1029.65,-316.97 909.76,-269.87 852.48,-247.37"/>
<polygon fill="midnightblue" stroke="midnightblue" points="853.46,-243.99 842.87,-243.59 850.9,-250.51 853.46,-243.99"/>
</g>
<!-- Node25&#45;&gt;Node26 -->
<g id="edge38" class="edge">
<title>Node25&#45;&gt;Node26</title>
<path fill="none" stroke="midnightblue" d="M1153.69,-336.48C1202.95,-328.33 1278.8,-315.31 1353.72,-300.18"/>
<polygon fill="midnightblue" stroke="midnightblue" points="1354.7,-303.55 1363.8,-298.13 1353.3,-296.69 1354.7,-303.55"/>
</g>
<!-- Node27 -->
<g id="node27" class="node">
<title>Node27</title>
<g id="a_node27"><a xlink:href="_mesh_8hpp.html" target="_top" xlink:title=" ">
<polygon fill="white" stroke="black" points="1039.5,-280.5 1039.5,-299.5 1176.5,-299.5 1176.5,-280.5 1039.5,-280.5"/>
<text text-anchor="middle" x="1108" y="-287.5" font-family="Helvetica,sans-Serif" font-size="10.00">AssetManager/Mesh.hpp</text>
</a>
</g>
</g>
<!-- Node25&#45;&gt;Node27 -->
<g id="edge39" class="edge">
<title>Node25&#45;&gt;Node27</title>
<path fill="none" stroke="midnightblue" d="M1102.16,-336.08C1103.08,-328.93 1104.42,-318.64 1105.58,-309.69"/>
<polygon fill="midnightblue" stroke="midnightblue" points="1109.05,-310.12 1106.87,-299.75 1102.11,-309.22 1109.05,-310.12"/>
</g>
<!-- Node32 -->
<g id="node32" class="node">
<title>Node32</title>
<g id="a_node32"><a xlink:href="_material_8hpp.html" target="_top" xlink:title=" ">
<polygon fill="white" stroke="black" points="1194.5,-280.5 1194.5,-299.5 1345.5,-299.5 1345.5,-280.5 1194.5,-280.5"/>
<text text-anchor="middle" x="1270" y="-287.5" font-family="Helvetica,sans-Serif" font-size="10.00">AssetManager/Material.hpp</text>
</a>
</g>
</g>
<!-- Node25&#45;&gt;Node32 -->
<g id="edge47" class="edge">
<title>Node25&#45;&gt;Node32</title>
<path fill="none" stroke="midnightblue" d="M1127.78,-336.44C1156.33,-327.32 1201.73,-312.81 1233.54,-302.65"/>
<polygon fill="midnightblue" stroke="midnightblue" points="1234.89,-305.89 1243.35,-299.52 1232.76,-299.23 1234.89,-305.89"/>
</g>
<!-- Node27&#45;&gt;Node15 -->
<g id="edge43" class="edge">
<title>Node27&#45;&gt;Node15</title>
<path fill="none" stroke="midnightblue" d="M1083.28,-280.44C1056.38,-271.13 1013.29,-256.22 983.87,-246.03"/>
<polygon fill="midnightblue" stroke="midnightblue" points="984.68,-242.61 974.08,-242.64 982.39,-249.22 984.68,-242.61"/>
</g>
<!-- Node27&#45;&gt;Node16 -->
<g id="edge46" class="edge">
<title>Node27&#45;&gt;Node16</title>
<path fill="none" stroke="midnightblue" d="M1096.11,-280.32C1084.85,-272.11 1067.71,-259.6 1054.29,-249.81"/>
<polygon fill="midnightblue" stroke="midnightblue" points="1056.25,-246.9 1046.11,-243.83 1052.12,-252.56 1056.25,-246.9"/>
</g>
<!-- Node27&#45;&gt;Node17 -->
<g id="edge40" class="edge">
<title>Node27&#45;&gt;Node17</title>
<path fill="none" stroke="midnightblue" d="M1175.19,-280.45C1215.89,-271.97 1256.96,-255.48 1240,-224 1213.89,-175.52 1153.81,-148.22 1112.3,-134.55"/>
<polygon fill="midnightblue" stroke="midnightblue" points="1113.3,-131.19 1102.71,-131.51 1111.19,-137.86 1113.3,-131.19"/>
</g>
<!-- Node28 -->
<g id="node28" class="node">
<title>Node28</title>
<g id="a_node28"><a xlink:title=" ">
<polygon fill="white" stroke="#bfbfbf" points="1094.5,-224.5 1094.5,-243.5 1165.5,-243.5 1165.5,-224.5 1094.5,-224.5"/>
<text text-anchor="middle" x="1130" y="-231.5" font-family="Helvetica,sans-Serif" font-size="10.00">glad/glad.h</text>
</a>
</g>
</g>
<!-- Node27&#45;&gt;Node28 -->
<g id="edge41" class="edge">
<title>Node27&#45;&gt;Node28</title>
<path fill="none" stroke="midnightblue" d="M1111.63,-280.08C1114.61,-272.77 1118.93,-262.18 1122.62,-253.1"/>
<polygon fill="midnightblue" stroke="midnightblue" points="1125.9,-254.33 1126.43,-243.75 1119.42,-251.69 1125.9,-254.33"/>
</g>
<!-- Node29 -->
<g id="node29" class="node">
<title>Node29</title>
<g id="a_node29"><a xlink:title=" ">
<polygon fill="white" stroke="#bfbfbf" points="1183.5,-224.5 1183.5,-243.5 1230.5,-243.5 1230.5,-224.5 1183.5,-224.5"/>
<text text-anchor="middle" x="1207" y="-231.5" font-family="Helvetica,sans-Serif" font-size="10.00">vector</text>
</a>
</g>
</g>
<!-- Node27&#45;&gt;Node29 -->
<g id="edge42" class="edge">
<title>Node27&#45;&gt;Node29</title>
<path fill="none" stroke="midnightblue" d="M1123.91,-280.32C1139.64,-271.74 1163.94,-258.49 1182.21,-248.52"/>
<polygon fill="midnightblue" stroke="midnightblue" points="1184.03,-251.52 1191.13,-243.65 1180.68,-245.37 1184.03,-251.52"/>
</g>
<!-- Node30 -->
<g id="node30" class="node">
<title>Node30</title>
<g id="a_node30"><a xlink:href="_asset_8hpp.html" target="_top" xlink:title=" ">
<polygon fill="white" stroke="black" points="1287.5,-224.5 1287.5,-243.5 1424.5,-243.5 1424.5,-224.5 1287.5,-224.5"/>
<text text-anchor="middle" x="1356" y="-231.5" font-family="Helvetica,sans-Serif" font-size="10.00">AssetManager/Asset.hpp</text>
</a>
</g>
</g>
<!-- Node27&#45;&gt;Node30 -->
<g id="edge44" class="edge">
<title>Node27&#45;&gt;Node30</title>
<path fill="none" stroke="midnightblue" d="M1147.3,-280.44C1190.56,-271.02 1260.17,-255.87 1306.97,-245.68"/>
<polygon fill="midnightblue" stroke="midnightblue" points="1307.86,-249.06 1316.89,-243.52 1306.37,-242.22 1307.86,-249.06"/>
</g>
<!-- Node31 -->
<g id="node31" class="node">
<title>Node31</title>
<g id="a_node31"><a xlink:title=" ">
<polygon fill="white" stroke="#bfbfbf" points="1322,-168.5 1322,-187.5 1390,-187.5 1390,-168.5 1322,-168.5"/>
<text text-anchor="middle" x="1356" y="-175.5" font-family="Helvetica,sans-Serif" font-size="10.00">filesystem</text>
</a>
</g>
</g>
<!-- Node30&#45;&gt;Node31 -->
<g id="edge45" class="edge">
<title>Node30&#45;&gt;Node31</title>
<path fill="none" stroke="midnightblue" d="M1356,-224.08C1356,-217.01 1356,-206.86 1356,-197.99"/>
<polygon fill="midnightblue" stroke="midnightblue" points="1359.5,-197.75 1356,-187.75 1352.5,-197.75 1359.5,-197.75"/>
</g>
<!-- Node32&#45;&gt;Node17 -->
<g id="edge48" class="edge">
<title>Node32&#45;&gt;Node17</title>
<path fill="none" stroke="midnightblue" d="M1328.87,-280.48C1370.48,-273.11 1421.07,-260.96 1434,-244 1455.03,-216.42 1417.07,-179.68 1399,-168 1353.69,-138.71 1199.07,-128.21 1118.59,-124.67"/>
<polygon fill="midnightblue" stroke="midnightblue" points="1118.35,-121.16 1108.22,-124.23 1118.06,-128.15 1118.35,-121.16"/>
</g>
<!-- Node32&#45;&gt;Node30 -->
<g id="edge49" class="edge">
<title>Node32&#45;&gt;Node30</title>
<path fill="none" stroke="midnightblue" d="M1283.82,-280.32C1297.23,-271.9 1317.82,-258.97 1333.59,-249.07"/>
<polygon fill="midnightblue" stroke="midnightblue" points="1335.61,-251.94 1342.22,-243.65 1331.89,-246.01 1335.61,-251.94"/>
</g>
<!-- Node33&#45;&gt;Node17 -->
<g id="edge52" class="edge">
<title>Node33&#45;&gt;Node17</title>
<path fill="none" stroke="midnightblue" d="M1439.21,-336.18C1446.54,-327.66 1456.76,-314.02 1461,-300 1478.66,-241.69 1473.45,-203.59 1424,-168 1376.09,-133.52 1203.7,-125.43 1118.03,-123.56"/>
<polygon fill="midnightblue" stroke="midnightblue" points="1118.1,-120.06 1108.03,-123.36 1117.96,-127.06 1118.1,-120.06"/>
</g>
<!-- Node33&#45;&gt;Node18 -->
<g id="edge53" class="edge">
<title>Node33&#45;&gt;Node18</title>
<path fill="none" stroke="midnightblue" d="M1434.68,-336.37C1443.36,-314.52 1462.33,-256.45 1434,-224 1415.99,-203.36 1243.82,-188.62 1155.59,-182.35"/>
<polygon fill="midnightblue" stroke="midnightblue" points="1155.74,-178.86 1145.52,-181.65 1155.25,-185.84 1155.74,-178.86"/>
</g>
<!-- Node33&#45;&gt;Node21 -->
<g id="edge54" class="edge">
<title>Node33&#45;&gt;Node21</title>
<path fill="none" stroke="midnightblue" d="M1332.3,-337.69C1197.84,-327.73 957.6,-309.93 815.73,-299.42"/>
<polygon fill="midnightblue" stroke="midnightblue" points="815.92,-295.93 805.69,-298.68 815.4,-302.91 815.92,-295.93"/>
</g>
<!-- Node34&#45;&gt;Node9 -->
<g id="edge56" class="edge">
<title>Node34&#45;&gt;Node9</title>
<path fill="none" stroke="midnightblue" d="M499.02,-168.08C497.43,-160.93 495.14,-150.64 493.15,-141.69"/>
<polygon fill="midnightblue" stroke="midnightblue" points="496.53,-140.75 490.94,-131.75 489.7,-142.27 496.53,-140.75"/>
</g>
<!-- Node34&#45;&gt;Node17 -->
<g id="edge58" class="edge">
<title>Node34&#45;&gt;Node17</title>
<path fill="none" stroke="midnightblue" d="M588.51,-168.68C709.51,-157.18 923.84,-136.8 1019.97,-127.66"/>
<polygon fill="midnightblue" stroke="midnightblue" points="1020.37,-131.14 1029.99,-126.71 1019.71,-124.17 1020.37,-131.14"/>
</g>
<!-- Node35 -->
<g id="node35" class="node">
<title>Node35</title>
<g id="a_node35"><a xlink:title=" ">
<polygon fill="white" stroke="#bfbfbf" points="539.5,-112.5 539.5,-131.5 622.5,-131.5 622.5,-112.5 539.5,-112.5"/>
<text text-anchor="middle" x="581" y="-119.5" font-family="Helvetica,sans-Serif" font-size="10.00">GLFW/glfw3.h</text>
</a>
</g>
</g>
<!-- Node34&#45;&gt;Node35 -->
<g id="edge57" class="edge">
<title>Node34&#45;&gt;Node35</title>
<path fill="none" stroke="midnightblue" d="M513.85,-168.32C526.22,-159.98 545.13,-147.21 559.74,-137.35"/>
<polygon fill="midnightblue" stroke="midnightblue" points="561.85,-140.15 568.18,-131.65 557.93,-134.35 561.85,-140.15"/>
</g>
</g>
</svg>
