<?xml version="1.0" encoding="UTF-8" standalone="no"?>
<!DOCTYPE svg PUBLIC "-//W3C//DTD SVG 1.1//EN"
 "http://www.w3.org/Graphics/SVG/1.1/DTD/svg11.dtd">
<!-- Generated by graphviz version 2.43.0 (0)
 -->
<!-- Title: src/ui/widgets/ObjectsWidget.cpp Pages: 1 -->
<svg width="1349pt" height="364pt"
 viewBox="0.00 0.00 1349.00 364.00" xmlns="http://www.w3.org/2000/svg" xmlns:xlink="http://www.w3.org/1999/xlink">
<g id="graph0" class="graph" transform="scale(1 1) rotate(0) translate(4 360)">
<title>src/ui/widgets/ObjectsWidget.cpp</title>
<polygon fill="white" stroke="transparent" points="-4,4 -4,-360 1345,-360 1345,4 -4,4"/>
<!-- Node1 -->
<g id="node1" class="node">
<title>Node1</title>
<g id="a_node1"><a xlink:title=" ">
<polygon fill="#bfbfbf" stroke="black" points="376.5,-336.5 376.5,-355.5 555.5,-355.5 555.5,-336.5 376.5,-336.5"/>
<text text-anchor="middle" x="466" y="-343.5" font-family="Helvetica,sans-Serif" font-size="10.00">src/ui/widgets/ObjectsWidget.cpp</text>
</a>
</g>
</g>
<!-- Node2 -->
<g id="node2" class="node">
<title>Node2</title>
<g id="a_node2"><a xlink:title=" ">
<polygon fill="white" stroke="#bfbfbf" points="0,-280.5 0,-299.5 60,-299.5 60,-280.5 0,-280.5"/>
<text text-anchor="middle" x="30" y="-287.5" font-family="Helvetica,sans-Serif" font-size="10.00">iostream</text>
</a>
</g>
</g>
<!-- Node1&#45;&gt;Node2 -->
<g id="edge1" class="edge">
<title>Node1&#45;&gt;Node2</title>
<path fill="none" stroke="midnightblue" d="M376.11,-337.75C297.74,-330.76 180.86,-318.7 70.17,-300.03"/>
<polygon fill="midnightblue" stroke="midnightblue" points="70.61,-296.55 60.16,-298.32 69.43,-303.45 70.61,-296.55"/>
</g>
<!-- Node3 -->
<g id="node3" class="node">
<title>Node3</title>
<g id="a_node3"><a xlink:title=" ">
<polygon fill="white" stroke="#bfbfbf" points="78,-280.5 78,-299.5 174,-299.5 174,-280.5 78,-280.5"/>
<text text-anchor="middle" x="126" y="-287.5" font-family="Helvetica,sans-Serif" font-size="10.00">imgui_internal.h</text>
</a>
</g>
</g>
<!-- Node1&#45;&gt;Node3 -->
<g id="edge2" class="edge">
<title>Node1&#45;&gt;Node3</title>
<path fill="none" stroke="midnightblue" d="M412.13,-336.44C349.92,-326.56 247.97,-310.37 184.05,-300.22"/>
<polygon fill="midnightblue" stroke="midnightblue" points="184.55,-296.76 174.12,-298.64 183.45,-303.67 184.55,-296.76"/>
</g>
<!-- Node4 -->
<g id="node4" class="node">
<title>Node4</title>
<g id="a_node4"><a xlink:title=" ">
<polygon fill="white" stroke="#bfbfbf" points="192.5,-280.5 192.5,-299.5 245.5,-299.5 245.5,-280.5 192.5,-280.5"/>
<text text-anchor="middle" x="219" y="-287.5" font-family="Helvetica,sans-Serif" font-size="10.00">imgui.h</text>
</a>
</g>
</g>
<!-- Node1&#45;&gt;Node4 -->
<g id="edge3" class="edge">
<title>Node1&#45;&gt;Node4</title>
<path fill="none" stroke="midnightblue" d="M423.87,-336.47C383.29,-328.14 319.95,-314.89 255.62,-300.08"/>
<polygon fill="midnightblue" stroke="midnightblue" points="256.24,-296.63 245.71,-297.79 254.67,-303.45 256.24,-296.63"/>
</g>
<!-- Node5 -->
<g id="node5" class="node">
<title>Node5</title>
<g id="a_node5"><a xlink:href="_name_component_8hpp.html" target="_top" xlink:title=" ">
<polygon fill="white" stroke="black" points="264,-280.5 264,-299.5 452,-299.5 452,-280.5 264,-280.5"/>
<text text-anchor="middle" x="358" y="-287.5" font-family="Helvetica,sans-Serif" font-size="10.00">Components/NameComponent.hpp</text>
</a>
</g>
</g>
<!-- Node1&#45;&gt;Node5 -->
<g id="edge4" class="edge">
<title>Node1&#45;&gt;Node5</title>
<path fill="none" stroke="midnightblue" d="M448.65,-336.32C431.33,-327.66 404.48,-314.24 384.5,-304.25"/>
<polygon fill="midnightblue" stroke="midnightblue" points="385.82,-301 375.31,-299.65 382.69,-307.26 385.82,-301"/>
</g>
<!-- Node9 -->
<g id="node9" class="node">
<title>Node9</title>
<g id="a_node9"><a xlink:href="_transform_component_8hpp.html" target="_top" xlink:title=" ">
<polygon fill="white" stroke="black" points="470.5,-280.5 470.5,-299.5 677.5,-299.5 677.5,-280.5 470.5,-280.5"/>
<text text-anchor="middle" x="574" y="-287.5" font-family="Helvetica,sans-Serif" font-size="10.00">Components/TransformComponent.hpp</text>
</a>
</g>
</g>
<!-- Node1&#45;&gt;Node9 -->
<g id="edge8" class="edge">
<title>Node1&#45;&gt;Node9</title>
<path fill="none" stroke="midnightblue" d="M483.35,-336.32C500.67,-327.66 527.52,-314.24 547.5,-304.25"/>
<polygon fill="midnightblue" stroke="midnightblue" points="549.31,-307.26 556.69,-299.65 546.18,-301 549.31,-307.26"/>
</g>
<!-- Node24 -->
<g id="node24" class="node">
<title>Node24</title>
<g id="a_node24"><a xlink:title=" ">
<polygon fill="white" stroke="#bfbfbf" points="695.5,-280.5 695.5,-299.5 862.5,-299.5 862.5,-280.5 695.5,-280.5"/>
<text text-anchor="middle" x="779" y="-287.5" font-family="Helvetica,sans-Serif" font-size="10.00">UI/Widgets/ConsoleWidget.hpp</text>
</a>
</g>
</g>
<!-- Node1&#45;&gt;Node24 -->
<g id="edge31" class="edge">
<title>Node1&#45;&gt;Node24</title>
<path fill="none" stroke="midnightblue" d="M515.6,-336.44C571,-326.89 660.64,-311.42 719.71,-301.23"/>
<polygon fill="midnightblue" stroke="midnightblue" points="720.38,-304.67 729.64,-299.52 719.19,-297.77 720.38,-304.67"/>
</g>
<!-- Node25 -->
<g id="node25" class="node">
<title>Node25</title>
<g id="a_node25"><a xlink:title=" ">
<polygon fill="white" stroke="#bfbfbf" points="880.5,-280.5 880.5,-299.5 1045.5,-299.5 1045.5,-280.5 880.5,-280.5"/>
<text text-anchor="middle" x="963" y="-287.5" font-family="Helvetica,sans-Serif" font-size="10.00">UI/Widgets/ObjectsWidget.hpp</text>
</a>
</g>
</g>
<!-- Node1&#45;&gt;Node25 -->
<g id="edge32" class="edge">
<title>Node1&#45;&gt;Node25</title>
<path fill="none" stroke="midnightblue" d="M544.48,-336.47C634.21,-326.72 780.77,-310.8 874.5,-300.62"/>
<polygon fill="midnightblue" stroke="midnightblue" points="874.96,-304.09 884.53,-299.53 874.21,-297.13 874.96,-304.09"/>
</g>
<!-- Node26 -->
<g id="node26" class="node">
<title>Node26</title>
<g id="a_node26"><a xlink:title=" ">
<polygon fill="white" stroke="#bfbfbf" points="1064,-280.5 1064,-299.5 1242,-299.5 1242,-280.5 1064,-280.5"/>
<text text-anchor="middle" x="1153" y="-287.5" font-family="Helvetica,sans-Serif" font-size="10.00">UI/Widgets/PropertiesWidget.hpp</text>
</a>
</g>
</g>
<!-- Node1&#45;&gt;Node26 -->
<g id="edge33" class="edge">
<title>Node1&#45;&gt;Node26</title>
<path fill="none" stroke="midnightblue" d="M555.84,-338.57C669.29,-330.34 870.76,-315.42 1053.73,-300.1"/>
<polygon fill="midnightblue" stroke="midnightblue" points="1054.14,-303.57 1063.81,-299.25 1053.55,-296.6 1054.14,-303.57"/>
</g>
<!-- Node6 -->
<g id="node6" class="node">
<title>Node6</title>
<g id="a_node6"><a xlink:title=" ">
<polygon fill="white" stroke="#bfbfbf" points="409,-224.5 409,-243.5 453,-243.5 453,-224.5 409,-224.5"/>
<text text-anchor="middle" x="431" y="-231.5" font-family="Helvetica,sans-Serif" font-size="10.00">string</text>
</a>
</g>
</g>
<!-- Node5&#45;&gt;Node6 -->
<g id="edge5" class="edge">
<title>Node5&#45;&gt;Node6</title>
<path fill="none" stroke="midnightblue" d="M369.73,-280.32C380.84,-272.11 397.74,-259.6 410.98,-249.81"/>
<polygon fill="midnightblue" stroke="midnightblue" points="413.1,-252.59 419.06,-243.83 408.94,-246.97 413.1,-252.59"/>
</g>
<!-- Node7 -->
<g id="node7" class="node">
<title>Node7</title>
<g id="a_node7"><a xlink:href="_base_component_8hpp.html" target="_top" xlink:title=" ">
<polygon fill="white" stroke="black" points="209,-224.5 209,-243.5 391,-243.5 391,-224.5 209,-224.5"/>
<text text-anchor="middle" x="300" y="-231.5" font-family="Helvetica,sans-Serif" font-size="10.00">Components/BaseComponent.hpp</text>
</a>
</g>
</g>
<!-- Node5&#45;&gt;Node7 -->
<g id="edge6" class="edge">
<title>Node5&#45;&gt;Node7</title>
<path fill="none" stroke="midnightblue" d="M348.68,-280.32C340.11,-272.34 327.19,-260.31 316.81,-250.65"/>
<polygon fill="midnightblue" stroke="midnightblue" points="319.19,-248.09 309.49,-243.83 314.42,-253.21 319.19,-248.09"/>
</g>
<!-- Node8 -->
<g id="node8" class="node">
<title>Node8</title>
<g id="a_node8"><a xlink:href="_types_8hpp.html" target="_top" xlink:title=" ">
<polygon fill="white" stroke="black" points="243.5,-168.5 243.5,-187.5 356.5,-187.5 356.5,-168.5 243.5,-168.5"/>
<text text-anchor="middle" x="300" y="-175.5" font-family="Helvetica,sans-Serif" font-size="10.00">Common/Types.hpp</text>
</a>
</g>
</g>
<!-- Node7&#45;&gt;Node8 -->
<g id="edge7" class="edge">
<title>Node7&#45;&gt;Node8</title>
<path fill="none" stroke="midnightblue" d="M300,-224.08C300,-217.01 300,-206.86 300,-197.99"/>
<polygon fill="midnightblue" stroke="midnightblue" points="303.5,-197.75 300,-187.75 296.5,-197.75 303.5,-197.75"/>
</g>
<!-- Node9&#45;&gt;Node6 -->
<g id="edge9" class="edge">
<title>Node9&#45;&gt;Node6</title>
<path fill="none" stroke="midnightblue" d="M551.34,-280.44C527.46,-271.42 489.65,-257.15 462.79,-247"/>
<polygon fill="midnightblue" stroke="midnightblue" points="463.67,-243.6 453.08,-243.34 461.2,-250.15 463.67,-243.6"/>
</g>
<!-- Node9&#45;&gt;Node7 -->
<g id="edge30" class="edge">
<title>Node9&#45;&gt;Node7</title>
<path fill="none" stroke="midnightblue" d="M530.58,-280.44C482.48,-270.96 404.91,-255.67 353.19,-245.48"/>
<polygon fill="midnightblue" stroke="midnightblue" points="353.7,-242.02 343.21,-243.52 352.35,-248.88 353.7,-242.02"/>
</g>
<!-- Node10 -->
<g id="node10" class="node">
<title>Node10</title>
<g id="a_node10"><a xlink:title=" ">
<polygon fill="white" stroke="#bfbfbf" points="583,-168.5 583,-187.5 661,-187.5 661,-168.5 583,-168.5"/>
<text text-anchor="middle" x="622" y="-175.5" font-family="Helvetica,sans-Serif" font-size="10.00">glm/glm.hpp</text>
</a>
</g>
</g>
<!-- Node9&#45;&gt;Node10 -->
<g id="edge10" class="edge">
<title>Node9&#45;&gt;Node10</title>
<path fill="none" stroke="midnightblue" d="M549.89,-280.39C522.37,-269.18 483.18,-248.13 500,-224 516.35,-200.54 546.4,-189.28 572.58,-183.89"/>
<polygon fill="midnightblue" stroke="midnightblue" points="573.55,-187.27 582.76,-182.04 572.29,-180.38 573.55,-187.27"/>
</g>
<!-- Node11 -->
<g id="node11" class="node">
<title>Node11</title>
<g id="a_node11"><a xlink:title=" ">
<polygon fill="white" stroke="#bfbfbf" points="509,-224.5 509,-243.5 639,-243.5 639,-224.5 509,-224.5"/>
<text text-anchor="middle" x="574" y="-231.5" font-family="Helvetica,sans-Serif" font-size="10.00">glm/gtc/quaternion.hpp</text>
</a>
</g>
</g>
<!-- Node9&#45;&gt;Node11 -->
<g id="edge11" class="edge">
<title>Node9&#45;&gt;Node11</title>
<path fill="none" stroke="midnightblue" d="M574,-280.08C574,-273.01 574,-262.86 574,-253.99"/>
<polygon fill="midnightblue" stroke="midnightblue" points="577.5,-253.75 574,-243.75 570.5,-253.75 577.5,-253.75"/>
</g>
<!-- Node12 -->
<g id="node12" class="node">
<title>Node12</title>
<g id="a_node12"><a xlink:title=" ">
<polygon fill="white" stroke="#bfbfbf" points="657.5,-224.5 657.5,-243.5 820.5,-243.5 820.5,-224.5 657.5,-224.5"/>
<text text-anchor="middle" x="739" y="-231.5" font-family="Helvetica,sans-Serif" font-size="10.00">glm/gtc/matrix_transform.hpp</text>
</a>
</g>
</g>
<!-- Node9&#45;&gt;Node12 -->
<g id="edge12" class="edge">
<title>Node9&#45;&gt;Node12</title>
<path fill="none" stroke="midnightblue" d="M600.14,-280.44C628.02,-271.32 672.35,-256.81 703.4,-246.65"/>
<polygon fill="midnightblue" stroke="midnightblue" points="704.56,-249.95 712.98,-243.52 702.38,-243.3 704.56,-249.95"/>
</g>
<!-- Node13 -->
<g id="node13" class="node">
<title>Node13</title>
<g id="a_node13"><a xlink:href="_math_2_utils_8hpp.html" target="_top" xlink:title=" ">
<polygon fill="white" stroke="black" points="839,-224.5 839,-243.5 927,-243.5 927,-224.5 839,-224.5"/>
<text text-anchor="middle" x="883" y="-231.5" font-family="Helvetica,sans-Serif" font-size="10.00">Math/Utils.hpp</text>
</a>
</g>
</g>
<!-- Node9&#45;&gt;Node13 -->
<g id="edge13" class="edge">
<title>Node9&#45;&gt;Node13</title>
<path fill="none" stroke="midnightblue" d="M622.96,-280.44C678.99,-270.65 770.48,-254.66 828.67,-244.49"/>
<polygon fill="midnightblue" stroke="midnightblue" points="829.52,-247.9 838.77,-242.73 828.32,-241 829.52,-247.9"/>
</g>
<!-- Node14 -->
<g id="node14" class="node">
<title>Node14</title>
<g id="a_node14"><a xlink:href="_registry_8hpp.html" target="_top" xlink:title=" ">
<polygon fill="white" stroke="black" points="945,-224.5 945,-243.5 1043,-243.5 1043,-224.5 945,-224.5"/>
<text text-anchor="middle" x="994" y="-231.5" font-family="Helvetica,sans-Serif" font-size="10.00">ECS/Registry.hpp</text>
</a>
</g>
</g>
<!-- Node9&#45;&gt;Node14 -->
<g id="edge15" class="edge">
<title>Node9&#45;&gt;Node14</title>
<path fill="none" stroke="midnightblue" d="M647.92,-280.47C718.86,-272.14 829.26,-258.78 934.77,-244.14"/>
<polygon fill="midnightblue" stroke="midnightblue" points="935.55,-247.56 944.97,-242.72 934.58,-240.63 935.55,-247.56"/>
</g>
<!-- Node13&#45;&gt;Node10 -->
<g id="edge14" class="edge">
<title>Node13&#45;&gt;Node10</title>
<path fill="none" stroke="midnightblue" d="M841.64,-224.44C795.35,-214.86 720.38,-199.35 671.13,-189.16"/>
<polygon fill="midnightblue" stroke="midnightblue" points="671.53,-185.67 661.03,-187.08 670.11,-192.53 671.53,-185.67"/>
</g>
<!-- Node15 -->
<g id="node15" class="node">
<title>Node15</title>
<g id="a_node15"><a xlink:title=" ">
<polygon fill="white" stroke="#bfbfbf" points="1255,-112.5 1255,-131.5 1341,-131.5 1341,-112.5 1255,-112.5"/>
<text text-anchor="middle" x="1298" y="-119.5" font-family="Helvetica,sans-Serif" font-size="10.00">unordered_set</text>
</a>
</g>
</g>
<!-- Node14&#45;&gt;Node15 -->
<g id="edge16" class="edge">
<title>Node14&#45;&gt;Node15</title>
<path fill="none" stroke="midnightblue" d="M1043.41,-233.53C1095.96,-232.03 1179.9,-223.52 1242,-188 1261.73,-176.72 1277.83,-155.79 1287.62,-140.73"/>
<polygon fill="midnightblue" stroke="midnightblue" points="1290.84,-142.18 1293.12,-131.84 1284.89,-138.5 1290.84,-142.18"/>
</g>
<!-- Node16 -->
<g id="node16" class="node">
<title>Node16</title>
<g id="a_node16"><a xlink:href="_entity_8hpp.html" target="_top" xlink:title=" ">
<polygon fill="white" stroke="black" points="951,-56.5 951,-75.5 1037,-75.5 1037,-56.5 951,-56.5"/>
<text text-anchor="middle" x="994" y="-63.5" font-family="Helvetica,sans-Serif" font-size="10.00">ECS/Entity.hpp</text>
</a>
</g>
</g>
<!-- Node14&#45;&gt;Node16 -->
<g id="edge17" class="edge">
<title>Node14&#45;&gt;Node16</title>
<path fill="none" stroke="midnightblue" d="M994,-224.08C994,-197.95 994,-121.21 994,-85.58"/>
<polygon fill="midnightblue" stroke="midnightblue" points="997.5,-85.57 994,-75.57 990.5,-85.57 997.5,-85.57"/>
</g>
<!-- Node18 -->
<g id="node18" class="node">
<title>Node18</title>
<g id="a_node18"><a xlink:href="_entity_hierarchy_8hpp.html" target="_top" xlink:title=" ">
<polygon fill="white" stroke="black" points="1099,-168.5 1099,-187.5 1233,-187.5 1233,-168.5 1099,-168.5"/>
<text text-anchor="middle" x="1166" y="-175.5" font-family="Helvetica,sans-Serif" font-size="10.00">ECS/EntityHierarchy.hpp</text>
</a>
</g>
</g>
<!-- Node14&#45;&gt;Node18 -->
<g id="edge19" class="edge">
<title>Node14&#45;&gt;Node18</title>
<path fill="none" stroke="midnightblue" d="M1021.25,-224.44C1050.44,-215.28 1096.92,-200.69 1129.31,-190.52"/>
<polygon fill="midnightblue" stroke="midnightblue" points="1130.38,-193.85 1138.87,-187.52 1128.28,-187.17 1130.38,-193.85"/>
</g>
<!-- Node21 -->
<g id="node21" class="node">
<title>Node21</title>
<g id="a_node21"><a xlink:href="_entity_provider_8hpp.html" target="_top" xlink:title="Manages a pool of unused entity identifiers and provides mechanisms for requesting and removing them.">
<polygon fill="white" stroke="black" points="838,-112.5 838,-131.5 966,-131.5 966,-112.5 838,-112.5"/>
<text text-anchor="middle" x="902" y="-119.5" font-family="Helvetica,sans-Serif" font-size="10.00">ECS/EntityProvider.hpp</text>
</a>
</g>
</g>
<!-- Node14&#45;&gt;Node21 -->
<g id="edge24" class="edge">
<title>Node14&#45;&gt;Node21</title>
<path fill="none" stroke="midnightblue" d="M946.04,-224.43C908.49,-216.63 860.73,-203.92 849,-188 835.67,-169.9 857.68,-150 877.27,-137.05"/>
<polygon fill="midnightblue" stroke="midnightblue" points="879.33,-139.88 885.96,-131.61 875.62,-133.95 879.33,-139.88"/>
</g>
<!-- Node23 -->
<g id="node23" class="node">
<title>Node23</title>
<g id="a_node23"><a xlink:href="_sparse_set_8hpp.html" target="_top" xlink:title=" ">
<polygon fill="white" stroke="black" points="858,-168.5 858,-187.5 966,-187.5 966,-168.5 858,-168.5"/>
<text text-anchor="middle" x="912" y="-175.5" font-family="Helvetica,sans-Serif" font-size="10.00">ECS/SparseSet.hpp</text>
</a>
</g>
</g>
<!-- Node14&#45;&gt;Node23 -->
<g id="edge28" class="edge">
<title>Node14&#45;&gt;Node23</title>
<path fill="none" stroke="midnightblue" d="M980.83,-224.32C968.15,-215.98 948.77,-203.21 933.79,-193.35"/>
<polygon fill="midnightblue" stroke="midnightblue" points="935.42,-190.23 925.14,-187.65 931.57,-196.08 935.42,-190.23"/>
</g>
<!-- Node17 -->
<g id="node17" class="node">
<title>Node17</title>
<g id="a_node17"><a xlink:title=" ">
<polygon fill="white" stroke="#bfbfbf" points="898.5,-0.5 898.5,-19.5 951.5,-19.5 951.5,-0.5 898.5,-0.5"/>
<text text-anchor="middle" x="925" y="-7.5" font-family="Helvetica,sans-Serif" font-size="10.00">stdlib.h</text>
</a>
</g>
</g>
<!-- Node16&#45;&gt;Node17 -->
<g id="edge18" class="edge">
<title>Node16&#45;&gt;Node17</title>
<path fill="none" stroke="midnightblue" d="M982.91,-56.32C972.51,-48.18 956.74,-35.84 944.28,-26.09"/>
<polygon fill="midnightblue" stroke="midnightblue" points="946.32,-23.24 936.29,-19.83 942.01,-28.75 946.32,-23.24"/>
</g>
<!-- Node18&#45;&gt;Node15 -->
<g id="edge21" class="edge">
<title>Node18&#45;&gt;Node15</title>
<path fill="none" stroke="midnightblue" d="M1186.92,-168.44C1208.74,-159.52 1243.15,-145.44 1267.89,-135.32"/>
<polygon fill="midnightblue" stroke="midnightblue" points="1269.25,-138.54 1277.18,-131.52 1266.6,-132.06 1269.25,-138.54"/>
</g>
<!-- Node18&#45;&gt;Node16 -->
<g id="edge23" class="edge">
<title>Node18&#45;&gt;Node16</title>
<path fill="none" stroke="midnightblue" d="M1178.65,-168.39C1195.98,-155.56 1223.32,-130.88 1208,-112 1188.18,-87.58 1104.37,-75.92 1047.71,-70.73"/>
<polygon fill="midnightblue" stroke="midnightblue" points="1047.73,-67.22 1037.47,-69.84 1047.12,-74.19 1047.73,-67.22"/>
</g>
<!-- Node19 -->
<g id="node19" class="node">
<title>Node19</title>
<g id="a_node19"><a xlink:title=" ">
<polygon fill="white" stroke="#bfbfbf" points="1133.5,-112.5 1133.5,-131.5 1198.5,-131.5 1198.5,-112.5 1133.5,-112.5"/>
<text text-anchor="middle" x="1166" y="-119.5" font-family="Helvetica,sans-Serif" font-size="10.00">functional</text>
</a>
</g>
</g>
<!-- Node18&#45;&gt;Node19 -->
<g id="edge20" class="edge">
<title>Node18&#45;&gt;Node19</title>
<path fill="none" stroke="midnightblue" d="M1166,-168.08C1166,-161.01 1166,-150.86 1166,-141.99"/>
<polygon fill="midnightblue" stroke="midnightblue" points="1169.5,-141.75 1166,-131.75 1162.5,-141.75 1169.5,-141.75"/>
</g>
<!-- Node20 -->
<g id="node20" class="node">
<title>Node20</title>
<g id="a_node20"><a xlink:title=" ">
<polygon fill="white" stroke="#bfbfbf" points="1022.5,-112.5 1022.5,-131.5 1115.5,-131.5 1115.5,-112.5 1022.5,-112.5"/>
<text text-anchor="middle" x="1069" y="-119.5" font-family="Helvetica,sans-Serif" font-size="10.00">unordered_map</text>
</a>
</g>
</g>
<!-- Node18&#45;&gt;Node20 -->
<g id="edge22" class="edge">
<title>Node18&#45;&gt;Node20</title>
<path fill="none" stroke="midnightblue" d="M1150.42,-168.32C1135,-159.74 1111.19,-146.49 1093.29,-136.52"/>
<polygon fill="midnightblue" stroke="midnightblue" points="1094.99,-133.46 1084.55,-131.65 1091.58,-139.58 1094.99,-133.46"/>
</g>
<!-- Node21&#45;&gt;Node16 -->
<g id="edge27" class="edge">
<title>Node21&#45;&gt;Node16</title>
<path fill="none" stroke="midnightblue" d="M916.78,-112.32C931.27,-103.82 953.57,-90.73 970.49,-80.8"/>
<polygon fill="midnightblue" stroke="midnightblue" points="972.4,-83.74 979.26,-75.65 968.86,-77.7 972.4,-83.74"/>
</g>
<!-- Node21&#45;&gt;Node17 -->
<g id="edge25" class="edge">
<title>Node21&#45;&gt;Node17</title>
<path fill="none" stroke="midnightblue" d="M893.81,-112.09C883.27,-99.49 867.3,-75.81 876,-56 881.39,-43.73 891.96,-33.34 901.9,-25.65"/>
<polygon fill="midnightblue" stroke="midnightblue" points="904.25,-28.27 910.34,-19.6 900.17,-22.58 904.25,-28.27"/>
</g>
<!-- Node22 -->
<g id="node22" class="node">
<title>Node22</title>
<g id="a_node22"><a xlink:title=" ">
<polygon fill="white" stroke="#bfbfbf" points="885.5,-56.5 885.5,-75.5 932.5,-75.5 932.5,-56.5 885.5,-56.5"/>
<text text-anchor="middle" x="909" y="-63.5" font-family="Helvetica,sans-Serif" font-size="10.00">queue</text>
</a>
</g>
</g>
<!-- Node21&#45;&gt;Node22 -->
<g id="edge26" class="edge">
<title>Node21&#45;&gt;Node22</title>
<path fill="none" stroke="midnightblue" d="M903.16,-112.08C904.08,-104.93 905.42,-94.64 906.58,-85.69"/>
<polygon fill="midnightblue" stroke="midnightblue" points="910.05,-86.12 907.87,-75.75 903.11,-85.22 910.05,-86.12"/>
</g>
<!-- Node23&#45;&gt;Node21 -->
<g id="edge29" class="edge">
<title>Node23&#45;&gt;Node21</title>
<path fill="none" stroke="midnightblue" d="M910.35,-168.08C909.02,-160.93 907.12,-150.64 905.46,-141.69"/>
<polygon fill="midnightblue" stroke="midnightblue" points="908.88,-140.95 903.62,-131.75 902,-142.22 908.88,-140.95"/>
</g>
</g>
</svg>
