<?xml version="1.0" encoding="UTF-8" standalone="no"?>
<!DOCTYPE svg PUBLIC "-//W3C//DTD SVG 1.1//EN"
 "http://www.w3.org/Graphics/SVG/1.1/DTD/svg11.dtd">
<!-- Generated by graphviz version 2.43.0 (0)
 -->
<!-- Title: src/Systems/ObjectSelectionSystem.hpp Pages: 1 -->
<svg width="229pt" height="263pt"
 viewBox="0.00 0.00 228.50 263.00" xmlns="http://www.w3.org/2000/svg" xmlns:xlink="http://www.w3.org/1999/xlink">
<g id="graph0" class="graph" transform="scale(1 1) rotate(0) translate(4 259)">
<title>src/Systems/ObjectSelectionSystem.hpp</title>
<polygon fill="white" stroke="transparent" points="-4,4 -4,-259 224.5,-259 224.5,4 -4,4"/>
<!-- Node1 -->
<g id="node1" class="node">
<title>Node1</title>
<g id="a_node1"><a xlink:title=" ">
<polygon fill="#bfbfbf" stroke="black" points="0,-224.5 0,-254.5 155,-254.5 155,-224.5 0,-224.5"/>
<text text-anchor="start" x="8" y="-242.5" font-family="Helvetica,sans-Serif" font-size="10.00">src/Systems/ObjectSelection</text>
<text text-anchor="middle" x="77.5" y="-231.5" font-family="Helvetica,sans-Serif" font-size="10.00">System.hpp</text>
</a>
</g>
</g>
<!-- Node2 -->
<g id="node2" class="node">
<title>Node2</title>
<g id="a_node2"><a xlink:title=" ">
<polygon fill="white" stroke="#bfbfbf" points="0.5,-168.5 0.5,-187.5 58.5,-187.5 58.5,-168.5 0.5,-168.5"/>
<text text-anchor="middle" x="29.5" y="-175.5" font-family="Helvetica,sans-Serif" font-size="10.00">memory</text>
</a>
</g>
</g>
<!-- Node1&#45;&gt;Node2 -->
<g id="edge1" class="edge">
<title>Node1&#45;&gt;Node2</title>
<path fill="none" stroke="midnightblue" d="M66.12,-224.4C59.15,-215.75 50.19,-204.64 42.87,-195.58"/>
<polygon fill="midnightblue" stroke="midnightblue" points="45.49,-193.24 36.48,-187.66 40.04,-197.64 45.49,-193.24"/>
</g>
<!-- Node3 -->
<g id="node3" class="node">
<title>Node3</title>
<g id="a_node3"><a xlink:href="_registry_8hpp.html" target="_top" xlink:title=" ">
<polygon fill="white" stroke="black" points="76.5,-168.5 76.5,-187.5 174.5,-187.5 174.5,-168.5 76.5,-168.5"/>
<text text-anchor="middle" x="125.5" y="-175.5" font-family="Helvetica,sans-Serif" font-size="10.00">ECS/Registry.hpp</text>
</a>
</g>
</g>
<!-- Node1&#45;&gt;Node3 -->
<g id="edge2" class="edge">
<title>Node1&#45;&gt;Node3</title>
<path fill="none" stroke="midnightblue" d="M88.88,-224.4C95.85,-215.75 104.81,-204.64 112.13,-195.58"/>
<polygon fill="midnightblue" stroke="midnightblue" points="114.96,-197.64 118.52,-187.66 109.51,-193.24 114.96,-197.64"/>
</g>
<!-- Node4 -->
<g id="node4" class="node">
<title>Node4</title>
<g id="a_node4"><a xlink:href="_entity_provider_8hpp.html" target="_top" xlink:title="Manages a pool of unused entity identifiers and provides mechanisms for requesting and removing them.">
<polygon fill="white" stroke="black" points="61.5,-56.5 61.5,-75.5 189.5,-75.5 189.5,-56.5 61.5,-56.5"/>
<text text-anchor="middle" x="125.5" y="-63.5" font-family="Helvetica,sans-Serif" font-size="10.00">ECS/EntityProvider.hpp</text>
</a>
</g>
</g>
<!-- Node3&#45;&gt;Node4 -->
<g id="edge3" class="edge">
<title>Node3&#45;&gt;Node4</title>
<path fill="none" stroke="midnightblue" d="M119.29,-168.33C111.22,-156.01 98.72,-132.66 103.5,-112 105.73,-102.36 110.32,-92.41 114.74,-84.31"/>
<polygon fill="midnightblue" stroke="midnightblue" points="117.85,-85.92 119.86,-75.52 111.8,-82.4 117.85,-85.92"/>
</g>
<!-- Node7 -->
<g id="node7" class="node">
<title>Node7</title>
<g id="a_node7"><a xlink:href="_sparse_set_8hpp.html" target="_top" xlink:title=" ">
<polygon fill="white" stroke="black" points="112.5,-112.5 112.5,-131.5 220.5,-131.5 220.5,-112.5 112.5,-112.5"/>
<text text-anchor="middle" x="166.5" y="-119.5" font-family="Helvetica,sans-Serif" font-size="10.00">ECS/SparseSet.hpp</text>
</a>
</g>
</g>
<!-- Node3&#45;&gt;Node7 -->
<g id="edge6" class="edge">
<title>Node3&#45;&gt;Node7</title>
<path fill="none" stroke="midnightblue" d="M132.27,-168.08C138.06,-160.46 146.56,-149.26 153.64,-139.94"/>
<polygon fill="midnightblue" stroke="midnightblue" points="156.6,-141.83 159.86,-131.75 151.02,-137.6 156.6,-141.83"/>
</g>
<!-- Node5 -->
<g id="node5" class="node">
<title>Node5</title>
<g id="a_node5"><a xlink:title=" ">
<polygon fill="white" stroke="#bfbfbf" points="65,-0.5 65,-19.5 118,-19.5 118,-0.5 65,-0.5"/>
<text text-anchor="middle" x="91.5" y="-7.5" font-family="Helvetica,sans-Serif" font-size="10.00">stdlib.h</text>
</a>
</g>
</g>
<!-- Node4&#45;&gt;Node5 -->
<g id="edge4" class="edge">
<title>Node4&#45;&gt;Node5</title>
<path fill="none" stroke="midnightblue" d="M119.89,-56.08C115.13,-48.53 108.18,-37.49 102.35,-28.23"/>
<polygon fill="midnightblue" stroke="midnightblue" points="105.3,-26.35 97.01,-19.75 99.38,-30.08 105.3,-26.35"/>
</g>
<!-- Node6 -->
<g id="node6" class="node">
<title>Node6</title>
<g id="a_node6"><a xlink:title=" ">
<polygon fill="white" stroke="#bfbfbf" points="136,-0.5 136,-19.5 183,-19.5 183,-0.5 136,-0.5"/>
<text text-anchor="middle" x="159.5" y="-7.5" font-family="Helvetica,sans-Serif" font-size="10.00">queue</text>
</a>
</g>
</g>
<!-- Node4&#45;&gt;Node6 -->
<g id="edge5" class="edge">
<title>Node4&#45;&gt;Node6</title>
<path fill="none" stroke="midnightblue" d="M131.11,-56.08C135.87,-48.53 142.82,-37.49 148.65,-28.23"/>
<polygon fill="midnightblue" stroke="midnightblue" points="151.62,-30.08 153.99,-19.75 145.7,-26.35 151.62,-30.08"/>
</g>
<!-- Node7&#45;&gt;Node4 -->
<g id="edge7" class="edge">
<title>Node7&#45;&gt;Node4</title>
<path fill="none" stroke="midnightblue" d="M159.73,-112.08C153.94,-104.46 145.44,-93.26 138.36,-83.94"/>
<polygon fill="midnightblue" stroke="midnightblue" points="140.98,-81.6 132.14,-75.75 135.4,-85.83 140.98,-81.6"/>
</g>
</g>
</svg>
