<?xml version="1.0" encoding="UTF-8" standalone="no"?>
<!DOCTYPE svg PUBLIC "-//W3C//DTD SVG 1.1//EN"
 "http://www.w3.org/Graphics/SVG/1.1/DTD/svg11.dtd">
<!-- Generated by graphviz version 2.43.0 (0)
 -->
<!-- Title: src/Systems/ObjectSelectionSystem.hpp Pages: 1 -->
<svg width="508pt" height="319pt"
 viewBox="0.00 0.00 507.89 319.00" xmlns="http://www.w3.org/2000/svg" xmlns:xlink="http://www.w3.org/1999/xlink">
<g id="graph0" class="graph" transform="scale(1 1) rotate(0) translate(4 315)">
<title>src/Systems/ObjectSelectionSystem.hpp</title>
<polygon fill="white" stroke="transparent" points="-4,4 -4,-315 503.89,-315 503.89,4 -4,4"/>
<!-- Node1 -->
<g id="node1" class="node">
<title>Node1</title>
<g id="a_node1"><a xlink:title=" ">
<polygon fill="#bfbfbf" stroke="black" points="48.5,-280.5 48.5,-310.5 203.5,-310.5 203.5,-280.5 48.5,-280.5"/>
<text text-anchor="start" x="56.5" y="-298.5" font-family="Helvetica,sans-Serif" font-size="10.00">src/Systems/ObjectSelection</text>
<text text-anchor="middle" x="126" y="-287.5" font-family="Helvetica,sans-Serif" font-size="10.00">System.hpp</text>
</a>
</g>
</g>
<!-- Node2 -->
<g id="node2" class="node">
<title>Node2</title>
<g id="a_node2"><a xlink:title=" ">
<polygon fill="white" stroke="#bfbfbf" points="49,-224.5 49,-243.5 107,-243.5 107,-224.5 49,-224.5"/>
<text text-anchor="middle" x="78" y="-231.5" font-family="Helvetica,sans-Serif" font-size="10.00">memory</text>
</a>
</g>
</g>
<!-- Node1&#45;&gt;Node2 -->
<g id="edge1" class="edge">
<title>Node1&#45;&gt;Node2</title>
<path fill="none" stroke="midnightblue" d="M114.62,-280.4C107.65,-271.75 98.69,-260.64 91.37,-251.58"/>
<polygon fill="midnightblue" stroke="midnightblue" points="93.99,-249.24 84.98,-243.66 88.54,-253.64 93.99,-249.24"/>
</g>
<!-- Node3 -->
<g id="node3" class="node">
<title>Node3</title>
<g id="a_node3"><a xlink:href="_registry_8hpp.html" target="_top" xlink:title=" ">
<polygon fill="white" stroke="black" points="125,-224.5 125,-243.5 223,-243.5 223,-224.5 125,-224.5"/>
<text text-anchor="middle" x="174" y="-231.5" font-family="Helvetica,sans-Serif" font-size="10.00">ECS/Registry.hpp</text>
</a>
</g>
</g>
<!-- Node1&#45;&gt;Node3 -->
<g id="edge2" class="edge">
<title>Node1&#45;&gt;Node3</title>
<path fill="none" stroke="midnightblue" d="M137.38,-280.4C144.35,-271.75 153.31,-260.64 160.63,-251.58"/>
<polygon fill="midnightblue" stroke="midnightblue" points="163.46,-253.64 167.02,-243.66 158.01,-249.24 163.46,-253.64"/>
</g>
<!-- Node4 -->
<g id="node4" class="node">
<title>Node4</title>
<g id="a_node4"><a xlink:title=" ">
<polygon fill="white" stroke="#bfbfbf" points="202,-112.5 202,-131.5 288,-131.5 288,-112.5 202,-112.5"/>
<text text-anchor="middle" x="245" y="-119.5" font-family="Helvetica,sans-Serif" font-size="10.00">unordered_set</text>
</a>
</g>
</g>
<!-- Node3&#45;&gt;Node4 -->
<g id="edge3" class="edge">
<title>Node3&#45;&gt;Node4</title>
<path fill="none" stroke="midnightblue" d="M179.57,-224.37C191.24,-206.3 218.42,-164.18 233.83,-140.31"/>
<polygon fill="midnightblue" stroke="midnightblue" points="236.97,-141.89 239.45,-131.59 231.09,-138.1 236.97,-141.89"/>
</g>
<!-- Node5 -->
<g id="node5" class="node">
<title>Node5</title>
<g id="a_node5"><a xlink:href="_entity_8hpp.html" target="_top" xlink:title=" ">
<polygon fill="white" stroke="black" points="131,-56.5 131,-75.5 217,-75.5 217,-56.5 131,-56.5"/>
<text text-anchor="middle" x="174" y="-63.5" font-family="Helvetica,sans-Serif" font-size="10.00">ECS/Entity.hpp</text>
</a>
</g>
</g>
<!-- Node3&#45;&gt;Node5 -->
<g id="edge4" class="edge">
<title>Node3&#45;&gt;Node5</title>
<path fill="none" stroke="midnightblue" d="M174,-224.08C174,-197.95 174,-121.21 174,-85.58"/>
<polygon fill="midnightblue" stroke="midnightblue" points="177.5,-85.57 174,-75.57 170.5,-85.57 177.5,-85.57"/>
</g>
<!-- Node7 -->
<g id="node7" class="node">
<title>Node7</title>
<g id="a_node7"><a xlink:href="_entity_hierarchy_8hpp.html" target="_top" xlink:title=" ">
<polygon fill="white" stroke="black" points="272,-168.5 272,-187.5 406,-187.5 406,-168.5 272,-168.5"/>
<text text-anchor="middle" x="339" y="-175.5" font-family="Helvetica,sans-Serif" font-size="10.00">ECS/EntityHierarchy.hpp</text>
</a>
</g>
</g>
<!-- Node3&#45;&gt;Node7 -->
<g id="edge6" class="edge">
<title>Node3&#45;&gt;Node7</title>
<path fill="none" stroke="midnightblue" d="M200.14,-224.44C228.02,-215.32 272.35,-200.81 303.4,-190.65"/>
<polygon fill="midnightblue" stroke="midnightblue" points="304.56,-193.95 312.98,-187.52 302.38,-187.3 304.56,-193.95"/>
</g>
<!-- Node10 -->
<g id="node10" class="node">
<title>Node10</title>
<g id="a_node10"><a xlink:href="_entity_provider_8hpp.html" target="_top" xlink:title="Manages a pool of unused entity identifiers and provides mechanisms for requesting and removing them.">
<polygon fill="white" stroke="black" points="18,-112.5 18,-131.5 146,-131.5 146,-112.5 18,-112.5"/>
<text text-anchor="middle" x="82" y="-119.5" font-family="Helvetica,sans-Serif" font-size="10.00">ECS/EntityProvider.hpp</text>
</a>
</g>
</g>
<!-- Node3&#45;&gt;Node10 -->
<g id="edge11" class="edge">
<title>Node3&#45;&gt;Node10</title>
<path fill="none" stroke="midnightblue" d="M166.78,-224.37C151.46,-206.05 115.5,-163.05 95.68,-139.36"/>
<polygon fill="midnightblue" stroke="midnightblue" points="98.29,-137.02 89.19,-131.59 92.92,-141.51 98.29,-137.02"/>
</g>
<!-- Node12 -->
<g id="node12" class="node">
<title>Node12</title>
<g id="a_node12"><a xlink:href="_sparse_set_8hpp.html" target="_top" xlink:title=" ">
<polygon fill="white" stroke="black" points="0,-168.5 0,-187.5 108,-187.5 108,-168.5 0,-168.5"/>
<text text-anchor="middle" x="54" y="-175.5" font-family="Helvetica,sans-Serif" font-size="10.00">ECS/SparseSet.hpp</text>
</a>
</g>
</g>
<!-- Node3&#45;&gt;Node12 -->
<g id="edge15" class="edge">
<title>Node3&#45;&gt;Node12</title>
<path fill="none" stroke="midnightblue" d="M154.99,-224.44C135.41,-215.64 104.69,-201.81 82.27,-191.72"/>
<polygon fill="midnightblue" stroke="midnightblue" points="83.48,-188.43 72.93,-187.52 80.61,-194.81 83.48,-188.43"/>
</g>
<!-- Node6 -->
<g id="node6" class="node">
<title>Node6</title>
<g id="a_node6"><a xlink:title=" ">
<polygon fill="white" stroke="#bfbfbf" points="78.5,-0.5 78.5,-19.5 131.5,-19.5 131.5,-0.5 78.5,-0.5"/>
<text text-anchor="middle" x="105" y="-7.5" font-family="Helvetica,sans-Serif" font-size="10.00">stdlib.h</text>
</a>
</g>
</g>
<!-- Node5&#45;&gt;Node6 -->
<g id="edge5" class="edge">
<title>Node5&#45;&gt;Node6</title>
<path fill="none" stroke="midnightblue" d="M162.91,-56.32C152.51,-48.18 136.74,-35.84 124.28,-26.09"/>
<polygon fill="midnightblue" stroke="midnightblue" points="126.32,-23.24 116.29,-19.83 122.01,-28.75 126.32,-23.24"/>
</g>
<!-- Node7&#45;&gt;Node4 -->
<g id="edge8" class="edge">
<title>Node7&#45;&gt;Node4</title>
<path fill="none" stroke="midnightblue" d="M323.9,-168.32C309.1,-159.82 286.31,-146.73 269.02,-136.8"/>
<polygon fill="midnightblue" stroke="midnightblue" points="270.48,-133.6 260.07,-131.65 266.99,-139.67 270.48,-133.6"/>
</g>
<!-- Node7&#45;&gt;Node5 -->
<g id="edge10" class="edge">
<title>Node7&#45;&gt;Node5</title>
<path fill="none" stroke="midnightblue" d="M406.13,-170.29C459.66,-162.32 521.19,-145.61 492,-112 458.34,-73.24 308.6,-66.96 227.17,-66.48"/>
<polygon fill="midnightblue" stroke="midnightblue" points="227.12,-62.98 217.11,-66.45 227.1,-69.98 227.12,-62.98"/>
</g>
<!-- Node8 -->
<g id="node8" class="node">
<title>Node8</title>
<g id="a_node8"><a xlink:title=" ">
<polygon fill="white" stroke="#bfbfbf" points="306.5,-112.5 306.5,-131.5 371.5,-131.5 371.5,-112.5 306.5,-112.5"/>
<text text-anchor="middle" x="339" y="-119.5" font-family="Helvetica,sans-Serif" font-size="10.00">functional</text>
</a>
</g>
</g>
<!-- Node7&#45;&gt;Node8 -->
<g id="edge7" class="edge">
<title>Node7&#45;&gt;Node8</title>
<path fill="none" stroke="midnightblue" d="M339,-168.08C339,-161.01 339,-150.86 339,-141.99"/>
<polygon fill="midnightblue" stroke="midnightblue" points="342.5,-141.75 339,-131.75 335.5,-141.75 342.5,-141.75"/>
</g>
<!-- Node9 -->
<g id="node9" class="node">
<title>Node9</title>
<g id="a_node9"><a xlink:title=" ">
<polygon fill="white" stroke="#bfbfbf" points="389.5,-112.5 389.5,-131.5 482.5,-131.5 482.5,-112.5 389.5,-112.5"/>
<text text-anchor="middle" x="436" y="-119.5" font-family="Helvetica,sans-Serif" font-size="10.00">unordered_map</text>
</a>
</g>
</g>
<!-- Node7&#45;&gt;Node9 -->
<g id="edge9" class="edge">
<title>Node7&#45;&gt;Node9</title>
<path fill="none" stroke="midnightblue" d="M354.58,-168.32C370,-159.74 393.81,-146.49 411.71,-136.52"/>
<polygon fill="midnightblue" stroke="midnightblue" points="413.42,-139.58 420.45,-131.65 410.01,-133.46 413.42,-139.58"/>
</g>
<!-- Node10&#45;&gt;Node5 -->
<g id="edge14" class="edge">
<title>Node10&#45;&gt;Node5</title>
<path fill="none" stroke="midnightblue" d="M96.78,-112.32C111.27,-103.82 133.57,-90.73 150.49,-80.8"/>
<polygon fill="midnightblue" stroke="midnightblue" points="152.4,-83.74 159.26,-75.65 148.86,-77.7 152.4,-83.74"/>
</g>
<!-- Node10&#45;&gt;Node6 -->
<g id="edge12" class="edge">
<title>Node10&#45;&gt;Node6</title>
<path fill="none" stroke="midnightblue" d="M73.81,-112.09C63.27,-99.49 47.3,-75.81 56,-56 61.39,-43.73 71.96,-33.34 81.9,-25.65"/>
<polygon fill="midnightblue" stroke="midnightblue" points="84.25,-28.27 90.34,-19.6 80.17,-22.58 84.25,-28.27"/>
</g>
<!-- Node11 -->
<g id="node11" class="node">
<title>Node11</title>
<g id="a_node11"><a xlink:title=" ">
<polygon fill="white" stroke="#bfbfbf" points="65.5,-56.5 65.5,-75.5 112.5,-75.5 112.5,-56.5 65.5,-56.5"/>
<text text-anchor="middle" x="89" y="-63.5" font-family="Helvetica,sans-Serif" font-size="10.00">queue</text>
</a>
</g>
</g>
<!-- Node10&#45;&gt;Node11 -->
<g id="edge13" class="edge">
<title>Node10&#45;&gt;Node11</title>
<path fill="none" stroke="midnightblue" d="M83.16,-112.08C84.08,-104.93 85.42,-94.64 86.58,-85.69"/>
<polygon fill="midnightblue" stroke="midnightblue" points="90.05,-86.12 87.87,-75.75 83.11,-85.22 90.05,-86.12"/>
</g>
<!-- Node12&#45;&gt;Node10 -->
<g id="edge16" class="edge">
<title>Node12&#45;&gt;Node10</title>
<path fill="none" stroke="midnightblue" d="M58.62,-168.08C62.46,-160.69 68.02,-149.95 72.76,-140.81"/>
<polygon fill="midnightblue" stroke="midnightblue" points="75.97,-142.24 77.46,-131.75 69.75,-139.02 75.97,-142.24"/>
</g>
</g>
</svg>
