<?xml version="1.0" encoding="UTF-8" standalone="no"?>
<!DOCTYPE svg PUBLIC "-//W3C//DTD SVG 1.1//EN"
 "http://www.w3.org/Graphics/SVG/1.1/DTD/svg11.dtd">
<!-- Generated by graphviz version 2.43.0 (0)
 -->
<!-- Title: src/Components/OverlayModelComponent.hpp Pages: 1 -->
<svg width="1278pt" height="423pt"
 viewBox="0.00 0.00 1277.89 423.00" xmlns="http://www.w3.org/2000/svg" xmlns:xlink="http://www.w3.org/1999/xlink">
<g id="graph0" class="graph" transform="scale(1 1) rotate(0) translate(4 419)">
<title>src/Components/OverlayModelComponent.hpp</title>
<!-- Node1 -->
<g id="Node000001" class="node">
<title>Node1</title>
<g id="a_Node000001"><a xlink:title=" ">
<polygon fill="#999999" stroke="#666666" points="600.5,-415 433.5,-415 433.5,-385 600.5,-385 600.5,-415"/>
<text text-anchor="start" x="441.5" y="-403" font-family="Helvetica,sans-Serif" font-size="10.00">src/Components/OverlayModel</text>
<text text-anchor="middle" x="517" y="-392" font-family="Helvetica,sans-Serif" font-size="10.00">Component.hpp</text>
</a>
</g>
</g>
<!-- Node2 -->
<g id="Node000002" class="node">
<title>Node2</title>
<g id="a_Node000002"><a xlink:title=" ">
<polygon fill="#e0e0e0" stroke="#999999" points="222,-349 162,-349 162,-330 222,-330 222,-349"/>
<text text-anchor="middle" x="192" y="-337" font-family="Helvetica,sans-Serif" font-size="10.00">iostream</text>
</a>
</g>
</g>
<!-- Node1&#45;&gt;Node2 -->
<g id="edge1_Node000001_Node000002" class="edge">
<title>Node1&#45;&gt;Node2</title>
<g id="a_edge1_Node000001_Node000002"><a xlink:title=" ">
<path fill="none" stroke="#63b8ff" d="M436.39,-384.98C380.19,-375.13 303.48,-361.52 236,-349 234.75,-348.77 233.48,-348.53 232.21,-348.29"/>
<polygon fill="#63b8ff" stroke="#63b8ff" points="232.76,-344.84 222.29,-346.41 231.46,-351.71 232.76,-344.84"/>
</a>
</g>
</g>
<!-- Node3 -->
<g id="Node000003" class="node">
<title>Node3</title>
<g id="a_Node000003"><a xlink:title=" ">
<polygon fill="#e0e0e0" stroke="#999999" points="272,-184 228,-184 228,-165 272,-165 272,-184"/>
<text text-anchor="middle" x="250" y="-172" font-family="Helvetica,sans-Serif" font-size="10.00">string</text>
</a>
</g>
</g>
<!-- Node1&#45;&gt;Node3 -->
<g id="edge2_Node000001_Node000003" class="edge">
<title>Node1&#45;&gt;Node3</title>
<g id="a_edge2_Node000001_Node000003"><a xlink:title=" ">
<path fill="none" stroke="#63b8ff" d="M433.47,-385.16C378.25,-371.52 308.94,-344.97 269,-294 246.27,-264.99 245.88,-219.48 247.81,-194.14"/>
<polygon fill="#63b8ff" stroke="#63b8ff" points="251.31,-194.33 248.79,-184.04 244.34,-193.66 251.31,-194.33"/>
</a>
</g>
</g>
<!-- Node4 -->
<g id="Node000004" class="node">
<title>Node4</title>
<g id="a_Node000004"><a xlink:href="_material_8hpp.html" target="_top" xlink:title=" ">
<polygon fill="white" stroke="#666666" points="777.5,-349 626.5,-349 626.5,-330 777.5,-330 777.5,-349"/>
<text text-anchor="middle" x="702" y="-337" font-family="Helvetica,sans-Serif" font-size="10.00">AssetManager/Material.hpp</text>
</a>
</g>
</g>
<!-- Node1&#45;&gt;Node4 -->
<g id="edge3_Node000001_Node000004" class="edge">
<title>Node1&#45;&gt;Node4</title>
<g id="a_edge3_Node000001_Node000004"><a xlink:title=" ">
<path fill="none" stroke="#63b8ff" d="M561.31,-384.99C593.1,-374.94 635.42,-361.55 665.32,-352.1"/>
<polygon fill="#63b8ff" stroke="#63b8ff" points="666.47,-355.41 674.95,-349.05 664.36,-348.73 666.47,-355.41"/>
</a>
</g>
</g>
<!-- Node31 -->
<g id="Node000031" class="node">
<title>Node31</title>
<g id="a_Node000031"><a xlink:href="_mesh_8hpp.html" target="_top" xlink:title=" ">
<polygon fill="white" stroke="#666666" points="1109.5,-349 972.5,-349 972.5,-330 1109.5,-330 1109.5,-349"/>
<text text-anchor="middle" x="1041" y="-337" font-family="Helvetica,sans-Serif" font-size="10.00">AssetManager/Mesh.hpp</text>
</a>
</g>
</g>
<!-- Node1&#45;&gt;Node31 -->
<g id="edge40_Node000001_Node000031" class="edge">
<title>Node1&#45;&gt;Node31</title>
<g id="a_edge40_Node000001_Node000031"><a xlink:title=" ">
<path fill="none" stroke="#63b8ff" d="M600.61,-389.67C700.1,-378.56 864.94,-360.16 962.24,-349.29"/>
<polygon fill="#63b8ff" stroke="#63b8ff" points="962.76,-352.76 972.31,-348.17 961.99,-345.8 962.76,-352.76"/>
</a>
</g>
</g>
<!-- Node35 -->
<g id="Node000035" class="node">
<title>Node35</title>
<g id="a_Node000035"><a xlink:href="_base_component_8hpp.html" target="_top" xlink:title=" ">
<polygon fill="white" stroke="#666666" points="608,-349 426,-349 426,-330 608,-330 608,-349"/>
<text text-anchor="middle" x="517" y="-337" font-family="Helvetica,sans-Serif" font-size="10.00">Components/BaseComponent.hpp</text>
</a>
</g>
</g>
<!-- Node1&#45;&gt;Node35 -->
<g id="edge50_Node000001_Node000035" class="edge">
<title>Node1&#45;&gt;Node35</title>
<g id="a_edge50_Node000001_Node000035"><a xlink:title=" ">
<path fill="none" stroke="#63b8ff" d="M517,-384.84C517,-377.21 517,-367.7 517,-359.45"/>
<polygon fill="#63b8ff" stroke="#63b8ff" points="520.5,-359.27 517,-349.27 513.5,-359.27 520.5,-359.27"/>
</a>
</g>
</g>
<!-- Node5 -->
<g id="Node000005" class="node">
<title>Node5</title>
<g id="a_Node000005"><a xlink:href="_asset_8hpp.html" target="_top" xlink:title=" ">
<polygon fill="white" stroke="#666666" points="770.5,-294 633.5,-294 633.5,-275 770.5,-275 770.5,-294"/>
<text text-anchor="middle" x="702" y="-282" font-family="Helvetica,sans-Serif" font-size="10.00">AssetManager/Asset.hpp</text>
</a>
</g>
</g>
<!-- Node4&#45;&gt;Node5 -->
<g id="edge4_Node000004_Node000005" class="edge">
<title>Node4&#45;&gt;Node5</title>
<g id="a_edge4_Node000004_Node000005"><a xlink:title=" ">
<path fill="none" stroke="#63b8ff" d="M702,-329.75C702,-322.8 702,-312.85 702,-304.13"/>
<polygon fill="#63b8ff" stroke="#63b8ff" points="705.5,-304.09 702,-294.09 698.5,-304.09 705.5,-304.09"/>
</a>
</g>
</g>
<!-- Node21 -->
<g id="Node000021" class="node">
<title>Node21</title>
<g id="a_Node000021"><a xlink:href="_texture_8hpp.html" target="_top" xlink:title=" ">
<polygon fill="white" stroke="#666666" points="936,-294 790,-294 790,-275 936,-275 936,-294"/>
<text text-anchor="middle" x="863" y="-282" font-family="Helvetica,sans-Serif" font-size="10.00">AssetManager/Texture.hpp</text>
</a>
</g>
</g>
<!-- Node4&#45;&gt;Node21 -->
<g id="edge26_Node000004_Node000021" class="edge">
<title>Node4&#45;&gt;Node21</title>
<g id="a_edge26_Node000004_Node000021"><a xlink:title=" ">
<path fill="none" stroke="#63b8ff" d="M727.87,-329.98C754.78,-321.13 797.12,-307.19 827.23,-297.28"/>
<polygon fill="#63b8ff" stroke="#63b8ff" points="828.53,-300.53 836.93,-294.08 826.34,-293.88 828.53,-300.53"/>
</a>
</g>
</g>
<!-- Node24 -->
<g id="Node000024" class="node">
<title>Node24</title>
<g id="a_Node000024"><a xlink:title=" ">
<polygon fill="#e0e0e0" stroke="#999999" points="1184,-184 1106,-184 1106,-165 1184,-165 1184,-184"/>
<text text-anchor="middle" x="1145" y="-172" font-family="Helvetica,sans-Serif" font-size="10.00">glm/glm.hpp</text>
</a>
</g>
</g>
<!-- Node4&#45;&gt;Node24 -->
<g id="edge39_Node000004_Node000024" class="edge">
<title>Node4&#45;&gt;Node24</title>
<g id="a_edge39_Node000004_Node000024"><a xlink:title=" ">
<path fill="none" stroke="#63b8ff" d="M777.74,-331.6C826.64,-325.47 890.97,-314.21 945,-294 1016.13,-267.39 1090.76,-215.87 1125.31,-190.44"/>
<polygon fill="#63b8ff" stroke="#63b8ff" points="1127.64,-193.06 1133.58,-184.28 1123.46,-187.45 1127.64,-193.06"/>
</a>
</g>
</g>
<!-- Node25 -->
<g id="Node000025" class="node">
<title>Node25</title>
<g id="a_Node000025"><a xlink:href="_instance_counter_8hpp.html" target="_top" xlink:title=" ">
<polygon fill="white" stroke="#666666" points="442,-294 278,-294 278,-275 442,-275 442,-294"/>
<text text-anchor="middle" x="360" y="-282" font-family="Helvetica,sans-Serif" font-size="10.00">Common/InstanceCounter.hpp</text>
</a>
</g>
</g>
<!-- Node4&#45;&gt;Node25 -->
<g id="edge31_Node000004_Node000025" class="edge">
<title>Node4&#45;&gt;Node25</title>
<g id="a_edge31_Node000004_Node000025"><a xlink:title=" ">
<path fill="none" stroke="#63b8ff" d="M647.05,-329.98C586.56,-320.61 489.39,-305.55 425.12,-295.59"/>
<polygon fill="#63b8ff" stroke="#63b8ff" points="425.51,-292.11 415.1,-294.04 424.44,-299.03 425.51,-292.11"/>
</a>
</g>
</g>
<!-- Node6 -->
<g id="Node000006" class="node">
<title>Node6</title>
<g id="a_Node000006"><a xlink:href="_registry_8hpp.html" target="_top" xlink:title=" ">
<polygon fill="white" stroke="#666666" points="649,-239 551,-239 551,-220 649,-220 649,-239"/>
<text text-anchor="middle" x="600" y="-227" font-family="Helvetica,sans-Serif" font-size="10.00">ECS/Registry.hpp</text>
</a>
</g>
</g>
<!-- Node5&#45;&gt;Node6 -->
<g id="edge5_Node000005_Node000006" class="edge">
<title>Node5&#45;&gt;Node6</title>
<g id="a_edge5_Node000005_Node000006"><a xlink:title=" ">
<path fill="none" stroke="#63b8ff" d="M685.61,-274.98C669.43,-266.57 644.43,-253.59 625.62,-243.81"/>
<polygon fill="#63b8ff" stroke="#63b8ff" points="627.17,-240.68 616.69,-239.17 623.95,-246.89 627.17,-240.68"/>
</a>
</g>
</g>
<!-- Node20 -->
<g id="Node000020" class="node">
<title>Node20</title>
<g id="a_Node000020"><a xlink:title=" ">
<polygon fill="#e0e0e0" stroke="#999999" points="1066,-184 998,-184 998,-165 1066,-165 1066,-184"/>
<text text-anchor="middle" x="1032" y="-172" font-family="Helvetica,sans-Serif" font-size="10.00">filesystem</text>
</a>
</g>
</g>
<!-- Node5&#45;&gt;Node20 -->
<g id="edge25_Node000005_Node000020" class="edge">
<title>Node5&#45;&gt;Node20</title>
<g id="a_edge25_Node000005_Node000020"><a xlink:title=" ">
<path fill="none" stroke="#63b8ff" d="M703.83,-274.85C707.28,-260.84 716.16,-233.38 735,-220 826.16,-155.25 873.6,-201.75 984,-184 985.27,-183.8 986.56,-183.59 987.86,-183.37"/>
<polygon fill="#63b8ff" stroke="#63b8ff" points="988.66,-186.79 997.93,-181.67 987.49,-179.88 988.66,-186.79"/>
</a>
</g>
</g>
<!-- Node7 -->
<g id="Node000007" class="node">
<title>Node7</title>
<g id="a_Node000007"><a xlink:title=" ">
<polygon fill="#e0e0e0" stroke="#999999" points="625,-129 539,-129 539,-110 625,-110 625,-129"/>
<text text-anchor="middle" x="582" y="-117" font-family="Helvetica,sans-Serif" font-size="10.00">unordered_set</text>
</a>
</g>
</g>
<!-- Node6&#45;&gt;Node7 -->
<g id="edge6_Node000006_Node000007" class="edge">
<title>Node6&#45;&gt;Node7</title>
<g id="a_edge6_Node000006_Node000007"><a xlink:title=" ">
<path fill="none" stroke="#63b8ff" d="M598.53,-219.66C595.61,-202.17 589.05,-162.8 585.13,-139.27"/>
<polygon fill="#63b8ff" stroke="#63b8ff" points="588.54,-138.45 583.44,-129.16 581.63,-139.6 588.54,-138.45"/>
</a>
</g>
</g>
<!-- Node8 -->
<g id="Node000008" class="node">
<title>Node8</title>
<g id="a_Node000008"><a xlink:href="_logger_8hpp.html" target="_top" xlink:title=" ">
<polygon fill="white" stroke="#666666" points="407.5,-184 290.5,-184 290.5,-165 407.5,-165 407.5,-184"/>
<text text-anchor="middle" x="349" y="-172" font-family="Helvetica,sans-Serif" font-size="10.00">Common/Logger.hpp</text>
</a>
</g>
</g>
<!-- Node6&#45;&gt;Node8 -->
<g id="edge7_Node000006_Node000008" class="edge">
<title>Node6&#45;&gt;Node8</title>
<g id="a_edge7_Node000006_Node000008"><a xlink:title=" ">
<path fill="none" stroke="#63b8ff" d="M559.67,-219.98C516.16,-210.8 446.8,-196.15 399.65,-186.19"/>
<polygon fill="#63b8ff" stroke="#63b8ff" points="400.15,-182.72 389.64,-184.08 398.7,-189.57 400.15,-182.72"/>
</a>
</g>
</g>
<!-- Node11 -->
<g id="Node000011" class="node">
<title>Node11</title>
<g id="a_Node000011"><a xlink:href="_entity_8hpp.html" target="_top" xlink:title=" ">
<polygon fill="white" stroke="#666666" points="725,-74 639,-74 639,-55 725,-55 725,-74"/>
<text text-anchor="middle" x="682" y="-62" font-family="Helvetica,sans-Serif" font-size="10.00">ECS/Entity.hpp</text>
</a>
</g>
</g>
<!-- Node6&#45;&gt;Node11 -->
<g id="edge10_Node000006_Node000011" class="edge">
<title>Node6&#45;&gt;Node11</title>
<g id="a_edge10_Node000006_Node000011"><a xlink:title=" ">
<path fill="none" stroke="#63b8ff" d="M649.14,-220.69C650.78,-220.45 652.4,-220.22 654,-220 719.85,-210.83 906.91,-233.76 951,-184 965.84,-167.26 958.3,-130.32 936,-110 907.3,-83.85 800.87,-72.7 735.23,-68.24"/>
<polygon fill="#63b8ff" stroke="#63b8ff" points="735.27,-64.73 725.06,-67.58 734.81,-71.72 735.27,-64.73"/>
</a>
</g>
</g>
<!-- Node13 -->
<g id="Node000013" class="node">
<title>Node13</title>
<g id="a_Node000013"><a xlink:href="_entity_hierarchy_8hpp.html" target="_top" xlink:title=" ">
<polygon fill="white" stroke="#666666" points="762,-184 628,-184 628,-165 762,-165 762,-184"/>
<text text-anchor="middle" x="695" y="-172" font-family="Helvetica,sans-Serif" font-size="10.00">ECS/EntityHierarchy.hpp</text>
</a>
</g>
</g>
<!-- Node6&#45;&gt;Node13 -->
<g id="edge12_Node000006_Node000013" class="edge">
<title>Node6&#45;&gt;Node13</title>
<g id="a_edge12_Node000006_Node000013"><a xlink:title=" ">
<path fill="none" stroke="#63b8ff" d="M615.26,-219.98C630.13,-211.69 652.98,-198.94 670.42,-189.22"/>
<polygon fill="#63b8ff" stroke="#63b8ff" points="672.43,-192.1 679.46,-184.17 669.02,-185.99 672.43,-192.1"/>
</a>
</g>
</g>
<!-- Node17 -->
<g id="Node000017" class="node">
<title>Node17</title>
<g id="a_Node000017"><a xlink:href="_entity_provider_8hpp.html" target="_top" xlink:title="Manages a pool of unused entity identifiers and provides mechanisms for requesting and removing them.">
<polygon fill="white" stroke="#666666" points="521,-129 393,-129 393,-110 521,-110 521,-129"/>
<text text-anchor="middle" x="457" y="-117" font-family="Helvetica,sans-Serif" font-size="10.00">ECS/EntityProvider.hpp</text>
</a>
</g>
</g>
<!-- Node6&#45;&gt;Node17 -->
<g id="edge18_Node000006_Node000017" class="edge">
<title>Node6&#45;&gt;Node17</title>
<g id="a_edge18_Node000006_Node000017"><a xlink:title=" ">
<path fill="none" stroke="#63b8ff" d="M551.29,-219.94C513.87,-212.26 466.66,-199.78 455,-184 445.58,-171.26 447.36,-152.83 450.74,-139.11"/>
<polygon fill="#63b8ff" stroke="#63b8ff" points="454.16,-139.88 453.6,-129.3 447.44,-137.92 454.16,-139.88"/>
</a>
</g>
</g>
<!-- Node18 -->
<g id="Node000018" class="node">
<title>Node18</title>
<g id="a_Node000018"><a xlink:href="_singleton_component_8hpp.html" target="_top" xlink:title=" ">
<polygon fill="white" stroke="#666666" points="941.5,-184 780.5,-184 780.5,-165 941.5,-165 941.5,-184"/>
<text text-anchor="middle" x="861" y="-172" font-family="Helvetica,sans-Serif" font-size="10.00">ECS/SingletonComponent.hpp</text>
</a>
</g>
</g>
<!-- Node6&#45;&gt;Node18 -->
<g id="edge22_Node000006_Node000018" class="edge">
<title>Node6&#45;&gt;Node18</title>
<g id="a_edge22_Node000006_Node000018"><a xlink:title=" ">
<path fill="none" stroke="#63b8ff" d="M641.93,-219.98C687.27,-210.78 759.61,-196.09 808.65,-186.13"/>
<polygon fill="#63b8ff" stroke="#63b8ff" points="809.63,-189.5 818.74,-184.08 808.24,-182.64 809.63,-189.5"/>
</a>
</g>
</g>
<!-- Node19 -->
<g id="Node000019" class="node">
<title>Node19</title>
<g id="a_Node000019"><a xlink:href="_sparse_set_8hpp.html" target="_top" xlink:title=" ">
<polygon fill="white" stroke="#666666" points="572,-184 464,-184 464,-165 572,-165 572,-184"/>
<text text-anchor="middle" x="518" y="-172" font-family="Helvetica,sans-Serif" font-size="10.00">ECS/SparseSet.hpp</text>
</a>
</g>
</g>
<!-- Node6&#45;&gt;Node19 -->
<g id="edge23_Node000006_Node000019" class="edge">
<title>Node6&#45;&gt;Node19</title>
<g id="a_edge23_Node000006_Node000019"><a xlink:title=" ">
<path fill="none" stroke="#63b8ff" d="M586.83,-219.98C574.23,-211.84 555,-199.41 540.06,-189.76"/>
<polygon fill="#63b8ff" stroke="#63b8ff" points="541.71,-186.66 531.41,-184.17 537.91,-192.54 541.71,-186.66"/>
</a>
</g>
</g>
<!-- Node9 -->
<g id="Node000009" class="node">
<title>Node9</title>
<g id="a_Node000009"><a xlink:title=" ">
<polygon fill="#e0e0e0" stroke="#999999" points="206,-129 158,-129 158,-110 206,-110 206,-129"/>
<text text-anchor="middle" x="182" y="-117" font-family="Helvetica,sans-Serif" font-size="10.00">mutex</text>
</a>
</g>
</g>
<!-- Node8&#45;&gt;Node9 -->
<g id="edge8_Node000008_Node000009" class="edge">
<title>Node8&#45;&gt;Node9</title>
<g id="a_edge8_Node000008_Node000009"><a xlink:title=" ">
<path fill="none" stroke="#63b8ff" d="M322.17,-164.98C293.22,-155.8 247.05,-141.15 215.68,-131.19"/>
<polygon fill="#63b8ff" stroke="#63b8ff" points="216.65,-127.82 206.05,-128.13 214.53,-134.5 216.65,-127.82"/>
</a>
</g>
</g>
<!-- Node10 -->
<g id="Node000010" class="node">
<title>Node10</title>
<g id="a_Node000010"><a xlink:title=" ">
<polygon fill="#e0e0e0" stroke="#999999" points="444.5,-74 397.5,-74 397.5,-55 444.5,-55 444.5,-74"/>
<text text-anchor="middle" x="421" y="-62" font-family="Helvetica,sans-Serif" font-size="10.00">queue</text>
</a>
</g>
</g>
<!-- Node8&#45;&gt;Node10 -->
<g id="edge9_Node000008_Node000010" class="edge">
<title>Node8&#45;&gt;Node10</title>
<g id="a_edge9_Node000008_Node000010"><a xlink:title=" ">
<path fill="none" stroke="#63b8ff" d="M353.05,-164.98C359.11,-152.51 371.23,-128.72 384,-110 390.64,-100.27 398.96,-90.11 406.03,-81.97"/>
<polygon fill="#63b8ff" stroke="#63b8ff" points="408.81,-84.11 412.82,-74.31 403.57,-79.47 408.81,-84.11"/>
</a>
</g>
</g>
<!-- Node12 -->
<g id="Node000012" class="node">
<title>Node12</title>
<g id="a_Node000012"><a xlink:title=" ">
<polygon fill="#e0e0e0" stroke="#999999" points="554.5,-19 501.5,-19 501.5,0 554.5,0 554.5,-19"/>
<text text-anchor="middle" x="528" y="-7" font-family="Helvetica,sans-Serif" font-size="10.00">stdlib.h</text>
</a>
</g>
</g>
<!-- Node11&#45;&gt;Node12 -->
<g id="edge11_Node000011_Node000012" class="edge">
<title>Node11&#45;&gt;Node12</title>
<g id="a_edge11_Node000011_Node000012"><a xlink:title=" ">
<path fill="none" stroke="#63b8ff" d="M657.26,-54.98C631.63,-46.16 591.37,-32.31 562.59,-22.41"/>
<polygon fill="#63b8ff" stroke="#63b8ff" points="563.53,-19.03 552.94,-19.08 561.25,-25.65 563.53,-19.03"/>
</a>
</g>
</g>
<!-- Node13&#45;&gt;Node7 -->
<g id="edge16_Node000013_Node000007" class="edge">
<title>Node13&#45;&gt;Node7</title>
<g id="a_edge16_Node000013_Node000007"><a xlink:title=" ">
<path fill="none" stroke="#63b8ff" d="M676.84,-164.98C658.75,-156.5 630.72,-143.35 609.81,-133.54"/>
<polygon fill="#63b8ff" stroke="#63b8ff" points="611.03,-130.25 600.49,-129.17 608.05,-136.59 611.03,-130.25"/>
</a>
</g>
</g>
<!-- Node13&#45;&gt;Node11 -->
<g id="edge17_Node000013_Node000011" class="edge">
<title>Node13&#45;&gt;Node11</title>
<g id="a_edge17_Node000013_Node000011"><a xlink:title=" ">
<path fill="none" stroke="#63b8ff" d="M710.85,-164.84C729.74,-153.3 757.4,-131.8 746,-110 738.89,-96.39 725.51,-86.1 712.81,-78.87"/>
<polygon fill="#63b8ff" stroke="#63b8ff" points="714.27,-75.68 703.79,-74.13 711.02,-81.88 714.27,-75.68"/>
</a>
</g>
</g>
<!-- Node14 -->
<g id="Node000014" class="node">
<title>Node14</title>
<g id="a_Node000014"><a xlink:title=" ">
<polygon fill="#e0e0e0" stroke="#999999" points="858.5,-129 793.5,-129 793.5,-110 858.5,-110 858.5,-129"/>
<text text-anchor="middle" x="826" y="-117" font-family="Helvetica,sans-Serif" font-size="10.00">functional</text>
</a>
</g>
</g>
<!-- Node13&#45;&gt;Node14 -->
<g id="edge13_Node000013_Node000014" class="edge">
<title>Node13&#45;&gt;Node14</title>
<g id="a_edge13_Node000013_Node000014"><a xlink:title=" ">
<path fill="none" stroke="#63b8ff" d="M716.05,-164.98C737.41,-156.34 770.7,-142.87 795.06,-133.02"/>
<polygon fill="#63b8ff" stroke="#63b8ff" points="796.61,-136.17 804.57,-129.17 793.99,-129.68 796.61,-136.17"/>
</a>
</g>
</g>
<!-- Node15 -->
<g id="Node000015" class="node">
<title>Node15</title>
<g id="a_Node000015"><a xlink:title=" ">
<polygon fill="#e0e0e0" stroke="#999999" points="927,-129 877,-129 877,-110 927,-110 927,-129"/>
<text text-anchor="middle" x="902" y="-117" font-family="Helvetica,sans-Serif" font-size="10.00">ranges</text>
</a>
</g>
</g>
<!-- Node13&#45;&gt;Node15 -->
<g id="edge14_Node000013_Node000015" class="edge">
<title>Node13&#45;&gt;Node15</title>
<g id="a_edge14_Node000013_Node000015"><a xlink:title=" ">
<path fill="none" stroke="#63b8ff" d="M728.26,-164.98C766.34,-155.23 828.45,-139.33 867.17,-129.42"/>
<polygon fill="#63b8ff" stroke="#63b8ff" points="868.14,-132.78 876.96,-126.91 866.41,-126 868.14,-132.78"/>
</a>
</g>
</g>
<!-- Node16 -->
<g id="Node000016" class="node">
<title>Node16</title>
<g id="a_Node000016"><a xlink:title=" ">
<polygon fill="#e0e0e0" stroke="#999999" points="736.5,-129 643.5,-129 643.5,-110 736.5,-110 736.5,-129"/>
<text text-anchor="middle" x="690" y="-117" font-family="Helvetica,sans-Serif" font-size="10.00">unordered_map</text>
</a>
</g>
</g>
<!-- Node13&#45;&gt;Node16 -->
<g id="edge15_Node000013_Node000016" class="edge">
<title>Node13&#45;&gt;Node16</title>
<g id="a_edge15_Node000013_Node000016"><a xlink:title=" ">
<path fill="none" stroke="#63b8ff" d="M694.17,-164.75C693.52,-157.8 692.58,-147.85 691.76,-139.13"/>
<polygon fill="#63b8ff" stroke="#63b8ff" points="695.23,-138.72 690.81,-129.09 688.27,-139.37 695.23,-138.72"/>
</a>
</g>
</g>
<!-- Node17&#45;&gt;Node10 -->
<g id="edge20_Node000017_Node000010" class="edge">
<title>Node17&#45;&gt;Node10</title>
<g id="a_edge20_Node000017_Node000010"><a xlink:title=" ">
<path fill="none" stroke="#63b8ff" d="M451.06,-109.75C446.02,-102.34 438.66,-91.5 432.49,-82.41"/>
<polygon fill="#63b8ff" stroke="#63b8ff" points="435.35,-80.39 426.83,-74.09 429.56,-84.33 435.35,-80.39"/>
</a>
</g>
</g>
<!-- Node17&#45;&gt;Node11 -->
<g id="edge21_Node000017_Node000011" class="edge">
<title>Node17&#45;&gt;Node11</title>
<g id="a_edge21_Node000017_Node000011"><a xlink:title=" ">
<path fill="none" stroke="#63b8ff" d="M493.15,-109.98C531.91,-100.86 593.55,-86.33 635.8,-76.38"/>
<polygon fill="#63b8ff" stroke="#63b8ff" points="636.64,-79.78 645.57,-74.08 635.03,-72.97 636.64,-79.78"/>
</a>
</g>
</g>
<!-- Node17&#45;&gt;Node12 -->
<g id="edge19_Node000017_Node000012" class="edge">
<title>Node17&#45;&gt;Node12</title>
<g id="a_edge19_Node000017_Node000012"><a xlink:title=" ">
<path fill="none" stroke="#63b8ff" d="M462.81,-109.66C474.57,-91.77 501.37,-51 516.7,-27.69"/>
<polygon fill="#63b8ff" stroke="#63b8ff" points="519.74,-29.44 522.31,-19.16 513.89,-25.59 519.74,-29.44"/>
</a>
</g>
</g>
<!-- Node19&#45;&gt;Node17 -->
<g id="edge24_Node000019_Node000017" class="edge">
<title>Node19&#45;&gt;Node17</title>
<g id="a_edge24_Node000019_Node000017"><a xlink:title=" ">
<path fill="none" stroke="#63b8ff" d="M508.2,-164.98C499.18,-157.15 485.59,-145.34 474.68,-135.86"/>
<polygon fill="#63b8ff" stroke="#63b8ff" points="476.82,-133.09 466.98,-129.17 472.23,-138.37 476.82,-133.09"/>
</a>
</g>
</g>
<!-- Node22 -->
<g id="Node000022" class="node">
<title>Node22</title>
<g id="a_Node000022"><a xlink:title=" ">
<polygon fill="#e0e0e0" stroke="#999999" points="1012.5,-239 941.5,-239 941.5,-220 1012.5,-220 1012.5,-239"/>
<text text-anchor="middle" x="977" y="-227" font-family="Helvetica,sans-Serif" font-size="10.00">glad/glad.h</text>
</a>
</g>
</g>
<!-- Node21&#45;&gt;Node22 -->
<g id="edge27_Node000021_Node000022" class="edge">
<title>Node21&#45;&gt;Node22</title>
<g id="a_edge27_Node000021_Node000022"><a xlink:title=" ">
<path fill="none" stroke="#63b8ff" d="M881.32,-274.98C899.66,-266.46 928.11,-253.23 949.23,-243.41"/>
<polygon fill="#63b8ff" stroke="#63b8ff" points="950.76,-246.56 958.35,-239.17 947.81,-240.21 950.76,-246.56"/>
</a>
</g>
</g>
<!-- Node23 -->
<g id="Node000023" class="node">
<title>Node23</title>
<g id="a_Node000023"><a xlink:href="_image_8hpp.html" target="_top" xlink:title=" ">
<polygon fill="white" stroke="#666666" points="884.5,-239 743.5,-239 743.5,-220 884.5,-220 884.5,-239"/>
<text text-anchor="middle" x="814" y="-227" font-family="Helvetica,sans-Serif" font-size="10.00">AssetManager/Image.hpp</text>
</a>
</g>
</g>
<!-- Node21&#45;&gt;Node23 -->
<g id="edge28_Node000021_Node000023" class="edge">
<title>Node21&#45;&gt;Node23</title>
<g id="a_edge28_Node000021_Node000023"><a xlink:title=" ">
<path fill="none" stroke="#63b8ff" d="M854.91,-274.75C847.84,-267.11 837.41,-255.82 828.85,-246.56"/>
<polygon fill="#63b8ff" stroke="#63b8ff" points="831.3,-244.06 821.94,-239.09 826.16,-248.81 831.3,-244.06"/>
</a>
</g>
</g>
<!-- Node21&#45;&gt;Node24 -->
<g id="edge30_Node000021_Node000024" class="edge">
<title>Node21&#45;&gt;Node24</title>
<g id="a_edge30_Node000021_Node000024"><a xlink:title=" ">
<path fill="none" stroke="#63b8ff" d="M869.74,-274.96C881.18,-261.11 905.82,-233.87 933,-220 960.93,-205.75 1042.42,-191.18 1095.85,-182.76"/>
<polygon fill="#63b8ff" stroke="#63b8ff" points="1096.47,-186.2 1105.81,-181.21 1095.39,-179.29 1096.47,-186.2"/>
</a>
</g>
</g>
<!-- Node23&#45;&gt;Node20 -->
<g id="edge29_Node000023_Node000020" class="edge">
<title>Node23&#45;&gt;Node20</title>
<g id="a_edge29_Node000023_Node000020"><a xlink:title=" ">
<path fill="none" stroke="#63b8ff" d="M849.03,-219.98C886.75,-210.81 946.86,-196.2 987.81,-186.24"/>
<polygon fill="#63b8ff" stroke="#63b8ff" points="988.89,-189.58 997.78,-183.82 987.24,-182.78 988.89,-189.58"/>
</a>
</g>
</g>
<!-- Node26 -->
<g id="Node000026" class="node">
<title>Node26</title>
<g id="a_Node000026"><a xlink:title=" ">
<polygon fill="#e0e0e0" stroke="#999999" points="385,-239 335,-239 335,-220 385,-220 385,-239"/>
<text text-anchor="middle" x="360" y="-227" font-family="Helvetica,sans-Serif" font-size="10.00">atomic</text>
</a>
</g>
</g>
<!-- Node25&#45;&gt;Node26 -->
<g id="edge32_Node000025_Node000026" class="edge">
<title>Node25&#45;&gt;Node26</title>
<g id="a_edge32_Node000025_Node000026"><a xlink:title=" ">
<path fill="none" stroke="#63b8ff" d="M360,-274.75C360,-267.8 360,-257.85 360,-249.13"/>
<polygon fill="#63b8ff" stroke="#63b8ff" points="363.5,-249.09 360,-239.09 356.5,-249.09 363.5,-249.09"/>
</a>
</g>
</g>
<!-- Node27 -->
<g id="Node000027" class="node">
<title>Node27</title>
<g id="a_Node000027"><a xlink:href="_profiler_8hpp.html" target="_top" xlink:title=" ">
<polygon fill="white" stroke="#666666" points="205.5,-239 86.5,-239 86.5,-220 205.5,-220 205.5,-239"/>
<text text-anchor="middle" x="146" y="-227" font-family="Helvetica,sans-Serif" font-size="10.00">Common/Profiler.hpp</text>
</a>
</g>
</g>
<!-- Node25&#45;&gt;Node27 -->
<g id="edge33_Node000025_Node000027" class="edge">
<title>Node25&#45;&gt;Node27</title>
<g id="a_edge33_Node000025_Node000027"><a xlink:title=" ">
<path fill="none" stroke="#63b8ff" d="M325.62,-274.98C288.91,-265.89 230.62,-251.46 190.45,-241.51"/>
<polygon fill="#63b8ff" stroke="#63b8ff" points="191.2,-238.09 180.65,-239.08 189.52,-244.88 191.2,-238.09"/>
</a>
</g>
</g>
<!-- Node27&#45;&gt;Node3 -->
<g id="edge37_Node000027_Node000003" class="edge">
<title>Node27&#45;&gt;Node3</title>
<g id="a_edge37_Node000027_Node000003"><a xlink:title=" ">
<path fill="none" stroke="#63b8ff" d="M162.71,-219.98C179.21,-211.57 204.7,-198.59 223.88,-188.81"/>
<polygon fill="#63b8ff" stroke="#63b8ff" points="225.67,-191.83 232.99,-184.17 222.49,-185.59 225.67,-191.83"/>
</a>
</g>
</g>
<!-- Node27&#45;&gt;Node9 -->
<g id="edge36_Node000027_Node000009" class="edge">
<title>Node27&#45;&gt;Node9</title>
<g id="a_edge36_Node000027_Node000009"><a xlink:title=" ">
<path fill="none" stroke="#63b8ff" d="M130.37,-219.99C110.99,-208.28 82.01,-186.23 95,-165 106.53,-146.14 128.86,-134.96 148.01,-128.51"/>
<polygon fill="#63b8ff" stroke="#63b8ff" points="149.12,-131.83 157.66,-125.56 147.07,-125.14 149.12,-131.83"/>
</a>
</g>
</g>
<!-- Node28 -->
<g id="Node000028" class="node">
<title>Node28</title>
<g id="a_Node000028"><a xlink:title=" ">
<polygon fill="#e0e0e0" stroke="#999999" points="154,-184 104,-184 104,-165 154,-165 154,-184"/>
<text text-anchor="middle" x="129" y="-172" font-family="Helvetica,sans-Serif" font-size="10.00">chrono</text>
</a>
</g>
</g>
<!-- Node27&#45;&gt;Node28 -->
<g id="edge34_Node000027_Node000028" class="edge">
<title>Node27&#45;&gt;Node28</title>
<g id="a_edge34_Node000027_Node000028"><a xlink:title=" ">
<path fill="none" stroke="#63b8ff" d="M143.19,-219.75C140.94,-212.72 137.7,-202.62 134.88,-193.84"/>
<polygon fill="#63b8ff" stroke="#63b8ff" points="138.14,-192.54 131.75,-184.09 131.48,-194.68 138.14,-192.54"/>
</a>
</g>
</g>
<!-- Node29 -->
<g id="Node000029" class="node">
<title>Node29</title>
<g id="a_Node000029"><a xlink:title=" ">
<polygon fill="#e0e0e0" stroke="#999999" points="210,-184 172,-184 172,-165 210,-165 210,-184"/>
<text text-anchor="middle" x="191" y="-172" font-family="Helvetica,sans-Serif" font-size="10.00">map</text>
</a>
</g>
</g>
<!-- Node27&#45;&gt;Node29 -->
<g id="edge35_Node000027_Node000029" class="edge">
<title>Node27&#45;&gt;Node29</title>
<g id="a_edge35_Node000027_Node000029"><a xlink:title=" ">
<path fill="none" stroke="#63b8ff" d="M153.43,-219.75C159.85,-212.18 169.31,-201.05 177.12,-191.84"/>
<polygon fill="#63b8ff" stroke="#63b8ff" points="179.9,-193.98 183.71,-184.09 174.57,-189.45 179.9,-193.98"/>
</a>
</g>
</g>
<!-- Node30 -->
<g id="Node000030" class="node">
<title>Node30</title>
<g id="a_Node000030"><a xlink:title=" ">
<polygon fill="#e0e0e0" stroke="#999999" points="48,-184 0,-184 0,-165 48,-165 48,-184"/>
<text text-anchor="middle" x="24" y="-172" font-family="Helvetica,sans-Serif" font-size="10.00">thread</text>
</a>
</g>
</g>
<!-- Node27&#45;&gt;Node30 -->
<g id="edge38_Node000027_Node000030" class="edge">
<title>Node27&#45;&gt;Node30</title>
<g id="a_edge38_Node000027_Node000030"><a xlink:title=" ">
<path fill="none" stroke="#63b8ff" d="M126.4,-219.98C106.68,-211.42 76.05,-198.11 53.42,-188.28"/>
<polygon fill="#63b8ff" stroke="#63b8ff" points="54.52,-184.94 43.96,-184.17 51.74,-191.37 54.52,-184.94"/>
</a>
</g>
</g>
<!-- Node31&#45;&gt;Node3 -->
<g id="edge44_Node000031_Node000003" class="edge">
<title>Node31&#45;&gt;Node3</title>
<g id="a_edge44_Node000031_Node000003"><a xlink:title=" ">
<path fill="none" stroke="#63b8ff" d="M972.24,-337.82C888.56,-335.48 743.61,-326.53 624,-294 604.23,-288.62 601.19,-282.18 582,-275 525.46,-253.85 353.62,-204.74 281.94,-184.48"/>
<polygon fill="#63b8ff" stroke="#63b8ff" points="282.69,-181.06 272.11,-181.71 280.79,-187.79 282.69,-181.06"/>
</a>
</g>
</g>
<!-- Node31&#45;&gt;Node20 -->
<g id="edge42_Node000031_Node000020" class="edge">
<title>Node31&#45;&gt;Node20</title>
<g id="a_edge42_Node000031_Node000020"><a xlink:title=" ">
<path fill="none" stroke="#63b8ff" d="M1040.52,-329.74C1039.11,-304.31 1035.01,-230.08 1033.06,-194.69"/>
<polygon fill="#63b8ff" stroke="#63b8ff" points="1036.53,-194.1 1032.49,-184.31 1029.54,-194.48 1036.53,-194.1"/>
</a>
</g>
</g>
<!-- Node31&#45;&gt;Node22 -->
<g id="edge41_Node000031_Node000022" class="edge">
<title>Node31&#45;&gt;Node22</title>
<g id="a_edge41_Node000031_Node000022"><a xlink:title=" ">
<path fill="none" stroke="#63b8ff" d="M1035.76,-329.66C1025.21,-311.85 1001.22,-271.37 987.37,-248.01"/>
<polygon fill="#63b8ff" stroke="#63b8ff" points="990.24,-245.98 982.13,-239.16 984.22,-249.55 990.24,-245.98"/>
</a>
</g>
</g>
<!-- Node31&#45;&gt;Node24 -->
<g id="edge43_Node000031_Node000024" class="edge">
<title>Node31&#45;&gt;Node24</title>
<g id="a_edge43_Node000031_Node000024"><a xlink:title=" ">
<path fill="none" stroke="#63b8ff" d="M1072.47,-329.85C1090.96,-323.12 1113.16,-311.85 1126,-294 1147.42,-264.23 1148.37,-219.37 1146.87,-194.25"/>
<polygon fill="#63b8ff" stroke="#63b8ff" points="1150.35,-193.91 1146.07,-184.22 1143.37,-194.47 1150.35,-193.91"/>
</a>
</g>
</g>
<!-- Node32 -->
<g id="Node000032" class="node">
<title>Node32</title>
<g id="a_Node000032"><a xlink:title=" ">
<polygon fill="#e0e0e0" stroke="#999999" points="1116.5,-294 1069.5,-294 1069.5,-275 1116.5,-275 1116.5,-294"/>
<text text-anchor="middle" x="1093" y="-282" font-family="Helvetica,sans-Serif" font-size="10.00">vector</text>
</a>
</g>
</g>
<!-- Node31&#45;&gt;Node32 -->
<g id="edge45_Node000031_Node000032" class="edge">
<title>Node31&#45;&gt;Node32</title>
<g id="a_edge45_Node000031_Node000032"><a xlink:title=" ">
<path fill="none" stroke="#63b8ff" d="M1049.59,-329.75C1057.16,-322.03 1068.38,-310.6 1077.51,-301.28"/>
<polygon fill="#63b8ff" stroke="#63b8ff" points="1080.07,-303.68 1084.57,-294.09 1075.07,-298.78 1080.07,-303.68"/>
</a>
</g>
</g>
<!-- Node33 -->
<g id="Node000033" class="node">
<title>Node33</title>
<g id="a_Node000033"><a xlink:href="_a_a_b_b_8hpp.html" target="_top" xlink:title=" ">
<polygon fill="white" stroke="#666666" points="1265,-294 1173,-294 1173,-275 1265,-275 1265,-294"/>
<text text-anchor="middle" x="1219" y="-282" font-family="Helvetica,sans-Serif" font-size="10.00">Math/AABB.hpp</text>
</a>
</g>
</g>
<!-- Node31&#45;&gt;Node33 -->
<g id="edge46_Node000031_Node000033" class="edge">
<title>Node31&#45;&gt;Node33</title>
<g id="a_edge46_Node000031_Node000033"><a xlink:title=" ">
<path fill="none" stroke="#63b8ff" d="M1069.6,-329.98C1099.61,-321.05 1146.98,-306.94 1180.32,-297.02"/>
<polygon fill="#63b8ff" stroke="#63b8ff" points="1181.59,-300.29 1190.18,-294.08 1179.59,-293.58 1181.59,-300.29"/>
</a>
</g>
</g>
<!-- Node33&#45;&gt;Node24 -->
<g id="edge49_Node000033_Node000024" class="edge">
<title>Node33&#45;&gt;Node24</title>
<g id="a_edge49_Node000033_Node000024"><a xlink:title=" ">
<path fill="none" stroke="#63b8ff" d="M1233.32,-274.98C1251.79,-262.9 1279.97,-240.02 1266,-220 1249.83,-196.83 1220.18,-185.69 1194.28,-180.35"/>
<polygon fill="#63b8ff" stroke="#63b8ff" points="1194.67,-176.86 1184.21,-178.51 1193.42,-183.75 1194.67,-176.86"/>
</a>
</g>
</g>
<!-- Node34 -->
<g id="Node000034" class="node">
<title>Node34</title>
<g id="a_Node000034"><a xlink:href="_ray_8hpp.html" target="_top" xlink:title=" ">
<polygon fill="white" stroke="#666666" points="1256.5,-239 1173.5,-239 1173.5,-220 1256.5,-220 1256.5,-239"/>
<text text-anchor="middle" x="1215" y="-227" font-family="Helvetica,sans-Serif" font-size="10.00">Math/Ray.hpp</text>
</a>
</g>
</g>
<!-- Node33&#45;&gt;Node34 -->
<g id="edge47_Node000033_Node000034" class="edge">
<title>Node33&#45;&gt;Node34</title>
<g id="a_edge47_Node000033_Node000034"><a xlink:title=" ">
<path fill="none" stroke="#63b8ff" d="M1218.34,-274.75C1217.82,-267.8 1217.06,-257.85 1216.41,-249.13"/>
<polygon fill="#63b8ff" stroke="#63b8ff" points="1219.89,-248.8 1215.65,-239.09 1212.91,-249.32 1219.89,-248.8"/>
</a>
</g>
</g>
<!-- Node34&#45;&gt;Node24 -->
<g id="edge48_Node000034_Node000024" class="edge">
<title>Node34&#45;&gt;Node24</title>
<g id="a_edge48_Node000034_Node000024"><a xlink:title=" ">
<path fill="none" stroke="#63b8ff" d="M1203.75,-219.98C1193.2,-212 1177.2,-199.88 1164.56,-190.31"/>
<polygon fill="#63b8ff" stroke="#63b8ff" points="1166.54,-187.42 1156.45,-184.17 1162.31,-193 1166.54,-187.42"/>
</a>
</g>
</g>
<!-- Node36 -->
<g id="Node000036" class="node">
<title>Node36</title>
<g id="a_Node000036"><a xlink:href="_types_8hpp.html" target="_top" xlink:title=" ">
<polygon fill="white" stroke="#666666" points="573.5,-294 460.5,-294 460.5,-275 573.5,-275 573.5,-294"/>
<text text-anchor="middle" x="517" y="-282" font-family="Helvetica,sans-Serif" font-size="10.00">Common/Types.hpp</text>
</a>
</g>
</g>
<!-- Node35&#45;&gt;Node36 -->
<g id="edge51_Node000035_Node000036" class="edge">
<title>Node35&#45;&gt;Node36</title>
<g id="a_edge51_Node000035_Node000036"><a xlink:title=" ">
<path fill="none" stroke="#63b8ff" d="M517,-329.75C517,-322.8 517,-312.85 517,-304.13"/>
<polygon fill="#63b8ff" stroke="#63b8ff" points="520.5,-304.09 517,-294.09 513.5,-304.09 520.5,-304.09"/>
</a>
</g>
</g>
<!-- Node36&#45;&gt;Node20 -->
<g id="edge52_Node000036_Node000020" class="edge">
<title>Node36&#45;&gt;Node20</title>
<g id="a_edge52_Node000036_Node000020"><a xlink:title=" ">
<path fill="none" stroke="#63b8ff" d="M544.61,-274.98C573.08,-266.14 618.72,-251.86 658,-239 682.98,-230.82 688.41,-225.99 714,-220 831.88,-192.42 864.37,-202.56 984,-184 985.27,-183.8 986.56,-183.6 987.86,-183.39"/>
<polygon fill="#63b8ff" stroke="#63b8ff" points="988.65,-186.81 997.94,-181.72 987.5,-179.9 988.65,-186.81"/>
</a>
</g>
</g>
</g>
</svg>
