<?xml version="1.0" encoding="UTF-8" standalone="no"?>
<!DOCTYPE svg PUBLIC "-//W3C//DTD SVG 1.1//EN"
 "http://www.w3.org/Graphics/SVG/1.1/DTD/svg11.dtd">
<!-- Generated by graphviz version 2.43.0 (0)
 -->
<!-- Title: src/Components/OverlayModelComponent.hpp Pages: 1 -->
<svg width="1488pt" height="423pt"
 viewBox="0.00 0.00 1487.50 423.00" xmlns="http://www.w3.org/2000/svg" xmlns:xlink="http://www.w3.org/1999/xlink">
<g id="graph0" class="graph" transform="scale(1 1) rotate(0) translate(4 419)">
<title>src/Components/OverlayModelComponent.hpp</title>
<!-- Node1 -->
<g id="Node000001" class="node">
<title>Node1</title>
<g id="a_Node000001"><a xlink:title=" ">
<polygon fill="#999999" stroke="#666666" points="559.5,-415 392.5,-415 392.5,-385 559.5,-385 559.5,-415"/>
<text text-anchor="start" x="400.5" y="-403" font-family="Helvetica,sans-Serif" font-size="10.00">src/Components/OverlayModel</text>
<text text-anchor="middle" x="476" y="-392" font-family="Helvetica,sans-Serif" font-size="10.00">Component.hpp</text>
</a>
</g>
</g>
<!-- Node2 -->
<g id="Node000002" class="node">
<title>Node2</title>
<g id="a_Node000002"><a xlink:title=" ">
<polygon fill="#e0e0e0" stroke="#999999" points="44,-184 0,-184 0,-165 44,-165 44,-184"/>
<text text-anchor="middle" x="22" y="-172" font-family="Helvetica,sans-Serif" font-size="10.00">string</text>
</a>
</g>
</g>
<!-- Node1&#45;&gt;Node2 -->
<g id="edge1_Node000001_Node000002" class="edge">
<title>Node1&#45;&gt;Node2</title>
<g id="a_edge1_Node000001_Node000002"><a xlink:title=" ">
<path fill="none" stroke="#63b8ff" d="M392.01,-391.46C274.68,-379.02 70.88,-349.81 25,-294 1.78,-265.75 9.35,-219.62 16.15,-194.05"/>
<polygon fill="#63b8ff" stroke="#63b8ff" points="19.59,-194.75 19.02,-184.17 12.87,-192.79 19.59,-194.75"/>
</a>
</g>
</g>
<!-- Node3 -->
<g id="Node000003" class="node">
<title>Node3</title>
<g id="a_Node000003"><a xlink:title=" ">
<polygon fill="#e0e0e0" stroke="#999999" points="830,-349 770,-349 770,-330 830,-330 830,-349"/>
<text text-anchor="middle" x="800" y="-337" font-family="Helvetica,sans-Serif" font-size="10.00">iostream</text>
</a>
</g>
</g>
<!-- Node1&#45;&gt;Node3 -->
<g id="edge2_Node000001_Node000003" class="edge">
<title>Node1&#45;&gt;Node3</title>
<g id="a_edge2_Node000001_Node000003"><a xlink:title=" ">
<path fill="none" stroke="#63b8ff" d="M559.72,-385.24C614.15,-376.07 686.9,-363.42 759.95,-349.14"/>
<polygon fill="#63b8ff" stroke="#63b8ff" points="760.65,-352.57 769.79,-347.21 759.3,-345.7 760.65,-352.57"/>
</a>
</g>
</g>
<!-- Node4 -->
<g id="Node000004" class="node">
<title>Node4</title>
<g id="a_Node000004"><a xlink:href="_mesh_8hpp.html" target="_top" xlink:title=" ">
<polygon fill="white" stroke="#666666" points="304.5,-349 167.5,-349 167.5,-330 304.5,-330 304.5,-349"/>
<text text-anchor="middle" x="236" y="-337" font-family="Helvetica,sans-Serif" font-size="10.00">AssetManager/Mesh.hpp</text>
</a>
</g>
</g>
<!-- Node1&#45;&gt;Node4 -->
<g id="edge3_Node000001_Node000004" class="edge">
<title>Node1&#45;&gt;Node4</title>
<g id="a_edge3_Node000001_Node000004"><a xlink:title=" ">
<path fill="none" stroke="#63b8ff" d="M418.51,-384.99C376.38,-374.72 319.97,-360.97 281.08,-351.49"/>
<polygon fill="#63b8ff" stroke="#63b8ff" points="281.64,-348.02 271.09,-349.05 279.98,-354.82 281.64,-348.02"/>
</a>
</g>
</g>
<!-- Node11 -->
<g id="Node000011" class="node">
<title>Node11</title>
<g id="a_Node000011"><a xlink:href="_material_8hpp.html" target="_top" xlink:title=" ">
<polygon fill="white" stroke="#666666" points="551.5,-349 400.5,-349 400.5,-330 551.5,-330 551.5,-349"/>
<text text-anchor="middle" x="476" y="-337" font-family="Helvetica,sans-Serif" font-size="10.00">AssetManager/Material.hpp</text>
</a>
</g>
</g>
<!-- Node1&#45;&gt;Node11 -->
<g id="edge13_Node000001_Node000011" class="edge">
<title>Node1&#45;&gt;Node11</title>
<g id="a_edge13_Node000001_Node000011"><a xlink:title=" ">
<path fill="none" stroke="#63b8ff" d="M476,-384.84C476,-377.21 476,-367.7 476,-359.45"/>
<polygon fill="#63b8ff" stroke="#63b8ff" points="479.5,-359.27 476,-349.27 472.5,-359.27 479.5,-359.27"/>
</a>
</g>
</g>
<!-- Node35 -->
<g id="Node000035" class="node">
<title>Node35</title>
<g id="a_Node000035"><a xlink:href="_base_component_8hpp.html" target="_top" xlink:title=" ">
<polygon fill="white" stroke="#666666" points="752,-349 570,-349 570,-330 752,-330 752,-349"/>
<text text-anchor="middle" x="661" y="-337" font-family="Helvetica,sans-Serif" font-size="10.00">Components/BaseComponent.hpp</text>
</a>
</g>
</g>
<!-- Node1&#45;&gt;Node35 -->
<g id="edge50_Node000001_Node000035" class="edge">
<title>Node1&#45;&gt;Node35</title>
<g id="a_edge50_Node000001_Node000035"><a xlink:title=" ">
<path fill="none" stroke="#63b8ff" d="M520.31,-384.99C552.1,-374.94 594.42,-361.55 624.32,-352.1"/>
<polygon fill="#63b8ff" stroke="#63b8ff" points="625.47,-355.41 633.95,-349.05 623.36,-348.73 625.47,-355.41"/>
</a>
</g>
</g>
<!-- Node4&#45;&gt;Node2 -->
<g id="edge7_Node000004_Node000002" class="edge">
<title>Node4&#45;&gt;Node2</title>
<g id="a_edge7_Node000004_Node000002"><a xlink:title=" ">
<path fill="none" stroke="#63b8ff" d="M167.26,-330.98C118.28,-324.17 58.18,-312.34 41,-294 15.56,-266.84 16.37,-219.91 19.18,-194.01"/>
<polygon fill="#63b8ff" stroke="#63b8ff" points="22.66,-194.39 20.49,-184.02 15.72,-193.49 22.66,-194.39"/>
</a>
</g>
</g>
<!-- Node5 -->
<g id="Node000005" class="node">
<title>Node5</title>
<g id="a_Node000005"><a xlink:title=" ">
<polygon fill="#e0e0e0" stroke="#999999" points="335.5,-239 264.5,-239 264.5,-220 335.5,-220 335.5,-239"/>
<text text-anchor="middle" x="300" y="-227" font-family="Helvetica,sans-Serif" font-size="10.00">glad/glad.h</text>
</a>
</g>
</g>
<!-- Node4&#45;&gt;Node5 -->
<g id="edge4_Node000004_Node000005" class="edge">
<title>Node4&#45;&gt;Node5</title>
<g id="a_edge4_Node000004_Node000005"><a xlink:title=" ">
<path fill="none" stroke="#63b8ff" d="M241.24,-329.66C251.79,-311.85 275.78,-271.37 289.63,-248.01"/>
<polygon fill="#63b8ff" stroke="#63b8ff" points="292.78,-249.55 294.87,-239.16 286.76,-245.98 292.78,-249.55"/>
</a>
</g>
</g>
<!-- Node6 -->
<g id="Node000006" class="node">
<title>Node6</title>
<g id="a_Node000006"><a xlink:title=" ">
<polygon fill="#e0e0e0" stroke="#999999" points="748,-184 680,-184 680,-165 748,-165 748,-184"/>
<text text-anchor="middle" x="714" y="-172" font-family="Helvetica,sans-Serif" font-size="10.00">filesystem</text>
</a>
</g>
</g>
<!-- Node4&#45;&gt;Node6 -->
<g id="edge5_Node000004_Node000006" class="edge">
<title>Node4&#45;&gt;Node6</title>
<g id="a_edge5_Node000004_Node000006"><a xlink:title=" ">
<path fill="none" stroke="#63b8ff" d="M285.78,-329.94C406,-309.05 703.31,-255.89 717,-239 726.98,-226.69 724.82,-208.21 721,-194.35"/>
<polygon fill="#63b8ff" stroke="#63b8ff" points="724.2,-192.87 717.78,-184.44 717.54,-195.03 724.2,-192.87"/>
</a>
</g>
</g>
<!-- Node7 -->
<g id="Node000007" class="node">
<title>Node7</title>
<g id="a_Node000007"><a xlink:title=" ">
<polygon fill="#e0e0e0" stroke="#999999" points="275,-184 197,-184 197,-165 275,-165 275,-184"/>
<text text-anchor="middle" x="236" y="-172" font-family="Helvetica,sans-Serif" font-size="10.00">glm/glm.hpp</text>
</a>
</g>
</g>
<!-- Node4&#45;&gt;Node7 -->
<g id="edge6_Node000004_Node000007" class="edge">
<title>Node4&#45;&gt;Node7</title>
<g id="a_edge6_Node000004_Node000007"><a xlink:title=" ">
<path fill="none" stroke="#63b8ff" d="M236,-329.74C236,-304.31 236,-230.08 236,-194.69"/>
<polygon fill="#63b8ff" stroke="#63b8ff" points="239.5,-194.31 236,-184.31 232.5,-194.31 239.5,-194.31"/>
</a>
</g>
</g>
<!-- Node8 -->
<g id="Node000008" class="node">
<title>Node8</title>
<g id="a_Node000008"><a xlink:title=" ">
<polygon fill="#e0e0e0" stroke="#999999" points="97.5,-294 50.5,-294 50.5,-275 97.5,-275 97.5,-294"/>
<text text-anchor="middle" x="74" y="-282" font-family="Helvetica,sans-Serif" font-size="10.00">vector</text>
</a>
</g>
</g>
<!-- Node4&#45;&gt;Node8 -->
<g id="edge8_Node000004_Node000008" class="edge">
<title>Node4&#45;&gt;Node8</title>
<g id="a_edge8_Node000004_Node000008"><a xlink:title=" ">
<path fill="none" stroke="#63b8ff" d="M209.97,-329.98C182.09,-320.86 137.75,-306.36 107.33,-296.4"/>
<polygon fill="#63b8ff" stroke="#63b8ff" points="108.19,-293 97.59,-293.22 106.01,-299.65 108.19,-293"/>
</a>
</g>
</g>
<!-- Node9 -->
<g id="Node000009" class="node">
<title>Node9</title>
<g id="a_Node000009"><a xlink:href="_a_a_b_b_8hpp.html" target="_top" xlink:title=" ">
<polygon fill="white" stroke="#666666" points="208,-294 116,-294 116,-275 208,-275 208,-294"/>
<text text-anchor="middle" x="162" y="-282" font-family="Helvetica,sans-Serif" font-size="10.00">Math/AABB.hpp</text>
</a>
</g>
</g>
<!-- Node4&#45;&gt;Node9 -->
<g id="edge9_Node000004_Node000009" class="edge">
<title>Node4&#45;&gt;Node9</title>
<g id="a_edge9_Node000004_Node000009"><a xlink:title=" ">
<path fill="none" stroke="#63b8ff" d="M224.11,-329.98C212.85,-321.92 195.71,-309.65 182.29,-300.03"/>
<polygon fill="#63b8ff" stroke="#63b8ff" points="184.27,-297.15 174.11,-294.17 180.2,-302.84 184.27,-297.15"/>
</a>
</g>
</g>
<!-- Node9&#45;&gt;Node7 -->
<g id="edge10_Node000009_Node000007" class="edge">
<title>Node9&#45;&gt;Node7</title>
<g id="a_edge10_Node000009_Node000007"><a xlink:title=" ">
<path fill="none" stroke="#63b8ff" d="M147.68,-274.98C129.21,-262.9 101.03,-240.02 115,-220 131.17,-196.83 160.82,-185.69 186.72,-180.35"/>
<polygon fill="#63b8ff" stroke="#63b8ff" points="187.58,-183.75 196.79,-178.51 186.33,-176.86 187.58,-183.75"/>
</a>
</g>
</g>
<!-- Node10 -->
<g id="Node000010" class="node">
<title>Node10</title>
<g id="a_Node000010"><a xlink:href="_ray_8hpp.html" target="_top" xlink:title=" ">
<polygon fill="white" stroke="#666666" points="207.5,-239 124.5,-239 124.5,-220 207.5,-220 207.5,-239"/>
<text text-anchor="middle" x="166" y="-227" font-family="Helvetica,sans-Serif" font-size="10.00">Math/Ray.hpp</text>
</a>
</g>
</g>
<!-- Node9&#45;&gt;Node10 -->
<g id="edge11_Node000009_Node000010" class="edge">
<title>Node9&#45;&gt;Node10</title>
<g id="a_edge11_Node000009_Node000010"><a xlink:title=" ">
<path fill="none" stroke="#63b8ff" d="M162.66,-274.75C163.18,-267.8 163.94,-257.85 164.59,-249.13"/>
<polygon fill="#63b8ff" stroke="#63b8ff" points="168.09,-249.32 165.35,-239.09 161.11,-248.8 168.09,-249.32"/>
</a>
</g>
</g>
<!-- Node10&#45;&gt;Node7 -->
<g id="edge12_Node000010_Node000007" class="edge">
<title>Node10&#45;&gt;Node7</title>
<g id="a_edge12_Node000010_Node000007"><a xlink:title=" ">
<path fill="none" stroke="#63b8ff" d="M177.25,-219.98C187.8,-212 203.8,-199.88 216.44,-190.31"/>
<polygon fill="#63b8ff" stroke="#63b8ff" points="218.69,-193 224.55,-184.17 214.46,-187.42 218.69,-193"/>
</a>
</g>
</g>
<!-- Node11&#45;&gt;Node7 -->
<g id="edge49_Node000011_Node000007" class="edge">
<title>Node11&#45;&gt;Node7</title>
<g id="a_edge49_Node000011_Node000007"><a xlink:title=" ">
<path fill="none" stroke="#63b8ff" d="M475.37,-329.8C474.02,-316.67 469.82,-291.56 457,-275 414.85,-220.58 336.32,-195.08 285.12,-183.76"/>
<polygon fill="#63b8ff" stroke="#63b8ff" points="285.77,-180.32 275.27,-181.68 284.33,-187.17 285.77,-180.32"/>
</a>
</g>
</g>
<!-- Node12 -->
<g id="Node000012" class="node">
<title>Node12</title>
<g id="a_Node000012"><a xlink:href="_asset_8hpp.html" target="_top" xlink:title=" ">
<polygon fill="white" stroke="#666666" points="911.5,-294 774.5,-294 774.5,-275 911.5,-275 911.5,-294"/>
<text text-anchor="middle" x="843" y="-282" font-family="Helvetica,sans-Serif" font-size="10.00">AssetManager/Asset.hpp</text>
</a>
</g>
</g>
<!-- Node11&#45;&gt;Node12 -->
<g id="edge14_Node000011_Node000012" class="edge">
<title>Node11&#45;&gt;Node12</title>
<g id="a_edge14_Node000011_Node000012"><a xlink:title=" ">
<path fill="none" stroke="#63b8ff" d="M534.96,-329.98C600.14,-320.57 705.01,-305.43 773.97,-295.47"/>
<polygon fill="#63b8ff" stroke="#63b8ff" points="774.48,-298.93 783.88,-294.04 773.48,-292 774.48,-298.93"/>
</a>
</g>
</g>
<!-- Node27 -->
<g id="Node000027" class="node">
<title>Node27</title>
<g id="a_Node000027"><a xlink:href="_texture_8hpp.html" target="_top" xlink:title=" ">
<polygon fill="white" stroke="#666666" points="448,-294 302,-294 302,-275 448,-275 448,-294"/>
<text text-anchor="middle" x="375" y="-282" font-family="Helvetica,sans-Serif" font-size="10.00">AssetManager/Texture.hpp</text>
</a>
</g>
</g>
<!-- Node11&#45;&gt;Node27 -->
<g id="edge36_Node000011_Node000027" class="edge">
<title>Node11&#45;&gt;Node27</title>
<g id="a_edge36_Node000011_Node000027"><a xlink:title=" ">
<path fill="none" stroke="#63b8ff" d="M459.77,-329.98C443.82,-321.61 419.22,-308.7 400.62,-298.95"/>
<polygon fill="#63b8ff" stroke="#63b8ff" points="402,-295.72 391.52,-294.17 398.75,-301.92 402,-295.72"/>
</a>
</g>
</g>
<!-- Node29 -->
<g id="Node000029" class="node">
<title>Node29</title>
<g id="a_Node000029"><a xlink:href="_instance_counter_8hpp.html" target="_top" xlink:title=" ">
<polygon fill="white" stroke="#666666" points="756,-294 592,-294 592,-275 756,-275 756,-294"/>
<text text-anchor="middle" x="674" y="-282" font-family="Helvetica,sans-Serif" font-size="10.00">Common/InstanceCounter.hpp</text>
</a>
</g>
</g>
<!-- Node11&#45;&gt;Node29 -->
<g id="edge41_Node000011_Node000029" class="edge">
<title>Node11&#45;&gt;Node29</title>
<g id="a_edge41_Node000011_Node000029"><a xlink:title=" ">
<path fill="none" stroke="#63b8ff" d="M507.81,-329.98C541.49,-320.97 594.8,-306.7 631.92,-296.76"/>
<polygon fill="#63b8ff" stroke="#63b8ff" points="633.18,-300.05 641.94,-294.08 631.37,-293.29 633.18,-300.05"/>
</a>
</g>
</g>
<!-- Node12&#45;&gt;Node6 -->
<g id="edge15_Node000012_Node000006" class="edge">
<title>Node12&#45;&gt;Node6</title>
<g id="a_edge15_Node000012_Node000006"><a xlink:title=" ">
<path fill="none" stroke="#63b8ff" d="M842.72,-274.97C841.83,-261.61 838.25,-235.66 824,-220 813.96,-208.98 780.12,-196.19 752.59,-187.17"/>
<polygon fill="#63b8ff" stroke="#63b8ff" points="753.38,-183.74 742.79,-184.02 751.24,-190.41 753.38,-183.74"/>
</a>
</g>
</g>
<!-- Node13 -->
<g id="Node000013" class="node">
<title>Node13</title>
<g id="a_Node000013"><a xlink:href="_registry_8hpp.html" target="_top" xlink:title=" ">
<polygon fill="white" stroke="#666666" points="1084,-239 986,-239 986,-220 1084,-220 1084,-239"/>
<text text-anchor="middle" x="1035" y="-227" font-family="Helvetica,sans-Serif" font-size="10.00">ECS/Registry.hpp</text>
</a>
</g>
</g>
<!-- Node12&#45;&gt;Node13 -->
<g id="edge16_Node000012_Node000013" class="edge">
<title>Node12&#45;&gt;Node13</title>
<g id="a_edge16_Node000012_Node000013"><a xlink:title=" ">
<path fill="none" stroke="#63b8ff" d="M873.85,-274.98C906.5,-265.97 958.2,-251.7 994.2,-241.76"/>
<polygon fill="#63b8ff" stroke="#63b8ff" points="995.2,-245.12 1003.91,-239.08 993.34,-238.37 995.2,-245.12"/>
</a>
</g>
</g>
<!-- Node14 -->
<g id="Node000014" class="node">
<title>Node14</title>
<g id="a_Node000014"><a xlink:title=" ">
<polygon fill="#e0e0e0" stroke="#999999" points="1182,-129 1096,-129 1096,-110 1182,-110 1182,-129"/>
<text text-anchor="middle" x="1139" y="-117" font-family="Helvetica,sans-Serif" font-size="10.00">unordered_set</text>
</a>
</g>
</g>
<!-- Node13&#45;&gt;Node14 -->
<g id="edge17_Node000013_Node000014" class="edge">
<title>Node13&#45;&gt;Node14</title>
<g id="a_edge17_Node000013_Node000014"><a xlink:title=" ">
<path fill="none" stroke="#63b8ff" d="M1047.49,-219.71C1059.11,-211.23 1076.61,-197.7 1090,-184 1104.23,-169.43 1118.2,-150.79 1127.55,-137.47"/>
<polygon fill="#63b8ff" stroke="#63b8ff" points="1130.44,-139.45 1133.24,-129.23 1124.68,-135.47 1130.44,-139.45"/>
</a>
</g>
</g>
<!-- Node15 -->
<g id="Node000015" class="node">
<title>Node15</title>
<g id="a_Node000015"><a xlink:href="_logger_8hpp.html" target="_top" xlink:title=" ">
<polygon fill="white" stroke="#666666" points="883.5,-184 766.5,-184 766.5,-165 883.5,-165 883.5,-184"/>
<text text-anchor="middle" x="825" y="-172" font-family="Helvetica,sans-Serif" font-size="10.00">Common/Logger.hpp</text>
</a>
</g>
</g>
<!-- Node13&#45;&gt;Node15 -->
<g id="edge18_Node000013_Node000015" class="edge">
<title>Node13&#45;&gt;Node15</title>
<g id="a_edge18_Node000013_Node000015"><a xlink:title=" ">
<path fill="none" stroke="#63b8ff" d="M1001.26,-219.98C965.32,-210.91 908.28,-196.52 868.87,-186.57"/>
<polygon fill="#63b8ff" stroke="#63b8ff" points="869.56,-183.14 859,-184.08 867.84,-189.92 869.56,-183.14"/>
</a>
</g>
</g>
<!-- Node18 -->
<g id="Node000018" class="node">
<title>Node18</title>
<g id="a_Node000018"><a xlink:href="_entity_8hpp.html" target="_top" xlink:title=" ">
<polygon fill="white" stroke="#666666" points="1105,-74 1019,-74 1019,-55 1105,-55 1105,-74"/>
<text text-anchor="middle" x="1062" y="-62" font-family="Helvetica,sans-Serif" font-size="10.00">ECS/Entity.hpp</text>
</a>
</g>
</g>
<!-- Node13&#45;&gt;Node18 -->
<g id="edge21_Node000013_Node000018" class="edge">
<title>Node13&#45;&gt;Node18</title>
<g id="a_edge21_Node000013_Node000018"><a xlink:title=" ">
<path fill="none" stroke="#63b8ff" d="M1040.72,-219.73C1046.03,-211.05 1053.62,-197.19 1057,-184 1065.82,-149.54 1065.02,-107.63 1063.56,-84.02"/>
<polygon fill="#63b8ff" stroke="#63b8ff" points="1067.05,-83.73 1062.83,-74.01 1060.06,-84.23 1067.05,-83.73"/>
</a>
</g>
</g>
<!-- Node20 -->
<g id="Node000020" class="node">
<title>Node20</title>
<g id="a_Node000020"><a xlink:href="_entity_hierarchy_8hpp.html" target="_top" xlink:title=" ">
<polygon fill="white" stroke="#666666" points="1300,-184 1166,-184 1166,-165 1300,-165 1300,-184"/>
<text text-anchor="middle" x="1233" y="-172" font-family="Helvetica,sans-Serif" font-size="10.00">ECS/EntityHierarchy.hpp</text>
</a>
</g>
</g>
<!-- Node13&#45;&gt;Node20 -->
<g id="edge23_Node000013_Node000020" class="edge">
<title>Node13&#45;&gt;Node20</title>
<g id="a_edge23_Node000013_Node000020"><a xlink:title=" ">
<path fill="none" stroke="#63b8ff" d="M1066.81,-219.98C1100.49,-210.97 1153.8,-196.7 1190.92,-186.76"/>
<polygon fill="#63b8ff" stroke="#63b8ff" points="1192.18,-190.05 1200.94,-184.08 1190.37,-183.29 1192.18,-190.05"/>
</a>
</g>
</g>
<!-- Node24 -->
<g id="Node000024" class="node">
<title>Node24</title>
<g id="a_Node000024"><a xlink:href="_entity_provider_8hpp.html" target="_top" xlink:title="Manages a pool of unused entity identifiers and provides mechanisms for requesting and removing them.">
<polygon fill="white" stroke="#666666" points="1040,-129 912,-129 912,-110 1040,-110 1040,-129"/>
<text text-anchor="middle" x="976" y="-117" font-family="Helvetica,sans-Serif" font-size="10.00">ECS/EntityProvider.hpp</text>
</a>
</g>
</g>
<!-- Node13&#45;&gt;Node24 -->
<g id="edge29_Node000013_Node000024" class="edge">
<title>Node13&#45;&gt;Node24</title>
<g id="a_edge29_Node000013_Node000024"><a xlink:title=" ">
<path fill="none" stroke="#63b8ff" d="M986.15,-219.95C965.5,-213.65 943.38,-202.77 931,-184 919.72,-166.9 937.57,-147.79 954.02,-135.04"/>
<polygon fill="#63b8ff" stroke="#63b8ff" points="956.3,-137.71 962.32,-129 952.18,-132.05 956.3,-137.71"/>
</a>
</g>
</g>
<!-- Node25 -->
<g id="Node000025" class="node">
<title>Node25</title>
<g id="a_Node000025"><a xlink:href="_singleton_component_8hpp.html" target="_top" xlink:title=" ">
<polygon fill="white" stroke="#666666" points="1479.5,-184 1318.5,-184 1318.5,-165 1479.5,-165 1479.5,-184"/>
<text text-anchor="middle" x="1399" y="-172" font-family="Helvetica,sans-Serif" font-size="10.00">ECS/SingletonComponent.hpp</text>
</a>
</g>
</g>
<!-- Node13&#45;&gt;Node25 -->
<g id="edge33_Node000013_Node000025" class="edge">
<title>Node13&#45;&gt;Node25</title>
<g id="a_edge33_Node000013_Node000025"><a xlink:title=" ">
<path fill="none" stroke="#63b8ff" d="M1084.09,-221.35C1147.53,-212.11 1258.35,-195.98 1330.17,-185.52"/>
<polygon fill="#63b8ff" stroke="#63b8ff" points="1331.08,-188.93 1340.48,-184.02 1330.08,-182 1331.08,-188.93"/>
</a>
</g>
</g>
<!-- Node26 -->
<g id="Node000026" class="node">
<title>Node26</title>
<g id="a_Node000026"><a xlink:href="_sparse_set_8hpp.html" target="_top" xlink:title=" ">
<polygon fill="white" stroke="#666666" points="1048,-184 940,-184 940,-165 1048,-165 1048,-184"/>
<text text-anchor="middle" x="994" y="-172" font-family="Helvetica,sans-Serif" font-size="10.00">ECS/SparseSet.hpp</text>
</a>
</g>
</g>
<!-- Node13&#45;&gt;Node26 -->
<g id="edge34_Node000013_Node000026" class="edge">
<title>Node13&#45;&gt;Node26</title>
<g id="a_edge34_Node000013_Node000026"><a xlink:title=" ">
<path fill="none" stroke="#63b8ff" d="M1028.23,-219.75C1022.44,-212.26 1013.94,-201.28 1006.86,-192.13"/>
<polygon fill="#63b8ff" stroke="#63b8ff" points="1009.53,-189.86 1000.64,-184.09 1003.99,-194.14 1009.53,-189.86"/>
</a>
</g>
</g>
<!-- Node16 -->
<g id="Node000016" class="node">
<title>Node16</title>
<g id="a_Node000016"><a xlink:title=" ">
<polygon fill="#e0e0e0" stroke="#999999" points="755,-129 707,-129 707,-110 755,-110 755,-129"/>
<text text-anchor="middle" x="731" y="-117" font-family="Helvetica,sans-Serif" font-size="10.00">mutex</text>
</a>
</g>
</g>
<!-- Node15&#45;&gt;Node16 -->
<g id="edge19_Node000015_Node000016" class="edge">
<title>Node15&#45;&gt;Node16</title>
<g id="a_edge19_Node000015_Node000016"><a xlink:title=" ">
<path fill="none" stroke="#63b8ff" d="M809.9,-164.98C795.18,-156.69 772.58,-143.94 755.33,-134.22"/>
<polygon fill="#63b8ff" stroke="#63b8ff" points="756.81,-131.03 746.38,-129.17 753.37,-137.13 756.81,-131.03"/>
</a>
</g>
</g>
<!-- Node17 -->
<g id="Node000017" class="node">
<title>Node17</title>
<g id="a_Node000017"><a xlink:title=" ">
<polygon fill="#e0e0e0" stroke="#999999" points="903.5,-74 856.5,-74 856.5,-55 903.5,-55 903.5,-74"/>
<text text-anchor="middle" x="880" y="-62" font-family="Helvetica,sans-Serif" font-size="10.00">queue</text>
</a>
</g>
</g>
<!-- Node15&#45;&gt;Node17 -->
<g id="edge20_Node000015_Node000017" class="edge">
<title>Node15&#45;&gt;Node17</title>
<g id="a_edge20_Node000015_Node000017"><a xlink:title=" ">
<path fill="none" stroke="#63b8ff" d="M829.5,-164.66C838.53,-146.93 859,-106.73 870.93,-83.32"/>
<polygon fill="#63b8ff" stroke="#63b8ff" points="874.17,-84.66 875.59,-74.16 867.93,-81.48 874.17,-84.66"/>
</a>
</g>
</g>
<!-- Node19 -->
<g id="Node000019" class="node">
<title>Node19</title>
<g id="a_Node000019"><a xlink:title=" ">
<polygon fill="#e0e0e0" stroke="#999999" points="1047.5,-19 994.5,-19 994.5,0 1047.5,0 1047.5,-19"/>
<text text-anchor="middle" x="1021" y="-7" font-family="Helvetica,sans-Serif" font-size="10.00">stdlib.h</text>
</a>
</g>
</g>
<!-- Node18&#45;&gt;Node19 -->
<g id="edge22_Node000018_Node000019" class="edge">
<title>Node18&#45;&gt;Node19</title>
<g id="a_edge22_Node000018_Node000019"><a xlink:title=" ">
<path fill="none" stroke="#63b8ff" d="M1055.23,-54.75C1049.44,-47.26 1040.94,-36.28 1033.86,-27.13"/>
<polygon fill="#63b8ff" stroke="#63b8ff" points="1036.53,-24.86 1027.64,-19.09 1030.99,-29.14 1036.53,-24.86"/>
</a>
</g>
</g>
<!-- Node20&#45;&gt;Node14 -->
<g id="edge27_Node000020_Node000014" class="edge">
<title>Node20&#45;&gt;Node14</title>
<g id="a_edge27_Node000020_Node000014"><a xlink:title=" ">
<path fill="none" stroke="#63b8ff" d="M1217.9,-164.98C1203.18,-156.69 1180.58,-143.94 1163.33,-134.22"/>
<polygon fill="#63b8ff" stroke="#63b8ff" points="1164.81,-131.03 1154.38,-129.17 1161.37,-137.13 1164.81,-131.03"/>
</a>
</g>
</g>
<!-- Node20&#45;&gt;Node18 -->
<g id="edge28_Node000020_Node000018" class="edge">
<title>Node20&#45;&gt;Node18</title>
<g id="a_edge28_Node000020_Node000018"><a xlink:title=" ">
<path fill="none" stroke="#63b8ff" d="M1296.16,-164.97C1358.16,-155.95 1444.88,-141.35 1455,-129 1460.35,-122.47 1460.63,-116.3 1455,-110 1432.75,-85.09 1217.31,-72.34 1115.19,-67.65"/>
<polygon fill="#63b8ff" stroke="#63b8ff" points="1115.23,-64.15 1105.08,-67.2 1114.91,-71.15 1115.23,-64.15"/>
</a>
</g>
</g>
<!-- Node21 -->
<g id="Node000021" class="node">
<title>Node21</title>
<g id="a_Node000021"><a xlink:title=" ">
<polygon fill="#e0e0e0" stroke="#999999" points="1265.5,-129 1200.5,-129 1200.5,-110 1265.5,-110 1265.5,-129"/>
<text text-anchor="middle" x="1233" y="-117" font-family="Helvetica,sans-Serif" font-size="10.00">functional</text>
</a>
</g>
</g>
<!-- Node20&#45;&gt;Node21 -->
<g id="edge24_Node000020_Node000021" class="edge">
<title>Node20&#45;&gt;Node21</title>
<g id="a_edge24_Node000020_Node000021"><a xlink:title=" ">
<path fill="none" stroke="#63b8ff" d="M1233,-164.75C1233,-157.8 1233,-147.85 1233,-139.13"/>
<polygon fill="#63b8ff" stroke="#63b8ff" points="1236.5,-139.09 1233,-129.09 1229.5,-139.09 1236.5,-139.09"/>
</a>
</g>
</g>
<!-- Node22 -->
<g id="Node000022" class="node">
<title>Node22</title>
<g id="a_Node000022"><a xlink:title=" ">
<polygon fill="#e0e0e0" stroke="#999999" points="1334,-129 1284,-129 1284,-110 1334,-110 1334,-129"/>
<text text-anchor="middle" x="1309" y="-117" font-family="Helvetica,sans-Serif" font-size="10.00">ranges</text>
</a>
</g>
</g>
<!-- Node20&#45;&gt;Node22 -->
<g id="edge25_Node000020_Node000022" class="edge">
<title>Node20&#45;&gt;Node22</title>
<g id="a_edge25_Node000020_Node000022"><a xlink:title=" ">
<path fill="none" stroke="#63b8ff" d="M1245.21,-164.98C1256.78,-156.92 1274.38,-144.65 1288.16,-135.03"/>
<polygon fill="#63b8ff" stroke="#63b8ff" points="1290.37,-137.76 1296.57,-129.17 1286.36,-132.02 1290.37,-137.76"/>
</a>
</g>
</g>
<!-- Node23 -->
<g id="Node000023" class="node">
<title>Node23</title>
<g id="a_Node000023"><a xlink:title=" ">
<polygon fill="#e0e0e0" stroke="#999999" points="1445.5,-129 1352.5,-129 1352.5,-110 1445.5,-110 1445.5,-129"/>
<text text-anchor="middle" x="1399" y="-117" font-family="Helvetica,sans-Serif" font-size="10.00">unordered_map</text>
</a>
</g>
</g>
<!-- Node20&#45;&gt;Node23 -->
<g id="edge26_Node000020_Node000023" class="edge">
<title>Node20&#45;&gt;Node23</title>
<g id="a_edge26_Node000020_Node000023"><a xlink:title=" ">
<path fill="none" stroke="#63b8ff" d="M1259.67,-164.98C1287.54,-156.09 1331.45,-142.07 1362.52,-132.15"/>
<polygon fill="#63b8ff" stroke="#63b8ff" points="1363.66,-135.46 1372.12,-129.08 1361.53,-128.79 1363.66,-135.46"/>
</a>
</g>
</g>
<!-- Node24&#45;&gt;Node17 -->
<g id="edge31_Node000024_Node000017" class="edge">
<title>Node24&#45;&gt;Node17</title>
<g id="a_edge31_Node000024_Node000017"><a xlink:title=" ">
<path fill="none" stroke="#63b8ff" d="M960.58,-109.98C945.55,-101.69 922.46,-88.94 904.84,-79.22"/>
<polygon fill="#63b8ff" stroke="#63b8ff" points="906.15,-75.94 895.7,-74.17 902.77,-82.07 906.15,-75.94"/>
</a>
</g>
</g>
<!-- Node24&#45;&gt;Node18 -->
<g id="edge32_Node000024_Node000018" class="edge">
<title>Node24&#45;&gt;Node18</title>
<g id="a_edge32_Node000024_Node000018"><a xlink:title=" ">
<path fill="none" stroke="#63b8ff" d="M989.82,-109.98C1003.15,-101.77 1023.58,-89.18 1039.31,-79.49"/>
<polygon fill="#63b8ff" stroke="#63b8ff" points="1041.25,-82.4 1047.93,-74.17 1037.58,-76.44 1041.25,-82.4"/>
</a>
</g>
</g>
<!-- Node24&#45;&gt;Node19 -->
<g id="edge30_Node000024_Node000019" class="edge">
<title>Node24&#45;&gt;Node19</title>
<g id="a_edge30_Node000024_Node000019"><a xlink:title=" ">
<path fill="none" stroke="#63b8ff" d="M979.68,-109.66C987.04,-92.01 1003.67,-52.09 1013.44,-28.64"/>
<polygon fill="#63b8ff" stroke="#63b8ff" points="1016.78,-29.74 1017.39,-19.16 1010.32,-27.04 1016.78,-29.74"/>
</a>
</g>
</g>
<!-- Node26&#45;&gt;Node24 -->
<g id="edge35_Node000026_Node000024" class="edge">
<title>Node26&#45;&gt;Node24</title>
<g id="a_edge35_Node000026_Node000024"><a xlink:title=" ">
<path fill="none" stroke="#63b8ff" d="M991.03,-164.75C988.64,-157.72 985.21,-147.62 982.23,-138.84"/>
<polygon fill="#63b8ff" stroke="#63b8ff" points="985.45,-137.43 978.92,-129.09 978.82,-139.68 985.45,-137.43"/>
</a>
</g>
</g>
<!-- Node27&#45;&gt;Node5 -->
<g id="edge37_Node000027_Node000005" class="edge">
<title>Node27&#45;&gt;Node5</title>
<g id="a_edge37_Node000027_Node000005"><a xlink:title=" ">
<path fill="none" stroke="#63b8ff" d="M362.95,-274.98C351.54,-266.92 334.17,-254.65 320.57,-245.03"/>
<polygon fill="#63b8ff" stroke="#63b8ff" points="322.46,-242.08 312.27,-239.17 318.42,-247.8 322.46,-242.08"/>
</a>
</g>
</g>
<!-- Node27&#45;&gt;Node7 -->
<g id="edge40_Node000027_Node000007" class="edge">
<title>Node27&#45;&gt;Node7</title>
<g id="a_edge40_Node000027_Node000007"><a xlink:title=" ">
<path fill="none" stroke="#63b8ff" d="M372.93,-274.92C369.27,-261.49 360.46,-235.45 344,-220 327.42,-204.44 304.64,-193.97 284.27,-187.12"/>
<polygon fill="#63b8ff" stroke="#63b8ff" points="285.1,-183.71 274.51,-184.04 282.99,-190.38 285.1,-183.71"/>
</a>
</g>
</g>
<!-- Node28 -->
<g id="Node000028" class="node">
<title>Node28</title>
<g id="a_Node000028"><a xlink:href="_image_8hpp.html" target="_top" xlink:title=" ">
<polygon fill="white" stroke="#666666" points="708.5,-239 567.5,-239 567.5,-220 708.5,-220 708.5,-239"/>
<text text-anchor="middle" x="638" y="-227" font-family="Helvetica,sans-Serif" font-size="10.00">AssetManager/Image.hpp</text>
</a>
</g>
</g>
<!-- Node27&#45;&gt;Node28 -->
<g id="edge38_Node000027_Node000028" class="edge">
<title>Node27&#45;&gt;Node28</title>
<g id="a_edge38_Node000027_Node000028"><a xlink:title=" ">
<path fill="none" stroke="#63b8ff" d="M417.26,-274.98C463.04,-265.76 536.14,-251.03 585.55,-241.07"/>
<polygon fill="#63b8ff" stroke="#63b8ff" points="586.3,-244.49 595.41,-239.08 584.92,-237.63 586.3,-244.49"/>
</a>
</g>
</g>
<!-- Node28&#45;&gt;Node6 -->
<g id="edge39_Node000028_Node000006" class="edge">
<title>Node28&#45;&gt;Node6</title>
<g id="a_edge39_Node000028_Node000006"><a xlink:title=" ">
<path fill="none" stroke="#63b8ff" d="M650.21,-219.98C661.78,-211.92 679.38,-199.65 693.16,-190.03"/>
<polygon fill="#63b8ff" stroke="#63b8ff" points="695.37,-192.76 701.57,-184.17 691.36,-187.02 695.37,-192.76"/>
</a>
</g>
</g>
<!-- Node30 -->
<g id="Node000030" class="node">
<title>Node30</title>
<g id="a_Node000030"><a xlink:title=" ">
<polygon fill="#e0e0e0" stroke="#999999" points="815,-239 765,-239 765,-220 815,-220 815,-239"/>
<text text-anchor="middle" x="790" y="-227" font-family="Helvetica,sans-Serif" font-size="10.00">atomic</text>
</a>
</g>
</g>
<!-- Node29&#45;&gt;Node30 -->
<g id="edge42_Node000029_Node000030" class="edge">
<title>Node29&#45;&gt;Node30</title>
<g id="a_edge42_Node000029_Node000030"><a xlink:title=" ">
<path fill="none" stroke="#63b8ff" d="M692.64,-274.98C711.3,-266.46 740.25,-253.23 761.74,-243.41"/>
<polygon fill="#63b8ff" stroke="#63b8ff" points="763.38,-246.51 771.02,-239.17 760.47,-240.14 763.38,-246.51"/>
</a>
</g>
</g>
<!-- Node31 -->
<g id="Node000031" class="node">
<title>Node31</title>
<g id="a_Node000031"><a xlink:href="_profiler_8hpp.html" target="_top" xlink:title=" ">
<polygon fill="white" stroke="#666666" points="549.5,-239 430.5,-239 430.5,-220 549.5,-220 549.5,-239"/>
<text text-anchor="middle" x="490" y="-227" font-family="Helvetica,sans-Serif" font-size="10.00">Common/Profiler.hpp</text>
</a>
</g>
</g>
<!-- Node29&#45;&gt;Node31 -->
<g id="edge43_Node000029_Node000031" class="edge">
<title>Node29&#45;&gt;Node31</title>
<g id="a_edge43_Node000029_Node000031"><a xlink:title=" ">
<path fill="none" stroke="#63b8ff" d="M644.44,-274.98C613.28,-266.01 564.03,-251.82 529.54,-241.89"/>
<polygon fill="#63b8ff" stroke="#63b8ff" points="530.37,-238.49 519.79,-239.08 528.43,-245.21 530.37,-238.49"/>
</a>
</g>
</g>
<!-- Node31&#45;&gt;Node2 -->
<g id="edge48_Node000031_Node000002" class="edge">
<title>Node31&#45;&gt;Node2</title>
<g id="a_edge48_Node000031_Node000002"><a xlink:title=" ">
<path fill="none" stroke="#63b8ff" d="M430.25,-221.73C330.23,-210.41 132.21,-187.98 54.44,-179.17"/>
<polygon fill="#63b8ff" stroke="#63b8ff" points="54.62,-175.67 44.29,-178.02 53.83,-182.63 54.62,-175.67"/>
</a>
</g>
</g>
<!-- Node31&#45;&gt;Node16 -->
<g id="edge46_Node000031_Node000016" class="edge">
<title>Node31&#45;&gt;Node16</title>
<g id="a_edge46_Node000031_Node000016"><a xlink:title=" ">
<path fill="none" stroke="#63b8ff" d="M509.31,-219.84C551.72,-200.84 653.15,-155.39 702.73,-133.17"/>
<polygon fill="#63b8ff" stroke="#63b8ff" points="704.23,-136.33 711.93,-129.05 701.37,-129.94 704.23,-136.33"/>
</a>
</g>
</g>
<!-- Node32 -->
<g id="Node000032" class="node">
<title>Node32</title>
<g id="a_Node000032"><a xlink:title=" ">
<polygon fill="#e0e0e0" stroke="#999999" points="448,-184 398,-184 398,-165 448,-165 448,-184"/>
<text text-anchor="middle" x="423" y="-172" font-family="Helvetica,sans-Serif" font-size="10.00">chrono</text>
</a>
</g>
</g>
<!-- Node31&#45;&gt;Node32 -->
<g id="edge44_Node000031_Node000032" class="edge">
<title>Node31&#45;&gt;Node32</title>
<g id="a_edge44_Node000031_Node000032"><a xlink:title=" ">
<path fill="none" stroke="#63b8ff" d="M479.24,-219.98C469.23,-212.07 454.11,-200.11 442.07,-190.58"/>
<polygon fill="#63b8ff" stroke="#63b8ff" points="443.97,-187.63 433.96,-184.17 439.63,-193.12 443.97,-187.63"/>
</a>
</g>
</g>
<!-- Node33 -->
<g id="Node000033" class="node">
<title>Node33</title>
<g id="a_Node000033"><a xlink:title=" ">
<polygon fill="#e0e0e0" stroke="#999999" points="514,-184 466,-184 466,-165 514,-165 514,-184"/>
<text text-anchor="middle" x="490" y="-172" font-family="Helvetica,sans-Serif" font-size="10.00">thread</text>
</a>
</g>
</g>
<!-- Node31&#45;&gt;Node33 -->
<g id="edge45_Node000031_Node000033" class="edge">
<title>Node31&#45;&gt;Node33</title>
<g id="a_edge45_Node000031_Node000033"><a xlink:title=" ">
<path fill="none" stroke="#63b8ff" d="M490,-219.75C490,-212.8 490,-202.85 490,-194.13"/>
<polygon fill="#63b8ff" stroke="#63b8ff" points="493.5,-194.09 490,-184.09 486.5,-194.09 493.5,-194.09"/>
</a>
</g>
</g>
<!-- Node34 -->
<g id="Node000034" class="node">
<title>Node34</title>
<g id="a_Node000034"><a xlink:title=" ">
<polygon fill="#e0e0e0" stroke="#999999" points="570,-184 532,-184 532,-165 570,-165 570,-184"/>
<text text-anchor="middle" x="551" y="-172" font-family="Helvetica,sans-Serif" font-size="10.00">map</text>
</a>
</g>
</g>
<!-- Node31&#45;&gt;Node34 -->
<g id="edge47_Node000031_Node000034" class="edge">
<title>Node31&#45;&gt;Node34</title>
<g id="a_edge47_Node000031_Node000034"><a xlink:title=" ">
<path fill="none" stroke="#63b8ff" d="M499.8,-219.98C508.82,-212.15 522.41,-200.34 533.32,-190.86"/>
<polygon fill="#63b8ff" stroke="#63b8ff" points="535.77,-193.37 541.02,-184.17 531.18,-188.09 535.77,-193.37"/>
</a>
</g>
</g>
<!-- Node36 -->
<g id="Node000036" class="node">
<title>Node36</title>
<g id="a_Node000036"><a xlink:href="_types_8hpp.html" target="_top" xlink:title=" ">
<polygon fill="white" stroke="#666666" points="1042.5,-294 929.5,-294 929.5,-275 1042.5,-275 1042.5,-294"/>
<text text-anchor="middle" x="986" y="-282" font-family="Helvetica,sans-Serif" font-size="10.00">Common/Types.hpp</text>
</a>
</g>
</g>
<!-- Node35&#45;&gt;Node36 -->
<g id="edge51_Node000035_Node000036" class="edge">
<title>Node35&#45;&gt;Node36</title>
<g id="a_edge51_Node000035_Node000036"><a xlink:title=" ">
<path fill="none" stroke="#63b8ff" d="M713.22,-329.98C770.58,-320.63 862.67,-305.61 923.74,-295.65"/>
<polygon fill="#63b8ff" stroke="#63b8ff" points="924.34,-299.1 933.64,-294.04 923.21,-292.19 924.34,-299.1"/>
</a>
</g>
</g>
<!-- Node36&#45;&gt;Node6 -->
<g id="edge52_Node000036_Node000006" class="edge">
<title>Node36&#45;&gt;Node6</title>
<g id="a_edge52_Node000036_Node000006"><a xlink:title=" ">
<path fill="none" stroke="#63b8ff" d="M968.29,-274.95C941.63,-262.24 889.48,-237.91 844,-220 813,-207.79 777.14,-195.66 750.94,-187.15"/>
<polygon fill="#63b8ff" stroke="#63b8ff" points="751.99,-183.82 741.4,-184.08 749.84,-190.48 751.99,-183.82"/>
</a>
</g>
</g>
</g>
</svg>
