<?xml version="1.0" encoding="UTF-8" standalone="no"?>
<!DOCTYPE svg PUBLIC "-//W3C//DTD SVG 1.1//EN"
 "http://www.w3.org/Graphics/SVG/1.1/DTD/svg11.dtd">
<!-- Generated by graphviz version 2.43.0 (0)
 -->
<!-- Title: src/Components/ParticleEmitterComponent.hpp Pages: 1 -->
<svg width="997pt" height="214pt"
 viewBox="0.00 0.00 996.50 214.00" xmlns="http://www.w3.org/2000/svg" xmlns:xlink="http://www.w3.org/1999/xlink">
<g id="graph0" class="graph" transform="scale(1 1) rotate(0) translate(4 210)">
<title>src/Components/ParticleEmitterComponent.hpp</title>
<!-- Node1 -->
<g id="Node000001" class="node">
<title>Node1</title>
<g id="a_Node000001"><a xlink:title=" ">
<polygon fill="#999999" stroke="#666666" points="642,-206 472,-206 472,-176 642,-176 642,-206"/>
<text text-anchor="start" x="480" y="-194" font-family="Helvetica,sans-Serif" font-size="10.00">src/Components/ParticleEmitter</text>
<text text-anchor="middle" x="557" y="-183" font-family="Helvetica,sans-Serif" font-size="10.00">Component.hpp</text>
</a>
</g>
</g>
<!-- Node2 -->
<g id="Node000002" class="node">
<title>Node2</title>
<g id="a_Node000002"><a xlink:href="_builders_8cpp.html" target="_top" xlink:title=" ">
<polygon fill="white" stroke="#666666" points="158,-134.5 0,-134.5 0,-115.5 158,-115.5 158,-134.5"/>
<text text-anchor="middle" x="79" y="-122.5" font-family="Helvetica,sans-Serif" font-size="10.00">src/Serialization/Builders.cpp</text>
</a>
</g>
</g>
<!-- Node1&#45;&gt;Node2 -->
<g id="edge1_Node000001_Node000002" class="edge">
<title>Node1&#45;&gt;Node2</title>
<g id="a_edge1_Node000001_Node000002"><a xlink:title=" ">
<path fill="none" stroke="#63b8ff" d="M461.75,-178.61C382.72,-168.95 267.44,-154.42 167,-140 155.36,-138.33 142.88,-136.42 131.08,-134.55"/>
<polygon fill="#63b8ff" stroke="#63b8ff" points="461.34,-182.08 471.69,-179.82 462.19,-175.13 461.34,-182.08"/>
</a>
</g>
</g>
<!-- Node3 -->
<g id="Node000003" class="node">
<title>Node3</title>
<g id="a_Node000003"><a xlink:href="_particle_system_8hpp.html" target="_top" xlink:title=" ">
<polygon fill="white" stroke="#666666" points="571.5,-134.5 398.5,-134.5 398.5,-115.5 571.5,-115.5 571.5,-134.5"/>
<text text-anchor="middle" x="485" y="-122.5" font-family="Helvetica,sans-Serif" font-size="10.00">src/Systems/ParticleSystem.hpp</text>
</a>
</g>
</g>
<!-- Node1&#45;&gt;Node3 -->
<g id="edge2_Node000001_Node000003" class="edge">
<title>Node1&#45;&gt;Node3</title>
<g id="a_edge2_Node000001_Node000003"><a xlink:title=" ">
<path fill="none" stroke="#63b8ff" d="M533.3,-168.93C520.27,-157.35 504.81,-143.61 494.95,-134.84"/>
<polygon fill="#63b8ff" stroke="#63b8ff" points="531.22,-171.77 541.02,-175.8 535.87,-166.54 531.22,-171.77"/>
</a>
</g>
</g>
<!-- Node8 -->
<g id="Node000008" class="node">
<title>Node8</title>
<g id="a_Node000008"><a xlink:href="_rendering_system_8hpp.html" target="_top" xlink:title=" ">
<polygon fill="white" stroke="#666666" points="362,-134.5 176,-134.5 176,-115.5 362,-115.5 362,-134.5"/>
<text text-anchor="middle" x="269" y="-122.5" font-family="Helvetica,sans-Serif" font-size="10.00">src/Systems/RenderingSystem.hpp</text>
</a>
</g>
</g>
<!-- Node1&#45;&gt;Node8 -->
<g id="edge7_Node000001_Node000008" class="edge">
<title>Node1&#45;&gt;Node8</title>
<g id="a_edge7_Node000001_Node000008"><a xlink:title=" ">
<path fill="none" stroke="#63b8ff" d="M483.89,-173.75C427.67,-161.26 352.24,-144.5 307.33,-134.52"/>
<polygon fill="#63b8ff" stroke="#63b8ff" points="483.28,-177.2 493.8,-175.95 484.79,-170.37 483.28,-177.2"/>
</a>
</g>
</g>
<!-- Node9 -->
<g id="Node000009" class="node">
<title>Node9</title>
<g id="a_Node000009"><a xlink:href="main_8cpp.html" target="_top" xlink:title=" ">
<polygon fill="white" stroke="#666666" points="668.5,-134.5 589.5,-134.5 589.5,-115.5 668.5,-115.5 668.5,-134.5"/>
<text text-anchor="middle" x="629" y="-122.5" font-family="Helvetica,sans-Serif" font-size="10.00">src/main.cpp</text>
</a>
</g>
</g>
<!-- Node1&#45;&gt;Node9 -->
<g id="edge10_Node000001_Node000009" class="edge">
<title>Node1&#45;&gt;Node9</title>
<g id="a_edge10_Node000001_Node000009"><a xlink:title=" ">
<path fill="none" stroke="#63b8ff" d="M580.7,-168.93C593.73,-157.35 609.19,-143.61 619.05,-134.84"/>
<polygon fill="#63b8ff" stroke="#63b8ff" points="578.13,-166.54 572.98,-175.8 582.78,-171.77 578.13,-166.54"/>
</a>
</g>
</g>
<!-- Node10 -->
<g id="Node000010" class="node">
<title>Node10</title>
<g id="a_Node000010"><a xlink:href="_particle_emitter_component_u_i_8hpp.html" target="_top" xlink:title=" ">
<polygon fill="white" stroke="#666666" points="833,-140 687,-140 687,-110 833,-110 833,-140"/>
<text text-anchor="start" x="695" y="-128" font-family="Helvetica,sans-Serif" font-size="10.00">src/ui/Components/Particle</text>
<text text-anchor="middle" x="760" y="-117" font-family="Helvetica,sans-Serif" font-size="10.00">EmitterComponentUI.hpp</text>
</a>
</g>
</g>
<!-- Node1&#45;&gt;Node10 -->
<g id="edge11_Node000001_Node000010" class="edge">
<title>Node1&#45;&gt;Node10</title>
<g id="a_edge11_Node000001_Node000010"><a xlink:title=" ">
<path fill="none" stroke="#63b8ff" d="M611.38,-172.86C643.97,-162.58 684.9,-149.68 715.55,-140.01"/>
<polygon fill="#63b8ff" stroke="#63b8ff" points="610.03,-169.61 601.55,-175.95 612.14,-176.29 610.03,-169.61"/>
</a>
</g>
</g>
<!-- Node11 -->
<g id="Node000011" class="node">
<title>Node11</title>
<g id="a_Node000011"><a xlink:href="_properties_widget_8cpp.html" target="_top" xlink:title=" ">
<polygon fill="white" stroke="#666666" points="988.5,-140 851.5,-140 851.5,-110 988.5,-110 988.5,-140"/>
<text text-anchor="start" x="859.5" y="-128" font-family="Helvetica,sans-Serif" font-size="10.00">src/ui/widgets/Properties</text>
<text text-anchor="middle" x="920" y="-117" font-family="Helvetica,sans-Serif" font-size="10.00">Widget.cpp</text>
</a>
</g>
</g>
<!-- Node1&#45;&gt;Node11 -->
<g id="edge12_Node000001_Node000011" class="edge">
<title>Node1&#45;&gt;Node11</title>
<g id="a_edge12_Node000001_Node000011"><a xlink:title=" ">
<path fill="none" stroke="#63b8ff" d="M647.38,-174.24C703.43,-164.44 776.91,-151.55 842,-140 844.98,-139.47 848.02,-138.93 851.1,-138.38"/>
<polygon fill="#63b8ff" stroke="#63b8ff" points="646.73,-170.8 637.48,-175.97 647.93,-177.69 646.73,-170.8"/>
</a>
</g>
</g>
<!-- Node4 -->
<g id="Node000004" class="node">
<title>Node4</title>
<g id="a_Node000004"><a xlink:href="_runtime_8hpp.html" target="_top" xlink:title=" ">
<polygon fill="white" stroke="#666666" points="360,-74 220,-74 220,-55 360,-55 360,-74"/>
<text text-anchor="middle" x="290" y="-62" font-family="Helvetica,sans-Serif" font-size="10.00">src/Runtime/Runtime.hpp</text>
</a>
</g>
</g>
<!-- Node3&#45;&gt;Node4 -->
<g id="edge3_Node000003_Node000004" class="edge">
<title>Node3&#45;&gt;Node4</title>
<g id="a_edge3_Node000003_Node000004"><a xlink:title=" ">
<path fill="none" stroke="#63b8ff" d="M447.03,-112.61C409.31,-101.29 352.34,-84.2 318.39,-74.02"/>
<polygon fill="#63b8ff" stroke="#63b8ff" points="446.06,-115.97 456.65,-115.49 448.07,-109.27 446.06,-115.97"/>
</a>
</g>
</g>
<!-- Node7 -->
<g id="Node000007" class="node">
<title>Node7</title>
<g id="a_Node000007"><a xlink:href="_particle_system_8cpp.html" target="_top" xlink:title=" ">
<polygon fill="white" stroke="#666666" points="571,-74 399,-74 399,-55 571,-55 571,-74"/>
<text text-anchor="middle" x="485" y="-62" font-family="Helvetica,sans-Serif" font-size="10.00">src/Systems/ParticleSystem.cpp</text>
</a>
</g>
</g>
<!-- Node3&#45;&gt;Node7 -->
<g id="edge6_Node000003_Node000007" class="edge">
<title>Node3&#45;&gt;Node7</title>
<g id="a_edge6_Node000003_Node000007"><a xlink:title=" ">
<path fill="none" stroke="#63b8ff" d="M485,-105.16C485,-94.74 485,-82.3 485,-74.17"/>
<polygon fill="#63b8ff" stroke="#63b8ff" points="481.5,-105.37 485,-115.37 488.5,-105.37 481.5,-105.37"/>
</a>
</g>
</g>
<!-- Node5 -->
<g id="Node000005" class="node">
<title>Node5</title>
<g id="a_Node000005"><a xlink:href="_runtime_8cpp.html" target="_top" xlink:title=" ">
<polygon fill="white" stroke="#666666" points="273,-19 133,-19 133,0 273,0 273,-19"/>
<text text-anchor="middle" x="203" y="-7" font-family="Helvetica,sans-Serif" font-size="10.00">src/Runtime/Runtime.cpp</text>
</a>
</g>
</g>
<!-- Node4&#45;&gt;Node5 -->
<g id="edge4_Node000004_Node000005" class="edge">
<title>Node4&#45;&gt;Node5</title>
<g id="a_edge4_Node000004_Node000005"><a xlink:title=" ">
<path fill="none" stroke="#63b8ff" d="M267.34,-49.7C251.49,-40.04 230.81,-27.44 217.23,-19.17"/>
<polygon fill="#63b8ff" stroke="#63b8ff" points="265.66,-52.77 276.02,-54.98 269.3,-46.79 265.66,-52.77"/>
</a>
</g>
</g>
<!-- Node6 -->
<g id="Node000006" class="node">
<title>Node6</title>
<g id="a_Node000006"><a xlink:href="_scene_widget_8hpp.html" target="_top" xlink:title="Contains the declaration of the SceneWidget class, a user interface widget for rendering scenes.">
<polygon fill="white" stroke="#666666" points="463,-19 291,-19 291,0 463,0 463,-19"/>
<text text-anchor="middle" x="377" y="-7" font-family="Helvetica,sans-Serif" font-size="10.00">src/ui/widgets/SceneWidget.hpp</text>
</a>
</g>
</g>
<!-- Node4&#45;&gt;Node6 -->
<g id="edge5_Node000004_Node000006" class="edge">
<title>Node4&#45;&gt;Node6</title>
<g id="a_edge5_Node000004_Node000006"><a xlink:title=" ">
<path fill="none" stroke="#63b8ff" d="M312.66,-49.7C328.51,-40.04 349.19,-27.44 362.77,-19.17"/>
<polygon fill="#63b8ff" stroke="#63b8ff" points="310.7,-46.79 303.98,-54.98 314.34,-52.77 310.7,-46.79"/>
</a>
</g>
</g>
<!-- Node8&#45;&gt;Node4 -->
<g id="edge8_Node000008_Node000004" class="edge">
<title>Node8&#45;&gt;Node4</title>
<g id="a_edge8_Node000008_Node000004"><a xlink:title=" ">
<path fill="none" stroke="#63b8ff" d="M275.53,-105.82C279.31,-95.28 283.91,-82.48 286.89,-74.17"/>
<polygon fill="#63b8ff" stroke="#63b8ff" points="272.18,-104.77 272.1,-115.37 278.77,-107.14 272.18,-104.77"/>
</a>
</g>
</g>
<!-- Node8&#45;&gt;Node8 -->
<g id="edge9_Node000008_Node000008" class="edge">
<title>Node8&#45;&gt;Node8</title>
<g id="a_edge9_Node000008_Node000008"><a xlink:title=" ">
<path fill="none" stroke="#63b8ff" d="M320.03,-135.52C350.87,-137.92 380,-134.41 380,-125 380,-114.57 344.22,-111.39 309.99,-115.47"/>
<polygon fill="#63b8ff" stroke="#63b8ff" points="320.28,-132.03 309.99,-134.53 319.6,-138.99 320.28,-132.03"/>
</a>
</g>
</g>
</g>
</svg>
