<?xml version="1.0" encoding="UTF-8" standalone="no"?>
<!DOCTYPE svg PUBLIC "-//W3C//DTD SVG 1.1//EN"
 "http://www.w3.org/Graphics/SVG/1.1/DTD/svg11.dtd">
<!-- Generated by graphviz version 2.43.0 (0)
 -->
<!-- Title: src/Systems/ParticleSystem.cpp Pages: 1 -->
<svg width="2387pt" height="544pt"
 viewBox="0.00 0.00 2386.55 544.00" xmlns="http://www.w3.org/2000/svg" xmlns:xlink="http://www.w3.org/1999/xlink">
<g id="graph0" class="graph" transform="scale(1 1) rotate(0) translate(4 540)">
<title>src/Systems/ParticleSystem.cpp</title>
<!-- Node1 -->
<g id="Node000001" class="node">
<title>Node1</title>
<g id="a_Node000001"><a xlink:title=" ">
<polygon fill="#999999" stroke="#666666" points="2094.55,-536 1922.55,-536 1922.55,-517 2094.55,-517 2094.55,-536"/>
<text text-anchor="middle" x="2008.55" y="-524" font-family="Helvetica,sans-Serif" font-size="10.00">src/Systems/ParticleSystem.cpp</text>
</a>
</g>
</g>
<!-- Node2 -->
<g id="Node000002" class="node">
<title>Node2</title>
<g id="a_Node000002"><a xlink:href="_particle_system_8hpp.html" target="_top" xlink:title=" ">
<polygon fill="white" stroke="#666666" points="766.05,-481 611.05,-481 611.05,-462 766.05,-462 766.05,-481"/>
<text text-anchor="middle" x="688.55" y="-469" font-family="Helvetica,sans-Serif" font-size="10.00">Systems/ParticleSystem.hpp</text>
</a>
</g>
</g>
<!-- Node1&#45;&gt;Node2 -->
<g id="edge1_Node000001_Node000002" class="edge">
<title>Node1&#45;&gt;Node2</title>
<g id="a_edge1_Node000001_Node000002"><a xlink:title=" ">
<path fill="none" stroke="#63b8ff" d="M1922.45,-522.04C1684.02,-512.47 1016.92,-485.68 776.4,-476.03"/>
<polygon fill="#63b8ff" stroke="#63b8ff" points="776.44,-472.53 766.3,-475.62 776.16,-479.52 776.44,-472.53"/>
</a>
</g>
</g>
<!-- Node28 -->
<g id="Node000028" class="node">
<title>Node28</title>
<g id="a_Node000028"><a xlink:href="_profiler_8hpp.html" target="_top" xlink:title=" ">
<polygon fill="white" stroke="#666666" points="1900.05,-74 1781.05,-74 1781.05,-55 1900.05,-55 1900.05,-74"/>
<text text-anchor="middle" x="1840.55" y="-62" font-family="Helvetica,sans-Serif" font-size="10.00">Common/Profiler.hpp</text>
</a>
</g>
</g>
<!-- Node1&#45;&gt;Node28 -->
<g id="edge70_Node000001_Node000028" class="edge">
<title>Node1&#45;&gt;Node28</title>
<g id="a_edge70_Node000001_Node000028"><a xlink:title=" ">
<path fill="none" stroke="#63b8ff" d="M2003.42,-516.88C1998.36,-508.09 1990.65,-493.94 1985.55,-481 1952.48,-397.24 1959.83,-371.15 1930.55,-286 1904.23,-209.49 1865.56,-121.11 1848.8,-83.71"/>
<polygon fill="#63b8ff" stroke="#63b8ff" points="1851.81,-81.87 1844.51,-74.19 1845.42,-84.74 1851.81,-81.87"/>
</a>
</g>
</g>
<!-- Node33 -->
<g id="Node000033" class="node">
<title>Node33</title>
<g id="a_Node000033"><a xlink:href="_transform_component_8hpp.html" target="_top" xlink:title=" ">
<polygon fill="white" stroke="#666666" points="1610.05,-360 1403.05,-360 1403.05,-341 1610.05,-341 1610.05,-360"/>
<text text-anchor="middle" x="1506.55" y="-348" font-family="Helvetica,sans-Serif" font-size="10.00">Components/TransformComponent.hpp</text>
</a>
</g>
</g>
<!-- Node1&#45;&gt;Node33 -->
<g id="edge46_Node000001_Node000033" class="edge">
<title>Node1&#45;&gt;Node33</title>
<g id="a_edge46_Node000001_Node000033"><a xlink:title=" ">
<path fill="none" stroke="#63b8ff" d="M1983.99,-516.99C1901.85,-488.52 1636.45,-396.53 1541.08,-363.47"/>
<polygon fill="#63b8ff" stroke="#63b8ff" points="1541.94,-360.06 1531.35,-360.1 1539.65,-366.68 1541.94,-360.06"/>
</a>
</g>
</g>
<!-- Node42 -->
<g id="Node000042" class="node">
<title>Node42</title>
<g id="a_Node000042"><a xlink:href="_s_i_m_d_8hpp.html" target="_top" xlink:title=" ">
<polygon fill="white" stroke="#666666" points="2378.55,-481 2268.55,-481 2268.55,-462 2378.55,-462 2378.55,-481"/>
<text text-anchor="middle" x="2323.55" y="-469" font-family="Helvetica,sans-Serif" font-size="10.00">Common/SIMD.hpp</text>
</a>
</g>
</g>
<!-- Node1&#45;&gt;Node42 -->
<g id="edge60_Node000001_Node000042" class="edge">
<title>Node1&#45;&gt;Node42</title>
<g id="a_edge60_Node000001_Node000042"><a xlink:title=" ">
<path fill="none" stroke="#63b8ff" d="M2059.16,-516.98C2114.64,-507.65 2203.64,-492.67 2262.84,-482.71"/>
<polygon fill="#63b8ff" stroke="#63b8ff" points="2263.52,-486.15 2272.8,-481.04 2262.36,-479.25 2263.52,-486.15"/>
</a>
</g>
</g>
<!-- Node44 -->
<g id="Node000044" class="node">
<title>Node44</title>
<g id="a_Node000044"><a xlink:href="_random_8hpp.html" target="_top" xlink:title=" ">
<polygon fill="white" stroke="#666666" points="2250.05,-481 2125.05,-481 2125.05,-462 2250.05,-462 2250.05,-481"/>
<text text-anchor="middle" x="2187.55" y="-469" font-family="Helvetica,sans-Serif" font-size="10.00">Common/Random.hpp</text>
</a>
</g>
</g>
<!-- Node1&#45;&gt;Node44 -->
<g id="edge62_Node000001_Node000044" class="edge">
<title>Node1&#45;&gt;Node44</title>
<g id="a_edge62_Node000001_Node000044"><a xlink:title=" ">
<path fill="none" stroke="#63b8ff" d="M2037.3,-516.98C2067.49,-508.05 2115.12,-493.94 2148.64,-484.02"/>
<polygon fill="#63b8ff" stroke="#63b8ff" points="2149.97,-487.28 2158.56,-481.08 2147.98,-480.57 2149.97,-487.28"/>
</a>
</g>
</g>
<!-- Node47 -->
<g id="Node000047" class="node">
<title>Node47</title>
<g id="a_Node000047"><a xlink:href="_clock_8hpp.html" target="_top" xlink:title=" ">
<polygon fill="white" stroke="#666666" points="2106.55,-481 1994.55,-481 1994.55,-462 2106.55,-462 2106.55,-481"/>
<text text-anchor="middle" x="2050.55" y="-469" font-family="Helvetica,sans-Serif" font-size="10.00">Common/Clock.hpp</text>
</a>
</g>
</g>
<!-- Node1&#45;&gt;Node47 -->
<g id="edge67_Node000001_Node000047" class="edge">
<title>Node1&#45;&gt;Node47</title>
<g id="a_edge67_Node000001_Node000047"><a xlink:title=" ">
<path fill="none" stroke="#63b8ff" d="M2015.48,-516.75C2021.41,-509.26 2030.12,-498.28 2037.37,-489.13"/>
<polygon fill="#63b8ff" stroke="#63b8ff" points="2040.27,-491.1 2043.74,-481.09 2034.78,-486.75 2040.27,-491.1"/>
</a>
</g>
</g>
<!-- Node3 -->
<g id="Node000003" class="node">
<title>Node3</title>
<g id="a_Node000003"><a xlink:title=" ">
<polygon fill="#e0e0e0" stroke="#999999" points="779.55,-420.5 721.55,-420.5 721.55,-401.5 779.55,-401.5 779.55,-420.5"/>
<text text-anchor="middle" x="750.55" y="-408.5" font-family="Helvetica,sans-Serif" font-size="10.00">memory</text>
</a>
</g>
</g>
<!-- Node2&#45;&gt;Node3 -->
<g id="edge2_Node000002_Node000003" class="edge">
<title>Node2&#45;&gt;Node3</title>
<g id="a_edge2_Node000002_Node000003"><a xlink:title=" ">
<path fill="none" stroke="#63b8ff" d="M697.69,-461.87C707.22,-452.88 722.34,-438.61 733.97,-427.64"/>
<polygon fill="#63b8ff" stroke="#63b8ff" points="736.49,-430.08 741.36,-420.67 731.68,-424.98 736.49,-430.08"/>
</a>
</g>
</g>
<!-- Node4 -->
<g id="Node000004" class="node">
<title>Node4</title>
<g id="a_Node000004"><a xlink:href="_registry_8hpp.html" target="_top" xlink:title=" ">
<polygon fill="white" stroke="#666666" points="372.55,-250 274.55,-250 274.55,-231 372.55,-231 372.55,-250"/>
<text text-anchor="middle" x="323.55" y="-238" font-family="Helvetica,sans-Serif" font-size="10.00">ECS/Registry.hpp</text>
</a>
</g>
</g>
<!-- Node2&#45;&gt;Node4 -->
<g id="edge3_Node000002_Node000004" class="edge">
<title>Node2&#45;&gt;Node4</title>
<g id="a_edge3_Node000002_Node000004"><a xlink:title=" ">
<path fill="none" stroke="#63b8ff" d="M650.72,-461.93C620.44,-454.39 577.28,-442.11 541.55,-426 448.22,-383.93 409.57,-384.88 345.55,-305 335.17,-292.06 329.53,-273.9 326.57,-260.32"/>
<polygon fill="#63b8ff" stroke="#63b8ff" points="329.96,-259.38 324.67,-250.2 323.08,-260.67 329.96,-259.38"/>
</a>
</g>
</g>
<!-- Node17 -->
<g id="Node000017" class="node">
<title>Node17</title>
<g id="a_Node000017"><a xlink:href="_particle_emitter_component_8hpp.html" target="_top" xlink:title=" ">
<polygon fill="white" stroke="#666666" points="703.05,-426 550.05,-426 550.05,-396 703.05,-396 703.05,-426"/>
<text text-anchor="start" x="558.05" y="-414" font-family="Helvetica,sans-Serif" font-size="10.00">Components/ParticleEmitter</text>
<text text-anchor="middle" x="626.55" y="-403" font-family="Helvetica,sans-Serif" font-size="10.00">Component.hpp</text>
</a>
</g>
</g>
<!-- Node2&#45;&gt;Node17 -->
<g id="edge22_Node000002_Node000017" class="edge">
<title>Node2&#45;&gt;Node17</title>
<g id="a_edge22_Node000002_Node000017"><a xlink:title=" ">
<path fill="none" stroke="#63b8ff" d="M679.4,-461.87C671.37,-454.3 659.38,-442.98 648.84,-433.04"/>
<polygon fill="#63b8ff" stroke="#63b8ff" points="651.18,-430.43 641.5,-426.11 646.38,-435.52 651.18,-430.43"/>
</a>
</g>
</g>
<!-- Node5 -->
<g id="Node000005" class="node">
<title>Node5</title>
<g id="a_Node000005"><a xlink:title=" ">
<polygon fill="#e0e0e0" stroke="#999999" points="314.55,-129 228.55,-129 228.55,-110 314.55,-110 314.55,-129"/>
<text text-anchor="middle" x="271.55" y="-117" font-family="Helvetica,sans-Serif" font-size="10.00">unordered_set</text>
</a>
</g>
</g>
<!-- Node4&#45;&gt;Node5 -->
<g id="edge4_Node000004_Node000005" class="edge">
<title>Node4&#45;&gt;Node5</title>
<g id="a_edge4_Node000004_Node000005"><a xlink:title=" ">
<path fill="none" stroke="#63b8ff" d="M274.49,-235.27C247.63,-230.16 216.46,-219.04 199.55,-195 191.87,-184.1 193.05,-176.65 199.55,-165 207.59,-150.58 222.44,-140.24 236.58,-133.18"/>
<polygon fill="#63b8ff" stroke="#63b8ff" points="238.06,-136.36 245.69,-129.01 235.14,-129.99 238.06,-136.36"/>
</a>
</g>
</g>
<!-- Node6 -->
<g id="Node000006" class="node">
<title>Node6</title>
<g id="a_Node000006"><a xlink:href="_logger_8hpp.html" target="_top" xlink:title=" ">
<polygon fill="white" stroke="#666666" points="616.05,-129 499.05,-129 499.05,-110 616.05,-110 616.05,-129"/>
<text text-anchor="middle" x="557.55" y="-117" font-family="Helvetica,sans-Serif" font-size="10.00">Common/Logger.hpp</text>
</a>
</g>
</g>
<!-- Node4&#45;&gt;Node6 -->
<g id="edge5_Node000004_Node000006" class="edge">
<title>Node4&#45;&gt;Node6</title>
<g id="a_edge5_Node000004_Node000006"><a xlink:title=" ">
<path fill="none" stroke="#63b8ff" d="M372.6,-235.34C428.51,-229.59 515.19,-217.32 538.55,-195 553.44,-180.77 557.28,-156.61 557.98,-139.67"/>
<polygon fill="#63b8ff" stroke="#63b8ff" points="561.49,-139.34 558.06,-129.31 554.49,-139.28 561.49,-139.34"/>
</a>
</g>
</g>
<!-- Node9 -->
<g id="Node000009" class="node">
<title>Node9</title>
<g id="a_Node000009"><a xlink:href="_entity_8hpp.html" target="_top" xlink:title=" ">
<polygon fill="white" stroke="#666666" points="128.55,-74 42.55,-74 42.55,-55 128.55,-55 128.55,-74"/>
<text text-anchor="middle" x="85.55" y="-62" font-family="Helvetica,sans-Serif" font-size="10.00">ECS/Entity.hpp</text>
</a>
</g>
</g>
<!-- Node4&#45;&gt;Node9 -->
<g id="edge8_Node000004_Node000009" class="edge">
<title>Node4&#45;&gt;Node9</title>
<g id="a_edge8_Node000004_Node000009"><a xlink:title=" ">
<path fill="none" stroke="#63b8ff" d="M274.32,-240.14C193.67,-240.02 38.91,-234.49 4.55,-195 -9.52,-178.84 13.89,-116.56 18.55,-110 28.06,-96.58 43.01,-86.09 56.37,-78.67"/>
<polygon fill="#63b8ff" stroke="#63b8ff" points="58.03,-81.75 65.29,-74.03 54.8,-75.54 58.03,-81.75"/>
</a>
</g>
</g>
<!-- Node11 -->
<g id="Node000011" class="node">
<title>Node11</title>
<g id="a_Node000011"><a xlink:href="_entity_hierarchy_8hpp.html" target="_top" xlink:title=" ">
<polygon fill="white" stroke="#666666" points="147.55,-189.5 13.55,-189.5 13.55,-170.5 147.55,-170.5 147.55,-189.5"/>
<text text-anchor="middle" x="80.55" y="-177.5" font-family="Helvetica,sans-Serif" font-size="10.00">ECS/EntityHierarchy.hpp</text>
</a>
</g>
</g>
<!-- Node4&#45;&gt;Node11 -->
<g id="edge10_Node000004_Node000011" class="edge">
<title>Node4&#45;&gt;Node11</title>
<g id="a_edge10_Node000004_Node000011"><a xlink:title=" ">
<path fill="none" stroke="#63b8ff" d="M288.21,-230.99C245.29,-220.66 172.81,-203.21 125.83,-191.9"/>
<polygon fill="#63b8ff" stroke="#63b8ff" points="126.46,-188.45 115.92,-189.52 124.83,-195.26 126.46,-188.45"/>
</a>
</g>
</g>
<!-- Node14 -->
<g id="Node000014" class="node">
<title>Node14</title>
<g id="a_Node000014"><a xlink:href="_entity_provider_8hpp.html" target="_top" xlink:title="Manages a pool of unused entity identifiers and provides mechanisms for requesting and removing them.">
<polygon fill="white" stroke="#666666" points="460.55,-129 332.55,-129 332.55,-110 460.55,-110 460.55,-129"/>
<text text-anchor="middle" x="396.55" y="-117" font-family="Helvetica,sans-Serif" font-size="10.00">ECS/EntityProvider.hpp</text>
</a>
</g>
</g>
<!-- Node4&#45;&gt;Node14 -->
<g id="edge15_Node000004_Node000014" class="edge">
<title>Node4&#45;&gt;Node14</title>
<g id="a_edge15_Node000004_Node000014"><a xlink:title=" ">
<path fill="none" stroke="#63b8ff" d="M285.12,-230.96C265.8,-224.52 244.09,-213.5 232.55,-195 225.49,-183.69 224.44,-175.59 232.55,-165 244.31,-149.62 287.13,-138.31 326.06,-130.94"/>
<polygon fill="#63b8ff" stroke="#63b8ff" points="327.17,-134.3 336.38,-129.06 325.92,-127.41 327.17,-134.3"/>
</a>
</g>
</g>
<!-- Node15 -->
<g id="Node000015" class="node">
<title>Node15</title>
<g id="a_Node000015"><a xlink:href="_sparse_set_8hpp.html" target="_top" xlink:title=" ">
<polygon fill="white" stroke="#666666" points="529.55,-189.5 421.55,-189.5 421.55,-170.5 529.55,-170.5 529.55,-189.5"/>
<text text-anchor="middle" x="475.55" y="-177.5" font-family="Helvetica,sans-Serif" font-size="10.00">ECS/SparseSet.hpp</text>
</a>
</g>
</g>
<!-- Node4&#45;&gt;Node15 -->
<g id="edge19_Node000004_Node000015" class="edge">
<title>Node4&#45;&gt;Node15</title>
<g id="a_edge19_Node000004_Node000015"><a xlink:title=" ">
<path fill="none" stroke="#63b8ff" d="M345.65,-230.99C371.54,-221.03 414.62,-204.45 444.02,-193.13"/>
<polygon fill="#63b8ff" stroke="#63b8ff" points="445.34,-196.38 453.42,-189.52 442.83,-189.84 445.34,-196.38"/>
</a>
</g>
</g>
<!-- Node16 -->
<g id="Node000016" class="node">
<title>Node16</title>
<g id="a_Node000016"><a xlink:href="_singleton_component_8hpp.html" target="_top" xlink:title=" ">
<polygon fill="white" stroke="#666666" points="403.05,-189.5 242.05,-189.5 242.05,-170.5 403.05,-170.5 403.05,-189.5"/>
<text text-anchor="middle" x="322.55" y="-177.5" font-family="Helvetica,sans-Serif" font-size="10.00">ECS/SingletonComponent.hpp</text>
</a>
</g>
</g>
<!-- Node4&#45;&gt;Node16 -->
<g id="edge21_Node000004_Node000016" class="edge">
<title>Node4&#45;&gt;Node16</title>
<g id="a_edge21_Node000004_Node000016"><a xlink:title=" ">
<path fill="none" stroke="#63b8ff" d="M323.4,-230.87C323.26,-222.75 323.05,-210.31 322.87,-199.89"/>
<polygon fill="#63b8ff" stroke="#63b8ff" points="326.36,-199.61 322.69,-189.67 319.36,-199.73 326.36,-199.61"/>
</a>
</g>
</g>
<!-- Node7 -->
<g id="Node000007" class="node">
<title>Node7</title>
<g id="a_Node000007"><a xlink:title=" ">
<polygon fill="#e0e0e0" stroke="#999999" points="1168.55,-19 1120.55,-19 1120.55,0 1168.55,0 1168.55,-19"/>
<text text-anchor="middle" x="1144.55" y="-7" font-family="Helvetica,sans-Serif" font-size="10.00">mutex</text>
</a>
</g>
</g>
<!-- Node6&#45;&gt;Node7 -->
<g id="edge6_Node000006_Node000007" class="edge">
<title>Node6&#45;&gt;Node7</title>
<g id="a_edge6_Node000006_Node000007"><a xlink:title=" ">
<path fill="none" stroke="#63b8ff" d="M574.44,-109.81C602.64,-95.74 661.47,-68.2 714.55,-55 858.59,-19.18 1036.71,-12.15 1110.28,-10.8"/>
<polygon fill="#63b8ff" stroke="#63b8ff" points="1110.42,-14.3 1120.36,-10.64 1110.31,-7.3 1110.42,-14.3"/>
</a>
</g>
</g>
<!-- Node8 -->
<g id="Node000008" class="node">
<title>Node8</title>
<g id="a_Node000008"><a xlink:title=" ">
<polygon fill="#e0e0e0" stroke="#999999" points="541.05,-74 494.05,-74 494.05,-55 541.05,-55 541.05,-74"/>
<text text-anchor="middle" x="517.55" y="-62" font-family="Helvetica,sans-Serif" font-size="10.00">queue</text>
</a>
</g>
</g>
<!-- Node6&#45;&gt;Node8 -->
<g id="edge7_Node000006_Node000008" class="edge">
<title>Node6&#45;&gt;Node8</title>
<g id="a_edge7_Node000006_Node000008"><a xlink:title=" ">
<path fill="none" stroke="#63b8ff" d="M550.94,-109.75C545.29,-102.26 537,-91.28 530.09,-82.13"/>
<polygon fill="#63b8ff" stroke="#63b8ff" points="532.85,-79.96 524.03,-74.09 527.26,-84.18 532.85,-79.96"/>
</a>
</g>
</g>
<!-- Node10 -->
<g id="Node000010" class="node">
<title>Node10</title>
<g id="a_Node000010"><a xlink:title=" ">
<polygon fill="#e0e0e0" stroke="#999999" points="228.05,-19 175.05,-19 175.05,0 228.05,0 228.05,-19"/>
<text text-anchor="middle" x="201.55" y="-7" font-family="Helvetica,sans-Serif" font-size="10.00">stdlib.h</text>
</a>
</g>
</g>
<!-- Node9&#45;&gt;Node10 -->
<g id="edge9_Node000009_Node000010" class="edge">
<title>Node9&#45;&gt;Node10</title>
<g id="a_edge9_Node000009_Node000010"><a xlink:title=" ">
<path fill="none" stroke="#63b8ff" d="M104.18,-54.98C122.84,-46.46 151.8,-33.23 173.28,-23.41"/>
<polygon fill="#63b8ff" stroke="#63b8ff" points="174.93,-26.51 182.57,-19.17 172.02,-20.14 174.93,-26.51"/>
</a>
</g>
</g>
<!-- Node11&#45;&gt;Node5 -->
<g id="edge12_Node000011_Node000005" class="edge">
<title>Node11&#45;&gt;Node5</title>
<g id="a_edge12_Node000011_Node000005"><a xlink:title=" ">
<path fill="none" stroke="#63b8ff" d="M108.32,-170.49C141.42,-160.36 196.88,-143.37 233.84,-132.05"/>
<polygon fill="#63b8ff" stroke="#63b8ff" points="235.2,-135.29 243.74,-129.02 233.15,-128.6 235.2,-135.29"/>
</a>
</g>
</g>
<!-- Node11&#45;&gt;Node9 -->
<g id="edge14_Node000011_Node000009" class="edge">
<title>Node11&#45;&gt;Node9</title>
<g id="a_edge14_Node000011_Node000009"><a xlink:title=" ">
<path fill="none" stroke="#63b8ff" d="M64.3,-170.3C43.68,-158.01 12.17,-134.34 24.55,-110 31.31,-96.68 44.14,-86.41 56.3,-79.1"/>
<polygon fill="#63b8ff" stroke="#63b8ff" points="58.29,-81.99 65.35,-74.09 54.9,-75.87 58.29,-81.99"/>
</a>
</g>
</g>
<!-- Node12 -->
<g id="Node000012" class="node">
<title>Node12</title>
<g id="a_Node000012"><a xlink:title=" ">
<polygon fill="#e0e0e0" stroke="#999999" points="210.05,-129 145.05,-129 145.05,-110 210.05,-110 210.05,-129"/>
<text text-anchor="middle" x="177.55" y="-117" font-family="Helvetica,sans-Serif" font-size="10.00">functional</text>
</a>
</g>
</g>
<!-- Node11&#45;&gt;Node12 -->
<g id="edge11_Node000011_Node000012" class="edge">
<title>Node11&#45;&gt;Node12</title>
<g id="a_edge11_Node000011_Node000012"><a xlink:title=" ">
<path fill="none" stroke="#63b8ff" d="M94.86,-170.37C110.55,-160.91 135.95,-145.59 154.46,-134.42"/>
<polygon fill="#63b8ff" stroke="#63b8ff" points="156.42,-137.33 163.17,-129.17 152.8,-131.33 156.42,-137.33"/>
</a>
</g>
</g>
<!-- Node13 -->
<g id="Node000013" class="node">
<title>Node13</title>
<g id="a_Node000013"><a xlink:title=" ">
<polygon fill="#e0e0e0" stroke="#999999" points="127.05,-129 34.05,-129 34.05,-110 127.05,-110 127.05,-129"/>
<text text-anchor="middle" x="80.55" y="-117" font-family="Helvetica,sans-Serif" font-size="10.00">unordered_map</text>
</a>
</g>
</g>
<!-- Node11&#45;&gt;Node13 -->
<g id="edge13_Node000011_Node000013" class="edge">
<title>Node11&#45;&gt;Node13</title>
<g id="a_edge13_Node000011_Node000013"><a xlink:title=" ">
<path fill="none" stroke="#63b8ff" d="M80.55,-170.37C80.55,-162.25 80.55,-149.81 80.55,-139.39"/>
<polygon fill="#63b8ff" stroke="#63b8ff" points="84.05,-139.17 80.55,-129.17 77.05,-139.17 84.05,-139.17"/>
</a>
</g>
</g>
<!-- Node14&#45;&gt;Node8 -->
<g id="edge17_Node000014_Node000008" class="edge">
<title>Node14&#45;&gt;Node8</title>
<g id="a_edge17_Node000014_Node000008"><a xlink:title=" ">
<path fill="none" stroke="#63b8ff" d="M415.99,-109.98C435.54,-101.42 465.93,-88.11 488.37,-78.28"/>
<polygon fill="#63b8ff" stroke="#63b8ff" points="490,-81.39 497.75,-74.17 487.19,-74.98 490,-81.39"/>
</a>
</g>
</g>
<!-- Node14&#45;&gt;Node9 -->
<g id="edge18_Node000014_Node000009" class="edge">
<title>Node14&#45;&gt;Node9</title>
<g id="a_edge18_Node000014_Node000009"><a xlink:title=" ">
<path fill="none" stroke="#63b8ff" d="M346.58,-109.98C289.72,-100.3 197.23,-84.53 138.98,-74.61"/>
<polygon fill="#63b8ff" stroke="#63b8ff" points="139.31,-71.11 128.87,-72.88 138.14,-78.01 139.31,-71.11"/>
</a>
</g>
</g>
<!-- Node14&#45;&gt;Node10 -->
<g id="edge16_Node000014_Node000010" class="edge">
<title>Node14&#45;&gt;Node10</title>
<g id="a_edge16_Node000014_Node000010"><a xlink:title=" ">
<path fill="none" stroke="#63b8ff" d="M380.92,-109.84C347.03,-91.08 266.58,-46.52 225.94,-24.01"/>
<polygon fill="#63b8ff" stroke="#63b8ff" points="227.42,-20.83 216.98,-19.05 224.03,-26.95 227.42,-20.83"/>
</a>
</g>
</g>
<!-- Node15&#45;&gt;Node14 -->
<g id="edge20_Node000015_Node000014" class="edge">
<title>Node15&#45;&gt;Node14</title>
<g id="a_edge20_Node000015_Node000014"><a xlink:title=" ">
<path fill="none" stroke="#63b8ff" d="M463.89,-170.37C451.4,-161.12 431.36,-146.28 416.39,-135.19"/>
<polygon fill="#63b8ff" stroke="#63b8ff" points="418.37,-132.31 408.25,-129.17 414.2,-137.93 418.37,-132.31"/>
</a>
</g>
</g>
<!-- Node18 -->
<g id="Node000018" class="node">
<title>Node18</title>
<g id="a_Node000018"><a xlink:title=" ">
<polygon fill="#e0e0e0" stroke="#999999" points="1159.55,-250 1081.55,-250 1081.55,-231 1159.55,-231 1159.55,-250"/>
<text text-anchor="middle" x="1120.55" y="-238" font-family="Helvetica,sans-Serif" font-size="10.00">glm/glm.hpp</text>
</a>
</g>
</g>
<!-- Node17&#45;&gt;Node18 -->
<g id="edge23_Node000017_Node000018" class="edge">
<title>Node17&#45;&gt;Node18</title>
<g id="a_edge23_Node000017_Node000018"><a xlink:title=" ">
<path fill="none" stroke="#63b8ff" d="M651.77,-395.84C668.85,-386.1 691.81,-372.67 711.55,-360 759.9,-328.97 764.14,-307.19 817.55,-286 902.34,-252.36 1009.58,-243.83 1071.09,-241.85"/>
<polygon fill="#63b8ff" stroke="#63b8ff" points="1071.39,-245.35 1081.29,-241.57 1071.2,-238.35 1071.39,-245.35"/>
</a>
</g>
</g>
<!-- Node19 -->
<g id="Node000019" class="node">
<title>Node19</title>
<g id="a_Node000019"><a xlink:href="_asset_8hpp.html" target="_top" xlink:title=" ">
<polygon fill="white" stroke="#666666" points="492.05,-305 355.05,-305 355.05,-286 492.05,-286 492.05,-305"/>
<text text-anchor="middle" x="423.55" y="-293" font-family="Helvetica,sans-Serif" font-size="10.00">AssetManager/Asset.hpp</text>
</a>
</g>
</g>
<!-- Node17&#45;&gt;Node19 -->
<g id="edge24_Node000017_Node000019" class="edge">
<title>Node17&#45;&gt;Node19</title>
<g id="a_edge24_Node000017_Node000019"><a xlink:title=" ">
<path fill="none" stroke="#63b8ff" d="M601.25,-395.85C561.95,-373.89 486.76,-331.85 448,-310.17"/>
<polygon fill="#63b8ff" stroke="#63b8ff" points="449.41,-306.95 438.97,-305.12 445.99,-313.06 449.41,-306.95"/>
</a>
</g>
</g>
<!-- Node21 -->
<g id="Node000021" class="node">
<title>Node21</title>
<g id="a_Node000021"><a xlink:href="_material_8hpp.html" target="_top" xlink:title=" ">
<polygon fill="white" stroke="#666666" points="702.05,-360 551.05,-360 551.05,-341 702.05,-341 702.05,-360"/>
<text text-anchor="middle" x="626.55" y="-348" font-family="Helvetica,sans-Serif" font-size="10.00">AssetManager/Material.hpp</text>
</a>
</g>
</g>
<!-- Node17&#45;&gt;Node21 -->
<g id="edge27_Node000017_Node000021" class="edge">
<title>Node17&#45;&gt;Node21</title>
<g id="a_edge27_Node000017_Node000021"><a xlink:title=" ">
<path fill="none" stroke="#63b8ff" d="M626.55,-395.84C626.55,-388.21 626.55,-378.7 626.55,-370.45"/>
<polygon fill="#63b8ff" stroke="#63b8ff" points="630.05,-370.27 626.55,-360.27 623.05,-370.27 630.05,-370.27"/>
</a>
</g>
</g>
<!-- Node19&#45;&gt;Node4 -->
<g id="edge26_Node000019_Node000004" class="edge">
<title>Node19&#45;&gt;Node4</title>
<g id="a_edge26_Node000019_Node000004"><a xlink:title=" ">
<path fill="none" stroke="#63b8ff" d="M407.48,-285.98C391.68,-277.61 367.33,-264.7 348.91,-254.95"/>
<polygon fill="#63b8ff" stroke="#63b8ff" points="350.38,-251.76 339.9,-250.17 347.1,-257.95 350.38,-251.76"/>
</a>
</g>
</g>
<!-- Node20 -->
<g id="Node000020" class="node">
<title>Node20</title>
<g id="a_Node000020"><a xlink:title=" ">
<polygon fill="#e0e0e0" stroke="#999999" points="916.55,-129 848.55,-129 848.55,-110 916.55,-110 916.55,-129"/>
<text text-anchor="middle" x="882.55" y="-117" font-family="Helvetica,sans-Serif" font-size="10.00">filesystem</text>
</a>
</g>
</g>
<!-- Node19&#45;&gt;Node20 -->
<g id="edge25_Node000019_Node000020" class="edge">
<title>Node19&#45;&gt;Node20</title>
<g id="a_edge25_Node000019_Node000020"><a xlink:title=" ">
<path fill="none" stroke="#63b8ff" d="M436.6,-285.97C472.44,-262.95 575.99,-198.97 670.55,-165 678.45,-162.16 778.58,-141.61 838.36,-129.45"/>
<polygon fill="#63b8ff" stroke="#63b8ff" points="839.2,-132.85 848.3,-127.43 837.8,-125.99 839.2,-132.85"/>
</a>
</g>
</g>
<!-- Node21&#45;&gt;Node18 -->
<g id="edge28_Node000021_Node000018" class="edge">
<title>Node21&#45;&gt;Node18</title>
<g id="a_edge28_Node000021_Node000018"><a xlink:title=" ">
<path fill="none" stroke="#63b8ff" d="M649.58,-340.95C672.89,-332.21 709.9,-318.11 741.55,-305 760.85,-297.01 764.43,-291.65 784.55,-286 884.03,-258.05 1005.13,-247.51 1071.38,-243.64"/>
<polygon fill="#63b8ff" stroke="#63b8ff" points="1071.74,-247.13 1081.53,-243.08 1071.35,-240.14 1071.74,-247.13"/>
</a>
</g>
</g>
<!-- Node21&#45;&gt;Node19 -->
<g id="edge29_Node000021_Node000019" class="edge">
<title>Node21&#45;&gt;Node19</title>
<g id="a_edge29_Node000021_Node000019"><a xlink:title=" ">
<path fill="none" stroke="#63b8ff" d="M593.93,-340.98C559.26,-331.93 504.28,-317.58 466.2,-307.64"/>
<polygon fill="#63b8ff" stroke="#63b8ff" points="466.98,-304.22 456.42,-305.08 465.21,-310.99 466.98,-304.22"/>
</a>
</g>
</g>
<!-- Node22 -->
<g id="Node000022" class="node">
<title>Node22</title>
<g id="a_Node000022"><a xlink:href="_texture_8hpp.html" target="_top" xlink:title=" ">
<polygon fill="white" stroke="#666666" points="732.55,-305 586.55,-305 586.55,-286 732.55,-286 732.55,-305"/>
<text text-anchor="middle" x="659.55" y="-293" font-family="Helvetica,sans-Serif" font-size="10.00">AssetManager/Texture.hpp</text>
</a>
</g>
</g>
<!-- Node21&#45;&gt;Node22 -->
<g id="edge30_Node000021_Node000022" class="edge">
<title>Node21&#45;&gt;Node22</title>
<g id="a_edge30_Node000021_Node000022"><a xlink:title=" ">
<path fill="none" stroke="#63b8ff" d="M631.99,-340.75C636.56,-333.42 643.21,-322.73 648.84,-313.7"/>
<polygon fill="#63b8ff" stroke="#63b8ff" points="651.88,-315.43 654.2,-305.09 645.94,-311.73 651.88,-315.43"/>
</a>
</g>
</g>
<!-- Node26 -->
<g id="Node000026" class="node">
<title>Node26</title>
<g id="a_Node000026"><a xlink:href="_instance_counter_8hpp.html" target="_top" xlink:title=" ">
<polygon fill="white" stroke="#666666" points="830.55,-129 666.55,-129 666.55,-110 830.55,-110 830.55,-129"/>
<text text-anchor="middle" x="748.55" y="-117" font-family="Helvetica,sans-Serif" font-size="10.00">Common/InstanceCounter.hpp</text>
</a>
</g>
</g>
<!-- Node21&#45;&gt;Node26 -->
<g id="edge45_Node000021_Node000026" class="edge">
<title>Node21&#45;&gt;Node26</title>
<g id="a_edge45_Node000021_Node000026"><a xlink:title=" ">
<path fill="none" stroke="#63b8ff" d="M611.42,-340.73C599.73,-332.99 584.43,-320.55 577.55,-305 574.13,-297.28 575.03,-294.06 577.55,-286 597.74,-221.25 618.55,-208.55 670.55,-165 685.59,-152.4 704.7,-141.43 720.23,-133.54"/>
<polygon fill="#63b8ff" stroke="#63b8ff" points="721.96,-136.59 729.38,-129.03 718.86,-130.31 721.96,-136.59"/>
</a>
</g>
</g>
<!-- Node22&#45;&gt;Node18 -->
<g id="edge32_Node000022_Node000018" class="edge">
<title>Node22&#45;&gt;Node18</title>
<g id="a_edge32_Node000022_Node000018"><a xlink:title=" ">
<path fill="none" stroke="#63b8ff" d="M732.59,-286.1C827.42,-275.2 990.37,-256.47 1071.57,-247.13"/>
<polygon fill="#63b8ff" stroke="#63b8ff" points="1072,-250.6 1081.53,-245.99 1071.2,-243.65 1072,-250.6"/>
</a>
</g>
</g>
<!-- Node23 -->
<g id="Node000023" class="node">
<title>Node23</title>
<g id="a_Node000023"><a xlink:title=" ">
<polygon fill="#e0e0e0" stroke="#999999" points="695.05,-250 624.05,-250 624.05,-231 695.05,-231 695.05,-250"/>
<text text-anchor="middle" x="659.55" y="-238" font-family="Helvetica,sans-Serif" font-size="10.00">glad/glad.h</text>
</a>
</g>
</g>
<!-- Node22&#45;&gt;Node23 -->
<g id="edge31_Node000022_Node000023" class="edge">
<title>Node22&#45;&gt;Node23</title>
<g id="a_edge31_Node000022_Node000023"><a xlink:title=" ">
<path fill="none" stroke="#63b8ff" d="M659.55,-285.75C659.55,-278.8 659.55,-268.85 659.55,-260.13"/>
<polygon fill="#63b8ff" stroke="#63b8ff" points="663.05,-260.09 659.55,-250.09 656.05,-260.09 663.05,-260.09"/>
</a>
</g>
</g>
<!-- Node24 -->
<g id="Node000024" class="node">
<title>Node24</title>
<g id="a_Node000024"><a xlink:href="_image_8hpp.html" target="_top" xlink:title=" ">
<polygon fill="white" stroke="#666666" points="854.05,-250 713.05,-250 713.05,-231 854.05,-231 854.05,-250"/>
<text text-anchor="middle" x="783.55" y="-238" font-family="Helvetica,sans-Serif" font-size="10.00">AssetManager/Image.hpp</text>
</a>
</g>
</g>
<!-- Node22&#45;&gt;Node24 -->
<g id="edge33_Node000022_Node000024" class="edge">
<title>Node22&#45;&gt;Node24</title>
<g id="a_edge33_Node000022_Node000024"><a xlink:title=" ">
<path fill="none" stroke="#63b8ff" d="M679.47,-285.98C699.6,-277.38 730.92,-263.99 753.95,-254.15"/>
<polygon fill="#63b8ff" stroke="#63b8ff" points="755.44,-257.32 763.26,-250.17 752.69,-250.88 755.44,-257.32"/>
</a>
</g>
</g>
<!-- Node24&#45;&gt;Node20 -->
<g id="edge34_Node000024_Node000020" class="edge">
<title>Node24&#45;&gt;Node20</title>
<g id="a_edge34_Node000024_Node000020"><a xlink:title=" ">
<path fill="none" stroke="#63b8ff" d="M810.34,-230.93C827.96,-223.95 850.16,-212.37 863.55,-195 875.87,-179 880.26,-155.9 881.79,-139.67"/>
<polygon fill="#63b8ff" stroke="#63b8ff" points="885.31,-139.48 882.48,-129.27 878.33,-139.02 885.31,-139.48"/>
</a>
</g>
</g>
<!-- Node25 -->
<g id="Node000025" class="node">
<title>Node25</title>
<g id="a_Node000025"><a xlink:href="_path_constructible_asset_8hpp.html" target="_top" xlink:title=" ">
<polygon fill="white" stroke="#666666" points="854.05,-195 679.05,-195 679.05,-165 854.05,-165 854.05,-195"/>
<text text-anchor="start" x="687.05" y="-183" font-family="Helvetica,sans-Serif" font-size="10.00">AssetManager/PathConstructible</text>
<text text-anchor="middle" x="766.55" y="-172" font-family="Helvetica,sans-Serif" font-size="10.00">Asset.hpp</text>
</a>
</g>
</g>
<!-- Node24&#45;&gt;Node25 -->
<g id="edge35_Node000024_Node000025" class="edge">
<title>Node24&#45;&gt;Node25</title>
<g id="a_edge35_Node000024_Node000025"><a xlink:title=" ">
<path fill="none" stroke="#63b8ff" d="M781.04,-230.87C779.05,-224.03 776.18,-214.14 773.51,-204.97"/>
<polygon fill="#63b8ff" stroke="#63b8ff" points="776.8,-203.74 770.65,-195.11 770.08,-205.69 776.8,-203.74"/>
</a>
</g>
</g>
<!-- Node25&#45;&gt;Node20 -->
<g id="edge36_Node000025_Node000020" class="edge">
<title>Node25&#45;&gt;Node20</title>
<g id="a_edge36_Node000025_Node000020"><a xlink:title=" ">
<path fill="none" stroke="#63b8ff" d="M794.33,-164.99C813.17,-155.49 837.9,-143.02 856.38,-133.69"/>
<polygon fill="#63b8ff" stroke="#63b8ff" points="858.06,-136.77 865.41,-129.14 854.91,-130.52 858.06,-136.77"/>
</a>
</g>
</g>
<!-- Node25&#45;&gt;Node26 -->
<g id="edge37_Node000025_Node000026" class="edge">
<title>Node25&#45;&gt;Node26</title>
<g id="a_edge37_Node000025_Node000026"><a xlink:title=" ">
<path fill="none" stroke="#63b8ff" d="M762.19,-164.84C759.79,-157.04 756.78,-147.27 754.2,-138.89"/>
<polygon fill="#63b8ff" stroke="#63b8ff" points="757.53,-137.79 751.24,-129.27 750.84,-139.85 757.53,-137.79"/>
</a>
</g>
</g>
<!-- Node27 -->
<g id="Node000027" class="node">
<title>Node27</title>
<g id="a_Node000027"><a xlink:title=" ">
<polygon fill="#e0e0e0" stroke="#999999" points="773.55,-74 723.55,-74 723.55,-55 773.55,-55 773.55,-74"/>
<text text-anchor="middle" x="748.55" y="-62" font-family="Helvetica,sans-Serif" font-size="10.00">atomic</text>
</a>
</g>
</g>
<!-- Node26&#45;&gt;Node27 -->
<g id="edge38_Node000026_Node000027" class="edge">
<title>Node26&#45;&gt;Node27</title>
<g id="a_edge38_Node000026_Node000027"><a xlink:title=" ">
<path fill="none" stroke="#63b8ff" d="M748.55,-109.75C748.55,-102.8 748.55,-92.85 748.55,-84.13"/>
<polygon fill="#63b8ff" stroke="#63b8ff" points="752.05,-84.09 748.55,-74.09 745.05,-84.09 752.05,-84.09"/>
</a>
</g>
</g>
<!-- Node26&#45;&gt;Node28 -->
<g id="edge39_Node000026_Node000028" class="edge">
<title>Node26&#45;&gt;Node28</title>
<g id="a_edge39_Node000026_Node000028"><a xlink:title=" ">
<path fill="none" stroke="#63b8ff" d="M830.87,-110.63C833.8,-110.41 836.7,-110.2 839.55,-110 1188.73,-85.94 1607.38,-72.21 1770.59,-67.44"/>
<polygon fill="#63b8ff" stroke="#63b8ff" points="1771.08,-70.92 1780.97,-67.14 1770.87,-63.93 1771.08,-70.92"/>
</a>
</g>
</g>
<!-- Node28&#45;&gt;Node7 -->
<g id="edge42_Node000028_Node000007" class="edge">
<title>Node28&#45;&gt;Node7</title>
<g id="a_edge42_Node000028_Node000007"><a xlink:title=" ">
<path fill="none" stroke="#63b8ff" d="M1780.9,-58.96C1640.07,-48.23 1290.38,-21.61 1179.12,-13.13"/>
<polygon fill="#63b8ff" stroke="#63b8ff" points="1179.05,-9.62 1168.82,-12.35 1178.52,-16.6 1179.05,-9.62"/>
</a>
</g>
</g>
<!-- Node29 -->
<g id="Node000029" class="node">
<title>Node29</title>
<g id="a_Node000029"><a xlink:title=" ">
<polygon fill="#e0e0e0" stroke="#999999" points="2042.55,-19 1992.55,-19 1992.55,0 2042.55,0 2042.55,-19"/>
<text text-anchor="middle" x="2017.55" y="-7" font-family="Helvetica,sans-Serif" font-size="10.00">chrono</text>
</a>
</g>
</g>
<!-- Node28&#45;&gt;Node29 -->
<g id="edge40_Node000028_Node000029" class="edge">
<title>Node28&#45;&gt;Node29</title>
<g id="a_edge40_Node000028_Node000029"><a xlink:title=" ">
<path fill="none" stroke="#63b8ff" d="M1868.98,-54.98C1899.89,-45.73 1949.3,-30.93 1982.57,-20.97"/>
<polygon fill="#63b8ff" stroke="#63b8ff" points="1983.75,-24.27 1992.33,-18.05 1981.75,-17.57 1983.75,-24.27"/>
</a>
</g>
</g>
<!-- Node30 -->
<g id="Node000030" class="node">
<title>Node30</title>
<g id="a_Node000030"><a xlink:title=" ">
<polygon fill="#e0e0e0" stroke="#999999" points="1870.55,-19 1822.55,-19 1822.55,0 1870.55,0 1870.55,-19"/>
<text text-anchor="middle" x="1846.55" y="-7" font-family="Helvetica,sans-Serif" font-size="10.00">thread</text>
</a>
</g>
</g>
<!-- Node28&#45;&gt;Node30 -->
<g id="edge41_Node000028_Node000030" class="edge">
<title>Node28&#45;&gt;Node30</title>
<g id="a_edge41_Node000028_Node000030"><a xlink:title=" ">
<path fill="none" stroke="#63b8ff" d="M1841.54,-54.75C1842.32,-47.8 1843.45,-37.85 1844.44,-29.13"/>
<polygon fill="#63b8ff" stroke="#63b8ff" points="1847.93,-29.42 1845.57,-19.09 1840.97,-28.63 1847.93,-29.42"/>
</a>
</g>
</g>
<!-- Node31 -->
<g id="Node000031" class="node">
<title>Node31</title>
<g id="a_Node000031"><a xlink:title=" ">
<polygon fill="#e0e0e0" stroke="#999999" points="1804.55,-19 1766.55,-19 1766.55,0 1804.55,0 1804.55,-19"/>
<text text-anchor="middle" x="1785.55" y="-7" font-family="Helvetica,sans-Serif" font-size="10.00">map</text>
</a>
</g>
</g>
<!-- Node28&#45;&gt;Node31 -->
<g id="edge43_Node000028_Node000031" class="edge">
<title>Node28&#45;&gt;Node31</title>
<g id="a_edge43_Node000028_Node000031"><a xlink:title=" ">
<path fill="none" stroke="#63b8ff" d="M1831.46,-54.75C1823.45,-47.03 1811.59,-35.6 1801.92,-26.28"/>
<polygon fill="#63b8ff" stroke="#63b8ff" points="1804.09,-23.51 1794.46,-19.09 1799.23,-28.55 1804.09,-23.51"/>
</a>
</g>
</g>
<!-- Node32 -->
<g id="Node000032" class="node">
<title>Node32</title>
<g id="a_Node000032"><a xlink:title=" ">
<polygon fill="#e0e0e0" stroke="#999999" points="1944.55,-19 1900.55,-19 1900.55,0 1944.55,0 1944.55,-19"/>
<text text-anchor="middle" x="1922.55" y="-7" font-family="Helvetica,sans-Serif" font-size="10.00">string</text>
</a>
</g>
</g>
<!-- Node28&#45;&gt;Node32 -->
<g id="edge44_Node000028_Node000032" class="edge">
<title>Node28&#45;&gt;Node32</title>
<g id="a_edge44_Node000028_Node000032"><a xlink:title=" ">
<path fill="none" stroke="#63b8ff" d="M1853.72,-54.98C1866.32,-46.84 1885.55,-34.41 1900.48,-24.76"/>
<polygon fill="#63b8ff" stroke="#63b8ff" points="1902.63,-27.54 1909.13,-19.17 1898.83,-21.66 1902.63,-27.54"/>
</a>
</g>
</g>
<!-- Node33&#45;&gt;Node4 -->
<g id="edge56_Node000033_Node000004" class="edge">
<title>Node33&#45;&gt;Node4</title>
<g id="a_edge56_Node000033_Node000004"><a xlink:title=" ">
<path fill="none" stroke="#63b8ff" d="M1402.77,-347.11C1194.9,-341.89 733.99,-328.07 577.55,-305 577.55,-305 440.34,-270.7 367.61,-252.52"/>
<polygon fill="#63b8ff" stroke="#63b8ff" points="368.35,-249.09 357.8,-250.06 366.65,-255.88 368.35,-249.09"/>
</a>
</g>
</g>
<!-- Node33&#45;&gt;Node18 -->
<g id="edge49_Node000033_Node000018" class="edge">
<title>Node33&#45;&gt;Node18</title>
<g id="a_edge49_Node000033_Node000018"><a xlink:title=" ">
<path fill="none" stroke="#63b8ff" d="M1506.73,-340.95C1506.52,-327.07 1503.91,-299.79 1487.55,-286 1440.58,-246.41 1258.65,-241.15 1169.86,-241.01"/>
<polygon fill="#63b8ff" stroke="#63b8ff" points="1169.76,-237.51 1159.76,-241.01 1169.77,-244.51 1169.76,-237.51"/>
</a>
</g>
</g>
<!-- Node33&#45;&gt;Node32 -->
<g id="edge47_Node000033_Node000032" class="edge">
<title>Node33&#45;&gt;Node32</title>
<g id="a_edge47_Node000033_Node000032"><a xlink:title=" ">
<path fill="none" stroke="#63b8ff" d="M1610.12,-343.96C1721.86,-337.06 1886.94,-323.85 1909.55,-305 1932.17,-286.13 1928.55,-270.96 1928.55,-241.5 1928.55,-241.5 1928.55,-241.5 1928.55,-118.5 1928.55,-87.14 1925.99,-50.74 1924.22,-29.22"/>
<polygon fill="#63b8ff" stroke="#63b8ff" points="1927.7,-28.83 1923.35,-19.17 1920.72,-29.43 1927.7,-28.83"/>
</a>
</g>
</g>
<!-- Node34 -->
<g id="Node000034" class="node">
<title>Node34</title>
<g id="a_Node000034"><a xlink:title=" ">
<polygon fill="#e0e0e0" stroke="#999999" points="1700.55,-305 1640.55,-305 1640.55,-286 1700.55,-286 1700.55,-305"/>
<text text-anchor="middle" x="1670.55" y="-293" font-family="Helvetica,sans-Serif" font-size="10.00">iostream</text>
</a>
</g>
</g>
<!-- Node33&#45;&gt;Node34 -->
<g id="edge48_Node000033_Node000034" class="edge">
<title>Node33&#45;&gt;Node34</title>
<g id="a_edge48_Node000033_Node000034"><a xlink:title=" ">
<path fill="none" stroke="#63b8ff" d="M1532.89,-340.98C1560.31,-332.13 1603.44,-318.19 1634.11,-308.28"/>
<polygon fill="#63b8ff" stroke="#63b8ff" points="1635.55,-311.49 1643.99,-305.08 1633.4,-304.83 1635.55,-311.49"/>
</a>
</g>
</g>
<!-- Node35 -->
<g id="Node000035" class="node">
<title>Node35</title>
<g id="a_Node000035"><a xlink:title=" ">
<polygon fill="#e0e0e0" stroke="#999999" points="956.55,-305 826.55,-305 826.55,-286 956.55,-286 956.55,-305"/>
<text text-anchor="middle" x="891.55" y="-293" font-family="Helvetica,sans-Serif" font-size="10.00">glm/gtc/quaternion.hpp</text>
</a>
</g>
</g>
<!-- Node33&#45;&gt;Node35 -->
<g id="edge50_Node000033_Node000035" class="edge">
<title>Node33&#45;&gt;Node35</title>
<g id="a_edge50_Node000033_Node000035"><a xlink:title=" ">
<path fill="none" stroke="#63b8ff" d="M1402.94,-341.91C1294.17,-333.72 1118.21,-319.84 966.55,-305 966.44,-304.99 966.34,-304.98 966.24,-304.97"/>
<polygon fill="#63b8ff" stroke="#63b8ff" points="966.88,-301.52 956.57,-303.99 966.17,-308.48 966.88,-301.52"/>
</a>
</g>
</g>
<!-- Node36 -->
<g id="Node000036" class="node">
<title>Node36</title>
<g id="a_Node000036"><a xlink:title=" ">
<polygon fill="#e0e0e0" stroke="#999999" points="1138.05,-305 975.05,-305 975.05,-286 1138.05,-286 1138.05,-305"/>
<text text-anchor="middle" x="1056.55" y="-293" font-family="Helvetica,sans-Serif" font-size="10.00">glm/gtc/matrix_transform.hpp</text>
</a>
</g>
</g>
<!-- Node33&#45;&gt;Node36 -->
<g id="edge51_Node000033_Node000036" class="edge">
<title>Node33&#45;&gt;Node36</title>
<g id="a_edge51_Node000033_Node000036"><a xlink:title=" ">
<path fill="none" stroke="#63b8ff" d="M1434.24,-340.98C1353.67,-331.49 1223.63,-316.18 1139.11,-306.22"/>
<polygon fill="#63b8ff" stroke="#63b8ff" points="1139.38,-302.73 1129.04,-305.04 1138.56,-309.68 1139.38,-302.73"/>
</a>
</g>
</g>
<!-- Node37 -->
<g id="Node000037" class="node">
<title>Node37</title>
<g id="a_Node000037"><a xlink:title=" ">
<polygon fill="#e0e0e0" stroke="#999999" points="1328.55,-305 1156.55,-305 1156.55,-286 1328.55,-286 1328.55,-305"/>
<text text-anchor="middle" x="1242.55" y="-293" font-family="Helvetica,sans-Serif" font-size="10.00">glm/gtx/matrix_decompose.hpp</text>
</a>
</g>
</g>
<!-- Node33&#45;&gt;Node37 -->
<g id="edge52_Node000033_Node000037" class="edge">
<title>Node33&#45;&gt;Node37</title>
<g id="a_edge52_Node000033_Node000037"><a xlink:title=" ">
<path fill="none" stroke="#63b8ff" d="M1464.13,-340.98C1418.18,-331.76 1344.8,-317.03 1295.19,-307.07"/>
<polygon fill="#63b8ff" stroke="#63b8ff" points="1295.79,-303.62 1285.29,-305.08 1294.41,-310.48 1295.79,-303.62"/>
</a>
</g>
</g>
<!-- Node38 -->
<g id="Node000038" class="node">
<title>Node38</title>
<g id="a_Node000038"><a xlink:title=" ">
<polygon fill="#e0e0e0" stroke="#999999" points="1478.05,-305 1347.05,-305 1347.05,-286 1478.05,-286 1478.05,-305"/>
<text text-anchor="middle" x="1412.55" y="-293" font-family="Helvetica,sans-Serif" font-size="10.00">glm/gtx/string_cast.hpp</text>
</a>
</g>
</g>
<!-- Node33&#45;&gt;Node38 -->
<g id="edge53_Node000033_Node000038" class="edge">
<title>Node33&#45;&gt;Node38</title>
<g id="a_edge53_Node000033_Node000038"><a xlink:title=" ">
<path fill="none" stroke="#63b8ff" d="M1491.44,-340.98C1476.73,-332.69 1454.12,-319.94 1436.87,-310.22"/>
<polygon fill="#63b8ff" stroke="#63b8ff" points="1438.35,-307.03 1427.92,-305.17 1434.91,-313.13 1438.35,-307.03"/>
</a>
</g>
</g>
<!-- Node39 -->
<g id="Node000039" class="node">
<title>Node39</title>
<g id="a_Node000039"><a xlink:href="_math_2_utils_8hpp.html" target="_top" xlink:title=" ">
<polygon fill="white" stroke="#666666" points="1622.55,-305 1534.55,-305 1534.55,-286 1622.55,-286 1622.55,-305"/>
<text text-anchor="middle" x="1578.55" y="-293" font-family="Helvetica,sans-Serif" font-size="10.00">Math/Utils.hpp</text>
</a>
</g>
</g>
<!-- Node33&#45;&gt;Node39 -->
<g id="edge54_Node000033_Node000039" class="edge">
<title>Node33&#45;&gt;Node39</title>
<g id="a_edge54_Node000033_Node000039"><a xlink:title=" ">
<path fill="none" stroke="#63b8ff" d="M1518.11,-340.98C1528.97,-333 1545.43,-320.88 1558.43,-311.31"/>
<polygon fill="#63b8ff" stroke="#63b8ff" points="1560.79,-313.92 1566.77,-305.17 1556.64,-308.28 1560.79,-313.92"/>
</a>
</g>
</g>
<!-- Node40 -->
<g id="Node000040" class="node">
<title>Node40</title>
<g id="a_Node000040"><a xlink:href="_base_component_8hpp.html" target="_top" xlink:title=" ">
<polygon fill="white" stroke="#666666" points="1900.55,-305 1718.55,-305 1718.55,-286 1900.55,-286 1900.55,-305"/>
<text text-anchor="middle" x="1809.55" y="-293" font-family="Helvetica,sans-Serif" font-size="10.00">Components/BaseComponent.hpp</text>
</a>
</g>
</g>
<!-- Node33&#45;&gt;Node40 -->
<g id="edge57_Node000033_Node000040" class="edge">
<title>Node33&#45;&gt;Node40</title>
<g id="a_edge57_Node000033_Node000040"><a xlink:title=" ">
<path fill="none" stroke="#63b8ff" d="M1555.23,-340.98C1608.49,-331.67 1693.85,-316.74 1750.8,-306.78"/>
<polygon fill="#63b8ff" stroke="#63b8ff" points="1751.49,-310.21 1760.73,-305.04 1750.28,-303.31 1751.49,-310.21"/>
</a>
</g>
</g>
<!-- Node39&#45;&gt;Node18 -->
<g id="edge55_Node000039_Node000018" class="edge">
<title>Node39&#45;&gt;Node18</title>
<g id="a_edge55_Node000039_Node000018"><a xlink:title=" ">
<path fill="none" stroke="#63b8ff" d="M1534.23,-287.84C1529.61,-287.2 1524.99,-286.57 1520.55,-286 1394.46,-269.75 1245.55,-254.12 1169.95,-246.44"/>
<polygon fill="#63b8ff" stroke="#63b8ff" points="1170.08,-242.93 1159.78,-245.41 1169.37,-249.9 1170.08,-242.93"/>
</a>
</g>
</g>
<!-- Node41 -->
<g id="Node000041" class="node">
<title>Node41</title>
<g id="a_Node000041"><a xlink:href="_types_8hpp.html" target="_top" xlink:title=" ">
<polygon fill="white" stroke="#666666" points="1239.05,-189.5 1126.05,-189.5 1126.05,-170.5 1239.05,-170.5 1239.05,-189.5"/>
<text text-anchor="middle" x="1182.55" y="-177.5" font-family="Helvetica,sans-Serif" font-size="10.00">Common/Types.hpp</text>
</a>
</g>
</g>
<!-- Node40&#45;&gt;Node41 -->
<g id="edge58_Node000040_Node000041" class="edge">
<title>Node40&#45;&gt;Node41</title>
<g id="a_edge58_Node000040_Node000041"><a xlink:title=" ">
<path fill="none" stroke="#63b8ff" d="M1762.42,-285.97C1649.26,-265.49 1362.51,-213.58 1239.75,-191.35"/>
<polygon fill="#63b8ff" stroke="#63b8ff" points="1240.25,-187.89 1229.79,-189.55 1239.01,-194.78 1240.25,-187.89"/>
</a>
</g>
</g>
<!-- Node41&#45;&gt;Node20 -->
<g id="edge59_Node000041_Node000020" class="edge">
<title>Node41&#45;&gt;Node20</title>
<g id="a_edge59_Node000041_Node000020"><a xlink:title=" ">
<path fill="none" stroke="#63b8ff" d="M1138.92,-170.49C1082.32,-159.46 984.07,-140.3 927.04,-129.18"/>
<polygon fill="#63b8ff" stroke="#63b8ff" points="927.38,-125.68 916.89,-127.2 926.04,-132.55 927.38,-125.68"/>
</a>
</g>
</g>
<!-- Node43 -->
<g id="Node000043" class="node">
<title>Node43</title>
<g id="a_Node000043"><a xlink:title=" ">
<polygon fill="#e0e0e0" stroke="#999999" points="2318.05,-420.5 2271.05,-420.5 2271.05,-401.5 2318.05,-401.5 2318.05,-420.5"/>
<text text-anchor="middle" x="2294.55" y="-408.5" font-family="Helvetica,sans-Serif" font-size="10.00">vector</text>
</a>
</g>
</g>
<!-- Node42&#45;&gt;Node43 -->
<g id="edge61_Node000042_Node000043" class="edge">
<title>Node42&#45;&gt;Node43</title>
<g id="a_edge61_Node000042_Node000043"><a xlink:title=" ">
<path fill="none" stroke="#63b8ff" d="M2319.27,-461.87C2315.11,-453.49 2308.68,-440.51 2303.42,-429.89"/>
<polygon fill="#63b8ff" stroke="#63b8ff" points="2306.42,-428.07 2298.84,-420.67 2300.15,-431.18 2306.42,-428.07"/>
</a>
</g>
</g>
<!-- Node44&#45;&gt;Node18 -->
<g id="edge63_Node000044_Node000018" class="edge">
<title>Node44&#45;&gt;Node18</title>
<g id="a_edge63_Node000044_Node000018"><a xlink:title=" ">
<path fill="none" stroke="#63b8ff" d="M2181.72,-461.73C2171.43,-446.73 2148.71,-415.85 2123.55,-396 2039.59,-329.76 2012.74,-314.07 1909.55,-286 1769.27,-247.85 1320.58,-242.37 1170.2,-241.61"/>
<polygon fill="#63b8ff" stroke="#63b8ff" points="1169.92,-238.11 1159.9,-241.56 1169.88,-245.11 1169.92,-238.11"/>
</a>
</g>
</g>
<!-- Node44&#45;&gt;Node43 -->
<g id="edge65_Node000044_Node000043" class="edge">
<title>Node44&#45;&gt;Node43</title>
<g id="a_edge65_Node000044_Node000043"><a xlink:title=" ">
<path fill="none" stroke="#63b8ff" d="M2203.33,-461.87C2220.88,-452.28 2249.43,-436.67 2269.91,-425.47"/>
<polygon fill="#63b8ff" stroke="#63b8ff" points="2271.6,-428.54 2278.69,-420.67 2268.24,-422.39 2271.6,-428.54"/>
</a>
</g>
</g>
<!-- Node45 -->
<g id="Node000045" class="node">
<title>Node45</title>
<g id="a_Node000045"><a xlink:title=" ">
<polygon fill="#e0e0e0" stroke="#999999" points="2224.55,-420.5 2170.55,-420.5 2170.55,-401.5 2224.55,-401.5 2224.55,-420.5"/>
<text text-anchor="middle" x="2197.55" y="-408.5" font-family="Helvetica,sans-Serif" font-size="10.00">random</text>
</a>
</g>
</g>
<!-- Node44&#45;&gt;Node45 -->
<g id="edge64_Node000044_Node000045" class="edge">
<title>Node44&#45;&gt;Node45</title>
<g id="a_edge64_Node000044_Node000045"><a xlink:title=" ">
<path fill="none" stroke="#63b8ff" d="M2189.02,-461.87C2190.42,-453.66 2192.58,-441.04 2194.37,-430.55"/>
<polygon fill="#63b8ff" stroke="#63b8ff" points="2197.83,-431.11 2196.06,-420.67 2190.93,-429.93 2197.83,-431.11"/>
</a>
</g>
</g>
<!-- Node46 -->
<g id="Node000046" class="node">
<title>Node46</title>
<g id="a_Node000046"><a xlink:title=" ">
<polygon fill="#e0e0e0" stroke="#999999" points="2114.55,-420.5 2070.55,-420.5 2070.55,-401.5 2114.55,-401.5 2114.55,-420.5"/>
<text text-anchor="middle" x="2092.55" y="-408.5" font-family="Helvetica,sans-Serif" font-size="10.00">limits</text>
</a>
</g>
</g>
<!-- Node44&#45;&gt;Node46 -->
<g id="edge66_Node000044_Node000046" class="edge">
<title>Node44&#45;&gt;Node46</title>
<g id="a_edge66_Node000044_Node000046"><a xlink:title=" ">
<path fill="none" stroke="#63b8ff" d="M2173.53,-461.87C2158.23,-452.45 2133.51,-437.23 2115.4,-426.08"/>
<polygon fill="#63b8ff" stroke="#63b8ff" points="2116.97,-422.93 2106.62,-420.67 2113.3,-428.89 2116.97,-422.93"/>
</a>
</g>
</g>
<!-- Node47&#45;&gt;Node29 -->
<g id="edge69_Node000047_Node000029" class="edge">
<title>Node47&#45;&gt;Node29</title>
<g id="a_edge69_Node000047_Node000029"><a xlink:title=" ">
<path fill="none" stroke="#63b8ff" d="M2049.56,-461.85C2047.43,-442.25 2042.55,-392.91 2042.55,-351.5 2042.55,-351.5 2042.55,-351.5 2042.55,-118.5 2042.55,-86.21 2031.81,-49.86 2024.41,-28.64"/>
<polygon fill="#63b8ff" stroke="#63b8ff" points="2027.62,-27.23 2020.92,-19.02 2021.04,-29.62 2027.62,-27.23"/>
</a>
</g>
</g>
<!-- Node47&#45;&gt;Node46 -->
<g id="edge68_Node000047_Node000046" class="edge">
<title>Node47&#45;&gt;Node46</title>
<g id="a_edge68_Node000047_Node000046"><a xlink:title=" ">
<path fill="none" stroke="#63b8ff" d="M2056.74,-461.87C2062.95,-453.23 2072.66,-439.7 2080.4,-428.92"/>
<polygon fill="#63b8ff" stroke="#63b8ff" points="2083.33,-430.83 2086.32,-420.67 2077.65,-426.75 2083.33,-430.83"/>
</a>
</g>
</g>
</g>
</svg>
