<?xml version="1.0" encoding="UTF-8" standalone="no"?>
<!DOCTYPE svg PUBLIC "-//W3C//DTD SVG 1.1//EN"
 "http://www.w3.org/Graphics/SVG/1.1/DTD/svg11.dtd">
<!-- Generated by graphviz version 2.43.0 (0)
 -->
<!-- Title: src/Components/PointLightComponent.hpp Pages: 1 -->
<svg width="622pt" height="106pt"
 viewBox="0.00 0.00 622.00 106.00" xmlns="http://www.w3.org/2000/svg" xmlns:xlink="http://www.w3.org/1999/xlink">
<g id="graph0" class="graph" transform="scale(1 1) rotate(0) translate(4 102)">
<title>src/Components/PointLightComponent.hpp</title>
<polygon fill="white" stroke="transparent" points="-4,4 -4,-102 618,-102 618,4 -4,4"/>
<!-- Node1 -->
<g id="node1" class="node">
<title>Node1</title>
<g id="a_node1"><a xlink:title=" ">
<polygon fill="#bfbfbf" stroke="black" points="211,-67.5 211,-97.5 358,-97.5 358,-67.5 211,-67.5"/>
<text text-anchor="start" x="219" y="-85.5" font-family="Helvetica,sans-Serif" font-size="10.00">src/Components/PointLight</text>
<text text-anchor="middle" x="284.5" y="-74.5" font-family="Helvetica,sans-Serif" font-size="10.00">Component.hpp</text>
</a>
</g>
</g>
<!-- Node2 -->
<g id="node2" class="node">
<title>Node2</title>
<g id="a_node2"><a xlink:href="main_8cpp.html" target="_top" xlink:title=" ">
<polygon fill="white" stroke="black" points="0,-6 0,-25 79,-25 79,-6 0,-6"/>
<text text-anchor="middle" x="39.5" y="-13" font-family="Helvetica,sans-Serif" font-size="10.00">src/main.cpp</text>
</a>
</g>
</g>
<!-- Node1&#45;&gt;Node2 -->
<g id="edge1" class="edge">
<title>Node1&#45;&gt;Node2</title>
<path fill="none" stroke="midnightblue" d="M217.04,-64.96C178.91,-55.42 130.42,-42.98 87.5,-31 80.88,-29.15 73.77,-27.06 67.11,-25.06"/>
<polygon fill="midnightblue" stroke="midnightblue" points="216.45,-68.42 227,-67.44 218.15,-61.63 216.45,-68.42"/>
</g>
<!-- Node3 -->
<g id="node3" class="node">
<title>Node3</title>
<g id="a_node3"><a xlink:href="_rendering_system_8cpp.html" target="_top" xlink:title=" ">
<polygon fill="white" stroke="black" points="97,-6 97,-25 282,-25 282,-6 97,-6"/>
<text text-anchor="middle" x="189.5" y="-13" font-family="Helvetica,sans-Serif" font-size="10.00">src/Systems/RenderingSystem.cpp</text>
</a>
</g>
</g>
<!-- Node1&#45;&gt;Node3 -->
<g id="edge2" class="edge">
<title>Node1&#45;&gt;Node3</title>
<path fill="none" stroke="midnightblue" d="M255.48,-61.64C237.55,-49.37 215.46,-34.26 201.93,-25.01"/>
<polygon fill="midnightblue" stroke="midnightblue" points="253.66,-64.64 263.89,-67.4 257.61,-58.86 253.66,-64.64"/>
</g>
<!-- Node4 -->
<g id="node4" class="node">
<title>Node4</title>
<g id="a_node4"><a xlink:href="_point_light_component_u_i_8hpp.html" target="_top" xlink:title=" ">
<polygon fill="white" stroke="black" points="300,-0.5 300,-30.5 459,-30.5 459,-0.5 300,-0.5"/>
<text text-anchor="start" x="308" y="-18.5" font-family="Helvetica,sans-Serif" font-size="10.00">src/ui/Components/PointLight</text>
<text text-anchor="middle" x="379.5" y="-7.5" font-family="Helvetica,sans-Serif" font-size="10.00">ComponentUI.hpp</text>
</a>
</g>
</g>
<!-- Node1&#45;&gt;Node4 -->
<g id="edge3" class="edge">
<title>Node1&#45;&gt;Node4</title>
<path fill="none" stroke="midnightblue" d="M313.39,-61.73C328.09,-51.68 345.61,-39.68 358.93,-30.58"/>
<polygon fill="midnightblue" stroke="midnightblue" points="311.39,-58.86 305.11,-67.4 315.34,-64.64 311.39,-58.86"/>
</g>
<!-- Node5 -->
<g id="node5" class="node">
<title>Node5</title>
<g id="a_node5"><a xlink:href="_properties_widget_8cpp.html" target="_top" xlink:title=" ">
<polygon fill="white" stroke="black" points="477,-0.5 477,-30.5 614,-30.5 614,-0.5 477,-0.5"/>
<text text-anchor="start" x="485" y="-18.5" font-family="Helvetica,sans-Serif" font-size="10.00">src/ui/widgets/Properties</text>
<text text-anchor="middle" x="545.5" y="-7.5" font-family="Helvetica,sans-Serif" font-size="10.00">Widget.cpp</text>
</a>
</g>
</g>
<!-- Node1&#45;&gt;Node5 -->
<g id="edge4" class="edge">
<title>Node1&#45;&gt;Node5</title>
<path fill="none" stroke="midnightblue" d="M350.55,-65.05C393.22,-54.43 448.16,-40.74 488.84,-30.61"/>
<polygon fill="midnightblue" stroke="midnightblue" points="349.67,-61.66 340.81,-67.48 351.36,-68.46 349.67,-61.66"/>
</g>
</g>
</svg>
