<?xml version="1.0" encoding="UTF-8" standalone="no"?>
<!DOCTYPE svg PUBLIC "-//W3C//DTD SVG 1.1//EN"
 "http://www.w3.org/Graphics/SVG/1.1/DTD/svg11.dtd">
<!-- Generated by graphviz version 2.43.0 (0)
 -->
<!-- Title: src/Components/PostProcessingVolumeComponent.hpp Pages: 1 -->
<svg width="844pt" height="159pt"
 viewBox="0.00 0.00 843.50 159.00" xmlns="http://www.w3.org/2000/svg" xmlns:xlink="http://www.w3.org/1999/xlink">
<g id="graph0" class="graph" transform="scale(1 1) rotate(0) translate(4 155)">
<title>src/Components/PostProcessingVolumeComponent.hpp</title>
<!-- Node1 -->
<g id="Node000001" class="node">
<title>Node1</title>
<g id="a_Node000001"><a xlink:title=" ">
<polygon fill="#999999" stroke="#666666" points="524,-151 352,-151 352,-121 524,-121 524,-151"/>
<text text-anchor="start" x="360" y="-139" font-family="Helvetica,sans-Serif" font-size="10.00">src/Components/PostProcessing</text>
<text text-anchor="middle" x="438" y="-128" font-family="Helvetica,sans-Serif" font-size="10.00">VolumeComponent.hpp</text>
</a>
</g>
</g>
<!-- Node2 -->
<g id="Node000002" class="node">
<title>Node2</title>
<g id="a_Node000002"><a xlink:href="_builders_8cpp.html" target="_top" xlink:title=" ">
<polygon fill="white" stroke="#666666" points="158,-79.5 0,-79.5 0,-60.5 158,-60.5 158,-79.5"/>
<text text-anchor="middle" x="79" y="-67.5" font-family="Helvetica,sans-Serif" font-size="10.00">src/Serialization/Builders.cpp</text>
</a>
</g>
</g>
<!-- Node1&#45;&gt;Node2 -->
<g id="edge1_Node000001_Node000002" class="edge">
<title>Node1&#45;&gt;Node2</title>
<g id="a_edge1_Node000001_Node000002"><a xlink:title=" ">
<path fill="none" stroke="#63b8ff" d="M349.03,-119.14C278.74,-106.61 183.34,-89.6 126.78,-79.52"/>
<polygon fill="#63b8ff" stroke="#63b8ff" points="348.76,-122.65 359.22,-120.95 349.99,-115.75 348.76,-122.65"/>
</a>
</g>
</g>
<!-- Node3 -->
<g id="Node000003" class="node">
<title>Node3</title>
<g id="a_Node000003"><a xlink:href="_rendering_system_8hpp.html" target="_top" xlink:title=" ">
<polygon fill="white" stroke="#666666" points="362,-79.5 176,-79.5 176,-60.5 362,-60.5 362,-79.5"/>
<text text-anchor="middle" x="269" y="-67.5" font-family="Helvetica,sans-Serif" font-size="10.00">src/Systems/RenderingSystem.hpp</text>
</a>
</g>
</g>
<!-- Node1&#45;&gt;Node3 -->
<g id="edge2_Node000001_Node000003" class="edge">
<title>Node1&#45;&gt;Node3</title>
<g id="a_edge2_Node000001_Node000003"><a xlink:title=" ">
<path fill="none" stroke="#63b8ff" d="M391.15,-117.26C358.65,-104.95 316.81,-89.11 291.49,-79.52"/>
<polygon fill="#63b8ff" stroke="#63b8ff" points="390.32,-120.69 400.91,-120.95 392.8,-114.14 390.32,-120.69"/>
</a>
</g>
</g>
<!-- Node6 -->
<g id="Node000006" class="node">
<title>Node6</title>
<g id="a_Node000006"><a xlink:href="main_8cpp.html" target="_top" xlink:title=" ">
<polygon fill="white" stroke="#666666" points="477.5,-79.5 398.5,-79.5 398.5,-60.5 477.5,-60.5 477.5,-79.5"/>
<text text-anchor="middle" x="438" y="-67.5" font-family="Helvetica,sans-Serif" font-size="10.00">src/main.cpp</text>
</a>
</g>
</g>
<!-- Node1&#45;&gt;Node6 -->
<g id="edge6_Node000001_Node000006" class="edge">
<title>Node1&#45;&gt;Node6</title>
<g id="a_edge6_Node000001_Node000006"><a xlink:title=" ">
<path fill="none" stroke="#63b8ff" d="M438,-110.6C438,-99.8 438,-87.78 438,-79.84"/>
<polygon fill="#63b8ff" stroke="#63b8ff" points="434.5,-110.8 438,-120.8 441.5,-110.8 434.5,-110.8"/>
</a>
</g>
</g>
<!-- Node7 -->
<g id="Node000007" class="node">
<title>Node7</title>
<g id="a_Node000007"><a xlink:href="_post_processing_volume_component_u_i_8hpp.html" target="_top" xlink:title=" ">
<polygon fill="white" stroke="#666666" points="680,-85 496,-85 496,-55 680,-55 680,-85"/>
<text text-anchor="start" x="504" y="-73" font-family="Helvetica,sans-Serif" font-size="10.00">src/ui/Components/PostProcessing</text>
<text text-anchor="middle" x="588" y="-62" font-family="Helvetica,sans-Serif" font-size="10.00">VolumeComponentUI.hpp</text>
</a>
</g>
</g>
<!-- Node1&#45;&gt;Node7 -->
<g id="edge7_Node000001_Node000007" class="edge">
<title>Node1&#45;&gt;Node7</title>
<g id="a_edge7_Node000001_Node000007"><a xlink:title=" ">
<path fill="none" stroke="#63b8ff" d="M480.38,-116.92C504.08,-106.8 533.19,-94.38 555.16,-85.01"/>
<polygon fill="#63b8ff" stroke="#63b8ff" points="478.74,-113.81 470.92,-120.95 481.49,-120.25 478.74,-113.81"/>
</a>
</g>
</g>
<!-- Node8 -->
<g id="Node000008" class="node">
<title>Node8</title>
<g id="a_Node000008"><a xlink:href="_properties_widget_8cpp.html" target="_top" xlink:title=" ">
<polygon fill="white" stroke="#666666" points="835.5,-85 698.5,-85 698.5,-55 835.5,-55 835.5,-85"/>
<text text-anchor="start" x="706.5" y="-73" font-family="Helvetica,sans-Serif" font-size="10.00">src/ui/widgets/Properties</text>
<text text-anchor="middle" x="767" y="-62" font-family="Helvetica,sans-Serif" font-size="10.00">Widget.cpp</text>
</a>
</g>
</g>
<!-- Node1&#45;&gt;Node8 -->
<g id="edge8_Node000001_Node000008" class="edge">
<title>Node1&#45;&gt;Node8</title>
<g id="a_edge8_Node000001_Node000008"><a xlink:title=" ">
<path fill="none" stroke="#63b8ff" d="M520.25,-119C575.15,-108.32 646.5,-94.44 698.34,-84.36"/>
<polygon fill="#63b8ff" stroke="#63b8ff" points="519.35,-115.61 510.2,-120.95 520.68,-122.48 519.35,-115.61"/>
</a>
</g>
</g>
<!-- Node3&#45;&gt;Node3 -->
<g id="edge3_Node000003_Node000003" class="edge">
<title>Node3&#45;&gt;Node3</title>
<g id="a_edge3_Node000003_Node000003"><a xlink:title=" ">
<path fill="none" stroke="#63b8ff" d="M320.03,-80.52C350.87,-82.92 380,-79.41 380,-70 380,-59.57 344.22,-56.39 309.99,-60.47"/>
<polygon fill="#63b8ff" stroke="#63b8ff" points="320.28,-77.03 309.99,-79.53 319.6,-83.99 320.28,-77.03"/>
</a>
</g>
</g>
<!-- Node4 -->
<g id="Node000004" class="node">
<title>Node4</title>
<g id="a_Node000004"><a xlink:href="_runtime_widget_8hpp.html" target="_top" xlink:title=" ">
<polygon fill="white" stroke="#666666" points="263,-19 79,-19 79,0 263,0 263,-19"/>
<text text-anchor="middle" x="171" y="-7" font-family="Helvetica,sans-Serif" font-size="10.00">src/ui/widgets/RuntimeWidget.hpp</text>
</a>
</g>
</g>
<!-- Node3&#45;&gt;Node4 -->
<g id="edge4_Node000003_Node000004" class="edge">
<title>Node3&#45;&gt;Node4</title>
<g id="a_edge4_Node000003_Node000004"><a xlink:title=" ">
<path fill="none" stroke="#63b8ff" d="M245.75,-55.12C227.06,-43.96 201.39,-28.64 185.52,-19.17"/>
<polygon fill="#63b8ff" stroke="#63b8ff" points="244.16,-58.25 254.54,-60.37 247.75,-52.24 244.16,-58.25"/>
</a>
</g>
</g>
<!-- Node5 -->
<g id="Node000005" class="node">
<title>Node5</title>
<g id="a_Node000005"><a xlink:href="_scene_widget_8hpp.html" target="_top" xlink:title="Contains the declaration of the SceneWidget class, a user interface widget for rendering scenes.">
<polygon fill="white" stroke="#666666" points="453,-19 281,-19 281,0 453,0 453,-19"/>
<text text-anchor="middle" x="367" y="-7" font-family="Helvetica,sans-Serif" font-size="10.00">src/ui/widgets/SceneWidget.hpp</text>
</a>
</g>
</g>
<!-- Node3&#45;&gt;Node5 -->
<g id="edge5_Node000003_Node000005" class="edge">
<title>Node3&#45;&gt;Node5</title>
<g id="a_edge5_Node000003_Node000005"><a xlink:title=" ">
<path fill="none" stroke="#63b8ff" d="M292.25,-55.12C310.94,-43.96 336.61,-28.64 352.48,-19.17"/>
<polygon fill="#63b8ff" stroke="#63b8ff" points="290.25,-52.24 283.46,-60.37 293.84,-58.25 290.25,-52.24"/>
</a>
</g>
</g>
</g>
</svg>
