<?xml version="1.0" encoding="UTF-8" standalone="no"?>
<!DOCTYPE svg PUBLIC "-//W3C//DTD SVG 1.1//EN"
 "http://www.w3.org/Graphics/SVG/1.1/DTD/svg11.dtd">
<!-- Generated by graphviz version 2.43.0 (0)
 -->
<!-- Title: src/ui/widgets/PropertiesWidget.cpp Pages: 1 -->
<svg width="2287pt" height="330pt"
 viewBox="0.00 0.00 2287.02 330.00" xmlns="http://www.w3.org/2000/svg" xmlns:xlink="http://www.w3.org/1999/xlink">
<g id="graph0" class="graph" transform="scale(1 1) rotate(0) translate(4 326)">
<title>src/ui/widgets/PropertiesWidget.cpp</title>
<polygon fill="white" stroke="transparent" points="-4,4 -4,-326 2283.02,-326 2283.02,4 -4,4"/>
<!-- Node1 -->
<g id="node1" class="node">
<title>Node1</title>
<g id="a_node1"><a xlink:title=" ">
<polygon fill="#bfbfbf" stroke="black" points="858.52,-291.5 858.52,-321.5 995.52,-321.5 995.52,-291.5 858.52,-291.5"/>
<text text-anchor="start" x="866.52" y="-309.5" font-family="Helvetica,sans-Serif" font-size="10.00">src/ui/widgets/Properties</text>
<text text-anchor="middle" x="927.02" y="-298.5" font-family="Helvetica,sans-Serif" font-size="10.00">Widget.cpp</text>
</a>
</g>
</g>
<!-- Node2 -->
<g id="node2" class="node">
<title>Node2</title>
<g id="a_node2"><a xlink:title=" ">
<polygon fill="white" stroke="#bfbfbf" points="79.52,-230 79.52,-249 132.52,-249 132.52,-230 79.52,-230"/>
<text text-anchor="middle" x="106.02" y="-237" font-family="Helvetica,sans-Serif" font-size="10.00">imgui.h</text>
</a>
</g>
</g>
<!-- Node1&#45;&gt;Node2 -->
<g id="edge1" class="edge">
<title>Node1&#45;&gt;Node2</title>
<path fill="none" stroke="midnightblue" d="M858.22,-303.47C693.86,-298.23 282.03,-282.69 147.02,-255 143.51,-254.28 139.89,-253.33 136.33,-252.26"/>
<polygon fill="midnightblue" stroke="midnightblue" points="137.15,-248.84 126.56,-249.01 134.95,-255.49 137.15,-248.84"/>
</g>
<!-- Node3 -->
<g id="node3" class="node">
<title>Node3</title>
<g id="a_node3"><a xlink:title=" ">
<polygon fill="white" stroke="#bfbfbf" points="321.02,-168.5 321.02,-187.5 381.02,-187.5 381.02,-168.5 321.02,-168.5"/>
<text text-anchor="middle" x="351.02" y="-175.5" font-family="Helvetica,sans-Serif" font-size="10.00">iostream</text>
</a>
</g>
</g>
<!-- Node1&#45;&gt;Node3 -->
<g id="edge2" class="edge">
<title>Node1&#45;&gt;Node3</title>
<path fill="none" stroke="midnightblue" d="M858.34,-301.64C749.26,-294.89 541.62,-279.28 472.02,-255 432.11,-241.08 391.73,-212.02 369.18,-194.14"/>
<polygon fill="midnightblue" stroke="midnightblue" points="371.16,-191.25 361.18,-187.68 366.76,-196.69 371.16,-191.25"/>
</g>
<!-- Node4 -->
<g id="node4" class="node">
<title>Node4</title>
<g id="a_node4"><a xlink:href="_name_component_8hpp.html" target="_top" xlink:title=" ">
<polygon fill="white" stroke="black" points="475.02,-168.5 475.02,-187.5 663.02,-187.5 663.02,-168.5 475.02,-168.5"/>
<text text-anchor="middle" x="569.02" y="-175.5" font-family="Helvetica,sans-Serif" font-size="10.00">Components/NameComponent.hpp</text>
</a>
</g>
</g>
<!-- Node1&#45;&gt;Node4 -->
<g id="edge3" class="edge">
<title>Node1&#45;&gt;Node4</title>
<path fill="none" stroke="midnightblue" d="M858.44,-302.65C739.83,-297.02 506.62,-282.55 482.02,-255 472.84,-244.72 474.86,-235.77 482.02,-224 491.48,-208.46 508.23,-198.05 524.52,-191.19"/>
<polygon fill="midnightblue" stroke="midnightblue" points="525.92,-194.4 534.01,-187.55 523.42,-187.87 525.92,-194.4"/>
</g>
<!-- Node8 -->
<g id="node8" class="node">
<title>Node8</title>
<g id="a_node8"><a xlink:href="_transform_component_8hpp.html" target="_top" xlink:title=" ">
<polygon fill="white" stroke="black" points="57.52,-168.5 57.52,-187.5 264.52,-187.5 264.52,-168.5 57.52,-168.5"/>
<text text-anchor="middle" x="161.02" y="-175.5" font-family="Helvetica,sans-Serif" font-size="10.00">Components/TransformComponent.hpp</text>
</a>
</g>
</g>
<!-- Node1&#45;&gt;Node8 -->
<g id="edge7" class="edge">
<title>Node1&#45;&gt;Node8</title>
<path fill="none" stroke="midnightblue" d="M858.22,-305.39C683.22,-304.47 231.33,-297.93 180.02,-255 163.51,-241.19 160.15,-215.41 159.99,-197.74"/>
<polygon fill="midnightblue" stroke="midnightblue" points="163.49,-197.81 160.23,-187.73 156.49,-197.65 163.49,-197.81"/>
</g>
<!-- Node12 -->
<g id="node12" class="node">
<title>Node12</title>
<g id="a_node12"><a xlink:href="_model_component_8hpp.html" target="_top" xlink:title=" ">
<polygon fill="white" stroke="black" points="725.02,-230 725.02,-249 913.02,-249 913.02,-230 725.02,-230"/>
<text text-anchor="middle" x="819.02" y="-237" font-family="Helvetica,sans-Serif" font-size="10.00">Components/ModelComponent.hpp</text>
</a>
</g>
</g>
<!-- Node1&#45;&gt;Node12 -->
<g id="edge13" class="edge">
<title>Node1&#45;&gt;Node12</title>
<path fill="none" stroke="midnightblue" d="M903.58,-291.4C885.3,-280.39 860.06,-265.2 841.92,-254.28"/>
<polygon fill="midnightblue" stroke="midnightblue" points="843.53,-251.16 833.15,-249.01 839.92,-257.16 843.53,-251.16"/>
</g>
<!-- Node21 -->
<g id="node21" class="node">
<title>Node21</title>
<g id="a_node21"><a xlink:href="_wireframe_component_8hpp.html" target="_top" xlink:title=" ">
<polygon fill="white" stroke="black" points="931.02,-230 931.02,-249 1141.02,-249 1141.02,-230 931.02,-230"/>
<text text-anchor="middle" x="1036.02" y="-237" font-family="Helvetica,sans-Serif" font-size="10.00">Components/WireframeComponent.hpp</text>
</a>
</g>
</g>
<!-- Node1&#45;&gt;Node21 -->
<g id="edge31" class="edge">
<title>Node1&#45;&gt;Node21</title>
<path fill="none" stroke="midnightblue" d="M950.67,-291.4C969.2,-280.34 994.83,-265.06 1013.16,-254.13"/>
<polygon fill="midnightblue" stroke="midnightblue" points="1014.96,-257.13 1021.75,-249.01 1011.37,-251.12 1014.96,-257.13"/>
</g>
<!-- Node24 -->
<g id="node24" class="node">
<title>Node24</title>
<g id="a_node24"><a xlink:href="_box_collider_component_8hpp.html" target="_top" xlink:title=" ">
<polygon fill="white" stroke="black" points="491.52,-230 491.52,-249 706.52,-249 706.52,-230 491.52,-230"/>
<text text-anchor="middle" x="599.02" y="-237" font-family="Helvetica,sans-Serif" font-size="10.00">Components/BoxColliderComponent.hpp</text>
</a>
</g>
</g>
<!-- Node1&#45;&gt;Node24 -->
<g id="edge40" class="edge">
<title>Node1&#45;&gt;Node24</title>
<path fill="none" stroke="midnightblue" d="M858.26,-291.87C796.89,-279.71 708.3,-262.16 652.21,-251.04"/>
<polygon fill="midnightblue" stroke="midnightblue" points="652.62,-247.55 642.13,-249.04 651.26,-254.42 652.62,-247.55"/>
</g>
<!-- Node25 -->
<g id="node25" class="node">
<title>Node25</title>
<g id="a_node25"><a xlink:href="_point_light_component_8hpp.html" target="_top" xlink:title=" ">
<polygon fill="white" stroke="black" points="189.52,-230 189.52,-249 396.52,-249 396.52,-230 189.52,-230"/>
<text text-anchor="middle" x="293.02" y="-237" font-family="Helvetica,sans-Serif" font-size="10.00">Components/PointLightComponent.hpp</text>
</a>
</g>
</g>
<!-- Node1&#45;&gt;Node25 -->
<g id="edge45" class="edge">
<title>Node1&#45;&gt;Node25</title>
<path fill="none" stroke="midnightblue" d="M858.1,-299.3C759.11,-290.27 570.94,-272.65 411.02,-255 397.86,-253.55 383.88,-251.91 370.33,-250.28"/>
<polygon fill="midnightblue" stroke="midnightblue" points="370.42,-246.76 360.07,-249.03 369.57,-253.71 370.42,-246.76"/>
</g>
<!-- Node26 -->
<g id="node26" class="node">
<title>Node26</title>
<g id="a_node26"><a xlink:title=" ">
<polygon fill="white" stroke="#bfbfbf" points="1159.52,-230 1159.52,-249 1282.52,-249 1282.52,-230 1159.52,-230"/>
<text text-anchor="middle" x="1221.02" y="-237" font-family="Helvetica,sans-Serif" font-size="10.00">UI/Common/Style.hpp</text>
</a>
</g>
</g>
<!-- Node1&#45;&gt;Node26 -->
<g id="edge50" class="edge">
<title>Node1&#45;&gt;Node26</title>
<path fill="none" stroke="midnightblue" d="M990.45,-291.48C1045.09,-279.4 1122.8,-262.21 1172.57,-251.21"/>
<polygon fill="midnightblue" stroke="midnightblue" points="1173.43,-254.6 1182.44,-249.03 1171.92,-247.77 1173.43,-254.6"/>
</g>
<!-- Node27 -->
<g id="node27" class="node">
<title>Node27</title>
<g id="a_node27"><a xlink:title=" ">
<polygon fill="white" stroke="#bfbfbf" points="1301.02,-224.5 1301.02,-254.5 1501.02,-254.5 1501.02,-224.5 1301.02,-224.5"/>
<text text-anchor="start" x="1309.02" y="-242.5" font-family="Helvetica,sans-Serif" font-size="10.00">UI/Components/TransformComponent</text>
<text text-anchor="middle" x="1401.02" y="-231.5" font-family="Helvetica,sans-Serif" font-size="10.00">UI.hpp</text>
</a>
</g>
</g>
<!-- Node1&#45;&gt;Node27 -->
<g id="edge51" class="edge">
<title>Node1&#45;&gt;Node27</title>
<path fill="none" stroke="midnightblue" d="M995.69,-296.08C1072.97,-285.49 1199.6,-268.12 1290.78,-255.62"/>
<polygon fill="midnightblue" stroke="midnightblue" points="1291.44,-259.06 1300.88,-254.23 1290.49,-252.12 1291.44,-259.06"/>
</g>
<!-- Node28 -->
<g id="node28" class="node">
<title>Node28</title>
<g id="a_node28"><a xlink:title=" ">
<polygon fill="white" stroke="#bfbfbf" points="1519.52,-224.5 1519.52,-254.5 1700.52,-254.5 1700.52,-224.5 1519.52,-224.5"/>
<text text-anchor="start" x="1527.52" y="-242.5" font-family="Helvetica,sans-Serif" font-size="10.00">UI/Components/ModelComponent</text>
<text text-anchor="middle" x="1610.02" y="-231.5" font-family="Helvetica,sans-Serif" font-size="10.00">UI.hpp</text>
</a>
</g>
</g>
<!-- Node1&#45;&gt;Node28 -->
<g id="edge52" class="edge">
<title>Node1&#45;&gt;Node28</title>
<path fill="none" stroke="midnightblue" d="M995.81,-300.83C1103.12,-293.26 1317.1,-277.03 1509.29,-255.04"/>
<polygon fill="midnightblue" stroke="midnightblue" points="1509.76,-258.51 1519.3,-253.89 1508.96,-251.55 1509.76,-258.51"/>
</g>
<!-- Node29 -->
<g id="node29" class="node">
<title>Node29</title>
<g id="a_node29"><a xlink:title=" ">
<polygon fill="white" stroke="#bfbfbf" points="1718.52,-224.5 1718.52,-254.5 1921.52,-254.5 1921.52,-224.5 1718.52,-224.5"/>
<text text-anchor="start" x="1726.52" y="-242.5" font-family="Helvetica,sans-Serif" font-size="10.00">UI/Components/WireframeComponent</text>
<text text-anchor="middle" x="1820.02" y="-231.5" font-family="Helvetica,sans-Serif" font-size="10.00">UI.hpp</text>
</a>
</g>
</g>
<!-- Node1&#45;&gt;Node29 -->
<g id="edge53" class="edge">
<title>Node1&#45;&gt;Node29</title>
<path fill="none" stroke="midnightblue" d="M995.75,-302.61C1130.49,-296.61 1439.02,-281.2 1708.49,-255.11"/>
<polygon fill="midnightblue" stroke="midnightblue" points="1708.85,-258.59 1718.46,-254.14 1708.17,-251.63 1708.85,-258.59"/>
</g>
<!-- Node30 -->
<g id="node30" class="node">
<title>Node30</title>
<g id="a_node30"><a xlink:title=" ">
<polygon fill="white" stroke="#bfbfbf" points="1939.52,-224.5 1939.52,-254.5 2082.52,-254.5 2082.52,-224.5 1939.52,-224.5"/>
<text text-anchor="start" x="1947.52" y="-242.5" font-family="Helvetica,sans-Serif" font-size="10.00">UI/Components/PointLight</text>
<text text-anchor="middle" x="2011.02" y="-231.5" font-family="Helvetica,sans-Serif" font-size="10.00">ComponentUI.hpp</text>
</a>
</g>
</g>
<!-- Node1&#45;&gt;Node30 -->
<g id="edge54" class="edge">
<title>Node1&#45;&gt;Node30</title>
<path fill="none" stroke="midnightblue" d="M995.74,-305.09C1157.17,-303.48 1573.2,-295.5 1929.14,-255.13"/>
<polygon fill="midnightblue" stroke="midnightblue" points="1929.59,-258.6 1939.13,-253.98 1928.79,-251.64 1929.59,-258.6"/>
</g>
<!-- Node31 -->
<g id="node31" class="node">
<title>Node31</title>
<g id="a_node31"><a xlink:title=" ">
<polygon fill="white" stroke="#bfbfbf" points="2101.02,-230 2101.02,-249 2279.02,-249 2279.02,-230 2101.02,-230"/>
<text text-anchor="middle" x="2190.02" y="-237" font-family="Helvetica,sans-Serif" font-size="10.00">UI/Widgets/PropertiesWidget.hpp</text>
</a>
</g>
</g>
<!-- Node1&#45;&gt;Node31 -->
<g id="edge55" class="edge">
<title>Node1&#45;&gt;Node31</title>
<path fill="none" stroke="midnightblue" d="M995.8,-305C1176.09,-303.16 1677.11,-294.58 2092.02,-255 2104.06,-253.85 2116.88,-252.24 2129.14,-250.51"/>
<polygon fill="midnightblue" stroke="midnightblue" points="2129.89,-253.93 2139.28,-249.03 2128.88,-247.01 2129.89,-253.93"/>
</g>
<!-- Node5 -->
<g id="node5" class="node">
<title>Node5</title>
<g id="a_node5"><a xlink:title=" ">
<polygon fill="white" stroke="#bfbfbf" points="702.02,-112.5 702.02,-131.5 746.02,-131.5 746.02,-112.5 702.02,-112.5"/>
<text text-anchor="middle" x="724.02" y="-119.5" font-family="Helvetica,sans-Serif" font-size="10.00">string</text>
</a>
</g>
</g>
<!-- Node4&#45;&gt;Node5 -->
<g id="edge4" class="edge">
<title>Node4&#45;&gt;Node5</title>
<path fill="none" stroke="midnightblue" d="M593.58,-168.44C620.15,-159.19 662.63,-144.39 691.85,-134.21"/>
<polygon fill="midnightblue" stroke="midnightblue" points="693.29,-137.41 701.59,-130.82 690.99,-130.8 693.29,-137.41"/>
</g>
<!-- Node6 -->
<g id="node6" class="node">
<title>Node6</title>
<g id="a_node6"><a xlink:href="_base_component_8hpp.html" target="_top" xlink:title=" ">
<polygon fill="white" stroke="black" points="391.02,-112.5 391.02,-131.5 573.02,-131.5 573.02,-112.5 391.02,-112.5"/>
<text text-anchor="middle" x="482.02" y="-119.5" font-family="Helvetica,sans-Serif" font-size="10.00">Components/BaseComponent.hpp</text>
</a>
</g>
</g>
<!-- Node4&#45;&gt;Node6 -->
<g id="edge5" class="edge">
<title>Node4&#45;&gt;Node6</title>
<path fill="none" stroke="midnightblue" d="M555.04,-168.32C541.47,-159.9 520.64,-146.97 504.69,-137.07"/>
<polygon fill="midnightblue" stroke="midnightblue" points="506.3,-133.95 495.96,-131.65 502.61,-139.9 506.3,-133.95"/>
</g>
<!-- Node7 -->
<g id="node7" class="node">
<title>Node7</title>
<g id="a_node7"><a xlink:href="_types_8hpp.html" target="_top" xlink:title=" ">
<polygon fill="white" stroke="black" points="425.52,-56.5 425.52,-75.5 538.52,-75.5 538.52,-56.5 425.52,-56.5"/>
<text text-anchor="middle" x="482.02" y="-63.5" font-family="Helvetica,sans-Serif" font-size="10.00">Common/Types.hpp</text>
</a>
</g>
</g>
<!-- Node6&#45;&gt;Node7 -->
<g id="edge6" class="edge">
<title>Node6&#45;&gt;Node7</title>
<path fill="none" stroke="midnightblue" d="M482.02,-112.08C482.02,-105.01 482.02,-94.86 482.02,-85.99"/>
<polygon fill="midnightblue" stroke="midnightblue" points="485.52,-85.75 482.02,-75.75 478.52,-85.75 485.52,-85.75"/>
</g>
<!-- Node8&#45;&gt;Node5 -->
<g id="edge8" class="edge">
<title>Node8&#45;&gt;Node5</title>
<path fill="none" stroke="midnightblue" d="M249.92,-168.47C377.84,-156.2 607.71,-134.16 691.95,-126.08"/>
<polygon fill="midnightblue" stroke="midnightblue" points="692.32,-129.56 701.94,-125.12 691.66,-122.59 692.32,-129.56"/>
</g>
<!-- Node8&#45;&gt;Node6 -->
<g id="edge12" class="edge">
<title>Node8&#45;&gt;Node6</title>
<path fill="none" stroke="midnightblue" d="M211.88,-168.44C268.7,-158.89 360.64,-143.42 421.21,-133.23"/>
<polygon fill="midnightblue" stroke="midnightblue" points="422.11,-136.63 431.39,-131.52 420.95,-129.72 422.11,-136.63"/>
</g>
<!-- Node9 -->
<g id="node9" class="node">
<title>Node9</title>
<g id="a_node9"><a xlink:title=" ">
<polygon fill="white" stroke="#bfbfbf" points="799.02,-0.5 799.02,-19.5 877.02,-19.5 877.02,-0.5 799.02,-0.5"/>
<text text-anchor="middle" x="838.02" y="-7.5" font-family="Helvetica,sans-Serif" font-size="10.00">glm/glm.hpp</text>
</a>
</g>
</g>
<!-- Node8&#45;&gt;Node9 -->
<g id="edge9" class="edge">
<title>Node8&#45;&gt;Node9</title>
<path fill="none" stroke="midnightblue" d="M234.56,-168.46C269.2,-162.09 310.05,-151.05 343.02,-132 383.57,-108.57 373.97,-76.62 416.02,-56 480.57,-24.35 691.91,-14.8 788.75,-12.05"/>
<polygon fill="midnightblue" stroke="midnightblue" points="788.97,-15.55 798.87,-11.78 788.78,-8.55 788.97,-15.55"/>
</g>
<!-- Node10 -->
<g id="node10" class="node">
<title>Node10</title>
<g id="a_node10"><a xlink:title=" ">
<polygon fill="white" stroke="#bfbfbf" points="23.02,-112.5 23.02,-131.5 153.02,-131.5 153.02,-112.5 23.02,-112.5"/>
<text text-anchor="middle" x="88.02" y="-119.5" font-family="Helvetica,sans-Serif" font-size="10.00">glm/gtc/quaternion.hpp</text>
</a>
</g>
</g>
<!-- Node8&#45;&gt;Node10 -->
<g id="edge10" class="edge">
<title>Node8&#45;&gt;Node10</title>
<path fill="none" stroke="midnightblue" d="M149.29,-168.32C138.18,-160.11 121.28,-147.6 108.03,-137.81"/>
<polygon fill="midnightblue" stroke="midnightblue" points="110.08,-134.97 99.96,-131.83 105.92,-140.59 110.08,-134.97"/>
</g>
<!-- Node11 -->
<g id="node11" class="node">
<title>Node11</title>
<g id="a_node11"><a xlink:title=" ">
<polygon fill="white" stroke="#bfbfbf" points="171.52,-112.5 171.52,-131.5 334.52,-131.5 334.52,-112.5 171.52,-112.5"/>
<text text-anchor="middle" x="253.02" y="-119.5" font-family="Helvetica,sans-Serif" font-size="10.00">glm/gtc/matrix_transform.hpp</text>
</a>
</g>
</g>
<!-- Node8&#45;&gt;Node11 -->
<g id="edge11" class="edge">
<title>Node8&#45;&gt;Node11</title>
<path fill="none" stroke="midnightblue" d="M175.8,-168.32C190.29,-159.82 212.59,-146.73 229.51,-136.8"/>
<polygon fill="midnightblue" stroke="midnightblue" points="231.42,-139.74 238.27,-131.65 227.88,-133.7 231.42,-139.74"/>
</g>
<!-- Node12&#45;&gt;Node3 -->
<g id="edge15" class="edge">
<title>Node12&#45;&gt;Node3</title>
<path fill="none" stroke="midnightblue" d="M759.67,-229.97C745.38,-227.96 730.16,-225.87 716.02,-224 598.25,-208.45 458.88,-191.74 391.51,-183.76"/>
<polygon fill="midnightblue" stroke="midnightblue" points="391.67,-180.26 381.32,-182.56 390.84,-187.21 391.67,-180.26"/>
</g>
<!-- Node12&#45;&gt;Node5 -->
<g id="edge14" class="edge">
<title>Node12&#45;&gt;Node5</title>
<path fill="none" stroke="midnightblue" d="M811.88,-229.82C796.13,-210.67 758.19,-164.54 737.7,-139.63"/>
<polygon fill="midnightblue" stroke="midnightblue" points="740.3,-137.28 731.24,-131.78 734.89,-141.73 740.3,-137.28"/>
</g>
<!-- Node12&#45;&gt;Node6 -->
<g id="edge30" class="edge">
<title>Node12&#45;&gt;Node6</title>
<path fill="none" stroke="midnightblue" d="M758.46,-229.96C657.72,-215.74 466.62,-188.69 466.02,-188 454.64,-174.87 462,-154.91 470.11,-140.57"/>
<polygon fill="midnightblue" stroke="midnightblue" points="473.31,-142.04 475.61,-131.7 467.36,-138.35 473.31,-142.04"/>
</g>
<!-- Node13 -->
<g id="node13" class="node">
<title>Node13</title>
<g id="a_node13"><a xlink:href="_mesh_8hpp.html" target="_top" xlink:title=" ">
<polygon fill="white" stroke="black" points="871.52,-168.5 871.52,-187.5 1008.52,-187.5 1008.52,-168.5 871.52,-168.5"/>
<text text-anchor="middle" x="940.02" y="-175.5" font-family="Helvetica,sans-Serif" font-size="10.00">AssetManager/Mesh.hpp</text>
</a>
</g>
</g>
<!-- Node12&#45;&gt;Node13 -->
<g id="edge16" class="edge">
<title>Node12&#45;&gt;Node13</title>
<path fill="none" stroke="midnightblue" d="M836.35,-229.98C856.57,-220.03 890.21,-203.49 913.66,-191.96"/>
<polygon fill="midnightblue" stroke="midnightblue" points="915.28,-195.06 922.71,-187.51 912.2,-188.78 915.28,-195.06"/>
</g>
<!-- Node20 -->
<g id="node20" class="node">
<title>Node20</title>
<g id="a_node20"><a xlink:href="_material_8hpp.html" target="_top" xlink:title=" ">
<polygon fill="white" stroke="black" points="1207.52,-168.5 1207.52,-187.5 1358.52,-187.5 1358.52,-168.5 1207.52,-168.5"/>
<text text-anchor="middle" x="1283.02" y="-175.5" font-family="Helvetica,sans-Serif" font-size="10.00">AssetManager/Material.hpp</text>
</a>
</g>
</g>
<!-- Node12&#45;&gt;Node20 -->
<g id="edge27" class="edge">
<title>Node12&#45;&gt;Node20</title>
<path fill="none" stroke="midnightblue" d="M878.36,-229.98C892.65,-227.98 907.88,-225.88 922.02,-224 1018.14,-211.24 1128.81,-197.6 1202.01,-188.73"/>
<polygon fill="midnightblue" stroke="midnightblue" points="1202.57,-192.18 1212.08,-187.51 1201.73,-185.23 1202.57,-192.18"/>
</g>
<!-- Node13&#45;&gt;Node5 -->
<g id="edge20" class="edge">
<title>Node13&#45;&gt;Node5</title>
<path fill="none" stroke="midnightblue" d="M902.69,-168.43C867.29,-160.19 812.38,-147.11 756.11,-132.21"/>
<polygon fill="midnightblue" stroke="midnightblue" points="756.9,-128.8 746.34,-129.61 755.1,-135.56 756.9,-128.8"/>
</g>
<!-- Node13&#45;&gt;Node9 -->
<g id="edge17" class="edge">
<title>Node13&#45;&gt;Node9</title>
<path fill="none" stroke="midnightblue" d="M929.96,-168.48C920.36,-159.97 905.92,-146.14 896.02,-132 872.52,-98.42 853.92,-53.83 844.59,-29.24"/>
<polygon fill="midnightblue" stroke="midnightblue" points="847.82,-27.9 841.07,-19.73 841.26,-30.33 847.82,-27.9"/>
</g>
<!-- Node14 -->
<g id="node14" class="node">
<title>Node14</title>
<g id="a_node14"><a xlink:title=" ">
<polygon fill="white" stroke="#bfbfbf" points="904.52,-112.5 904.52,-131.5 975.52,-131.5 975.52,-112.5 904.52,-112.5"/>
<text text-anchor="middle" x="940.02" y="-119.5" font-family="Helvetica,sans-Serif" font-size="10.00">glad/glad.h</text>
</a>
</g>
</g>
<!-- Node13&#45;&gt;Node14 -->
<g id="edge18" class="edge">
<title>Node13&#45;&gt;Node14</title>
<path fill="none" stroke="midnightblue" d="M940.02,-168.08C940.02,-161.01 940.02,-150.86 940.02,-141.99"/>
<polygon fill="midnightblue" stroke="midnightblue" points="943.52,-141.75 940.02,-131.75 936.52,-141.75 943.52,-141.75"/>
</g>
<!-- Node15 -->
<g id="node15" class="node">
<title>Node15</title>
<g id="a_node15"><a xlink:title=" ">
<polygon fill="white" stroke="#bfbfbf" points="993.52,-112.5 993.52,-131.5 1040.52,-131.5 1040.52,-112.5 993.52,-112.5"/>
<text text-anchor="middle" x="1017.02" y="-119.5" font-family="Helvetica,sans-Serif" font-size="10.00">vector</text>
</a>
</g>
</g>
<!-- Node13&#45;&gt;Node15 -->
<g id="edge19" class="edge">
<title>Node13&#45;&gt;Node15</title>
<path fill="none" stroke="midnightblue" d="M952.39,-168.32C964.18,-160.06 982.15,-147.45 996.15,-137.63"/>
<polygon fill="midnightblue" stroke="midnightblue" points="998.5,-140.26 1004.68,-131.65 994.48,-134.53 998.5,-140.26"/>
</g>
<!-- Node16 -->
<g id="node16" class="node">
<title>Node16</title>
<g id="a_node16"><a xlink:href="_asset_8hpp.html" target="_top" xlink:title=" ">
<polygon fill="white" stroke="black" points="1058.52,-112.5 1058.52,-131.5 1195.52,-131.5 1195.52,-112.5 1058.52,-112.5"/>
<text text-anchor="middle" x="1127.02" y="-119.5" font-family="Helvetica,sans-Serif" font-size="10.00">AssetManager/Asset.hpp</text>
</a>
</g>
</g>
<!-- Node13&#45;&gt;Node16 -->
<g id="edge21" class="edge">
<title>Node13&#45;&gt;Node16</title>
<path fill="none" stroke="midnightblue" d="M969.65,-168.44C1001.52,-159.24 1052.35,-144.56 1087.58,-134.39"/>
<polygon fill="midnightblue" stroke="midnightblue" points="1088.89,-137.65 1097.53,-131.52 1086.95,-130.93 1088.89,-137.65"/>
</g>
<!-- Node18 -->
<g id="node18" class="node">
<title>Node18</title>
<g id="a_node18"><a xlink:href="_box_8hpp.html" target="_top" xlink:title=" ">
<polygon fill="white" stroke="black" points="764.02,-112.5 764.02,-131.5 848.02,-131.5 848.02,-112.5 764.02,-112.5"/>
<text text-anchor="middle" x="806.02" y="-119.5" font-family="Helvetica,sans-Serif" font-size="10.00">Math/Box.hpp</text>
</a>
</g>
</g>
<!-- Node13&#45;&gt;Node18 -->
<g id="edge23" class="edge">
<title>Node13&#45;&gt;Node18</title>
<path fill="none" stroke="midnightblue" d="M918.79,-168.44C896.63,-159.52 861.7,-145.44 836.58,-135.32"/>
<polygon fill="midnightblue" stroke="midnightblue" points="837.74,-132.01 827.15,-131.52 835.12,-138.5 837.74,-132.01"/>
</g>
<!-- Node17 -->
<g id="node17" class="node">
<title>Node17</title>
<g id="a_node17"><a xlink:title=" ">
<polygon fill="white" stroke="#bfbfbf" points="1093.02,-56.5 1093.02,-75.5 1161.02,-75.5 1161.02,-56.5 1093.02,-56.5"/>
<text text-anchor="middle" x="1127.02" y="-63.5" font-family="Helvetica,sans-Serif" font-size="10.00">filesystem</text>
</a>
</g>
</g>
<!-- Node16&#45;&gt;Node17 -->
<g id="edge22" class="edge">
<title>Node16&#45;&gt;Node17</title>
<path fill="none" stroke="midnightblue" d="M1127.02,-112.08C1127.02,-105.01 1127.02,-94.86 1127.02,-85.99"/>
<polygon fill="midnightblue" stroke="midnightblue" points="1130.52,-85.75 1127.02,-75.75 1123.52,-85.75 1130.52,-85.75"/>
</g>
<!-- Node18&#45;&gt;Node9 -->
<g id="edge24" class="edge">
<title>Node18&#45;&gt;Node9</title>
<path fill="none" stroke="midnightblue" d="M808.53,-112.37C813.72,-94.54 825.71,-53.3 832.7,-29.27"/>
<polygon fill="midnightblue" stroke="midnightblue" points="836.09,-30.17 835.52,-19.59 829.36,-28.22 836.09,-30.17"/>
</g>
<!-- Node19 -->
<g id="node19" class="node">
<title>Node19</title>
<g id="a_node19"><a xlink:href="_ray_8hpp.html" target="_top" xlink:title=" ">
<polygon fill="white" stroke="black" points="726.52,-56.5 726.52,-75.5 809.52,-75.5 809.52,-56.5 726.52,-56.5"/>
<text text-anchor="middle" x="768.02" y="-63.5" font-family="Helvetica,sans-Serif" font-size="10.00">Math/Ray.hpp</text>
</a>
</g>
</g>
<!-- Node18&#45;&gt;Node19 -->
<g id="edge25" class="edge">
<title>Node18&#45;&gt;Node19</title>
<path fill="none" stroke="midnightblue" d="M799.74,-112.08C794.38,-104.46 786.5,-93.26 779.94,-83.94"/>
<polygon fill="midnightblue" stroke="midnightblue" points="782.79,-81.91 774.18,-75.75 777.07,-85.94 782.79,-81.91"/>
</g>
<!-- Node19&#45;&gt;Node9 -->
<g id="edge26" class="edge">
<title>Node19&#45;&gt;Node9</title>
<path fill="none" stroke="midnightblue" d="M779.26,-56.32C789.82,-48.18 805.82,-35.84 818.46,-26.09"/>
<polygon fill="midnightblue" stroke="midnightblue" points="820.79,-28.71 826.57,-19.83 816.51,-23.17 820.79,-28.71"/>
</g>
<!-- Node20&#45;&gt;Node9 -->
<g id="edge28" class="edge">
<title>Node20&#45;&gt;Node9</title>
<path fill="none" stroke="midnightblue" d="M1279.6,-168.4C1270.03,-145.58 1240.56,-83.34 1194.02,-56 1143.16,-26.12 972.77,-15.82 887.5,-12.49"/>
<polygon fill="midnightblue" stroke="midnightblue" points="887.41,-8.98 877.29,-12.1 887.15,-15.98 887.41,-8.98"/>
</g>
<!-- Node20&#45;&gt;Node16 -->
<g id="edge29" class="edge">
<title>Node20&#45;&gt;Node16</title>
<path fill="none" stroke="midnightblue" d="M1258.3,-168.44C1232.17,-159.4 1190.76,-145.06 1161.44,-134.92"/>
<polygon fill="midnightblue" stroke="midnightblue" points="1162.22,-131.48 1151.62,-131.52 1159.93,-138.1 1162.22,-131.48"/>
</g>
<!-- Node21&#45;&gt;Node6 -->
<g id="edge39" class="edge">
<title>Node21&#45;&gt;Node6</title>
<path fill="none" stroke="midnightblue" d="M994.83,-229.91C895.35,-209.17 642.17,-156.39 533.19,-133.67"/>
<polygon fill="midnightblue" stroke="midnightblue" points="533.6,-130.18 523.1,-131.56 532.18,-137.03 533.6,-130.18"/>
</g>
<!-- Node22 -->
<g id="node22" class="node">
<title>Node22</title>
<g id="a_node22"><a xlink:title=" ">
<polygon fill="white" stroke="#bfbfbf" points="1377.02,-168.5 1377.02,-187.5 1435.02,-187.5 1435.02,-168.5 1377.02,-168.5"/>
<text text-anchor="middle" x="1406.02" y="-175.5" font-family="Helvetica,sans-Serif" font-size="10.00">memory</text>
</a>
</g>
</g>
<!-- Node21&#45;&gt;Node22 -->
<g id="edge32" class="edge">
<title>Node21&#45;&gt;Node22</title>
<path fill="none" stroke="midnightblue" d="M1102.75,-229.98C1167.75,-221.31 1269.55,-206.76 1366.63,-188.15"/>
<polygon fill="midnightblue" stroke="midnightblue" points="1367.46,-191.55 1376.61,-186.22 1366.13,-184.68 1367.46,-191.55"/>
</g>
<!-- Node23 -->
<g id="node23" class="node">
<title>Node23</title>
<g id="a_node23"><a xlink:href="_wireframe_8hpp.html" target="_top" xlink:title=" ">
<polygon fill="white" stroke="black" points="1027.02,-168.5 1027.02,-187.5 1189.02,-187.5 1189.02,-168.5 1027.02,-168.5"/>
<text text-anchor="middle" x="1108.02" y="-175.5" font-family="Helvetica,sans-Serif" font-size="10.00">AssetManager/Wireframe.hpp</text>
</a>
</g>
</g>
<!-- Node21&#45;&gt;Node23 -->
<g id="edge33" class="edge">
<title>Node21&#45;&gt;Node23</title>
<path fill="none" stroke="midnightblue" d="M1046.33,-229.98C1057.67,-220.61 1076.09,-205.38 1089.86,-194.01"/>
<polygon fill="midnightblue" stroke="midnightblue" points="1092.24,-196.58 1097.72,-187.51 1087.78,-191.18 1092.24,-196.58"/>
</g>
<!-- Node23&#45;&gt;Node5 -->
<g id="edge37" class="edge">
<title>Node23&#45;&gt;Node5</title>
<path fill="none" stroke="midnightblue" d="M1029.96,-168.49C947,-159.2 820.16,-144.25 756.32,-131.94"/>
<polygon fill="midnightblue" stroke="midnightblue" points="756.76,-128.46 746.27,-129.91 755.38,-135.32 756.76,-128.46"/>
</g>
<!-- Node23&#45;&gt;Node9 -->
<g id="edge34" class="edge">
<title>Node23&#45;&gt;Node9</title>
<path fill="none" stroke="midnightblue" d="M1150.41,-168.45C1170.6,-162.02 1192.93,-150.93 1205.02,-132 1223.63,-102.85 1180.09,-62.51 1170.02,-56 1124.37,-26.52 968.47,-16.1 887.6,-12.62"/>
<polygon fill="midnightblue" stroke="midnightblue" points="887.31,-9.11 877.17,-12.19 887.02,-16.1 887.31,-9.11"/>
</g>
<!-- Node23&#45;&gt;Node14 -->
<g id="edge35" class="edge">
<title>Node23&#45;&gt;Node14</title>
<path fill="none" stroke="midnightblue" d="M1081.4,-168.44C1053.01,-159.32 1007.88,-144.81 976.27,-134.65"/>
<polygon fill="midnightblue" stroke="midnightblue" points="977.11,-131.24 966.51,-131.52 974.96,-137.91 977.11,-131.24"/>
</g>
<!-- Node23&#45;&gt;Node15 -->
<g id="edge36" class="edge">
<title>Node23&#45;&gt;Node15</title>
<path fill="none" stroke="midnightblue" d="M1093.4,-168.32C1079.07,-159.82 1057.01,-146.73 1040.27,-136.8"/>
<polygon fill="midnightblue" stroke="midnightblue" points="1041.99,-133.75 1031.6,-131.65 1038.42,-139.77 1041.99,-133.75"/>
</g>
<!-- Node23&#45;&gt;Node16 -->
<g id="edge38" class="edge">
<title>Node23&#45;&gt;Node16</title>
<path fill="none" stroke="midnightblue" d="M1111.16,-168.08C1113.7,-160.85 1117.37,-150.41 1120.55,-141.4"/>
<polygon fill="midnightblue" stroke="midnightblue" points="1123.92,-142.35 1123.94,-131.75 1117.32,-140.02 1123.92,-142.35"/>
</g>
<!-- Node24&#45;&gt;Node5 -->
<g id="edge41" class="edge">
<title>Node24&#45;&gt;Node5</title>
<path fill="none" stroke="midnightblue" d="M633.94,-229.94C657.19,-222.51 686.72,-209.5 705.02,-188 716.08,-175 720.71,-155.84 722.64,-141.69"/>
<polygon fill="midnightblue" stroke="midnightblue" points="726.13,-141.93 723.68,-131.62 719.17,-141.21 726.13,-141.93"/>
</g>
<!-- Node24&#45;&gt;Node6 -->
<g id="edge43" class="edge">
<title>Node24&#45;&gt;Node6</title>
<path fill="none" stroke="midnightblue" d="M500.94,-229.93C474.75,-222.63 449.25,-209.9 433.02,-188 420.08,-170.53 440.38,-150.59 458.65,-137.45"/>
<polygon fill="midnightblue" stroke="midnightblue" points="460.98,-140.1 467.3,-131.59 457.06,-134.3 460.98,-140.1"/>
</g>
<!-- Node24&#45;&gt;Node8 -->
<g id="edge44" class="edge">
<title>Node24&#45;&gt;Node8</title>
<path fill="none" stroke="midnightblue" d="M536.26,-229.98C456.25,-219.11 318.18,-200.35 233.69,-188.87"/>
<polygon fill="midnightblue" stroke="midnightblue" points="234.04,-185.39 223.66,-187.51 233.09,-192.32 234.04,-185.39"/>
</g>
<!-- Node24&#45;&gt;Node18 -->
<g id="edge42" class="edge">
<title>Node24&#45;&gt;Node18</title>
<path fill="none" stroke="midnightblue" d="M626.39,-229.98C652.44,-221.29 692.26,-206.48 724.02,-188 748.62,-173.68 773.82,-152.54 789.68,-138.29"/>
<polygon fill="midnightblue" stroke="midnightblue" points="792.04,-140.87 797.06,-131.54 787.32,-135.71 792.04,-140.87"/>
</g>
<!-- Node25&#45;&gt;Node3 -->
<g id="edge47" class="edge">
<title>Node25&#45;&gt;Node3</title>
<path fill="none" stroke="midnightblue" d="M301.33,-229.98C310.2,-220.87 324.46,-206.24 335.44,-194.98"/>
<polygon fill="midnightblue" stroke="midnightblue" points="338.25,-197.11 342.72,-187.51 333.24,-192.23 338.25,-197.11"/>
</g>
<!-- Node25&#45;&gt;Node5 -->
<g id="edge46" class="edge">
<title>Node25&#45;&gt;Node5</title>
<path fill="none" stroke="midnightblue" d="M383.82,-229.98C487.92,-219.65 647.42,-201.9 672.02,-188 691.22,-177.15 706,-156.15 714.81,-140.94"/>
<polygon fill="midnightblue" stroke="midnightblue" points="718,-142.41 719.73,-131.96 711.86,-139.05 718,-142.41"/>
</g>
<!-- Node25&#45;&gt;Node6 -->
<g id="edge49" class="edge">
<title>Node25&#45;&gt;Node6</title>
<path fill="none" stroke="midnightblue" d="M292.75,-229.78C292.8,-214.95 295.13,-184.81 312.02,-168 330.45,-149.65 355.44,-138.53 380.58,-131.86"/>
<polygon fill="midnightblue" stroke="midnightblue" points="381.7,-135.19 390.59,-129.43 380.05,-128.39 381.7,-135.19"/>
</g>
<!-- Node25&#45;&gt;Node9 -->
<g id="edge48" class="edge">
<title>Node25&#45;&gt;Node9</title>
<path fill="none" stroke="midnightblue" d="M210.85,-230C108.16,-216.22 -47.15,-183.03 14.02,-112 64.91,-52.9 618.9,-21.53 788.78,-13.25"/>
<polygon fill="midnightblue" stroke="midnightblue" points="789.12,-16.74 798.94,-12.76 788.78,-9.75 789.12,-16.74"/>
</g>
</g>
</svg>
