<?xml version="1.0" encoding="UTF-8" standalone="no"?>
<!DOCTYPE svg PUBLIC "-//W3C//DTD SVG 1.1//EN"
 "http://www.w3.org/Graphics/SVG/1.1/DTD/svg11.dtd">
<!-- Generated by graphviz version 2.43.0 (0)
 -->
<!-- Title: src/Common/Profiler.hpp Pages: 1 -->
<svg width="3017pt" height="324pt"
 viewBox="0.00 0.00 3017.00 324.00" xmlns="http://www.w3.org/2000/svg" xmlns:xlink="http://www.w3.org/1999/xlink">
<g id="graph0" class="graph" transform="scale(1 1) rotate(0) translate(4 320)">
<title>src/Common/Profiler.hpp</title>
<!-- Node1 -->
<g id="Node000001" class="node">
<title>Node1</title>
<g id="a_Node000001"><a xlink:title=" ">
<polygon fill="#999999" stroke="#666666" points="2376.5,-316 2240.5,-316 2240.5,-297 2376.5,-297 2376.5,-316"/>
<text text-anchor="middle" x="2308.5" y="-304" font-family="Helvetica,sans-Serif" font-size="10.00">src/Common/Profiler.hpp</text>
</a>
</g>
</g>
<!-- Node2 -->
<g id="Node000002" class="node">
<title>Node2</title>
<g id="a_Node000002"><a xlink:href="_instance_counter_8hpp.html" target="_top" xlink:title=" ">
<polygon fill="white" stroke="#666666" points="2194,-261 2013,-261 2013,-242 2194,-242 2194,-261"/>
<text text-anchor="middle" x="2103.5" y="-249" font-family="Helvetica,sans-Serif" font-size="10.00">src/Common/InstanceCounter.hpp</text>
</a>
</g>
</g>
<!-- Node1&#45;&gt;Node2 -->
<g id="edge1_Node000001_Node000002" class="edge">
<title>Node1&#45;&gt;Node2</title>
<g id="a_edge1_Node000001_Node000002"><a xlink:title=" ">
<path fill="none" stroke="#63b8ff" d="M2265.71,-294.44C2227.33,-284.52 2171.81,-270.16 2136.69,-261.08"/>
<polygon fill="#63b8ff" stroke="#63b8ff" points="2265.01,-297.87 2275.56,-296.98 2266.76,-291.09 2265.01,-297.87"/>
</a>
</g>
</g>
<!-- Node6 -->
<g id="Node000006" class="node">
<title>Node6</title>
<g id="a_Node000006"><a xlink:href="_rendering_system_8hpp.html" target="_top" xlink:title=" ">
<polygon fill="white" stroke="#666666" points="408.5,-79.5 222.5,-79.5 222.5,-60.5 408.5,-60.5 408.5,-79.5"/>
<text text-anchor="middle" x="315.5" y="-67.5" font-family="Helvetica,sans-Serif" font-size="10.00">src/Systems/RenderingSystem.hpp</text>
</a>
</g>
</g>
<!-- Node1&#45;&gt;Node6 -->
<g id="edge52_Node000001_Node000006" class="edge">
<title>Node1&#45;&gt;Node6</title>
<g id="a_edge52_Node000001_Node000006"><a xlink:title=" ">
<path fill="none" stroke="#63b8ff" d="M2230.28,-305.88C1980.27,-305.58 1179.32,-292.82 536.5,-151 458.8,-133.86 371.24,-96.41 333.93,-79.54"/>
<polygon fill="#63b8ff" stroke="#63b8ff" points="2230.35,-309.38 2240.35,-305.89 2230.36,-302.38 2230.35,-309.38"/>
</a>
</g>
</g>
<!-- Node16 -->
<g id="Node000016" class="node">
<title>Node16</title>
<g id="a_Node000016"><a xlink:href="_gizmo_system_8cpp.html" target="_top" xlink:title=" ">
<polygon fill="white" stroke="#666666" points="167,-79.5 0,-79.5 0,-60.5 167,-60.5 167,-79.5"/>
<text text-anchor="middle" x="83.5" y="-67.5" font-family="Helvetica,sans-Serif" font-size="10.00">src/Systems/GizmoSystem.cpp</text>
</a>
</g>
</g>
<!-- Node1&#45;&gt;Node16 -->
<g id="edge50_Node000001_Node000016" class="edge">
<title>Node1&#45;&gt;Node16</title>
<g id="a_edge50_Node000001_Node000016"><a xlink:title=" ">
<path fill="none" stroke="#63b8ff" d="M2230.29,-306C1894.4,-307.22 574.01,-302.14 192.5,-151 149.94,-134.14 108.98,-96.55 91.87,-79.59"/>
<polygon fill="#63b8ff" stroke="#63b8ff" points="2230.42,-309.5 2240.41,-305.96 2230.4,-302.5 2230.42,-309.5"/>
</a>
</g>
</g>
<!-- Node19 -->
<g id="Node000019" class="node">
<title>Node19</title>
<g id="a_Node000019"><a xlink:href="_particle_system_8cpp.html" target="_top" xlink:title=" ">
<polygon fill="white" stroke="#666666" points="1816.5,-19 1644.5,-19 1644.5,0 1816.5,0 1816.5,-19"/>
<text text-anchor="middle" x="1730.5" y="-7" font-family="Helvetica,sans-Serif" font-size="10.00">src/Systems/ParticleSystem.cpp</text>
</a>
</g>
</g>
<!-- Node1&#45;&gt;Node19 -->
<g id="edge51_Node000001_Node000019" class="edge">
<title>Node1&#45;&gt;Node19</title>
<g id="a_edge51_Node000001_Node000019"><a xlink:title=" ">
<path fill="none" stroke="#63b8ff" d="M2314.48,-286.95C2328.15,-240.56 2355.93,-118.63 2293.5,-55 2260.86,-21.73 1966.17,-13.33 1816.67,-11.22"/>
<polygon fill="#63b8ff" stroke="#63b8ff" points="2311.11,-286 2311.52,-296.59 2317.8,-288.06 2311.11,-286"/>
</a>
</g>
</g>
<!-- Node25 -->
<g id="Node000025" class="node">
<title>Node25</title>
<g id="a_Node000025"><a xlink:href="_profiler_widget_8cpp.html" target="_top" xlink:title=" ">
<polygon fill="white" stroke="#666666" points="2191.5,-145.5 2015.5,-145.5 2015.5,-126.5 2191.5,-126.5 2191.5,-145.5"/>
<text text-anchor="middle" x="2103.5" y="-133.5" font-family="Helvetica,sans-Serif" font-size="10.00">src/ui/widgets/ProfilerWidget.cpp</text>
</a>
</g>
</g>
<!-- Node1&#45;&gt;Node25 -->
<g id="edge53_Node000001_Node000025" class="edge">
<title>Node1&#45;&gt;Node25</title>
<g id="a_edge53_Node000001_Node000025"><a xlink:title=" ">
<path fill="none" stroke="#63b8ff" d="M2290.07,-290.35C2248.25,-255.98 2147.24,-172.95 2114.17,-145.77"/>
<polygon fill="#63b8ff" stroke="#63b8ff" points="2288.1,-293.27 2298.05,-296.91 2292.55,-287.86 2288.1,-293.27"/>
</a>
</g>
</g>
<!-- Node26 -->
<g id="Node000026" class="node">
<title>Node26</title>
<g id="a_Node000026"><a xlink:href="_profiler_8cpp.html" target="_top" xlink:title=" ">
<polygon fill="white" stroke="#666666" points="2472,-261 2337,-261 2337,-242 2472,-242 2472,-261"/>
<text text-anchor="middle" x="2404.5" y="-249" font-family="Helvetica,sans-Serif" font-size="10.00">src/Common/Profiler.cpp</text>
</a>
</g>
</g>
<!-- Node1&#45;&gt;Node26 -->
<g id="edge47_Node000001_Node000026" class="edge">
<title>Node1&#45;&gt;Node26</title>
<g id="a_edge47_Node000001_Node000026"><a xlink:title=" ">
<path fill="none" stroke="#63b8ff" d="M2333.02,-291.97C2350.56,-282.28 2373.67,-269.52 2388.8,-261.17"/>
<polygon fill="#63b8ff" stroke="#63b8ff" points="2330.99,-289.09 2323.92,-296.98 2334.37,-295.22 2330.99,-289.09"/>
</a>
</g>
</g>
<!-- Node27 -->
<g id="Node000027" class="node">
<title>Node27</title>
<g id="a_Node000027"><a xlink:href="_registry_8cpp.html" target="_top" xlink:title=" ">
<polygon fill="white" stroke="#666666" points="2605,-261 2490,-261 2490,-242 2605,-242 2605,-261"/>
<text text-anchor="middle" x="2547.5" y="-249" font-family="Helvetica,sans-Serif" font-size="10.00">src/ECS/Registry.cpp</text>
</a>
</g>
</g>
<!-- Node1&#45;&gt;Node27 -->
<g id="edge48_Node000001_Node000027" class="edge">
<title>Node1&#45;&gt;Node27</title>
<g id="a_edge48_Node000001_Node000027"><a xlink:title=" ">
<path fill="none" stroke="#63b8ff" d="M2356.68,-294.82C2401.47,-284.88 2467.34,-270.28 2508.8,-261.08"/>
<polygon fill="#63b8ff" stroke="#63b8ff" points="2355.9,-291.4 2346.9,-296.98 2357.42,-298.24 2355.9,-291.4"/>
</a>
</g>
</g>
<!-- Node28 -->
<g id="Node000028" class="node">
<title>Node28</title>
<g id="a_Node000028"><a xlink:href="_input_manager_8cpp.html" target="_top" xlink:title=" ">
<polygon fill="white" stroke="#666666" points="2814,-261 2623,-261 2623,-242 2814,-242 2814,-261"/>
<text text-anchor="middle" x="2718.5" y="-249" font-family="Helvetica,sans-Serif" font-size="10.00">src/InputManager/InputManager.cpp</text>
</a>
</g>
</g>
<!-- Node1&#45;&gt;Node28 -->
<g id="edge49_Node000001_Node000028" class="edge">
<title>Node1&#45;&gt;Node28</title>
<g id="a_edge49_Node000001_Node000028"><a xlink:title=" ">
<path fill="none" stroke="#63b8ff" d="M2384.48,-295.68C2461.44,-285.73 2579.26,-270.5 2652.45,-261.04"/>
<polygon fill="#63b8ff" stroke="#63b8ff" points="2383.84,-292.23 2374.37,-296.98 2384.74,-299.17 2383.84,-292.23"/>
</a>
</g>
</g>
<!-- Node29 -->
<g id="Node000029" class="node">
<title>Node29</title>
<g id="a_Node000029"><a xlink:href="_profiler_widget_8hpp.html" target="_top" xlink:title=" ">
<polygon fill="white" stroke="#666666" points="3009,-261 2832,-261 2832,-242 3009,-242 3009,-261"/>
<text text-anchor="middle" x="2920.5" y="-249" font-family="Helvetica,sans-Serif" font-size="10.00">src/ui/widgets/ProfilerWidget.hpp</text>
</a>
</g>
</g>
<!-- Node1&#45;&gt;Node29 -->
<g id="edge54_Node000001_Node000029" class="edge">
<title>Node1&#45;&gt;Node29</title>
<g id="a_edge54_Node000001_Node000029"><a xlink:title=" ">
<path fill="none" stroke="#63b8ff" d="M2386.93,-298.75C2487.9,-290.06 2668.78,-274.46 2823.5,-261 2826.28,-260.76 2829.1,-260.51 2831.95,-260.26"/>
<polygon fill="#63b8ff" stroke="#63b8ff" points="2386.48,-295.28 2376.81,-299.62 2387.08,-302.25 2386.48,-295.28"/>
</a>
</g>
</g>
<!-- Node3 -->
<g id="Node000003" class="node">
<title>Node3</title>
<g id="a_Node000003"><a xlink:href="_material_8hpp.html" target="_top" xlink:title=" ">
<polygon fill="white" stroke="#666666" points="1520.5,-206 1352.5,-206 1352.5,-187 1520.5,-187 1520.5,-206"/>
<text text-anchor="middle" x="1436.5" y="-194" font-family="Helvetica,sans-Serif" font-size="10.00">src/AssetManager/Material.hpp</text>
</a>
</g>
</g>
<!-- Node2&#45;&gt;Node3 -->
<g id="edge2_Node000002_Node000003" class="edge">
<title>Node2&#45;&gt;Node3</title>
<g id="a_edge2_Node000002_Node000003"><a xlink:title=" ">
<path fill="none" stroke="#63b8ff" d="M2002.77,-242.5C1871.25,-232.05 1643.39,-213.94 1520.63,-204.19"/>
<polygon fill="#63b8ff" stroke="#63b8ff" points="2002.61,-245.99 2012.85,-243.3 2003.16,-239.02 2002.61,-245.99"/>
</a>
</g>
</g>
<!-- Node2&#45;&gt;Node25 -->
<g id="edge46_Node000002_Node000025" class="edge">
<title>Node2&#45;&gt;Node25</title>
<g id="a_edge46_Node000002_Node000025"><a xlink:title=" ">
<path fill="none" stroke="#63b8ff" d="M2103.5,-231.65C2103.5,-206.74 2103.5,-163.88 2103.5,-145.63"/>
<polygon fill="#63b8ff" stroke="#63b8ff" points="2100,-231.97 2103.5,-241.97 2107,-231.97 2100,-231.97"/>
</a>
</g>
</g>
<!-- Node4 -->
<g id="Node000004" class="node">
<title>Node4</title>
<g id="a_Node000004"><a xlink:href="_billboard_component_8hpp.html" target="_top" xlink:title=" ">
<polygon fill="white" stroke="#666666" points="1078.5,-151 936.5,-151 936.5,-121 1078.5,-121 1078.5,-151"/>
<text text-anchor="start" x="944.5" y="-139" font-family="Helvetica,sans-Serif" font-size="10.00">src/Components/Billboard</text>
<text text-anchor="middle" x="1007.5" y="-128" font-family="Helvetica,sans-Serif" font-size="10.00">Component.hpp</text>
</a>
</g>
</g>
<!-- Node3&#45;&gt;Node4 -->
<g id="edge3_Node000003_Node000004" class="edge">
<title>Node3&#45;&gt;Node4</title>
<g id="a_edge3_Node000003_Node000004"><a xlink:title=" ">
<path fill="none" stroke="#63b8ff" d="M1364.18,-185.64C1284.62,-174.79 1157.58,-157.46 1078.53,-146.69"/>
<polygon fill="#63b8ff" stroke="#63b8ff" points="1363.74,-189.11 1374.12,-186.99 1364.68,-182.17 1363.74,-189.11"/>
</a>
</g>
</g>
<!-- Node5 -->
<g id="Node000005" class="node">
<title>Node5</title>
<g id="a_Node000005"><a xlink:href="_builders_8cpp.html" target="_top" xlink:title=" ">
<polygon fill="white" stroke="#666666" points="1362.5,-79.5 1204.5,-79.5 1204.5,-60.5 1362.5,-60.5 1362.5,-79.5"/>
<text text-anchor="middle" x="1283.5" y="-67.5" font-family="Helvetica,sans-Serif" font-size="10.00">src/Serialization/Builders.cpp</text>
</a>
</g>
</g>
<!-- Node3&#45;&gt;Node5 -->
<g id="edge33_Node000003_Node000005" class="edge">
<title>Node3&#45;&gt;Node5</title>
<g id="a_edge33_Node000003_Node000005"><a xlink:title=" ">
<path fill="none" stroke="#63b8ff" d="M1386.4,-184.02C1365.36,-177.21 1341.81,-166.73 1324.5,-151 1302.33,-130.85 1290.35,-95.92 1285.75,-79.72"/>
<polygon fill="#63b8ff" stroke="#63b8ff" points="1385.59,-187.43 1396.17,-186.99 1387.62,-180.74 1385.59,-187.43"/>
</a>
</g>
</g>
<!-- Node3&#45;&gt;Node6 -->
<g id="edge34_Node000003_Node000006" class="edge">
<title>Node3&#45;&gt;Node6</title>
<g id="a_edge34_Node000003_Node000006"><a xlink:title=" ">
<path fill="none" stroke="#63b8ff" d="M1342.34,-193.73C1204.46,-190.23 939.74,-180.03 716.5,-151 579.58,-133.19 419.24,-96.27 350.1,-79.55"/>
<polygon fill="#63b8ff" stroke="#63b8ff" points="1342.37,-197.24 1352.45,-193.99 1342.54,-190.24 1342.37,-197.24"/>
</a>
</g>
</g>
<!-- Node10 -->
<g id="Node000010" class="node">
<title>Node10</title>
<g id="a_Node000010"><a xlink:href="_billboard_component_u_i_8hpp.html" target="_top" xlink:title=" ">
<polygon fill="white" stroke="#666666" points="1186.5,-85 1032.5,-85 1032.5,-55 1186.5,-55 1186.5,-85"/>
<text text-anchor="start" x="1040.5" y="-73" font-family="Helvetica,sans-Serif" font-size="10.00">src/ui/Components/Billboard</text>
<text text-anchor="middle" x="1109.5" y="-62" font-family="Helvetica,sans-Serif" font-size="10.00">ComponentUI.hpp</text>
</a>
</g>
</g>
<!-- Node3&#45;&gt;Node10 -->
<g id="edge41_Node000003_Node000010" class="edge">
<title>Node3&#45;&gt;Node10</title>
<g id="a_edge41_Node000003_Node000010"><a xlink:title=" ">
<path fill="none" stroke="#63b8ff" d="M1398.24,-184.02C1370.6,-175.5 1332.48,-163.27 1299.5,-151 1242.81,-129.9 1178.17,-101.8 1140.78,-85.13"/>
<polygon fill="#63b8ff" stroke="#63b8ff" points="1397.33,-187.41 1407.92,-186.99 1399.38,-180.71 1397.33,-187.41"/>
</a>
</g>
</g>
<!-- Node12 -->
<g id="Node000012" class="node">
<title>Node12</title>
<g id="a_Node000012"><a xlink:href="_model_component_8hpp.html" target="_top" xlink:title=" ">
<polygon fill="white" stroke="#666666" points="1539.5,-145.5 1333.5,-145.5 1333.5,-126.5 1539.5,-126.5 1539.5,-145.5"/>
<text text-anchor="middle" x="1436.5" y="-133.5" font-family="Helvetica,sans-Serif" font-size="10.00">src/Components/ModelComponent.hpp</text>
</a>
</g>
</g>
<!-- Node3&#45;&gt;Node12 -->
<g id="edge12_Node000003_Node000012" class="edge">
<title>Node3&#45;&gt;Node12</title>
<g id="a_edge12_Node000003_Node000012"><a xlink:title=" ">
<path fill="none" stroke="#63b8ff" d="M1436.5,-176.66C1436.5,-166.24 1436.5,-153.8 1436.5,-145.67"/>
<polygon fill="#63b8ff" stroke="#63b8ff" points="1433,-176.87 1436.5,-186.87 1440,-176.87 1433,-176.87"/>
</a>
</g>
</g>
<!-- Node14 -->
<g id="Node000014" class="node">
<title>Node14</title>
<g id="a_Node000014"><a xlink:href="_model_component_u_i_8hpp.html" target="_top" xlink:title=" ">
<polygon fill="white" stroke="#666666" points="1790,-85 1593,-85 1593,-55 1790,-55 1790,-85"/>
<text text-anchor="start" x="1601" y="-73" font-family="Helvetica,sans-Serif" font-size="10.00">src/ui/Components/ModelComponent</text>
<text text-anchor="middle" x="1691.5" y="-62" font-family="Helvetica,sans-Serif" font-size="10.00">UI.hpp</text>
</a>
</g>
</g>
<!-- Node3&#45;&gt;Node14 -->
<g id="edge42_Node000003_Node000014" class="edge">
<title>Node3&#45;&gt;Node14</title>
<g id="a_edge42_Node000003_Node000014"><a xlink:title=" ">
<path fill="none" stroke="#63b8ff" d="M1470.37,-183.37C1492.85,-175 1522.83,-163.22 1548.5,-151 1591.91,-130.34 1640.33,-102.1 1668.22,-85.28"/>
<polygon fill="#63b8ff" stroke="#63b8ff" points="1469.1,-180.11 1460.93,-186.85 1471.52,-186.68 1469.1,-180.11"/>
</a>
</g>
</g>
<!-- Node15 -->
<g id="Node000015" class="node">
<title>Node15</title>
<g id="a_Node000015"><a xlink:href="_overlay_model_component_8hpp.html" target="_top" xlink:title=" ">
<polygon fill="white" stroke="#666666" points="369,-151 202,-151 202,-121 369,-121 369,-151"/>
<text text-anchor="start" x="210" y="-139" font-family="Helvetica,sans-Serif" font-size="10.00">src/Components/OverlayModel</text>
<text text-anchor="middle" x="285.5" y="-128" font-family="Helvetica,sans-Serif" font-size="10.00">Component.hpp</text>
</a>
</g>
</g>
<!-- Node3&#45;&gt;Node15 -->
<g id="edge19_Node000003_Node000015" class="edge">
<title>Node3&#45;&gt;Node15</title>
<g id="a_edge19_Node000003_Node000015"><a xlink:title=" ">
<path fill="none" stroke="#63b8ff" d="M1342.1,-190.7C1122.11,-179.52 578.21,-151.88 369.19,-141.25"/>
<polygon fill="#63b8ff" stroke="#63b8ff" points="1342.17,-194.21 1352.33,-191.22 1342.52,-187.22 1342.17,-194.21"/>
</a>
</g>
</g>
<!-- Node17 -->
<g id="Node000017" class="node">
<title>Node17</title>
<g id="a_Node000017"><a xlink:href="_particle_emitter_component_8hpp.html" target="_top" xlink:title=" ">
<polygon fill="white" stroke="#666666" points="895.5,-151 725.5,-151 725.5,-121 895.5,-121 895.5,-151"/>
<text text-anchor="start" x="733.5" y="-139" font-family="Helvetica,sans-Serif" font-size="10.00">src/Components/ParticleEmitter</text>
<text text-anchor="middle" x="810.5" y="-128" font-family="Helvetica,sans-Serif" font-size="10.00">Component.hpp</text>
</a>
</g>
</g>
<!-- Node3&#45;&gt;Node17 -->
<g id="edge23_Node000003_Node000017" class="edge">
<title>Node3&#45;&gt;Node17</title>
<g id="a_edge23_Node000003_Node000017"><a xlink:title=" ">
<path fill="none" stroke="#63b8ff" d="M1342.22,-188.16C1239.98,-179.99 1072.02,-165.96 927.5,-151 917.22,-149.94 906.45,-148.75 895.77,-147.52"/>
<polygon fill="#63b8ff" stroke="#63b8ff" points="1341.96,-191.65 1352.21,-188.96 1342.52,-184.68 1341.96,-191.65"/>
</a>
</g>
</g>
<!-- Node21 -->
<g id="Node000021" class="node">
<title>Node21</title>
<g id="a_Node000021"><a xlink:href="_asset_loaders_8hpp.html" target="_top" xlink:title=" ">
<polygon fill="white" stroke="#666666" points="1947.5,-145.5 1801.5,-145.5 1801.5,-126.5 1947.5,-126.5 1947.5,-145.5"/>
<text text-anchor="middle" x="1874.5" y="-133.5" font-family="Helvetica,sans-Serif" font-size="10.00">src/Utils/AssetLoaders.hpp</text>
</a>
</g>
</g>
<!-- Node3&#45;&gt;Node21 -->
<g id="edge35_Node000003_Node000021" class="edge">
<title>Node3&#45;&gt;Node21</title>
<g id="a_edge35_Node000003_Node000021"><a xlink:title=" ">
<path fill="none" stroke="#63b8ff" d="M1510.19,-185.66C1594.42,-174.41 1730.9,-156.18 1810.73,-145.52"/>
<polygon fill="#63b8ff" stroke="#63b8ff" points="1509.64,-182.2 1500.19,-186.99 1510.56,-189.14 1509.64,-182.2"/>
</a>
</g>
</g>
<!-- Node23 -->
<g id="Node000023" class="node">
<title>Node23</title>
<g id="a_Node000023"><a xlink:href="_filesystem_widget_8cpp.html" target="_top" xlink:title=" ">
<polygon fill="white" stroke="#666666" points="2284.5,-85 2144.5,-85 2144.5,-55 2284.5,-55 2284.5,-85"/>
<text text-anchor="start" x="2152.5" y="-73" font-family="Helvetica,sans-Serif" font-size="10.00">src/ui/widgets/Filesystem</text>
<text text-anchor="middle" x="2214.5" y="-62" font-family="Helvetica,sans-Serif" font-size="10.00">Widget.cpp</text>
</a>
</g>
</g>
<!-- Node3&#45;&gt;Node23 -->
<g id="edge43_Node000003_Node000023" class="edge">
<title>Node3&#45;&gt;Node23</title>
<g id="a_edge43_Node000003_Node000023"><a xlink:title=" ">
<path fill="none" stroke="#63b8ff" d="M1530.68,-192.53C1658.52,-187.63 1879.8,-175.81 1956.5,-151 1981.16,-143.02 1982.51,-130.81 2006.5,-121 2050.85,-102.87 2103.32,-90.31 2144.46,-82.32"/>
<polygon fill="#63b8ff" stroke="#63b8ff" points="1530.37,-189.04 1520.51,-192.91 1530.63,-196.04 1530.37,-189.04"/>
</a>
</g>
</g>
<!-- Node24 -->
<g id="Node000024" class="node">
<title>Node24</title>
<g id="a_Node000024"><a xlink:href="_inspector_widget_8cpp.html" target="_top" xlink:title=" ">
<polygon fill="white" stroke="#666666" points="1940.5,-85 1808.5,-85 1808.5,-55 1940.5,-55 1940.5,-85"/>
<text text-anchor="start" x="1816.5" y="-73" font-family="Helvetica,sans-Serif" font-size="10.00">src/ui/widgets/Inspector</text>
<text text-anchor="middle" x="1874.5" y="-62" font-family="Helvetica,sans-Serif" font-size="10.00">Widget.cpp</text>
</a>
</g>
</g>
<!-- Node3&#45;&gt;Node24 -->
<g id="edge44_Node000003_Node000024" class="edge">
<title>Node3&#45;&gt;Node24</title>
<g id="a_edge44_Node000003_Node000024"><a xlink:title=" ">
<path fill="none" stroke="#63b8ff" d="M1476.33,-184.18C1556.56,-161.37 1737.4,-109.97 1825.04,-85.06"/>
<polygon fill="#63b8ff" stroke="#63b8ff" points="1475.27,-180.84 1466.61,-186.94 1477.18,-187.58 1475.27,-180.84"/>
</a>
</g>
</g>
<!-- Node3&#45;&gt;Node25 -->
<g id="edge45_Node000003_Node000025" class="edge">
<title>Node3&#45;&gt;Node25</title>
<g id="a_edge45_Node000003_Node000025"><a xlink:title=" ">
<path fill="none" stroke="#63b8ff" d="M1530.96,-189.52C1642.56,-182.1 1833.79,-168.29 1997.5,-151 2012.36,-149.43 2028.36,-147.46 2043.3,-145.5"/>
<polygon fill="#63b8ff" stroke="#63b8ff" points="1530.49,-186.04 1520.74,-190.19 1530.95,-193.03 1530.49,-186.04"/>
</a>
</g>
</g>
<!-- Node4&#45;&gt;Node5 -->
<g id="edge4_Node000004_Node000005" class="edge">
<title>Node4&#45;&gt;Node5</title>
<g id="a_edge4_Node000004_Node000005"><a xlink:title=" ">
<path fill="none" stroke="#63b8ff" d="M1077.9,-118.68C1131.74,-106.19 1203.81,-89.48 1246.77,-79.52"/>
<polygon fill="#63b8ff" stroke="#63b8ff" points="1077.02,-115.29 1068.07,-120.95 1078.6,-122.11 1077.02,-115.29"/>
</a>
</g>
</g>
<!-- Node4&#45;&gt;Node6 -->
<g id="edge5_Node000004_Node000006" class="edge">
<title>Node4&#45;&gt;Node6</title>
<g id="a_edge5_Node000004_Node000006"><a xlink:title=" ">
<path fill="none" stroke="#63b8ff" d="M926.33,-123.52C918.95,-122.61 911.59,-121.75 904.5,-121 696.61,-98.91 643.59,-105.12 435.5,-85 419.01,-83.41 401.27,-81.46 384.62,-79.54"/>
<polygon fill="#63b8ff" stroke="#63b8ff" points="926.01,-127 936.37,-124.78 926.88,-120.06 926.01,-127"/>
</a>
</g>
</g>
<!-- Node9 -->
<g id="Node000009" class="node">
<title>Node9</title>
<g id="a_Node000009"><a xlink:href="main_8cpp.html" target="_top" xlink:title=" ">
<polygon fill="white" stroke="#666666" points="947,-19 868,-19 868,0 947,0 947,-19"/>
<text text-anchor="middle" x="907.5" y="-7" font-family="Helvetica,sans-Serif" font-size="10.00">src/main.cpp</text>
</a>
</g>
</g>
<!-- Node4&#45;&gt;Node9 -->
<g id="edge9_Node000004_Node000009" class="edge">
<title>Node4&#45;&gt;Node9</title>
<g id="a_edge9_Node000004_Node000009"><a xlink:title=" ">
<path fill="none" stroke="#63b8ff" d="M1005.3,-110.53C1002.69,-93.46 996.98,-70.97 984.5,-55 971.19,-37.97 949.41,-26.26 932.4,-19.14"/>
<polygon fill="#63b8ff" stroke="#63b8ff" points="1001.88,-111.36 1006.61,-120.84 1008.82,-110.48 1001.88,-111.36"/>
</a>
</g>
</g>
<!-- Node4&#45;&gt;Node10 -->
<g id="edge10_Node000004_Node000010" class="edge">
<title>Node4&#45;&gt;Node10</title>
<g id="a_edge10_Node000004_Node000010"><a xlink:title=" ">
<path fill="none" stroke="#63b8ff" d="M1038.71,-115.42C1054.36,-105.6 1072.96,-93.93 1087.17,-85.01"/>
<polygon fill="#63b8ff" stroke="#63b8ff" points="1036.49,-112.68 1029.88,-120.95 1040.22,-118.6 1036.49,-112.68"/>
</a>
</g>
</g>
<!-- Node11 -->
<g id="Node000011" class="node">
<title>Node11</title>
<g id="a_Node000011"><a xlink:href="_properties_widget_8cpp.html" target="_top" xlink:title=" ">
<polygon fill="white" stroke="#666666" points="976,-85 839,-85 839,-55 976,-55 976,-85"/>
<text text-anchor="start" x="847" y="-73" font-family="Helvetica,sans-Serif" font-size="10.00">src/ui/widgets/Properties</text>
<text text-anchor="middle" x="907.5" y="-62" font-family="Helvetica,sans-Serif" font-size="10.00">Widget.cpp</text>
</a>
</g>
</g>
<!-- Node4&#45;&gt;Node11 -->
<g id="edge11_Node000004_Node000011" class="edge">
<title>Node4&#45;&gt;Node11</title>
<g id="a_edge11_Node000004_Node000011"><a xlink:title=" ">
<path fill="none" stroke="#63b8ff" d="M976.72,-115.3C961.5,-105.56 943.47,-94.02 929.63,-85.16"/>
<polygon fill="#63b8ff" stroke="#63b8ff" points="975,-118.35 985.31,-120.8 978.77,-112.46 975,-118.35"/>
</a>
</g>
</g>
<!-- Node6&#45;&gt;Node6 -->
<g id="edge6_Node000006_Node000006" class="edge">
<title>Node6&#45;&gt;Node6</title>
<g id="a_edge6_Node000006_Node000006"><a xlink:title=" ">
<path fill="none" stroke="#63b8ff" d="M366.53,-80.52C397.37,-82.92 426.5,-79.41 426.5,-70 426.5,-59.57 390.72,-56.39 356.49,-60.47"/>
<polygon fill="#63b8ff" stroke="#63b8ff" points="366.78,-77.03 356.49,-79.53 366.1,-83.99 366.78,-77.03"/>
</a>
</g>
</g>
<!-- Node7 -->
<g id="Node000007" class="node">
<title>Node7</title>
<g id="a_Node000007"><a xlink:href="_runtime_widget_8hpp.html" target="_top" xlink:title=" ">
<polygon fill="white" stroke="#666666" points="613.5,-19 429.5,-19 429.5,0 613.5,0 613.5,-19"/>
<text text-anchor="middle" x="521.5" y="-7" font-family="Helvetica,sans-Serif" font-size="10.00">src/ui/widgets/RuntimeWidget.hpp</text>
</a>
</g>
</g>
<!-- Node6&#45;&gt;Node7 -->
<g id="edge7_Node000006_Node000007" class="edge">
<title>Node6&#45;&gt;Node7</title>
<g id="a_edge7_Node000006_Node000007"><a xlink:title=" ">
<path fill="none" stroke="#63b8ff" d="M355.11,-57.75C394.95,-46.44 455.49,-29.25 491.51,-19.02"/>
<polygon fill="#63b8ff" stroke="#63b8ff" points="354.12,-54.39 345.45,-60.49 356.03,-61.13 354.12,-54.39"/>
</a>
</g>
</g>
<!-- Node8 -->
<g id="Node000008" class="node">
<title>Node8</title>
<g id="a_Node000008"><a xlink:href="_scene_widget_8hpp.html" target="_top" xlink:title="Contains the declaration of the SceneWidget class, a user interface widget for rendering scenes.">
<polygon fill="white" stroke="#666666" points="401.5,-19 229.5,-19 229.5,0 401.5,0 401.5,-19"/>
<text text-anchor="middle" x="315.5" y="-7" font-family="Helvetica,sans-Serif" font-size="10.00">src/ui/widgets/SceneWidget.hpp</text>
</a>
</g>
</g>
<!-- Node6&#45;&gt;Node8 -->
<g id="edge8_Node000006_Node000008" class="edge">
<title>Node6&#45;&gt;Node8</title>
<g id="a_edge8_Node000006_Node000008"><a xlink:title=" ">
<path fill="none" stroke="#63b8ff" d="M315.5,-50.16C315.5,-39.74 315.5,-27.3 315.5,-19.17"/>
<polygon fill="#63b8ff" stroke="#63b8ff" points="312,-50.37 315.5,-60.37 319,-50.37 312,-50.37"/>
</a>
</g>
</g>
<!-- Node12&#45;&gt;Node5 -->
<g id="edge13_Node000012_Node000005" class="edge">
<title>Node12&#45;&gt;Node5</title>
<g id="a_edge13_Node000012_Node000005"><a xlink:title=" ">
<path fill="none" stroke="#63b8ff" d="M1406.28,-122.36C1376.13,-109.75 1330.61,-90.71 1304.3,-79.7"/>
<polygon fill="#63b8ff" stroke="#63b8ff" points="1405.29,-125.74 1415.87,-126.37 1407.99,-119.28 1405.29,-125.74"/>
</a>
</g>
</g>
<!-- Node12&#45;&gt;Node6 -->
<g id="edge15_Node000012_Node000006" class="edge">
<title>Node12&#45;&gt;Node6</title>
<g id="a_edge15_Node000012_Node000006"><a xlink:title=" ">
<path fill="none" stroke="#63b8ff" d="M1323.16,-130.29C1098.75,-120.8 604.89,-99.1 435.5,-85 418.05,-83.55 399.21,-81.55 381.75,-79.52"/>
<polygon fill="#63b8ff" stroke="#63b8ff" points="1323.18,-133.79 1333.32,-130.72 1323.48,-126.8 1323.18,-133.79"/>
</a>
</g>
</g>
<!-- Node12&#45;&gt;Node9 -->
<g id="edge16_Node000012_Node000009" class="edge">
<title>Node12&#45;&gt;Node9</title>
<g id="a_edge16_Node000012_Node000009"><a xlink:title=" ">
<path fill="none" stroke="#63b8ff" d="M1475.47,-123.31C1516.35,-109.17 1571.24,-83.67 1544.5,-55 1503.77,-11.32 1080.22,-9.65 947.23,-10.21"/>
<polygon fill="#63b8ff" stroke="#63b8ff" points="1474.33,-120 1465.95,-126.49 1476.55,-126.64 1474.33,-120"/>
</a>
</g>
</g>
<!-- Node12&#45;&gt;Node11 -->
<g id="edge18_Node000012_Node000011" class="edge">
<title>Node12&#45;&gt;Node11</title>
<g id="a_edge18_Node000012_Node000011"><a xlink:title=" ">
<path fill="none" stroke="#63b8ff" d="M1355.87,-125.25C1252.19,-112.7 1073.87,-91.13 976.28,-79.32"/>
<polygon fill="#63b8ff" stroke="#63b8ff" points="1355.63,-128.74 1365.98,-126.47 1356.47,-121.79 1355.63,-128.74"/>
</a>
</g>
</g>
<!-- Node13 -->
<g id="Node000013" class="node">
<title>Node13</title>
<g id="a_Node000013"><a xlink:href="_object_selection_system_8cpp.html" target="_top" xlink:title=" ">
<polygon fill="white" stroke="#666666" points="1536,-85 1381,-85 1381,-55 1536,-55 1536,-85"/>
<text text-anchor="start" x="1389" y="-73" font-family="Helvetica,sans-Serif" font-size="10.00">src/Systems/ObjectSelection</text>
<text text-anchor="middle" x="1458.5" y="-62" font-family="Helvetica,sans-Serif" font-size="10.00">System.cpp</text>
</a>
</g>
</g>
<!-- Node12&#45;&gt;Node13 -->
<g id="edge14_Node000012_Node000013" class="edge">
<title>Node12&#45;&gt;Node13</title>
<g id="a_edge14_Node000012_Node000013"><a xlink:title=" ">
<path fill="none" stroke="#63b8ff" d="M1442.8,-116.67C1446.22,-106.72 1450.38,-94.61 1453.56,-85.36"/>
<polygon fill="#63b8ff" stroke="#63b8ff" points="1439.41,-115.77 1439.47,-126.37 1446.03,-118.05 1439.41,-115.77"/>
</a>
</g>
</g>
<!-- Node12&#45;&gt;Node14 -->
<g id="edge17_Node000012_Node000014" class="edge">
<title>Node12&#45;&gt;Node14</title>
<g id="a_edge17_Node000012_Node000014"><a xlink:title=" ">
<path fill="none" stroke="#63b8ff" d="M1480.5,-123.96C1523.46,-113.17 1589,-96.73 1635.62,-85.02"/>
<polygon fill="#63b8ff" stroke="#63b8ff" points="1479.47,-120.61 1470.63,-126.44 1481.18,-127.4 1479.47,-120.61"/>
</a>
</g>
</g>
<!-- Node15&#45;&gt;Node6 -->
<g id="edge21_Node000015_Node000006" class="edge">
<title>Node15&#45;&gt;Node6</title>
<g id="a_edge21_Node000015_Node000006"><a xlink:title=" ">
<path fill="none" stroke="#63b8ff" d="M296.46,-111.61C301.64,-100.56 307.52,-88.03 311.35,-79.84"/>
<polygon fill="#63b8ff" stroke="#63b8ff" points="293.23,-110.26 292.16,-120.8 299.57,-113.23 293.23,-110.26"/>
</a>
</g>
</g>
<!-- Node15&#45;&gt;Node9 -->
<g id="edge22_Node000015_Node000009" class="edge">
<title>Node15&#45;&gt;Node9</title>
<g id="a_edge22_Node000015_Node000009"><a xlink:title=" ">
<path fill="none" stroke="#63b8ff" d="M248.85,-115.74C222.35,-99.41 194.32,-75.45 213.5,-55 236.01,-31 723.44,-15.61 867.65,-11.56"/>
<polygon fill="#63b8ff" stroke="#63b8ff" points="247.31,-118.9 257.7,-120.97 250.87,-112.87 247.31,-118.9"/>
</a>
</g>
</g>
<!-- Node15&#45;&gt;Node16 -->
<g id="edge20_Node000015_Node000016" class="edge">
<title>Node15&#45;&gt;Node16</title>
<g id="a_edge20_Node000015_Node000016"><a xlink:title=" ">
<path fill="none" stroke="#63b8ff" d="M231.51,-117.89C192.39,-105.5 141.17,-89.27 110.38,-79.52"/>
<polygon fill="#63b8ff" stroke="#63b8ff" points="230.58,-121.27 241.17,-120.95 232.69,-114.6 230.58,-121.27"/>
</a>
</g>
</g>
<!-- Node17&#45;&gt;Node5 -->
<g id="edge24_Node000017_Node000005" class="edge">
<title>Node17&#45;&gt;Node5</title>
<g id="a_edge24_Node000017_Node000005"><a xlink:title=" ">
<path fill="none" stroke="#63b8ff" d="M906.13,-123.35C984.1,-113.67 1097.02,-99.23 1195.5,-85 1207.14,-83.32 1219.62,-81.4 1231.42,-79.54"/>
<polygon fill="#63b8ff" stroke="#63b8ff" points="905.34,-119.92 895.85,-124.63 906.2,-126.87 905.34,-119.92"/>
</a>
</g>
</g>
<!-- Node17&#45;&gt;Node6 -->
<g id="edge29_Node000017_Node000006" class="edge">
<title>Node17&#45;&gt;Node6</title>
<g id="a_edge29_Node000017_Node000006"><a xlink:title=" ">
<path fill="none" stroke="#63b8ff" d="M715.19,-122.68C617.12,-110 466.93,-90.58 381.31,-79.51"/>
<polygon fill="#63b8ff" stroke="#63b8ff" points="715.04,-126.19 725.41,-124 715.94,-119.24 715.04,-126.19"/>
</a>
</g>
</g>
<!-- Node17&#45;&gt;Node9 -->
<g id="edge30_Node000017_Node000009" class="edge">
<title>Node17&#45;&gt;Node9</title>
<g id="a_edge30_Node000017_Node000009"><a xlink:title=" ">
<path fill="none" stroke="#63b8ff" d="M811.28,-110.56C812.94,-93.51 817.5,-71.03 829.5,-55 842.49,-37.65 864.37,-26.03 881.65,-19.02"/>
<polygon fill="#63b8ff" stroke="#63b8ff" points="807.77,-110.64 810.55,-120.86 814.75,-111.13 807.77,-110.64"/>
</a>
</g>
</g>
<!-- Node17&#45;&gt;Node11 -->
<g id="edge32_Node000017_Node000011" class="edge">
<title>Node17&#45;&gt;Node11</title>
<g id="a_edge32_Node000017_Node000011"><a xlink:title=" ">
<path fill="none" stroke="#63b8ff" d="M840.77,-115.03C855.45,-105.34 872.73,-93.94 886.03,-85.16"/>
<polygon fill="#63b8ff" stroke="#63b8ff" points="838.45,-112.37 832.03,-120.8 842.3,-118.21 838.45,-112.37"/>
</a>
</g>
</g>
<!-- Node18 -->
<g id="Node000018" class="node">
<title>Node18</title>
<g id="a_Node000018"><a xlink:href="_particle_system_8hpp.html" target="_top" xlink:title=" ">
<polygon fill="white" stroke="#666666" points="618,-79.5 445,-79.5 445,-60.5 618,-60.5 618,-79.5"/>
<text text-anchor="middle" x="531.5" y="-67.5" font-family="Helvetica,sans-Serif" font-size="10.00">src/Systems/ParticleSystem.hpp</text>
</a>
</g>
</g>
<!-- Node17&#45;&gt;Node18 -->
<g id="edge25_Node000017_Node000018" class="edge">
<title>Node17&#45;&gt;Node18</title>
<g id="a_edge25_Node000017_Node000018"><a xlink:title=" ">
<path fill="none" stroke="#63b8ff" d="M739.34,-118.68C684.91,-106.19 612.05,-89.48 568.63,-79.52"/>
<polygon fill="#63b8ff" stroke="#63b8ff" points="738.74,-122.13 749.27,-120.95 740.31,-115.31 738.74,-122.13"/>
</a>
</g>
</g>
<!-- Node20 -->
<g id="Node000020" class="node">
<title>Node20</title>
<g id="a_Node000020"><a xlink:href="_particle_emitter_component_u_i_8hpp.html" target="_top" xlink:title=" ">
<polygon fill="white" stroke="#666666" points="782.5,-85 636.5,-85 636.5,-55 782.5,-55 782.5,-85"/>
<text text-anchor="start" x="644.5" y="-73" font-family="Helvetica,sans-Serif" font-size="10.00">src/ui/Components/Particle</text>
<text text-anchor="middle" x="709.5" y="-62" font-family="Helvetica,sans-Serif" font-size="10.00">EmitterComponentUI.hpp</text>
</a>
</g>
</g>
<!-- Node17&#45;&gt;Node20 -->
<g id="edge31_Node000017_Node000020" class="edge">
<title>Node17&#45;&gt;Node20</title>
<g id="a_edge31_Node000017_Node000020"><a xlink:title=" ">
<path fill="none" stroke="#63b8ff" d="M779.41,-115.3C764.04,-105.56 745.83,-94.02 731.85,-85.16"/>
<polygon fill="#63b8ff" stroke="#63b8ff" points="777.76,-118.4 788.08,-120.8 781.51,-112.49 777.76,-118.4"/>
</a>
</g>
</g>
<!-- Node18&#45;&gt;Node7 -->
<g id="edge28_Node000018_Node000007" class="edge">
<title>Node18&#45;&gt;Node7</title>
<g id="a_edge28_Node000018_Node000007"><a xlink:title=" ">
<path fill="none" stroke="#63b8ff" d="M528.34,-50.49C526.54,-40.01 524.39,-27.39 522.98,-19.17"/>
<polygon fill="#63b8ff" stroke="#63b8ff" points="524.89,-51.1 530.02,-60.37 531.79,-49.92 524.89,-51.1"/>
</a>
</g>
</g>
<!-- Node18&#45;&gt;Node9 -->
<g id="edge27_Node000018_Node000009" class="edge">
<title>Node18&#45;&gt;Node9</title>
<g id="a_edge27_Node000018_Node000009"><a xlink:title=" ">
<path fill="none" stroke="#63b8ff" d="M596.37,-58.91C674.43,-46.76 803.06,-26.75 867.74,-16.69"/>
<polygon fill="#63b8ff" stroke="#63b8ff" points="595.52,-55.5 586.17,-60.49 596.59,-62.41 595.52,-55.5"/>
</a>
</g>
</g>
<!-- Node18&#45;&gt;Node19 -->
<g id="edge26_Node000018_Node000019" class="edge">
<title>Node18&#45;&gt;Node19</title>
<g id="a_edge26_Node000018_Node000019"><a xlink:title=" ">
<path fill="none" stroke="#63b8ff" d="M593.44,-59C604.74,-57.45 616.46,-56.03 627.5,-55 1005.34,-19.92 1458.53,-12.49 1644.49,-10.92"/>
<polygon fill="#63b8ff" stroke="#63b8ff" points="592.61,-55.58 583.2,-60.45 593.59,-62.51 592.61,-55.58"/>
</a>
</g>
</g>
<!-- Node21&#45;&gt;Node5 -->
<g id="edge36_Node000021_Node000005" class="edge">
<title>Node21&#45;&gt;Node5</title>
<g id="a_edge36_Node000021_Node000005"><a xlink:title=" ">
<path fill="none" stroke="#63b8ff" d="M1791.43,-128.25C1691.56,-119.78 1518.96,-104.04 1371.5,-85 1359.23,-83.42 1346.03,-81.45 1333.69,-79.51"/>
<polygon fill="#63b8ff" stroke="#63b8ff" points="1791.2,-131.74 1801.46,-129.09 1791.79,-124.76 1791.2,-131.74"/>
</a>
</g>
</g>
<!-- Node21&#45;&gt;Node9 -->
<g id="edge38_Node000021_Node000009" class="edge">
<title>Node21&#45;&gt;Node9</title>
<g id="a_edge38_Node000021_Node000009"><a xlink:title=" ">
<path fill="none" stroke="#63b8ff" d="M1928.76,-124.54C1992.75,-111.93 2091.19,-91.64 2096.5,-85 2104.83,-74.59 2105.75,-64.6 2096.5,-55 2076.11,-33.83 1151.95,-15.13 947.33,-11.24"/>
<polygon fill="#63b8ff" stroke="#63b8ff" points="1927.94,-121.13 1918.8,-126.49 1929.29,-128 1927.94,-121.13"/>
</a>
</g>
</g>
<!-- Node22 -->
<g id="Node000022" class="node">
<title>Node22</title>
<g id="a_Node000022"><a xlink:href="_asset_utils_8cpp.html" target="_top" xlink:title=" ">
<polygon fill="white" stroke="#666666" points="2088,-79.5 1959,-79.5 1959,-60.5 2088,-60.5 2088,-79.5"/>
<text text-anchor="middle" x="2023.5" y="-67.5" font-family="Helvetica,sans-Serif" font-size="10.00">src/Utils/AssetUtils.cpp</text>
</a>
</g>
</g>
<!-- Node21&#45;&gt;Node22 -->
<g id="edge37_Node000021_Node000022" class="edge">
<title>Node21&#45;&gt;Node22</title>
<g id="a_edge37_Node000021_Node000022"><a xlink:title=" ">
<path fill="none" stroke="#63b8ff" d="M1903.93,-122.36C1933.29,-109.75 1977.62,-90.71 2003.25,-79.7"/>
<polygon fill="#63b8ff" stroke="#63b8ff" points="1902.4,-119.21 1894.59,-126.37 1905.16,-125.64 1902.4,-119.21"/>
</a>
</g>
</g>
<!-- Node21&#45;&gt;Node23 -->
<g id="edge39_Node000021_Node000023" class="edge">
<title>Node21&#45;&gt;Node23</title>
<g id="a_edge39_Node000021_Node000023"><a xlink:title=" ">
<path fill="none" stroke="#63b8ff" d="M1930.17,-124.52C1988.73,-113.5 2081.02,-96.13 2144.48,-84.18"/>
<polygon fill="#63b8ff" stroke="#63b8ff" points="1929.18,-121.15 1920,-126.44 1930.48,-128.02 1929.18,-121.15"/>
</a>
</g>
</g>
<!-- Node21&#45;&gt;Node24 -->
<g id="edge40_Node000021_Node000024" class="edge">
<title>Node21&#45;&gt;Node24</title>
<g id="a_edge40_Node000021_Node000024"><a xlink:title=" ">
<path fill="none" stroke="#63b8ff" d="M1874.5,-116.35C1874.5,-106.47 1874.5,-94.51 1874.5,-85.36"/>
<polygon fill="#63b8ff" stroke="#63b8ff" points="1871,-116.37 1874.5,-126.37 1878,-116.37 1871,-116.37"/>
</a>
</g>
</g>
</g>
</svg>
