<?xml version="1.0" encoding="UTF-8" standalone="no"?>
<!DOCTYPE svg PUBLIC "-//W3C//DTD SVG 1.1//EN"
 "http://www.w3.org/Graphics/SVG/1.1/DTD/svg11.dtd">
<!-- Generated by graphviz version 2.43.0 (0)
 -->
<!-- Title: src/ui/widgets/PropertiesWidget.hpp Pages: 1 -->
<svg width="623pt" height="313pt"
 viewBox="0.00 0.00 622.86 313.00" xmlns="http://www.w3.org/2000/svg" xmlns:xlink="http://www.w3.org/1999/xlink">
<g id="graph0" class="graph" transform="scale(1 1) rotate(0) translate(4 309)">
<title>src/ui/widgets/PropertiesWidget.hpp</title>
<!-- Node1 -->
<g id="Node000001" class="node">
<title>Node1</title>
<g id="a_Node000001"><a xlink:title="Contains the declaration of the PropertiesWidget class, a user interface widget for managing game obj...">
<polygon fill="#999999" stroke="#666666" points="231.5,-305 94.5,-305 94.5,-275 231.5,-275 231.5,-305"/>
<text text-anchor="start" x="102.5" y="-293" font-family="Helvetica,sans-Serif" font-size="10.00">src/ui/widgets/Properties</text>
<text text-anchor="middle" x="163" y="-282" font-family="Helvetica,sans-Serif" font-size="10.00">Widget.hpp</text>
</a>
</g>
</g>
<!-- Node2 -->
<g id="Node000002" class="node">
<title>Node2</title>
<g id="a_Node000002"><a xlink:title=" ">
<polygon fill="#e0e0e0" stroke="#999999" points="86,-239 0,-239 0,-220 86,-220 86,-239"/>
<text text-anchor="middle" x="43" y="-227" font-family="Helvetica,sans-Serif" font-size="10.00">UI/Widget.hpp</text>
</a>
</g>
</g>
<!-- Node1&#45;&gt;Node2 -->
<g id="edge1_Node000001_Node000002" class="edge">
<title>Node1&#45;&gt;Node2</title>
<g id="a_edge1_Node000001_Node000002"><a xlink:title=" ">
<path fill="none" stroke="#63b8ff" d="M134.26,-274.99C114.68,-265.45 88.95,-252.9 69.8,-243.57"/>
<polygon fill="#63b8ff" stroke="#63b8ff" points="71.24,-240.38 60.72,-239.14 68.18,-246.67 71.24,-240.38"/>
</a>
</g>
</g>
<!-- Node3 -->
<g id="Node000003" class="node">
<title>Node3</title>
<g id="a_Node000003"><a xlink:title=" ">
<polygon fill="#e0e0e0" stroke="#999999" points="222,-239 104,-239 104,-220 222,-220 222,-239"/>
<text text-anchor="middle" x="163" y="-227" font-family="Helvetica,sans-Serif" font-size="10.00">UI/ComponentUI.hpp</text>
</a>
</g>
</g>
<!-- Node1&#45;&gt;Node3 -->
<g id="edge2_Node000001_Node000003" class="edge">
<title>Node1&#45;&gt;Node3</title>
<g id="a_edge2_Node000001_Node000003"><a xlink:title=" ">
<path fill="none" stroke="#63b8ff" d="M163,-274.84C163,-267.21 163,-257.7 163,-249.45"/>
<polygon fill="#63b8ff" stroke="#63b8ff" points="166.5,-249.27 163,-239.27 159.5,-249.27 166.5,-249.27"/>
</a>
</g>
</g>
<!-- Node4 -->
<g id="Node000004" class="node">
<title>Node4</title>
<g id="a_Node000004"><a xlink:href="_registry_8hpp.html" target="_top" xlink:title=" ">
<polygon fill="white" stroke="#666666" points="338,-239 240,-239 240,-220 338,-220 338,-239"/>
<text text-anchor="middle" x="289" y="-227" font-family="Helvetica,sans-Serif" font-size="10.00">ECS/Registry.hpp</text>
</a>
</g>
</g>
<!-- Node1&#45;&gt;Node4 -->
<g id="edge3_Node000001_Node000004" class="edge">
<title>Node1&#45;&gt;Node4</title>
<g id="a_edge3_Node000001_Node000004"><a xlink:title=" ">
<path fill="none" stroke="#63b8ff" d="M193.18,-274.99C213.83,-265.4 241,-252.79 261.13,-243.44"/>
<polygon fill="#63b8ff" stroke="#63b8ff" points="262.8,-246.52 270.39,-239.14 259.85,-240.18 262.8,-246.52"/>
</a>
</g>
</g>
<!-- Node5 -->
<g id="Node000005" class="node">
<title>Node5</title>
<g id="a_Node000005"><a xlink:title=" ">
<polygon fill="#e0e0e0" stroke="#999999" points="403,-129 317,-129 317,-110 403,-110 403,-129"/>
<text text-anchor="middle" x="360" y="-117" font-family="Helvetica,sans-Serif" font-size="10.00">unordered_set</text>
</a>
</g>
</g>
<!-- Node4&#45;&gt;Node5 -->
<g id="edge4_Node000004_Node000005" class="edge">
<title>Node4&#45;&gt;Node5</title>
<g id="a_edge4_Node000004_Node000005"><a xlink:title=" ">
<path fill="none" stroke="#63b8ff" d="M294.81,-219.66C306.57,-201.77 333.37,-161 348.7,-137.69"/>
<polygon fill="#63b8ff" stroke="#63b8ff" points="351.74,-139.44 354.31,-129.16 345.89,-135.59 351.74,-139.44"/>
</a>
</g>
</g>
<!-- Node6 -->
<g id="Node000006" class="node">
<title>Node6</title>
<g id="a_Node000006"><a xlink:href="_entity_8hpp.html" target="_top" xlink:title=" ">
<polygon fill="white" stroke="#666666" points="332,-74 246,-74 246,-55 332,-55 332,-74"/>
<text text-anchor="middle" x="289" y="-62" font-family="Helvetica,sans-Serif" font-size="10.00">ECS/Entity.hpp</text>
</a>
</g>
</g>
<!-- Node4&#45;&gt;Node6 -->
<g id="edge5_Node000004_Node000006" class="edge">
<title>Node4&#45;&gt;Node6</title>
<g id="a_edge5_Node000004_Node000006"><a xlink:title=" ">
<path fill="none" stroke="#63b8ff" d="M289,-219.74C289,-194.31 289,-120.08 289,-84.69"/>
<polygon fill="#63b8ff" stroke="#63b8ff" points="292.5,-84.31 289,-74.31 285.5,-84.31 292.5,-84.31"/>
</a>
</g>
</g>
<!-- Node8 -->
<g id="Node000008" class="node">
<title>Node8</title>
<g id="a_Node000008"><a xlink:href="_entity_hierarchy_8hpp.html" target="_top" xlink:title=" ">
<polygon fill="white" stroke="#666666" points="521,-184 387,-184 387,-165 521,-165 521,-184"/>
<text text-anchor="middle" x="454" y="-172" font-family="Helvetica,sans-Serif" font-size="10.00">ECS/EntityHierarchy.hpp</text>
</a>
</g>
</g>
<!-- Node4&#45;&gt;Node8 -->
<g id="edge7_Node000004_Node000008" class="edge">
<title>Node4&#45;&gt;Node8</title>
<g id="a_edge7_Node000004_Node000008"><a xlink:title=" ">
<path fill="none" stroke="#63b8ff" d="M315.51,-219.98C343.21,-211.09 386.86,-197.07 417.74,-187.15"/>
<polygon fill="#63b8ff" stroke="#63b8ff" points="418.83,-190.47 427.28,-184.08 416.69,-183.81 418.83,-190.47"/>
</a>
</g>
</g>
<!-- Node11 -->
<g id="Node000011" class="node">
<title>Node11</title>
<g id="a_Node000011"><a xlink:href="_entity_provider_8hpp.html" target="_top" xlink:title="Manages a pool of unused entity identifiers and provides mechanisms for requesting and removing them.">
<polygon fill="white" stroke="#666666" points="261,-129 133,-129 133,-110 261,-110 261,-129"/>
<text text-anchor="middle" x="197" y="-117" font-family="Helvetica,sans-Serif" font-size="10.00">ECS/EntityProvider.hpp</text>
</a>
</g>
</g>
<!-- Node4&#45;&gt;Node11 -->
<g id="edge12_Node000004_Node000011" class="edge">
<title>Node4&#45;&gt;Node11</title>
<g id="a_edge12_Node000004_Node000011"><a xlink:title=" ">
<path fill="none" stroke="#63b8ff" d="M281.47,-219.66C266.1,-201.61 230.88,-160.28 211.12,-137.08"/>
<polygon fill="#63b8ff" stroke="#63b8ff" points="213.52,-134.5 204.38,-129.16 208.2,-139.04 213.52,-134.5"/>
</a>
</g>
</g>
<!-- Node13 -->
<g id="Node000013" class="node">
<title>Node13</title>
<g id="a_Node000013"><a xlink:href="_sparse_set_8hpp.html" target="_top" xlink:title=" ">
<polygon fill="white" stroke="#666666" points="223,-184 115,-184 115,-165 223,-165 223,-184"/>
<text text-anchor="middle" x="169" y="-172" font-family="Helvetica,sans-Serif" font-size="10.00">ECS/SparseSet.hpp</text>
</a>
</g>
</g>
<!-- Node4&#45;&gt;Node13 -->
<g id="edge16_Node000004_Node000013" class="edge">
<title>Node4&#45;&gt;Node13</title>
<g id="a_edge16_Node000004_Node000013"><a xlink:title=" ">
<path fill="none" stroke="#63b8ff" d="M269.72,-219.98C250.33,-211.42 220.19,-198.11 197.93,-188.28"/>
<polygon fill="#63b8ff" stroke="#63b8ff" points="199.19,-185.01 188.63,-184.17 196.36,-191.41 199.19,-185.01"/>
</a>
</g>
</g>
<!-- Node7 -->
<g id="Node000007" class="node">
<title>Node7</title>
<g id="a_Node000007"><a xlink:title=" ">
<polygon fill="#e0e0e0" stroke="#999999" points="246.5,-19 193.5,-19 193.5,0 246.5,0 246.5,-19"/>
<text text-anchor="middle" x="220" y="-7" font-family="Helvetica,sans-Serif" font-size="10.00">stdlib.h</text>
</a>
</g>
</g>
<!-- Node6&#45;&gt;Node7 -->
<g id="edge6_Node000006_Node000007" class="edge">
<title>Node6&#45;&gt;Node7</title>
<g id="a_edge6_Node000006_Node000007"><a xlink:title=" ">
<path fill="none" stroke="#63b8ff" d="M277.91,-54.98C267.51,-47 251.74,-34.88 239.28,-25.31"/>
<polygon fill="#63b8ff" stroke="#63b8ff" points="241.35,-22.49 231.29,-19.17 237.09,-28.04 241.35,-22.49"/>
</a>
</g>
</g>
<!-- Node8&#45;&gt;Node5 -->
<g id="edge9_Node000008_Node000005" class="edge">
<title>Node8&#45;&gt;Node5</title>
<g id="a_edge9_Node000008_Node000005"><a xlink:title=" ">
<path fill="none" stroke="#63b8ff" d="M438.9,-164.98C424.18,-156.69 401.58,-143.94 384.33,-134.22"/>
<polygon fill="#63b8ff" stroke="#63b8ff" points="385.81,-131.03 375.38,-129.17 382.37,-137.13 385.81,-131.03"/>
</a>
</g>
</g>
<!-- Node8&#45;&gt;Node6 -->
<g id="edge11_Node000008_Node000006" class="edge">
<title>Node8&#45;&gt;Node6</title>
<g id="a_edge11_Node000008_Node000006"><a xlink:title=" ">
<path fill="none" stroke="#63b8ff" d="M521.09,-167.24C574.6,-159.66 636.11,-143.47 607,-110 573.32,-71.28 423.58,-65.24 342.16,-64.9"/>
<polygon fill="#63b8ff" stroke="#63b8ff" points="342.11,-61.4 332.1,-64.88 342.1,-68.4 342.11,-61.4"/>
</a>
</g>
</g>
<!-- Node9 -->
<g id="Node000009" class="node">
<title>Node9</title>
<g id="a_Node000009"><a xlink:title=" ">
<polygon fill="#e0e0e0" stroke="#999999" points="486.5,-129 421.5,-129 421.5,-110 486.5,-110 486.5,-129"/>
<text text-anchor="middle" x="454" y="-117" font-family="Helvetica,sans-Serif" font-size="10.00">functional</text>
</a>
</g>
</g>
<!-- Node8&#45;&gt;Node9 -->
<g id="edge8_Node000008_Node000009" class="edge">
<title>Node8&#45;&gt;Node9</title>
<g id="a_edge8_Node000008_Node000009"><a xlink:title=" ">
<path fill="none" stroke="#63b8ff" d="M454,-164.75C454,-157.8 454,-147.85 454,-139.13"/>
<polygon fill="#63b8ff" stroke="#63b8ff" points="457.5,-139.09 454,-129.09 450.5,-139.09 457.5,-139.09"/>
</a>
</g>
</g>
<!-- Node10 -->
<g id="Node000010" class="node">
<title>Node10</title>
<g id="a_Node000010"><a xlink:title=" ">
<polygon fill="#e0e0e0" stroke="#999999" points="597.5,-129 504.5,-129 504.5,-110 597.5,-110 597.5,-129"/>
<text text-anchor="middle" x="551" y="-117" font-family="Helvetica,sans-Serif" font-size="10.00">unordered_map</text>
</a>
</g>
</g>
<!-- Node8&#45;&gt;Node10 -->
<g id="edge10_Node000008_Node000010" class="edge">
<title>Node8&#45;&gt;Node10</title>
<g id="a_edge10_Node000008_Node000010"><a xlink:title=" ">
<path fill="none" stroke="#63b8ff" d="M469.58,-164.98C484.77,-156.69 508.1,-143.94 525.9,-134.22"/>
<polygon fill="#63b8ff" stroke="#63b8ff" points="528.03,-137.04 535.13,-129.17 524.68,-130.89 528.03,-137.04"/>
</a>
</g>
</g>
<!-- Node11&#45;&gt;Node6 -->
<g id="edge15_Node000011_Node000006" class="edge">
<title>Node11&#45;&gt;Node6</title>
<g id="a_edge15_Node000011_Node000006"><a xlink:title=" ">
<path fill="none" stroke="#63b8ff" d="M211.78,-109.98C226.18,-101.69 248.31,-88.94 265.19,-79.22"/>
<polygon fill="#63b8ff" stroke="#63b8ff" points="267.03,-82.19 273.95,-74.17 263.54,-76.13 267.03,-82.19"/>
</a>
</g>
</g>
<!-- Node11&#45;&gt;Node7 -->
<g id="edge13_Node000011_Node000007" class="edge">
<title>Node11&#45;&gt;Node7</title>
<g id="a_edge13_Node000011_Node000007"><a xlink:title=" ">
<path fill="none" stroke="#63b8ff" d="M188.84,-109.81C178.34,-97.52 162.42,-74.39 171,-55 176.32,-42.97 186.68,-32.8 196.51,-25.24"/>
<polygon fill="#63b8ff" stroke="#63b8ff" points="198.76,-27.93 204.87,-19.27 194.7,-22.23 198.76,-27.93"/>
</a>
</g>
</g>
<!-- Node12 -->
<g id="Node000012" class="node">
<title>Node12</title>
<g id="a_Node000012"><a xlink:title=" ">
<polygon fill="#e0e0e0" stroke="#999999" points="227.5,-74 180.5,-74 180.5,-55 227.5,-55 227.5,-74"/>
<text text-anchor="middle" x="204" y="-62" font-family="Helvetica,sans-Serif" font-size="10.00">queue</text>
</a>
</g>
</g>
<!-- Node11&#45;&gt;Node12 -->
<g id="edge14_Node000011_Node000012" class="edge">
<title>Node11&#45;&gt;Node12</title>
<g id="a_edge14_Node000011_Node000012"><a xlink:title=" ">
<path fill="none" stroke="#63b8ff" d="M198.16,-109.75C199.07,-102.8 200.39,-92.85 201.54,-84.13"/>
<polygon fill="#63b8ff" stroke="#63b8ff" points="205.03,-84.46 202.87,-74.09 198.09,-83.54 205.03,-84.46"/>
</a>
</g>
</g>
<!-- Node13&#45;&gt;Node11 -->
<g id="edge17_Node000013_Node000011" class="edge">
<title>Node13&#45;&gt;Node11</title>
<g id="a_edge17_Node000013_Node000011"><a xlink:title=" ">
<path fill="none" stroke="#63b8ff" d="M173.62,-164.75C177.46,-157.49 183.02,-146.95 187.76,-137.98"/>
<polygon fill="#63b8ff" stroke="#63b8ff" points="190.89,-139.57 192.46,-129.09 184.7,-136.3 190.89,-139.57"/>
</a>
</g>
</g>
</g>
</svg>
