<?xml version="1.0" encoding="UTF-8" standalone="no"?>
<!DOCTYPE svg PUBLIC "-//W3C//DTD SVG 1.1//EN"
 "http://www.w3.org/Graphics/SVG/1.1/DTD/svg11.dtd">
<!-- Generated by graphviz version 2.43.0 (0)
 -->
<!-- Title: src/Common/Profiler.hpp Pages: 1 -->
<svg width="2791pt" height="379pt"
 viewBox="0.00 0.00 2791.00 379.00" xmlns="http://www.w3.org/2000/svg" xmlns:xlink="http://www.w3.org/1999/xlink">
<g id="graph0" class="graph" transform="scale(1 1) rotate(0) translate(4 375)">
<title>src/Common/Profiler.hpp</title>
<!-- Node1 -->
<g id="Node000001" class="node">
<title>Node1</title>
<g id="a_Node000001"><a xlink:title=" ">
<polygon fill="#999999" stroke="#666666" points="2220.5,-371 2084.5,-371 2084.5,-352 2220.5,-352 2220.5,-371"/>
<text text-anchor="middle" x="2152.5" y="-359" font-family="Helvetica,sans-Serif" font-size="10.00">src/Common/Profiler.hpp</text>
</a>
</g>
</g>
<!-- Node2 -->
<g id="Node000002" class="node">
<title>Node2</title>
<g id="a_Node000002"><a xlink:href="_instance_counter_8hpp.html" target="_top" xlink:title=" ">
<polygon fill="white" stroke="#666666" points="2016,-316 1835,-316 1835,-297 2016,-297 2016,-316"/>
<text text-anchor="middle" x="1925.5" y="-304" font-family="Helvetica,sans-Serif" font-size="10.00">src/Common/InstanceCounter.hpp</text>
</a>
</g>
</g>
<!-- Node1&#45;&gt;Node2 -->
<g id="edge1_Node000001_Node000002" class="edge">
<title>Node1&#45;&gt;Node2</title>
<g id="a_edge1_Node000001_Node000002"><a xlink:title=" ">
<path fill="none" stroke="#63b8ff" d="M2106.2,-349.69C2063.67,-339.76 2001.47,-325.24 1962.26,-316.08"/>
<polygon fill="#63b8ff" stroke="#63b8ff" points="2105.49,-353.12 2116.03,-351.98 2107.09,-346.3 2105.49,-353.12"/>
</a>
</g>
</g>
<!-- Node6 -->
<g id="Node000006" class="node">
<title>Node6</title>
<g id="a_Node000006"><a xlink:href="_rendering_system_8hpp.html" target="_top" xlink:title=" ">
<polygon fill="white" stroke="#666666" points="586.5,-134.5 400.5,-134.5 400.5,-115.5 586.5,-115.5 586.5,-134.5"/>
<text text-anchor="middle" x="493.5" y="-122.5" font-family="Helvetica,sans-Serif" font-size="10.00">src/Systems/RenderingSystem.hpp</text>
</a>
</g>
</g>
<!-- Node1&#45;&gt;Node6 -->
<g id="edge51_Node000001_Node000006" class="edge">
<title>Node1&#45;&gt;Node6</title>
<g id="a_edge51_Node000001_Node000006"><a xlink:title=" ">
<path fill="none" stroke="#63b8ff" d="M2074.2,-356.25C1805.44,-341.07 922.16,-286.15 650.5,-206 593.28,-189.12 532.14,-151.54 506.25,-134.59"/>
<polygon fill="#63b8ff" stroke="#63b8ff" points="2074.08,-359.75 2084.26,-356.82 2074.47,-352.76 2074.08,-359.75"/>
</a>
</g>
</g>
<!-- Node17 -->
<g id="Node000017" class="node">
<title>Node17</title>
<g id="a_Node000017"><a xlink:href="_gizmo_system_8cpp.html" target="_top" xlink:title=" ">
<polygon fill="white" stroke="#666666" points="167,-134.5 0,-134.5 0,-115.5 167,-115.5 167,-134.5"/>
<text text-anchor="middle" x="83.5" y="-122.5" font-family="Helvetica,sans-Serif" font-size="10.00">src/Systems/GizmoSystem.cpp</text>
</a>
</g>
</g>
<!-- Node1&#45;&gt;Node17 -->
<g id="edge49_Node000001_Node000017" class="edge">
<title>Node1&#45;&gt;Node17</title>
<g id="a_edge49_Node000001_Node000017"><a xlink:title=" ">
<path fill="none" stroke="#63b8ff" d="M2073.93,-358.4C1919.56,-353.86 1565.88,-341.43 1269.5,-316 1067.43,-298.66 1016.99,-291.6 816.5,-261 551.71,-220.58 235.88,-157.26 124.68,-134.5"/>
<polygon fill="#63b8ff" stroke="#63b8ff" points="2074.16,-361.91 2084.25,-358.7 2074.36,-354.91 2074.16,-361.91"/>
</a>
</g>
</g>
<!-- Node20 -->
<g id="Node000020" class="node">
<title>Node20</title>
<g id="a_Node000020"><a xlink:href="_particle_system_8cpp.html" target="_top" xlink:title=" ">
<polygon fill="white" stroke="#666666" points="1108.5,-74 936.5,-74 936.5,-55 1108.5,-55 1108.5,-74"/>
<text text-anchor="middle" x="1022.5" y="-62" font-family="Helvetica,sans-Serif" font-size="10.00">src/Systems/ParticleSystem.cpp</text>
</a>
</g>
</g>
<!-- Node1&#45;&gt;Node20 -->
<g id="edge50_Node000001_Node000020" class="edge">
<title>Node1&#45;&gt;Node20</title>
<g id="a_edge50_Node000001_Node000020"><a xlink:title=" ">
<path fill="none" stroke="#63b8ff" d="M2164.17,-343.29C2193.18,-298.22 2261.78,-175.72 2198.5,-110 2160.81,-70.86 1373.56,-66.04 1108.63,-65.53"/>
<polygon fill="#63b8ff" stroke="#63b8ff" points="2161.22,-341.4 2158.65,-351.68 2167.07,-345.25 2161.22,-341.4"/>
</a>
</g>
</g>
<!-- Node26 -->
<g id="Node000026" class="node">
<title>Node26</title>
<g id="a_Node000026"><a xlink:href="_profiler_widget_8cpp.html" target="_top" xlink:title=" ">
<polygon fill="white" stroke="#666666" points="2013.5,-200.5 1837.5,-200.5 1837.5,-181.5 2013.5,-181.5 2013.5,-200.5"/>
<text text-anchor="middle" x="1925.5" y="-188.5" font-family="Helvetica,sans-Serif" font-size="10.00">src/ui/widgets/ProfilerWidget.cpp</text>
</a>
</g>
</g>
<!-- Node1&#45;&gt;Node26 -->
<g id="edge52_Node000001_Node000026" class="edge">
<title>Node1&#45;&gt;Node26</title>
<g id="a_edge52_Node000001_Node000026"><a xlink:title=" ">
<path fill="none" stroke="#63b8ff" d="M2132.65,-345.77C2086.58,-311.57 1973.52,-227.64 1937.05,-200.57"/>
<polygon fill="#63b8ff" stroke="#63b8ff" points="2130.82,-348.76 2140.93,-351.91 2134.99,-343.14 2130.82,-348.76"/>
</a>
</g>
</g>
<!-- Node27 -->
<g id="Node000027" class="node">
<title>Node27</title>
<g id="a_Node000027"><a xlink:href="_profiler_8cpp.html" target="_top" xlink:title=" ">
<polygon fill="white" stroke="#666666" points="2379,-316 2244,-316 2244,-297 2379,-297 2379,-316"/>
<text text-anchor="middle" x="2311.5" y="-304" font-family="Helvetica,sans-Serif" font-size="10.00">src/Common/Profiler.cpp</text>
</a>
</g>
</g>
<!-- Node1&#45;&gt;Node27 -->
<g id="edge47_Node000001_Node000027" class="edge">
<title>Node1&#45;&gt;Node27</title>
<g id="a_edge47_Node000001_Node000027"><a xlink:title=" ">
<path fill="none" stroke="#63b8ff" d="M2187.6,-348.8C2217.28,-338.91 2259.1,-324.97 2285.75,-316.08"/>
<polygon fill="#63b8ff" stroke="#63b8ff" points="2186.43,-345.5 2178.05,-351.98 2188.64,-352.14 2186.43,-345.5"/>
</a>
</g>
</g>
<!-- Node28 -->
<g id="Node000028" class="node">
<title>Node28</title>
<g id="a_Node000028"><a xlink:href="_input_manager_8cpp.html" target="_top" xlink:title=" ">
<polygon fill="white" stroke="#666666" points="2588,-316 2397,-316 2397,-297 2588,-297 2588,-316"/>
<text text-anchor="middle" x="2492.5" y="-304" font-family="Helvetica,sans-Serif" font-size="10.00">src/InputManager/InputManager.cpp</text>
</a>
</g>
</g>
<!-- Node1&#45;&gt;Node28 -->
<g id="edge48_Node000001_Node000028" class="edge">
<title>Node1&#45;&gt;Node28</title>
<g id="a_edge48_Node000001_Node000028"><a xlink:title=" ">
<path fill="none" stroke="#63b8ff" d="M2217.08,-350.43C2280.92,-340.48 2377.53,-325.42 2437.73,-316.04"/>
<polygon fill="#63b8ff" stroke="#63b8ff" points="2216.47,-346.99 2207.13,-351.98 2217.55,-353.9 2216.47,-346.99"/>
</a>
</g>
</g>
<!-- Node29 -->
<g id="Node000029" class="node">
<title>Node29</title>
<g id="a_Node000029"><a xlink:href="_profiler_widget_8hpp.html" target="_top" xlink:title=" ">
<polygon fill="white" stroke="#666666" points="2783,-316 2606,-316 2606,-297 2783,-297 2783,-316"/>
<text text-anchor="middle" x="2694.5" y="-304" font-family="Helvetica,sans-Serif" font-size="10.00">src/ui/widgets/ProfilerWidget.hpp</text>
</a>
</g>
</g>
<!-- Node1&#45;&gt;Node29 -->
<g id="edge53_Node000001_Node000029" class="edge">
<title>Node1&#45;&gt;Node29</title>
<g id="a_edge53_Node000001_Node000029"><a xlink:title=" ">
<path fill="none" stroke="#63b8ff" d="M2230.64,-352.86C2330.63,-343.08 2503.33,-326.19 2607.44,-316.01"/>
<polygon fill="#63b8ff" stroke="#63b8ff" points="2230.21,-349.38 2220.6,-353.84 2230.89,-356.35 2230.21,-349.38"/>
</a>
</g>
</g>
<!-- Node3 -->
<g id="Node000003" class="node">
<title>Node3</title>
<g id="a_Node000003"><a xlink:href="_material_8hpp.html" target="_top" xlink:title=" ">
<polygon fill="white" stroke="#666666" points="1572.5,-261 1404.5,-261 1404.5,-242 1572.5,-242 1572.5,-261"/>
<text text-anchor="middle" x="1488.5" y="-249" font-family="Helvetica,sans-Serif" font-size="10.00">src/AssetManager/Material.hpp</text>
</a>
</g>
</g>
<!-- Node2&#45;&gt;Node3 -->
<g id="edge2_Node000002_Node000003" class="edge">
<title>Node2&#45;&gt;Node3</title>
<g id="a_edge2_Node000002_Node000003"><a xlink:title=" ">
<path fill="none" stroke="#63b8ff" d="M1845.26,-295.77C1763.26,-285.82 1637.14,-270.53 1558.9,-261.04"/>
<polygon fill="#63b8ff" stroke="#63b8ff" points="1844.94,-299.26 1855.29,-296.98 1845.78,-292.31 1844.94,-299.26"/>
</a>
</g>
</g>
<!-- Node2&#45;&gt;Node26 -->
<g id="edge46_Node000002_Node000026" class="edge">
<title>Node2&#45;&gt;Node26</title>
<g id="a_edge46_Node000002_Node000026"><a xlink:title=" ">
<path fill="none" stroke="#63b8ff" d="M1925.5,-286.65C1925.5,-261.74 1925.5,-218.88 1925.5,-200.63"/>
<polygon fill="#63b8ff" stroke="#63b8ff" points="1922,-286.97 1925.5,-296.97 1929,-286.97 1922,-286.97"/>
</a>
</g>
</g>
<!-- Node4 -->
<g id="Node000004" class="node">
<title>Node4</title>
<g id="a_Node000004"><a xlink:href="_billboard_component_8hpp.html" target="_top" xlink:title=" ">
<polygon fill="white" stroke="#666666" points="1460.5,-206 1318.5,-206 1318.5,-176 1460.5,-176 1460.5,-206"/>
<text text-anchor="start" x="1326.5" y="-194" font-family="Helvetica,sans-Serif" font-size="10.00">src/Components/Billboard</text>
<text text-anchor="middle" x="1389.5" y="-183" font-family="Helvetica,sans-Serif" font-size="10.00">Component.hpp</text>
</a>
</g>
</g>
<!-- Node3&#45;&gt;Node4 -->
<g id="edge3_Node000003_Node000004" class="edge">
<title>Node3&#45;&gt;Node4</title>
<g id="a_edge3_Node000003_Node000004"><a xlink:title=" ">
<path fill="none" stroke="#63b8ff" d="M1464.9,-236.55C1449.33,-227.36 1429.01,-215.35 1413.39,-206.11"/>
<polygon fill="#63b8ff" stroke="#63b8ff" points="1463.5,-239.79 1473.89,-241.87 1467.06,-233.77 1463.5,-239.79"/>
</a>
</g>
</g>
<!-- Node5 -->
<g id="Node000005" class="node">
<title>Node5</title>
<g id="a_Node000005"><a xlink:href="_builders_8cpp.html" target="_top" xlink:title=" ">
<polygon fill="white" stroke="#666666" points="1561.5,-134.5 1403.5,-134.5 1403.5,-115.5 1561.5,-115.5 1561.5,-134.5"/>
<text text-anchor="middle" x="1482.5" y="-122.5" font-family="Helvetica,sans-Serif" font-size="10.00">src/Serialization/Builders.cpp</text>
</a>
</g>
</g>
<!-- Node3&#45;&gt;Node5 -->
<g id="edge33_Node000003_Node000005" class="edge">
<title>Node3&#45;&gt;Node5</title>
<g id="a_edge33_Node000003_Node000005"><a xlink:title=" ">
<path fill="none" stroke="#63b8ff" d="M1487.6,-231.74C1486.28,-204.36 1483.88,-154.58 1482.92,-134.62"/>
<polygon fill="#63b8ff" stroke="#63b8ff" points="1484.11,-232.12 1488.09,-241.94 1491.1,-231.79 1484.11,-232.12"/>
</a>
</g>
</g>
<!-- Node3&#45;&gt;Node6 -->
<g id="edge34_Node000003_Node000006" class="edge">
<title>Node3&#45;&gt;Node6</title>
<g id="a_edge34_Node000003_Node000006"><a xlink:title=" ">
<path fill="none" stroke="#63b8ff" d="M1394.45,-247.7C1252.01,-242.72 988.53,-230.5 897.5,-206 867.94,-198.04 864.76,-184.99 835.5,-176 809.69,-168.07 651.09,-146.57 559.2,-134.51"/>
<polygon fill="#63b8ff" stroke="#63b8ff" points="1394.37,-251.2 1404.49,-248.04 1394.62,-244.2 1394.37,-251.2"/>
</a>
</g>
</g>
<!-- Node11 -->
<g id="Node000011" class="node">
<title>Node11</title>
<g id="a_Node000011"><a xlink:href="_billboard_component_u_i_8hpp.html" target="_top" xlink:title=" ">
<polygon fill="white" stroke="#666666" points="1733.5,-140 1579.5,-140 1579.5,-110 1733.5,-110 1733.5,-140"/>
<text text-anchor="start" x="1587.5" y="-128" font-family="Helvetica,sans-Serif" font-size="10.00">src/ui/Components/Billboard</text>
<text text-anchor="middle" x="1656.5" y="-117" font-family="Helvetica,sans-Serif" font-size="10.00">ComponentUI.hpp</text>
</a>
</g>
</g>
<!-- Node3&#45;&gt;Node11 -->
<g id="edge41_Node000003_Node000011" class="edge">
<title>Node3&#45;&gt;Node11</title>
<g id="a_edge41_Node000003_Node000011"><a xlink:title=" ">
<path fill="none" stroke="#63b8ff" d="M1505.97,-234.96C1523.74,-219.41 1552.32,-195.12 1578.5,-176 1596.17,-163.1 1617.08,-149.79 1632.8,-140.16"/>
<polygon fill="#63b8ff" stroke="#63b8ff" points="1503.36,-232.59 1498.17,-241.83 1507.99,-237.84 1503.36,-232.59"/>
</a>
</g>
</g>
<!-- Node13 -->
<g id="Node000013" class="node">
<title>Node13</title>
<g id="a_Node000013"><a xlink:href="_model_component_8hpp.html" target="_top" xlink:title=" ">
<polygon fill="white" stroke="#666666" points="1112.5,-200.5 906.5,-200.5 906.5,-181.5 1112.5,-181.5 1112.5,-200.5"/>
<text text-anchor="middle" x="1009.5" y="-188.5" font-family="Helvetica,sans-Serif" font-size="10.00">src/Components/ModelComponent.hpp</text>
</a>
</g>
</g>
<!-- Node3&#45;&gt;Node13 -->
<g id="edge13_Node000003_Node000013" class="edge">
<title>Node3&#45;&gt;Node13</title>
<g id="a_edge13_Node000003_Node000013"><a xlink:title=" ">
<path fill="none" stroke="#63b8ff" d="M1407.22,-240.73C1332.84,-231.77 1219.76,-218.1 1121.5,-206 1107.21,-204.24 1091.89,-202.34 1077.31,-200.52"/>
<polygon fill="#63b8ff" stroke="#63b8ff" points="1407.1,-244.24 1417.45,-241.96 1407.94,-237.29 1407.1,-244.24"/>
</a>
</g>
</g>
<!-- Node15 -->
<g id="Node000015" class="node">
<title>Node15</title>
<g id="a_Node000015"><a xlink:href="_model_component_u_i_8hpp.html" target="_top" xlink:title=" ">
<polygon fill="white" stroke="#666666" points="382,-140 185,-140 185,-110 382,-110 382,-140"/>
<text text-anchor="start" x="193" y="-128" font-family="Helvetica,sans-Serif" font-size="10.00">src/ui/Components/ModelComponent</text>
<text text-anchor="middle" x="283.5" y="-117" font-family="Helvetica,sans-Serif" font-size="10.00">UI.hpp</text>
</a>
</g>
</g>
<!-- Node3&#45;&gt;Node15 -->
<g id="edge42_Node000003_Node000015" class="edge">
<title>Node3&#45;&gt;Node15</title>
<g id="a_edge42_Node000003_Node000015"><a xlink:title=" ">
<path fill="none" stroke="#63b8ff" d="M1394.22,-250.44C1238.62,-249.24 918.59,-242.1 650.5,-206 536.75,-190.68 405.94,-158.62 335.3,-140.07"/>
<polygon fill="#63b8ff" stroke="#63b8ff" points="1394.2,-253.94 1404.23,-250.51 1394.25,-246.94 1394.2,-253.94"/>
</a>
</g>
</g>
<!-- Node16 -->
<g id="Node000016" class="node">
<title>Node16</title>
<g id="a_Node000016"><a xlink:href="_overlay_model_component_8hpp.html" target="_top" xlink:title=" ">
<polygon fill="white" stroke="#666666" points="827,-206 660,-206 660,-176 827,-176 827,-206"/>
<text text-anchor="start" x="668" y="-194" font-family="Helvetica,sans-Serif" font-size="10.00">src/Components/OverlayModel</text>
<text text-anchor="middle" x="743.5" y="-183" font-family="Helvetica,sans-Serif" font-size="10.00">Component.hpp</text>
</a>
</g>
</g>
<!-- Node3&#45;&gt;Node16 -->
<g id="edge20_Node000003_Node000016" class="edge">
<title>Node3&#45;&gt;Node16</title>
<g id="a_edge20_Node000003_Node000016"><a xlink:title=" ">
<path fill="none" stroke="#63b8ff" d="M1394.11,-245.42C1270.46,-238.4 1046.98,-224.49 856.5,-206 846.96,-205.07 836.97,-204 827.06,-202.86"/>
<polygon fill="#63b8ff" stroke="#63b8ff" points="1394.12,-248.92 1404.3,-245.99 1394.51,-241.94 1394.12,-248.92"/>
</a>
</g>
</g>
<!-- Node18 -->
<g id="Node000018" class="node">
<title>Node18</title>
<g id="a_Node000018"><a xlink:href="_particle_emitter_component_8hpp.html" target="_top" xlink:title=" ">
<polygon fill="white" stroke="#666666" points="1300.5,-206 1130.5,-206 1130.5,-176 1300.5,-176 1300.5,-206"/>
<text text-anchor="start" x="1138.5" y="-194" font-family="Helvetica,sans-Serif" font-size="10.00">src/Components/ParticleEmitter</text>
<text text-anchor="middle" x="1215.5" y="-183" font-family="Helvetica,sans-Serif" font-size="10.00">Component.hpp</text>
</a>
</g>
</g>
<!-- Node3&#45;&gt;Node18 -->
<g id="edge24_Node000003_Node000018" class="edge">
<title>Node3&#45;&gt;Node18</title>
<g id="a_edge24_Node000003_Node000018"><a xlink:title=" ">
<path fill="none" stroke="#63b8ff" d="M1438.85,-239.86C1394.56,-230.37 1329.39,-216.41 1280.87,-206.01"/>
<polygon fill="#63b8ff" stroke="#63b8ff" points="1438.29,-243.32 1448.8,-241.99 1439.76,-236.48 1438.29,-243.32"/>
</a>
</g>
</g>
<!-- Node22 -->
<g id="Node000022" class="node">
<title>Node22</title>
<g id="a_Node000022"><a xlink:href="_asset_loaders_8hpp.html" target="_top" xlink:title=" ">
<polygon fill="white" stroke="#666666" points="1733.5,-200.5 1587.5,-200.5 1587.5,-181.5 1733.5,-181.5 1733.5,-200.5"/>
<text text-anchor="middle" x="1660.5" y="-188.5" font-family="Helvetica,sans-Serif" font-size="10.00">src/Utils/AssetLoaders.hpp</text>
</a>
</g>
</g>
<!-- Node3&#45;&gt;Node22 -->
<g id="edge35_Node000003_Node000022" class="edge">
<title>Node3&#45;&gt;Node22</title>
<g id="a_edge35_Node000003_Node000022"><a xlink:title=" ">
<path fill="none" stroke="#63b8ff" d="M1523.28,-238.67C1556.54,-227.36 1605.89,-210.57 1635.46,-200.52"/>
<polygon fill="#63b8ff" stroke="#63b8ff" points="1521.85,-235.46 1513.51,-241.99 1524.1,-242.09 1521.85,-235.46"/>
</a>
</g>
</g>
<!-- Node24 -->
<g id="Node000024" class="node">
<title>Node24</title>
<g id="a_Node000024"><a xlink:href="_filesystem_widget_8cpp.html" target="_top" xlink:title=" ">
<polygon fill="white" stroke="#666666" points="2039.5,-140 1899.5,-140 1899.5,-110 2039.5,-110 2039.5,-140"/>
<text text-anchor="start" x="1907.5" y="-128" font-family="Helvetica,sans-Serif" font-size="10.00">src/ui/widgets/Filesystem</text>
<text text-anchor="middle" x="1969.5" y="-117" font-family="Helvetica,sans-Serif" font-size="10.00">Widget.cpp</text>
</a>
</g>
</g>
<!-- Node3&#45;&gt;Node24 -->
<g id="edge43_Node000003_Node000024" class="edge">
<title>Node3&#45;&gt;Node24</title>
<g id="a_edge43_Node000003_Node000024"><a xlink:title=" ">
<path fill="none" stroke="#63b8ff" d="M1582.99,-241.91C1631.69,-235.51 1691.43,-224.55 1742.5,-206 1767.58,-196.89 1769.93,-186.41 1794.5,-176 1830.43,-160.78 1872.42,-148.6 1906.26,-140.08"/>
<polygon fill="#63b8ff" stroke="#63b8ff" points="1582.25,-238.48 1572.77,-243.21 1583.13,-245.42 1582.25,-238.48"/>
</a>
</g>
</g>
<!-- Node25 -->
<g id="Node000025" class="node">
<title>Node25</title>
<g id="a_Node000025"><a xlink:href="_inspector_widget_8cpp.html" target="_top" xlink:title=" ">
<polygon fill="white" stroke="#666666" points="2189.5,-140 2057.5,-140 2057.5,-110 2189.5,-110 2189.5,-140"/>
<text text-anchor="start" x="2065.5" y="-128" font-family="Helvetica,sans-Serif" font-size="10.00">src/ui/widgets/Inspector</text>
<text text-anchor="middle" x="2123.5" y="-117" font-family="Helvetica,sans-Serif" font-size="10.00">Widget.cpp</text>
</a>
</g>
</g>
<!-- Node3&#45;&gt;Node25 -->
<g id="edge44_Node000003_Node000025" class="edge">
<title>Node3&#45;&gt;Node25</title>
<g id="a_edge44_Node000003_Node000025"><a xlink:title=" ">
<path fill="none" stroke="#63b8ff" d="M1582.7,-246.46C1641.71,-241.47 1718.43,-230.41 1782.5,-206 1805.31,-197.31 1805.74,-184.83 1828.5,-176 1920.87,-140.17 1950.91,-157.09 2048.5,-140 2051.37,-139.5 2054.3,-138.98 2057.26,-138.45"/>
<polygon fill="#63b8ff" stroke="#63b8ff" points="1582.33,-242.98 1572.65,-247.27 1582.89,-249.96 1582.33,-242.98"/>
</a>
</g>
</g>
<!-- Node3&#45;&gt;Node26 -->
<g id="edge45_Node000003_Node000026" class="edge">
<title>Node3&#45;&gt;Node26</title>
<g id="a_edge45_Node000003_Node000026"><a xlink:title=" ">
<path fill="none" stroke="#63b8ff" d="M1562.99,-240.63C1630.68,-231.65 1733.3,-218 1822.5,-206 1835.65,-204.23 1849.73,-202.32 1863.14,-200.5"/>
<polygon fill="#63b8ff" stroke="#63b8ff" points="1562.3,-237.19 1552.85,-241.98 1563.22,-244.13 1562.3,-237.19"/>
</a>
</g>
</g>
<!-- Node4&#45;&gt;Node5 -->
<g id="edge4_Node000004_Node000005" class="edge">
<title>Node4&#45;&gt;Node5</title>
<g id="a_edge4_Node000004_Node000005"><a xlink:title=" ">
<path fill="none" stroke="#63b8ff" d="M1418.75,-169.87C1435.96,-158.03 1456.86,-143.65 1469.92,-134.66"/>
<polygon fill="#63b8ff" stroke="#63b8ff" points="1416.39,-167.24 1410.14,-175.8 1420.36,-173.01 1416.39,-167.24"/>
</a>
</g>
</g>
<!-- Node4&#45;&gt;Node6 -->
<g id="edge5_Node000004_Node000006" class="edge">
<title>Node4&#45;&gt;Node6</title>
<g id="a_edge5_Node000004_Node000006"><a xlink:title=" ">
<path fill="none" stroke="#63b8ff" d="M1308.34,-175.97C999.97,-141.76 918.84,-165.68 613.5,-140 596.05,-138.53 577.21,-136.53 559.76,-134.5"/>
<polygon fill="#63b8ff" stroke="#63b8ff" points="1308.14,-179.47 1318.46,-177.11 1308.92,-172.51 1308.14,-179.47"/>
</a>
</g>
</g>
<!-- Node10 -->
<g id="Node000010" class="node">
<title>Node10</title>
<g id="a_Node000010"><a xlink:href="main_8cpp.html" target="_top" xlink:title=" ">
<polygon fill="white" stroke="#666666" points="1386,-134.5 1307,-134.5 1307,-115.5 1386,-115.5 1386,-134.5"/>
<text text-anchor="middle" x="1346.5" y="-122.5" font-family="Helvetica,sans-Serif" font-size="10.00">src/main.cpp</text>
</a>
</g>
</g>
<!-- Node4&#45;&gt;Node10 -->
<g id="edge10_Node000004_Node000010" class="edge">
<title>Node4&#45;&gt;Node10</title>
<g id="a_edge10_Node000004_Node000010"><a xlink:title=" ">
<path fill="none" stroke="#63b8ff" d="M1374.23,-167.28C1366.7,-156.07 1358.05,-143.19 1352.44,-134.84"/>
<polygon fill="#63b8ff" stroke="#63b8ff" points="1371.47,-169.45 1379.96,-175.8 1377.29,-165.54 1371.47,-169.45"/>
</a>
</g>
</g>
<!-- Node4&#45;&gt;Node11 -->
<g id="edge11_Node000004_Node000011" class="edge">
<title>Node4&#45;&gt;Node11</title>
<g id="a_edge11_Node000004_Node000011"><a xlink:title=" ">
<path fill="none" stroke="#63b8ff" d="M1457.99,-173.58C1501.33,-163.19 1556.77,-149.9 1598.04,-140.01"/>
<polygon fill="#63b8ff" stroke="#63b8ff" points="1457,-170.22 1448.09,-175.95 1458.63,-177.03 1457,-170.22"/>
</a>
</g>
</g>
<!-- Node12 -->
<g id="Node000012" class="node">
<title>Node12</title>
<g id="a_Node000012"><a xlink:href="_properties_widget_8cpp.html" target="_top" xlink:title=" ">
<polygon fill="white" stroke="#666666" points="1124,-140 987,-140 987,-110 1124,-110 1124,-140"/>
<text text-anchor="start" x="995" y="-128" font-family="Helvetica,sans-Serif" font-size="10.00">src/ui/widgets/Properties</text>
<text text-anchor="middle" x="1055.5" y="-117" font-family="Helvetica,sans-Serif" font-size="10.00">Widget.cpp</text>
</a>
</g>
</g>
<!-- Node4&#45;&gt;Node12 -->
<g id="edge12_Node000004_Node000012" class="edge">
<title>Node4&#45;&gt;Node12</title>
<g id="a_edge12_Node000004_Node000012"><a xlink:title=" ">
<path fill="none" stroke="#63b8ff" d="M1308.3,-174.44C1251.87,-163.63 1177.51,-149.38 1124.06,-139.14"/>
<polygon fill="#63b8ff" stroke="#63b8ff" points="1307.78,-177.9 1318.26,-176.35 1309.1,-171.03 1307.78,-177.9"/>
</a>
</g>
</g>
<!-- Node6&#45;&gt;Node6 -->
<g id="edge9_Node000006_Node000006" class="edge">
<title>Node6&#45;&gt;Node6</title>
<g id="a_edge9_Node000006_Node000006"><a xlink:title=" ">
<path fill="none" stroke="#63b8ff" d="M544.53,-135.52C575.37,-137.92 604.5,-134.41 604.5,-125 604.5,-114.57 568.72,-111.39 534.49,-115.47"/>
<polygon fill="#63b8ff" stroke="#63b8ff" points="544.78,-132.03 534.49,-134.53 544.1,-138.99 544.78,-132.03"/>
</a>
</g>
</g>
<!-- Node7 -->
<g id="Node000007" class="node">
<title>Node7</title>
<g id="a_Node000007"><a xlink:href="_runtime_8hpp.html" target="_top" xlink:title=" ">
<polygon fill="white" stroke="#666666" points="811.5,-74 671.5,-74 671.5,-55 811.5,-55 811.5,-74"/>
<text text-anchor="middle" x="741.5" y="-62" font-family="Helvetica,sans-Serif" font-size="10.00">src/Runtime/Runtime.hpp</text>
</a>
</g>
</g>
<!-- Node6&#45;&gt;Node7 -->
<g id="edge6_Node000006_Node000007" class="edge">
<title>Node6&#45;&gt;Node7</title>
<g id="a_edge6_Node000006_Node000007"><a xlink:title=" ">
<path fill="none" stroke="#63b8ff" d="M539.37,-113.18C587.29,-101.88 661.48,-84.38 705.4,-74.02"/>
<polygon fill="#63b8ff" stroke="#63b8ff" points="538.49,-109.79 529.56,-115.49 540.1,-116.6 538.49,-109.79"/>
</a>
</g>
</g>
<!-- Node8 -->
<g id="Node000008" class="node">
<title>Node8</title>
<g id="a_Node000008"><a xlink:href="_runtime_8cpp.html" target="_top" xlink:title=" ">
<polygon fill="white" stroke="#666666" points="724.5,-19 584.5,-19 584.5,0 724.5,0 724.5,-19"/>
<text text-anchor="middle" x="654.5" y="-7" font-family="Helvetica,sans-Serif" font-size="10.00">src/Runtime/Runtime.cpp</text>
</a>
</g>
</g>
<!-- Node7&#45;&gt;Node8 -->
<g id="edge7_Node000007_Node000008" class="edge">
<title>Node7&#45;&gt;Node8</title>
<g id="a_edge7_Node000007_Node000008"><a xlink:title=" ">
<path fill="none" stroke="#63b8ff" d="M718.84,-49.7C702.99,-40.04 682.31,-27.44 668.73,-19.17"/>
<polygon fill="#63b8ff" stroke="#63b8ff" points="717.16,-52.77 727.52,-54.98 720.8,-46.79 717.16,-52.77"/>
</a>
</g>
</g>
<!-- Node9 -->
<g id="Node000009" class="node">
<title>Node9</title>
<g id="a_Node000009"><a xlink:href="_scene_widget_8hpp.html" target="_top" xlink:title="Contains the declaration of the SceneWidget class, a user interface widget for rendering scenes.">
<polygon fill="white" stroke="#666666" points="914.5,-19 742.5,-19 742.5,0 914.5,0 914.5,-19"/>
<text text-anchor="middle" x="828.5" y="-7" font-family="Helvetica,sans-Serif" font-size="10.00">src/ui/widgets/SceneWidget.hpp</text>
</a>
</g>
</g>
<!-- Node7&#45;&gt;Node9 -->
<g id="edge8_Node000007_Node000009" class="edge">
<title>Node7&#45;&gt;Node9</title>
<g id="a_edge8_Node000007_Node000009"><a xlink:title=" ">
<path fill="none" stroke="#63b8ff" d="M764.16,-49.7C780.01,-40.04 800.69,-27.44 814.27,-19.17"/>
<polygon fill="#63b8ff" stroke="#63b8ff" points="762.2,-46.79 755.48,-54.98 765.84,-52.77 762.2,-46.79"/>
</a>
</g>
</g>
<!-- Node13&#45;&gt;Node5 -->
<g id="edge14_Node000013_Node000005" class="edge">
<title>Node13&#45;&gt;Node5</title>
<g id="a_edge14_Node000013_Node000005"><a xlink:title=" ">
<path fill="none" stroke="#63b8ff" d="M1086.95,-180.21C1181.79,-168.17 1336.89,-148.32 1394.5,-140 1406.14,-138.32 1418.62,-136.4 1430.42,-134.54"/>
<polygon fill="#63b8ff" stroke="#63b8ff" points="1086.31,-176.76 1076.83,-181.49 1087.2,-183.71 1086.31,-176.76"/>
</a>
</g>
</g>
<!-- Node13&#45;&gt;Node6 -->
<g id="edge16_Node000013_Node000006" class="edge">
<title>Node13&#45;&gt;Node6</title>
<g id="a_edge16_Node000013_Node000006"><a xlink:title=" ">
<path fill="none" stroke="#63b8ff" d="M930.61,-180.21C830.01,-167.74 657.69,-146.36 562.22,-134.52"/>
<polygon fill="#63b8ff" stroke="#63b8ff" points="930.36,-183.71 940.71,-181.47 931.22,-176.76 930.36,-183.71"/>
</a>
</g>
</g>
<!-- Node13&#45;&gt;Node10 -->
<g id="edge17_Node000013_Node000010" class="edge">
<title>Node13&#45;&gt;Node10</title>
<g id="a_edge17_Node000013_Node000010"><a xlink:title=" ">
<path fill="none" stroke="#63b8ff" d="M1079.69,-179.95C1138.26,-171.06 1223.77,-156.88 1297.5,-140 1304.4,-138.42 1311.77,-136.46 1318.65,-134.51"/>
<polygon fill="#63b8ff" stroke="#63b8ff" points="1078.81,-176.55 1069.44,-181.5 1079.85,-183.47 1078.81,-176.55"/>
</a>
</g>
</g>
<!-- Node13&#45;&gt;Node12 -->
<g id="edge19_Node000013_Node000012" class="edge">
<title>Node13&#45;&gt;Node12</title>
<g id="a_edge19_Node000013_Node000012"><a xlink:title=" ">
<path fill="none" stroke="#63b8ff" d="M1021.55,-173.24C1028.89,-163.02 1038.18,-150.1 1045.18,-140.36"/>
<polygon fill="#63b8ff" stroke="#63b8ff" points="1018.7,-171.21 1015.7,-181.37 1024.38,-175.29 1018.7,-171.21"/>
</a>
</g>
</g>
<!-- Node14 -->
<g id="Node000014" class="node">
<title>Node14</title>
<g id="a_Node000014"><a xlink:href="_object_selection_system_8cpp.html" target="_top" xlink:title=" ">
<polygon fill="white" stroke="#666666" points="778,-140 623,-140 623,-110 778,-110 778,-140"/>
<text text-anchor="start" x="631" y="-128" font-family="Helvetica,sans-Serif" font-size="10.00">src/Systems/ObjectSelection</text>
<text text-anchor="middle" x="700.5" y="-117" font-family="Helvetica,sans-Serif" font-size="10.00">System.cpp</text>
</a>
</g>
</g>
<!-- Node13&#45;&gt;Node14 -->
<g id="edge15_Node000013_Node000014" class="edge">
<title>Node13&#45;&gt;Node14</title>
<g id="a_edge15_Node000013_Node000014"><a xlink:title=" ">
<path fill="none" stroke="#63b8ff" d="M958.14,-179.36C906.14,-168.59 825.43,-151.87 768.21,-140.02"/>
<polygon fill="#63b8ff" stroke="#63b8ff" points="957.65,-182.83 968.15,-181.44 959.07,-175.98 957.65,-182.83"/>
</a>
</g>
</g>
<!-- Node13&#45;&gt;Node15 -->
<g id="edge18_Node000013_Node000015" class="edge">
<title>Node13&#45;&gt;Node15</title>
<g id="a_edge18_Node000013_Node000015"><a xlink:title=" ">
<path fill="none" stroke="#63b8ff" d="M896.19,-180.87C719.49,-166.62 397.71,-140.65 391.5,-140 388.4,-139.67 385.25,-139.33 382.07,-138.98"/>
<polygon fill="#63b8ff" stroke="#63b8ff" points="896.06,-184.37 906.31,-181.68 896.62,-177.39 896.06,-184.37"/>
</a>
</g>
</g>
<!-- Node16&#45;&gt;Node6 -->
<g id="edge22_Node000016_Node000006" class="edge">
<title>Node16&#45;&gt;Node6</title>
<g id="a_edge22_Node000016_Node000006"><a xlink:title=" ">
<path fill="none" stroke="#63b8ff" d="M678.82,-173.44C630.15,-160.98 565.44,-144.42 526.77,-134.52"/>
<polygon fill="#63b8ff" stroke="#63b8ff" points="678.08,-176.87 688.64,-175.95 679.82,-170.08 678.08,-176.87"/>
</a>
</g>
</g>
<!-- Node16&#45;&gt;Node10 -->
<g id="edge23_Node000016_Node000010" class="edge">
<title>Node16&#45;&gt;Node10</title>
<g id="a_edge23_Node000016_Node000010"><a xlink:title=" ">
<path fill="none" stroke="#63b8ff" d="M837.04,-181.48C856.99,-179.67 877.94,-177.77 897.5,-176 1075.27,-159.92 1122.02,-172.66 1297.5,-140 1304.89,-138.62 1312.78,-136.62 1320.01,-134.55"/>
<polygon fill="#63b8ff" stroke="#63b8ff" points="836.66,-178 827.02,-182.39 837.3,-184.97 836.66,-178"/>
</a>
</g>
</g>
<!-- Node16&#45;&gt;Node17 -->
<g id="edge21_Node000016_Node000017" class="edge">
<title>Node16&#45;&gt;Node17</title>
<g id="a_edge21_Node000016_Node000017"><a xlink:title=" ">
<path fill="none" stroke="#63b8ff" d="M649.61,-183.56C536.83,-175.41 341.99,-159.98 175.5,-140 162.67,-138.46 148.87,-136.52 135.97,-134.57"/>
<polygon fill="#63b8ff" stroke="#63b8ff" points="649.37,-187.05 659.6,-184.28 649.88,-180.07 649.37,-187.05"/>
</a>
</g>
</g>
<!-- Node18&#45;&gt;Node5 -->
<g id="edge25_Node000018_Node000005" class="edge">
<title>Node18&#45;&gt;Node5</title>
<g id="a_edge25_Node000018_Node000005"><a xlink:title=" ">
<path fill="none" stroke="#63b8ff" d="M1283.93,-173.6C1335.98,-161.12 1405.5,-144.46 1446.97,-134.52"/>
<polygon fill="#63b8ff" stroke="#63b8ff" points="1283,-170.22 1274.09,-175.95 1284.63,-177.03 1283,-170.22"/>
</a>
</g>
</g>
<!-- Node18&#45;&gt;Node6 -->
<g id="edge29_Node000018_Node000006" class="edge">
<title>Node18&#45;&gt;Node6</title>
<g id="a_edge29_Node000018_Node000006"><a xlink:title=" ">
<path fill="none" stroke="#63b8ff" d="M1120.31,-175.93C894.78,-151.59 835.56,-160.81 613.5,-140 596.79,-138.43 578.81,-136.48 561.98,-134.53"/>
<polygon fill="#63b8ff" stroke="#63b8ff" points="1120.16,-179.43 1130.48,-177.04 1120.92,-172.48 1120.16,-179.43"/>
</a>
</g>
</g>
<!-- Node18&#45;&gt;Node10 -->
<g id="edge30_Node000018_Node000010" class="edge">
<title>Node18&#45;&gt;Node10</title>
<g id="a_edge30_Node000018_Node000010"><a xlink:title=" ">
<path fill="none" stroke="#63b8ff" d="M1253.45,-171.46C1278.4,-159.27 1309.86,-143.9 1329.07,-134.52"/>
<polygon fill="#63b8ff" stroke="#63b8ff" points="1251.7,-168.42 1244.25,-175.95 1254.77,-174.71 1251.7,-168.42"/>
</a>
</g>
</g>
<!-- Node18&#45;&gt;Node12 -->
<g id="edge32_Node000018_Node000012" class="edge">
<title>Node18&#45;&gt;Node12</title>
<g id="a_edge32_Node000018_Node000012"><a xlink:title=" ">
<path fill="none" stroke="#63b8ff" d="M1170.97,-172.19C1145.56,-162.02 1114.17,-149.47 1090.53,-140.01"/>
<polygon fill="#63b8ff" stroke="#63b8ff" points="1169.8,-175.49 1180.39,-175.95 1172.4,-168.99 1169.8,-175.49"/>
</a>
</g>
</g>
<!-- Node19 -->
<g id="Node000019" class="node">
<title>Node19</title>
<g id="a_Node000019"><a xlink:href="_particle_system_8hpp.html" target="_top" xlink:title=" ">
<polygon fill="white" stroke="#666666" points="969,-134.5 796,-134.5 796,-115.5 969,-115.5 969,-134.5"/>
<text text-anchor="middle" x="882.5" y="-122.5" font-family="Helvetica,sans-Serif" font-size="10.00">src/Systems/ParticleSystem.hpp</text>
</a>
</g>
</g>
<!-- Node18&#45;&gt;Node19 -->
<g id="edge26_Node000018_Node000019" class="edge">
<title>Node18&#45;&gt;Node19</title>
<g id="a_edge26_Node000018_Node000019"><a xlink:title=" ">
<path fill="none" stroke="#63b8ff" d="M1132.58,-174.06C1067.41,-161.54 979.18,-144.58 926.82,-134.52"/>
<polygon fill="#63b8ff" stroke="#63b8ff" points="1131.94,-177.5 1142.42,-175.95 1133.26,-170.63 1131.94,-177.5"/>
</a>
</g>
</g>
<!-- Node21 -->
<g id="Node000021" class="node">
<title>Node21</title>
<g id="a_Node000021"><a xlink:href="_particle_emitter_component_u_i_8hpp.html" target="_top" xlink:title=" ">
<polygon fill="white" stroke="#666666" points="1288.5,-140 1142.5,-140 1142.5,-110 1288.5,-110 1288.5,-140"/>
<text text-anchor="start" x="1150.5" y="-128" font-family="Helvetica,sans-Serif" font-size="10.00">src/ui/Components/Particle</text>
<text text-anchor="middle" x="1215.5" y="-117" font-family="Helvetica,sans-Serif" font-size="10.00">EmitterComponentUI.hpp</text>
</a>
</g>
</g>
<!-- Node18&#45;&gt;Node21 -->
<g id="edge31_Node000018_Node000021" class="edge">
<title>Node18&#45;&gt;Node21</title>
<g id="a_edge31_Node000018_Node000021"><a xlink:title=" ">
<path fill="none" stroke="#63b8ff" d="M1215.5,-165.54C1215.5,-156.96 1215.5,-147.61 1215.5,-140.16"/>
<polygon fill="#63b8ff" stroke="#63b8ff" points="1212,-165.8 1215.5,-175.8 1219,-165.8 1212,-165.8"/>
</a>
</g>
</g>
<!-- Node19&#45;&gt;Node7 -->
<g id="edge27_Node000019_Node000007" class="edge">
<title>Node19&#45;&gt;Node7</title>
<g id="a_edge27_Node000019_Node000007"><a xlink:title=" ">
<path fill="none" stroke="#63b8ff" d="M852.57,-111.58C825.33,-100.28 785.85,-83.9 762.03,-74.02"/>
<polygon fill="#63b8ff" stroke="#63b8ff" points="851.42,-114.89 862,-115.49 854.1,-108.43 851.42,-114.89"/>
</a>
</g>
</g>
<!-- Node19&#45;&gt;Node20 -->
<g id="edge28_Node000019_Node000020" class="edge">
<title>Node19&#45;&gt;Node20</title>
<g id="a_edge28_Node000019_Node000020"><a xlink:title=" ">
<path fill="none" stroke="#63b8ff" d="M912.22,-111.58C939.26,-100.28 978.47,-83.9 1002.12,-74.02"/>
<polygon fill="#63b8ff" stroke="#63b8ff" points="910.73,-108.41 902.86,-115.49 913.43,-114.87 910.73,-108.41"/>
</a>
</g>
</g>
<!-- Node22&#45;&gt;Node5 -->
<g id="edge36_Node000022_Node000005" class="edge">
<title>Node22&#45;&gt;Node5</title>
<g id="a_edge36_Node000022_Node000005"><a xlink:title=" ">
<path fill="none" stroke="#63b8ff" d="M1626.68,-177.84C1591.51,-165.2 1537.37,-145.73 1506.41,-134.6"/>
<polygon fill="#63b8ff" stroke="#63b8ff" points="1625.9,-181.28 1636.49,-181.37 1628.27,-174.69 1625.9,-181.28"/>
</a>
</g>
</g>
<!-- Node22&#45;&gt;Node10 -->
<g id="edge38_Node000022_Node000010" class="edge">
<title>Node22&#45;&gt;Node10</title>
<g id="a_edge38_Node000022_Node000010"><a xlink:title=" ">
<path fill="none" stroke="#63b8ff" d="M1596.54,-179.79C1542.43,-170.72 1462.98,-156.38 1394.5,-140 1387.83,-138.4 1380.71,-136.46 1374.04,-134.54"/>
<polygon fill="#63b8ff" stroke="#63b8ff" points="1596.24,-183.29 1606.68,-181.48 1597.39,-176.38 1596.24,-183.29"/>
</a>
</g>
</g>
<!-- Node23 -->
<g id="Node000023" class="node">
<title>Node23</title>
<g id="a_Node000023"><a xlink:href="_asset_utils_8cpp.html" target="_top" xlink:title=" ">
<polygon fill="white" stroke="#666666" points="1881,-134.5 1752,-134.5 1752,-115.5 1881,-115.5 1881,-134.5"/>
<text text-anchor="middle" x="1816.5" y="-122.5" font-family="Helvetica,sans-Serif" font-size="10.00">src/Utils/AssetUtils.cpp</text>
</a>
</g>
</g>
<!-- Node22&#45;&gt;Node23 -->
<g id="edge37_Node000022_Node000023" class="edge">
<title>Node22&#45;&gt;Node23</title>
<g id="a_edge37_Node000022_Node000023"><a xlink:title=" ">
<path fill="none" stroke="#63b8ff" d="M1690.94,-177.51C1721.78,-164.86 1768.65,-145.63 1795.55,-134.6"/>
<polygon fill="#63b8ff" stroke="#63b8ff" points="1689.46,-174.33 1681.54,-181.37 1692.12,-180.81 1689.46,-174.33"/>
</a>
</g>
</g>
<!-- Node22&#45;&gt;Node24 -->
<g id="edge39_Node000022_Node000024" class="edge">
<title>Node22&#45;&gt;Node24</title>
<g id="a_edge39_Node000022_Node000024"><a xlink:title=" ">
<path fill="none" stroke="#63b8ff" d="M1711.86,-179.36C1763.86,-168.59 1844.57,-151.87 1901.79,-140.02"/>
<polygon fill="#63b8ff" stroke="#63b8ff" points="1710.93,-175.98 1701.85,-181.44 1712.35,-182.83 1710.93,-175.98"/>
</a>
</g>
</g>
<!-- Node22&#45;&gt;Node25 -->
<g id="edge40_Node000022_Node000025" class="edge">
<title>Node22&#45;&gt;Node25</title>
<g id="a_edge40_Node000022_Node000025"><a xlink:title=" ">
<path fill="none" stroke="#63b8ff" d="M1743.96,-180.62C1822.66,-171.46 1943.84,-156.5 2048.5,-140 2051.38,-139.55 2054.32,-139.07 2057.28,-138.57"/>
<polygon fill="#63b8ff" stroke="#63b8ff" points="1743.15,-177.19 1733.62,-181.82 1743.95,-184.15 1743.15,-177.19"/>
</a>
</g>
</g>
</g>
</svg>
