<?xml version="1.0" encoding="UTF-8" standalone="no"?>
<!DOCTYPE svg PUBLIC "-//W3C//DTD SVG 1.1//EN"
 "http://www.w3.org/Graphics/SVG/1.1/DTD/svg11.dtd">
<!-- Generated by graphviz version 2.43.0 (0)
 -->
<!-- Title: src/ui/widgets/PropertiesWidget.hpp Pages: 1 -->
<svg width="623pt" height="319pt"
 viewBox="0.00 0.00 622.89 319.00" xmlns="http://www.w3.org/2000/svg" xmlns:xlink="http://www.w3.org/1999/xlink">
<g id="graph0" class="graph" transform="scale(1 1) rotate(0) translate(4 315)">
<title>src/ui/widgets/PropertiesWidget.hpp</title>
<polygon fill="white" stroke="transparent" points="-4,4 -4,-315 618.89,-315 618.89,4 -4,4"/>
<!-- Node1 -->
<g id="node1" class="node">
<title>Node1</title>
<g id="a_node1"><a xlink:title="Contains the declaration of the PropertiesWidget class, a user interface widget for managing game obj...">
<polygon fill="#bfbfbf" stroke="black" points="94.5,-280.5 94.5,-310.5 231.5,-310.5 231.5,-280.5 94.5,-280.5"/>
<text text-anchor="start" x="102.5" y="-298.5" font-family="Helvetica,sans-Serif" font-size="10.00">src/ui/widgets/Properties</text>
<text text-anchor="middle" x="163" y="-287.5" font-family="Helvetica,sans-Serif" font-size="10.00">Widget.hpp</text>
</a>
</g>
</g>
<!-- Node2 -->
<g id="node2" class="node">
<title>Node2</title>
<g id="a_node2"><a xlink:title=" ">
<polygon fill="white" stroke="#bfbfbf" points="0,-224.5 0,-243.5 86,-243.5 86,-224.5 0,-224.5"/>
<text text-anchor="middle" x="43" y="-231.5" font-family="Helvetica,sans-Serif" font-size="10.00">UI/Widget.hpp</text>
</a>
</g>
</g>
<!-- Node1&#45;&gt;Node2 -->
<g id="edge1" class="edge">
<title>Node1&#45;&gt;Node2</title>
<path fill="none" stroke="midnightblue" d="M134.56,-280.4C114.88,-270.64 88.86,-257.74 69.59,-248.18"/>
<polygon fill="midnightblue" stroke="midnightblue" points="70.98,-244.96 60.46,-243.66 67.87,-251.24 70.98,-244.96"/>
</g>
<!-- Node3 -->
<g id="node3" class="node">
<title>Node3</title>
<g id="a_node3"><a xlink:title=" ">
<polygon fill="white" stroke="#bfbfbf" points="104,-224.5 104,-243.5 222,-243.5 222,-224.5 104,-224.5"/>
<text text-anchor="middle" x="163" y="-231.5" font-family="Helvetica,sans-Serif" font-size="10.00">UI/ComponentUI.hpp</text>
</a>
</g>
</g>
<!-- Node1&#45;&gt;Node3 -->
<g id="edge2" class="edge">
<title>Node1&#45;&gt;Node3</title>
<path fill="none" stroke="midnightblue" d="M163,-280.4C163,-272.47 163,-262.46 163,-253.86"/>
<polygon fill="midnightblue" stroke="midnightblue" points="166.5,-253.66 163,-243.66 159.5,-253.66 166.5,-253.66"/>
</g>
<!-- Node4 -->
<g id="node4" class="node">
<title>Node4</title>
<g id="a_node4"><a xlink:href="_registry_8hpp.html" target="_top" xlink:title=" ">
<polygon fill="white" stroke="black" points="240,-224.5 240,-243.5 338,-243.5 338,-224.5 240,-224.5"/>
<text text-anchor="middle" x="289" y="-231.5" font-family="Helvetica,sans-Serif" font-size="10.00">ECS/Registry.hpp</text>
</a>
</g>
</g>
<!-- Node1&#45;&gt;Node4 -->
<g id="edge3" class="edge">
<title>Node1&#45;&gt;Node4</title>
<path fill="none" stroke="midnightblue" d="M192.86,-280.4C213.62,-270.59 241.1,-257.62 261.36,-248.05"/>
<polygon fill="midnightblue" stroke="midnightblue" points="263.12,-251.09 270.67,-243.66 260.13,-244.76 263.12,-251.09"/>
</g>
<!-- Node5 -->
<g id="node5" class="node">
<title>Node5</title>
<g id="a_node5"><a xlink:title=" ">
<polygon fill="white" stroke="#bfbfbf" points="317,-112.5 317,-131.5 403,-131.5 403,-112.5 317,-112.5"/>
<text text-anchor="middle" x="360" y="-119.5" font-family="Helvetica,sans-Serif" font-size="10.00">unordered_set</text>
</a>
</g>
</g>
<!-- Node4&#45;&gt;Node5 -->
<g id="edge4" class="edge">
<title>Node4&#45;&gt;Node5</title>
<path fill="none" stroke="midnightblue" d="M294.57,-224.37C306.24,-206.3 333.42,-164.18 348.83,-140.31"/>
<polygon fill="midnightblue" stroke="midnightblue" points="351.97,-141.89 354.45,-131.59 346.09,-138.1 351.97,-141.89"/>
</g>
<!-- Node6 -->
<g id="node6" class="node">
<title>Node6</title>
<g id="a_node6"><a xlink:href="_entity_8hpp.html" target="_top" xlink:title=" ">
<polygon fill="white" stroke="black" points="246,-56.5 246,-75.5 332,-75.5 332,-56.5 246,-56.5"/>
<text text-anchor="middle" x="289" y="-63.5" font-family="Helvetica,sans-Serif" font-size="10.00">ECS/Entity.hpp</text>
</a>
</g>
</g>
<!-- Node4&#45;&gt;Node6 -->
<g id="edge5" class="edge">
<title>Node4&#45;&gt;Node6</title>
<path fill="none" stroke="midnightblue" d="M289,-224.08C289,-197.95 289,-121.21 289,-85.58"/>
<polygon fill="midnightblue" stroke="midnightblue" points="292.5,-85.57 289,-75.57 285.5,-85.57 292.5,-85.57"/>
</g>
<!-- Node8 -->
<g id="node8" class="node">
<title>Node8</title>
<g id="a_node8"><a xlink:href="_entity_hierarchy_8hpp.html" target="_top" xlink:title=" ">
<polygon fill="white" stroke="black" points="387,-168.5 387,-187.5 521,-187.5 521,-168.5 387,-168.5"/>
<text text-anchor="middle" x="454" y="-175.5" font-family="Helvetica,sans-Serif" font-size="10.00">ECS/EntityHierarchy.hpp</text>
</a>
</g>
</g>
<!-- Node4&#45;&gt;Node8 -->
<g id="edge7" class="edge">
<title>Node4&#45;&gt;Node8</title>
<path fill="none" stroke="midnightblue" d="M315.14,-224.44C343.02,-215.32 387.35,-200.81 418.4,-190.65"/>
<polygon fill="midnightblue" stroke="midnightblue" points="419.56,-193.95 427.98,-187.52 417.38,-187.3 419.56,-193.95"/>
</g>
<!-- Node11 -->
<g id="node11" class="node">
<title>Node11</title>
<g id="a_node11"><a xlink:href="_entity_provider_8hpp.html" target="_top" xlink:title="Manages a pool of unused entity identifiers and provides mechanisms for requesting and removing them.">
<polygon fill="white" stroke="black" points="133,-112.5 133,-131.5 261,-131.5 261,-112.5 133,-112.5"/>
<text text-anchor="middle" x="197" y="-119.5" font-family="Helvetica,sans-Serif" font-size="10.00">ECS/EntityProvider.hpp</text>
</a>
</g>
</g>
<!-- Node4&#45;&gt;Node11 -->
<g id="edge12" class="edge">
<title>Node4&#45;&gt;Node11</title>
<path fill="none" stroke="midnightblue" d="M281.78,-224.37C266.46,-206.05 230.5,-163.05 210.68,-139.36"/>
<polygon fill="midnightblue" stroke="midnightblue" points="213.29,-137.02 204.19,-131.59 207.92,-141.51 213.29,-137.02"/>
</g>
<!-- Node13 -->
<g id="node13" class="node">
<title>Node13</title>
<g id="a_node13"><a xlink:href="_sparse_set_8hpp.html" target="_top" xlink:title=" ">
<polygon fill="white" stroke="black" points="115,-168.5 115,-187.5 223,-187.5 223,-168.5 115,-168.5"/>
<text text-anchor="middle" x="169" y="-175.5" font-family="Helvetica,sans-Serif" font-size="10.00">ECS/SparseSet.hpp</text>
</a>
</g>
</g>
<!-- Node4&#45;&gt;Node13 -->
<g id="edge16" class="edge">
<title>Node4&#45;&gt;Node13</title>
<path fill="none" stroke="midnightblue" d="M269.99,-224.44C250.41,-215.64 219.69,-201.81 197.27,-191.72"/>
<polygon fill="midnightblue" stroke="midnightblue" points="198.48,-188.43 187.93,-187.52 195.61,-194.81 198.48,-188.43"/>
</g>
<!-- Node7 -->
<g id="node7" class="node">
<title>Node7</title>
<g id="a_node7"><a xlink:title=" ">
<polygon fill="white" stroke="#bfbfbf" points="193.5,-0.5 193.5,-19.5 246.5,-19.5 246.5,-0.5 193.5,-0.5"/>
<text text-anchor="middle" x="220" y="-7.5" font-family="Helvetica,sans-Serif" font-size="10.00">stdlib.h</text>
</a>
</g>
</g>
<!-- Node6&#45;&gt;Node7 -->
<g id="edge6" class="edge">
<title>Node6&#45;&gt;Node7</title>
<path fill="none" stroke="midnightblue" d="M277.91,-56.32C267.51,-48.18 251.74,-35.84 239.28,-26.09"/>
<polygon fill="midnightblue" stroke="midnightblue" points="241.32,-23.24 231.29,-19.83 237.01,-28.75 241.32,-23.24"/>
</g>
<!-- Node8&#45;&gt;Node5 -->
<g id="edge9" class="edge">
<title>Node8&#45;&gt;Node5</title>
<path fill="none" stroke="midnightblue" d="M438.9,-168.32C424.1,-159.82 401.31,-146.73 384.02,-136.8"/>
<polygon fill="midnightblue" stroke="midnightblue" points="385.48,-133.6 375.07,-131.65 381.99,-139.67 385.48,-133.6"/>
</g>
<!-- Node8&#45;&gt;Node6 -->
<g id="edge11" class="edge">
<title>Node8&#45;&gt;Node6</title>
<path fill="none" stroke="midnightblue" d="M521.13,-170.29C574.66,-162.32 636.19,-145.61 607,-112 573.34,-73.24 423.6,-66.96 342.17,-66.48"/>
<polygon fill="midnightblue" stroke="midnightblue" points="342.12,-62.98 332.11,-66.45 342.1,-69.98 342.12,-62.98"/>
</g>
<!-- Node9 -->
<g id="node9" class="node">
<title>Node9</title>
<g id="a_node9"><a xlink:title=" ">
<polygon fill="white" stroke="#bfbfbf" points="421.5,-112.5 421.5,-131.5 486.5,-131.5 486.5,-112.5 421.5,-112.5"/>
<text text-anchor="middle" x="454" y="-119.5" font-family="Helvetica,sans-Serif" font-size="10.00">functional</text>
</a>
</g>
</g>
<!-- Node8&#45;&gt;Node9 -->
<g id="edge8" class="edge">
<title>Node8&#45;&gt;Node9</title>
<path fill="none" stroke="midnightblue" d="M454,-168.08C454,-161.01 454,-150.86 454,-141.99"/>
<polygon fill="midnightblue" stroke="midnightblue" points="457.5,-141.75 454,-131.75 450.5,-141.75 457.5,-141.75"/>
</g>
<!-- Node10 -->
<g id="node10" class="node">
<title>Node10</title>
<g id="a_node10"><a xlink:title=" ">
<polygon fill="white" stroke="#bfbfbf" points="504.5,-112.5 504.5,-131.5 597.5,-131.5 597.5,-112.5 504.5,-112.5"/>
<text text-anchor="middle" x="551" y="-119.5" font-family="Helvetica,sans-Serif" font-size="10.00">unordered_map</text>
</a>
</g>
</g>
<!-- Node8&#45;&gt;Node10 -->
<g id="edge10" class="edge">
<title>Node8&#45;&gt;Node10</title>
<path fill="none" stroke="midnightblue" d="M469.58,-168.32C485,-159.74 508.81,-146.49 526.71,-136.52"/>
<polygon fill="midnightblue" stroke="midnightblue" points="528.42,-139.58 535.45,-131.65 525.01,-133.46 528.42,-139.58"/>
</g>
<!-- Node11&#45;&gt;Node6 -->
<g id="edge15" class="edge">
<title>Node11&#45;&gt;Node6</title>
<path fill="none" stroke="midnightblue" d="M211.78,-112.32C226.27,-103.82 248.57,-90.73 265.49,-80.8"/>
<polygon fill="midnightblue" stroke="midnightblue" points="267.4,-83.74 274.26,-75.65 263.86,-77.7 267.4,-83.74"/>
</g>
<!-- Node11&#45;&gt;Node7 -->
<g id="edge13" class="edge">
<title>Node11&#45;&gt;Node7</title>
<path fill="none" stroke="midnightblue" d="M188.81,-112.09C178.27,-99.49 162.3,-75.81 171,-56 176.39,-43.73 186.96,-33.34 196.9,-25.65"/>
<polygon fill="midnightblue" stroke="midnightblue" points="199.25,-28.27 205.34,-19.6 195.17,-22.58 199.25,-28.27"/>
</g>
<!-- Node12 -->
<g id="node12" class="node">
<title>Node12</title>
<g id="a_node12"><a xlink:title=" ">
<polygon fill="white" stroke="#bfbfbf" points="180.5,-56.5 180.5,-75.5 227.5,-75.5 227.5,-56.5 180.5,-56.5"/>
<text text-anchor="middle" x="204" y="-63.5" font-family="Helvetica,sans-Serif" font-size="10.00">queue</text>
</a>
</g>
</g>
<!-- Node11&#45;&gt;Node12 -->
<g id="edge14" class="edge">
<title>Node11&#45;&gt;Node12</title>
<path fill="none" stroke="midnightblue" d="M198.16,-112.08C199.08,-104.93 200.42,-94.64 201.58,-85.69"/>
<polygon fill="midnightblue" stroke="midnightblue" points="205.05,-86.12 202.87,-75.75 198.11,-85.22 205.05,-86.12"/>
</g>
<!-- Node13&#45;&gt;Node11 -->
<g id="edge17" class="edge">
<title>Node13&#45;&gt;Node11</title>
<path fill="none" stroke="midnightblue" d="M173.62,-168.08C177.46,-160.69 183.02,-149.95 187.76,-140.81"/>
<polygon fill="midnightblue" stroke="midnightblue" points="190.97,-142.24 192.46,-131.75 184.75,-139.02 190.97,-142.24"/>
</g>
</g>
</svg>
