<?xml version="1.0" encoding="UTF-8" standalone="no"?>
<!DOCTYPE svg PUBLIC "-//W3C//DTD SVG 1.1//EN"
 "http://www.w3.org/Graphics/SVG/1.1/DTD/svg11.dtd">
<!-- Generated by graphviz version 2.43.0 (0)
 -->
<!-- Title: src/Math/Ray.hpp Pages: 1 -->
<svg width="1444pt" height="274pt"
 viewBox="0.00 0.00 1444.00 274.00" xmlns="http://www.w3.org/2000/svg" xmlns:xlink="http://www.w3.org/1999/xlink">
<g id="graph0" class="graph" transform="scale(1 1) rotate(0) translate(4 270)">
<title>src/Math/Ray.hpp</title>
<polygon fill="white" stroke="transparent" points="-4,4 -4,-270 1440,-270 1440,4 -4,4"/>
<!-- Node1 -->
<g id="node1" class="node">
<title>Node1</title>
<g id="a_node1"><a xlink:title=" ">
<polygon fill="#bfbfbf" stroke="black" points="511.5,-246.5 511.5,-265.5 611.5,-265.5 611.5,-246.5 511.5,-246.5"/>
<text text-anchor="middle" x="561.5" y="-253.5" font-family="Helvetica,sans-Serif" font-size="10.00">src/Math/Ray.hpp</text>
</a>
</g>
</g>
<!-- Node2 -->
<g id="node2" class="node">
<title>Node2</title>
<g id="a_node2"><a xlink:href="_camera_component_8hpp.html" target="_top" xlink:title=" ">
<polygon fill="white" stroke="black" points="839.5,-73 839.5,-92 1053.5,-92 1053.5,-73 839.5,-73"/>
<text text-anchor="middle" x="946.5" y="-80" font-family="Helvetica,sans-Serif" font-size="10.00">src/Components/CameraComponent.hpp</text>
</a>
</g>
</g>
<!-- Node1&#45;&gt;Node2 -->
<g id="edge1" class="edge">
<title>Node1&#45;&gt;Node2</title>
<path fill="none" stroke="midnightblue" d="M589.85,-242.37C664.38,-209.17 864.39,-120.07 927.29,-92.06"/>
<polygon fill="midnightblue" stroke="midnightblue" points="588.3,-239.23 580.59,-246.5 591.15,-245.62 588.3,-239.23"/>
</g>
<!-- Node8 -->
<g id="node8" class="node">
<title>Node8</title>
<g id="a_node8"><a xlink:href="_box_8hpp.html" target="_top" xlink:title=" ">
<polygon fill="white" stroke="black" points="422,-190.5 422,-209.5 523,-209.5 523,-190.5 422,-190.5"/>
<text text-anchor="middle" x="472.5" y="-197.5" font-family="Helvetica,sans-Serif" font-size="10.00">src/Math/Box.hpp</text>
</a>
</g>
</g>
<!-- Node1&#45;&gt;Node8 -->
<g id="edge7" class="edge">
<title>Node1&#45;&gt;Node8</title>
<path fill="none" stroke="midnightblue" d="M538.26,-240.9C521.94,-231 500.63,-218.07 486.76,-209.65"/>
<polygon fill="midnightblue" stroke="midnightblue" points="536.84,-244.13 547.2,-246.32 540.47,-238.14 536.84,-244.13"/>
</g>
<!-- Node3 -->
<g id="node3" class="node">
<title>Node3</title>
<g id="a_node3"><a xlink:href="main_8cpp.html" target="_top" xlink:title=" ">
<polygon fill="white" stroke="black" points="370,-6 370,-25 449,-25 449,-6 370,-6"/>
<text text-anchor="middle" x="409.5" y="-13" font-family="Helvetica,sans-Serif" font-size="10.00">src/main.cpp</text>
</a>
</g>
</g>
<!-- Node2&#45;&gt;Node3 -->
<g id="edge2" class="edge">
<title>Node2&#45;&gt;Node3</title>
<path fill="none" stroke="midnightblue" d="M870.1,-71.73C856.58,-70.09 842.63,-68.45 829.5,-67 664.4,-48.78 620.46,-63.17 457.5,-31 449.98,-29.52 441.96,-27.34 434.67,-25.12"/>
<polygon fill="midnightblue" stroke="midnightblue" points="869.98,-75.24 880.33,-72.99 870.83,-68.3 869.98,-75.24"/>
</g>
<!-- Node4 -->
<g id="node4" class="node">
<title>Node4</title>
<g id="a_node4"><a xlink:href="_development_renderer_system_8cpp.html" target="_top" xlink:title=" ">
<polygon fill="white" stroke="black" points="1058,-0.5 1058,-30.5 1247,-30.5 1247,-0.5 1058,-0.5"/>
<text text-anchor="start" x="1066" y="-18.5" font-family="Helvetica,sans-Serif" font-size="10.00">src/Systems/DevelopmentRenderer</text>
<text text-anchor="middle" x="1152.5" y="-7.5" font-family="Helvetica,sans-Serif" font-size="10.00">System.cpp</text>
</a>
</g>
</g>
<!-- Node2&#45;&gt;Node4 -->
<g id="edge3" class="edge">
<title>Node2&#45;&gt;Node4</title>
<path fill="none" stroke="midnightblue" d="M983.66,-69.77C1018.59,-58.75 1070.91,-42.24 1108.04,-30.53"/>
<polygon fill="midnightblue" stroke="midnightblue" points="982.34,-66.52 973.86,-72.87 984.44,-73.2 982.34,-66.52"/>
</g>
<!-- Node5 -->
<g id="node5" class="node">
<title>Node5</title>
<g id="a_node5"><a xlink:href="_object_selection_system_8cpp.html" target="_top" xlink:title=" ">
<polygon fill="white" stroke="black" points="467,-0.5 467,-30.5 622,-30.5 622,-0.5 467,-0.5"/>
<text text-anchor="start" x="475" y="-18.5" font-family="Helvetica,sans-Serif" font-size="10.00">src/Systems/ObjectSelection</text>
<text text-anchor="middle" x="544.5" y="-7.5" font-family="Helvetica,sans-Serif" font-size="10.00">System.cpp</text>
</a>
</g>
</g>
<!-- Node2&#45;&gt;Node5 -->
<g id="edge4" class="edge">
<title>Node2&#45;&gt;Node5</title>
<path fill="none" stroke="midnightblue" d="M882.81,-71.41C819.17,-61.3 718.54,-45.23 631.5,-31 628.48,-30.51 625.4,-30 622.28,-29.49"/>
<polygon fill="midnightblue" stroke="midnightblue" points="882.27,-74.87 892.7,-72.98 883.37,-67.95 882.27,-74.87"/>
</g>
<!-- Node6 -->
<g id="node6" class="node">
<title>Node6</title>
<g id="a_node6"><a xlink:href="_rendering_system_8cpp.html" target="_top" xlink:title=" ">
<polygon fill="white" stroke="black" points="855,-6 855,-25 1040,-25 1040,-6 855,-6"/>
<text text-anchor="middle" x="947.5" y="-13" font-family="Helvetica,sans-Serif" font-size="10.00">src/Systems/RenderingSystem.cpp</text>
</a>
</g>
</g>
<!-- Node2&#45;&gt;Node6 -->
<g id="edge5" class="edge">
<title>Node2&#45;&gt;Node6</title>
<path fill="none" stroke="midnightblue" d="M946.79,-62.54C946.98,-50.17 947.22,-34.62 947.37,-25.13"/>
<polygon fill="midnightblue" stroke="midnightblue" points="943.29,-62.68 946.63,-72.73 950.29,-62.79 943.29,-62.68"/>
</g>
<!-- Node7 -->
<g id="node7" class="node">
<title>Node7</title>
<g id="a_node7"><a xlink:href="_scene_widget_8cpp.html" target="_top" xlink:title=" ">
<polygon fill="white" stroke="black" points="1265,-6 1265,-25 1436,-25 1436,-6 1265,-6"/>
<text text-anchor="middle" x="1350.5" y="-13" font-family="Helvetica,sans-Serif" font-size="10.00">src/ui/widgets/SceneWidget.cpp</text>
</a>
</g>
</g>
<!-- Node2&#45;&gt;Node7 -->
<g id="edge6" class="edge">
<title>Node2&#45;&gt;Node7</title>
<path fill="none" stroke="midnightblue" d="M1010.07,-71.27C1089.35,-58.52 1223.45,-36.94 1297.47,-25.03"/>
<polygon fill="midnightblue" stroke="midnightblue" points="1009.05,-67.89 999.73,-72.94 1010.16,-74.8 1009.05,-67.89"/>
</g>
<!-- Node9 -->
<g id="node9" class="node">
<title>Node9</title>
<g id="a_node9"><a xlink:href="_mesh_8hpp.html" target="_top" xlink:title=" ">
<polygon fill="white" stroke="black" points="468.5,-134.5 468.5,-153.5 622.5,-153.5 622.5,-134.5 468.5,-134.5"/>
<text text-anchor="middle" x="545.5" y="-141.5" font-family="Helvetica,sans-Serif" font-size="10.00">src/AssetManager/Mesh.hpp</text>
</a>
</g>
</g>
<!-- Node8&#45;&gt;Node9 -->
<g id="edge8" class="edge">
<title>Node8&#45;&gt;Node9</title>
<path fill="none" stroke="midnightblue" d="M492.64,-184.1C505.78,-174.38 522.48,-162.03 533.56,-153.83"/>
<polygon fill="midnightblue" stroke="midnightblue" points="490.19,-181.56 484.23,-190.32 494.35,-187.19 490.19,-181.56"/>
</g>
<!-- Node14 -->
<g id="node14" class="node">
<title>Node14</title>
<g id="a_node14"><a xlink:href="_box_collider_component_8hpp.html" target="_top" xlink:title=" ">
<polygon fill="white" stroke="black" points="231,-67.5 231,-97.5 386,-97.5 386,-67.5 231,-67.5"/>
<text text-anchor="start" x="239" y="-85.5" font-family="Helvetica,sans-Serif" font-size="10.00">src/Components/BoxCollider</text>
<text text-anchor="middle" x="308.5" y="-74.5" font-family="Helvetica,sans-Serif" font-size="10.00">Component.hpp</text>
</a>
</g>
</g>
<!-- Node8&#45;&gt;Node14 -->
<g id="edge18" class="edge">
<title>Node8&#45;&gt;Node14</title>
<path fill="none" stroke="midnightblue" d="M412.19,-189.67C387.23,-183.21 359.5,-172.31 339.5,-154 323.03,-138.92 314.86,-113.51 311.16,-97.67"/>
<polygon fill="midnightblue" stroke="midnightblue" points="411.42,-193.09 421.97,-192.02 413.06,-186.28 411.42,-193.09"/>
</g>
<!-- Node16 -->
<g id="node16" class="node">
<title>Node16</title>
<g id="a_node16"><a xlink:href="_box_8cpp.html" target="_top" xlink:title=" ">
<polygon fill="white" stroke="black" points="349,-134.5 349,-153.5 450,-153.5 450,-134.5 349,-134.5"/>
<text text-anchor="middle" x="399.5" y="-141.5" font-family="Helvetica,sans-Serif" font-size="10.00">src/Math/Box.cpp</text>
</a>
</g>
</g>
<!-- Node8&#45;&gt;Node16 -->
<g id="edge23" class="edge">
<title>Node8&#45;&gt;Node16</title>
<path fill="none" stroke="midnightblue" d="M452.36,-184.1C439.22,-174.38 422.52,-162.03 411.44,-153.83"/>
<polygon fill="midnightblue" stroke="midnightblue" points="450.65,-187.19 460.77,-190.32 454.81,-181.56 450.65,-187.19"/>
</g>
<!-- Node9&#45;&gt;Node3 -->
<g id="edge17" class="edge">
<title>Node9&#45;&gt;Node3</title>
<path fill="none" stroke="midnightblue" d="M489.92,-131.47C469.73,-124.75 448.27,-114.26 433.5,-98 414.46,-77.04 410.48,-41.68 409.68,-25.3"/>
<polygon fill="midnightblue" stroke="midnightblue" points="489.11,-134.88 499.7,-134.47 491.17,-128.19 489.11,-134.88"/>
</g>
<!-- Node10 -->
<g id="node10" class="node">
<title>Node10</title>
<g id="a_node10"><a xlink:href="_mesh_8cpp.html" target="_top" xlink:title=" ">
<polygon fill="white" stroke="black" points="667,-73 667,-92 820,-92 820,-73 667,-73"/>
<text text-anchor="middle" x="743.5" y="-80" font-family="Helvetica,sans-Serif" font-size="10.00">src/AssetManager/Mesh.cpp</text>
</a>
</g>
</g>
<!-- Node9&#45;&gt;Node10 -->
<g id="edge9" class="edge">
<title>Node9&#45;&gt;Node10</title>
<path fill="none" stroke="midnightblue" d="M583.67,-131.53C622.16,-119.96 680.66,-102.38 715.18,-92.01"/>
<polygon fill="midnightblue" stroke="midnightblue" points="582.44,-128.25 573.87,-134.48 584.45,-134.95 582.44,-128.25"/>
</g>
<!-- Node11 -->
<g id="node11" class="node">
<title>Node11</title>
<g id="a_node11"><a xlink:href="_model_component_8hpp.html" target="_top" xlink:title=" ">
<polygon fill="white" stroke="black" points="442.5,-73 442.5,-92 648.5,-92 648.5,-73 442.5,-73"/>
<text text-anchor="middle" x="545.5" y="-80" font-family="Helvetica,sans-Serif" font-size="10.00">src/Components/ModelComponent.hpp</text>
</a>
</g>
</g>
<!-- Node9&#45;&gt;Node11 -->
<g id="edge10" class="edge">
<title>Node9&#45;&gt;Node11</title>
<path fill="none" stroke="midnightblue" d="M545.5,-124.32C545.5,-113.5 545.5,-100.4 545.5,-92.01"/>
<polygon fill="midnightblue" stroke="midnightblue" points="542,-124.48 545.5,-134.48 549,-124.48 542,-124.48"/>
</g>
<!-- Node11&#45;&gt;Node3 -->
<g id="edge11" class="edge">
<title>Node11&#45;&gt;Node3</title>
<path fill="none" stroke="midnightblue" d="M518.18,-68.44C491.24,-55.57 450.84,-36.26 427.63,-25.17"/>
<polygon fill="midnightblue" stroke="midnightblue" points="516.91,-71.71 527.44,-72.87 519.93,-65.4 516.91,-71.71"/>
</g>
<!-- Node11&#45;&gt;Node4 -->
<g id="edge12" class="edge">
<title>Node11&#45;&gt;Node4</title>
<path fill="none" stroke="midnightblue" d="M618.8,-71.71C632,-70.05 645.65,-68.42 658.5,-67 831.96,-47.89 876.16,-51.17 1049.5,-31 1052.28,-30.68 1055.1,-30.34 1057.95,-29.99"/>
<polygon fill="midnightblue" stroke="midnightblue" points="618.28,-68.24 608.8,-72.97 619.16,-75.19 618.28,-68.24"/>
</g>
<!-- Node11&#45;&gt;Node5 -->
<g id="edge13" class="edge">
<title>Node11&#45;&gt;Node5</title>
<path fill="none" stroke="midnightblue" d="M545.21,-62.41C545.05,-52.22 544.86,-39.9 544.72,-30.59"/>
<polygon fill="midnightblue" stroke="midnightblue" points="541.71,-62.79 545.37,-72.73 548.71,-62.68 541.71,-62.79"/>
</g>
<!-- Node11&#45;&gt;Node6 -->
<g id="edge14" class="edge">
<title>Node11&#45;&gt;Node6</title>
<path fill="none" stroke="midnightblue" d="M608.75,-71.27C687.64,-58.52 821.08,-36.94 894.73,-25.03"/>
<polygon fill="midnightblue" stroke="midnightblue" points="607.78,-67.88 598.47,-72.94 608.9,-74.79 607.78,-67.88"/>
</g>
<!-- Node12 -->
<g id="node12" class="node">
<title>Node12</title>
<g id="a_node12"><a xlink:href="_model_component_u_i_8hpp.html" target="_top" xlink:title=" ">
<polygon fill="white" stroke="black" points="640,-0.5 640,-30.5 837,-30.5 837,-0.5 640,-0.5"/>
<text text-anchor="start" x="648" y="-18.5" font-family="Helvetica,sans-Serif" font-size="10.00">src/ui/Components/ModelComponent</text>
<text text-anchor="middle" x="738.5" y="-7.5" font-family="Helvetica,sans-Serif" font-size="10.00">UI.hpp</text>
</a>
</g>
</g>
<!-- Node11&#45;&gt;Node12 -->
<g id="edge15" class="edge">
<title>Node11&#45;&gt;Node12</title>
<path fill="none" stroke="midnightblue" d="M580.74,-69.63C613.46,-58.61 662.21,-42.19 696.85,-30.53"/>
<polygon fill="midnightblue" stroke="midnightblue" points="579.49,-66.36 571.13,-72.87 581.72,-72.99 579.49,-66.36"/>
</g>
<!-- Node13 -->
<g id="node13" class="node">
<title>Node13</title>
<g id="a_node13"><a xlink:href="_properties_widget_8cpp.html" target="_top" xlink:title=" ">
<polygon fill="white" stroke="black" points="215,-0.5 215,-30.5 352,-30.5 352,-0.5 215,-0.5"/>
<text text-anchor="start" x="223" y="-18.5" font-family="Helvetica,sans-Serif" font-size="10.00">src/ui/widgets/Properties</text>
<text text-anchor="middle" x="283.5" y="-7.5" font-family="Helvetica,sans-Serif" font-size="10.00">Widget.cpp</text>
</a>
</g>
</g>
<!-- Node11&#45;&gt;Node13 -->
<g id="edge16" class="edge">
<title>Node11&#45;&gt;Node13</title>
<path fill="none" stroke="midnightblue" d="M501.07,-70.48C456.72,-59.47 388.4,-42.52 340.17,-30.56"/>
<polygon fill="midnightblue" stroke="midnightblue" points="500.43,-73.92 510.98,-72.94 502.12,-67.13 500.43,-73.92"/>
</g>
<!-- Node14&#45;&gt;Node3 -->
<g id="edge19" class="edge">
<title>Node14&#45;&gt;Node3</title>
<path fill="none" stroke="midnightblue" d="M338.84,-61.97C357.99,-49.65 381.77,-34.35 396.28,-25.01"/>
<polygon fill="midnightblue" stroke="midnightblue" points="336.93,-59.04 330.42,-67.4 340.72,-64.93 336.93,-59.04"/>
</g>
<!-- Node14&#45;&gt;Node5 -->
<g id="edge20" class="edge">
<title>Node14&#45;&gt;Node5</title>
<path fill="none" stroke="midnightblue" d="M369.44,-64.71C407.85,-54.14 456.87,-40.63 493.27,-30.61"/>
<polygon fill="midnightblue" stroke="midnightblue" points="368.13,-61.45 359.42,-67.48 369.99,-68.19 368.13,-61.45"/>
</g>
<!-- Node14&#45;&gt;Node13 -->
<g id="edge22" class="edge">
<title>Node14&#45;&gt;Node13</title>
<path fill="none" stroke="midnightblue" d="M299.46,-57.99C295.92,-48.8 291.99,-38.58 288.91,-30.58"/>
<polygon fill="midnightblue" stroke="midnightblue" points="296.22,-59.32 303.08,-67.4 302.75,-56.81 296.22,-59.32"/>
</g>
<!-- Node15 -->
<g id="node15" class="node">
<title>Node15</title>
<g id="a_node15"><a xlink:href="_model_component_u_i_8cpp.html" target="_top" xlink:title=" ">
<polygon fill="white" stroke="black" points="0,-0.5 0,-30.5 197,-30.5 197,-0.5 0,-0.5"/>
<text text-anchor="start" x="8" y="-18.5" font-family="Helvetica,sans-Serif" font-size="10.00">src/ui/Components/ModelComponent</text>
<text text-anchor="middle" x="98.5" y="-7.5" font-family="Helvetica,sans-Serif" font-size="10.00">UI.cpp</text>
</a>
</g>
</g>
<!-- Node14&#45;&gt;Node15 -->
<g id="edge21" class="edge">
<title>Node14&#45;&gt;Node15</title>
<path fill="none" stroke="midnightblue" d="M253.4,-64.44C219.36,-53.91 176.2,-40.55 144.09,-30.61"/>
<polygon fill="midnightblue" stroke="midnightblue" points="252.6,-67.86 263.19,-67.48 254.67,-61.18 252.6,-67.86"/>
</g>
</g>
</svg>
