<?xml version="1.0" encoding="UTF-8" standalone="no"?>
<!DOCTYPE svg PUBLIC "-//W3C//DTD SVG 1.1//EN"
 "http://www.w3.org/Graphics/SVG/1.1/DTD/svg11.dtd">
<!-- Generated by graphviz version 2.43.0 (0)
 -->
<!-- Title: src/Math/Ray.hpp Pages: 1 -->
<svg width="2975pt" height="390pt"
 viewBox="0.00 0.00 2975.29 390.00" xmlns="http://www.w3.org/2000/svg" xmlns:xlink="http://www.w3.org/1999/xlink">
<g id="graph0" class="graph" transform="scale(1 1) rotate(0) translate(4 386)">
<title>src/Math/Ray.hpp</title>
<!-- Node1 -->
<g id="Node000001" class="node">
<title>Node1</title>
<g id="a_Node000001"><a xlink:title=" ">
<polygon fill="#999999" stroke="#666666" points="2038,-382 1938,-382 1938,-363 2038,-363 2038,-382"/>
<text text-anchor="middle" x="1988" y="-370" font-family="Helvetica,sans-Serif" font-size="10.00">src/Math/Ray.hpp</text>
</a>
</g>
</g>
<!-- Node2 -->
<g id="Node000002" class="node">
<title>Node2</title>
<g id="a_Node000002"><a xlink:href="_camera_component_8hpp.html" target="_top" xlink:title=" ">
<polygon fill="white" stroke="#666666" points="1283,-266.5 1069,-266.5 1069,-247.5 1283,-247.5 1283,-266.5"/>
<text text-anchor="middle" x="1176" y="-254.5" font-family="Helvetica,sans-Serif" font-size="10.00">src/Components/CameraComponent.hpp</text>
</a>
</g>
</g>
<!-- Node1&#45;&gt;Node2 -->
<g id="edge1_Node000001_Node000002" class="edge">
<title>Node1&#45;&gt;Node2</title>
<g id="a_edge1_Node000001_Node000002"><a xlink:title=" ">
<path fill="none" stroke="#63b8ff" d="M1927.86,-363.09C1777.75,-342.11 1387.87,-287.62 1236.93,-266.52"/>
<polygon fill="#63b8ff" stroke="#63b8ff" points="1927.43,-366.57 1937.82,-364.49 1928.4,-359.64 1927.43,-366.57"/>
</a>
</g>
</g>
<!-- Node21 -->
<g id="Node000021" class="node">
<title>Node21</title>
<g id="a_Node000021"><a xlink:href="_a_a_b_b_8hpp.html" target="_top" xlink:title=" ">
<polygon fill="white" stroke="#666666" points="2043,-327 1933,-327 1933,-308 2043,-308 2043,-327"/>
<text text-anchor="middle" x="1988" y="-315" font-family="Helvetica,sans-Serif" font-size="10.00">src/Math/AABB.hpp</text>
</a>
</g>
</g>
<!-- Node1&#45;&gt;Node21 -->
<g id="edge25_Node000001_Node000021" class="edge">
<title>Node1&#45;&gt;Node21</title>
<g id="a_edge25_Node000001_Node000021"><a xlink:title=" ">
<path fill="none" stroke="#63b8ff" d="M1988,-352.66C1988,-343.93 1988,-333.99 1988,-327.09"/>
<polygon fill="#63b8ff" stroke="#63b8ff" points="1984.5,-352.75 1988,-362.75 1991.5,-352.75 1984.5,-352.75"/>
</a>
</g>
</g>
<!-- Node36 -->
<g id="Node000036" class="node">
<title>Node36</title>
<g id="a_Node000036"><a xlink:href="_ray_8cpp.html" target="_top" xlink:title=" ">
<polygon fill="white" stroke="#666666" points="2160.5,-327 2061.5,-327 2061.5,-308 2160.5,-308 2160.5,-327"/>
<text text-anchor="middle" x="2111" y="-315" font-family="Helvetica,sans-Serif" font-size="10.00">src/Math/Ray.cpp</text>
</a>
</g>
</g>
<!-- Node1&#45;&gt;Node36 -->
<g id="edge60_Node000001_Node000036" class="edge">
<title>Node1&#45;&gt;Node36</title>
<g id="a_edge60_Node000001_Node000036"><a xlink:title=" ">
<path fill="none" stroke="#63b8ff" d="M2017.25,-358.9C2039.97,-349.11 2070.87,-335.79 2090.88,-327.17"/>
<polygon fill="#63b8ff" stroke="#63b8ff" points="2015.56,-355.81 2007.76,-362.98 2018.33,-362.24 2015.56,-355.81"/>
</a>
</g>
</g>
<!-- Node3 -->
<g id="Node000003" class="node">
<title>Node3</title>
<g id="a_Node000003"><a xlink:href="_directional_light_component_8hpp.html" target="_top" xlink:title=" ">
<polygon fill="white" stroke="#666666" points="464,-206 312,-206 312,-176 464,-176 464,-206"/>
<text text-anchor="start" x="320" y="-194" font-family="Helvetica,sans-Serif" font-size="10.00">src/Components/Directional</text>
<text text-anchor="middle" x="388" y="-183" font-family="Helvetica,sans-Serif" font-size="10.00">LightComponent.hpp</text>
</a>
</g>
</g>
<!-- Node2&#45;&gt;Node3 -->
<g id="edge2_Node000002_Node000003" class="edge">
<title>Node2&#45;&gt;Node3</title>
<g id="a_edge2_Node000002_Node000003"><a xlink:title=" ">
<path fill="none" stroke="#63b8ff" d="M1058.48,-250.56C919.54,-243.43 681.45,-229.07 478,-206 473.44,-205.48 468.76,-204.9 464.05,-204.28"/>
<polygon fill="#63b8ff" stroke="#63b8ff" points="1058.56,-254.07 1068.72,-251.08 1058.91,-247.07 1058.56,-254.07"/>
</a>
</g>
</g>
<!-- Node4 -->
<g id="Node000004" class="node">
<title>Node4</title>
<g id="a_Node000004"><a xlink:href="_rendering_system_8cpp.html" target="_top" xlink:title=" ">
<polygon fill="white" stroke="#666666" points="628.5,-74 443.5,-74 443.5,-55 628.5,-55 628.5,-74"/>
<text text-anchor="middle" x="536" y="-62" font-family="Helvetica,sans-Serif" font-size="10.00">src/Systems/RenderingSystem.cpp</text>
</a>
</g>
</g>
<!-- Node2&#45;&gt;Node4 -->
<g id="edge21_Node000002_Node000004" class="edge">
<title>Node2&#45;&gt;Node4</title>
<g id="a_edge21_Node000002_Node000004"><a xlink:title=" ">
<path fill="none" stroke="#63b8ff" d="M1058.79,-255.66C877.61,-253.91 546.45,-245.29 510,-206 474.74,-167.99 514.38,-98.4 530.13,-74.13"/>
<polygon fill="#63b8ff" stroke="#63b8ff" points="1058.87,-259.16 1068.91,-255.76 1058.94,-252.17 1058.87,-259.16"/>
</a>
</g>
</g>
<!-- Node9 -->
<g id="Node000009" class="node">
<title>Node9</title>
<g id="a_Node000009"><a xlink:href="main_8cpp.html" target="_top" xlink:title=" ">
<polygon fill="white" stroke="#666666" points="1224.5,-134.5 1145.5,-134.5 1145.5,-115.5 1224.5,-115.5 1224.5,-134.5"/>
<text text-anchor="middle" x="1185" y="-122.5" font-family="Helvetica,sans-Serif" font-size="10.00">src/main.cpp</text>
</a>
</g>
</g>
<!-- Node2&#45;&gt;Node9 -->
<g id="edge22_Node000002_Node000009" class="edge">
<title>Node2&#45;&gt;Node9</title>
<g id="a_edge22_Node000002_Node000009"><a xlink:title=" ">
<path fill="none" stroke="#63b8ff" d="M1177.11,-236.81C1178.06,-220.6 1179.52,-196.78 1181,-176 1182.03,-161.58 1183.4,-144.84 1184.25,-134.85"/>
<polygon fill="#63b8ff" stroke="#63b8ff" points="1173.59,-236.93 1176.5,-247.12 1180.58,-237.34 1173.59,-236.93"/>
</a>
</g>
</g>
<!-- Node12 -->
<g id="Node000012" class="node">
<title>Node12</title>
<g id="a_Node000012"><a xlink:href="_input_manager_8hpp.html" target="_top" xlink:title=" ">
<polygon fill="white" stroke="#666666" points="2501,-200.5 2309,-200.5 2309,-181.5 2501,-181.5 2501,-200.5"/>
<text text-anchor="middle" x="2405" y="-188.5" font-family="Helvetica,sans-Serif" font-size="10.00">src/InputManager/InputManager.hpp</text>
</a>
</g>
</g>
<!-- Node2&#45;&gt;Node12 -->
<g id="edge12_Node000002_Node000012" class="edge">
<title>Node2&#45;&gt;Node12</title>
<g id="a_edge12_Node000002_Node000012"><a xlink:title=" ">
<path fill="none" stroke="#63b8ff" d="M1293.49,-251.55C1487.53,-243.94 1887.13,-227.19 2225,-206 2252.22,-204.29 2281.72,-202.13 2308.82,-200.02"/>
<polygon fill="#63b8ff" stroke="#63b8ff" points="1293.13,-248.06 1283.28,-251.95 1293.41,-255.06 1293.13,-248.06"/>
</a>
</g>
</g>
<!-- Node16 -->
<g id="Node000016" class="node">
<title>Node16</title>
<g id="a_Node000016"><a xlink:href="_object_selection_system_8cpp.html" target="_top" xlink:title=" ">
<polygon fill="white" stroke="#666666" points="1629.5,-140 1474.5,-140 1474.5,-110 1629.5,-110 1629.5,-140"/>
<text text-anchor="start" x="1482.5" y="-128" font-family="Helvetica,sans-Serif" font-size="10.00">src/Systems/ObjectSelection</text>
<text text-anchor="middle" x="1552" y="-117" font-family="Helvetica,sans-Serif" font-size="10.00">System.cpp</text>
</a>
</g>
</g>
<!-- Node2&#45;&gt;Node16 -->
<g id="edge20_Node000002_Node000016" class="edge">
<title>Node2&#45;&gt;Node16</title>
<g id="a_edge20_Node000002_Node000016"><a xlink:title=" ">
<path fill="none" stroke="#63b8ff" d="M1180.67,-237.57C1186.42,-218.89 1198.09,-190.72 1219,-176 1259.04,-147.82 1389.24,-135.11 1474.48,-129.69"/>
<polygon fill="#63b8ff" stroke="#63b8ff" points="1177.27,-236.72 1177.94,-247.29 1184.01,-238.61 1177.27,-236.72"/>
</a>
</g>
</g>
<!-- Node19 -->
<g id="Node000019" class="node">
<title>Node19</title>
<g id="a_Node000019"><a xlink:href="_scene_widget_8cpp.html" target="_top" xlink:title=" ">
<polygon fill="white" stroke="#666666" points="1895.5,-134.5 1724.5,-134.5 1724.5,-115.5 1895.5,-115.5 1895.5,-134.5"/>
<text text-anchor="middle" x="1810" y="-122.5" font-family="Helvetica,sans-Serif" font-size="10.00">src/ui/widgets/SceneWidget.cpp</text>
</a>
</g>
</g>
<!-- Node2&#45;&gt;Node19 -->
<g id="edge24_Node000002_Node000019" class="edge">
<title>Node2&#45;&gt;Node19</title>
<g id="a_edge24_Node000002_Node000019"><a xlink:title=" ">
<path fill="none" stroke="#63b8ff" d="M1192.28,-240.52C1213.25,-221.63 1251.7,-190.43 1291,-176 1311,-168.66 1582.23,-145.08 1724.39,-133.11"/>
<polygon fill="#63b8ff" stroke="#63b8ff" points="1189.88,-237.97 1184.89,-247.32 1194.62,-243.12 1189.88,-237.97"/>
</a>
</g>
</g>
<!-- Node20 -->
<g id="Node000020" class="node">
<title>Node20</title>
<g id="a_Node000020"><a xlink:href="_camera_component_u_i_8hpp.html" target="_top" xlink:title=" ">
<polygon fill="white" stroke="#666666" points="668.5,-206 519.5,-206 519.5,-176 668.5,-176 668.5,-206"/>
<text text-anchor="start" x="527.5" y="-194" font-family="Helvetica,sans-Serif" font-size="10.00">src/ui/Components/Camera</text>
<text text-anchor="middle" x="594" y="-183" font-family="Helvetica,sans-Serif" font-size="10.00">ComponentUI.hpp</text>
</a>
</g>
</g>
<!-- Node2&#45;&gt;Node20 -->
<g id="edge23_Node000002_Node000020" class="edge">
<title>Node2&#45;&gt;Node20</title>
<g id="a_edge23_Node000002_Node000020"><a xlink:title=" ">
<path fill="none" stroke="#63b8ff" d="M1061.09,-246.6C959.99,-237.82 808.94,-223.47 678,-206 674.92,-205.59 671.78,-205.15 668.62,-204.7"/>
<polygon fill="#63b8ff" stroke="#63b8ff" points="1061.06,-250.11 1071.32,-247.48 1061.66,-243.14 1061.06,-250.11"/>
</a>
</g>
</g>
<!-- Node3&#45;&gt;Node4 -->
<g id="edge3_Node000003_Node000004" class="edge">
<title>Node3&#45;&gt;Node4</title>
<g id="a_edge3_Node000003_Node000004"><a xlink:title=" ">
<path fill="none" stroke="#63b8ff" d="M341.51,-171.63C309.97,-156.49 277.3,-133.71 297,-110 315.71,-87.48 384.35,-76.3 443.3,-70.78"/>
<polygon fill="#63b8ff" stroke="#63b8ff" points="340.22,-174.89 350.76,-175.89 343.14,-168.53 340.22,-174.89"/>
</a>
</g>
</g>
<!-- Node5 -->
<g id="Node000005" class="node">
<title>Node5</title>
<g id="a_Node000005"><a xlink:href="_rendering_system_8hpp.html" target="_top" xlink:title=" ">
<polygon fill="white" stroke="#666666" points="250,-134.5 64,-134.5 64,-115.5 250,-115.5 250,-134.5"/>
<text text-anchor="middle" x="157" y="-122.5" font-family="Helvetica,sans-Serif" font-size="10.00">src/Systems/RenderingSystem.hpp</text>
</a>
</g>
</g>
<!-- Node3&#45;&gt;Node5 -->
<g id="edge4_Node000003_Node000005" class="edge">
<title>Node3&#45;&gt;Node5</title>
<g id="a_edge4_Node000003_Node000005"><a xlink:title=" ">
<path fill="none" stroke="#63b8ff" d="M327.39,-173.21C282.52,-160.78 223.25,-144.35 187.74,-134.52"/>
<polygon fill="#63b8ff" stroke="#63b8ff" points="326.73,-176.66 337.31,-175.95 328.6,-169.91 326.73,-176.66"/>
</a>
</g>
</g>
<!-- Node3&#45;&gt;Node9 -->
<g id="edge9_Node000003_Node000009" class="edge">
<title>Node3&#45;&gt;Node9</title>
<g id="a_edge9_Node000003_Node000009"><a xlink:title=" ">
<path fill="none" stroke="#63b8ff" d="M474.13,-179.54C486.17,-178.25 498.39,-177.02 510,-176 770.37,-153.09 837.19,-168.57 1097,-140 1112.84,-138.26 1130.18,-135.65 1145.25,-133.16"/>
<polygon fill="#63b8ff" stroke="#63b8ff" points="473.64,-176.07 464.08,-180.64 474.4,-183.03 473.64,-176.07"/>
</a>
</g>
</g>
<!-- Node10 -->
<g id="Node000010" class="node">
<title>Node10</title>
<g id="a_Node000010"><a xlink:href="_directional_light_component_u_i_8hpp.html" target="_top" xlink:title=" ">
<polygon fill="white" stroke="#666666" points="470,-140 306,-140 306,-110 470,-110 470,-140"/>
<text text-anchor="start" x="314" y="-128" font-family="Helvetica,sans-Serif" font-size="10.00">src/ui/Components/Directional</text>
<text text-anchor="middle" x="388" y="-117" font-family="Helvetica,sans-Serif" font-size="10.00">LightComponentUI.hpp</text>
</a>
</g>
</g>
<!-- Node3&#45;&gt;Node10 -->
<g id="edge10_Node000003_Node000010" class="edge">
<title>Node3&#45;&gt;Node10</title>
<g id="a_edge10_Node000003_Node000010"><a xlink:title=" ">
<path fill="none" stroke="#63b8ff" d="M388,-165.54C388,-156.96 388,-147.61 388,-140.16"/>
<polygon fill="#63b8ff" stroke="#63b8ff" points="384.5,-165.8 388,-175.8 391.5,-165.8 384.5,-165.8"/>
</a>
</g>
</g>
<!-- Node11 -->
<g id="Node000011" class="node">
<title>Node11</title>
<g id="a_Node000011"><a xlink:href="_properties_widget_8cpp.html" target="_top" xlink:title=" ">
<polygon fill="white" stroke="#666666" points="873.5,-140 736.5,-140 736.5,-110 873.5,-110 873.5,-140"/>
<text text-anchor="start" x="744.5" y="-128" font-family="Helvetica,sans-Serif" font-size="10.00">src/ui/widgets/Properties</text>
<text text-anchor="middle" x="805" y="-117" font-family="Helvetica,sans-Serif" font-size="10.00">Widget.cpp</text>
</a>
</g>
</g>
<!-- Node3&#45;&gt;Node11 -->
<g id="edge11_Node000003_Node000011" class="edge">
<title>Node3&#45;&gt;Node11</title>
<g id="a_edge11_Node000003_Node000011"><a xlink:title=" ">
<path fill="none" stroke="#63b8ff" d="M474.5,-178C543.07,-168.3 641.28,-154.01 727,-140 729.99,-139.51 733.04,-139 736.12,-138.48"/>
<polygon fill="#63b8ff" stroke="#63b8ff" points="473.59,-174.59 464.18,-179.46 474.57,-181.52 473.59,-174.59"/>
</a>
</g>
</g>
<!-- Node5&#45;&gt;Node4 -->
<g id="edge8_Node000005_Node000004" class="edge">
<title>Node5&#45;&gt;Node4</title>
<g id="a_edge8_Node000005_Node000004"><a xlink:title=" ">
<path fill="none" stroke="#63b8ff" d="M222.11,-113.95C295.09,-102.69 412.16,-84.61 480.82,-74.02"/>
<polygon fill="#63b8ff" stroke="#63b8ff" points="221.46,-110.51 212.11,-115.49 222.53,-117.43 221.46,-110.51"/>
</a>
</g>
</g>
<!-- Node6 -->
<g id="Node000006" class="node">
<title>Node6</title>
<g id="a_Node000006"><a xlink:href="_runtime_8hpp.html" target="_top" xlink:title=" ">
<polygon fill="white" stroke="#666666" points="227,-74 87,-74 87,-55 227,-55 227,-74"/>
<text text-anchor="middle" x="157" y="-62" font-family="Helvetica,sans-Serif" font-size="10.00">src/Runtime/Runtime.hpp</text>
</a>
</g>
</g>
<!-- Node5&#45;&gt;Node6 -->
<g id="edge5_Node000005_Node000006" class="edge">
<title>Node5&#45;&gt;Node6</title>
<g id="a_edge5_Node000005_Node000006"><a xlink:title=" ">
<path fill="none" stroke="#63b8ff" d="M157,-105.16C157,-94.74 157,-82.3 157,-74.17"/>
<polygon fill="#63b8ff" stroke="#63b8ff" points="153.5,-105.37 157,-115.37 160.5,-105.37 153.5,-105.37"/>
</a>
</g>
</g>
<!-- Node7 -->
<g id="Node000007" class="node">
<title>Node7</title>
<g id="a_Node000007"><a xlink:href="_runtime_8cpp.html" target="_top" xlink:title=" ">
<polygon fill="white" stroke="#666666" points="140,-19 0,-19 0,0 140,0 140,-19"/>
<text text-anchor="middle" x="70" y="-7" font-family="Helvetica,sans-Serif" font-size="10.00">src/Runtime/Runtime.cpp</text>
</a>
</g>
</g>
<!-- Node6&#45;&gt;Node7 -->
<g id="edge6_Node000006_Node000007" class="edge">
<title>Node6&#45;&gt;Node7</title>
<g id="a_edge6_Node000006_Node000007"><a xlink:title=" ">
<path fill="none" stroke="#63b8ff" d="M134.34,-49.7C118.49,-40.04 97.81,-27.44 84.23,-19.17"/>
<polygon fill="#63b8ff" stroke="#63b8ff" points="132.66,-52.77 143.02,-54.98 136.3,-46.79 132.66,-52.77"/>
</a>
</g>
</g>
<!-- Node8 -->
<g id="Node000008" class="node">
<title>Node8</title>
<g id="a_Node000008"><a xlink:href="_scene_widget_8hpp.html" target="_top" xlink:title="Contains the declaration of the SceneWidget class, a user interface widget for rendering scenes.">
<polygon fill="white" stroke="#666666" points="330,-19 158,-19 158,0 330,0 330,-19"/>
<text text-anchor="middle" x="244" y="-7" font-family="Helvetica,sans-Serif" font-size="10.00">src/ui/widgets/SceneWidget.hpp</text>
</a>
</g>
</g>
<!-- Node6&#45;&gt;Node8 -->
<g id="edge7_Node000006_Node000008" class="edge">
<title>Node6&#45;&gt;Node8</title>
<g id="a_edge7_Node000006_Node000008"><a xlink:title=" ">
<path fill="none" stroke="#63b8ff" d="M179.66,-49.7C195.51,-40.04 216.19,-27.44 229.77,-19.17"/>
<polygon fill="#63b8ff" stroke="#63b8ff" points="177.7,-46.79 170.98,-54.98 181.34,-52.77 177.7,-46.79"/>
</a>
</g>
</g>
<!-- Node13 -->
<g id="Node000013" class="node">
<title>Node13</title>
<g id="a_Node000013"><a xlink:href="_input_manager_8cpp.html" target="_top" xlink:title=" ">
<polygon fill="white" stroke="#666666" points="2301.5,-134.5 2110.5,-134.5 2110.5,-115.5 2301.5,-115.5 2301.5,-134.5"/>
<text text-anchor="middle" x="2206" y="-122.5" font-family="Helvetica,sans-Serif" font-size="10.00">src/InputManager/InputManager.cpp</text>
</a>
</g>
</g>
<!-- Node12&#45;&gt;Node13 -->
<g id="edge13_Node000012_Node000013" class="edge">
<title>Node12&#45;&gt;Node13</title>
<g id="a_edge13_Node000012_Node000013"><a xlink:title=" ">
<path fill="none" stroke="#63b8ff" d="M2368.44,-178.24C2329.17,-165.61 2267.71,-145.85 2232.73,-134.6"/>
<polygon fill="#63b8ff" stroke="#63b8ff" points="2367.57,-181.64 2378.16,-181.37 2369.71,-174.98 2367.57,-181.64"/>
</a>
</g>
</g>
<!-- Node14 -->
<g id="Node000014" class="node">
<title>Node14</title>
<g id="a_Node000014"><a xlink:href="_camera_movement_system_8cpp.html" target="_top" xlink:title=" ">
<polygon fill="white" stroke="#666666" points="2490,-140 2320,-140 2320,-110 2490,-110 2490,-140"/>
<text text-anchor="start" x="2328" y="-128" font-family="Helvetica,sans-Serif" font-size="10.00">src/Systems/CameraMovement</text>
<text text-anchor="middle" x="2405" y="-117" font-family="Helvetica,sans-Serif" font-size="10.00">System.cpp</text>
</a>
</g>
</g>
<!-- Node12&#45;&gt;Node14 -->
<g id="edge14_Node000012_Node000014" class="edge">
<title>Node12&#45;&gt;Node14</title>
<g id="a_edge14_Node000012_Node000014"><a xlink:title=" ">
<path fill="none" stroke="#63b8ff" d="M2405,-171.35C2405,-161.47 2405,-149.51 2405,-140.36"/>
<polygon fill="#63b8ff" stroke="#63b8ff" points="2401.5,-171.37 2405,-181.37 2408.5,-171.37 2401.5,-171.37"/>
</a>
</g>
</g>
<!-- Node15 -->
<g id="Node000015" class="node">
<title>Node15</title>
<g id="a_Node000015"><a xlink:href="_gizmo_system_8cpp.html" target="_top" xlink:title=" ">
<polygon fill="white" stroke="#666666" points="2770.5,-134.5 2603.5,-134.5 2603.5,-115.5 2770.5,-115.5 2770.5,-134.5"/>
<text text-anchor="middle" x="2687" y="-122.5" font-family="Helvetica,sans-Serif" font-size="10.00">src/Systems/GizmoSystem.cpp</text>
</a>
</g>
</g>
<!-- Node12&#45;&gt;Node15 -->
<g id="edge15_Node000012_Node000015" class="edge">
<title>Node12&#45;&gt;Node15</title>
<g id="a_edge15_Node000012_Node000015"><a xlink:title=" ">
<path fill="none" stroke="#63b8ff" d="M2452.68,-179.18C2508.19,-166.58 2598.74,-146.03 2649.48,-134.51"/>
<polygon fill="#63b8ff" stroke="#63b8ff" points="2451.72,-175.81 2442.74,-181.44 2453.27,-182.63 2451.72,-175.81"/>
</a>
</g>
</g>
<!-- Node12&#45;&gt;Node16 -->
<g id="edge16_Node000012_Node000016" class="edge">
<title>Node12&#45;&gt;Node16</title>
<g id="a_edge16_Node000012_Node000016"><a xlink:title=" ">
<path fill="none" stroke="#63b8ff" d="M2309.2,-180.54C2291.83,-178.94 2273.88,-177.36 2257,-176 2016.8,-156.65 1956.28,-158.25 1716,-140 1687.79,-137.86 1656.87,-135.28 1629.56,-132.92"/>
<polygon fill="#63b8ff" stroke="#63b8ff" points="2309.06,-184.05 2319.34,-181.49 2309.71,-177.08 2309.06,-184.05"/>
</a>
</g>
</g>
<!-- Node17 -->
<g id="Node000017" class="node">
<title>Node17</title>
<g id="a_Node000017"><a xlink:href="_u_i_8cpp.html" target="_top" xlink:title=" ">
<polygon fill="white" stroke="#666666" points="2585.5,-134.5 2508.5,-134.5 2508.5,-115.5 2585.5,-115.5 2585.5,-134.5"/>
<text text-anchor="middle" x="2547" y="-122.5" font-family="Helvetica,sans-Serif" font-size="10.00">src/ui/UI.cpp</text>
</a>
</g>
</g>
<!-- Node12&#45;&gt;Node17 -->
<g id="edge17_Node000012_Node000017" class="edge">
<title>Node12&#45;&gt;Node17</title>
<g id="a_edge17_Node000012_Node000017"><a xlink:title=" ">
<path fill="none" stroke="#63b8ff" d="M2433.41,-177.19C2461.4,-164.58 2503.38,-145.66 2527.7,-134.7"/>
<polygon fill="#63b8ff" stroke="#63b8ff" points="2431.83,-174.07 2424.15,-181.37 2434.71,-180.45 2431.83,-174.07"/>
</a>
</g>
</g>
<!-- Node18 -->
<g id="Node000018" class="node">
<title>Node18</title>
<g id="a_Node000018"><a xlink:href="_filesystem_widget_8cpp.html" target="_top" xlink:title=" ">
<polygon fill="white" stroke="#666666" points="2092,-140 1952,-140 1952,-110 2092,-110 2092,-140"/>
<text text-anchor="start" x="1960" y="-128" font-family="Helvetica,sans-Serif" font-size="10.00">src/ui/widgets/Filesystem</text>
<text text-anchor="middle" x="2022" y="-117" font-family="Helvetica,sans-Serif" font-size="10.00">Widget.cpp</text>
</a>
</g>
</g>
<!-- Node12&#45;&gt;Node18 -->
<g id="edge18_Node000012_Node000018" class="edge">
<title>Node12&#45;&gt;Node18</title>
<g id="a_edge18_Node000012_Node000018"><a xlink:title=" ">
<path fill="none" stroke="#63b8ff" d="M2342.52,-179.87C2281.24,-169.89 2185.15,-154.14 2102,-140 2098.8,-139.46 2095.53,-138.9 2092.23,-138.33"/>
<polygon fill="#63b8ff" stroke="#63b8ff" points="2341.99,-183.33 2352.43,-181.48 2343.12,-176.42 2341.99,-183.33"/>
</a>
</g>
</g>
<!-- Node12&#45;&gt;Node19 -->
<g id="edge19_Node000012_Node000019" class="edge">
<title>Node12&#45;&gt;Node19</title>
<g id="a_edge19_Node000012_Node000019"><a xlink:title=" ">
<path fill="none" stroke="#63b8ff" d="M2315.43,-180.37C2199.63,-167.91 1999.77,-146.41 1889.25,-134.52"/>
<polygon fill="#63b8ff" stroke="#63b8ff" points="2315.36,-183.88 2325.68,-181.47 2316.11,-176.92 2315.36,-183.88"/>
</a>
</g>
</g>
<!-- Node21&#45;&gt;Node4 -->
<g id="edge59_Node000021_Node000004" class="edge">
<title>Node21&#45;&gt;Node4</title>
<g id="a_edge59_Node000021_Node000004"><a xlink:title=" ">
<path fill="none" stroke="#63b8ff" d="M2053.3,-308.1C2278.98,-286.41 3069.76,-340.16 2956,-176 2908.42,-107.34 2862.05,-125.72 2780,-110 2566.82,-69.16 1024.83,-65.7 628.61,-65.49"/>
<polygon fill="#63b8ff" stroke="#63b8ff" points="2052.88,-304.62 2043.3,-309.15 2053.62,-311.59 2052.88,-304.62"/>
</a>
</g>
</g>
<!-- Node22 -->
<g id="Node000022" class="node">
<title>Node22</title>
<g id="a_Node000022"><a xlink:href="_mesh_8hpp.html" target="_top" xlink:title=" ">
<polygon fill="white" stroke="#666666" points="1712,-266.5 1558,-266.5 1558,-247.5 1712,-247.5 1712,-266.5"/>
<text text-anchor="middle" x="1635" y="-254.5" font-family="Helvetica,sans-Serif" font-size="10.00">src/AssetManager/Mesh.hpp</text>
</a>
</g>
</g>
<!-- Node21&#45;&gt;Node22 -->
<g id="edge26_Node000021_Node000022" class="edge">
<title>Node21&#45;&gt;Node22</title>
<g id="a_edge26_Node000021_Node000022"><a xlink:title=" ">
<path fill="none" stroke="#63b8ff" d="M1926.52,-306.31C1858.5,-295.04 1750.08,-277.07 1686.39,-266.52"/>
<polygon fill="#63b8ff" stroke="#63b8ff" points="1926.23,-309.81 1936.67,-307.99 1927.38,-302.91 1926.23,-309.81"/>
</a>
</g>
</g>
<!-- Node32 -->
<g id="Node000032" class="node">
<title>Node32</title>
<g id="a_Node000032"><a xlink:href="_box_collider_component_8hpp.html" target="_top" xlink:title=" ">
<polygon fill="white" stroke="#666666" points="2401.5,-272 2246.5,-272 2246.5,-242 2401.5,-242 2401.5,-272"/>
<text text-anchor="start" x="2254.5" y="-260" font-family="Helvetica,sans-Serif" font-size="10.00">src/Components/BoxCollider</text>
<text text-anchor="middle" x="2324" y="-249" font-family="Helvetica,sans-Serif" font-size="10.00">Component.hpp</text>
</a>
</g>
</g>
<!-- Node21&#45;&gt;Node32 -->
<g id="edge50_Node000021_Node000032" class="edge">
<title>Node21&#45;&gt;Node32</title>
<g id="a_edge50_Node000021_Node000032"><a xlink:title=" ">
<path fill="none" stroke="#63b8ff" d="M2046.87,-306.25C2102.29,-296.6 2185.63,-282.09 2246.45,-271.5"/>
<polygon fill="#63b8ff" stroke="#63b8ff" points="2046.11,-302.83 2036.86,-307.99 2047.31,-309.73 2046.11,-302.83"/>
</a>
</g>
</g>
<!-- Node35 -->
<g id="Node000035" class="node">
<title>Node35</title>
<g id="a_Node000035"><a xlink:href="_a_a_b_b_8cpp.html" target="_top" xlink:title=" ">
<polygon fill="white" stroke="#666666" points="2042.5,-266.5 1933.5,-266.5 1933.5,-247.5 2042.5,-247.5 2042.5,-266.5"/>
<text text-anchor="middle" x="1988" y="-254.5" font-family="Helvetica,sans-Serif" font-size="10.00">src/Math/AABB.cpp</text>
</a>
</g>
</g>
<!-- Node21&#45;&gt;Node35 -->
<g id="edge58_Node000021_Node000035" class="edge">
<title>Node21&#45;&gt;Node35</title>
<g id="a_edge58_Node000021_Node000035"><a xlink:title=" ">
<path fill="none" stroke="#63b8ff" d="M1988,-297.66C1988,-287.24 1988,-274.8 1988,-266.67"/>
<polygon fill="#63b8ff" stroke="#63b8ff" points="1984.5,-297.87 1988,-307.87 1991.5,-297.87 1984.5,-297.87"/>
</a>
</g>
</g>
<!-- Node22&#45;&gt;Node9 -->
<g id="edge45_Node000022_Node000009" class="edge">
<title>Node22&#45;&gt;Node9</title>
<g id="a_edge45_Node000022_Node000009"><a xlink:title=" ">
<path fill="none" stroke="#63b8ff" d="M1547.64,-255.21C1476.14,-251.81 1373.68,-240.51 1291,-206 1249.51,-188.68 1209.72,-151.33 1193.12,-134.51"/>
<polygon fill="#63b8ff" stroke="#63b8ff" points="1547.82,-258.72 1557.96,-255.66 1548.12,-251.73 1547.82,-258.72"/>
</a>
</g>
</g>
<!-- Node22&#45;&gt;Node15 -->
<g id="edge43_Node000022_Node000015" class="edge">
<title>Node22&#45;&gt;Node15</title>
<g id="a_edge43_Node000022_Node000015"><a xlink:title=" ">
<path fill="none" stroke="#63b8ff" d="M1722.4,-251.7C1940.34,-240.88 2491.75,-212.92 2510,-206 2530.12,-198.37 2529.19,-186.44 2548,-176 2582.31,-156.95 2625.26,-142.81 2654.26,-134.52"/>
<polygon fill="#63b8ff" stroke="#63b8ff" points="1722.09,-248.21 1712.28,-252.2 1722.44,-255.2 1722.09,-248.21"/>
</a>
</g>
</g>
<!-- Node22&#45;&gt;Node18 -->
<g id="edge48_Node000022_Node000018" class="edge">
<title>Node22&#45;&gt;Node18</title>
<g id="a_edge48_Node000022_Node000018"><a xlink:title=" ">
<path fill="none" stroke="#63b8ff" d="M1722.44,-251.68C1882.6,-243.34 2208.25,-224.23 2225,-206 2234.02,-196.18 2233.22,-186.5 2225,-176 2216.55,-165.21 2147.44,-149.76 2092.17,-138.89"/>
<polygon fill="#63b8ff" stroke="#63b8ff" points="1721.94,-248.2 1712.14,-252.21 1722.31,-255.19 1721.94,-248.2"/>
</a>
</g>
</g>
<!-- Node23 -->
<g id="Node000023" class="node">
<title>Node23</title>
<g id="a_Node000023"><a xlink:href="_mesh_8cpp.html" target="_top" xlink:title=" ">
<polygon fill="white" stroke="#666666" points="1992.5,-200.5 1839.5,-200.5 1839.5,-181.5 1992.5,-181.5 1992.5,-200.5"/>
<text text-anchor="middle" x="1916" y="-188.5" font-family="Helvetica,sans-Serif" font-size="10.00">src/AssetManager/Mesh.cpp</text>
</a>
</g>
</g>
<!-- Node22&#45;&gt;Node23 -->
<g id="edge27_Node000022_Node000023" class="edge">
<title>Node22&#45;&gt;Node23</title>
<g id="a_edge27_Node000022_Node000023"><a xlink:title=" ">
<path fill="none" stroke="#63b8ff" d="M1682.51,-245.18C1737.83,-232.58 1828.05,-212.03 1878.62,-200.51"/>
<polygon fill="#63b8ff" stroke="#63b8ff" points="1681.58,-241.8 1672.61,-247.44 1683.13,-248.63 1681.58,-241.8"/>
</a>
</g>
</g>
<!-- Node24 -->
<g id="Node000024" class="node">
<title>Node24</title>
<g id="a_Node000024"><a xlink:href="_billboard_component_8hpp.html" target="_top" xlink:title=" ">
<polygon fill="white" stroke="#666666" points="829,-206 687,-206 687,-176 829,-176 829,-206"/>
<text text-anchor="start" x="695" y="-194" font-family="Helvetica,sans-Serif" font-size="10.00">src/Components/Billboard</text>
<text text-anchor="middle" x="758" y="-183" font-family="Helvetica,sans-Serif" font-size="10.00">Component.hpp</text>
</a>
</g>
</g>
<!-- Node22&#45;&gt;Node24 -->
<g id="edge28_Node000022_Node000024" class="edge">
<title>Node22&#45;&gt;Node24</title>
<g id="a_edge28_Node000022_Node000024"><a xlink:title=" ">
<path fill="none" stroke="#63b8ff" d="M1547.51,-253.34C1401.25,-248.26 1098,-234.98 843,-206 838.54,-205.49 833.96,-204.91 829.35,-204.28"/>
<polygon fill="#63b8ff" stroke="#63b8ff" points="1547.65,-256.85 1557.76,-253.69 1547.89,-249.85 1547.65,-256.85"/>
</a>
</g>
</g>
<!-- Node26 -->
<g id="Node000026" class="node">
<title>Node26</title>
<g id="a_Node000026"><a xlink:href="_model_component_8hpp.html" target="_top" xlink:title=" ">
<polygon fill="white" stroke="#666666" points="1129,-200.5 923,-200.5 923,-181.5 1129,-181.5 1129,-200.5"/>
<text text-anchor="middle" x="1026" y="-188.5" font-family="Helvetica,sans-Serif" font-size="10.00">src/Components/ModelComponent.hpp</text>
</a>
</g>
</g>
<!-- Node22&#45;&gt;Node26 -->
<g id="edge33_Node000022_Node000026" class="edge">
<title>Node22&#45;&gt;Node26</title>
<g id="a_edge33_Node000022_Node000026"><a xlink:title=" ">
<path fill="none" stroke="#63b8ff" d="M1547.81,-246.84C1430.11,-234.47 1221.97,-212.59 1107.35,-200.55"/>
<polygon fill="#63b8ff" stroke="#63b8ff" points="1547.56,-250.33 1557.87,-247.89 1548.29,-243.37 1547.56,-250.33"/>
</a>
</g>
</g>
<!-- Node27 -->
<g id="Node000027" class="node">
<title>Node27</title>
<g id="a_Node000027"><a xlink:href="_model_component_u_i_8hpp.html" target="_top" xlink:title=" ">
<polygon fill="white" stroke="#666666" points="1088.5,-140 891.5,-140 891.5,-110 1088.5,-110 1088.5,-140"/>
<text text-anchor="start" x="899.5" y="-128" font-family="Helvetica,sans-Serif" font-size="10.00">src/ui/Components/ModelComponent</text>
<text text-anchor="middle" x="990" y="-117" font-family="Helvetica,sans-Serif" font-size="10.00">UI.hpp</text>
</a>
</g>
</g>
<!-- Node22&#45;&gt;Node27 -->
<g id="edge47_Node000022_Node000027" class="edge">
<title>Node22&#45;&gt;Node27</title>
<g id="a_edge47_Node000022_Node000027"><a xlink:title=" ">
<path fill="none" stroke="#63b8ff" d="M1547.63,-251.49C1357.98,-241.49 924.69,-217.46 914,-206 892.31,-182.75 930.7,-156.01 960.38,-140.09"/>
<polygon fill="#63b8ff" stroke="#63b8ff" points="1547.67,-255 1557.84,-252.03 1548.04,-248.01 1547.67,-255"/>
</a>
</g>
</g>
<!-- Node28 -->
<g id="Node000028" class="node">
<title>Node28</title>
<g id="a_Node000028"><a xlink:href="_overlay_model_component_8hpp.html" target="_top" xlink:title=" ">
<polygon fill="white" stroke="#666666" points="2215.5,-206 2048.5,-206 2048.5,-176 2215.5,-176 2215.5,-206"/>
<text text-anchor="start" x="2056.5" y="-194" font-family="Helvetica,sans-Serif" font-size="10.00">src/Components/OverlayModel</text>
<text text-anchor="middle" x="2132" y="-183" font-family="Helvetica,sans-Serif" font-size="10.00">Component.hpp</text>
</a>
</g>
</g>
<!-- Node22&#45;&gt;Node28 -->
<g id="edge39_Node000022_Node000028" class="edge">
<title>Node22&#45;&gt;Node28</title>
<g id="a_edge39_Node000022_Node000028"><a xlink:title=" ">
<path fill="none" stroke="#63b8ff" d="M1711.23,-246.18C1802.31,-234.45 1954.16,-214.9 2048.38,-202.77"/>
<polygon fill="#63b8ff" stroke="#63b8ff" points="1710.73,-242.72 1701.25,-247.47 1711.62,-249.66 1710.73,-242.72"/>
</a>
</g>
</g>
<!-- Node29 -->
<g id="Node000029" class="node">
<title>Node29</title>
<g id="a_Node000029"><a xlink:href="_asset_utils_8cpp.html" target="_top" xlink:title=" ">
<polygon fill="white" stroke="#666666" points="1428.5,-200.5 1299.5,-200.5 1299.5,-181.5 1428.5,-181.5 1428.5,-200.5"/>
<text text-anchor="middle" x="1364" y="-188.5" font-family="Helvetica,sans-Serif" font-size="10.00">src/Utils/AssetUtils.cpp</text>
</a>
</g>
</g>
<!-- Node22&#45;&gt;Node29 -->
<g id="edge44_Node000022_Node000029" class="edge">
<title>Node22&#45;&gt;Node29</title>
<g id="a_edge44_Node000022_Node000029"><a xlink:title=" ">
<path fill="none" stroke="#63b8ff" d="M1588.85,-245.1C1535.47,-232.49 1448.72,-212.01 1400.05,-200.51"/>
<polygon fill="#63b8ff" stroke="#63b8ff" points="1588.2,-248.54 1598.73,-247.44 1589.81,-241.73 1588.2,-248.54"/>
</a>
</g>
</g>
<!-- Node30 -->
<g id="Node000030" class="node">
<title>Node30</title>
<g id="a_Node000030"><a xlink:href="_asset_selector_8hpp.html" target="_top" xlink:title=" ">
<polygon fill="white" stroke="#666666" points="1627,-200.5 1447,-200.5 1447,-181.5 1627,-181.5 1627,-200.5"/>
<text text-anchor="middle" x="1537" y="-188.5" font-family="Helvetica,sans-Serif" font-size="10.00">src/ui/Common/AssetSelector.hpp</text>
</a>
</g>
</g>
<!-- Node22&#45;&gt;Node30 -->
<g id="edge46_Node000022_Node000030" class="edge">
<title>Node22&#45;&gt;Node30</title>
<g id="a_edge46_Node000022_Node000030"><a xlink:title=" ">
<path fill="none" stroke="#63b8ff" d="M1613.33,-241.85C1594.07,-229.27 1566.52,-211.28 1550.32,-200.7"/>
<polygon fill="#63b8ff" stroke="#63b8ff" points="1611.5,-244.83 1621.78,-247.37 1615.32,-238.97 1611.5,-244.83"/>
</a>
</g>
</g>
<!-- Node31 -->
<g id="Node000031" class="node">
<title>Node31</title>
<g id="a_Node000031"><a xlink:href="_profiler_widget_8cpp.html" target="_top" xlink:title=" ">
<polygon fill="white" stroke="#666666" points="1821,-200.5 1645,-200.5 1645,-181.5 1821,-181.5 1821,-200.5"/>
<text text-anchor="middle" x="1733" y="-188.5" font-family="Helvetica,sans-Serif" font-size="10.00">src/ui/widgets/ProfilerWidget.cpp</text>
</a>
</g>
</g>
<!-- Node22&#45;&gt;Node31 -->
<g id="edge49_Node000022_Node000031" class="edge">
<title>Node22&#45;&gt;Node31</title>
<g id="a_edge49_Node000022_Node000031"><a xlink:title=" ">
<path fill="none" stroke="#63b8ff" d="M1656.67,-241.85C1675.93,-229.27 1703.48,-211.28 1719.68,-200.7"/>
<polygon fill="#63b8ff" stroke="#63b8ff" points="1654.68,-238.97 1648.22,-247.37 1658.5,-244.83 1654.68,-238.97"/>
</a>
</g>
</g>
<!-- Node24&#45;&gt;Node4 -->
<g id="edge29_Node000024_Node000004" class="edge">
<title>Node24&#45;&gt;Node4</title>
<g id="a_edge29_Node000024_Node000004"><a xlink:title=" ">
<path fill="none" stroke="#63b8ff" d="M676.79,-174.12C624.27,-163.15 564.05,-148.97 555,-140 536.99,-122.14 535.25,-89.75 535.55,-74.24"/>
<polygon fill="#63b8ff" stroke="#63b8ff" points="676.33,-177.6 686.83,-176.2 677.75,-170.75 676.33,-177.6"/>
</a>
</g>
</g>
<!-- Node24&#45;&gt;Node9 -->
<g id="edge30_Node000024_Node000009" class="edge">
<title>Node24&#45;&gt;Node9</title>
<g id="a_edge30_Node000024_Node000009"><a xlink:title=" ">
<path fill="none" stroke="#63b8ff" d="M839.45,-178.25C908.15,-168.28 1009.05,-153.48 1097,-140 1112.75,-137.59 1130.07,-134.85 1145.15,-132.44"/>
<polygon fill="#63b8ff" stroke="#63b8ff" points="838.53,-174.85 829.13,-179.75 839.53,-181.78 838.53,-174.85"/>
</a>
</g>
</g>
<!-- Node24&#45;&gt;Node11 -->
<g id="edge32_Node000024_Node000011" class="edge">
<title>Node24&#45;&gt;Node11</title>
<g id="a_edge32_Node000024_Node000011"><a xlink:title=" ">
<path fill="none" stroke="#63b8ff" d="M774.5,-167.53C781.19,-158.43 788.7,-148.19 794.6,-140.16"/>
<polygon fill="#63b8ff" stroke="#63b8ff" points="771.53,-165.66 768.43,-175.8 777.17,-169.81 771.53,-165.66"/>
</a>
</g>
</g>
<!-- Node25 -->
<g id="Node000025" class="node">
<title>Node25</title>
<g id="a_Node000025"><a xlink:href="_billboard_component_u_i_8hpp.html" target="_top" xlink:title=" ">
<polygon fill="white" stroke="#666666" points="718,-140 564,-140 564,-110 718,-110 718,-140"/>
<text text-anchor="start" x="572" y="-128" font-family="Helvetica,sans-Serif" font-size="10.00">src/ui/Components/Billboard</text>
<text text-anchor="middle" x="641" y="-117" font-family="Helvetica,sans-Serif" font-size="10.00">ComponentUI.hpp</text>
</a>
</g>
</g>
<!-- Node24&#45;&gt;Node25 -->
<g id="edge31_Node000024_Node000025" class="edge">
<title>Node24&#45;&gt;Node25</title>
<g id="a_edge31_Node000024_Node000025"><a xlink:title=" ">
<path fill="none" stroke="#63b8ff" d="M723.21,-170.97C705.05,-161.03 683.22,-149.09 666.62,-140.01"/>
<polygon fill="#63b8ff" stroke="#63b8ff" points="721.87,-174.23 732.32,-175.95 725.23,-168.09 721.87,-174.23"/>
</a>
</g>
</g>
<!-- Node26&#45;&gt;Node4 -->
<g id="edge35_Node000026_Node000004" class="edge">
<title>Node26&#45;&gt;Node4</title>
<g id="a_edge35_Node000026_Node000004"><a xlink:title=" ">
<path fill="none" stroke="#63b8ff" d="M1052.45,-176.52C1080.57,-160.5 1118.28,-133.04 1097,-110 1065.94,-76.38 779.81,-68.14 628.63,-66.13"/>
<polygon fill="#63b8ff" stroke="#63b8ff" points="1050.47,-173.62 1043.38,-181.49 1053.83,-179.76 1050.47,-173.62"/>
</a>
</g>
</g>
<!-- Node26&#45;&gt;Node9 -->
<g id="edge36_Node000026_Node000009" class="edge">
<title>Node26&#45;&gt;Node9</title>
<g id="a_edge36_Node000026_Node000009"><a xlink:title=" ">
<path fill="none" stroke="#63b8ff" d="M1057.03,-177.51C1088.45,-164.86 1136.23,-145.63 1163.64,-134.6"/>
<polygon fill="#63b8ff" stroke="#63b8ff" points="1055.41,-174.39 1047.44,-181.37 1058.03,-180.88 1055.41,-174.39"/>
</a>
</g>
</g>
<!-- Node26&#45;&gt;Node11 -->
<g id="edge38_Node000026_Node000011" class="edge">
<title>Node26&#45;&gt;Node11</title>
<g id="a_edge38_Node000026_Node000011"><a xlink:title=" ">
<path fill="none" stroke="#63b8ff" d="M986.23,-178.48C949.09,-167.73 893.54,-151.64 853.74,-140.12"/>
<polygon fill="#63b8ff" stroke="#63b8ff" points="985.62,-181.95 996.19,-181.37 987.56,-175.23 985.62,-181.95"/>
</a>
</g>
</g>
<!-- Node26&#45;&gt;Node16 -->
<g id="edge34_Node000026_Node000016" class="edge">
<title>Node26&#45;&gt;Node16</title>
<g id="a_edge34_Node000026_Node000016"><a xlink:title=" ">
<path fill="none" stroke="#63b8ff" d="M1106.16,-180.25C1206.02,-168.1 1375.51,-147.47 1474.24,-135.46"/>
<polygon fill="#63b8ff" stroke="#63b8ff" points="1105.62,-176.79 1096.12,-181.47 1106.47,-183.73 1105.62,-176.79"/>
</a>
</g>
</g>
<!-- Node26&#45;&gt;Node27 -->
<g id="edge37_Node000026_Node000027" class="edge">
<title>Node26&#45;&gt;Node27</title>
<g id="a_edge37_Node000026_Node000027"><a xlink:title=" ">
<path fill="none" stroke="#63b8ff" d="M1016.22,-172.61C1010.53,-162.5 1003.45,-149.91 998.08,-140.36"/>
<polygon fill="#63b8ff" stroke="#63b8ff" points="1013.19,-174.37 1021.14,-181.37 1019.29,-170.94 1013.19,-174.37"/>
</a>
</g>
</g>
<!-- Node28&#45;&gt;Node4 -->
<g id="edge41_Node000028_Node000004" class="edge">
<title>Node28&#45;&gt;Node4</title>
<g id="a_edge41_Node000028_Node000004"><a xlink:title=" ">
<path fill="none" stroke="#63b8ff" d="M2038.32,-176.35C2037.21,-176.23 2036.1,-176.11 2035,-176 1782.96,-149.88 1718.24,-164.19 1466,-140 1362.07,-130.03 1336.93,-120 1233,-110 1016.95,-89.22 762.27,-75.74 628.6,-69.52"/>
<polygon fill="#63b8ff" stroke="#63b8ff" points="2038.12,-179.85 2048.45,-177.51 2038.92,-172.9 2038.12,-179.85"/>
</a>
</g>
</g>
<!-- Node28&#45;&gt;Node9 -->
<g id="edge42_Node000028_Node000009" class="edge">
<title>Node28&#45;&gt;Node9</title>
<g id="a_edge42_Node000028_Node000009"><a xlink:title=" ">
<path fill="none" stroke="#63b8ff" d="M2038.32,-176.33C2037.21,-176.21 2036.1,-176.11 2035,-176 1699.71,-143.91 1613.19,-173.11 1278,-140 1260.45,-138.27 1241.16,-135.5 1224.71,-132.89"/>
<polygon fill="#63b8ff" stroke="#63b8ff" points="2038.14,-179.83 2048.46,-177.42 2038.9,-172.87 2038.14,-179.83"/>
</a>
</g>
</g>
<!-- Node28&#45;&gt;Node15 -->
<g id="edge40_Node000028_Node000015" class="edge">
<title>Node28&#45;&gt;Node15</title>
<g id="a_edge40_Node000028_Node000015"><a xlink:title=" ">
<path fill="none" stroke="#63b8ff" d="M2225.79,-181.08C2319.42,-171.89 2467.36,-156.6 2595,-140 2607.5,-138.38 2620.92,-136.44 2633.54,-134.54"/>
<polygon fill="#63b8ff" stroke="#63b8ff" points="2225.38,-177.6 2215.77,-182.06 2226.07,-184.57 2225.38,-177.6"/>
</a>
</g>
</g>
<!-- Node32&#45;&gt;Node9 -->
<g id="edge54_Node000032_Node000009" class="edge">
<title>Node32&#45;&gt;Node9</title>
<g id="a_edge54_Node000032_Node000009"><a xlink:title=" ">
<path fill="none" stroke="#63b8ff" d="M2236.05,-251.68C2178.23,-246.19 2102.06,-233.81 2040,-206 2020.36,-197.2 2022.15,-183.56 2002,-176 1851.18,-119.41 1438.29,-156.01 1278,-140 1260.45,-138.25 1241.16,-135.48 1224.72,-132.87"/>
<polygon fill="#63b8ff" stroke="#63b8ff" points="2235.99,-255.18 2246.26,-252.59 2236.62,-248.21 2235.99,-255.18"/>
</a>
</g>
</g>
<!-- Node32&#45;&gt;Node11 -->
<g id="edge57_Node000032_Node000011" class="edge">
<title>Node32&#45;&gt;Node11</title>
<g id="a_edge57_Node000032_Node000011"><a xlink:title=" ">
<path fill="none" stroke="#63b8ff" d="M2236.25,-251.04C2182.97,-248.14 2113.58,-244.56 2052,-242 1925.6,-236.75 1033.58,-247.28 914,-206 874.73,-192.44 837.65,-159.39 818.51,-140.28"/>
<polygon fill="#63b8ff" stroke="#63b8ff" points="2236.17,-254.54 2246.34,-251.59 2236.55,-247.55 2236.17,-254.54"/>
</a>
</g>
</g>
<!-- Node32&#45;&gt;Node12 -->
<g id="edge51_Node000032_Node000012" class="edge">
<title>Node32&#45;&gt;Node12</title>
<g id="a_edge51_Node000032_Node000012"><a xlink:title=" ">
<path fill="none" stroke="#63b8ff" d="M2349.84,-235.58C2364.66,-223.87 2382.51,-209.77 2393.81,-200.84"/>
<polygon fill="#63b8ff" stroke="#63b8ff" points="2347.65,-232.85 2341.98,-241.8 2351.99,-238.34 2347.65,-232.85"/>
</a>
</g>
</g>
<!-- Node32&#45;&gt;Node15 -->
<g id="edge52_Node000032_Node000015" class="edge">
<title>Node32&#45;&gt;Node15</title>
<g id="a_edge52_Node000032_Node000015"><a xlink:title=" ">
<path fill="none" stroke="#63b8ff" d="M2412.12,-255.26C2573.05,-252.98 2901.25,-243.71 2936,-206 2988.23,-149.32 2861.72,-132.64 2770.54,-127.82"/>
<polygon fill="#63b8ff" stroke="#63b8ff" points="2411.71,-251.76 2401.76,-255.4 2411.81,-258.76 2411.71,-251.76"/>
</a>
</g>
</g>
<!-- Node32&#45;&gt;Node16 -->
<g id="edge53_Node000032_Node000016" class="edge">
<title>Node32&#45;&gt;Node16</title>
<g id="a_edge53_Node000032_Node000016"><a xlink:title=" ">
<path fill="none" stroke="#63b8ff" d="M2305.01,-234.54C2286.66,-215.42 2256.99,-188.6 2225,-176 2119.49,-134.45 1829.05,-148.82 1716,-140 1687.8,-137.8 1656.88,-135.21 1629.57,-132.85"/>
<polygon fill="#63b8ff" stroke="#63b8ff" points="2302.55,-237.03 2311.93,-241.94 2307.66,-232.25 2302.55,-237.03"/>
</a>
</g>
</g>
<!-- Node33 -->
<g id="Node000033" class="node">
<title>Node33</title>
<g id="a_Node000033"><a xlink:href="_billboard_component_u_i_8cpp.html" target="_top" xlink:title=" ">
<polygon fill="white" stroke="#666666" points="2711,-206 2557,-206 2557,-176 2711,-176 2711,-206"/>
<text text-anchor="start" x="2565" y="-194" font-family="Helvetica,sans-Serif" font-size="10.00">src/ui/Components/Billboard</text>
<text text-anchor="middle" x="2634" y="-183" font-family="Helvetica,sans-Serif" font-size="10.00">ComponentUI.cpp</text>
</a>
</g>
</g>
<!-- Node32&#45;&gt;Node33 -->
<g id="edge55_Node000032_Node000033" class="edge">
<title>Node32&#45;&gt;Node33</title>
<g id="a_edge55_Node000032_Node000033"><a xlink:title=" ">
<path fill="none" stroke="#63b8ff" d="M2401.94,-239.91C2452.49,-229.47 2517.71,-216.01 2566.13,-206.01"/>
<polygon fill="#63b8ff" stroke="#63b8ff" points="2401.12,-236.51 2392.03,-241.95 2402.53,-243.36 2401.12,-236.51"/>
</a>
</g>
</g>
<!-- Node34 -->
<g id="Node000034" class="node">
<title>Node34</title>
<g id="a_Node000034"><a xlink:href="_model_component_u_i_8cpp.html" target="_top" xlink:title=" ">
<polygon fill="white" stroke="#666666" points="2926.5,-206 2729.5,-206 2729.5,-176 2926.5,-176 2926.5,-206"/>
<text text-anchor="start" x="2737.5" y="-194" font-family="Helvetica,sans-Serif" font-size="10.00">src/ui/Components/ModelComponent</text>
<text text-anchor="middle" x="2828" y="-183" font-family="Helvetica,sans-Serif" font-size="10.00">UI.cpp</text>
</a>
</g>
</g>
<!-- Node32&#45;&gt;Node34 -->
<g id="edge56_Node000032_Node000034" class="edge">
<title>Node32&#45;&gt;Node34</title>
<g id="a_edge56_Node000032_Node000034"><a xlink:title=" ">
<path fill="none" stroke="#63b8ff" d="M2411.84,-244.99C2492.1,-234.92 2614.04,-219.56 2720,-206 2723.09,-205.6 2726.24,-205.2 2729.41,-204.79"/>
<polygon fill="#63b8ff" stroke="#63b8ff" points="2411.27,-241.54 2401.78,-246.26 2412.14,-248.48 2411.27,-241.54"/>
</a>
</g>
</g>
</g>
</svg>
