<?xml version="1.0" encoding="UTF-8" standalone="no"?>
<!DOCTYPE svg PUBLIC "-//W3C//DTD SVG 1.1//EN"
 "http://www.w3.org/Graphics/SVG/1.1/DTD/svg11.dtd">
<!-- Generated by graphviz version 2.43.0 (0)
 -->
<!-- Title: src/Math/Ray.hpp Pages: 1 -->
<svg width="1412pt" height="274pt"
 viewBox="0.00 0.00 1412.00 274.00" xmlns="http://www.w3.org/2000/svg" xmlns:xlink="http://www.w3.org/1999/xlink">
<g id="graph0" class="graph" transform="scale(1 1) rotate(0) translate(4 270)">
<title>src/Math/Ray.hpp</title>
<polygon fill="white" stroke="transparent" points="-4,4 -4,-270 1408,-270 1408,4 -4,4"/>
<!-- Node1 -->
<g id="node1" class="node">
<title>Node1</title>
<g id="a_node1"><a xlink:title=" ">
<polygon fill="#bfbfbf" stroke="black" points="562.5,-246.5 562.5,-265.5 662.5,-265.5 662.5,-246.5 562.5,-246.5"/>
<text text-anchor="middle" x="612.5" y="-253.5" font-family="Helvetica,sans-Serif" font-size="10.00">src/Math/Ray.hpp</text>
</a>
</g>
</g>
<!-- Node2 -->
<g id="node2" class="node">
<title>Node2</title>
<g id="a_node2"><a xlink:href="_camera_component_8hpp.html" target="_top" xlink:title=" ">
<polygon fill="white" stroke="black" points="365.5,-73 365.5,-92 579.5,-92 579.5,-73 365.5,-73"/>
<text text-anchor="middle" x="472.5" y="-80" font-family="Helvetica,sans-Serif" font-size="10.00">src/Components/CameraComponent.hpp</text>
</a>
</g>
</g>
<!-- Node1&#45;&gt;Node2 -->
<g id="edge1" class="edge">
<title>Node1&#45;&gt;Node2</title>
<path fill="none" stroke="midnightblue" d="M598.79,-238.2C569.43,-202.24 501.39,-118.9 479.45,-92.02"/>
<polygon fill="midnightblue" stroke="midnightblue" points="596.33,-240.73 605.36,-246.26 601.75,-236.3 596.33,-240.73"/>
</g>
<!-- Node8 -->
<g id="node8" class="node">
<title>Node8</title>
<g id="a_node8"><a xlink:href="_box_8hpp.html" target="_top" xlink:title=" ">
<polygon fill="white" stroke="black" points="775,-190.5 775,-209.5 876,-209.5 876,-190.5 775,-190.5"/>
<text text-anchor="middle" x="825.5" y="-197.5" font-family="Helvetica,sans-Serif" font-size="10.00">src/Math/Box.hpp</text>
</a>
</g>
</g>
<!-- Node1&#45;&gt;Node8 -->
<g id="edge7" class="edge">
<title>Node1&#45;&gt;Node8</title>
<path fill="none" stroke="midnightblue" d="M656.05,-243.96C696.28,-233.76 755.2,-218.82 791.91,-209.52"/>
<polygon fill="midnightblue" stroke="midnightblue" points="655.08,-240.59 646.25,-246.44 656.8,-247.38 655.08,-240.59"/>
</g>
<!-- Node3 -->
<g id="node3" class="node">
<title>Node3</title>
<g id="a_node3"><a xlink:href="main_8cpp.html" target="_top" xlink:title=" ">
<polygon fill="white" stroke="black" points="955,-6 955,-25 1034,-25 1034,-6 955,-6"/>
<text text-anchor="middle" x="994.5" y="-13" font-family="Helvetica,sans-Serif" font-size="10.00">src/main.cpp</text>
</a>
</g>
</g>
<!-- Node2&#45;&gt;Node3 -->
<g id="edge2" class="edge">
<title>Node2&#45;&gt;Node3</title>
<path fill="none" stroke="midnightblue" d="M548.5,-71.73C561.83,-70.1 575.56,-68.46 588.5,-67 747.41,-49.08 789.67,-62.27 946.5,-31 954.01,-29.5 962.03,-27.32 969.32,-25.1"/>
<polygon fill="midnightblue" stroke="midnightblue" points="547.91,-68.28 538.41,-72.98 548.77,-75.23 547.91,-68.28"/>
</g>
<!-- Node4 -->
<g id="node4" class="node">
<title>Node4</title>
<g id="a_node4"><a xlink:href="_model_renderer_system_8cpp.html" target="_top" xlink:title=" ">
<polygon fill="white" stroke="black" points="396,-0.5 396,-30.5 549,-30.5 549,-0.5 396,-0.5"/>
<text text-anchor="start" x="404" y="-18.5" font-family="Helvetica,sans-Serif" font-size="10.00">src/Systems/ModelRenderer</text>
<text text-anchor="middle" x="472.5" y="-7.5" font-family="Helvetica,sans-Serif" font-size="10.00">System.cpp</text>
</a>
</g>
</g>
<!-- Node2&#45;&gt;Node4 -->
<g id="edge3" class="edge">
<title>Node2&#45;&gt;Node4</title>
<path fill="none" stroke="midnightblue" d="M472.5,-62.41C472.5,-52.22 472.5,-39.9 472.5,-30.59"/>
<polygon fill="midnightblue" stroke="midnightblue" points="469,-62.73 472.5,-72.73 476,-62.73 469,-62.73"/>
</g>
<!-- Node5 -->
<g id="node5" class="node">
<title>Node5</title>
<g id="a_node5"><a xlink:href="_object_selection_system_8cpp.html" target="_top" xlink:title=" ">
<polygon fill="white" stroke="black" points="782,-0.5 782,-30.5 937,-30.5 937,-0.5 782,-0.5"/>
<text text-anchor="start" x="790" y="-18.5" font-family="Helvetica,sans-Serif" font-size="10.00">src/Systems/ObjectSelection</text>
<text text-anchor="middle" x="859.5" y="-7.5" font-family="Helvetica,sans-Serif" font-size="10.00">System.cpp</text>
</a>
</g>
</g>
<!-- Node2&#45;&gt;Node5 -->
<g id="edge4" class="edge">
<title>Node2&#45;&gt;Node5</title>
<path fill="none" stroke="midnightblue" d="M533.55,-71.27C594.37,-61.08 690.39,-44.98 773.5,-31 776.19,-30.55 778.92,-30.09 781.68,-29.62"/>
<polygon fill="midnightblue" stroke="midnightblue" points="532.65,-67.87 523.36,-72.98 533.8,-74.78 532.65,-67.87"/>
</g>
<!-- Node6 -->
<g id="node6" class="node">
<title>Node6</title>
<g id="a_node6"><a xlink:href="_rendering_system_8cpp.html" target="_top" xlink:title=" ">
<polygon fill="white" stroke="black" points="0,-6 0,-25 185,-25 185,-6 0,-6"/>
<text text-anchor="middle" x="92.5" y="-13" font-family="Helvetica,sans-Serif" font-size="10.00">src/Systems/RenderingSystem.cpp</text>
</a>
</g>
</g>
<!-- Node2&#45;&gt;Node6 -->
<g id="edge5" class="edge">
<title>Node2&#45;&gt;Node6</title>
<path fill="none" stroke="midnightblue" d="M412.25,-71.19C337.62,-58.43 211.86,-36.92 142.38,-25.03"/>
<polygon fill="midnightblue" stroke="midnightblue" points="411.98,-74.7 422.43,-72.94 413.16,-67.8 411.98,-74.7"/>
</g>
<!-- Node7 -->
<g id="node7" class="node">
<title>Node7</title>
<g id="a_node7"><a xlink:href="_wireframe_renderer_system_8cpp.html" target="_top" xlink:title=" ">
<polygon fill="white" stroke="black" points="203,-0.5 203,-30.5 378,-30.5 378,-0.5 203,-0.5"/>
<text text-anchor="start" x="211" y="-18.5" font-family="Helvetica,sans-Serif" font-size="10.00">src/Systems/WireframeRenderer</text>
<text text-anchor="middle" x="290.5" y="-7.5" font-family="Helvetica,sans-Serif" font-size="10.00">System.cpp</text>
</a>
</g>
</g>
<!-- Node2&#45;&gt;Node7 -->
<g id="edge6" class="edge">
<title>Node2&#45;&gt;Node7</title>
<path fill="none" stroke="midnightblue" d="M438.87,-69.49C408.02,-58.47 362.3,-42.14 329.78,-30.53"/>
<polygon fill="midnightblue" stroke="midnightblue" points="437.74,-72.8 448.33,-72.87 440.09,-66.21 437.74,-72.8"/>
</g>
<!-- Node9 -->
<g id="node9" class="node">
<title>Node9</title>
<g id="a_node9"><a xlink:href="_mesh_8hpp.html" target="_top" xlink:title=" ">
<polygon fill="white" stroke="black" points="821.5,-134.5 821.5,-153.5 975.5,-153.5 975.5,-134.5 821.5,-134.5"/>
<text text-anchor="middle" x="898.5" y="-141.5" font-family="Helvetica,sans-Serif" font-size="10.00">src/AssetManager/Mesh.hpp</text>
</a>
</g>
</g>
<!-- Node8&#45;&gt;Node9 -->
<g id="edge8" class="edge">
<title>Node8&#45;&gt;Node9</title>
<path fill="none" stroke="midnightblue" d="M845.64,-184.1C858.78,-174.38 875.48,-162.03 886.56,-153.83"/>
<polygon fill="midnightblue" stroke="midnightblue" points="843.19,-181.56 837.23,-190.32 847.35,-187.19 843.19,-181.56"/>
</g>
<!-- Node14 -->
<g id="node14" class="node">
<title>Node14</title>
<g id="a_node14"><a xlink:href="_box_collider_component_8hpp.html" target="_top" xlink:title=" ">
<polygon fill="white" stroke="black" points="1032,-67.5 1032,-97.5 1187,-97.5 1187,-67.5 1032,-67.5"/>
<text text-anchor="start" x="1040" y="-85.5" font-family="Helvetica,sans-Serif" font-size="10.00">src/Components/BoxCollider</text>
<text text-anchor="middle" x="1109.5" y="-74.5" font-family="Helvetica,sans-Serif" font-size="10.00">Component.hpp</text>
</a>
</g>
</g>
<!-- Node8&#45;&gt;Node14 -->
<g id="edge17" class="edge">
<title>Node8&#45;&gt;Node14</title>
<path fill="none" stroke="midnightblue" d="M875.56,-188.07C907.4,-180.34 949.13,-168.73 984.5,-154 1022.68,-138.1 1063.9,-113.18 1088.17,-97.62"/>
<polygon fill="midnightblue" stroke="midnightblue" points="874.51,-184.73 865.59,-190.45 876.13,-191.54 874.51,-184.73"/>
</g>
<!-- Node16 -->
<g id="node16" class="node">
<title>Node16</title>
<g id="a_node16"><a xlink:href="_box_8cpp.html" target="_top" xlink:title=" ">
<polygon fill="white" stroke="black" points="702,-134.5 702,-153.5 803,-153.5 803,-134.5 702,-134.5"/>
<text text-anchor="middle" x="752.5" y="-141.5" font-family="Helvetica,sans-Serif" font-size="10.00">src/Math/Box.cpp</text>
</a>
</g>
</g>
<!-- Node8&#45;&gt;Node16 -->
<g id="edge22" class="edge">
<title>Node8&#45;&gt;Node16</title>
<path fill="none" stroke="midnightblue" d="M805.36,-184.1C792.22,-174.38 775.52,-162.03 764.44,-153.83"/>
<polygon fill="midnightblue" stroke="midnightblue" points="803.65,-187.19 813.77,-190.32 807.81,-181.56 803.65,-187.19"/>
</g>
<!-- Node9&#45;&gt;Node3 -->
<g id="edge16" class="edge">
<title>Node9&#45;&gt;Node3</title>
<path fill="none" stroke="midnightblue" d="M940.06,-130.72C956.48,-123.76 973.92,-113.29 984.5,-98 1000.08,-75.49 997.91,-40.9 995.86,-25.01"/>
<polygon fill="midnightblue" stroke="midnightblue" points="938.62,-127.53 930.58,-134.43 941.16,-134.05 938.62,-127.53"/>
</g>
<!-- Node10 -->
<g id="node10" class="node">
<title>Node10</title>
<g id="a_node10"><a xlink:href="_mesh_8cpp.html" target="_top" xlink:title=" ">
<polygon fill="white" stroke="black" points="822,-73 822,-92 975,-92 975,-73 822,-73"/>
<text text-anchor="middle" x="898.5" y="-80" font-family="Helvetica,sans-Serif" font-size="10.00">src/AssetManager/Mesh.cpp</text>
</a>
</g>
</g>
<!-- Node9&#45;&gt;Node10 -->
<g id="edge9" class="edge">
<title>Node9&#45;&gt;Node10</title>
<path fill="none" stroke="midnightblue" d="M898.5,-124.32C898.5,-113.5 898.5,-100.4 898.5,-92.01"/>
<polygon fill="midnightblue" stroke="midnightblue" points="895,-124.48 898.5,-134.48 902,-124.48 895,-124.48"/>
</g>
<!-- Node11 -->
<g id="node11" class="node">
<title>Node11</title>
<g id="a_node11"><a xlink:href="_model_component_8hpp.html" target="_top" xlink:title=" ">
<polygon fill="white" stroke="black" points="597.5,-73 597.5,-92 803.5,-92 803.5,-73 597.5,-73"/>
<text text-anchor="middle" x="700.5" y="-80" font-family="Helvetica,sans-Serif" font-size="10.00">src/Components/ModelComponent.hpp</text>
</a>
</g>
</g>
<!-- Node9&#45;&gt;Node11 -->
<g id="edge10" class="edge">
<title>Node9&#45;&gt;Node11</title>
<path fill="none" stroke="midnightblue" d="M860.33,-131.53C821.84,-119.96 763.34,-102.38 728.82,-92.01"/>
<polygon fill="midnightblue" stroke="midnightblue" points="859.55,-134.95 870.13,-134.48 861.56,-128.25 859.55,-134.95"/>
</g>
<!-- Node11&#45;&gt;Node3 -->
<g id="edge11" class="edge">
<title>Node11&#45;&gt;Node3</title>
<path fill="none" stroke="midnightblue" d="M758.4,-71.15C808.47,-61.84 882.64,-47.16 946.5,-31 953.42,-29.25 960.83,-27.13 967.71,-25.06"/>
<polygon fill="midnightblue" stroke="midnightblue" points="757.61,-67.74 748.41,-73 758.88,-74.62 757.61,-67.74"/>
</g>
<!-- Node11&#45;&gt;Node4 -->
<g id="edge12" class="edge">
<title>Node11&#45;&gt;Node4</title>
<path fill="none" stroke="midnightblue" d="M660.36,-70.06C621.71,-59.04 563.15,-42.34 521.71,-30.53"/>
<polygon fill="midnightblue" stroke="midnightblue" points="659.65,-73.49 670.22,-72.87 661.57,-66.76 659.65,-73.49"/>
</g>
<!-- Node11&#45;&gt;Node5 -->
<g id="edge13" class="edge">
<title>Node11&#45;&gt;Node5</title>
<path fill="none" stroke="midnightblue" d="M730.94,-69.06C757.87,-58.05 797.14,-41.99 825.19,-30.53"/>
<polygon fill="midnightblue" stroke="midnightblue" points="729.55,-65.84 721.61,-72.87 732.19,-72.32 729.55,-65.84"/>
</g>
<!-- Node12 -->
<g id="node12" class="node">
<title>Node12</title>
<g id="a_node12"><a xlink:href="_model_component_u_i_8hpp.html" target="_top" xlink:title=" ">
<polygon fill="white" stroke="black" points="567,-0.5 567,-30.5 764,-30.5 764,-0.5 567,-0.5"/>
<text text-anchor="start" x="575" y="-18.5" font-family="Helvetica,sans-Serif" font-size="10.00">src/ui/Components/ModelComponent</text>
<text text-anchor="middle" x="665.5" y="-7.5" font-family="Helvetica,sans-Serif" font-size="10.00">UI.hpp</text>
</a>
</g>
</g>
<!-- Node11&#45;&gt;Node12 -->
<g id="edge14" class="edge">
<title>Node11&#45;&gt;Node12</title>
<path fill="none" stroke="midnightblue" d="M690.92,-63.71C685.31,-53.29 678.32,-40.3 673.09,-30.59"/>
<polygon fill="midnightblue" stroke="midnightblue" points="687.96,-65.59 695.78,-72.73 694.12,-62.27 687.96,-65.59"/>
</g>
<!-- Node13 -->
<g id="node13" class="node">
<title>Node13</title>
<g id="a_node13"><a xlink:href="_properties_widget_8cpp.html" target="_top" xlink:title=" ">
<polygon fill="white" stroke="black" points="1052,-0.5 1052,-30.5 1189,-30.5 1189,-0.5 1052,-0.5"/>
<text text-anchor="start" x="1060" y="-18.5" font-family="Helvetica,sans-Serif" font-size="10.00">src/ui/widgets/Properties</text>
<text text-anchor="middle" x="1120.5" y="-7.5" font-family="Helvetica,sans-Serif" font-size="10.00">Widget.cpp</text>
</a>
</g>
</g>
<!-- Node11&#45;&gt;Node13 -->
<g id="edge15" class="edge">
<title>Node11&#45;&gt;Node13</title>
<path fill="none" stroke="midnightblue" d="M773.5,-71.61C843.03,-61.99 950.57,-46.58 1043.5,-31 1046.18,-30.55 1048.92,-30.08 1051.68,-29.6"/>
<polygon fill="midnightblue" stroke="midnightblue" points="772.95,-68.16 763.52,-72.99 773.91,-75.09 772.95,-68.16"/>
</g>
<!-- Node14&#45;&gt;Node3 -->
<g id="edge18" class="edge">
<title>Node14&#45;&gt;Node3</title>
<path fill="none" stroke="midnightblue" d="M1075.84,-62.47C1053.88,-50.06 1026.3,-34.47 1009.55,-25.01"/>
<polygon fill="midnightblue" stroke="midnightblue" points="1074.12,-65.52 1084.55,-67.4 1077.56,-59.43 1074.12,-65.52"/>
</g>
<!-- Node14&#45;&gt;Node5 -->
<g id="edge19" class="edge">
<title>Node14&#45;&gt;Node5</title>
<path fill="none" stroke="midnightblue" d="M1045.72,-64.92C1004.92,-54.31 952.57,-40.7 913.77,-30.61"/>
<polygon fill="midnightblue" stroke="midnightblue" points="1045,-68.35 1055.56,-67.48 1046.76,-61.57 1045,-68.35"/>
</g>
<!-- Node14&#45;&gt;Node13 -->
<g id="edge21" class="edge">
<title>Node14&#45;&gt;Node13</title>
<path fill="none" stroke="midnightblue" d="M1113.58,-57.4C1115.11,-48.37 1116.79,-38.41 1118.12,-30.58"/>
<polygon fill="midnightblue" stroke="midnightblue" points="1110.1,-56.95 1111.89,-67.4 1117.01,-58.12 1110.1,-56.95"/>
</g>
<!-- Node15 -->
<g id="node15" class="node">
<title>Node15</title>
<g id="a_node15"><a xlink:href="_model_component_u_i_8cpp.html" target="_top" xlink:title=" ">
<polygon fill="white" stroke="black" points="1207,-0.5 1207,-30.5 1404,-30.5 1404,-0.5 1207,-0.5"/>
<text text-anchor="start" x="1215" y="-18.5" font-family="Helvetica,sans-Serif" font-size="10.00">src/ui/Components/ModelComponent</text>
<text text-anchor="middle" x="1305.5" y="-7.5" font-family="Helvetica,sans-Serif" font-size="10.00">UI.cpp</text>
</a>
</g>
</g>
<!-- Node14&#45;&gt;Node15 -->
<g id="edge20" class="edge">
<title>Node14&#45;&gt;Node15</title>
<path fill="none" stroke="midnightblue" d="M1161.58,-64.23C1193.29,-53.71 1233.28,-40.45 1263.05,-30.58"/>
<polygon fill="midnightblue" stroke="midnightblue" points="1160.42,-60.93 1152.03,-67.4 1162.62,-67.57 1160.42,-60.93"/>
</g>
</g>
</svg>
