<?xml version="1.0" encoding="UTF-8" standalone="no"?>
<!DOCTYPE svg PUBLIC "-//W3C//DTD SVG 1.1//EN"
 "http://www.w3.org/Graphics/SVG/1.1/DTD/svg11.dtd">
<!-- Generated by graphviz version 2.43.0 (0)
 -->
<!-- Title: src/ECS/Registry.hpp Pages: 1 -->
<svg width="258pt" height="196pt"
 viewBox="0.00 0.00 258.00 196.00" xmlns="http://www.w3.org/2000/svg" xmlns:xlink="http://www.w3.org/1999/xlink">
<g id="graph0" class="graph" transform="scale(1 1) rotate(0) translate(4 192)">
<title>src/ECS/Registry.hpp</title>
<polygon fill="white" stroke="transparent" points="-4,4 -4,-192 254,-192 254,4 -4,4"/>
<!-- Node1 -->
<g id="node1" class="node">
<title>Node1</title>
<g id="a_node1"><a xlink:title=" ">
<polygon fill="#bfbfbf" stroke="black" points="56,-168.5 56,-187.5 172,-187.5 172,-168.5 56,-168.5"/>
<text text-anchor="middle" x="114" y="-175.5" font-family="Helvetica,sans-Serif" font-size="10.00">src/ECS/Registry.hpp</text>
</a>
</g>
</g>
<!-- Node2 -->
<g id="node2" class="node">
<title>Node2</title>
<g id="a_node2"><a xlink:title=" ">
<polygon fill="white" stroke="#bfbfbf" points="0,-112.5 0,-131.5 86,-131.5 86,-112.5 0,-112.5"/>
<text text-anchor="middle" x="43" y="-119.5" font-family="Helvetica,sans-Serif" font-size="10.00">unordered_set</text>
</a>
</g>
</g>
<!-- Node1&#45;&gt;Node2 -->
<g id="edge1" class="edge">
<title>Node1&#45;&gt;Node2</title>
<path fill="none" stroke="midnightblue" d="M102.59,-168.32C91.89,-160.18 75.66,-147.84 62.84,-138.09"/>
<polygon fill="midnightblue" stroke="midnightblue" points="64.69,-135.1 54.61,-131.83 60.46,-140.67 64.69,-135.1"/>
</g>
<!-- Node3 -->
<g id="node3" class="node">
<title>Node3</title>
<g id="a_node3"><a xlink:href="_entity_provider_8hpp.html" target="_top" xlink:title="Manages a pool of unused entity identifiers and provides mechanisms for requesting and removing them.">
<polygon fill="white" stroke="black" points="91,-56.5 91,-75.5 219,-75.5 219,-56.5 91,-56.5"/>
<text text-anchor="middle" x="155" y="-63.5" font-family="Helvetica,sans-Serif" font-size="10.00">ECS/EntityProvider.hpp</text>
</a>
</g>
</g>
<!-- Node1&#45;&gt;Node3 -->
<g id="edge2" class="edge">
<title>Node1&#45;&gt;Node3</title>
<path fill="none" stroke="midnightblue" d="M116.01,-168.43C119.07,-155.85 125.36,-131.73 133,-112 136.57,-102.78 141.31,-92.86 145.48,-84.7"/>
<polygon fill="midnightblue" stroke="midnightblue" points="148.62,-86.25 150.16,-75.76 142.42,-83 148.62,-86.25"/>
</g>
<!-- Node6 -->
<g id="node6" class="node">
<title>Node6</title>
<g id="a_node6"><a xlink:href="_sparse_set_8hpp.html" target="_top" xlink:title=" ">
<polygon fill="white" stroke="black" points="142,-112.5 142,-131.5 250,-131.5 250,-112.5 142,-112.5"/>
<text text-anchor="middle" x="196" y="-119.5" font-family="Helvetica,sans-Serif" font-size="10.00">ECS/SparseSet.hpp</text>
</a>
</g>
</g>
<!-- Node1&#45;&gt;Node6 -->
<g id="edge5" class="edge">
<title>Node1&#45;&gt;Node6</title>
<path fill="none" stroke="midnightblue" d="M127.17,-168.32C139.85,-159.98 159.23,-147.21 174.21,-137.35"/>
<polygon fill="midnightblue" stroke="midnightblue" points="176.43,-140.08 182.86,-131.65 172.58,-134.23 176.43,-140.08"/>
</g>
<!-- Node4 -->
<g id="node4" class="node">
<title>Node4</title>
<g id="a_node4"><a xlink:title=" ">
<polygon fill="white" stroke="#bfbfbf" points="94.5,-0.5 94.5,-19.5 147.5,-19.5 147.5,-0.5 94.5,-0.5"/>
<text text-anchor="middle" x="121" y="-7.5" font-family="Helvetica,sans-Serif" font-size="10.00">stdlib.h</text>
</a>
</g>
</g>
<!-- Node3&#45;&gt;Node4 -->
<g id="edge3" class="edge">
<title>Node3&#45;&gt;Node4</title>
<path fill="none" stroke="midnightblue" d="M149.39,-56.08C144.63,-48.53 137.68,-37.49 131.85,-28.23"/>
<polygon fill="midnightblue" stroke="midnightblue" points="134.8,-26.35 126.51,-19.75 128.88,-30.08 134.8,-26.35"/>
</g>
<!-- Node5 -->
<g id="node5" class="node">
<title>Node5</title>
<g id="a_node5"><a xlink:title=" ">
<polygon fill="white" stroke="#bfbfbf" points="165.5,-0.5 165.5,-19.5 212.5,-19.5 212.5,-0.5 165.5,-0.5"/>
<text text-anchor="middle" x="189" y="-7.5" font-family="Helvetica,sans-Serif" font-size="10.00">queue</text>
</a>
</g>
</g>
<!-- Node3&#45;&gt;Node5 -->
<g id="edge4" class="edge">
<title>Node3&#45;&gt;Node5</title>
<path fill="none" stroke="midnightblue" d="M160.61,-56.08C165.37,-48.53 172.32,-37.49 178.15,-28.23"/>
<polygon fill="midnightblue" stroke="midnightblue" points="181.12,-30.08 183.49,-19.75 175.2,-26.35 181.12,-30.08"/>
</g>
<!-- Node6&#45;&gt;Node3 -->
<g id="edge6" class="edge">
<title>Node6&#45;&gt;Node3</title>
<path fill="none" stroke="midnightblue" d="M189.23,-112.08C183.44,-104.46 174.94,-93.26 167.86,-83.94"/>
<polygon fill="midnightblue" stroke="midnightblue" points="170.48,-81.6 161.64,-75.75 164.9,-85.83 170.48,-81.6"/>
</g>
</g>
</svg>
