<?xml version="1.0" encoding="UTF-8" standalone="no"?>
<!DOCTYPE svg PUBLIC "-//W3C//DTD SVG 1.1//EN"
 "http://www.w3.org/Graphics/SVG/1.1/DTD/svg11.dtd">
<!-- Generated by graphviz version 2.43.0 (0)
 -->
<!-- Title: src/ECS/Registry.hpp Pages: 1 -->
<svg width="1463pt" height="218pt"
 viewBox="0.00 0.00 1463.00 218.00" xmlns="http://www.w3.org/2000/svg" xmlns:xlink="http://www.w3.org/1999/xlink">
<g id="graph0" class="graph" transform="scale(1 1) rotate(0) translate(4 214)">
<title>src/ECS/Registry.hpp</title>
<polygon fill="white" stroke="transparent" points="-4,4 -4,-214 1459,-214 1459,4 -4,4"/>
<!-- Node1 -->
<g id="node1" class="node">
<title>Node1</title>
<g id="a_node1"><a xlink:title=" ">
<polygon fill="#bfbfbf" stroke="black" points="602.5,-190.5 602.5,-209.5 718.5,-209.5 718.5,-190.5 602.5,-190.5"/>
<text text-anchor="middle" x="660.5" y="-197.5" font-family="Helvetica,sans-Serif" font-size="10.00">src/ECS/Registry.hpp</text>
</a>
</g>
</g>
<!-- Node2 -->
<g id="node2" class="node">
<title>Node2</title>
<g id="a_node2"><a xlink:href="_registry_8cpp.html" target="_top" xlink:title=" ">
<polygon fill="white" stroke="black" points="0,-129 0,-148 115,-148 115,-129 0,-129"/>
<text text-anchor="middle" x="57.5" y="-136" font-family="Helvetica,sans-Serif" font-size="10.00">src/ECS/Registry.cpp</text>
</a>
</g>
</g>
<!-- Node1&#45;&gt;Node2 -->
<g id="edge1" class="edge">
<title>Node1&#45;&gt;Node2</title>
<path fill="none" stroke="midnightblue" d="M591.99,-196.17C489.59,-191.29 290.74,-179.26 123.5,-154 113.29,-152.46 102.3,-150.26 92.28,-148.05"/>
<polygon fill="midnightblue" stroke="midnightblue" points="592.04,-199.68 602.2,-196.65 592.37,-192.69 592.04,-199.68"/>
</g>
<!-- Node3 -->
<g id="node3" class="node">
<title>Node3</title>
<g id="a_node3"><a xlink:href="main_8cpp.html" target="_top" xlink:title=" ">
<polygon fill="white" stroke="black" points="133,-129 133,-148 212,-148 212,-129 133,-129"/>
<text text-anchor="middle" x="172.5" y="-136" font-family="Helvetica,sans-Serif" font-size="10.00">src/main.cpp</text>
</a>
</g>
</g>
<!-- Node1&#45;&gt;Node3 -->
<g id="edge2" class="edge">
<title>Node1&#45;&gt;Node3</title>
<path fill="none" stroke="midnightblue" d="M592.22,-195.93C505.39,-191.13 351.15,-179.6 221.5,-154 213.75,-152.47 205.47,-150.25 197.96,-148.01"/>
<polygon fill="midnightblue" stroke="midnightblue" points="592.29,-199.44 602.47,-196.48 592.67,-192.45 592.29,-199.44"/>
</g>
<!-- Node4 -->
<g id="node4" class="node">
<title>Node4</title>
<g id="a_node4"><a xlink:href="_runtime_8hpp.html" target="_top" xlink:title=" ">
<polygon fill="white" stroke="black" points="530.5,-62 530.5,-81 670.5,-81 670.5,-62 530.5,-62"/>
<text text-anchor="middle" x="600.5" y="-69" font-family="Helvetica,sans-Serif" font-size="10.00">src/Runtime/Runtime.hpp</text>
</a>
</g>
</g>
<!-- Node1&#45;&gt;Node4 -->
<g id="edge3" class="edge">
<title>Node1&#45;&gt;Node4</title>
<path fill="none" stroke="midnightblue" d="M642.71,-183.54C634.5,-175.5 625.31,-165.06 619.5,-154 606.66,-129.57 602.41,-96.51 601.08,-81.09"/>
<polygon fill="midnightblue" stroke="midnightblue" points="640.43,-186.2 650.13,-190.45 645.19,-181.07 640.43,-186.2"/>
</g>
<!-- Node7 -->
<g id="node7" class="node">
<title>Node7</title>
<g id="a_node7"><a xlink:href="_camera_movement_system_8hpp.html" target="_top" xlink:title=" ">
<polygon fill="white" stroke="black" points="230.5,-123.5 230.5,-153.5 400.5,-153.5 400.5,-123.5 230.5,-123.5"/>
<text text-anchor="start" x="238.5" y="-141.5" font-family="Helvetica,sans-Serif" font-size="10.00">src/Systems/CameraMovement</text>
<text text-anchor="middle" x="315.5" y="-130.5" font-family="Helvetica,sans-Serif" font-size="10.00">System.hpp</text>
</a>
</g>
</g>
<!-- Node1&#45;&gt;Node7 -->
<g id="edge6" class="edge">
<title>Node1&#45;&gt;Node7</title>
<path fill="none" stroke="midnightblue" d="M600.89,-188.72C544.5,-178.99 459.41,-164.32 396.81,-153.52"/>
<polygon fill="midnightblue" stroke="midnightblue" points="600.62,-192.22 611.07,-190.48 601.81,-185.33 600.62,-192.22"/>
</g>
<!-- Node9 -->
<g id="node9" class="node">
<title>Node9</title>
<g id="a_node9"><a xlink:href="_model_renderer_system_8hpp.html" target="_top" xlink:title=" ">
<polygon fill="white" stroke="black" points="419,-123.5 419,-153.5 572,-153.5 572,-123.5 419,-123.5"/>
<text text-anchor="start" x="427" y="-141.5" font-family="Helvetica,sans-Serif" font-size="10.00">src/Systems/ModelRenderer</text>
<text text-anchor="middle" x="495.5" y="-130.5" font-family="Helvetica,sans-Serif" font-size="10.00">System.hpp</text>
</a>
</g>
</g>
<!-- Node1&#45;&gt;Node9 -->
<g id="edge9" class="edge">
<title>Node1&#45;&gt;Node9</title>
<path fill="none" stroke="midnightblue" d="M627.15,-186.98C600.33,-177.3 562.59,-163.69 534.39,-153.52"/>
<polygon fill="midnightblue" stroke="midnightblue" points="626.27,-190.38 636.86,-190.48 628.64,-183.79 626.27,-190.38"/>
</g>
<!-- Node11 -->
<g id="node11" class="node">
<title>Node11</title>
<g id="a_node11"><a xlink:href="_rendering_system_8hpp.html" target="_top" xlink:title=" ">
<polygon fill="white" stroke="black" points="628.5,-129 628.5,-148 814.5,-148 814.5,-129 628.5,-129"/>
<text text-anchor="middle" x="721.5" y="-136" font-family="Helvetica,sans-Serif" font-size="10.00">src/Systems/RenderingSystem.hpp</text>
</a>
</g>
</g>
<!-- Node1&#45;&gt;Node11 -->
<g id="edge12" class="edge">
<title>Node1&#45;&gt;Node11</title>
<path fill="none" stroke="midnightblue" d="M676.57,-183.32C688.16,-172.02 703.36,-157.19 712.78,-148.01"/>
<polygon fill="midnightblue" stroke="midnightblue" points="673.95,-180.99 669.24,-190.48 678.84,-186 673.95,-180.99"/>
</g>
<!-- Node13 -->
<g id="node13" class="node">
<title>Node13</title>
<g id="a_node13"><a xlink:href="_wireframe_renderer_system_8hpp.html" target="_top" xlink:title=" ">
<polygon fill="white" stroke="black" points="833,-123.5 833,-153.5 1008,-153.5 1008,-123.5 833,-123.5"/>
<text text-anchor="start" x="841" y="-141.5" font-family="Helvetica,sans-Serif" font-size="10.00">src/Systems/WireframeRenderer</text>
<text text-anchor="middle" x="920.5" y="-130.5" font-family="Helvetica,sans-Serif" font-size="10.00">System.hpp</text>
</a>
</g>
</g>
<!-- Node1&#45;&gt;Node13 -->
<g id="edge15" class="edge">
<title>Node1&#45;&gt;Node13</title>
<path fill="none" stroke="midnightblue" d="M707.56,-188.23C750.05,-178.51 812.83,-164.14 859.22,-153.52"/>
<polygon fill="midnightblue" stroke="midnightblue" points="706.72,-184.83 697.75,-190.48 708.28,-191.66 706.72,-184.83"/>
</g>
<!-- Node15 -->
<g id="node15" class="node">
<title>Node15</title>
<g id="a_node15"><a xlink:href="_u_i_8hpp.html" target="_top" xlink:title="Contains the declaration of the UI class, responsible for handling the user interface.">
<polygon fill="white" stroke="black" points="1026,-129 1026,-148 1103,-148 1103,-129 1026,-129"/>
<text text-anchor="middle" x="1064.5" y="-136" font-family="Helvetica,sans-Serif" font-size="10.00">src/ui/UI.hpp</text>
</a>
</g>
</g>
<!-- Node1&#45;&gt;Node15 -->
<g id="edge18" class="edge">
<title>Node1&#45;&gt;Node15</title>
<path fill="none" stroke="midnightblue" d="M728.86,-193.94C801.16,-187.76 918.26,-175.39 1017.5,-154 1024.68,-152.45 1032.34,-150.31 1039.35,-148.14"/>
<polygon fill="midnightblue" stroke="midnightblue" points="728.2,-190.48 718.52,-194.81 728.78,-197.46 728.2,-190.48"/>
</g>
<!-- Node16 -->
<g id="node16" class="node">
<title>Node16</title>
<g id="a_node16"><a xlink:href="_objects_widget_8hpp.html" target="_top" xlink:title="Contains the declaration of the ObjectsWidget class, a user interface widget for managing game object...">
<polygon fill="white" stroke="black" points="1121,-129 1121,-148 1300,-148 1300,-129 1121,-129"/>
<text text-anchor="middle" x="1210.5" y="-136" font-family="Helvetica,sans-Serif" font-size="10.00">src/ui/widgets/ObjectsWidget.hpp</text>
</a>
</g>
</g>
<!-- Node1&#45;&gt;Node16 -->
<g id="edge19" class="edge">
<title>Node1&#45;&gt;Node16</title>
<path fill="none" stroke="midnightblue" d="M728.94,-193.21C817.58,-185.48 976.8,-170.78 1112.5,-154 1126.67,-152.25 1141.95,-150.11 1156.13,-148.01"/>
<polygon fill="midnightblue" stroke="midnightblue" points="728.41,-189.74 718.75,-194.09 729.02,-196.72 728.41,-189.74"/>
</g>
<!-- Node17 -->
<g id="node17" class="node">
<title>Node17</title>
<g id="a_node17"><a xlink:href="_properties_widget_8hpp.html" target="_top" xlink:title="Contains the declaration of the PropertiesWidget class, a user interface widget for managing game obj...">
<polygon fill="white" stroke="black" points="1318,-123.5 1318,-153.5 1455,-153.5 1455,-123.5 1318,-123.5"/>
<text text-anchor="start" x="1326" y="-141.5" font-family="Helvetica,sans-Serif" font-size="10.00">src/ui/widgets/Properties</text>
<text text-anchor="middle" x="1386.5" y="-130.5" font-family="Helvetica,sans-Serif" font-size="10.00">Widget.hpp</text>
</a>
</g>
</g>
<!-- Node1&#45;&gt;Node17 -->
<g id="edge20" class="edge">
<title>Node1&#45;&gt;Node17</title>
<path fill="none" stroke="midnightblue" d="M728.93,-196.89C847.55,-192.63 1098.87,-181.04 1309.5,-154 1312.2,-153.65 1314.95,-153.27 1317.72,-152.87"/>
<polygon fill="midnightblue" stroke="midnightblue" points="728.77,-193.39 718.9,-197.24 729.02,-200.38 728.77,-193.39"/>
</g>
<!-- Node5 -->
<g id="node5" class="node">
<title>Node5</title>
<g id="a_node5"><a xlink:href="_runtime_8cpp.html" target="_top" xlink:title=" ">
<polygon fill="white" stroke="black" points="443.5,-0.5 443.5,-19.5 583.5,-19.5 583.5,-0.5 443.5,-0.5"/>
<text text-anchor="middle" x="513.5" y="-7.5" font-family="Helvetica,sans-Serif" font-size="10.00">src/Runtime/Runtime.cpp</text>
</a>
</g>
</g>
<!-- Node4&#45;&gt;Node5 -->
<g id="edge4" class="edge">
<title>Node4&#45;&gt;Node5</title>
<path fill="none" stroke="midnightblue" d="M579.46,-56.11C562.73,-44.67 539.89,-29.05 525.94,-19.51"/>
<polygon fill="midnightblue" stroke="midnightblue" points="577.8,-59.22 588.04,-61.98 581.76,-53.44 577.8,-59.22"/>
</g>
<!-- Node6 -->
<g id="node6" class="node">
<title>Node6</title>
<g id="a_node6"><a xlink:href="_scene_widget_8hpp.html" target="_top" xlink:title="Contains the declaration of the SceneWidget class, a user interface widget for rendering scenes.">
<polygon fill="white" stroke="black" points="601.5,-0.5 601.5,-19.5 773.5,-19.5 773.5,-0.5 601.5,-0.5"/>
<text text-anchor="middle" x="687.5" y="-7.5" font-family="Helvetica,sans-Serif" font-size="10.00">src/ui/widgets/SceneWidget.hpp</text>
</a>
</g>
</g>
<!-- Node4&#45;&gt;Node6 -->
<g id="edge5" class="edge">
<title>Node4&#45;&gt;Node6</title>
<path fill="none" stroke="midnightblue" d="M621.54,-56.11C638.27,-44.67 661.11,-29.05 675.06,-19.51"/>
<polygon fill="midnightblue" stroke="midnightblue" points="619.24,-53.44 612.96,-61.98 623.2,-59.22 619.24,-53.44"/>
</g>
<!-- Node7&#45;&gt;Node4 -->
<g id="edge7" class="edge">
<title>Node7&#45;&gt;Node4</title>
<path fill="none" stroke="midnightblue" d="M386.85,-121.23C442.8,-108.47 518.46,-91.21 563.11,-81.03"/>
<polygon fill="midnightblue" stroke="midnightblue" points="385.96,-117.84 376.99,-123.48 387.52,-124.66 385.96,-117.84"/>
</g>
<!-- Node8 -->
<g id="node8" class="node">
<title>Node8</title>
<g id="a_node8"><a xlink:href="_camera_movement_system_8cpp.html" target="_top" xlink:title=" ">
<polygon fill="white" stroke="black" points="170.5,-56.5 170.5,-86.5 340.5,-86.5 340.5,-56.5 170.5,-56.5"/>
<text text-anchor="start" x="178.5" y="-74.5" font-family="Helvetica,sans-Serif" font-size="10.00">src/Systems/CameraMovement</text>
<text text-anchor="middle" x="255.5" y="-63.5" font-family="Helvetica,sans-Serif" font-size="10.00">System.cpp</text>
</a>
</g>
</g>
<!-- Node7&#45;&gt;Node8 -->
<g id="edge8" class="edge">
<title>Node7&#45;&gt;Node8</title>
<path fill="none" stroke="midnightblue" d="M295.68,-116.02C286.74,-106.34 276.43,-95.17 268.49,-86.58"/>
<polygon fill="midnightblue" stroke="midnightblue" points="293.13,-118.42 302.48,-123.4 298.27,-113.67 293.13,-118.42"/>
</g>
<!-- Node9&#45;&gt;Node4 -->
<g id="edge10" class="edge">
<title>Node9&#45;&gt;Node4</title>
<path fill="none" stroke="midnightblue" d="M527.04,-117.97C546.95,-105.65 571.67,-90.35 586.76,-81.01"/>
<polygon fill="midnightblue" stroke="midnightblue" points="524.94,-115.16 518.28,-123.4 528.63,-121.11 524.94,-115.16"/>
</g>
<!-- Node10 -->
<g id="node10" class="node">
<title>Node10</title>
<g id="a_node10"><a xlink:href="_model_renderer_system_8cpp.html" target="_top" xlink:title=" ">
<polygon fill="white" stroke="black" points="359,-56.5 359,-86.5 512,-86.5 512,-56.5 359,-56.5"/>
<text text-anchor="start" x="367" y="-74.5" font-family="Helvetica,sans-Serif" font-size="10.00">src/Systems/ModelRenderer</text>
<text text-anchor="middle" x="435.5" y="-63.5" font-family="Helvetica,sans-Serif" font-size="10.00">System.cpp</text>
</a>
</g>
</g>
<!-- Node9&#45;&gt;Node10 -->
<g id="edge11" class="edge">
<title>Node9&#45;&gt;Node10</title>
<path fill="none" stroke="midnightblue" d="M475.68,-116.02C466.74,-106.34 456.43,-95.17 448.49,-86.58"/>
<polygon fill="midnightblue" stroke="midnightblue" points="473.13,-118.42 482.48,-123.4 478.27,-113.67 473.13,-118.42"/>
</g>
<!-- Node11&#45;&gt;Node4 -->
<g id="edge13" class="edge">
<title>Node11&#45;&gt;Node4</title>
<path fill="none" stroke="midnightblue" d="M696.29,-123.96C672.3,-111.07 636.94,-92.07 616.56,-81.13"/>
<polygon fill="midnightblue" stroke="midnightblue" points="694.72,-127.08 705.18,-128.73 698.03,-120.92 694.72,-127.08"/>
</g>
<!-- Node12 -->
<g id="node12" class="node">
<title>Node12</title>
<g id="a_node12"><a xlink:href="_rendering_system_8cpp.html" target="_top" xlink:title=" ">
<polygon fill="white" stroke="black" points="689,-62 689,-81 874,-81 874,-62 689,-62"/>
<text text-anchor="middle" x="781.5" y="-69" font-family="Helvetica,sans-Serif" font-size="10.00">src/Systems/RenderingSystem.cpp</text>
</a>
</g>
</g>
<!-- Node11&#45;&gt;Node12 -->
<g id="edge14" class="edge">
<title>Node11&#45;&gt;Node12</title>
<path fill="none" stroke="midnightblue" d="M736.61,-121.13C748.34,-108.42 764.15,-91.3 773.54,-81.13"/>
<polygon fill="midnightblue" stroke="midnightblue" points="733.8,-119.01 729.59,-128.73 738.95,-123.76 733.8,-119.01"/>
</g>
<!-- Node13&#45;&gt;Node4 -->
<g id="edge16" class="edge">
<title>Node13&#45;&gt;Node4</title>
<path fill="none" stroke="midnightblue" d="M841.56,-121.47C778.62,-108.68 692.93,-91.27 642.49,-81.03"/>
<polygon fill="midnightblue" stroke="midnightblue" points="840.96,-124.92 851.46,-123.48 842.36,-118.06 840.96,-124.92"/>
</g>
<!-- Node14 -->
<g id="node14" class="node">
<title>Node14</title>
<g id="a_node14"><a xlink:href="_wireframe_renderer_system_8cpp.html" target="_top" xlink:title=" ">
<polygon fill="white" stroke="black" points="892,-56.5 892,-86.5 1067,-86.5 1067,-56.5 892,-56.5"/>
<text text-anchor="start" x="900" y="-74.5" font-family="Helvetica,sans-Serif" font-size="10.00">src/Systems/WireframeRenderer</text>
<text text-anchor="middle" x="979.5" y="-63.5" font-family="Helvetica,sans-Serif" font-size="10.00">System.cpp</text>
</a>
</g>
</g>
<!-- Node13&#45;&gt;Node14 -->
<g id="edge17" class="edge">
<title>Node13&#45;&gt;Node14</title>
<path fill="none" stroke="midnightblue" d="M940.25,-115.74C948.98,-106.12 959,-95.09 966.72,-86.58"/>
<polygon fill="midnightblue" stroke="midnightblue" points="937.43,-113.64 933.3,-123.4 942.61,-118.34 937.43,-113.64"/>
</g>
</g>
</svg>
