<?xml version="1.0" encoding="UTF-8" standalone="no"?>
<!DOCTYPE svg PUBLIC "-//W3C//DTD SVG 1.1//EN"
 "http://www.w3.org/Graphics/SVG/1.1/DTD/svg11.dtd">
<!-- Generated by graphviz version 2.43.0 (0)
 -->
<!-- Title: src/Systems/RenderingSystem.hpp Pages: 1 -->
<svg width="1912pt" height="487pt"
 viewBox="0.00 0.00 1912.25 487.00" xmlns="http://www.w3.org/2000/svg" xmlns:xlink="http://www.w3.org/1999/xlink">
<g id="graph0" class="graph" transform="scale(1 1) rotate(0) translate(4 483)">
<title>src/Systems/RenderingSystem.hpp</title>
<polygon fill="white" stroke="transparent" points="-4,4 -4,-483 1908.25,-483 1908.25,4 -4,4"/>
<!-- Node1 -->
<g id="node1" class="node">
<title>Node1</title>
<g id="a_node1"><a xlink:title=" ">
<polygon fill="#bfbfbf" stroke="black" points="1257.25,-459.5 1257.25,-478.5 1443.25,-478.5 1443.25,-459.5 1257.25,-459.5"/>
<text text-anchor="middle" x="1350.25" y="-466.5" font-family="Helvetica,sans-Serif" font-size="10.00">src/Systems/RenderingSystem.hpp</text>
</a>
</g>
</g>
<!-- Node2 -->
<g id="node2" class="node">
<title>Node2</title>
<g id="a_node2"><a xlink:title=" ">
<polygon fill="white" stroke="#bfbfbf" points="1472.25,-336.5 1472.25,-355.5 1530.25,-355.5 1530.25,-336.5 1472.25,-336.5"/>
<text text-anchor="middle" x="1501.25" y="-343.5" font-family="Helvetica,sans-Serif" font-size="10.00">memory</text>
</a>
</g>
</g>
<!-- Node1&#45;&gt;Node2 -->
<g id="edge1" class="edge">
<title>Node1&#45;&gt;Node2</title>
<path fill="none" stroke="midnightblue" d="M1357.5,-459.3C1370.21,-444.39 1397.79,-413.46 1425.25,-392 1440.76,-379.88 1459.82,-368.6 1474.98,-360.37"/>
<polygon fill="midnightblue" stroke="midnightblue" points="1476.65,-363.44 1483.84,-355.65 1473.37,-357.26 1476.65,-363.44"/>
</g>
<!-- Node3 -->
<g id="node3" class="node">
<title>Node3</title>
<g id="a_node3"><a xlink:href="_types_8hpp.html" target="_top" xlink:title=" ">
<polygon fill="white" stroke="black" points="393.75,-168.5 393.75,-187.5 506.75,-187.5 506.75,-168.5 393.75,-168.5"/>
<text text-anchor="middle" x="450.25" y="-175.5" font-family="Helvetica,sans-Serif" font-size="10.00">Common/Types.hpp</text>
</a>
</g>
</g>
<!-- Node1&#45;&gt;Node3 -->
<g id="edge2" class="edge">
<title>Node1&#45;&gt;Node3</title>
<path fill="none" stroke="midnightblue" d="M1256.96,-466.91C1000.6,-462.7 304.25,-442.46 304.25,-347 304.25,-347 304.25,-347 304.25,-289 304.25,-258.9 302.57,-245.87 323.25,-224 339.21,-207.12 361.89,-196.57 383.68,-189.97"/>
<polygon fill="midnightblue" stroke="midnightblue" points="384.91,-193.26 393.61,-187.21 383.03,-186.52 384.91,-193.26"/>
</g>
<!-- Node4 -->
<g id="node4" class="node">
<title>Node4</title>
<g id="a_node4"><a xlink:href="_registry_8hpp.html" target="_top" xlink:title=" ">
<polygon fill="white" stroke="black" points="178.25,-224.5 178.25,-243.5 276.25,-243.5 276.25,-224.5 178.25,-224.5"/>
<text text-anchor="middle" x="227.25" y="-231.5" font-family="Helvetica,sans-Serif" font-size="10.00">ECS/Registry.hpp</text>
</a>
</g>
</g>
<!-- Node1&#45;&gt;Node4 -->
<g id="edge3" class="edge">
<title>Node1&#45;&gt;Node4</title>
<path fill="none" stroke="midnightblue" d="M1256.92,-466.89C1005.18,-463.52 328.54,-451.81 290.25,-423 236.15,-382.31 227.99,-293.19 227.12,-254.06"/>
<polygon fill="midnightblue" stroke="midnightblue" points="230.61,-253.61 227.03,-243.63 223.61,-253.66 230.61,-253.61"/>
</g>
<!-- Node14 -->
<g id="node14" class="node">
<title>Node14</title>
<g id="a_node14"><a xlink:href="_directional_light_component_8hpp.html" target="_top" xlink:title=" ">
<polygon fill="white" stroke="black" points="879.25,-392.5 879.25,-422.5 1037.25,-422.5 1037.25,-392.5 879.25,-392.5"/>
<text text-anchor="start" x="887.25" y="-410.5" font-family="Helvetica,sans-Serif" font-size="10.00">Components/DirectionalLight</text>
<text text-anchor="middle" x="958.25" y="-399.5" font-family="Helvetica,sans-Serif" font-size="10.00">Component.hpp</text>
</a>
</g>
</g>
<!-- Node1&#45;&gt;Node14 -->
<g id="edge18" class="edge">
<title>Node1&#45;&gt;Node14</title>
<path fill="none" stroke="midnightblue" d="M1294.09,-459.48C1229.66,-449.7 1123.16,-433.53 1047.38,-422.03"/>
<polygon fill="midnightblue" stroke="midnightblue" points="1047.78,-418.55 1037.36,-420.51 1046.72,-425.47 1047.78,-418.55"/>
</g>
<!-- Node25 -->
<g id="node25" class="node">
<title>Node25</title>
<g id="a_node25"><a xlink:href="_shader_program_8hpp.html" target="_top" xlink:title=" ">
<polygon fill="white" stroke="black" points="1212.75,-398 1212.75,-417 1377.75,-417 1377.75,-398 1212.75,-398"/>
<text text-anchor="middle" x="1295.25" y="-405" font-family="Helvetica,sans-Serif" font-size="10.00">Rendering/ShaderProgram.hpp</text>
</a>
</g>
</g>
<!-- Node1&#45;&gt;Node25 -->
<g id="edge38" class="edge">
<title>Node1&#45;&gt;Node25</title>
<path fill="none" stroke="midnightblue" d="M1342.37,-459.48C1333.96,-450.37 1320.43,-435.74 1310.02,-424.48"/>
<polygon fill="midnightblue" stroke="midnightblue" points="1312.47,-421.98 1303.12,-417.01 1307.33,-426.73 1312.47,-421.98"/>
</g>
<!-- Node30 -->
<g id="node30" class="node">
<title>Node30</title>
<g id="a_node30"><a xlink:href="_scene_frame_buffer_8hpp.html" target="_top" xlink:title=" ">
<polygon fill="white" stroke="black" points="1434.25,-392.5 1434.25,-422.5 1568.25,-422.5 1568.25,-392.5 1434.25,-392.5"/>
<text text-anchor="start" x="1442.25" y="-410.5" font-family="Helvetica,sans-Serif" font-size="10.00">Rendering/FrameBuffers</text>
<text text-anchor="middle" x="1501.25" y="-399.5" font-family="Helvetica,sans-Serif" font-size="10.00">/SceneFrameBuffer.hpp</text>
</a>
</g>
</g>
<!-- Node1&#45;&gt;Node30 -->
<g id="edge48" class="edge">
<title>Node1&#45;&gt;Node30</title>
<path fill="none" stroke="midnightblue" d="M1371.88,-459.48C1393.77,-450.85 1428.25,-437.26 1456.11,-426.29"/>
<polygon fill="midnightblue" stroke="midnightblue" points="1457.64,-429.45 1465.66,-422.52 1455.08,-422.93 1457.64,-429.45"/>
</g>
<!-- Node33 -->
<g id="node33" class="node">
<title>Node33</title>
<g id="a_node33"><a xlink:href="_depth_atlas_frame_buffer_8hpp.html" target="_top" xlink:title=" ">
<polygon fill="white" stroke="black" points="1586.25,-392.5 1586.25,-422.5 1740.25,-422.5 1740.25,-392.5 1586.25,-392.5"/>
<text text-anchor="start" x="1594.25" y="-410.5" font-family="Helvetica,sans-Serif" font-size="10.00">Rendering/FrameBuffers</text>
<text text-anchor="middle" x="1663.25" y="-399.5" font-family="Helvetica,sans-Serif" font-size="10.00">/DepthAtlasFrameBuffer.hpp</text>
</a>
</g>
</g>
<!-- Node1&#45;&gt;Node33 -->
<g id="edge56" class="edge">
<title>Node1&#45;&gt;Node33</title>
<path fill="none" stroke="midnightblue" d="M1395.1,-459.48C1443.03,-450.36 1520.14,-435.71 1579.39,-424.44"/>
<polygon fill="midnightblue" stroke="midnightblue" points="1580.31,-427.83 1589.48,-422.52 1579,-420.95 1580.31,-427.83"/>
</g>
<!-- Node34 -->
<g id="node34" class="node">
<title>Node34</title>
<g id="a_node34"><a xlink:href="_cube_map_8hpp.html" target="_top" xlink:title=" ">
<polygon fill="white" stroke="black" points="1768.25,-336.5 1768.25,-355.5 1904.25,-355.5 1904.25,-336.5 1768.25,-336.5"/>
<text text-anchor="middle" x="1836.25" y="-343.5" font-family="Helvetica,sans-Serif" font-size="10.00">Rendering/CubeMap.hpp</text>
</a>
</g>
</g>
<!-- Node1&#45;&gt;Node34 -->
<g id="edge60" class="edge">
<title>Node1&#45;&gt;Node34</title>
<path fill="none" stroke="midnightblue" d="M1443.44,-463.9C1543.8,-458.37 1696.23,-446.37 1749.25,-423 1779.53,-409.65 1806.92,-381.94 1822.56,-363.92"/>
<polygon fill="midnightblue" stroke="midnightblue" points="1825.5,-365.87 1829.26,-355.96 1820.15,-361.36 1825.5,-365.87"/>
</g>
<!-- Node5 -->
<g id="node5" class="node">
<title>Node5</title>
<g id="a_node5"><a xlink:title=" ">
<polygon fill="white" stroke="#bfbfbf" points="134.25,-112.5 134.25,-131.5 220.25,-131.5 220.25,-112.5 134.25,-112.5"/>
<text text-anchor="middle" x="177.25" y="-119.5" font-family="Helvetica,sans-Serif" font-size="10.00">unordered_set</text>
</a>
</g>
</g>
<!-- Node4&#45;&gt;Node5 -->
<g id="edge4" class="edge">
<title>Node4&#45;&gt;Node5</title>
<path fill="none" stroke="midnightblue" d="M223.33,-224.37C215.18,-206.46 196.31,-164.92 185.41,-140.95"/>
<polygon fill="midnightblue" stroke="midnightblue" points="188.48,-139.25 181.15,-131.59 182.11,-142.14 188.48,-139.25"/>
</g>
<!-- Node6 -->
<g id="node6" class="node">
<title>Node6</title>
<g id="a_node6"><a xlink:href="_entity_8hpp.html" target="_top" xlink:title=" ">
<polygon fill="white" stroke="black" points="149.25,-56.5 149.25,-75.5 235.25,-75.5 235.25,-56.5 149.25,-56.5"/>
<text text-anchor="middle" x="192.25" y="-63.5" font-family="Helvetica,sans-Serif" font-size="10.00">ECS/Entity.hpp</text>
</a>
</g>
</g>
<!-- Node4&#45;&gt;Node6 -->
<g id="edge5" class="edge">
<title>Node4&#45;&gt;Node6</title>
<path fill="none" stroke="midnightblue" d="M178.05,-233.28C134.8,-231.06 72.36,-221.57 30.25,-188 8.64,-170.78 9.4,-158.94 3.25,-132 1.27,-123.33 -2.26,-118.98 3.25,-112 19.92,-90.89 89.2,-78.62 139.05,-72.36"/>
<polygon fill="midnightblue" stroke="midnightblue" points="139.54,-75.83 149.05,-71.15 138.7,-68.88 139.54,-75.83"/>
</g>
<!-- Node8 -->
<g id="node8" class="node">
<title>Node8</title>
<g id="a_node8"><a xlink:href="_entity_hierarchy_8hpp.html" target="_top" xlink:title=" ">
<polygon fill="white" stroke="black" points="39.25,-168.5 39.25,-187.5 173.25,-187.5 173.25,-168.5 39.25,-168.5"/>
<text text-anchor="middle" x="106.25" y="-175.5" font-family="Helvetica,sans-Serif" font-size="10.00">ECS/EntityHierarchy.hpp</text>
</a>
</g>
</g>
<!-- Node4&#45;&gt;Node8 -->
<g id="edge7" class="edge">
<title>Node4&#45;&gt;Node8</title>
<path fill="none" stroke="midnightblue" d="M208.08,-224.44C188.34,-215.64 157.36,-201.81 134.76,-191.72"/>
<polygon fill="midnightblue" stroke="midnightblue" points="135.89,-188.4 125.33,-187.52 133.04,-194.79 135.89,-188.4"/>
</g>
<!-- Node11 -->
<g id="node11" class="node">
<title>Node11</title>
<g id="a_node11"><a xlink:href="_entity_provider_8hpp.html" target="_top" xlink:title="Manages a pool of unused entity identifiers and provides mechanisms for requesting and removing them.">
<polygon fill="white" stroke="black" points="350.25,-112.5 350.25,-131.5 478.25,-131.5 478.25,-112.5 350.25,-112.5"/>
<text text-anchor="middle" x="414.25" y="-119.5" font-family="Helvetica,sans-Serif" font-size="10.00">ECS/EntityProvider.hpp</text>
</a>
</g>
</g>
<!-- Node4&#45;&gt;Node11 -->
<g id="edge12" class="edge">
<title>Node4&#45;&gt;Node11</title>
<path fill="none" stroke="midnightblue" d="M260.2,-224.43C285.05,-217.07 319.34,-204.95 346.25,-188 367.5,-174.61 387.77,-153.85 400.55,-139.4"/>
<polygon fill="midnightblue" stroke="midnightblue" points="403.29,-141.59 407.17,-131.73 397.99,-137.02 403.29,-141.59"/>
</g>
<!-- Node13 -->
<g id="node13" class="node">
<title>Node13</title>
<g id="a_node13"><a xlink:href="_sparse_set_8hpp.html" target="_top" xlink:title=" ">
<polygon fill="white" stroke="black" points="229.25,-168.5 229.25,-187.5 337.25,-187.5 337.25,-168.5 229.25,-168.5"/>
<text text-anchor="middle" x="283.25" y="-175.5" font-family="Helvetica,sans-Serif" font-size="10.00">ECS/SparseSet.hpp</text>
</a>
</g>
</g>
<!-- Node4&#45;&gt;Node13 -->
<g id="edge16" class="edge">
<title>Node4&#45;&gt;Node13</title>
<path fill="none" stroke="midnightblue" d="M236.25,-224.32C244.44,-216.42 256.76,-204.55 266.72,-194.94"/>
<polygon fill="midnightblue" stroke="midnightblue" points="269.32,-197.29 274.09,-187.83 264.46,-192.26 269.32,-197.29"/>
</g>
<!-- Node7 -->
<g id="node7" class="node">
<title>Node7</title>
<g id="a_node7"><a xlink:title=" ">
<polygon fill="white" stroke="#bfbfbf" points="233.75,-0.5 233.75,-19.5 286.75,-19.5 286.75,-0.5 233.75,-0.5"/>
<text text-anchor="middle" x="260.25" y="-7.5" font-family="Helvetica,sans-Serif" font-size="10.00">stdlib.h</text>
</a>
</g>
</g>
<!-- Node6&#45;&gt;Node7 -->
<g id="edge6" class="edge">
<title>Node6&#45;&gt;Node7</title>
<path fill="none" stroke="midnightblue" d="M203.18,-56.32C213.42,-48.18 228.97,-35.84 241.25,-26.09"/>
<polygon fill="midnightblue" stroke="midnightblue" points="243.47,-28.79 249.13,-19.83 239.12,-23.31 243.47,-28.79"/>
</g>
<!-- Node8&#45;&gt;Node5 -->
<g id="edge9" class="edge">
<title>Node8&#45;&gt;Node5</title>
<path fill="none" stroke="midnightblue" d="M117.66,-168.32C128.36,-160.18 144.59,-147.84 157.41,-138.09"/>
<polygon fill="midnightblue" stroke="midnightblue" points="159.79,-140.67 165.63,-131.83 155.56,-135.1 159.79,-140.67"/>
</g>
<!-- Node8&#45;&gt;Node6 -->
<g id="edge11" class="edge">
<title>Node8&#45;&gt;Node6</title>
<path fill="none" stroke="midnightblue" d="M106.93,-168.17C108.34,-154.84 112.61,-129.27 125.25,-112 135.07,-98.59 150.17,-87.94 163.56,-80.38"/>
<polygon fill="midnightblue" stroke="midnightblue" points="165.28,-83.43 172.46,-75.64 161.99,-77.25 165.28,-83.43"/>
</g>
<!-- Node9 -->
<g id="node9" class="node">
<title>Node9</title>
<g id="a_node9"><a xlink:title=" ">
<polygon fill="white" stroke="#bfbfbf" points="12.75,-112.5 12.75,-131.5 77.75,-131.5 77.75,-112.5 12.75,-112.5"/>
<text text-anchor="middle" x="45.25" y="-119.5" font-family="Helvetica,sans-Serif" font-size="10.00">functional</text>
</a>
</g>
</g>
<!-- Node8&#45;&gt;Node9 -->
<g id="edge8" class="edge">
<title>Node8&#45;&gt;Node9</title>
<path fill="none" stroke="midnightblue" d="M96.45,-168.32C87.43,-160.34 73.84,-148.31 62.93,-138.65"/>
<polygon fill="midnightblue" stroke="midnightblue" points="65.04,-135.84 55.23,-131.83 60.4,-141.08 65.04,-135.84"/>
</g>
<!-- Node10 -->
<g id="node10" class="node">
<title>Node10</title>
<g id="a_node10"><a xlink:title=" ">
<polygon fill="white" stroke="#bfbfbf" points="238.75,-112.5 238.75,-131.5 331.75,-131.5 331.75,-112.5 238.75,-112.5"/>
<text text-anchor="middle" x="285.25" y="-119.5" font-family="Helvetica,sans-Serif" font-size="10.00">unordered_map</text>
</a>
</g>
</g>
<!-- Node8&#45;&gt;Node10 -->
<g id="edge10" class="edge">
<title>Node8&#45;&gt;Node10</title>
<path fill="none" stroke="midnightblue" d="M134.61,-168.44C164.99,-159.28 213.36,-144.69 247.07,-134.52"/>
<polygon fill="midnightblue" stroke="midnightblue" points="248.46,-137.76 257.02,-131.52 246.43,-131.05 248.46,-137.76"/>
</g>
<!-- Node11&#45;&gt;Node6 -->
<g id="edge15" class="edge">
<title>Node11&#45;&gt;Node6</title>
<path fill="none" stroke="midnightblue" d="M379.07,-112.44C340.67,-103.1 279.07,-88.12 237.19,-77.93"/>
<polygon fill="midnightblue" stroke="midnightblue" points="237.81,-74.48 227.26,-75.52 236.15,-81.28 237.81,-74.48"/>
</g>
<!-- Node11&#45;&gt;Node7 -->
<g id="edge13" class="edge">
<title>Node11&#45;&gt;Node7</title>
<path fill="none" stroke="midnightblue" d="M413.99,-112.16C413.11,-98.33 409.41,-71.56 394.25,-56 368.58,-29.67 327.06,-18.75 297.03,-14.21"/>
<polygon fill="midnightblue" stroke="midnightblue" points="297.31,-10.72 286.93,-12.86 296.38,-17.66 297.31,-10.72"/>
</g>
<!-- Node12 -->
<g id="node12" class="node">
<title>Node12</title>
<g id="a_node12"><a xlink:title=" ">
<polygon fill="white" stroke="#bfbfbf" points="338.75,-56.5 338.75,-75.5 385.75,-75.5 385.75,-56.5 338.75,-56.5"/>
<text text-anchor="middle" x="362.25" y="-63.5" font-family="Helvetica,sans-Serif" font-size="10.00">queue</text>
</a>
</g>
</g>
<!-- Node11&#45;&gt;Node12 -->
<g id="edge14" class="edge">
<title>Node11&#45;&gt;Node12</title>
<path fill="none" stroke="midnightblue" d="M405.66,-112.08C398.09,-104.22 386.87,-92.57 377.74,-83.08"/>
<polygon fill="midnightblue" stroke="midnightblue" points="380.13,-80.53 370.68,-75.75 375.09,-85.38 380.13,-80.53"/>
</g>
<!-- Node13&#45;&gt;Node11 -->
<g id="edge17" class="edge">
<title>Node13&#45;&gt;Node11</title>
<path fill="none" stroke="midnightblue" d="M304.01,-168.44C325.57,-159.56 359.51,-145.56 384.04,-135.45"/>
<polygon fill="midnightblue" stroke="midnightblue" points="385.68,-138.56 393.59,-131.52 383.01,-132.09 385.68,-138.56"/>
</g>
<!-- Node15 -->
<g id="node15" class="node">
<title>Node15</title>
<g id="a_node15"><a xlink:title=" ">
<polygon fill="white" stroke="#bfbfbf" points="1127.25,-224.5 1127.25,-243.5 1171.25,-243.5 1171.25,-224.5 1127.25,-224.5"/>
<text text-anchor="middle" x="1149.25" y="-231.5" font-family="Helvetica,sans-Serif" font-size="10.00">string</text>
</a>
</g>
</g>
<!-- Node14&#45;&gt;Node15 -->
<g id="edge19" class="edge">
<title>Node14&#45;&gt;Node15</title>
<path fill="none" stroke="midnightblue" d="M1037.31,-393.55C1061.99,-386.11 1087.61,-374.41 1106.25,-356 1134.58,-328.03 1144.31,-280.2 1147.6,-253.83"/>
<polygon fill="midnightblue" stroke="midnightblue" points="1151.11,-253.98 1148.68,-243.67 1144.15,-253.24 1151.11,-253.98"/>
</g>
<!-- Node16 -->
<g id="node16" class="node">
<title>Node16</title>
<g id="a_node16"><a xlink:title=" ">
<polygon fill="white" stroke="#bfbfbf" points="743.25,-336.5 743.25,-355.5 803.25,-355.5 803.25,-336.5 743.25,-336.5"/>
<text text-anchor="middle" x="773.25" y="-343.5" font-family="Helvetica,sans-Serif" font-size="10.00">iostream</text>
</a>
</g>
</g>
<!-- Node14&#45;&gt;Node16 -->
<g id="edge20" class="edge">
<title>Node14&#45;&gt;Node16</title>
<path fill="none" stroke="midnightblue" d="M914.41,-392.4C882.44,-382.12 839.63,-368.35 809.57,-358.68"/>
<polygon fill="midnightblue" stroke="midnightblue" points="810.49,-355.3 799.9,-355.57 808.35,-361.96 810.49,-355.3"/>
</g>
<!-- Node17 -->
<g id="node17" class="node">
<title>Node17</title>
<g id="a_node17"><a xlink:title=" ">
<polygon fill="white" stroke="#bfbfbf" points="996.25,-168.5 996.25,-187.5 1074.25,-187.5 1074.25,-168.5 996.25,-168.5"/>
<text text-anchor="middle" x="1035.25" y="-175.5" font-family="Helvetica,sans-Serif" font-size="10.00">glm/glm.hpp</text>
</a>
</g>
</g>
<!-- Node14&#45;&gt;Node17 -->
<g id="edge21" class="edge">
<title>Node14&#45;&gt;Node17</title>
<path fill="none" stroke="midnightblue" d="M1013.64,-392.42C1032.9,-384.76 1052.77,-373.22 1065.25,-356 1100.71,-307.07 1065.26,-230.74 1045.96,-196.57"/>
<polygon fill="midnightblue" stroke="midnightblue" points="1048.87,-194.62 1040.8,-187.75 1042.83,-198.15 1048.87,-194.62"/>
</g>
<!-- Node18 -->
<g id="node18" class="node">
<title>Node18</title>
<g id="a_node18"><a xlink:href="_base_component_8hpp.html" target="_top" xlink:title=" ">
<polygon fill="white" stroke="black" points="332.25,-224.5 332.25,-243.5 514.25,-243.5 514.25,-224.5 332.25,-224.5"/>
<text text-anchor="middle" x="423.25" y="-231.5" font-family="Helvetica,sans-Serif" font-size="10.00">Components/BaseComponent.hpp</text>
</a>
</g>
</g>
<!-- Node14&#45;&gt;Node18 -->
<g id="edge22" class="edge">
<title>Node14&#45;&gt;Node18</title>
<path fill="none" stroke="midnightblue" d="M883.11,-392.48C839.27,-383.58 783.15,-370.93 734.25,-356 627.58,-323.42 505.46,-271.41 451.46,-247.62"/>
<polygon fill="midnightblue" stroke="midnightblue" points="452.75,-244.37 442.19,-243.52 449.92,-250.77 452.75,-244.37"/>
</g>
<!-- Node19 -->
<g id="node19" class="node">
<title>Node19</title>
<g id="a_node19"><a xlink:href="_transform_component_8hpp.html" target="_top" xlink:title=" ">
<polygon fill="white" stroke="black" points="637.75,-280.5 637.75,-299.5 844.75,-299.5 844.75,-280.5 637.75,-280.5"/>
<text text-anchor="middle" x="741.25" y="-287.5" font-family="Helvetica,sans-Serif" font-size="10.00">Components/TransformComponent.hpp</text>
</a>
</g>
</g>
<!-- Node14&#45;&gt;Node19 -->
<g id="edge24" class="edge">
<title>Node14&#45;&gt;Node19</title>
<path fill="none" stroke="midnightblue" d="M925.7,-392.31C904.05,-382.62 875.12,-369.19 850.25,-356 819.42,-339.65 785.02,-318.65 763.26,-305.02"/>
<polygon fill="midnightblue" stroke="midnightblue" points="765.09,-302.03 754.76,-299.66 761.36,-307.95 765.09,-302.03"/>
</g>
<!-- Node23 -->
<g id="node23" class="node">
<title>Node23</title>
<g id="a_node23"><a xlink:href="_camera_component_8hpp.html" target="_top" xlink:title=" ">
<polygon fill="white" stroke="black" points="859.75,-336.5 859.75,-355.5 1056.75,-355.5 1056.75,-336.5 859.75,-336.5"/>
<text text-anchor="middle" x="958.25" y="-343.5" font-family="Helvetica,sans-Serif" font-size="10.00">Components/CameraComponent.hpp</text>
</a>
</g>
</g>
<!-- Node14&#45;&gt;Node23 -->
<g id="edge33" class="edge">
<title>Node14&#45;&gt;Node23</title>
<path fill="none" stroke="midnightblue" d="M958.25,-392.4C958.25,-384.47 958.25,-374.46 958.25,-365.86"/>
<polygon fill="midnightblue" stroke="midnightblue" points="961.75,-365.66 958.25,-355.66 954.75,-365.66 961.75,-365.66"/>
</g>
<!-- Node18&#45;&gt;Node3 -->
<g id="edge23" class="edge">
<title>Node18&#45;&gt;Node3</title>
<path fill="none" stroke="midnightblue" d="M427.71,-224.08C431.4,-216.69 436.77,-205.95 441.34,-196.81"/>
<polygon fill="midnightblue" stroke="midnightblue" points="444.53,-198.26 445.87,-187.75 438.27,-195.13 444.53,-198.26"/>
</g>
<!-- Node19&#45;&gt;Node4 -->
<g id="edge31" class="edge">
<title>Node19&#45;&gt;Node4</title>
<path fill="none" stroke="midnightblue" d="M660.09,-280.47C556.2,-269.56 378.67,-250.91 286.58,-241.23"/>
<polygon fill="midnightblue" stroke="midnightblue" points="286.9,-237.75 276.59,-240.18 286.17,-244.71 286.9,-237.75"/>
</g>
<!-- Node19&#45;&gt;Node15 -->
<g id="edge25" class="edge">
<title>Node19&#45;&gt;Node15</title>
<path fill="none" stroke="midnightblue" d="M805.9,-280.44C894.41,-268.73 1049.97,-248.14 1117.01,-239.27"/>
<polygon fill="midnightblue" stroke="midnightblue" points="1117.53,-242.73 1126.99,-237.95 1116.62,-235.79 1117.53,-242.73"/>
</g>
<!-- Node19&#45;&gt;Node17 -->
<g id="edge26" class="edge">
<title>Node19&#45;&gt;Node17</title>
<path fill="none" stroke="midnightblue" d="M637.47,-281.27C582.2,-273.26 531.24,-257 561.25,-224 589.43,-193.02 870.08,-182.89 985.78,-180.01"/>
<polygon fill="midnightblue" stroke="midnightblue" points="986.21,-183.5 996.12,-179.76 986.04,-176.5 986.21,-183.5"/>
</g>
<!-- Node19&#45;&gt;Node18 -->
<g id="edge32" class="edge">
<title>Node19&#45;&gt;Node18</title>
<path fill="none" stroke="midnightblue" d="M690.86,-280.44C634.57,-270.89 543.5,-255.42 483.49,-245.23"/>
<polygon fill="midnightblue" stroke="midnightblue" points="483.85,-241.74 473.4,-243.52 482.67,-248.64 483.85,-241.74"/>
</g>
<!-- Node20 -->
<g id="node20" class="node">
<title>Node20</title>
<g id="a_node20"><a xlink:title=" ">
<polygon fill="white" stroke="#bfbfbf" points="676.25,-224.5 676.25,-243.5 806.25,-243.5 806.25,-224.5 676.25,-224.5"/>
<text text-anchor="middle" x="741.25" y="-231.5" font-family="Helvetica,sans-Serif" font-size="10.00">glm/gtc/quaternion.hpp</text>
</a>
</g>
</g>
<!-- Node19&#45;&gt;Node20 -->
<g id="edge27" class="edge">
<title>Node19&#45;&gt;Node20</title>
<path fill="none" stroke="midnightblue" d="M741.25,-280.08C741.25,-273.01 741.25,-262.86 741.25,-253.99"/>
<polygon fill="midnightblue" stroke="midnightblue" points="744.75,-253.75 741.25,-243.75 737.75,-253.75 744.75,-253.75"/>
</g>
<!-- Node21 -->
<g id="node21" class="node">
<title>Node21</title>
<g id="a_node21"><a xlink:title=" ">
<polygon fill="white" stroke="#bfbfbf" points="824.75,-224.5 824.75,-243.5 987.75,-243.5 987.75,-224.5 824.75,-224.5"/>
<text text-anchor="middle" x="906.25" y="-231.5" font-family="Helvetica,sans-Serif" font-size="10.00">glm/gtc/matrix_transform.hpp</text>
</a>
</g>
</g>
<!-- Node19&#45;&gt;Node21 -->
<g id="edge28" class="edge">
<title>Node19&#45;&gt;Node21</title>
<path fill="none" stroke="midnightblue" d="M767.39,-280.44C795.27,-271.32 839.6,-256.81 870.65,-246.65"/>
<polygon fill="midnightblue" stroke="midnightblue" points="871.81,-249.95 880.23,-243.52 869.63,-243.3 871.81,-249.95"/>
</g>
<!-- Node22 -->
<g id="node22" class="node">
<title>Node22</title>
<g id="a_node22"><a xlink:href="_math_2_utils_8hpp.html" target="_top" xlink:title=" ">
<polygon fill="white" stroke="black" points="570.25,-224.5 570.25,-243.5 658.25,-243.5 658.25,-224.5 570.25,-224.5"/>
<text text-anchor="middle" x="614.25" y="-231.5" font-family="Helvetica,sans-Serif" font-size="10.00">Math/Utils.hpp</text>
</a>
</g>
</g>
<!-- Node19&#45;&gt;Node22 -->
<g id="edge29" class="edge">
<title>Node19&#45;&gt;Node22</title>
<path fill="none" stroke="midnightblue" d="M721.13,-280.44C700.23,-271.56 667.32,-257.56 643.53,-247.45"/>
<polygon fill="midnightblue" stroke="midnightblue" points="644.85,-244.21 634.28,-243.52 642.11,-250.65 644.85,-244.21"/>
</g>
<!-- Node22&#45;&gt;Node17 -->
<g id="edge30" class="edge">
<title>Node22&#45;&gt;Node17</title>
<path fill="none" stroke="midnightblue" d="M658.47,-225.33C661.44,-224.87 664.39,-224.42 667.25,-224 781.22,-207.36 915.67,-192 986.28,-184.25"/>
<polygon fill="midnightblue" stroke="midnightblue" points="986.66,-187.73 996.23,-183.17 985.9,-180.77 986.66,-187.73"/>
</g>
<!-- Node23&#45;&gt;Node17 -->
<g id="edge34" class="edge">
<title>Node23&#45;&gt;Node17</title>
<path fill="none" stroke="midnightblue" d="M958.86,-336.26C960.01,-323.45 963.14,-299.06 971.25,-280 978.87,-262.07 985.68,-260.36 996.25,-244 1006.49,-228.15 1017.5,-209.65 1025.2,-196.45"/>
<polygon fill="midnightblue" stroke="midnightblue" points="1028.39,-197.93 1030.38,-187.52 1022.34,-194.42 1028.39,-197.93"/>
</g>
<!-- Node23&#45;&gt;Node19 -->
<g id="edge37" class="edge">
<title>Node23&#45;&gt;Node19</title>
<path fill="none" stroke="midnightblue" d="M923.87,-336.44C886.33,-327.1 826.12,-312.12 785.18,-301.93"/>
<polygon fill="midnightblue" stroke="midnightblue" points="786.02,-298.53 775.47,-299.52 784.33,-305.33 786.02,-298.53"/>
</g>
<!-- Node24 -->
<g id="node24" class="node">
<title>Node24</title>
<g id="a_node24"><a xlink:href="_ray_8hpp.html" target="_top" xlink:title=" ">
<polygon fill="white" stroke="black" points="980.75,-280.5 980.75,-299.5 1063.75,-299.5 1063.75,-280.5 980.75,-280.5"/>
<text text-anchor="middle" x="1022.25" y="-287.5" font-family="Helvetica,sans-Serif" font-size="10.00">Math/Ray.hpp</text>
</a>
</g>
</g>
<!-- Node23&#45;&gt;Node24 -->
<g id="edge35" class="edge">
<title>Node23&#45;&gt;Node24</title>
<path fill="none" stroke="midnightblue" d="M968.53,-336.32C978.09,-328.26 992.53,-316.08 1004.03,-306.37"/>
<polygon fill="midnightblue" stroke="midnightblue" points="1006.39,-308.96 1011.78,-299.83 1001.88,-303.61 1006.39,-308.96"/>
</g>
<!-- Node24&#45;&gt;Node17 -->
<g id="edge36" class="edge">
<title>Node24&#45;&gt;Node17</title>
<path fill="none" stroke="midnightblue" d="M1024.04,-280.41C1025.86,-271.39 1028.63,-256.75 1030.25,-244 1032.21,-228.54 1033.51,-210.91 1034.29,-197.92"/>
<polygon fill="midnightblue" stroke="midnightblue" points="1037.79,-198.04 1034.85,-187.86 1030.8,-197.65 1037.79,-198.04"/>
</g>
<!-- Node25&#45;&gt;Node2 -->
<g id="edge41" class="edge">
<title>Node25&#45;&gt;Node2</title>
<path fill="none" stroke="midnightblue" d="M1324.76,-397.98C1360.97,-387.52 1422.45,-369.76 1462.44,-358.21"/>
<polygon fill="midnightblue" stroke="midnightblue" points="1463.49,-361.55 1472.12,-355.41 1461.54,-354.83 1463.49,-361.55"/>
</g>
<!-- Node25&#45;&gt;Node10 -->
<g id="edge43" class="edge">
<title>Node25&#45;&gt;Node10</title>
<path fill="none" stroke="midnightblue" d="M1288.37,-397.8C1274.45,-379.3 1244.25,-334.18 1244.25,-291 1244.25,-291 1244.25,-291 1244.25,-233 1244.25,-155.83 1158.62,-184.55 1083.25,-168 764.07,-97.93 671.53,-164.85 342.26,-131.96"/>
<polygon fill="midnightblue" stroke="midnightblue" points="342.25,-128.44 331.95,-130.9 341.54,-135.4 342.25,-128.44"/>
</g>
<!-- Node25&#45;&gt;Node15 -->
<g id="edge42" class="edge">
<title>Node25&#45;&gt;Node15</title>
<path fill="none" stroke="midnightblue" d="M1263.36,-397.93C1240.7,-390.34 1211.07,-377.11 1192.25,-356 1165.88,-326.43 1155.4,-279.61 1151.46,-253.73"/>
<polygon fill="midnightblue" stroke="midnightblue" points="1154.92,-253.19 1150.1,-243.75 1147.98,-254.13 1154.92,-253.19"/>
</g>
<!-- Node25&#45;&gt;Node17 -->
<g id="edge40" class="edge">
<title>Node25&#45;&gt;Node17</title>
<path fill="none" stroke="midnightblue" d="M1279.86,-397.95C1265.28,-389.14 1243.66,-374.16 1230.25,-356 1192.98,-305.54 1225.95,-266.98 1180.25,-224 1154.38,-199.66 1115.56,-188.48 1084.6,-183.34"/>
<polygon fill="midnightblue" stroke="midnightblue" points="1084.84,-179.84 1074.43,-181.82 1083.8,-186.76 1084.84,-179.84"/>
</g>
<!-- Node26 -->
<g id="node26" class="node">
<title>Node26</title>
<g id="a_node26"><a xlink:title=" ">
<polygon fill="white" stroke="#bfbfbf" points="1522.75,-280.5 1522.75,-299.5 1593.75,-299.5 1593.75,-280.5 1522.75,-280.5"/>
<text text-anchor="middle" x="1558.25" y="-287.5" font-family="Helvetica,sans-Serif" font-size="10.00">glad/glad.h</text>
</a>
</g>
</g>
<!-- Node25&#45;&gt;Node26 -->
<g id="edge39" class="edge">
<title>Node25&#45;&gt;Node26</title>
<path fill="none" stroke="midnightblue" d="M1319.32,-397.9C1345.46,-388.38 1388.29,-372.21 1424.25,-356 1442.01,-347.99 1445.78,-344.61 1463.25,-336 1485.69,-324.93 1511.34,-312.81 1530.33,-303.94"/>
<polygon fill="midnightblue" stroke="midnightblue" points="1532.01,-307.02 1539.6,-299.62 1529.06,-300.68 1532.01,-307.02"/>
</g>
<!-- Node27 -->
<g id="node27" class="node">
<title>Node27</title>
<g id="a_node27"><a xlink:href="_shader_8hpp.html" target="_top" xlink:title=" ">
<polygon fill="white" stroke="black" points="1272.75,-336.5 1272.75,-355.5 1415.75,-355.5 1415.75,-336.5 1272.75,-336.5"/>
<text text-anchor="middle" x="1344.25" y="-343.5" font-family="Helvetica,sans-Serif" font-size="10.00">AssetManager/Shader.hpp</text>
</a>
</g>
</g>
<!-- Node25&#45;&gt;Node27 -->
<g id="edge44" class="edge">
<title>Node25&#45;&gt;Node27</title>
<path fill="none" stroke="midnightblue" d="M1302.27,-397.98C1309.69,-388.96 1321.58,-374.52 1330.82,-363.31"/>
<polygon fill="midnightblue" stroke="midnightblue" points="1333.59,-365.45 1337.24,-355.51 1328.18,-361 1333.59,-365.45"/>
</g>
<!-- Node27&#45;&gt;Node26 -->
<g id="edge45" class="edge">
<title>Node27&#45;&gt;Node26</title>
<path fill="none" stroke="midnightblue" d="M1378.16,-336.44C1415.1,-327.12 1474.3,-312.18 1514.67,-302"/>
<polygon fill="midnightblue" stroke="midnightblue" points="1515.66,-305.36 1524.5,-299.52 1513.95,-298.57 1515.66,-305.36"/>
</g>
<!-- Node28 -->
<g id="node28" class="node">
<title>Node28</title>
<g id="a_node28"><a xlink:href="_asset_8hpp.html" target="_top" xlink:title=" ">
<polygon fill="white" stroke="black" points="1555.75,-224.5 1555.75,-243.5 1692.75,-243.5 1692.75,-224.5 1555.75,-224.5"/>
<text text-anchor="middle" x="1624.25" y="-231.5" font-family="Helvetica,sans-Serif" font-size="10.00">AssetManager/Asset.hpp</text>
</a>
</g>
</g>
<!-- Node27&#45;&gt;Node28 -->
<g id="edge46" class="edge">
<title>Node27&#45;&gt;Node28</title>
<path fill="none" stroke="midnightblue" d="M1366.22,-336.37C1415.6,-316.97 1535.49,-269.87 1592.77,-247.37"/>
<polygon fill="midnightblue" stroke="midnightblue" points="1594.35,-250.51 1602.38,-243.59 1591.79,-243.99 1594.35,-250.51"/>
</g>
<!-- Node29 -->
<g id="node29" class="node">
<title>Node29</title>
<g id="a_node29"><a xlink:title=" ">
<polygon fill="white" stroke="#bfbfbf" points="1638.25,-168.5 1638.25,-187.5 1706.25,-187.5 1706.25,-168.5 1638.25,-168.5"/>
<text text-anchor="middle" x="1672.25" y="-175.5" font-family="Helvetica,sans-Serif" font-size="10.00">filesystem</text>
</a>
</g>
</g>
<!-- Node28&#45;&gt;Node29 -->
<g id="edge47" class="edge">
<title>Node28&#45;&gt;Node29</title>
<path fill="none" stroke="midnightblue" d="M1632.18,-224.08C1639.1,-216.3 1649.32,-204.8 1657.7,-195.37"/>
<polygon fill="midnightblue" stroke="midnightblue" points="1660.44,-197.55 1664.47,-187.75 1655.21,-192.9 1660.44,-197.55"/>
</g>
<!-- Node30&#45;&gt;Node2 -->
<g id="edge49" class="edge">
<title>Node30&#45;&gt;Node2</title>
<path fill="none" stroke="midnightblue" d="M1501.25,-392.4C1501.25,-384.47 1501.25,-374.46 1501.25,-365.86"/>
<polygon fill="midnightblue" stroke="midnightblue" points="1504.75,-365.66 1501.25,-355.66 1497.75,-365.66 1504.75,-365.66"/>
</g>
<!-- Node30&#45;&gt;Node26 -->
<g id="edge50" class="edge">
<title>Node30&#45;&gt;Node26</title>
<path fill="none" stroke="midnightblue" d="M1514.06,-392.41C1522.26,-382.76 1532.56,-369.34 1539.25,-356 1546.66,-341.22 1551.66,-323.06 1554.67,-309.7"/>
<polygon fill="midnightblue" stroke="midnightblue" points="1558.12,-310.29 1556.73,-299.78 1551.27,-308.86 1558.12,-310.29"/>
</g>
<!-- Node31 -->
<g id="node31" class="node">
<title>Node31</title>
<g id="a_node31"><a xlink:href="_texture_8hpp.html" target="_top" xlink:title=" ">
<polygon fill="white" stroke="black" points="1624.25,-336.5 1624.25,-355.5 1750.25,-355.5 1750.25,-336.5 1624.25,-336.5"/>
<text text-anchor="middle" x="1687.25" y="-343.5" font-family="Helvetica,sans-Serif" font-size="10.00">Rendering/Texture.hpp</text>
</a>
</g>
</g>
<!-- Node30&#45;&gt;Node31 -->
<g id="edge51" class="edge">
<title>Node30&#45;&gt;Node31</title>
<path fill="none" stroke="midnightblue" d="M1545.33,-392.4C1577.47,-382.12 1620.51,-368.35 1650.73,-358.68"/>
<polygon fill="midnightblue" stroke="midnightblue" points="1652,-361.95 1660.46,-355.57 1649.87,-355.28 1652,-361.95"/>
</g>
<!-- Node31&#45;&gt;Node26 -->
<g id="edge52" class="edge">
<title>Node31&#45;&gt;Node26</title>
<path fill="none" stroke="midnightblue" d="M1666.81,-336.44C1645.58,-327.56 1612.15,-313.56 1587.99,-303.45"/>
<polygon fill="midnightblue" stroke="midnightblue" points="1589.17,-300.15 1578.59,-299.52 1586.47,-306.61 1589.17,-300.15"/>
</g>
<!-- Node32 -->
<g id="node32" class="node">
<title>Node32</title>
<g id="a_node32"><a xlink:href="_image_8hpp.html" target="_top" xlink:title=" ">
<polygon fill="white" stroke="black" points="1650.75,-280.5 1650.75,-299.5 1791.75,-299.5 1791.75,-280.5 1650.75,-280.5"/>
<text text-anchor="middle" x="1721.25" y="-287.5" font-family="Helvetica,sans-Serif" font-size="10.00">AssetManager/Image.hpp</text>
</a>
</g>
</g>
<!-- Node31&#45;&gt;Node32 -->
<g id="edge53" class="edge">
<title>Node31&#45;&gt;Node32</title>
<path fill="none" stroke="midnightblue" d="M1692.86,-336.08C1697.62,-328.53 1704.57,-317.49 1710.4,-308.23"/>
<polygon fill="midnightblue" stroke="midnightblue" points="1713.37,-310.08 1715.74,-299.75 1707.45,-306.35 1713.37,-310.08"/>
</g>
<!-- Node32&#45;&gt;Node28 -->
<g id="edge55" class="edge">
<title>Node32&#45;&gt;Node28</title>
<path fill="none" stroke="midnightblue" d="M1705.67,-280.32C1690.25,-271.74 1666.44,-258.49 1648.54,-248.52"/>
<polygon fill="midnightblue" stroke="midnightblue" points="1650.24,-245.46 1639.8,-243.65 1646.83,-251.58 1650.24,-245.46"/>
</g>
<!-- Node32&#45;&gt;Node29 -->
<g id="edge54" class="edge">
<title>Node32&#45;&gt;Node29</title>
<path fill="none" stroke="midnightblue" d="M1719.38,-280.31C1716.46,-267.58 1710.21,-243.27 1701.25,-224 1696.69,-214.2 1690.29,-204.03 1684.67,-195.83"/>
<polygon fill="midnightblue" stroke="midnightblue" points="1687.43,-193.67 1678.78,-187.55 1681.72,-197.73 1687.43,-193.67"/>
</g>
<!-- Node33&#45;&gt;Node2 -->
<g id="edge57" class="edge">
<title>Node33&#45;&gt;Node2</title>
<path fill="none" stroke="midnightblue" d="M1624.86,-392.4C1597.31,-382.28 1560.58,-368.79 1534.33,-359.15"/>
<polygon fill="midnightblue" stroke="midnightblue" points="1535.42,-355.82 1524.82,-355.66 1533,-362.39 1535.42,-355.82"/>
</g>
<!-- Node33&#45;&gt;Node26 -->
<g id="edge58" class="edge">
<title>Node33&#45;&gt;Node26</title>
<path fill="none" stroke="midnightblue" d="M1649.65,-392.49C1639.95,-382.44 1626.67,-368.51 1615.25,-356 1600.31,-339.63 1583.64,-320.52 1572.21,-307.28"/>
<polygon fill="midnightblue" stroke="midnightblue" points="1574.7,-304.81 1565.52,-299.51 1569.39,-309.37 1574.7,-304.81"/>
</g>
<!-- Node33&#45;&gt;Node31 -->
<g id="edge59" class="edge">
<title>Node33&#45;&gt;Node31</title>
<path fill="none" stroke="midnightblue" d="M1668.94,-392.4C1672.25,-384.2 1676.45,-373.78 1679.99,-364.99"/>
<polygon fill="midnightblue" stroke="midnightblue" points="1683.26,-366.24 1683.76,-355.66 1676.77,-363.62 1683.26,-366.24"/>
</g>
<!-- Node34&#45;&gt;Node15 -->
<g id="edge62" class="edge">
<title>Node34&#45;&gt;Node15</title>
<path fill="none" stroke="midnightblue" d="M1783.5,-336.48C1743.68,-329.18 1688.08,-317.11 1641.25,-300 1622.95,-293.31 1620.94,-285.5 1602.25,-280 1523.02,-256.67 1271.22,-241.44 1181.43,-236.63"/>
<polygon fill="midnightblue" stroke="midnightblue" points="1181.48,-233.13 1171.31,-236.1 1181.11,-240.12 1181.48,-233.13"/>
</g>
<!-- Node34&#45;&gt;Node26 -->
<g id="edge61" class="edge">
<title>Node34&#45;&gt;Node26</title>
<path fill="none" stroke="midnightblue" d="M1792.2,-336.44C1740.81,-326.46 1656.27,-310.04 1604.12,-299.91"/>
<polygon fill="midnightblue" stroke="midnightblue" points="1604.62,-296.44 1594.14,-297.97 1603.29,-303.31 1604.62,-296.44"/>
</g>
<!-- Node34&#45;&gt;Node32 -->
<g id="edge64" class="edge">
<title>Node34&#45;&gt;Node32</title>
<path fill="none" stroke="midnightblue" d="M1818.03,-336.44C1799.35,-327.68 1770.09,-313.94 1748.63,-303.86"/>
<polygon fill="midnightblue" stroke="midnightblue" points="1749.93,-300.6 1739.39,-299.52 1746.95,-306.93 1749.93,-300.6"/>
</g>
<!-- Node35 -->
<g id="node35" class="node">
<title>Node35</title>
<g id="a_node35"><a xlink:title=" ">
<polygon fill="white" stroke="#bfbfbf" points="1812.75,-280.5 1812.75,-299.5 1859.75,-299.5 1859.75,-280.5 1812.75,-280.5"/>
<text text-anchor="middle" x="1836.25" y="-287.5" font-family="Helvetica,sans-Serif" font-size="10.00">vector</text>
</a>
</g>
</g>
<!-- Node34&#45;&gt;Node35 -->
<g id="edge63" class="edge">
<title>Node34&#45;&gt;Node35</title>
<path fill="none" stroke="midnightblue" d="M1836.25,-336.08C1836.25,-329.01 1836.25,-318.86 1836.25,-309.99"/>
<polygon fill="midnightblue" stroke="midnightblue" points="1839.75,-309.75 1836.25,-299.75 1832.75,-309.75 1839.75,-309.75"/>
</g>
</g>
</svg>
