<?xml version="1.0" encoding="UTF-8" standalone="no"?>
<!DOCTYPE svg PUBLIC "-//W3C//DTD SVG 1.1//EN"
 "http://www.w3.org/Graphics/SVG/1.1/DTD/svg11.dtd">
<!-- Generated by graphviz version 2.43.0 (0)
 -->
<!-- Title: src/Rendering/Utils.hpp Pages: 1 -->
<svg width="717pt" height="324pt"
 viewBox="0.00 0.00 716.87 324.00" xmlns="http://www.w3.org/2000/svg" xmlns:xlink="http://www.w3.org/1999/xlink">
<g id="graph0" class="graph" transform="scale(1 1) rotate(0) translate(4 320)">
<title>src/Rendering/Utils.hpp</title>
<!-- Node1 -->
<g id="Node000001" class="node">
<title>Node1</title>
<g id="a_Node000001"><a xlink:title=" ">
<polygon fill="#999999" stroke="#666666" points="376.16,-316 246.16,-316 246.16,-297 376.16,-297 376.16,-316"/>
<text text-anchor="middle" x="311.16" y="-304" font-family="Helvetica,sans-Serif" font-size="10.00">src/Rendering/Utils.hpp</text>
</a>
</g>
</g>
<!-- Node2 -->
<g id="Node000002" class="node">
<title>Node2</title>
<g id="a_Node000002"><a xlink:title=" ">
<polygon fill="#e0e0e0" stroke="#999999" points="404.66,-140 333.66,-140 333.66,-121 404.66,-121 404.66,-140"/>
<text text-anchor="middle" x="369.16" y="-128" font-family="Helvetica,sans-Serif" font-size="10.00">glad/glad.h</text>
</a>
</g>
</g>
<!-- Node1&#45;&gt;Node2 -->
<g id="edge1_Node000001_Node000002" class="edge">
<title>Node1&#45;&gt;Node2</title>
<g id="a_edge1_Node000001_Node000002"><a xlink:title=" ">
<path fill="none" stroke="#63b8ff" d="M246.11,-299.82C139.27,-288.11 -54.88,-255.4 15.16,-176 35.26,-153.22 232.46,-139.22 323.51,-133.92"/>
<polygon fill="#63b8ff" stroke="#63b8ff" points="323.76,-137.41 333.55,-133.35 323.36,-130.42 323.76,-137.41"/>
</a>
</g>
</g>
<!-- Node3 -->
<g id="Node000003" class="node">
<title>Node3</title>
<g id="a_Node000003"><a xlink:href="_shader_program_8hpp.html" target="_top" xlink:title=" ">
<polygon fill="white" stroke="#666666" points="393.66,-255.5 228.66,-255.5 228.66,-236.5 393.66,-236.5 393.66,-255.5"/>
<text text-anchor="middle" x="311.16" y="-243.5" font-family="Helvetica,sans-Serif" font-size="10.00">Rendering/ShaderProgram.hpp</text>
</a>
</g>
</g>
<!-- Node1&#45;&gt;Node3 -->
<g id="edge2_Node000001_Node000003" class="edge">
<title>Node1&#45;&gt;Node3</title>
<g id="a_edge2_Node000001_Node000003"><a xlink:title=" ">
<path fill="none" stroke="#63b8ff" d="M311.16,-296.87C311.16,-288.75 311.16,-276.31 311.16,-265.89"/>
<polygon fill="#63b8ff" stroke="#63b8ff" points="314.66,-265.67 311.16,-255.67 307.66,-265.67 314.66,-265.67"/>
</a>
</g>
</g>
<!-- Node11 -->
<g id="Node000011" class="node">
<title>Node11</title>
<g id="a_Node000011"><a xlink:href="_scene_frame_buffer_8hpp.html" target="_top" xlink:title=" ">
<polygon fill="white" stroke="#666666" points="588.16,-261 454.16,-261 454.16,-231 588.16,-231 588.16,-261"/>
<text text-anchor="start" x="462.16" y="-249" font-family="Helvetica,sans-Serif" font-size="10.00">Rendering/FrameBuffers</text>
<text text-anchor="middle" x="521.16" y="-238" font-family="Helvetica,sans-Serif" font-size="10.00">/SceneFrameBuffer.hpp</text>
</a>
</g>
</g>
<!-- Node1&#45;&gt;Node11 -->
<g id="edge12_Node000001_Node000011" class="edge">
<title>Node1&#45;&gt;Node11</title>
<g id="a_edge12_Node000001_Node000011"><a xlink:title=" ">
<path fill="none" stroke="#63b8ff" d="M341.7,-296.99C372.84,-288.32 422,-274.62 460.99,-263.76"/>
<polygon fill="#63b8ff" stroke="#63b8ff" points="461.98,-267.12 470.67,-261.06 460.1,-260.38 461.98,-267.12"/>
</a>
</g>
</g>
<!-- Node3&#45;&gt;Node2 -->
<g id="edge3_Node000003_Node000002" class="edge">
<title>Node3&#45;&gt;Node2</title>
<g id="a_edge3_Node000003_Node000002"><a xlink:title=" ">
<path fill="none" stroke="#63b8ff" d="M319.44,-236.48C328.2,-227.05 341.88,-211.04 350.16,-195 357.51,-180.76 362.48,-163.23 365.49,-150.2"/>
<polygon fill="#63b8ff" stroke="#63b8ff" points="368.98,-150.61 367.64,-140.1 362.14,-149.15 368.98,-150.61"/>
</a>
</g>
</g>
<!-- Node4 -->
<g id="Node000004" class="node">
<title>Node4</title>
<g id="a_Node000004"><a xlink:title=" ">
<polygon fill="#e0e0e0" stroke="#999999" points="661.16,-140 583.16,-140 583.16,-121 661.16,-121 661.16,-140"/>
<text text-anchor="middle" x="622.16" y="-128" font-family="Helvetica,sans-Serif" font-size="10.00">glm/glm.hpp</text>
</a>
</g>
</g>
<!-- Node3&#45;&gt;Node4 -->
<g id="edge4_Node000003_Node000004" class="edge">
<title>Node3&#45;&gt;Node4</title>
<g id="a_edge4_Node000003_Node000004"><a xlink:title=" ">
<path fill="none" stroke="#63b8ff" d="M322.59,-236.43C342.56,-221.88 385.54,-192.31 426.16,-176 452.39,-165.47 523.89,-150.45 572.88,-140.84"/>
<polygon fill="#63b8ff" stroke="#63b8ff" points="573.82,-144.22 582.97,-138.87 572.48,-137.35 573.82,-144.22"/>
</a>
</g>
</g>
<!-- Node5 -->
<g id="Node000005" class="node">
<title>Node5</title>
<g id="a_Node000005"><a xlink:title=" ">
<polygon fill="#e0e0e0" stroke="#999999" points="493.16,-195 435.16,-195 435.16,-176 493.16,-176 493.16,-195"/>
<text text-anchor="middle" x="464.16" y="-183" font-family="Helvetica,sans-Serif" font-size="10.00">memory</text>
</a>
</g>
</g>
<!-- Node3&#45;&gt;Node5 -->
<g id="edge5_Node000003_Node000005" class="edge">
<title>Node3&#45;&gt;Node5</title>
<g id="a_edge5_Node000003_Node000005"><a xlink:title=" ">
<path fill="none" stroke="#63b8ff" d="M333.41,-236.49C359.47,-226.53 402.84,-209.95 432.43,-198.63"/>
<polygon fill="#63b8ff" stroke="#63b8ff" points="433.8,-201.86 441.89,-195.02 431.3,-195.32 433.8,-201.86"/>
</a>
</g>
</g>
<!-- Node6 -->
<g id="Node000006" class="node">
<title>Node6</title>
<g id="a_Node000006"><a xlink:title=" ">
<polygon fill="#e0e0e0" stroke="#999999" points="68.16,-195 24.16,-195 24.16,-176 68.16,-176 68.16,-195"/>
<text text-anchor="middle" x="46.16" y="-183" font-family="Helvetica,sans-Serif" font-size="10.00">string</text>
</a>
</g>
</g>
<!-- Node3&#45;&gt;Node6 -->
<g id="edge6_Node000003_Node000006" class="edge">
<title>Node3&#45;&gt;Node6</title>
<g id="a_edge6_Node000003_Node000006"><a xlink:title=" ">
<path fill="none" stroke="#63b8ff" d="M267.43,-236.43C222.41,-227.44 150.02,-212.5 78.55,-195.23"/>
<polygon fill="#63b8ff" stroke="#63b8ff" points="79.02,-191.74 68.47,-192.78 77.36,-198.55 79.02,-191.74"/>
</a>
</g>
</g>
<!-- Node7 -->
<g id="Node000007" class="node">
<title>Node7</title>
<g id="a_Node000007"><a xlink:title=" ">
<polygon fill="#e0e0e0" stroke="#999999" points="179.66,-195 86.66,-195 86.66,-176 179.66,-176 179.66,-195"/>
<text text-anchor="middle" x="133.16" y="-183" font-family="Helvetica,sans-Serif" font-size="10.00">unordered_map</text>
</a>
</g>
</g>
<!-- Node3&#45;&gt;Node7 -->
<g id="edge7_Node000003_Node000007" class="edge">
<title>Node3&#45;&gt;Node7</title>
<g id="a_edge7_Node000003_Node000007"><a xlink:title=" ">
<path fill="none" stroke="#63b8ff" d="M285.28,-236.49C254.56,-226.4 203.18,-209.51 168.74,-198.19"/>
<polygon fill="#63b8ff" stroke="#63b8ff" points="169.67,-194.81 159.07,-195.02 167.48,-201.46 169.67,-194.81"/>
</a>
</g>
</g>
<!-- Node8 -->
<g id="Node000008" class="node">
<title>Node8</title>
<g id="a_Node000008"><a xlink:href="_shader_8hpp.html" target="_top" xlink:title=" ">
<polygon fill="white" stroke="#666666" points="340.66,-195 197.66,-195 197.66,-176 340.66,-176 340.66,-195"/>
<text text-anchor="middle" x="269.16" y="-183" font-family="Helvetica,sans-Serif" font-size="10.00">AssetManager/Shader.hpp</text>
</a>
</g>
</g>
<!-- Node3&#45;&gt;Node8 -->
<g id="edge8_Node000003_Node000008" class="edge">
<title>Node3&#45;&gt;Node8</title>
<g id="a_edge8_Node000003_Node000008"><a xlink:title=" ">
<path fill="none" stroke="#63b8ff" d="M304.96,-236.37C298.76,-227.73 289.05,-214.2 281.3,-203.42"/>
<polygon fill="#63b8ff" stroke="#63b8ff" points="284.06,-201.25 275.38,-195.17 278.37,-205.33 284.06,-201.25"/>
</a>
</g>
</g>
<!-- Node8&#45;&gt;Node2 -->
<g id="edge11_Node000008_Node000002" class="edge">
<title>Node8&#45;&gt;Node2</title>
<g id="a_edge11_Node000008_Node000002"><a xlink:title=" ">
<path fill="none" stroke="#63b8ff" d="M285.23,-175.98C301.02,-167.61 325.38,-154.7 343.79,-144.95"/>
<polygon fill="#63b8ff" stroke="#63b8ff" points="345.6,-147.95 352.8,-140.17 342.33,-141.76 345.6,-147.95"/>
</a>
</g>
</g>
<!-- Node9 -->
<g id="Node000009" class="node">
<title>Node9</title>
<g id="a_Node000009"><a xlink:href="_path_constructible_asset_8hpp.html" target="_top" xlink:title=" ">
<polygon fill="white" stroke="#666666" points="465.66,-85 290.66,-85 290.66,-55 465.66,-55 465.66,-85"/>
<text text-anchor="start" x="298.66" y="-73" font-family="Helvetica,sans-Serif" font-size="10.00">AssetManager/PathConstructible</text>
<text text-anchor="middle" x="378.16" y="-62" font-family="Helvetica,sans-Serif" font-size="10.00">Asset.hpp</text>
</a>
</g>
</g>
<!-- Node8&#45;&gt;Node9 -->
<g id="edge9_Node000008_Node000009" class="edge">
<title>Node8&#45;&gt;Node9</title>
<g id="a_edge9_Node000008_Node000009"><a xlink:title=" ">
<path fill="none" stroke="#63b8ff" d="M276.34,-175.6C286.57,-163.07 306.11,-139.66 324.16,-121 333.6,-111.24 344.5,-100.97 354.03,-92.29"/>
<polygon fill="#63b8ff" stroke="#63b8ff" points="356.57,-94.72 361.65,-85.43 351.88,-89.52 356.57,-94.72"/>
</a>
</g>
</g>
<!-- Node10 -->
<g id="Node000010" class="node">
<title>Node10</title>
<g id="a_Node000010"><a xlink:title=" ">
<polygon fill="#e0e0e0" stroke="#999999" points="470.16,-19 402.16,-19 402.16,0 470.16,0 470.16,-19"/>
<text text-anchor="middle" x="436.16" y="-7" font-family="Helvetica,sans-Serif" font-size="10.00">filesystem</text>
</a>
</g>
</g>
<!-- Node9&#45;&gt;Node10 -->
<g id="edge10_Node000009_Node000010" class="edge">
<title>Node9&#45;&gt;Node10</title>
<g id="a_edge10_Node000009_Node000010"><a xlink:title=" ">
<path fill="none" stroke="#63b8ff" d="M392.2,-54.84C400.71,-46.26 411.57,-35.3 420.38,-26.42"/>
<polygon fill="#63b8ff" stroke="#63b8ff" points="422.91,-28.83 427.47,-19.27 417.94,-23.9 422.91,-28.83"/>
</a>
</g>
</g>
<!-- Node11&#45;&gt;Node2 -->
<g id="edge14_Node000011_Node000002" class="edge">
<title>Node11&#45;&gt;Node2</title>
<g id="a_edge14_Node000011_Node000002"><a xlink:title=" ">
<path fill="none" stroke="#63b8ff" d="M521.03,-230.96C520.12,-215.54 516.34,-190.97 502.16,-176 489.94,-163.1 448.45,-150.45 415.02,-141.96"/>
<polygon fill="#63b8ff" stroke="#63b8ff" points="415.49,-138.47 404.94,-139.46 413.81,-145.26 415.49,-138.47"/>
</a>
</g>
</g>
<!-- Node11&#45;&gt;Node4 -->
<g id="edge15_Node000011_Node000004" class="edge">
<title>Node11&#45;&gt;Node4</title>
<g id="a_edge15_Node000011_Node000004"><a xlink:title=" ">
<path fill="none" stroke="#63b8ff" d="M588.3,-235.32C634.44,-227.13 689.87,-213.72 704.16,-195 720.8,-173.21 688.63,-154.87 659.82,-143.59"/>
<polygon fill="#63b8ff" stroke="#63b8ff" points="660.86,-140.24 650.26,-140.04 658.42,-146.8 660.86,-140.24"/>
</a>
</g>
</g>
<!-- Node11&#45;&gt;Node5 -->
<g id="edge13_Node000011_Node000005" class="edge">
<title>Node11&#45;&gt;Node5</title>
<g id="a_edge13_Node000011_Node000005"><a xlink:title=" ">
<path fill="none" stroke="#63b8ff" d="M507.36,-230.84C499.09,-222.35 488.54,-211.52 479.93,-202.69"/>
<polygon fill="#63b8ff" stroke="#63b8ff" points="482.19,-199.99 472.7,-195.27 477.17,-204.87 482.19,-199.99"/>
</a>
</g>
</g>
<!-- Node12 -->
<g id="Node000012" class="node">
<title>Node12</title>
<g id="a_Node000012"><a xlink:href="_texture_8hpp.html" target="_top" xlink:title=" ">
<polygon fill="white" stroke="#666666" points="695.16,-195 549.16,-195 549.16,-176 695.16,-176 695.16,-195"/>
<text text-anchor="middle" x="622.16" y="-183" font-family="Helvetica,sans-Serif" font-size="10.00">AssetManager/Texture.hpp</text>
</a>
</g>
</g>
<!-- Node11&#45;&gt;Node12 -->
<g id="edge16_Node000011_Node000012" class="edge">
<title>Node11&#45;&gt;Node12</title>
<g id="a_edge16_Node000011_Node000012"><a xlink:title=" ">
<path fill="none" stroke="#63b8ff" d="M545.35,-230.99C561.45,-221.66 582.5,-209.47 598.49,-200.21"/>
<polygon fill="#63b8ff" stroke="#63b8ff" points="600.35,-203.18 607.24,-195.14 596.84,-197.12 600.35,-203.18"/>
</a>
</g>
</g>
<!-- Node12&#45;&gt;Node2 -->
<g id="edge17_Node000012_Node000002" class="edge">
<title>Node12&#45;&gt;Node2</title>
<g id="a_edge17_Node000012_Node000002"><a xlink:title=" ">
<path fill="none" stroke="#63b8ff" d="M581.51,-175.98C535.96,-166.44 462.3,-151.01 414.81,-141.06"/>
<polygon fill="#63b8ff" stroke="#63b8ff" points="415.31,-137.59 404.8,-138.97 413.87,-144.44 415.31,-137.59"/>
</a>
</g>
</g>
<!-- Node12&#45;&gt;Node4 -->
<g id="edge18_Node000012_Node000004" class="edge">
<title>Node12&#45;&gt;Node4</title>
<g id="a_edge18_Node000012_Node000004"><a xlink:title=" ">
<path fill="none" stroke="#63b8ff" d="M622.16,-175.75C622.16,-168.8 622.16,-158.85 622.16,-150.13"/>
<polygon fill="#63b8ff" stroke="#63b8ff" points="625.66,-150.09 622.16,-140.09 618.66,-150.09 625.66,-150.09"/>
</a>
</g>
</g>
<!-- Node13 -->
<g id="Node000013" class="node">
<title>Node13</title>
<g id="a_Node000013"><a xlink:href="_image_8hpp.html" target="_top" xlink:title=" ">
<polygon fill="white" stroke="#666666" points="564.66,-140 423.66,-140 423.66,-121 564.66,-121 564.66,-140"/>
<text text-anchor="middle" x="494.16" y="-128" font-family="Helvetica,sans-Serif" font-size="10.00">AssetManager/Image.hpp</text>
</a>
</g>
</g>
<!-- Node12&#45;&gt;Node13 -->
<g id="edge19_Node000012_Node000013" class="edge">
<title>Node12&#45;&gt;Node13</title>
<g id="a_edge19_Node000012_Node000013"><a xlink:title=" ">
<path fill="none" stroke="#63b8ff" d="M601.59,-175.98C580.73,-167.34 548.19,-153.87 524.39,-144.02"/>
<polygon fill="#63b8ff" stroke="#63b8ff" points="525.68,-140.76 515.1,-140.17 523,-147.23 525.68,-140.76"/>
</a>
</g>
</g>
<!-- Node13&#45;&gt;Node9 -->
<g id="edge21_Node000013_Node000009" class="edge">
<title>Node13&#45;&gt;Node9</title>
<g id="a_edge21_Node000013_Node000009"><a xlink:title=" ">
<path fill="none" stroke="#63b8ff" d="M477.04,-120.87C460.87,-112.71 436.06,-100.2 415.34,-89.75"/>
<polygon fill="#63b8ff" stroke="#63b8ff" points="416.65,-86.49 406.15,-85.11 413.5,-92.74 416.65,-86.49"/>
</a>
</g>
</g>
<!-- Node13&#45;&gt;Node10 -->
<g id="edge20_Node000013_Node000010" class="edge">
<title>Node13&#45;&gt;Node10</title>
<g id="a_edge20_Node000013_Node000010"><a xlink:title=" ">
<path fill="none" stroke="#63b8ff" d="M493.27,-120.76C491.52,-106.34 486.73,-76.97 475.16,-55 469.56,-44.37 460.93,-34.16 453.21,-26.21"/>
<polygon fill="#63b8ff" stroke="#63b8ff" points="455.54,-23.58 445.95,-19.07 450.63,-28.58 455.54,-23.58"/>
</a>
</g>
</g>
</g>
</svg>
