<?xml version="1.0" encoding="UTF-8" standalone="no"?>
<!DOCTYPE svg PUBLIC "-//W3C//DTD SVG 1.1//EN"
 "http://www.w3.org/Graphics/SVG/1.1/DTD/svg11.dtd">
<!-- Generated by graphviz version 2.43.0 (0)
 -->
<!-- Title: src/Systems/RenderingSystem.cpp Pages: 1 -->
<svg width="2505pt" height="375pt"
 viewBox="0.00 0.00 2504.50 375.00" xmlns="http://www.w3.org/2000/svg" xmlns:xlink="http://www.w3.org/1999/xlink">
<g id="graph0" class="graph" transform="scale(1 1) rotate(0) translate(4 371)">
<title>src/Systems/RenderingSystem.cpp</title>
<polygon fill="white" stroke="transparent" points="-4,4 -4,-371 2500.5,-371 2500.5,4 -4,4"/>
<!-- Node1 -->
<g id="node1" class="node">
<title>Node1</title>
<g id="a_node1"><a xlink:title=" ">
<polygon fill="#bfbfbf" stroke="black" points="1489.5,-347.5 1489.5,-366.5 1674.5,-366.5 1674.5,-347.5 1489.5,-347.5"/>
<text text-anchor="middle" x="1582" y="-354.5" font-family="Helvetica,sans-Serif" font-size="10.00">src/Systems/RenderingSystem.cpp</text>
</a>
</g>
</g>
<!-- Node2 -->
<g id="node2" class="node">
<title>Node2</title>
<g id="a_node2"><a xlink:href="_rendering_system_8hpp.html" target="_top" xlink:title=" ">
<polygon fill="white" stroke="black" points="732.5,-291.5 732.5,-310.5 901.5,-310.5 901.5,-291.5 732.5,-291.5"/>
<text text-anchor="middle" x="817" y="-298.5" font-family="Helvetica,sans-Serif" font-size="10.00">Systems/RenderingSystem.hpp</text>
</a>
</g>
</g>
<!-- Node1&#45;&gt;Node2 -->
<g id="edge1" class="edge">
<title>Node1&#45;&gt;Node2</title>
<path fill="none" stroke="midnightblue" d="M1489.41,-350.63C1361.94,-343.04 1124.96,-328.27 911.68,-311.03"/>
<polygon fill="midnightblue" stroke="midnightblue" points="911.79,-307.53 901.54,-310.21 911.22,-314.51 911.79,-307.53"/>
</g>
<!-- Node24 -->
<g id="node24" class="node">
<title>Node24</title>
<g id="a_node24"><a xlink:href="_asset_manager_8hpp.html" target="_top" xlink:title=" ">
<polygon fill="white" stroke="black" points="267.5,-230 267.5,-249 446.5,-249 446.5,-230 267.5,-230"/>
<text text-anchor="middle" x="357" y="-237" font-family="Helvetica,sans-Serif" font-size="10.00">AssetManager/AssetManager.hpp</text>
</a>
</g>
</g>
<!-- Node1&#45;&gt;Node24 -->
<g id="edge34" class="edge">
<title>Node1&#45;&gt;Node24</title>
<path fill="none" stroke="midnightblue" d="M1489.27,-355.3C1331.52,-353.19 1001.08,-344.72 724,-311 607.3,-296.8 471.94,-267.38 402.8,-251.4"/>
<polygon fill="midnightblue" stroke="midnightblue" points="403.22,-247.91 392.69,-249.05 401.63,-254.73 403.22,-247.91"/>
</g>
<!-- Node25 -->
<g id="node25" class="node">
<title>Node25</title>
<g id="a_node25"><a xlink:href="_utils_8hpp.html" target="_top" xlink:title=" ">
<polygon fill="white" stroke="black" points="919.5,-291.5 919.5,-310.5 1032.5,-310.5 1032.5,-291.5 919.5,-291.5"/>
<text text-anchor="middle" x="976" y="-298.5" font-family="Helvetica,sans-Serif" font-size="10.00">Rendering/Utils.hpp</text>
</a>
</g>
</g>
<!-- Node1&#45;&gt;Node25 -->
<g id="edge38" class="edge">
<title>Node1&#45;&gt;Node25</title>
<path fill="none" stroke="midnightblue" d="M1489.3,-347.74C1366.12,-336.76 1151.44,-317.63 1042.91,-307.96"/>
<polygon fill="midnightblue" stroke="midnightblue" points="1043.01,-304.46 1032.74,-307.06 1042.39,-311.43 1043.01,-304.46"/>
</g>
<!-- Node26 -->
<g id="node26" class="node">
<title>Node26</title>
<g id="a_node26"><a xlink:href="_transform_component_8hpp.html" target="_top" xlink:title=" ">
<polygon fill="white" stroke="black" points="2162.5,-230 2162.5,-249 2369.5,-249 2369.5,-230 2162.5,-230"/>
<text text-anchor="middle" x="2266" y="-237" font-family="Helvetica,sans-Serif" font-size="10.00">Components/TransformComponent.hpp</text>
</a>
</g>
</g>
<!-- Node1&#45;&gt;Node26 -->
<g id="edge42" class="edge">
<title>Node1&#45;&gt;Node26</title>
<path fill="none" stroke="midnightblue" d="M1635.19,-347.48C1690.79,-338.54 1780.56,-324 1858,-311 1982.49,-290.1 2128.18,-264.7 2207.4,-250.8"/>
<polygon fill="midnightblue" stroke="midnightblue" points="2208.42,-254.18 2217.66,-249 2207.21,-247.29 2208.42,-254.18"/>
</g>
<!-- Node30 -->
<g id="node30" class="node">
<title>Node30</title>
<g id="a_node30"><a xlink:href="_model_component_8hpp.html" target="_top" xlink:title=" ">
<polygon fill="white" stroke="black" points="1593,-291.5 1593,-310.5 1781,-310.5 1781,-291.5 1593,-291.5"/>
<text text-anchor="middle" x="1687" y="-298.5" font-family="Helvetica,sans-Serif" font-size="10.00">Components/ModelComponent.hpp</text>
</a>
</g>
</g>
<!-- Node1&#45;&gt;Node30 -->
<g id="edge49" class="edge">
<title>Node1&#45;&gt;Node30</title>
<path fill="none" stroke="midnightblue" d="M1598.87,-347.32C1615.71,-338.66 1641.81,-325.24 1661.24,-315.25"/>
<polygon fill="midnightblue" stroke="midnightblue" points="1662.88,-318.34 1670.17,-310.65 1659.68,-312.12 1662.88,-318.34"/>
</g>
<!-- Node36 -->
<g id="node36" class="node">
<title>Node36</title>
<g id="a_node36"><a xlink:href="_wireframe_component_8hpp.html" target="_top" xlink:title=" ">
<polygon fill="white" stroke="black" points="1140,-291.5 1140,-310.5 1350,-310.5 1350,-291.5 1140,-291.5"/>
<text text-anchor="middle" x="1245" y="-298.5" font-family="Helvetica,sans-Serif" font-size="10.00">Components/WireframeComponent.hpp</text>
</a>
</g>
</g>
<!-- Node1&#45;&gt;Node36 -->
<g id="edge66" class="edge">
<title>Node1&#45;&gt;Node36</title>
<path fill="none" stroke="midnightblue" d="M1528.6,-347.44C1468.7,-337.85 1371.63,-322.29 1308.05,-312.1"/>
<polygon fill="midnightblue" stroke="midnightblue" points="1308.58,-308.64 1298.15,-310.52 1307.47,-315.55 1308.58,-308.64"/>
</g>
<!-- Node38 -->
<g id="node38" class="node">
<title>Node38</title>
<g id="a_node38"><a xlink:href="_camera_component_8hpp.html" target="_top" xlink:title=" ">
<polygon fill="white" stroke="black" points="2299.5,-291.5 2299.5,-310.5 2496.5,-310.5 2496.5,-291.5 2299.5,-291.5"/>
<text text-anchor="middle" x="2398" y="-298.5" font-family="Helvetica,sans-Serif" font-size="10.00">Components/CameraComponent.hpp</text>
</a>
</g>
</g>
<!-- Node1&#45;&gt;Node38 -->
<g id="edge75" class="edge">
<title>Node1&#45;&gt;Node38</title>
<path fill="none" stroke="midnightblue" d="M1674.81,-349.86C1826.56,-339.82 2127.04,-319.93 2288.8,-309.23"/>
<polygon fill="midnightblue" stroke="midnightblue" points="2289.5,-312.69 2299.25,-308.53 2289.04,-305.7 2289.5,-312.69"/>
</g>
<!-- Node39 -->
<g id="node39" class="node">
<title>Node39</title>
<g id="a_node39"><a xlink:href="_point_light_component_8hpp.html" target="_top" xlink:title=" ">
<polygon fill="white" stroke="black" points="1722.5,-230 1722.5,-249 1929.5,-249 1929.5,-230 1722.5,-230"/>
<text text-anchor="middle" x="1826" y="-237" font-family="Helvetica,sans-Serif" font-size="10.00">Components/PointLightComponent.hpp</text>
</a>
</g>
</g>
<!-- Node1&#45;&gt;Node39 -->
<g id="edge80" class="edge">
<title>Node1&#45;&gt;Node39</title>
<path fill="none" stroke="midnightblue" d="M1651.31,-347.48C1703.09,-339.94 1768.48,-327.56 1790,-311 1806.64,-298.2 1816.24,-275.57 1821.27,-259.41"/>
<polygon fill="midnightblue" stroke="midnightblue" points="1824.74,-260.02 1824.06,-249.44 1818,-258.13 1824.74,-260.02"/>
</g>
<!-- Node40 -->
<g id="node40" class="node">
<title>Node40</title>
<g id="a_node40"><a xlink:href="_skybox_component_8hpp.html" target="_top" xlink:title=" ">
<polygon fill="white" stroke="black" points="1381,-291.5 1381,-310.5 1575,-310.5 1575,-291.5 1381,-291.5"/>
<text text-anchor="middle" x="1478" y="-298.5" font-family="Helvetica,sans-Serif" font-size="10.00">Components/SkyboxComponent.hpp</text>
</a>
</g>
</g>
<!-- Node1&#45;&gt;Node40 -->
<g id="edge85" class="edge">
<title>Node1&#45;&gt;Node40</title>
<path fill="none" stroke="midnightblue" d="M1565.29,-347.32C1548.69,-338.7 1523,-325.36 1503.78,-315.39"/>
<polygon fill="midnightblue" stroke="midnightblue" points="1505.16,-312.16 1494.67,-310.65 1501.93,-318.37 1505.16,-312.16"/>
</g>
<!-- Node41 -->
<g id="node41" class="node">
<title>Node41</title>
<g id="a_node41"><a xlink:href="_directional_light_component_8hpp.html" target="_top" xlink:title=" ">
<polygon fill="white" stroke="black" points="1948,-224.5 1948,-254.5 2106,-254.5 2106,-224.5 1948,-224.5"/>
<text text-anchor="start" x="1956" y="-242.5" font-family="Helvetica,sans-Serif" font-size="10.00">Components/DirectionalLight</text>
<text text-anchor="middle" x="2027" y="-231.5" font-family="Helvetica,sans-Serif" font-size="10.00">Component.hpp</text>
</a>
</g>
</g>
<!-- Node1&#45;&gt;Node41 -->
<g id="edge89" class="edge">
<title>Node1&#45;&gt;Node41</title>
<path fill="none" stroke="midnightblue" d="M1635.41,-347.48C1682.29,-339.54 1752.16,-326.6 1812,-311 1870.36,-295.78 1936.06,-273.46 1979.29,-258.03"/>
<polygon fill="midnightblue" stroke="midnightblue" points="1980.75,-261.23 1988.98,-254.55 1978.38,-254.64 1980.75,-261.23"/>
</g>
<!-- Node3 -->
<g id="node3" class="node">
<title>Node3</title>
<g id="a_node3"><a xlink:title=" ">
<polygon fill="white" stroke="#bfbfbf" points="651,-168.5 651,-187.5 709,-187.5 709,-168.5 651,-168.5"/>
<text text-anchor="middle" x="680" y="-175.5" font-family="Helvetica,sans-Serif" font-size="10.00">memory</text>
</a>
</g>
</g>
<!-- Node2&#45;&gt;Node3 -->
<g id="edge2" class="edge">
<title>Node2&#45;&gt;Node3</title>
<path fill="none" stroke="midnightblue" d="M768.8,-291.48C745.7,-285.08 719.34,-274 702,-255 687.7,-239.34 682.65,-214.93 680.89,-198.02"/>
<polygon fill="midnightblue" stroke="midnightblue" points="684.36,-197.42 680.12,-187.71 677.37,-197.94 684.36,-197.42"/>
</g>
<!-- Node4 -->
<g id="node4" class="node">
<title>Node4</title>
<g id="a_node4"><a xlink:href="_types_8hpp.html" target="_top" xlink:title=" ">
<polygon fill="white" stroke="black" points="1365.5,-112.5 1365.5,-131.5 1478.5,-131.5 1478.5,-112.5 1365.5,-112.5"/>
<text text-anchor="middle" x="1422" y="-119.5" font-family="Helvetica,sans-Serif" font-size="10.00">Common/Types.hpp</text>
</a>
</g>
</g>
<!-- Node2&#45;&gt;Node4 -->
<g id="edge3" class="edge">
<title>Node2&#45;&gt;Node4</title>
<path fill="none" stroke="midnightblue" d="M836.1,-291.47C868.54,-277.06 936.61,-247.21 995,-224 1061.91,-197.41 1077.38,-186.34 1147,-168 1216.91,-149.58 1298.92,-137.33 1355.07,-130.33"/>
<polygon fill="midnightblue" stroke="midnightblue" points="1355.75,-133.77 1365.25,-129.08 1354.9,-126.82 1355.75,-133.77"/>
</g>
<!-- Node5 -->
<g id="node5" class="node">
<title>Node5</title>
<g id="a_node5"><a xlink:href="_registry_8hpp.html" target="_top" xlink:title=" ">
<polygon fill="white" stroke="black" points="143,-230 143,-249 241,-249 241,-230 143,-230"/>
<text text-anchor="middle" x="192" y="-237" font-family="Helvetica,sans-Serif" font-size="10.00">ECS/Registry.hpp</text>
</a>
</g>
</g>
<!-- Node2&#45;&gt;Node5 -->
<g id="edge4" class="edge">
<title>Node2&#45;&gt;Node5</title>
<path fill="none" stroke="midnightblue" d="M732.47,-296.68C622.82,-291.57 425.81,-279.67 259,-255 252.04,-253.97 244.72,-252.64 237.58,-251.21"/>
<polygon fill="midnightblue" stroke="midnightblue" points="237.81,-247.68 227.31,-249.06 236.38,-254.53 237.81,-247.68"/>
</g>
<!-- Node11 -->
<g id="node11" class="node">
<title>Node11</title>
<g id="a_node11"><a xlink:href="_shader_program_8hpp.html" target="_top" xlink:title=" ">
<polygon fill="white" stroke="black" points="744.5,-230 744.5,-249 909.5,-249 909.5,-230 744.5,-230"/>
<text text-anchor="middle" x="827" y="-237" font-family="Helvetica,sans-Serif" font-size="10.00">Rendering/ShaderProgram.hpp</text>
</a>
</g>
</g>
<!-- Node2&#45;&gt;Node11 -->
<g id="edge11" class="edge">
<title>Node2&#45;&gt;Node11</title>
<path fill="none" stroke="midnightblue" d="M818.43,-291.48C819.84,-283.08 822.05,-269.98 823.86,-259.16"/>
<polygon fill="midnightblue" stroke="midnightblue" points="827.36,-259.45 825.57,-249.01 820.46,-258.29 827.36,-259.45"/>
</g>
<!-- Node19 -->
<g id="node19" class="node">
<title>Node19</title>
<g id="a_node19"><a xlink:href="_frame_buffer_8hpp.html" target="_top" xlink:title=" ">
<polygon fill="white" stroke="black" points="501.5,-230 501.5,-249 650.5,-249 650.5,-230 501.5,-230"/>
<text text-anchor="middle" x="576" y="-237" font-family="Helvetica,sans-Serif" font-size="10.00">Rendering/FrameBuffer.hpp</text>
</a>
</g>
</g>
<!-- Node2&#45;&gt;Node19 -->
<g id="edge21" class="edge">
<title>Node2&#45;&gt;Node19</title>
<path fill="none" stroke="midnightblue" d="M782.47,-291.48C739.79,-280.94 667.08,-262.99 620.32,-251.44"/>
<polygon fill="midnightblue" stroke="midnightblue" points="621.01,-248.01 610.47,-249.01 619.33,-254.8 621.01,-248.01"/>
</g>
<!-- Node22 -->
<g id="node22" class="node">
<title>Node22</title>
<g id="a_node22"><a xlink:href="_cube_map_8hpp.html" target="_top" xlink:title=" ">
<polygon fill="white" stroke="black" points="1004,-230 1004,-249 1140,-249 1140,-230 1004,-230"/>
<text text-anchor="middle" x="1072" y="-237" font-family="Helvetica,sans-Serif" font-size="10.00">Rendering/CubeMap.hpp</text>
</a>
</g>
</g>
<!-- Node2&#45;&gt;Node22 -->
<g id="edge29" class="edge">
<title>Node2&#45;&gt;Node22</title>
<path fill="none" stroke="midnightblue" d="M853.54,-291.48C898.89,-280.89 976.28,-262.84 1025.73,-251.3"/>
<polygon fill="midnightblue" stroke="midnightblue" points="1026.59,-254.69 1035.53,-249.01 1025,-247.87 1026.59,-254.69"/>
</g>
<!-- Node6 -->
<g id="node6" class="node">
<title>Node6</title>
<g id="a_node6"><a xlink:title=" ">
<polygon fill="white" stroke="#bfbfbf" points="177,-168.5 177,-187.5 263,-187.5 263,-168.5 177,-168.5"/>
<text text-anchor="middle" x="220" y="-175.5" font-family="Helvetica,sans-Serif" font-size="10.00">unordered_set</text>
</a>
</g>
</g>
<!-- Node5&#45;&gt;Node6 -->
<g id="edge5" class="edge">
<title>Node5&#45;&gt;Node6</title>
<path fill="none" stroke="midnightblue" d="M196.01,-229.98C200.09,-221.32 206.52,-207.65 211.7,-196.65"/>
<polygon fill="midnightblue" stroke="midnightblue" points="214.9,-198.05 216,-187.51 208.57,-195.07 214.9,-198.05"/>
</g>
<!-- Node7 -->
<g id="node7" class="node">
<title>Node7</title>
<g id="a_node7"><a xlink:href="_entity_provider_8hpp.html" target="_top" xlink:title="Manages a pool of unused entity identifiers and provides mechanisms for requesting and removing them.">
<polygon fill="white" stroke="black" points="0,-112.5 0,-131.5 128,-131.5 128,-112.5 0,-112.5"/>
<text text-anchor="middle" x="64" y="-119.5" font-family="Helvetica,sans-Serif" font-size="10.00">ECS/EntityProvider.hpp</text>
</a>
</g>
</g>
<!-- Node5&#45;&gt;Node7 -->
<g id="edge6" class="edge">
<title>Node5&#45;&gt;Node7</title>
<path fill="none" stroke="midnightblue" d="M142.8,-236.23C108.43,-231.76 64.77,-219.69 42,-188 31.62,-173.56 40.83,-153.85 50.31,-139.94"/>
<polygon fill="midnightblue" stroke="midnightblue" points="53.24,-141.86 56.38,-131.74 47.61,-137.7 53.24,-141.86"/>
</g>
<!-- Node10 -->
<g id="node10" class="node">
<title>Node10</title>
<g id="a_node10"><a xlink:href="_sparse_set_8hpp.html" target="_top" xlink:title=" ">
<polygon fill="white" stroke="black" points="51,-168.5 51,-187.5 159,-187.5 159,-168.5 51,-168.5"/>
<text text-anchor="middle" x="105" y="-175.5" font-family="Helvetica,sans-Serif" font-size="10.00">ECS/SparseSet.hpp</text>
</a>
</g>
</g>
<!-- Node5&#45;&gt;Node10 -->
<g id="edge9" class="edge">
<title>Node5&#45;&gt;Node10</title>
<path fill="none" stroke="midnightblue" d="M179.54,-229.98C165.58,-220.43 142.74,-204.81 126.01,-193.37"/>
<polygon fill="midnightblue" stroke="midnightblue" points="127.67,-190.27 117.44,-187.51 123.72,-196.04 127.67,-190.27"/>
</g>
<!-- Node8 -->
<g id="node8" class="node">
<title>Node8</title>
<g id="a_node8"><a xlink:title=" ">
<polygon fill="white" stroke="#bfbfbf" points="3.5,-56.5 3.5,-75.5 56.5,-75.5 56.5,-56.5 3.5,-56.5"/>
<text text-anchor="middle" x="30" y="-63.5" font-family="Helvetica,sans-Serif" font-size="10.00">stdlib.h</text>
</a>
</g>
</g>
<!-- Node7&#45;&gt;Node8 -->
<g id="edge7" class="edge">
<title>Node7&#45;&gt;Node8</title>
<path fill="none" stroke="midnightblue" d="M58.39,-112.08C53.63,-104.53 46.68,-93.49 40.85,-84.23"/>
<polygon fill="midnightblue" stroke="midnightblue" points="43.8,-82.35 35.51,-75.75 37.88,-86.08 43.8,-82.35"/>
</g>
<!-- Node9 -->
<g id="node9" class="node">
<title>Node9</title>
<g id="a_node9"><a xlink:title=" ">
<polygon fill="white" stroke="#bfbfbf" points="74.5,-56.5 74.5,-75.5 121.5,-75.5 121.5,-56.5 74.5,-56.5"/>
<text text-anchor="middle" x="98" y="-63.5" font-family="Helvetica,sans-Serif" font-size="10.00">queue</text>
</a>
</g>
</g>
<!-- Node7&#45;&gt;Node9 -->
<g id="edge8" class="edge">
<title>Node7&#45;&gt;Node9</title>
<path fill="none" stroke="midnightblue" d="M69.61,-112.08C74.37,-104.53 81.32,-93.49 87.15,-84.23"/>
<polygon fill="midnightblue" stroke="midnightblue" points="90.12,-86.08 92.49,-75.75 84.2,-82.35 90.12,-86.08"/>
</g>
<!-- Node10&#45;&gt;Node7 -->
<g id="edge10" class="edge">
<title>Node10&#45;&gt;Node7</title>
<path fill="none" stroke="midnightblue" d="M98.23,-168.08C92.44,-160.46 83.94,-149.26 76.86,-139.94"/>
<polygon fill="midnightblue" stroke="midnightblue" points="79.48,-137.6 70.64,-131.75 73.9,-141.83 79.48,-137.6"/>
</g>
<!-- Node11&#45;&gt;Node3 -->
<g id="edge14" class="edge">
<title>Node11&#45;&gt;Node3</title>
<path fill="none" stroke="midnightblue" d="M805.94,-229.98C780.94,-219.86 739.06,-202.9 710.51,-191.35"/>
<polygon fill="midnightblue" stroke="midnightblue" points="711.61,-188.02 701.02,-187.51 708.98,-194.51 711.61,-188.02"/>
</g>
<!-- Node12 -->
<g id="node12" class="node">
<title>Node12</title>
<g id="a_node12"><a xlink:title=" ">
<polygon fill="white" stroke="#bfbfbf" points="920.5,-112.5 920.5,-131.5 991.5,-131.5 991.5,-112.5 920.5,-112.5"/>
<text text-anchor="middle" x="956" y="-119.5" font-family="Helvetica,sans-Serif" font-size="10.00">glad/glad.h</text>
</a>
</g>
</g>
<!-- Node11&#45;&gt;Node12 -->
<g id="edge12" class="edge">
<title>Node11&#45;&gt;Node12</title>
<path fill="none" stroke="midnightblue" d="M849.74,-229.94C869.59,-221.59 898.23,-207.33 918,-188 931.7,-174.6 942.18,-155.23 948.62,-141.12"/>
<polygon fill="midnightblue" stroke="midnightblue" points="952.01,-142.11 952.75,-131.54 945.58,-139.34 952.01,-142.11"/>
</g>
<!-- Node13 -->
<g id="node13" class="node">
<title>Node13</title>
<g id="a_node13"><a xlink:title=" ">
<polygon fill="white" stroke="#bfbfbf" points="1714,-56.5 1714,-75.5 1792,-75.5 1792,-56.5 1714,-56.5"/>
<text text-anchor="middle" x="1753" y="-63.5" font-family="Helvetica,sans-Serif" font-size="10.00">glm/glm.hpp</text>
</a>
</g>
</g>
<!-- Node11&#45;&gt;Node13 -->
<g id="edge13" class="edge">
<title>Node11&#45;&gt;Node13</title>
<path fill="none" stroke="midnightblue" d="M855.87,-229.9C902.43,-216.15 997.08,-188.64 1078,-168 1185.81,-140.5 1212.24,-130.26 1322,-112 1459.26,-89.17 1623.14,-75.84 1703.54,-70.2"/>
<polygon fill="midnightblue" stroke="midnightblue" points="1704.12,-73.67 1713.86,-69.49 1703.64,-66.68 1704.12,-73.67"/>
</g>
<!-- Node14 -->
<g id="node14" class="node">
<title>Node14</title>
<g id="a_node14"><a xlink:title=" ">
<polygon fill="white" stroke="#bfbfbf" points="1532,-168.5 1532,-187.5 1576,-187.5 1576,-168.5 1532,-168.5"/>
<text text-anchor="middle" x="1554" y="-175.5" font-family="Helvetica,sans-Serif" font-size="10.00">string</text>
</a>
</g>
</g>
<!-- Node11&#45;&gt;Node14 -->
<g id="edge15" class="edge">
<title>Node11&#45;&gt;Node14</title>
<path fill="none" stroke="midnightblue" d="M909.88,-231.25C937,-228.9 967.28,-226.31 995,-224 1195.28,-207.3 1436.02,-188.27 1521.76,-181.53"/>
<polygon fill="midnightblue" stroke="midnightblue" points="1522.2,-185.01 1531.89,-180.73 1521.65,-178.03 1522.2,-185.01"/>
</g>
<!-- Node15 -->
<g id="node15" class="node">
<title>Node15</title>
<g id="a_node15"><a xlink:title=" ">
<polygon fill="white" stroke="#bfbfbf" points="501.5,-168.5 501.5,-187.5 594.5,-187.5 594.5,-168.5 501.5,-168.5"/>
<text text-anchor="middle" x="548" y="-175.5" font-family="Helvetica,sans-Serif" font-size="10.00">unordered_map</text>
</a>
</g>
</g>
<!-- Node11&#45;&gt;Node15 -->
<g id="edge16" class="edge">
<title>Node11&#45;&gt;Node15</title>
<path fill="none" stroke="midnightblue" d="M787.03,-229.98C737.2,-219.35 652.03,-201.18 597.95,-189.65"/>
<polygon fill="midnightblue" stroke="midnightblue" points="598.41,-186.17 587.9,-187.51 596.95,-193.02 598.41,-186.17"/>
</g>
<!-- Node16 -->
<g id="node16" class="node">
<title>Node16</title>
<g id="a_node16"><a xlink:href="_shader_8hpp.html" target="_top" xlink:title=" ">
<polygon fill="white" stroke="black" points="765.5,-168.5 765.5,-187.5 908.5,-187.5 908.5,-168.5 765.5,-168.5"/>
<text text-anchor="middle" x="837" y="-175.5" font-family="Helvetica,sans-Serif" font-size="10.00">AssetManager/Shader.hpp</text>
</a>
</g>
</g>
<!-- Node11&#45;&gt;Node16 -->
<g id="edge17" class="edge">
<title>Node11&#45;&gt;Node16</title>
<path fill="none" stroke="midnightblue" d="M828.43,-229.98C829.84,-221.58 832.05,-208.48 833.86,-197.66"/>
<polygon fill="midnightblue" stroke="midnightblue" points="837.36,-197.95 835.57,-187.51 830.46,-196.79 837.36,-197.95"/>
</g>
<!-- Node16&#45;&gt;Node12 -->
<g id="edge18" class="edge">
<title>Node16&#45;&gt;Node12</title>
<path fill="none" stroke="midnightblue" d="M855.86,-168.44C875.27,-159.64 905.73,-145.81 927.96,-135.72"/>
<polygon fill="midnightblue" stroke="midnightblue" points="929.57,-138.84 937.23,-131.52 926.68,-132.46 929.57,-138.84"/>
</g>
<!-- Node17 -->
<g id="node17" class="node">
<title>Node17</title>
<g id="a_node17"><a xlink:href="_asset_8hpp.html" target="_top" xlink:title=" ">
<polygon fill="white" stroke="black" points="768.5,-56.5 768.5,-75.5 905.5,-75.5 905.5,-56.5 768.5,-56.5"/>
<text text-anchor="middle" x="837" y="-63.5" font-family="Helvetica,sans-Serif" font-size="10.00">AssetManager/Asset.hpp</text>
</a>
</g>
</g>
<!-- Node16&#45;&gt;Node17 -->
<g id="edge19" class="edge">
<title>Node16&#45;&gt;Node17</title>
<path fill="none" stroke="midnightblue" d="M837,-168.37C837,-150.62 837,-109.67 837,-85.6"/>
<polygon fill="midnightblue" stroke="midnightblue" points="840.5,-85.59 837,-75.59 833.5,-85.59 840.5,-85.59"/>
</g>
<!-- Node18 -->
<g id="node18" class="node">
<title>Node18</title>
<g id="a_node18"><a xlink:title=" ">
<polygon fill="white" stroke="#bfbfbf" points="703,-0.5 703,-19.5 771,-19.5 771,-0.5 703,-0.5"/>
<text text-anchor="middle" x="737" y="-7.5" font-family="Helvetica,sans-Serif" font-size="10.00">filesystem</text>
</a>
</g>
</g>
<!-- Node17&#45;&gt;Node18 -->
<g id="edge20" class="edge">
<title>Node17&#45;&gt;Node18</title>
<path fill="none" stroke="midnightblue" d="M820.93,-56.32C805.04,-47.74 780.49,-34.49 762.04,-24.52"/>
<polygon fill="midnightblue" stroke="midnightblue" points="763.49,-21.33 753.03,-19.65 760.16,-27.49 763.49,-21.33"/>
</g>
<!-- Node19&#45;&gt;Node3 -->
<g id="edge22" class="edge">
<title>Node19&#45;&gt;Node3</title>
<path fill="none" stroke="midnightblue" d="M590.9,-229.98C607.97,-220.21 636.16,-204.08 656.26,-192.58"/>
<polygon fill="midnightblue" stroke="midnightblue" points="658.19,-195.51 665.13,-187.51 654.71,-189.44 658.19,-195.51"/>
</g>
<!-- Node19&#45;&gt;Node12 -->
<g id="edge23" class="edge">
<title>Node19&#45;&gt;Node12</title>
<path fill="none" stroke="midnightblue" d="M581.27,-229.79C591.08,-214.42 613.75,-182.72 642,-168 687.71,-144.18 834.47,-131.14 910.05,-125.84"/>
<polygon fill="midnightblue" stroke="midnightblue" points="910.49,-129.32 920.23,-125.15 910.01,-122.34 910.49,-129.32"/>
</g>
<!-- Node20 -->
<g id="node20" class="node">
<title>Node20</title>
<g id="a_node20"><a xlink:href="_texture_8hpp.html" target="_top" xlink:title=" ">
<polygon fill="white" stroke="black" points="357,-168.5 357,-187.5 483,-187.5 483,-168.5 357,-168.5"/>
<text text-anchor="middle" x="420" y="-175.5" font-family="Helvetica,sans-Serif" font-size="10.00">Rendering/Texture.hpp</text>
</a>
</g>
</g>
<!-- Node19&#45;&gt;Node20 -->
<g id="edge24" class="edge">
<title>Node19&#45;&gt;Node20</title>
<path fill="none" stroke="midnightblue" d="M553.65,-229.98C527.01,-219.81 482.29,-202.76 451.99,-191.2"/>
<polygon fill="midnightblue" stroke="midnightblue" points="452.9,-187.8 442.31,-187.51 450.41,-194.34 452.9,-187.8"/>
</g>
<!-- Node20&#45;&gt;Node12 -->
<g id="edge25" class="edge">
<title>Node20&#45;&gt;Node12</title>
<path fill="none" stroke="midnightblue" d="M483.3,-169.1C486.58,-168.72 489.83,-168.35 493,-168 645.62,-151.18 826.91,-134.52 910.11,-127.06"/>
<polygon fill="midnightblue" stroke="midnightblue" points="910.59,-130.54 920.24,-126.16 909.97,-123.56 910.59,-130.54"/>
</g>
<!-- Node21 -->
<g id="node21" class="node">
<title>Node21</title>
<g id="a_node21"><a xlink:href="_image_8hpp.html" target="_top" xlink:title=" ">
<polygon fill="white" stroke="black" points="666.5,-112.5 666.5,-131.5 807.5,-131.5 807.5,-112.5 666.5,-112.5"/>
<text text-anchor="middle" x="737" y="-119.5" font-family="Helvetica,sans-Serif" font-size="10.00">AssetManager/Image.hpp</text>
</a>
</g>
</g>
<!-- Node20&#45;&gt;Node21 -->
<g id="edge26" class="edge">
<title>Node20&#45;&gt;Node21</title>
<path fill="none" stroke="midnightblue" d="M470.23,-168.44C526.34,-158.89 617.13,-143.42 676.95,-133.23"/>
<polygon fill="midnightblue" stroke="midnightblue" points="677.74,-136.65 687.01,-131.52 676.56,-129.75 677.74,-136.65"/>
</g>
<!-- Node21&#45;&gt;Node17 -->
<g id="edge28" class="edge">
<title>Node21&#45;&gt;Node17</title>
<path fill="none" stroke="midnightblue" d="M753.07,-112.32C768.96,-103.74 793.51,-90.49 811.96,-80.52"/>
<polygon fill="midnightblue" stroke="midnightblue" points="813.84,-83.49 820.97,-75.65 810.51,-77.33 813.84,-83.49"/>
</g>
<!-- Node21&#45;&gt;Node18 -->
<g id="edge27" class="edge">
<title>Node21&#45;&gt;Node18</title>
<path fill="none" stroke="midnightblue" d="M737,-112.37C737,-94.62 737,-53.67 737,-29.6"/>
<polygon fill="midnightblue" stroke="midnightblue" points="740.5,-29.59 737,-19.59 733.5,-29.59 740.5,-29.59"/>
</g>
<!-- Node22&#45;&gt;Node12 -->
<g id="edge30" class="edge">
<title>Node22&#45;&gt;Node12</title>
<path fill="none" stroke="midnightblue" d="M1063.28,-229.82C1043.88,-210.5 996.91,-163.74 972.05,-138.98"/>
<polygon fill="midnightblue" stroke="midnightblue" points="974.38,-136.36 964.82,-131.78 969.44,-141.32 974.38,-136.36"/>
</g>
<!-- Node22&#45;&gt;Node14 -->
<g id="edge31" class="edge">
<title>Node22&#45;&gt;Node14</title>
<path fill="none" stroke="midnightblue" d="M1114.27,-229.95C1125.52,-227.83 1137.7,-225.69 1149,-224 1287.14,-203.35 1453.1,-187.79 1521.8,-181.75"/>
<polygon fill="midnightblue" stroke="midnightblue" points="1522.32,-185.21 1531.97,-180.86 1521.71,-178.24 1522.32,-185.21"/>
</g>
<!-- Node22&#45;&gt;Node21 -->
<g id="edge33" class="edge">
<title>Node22&#45;&gt;Node21</title>
<path fill="none" stroke="midnightblue" d="M1003.96,-231.43C916.98,-221.81 775.37,-203.97 757,-188 743.79,-176.52 739.17,-156.54 737.63,-141.76"/>
<polygon fill="midnightblue" stroke="midnightblue" points="741.11,-141.43 736.95,-131.69 734.13,-141.9 741.11,-141.43"/>
</g>
<!-- Node23 -->
<g id="node23" class="node">
<title>Node23</title>
<g id="a_node23"><a xlink:title=" ">
<polygon fill="white" stroke="#bfbfbf" points="1155.5,-168.5 1155.5,-187.5 1202.5,-187.5 1202.5,-168.5 1155.5,-168.5"/>
<text text-anchor="middle" x="1179" y="-175.5" font-family="Helvetica,sans-Serif" font-size="10.00">vector</text>
</a>
</g>
</g>
<!-- Node22&#45;&gt;Node23 -->
<g id="edge32" class="edge">
<title>Node22&#45;&gt;Node23</title>
<path fill="none" stroke="midnightblue" d="M1087.33,-229.98C1104.97,-220.17 1134.16,-203.93 1154.86,-192.42"/>
<polygon fill="midnightblue" stroke="midnightblue" points="1156.66,-195.43 1163.7,-187.51 1153.26,-189.31 1156.66,-195.43"/>
</g>
<!-- Node24&#45;&gt;Node15 -->
<g id="edge35" class="edge">
<title>Node24&#45;&gt;Node15</title>
<path fill="none" stroke="midnightblue" d="M384.37,-229.98C417.55,-219.64 473.65,-202.16 510.76,-190.6"/>
<polygon fill="midnightblue" stroke="midnightblue" points="512.18,-193.82 520.69,-187.51 510.1,-187.14 512.18,-193.82"/>
</g>
<!-- Node24&#45;&gt;Node17 -->
<g id="edge37" class="edge">
<title>Node24&#45;&gt;Node17</title>
<path fill="none" stroke="midnightblue" d="M352.1,-229.56C344.82,-214.95 333.51,-185.79 348,-168 398.79,-105.65 632.81,-80.62 757.79,-71.57"/>
<polygon fill="midnightblue" stroke="midnightblue" points="758.34,-75.04 768.07,-70.85 757.85,-68.06 758.34,-75.04"/>
</g>
<!-- Node24&#45;&gt;Node18 -->
<g id="edge36" class="edge">
<title>Node24&#45;&gt;Node18</title>
<path fill="none" stroke="midnightblue" d="M350.75,-229.92C341.67,-216.31 326.93,-189.13 337,-168 353.98,-132.34 371.13,-130.55 406,-112 501.91,-60.97 627.48,-31.64 692.95,-18.81"/>
<polygon fill="midnightblue" stroke="midnightblue" points="693.77,-22.22 702.93,-16.89 692.45,-15.34 693.77,-22.22"/>
</g>
<!-- Node25&#45;&gt;Node11 -->
<g id="edge40" class="edge">
<title>Node25&#45;&gt;Node11</title>
<path fill="none" stroke="midnightblue" d="M954.65,-291.48C929.31,-281.36 886.86,-264.4 857.93,-252.85"/>
<polygon fill="midnightblue" stroke="midnightblue" points="858.89,-249.47 848.31,-249.01 856.3,-255.97 858.89,-249.47"/>
</g>
<!-- Node25&#45;&gt;Node12 -->
<g id="edge39" class="edge">
<title>Node25&#45;&gt;Node12</title>
<path fill="none" stroke="midnightblue" d="M975.04,-291.46C971.98,-264.43 962.47,-180.24 958.16,-142.11"/>
<polygon fill="midnightblue" stroke="midnightblue" points="961.6,-141.41 957,-131.87 954.65,-142.2 961.6,-141.41"/>
</g>
<!-- Node25&#45;&gt;Node19 -->
<g id="edge41" class="edge">
<title>Node25&#45;&gt;Node19</title>
<path fill="none" stroke="midnightblue" d="M919.11,-291.54C846.45,-280.73 720.87,-262.05 643.46,-250.54"/>
<polygon fill="midnightblue" stroke="midnightblue" points="643.74,-247.04 633.34,-249.03 642.71,-253.96 643.74,-247.04"/>
</g>
<!-- Node26&#45;&gt;Node13 -->
<g id="edge44" class="edge">
<title>Node26&#45;&gt;Node13</title>
<path fill="none" stroke="midnightblue" d="M2263.3,-229.99C2258.3,-215.49 2246.33,-185.83 2227,-168 2182.54,-127.01 2161.18,-128.48 2103,-112 1998.44,-82.38 1870.73,-72.2 1802.16,-68.74"/>
<polygon fill="midnightblue" stroke="midnightblue" points="1802.23,-65.24 1792.08,-68.26 1801.9,-72.24 1802.23,-65.24"/>
</g>
<!-- Node26&#45;&gt;Node14 -->
<g id="edge43" class="edge">
<title>Node26&#45;&gt;Node14</title>
<path fill="none" stroke="midnightblue" d="M2180.98,-229.99C2159.46,-227.94 2136.39,-225.81 2115,-224 1896.53,-205.52 1841.13,-210.19 1623,-188 1610.95,-186.77 1597.75,-185.13 1586.15,-183.58"/>
<polygon fill="midnightblue" stroke="midnightblue" points="1586.41,-180.08 1576.03,-182.2 1585.46,-187.02 1586.41,-180.08"/>
</g>
<!-- Node27 -->
<g id="node27" class="node">
<title>Node27</title>
<g id="a_node27"><a xlink:title=" ">
<polygon fill="white" stroke="#bfbfbf" points="2088,-168.5 2088,-187.5 2218,-187.5 2218,-168.5 2088,-168.5"/>
<text text-anchor="middle" x="2153" y="-175.5" font-family="Helvetica,sans-Serif" font-size="10.00">glm/gtc/quaternion.hpp</text>
</a>
</g>
</g>
<!-- Node26&#45;&gt;Node27 -->
<g id="edge45" class="edge">
<title>Node26&#45;&gt;Node27</title>
<path fill="none" stroke="midnightblue" d="M2249.81,-229.98C2231.1,-220.12 2200.08,-203.79 2178.2,-192.27"/>
<polygon fill="midnightblue" stroke="midnightblue" points="2179.64,-189.07 2169.16,-187.51 2176.38,-195.27 2179.64,-189.07"/>
</g>
<!-- Node28 -->
<g id="node28" class="node">
<title>Node28</title>
<g id="a_node28"><a xlink:title=" ">
<polygon fill="white" stroke="#bfbfbf" points="2274.5,-168.5 2274.5,-187.5 2437.5,-187.5 2437.5,-168.5 2274.5,-168.5"/>
<text text-anchor="middle" x="2356" y="-175.5" font-family="Helvetica,sans-Serif" font-size="10.00">glm/gtc/matrix_transform.hpp</text>
</a>
</g>
</g>
<!-- Node26&#45;&gt;Node28 -->
<g id="edge46" class="edge">
<title>Node26&#45;&gt;Node28</title>
<path fill="none" stroke="midnightblue" d="M2278.89,-229.98C2293.46,-220.34 2317.4,-204.52 2334.75,-193.05"/>
<polygon fill="midnightblue" stroke="midnightblue" points="2336.72,-195.94 2343.13,-187.51 2332.86,-190.1 2336.72,-195.94"/>
</g>
<!-- Node29 -->
<g id="node29" class="node">
<title>Node29</title>
<g id="a_node29"><a xlink:href="_base_component_8hpp.html" target="_top" xlink:title=" ">
<polygon fill="white" stroke="black" points="1734,-168.5 1734,-187.5 1916,-187.5 1916,-168.5 1734,-168.5"/>
<text text-anchor="middle" x="1825" y="-175.5" font-family="Helvetica,sans-Serif" font-size="10.00">Components/BaseComponent.hpp</text>
</a>
</g>
</g>
<!-- Node26&#45;&gt;Node29 -->
<g id="edge47" class="edge">
<title>Node26&#45;&gt;Node29</title>
<path fill="none" stroke="midnightblue" d="M2202.82,-229.98C2122.26,-219.11 1983.24,-200.35 1898.17,-188.87"/>
<polygon fill="midnightblue" stroke="midnightblue" points="1898.45,-185.38 1888.07,-187.51 1897.51,-192.31 1898.45,-185.38"/>
</g>
<!-- Node29&#45;&gt;Node4 -->
<g id="edge48" class="edge">
<title>Node29&#45;&gt;Node4</title>
<path fill="none" stroke="midnightblue" d="M1761.14,-168.44C1686.85,-158.49 1564.73,-142.12 1489.08,-131.99"/>
<polygon fill="midnightblue" stroke="midnightblue" points="1489.1,-128.46 1478.72,-130.6 1488.17,-135.4 1489.1,-128.46"/>
</g>
<!-- Node30&#45;&gt;Node14 -->
<g id="edge50" class="edge">
<title>Node30&#45;&gt;Node14</title>
<path fill="none" stroke="midnightblue" d="M1677.43,-291.3C1655.1,-270.98 1599.27,-220.19 1570.99,-194.46"/>
<polygon fill="midnightblue" stroke="midnightblue" points="1573.23,-191.76 1563.48,-187.62 1568.52,-196.94 1573.23,-191.76"/>
</g>
<!-- Node30&#45;&gt;Node29 -->
<g id="edge65" class="edge">
<title>Node30&#45;&gt;Node29</title>
<path fill="none" stroke="midnightblue" d="M1687.79,-291.28C1689.64,-275.77 1695.6,-243.22 1714,-224 1729.45,-207.86 1751.47,-197.35 1771.84,-190.57"/>
<polygon fill="midnightblue" stroke="midnightblue" points="1773.14,-193.83 1781.67,-187.54 1771.08,-187.14 1773.14,-193.83"/>
</g>
<!-- Node31 -->
<g id="node31" class="node">
<title>Node31</title>
<g id="a_node31"><a xlink:title=" ">
<polygon fill="white" stroke="#bfbfbf" points="2010,-168.5 2010,-187.5 2070,-187.5 2070,-168.5 2010,-168.5"/>
<text text-anchor="middle" x="2040" y="-175.5" font-family="Helvetica,sans-Serif" font-size="10.00">iostream</text>
</a>
</g>
</g>
<!-- Node30&#45;&gt;Node31 -->
<g id="edge51" class="edge">
<title>Node30&#45;&gt;Node31</title>
<path fill="none" stroke="midnightblue" d="M1781.1,-296.67C1900.33,-291.45 2093.08,-279.34 2115,-255 2124.22,-244.76 2121.79,-235.99 2115,-224 2106.65,-209.26 2091.34,-198.82 2076.71,-191.73"/>
<polygon fill="midnightblue" stroke="midnightblue" points="2077.84,-188.4 2067.28,-187.55 2075,-194.8 2077.84,-188.4"/>
</g>
<!-- Node32 -->
<g id="node32" class="node">
<title>Node32</title>
<g id="a_node32"><a xlink:href="_mesh_8hpp.html" target="_top" xlink:title=" ">
<polygon fill="white" stroke="black" points="1338.5,-230 1338.5,-249 1475.5,-249 1475.5,-230 1338.5,-230"/>
<text text-anchor="middle" x="1407" y="-237" font-family="Helvetica,sans-Serif" font-size="10.00">AssetManager/Mesh.hpp</text>
</a>
</g>
</g>
<!-- Node30&#45;&gt;Node32 -->
<g id="edge52" class="edge">
<title>Node30&#45;&gt;Node32</title>
<path fill="none" stroke="midnightblue" d="M1646.88,-291.48C1596.88,-280.85 1511.4,-262.68 1457.13,-251.15"/>
<polygon fill="midnightblue" stroke="midnightblue" points="1457.55,-247.66 1447.04,-249.01 1456.1,-254.51 1457.55,-247.66"/>
</g>
<!-- Node35 -->
<g id="node35" class="node">
<title>Node35</title>
<g id="a_node35"><a xlink:href="_material_8hpp.html" target="_top" xlink:title=" ">
<polygon fill="white" stroke="black" points="1535.5,-112.5 1535.5,-131.5 1686.5,-131.5 1686.5,-112.5 1535.5,-112.5"/>
<text text-anchor="middle" x="1611" y="-119.5" font-family="Helvetica,sans-Serif" font-size="10.00">AssetManager/Material.hpp</text>
</a>
</g>
</g>
<!-- Node30&#45;&gt;Node35 -->
<g id="edge62" class="edge">
<title>Node30&#45;&gt;Node35</title>
<path fill="none" stroke="midnightblue" d="M1680.78,-291.5C1667.89,-273.42 1638.16,-229.43 1623,-188 1617.51,-173 1614.44,-155.09 1612.79,-141.87"/>
<polygon fill="midnightblue" stroke="midnightblue" points="1616.23,-141.22 1611.67,-131.66 1609.28,-141.98 1616.23,-141.22"/>
</g>
<!-- Node32&#45;&gt;Node12 -->
<g id="edge54" class="edge">
<title>Node32&#45;&gt;Node12</title>
<path fill="none" stroke="midnightblue" d="M1386.88,-229.91C1351.91,-215.28 1277.4,-185.43 1212,-168 1139.59,-148.7 1053.4,-135.51 1001.78,-128.61"/>
<polygon fill="midnightblue" stroke="midnightblue" points="1001.99,-125.11 991.62,-127.28 1001.08,-132.05 1001.99,-125.11"/>
</g>
<!-- Node32&#45;&gt;Node13 -->
<g id="edge53" class="edge">
<title>Node32&#45;&gt;Node13</title>
<path fill="none" stroke="midnightblue" d="M1412.48,-229.7C1427.54,-206.3 1472.13,-142.27 1527,-112 1582.48,-81.39 1655.81,-71.43 1703.68,-68.29"/>
<polygon fill="midnightblue" stroke="midnightblue" points="1704,-71.77 1713.78,-67.7 1703.6,-64.79 1704,-71.77"/>
</g>
<!-- Node32&#45;&gt;Node14 -->
<g id="edge56" class="edge">
<title>Node32&#45;&gt;Node14</title>
<path fill="none" stroke="midnightblue" d="M1428.06,-229.98C1453.06,-219.86 1494.94,-202.9 1523.49,-191.35"/>
<polygon fill="midnightblue" stroke="midnightblue" points="1525.02,-194.51 1532.98,-187.51 1522.39,-188.02 1525.02,-194.51"/>
</g>
<!-- Node32&#45;&gt;Node17 -->
<g id="edge57" class="edge">
<title>Node32&#45;&gt;Node17</title>
<path fill="none" stroke="midnightblue" d="M1393.67,-229.87C1357.08,-206.6 1251.28,-142.34 1154,-112 1075.17,-87.41 981.08,-76.21 915.99,-71.13"/>
<polygon fill="midnightblue" stroke="midnightblue" points="916.03,-67.63 905.8,-70.37 915.51,-74.61 916.03,-67.63"/>
</g>
<!-- Node32&#45;&gt;Node23 -->
<g id="edge55" class="edge">
<title>Node32&#45;&gt;Node23</title>
<path fill="none" stroke="midnightblue" d="M1374.33,-229.98C1331.24,-218.73 1255.81,-199.04 1212.37,-187.71"/>
<polygon fill="midnightblue" stroke="midnightblue" points="1213.13,-184.29 1202.57,-185.15 1211.36,-191.06 1213.13,-184.29"/>
</g>
<!-- Node33 -->
<g id="node33" class="node">
<title>Node33</title>
<g id="a_node33"><a xlink:href="_box_8hpp.html" target="_top" xlink:title=" ">
<polygon fill="white" stroke="black" points="1632,-168.5 1632,-187.5 1716,-187.5 1716,-168.5 1632,-168.5"/>
<text text-anchor="middle" x="1674" y="-175.5" font-family="Helvetica,sans-Serif" font-size="10.00">Math/Box.hpp</text>
</a>
</g>
</g>
<!-- Node32&#45;&gt;Node33 -->
<g id="edge58" class="edge">
<title>Node32&#45;&gt;Node33</title>
<path fill="none" stroke="midnightblue" d="M1445.25,-229.98C1492.84,-219.37 1574.11,-201.26 1625.88,-189.72"/>
<polygon fill="midnightblue" stroke="midnightblue" points="1626.82,-193.1 1635.82,-187.51 1625.29,-186.27 1626.82,-193.1"/>
</g>
<!-- Node33&#45;&gt;Node13 -->
<g id="edge59" class="edge">
<title>Node33&#45;&gt;Node13</title>
<path fill="none" stroke="midnightblue" d="M1688.47,-168.31C1700.76,-160.27 1718.11,-147.27 1729,-132 1739.03,-117.93 1745.36,-99.19 1748.98,-85.45"/>
<polygon fill="midnightblue" stroke="midnightblue" points="1752.4,-86.23 1751.33,-75.69 1745.59,-84.59 1752.4,-86.23"/>
</g>
<!-- Node34 -->
<g id="node34" class="node">
<title>Node34</title>
<g id="a_node34"><a xlink:href="_ray_8hpp.html" target="_top" xlink:title=" ">
<polygon fill="white" stroke="black" points="2010.5,-112.5 2010.5,-131.5 2093.5,-131.5 2093.5,-112.5 2010.5,-112.5"/>
<text text-anchor="middle" x="2052" y="-119.5" font-family="Helvetica,sans-Serif" font-size="10.00">Math/Ray.hpp</text>
</a>
</g>
</g>
<!-- Node33&#45;&gt;Node34 -->
<g id="edge60" class="edge">
<title>Node33&#45;&gt;Node34</title>
<path fill="none" stroke="midnightblue" d="M1716,-169.46C1719.05,-168.95 1722.07,-168.46 1725,-168 1821.93,-152.78 1935.48,-137.79 2000.05,-129.53"/>
<polygon fill="midnightblue" stroke="midnightblue" points="2000.9,-132.95 2010.37,-128.21 2000.01,-126.01 2000.9,-132.95"/>
</g>
<!-- Node34&#45;&gt;Node13 -->
<g id="edge61" class="edge">
<title>Node34&#45;&gt;Node13</title>
<path fill="none" stroke="midnightblue" d="M2010.43,-113.49C1955.93,-103.65 1860.47,-86.41 1802.36,-75.92"/>
<polygon fill="midnightblue" stroke="midnightblue" points="1802.78,-72.43 1792.32,-74.1 1801.54,-79.32 1802.78,-72.43"/>
</g>
<!-- Node35&#45;&gt;Node13 -->
<g id="edge63" class="edge">
<title>Node35&#45;&gt;Node13</title>
<path fill="none" stroke="midnightblue" d="M1633.5,-112.44C1657.08,-103.48 1694.32,-89.31 1720.96,-79.18"/>
<polygon fill="midnightblue" stroke="midnightblue" points="1722.5,-82.34 1730.6,-75.52 1720.01,-75.8 1722.5,-82.34"/>
</g>
<!-- Node35&#45;&gt;Node17 -->
<g id="edge64" class="edge">
<title>Node35&#45;&gt;Node17</title>
<path fill="none" stroke="midnightblue" d="M1535.22,-115.41C1519.61,-114.27 1503.27,-113.09 1488,-112 1281.63,-97.32 1038.42,-80.68 915.94,-72.35"/>
<polygon fill="midnightblue" stroke="midnightblue" points="916.11,-68.86 905.9,-71.67 915.64,-75.84 916.11,-68.86"/>
</g>
<!-- Node36&#45;&gt;Node3 -->
<g id="edge67" class="edge">
<title>Node36&#45;&gt;Node3</title>
<path fill="none" stroke="midnightblue" d="M1139.86,-295.31C1001.1,-288.42 770.27,-274.26 736,-255 712.96,-242.05 696.73,-215.26 687.87,-197.21"/>
<polygon fill="midnightblue" stroke="midnightblue" points="690.98,-195.59 683.61,-187.98 684.62,-198.53 690.98,-195.59"/>
</g>
<!-- Node36&#45;&gt;Node29 -->
<g id="edge74" class="edge">
<title>Node36&#45;&gt;Node29</title>
<path fill="none" stroke="midnightblue" d="M1297.22,-291.45C1346,-283.17 1420.75,-269.73 1485,-255 1536.18,-243.26 1547.89,-236.02 1599,-224 1655.84,-210.63 1721.33,-197.88 1767.14,-189.38"/>
<polygon fill="midnightblue" stroke="midnightblue" points="1767.98,-192.79 1777.18,-187.53 1766.71,-185.9 1767.98,-192.79"/>
</g>
<!-- Node37 -->
<g id="node37" class="node">
<title>Node37</title>
<g id="a_node37"><a xlink:href="_wireframe_8hpp.html" target="_top" xlink:title=" ">
<polygon fill="white" stroke="black" points="1158,-230 1158,-249 1320,-249 1320,-230 1158,-230"/>
<text text-anchor="middle" x="1239" y="-237" font-family="Helvetica,sans-Serif" font-size="10.00">AssetManager/Wireframe.hpp</text>
</a>
</g>
</g>
<!-- Node36&#45;&gt;Node37 -->
<g id="edge68" class="edge">
<title>Node36&#45;&gt;Node37</title>
<path fill="none" stroke="midnightblue" d="M1244.14,-291.48C1243.29,-283.08 1241.97,-269.98 1240.88,-259.16"/>
<polygon fill="midnightblue" stroke="midnightblue" points="1244.34,-258.61 1239.86,-249.01 1237.38,-259.31 1244.34,-258.61"/>
</g>
<!-- Node37&#45;&gt;Node12 -->
<g id="edge70" class="edge">
<title>Node37&#45;&gt;Node12</title>
<path fill="none" stroke="midnightblue" d="M1217.73,-229.82C1168.03,-209.53 1044.14,-158.97 986.45,-135.43"/>
<polygon fill="midnightblue" stroke="midnightblue" points="987.71,-132.16 977.13,-131.62 985.07,-138.64 987.71,-132.16"/>
</g>
<!-- Node37&#45;&gt;Node13 -->
<g id="edge69" class="edge">
<title>Node37&#45;&gt;Node13</title>
<path fill="none" stroke="midnightblue" d="M1244.01,-229.79C1258.18,-206.05 1301.21,-140.1 1357,-112 1416.65,-81.95 1611.55,-71.63 1703.78,-68.37"/>
<polygon fill="midnightblue" stroke="midnightblue" points="1704.09,-71.87 1713.97,-68.03 1703.86,-64.87 1704.09,-71.87"/>
</g>
<!-- Node37&#45;&gt;Node14 -->
<g id="edge72" class="edge">
<title>Node37&#45;&gt;Node14</title>
<path fill="none" stroke="midnightblue" d="M1284.13,-229.98C1348.54,-217.81 1465.25,-195.76 1521.7,-185.1"/>
<polygon fill="midnightblue" stroke="midnightblue" points="1522.66,-188.48 1531.84,-183.19 1521.36,-181.6 1522.66,-188.48"/>
</g>
<!-- Node37&#45;&gt;Node17 -->
<g id="edge73" class="edge">
<title>Node37&#45;&gt;Node17</title>
<path fill="none" stroke="midnightblue" d="M1238.17,-229.71C1236.28,-214.79 1230.29,-184.51 1212,-168 1129.95,-93.96 999.23,-73.33 915.81,-68.07"/>
<polygon fill="midnightblue" stroke="midnightblue" points="915.81,-64.56 905.62,-67.48 915.41,-71.55 915.81,-64.56"/>
</g>
<!-- Node37&#45;&gt;Node23 -->
<g id="edge71" class="edge">
<title>Node37&#45;&gt;Node23</title>
<path fill="none" stroke="midnightblue" d="M1230.4,-229.98C1221.14,-220.78 1206.18,-205.96 1194.79,-194.66"/>
<polygon fill="midnightblue" stroke="midnightblue" points="1197.15,-192.07 1187.58,-187.51 1192.22,-197.04 1197.15,-192.07"/>
</g>
<!-- Node38&#45;&gt;Node13 -->
<g id="edge76" class="edge">
<title>Node38&#45;&gt;Node13</title>
<path fill="none" stroke="midnightblue" d="M2416.52,-291.38C2430.43,-283.85 2448.63,-271.54 2458,-255 2477.13,-221.25 2489.91,-197.74 2465,-168 2422.25,-116.95 1956.24,-80.84 1802.15,-70.23"/>
<polygon fill="midnightblue" stroke="midnightblue" points="1802.24,-66.72 1792.03,-69.53 1801.77,-73.71 1802.24,-66.72"/>
</g>
<!-- Node38&#45;&gt;Node26 -->
<g id="edge79" class="edge">
<title>Node38&#45;&gt;Node26</title>
<path fill="none" stroke="midnightblue" d="M2379.09,-291.48C2356.84,-281.45 2319.69,-264.7 2294.07,-253.15"/>
<polygon fill="midnightblue" stroke="midnightblue" points="2295.43,-249.93 2284.88,-249.01 2292.56,-256.31 2295.43,-249.93"/>
</g>
<!-- Node38&#45;&gt;Node28 -->
<g id="edge77" class="edge">
<title>Node38&#45;&gt;Node28</title>
<path fill="none" stroke="midnightblue" d="M2396.51,-291.37C2393.89,-277.07 2387.88,-247.69 2379,-224 2375.5,-214.66 2370.56,-204.73 2366.17,-196.59"/>
<polygon fill="midnightblue" stroke="midnightblue" points="2369.13,-194.72 2361.2,-187.69 2363.02,-198.13 2369.13,-194.72"/>
</g>
<!-- Node38&#45;&gt;Node34 -->
<g id="edge78" class="edge">
<title>Node38&#45;&gt;Node34</title>
<path fill="none" stroke="midnightblue" d="M2406.4,-291.49C2427.86,-268.76 2480.69,-205.75 2447,-168 2424.53,-142.83 2205.94,-129.86 2103.94,-125.13"/>
<polygon fill="midnightblue" stroke="midnightblue" points="2104,-121.63 2093.85,-124.67 2103.68,-128.62 2104,-121.63"/>
</g>
<!-- Node39&#45;&gt;Node13 -->
<g id="edge83" class="edge">
<title>Node39&#45;&gt;Node13</title>
<path fill="none" stroke="midnightblue" d="M1859.92,-229.95C1895.04,-219.26 1942.51,-198.58 1925,-168 1897.45,-119.87 1837.05,-92.43 1795.69,-78.63"/>
<polygon fill="midnightblue" stroke="midnightblue" points="1796.72,-75.29 1786.13,-75.57 1794.59,-81.95 1796.72,-75.29"/>
</g>
<!-- Node39&#45;&gt;Node14 -->
<g id="edge81" class="edge">
<title>Node39&#45;&gt;Node14</title>
<path fill="none" stroke="midnightblue" d="M1787.03,-229.98C1733,-218.16 1636.32,-197.01 1586.17,-186.04"/>
<polygon fill="midnightblue" stroke="midnightblue" points="1586.72,-182.58 1576.2,-183.86 1585.23,-189.41 1586.72,-182.58"/>
</g>
<!-- Node39&#45;&gt;Node29 -->
<g id="edge84" class="edge">
<title>Node39&#45;&gt;Node29</title>
<path fill="none" stroke="midnightblue" d="M1825.86,-229.98C1825.72,-221.58 1825.5,-208.48 1825.31,-197.66"/>
<polygon fill="midnightblue" stroke="midnightblue" points="1828.81,-197.45 1825.14,-187.51 1821.81,-197.57 1828.81,-197.45"/>
</g>
<!-- Node39&#45;&gt;Node31 -->
<g id="edge82" class="edge">
<title>Node39&#45;&gt;Node31</title>
<path fill="none" stroke="midnightblue" d="M1856.66,-229.98C1894.35,-219.5 1958.41,-201.69 1999.95,-190.13"/>
<polygon fill="midnightblue" stroke="midnightblue" points="2001.04,-193.46 2009.74,-187.41 1999.17,-186.72 2001.04,-193.46"/>
</g>
<!-- Node40&#45;&gt;Node13 -->
<g id="edge86" class="edge">
<title>Node40&#45;&gt;Node13</title>
<path fill="none" stroke="midnightblue" d="M1479.83,-291.15C1485.53,-264.37 1503.77,-184.99 1523,-168 1581.85,-116 1628.16,-171.57 1696,-132 1715.78,-120.46 1732.23,-99.59 1742.29,-84.6"/>
<polygon fill="midnightblue" stroke="midnightblue" points="1745.51,-86.08 1747.95,-75.77 1739.61,-82.3 1745.51,-86.08"/>
</g>
<!-- Node40&#45;&gt;Node22 -->
<g id="edge88" class="edge">
<title>Node40&#45;&gt;Node22</title>
<path fill="none" stroke="midnightblue" d="M1408.21,-291.49C1341.51,-283.11 1238.2,-269.49 1149,-255 1141.26,-253.74 1133.1,-252.32 1125.1,-250.86"/>
<polygon fill="midnightblue" stroke="midnightblue" points="1125.57,-247.39 1115.1,-249.01 1124.3,-254.27 1125.57,-247.39"/>
</g>
<!-- Node40&#45;&gt;Node29 -->
<g id="edge87" class="edge">
<title>Node40&#45;&gt;Node29</title>
<path fill="none" stroke="midnightblue" d="M1501.71,-291.45C1541.14,-277.26 1622.71,-248.02 1692,-224 1725.08,-212.53 1762.92,-199.76 1789.75,-190.77"/>
<polygon fill="midnightblue" stroke="midnightblue" points="1791.09,-194.01 1799.46,-187.51 1788.87,-187.37 1791.09,-194.01"/>
</g>
<!-- Node41&#45;&gt;Node13 -->
<g id="edge92" class="edge">
<title>Node41&#45;&gt;Node13</title>
<path fill="none" stroke="midnightblue" d="M2015.76,-224.17C1994.63,-198.17 1946.37,-143.01 1894,-112 1865.64,-95.21 1830.31,-83.95 1802.11,-76.89"/>
<polygon fill="midnightblue" stroke="midnightblue" points="1802.61,-73.41 1792.07,-74.48 1800.97,-80.22 1802.61,-73.41"/>
</g>
<!-- Node41&#45;&gt;Node14 -->
<g id="edge90" class="edge">
<title>Node41&#45;&gt;Node14</title>
<path fill="none" stroke="midnightblue" d="M1947.87,-225.27C1944.88,-224.83 1941.91,-224.41 1939,-224 1799,-204.5 1763.31,-205.14 1623,-188 1610.97,-186.53 1597.78,-184.83 1586.18,-183.31"/>
<polygon fill="midnightblue" stroke="midnightblue" points="1586.42,-179.81 1576.05,-181.97 1585.51,-186.75 1586.42,-179.81"/>
</g>
<!-- Node41&#45;&gt;Node29 -->
<g id="edge93" class="edge">
<title>Node41&#45;&gt;Node29</title>
<path fill="none" stroke="midnightblue" d="M1979.38,-224.47C1944.08,-214.08 1896.56,-200.08 1863.61,-190.37"/>
<polygon fill="midnightblue" stroke="midnightblue" points="1864.46,-186.97 1853.88,-187.51 1862.48,-193.69 1864.46,-186.97"/>
</g>
<!-- Node41&#45;&gt;Node31 -->
<g id="edge91" class="edge">
<title>Node41&#45;&gt;Node31</title>
<path fill="none" stroke="midnightblue" d="M2030.08,-224.4C2031.83,-216.38 2034.05,-206.23 2035.94,-197.57"/>
<polygon fill="midnightblue" stroke="midnightblue" points="2039.39,-198.17 2038.11,-187.66 2032.55,-196.68 2039.39,-198.17"/>
</g>
</g>
</svg>
