<?xml version="1.0" encoding="UTF-8" standalone="no"?>
<!DOCTYPE svg PUBLIC "-//W3C//DTD SVG 1.1//EN"
 "http://www.w3.org/Graphics/SVG/1.1/DTD/svg11.dtd">
<!-- Generated by graphviz version 2.43.0 (0)
 -->
<!-- Title: src/Systems/RenderingSystem.hpp Pages: 1 -->
<svg width="1145pt" height="319pt"
 viewBox="0.00 0.00 1145.00 319.00" xmlns="http://www.w3.org/2000/svg" xmlns:xlink="http://www.w3.org/1999/xlink">
<g id="graph0" class="graph" transform="scale(1 1) rotate(0) translate(4 315)">
<title>src/Systems/RenderingSystem.hpp</title>
<polygon fill="white" stroke="transparent" points="-4,4 -4,-315 1141,-315 1141,4 -4,4"/>
<!-- Node1 -->
<g id="node1" class="node">
<title>Node1</title>
<g id="a_node1"><a xlink:title=" ">
<polygon fill="#bfbfbf" stroke="black" points="348,-291.5 348,-310.5 534,-310.5 534,-291.5 348,-291.5"/>
<text text-anchor="middle" x="441" y="-298.5" font-family="Helvetica,sans-Serif" font-size="10.00">src/Systems/RenderingSystem.hpp</text>
</a>
</g>
</g>
<!-- Node2 -->
<g id="node2" class="node">
<title>Node2</title>
<g id="a_node2"><a xlink:title=" ">
<polygon fill="white" stroke="#bfbfbf" points="187,-168.5 187,-187.5 245,-187.5 245,-168.5 187,-168.5"/>
<text text-anchor="middle" x="216" y="-175.5" font-family="Helvetica,sans-Serif" font-size="10.00">memory</text>
</a>
</g>
</g>
<!-- Node1&#45;&gt;Node2 -->
<g id="edge1" class="edge">
<title>Node1&#45;&gt;Node2</title>
<path fill="none" stroke="midnightblue" d="M422.49,-291.39C403.78,-282.58 374.13,-268.34 349,-255 324.56,-242.02 319.02,-237.74 295,-224 276.62,-213.49 255.81,-201.64 240.16,-192.73"/>
<polygon fill="midnightblue" stroke="midnightblue" points="241.58,-189.51 231.15,-187.61 238.12,-195.6 241.58,-189.51"/>
</g>
<!-- Node3 -->
<g id="node3" class="node">
<title>Node3</title>
<g id="a_node3"><a xlink:href="_types_8hpp.html" target="_top" xlink:title=" ">
<polygon fill="white" stroke="black" points="796.5,-230 796.5,-249 909.5,-249 909.5,-230 796.5,-230"/>
<text text-anchor="middle" x="853" y="-237" font-family="Helvetica,sans-Serif" font-size="10.00">Common/Types.hpp</text>
</a>
</g>
</g>
<!-- Node1&#45;&gt;Node3 -->
<g id="edge2" class="edge">
<title>Node1&#45;&gt;Node3</title>
<path fill="none" stroke="midnightblue" d="M522.05,-291.48C592.36,-283.6 696.74,-270.75 787,-255 793.37,-253.89 800.06,-252.58 806.63,-251.22"/>
<polygon fill="midnightblue" stroke="midnightblue" points="807.75,-254.56 816.8,-249.05 806.29,-247.71 807.75,-254.56"/>
</g>
<!-- Node4 -->
<g id="node4" class="node">
<title>Node4</title>
<g id="a_node4"><a xlink:href="_registry_8hpp.html" target="_top" xlink:title=" ">
<polygon fill="white" stroke="black" points="964,-230 964,-249 1062,-249 1062,-230 964,-230"/>
<text text-anchor="middle" x="1013" y="-237" font-family="Helvetica,sans-Serif" font-size="10.00">ECS/Registry.hpp</text>
</a>
</g>
</g>
<!-- Node1&#45;&gt;Node4 -->
<g id="edge3" class="edge">
<title>Node1&#45;&gt;Node4</title>
<path fill="none" stroke="midnightblue" d="M534.4,-292.78C630.69,-284.97 785.09,-271.4 918,-255 929.53,-253.58 941.81,-251.86 953.58,-250.11"/>
<polygon fill="midnightblue" stroke="midnightblue" points="954.4,-253.52 963.77,-248.56 953.36,-246.6 954.4,-253.52"/>
</g>
<!-- Node10 -->
<g id="node10" class="node">
<title>Node10</title>
<g id="a_node10"><a xlink:href="_shader_program_8hpp.html" target="_top" xlink:title=" ">
<polygon fill="white" stroke="black" points="358.5,-230 358.5,-249 523.5,-249 523.5,-230 358.5,-230"/>
<text text-anchor="middle" x="441" y="-237" font-family="Helvetica,sans-Serif" font-size="10.00">Rendering/ShaderProgram.hpp</text>
</a>
</g>
</g>
<!-- Node1&#45;&gt;Node10 -->
<g id="edge10" class="edge">
<title>Node1&#45;&gt;Node10</title>
<path fill="none" stroke="midnightblue" d="M441,-291.48C441,-283.08 441,-269.98 441,-259.16"/>
<polygon fill="midnightblue" stroke="midnightblue" points="444.5,-259.01 441,-249.01 437.5,-259.01 444.5,-259.01"/>
</g>
<!-- Node18 -->
<g id="node18" class="node">
<title>Node18</title>
<g id="a_node18"><a xlink:href="_scene_frame_buffer_8hpp.html" target="_top" xlink:title=" ">
<polygon fill="white" stroke="black" points="0,-224.5 0,-254.5 134,-254.5 134,-224.5 0,-224.5"/>
<text text-anchor="start" x="8" y="-242.5" font-family="Helvetica,sans-Serif" font-size="10.00">Rendering/FrameBuffers</text>
<text text-anchor="middle" x="67" y="-231.5" font-family="Helvetica,sans-Serif" font-size="10.00">/SceneFrameBuffer.hpp</text>
</a>
</g>
</g>
<!-- Node1&#45;&gt;Node18 -->
<g id="edge20" class="edge">
<title>Node1&#45;&gt;Node18</title>
<path fill="none" stroke="midnightblue" d="M379.82,-291.47C321.74,-283.21 231.73,-269.99 144.22,-255.17"/>
<polygon fill="midnightblue" stroke="midnightblue" points="144.56,-251.68 134.11,-253.45 143.38,-258.58 144.56,-251.68"/>
</g>
<!-- Node21 -->
<g id="node21" class="node">
<title>Node21</title>
<g id="a_node21"><a xlink:href="_depth_frame_buffer_8hpp.html" target="_top" xlink:title=" ">
<polygon fill="white" stroke="black" points="152,-224.5 152,-254.5 286,-254.5 286,-224.5 152,-224.5"/>
<text text-anchor="start" x="160" y="-242.5" font-family="Helvetica,sans-Serif" font-size="10.00">Rendering/FrameBuffers</text>
<text text-anchor="middle" x="219" y="-231.5" font-family="Helvetica,sans-Serif" font-size="10.00">/DepthFrameBuffer.hpp</text>
</a>
</g>
</g>
<!-- Node1&#45;&gt;Node21 -->
<g id="edge28" class="edge">
<title>Node1&#45;&gt;Node21</title>
<path fill="none" stroke="midnightblue" d="M409.19,-291.48C375.89,-282.55 322.76,-268.31 281.1,-257.14"/>
<polygon fill="midnightblue" stroke="midnightblue" points="281.89,-253.73 271.32,-254.52 280.07,-260.49 281.89,-253.73"/>
</g>
<!-- Node22 -->
<g id="node22" class="node">
<title>Node22</title>
<g id="a_node22"><a xlink:href="_cube_map_8hpp.html" target="_top" xlink:title=" ">
<polygon fill="white" stroke="black" points="642,-230 642,-249 778,-249 778,-230 642,-230"/>
<text text-anchor="middle" x="710" y="-237" font-family="Helvetica,sans-Serif" font-size="10.00">Rendering/CubeMap.hpp</text>
</a>
</g>
</g>
<!-- Node1&#45;&gt;Node22 -->
<g id="edge32" class="edge">
<title>Node1&#45;&gt;Node22</title>
<path fill="none" stroke="midnightblue" d="M479.54,-291.48C527.48,-280.87 609.36,-262.76 661.51,-251.22"/>
<polygon fill="midnightblue" stroke="midnightblue" points="662.52,-254.59 671.53,-249.01 661.01,-247.75 662.52,-254.59"/>
</g>
<!-- Node5 -->
<g id="node5" class="node">
<title>Node5</title>
<g id="a_node5"><a xlink:title=" ">
<polygon fill="white" stroke="#bfbfbf" points="874,-168.5 874,-187.5 960,-187.5 960,-168.5 874,-168.5"/>
<text text-anchor="middle" x="917" y="-175.5" font-family="Helvetica,sans-Serif" font-size="10.00">unordered_set</text>
</a>
</g>
</g>
<!-- Node4&#45;&gt;Node5 -->
<g id="edge4" class="edge">
<title>Node4&#45;&gt;Node5</title>
<path fill="none" stroke="midnightblue" d="M999.25,-229.98C983.63,-220.3 957.94,-204.37 939.42,-192.89"/>
<polygon fill="midnightblue" stroke="midnightblue" points="941.07,-189.8 930.73,-187.51 937.38,-195.75 941.07,-189.8"/>
</g>
<!-- Node6 -->
<g id="node6" class="node">
<title>Node6</title>
<g id="a_node6"><a xlink:href="_entity_provider_8hpp.html" target="_top" xlink:title="Manages a pool of unused entity identifiers and provides mechanisms for requesting and removing them.">
<polygon fill="white" stroke="black" points="1009,-112.5 1009,-131.5 1137,-131.5 1137,-112.5 1009,-112.5"/>
<text text-anchor="middle" x="1073" y="-119.5" font-family="Helvetica,sans-Serif" font-size="10.00">ECS/EntityProvider.hpp</text>
</a>
</g>
</g>
<!-- Node4&#45;&gt;Node6 -->
<g id="edge5" class="edge">
<title>Node4&#45;&gt;Node6</title>
<path fill="none" stroke="midnightblue" d="M1040.01,-229.87C1059.12,-222.18 1083.34,-208.87 1095,-188 1103.5,-172.79 1095.11,-153.74 1086.35,-140.21"/>
<polygon fill="midnightblue" stroke="midnightblue" points="1089.06,-137.98 1080.43,-131.83 1083.34,-142.02 1089.06,-137.98"/>
</g>
<!-- Node9 -->
<g id="node9" class="node">
<title>Node9</title>
<g id="a_node9"><a xlink:href="_sparse_set_8hpp.html" target="_top" xlink:title=" ">
<polygon fill="white" stroke="black" points="978,-168.5 978,-187.5 1086,-187.5 1086,-168.5 978,-168.5"/>
<text text-anchor="middle" x="1032" y="-175.5" font-family="Helvetica,sans-Serif" font-size="10.00">ECS/SparseSet.hpp</text>
</a>
</g>
</g>
<!-- Node4&#45;&gt;Node9 -->
<g id="edge8" class="edge">
<title>Node4&#45;&gt;Node9</title>
<path fill="none" stroke="midnightblue" d="M1015.72,-229.98C1018.43,-221.49 1022.67,-208.2 1026.15,-197.32"/>
<polygon fill="midnightblue" stroke="midnightblue" points="1029.57,-198.1 1029.28,-187.51 1022.91,-195.97 1029.57,-198.1"/>
</g>
<!-- Node7 -->
<g id="node7" class="node">
<title>Node7</title>
<g id="a_node7"><a xlink:title=" ">
<polygon fill="white" stroke="#bfbfbf" points="1012.5,-56.5 1012.5,-75.5 1065.5,-75.5 1065.5,-56.5 1012.5,-56.5"/>
<text text-anchor="middle" x="1039" y="-63.5" font-family="Helvetica,sans-Serif" font-size="10.00">stdlib.h</text>
</a>
</g>
</g>
<!-- Node6&#45;&gt;Node7 -->
<g id="edge6" class="edge">
<title>Node6&#45;&gt;Node7</title>
<path fill="none" stroke="midnightblue" d="M1067.39,-112.08C1062.63,-104.53 1055.68,-93.49 1049.85,-84.23"/>
<polygon fill="midnightblue" stroke="midnightblue" points="1052.8,-82.35 1044.51,-75.75 1046.88,-86.08 1052.8,-82.35"/>
</g>
<!-- Node8 -->
<g id="node8" class="node">
<title>Node8</title>
<g id="a_node8"><a xlink:title=" ">
<polygon fill="white" stroke="#bfbfbf" points="1083.5,-56.5 1083.5,-75.5 1130.5,-75.5 1130.5,-56.5 1083.5,-56.5"/>
<text text-anchor="middle" x="1107" y="-63.5" font-family="Helvetica,sans-Serif" font-size="10.00">queue</text>
</a>
</g>
</g>
<!-- Node6&#45;&gt;Node8 -->
<g id="edge7" class="edge">
<title>Node6&#45;&gt;Node8</title>
<path fill="none" stroke="midnightblue" d="M1078.61,-112.08C1083.37,-104.53 1090.32,-93.49 1096.15,-84.23"/>
<polygon fill="midnightblue" stroke="midnightblue" points="1099.12,-86.08 1101.49,-75.75 1093.2,-82.35 1099.12,-86.08"/>
</g>
<!-- Node9&#45;&gt;Node6 -->
<g id="edge9" class="edge">
<title>Node9&#45;&gt;Node6</title>
<path fill="none" stroke="midnightblue" d="M1038.77,-168.08C1044.56,-160.46 1053.06,-149.26 1060.14,-139.94"/>
<polygon fill="midnightblue" stroke="midnightblue" points="1063.1,-141.83 1066.36,-131.75 1057.52,-137.6 1063.1,-141.83"/>
</g>
<!-- Node10&#45;&gt;Node2 -->
<g id="edge13" class="edge">
<title>Node10&#45;&gt;Node2</title>
<path fill="none" stroke="midnightblue" d="M408.76,-229.98C368.18,-219.24 298.52,-200.82 254.99,-189.31"/>
<polygon fill="midnightblue" stroke="midnightblue" points="255.88,-185.92 245.31,-186.75 254.09,-192.69 255.88,-185.92"/>
</g>
<!-- Node11 -->
<g id="node11" class="node">
<title>Node11</title>
<g id="a_node11"><a xlink:title=" ">
<polygon fill="white" stroke="#bfbfbf" points="154.5,-112.5 154.5,-131.5 225.5,-131.5 225.5,-112.5 154.5,-112.5"/>
<text text-anchor="middle" x="190" y="-119.5" font-family="Helvetica,sans-Serif" font-size="10.00">glad/glad.h</text>
</a>
</g>
</g>
<!-- Node10&#45;&gt;Node11 -->
<g id="edge11" class="edge">
<title>Node10&#45;&gt;Node11</title>
<path fill="none" stroke="midnightblue" d="M408.44,-229.92C377.65,-221.24 330.54,-206.48 292,-188 261.79,-173.51 229.61,-151.83 209.66,-137.56"/>
<polygon fill="midnightblue" stroke="midnightblue" points="211.55,-134.61 201.4,-131.57 207.44,-140.27 211.55,-134.61"/>
</g>
<!-- Node12 -->
<g id="node12" class="node">
<title>Node12</title>
<g id="a_node12"><a xlink:title=" ">
<polygon fill="white" stroke="#bfbfbf" points="301,-168.5 301,-187.5 379,-187.5 379,-168.5 301,-168.5"/>
<text text-anchor="middle" x="340" y="-175.5" font-family="Helvetica,sans-Serif" font-size="10.00">glm/glm.hpp</text>
</a>
</g>
</g>
<!-- Node10&#45;&gt;Node12 -->
<g id="edge12" class="edge">
<title>Node10&#45;&gt;Node12</title>
<path fill="none" stroke="midnightblue" d="M426.53,-229.98C410.03,-220.25 382.82,-204.23 363.32,-192.74"/>
<polygon fill="midnightblue" stroke="midnightblue" points="364.84,-189.57 354.44,-187.51 361.28,-195.6 364.84,-189.57"/>
</g>
<!-- Node13 -->
<g id="node13" class="node">
<title>Node13</title>
<g id="a_node13"><a xlink:title=" ">
<polygon fill="white" stroke="#bfbfbf" points="670,-168.5 670,-187.5 714,-187.5 714,-168.5 670,-168.5"/>
<text text-anchor="middle" x="692" y="-175.5" font-family="Helvetica,sans-Serif" font-size="10.00">string</text>
</a>
</g>
</g>
<!-- Node10&#45;&gt;Node13 -->
<g id="edge14" class="edge">
<title>Node10&#45;&gt;Node13</title>
<path fill="none" stroke="midnightblue" d="M480.7,-229.94C522.7,-220.75 591.13,-205.41 659.95,-187.91"/>
<polygon fill="midnightblue" stroke="midnightblue" points="660.84,-191.3 669.66,-185.43 659.1,-184.52 660.84,-191.3"/>
</g>
<!-- Node14 -->
<g id="node14" class="node">
<title>Node14</title>
<g id="a_node14"><a xlink:title=" ">
<polygon fill="white" stroke="#bfbfbf" points="397.5,-168.5 397.5,-187.5 490.5,-187.5 490.5,-168.5 397.5,-168.5"/>
<text text-anchor="middle" x="444" y="-175.5" font-family="Helvetica,sans-Serif" font-size="10.00">unordered_map</text>
</a>
</g>
</g>
<!-- Node10&#45;&gt;Node14 -->
<g id="edge15" class="edge">
<title>Node10&#45;&gt;Node14</title>
<path fill="none" stroke="midnightblue" d="M441.43,-229.98C441.85,-221.58 442.51,-208.48 443.06,-197.66"/>
<polygon fill="midnightblue" stroke="midnightblue" points="446.56,-197.67 443.57,-187.51 439.57,-197.32 446.56,-197.67"/>
</g>
<!-- Node15 -->
<g id="node15" class="node">
<title>Node15</title>
<g id="a_node15"><a xlink:href="_shader_8hpp.html" target="_top" xlink:title=" ">
<polygon fill="white" stroke="black" points="508.5,-168.5 508.5,-187.5 651.5,-187.5 651.5,-168.5 508.5,-168.5"/>
<text text-anchor="middle" x="580" y="-175.5" font-family="Helvetica,sans-Serif" font-size="10.00">AssetManager/Shader.hpp</text>
</a>
</g>
</g>
<!-- Node10&#45;&gt;Node15 -->
<g id="edge16" class="edge">
<title>Node10&#45;&gt;Node15</title>
<path fill="none" stroke="midnightblue" d="M460.92,-229.98C484.45,-219.9 523.81,-203.05 550.79,-191.5"/>
<polygon fill="midnightblue" stroke="midnightblue" points="552.31,-194.66 560.12,-187.51 549.55,-188.23 552.31,-194.66"/>
</g>
<!-- Node15&#45;&gt;Node11 -->
<g id="edge17" class="edge">
<title>Node15&#45;&gt;Node11</title>
<path fill="none" stroke="midnightblue" d="M518.2,-168.44C439.65,-157.57 305.86,-139.04 235.82,-129.34"/>
<polygon fill="midnightblue" stroke="midnightblue" points="235.94,-125.83 225.56,-127.92 234.98,-132.76 235.94,-125.83"/>
</g>
<!-- Node16 -->
<g id="node16" class="node">
<title>Node16</title>
<g id="a_node16"><a xlink:href="_asset_8hpp.html" target="_top" xlink:title=" ">
<polygon fill="white" stroke="black" points="509.5,-56.5 509.5,-75.5 646.5,-75.5 646.5,-56.5 509.5,-56.5"/>
<text text-anchor="middle" x="578" y="-63.5" font-family="Helvetica,sans-Serif" font-size="10.00">AssetManager/Asset.hpp</text>
</a>
</g>
</g>
<!-- Node15&#45;&gt;Node16 -->
<g id="edge18" class="edge">
<title>Node15&#45;&gt;Node16</title>
<path fill="none" stroke="midnightblue" d="M579.84,-168.37C579.52,-150.62 578.78,-109.67 578.34,-85.6"/>
<polygon fill="midnightblue" stroke="midnightblue" points="581.84,-85.53 578.16,-75.59 574.84,-85.65 581.84,-85.53"/>
</g>
<!-- Node17 -->
<g id="node17" class="node">
<title>Node17</title>
<g id="a_node17"><a xlink:title=" ">
<polygon fill="white" stroke="#bfbfbf" points="495,-0.5 495,-19.5 563,-19.5 563,-0.5 495,-0.5"/>
<text text-anchor="middle" x="529" y="-7.5" font-family="Helvetica,sans-Serif" font-size="10.00">filesystem</text>
</a>
</g>
</g>
<!-- Node16&#45;&gt;Node17 -->
<g id="edge19" class="edge">
<title>Node16&#45;&gt;Node17</title>
<path fill="none" stroke="midnightblue" d="M569.91,-56.08C562.84,-48.3 552.41,-36.8 543.85,-27.37"/>
<polygon fill="midnightblue" stroke="midnightblue" points="546.25,-24.8 536.94,-19.75 541.07,-29.51 546.25,-24.8"/>
</g>
<!-- Node18&#45;&gt;Node2 -->
<g id="edge21" class="edge">
<title>Node18&#45;&gt;Node2</title>
<path fill="none" stroke="midnightblue" d="M102.31,-224.4C127.42,-214.37 160.84,-201.03 184.94,-191.4"/>
<polygon fill="midnightblue" stroke="midnightblue" points="186.33,-194.62 194.32,-187.66 183.73,-188.12 186.33,-194.62"/>
</g>
<!-- Node18&#45;&gt;Node11 -->
<g id="edge22" class="edge">
<title>Node18&#45;&gt;Node11</title>
<path fill="none" stroke="midnightblue" d="M48.16,-224.43C30.86,-209.78 9.89,-186.45 24,-168 38.6,-148.91 100.47,-136.04 144.39,-129.11"/>
<polygon fill="midnightblue" stroke="midnightblue" points="144.94,-132.57 154.3,-127.6 143.88,-125.65 144.94,-132.57"/>
</g>
<!-- Node19 -->
<g id="node19" class="node">
<title>Node19</title>
<g id="a_node19"><a xlink:href="_texture_8hpp.html" target="_top" xlink:title=" ">
<polygon fill="white" stroke="black" points="43,-168.5 43,-187.5 169,-187.5 169,-168.5 43,-168.5"/>
<text text-anchor="middle" x="106" y="-175.5" font-family="Helvetica,sans-Serif" font-size="10.00">Rendering/Texture.hpp</text>
</a>
</g>
</g>
<!-- Node18&#45;&gt;Node19 -->
<g id="edge23" class="edge">
<title>Node18&#45;&gt;Node19</title>
<path fill="none" stroke="midnightblue" d="M76.24,-224.4C81.79,-215.93 88.89,-205.1 94.77,-196.14"/>
<polygon fill="midnightblue" stroke="midnightblue" points="97.77,-197.94 100.33,-187.66 91.92,-194.1 97.77,-197.94"/>
</g>
<!-- Node19&#45;&gt;Node11 -->
<g id="edge24" class="edge">
<title>Node19&#45;&gt;Node11</title>
<path fill="none" stroke="midnightblue" d="M119.5,-168.32C132.6,-159.9 152.71,-146.97 168.11,-137.07"/>
<polygon fill="midnightblue" stroke="midnightblue" points="170.02,-140.01 176.54,-131.65 166.23,-134.12 170.02,-140.01"/>
</g>
<!-- Node20 -->
<g id="node20" class="node">
<title>Node20</title>
<g id="a_node20"><a xlink:href="_image_8hpp.html" target="_top" xlink:title=" ">
<polygon fill="white" stroke="black" points="410.5,-112.5 410.5,-131.5 551.5,-131.5 551.5,-112.5 410.5,-112.5"/>
<text text-anchor="middle" x="481" y="-119.5" font-family="Helvetica,sans-Serif" font-size="10.00">AssetManager/Image.hpp</text>
</a>
</g>
</g>
<!-- Node19&#45;&gt;Node20 -->
<g id="edge25" class="edge">
<title>Node19&#45;&gt;Node20</title>
<path fill="none" stroke="midnightblue" d="M165.42,-168.44C232.35,-158.81 340.98,-143.16 411.71,-132.98"/>
<polygon fill="midnightblue" stroke="midnightblue" points="412.46,-136.41 421.86,-131.52 411.46,-129.48 412.46,-136.41"/>
</g>
<!-- Node20&#45;&gt;Node16 -->
<g id="edge27" class="edge">
<title>Node20&#45;&gt;Node16</title>
<path fill="none" stroke="midnightblue" d="M496.58,-112.32C512,-103.74 535.81,-90.49 553.71,-80.52"/>
<polygon fill="midnightblue" stroke="midnightblue" points="555.42,-83.58 562.45,-75.65 552.01,-77.46 555.42,-83.58"/>
</g>
<!-- Node20&#45;&gt;Node17 -->
<g id="edge26" class="edge">
<title>Node20&#45;&gt;Node17</title>
<path fill="none" stroke="midnightblue" d="M482.7,-112.3C485.39,-99.56 491.21,-75.25 500,-56 504.49,-46.17 510.88,-35.99 516.52,-27.8"/>
<polygon fill="midnightblue" stroke="midnightblue" points="519.47,-29.7 522.43,-19.53 513.77,-25.63 519.47,-29.7"/>
</g>
<!-- Node21&#45;&gt;Node2 -->
<g id="edge29" class="edge">
<title>Node21&#45;&gt;Node2</title>
<path fill="none" stroke="midnightblue" d="M218.29,-224.4C217.89,-216.47 217.38,-206.46 216.95,-197.86"/>
<polygon fill="midnightblue" stroke="midnightblue" points="220.44,-197.47 216.44,-187.66 213.44,-197.82 220.44,-197.47"/>
</g>
<!-- Node21&#45;&gt;Node11 -->
<g id="edge30" class="edge">
<title>Node21&#45;&gt;Node11</title>
<path fill="none" stroke="midnightblue" d="M152.5,-224.46C102.55,-213.24 41.5,-197.82 34,-188 2.74,-147.06 87.73,-131.7 144.22,-126.09"/>
<polygon fill="midnightblue" stroke="midnightblue" points="144.77,-129.56 154.41,-125.15 144.13,-122.59 144.77,-129.56"/>
</g>
<!-- Node21&#45;&gt;Node19 -->
<g id="edge31" class="edge">
<title>Node21&#45;&gt;Node19</title>
<path fill="none" stroke="midnightblue" d="M192.22,-224.4C173.94,-214.77 149.85,-202.09 131.79,-192.58"/>
<polygon fill="midnightblue" stroke="midnightblue" points="132.92,-189.22 122.44,-187.66 129.66,-195.41 132.92,-189.22"/>
</g>
<!-- Node22&#45;&gt;Node11 -->
<g id="edge33" class="edge">
<title>Node22&#45;&gt;Node11</title>
<path fill="none" stroke="midnightblue" d="M715.62,-229.87C724.4,-215.17 738.83,-185.23 723,-168 706.59,-150.15 362.12,-131.47 235.86,-125.2"/>
<polygon fill="midnightblue" stroke="midnightblue" points="235.9,-121.7 225.74,-124.7 235.56,-128.69 235.9,-121.7"/>
</g>
<!-- Node22&#45;&gt;Node13 -->
<g id="edge34" class="edge">
<title>Node22&#45;&gt;Node13</title>
<path fill="none" stroke="midnightblue" d="M707.42,-229.98C704.85,-221.49 700.83,-208.2 697.54,-197.32"/>
<polygon fill="midnightblue" stroke="midnightblue" points="700.82,-196.07 694.57,-187.51 694.12,-198.09 700.82,-196.07"/>
</g>
<!-- Node22&#45;&gt;Node20 -->
<g id="edge36" class="edge">
<title>Node22&#45;&gt;Node20</title>
<path fill="none" stroke="midnightblue" d="M722.69,-229.99C741.69,-216.25 773.51,-188.6 756,-168 731.48,-139.14 634.11,-128.75 562.16,-125.03"/>
<polygon fill="midnightblue" stroke="midnightblue" points="561.89,-121.52 551.74,-124.53 561.56,-128.51 561.89,-121.52"/>
</g>
<!-- Node23 -->
<g id="node23" class="node">
<title>Node23</title>
<g id="a_node23"><a xlink:title=" ">
<polygon fill="white" stroke="#bfbfbf" points="808.5,-168.5 808.5,-187.5 855.5,-187.5 855.5,-168.5 808.5,-168.5"/>
<text text-anchor="middle" x="832" y="-175.5" font-family="Helvetica,sans-Serif" font-size="10.00">vector</text>
</a>
</g>
</g>
<!-- Node22&#45;&gt;Node23 -->
<g id="edge35" class="edge">
<title>Node22&#45;&gt;Node23</title>
<path fill="none" stroke="midnightblue" d="M727.48,-229.98C747.86,-220.03 781.78,-203.49 805.42,-191.96"/>
<polygon fill="midnightblue" stroke="midnightblue" points="807.1,-195.04 814.55,-187.51 804.03,-188.75 807.1,-195.04"/>
</g>
</g>
</svg>
