<?xml version="1.0" encoding="UTF-8" standalone="no"?>
<!DOCTYPE svg PUBLIC "-//W3C//DTD SVG 1.1//EN"
 "http://www.w3.org/Graphics/SVG/1.1/DTD/svg11.dtd">
<!-- Generated by graphviz version 2.43.0 (0)
 -->
<!-- Title: src/Systems/RenderingSystem.cpp Pages: 1 -->
<svg width="861pt" height="308pt"
 viewBox="0.00 0.00 861.00 308.00" xmlns="http://www.w3.org/2000/svg" xmlns:xlink="http://www.w3.org/1999/xlink">
<g id="graph0" class="graph" transform="scale(1 1) rotate(0) translate(4 304)">
<title>src/Systems/RenderingSystem.cpp</title>
<polygon fill="white" stroke="transparent" points="-4,4 -4,-304 857,-304 857,4 -4,4"/>
<!-- Node1 -->
<g id="node1" class="node">
<title>Node1</title>
<g id="a_node1"><a xlink:title=" ">
<polygon fill="#bfbfbf" stroke="black" points="168.5,-280.5 168.5,-299.5 353.5,-299.5 353.5,-280.5 168.5,-280.5"/>
<text text-anchor="middle" x="261" y="-287.5" font-family="Helvetica,sans-Serif" font-size="10.00">src/Systems/RenderingSystem.cpp</text>
</a>
</g>
</g>
<!-- Node2 -->
<g id="node2" class="node">
<title>Node2</title>
<g id="a_node2"><a xlink:title=" ">
<polygon fill="white" stroke="#bfbfbf" points="98,-224.5 98,-243.5 158,-243.5 158,-224.5 98,-224.5"/>
<text text-anchor="middle" x="128" y="-231.5" font-family="Helvetica,sans-Serif" font-size="10.00">iostream</text>
</a>
</g>
</g>
<!-- Node1&#45;&gt;Node2 -->
<g id="edge1" class="edge">
<title>Node1&#45;&gt;Node2</title>
<path fill="none" stroke="midnightblue" d="M239.93,-280.44C217.94,-271.52 183.27,-257.44 158.34,-247.32"/>
<polygon fill="midnightblue" stroke="midnightblue" points="159.56,-244.04 148.98,-243.52 156.92,-250.52 159.56,-244.04"/>
</g>
<!-- Node3 -->
<g id="node3" class="node">
<title>Node3</title>
<g id="a_node3"><a xlink:href="_rendering_system_8hpp.html" target="_top" xlink:title=" ">
<polygon fill="white" stroke="black" points="176.5,-224.5 176.5,-243.5 345.5,-243.5 345.5,-224.5 176.5,-224.5"/>
<text text-anchor="middle" x="261" y="-231.5" font-family="Helvetica,sans-Serif" font-size="10.00">Systems/RenderingSystem.hpp</text>
</a>
</g>
</g>
<!-- Node1&#45;&gt;Node3 -->
<g id="edge2" class="edge">
<title>Node1&#45;&gt;Node3</title>
<path fill="none" stroke="midnightblue" d="M261,-280.08C261,-273.01 261,-262.86 261,-253.99"/>
<polygon fill="midnightblue" stroke="midnightblue" points="264.5,-253.75 261,-243.75 257.5,-253.75 264.5,-253.75"/>
</g>
<!-- Node11 -->
<g id="node11" class="node">
<title>Node11</title>
<g id="a_node11"><a xlink:href="_camera_component_8hpp.html" target="_top" xlink:title=" ">
<polygon fill="white" stroke="black" points="402.5,-224.5 402.5,-243.5 599.5,-243.5 599.5,-224.5 402.5,-224.5"/>
<text text-anchor="middle" x="501" y="-231.5" font-family="Helvetica,sans-Serif" font-size="10.00">Components/CameraComponent.hpp</text>
</a>
</g>
</g>
<!-- Node1&#45;&gt;Node11 -->
<g id="edge11" class="edge">
<title>Node1&#45;&gt;Node11</title>
<path fill="none" stroke="midnightblue" d="M299.03,-280.44C340.81,-271.04 407.98,-255.93 453.27,-245.74"/>
<polygon fill="midnightblue" stroke="midnightblue" points="454.16,-249.13 463.15,-243.52 452.62,-242.3 454.16,-249.13"/>
</g>
<!-- Node4 -->
<g id="node4" class="node">
<title>Node4</title>
<g id="a_node4"><a xlink:title=" ">
<polygon fill="white" stroke="#bfbfbf" points="193,-168.5 193,-187.5 251,-187.5 251,-168.5 193,-168.5"/>
<text text-anchor="middle" x="222" y="-175.5" font-family="Helvetica,sans-Serif" font-size="10.00">memory</text>
</a>
</g>
</g>
<!-- Node3&#45;&gt;Node4 -->
<g id="edge3" class="edge">
<title>Node3&#45;&gt;Node4</title>
<path fill="none" stroke="midnightblue" d="M254.56,-224.08C249.05,-216.46 240.97,-205.26 234.24,-195.94"/>
<polygon fill="midnightblue" stroke="midnightblue" points="237.01,-193.81 228.32,-187.75 231.34,-197.91 237.01,-193.81"/>
</g>
<!-- Node5 -->
<g id="node5" class="node">
<title>Node5</title>
<g id="a_node5"><a xlink:title=" ">
<polygon fill="white" stroke="#bfbfbf" points="269.5,-168.5 269.5,-187.5 340.5,-187.5 340.5,-168.5 269.5,-168.5"/>
<text text-anchor="middle" x="305" y="-175.5" font-family="Helvetica,sans-Serif" font-size="10.00">glad/glad.h</text>
</a>
</g>
</g>
<!-- Node3&#45;&gt;Node5 -->
<g id="edge4" class="edge">
<title>Node3&#45;&gt;Node5</title>
<path fill="none" stroke="midnightblue" d="M268.27,-224.08C274.54,-216.38 283.79,-205.03 291.43,-195.65"/>
<polygon fill="midnightblue" stroke="midnightblue" points="294.27,-197.71 297.87,-187.75 288.84,-193.29 294.27,-197.71"/>
</g>
<!-- Node6 -->
<g id="node6" class="node">
<title>Node6</title>
<g id="a_node6"><a xlink:href="_registry_8hpp.html" target="_top" xlink:title=" ">
<polygon fill="white" stroke="black" points="77,-168.5 77,-187.5 175,-187.5 175,-168.5 77,-168.5"/>
<text text-anchor="middle" x="126" y="-175.5" font-family="Helvetica,sans-Serif" font-size="10.00">ECS/Registry.hpp</text>
</a>
</g>
</g>
<!-- Node3&#45;&gt;Node6 -->
<g id="edge5" class="edge">
<title>Node3&#45;&gt;Node6</title>
<path fill="none" stroke="midnightblue" d="M239.61,-224.44C217.29,-215.52 182.1,-201.44 156.79,-191.32"/>
<polygon fill="midnightblue" stroke="midnightblue" points="157.88,-187.98 147.29,-187.52 155.28,-194.48 157.88,-187.98"/>
</g>
<!-- Node7 -->
<g id="node7" class="node">
<title>Node7</title>
<g id="a_node7"><a xlink:href="_entity_provider_8hpp.html" target="_top" xlink:title="Manages a pool of unused entity identifiers and provides mechanisms for requesting and removing them.">
<polygon fill="white" stroke="black" points="31,-56.5 31,-75.5 159,-75.5 159,-56.5 31,-56.5"/>
<text text-anchor="middle" x="95" y="-63.5" font-family="Helvetica,sans-Serif" font-size="10.00">ECS/EntityProvider.hpp</text>
</a>
</g>
</g>
<!-- Node6&#45;&gt;Node7 -->
<g id="edge6" class="edge">
<title>Node6&#45;&gt;Node7</title>
<path fill="none" stroke="midnightblue" d="M125.67,-168.4C125,-155.78 122.98,-131.61 117,-112 114.11,-102.54 109.45,-92.6 105.16,-84.48"/>
<polygon fill="midnightblue" stroke="midnightblue" points="108.16,-82.67 100.25,-75.62 102.03,-86.07 108.16,-82.67"/>
</g>
<!-- Node10 -->
<g id="node10" class="node">
<title>Node10</title>
<g id="a_node10"><a xlink:href="_sparse_set_8hpp.html" target="_top" xlink:title=" ">
<polygon fill="white" stroke="black" points="0,-112.5 0,-131.5 108,-131.5 108,-112.5 0,-112.5"/>
<text text-anchor="middle" x="54" y="-119.5" font-family="Helvetica,sans-Serif" font-size="10.00">ECS/SparseSet.hpp</text>
</a>
</g>
</g>
<!-- Node6&#45;&gt;Node10 -->
<g id="edge9" class="edge">
<title>Node6&#45;&gt;Node10</title>
<path fill="none" stroke="midnightblue" d="M114.43,-168.32C103.58,-160.18 87.12,-147.84 74.12,-138.09"/>
<polygon fill="midnightblue" stroke="midnightblue" points="75.88,-135.03 65.78,-131.83 71.68,-140.63 75.88,-135.03"/>
</g>
<!-- Node8 -->
<g id="node8" class="node">
<title>Node8</title>
<g id="a_node8"><a xlink:title=" ">
<polygon fill="white" stroke="#bfbfbf" points="34.5,-0.5 34.5,-19.5 87.5,-19.5 87.5,-0.5 34.5,-0.5"/>
<text text-anchor="middle" x="61" y="-7.5" font-family="Helvetica,sans-Serif" font-size="10.00">stdlib.h</text>
</a>
</g>
</g>
<!-- Node7&#45;&gt;Node8 -->
<g id="edge7" class="edge">
<title>Node7&#45;&gt;Node8</title>
<path fill="none" stroke="midnightblue" d="M89.39,-56.08C84.63,-48.53 77.68,-37.49 71.85,-28.23"/>
<polygon fill="midnightblue" stroke="midnightblue" points="74.8,-26.35 66.51,-19.75 68.88,-30.08 74.8,-26.35"/>
</g>
<!-- Node9 -->
<g id="node9" class="node">
<title>Node9</title>
<g id="a_node9"><a xlink:title=" ">
<polygon fill="white" stroke="#bfbfbf" points="105.5,-0.5 105.5,-19.5 152.5,-19.5 152.5,-0.5 105.5,-0.5"/>
<text text-anchor="middle" x="129" y="-7.5" font-family="Helvetica,sans-Serif" font-size="10.00">queue</text>
</a>
</g>
</g>
<!-- Node7&#45;&gt;Node9 -->
<g id="edge8" class="edge">
<title>Node7&#45;&gt;Node9</title>
<path fill="none" stroke="midnightblue" d="M100.61,-56.08C105.37,-48.53 112.32,-37.49 118.15,-28.23"/>
<polygon fill="midnightblue" stroke="midnightblue" points="121.12,-30.08 123.49,-19.75 115.2,-26.35 121.12,-30.08"/>
</g>
<!-- Node10&#45;&gt;Node7 -->
<g id="edge10" class="edge">
<title>Node10&#45;&gt;Node7</title>
<path fill="none" stroke="midnightblue" d="M60.77,-112.08C66.56,-104.46 75.06,-93.26 82.14,-83.94"/>
<polygon fill="midnightblue" stroke="midnightblue" points="85.1,-85.83 88.36,-75.75 79.52,-81.6 85.1,-85.83"/>
</g>
<!-- Node12 -->
<g id="node12" class="node">
<title>Node12</title>
<g id="a_node12"><a xlink:title=" ">
<polygon fill="white" stroke="#bfbfbf" points="775,-112.5 775,-131.5 853,-131.5 853,-112.5 775,-112.5"/>
<text text-anchor="middle" x="814" y="-119.5" font-family="Helvetica,sans-Serif" font-size="10.00">glm/glm.hpp</text>
</a>
</g>
</g>
<!-- Node11&#45;&gt;Node12 -->
<g id="edge12" class="edge">
<title>Node11&#45;&gt;Node12</title>
<path fill="none" stroke="midnightblue" d="M586.05,-224.48C649.52,-216.95 730.06,-204.59 759,-188 778.57,-176.78 794.35,-155.85 803.9,-140.76"/>
<polygon fill="midnightblue" stroke="midnightblue" points="807.11,-142.23 809.26,-131.85 801.11,-138.62 807.11,-142.23"/>
</g>
<!-- Node13 -->
<g id="node13" class="node">
<title>Node13</title>
<g id="a_node13"><a xlink:title=" ">
<polygon fill="white" stroke="#bfbfbf" points="183.5,-112.5 183.5,-131.5 346.5,-131.5 346.5,-112.5 183.5,-112.5"/>
<text text-anchor="middle" x="265" y="-119.5" font-family="Helvetica,sans-Serif" font-size="10.00">glm/gtc/matrix_transform.hpp</text>
</a>
</g>
</g>
<!-- Node11&#45;&gt;Node13 -->
<g id="edge13" class="edge">
<title>Node11&#45;&gt;Node13</title>
<path fill="none" stroke="midnightblue" d="M477.32,-224.41C454.24,-215.85 418.29,-201.99 388,-188 378.32,-183.53 323.48,-154.3 290.38,-136.6"/>
<polygon fill="midnightblue" stroke="midnightblue" points="291.75,-133.36 281.28,-131.73 288.44,-139.53 291.75,-133.36"/>
</g>
<!-- Node14 -->
<g id="node14" class="node">
<title>Node14</title>
<g id="a_node14"><a xlink:href="_ray_8hpp.html" target="_top" xlink:title=" ">
<polygon fill="white" stroke="black" points="666.5,-168.5 666.5,-187.5 749.5,-187.5 749.5,-168.5 666.5,-168.5"/>
<text text-anchor="middle" x="708" y="-175.5" font-family="Helvetica,sans-Serif" font-size="10.00">Math/Ray.hpp</text>
</a>
</g>
</g>
<!-- Node11&#45;&gt;Node14 -->
<g id="edge14" class="edge">
<title>Node11&#45;&gt;Node14</title>
<path fill="none" stroke="midnightblue" d="M533.8,-224.44C569.38,-215.16 626.31,-200.31 665.35,-190.13"/>
<polygon fill="midnightblue" stroke="midnightblue" points="666.56,-193.43 675.35,-187.52 664.79,-186.65 666.56,-193.43"/>
</g>
<!-- Node15 -->
<g id="node15" class="node">
<title>Node15</title>
<g id="a_node15"><a xlink:href="_transform_component_8hpp.html" target="_top" xlink:title=" ">
<polygon fill="white" stroke="black" points="397.5,-168.5 397.5,-187.5 604.5,-187.5 604.5,-168.5 397.5,-168.5"/>
<text text-anchor="middle" x="501" y="-175.5" font-family="Helvetica,sans-Serif" font-size="10.00">Components/TransformComponent.hpp</text>
</a>
</g>
</g>
<!-- Node11&#45;&gt;Node15 -->
<g id="edge16" class="edge">
<title>Node11&#45;&gt;Node15</title>
<path fill="none" stroke="midnightblue" d="M501,-224.08C501,-217.01 501,-206.86 501,-197.99"/>
<polygon fill="midnightblue" stroke="midnightblue" points="504.5,-197.75 501,-187.75 497.5,-197.75 504.5,-197.75"/>
</g>
<!-- Node14&#45;&gt;Node12 -->
<g id="edge15" class="edge">
<title>Node14&#45;&gt;Node12</title>
<path fill="none" stroke="midnightblue" d="M725.03,-168.32C742.03,-159.66 768.38,-146.24 787.99,-136.25"/>
<polygon fill="midnightblue" stroke="midnightblue" points="789.69,-139.31 797.01,-131.65 786.51,-133.08 789.69,-139.31"/>
</g>
<!-- Node15&#45;&gt;Node12 -->
<g id="edge18" class="edge">
<title>Node15&#45;&gt;Node12</title>
<path fill="none" stroke="midnightblue" d="M552.84,-168.47C604.1,-159.97 685.06,-146.38 764.76,-132.2"/>
<polygon fill="midnightblue" stroke="midnightblue" points="765.75,-135.58 774.98,-130.37 764.52,-128.69 765.75,-135.58"/>
</g>
<!-- Node15&#45;&gt;Node13 -->
<g id="edge20" class="edge">
<title>Node15&#45;&gt;Node13</title>
<path fill="none" stroke="midnightblue" d="M463.61,-168.44C422.61,-159.06 356.75,-143.99 312.22,-133.8"/>
<polygon fill="midnightblue" stroke="midnightblue" points="312.75,-130.34 302.22,-131.52 311.19,-137.16 312.75,-130.34"/>
</g>
<!-- Node16 -->
<g id="node16" class="node">
<title>Node16</title>
<g id="a_node16"><a xlink:title=" ">
<polygon fill="white" stroke="#bfbfbf" points="365,-112.5 365,-131.5 409,-131.5 409,-112.5 365,-112.5"/>
<text text-anchor="middle" x="387" y="-119.5" font-family="Helvetica,sans-Serif" font-size="10.00">string</text>
</a>
</g>
</g>
<!-- Node15&#45;&gt;Node16 -->
<g id="edge17" class="edge">
<title>Node15&#45;&gt;Node16</title>
<path fill="none" stroke="midnightblue" d="M482.94,-168.44C464.43,-159.68 435.42,-145.94 414.14,-135.86"/>
<polygon fill="midnightblue" stroke="midnightblue" points="415.51,-132.63 404.98,-131.52 412.52,-138.96 415.51,-132.63"/>
</g>
<!-- Node17 -->
<g id="node17" class="node">
<title>Node17</title>
<g id="a_node17"><a xlink:title=" ">
<polygon fill="white" stroke="#bfbfbf" points="427,-112.5 427,-131.5 557,-131.5 557,-112.5 427,-112.5"/>
<text text-anchor="middle" x="492" y="-119.5" font-family="Helvetica,sans-Serif" font-size="10.00">glm/gtc/quaternion.hpp</text>
</a>
</g>
</g>
<!-- Node15&#45;&gt;Node17 -->
<g id="edge19" class="edge">
<title>Node15&#45;&gt;Node17</title>
<path fill="none" stroke="midnightblue" d="M499.51,-168.08C498.32,-160.93 496.61,-150.64 495.12,-141.69"/>
<polygon fill="midnightblue" stroke="midnightblue" points="498.55,-141.04 493.46,-131.75 491.65,-142.19 498.55,-141.04"/>
</g>
<!-- Node18 -->
<g id="node18" class="node">
<title>Node18</title>
<g id="a_node18"><a xlink:href="_base_component_8hpp.html" target="_top" xlink:title=" ">
<polygon fill="white" stroke="black" points="575,-112.5 575,-131.5 757,-131.5 757,-112.5 575,-112.5"/>
<text text-anchor="middle" x="666" y="-119.5" font-family="Helvetica,sans-Serif" font-size="10.00">Components/BaseComponent.hpp</text>
</a>
</g>
</g>
<!-- Node15&#45;&gt;Node18 -->
<g id="edge21" class="edge">
<title>Node15&#45;&gt;Node18</title>
<path fill="none" stroke="midnightblue" d="M527.14,-168.44C555.02,-159.32 599.35,-144.81 630.4,-134.65"/>
<polygon fill="midnightblue" stroke="midnightblue" points="631.56,-137.95 639.98,-131.52 629.38,-131.3 631.56,-137.95"/>
</g>
</g>
</svg>
