<?xml version="1.0" encoding="UTF-8" standalone="no"?>
<!DOCTYPE svg PUBLIC "-//W3C//DTD SVG 1.1//EN"
 "http://www.w3.org/Graphics/SVG/1.1/DTD/svg11.dtd">
<!-- Generated by graphviz version 2.43.0 (0)
 -->
<!-- Title: src/Systems/RenderingSystem.cpp Pages: 1 -->
<svg width="2277pt" height="308pt"
 viewBox="0.00 0.00 2276.72 308.00" xmlns="http://www.w3.org/2000/svg" xmlns:xlink="http://www.w3.org/1999/xlink">
<g id="graph0" class="graph" transform="scale(1 1) rotate(0) translate(4 304)">
<title>src/Systems/RenderingSystem.cpp</title>
<polygon fill="white" stroke="transparent" points="-4,4 -4,-304 2272.72,-304 2272.72,4 -4,4"/>
<!-- Node1 -->
<g id="node1" class="node">
<title>Node1</title>
<g id="a_node1"><a xlink:title=" ">
<polygon fill="#bfbfbf" stroke="black" points="1311.5,-280.5 1311.5,-299.5 1496.5,-299.5 1496.5,-280.5 1311.5,-280.5"/>
<text text-anchor="middle" x="1404" y="-287.5" font-family="Helvetica,sans-Serif" font-size="10.00">src/Systems/RenderingSystem.cpp</text>
</a>
</g>
</g>
<!-- Node2 -->
<g id="node2" class="node">
<title>Node2</title>
<g id="a_node2"><a xlink:href="_rendering_system_8hpp.html" target="_top" xlink:title=" ">
<polygon fill="white" stroke="black" points="379.5,-224.5 379.5,-243.5 548.5,-243.5 548.5,-224.5 379.5,-224.5"/>
<text text-anchor="middle" x="464" y="-231.5" font-family="Helvetica,sans-Serif" font-size="10.00">Systems/RenderingSystem.hpp</text>
</a>
</g>
</g>
<!-- Node1&#45;&gt;Node2 -->
<g id="edge1" class="edge">
<title>Node1&#45;&gt;Node2</title>
<path fill="none" stroke="midnightblue" d="M1311.3,-283.67C1131.96,-273.37 739.33,-250.82 558.54,-240.43"/>
<polygon fill="midnightblue" stroke="midnightblue" points="558.7,-236.93 548.52,-239.86 558.3,-243.92 558.7,-236.93"/>
</g>
<!-- Node20 -->
<g id="node20" class="node">
<title>Node20</title>
<g id="a_node20"><a xlink:href="_asset_manager_8hpp.html" target="_top" xlink:title=" ">
<polygon fill="white" stroke="black" points="511.5,-168.5 511.5,-187.5 690.5,-187.5 690.5,-168.5 511.5,-168.5"/>
<text text-anchor="middle" x="601" y="-175.5" font-family="Helvetica,sans-Serif" font-size="10.00">AssetManager/AssetManager.hpp</text>
</a>
</g>
</g>
<!-- Node1&#45;&gt;Node20 -->
<g id="edge25" class="edge">
<title>Node1&#45;&gt;Node20</title>
<path fill="none" stroke="midnightblue" d="M1328.04,-280.47C1252.8,-271.87 1134.33,-257.9 1032,-244 900.86,-226.18 747.75,-202.37 663.89,-189.07"/>
<polygon fill="midnightblue" stroke="midnightblue" points="664.44,-185.62 654.01,-187.51 663.34,-192.53 664.44,-185.62"/>
</g>
<!-- Node21 -->
<g id="node21" class="node">
<title>Node21</title>
<g id="a_node21"><a xlink:href="_utils_8hpp.html" target="_top" xlink:title=" ">
<polygon fill="white" stroke="black" points="678.5,-224.5 678.5,-243.5 791.5,-243.5 791.5,-224.5 678.5,-224.5"/>
<text text-anchor="middle" x="735" y="-231.5" font-family="Helvetica,sans-Serif" font-size="10.00">Rendering/Utils.hpp</text>
</a>
</g>
</g>
<!-- Node1&#45;&gt;Node21 -->
<g id="edge29" class="edge">
<title>Node1&#45;&gt;Node21</title>
<path fill="none" stroke="midnightblue" d="M1311.33,-281.52C1174.51,-270.48 921.74,-250.07 801.67,-240.38"/>
<polygon fill="midnightblue" stroke="midnightblue" points="801.77,-236.88 791.52,-239.56 801.21,-243.86 801.77,-236.88"/>
</g>
<!-- Node22 -->
<g id="node22" class="node">
<title>Node22</title>
<g id="a_node22"><a xlink:href="_transform_component_8hpp.html" target="_top" xlink:title=" ">
<polygon fill="white" stroke="black" points="1855.5,-168.5 1855.5,-187.5 2062.5,-187.5 2062.5,-168.5 1855.5,-168.5"/>
<text text-anchor="middle" x="1959" y="-175.5" font-family="Helvetica,sans-Serif" font-size="10.00">Components/TransformComponent.hpp</text>
</a>
</g>
</g>
<!-- Node1&#45;&gt;Node22 -->
<g id="edge33" class="edge">
<title>Node1&#45;&gt;Node22</title>
<path fill="none" stroke="midnightblue" d="M1447.09,-280.46C1547.48,-260.56 1796.73,-211.16 1906.11,-189.48"/>
<polygon fill="midnightblue" stroke="midnightblue" points="1906.81,-192.91 1915.94,-187.53 1905.45,-186.05 1906.81,-192.91"/>
</g>
<!-- Node26 -->
<g id="node26" class="node">
<title>Node26</title>
<g id="a_node26"><a xlink:href="_model_component_8hpp.html" target="_top" xlink:title=" ">
<polygon fill="white" stroke="black" points="1399,-224.5 1399,-243.5 1587,-243.5 1587,-224.5 1399,-224.5"/>
<text text-anchor="middle" x="1493" y="-231.5" font-family="Helvetica,sans-Serif" font-size="10.00">Components/ModelComponent.hpp</text>
</a>
</g>
</g>
<!-- Node1&#45;&gt;Node26 -->
<g id="edge40" class="edge">
<title>Node1&#45;&gt;Node26</title>
<path fill="none" stroke="midnightblue" d="M1418.3,-280.32C1432.18,-271.9 1453.49,-258.97 1469.8,-249.07"/>
<polygon fill="midnightblue" stroke="midnightblue" points="1472,-251.83 1478.74,-243.65 1468.37,-245.85 1472,-251.83"/>
</g>
<!-- Node33 -->
<g id="node33" class="node">
<title>Node33</title>
<g id="a_node33"><a xlink:href="_wireframe_component_8hpp.html" target="_top" xlink:title=" ">
<polygon fill="white" stroke="black" points="1041,-224.5 1041,-243.5 1251,-243.5 1251,-224.5 1041,-224.5"/>
<text text-anchor="middle" x="1146" y="-231.5" font-family="Helvetica,sans-Serif" font-size="10.00">Components/WireframeComponent.hpp</text>
</a>
</g>
</g>
<!-- Node1&#45;&gt;Node33 -->
<g id="edge57" class="edge">
<title>Node1&#45;&gt;Node33</title>
<path fill="none" stroke="midnightblue" d="M1363.12,-280.44C1318.02,-271 1245.39,-255.8 1196.7,-245.61"/>
<polygon fill="midnightblue" stroke="midnightblue" points="1197.19,-242.14 1186.69,-243.52 1195.76,-248.99 1197.19,-242.14"/>
</g>
<!-- Node35 -->
<g id="node35" class="node">
<title>Node35</title>
<g id="a_node35"><a xlink:href="_camera_component_8hpp.html" target="_top" xlink:title=" ">
<polygon fill="white" stroke="black" points="2050.5,-224.5 2050.5,-243.5 2247.5,-243.5 2247.5,-224.5 2050.5,-224.5"/>
<text text-anchor="middle" x="2149" y="-231.5" font-family="Helvetica,sans-Serif" font-size="10.00">Components/CameraComponent.hpp</text>
</a>
</g>
</g>
<!-- Node1&#45;&gt;Node35 -->
<g id="edge66" class="edge">
<title>Node1&#45;&gt;Node35</title>
<path fill="none" stroke="midnightblue" d="M1496.85,-282.27C1634.74,-272.28 1893.12,-253.55 2039.86,-242.91"/>
<polygon fill="midnightblue" stroke="midnightblue" points="2040.51,-246.37 2050.23,-242.16 2040.01,-239.39 2040.51,-246.37"/>
</g>
<!-- Node36 -->
<g id="node36" class="node">
<title>Node36</title>
<g id="a_node36"><a xlink:href="_point_light_component_8hpp.html" target="_top" xlink:title=" ">
<polygon fill="white" stroke="black" points="1591.5,-168.5 1591.5,-187.5 1798.5,-187.5 1798.5,-168.5 1591.5,-168.5"/>
<text text-anchor="middle" x="1695" y="-175.5" font-family="Helvetica,sans-Serif" font-size="10.00">Components/PointLightComponent.hpp</text>
</a>
</g>
</g>
<!-- Node1&#45;&gt;Node36 -->
<g id="edge71" class="edge">
<title>Node1&#45;&gt;Node36</title>
<path fill="none" stroke="midnightblue" d="M1464.1,-280.49C1502.84,-273.67 1553.69,-262.17 1596,-244 1626.34,-230.97 1657.57,-208.72 1676.63,-193.93"/>
<polygon fill="midnightblue" stroke="midnightblue" points="1679.05,-196.48 1684.72,-187.54 1674.71,-190.99 1679.05,-196.48"/>
</g>
<!-- Node3 -->
<g id="node3" class="node">
<title>Node3</title>
<g id="a_node3"><a xlink:title=" ">
<polygon fill="white" stroke="#bfbfbf" points="359,-112.5 359,-131.5 417,-131.5 417,-112.5 359,-112.5"/>
<text text-anchor="middle" x="388" y="-119.5" font-family="Helvetica,sans-Serif" font-size="10.00">memory</text>
</a>
</g>
</g>
<!-- Node2&#45;&gt;Node3 -->
<g id="edge2" class="edge">
<title>Node2&#45;&gt;Node3</title>
<path fill="none" stroke="midnightblue" d="M457.55,-224.46C450.8,-215.48 439.97,-200.88 431,-188 419.8,-171.92 407.5,-153.23 398.94,-140.03"/>
<polygon fill="midnightblue" stroke="midnightblue" points="401.8,-138 393.44,-131.5 395.92,-141.8 401.8,-138"/>
</g>
<!-- Node4 -->
<g id="node4" class="node">
<title>Node4</title>
<g id="a_node4"><a xlink:href="_types_8hpp.html" target="_top" xlink:title=" ">
<polygon fill="white" stroke="black" points="1425.5,-56.5 1425.5,-75.5 1538.5,-75.5 1538.5,-56.5 1425.5,-56.5"/>
<text text-anchor="middle" x="1482" y="-63.5" font-family="Helvetica,sans-Serif" font-size="10.00">Common/Types.hpp</text>
</a>
</g>
</g>
<!-- Node2&#45;&gt;Node4 -->
<g id="edge3" class="edge">
<title>Node2&#45;&gt;Node4</title>
<path fill="none" stroke="midnightblue" d="M548.51,-229.07C736.08,-220.22 1175.94,-198.64 1243,-188 1339.67,-172.66 1382.65,-196.81 1456,-132 1469.5,-120.07 1476.08,-100.17 1479.23,-85.52"/>
<polygon fill="midnightblue" stroke="midnightblue" points="1482.7,-86.03 1481.03,-75.56 1475.81,-84.78 1482.7,-86.03"/>
</g>
<!-- Node5 -->
<g id="node5" class="node">
<title>Node5</title>
<g id="a_node5"><a xlink:href="_registry_8hpp.html" target="_top" xlink:title=" ">
<polygon fill="white" stroke="black" points="56,-168.5 56,-187.5 154,-187.5 154,-168.5 56,-168.5"/>
<text text-anchor="middle" x="105" y="-175.5" font-family="Helvetica,sans-Serif" font-size="10.00">ECS/Registry.hpp</text>
</a>
</g>
</g>
<!-- Node2&#45;&gt;Node5 -->
<g id="edge4" class="edge">
<title>Node2&#45;&gt;Node5</title>
<path fill="none" stroke="midnightblue" d="M407.12,-224.44C340.73,-214.46 231.49,-198.03 164.15,-187.9"/>
<polygon fill="midnightblue" stroke="midnightblue" points="164.53,-184.41 154.12,-186.39 163.49,-191.34 164.53,-184.41"/>
</g>
<!-- Node10 -->
<g id="node10" class="node">
<title>Node10</title>
<g id="a_node10"><a xlink:href="_shader_program_8hpp.html" target="_top" xlink:title=" ">
<polygon fill="white" stroke="black" points="708.5,-168.5 708.5,-187.5 873.5,-187.5 873.5,-168.5 708.5,-168.5"/>
<text text-anchor="middle" x="791" y="-175.5" font-family="Helvetica,sans-Serif" font-size="10.00">Rendering/ShaderProgram.hpp</text>
</a>
</g>
</g>
<!-- Node2&#45;&gt;Node10 -->
<g id="edge10" class="edge">
<title>Node2&#45;&gt;Node10</title>
<path fill="none" stroke="midnightblue" d="M515.81,-224.44C573.82,-214.87 667.74,-199.36 729.44,-189.17"/>
<polygon fill="midnightblue" stroke="midnightblue" points="730.13,-192.6 739.43,-187.52 728.99,-185.69 730.13,-192.6"/>
</g>
<!-- Node18 -->
<g id="node18" class="node">
<title>Node18</title>
<g id="a_node18"><a xlink:href="_frame_buffer_8hpp.html" target="_top" xlink:title=" ">
<polygon fill="white" stroke="black" points="230.5,-168.5 230.5,-187.5 379.5,-187.5 379.5,-168.5 230.5,-168.5"/>
<text text-anchor="middle" x="305" y="-175.5" font-family="Helvetica,sans-Serif" font-size="10.00">Rendering/FrameBuffer.hpp</text>
</a>
</g>
</g>
<!-- Node2&#45;&gt;Node18 -->
<g id="edge20" class="edge">
<title>Node2&#45;&gt;Node18</title>
<path fill="none" stroke="midnightblue" d="M438.81,-224.44C412.06,-215.36 369.6,-200.94 339.69,-190.78"/>
<polygon fill="midnightblue" stroke="midnightblue" points="340.67,-187.42 330.08,-187.52 338.42,-194.05 340.67,-187.42"/>
</g>
<!-- Node6 -->
<g id="node6" class="node">
<title>Node6</title>
<g id="a_node6"><a xlink:href="_entity_provider_8hpp.html" target="_top" xlink:title="Manages a pool of unused entity identifiers and provides mechanisms for requesting and removing them.">
<polygon fill="white" stroke="black" points="0,-56.5 0,-75.5 128,-75.5 128,-56.5 0,-56.5"/>
<text text-anchor="middle" x="64" y="-63.5" font-family="Helvetica,sans-Serif" font-size="10.00">ECS/EntityProvider.hpp</text>
</a>
</g>
</g>
<!-- Node5&#45;&gt;Node6 -->
<g id="edge5" class="edge">
<title>Node5&#45;&gt;Node6</title>
<path fill="none" stroke="midnightblue" d="M84.15,-168.43C69.42,-161.13 50.8,-149.09 42,-132 34.03,-116.51 42.34,-97.5 50.94,-84.05"/>
<polygon fill="midnightblue" stroke="midnightblue" points="53.89,-85.95 56.74,-75.74 48.15,-81.94 53.89,-85.95"/>
</g>
<!-- Node9 -->
<g id="node9" class="node">
<title>Node9</title>
<g id="a_node9"><a xlink:href="_sparse_set_8hpp.html" target="_top" xlink:title=" ">
<polygon fill="white" stroke="black" points="51,-112.5 51,-131.5 159,-131.5 159,-112.5 51,-112.5"/>
<text text-anchor="middle" x="105" y="-119.5" font-family="Helvetica,sans-Serif" font-size="10.00">ECS/SparseSet.hpp</text>
</a>
</g>
</g>
<!-- Node5&#45;&gt;Node9 -->
<g id="edge8" class="edge">
<title>Node5&#45;&gt;Node9</title>
<path fill="none" stroke="midnightblue" d="M105,-168.08C105,-161.01 105,-150.86 105,-141.99"/>
<polygon fill="midnightblue" stroke="midnightblue" points="108.5,-141.75 105,-131.75 101.5,-141.75 108.5,-141.75"/>
</g>
<!-- Node7 -->
<g id="node7" class="node">
<title>Node7</title>
<g id="a_node7"><a xlink:title=" ">
<polygon fill="white" stroke="#bfbfbf" points="3.5,-0.5 3.5,-19.5 56.5,-19.5 56.5,-0.5 3.5,-0.5"/>
<text text-anchor="middle" x="30" y="-7.5" font-family="Helvetica,sans-Serif" font-size="10.00">stdlib.h</text>
</a>
</g>
</g>
<!-- Node6&#45;&gt;Node7 -->
<g id="edge6" class="edge">
<title>Node6&#45;&gt;Node7</title>
<path fill="none" stroke="midnightblue" d="M58.39,-56.08C53.63,-48.53 46.68,-37.49 40.85,-28.23"/>
<polygon fill="midnightblue" stroke="midnightblue" points="43.8,-26.35 35.51,-19.75 37.88,-30.08 43.8,-26.35"/>
</g>
<!-- Node8 -->
<g id="node8" class="node">
<title>Node8</title>
<g id="a_node8"><a xlink:title=" ">
<polygon fill="white" stroke="#bfbfbf" points="74.5,-0.5 74.5,-19.5 121.5,-19.5 121.5,-0.5 74.5,-0.5"/>
<text text-anchor="middle" x="98" y="-7.5" font-family="Helvetica,sans-Serif" font-size="10.00">queue</text>
</a>
</g>
</g>
<!-- Node6&#45;&gt;Node8 -->
<g id="edge7" class="edge">
<title>Node6&#45;&gt;Node8</title>
<path fill="none" stroke="midnightblue" d="M69.61,-56.08C74.37,-48.53 81.32,-37.49 87.15,-28.23"/>
<polygon fill="midnightblue" stroke="midnightblue" points="90.12,-30.08 92.49,-19.75 84.2,-26.35 90.12,-30.08"/>
</g>
<!-- Node9&#45;&gt;Node6 -->
<g id="edge9" class="edge">
<title>Node9&#45;&gt;Node6</title>
<path fill="none" stroke="midnightblue" d="M98.23,-112.08C92.44,-104.46 83.94,-93.26 76.86,-83.94"/>
<polygon fill="midnightblue" stroke="midnightblue" points="79.48,-81.6 70.64,-75.75 73.9,-85.83 79.48,-81.6"/>
</g>
<!-- Node10&#45;&gt;Node3 -->
<g id="edge13" class="edge">
<title>Node10&#45;&gt;Node3</title>
<path fill="none" stroke="midnightblue" d="M727.14,-168.44C642.91,-157.16 497.21,-137.63 427.45,-128.29"/>
<polygon fill="midnightblue" stroke="midnightblue" points="427.7,-124.79 417.33,-126.93 426.77,-131.73 427.7,-124.79"/>
</g>
<!-- Node11 -->
<g id="node11" class="node">
<title>Node11</title>
<g id="a_node11"><a xlink:title=" ">
<polygon fill="white" stroke="#bfbfbf" points="635.5,-56.5 635.5,-75.5 706.5,-75.5 706.5,-56.5 635.5,-56.5"/>
<text text-anchor="middle" x="671" y="-63.5" font-family="Helvetica,sans-Serif" font-size="10.00">glad/glad.h</text>
</a>
</g>
</g>
<!-- Node10&#45;&gt;Node11 -->
<g id="edge11" class="edge">
<title>Node10&#45;&gt;Node11</title>
<path fill="none" stroke="midnightblue" d="M757.74,-168.46C737.21,-161.64 711.69,-150.16 695,-132 683.18,-119.14 677.05,-99.96 673.96,-85.76"/>
<polygon fill="midnightblue" stroke="midnightblue" points="677.35,-84.85 672.07,-75.66 670.46,-86.14 677.35,-84.85"/>
</g>
<!-- Node12 -->
<g id="node12" class="node">
<title>Node12</title>
<g id="a_node12"><a xlink:title=" ">
<polygon fill="white" stroke="#bfbfbf" points="1358,-0.5 1358,-19.5 1436,-19.5 1436,-0.5 1358,-0.5"/>
<text text-anchor="middle" x="1397" y="-7.5" font-family="Helvetica,sans-Serif" font-size="10.00">glm/glm.hpp</text>
</a>
</g>
</g>
<!-- Node10&#45;&gt;Node12 -->
<g id="edge12" class="edge">
<title>Node10&#45;&gt;Node12</title>
<path fill="none" stroke="midnightblue" d="M810.23,-168.36C869.15,-141.95 1044.82,-63.58 1072,-56 1167.37,-29.39 1283.07,-18.17 1347.51,-13.71"/>
<polygon fill="midnightblue" stroke="midnightblue" points="1348.04,-17.18 1357.79,-13.02 1347.58,-10.2 1348.04,-17.18"/>
</g>
<!-- Node13 -->
<g id="node13" class="node">
<title>Node13</title>
<g id="a_node13"><a xlink:title=" ">
<polygon fill="white" stroke="#bfbfbf" points="1503,-112.5 1503,-131.5 1547,-131.5 1547,-112.5 1503,-112.5"/>
<text text-anchor="middle" x="1525" y="-119.5" font-family="Helvetica,sans-Serif" font-size="10.00">string</text>
</a>
</g>
</g>
<!-- Node10&#45;&gt;Node13 -->
<g id="edge14" class="edge">
<title>Node10&#45;&gt;Node13</title>
<path fill="none" stroke="midnightblue" d="M873.58,-170.09C882.83,-169.36 892.11,-168.65 901,-168 1147.52,-149.92 1209.98,-156 1456,-132 1468.06,-130.82 1481.26,-129.19 1492.86,-127.63"/>
<polygon fill="midnightblue" stroke="midnightblue" points="1493.55,-131.07 1502.98,-126.24 1492.6,-124.14 1493.55,-131.07"/>
</g>
<!-- Node14 -->
<g id="node14" class="node">
<title>Node14</title>
<g id="a_node14"><a xlink:title=" ">
<polygon fill="white" stroke="#bfbfbf" points="549.5,-112.5 549.5,-131.5 642.5,-131.5 642.5,-112.5 549.5,-112.5"/>
<text text-anchor="middle" x="596" y="-119.5" font-family="Helvetica,sans-Serif" font-size="10.00">unordered_map</text>
</a>
</g>
</g>
<!-- Node10&#45;&gt;Node14 -->
<g id="edge15" class="edge">
<title>Node10&#45;&gt;Node14</title>
<path fill="none" stroke="midnightblue" d="M760.1,-168.44C726.73,-159.2 673.41,-144.44 636.65,-134.26"/>
<polygon fill="midnightblue" stroke="midnightblue" points="637.33,-130.81 626.75,-131.52 635.46,-137.56 637.33,-130.81"/>
</g>
<!-- Node15 -->
<g id="node15" class="node">
<title>Node15</title>
<g id="a_node15"><a xlink:href="_shader_8hpp.html" target="_top" xlink:title=" ">
<polygon fill="white" stroke="black" points="737.5,-112.5 737.5,-131.5 880.5,-131.5 880.5,-112.5 737.5,-112.5"/>
<text text-anchor="middle" x="809" y="-119.5" font-family="Helvetica,sans-Serif" font-size="10.00">AssetManager/Shader.hpp</text>
</a>
</g>
</g>
<!-- Node10&#45;&gt;Node15 -->
<g id="edge16" class="edge">
<title>Node10&#45;&gt;Node15</title>
<path fill="none" stroke="midnightblue" d="M793.97,-168.08C796.38,-160.85 799.86,-150.41 802.87,-141.4"/>
<polygon fill="midnightblue" stroke="midnightblue" points="806.24,-142.34 806.08,-131.75 799.6,-140.13 806.24,-142.34"/>
</g>
<!-- Node15&#45;&gt;Node11 -->
<g id="edge17" class="edge">
<title>Node15&#45;&gt;Node11</title>
<path fill="none" stroke="midnightblue" d="M787.13,-112.44C764.22,-103.48 728.02,-89.31 702.13,-79.18"/>
<polygon fill="midnightblue" stroke="midnightblue" points="703.35,-75.9 692.76,-75.52 700.8,-82.42 703.35,-75.9"/>
</g>
<!-- Node16 -->
<g id="node16" class="node">
<title>Node16</title>
<g id="a_node16"><a xlink:href="_asset_8hpp.html" target="_top" xlink:title=" ">
<polygon fill="white" stroke="black" points="741.5,-56.5 741.5,-75.5 878.5,-75.5 878.5,-56.5 741.5,-56.5"/>
<text text-anchor="middle" x="810" y="-63.5" font-family="Helvetica,sans-Serif" font-size="10.00">AssetManager/Asset.hpp</text>
</a>
</g>
</g>
<!-- Node15&#45;&gt;Node16 -->
<g id="edge18" class="edge">
<title>Node15&#45;&gt;Node16</title>
<path fill="none" stroke="midnightblue" d="M809.17,-112.08C809.3,-105.01 809.48,-94.86 809.65,-85.99"/>
<polygon fill="midnightblue" stroke="midnightblue" points="813.15,-85.81 809.84,-75.75 806.15,-85.68 813.15,-85.81"/>
</g>
<!-- Node17 -->
<g id="node17" class="node">
<title>Node17</title>
<g id="a_node17"><a xlink:title=" ">
<polygon fill="white" stroke="#bfbfbf" points="594,-0.5 594,-19.5 662,-19.5 662,-0.5 594,-0.5"/>
<text text-anchor="middle" x="628" y="-7.5" font-family="Helvetica,sans-Serif" font-size="10.00">filesystem</text>
</a>
</g>
</g>
<!-- Node16&#45;&gt;Node17 -->
<g id="edge19" class="edge">
<title>Node16&#45;&gt;Node17</title>
<path fill="none" stroke="midnightblue" d="M781.16,-56.44C750.14,-47.24 700.67,-32.56 666.38,-22.39"/>
<polygon fill="midnightblue" stroke="midnightblue" points="667.29,-19.01 656.7,-19.52 665.29,-25.72 667.29,-19.01"/>
</g>
<!-- Node18&#45;&gt;Node3 -->
<g id="edge21" class="edge">
<title>Node18&#45;&gt;Node3</title>
<path fill="none" stroke="midnightblue" d="M318.34,-168.32C331.16,-159.98 350.78,-147.21 365.94,-137.35"/>
<polygon fill="midnightblue" stroke="midnightblue" points="368.22,-140.04 374.7,-131.65 364.41,-134.17 368.22,-140.04"/>
</g>
<!-- Node18&#45;&gt;Node11 -->
<g id="edge22" class="edge">
<title>Node18&#45;&gt;Node11</title>
<path fill="none" stroke="midnightblue" d="M270.38,-168.5C233.27,-157.81 182.64,-137.73 206,-112 233.83,-81.35 513.02,-70.97 624.95,-68.02"/>
<polygon fill="midnightblue" stroke="midnightblue" points="625.34,-71.51 635.24,-67.76 625.16,-64.51 625.34,-71.51"/>
</g>
<!-- Node19 -->
<g id="node19" class="node">
<title>Node19</title>
<g id="a_node19"><a xlink:href="_texture_8hpp.html" target="_top" xlink:title=" ">
<polygon fill="white" stroke="black" points="215,-112.5 215,-131.5 341,-131.5 341,-112.5 215,-112.5"/>
<text text-anchor="middle" x="278" y="-119.5" font-family="Helvetica,sans-Serif" font-size="10.00">Rendering/Texture.hpp</text>
</a>
</g>
</g>
<!-- Node18&#45;&gt;Node19 -->
<g id="edge23" class="edge">
<title>Node18&#45;&gt;Node19</title>
<path fill="none" stroke="midnightblue" d="M300.54,-168.08C296.85,-160.69 291.48,-149.95 286.91,-140.81"/>
<polygon fill="midnightblue" stroke="midnightblue" points="289.98,-139.13 282.38,-131.75 283.72,-142.26 289.98,-139.13"/>
</g>
<!-- Node19&#45;&gt;Node11 -->
<g id="edge24" class="edge">
<title>Node19&#45;&gt;Node11</title>
<path fill="none" stroke="midnightblue" d="M340.27,-112.44C419.53,-101.55 554.6,-82.99 625.1,-73.31"/>
<polygon fill="midnightblue" stroke="midnightblue" points="626,-76.72 635.43,-71.89 625.05,-69.78 626,-76.72"/>
</g>
<!-- Node20&#45;&gt;Node14 -->
<g id="edge26" class="edge">
<title>Node20&#45;&gt;Node14</title>
<path fill="none" stroke="midnightblue" d="M600.17,-168.08C599.52,-161.01 598.58,-150.86 597.76,-141.99"/>
<polygon fill="midnightblue" stroke="midnightblue" points="601.22,-141.39 596.81,-131.75 594.25,-142.03 601.22,-141.39"/>
</g>
<!-- Node20&#45;&gt;Node16 -->
<g id="edge28" class="edge">
<title>Node20&#45;&gt;Node16</title>
<path fill="none" stroke="midnightblue" d="M582.76,-168.38C559.24,-156.14 523.34,-132.86 541,-112 553.29,-97.48 656.14,-83.46 731.02,-75.03"/>
<polygon fill="midnightblue" stroke="midnightblue" points="731.83,-78.46 741.39,-73.88 731.06,-71.5 731.83,-78.46"/>
</g>
<!-- Node20&#45;&gt;Node17 -->
<g id="edge27" class="edge">
<title>Node20&#45;&gt;Node17</title>
<path fill="none" stroke="midnightblue" d="M577.21,-168.5C561.28,-161.41 541.54,-149.61 532,-132 527.77,-124.18 528.7,-120.25 532,-112 546.96,-74.55 583.14,-43.04 606.57,-25.62"/>
<polygon fill="midnightblue" stroke="midnightblue" points="608.78,-28.34 614.85,-19.65 604.69,-22.66 608.78,-28.34"/>
</g>
<!-- Node21&#45;&gt;Node10 -->
<g id="edge31" class="edge">
<title>Node21&#45;&gt;Node10</title>
<path fill="none" stroke="midnightblue" d="M744,-224.32C752.19,-216.42 764.51,-204.55 774.47,-194.94"/>
<polygon fill="midnightblue" stroke="midnightblue" points="777.07,-197.29 781.84,-187.83 772.21,-192.26 777.07,-197.29"/>
</g>
<!-- Node21&#45;&gt;Node11 -->
<g id="edge30" class="edge">
<title>Node21&#45;&gt;Node11</title>
<path fill="none" stroke="midnightblue" d="M678.28,-230.05C616.88,-225.53 524.8,-214.43 503,-188 483.58,-164.45 513.53,-127.66 532,-112 558.31,-89.7 595.88,-78.4 625.33,-72.7"/>
<polygon fill="midnightblue" stroke="midnightblue" points="626.15,-76.11 635.38,-70.9 624.92,-69.21 626.15,-76.11"/>
</g>
<!-- Node21&#45;&gt;Node18 -->
<g id="edge32" class="edge">
<title>Node21&#45;&gt;Node18</title>
<path fill="none" stroke="midnightblue" d="M678.34,-225.88C602.63,-216.38 468.12,-199.49 382.91,-188.78"/>
<polygon fill="midnightblue" stroke="midnightblue" points="383.13,-185.28 372.77,-187.51 382.26,-192.23 383.13,-185.28"/>
</g>
<!-- Node22&#45;&gt;Node12 -->
<g id="edge35" class="edge">
<title>Node22&#45;&gt;Node12</title>
<path fill="none" stroke="midnightblue" d="M1977.49,-168.44C2001.34,-156.25 2037.77,-133.05 2020,-112 1946.45,-24.88 1580.76,-12.66 1446.52,-11.13"/>
<polygon fill="midnightblue" stroke="midnightblue" points="1446.17,-7.63 1436.13,-11.03 1446.1,-14.63 1446.17,-7.63"/>
</g>
<!-- Node22&#45;&gt;Node13 -->
<g id="edge34" class="edge">
<title>Node22&#45;&gt;Node13</title>
<path fill="none" stroke="midnightblue" d="M1855.13,-170.32C1775.78,-164.07 1663.66,-152.78 1557.19,-131.93"/>
<polygon fill="midnightblue" stroke="midnightblue" points="1557.73,-128.47 1547.24,-129.95 1556.36,-135.34 1557.73,-128.47"/>
</g>
<!-- Node23 -->
<g id="node23" class="node">
<title>Node23</title>
<g id="a_node23"><a xlink:title=" ">
<polygon fill="white" stroke="#bfbfbf" points="1881,-112.5 1881,-131.5 2011,-131.5 2011,-112.5 1881,-112.5"/>
<text text-anchor="middle" x="1946" y="-119.5" font-family="Helvetica,sans-Serif" font-size="10.00">glm/gtc/quaternion.hpp</text>
</a>
</g>
</g>
<!-- Node22&#45;&gt;Node23 -->
<g id="edge36" class="edge">
<title>Node22&#45;&gt;Node23</title>
<path fill="none" stroke="midnightblue" d="M1956.85,-168.08C1955.13,-160.93 1952.65,-150.64 1950.5,-141.69"/>
<polygon fill="midnightblue" stroke="midnightblue" points="1953.85,-140.65 1948.11,-131.75 1947.04,-142.29 1953.85,-140.65"/>
</g>
<!-- Node24 -->
<g id="node24" class="node">
<title>Node24</title>
<g id="a_node24"><a xlink:title=" ">
<polygon fill="white" stroke="#bfbfbf" points="2067.5,-112.5 2067.5,-131.5 2230.5,-131.5 2230.5,-112.5 2067.5,-112.5"/>
<text text-anchor="middle" x="2149" y="-119.5" font-family="Helvetica,sans-Serif" font-size="10.00">glm/gtc/matrix_transform.hpp</text>
</a>
</g>
</g>
<!-- Node22&#45;&gt;Node24 -->
<g id="edge37" class="edge">
<title>Node22&#45;&gt;Node24</title>
<path fill="none" stroke="midnightblue" d="M1989.11,-168.44C2021.63,-159.2 2073.58,-144.44 2109.39,-134.26"/>
<polygon fill="midnightblue" stroke="midnightblue" points="2110.37,-137.62 2119.03,-131.52 2108.46,-130.88 2110.37,-137.62"/>
</g>
<!-- Node25 -->
<g id="node25" class="node">
<title>Node25</title>
<g id="a_node25"><a xlink:href="_base_component_8hpp.html" target="_top" xlink:title=" ">
<polygon fill="white" stroke="black" points="1565,-112.5 1565,-131.5 1747,-131.5 1747,-112.5 1565,-112.5"/>
<text text-anchor="middle" x="1656" y="-119.5" font-family="Helvetica,sans-Serif" font-size="10.00">Components/BaseComponent.hpp</text>
</a>
</g>
</g>
<!-- Node22&#45;&gt;Node25 -->
<g id="edge38" class="edge">
<title>Node22&#45;&gt;Node25</title>
<path fill="none" stroke="midnightblue" d="M1910.99,-168.44C1857.47,-158.9 1770.93,-143.48 1713.76,-133.29"/>
<polygon fill="midnightblue" stroke="midnightblue" points="1714.25,-129.83 1703.79,-131.52 1713.02,-136.72 1714.25,-129.83"/>
</g>
<!-- Node25&#45;&gt;Node4 -->
<g id="edge39" class="edge">
<title>Node25&#45;&gt;Node4</title>
<path fill="none" stroke="midnightblue" d="M1628.43,-112.44C1598.9,-103.28 1551.88,-88.69 1519.12,-78.52"/>
<polygon fill="midnightblue" stroke="midnightblue" points="1520.03,-75.14 1509.44,-75.52 1517.96,-81.82 1520.03,-75.14"/>
</g>
<!-- Node26&#45;&gt;Node13 -->
<g id="edge41" class="edge">
<title>Node26&#45;&gt;Node13</title>
<path fill="none" stroke="midnightblue" d="M1495.51,-224.37C1500.7,-206.54 1512.7,-165.3 1519.68,-141.27"/>
<polygon fill="midnightblue" stroke="midnightblue" points="1523.07,-142.17 1522.5,-131.59 1516.35,-140.22 1523.07,-142.17"/>
</g>
<!-- Node26&#45;&gt;Node25 -->
<g id="edge56" class="edge">
<title>Node26&#45;&gt;Node25</title>
<path fill="none" stroke="midnightblue" d="M1504.46,-224.31C1521.38,-211.58 1554.15,-187.27 1583,-168 1599.25,-157.15 1618.02,-145.59 1632.47,-136.91"/>
<polygon fill="midnightblue" stroke="midnightblue" points="1634.47,-139.79 1641.26,-131.66 1630.88,-133.78 1634.47,-139.79"/>
</g>
<!-- Node27 -->
<g id="node27" class="node">
<title>Node27</title>
<g id="a_node27"><a xlink:title=" ">
<polygon fill="white" stroke="#bfbfbf" points="1803,-112.5 1803,-131.5 1863,-131.5 1863,-112.5 1803,-112.5"/>
<text text-anchor="middle" x="1833" y="-119.5" font-family="Helvetica,sans-Serif" font-size="10.00">iostream</text>
</a>
</g>
</g>
<!-- Node26&#45;&gt;Node27 -->
<g id="edge42" class="edge">
<title>Node26&#45;&gt;Node27</title>
<path fill="none" stroke="midnightblue" d="M1587.33,-229.89C1667.5,-225.41 1774.73,-214.51 1808,-188 1822.02,-176.83 1828.18,-156.81 1830.89,-141.93"/>
<polygon fill="midnightblue" stroke="midnightblue" points="1834.39,-142.18 1832.36,-131.78 1827.46,-141.17 1834.39,-142.18"/>
</g>
<!-- Node28 -->
<g id="node28" class="node">
<title>Node28</title>
<g id="a_node28"><a xlink:href="_mesh_8hpp.html" target="_top" xlink:title=" ">
<polygon fill="white" stroke="black" points="1096.5,-168.5 1096.5,-187.5 1233.5,-187.5 1233.5,-168.5 1096.5,-168.5"/>
<text text-anchor="middle" x="1165" y="-175.5" font-family="Helvetica,sans-Serif" font-size="10.00">AssetManager/Mesh.hpp</text>
</a>
</g>
</g>
<!-- Node26&#45;&gt;Node28 -->
<g id="edge43" class="edge">
<title>Node26&#45;&gt;Node28</title>
<path fill="none" stroke="midnightblue" d="M1441.03,-224.44C1382.85,-214.87 1288.64,-199.36 1226.75,-189.17"/>
<polygon fill="midnightblue" stroke="midnightblue" points="1227.17,-185.69 1216.73,-187.52 1226.03,-192.59 1227.17,-185.69"/>
</g>
<!-- Node32 -->
<g id="node32" class="node">
<title>Node32</title>
<g id="a_node32"><a xlink:href="_material_8hpp.html" target="_top" xlink:title=" ">
<polygon fill="white" stroke="black" points="1193.5,-112.5 1193.5,-131.5 1344.5,-131.5 1344.5,-112.5 1193.5,-112.5"/>
<text text-anchor="middle" x="1269" y="-119.5" font-family="Helvetica,sans-Serif" font-size="10.00">AssetManager/Material.hpp</text>
</a>
</g>
</g>
<!-- Node26&#45;&gt;Node32 -->
<g id="edge53" class="edge">
<title>Node26&#45;&gt;Node32</title>
<path fill="none" stroke="midnightblue" d="M1475.42,-224.37C1436.33,-205.17 1341.99,-158.84 1295.62,-136.07"/>
<polygon fill="midnightblue" stroke="midnightblue" points="1297.01,-132.86 1286.5,-131.59 1293.93,-139.14 1297.01,-132.86"/>
</g>
<!-- Node28&#45;&gt;Node11 -->
<g id="edge45" class="edge">
<title>Node28&#45;&gt;Node11</title>
<path fill="none" stroke="midnightblue" d="M1152.95,-168.26C1129.48,-151.32 1079.14,-115.37 1070,-112 928.67,-59.89 882.45,-94.82 733,-76 727.8,-75.35 722.37,-74.62 716.97,-73.87"/>
<polygon fill="midnightblue" stroke="midnightblue" points="717.1,-70.35 706.7,-72.42 716.12,-77.28 717.1,-70.35"/>
</g>
<!-- Node28&#45;&gt;Node12 -->
<g id="edge44" class="edge">
<title>Node28&#45;&gt;Node12</title>
<path fill="none" stroke="midnightblue" d="M1165.49,-168.37C1166.68,-154.83 1170.8,-128.44 1185,-112 1227.67,-62.6 1299.89,-35.48 1348.01,-22.1"/>
<polygon fill="midnightblue" stroke="midnightblue" points="1349.14,-25.42 1357.89,-19.45 1347.33,-18.66 1349.14,-25.42"/>
</g>
<!-- Node28&#45;&gt;Node13 -->
<g id="edge47" class="edge">
<title>Node28&#45;&gt;Node13</title>
<path fill="none" stroke="midnightblue" d="M1222.04,-168.44C1298.54,-156.97 1431.79,-136.98 1492.81,-127.83"/>
<polygon fill="midnightblue" stroke="midnightblue" points="1493.63,-131.25 1503,-126.3 1492.59,-124.32 1493.63,-131.25"/>
</g>
<!-- Node28&#45;&gt;Node16 -->
<g id="edge48" class="edge">
<title>Node28&#45;&gt;Node16</title>
<path fill="none" stroke="midnightblue" d="M1159.4,-168.09C1149.79,-153.65 1128.72,-125.41 1103,-112 1066.77,-93.11 962.77,-80.34 889,-73.37"/>
<polygon fill="midnightblue" stroke="midnightblue" points="889.08,-69.86 878.8,-72.42 888.43,-76.83 889.08,-69.86"/>
</g>
<!-- Node29 -->
<g id="node29" class="node">
<title>Node29</title>
<g id="a_node29"><a xlink:title=" ">
<polygon fill="white" stroke="#bfbfbf" points="1013.5,-112.5 1013.5,-131.5 1060.5,-131.5 1060.5,-112.5 1013.5,-112.5"/>
<text text-anchor="middle" x="1037" y="-119.5" font-family="Helvetica,sans-Serif" font-size="10.00">vector</text>
</a>
</g>
</g>
<!-- Node28&#45;&gt;Node29 -->
<g id="edge46" class="edge">
<title>Node28&#45;&gt;Node29</title>
<path fill="none" stroke="midnightblue" d="M1144.72,-168.44C1123.65,-159.56 1090.48,-145.56 1066.51,-135.45"/>
<polygon fill="midnightblue" stroke="midnightblue" points="1067.76,-132.18 1057.19,-131.52 1065.04,-138.63 1067.76,-132.18"/>
</g>
<!-- Node30 -->
<g id="node30" class="node">
<title>Node30</title>
<g id="a_node30"><a xlink:href="_box_8hpp.html" target="_top" xlink:title=" ">
<polygon fill="white" stroke="black" points="1363,-112.5 1363,-131.5 1447,-131.5 1447,-112.5 1363,-112.5"/>
<text text-anchor="middle" x="1405" y="-119.5" font-family="Helvetica,sans-Serif" font-size="10.00">Math/Box.hpp</text>
</a>
</g>
</g>
<!-- Node28&#45;&gt;Node30 -->
<g id="edge49" class="edge">
<title>Node28&#45;&gt;Node30</title>
<path fill="none" stroke="midnightblue" d="M1203.03,-168.44C1244.81,-159.04 1311.98,-143.93 1357.27,-133.74"/>
<polygon fill="midnightblue" stroke="midnightblue" points="1358.16,-137.13 1367.15,-131.52 1356.62,-130.3 1358.16,-137.13"/>
</g>
<!-- Node30&#45;&gt;Node12 -->
<g id="edge50" class="edge">
<title>Node30&#45;&gt;Node12</title>
<path fill="none" stroke="midnightblue" d="M1404.37,-112.37C1403.08,-94.62 1400.1,-53.67 1398.35,-29.6"/>
<polygon fill="midnightblue" stroke="midnightblue" points="1401.84,-29.31 1397.62,-19.59 1394.86,-29.82 1401.84,-29.31"/>
</g>
<!-- Node31 -->
<g id="node31" class="node">
<title>Node31</title>
<g id="a_node31"><a xlink:href="_ray_8hpp.html" target="_top" xlink:title=" ">
<polygon fill="white" stroke="black" points="1556.5,-56.5 1556.5,-75.5 1639.5,-75.5 1639.5,-56.5 1556.5,-56.5"/>
<text text-anchor="middle" x="1598" y="-63.5" font-family="Helvetica,sans-Serif" font-size="10.00">Math/Ray.hpp</text>
</a>
</g>
</g>
<!-- Node30&#45;&gt;Node31 -->
<g id="edge51" class="edge">
<title>Node30&#45;&gt;Node31</title>
<path fill="none" stroke="midnightblue" d="M1435.58,-112.44C1468.61,-103.2 1521.39,-88.44 1557.77,-78.26"/>
<polygon fill="midnightblue" stroke="midnightblue" points="1558.87,-81.58 1567.56,-75.52 1556.99,-74.84 1558.87,-81.58"/>
</g>
<!-- Node31&#45;&gt;Node12 -->
<g id="edge52" class="edge">
<title>Node31&#45;&gt;Node12</title>
<path fill="none" stroke="midnightblue" d="M1566.15,-56.44C1531.6,-47.16 1476.32,-32.31 1438.42,-22.13"/>
<polygon fill="midnightblue" stroke="midnightblue" points="1439.27,-18.73 1428.7,-19.52 1437.45,-25.49 1439.27,-18.73"/>
</g>
<!-- Node32&#45;&gt;Node12 -->
<g id="edge54" class="edge">
<title>Node32&#45;&gt;Node12</title>
<path fill="none" stroke="midnightblue" d="M1279.04,-112.37C1300.73,-93.73 1352.16,-49.53 1379.39,-26.13"/>
<polygon fill="midnightblue" stroke="midnightblue" points="1381.7,-28.76 1387,-19.59 1377.14,-23.45 1381.7,-28.76"/>
</g>
<!-- Node32&#45;&gt;Node16 -->
<g id="edge55" class="edge">
<title>Node32&#45;&gt;Node16</title>
<path fill="none" stroke="midnightblue" d="M1196.52,-112.47C1112.69,-102.61 975.15,-86.43 888.74,-76.26"/>
<polygon fill="midnightblue" stroke="midnightblue" points="889.06,-72.78 878.72,-75.08 888.24,-79.73 889.06,-72.78"/>
</g>
<!-- Node33&#45;&gt;Node3 -->
<g id="edge58" class="edge">
<title>Node33&#45;&gt;Node3</title>
<path fill="none" stroke="midnightblue" d="M1040.97,-231.26C885.15,-227.73 600.65,-217.37 503,-188 466.71,-177.09 429.36,-153.18 407.43,-137.6"/>
<polygon fill="midnightblue" stroke="midnightblue" points="409.44,-134.74 399.29,-131.69 405.33,-140.4 409.44,-134.74"/>
</g>
<!-- Node33&#45;&gt;Node25 -->
<g id="edge65" class="edge">
<title>Node33&#45;&gt;Node25</title>
<path fill="none" stroke="midnightblue" d="M1212.36,-224.48C1269.14,-216.66 1352.89,-203.91 1425,-188 1494.78,-172.61 1574.76,-148.66 1619.94,-134.53"/>
<polygon fill="midnightblue" stroke="midnightblue" points="1621.08,-137.84 1629.57,-131.5 1618.98,-131.16 1621.08,-137.84"/>
</g>
<!-- Node34 -->
<g id="node34" class="node">
<title>Node34</title>
<g id="a_node34"><a xlink:href="_wireframe_8hpp.html" target="_top" xlink:title=" ">
<polygon fill="white" stroke="black" points="910,-168.5 910,-187.5 1072,-187.5 1072,-168.5 910,-168.5"/>
<text text-anchor="middle" x="991" y="-175.5" font-family="Helvetica,sans-Serif" font-size="10.00">AssetManager/Wireframe.hpp</text>
</a>
</g>
</g>
<!-- Node33&#45;&gt;Node34 -->
<g id="edge59" class="edge">
<title>Node33&#45;&gt;Node34</title>
<path fill="none" stroke="midnightblue" d="M1121.44,-224.44C1095.48,-215.4 1054.33,-201.06 1025.2,-190.92"/>
<polygon fill="midnightblue" stroke="midnightblue" points="1026.04,-187.5 1015.45,-187.52 1023.74,-194.11 1026.04,-187.5"/>
</g>
<!-- Node34&#45;&gt;Node11 -->
<g id="edge61" class="edge">
<title>Node34&#45;&gt;Node11</title>
<path fill="none" stroke="midnightblue" d="M909.99,-168.99C844.87,-161.47 759.43,-148.87 729,-132 708.63,-120.71 691.77,-99.47 681.58,-84.35"/>
<polygon fill="midnightblue" stroke="midnightblue" points="684.47,-82.38 676.12,-75.86 678.59,-86.17 684.47,-82.38"/>
</g>
<!-- Node34&#45;&gt;Node12 -->
<g id="edge60" class="edge">
<title>Node34&#45;&gt;Node12</title>
<path fill="none" stroke="midnightblue" d="M990.21,-168.1C989.49,-154.19 990.28,-127.32 1005,-112 1052.28,-62.79 1253.45,-30.11 1347.79,-17.21"/>
<polygon fill="midnightblue" stroke="midnightblue" points="1348.49,-20.65 1357.94,-15.84 1347.56,-13.71 1348.49,-20.65"/>
</g>
<!-- Node34&#45;&gt;Node13 -->
<g id="edge63" class="edge">
<title>Node34&#45;&gt;Node13</title>
<path fill="none" stroke="midnightblue" d="M1072.32,-169.46C1185.27,-158.93 1383.87,-140.19 1456,-132 1468.04,-130.63 1481.24,-128.96 1492.84,-127.42"/>
<polygon fill="midnightblue" stroke="midnightblue" points="1493.51,-130.86 1502.96,-126.06 1492.58,-123.92 1493.51,-130.86"/>
</g>
<!-- Node34&#45;&gt;Node16 -->
<g id="edge64" class="edge">
<title>Node34&#45;&gt;Node16</title>
<path fill="none" stroke="midnightblue" d="M978.08,-168.34C959.02,-155.63 922.15,-131.37 890,-112 871.8,-101.04 850.86,-89.29 834.97,-80.54"/>
<polygon fill="midnightblue" stroke="midnightblue" points="836.25,-77.26 825.79,-75.52 832.89,-83.4 836.25,-77.26"/>
</g>
<!-- Node34&#45;&gt;Node29 -->
<g id="edge62" class="edge">
<title>Node34&#45;&gt;Node29</title>
<path fill="none" stroke="midnightblue" d="M998.6,-168.08C1005.23,-160.3 1015.02,-148.8 1023.06,-139.37"/>
<polygon fill="midnightblue" stroke="midnightblue" points="1025.73,-141.63 1029.55,-131.75 1020.4,-137.09 1025.73,-141.63"/>
</g>
<!-- Node35&#45;&gt;Node12 -->
<g id="edge67" class="edge">
<title>Node35&#45;&gt;Node12</title>
<path fill="none" stroke="midnightblue" d="M2179.49,-224.41C2198.96,-217.49 2223.39,-205.91 2239,-188 2261.88,-161.76 2280.33,-138.71 2258,-112 2205.56,-49.27 1621.73,-20.26 1446.46,-12.92"/>
<polygon fill="midnightblue" stroke="midnightblue" points="1446.37,-9.42 1436.24,-12.5 1446.08,-16.41 1446.37,-9.42"/>
</g>
<!-- Node35&#45;&gt;Node22 -->
<g id="edge70" class="edge">
<title>Node35&#45;&gt;Node22</title>
<path fill="none" stroke="midnightblue" d="M2118.89,-224.44C2086.37,-215.2 2034.42,-200.44 1998.61,-190.26"/>
<polygon fill="midnightblue" stroke="midnightblue" points="1999.54,-186.88 1988.97,-187.52 1997.63,-193.62 1999.54,-186.88"/>
</g>
<!-- Node35&#45;&gt;Node24 -->
<g id="edge68" class="edge">
<title>Node35&#45;&gt;Node24</title>
<path fill="none" stroke="midnightblue" d="M2149,-224.37C2149,-206.62 2149,-165.67 2149,-141.6"/>
<polygon fill="midnightblue" stroke="midnightblue" points="2152.5,-141.59 2149,-131.59 2145.5,-141.59 2152.5,-141.59"/>
</g>
<!-- Node35&#45;&gt;Node31 -->
<g id="edge69" class="edge">
<title>Node35&#45;&gt;Node31</title>
<path fill="none" stroke="midnightblue" d="M2164.02,-224.46C2198.23,-203.98 2276.3,-150.93 2240,-112 2200.1,-69.2 1795.65,-66.31 1649.96,-66.68"/>
<polygon fill="midnightblue" stroke="midnightblue" points="1649.91,-63.18 1639.92,-66.71 1649.93,-70.18 1649.91,-63.18"/>
</g>
<!-- Node36&#45;&gt;Node12 -->
<g id="edge74" class="edge">
<title>Node36&#45;&gt;Node12</title>
<path fill="none" stroke="midnightblue" d="M1714.06,-168.36C1736.75,-156.79 1769.94,-135.04 1756,-112 1723.72,-58.67 1536.85,-28.42 1446.24,-16.71"/>
<polygon fill="midnightblue" stroke="midnightblue" points="1446.57,-13.22 1436.21,-15.43 1445.69,-20.16 1446.57,-13.22"/>
</g>
<!-- Node36&#45;&gt;Node13 -->
<g id="edge72" class="edge">
<title>Node36&#45;&gt;Node13</title>
<path fill="none" stroke="midnightblue" d="M1668.06,-168.44C1637.9,-158.86 1589.06,-143.35 1556.99,-133.16"/>
<polygon fill="midnightblue" stroke="midnightblue" points="1557.8,-129.75 1547.21,-130.05 1555.68,-136.42 1557.8,-129.75"/>
</g>
<!-- Node36&#45;&gt;Node25 -->
<g id="edge75" class="edge">
<title>Node36&#45;&gt;Node25</title>
<path fill="none" stroke="midnightblue" d="M1688.56,-168.08C1683.05,-160.46 1674.97,-149.26 1668.24,-139.94"/>
<polygon fill="midnightblue" stroke="midnightblue" points="1671.01,-137.81 1662.32,-131.75 1665.34,-141.91 1671.01,-137.81"/>
</g>
<!-- Node36&#45;&gt;Node27 -->
<g id="edge73" class="edge">
<title>Node36&#45;&gt;Node27</title>
<path fill="none" stroke="midnightblue" d="M1716.87,-168.44C1739.78,-159.48 1775.98,-145.31 1801.87,-135.18"/>
<polygon fill="midnightblue" stroke="midnightblue" points="1803.2,-138.42 1811.24,-131.52 1800.65,-131.9 1803.2,-138.42"/>
</g>
</g>
</svg>
