<?xml version="1.0" encoding="UTF-8" standalone="no"?>
<!DOCTYPE svg PUBLIC "-//W3C//DTD SVG 1.1//EN"
 "http://www.w3.org/Graphics/SVG/1.1/DTD/svg11.dtd">
<!-- Generated by graphviz version 2.43.0 (0)
 -->
<!-- Title: src/Systems/RenderingSystem.cpp Pages: 1 -->
<svg width="2642pt" height="319pt"
 viewBox="0.00 0.00 2642.31 319.00" xmlns="http://www.w3.org/2000/svg" xmlns:xlink="http://www.w3.org/1999/xlink">
<g id="graph0" class="graph" transform="scale(1 1) rotate(0) translate(4 315)">
<title>src/Systems/RenderingSystem.cpp</title>
<polygon fill="white" stroke="transparent" points="-4,4 -4,-315 2638.31,-315 2638.31,4 -4,4"/>
<!-- Node1 -->
<g id="node1" class="node">
<title>Node1</title>
<g id="a_node1"><a xlink:title=" ">
<polygon fill="#bfbfbf" stroke="black" points="1591.5,-291.5 1591.5,-310.5 1776.5,-310.5 1776.5,-291.5 1591.5,-291.5"/>
<text text-anchor="middle" x="1684" y="-298.5" font-family="Helvetica,sans-Serif" font-size="10.00">src/Systems/RenderingSystem.cpp</text>
</a>
</g>
</g>
<!-- Node2 -->
<g id="node2" class="node">
<title>Node2</title>
<g id="a_node2"><a xlink:href="_rendering_system_8hpp.html" target="_top" xlink:title=" ">
<polygon fill="white" stroke="black" points="785.5,-235.5 785.5,-254.5 954.5,-254.5 954.5,-235.5 785.5,-235.5"/>
<text text-anchor="middle" x="870" y="-242.5" font-family="Helvetica,sans-Serif" font-size="10.00">Systems/RenderingSystem.hpp</text>
</a>
</g>
</g>
<!-- Node1&#45;&gt;Node2 -->
<g id="edge1" class="edge">
<title>Node1&#45;&gt;Node2</title>
<path fill="none" stroke="midnightblue" d="M1591.42,-293.86C1435.45,-283.51 1122,-262.72 964.65,-252.28"/>
<polygon fill="midnightblue" stroke="midnightblue" points="964.73,-248.78 954.52,-251.61 964.27,-255.76 964.73,-248.78"/>
</g>
<!-- Node24 -->
<g id="node24" class="node">
<title>Node24</title>
<g id="a_node24"><a xlink:href="_asset_manager_8hpp.html" target="_top" xlink:title=" ">
<polygon fill="white" stroke="black" points="590.5,-174 590.5,-193 769.5,-193 769.5,-174 590.5,-174"/>
<text text-anchor="middle" x="680" y="-181" font-family="Helvetica,sans-Serif" font-size="10.00">AssetManager/AssetManager.hpp</text>
</a>
</g>
</g>
<!-- Node1&#45;&gt;Node24 -->
<g id="edge33" class="edge">
<title>Node1&#45;&gt;Node24</title>
<path fill="none" stroke="midnightblue" d="M1591.17,-291.65C1498.4,-283.12 1351.72,-269.16 1225,-255 1026.46,-232.81 976.96,-225.92 779,-199 768.63,-197.59 757.66,-196.04 746.94,-194.5"/>
<polygon fill="midnightblue" stroke="midnightblue" points="747.17,-190.99 736.77,-193.02 746.17,-197.92 747.17,-190.99"/>
</g>
<!-- Node25 -->
<g id="node25" class="node">
<title>Node25</title>
<g id="a_node25"><a xlink:href="_utils_8hpp.html" target="_top" xlink:title=" ">
<polygon fill="white" stroke="black" points="510.5,-235.5 510.5,-254.5 623.5,-254.5 623.5,-235.5 510.5,-235.5"/>
<text text-anchor="middle" x="567" y="-242.5" font-family="Helvetica,sans-Serif" font-size="10.00">Rendering/Utils.hpp</text>
</a>
</g>
</g>
<!-- Node1&#45;&gt;Node25 -->
<g id="edge37" class="edge">
<title>Node1&#45;&gt;Node25</title>
<path fill="none" stroke="midnightblue" d="M1591.16,-295.51C1371.53,-284.89 824.2,-258.43 633.66,-249.22"/>
<polygon fill="midnightblue" stroke="midnightblue" points="633.67,-245.72 623.51,-248.73 633.33,-252.71 633.67,-245.72"/>
</g>
<!-- Node26 -->
<g id="node26" class="node">
<title>Node26</title>
<g id="a_node26"><a xlink:href="_transform_component_8hpp.html" target="_top" xlink:title=" ">
<polygon fill="white" stroke="black" points="2245.5,-174 2245.5,-193 2452.5,-193 2452.5,-174 2245.5,-174"/>
<text text-anchor="middle" x="2349" y="-181" font-family="Helvetica,sans-Serif" font-size="10.00">Components/TransformComponent.hpp</text>
</a>
</g>
</g>
<!-- Node1&#45;&gt;Node26 -->
<g id="edge41" class="edge">
<title>Node1&#45;&gt;Node26</title>
<path fill="none" stroke="midnightblue" d="M1776.51,-299.01C1915.47,-296.47 2170.87,-287.39 2256,-255 2287.08,-243.17 2316.54,-217.53 2333.68,-200.65"/>
<polygon fill="midnightblue" stroke="midnightblue" points="2336.53,-202.74 2341.05,-193.17 2331.54,-197.83 2336.53,-202.74"/>
</g>
<!-- Node30 -->
<g id="node30" class="node">
<title>Node30</title>
<g id="a_node30"><a xlink:href="_model_component_8hpp.html" target="_top" xlink:title=" ">
<polygon fill="white" stroke="black" points="1505,-235.5 1505,-254.5 1693,-254.5 1693,-235.5 1505,-235.5"/>
<text text-anchor="middle" x="1599" y="-242.5" font-family="Helvetica,sans-Serif" font-size="10.00">Components/ModelComponent.hpp</text>
</a>
</g>
</g>
<!-- Node1&#45;&gt;Node30 -->
<g id="edge48" class="edge">
<title>Node1&#45;&gt;Node30</title>
<path fill="none" stroke="midnightblue" d="M1670.34,-291.32C1657.08,-282.9 1636.73,-269.97 1621.15,-260.07"/>
<polygon fill="midnightblue" stroke="midnightblue" points="1622.94,-257.06 1612.62,-254.65 1619.19,-262.97 1622.94,-257.06"/>
</g>
<!-- Node36 -->
<g id="node36" class="node">
<title>Node36</title>
<g id="a_node36"><a xlink:href="_wireframe_component_8hpp.html" target="_top" xlink:title=" ">
<polygon fill="white" stroke="black" points="1234,-235.5 1234,-254.5 1444,-254.5 1444,-235.5 1234,-235.5"/>
<text text-anchor="middle" x="1339" y="-242.5" font-family="Helvetica,sans-Serif" font-size="10.00">Components/WireframeComponent.hpp</text>
</a>
</g>
</g>
<!-- Node1&#45;&gt;Node36 -->
<g id="edge65" class="edge">
<title>Node1&#45;&gt;Node36</title>
<path fill="none" stroke="midnightblue" d="M1629.33,-291.44C1568.01,-281.85 1468.64,-266.29 1403.55,-256.1"/>
<polygon fill="midnightblue" stroke="midnightblue" points="1403.83,-252.61 1393.41,-254.52 1402.75,-259.52 1403.83,-252.61"/>
</g>
<!-- Node38 -->
<g id="node38" class="node">
<title>Node38</title>
<g id="a_node38"><a xlink:href="_camera_component_8hpp.html" target="_top" xlink:title=" ">
<polygon fill="white" stroke="black" points="2414.5,-235.5 2414.5,-254.5 2611.5,-254.5 2611.5,-235.5 2414.5,-235.5"/>
<text text-anchor="middle" x="2513" y="-242.5" font-family="Helvetica,sans-Serif" font-size="10.00">Components/CameraComponent.hpp</text>
</a>
</g>
</g>
<!-- Node1&#45;&gt;Node38 -->
<g id="edge74" class="edge">
<title>Node1&#45;&gt;Node38</title>
<path fill="none" stroke="midnightblue" d="M1776.68,-293.96C1930.94,-283.91 2239.62,-263.81 2404.04,-253.1"/>
<polygon fill="midnightblue" stroke="midnightblue" points="2404.43,-256.58 2414.18,-252.44 2403.97,-249.59 2404.43,-256.58"/>
</g>
<!-- Node39 -->
<g id="node39" class="node">
<title>Node39</title>
<g id="a_node39"><a xlink:href="_point_light_component_8hpp.html" target="_top" xlink:title=" ">
<polygon fill="white" stroke="black" points="1653.5,-174 1653.5,-193 1860.5,-193 1860.5,-174 1653.5,-174"/>
<text text-anchor="middle" x="1757" y="-181" font-family="Helvetica,sans-Serif" font-size="10.00">Components/PointLightComponent.hpp</text>
</a>
</g>
</g>
<!-- Node1&#45;&gt;Node39 -->
<g id="edge79" class="edge">
<title>Node1&#45;&gt;Node39</title>
<path fill="none" stroke="midnightblue" d="M1689.49,-291.32C1701.48,-272.34 1730.23,-226.85 1746.07,-201.79"/>
<polygon fill="midnightblue" stroke="midnightblue" points="1749.07,-203.61 1751.45,-193.28 1743.15,-199.87 1749.07,-203.61"/>
</g>
<!-- Node40 -->
<g id="node40" class="node">
<title>Node40</title>
<g id="a_node40"><a xlink:href="_skybox_component_8hpp.html" target="_top" xlink:title=" ">
<polygon fill="white" stroke="black" points="2053,-235.5 2053,-254.5 2247,-254.5 2247,-235.5 2053,-235.5"/>
<text text-anchor="middle" x="2150" y="-242.5" font-family="Helvetica,sans-Serif" font-size="10.00">Components/SkyboxComponent.hpp</text>
</a>
</g>
</g>
<!-- Node1&#45;&gt;Node40 -->
<g id="edge84" class="edge">
<title>Node1&#45;&gt;Node40</title>
<path fill="none" stroke="midnightblue" d="M1757.58,-291.47C1841.55,-281.74 1978.58,-265.86 2066.48,-255.68"/>
<polygon fill="midnightblue" stroke="midnightblue" points="2066.89,-259.15 2076.42,-254.53 2066.08,-252.2 2066.89,-259.15"/>
</g>
<!-- Node41 -->
<g id="node41" class="node">
<title>Node41</title>
<g id="a_node41"><a xlink:href="_directional_light_component_8hpp.html" target="_top" xlink:title=" ">
<polygon fill="white" stroke="black" points="1917,-168.5 1917,-198.5 2075,-198.5 2075,-168.5 1917,-168.5"/>
<text text-anchor="start" x="1925" y="-186.5" font-family="Helvetica,sans-Serif" font-size="10.00">Components/DirectionalLight</text>
<text text-anchor="middle" x="1996" y="-175.5" font-family="Helvetica,sans-Serif" font-size="10.00">Component.hpp</text>
</a>
</g>
</g>
<!-- Node1&#45;&gt;Node41 -->
<g id="edge88" class="edge">
<title>Node1&#45;&gt;Node41</title>
<path fill="none" stroke="midnightblue" d="M1707.2,-291.41C1758.08,-272.58 1880.35,-227.31 1948.35,-202.14"/>
<polygon fill="midnightblue" stroke="midnightblue" points="1949.81,-205.33 1957.98,-198.58 1947.38,-198.76 1949.81,-205.33"/>
</g>
<!-- Node3 -->
<g id="node3" class="node">
<title>Node3</title>
<g id="a_node3"><a xlink:title=" ">
<polygon fill="white" stroke="#bfbfbf" points="488,-112.5 488,-131.5 546,-131.5 546,-112.5 488,-112.5"/>
<text text-anchor="middle" x="517" y="-119.5" font-family="Helvetica,sans-Serif" font-size="10.00">memory</text>
</a>
</g>
</g>
<!-- Node2&#45;&gt;Node3 -->
<g id="edge2" class="edge">
<title>Node2&#45;&gt;Node3</title>
<path fill="none" stroke="midnightblue" d="M785.47,-241.57C702.71,-237.57 583.98,-226.99 548,-199 530.2,-185.15 522.56,-159.38 519.32,-141.72"/>
<polygon fill="midnightblue" stroke="midnightblue" points="522.77,-141.08 517.79,-131.72 515.85,-142.14 522.77,-141.08"/>
</g>
<!-- Node4 -->
<g id="node4" class="node">
<title>Node4</title>
<g id="a_node4"><a xlink:href="_types_8hpp.html" target="_top" xlink:title=" ">
<polygon fill="white" stroke="black" points="1871.5,-56.5 1871.5,-75.5 1984.5,-75.5 1984.5,-56.5 1871.5,-56.5"/>
<text text-anchor="middle" x="1928" y="-63.5" font-family="Helvetica,sans-Serif" font-size="10.00">Common/Types.hpp</text>
</a>
</g>
</g>
<!-- Node2&#45;&gt;Node4 -->
<g id="edge3" class="edge">
<title>Node2&#45;&gt;Node4</title>
<path fill="none" stroke="midnightblue" d="M954.74,-243.49C1080.95,-241.55 1325.39,-233.22 1530,-199 1582.21,-190.27 1593.35,-179.61 1645,-168 1732.69,-148.29 1761.89,-168.55 1844,-132 1870.68,-120.12 1896.5,-98.06 1912.31,-82.96"/>
<polygon fill="midnightblue" stroke="midnightblue" points="1914.93,-85.3 1919.62,-75.79 1910.03,-80.3 1914.93,-85.3"/>
</g>
<!-- Node5 -->
<g id="node5" class="node">
<title>Node5</title>
<g id="a_node5"><a xlink:href="_registry_8hpp.html" target="_top" xlink:title=" ">
<polygon fill="white" stroke="black" points="120,-174 120,-193 218,-193 218,-174 120,-174"/>
<text text-anchor="middle" x="169" y="-181" font-family="Helvetica,sans-Serif" font-size="10.00">ECS/Registry.hpp</text>
</a>
</g>
</g>
<!-- Node2&#45;&gt;Node5 -->
<g id="edge4" class="edge">
<title>Node2&#45;&gt;Node5</title>
<path fill="none" stroke="midnightblue" d="M785.39,-236.84C680.6,-227.98 496.64,-212.4 339,-199 302.25,-195.88 261.03,-192.36 228.38,-189.57"/>
<polygon fill="midnightblue" stroke="midnightblue" points="228.36,-186.06 218.1,-188.69 227.76,-193.03 228.36,-186.06"/>
</g>
<!-- Node11 -->
<g id="node11" class="node">
<title>Node11</title>
<g id="a_node11"><a xlink:href="_shader_program_8hpp.html" target="_top" xlink:title=" ">
<polygon fill="white" stroke="black" points="787.5,-174 787.5,-193 952.5,-193 952.5,-174 787.5,-174"/>
<text text-anchor="middle" x="870" y="-181" font-family="Helvetica,sans-Serif" font-size="10.00">Rendering/ShaderProgram.hpp</text>
</a>
</g>
</g>
<!-- Node2&#45;&gt;Node11 -->
<g id="edge11" class="edge">
<title>Node2&#45;&gt;Node11</title>
<path fill="none" stroke="midnightblue" d="M870,-235.48C870,-227.08 870,-213.98 870,-203.16"/>
<polygon fill="midnightblue" stroke="midnightblue" points="873.5,-203.01 870,-193.01 866.5,-203.01 873.5,-203.01"/>
</g>
<!-- Node19 -->
<g id="node19" class="node">
<title>Node19</title>
<g id="a_node19"><a xlink:href="_frame_buffer_8hpp.html" target="_top" xlink:title=" ">
<polygon fill="white" stroke="black" points="347.5,-174 347.5,-193 496.5,-193 496.5,-174 347.5,-174"/>
<text text-anchor="middle" x="422" y="-181" font-family="Helvetica,sans-Serif" font-size="10.00">Rendering/FrameBuffer.hpp</text>
</a>
</g>
</g>
<!-- Node2&#45;&gt;Node19 -->
<g id="edge21" class="edge">
<title>Node2&#45;&gt;Node19</title>
<path fill="none" stroke="midnightblue" d="M795.08,-235.5C722.18,-227.02 608.34,-213.24 510,-199 500.88,-197.68 491.25,-196.19 481.84,-194.68"/>
<polygon fill="midnightblue" stroke="midnightblue" points="482.18,-191.19 471.74,-193.04 481.05,-198.1 482.18,-191.19"/>
</g>
<!-- Node21 -->
<g id="node21" class="node">
<title>Node21</title>
<g id="a_node21"><a xlink:href="_cube_map_8hpp.html" target="_top" xlink:title=" ">
<polygon fill="white" stroke="black" points="1049,-174 1049,-193 1185,-193 1185,-174 1049,-174"/>
<text text-anchor="middle" x="1117" y="-181" font-family="Helvetica,sans-Serif" font-size="10.00">Rendering/CubeMap.hpp</text>
</a>
</g>
</g>
<!-- Node2&#45;&gt;Node21 -->
<g id="edge26" class="edge">
<title>Node2&#45;&gt;Node21</title>
<path fill="none" stroke="midnightblue" d="M905.39,-235.48C949.23,-224.92 1023.97,-206.91 1071.88,-195.37"/>
<polygon fill="midnightblue" stroke="midnightblue" points="1072.77,-198.75 1081.68,-193.01 1071.13,-191.95 1072.77,-198.75"/>
</g>
<!-- Node6 -->
<g id="node6" class="node">
<title>Node6</title>
<g id="a_node6"><a xlink:title=" ">
<polygon fill="white" stroke="#bfbfbf" points="164,-112.5 164,-131.5 250,-131.5 250,-112.5 164,-112.5"/>
<text text-anchor="middle" x="207" y="-119.5" font-family="Helvetica,sans-Serif" font-size="10.00">unordered_set</text>
</a>
</g>
</g>
<!-- Node5&#45;&gt;Node6 -->
<g id="edge5" class="edge">
<title>Node5&#45;&gt;Node6</title>
<path fill="none" stroke="midnightblue" d="M174.44,-173.98C180.09,-165.14 189.06,-151.09 196.16,-139.98"/>
<polygon fill="midnightblue" stroke="midnightblue" points="199.13,-141.82 201.57,-131.51 193.23,-138.05 199.13,-141.82"/>
</g>
<!-- Node7 -->
<g id="node7" class="node">
<title>Node7</title>
<g id="a_node7"><a xlink:href="_entity_provider_8hpp.html" target="_top" xlink:title="Manages a pool of unused entity identifiers and provides mechanisms for requesting and removing them.">
<polygon fill="white" stroke="black" points="31,-56.5 31,-75.5 159,-75.5 159,-56.5 31,-56.5"/>
<text text-anchor="middle" x="95" y="-63.5" font-family="Helvetica,sans-Serif" font-size="10.00">ECS/EntityProvider.hpp</text>
</a>
</g>
</g>
<!-- Node5&#45;&gt;Node7 -->
<g id="edge6" class="edge">
<title>Node5&#45;&gt;Node7</title>
<path fill="none" stroke="midnightblue" d="M163.44,-173.82C151.28,-154.84 122.13,-109.35 106.08,-84.29"/>
<polygon fill="midnightblue" stroke="midnightblue" points="108.97,-82.31 100.63,-75.78 103.07,-86.09 108.97,-82.31"/>
</g>
<!-- Node10 -->
<g id="node10" class="node">
<title>Node10</title>
<g id="a_node10"><a xlink:href="_sparse_set_8hpp.html" target="_top" xlink:title=" ">
<polygon fill="white" stroke="black" points="0,-112.5 0,-131.5 108,-131.5 108,-112.5 0,-112.5"/>
<text text-anchor="middle" x="54" y="-119.5" font-family="Helvetica,sans-Serif" font-size="10.00">ECS/SparseSet.hpp</text>
</a>
</g>
</g>
<!-- Node5&#45;&gt;Node10 -->
<g id="edge9" class="edge">
<title>Node5&#45;&gt;Node10</title>
<path fill="none" stroke="midnightblue" d="M152.52,-173.98C133.39,-164.08 101.63,-147.64 79.35,-136.12"/>
<polygon fill="midnightblue" stroke="midnightblue" points="80.94,-133 70.45,-131.51 77.72,-139.21 80.94,-133"/>
</g>
<!-- Node8 -->
<g id="node8" class="node">
<title>Node8</title>
<g id="a_node8"><a xlink:title=" ">
<polygon fill="white" stroke="#bfbfbf" points="34.5,-0.5 34.5,-19.5 87.5,-19.5 87.5,-0.5 34.5,-0.5"/>
<text text-anchor="middle" x="61" y="-7.5" font-family="Helvetica,sans-Serif" font-size="10.00">stdlib.h</text>
</a>
</g>
</g>
<!-- Node7&#45;&gt;Node8 -->
<g id="edge7" class="edge">
<title>Node7&#45;&gt;Node8</title>
<path fill="none" stroke="midnightblue" d="M89.39,-56.08C84.63,-48.53 77.68,-37.49 71.85,-28.23"/>
<polygon fill="midnightblue" stroke="midnightblue" points="74.8,-26.35 66.51,-19.75 68.88,-30.08 74.8,-26.35"/>
</g>
<!-- Node9 -->
<g id="node9" class="node">
<title>Node9</title>
<g id="a_node9"><a xlink:title=" ">
<polygon fill="white" stroke="#bfbfbf" points="105.5,-0.5 105.5,-19.5 152.5,-19.5 152.5,-0.5 105.5,-0.5"/>
<text text-anchor="middle" x="129" y="-7.5" font-family="Helvetica,sans-Serif" font-size="10.00">queue</text>
</a>
</g>
</g>
<!-- Node7&#45;&gt;Node9 -->
<g id="edge8" class="edge">
<title>Node7&#45;&gt;Node9</title>
<path fill="none" stroke="midnightblue" d="M100.61,-56.08C105.37,-48.53 112.32,-37.49 118.15,-28.23"/>
<polygon fill="midnightblue" stroke="midnightblue" points="121.12,-30.08 123.49,-19.75 115.2,-26.35 121.12,-30.08"/>
</g>
<!-- Node10&#45;&gt;Node7 -->
<g id="edge10" class="edge">
<title>Node10&#45;&gt;Node7</title>
<path fill="none" stroke="midnightblue" d="M60.77,-112.08C66.56,-104.46 75.06,-93.26 82.14,-83.94"/>
<polygon fill="midnightblue" stroke="midnightblue" points="85.1,-85.83 88.36,-75.75 79.52,-81.6 85.1,-85.83"/>
</g>
<!-- Node11&#45;&gt;Node3 -->
<g id="edge14" class="edge">
<title>Node11&#45;&gt;Node3</title>
<path fill="none" stroke="midnightblue" d="M819.42,-173.98C748.45,-162.01 620.8,-140.5 556.42,-129.64"/>
<polygon fill="midnightblue" stroke="midnightblue" points="556.72,-126.15 546.27,-127.93 555.55,-133.05 556.72,-126.15"/>
</g>
<!-- Node12 -->
<g id="node12" class="node">
<title>Node12</title>
<g id="a_node12"><a xlink:title=" ">
<polygon fill="white" stroke="#bfbfbf" points="745.5,-56.5 745.5,-75.5 816.5,-75.5 816.5,-56.5 745.5,-56.5"/>
<text text-anchor="middle" x="781" y="-63.5" font-family="Helvetica,sans-Serif" font-size="10.00">glad/glad.h</text>
</a>
</g>
</g>
<!-- Node11&#45;&gt;Node12 -->
<g id="edge12" class="edge">
<title>Node11&#45;&gt;Node12</title>
<path fill="none" stroke="midnightblue" d="M843.23,-173.93C823.84,-166.22 798.87,-152.85 786,-132 777.55,-118.31 776.94,-99.77 778.07,-86"/>
<polygon fill="midnightblue" stroke="midnightblue" points="781.59,-86.11 779.3,-75.76 774.63,-85.27 781.59,-86.11"/>
</g>
<!-- Node13 -->
<g id="node13" class="node">
<title>Node13</title>
<g id="a_node13"><a xlink:title=" ">
<polygon fill="white" stroke="#bfbfbf" points="1703,-0.5 1703,-19.5 1781,-19.5 1781,-0.5 1703,-0.5"/>
<text text-anchor="middle" x="1742" y="-7.5" font-family="Helvetica,sans-Serif" font-size="10.00">glm/glm.hpp</text>
</a>
</g>
</g>
<!-- Node11&#45;&gt;Node13 -->
<g id="edge13" class="edge">
<title>Node11&#45;&gt;Node13</title>
<path fill="none" stroke="midnightblue" d="M949.26,-173.99C1035.58,-164.17 1167.79,-147.41 1216,-132 1234.55,-126.07 1236.83,-119.03 1255,-112 1343.89,-77.62 1368.82,-76.03 1462,-56 1542.21,-38.76 1636.63,-24.89 1692.78,-17.32"/>
<polygon fill="midnightblue" stroke="midnightblue" points="1693.36,-20.77 1702.8,-15.98 1692.43,-13.83 1693.36,-20.77"/>
</g>
<!-- Node14 -->
<g id="node14" class="node">
<title>Node14</title>
<g id="a_node14"><a xlink:title=" ">
<polygon fill="white" stroke="#bfbfbf" points="1481,-112.5 1481,-131.5 1525,-131.5 1525,-112.5 1481,-112.5"/>
<text text-anchor="middle" x="1503" y="-119.5" font-family="Helvetica,sans-Serif" font-size="10.00">string</text>
</a>
</g>
</g>
<!-- Node11&#45;&gt;Node14 -->
<g id="edge15" class="edge">
<title>Node11&#45;&gt;Node14</title>
<path fill="none" stroke="midnightblue" d="M952.75,-174.72C1093.93,-161.45 1375.29,-135 1470.58,-126.05"/>
<polygon fill="midnightblue" stroke="midnightblue" points="1471.12,-129.51 1480.75,-125.09 1470.47,-122.54 1471.12,-129.51"/>
</g>
<!-- Node15 -->
<g id="node15" class="node">
<title>Node15</title>
<g id="a_node15"><a xlink:title=" ">
<polygon fill="white" stroke="#bfbfbf" points="640.5,-112.5 640.5,-131.5 733.5,-131.5 733.5,-112.5 640.5,-112.5"/>
<text text-anchor="middle" x="687" y="-119.5" font-family="Helvetica,sans-Serif" font-size="10.00">unordered_map</text>
</a>
</g>
</g>
<!-- Node11&#45;&gt;Node15 -->
<g id="edge16" class="edge">
<title>Node11&#45;&gt;Node15</title>
<path fill="none" stroke="midnightblue" d="M843.78,-173.98C811.98,-163.64 758.23,-146.16 722.68,-134.6"/>
<polygon fill="midnightblue" stroke="midnightblue" points="723.76,-131.27 713.17,-131.51 721.6,-137.93 723.76,-131.27"/>
</g>
<!-- Node16 -->
<g id="node16" class="node">
<title>Node16</title>
<g id="a_node16"><a xlink:href="_shader_8hpp.html" target="_top" xlink:title=" ">
<polygon fill="white" stroke="black" points="904.5,-112.5 904.5,-131.5 1047.5,-131.5 1047.5,-112.5 904.5,-112.5"/>
<text text-anchor="middle" x="976" y="-119.5" font-family="Helvetica,sans-Serif" font-size="10.00">AssetManager/Shader.hpp</text>
</a>
</g>
</g>
<!-- Node11&#45;&gt;Node16 -->
<g id="edge17" class="edge">
<title>Node11&#45;&gt;Node16</title>
<path fill="none" stroke="midnightblue" d="M885.19,-173.98C902.66,-164.17 931.58,-147.93 952.08,-136.42"/>
<polygon fill="midnightblue" stroke="midnightblue" points="953.83,-139.46 960.84,-131.51 950.41,-133.35 953.83,-139.46"/>
</g>
<!-- Node16&#45;&gt;Node12 -->
<g id="edge18" class="edge">
<title>Node16&#45;&gt;Node12</title>
<path fill="none" stroke="midnightblue" d="M945.1,-112.44C911.73,-103.2 858.41,-88.44 821.65,-78.26"/>
<polygon fill="midnightblue" stroke="midnightblue" points="822.33,-74.81 811.75,-75.52 820.46,-81.56 822.33,-74.81"/>
</g>
<!-- Node17 -->
<g id="node17" class="node">
<title>Node17</title>
<g id="a_node17"><a xlink:href="_asset_8hpp.html" target="_top" xlink:title=" ">
<polygon fill="white" stroke="black" points="1068.5,-56.5 1068.5,-75.5 1205.5,-75.5 1205.5,-56.5 1068.5,-56.5"/>
<text text-anchor="middle" x="1137" y="-63.5" font-family="Helvetica,sans-Serif" font-size="10.00">AssetManager/Asset.hpp</text>
</a>
</g>
</g>
<!-- Node16&#45;&gt;Node17 -->
<g id="edge19" class="edge">
<title>Node16&#45;&gt;Node17</title>
<path fill="none" stroke="midnightblue" d="M1001.51,-112.44C1028.6,-103.36 1071.59,-88.94 1101.87,-78.78"/>
<polygon fill="midnightblue" stroke="midnightblue" points="1103.24,-82.01 1111.61,-75.52 1101.01,-75.38 1103.24,-82.01"/>
</g>
<!-- Node18 -->
<g id="node18" class="node">
<title>Node18</title>
<g id="a_node18"><a xlink:title=" ">
<polygon fill="white" stroke="#bfbfbf" points="1006,-0.5 1006,-19.5 1074,-19.5 1074,-0.5 1006,-0.5"/>
<text text-anchor="middle" x="1040" y="-7.5" font-family="Helvetica,sans-Serif" font-size="10.00">filesystem</text>
</a>
</g>
</g>
<!-- Node17&#45;&gt;Node18 -->
<g id="edge20" class="edge">
<title>Node17&#45;&gt;Node18</title>
<path fill="none" stroke="midnightblue" d="M1121.42,-56.32C1106,-47.74 1082.19,-34.49 1064.29,-24.52"/>
<polygon fill="midnightblue" stroke="midnightblue" points="1065.99,-21.46 1055.55,-19.65 1062.58,-27.58 1065.99,-21.46"/>
</g>
<!-- Node19&#45;&gt;Node3 -->
<g id="edge22" class="edge">
<title>Node19&#45;&gt;Node3</title>
<path fill="none" stroke="midnightblue" d="M435.61,-173.98C451.06,-164.3 476.49,-148.37 494.82,-136.89"/>
<polygon fill="midnightblue" stroke="midnightblue" points="496.8,-139.78 503.41,-131.51 493.08,-133.85 496.8,-139.78"/>
</g>
<!-- Node19&#45;&gt;Node12 -->
<g id="edge23" class="edge">
<title>Node19&#45;&gt;Node12</title>
<path fill="none" stroke="midnightblue" d="M395.95,-173.9C362.63,-161.59 311.86,-137.6 335,-112 361.49,-82.71 626.39,-71.57 734.96,-68.22"/>
<polygon fill="midnightblue" stroke="midnightblue" points="735.38,-71.71 745.27,-67.91 735.17,-64.71 735.38,-71.71"/>
</g>
<!-- Node20 -->
<g id="node20" class="node">
<title>Node20</title>
<g id="a_node20"><a xlink:href="_texture_8hpp.html" target="_top" xlink:title=" ">
<polygon fill="white" stroke="black" points="344,-112.5 344,-131.5 470,-131.5 470,-112.5 344,-112.5"/>
<text text-anchor="middle" x="407" y="-119.5" font-family="Helvetica,sans-Serif" font-size="10.00">Rendering/Texture.hpp</text>
</a>
</g>
</g>
<!-- Node19&#45;&gt;Node20 -->
<g id="edge24" class="edge">
<title>Node19&#45;&gt;Node20</title>
<path fill="none" stroke="midnightblue" d="M419.85,-173.98C417.71,-165.49 414.36,-152.2 411.62,-141.32"/>
<polygon fill="midnightblue" stroke="midnightblue" points="414.98,-140.35 409.15,-131.51 408.2,-142.06 414.98,-140.35"/>
</g>
<!-- Node20&#45;&gt;Node12 -->
<g id="edge25" class="edge">
<title>Node20&#45;&gt;Node12</title>
<path fill="none" stroke="midnightblue" d="M466.26,-112.44C541,-101.65 667.9,-83.33 735.47,-73.57"/>
<polygon fill="midnightblue" stroke="midnightblue" points="736,-77.03 745.4,-72.14 735,-70.11 736,-77.03"/>
</g>
<!-- Node21&#45;&gt;Node12 -->
<g id="edge27" class="edge">
<title>Node21&#45;&gt;Node12</title>
<path fill="none" stroke="midnightblue" d="M1048.8,-177.01C974.12,-169.92 860.14,-155.6 824,-132 806.88,-120.82 794.99,-100.19 788.12,-85.16"/>
<polygon fill="midnightblue" stroke="midnightblue" points="791.29,-83.67 784.16,-75.84 784.84,-86.41 791.29,-83.67"/>
</g>
<!-- Node21&#45;&gt;Node14 -->
<g id="edge28" class="edge">
<title>Node21&#45;&gt;Node14</title>
<path fill="none" stroke="midnightblue" d="M1160.52,-173.98C1171.43,-171.93 1183.13,-169.81 1194,-168 1294.72,-151.19 1414.51,-134.76 1470.78,-127.24"/>
<polygon fill="midnightblue" stroke="midnightblue" points="1471.39,-130.69 1480.84,-125.91 1470.47,-123.75 1471.39,-130.69"/>
</g>
<!-- Node22 -->
<g id="node22" class="node">
<title>Node22</title>
<g id="a_node22"><a xlink:title=" ">
<polygon fill="white" stroke="#bfbfbf" points="1263.5,-112.5 1263.5,-131.5 1310.5,-131.5 1310.5,-112.5 1263.5,-112.5"/>
<text text-anchor="middle" x="1287" y="-119.5" font-family="Helvetica,sans-Serif" font-size="10.00">vector</text>
</a>
</g>
</g>
<!-- Node21&#45;&gt;Node22 -->
<g id="edge29" class="edge">
<title>Node21&#45;&gt;Node22</title>
<path fill="none" stroke="midnightblue" d="M1141.36,-173.98C1170.81,-163.67 1220.53,-146.26 1253.56,-134.7"/>
<polygon fill="midnightblue" stroke="midnightblue" points="1254.95,-137.92 1263.24,-131.32 1252.64,-131.32 1254.95,-137.92"/>
</g>
<!-- Node23 -->
<g id="node23" class="node">
<title>Node23</title>
<g id="a_node23"><a xlink:href="_image_8hpp.html" target="_top" xlink:title=" ">
<polygon fill="white" stroke="black" points="1065.5,-112.5 1065.5,-131.5 1206.5,-131.5 1206.5,-112.5 1065.5,-112.5"/>
<text text-anchor="middle" x="1136" y="-119.5" font-family="Helvetica,sans-Serif" font-size="10.00">AssetManager/Image.hpp</text>
</a>
</g>
</g>
<!-- Node21&#45;&gt;Node23 -->
<g id="edge30" class="edge">
<title>Node21&#45;&gt;Node23</title>
<path fill="none" stroke="midnightblue" d="M1119.72,-173.98C1122.43,-165.49 1126.67,-152.2 1130.15,-141.32"/>
<polygon fill="midnightblue" stroke="midnightblue" points="1133.57,-142.1 1133.28,-131.51 1126.91,-139.97 1133.57,-142.1"/>
</g>
<!-- Node23&#45;&gt;Node17 -->
<g id="edge32" class="edge">
<title>Node23&#45;&gt;Node17</title>
<path fill="none" stroke="midnightblue" d="M1136.17,-112.08C1136.3,-105.01 1136.48,-94.86 1136.65,-85.99"/>
<polygon fill="midnightblue" stroke="midnightblue" points="1140.15,-85.81 1136.84,-75.75 1133.15,-85.68 1140.15,-85.81"/>
</g>
<!-- Node23&#45;&gt;Node18 -->
<g id="edge31" class="edge">
<title>Node23&#45;&gt;Node18</title>
<path fill="none" stroke="midnightblue" d="M1112.23,-112.35C1095.39,-105.08 1073.48,-93.1 1060,-76 1049.51,-62.68 1044.49,-43.85 1042.11,-29.88"/>
<polygon fill="midnightblue" stroke="midnightblue" points="1045.57,-29.34 1040.71,-19.92 1038.64,-30.31 1045.57,-29.34"/>
</g>
<!-- Node24&#45;&gt;Node15 -->
<g id="edge34" class="edge">
<title>Node24&#45;&gt;Node15</title>
<path fill="none" stroke="midnightblue" d="M681,-173.98C681.99,-165.58 683.53,-152.48 684.8,-141.66"/>
<polygon fill="midnightblue" stroke="midnightblue" points="688.31,-141.85 686,-131.51 681.35,-141.03 688.31,-141.85"/>
</g>
<!-- Node24&#45;&gt;Node17 -->
<g id="edge36" class="edge">
<title>Node24&#45;&gt;Node17</title>
<path fill="none" stroke="midnightblue" d="M666.7,-173.9C646.81,-160.03 613.51,-132.21 632,-112 660.14,-81.24 923.17,-71.36 1058.04,-68.31"/>
<polygon fill="midnightblue" stroke="midnightblue" points="1058.4,-71.8 1068.32,-68.08 1058.24,-64.8 1058.4,-71.8"/>
</g>
<!-- Node24&#45;&gt;Node18 -->
<g id="edge35" class="edge">
<title>Node24&#45;&gt;Node18</title>
<path fill="none" stroke="midnightblue" d="M663.7,-173.94C641.69,-161.22 606.87,-136.19 622,-112 661.76,-48.42 896.52,-22.43 995.76,-14.19"/>
<polygon fill="midnightblue" stroke="midnightblue" points="996.08,-17.67 1005.77,-13.38 995.52,-10.69 996.08,-17.67"/>
</g>
<!-- Node25&#45;&gt;Node11 -->
<g id="edge39" class="edge">
<title>Node25&#45;&gt;Node11</title>
<path fill="none" stroke="midnightblue" d="M610.41,-235.48C664.86,-224.78 758.18,-206.46 816.85,-194.94"/>
<polygon fill="midnightblue" stroke="midnightblue" points="817.53,-198.37 826.67,-193.01 816.18,-191.5 817.53,-198.37"/>
</g>
<!-- Node25&#45;&gt;Node12 -->
<g id="edge38" class="edge">
<title>Node25&#45;&gt;Node12</title>
<path fill="none" stroke="midnightblue" d="M510.29,-239.88C450.81,-234.37 362.7,-222.44 339,-199 311.15,-171.46 298.7,-141.02 325,-112 352.2,-81.98 624.77,-71.24 735.05,-68.11"/>
<polygon fill="midnightblue" stroke="midnightblue" points="735.31,-71.6 745.2,-67.83 735.11,-64.61 735.31,-71.6"/>
</g>
<!-- Node25&#45;&gt;Node19 -->
<g id="edge40" class="edge">
<title>Node25&#45;&gt;Node19</title>
<path fill="none" stroke="midnightblue" d="M546.23,-235.48C521.57,-225.36 480.25,-208.4 452.1,-196.85"/>
<polygon fill="midnightblue" stroke="midnightblue" points="453.32,-193.57 442.74,-193.01 450.66,-200.04 453.32,-193.57"/>
</g>
<!-- Node26&#45;&gt;Node13 -->
<g id="edge43" class="edge">
<title>Node26&#45;&gt;Node13</title>
<path fill="none" stroke="midnightblue" d="M2331.85,-173.97C2315.46,-165.18 2290.84,-150.21 2274,-132 2247.64,-103.51 2263.59,-77.07 2231,-56 2194.64,-32.5 1908.13,-17.96 1791.32,-12.96"/>
<polygon fill="midnightblue" stroke="midnightblue" points="1791.36,-9.46 1781.22,-12.53 1791.06,-16.45 1791.36,-9.46"/>
</g>
<!-- Node26&#45;&gt;Node14 -->
<g id="edge42" class="edge">
<title>Node26&#45;&gt;Node14</title>
<path fill="none" stroke="midnightblue" d="M2245.1,-176.64C2044.42,-165.25 1616.76,-140.57 1535.38,-131.28"/>
<polygon fill="midnightblue" stroke="midnightblue" points="1535.62,-127.79 1525.24,-129.91 1534.68,-134.72 1535.62,-127.79"/>
</g>
<!-- Node27 -->
<g id="node27" class="node">
<title>Node27</title>
<g id="a_node27"><a xlink:title=" ">
<polygon fill="white" stroke="#bfbfbf" points="2283,-112.5 2283,-131.5 2413,-131.5 2413,-112.5 2283,-112.5"/>
<text text-anchor="middle" x="2348" y="-119.5" font-family="Helvetica,sans-Serif" font-size="10.00">glm/gtc/quaternion.hpp</text>
</a>
</g>
</g>
<!-- Node26&#45;&gt;Node27 -->
<g id="edge44" class="edge">
<title>Node26&#45;&gt;Node27</title>
<path fill="none" stroke="midnightblue" d="M2348.86,-173.98C2348.72,-165.58 2348.5,-152.48 2348.31,-141.66"/>
<polygon fill="midnightblue" stroke="midnightblue" points="2351.81,-141.45 2348.14,-131.51 2344.81,-141.57 2351.81,-141.45"/>
</g>
<!-- Node28 -->
<g id="node28" class="node">
<title>Node28</title>
<g id="a_node28"><a xlink:title=" ">
<polygon fill="white" stroke="#bfbfbf" points="2431.5,-112.5 2431.5,-131.5 2594.5,-131.5 2594.5,-112.5 2431.5,-112.5"/>
<text text-anchor="middle" x="2513" y="-119.5" font-family="Helvetica,sans-Serif" font-size="10.00">glm/gtc/matrix_transform.hpp</text>
</a>
</g>
</g>
<!-- Node26&#45;&gt;Node28 -->
<g id="edge45" class="edge">
<title>Node26&#45;&gt;Node28</title>
<path fill="none" stroke="midnightblue" d="M2372.5,-173.98C2400.63,-163.77 2447.93,-146.61 2479.79,-135.05"/>
<polygon fill="midnightblue" stroke="midnightblue" points="2481.34,-138.21 2489.55,-131.51 2478.95,-131.63 2481.34,-138.21"/>
</g>
<!-- Node29 -->
<g id="node29" class="node">
<title>Node29</title>
<g id="a_node29"><a xlink:href="_base_component_8hpp.html" target="_top" xlink:title=" ">
<polygon fill="white" stroke="black" points="2007,-112.5 2007,-131.5 2189,-131.5 2189,-112.5 2007,-112.5"/>
<text text-anchor="middle" x="2098" y="-119.5" font-family="Helvetica,sans-Serif" font-size="10.00">Components/BaseComponent.hpp</text>
</a>
</g>
</g>
<!-- Node26&#45;&gt;Node29 -->
<g id="edge46" class="edge">
<title>Node26&#45;&gt;Node29</title>
<path fill="none" stroke="midnightblue" d="M2313.04,-173.98C2268.49,-163.42 2192.54,-145.41 2143.85,-133.87"/>
<polygon fill="midnightblue" stroke="midnightblue" points="2144.43,-130.41 2133.9,-131.51 2142.82,-137.22 2144.43,-130.41"/>
</g>
<!-- Node29&#45;&gt;Node4 -->
<g id="edge47" class="edge">
<title>Node29&#45;&gt;Node4</title>
<path fill="none" stroke="midnightblue" d="M2071.06,-112.44C2042.34,-103.32 1996.67,-88.81 1964.68,-78.65"/>
<polygon fill="midnightblue" stroke="midnightblue" points="1965.4,-75.21 1954.81,-75.52 1963.28,-81.88 1965.4,-75.21"/>
</g>
<!-- Node30&#45;&gt;Node14 -->
<g id="edge49" class="edge">
<title>Node30&#45;&gt;Node14</title>
<path fill="none" stroke="midnightblue" d="M1592.1,-235.3C1576.18,-215.24 1536.71,-165.49 1516.06,-139.46"/>
<polygon fill="midnightblue" stroke="midnightblue" points="1518.8,-137.28 1509.84,-131.62 1513.32,-141.63 1518.8,-137.28"/>
</g>
<!-- Node30&#45;&gt;Node29 -->
<g id="edge64" class="edge">
<title>Node30&#45;&gt;Node29</title>
<path fill="none" stroke="midnightblue" d="M1693.08,-242.57C1834.66,-239.42 2088.99,-229.54 2117,-199 2131.74,-182.93 2120.56,-157.18 2110.16,-140.18"/>
<polygon fill="midnightblue" stroke="midnightblue" points="2113.03,-138.19 2104.62,-131.75 2107.18,-142.03 2113.03,-138.19"/>
</g>
<!-- Node31 -->
<g id="node31" class="node">
<title>Node31</title>
<g id="a_node31"><a xlink:title=" ">
<polygon fill="white" stroke="#bfbfbf" points="1891,-112.5 1891,-131.5 1951,-131.5 1951,-112.5 1891,-112.5"/>
<text text-anchor="middle" x="1921" y="-119.5" font-family="Helvetica,sans-Serif" font-size="10.00">iostream</text>
</a>
</g>
</g>
<!-- Node30&#45;&gt;Node31 -->
<g id="edge50" class="edge">
<title>Node30&#45;&gt;Node31</title>
<path fill="none" stroke="midnightblue" d="M1693.34,-236.3C1759.56,-229.42 1841.23,-217.53 1870,-199 1891.44,-185.19 1906.04,-158.82 1913.95,-141.07"/>
<polygon fill="midnightblue" stroke="midnightblue" points="1917.21,-142.35 1917.84,-131.78 1910.75,-139.65 1917.21,-142.35"/>
</g>
<!-- Node32 -->
<g id="node32" class="node">
<title>Node32</title>
<g id="a_node32"><a xlink:href="_mesh_8hpp.html" target="_top" xlink:title=" ">
<polygon fill="white" stroke="black" points="1383.5,-174 1383.5,-193 1520.5,-193 1520.5,-174 1383.5,-174"/>
<text text-anchor="middle" x="1452" y="-181" font-family="Helvetica,sans-Serif" font-size="10.00">AssetManager/Mesh.hpp</text>
</a>
</g>
</g>
<!-- Node30&#45;&gt;Node32 -->
<g id="edge51" class="edge">
<title>Node30&#45;&gt;Node32</title>
<path fill="none" stroke="midnightblue" d="M1577.94,-235.48C1552.94,-225.36 1511.06,-208.4 1482.51,-196.85"/>
<polygon fill="midnightblue" stroke="midnightblue" points="1483.61,-193.52 1473.02,-193.01 1480.98,-200.01 1483.61,-193.52"/>
</g>
<!-- Node35 -->
<g id="node35" class="node">
<title>Node35</title>
<g id="a_node35"><a xlink:href="_material_8hpp.html" target="_top" xlink:title=" ">
<polygon fill="white" stroke="black" points="1543.5,-112.5 1543.5,-131.5 1694.5,-131.5 1694.5,-112.5 1543.5,-112.5"/>
<text text-anchor="middle" x="1619" y="-119.5" font-family="Helvetica,sans-Serif" font-size="10.00">AssetManager/Material.hpp</text>
</a>
</g>
</g>
<!-- Node30&#45;&gt;Node35 -->
<g id="edge61" class="edge">
<title>Node30&#45;&gt;Node35</title>
<path fill="none" stroke="midnightblue" d="M1600.44,-235.3C1603.67,-215.76 1611.55,-168.06 1615.93,-141.55"/>
<polygon fill="midnightblue" stroke="midnightblue" points="1619.4,-142.06 1617.57,-131.62 1612.49,-140.92 1619.4,-142.06"/>
</g>
<!-- Node32&#45;&gt;Node12 -->
<g id="edge53" class="edge">
<title>Node32&#45;&gt;Node12</title>
<path fill="none" stroke="midnightblue" d="M1410.84,-173.98C1398.99,-171.77 1386.02,-169.57 1374,-168 1162.74,-140.49 1099.85,-193.9 896,-132 894.77,-131.63 838.37,-99.62 805.02,-80.66"/>
<polygon fill="midnightblue" stroke="midnightblue" points="806.72,-77.6 796.29,-75.7 803.26,-83.69 806.72,-77.6"/>
</g>
<!-- Node32&#45;&gt;Node13 -->
<g id="edge52" class="edge">
<title>Node32&#45;&gt;Node13</title>
<path fill="none" stroke="midnightblue" d="M1452.05,-173.94C1452.6,-159.36 1455.79,-129.59 1472,-112 1530.35,-48.68 1632.22,-24.85 1692.76,-16.03"/>
<polygon fill="midnightblue" stroke="midnightblue" points="1693.4,-19.48 1702.84,-14.65 1692.45,-12.54 1693.4,-19.48"/>
</g>
<!-- Node32&#45;&gt;Node14 -->
<g id="edge55" class="edge">
<title>Node32&#45;&gt;Node14</title>
<path fill="none" stroke="midnightblue" d="M1459.31,-173.98C1467.03,-164.96 1479.41,-150.52 1489.02,-139.31"/>
<polygon fill="midnightblue" stroke="midnightblue" points="1491.86,-141.38 1495.71,-131.51 1486.54,-136.82 1491.86,-141.38"/>
</g>
<!-- Node32&#45;&gt;Node17 -->
<g id="edge56" class="edge">
<title>Node32&#45;&gt;Node17</title>
<path fill="none" stroke="midnightblue" d="M1440.81,-173.97C1420.84,-159.17 1377.29,-128.7 1336,-112 1295.15,-95.48 1247.02,-84.39 1208.33,-77.36"/>
<polygon fill="midnightblue" stroke="midnightblue" points="1208.65,-73.86 1198.19,-75.57 1207.43,-80.75 1208.65,-73.86"/>
</g>
<!-- Node32&#45;&gt;Node22 -->
<g id="edge54" class="edge">
<title>Node32&#45;&gt;Node22</title>
<path fill="none" stroke="midnightblue" d="M1428.36,-173.98C1400.06,-163.77 1352.47,-146.61 1320.41,-135.05"/>
<polygon fill="midnightblue" stroke="midnightblue" points="1321.19,-131.61 1310.6,-131.51 1318.82,-138.19 1321.19,-131.61"/>
</g>
<!-- Node33 -->
<g id="node33" class="node">
<title>Node33</title>
<g id="a_node33"><a xlink:href="_box_8hpp.html" target="_top" xlink:title=" ">
<polygon fill="white" stroke="black" points="1751,-112.5 1751,-131.5 1835,-131.5 1835,-112.5 1751,-112.5"/>
<text text-anchor="middle" x="1793" y="-119.5" font-family="Helvetica,sans-Serif" font-size="10.00">Math/Box.hpp</text>
</a>
</g>
</g>
<!-- Node32&#45;&gt;Node33 -->
<g id="edge57" class="edge">
<title>Node32&#45;&gt;Node33</title>
<path fill="none" stroke="midnightblue" d="M1500.86,-173.98C1564.57,-162.86 1675.58,-143.49 1740.87,-132.1"/>
<polygon fill="midnightblue" stroke="midnightblue" points="1741.7,-135.5 1750.95,-130.34 1740.49,-128.61 1741.7,-135.5"/>
</g>
<!-- Node33&#45;&gt;Node13 -->
<g id="edge58" class="edge">
<title>Node33&#45;&gt;Node13</title>
<path fill="none" stroke="midnightblue" d="M1785.72,-112.2C1778.81,-103.47 1768.53,-89.49 1762,-76 1754.77,-61.06 1749.44,-42.92 1746.12,-29.6"/>
<polygon fill="midnightblue" stroke="midnightblue" points="1749.49,-28.66 1743.79,-19.73 1742.68,-30.26 1749.49,-28.66"/>
</g>
<!-- Node34 -->
<g id="node34" class="node">
<title>Node34</title>
<g id="a_node34"><a xlink:href="_ray_8hpp.html" target="_top" xlink:title=" ">
<polygon fill="white" stroke="black" points="1770.5,-56.5 1770.5,-75.5 1853.5,-75.5 1853.5,-56.5 1770.5,-56.5"/>
<text text-anchor="middle" x="1812" y="-63.5" font-family="Helvetica,sans-Serif" font-size="10.00">Math/Ray.hpp</text>
</a>
</g>
</g>
<!-- Node33&#45;&gt;Node34 -->
<g id="edge59" class="edge">
<title>Node33&#45;&gt;Node34</title>
<path fill="none" stroke="midnightblue" d="M1796.14,-112.08C1798.68,-104.85 1802.36,-94.41 1805.53,-85.4"/>
<polygon fill="midnightblue" stroke="midnightblue" points="1808.9,-86.35 1808.92,-75.75 1802.3,-84.02 1808.9,-86.35"/>
</g>
<!-- Node34&#45;&gt;Node13 -->
<g id="edge60" class="edge">
<title>Node34&#45;&gt;Node13</title>
<path fill="none" stroke="midnightblue" d="M1800.75,-56.32C1790.2,-48.18 1774.2,-35.84 1761.56,-26.09"/>
<polygon fill="midnightblue" stroke="midnightblue" points="1763.51,-23.17 1753.45,-19.83 1759.23,-28.71 1763.51,-23.17"/>
</g>
<!-- Node35&#45;&gt;Node13 -->
<g id="edge62" class="edge">
<title>Node35&#45;&gt;Node13</title>
<path fill="none" stroke="midnightblue" d="M1628.57,-112.08C1642.13,-99.48 1667.78,-75.78 1690,-56 1701.29,-45.95 1714.12,-34.84 1724.22,-26.17"/>
<polygon fill="midnightblue" stroke="midnightblue" points="1726.64,-28.71 1731.96,-19.54 1722.09,-23.39 1726.64,-28.71"/>
</g>
<!-- Node35&#45;&gt;Node17 -->
<g id="edge63" class="edge">
<title>Node35&#45;&gt;Node17</title>
<path fill="none" stroke="midnightblue" d="M1543.42,-112.53C1454.17,-102.53 1306.43,-85.98 1215.8,-75.83"/>
<polygon fill="midnightblue" stroke="midnightblue" points="1216.18,-72.35 1205.85,-74.71 1215.4,-79.31 1216.18,-72.35"/>
</g>
<!-- Node36&#45;&gt;Node3 -->
<g id="edge66" class="edge">
<title>Node36&#45;&gt;Node3</title>
<path fill="none" stroke="midnightblue" d="M1233.99,-242.3C1039.74,-238.48 638.85,-227.26 582,-199 568.65,-192.37 543.97,-160.44 529.16,-140.14"/>
<polygon fill="midnightblue" stroke="midnightblue" points="531.81,-137.83 523.13,-131.76 526.13,-141.92 531.81,-137.83"/>
</g>
<!-- Node36&#45;&gt;Node29 -->
<g id="edge73" class="edge">
<title>Node36&#45;&gt;Node29</title>
<path fill="none" stroke="midnightblue" d="M1444.31,-237.84C1649.37,-225.83 2082.52,-200.31 2084,-199 2099.82,-185 2101.48,-159.46 2100.4,-141.88"/>
<polygon fill="midnightblue" stroke="midnightblue" points="2103.87,-141.3 2099.43,-131.67 2096.9,-141.96 2103.87,-141.3"/>
</g>
<!-- Node37 -->
<g id="node37" class="node">
<title>Node37</title>
<g id="a_node37"><a xlink:href="_wireframe_8hpp.html" target="_top" xlink:title=" ">
<polygon fill="white" stroke="black" points="1203,-174 1203,-193 1365,-193 1365,-174 1203,-174"/>
<text text-anchor="middle" x="1284" y="-181" font-family="Helvetica,sans-Serif" font-size="10.00">AssetManager/Wireframe.hpp</text>
</a>
</g>
</g>
<!-- Node36&#45;&gt;Node37 -->
<g id="edge67" class="edge">
<title>Node36&#45;&gt;Node37</title>
<path fill="none" stroke="midnightblue" d="M1331.12,-235.48C1322.71,-226.37 1309.18,-211.74 1298.77,-200.48"/>
<polygon fill="midnightblue" stroke="midnightblue" points="1301.22,-197.98 1291.87,-193.01 1296.08,-202.73 1301.22,-197.98"/>
</g>
<!-- Node37&#45;&gt;Node12 -->
<g id="edge69" class="edge">
<title>Node37&#45;&gt;Node12</title>
<path fill="none" stroke="midnightblue" d="M1234.08,-173.99C1221.06,-171.89 1207.02,-169.75 1194,-168 1046.91,-148.19 999.16,-188.72 862,-132 835.33,-120.97 810.34,-98.31 795.36,-82.89"/>
<polygon fill="midnightblue" stroke="midnightblue" points="797.88,-80.46 788.48,-75.58 792.78,-85.26 797.88,-80.46"/>
</g>
<!-- Node37&#45;&gt;Node13 -->
<g id="edge68" class="edge">
<title>Node37&#45;&gt;Node13</title>
<path fill="none" stroke="midnightblue" d="M1296.31,-173.91C1329.68,-151.05 1425.35,-88.25 1514,-56 1573.4,-34.4 1645.48,-22.38 1692.47,-16.31"/>
<polygon fill="midnightblue" stroke="midnightblue" points="1693.2,-19.75 1702.69,-15.03 1692.33,-12.8 1693.2,-19.75"/>
</g>
<!-- Node37&#45;&gt;Node14 -->
<g id="edge71" class="edge">
<title>Node37&#45;&gt;Node14</title>
<path fill="none" stroke="midnightblue" d="M1315.38,-173.98C1356.81,-162.72 1429.38,-143 1471.08,-131.67"/>
<polygon fill="midnightblue" stroke="midnightblue" points="1472.25,-134.98 1480.98,-128.98 1470.41,-128.23 1472.25,-134.98"/>
</g>
<!-- Node37&#45;&gt;Node17 -->
<g id="edge72" class="edge">
<title>Node37&#45;&gt;Node17</title>
<path fill="none" stroke="midnightblue" d="M1294.64,-173.63C1310.18,-159.61 1335.6,-131.9 1320,-112 1306.75,-95.1 1258.97,-83.7 1215.56,-76.6"/>
<polygon fill="midnightblue" stroke="midnightblue" points="1215.93,-73.12 1205.51,-75.02 1214.84,-80.03 1215.93,-73.12"/>
</g>
<!-- Node37&#45;&gt;Node22 -->
<g id="edge70" class="edge">
<title>Node37&#45;&gt;Node22</title>
<path fill="none" stroke="midnightblue" d="M1284.43,-173.98C1284.85,-165.58 1285.51,-152.48 1286.06,-141.66"/>
<polygon fill="midnightblue" stroke="midnightblue" points="1289.56,-141.67 1286.57,-131.51 1282.57,-141.32 1289.56,-141.67"/>
</g>
<!-- Node38&#45;&gt;Node13 -->
<g id="edge75" class="edge">
<title>Node38&#45;&gt;Node13</title>
<path fill="none" stroke="midnightblue" d="M2544.66,-235.36C2564.11,-228.51 2588.07,-217.03 2603,-199 2628.25,-168.52 2647.8,-142.02 2622,-112 2567.43,-48.5 1968.82,-19.94 1791.32,-12.83"/>
<polygon fill="midnightblue" stroke="midnightblue" points="1791.35,-9.33 1781.22,-12.44 1791.08,-16.33 1791.35,-9.33"/>
</g>
<!-- Node38&#45;&gt;Node26 -->
<g id="edge78" class="edge">
<title>Node38&#45;&gt;Node26</title>
<path fill="none" stroke="midnightblue" d="M2489.5,-235.48C2461.37,-225.27 2414.07,-208.11 2382.21,-196.55"/>
<polygon fill="midnightblue" stroke="midnightblue" points="2383.05,-193.13 2372.45,-193.01 2380.66,-199.71 2383.05,-193.13"/>
</g>
<!-- Node38&#45;&gt;Node28 -->
<g id="edge76" class="edge">
<title>Node38&#45;&gt;Node28</title>
<path fill="none" stroke="midnightblue" d="M2513,-235.3C2513,-215.85 2513,-168.49 2513,-141.9"/>
<polygon fill="midnightblue" stroke="midnightblue" points="2516.5,-141.62 2513,-131.62 2509.5,-141.62 2516.5,-141.62"/>
</g>
<!-- Node38&#45;&gt;Node34 -->
<g id="edge77" class="edge">
<title>Node38&#45;&gt;Node34</title>
<path fill="none" stroke="midnightblue" d="M2527.08,-235.29C2561.33,-213.11 2643.36,-153.32 2604,-112 2576.82,-83.47 1961.75,-80.78 1863.81,-75.54"/>
<polygon fill="midnightblue" stroke="midnightblue" points="1863.92,-72.04 1853.69,-74.8 1863.4,-79.02 1863.92,-72.04"/>
</g>
<!-- Node39&#45;&gt;Node13 -->
<g id="edge82" class="edge">
<title>Node39&#45;&gt;Node13</title>
<path fill="none" stroke="midnightblue" d="M1753.55,-173.73C1749.84,-163.8 1744.18,-147.02 1742,-132 1736.78,-96.09 1738.6,-53.55 1740.34,-29.68"/>
<polygon fill="midnightblue" stroke="midnightblue" points="1743.84,-29.82 1741.16,-19.57 1736.87,-29.26 1743.84,-29.82"/>
</g>
<!-- Node39&#45;&gt;Node14 -->
<g id="edge80" class="edge">
<title>Node39&#45;&gt;Node14</title>
<path fill="none" stroke="midnightblue" d="M1716.75,-173.98C1674.16,-164.83 1604.79,-149.52 1535.16,-131.93"/>
<polygon fill="midnightblue" stroke="midnightblue" points="1535.89,-128.51 1525.34,-129.44 1534.17,-135.29 1535.89,-128.51"/>
</g>
<!-- Node39&#45;&gt;Node29 -->
<g id="edge83" class="edge">
<title>Node39&#45;&gt;Node29</title>
<path fill="none" stroke="midnightblue" d="M1805.86,-173.98C1867.39,-163.24 1973.03,-144.81 2039,-133.29"/>
<polygon fill="midnightblue" stroke="midnightblue" points="2039.98,-136.68 2049.23,-131.51 2038.78,-129.78 2039.98,-136.68"/>
</g>
<!-- Node39&#45;&gt;Node31 -->
<g id="edge81" class="edge">
<title>Node39&#45;&gt;Node31</title>
<path fill="none" stroke="midnightblue" d="M1780.5,-173.98C1808.63,-163.77 1855.93,-146.61 1887.79,-135.05"/>
<polygon fill="midnightblue" stroke="midnightblue" points="1889.34,-138.21 1897.55,-131.51 1886.95,-131.63 1889.34,-138.21"/>
</g>
<!-- Node40&#45;&gt;Node13 -->
<g id="edge85" class="edge">
<title>Node40&#45;&gt;Node13</title>
<path fill="none" stroke="midnightblue" d="M2158.22,-235.47C2178.66,-213.2 2228.05,-152.25 2198,-112 2149.58,-47.16 1899.45,-22.03 1791.59,-14.1"/>
<polygon fill="midnightblue" stroke="midnightblue" points="1791.53,-10.59 1781.3,-13.37 1791.03,-17.57 1791.53,-10.59"/>
</g>
<!-- Node40&#45;&gt;Node21 -->
<g id="edge87" class="edge">
<title>Node40&#45;&gt;Node21</title>
<path fill="none" stroke="midnightblue" d="M2052.95,-241.15C1844.19,-234.73 1358.1,-218.22 1194,-199 1185.07,-197.95 1175.61,-196.48 1166.5,-194.87"/>
<polygon fill="midnightblue" stroke="midnightblue" points="1166.87,-191.38 1156.41,-193.01 1165.61,-198.27 1166.87,-191.38"/>
</g>
<!-- Node40&#45;&gt;Node29 -->
<g id="edge86" class="edge">
<title>Node40&#45;&gt;Node29</title>
<path fill="none" stroke="midnightblue" d="M2153.17,-235.5C2158.06,-220.87 2165.84,-190.37 2155,-168 2148.6,-154.8 2136.25,-144.3 2124.67,-136.78"/>
<polygon fill="midnightblue" stroke="midnightblue" points="2126.45,-133.77 2116.08,-131.61 2122.84,-139.77 2126.45,-133.77"/>
</g>
<!-- Node41&#45;&gt;Node13 -->
<g id="edge91" class="edge">
<title>Node41&#45;&gt;Node13</title>
<path fill="none" stroke="midnightblue" d="M1996.26,-168.07C1996.77,-135.79 1997.58,-60.2 1994,-56 1968.44,-25.96 1857.17,-15.94 1791.34,-12.62"/>
<polygon fill="midnightblue" stroke="midnightblue" points="1791.34,-9.12 1781.18,-12.15 1791.01,-16.11 1791.34,-9.12"/>
</g>
<!-- Node41&#45;&gt;Node14 -->
<g id="edge89" class="edge">
<title>Node41&#45;&gt;Node14</title>
<path fill="none" stroke="midnightblue" d="M1916.7,-173.28C1901.21,-171.51 1885.1,-169.68 1870,-168 1724.37,-151.8 1683.77,-160 1535.21,-131.69"/>
<polygon fill="midnightblue" stroke="midnightblue" points="1535.75,-128.23 1525.27,-129.78 1534.42,-135.11 1535.75,-128.23"/>
</g>
<!-- Node41&#45;&gt;Node29 -->
<g id="edge92" class="edge">
<title>Node41&#45;&gt;Node29</title>
<path fill="none" stroke="midnightblue" d="M2020.17,-168.4C2036.52,-158.86 2058.01,-146.32 2074.27,-136.84"/>
<polygon fill="midnightblue" stroke="midnightblue" points="2076.28,-139.72 2083.16,-131.66 2072.76,-133.67 2076.28,-139.72"/>
</g>
<!-- Node41&#45;&gt;Node31 -->
<g id="edge90" class="edge">
<title>Node41&#45;&gt;Node31</title>
<path fill="none" stroke="midnightblue" d="M1978.23,-168.4C1966.65,-159.22 1951.58,-147.26 1939.8,-137.92"/>
<polygon fill="midnightblue" stroke="midnightblue" points="1941.92,-135.13 1931.91,-131.66 1937.57,-140.61 1941.92,-135.13"/>
</g>
</g>
</svg>
