<?xml version="1.0" encoding="UTF-8" standalone="no"?>
<!DOCTYPE svg PUBLIC "-//W3C//DTD SVG 1.1//EN"
 "http://www.w3.org/Graphics/SVG/1.1/DTD/svg11.dtd">
<!-- Generated by graphviz version 2.43.0 (0)
 -->
<!-- Title: src/renderer/Renderer.cpp Pages: 1 -->
<svg width="811pt" height="308pt"
 viewBox="0.00 0.00 810.50 308.00" xmlns="http://www.w3.org/2000/svg" xmlns:xlink="http://www.w3.org/1999/xlink">
<g id="graph0" class="graph" transform="scale(1 1) rotate(0) translate(4 304)">
<title>src/renderer/Renderer.cpp</title>
<polygon fill="white" stroke="transparent" points="-4,4 -4,-304 806.5,-304 806.5,4 -4,4"/>
<!-- Node1 -->
<g id="node1" class="node">
<title>Node1</title>
<g id="a_node1"><a xlink:title=" ">
<polygon fill="#bfbfbf" stroke="black" points="396,-280.5 396,-299.5 538,-299.5 538,-280.5 396,-280.5"/>
<text text-anchor="middle" x="467" y="-287.5" font-family="Helvetica,sans-Serif" font-size="10.00">src/renderer/Renderer.cpp</text>
</a>
</g>
</g>
<!-- Node2 -->
<g id="node2" class="node">
<title>Node2</title>
<g id="a_node2"><a xlink:href="_renderer_8hpp.html" target="_top" xlink:title=" ">
<polygon fill="white" stroke="black" points="103.5,-224.5 103.5,-243.5 228.5,-243.5 228.5,-224.5 103.5,-224.5"/>
<text text-anchor="middle" x="166" y="-231.5" font-family="Helvetica,sans-Serif" font-size="10.00">renderer/Renderer.hpp</text>
</a>
</g>
</g>
<!-- Node1&#45;&gt;Node2 -->
<g id="edge1" class="edge">
<title>Node1&#45;&gt;Node2</title>
<path fill="none" stroke="midnightblue" d="M419.31,-280.44C366.14,-270.9 280.18,-255.48 223.37,-245.29"/>
<polygon fill="midnightblue" stroke="midnightblue" points="223.93,-241.84 213.47,-243.52 222.7,-248.73 223.93,-241.84"/>
</g>
<!-- Node7 -->
<g id="node7" class="node">
<title>Node7</title>
<g id="a_node7"><a xlink:title=" ">
<polygon fill="white" stroke="#bfbfbf" points="266,-56.5 266,-75.5 310,-75.5 310,-56.5 266,-56.5"/>
<text text-anchor="middle" x="288" y="-63.5" font-family="Helvetica,sans-Serif" font-size="10.00">string</text>
</a>
</g>
</g>
<!-- Node1&#45;&gt;Node7 -->
<g id="edge18" class="edge">
<title>Node1&#45;&gt;Node7</title>
<path fill="none" stroke="midnightblue" d="M405.36,-280.42C362.54,-273.09 310.8,-261.01 297,-244 259.57,-197.85 273.49,-120.62 282.59,-85.45"/>
<polygon fill="midnightblue" stroke="midnightblue" points="286.02,-86.17 285.3,-75.6 279.27,-84.31 286.02,-86.17"/>
</g>
<!-- Node11 -->
<g id="node11" class="node">
<title>Node11</title>
<g id="a_node11"><a xlink:title=" ">
<polygon fill="white" stroke="#bfbfbf" points="305.5,-224.5 305.5,-243.5 352.5,-243.5 352.5,-224.5 305.5,-224.5"/>
<text text-anchor="middle" x="329" y="-231.5" font-family="Helvetica,sans-Serif" font-size="10.00">cmath</text>
</a>
</g>
</g>
<!-- Node1&#45;&gt;Node11 -->
<g id="edge12" class="edge">
<title>Node1&#45;&gt;Node11</title>
<path fill="none" stroke="midnightblue" d="M445.13,-280.44C422.22,-271.48 386.02,-257.31 360.13,-247.18"/>
<polygon fill="midnightblue" stroke="midnightblue" points="361.35,-243.9 350.76,-243.52 358.8,-250.42 361.35,-243.9"/>
</g>
<!-- Node12 -->
<g id="node12" class="node">
<title>Node12</title>
<g id="a_node12"><a xlink:title=" ">
<polygon fill="white" stroke="#bfbfbf" points="371,-224.5 371,-243.5 421,-243.5 421,-224.5 371,-224.5"/>
<text text-anchor="middle" x="396" y="-231.5" font-family="Helvetica,sans-Serif" font-size="10.00">cstring</text>
</a>
</g>
</g>
<!-- Node1&#45;&gt;Node12 -->
<g id="edge13" class="edge">
<title>Node1&#45;&gt;Node12</title>
<path fill="none" stroke="midnightblue" d="M455.59,-280.32C444.89,-272.18 428.66,-259.84 415.84,-250.09"/>
<polygon fill="midnightblue" stroke="midnightblue" points="417.69,-247.1 407.61,-243.83 413.46,-252.67 417.69,-247.1"/>
</g>
<!-- Node13 -->
<g id="node13" class="node">
<title>Node13</title>
<g id="a_node13"><a xlink:title=" ">
<polygon fill="white" stroke="#bfbfbf" points="439.5,-224.5 439.5,-243.5 494.5,-243.5 494.5,-224.5 439.5,-224.5"/>
<text text-anchor="middle" x="467" y="-231.5" font-family="Helvetica,sans-Serif" font-size="10.00">fstream</text>
</a>
</g>
</g>
<!-- Node1&#45;&gt;Node13 -->
<g id="edge14" class="edge">
<title>Node1&#45;&gt;Node13</title>
<path fill="none" stroke="midnightblue" d="M467,-280.08C467,-273.01 467,-262.86 467,-253.99"/>
<polygon fill="midnightblue" stroke="midnightblue" points="470.5,-253.75 467,-243.75 463.5,-253.75 470.5,-253.75"/>
</g>
<!-- Node14 -->
<g id="node14" class="node">
<title>Node14</title>
<g id="a_node14"><a xlink:title=" ">
<polygon fill="white" stroke="#bfbfbf" points="513,-224.5 513,-243.5 573,-243.5 573,-224.5 513,-224.5"/>
<text text-anchor="middle" x="543" y="-231.5" font-family="Helvetica,sans-Serif" font-size="10.00">iostream</text>
</a>
</g>
</g>
<!-- Node1&#45;&gt;Node14 -->
<g id="edge15" class="edge">
<title>Node1&#45;&gt;Node14</title>
<path fill="none" stroke="midnightblue" d="M479.21,-280.32C490.78,-272.11 508.38,-259.6 522.16,-249.81"/>
<polygon fill="midnightblue" stroke="midnightblue" points="524.44,-252.48 530.57,-243.83 520.39,-246.77 524.44,-252.48"/>
</g>
<!-- Node15 -->
<g id="node15" class="node">
<title>Node15</title>
<g id="a_node15"><a xlink:title=" ">
<polygon fill="white" stroke="#bfbfbf" points="591,-224.5 591,-243.5 639,-243.5 639,-224.5 591,-224.5"/>
<text text-anchor="middle" x="615" y="-231.5" font-family="Helvetica,sans-Serif" font-size="10.00">mutex</text>
</a>
</g>
</g>
<!-- Node1&#45;&gt;Node15 -->
<g id="edge16" class="edge">
<title>Node1&#45;&gt;Node15</title>
<path fill="none" stroke="midnightblue" d="M490.45,-280.44C515.13,-271.44 554.19,-257.19 581.98,-247.05"/>
<polygon fill="midnightblue" stroke="midnightblue" points="583.46,-250.23 591.66,-243.52 581.06,-243.66 583.46,-250.23"/>
</g>
<!-- Node16 -->
<g id="node16" class="node">
<title>Node16</title>
<g id="a_node16"><a xlink:title=" ">
<polygon fill="white" stroke="#bfbfbf" points="657,-224.5 657,-243.5 713,-243.5 713,-224.5 657,-224.5"/>
<text text-anchor="middle" x="685" y="-231.5" font-family="Helvetica,sans-Serif" font-size="10.00">sstream</text>
</a>
</g>
</g>
<!-- Node1&#45;&gt;Node16 -->
<g id="edge17" class="edge">
<title>Node1&#45;&gt;Node16</title>
<path fill="none" stroke="midnightblue" d="M501.54,-280.44C541.17,-270.63 605.93,-254.59 646.97,-244.42"/>
<polygon fill="midnightblue" stroke="midnightblue" points="647.99,-247.77 656.86,-241.97 646.31,-240.98 647.99,-247.77"/>
</g>
<!-- Node17 -->
<g id="node17" class="node">
<title>Node17</title>
<g id="a_node17"><a xlink:title=" ">
<polygon fill="white" stroke="#bfbfbf" points="731.5,-224.5 731.5,-243.5 802.5,-243.5 802.5,-224.5 731.5,-224.5"/>
<text text-anchor="middle" x="767" y="-231.5" font-family="Helvetica,sans-Serif" font-size="10.00">glad/glad.h</text>
</a>
</g>
</g>
<!-- Node1&#45;&gt;Node17 -->
<g id="edge19" class="edge">
<title>Node1&#45;&gt;Node17</title>
<path fill="none" stroke="midnightblue" d="M517.38,-280.46C566.75,-272.01 644.4,-258.51 721.29,-244.1"/>
<polygon fill="midnightblue" stroke="midnightblue" points="721.97,-247.53 731.15,-242.25 720.68,-240.65 721.97,-247.53"/>
</g>
<!-- Node3 -->
<g id="node3" class="node">
<title>Node3</title>
<g id="a_node3"><a xlink:href="_game_8hpp.html" target="_top" xlink:title="Contains the declaration of the Game class, representing the game environment.">
<polygon fill="white" stroke="black" points="96,-168.5 96,-187.5 194,-187.5 194,-168.5 96,-168.5"/>
<text text-anchor="middle" x="145" y="-175.5" font-family="Helvetica,sans-Serif" font-size="10.00">game/Game.hpp</text>
</a>
</g>
</g>
<!-- Node2&#45;&gt;Node3 -->
<g id="edge2" class="edge">
<title>Node2&#45;&gt;Node3</title>
<path fill="none" stroke="midnightblue" d="M162.53,-224.08C159.69,-216.77 155.57,-206.18 152.04,-197.1"/>
<polygon fill="midnightblue" stroke="midnightblue" points="155.29,-195.8 148.4,-187.75 148.77,-198.34 155.29,-195.8"/>
</g>
<!-- Node4 -->
<g id="node4" class="node">
<title>Node4</title>
<g id="a_node4"><a xlink:title=" ">
<polygon fill="white" stroke="#bfbfbf" points="190,-56.5 190,-75.5 248,-75.5 248,-56.5 190,-56.5"/>
<text text-anchor="middle" x="219" y="-63.5" font-family="Helvetica,sans-Serif" font-size="10.00">memory</text>
</a>
</g>
</g>
<!-- Node3&#45;&gt;Node4 -->
<g id="edge3" class="edge">
<title>Node3&#45;&gt;Node4</title>
<path fill="none" stroke="midnightblue" d="M164.81,-168.4C179.46,-160.95 198.62,-148.74 209,-132 217.56,-118.21 219.7,-99.68 219.9,-85.94"/>
<polygon fill="midnightblue" stroke="midnightblue" points="223.4,-85.66 219.72,-75.73 216.4,-85.79 223.4,-85.66"/>
</g>
<!-- Node5 -->
<g id="node5" class="node">
<title>Node5</title>
<g id="a_node5"><a xlink:title=" ">
<polygon fill="white" stroke="#bfbfbf" points="18.5,-56.5 18.5,-75.5 65.5,-75.5 65.5,-56.5 18.5,-56.5"/>
<text text-anchor="middle" x="42" y="-63.5" font-family="Helvetica,sans-Serif" font-size="10.00">vector</text>
</a>
</g>
</g>
<!-- Node3&#45;&gt;Node5 -->
<g id="edge4" class="edge">
<title>Node3&#45;&gt;Node5</title>
<path fill="none" stroke="midnightblue" d="M117.88,-168.44C99.67,-161.38 76.44,-149.63 62,-132 51.14,-118.74 46.16,-99.61 43.89,-85.54"/>
<polygon fill="midnightblue" stroke="midnightblue" points="47.35,-85.01 42.59,-75.54 40.41,-85.91 47.35,-85.01"/>
</g>
<!-- Node6 -->
<g id="node6" class="node">
<title>Node6</title>
<g id="a_node6"><a xlink:href="_game_object_8hpp.html" target="_top" xlink:title="Contains the declaration of the GameObject class, representing a game object in the system.">
<polygon fill="white" stroke="black" points="70.5,-112.5 70.5,-131.5 199.5,-131.5 199.5,-112.5 70.5,-112.5"/>
<text text-anchor="middle" x="135" y="-119.5" font-family="Helvetica,sans-Serif" font-size="10.00">game/GameObject.hpp</text>
</a>
</g>
</g>
<!-- Node3&#45;&gt;Node6 -->
<g id="edge5" class="edge">
<title>Node3&#45;&gt;Node6</title>
<path fill="none" stroke="midnightblue" d="M143.35,-168.08C142.02,-160.93 140.12,-150.64 138.46,-141.69"/>
<polygon fill="midnightblue" stroke="midnightblue" points="141.88,-140.95 136.62,-131.75 135,-142.22 141.88,-140.95"/>
</g>
<!-- Node6&#45;&gt;Node4 -->
<g id="edge6" class="edge">
<title>Node6&#45;&gt;Node4</title>
<path fill="none" stroke="midnightblue" d="M148.5,-112.32C161.6,-103.9 181.71,-90.97 197.11,-81.07"/>
<polygon fill="midnightblue" stroke="midnightblue" points="199.02,-84.01 205.54,-75.65 195.23,-78.12 199.02,-84.01"/>
</g>
<!-- Node6&#45;&gt;Node5 -->
<g id="edge8" class="edge">
<title>Node6&#45;&gt;Node5</title>
<path fill="none" stroke="midnightblue" d="M120.06,-112.32C105.41,-103.82 82.87,-90.73 65.76,-80.8"/>
<polygon fill="midnightblue" stroke="midnightblue" points="67.31,-77.65 56.9,-75.65 63.8,-83.7 67.31,-77.65"/>
</g>
<!-- Node6&#45;&gt;Node7 -->
<g id="edge7" class="edge">
<title>Node6&#45;&gt;Node7</title>
<path fill="none" stroke="midnightblue" d="M159.24,-112.44C185.47,-103.19 227.4,-88.39 256.25,-78.21"/>
<polygon fill="midnightblue" stroke="midnightblue" points="257.59,-81.44 265.86,-74.82 255.26,-74.84 257.59,-81.44"/>
</g>
<!-- Node8 -->
<g id="node8" class="node">
<title>Node8</title>
<g id="a_node8"><a xlink:href="_entity_8hpp.html" target="_top" xlink:title=" ">
<polygon fill="white" stroke="black" points="83.5,-56.5 83.5,-75.5 172.5,-75.5 172.5,-56.5 83.5,-56.5"/>
<text text-anchor="middle" x="128" y="-63.5" font-family="Helvetica,sans-Serif" font-size="10.00">core/Entity.hpp</text>
</a>
</g>
</g>
<!-- Node6&#45;&gt;Node8 -->
<g id="edge9" class="edge">
<title>Node6&#45;&gt;Node8</title>
<path fill="none" stroke="midnightblue" d="M133.84,-112.08C132.92,-104.93 131.58,-94.64 130.42,-85.69"/>
<polygon fill="midnightblue" stroke="midnightblue" points="133.89,-85.22 129.13,-75.75 126.95,-86.12 133.89,-85.22"/>
</g>
<!-- Node9 -->
<g id="node9" class="node">
<title>Node9</title>
<g id="a_node9"><a xlink:title=" ">
<polygon fill="white" stroke="#bfbfbf" points="0,-0.5 0,-19.5 130,-19.5 130,-0.5 0,-0.5"/>
<text text-anchor="middle" x="65" y="-7.5" font-family="Helvetica,sans-Serif" font-size="10.00">glm/gtc/quaternion.hpp</text>
</a>
</g>
</g>
<!-- Node8&#45;&gt;Node9 -->
<g id="edge10" class="edge">
<title>Node8&#45;&gt;Node9</title>
<path fill="none" stroke="midnightblue" d="M117.88,-56.32C108.47,-48.26 94.26,-36.08 82.93,-26.37"/>
<polygon fill="midnightblue" stroke="midnightblue" points="85.18,-23.68 75.31,-19.83 80.62,-29 85.18,-23.68"/>
</g>
<!-- Node10 -->
<g id="node10" class="node">
<title>Node10</title>
<g id="a_node10"><a xlink:title=" ">
<polygon fill="white" stroke="#bfbfbf" points="148.5,-0.5 148.5,-19.5 231.5,-19.5 231.5,-0.5 148.5,-0.5"/>
<text text-anchor="middle" x="190" y="-7.5" font-family="Helvetica,sans-Serif" font-size="10.00">glm/vec3.hpp</text>
</a>
</g>
</g>
<!-- Node8&#45;&gt;Node10 -->
<g id="edge11" class="edge">
<title>Node8&#45;&gt;Node10</title>
<path fill="none" stroke="midnightblue" d="M137.96,-56.32C147.13,-48.34 160.94,-36.31 172.03,-26.65"/>
<polygon fill="midnightblue" stroke="midnightblue" points="174.62,-29.04 179.86,-19.83 170.02,-23.76 174.62,-29.04"/>
</g>
</g>
</svg>
