<?xml version="1.0" encoding="UTF-8" standalone="no"?>
<!DOCTYPE svg PUBLIC "-//W3C//DTD SVG 1.1//EN"
 "http://www.w3.org/Graphics/SVG/1.1/DTD/svg11.dtd">
<!-- Generated by graphviz version 2.43.0 (0)
 -->
<!-- Title: src/Rendering/Utils.hpp Pages: 1 -->
<svg width="736pt" height="313pt"
 viewBox="0.00 0.00 735.72 313.00" xmlns="http://www.w3.org/2000/svg" xmlns:xlink="http://www.w3.org/1999/xlink">
<g id="graph0" class="graph" transform="scale(1 1) rotate(0) translate(4 309)">
<title>src/Rendering/Utils.hpp</title>
<!-- Node1 -->
<g id="Node000001" class="node">
<title>Node1</title>
<g id="a_Node000001"><a xlink:title=" ">
<polygon fill="#999999" stroke="#666666" points="238.22,-305 108.22,-305 108.22,-286 238.22,-286 238.22,-305"/>
<text text-anchor="middle" x="173.22" y="-293" font-family="Helvetica,sans-Serif" font-size="10.00">src/Rendering/Utils.hpp</text>
</a>
</g>
</g>
<!-- Node2 -->
<g id="Node000002" class="node">
<title>Node2</title>
<g id="a_Node000002"><a xlink:title=" ">
<polygon fill="#e0e0e0" stroke="#999999" points="241.72,-129 170.72,-129 170.72,-110 241.72,-110 241.72,-129"/>
<text text-anchor="middle" x="206.22" y="-117" font-family="Helvetica,sans-Serif" font-size="10.00">glad/glad.h</text>
</a>
</g>
</g>
<!-- Node1&#45;&gt;Node2 -->
<g id="edge1_Node000001_Node000002" class="edge">
<title>Node1&#45;&gt;Node2</title>
<g id="a_edge1_Node000001_Node000002"><a xlink:title=" ">
<path fill="none" stroke="#63b8ff" d="M144.16,-285.9C86.27,-267.33 -34.21,-220.64 10.22,-165 14.96,-159.06 103.96,-140.61 160.39,-129.42"/>
<polygon fill="#63b8ff" stroke="#63b8ff" points="161.38,-132.79 170.51,-127.41 160.03,-125.92 161.38,-132.79"/>
</a>
</g>
</g>
<!-- Node3 -->
<g id="Node000003" class="node">
<title>Node3</title>
<g id="a_Node000003"><a xlink:href="_shader_program_8hpp.html" target="_top" xlink:title=" ">
<polygon fill="white" stroke="#666666" points="436.72,-244.5 271.72,-244.5 271.72,-225.5 436.72,-225.5 436.72,-244.5"/>
<text text-anchor="middle" x="354.22" y="-232.5" font-family="Helvetica,sans-Serif" font-size="10.00">Rendering/ShaderProgram.hpp</text>
</a>
</g>
</g>
<!-- Node1&#45;&gt;Node3 -->
<g id="edge2_Node000001_Node000003" class="edge">
<title>Node1&#45;&gt;Node3</title>
<g id="a_edge2_Node000001_Node000003"><a xlink:title=" ">
<path fill="none" stroke="#63b8ff" d="M199.54,-285.99C230.77,-275.9 283.02,-259.01 318.04,-247.69"/>
<polygon fill="#63b8ff" stroke="#63b8ff" points="319.43,-250.92 327.87,-244.52 317.28,-244.26 319.43,-250.92"/>
</a>
</g>
</g>
<!-- Node11 -->
<g id="Node000011" class="node">
<title>Node11</title>
<g id="a_Node000011"><a xlink:href="_scene_frame_buffer_8hpp.html" target="_top" xlink:title=" ">
<polygon fill="white" stroke="#666666" points="240.22,-250 106.22,-250 106.22,-220 240.22,-220 240.22,-250"/>
<text text-anchor="start" x="114.22" y="-238" font-family="Helvetica,sans-Serif" font-size="10.00">Rendering/FrameBuffers</text>
<text text-anchor="middle" x="173.22" y="-227" font-family="Helvetica,sans-Serif" font-size="10.00">/SceneFrameBuffer.hpp</text>
</a>
</g>
</g>
<!-- Node1&#45;&gt;Node11 -->
<g id="edge12_Node000001_Node000011" class="edge">
<title>Node1&#45;&gt;Node11</title>
<g id="a_edge12_Node000001_Node000011"><a xlink:title=" ">
<path fill="none" stroke="#63b8ff" d="M173.22,-285.87C173.22,-279.11 173.22,-269.35 173.22,-260.26"/>
<polygon fill="#63b8ff" stroke="#63b8ff" points="176.72,-260.11 173.22,-250.11 169.72,-260.11 176.72,-260.11"/>
</a>
</g>
</g>
<!-- Node3&#45;&gt;Node2 -->
<g id="edge3_Node000003_Node000002" class="edge">
<title>Node3&#45;&gt;Node2</title>
<g id="a_edge3_Node000003_Node000002"><a xlink:title=" ">
<path fill="none" stroke="#63b8ff" d="M343.77,-225.32C327.73,-212.05 295.97,-186.07 268.22,-165 254.76,-154.79 239.33,-143.71 227.23,-135.16"/>
<polygon fill="#63b8ff" stroke="#63b8ff" points="228.91,-132.06 218.71,-129.17 224.88,-137.79 228.91,-132.06"/>
</a>
</g>
</g>
<!-- Node4 -->
<g id="Node000004" class="node">
<title>Node4</title>
<g id="a_Node000004"><a xlink:title=" ">
<polygon fill="#e0e0e0" stroke="#999999" points="393.22,-184 315.22,-184 315.22,-165 393.22,-165 393.22,-184"/>
<text text-anchor="middle" x="354.22" y="-172" font-family="Helvetica,sans-Serif" font-size="10.00">glm/glm.hpp</text>
</a>
</g>
</g>
<!-- Node3&#45;&gt;Node4 -->
<g id="edge4_Node000003_Node000004" class="edge">
<title>Node3&#45;&gt;Node4</title>
<g id="a_edge4_Node000003_Node000004"><a xlink:title=" ">
<path fill="none" stroke="#63b8ff" d="M354.22,-225.37C354.22,-217.25 354.22,-204.81 354.22,-194.39"/>
<polygon fill="#63b8ff" stroke="#63b8ff" points="357.72,-194.17 354.22,-184.17 350.72,-194.17 357.72,-194.17"/>
</a>
</g>
</g>
<!-- Node5 -->
<g id="Node000005" class="node">
<title>Node5</title>
<g id="a_Node000005"><a xlink:title=" ">
<polygon fill="#e0e0e0" stroke="#999999" points="259.22,-184 201.22,-184 201.22,-165 259.22,-165 259.22,-184"/>
<text text-anchor="middle" x="230.22" y="-172" font-family="Helvetica,sans-Serif" font-size="10.00">memory</text>
</a>
</g>
</g>
<!-- Node3&#45;&gt;Node5 -->
<g id="edge5_Node000003_Node000005" class="edge">
<title>Node3&#45;&gt;Node5</title>
<g id="a_edge5_Node000003_Node000005"><a xlink:title=" ">
<path fill="none" stroke="#63b8ff" d="M336.19,-225.49C315.52,-215.75 281.44,-199.66 257.52,-188.38"/>
<polygon fill="#63b8ff" stroke="#63b8ff" points="258.81,-185.12 248.27,-184.02 255.82,-191.45 258.81,-185.12"/>
</a>
</g>
</g>
<!-- Node6 -->
<g id="Node000006" class="node">
<title>Node6</title>
<g id="a_Node000006"><a xlink:title=" ">
<polygon fill="#e0e0e0" stroke="#999999" points="455.22,-184 411.22,-184 411.22,-165 455.22,-165 455.22,-184"/>
<text text-anchor="middle" x="433.22" y="-172" font-family="Helvetica,sans-Serif" font-size="10.00">string</text>
</a>
</g>
</g>
<!-- Node3&#45;&gt;Node6 -->
<g id="edge6_Node000003_Node000006" class="edge">
<title>Node3&#45;&gt;Node6</title>
<g id="a_edge6_Node000003_Node000006"><a xlink:title=" ">
<path fill="none" stroke="#63b8ff" d="M365.88,-225.37C378.36,-216.12 398.4,-201.28 413.38,-190.19"/>
<polygon fill="#63b8ff" stroke="#63b8ff" points="415.56,-192.93 421.51,-184.17 411.39,-187.31 415.56,-192.93"/>
</a>
</g>
</g>
<!-- Node7 -->
<g id="Node000007" class="node">
<title>Node7</title>
<g id="a_Node000007"><a xlink:title=" ">
<polygon fill="#e0e0e0" stroke="#999999" points="566.72,-184 473.72,-184 473.72,-165 566.72,-165 566.72,-184"/>
<text text-anchor="middle" x="520.22" y="-172" font-family="Helvetica,sans-Serif" font-size="10.00">unordered_map</text>
</a>
</g>
</g>
<!-- Node3&#45;&gt;Node7 -->
<g id="edge7_Node000003_Node000007" class="edge">
<title>Node3&#45;&gt;Node7</title>
<g id="a_edge7_Node000003_Node000007"><a xlink:title=" ">
<path fill="none" stroke="#63b8ff" d="M378.36,-225.49C406.76,-215.49 454.1,-198.8 486.2,-187.49"/>
<polygon fill="#63b8ff" stroke="#63b8ff" points="487.78,-190.64 496.05,-184.02 485.46,-184.04 487.78,-190.64"/>
</a>
</g>
</g>
<!-- Node8 -->
<g id="Node000008" class="node">
<title>Node8</title>
<g id="a_Node000008"><a xlink:href="_shader_8hpp.html" target="_top" xlink:title=" ">
<polygon fill="white" stroke="#666666" points="727.72,-184 584.72,-184 584.72,-165 727.72,-165 727.72,-184"/>
<text text-anchor="middle" x="656.22" y="-172" font-family="Helvetica,sans-Serif" font-size="10.00">AssetManager/Shader.hpp</text>
</a>
</g>
</g>
<!-- Node3&#45;&gt;Node8 -->
<g id="edge8_Node000003_Node000008" class="edge">
<title>Node3&#45;&gt;Node8</title>
<g id="a_edge8_Node000003_Node000008"><a xlink:title=" ">
<path fill="none" stroke="#63b8ff" d="M398.13,-225.49C452.15,-215.03 543.82,-197.27 602.13,-185.98"/>
<polygon fill="#63b8ff" stroke="#63b8ff" points="603.1,-189.35 612.25,-184.02 601.77,-182.48 603.1,-189.35"/>
</a>
</g>
</g>
<!-- Node8&#45;&gt;Node2 -->
<g id="edge9_Node000008_Node000002" class="edge">
<title>Node8&#45;&gt;Node2</title>
<g id="a_edge9_Node000008_Node000002"><a xlink:title=" ">
<path fill="none" stroke="#63b8ff" d="M584.42,-165.04C490.97,-154.04 330.38,-135.12 251.98,-125.89"/>
<polygon fill="#63b8ff" stroke="#63b8ff" points="252.27,-122.4 241.93,-124.71 251.45,-129.35 252.27,-122.4"/>
</a>
</g>
</g>
<!-- Node9 -->
<g id="Node000009" class="node">
<title>Node9</title>
<g id="a_Node000009"><a xlink:href="_asset_8hpp.html" target="_top" xlink:title=" ">
<polygon fill="white" stroke="#666666" points="247.72,-74 110.72,-74 110.72,-55 247.72,-55 247.72,-74"/>
<text text-anchor="middle" x="179.22" y="-62" font-family="Helvetica,sans-Serif" font-size="10.00">AssetManager/Asset.hpp</text>
</a>
</g>
</g>
<!-- Node8&#45;&gt;Node9 -->
<g id="edge10_Node000008_Node000009" class="edge">
<title>Node8&#45;&gt;Node9</title>
<g id="a_edge10_Node000008_Node000009"><a xlink:title=" ">
<path fill="none" stroke="#63b8ff" d="M618.39,-164.94C532.28,-145.44 321.8,-97.78 226.95,-76.31"/>
<polygon fill="#63b8ff" stroke="#63b8ff" points="227.58,-72.86 217.05,-74.07 226.03,-79.69 227.58,-72.86"/>
</a>
</g>
</g>
<!-- Node10 -->
<g id="Node000010" class="node">
<title>Node10</title>
<g id="a_Node000010"><a xlink:title=" ">
<polygon fill="#e0e0e0" stroke="#999999" points="164.22,-19 96.22,-19 96.22,0 164.22,0 164.22,-19"/>
<text text-anchor="middle" x="130.22" y="-7" font-family="Helvetica,sans-Serif" font-size="10.00">filesystem</text>
</a>
</g>
</g>
<!-- Node9&#45;&gt;Node10 -->
<g id="edge11_Node000009_Node000010" class="edge">
<title>Node9&#45;&gt;Node10</title>
<g id="a_edge11_Node000009_Node000010"><a xlink:title=" ">
<path fill="none" stroke="#63b8ff" d="M171.13,-54.75C164.06,-47.11 153.63,-35.82 145.07,-26.56"/>
<polygon fill="#63b8ff" stroke="#63b8ff" points="147.52,-24.06 138.16,-19.09 142.38,-28.81 147.52,-24.06"/>
</a>
</g>
</g>
<!-- Node11&#45;&gt;Node2 -->
<g id="edge14_Node000011_Node000002" class="edge">
<title>Node11&#45;&gt;Node2</title>
<g id="a_edge14_Node000011_Node000002"><a xlink:title=" ">
<path fill="none" stroke="#63b8ff" d="M176.93,-219.95C180.65,-205.98 186.63,-183.95 192.22,-165 194.77,-156.35 197.75,-146.8 200.31,-138.78"/>
<polygon fill="#63b8ff" stroke="#63b8ff" points="203.72,-139.59 203.44,-129 197.05,-137.45 203.72,-139.59"/>
</a>
</g>
</g>
<!-- Node11&#45;&gt;Node5 -->
<g id="edge13_Node000011_Node000005" class="edge">
<title>Node11&#45;&gt;Node5</title>
<g id="a_edge13_Node000011_Node000005"><a xlink:title=" ">
<path fill="none" stroke="#63b8ff" d="M187.02,-219.84C195.29,-211.35 205.84,-200.52 214.44,-191.69"/>
<polygon fill="#63b8ff" stroke="#63b8ff" points="217.21,-193.87 221.68,-184.27 212.19,-188.99 217.21,-193.87"/>
</a>
</g>
</g>
<!-- Node12 -->
<g id="Node000012" class="node">
<title>Node12</title>
<g id="a_Node000012"><a xlink:href="_texture_8hpp.html" target="_top" xlink:title=" ">
<polygon fill="white" stroke="#666666" points="145.22,-184 19.22,-184 19.22,-165 145.22,-165 145.22,-184"/>
<text text-anchor="middle" x="82.22" y="-172" font-family="Helvetica,sans-Serif" font-size="10.00">Rendering/Texture.hpp</text>
</a>
</g>
</g>
<!-- Node11&#45;&gt;Node12 -->
<g id="edge15_Node000011_Node000012" class="edge">
<title>Node11&#45;&gt;Node12</title>
<g id="a_edge15_Node000011_Node000012"><a xlink:title=" ">
<path fill="none" stroke="#63b8ff" d="M151.19,-219.84C136.95,-210.68 118.49,-198.82 104.25,-189.66"/>
<polygon fill="#63b8ff" stroke="#63b8ff" points="105.89,-186.56 95.59,-184.09 102.11,-192.45 105.89,-186.56"/>
</a>
</g>
</g>
<!-- Node12&#45;&gt;Node2 -->
<g id="edge16_Node000012_Node000002" class="edge">
<title>Node12&#45;&gt;Node2</title>
<g id="a_edge16_Node000012_Node000002"><a xlink:title=" ">
<path fill="none" stroke="#63b8ff" d="M102.14,-164.98C122.27,-156.38 153.6,-142.99 176.63,-133.15"/>
<polygon fill="#63b8ff" stroke="#63b8ff" points="178.11,-136.32 185.93,-129.17 175.36,-129.88 178.11,-136.32"/>
</a>
</g>
</g>
<!-- Node13 -->
<g id="Node000013" class="node">
<title>Node13</title>
<g id="a_Node000013"><a xlink:href="_image_8hpp.html" target="_top" xlink:title=" ">
<polygon fill="white" stroke="#666666" points="152.72,-129 11.72,-129 11.72,-110 152.72,-110 152.72,-129"/>
<text text-anchor="middle" x="82.22" y="-117" font-family="Helvetica,sans-Serif" font-size="10.00">AssetManager/Image.hpp</text>
</a>
</g>
</g>
<!-- Node12&#45;&gt;Node13 -->
<g id="edge17_Node000012_Node000013" class="edge">
<title>Node12&#45;&gt;Node13</title>
<g id="a_edge17_Node000012_Node000013"><a xlink:title=" ">
<path fill="none" stroke="#63b8ff" d="M82.22,-164.75C82.22,-157.8 82.22,-147.85 82.22,-139.13"/>
<polygon fill="#63b8ff" stroke="#63b8ff" points="85.72,-139.09 82.22,-129.09 78.72,-139.09 85.72,-139.09"/>
</a>
</g>
</g>
<!-- Node13&#45;&gt;Node9 -->
<g id="edge19_Node000013_Node000009" class="edge">
<title>Node13&#45;&gt;Node9</title>
<g id="a_edge19_Node000013_Node000009"><a xlink:title=" ">
<path fill="none" stroke="#63b8ff" d="M97.8,-109.98C112.99,-101.69 136.32,-88.94 154.12,-79.22"/>
<polygon fill="#63b8ff" stroke="#63b8ff" points="156.25,-82.04 163.35,-74.17 152.9,-75.89 156.25,-82.04"/>
</a>
</g>
</g>
<!-- Node13&#45;&gt;Node10 -->
<g id="edge18_Node000013_Node000010" class="edge">
<title>Node13&#45;&gt;Node10</title>
<g id="a_edge18_Node000013_Node000010"><a xlink:title=" ">
<path fill="none" stroke="#63b8ff" d="M84.04,-109.58C86.78,-97.02 92.6,-73.58 101.22,-55 105.67,-45.4 111.96,-35.46 117.55,-27.41"/>
<polygon fill="#63b8ff" stroke="#63b8ff" points="120.42,-29.42 123.42,-19.26 114.73,-25.33 120.42,-29.42"/>
</a>
</g>
</g>
</g>
</svg>
