<?xml version="1.0" encoding="UTF-8" standalone="no"?>
<!DOCTYPE svg PUBLIC "-//W3C//DTD SVG 1.1//EN"
 "http://www.w3.org/Graphics/SVG/1.1/DTD/svg11.dtd">
<!-- Generated by graphviz version 2.43.0 (0)
 -->
<!-- Title: src/Runtime/Runtime.hpp Pages: 1 -->
<svg width="1015pt" height="319pt"
 viewBox="0.00 0.00 1014.77 319.00" xmlns="http://www.w3.org/2000/svg" xmlns:xlink="http://www.w3.org/1999/xlink">
<g id="graph0" class="graph" transform="scale(1 1) rotate(0) translate(4 315)">
<title>src/Runtime/Runtime.hpp</title>
<polygon fill="white" stroke="transparent" points="-4,4 -4,-315 1010.77,-315 1010.77,4 -4,4"/>
<!-- Node1 -->
<g id="node1" class="node">
<title>Node1</title>
<g id="a_node1"><a xlink:title=" ">
<polygon fill="#bfbfbf" stroke="black" points="360.5,-291.5 360.5,-310.5 500.5,-310.5 500.5,-291.5 360.5,-291.5"/>
<text text-anchor="middle" x="430.5" y="-298.5" font-family="Helvetica,sans-Serif" font-size="10.00">src/Runtime/Runtime.hpp</text>
</a>
</g>
</g>
<!-- Node2 -->
<g id="node2" class="node">
<title>Node2</title>
<g id="a_node2"><a xlink:title=" ">
<polygon fill="white" stroke="#bfbfbf" points="502.5,-112.5 502.5,-131.5 560.5,-131.5 560.5,-112.5 502.5,-112.5"/>
<text text-anchor="middle" x="531.5" y="-119.5" font-family="Helvetica,sans-Serif" font-size="10.00">memory</text>
</a>
</g>
</g>
<!-- Node1&#45;&gt;Node2 -->
<g id="edge1" class="edge">
<title>Node1&#45;&gt;Node2</title>
<path fill="none" stroke="midnightblue" d="M500.94,-297.11C610.11,-291.9 809.9,-279.15 831.5,-255 840.68,-244.73 839.54,-235.19 831.5,-224 815.77,-202.11 647.95,-154.45 570.4,-133.38"/>
<polygon fill="midnightblue" stroke="midnightblue" points="571.09,-129.94 560.52,-130.7 569.26,-136.7 571.09,-129.94"/>
</g>
<!-- Node3 -->
<g id="node3" class="node">
<title>Node3</title>
<g id="a_node3"><a xlink:href="_registry_8hpp.html" target="_top" xlink:title=" ">
<polygon fill="white" stroke="black" points="280.5,-168.5 280.5,-187.5 378.5,-187.5 378.5,-168.5 280.5,-168.5"/>
<text text-anchor="middle" x="329.5" y="-175.5" font-family="Helvetica,sans-Serif" font-size="10.00">ECS/Registry.hpp</text>
</a>
</g>
</g>
<!-- Node1&#45;&gt;Node3 -->
<g id="edge2" class="edge">
<title>Node1&#45;&gt;Node3</title>
<path fill="none" stroke="midnightblue" d="M360.27,-294.72C304.72,-288.91 233.59,-277.27 215.5,-255 206.81,-244.31 207.75,-235.39 215.5,-224 228.11,-205.47 249.63,-194.57 270.61,-188.16"/>
<polygon fill="midnightblue" stroke="midnightblue" points="271.78,-191.47 280.5,-185.44 269.93,-184.72 271.78,-191.47"/>
</g>
<!-- Node8 -->
<g id="node8" class="node">
<title>Node8</title>
<g id="a_node8"><a xlink:href="_camera_movement_system_8hpp.html" target="_top" xlink:title=" ">
<polygon fill="white" stroke="black" points="224.5,-230 224.5,-249 434.5,-249 434.5,-230 224.5,-230"/>
<text text-anchor="middle" x="329.5" y="-237" font-family="Helvetica,sans-Serif" font-size="10.00">Systems/CameraMovementSystem.hpp</text>
</a>
</g>
</g>
<!-- Node1&#45;&gt;Node8 -->
<g id="edge8" class="edge">
<title>Node1&#45;&gt;Node8</title>
<path fill="none" stroke="midnightblue" d="M416.03,-291.48C399.53,-281.75 372.32,-265.73 352.82,-254.24"/>
<polygon fill="midnightblue" stroke="midnightblue" points="354.34,-251.07 343.94,-249.01 350.78,-257.1 354.34,-251.07"/>
</g>
<!-- Node9 -->
<g id="node9" class="node">
<title>Node9</title>
<g id="a_node9"><a xlink:href="_model_renderer_system_8hpp.html" target="_top" xlink:title=" ">
<polygon fill="white" stroke="black" points="628.5,-230 628.5,-249 822.5,-249 822.5,-230 628.5,-230"/>
<text text-anchor="middle" x="725.5" y="-237" font-family="Helvetica,sans-Serif" font-size="10.00">Systems/ModelRendererSystem.hpp</text>
</a>
</g>
</g>
<!-- Node1&#45;&gt;Node9 -->
<g id="edge11" class="edge">
<title>Node1&#45;&gt;Node9</title>
<path fill="none" stroke="midnightblue" d="M472.77,-291.48C525.67,-280.8 616.26,-262.53 673.4,-251.01"/>
<polygon fill="midnightblue" stroke="midnightblue" points="674.2,-254.42 683.31,-249.01 672.82,-247.56 674.2,-254.42"/>
</g>
<!-- Node18 -->
<g id="node18" class="node">
<title>Node18</title>
<g id="a_node18"><a xlink:href="_rendering_system_8hpp.html" target="_top" xlink:title=" ">
<polygon fill="white" stroke="black" points="0,-230 0,-249 169,-249 169,-230 0,-230"/>
<text text-anchor="middle" x="84.5" y="-237" font-family="Helvetica,sans-Serif" font-size="10.00">Systems/RenderingSystem.hpp</text>
</a>
</g>
</g>
<!-- Node1&#45;&gt;Node18 -->
<g id="edge24" class="edge">
<title>Node1&#45;&gt;Node18</title>
<path fill="none" stroke="midnightblue" d="M380.93,-291.48C318.36,-280.72 210.86,-262.23 143.95,-250.72"/>
<polygon fill="midnightblue" stroke="midnightblue" points="144.43,-247.25 133.98,-249.01 143.24,-254.15 144.43,-247.25"/>
</g>
<!-- Node19 -->
<g id="node19" class="node">
<title>Node19</title>
<g id="a_node19"><a xlink:href="_wireframe_renderer_system_8hpp.html" target="_top" xlink:title=" ">
<polygon fill="white" stroke="black" points="452.5,-224.5 452.5,-254.5 610.5,-254.5 610.5,-224.5 452.5,-224.5"/>
<text text-anchor="start" x="460.5" y="-242.5" font-family="Helvetica,sans-Serif" font-size="10.00">Systems/WireframeRenderer</text>
<text text-anchor="middle" x="531.5" y="-231.5" font-family="Helvetica,sans-Serif" font-size="10.00">System.hpp</text>
</a>
</g>
</g>
<!-- Node1&#45;&gt;Node19 -->
<g id="edge28" class="edge">
<title>Node1&#45;&gt;Node19</title>
<path fill="none" stroke="midnightblue" d="M444.97,-291.48C458.91,-283.27 480.48,-270.56 498.6,-259.88"/>
<polygon fill="midnightblue" stroke="midnightblue" points="500.86,-262.61 507.7,-254.52 497.3,-256.58 500.86,-262.61"/>
</g>
<!-- Node4 -->
<g id="node4" class="node">
<title>Node4</title>
<g id="a_node4"><a xlink:href="_entity_provider_8hpp.html" target="_top" xlink:title="Manages a pool of unused entity identifiers and provides mechanisms for requesting and removing them.">
<polygon fill="white" stroke="black" points="173.5,-56.5 173.5,-75.5 301.5,-75.5 301.5,-56.5 173.5,-56.5"/>
<text text-anchor="middle" x="237.5" y="-63.5" font-family="Helvetica,sans-Serif" font-size="10.00">ECS/EntityProvider.hpp</text>
</a>
</g>
</g>
<!-- Node3&#45;&gt;Node4 -->
<g id="edge3" class="edge">
<title>Node3&#45;&gt;Node4</title>
<path fill="none" stroke="midnightblue" d="M302.75,-168.39C285.21,-161.36 263.25,-149.66 250.5,-132 240.92,-118.73 237.97,-100.15 237.25,-86.25"/>
<polygon fill="midnightblue" stroke="midnightblue" points="240.74,-85.83 237.06,-75.9 233.74,-85.96 240.74,-85.83"/>
</g>
<!-- Node7 -->
<g id="node7" class="node">
<title>Node7</title>
<g id="a_node7"><a xlink:href="_sparse_set_8hpp.html" target="_top" xlink:title=" ">
<polygon fill="white" stroke="black" points="259.5,-112.5 259.5,-131.5 367.5,-131.5 367.5,-112.5 259.5,-112.5"/>
<text text-anchor="middle" x="313.5" y="-119.5" font-family="Helvetica,sans-Serif" font-size="10.00">ECS/SparseSet.hpp</text>
</a>
</g>
</g>
<!-- Node3&#45;&gt;Node7 -->
<g id="edge6" class="edge">
<title>Node3&#45;&gt;Node7</title>
<path fill="none" stroke="midnightblue" d="M326.86,-168.08C324.71,-160.85 321.62,-150.41 318.95,-141.4"/>
<polygon fill="midnightblue" stroke="midnightblue" points="322.29,-140.34 316.09,-131.75 315.58,-142.33 322.29,-140.34"/>
</g>
<!-- Node5 -->
<g id="node5" class="node">
<title>Node5</title>
<g id="a_node5"><a xlink:title=" ">
<polygon fill="white" stroke="#bfbfbf" points="245,-0.5 245,-19.5 298,-19.5 298,-0.5 245,-0.5"/>
<text text-anchor="middle" x="271.5" y="-7.5" font-family="Helvetica,sans-Serif" font-size="10.00">stdlib.h</text>
</a>
</g>
</g>
<!-- Node4&#45;&gt;Node5 -->
<g id="edge4" class="edge">
<title>Node4&#45;&gt;Node5</title>
<path fill="none" stroke="midnightblue" d="M243.11,-56.08C247.87,-48.53 254.82,-37.49 260.65,-28.23"/>
<polygon fill="midnightblue" stroke="midnightblue" points="263.62,-30.08 265.99,-19.75 257.7,-26.35 263.62,-30.08"/>
</g>
<!-- Node6 -->
<g id="node6" class="node">
<title>Node6</title>
<g id="a_node6"><a xlink:title=" ">
<polygon fill="white" stroke="#bfbfbf" points="180,-0.5 180,-19.5 227,-19.5 227,-0.5 180,-0.5"/>
<text text-anchor="middle" x="203.5" y="-7.5" font-family="Helvetica,sans-Serif" font-size="10.00">queue</text>
</a>
</g>
</g>
<!-- Node4&#45;&gt;Node6 -->
<g id="edge5" class="edge">
<title>Node4&#45;&gt;Node6</title>
<path fill="none" stroke="midnightblue" d="M231.89,-56.08C227.13,-48.53 220.18,-37.49 214.35,-28.23"/>
<polygon fill="midnightblue" stroke="midnightblue" points="217.3,-26.35 209.01,-19.75 211.38,-30.08 217.3,-26.35"/>
</g>
<!-- Node7&#45;&gt;Node4 -->
<g id="edge7" class="edge">
<title>Node7&#45;&gt;Node4</title>
<path fill="none" stroke="midnightblue" d="M301.29,-112.32C289.72,-104.11 272.12,-91.6 258.34,-81.81"/>
<polygon fill="midnightblue" stroke="midnightblue" points="260.11,-78.77 249.93,-75.83 256.06,-84.48 260.11,-78.77"/>
</g>
<!-- Node8&#45;&gt;Node2 -->
<g id="edge9" class="edge">
<title>Node8&#45;&gt;Node2</title>
<path fill="none" stroke="midnightblue" d="M344.68,-229.82C379.57,-209.87 465.68,-160.64 507.68,-136.62"/>
<polygon fill="midnightblue" stroke="midnightblue" points="509.47,-139.63 516.42,-131.62 506,-133.55 509.47,-139.63"/>
</g>
<!-- Node8&#45;&gt;Node3 -->
<g id="edge10" class="edge">
<title>Node8&#45;&gt;Node3</title>
<path fill="none" stroke="midnightblue" d="M329.5,-229.98C329.5,-221.58 329.5,-208.48 329.5,-197.66"/>
<polygon fill="midnightblue" stroke="midnightblue" points="333,-197.51 329.5,-187.51 326,-197.51 333,-197.51"/>
</g>
<!-- Node9&#45;&gt;Node2 -->
<g id="edge12" class="edge">
<title>Node9&#45;&gt;Node2</title>
<path fill="none" stroke="midnightblue" d="M710.92,-229.82C677.48,-209.91 595.06,-160.84 554.63,-136.77"/>
<polygon fill="midnightblue" stroke="midnightblue" points="556.37,-133.73 545.99,-131.62 552.79,-139.75 556.37,-133.73"/>
</g>
<!-- Node9&#45;&gt;Node3 -->
<g id="edge13" class="edge">
<title>Node9&#45;&gt;Node3</title>
<path fill="none" stroke="midnightblue" d="M668.76,-229.98C594.41,-218.8 464.62,-199.3 388.95,-187.93"/>
<polygon fill="midnightblue" stroke="midnightblue" points="389.05,-184.41 378.64,-186.38 388.01,-191.33 389.05,-184.41"/>
</g>
<!-- Node10 -->
<g id="node10" class="node">
<title>Node10</title>
<g id="a_node10"><a xlink:href="_shader_program_8hpp.html" target="_top" xlink:title=" ">
<polygon fill="white" stroke="black" points="808,-168.5 808,-187.5 973,-187.5 973,-168.5 808,-168.5"/>
<text text-anchor="middle" x="890.5" y="-175.5" font-family="Helvetica,sans-Serif" font-size="10.00">Rendering/ShaderProgram.hpp</text>
</a>
</g>
</g>
<!-- Node9&#45;&gt;Node10 -->
<g id="edge14" class="edge">
<title>Node9&#45;&gt;Node10</title>
<path fill="none" stroke="midnightblue" d="M749.14,-229.98C777.44,-219.77 825.03,-202.61 857.09,-191.05"/>
<polygon fill="midnightblue" stroke="midnightblue" points="858.68,-194.19 866.9,-187.51 856.31,-187.61 858.68,-194.19"/>
</g>
<!-- Node10&#45;&gt;Node2 -->
<g id="edge17" class="edge">
<title>Node10&#45;&gt;Node2</title>
<path fill="none" stroke="midnightblue" d="M815.26,-168.47C752.36,-160.87 660.11,-148.66 570.92,-132.13"/>
<polygon fill="midnightblue" stroke="midnightblue" points="571.37,-128.65 560.9,-130.25 570.08,-135.53 571.37,-128.65"/>
</g>
<!-- Node11 -->
<g id="node11" class="node">
<title>Node11</title>
<g id="a_node11"><a xlink:title=" ">
<polygon fill="white" stroke="#bfbfbf" points="676,-56.5 676,-75.5 747,-75.5 747,-56.5 676,-56.5"/>
<text text-anchor="middle" x="711.5" y="-63.5" font-family="Helvetica,sans-Serif" font-size="10.00">glad/glad.h</text>
</a>
</g>
</g>
<!-- Node10&#45;&gt;Node11 -->
<g id="edge15" class="edge">
<title>Node10&#45;&gt;Node11</title>
<path fill="none" stroke="midnightblue" d="M932.45,-168.46C972.68,-158.42 1024.09,-139.55 1000.5,-112 969.77,-76.11 831,-68.62 757.5,-67.21"/>
<polygon fill="midnightblue" stroke="midnightblue" points="757.21,-63.7 747.15,-67.04 757.09,-70.7 757.21,-63.7"/>
</g>
<!-- Node12 -->
<g id="node12" class="node">
<title>Node12</title>
<g id="a_node12"><a xlink:title=" ">
<polygon fill="white" stroke="#bfbfbf" points="851.5,-112.5 851.5,-131.5 929.5,-131.5 929.5,-112.5 851.5,-112.5"/>
<text text-anchor="middle" x="890.5" y="-119.5" font-family="Helvetica,sans-Serif" font-size="10.00">glm/glm.hpp</text>
</a>
</g>
</g>
<!-- Node10&#45;&gt;Node12 -->
<g id="edge16" class="edge">
<title>Node10&#45;&gt;Node12</title>
<path fill="none" stroke="midnightblue" d="M890.5,-168.08C890.5,-161.01 890.5,-150.86 890.5,-141.99"/>
<polygon fill="midnightblue" stroke="midnightblue" points="894,-141.75 890.5,-131.75 887,-141.75 894,-141.75"/>
</g>
<!-- Node13 -->
<g id="node13" class="node">
<title>Node13</title>
<g id="a_node13"><a xlink:title=" ">
<polygon fill="white" stroke="#bfbfbf" points="947.5,-112.5 947.5,-131.5 991.5,-131.5 991.5,-112.5 947.5,-112.5"/>
<text text-anchor="middle" x="969.5" y="-119.5" font-family="Helvetica,sans-Serif" font-size="10.00">string</text>
</a>
</g>
</g>
<!-- Node10&#45;&gt;Node13 -->
<g id="edge18" class="edge">
<title>Node10&#45;&gt;Node13</title>
<path fill="none" stroke="midnightblue" d="M903.19,-168.32C915.4,-159.98 934.08,-147.21 948.5,-137.35"/>
<polygon fill="midnightblue" stroke="midnightblue" points="950.56,-140.19 956.84,-131.65 946.61,-134.41 950.56,-140.19"/>
</g>
<!-- Node14 -->
<g id="node14" class="node">
<title>Node14</title>
<g id="a_node14"><a xlink:title=" ">
<polygon fill="white" stroke="#bfbfbf" points="740,-112.5 740,-131.5 833,-131.5 833,-112.5 740,-112.5"/>
<text text-anchor="middle" x="786.5" y="-119.5" font-family="Helvetica,sans-Serif" font-size="10.00">unordered_map</text>
</a>
</g>
</g>
<!-- Node10&#45;&gt;Node14 -->
<g id="edge19" class="edge">
<title>Node10&#45;&gt;Node14</title>
<path fill="none" stroke="midnightblue" d="M873.79,-168.32C857.19,-159.7 831.5,-146.36 812.28,-136.39"/>
<polygon fill="midnightblue" stroke="midnightblue" points="813.66,-133.16 803.17,-131.65 810.43,-139.37 813.66,-133.16"/>
</g>
<!-- Node15 -->
<g id="node15" class="node">
<title>Node15</title>
<g id="a_node15"><a xlink:href="_shader_8hpp.html" target="_top" xlink:title=" ">
<polygon fill="white" stroke="black" points="579,-112.5 579,-131.5 722,-131.5 722,-112.5 579,-112.5"/>
<text text-anchor="middle" x="650.5" y="-119.5" font-family="Helvetica,sans-Serif" font-size="10.00">AssetManager/Shader.hpp</text>
</a>
</g>
</g>
<!-- Node10&#45;&gt;Node15 -->
<g id="edge20" class="edge">
<title>Node10&#45;&gt;Node15</title>
<path fill="none" stroke="midnightblue" d="M852.47,-168.44C810.69,-159.04 743.52,-143.93 698.23,-133.74"/>
<polygon fill="midnightblue" stroke="midnightblue" points="698.88,-130.3 688.35,-131.52 697.34,-137.13 698.88,-130.3"/>
</g>
<!-- Node15&#45;&gt;Node11 -->
<g id="edge21" class="edge">
<title>Node15&#45;&gt;Node11</title>
<path fill="none" stroke="midnightblue" d="M660.3,-112.32C669.32,-104.34 682.91,-92.31 693.82,-82.65"/>
<polygon fill="midnightblue" stroke="midnightblue" points="696.35,-85.08 701.52,-75.83 691.71,-79.84 696.35,-85.08"/>
</g>
<!-- Node16 -->
<g id="node16" class="node">
<title>Node16</title>
<g id="a_node16"><a xlink:href="_asset_8hpp.html" target="_top" xlink:title=" ">
<polygon fill="white" stroke="black" points="521,-56.5 521,-75.5 658,-75.5 658,-56.5 521,-56.5"/>
<text text-anchor="middle" x="589.5" y="-63.5" font-family="Helvetica,sans-Serif" font-size="10.00">AssetManager/Asset.hpp</text>
</a>
</g>
</g>
<!-- Node15&#45;&gt;Node16 -->
<g id="edge22" class="edge">
<title>Node15&#45;&gt;Node16</title>
<path fill="none" stroke="midnightblue" d="M640.7,-112.32C631.68,-104.34 618.09,-92.31 607.18,-82.65"/>
<polygon fill="midnightblue" stroke="midnightblue" points="609.29,-79.84 599.48,-75.83 604.65,-85.08 609.29,-79.84"/>
</g>
<!-- Node17 -->
<g id="node17" class="node">
<title>Node17</title>
<g id="a_node17"><a xlink:title=" ">
<polygon fill="white" stroke="#bfbfbf" points="555.5,-0.5 555.5,-19.5 623.5,-19.5 623.5,-0.5 555.5,-0.5"/>
<text text-anchor="middle" x="589.5" y="-7.5" font-family="Helvetica,sans-Serif" font-size="10.00">filesystem</text>
</a>
</g>
</g>
<!-- Node16&#45;&gt;Node17 -->
<g id="edge23" class="edge">
<title>Node16&#45;&gt;Node17</title>
<path fill="none" stroke="midnightblue" d="M589.5,-56.08C589.5,-49.01 589.5,-38.86 589.5,-29.99"/>
<polygon fill="midnightblue" stroke="midnightblue" points="593,-29.75 589.5,-19.75 586,-29.75 593,-29.75"/>
</g>
<!-- Node18&#45;&gt;Node2 -->
<g id="edge25" class="edge">
<title>Node18&#45;&gt;Node2</title>
<path fill="none" stroke="midnightblue" d="M111.33,-229.96C140.48,-220.49 188.25,-204.37 228.5,-188 248.02,-180.06 251.39,-174.3 271.5,-168 347.78,-144.12 440.86,-131.89 492.4,-126.52"/>
<polygon fill="midnightblue" stroke="midnightblue" points="492.85,-129.99 502.44,-125.51 492.14,-123.03 492.85,-129.99"/>
</g>
<!-- Node18&#45;&gt;Node3 -->
<g id="edge27" class="edge">
<title>Node18&#45;&gt;Node3</title>
<path fill="none" stroke="midnightblue" d="M119.6,-229.98C162.99,-219.44 236.91,-201.49 284.45,-189.94"/>
<polygon fill="midnightblue" stroke="midnightblue" points="285.57,-193.27 294.46,-187.51 283.92,-186.47 285.57,-193.27"/>
</g>
<!-- Node18&#45;&gt;Node11 -->
<g id="edge26" class="edge">
<title>Node18&#45;&gt;Node11</title>
<path fill="none" stroke="midnightblue" d="M92.4,-229.69C114.55,-205.7 180.2,-139.17 250.5,-112 420.56,-46.28 480.67,-100.27 665.65,-75.92"/>
<polygon fill="midnightblue" stroke="midnightblue" points="666.27,-79.36 675.7,-74.53 665.32,-72.43 666.27,-79.36"/>
</g>
<!-- Node19&#45;&gt;Node2 -->
<g id="edge29" class="edge">
<title>Node19&#45;&gt;Node2</title>
<path fill="none" stroke="midnightblue" d="M531.5,-224.34C531.5,-203.62 531.5,-165.02 531.5,-141.9"/>
<polygon fill="midnightblue" stroke="midnightblue" points="535,-141.67 531.5,-131.67 528,-141.67 535,-141.67"/>
</g>
<!-- Node19&#45;&gt;Node3 -->
<g id="edge30" class="edge">
<title>Node19&#45;&gt;Node3</title>
<path fill="none" stroke="midnightblue" d="M483.88,-224.47C448.58,-214.08 401.06,-200.08 368.11,-190.37"/>
<polygon fill="midnightblue" stroke="midnightblue" points="368.96,-186.97 358.38,-187.51 366.98,-193.69 368.96,-186.97"/>
</g>
<!-- Node19&#45;&gt;Node10 -->
<g id="edge31" class="edge">
<title>Node19&#45;&gt;Node10</title>
<path fill="none" stroke="midnightblue" d="M610.73,-225.37C676.51,-214.47 768.74,-199.18 829.04,-189.19"/>
<polygon fill="midnightblue" stroke="midnightblue" points="829.88,-192.59 839.18,-187.51 828.74,-185.69 829.88,-192.59"/>
</g>
</g>
</svg>
