<?xml version="1.0" encoding="UTF-8" standalone="no"?>
<!DOCTYPE svg PUBLIC "-//W3C//DTD SVG 1.1//EN"
 "http://www.w3.org/Graphics/SVG/1.1/DTD/svg11.dtd">
<!-- Generated by graphviz version 2.43.0 (0)
 -->
<!-- Title: src/Runtime/Runtime.hpp Pages: 1 -->
<svg width="1262pt" height="386pt"
 viewBox="0.00 0.00 1261.86 386.00" xmlns="http://www.w3.org/2000/svg" xmlns:xlink="http://www.w3.org/1999/xlink">
<g id="graph0" class="graph" transform="scale(1 1) rotate(0) translate(4 382)">
<title>src/Runtime/Runtime.hpp</title>
<polygon fill="white" stroke="transparent" points="-4,4 -4,-382 1257.86,-382 1257.86,4 -4,4"/>
<!-- Node1 -->
<g id="node1" class="node">
<title>Node1</title>
<g id="a_node1"><a xlink:title=" ">
<polygon fill="#bfbfbf" stroke="black" points="421.36,-358.5 421.36,-377.5 561.36,-377.5 561.36,-358.5 421.36,-358.5"/>
<text text-anchor="middle" x="491.36" y="-365.5" font-family="Helvetica,sans-Serif" font-size="10.00">src/Runtime/Runtime.hpp</text>
</a>
</g>
</g>
<!-- Node2 -->
<g id="node2" class="node">
<title>Node2</title>
<g id="a_node2"><a xlink:title=" ">
<polygon fill="white" stroke="#bfbfbf" points="96.36,-168.5 96.36,-187.5 154.36,-187.5 154.36,-168.5 96.36,-168.5"/>
<text text-anchor="middle" x="125.36" y="-175.5" font-family="Helvetica,sans-Serif" font-size="10.00">memory</text>
</a>
</g>
</g>
<!-- Node1&#45;&gt;Node2 -->
<g id="edge1" class="edge">
<title>Node1&#45;&gt;Node2</title>
<path fill="none" stroke="midnightblue" d="M420.94,-365.53C294.22,-362.14 38.37,-351.67 11.36,-322 -29.85,-276.74 55.66,-218.55 100.4,-192.57"/>
<polygon fill="midnightblue" stroke="midnightblue" points="102.3,-195.52 109.27,-187.53 98.85,-189.43 102.3,-195.52"/>
</g>
<!-- Node3 -->
<g id="node3" class="node">
<title>Node3</title>
<g id="a_node3"><a xlink:href="_registry_8hpp.html" target="_top" xlink:title=" ">
<polygon fill="white" stroke="black" points="297.36,-230 297.36,-249 395.36,-249 395.36,-230 297.36,-230"/>
<text text-anchor="middle" x="346.36" y="-237" font-family="Helvetica,sans-Serif" font-size="10.00">ECS/Registry.hpp</text>
</a>
</g>
</g>
<!-- Node1&#45;&gt;Node3 -->
<g id="edge2" class="edge">
<title>Node1&#45;&gt;Node3</title>
<path fill="none" stroke="midnightblue" d="M489.08,-358.36C484.63,-342.97 473.4,-310.59 453.36,-291 434.89,-272.94 408.75,-260.44 386.93,-252.39"/>
<polygon fill="midnightblue" stroke="midnightblue" points="387.85,-249.01 377.25,-249.01 385.53,-255.61 387.85,-249.01"/>
</g>
<!-- Node9 -->
<g id="node9" class="node">
<title>Node9</title>
<g id="a_node9"><a xlink:href="_types_8hpp.html" target="_top" xlink:title=" ">
<polygon fill="white" stroke="black" points="1088.86,-230 1088.86,-249 1201.86,-249 1201.86,-230 1088.86,-230"/>
<text text-anchor="middle" x="1145.36" y="-237" font-family="Helvetica,sans-Serif" font-size="10.00">Common/Types.hpp</text>
</a>
</g>
</g>
<!-- Node1&#45;&gt;Node9 -->
<g id="edge9" class="edge">
<title>Node1&#45;&gt;Node9</title>
<path fill="none" stroke="midnightblue" d="M561.51,-364.11C644.65,-359.61 786.97,-348.49 906.36,-322 983.95,-304.79 1071.5,-271.08 1116,-252.87"/>
<polygon fill="midnightblue" stroke="midnightblue" points="1117.42,-256.07 1125.33,-249.02 1114.75,-249.6 1117.42,-256.07"/>
</g>
<!-- Node10 -->
<g id="node10" class="node">
<title>Node10</title>
<g id="a_node10"><a xlink:href="_camera_movement_system_8hpp.html" target="_top" xlink:title=" ">
<polygon fill="white" stroke="black" points="20.36,-297 20.36,-316 230.36,-316 230.36,-297 20.36,-297"/>
<text text-anchor="middle" x="125.36" y="-304" font-family="Helvetica,sans-Serif" font-size="10.00">Systems/CameraMovementSystem.hpp</text>
</a>
</g>
</g>
<!-- Node1&#45;&gt;Node10 -->
<g id="edge10" class="edge">
<title>Node1&#45;&gt;Node10</title>
<path fill="none" stroke="midnightblue" d="M438.92,-358.48C372.61,-347.69 258.56,-329.15 187.81,-317.65"/>
<polygon fill="midnightblue" stroke="midnightblue" points="188.13,-314.16 177.7,-316.01 187.01,-321.07 188.13,-314.16"/>
</g>
<!-- Node11 -->
<g id="node11" class="node">
<title>Node11</title>
<g id="a_node11"><a xlink:href="_rendering_system_8hpp.html" target="_top" xlink:title=" ">
<polygon fill="white" stroke="black" points="537.86,-297 537.86,-316 706.86,-316 706.86,-297 537.86,-297"/>
<text text-anchor="middle" x="622.36" y="-304" font-family="Helvetica,sans-Serif" font-size="10.00">Systems/RenderingSystem.hpp</text>
</a>
</g>
</g>
<!-- Node1&#45;&gt;Node11 -->
<g id="edge13" class="edge">
<title>Node1&#45;&gt;Node11</title>
<path fill="none" stroke="midnightblue" d="M510.13,-358.48C532.21,-348.45 569.08,-331.7 594.5,-320.15"/>
<polygon fill="midnightblue" stroke="midnightblue" points="595.97,-323.33 603.63,-316.01 593.07,-316.96 595.97,-323.33"/>
</g>
<!-- Node20 -->
<g id="node20" class="node">
<title>Node20</title>
<g id="a_node20"><a xlink:href="_scene_frame_buffer_8hpp.html" target="_top" xlink:title=" ">
<polygon fill="white" stroke="black" points="413.36,-224.5 413.36,-254.5 547.36,-254.5 547.36,-224.5 413.36,-224.5"/>
<text text-anchor="start" x="421.36" y="-242.5" font-family="Helvetica,sans-Serif" font-size="10.00">Rendering/FrameBuffers</text>
<text text-anchor="middle" x="480.36" y="-231.5" font-family="Helvetica,sans-Serif" font-size="10.00">/SceneFrameBuffer.hpp</text>
</a>
</g>
</g>
<!-- Node1&#45;&gt;Node20 -->
<g id="edge51" class="edge">
<title>Node1&#45;&gt;Node20</title>
<path fill="none" stroke="midnightblue" d="M490.93,-358.1C490.2,-343.89 488.59,-315.23 486.36,-291 485.57,-282.44 484.51,-273.09 483.51,-264.79"/>
<polygon fill="midnightblue" stroke="midnightblue" points="486.95,-264.12 482.24,-254.63 480.01,-264.98 486.95,-264.12"/>
</g>
<!-- Node26 -->
<g id="node26" class="node">
<title>Node26</title>
<g id="a_node26"><a xlink:href="_development_renderer_system_8hpp.html" target="_top" xlink:title=" ">
<polygon fill="white" stroke="black" points="725.36,-291.5 725.36,-321.5 897.36,-321.5 897.36,-291.5 725.36,-291.5"/>
<text text-anchor="start" x="733.36" y="-309.5" font-family="Helvetica,sans-Serif" font-size="10.00">Systems/DevelopmentRenderer</text>
<text text-anchor="middle" x="811.36" y="-298.5" font-family="Helvetica,sans-Serif" font-size="10.00">System.hpp</text>
</a>
</g>
</g>
<!-- Node1&#45;&gt;Node26 -->
<g id="edge44" class="edge">
<title>Node1&#45;&gt;Node26</title>
<path fill="none" stroke="midnightblue" d="M537.21,-358.48C586.32,-349.34 665.37,-334.64 726,-323.37"/>
<polygon fill="midnightblue" stroke="midnightblue" points="726.75,-326.79 735.94,-321.52 725.47,-319.91 726.75,-326.79"/>
</g>
<!-- Node27 -->
<g id="node27" class="node">
<title>Node27</title>
<g id="a_node27"><a xlink:href="_object_selection_system_8hpp.html" target="_top" xlink:title=" ">
<polygon fill="white" stroke="black" points="248.36,-297 248.36,-316 444.36,-316 444.36,-297 248.36,-297"/>
<text text-anchor="middle" x="346.36" y="-304" font-family="Helvetica,sans-Serif" font-size="10.00">Systems/ObjectSelectionSystem.hpp</text>
</a>
</g>
</g>
<!-- Node1&#45;&gt;Node27 -->
<g id="edge48" class="edge">
<title>Node1&#45;&gt;Node27</title>
<path fill="none" stroke="midnightblue" d="M470.59,-358.48C445.93,-348.36 404.62,-331.4 376.46,-319.85"/>
<polygon fill="midnightblue" stroke="midnightblue" points="377.68,-316.57 367.1,-316.01 375.02,-323.04 377.68,-316.57"/>
</g>
<!-- Node4 -->
<g id="node4" class="node">
<title>Node4</title>
<g id="a_node4"><a xlink:title=" ">
<polygon fill="white" stroke="#bfbfbf" points="172.36,-168.5 172.36,-187.5 258.36,-187.5 258.36,-168.5 172.36,-168.5"/>
<text text-anchor="middle" x="215.36" y="-175.5" font-family="Helvetica,sans-Serif" font-size="10.00">unordered_set</text>
</a>
</g>
</g>
<!-- Node3&#45;&gt;Node4 -->
<g id="edge3" class="edge">
<title>Node3&#45;&gt;Node4</title>
<path fill="none" stroke="midnightblue" d="M327.59,-229.98C305.51,-219.95 268.64,-203.2 243.22,-191.65"/>
<polygon fill="midnightblue" stroke="midnightblue" points="244.65,-188.46 234.09,-187.51 241.75,-194.83 244.65,-188.46"/>
</g>
<!-- Node5 -->
<g id="node5" class="node">
<title>Node5</title>
<g id="a_node5"><a xlink:href="_entity_provider_8hpp.html" target="_top" xlink:title="Manages a pool of unused entity identifiers and provides mechanisms for requesting and removing them.">
<polygon fill="white" stroke="black" points="263.36,-112.5 263.36,-131.5 391.36,-131.5 391.36,-112.5 263.36,-112.5"/>
<text text-anchor="middle" x="327.36" y="-119.5" font-family="Helvetica,sans-Serif" font-size="10.00">ECS/EntityProvider.hpp</text>
</a>
</g>
</g>
<!-- Node3&#45;&gt;Node5 -->
<g id="edge4" class="edge">
<title>Node3&#45;&gt;Node5</title>
<path fill="none" stroke="midnightblue" d="M335.94,-229.71C325.91,-220.5 311.4,-205.03 305.36,-188 299.65,-171.92 307.22,-153.48 314.99,-140.36"/>
<polygon fill="midnightblue" stroke="midnightblue" points="318,-142.16 320.5,-131.86 312.13,-138.35 318,-142.16"/>
</g>
<!-- Node8 -->
<g id="node8" class="node">
<title>Node8</title>
<g id="a_node8"><a xlink:href="_sparse_set_8hpp.html" target="_top" xlink:title=" ">
<polygon fill="white" stroke="black" points="314.36,-168.5 314.36,-187.5 422.36,-187.5 422.36,-168.5 314.36,-168.5"/>
<text text-anchor="middle" x="368.36" y="-175.5" font-family="Helvetica,sans-Serif" font-size="10.00">ECS/SparseSet.hpp</text>
</a>
</g>
</g>
<!-- Node3&#45;&gt;Node8 -->
<g id="edge7" class="edge">
<title>Node3&#45;&gt;Node8</title>
<path fill="none" stroke="midnightblue" d="M349.51,-229.98C352.68,-221.4 357.66,-207.93 361.71,-196.98"/>
<polygon fill="midnightblue" stroke="midnightblue" points="365.03,-198.1 365.21,-187.51 358.46,-195.67 365.03,-198.1"/>
</g>
<!-- Node6 -->
<g id="node6" class="node">
<title>Node6</title>
<g id="a_node6"><a xlink:title=" ">
<polygon fill="white" stroke="#bfbfbf" points="266.86,-56.5 266.86,-75.5 319.86,-75.5 319.86,-56.5 266.86,-56.5"/>
<text text-anchor="middle" x="293.36" y="-63.5" font-family="Helvetica,sans-Serif" font-size="10.00">stdlib.h</text>
</a>
</g>
</g>
<!-- Node5&#45;&gt;Node6 -->
<g id="edge5" class="edge">
<title>Node5&#45;&gt;Node6</title>
<path fill="none" stroke="midnightblue" d="M321.75,-112.08C316.99,-104.53 310.04,-93.49 304.21,-84.23"/>
<polygon fill="midnightblue" stroke="midnightblue" points="307.16,-82.35 298.87,-75.75 301.24,-86.08 307.16,-82.35"/>
</g>
<!-- Node7 -->
<g id="node7" class="node">
<title>Node7</title>
<g id="a_node7"><a xlink:title=" ">
<polygon fill="white" stroke="#bfbfbf" points="337.86,-56.5 337.86,-75.5 384.86,-75.5 384.86,-56.5 337.86,-56.5"/>
<text text-anchor="middle" x="361.36" y="-63.5" font-family="Helvetica,sans-Serif" font-size="10.00">queue</text>
</a>
</g>
</g>
<!-- Node5&#45;&gt;Node7 -->
<g id="edge6" class="edge">
<title>Node5&#45;&gt;Node7</title>
<path fill="none" stroke="midnightblue" d="M332.97,-112.08C337.73,-104.53 344.68,-93.49 350.51,-84.23"/>
<polygon fill="midnightblue" stroke="midnightblue" points="353.48,-86.08 355.85,-75.75 347.56,-82.35 353.48,-86.08"/>
</g>
<!-- Node8&#45;&gt;Node5 -->
<g id="edge8" class="edge">
<title>Node8&#45;&gt;Node5</title>
<path fill="none" stroke="midnightblue" d="M361.59,-168.08C355.8,-160.46 347.3,-149.26 340.22,-139.94"/>
<polygon fill="midnightblue" stroke="midnightblue" points="342.84,-137.6 334,-131.75 337.26,-141.83 342.84,-137.6"/>
</g>
<!-- Node10&#45;&gt;Node2 -->
<g id="edge11" class="edge">
<title>Node10&#45;&gt;Node2</title>
<path fill="none" stroke="midnightblue" d="M125.36,-296.81C125.36,-276.49 125.36,-225.55 125.36,-197.78"/>
<polygon fill="midnightblue" stroke="midnightblue" points="128.86,-197.76 125.36,-187.76 121.86,-197.76 128.86,-197.76"/>
</g>
<!-- Node10&#45;&gt;Node3 -->
<g id="edge12" class="edge">
<title>Node10&#45;&gt;Node3</title>
<path fill="none" stroke="midnightblue" d="M154.71,-296.87C194.03,-285.3 263.91,-264.75 307.55,-251.91"/>
<polygon fill="midnightblue" stroke="midnightblue" points="308.64,-255.24 317.24,-249.06 306.66,-248.53 308.64,-255.24"/>
</g>
<!-- Node11&#45;&gt;Node2 -->
<g id="edge14" class="edge">
<title>Node11&#45;&gt;Node2</title>
<path fill="none" stroke="midnightblue" d="M546.19,-296.97C462.85,-287.1 334.89,-270.26 288.36,-255 260.21,-245.77 256.08,-236.78 229.36,-224 204.85,-212.28 176.51,-200.1 155.61,-191.38"/>
<polygon fill="midnightblue" stroke="midnightblue" points="156.86,-188.11 146.29,-187.51 154.18,-194.58 156.86,-188.11"/>
</g>
<!-- Node11&#45;&gt;Node3 -->
<g id="edge16" class="edge">
<title>Node11&#45;&gt;Node3</title>
<path fill="none" stroke="midnightblue" d="M584.51,-296.94C540.99,-287.05 467.44,-270.19 404.36,-255 399.69,-253.87 394.81,-252.68 389.95,-251.48"/>
<polygon fill="midnightblue" stroke="midnightblue" points="390.62,-248.04 380.07,-249.03 388.94,-254.84 390.62,-248.04"/>
</g>
<!-- Node11&#45;&gt;Node9 -->
<g id="edge15" class="edge">
<title>Node11&#45;&gt;Node9</title>
<path fill="none" stroke="midnightblue" d="M674.5,-296.94C688.1,-294.85 702.76,-292.72 716.36,-291 877.2,-270.63 919.24,-280.44 1079.36,-255 1086.13,-253.92 1093.25,-252.58 1100.21,-251.16"/>
<polygon fill="midnightblue" stroke="midnightblue" points="1101.18,-254.53 1110.23,-249.02 1099.72,-247.68 1101.18,-254.53"/>
</g>
<!-- Node12 -->
<g id="node12" class="node">
<title>Node12</title>
<g id="a_node12"><a xlink:href="_shader_program_8hpp.html" target="_top" xlink:title=" ">
<polygon fill="white" stroke="black" points="723.86,-230 723.86,-249 888.86,-249 888.86,-230 723.86,-230"/>
<text text-anchor="middle" x="806.36" y="-237" font-family="Helvetica,sans-Serif" font-size="10.00">Rendering/ShaderProgram.hpp</text>
</a>
</g>
</g>
<!-- Node11&#45;&gt;Node12 -->
<g id="edge17" class="edge">
<title>Node11&#45;&gt;Node12</title>
<path fill="none" stroke="midnightblue" d="M646.79,-296.87C679.05,-285.47 736.01,-265.35 772.43,-252.49"/>
<polygon fill="midnightblue" stroke="midnightblue" points="773.86,-255.69 782.12,-249.06 771.52,-249.09 773.86,-255.69"/>
</g>
<!-- Node11&#45;&gt;Node20 -->
<g id="edge27" class="edge">
<title>Node11&#45;&gt;Node20</title>
<path fill="none" stroke="midnightblue" d="M603.5,-296.87C582.38,-287.2 547.53,-271.25 520.29,-258.78"/>
<polygon fill="midnightblue" stroke="midnightblue" points="521.56,-255.51 511.01,-254.53 518.64,-261.87 521.56,-255.51"/>
</g>
<!-- Node23 -->
<g id="node23" class="node">
<title>Node23</title>
<g id="a_node23"><a xlink:href="_depth_frame_buffer_8hpp.html" target="_top" xlink:title=" ">
<polygon fill="white" stroke="black" points="565.36,-224.5 565.36,-254.5 699.36,-254.5 699.36,-224.5 565.36,-224.5"/>
<text text-anchor="start" x="573.36" y="-242.5" font-family="Helvetica,sans-Serif" font-size="10.00">Rendering/FrameBuffers</text>
<text text-anchor="middle" x="632.36" y="-231.5" font-family="Helvetica,sans-Serif" font-size="10.00">/DepthFrameBuffer.hpp</text>
</a>
</g>
</g>
<!-- Node11&#45;&gt;Node23 -->
<g id="edge35" class="edge">
<title>Node11&#45;&gt;Node23</title>
<path fill="none" stroke="midnightblue" d="M623.71,-296.73C624.97,-288.54 626.91,-275.92 628.64,-264.71"/>
<polygon fill="midnightblue" stroke="midnightblue" points="632.13,-265 630.19,-254.59 625.21,-263.94 632.13,-265"/>
</g>
<!-- Node24 -->
<g id="node24" class="node">
<title>Node24</title>
<g id="a_node24"><a xlink:href="_cube_map_8hpp.html" target="_top" xlink:title=" ">
<polygon fill="white" stroke="black" points="934.36,-230 934.36,-249 1070.36,-249 1070.36,-230 934.36,-230"/>
<text text-anchor="middle" x="1002.36" y="-237" font-family="Helvetica,sans-Serif" font-size="10.00">Rendering/CubeMap.hpp</text>
</a>
</g>
</g>
<!-- Node11&#45;&gt;Node24 -->
<g id="edge39" class="edge">
<title>Node11&#45;&gt;Node24</title>
<path fill="none" stroke="midnightblue" d="M672.43,-296.94C742.01,-285.03 867.78,-263.52 942.32,-250.77"/>
<polygon fill="midnightblue" stroke="midnightblue" points="943.22,-254.17 952.48,-249.03 942.04,-247.27 943.22,-254.17"/>
</g>
<!-- Node12&#45;&gt;Node2 -->
<g id="edge20" class="edge">
<title>Node12&#45;&gt;Node2</title>
<path fill="none" stroke="midnightblue" d="M754.07,-229.96C739.32,-227.77 723.24,-225.59 708.36,-224 470.28,-198.57 405.18,-223.4 164.82,-187.97"/>
<polygon fill="midnightblue" stroke="midnightblue" points="165.13,-184.48 154.72,-186.47 164.1,-191.4 165.13,-184.48"/>
</g>
<!-- Node13 -->
<g id="node13" class="node">
<title>Node13</title>
<g id="a_node13"><a xlink:title=" ">
<polygon fill="white" stroke="#bfbfbf" points="615.86,-112.5 615.86,-131.5 686.86,-131.5 686.86,-112.5 615.86,-112.5"/>
<text text-anchor="middle" x="651.36" y="-119.5" font-family="Helvetica,sans-Serif" font-size="10.00">glad/glad.h</text>
</a>
</g>
</g>
<!-- Node12&#45;&gt;Node13 -->
<g id="edge18" class="edge">
<title>Node12&#45;&gt;Node13</title>
<path fill="none" stroke="midnightblue" d="M772.83,-229.94C747.86,-222.24 714.13,-208.87 690.36,-188 675.72,-175.14 664.97,-155.42 658.5,-141.07"/>
<polygon fill="midnightblue" stroke="midnightblue" points="661.68,-139.59 654.56,-131.74 655.23,-142.32 661.68,-139.59"/>
</g>
<!-- Node14 -->
<g id="node14" class="node">
<title>Node14</title>
<g id="a_node14"><a xlink:title=" ">
<polygon fill="white" stroke="#bfbfbf" points="860.36,-168.5 860.36,-187.5 938.36,-187.5 938.36,-168.5 860.36,-168.5"/>
<text text-anchor="middle" x="899.36" y="-175.5" font-family="Helvetica,sans-Serif" font-size="10.00">glm/glm.hpp</text>
</a>
</g>
</g>
<!-- Node12&#45;&gt;Node14 -->
<g id="edge19" class="edge">
<title>Node12&#45;&gt;Node14</title>
<path fill="none" stroke="midnightblue" d="M819.68,-229.98C834.74,-220.34 859.48,-204.52 877.4,-193.05"/>
<polygon fill="midnightblue" stroke="midnightblue" points="879.52,-195.85 886.06,-187.51 875.75,-189.95 879.52,-195.85"/>
</g>
<!-- Node15 -->
<g id="node15" class="node">
<title>Node15</title>
<g id="a_node15"><a xlink:title=" ">
<polygon fill="white" stroke="#bfbfbf" points="1068.36,-168.5 1068.36,-187.5 1112.36,-187.5 1112.36,-168.5 1068.36,-168.5"/>
<text text-anchor="middle" x="1090.36" y="-175.5" font-family="Helvetica,sans-Serif" font-size="10.00">string</text>
</a>
</g>
</g>
<!-- Node12&#45;&gt;Node15 -->
<g id="edge21" class="edge">
<title>Node12&#45;&gt;Node15</title>
<path fill="none" stroke="midnightblue" d="M855.61,-229.96C904.69,-221.16 982.4,-206.45 1058.34,-188.09"/>
<polygon fill="midnightblue" stroke="midnightblue" points="1059.19,-191.49 1068.07,-185.72 1057.53,-184.69 1059.19,-191.49"/>
</g>
<!-- Node16 -->
<g id="node16" class="node">
<title>Node16</title>
<g id="a_node16"><a xlink:title=" ">
<polygon fill="white" stroke="#bfbfbf" points="956.86,-168.5 956.86,-187.5 1049.86,-187.5 1049.86,-168.5 956.86,-168.5"/>
<text text-anchor="middle" x="1003.36" y="-175.5" font-family="Helvetica,sans-Serif" font-size="10.00">unordered_map</text>
</a>
</g>
</g>
<!-- Node12&#45;&gt;Node16 -->
<g id="edge22" class="edge">
<title>Node12&#45;&gt;Node16</title>
<path fill="none" stroke="midnightblue" d="M834.59,-229.98C868.96,-219.59 927.17,-202.01 965.44,-190.45"/>
<polygon fill="midnightblue" stroke="midnightblue" points="966.63,-193.75 975.19,-187.51 964.6,-187.05 966.63,-193.75"/>
</g>
<!-- Node17 -->
<g id="node17" class="node">
<title>Node17</title>
<g id="a_node17"><a xlink:href="_shader_8hpp.html" target="_top" xlink:title=" ">
<polygon fill="white" stroke="black" points="698.86,-168.5 698.86,-187.5 841.86,-187.5 841.86,-168.5 698.86,-168.5"/>
<text text-anchor="middle" x="770.36" y="-175.5" font-family="Helvetica,sans-Serif" font-size="10.00">AssetManager/Shader.hpp</text>
</a>
</g>
</g>
<!-- Node12&#45;&gt;Node17 -->
<g id="edge23" class="edge">
<title>Node12&#45;&gt;Node17</title>
<path fill="none" stroke="midnightblue" d="M801.2,-229.98C795.91,-221.23 787.52,-207.37 780.83,-196.31"/>
<polygon fill="midnightblue" stroke="midnightblue" points="783.68,-194.25 775.51,-187.51 777.69,-197.88 783.68,-194.25"/>
</g>
<!-- Node17&#45;&gt;Node13 -->
<g id="edge24" class="edge">
<title>Node17&#45;&gt;Node13</title>
<path fill="none" stroke="midnightblue" d="M751.5,-168.44C732.09,-159.64 701.63,-145.81 679.4,-135.72"/>
<polygon fill="midnightblue" stroke="midnightblue" points="680.68,-132.46 670.13,-131.52 677.79,-138.84 680.68,-132.46"/>
</g>
<!-- Node18 -->
<g id="node18" class="node">
<title>Node18</title>
<g id="a_node18"><a xlink:href="_asset_8hpp.html" target="_top" xlink:title=" ">
<polygon fill="white" stroke="black" points="703.86,-56.5 703.86,-75.5 840.86,-75.5 840.86,-56.5 703.86,-56.5"/>
<text text-anchor="middle" x="772.36" y="-63.5" font-family="Helvetica,sans-Serif" font-size="10.00">AssetManager/Asset.hpp</text>
</a>
</g>
</g>
<!-- Node17&#45;&gt;Node18 -->
<g id="edge25" class="edge">
<title>Node17&#45;&gt;Node18</title>
<path fill="none" stroke="midnightblue" d="M770.52,-168.37C770.84,-150.62 771.58,-109.67 772.02,-85.6"/>
<polygon fill="midnightblue" stroke="midnightblue" points="775.52,-85.65 772.2,-75.59 768.52,-85.53 775.52,-85.65"/>
</g>
<!-- Node19 -->
<g id="node19" class="node">
<title>Node19</title>
<g id="a_node19"><a xlink:title=" ">
<polygon fill="white" stroke="#bfbfbf" points="786.36,-0.5 786.36,-19.5 854.36,-19.5 854.36,-0.5 786.36,-0.5"/>
<text text-anchor="middle" x="820.36" y="-7.5" font-family="Helvetica,sans-Serif" font-size="10.00">filesystem</text>
</a>
</g>
</g>
<!-- Node18&#45;&gt;Node19 -->
<g id="edge26" class="edge">
<title>Node18&#45;&gt;Node19</title>
<path fill="none" stroke="midnightblue" d="M780.29,-56.08C787.21,-48.3 797.43,-36.8 805.81,-27.37"/>
<polygon fill="midnightblue" stroke="midnightblue" points="808.55,-29.55 812.58,-19.75 803.32,-24.9 808.55,-29.55"/>
</g>
<!-- Node20&#45;&gt;Node2 -->
<g id="edge28" class="edge">
<title>Node20&#45;&gt;Node2</title>
<path fill="none" stroke="midnightblue" d="M413.25,-225.54C410.25,-225.01 407.27,-224.5 404.36,-224 300.72,-206.38 271.4,-208.36 164.65,-188.12"/>
<polygon fill="midnightblue" stroke="midnightblue" points="165.25,-184.67 154.77,-186.22 163.93,-191.54 165.25,-184.67"/>
</g>
<!-- Node20&#45;&gt;Node13 -->
<g id="edge29" class="edge">
<title>Node20&#45;&gt;Node13</title>
<path fill="none" stroke="midnightblue" d="M472.54,-224.49C465.07,-209.03 456.68,-184.19 469.36,-168 485.95,-146.81 557.05,-134.22 605.31,-127.96"/>
<polygon fill="midnightblue" stroke="midnightblue" points="606.05,-131.39 615.54,-126.68 605.18,-124.45 606.05,-131.39"/>
</g>
<!-- Node21 -->
<g id="node21" class="node">
<title>Node21</title>
<g id="a_node21"><a xlink:href="_texture_8hpp.html" target="_top" xlink:title=" ">
<polygon fill="white" stroke="black" points="478.36,-168.5 478.36,-187.5 604.36,-187.5 604.36,-168.5 478.36,-168.5"/>
<text text-anchor="middle" x="541.36" y="-175.5" font-family="Helvetica,sans-Serif" font-size="10.00">Rendering/Texture.hpp</text>
</a>
</g>
</g>
<!-- Node20&#45;&gt;Node21 -->
<g id="edge30" class="edge">
<title>Node20&#45;&gt;Node21</title>
<path fill="none" stroke="midnightblue" d="M494.82,-224.4C503.95,-215.49 515.78,-203.95 525.22,-194.74"/>
<polygon fill="midnightblue" stroke="midnightblue" points="527.77,-197.15 532.48,-187.66 522.88,-192.13 527.77,-197.15"/>
</g>
<!-- Node21&#45;&gt;Node13 -->
<g id="edge31" class="edge">
<title>Node21&#45;&gt;Node13</title>
<path fill="none" stroke="midnightblue" d="M559.03,-168.32C576.75,-159.62 604.26,-146.12 624.65,-136.11"/>
<polygon fill="midnightblue" stroke="midnightblue" points="626.3,-139.2 633.73,-131.65 623.21,-132.92 626.3,-139.2"/>
</g>
<!-- Node22 -->
<g id="node22" class="node">
<title>Node22</title>
<g id="a_node22"><a xlink:href="_image_8hpp.html" target="_top" xlink:title=" ">
<polygon fill="white" stroke="black" points="798.86,-112.5 798.86,-131.5 939.86,-131.5 939.86,-112.5 798.86,-112.5"/>
<text text-anchor="middle" x="869.36" y="-119.5" font-family="Helvetica,sans-Serif" font-size="10.00">AssetManager/Image.hpp</text>
</a>
</g>
</g>
<!-- Node21&#45;&gt;Node22 -->
<g id="edge32" class="edge">
<title>Node21&#45;&gt;Node22</title>
<path fill="none" stroke="midnightblue" d="M593.33,-168.44C651.51,-158.87 745.72,-143.36 807.61,-133.17"/>
<polygon fill="midnightblue" stroke="midnightblue" points="808.33,-136.59 817.63,-131.52 807.19,-129.69 808.33,-136.59"/>
</g>
<!-- Node22&#45;&gt;Node18 -->
<g id="edge34" class="edge">
<title>Node22&#45;&gt;Node18</title>
<path fill="none" stroke="midnightblue" d="M853.78,-112.32C838.36,-103.74 814.55,-90.49 796.65,-80.52"/>
<polygon fill="midnightblue" stroke="midnightblue" points="798.35,-77.46 787.91,-75.65 794.94,-83.58 798.35,-77.46"/>
</g>
<!-- Node22&#45;&gt;Node19 -->
<g id="edge33" class="edge">
<title>Node22&#45;&gt;Node19</title>
<path fill="none" stroke="midnightblue" d="M867.69,-112.29C865.06,-99.52 859.3,-75.18 850.36,-56 845.81,-46.23 839.3,-36.17 833.52,-28.05"/>
<polygon fill="midnightblue" stroke="midnightblue" points="836.19,-25.78 827.43,-19.82 830.56,-29.94 836.19,-25.78"/>
</g>
<!-- Node23&#45;&gt;Node2 -->
<g id="edge36" class="edge">
<title>Node23&#45;&gt;Node2</title>
<path fill="none" stroke="midnightblue" d="M565.28,-225.34C562.27,-224.86 559.29,-224.41 556.36,-224 385.9,-199.99 338.22,-215.67 164.71,-188.01"/>
<polygon fill="midnightblue" stroke="midnightblue" points="165.17,-184.53 154.74,-186.39 164.05,-191.44 165.17,-184.53"/>
</g>
<!-- Node23&#45;&gt;Node13 -->
<g id="edge37" class="edge">
<title>Node23&#45;&gt;Node13</title>
<path fill="none" stroke="midnightblue" d="M634.69,-224.34C638.11,-203.53 644.51,-164.66 648.3,-141.58"/>
<polygon fill="midnightblue" stroke="midnightblue" points="651.76,-142.1 649.93,-131.67 644.86,-140.97 651.76,-142.1"/>
</g>
<!-- Node23&#45;&gt;Node21 -->
<g id="edge38" class="edge">
<title>Node23&#45;&gt;Node21</title>
<path fill="none" stroke="midnightblue" d="M610.79,-224.4C596.48,-215.04 577.75,-202.79 563.35,-193.38"/>
<polygon fill="midnightblue" stroke="midnightblue" points="564.89,-190.2 554.6,-187.66 561.06,-196.06 564.89,-190.2"/>
</g>
<!-- Node24&#45;&gt;Node13 -->
<g id="edge40" class="edge">
<title>Node24&#45;&gt;Node13</title>
<path fill="none" stroke="midnightblue" d="M1044.1,-229.92C1088.41,-219.01 1148.57,-197.94 1121.36,-168 1114.26,-160.19 814.16,-135.8 697.28,-126.58"/>
<polygon fill="midnightblue" stroke="midnightblue" points="697.45,-123.08 687.21,-125.79 696.9,-130.06 697.45,-123.08"/>
</g>
<!-- Node24&#45;&gt;Node15 -->
<g id="edge41" class="edge">
<title>Node24&#45;&gt;Node15</title>
<path fill="none" stroke="midnightblue" d="M1014.97,-229.98C1029.08,-220.43 1052.19,-204.81 1069.11,-193.37"/>
<polygon fill="midnightblue" stroke="midnightblue" points="1071.45,-196.01 1077.78,-187.51 1067.53,-190.21 1071.45,-196.01"/>
</g>
<!-- Node24&#45;&gt;Node22 -->
<g id="edge43" class="edge">
<title>Node24&#45;&gt;Node22</title>
<path fill="none" stroke="midnightblue" d="M1045.72,-229.97C1085.92,-221.07 1141.43,-205.93 1154.36,-188 1159.56,-180.79 1160.13,-174.76 1154.36,-168 1128.53,-137.77 1025.1,-127.73 950.27,-124.46"/>
<polygon fill="midnightblue" stroke="midnightblue" points="950.05,-120.95 939.91,-124.04 949.76,-127.94 950.05,-120.95"/>
</g>
<!-- Node25 -->
<g id="node25" class="node">
<title>Node25</title>
<g id="a_node25"><a xlink:title=" ">
<polygon fill="white" stroke="#bfbfbf" points="1206.86,-168.5 1206.86,-187.5 1253.86,-187.5 1253.86,-168.5 1206.86,-168.5"/>
<text text-anchor="middle" x="1230.36" y="-175.5" font-family="Helvetica,sans-Serif" font-size="10.00">vector</text>
</a>
</g>
</g>
<!-- Node24&#45;&gt;Node25 -->
<g id="edge42" class="edge">
<title>Node24&#45;&gt;Node25</title>
<path fill="none" stroke="midnightblue" d="M1035.03,-229.98C1078.12,-218.73 1153.55,-199.04 1196.99,-187.71"/>
<polygon fill="midnightblue" stroke="midnightblue" points="1198,-191.06 1206.79,-185.15 1196.23,-184.29 1198,-191.06"/>
</g>
<!-- Node26&#45;&gt;Node3 -->
<g id="edge46" class="edge">
<title>Node26&#45;&gt;Node3</title>
<path fill="none" stroke="midnightblue" d="M725.17,-292.2C722.2,-291.79 719.25,-291.39 716.36,-291 578.01,-272.47 541.69,-279.98 404.36,-255 398.81,-253.99 393,-252.75 387.29,-251.44"/>
<polygon fill="midnightblue" stroke="midnightblue" points="387.74,-247.95 377.2,-249 386.1,-254.75 387.74,-247.95"/>
</g>
<!-- Node26&#45;&gt;Node12 -->
<g id="edge47" class="edge">
<title>Node26&#45;&gt;Node12</title>
<path fill="none" stroke="midnightblue" d="M810.28,-291.4C809.55,-281.96 808.59,-269.45 807.8,-259.19"/>
<polygon fill="midnightblue" stroke="midnightblue" points="811.29,-258.9 807.03,-249.19 804.31,-259.43 811.29,-258.9"/>
</g>
<!-- Node26&#45;&gt;Node25 -->
<g id="edge45" class="edge">
<title>Node26&#45;&gt;Node25</title>
<path fill="none" stroke="midnightblue" d="M897.75,-305.66C1001.24,-304.01 1166.33,-294.95 1211.36,-255 1227.38,-240.78 1230.88,-215.29 1231.2,-197.78"/>
<polygon fill="midnightblue" stroke="midnightblue" points="1234.7,-197.57 1231.05,-187.63 1227.7,-197.68 1234.7,-197.57"/>
</g>
<!-- Node27&#45;&gt;Node2 -->
<g id="edge49" class="edge">
<title>Node27&#45;&gt;Node2</title>
<path fill="none" stroke="midnightblue" d="M325.58,-296.92C303.48,-287.54 267.73,-271.61 238.36,-255 204.36,-235.77 167.17,-209.7 145.08,-193.63"/>
<polygon fill="midnightblue" stroke="midnightblue" points="146.99,-190.69 136.85,-187.61 142.85,-196.34 146.99,-190.69"/>
</g>
<!-- Node27&#45;&gt;Node3 -->
<g id="edge50" class="edge">
<title>Node27&#45;&gt;Node3</title>
<path fill="none" stroke="midnightblue" d="M346.36,-296.73C346.36,-287.18 346.36,-271.62 346.36,-259.28"/>
<polygon fill="midnightblue" stroke="midnightblue" points="349.86,-259.13 346.36,-249.13 342.86,-259.13 349.86,-259.13"/>
</g>
</g>
</svg>
