<?xml version="1.0" encoding="UTF-8" standalone="no"?>
<!DOCTYPE svg PUBLIC "-//W3C//DTD SVG 1.1//EN"
 "http://www.w3.org/Graphics/SVG/1.1/DTD/svg11.dtd">
<!-- Generated by graphviz version 2.43.0 (0)
 -->
<!-- Title: src/Runtime/Runtime.hpp Pages: 1 -->
<svg width="1894pt" height="386pt"
 viewBox="0.00 0.00 1893.50 386.00" xmlns="http://www.w3.org/2000/svg" xmlns:xlink="http://www.w3.org/1999/xlink">
<g id="graph0" class="graph" transform="scale(1 1) rotate(0) translate(4 382)">
<title>src/Runtime/Runtime.hpp</title>
<polygon fill="white" stroke="transparent" points="-4,4 -4,-382 1889.5,-382 1889.5,4 -4,4"/>
<!-- Node1 -->
<g id="node1" class="node">
<title>Node1</title>
<g id="a_node1"><a xlink:title=" ">
<polygon fill="#bfbfbf" stroke="black" points="381,-358.5 381,-377.5 521,-377.5 521,-358.5 381,-358.5"/>
<text text-anchor="middle" x="451" y="-365.5" font-family="Helvetica,sans-Serif" font-size="10.00">src/Runtime/Runtime.hpp</text>
</a>
</g>
</g>
<!-- Node2 -->
<g id="node2" class="node">
<title>Node2</title>
<g id="a_node2"><a xlink:title=" ">
<polygon fill="white" stroke="#bfbfbf" points="281,-168.5 281,-187.5 339,-187.5 339,-168.5 281,-168.5"/>
<text text-anchor="middle" x="310" y="-175.5" font-family="Helvetica,sans-Serif" font-size="10.00">memory</text>
</a>
</g>
</g>
<!-- Node1&#45;&gt;Node2 -->
<g id="edge1" class="edge">
<title>Node1&#45;&gt;Node2</title>
<path fill="none" stroke="midnightblue" d="M380.59,-364.8C263.46,-360.41 38.99,-348.59 15,-322 5.77,-311.77 7.9,-302.81 15,-291 47.67,-236.63 81.97,-247.2 141,-224 164.5,-214.77 228.77,-198.54 270.94,-188.3"/>
<polygon fill="midnightblue" stroke="midnightblue" points="271.99,-191.65 280.88,-185.9 270.34,-184.85 271.99,-191.65"/>
</g>
<!-- Node3 -->
<g id="node3" class="node">
<title>Node3</title>
<g id="a_node3"><a xlink:href="_registry_8hpp.html" target="_top" xlink:title=" ">
<polygon fill="white" stroke="black" points="175,-230 175,-249 273,-249 273,-230 175,-230"/>
<text text-anchor="middle" x="224" y="-237" font-family="Helvetica,sans-Serif" font-size="10.00">ECS/Registry.hpp</text>
</a>
</g>
</g>
<!-- Node1&#45;&gt;Node3 -->
<g id="edge2" class="edge">
<title>Node1&#45;&gt;Node3</title>
<path fill="none" stroke="midnightblue" d="M380.97,-359.7C348.31,-353.61 310.29,-342.45 281,-322 257.83,-305.82 240.98,-277.01 231.85,-258.34"/>
<polygon fill="midnightblue" stroke="midnightblue" points="234.97,-256.74 227.58,-249.15 228.62,-259.69 234.97,-256.74"/>
</g>
<!-- Node9 -->
<g id="node9" class="node">
<title>Node9</title>
<g id="a_node9"><a xlink:href="_types_8hpp.html" target="_top" xlink:title=" ">
<polygon fill="white" stroke="black" points="1772.5,-0.5 1772.5,-19.5 1885.5,-19.5 1885.5,-0.5 1772.5,-0.5"/>
<text text-anchor="middle" x="1829" y="-7.5" font-family="Helvetica,sans-Serif" font-size="10.00">Common/Types.hpp</text>
</a>
</g>
</g>
<!-- Node1&#45;&gt;Node9 -->
<g id="edge9" class="edge">
<title>Node1&#45;&gt;Node9</title>
<path fill="none" stroke="midnightblue" d="M521.23,-364.27C802.04,-352.92 1829,-306.87 1829,-240.5 1829,-240.5 1829,-240.5 1829,-121 1829,-88.95 1829,-51.64 1829,-29.75"/>
<polygon fill="midnightblue" stroke="midnightblue" points="1832.5,-29.56 1829,-19.56 1825.5,-29.56 1832.5,-29.56"/>
</g>
<!-- Node10 -->
<g id="node10" class="node">
<title>Node10</title>
<g id="a_node10"><a xlink:href="_camera_movement_system_8hpp.html" target="_top" xlink:title=" ">
<polygon fill="white" stroke="black" points="24,-297 24,-316 234,-316 234,-297 24,-297"/>
<text text-anchor="middle" x="129" y="-304" font-family="Helvetica,sans-Serif" font-size="10.00">Systems/CameraMovementSystem.hpp</text>
</a>
</g>
</g>
<!-- Node1&#45;&gt;Node10 -->
<g id="edge10" class="edge">
<title>Node1&#45;&gt;Node10</title>
<path fill="none" stroke="midnightblue" d="M404.87,-358.48C346.88,-347.76 247.42,-329.38 185.1,-317.87"/>
<polygon fill="midnightblue" stroke="midnightblue" points="185.52,-314.38 175.05,-316.01 184.25,-321.27 185.52,-314.38"/>
</g>
<!-- Node11 -->
<g id="node11" class="node">
<title>Node11</title>
<g id="a_node11"><a xlink:href="_rendering_system_8hpp.html" target="_top" xlink:title=" ">
<polygon fill="white" stroke="black" points="541.5,-297 541.5,-316 710.5,-316 710.5,-297 541.5,-297"/>
<text text-anchor="middle" x="626" y="-304" font-family="Helvetica,sans-Serif" font-size="10.00">Systems/RenderingSystem.hpp</text>
</a>
</g>
</g>
<!-- Node1&#45;&gt;Node11 -->
<g id="edge13" class="edge">
<title>Node1&#45;&gt;Node11</title>
<path fill="none" stroke="midnightblue" d="M476.07,-358.48C506.35,-348.18 557.44,-330.81 591.44,-319.25"/>
<polygon fill="midnightblue" stroke="midnightblue" points="592.63,-322.54 600.97,-316.01 590.38,-315.91 592.63,-322.54"/>
</g>
<!-- Node29 -->
<g id="node29" class="node">
<title>Node29</title>
<g id="a_node29"><a xlink:href="_scene_frame_buffer_8hpp.html" target="_top" xlink:title=" ">
<polygon fill="white" stroke="black" points="370,-224.5 370,-254.5 504,-254.5 504,-224.5 370,-224.5"/>
<text text-anchor="start" x="378" y="-242.5" font-family="Helvetica,sans-Serif" font-size="10.00">Rendering/FrameBuffers</text>
<text text-anchor="middle" x="437" y="-231.5" font-family="Helvetica,sans-Serif" font-size="10.00">/SceneFrameBuffer.hpp</text>
</a>
</g>
</g>
<!-- Node1&#45;&gt;Node29 -->
<g id="edge70" class="edge">
<title>Node1&#45;&gt;Node29</title>
<path fill="none" stroke="midnightblue" d="M463.78,-358.37C474.39,-350.36 488.73,-337.38 495,-322 500.2,-309.24 500.71,-303.54 495,-291 489.54,-279.01 479.68,-268.77 469.62,-260.7"/>
<polygon fill="midnightblue" stroke="midnightblue" points="471.69,-257.88 461.59,-254.71 467.51,-263.49 471.69,-257.88"/>
</g>
<!-- Node35 -->
<g id="node35" class="node">
<title>Node35</title>
<g id="a_node35"><a xlink:href="_development_renderer_system_8hpp.html" target="_top" xlink:title=" ">
<polygon fill="white" stroke="black" points="729,-291.5 729,-321.5 901,-321.5 901,-291.5 729,-291.5"/>
<text text-anchor="start" x="737" y="-309.5" font-family="Helvetica,sans-Serif" font-size="10.00">Systems/DevelopmentRenderer</text>
<text text-anchor="middle" x="815" y="-298.5" font-family="Helvetica,sans-Serif" font-size="10.00">System.hpp</text>
</a>
</g>
</g>
<!-- Node1&#45;&gt;Node35 -->
<g id="edge63" class="edge">
<title>Node1&#45;&gt;Node35</title>
<path fill="none" stroke="midnightblue" d="M503.15,-358.48C559.36,-349.29 650.05,-334.46 719.18,-323.16"/>
<polygon fill="midnightblue" stroke="midnightblue" points="719.91,-326.59 729.21,-321.52 718.78,-319.68 719.91,-326.59"/>
</g>
<!-- Node36 -->
<g id="node36" class="node">
<title>Node36</title>
<g id="a_node36"><a xlink:href="_object_selection_system_8hpp.html" target="_top" xlink:title=" ">
<polygon fill="white" stroke="black" points="290,-297 290,-316 486,-316 486,-297 290,-297"/>
<text text-anchor="middle" x="388" y="-304" font-family="Helvetica,sans-Serif" font-size="10.00">Systems/ObjectSelectionSystem.hpp</text>
</a>
</g>
</g>
<!-- Node1&#45;&gt;Node36 -->
<g id="edge67" class="edge">
<title>Node1&#45;&gt;Node36</title>
<path fill="none" stroke="midnightblue" d="M441.97,-358.48C432.24,-349.28 416.54,-334.46 404.58,-323.16"/>
<polygon fill="midnightblue" stroke="midnightblue" points="406.68,-320.33 397.01,-316.01 401.88,-325.42 406.68,-320.33"/>
</g>
<!-- Node4 -->
<g id="node4" class="node">
<title>Node4</title>
<g id="a_node4"><a xlink:title=" ">
<polygon fill="white" stroke="#bfbfbf" points="177,-168.5 177,-187.5 263,-187.5 263,-168.5 177,-168.5"/>
<text text-anchor="middle" x="220" y="-175.5" font-family="Helvetica,sans-Serif" font-size="10.00">unordered_set</text>
</a>
</g>
</g>
<!-- Node3&#45;&gt;Node4 -->
<g id="edge3" class="edge">
<title>Node3&#45;&gt;Node4</title>
<path fill="none" stroke="midnightblue" d="M223.43,-229.98C222.86,-221.58 221.98,-208.48 221.25,-197.66"/>
<polygon fill="midnightblue" stroke="midnightblue" points="224.74,-197.25 220.57,-187.51 217.75,-197.72 224.74,-197.25"/>
</g>
<!-- Node5 -->
<g id="node5" class="node">
<title>Node5</title>
<g id="a_node5"><a xlink:href="_entity_provider_8hpp.html" target="_top" xlink:title="Manages a pool of unused entity identifiers and provides mechanisms for requesting and removing them.">
<polygon fill="white" stroke="black" points="0,-112.5 0,-131.5 128,-131.5 128,-112.5 0,-112.5"/>
<text text-anchor="middle" x="64" y="-119.5" font-family="Helvetica,sans-Serif" font-size="10.00">ECS/EntityProvider.hpp</text>
</a>
</g>
</g>
<!-- Node3&#45;&gt;Node5 -->
<g id="edge4" class="edge">
<title>Node3&#45;&gt;Node5</title>
<path fill="none" stroke="midnightblue" d="M174.91,-231.63C126.69,-223.75 58.08,-209.14 42,-188 31.23,-173.84 40.51,-154.09 50.11,-140.08"/>
<polygon fill="midnightblue" stroke="midnightblue" points="53.09,-141.94 56.26,-131.83 47.48,-137.76 53.09,-141.94"/>
</g>
<!-- Node8 -->
<g id="node8" class="node">
<title>Node8</title>
<g id="a_node8"><a xlink:href="_sparse_set_8hpp.html" target="_top" xlink:title=" ">
<polygon fill="white" stroke="black" points="51,-168.5 51,-187.5 159,-187.5 159,-168.5 51,-168.5"/>
<text text-anchor="middle" x="105" y="-175.5" font-family="Helvetica,sans-Serif" font-size="10.00">ECS/SparseSet.hpp</text>
</a>
</g>
</g>
<!-- Node3&#45;&gt;Node8 -->
<g id="edge7" class="edge">
<title>Node3&#45;&gt;Node8</title>
<path fill="none" stroke="midnightblue" d="M206.95,-229.98C187.16,-220.08 154.28,-203.64 131.23,-192.12"/>
<polygon fill="midnightblue" stroke="midnightblue" points="132.53,-188.85 122.02,-187.51 129.4,-195.11 132.53,-188.85"/>
</g>
<!-- Node6 -->
<g id="node6" class="node">
<title>Node6</title>
<g id="a_node6"><a xlink:title=" ">
<polygon fill="white" stroke="#bfbfbf" points="3.5,-56.5 3.5,-75.5 56.5,-75.5 56.5,-56.5 3.5,-56.5"/>
<text text-anchor="middle" x="30" y="-63.5" font-family="Helvetica,sans-Serif" font-size="10.00">stdlib.h</text>
</a>
</g>
</g>
<!-- Node5&#45;&gt;Node6 -->
<g id="edge5" class="edge">
<title>Node5&#45;&gt;Node6</title>
<path fill="none" stroke="midnightblue" d="M58.39,-112.08C53.63,-104.53 46.68,-93.49 40.85,-84.23"/>
<polygon fill="midnightblue" stroke="midnightblue" points="43.8,-82.35 35.51,-75.75 37.88,-86.08 43.8,-82.35"/>
</g>
<!-- Node7 -->
<g id="node7" class="node">
<title>Node7</title>
<g id="a_node7"><a xlink:title=" ">
<polygon fill="white" stroke="#bfbfbf" points="74.5,-56.5 74.5,-75.5 121.5,-75.5 121.5,-56.5 74.5,-56.5"/>
<text text-anchor="middle" x="98" y="-63.5" font-family="Helvetica,sans-Serif" font-size="10.00">queue</text>
</a>
</g>
</g>
<!-- Node5&#45;&gt;Node7 -->
<g id="edge6" class="edge">
<title>Node5&#45;&gt;Node7</title>
<path fill="none" stroke="midnightblue" d="M69.61,-112.08C74.37,-104.53 81.32,-93.49 87.15,-84.23"/>
<polygon fill="midnightblue" stroke="midnightblue" points="90.12,-86.08 92.49,-75.75 84.2,-82.35 90.12,-86.08"/>
</g>
<!-- Node8&#45;&gt;Node5 -->
<g id="edge8" class="edge">
<title>Node8&#45;&gt;Node5</title>
<path fill="none" stroke="midnightblue" d="M98.23,-168.08C92.44,-160.46 83.94,-149.26 76.86,-139.94"/>
<polygon fill="midnightblue" stroke="midnightblue" points="79.48,-137.6 70.64,-131.75 73.9,-141.83 79.48,-137.6"/>
</g>
<!-- Node10&#45;&gt;Node2 -->
<g id="edge11" class="edge">
<title>Node10&#45;&gt;Node2</title>
<path fill="none" stroke="midnightblue" d="M130.48,-296.99C133.81,-280.47 143.41,-243.96 166,-224 174.07,-216.86 231.27,-200.31 271.1,-189.39"/>
<polygon fill="midnightblue" stroke="midnightblue" points="272.08,-192.75 280.81,-186.75 270.24,-186 272.08,-192.75"/>
</g>
<!-- Node10&#45;&gt;Node3 -->
<g id="edge12" class="edge">
<title>Node10&#45;&gt;Node3</title>
<path fill="none" stroke="midnightblue" d="M141.81,-296.73C157.48,-286.01 184.22,-267.72 202.93,-254.91"/>
<polygon fill="midnightblue" stroke="midnightblue" points="205.11,-257.66 211.39,-249.13 201.16,-251.89 205.11,-257.66"/>
</g>
<!-- Node11&#45;&gt;Node2 -->
<g id="edge14" class="edge">
<title>Node11&#45;&gt;Node2</title>
<path fill="none" stroke="midnightblue" d="M545.03,-296.99C478.55,-288.75 390.69,-274.63 361,-255 339.72,-240.94 325.08,-214.63 317.11,-196.97"/>
<polygon fill="midnightblue" stroke="midnightblue" points="320.32,-195.56 313.2,-187.72 313.88,-198.29 320.32,-195.56"/>
</g>
<!-- Node11&#45;&gt;Node3 -->
<g id="edge16" class="edge">
<title>Node11&#45;&gt;Node3</title>
<path fill="none" stroke="midnightblue" d="M573.03,-296.94C498.15,-284.83 361.75,-262.77 283.48,-250.12"/>
<polygon fill="midnightblue" stroke="midnightblue" points="283.73,-246.61 273.3,-248.47 282.61,-253.52 283.73,-246.61"/>
</g>
<!-- Node11&#45;&gt;Node9 -->
<g id="edge15" class="edge">
<title>Node11&#45;&gt;Node9</title>
<path fill="none" stroke="midnightblue" d="M675.16,-296.99C689.57,-294.75 705.38,-292.53 720,-291 847.36,-277.69 1867,-307.05 1867,-179 1867,-179 1867,-179 1867,-121 1867,-86.81 1850.4,-49.76 1839.14,-28.57"/>
<polygon fill="midnightblue" stroke="midnightblue" points="1842.18,-26.83 1834.28,-19.77 1836.05,-30.22 1842.18,-26.83"/>
</g>
<!-- Node12 -->
<g id="node12" class="node">
<title>Node12</title>
<g id="a_node12"><a xlink:href="_directional_light_component_8hpp.html" target="_top" xlink:title=" ">
<polygon fill="white" stroke="black" points="1204,-224.5 1204,-254.5 1362,-254.5 1362,-224.5 1204,-224.5"/>
<text text-anchor="start" x="1212" y="-242.5" font-family="Helvetica,sans-Serif" font-size="10.00">Components/DirectionalLight</text>
<text text-anchor="middle" x="1283" y="-231.5" font-family="Helvetica,sans-Serif" font-size="10.00">Component.hpp</text>
</a>
</g>
</g>
<!-- Node11&#45;&gt;Node12 -->
<g id="edge17" class="edge">
<title>Node11&#45;&gt;Node12</title>
<path fill="none" stroke="midnightblue" d="M677.63,-296.93C691.38,-294.82 706.23,-292.68 720,-291 886.73,-270.68 1082.18,-254.96 1193.41,-246.77"/>
<polygon fill="midnightblue" stroke="midnightblue" points="1193.86,-250.25 1203.58,-246.02 1193.35,-243.26 1193.86,-250.25"/>
</g>
<!-- Node23 -->
<g id="node23" class="node">
<title>Node23</title>
<g id="a_node23"><a xlink:href="_shader_program_8hpp.html" target="_top" xlink:title=" ">
<polygon fill="white" stroke="black" points="732.5,-230 732.5,-249 897.5,-249 897.5,-230 732.5,-230"/>
<text text-anchor="middle" x="815" y="-237" font-family="Helvetica,sans-Serif" font-size="10.00">Rendering/ShaderProgram.hpp</text>
</a>
</g>
</g>
<!-- Node11&#45;&gt;Node23 -->
<g id="edge36" class="edge">
<title>Node11&#45;&gt;Node23</title>
<path fill="none" stroke="midnightblue" d="M651.1,-296.87C684.37,-285.42 743.24,-265.18 780.62,-252.32"/>
<polygon fill="midnightblue" stroke="midnightblue" points="781.78,-255.63 790.1,-249.06 779.5,-249.01 781.78,-255.63"/>
</g>
<!-- Node11&#45;&gt;Node29 -->
<g id="edge46" class="edge">
<title>Node11&#45;&gt;Node29</title>
<path fill="none" stroke="midnightblue" d="M600.9,-296.87C572.05,-286.95 523.96,-270.41 487.32,-257.81"/>
<polygon fill="midnightblue" stroke="midnightblue" points="488.38,-254.47 477.79,-254.53 486.11,-261.09 488.38,-254.47"/>
</g>
<!-- Node32 -->
<g id="node32" class="node">
<title>Node32</title>
<g id="a_node32"><a xlink:href="_depth_atlas_frame_buffer_8hpp.html" target="_top" xlink:title=" ">
<polygon fill="white" stroke="black" points="522,-224.5 522,-254.5 676,-254.5 676,-224.5 522,-224.5"/>
<text text-anchor="start" x="530" y="-242.5" font-family="Helvetica,sans-Serif" font-size="10.00">Rendering/FrameBuffers</text>
<text text-anchor="middle" x="599" y="-231.5" font-family="Helvetica,sans-Serif" font-size="10.00">/DepthAtlasFrameBuffer.hpp</text>
</a>
</g>
</g>
<!-- Node11&#45;&gt;Node32 -->
<g id="edge54" class="edge">
<title>Node11&#45;&gt;Node32</title>
<path fill="none" stroke="midnightblue" d="M622.36,-296.73C618.89,-288.37 613.5,-275.4 608.77,-264.02"/>
<polygon fill="midnightblue" stroke="midnightblue" points="611.92,-262.48 604.85,-254.59 605.46,-265.17 611.92,-262.48"/>
</g>
<!-- Node33 -->
<g id="node33" class="node">
<title>Node33</title>
<g id="a_node33"><a xlink:href="_cube_map_8hpp.html" target="_top" xlink:title=" ">
<polygon fill="white" stroke="black" points="777,-168.5 777,-187.5 913,-187.5 913,-168.5 777,-168.5"/>
<text text-anchor="middle" x="845" y="-175.5" font-family="Helvetica,sans-Serif" font-size="10.00">Rendering/CubeMap.hpp</text>
</a>
</g>
</g>
<!-- Node11&#45;&gt;Node33 -->
<g id="edge58" class="edge">
<title>Node11&#45;&gt;Node33</title>
<path fill="none" stroke="midnightblue" d="M635.95,-296.9C658.9,-277.11 714.33,-229.6 724,-224 749.06,-209.49 779.64,-198.16 803.79,-190.5"/>
<polygon fill="midnightblue" stroke="midnightblue" points="804.85,-193.84 813.38,-187.55 802.79,-187.15 804.85,-193.84"/>
</g>
<!-- Node13 -->
<g id="node13" class="node">
<title>Node13</title>
<g id="a_node13"><a xlink:title=" ">
<polygon fill="white" stroke="#bfbfbf" points="1007,-56.5 1007,-75.5 1051,-75.5 1051,-56.5 1007,-56.5"/>
<text text-anchor="middle" x="1029" y="-63.5" font-family="Helvetica,sans-Serif" font-size="10.00">string</text>
</a>
</g>
</g>
<!-- Node12&#45;&gt;Node13 -->
<g id="edge18" class="edge">
<title>Node12&#45;&gt;Node13</title>
<path fill="none" stroke="midnightblue" d="M1282.29,-224.43C1280.87,-209.14 1276.63,-184.67 1264,-168 1234.63,-129.24 1214.34,-131.97 1170,-112 1133.9,-95.74 1090.18,-82.75 1061.09,-74.99"/>
<polygon fill="midnightblue" stroke="midnightblue" points="1061.63,-71.51 1051.07,-72.37 1059.86,-78.29 1061.63,-71.51"/>
</g>
<!-- Node14 -->
<g id="node14" class="node">
<title>Node14</title>
<g id="a_node14"><a xlink:title=" ">
<polygon fill="white" stroke="#bfbfbf" points="1195,-168.5 1195,-187.5 1255,-187.5 1255,-168.5 1195,-168.5"/>
<text text-anchor="middle" x="1225" y="-175.5" font-family="Helvetica,sans-Serif" font-size="10.00">iostream</text>
</a>
</g>
</g>
<!-- Node12&#45;&gt;Node14 -->
<g id="edge19" class="edge">
<title>Node12&#45;&gt;Node14</title>
<path fill="none" stroke="midnightblue" d="M1269.25,-224.4C1260.65,-215.58 1249.55,-204.18 1240.61,-195.02"/>
<polygon fill="midnightblue" stroke="midnightblue" points="1242.93,-192.38 1233.44,-187.66 1237.91,-197.26 1242.93,-192.38"/>
</g>
<!-- Node15 -->
<g id="node15" class="node">
<title>Node15</title>
<g id="a_node15"><a xlink:title=" ">
<polygon fill="white" stroke="#bfbfbf" points="1076,-0.5 1076,-19.5 1154,-19.5 1154,-0.5 1076,-0.5"/>
<text text-anchor="middle" x="1115" y="-7.5" font-family="Helvetica,sans-Serif" font-size="10.00">glm/glm.hpp</text>
</a>
</g>
</g>
<!-- Node12&#45;&gt;Node15 -->
<g id="edge20" class="edge">
<title>Node12&#45;&gt;Node15</title>
<path fill="none" stroke="midnightblue" d="M1203.73,-228.99C1142.47,-220.41 1063.75,-206.34 1037,-188 988.19,-154.54 981.68,-132.78 965,-76 951.9,-31.38 1017.01,-17.25 1065.59,-12.86"/>
<polygon fill="midnightblue" stroke="midnightblue" points="1065.97,-16.34 1075.67,-12.06 1065.42,-9.36 1065.97,-16.34"/>
</g>
<!-- Node16 -->
<g id="node16" class="node">
<title>Node16</title>
<g id="a_node16"><a xlink:href="_base_component_8hpp.html" target="_top" xlink:title=" ">
<polygon fill="white" stroke="black" points="1619,-56.5 1619,-75.5 1801,-75.5 1801,-56.5 1619,-56.5"/>
<text text-anchor="middle" x="1710" y="-63.5" font-family="Helvetica,sans-Serif" font-size="10.00">Components/BaseComponent.hpp</text>
</a>
</g>
</g>
<!-- Node12&#45;&gt;Node16 -->
<g id="edge21" class="edge">
<title>Node12&#45;&gt;Node16</title>
<path fill="none" stroke="midnightblue" d="M1362.29,-234.03C1450.89,-227.83 1587.71,-214.28 1632,-188 1671.28,-164.69 1694.23,-113 1704.14,-85.33"/>
<polygon fill="midnightblue" stroke="midnightblue" points="1707.51,-86.29 1707.41,-75.7 1700.88,-84.05 1707.51,-86.29"/>
</g>
<!-- Node17 -->
<g id="node17" class="node">
<title>Node17</title>
<g id="a_node17"><a xlink:href="_transform_component_8hpp.html" target="_top" xlink:title=" ">
<polygon fill="white" stroke="black" points="1311.5,-112.5 1311.5,-131.5 1518.5,-131.5 1518.5,-112.5 1311.5,-112.5"/>
<text text-anchor="middle" x="1415" y="-119.5" font-family="Helvetica,sans-Serif" font-size="10.00">Components/TransformComponent.hpp</text>
</a>
</g>
</g>
<!-- Node12&#45;&gt;Node17 -->
<g id="edge23" class="edge">
<title>Node12&#45;&gt;Node17</title>
<path fill="none" stroke="midnightblue" d="M1299.19,-224.34C1324.05,-202.58 1371.47,-161.09 1397.24,-138.54"/>
<polygon fill="midnightblue" stroke="midnightblue" points="1399.87,-140.89 1405.09,-131.67 1395.26,-135.62 1399.87,-140.89"/>
</g>
<!-- Node21 -->
<g id="node21" class="node">
<title>Node21</title>
<g id="a_node21"><a xlink:href="_camera_component_8hpp.html" target="_top" xlink:title=" ">
<polygon fill="white" stroke="black" points="1425.5,-168.5 1425.5,-187.5 1622.5,-187.5 1622.5,-168.5 1425.5,-168.5"/>
<text text-anchor="middle" x="1524" y="-175.5" font-family="Helvetica,sans-Serif" font-size="10.00">Components/CameraComponent.hpp</text>
</a>
</g>
</g>
<!-- Node12&#45;&gt;Node21 -->
<g id="edge31" class="edge">
<title>Node12&#45;&gt;Node21</title>
<path fill="none" stroke="midnightblue" d="M1339.81,-224.47C1382.57,-213.92 1440.34,-199.66 1479.71,-189.94"/>
<polygon fill="midnightblue" stroke="midnightblue" points="1480.68,-193.3 1489.55,-187.51 1479,-186.51 1480.68,-193.3"/>
</g>
<!-- Node16&#45;&gt;Node9 -->
<g id="edge22" class="edge">
<title>Node16&#45;&gt;Node9</title>
<path fill="none" stroke="midnightblue" d="M1728.86,-56.44C1748.27,-47.64 1778.73,-33.81 1800.96,-23.72"/>
<polygon fill="midnightblue" stroke="midnightblue" points="1802.57,-26.84 1810.23,-19.52 1799.68,-20.46 1802.57,-26.84"/>
</g>
<!-- Node17&#45;&gt;Node13 -->
<g id="edge24" class="edge">
<title>Node17&#45;&gt;Node13</title>
<path fill="none" stroke="midnightblue" d="M1326.08,-112.47C1255.07,-104.97 1153.2,-92.64 1065,-76 1063.75,-75.76 1062.49,-75.51 1061.21,-75.25"/>
<polygon fill="midnightblue" stroke="midnightblue" points="1061.9,-71.82 1051.38,-73.03 1060.36,-78.64 1061.9,-71.82"/>
</g>
<!-- Node17&#45;&gt;Node15 -->
<g id="edge25" class="edge">
<title>Node17&#45;&gt;Node15</title>
<path fill="none" stroke="midnightblue" d="M1311.23,-113C1224.26,-105.21 1112.05,-92.19 1098,-76 1086.46,-62.7 1094.44,-42.49 1102.93,-28.14"/>
<polygon fill="midnightblue" stroke="midnightblue" points="1105.9,-29.99 1108.38,-19.69 1100.02,-26.19 1105.9,-29.99"/>
</g>
<!-- Node17&#45;&gt;Node16 -->
<g id="edge30" class="edge">
<title>Node17&#45;&gt;Node16</title>
<path fill="none" stroke="midnightblue" d="M1461.74,-112.44C1513.75,-102.92 1597.75,-87.55 1653.42,-77.36"/>
<polygon fill="midnightblue" stroke="midnightblue" points="1654.27,-80.76 1663.48,-75.52 1653.01,-73.87 1654.27,-80.76"/>
</g>
<!-- Node18 -->
<g id="node18" class="node">
<title>Node18</title>
<g id="a_node18"><a xlink:title=" ">
<polygon fill="white" stroke="#bfbfbf" points="1213,-56.5 1213,-75.5 1343,-75.5 1343,-56.5 1213,-56.5"/>
<text text-anchor="middle" x="1278" y="-63.5" font-family="Helvetica,sans-Serif" font-size="10.00">glm/gtc/quaternion.hpp</text>
</a>
</g>
</g>
<!-- Node17&#45;&gt;Node18 -->
<g id="edge26" class="edge">
<title>Node17&#45;&gt;Node18</title>
<path fill="none" stroke="midnightblue" d="M1393.29,-112.44C1370.65,-103.52 1334.93,-89.44 1309.25,-79.32"/>
<polygon fill="midnightblue" stroke="midnightblue" points="1310.19,-75.93 1299.61,-75.52 1307.63,-82.44 1310.19,-75.93"/>
</g>
<!-- Node19 -->
<g id="node19" class="node">
<title>Node19</title>
<g id="a_node19"><a xlink:title=" ">
<polygon fill="white" stroke="#bfbfbf" points="1361.5,-56.5 1361.5,-75.5 1524.5,-75.5 1524.5,-56.5 1361.5,-56.5"/>
<text text-anchor="middle" x="1443" y="-63.5" font-family="Helvetica,sans-Serif" font-size="10.00">glm/gtc/matrix_transform.hpp</text>
</a>
</g>
</g>
<!-- Node17&#45;&gt;Node19 -->
<g id="edge27" class="edge">
<title>Node17&#45;&gt;Node19</title>
<path fill="none" stroke="midnightblue" d="M1419.62,-112.08C1423.46,-104.69 1429.02,-93.95 1433.76,-84.81"/>
<polygon fill="midnightblue" stroke="midnightblue" points="1436.97,-86.24 1438.46,-75.75 1430.75,-83.02 1436.97,-86.24"/>
</g>
<!-- Node20 -->
<g id="node20" class="node">
<title>Node20</title>
<g id="a_node20"><a xlink:href="_math_2_utils_8hpp.html" target="_top" xlink:title=" ">
<polygon fill="white" stroke="black" points="1107,-56.5 1107,-75.5 1195,-75.5 1195,-56.5 1107,-56.5"/>
<text text-anchor="middle" x="1151" y="-63.5" font-family="Helvetica,sans-Serif" font-size="10.00">Math/Utils.hpp</text>
</a>
</g>
</g>
<!-- Node17&#45;&gt;Node20 -->
<g id="edge28" class="edge">
<title>Node17&#45;&gt;Node20</title>
<path fill="none" stroke="midnightblue" d="M1373.17,-112.44C1326.92,-102.98 1252.39,-87.74 1202.56,-77.55"/>
<polygon fill="midnightblue" stroke="midnightblue" points="1203.13,-74.09 1192.64,-75.52 1201.73,-80.95 1203.13,-74.09"/>
</g>
<!-- Node20&#45;&gt;Node15 -->
<g id="edge29" class="edge">
<title>Node20&#45;&gt;Node15</title>
<path fill="none" stroke="midnightblue" d="M1145.06,-56.08C1140.02,-48.53 1132.66,-37.49 1126.49,-28.23"/>
<polygon fill="midnightblue" stroke="midnightblue" points="1129.29,-26.13 1120.83,-19.75 1123.47,-30.01 1129.29,-26.13"/>
</g>
<!-- Node21&#45;&gt;Node15 -->
<g id="edge32" class="edge">
<title>Node21&#45;&gt;Node15</title>
<path fill="none" stroke="midnightblue" d="M1528.47,-168.33C1539.09,-146.4 1562.88,-88.14 1534,-56 1509.66,-28.91 1269.69,-16.74 1164.26,-12.66"/>
<polygon fill="midnightblue" stroke="midnightblue" points="1164.31,-9.16 1154.19,-12.28 1164.05,-16.16 1164.31,-9.16"/>
</g>
<!-- Node21&#45;&gt;Node17 -->
<g id="edge35" class="edge">
<title>Node21&#45;&gt;Node17</title>
<path fill="none" stroke="midnightblue" d="M1506.49,-168.32C1488.93,-159.62 1461.67,-146.12 1441.47,-136.11"/>
<polygon fill="midnightblue" stroke="midnightblue" points="1442.98,-132.96 1432.47,-131.65 1439.88,-139.23 1442.98,-132.96"/>
</g>
<!-- Node22 -->
<g id="node22" class="node">
<title>Node22</title>
<g id="a_node22"><a xlink:href="_ray_8hpp.html" target="_top" xlink:title=" ">
<polygon fill="white" stroke="black" points="1581.5,-112.5 1581.5,-131.5 1664.5,-131.5 1664.5,-112.5 1581.5,-112.5"/>
<text text-anchor="middle" x="1623" y="-119.5" font-family="Helvetica,sans-Serif" font-size="10.00">Math/Ray.hpp</text>
</a>
</g>
</g>
<!-- Node21&#45;&gt;Node22 -->
<g id="edge33" class="edge">
<title>Node21&#45;&gt;Node22</title>
<path fill="none" stroke="midnightblue" d="M1539.91,-168.32C1555.64,-159.74 1579.94,-146.49 1598.21,-136.52"/>
<polygon fill="midnightblue" stroke="midnightblue" points="1600.03,-139.52 1607.13,-131.65 1596.68,-133.37 1600.03,-139.52"/>
</g>
<!-- Node22&#45;&gt;Node15 -->
<g id="edge34" class="edge">
<title>Node22&#45;&gt;Node15</title>
<path fill="none" stroke="midnightblue" d="M1618.5,-112.41C1610.4,-97.92 1591.85,-68.92 1567,-56 1497.92,-20.08 1266.47,-12.8 1164.25,-11.35"/>
<polygon fill="midnightblue" stroke="midnightblue" points="1164.23,-7.85 1154.18,-11.22 1164.14,-14.85 1164.23,-7.85"/>
</g>
<!-- Node23&#45;&gt;Node2 -->
<g id="edge39" class="edge">
<title>Node23&#45;&gt;Node2</title>
<path fill="none" stroke="midnightblue" d="M739.05,-229.97C721.31,-227.99 702.5,-225.91 685,-224 538.48,-208 498.19,-213.17 349.35,-188.05"/>
<polygon fill="midnightblue" stroke="midnightblue" points="349.83,-184.58 339.38,-186.35 348.65,-191.48 349.83,-184.58"/>
</g>
<!-- Node23&#45;&gt;Node13 -->
<g id="edge40" class="edge">
<title>Node23&#45;&gt;Node13</title>
<path fill="none" stroke="midnightblue" d="M897.66,-232.27C931.12,-225.76 967.74,-212.94 993,-188 1020.85,-160.5 1027.36,-112.49 1028.76,-85.96"/>
<polygon fill="midnightblue" stroke="midnightblue" points="1032.26,-85.84 1029.09,-75.73 1025.26,-85.62 1032.26,-85.84"/>
</g>
<!-- Node23&#45;&gt;Node15 -->
<g id="edge38" class="edge">
<title>Node23&#45;&gt;Node15</title>
<path fill="none" stroke="midnightblue" d="M844.6,-229.96C867.81,-222.08 899.8,-208.46 922,-188 971.78,-142.12 946.56,-100.01 998,-56 1017.37,-39.42 1043.52,-28.59 1066.18,-21.72"/>
<polygon fill="midnightblue" stroke="midnightblue" points="1067.33,-25.04 1075.98,-18.93 1065.4,-18.31 1067.33,-25.04"/>
</g>
<!-- Node24 -->
<g id="node24" class="node">
<title>Node24</title>
<g id="a_node24"><a xlink:title=" ">
<polygon fill="white" stroke="#bfbfbf" points="551.5,-112.5 551.5,-131.5 622.5,-131.5 622.5,-112.5 551.5,-112.5"/>
<text text-anchor="middle" x="587" y="-119.5" font-family="Helvetica,sans-Serif" font-size="10.00">glad/glad.h</text>
</a>
</g>
</g>
<!-- Node23&#45;&gt;Node24 -->
<g id="edge37" class="edge">
<title>Node23&#45;&gt;Node24</title>
<path fill="none" stroke="midnightblue" d="M750.87,-229.98C697.72,-221.67 627.66,-207.45 607,-188 594.38,-176.12 589.66,-156.5 587.93,-141.92"/>
<polygon fill="midnightblue" stroke="midnightblue" points="591.38,-141.23 587.08,-131.55 584.4,-141.8 591.38,-141.23"/>
</g>
<!-- Node25 -->
<g id="node25" class="node">
<title>Node25</title>
<g id="a_node25"><a xlink:title=" ">
<polygon fill="white" stroke="#bfbfbf" points="1045.5,-168.5 1045.5,-187.5 1138.5,-187.5 1138.5,-168.5 1045.5,-168.5"/>
<text text-anchor="middle" x="1092" y="-175.5" font-family="Helvetica,sans-Serif" font-size="10.00">unordered_map</text>
</a>
</g>
</g>
<!-- Node23&#45;&gt;Node25 -->
<g id="edge41" class="edge">
<title>Node23&#45;&gt;Node25</title>
<path fill="none" stroke="midnightblue" d="M854.69,-229.98C904.16,-219.35 988.72,-201.18 1042.41,-189.65"/>
<polygon fill="midnightblue" stroke="midnightblue" points="1043.34,-193.03 1052.39,-187.51 1041.87,-186.19 1043.34,-193.03"/>
</g>
<!-- Node26 -->
<g id="node26" class="node">
<title>Node26</title>
<g id="a_node26"><a xlink:href="_shader_8hpp.html" target="_top" xlink:title=" ">
<polygon fill="white" stroke="black" points="615.5,-168.5 615.5,-187.5 758.5,-187.5 758.5,-168.5 615.5,-168.5"/>
<text text-anchor="middle" x="687" y="-175.5" font-family="Helvetica,sans-Serif" font-size="10.00">AssetManager/Shader.hpp</text>
</a>
</g>
</g>
<!-- Node23&#45;&gt;Node26 -->
<g id="edge42" class="edge">
<title>Node23&#45;&gt;Node26</title>
<path fill="none" stroke="midnightblue" d="M796.66,-229.98C775.18,-219.99 739.38,-203.35 714.55,-191.81"/>
<polygon fill="midnightblue" stroke="midnightblue" points="715.85,-188.55 705.31,-187.51 712.9,-194.9 715.85,-188.55"/>
</g>
<!-- Node26&#45;&gt;Node24 -->
<g id="edge43" class="edge">
<title>Node26&#45;&gt;Node24</title>
<path fill="none" stroke="midnightblue" d="M670.93,-168.32C655.04,-159.74 630.49,-146.49 612.04,-136.52"/>
<polygon fill="midnightblue" stroke="midnightblue" points="613.49,-133.33 603.03,-131.65 610.16,-139.49 613.49,-133.33"/>
</g>
<!-- Node27 -->
<g id="node27" class="node">
<title>Node27</title>
<g id="a_node27"><a xlink:href="_asset_8hpp.html" target="_top" xlink:title=" ">
<polygon fill="white" stroke="black" points="491.5,-56.5 491.5,-75.5 628.5,-75.5 628.5,-56.5 491.5,-56.5"/>
<text text-anchor="middle" x="560" y="-63.5" font-family="Helvetica,sans-Serif" font-size="10.00">AssetManager/Asset.hpp</text>
</a>
</g>
</g>
<!-- Node26&#45;&gt;Node27 -->
<g id="edge44" class="edge">
<title>Node26&#45;&gt;Node27</title>
<path fill="none" stroke="midnightblue" d="M680.97,-168.26C671.56,-155.03 652.34,-129.61 632,-112 617.83,-99.73 599.97,-88.55 585.59,-80.4"/>
<polygon fill="midnightblue" stroke="midnightblue" points="587.16,-77.27 576.71,-75.5 583.78,-83.4 587.16,-77.27"/>
</g>
<!-- Node28 -->
<g id="node28" class="node">
<title>Node28</title>
<g id="a_node28"><a xlink:title=" ">
<polygon fill="white" stroke="#bfbfbf" points="478,-0.5 478,-19.5 546,-19.5 546,-0.5 478,-0.5"/>
<text text-anchor="middle" x="512" y="-7.5" font-family="Helvetica,sans-Serif" font-size="10.00">filesystem</text>
</a>
</g>
</g>
<!-- Node27&#45;&gt;Node28 -->
<g id="edge45" class="edge">
<title>Node27&#45;&gt;Node28</title>
<path fill="none" stroke="midnightblue" d="M552.07,-56.08C545.15,-48.3 534.93,-36.8 526.55,-27.37"/>
<polygon fill="midnightblue" stroke="midnightblue" points="529.04,-24.9 519.78,-19.75 523.81,-29.55 529.04,-24.9"/>
</g>
<!-- Node29&#45;&gt;Node2 -->
<g id="edge47" class="edge">
<title>Node29&#45;&gt;Node2</title>
<path fill="none" stroke="midnightblue" d="M406.9,-224.4C385.88,-214.55 358.03,-201.5 337.58,-191.92"/>
<polygon fill="midnightblue" stroke="midnightblue" points="339.02,-188.73 328.48,-187.66 336.05,-195.07 339.02,-188.73"/>
</g>
<!-- Node29&#45;&gt;Node24 -->
<g id="edge48" class="edge">
<title>Node29&#45;&gt;Node24</title>
<path fill="none" stroke="midnightblue" d="M455.39,-224.34C483.89,-202.39 538.47,-160.37 567.58,-137.95"/>
<polygon fill="midnightblue" stroke="midnightblue" points="569.95,-140.54 575.74,-131.67 565.68,-135 569.95,-140.54"/>
</g>
<!-- Node30 -->
<g id="node30" class="node">
<title>Node30</title>
<g id="a_node30"><a xlink:href="_texture_8hpp.html" target="_top" xlink:title=" ">
<polygon fill="white" stroke="black" points="357,-168.5 357,-187.5 483,-187.5 483,-168.5 357,-168.5"/>
<text text-anchor="middle" x="420" y="-175.5" font-family="Helvetica,sans-Serif" font-size="10.00">Rendering/Texture.hpp</text>
</a>
</g>
</g>
<!-- Node29&#45;&gt;Node30 -->
<g id="edge49" class="edge">
<title>Node29&#45;&gt;Node30</title>
<path fill="none" stroke="midnightblue" d="M432.97,-224.4C430.65,-216.29 427.72,-206.01 425.22,-197.28"/>
<polygon fill="midnightblue" stroke="midnightblue" points="428.59,-196.31 422.47,-187.66 421.86,-198.23 428.59,-196.31"/>
</g>
<!-- Node30&#45;&gt;Node24 -->
<g id="edge50" class="edge">
<title>Node30&#45;&gt;Node24</title>
<path fill="none" stroke="midnightblue" d="M446.46,-168.44C474.68,-159.32 519.54,-144.81 550.97,-134.65"/>
<polygon fill="midnightblue" stroke="midnightblue" points="552.22,-137.92 560.66,-131.52 550.07,-131.26 552.22,-137.92"/>
</g>
<!-- Node31 -->
<g id="node31" class="node">
<title>Node31</title>
<g id="a_node31"><a xlink:href="_image_8hpp.html" target="_top" xlink:title=" ">
<polygon fill="white" stroke="black" points="392.5,-112.5 392.5,-131.5 533.5,-131.5 533.5,-112.5 392.5,-112.5"/>
<text text-anchor="middle" x="463" y="-119.5" font-family="Helvetica,sans-Serif" font-size="10.00">AssetManager/Image.hpp</text>
</a>
</g>
</g>
<!-- Node30&#45;&gt;Node31 -->
<g id="edge51" class="edge">
<title>Node30&#45;&gt;Node31</title>
<path fill="none" stroke="midnightblue" d="M427.1,-168.08C433.24,-160.38 442.27,-149.03 449.74,-139.65"/>
<polygon fill="midnightblue" stroke="midnightblue" points="452.54,-141.75 456.03,-131.75 447.06,-137.39 452.54,-141.75"/>
</g>
<!-- Node31&#45;&gt;Node27 -->
<g id="edge53" class="edge">
<title>Node31&#45;&gt;Node27</title>
<path fill="none" stroke="midnightblue" d="M478.58,-112.32C494,-103.74 517.81,-90.49 535.71,-80.52"/>
<polygon fill="midnightblue" stroke="midnightblue" points="537.42,-83.58 544.45,-75.65 534.01,-77.46 537.42,-83.58"/>
</g>
<!-- Node31&#45;&gt;Node28 -->
<g id="edge52" class="edge">
<title>Node31&#45;&gt;Node28</title>
<path fill="none" stroke="midnightblue" d="M464.87,-112.31C467.79,-99.58 474.03,-75.27 483,-56 487.56,-46.2 493.96,-36.03 499.58,-27.83"/>
<polygon fill="midnightblue" stroke="midnightblue" points="502.53,-29.73 505.47,-19.55 496.82,-25.67 502.53,-29.73"/>
</g>
<!-- Node32&#45;&gt;Node2 -->
<g id="edge55" class="edge">
<title>Node32&#45;&gt;Node2</title>
<path fill="none" stroke="midnightblue" d="M525.82,-224.46C478.13,-215.15 414.3,-202.39 349.08,-188.18"/>
<polygon fill="midnightblue" stroke="midnightblue" points="349.54,-184.7 339.02,-185.98 348.04,-191.54 349.54,-184.7"/>
</g>
<!-- Node32&#45;&gt;Node24 -->
<g id="edge56" class="edge">
<title>Node32&#45;&gt;Node24</title>
<path fill="none" stroke="midnightblue" d="M589.3,-224.21C583.3,-214.47 576.16,-201.03 573,-188 569.18,-172.24 573.77,-154.21 578.68,-141.14"/>
<polygon fill="midnightblue" stroke="midnightblue" points="581.93,-142.44 582.55,-131.86 575.47,-139.75 581.93,-142.44"/>
</g>
<!-- Node32&#45;&gt;Node30 -->
<g id="edge57" class="edge">
<title>Node32&#45;&gt;Node30</title>
<path fill="none" stroke="midnightblue" d="M556.58,-224.4C525.78,-214.16 484.59,-200.47 455.52,-190.81"/>
<polygon fill="midnightblue" stroke="midnightblue" points="456.38,-187.4 445.78,-187.57 454.17,-194.05 456.38,-187.4"/>
</g>
<!-- Node33&#45;&gt;Node13 -->
<g id="edge60" class="edge">
<title>Node33&#45;&gt;Node13</title>
<path fill="none" stroke="midnightblue" d="M859.44,-168.37C891.15,-149.41 967.11,-104 1005.68,-80.94"/>
<polygon fill="midnightblue" stroke="midnightblue" points="1007.84,-83.73 1014.63,-75.59 1004.25,-77.72 1007.84,-83.73"/>
</g>
<!-- Node33&#45;&gt;Node24 -->
<g id="edge59" class="edge">
<title>Node33&#45;&gt;Node24</title>
<path fill="none" stroke="midnightblue" d="M804.12,-168.44C757.43,-158.67 681.23,-142.72 632.63,-132.55"/>
<polygon fill="midnightblue" stroke="midnightblue" points="633.21,-129.1 622.7,-130.47 631.78,-135.95 633.21,-129.1"/>
</g>
<!-- Node33&#45;&gt;Node31 -->
<g id="edge62" class="edge">
<title>Node33&#45;&gt;Node31</title>
<path fill="none" stroke="midnightblue" d="M784.47,-168.44C716.3,-158.81 605.64,-143.16 533.59,-132.98"/>
<polygon fill="midnightblue" stroke="midnightblue" points="533.64,-129.45 523.25,-131.52 532.66,-136.38 533.64,-129.45"/>
</g>
<!-- Node34 -->
<g id="node34" class="node">
<title>Node34</title>
<g id="a_node34"><a xlink:title=" ">
<polygon fill="white" stroke="#bfbfbf" points="1113.5,-112.5 1113.5,-131.5 1160.5,-131.5 1160.5,-112.5 1113.5,-112.5"/>
<text text-anchor="middle" x="1137" y="-119.5" font-family="Helvetica,sans-Serif" font-size="10.00">vector</text>
</a>
</g>
</g>
<!-- Node33&#45;&gt;Node34 -->
<g id="edge61" class="edge">
<title>Node33&#45;&gt;Node34</title>
<path fill="none" stroke="midnightblue" d="M891.27,-168.44C950.24,-157.54 1050.81,-138.94 1103.12,-129.26"/>
<polygon fill="midnightblue" stroke="midnightblue" points="1104.02,-132.66 1113.22,-127.4 1102.75,-125.77 1104.02,-132.66"/>
</g>
<!-- Node35&#45;&gt;Node3 -->
<g id="edge65" class="edge">
<title>Node35&#45;&gt;Node3</title>
<path fill="none" stroke="midnightblue" d="M728.81,-292.15C725.84,-291.75 722.9,-291.37 720,-291 560.91,-270.9 520.51,-271.44 361,-255 335.5,-252.37 307.33,-249.4 283.21,-246.84"/>
<polygon fill="midnightblue" stroke="midnightblue" points="283.45,-243.34 273.14,-245.77 282.71,-250.31 283.45,-243.34"/>
</g>
<!-- Node35&#45;&gt;Node23 -->
<g id="edge66" class="edge">
<title>Node35&#45;&gt;Node23</title>
<path fill="none" stroke="midnightblue" d="M815,-291.4C815,-282.06 815,-269.71 815,-259.52"/>
<polygon fill="midnightblue" stroke="midnightblue" points="818.5,-259.19 815,-249.19 811.5,-259.19 818.5,-259.19"/>
</g>
<!-- Node35&#45;&gt;Node34 -->
<g id="edge64" class="edge">
<title>Node35&#45;&gt;Node34</title>
<path fill="none" stroke="midnightblue" d="M901.32,-301.58C980.11,-292.88 1092.49,-266.45 1148,-188 1157.68,-174.32 1152.69,-155.02 1146.64,-141"/>
<polygon fill="midnightblue" stroke="midnightblue" points="1149.74,-139.38 1142.24,-131.89 1143.43,-142.42 1149.74,-139.38"/>
</g>
<!-- Node36&#45;&gt;Node2 -->
<g id="edge68" class="edge">
<title>Node36&#45;&gt;Node2</title>
<path fill="none" stroke="midnightblue" d="M373.05,-296.85C359.23,-288.07 339.21,-273.2 328,-255 317.25,-237.53 312.92,-214.17 311.17,-197.98"/>
<polygon fill="midnightblue" stroke="midnightblue" points="314.63,-197.32 310.31,-187.64 307.65,-197.9 314.63,-197.32"/>
</g>
<!-- Node36&#45;&gt;Node3 -->
<g id="edge69" class="edge">
<title>Node36&#45;&gt;Node3</title>
<path fill="none" stroke="midnightblue" d="M366.22,-296.87C337.72,-285.57 287.57,-265.7 255.08,-252.82"/>
<polygon fill="midnightblue" stroke="midnightblue" points="256.19,-249.49 245.61,-249.06 253.61,-256 256.19,-249.49"/>
</g>
</g>
</svg>
