<?xml version="1.0" encoding="UTF-8" standalone="no"?>
<!DOCTYPE svg PUBLIC "-//W3C//DTD SVG 1.1//EN"
 "http://www.w3.org/Graphics/SVG/1.1/DTD/svg11.dtd">
<!-- Generated by graphviz version 2.43.0 (0)
 -->
<!-- Title: src/Rendering/FrameBuffers/SceneFrameBuffer.cpp Pages: 1 -->
<svg width="451pt" height="269pt"
 viewBox="0.00 0.00 450.50 269.00" xmlns="http://www.w3.org/2000/svg" xmlns:xlink="http://www.w3.org/1999/xlink">
<g id="graph0" class="graph" transform="scale(1 1) rotate(0) translate(4 265)">
<title>src/Rendering/FrameBuffers/SceneFrameBuffer.cpp</title>
<!-- Node1 -->
<g id="Node000001" class="node">
<title>Node1</title>
<g id="a_Node000001"><a xlink:title=" ">
<polygon fill="#999999" stroke="#666666" points="242,-261 90,-261 90,-231 242,-231 242,-261"/>
<text text-anchor="start" x="98" y="-249" font-family="Helvetica,sans-Serif" font-size="10.00">src/Rendering/FrameBuffers</text>
<text text-anchor="middle" x="166" y="-238" font-family="Helvetica,sans-Serif" font-size="10.00">/SceneFrameBuffer.cpp</text>
</a>
</g>
</g>
<!-- Node2 -->
<g id="Node000002" class="node">
<title>Node2</title>
<g id="a_Node000002"><a xlink:href="_logger_8hpp.html" target="_top" xlink:title=" ">
<polygon fill="white" stroke="#666666" points="148.5,-189.5 31.5,-189.5 31.5,-170.5 148.5,-170.5 148.5,-189.5"/>
<text text-anchor="middle" x="90" y="-177.5" font-family="Helvetica,sans-Serif" font-size="10.00">Common/Logger.hpp</text>
</a>
</g>
</g>
<!-- Node1&#45;&gt;Node2 -->
<g id="edge1_Node000001_Node000002" class="edge">
<title>Node1&#45;&gt;Node2</title>
<g id="a_edge1_Node000001_Node000002"><a xlink:title=" ">
<path fill="none" stroke="#63b8ff" d="M149.13,-230.8C137.05,-220.62 120.79,-206.93 108.38,-196.48"/>
<polygon fill="#63b8ff" stroke="#63b8ff" points="110.41,-193.61 100.5,-189.84 105.9,-198.96 110.41,-193.61"/>
</a>
</g>
</g>
<!-- Node5 -->
<g id="Node000005" class="node">
<title>Node5</title>
<g id="a_Node000005"><a xlink:href="_scene_frame_buffer_8hpp.html" target="_top" xlink:title=" ">
<polygon fill="white" stroke="#666666" points="310,-195 176,-195 176,-165 310,-165 310,-195"/>
<text text-anchor="start" x="184" y="-183" font-family="Helvetica,sans-Serif" font-size="10.00">Rendering/FrameBuffers</text>
<text text-anchor="middle" x="243" y="-172" font-family="Helvetica,sans-Serif" font-size="10.00">/SceneFrameBuffer.hpp</text>
</a>
</g>
</g>
<!-- Node1&#45;&gt;Node5 -->
<g id="edge4_Node000001_Node000005" class="edge">
<title>Node1&#45;&gt;Node5</title>
<g id="a_edge4_Node000001_Node000005"><a xlink:title=" ">
<path fill="none" stroke="#63b8ff" d="M183.09,-230.8C193.36,-222.26 206.6,-211.25 218.03,-201.75"/>
<polygon fill="#63b8ff" stroke="#63b8ff" points="220.51,-204.25 225.96,-195.16 216.03,-198.86 220.51,-204.25"/>
</a>
</g>
</g>
<!-- Node3 -->
<g id="Node000003" class="node">
<title>Node3</title>
<g id="a_Node000003"><a xlink:title=" ">
<polygon fill="#e0e0e0" stroke="#999999" points="48,-129 0,-129 0,-110 48,-110 48,-129"/>
<text text-anchor="middle" x="24" y="-117" font-family="Helvetica,sans-Serif" font-size="10.00">mutex</text>
</a>
</g>
</g>
<!-- Node2&#45;&gt;Node3 -->
<g id="edge2_Node000002_Node000003" class="edge">
<title>Node2&#45;&gt;Node3</title>
<g id="a_edge2_Node000002_Node000003"><a xlink:title=" ">
<path fill="none" stroke="#63b8ff" d="M80.26,-170.37C70.03,-161.3 53.71,-146.84 41.28,-135.82"/>
<polygon fill="#63b8ff" stroke="#63b8ff" points="43.58,-133.18 33.78,-129.17 38.94,-138.42 43.58,-133.18"/>
</a>
</g>
</g>
<!-- Node4 -->
<g id="Node000004" class="node">
<title>Node4</title>
<g id="a_Node000004"><a xlink:title=" ">
<polygon fill="#e0e0e0" stroke="#999999" points="113.5,-129 66.5,-129 66.5,-110 113.5,-110 113.5,-129"/>
<text text-anchor="middle" x="90" y="-117" font-family="Helvetica,sans-Serif" font-size="10.00">queue</text>
</a>
</g>
</g>
<!-- Node2&#45;&gt;Node4 -->
<g id="edge3_Node000002_Node000004" class="edge">
<title>Node2&#45;&gt;Node4</title>
<g id="a_edge3_Node000002_Node000004"><a xlink:title=" ">
<path fill="none" stroke="#63b8ff" d="M90,-170.37C90,-162.25 90,-149.81 90,-139.39"/>
<polygon fill="#63b8ff" stroke="#63b8ff" points="93.5,-139.17 90,-129.17 86.5,-139.17 93.5,-139.17"/>
</a>
</g>
</g>
<!-- Node6 -->
<g id="Node000006" class="node">
<title>Node6</title>
<g id="a_Node000006"><a xlink:title=" ">
<polygon fill="#e0e0e0" stroke="#999999" points="392,-129 334,-129 334,-110 392,-110 392,-129"/>
<text text-anchor="middle" x="363" y="-117" font-family="Helvetica,sans-Serif" font-size="10.00">memory</text>
</a>
</g>
</g>
<!-- Node5&#45;&gt;Node6 -->
<g id="edge5_Node000005_Node000006" class="edge">
<title>Node5&#45;&gt;Node6</title>
<g id="a_edge5_Node000005_Node000006"><a xlink:title=" ">
<path fill="none" stroke="#63b8ff" d="M271.74,-164.99C291.32,-155.45 317.05,-142.9 336.2,-133.57"/>
<polygon fill="#63b8ff" stroke="#63b8ff" points="337.82,-136.67 345.28,-129.14 334.76,-130.38 337.82,-136.67"/>
</a>
</g>
</g>
<!-- Node7 -->
<g id="Node000007" class="node">
<title>Node7</title>
<g id="a_Node000007"><a xlink:title=" ">
<polygon fill="#e0e0e0" stroke="#999999" points="442.5,-74 371.5,-74 371.5,-55 442.5,-55 442.5,-74"/>
<text text-anchor="middle" x="407" y="-62" font-family="Helvetica,sans-Serif" font-size="10.00">glad/glad.h</text>
</a>
</g>
</g>
<!-- Node5&#45;&gt;Node7 -->
<g id="edge6_Node000005_Node000007" class="edge">
<title>Node5&#45;&gt;Node7</title>
<g id="a_edge6_Node000005_Node000007"><a xlink:title=" ">
<path fill="none" stroke="#63b8ff" d="M310.23,-174.55C342.64,-168.74 379.13,-156.09 401,-129 410.89,-116.75 411.65,-98.52 410.36,-84.73"/>
<polygon fill="#63b8ff" stroke="#63b8ff" points="413.78,-83.86 408.96,-74.42 406.84,-84.8 413.78,-83.86"/>
</a>
</g>
</g>
<!-- Node8 -->
<g id="Node000008" class="node">
<title>Node8</title>
<g id="a_Node000008"><a xlink:title=" ">
<polygon fill="#e0e0e0" stroke="#999999" points="181,-74 103,-74 103,-55 181,-55 181,-74"/>
<text text-anchor="middle" x="142" y="-62" font-family="Helvetica,sans-Serif" font-size="10.00">glm/glm.hpp</text>
</a>
</g>
</g>
<!-- Node5&#45;&gt;Node8 -->
<g id="edge7_Node000005_Node000008" class="edge">
<title>Node5&#45;&gt;Node8</title>
<g id="a_edge7_Node000005_Node000008"><a xlink:title=" ">
<path fill="none" stroke="#63b8ff" d="M208.09,-164.87C191.69,-156.62 173.12,-144.71 161,-129 151.01,-116.04 146.25,-97.89 144,-84.31"/>
<polygon fill="#63b8ff" stroke="#63b8ff" points="147.44,-83.64 142.64,-74.19 140.51,-84.57 147.44,-83.64"/>
</a>
</g>
</g>
<!-- Node9 -->
<g id="Node000009" class="node">
<title>Node9</title>
<g id="a_Node000009"><a xlink:href="_texture_8hpp.html" target="_top" xlink:title=" ">
<polygon fill="white" stroke="#666666" points="316,-129 170,-129 170,-110 316,-110 316,-129"/>
<text text-anchor="middle" x="243" y="-117" font-family="Helvetica,sans-Serif" font-size="10.00">AssetManager/Texture.hpp</text>
</a>
</g>
</g>
<!-- Node5&#45;&gt;Node9 -->
<g id="edge8_Node000005_Node000009" class="edge">
<title>Node5&#45;&gt;Node9</title>
<g id="a_edge8_Node000005_Node000009"><a xlink:title=" ">
<path fill="none" stroke="#63b8ff" d="M243,-164.84C243,-157.21 243,-147.7 243,-139.45"/>
<polygon fill="#63b8ff" stroke="#63b8ff" points="246.5,-139.27 243,-129.27 239.5,-139.27 246.5,-139.27"/>
</a>
</g>
</g>
<!-- Node9&#45;&gt;Node7 -->
<g id="edge9_Node000009_Node000007" class="edge">
<title>Node9&#45;&gt;Node7</title>
<g id="a_edge9_Node000009_Node000007"><a xlink:title=" ">
<path fill="none" stroke="#63b8ff" d="M269.35,-109.98C296.76,-101.13 339.89,-87.19 370.56,-77.28"/>
<polygon fill="#63b8ff" stroke="#63b8ff" points="372,-80.49 380.44,-74.08 369.85,-73.83 372,-80.49"/>
</a>
</g>
</g>
<!-- Node9&#45;&gt;Node8 -->
<g id="edge12_Node000009_Node000008" class="edge">
<title>Node9&#45;&gt;Node8</title>
<g id="a_edge12_Node000009_Node000008"><a xlink:title=" ">
<path fill="none" stroke="#63b8ff" d="M226.77,-109.98C210.82,-101.61 186.22,-88.7 167.62,-78.95"/>
<polygon fill="#63b8ff" stroke="#63b8ff" points="169,-75.72 158.52,-74.17 165.75,-81.92 169,-75.72"/>
</a>
</g>
</g>
<!-- Node10 -->
<g id="Node000010" class="node">
<title>Node10</title>
<g id="a_Node000010"><a xlink:href="_image_8hpp.html" target="_top" xlink:title=" ">
<polygon fill="white" stroke="#666666" points="340.5,-74 199.5,-74 199.5,-55 340.5,-55 340.5,-74"/>
<text text-anchor="middle" x="270" y="-62" font-family="Helvetica,sans-Serif" font-size="10.00">AssetManager/Image.hpp</text>
</a>
</g>
</g>
<!-- Node9&#45;&gt;Node10 -->
<g id="edge10_Node000009_Node000010" class="edge">
<title>Node9&#45;&gt;Node10</title>
<g id="a_edge10_Node000009_Node000010"><a xlink:title=" ">
<path fill="none" stroke="#63b8ff" d="M247.46,-109.75C251.12,-102.57 256.41,-92.18 260.95,-83.27"/>
<polygon fill="#63b8ff" stroke="#63b8ff" points="264.2,-84.59 265.62,-74.09 257.97,-81.41 264.2,-84.59"/>
</a>
</g>
</g>
<!-- Node11 -->
<g id="Node000011" class="node">
<title>Node11</title>
<g id="a_Node000011"><a xlink:title=" ">
<polygon fill="#e0e0e0" stroke="#999999" points="304,-19 236,-19 236,0 304,0 304,-19"/>
<text text-anchor="middle" x="270" y="-7" font-family="Helvetica,sans-Serif" font-size="10.00">filesystem</text>
</a>
</g>
</g>
<!-- Node10&#45;&gt;Node11 -->
<g id="edge11_Node000010_Node000011" class="edge">
<title>Node10&#45;&gt;Node11</title>
<g id="a_edge11_Node000010_Node000011"><a xlink:title=" ">
<path fill="none" stroke="#63b8ff" d="M270,-54.75C270,-47.8 270,-37.85 270,-29.13"/>
<polygon fill="#63b8ff" stroke="#63b8ff" points="273.5,-29.09 270,-19.09 266.5,-29.09 273.5,-29.09"/>
</a>
</g>
</g>
</g>
</svg>
