<?xml version="1.0" encoding="UTF-8" standalone="no"?>
<!DOCTYPE svg PUBLIC "-//W3C//DTD SVG 1.1//EN"
 "http://www.w3.org/Graphics/SVG/1.1/DTD/svg11.dtd">
<!-- Generated by graphviz version 2.43.0 (0)
 -->
<!-- Title: src/ui/widgets/SceneWidget.hpp Pages: 1 -->
<svg width="1332pt" height="431pt"
 viewBox="0.00 0.00 1332.35 431.00" xmlns="http://www.w3.org/2000/svg" xmlns:xlink="http://www.w3.org/1999/xlink">
<g id="graph0" class="graph" transform="scale(1 1) rotate(0) translate(4 427)">
<title>src/ui/widgets/SceneWidget.hpp</title>
<polygon fill="white" stroke="transparent" points="-4,4 -4,-427 1328.35,-427 1328.35,4 -4,4"/>
<!-- Node1 -->
<g id="node1" class="node">
<title>Node1</title>
<g id="a_node1"><a xlink:title="Contains the declaration of the SceneWidget class, a user interface widget for rendering scenes.">
<polygon fill="#bfbfbf" stroke="black" points="937.85,-403.5 937.85,-422.5 1109.85,-422.5 1109.85,-403.5 937.85,-403.5"/>
<text text-anchor="middle" x="1023.85" y="-410.5" font-family="Helvetica,sans-Serif" font-size="10.00">src/ui/widgets/SceneWidget.hpp</text>
</a>
</g>
</g>
<!-- Node2 -->
<g id="node2" class="node">
<title>Node2</title>
<g id="a_node2"><a xlink:title=" ">
<polygon fill="white" stroke="#bfbfbf" points="473.85,-168.5 473.85,-187.5 531.85,-187.5 531.85,-168.5 473.85,-168.5"/>
<text text-anchor="middle" x="502.85" y="-175.5" font-family="Helvetica,sans-Serif" font-size="10.00">memory</text>
</a>
</g>
</g>
<!-- Node1&#45;&gt;Node2 -->
<g id="edge1" class="edge">
<title>Node1&#45;&gt;Node2</title>
<path fill="none" stroke="midnightblue" d="M946.52,-403.49C831.1,-389.41 621.07,-358.07 562.85,-311 526.91,-281.94 511.66,-226.65 505.91,-197.72"/>
<polygon fill="midnightblue" stroke="midnightblue" points="509.32,-196.93 504.1,-187.71 502.44,-198.17 509.32,-196.93"/>
</g>
<!-- Node3 -->
<g id="node3" class="node">
<title>Node3</title>
<g id="a_node3"><a xlink:href="_types_8hpp.html" target="_top" xlink:title=" ">
<polygon fill="white" stroke="black" points="1113.35,-224.5 1113.35,-243.5 1226.35,-243.5 1226.35,-224.5 1113.35,-224.5"/>
<text text-anchor="middle" x="1169.85" y="-231.5" font-family="Helvetica,sans-Serif" font-size="10.00">Common/Types.hpp</text>
</a>
</g>
</g>
<!-- Node1&#45;&gt;Node3 -->
<g id="edge2" class="edge">
<title>Node1&#45;&gt;Node3</title>
<path fill="none" stroke="midnightblue" d="M1030.89,-403.46C1053.68,-375.85 1125.65,-288.58 1156.07,-251.71"/>
<polygon fill="midnightblue" stroke="midnightblue" points="1158.87,-253.81 1162.54,-243.87 1153.47,-249.36 1158.87,-253.81"/>
</g>
<!-- Node4 -->
<g id="node4" class="node">
<title>Node4</title>
<g id="a_node4"><a xlink:href="_shader_program_8hpp.html" target="_top" xlink:title=" ">
<polygon fill="white" stroke="black" points="930.35,-224.5 930.35,-243.5 1095.35,-243.5 1095.35,-224.5 930.35,-224.5"/>
<text text-anchor="middle" x="1012.85" y="-231.5" font-family="Helvetica,sans-Serif" font-size="10.00">Rendering/ShaderProgram.hpp</text>
</a>
</g>
</g>
<!-- Node1&#45;&gt;Node4 -->
<g id="edge3" class="edge">
<title>Node1&#45;&gt;Node4</title>
<path fill="none" stroke="midnightblue" d="M1023.32,-403.46C1021.64,-376.43 1016.41,-292.24 1014.04,-254.11"/>
<polygon fill="midnightblue" stroke="midnightblue" points="1017.52,-253.63 1013.4,-243.87 1010.53,-254.07 1017.52,-253.63"/>
</g>
<!-- Node12 -->
<g id="node12" class="node">
<title>Node12</title>
<g id="a_node12"><a xlink:href="_runtime_8hpp.html" target="_top" xlink:title=" ">
<polygon fill="white" stroke="black" points="380.35,-347.5 380.35,-366.5 503.35,-366.5 503.35,-347.5 380.35,-347.5"/>
<text text-anchor="middle" x="441.85" y="-354.5" font-family="Helvetica,sans-Serif" font-size="10.00">Runtime/Runtime.hpp</text>
</a>
</g>
</g>
<!-- Node1&#45;&gt;Node12 -->
<g id="edge13" class="edge">
<title>Node1&#45;&gt;Node12</title>
<path fill="none" stroke="midnightblue" d="M937.83,-405.12C837.09,-396.88 665.23,-382.28 517.85,-367 516.55,-366.87 515.24,-366.73 513.92,-366.59"/>
<polygon fill="midnightblue" stroke="midnightblue" points="513.96,-363.07 503.64,-365.47 513.2,-370.03 513.96,-363.07"/>
</g>
<!-- Node28 -->
<g id="node28" class="node">
<title>Node28</title>
<g id="a_node28"><a xlink:title=" ">
<polygon fill="white" stroke="#bfbfbf" points="1089.85,-347.5 1089.85,-366.5 1175.85,-366.5 1175.85,-347.5 1089.85,-347.5"/>
<text text-anchor="middle" x="1132.85" y="-354.5" font-family="Helvetica,sans-Serif" font-size="10.00">UI/Widget.hpp</text>
</a>
</g>
</g>
<!-- Node1&#45;&gt;Node28 -->
<g id="edge52" class="edge">
<title>Node1&#45;&gt;Node28</title>
<path fill="none" stroke="midnightblue" d="M1041.37,-403.32C1058.93,-394.62 1086.18,-381.12 1106.38,-371.11"/>
<polygon fill="midnightblue" stroke="midnightblue" points="1107.98,-374.23 1115.38,-366.65 1104.87,-367.96 1107.98,-374.23"/>
</g>
<!-- Node29 -->
<g id="node29" class="node">
<title>Node29</title>
<g id="a_node29"><a xlink:title=" ">
<polygon fill="white" stroke="#bfbfbf" points="1194.35,-347.5 1194.35,-366.5 1277.35,-366.5 1277.35,-347.5 1194.35,-347.5"/>
<text text-anchor="middle" x="1235.85" y="-354.5" font-family="Helvetica,sans-Serif" font-size="10.00">GLFW/glfw3.h</text>
</a>
</g>
</g>
<!-- Node1&#45;&gt;Node29 -->
<g id="edge53" class="edge">
<title>Node1&#45;&gt;Node29</title>
<path fill="none" stroke="midnightblue" d="M1057.44,-403.44C1094.04,-394.12 1152.69,-379.18 1192.68,-369"/>
<polygon fill="midnightblue" stroke="midnightblue" points="1193.59,-372.38 1202.42,-366.52 1191.86,-365.59 1193.59,-372.38"/>
</g>
<!-- Node4&#45;&gt;Node2 -->
<g id="edge6" class="edge">
<title>Node4&#45;&gt;Node2</title>
<path fill="none" stroke="midnightblue" d="M930.1,-224.89C926.98,-224.59 923.89,-224.29 920.85,-224 755.2,-208.05 709.95,-215.32 542.14,-188.01"/>
<polygon fill="midnightblue" stroke="midnightblue" points="542.67,-184.55 532.23,-186.38 541.53,-191.46 542.67,-184.55"/>
</g>
<!-- Node5 -->
<g id="node5" class="node">
<title>Node5</title>
<g id="a_node5"><a xlink:title=" ">
<polygon fill="white" stroke="#bfbfbf" points="853.35,-112.5 853.35,-131.5 924.35,-131.5 924.35,-112.5 853.35,-112.5"/>
<text text-anchor="middle" x="888.85" y="-119.5" font-family="Helvetica,sans-Serif" font-size="10.00">glad/glad.h</text>
</a>
</g>
</g>
<!-- Node4&#45;&gt;Node5 -->
<g id="edge4" class="edge">
<title>Node4&#45;&gt;Node5</title>
<path fill="none" stroke="midnightblue" d="M1003.12,-224.37C982.21,-205.81 932.72,-161.91 906.26,-138.44"/>
<polygon fill="midnightblue" stroke="midnightblue" points="908.34,-135.61 898.54,-131.59 903.7,-140.85 908.34,-135.61"/>
</g>
<!-- Node6 -->
<g id="node6" class="node">
<title>Node6</title>
<g id="a_node6"><a xlink:title=" ">
<polygon fill="white" stroke="#bfbfbf" points="973.85,-168.5 973.85,-187.5 1051.85,-187.5 1051.85,-168.5 973.85,-168.5"/>
<text text-anchor="middle" x="1012.85" y="-175.5" font-family="Helvetica,sans-Serif" font-size="10.00">glm/glm.hpp</text>
</a>
</g>
</g>
<!-- Node4&#45;&gt;Node6 -->
<g id="edge5" class="edge">
<title>Node4&#45;&gt;Node6</title>
<path fill="none" stroke="midnightblue" d="M1012.85,-224.08C1012.85,-217.01 1012.85,-206.86 1012.85,-197.99"/>
<polygon fill="midnightblue" stroke="midnightblue" points="1016.35,-197.75 1012.85,-187.75 1009.35,-197.75 1016.35,-197.75"/>
</g>
<!-- Node7 -->
<g id="node7" class="node">
<title>Node7</title>
<g id="a_node7"><a xlink:title=" ">
<polygon fill="white" stroke="#bfbfbf" points="873.85,-168.5 873.85,-187.5 917.85,-187.5 917.85,-168.5 873.85,-168.5"/>
<text text-anchor="middle" x="895.85" y="-175.5" font-family="Helvetica,sans-Serif" font-size="10.00">string</text>
</a>
</g>
</g>
<!-- Node4&#45;&gt;Node7 -->
<g id="edge7" class="edge">
<title>Node4&#45;&gt;Node7</title>
<path fill="none" stroke="midnightblue" d="M994.31,-224.44C975.23,-215.64 945.28,-201.81 923.42,-191.72"/>
<polygon fill="midnightblue" stroke="midnightblue" points="924.85,-188.53 914.31,-187.52 921.92,-194.88 924.85,-188.53"/>
</g>
<!-- Node8 -->
<g id="node8" class="node">
<title>Node8</title>
<g id="a_node8"><a xlink:title=" ">
<polygon fill="white" stroke="#bfbfbf" points="1070.35,-168.5 1070.35,-187.5 1163.35,-187.5 1163.35,-168.5 1070.35,-168.5"/>
<text text-anchor="middle" x="1116.85" y="-175.5" font-family="Helvetica,sans-Serif" font-size="10.00">unordered_map</text>
</a>
</g>
</g>
<!-- Node4&#45;&gt;Node8 -->
<g id="edge8" class="edge">
<title>Node4&#45;&gt;Node8</title>
<path fill="none" stroke="midnightblue" d="M1029.56,-224.32C1046.16,-215.7 1071.86,-202.36 1091.07,-192.39"/>
<polygon fill="midnightblue" stroke="midnightblue" points="1092.92,-195.37 1100.18,-187.65 1089.7,-189.16 1092.92,-195.37"/>
</g>
<!-- Node9 -->
<g id="node9" class="node">
<title>Node9</title>
<g id="a_node9"><a xlink:href="_shader_8hpp.html" target="_top" xlink:title=" ">
<polygon fill="white" stroke="black" points="1181.35,-168.5 1181.35,-187.5 1324.35,-187.5 1324.35,-168.5 1181.35,-168.5"/>
<text text-anchor="middle" x="1252.85" y="-175.5" font-family="Helvetica,sans-Serif" font-size="10.00">AssetManager/Shader.hpp</text>
</a>
</g>
</g>
<!-- Node4&#45;&gt;Node9 -->
<g id="edge9" class="edge">
<title>Node4&#45;&gt;Node9</title>
<path fill="none" stroke="midnightblue" d="M1050.88,-224.44C1092.66,-215.04 1159.83,-199.93 1205.12,-189.74"/>
<polygon fill="midnightblue" stroke="midnightblue" points="1206.01,-193.13 1215,-187.52 1204.48,-186.3 1206.01,-193.13"/>
</g>
<!-- Node9&#45;&gt;Node5 -->
<g id="edge10" class="edge">
<title>Node9&#45;&gt;Node5</title>
<path fill="none" stroke="midnightblue" d="M1195.18,-168.44C1122.96,-157.73 1000.73,-139.6 934.61,-129.79"/>
<polygon fill="midnightblue" stroke="midnightblue" points="934.9,-126.29 924.49,-128.29 933.87,-133.22 934.9,-126.29"/>
</g>
<!-- Node10 -->
<g id="node10" class="node">
<title>Node10</title>
<g id="a_node10"><a xlink:href="_asset_8hpp.html" target="_top" xlink:title=" ">
<polygon fill="white" stroke="black" points="793.35,-56.5 793.35,-75.5 930.35,-75.5 930.35,-56.5 793.35,-56.5"/>
<text text-anchor="middle" x="861.85" y="-63.5" font-family="Helvetica,sans-Serif" font-size="10.00">AssetManager/Asset.hpp</text>
</a>
</g>
</g>
<!-- Node9&#45;&gt;Node10 -->
<g id="edge11" class="edge">
<title>Node9&#45;&gt;Node10</title>
<path fill="none" stroke="midnightblue" d="M1222.5,-168.46C1152.69,-148.82 980.75,-100.45 902.19,-78.35"/>
<polygon fill="midnightblue" stroke="midnightblue" points="902.76,-74.87 892.19,-75.53 900.87,-81.61 902.76,-74.87"/>
</g>
<!-- Node11 -->
<g id="node11" class="node">
<title>Node11</title>
<g id="a_node11"><a xlink:title=" ">
<polygon fill="white" stroke="#bfbfbf" points="778.85,-0.5 778.85,-19.5 846.85,-19.5 846.85,-0.5 778.85,-0.5"/>
<text text-anchor="middle" x="812.85" y="-7.5" font-family="Helvetica,sans-Serif" font-size="10.00">filesystem</text>
</a>
</g>
</g>
<!-- Node10&#45;&gt;Node11 -->
<g id="edge12" class="edge">
<title>Node10&#45;&gt;Node11</title>
<path fill="none" stroke="midnightblue" d="M853.76,-56.08C846.7,-48.3 836.27,-36.8 827.7,-27.37"/>
<polygon fill="midnightblue" stroke="midnightblue" points="830.11,-24.8 820.79,-19.75 824.92,-29.51 830.11,-24.8"/>
</g>
<!-- Node12&#45;&gt;Node2 -->
<g id="edge14" class="edge">
<title>Node12&#45;&gt;Node2</title>
<path fill="none" stroke="midnightblue" d="M444.8,-347.46C454.15,-320.31 483.38,-235.51 496.44,-197.62"/>
<polygon fill="midnightblue" stroke="midnightblue" points="499.85,-198.46 499.8,-187.87 493.23,-196.18 499.85,-198.46"/>
</g>
<!-- Node12&#45;&gt;Node3 -->
<g id="edge22" class="edge">
<title>Node12&#45;&gt;Node3</title>
<path fill="none" stroke="midnightblue" d="M503.46,-354.95C598.2,-352.33 784.94,-343.15 939.85,-311 978.23,-303.04 1082.66,-266.38 1136.6,-247.03"/>
<polygon fill="midnightblue" stroke="midnightblue" points="1137.84,-250.31 1146.06,-243.63 1135.47,-243.72 1137.84,-250.31"/>
</g>
<!-- Node13 -->
<g id="node13" class="node">
<title>Node13</title>
<g id="a_node13"><a xlink:href="_registry_8hpp.html" target="_top" xlink:title=" ">
<polygon fill="white" stroke="black" points="265.85,-224.5 265.85,-243.5 363.85,-243.5 363.85,-224.5 265.85,-224.5"/>
<text text-anchor="middle" x="314.85" y="-231.5" font-family="Helvetica,sans-Serif" font-size="10.00">ECS/Registry.hpp</text>
</a>
</g>
</g>
<!-- Node12&#45;&gt;Node13 -->
<g id="edge15" class="edge">
<title>Node12&#45;&gt;Node13</title>
<path fill="none" stroke="midnightblue" d="M380.24,-354.11C266.17,-349.97 31.39,-338.2 6.85,-311 -2.37,-300.77 -2.16,-290.42 6.85,-280 38.31,-243.61 174.94,-236.07 255.27,-234.85"/>
<polygon fill="midnightblue" stroke="midnightblue" points="255.78,-238.35 265.73,-234.73 255.69,-231.35 255.78,-238.35"/>
</g>
<!-- Node19 -->
<g id="node19" class="node">
<title>Node19</title>
<g id="a_node19"><a xlink:href="_camera_movement_system_8hpp.html" target="_top" xlink:title=" ">
<polygon fill="white" stroke="black" points="15.85,-286 15.85,-305 225.85,-305 225.85,-286 15.85,-286"/>
<text text-anchor="middle" x="120.85" y="-293" font-family="Helvetica,sans-Serif" font-size="10.00">Systems/CameraMovementSystem.hpp</text>
</a>
</g>
</g>
<!-- Node12&#45;&gt;Node19 -->
<g id="edge23" class="edge">
<title>Node12&#45;&gt;Node19</title>
<path fill="none" stroke="midnightblue" d="M395.86,-347.48C338.06,-336.76 238.91,-318.38 176.78,-306.87"/>
<polygon fill="midnightblue" stroke="midnightblue" points="177.23,-303.39 166.76,-305.01 175.95,-310.27 177.23,-303.39"/>
</g>
<!-- Node20 -->
<g id="node20" class="node">
<title>Node20</title>
<g id="a_node20"><a xlink:href="_rendering_system_8hpp.html" target="_top" xlink:title=" ">
<polygon fill="white" stroke="black" points="762.35,-286 762.35,-305 931.35,-305 931.35,-286 762.35,-286"/>
<text text-anchor="middle" x="846.85" y="-293" font-family="Helvetica,sans-Serif" font-size="10.00">Systems/RenderingSystem.hpp</text>
</a>
</g>
</g>
<!-- Node12&#45;&gt;Node20 -->
<g id="edge26" class="edge">
<title>Node12&#45;&gt;Node20</title>
<path fill="none" stroke="midnightblue" d="M501.79,-347.5C564.43,-338.57 665.58,-324.04 752.85,-311 762.31,-309.59 772.29,-308.07 782.08,-306.57"/>
<polygon fill="midnightblue" stroke="midnightblue" points="782.84,-310 792.19,-305.02 781.77,-303.08 782.84,-310"/>
</g>
<!-- Node21 -->
<g id="node21" class="node">
<title>Node21</title>
<g id="a_node21"><a xlink:href="_frame_buffer_8hpp.html" target="_top" xlink:title=" ">
<polygon fill="white" stroke="black" points="571.35,-224.5 571.35,-243.5 720.35,-243.5 720.35,-224.5 571.35,-224.5"/>
<text text-anchor="middle" x="645.85" y="-231.5" font-family="Helvetica,sans-Serif" font-size="10.00">Rendering/FrameBuffer.hpp</text>
</a>
</g>
</g>
<!-- Node12&#45;&gt;Node21 -->
<g id="edge51" class="edge">
<title>Node12&#45;&gt;Node21</title>
<path fill="none" stroke="midnightblue" d="M455.11,-347.28C477.19,-332.85 523.01,-303.28 562.85,-280 581.78,-268.94 603.59,-257.15 620.1,-248.42"/>
<polygon fill="midnightblue" stroke="midnightblue" points="621.93,-251.41 629.14,-243.66 618.66,-245.22 621.93,-251.41"/>
</g>
<!-- Node26 -->
<g id="node26" class="node">
<title>Node26</title>
<g id="a_node26"><a xlink:href="_development_renderer_system_8hpp.html" target="_top" xlink:title=" ">
<polygon fill="white" stroke="black" points="571.85,-280.5 571.85,-310.5 743.85,-310.5 743.85,-280.5 571.85,-280.5"/>
<text text-anchor="start" x="579.85" y="-298.5" font-family="Helvetica,sans-Serif" font-size="10.00">Systems/DevelopmentRenderer</text>
<text text-anchor="middle" x="657.85" y="-287.5" font-family="Helvetica,sans-Serif" font-size="10.00">System.hpp</text>
</a>
</g>
</g>
<!-- Node12&#45;&gt;Node26 -->
<g id="edge44" class="edge">
<title>Node12&#45;&gt;Node26</title>
<path fill="none" stroke="midnightblue" d="M472.8,-347.48C505.13,-338.57 556.68,-324.37 597.17,-313.22"/>
<polygon fill="midnightblue" stroke="midnightblue" points="598.23,-316.55 606.95,-310.52 596.38,-309.8 598.23,-316.55"/>
</g>
<!-- Node27 -->
<g id="node27" class="node">
<title>Node27</title>
<g id="a_node27"><a xlink:href="_object_selection_system_8hpp.html" target="_top" xlink:title=" ">
<polygon fill="white" stroke="black" points="243.85,-286 243.85,-305 439.85,-305 439.85,-286 243.85,-286"/>
<text text-anchor="middle" x="341.85" y="-293" font-family="Helvetica,sans-Serif" font-size="10.00">Systems/ObjectSelectionSystem.hpp</text>
</a>
</g>
</g>
<!-- Node12&#45;&gt;Node27 -->
<g id="edge48" class="edge">
<title>Node12&#45;&gt;Node27</title>
<path fill="none" stroke="midnightblue" d="M427.53,-347.48C411.19,-337.75 384.25,-321.73 364.94,-310.24"/>
<polygon fill="midnightblue" stroke="midnightblue" points="366.54,-307.11 356.15,-305.01 362.96,-313.13 366.54,-307.11"/>
</g>
<!-- Node14 -->
<g id="node14" class="node">
<title>Node14</title>
<g id="a_node14"><a xlink:title=" ">
<polygon fill="white" stroke="#bfbfbf" points="200.85,-168.5 200.85,-187.5 286.85,-187.5 286.85,-168.5 200.85,-168.5"/>
<text text-anchor="middle" x="243.85" y="-175.5" font-family="Helvetica,sans-Serif" font-size="10.00">unordered_set</text>
</a>
</g>
</g>
<!-- Node13&#45;&gt;Node14 -->
<g id="edge16" class="edge">
<title>Node13&#45;&gt;Node14</title>
<path fill="none" stroke="midnightblue" d="M303.45,-224.32C292.74,-216.18 276.51,-203.84 263.69,-194.09"/>
<polygon fill="midnightblue" stroke="midnightblue" points="265.55,-191.1 255.47,-187.83 261.31,-196.67 265.55,-191.1"/>
</g>
<!-- Node15 -->
<g id="node15" class="node">
<title>Node15</title>
<g id="a_node15"><a xlink:href="_entity_provider_8hpp.html" target="_top" xlink:title="Manages a pool of unused entity identifiers and provides mechanisms for requesting and removing them.">
<polygon fill="white" stroke="black" points="291.85,-112.5 291.85,-131.5 419.85,-131.5 419.85,-112.5 291.85,-112.5"/>
<text text-anchor="middle" x="355.85" y="-119.5" font-family="Helvetica,sans-Serif" font-size="10.00">ECS/EntityProvider.hpp</text>
</a>
</g>
</g>
<!-- Node13&#45;&gt;Node15 -->
<g id="edge17" class="edge">
<title>Node13&#45;&gt;Node15</title>
<path fill="none" stroke="midnightblue" d="M316.86,-224.43C319.92,-211.85 326.21,-187.73 333.85,-168 337.43,-158.78 342.17,-148.86 346.33,-140.7"/>
<polygon fill="midnightblue" stroke="midnightblue" points="349.47,-142.25 351.01,-131.76 343.27,-139 349.47,-142.25"/>
</g>
<!-- Node18 -->
<g id="node18" class="node">
<title>Node18</title>
<g id="a_node18"><a xlink:href="_sparse_set_8hpp.html" target="_top" xlink:title=" ">
<polygon fill="white" stroke="black" points="342.85,-168.5 342.85,-187.5 450.85,-187.5 450.85,-168.5 342.85,-168.5"/>
<text text-anchor="middle" x="396.85" y="-175.5" font-family="Helvetica,sans-Serif" font-size="10.00">ECS/SparseSet.hpp</text>
</a>
</g>
</g>
<!-- Node13&#45;&gt;Node18 -->
<g id="edge20" class="edge">
<title>Node13&#45;&gt;Node18</title>
<path fill="none" stroke="midnightblue" d="M328.03,-224.32C340.7,-215.98 360.09,-203.21 375.06,-193.35"/>
<polygon fill="midnightblue" stroke="midnightblue" points="377.28,-196.08 383.71,-187.65 373.43,-190.23 377.28,-196.08"/>
</g>
<!-- Node16 -->
<g id="node16" class="node">
<title>Node16</title>
<g id="a_node16"><a xlink:title=" ">
<polygon fill="white" stroke="#bfbfbf" points="295.35,-56.5 295.35,-75.5 348.35,-75.5 348.35,-56.5 295.35,-56.5"/>
<text text-anchor="middle" x="321.85" y="-63.5" font-family="Helvetica,sans-Serif" font-size="10.00">stdlib.h</text>
</a>
</g>
</g>
<!-- Node15&#45;&gt;Node16 -->
<g id="edge18" class="edge">
<title>Node15&#45;&gt;Node16</title>
<path fill="none" stroke="midnightblue" d="M350.24,-112.08C345.49,-104.53 338.53,-93.49 332.7,-84.23"/>
<polygon fill="midnightblue" stroke="midnightblue" points="335.65,-82.35 327.36,-75.75 329.73,-86.08 335.65,-82.35"/>
</g>
<!-- Node17 -->
<g id="node17" class="node">
<title>Node17</title>
<g id="a_node17"><a xlink:title=" ">
<polygon fill="white" stroke="#bfbfbf" points="366.35,-56.5 366.35,-75.5 413.35,-75.5 413.35,-56.5 366.35,-56.5"/>
<text text-anchor="middle" x="389.85" y="-63.5" font-family="Helvetica,sans-Serif" font-size="10.00">queue</text>
</a>
</g>
</g>
<!-- Node15&#45;&gt;Node17 -->
<g id="edge19" class="edge">
<title>Node15&#45;&gt;Node17</title>
<path fill="none" stroke="midnightblue" d="M361.47,-112.08C366.22,-104.53 373.17,-93.49 379,-84.23"/>
<polygon fill="midnightblue" stroke="midnightblue" points="381.98,-86.08 384.34,-75.75 376.05,-82.35 381.98,-86.08"/>
</g>
<!-- Node18&#45;&gt;Node15 -->
<g id="edge21" class="edge">
<title>Node18&#45;&gt;Node15</title>
<path fill="none" stroke="midnightblue" d="M390.08,-168.08C384.29,-160.46 375.79,-149.26 368.72,-139.94"/>
<polygon fill="midnightblue" stroke="midnightblue" points="371.33,-137.6 362.5,-131.75 365.76,-141.83 371.33,-137.6"/>
</g>
<!-- Node19&#45;&gt;Node2 -->
<g id="edge24" class="edge">
<title>Node19&#45;&gt;Node2</title>
<path fill="none" stroke="midnightblue" d="M193.62,-285.99C244.85,-278.55 314.43,-265.49 372.85,-244 390.03,-237.68 392.59,-232.4 408.85,-224 430.76,-212.69 455.97,-200.67 474.77,-191.9"/>
<polygon fill="midnightblue" stroke="midnightblue" points="476.36,-195.02 483.96,-187.63 473.42,-188.67 476.36,-195.02"/>
</g>
<!-- Node19&#45;&gt;Node13 -->
<g id="edge25" class="edge">
<title>Node19&#45;&gt;Node13</title>
<path fill="none" stroke="midnightblue" d="M148.65,-285.98C182.5,-275.59 239.82,-258.01 277.51,-246.45"/>
<polygon fill="midnightblue" stroke="midnightblue" points="278.57,-249.79 287.11,-243.51 276.52,-243.1 278.57,-249.79"/>
</g>
<!-- Node20&#45;&gt;Node2 -->
<g id="edge27" class="edge">
<title>Node20&#45;&gt;Node2</title>
<path fill="none" stroke="midnightblue" d="M793.65,-285.98C714,-273.1 571.94,-249.57 561.85,-244 541.3,-232.65 524.12,-211.43 513.7,-196.32"/>
<polygon fill="midnightblue" stroke="midnightblue" points="516.54,-194.27 508.11,-187.85 510.69,-198.12 516.54,-194.27"/>
</g>
<!-- Node20&#45;&gt;Node3 -->
<g id="edge28" class="edge">
<title>Node20&#45;&gt;Node3</title>
<path fill="none" stroke="midnightblue" d="M893.13,-285.98C951.3,-275.26 1051.06,-256.88 1113.58,-245.37"/>
<polygon fill="midnightblue" stroke="midnightblue" points="1114.46,-248.76 1123.66,-243.51 1113.19,-241.88 1114.46,-248.76"/>
</g>
<!-- Node20&#45;&gt;Node4 -->
<g id="edge30" class="edge">
<title>Node20&#45;&gt;Node4</title>
<path fill="none" stroke="midnightblue" d="M870.64,-285.98C899.23,-275.72 947.4,-258.46 979.65,-246.9"/>
<polygon fill="midnightblue" stroke="midnightblue" points="980.88,-250.18 989.11,-243.51 978.52,-243.59 980.88,-250.18"/>
</g>
<!-- Node20&#45;&gt;Node13 -->
<g id="edge29" class="edge">
<title>Node20&#45;&gt;Node13</title>
<path fill="none" stroke="midnightblue" d="M794.71,-285.98C781.11,-283.88 766.45,-281.75 752.85,-280 617.66,-262.64 458.3,-247.63 374.03,-240.12"/>
<polygon fill="midnightblue" stroke="midnightblue" points="374.15,-236.62 363.88,-239.22 373.53,-243.59 374.15,-236.62"/>
</g>
<!-- Node20&#45;&gt;Node21 -->
<g id="edge31" class="edge">
<title>Node20&#45;&gt;Node21</title>
<path fill="none" stroke="midnightblue" d="M818.05,-285.98C782.98,-275.59 723.59,-258.01 684.55,-246.45"/>
<polygon fill="midnightblue" stroke="midnightblue" points="685.18,-242.99 674.6,-243.51 683.19,-249.7 685.18,-242.99"/>
</g>
<!-- Node24 -->
<g id="node24" class="node">
<title>Node24</title>
<g id="a_node24"><a xlink:href="_cube_map_8hpp.html" target="_top" xlink:title=" ">
<polygon fill="white" stroke="black" points="775.85,-224.5 775.85,-243.5 911.85,-243.5 911.85,-224.5 775.85,-224.5"/>
<text text-anchor="middle" x="843.85" y="-231.5" font-family="Helvetica,sans-Serif" font-size="10.00">Rendering/CubeMap.hpp</text>
</a>
</g>
</g>
<!-- Node20&#45;&gt;Node24 -->
<g id="edge39" class="edge">
<title>Node20&#45;&gt;Node24</title>
<path fill="none" stroke="midnightblue" d="M846.42,-285.98C846,-277.58 845.34,-264.48 844.79,-253.66"/>
<polygon fill="midnightblue" stroke="midnightblue" points="848.28,-253.32 844.28,-243.51 841.29,-253.67 848.28,-253.32"/>
</g>
<!-- Node21&#45;&gt;Node2 -->
<g id="edge32" class="edge">
<title>Node21&#45;&gt;Node2</title>
<path fill="none" stroke="midnightblue" d="M623.19,-224.44C599.45,-215.48 561.94,-201.31 535.11,-191.18"/>
<polygon fill="midnightblue" stroke="midnightblue" points="536,-187.77 525.41,-187.52 533.52,-194.32 536,-187.77"/>
</g>
<!-- Node21&#45;&gt;Node5 -->
<g id="edge33" class="edge">
<title>Node21&#45;&gt;Node5</title>
<path fill="none" stroke="midnightblue" d="M653.51,-224.47C666.45,-210.58 694.03,-183.11 722.85,-168 743.68,-157.08 801.72,-142.56 843.3,-133.01"/>
<polygon fill="midnightblue" stroke="midnightblue" points="844.24,-136.38 853.22,-130.75 842.69,-129.56 844.24,-136.38"/>
</g>
<!-- Node22 -->
<g id="node22" class="node">
<title>Node22</title>
<g id="a_node22"><a xlink:href="_texture_8hpp.html" target="_top" xlink:title=" ">
<polygon fill="white" stroke="black" points="549.85,-168.5 549.85,-187.5 675.85,-187.5 675.85,-168.5 549.85,-168.5"/>
<text text-anchor="middle" x="612.85" y="-175.5" font-family="Helvetica,sans-Serif" font-size="10.00">Rendering/Texture.hpp</text>
</a>
</g>
</g>
<!-- Node21&#45;&gt;Node22 -->
<g id="edge34" class="edge">
<title>Node21&#45;&gt;Node22</title>
<path fill="none" stroke="midnightblue" d="M640.4,-224.08C635.84,-216.61 629.18,-205.72 623.56,-196.52"/>
<polygon fill="midnightblue" stroke="midnightblue" points="626.4,-194.46 618.2,-187.75 620.43,-198.11 626.4,-194.46"/>
</g>
<!-- Node22&#45;&gt;Node5 -->
<g id="edge35" class="edge">
<title>Node22&#45;&gt;Node5</title>
<path fill="none" stroke="midnightblue" d="M657.15,-168.44C701.57,-159.84 772.21,-146.12 843.01,-132.16"/>
<polygon fill="midnightblue" stroke="midnightblue" points="843.86,-135.56 852.99,-130.19 842.51,-128.69 843.86,-135.56"/>
</g>
<!-- Node23 -->
<g id="node23" class="node">
<title>Node23</title>
<g id="a_node23"><a xlink:href="_image_8hpp.html" target="_top" xlink:title=" ">
<polygon fill="white" stroke="black" points="694.35,-112.5 694.35,-131.5 835.35,-131.5 835.35,-112.5 694.35,-112.5"/>
<text text-anchor="middle" x="764.85" y="-119.5" font-family="Helvetica,sans-Serif" font-size="10.00">AssetManager/Image.hpp</text>
</a>
</g>
</g>
<!-- Node22&#45;&gt;Node23 -->
<g id="edge36" class="edge">
<title>Node22&#45;&gt;Node23</title>
<path fill="none" stroke="midnightblue" d="M636.94,-168.44C662.4,-159.4 702.75,-145.06 731.31,-134.92"/>
<polygon fill="midnightblue" stroke="midnightblue" points="732.63,-138.16 740.88,-131.52 730.29,-131.57 732.63,-138.16"/>
</g>
<!-- Node23&#45;&gt;Node10 -->
<g id="edge38" class="edge">
<title>Node23&#45;&gt;Node10</title>
<path fill="none" stroke="midnightblue" d="M780.44,-112.32C795.85,-103.74 819.67,-90.49 837.56,-80.52"/>
<polygon fill="midnightblue" stroke="midnightblue" points="839.27,-83.58 846.31,-75.65 835.87,-77.46 839.27,-83.58"/>
</g>
<!-- Node23&#45;&gt;Node11 -->
<g id="edge37" class="edge">
<title>Node23&#45;&gt;Node11</title>
<path fill="none" stroke="midnightblue" d="M766.56,-112.3C769.24,-99.56 775.06,-75.25 783.85,-56 788.34,-46.17 794.73,-35.99 800.37,-27.8"/>
<polygon fill="midnightblue" stroke="midnightblue" points="803.32,-29.7 806.28,-19.53 797.62,-25.63 803.32,-29.7"/>
</g>
<!-- Node24&#45;&gt;Node5 -->
<g id="edge40" class="edge">
<title>Node24&#45;&gt;Node5</title>
<path fill="none" stroke="midnightblue" d="M846.1,-224.41C849.52,-211.8 856.52,-187.65 864.85,-168 868.79,-158.73 873.96,-148.81 878.5,-140.65"/>
<polygon fill="midnightblue" stroke="midnightblue" points="881.67,-142.16 883.59,-131.74 875.59,-138.68 881.67,-142.16"/>
</g>
<!-- Node24&#45;&gt;Node7 -->
<g id="edge41" class="edge">
<title>Node24&#45;&gt;Node7</title>
<path fill="none" stroke="midnightblue" d="M852.44,-224.08C860.01,-216.22 871.23,-204.57 880.37,-195.08"/>
<polygon fill="midnightblue" stroke="midnightblue" points="883.01,-197.38 887.43,-187.75 877.97,-192.53 883.01,-197.38"/>
</g>
<!-- Node24&#45;&gt;Node23 -->
<g id="edge43" class="edge">
<title>Node24&#45;&gt;Node23</title>
<path fill="none" stroke="midnightblue" d="M837.65,-224.37C824.62,-206.22 794.16,-163.8 777.05,-139.99"/>
<polygon fill="midnightblue" stroke="midnightblue" points="779.7,-137.67 771.02,-131.59 774.01,-141.76 779.7,-137.67"/>
</g>
<!-- Node25 -->
<g id="node25" class="node">
<title>Node25</title>
<g id="a_node25"><a xlink:title=" ">
<polygon fill="white" stroke="#bfbfbf" points="732.35,-168.5 732.35,-187.5 779.35,-187.5 779.35,-168.5 732.35,-168.5"/>
<text text-anchor="middle" x="755.85" y="-175.5" font-family="Helvetica,sans-Serif" font-size="10.00">vector</text>
</a>
</g>
</g>
<!-- Node24&#45;&gt;Node25 -->
<g id="edge42" class="edge">
<title>Node24&#45;&gt;Node25</title>
<path fill="none" stroke="midnightblue" d="M829.71,-224.32C815.99,-215.9 794.92,-202.97 778.79,-193.07"/>
<polygon fill="midnightblue" stroke="midnightblue" points="780.31,-189.9 769.96,-187.65 776.65,-195.87 780.31,-189.9"/>
</g>
<!-- Node26&#45;&gt;Node4 -->
<g id="edge47" class="edge">
<title>Node26&#45;&gt;Node4</title>
<path fill="none" stroke="midnightblue" d="M741.53,-280.47C806.12,-269.65 893.97,-254.93 951.98,-245.2"/>
<polygon fill="midnightblue" stroke="midnightblue" points="952.82,-248.61 962.1,-243.51 951.66,-241.71 952.82,-248.61"/>
</g>
<!-- Node26&#45;&gt;Node13 -->
<g id="edge46" class="edge">
<title>Node26&#45;&gt;Node13</title>
<path fill="none" stroke="midnightblue" d="M577,-280.47C514.73,-269.67 430.07,-254.99 374.01,-245.26"/>
<polygon fill="midnightblue" stroke="midnightblue" points="374.34,-241.77 363.89,-243.51 373.14,-248.66 374.34,-241.77"/>
</g>
<!-- Node26&#45;&gt;Node25 -->
<g id="edge45" class="edge">
<title>Node26&#45;&gt;Node25</title>
<path fill="none" stroke="midnightblue" d="M684.65,-280.4C699.31,-271.57 716.88,-259.02 728.85,-244 739.79,-230.28 746.96,-211.5 751.14,-197.65"/>
<polygon fill="midnightblue" stroke="midnightblue" points="754.57,-198.37 753.86,-187.79 747.82,-196.5 754.57,-198.37"/>
</g>
<!-- Node27&#45;&gt;Node2 -->
<g id="edge49" class="edge">
<title>Node27&#45;&gt;Node2</title>
<path fill="none" stroke="midnightblue" d="M353.95,-285.82C381.34,-266.17 448.34,-218.11 482.34,-193.72"/>
<polygon fill="midnightblue" stroke="midnightblue" points="484.53,-196.46 490.61,-187.78 480.45,-190.77 484.53,-196.46"/>
</g>
<!-- Node27&#45;&gt;Node13 -->
<g id="edge50" class="edge">
<title>Node27&#45;&gt;Node13</title>
<path fill="none" stroke="midnightblue" d="M337.98,-285.98C334.05,-277.32 327.85,-263.65 322.86,-252.65"/>
<polygon fill="midnightblue" stroke="midnightblue" points="326.03,-251.17 318.71,-243.51 319.66,-254.06 326.03,-251.17"/>
</g>
</g>
</svg>
