<?xml version="1.0" encoding="UTF-8" standalone="no"?>
<!DOCTYPE svg PUBLIC "-//W3C//DTD SVG 1.1//EN"
 "http://www.w3.org/Graphics/SVG/1.1/DTD/svg11.dtd">
<!-- Generated by graphviz version 2.43.0 (0)
 -->
<!-- Title: src/ui/widgets/SceneWidget.cpp Pages: 1 -->
<svg width="1982pt" height="478pt"
 viewBox="0.00 0.00 1981.52 478.00" xmlns="http://www.w3.org/2000/svg" xmlns:xlink="http://www.w3.org/1999/xlink">
<g id="graph0" class="graph" transform="scale(1 1) rotate(0) translate(4 474)">
<title>src/ui/widgets/SceneWidget.cpp</title>
<!-- Node1 -->
<g id="Node000001" class="node">
<title>Node1</title>
<g id="a_Node000001"><a xlink:title=" ">
<polygon fill="#999999" stroke="#666666" points="639.5,-470 468.5,-470 468.5,-451 639.5,-451 639.5,-470"/>
<text text-anchor="middle" x="554" y="-458" font-family="Helvetica,sans-Serif" font-size="10.00">src/ui/widgets/SceneWidget.cpp</text>
</a>
</g>
</g>
<!-- Node2 -->
<g id="Node000002" class="node">
<title>Node2</title>
<g id="a_Node000002"><a xlink:title=" ">
<polygon fill="#e0e0e0" stroke="#999999" points="96,-415 0,-415 0,-396 96,-396 96,-415"/>
<text text-anchor="middle" x="48" y="-403" font-family="Helvetica,sans-Serif" font-size="10.00">imgui_internal.h</text>
</a>
</g>
</g>
<!-- Node1&#45;&gt;Node2 -->
<g id="edge1_Node000001_Node000002" class="edge">
<title>Node1&#45;&gt;Node2</title>
<g id="a_edge1_Node000001_Node000002"><a xlink:title=" ">
<path fill="none" stroke="#63b8ff" d="M468.2,-452.26C380.03,-444.54 238.54,-431.34 106.48,-415.13"/>
<polygon fill="#63b8ff" stroke="#63b8ff" points="106.53,-411.61 96.18,-413.85 105.67,-418.56 106.53,-411.61"/>
</a>
</g>
</g>
<!-- Node3 -->
<g id="Node000003" class="node">
<title>Node3</title>
<g id="a_Node000003"><a xlink:title=" ">
<polygon fill="#e0e0e0" stroke="#999999" points="167.5,-415 114.5,-415 114.5,-396 167.5,-396 167.5,-415"/>
<text text-anchor="middle" x="141" y="-403" font-family="Helvetica,sans-Serif" font-size="10.00">imgui.h</text>
</a>
</g>
</g>
<!-- Node1&#45;&gt;Node3 -->
<g id="edge2_Node000001_Node000003" class="edge">
<title>Node1&#45;&gt;Node3</title>
<g id="a_edge2_Node000001_Node000003"><a xlink:title=" ">
<path fill="none" stroke="#63b8ff" d="M468.37,-452.4C393.87,-445.54 282.87,-433.67 177.83,-415.15"/>
<polygon fill="#63b8ff" stroke="#63b8ff" points="178.14,-411.65 167.68,-413.33 176.91,-418.54 178.14,-411.65"/>
</a>
</g>
</g>
<!-- Node4 -->
<g id="Node000004" class="node">
<title>Node4</title>
<g id="a_Node000004"><a xlink:title=" ">
<polygon fill="#e0e0e0" stroke="#999999" points="488.5,-354.5 417.5,-354.5 417.5,-335.5 488.5,-335.5 488.5,-354.5"/>
<text text-anchor="middle" x="453" y="-342.5" font-family="Helvetica,sans-Serif" font-size="10.00">glad/glad.h</text>
</a>
</g>
</g>
<!-- Node1&#45;&gt;Node4 -->
<g id="edge3_Node000001_Node000004" class="edge">
<title>Node1&#45;&gt;Node4</title>
<g id="a_edge3_Node000001_Node000004"><a xlink:title=" ">
<path fill="none" stroke="#63b8ff" d="M546.41,-450.97C529.67,-432.15 489.33,-386.82 467.54,-362.34"/>
<polygon fill="#63b8ff" stroke="#63b8ff" points="469.94,-359.77 460.68,-354.63 464.71,-364.43 469.94,-359.77"/>
</a>
</g>
</g>
<!-- Node5 -->
<g id="Node000005" class="node">
<title>Node5</title>
<g id="a_Node000005"><a xlink:title=" ">
<polygon fill="#e0e0e0" stroke="#999999" points="850,-239 790,-239 790,-220 850,-220 850,-239"/>
<text text-anchor="middle" x="820" y="-227" font-family="Helvetica,sans-Serif" font-size="10.00">iostream</text>
</a>
</g>
</g>
<!-- Node1&#45;&gt;Node5 -->
<g id="edge4_Node000001_Node000005" class="edge">
<title>Node1&#45;&gt;Node5</title>
<g id="a_edge4_Node000001_Node000005"><a xlink:title=" ">
<path fill="none" stroke="#63b8ff" d="M551.68,-450.73C544.52,-421.4 525.93,-325.77 573,-275 586.92,-259.99 713.53,-243.03 779.87,-235.08"/>
<polygon fill="#63b8ff" stroke="#63b8ff" points="780.45,-238.53 789.97,-233.88 779.62,-231.58 780.45,-238.53"/>
</a>
</g>
</g>
<!-- Node6 -->
<g id="Node000006" class="node">
<title>Node6</title>
<g id="a_Node000006"><a xlink:href="_image_8hpp.html" target="_top" xlink:title=" ">
<polygon fill="white" stroke="#666666" points="326.5,-415 185.5,-415 185.5,-396 326.5,-396 326.5,-415"/>
<text text-anchor="middle" x="256" y="-403" font-family="Helvetica,sans-Serif" font-size="10.00">AssetManager/Image.hpp</text>
</a>
</g>
</g>
<!-- Node1&#45;&gt;Node6 -->
<g id="edge5_Node000001_Node000006" class="edge">
<title>Node1&#45;&gt;Node6</title>
<g id="a_edge5_Node000001_Node000006"><a xlink:title=" ">
<path fill="none" stroke="#63b8ff" d="M506.12,-450.98C453.92,-441.7 370.38,-426.84 314.38,-416.88"/>
<polygon fill="#63b8ff" stroke="#63b8ff" points="314.71,-413.39 304.25,-415.08 313.49,-420.28 314.71,-413.39"/>
</a>
</g>
</g>
<!-- Node23 -->
<g id="Node000023" class="node">
<title>Node23</title>
<g id="a_Node000023"><a xlink:href="_input_manager_8hpp.html" target="_top" xlink:title=" ">
<polygon fill="white" stroke="#666666" points="1021.5,-415 846.5,-415 846.5,-396 1021.5,-396 1021.5,-415"/>
<text text-anchor="middle" x="934" y="-403" font-family="Helvetica,sans-Serif" font-size="10.00">InputManager/InputManager.hpp</text>
</a>
</g>
</g>
<!-- Node1&#45;&gt;Node23 -->
<g id="edge30_Node000001_Node000023" class="edge">
<title>Node1&#45;&gt;Node23</title>
<g id="a_edge30_Node000001_Node000023"><a xlink:title=" ">
<path fill="none" stroke="#63b8ff" d="M615.05,-450.98C682.54,-441.57 791.13,-426.43 862.53,-416.47"/>
<polygon fill="#63b8ff" stroke="#63b8ff" points="863.36,-419.89 872.78,-415.04 862.4,-412.95 863.36,-419.89"/>
</a>
</g>
</g>
<!-- Node26 -->
<g id="Node000026" class="node">
<title>Node26</title>
<g id="a_Node000026"><a xlink:href="_camera_component_8hpp.html" target="_top" xlink:title=" ">
<polygon fill="white" stroke="#666666" points="1941.5,-354.5 1744.5,-354.5 1744.5,-335.5 1941.5,-335.5 1941.5,-354.5"/>
<text text-anchor="middle" x="1843" y="-342.5" font-family="Helvetica,sans-Serif" font-size="10.00">Components/CameraComponent.hpp</text>
</a>
</g>
</g>
<!-- Node1&#45;&gt;Node26 -->
<g id="edge68_Node000001_Node000026" class="edge">
<title>Node1&#45;&gt;Node26</title>
<g id="a_edge68_Node000001_Node000026"><a xlink:title=" ">
<path fill="none" stroke="#63b8ff" d="M639.55,-455.32C756.45,-448.95 959.73,-435.37 1031,-415 1049.16,-409.81 1050.75,-400.84 1069,-396 1211.2,-358.32 1583.47,-373.05 1730,-360 1743.1,-358.83 1757.03,-357.33 1770.46,-355.74"/>
<polygon fill="#63b8ff" stroke="#63b8ff" points="1771.11,-359.18 1780.62,-354.51 1770.27,-352.23 1771.11,-359.18"/>
</a>
</g>
</g>
<!-- Node39 -->
<g id="Node000039" class="node">
<title>Node39</title>
<g id="a_Node000039"><a xlink:href="_shader_8hpp.html" target="_top" xlink:title=" ">
<polygon fill="white" stroke="#666666" points="487.5,-415 344.5,-415 344.5,-396 487.5,-396 487.5,-415"/>
<text text-anchor="middle" x="416" y="-403" font-family="Helvetica,sans-Serif" font-size="10.00">AssetManager/Shader.hpp</text>
</a>
</g>
</g>
<!-- Node1&#45;&gt;Node39 -->
<g id="edge62_Node000001_Node000039" class="edge">
<title>Node1&#45;&gt;Node39</title>
<g id="a_edge62_Node000001_Node000039"><a xlink:title=" ">
<path fill="none" stroke="#63b8ff" d="M531.83,-450.98C509.23,-442.3 473.94,-428.75 448.25,-418.88"/>
<polygon fill="#63b8ff" stroke="#63b8ff" points="449.17,-415.49 438.58,-415.17 446.66,-422.02 449.17,-415.49"/>
</a>
</g>
</g>
<!-- Node40 -->
<g id="Node000040" class="node">
<title>Node40</title>
<g id="a_Node000040"><a xlink:href="_name_component_8hpp.html" target="_top" xlink:title=" ">
<polygon fill="white" stroke="#666666" points="770,-294 582,-294 582,-275 770,-275 770,-294"/>
<text text-anchor="middle" x="676" y="-282" font-family="Helvetica,sans-Serif" font-size="10.00">Components/NameComponent.hpp</text>
</a>
</g>
</g>
<!-- Node1&#45;&gt;Node40 -->
<g id="edge65_Node000001_Node000040" class="edge">
<title>Node1&#45;&gt;Node40</title>
<g id="a_edge65_Node000001_Node000040"><a xlink:title=" ">
<path fill="none" stroke="#63b8ff" d="M560.22,-450.63C579.47,-423.17 638.36,-339.18 663.93,-302.71"/>
<polygon fill="#63b8ff" stroke="#63b8ff" points="667.06,-304.34 669.94,-294.14 661.33,-300.32 667.06,-304.34"/>
</a>
</g>
</g>
<!-- Node41 -->
<g id="Node000041" class="node">
<title>Node41</title>
<g id="a_Node000041"><a xlink:title=" ">
<polygon fill="#e0e0e0" stroke="#999999" points="1244.5,-415 1077.5,-415 1077.5,-396 1244.5,-396 1244.5,-415"/>
<text text-anchor="middle" x="1161" y="-403" font-family="Helvetica,sans-Serif" font-size="10.00">UI/Widgets/ConsoleWidget.hpp</text>
</a>
</g>
</g>
<!-- Node1&#45;&gt;Node41 -->
<g id="edge69_Node000001_Node000041" class="edge">
<title>Node1&#45;&gt;Node41</title>
<g id="a_edge69_Node000001_Node000041"><a xlink:title=" ">
<path fill="none" stroke="#63b8ff" d="M639.73,-452.03C741.07,-443.2 914.81,-428.05 1064,-415 1065.09,-414.9 1066.2,-414.81 1067.3,-414.71"/>
<polygon fill="#63b8ff" stroke="#63b8ff" points="1067.74,-418.19 1077.4,-413.83 1067.13,-411.21 1067.74,-418.19"/>
</a>
</g>
</g>
<!-- Node42 -->
<g id="Node000042" class="node">
<title>Node42</title>
<g id="a_Node000042"><a xlink:title=" ">
<polygon fill="#e0e0e0" stroke="#999999" points="1420,-415 1262,-415 1262,-396 1420,-396 1420,-415"/>
<text text-anchor="middle" x="1341" y="-403" font-family="Helvetica,sans-Serif" font-size="10.00">UI/Widgets/SceneWidget.hpp</text>
</a>
</g>
</g>
<!-- Node1&#45;&gt;Node42 -->
<g id="edge70_Node000001_Node000042" class="edge">
<title>Node1&#45;&gt;Node42</title>
<g id="a_edge70_Node000001_Node000042"><a xlink:title=" ">
<path fill="none" stroke="#63b8ff" d="M639.74,-454.99C769.83,-447.93 1025.17,-433.27 1251.74,-415.16"/>
<polygon fill="#63b8ff" stroke="#63b8ff" points="1252.14,-418.64 1261.82,-414.35 1251.58,-411.66 1252.14,-418.64"/>
</a>
</g>
</g>
<!-- Node7 -->
<g id="Node000007" class="node">
<title>Node7</title>
<g id="a_Node000007"><a xlink:title=" ">
<polygon fill="#e0e0e0" stroke="#999999" points="231,-129 163,-129 163,-110 231,-110 231,-129"/>
<text text-anchor="middle" x="197" y="-117" font-family="Helvetica,sans-Serif" font-size="10.00">filesystem</text>
</a>
</g>
</g>
<!-- Node6&#45;&gt;Node7 -->
<g id="edge6_Node000006_Node000007" class="edge">
<title>Node6&#45;&gt;Node7</title>
<g id="a_edge6_Node000006_Node000007"><a xlink:title=" ">
<path fill="none" stroke="#63b8ff" d="M227.59,-395.93C208.75,-388.95 184.69,-377.37 169,-360 145.18,-333.63 140,-321.03 140,-285.5 140,-285.5 140,-285.5 140,-228.5 140,-192.51 165.06,-156.76 181.95,-136.76"/>
<polygon fill="#63b8ff" stroke="#63b8ff" points="184.62,-139.02 188.59,-129.2 179.36,-134.4 184.62,-139.02"/>
</a>
</g>
</g>
<!-- Node8 -->
<g id="Node000008" class="node">
<title>Node8</title>
<g id="a_Node000008"><a xlink:href="_path_constructible_asset_8hpp.html" target="_top" xlink:title=" ">
<polygon fill="white" stroke="#666666" points="353.5,-360 178.5,-360 178.5,-330 353.5,-330 353.5,-360"/>
<text text-anchor="start" x="186.5" y="-348" font-family="Helvetica,sans-Serif" font-size="10.00">AssetManager/PathConstructible</text>
<text text-anchor="middle" x="266" y="-337" font-family="Helvetica,sans-Serif" font-size="10.00">Asset.hpp</text>
</a>
</g>
</g>
<!-- Node6&#45;&gt;Node8 -->
<g id="edge7_Node000006_Node000008" class="edge">
<title>Node6&#45;&gt;Node8</title>
<g id="a_edge7_Node000006_Node000008"><a xlink:title=" ">
<path fill="none" stroke="#63b8ff" d="M257.48,-395.87C258.63,-389.11 260.3,-379.35 261.85,-370.26"/>
<polygon fill="#63b8ff" stroke="#63b8ff" points="265.35,-370.56 263.59,-360.11 258.45,-369.38 265.35,-370.56"/>
</a>
</g>
</g>
<!-- Node8&#45;&gt;Node7 -->
<g id="edge8_Node000008_Node000007" class="edge">
<title>Node8&#45;&gt;Node7</title>
<g id="a_edge8_Node000008_Node000007"><a xlink:title=" ">
<path fill="none" stroke="#63b8ff" d="M234.74,-329.84C220.47,-321.59 205,-309.68 197,-294 171.04,-243.12 183.54,-172.41 191.77,-139.17"/>
<polygon fill="#63b8ff" stroke="#63b8ff" points="195.26,-139.64 194.43,-129.07 188.49,-137.85 195.26,-139.64"/>
</a>
</g>
</g>
<!-- Node9 -->
<g id="Node000009" class="node">
<title>Node9</title>
<g id="a_Node000009"><a xlink:href="_asset_8hpp.html" target="_top" xlink:title=" ">
<polygon fill="white" stroke="#666666" points="343.5,-294 206.5,-294 206.5,-275 343.5,-275 343.5,-294"/>
<text text-anchor="middle" x="275" y="-282" font-family="Helvetica,sans-Serif" font-size="10.00">AssetManager/Asset.hpp</text>
</a>
</g>
</g>
<!-- Node8&#45;&gt;Node9 -->
<g id="edge9_Node000008_Node000009" class="edge">
<title>Node8&#45;&gt;Node9</title>
<g id="a_edge9_Node000008_Node000009"><a xlink:title=" ">
<path fill="none" stroke="#63b8ff" d="M268.18,-329.84C269.37,-322.13 270.85,-312.49 272.13,-304.17"/>
<polygon fill="#63b8ff" stroke="#63b8ff" points="275.59,-304.68 273.65,-294.27 268.67,-303.62 275.59,-304.68"/>
</a>
</g>
</g>
<!-- Node9&#45;&gt;Node7 -->
<g id="edge10_Node000009_Node000007" class="edge">
<title>Node9&#45;&gt;Node7</title>
<g id="a_edge10_Node000009_Node000007"><a xlink:title=" ">
<path fill="none" stroke="#63b8ff" d="M270.81,-274.74C258.53,-249.09 222.5,-173.78 205.75,-138.78"/>
<polygon fill="#63b8ff" stroke="#63b8ff" points="208.69,-136.82 201.21,-129.31 202.37,-139.84 208.69,-136.82"/>
</a>
</g>
</g>
<!-- Node10 -->
<g id="Node000010" class="node">
<title>Node10</title>
<g id="a_Node000010"><a xlink:href="_registry_8hpp.html" target="_top" xlink:title=" ">
<polygon fill="white" stroke="#666666" points="734,-239 636,-239 636,-220 734,-220 734,-239"/>
<text text-anchor="middle" x="685" y="-227" font-family="Helvetica,sans-Serif" font-size="10.00">ECS/Registry.hpp</text>
</a>
</g>
</g>
<!-- Node9&#45;&gt;Node10 -->
<g id="edge11_Node000009_Node000010" class="edge">
<title>Node9&#45;&gt;Node10</title>
<g id="a_edge11_Node000009_Node000010"><a xlink:title=" ">
<path fill="none" stroke="#63b8ff" d="M343.52,-275.24C412.28,-266.87 521.5,-253.31 625.88,-239.13"/>
<polygon fill="#63b8ff" stroke="#63b8ff" points="626.53,-242.57 635.96,-237.76 625.58,-235.64 626.53,-242.57"/>
</a>
</g>
</g>
<!-- Node11 -->
<g id="Node000011" class="node">
<title>Node11</title>
<g id="a_Node000011"><a xlink:title=" ">
<polygon fill="#e0e0e0" stroke="#999999" points="500,-129 414,-129 414,-110 500,-110 500,-129"/>
<text text-anchor="middle" x="457" y="-117" font-family="Helvetica,sans-Serif" font-size="10.00">unordered_set</text>
</a>
</g>
</g>
<!-- Node10&#45;&gt;Node11 -->
<g id="edge12_Node000010_Node000011" class="edge">
<title>Node10&#45;&gt;Node11</title>
<g id="a_edge12_Node000010_Node000011"><a xlink:title=" ">
<path fill="none" stroke="#63b8ff" d="M635.88,-221.1C566.95,-210.49 449.17,-191.41 443,-184 432.42,-171.3 438.53,-152.35 445.69,-138.45"/>
<polygon fill="#63b8ff" stroke="#63b8ff" points="448.95,-139.81 450.87,-129.39 442.87,-136.34 448.95,-139.81"/>
</a>
</g>
</g>
<!-- Node12 -->
<g id="Node000012" class="node">
<title>Node12</title>
<g id="a_Node000012"><a xlink:href="_logger_8hpp.html" target="_top" xlink:title=" ">
<polygon fill="white" stroke="#666666" points="1113.5,-184 996.5,-184 996.5,-165 1113.5,-165 1113.5,-184"/>
<text text-anchor="middle" x="1055" y="-172" font-family="Helvetica,sans-Serif" font-size="10.00">Common/Logger.hpp</text>
</a>
</g>
</g>
<!-- Node10&#45;&gt;Node12 -->
<g id="edge13_Node000010_Node000012" class="edge">
<title>Node10&#45;&gt;Node12</title>
<g id="a_edge13_Node000010_Node000012"><a xlink:title=" ">
<path fill="none" stroke="#63b8ff" d="M734.13,-221.46C798.81,-212.2 912.87,-195.86 986.13,-185.36"/>
<polygon fill="#63b8ff" stroke="#63b8ff" points="986.79,-188.81 996.19,-183.92 985.79,-181.88 986.79,-188.81"/>
</a>
</g>
</g>
<!-- Node15 -->
<g id="Node000015" class="node">
<title>Node15</title>
<g id="a_Node000015"><a xlink:href="_entity_8hpp.html" target="_top" xlink:title=" ">
<polygon fill="white" stroke="#666666" points="761,-74 675,-74 675,-55 761,-55 761,-74"/>
<text text-anchor="middle" x="718" y="-62" font-family="Helvetica,sans-Serif" font-size="10.00">ECS/Entity.hpp</text>
</a>
</g>
</g>
<!-- Node10&#45;&gt;Node15 -->
<g id="edge16_Node000010_Node000015" class="edge">
<title>Node10&#45;&gt;Node15</title>
<g id="a_edge16_Node000010_Node000015"><a xlink:title=" ">
<path fill="none" stroke="#63b8ff" d="M635.75,-220.96C564.72,-209.91 441.11,-190.01 433,-184 404.74,-163.07 381.95,-136.56 405,-110 437.97,-72.01 584.15,-65.61 664.55,-65.04"/>
<polygon fill="#63b8ff" stroke="#63b8ff" points="664.98,-68.54 674.96,-64.99 664.95,-61.54 664.98,-68.54"/>
</a>
</g>
</g>
<!-- Node17 -->
<g id="Node000017" class="node">
<title>Node17</title>
<g id="a_Node000017"><a xlink:href="_entity_hierarchy_8hpp.html" target="_top" xlink:title=" ">
<polygon fill="white" stroke="#666666" points="586,-184 452,-184 452,-165 586,-165 586,-184"/>
<text text-anchor="middle" x="519" y="-172" font-family="Helvetica,sans-Serif" font-size="10.00">ECS/EntityHierarchy.hpp</text>
</a>
</g>
</g>
<!-- Node10&#45;&gt;Node17 -->
<g id="edge18_Node000010_Node000017" class="edge">
<title>Node10&#45;&gt;Node17</title>
<g id="a_edge18_Node000010_Node000017"><a xlink:title=" ">
<path fill="none" stroke="#63b8ff" d="M658.33,-219.98C630.46,-211.09 586.55,-197.07 555.48,-187.15"/>
<polygon fill="#63b8ff" stroke="#63b8ff" points="556.47,-183.79 545.88,-184.08 554.34,-190.46 556.47,-183.79"/>
</a>
</g>
</g>
<!-- Node20 -->
<g id="Node000020" class="node">
<title>Node20</title>
<g id="a_Node000020"><a xlink:href="_entity_provider_8hpp.html" target="_top" xlink:title="Manages a pool of unused entity identifiers and provides mechanisms for requesting and removing them.">
<polygon fill="white" stroke="#666666" points="896,-129 768,-129 768,-110 896,-110 896,-129"/>
<text text-anchor="middle" x="832" y="-117" font-family="Helvetica,sans-Serif" font-size="10.00">ECS/EntityProvider.hpp</text>
</a>
</g>
</g>
<!-- Node10&#45;&gt;Node20 -->
<g id="edge23_Node000010_Node000020" class="edge">
<title>Node10&#45;&gt;Node20</title>
<g id="a_edge23_Node000010_Node000020"><a xlink:title=" ">
<path fill="none" stroke="#63b8ff" d="M734.05,-221.7C794.47,-212.83 890.48,-196.91 901,-184 916.87,-164.53 888.55,-145.46 863.54,-133.39"/>
<polygon fill="#63b8ff" stroke="#63b8ff" points="864.76,-130.1 854.21,-129.11 861.84,-136.46 864.76,-130.1"/>
</a>
</g>
</g>
<!-- Node21 -->
<g id="Node000021" class="node">
<title>Node21</title>
<g id="a_Node000021"><a xlink:href="_sparse_set_8hpp.html" target="_top" xlink:title=" ">
<polygon fill="white" stroke="#666666" points="892,-184 784,-184 784,-165 892,-165 892,-184"/>
<text text-anchor="middle" x="838" y="-172" font-family="Helvetica,sans-Serif" font-size="10.00">ECS/SparseSet.hpp</text>
</a>
</g>
</g>
<!-- Node10&#45;&gt;Node21 -->
<g id="edge27_Node000010_Node000021" class="edge">
<title>Node10&#45;&gt;Node21</title>
<g id="a_edge27_Node000010_Node000021"><a xlink:title=" ">
<path fill="none" stroke="#63b8ff" d="M709.58,-219.98C735.05,-211.16 775.04,-197.31 803.63,-187.41"/>
<polygon fill="#63b8ff" stroke="#63b8ff" points="804.92,-190.66 813.23,-184.08 802.63,-184.05 804.92,-190.66"/>
</a>
</g>
</g>
<!-- Node22 -->
<g id="Node000022" class="node">
<title>Node22</title>
<g id="a_Node000022"><a xlink:href="_singleton_component_8hpp.html" target="_top" xlink:title=" ">
<polygon fill="white" stroke="#666666" points="765.5,-184 604.5,-184 604.5,-165 765.5,-165 765.5,-184"/>
<text text-anchor="middle" x="685" y="-172" font-family="Helvetica,sans-Serif" font-size="10.00">ECS/SingletonComponent.hpp</text>
</a>
</g>
</g>
<!-- Node10&#45;&gt;Node22 -->
<g id="edge29_Node000010_Node000022" class="edge">
<title>Node10&#45;&gt;Node22</title>
<g id="a_edge29_Node000010_Node000022"><a xlink:title=" ">
<path fill="none" stroke="#63b8ff" d="M685,-219.75C685,-212.8 685,-202.85 685,-194.13"/>
<polygon fill="#63b8ff" stroke="#63b8ff" points="688.5,-194.09 685,-184.09 681.5,-194.09 688.5,-194.09"/>
</a>
</g>
</g>
<!-- Node13 -->
<g id="Node000013" class="node">
<title>Node13</title>
<g id="a_Node000013"><a xlink:title=" ">
<polygon fill="#e0e0e0" stroke="#999999" points="1084,-129 1036,-129 1036,-110 1084,-110 1084,-129"/>
<text text-anchor="middle" x="1060" y="-117" font-family="Helvetica,sans-Serif" font-size="10.00">mutex</text>
</a>
</g>
</g>
<!-- Node12&#45;&gt;Node13 -->
<g id="edge14_Node000012_Node000013" class="edge">
<title>Node12&#45;&gt;Node13</title>
<g id="a_edge14_Node000012_Node000013"><a xlink:title=" ">
<path fill="none" stroke="#63b8ff" d="M1055.83,-164.75C1056.48,-157.8 1057.42,-147.85 1058.24,-139.13"/>
<polygon fill="#63b8ff" stroke="#63b8ff" points="1061.73,-139.37 1059.19,-129.09 1054.77,-138.72 1061.73,-139.37"/>
</a>
</g>
</g>
<!-- Node14 -->
<g id="Node000014" class="node">
<title>Node14</title>
<g id="a_Node000014"><a xlink:title=" ">
<polygon fill="#e0e0e0" stroke="#999999" points="884.5,-74 837.5,-74 837.5,-55 884.5,-55 884.5,-74"/>
<text text-anchor="middle" x="861" y="-62" font-family="Helvetica,sans-Serif" font-size="10.00">queue</text>
</a>
</g>
</g>
<!-- Node12&#45;&gt;Node14 -->
<g id="edge15_Node000012_Node000014" class="edge">
<title>Node12&#45;&gt;Node14</title>
<g id="a_edge15_Node000012_Node000014"><a xlink:title=" ">
<path fill="none" stroke="#63b8ff" d="M1048.19,-164.89C1037.12,-151.41 1013.94,-125.3 989,-110 959.31,-91.78 921.14,-79.75 894.23,-72.84"/>
<polygon fill="#63b8ff" stroke="#63b8ff" points="895.06,-69.44 884.51,-70.45 893.38,-76.24 895.06,-69.44"/>
</a>
</g>
</g>
<!-- Node16 -->
<g id="Node000016" class="node">
<title>Node16</title>
<g id="a_Node000016"><a xlink:title=" ">
<polygon fill="#e0e0e0" stroke="#999999" points="779.5,-19 726.5,-19 726.5,0 779.5,0 779.5,-19"/>
<text text-anchor="middle" x="753" y="-7" font-family="Helvetica,sans-Serif" font-size="10.00">stdlib.h</text>
</a>
</g>
</g>
<!-- Node15&#45;&gt;Node16 -->
<g id="edge17_Node000015_Node000016" class="edge">
<title>Node15&#45;&gt;Node16</title>
<g id="a_edge17_Node000015_Node000016"><a xlink:title=" ">
<path fill="none" stroke="#63b8ff" d="M723.78,-54.75C728.62,-47.42 735.68,-36.73 741.64,-27.7"/>
<polygon fill="#63b8ff" stroke="#63b8ff" points="744.74,-29.36 747.33,-19.09 738.9,-25.5 744.74,-29.36"/>
</a>
</g>
</g>
<!-- Node17&#45;&gt;Node11 -->
<g id="edge20_Node000017_Node000011" class="edge">
<title>Node17&#45;&gt;Node11</title>
<g id="a_edge20_Node000017_Node000011"><a xlink:title=" ">
<path fill="none" stroke="#63b8ff" d="M509.04,-164.98C499.87,-157.15 486.06,-145.34 474.97,-135.86"/>
<polygon fill="#63b8ff" stroke="#63b8ff" points="477.02,-133.01 467.14,-129.17 472.47,-138.33 477.02,-133.01"/>
</a>
</g>
</g>
<!-- Node17&#45;&gt;Node15 -->
<g id="edge22_Node000017_Node000015" class="edge">
<title>Node17&#45;&gt;Node15</title>
<g id="a_edge22_Node000017_Node000015"><a xlink:title=" ">
<path fill="none" stroke="#63b8ff" d="M541.4,-164.99C562.41,-156.72 594.49,-143.33 621,-129 648.67,-114.05 678.7,-93.69 697.9,-80.1"/>
<polygon fill="#63b8ff" stroke="#63b8ff" points="700.05,-82.86 706.15,-74.2 695.98,-77.16 700.05,-82.86"/>
</a>
</g>
</g>
<!-- Node18 -->
<g id="Node000018" class="node">
<title>Node18</title>
<g id="a_Node000018"><a xlink:title=" ">
<polygon fill="#e0e0e0" stroke="#999999" points="979.5,-129 914.5,-129 914.5,-110 979.5,-110 979.5,-129"/>
<text text-anchor="middle" x="947" y="-117" font-family="Helvetica,sans-Serif" font-size="10.00">functional</text>
</a>
</g>
</g>
<!-- Node17&#45;&gt;Node18 -->
<g id="edge19_Node000017_Node000018" class="edge">
<title>Node17&#45;&gt;Node18</title>
<g id="a_edge19_Node000017_Node000018"><a xlink:title=" ">
<path fill="none" stroke="#63b8ff" d="M586.15,-166.07C681.37,-155.5 849.31,-136.67 904.29,-128.89"/>
<polygon fill="#63b8ff" stroke="#63b8ff" points="905.12,-132.3 914.49,-127.36 904.08,-125.38 905.12,-132.3"/>
</a>
</g>
</g>
<!-- Node19 -->
<g id="Node000019" class="node">
<title>Node19</title>
<g id="a_Node000019"><a xlink:title=" ">
<polygon fill="#e0e0e0" stroke="#999999" points="611.5,-129 518.5,-129 518.5,-110 611.5,-110 611.5,-129"/>
<text text-anchor="middle" x="565" y="-117" font-family="Helvetica,sans-Serif" font-size="10.00">unordered_map</text>
</a>
</g>
</g>
<!-- Node17&#45;&gt;Node19 -->
<g id="edge21_Node000017_Node000019" class="edge">
<title>Node17&#45;&gt;Node19</title>
<g id="a_edge21_Node000017_Node000019"><a xlink:title=" ">
<path fill="none" stroke="#63b8ff" d="M526.6,-164.75C533.16,-157.18 542.82,-146.05 550.81,-136.84"/>
<polygon fill="#63b8ff" stroke="#63b8ff" points="553.63,-138.94 557.55,-129.09 548.35,-134.35 553.63,-138.94"/>
</a>
</g>
</g>
<!-- Node20&#45;&gt;Node14 -->
<g id="edge25_Node000020_Node000014" class="edge">
<title>Node20&#45;&gt;Node14</title>
<g id="a_edge25_Node000020_Node000014"><a xlink:title=" ">
<path fill="none" stroke="#63b8ff" d="M836.79,-109.75C840.76,-102.49 846.53,-91.95 851.43,-82.98"/>
<polygon fill="#63b8ff" stroke="#63b8ff" points="854.57,-84.54 856.3,-74.09 848.43,-81.18 854.57,-84.54"/>
</a>
</g>
</g>
<!-- Node20&#45;&gt;Node15 -->
<g id="edge26_Node000020_Node000015" class="edge">
<title>Node20&#45;&gt;Node15</title>
<g id="a_edge26_Node000020_Node000015"><a xlink:title=" ">
<path fill="none" stroke="#63b8ff" d="M813.68,-109.98C795.34,-101.46 766.89,-88.23 745.77,-78.41"/>
<polygon fill="#63b8ff" stroke="#63b8ff" points="747.19,-75.21 736.65,-74.17 744.24,-81.56 747.19,-75.21"/>
</a>
</g>
</g>
<!-- Node20&#45;&gt;Node16 -->
<g id="edge24_Node000020_Node000016" class="edge">
<title>Node20&#45;&gt;Node16</title>
<g id="a_edge24_Node000020_Node000016"><a xlink:title=" ">
<path fill="none" stroke="#63b8ff" d="M825.54,-109.66C812.39,-91.69 782.36,-50.64 765.35,-27.38"/>
<polygon fill="#63b8ff" stroke="#63b8ff" points="768.06,-25.16 759.33,-19.16 762.41,-29.3 768.06,-25.16"/>
</a>
</g>
</g>
<!-- Node21&#45;&gt;Node20 -->
<g id="edge28_Node000021_Node000020" class="edge">
<title>Node21&#45;&gt;Node20</title>
<g id="a_edge28_Node000021_Node000020"><a xlink:title=" ">
<path fill="none" stroke="#63b8ff" d="M837.01,-164.75C836.22,-157.8 835.1,-147.85 834.11,-139.13"/>
<polygon fill="#63b8ff" stroke="#63b8ff" points="837.58,-138.63 832.97,-129.09 830.62,-139.42 837.58,-138.63"/>
</a>
</g>
</g>
<!-- Node23&#45;&gt;Node10 -->
<g id="edge34_Node000023_Node000010" class="edge">
<title>Node23&#45;&gt;Node10</title>
<g id="a_edge34_Node000023_Node000010"><a xlink:title=" ">
<path fill="none" stroke="#63b8ff" d="M879.94,-395.95C788.49,-380.26 609.63,-343.84 573,-294 553.98,-268.13 591.58,-251.29 628.24,-241.5"/>
<polygon fill="#63b8ff" stroke="#63b8ff" points="629.16,-244.88 638.01,-239.05 627.45,-238.09 629.16,-244.88"/>
</a>
</g>
</g>
<!-- Node23&#45;&gt;Node12 -->
<g id="edge35_Node000023_Node000012" class="edge">
<title>Node23&#45;&gt;Node12</title>
<g id="a_edge35_Node000023_Node000012"><a xlink:title=" ">
<path fill="none" stroke="#63b8ff" d="M998.08,-395.96C1179.76,-371.12 1688.17,-296.95 1735,-239 1740.31,-232.43 1740.77,-226.16 1735,-220 1693.83,-176.05 1287.98,-173.86 1123.6,-174.81"/>
<polygon fill="#63b8ff" stroke="#63b8ff" points="1123.58,-171.31 1113.6,-174.87 1123.62,-178.31 1123.58,-171.31"/>
</a>
</g>
</g>
<!-- Node23&#45;&gt;Node18 -->
<g id="edge31_Node000023_Node000018" class="edge">
<title>Node23&#45;&gt;Node18</title>
<g id="a_edge31_Node000023_Node000018"><a xlink:title=" ">
<path fill="none" stroke="#63b8ff" d="M884.64,-395.95C861.58,-389.61 835.43,-378.69 818,-360 796.05,-336.47 761.37,-245.5 781,-220 819.14,-170.45 868.94,-224 917,-184 930.74,-172.56 938.58,-153.4 942.78,-139.11"/>
<polygon fill="#63b8ff" stroke="#63b8ff" points="946.19,-139.9 945.31,-129.34 939.41,-138.14 946.19,-139.9"/>
</a>
</g>
</g>
<!-- Node24 -->
<g id="Node000024" class="node">
<title>Node24</title>
<g id="a_Node000024"><a xlink:title=" ">
<polygon fill="#e0e0e0" stroke="#999999" points="1142.5,-354.5 1059.5,-354.5 1059.5,-335.5 1142.5,-335.5 1142.5,-354.5"/>
<text text-anchor="middle" x="1101" y="-342.5" font-family="Helvetica,sans-Serif" font-size="10.00">GLFW/glfw3.h</text>
</a>
</g>
</g>
<!-- Node23&#45;&gt;Node24 -->
<g id="edge32_Node000023_Node000024" class="edge">
<title>Node23&#45;&gt;Node24</title>
<g id="a_edge32_Node000023_Node000024"><a xlink:title=" ">
<path fill="none" stroke="#63b8ff" d="M958.28,-395.99C986.98,-385.94 1034.89,-369.16 1067.2,-357.84"/>
<polygon fill="#63b8ff" stroke="#63b8ff" points="1068.41,-361.13 1076.69,-354.52 1066.09,-354.52 1068.41,-361.13"/>
</a>
</g>
</g>
<!-- Node25 -->
<g id="Node000025" class="node">
<title>Node25</title>
<g id="a_Node000025"><a xlink:title=" ">
<polygon fill="#e0e0e0" stroke="#999999" points="1866,-184 1788,-184 1788,-165 1866,-165 1866,-184"/>
<text text-anchor="middle" x="1827" y="-172" font-family="Helvetica,sans-Serif" font-size="10.00">glm/glm.hpp</text>
</a>
</g>
</g>
<!-- Node23&#45;&gt;Node25 -->
<g id="edge33_Node000023_Node000025" class="edge">
<title>Node23&#45;&gt;Node25</title>
<g id="a_edge33_Node000023_Node000025"><a xlink:title=" ">
<path fill="none" stroke="#63b8ff" d="M1021.85,-398.69C1037.55,-397.73 1053.76,-396.79 1069,-396 1117.97,-393.46 1917.04,-395.38 1951,-360 1975.97,-333.99 1992.73,-298.24 1930,-220 1916.5,-203.16 1895.4,-192.57 1875.8,-185.96"/>
<polygon fill="#63b8ff" stroke="#63b8ff" points="1876.62,-182.55 1866.04,-182.94 1874.56,-189.24 1876.62,-182.55"/>
</a>
</g>
</g>
<!-- Node23&#45;&gt;Node26 -->
<g id="edge36_Node000023_Node000026" class="edge">
<title>Node23&#45;&gt;Node26</title>
<g id="a_edge36_Node000023_Node000026"><a xlink:title=" ">
<path fill="none" stroke="#63b8ff" d="M1021.62,-397.02C1026.48,-396.66 1031.3,-396.32 1036,-396 1344.16,-375.17 1422.32,-387 1730,-360 1743.18,-358.84 1757.2,-357.33 1770.71,-355.74"/>
<polygon fill="#63b8ff" stroke="#63b8ff" points="1771.41,-359.18 1780.92,-354.5 1770.57,-352.23 1771.41,-359.18"/>
</a>
</g>
</g>
<!-- Node28 -->
<g id="Node000028" class="node">
<title>Node28</title>
<g id="a_Node000028"><a xlink:href="_transform_component_8hpp.html" target="_top" xlink:title=" ">
<polygon fill="white" stroke="#666666" points="1263.5,-294 1056.5,-294 1056.5,-275 1263.5,-275 1263.5,-294"/>
<text text-anchor="middle" x="1160" y="-282" font-family="Helvetica,sans-Serif" font-size="10.00">Components/TransformComponent.hpp</text>
</a>
</g>
</g>
<!-- Node23&#45;&gt;Node28 -->
<g id="edge61_Node000023_Node000028" class="edge">
<title>Node23&#45;&gt;Node28</title>
<g id="a_edge61_Node000023_Node000028"><a xlink:title=" ">
<path fill="none" stroke="#63b8ff" d="M1021.72,-397.07C1074.35,-390.69 1134.39,-379.36 1152,-360 1165.51,-345.15 1165.64,-321.12 1163.61,-304.38"/>
<polygon fill="#63b8ff" stroke="#63b8ff" points="1167.01,-303.49 1162,-294.16 1160.1,-304.58 1167.01,-303.49"/>
</a>
</g>
</g>
<!-- Node37 -->
<g id="Node000037" class="node">
<title>Node37</title>
<g id="a_Node000037"><a xlink:href="_box_collider_component_8hpp.html" target="_top" xlink:title=" ">
<polygon fill="white" stroke="#666666" points="1041.5,-354.5 826.5,-354.5 826.5,-335.5 1041.5,-335.5 1041.5,-354.5"/>
<text text-anchor="middle" x="934" y="-342.5" font-family="Helvetica,sans-Serif" font-size="10.00">Components/BoxColliderComponent.hpp</text>
</a>
</g>
</g>
<!-- Node23&#45;&gt;Node37 -->
<g id="edge54_Node000023_Node000037" class="edge">
<title>Node23&#45;&gt;Node37</title>
<g id="a_edge54_Node000023_Node000037"><a xlink:title=" ">
<path fill="none" stroke="#63b8ff" d="M934,-395.87C934,-387.75 934,-375.31 934,-364.89"/>
<polygon fill="#63b8ff" stroke="#63b8ff" points="937.5,-364.67 934,-354.67 930.5,-364.67 937.5,-364.67"/>
</a>
</g>
</g>
<!-- Node26&#45;&gt;Node25 -->
<g id="edge37_Node000026_Node000025" class="edge">
<title>Node26&#45;&gt;Node25</title>
<g id="a_edge37_Node000026_Node000025"><a xlink:title=" ">
<path fill="none" stroke="#63b8ff" d="M1854.49,-335.47C1880.37,-315.2 1938.96,-262.66 1913,-220 1903.81,-204.9 1887.66,-194.69 1871.81,-187.91"/>
<polygon fill="#63b8ff" stroke="#63b8ff" points="1872.64,-184.48 1862.05,-184.12 1870.1,-191 1872.64,-184.48"/>
</a>
</g>
</g>
<!-- Node27 -->
<g id="Node000027" class="node">
<title>Node27</title>
<g id="a_Node000027"><a xlink:href="_ray_8hpp.html" target="_top" xlink:title=" ">
<polygon fill="white" stroke="#666666" points="1903.5,-239 1820.5,-239 1820.5,-220 1903.5,-220 1903.5,-239"/>
<text text-anchor="middle" x="1862" y="-227" font-family="Helvetica,sans-Serif" font-size="10.00">Math/Ray.hpp</text>
</a>
</g>
</g>
<!-- Node26&#45;&gt;Node27 -->
<g id="edge38_Node000026_Node000027" class="edge">
<title>Node26&#45;&gt;Node27</title>
<g id="a_edge38_Node000026_Node000027"><a xlink:title=" ">
<path fill="none" stroke="#63b8ff" d="M1844.43,-335.47C1847.48,-317.23 1854.71,-274.07 1858.88,-249.14"/>
<polygon fill="#63b8ff" stroke="#63b8ff" points="1862.36,-249.57 1860.56,-239.13 1855.45,-248.41 1862.36,-249.57"/>
</a>
</g>
</g>
<!-- Node26&#45;&gt;Node28 -->
<g id="edge40_Node000026_Node000028" class="edge">
<title>Node26&#45;&gt;Node28</title>
<g id="a_edge40_Node000026_Node000028"><a xlink:title=" ">
<path fill="none" stroke="#63b8ff" d="M1744.42,-335.56C1618.31,-324.76 1400.58,-306.11 1269.46,-294.88"/>
<polygon fill="#63b8ff" stroke="#63b8ff" points="1269.65,-291.38 1259.39,-294.01 1269.05,-298.35 1269.65,-291.38"/>
</a>
</g>
</g>
<!-- Node27&#45;&gt;Node25 -->
<g id="edge39_Node000027_Node000025" class="edge">
<title>Node27&#45;&gt;Node25</title>
<g id="a_edge39_Node000027_Node000025"><a xlink:title=" ">
<path fill="none" stroke="#63b8ff" d="M1856.22,-219.75C1851.38,-212.42 1844.32,-201.73 1838.36,-192.7"/>
<polygon fill="#63b8ff" stroke="#63b8ff" points="1841.1,-190.5 1832.67,-184.09 1835.26,-194.36 1841.1,-190.5"/>
</a>
</g>
</g>
<!-- Node28&#45;&gt;Node5 -->
<g id="edge42_Node000028_Node000005" class="edge">
<title>Node28&#45;&gt;Node5</title>
<g id="a_edge42_Node000028_Node000005"><a xlink:title=" ">
<path fill="none" stroke="#63b8ff" d="M1093.43,-274.98C1034.57,-267.14 946.15,-254.64 860.13,-239.1"/>
<polygon fill="#63b8ff" stroke="#63b8ff" points="860.66,-235.64 850.19,-237.29 859.4,-242.53 860.66,-235.64"/>
</a>
</g>
</g>
<!-- Node28&#45;&gt;Node10 -->
<g id="edge50_Node000028_Node000010" class="edge">
<title>Node28&#45;&gt;Node10</title>
<g id="a_edge50_Node000028_Node000010"><a xlink:title=" ">
<path fill="none" stroke="#63b8ff" d="M1083.68,-274.98C989.18,-264.44 830.21,-246.7 744.34,-237.12"/>
<polygon fill="#63b8ff" stroke="#63b8ff" points="744.56,-233.62 734.24,-235.99 743.79,-240.58 744.56,-233.62"/>
</a>
</g>
</g>
<!-- Node28&#45;&gt;Node25 -->
<g id="edge43_Node000028_Node000025" class="edge">
<title>Node28&#45;&gt;Node25</title>
<g id="a_edge43_Node000028_Node000025"><a xlink:title=" ">
<path fill="none" stroke="#63b8ff" d="M1263.88,-283.18C1352.45,-280.46 1482.3,-270.64 1591,-239 1609.13,-233.72 1611.21,-226.34 1629,-220 1678.41,-202.39 1737.32,-190.21 1777.97,-183.1"/>
<polygon fill="#63b8ff" stroke="#63b8ff" points="1778.62,-186.54 1787.89,-181.41 1777.44,-179.64 1778.62,-186.54"/>
</a>
</g>
</g>
<!-- Node29 -->
<g id="Node000029" class="node">
<title>Node29</title>
<g id="a_Node000029"><a xlink:title=" ">
<polygon fill="#e0e0e0" stroke="#999999" points="912,-239 868,-239 868,-220 912,-220 912,-239"/>
<text text-anchor="middle" x="890" y="-227" font-family="Helvetica,sans-Serif" font-size="10.00">string</text>
</a>
</g>
</g>
<!-- Node28&#45;&gt;Node29 -->
<g id="edge41_Node000028_Node000029" class="edge">
<title>Node28&#45;&gt;Node29</title>
<g id="a_edge41_Node000028_Node000029"><a xlink:title=" ">
<path fill="none" stroke="#63b8ff" d="M1107.05,-274.95C1060.72,-267.17 991.42,-254.83 922.46,-239.18"/>
<polygon fill="#63b8ff" stroke="#63b8ff" points="922.82,-235.68 912.29,-236.85 921.26,-242.5 922.82,-235.68"/>
</a>
</g>
</g>
<!-- Node30 -->
<g id="Node000030" class="node">
<title>Node30</title>
<g id="a_Node000030"><a xlink:title=" ">
<polygon fill="#e0e0e0" stroke="#999999" points="1060,-239 930,-239 930,-220 1060,-220 1060,-239"/>
<text text-anchor="middle" x="995" y="-227" font-family="Helvetica,sans-Serif" font-size="10.00">glm/gtc/quaternion.hpp</text>
</a>
</g>
</g>
<!-- Node28&#45;&gt;Node30 -->
<g id="edge44_Node000028_Node000030" class="edge">
<title>Node28&#45;&gt;Node30</title>
<g id="a_edge44_Node000028_Node000030"><a xlink:title=" ">
<path fill="none" stroke="#63b8ff" d="M1133.49,-274.98C1105.79,-266.09 1062.14,-252.07 1031.26,-242.15"/>
<polygon fill="#63b8ff" stroke="#63b8ff" points="1032.31,-238.81 1021.72,-239.08 1030.17,-245.47 1032.31,-238.81"/>
</a>
</g>
</g>
<!-- Node31 -->
<g id="Node000031" class="node">
<title>Node31</title>
<g id="a_Node000031"><a xlink:title=" ">
<polygon fill="#e0e0e0" stroke="#999999" points="1241.5,-239 1078.5,-239 1078.5,-220 1241.5,-220 1241.5,-239"/>
<text text-anchor="middle" x="1160" y="-227" font-family="Helvetica,sans-Serif" font-size="10.00">glm/gtc/matrix_transform.hpp</text>
</a>
</g>
</g>
<!-- Node28&#45;&gt;Node31 -->
<g id="edge45_Node000028_Node000031" class="edge">
<title>Node28&#45;&gt;Node31</title>
<g id="a_edge45_Node000028_Node000031"><a xlink:title=" ">
<path fill="none" stroke="#63b8ff" d="M1160,-274.75C1160,-267.8 1160,-257.85 1160,-249.13"/>
<polygon fill="#63b8ff" stroke="#63b8ff" points="1163.5,-249.09 1160,-239.09 1156.5,-249.09 1163.5,-249.09"/>
</a>
</g>
</g>
<!-- Node32 -->
<g id="Node000032" class="node">
<title>Node32</title>
<g id="a_Node000032"><a xlink:title=" ">
<polygon fill="#e0e0e0" stroke="#999999" points="1432,-239 1260,-239 1260,-220 1432,-220 1432,-239"/>
<text text-anchor="middle" x="1346" y="-227" font-family="Helvetica,sans-Serif" font-size="10.00">glm/gtx/matrix_decompose.hpp</text>
</a>
</g>
</g>
<!-- Node28&#45;&gt;Node32 -->
<g id="edge46_Node000028_Node000032" class="edge">
<title>Node28&#45;&gt;Node32</title>
<g id="a_edge46_Node000028_Node000032"><a xlink:title=" ">
<path fill="none" stroke="#63b8ff" d="M1189.88,-274.98C1221.38,-266.01 1271.17,-251.82 1306.03,-241.89"/>
<polygon fill="#63b8ff" stroke="#63b8ff" points="1307.22,-245.19 1315.88,-239.08 1305.31,-238.46 1307.22,-245.19"/>
</a>
</g>
</g>
<!-- Node33 -->
<g id="Node000033" class="node">
<title>Node33</title>
<g id="a_Node000033"><a xlink:title=" ">
<polygon fill="#e0e0e0" stroke="#999999" points="1581.5,-239 1450.5,-239 1450.5,-220 1581.5,-220 1581.5,-239"/>
<text text-anchor="middle" x="1516" y="-227" font-family="Helvetica,sans-Serif" font-size="10.00">glm/gtx/string_cast.hpp</text>
</a>
</g>
</g>
<!-- Node28&#45;&gt;Node33 -->
<g id="edge47_Node000028_Node000033" class="edge">
<title>Node28&#45;&gt;Node33</title>
<g id="a_edge47_Node000028_Node000033"><a xlink:title=" ">
<path fill="none" stroke="#63b8ff" d="M1217.2,-274.98C1280.29,-265.59 1381.73,-250.49 1448.63,-240.53"/>
<polygon fill="#63b8ff" stroke="#63b8ff" points="1449.27,-243.97 1458.65,-239.04 1448.24,-237.05 1449.27,-243.97"/>
</a>
</g>
</g>
<!-- Node34 -->
<g id="Node000034" class="node">
<title>Node34</title>
<g id="a_Node000034"><a xlink:href="_math_2_utils_8hpp.html" target="_top" xlink:title=" ">
<polygon fill="white" stroke="#666666" points="1726,-239 1638,-239 1638,-220 1726,-220 1726,-239"/>
<text text-anchor="middle" x="1682" y="-227" font-family="Helvetica,sans-Serif" font-size="10.00">Math/Utils.hpp</text>
</a>
</g>
</g>
<!-- Node28&#45;&gt;Node34 -->
<g id="edge48_Node000028_Node000034" class="edge">
<title>Node28&#45;&gt;Node34</title>
<g id="a_edge48_Node000028_Node000034"><a xlink:title=" ">
<path fill="none" stroke="#63b8ff" d="M1263.82,-275.04C1357.96,-267.01 1500.48,-253.96 1624,-239 1625.11,-238.87 1626.23,-238.73 1627.37,-238.58"/>
<polygon fill="#63b8ff" stroke="#63b8ff" points="1628.24,-242 1637.7,-237.22 1627.33,-235.06 1628.24,-242"/>
</a>
</g>
</g>
<!-- Node35 -->
<g id="Node000035" class="node">
<title>Node35</title>
<g id="a_Node000035"><a xlink:href="_base_component_8hpp.html" target="_top" xlink:title=" ">
<polygon fill="white" stroke="#666666" points="618,-239 436,-239 436,-220 618,-220 618,-239"/>
<text text-anchor="middle" x="527" y="-227" font-family="Helvetica,sans-Serif" font-size="10.00">Components/BaseComponent.hpp</text>
</a>
</g>
</g>
<!-- Node28&#45;&gt;Node35 -->
<g id="edge51_Node000028_Node000035" class="edge">
<title>Node28&#45;&gt;Node35</title>
<g id="a_edge51_Node000028_Node000035"><a xlink:title=" ">
<path fill="none" stroke="#63b8ff" d="M1057.32,-274.97C952.29,-266.24 784.08,-252.23 628.26,-239.11"/>
<polygon fill="#63b8ff" stroke="#63b8ff" points="628.28,-235.59 618.02,-238.24 627.69,-242.57 628.28,-235.59"/>
</a>
</g>
</g>
<!-- Node34&#45;&gt;Node25 -->
<g id="edge49_Node000034_Node000025" class="edge">
<title>Node34&#45;&gt;Node25</title>
<g id="a_edge49_Node000034_Node000025"><a xlink:title=" ">
<path fill="none" stroke="#63b8ff" d="M1705.3,-219.98C1729.25,-211.23 1766.78,-197.51 1793.83,-187.62"/>
<polygon fill="#63b8ff" stroke="#63b8ff" points="1795.09,-190.89 1803.28,-184.17 1792.69,-184.32 1795.09,-190.89"/>
</a>
</g>
</g>
<!-- Node36 -->
<g id="Node000036" class="node">
<title>Node36</title>
<g id="a_Node000036"><a xlink:href="_types_8hpp.html" target="_top" xlink:title=" ">
<polygon fill="white" stroke="#666666" points="357.5,-184 244.5,-184 244.5,-165 357.5,-165 357.5,-184"/>
<text text-anchor="middle" x="301" y="-172" font-family="Helvetica,sans-Serif" font-size="10.00">Common/Types.hpp</text>
</a>
</g>
</g>
<!-- Node35&#45;&gt;Node36 -->
<g id="edge52_Node000035_Node000036" class="edge">
<title>Node35&#45;&gt;Node36</title>
<g id="a_edge52_Node000035_Node000036"><a xlink:title=" ">
<path fill="none" stroke="#63b8ff" d="M490.69,-219.98C451.76,-210.86 389.84,-196.33 347.4,-186.38"/>
<polygon fill="#63b8ff" stroke="#63b8ff" points="348.13,-182.96 337.6,-184.08 346.53,-189.77 348.13,-182.96"/>
</a>
</g>
</g>
<!-- Node36&#45;&gt;Node7 -->
<g id="edge53_Node000036_Node000007" class="edge">
<title>Node36&#45;&gt;Node7</title>
<g id="a_edge53_Node000036_Node000007"><a xlink:title=" ">
<path fill="none" stroke="#63b8ff" d="M284.29,-164.98C267.79,-156.57 242.3,-143.59 223.12,-133.81"/>
<polygon fill="#63b8ff" stroke="#63b8ff" points="224.51,-130.59 214.01,-129.17 221.33,-136.83 224.51,-130.59"/>
</a>
</g>
</g>
<!-- Node37&#45;&gt;Node28 -->
<g id="edge60_Node000037_Node000028" class="edge">
<title>Node37&#45;&gt;Node28</title>
<g id="a_edge60_Node000037_Node000028"><a xlink:title=" ">
<path fill="none" stroke="#63b8ff" d="M966.86,-335.49C1006.61,-325.2 1073.63,-307.86 1117.33,-296.54"/>
<polygon fill="#63b8ff" stroke="#63b8ff" points="1118.29,-299.91 1127.1,-294.02 1116.54,-293.13 1118.29,-299.91"/>
</a>
</g>
</g>
<!-- Node37&#45;&gt;Node29 -->
<g id="edge55_Node000037_Node000029" class="edge">
<title>Node37&#45;&gt;Node29</title>
<g id="a_edge55_Node000037_Node000029"><a xlink:title=" ">
<path fill="none" stroke="#63b8ff" d="M930.69,-335.47C923.56,-317.06 906.59,-273.29 896.97,-248.48"/>
<polygon fill="#63b8ff" stroke="#63b8ff" points="900.22,-247.19 893.35,-239.13 893.7,-249.72 900.22,-247.19"/>
</a>
</g>
</g>
<!-- Node37&#45;&gt;Node35 -->
<g id="edge59_Node000037_Node000035" class="edge">
<title>Node37&#45;&gt;Node35</title>
<g id="a_edge59_Node000037_Node000035"><a xlink:title=" ">
<path fill="none" stroke="#63b8ff" d="M918.21,-335.41C890.73,-320.82 831.96,-291.2 779,-275 724.95,-258.47 662.37,-247.38 613.1,-240.4"/>
<polygon fill="#63b8ff" stroke="#63b8ff" points="613.5,-236.92 603.12,-239.02 612.54,-243.86 613.5,-236.92"/>
</a>
</g>
</g>
<!-- Node38 -->
<g id="Node000038" class="node">
<title>Node38</title>
<g id="a_Node000038"><a xlink:href="_a_a_b_b_8hpp.html" target="_top" xlink:title=" ">
<polygon fill="white" stroke="#666666" points="1836,-294 1744,-294 1744,-275 1836,-275 1836,-294"/>
<text text-anchor="middle" x="1790" y="-282" font-family="Helvetica,sans-Serif" font-size="10.00">Math/AABB.hpp</text>
</a>
</g>
</g>
<!-- Node37&#45;&gt;Node38 -->
<g id="edge56_Node000037_Node000038" class="edge">
<title>Node37&#45;&gt;Node38</title>
<g id="a_edge56_Node000037_Node000038"><a xlink:title=" ">
<path fill="none" stroke="#63b8ff" d="M999.52,-335.47C1016.28,-333.48 1034.29,-331.5 1051,-330 1305.32,-307.15 1609.97,-292.96 1733.67,-287.76"/>
<polygon fill="#63b8ff" stroke="#63b8ff" points="1733.82,-291.25 1743.67,-287.34 1733.53,-284.26 1733.82,-291.25"/>
</a>
</g>
</g>
<!-- Node38&#45;&gt;Node25 -->
<g id="edge57_Node000038_Node000025" class="edge">
<title>Node38&#45;&gt;Node25</title>
<g id="a_edge57_Node000038_Node000025"><a xlink:title=" ">
<path fill="none" stroke="#63b8ff" d="M1793.03,-274.66C1799.07,-257.01 1812.75,-217.09 1820.79,-193.64"/>
<polygon fill="#63b8ff" stroke="#63b8ff" points="1824.1,-194.75 1824.03,-184.16 1817.48,-192.48 1824.1,-194.75"/>
</a>
</g>
</g>
<!-- Node38&#45;&gt;Node27 -->
<g id="edge58_Node000038_Node000027" class="edge">
<title>Node38&#45;&gt;Node27</title>
<g id="a_edge58_Node000038_Node000027"><a xlink:title=" ">
<path fill="none" stroke="#63b8ff" d="M1801.57,-274.98C1812.42,-267 1828.88,-254.88 1841.88,-245.31"/>
<polygon fill="#63b8ff" stroke="#63b8ff" points="1844.24,-247.92 1850.22,-239.17 1840.09,-242.28 1844.24,-247.92"/>
</a>
</g>
</g>
<!-- Node39&#45;&gt;Node4 -->
<g id="edge63_Node000039_Node000004" class="edge">
<title>Node39&#45;&gt;Node4</title>
<g id="a_edge63_Node000039_Node000004"><a xlink:title=" ">
<path fill="none" stroke="#63b8ff" d="M421.46,-395.87C426.87,-387.31 435.31,-373.97 442.1,-363.24"/>
<polygon fill="#63b8ff" stroke="#63b8ff" points="445.13,-364.99 447.52,-354.67 439.21,-361.25 445.13,-364.99"/>
</a>
</g>
</g>
<!-- Node39&#45;&gt;Node8 -->
<g id="edge64_Node000039_Node000008" class="edge">
<title>Node39&#45;&gt;Node8</title>
<g id="a_edge64_Node000039_Node000008"><a xlink:title=" ">
<path fill="none" stroke="#63b8ff" d="M394.19,-395.99C372.6,-387.57 338.9,-374.43 311.47,-363.73"/>
<polygon fill="#63b8ff" stroke="#63b8ff" points="312.65,-360.44 302.06,-360.06 310.11,-366.96 312.65,-360.44"/>
</a>
</g>
</g>
<!-- Node40&#45;&gt;Node29 -->
<g id="edge66_Node000040_Node000029" class="edge">
<title>Node40&#45;&gt;Node29</title>
<g id="a_edge66_Node000040_Node000029"><a xlink:title=" ">
<path fill="none" stroke="#63b8ff" d="M712.54,-274.95C747.51,-266.68 801.98,-253.63 857.95,-239.22"/>
<polygon fill="#63b8ff" stroke="#63b8ff" points="858.86,-242.6 867.67,-236.71 857.11,-235.82 858.86,-242.6"/>
</a>
</g>
</g>
<!-- Node40&#45;&gt;Node35 -->
<g id="edge67_Node000040_Node000035" class="edge">
<title>Node40&#45;&gt;Node35</title>
<g id="a_edge67_Node000040_Node000035"><a xlink:title=" ">
<path fill="none" stroke="#63b8ff" d="M652.06,-274.98C627.44,-266.23 588.88,-252.51 561.08,-242.62"/>
<polygon fill="#63b8ff" stroke="#63b8ff" points="561.97,-239.22 551.38,-239.17 559.62,-245.82 561.97,-239.22"/>
</a>
</g>
</g>
</g>
</svg>
