<?xml version="1.0" encoding="UTF-8" standalone="no"?>
<!DOCTYPE svg PUBLIC "-//W3C//DTD SVG 1.1//EN"
 "http://www.w3.org/Graphics/SVG/1.1/DTD/svg11.dtd">
<!-- Generated by graphviz version 2.43.0 (0)
 -->
<!-- Title: src/ui/widgets/SceneWidget.hpp Pages: 1 -->
<svg width="2515pt" height="442pt"
 viewBox="0.00 0.00 2514.50 442.00" xmlns="http://www.w3.org/2000/svg" xmlns:xlink="http://www.w3.org/1999/xlink">
<g id="graph0" class="graph" transform="scale(1 1) rotate(0) translate(4 438)">
<title>src/ui/widgets/SceneWidget.hpp</title>
<polygon fill="white" stroke="transparent" points="-4,4 -4,-438 2510.5,-438 2510.5,4 -4,4"/>
<!-- Node1 -->
<g id="node1" class="node">
<title>Node1</title>
<g id="a_node1"><a xlink:title="Contains the declaration of the SceneWidget class, a user interface widget for rendering scenes.">
<polygon fill="#bfbfbf" stroke="black" points="2005,-414.5 2005,-433.5 2177,-433.5 2177,-414.5 2005,-414.5"/>
<text text-anchor="middle" x="2091" y="-421.5" font-family="Helvetica,sans-Serif" font-size="10.00">src/ui/widgets/SceneWidget.hpp</text>
</a>
</g>
</g>
<!-- Node2 -->
<g id="node2" class="node">
<title>Node2</title>
<g id="a_node2"><a xlink:title=" ">
<polygon fill="white" stroke="#bfbfbf" points="1519,-168.5 1519,-187.5 1577,-187.5 1577,-168.5 1519,-168.5"/>
<text text-anchor="middle" x="1548" y="-175.5" font-family="Helvetica,sans-Serif" font-size="10.00">memory</text>
</a>
</g>
</g>
<!-- Node1&#45;&gt;Node2 -->
<g id="edge1" class="edge">
<title>Node1&#45;&gt;Node2</title>
<path fill="none" stroke="midnightblue" d="M2004.73,-419.34C1866.36,-411.53 1604.11,-388.2 1543,-322 1511.5,-287.87 1528.67,-227.32 1540.23,-197.15"/>
<polygon fill="midnightblue" stroke="midnightblue" points="1543.49,-198.42 1544,-187.83 1537,-195.79 1543.49,-198.42"/>
</g>
<!-- Node3 -->
<g id="node3" class="node">
<title>Node3</title>
<g id="a_node3"><a xlink:href="_types_8hpp.html" target="_top" xlink:title=" ">
<polygon fill="white" stroke="black" points="1815.5,-0.5 1815.5,-19.5 1928.5,-19.5 1928.5,-0.5 1815.5,-0.5"/>
<text text-anchor="middle" x="1872" y="-7.5" font-family="Helvetica,sans-Serif" font-size="10.00">Common/Types.hpp</text>
</a>
</g>
</g>
<!-- Node1&#45;&gt;Node3 -->
<g id="edge2" class="edge">
<title>Node1&#45;&gt;Node3</title>
<path fill="none" stroke="midnightblue" d="M2149.92,-414.45C2208.92,-402.16 2291,-373.26 2291,-307.5 2291,-307.5 2291,-307.5 2291,-121 2291,-73.44 2249.93,-74.23 2206,-56 2159.05,-36.52 2021.97,-22.75 1938.74,-15.92"/>
<polygon fill="midnightblue" stroke="midnightblue" points="1938.86,-12.42 1928.61,-15.1 1938.3,-19.39 1938.86,-12.42"/>
</g>
<!-- Node4 -->
<g id="node4" class="node">
<title>Node4</title>
<g id="a_node4"><a xlink:href="_shader_program_8hpp.html" target="_top" xlink:title=" ">
<polygon fill="white" stroke="black" points="897.5,-230 897.5,-249 1062.5,-249 1062.5,-230 897.5,-230"/>
<text text-anchor="middle" x="980" y="-237" font-family="Helvetica,sans-Serif" font-size="10.00">Rendering/ShaderProgram.hpp</text>
</a>
</g>
</g>
<!-- Node1&#45;&gt;Node4 -->
<g id="edge3" class="edge">
<title>Node1&#45;&gt;Node4</title>
<path fill="none" stroke="midnightblue" d="M2004.73,-421.55C1887.94,-418.45 1673.39,-408.68 1493,-378 1309.75,-346.83 1096.99,-279.49 1014.83,-252.27"/>
<polygon fill="midnightblue" stroke="midnightblue" points="1015.84,-248.91 1005.25,-249.08 1013.63,-255.56 1015.84,-248.91"/>
</g>
<!-- Node12 -->
<g id="node12" class="node">
<title>Node12</title>
<g id="a_node12"><a xlink:href="_runtime_8hpp.html" target="_top" xlink:title=" ">
<polygon fill="white" stroke="black" points="1830.5,-358.5 1830.5,-377.5 1953.5,-377.5 1953.5,-358.5 1830.5,-358.5"/>
<text text-anchor="middle" x="1892" y="-365.5" font-family="Helvetica,sans-Serif" font-size="10.00">Runtime/Runtime.hpp</text>
</a>
</g>
</g>
<!-- Node1&#45;&gt;Node12 -->
<g id="edge13" class="edge">
<title>Node1&#45;&gt;Node12</title>
<path fill="none" stroke="midnightblue" d="M2059.47,-414.44C2025.41,-405.2 1970.99,-390.44 1933.48,-380.26"/>
<polygon fill="midnightblue" stroke="midnightblue" points="1933.95,-376.76 1923.38,-377.52 1932.12,-383.51 1933.95,-376.76"/>
</g>
<!-- Node38 -->
<g id="node38" class="node">
<title>Node38</title>
<g id="a_node38"><a xlink:title=" ">
<polygon fill="white" stroke="#bfbfbf" points="2319,-358.5 2319,-377.5 2405,-377.5 2405,-358.5 2319,-358.5"/>
<text text-anchor="middle" x="2362" y="-365.5" font-family="Helvetica,sans-Serif" font-size="10.00">UI/Widget.hpp</text>
</a>
</g>
</g>
<!-- Node1&#45;&gt;Node38 -->
<g id="edge75" class="edge">
<title>Node1&#45;&gt;Node38</title>
<path fill="none" stroke="midnightblue" d="M2133.94,-414.44C2181.51,-404.96 2258.24,-389.67 2309.39,-379.48"/>
<polygon fill="midnightblue" stroke="midnightblue" points="2310.14,-382.9 2319.26,-377.52 2308.77,-376.04 2310.14,-382.9"/>
</g>
<!-- Node39 -->
<g id="node39" class="node">
<title>Node39</title>
<g id="a_node39"><a xlink:title=" ">
<polygon fill="white" stroke="#bfbfbf" points="2423.5,-358.5 2423.5,-377.5 2506.5,-377.5 2506.5,-358.5 2423.5,-358.5"/>
<text text-anchor="middle" x="2465" y="-365.5" font-family="Helvetica,sans-Serif" font-size="10.00">GLFW/glfw3.h</text>
</a>
</g>
</g>
<!-- Node1&#45;&gt;Node39 -->
<g id="edge76" class="edge">
<title>Node1&#45;&gt;Node39</title>
<path fill="none" stroke="midnightblue" d="M2157.3,-414.48C2220.43,-406.2 2318.38,-392.94 2413.22,-378.07"/>
<polygon fill="midnightblue" stroke="midnightblue" points="2413.94,-381.5 2423.27,-376.49 2412.85,-374.59 2413.94,-381.5"/>
</g>
<!-- Node4&#45;&gt;Node2 -->
<g id="edge6" class="edge">
<title>Node4&#45;&gt;Node2</title>
<path fill="none" stroke="midnightblue" d="M1030.05,-229.99C1043.64,-227.85 1058.36,-225.69 1072,-224 1249.15,-202.09 1294.46,-206.5 1472,-188 1483.96,-186.75 1496.96,-185.26 1508.77,-183.86"/>
<polygon fill="midnightblue" stroke="midnightblue" points="1509.28,-187.32 1518.79,-182.65 1508.44,-180.37 1509.28,-187.32"/>
</g>
<!-- Node5 -->
<g id="node5" class="node">
<title>Node5</title>
<g id="a_node5"><a xlink:title=" ">
<polygon fill="white" stroke="#bfbfbf" points="1081.5,-112.5 1081.5,-131.5 1152.5,-131.5 1152.5,-112.5 1081.5,-112.5"/>
<text text-anchor="middle" x="1117" y="-119.5" font-family="Helvetica,sans-Serif" font-size="10.00">glad/glad.h</text>
</a>
</g>
</g>
<!-- Node4&#45;&gt;Node5 -->
<g id="edge4" class="edge">
<title>Node4&#45;&gt;Node5</title>
<path fill="none" stroke="midnightblue" d="M996.01,-229.99C1012.62,-220.78 1038.92,-205.1 1059,-188 1076.19,-173.36 1093.06,-153.69 1104.13,-139.83"/>
<polygon fill="midnightblue" stroke="midnightblue" points="1107.1,-141.71 1110.52,-131.68 1101.59,-137.39 1107.1,-141.71"/>
</g>
<!-- Node6 -->
<g id="node6" class="node">
<title>Node6</title>
<g id="a_node6"><a xlink:title=" ">
<polygon fill="white" stroke="#bfbfbf" points="0,-0.5 0,-19.5 78,-19.5 78,-0.5 0,-0.5"/>
<text text-anchor="middle" x="39" y="-7.5" font-family="Helvetica,sans-Serif" font-size="10.00">glm/glm.hpp</text>
</a>
</g>
</g>
<!-- Node4&#45;&gt;Node6 -->
<g id="edge5" class="edge">
<title>Node4&#45;&gt;Node6</title>
<path fill="none" stroke="midnightblue" d="M921.3,-230C871.57,-221.6 805.48,-207.23 787,-188 745.38,-144.69 803.61,-95.09 758,-56 707.4,-12.64 242.81,-10.29 88.54,-10.71"/>
<polygon fill="midnightblue" stroke="midnightblue" points="88.39,-7.22 78.4,-10.75 88.41,-14.22 88.39,-7.22"/>
</g>
<!-- Node7 -->
<g id="node7" class="node">
<title>Node7</title>
<g id="a_node7"><a xlink:title=" ">
<polygon fill="white" stroke="#bfbfbf" points="705,-56.5 705,-75.5 749,-75.5 749,-56.5 705,-56.5"/>
<text text-anchor="middle" x="727" y="-63.5" font-family="Helvetica,sans-Serif" font-size="10.00">string</text>
</a>
</g>
</g>
<!-- Node4&#45;&gt;Node7 -->
<g id="edge7" class="edge">
<title>Node4&#45;&gt;Node7</title>
<path fill="none" stroke="midnightblue" d="M901.88,-230C845.1,-222.22 774.71,-208.72 754,-188 726.83,-160.82 724.42,-112.68 725.46,-86.05"/>
<polygon fill="midnightblue" stroke="midnightblue" points="728.97,-85.97 726.07,-75.78 721.98,-85.55 728.97,-85.97"/>
</g>
<!-- Node8 -->
<g id="node8" class="node">
<title>Node8</title>
<g id="a_node8"><a xlink:title=" ">
<polygon fill="white" stroke="#bfbfbf" points="957.5,-168.5 957.5,-187.5 1050.5,-187.5 1050.5,-168.5 957.5,-168.5"/>
<text text-anchor="middle" x="1004" y="-175.5" font-family="Helvetica,sans-Serif" font-size="10.00">unordered_map</text>
</a>
</g>
</g>
<!-- Node4&#45;&gt;Node8 -->
<g id="edge8" class="edge">
<title>Node4&#45;&gt;Node8</title>
<path fill="none" stroke="midnightblue" d="M983.44,-229.98C986.9,-221.4 992.33,-207.93 996.75,-196.98"/>
<polygon fill="midnightblue" stroke="midnightblue" points="1000.07,-198.09 1000.57,-187.51 993.58,-195.47 1000.07,-198.09"/>
</g>
<!-- Node9 -->
<g id="node9" class="node">
<title>Node9</title>
<g id="a_node9"><a xlink:href="_shader_8hpp.html" target="_top" xlink:title=" ">
<polygon fill="white" stroke="black" points="796.5,-168.5 796.5,-187.5 939.5,-187.5 939.5,-168.5 796.5,-168.5"/>
<text text-anchor="middle" x="868" y="-175.5" font-family="Helvetica,sans-Serif" font-size="10.00">AssetManager/Shader.hpp</text>
</a>
</g>
</g>
<!-- Node4&#45;&gt;Node9 -->
<g id="edge9" class="edge">
<title>Node4&#45;&gt;Node9</title>
<path fill="none" stroke="midnightblue" d="M963.95,-229.98C945.41,-220.12 914.66,-203.79 892.98,-192.27"/>
<polygon fill="midnightblue" stroke="midnightblue" points="894.49,-189.11 884.02,-187.51 891.21,-195.29 894.49,-189.11"/>
</g>
<!-- Node9&#45;&gt;Node5 -->
<g id="edge10" class="edge">
<title>Node9&#45;&gt;Node5</title>
<path fill="none" stroke="midnightblue" d="M907.45,-168.44C952.04,-158.77 1024.51,-143.06 1071.46,-132.88"/>
<polygon fill="midnightblue" stroke="midnightblue" points="1072.33,-136.27 1081.36,-130.73 1070.85,-129.43 1072.33,-136.27"/>
</g>
<!-- Node10 -->
<g id="node10" class="node">
<title>Node10</title>
<g id="a_node10"><a xlink:href="_asset_8hpp.html" target="_top" xlink:title=" ">
<polygon fill="white" stroke="black" points="1114.5,-56.5 1114.5,-75.5 1251.5,-75.5 1251.5,-56.5 1114.5,-56.5"/>
<text text-anchor="middle" x="1183" y="-63.5" font-family="Helvetica,sans-Serif" font-size="10.00">AssetManager/Asset.hpp</text>
</a>
</g>
</g>
<!-- Node9&#45;&gt;Node10 -->
<g id="edge11" class="edge">
<title>Node9&#45;&gt;Node10</title>
<path fill="none" stroke="midnightblue" d="M892.46,-168.46C948.16,-149.01 1084.62,-101.36 1148.7,-78.98"/>
<polygon fill="midnightblue" stroke="midnightblue" points="1150.06,-82.21 1158.34,-75.61 1147.75,-75.6 1150.06,-82.21"/>
</g>
<!-- Node11 -->
<g id="node11" class="node">
<title>Node11</title>
<g id="a_node11"><a xlink:title=" ">
<polygon fill="white" stroke="#bfbfbf" points="1198,-0.5 1198,-19.5 1266,-19.5 1266,-0.5 1198,-0.5"/>
<text text-anchor="middle" x="1232" y="-7.5" font-family="Helvetica,sans-Serif" font-size="10.00">filesystem</text>
</a>
</g>
</g>
<!-- Node10&#45;&gt;Node11 -->
<g id="edge12" class="edge">
<title>Node10&#45;&gt;Node11</title>
<path fill="none" stroke="midnightblue" d="M1191.09,-56.08C1198.16,-48.3 1208.59,-36.8 1217.15,-27.37"/>
<polygon fill="midnightblue" stroke="midnightblue" points="1219.93,-29.51 1224.06,-19.75 1214.75,-24.8 1219.93,-29.51"/>
</g>
<!-- Node12&#45;&gt;Node2 -->
<g id="edge14" class="edge">
<title>Node12&#45;&gt;Node2</title>
<path fill="none" stroke="midnightblue" d="M1830.22,-367.23C1745.56,-366.13 1599.87,-358.77 1564,-322 1531.52,-288.7 1537.83,-228.18 1543.68,-197.66"/>
<polygon fill="midnightblue" stroke="midnightblue" points="1547.17,-198.06 1545.82,-187.55 1540.32,-196.61 1547.17,-198.06"/>
</g>
<!-- Node12&#45;&gt;Node3 -->
<g id="edge22" class="edge">
<title>Node12&#45;&gt;Node3</title>
<path fill="none" stroke="midnightblue" d="M1953.61,-367.03C2040.78,-365.76 2194.01,-358.25 2234,-322 2261.56,-297.02 2253,-277.69 2253,-240.5 2253,-240.5 2253,-240.5 2253,-121 2253,-56.39 2048.19,-27.39 1938.9,-16.51"/>
<polygon fill="midnightblue" stroke="midnightblue" points="1938.92,-13 1928.63,-15.52 1938.24,-19.97 1938.92,-13"/>
</g>
<!-- Node13 -->
<g id="node13" class="node">
<title>Node13</title>
<g id="a_node13"><a xlink:href="_registry_8hpp.html" target="_top" xlink:title=" ">
<polygon fill="white" stroke="black" points="1843,-230 1843,-249 1941,-249 1941,-230 1843,-230"/>
<text text-anchor="middle" x="1892" y="-237" font-family="Helvetica,sans-Serif" font-size="10.00">ECS/Registry.hpp</text>
</a>
</g>
</g>
<!-- Node12&#45;&gt;Node13 -->
<g id="edge15" class="edge">
<title>Node12&#45;&gt;Node13</title>
<path fill="none" stroke="midnightblue" d="M1948.69,-358.5C1970.35,-352.18 1992.95,-341.18 2006,-322 2013.75,-310.61 2013.51,-302.55 2006,-291 1993.36,-271.57 1971.34,-259.56 1950,-252.16"/>
<polygon fill="midnightblue" stroke="midnightblue" points="1950.88,-248.76 1940.29,-249.07 1948.76,-255.44 1950.88,-248.76"/>
</g>
<!-- Node19 -->
<g id="node19" class="node">
<title>Node19</title>
<g id="a_node19"><a xlink:href="_camera_movement_system_8hpp.html" target="_top" xlink:title=" ">
<polygon fill="white" stroke="black" points="1787,-297 1787,-316 1997,-316 1997,-297 1787,-297"/>
<text text-anchor="middle" x="1892" y="-304" font-family="Helvetica,sans-Serif" font-size="10.00">Systems/CameraMovementSystem.hpp</text>
</a>
</g>
</g>
<!-- Node12&#45;&gt;Node19 -->
<g id="edge23" class="edge">
<title>Node12&#45;&gt;Node19</title>
<path fill="none" stroke="midnightblue" d="M1892,-358.48C1892,-350.08 1892,-336.98 1892,-326.16"/>
<polygon fill="midnightblue" stroke="midnightblue" points="1895.5,-326.01 1892,-316.01 1888.5,-326.01 1895.5,-326.01"/>
</g>
<!-- Node20 -->
<g id="node20" class="node">
<title>Node20</title>
<g id="a_node20"><a xlink:href="_rendering_system_8hpp.html" target="_top" xlink:title=" ">
<polygon fill="white" stroke="black" points="1310.5,-297 1310.5,-316 1479.5,-316 1479.5,-297 1310.5,-297"/>
<text text-anchor="middle" x="1395" y="-304" font-family="Helvetica,sans-Serif" font-size="10.00">Systems/RenderingSystem.hpp</text>
</a>
</g>
</g>
<!-- Node12&#45;&gt;Node20 -->
<g id="edge26" class="edge">
<title>Node12&#45;&gt;Node20</title>
<path fill="none" stroke="midnightblue" d="M1830.31,-359.61C1740.96,-348.92 1575.41,-329.1 1476.22,-317.22"/>
<polygon fill="midnightblue" stroke="midnightblue" points="1476.59,-313.74 1466.25,-316.03 1475.76,-320.69 1476.59,-313.74"/>
</g>
<!-- Node30 -->
<g id="node30" class="node">
<title>Node30</title>
<g id="a_node30"><a xlink:href="_scene_frame_buffer_8hpp.html" target="_top" xlink:title=" ">
<polygon fill="white" stroke="black" points="1233,-224.5 1233,-254.5 1367,-254.5 1367,-224.5 1233,-224.5"/>
<text text-anchor="start" x="1241" y="-242.5" font-family="Helvetica,sans-Serif" font-size="10.00">Rendering/FrameBuffers</text>
<text text-anchor="middle" x="1300" y="-231.5" font-family="Helvetica,sans-Serif" font-size="10.00">/SceneFrameBuffer.hpp</text>
</a>
</g>
</g>
<!-- Node12&#45;&gt;Node30 -->
<g id="edge74" class="edge">
<title>Node12&#45;&gt;Node30</title>
<path fill="none" stroke="midnightblue" d="M1830.29,-366.9C1686.12,-366.04 1336.67,-360.01 1301,-322 1286.92,-306.99 1288.51,-282.73 1292.52,-264.57"/>
<polygon fill="midnightblue" stroke="midnightblue" points="1295.96,-265.26 1295.06,-254.7 1289.18,-263.52 1295.96,-265.26"/>
</g>
<!-- Node36 -->
<g id="node36" class="node">
<title>Node36</title>
<g id="a_node36"><a xlink:href="_development_renderer_system_8hpp.html" target="_top" xlink:title=" ">
<polygon fill="white" stroke="black" points="2053,-291.5 2053,-321.5 2225,-321.5 2225,-291.5 2053,-291.5"/>
<text text-anchor="start" x="2061" y="-309.5" font-family="Helvetica,sans-Serif" font-size="10.00">Systems/DevelopmentRenderer</text>
<text text-anchor="middle" x="2139" y="-298.5" font-family="Helvetica,sans-Serif" font-size="10.00">System.hpp</text>
</a>
</g>
</g>
<!-- Node12&#45;&gt;Node36 -->
<g id="edge67" class="edge">
<title>Node12&#45;&gt;Node36</title>
<path fill="none" stroke="midnightblue" d="M1927.39,-358.48C1964.67,-349.49 2024.31,-335.13 2070.78,-323.93"/>
<polygon fill="midnightblue" stroke="midnightblue" points="2071.88,-327.27 2080.79,-321.52 2070.25,-320.46 2071.88,-327.27"/>
</g>
<!-- Node37 -->
<g id="node37" class="node">
<title>Node37</title>
<g id="a_node37"><a xlink:href="_object_selection_system_8hpp.html" target="_top" xlink:title=" ">
<polygon fill="white" stroke="black" points="1573,-297 1573,-316 1769,-316 1769,-297 1573,-297"/>
<text text-anchor="middle" x="1671" y="-304" font-family="Helvetica,sans-Serif" font-size="10.00">Systems/ObjectSelectionSystem.hpp</text>
</a>
</g>
</g>
<!-- Node12&#45;&gt;Node37 -->
<g id="edge71" class="edge">
<title>Node12&#45;&gt;Node37</title>
<path fill="none" stroke="midnightblue" d="M1860.34,-358.48C1821.44,-348 1755.36,-330.21 1712.45,-318.66"/>
<polygon fill="midnightblue" stroke="midnightblue" points="1713.17,-315.23 1702.61,-316.01 1711.35,-321.99 1713.17,-315.23"/>
</g>
<!-- Node14 -->
<g id="node14" class="node">
<title>Node14</title>
<g id="a_node14"><a xlink:title=" ">
<polygon fill="white" stroke="#bfbfbf" points="1734,-168.5 1734,-187.5 1820,-187.5 1820,-168.5 1734,-168.5"/>
<text text-anchor="middle" x="1777" y="-175.5" font-family="Helvetica,sans-Serif" font-size="10.00">unordered_set</text>
</a>
</g>
</g>
<!-- Node13&#45;&gt;Node14 -->
<g id="edge16" class="edge">
<title>Node13&#45;&gt;Node14</title>
<path fill="none" stroke="midnightblue" d="M1875.52,-229.98C1856.39,-220.08 1824.63,-203.64 1802.35,-192.12"/>
<polygon fill="midnightblue" stroke="midnightblue" points="1803.94,-189 1793.45,-187.51 1800.72,-195.21 1803.94,-189"/>
</g>
<!-- Node15 -->
<g id="node15" class="node">
<title>Node15</title>
<g id="a_node15"><a xlink:href="_entity_provider_8hpp.html" target="_top" xlink:title="Manages a pool of unused entity identifiers and provides mechanisms for requesting and removing them.">
<polygon fill="white" stroke="black" points="1869,-112.5 1869,-131.5 1997,-131.5 1997,-112.5 1869,-112.5"/>
<text text-anchor="middle" x="1933" y="-119.5" font-family="Helvetica,sans-Serif" font-size="10.00">ECS/EntityProvider.hpp</text>
</a>
</g>
</g>
<!-- Node13&#45;&gt;Node15 -->
<g id="edge17" class="edge">
<title>Node13&#45;&gt;Node15</title>
<path fill="none" stroke="midnightblue" d="M1909.88,-229.94C1925.03,-221.6 1945.72,-207.33 1955,-188 1962.54,-172.29 1954.28,-153.32 1945.82,-139.94"/>
<polygon fill="midnightblue" stroke="midnightblue" points="1948.68,-137.92 1940.12,-131.67 1942.92,-141.89 1948.68,-137.92"/>
</g>
<!-- Node18 -->
<g id="node18" class="node">
<title>Node18</title>
<g id="a_node18"><a xlink:href="_sparse_set_8hpp.html" target="_top" xlink:title=" ">
<polygon fill="white" stroke="black" points="1838,-168.5 1838,-187.5 1946,-187.5 1946,-168.5 1838,-168.5"/>
<text text-anchor="middle" x="1892" y="-175.5" font-family="Helvetica,sans-Serif" font-size="10.00">ECS/SparseSet.hpp</text>
</a>
</g>
</g>
<!-- Node13&#45;&gt;Node18 -->
<g id="edge20" class="edge">
<title>Node13&#45;&gt;Node18</title>
<path fill="none" stroke="midnightblue" d="M1892,-229.98C1892,-221.58 1892,-208.48 1892,-197.66"/>
<polygon fill="midnightblue" stroke="midnightblue" points="1895.5,-197.51 1892,-187.51 1888.5,-197.51 1895.5,-197.51"/>
</g>
<!-- Node16 -->
<g id="node16" class="node">
<title>Node16</title>
<g id="a_node16"><a xlink:title=" ">
<polygon fill="white" stroke="#bfbfbf" points="1940.5,-56.5 1940.5,-75.5 1993.5,-75.5 1993.5,-56.5 1940.5,-56.5"/>
<text text-anchor="middle" x="1967" y="-63.5" font-family="Helvetica,sans-Serif" font-size="10.00">stdlib.h</text>
</a>
</g>
</g>
<!-- Node15&#45;&gt;Node16 -->
<g id="edge18" class="edge">
<title>Node15&#45;&gt;Node16</title>
<path fill="none" stroke="midnightblue" d="M1938.61,-112.08C1943.37,-104.53 1950.32,-93.49 1956.15,-84.23"/>
<polygon fill="midnightblue" stroke="midnightblue" points="1959.12,-86.08 1961.49,-75.75 1953.2,-82.35 1959.12,-86.08"/>
</g>
<!-- Node17 -->
<g id="node17" class="node">
<title>Node17</title>
<g id="a_node17"><a xlink:title=" ">
<polygon fill="white" stroke="#bfbfbf" points="1875.5,-56.5 1875.5,-75.5 1922.5,-75.5 1922.5,-56.5 1875.5,-56.5"/>
<text text-anchor="middle" x="1899" y="-63.5" font-family="Helvetica,sans-Serif" font-size="10.00">queue</text>
</a>
</g>
</g>
<!-- Node15&#45;&gt;Node17 -->
<g id="edge19" class="edge">
<title>Node15&#45;&gt;Node17</title>
<path fill="none" stroke="midnightblue" d="M1927.39,-112.08C1922.63,-104.53 1915.68,-93.49 1909.85,-84.23"/>
<polygon fill="midnightblue" stroke="midnightblue" points="1912.8,-82.35 1904.51,-75.75 1906.88,-86.08 1912.8,-82.35"/>
</g>
<!-- Node18&#45;&gt;Node15 -->
<g id="edge21" class="edge">
<title>Node18&#45;&gt;Node15</title>
<path fill="none" stroke="midnightblue" d="M1898.77,-168.08C1904.56,-160.46 1913.06,-149.26 1920.14,-139.94"/>
<polygon fill="midnightblue" stroke="midnightblue" points="1923.1,-141.83 1926.36,-131.75 1917.52,-137.6 1923.1,-141.83"/>
</g>
<!-- Node19&#45;&gt;Node2 -->
<g id="edge24" class="edge">
<title>Node19&#45;&gt;Node2</title>
<path fill="none" stroke="midnightblue" d="M1868.63,-296.9C1808.81,-274.91 1650.05,-216.53 1580.93,-191.11"/>
<polygon fill="midnightblue" stroke="midnightblue" points="1582,-187.77 1571.41,-187.61 1579.58,-194.34 1582,-187.77"/>
</g>
<!-- Node19&#45;&gt;Node13 -->
<g id="edge25" class="edge">
<title>Node19&#45;&gt;Node13</title>
<path fill="none" stroke="midnightblue" d="M1892,-296.73C1892,-287.18 1892,-271.62 1892,-259.28"/>
<polygon fill="midnightblue" stroke="midnightblue" points="1895.5,-259.13 1892,-249.13 1888.5,-259.13 1895.5,-259.13"/>
</g>
<!-- Node20&#45;&gt;Node2 -->
<g id="edge27" class="edge">
<title>Node20&#45;&gt;Node2</title>
<path fill="none" stroke="midnightblue" d="M1405.52,-296.81C1431.17,-275.59 1497.24,-220.96 1529.6,-194.22"/>
<polygon fill="midnightblue" stroke="midnightblue" points="1531.93,-196.83 1537.41,-187.76 1527.47,-191.43 1531.93,-196.83"/>
</g>
<!-- Node20&#45;&gt;Node3 -->
<g id="edge28" class="edge">
<title>Node20&#45;&gt;Node3</title>
<path fill="none" stroke="midnightblue" d="M1399.77,-297C1413.6,-273.08 1456.22,-204.58 1510,-168 1617.16,-95.11 1763.65,-44.21 1832.8,-22.6"/>
<polygon fill="midnightblue" stroke="midnightblue" points="1833.91,-25.92 1842.43,-19.63 1831.85,-19.24 1833.91,-25.92"/>
</g>
<!-- Node20&#45;&gt;Node4 -->
<g id="edge49" class="edge">
<title>Node20&#45;&gt;Node4</title>
<path fill="none" stroke="midnightblue" d="M1340.42,-296.99C1276.19,-286.97 1166.34,-269.81 1072,-255 1062.97,-253.58 1053.44,-252.08 1044.07,-250.61"/>
<polygon fill="midnightblue" stroke="midnightblue" points="1044.42,-247.12 1034,-249.02 1043.33,-254.04 1044.42,-247.12"/>
</g>
<!-- Node20&#45;&gt;Node13 -->
<g id="edge29" class="edge">
<title>Node20&#45;&gt;Node13</title>
<path fill="none" stroke="midnightblue" d="M1460.23,-296.97C1557.45,-284.25 1738.94,-260.52 1832.64,-248.26"/>
<polygon fill="midnightblue" stroke="midnightblue" points="1833.33,-251.7 1842.79,-246.94 1832.42,-244.76 1833.33,-251.7"/>
</g>
<!-- Node21 -->
<g id="node21" class="node">
<title>Node21</title>
<g id="a_node21"><a xlink:href="_directional_light_component_8hpp.html" target="_top" xlink:title=" ">
<polygon fill="white" stroke="black" points="373,-224.5 373,-254.5 531,-254.5 531,-224.5 373,-224.5"/>
<text text-anchor="start" x="381" y="-242.5" font-family="Helvetica,sans-Serif" font-size="10.00">Components/DirectionalLight</text>
<text text-anchor="middle" x="452" y="-231.5" font-family="Helvetica,sans-Serif" font-size="10.00">Component.hpp</text>
</a>
</g>
</g>
<!-- Node20&#45;&gt;Node21 -->
<g id="edge30" class="edge">
<title>Node20&#45;&gt;Node21</title>
<path fill="none" stroke="midnightblue" d="M1310.49,-299.67C1133.01,-287.44 722.98,-259.18 541.36,-246.66"/>
<polygon fill="midnightblue" stroke="midnightblue" points="541.53,-243.16 531.31,-245.97 541.04,-250.15 541.53,-243.16"/>
</g>
<!-- Node20&#45;&gt;Node30 -->
<g id="edge50" class="edge">
<title>Node20&#45;&gt;Node30</title>
<path fill="none" stroke="midnightblue" d="M1382.19,-296.73C1368.61,-287.44 1346.71,-272.46 1328.93,-260.3"/>
<polygon fill="midnightblue" stroke="midnightblue" points="1330.82,-257.35 1320.59,-254.59 1326.87,-263.12 1330.82,-257.35"/>
</g>
<!-- Node33 -->
<g id="node33" class="node">
<title>Node33</title>
<g id="a_node33"><a xlink:href="_depth_frame_buffer_8hpp.html" target="_top" xlink:title=" ">
<polygon fill="white" stroke="black" points="1081,-224.5 1081,-254.5 1215,-254.5 1215,-224.5 1081,-224.5"/>
<text text-anchor="start" x="1089" y="-242.5" font-family="Helvetica,sans-Serif" font-size="10.00">Rendering/FrameBuffers</text>
<text text-anchor="middle" x="1148" y="-231.5" font-family="Helvetica,sans-Serif" font-size="10.00">/DepthFrameBuffer.hpp</text>
</a>
</g>
</g>
<!-- Node20&#45;&gt;Node33 -->
<g id="edge58" class="edge">
<title>Node20&#45;&gt;Node33</title>
<path fill="none" stroke="midnightblue" d="M1362.46,-296.94C1324.1,-286.84 1259.47,-269.83 1211.16,-257.12"/>
<polygon fill="midnightblue" stroke="midnightblue" points="1211.99,-253.72 1201.42,-254.56 1210.2,-260.49 1211.99,-253.72"/>
</g>
<!-- Node34 -->
<g id="node34" class="node">
<title>Node34</title>
<g id="a_node34"><a xlink:href="_cube_map_8hpp.html" target="_top" xlink:title=" ">
<polygon fill="white" stroke="black" points="1327,-168.5 1327,-187.5 1463,-187.5 1463,-168.5 1327,-168.5"/>
<text text-anchor="middle" x="1395" y="-175.5" font-family="Helvetica,sans-Serif" font-size="10.00">Rendering/CubeMap.hpp</text>
</a>
</g>
</g>
<!-- Node20&#45;&gt;Node34 -->
<g id="edge62" class="edge">
<title>Node20&#45;&gt;Node34</title>
<path fill="none" stroke="midnightblue" d="M1395,-296.81C1395,-276.49 1395,-225.55 1395,-197.78"/>
<polygon fill="midnightblue" stroke="midnightblue" points="1398.5,-197.76 1395,-187.76 1391.5,-197.76 1398.5,-197.76"/>
</g>
<!-- Node21&#45;&gt;Node6 -->
<g id="edge33" class="edge">
<title>Node21&#45;&gt;Node6</title>
<path fill="none" stroke="midnightblue" d="M372.92,-231.94C309.2,-225.17 217.86,-212.09 141,-188 85.99,-170.76 60.83,-176.35 24,-132 2,-105.51 -0.98,-88.95 9,-56 12.12,-45.7 18.45,-35.61 24.5,-27.6"/>
<polygon fill="midnightblue" stroke="midnightblue" points="27.23,-29.8 30.79,-19.82 21.78,-25.4 27.23,-29.8"/>
</g>
<!-- Node21&#45;&gt;Node7 -->
<g id="edge31" class="edge">
<title>Node21&#45;&gt;Node7</title>
<path fill="none" stroke="midnightblue" d="M452.2,-224.3C453.15,-208.68 456.98,-183.69 471,-168 486.67,-150.46 629.77,-100.12 694.94,-77.84"/>
<polygon fill="midnightblue" stroke="midnightblue" points="696.36,-81.05 704.69,-74.51 694.1,-74.43 696.36,-81.05"/>
</g>
<!-- Node22 -->
<g id="node22" class="node">
<title>Node22</title>
<g id="a_node22"><a xlink:title=" ">
<polygon fill="white" stroke="#bfbfbf" points="480,-168.5 480,-187.5 540,-187.5 540,-168.5 480,-168.5"/>
<text text-anchor="middle" x="510" y="-175.5" font-family="Helvetica,sans-Serif" font-size="10.00">iostream</text>
</a>
</g>
</g>
<!-- Node21&#45;&gt;Node22 -->
<g id="edge32" class="edge">
<title>Node21&#45;&gt;Node22</title>
<path fill="none" stroke="midnightblue" d="M465.75,-224.4C474.35,-215.58 485.45,-204.18 494.39,-195.02"/>
<polygon fill="midnightblue" stroke="midnightblue" points="497.09,-197.26 501.56,-187.66 492.07,-192.38 497.09,-197.26"/>
</g>
<!-- Node23 -->
<g id="node23" class="node">
<title>Node23</title>
<g id="a_node23"><a xlink:href="_base_component_8hpp.html" target="_top" xlink:title=" ">
<polygon fill="white" stroke="black" points="505,-56.5 505,-75.5 687,-75.5 687,-56.5 505,-56.5"/>
<text text-anchor="middle" x="596" y="-63.5" font-family="Helvetica,sans-Serif" font-size="10.00">Components/BaseComponent.hpp</text>
</a>
</g>
</g>
<!-- Node21&#45;&gt;Node23 -->
<g id="edge34" class="edge">
<title>Node21&#45;&gt;Node23</title>
<path fill="none" stroke="midnightblue" d="M494.11,-224.43C513.01,-216.31 534.3,-204.4 549,-188 575.73,-158.17 587.99,-111.45 593,-85.66"/>
<polygon fill="midnightblue" stroke="midnightblue" points="596.46,-86.17 594.77,-75.71 589.57,-84.94 596.46,-86.17"/>
</g>
<!-- Node24 -->
<g id="node24" class="node">
<title>Node24</title>
<g id="a_node24"><a xlink:href="_transform_component_8hpp.html" target="_top" xlink:title=" ">
<polygon fill="white" stroke="black" points="272.5,-112.5 272.5,-131.5 479.5,-131.5 479.5,-112.5 272.5,-112.5"/>
<text text-anchor="middle" x="376" y="-119.5" font-family="Helvetica,sans-Serif" font-size="10.00">Components/TransformComponent.hpp</text>
</a>
</g>
</g>
<!-- Node21&#45;&gt;Node24 -->
<g id="edge36" class="edge">
<title>Node21&#45;&gt;Node24</title>
<path fill="none" stroke="midnightblue" d="M442.68,-224.34C428.68,-203.05 402.25,-162.89 387.21,-140.03"/>
<polygon fill="midnightblue" stroke="midnightblue" points="390.13,-138.1 381.7,-131.67 384.28,-141.95 390.13,-138.1"/>
</g>
<!-- Node28 -->
<g id="node28" class="node">
<title>Node28</title>
<g id="a_node28"><a xlink:href="_camera_component_8hpp.html" target="_top" xlink:title=" ">
<polygon fill="white" stroke="black" points="150.5,-168.5 150.5,-187.5 347.5,-187.5 347.5,-168.5 150.5,-168.5"/>
<text text-anchor="middle" x="249" y="-175.5" font-family="Helvetica,sans-Serif" font-size="10.00">Components/CameraComponent.hpp</text>
</a>
</g>
</g>
<!-- Node21&#45;&gt;Node28 -->
<g id="edge44" class="edge">
<title>Node21&#45;&gt;Node28</title>
<path fill="none" stroke="midnightblue" d="M404.15,-224.47C368.67,-214.08 320.91,-200.08 287.8,-190.37"/>
<polygon fill="midnightblue" stroke="midnightblue" points="288.6,-186.96 278.02,-187.51 286.63,-193.68 288.6,-186.96"/>
</g>
<!-- Node23&#45;&gt;Node3 -->
<g id="edge35" class="edge">
<title>Node23&#45;&gt;Node3</title>
<path fill="none" stroke="midnightblue" d="M687,-56.61C690.04,-56.39 693.04,-56.19 696,-56 1117.78,-28.97 1625.78,-16.24 1805.26,-12.35"/>
<polygon fill="midnightblue" stroke="midnightblue" points="1805.42,-15.85 1815.34,-12.13 1805.27,-8.85 1805.42,-15.85"/>
</g>
<!-- Node24&#45;&gt;Node6 -->
<g id="edge38" class="edge">
<title>Node24&#45;&gt;Node6</title>
<path fill="none" stroke="midnightblue" d="M369.75,-112.13C359.08,-97.75 335.91,-69.59 309,-56 238.12,-20.2 144.73,-11.96 88.42,-10.56"/>
<polygon fill="midnightblue" stroke="midnightblue" points="88.42,-7.06 78.35,-10.37 88.29,-14.06 88.42,-7.06"/>
</g>
<!-- Node24&#45;&gt;Node7 -->
<g id="edge37" class="edge">
<title>Node24&#45;&gt;Node7</title>
<path fill="none" stroke="midnightblue" d="M460.12,-112.5C522.59,-105.41 609.96,-93.88 694.93,-75.97"/>
<polygon fill="midnightblue" stroke="midnightblue" points="695.7,-79.39 704.75,-73.87 694.23,-72.54 695.7,-79.39"/>
</g>
<!-- Node24&#45;&gt;Node23 -->
<g id="edge43" class="edge">
<title>Node24&#45;&gt;Node23</title>
<path fill="none" stroke="midnightblue" d="M410.86,-112.44C448.92,-103.1 509.96,-88.12 551.46,-77.93"/>
<polygon fill="midnightblue" stroke="midnightblue" points="552.43,-81.3 561.3,-75.52 550.76,-74.5 552.43,-81.3"/>
</g>
<!-- Node25 -->
<g id="node25" class="node">
<title>Node25</title>
<g id="a_node25"><a xlink:title=" ">
<polygon fill="white" stroke="#bfbfbf" points="357,-56.5 357,-75.5 487,-75.5 487,-56.5 357,-56.5"/>
<text text-anchor="middle" x="422" y="-63.5" font-family="Helvetica,sans-Serif" font-size="10.00">glm/gtc/quaternion.hpp</text>
</a>
</g>
</g>
<!-- Node24&#45;&gt;Node25 -->
<g id="edge39" class="edge">
<title>Node24&#45;&gt;Node25</title>
<path fill="none" stroke="midnightblue" d="M383.6,-112.08C390.23,-104.3 400.02,-92.8 408.06,-83.37"/>
<polygon fill="midnightblue" stroke="midnightblue" points="410.73,-85.63 414.55,-75.75 405.4,-81.09 410.73,-85.63"/>
</g>
<!-- Node26 -->
<g id="node26" class="node">
<title>Node26</title>
<g id="a_node26"><a xlink:title=" ">
<polygon fill="white" stroke="#bfbfbf" points="137.5,-56.5 137.5,-75.5 300.5,-75.5 300.5,-56.5 137.5,-56.5"/>
<text text-anchor="middle" x="219" y="-63.5" font-family="Helvetica,sans-Serif" font-size="10.00">glm/gtc/matrix_transform.hpp</text>
</a>
</g>
</g>
<!-- Node24&#45;&gt;Node26 -->
<g id="edge40" class="edge">
<title>Node24&#45;&gt;Node26</title>
<path fill="none" stroke="midnightblue" d="M351.12,-112.44C324.71,-103.36 282.78,-88.94 253.26,-78.78"/>
<polygon fill="midnightblue" stroke="midnightblue" points="254.36,-75.46 243.76,-75.52 252.08,-82.08 254.36,-75.46"/>
</g>
<!-- Node27 -->
<g id="node27" class="node">
<title>Node27</title>
<g id="a_node27"><a xlink:href="_math_2_utils_8hpp.html" target="_top" xlink:title=" ">
<polygon fill="white" stroke="black" points="31,-56.5 31,-75.5 119,-75.5 119,-56.5 31,-56.5"/>
<text text-anchor="middle" x="75" y="-63.5" font-family="Helvetica,sans-Serif" font-size="10.00">Math/Utils.hpp</text>
</a>
</g>
</g>
<!-- Node24&#45;&gt;Node27 -->
<g id="edge41" class="edge">
<title>Node24&#45;&gt;Node27</title>
<path fill="none" stroke="midnightblue" d="M328.31,-112.44C274.04,-102.71 185.62,-86.85 128.9,-76.67"/>
<polygon fill="midnightblue" stroke="midnightblue" points="129.5,-73.22 119.04,-74.9 128.27,-80.11 129.5,-73.22"/>
</g>
<!-- Node27&#45;&gt;Node6 -->
<g id="edge42" class="edge">
<title>Node27&#45;&gt;Node6</title>
<path fill="none" stroke="midnightblue" d="M69.06,-56.08C64.02,-48.53 56.66,-37.49 50.49,-28.23"/>
<polygon fill="midnightblue" stroke="midnightblue" points="53.29,-26.13 44.83,-19.75 47.47,-30.01 53.29,-26.13"/>
</g>
<!-- Node28&#45;&gt;Node6 -->
<g id="edge45" class="edge">
<title>Node28&#45;&gt;Node6</title>
<path fill="none" stroke="midnightblue" d="M150.31,-170.21C116.12,-164.02 79.1,-152.66 50,-132 19.68,-110.47 5.98,-92.08 15,-56 17.44,-46.25 22.44,-36.29 27.24,-28.23"/>
<polygon fill="midnightblue" stroke="midnightblue" points="30.21,-30.08 32.63,-19.77 24.31,-26.32 30.21,-30.08"/>
</g>
<!-- Node28&#45;&gt;Node24 -->
<g id="edge48" class="edge">
<title>Node28&#45;&gt;Node24</title>
<path fill="none" stroke="midnightblue" d="M269.12,-168.44C290.02,-159.56 322.93,-145.56 346.72,-135.45"/>
<polygon fill="midnightblue" stroke="midnightblue" points="348.14,-138.65 355.97,-131.52 345.4,-132.21 348.14,-138.65"/>
</g>
<!-- Node29 -->
<g id="node29" class="node">
<title>Node29</title>
<g id="a_node29"><a xlink:href="_ray_8hpp.html" target="_top" xlink:title=" ">
<polygon fill="white" stroke="black" points="59.5,-112.5 59.5,-131.5 142.5,-131.5 142.5,-112.5 59.5,-112.5"/>
<text text-anchor="middle" x="101" y="-119.5" font-family="Helvetica,sans-Serif" font-size="10.00">Math/Ray.hpp</text>
</a>
</g>
</g>
<!-- Node28&#45;&gt;Node29 -->
<g id="edge46" class="edge">
<title>Node28&#45;&gt;Node29</title>
<path fill="none" stroke="midnightblue" d="M225.55,-168.44C200.87,-159.44 161.81,-145.19 134.02,-135.05"/>
<polygon fill="midnightblue" stroke="midnightblue" points="134.94,-131.66 124.34,-131.52 132.54,-138.23 134.94,-131.66"/>
</g>
<!-- Node29&#45;&gt;Node6 -->
<g id="edge47" class="edge">
<title>Node29&#45;&gt;Node6</title>
<path fill="none" stroke="midnightblue" d="M71.12,-112.39C53.46,-105.59 32.55,-94.15 22,-76 13.42,-61.23 20.22,-42.09 27.61,-28.41"/>
<polygon fill="midnightblue" stroke="midnightblue" points="30.77,-29.94 32.89,-19.55 24.76,-26.35 30.77,-29.94"/>
</g>
<!-- Node30&#45;&gt;Node2 -->
<g id="edge51" class="edge">
<title>Node30&#45;&gt;Node2</title>
<path fill="none" stroke="midnightblue" d="M1358.46,-224.47C1404.93,-213.33 1468.63,-198.04 1509.06,-188.34"/>
<polygon fill="midnightblue" stroke="midnightblue" points="1509.9,-191.74 1518.81,-186 1508.27,-184.93 1509.9,-191.74"/>
</g>
<!-- Node30&#45;&gt;Node5 -->
<g id="edge52" class="edge">
<title>Node30&#45;&gt;Node5</title>
<path fill="none" stroke="midnightblue" d="M1249.73,-224.41C1225.48,-216.15 1196.79,-204.14 1174,-188 1155.51,-174.91 1139.01,-154.66 1128.58,-140.24"/>
<polygon fill="midnightblue" stroke="midnightblue" points="1131.24,-137.94 1122.64,-131.75 1125.5,-141.95 1131.24,-137.94"/>
</g>
<!-- Node31 -->
<g id="node31" class="node">
<title>Node31</title>
<g id="a_node31"><a xlink:href="_texture_8hpp.html" target="_top" xlink:title=" ">
<polygon fill="white" stroke="black" points="1183,-168.5 1183,-187.5 1309,-187.5 1309,-168.5 1183,-168.5"/>
<text text-anchor="middle" x="1246" y="-175.5" font-family="Helvetica,sans-Serif" font-size="10.00">Rendering/Texture.hpp</text>
</a>
</g>
</g>
<!-- Node30&#45;&gt;Node31 -->
<g id="edge53" class="edge">
<title>Node30&#45;&gt;Node31</title>
<path fill="none" stroke="midnightblue" d="M1287.2,-224.4C1279.28,-215.66 1269.06,-204.41 1260.79,-195.3"/>
<polygon fill="midnightblue" stroke="midnightblue" points="1263.17,-192.71 1253.86,-187.66 1257.99,-197.42 1263.17,-192.71"/>
</g>
<!-- Node31&#45;&gt;Node5 -->
<g id="edge54" class="edge">
<title>Node31&#45;&gt;Node5</title>
<path fill="none" stroke="midnightblue" d="M1225.56,-168.44C1204.33,-159.56 1170.9,-145.56 1146.75,-135.45"/>
<polygon fill="midnightblue" stroke="midnightblue" points="1147.92,-132.15 1137.34,-131.52 1145.22,-138.61 1147.92,-132.15"/>
</g>
<!-- Node32 -->
<g id="node32" class="node">
<title>Node32</title>
<g id="a_node32"><a xlink:href="_image_8hpp.html" target="_top" xlink:title=" ">
<polygon fill="white" stroke="black" points="1209.5,-112.5 1209.5,-131.5 1350.5,-131.5 1350.5,-112.5 1209.5,-112.5"/>
<text text-anchor="middle" x="1280" y="-119.5" font-family="Helvetica,sans-Serif" font-size="10.00">AssetManager/Image.hpp</text>
</a>
</g>
</g>
<!-- Node31&#45;&gt;Node32 -->
<g id="edge55" class="edge">
<title>Node31&#45;&gt;Node32</title>
<path fill="none" stroke="midnightblue" d="M1251.61,-168.08C1256.37,-160.53 1263.32,-149.49 1269.15,-140.23"/>
<polygon fill="midnightblue" stroke="midnightblue" points="1272.12,-142.08 1274.49,-131.75 1266.2,-138.35 1272.12,-142.08"/>
</g>
<!-- Node32&#45;&gt;Node10 -->
<g id="edge57" class="edge">
<title>Node32&#45;&gt;Node10</title>
<path fill="none" stroke="midnightblue" d="M1264.42,-112.32C1249,-103.74 1225.19,-90.49 1207.29,-80.52"/>
<polygon fill="midnightblue" stroke="midnightblue" points="1208.99,-77.46 1198.55,-75.65 1205.58,-83.58 1208.99,-77.46"/>
</g>
<!-- Node32&#45;&gt;Node11 -->
<g id="edge56" class="edge">
<title>Node32&#45;&gt;Node11</title>
<path fill="none" stroke="midnightblue" d="M1278.09,-112.33C1275.12,-99.62 1268.81,-75.34 1260,-56 1255.56,-46.27 1249.38,-36.09 1243.96,-27.89"/>
<polygon fill="midnightblue" stroke="midnightblue" points="1246.82,-25.87 1238.28,-19.59 1241.04,-29.82 1246.82,-25.87"/>
</g>
<!-- Node33&#45;&gt;Node2 -->
<g id="edge59" class="edge">
<title>Node33&#45;&gt;Node2</title>
<path fill="none" stroke="midnightblue" d="M1215.1,-225.51C1218.11,-224.99 1221.08,-224.48 1224,-224 1326.5,-207.12 1447.94,-191.39 1508.92,-183.78"/>
<polygon fill="midnightblue" stroke="midnightblue" points="1509.39,-187.25 1518.88,-182.54 1508.53,-180.3 1509.39,-187.25"/>
</g>
<!-- Node33&#45;&gt;Node5 -->
<g id="edge60" class="edge">
<title>Node33&#45;&gt;Node5</title>
<path fill="none" stroke="midnightblue" d="M1144.2,-224.34C1138.61,-203.53 1128.18,-164.66 1121.99,-141.58"/>
<polygon fill="midnightblue" stroke="midnightblue" points="1125.3,-140.42 1119.33,-131.67 1118.54,-142.23 1125.3,-140.42"/>
</g>
<!-- Node33&#45;&gt;Node31 -->
<g id="edge61" class="edge">
<title>Node33&#45;&gt;Node31</title>
<path fill="none" stroke="midnightblue" d="M1171.22,-224.4C1186.79,-214.95 1207.2,-202.56 1222.76,-193.11"/>
<polygon fill="midnightblue" stroke="midnightblue" points="1225.01,-195.84 1231.74,-187.66 1221.38,-189.86 1225.01,-195.84"/>
</g>
<!-- Node34&#45;&gt;Node5 -->
<g id="edge63" class="edge">
<title>Node34&#45;&gt;Node5</title>
<path fill="none" stroke="midnightblue" d="M1350.95,-168.44C1299.57,-158.46 1215.02,-142.04 1162.87,-131.91"/>
<polygon fill="midnightblue" stroke="midnightblue" points="1163.37,-128.44 1152.89,-129.97 1162.04,-135.31 1163.37,-128.44"/>
</g>
<!-- Node34&#45;&gt;Node7 -->
<g id="edge64" class="edge">
<title>Node34&#45;&gt;Node7</title>
<path fill="none" stroke="midnightblue" d="M1342.25,-168.48C1302.43,-161.18 1246.83,-149.11 1200,-132 1181.7,-125.31 1179.67,-117.54 1161,-112 1015.95,-68.94 833.03,-65.68 759.65,-66.33"/>
<polygon fill="midnightblue" stroke="midnightblue" points="759.19,-62.83 749.23,-66.45 759.27,-69.83 759.19,-62.83"/>
</g>
<!-- Node34&#45;&gt;Node32 -->
<g id="edge66" class="edge">
<title>Node34&#45;&gt;Node32</title>
<path fill="none" stroke="midnightblue" d="M1376.78,-168.44C1358.1,-159.68 1328.84,-145.94 1307.38,-135.86"/>
<polygon fill="midnightblue" stroke="midnightblue" points="1308.68,-132.6 1298.14,-131.52 1305.7,-138.93 1308.68,-132.6"/>
</g>
<!-- Node35 -->
<g id="node35" class="node">
<title>Node35</title>
<g id="a_node35"><a xlink:title=" ">
<polygon fill="white" stroke="#bfbfbf" points="1393.5,-112.5 1393.5,-131.5 1440.5,-131.5 1440.5,-112.5 1393.5,-112.5"/>
<text text-anchor="middle" x="1417" y="-119.5" font-family="Helvetica,sans-Serif" font-size="10.00">vector</text>
</a>
</g>
</g>
<!-- Node34&#45;&gt;Node35 -->
<g id="edge65" class="edge">
<title>Node34&#45;&gt;Node35</title>
<path fill="none" stroke="midnightblue" d="M1398.63,-168.08C1401.61,-160.77 1405.93,-150.18 1409.62,-141.1"/>
<polygon fill="midnightblue" stroke="midnightblue" points="1412.9,-142.33 1413.43,-131.75 1406.42,-139.69 1412.9,-142.33"/>
</g>
<!-- Node36&#45;&gt;Node4 -->
<g id="edge70" class="edge">
<title>Node36&#45;&gt;Node4</title>
<path fill="none" stroke="midnightblue" d="M2052.87,-295.22C2037.29,-293.61 2021.17,-292.12 2006,-291 1591.7,-260.47 1485.45,-295.41 1072,-255 1060.67,-253.89 1048.62,-252.3 1037.1,-250.57"/>
<polygon fill="midnightblue" stroke="midnightblue" points="1037.56,-247.1 1027.14,-249.02 1036.48,-254.02 1037.56,-247.1"/>
</g>
<!-- Node36&#45;&gt;Node13 -->
<g id="edge69" class="edge">
<title>Node36&#45;&gt;Node13</title>
<path fill="none" stroke="midnightblue" d="M2085.71,-291.48C2040.38,-279.55 1976.15,-262.64 1934.28,-251.63"/>
<polygon fill="midnightblue" stroke="midnightblue" points="1934.97,-248.19 1924.41,-249.03 1933.19,-254.96 1934.97,-248.19"/>
</g>
<!-- Node36&#45;&gt;Node35 -->
<g id="edge68" class="edge">
<title>Node36&#45;&gt;Node35</title>
<path fill="none" stroke="midnightblue" d="M2125.89,-291.4C2097.82,-262.27 2028.45,-195.87 1955,-168 1862,-132.72 1553.42,-125.01 1450.64,-123.4"/>
<polygon fill="midnightblue" stroke="midnightblue" points="1450.57,-119.9 1440.52,-123.25 1450.46,-126.9 1450.57,-119.9"/>
</g>
<!-- Node37&#45;&gt;Node2 -->
<g id="edge72" class="edge">
<title>Node37&#45;&gt;Node2</title>
<path fill="none" stroke="midnightblue" d="M1662.55,-296.81C1642.18,-275.86 1590.15,-222.35 1563.8,-195.25"/>
<polygon fill="midnightblue" stroke="midnightblue" points="1565.99,-192.49 1556.51,-187.76 1560.98,-197.37 1565.99,-192.49"/>
</g>
<!-- Node37&#45;&gt;Node13 -->
<g id="edge73" class="edge">
<title>Node37&#45;&gt;Node13</title>
<path fill="none" stroke="midnightblue" d="M1700.35,-296.87C1739.67,-285.3 1809.55,-264.75 1853.19,-251.91"/>
<polygon fill="midnightblue" stroke="midnightblue" points="1854.28,-255.24 1862.88,-249.06 1852.3,-248.53 1854.28,-255.24"/>
</g>
</g>
</svg>
