<?xml version="1.0" encoding="UTF-8" standalone="no"?>
<!DOCTYPE svg PUBLIC "-//W3C//DTD SVG 1.1//EN"
 "http://www.w3.org/Graphics/SVG/1.1/DTD/svg11.dtd">
<!-- Generated by graphviz version 2.43.0 (0)
 -->
<!-- Title: src/Rendering/FrameBuffers/SceneFrameBuffer.hpp Pages: 1 -->
<svg width="713pt" height="214pt"
 viewBox="0.00 0.00 713.00 214.00" xmlns="http://www.w3.org/2000/svg" xmlns:xlink="http://www.w3.org/1999/xlink">
<g id="graph0" class="graph" transform="scale(1 1) rotate(0) translate(4 210)">
<title>src/Rendering/FrameBuffers/SceneFrameBuffer.hpp</title>
<!-- Node1 -->
<g id="Node000001" class="node">
<title>Node1</title>
<g id="a_Node000001"><a xlink:title=" ">
<polygon fill="#999999" stroke="#666666" points="399,-206 247,-206 247,-176 399,-176 399,-206"/>
<text text-anchor="start" x="255" y="-194" font-family="Helvetica,sans-Serif" font-size="10.00">src/Rendering/FrameBuffers</text>
<text text-anchor="middle" x="323" y="-183" font-family="Helvetica,sans-Serif" font-size="10.00">/SceneFrameBuffer.hpp</text>
</a>
</g>
</g>
<!-- Node2 -->
<g id="Node000002" class="node">
<title>Node2</title>
<g id="a_Node000002"><a xlink:href="_scene_frame_buffer_8cpp.html" target="_top" xlink:title=" ">
<polygon fill="white" stroke="#666666" points="152,-140 0,-140 0,-110 152,-110 152,-140"/>
<text text-anchor="start" x="8" y="-128" font-family="Helvetica,sans-Serif" font-size="10.00">src/Rendering/FrameBuffers</text>
<text text-anchor="middle" x="76" y="-117" font-family="Helvetica,sans-Serif" font-size="10.00">/SceneFrameBuffer.cpp</text>
</a>
</g>
</g>
<!-- Node1&#45;&gt;Node2 -->
<g id="edge1_Node000001_Node000002" class="edge">
<title>Node1&#45;&gt;Node2</title>
<g id="a_edge1_Node000001_Node000002"><a xlink:title=" ">
<path fill="none" stroke="#63b8ff" d="M258.88,-173.39C218.9,-163.03 168.02,-149.84 130.08,-140.01"/>
<polygon fill="#63b8ff" stroke="#63b8ff" points="258.24,-176.83 268.79,-175.95 259.99,-170.06 258.24,-176.83"/>
</a>
</g>
</g>
<!-- Node3 -->
<g id="Node000003" class="node">
<title>Node3</title>
<g id="a_Node000003"><a xlink:href="_rendering_2_utils_8hpp.html" target="_top" xlink:title=" ">
<polygon fill="white" stroke="#666666" points="300,-134.5 170,-134.5 170,-115.5 300,-115.5 300,-134.5"/>
<text text-anchor="middle" x="235" y="-122.5" font-family="Helvetica,sans-Serif" font-size="10.00">src/Rendering/Utils.hpp</text>
</a>
</g>
</g>
<!-- Node1&#45;&gt;Node3 -->
<g id="edge2_Node000001_Node000003" class="edge">
<title>Node1&#45;&gt;Node3</title>
<g id="a_edge2_Node000001_Node000003"><a xlink:title=" ">
<path fill="none" stroke="#63b8ff" d="M295.33,-169.87C279.04,-158.03 259.27,-143.65 246.91,-134.66"/>
<polygon fill="#63b8ff" stroke="#63b8ff" points="293.32,-172.75 303.47,-175.8 297.44,-167.08 293.32,-172.75"/>
</a>
</g>
</g>
<!-- Node6 -->
<g id="Node000006" class="node">
<title>Node6</title>
<g id="a_Node000006"><a xlink:href="_runtime_8hpp.html" target="_top" xlink:title=" ">
<polygon fill="white" stroke="#666666" points="602,-74 462,-74 462,-55 602,-55 602,-74"/>
<text text-anchor="middle" x="532" y="-62" font-family="Helvetica,sans-Serif" font-size="10.00">src/Runtime/Runtime.hpp</text>
</a>
</g>
</g>
<!-- Node1&#45;&gt;Node6 -->
<g id="edge5_Node000001_Node000006" class="edge">
<title>Node1&#45;&gt;Node6</title>
<g id="a_edge5_Node000001_Node000006"><a xlink:title=" ">
<path fill="none" stroke="#63b8ff" d="M409.32,-186.22C445.73,-180.28 485.88,-167.33 513,-140 530.86,-122 532.68,-89.68 532.42,-74.21"/>
<polygon fill="#63b8ff" stroke="#63b8ff" points="408.54,-182.79 399.16,-187.71 409.56,-189.72 408.54,-182.79"/>
</a>
</g>
</g>
<!-- Node9 -->
<g id="Node000009" class="node">
<title>Node9</title>
<g id="a_Node000009"><a xlink:href="_rendering_system_8hpp.html" target="_top" xlink:title=" ">
<polygon fill="white" stroke="#666666" points="504,-134.5 318,-134.5 318,-115.5 504,-115.5 504,-134.5"/>
<text text-anchor="middle" x="411" y="-122.5" font-family="Helvetica,sans-Serif" font-size="10.00">src/Systems/RenderingSystem.hpp</text>
</a>
</g>
</g>
<!-- Node1&#45;&gt;Node9 -->
<g id="edge8_Node000001_Node000009" class="edge">
<title>Node1&#45;&gt;Node9</title>
<g id="a_edge8_Node000001_Node000009"><a xlink:title=" ">
<path fill="none" stroke="#63b8ff" d="M350.67,-169.87C366.96,-158.03 386.73,-143.65 399.09,-134.66"/>
<polygon fill="#63b8ff" stroke="#63b8ff" points="348.56,-167.08 342.53,-175.8 352.68,-172.75 348.56,-167.08"/>
</a>
</g>
</g>
<!-- Node4 -->
<g id="Node000004" class="node">
<title>Node4</title>
<g id="a_Node000004"><a xlink:href="_rendering_2_utils_8cpp.html" target="_top" xlink:title=" ">
<polygon fill="white" stroke="#666666" points="240.5,-74 111.5,-74 111.5,-55 240.5,-55 240.5,-74"/>
<text text-anchor="middle" x="176" y="-62" font-family="Helvetica,sans-Serif" font-size="10.00">src/Rendering/Utils.cpp</text>
</a>
</g>
</g>
<!-- Node3&#45;&gt;Node4 -->
<g id="edge3_Node000003_Node000004" class="edge">
<title>Node3&#45;&gt;Node4</title>
<g id="a_edge3_Node000003_Node000004"><a xlink:title=" ">
<path fill="none" stroke="#63b8ff" d="M218.95,-108.09C207.94,-97.17 193.73,-83.08 184.74,-74.17"/>
<polygon fill="#63b8ff" stroke="#63b8ff" points="216.73,-110.81 226.29,-115.37 221.66,-105.84 216.73,-110.81"/>
</a>
</g>
</g>
<!-- Node5 -->
<g id="Node000005" class="node">
<title>Node5</title>
<g id="a_Node000005"><a xlink:href="_rendering_system_8cpp.html" target="_top" xlink:title=" ">
<polygon fill="white" stroke="#666666" points="443.5,-74 258.5,-74 258.5,-55 443.5,-55 443.5,-74"/>
<text text-anchor="middle" x="351" y="-62" font-family="Helvetica,sans-Serif" font-size="10.00">src/Systems/RenderingSystem.cpp</text>
</a>
</g>
</g>
<!-- Node3&#45;&gt;Node5 -->
<g id="edge4_Node000003_Node000005" class="edge">
<title>Node3&#45;&gt;Node5</title>
<g id="a_edge4_Node000003_Node000005"><a xlink:title=" ">
<path fill="none" stroke="#63b8ff" d="M261.32,-110.73C283.53,-99.53 314.68,-83.82 333.81,-74.17"/>
<polygon fill="#63b8ff" stroke="#63b8ff" points="259.47,-107.74 252.12,-115.37 262.62,-113.99 259.47,-107.74"/>
</a>
</g>
</g>
<!-- Node7 -->
<g id="Node000007" class="node">
<title>Node7</title>
<g id="a_Node000007"><a xlink:href="_runtime_8cpp.html" target="_top" xlink:title=" ">
<polygon fill="white" stroke="#666666" points="515,-19 375,-19 375,0 515,0 515,-19"/>
<text text-anchor="middle" x="445" y="-7" font-family="Helvetica,sans-Serif" font-size="10.00">src/Runtime/Runtime.cpp</text>
</a>
</g>
</g>
<!-- Node6&#45;&gt;Node7 -->
<g id="edge6_Node000006_Node000007" class="edge">
<title>Node6&#45;&gt;Node7</title>
<g id="a_edge6_Node000006_Node000007"><a xlink:title=" ">
<path fill="none" stroke="#63b8ff" d="M509.34,-49.7C493.49,-40.04 472.81,-27.44 459.23,-19.17"/>
<polygon fill="#63b8ff" stroke="#63b8ff" points="507.66,-52.77 518.02,-54.98 511.3,-46.79 507.66,-52.77"/>
</a>
</g>
</g>
<!-- Node8 -->
<g id="Node000008" class="node">
<title>Node8</title>
<g id="a_Node000008"><a xlink:href="_scene_widget_8hpp.html" target="_top" xlink:title="Contains the declaration of the SceneWidget class, a user interface widget for rendering scenes.">
<polygon fill="white" stroke="#666666" points="705,-19 533,-19 533,0 705,0 705,-19"/>
<text text-anchor="middle" x="619" y="-7" font-family="Helvetica,sans-Serif" font-size="10.00">src/ui/widgets/SceneWidget.hpp</text>
</a>
</g>
</g>
<!-- Node6&#45;&gt;Node8 -->
<g id="edge7_Node000006_Node000008" class="edge">
<title>Node6&#45;&gt;Node8</title>
<g id="a_edge7_Node000006_Node000008"><a xlink:title=" ">
<path fill="none" stroke="#63b8ff" d="M554.66,-49.7C570.51,-40.04 591.19,-27.44 604.77,-19.17"/>
<polygon fill="#63b8ff" stroke="#63b8ff" points="552.7,-46.79 545.98,-54.98 556.34,-52.77 552.7,-46.79"/>
</a>
</g>
</g>
<!-- Node9&#45;&gt;Node5 -->
<g id="edge10_Node000009_Node000005" class="edge">
<title>Node9&#45;&gt;Node5</title>
<g id="a_edge10_Node000009_Node000005"><a xlink:title=" ">
<path fill="none" stroke="#63b8ff" d="M394.68,-108.09C383.48,-97.17 369.03,-83.08 359.89,-74.17"/>
<polygon fill="#63b8ff" stroke="#63b8ff" points="392.54,-110.89 402.15,-115.37 397.43,-105.88 392.54,-110.89"/>
</a>
</g>
</g>
<!-- Node9&#45;&gt;Node6 -->
<g id="edge9_Node000009_Node000006" class="edge">
<title>Node9&#45;&gt;Node6</title>
<g id="a_edge9_Node000009_Node000006"><a xlink:title=" ">
<path fill="none" stroke="#63b8ff" d="M437.61,-111.13C460.95,-99.85 494.21,-83.77 514.38,-74.02"/>
<polygon fill="#63b8ff" stroke="#63b8ff" points="436.07,-107.99 428.59,-115.49 439.12,-114.29 436.07,-107.99"/>
</a>
</g>
</g>
</g>
</svg>
