<?xml version="1.0" encoding="UTF-8" standalone="no"?>
<!DOCTYPE svg PUBLIC "-//W3C//DTD SVG 1.1//EN"
 "http://www.w3.org/Graphics/SVG/1.1/DTD/svg11.dtd">
<!-- Generated by graphviz version 2.43.0 (0)
 -->
<!-- Title: src/Rendering/ShaderProgram.cpp Pages: 1 -->
<svg width="707pt" height="192pt"
 viewBox="0.00 0.00 707.45 192.00" xmlns="http://www.w3.org/2000/svg" xmlns:xlink="http://www.w3.org/1999/xlink">
<g id="graph0" class="graph" transform="scale(1 1) rotate(0) translate(4 188)">
<title>src/Rendering/ShaderProgram.cpp</title>
<!-- Node1 -->
<g id="Node000001" class="node">
<title>Node1</title>
<g id="a_Node000001"><a xlink:title=" ">
<polygon fill="#999999" stroke="#666666" points="501.95,-184 319.95,-184 319.95,-165 501.95,-165 501.95,-184"/>
<text text-anchor="middle" x="410.95" y="-172" font-family="Helvetica,sans-Serif" font-size="10.00">src/Rendering/ShaderProgram.cpp</text>
</a>
</g>
</g>
<!-- Node2 -->
<g id="Node000002" class="node">
<title>Node2</title>
<g id="a_Node000002"><a xlink:href="_shader_program_8hpp.html" target="_top" xlink:title=" ">
<polygon fill="white" stroke="#666666" points="325.45,-129 160.45,-129 160.45,-110 325.45,-110 325.45,-129"/>
<text text-anchor="middle" x="242.95" y="-117" font-family="Helvetica,sans-Serif" font-size="10.00">Rendering/ShaderProgram.hpp</text>
</a>
</g>
</g>
<!-- Node1&#45;&gt;Node2 -->
<g id="edge1_Node000001_Node000002" class="edge">
<title>Node1&#45;&gt;Node2</title>
<g id="a_edge1_Node000001_Node000002"><a xlink:title=" ">
<path fill="none" stroke="#63b8ff" d="M383.95,-164.98C355.75,-156.09 311.31,-142.07 279.86,-132.15"/>
<polygon fill="#63b8ff" stroke="#63b8ff" points="280.74,-128.75 270.15,-129.08 278.63,-135.43 280.74,-128.75"/>
</a>
</g>
</g>
<!-- Node11 -->
<g id="Node000011" class="node">
<title>Node11</title>
<g id="a_Node000011"><a xlink:href="_logger_8hpp.html" target="_top" xlink:title=" ">
<polygon fill="white" stroke="#666666" points="668.45,-129 551.45,-129 551.45,-110 668.45,-110 668.45,-129"/>
<text text-anchor="middle" x="609.95" y="-117" font-family="Helvetica,sans-Serif" font-size="10.00">Common/Logger.hpp</text>
</a>
</g>
</g>
<!-- Node1&#45;&gt;Node11 -->
<g id="edge11_Node000001_Node000011" class="edge">
<title>Node1&#45;&gt;Node11</title>
<g id="a_edge11_Node000001_Node000011"><a xlink:title=" ">
<path fill="none" stroke="#63b8ff" d="M442.92,-164.98C476.76,-155.97 530.34,-141.7 567.66,-131.76"/>
<polygon fill="#63b8ff" stroke="#63b8ff" points="568.96,-135.04 577.72,-129.08 567.16,-128.27 568.96,-135.04"/>
</a>
</g>
</g>
<!-- Node3 -->
<g id="Node000003" class="node">
<title>Node3</title>
<g id="a_Node000003"><a xlink:title=" ">
<polygon fill="#e0e0e0" stroke="#999999" points="234.45,-19 163.45,-19 163.45,0 234.45,0 234.45,-19"/>
<text text-anchor="middle" x="198.95" y="-7" font-family="Helvetica,sans-Serif" font-size="10.00">glad/glad.h</text>
</a>
</g>
</g>
<!-- Node2&#45;&gt;Node3 -->
<g id="edge2_Node000002_Node000003" class="edge">
<title>Node2&#45;&gt;Node3</title>
<g id="a_edge2_Node000002_Node000003"><a xlink:title=" ">
<path fill="none" stroke="#63b8ff" d="M160.21,-113.71C100.84,-108.34 28.1,-97.14 8.95,-74 -31.98,-24.56 84.81,-13.4 153.22,-11.02"/>
<polygon fill="#63b8ff" stroke="#63b8ff" points="153.45,-14.52 163.34,-10.72 153.24,-7.52 153.45,-14.52"/>
</a>
</g>
</g>
<!-- Node4 -->
<g id="Node000004" class="node">
<title>Node4</title>
<g id="a_Node000004"><a xlink:title=" ">
<polygon fill="#e0e0e0" stroke="#999999" points="95.95,-74 17.95,-74 17.95,-55 95.95,-55 95.95,-74"/>
<text text-anchor="middle" x="56.95" y="-62" font-family="Helvetica,sans-Serif" font-size="10.00">glm/glm.hpp</text>
</a>
</g>
</g>
<!-- Node2&#45;&gt;Node4 -->
<g id="edge3_Node000002_Node000004" class="edge">
<title>Node2&#45;&gt;Node4</title>
<g id="a_edge3_Node000002_Node000004"><a xlink:title=" ">
<path fill="none" stroke="#63b8ff" d="M213.06,-109.98C181.56,-101.01 131.78,-86.82 96.92,-76.89"/>
<polygon fill="#63b8ff" stroke="#63b8ff" points="97.64,-73.46 87.06,-74.08 95.72,-80.19 97.64,-73.46"/>
</a>
</g>
</g>
<!-- Node5 -->
<g id="Node000005" class="node">
<title>Node5</title>
<g id="a_Node000005"><a xlink:title=" ">
<polygon fill="#e0e0e0" stroke="#999999" points="171.95,-74 113.95,-74 113.95,-55 171.95,-55 171.95,-74"/>
<text text-anchor="middle" x="142.95" y="-62" font-family="Helvetica,sans-Serif" font-size="10.00">memory</text>
</a>
</g>
</g>
<!-- Node2&#45;&gt;Node5 -->
<g id="edge4_Node000002_Node000005" class="edge">
<title>Node2&#45;&gt;Node5</title>
<g id="a_edge4_Node000002_Node000005"><a xlink:title=" ">
<path fill="none" stroke="#63b8ff" d="M226.88,-109.98C211.08,-101.61 186.73,-88.7 168.31,-78.95"/>
<polygon fill="#63b8ff" stroke="#63b8ff" points="169.78,-75.76 159.3,-74.17 166.5,-81.95 169.78,-75.76"/>
</a>
</g>
</g>
<!-- Node6 -->
<g id="Node000006" class="node">
<title>Node6</title>
<g id="a_Node000006"><a xlink:title=" ">
<polygon fill="#e0e0e0" stroke="#999999" points="233.95,-74 189.95,-74 189.95,-55 233.95,-55 233.95,-74"/>
<text text-anchor="middle" x="211.95" y="-62" font-family="Helvetica,sans-Serif" font-size="10.00">string</text>
</a>
</g>
</g>
<!-- Node2&#45;&gt;Node6 -->
<g id="edge5_Node000002_Node000006" class="edge">
<title>Node2&#45;&gt;Node6</title>
<g id="a_edge5_Node000002_Node000006"><a xlink:title=" ">
<path fill="none" stroke="#63b8ff" d="M237.83,-109.75C233.58,-102.49 227.42,-91.95 222.17,-82.98"/>
<polygon fill="#63b8ff" stroke="#63b8ff" points="225.04,-80.95 216.97,-74.09 219,-84.49 225.04,-80.95"/>
</a>
</g>
</g>
<!-- Node7 -->
<g id="Node000007" class="node">
<title>Node7</title>
<g id="a_Node000007"><a xlink:title=" ">
<polygon fill="#e0e0e0" stroke="#999999" points="295.45,-74 252.45,-74 252.45,-55 295.45,-55 295.45,-74"/>
<text text-anchor="middle" x="273.95" y="-62" font-family="Helvetica,sans-Serif" font-size="10.00">stack</text>
</a>
</g>
</g>
<!-- Node2&#45;&gt;Node7 -->
<g id="edge6_Node000002_Node000007" class="edge">
<title>Node2&#45;&gt;Node7</title>
<g id="a_edge6_Node000002_Node000007"><a xlink:title=" ">
<path fill="none" stroke="#63b8ff" d="M248.06,-109.75C252.31,-102.49 258.47,-91.95 263.72,-82.98"/>
<polygon fill="#63b8ff" stroke="#63b8ff" points="266.89,-84.49 268.92,-74.09 260.85,-80.95 266.89,-84.49"/>
</a>
</g>
</g>
<!-- Node8 -->
<g id="Node000008" class="node">
<title>Node8</title>
<g id="a_Node000008"><a xlink:title=" ">
<polygon fill="#e0e0e0" stroke="#999999" points="406.45,-74 313.45,-74 313.45,-55 406.45,-55 406.45,-74"/>
<text text-anchor="middle" x="359.95" y="-62" font-family="Helvetica,sans-Serif" font-size="10.00">unordered_map</text>
</a>
</g>
</g>
<!-- Node2&#45;&gt;Node8 -->
<g id="edge7_Node000002_Node000008" class="edge">
<title>Node2&#45;&gt;Node8</title>
<g id="a_edge7_Node000002_Node000008"><a xlink:title=" ">
<path fill="none" stroke="#63b8ff" d="M261.74,-109.98C280.56,-101.46 309.77,-88.23 331.44,-78.41"/>
<polygon fill="#63b8ff" stroke="#63b8ff" points="333.14,-81.48 340.8,-74.17 330.25,-75.11 333.14,-81.48"/>
</a>
</g>
</g>
<!-- Node9 -->
<g id="Node000009" class="node">
<title>Node9</title>
<g id="a_Node000009"><a xlink:href="_shader_8hpp.html" target="_top" xlink:title=" ">
<polygon fill="white" stroke="#666666" points="567.45,-74 424.45,-74 424.45,-55 567.45,-55 567.45,-74"/>
<text text-anchor="middle" x="495.95" y="-62" font-family="Helvetica,sans-Serif" font-size="10.00">AssetManager/Shader.hpp</text>
</a>
</g>
</g>
<!-- Node2&#45;&gt;Node9 -->
<g id="edge8_Node000002_Node000009" class="edge">
<title>Node2&#45;&gt;Node9</title>
<g id="a_edge8_Node000002_Node000009"><a xlink:title=" ">
<path fill="none" stroke="#63b8ff" d="M283.59,-109.98C327.45,-100.8 397.37,-86.15 444.9,-76.19"/>
<polygon fill="#63b8ff" stroke="#63b8ff" points="445.91,-79.56 454.98,-74.08 444.47,-72.71 445.91,-79.56"/>
</a>
</g>
</g>
<!-- Node9&#45;&gt;Node3 -->
<g id="edge9_Node000009_Node000003" class="edge">
<title>Node9&#45;&gt;Node3</title>
<g id="a_edge9_Node000009_Node000003"><a xlink:title=" ">
<path fill="none" stroke="#63b8ff" d="M448.23,-54.98C392.19,-44.99 299.91,-28.52 244.72,-18.67"/>
<polygon fill="#63b8ff" stroke="#63b8ff" points="245.33,-15.22 234.87,-16.91 244.1,-22.11 245.33,-15.22"/>
</a>
</g>
</g>
<!-- Node10 -->
<g id="Node000010" class="node">
<title>Node10</title>
<g id="a_Node000010"><a xlink:title=" ">
<polygon fill="#e0e0e0" stroke="#999999" points="529.95,-19 461.95,-19 461.95,0 529.95,0 529.95,-19"/>
<text text-anchor="middle" x="495.95" y="-7" font-family="Helvetica,sans-Serif" font-size="10.00">filesystem</text>
</a>
</g>
</g>
<!-- Node9&#45;&gt;Node10 -->
<g id="edge10_Node000009_Node000010" class="edge">
<title>Node9&#45;&gt;Node10</title>
<g id="a_edge10_Node000009_Node000010"><a xlink:title=" ">
<path fill="none" stroke="#63b8ff" d="M495.95,-54.75C495.95,-47.8 495.95,-37.85 495.95,-29.13"/>
<polygon fill="#63b8ff" stroke="#63b8ff" points="499.45,-29.09 495.95,-19.09 492.45,-29.09 499.45,-29.09"/>
</a>
</g>
</g>
<!-- Node12 -->
<g id="Node000012" class="node">
<title>Node12</title>
<g id="a_Node000012"><a xlink:title=" ">
<polygon fill="#e0e0e0" stroke="#999999" points="633.95,-74 585.95,-74 585.95,-55 633.95,-55 633.95,-74"/>
<text text-anchor="middle" x="609.95" y="-62" font-family="Helvetica,sans-Serif" font-size="10.00">mutex</text>
</a>
</g>
</g>
<!-- Node11&#45;&gt;Node12 -->
<g id="edge12_Node000011_Node000012" class="edge">
<title>Node11&#45;&gt;Node12</title>
<g id="a_edge12_Node000011_Node000012"><a xlink:title=" ">
<path fill="none" stroke="#63b8ff" d="M609.95,-109.75C609.95,-102.8 609.95,-92.85 609.95,-84.13"/>
<polygon fill="#63b8ff" stroke="#63b8ff" points="613.45,-84.09 609.95,-74.09 606.45,-84.09 613.45,-84.09"/>
</a>
</g>
</g>
<!-- Node13 -->
<g id="Node000013" class="node">
<title>Node13</title>
<g id="a_Node000013"><a xlink:title=" ">
<polygon fill="#e0e0e0" stroke="#999999" points="699.45,-74 652.45,-74 652.45,-55 699.45,-55 699.45,-74"/>
<text text-anchor="middle" x="675.95" y="-62" font-family="Helvetica,sans-Serif" font-size="10.00">queue</text>
</a>
</g>
</g>
<!-- Node11&#45;&gt;Node13 -->
<g id="edge13_Node000011_Node000013" class="edge">
<title>Node11&#45;&gt;Node13</title>
<g id="a_edge13_Node000011_Node000013"><a xlink:title=" ">
<path fill="none" stroke="#63b8ff" d="M620.55,-109.98C630.4,-102.07 645.3,-90.11 657.16,-80.58"/>
<polygon fill="#63b8ff" stroke="#63b8ff" points="659.54,-83.16 665.15,-74.17 655.16,-77.7 659.54,-83.16"/>
</a>
</g>
</g>
</g>
</svg>
