<?xml version="1.0" encoding="UTF-8" standalone="no"?>
<!DOCTYPE svg PUBLIC "-//W3C//DTD SVG 1.1//EN"
 "http://www.w3.org/Graphics/SVG/1.1/DTD/svg11.dtd">
<!-- Generated by graphviz version 2.43.0 (0)
 -->
<!-- Title: src/Rendering/ShaderProgram.hpp Pages: 1 -->
<svg width="574pt" height="313pt"
 viewBox="0.00 0.00 574.48 313.00" xmlns="http://www.w3.org/2000/svg" xmlns:xlink="http://www.w3.org/1999/xlink">
<g id="graph0" class="graph" transform="scale(1 1) rotate(0) translate(4 309)">
<title>src/Rendering/ShaderProgram.hpp</title>
<!-- Node1 -->
<g id="Node000001" class="node">
<title>Node1</title>
<g id="a_Node000001"><a xlink:title=" ">
<polygon fill="#999999" stroke="#666666" points="301.98,-305 119.98,-305 119.98,-286 301.98,-286 301.98,-305"/>
<text text-anchor="middle" x="210.98" y="-293" font-family="Helvetica,sans-Serif" font-size="10.00">src/Rendering/ShaderProgram.hpp</text>
</a>
</g>
</g>
<!-- Node2 -->
<g id="Node000002" class="node">
<title>Node2</title>
<g id="a_Node000002"><a xlink:title=" ">
<polygon fill="#e0e0e0" stroke="#999999" points="307.48,-189.5 236.48,-189.5 236.48,-170.5 307.48,-170.5 307.48,-189.5"/>
<text text-anchor="middle" x="271.98" y="-177.5" font-family="Helvetica,sans-Serif" font-size="10.00">glad/glad.h</text>
</a>
</g>
</g>
<!-- Node1&#45;&gt;Node2 -->
<g id="edge1_Node000001_Node000002" class="edge">
<title>Node1&#45;&gt;Node2</title>
<g id="a_edge1_Node000001_Node000002"><a xlink:title=" ">
<path fill="none" stroke="#63b8ff" d="M212.61,-285.87C215.22,-273.26 221.08,-249.3 230.98,-231 237.68,-218.63 247.64,-206.39 256.07,-197.12"/>
<polygon fill="#63b8ff" stroke="#63b8ff" points="258.65,-199.48 262.96,-189.8 253.56,-194.68 258.65,-199.48"/>
</a>
</g>
</g>
<!-- Node3 -->
<g id="Node000003" class="node">
<title>Node3</title>
<g id="a_Node000003"><a xlink:title=" ">
<polygon fill="#e0e0e0" stroke="#999999" points="106.98,-250 28.98,-250 28.98,-231 106.98,-231 106.98,-250"/>
<text text-anchor="middle" x="67.98" y="-238" font-family="Helvetica,sans-Serif" font-size="10.00">glm/glm.hpp</text>
</a>
</g>
</g>
<!-- Node1&#45;&gt;Node3 -->
<g id="edge2_Node000001_Node000003" class="edge">
<title>Node1&#45;&gt;Node3</title>
<g id="a_edge2_Node000001_Node000003"><a xlink:title=" ">
<path fill="none" stroke="#63b8ff" d="M188.01,-285.98C164.49,-277.27 127.7,-263.63 101.05,-253.75"/>
<polygon fill="#63b8ff" stroke="#63b8ff" points="101.97,-250.36 91.38,-250.17 99.54,-256.93 101.97,-250.36"/>
</a>
</g>
</g>
<!-- Node4 -->
<g id="Node000004" class="node">
<title>Node4</title>
<g id="a_Node000004"><a xlink:title=" ">
<polygon fill="#e0e0e0" stroke="#999999" points="182.98,-250 124.98,-250 124.98,-231 182.98,-231 182.98,-250"/>
<text text-anchor="middle" x="153.98" y="-238" font-family="Helvetica,sans-Serif" font-size="10.00">memory</text>
</a>
</g>
</g>
<!-- Node1&#45;&gt;Node4 -->
<g id="edge3_Node000001_Node000004" class="edge">
<title>Node1&#45;&gt;Node4</title>
<g id="a_edge3_Node000001_Node000004"><a xlink:title=" ">
<path fill="none" stroke="#63b8ff" d="M201.83,-285.98C193.48,-278.23 180.95,-266.58 170.81,-257.14"/>
<polygon fill="#63b8ff" stroke="#63b8ff" points="173.02,-254.42 163.31,-250.17 168.25,-259.54 173.02,-254.42"/>
</a>
</g>
</g>
<!-- Node5 -->
<g id="Node000005" class="node">
<title>Node5</title>
<g id="a_Node000005"><a xlink:title=" ">
<polygon fill="#e0e0e0" stroke="#999999" points="79.98,-19 35.98,-19 35.98,0 79.98,0 79.98,-19"/>
<text text-anchor="middle" x="57.98" y="-7" font-family="Helvetica,sans-Serif" font-size="10.00">string</text>
</a>
</g>
</g>
<!-- Node1&#45;&gt;Node5 -->
<g id="edge4_Node000001_Node000005" class="edge">
<title>Node1&#45;&gt;Node5</title>
<g id="a_edge4_Node000001_Node000005"><a xlink:title=" ">
<path fill="none" stroke="#63b8ff" d="M141.96,-285.93C94.68,-278.69 37.48,-266.81 19.98,-250 -2.95,-227.96 0.98,-212.81 0.98,-181 0.98,-181 0.98,-181 0.98,-118.5 0.98,-82.51 26.05,-46.76 42.93,-26.76"/>
<polygon fill="#63b8ff" stroke="#63b8ff" points="45.61,-29.02 49.57,-19.2 40.35,-24.4 45.61,-29.02"/>
</a>
</g>
</g>
<!-- Node6 -->
<g id="Node000006" class="node">
<title>Node6</title>
<g id="a_Node000006"><a xlink:title=" ">
<polygon fill="#e0e0e0" stroke="#999999" points="282.48,-250 239.48,-250 239.48,-231 282.48,-231 282.48,-250"/>
<text text-anchor="middle" x="260.98" y="-238" font-family="Helvetica,sans-Serif" font-size="10.00">stack</text>
</a>
</g>
</g>
<!-- Node1&#45;&gt;Node6 -->
<g id="edge5_Node000001_Node000006" class="edge">
<title>Node1&#45;&gt;Node6</title>
<g id="a_edge5_Node000001_Node000006"><a xlink:title=" ">
<path fill="none" stroke="#63b8ff" d="M219.24,-285.75C226.45,-278.11 237.09,-266.82 245.83,-257.56"/>
<polygon fill="#63b8ff" stroke="#63b8ff" points="248.56,-259.76 252.88,-250.09 243.47,-254.96 248.56,-259.76"/>
</a>
</g>
</g>
<!-- Node7 -->
<g id="Node000007" class="node">
<title>Node7</title>
<g id="a_Node000007"><a xlink:title=" ">
<polygon fill="#e0e0e0" stroke="#999999" points="393.48,-250 300.48,-250 300.48,-231 393.48,-231 393.48,-250"/>
<text text-anchor="middle" x="346.98" y="-238" font-family="Helvetica,sans-Serif" font-size="10.00">unordered_map</text>
</a>
</g>
</g>
<!-- Node1&#45;&gt;Node7 -->
<g id="edge6_Node000001_Node000007" class="edge">
<title>Node1&#45;&gt;Node7</title>
<g id="a_edge6_Node000001_Node000007"><a xlink:title=" ">
<path fill="none" stroke="#63b8ff" d="M232.83,-285.98C255.11,-277.3 289.89,-263.75 315.2,-253.88"/>
<polygon fill="#63b8ff" stroke="#63b8ff" points="316.69,-257.06 324.74,-250.17 314.15,-250.54 316.69,-257.06"/>
</a>
</g>
</g>
<!-- Node8 -->
<g id="Node000008" class="node">
<title>Node8</title>
<g id="a_Node000008"><a xlink:href="_shader_8hpp.html" target="_top" xlink:title=" ">
<polygon fill="white" stroke="#666666" points="554.48,-250 411.48,-250 411.48,-231 554.48,-231 554.48,-250"/>
<text text-anchor="middle" x="482.98" y="-238" font-family="Helvetica,sans-Serif" font-size="10.00">AssetManager/Shader.hpp</text>
</a>
</g>
</g>
<!-- Node1&#45;&gt;Node8 -->
<g id="edge7_Node000001_Node000008" class="edge">
<title>Node1&#45;&gt;Node8</title>
<g id="a_edge7_Node000001_Node000008"><a xlink:title=" ">
<path fill="none" stroke="#63b8ff" d="M254.69,-285.98C302.13,-276.74 377.95,-261.97 429.06,-252.01"/>
<polygon fill="#63b8ff" stroke="#63b8ff" points="429.79,-255.43 438.94,-250.08 428.45,-248.56 429.79,-255.43"/>
</a>
</g>
</g>
<!-- Node8&#45;&gt;Node2 -->
<g id="edge18_Node000008_Node000002" class="edge">
<title>Node8&#45;&gt;Node2</title>
<g id="a_edge18_Node000008_Node000002"><a xlink:title=" ">
<path fill="none" stroke="#63b8ff" d="M452.3,-230.99C415.42,-220.77 353.41,-203.58 312.6,-192.26"/>
<polygon fill="#63b8ff" stroke="#63b8ff" points="313.27,-188.82 302.7,-189.52 311.4,-195.56 313.27,-188.82"/>
</a>
</g>
</g>
<!-- Node9 -->
<g id="Node000009" class="node">
<title>Node9</title>
<g id="a_Node000009"><a xlink:href="_path_constructible_asset_8hpp.html" target="_top" xlink:title=" ">
<polygon fill="white" stroke="#666666" points="566.48,-195 391.48,-195 391.48,-165 566.48,-165 566.48,-195"/>
<text text-anchor="start" x="399.48" y="-183" font-family="Helvetica,sans-Serif" font-size="10.00">AssetManager/PathConstructible</text>
<text text-anchor="middle" x="478.98" y="-172" font-family="Helvetica,sans-Serif" font-size="10.00">Asset.hpp</text>
</a>
</g>
</g>
<!-- Node8&#45;&gt;Node9 -->
<g id="edge8_Node000008_Node000009" class="edge">
<title>Node8&#45;&gt;Node9</title>
<g id="a_edge8_Node000008_Node000009"><a xlink:title=" ">
<path fill="none" stroke="#63b8ff" d="M482.39,-230.87C481.93,-224.11 481.26,-214.35 480.64,-205.26"/>
<polygon fill="#63b8ff" stroke="#63b8ff" points="484.12,-204.85 479.95,-195.11 477.14,-205.33 484.12,-204.85"/>
</a>
</g>
</g>
<!-- Node10 -->
<g id="Node000010" class="node">
<title>Node10</title>
<g id="a_Node000010"><a xlink:title=" ">
<polygon fill="#e0e0e0" stroke="#999999" points="512.98,-129 444.98,-129 444.98,-110 512.98,-110 512.98,-129"/>
<text text-anchor="middle" x="478.98" y="-117" font-family="Helvetica,sans-Serif" font-size="10.00">filesystem</text>
</a>
</g>
</g>
<!-- Node9&#45;&gt;Node10 -->
<g id="edge9_Node000009_Node000010" class="edge">
<title>Node9&#45;&gt;Node10</title>
<g id="a_edge9_Node000009_Node000010"><a xlink:title=" ">
<path fill="none" stroke="#63b8ff" d="M478.98,-164.84C478.98,-157.21 478.98,-147.7 478.98,-139.45"/>
<polygon fill="#63b8ff" stroke="#63b8ff" points="482.48,-139.27 478.98,-129.27 475.48,-139.27 482.48,-139.27"/>
</a>
</g>
</g>
<!-- Node11 -->
<g id="Node000011" class="node">
<title>Node11</title>
<g id="a_Node000011"><a xlink:href="_instance_counter_8hpp.html" target="_top" xlink:title=" ">
<polygon fill="white" stroke="#666666" points="419.98,-129 255.98,-129 255.98,-110 419.98,-110 419.98,-129"/>
<text text-anchor="middle" x="337.98" y="-117" font-family="Helvetica,sans-Serif" font-size="10.00">Common/InstanceCounter.hpp</text>
</a>
</g>
</g>
<!-- Node9&#45;&gt;Node11 -->
<g id="edge10_Node000009_Node000011" class="edge">
<title>Node9&#45;&gt;Node11</title>
<g id="a_edge10_Node000009_Node000011"><a xlink:title=" ">
<path fill="none" stroke="#63b8ff" d="M445.21,-164.99C421.79,-155.27 390.87,-142.44 368.25,-133.06"/>
<polygon fill="#63b8ff" stroke="#63b8ff" points="369.38,-129.74 358.81,-129.14 366.7,-136.2 369.38,-129.74"/>
</a>
</g>
</g>
<!-- Node12 -->
<g id="Node000012" class="node">
<title>Node12</title>
<g id="a_Node000012"><a xlink:title=" ">
<polygon fill="#e0e0e0" stroke="#999999" points="362.98,-74 312.98,-74 312.98,-55 362.98,-55 362.98,-74"/>
<text text-anchor="middle" x="337.98" y="-62" font-family="Helvetica,sans-Serif" font-size="10.00">atomic</text>
</a>
</g>
</g>
<!-- Node11&#45;&gt;Node12 -->
<g id="edge11_Node000011_Node000012" class="edge">
<title>Node11&#45;&gt;Node12</title>
<g id="a_edge11_Node000011_Node000012"><a xlink:title=" ">
<path fill="none" stroke="#63b8ff" d="M337.98,-109.75C337.98,-102.8 337.98,-92.85 337.98,-84.13"/>
<polygon fill="#63b8ff" stroke="#63b8ff" points="341.48,-84.09 337.98,-74.09 334.48,-84.09 341.48,-84.09"/>
</a>
</g>
</g>
<!-- Node13 -->
<g id="Node000013" class="node">
<title>Node13</title>
<g id="a_Node000013"><a xlink:href="_profiler_8hpp.html" target="_top" xlink:title=" ">
<polygon fill="white" stroke="#666666" points="280.48,-74 161.48,-74 161.48,-55 280.48,-55 280.48,-74"/>
<text text-anchor="middle" x="220.98" y="-62" font-family="Helvetica,sans-Serif" font-size="10.00">Common/Profiler.hpp</text>
</a>
</g>
</g>
<!-- Node11&#45;&gt;Node13 -->
<g id="edge12_Node000011_Node000013" class="edge">
<title>Node11&#45;&gt;Node13</title>
<g id="a_edge12_Node000011_Node000013"><a xlink:title=" ">
<path fill="none" stroke="#63b8ff" d="M319.19,-109.98C300.36,-101.46 271.16,-88.23 249.49,-78.41"/>
<polygon fill="#63b8ff" stroke="#63b8ff" points="250.68,-75.11 240.12,-74.17 247.79,-81.48 250.68,-75.11"/>
</a>
</g>
</g>
<!-- Node13&#45;&gt;Node5 -->
<g id="edge17_Node000013_Node000005" class="edge">
<title>Node13&#45;&gt;Node5</title>
<g id="a_edge17_Node000013_Node000005"><a xlink:title=" ">
<path fill="none" stroke="#63b8ff" d="M194.79,-54.98C166.25,-45.7 120.58,-30.85 89.95,-20.89"/>
<polygon fill="#63b8ff" stroke="#63b8ff" points="90.77,-17.48 80.18,-17.72 88.61,-24.14 90.77,-17.48"/>
</a>
</g>
</g>
<!-- Node14 -->
<g id="Node000014" class="node">
<title>Node14</title>
<g id="a_Node000014"><a xlink:title=" ">
<polygon fill="#e0e0e0" stroke="#999999" points="364.98,-19 314.98,-19 314.98,0 364.98,0 364.98,-19"/>
<text text-anchor="middle" x="339.98" y="-7" font-family="Helvetica,sans-Serif" font-size="10.00">chrono</text>
</a>
</g>
</g>
<!-- Node13&#45;&gt;Node14 -->
<g id="edge13_Node000013_Node000014" class="edge">
<title>Node13&#45;&gt;Node14</title>
<g id="a_edge13_Node000013_Node000014"><a xlink:title=" ">
<path fill="none" stroke="#63b8ff" d="M240.1,-54.98C259.33,-46.42 289.22,-33.11 311.29,-23.28"/>
<polygon fill="#63b8ff" stroke="#63b8ff" points="312.81,-26.44 320.52,-19.17 309.96,-20.04 312.81,-26.44"/>
</a>
</g>
</g>
<!-- Node15 -->
<g id="Node000015" class="node">
<title>Node15</title>
<g id="a_Node000015"><a xlink:title=" ">
<polygon fill="#e0e0e0" stroke="#999999" points="174.98,-19 126.98,-19 126.98,0 174.98,0 174.98,-19"/>
<text text-anchor="middle" x="150.98" y="-7" font-family="Helvetica,sans-Serif" font-size="10.00">thread</text>
</a>
</g>
</g>
<!-- Node13&#45;&gt;Node15 -->
<g id="edge14_Node000013_Node000015" class="edge">
<title>Node13&#45;&gt;Node15</title>
<g id="a_edge14_Node000013_Node000015"><a xlink:title=" ">
<path fill="none" stroke="#63b8ff" d="M209.74,-54.98C199.19,-47 183.18,-34.88 170.54,-25.31"/>
<polygon fill="#63b8ff" stroke="#63b8ff" points="172.52,-22.42 162.44,-19.17 168.29,-28 172.52,-22.42"/>
</a>
</g>
</g>
<!-- Node16 -->
<g id="Node000016" class="node">
<title>Node16</title>
<g id="a_Node000016"><a xlink:title=" ">
<polygon fill="#e0e0e0" stroke="#999999" points="240.98,-19 192.98,-19 192.98,0 240.98,0 240.98,-19"/>
<text text-anchor="middle" x="216.98" y="-7" font-family="Helvetica,sans-Serif" font-size="10.00">mutex</text>
</a>
</g>
</g>
<!-- Node13&#45;&gt;Node16 -->
<g id="edge15_Node000013_Node000016" class="edge">
<title>Node13&#45;&gt;Node16</title>
<g id="a_edge15_Node000013_Node000016"><a xlink:title=" ">
<path fill="none" stroke="#63b8ff" d="M220.32,-54.75C219.8,-47.8 219.05,-37.85 218.39,-29.13"/>
<polygon fill="#63b8ff" stroke="#63b8ff" points="221.87,-28.8 217.63,-19.09 214.89,-29.32 221.87,-28.8"/>
</a>
</g>
</g>
<!-- Node17 -->
<g id="Node000017" class="node">
<title>Node17</title>
<g id="a_Node000017"><a xlink:title=" ">
<polygon fill="#e0e0e0" stroke="#999999" points="296.98,-19 258.98,-19 258.98,0 296.98,0 296.98,-19"/>
<text text-anchor="middle" x="277.98" y="-7" font-family="Helvetica,sans-Serif" font-size="10.00">map</text>
</a>
</g>
</g>
<!-- Node13&#45;&gt;Node17 -->
<g id="edge16_Node000013_Node000017" class="edge">
<title>Node13&#45;&gt;Node17</title>
<g id="a_edge16_Node000013_Node000017"><a xlink:title=" ">
<path fill="none" stroke="#63b8ff" d="M230.14,-54.98C238.49,-47.23 251.02,-35.58 261.16,-26.14"/>
<polygon fill="#63b8ff" stroke="#63b8ff" points="263.72,-28.54 268.66,-19.17 258.95,-23.42 263.72,-28.54"/>
</a>
</g>
</g>
</g>
</svg>
