<?xml version="1.0" encoding="UTF-8" standalone="no"?>
<!DOCTYPE svg PUBLIC "-//W3C//DTD SVG 1.1//EN"
 "http://www.w3.org/Graphics/SVG/1.1/DTD/svg11.dtd">
<!-- Generated by graphviz version 2.43.0 (0)
 -->
<!-- Title: src/AssetManager/Shader.hpp Pages: 1 -->
<svg width="727pt" height="423pt"
 viewBox="0.00 0.00 727.00 423.00" xmlns="http://www.w3.org/2000/svg" xmlns:xlink="http://www.w3.org/1999/xlink">
<g id="graph0" class="graph" transform="scale(1 1) rotate(0) translate(4 419)">
<title>src/AssetManager/Shader.hpp</title>
<!-- Node1 -->
<g id="Node000001" class="node">
<title>Node1</title>
<g id="a_Node000001"><a xlink:title=" ">
<polygon fill="#999999" stroke="#666666" points="266,-415 105,-415 105,-396 266,-396 266,-415"/>
<text text-anchor="middle" x="185.5" y="-403" font-family="Helvetica,sans-Serif" font-size="10.00">src/AssetManager/Shader.hpp</text>
</a>
</g>
</g>
<!-- Node2 -->
<g id="Node000002" class="node">
<title>Node2</title>
<g id="a_Node000002"><a xlink:title=" ">
<polygon fill="#e0e0e0" stroke="#999999" points="151,-354.5 80,-354.5 80,-335.5 151,-335.5 151,-354.5"/>
<text text-anchor="middle" x="115.5" y="-342.5" font-family="Helvetica,sans-Serif" font-size="10.00">glad/glad.h</text>
</a>
</g>
</g>
<!-- Node1&#45;&gt;Node2 -->
<g id="edge1_Node000001_Node000002" class="edge">
<title>Node1&#45;&gt;Node2</title>
<g id="a_edge1_Node000001_Node000002"><a xlink:title=" ">
<path fill="none" stroke="#63b8ff" d="M175.17,-395.87C164.31,-386.8 147.01,-372.34 133.83,-361.32"/>
<polygon fill="#63b8ff" stroke="#63b8ff" points="135.79,-358.39 125.87,-354.67 131.3,-363.77 135.79,-358.39"/>
</a>
</g>
</g>
<!-- Node3 -->
<g id="Node000003" class="node">
<title>Node3</title>
<g id="a_Node000003"><a xlink:href="_path_constructible_asset_8hpp.html" target="_top" xlink:title=" ">
<polygon fill="white" stroke="#666666" points="344,-360 169,-360 169,-330 344,-330 344,-360"/>
<text text-anchor="start" x="177" y="-348" font-family="Helvetica,sans-Serif" font-size="10.00">AssetManager/PathConstructible</text>
<text text-anchor="middle" x="256.5" y="-337" font-family="Helvetica,sans-Serif" font-size="10.00">Asset.hpp</text>
</a>
</g>
</g>
<!-- Node1&#45;&gt;Node3 -->
<g id="edge2_Node000001_Node000003" class="edge">
<title>Node1&#45;&gt;Node3</title>
<g id="a_edge2_Node000001_Node000003"><a xlink:title=" ">
<path fill="none" stroke="#63b8ff" d="M195.98,-395.87C205.25,-388.22 219.17,-376.76 231.32,-366.75"/>
<polygon fill="#63b8ff" stroke="#63b8ff" points="233.88,-369.17 239.37,-360.11 229.43,-363.77 233.88,-369.17"/>
</a>
</g>
</g>
<!-- Node4 -->
<g id="Node000004" class="node">
<title>Node4</title>
<g id="a_Node000004"><a xlink:title=" ">
<polygon fill="#e0e0e0" stroke="#999999" points="242.5,-239 174.5,-239 174.5,-220 242.5,-220 242.5,-239"/>
<text text-anchor="middle" x="208.5" y="-227" font-family="Helvetica,sans-Serif" font-size="10.00">filesystem</text>
</a>
</g>
</g>
<!-- Node3&#45;&gt;Node4 -->
<g id="edge3_Node000003_Node000004" class="edge">
<title>Node3&#45;&gt;Node4</title>
<g id="a_edge3_Node000003_Node000004"><a xlink:title=" ">
<path fill="none" stroke="#63b8ff" d="M247.61,-329.96C241.66,-320.15 233.95,-306.6 228.5,-294 222.19,-279.39 216.88,-262.13 213.32,-249.3"/>
<polygon fill="#63b8ff" stroke="#63b8ff" points="216.63,-248.09 210.67,-239.33 209.86,-249.9 216.63,-248.09"/>
</a>
</g>
</g>
<!-- Node5 -->
<g id="Node000005" class="node">
<title>Node5</title>
<g id="a_Node000005"><a xlink:href="_asset_8hpp.html" target="_top" xlink:title=" ">
<polygon fill="white" stroke="#666666" points="374,-294 237,-294 237,-275 374,-275 374,-294"/>
<text text-anchor="middle" x="305.5" y="-282" font-family="Helvetica,sans-Serif" font-size="10.00">AssetManager/Asset.hpp</text>
</a>
</g>
</g>
<!-- Node3&#45;&gt;Node5 -->
<g id="edge4_Node000003_Node000005" class="edge">
<title>Node3&#45;&gt;Node5</title>
<g id="a_edge4_Node000003_Node000005"><a xlink:title=" ">
<path fill="none" stroke="#63b8ff" d="M268.36,-329.84C275.4,-321.43 284.36,-310.74 291.71,-301.96"/>
<polygon fill="#63b8ff" stroke="#63b8ff" points="294.42,-304.18 298.16,-294.27 289.05,-299.68 294.42,-304.18"/>
</a>
</g>
</g>
<!-- Node5&#45;&gt;Node4 -->
<g id="edge5_Node000005_Node000004" class="edge">
<title>Node5&#45;&gt;Node4</title>
<g id="a_edge5_Node000005_Node000004"><a xlink:title=" ">
<path fill="none" stroke="#63b8ff" d="M289.92,-274.98C274.73,-266.69 251.4,-253.94 233.6,-244.22"/>
<polygon fill="#63b8ff" stroke="#63b8ff" points="234.82,-240.89 224.37,-239.17 231.47,-247.04 234.82,-240.89"/>
</a>
</g>
</g>
<!-- Node6 -->
<g id="Node000006" class="node">
<title>Node6</title>
<g id="a_Node000006"><a xlink:href="_registry_8hpp.html" target="_top" xlink:title=" ">
<polygon fill="white" stroke="#666666" points="358.5,-239 260.5,-239 260.5,-220 358.5,-220 358.5,-239"/>
<text text-anchor="middle" x="309.5" y="-227" font-family="Helvetica,sans-Serif" font-size="10.00">ECS/Registry.hpp</text>
</a>
</g>
</g>
<!-- Node5&#45;&gt;Node6 -->
<g id="edge6_Node000005_Node000006" class="edge">
<title>Node5&#45;&gt;Node6</title>
<g id="a_edge6_Node000005_Node000006"><a xlink:title=" ">
<path fill="none" stroke="#63b8ff" d="M306.16,-274.75C306.68,-267.8 307.44,-257.85 308.09,-249.13"/>
<polygon fill="#63b8ff" stroke="#63b8ff" points="311.59,-249.32 308.85,-239.09 304.61,-248.8 311.59,-249.32"/>
</a>
</g>
</g>
<!-- Node7 -->
<g id="Node000007" class="node">
<title>Node7</title>
<g id="a_Node000007"><a xlink:title=" ">
<polygon fill="#e0e0e0" stroke="#999999" points="422.5,-129 336.5,-129 336.5,-110 422.5,-110 422.5,-129"/>
<text text-anchor="middle" x="379.5" y="-117" font-family="Helvetica,sans-Serif" font-size="10.00">unordered_set</text>
</a>
</g>
</g>
<!-- Node6&#45;&gt;Node7 -->
<g id="edge7_Node000006_Node000007" class="edge">
<title>Node6&#45;&gt;Node7</title>
<g id="a_edge7_Node000006_Node000007"><a xlink:title=" ">
<path fill="none" stroke="#63b8ff" d="M315.23,-219.66C326.82,-201.77 353.25,-161 368.36,-137.69"/>
<polygon fill="#63b8ff" stroke="#63b8ff" points="371.39,-139.45 373.89,-129.16 365.51,-135.65 371.39,-139.45"/>
</a>
</g>
</g>
<!-- Node8 -->
<g id="Node000008" class="node">
<title>Node8</title>
<g id="a_Node000008"><a xlink:href="_logger_8hpp.html" target="_top" xlink:title=" ">
<polygon fill="white" stroke="#666666" points="117,-184 0,-184 0,-165 117,-165 117,-184"/>
<text text-anchor="middle" x="58.5" y="-172" font-family="Helvetica,sans-Serif" font-size="10.00">Common/Logger.hpp</text>
</a>
</g>
</g>
<!-- Node6&#45;&gt;Node8 -->
<g id="edge8_Node000006_Node000008" class="edge">
<title>Node6&#45;&gt;Node8</title>
<g id="a_edge8_Node000006_Node000008"><a xlink:title=" ">
<path fill="none" stroke="#63b8ff" d="M269.17,-219.98C225.66,-210.8 156.3,-196.15 109.15,-186.19"/>
<polygon fill="#63b8ff" stroke="#63b8ff" points="109.65,-182.72 99.14,-184.08 108.2,-189.57 109.65,-182.72"/>
</a>
</g>
</g>
<!-- Node11 -->
<g id="Node000011" class="node">
<title>Node11</title>
<g id="a_Node000011"><a xlink:href="_entity_8hpp.html" target="_top" xlink:title=" ">
<polygon fill="white" stroke="#666666" points="345.5,-74 259.5,-74 259.5,-55 345.5,-55 345.5,-74"/>
<text text-anchor="middle" x="302.5" y="-62" font-family="Helvetica,sans-Serif" font-size="10.00">ECS/Entity.hpp</text>
</a>
</g>
</g>
<!-- Node6&#45;&gt;Node11 -->
<g id="edge11_Node000006_Node000011" class="edge">
<title>Node6&#45;&gt;Node11</title>
<g id="a_edge11_Node000006_Node000011"><a xlink:title=" ">
<path fill="none" stroke="#63b8ff" d="M309.12,-219.74C308.03,-194.31 304.84,-120.08 303.32,-84.69"/>
<polygon fill="#63b8ff" stroke="#63b8ff" points="306.8,-84.15 302.88,-74.31 299.81,-84.45 306.8,-84.15"/>
</a>
</g>
</g>
<!-- Node13 -->
<g id="Node000013" class="node">
<title>Node13</title>
<g id="a_Node000013"><a xlink:href="_entity_hierarchy_8hpp.html" target="_top" xlink:title=" ">
<polygon fill="white" stroke="#666666" points="539.5,-184 405.5,-184 405.5,-165 539.5,-165 539.5,-184"/>
<text text-anchor="middle" x="472.5" y="-172" font-family="Helvetica,sans-Serif" font-size="10.00">ECS/EntityHierarchy.hpp</text>
</a>
</g>
</g>
<!-- Node6&#45;&gt;Node13 -->
<g id="edge13_Node000006_Node000013" class="edge">
<title>Node6&#45;&gt;Node13</title>
<g id="a_edge13_Node000006_Node000013"><a xlink:title=" ">
<path fill="none" stroke="#63b8ff" d="M335.69,-219.98C362.94,-211.13 405.8,-197.19 436.28,-187.28"/>
<polygon fill="#63b8ff" stroke="#63b8ff" points="437.68,-190.5 446.11,-184.08 435.51,-183.85 437.68,-190.5"/>
</a>
</g>
</g>
<!-- Node16 -->
<g id="Node000016" class="node">
<title>Node16</title>
<g id="a_Node000016"><a xlink:href="_entity_provider_8hpp.html" target="_top" xlink:title="Manages a pool of unused entity identifiers and provides mechanisms for requesting and removing them.">
<polygon fill="white" stroke="#666666" points="280.5,-129 152.5,-129 152.5,-110 280.5,-110 280.5,-129"/>
<text text-anchor="middle" x="216.5" y="-117" font-family="Helvetica,sans-Serif" font-size="10.00">ECS/EntityProvider.hpp</text>
</a>
</g>
</g>
<!-- Node6&#45;&gt;Node16 -->
<g id="edge18_Node000006_Node000016" class="edge">
<title>Node6&#45;&gt;Node16</title>
<g id="a_edge18_Node000006_Node000016"><a xlink:title=" ">
<path fill="none" stroke="#63b8ff" d="M301.89,-219.66C286.28,-201.54 250.44,-159.91 230.51,-136.77"/>
<polygon fill="#63b8ff" stroke="#63b8ff" points="233.13,-134.45 223.96,-129.16 227.83,-139.02 233.13,-134.45"/>
</a>
</g>
</g>
<!-- Node17 -->
<g id="Node000017" class="node">
<title>Node17</title>
<g id="a_Node000017"><a xlink:href="_sparse_set_8hpp.html" target="_top" xlink:title=" ">
<polygon fill="white" stroke="#666666" points="243.5,-184 135.5,-184 135.5,-165 243.5,-165 243.5,-184"/>
<text text-anchor="middle" x="189.5" y="-172" font-family="Helvetica,sans-Serif" font-size="10.00">ECS/SparseSet.hpp</text>
</a>
</g>
</g>
<!-- Node6&#45;&gt;Node17 -->
<g id="edge22_Node000006_Node000017" class="edge">
<title>Node6&#45;&gt;Node17</title>
<g id="a_edge22_Node000006_Node000017"><a xlink:title=" ">
<path fill="none" stroke="#63b8ff" d="M290.22,-219.98C270.83,-211.42 240.69,-198.11 218.43,-188.28"/>
<polygon fill="#63b8ff" stroke="#63b8ff" points="219.69,-185.01 209.13,-184.17 216.86,-191.41 219.69,-185.01"/>
</a>
</g>
</g>
<!-- Node18 -->
<g id="Node000018" class="node">
<title>Node18</title>
<g id="a_Node000018"><a xlink:href="_singleton_component_8hpp.html" target="_top" xlink:title=" ">
<polygon fill="white" stroke="#666666" points="719,-184 558,-184 558,-165 719,-165 719,-184"/>
<text text-anchor="middle" x="638.5" y="-172" font-family="Helvetica,sans-Serif" font-size="10.00">ECS/SingletonComponent.hpp</text>
</a>
</g>
</g>
<!-- Node6&#45;&gt;Node18 -->
<g id="edge24_Node000006_Node000018" class="edge">
<title>Node6&#45;&gt;Node18</title>
<g id="a_edge24_Node000006_Node000018"><a xlink:title=" ">
<path fill="none" stroke="#63b8ff" d="M358.75,-220.57C416.49,-211.26 512.28,-195.83 575.41,-185.66"/>
<polygon fill="#63b8ff" stroke="#63b8ff" points="576.32,-189.06 585.63,-184.02 575.21,-182.15 576.32,-189.06"/>
</a>
</g>
</g>
<!-- Node9 -->
<g id="Node000009" class="node">
<title>Node9</title>
<g id="a_Node000009"><a xlink:title=" ">
<polygon fill="#e0e0e0" stroke="#999999" points="134.5,-129 86.5,-129 86.5,-110 134.5,-110 134.5,-129"/>
<text text-anchor="middle" x="110.5" y="-117" font-family="Helvetica,sans-Serif" font-size="10.00">mutex</text>
</a>
</g>
</g>
<!-- Node8&#45;&gt;Node9 -->
<g id="edge9_Node000008_Node000009" class="edge">
<title>Node8&#45;&gt;Node9</title>
<g id="a_edge9_Node000008_Node000009"><a xlink:title=" ">
<path fill="none" stroke="#63b8ff" d="M67.09,-164.75C74.66,-157.03 85.88,-145.6 95.01,-136.28"/>
<polygon fill="#63b8ff" stroke="#63b8ff" points="97.57,-138.68 102.07,-129.09 92.57,-133.78 97.57,-138.68"/>
</a>
</g>
</g>
<!-- Node10 -->
<g id="Node000010" class="node">
<title>Node10</title>
<g id="a_Node000010"><a xlink:title=" ">
<polygon fill="#e0e0e0" stroke="#999999" points="140,-74 93,-74 93,-55 140,-55 140,-74"/>
<text text-anchor="middle" x="116.5" y="-62" font-family="Helvetica,sans-Serif" font-size="10.00">queue</text>
</a>
</g>
</g>
<!-- Node8&#45;&gt;Node10 -->
<g id="edge10_Node000008_Node000010" class="edge">
<title>Node8&#45;&gt;Node10</title>
<g id="a_edge10_Node000008_Node000010"><a xlink:title=" ">
<path fill="none" stroke="#63b8ff" d="M59.88,-164.83C62.15,-152.16 67.48,-128.13 77.5,-110 83.32,-99.48 91.96,-89.28 99.64,-81.31"/>
<polygon fill="#63b8ff" stroke="#63b8ff" points="102.22,-83.68 106.85,-74.15 97.29,-78.71 102.22,-83.68"/>
</a>
</g>
</g>
<!-- Node12 -->
<g id="Node000012" class="node">
<title>Node12</title>
<g id="a_Node000012"><a xlink:title=" ">
<polygon fill="#e0e0e0" stroke="#999999" points="288,-19 235,-19 235,0 288,0 288,-19"/>
<text text-anchor="middle" x="261.5" y="-7" font-family="Helvetica,sans-Serif" font-size="10.00">stdlib.h</text>
</a>
</g>
</g>
<!-- Node11&#45;&gt;Node12 -->
<g id="edge12_Node000011_Node000012" class="edge">
<title>Node11&#45;&gt;Node12</title>
<g id="a_edge12_Node000011_Node000012"><a xlink:title=" ">
<path fill="none" stroke="#63b8ff" d="M295.73,-54.75C289.94,-47.26 281.44,-36.28 274.36,-27.13"/>
<polygon fill="#63b8ff" stroke="#63b8ff" points="277.03,-24.86 268.14,-19.09 271.49,-29.14 277.03,-24.86"/>
</a>
</g>
</g>
<!-- Node13&#45;&gt;Node7 -->
<g id="edge15_Node000013_Node000007" class="edge">
<title>Node13&#45;&gt;Node7</title>
<g id="a_edge15_Node000013_Node000007"><a xlink:title=" ">
<path fill="none" stroke="#63b8ff" d="M457.56,-164.98C443,-156.69 420.63,-143.94 403.57,-134.22"/>
<polygon fill="#63b8ff" stroke="#63b8ff" points="405.14,-131.08 394.71,-129.17 401.67,-137.16 405.14,-131.08"/>
</a>
</g>
</g>
<!-- Node13&#45;&gt;Node11 -->
<g id="edge17_Node000013_Node000011" class="edge">
<title>Node13&#45;&gt;Node11</title>
<g id="a_edge17_Node000013_Node000011"><a xlink:title=" ">
<path fill="none" stroke="#63b8ff" d="M526.2,-164.98C565.59,-157.51 614.25,-145.29 626.5,-129 631.58,-122.25 632.05,-116.36 626.5,-110 592.06,-70.5 438.81,-64.83 356.01,-64.74"/>
<polygon fill="#63b8ff" stroke="#63b8ff" points="355.78,-61.24 345.79,-64.75 355.79,-68.24 355.78,-61.24"/>
</a>
</g>
</g>
<!-- Node14 -->
<g id="Node000014" class="node">
<title>Node14</title>
<g id="a_Node000014"><a xlink:title=" ">
<polygon fill="#e0e0e0" stroke="#999999" points="617,-129 552,-129 552,-110 617,-110 617,-129"/>
<text text-anchor="middle" x="584.5" y="-117" font-family="Helvetica,sans-Serif" font-size="10.00">functional</text>
</a>
</g>
</g>
<!-- Node13&#45;&gt;Node14 -->
<g id="edge14_Node000013_Node000014" class="edge">
<title>Node13&#45;&gt;Node14</title>
<g id="a_edge14_Node000013_Node000014"><a xlink:title=" ">
<path fill="none" stroke="#63b8ff" d="M490.49,-164.98C508.43,-156.5 536.22,-143.35 556.93,-133.54"/>
<polygon fill="#63b8ff" stroke="#63b8ff" points="558.64,-136.61 566.18,-129.17 555.64,-130.28 558.64,-136.61"/>
</a>
</g>
</g>
<!-- Node15 -->
<g id="Node000015" class="node">
<title>Node15</title>
<g id="a_Node000015"><a xlink:title=" ">
<polygon fill="#e0e0e0" stroke="#999999" points="534,-129 441,-129 441,-110 534,-110 534,-129"/>
<text text-anchor="middle" x="487.5" y="-117" font-family="Helvetica,sans-Serif" font-size="10.00">unordered_map</text>
</a>
</g>
</g>
<!-- Node13&#45;&gt;Node15 -->
<g id="edge16_Node000013_Node000015" class="edge">
<title>Node13&#45;&gt;Node15</title>
<g id="a_edge16_Node000013_Node000015"><a xlink:title=" ">
<path fill="none" stroke="#63b8ff" d="M474.98,-164.75C476.96,-157.72 479.82,-147.62 482.31,-138.84"/>
<polygon fill="#63b8ff" stroke="#63b8ff" points="485.71,-139.66 485.07,-129.09 478.98,-137.76 485.71,-139.66"/>
</a>
</g>
</g>
<!-- Node16&#45;&gt;Node10 -->
<g id="edge20_Node000016_Node000010" class="edge">
<title>Node16&#45;&gt;Node10</title>
<g id="a_edge20_Node000016_Node000010"><a xlink:title=" ">
<path fill="none" stroke="#63b8ff" d="M200.43,-109.98C184.64,-101.61 160.28,-88.7 141.87,-78.95"/>
<polygon fill="#63b8ff" stroke="#63b8ff" points="143.33,-75.76 132.86,-74.17 140.06,-81.95 143.33,-75.76"/>
</a>
</g>
</g>
<!-- Node16&#45;&gt;Node11 -->
<g id="edge21_Node000016_Node000011" class="edge">
<title>Node16&#45;&gt;Node11</title>
<g id="a_edge21_Node000016_Node000011"><a xlink:title=" ">
<path fill="none" stroke="#63b8ff" d="M230.32,-109.98C243.65,-101.77 264.08,-89.18 279.81,-79.49"/>
<polygon fill="#63b8ff" stroke="#63b8ff" points="281.75,-82.4 288.43,-74.17 278.08,-76.44 281.75,-82.4"/>
</a>
</g>
</g>
<!-- Node16&#45;&gt;Node12 -->
<g id="edge19_Node000016_Node000012" class="edge">
<title>Node16&#45;&gt;Node12</title>
<g id="a_edge19_Node000016_Node000012"><a xlink:title=" ">
<path fill="none" stroke="#63b8ff" d="M220.18,-109.66C227.54,-92.01 244.17,-52.09 253.94,-28.64"/>
<polygon fill="#63b8ff" stroke="#63b8ff" points="257.28,-29.74 257.89,-19.16 250.82,-27.04 257.28,-29.74"/>
</a>
</g>
</g>
<!-- Node17&#45;&gt;Node16 -->
<g id="edge23_Node000017_Node000016" class="edge">
<title>Node17&#45;&gt;Node16</title>
<g id="a_edge23_Node000017_Node000016"><a xlink:title=" ">
<path fill="none" stroke="#63b8ff" d="M193.96,-164.75C197.62,-157.57 202.91,-147.18 207.45,-138.27"/>
<polygon fill="#63b8ff" stroke="#63b8ff" points="210.7,-139.59 212.12,-129.09 204.47,-136.41 210.7,-139.59"/>
</a>
</g>
</g>
</g>
</svg>
