<?xml version="1.0" encoding="UTF-8" standalone="no"?>
<!DOCTYPE svg PUBLIC "-//W3C//DTD SVG 1.1//EN"
 "http://www.w3.org/Graphics/SVG/1.1/DTD/svg11.dtd">
<!-- Generated by graphviz version 2.43.0 (0)
 -->
<!-- Title: src/ui/components/shapes/ShapeCircleUIComponent.hpp Pages: 1 -->
<svg width="328pt" height="106pt"
 viewBox="0.00 0.00 327.50 106.00" xmlns="http://www.w3.org/2000/svg" xmlns:xlink="http://www.w3.org/1999/xlink">
<g id="graph0" class="graph" transform="scale(1 1) rotate(0) translate(4 102)">
<title>src/ui/components/shapes/ShapeCircleUIComponent.hpp</title>
<polygon fill="white" stroke="transparent" points="-4,4 -4,-102 323.5,-102 323.5,4 -4,4"/>
<!-- Node1 -->
<g id="node1" class="node">
<title>Node1</title>
<g id="a_node1"><a xlink:title="Defines the ShapeCircleUIComponent class, a specialized UIComponent for rendering circle shapes.">
<polygon fill="#bfbfbf" stroke="black" points="83.5,-67.5 83.5,-97.5 248.5,-97.5 248.5,-67.5 83.5,-67.5"/>
<text text-anchor="start" x="91.5" y="-85.5" font-family="Helvetica,sans-Serif" font-size="10.00">src/ui/components/shapes</text>
<text text-anchor="middle" x="166" y="-74.5" font-family="Helvetica,sans-Serif" font-size="10.00">/ShapeCircleUIComponent.hpp</text>
</a>
</g>
</g>
<!-- Node2 -->
<g id="node2" class="node">
<title>Node2</title>
<g id="a_node2"><a xlink:href="_shape_circle_u_i_component_8cpp.html" target="_top" xlink:title=" ">
<polygon fill="white" stroke="black" points="0,-0.5 0,-30.5 164,-30.5 164,-0.5 0,-0.5"/>
<text text-anchor="start" x="8" y="-18.5" font-family="Helvetica,sans-Serif" font-size="10.00">src/ui/components/shapes</text>
<text text-anchor="middle" x="82" y="-7.5" font-family="Helvetica,sans-Serif" font-size="10.00">/ShapeCircleUIComponent.cpp</text>
</a>
</g>
</g>
<!-- Node1&#45;&gt;Node2 -->
<g id="edge1" class="edge">
<title>Node1&#45;&gt;Node2</title>
<path fill="none" stroke="midnightblue" d="M139.72,-61.17C126.88,-51.23 111.74,-39.51 100.19,-30.58"/>
<polygon fill="midnightblue" stroke="midnightblue" points="137.72,-64.04 147.77,-67.4 142.01,-58.51 137.72,-64.04"/>
</g>
<!-- Node3 -->
<g id="node3" class="node">
<title>Node3</title>
<g id="a_node3"><a xlink:href="_properties_widget_8cpp.html" target="_top" xlink:title=" ">
<polygon fill="white" stroke="black" points="182.5,-0.5 182.5,-30.5 319.5,-30.5 319.5,-0.5 182.5,-0.5"/>
<text text-anchor="start" x="190.5" y="-18.5" font-family="Helvetica,sans-Serif" font-size="10.00">src/ui/widgets/Properties</text>
<text text-anchor="middle" x="251" y="-7.5" font-family="Helvetica,sans-Serif" font-size="10.00">Widget.cpp</text>
</a>
</g>
</g>
<!-- Node1&#45;&gt;Node3 -->
<g id="edge2" class="edge">
<title>Node1&#45;&gt;Node3</title>
<path fill="none" stroke="midnightblue" d="M192.59,-61.17C205.59,-51.23 220.9,-39.51 232.59,-30.58"/>
<polygon fill="midnightblue" stroke="midnightblue" points="190.26,-58.54 184.44,-67.4 194.51,-64.1 190.26,-58.54"/>
</g>
</g>
</svg>
