<?xml version="1.0" encoding="UTF-8" standalone="no"?>
<!DOCTYPE svg PUBLIC "-//W3C//DTD SVG 1.1//EN"
 "http://www.w3.org/Graphics/SVG/1.1/DTD/svg11.dtd">
<!-- Generated by graphviz version 2.43.0 (0)
 -->
<!-- Title: src/Rendering/ShaderProgram.hpp Pages: 1 -->
<svg width="610pt" height="218pt"
 viewBox="0.00 0.00 610.00 218.00" xmlns="http://www.w3.org/2000/svg" xmlns:xlink="http://www.w3.org/1999/xlink">
<g id="graph0" class="graph" transform="scale(1 1) rotate(0) translate(4 214)">
<title>src/Rendering/ShaderProgram.hpp</title>
<polygon fill="white" stroke="transparent" points="-4,4 -4,-214 606,-214 606,4 -4,4"/>
<!-- Node1 -->
<g id="node1" class="node">
<title>Node1</title>
<g id="a_node1"><a xlink:title=" ">
<polygon fill="#bfbfbf" stroke="black" points="277,-190.5 277,-209.5 459,-209.5 459,-190.5 277,-190.5"/>
<text text-anchor="middle" x="368" y="-197.5" font-family="Helvetica,sans-Serif" font-size="10.00">src/Rendering/ShaderProgram.hpp</text>
</a>
</g>
</g>
<!-- Node2 -->
<g id="node2" class="node">
<title>Node2</title>
<g id="a_node2"><a xlink:href="_shader_program_8cpp.html" target="_top" xlink:title=" ">
<polygon fill="white" stroke="black" points="0,-129 0,-148 182,-148 182,-129 0,-129"/>
<text text-anchor="middle" x="91" y="-136" font-family="Helvetica,sans-Serif" font-size="10.00">src/Rendering/ShaderProgram.cpp</text>
</a>
</g>
</g>
<!-- Node1&#45;&gt;Node2 -->
<g id="edge1" class="edge">
<title>Node1&#45;&gt;Node2</title>
<path fill="none" stroke="midnightblue" d="M318.33,-188.33C264.61,-176.79 180.05,-158.63 130.61,-148.01"/>
<polygon fill="midnightblue" stroke="midnightblue" points="317.8,-191.8 328.31,-190.48 319.27,-184.95 317.8,-191.8"/>
</g>
<!-- Node3 -->
<g id="node3" class="node">
<title>Node3</title>
<g id="a_node3"><a xlink:href="_model_renderer_system_8hpp.html" target="_top" xlink:title=" ">
<polygon fill="white" stroke="black" points="200.5,-123.5 200.5,-153.5 353.5,-153.5 353.5,-123.5 200.5,-123.5"/>
<text text-anchor="start" x="208.5" y="-141.5" font-family="Helvetica,sans-Serif" font-size="10.00">src/Systems/ModelRenderer</text>
<text text-anchor="middle" x="277" y="-130.5" font-family="Helvetica,sans-Serif" font-size="10.00">System.hpp</text>
</a>
</g>
</g>
<!-- Node1&#45;&gt;Node3 -->
<g id="edge2" class="edge">
<title>Node1&#45;&gt;Node3</title>
<path fill="none" stroke="midnightblue" d="M346.19,-184.74C331.73,-175.28 312.83,-162.93 298.45,-153.52"/>
<polygon fill="midnightblue" stroke="midnightblue" points="344.68,-187.93 354.96,-190.48 348.51,-182.07 344.68,-187.93"/>
</g>
<!-- Node6 -->
<g id="node6" class="node">
<title>Node6</title>
<g id="a_node6"><a xlink:href="_scene_widget_8hpp.html" target="_top" xlink:title="Contains the declaration of the SceneWidget class, a user interface widget for rendering scenes.">
<polygon fill="white" stroke="black" points="430,-0.5 430,-19.5 602,-19.5 602,-0.5 430,-0.5"/>
<text text-anchor="middle" x="516" y="-7.5" font-family="Helvetica,sans-Serif" font-size="10.00">src/ui/widgets/SceneWidget.hpp</text>
</a>
</g>
</g>
<!-- Node1&#45;&gt;Node6 -->
<g id="edge10" class="edge">
<title>Node1&#45;&gt;Node6</title>
<path fill="none" stroke="midnightblue" d="M453.42,-188.92C496.69,-181.87 542.84,-170.68 556,-154 582.98,-119.8 571.48,-96.71 556,-56 550.28,-40.95 536.97,-27.73 527.27,-19.57"/>
<polygon fill="midnightblue" stroke="midnightblue" points="452.72,-185.49 443.38,-190.49 453.8,-192.4 452.72,-185.49"/>
</g>
<!-- Node8 -->
<g id="node8" class="node">
<title>Node8</title>
<g id="a_node8"><a xlink:href="_wireframe_renderer_system_8hpp.html" target="_top" xlink:title=" ">
<polygon fill="white" stroke="black" points="371.5,-123.5 371.5,-153.5 546.5,-153.5 546.5,-123.5 371.5,-123.5"/>
<text text-anchor="start" x="379.5" y="-141.5" font-family="Helvetica,sans-Serif" font-size="10.00">src/Systems/WireframeRenderer</text>
<text text-anchor="middle" x="459" y="-130.5" font-family="Helvetica,sans-Serif" font-size="10.00">System.hpp</text>
</a>
</g>
</g>
<!-- Node1&#45;&gt;Node8 -->
<g id="edge7" class="edge">
<title>Node1&#45;&gt;Node8</title>
<path fill="none" stroke="midnightblue" d="M389.81,-184.74C404.27,-175.28 423.17,-162.93 437.55,-153.52"/>
<polygon fill="midnightblue" stroke="midnightblue" points="387.49,-182.07 381.04,-190.48 391.32,-187.93 387.49,-182.07"/>
</g>
<!-- Node4 -->
<g id="node4" class="node">
<title>Node4</title>
<g id="a_node4"><a xlink:href="_runtime_8hpp.html" target="_top" xlink:title=" ">
<polygon fill="white" stroke="black" points="213,-62 213,-81 353,-81 353,-62 213,-62"/>
<text text-anchor="middle" x="283" y="-69" font-family="Helvetica,sans-Serif" font-size="10.00">src/Runtime/Runtime.hpp</text>
</a>
</g>
</g>
<!-- Node3&#45;&gt;Node4 -->
<g id="edge3" class="edge">
<title>Node3&#45;&gt;Node4</title>
<path fill="none" stroke="midnightblue" d="M279.24,-113.25C280.28,-102.02 281.44,-89.38 282.2,-81.19"/>
<polygon fill="midnightblue" stroke="midnightblue" points="275.74,-113.12 278.3,-123.4 282.71,-113.76 275.74,-113.12"/>
</g>
<!-- Node7 -->
<g id="node7" class="node">
<title>Node7</title>
<g id="a_node7"><a xlink:href="_model_renderer_system_8cpp.html" target="_top" xlink:title=" ">
<polygon fill="white" stroke="black" points="41.5,-56.5 41.5,-86.5 194.5,-86.5 194.5,-56.5 41.5,-56.5"/>
<text text-anchor="start" x="49.5" y="-74.5" font-family="Helvetica,sans-Serif" font-size="10.00">src/Systems/ModelRenderer</text>
<text text-anchor="middle" x="118" y="-63.5" font-family="Helvetica,sans-Serif" font-size="10.00">System.cpp</text>
</a>
</g>
</g>
<!-- Node3&#45;&gt;Node7 -->
<g id="edge6" class="edge">
<title>Node3&#45;&gt;Node7</title>
<path fill="none" stroke="midnightblue" d="M233.08,-119.54C207.63,-109.14 176.07,-96.24 152.43,-86.58"/>
<polygon fill="midnightblue" stroke="midnightblue" points="231.92,-122.85 242.5,-123.4 234.57,-116.37 231.92,-122.85"/>
</g>
<!-- Node5 -->
<g id="node5" class="node">
<title>Node5</title>
<g id="a_node5"><a xlink:href="_runtime_8cpp.html" target="_top" xlink:title=" ">
<polygon fill="white" stroke="black" points="213,-0.5 213,-19.5 353,-19.5 353,-0.5 213,-0.5"/>
<text text-anchor="middle" x="283" y="-7.5" font-family="Helvetica,sans-Serif" font-size="10.00">src/Runtime/Runtime.cpp</text>
</a>
</g>
</g>
<!-- Node4&#45;&gt;Node5 -->
<g id="edge4" class="edge">
<title>Node4&#45;&gt;Node5</title>
<path fill="none" stroke="midnightblue" d="M283,-51.82C283,-41 283,-27.9 283,-19.51"/>
<polygon fill="midnightblue" stroke="midnightblue" points="279.5,-51.98 283,-61.98 286.5,-51.98 279.5,-51.98"/>
</g>
<!-- Node4&#45;&gt;Node6 -->
<g id="edge5" class="edge">
<title>Node4&#45;&gt;Node6</title>
<path fill="none" stroke="midnightblue" d="M326.2,-59.47C371.44,-47.91 441.53,-30.02 482.68,-19.51"/>
<polygon fill="midnightblue" stroke="midnightblue" points="325.21,-56.11 316.38,-61.98 326.94,-62.89 325.21,-56.11"/>
</g>
<!-- Node8&#45;&gt;Node4 -->
<g id="edge8" class="edge">
<title>Node8&#45;&gt;Node4</title>
<path fill="none" stroke="midnightblue" d="M411.03,-119.78C376.9,-107.18 332.57,-90.81 306.03,-81.01"/>
<polygon fill="midnightblue" stroke="midnightblue" points="410.22,-123.21 420.81,-123.4 412.64,-116.65 410.22,-123.21"/>
</g>
<!-- Node9 -->
<g id="node9" class="node">
<title>Node9</title>
<g id="a_node9"><a xlink:href="_wireframe_renderer_system_8cpp.html" target="_top" xlink:title=" ">
<polygon fill="white" stroke="black" points="371.5,-56.5 371.5,-86.5 546.5,-86.5 546.5,-56.5 371.5,-56.5"/>
<text text-anchor="start" x="379.5" y="-74.5" font-family="Helvetica,sans-Serif" font-size="10.00">src/Systems/WireframeRenderer</text>
<text text-anchor="middle" x="459" y="-63.5" font-family="Helvetica,sans-Serif" font-size="10.00">System.cpp</text>
</a>
</g>
</g>
<!-- Node8&#45;&gt;Node9 -->
<g id="edge9" class="edge">
<title>Node8&#45;&gt;Node9</title>
<path fill="none" stroke="midnightblue" d="M459,-113.11C459,-104.15 459,-94.32 459,-86.58"/>
<polygon fill="midnightblue" stroke="midnightblue" points="455.5,-113.4 459,-123.4 462.5,-113.4 455.5,-113.4"/>
</g>
</g>
</svg>
