<?xml version="1.0" encoding="UTF-8" standalone="no"?>
<!DOCTYPE svg PUBLIC "-//W3C//DTD SVG 1.1//EN"
 "http://www.w3.org/Graphics/SVG/1.1/DTD/svg11.dtd">
<!-- Generated by graphviz version 2.43.0 (0)
 -->
<!-- Title: src/Rendering/ShaderProgram.hpp Pages: 1 -->
<svg width="541pt" height="313pt"
 viewBox="0.00 0.00 541.28 313.00" xmlns="http://www.w3.org/2000/svg" xmlns:xlink="http://www.w3.org/1999/xlink">
<g id="graph0" class="graph" transform="scale(1 1) rotate(0) translate(4 309)">
<title>src/Rendering/ShaderProgram.hpp</title>
<!-- Node1 -->
<g id="Node000001" class="node">
<title>Node1</title>
<g id="a_Node000001"><a xlink:title=" ">
<polygon fill="#999999" stroke="#666666" points="299.28,-305 117.28,-305 117.28,-286 299.28,-286 299.28,-305"/>
<text text-anchor="middle" x="208.28" y="-293" font-family="Helvetica,sans-Serif" font-size="10.00">src/Rendering/ShaderProgram.hpp</text>
</a>
</g>
</g>
<!-- Node2 -->
<g id="Node000002" class="node">
<title>Node2</title>
<g id="a_Node000002"><a xlink:title=" ">
<polygon fill="#e0e0e0" stroke="#999999" points="124.78,-189.5 53.78,-189.5 53.78,-170.5 124.78,-170.5 124.78,-189.5"/>
<text text-anchor="middle" x="89.28" y="-177.5" font-family="Helvetica,sans-Serif" font-size="10.00">glad/glad.h</text>
</a>
</g>
</g>
<!-- Node1&#45;&gt;Node2 -->
<g id="edge1_Node000001_Node000002" class="edge">
<title>Node1&#45;&gt;Node2</title>
<g id="a_edge1_Node000001_Node000002"><a xlink:title=" ">
<path fill="none" stroke="#63b8ff" d="M119.3,-285.97C71.7,-279.38 19.93,-268.2 5.28,-250 -13.45,-226.71 23.14,-205.83 53.77,-193.29"/>
<polygon fill="#63b8ff" stroke="#63b8ff" points="55.39,-196.42 63.43,-189.52 52.84,-189.9 55.39,-196.42"/>
</a>
</g>
</g>
<!-- Node3 -->
<g id="Node000003" class="node">
<title>Node3</title>
<g id="a_Node000003"><a xlink:title=" ">
<polygon fill="#e0e0e0" stroke="#999999" points="92.28,-250 14.28,-250 14.28,-231 92.28,-231 92.28,-250"/>
<text text-anchor="middle" x="53.28" y="-238" font-family="Helvetica,sans-Serif" font-size="10.00">glm/glm.hpp</text>
</a>
</g>
</g>
<!-- Node1&#45;&gt;Node3 -->
<g id="edge2_Node000001_Node000003" class="edge">
<title>Node1&#45;&gt;Node3</title>
<g id="a_edge2_Node000001_Node000003"><a xlink:title=" ">
<path fill="none" stroke="#63b8ff" d="M183.38,-285.98C157.58,-277.16 117.06,-263.31 88.1,-253.41"/>
<polygon fill="#63b8ff" stroke="#63b8ff" points="88.98,-250.01 78.38,-250.08 86.71,-256.63 88.98,-250.01"/>
</a>
</g>
</g>
<!-- Node4 -->
<g id="Node000004" class="node">
<title>Node4</title>
<g id="a_Node000004"><a xlink:title=" ">
<polygon fill="#e0e0e0" stroke="#999999" points="168.28,-250 110.28,-250 110.28,-231 168.28,-231 168.28,-250"/>
<text text-anchor="middle" x="139.28" y="-238" font-family="Helvetica,sans-Serif" font-size="10.00">memory</text>
</a>
</g>
</g>
<!-- Node1&#45;&gt;Node4 -->
<g id="edge3_Node000001_Node000004" class="edge">
<title>Node1&#45;&gt;Node4</title>
<g id="a_edge3_Node000001_Node000004"><a xlink:title=" ">
<path fill="none" stroke="#63b8ff" d="M197.2,-285.98C186.8,-278 171.02,-265.88 158.56,-256.31"/>
<polygon fill="#63b8ff" stroke="#63b8ff" points="160.63,-253.49 150.57,-250.17 156.37,-259.04 160.63,-253.49"/>
</a>
</g>
</g>
<!-- Node5 -->
<g id="Node000005" class="node">
<title>Node5</title>
<g id="a_Node000005"><a xlink:title=" ">
<polygon fill="#e0e0e0" stroke="#999999" points="229.78,-250 186.78,-250 186.78,-231 229.78,-231 229.78,-250"/>
<text text-anchor="middle" x="208.28" y="-238" font-family="Helvetica,sans-Serif" font-size="10.00">stack</text>
</a>
</g>
</g>
<!-- Node1&#45;&gt;Node5 -->
<g id="edge4_Node000001_Node000005" class="edge">
<title>Node1&#45;&gt;Node5</title>
<g id="a_edge4_Node000001_Node000005"><a xlink:title=" ">
<path fill="none" stroke="#63b8ff" d="M208.28,-285.75C208.28,-278.8 208.28,-268.85 208.28,-260.13"/>
<polygon fill="#63b8ff" stroke="#63b8ff" points="211.78,-260.09 208.28,-250.09 204.78,-260.09 211.78,-260.09"/>
</a>
</g>
</g>
<!-- Node6 -->
<g id="Node000006" class="node">
<title>Node6</title>
<g id="a_Node000006"><a xlink:title=" ">
<polygon fill="#e0e0e0" stroke="#999999" points="533.28,-19 489.28,-19 489.28,0 533.28,0 533.28,-19"/>
<text text-anchor="middle" x="511.28" y="-7" font-family="Helvetica,sans-Serif" font-size="10.00">string</text>
</a>
</g>
</g>
<!-- Node1&#45;&gt;Node6 -->
<g id="edge5_Node000001_Node000006" class="edge">
<title>Node1&#45;&gt;Node6</title>
<g id="a_edge5_Node000001_Node000006"><a xlink:title=" ">
<path fill="none" stroke="#63b8ff" d="M299.64,-291.69C376.83,-287.45 479.59,-276.79 510.28,-250 534.34,-229.01 530.28,-212.93 530.28,-181 530.28,-181 530.28,-181 530.28,-118.5 530.28,-86.56 522.13,-50.1 516.5,-28.77"/>
<polygon fill="#63b8ff" stroke="#63b8ff" points="519.87,-27.81 513.85,-19.09 513.12,-29.66 519.87,-27.81"/>
</a>
</g>
</g>
<!-- Node7 -->
<g id="Node000007" class="node">
<title>Node7</title>
<g id="a_Node000007"><a xlink:title=" ">
<polygon fill="#e0e0e0" stroke="#999999" points="501.78,-250 408.78,-250 408.78,-231 501.78,-231 501.78,-250"/>
<text text-anchor="middle" x="455.28" y="-238" font-family="Helvetica,sans-Serif" font-size="10.00">unordered_map</text>
</a>
</g>
</g>
<!-- Node1&#45;&gt;Node7 -->
<g id="edge6_Node000001_Node000007" class="edge">
<title>Node1&#45;&gt;Node7</title>
<g id="a_edge6_Node000001_Node000007"><a xlink:title=" ">
<path fill="none" stroke="#63b8ff" d="M247.97,-285.98C290.78,-276.8 359.05,-262.15 405.45,-252.19"/>
<polygon fill="#63b8ff" stroke="#63b8ff" points="406.25,-255.6 415.29,-250.08 404.78,-248.76 406.25,-255.6"/>
</a>
</g>
</g>
<!-- Node8 -->
<g id="Node000008" class="node">
<title>Node8</title>
<g id="a_Node000008"><a xlink:href="_shader_8hpp.html" target="_top" xlink:title=" ">
<polygon fill="white" stroke="#666666" points="390.78,-250 247.78,-250 247.78,-231 390.78,-231 390.78,-250"/>
<text text-anchor="middle" x="319.28" y="-238" font-family="Helvetica,sans-Serif" font-size="10.00">AssetManager/Shader.hpp</text>
</a>
</g>
</g>
<!-- Node1&#45;&gt;Node8 -->
<g id="edge7_Node000001_Node000008" class="edge">
<title>Node1&#45;&gt;Node8</title>
<g id="a_edge7_Node000001_Node000008"><a xlink:title=" ">
<path fill="none" stroke="#63b8ff" d="M226.12,-285.98C243.89,-277.5 271.43,-264.35 291.96,-254.54"/>
<polygon fill="#63b8ff" stroke="#63b8ff" points="293.61,-257.64 301.13,-250.17 290.59,-251.32 293.61,-257.64"/>
</a>
</g>
</g>
<!-- Node8&#45;&gt;Node2 -->
<g id="edge8_Node000008_Node000002" class="edge">
<title>Node8&#45;&gt;Node2</title>
<g id="a_edge8_Node000008_Node000002"><a xlink:title=" ">
<path fill="none" stroke="#63b8ff" d="M285.84,-230.99C245.39,-220.7 177.19,-203.36 132.71,-192.04"/>
<polygon fill="#63b8ff" stroke="#63b8ff" points="133.32,-188.59 122.77,-189.52 131.6,-195.37 133.32,-188.59"/>
</a>
</g>
</g>
<!-- Node9 -->
<g id="Node000009" class="node">
<title>Node9</title>
<g id="a_Node000009"><a xlink:href="_path_constructible_asset_8hpp.html" target="_top" xlink:title=" ">
<polygon fill="white" stroke="#666666" points="413.78,-195 238.78,-195 238.78,-165 413.78,-165 413.78,-195"/>
<text text-anchor="start" x="246.78" y="-183" font-family="Helvetica,sans-Serif" font-size="10.00">AssetManager/PathConstructible</text>
<text text-anchor="middle" x="326.28" y="-172" font-family="Helvetica,sans-Serif" font-size="10.00">Asset.hpp</text>
</a>
</g>
</g>
<!-- Node8&#45;&gt;Node9 -->
<g id="edge9_Node000008_Node000009" class="edge">
<title>Node8&#45;&gt;Node9</title>
<g id="a_edge9_Node000008_Node000009"><a xlink:title=" ">
<path fill="none" stroke="#63b8ff" d="M320.32,-230.87C321.13,-224.11 322.29,-214.35 323.38,-205.26"/>
<polygon fill="#63b8ff" stroke="#63b8ff" points="326.88,-205.46 324.6,-195.11 319.93,-204.63 326.88,-205.46"/>
</a>
</g>
</g>
<!-- Node10 -->
<g id="Node000010" class="node">
<title>Node10</title>
<g id="a_Node000010"><a xlink:title=" ">
<polygon fill="#e0e0e0" stroke="#999999" points="494.28,-129 426.28,-129 426.28,-110 494.28,-110 494.28,-129"/>
<text text-anchor="middle" x="460.28" y="-117" font-family="Helvetica,sans-Serif" font-size="10.00">filesystem</text>
</a>
</g>
</g>
<!-- Node9&#45;&gt;Node10 -->
<g id="edge10_Node000009_Node000010" class="edge">
<title>Node9&#45;&gt;Node10</title>
<g id="a_edge10_Node000009_Node000010"><a xlink:title=" ">
<path fill="none" stroke="#63b8ff" d="M358.38,-164.99C380.54,-155.31 409.76,-142.56 431.23,-133.18"/>
<polygon fill="#63b8ff" stroke="#63b8ff" points="432.73,-136.35 440.5,-129.14 429.93,-129.93 432.73,-136.35"/>
</a>
</g>
</g>
<!-- Node11 -->
<g id="Node000011" class="node">
<title>Node11</title>
<g id="a_Node000011"><a xlink:href="_instance_counter_8hpp.html" target="_top" xlink:title=" ">
<polygon fill="white" stroke="#666666" points="408.28,-129 244.28,-129 244.28,-110 408.28,-110 408.28,-129"/>
<text text-anchor="middle" x="326.28" y="-117" font-family="Helvetica,sans-Serif" font-size="10.00">Common/InstanceCounter.hpp</text>
</a>
</g>
</g>
<!-- Node9&#45;&gt;Node11 -->
<g id="edge11_Node000009_Node000011" class="edge">
<title>Node9&#45;&gt;Node11</title>
<g id="a_edge11_Node000009_Node000011"><a xlink:title=" ">
<path fill="none" stroke="#63b8ff" d="M326.28,-164.84C326.28,-157.21 326.28,-147.7 326.28,-139.45"/>
<polygon fill="#63b8ff" stroke="#63b8ff" points="329.78,-139.27 326.28,-129.27 322.78,-139.27 329.78,-139.27"/>
</a>
</g>
</g>
<!-- Node12 -->
<g id="Node000012" class="node">
<title>Node12</title>
<g id="a_Node000012"><a xlink:title=" ">
<polygon fill="#e0e0e0" stroke="#999999" points="454.28,-74 404.28,-74 404.28,-55 454.28,-55 454.28,-74"/>
<text text-anchor="middle" x="429.28" y="-62" font-family="Helvetica,sans-Serif" font-size="10.00">atomic</text>
</a>
</g>
</g>
<!-- Node11&#45;&gt;Node12 -->
<g id="edge12_Node000011_Node000012" class="edge">
<title>Node11&#45;&gt;Node12</title>
<g id="a_edge12_Node000011_Node000012"><a xlink:title=" ">
<path fill="none" stroke="#63b8ff" d="M342.83,-109.98C359.18,-101.57 384.42,-88.59 403.41,-78.81"/>
<polygon fill="#63b8ff" stroke="#63b8ff" points="405.14,-81.86 412.43,-74.17 401.94,-75.63 405.14,-81.86"/>
</a>
</g>
</g>
<!-- Node13 -->
<g id="Node000013" class="node">
<title>Node13</title>
<g id="a_Node000013"><a xlink:href="_profiler_8hpp.html" target="_top" xlink:title=" ">
<polygon fill="white" stroke="#666666" points="385.78,-74 266.78,-74 266.78,-55 385.78,-55 385.78,-74"/>
<text text-anchor="middle" x="326.28" y="-62" font-family="Helvetica,sans-Serif" font-size="10.00">Common/Profiler.hpp</text>
</a>
</g>
</g>
<!-- Node11&#45;&gt;Node13 -->
<g id="edge13_Node000011_Node000013" class="edge">
<title>Node11&#45;&gt;Node13</title>
<g id="a_edge13_Node000011_Node000013"><a xlink:title=" ">
<path fill="none" stroke="#63b8ff" d="M326.28,-109.75C326.28,-102.8 326.28,-92.85 326.28,-84.13"/>
<polygon fill="#63b8ff" stroke="#63b8ff" points="329.78,-84.09 326.28,-74.09 322.78,-84.09 329.78,-84.09"/>
</a>
</g>
</g>
<!-- Node13&#45;&gt;Node6 -->
<g id="edge17_Node000013_Node000006" class="edge">
<title>Node13&#45;&gt;Node6</title>
<g id="a_edge17_Node000013_Node000006"><a xlink:title=" ">
<path fill="none" stroke="#63b8ff" d="M356.01,-54.98C389.85,-45.29 444.91,-29.52 479.56,-19.59"/>
<polygon fill="#63b8ff" stroke="#63b8ff" points="480.53,-22.95 489.18,-16.83 478.6,-16.22 480.53,-22.95"/>
</a>
</g>
</g>
<!-- Node14 -->
<g id="Node000014" class="node">
<title>Node14</title>
<g id="a_Node000014"><a xlink:title=" ">
<polygon fill="#e0e0e0" stroke="#999999" points="451.28,-19 401.28,-19 401.28,0 451.28,0 451.28,-19"/>
<text text-anchor="middle" x="426.28" y="-7" font-family="Helvetica,sans-Serif" font-size="10.00">chrono</text>
</a>
</g>
</g>
<!-- Node13&#45;&gt;Node14 -->
<g id="edge14_Node000013_Node000014" class="edge">
<title>Node13&#45;&gt;Node14</title>
<g id="a_edge14_Node000013_Node000014"><a xlink:title=" ">
<path fill="none" stroke="#63b8ff" d="M342.35,-54.98C358.15,-46.61 382.5,-33.7 400.91,-23.95"/>
<polygon fill="#63b8ff" stroke="#63b8ff" points="402.73,-26.95 409.93,-19.17 399.45,-20.76 402.73,-26.95"/>
</a>
</g>
</g>
<!-- Node15 -->
<g id="Node000015" class="node">
<title>Node15</title>
<g id="a_Node000015"><a xlink:title=" ">
<polygon fill="#e0e0e0" stroke="#999999" points="251.28,-19 213.28,-19 213.28,0 251.28,0 251.28,-19"/>
<text text-anchor="middle" x="232.28" y="-7" font-family="Helvetica,sans-Serif" font-size="10.00">map</text>
</a>
</g>
</g>
<!-- Node13&#45;&gt;Node15 -->
<g id="edge15_Node000013_Node000015" class="edge">
<title>Node13&#45;&gt;Node15</title>
<g id="a_edge15_Node000013_Node000015"><a xlink:title=" ">
<path fill="none" stroke="#63b8ff" d="M311.18,-54.98C296.47,-46.69 273.86,-33.94 256.61,-24.22"/>
<polygon fill="#63b8ff" stroke="#63b8ff" points="258.09,-21.03 247.66,-19.17 254.65,-27.13 258.09,-21.03"/>
</a>
</g>
</g>
<!-- Node16 -->
<g id="Node000016" class="node">
<title>Node16</title>
<g id="a_Node000016"><a xlink:title=" ">
<polygon fill="#e0e0e0" stroke="#999999" points="317.28,-19 269.28,-19 269.28,0 317.28,0 317.28,-19"/>
<text text-anchor="middle" x="293.28" y="-7" font-family="Helvetica,sans-Serif" font-size="10.00">mutex</text>
</a>
</g>
</g>
<!-- Node13&#45;&gt;Node16 -->
<g id="edge16_Node000013_Node000016" class="edge">
<title>Node13&#45;&gt;Node16</title>
<g id="a_edge16_Node000013_Node000016"><a xlink:title=" ">
<path fill="none" stroke="#63b8ff" d="M320.84,-54.75C316.27,-47.42 309.62,-36.73 303.99,-27.7"/>
<polygon fill="#63b8ff" stroke="#63b8ff" points="306.89,-25.73 298.63,-19.09 300.95,-29.43 306.89,-25.73"/>
</a>
</g>
</g>
<!-- Node17 -->
<g id="Node000017" class="node">
<title>Node17</title>
<g id="a_Node000017"><a xlink:title=" ">
<polygon fill="#e0e0e0" stroke="#999999" points="383.28,-19 335.28,-19 335.28,0 383.28,0 383.28,-19"/>
<text text-anchor="middle" x="359.28" y="-7" font-family="Helvetica,sans-Serif" font-size="10.00">thread</text>
</a>
</g>
</g>
<!-- Node13&#45;&gt;Node17 -->
<g id="edge18_Node000013_Node000017" class="edge">
<title>Node13&#45;&gt;Node17</title>
<g id="a_edge18_Node000013_Node000017"><a xlink:title=" ">
<path fill="none" stroke="#63b8ff" d="M331.73,-54.75C336.3,-47.42 342.95,-36.73 348.58,-27.7"/>
<polygon fill="#63b8ff" stroke="#63b8ff" points="351.62,-29.43 353.94,-19.09 345.68,-25.73 351.62,-29.43"/>
</a>
</g>
</g>
</g>
</svg>
