<?xml version="1.0" encoding="UTF-8" standalone="no"?>
<!DOCTYPE svg PUBLIC "-//W3C//DTD SVG 1.1//EN"
 "http://www.w3.org/Graphics/SVG/1.1/DTD/svg11.dtd">
<!-- Generated by graphviz version 2.43.0 (0)
 -->
<!-- Title: src/Rendering/ShaderProgram.hpp Pages: 1 -->
<svg width="528pt" height="203pt"
 viewBox="0.00 0.00 528.05 203.00" xmlns="http://www.w3.org/2000/svg" xmlns:xlink="http://www.w3.org/1999/xlink">
<g id="graph0" class="graph" transform="scale(1 1) rotate(0) translate(4 199)">
<title>src/Rendering/ShaderProgram.hpp</title>
<!-- Node1 -->
<g id="Node000001" class="node">
<title>Node1</title>
<g id="a_Node000001"><a xlink:title=" ">
<polygon fill="#999999" stroke="#666666" points="265.55,-195 83.55,-195 83.55,-176 265.55,-176 265.55,-195"/>
<text text-anchor="middle" x="174.55" y="-183" font-family="Helvetica,sans-Serif" font-size="10.00">src/Rendering/ShaderProgram.hpp</text>
</a>
</g>
</g>
<!-- Node2 -->
<g id="Node000002" class="node">
<title>Node2</title>
<g id="a_Node000002"><a xlink:title=" ">
<polygon fill="#e0e0e0" stroke="#999999" points="175.05,-79.5 104.05,-79.5 104.05,-60.5 175.05,-60.5 175.05,-79.5"/>
<text text-anchor="middle" x="139.55" y="-67.5" font-family="Helvetica,sans-Serif" font-size="10.00">glad/glad.h</text>
</a>
</g>
</g>
<!-- Node1&#45;&gt;Node2 -->
<g id="edge1_Node000001_Node000002" class="edge">
<title>Node1&#45;&gt;Node2</title>
<g id="a_edge1_Node000001_Node000002"><a xlink:title=" ">
<path fill="none" stroke="#63b8ff" d="M112.05,-175.99C69.87,-168.81 19.61,-156.98 6.55,-140 -20.11,-105.36 45.54,-86.46 93.8,-77.57"/>
<polygon fill="#63b8ff" stroke="#63b8ff" points="94.54,-80.99 103.79,-75.82 93.34,-74.1 94.54,-80.99"/>
</a>
</g>
</g>
<!-- Node3 -->
<g id="Node000003" class="node">
<title>Node3</title>
<g id="a_Node000003"><a xlink:title=" ">
<polygon fill="#e0e0e0" stroke="#999999" points="93.55,-140 15.55,-140 15.55,-121 93.55,-121 93.55,-140"/>
<text text-anchor="middle" x="54.55" y="-128" font-family="Helvetica,sans-Serif" font-size="10.00">glm/glm.hpp</text>
</a>
</g>
</g>
<!-- Node1&#45;&gt;Node3 -->
<g id="edge2_Node000001_Node000003" class="edge">
<title>Node1&#45;&gt;Node3</title>
<g id="a_edge2_Node000001_Node000003"><a xlink:title=" ">
<path fill="none" stroke="#63b8ff" d="M155.27,-175.98C135.88,-167.42 105.74,-154.11 83.48,-144.28"/>
<polygon fill="#63b8ff" stroke="#63b8ff" points="84.74,-141.01 74.18,-140.17 81.91,-147.41 84.74,-141.01"/>
</a>
</g>
</g>
<!-- Node4 -->
<g id="Node000004" class="node">
<title>Node4</title>
<g id="a_Node000004"><a xlink:title=" ">
<polygon fill="#e0e0e0" stroke="#999999" points="169.55,-140 111.55,-140 111.55,-121 169.55,-121 169.55,-140"/>
<text text-anchor="middle" x="140.55" y="-128" font-family="Helvetica,sans-Serif" font-size="10.00">memory</text>
</a>
</g>
</g>
<!-- Node1&#45;&gt;Node4 -->
<g id="edge3_Node000001_Node000004" class="edge">
<title>Node1&#45;&gt;Node4</title>
<g id="a_edge3_Node000001_Node000004"><a xlink:title=" ">
<path fill="none" stroke="#63b8ff" d="M168.93,-175.75C164.23,-168.42 157.37,-157.73 151.58,-148.7"/>
<polygon fill="#63b8ff" stroke="#63b8ff" points="154.4,-146.62 146.06,-140.09 148.51,-150.4 154.4,-146.62"/>
</a>
</g>
</g>
<!-- Node5 -->
<g id="Node000005" class="node">
<title>Node5</title>
<g id="a_Node000005"><a xlink:title=" ">
<polygon fill="#e0e0e0" stroke="#999999" points="231.55,-140 187.55,-140 187.55,-121 231.55,-121 231.55,-140"/>
<text text-anchor="middle" x="209.55" y="-128" font-family="Helvetica,sans-Serif" font-size="10.00">string</text>
</a>
</g>
</g>
<!-- Node1&#45;&gt;Node5 -->
<g id="edge4_Node000001_Node000005" class="edge">
<title>Node1&#45;&gt;Node5</title>
<g id="a_edge4_Node000001_Node000005"><a xlink:title=" ">
<path fill="none" stroke="#63b8ff" d="M180.33,-175.75C185.17,-168.42 192.23,-157.73 198.19,-148.7"/>
<polygon fill="#63b8ff" stroke="#63b8ff" points="201.29,-150.36 203.88,-140.09 195.44,-146.5 201.29,-150.36"/>
</a>
</g>
</g>
<!-- Node6 -->
<g id="Node000006" class="node">
<title>Node6</title>
<g id="a_Node000006"><a xlink:title=" ">
<polygon fill="#e0e0e0" stroke="#999999" points="343.05,-140 250.05,-140 250.05,-121 343.05,-121 343.05,-140"/>
<text text-anchor="middle" x="296.55" y="-128" font-family="Helvetica,sans-Serif" font-size="10.00">unordered_map</text>
</a>
</g>
</g>
<!-- Node1&#45;&gt;Node6 -->
<g id="edge5_Node000001_Node000006" class="edge">
<title>Node1&#45;&gt;Node6</title>
<g id="a_edge5_Node000001_Node000006"><a xlink:title=" ">
<path fill="none" stroke="#63b8ff" d="M194.15,-175.98C213.86,-167.42 244.5,-154.11 267.13,-144.28"/>
<polygon fill="#63b8ff" stroke="#63b8ff" points="268.81,-147.37 276.59,-140.17 266.02,-140.94 268.81,-147.37"/>
</a>
</g>
</g>
<!-- Node7 -->
<g id="Node000007" class="node">
<title>Node7</title>
<g id="a_Node000007"><a xlink:href="_shader_8hpp.html" target="_top" xlink:title=" ">
<polygon fill="white" stroke="#666666" points="504.05,-140 361.05,-140 361.05,-121 504.05,-121 504.05,-140"/>
<text text-anchor="middle" x="432.55" y="-128" font-family="Helvetica,sans-Serif" font-size="10.00">AssetManager/Shader.hpp</text>
</a>
</g>
</g>
<!-- Node1&#45;&gt;Node7 -->
<g id="edge6_Node000001_Node000007" class="edge">
<title>Node1&#45;&gt;Node7</title>
<g id="a_edge6_Node000001_Node000007"><a xlink:title=" ">
<path fill="none" stroke="#63b8ff" d="M216,-175.98C260.81,-166.78 332.32,-152.09 380.79,-142.13"/>
<polygon fill="#63b8ff" stroke="#63b8ff" points="381.68,-145.52 390.77,-140.08 380.27,-138.67 381.68,-145.52"/>
</a>
</g>
</g>
<!-- Node7&#45;&gt;Node2 -->
<g id="edge9_Node000007_Node000002" class="edge">
<title>Node7&#45;&gt;Node2</title>
<g id="a_edge9_Node000007_Node000002"><a xlink:title=" ">
<path fill="none" stroke="#63b8ff" d="M389.94,-120.99C335.41,-110.1 241.29,-91.31 185.29,-80.13"/>
<polygon fill="#63b8ff" stroke="#63b8ff" points="185.78,-76.66 175.29,-78.14 184.41,-83.53 185.78,-76.66"/>
</a>
</g>
</g>
<!-- Node8 -->
<g id="Node000008" class="node">
<title>Node8</title>
<g id="a_Node000008"><a xlink:href="_path_constructible_asset_8hpp.html" target="_top" xlink:title=" ">
<polygon fill="white" stroke="#666666" points="520.05,-85 345.05,-85 345.05,-55 520.05,-55 520.05,-85"/>
<text text-anchor="start" x="353.05" y="-73" font-family="Helvetica,sans-Serif" font-size="10.00">AssetManager/PathConstructible</text>
<text text-anchor="middle" x="432.55" y="-62" font-family="Helvetica,sans-Serif" font-size="10.00">Asset.hpp</text>
</a>
</g>
</g>
<!-- Node7&#45;&gt;Node8 -->
<g id="edge7_Node000007_Node000008" class="edge">
<title>Node7&#45;&gt;Node8</title>
<g id="a_edge7_Node000007_Node000008"><a xlink:title=" ">
<path fill="none" stroke="#63b8ff" d="M432.55,-120.87C432.55,-114.11 432.55,-104.35 432.55,-95.26"/>
<polygon fill="#63b8ff" stroke="#63b8ff" points="436.05,-95.11 432.55,-85.11 429.05,-95.11 436.05,-95.11"/>
</a>
</g>
</g>
<!-- Node9 -->
<g id="Node000009" class="node">
<title>Node9</title>
<g id="a_Node000009"><a xlink:title=" ">
<polygon fill="#e0e0e0" stroke="#999999" points="466.55,-19 398.55,-19 398.55,0 466.55,0 466.55,-19"/>
<text text-anchor="middle" x="432.55" y="-7" font-family="Helvetica,sans-Serif" font-size="10.00">filesystem</text>
</a>
</g>
</g>
<!-- Node8&#45;&gt;Node9 -->
<g id="edge8_Node000008_Node000009" class="edge">
<title>Node8&#45;&gt;Node9</title>
<g id="a_edge8_Node000008_Node000009"><a xlink:title=" ">
<path fill="none" stroke="#63b8ff" d="M432.55,-54.84C432.55,-47.21 432.55,-37.7 432.55,-29.45"/>
<polygon fill="#63b8ff" stroke="#63b8ff" points="436.05,-29.27 432.55,-19.27 429.05,-29.27 436.05,-29.27"/>
</a>
</g>
</g>
</g>
</svg>
