<?xml version="1.0" encoding="UTF-8" standalone="no"?>
<!DOCTYPE svg PUBLIC "-//W3C//DTD SVG 1.1//EN"
 "http://www.w3.org/Graphics/SVG/1.1/DTD/svg11.dtd">
<!-- Generated by graphviz version 2.43.0 (0)
 -->
<!-- Title: src/Rendering/ShaderProgram.cpp Pages: 1 -->
<svg width="644pt" height="258pt"
 viewBox="0.00 0.00 644.35 258.00" xmlns="http://www.w3.org/2000/svg" xmlns:xlink="http://www.w3.org/1999/xlink">
<g id="graph0" class="graph" transform="scale(1 1) rotate(0) translate(4 254)">
<title>src/Rendering/ShaderProgram.cpp</title>
<!-- Node1 -->
<g id="Node000001" class="node">
<title>Node1</title>
<g id="a_Node000001"><a xlink:title=" ">
<polygon fill="#999999" stroke="#666666" points="468.85,-250 286.85,-250 286.85,-231 468.85,-231 468.85,-250"/>
<text text-anchor="middle" x="377.85" y="-238" font-family="Helvetica,sans-Serif" font-size="10.00">src/Rendering/ShaderProgram.cpp</text>
</a>
</g>
</g>
<!-- Node2 -->
<g id="Node000002" class="node">
<title>Node2</title>
<g id="a_Node000002"><a xlink:href="_shader_program_8hpp.html" target="_top" xlink:title=" ">
<polygon fill="white" stroke="#666666" points="292.35,-195 127.35,-195 127.35,-176 292.35,-176 292.35,-195"/>
<text text-anchor="middle" x="209.85" y="-183" font-family="Helvetica,sans-Serif" font-size="10.00">Rendering/ShaderProgram.hpp</text>
</a>
</g>
</g>
<!-- Node1&#45;&gt;Node2 -->
<g id="edge1_Node000001_Node000002" class="edge">
<title>Node1&#45;&gt;Node2</title>
<g id="a_edge1_Node000001_Node000002"><a xlink:title=" ">
<path fill="none" stroke="#63b8ff" d="M350.85,-230.98C322.65,-222.09 278.21,-208.07 246.76,-198.15"/>
<polygon fill="#63b8ff" stroke="#63b8ff" points="247.64,-194.75 237.05,-195.08 245.53,-201.43 247.64,-194.75"/>
</a>
</g>
</g>
<!-- Node11 -->
<g id="Node000011" class="node">
<title>Node11</title>
<g id="a_Node000011"><a xlink:href="_logger_8hpp.html" target="_top" xlink:title=" ">
<polygon fill="white" stroke="#666666" points="605.35,-195 488.35,-195 488.35,-176 605.35,-176 605.35,-195"/>
<text text-anchor="middle" x="546.85" y="-183" font-family="Helvetica,sans-Serif" font-size="10.00">Common/Logger.hpp</text>
</a>
</g>
</g>
<!-- Node1&#45;&gt;Node11 -->
<g id="edge11_Node000001_Node000011" class="edge">
<title>Node1&#45;&gt;Node11</title>
<g id="a_edge11_Node000001_Node000011"><a xlink:title=" ">
<path fill="none" stroke="#63b8ff" d="M405,-230.98C433.37,-222.09 478.08,-208.07 509.71,-198.15"/>
<polygon fill="#63b8ff" stroke="#63b8ff" points="510.99,-201.41 519.48,-195.08 508.89,-194.73 510.99,-201.41"/>
</a>
</g>
</g>
<!-- Node3 -->
<g id="Node000003" class="node">
<title>Node3</title>
<g id="a_Node000003"><a xlink:title=" ">
<polygon fill="#e0e0e0" stroke="#999999" points="175.35,-79.5 104.35,-79.5 104.35,-60.5 175.35,-60.5 175.35,-79.5"/>
<text text-anchor="middle" x="139.85" y="-67.5" font-family="Helvetica,sans-Serif" font-size="10.00">glad/glad.h</text>
</a>
</g>
</g>
<!-- Node2&#45;&gt;Node3 -->
<g id="edge2_Node000002_Node000003" class="edge">
<title>Node2&#45;&gt;Node3</title>
<g id="a_edge2_Node000002_Node000003"><a xlink:title=" ">
<path fill="none" stroke="#63b8ff" d="M127.17,-176.83C77.94,-170.35 22.14,-159.01 6.85,-140 -20.63,-105.85 45.69,-86.76 94.24,-77.7"/>
<polygon fill="#63b8ff" stroke="#63b8ff" points="95.05,-81.11 104.29,-75.92 93.83,-74.22 95.05,-81.11"/>
</a>
</g>
</g>
<!-- Node4 -->
<g id="Node000004" class="node">
<title>Node4</title>
<g id="a_Node000004"><a xlink:title=" ">
<polygon fill="#e0e0e0" stroke="#999999" points="93.85,-140 15.85,-140 15.85,-121 93.85,-121 93.85,-140"/>
<text text-anchor="middle" x="54.85" y="-128" font-family="Helvetica,sans-Serif" font-size="10.00">glm/glm.hpp</text>
</a>
</g>
</g>
<!-- Node2&#45;&gt;Node4 -->
<g id="edge3_Node000002_Node000004" class="edge">
<title>Node2&#45;&gt;Node4</title>
<g id="a_edge3_Node000002_Node000004"><a xlink:title=" ">
<path fill="none" stroke="#63b8ff" d="M184.94,-175.98C159.15,-167.16 118.63,-153.31 89.66,-143.41"/>
<polygon fill="#63b8ff" stroke="#63b8ff" points="90.54,-140.01 79.94,-140.08 88.27,-146.63 90.54,-140.01"/>
</a>
</g>
</g>
<!-- Node5 -->
<g id="Node000005" class="node">
<title>Node5</title>
<g id="a_Node000005"><a xlink:title=" ">
<polygon fill="#e0e0e0" stroke="#999999" points="169.85,-140 111.85,-140 111.85,-121 169.85,-121 169.85,-140"/>
<text text-anchor="middle" x="140.85" y="-128" font-family="Helvetica,sans-Serif" font-size="10.00">memory</text>
</a>
</g>
</g>
<!-- Node2&#45;&gt;Node5 -->
<g id="edge4_Node000002_Node000005" class="edge">
<title>Node2&#45;&gt;Node5</title>
<g id="a_edge4_Node000002_Node000005"><a xlink:title=" ">
<path fill="none" stroke="#63b8ff" d="M198.76,-175.98C188.36,-168 172.59,-155.88 160.12,-146.31"/>
<polygon fill="#63b8ff" stroke="#63b8ff" points="162.2,-143.49 152.13,-140.17 157.93,-149.04 162.2,-143.49"/>
</a>
</g>
</g>
<!-- Node6 -->
<g id="Node000006" class="node">
<title>Node6</title>
<g id="a_Node000006"><a xlink:title=" ">
<polygon fill="#e0e0e0" stroke="#999999" points="231.85,-140 187.85,-140 187.85,-121 231.85,-121 231.85,-140"/>
<text text-anchor="middle" x="209.85" y="-128" font-family="Helvetica,sans-Serif" font-size="10.00">string</text>
</a>
</g>
</g>
<!-- Node2&#45;&gt;Node6 -->
<g id="edge5_Node000002_Node000006" class="edge">
<title>Node2&#45;&gt;Node6</title>
<g id="a_edge5_Node000002_Node000006"><a xlink:title=" ">
<path fill="none" stroke="#63b8ff" d="M209.85,-175.75C209.85,-168.8 209.85,-158.85 209.85,-150.13"/>
<polygon fill="#63b8ff" stroke="#63b8ff" points="213.35,-150.09 209.85,-140.09 206.35,-150.09 213.35,-150.09"/>
</a>
</g>
</g>
<!-- Node7 -->
<g id="Node000007" class="node">
<title>Node7</title>
<g id="a_Node000007"><a xlink:title=" ">
<polygon fill="#e0e0e0" stroke="#999999" points="343.35,-140 250.35,-140 250.35,-121 343.35,-121 343.35,-140"/>
<text text-anchor="middle" x="296.85" y="-128" font-family="Helvetica,sans-Serif" font-size="10.00">unordered_map</text>
</a>
</g>
</g>
<!-- Node2&#45;&gt;Node7 -->
<g id="edge6_Node000002_Node000007" class="edge">
<title>Node2&#45;&gt;Node7</title>
<g id="a_edge6_Node000002_Node000007"><a xlink:title=" ">
<path fill="none" stroke="#63b8ff" d="M223.82,-175.98C237.32,-167.77 257.98,-155.18 273.89,-145.49"/>
<polygon fill="#63b8ff" stroke="#63b8ff" points="275.89,-148.36 282.61,-140.17 272.25,-142.38 275.89,-148.36"/>
</a>
</g>
</g>
<!-- Node8 -->
<g id="Node000008" class="node">
<title>Node8</title>
<g id="a_Node000008"><a xlink:href="_shader_8hpp.html" target="_top" xlink:title=" ">
<polygon fill="white" stroke="#666666" points="504.35,-140 361.35,-140 361.35,-121 504.35,-121 504.35,-140"/>
<text text-anchor="middle" x="432.85" y="-128" font-family="Helvetica,sans-Serif" font-size="10.00">AssetManager/Shader.hpp</text>
</a>
</g>
</g>
<!-- Node2&#45;&gt;Node8 -->
<g id="edge7_Node000002_Node000008" class="edge">
<title>Node2&#45;&gt;Node8</title>
<g id="a_edge7_Node000002_Node000008"><a xlink:title=" ">
<path fill="none" stroke="#63b8ff" d="M245.68,-175.98C284.01,-166.87 344.93,-152.4 386.79,-142.45"/>
<polygon fill="#63b8ff" stroke="#63b8ff" points="387.82,-145.8 396.74,-140.08 386.2,-138.99 387.82,-145.8"/>
</a>
</g>
</g>
<!-- Node8&#45;&gt;Node3 -->
<g id="edge10_Node000008_Node000003" class="edge">
<title>Node8&#45;&gt;Node3</title>
<g id="a_edge10_Node000008_Node000003"><a xlink:title=" ">
<path fill="none" stroke="#63b8ff" d="M390.24,-120.99C335.7,-110.1 241.59,-91.31 185.59,-80.13"/>
<polygon fill="#63b8ff" stroke="#63b8ff" points="186.08,-76.66 175.59,-78.14 184.71,-83.53 186.08,-76.66"/>
</a>
</g>
</g>
<!-- Node9 -->
<g id="Node000009" class="node">
<title>Node9</title>
<g id="a_Node000009"><a xlink:href="_path_constructible_asset_8hpp.html" target="_top" xlink:title=" ">
<polygon fill="white" stroke="#666666" points="520.35,-85 345.35,-85 345.35,-55 520.35,-55 520.35,-85"/>
<text text-anchor="start" x="353.35" y="-73" font-family="Helvetica,sans-Serif" font-size="10.00">AssetManager/PathConstructible</text>
<text text-anchor="middle" x="432.85" y="-62" font-family="Helvetica,sans-Serif" font-size="10.00">Asset.hpp</text>
</a>
</g>
</g>
<!-- Node8&#45;&gt;Node9 -->
<g id="edge8_Node000008_Node000009" class="edge">
<title>Node8&#45;&gt;Node9</title>
<g id="a_edge8_Node000008_Node000009"><a xlink:title=" ">
<path fill="none" stroke="#63b8ff" d="M432.85,-120.87C432.85,-114.11 432.85,-104.35 432.85,-95.26"/>
<polygon fill="#63b8ff" stroke="#63b8ff" points="436.35,-95.11 432.85,-85.11 429.35,-95.11 436.35,-95.11"/>
</a>
</g>
</g>
<!-- Node10 -->
<g id="Node000010" class="node">
<title>Node10</title>
<g id="a_Node000010"><a xlink:title=" ">
<polygon fill="#e0e0e0" stroke="#999999" points="466.85,-19 398.85,-19 398.85,0 466.85,0 466.85,-19"/>
<text text-anchor="middle" x="432.85" y="-7" font-family="Helvetica,sans-Serif" font-size="10.00">filesystem</text>
</a>
</g>
</g>
<!-- Node9&#45;&gt;Node10 -->
<g id="edge9_Node000009_Node000010" class="edge">
<title>Node9&#45;&gt;Node10</title>
<g id="a_edge9_Node000009_Node000010"><a xlink:title=" ">
<path fill="none" stroke="#63b8ff" d="M432.85,-54.84C432.85,-47.21 432.85,-37.7 432.85,-29.45"/>
<polygon fill="#63b8ff" stroke="#63b8ff" points="436.35,-29.27 432.85,-19.27 429.35,-29.27 436.35,-29.27"/>
</a>
</g>
</g>
<!-- Node12 -->
<g id="Node000012" class="node">
<title>Node12</title>
<g id="a_Node000012"><a xlink:title=" ">
<polygon fill="#e0e0e0" stroke="#999999" points="570.85,-140 522.85,-140 522.85,-121 570.85,-121 570.85,-140"/>
<text text-anchor="middle" x="546.85" y="-128" font-family="Helvetica,sans-Serif" font-size="10.00">mutex</text>
</a>
</g>
</g>
<!-- Node11&#45;&gt;Node12 -->
<g id="edge12_Node000011_Node000012" class="edge">
<title>Node11&#45;&gt;Node12</title>
<g id="a_edge12_Node000011_Node000012"><a xlink:title=" ">
<path fill="none" stroke="#63b8ff" d="M546.85,-175.75C546.85,-168.8 546.85,-158.85 546.85,-150.13"/>
<polygon fill="#63b8ff" stroke="#63b8ff" points="550.35,-150.09 546.85,-140.09 543.35,-150.09 550.35,-150.09"/>
</a>
</g>
</g>
<!-- Node13 -->
<g id="Node000013" class="node">
<title>Node13</title>
<g id="a_Node000013"><a xlink:title=" ">
<polygon fill="#e0e0e0" stroke="#999999" points="636.35,-140 589.35,-140 589.35,-121 636.35,-121 636.35,-140"/>
<text text-anchor="middle" x="612.85" y="-128" font-family="Helvetica,sans-Serif" font-size="10.00">queue</text>
</a>
</g>
</g>
<!-- Node11&#45;&gt;Node13 -->
<g id="edge13_Node000011_Node000013" class="edge">
<title>Node11&#45;&gt;Node13</title>
<g id="a_edge13_Node000011_Node000013"><a xlink:title=" ">
<path fill="none" stroke="#63b8ff" d="M557.45,-175.98C567.3,-168.07 582.2,-156.11 594.06,-146.58"/>
<polygon fill="#63b8ff" stroke="#63b8ff" points="596.44,-149.16 602.05,-140.17 592.06,-143.7 596.44,-149.16"/>
</a>
</g>
</g>
</g>
</svg>
