<?xml version="1.0" encoding="UTF-8" standalone="no"?>
<!DOCTYPE svg PUBLIC "-//W3C//DTD SVG 1.1//EN"
 "http://www.w3.org/Graphics/SVG/1.1/DTD/svg11.dtd">
<!-- Generated by graphviz version 2.43.0 (0)
 -->
<!-- Title: src/AssetManager/Shader.cpp Pages: 1 -->
<svg width="512pt" height="313pt"
 viewBox="0.00 0.00 512.00 313.00" xmlns="http://www.w3.org/2000/svg" xmlns:xlink="http://www.w3.org/1999/xlink">
<g id="graph0" class="graph" transform="scale(1 1) rotate(0) translate(4 309)">
<title>src/AssetManager/Shader.cpp</title>
<!-- Node1 -->
<g id="Node000001" class="node">
<title>Node1</title>
<g id="a_Node000001"><a xlink:title=" ">
<polygon fill="#999999" stroke="#666666" points="257.5,-305 97.5,-305 97.5,-286 257.5,-286 257.5,-305"/>
<text text-anchor="middle" x="177.5" y="-293" font-family="Helvetica,sans-Serif" font-size="10.00">src/AssetManager/Shader.cpp</text>
</a>
</g>
</g>
<!-- Node2 -->
<g id="Node000002" class="node">
<title>Node2</title>
<g id="a_Node000002"><a xlink:title=" ">
<polygon fill="#e0e0e0" stroke="#999999" points="55,-250 0,-250 0,-231 55,-231 55,-250"/>
<text text-anchor="middle" x="27.5" y="-238" font-family="Helvetica,sans-Serif" font-size="10.00">fstream</text>
</a>
</g>
</g>
<!-- Node1&#45;&gt;Node2 -->
<g id="edge1_Node000001_Node000002" class="edge">
<title>Node1&#45;&gt;Node2</title>
<g id="a_edge1_Node000001_Node000002"><a xlink:title=" ">
<path fill="none" stroke="#63b8ff" d="M153.4,-285.98C128.62,-277.23 89.8,-263.51 61.81,-253.62"/>
<polygon fill="#63b8ff" stroke="#63b8ff" points="62.63,-250.2 52.04,-250.17 60.3,-256.8 62.63,-250.2"/>
</a>
</g>
</g>
<!-- Node3 -->
<g id="Node000003" class="node">
<title>Node3</title>
<g id="a_Node000003"><a xlink:title=" ">
<polygon fill="#e0e0e0" stroke="#999999" points="129.5,-250 73.5,-250 73.5,-231 129.5,-231 129.5,-250"/>
<text text-anchor="middle" x="101.5" y="-238" font-family="Helvetica,sans-Serif" font-size="10.00">sstream</text>
</a>
</g>
</g>
<!-- Node1&#45;&gt;Node3 -->
<g id="edge2_Node000001_Node000003" class="edge">
<title>Node1&#45;&gt;Node3</title>
<g id="a_edge2_Node000001_Node000003"><a xlink:title=" ">
<path fill="none" stroke="#63b8ff" d="M165.29,-285.98C153.72,-277.92 136.12,-265.65 122.34,-256.03"/>
<polygon fill="#63b8ff" stroke="#63b8ff" points="124.14,-253.02 113.93,-250.17 120.13,-258.76 124.14,-253.02"/>
</a>
</g>
</g>
<!-- Node4 -->
<g id="Node000004" class="node">
<title>Node4</title>
<g id="a_Node000004"><a xlink:title=" ">
<polygon fill="#e0e0e0" stroke="#999999" points="207.5,-250 147.5,-250 147.5,-231 207.5,-231 207.5,-250"/>
<text text-anchor="middle" x="177.5" y="-238" font-family="Helvetica,sans-Serif" font-size="10.00">iostream</text>
</a>
</g>
</g>
<!-- Node1&#45;&gt;Node4 -->
<g id="edge3_Node000001_Node000004" class="edge">
<title>Node1&#45;&gt;Node4</title>
<g id="a_edge3_Node000001_Node000004"><a xlink:title=" ">
<path fill="none" stroke="#63b8ff" d="M177.5,-285.75C177.5,-278.8 177.5,-268.85 177.5,-260.13"/>
<polygon fill="#63b8ff" stroke="#63b8ff" points="181,-260.09 177.5,-250.09 174,-260.09 181,-260.09"/>
</a>
</g>
</g>
<!-- Node5 -->
<g id="Node000005" class="node">
<title>Node5</title>
<g id="a_Node000005"><a xlink:href="_shader_8hpp.html" target="_top" xlink:title=" ">
<polygon fill="white" stroke="#666666" points="369,-250 226,-250 226,-231 369,-231 369,-250"/>
<text text-anchor="middle" x="297.5" y="-238" font-family="Helvetica,sans-Serif" font-size="10.00">AssetManager/Shader.hpp</text>
</a>
</g>
</g>
<!-- Node1&#45;&gt;Node5 -->
<g id="edge4_Node000001_Node000005" class="edge">
<title>Node1&#45;&gt;Node5</title>
<g id="a_edge4_Node000001_Node000005"><a xlink:title=" ">
<path fill="none" stroke="#63b8ff" d="M196.78,-285.98C216.17,-277.42 246.31,-264.11 268.57,-254.28"/>
<polygon fill="#63b8ff" stroke="#63b8ff" points="270.14,-257.41 277.87,-250.17 267.31,-251.01 270.14,-257.41"/>
</a>
</g>
</g>
<!-- Node17 -->
<g id="Node000017" class="node">
<title>Node17</title>
<g id="a_Node000017"><a xlink:href="_logger_8hpp.html" target="_top" xlink:title=" ">
<polygon fill="white" stroke="#666666" points="504,-250 387,-250 387,-231 504,-231 504,-250"/>
<text text-anchor="middle" x="445.5" y="-238" font-family="Helvetica,sans-Serif" font-size="10.00">Common/Logger.hpp</text>
</a>
</g>
</g>
<!-- Node1&#45;&gt;Node17 -->
<g id="edge16_Node000001_Node000017" class="edge">
<title>Node1&#45;&gt;Node17</title>
<g id="a_edge16_Node000001_Node000017"><a xlink:title=" ">
<path fill="none" stroke="#63b8ff" d="M220.56,-285.98C267.21,-276.76 341.7,-262.03 392.06,-252.07"/>
<polygon fill="#63b8ff" stroke="#63b8ff" points="392.97,-255.46 402.1,-250.08 391.61,-248.59 392.97,-255.46"/>
</a>
</g>
</g>
<!-- Node6 -->
<g id="Node000006" class="node">
<title>Node6</title>
<g id="a_Node000006"><a xlink:href="_path_constructible_asset_8hpp.html" target="_top" xlink:title=" ">
<polygon fill="white" stroke="#666666" points="289,-195 114,-195 114,-165 289,-165 289,-195"/>
<text text-anchor="start" x="122" y="-183" font-family="Helvetica,sans-Serif" font-size="10.00">AssetManager/PathConstructible</text>
<text text-anchor="middle" x="201.5" y="-172" font-family="Helvetica,sans-Serif" font-size="10.00">Asset.hpp</text>
</a>
</g>
</g>
<!-- Node5&#45;&gt;Node6 -->
<g id="edge5_Node000005_Node000006" class="edge">
<title>Node5&#45;&gt;Node6</title>
<g id="a_edge5_Node000005_Node000006"><a xlink:title=" ">
<path fill="none" stroke="#63b8ff" d="M283.33,-230.87C270.31,-222.93 250.52,-210.87 233.66,-200.6"/>
<polygon fill="#63b8ff" stroke="#63b8ff" points="235.02,-197.33 224.66,-195.11 231.38,-203.31 235.02,-197.33"/>
</a>
</g>
</g>
<!-- Node16 -->
<g id="Node000016" class="node">
<title>Node16</title>
<g id="a_Node000016"><a xlink:title=" ">
<polygon fill="#e0e0e0" stroke="#999999" points="378,-189.5 307,-189.5 307,-170.5 378,-170.5 378,-189.5"/>
<text text-anchor="middle" x="342.5" y="-177.5" font-family="Helvetica,sans-Serif" font-size="10.00">glad/glad.h</text>
</a>
</g>
</g>
<!-- Node5&#45;&gt;Node16 -->
<g id="edge15_Node000005_Node000016" class="edge">
<title>Node5&#45;&gt;Node16</title>
<g id="a_edge15_Node000005_Node000016"><a xlink:title=" ">
<path fill="none" stroke="#63b8ff" d="M304.14,-230.87C310.79,-222.23 321.19,-208.7 329.49,-197.92"/>
<polygon fill="#63b8ff" stroke="#63b8ff" points="332.51,-199.73 335.83,-189.67 326.96,-195.46 332.51,-199.73"/>
</a>
</g>
</g>
<!-- Node7 -->
<g id="Node000007" class="node">
<title>Node7</title>
<g id="a_Node000007"><a xlink:title=" ">
<polygon fill="#e0e0e0" stroke="#999999" points="106.5,-129 38.5,-129 38.5,-110 106.5,-110 106.5,-129"/>
<text text-anchor="middle" x="72.5" y="-117" font-family="Helvetica,sans-Serif" font-size="10.00">filesystem</text>
</a>
</g>
</g>
<!-- Node6&#45;&gt;Node7 -->
<g id="edge6_Node000006_Node000007" class="edge">
<title>Node6&#45;&gt;Node7</title>
<g id="a_edge6_Node000006_Node000007"><a xlink:title=" ">
<path fill="none" stroke="#63b8ff" d="M170.6,-164.99C149.37,-155.36 121.39,-142.67 100.75,-133.31"/>
<polygon fill="#63b8ff" stroke="#63b8ff" points="102.1,-130.08 91.55,-129.14 99.21,-136.46 102.1,-130.08"/>
</a>
</g>
</g>
<!-- Node8 -->
<g id="Node000008" class="node">
<title>Node8</title>
<g id="a_Node000008"><a xlink:href="_instance_counter_8hpp.html" target="_top" xlink:title=" ">
<polygon fill="white" stroke="#666666" points="288.5,-129 124.5,-129 124.5,-110 288.5,-110 288.5,-129"/>
<text text-anchor="middle" x="206.5" y="-117" font-family="Helvetica,sans-Serif" font-size="10.00">Common/InstanceCounter.hpp</text>
</a>
</g>
</g>
<!-- Node6&#45;&gt;Node8 -->
<g id="edge7_Node000006_Node000008" class="edge">
<title>Node6&#45;&gt;Node8</title>
<g id="a_edge7_Node000006_Node000008"><a xlink:title=" ">
<path fill="none" stroke="#63b8ff" d="M202.71,-164.84C203.36,-157.21 204.17,-147.7 204.88,-139.45"/>
<polygon fill="#63b8ff" stroke="#63b8ff" points="208.39,-139.53 205.75,-129.27 201.41,-138.93 208.39,-139.53"/>
</a>
</g>
</g>
<!-- Node9 -->
<g id="Node000009" class="node">
<title>Node9</title>
<g id="a_Node000009"><a xlink:title=" ">
<polygon fill="#e0e0e0" stroke="#999999" points="218.5,-74 168.5,-74 168.5,-55 218.5,-55 218.5,-74"/>
<text text-anchor="middle" x="193.5" y="-62" font-family="Helvetica,sans-Serif" font-size="10.00">atomic</text>
</a>
</g>
</g>
<!-- Node8&#45;&gt;Node9 -->
<g id="edge8_Node000008_Node000009" class="edge">
<title>Node8&#45;&gt;Node9</title>
<g id="a_edge8_Node000008_Node000009"><a xlink:title=" ">
<path fill="none" stroke="#63b8ff" d="M204.35,-109.75C202.63,-102.72 200.15,-92.62 198,-83.84"/>
<polygon fill="#63b8ff" stroke="#63b8ff" points="201.39,-82.97 195.61,-74.09 194.59,-84.63 201.39,-82.97"/>
</a>
</g>
</g>
<!-- Node10 -->
<g id="Node000010" class="node">
<title>Node10</title>
<g id="a_Node000010"><a xlink:href="_profiler_8hpp.html" target="_top" xlink:title=" ">
<polygon fill="white" stroke="#666666" points="356,-74 237,-74 237,-55 356,-55 356,-74"/>
<text text-anchor="middle" x="296.5" y="-62" font-family="Helvetica,sans-Serif" font-size="10.00">Common/Profiler.hpp</text>
</a>
</g>
</g>
<!-- Node8&#45;&gt;Node10 -->
<g id="edge9_Node000008_Node000010" class="edge">
<title>Node8&#45;&gt;Node10</title>
<g id="a_edge9_Node000008_Node000010"><a xlink:title=" ">
<path fill="none" stroke="#63b8ff" d="M220.96,-109.98C234.92,-101.77 256.29,-89.18 272.75,-79.49"/>
<polygon fill="#63b8ff" stroke="#63b8ff" points="274.94,-82.26 281.78,-74.17 271.38,-76.23 274.94,-82.26"/>
</a>
</g>
</g>
<!-- Node11 -->
<g id="Node000011" class="node">
<title>Node11</title>
<g id="a_Node000011"><a xlink:title=" ">
<polygon fill="#e0e0e0" stroke="#999999" points="193.5,-19 143.5,-19 143.5,0 193.5,0 193.5,-19"/>
<text text-anchor="middle" x="168.5" y="-7" font-family="Helvetica,sans-Serif" font-size="10.00">chrono</text>
</a>
</g>
</g>
<!-- Node10&#45;&gt;Node11 -->
<g id="edge10_Node000010_Node000011" class="edge">
<title>Node10&#45;&gt;Node11</title>
<g id="a_edge10_Node000010_Node000011"><a xlink:title=" ">
<path fill="none" stroke="#63b8ff" d="M275.93,-54.98C255.07,-46.34 222.53,-32.87 198.73,-23.02"/>
<polygon fill="#63b8ff" stroke="#63b8ff" points="200.02,-19.76 189.44,-19.17 197.34,-26.23 200.02,-19.76"/>
</a>
</g>
</g>
<!-- Node12 -->
<g id="Node000012" class="node">
<title>Node12</title>
<g id="a_Node000012"><a xlink:title=" ">
<polygon fill="#e0e0e0" stroke="#999999" points="259.5,-19 211.5,-19 211.5,0 259.5,0 259.5,-19"/>
<text text-anchor="middle" x="235.5" y="-7" font-family="Helvetica,sans-Serif" font-size="10.00">thread</text>
</a>
</g>
</g>
<!-- Node10&#45;&gt;Node12 -->
<g id="edge11_Node000010_Node000012" class="edge">
<title>Node10&#45;&gt;Node12</title>
<g id="a_edge11_Node000010_Node000012"><a xlink:title=" ">
<path fill="none" stroke="#63b8ff" d="M286.7,-54.98C277.68,-47.15 264.09,-35.34 253.18,-25.86"/>
<polygon fill="#63b8ff" stroke="#63b8ff" points="255.32,-23.09 245.48,-19.17 250.73,-28.37 255.32,-23.09"/>
</a>
</g>
</g>
<!-- Node13 -->
<g id="Node000013" class="node">
<title>Node13</title>
<g id="a_Node000013"><a xlink:title=" ">
<polygon fill="#e0e0e0" stroke="#999999" points="443.5,-19 395.5,-19 395.5,0 443.5,0 443.5,-19"/>
<text text-anchor="middle" x="419.5" y="-7" font-family="Helvetica,sans-Serif" font-size="10.00">mutex</text>
</a>
</g>
</g>
<!-- Node10&#45;&gt;Node13 -->
<g id="edge12_Node000010_Node000013" class="edge">
<title>Node10&#45;&gt;Node13</title>
<g id="a_edge12_Node000010_Node000013"><a xlink:title=" ">
<path fill="none" stroke="#63b8ff" d="M316.26,-54.98C336.23,-46.38 367.3,-32.99 390.15,-23.15"/>
<polygon fill="#63b8ff" stroke="#63b8ff" points="391.58,-26.34 399.38,-19.17 388.81,-19.91 391.58,-26.34"/>
</a>
</g>
</g>
<!-- Node14 -->
<g id="Node000014" class="node">
<title>Node14</title>
<g id="a_Node000014"><a xlink:title=" ">
<polygon fill="#e0e0e0" stroke="#999999" points="315.5,-19 277.5,-19 277.5,0 315.5,0 315.5,-19"/>
<text text-anchor="middle" x="296.5" y="-7" font-family="Helvetica,sans-Serif" font-size="10.00">map</text>
</a>
</g>
</g>
<!-- Node10&#45;&gt;Node14 -->
<g id="edge13_Node000010_Node000014" class="edge">
<title>Node10&#45;&gt;Node14</title>
<g id="a_edge13_Node000010_Node000014"><a xlink:title=" ">
<path fill="none" stroke="#63b8ff" d="M296.5,-54.75C296.5,-47.8 296.5,-37.85 296.5,-29.13"/>
<polygon fill="#63b8ff" stroke="#63b8ff" points="300,-29.09 296.5,-19.09 293,-29.09 300,-29.09"/>
</a>
</g>
</g>
<!-- Node15 -->
<g id="Node000015" class="node">
<title>Node15</title>
<g id="a_Node000015"><a xlink:title=" ">
<polygon fill="#e0e0e0" stroke="#999999" points="377.5,-19 333.5,-19 333.5,0 377.5,0 377.5,-19"/>
<text text-anchor="middle" x="355.5" y="-7" font-family="Helvetica,sans-Serif" font-size="10.00">string</text>
</a>
</g>
</g>
<!-- Node10&#45;&gt;Node15 -->
<g id="edge14_Node000010_Node000015" class="edge">
<title>Node10&#45;&gt;Node15</title>
<g id="a_edge14_Node000010_Node000015"><a xlink:title=" ">
<path fill="none" stroke="#63b8ff" d="M305.98,-54.98C314.7,-47.15 327.84,-35.34 338.4,-25.86"/>
<polygon fill="#63b8ff" stroke="#63b8ff" points="340.75,-28.46 345.85,-19.17 336.07,-23.25 340.75,-28.46"/>
</a>
</g>
</g>
<!-- Node17&#45;&gt;Node13 -->
<g id="edge17_Node000017_Node000013" class="edge">
<title>Node17&#45;&gt;Node13</title>
<g id="a_edge17_Node000017_Node000013"><a xlink:title=" ">
<path fill="none" stroke="#63b8ff" d="M444.28,-230.98C443.02,-222.03 441.02,-207.54 439.5,-195 432.16,-134.63 424.77,-62.99 421.4,-29.51"/>
<polygon fill="#63b8ff" stroke="#63b8ff" points="424.86,-28.94 420.38,-19.34 417.89,-29.64 424.86,-28.94"/>
</a>
</g>
</g>
<!-- Node18 -->
<g id="Node000018" class="node">
<title>Node18</title>
<g id="a_Node000018"><a xlink:title=" ">
<polygon fill="#e0e0e0" stroke="#999999" points="495,-189.5 448,-189.5 448,-170.5 495,-170.5 495,-189.5"/>
<text text-anchor="middle" x="471.5" y="-177.5" font-family="Helvetica,sans-Serif" font-size="10.00">queue</text>
</a>
</g>
</g>
<!-- Node17&#45;&gt;Node18 -->
<g id="edge18_Node000017_Node000018" class="edge">
<title>Node17&#45;&gt;Node18</title>
<g id="a_edge18_Node000017_Node000018"><a xlink:title=" ">
<path fill="none" stroke="#63b8ff" d="M449.34,-230.87C453.06,-222.49 458.83,-209.51 463.55,-198.89"/>
<polygon fill="#63b8ff" stroke="#63b8ff" points="466.78,-200.23 467.65,-189.67 460.39,-197.38 466.78,-200.23"/>
</a>
</g>
</g>
</g>
</svg>
