<?xml version="1.0" encoding="UTF-8" standalone="no"?>
<!DOCTYPE svg PUBLIC "-//W3C//DTD SVG 1.1//EN"
 "http://www.w3.org/Graphics/SVG/1.1/DTD/svg11.dtd">
<!-- Generated by graphviz version 2.43.0 (0)
 -->
<!-- Title: src/Components/SkyboxComponent.hpp Pages: 1 -->
<svg width="1051pt" height="412pt"
 viewBox="0.00 0.00 1051.41 412.00" xmlns="http://www.w3.org/2000/svg" xmlns:xlink="http://www.w3.org/1999/xlink">
<g id="graph0" class="graph" transform="scale(1 1) rotate(0) translate(4 408)">
<title>src/Components/SkyboxComponent.hpp</title>
<!-- Node1 -->
<g id="Node000001" class="node">
<title>Node1</title>
<g id="a_Node000001"><a xlink:title=" ">
<polygon fill="#999999" stroke="#666666" points="292.5,-404 81.5,-404 81.5,-385 292.5,-385 292.5,-404"/>
<text text-anchor="middle" x="187" y="-392" font-family="Helvetica,sans-Serif" font-size="10.00">src/Components/SkyboxComponent.hpp</text>
</a>
</g>
</g>
<!-- Node2 -->
<g id="Node000002" class="node">
<title>Node2</title>
<g id="a_Node000002"><a xlink:title=" ">
<polygon fill="#e0e0e0" stroke="#999999" points="78,-349 0,-349 0,-330 78,-330 78,-349"/>
<text text-anchor="middle" x="39" y="-337" font-family="Helvetica,sans-Serif" font-size="10.00">glm/glm.hpp</text>
</a>
</g>
</g>
<!-- Node1&#45;&gt;Node2 -->
<g id="edge1_Node000001_Node000002" class="edge">
<title>Node1&#45;&gt;Node2</title>
<g id="a_edge1_Node000001_Node000002"><a xlink:title=" ">
<path fill="none" stroke="#63b8ff" d="M163.22,-384.98C138.77,-376.23 100.47,-362.51 72.85,-352.62"/>
<polygon fill="#63b8ff" stroke="#63b8ff" points="73.81,-349.25 63.21,-349.17 71.45,-355.84 73.81,-349.25"/>
</a>
</g>
</g>
<!-- Node3 -->
<g id="Node000003" class="node">
<title>Node3</title>
<g id="a_Node000003"><a xlink:href="_cube_map_8hpp.html" target="_top" xlink:title=" ">
<polygon fill="white" stroke="#666666" points="495,-349 339,-349 339,-330 495,-330 495,-349"/>
<text text-anchor="middle" x="417" y="-337" font-family="Helvetica,sans-Serif" font-size="10.00">AssetManager/CubeMap.hpp</text>
</a>
</g>
</g>
<!-- Node1&#45;&gt;Node3 -->
<g id="edge2_Node000001_Node000003" class="edge">
<title>Node1&#45;&gt;Node3</title>
<g id="a_edge2_Node000001_Node000003"><a xlink:title=" ">
<path fill="none" stroke="#63b8ff" d="M223.95,-384.98C263.57,-375.86 326.59,-361.33 369.77,-351.38"/>
<polygon fill="#63b8ff" stroke="#63b8ff" points="370.8,-354.74 379.76,-349.08 369.23,-347.92 370.8,-354.74"/>
</a>
</g>
</g>
<!-- Node24 -->
<g id="Node000024" class="node">
<title>Node24</title>
<g id="a_Node000024"><a xlink:href="_base_component_8hpp.html" target="_top" xlink:title=" ">
<polygon fill="white" stroke="#666666" points="278,-349 96,-349 96,-330 278,-330 278,-349"/>
<text text-anchor="middle" x="187" y="-337" font-family="Helvetica,sans-Serif" font-size="10.00">Components/BaseComponent.hpp</text>
</a>
</g>
</g>
<!-- Node1&#45;&gt;Node24 -->
<g id="edge30_Node000001_Node000024" class="edge">
<title>Node1&#45;&gt;Node24</title>
<g id="a_edge30_Node000001_Node000024"><a xlink:title=" ">
<path fill="none" stroke="#63b8ff" d="M187,-384.75C187,-377.8 187,-367.85 187,-359.13"/>
<polygon fill="#63b8ff" stroke="#63b8ff" points="190.5,-359.09 187,-349.09 183.5,-359.09 190.5,-359.09"/>
</a>
</g>
</g>
<!-- Node4 -->
<g id="Node000004" class="node">
<title>Node4</title>
<g id="a_Node000004"><a xlink:title=" ">
<polygon fill="#e0e0e0" stroke="#999999" points="598.5,-294 527.5,-294 527.5,-275 598.5,-275 598.5,-294"/>
<text text-anchor="middle" x="563" y="-282" font-family="Helvetica,sans-Serif" font-size="10.00">glad/glad.h</text>
</a>
</g>
</g>
<!-- Node3&#45;&gt;Node4 -->
<g id="edge3_Node000003_Node000004" class="edge">
<title>Node3&#45;&gt;Node4</title>
<g id="a_edge3_Node000003_Node000004"><a xlink:title=" ">
<path fill="none" stroke="#63b8ff" d="M440.46,-329.98C464.58,-321.23 502.37,-307.51 529.6,-297.62"/>
<polygon fill="#63b8ff" stroke="#63b8ff" points="530.91,-300.87 539.12,-294.17 528.52,-294.29 530.91,-300.87"/>
</a>
</g>
</g>
<!-- Node5 -->
<g id="Node000005" class="node">
<title>Node5</title>
<g id="a_Node000005"><a xlink:title=" ">
<polygon fill="#e0e0e0" stroke="#999999" points="285,-294 241,-294 241,-275 285,-275 285,-294"/>
<text text-anchor="middle" x="263" y="-282" font-family="Helvetica,sans-Serif" font-size="10.00">string</text>
</a>
</g>
</g>
<!-- Node3&#45;&gt;Node5 -->
<g id="edge4_Node000003_Node000005" class="edge">
<title>Node3&#45;&gt;Node5</title>
<g id="a_edge4_Node000003_Node000005"><a xlink:title=" ">
<path fill="none" stroke="#63b8ff" d="M392.26,-329.98C365.79,-320.88 323.72,-306.4 294.81,-296.45"/>
<polygon fill="#63b8ff" stroke="#63b8ff" points="295.78,-293.08 285.18,-293.13 293.5,-299.7 295.78,-293.08"/>
</a>
</g>
</g>
<!-- Node6 -->
<g id="Node000006" class="node">
<title>Node6</title>
<g id="a_Node000006"><a xlink:title=" ">
<polygon fill="#e0e0e0" stroke="#999999" points="350.5,-294 303.5,-294 303.5,-275 350.5,-275 350.5,-294"/>
<text text-anchor="middle" x="327" y="-282" font-family="Helvetica,sans-Serif" font-size="10.00">vector</text>
</a>
</g>
</g>
<!-- Node3&#45;&gt;Node6 -->
<g id="edge5_Node000003_Node000006" class="edge">
<title>Node3&#45;&gt;Node6</title>
<g id="a_edge5_Node000003_Node000006"><a xlink:title=" ">
<path fill="none" stroke="#63b8ff" d="M402.54,-329.98C388.58,-321.77 367.21,-309.18 350.75,-299.49"/>
<polygon fill="#63b8ff" stroke="#63b8ff" points="352.12,-296.23 341.72,-294.17 348.56,-302.26 352.12,-296.23"/>
</a>
</g>
</g>
<!-- Node7 -->
<g id="Node000007" class="node">
<title>Node7</title>
<g id="a_Node000007"><a xlink:href="_asset_8hpp.html" target="_top" xlink:title=" ">
<polygon fill="white" stroke="#666666" points="753.5,-294 616.5,-294 616.5,-275 753.5,-275 753.5,-294"/>
<text text-anchor="middle" x="685" y="-282" font-family="Helvetica,sans-Serif" font-size="10.00">AssetManager/Asset.hpp</text>
</a>
</g>
</g>
<!-- Node3&#45;&gt;Node7 -->
<g id="edge6_Node000003_Node000007" class="edge">
<title>Node3&#45;&gt;Node7</title>
<g id="a_edge6_Node000003_Node000007"><a xlink:title=" ">
<path fill="none" stroke="#63b8ff" d="M460.06,-329.98C506.71,-320.76 581.2,-306.03 631.56,-296.07"/>
<polygon fill="#63b8ff" stroke="#63b8ff" points="632.47,-299.46 641.6,-294.08 631.11,-292.59 632.47,-299.46"/>
</a>
</g>
</g>
<!-- Node23 -->
<g id="Node000023" class="node">
<title>Node23</title>
<g id="a_Node000023"><a xlink:href="_image_8hpp.html" target="_top" xlink:title=" ">
<polygon fill="white" stroke="#666666" points="509.5,-294 368.5,-294 368.5,-275 509.5,-275 509.5,-294"/>
<text text-anchor="middle" x="439" y="-282" font-family="Helvetica,sans-Serif" font-size="10.00">AssetManager/Image.hpp</text>
</a>
</g>
</g>
<!-- Node3&#45;&gt;Node23 -->
<g id="edge28_Node000003_Node000023" class="edge">
<title>Node3&#45;&gt;Node23</title>
<g id="a_edge28_Node000003_Node000023"><a xlink:title=" ">
<path fill="none" stroke="#63b8ff" d="M420.63,-329.75C423.58,-322.65 427.83,-312.4 431.51,-303.56"/>
<polygon fill="#63b8ff" stroke="#63b8ff" points="434.83,-304.67 435.43,-294.09 428.37,-301.98 434.83,-304.67"/>
</a>
</g>
</g>
<!-- Node8 -->
<g id="Node000008" class="node">
<title>Node8</title>
<g id="a_Node000008"><a xlink:title=" ">
<polygon fill="#e0e0e0" stroke="#999999" points="473,-239 405,-239 405,-220 473,-220 473,-239"/>
<text text-anchor="middle" x="439" y="-227" font-family="Helvetica,sans-Serif" font-size="10.00">filesystem</text>
</a>
</g>
</g>
<!-- Node7&#45;&gt;Node8 -->
<g id="edge7_Node000007_Node000008" class="edge">
<title>Node7&#45;&gt;Node8</title>
<g id="a_edge7_Node000007_Node000008"><a xlink:title=" ">
<path fill="none" stroke="#63b8ff" d="M645.48,-274.98C601.16,-265.44 529.46,-249.99 483.28,-240.04"/>
<polygon fill="#63b8ff" stroke="#63b8ff" points="483.78,-236.57 473.27,-237.88 482.31,-243.41 483.78,-236.57"/>
</a>
</g>
</g>
<!-- Node9 -->
<g id="Node000009" class="node">
<title>Node9</title>
<g id="a_Node000009"><a xlink:href="_registry_8hpp.html" target="_top" xlink:title=" ">
<polygon fill="white" stroke="#666666" points="734,-239 636,-239 636,-220 734,-220 734,-239"/>
<text text-anchor="middle" x="685" y="-227" font-family="Helvetica,sans-Serif" font-size="10.00">ECS/Registry.hpp</text>
</a>
</g>
</g>
<!-- Node7&#45;&gt;Node9 -->
<g id="edge8_Node000007_Node000009" class="edge">
<title>Node7&#45;&gt;Node9</title>
<g id="a_edge8_Node000007_Node000009"><a xlink:title=" ">
<path fill="none" stroke="#63b8ff" d="M685,-274.75C685,-267.8 685,-257.85 685,-249.13"/>
<polygon fill="#63b8ff" stroke="#63b8ff" points="688.5,-249.09 685,-239.09 681.5,-249.09 688.5,-249.09"/>
</a>
</g>
</g>
<!-- Node10 -->
<g id="Node000010" class="node">
<title>Node10</title>
<g id="a_Node000010"><a xlink:title=" ">
<polygon fill="#e0e0e0" stroke="#999999" points="728,-129 642,-129 642,-110 728,-110 728,-129"/>
<text text-anchor="middle" x="685" y="-117" font-family="Helvetica,sans-Serif" font-size="10.00">unordered_set</text>
</a>
</g>
</g>
<!-- Node9&#45;&gt;Node10 -->
<g id="edge9_Node000009_Node000010" class="edge">
<title>Node9&#45;&gt;Node10</title>
<g id="a_edge9_Node000009_Node000010"><a xlink:title=" ">
<path fill="none" stroke="#63b8ff" d="M685,-219.66C685,-202.17 685,-162.8 685,-139.27"/>
<polygon fill="#63b8ff" stroke="#63b8ff" points="688.5,-139.16 685,-129.16 681.5,-139.16 688.5,-139.16"/>
</a>
</g>
</g>
<!-- Node11 -->
<g id="Node000011" class="node">
<title>Node11</title>
<g id="a_Node000011"><a xlink:href="_logger_8hpp.html" target="_top" xlink:title=" ">
<polygon fill="white" stroke="#666666" points="492.5,-184 375.5,-184 375.5,-165 492.5,-165 492.5,-184"/>
<text text-anchor="middle" x="434" y="-172" font-family="Helvetica,sans-Serif" font-size="10.00">Common/Logger.hpp</text>
</a>
</g>
</g>
<!-- Node9&#45;&gt;Node11 -->
<g id="edge10_Node000009_Node000011" class="edge">
<title>Node9&#45;&gt;Node11</title>
<g id="a_edge10_Node000009_Node000011"><a xlink:title=" ">
<path fill="none" stroke="#63b8ff" d="M644.67,-219.98C601.16,-210.8 531.8,-196.15 484.65,-186.19"/>
<polygon fill="#63b8ff" stroke="#63b8ff" points="485.15,-182.72 474.64,-184.08 483.7,-189.57 485.15,-182.72"/>
</a>
</g>
</g>
<!-- Node14 -->
<g id="Node000014" class="node">
<title>Node14</title>
<g id="a_Node000014"><a xlink:href="_entity_8hpp.html" target="_top" xlink:title=" ">
<polygon fill="white" stroke="#666666" points="904,-74 818,-74 818,-55 904,-55 904,-74"/>
<text text-anchor="middle" x="861" y="-62" font-family="Helvetica,sans-Serif" font-size="10.00">ECS/Entity.hpp</text>
</a>
</g>
</g>
<!-- Node9&#45;&gt;Node14 -->
<g id="edge13_Node000009_Node000014" class="edge">
<title>Node9&#45;&gt;Node14</title>
<g id="a_edge13_Node000009_Node000014"><a xlink:title=" ">
<path fill="none" stroke="#63b8ff" d="M734.04,-225.82C825.87,-220.31 1016.35,-206.29 1036,-184 1051.62,-166.27 1038.96,-130.14 1018,-110 990.32,-83.41 947.96,-72.5 914.22,-68.12"/>
<polygon fill="#63b8ff" stroke="#63b8ff" points="914.38,-64.62 904.05,-66.96 913.59,-71.57 914.38,-64.62"/>
</a>
</g>
</g>
<!-- Node16 -->
<g id="Node000016" class="node">
<title>Node16</title>
<g id="a_Node000016"><a xlink:href="_entity_hierarchy_8hpp.html" target="_top" xlink:title=" ">
<polygon fill="white" stroke="#666666" points="847,-184 713,-184 713,-165 847,-165 847,-184"/>
<text text-anchor="middle" x="780" y="-172" font-family="Helvetica,sans-Serif" font-size="10.00">ECS/EntityHierarchy.hpp</text>
</a>
</g>
</g>
<!-- Node9&#45;&gt;Node16 -->
<g id="edge15_Node000009_Node000016" class="edge">
<title>Node9&#45;&gt;Node16</title>
<g id="a_edge15_Node000009_Node000016"><a xlink:title=" ">
<path fill="none" stroke="#63b8ff" d="M700.26,-219.98C715.13,-211.69 737.98,-198.94 755.42,-189.22"/>
<polygon fill="#63b8ff" stroke="#63b8ff" points="757.43,-192.1 764.46,-184.17 754.02,-185.99 757.43,-192.1"/>
</a>
</g>
</g>
<!-- Node20 -->
<g id="Node000020" class="node">
<title>Node20</title>
<g id="a_Node000020"><a xlink:href="_entity_provider_8hpp.html" target="_top" xlink:title="Manages a pool of unused entity identifiers and provides mechanisms for requesting and removing them.">
<polygon fill="white" stroke="#666666" points="624,-129 496,-129 496,-110 624,-110 624,-129"/>
<text text-anchor="middle" x="560" y="-117" font-family="Helvetica,sans-Serif" font-size="10.00">ECS/EntityProvider.hpp</text>
</a>
</g>
</g>
<!-- Node9&#45;&gt;Node20 -->
<g id="edge21_Node000009_Node000020" class="edge">
<title>Node9&#45;&gt;Node20</title>
<g id="a_edge21_Node000009_Node000020"><a xlink:title=" ">
<path fill="none" stroke="#63b8ff" d="M678.26,-219.63C668.19,-206.71 648.23,-182.37 628,-165 614.43,-153.35 597.63,-142.33 584.12,-134.17"/>
<polygon fill="#63b8ff" stroke="#63b8ff" points="585.77,-131.08 575.38,-129 582.21,-137.1 585.77,-131.08"/>
</a>
</g>
</g>
<!-- Node21 -->
<g id="Node000021" class="node">
<title>Node21</title>
<g id="a_Node000021"><a xlink:href="_singleton_component_8hpp.html" target="_top" xlink:title=" ">
<polygon fill="white" stroke="#666666" points="1026.5,-184 865.5,-184 865.5,-165 1026.5,-165 1026.5,-184"/>
<text text-anchor="middle" x="946" y="-172" font-family="Helvetica,sans-Serif" font-size="10.00">ECS/SingletonComponent.hpp</text>
</a>
</g>
</g>
<!-- Node9&#45;&gt;Node21 -->
<g id="edge25_Node000009_Node000021" class="edge">
<title>Node9&#45;&gt;Node21</title>
<g id="a_edge25_Node000009_Node000021"><a xlink:title=" ">
<path fill="none" stroke="#63b8ff" d="M726.93,-219.98C772.27,-210.78 844.61,-196.09 893.65,-186.13"/>
<polygon fill="#63b8ff" stroke="#63b8ff" points="894.63,-189.5 903.74,-184.08 893.24,-182.64 894.63,-189.5"/>
</a>
</g>
</g>
<!-- Node22 -->
<g id="Node000022" class="node">
<title>Node22</title>
<g id="a_Node000022"><a xlink:href="_sparse_set_8hpp.html" target="_top" xlink:title=" ">
<polygon fill="white" stroke="#666666" points="619,-184 511,-184 511,-165 619,-165 619,-184"/>
<text text-anchor="middle" x="565" y="-172" font-family="Helvetica,sans-Serif" font-size="10.00">ECS/SparseSet.hpp</text>
</a>
</g>
</g>
<!-- Node9&#45;&gt;Node22 -->
<g id="edge26_Node000009_Node000022" class="edge">
<title>Node9&#45;&gt;Node22</title>
<g id="a_edge26_Node000009_Node000022"><a xlink:title=" ">
<path fill="none" stroke="#63b8ff" d="M665.72,-219.98C646.33,-211.42 616.19,-198.11 593.93,-188.28"/>
<polygon fill="#63b8ff" stroke="#63b8ff" points="595.19,-185.01 584.63,-184.17 592.36,-191.41 595.19,-185.01"/>
</a>
</g>
</g>
<!-- Node12 -->
<g id="Node000012" class="node">
<title>Node12</title>
<g id="a_Node000012"><a xlink:title=" ">
<polygon fill="#e0e0e0" stroke="#999999" points="440,-129 392,-129 392,-110 440,-110 440,-129"/>
<text text-anchor="middle" x="416" y="-117" font-family="Helvetica,sans-Serif" font-size="10.00">mutex</text>
</a>
</g>
</g>
<!-- Node11&#45;&gt;Node12 -->
<g id="edge11_Node000011_Node000012" class="edge">
<title>Node11&#45;&gt;Node12</title>
<g id="a_edge11_Node000011_Node000012"><a xlink:title=" ">
<path fill="none" stroke="#63b8ff" d="M431.03,-164.75C428.64,-157.72 425.21,-147.62 422.23,-138.84"/>
<polygon fill="#63b8ff" stroke="#63b8ff" points="425.45,-137.43 418.92,-129.09 418.82,-139.68 425.45,-137.43"/>
</a>
</g>
</g>
<!-- Node13 -->
<g id="Node000013" class="node">
<title>Node13</title>
<g id="a_Node000013"><a xlink:title=" ">
<polygon fill="#e0e0e0" stroke="#999999" points="547.5,-74 500.5,-74 500.5,-55 547.5,-55 547.5,-74"/>
<text text-anchor="middle" x="524" y="-62" font-family="Helvetica,sans-Serif" font-size="10.00">queue</text>
</a>
</g>
</g>
<!-- Node11&#45;&gt;Node13 -->
<g id="edge12_Node000011_Node000013" class="edge">
<title>Node11&#45;&gt;Node13</title>
<g id="a_edge12_Node000011_Node000013"><a xlink:title=" ">
<path fill="none" stroke="#63b8ff" d="M441.37,-164.66C456.4,-146.61 490.85,-105.28 510.19,-82.08"/>
<polygon fill="#63b8ff" stroke="#63b8ff" points="513.07,-84.08 516.78,-74.16 507.69,-79.6 513.07,-84.08"/>
</a>
</g>
</g>
<!-- Node15 -->
<g id="Node000015" class="node">
<title>Node15</title>
<g id="a_Node000015"><a xlink:title=" ">
<polygon fill="#e0e0e0" stroke="#999999" points="754.5,-19 701.5,-19 701.5,0 754.5,0 754.5,-19"/>
<text text-anchor="middle" x="728" y="-7" font-family="Helvetica,sans-Serif" font-size="10.00">stdlib.h</text>
</a>
</g>
</g>
<!-- Node14&#45;&gt;Node15 -->
<g id="edge14_Node000014_Node000015" class="edge">
<title>Node14&#45;&gt;Node15</title>
<g id="a_edge14_Node000014_Node000015"><a xlink:title=" ">
<path fill="none" stroke="#63b8ff" d="M839.63,-54.98C817.85,-46.3 783.84,-32.75 759.08,-22.88"/>
<polygon fill="#63b8ff" stroke="#63b8ff" points="760.34,-19.62 749.76,-19.17 757.75,-26.12 760.34,-19.62"/>
</a>
</g>
</g>
<!-- Node16&#45;&gt;Node10 -->
<g id="edge19_Node000016_Node000010" class="edge">
<title>Node16&#45;&gt;Node10</title>
<g id="a_edge19_Node000016_Node000010"><a xlink:title=" ">
<path fill="none" stroke="#63b8ff" d="M764.74,-164.98C749.87,-156.69 727.02,-143.94 709.58,-134.22"/>
<polygon fill="#63b8ff" stroke="#63b8ff" points="710.98,-130.99 700.54,-129.17 707.57,-137.1 710.98,-130.99"/>
</a>
</g>
</g>
<!-- Node16&#45;&gt;Node14 -->
<g id="edge20_Node000016_Node000014" class="edge">
<title>Node16&#45;&gt;Node14</title>
<g id="a_edge20_Node000016_Node000014"><a xlink:title=" ">
<path fill="none" stroke="#63b8ff" d="M842.59,-164.99C904.33,-155.96 990.91,-141.32 1001,-129 1028.44,-95.48 964.8,-78.94 914.55,-71.32"/>
<polygon fill="#63b8ff" stroke="#63b8ff" points="914.78,-67.82 904.39,-69.87 913.79,-74.75 914.78,-67.82"/>
</a>
</g>
</g>
<!-- Node17 -->
<g id="Node000017" class="node">
<title>Node17</title>
<g id="a_Node000017"><a xlink:title=" ">
<polygon fill="#e0e0e0" stroke="#999999" points="811.5,-129 746.5,-129 746.5,-110 811.5,-110 811.5,-129"/>
<text text-anchor="middle" x="779" y="-117" font-family="Helvetica,sans-Serif" font-size="10.00">functional</text>
</a>
</g>
</g>
<!-- Node16&#45;&gt;Node17 -->
<g id="edge16_Node000016_Node000017" class="edge">
<title>Node16&#45;&gt;Node17</title>
<g id="a_edge16_Node000016_Node000017"><a xlink:title=" ">
<path fill="none" stroke="#63b8ff" d="M779.83,-164.75C779.7,-157.8 779.52,-147.85 779.35,-139.13"/>
<polygon fill="#63b8ff" stroke="#63b8ff" points="782.85,-139.02 779.16,-129.09 775.85,-139.15 782.85,-139.02"/>
</a>
</g>
</g>
<!-- Node18 -->
<g id="Node000018" class="node">
<title>Node18</title>
<g id="a_Node000018"><a xlink:title=" ">
<polygon fill="#e0e0e0" stroke="#999999" points="880,-129 830,-129 830,-110 880,-110 880,-129"/>
<text text-anchor="middle" x="855" y="-117" font-family="Helvetica,sans-Serif" font-size="10.00">ranges</text>
</a>
</g>
</g>
<!-- Node16&#45;&gt;Node18 -->
<g id="edge17_Node000016_Node000018" class="edge">
<title>Node16&#45;&gt;Node18</title>
<g id="a_edge17_Node000016_Node000018"><a xlink:title=" ">
<path fill="none" stroke="#63b8ff" d="M792.05,-164.98C803.46,-156.92 820.83,-144.65 834.43,-135.03"/>
<polygon fill="#63b8ff" stroke="#63b8ff" points="836.58,-137.8 842.73,-129.17 832.54,-132.08 836.58,-137.8"/>
</a>
</g>
</g>
<!-- Node19 -->
<g id="Node000019" class="node">
<title>Node19</title>
<g id="a_Node000019"><a xlink:title=" ">
<polygon fill="#e0e0e0" stroke="#999999" points="991.5,-129 898.5,-129 898.5,-110 991.5,-110 991.5,-129"/>
<text text-anchor="middle" x="945" y="-117" font-family="Helvetica,sans-Serif" font-size="10.00">unordered_map</text>
</a>
</g>
</g>
<!-- Node16&#45;&gt;Node19 -->
<g id="edge18_Node000016_Node000019" class="edge">
<title>Node16&#45;&gt;Node19</title>
<g id="a_edge18_Node000016_Node000019"><a xlink:title=" ">
<path fill="none" stroke="#63b8ff" d="M806.51,-164.98C834.21,-156.09 877.86,-142.07 908.74,-132.15"/>
<polygon fill="#63b8ff" stroke="#63b8ff" points="909.83,-135.47 918.28,-129.08 907.69,-128.81 909.83,-135.47"/>
</a>
</g>
</g>
<!-- Node20&#45;&gt;Node13 -->
<g id="edge23_Node000020_Node000013" class="edge">
<title>Node20&#45;&gt;Node13</title>
<g id="a_edge23_Node000020_Node000013"><a xlink:title=" ">
<path fill="none" stroke="#63b8ff" d="M554.06,-109.75C549.02,-102.34 541.66,-91.5 535.49,-82.41"/>
<polygon fill="#63b8ff" stroke="#63b8ff" points="538.35,-80.39 529.83,-74.09 532.56,-84.33 538.35,-80.39"/>
</a>
</g>
</g>
<!-- Node20&#45;&gt;Node14 -->
<g id="edge24_Node000020_Node000014" class="edge">
<title>Node20&#45;&gt;Node14</title>
<g id="a_edge24_Node000020_Node000014"><a xlink:title=" ">
<path fill="none" stroke="#63b8ff" d="M608.36,-109.98C662.8,-100.4 751.01,-84.87 807.48,-74.92"/>
<polygon fill="#63b8ff" stroke="#63b8ff" points="808.4,-78.32 817.64,-73.13 807.19,-71.42 808.4,-78.32"/>
</a>
</g>
</g>
<!-- Node20&#45;&gt;Node15 -->
<g id="edge22_Node000020_Node000015" class="edge">
<title>Node20&#45;&gt;Node15</title>
<g id="a_edge22_Node000020_Node000015"><a xlink:title=" ">
<path fill="none" stroke="#63b8ff" d="M573.46,-109.84C602.34,-91.28 670.46,-47.49 705.83,-24.75"/>
<polygon fill="#63b8ff" stroke="#63b8ff" points="707.95,-27.55 714.47,-19.2 704.17,-21.66 707.95,-27.55"/>
</a>
</g>
</g>
<!-- Node22&#45;&gt;Node20 -->
<g id="edge27_Node000022_Node000020" class="edge">
<title>Node22&#45;&gt;Node20</title>
<g id="a_edge27_Node000022_Node000020"><a xlink:title=" ">
<path fill="none" stroke="#63b8ff" d="M564.17,-164.75C563.52,-157.8 562.58,-147.85 561.76,-139.13"/>
<polygon fill="#63b8ff" stroke="#63b8ff" points="565.23,-138.72 560.81,-129.09 558.27,-139.37 565.23,-138.72"/>
</a>
</g>
</g>
<!-- Node23&#45;&gt;Node8 -->
<g id="edge29_Node000023_Node000008" class="edge">
<title>Node23&#45;&gt;Node8</title>
<g id="a_edge29_Node000023_Node000008"><a xlink:title=" ">
<path fill="none" stroke="#63b8ff" d="M439,-274.75C439,-267.8 439,-257.85 439,-249.13"/>
<polygon fill="#63b8ff" stroke="#63b8ff" points="442.5,-249.09 439,-239.09 435.5,-249.09 442.5,-249.09"/>
</a>
</g>
</g>
<!-- Node25 -->
<g id="Node000025" class="node">
<title>Node25</title>
<g id="a_Node000025"><a xlink:href="_types_8hpp.html" target="_top" xlink:title=" ">
<polygon fill="white" stroke="#666666" points="222.5,-294 109.5,-294 109.5,-275 222.5,-275 222.5,-294"/>
<text text-anchor="middle" x="166" y="-282" font-family="Helvetica,sans-Serif" font-size="10.00">Common/Types.hpp</text>
</a>
</g>
</g>
<!-- Node24&#45;&gt;Node25 -->
<g id="edge31_Node000024_Node000025" class="edge">
<title>Node24&#45;&gt;Node25</title>
<g id="a_edge31_Node000024_Node000025"><a xlink:title=" ">
<path fill="none" stroke="#63b8ff" d="M183.53,-329.75C180.72,-322.65 176.66,-312.4 173.15,-303.56"/>
<polygon fill="#63b8ff" stroke="#63b8ff" points="176.34,-302.1 169.4,-294.09 169.83,-304.68 176.34,-302.1"/>
</a>
</g>
</g>
<!-- Node25&#45;&gt;Node8 -->
<g id="edge32_Node000025_Node000008" class="edge">
<title>Node25&#45;&gt;Node8</title>
<g id="a_edge32_Node000025_Node000008"><a xlink:title=" ">
<path fill="none" stroke="#63b8ff" d="M209.86,-274.98C260.63,-265.13 343.75,-248.99 394.7,-239.1"/>
<polygon fill="#63b8ff" stroke="#63b8ff" points="395.6,-242.49 404.75,-237.15 394.27,-235.62 395.6,-242.49"/>
</a>
</g>
</g>
</g>
</svg>
