<?xml version="1.0" encoding="UTF-8" standalone="no"?>
<!DOCTYPE svg PUBLIC "-//W3C//DTD SVG 1.1//EN"
 "http://www.w3.org/Graphics/SVG/1.1/DTD/svg11.dtd">
<!-- Generated by graphviz version 2.43.0 (0)
 -->
<!-- Title: src/AssetManager/Texture.cpp Pages: 1 -->
<svg width="1446pt" height="434pt"
 viewBox="0.00 0.00 1445.50 434.00" xmlns="http://www.w3.org/2000/svg" xmlns:xlink="http://www.w3.org/1999/xlink">
<g id="graph0" class="graph" transform="scale(1 1) rotate(0) translate(4 430)">
<title>src/AssetManager/Texture.cpp</title>
<!-- Node1 -->
<g id="Node000001" class="node">
<title>Node1</title>
<g id="a_Node000001"><a xlink:title=" ">
<polygon fill="#999999" stroke="#666666" points="647,-426 484,-426 484,-407 647,-407 647,-426"/>
<text text-anchor="middle" x="565.5" y="-414" font-family="Helvetica,sans-Serif" font-size="10.00">src/AssetManager/Texture.cpp</text>
</a>
</g>
</g>
<!-- Node2 -->
<g id="Node000002" class="node">
<title>Node2</title>
<g id="a_Node000002"><a xlink:title=" ">
<polygon fill="#e0e0e0" stroke="#999999" points="347.5,-371 287.5,-371 287.5,-352 347.5,-352 347.5,-371"/>
<text text-anchor="middle" x="317.5" y="-359" font-family="Helvetica,sans-Serif" font-size="10.00">iostream</text>
</a>
</g>
</g>
<!-- Node1&#45;&gt;Node2 -->
<g id="edge1_Node000001_Node000002" class="edge">
<title>Node1&#45;&gt;Node2</title>
<g id="a_edge1_Node000001_Node000002"><a xlink:title=" ">
<path fill="none" stroke="#63b8ff" d="M525.65,-406.98C479.57,-397.14 404.14,-381.01 357.84,-371.12"/>
<polygon fill="#63b8ff" stroke="#63b8ff" points="358.38,-367.66 347.87,-368.99 356.91,-374.5 358.38,-367.66"/>
</a>
</g>
</g>
<!-- Node3 -->
<g id="Node000003" class="node">
<title>Node3</title>
<g id="a_Node000003"><a xlink:href="_logger_8hpp.html" target="_top" xlink:title=" ">
<polygon fill="white" stroke="#666666" points="117,-189.5 0,-189.5 0,-170.5 117,-170.5 117,-189.5"/>
<text text-anchor="middle" x="58.5" y="-177.5" font-family="Helvetica,sans-Serif" font-size="10.00">Common/Logger.hpp</text>
</a>
</g>
</g>
<!-- Node1&#45;&gt;Node3 -->
<g id="edge2_Node000001_Node000003" class="edge">
<title>Node1&#45;&gt;Node3</title>
<g id="a_edge2_Node000001_Node000003"><a xlink:title=" ">
<path fill="none" stroke="#63b8ff" d="M546.85,-406.88C470.06,-371.36 178.01,-236.28 86.26,-193.84"/>
<polygon fill="#63b8ff" stroke="#63b8ff" points="87.59,-190.6 77.05,-189.58 84.65,-196.95 87.59,-190.6"/>
</a>
</g>
</g>
<!-- Node6 -->
<g id="Node000006" class="node">
<title>Node6</title>
<g id="a_Node000006"><a xlink:href="_asset_utils_8hpp.html" target="_top" xlink:title=" ">
<polygon fill="white" stroke="#666666" points="812,-371 699,-371 699,-352 812,-352 812,-371"/>
<text text-anchor="middle" x="755.5" y="-359" font-family="Helvetica,sans-Serif" font-size="10.00">Utils/AssetUtils.hpp</text>
</a>
</g>
</g>
<!-- Node1&#45;&gt;Node6 -->
<g id="edge5_Node000001_Node000006" class="edge">
<title>Node1&#45;&gt;Node6</title>
<g id="a_edge5_Node000001_Node000006"><a xlink:title=" ">
<path fill="none" stroke="#63b8ff" d="M596.03,-406.98C628.2,-398.01 679.06,-383.82 714.67,-373.89"/>
<polygon fill="#63b8ff" stroke="#63b8ff" points="716.04,-377.14 724.73,-371.08 714.16,-370.4 716.04,-377.14"/>
</a>
</g>
</g>
<!-- Node32 -->
<g id="Node000032" class="node">
<title>Node32</title>
<g id="a_Node000032"><a xlink:href="_texture_8hpp.html" target="_top" xlink:title=" ">
<polygon fill="white" stroke="#666666" points="1343.5,-310.5 1197.5,-310.5 1197.5,-291.5 1343.5,-291.5 1343.5,-310.5"/>
<text text-anchor="middle" x="1270.5" y="-298.5" font-family="Helvetica,sans-Serif" font-size="10.00">AssetManager/Texture.hpp</text>
</a>
</g>
</g>
<!-- Node1&#45;&gt;Node32 -->
<g id="edge45_Node000001_Node000032" class="edge">
<title>Node1&#45;&gt;Node32</title>
<g id="a_edge45_Node000001_Node000032"><a xlink:title=" ">
<path fill="none" stroke="#63b8ff" d="M620.12,-406.98C728.53,-390.02 978.58,-350.68 1188.5,-316 1195.83,-314.79 1203.53,-313.5 1211.15,-312.21"/>
<polygon fill="#63b8ff" stroke="#63b8ff" points="1211.81,-315.65 1221.08,-310.53 1210.64,-308.75 1211.81,-315.65"/>
</a>
</g>
</g>
<!-- Node4 -->
<g id="Node000004" class="node">
<title>Node4</title>
<g id="a_Node000004"><a xlink:title=" ">
<polygon fill="#e0e0e0" stroke="#999999" points="736.5,-19 688.5,-19 688.5,0 736.5,0 736.5,-19"/>
<text text-anchor="middle" x="712.5" y="-7" font-family="Helvetica,sans-Serif" font-size="10.00">mutex</text>
</a>
</g>
</g>
<!-- Node3&#45;&gt;Node4 -->
<g id="edge3_Node000003_Node000004" class="edge">
<title>Node3&#45;&gt;Node4</title>
<g id="a_edge3_Node000003_Node000004"><a xlink:title=" ">
<path fill="none" stroke="#63b8ff" d="M59.39,-170.2C62.28,-146.82 73.65,-83.08 113.5,-55 159.74,-22.43 557.81,-13.1 678.17,-11.02"/>
<polygon fill="#63b8ff" stroke="#63b8ff" points="678.35,-14.51 688.29,-10.85 678.23,-7.52 678.35,-14.51"/>
</a>
</g>
</g>
<!-- Node5 -->
<g id="Node000005" class="node">
<title>Node5</title>
<g id="a_Node000005"><a xlink:title=" ">
<polygon fill="#e0e0e0" stroke="#999999" points="170,-74 123,-74 123,-55 170,-55 170,-74"/>
<text text-anchor="middle" x="146.5" y="-62" font-family="Helvetica,sans-Serif" font-size="10.00">queue</text>
</a>
</g>
</g>
<!-- Node3&#45;&gt;Node5 -->
<g id="edge4_Node000003_Node000005" class="edge">
<title>Node3&#45;&gt;Node5</title>
<g id="a_edge4_Node000003_Node000005"><a xlink:title=" ">
<path fill="none" stroke="#63b8ff" d="M65.11,-170.47C79.64,-151.74 114.54,-106.72 133.58,-82.16"/>
<polygon fill="#63b8ff" stroke="#63b8ff" points="136.45,-84.18 139.81,-74.13 130.92,-79.89 136.45,-84.18"/>
</a>
</g>
</g>
<!-- Node7 -->
<g id="Node000007" class="node">
<title>Node7</title>
<g id="a_Node000007"><a xlink:title=" ">
<polygon fill="#e0e0e0" stroke="#999999" points="959.5,-129 891.5,-129 891.5,-110 959.5,-110 959.5,-129"/>
<text text-anchor="middle" x="925.5" y="-117" font-family="Helvetica,sans-Serif" font-size="10.00">filesystem</text>
</a>
</g>
</g>
<!-- Node6&#45;&gt;Node7 -->
<g id="edge6_Node000006_Node000007" class="edge">
<title>Node6&#45;&gt;Node7</title>
<g id="a_edge6_Node000006_Node000007"><a xlink:title=" ">
<path fill="none" stroke="#63b8ff" d="M754.6,-351.88C752.74,-329.94 750.46,-270.9 774.5,-231 803.08,-183.57 860.56,-150.31 895.77,-133.38"/>
<polygon fill="#63b8ff" stroke="#63b8ff" points="897.49,-136.44 905.07,-129.04 894.53,-130.1 897.49,-136.44"/>
</a>
</g>
</g>
<!-- Node8 -->
<g id="Node000008" class="node">
<title>Node8</title>
<g id="a_Node000008"><a xlink:href="_asset_8hpp.html" target="_top" xlink:title=" ">
<polygon fill="white" stroke="#666666" points="727,-310.5 590,-310.5 590,-291.5 727,-291.5 727,-310.5"/>
<text text-anchor="middle" x="658.5" y="-298.5" font-family="Helvetica,sans-Serif" font-size="10.00">AssetManager/Asset.hpp</text>
</a>
</g>
</g>
<!-- Node6&#45;&gt;Node8 -->
<g id="edge7_Node000006_Node000008" class="edge">
<title>Node6&#45;&gt;Node8</title>
<g id="a_edge7_Node000006_Node000008"><a xlink:title=" ">
<path fill="none" stroke="#63b8ff" d="M741.19,-351.87C725.5,-342.41 700.1,-327.09 681.59,-315.92"/>
<polygon fill="#63b8ff" stroke="#63b8ff" points="683.24,-312.83 672.87,-310.67 679.63,-318.83 683.24,-312.83"/>
</a>
</g>
</g>
<!-- Node9 -->
<g id="Node000009" class="node">
<title>Node9</title>
<g id="a_Node000009"><a xlink:href="_registry_8hpp.html" target="_top" xlink:title=" ">
<polygon fill="white" stroke="#666666" points="501.5,-250 403.5,-250 403.5,-231 501.5,-231 501.5,-250"/>
<text text-anchor="middle" x="452.5" y="-238" font-family="Helvetica,sans-Serif" font-size="10.00">ECS/Registry.hpp</text>
</a>
</g>
</g>
<!-- Node6&#45;&gt;Node9 -->
<g id="edge28_Node000006_Node000009" class="edge">
<title>Node6&#45;&gt;Node9</title>
<g id="a_edge28_Node000006_Node000009"><a xlink:title=" ">
<path fill="none" stroke="#63b8ff" d="M707.19,-351.98C671.39,-344.78 621.85,-332.9 580.5,-316 540.4,-299.61 497.64,-272.53 473.09,-255.92"/>
<polygon fill="#63b8ff" stroke="#63b8ff" points="474.85,-252.88 464.62,-250.12 470.89,-258.66 474.85,-252.88"/>
</a>
</g>
</g>
<!-- Node19 -->
<g id="Node000019" class="node">
<title>Node19</title>
<g id="a_Node000019"><a xlink:href="_types_8hpp.html" target="_top" xlink:title=" ">
<polygon fill="white" stroke="#666666" points="897,-250 784,-250 784,-231 897,-231 897,-250"/>
<text text-anchor="middle" x="840.5" y="-238" font-family="Helvetica,sans-Serif" font-size="10.00">Common/Types.hpp</text>
</a>
</g>
</g>
<!-- Node6&#45;&gt;Node19 -->
<g id="edge26_Node000006_Node000019" class="edge">
<title>Node6&#45;&gt;Node19</title>
<g id="a_edge26_Node000006_Node000019"><a xlink:title=" ">
<path fill="none" stroke="#63b8ff" d="M761.61,-351.94C775.51,-332.48 809.71,-284.6 828.19,-258.74"/>
<polygon fill="#63b8ff" stroke="#63b8ff" points="831.25,-260.47 834.21,-250.3 825.55,-256.4 831.25,-260.47"/>
</a>
</g>
</g>
<!-- Node20 -->
<g id="Node000020" class="node">
<title>Node20</title>
<g id="a_Node000020"><a xlink:href="_directory_component_8hpp.html" target="_top" xlink:title=" ">
<polygon fill="white" stroke="#666666" points="991.5,-316 821.5,-316 821.5,-286 991.5,-286 991.5,-316"/>
<text text-anchor="start" x="829.5" y="-304" font-family="Helvetica,sans-Serif" font-size="10.00">Components/AssetComponents</text>
<text text-anchor="middle" x="906.5" y="-293" font-family="Helvetica,sans-Serif" font-size="10.00">/DirectoryComponent.hpp</text>
</a>
</g>
</g>
<!-- Node6&#45;&gt;Node20 -->
<g id="edge29_Node000006_Node000020" class="edge">
<title>Node6&#45;&gt;Node20</title>
<g id="a_edge29_Node000006_Node000020"><a xlink:title=" ">
<path fill="none" stroke="#63b8ff" d="M777.46,-351.99C799.19,-343.57 833.11,-330.43 860.72,-319.73"/>
<polygon fill="#63b8ff" stroke="#63b8ff" points="862.14,-322.94 870.2,-316.06 859.61,-316.41 862.14,-322.94"/>
</a>
</g>
</g>
<!-- Node21 -->
<g id="Node000021" class="node">
<title>Node21</title>
<g id="a_Node000021"><a xlink:href="_asset_component_8hpp.html" target="_top" xlink:title=" ">
<polygon fill="white" stroke="#666666" points="1179.5,-316 1009.5,-316 1009.5,-286 1179.5,-286 1179.5,-316"/>
<text text-anchor="start" x="1017.5" y="-304" font-family="Helvetica,sans-Serif" font-size="10.00">Components/AssetComponents</text>
<text text-anchor="middle" x="1094.5" y="-293" font-family="Helvetica,sans-Serif" font-size="10.00">/AssetComponent.hpp</text>
</a>
</g>
</g>
<!-- Node6&#45;&gt;Node21 -->
<g id="edge31_Node000006_Node000021" class="edge">
<title>Node6&#45;&gt;Node21</title>
<g id="a_edge31_Node000006_Node000021"><a xlink:title=" ">
<path fill="none" stroke="#63b8ff" d="M804.79,-351.99C856.65,-343.04 939.43,-328.76 1003.25,-317.75"/>
<polygon fill="#63b8ff" stroke="#63b8ff" points="1004.07,-321.16 1013.33,-316.01 1002.88,-314.26 1004.07,-321.16"/>
</a>
</g>
</g>
<!-- Node8&#45;&gt;Node7 -->
<g id="edge8_Node000008_Node000007" class="edge">
<title>Node8&#45;&gt;Node7</title>
<g id="a_edge8_Node000008_Node000007"><a xlink:title=" ">
<path fill="none" stroke="#63b8ff" d="M661.16,-291.44C669.1,-267.39 694.98,-198.8 741.5,-165 782.71,-135.05 841.47,-125.06 881.43,-121.83"/>
<polygon fill="#63b8ff" stroke="#63b8ff" points="881.68,-125.32 891.41,-121.13 881.19,-118.34 881.68,-125.32"/>
</a>
</g>
</g>
<!-- Node8&#45;&gt;Node9 -->
<g id="edge9_Node000008_Node000009" class="edge">
<title>Node8&#45;&gt;Node9</title>
<g id="a_edge9_Node000008_Node000009"><a xlink:title=" ">
<path fill="none" stroke="#63b8ff" d="M628.55,-291.49C592.54,-281.27 532,-264.08 492.15,-252.76"/>
<polygon fill="#63b8ff" stroke="#63b8ff" points="493.07,-249.38 482.49,-250.02 491.15,-256.12 493.07,-249.38"/>
</a>
</g>
</g>
<!-- Node9&#45;&gt;Node3 -->
<g id="edge11_Node000009_Node000003" class="edge">
<title>Node9&#45;&gt;Node3</title>
<g id="a_edge11_Node000009_Node000003"><a xlink:title=" ">
<path fill="none" stroke="#63b8ff" d="M403.44,-232.84C320.19,-221.52 157.73,-199.33 131.5,-195 124.83,-193.9 117.83,-192.66 110.91,-191.39"/>
<polygon fill="#63b8ff" stroke="#63b8ff" points="111.37,-187.91 100.9,-189.51 110.08,-194.79 111.37,-187.91"/>
</a>
</g>
</g>
<!-- Node10 -->
<g id="Node000010" class="node">
<title>Node10</title>
<g id="a_Node000010"><a xlink:title=" ">
<polygon fill="#e0e0e0" stroke="#999999" points="654.5,-129 568.5,-129 568.5,-110 654.5,-110 654.5,-129"/>
<text text-anchor="middle" x="611.5" y="-117" font-family="Helvetica,sans-Serif" font-size="10.00">unordered_set</text>
</a>
</g>
</g>
<!-- Node9&#45;&gt;Node10 -->
<g id="edge10_Node000009_Node000010" class="edge">
<title>Node9&#45;&gt;Node10</title>
<g id="a_edge10_Node000009_Node000010"><a xlink:title=" ">
<path fill="none" stroke="#63b8ff" d="M458.51,-230.66C469.13,-215.57 492.56,-184.56 518.5,-165 536.43,-151.48 559.12,-140.53 577.6,-132.87"/>
<polygon fill="#63b8ff" stroke="#63b8ff" points="579.12,-136.03 587.1,-129.06 576.52,-129.53 579.12,-136.03"/>
</a>
</g>
</g>
<!-- Node11 -->
<g id="Node000011" class="node">
<title>Node11</title>
<g id="a_Node000011"><a xlink:href="_entity_8hpp.html" target="_top" xlink:title=" ">
<polygon fill="white" stroke="#666666" points="345.5,-74 259.5,-74 259.5,-55 345.5,-55 345.5,-74"/>
<text text-anchor="middle" x="302.5" y="-62" font-family="Helvetica,sans-Serif" font-size="10.00">ECS/Entity.hpp</text>
</a>
</g>
</g>
<!-- Node9&#45;&gt;Node11 -->
<g id="edge12_Node000009_Node000011" class="edge">
<title>Node9&#45;&gt;Node11</title>
<g id="a_edge12_Node000009_Node000011"><a xlink:title=" ">
<path fill="none" stroke="#63b8ff" d="M403.31,-233.54C377.43,-227.85 347.26,-216.73 328.5,-195 301.49,-163.71 299.63,-112.28 300.89,-84.59"/>
<polygon fill="#63b8ff" stroke="#63b8ff" points="304.4,-84.5 301.56,-74.3 297.41,-84.05 304.4,-84.5"/>
</a>
</g>
</g>
<!-- Node13 -->
<g id="Node000013" class="node">
<title>Node13</title>
<g id="a_Node000013"><a xlink:href="_entity_hierarchy_8hpp.html" target="_top" xlink:title=" ">
<polygon fill="white" stroke="#666666" points="471.5,-189.5 337.5,-189.5 337.5,-170.5 471.5,-170.5 471.5,-189.5"/>
<text text-anchor="middle" x="404.5" y="-177.5" font-family="Helvetica,sans-Serif" font-size="10.00">ECS/EntityHierarchy.hpp</text>
</a>
</g>
</g>
<!-- Node9&#45;&gt;Node13 -->
<g id="edge14_Node000009_Node000013" class="edge">
<title>Node9&#45;&gt;Node13</title>
<g id="a_edge14_Node000009_Node000013"><a xlink:title=" ">
<path fill="none" stroke="#63b8ff" d="M445.42,-230.87C438.26,-222.14 427.01,-208.43 418.11,-197.59"/>
<polygon fill="#63b8ff" stroke="#63b8ff" points="420.66,-195.18 411.61,-189.67 415.25,-199.62 420.66,-195.18"/>
</a>
</g>
</g>
<!-- Node16 -->
<g id="Node000016" class="node">
<title>Node16</title>
<g id="a_Node000016"><a xlink:href="_entity_provider_8hpp.html" target="_top" xlink:title="Manages a pool of unused entity identifiers and provides mechanisms for requesting and removing them.">
<polygon fill="white" stroke="#666666" points="279.5,-129 151.5,-129 151.5,-110 279.5,-110 279.5,-129"/>
<text text-anchor="middle" x="215.5" y="-117" font-family="Helvetica,sans-Serif" font-size="10.00">ECS/EntityProvider.hpp</text>
</a>
</g>
</g>
<!-- Node9&#45;&gt;Node16 -->
<g id="edge19_Node000009_Node000016" class="edge">
<title>Node9&#45;&gt;Node16</title>
<g id="a_edge19_Node000009_Node000016"><a xlink:title=" ">
<path fill="none" stroke="#63b8ff" d="M403.48,-232.75C322.28,-221.45 168.37,-199.52 164.5,-195 147.9,-175.63 173.02,-150.78 193.52,-135.24"/>
<polygon fill="#63b8ff" stroke="#63b8ff" points="195.83,-137.89 201.89,-129.2 191.73,-132.22 195.83,-137.89"/>
</a>
</g>
</g>
<!-- Node17 -->
<g id="Node000017" class="node">
<title>Node17</title>
<g id="a_Node000017"><a xlink:href="_sparse_set_8hpp.html" target="_top" xlink:title=" ">
<polygon fill="white" stroke="#666666" points="281.5,-189.5 173.5,-189.5 173.5,-170.5 281.5,-170.5 281.5,-189.5"/>
<text text-anchor="middle" x="227.5" y="-177.5" font-family="Helvetica,sans-Serif" font-size="10.00">ECS/SparseSet.hpp</text>
</a>
</g>
</g>
<!-- Node9&#45;&gt;Node17 -->
<g id="edge23_Node000009_Node000017" class="edge">
<title>Node9&#45;&gt;Node17</title>
<g id="a_edge23_Node000009_Node000017"><a xlink:title=" ">
<path fill="none" stroke="#63b8ff" d="M419.78,-230.99C380.21,-220.7 313.49,-203.36 269.98,-192.04"/>
<polygon fill="#63b8ff" stroke="#63b8ff" points="270.82,-188.65 260.26,-189.52 269.05,-195.42 270.82,-188.65"/>
</a>
</g>
</g>
<!-- Node18 -->
<g id="Node000018" class="node">
<title>Node18</title>
<g id="a_Node000018"><a xlink:href="_singleton_component_8hpp.html" target="_top" xlink:title=" ">
<polygon fill="white" stroke="#666666" points="689,-189.5 528,-189.5 528,-170.5 689,-170.5 689,-189.5"/>
<text text-anchor="middle" x="608.5" y="-177.5" font-family="Helvetica,sans-Serif" font-size="10.00">ECS/SingletonComponent.hpp</text>
</a>
</g>
</g>
<!-- Node9&#45;&gt;Node18 -->
<g id="edge25_Node000009_Node000018" class="edge">
<title>Node9&#45;&gt;Node18</title>
<g id="a_edge25_Node000009_Node000018"><a xlink:title=" ">
<path fill="none" stroke="#63b8ff" d="M475.18,-230.99C501.76,-221.03 545.98,-204.45 576.14,-193.13"/>
<polygon fill="#63b8ff" stroke="#63b8ff" points="577.65,-196.31 585.79,-189.52 575.2,-189.75 577.65,-196.31"/>
</a>
</g>
</g>
<!-- Node12 -->
<g id="Node000012" class="node">
<title>Node12</title>
<g id="a_Node000012"><a xlink:title=" ">
<polygon fill="#e0e0e0" stroke="#999999" points="289,-19 236,-19 236,0 289,0 289,-19"/>
<text text-anchor="middle" x="262.5" y="-7" font-family="Helvetica,sans-Serif" font-size="10.00">stdlib.h</text>
</a>
</g>
</g>
<!-- Node11&#45;&gt;Node12 -->
<g id="edge13_Node000011_Node000012" class="edge">
<title>Node11&#45;&gt;Node12</title>
<g id="a_edge13_Node000011_Node000012"><a xlink:title=" ">
<path fill="none" stroke="#63b8ff" d="M295.89,-54.75C290.24,-47.26 281.96,-36.28 275.05,-27.13"/>
<polygon fill="#63b8ff" stroke="#63b8ff" points="277.8,-24.96 268.98,-19.09 272.21,-29.18 277.8,-24.96"/>
</a>
</g>
</g>
<!-- Node13&#45;&gt;Node10 -->
<g id="edge16_Node000013_Node000010" class="edge">
<title>Node13&#45;&gt;Node10</title>
<g id="a_edge16_Node000013_Node000010"><a xlink:title=" ">
<path fill="none" stroke="#63b8ff" d="M434.6,-170.49C470.78,-160.27 531.61,-143.08 571.66,-131.76"/>
<polygon fill="#63b8ff" stroke="#63b8ff" points="572.69,-135.1 581.36,-129.02 570.79,-128.37 572.69,-135.1"/>
</a>
</g>
</g>
<!-- Node13&#45;&gt;Node11 -->
<g id="edge18_Node000013_Node000011" class="edge">
<title>Node13&#45;&gt;Node11</title>
<g id="a_edge18_Node000013_Node000011"><a xlink:title=" ">
<path fill="none" stroke="#63b8ff" d="M396.83,-170.47C379.92,-151.65 339.19,-106.32 317.19,-81.84"/>
<polygon fill="#63b8ff" stroke="#63b8ff" points="319.54,-79.23 310.26,-74.13 314.34,-83.91 319.54,-79.23"/>
</a>
</g>
</g>
<!-- Node14 -->
<g id="Node000014" class="node">
<title>Node14</title>
<g id="a_Node000014"><a xlink:title=" ">
<polygon fill="#e0e0e0" stroke="#999999" points="439,-129 374,-129 374,-110 439,-110 439,-129"/>
<text text-anchor="middle" x="406.5" y="-117" font-family="Helvetica,sans-Serif" font-size="10.00">functional</text>
</a>
</g>
</g>
<!-- Node13&#45;&gt;Node14 -->
<g id="edge15_Node000013_Node000014" class="edge">
<title>Node13&#45;&gt;Node14</title>
<g id="a_edge15_Node000013_Node000014"><a xlink:title=" ">
<path fill="none" stroke="#63b8ff" d="M404.8,-170.37C405.07,-162.25 405.5,-149.81 405.85,-139.39"/>
<polygon fill="#63b8ff" stroke="#63b8ff" points="409.36,-139.28 406.2,-129.17 402.36,-139.04 409.36,-139.28"/>
</a>
</g>
</g>
<!-- Node15 -->
<g id="Node000015" class="node">
<title>Node15</title>
<g id="a_Node000015"><a xlink:title=" ">
<polygon fill="#e0e0e0" stroke="#999999" points="550,-129 457,-129 457,-110 550,-110 550,-129"/>
<text text-anchor="middle" x="503.5" y="-117" font-family="Helvetica,sans-Serif" font-size="10.00">unordered_map</text>
</a>
</g>
</g>
<!-- Node13&#45;&gt;Node15 -->
<g id="edge17_Node000013_Node000015" class="edge">
<title>Node13&#45;&gt;Node15</title>
<g id="a_edge17_Node000013_Node000015"><a xlink:title=" ">
<path fill="none" stroke="#63b8ff" d="M419.11,-170.37C435.19,-160.86 461.28,-145.45 480.2,-134.27"/>
<polygon fill="#63b8ff" stroke="#63b8ff" points="482,-137.27 488.83,-129.17 478.44,-131.24 482,-137.27"/>
</a>
</g>
</g>
<!-- Node16&#45;&gt;Node5 -->
<g id="edge21_Node000016_Node000005" class="edge">
<title>Node16&#45;&gt;Node5</title>
<g id="a_edge21_Node000016_Node000005"><a xlink:title=" ">
<path fill="none" stroke="#63b8ff" d="M204.41,-109.98C194.01,-102 178.24,-89.88 165.78,-80.31"/>
<polygon fill="#63b8ff" stroke="#63b8ff" points="167.85,-77.49 157.79,-74.17 163.59,-83.04 167.85,-77.49"/>
</a>
</g>
</g>
<!-- Node16&#45;&gt;Node11 -->
<g id="edge22_Node000016_Node000011" class="edge">
<title>Node16&#45;&gt;Node11</title>
<g id="a_edge22_Node000016_Node000011"><a xlink:title=" ">
<path fill="none" stroke="#63b8ff" d="M229.48,-109.98C242.97,-101.77 263.63,-89.18 279.54,-79.49"/>
<polygon fill="#63b8ff" stroke="#63b8ff" points="281.55,-82.36 288.27,-74.17 277.91,-76.38 281.55,-82.36"/>
</a>
</g>
</g>
<!-- Node16&#45;&gt;Node12 -->
<g id="edge20_Node000016_Node000012" class="edge">
<title>Node16&#45;&gt;Node12</title>
<g id="a_edge20_Node000016_Node000012"><a xlink:title=" ">
<path fill="none" stroke="#63b8ff" d="M219.35,-109.66C227.03,-92.01 244.4,-52.09 254.61,-28.64"/>
<polygon fill="#63b8ff" stroke="#63b8ff" points="257.95,-29.72 258.73,-19.16 251.53,-26.93 257.95,-29.72"/>
</a>
</g>
</g>
<!-- Node17&#45;&gt;Node16 -->
<g id="edge24_Node000017_Node000016" class="edge">
<title>Node17&#45;&gt;Node16</title>
<g id="a_edge24_Node000017_Node000016"><a xlink:title=" ">
<path fill="none" stroke="#63b8ff" d="M225.73,-170.37C224.05,-162.16 221.46,-149.54 219.31,-139.05"/>
<polygon fill="#63b8ff" stroke="#63b8ff" points="222.72,-138.26 217.28,-129.17 215.86,-139.67 222.72,-138.26"/>
</a>
</g>
</g>
<!-- Node19&#45;&gt;Node7 -->
<g id="edge27_Node000019_Node000007" class="edge">
<title>Node19&#45;&gt;Node7</title>
<g id="a_edge27_Node000019_Node000007"><a xlink:title=" ">
<path fill="none" stroke="#63b8ff" d="M846.61,-230.94C860.51,-211.48 894.71,-163.6 913.19,-137.74"/>
<polygon fill="#63b8ff" stroke="#63b8ff" points="916.25,-139.47 919.21,-129.3 910.55,-135.4 916.25,-139.47"/>
</a>
</g>
</g>
<!-- Node20&#45;&gt;Node7 -->
<g id="edge30_Node000020_Node000007" class="edge">
<title>Node20&#45;&gt;Node7</title>
<g id="a_edge30_Node000020_Node000007"><a xlink:title=" ">
<path fill="none" stroke="#63b8ff" d="M907.99,-285.91C911.39,-253.85 919.69,-175.38 923.51,-139.26"/>
<polygon fill="#63b8ff" stroke="#63b8ff" points="927.01,-139.45 924.59,-129.13 920.05,-138.71 927.01,-139.45"/>
</a>
</g>
</g>
<!-- Node21&#45;&gt;Node7 -->
<g id="edge32_Node000021_Node000007" class="edge">
<title>Node21&#45;&gt;Node7</title>
<g id="a_edge32_Node000021_Node000007"><a xlink:title=" ">
<path fill="none" stroke="#63b8ff" d="M1049.56,-285.9C1029.58,-277.88 1006.93,-266.15 990.5,-250 958.02,-218.07 938.97,-166.53 930.6,-139.09"/>
<polygon fill="#63b8ff" stroke="#63b8ff" points="933.89,-137.86 927.74,-129.23 927.17,-139.81 933.89,-137.86"/>
</a>
</g>
</g>
<!-- Node22 -->
<g id="Node000022" class="node">
<title>Node22</title>
<g id="a_Node000022"><a xlink:href="_shader_8hpp.html" target="_top" xlink:title=" ">
<polygon fill="white" stroke="#666666" points="1143,-250 1000,-250 1000,-231 1143,-231 1143,-250"/>
<text text-anchor="middle" x="1071.5" y="-238" font-family="Helvetica,sans-Serif" font-size="10.00">AssetManager/Shader.hpp</text>
</a>
</g>
</g>
<!-- Node21&#45;&gt;Node22 -->
<g id="edge33_Node000021_Node000022" class="edge">
<title>Node21&#45;&gt;Node22</title>
<g id="a_edge33_Node000021_Node000022"><a xlink:title=" ">
<path fill="none" stroke="#63b8ff" d="M1088.93,-285.84C1085.83,-277.95 1081.94,-268.05 1078.62,-259.61"/>
<polygon fill="#63b8ff" stroke="#63b8ff" points="1081.86,-258.29 1074.95,-250.27 1075.35,-260.85 1081.86,-258.29"/>
</a>
</g>
</g>
<!-- Node23 -->
<g id="Node000023" class="node">
<title>Node23</title>
<g id="a_Node000023"><a xlink:href="_path_constructible_asset_8hpp.html" target="_top" xlink:title=" ">
<polygon fill="white" stroke="#666666" points="1256,-195 1081,-195 1081,-165 1256,-165 1256,-195"/>
<text text-anchor="start" x="1089" y="-183" font-family="Helvetica,sans-Serif" font-size="10.00">AssetManager/PathConstructible</text>
<text text-anchor="middle" x="1168.5" y="-172" font-family="Helvetica,sans-Serif" font-size="10.00">Asset.hpp</text>
</a>
</g>
</g>
<!-- Node22&#45;&gt;Node23 -->
<g id="edge34_Node000022_Node000023" class="edge">
<title>Node22&#45;&gt;Node23</title>
<g id="a_edge34_Node000022_Node000023"><a xlink:title=" ">
<path fill="none" stroke="#63b8ff" d="M1085.81,-230.87C1099.1,-222.86 1119.34,-210.65 1136.47,-200.31"/>
<polygon fill="#63b8ff" stroke="#63b8ff" points="1138.34,-203.28 1145.1,-195.11 1134.73,-197.28 1138.34,-203.28"/>
</a>
</g>
</g>
<!-- Node31 -->
<g id="Node000031" class="node">
<title>Node31</title>
<g id="a_Node000031"><a xlink:title=" ">
<polygon fill="#e0e0e0" stroke="#999999" points="1063,-189.5 992,-189.5 992,-170.5 1063,-170.5 1063,-189.5"/>
<text text-anchor="middle" x="1027.5" y="-177.5" font-family="Helvetica,sans-Serif" font-size="10.00">glad/glad.h</text>
</a>
</g>
</g>
<!-- Node22&#45;&gt;Node31 -->
<g id="edge44_Node000022_Node000031" class="edge">
<title>Node22&#45;&gt;Node31</title>
<g id="a_edge44_Node000022_Node000031"><a xlink:title=" ">
<path fill="none" stroke="#63b8ff" d="M1065.01,-230.87C1058.51,-222.23 1048.34,-208.7 1040.22,-197.92"/>
<polygon fill="#63b8ff" stroke="#63b8ff" points="1042.83,-195.56 1034.02,-189.67 1037.23,-199.76 1042.83,-195.56"/>
</a>
</g>
</g>
<!-- Node23&#45;&gt;Node7 -->
<g id="edge35_Node000023_Node000007" class="edge">
<title>Node23&#45;&gt;Node7</title>
<g id="a_edge35_Node000023_Node000007"><a xlink:title=" ">
<path fill="none" stroke="#63b8ff" d="M1110.3,-164.99C1067.03,-154.57 1008.89,-140.58 969.47,-131.09"/>
<polygon fill="#63b8ff" stroke="#63b8ff" points="970.16,-127.65 959.62,-128.71 968.52,-134.46 970.16,-127.65"/>
</a>
</g>
</g>
<!-- Node24 -->
<g id="Node000024" class="node">
<title>Node24</title>
<g id="a_Node000024"><a xlink:href="_instance_counter_8hpp.html" target="_top" xlink:title=" ">
<polygon fill="white" stroke="#666666" points="1195.5,-129 1031.5,-129 1031.5,-110 1195.5,-110 1195.5,-129"/>
<text text-anchor="middle" x="1113.5" y="-117" font-family="Helvetica,sans-Serif" font-size="10.00">Common/InstanceCounter.hpp</text>
</a>
</g>
</g>
<!-- Node23&#45;&gt;Node24 -->
<g id="edge36_Node000023_Node000024" class="edge">
<title>Node23&#45;&gt;Node24</title>
<g id="a_edge36_Node000023_Node000024"><a xlink:title=" ">
<path fill="none" stroke="#63b8ff" d="M1155.19,-164.84C1147.2,-156.35 1137.02,-145.52 1128.72,-136.69"/>
<polygon fill="#63b8ff" stroke="#63b8ff" points="1131.14,-134.15 1121.74,-129.27 1126.04,-138.95 1131.14,-134.15"/>
</a>
</g>
</g>
<!-- Node25 -->
<g id="Node000025" class="node">
<title>Node25</title>
<g id="a_Node000025"><a xlink:title=" ">
<polygon fill="#e0e0e0" stroke="#999999" points="1035.5,-74 985.5,-74 985.5,-55 1035.5,-55 1035.5,-74"/>
<text text-anchor="middle" x="1010.5" y="-62" font-family="Helvetica,sans-Serif" font-size="10.00">atomic</text>
</a>
</g>
</g>
<!-- Node24&#45;&gt;Node25 -->
<g id="edge37_Node000024_Node000025" class="edge">
<title>Node24&#45;&gt;Node25</title>
<g id="a_edge37_Node000024_Node000025"><a xlink:title=" ">
<path fill="none" stroke="#63b8ff" d="M1096.95,-109.98C1080.61,-101.57 1055.37,-88.59 1036.37,-78.81"/>
<polygon fill="#63b8ff" stroke="#63b8ff" points="1037.84,-75.63 1027.35,-74.17 1034.64,-81.86 1037.84,-75.63"/>
</a>
</g>
</g>
<!-- Node26 -->
<g id="Node000026" class="node">
<title>Node26</title>
<g id="a_Node000026"><a xlink:href="_profiler_8hpp.html" target="_top" xlink:title=" ">
<polygon fill="white" stroke="#666666" points="1173,-74 1054,-74 1054,-55 1173,-55 1173,-74"/>
<text text-anchor="middle" x="1113.5" y="-62" font-family="Helvetica,sans-Serif" font-size="10.00">Common/Profiler.hpp</text>
</a>
</g>
</g>
<!-- Node24&#45;&gt;Node26 -->
<g id="edge38_Node000024_Node000026" class="edge">
<title>Node24&#45;&gt;Node26</title>
<g id="a_edge38_Node000024_Node000026"><a xlink:title=" ">
<path fill="none" stroke="#63b8ff" d="M1113.5,-109.75C1113.5,-102.8 1113.5,-92.85 1113.5,-84.13"/>
<polygon fill="#63b8ff" stroke="#63b8ff" points="1117,-84.09 1113.5,-74.09 1110,-84.09 1117,-84.09"/>
</a>
</g>
</g>
<!-- Node26&#45;&gt;Node4 -->
<g id="edge41_Node000026_Node000004" class="edge">
<title>Node26&#45;&gt;Node4</title>
<g id="a_edge41_Node000026_Node000004"><a xlink:title=" ">
<path fill="none" stroke="#63b8ff" d="M1053.9,-55.62C968.78,-44.37 815.16,-24.07 746.85,-15.04"/>
<polygon fill="#63b8ff" stroke="#63b8ff" points="747.02,-11.53 736.65,-13.69 746.1,-18.47 747.02,-11.53"/>
</a>
</g>
</g>
<!-- Node27 -->
<g id="Node000027" class="node">
<title>Node27</title>
<g id="a_Node000027"><a xlink:title=" ">
<polygon fill="#e0e0e0" stroke="#999999" points="1170.5,-19 1120.5,-19 1120.5,0 1170.5,0 1170.5,-19"/>
<text text-anchor="middle" x="1145.5" y="-7" font-family="Helvetica,sans-Serif" font-size="10.00">chrono</text>
</a>
</g>
</g>
<!-- Node26&#45;&gt;Node27 -->
<g id="edge39_Node000026_Node000027" class="edge">
<title>Node26&#45;&gt;Node27</title>
<g id="a_edge39_Node000026_Node000027"><a xlink:title=" ">
<path fill="none" stroke="#63b8ff" d="M1118.78,-54.75C1123.21,-47.42 1129.66,-36.73 1135.12,-27.7"/>
<polygon fill="#63b8ff" stroke="#63b8ff" points="1138.14,-29.46 1140.31,-19.09 1132.15,-25.84 1138.14,-29.46"/>
</a>
</g>
</g>
<!-- Node28 -->
<g id="Node000028" class="node">
<title>Node28</title>
<g id="a_Node000028"><a xlink:title=" ">
<polygon fill="#e0e0e0" stroke="#999999" points="1236.5,-19 1188.5,-19 1188.5,0 1236.5,0 1236.5,-19"/>
<text text-anchor="middle" x="1212.5" y="-7" font-family="Helvetica,sans-Serif" font-size="10.00">thread</text>
</a>
</g>
</g>
<!-- Node26&#45;&gt;Node28 -->
<g id="edge40_Node000026_Node000028" class="edge">
<title>Node26&#45;&gt;Node28</title>
<g id="a_edge40_Node000026_Node000028"><a xlink:title=" ">
<path fill="none" stroke="#63b8ff" d="M1129.41,-54.98C1145.05,-46.61 1169.16,-33.7 1187.38,-23.95"/>
<polygon fill="#63b8ff" stroke="#63b8ff" points="1189.14,-26.98 1196.3,-19.17 1185.84,-20.8 1189.14,-26.98"/>
</a>
</g>
</g>
<!-- Node29 -->
<g id="Node000029" class="node">
<title>Node29</title>
<g id="a_Node000029"><a xlink:title=" ">
<polygon fill="#e0e0e0" stroke="#999999" points="1040.5,-19 1002.5,-19 1002.5,0 1040.5,0 1040.5,-19"/>
<text text-anchor="middle" x="1021.5" y="-7" font-family="Helvetica,sans-Serif" font-size="10.00">map</text>
</a>
</g>
</g>
<!-- Node26&#45;&gt;Node29 -->
<g id="edge42_Node000026_Node000029" class="edge">
<title>Node26&#45;&gt;Node29</title>
<g id="a_edge42_Node000026_Node000029"><a xlink:title=" ">
<path fill="none" stroke="#63b8ff" d="M1098.72,-54.98C1084.32,-46.69 1062.19,-33.94 1045.31,-24.22"/>
<polygon fill="#63b8ff" stroke="#63b8ff" points="1046.96,-21.13 1036.55,-19.17 1043.47,-27.19 1046.96,-21.13"/>
</a>
</g>
</g>
<!-- Node30 -->
<g id="Node000030" class="node">
<title>Node30</title>
<g id="a_Node000030"><a xlink:title=" ">
<polygon fill="#e0e0e0" stroke="#999999" points="1102.5,-19 1058.5,-19 1058.5,0 1102.5,0 1102.5,-19"/>
<text text-anchor="middle" x="1080.5" y="-7" font-family="Helvetica,sans-Serif" font-size="10.00">string</text>
</a>
</g>
</g>
<!-- Node26&#45;&gt;Node30 -->
<g id="edge43_Node000026_Node000030" class="edge">
<title>Node26&#45;&gt;Node30</title>
<g id="a_edge43_Node000026_Node000030"><a xlink:title=" ">
<path fill="none" stroke="#63b8ff" d="M1108.05,-54.75C1103.49,-47.42 1096.83,-36.73 1091.21,-27.7"/>
<polygon fill="#63b8ff" stroke="#63b8ff" points="1094.1,-25.73 1085.85,-19.09 1088.16,-29.43 1094.1,-25.73"/>
</a>
</g>
</g>
<!-- Node32&#45;&gt;Node31 -->
<g id="edge46_Node000032_Node000031" class="edge">
<title>Node32&#45;&gt;Node31</title>
<g id="a_edge46_Node000032_Node000031"><a xlink:title=" ">
<path fill="none" stroke="#63b8ff" d="M1257.28,-291.5C1235.67,-277.79 1191.2,-250.39 1151.5,-231 1121.67,-216.43 1086.47,-202.53 1061.21,-193.11"/>
<polygon fill="#63b8ff" stroke="#63b8ff" points="1062.3,-189.78 1051.71,-189.6 1059.88,-196.35 1062.3,-189.78"/>
</a>
</g>
</g>
<!-- Node33 -->
<g id="Node000033" class="node">
<title>Node33</title>
<g id="a_Node000033"><a xlink:title=" ">
<polygon fill="#e0e0e0" stroke="#999999" points="1437.5,-250 1359.5,-250 1359.5,-231 1437.5,-231 1437.5,-250"/>
<text text-anchor="middle" x="1398.5" y="-238" font-family="Helvetica,sans-Serif" font-size="10.00">glm/glm.hpp</text>
</a>
</g>
</g>
<!-- Node32&#45;&gt;Node33 -->
<g id="edge47_Node000032_Node000033" class="edge">
<title>Node32&#45;&gt;Node33</title>
<g id="a_edge47_Node000032_Node000033"><a xlink:title=" ">
<path fill="none" stroke="#63b8ff" d="M1289.11,-291.49C1310.54,-281.7 1345.94,-265.52 1370.65,-254.23"/>
<polygon fill="#63b8ff" stroke="#63b8ff" points="1372.22,-257.36 1379.87,-250.02 1369.32,-250.99 1372.22,-257.36"/>
</a>
</g>
</g>
<!-- Node34 -->
<g id="Node000034" class="node">
<title>Node34</title>
<g id="a_Node000034"><a xlink:href="_image_8hpp.html" target="_top" xlink:title=" ">
<polygon fill="white" stroke="#666666" points="1341,-250 1200,-250 1200,-231 1341,-231 1341,-250"/>
<text text-anchor="middle" x="1270.5" y="-238" font-family="Helvetica,sans-Serif" font-size="10.00">AssetManager/Image.hpp</text>
</a>
</g>
</g>
<!-- Node32&#45;&gt;Node34 -->
<g id="edge48_Node000032_Node000034" class="edge">
<title>Node32&#45;&gt;Node34</title>
<g id="a_edge48_Node000032_Node000034"><a xlink:title=" ">
<path fill="none" stroke="#63b8ff" d="M1270.5,-291.37C1270.5,-283.25 1270.5,-270.81 1270.5,-260.39"/>
<polygon fill="#63b8ff" stroke="#63b8ff" points="1274,-260.17 1270.5,-250.17 1267,-260.17 1274,-260.17"/>
</a>
</g>
</g>
<!-- Node34&#45;&gt;Node7 -->
<g id="edge49_Node000034_Node000007" class="edge">
<title>Node34&#45;&gt;Node7</title>
<g id="a_edge49_Node000034_Node000007"><a xlink:title=" ">
<path fill="none" stroke="#63b8ff" d="M1272.9,-230.76C1276.57,-215.25 1281.49,-182.86 1264.5,-165 1254.43,-154.41 1059.2,-133.78 969.68,-124.82"/>
<polygon fill="#63b8ff" stroke="#63b8ff" points="969.86,-121.32 959.56,-123.81 969.16,-128.29 969.86,-121.32"/>
</a>
</g>
</g>
<!-- Node34&#45;&gt;Node23 -->
<g id="edge50_Node000034_Node000023" class="edge">
<title>Node34&#45;&gt;Node23</title>
<g id="a_edge50_Node000034_Node000023"><a xlink:title=" ">
<path fill="none" stroke="#63b8ff" d="M1255.45,-230.87C1241.48,-222.86 1220.19,-210.65 1202.18,-200.31"/>
<polygon fill="#63b8ff" stroke="#63b8ff" points="1203.53,-197.05 1193.11,-195.11 1200.04,-203.13 1203.53,-197.05"/>
</a>
</g>
</g>
</g>
</svg>
