<?xml version="1.0" encoding="UTF-8" standalone="no"?>
<!DOCTYPE svg PUBLIC "-//W3C//DTD SVG 1.1//EN"
 "http://www.w3.org/Graphics/SVG/1.1/DTD/svg11.dtd">
<!-- Generated by graphviz version 2.43.0 (0)
 -->
<!-- Title: src/Rendering/Texture.cpp Pages: 1 -->
<svg width="467pt" height="252pt"
 viewBox="0.00 0.00 467.00 252.00" xmlns="http://www.w3.org/2000/svg" xmlns:xlink="http://www.w3.org/1999/xlink">
<g id="graph0" class="graph" transform="scale(1 1) rotate(0) translate(4 248)">
<title>src/Rendering/Texture.cpp</title>
<polygon fill="white" stroke="transparent" points="-4,4 -4,-248 463,-248 463,4 -4,4"/>
<!-- Node1 -->
<g id="node1" class="node">
<title>Node1</title>
<g id="a_node1"><a xlink:title=" ">
<polygon fill="#bfbfbf" stroke="black" points="88,-224.5 88,-243.5 231,-243.5 231,-224.5 88,-224.5"/>
<text text-anchor="middle" x="159.5" y="-231.5" font-family="Helvetica,sans-Serif" font-size="10.00">src/Rendering/Texture.cpp</text>
</a>
</g>
</g>
<!-- Node2 -->
<g id="node2" class="node">
<title>Node2</title>
<g id="a_node2"><a xlink:title=" ">
<polygon fill="white" stroke="#bfbfbf" points="18.5,-168.5 18.5,-187.5 78.5,-187.5 78.5,-168.5 18.5,-168.5"/>
<text text-anchor="middle" x="48.5" y="-175.5" font-family="Helvetica,sans-Serif" font-size="10.00">iostream</text>
</a>
</g>
</g>
<!-- Node1&#45;&gt;Node2 -->
<g id="edge1" class="edge">
<title>Node1&#45;&gt;Node2</title>
<path fill="none" stroke="midnightblue" d="M141.67,-224.32C123.78,-215.62 96.02,-202.12 75.45,-192.11"/>
<polygon fill="midnightblue" stroke="midnightblue" points="76.81,-188.88 66.29,-187.65 73.75,-195.18 76.81,-188.88"/>
</g>
<!-- Node3 -->
<g id="node3" class="node">
<title>Node3</title>
<g id="a_node3"><a xlink:href="_texture_8hpp.html" target="_top" xlink:title=" ">
<polygon fill="white" stroke="black" points="96.5,-168.5 96.5,-187.5 222.5,-187.5 222.5,-168.5 96.5,-168.5"/>
<text text-anchor="middle" x="159.5" y="-175.5" font-family="Helvetica,sans-Serif" font-size="10.00">Rendering/Texture.hpp</text>
</a>
</g>
</g>
<!-- Node1&#45;&gt;Node3 -->
<g id="edge2" class="edge">
<title>Node1&#45;&gt;Node3</title>
<path fill="none" stroke="midnightblue" d="M159.5,-224.08C159.5,-217.01 159.5,-206.86 159.5,-197.99"/>
<polygon fill="midnightblue" stroke="midnightblue" points="163,-197.75 159.5,-187.75 156,-197.75 163,-197.75"/>
</g>
<!-- Node8 -->
<g id="node8" class="node">
<title>Node8</title>
<g id="a_node8"><a xlink:href="_asset_manager_8hpp.html" target="_top" xlink:title=" ">
<polygon fill="white" stroke="black" points="248,-112.5 248,-131.5 427,-131.5 427,-112.5 248,-112.5"/>
<text text-anchor="middle" x="337.5" y="-119.5" font-family="Helvetica,sans-Serif" font-size="10.00">AssetManager/AssetManager.hpp</text>
</a>
</g>
</g>
<!-- Node1&#45;&gt;Node8 -->
<g id="edge8" class="edge">
<title>Node1&#45;&gt;Node8</title>
<path fill="none" stroke="midnightblue" d="M173.47,-224.37C204.14,-205.41 277.63,-160 314.94,-136.94"/>
<polygon fill="midnightblue" stroke="midnightblue" points="316.93,-139.83 323.6,-131.59 313.25,-133.87 316.93,-139.83"/>
</g>
<!-- Node4 -->
<g id="node4" class="node">
<title>Node4</title>
<g id="a_node4"><a xlink:title=" ">
<polygon fill="white" stroke="#bfbfbf" points="0,-112.5 0,-131.5 71,-131.5 71,-112.5 0,-112.5"/>
<text text-anchor="middle" x="35.5" y="-119.5" font-family="Helvetica,sans-Serif" font-size="10.00">glad/glad.h</text>
</a>
</g>
</g>
<!-- Node3&#45;&gt;Node4 -->
<g id="edge3" class="edge">
<title>Node3&#45;&gt;Node4</title>
<path fill="none" stroke="midnightblue" d="M139.85,-168.44C119.54,-159.6 87.6,-145.69 64.4,-135.59"/>
<polygon fill="midnightblue" stroke="midnightblue" points="65.62,-132.3 55.06,-131.52 62.83,-138.72 65.62,-132.3"/>
</g>
<!-- Node5 -->
<g id="node5" class="node">
<title>Node5</title>
<g id="a_node5"><a xlink:href="_image_8hpp.html" target="_top" xlink:title=" ">
<polygon fill="white" stroke="black" points="89,-112.5 89,-131.5 230,-131.5 230,-112.5 89,-112.5"/>
<text text-anchor="middle" x="159.5" y="-119.5" font-family="Helvetica,sans-Serif" font-size="10.00">AssetManager/Image.hpp</text>
</a>
</g>
</g>
<!-- Node3&#45;&gt;Node5 -->
<g id="edge4" class="edge">
<title>Node3&#45;&gt;Node5</title>
<path fill="none" stroke="midnightblue" d="M159.5,-168.08C159.5,-161.01 159.5,-150.86 159.5,-141.99"/>
<polygon fill="midnightblue" stroke="midnightblue" points="163,-141.75 159.5,-131.75 156,-141.75 163,-141.75"/>
</g>
<!-- Node6 -->
<g id="node6" class="node">
<title>Node6</title>
<g id="a_node6"><a xlink:title=" ">
<polygon fill="white" stroke="#bfbfbf" points="206.5,-0.5 206.5,-19.5 274.5,-19.5 274.5,-0.5 206.5,-0.5"/>
<text text-anchor="middle" x="240.5" y="-7.5" font-family="Helvetica,sans-Serif" font-size="10.00">filesystem</text>
</a>
</g>
</g>
<!-- Node5&#45;&gt;Node6 -->
<g id="edge5" class="edge">
<title>Node5&#45;&gt;Node6</title>
<path fill="none" stroke="midnightblue" d="M157.61,-112.24C155.24,-98.98 152.72,-73.52 163.5,-56 172.64,-41.15 188.64,-30.66 203.7,-23.56"/>
<polygon fill="midnightblue" stroke="midnightblue" points="205.1,-26.77 212.88,-19.57 202.31,-20.34 205.1,-26.77"/>
</g>
<!-- Node7 -->
<g id="node7" class="node">
<title>Node7</title>
<g id="a_node7"><a xlink:href="_asset_8hpp.html" target="_top" xlink:title=" ">
<polygon fill="white" stroke="black" points="172,-56.5 172,-75.5 309,-75.5 309,-56.5 172,-56.5"/>
<text text-anchor="middle" x="240.5" y="-63.5" font-family="Helvetica,sans-Serif" font-size="10.00">AssetManager/Asset.hpp</text>
</a>
</g>
</g>
<!-- Node5&#45;&gt;Node7 -->
<g id="edge6" class="edge">
<title>Node5&#45;&gt;Node7</title>
<path fill="none" stroke="midnightblue" d="M172.51,-112.32C185.03,-103.98 204.18,-91.21 218.97,-81.35"/>
<polygon fill="midnightblue" stroke="midnightblue" points="221.14,-84.11 227.52,-75.65 217.26,-78.29 221.14,-84.11"/>
</g>
<!-- Node7&#45;&gt;Node6 -->
<g id="edge7" class="edge">
<title>Node7&#45;&gt;Node6</title>
<path fill="none" stroke="midnightblue" d="M240.5,-56.08C240.5,-49.01 240.5,-38.86 240.5,-29.99"/>
<polygon fill="midnightblue" stroke="midnightblue" points="244,-29.75 240.5,-19.75 237,-29.75 244,-29.75"/>
</g>
<!-- Node8&#45;&gt;Node6 -->
<g id="edge10" class="edge">
<title>Node8&#45;&gt;Node6</title>
<path fill="none" stroke="midnightblue" d="M336.97,-112.06C335.75,-98.58 331.72,-72.83 318.5,-56 307.22,-41.65 290,-31.02 274.61,-23.72"/>
<polygon fill="midnightblue" stroke="midnightblue" points="275.89,-20.46 265.33,-19.59 273.05,-26.85 275.89,-20.46"/>
</g>
<!-- Node8&#45;&gt;Node7 -->
<g id="edge11" class="edge">
<title>Node8&#45;&gt;Node7</title>
<path fill="none" stroke="midnightblue" d="M321.92,-112.32C306.5,-103.74 282.69,-90.49 264.79,-80.52"/>
<polygon fill="midnightblue" stroke="midnightblue" points="266.49,-77.46 256.05,-75.65 263.08,-83.58 266.49,-77.46"/>
</g>
<!-- Node9 -->
<g id="node9" class="node">
<title>Node9</title>
<g id="a_node9"><a xlink:title=" ">
<polygon fill="white" stroke="#bfbfbf" points="366,-56.5 366,-75.5 459,-75.5 459,-56.5 366,-56.5"/>
<text text-anchor="middle" x="412.5" y="-63.5" font-family="Helvetica,sans-Serif" font-size="10.00">unordered_map</text>
</a>
</g>
</g>
<!-- Node8&#45;&gt;Node9 -->
<g id="edge9" class="edge">
<title>Node8&#45;&gt;Node9</title>
<path fill="none" stroke="midnightblue" d="M349.55,-112.32C360.96,-104.11 378.33,-91.6 391.93,-81.81"/>
<polygon fill="midnightblue" stroke="midnightblue" points="394.16,-84.52 400.23,-75.83 390.07,-78.84 394.16,-84.52"/>
</g>
</g>
</svg>
