<?xml version="1.0" encoding="UTF-8" standalone="no"?>
<!DOCTYPE svg PUBLIC "-//W3C//DTD SVG 1.1//EN"
 "http://www.w3.org/Graphics/SVG/1.1/DTD/svg11.dtd">
<!-- Generated by graphviz version 2.43.0 (0)
 -->
<!-- Title: src/AssetManager/Texture.hpp Pages: 1 -->
<svg width="2600pt" height="280pt"
 viewBox="0.00 0.00 2599.50 280.00" xmlns="http://www.w3.org/2000/svg" xmlns:xlink="http://www.w3.org/1999/xlink">
<g id="graph0" class="graph" transform="scale(1 1) rotate(0) translate(4 276)">
<title>src/AssetManager/Texture.hpp</title>
<!-- Node1 -->
<g id="Node000001" class="node">
<title>Node1</title>
<g id="a_Node000001"><a xlink:title=" ">
<polygon fill="#999999" stroke="#666666" points="1750.5,-272 1586.5,-272 1586.5,-253 1750.5,-253 1750.5,-272"/>
<text text-anchor="middle" x="1668.5" y="-260" font-family="Helvetica,sans-Serif" font-size="10.00">src/AssetManager/Texture.hpp</text>
</a>
</g>
</g>
<!-- Node2 -->
<g id="Node000002" class="node">
<title>Node2</title>
<g id="a_Node000002"><a xlink:href="_material_8hpp.html" target="_top" xlink:title=" ">
<polygon fill="white" stroke="#666666" points="666.5,-211.5 498.5,-211.5 498.5,-192.5 666.5,-192.5 666.5,-211.5"/>
<text text-anchor="middle" x="582.5" y="-199.5" font-family="Helvetica,sans-Serif" font-size="10.00">src/AssetManager/Material.hpp</text>
</a>
</g>
</g>
<!-- Node1&#45;&gt;Node2 -->
<g id="edge1_Node000001_Node000002" class="edge">
<title>Node1&#45;&gt;Node2</title>
<g id="a_edge1_Node000001_Node000002"><a xlink:title=" ">
<path fill="none" stroke="#63b8ff" d="M1576.16,-256.53C1368.42,-245.34 866.81,-218.32 666.85,-207.54"/>
<polygon fill="#63b8ff" stroke="#63b8ff" points="1576.25,-260.04 1586.43,-257.08 1576.63,-253.05 1576.25,-260.04"/>
</a>
</g>
</g>
<!-- Node14 -->
<g id="Node000014" class="node">
<title>Node14</title>
<g id="a_Node000014"><a xlink:href="_texture_8cpp.html" target="_top" xlink:title=" ">
<polygon fill="white" stroke="#666666" points="1050,-211.5 887,-211.5 887,-192.5 1050,-192.5 1050,-211.5"/>
<text text-anchor="middle" x="968.5" y="-199.5" font-family="Helvetica,sans-Serif" font-size="10.00">src/AssetManager/Texture.cpp</text>
</a>
</g>
</g>
<!-- Node1&#45;&gt;Node14 -->
<g id="edge16_Node000001_Node000014" class="edge">
<title>Node1&#45;&gt;Node14</title>
<g id="a_edge16_Node000001_Node000014"><a xlink:title=" ">
<path fill="none" stroke="#63b8ff" d="M1575.85,-257.03C1456.29,-250.74 1241.95,-237.67 1059.5,-217 1046.48,-215.52 1032.46,-213.56 1019.42,-211.57"/>
<polygon fill="#63b8ff" stroke="#63b8ff" points="1575.89,-260.54 1586.06,-257.56 1576.25,-253.55 1575.89,-260.54"/>
</a>
</g>
</g>
<!-- Node15 -->
<g id="Node000015" class="node">
<title>Node15</title>
<g id="a_Node000015"><a xlink:href="_depth_atlas_frame_buffer_8hpp.html" target="_top" xlink:title=" ">
<polygon fill="white" stroke="#666666" points="1415.5,-217 1261.5,-217 1261.5,-187 1415.5,-187 1415.5,-217"/>
<text text-anchor="start" x="1269.5" y="-205" font-family="Helvetica,sans-Serif" font-size="10.00">src/Rendering/FrameBuffers</text>
<text text-anchor="middle" x="1338.5" y="-194" font-family="Helvetica,sans-Serif" font-size="10.00">/DepthAtlasFrameBuffer.hpp</text>
</a>
</g>
</g>
<!-- Node1&#45;&gt;Node15 -->
<g id="edge17_Node000001_Node000015" class="edge">
<title>Node1&#45;&gt;Node15</title>
<g id="a_edge17_Node000001_Node000015"><a xlink:title=" ">
<path fill="none" stroke="#63b8ff" d="M1610.4,-251.2C1556.25,-241.6 1475.15,-227.22 1415.61,-216.67"/>
<polygon fill="#63b8ff" stroke="#63b8ff" points="1610.06,-254.69 1620.52,-252.99 1611.28,-247.8 1610.06,-254.69"/>
</a>
</g>
</g>
<!-- Node21 -->
<g id="Node000021" class="node">
<title>Node21</title>
<g id="a_Node000021"><a xlink:href="_depth_cube_map_frame_buffer_8hpp.html" target="_top" xlink:title=" ">
<polygon fill="white" stroke="#666666" points="1243,-217 1068,-217 1068,-187 1243,-187 1243,-217"/>
<text text-anchor="start" x="1076" y="-205" font-family="Helvetica,sans-Serif" font-size="10.00">src/Rendering/FrameBuffers</text>
<text text-anchor="middle" x="1155.5" y="-194" font-family="Helvetica,sans-Serif" font-size="10.00">/DepthCubeMapFrameBuffer.hpp</text>
</a>
</g>
</g>
<!-- Node1&#45;&gt;Node21 -->
<g id="edge24_Node000001_Node000021" class="edge">
<title>Node1&#45;&gt;Node21</title>
<g id="a_edge24_Node000001_Node000021"><a xlink:title=" ">
<path fill="none" stroke="#63b8ff" d="M1576.24,-252.61C1491.87,-244.25 1363.65,-230.96 1252.5,-217 1249.46,-216.62 1246.37,-216.22 1243.25,-215.81"/>
<polygon fill="#63b8ff" stroke="#63b8ff" points="1576.01,-256.11 1586.31,-253.61 1576.7,-249.14 1576.01,-256.11"/>
</a>
</g>
</g>
<!-- Node23 -->
<g id="Node000023" class="node">
<title>Node23</title>
<g id="a_Node000023"><a xlink:href="_scene_frame_buffer_8hpp.html" target="_top" xlink:title=" ">
<polygon fill="white" stroke="#666666" points="1585.5,-217 1433.5,-217 1433.5,-187 1585.5,-187 1585.5,-217"/>
<text text-anchor="start" x="1441.5" y="-205" font-family="Helvetica,sans-Serif" font-size="10.00">src/Rendering/FrameBuffers</text>
<text text-anchor="middle" x="1509.5" y="-194" font-family="Helvetica,sans-Serif" font-size="10.00">/SceneFrameBuffer.hpp</text>
</a>
</g>
</g>
<!-- Node1&#45;&gt;Node23 -->
<g id="edge26_Node000001_Node000023" class="edge">
<title>Node1&#45;&gt;Node23</title>
<g id="a_edge26_Node000001_Node000023"><a xlink:title=" ">
<path fill="none" stroke="#63b8ff" d="M1635.77,-249.46C1610.2,-240.05 1574.61,-226.95 1547.73,-217.06"/>
<polygon fill="#63b8ff" stroke="#63b8ff" points="1634.79,-252.83 1645.38,-252.99 1637.2,-246.26 1634.79,-252.83"/>
</a>
</g>
</g>
<!-- Node27 -->
<g id="Node000027" class="node">
<title>Node27</title>
<g id="a_Node000027"><a xlink:href="_asset_utils_8cpp.html" target="_top" xlink:title=" ">
<polygon fill="white" stroke="#666666" points="1733,-211.5 1604,-211.5 1604,-192.5 1733,-192.5 1733,-211.5"/>
<text text-anchor="middle" x="1668.5" y="-199.5" font-family="Helvetica,sans-Serif" font-size="10.00">src/Utils/AssetUtils.cpp</text>
</a>
</g>
</g>
<!-- Node1&#45;&gt;Node27 -->
<g id="edge33_Node000001_Node000027" class="edge">
<title>Node1&#45;&gt;Node27</title>
<g id="a_edge33_Node000001_Node000027"><a xlink:title=" ">
<path fill="none" stroke="#63b8ff" d="M1668.5,-242.66C1668.5,-232.24 1668.5,-219.8 1668.5,-211.67"/>
<polygon fill="#63b8ff" stroke="#63b8ff" points="1665,-242.87 1668.5,-252.87 1672,-242.87 1665,-242.87"/>
</a>
</g>
</g>
<!-- Node28 -->
<g id="Node000028" class="node">
<title>Node28</title>
<g id="a_Node000028"><a xlink:href="_asset_selector_8hpp.html" target="_top" xlink:title=" ">
<polygon fill="white" stroke="#666666" points="1931.5,-211.5 1751.5,-211.5 1751.5,-192.5 1931.5,-192.5 1931.5,-211.5"/>
<text text-anchor="middle" x="1841.5" y="-199.5" font-family="Helvetica,sans-Serif" font-size="10.00">src/ui/Common/AssetSelector.hpp</text>
</a>
</g>
</g>
<!-- Node1&#45;&gt;Node28 -->
<g id="edge34_Node000001_Node000028" class="edge">
<title>Node1&#45;&gt;Node28</title>
<g id="a_edge34_Node000001_Node000028"><a xlink:title=" ">
<path fill="none" stroke="#63b8ff" d="M1703.48,-249.67C1736.94,-238.36 1786.58,-221.57 1816.31,-211.52"/>
<polygon fill="#63b8ff" stroke="#63b8ff" points="1702.01,-246.47 1693.66,-252.99 1704.25,-253.11 1702.01,-246.47"/>
</a>
</g>
</g>
<!-- Node29 -->
<g id="Node000029" class="node">
<title>Node29</title>
<g id="a_Node000029"><a xlink:href="_component_u_i_8hpp.html" target="_top" xlink:title=" ">
<polygon fill="white" stroke="#666666" points="2083.5,-211.5 1949.5,-211.5 1949.5,-192.5 2083.5,-192.5 2083.5,-211.5"/>
<text text-anchor="middle" x="2016.5" y="-199.5" font-family="Helvetica,sans-Serif" font-size="10.00">src/ui/ComponentUI.hpp</text>
</a>
</g>
</g>
<!-- Node1&#45;&gt;Node29 -->
<g id="edge35_Node000001_Node000029" class="edge">
<title>Node1&#45;&gt;Node29</title>
<g id="a_edge35_Node000001_Node000029"><a xlink:title=" ">
<path fill="none" stroke="#63b8ff" d="M1732.47,-251.41C1787.62,-242.61 1869.38,-229.37 1940.5,-217 1950.41,-215.28 1961.04,-213.36 1971.11,-211.51"/>
<polygon fill="#63b8ff" stroke="#63b8ff" points="1731.81,-247.97 1722.48,-252.99 1732.91,-254.88 1731.81,-247.97"/>
</a>
</g>
</g>
<!-- Node30 -->
<g id="Node000030" class="node">
<title>Node30</title>
<g id="a_Node000030"><a xlink:href="_console_widget_8hpp.html" target="_top" xlink:title="Contains the declaration of classes related to logging and a console user interface widget.">
<polygon fill="white" stroke="#666666" points="2283.5,-211.5 2101.5,-211.5 2101.5,-192.5 2283.5,-192.5 2283.5,-211.5"/>
<text text-anchor="middle" x="2192.5" y="-199.5" font-family="Helvetica,sans-Serif" font-size="10.00">src/ui/widgets/ConsoleWidget.hpp</text>
</a>
</g>
</g>
<!-- Node1&#45;&gt;Node30 -->
<g id="edge36_Node000001_Node000030" class="edge">
<title>Node1&#45;&gt;Node30</title>
<g id="a_edge36_Node000001_Node000030"><a xlink:title=" ">
<path fill="none" stroke="#63b8ff" d="M1760.66,-252.75C1846.62,-244.38 1978.37,-230.97 2092.5,-217 2105.99,-215.35 2120.47,-213.41 2134.11,-211.52"/>
<polygon fill="#63b8ff" stroke="#63b8ff" points="1760.29,-249.27 1750.67,-253.72 1760.96,-256.24 1760.29,-249.27"/>
</a>
</g>
</g>
<!-- Node31 -->
<g id="Node000031" class="node">
<title>Node31</title>
<g id="a_Node000031"><a xlink:href="_filesystem_widget_8hpp.html" target="_top" xlink:title="Contains the declaration of the FilesystemWidget class, a user interface widget for interacting with ...">
<polygon fill="white" stroke="#666666" points="2441.5,-217 2301.5,-217 2301.5,-187 2441.5,-187 2441.5,-217"/>
<text text-anchor="start" x="2309.5" y="-205" font-family="Helvetica,sans-Serif" font-size="10.00">src/ui/widgets/Filesystem</text>
<text text-anchor="middle" x="2371.5" y="-194" font-family="Helvetica,sans-Serif" font-size="10.00">Widget.hpp</text>
</a>
</g>
</g>
<!-- Node1&#45;&gt;Node31 -->
<g id="edge37_Node000001_Node000031" class="edge">
<title>Node1&#45;&gt;Node31</title>
<g id="a_edge37_Node000001_Node000031"><a xlink:title=" ">
<path fill="none" stroke="#63b8ff" d="M1760.58,-257.94C1882.58,-252.53 2104.32,-240.32 2292.5,-217 2295.4,-216.64 2298.36,-216.25 2301.35,-215.82"/>
<polygon fill="#63b8ff" stroke="#63b8ff" points="1760.37,-254.44 1750.53,-258.38 1760.68,-261.44 1760.37,-254.44"/>
</a>
</g>
</g>
<!-- Node32 -->
<g id="Node000032" class="node">
<title>Node32</title>
<g id="a_Node000032"><a xlink:href="_inspector_widget_8hpp.html" target="_top" xlink:title=" ">
<polygon fill="white" stroke="#666666" points="2591.5,-217 2459.5,-217 2459.5,-187 2591.5,-187 2591.5,-217"/>
<text text-anchor="start" x="2467.5" y="-205" font-family="Helvetica,sans-Serif" font-size="10.00">src/ui/widgets/Inspector</text>
<text text-anchor="middle" x="2525.5" y="-194" font-family="Helvetica,sans-Serif" font-size="10.00">Widget.hpp</text>
</a>
</g>
</g>
<!-- Node1&#45;&gt;Node32 -->
<g id="edge38_Node000001_Node000032" class="edge">
<title>Node1&#45;&gt;Node32</title>
<g id="a_edge38_Node000001_Node000032"><a xlink:title=" ">
<path fill="none" stroke="#63b8ff" d="M1761.01,-260.05C1907.71,-256.9 2202.49,-247.08 2450.5,-217 2453.39,-216.65 2456.34,-216.26 2459.32,-215.83"/>
<polygon fill="#63b8ff" stroke="#63b8ff" points="1760.63,-256.56 1750.71,-260.27 1760.78,-263.56 1760.63,-256.56"/>
</a>
</g>
</g>
<!-- Node3 -->
<g id="Node000003" class="node">
<title>Node3</title>
<g id="a_Node000003"><a xlink:href="_material_8cpp.html" target="_top" xlink:title=" ">
<polygon fill="white" stroke="#666666" points="219,-145.5 52,-145.5 52,-126.5 219,-126.5 219,-145.5"/>
<text text-anchor="middle" x="135.5" y="-133.5" font-family="Helvetica,sans-Serif" font-size="10.00">src/AssetManager/Material.cpp</text>
</a>
</g>
</g>
<!-- Node2&#45;&gt;Node3 -->
<g id="edge2_Node000002_Node000003" class="edge">
<title>Node2&#45;&gt;Node3</title>
<g id="a_edge2_Node000002_Node000003"><a xlink:title=" ">
<path fill="none" stroke="#63b8ff" d="M512.62,-191.05C441.97,-180.98 329.64,-164.95 232.5,-151 220.21,-149.23 207.03,-147.34 194.49,-145.53"/>
<polygon fill="#63b8ff" stroke="#63b8ff" points="512.34,-194.54 522.73,-192.49 513.33,-187.61 512.34,-194.54"/>
</a>
</g>
</g>
<!-- Node4 -->
<g id="Node000004" class="node">
<title>Node4</title>
<g id="a_Node000004"><a xlink:href="_model_component_8hpp.html" target="_top" xlink:title=" ">
<polygon fill="white" stroke="#666666" points="480.5,-145.5 274.5,-145.5 274.5,-126.5 480.5,-126.5 480.5,-145.5"/>
<text text-anchor="middle" x="377.5" y="-133.5" font-family="Helvetica,sans-Serif" font-size="10.00">src/Components/ModelComponent.hpp</text>
</a>
</g>
</g>
<!-- Node2&#45;&gt;Node4 -->
<g id="edge3_Node000002_Node000004" class="edge">
<title>Node2&#45;&gt;Node4</title>
<g id="a_edge3_Node000002_Node000004"><a xlink:title=" ">
<path fill="none" stroke="#63b8ff" d="M545.1,-189.32C504.66,-176.7 441.15,-156.87 405.04,-145.6"/>
<polygon fill="#63b8ff" stroke="#63b8ff" points="544.26,-192.73 554.85,-192.37 546.35,-186.05 544.26,-192.73"/>
</a>
</g>
</g>
<!-- Node8 -->
<g id="Node000008" class="node">
<title>Node8</title>
<g id="a_Node000008"><a xlink:href="_model_component_u_i_8hpp.html" target="_top" xlink:title=" ">
<polygon fill="white" stroke="#666666" points="197,-85 0,-85 0,-55 197,-55 197,-85"/>
<text text-anchor="start" x="8" y="-73" font-family="Helvetica,sans-Serif" font-size="10.00">src/ui/Components/ModelComponent</text>
<text text-anchor="middle" x="98.5" y="-62" font-family="Helvetica,sans-Serif" font-size="10.00">UI.hpp</text>
</a>
</g>
</g>
<!-- Node2&#45;&gt;Node8 -->
<g id="edge13_Node000002_Node000008" class="edge">
<title>Node2&#45;&gt;Node8</title>
<g id="a_edge13_Node000002_Node000008"><a xlink:title=" ">
<path fill="none" stroke="#63b8ff" d="M488.26,-198.62C423.29,-194.04 336.24,-181.95 265.5,-151 245.79,-142.38 246.18,-131.67 227.5,-121 201.33,-106.05 169.81,-93.74 144.48,-85.08"/>
<polygon fill="#63b8ff" stroke="#63b8ff" points="488.28,-202.13 498.49,-199.3 488.74,-195.15 488.28,-202.13"/>
</a>
</g>
</g>
<!-- Node10 -->
<g id="Node000010" class="node">
<title>Node10</title>
<g id="a_Node000010"><a xlink:href="_overlay_model_component_8hpp.html" target="_top" xlink:title=" ">
<polygon fill="white" stroke="#666666" points="666,-151 499,-151 499,-121 666,-121 666,-151"/>
<text text-anchor="start" x="507" y="-139" font-family="Helvetica,sans-Serif" font-size="10.00">src/Components/OverlayModel</text>
<text text-anchor="middle" x="582.5" y="-128" font-family="Helvetica,sans-Serif" font-size="10.00">Component.hpp</text>
</a>
</g>
</g>
<!-- Node2&#45;&gt;Node10 -->
<g id="edge9_Node000002_Node000010" class="edge">
<title>Node2&#45;&gt;Node10</title>
<g id="a_edge9_Node000002_Node000010"><a xlink:title=" ">
<path fill="none" stroke="#63b8ff" d="M582.5,-182.35C582.5,-172.47 582.5,-160.51 582.5,-151.36"/>
<polygon fill="#63b8ff" stroke="#63b8ff" points="579,-182.37 582.5,-192.37 586,-182.37 579,-182.37"/>
</a>
</g>
</g>
<!-- Node12 -->
<g id="Node000012" class="node">
<title>Node12</title>
<g id="a_Node000012"><a xlink:href="_filesystem_widget_8cpp.html" target="_top" xlink:title=" ">
<polygon fill="white" stroke="#666666" points="824.5,-151 684.5,-151 684.5,-121 824.5,-121 824.5,-151"/>
<text text-anchor="start" x="692.5" y="-139" font-family="Helvetica,sans-Serif" font-size="10.00">src/ui/widgets/Filesystem</text>
<text text-anchor="middle" x="754.5" y="-128" font-family="Helvetica,sans-Serif" font-size="10.00">Widget.cpp</text>
</a>
</g>
</g>
<!-- Node2&#45;&gt;Node12 -->
<g id="edge14_Node000002_Node000012" class="edge">
<title>Node2&#45;&gt;Node12</title>
<g id="a_edge14_Node000002_Node000012"><a xlink:title=" ">
<path fill="none" stroke="#63b8ff" d="M615.32,-188.79C644.2,-178.04 686.25,-162.4 716.56,-151.12"/>
<polygon fill="#63b8ff" stroke="#63b8ff" points="613.85,-185.6 605.7,-192.37 616.29,-192.16 613.85,-185.6"/>
</a>
</g>
</g>
<!-- Node13 -->
<g id="Node000013" class="node">
<title>Node13</title>
<g id="a_Node000013"><a xlink:href="_inspector_widget_8cpp.html" target="_top" xlink:title=" ">
<polygon fill="white" stroke="#666666" points="974.5,-151 842.5,-151 842.5,-121 974.5,-121 974.5,-151"/>
<text text-anchor="start" x="850.5" y="-139" font-family="Helvetica,sans-Serif" font-size="10.00">src/ui/widgets/Inspector</text>
<text text-anchor="middle" x="908.5" y="-128" font-family="Helvetica,sans-Serif" font-size="10.00">Widget.cpp</text>
</a>
</g>
</g>
<!-- Node2&#45;&gt;Node13 -->
<g id="edge15_Node000002_Node000013" class="edge">
<title>Node2&#45;&gt;Node13</title>
<g id="a_edge15_Node000002_Node000013"><a xlink:title=" ">
<path fill="none" stroke="#63b8ff" d="M636.28,-190.44C692.73,-179.36 781.55,-161.92 842.28,-150"/>
<polygon fill="#63b8ff" stroke="#63b8ff" points="635.27,-187.07 626.13,-192.44 636.61,-193.94 635.27,-187.07"/>
</a>
</g>
</g>
<!-- Node5 -->
<g id="Node000005" class="node">
<title>Node5</title>
<g id="a_Node000005"><a xlink:href="_object_selection_system_8cpp.html" target="_top" xlink:title=" ">
<polygon fill="white" stroke="#666666" points="370,-85 215,-85 215,-55 370,-55 370,-85"/>
<text text-anchor="start" x="223" y="-73" font-family="Helvetica,sans-Serif" font-size="10.00">src/Systems/ObjectSelection</text>
<text text-anchor="middle" x="292.5" y="-62" font-family="Helvetica,sans-Serif" font-size="10.00">System.cpp</text>
</a>
</g>
</g>
<!-- Node4&#45;&gt;Node5 -->
<g id="edge4_Node000004_Node000005" class="edge">
<title>Node4&#45;&gt;Node5</title>
<g id="a_edge4_Node000004_Node000005"><a xlink:title=" ">
<path fill="none" stroke="#63b8ff" d="M358,-120.32C343.95,-109.74 325.12,-95.56 311.25,-85.12"/>
<polygon fill="#63b8ff" stroke="#63b8ff" points="355.94,-123.15 366.04,-126.37 360.15,-117.56 355.94,-123.15"/>
</a>
</g>
</g>
<!-- Node6 -->
<g id="Node000006" class="node">
<title>Node6</title>
<g id="a_Node000006"><a xlink:href="_rendering_system_8cpp.html" target="_top" xlink:title=" ">
<polygon fill="white" stroke="#666666" points="1246,-79.5 1061,-79.5 1061,-60.5 1246,-60.5 1246,-79.5"/>
<text text-anchor="middle" x="1153.5" y="-67.5" font-family="Helvetica,sans-Serif" font-size="10.00">src/Systems/RenderingSystem.cpp</text>
</a>
</g>
</g>
<!-- Node4&#45;&gt;Node6 -->
<g id="edge5_Node000004_Node000006" class="edge">
<title>Node4&#45;&gt;Node6</title>
<g id="a_edge5_Node000004_Node000006"><a xlink:title=" ">
<path fill="none" stroke="#63b8ff" d="M451.23,-125.26C463.98,-123.73 477.11,-122.24 489.5,-121 693.1,-100.62 932.58,-84.52 1061,-76.52"/>
<polygon fill="#63b8ff" stroke="#63b8ff" points="450.61,-121.81 441.11,-126.5 451.46,-128.76 450.61,-121.81"/>
</a>
</g>
</g>
<!-- Node7 -->
<g id="Node000007" class="node">
<title>Node7</title>
<g id="a_Node000007"><a xlink:href="main_8cpp.html" target="_top" xlink:title=" ">
<polygon fill="white" stroke="#666666" points="622,-79.5 543,-79.5 543,-60.5 622,-60.5 622,-79.5"/>
<text text-anchor="middle" x="582.5" y="-67.5" font-family="Helvetica,sans-Serif" font-size="10.00">src/main.cpp</text>
</a>
</g>
</g>
<!-- Node4&#45;&gt;Node7 -->
<g id="edge6_Node000004_Node000007" class="edge">
<title>Node4&#45;&gt;Node7</title>
<g id="a_edge6_Node000004_Node000007"><a xlink:title=" ">
<path fill="none" stroke="#63b8ff" d="M414.9,-123.32C455.34,-110.7 518.85,-90.87 554.96,-79.6"/>
<polygon fill="#63b8ff" stroke="#63b8ff" points="413.65,-120.05 405.15,-126.37 415.74,-126.73 413.65,-120.05"/>
</a>
</g>
</g>
<!-- Node4&#45;&gt;Node8 -->
<g id="edge7_Node000004_Node000008" class="edge">
<title>Node4&#45;&gt;Node8</title>
<g id="a_edge7_Node000004_Node000008"><a xlink:title=" ">
<path fill="none" stroke="#63b8ff" d="M330.25,-124.16C283.26,-113.38 210.97,-96.8 159.64,-85.02"/>
<polygon fill="#63b8ff" stroke="#63b8ff" points="329.63,-127.61 340.16,-126.44 331.2,-120.79 329.63,-127.61"/>
</a>
</g>
</g>
<!-- Node9 -->
<g id="Node000009" class="node">
<title>Node9</title>
<g id="a_Node000009"><a xlink:href="_properties_widget_8cpp.html" target="_top" xlink:title=" ">
<polygon fill="white" stroke="#666666" points="525,-85 388,-85 388,-55 525,-55 525,-85"/>
<text text-anchor="start" x="396" y="-73" font-family="Helvetica,sans-Serif" font-size="10.00">src/ui/widgets/Properties</text>
<text text-anchor="middle" x="456.5" y="-62" font-family="Helvetica,sans-Serif" font-size="10.00">Widget.cpp</text>
</a>
</g>
</g>
<!-- Node4&#45;&gt;Node9 -->
<g id="edge8_Node000004_Node000009" class="edge">
<title>Node4&#45;&gt;Node9</title>
<g id="a_edge8_Node000004_Node000009"><a xlink:title=" ">
<path fill="none" stroke="#63b8ff" d="M396,-120.02C409.01,-109.48 426.31,-95.46 439.08,-85.12"/>
<polygon fill="#63b8ff" stroke="#63b8ff" points="393.72,-117.35 388.15,-126.37 398.13,-122.79 393.72,-117.35"/>
</a>
</g>
</g>
<!-- Node10&#45;&gt;Node6 -->
<g id="edge11_Node000010_Node000006" class="edge">
<title>Node10&#45;&gt;Node6</title>
<g id="a_edge11_Node000010_Node000006"><a xlink:title=" ">
<path fill="none" stroke="#63b8ff" d="M676.2,-120.95C816.42,-103.24 966.68,-88.31 1060.83,-79.44"/>
<polygon fill="#63b8ff" stroke="#63b8ff" points="675.61,-117.5 666.13,-122.23 676.49,-124.44 675.61,-117.5"/>
</a>
</g>
</g>
<!-- Node10&#45;&gt;Node7 -->
<g id="edge12_Node000010_Node000007" class="edge">
<title>Node10&#45;&gt;Node7</title>
<g id="a_edge12_Node000010_Node000007"><a xlink:title=" ">
<path fill="none" stroke="#63b8ff" d="M582.5,-110.6C582.5,-99.8 582.5,-87.78 582.5,-79.84"/>
<polygon fill="#63b8ff" stroke="#63b8ff" points="579,-110.8 582.5,-120.8 586,-110.8 579,-110.8"/>
</a>
</g>
</g>
<!-- Node11 -->
<g id="Node000011" class="node">
<title>Node11</title>
<g id="a_Node000011"><a xlink:href="_gizmo_system_8cpp.html" target="_top" xlink:title=" ">
<polygon fill="white" stroke="#666666" points="807,-79.5 640,-79.5 640,-60.5 807,-60.5 807,-79.5"/>
<text text-anchor="middle" x="723.5" y="-67.5" font-family="Helvetica,sans-Serif" font-size="10.00">src/Systems/GizmoSystem.cpp</text>
</a>
</g>
</g>
<!-- Node10&#45;&gt;Node11 -->
<g id="edge10_Node000010_Node000011" class="edge">
<title>Node10&#45;&gt;Node11</title>
<g id="a_edge10_Node000010_Node000011"><a xlink:title=" ">
<path fill="none" stroke="#63b8ff" d="M622.64,-116.78C649.6,-104.54 683.88,-88.98 704.74,-79.52"/>
<polygon fill="#63b8ff" stroke="#63b8ff" points="621.1,-113.63 613.44,-120.95 624,-120.01 621.1,-113.63"/>
</a>
</g>
</g>
<!-- Node16 -->
<g id="Node000016" class="node">
<title>Node16</title>
<g id="a_Node000016"><a xlink:href="_depth_atlas_frame_buffer_8cpp.html" target="_top" xlink:title=" ">
<polygon fill="white" stroke="#666666" points="1338,-151 1185,-151 1185,-121 1338,-121 1338,-151"/>
<text text-anchor="start" x="1193" y="-139" font-family="Helvetica,sans-Serif" font-size="10.00">src/Rendering/FrameBuffers</text>
<text text-anchor="middle" x="1261.5" y="-128" font-family="Helvetica,sans-Serif" font-size="10.00">/DepthAtlasFrameBuffer.cpp</text>
</a>
</g>
</g>
<!-- Node15&#45;&gt;Node16 -->
<g id="edge18_Node000015_Node000016" class="edge">
<title>Node15&#45;&gt;Node16</title>
<g id="a_edge18_Node000015_Node000016"><a xlink:title=" ">
<path fill="none" stroke="#63b8ff" d="M1313.48,-180.2C1302.05,-170.7 1288.8,-159.69 1278.54,-151.16"/>
<polygon fill="#63b8ff" stroke="#63b8ff" points="1311.48,-183.1 1321.41,-186.8 1315.96,-177.71 1311.48,-183.1"/>
</a>
</g>
</g>
<!-- Node17 -->
<g id="Node000017" class="node">
<title>Node17</title>
<g id="a_Node000017"><a xlink:href="_rendering_system_8hpp.html" target="_top" xlink:title=" ">
<polygon fill="white" stroke="#666666" points="1542.5,-145.5 1356.5,-145.5 1356.5,-126.5 1542.5,-126.5 1542.5,-145.5"/>
<text text-anchor="middle" x="1449.5" y="-133.5" font-family="Helvetica,sans-Serif" font-size="10.00">src/Systems/RenderingSystem.hpp</text>
</a>
</g>
</g>
<!-- Node15&#45;&gt;Node17 -->
<g id="edge19_Node000015_Node000017" class="edge">
<title>Node15&#45;&gt;Node17</title>
<g id="a_edge19_Node000015_Node000017"><a xlink:title=" ">
<path fill="none" stroke="#63b8ff" d="M1371.78,-181.81C1392.73,-169.73 1418.74,-154.73 1434.73,-145.52"/>
<polygon fill="#63b8ff" stroke="#63b8ff" points="1369.77,-178.93 1362.86,-186.95 1373.27,-184.99 1369.77,-178.93"/>
</a>
</g>
</g>
<!-- Node17&#45;&gt;Node6 -->
<g id="edge23_Node000017_Node000006" class="edge">
<title>Node17&#45;&gt;Node6</title>
<g id="a_edge23_Node000017_Node000006"><a xlink:title=" ">
<path fill="none" stroke="#63b8ff" d="M1399.82,-124.26C1341.58,-111.67 1246.26,-91.06 1192.88,-79.51"/>
<polygon fill="#63b8ff" stroke="#63b8ff" points="1399.37,-127.74 1409.89,-126.44 1400.85,-120.9 1399.37,-127.74"/>
</a>
</g>
</g>
<!-- Node18 -->
<g id="Node000018" class="node">
<title>Node18</title>
<g id="a_Node000018"><a xlink:href="_runtime_8hpp.html" target="_top" xlink:title=" ">
<polygon fill="white" stroke="#666666" points="1579.5,-79.5 1439.5,-79.5 1439.5,-60.5 1579.5,-60.5 1579.5,-79.5"/>
<text text-anchor="middle" x="1509.5" y="-67.5" font-family="Helvetica,sans-Serif" font-size="10.00">src/Runtime/Runtime.hpp</text>
</a>
</g>
</g>
<!-- Node17&#45;&gt;Node18 -->
<g id="edge20_Node000017_Node000018" class="edge">
<title>Node17&#45;&gt;Node18</title>
<g id="a_edge20_Node000017_Node000018"><a xlink:title=" ">
<path fill="none" stroke="#63b8ff" d="M1464.52,-118.98C1476.1,-106.62 1491.7,-89.99 1501.15,-79.91"/>
<polygon fill="#63b8ff" stroke="#63b8ff" points="1461.88,-116.68 1457.59,-126.37 1466.98,-121.47 1461.88,-116.68"/>
</a>
</g>
</g>
<!-- Node19 -->
<g id="Node000019" class="node">
<title>Node19</title>
<g id="a_Node000019"><a xlink:href="_runtime_8cpp.html" target="_top" xlink:title=" ">
<polygon fill="white" stroke="#666666" points="1492.5,-19 1352.5,-19 1352.5,0 1492.5,0 1492.5,-19"/>
<text text-anchor="middle" x="1422.5" y="-7" font-family="Helvetica,sans-Serif" font-size="10.00">src/Runtime/Runtime.cpp</text>
</a>
</g>
</g>
<!-- Node18&#45;&gt;Node19 -->
<g id="edge21_Node000018_Node000019" class="edge">
<title>Node18&#45;&gt;Node19</title>
<g id="a_edge21_Node000018_Node000019"><a xlink:title=" ">
<path fill="none" stroke="#63b8ff" d="M1488.17,-54.66C1471.64,-43.55 1449.29,-28.51 1435.39,-19.17"/>
<polygon fill="#63b8ff" stroke="#63b8ff" points="1486.41,-57.69 1496.66,-60.37 1490.32,-51.88 1486.41,-57.69"/>
</a>
</g>
</g>
<!-- Node20 -->
<g id="Node000020" class="node">
<title>Node20</title>
<g id="a_Node000020"><a xlink:href="_scene_widget_8hpp.html" target="_top" xlink:title="Contains the declaration of the SceneWidget class, a user interface widget for rendering scenes.">
<polygon fill="white" stroke="#666666" points="1682.5,-19 1510.5,-19 1510.5,0 1682.5,0 1682.5,-19"/>
<text text-anchor="middle" x="1596.5" y="-7" font-family="Helvetica,sans-Serif" font-size="10.00">src/ui/widgets/SceneWidget.hpp</text>
</a>
</g>
</g>
<!-- Node18&#45;&gt;Node20 -->
<g id="edge22_Node000018_Node000020" class="edge">
<title>Node18&#45;&gt;Node20</title>
<g id="a_edge22_Node000018_Node000020"><a xlink:title=" ">
<path fill="none" stroke="#63b8ff" d="M1530.83,-54.66C1547.36,-43.55 1569.71,-28.51 1583.61,-19.17"/>
<polygon fill="#63b8ff" stroke="#63b8ff" points="1528.68,-51.88 1522.34,-60.37 1532.59,-57.69 1528.68,-51.88"/>
</a>
</g>
</g>
<!-- Node22 -->
<g id="Node000022" class="node">
<title>Node22</title>
<g id="a_Node000022"><a xlink:href="_depth_cube_map_frame_buffer_8cpp.html" target="_top" xlink:title=" ">
<polygon fill="white" stroke="#666666" points="1166.5,-151 992.5,-151 992.5,-121 1166.5,-121 1166.5,-151"/>
<text text-anchor="start" x="1000.5" y="-139" font-family="Helvetica,sans-Serif" font-size="10.00">src/Rendering/FrameBuffers</text>
<text text-anchor="middle" x="1079.5" y="-128" font-family="Helvetica,sans-Serif" font-size="10.00">/DepthCubeMapFrameBuffer.cpp</text>
</a>
</g>
</g>
<!-- Node21&#45;&gt;Node22 -->
<g id="edge25_Node000021_Node000022" class="edge">
<title>Node21&#45;&gt;Node22</title>
<g id="a_edge25_Node000021_Node000022"><a xlink:title=" ">
<path fill="none" stroke="#63b8ff" d="M1130.8,-180.2C1119.52,-170.7 1106.45,-159.69 1096.32,-151.16"/>
<polygon fill="#63b8ff" stroke="#63b8ff" points="1128.73,-183.03 1138.63,-186.8 1133.24,-177.68 1128.73,-183.03"/>
</a>
</g>
</g>
<!-- Node23&#45;&gt;Node17 -->
<g id="edge32_Node000023_Node000017" class="edge">
<title>Node23&#45;&gt;Node17</title>
<g id="a_edge32_Node000023_Node000017"><a xlink:title=" ">
<path fill="none" stroke="#63b8ff" d="M1489.13,-179.27C1478.41,-167.84 1465.85,-154.44 1457.79,-145.84"/>
<polygon fill="#63b8ff" stroke="#63b8ff" points="1486.79,-181.89 1496.18,-186.8 1491.9,-177.11 1486.79,-181.89"/>
</a>
</g>
</g>
<!-- Node23&#45;&gt;Node18 -->
<g id="edge31_Node000023_Node000018" class="edge">
<title>Node23&#45;&gt;Node18</title>
<g id="a_edge31_Node000023_Node000018"><a xlink:title=" ">
<path fill="none" stroke="#63b8ff" d="M1533.51,-179.18C1540.72,-171.11 1547.72,-161.39 1551.5,-151 1556.06,-138.47 1556.06,-133.53 1551.5,-121 1545.29,-103.96 1530.44,-88.69 1520.17,-79.63"/>
<polygon fill="#63b8ff" stroke="#63b8ff" points="1530.74,-177.01 1526.34,-186.65 1535.79,-181.86 1530.74,-177.01"/>
</a>
</g>
</g>
<!-- Node24 -->
<g id="Node000024" class="node">
<title>Node24</title>
<g id="a_Node000024"><a xlink:href="_scene_frame_buffer_8cpp.html" target="_top" xlink:title=" ">
<polygon fill="white" stroke="#666666" points="1750.5,-151 1598.5,-151 1598.5,-121 1750.5,-121 1750.5,-151"/>
<text text-anchor="start" x="1606.5" y="-139" font-family="Helvetica,sans-Serif" font-size="10.00">src/Rendering/FrameBuffers</text>
<text text-anchor="middle" x="1674.5" y="-128" font-family="Helvetica,sans-Serif" font-size="10.00">/SceneFrameBuffer.cpp</text>
</a>
</g>
</g>
<!-- Node23&#45;&gt;Node24 -->
<g id="edge27_Node000023_Node000024" class="edge">
<title>Node23&#45;&gt;Node24</title>
<g id="a_edge27_Node000023_Node000024"><a xlink:title=" ">
<path fill="none" stroke="#63b8ff" d="M1555.07,-183.32C1581.34,-173.14 1613.89,-160.51 1638.37,-151.01"/>
<polygon fill="#63b8ff" stroke="#63b8ff" points="1553.77,-180.08 1545.71,-186.95 1556.3,-186.6 1553.77,-180.08"/>
</a>
</g>
</g>
<!-- Node25 -->
<g id="Node000025" class="node">
<title>Node25</title>
<g id="a_Node000025"><a xlink:href="_rendering_2_utils_8hpp.html" target="_top" xlink:title=" ">
<polygon fill="white" stroke="#666666" points="1898.5,-145.5 1768.5,-145.5 1768.5,-126.5 1898.5,-126.5 1898.5,-145.5"/>
<text text-anchor="middle" x="1833.5" y="-133.5" font-family="Helvetica,sans-Serif" font-size="10.00">src/Rendering/Utils.hpp</text>
</a>
</g>
</g>
<!-- Node23&#45;&gt;Node25 -->
<g id="edge28_Node000023_Node000025" class="edge">
<title>Node23&#45;&gt;Node25</title>
<g id="a_edge28_Node000023_Node000025"><a xlink:title=" ">
<path fill="none" stroke="#63b8ff" d="M1590.57,-184.99C1653.94,-172.47 1739.54,-155.56 1790.38,-145.52"/>
<polygon fill="#63b8ff" stroke="#63b8ff" points="1589.74,-181.58 1580.6,-186.95 1591.09,-188.45 1589.74,-181.58"/>
</a>
</g>
</g>
<!-- Node25&#45;&gt;Node6 -->
<g id="edge30_Node000025_Node000006" class="edge">
<title>Node25&#45;&gt;Node6</title>
<g id="a_edge30_Node000025_Node000006"><a xlink:title=" ">
<path fill="none" stroke="#63b8ff" d="M1782.54,-124.64C1774.84,-123.28 1766.98,-122.01 1759.5,-121 1578.52,-96.48 1365.4,-82.27 1246.23,-75.63"/>
<polygon fill="#63b8ff" stroke="#63b8ff" points="1782.06,-128.11 1792.53,-126.46 1783.32,-121.22 1782.06,-128.11"/>
</a>
</g>
</g>
<!-- Node26 -->
<g id="Node000026" class="node">
<title>Node26</title>
<g id="a_Node000026"><a xlink:href="_rendering_2_utils_8cpp.html" target="_top" xlink:title=" ">
<polygon fill="white" stroke="#666666" points="1898,-79.5 1769,-79.5 1769,-60.5 1898,-60.5 1898,-79.5"/>
<text text-anchor="middle" x="1833.5" y="-67.5" font-family="Helvetica,sans-Serif" font-size="10.00">src/Rendering/Utils.cpp</text>
</a>
</g>
</g>
<!-- Node25&#45;&gt;Node26 -->
<g id="edge29_Node000025_Node000026" class="edge">
<title>Node25&#45;&gt;Node26</title>
<g id="a_edge29_Node000025_Node000026"><a xlink:title=" ">
<path fill="none" stroke="#63b8ff" d="M1833.5,-116.08C1833.5,-104.13 1833.5,-89.22 1833.5,-79.91"/>
<polygon fill="#63b8ff" stroke="#63b8ff" points="1830,-116.37 1833.5,-126.37 1837,-116.37 1830,-116.37"/>
</a>
</g>
</g>
</g>
</svg>
