<?xml version="1.0" encoding="UTF-8" standalone="no"?>
<!DOCTYPE svg PUBLIC "-//W3C//DTD SVG 1.1//EN"
 "http://www.w3.org/Graphics/SVG/1.1/DTD/svg11.dtd">
<!-- Generated by graphviz version 2.43.0 (0)
 -->
<!-- Title: src/AssetManager/Texture.hpp Pages: 1 -->
<svg width="3249pt" height="335pt"
 viewBox="0.00 0.00 3249.00 335.00" xmlns="http://www.w3.org/2000/svg" xmlns:xlink="http://www.w3.org/1999/xlink">
<g id="graph0" class="graph" transform="scale(1 1) rotate(0) translate(4 331)">
<title>src/AssetManager/Texture.hpp</title>
<!-- Node1 -->
<g id="Node000001" class="node">
<title>Node1</title>
<g id="a_Node000001"><a xlink:title=" ">
<polygon fill="#999999" stroke="#666666" points="2400,-327 2236,-327 2236,-308 2400,-308 2400,-327"/>
<text text-anchor="middle" x="2318" y="-315" font-family="Helvetica,sans-Serif" font-size="10.00">src/AssetManager/Texture.hpp</text>
</a>
</g>
</g>
<!-- Node2 -->
<g id="Node000002" class="node">
<title>Node2</title>
<g id="a_Node000002"><a xlink:href="_material_8hpp.html" target="_top" xlink:title=" ">
<polygon fill="white" stroke="#666666" points="887,-266.5 719,-266.5 719,-247.5 887,-247.5 887,-266.5"/>
<text text-anchor="middle" x="803" y="-254.5" font-family="Helvetica,sans-Serif" font-size="10.00">src/AssetManager/Material.hpp</text>
</a>
</g>
</g>
<!-- Node1&#45;&gt;Node2 -->
<g id="edge1_Node000001_Node000002" class="edge">
<title>Node1&#45;&gt;Node2</title>
<g id="a_edge1_Node000001_Node000002"><a xlink:title=" ">
<path fill="none" stroke="#63b8ff" d="M2225.45,-312.93C1951.81,-302.36 1149.37,-271.37 887.04,-261.25"/>
<polygon fill="#63b8ff" stroke="#63b8ff" points="2225.61,-316.44 2235.74,-313.32 2225.88,-309.44 2225.61,-316.44"/>
</a>
</g>
</g>
<!-- Node25 -->
<g id="Node000025" class="node">
<title>Node25</title>
<g id="a_Node000025"><a xlink:href="_texture_8cpp.html" target="_top" xlink:title=" ">
<polygon fill="white" stroke="#666666" points="1698.5,-266.5 1535.5,-266.5 1535.5,-247.5 1698.5,-247.5 1698.5,-266.5"/>
<text text-anchor="middle" x="1617" y="-254.5" font-family="Helvetica,sans-Serif" font-size="10.00">src/AssetManager/Texture.cpp</text>
</a>
</g>
</g>
<!-- Node1&#45;&gt;Node25 -->
<g id="edge36_Node000001_Node000025" class="edge">
<title>Node1&#45;&gt;Node25</title>
<g id="a_edge36_Node000001_Node000025"><a xlink:title=" ">
<path fill="none" stroke="#63b8ff" d="M2225.7,-312.07C2106.04,-305.79 1891,-292.72 1708,-272 1694.98,-270.53 1680.96,-268.56 1667.92,-266.57"/>
<polygon fill="#63b8ff" stroke="#63b8ff" points="2225.75,-315.57 2235.91,-312.6 2226.11,-308.58 2225.75,-315.57"/>
</a>
</g>
</g>
<!-- Node26 -->
<g id="Node000026" class="node">
<title>Node26</title>
<g id="a_Node000026"><a xlink:href="_depth_atlas_frame_buffer_8hpp.html" target="_top" xlink:title=" ">
<polygon fill="white" stroke="#666666" points="1871,-272 1717,-272 1717,-242 1871,-242 1871,-272"/>
<text text-anchor="start" x="1725" y="-260" font-family="Helvetica,sans-Serif" font-size="10.00">src/Rendering/FrameBuffers</text>
<text text-anchor="middle" x="1794" y="-249" font-family="Helvetica,sans-Serif" font-size="10.00">/DepthAtlasFrameBuffer.hpp</text>
</a>
</g>
</g>
<!-- Node1&#45;&gt;Node26 -->
<g id="edge37_Node000001_Node000026" class="edge">
<title>Node1&#45;&gt;Node26</title>
<g id="a_edge37_Node000001_Node000026"><a xlink:title=" ">
<path fill="none" stroke="#63b8ff" d="M2225.85,-308.76C2137.09,-300.92 1999.11,-287.73 1880,-272 1877.15,-271.62 1874.25,-271.23 1871.32,-270.81"/>
<polygon fill="#63b8ff" stroke="#63b8ff" points="2225.62,-312.25 2235.89,-309.64 2226.24,-305.28 2225.62,-312.25"/>
</a>
</g>
</g>
<!-- Node28 -->
<g id="Node000028" class="node">
<title>Node28</title>
<g id="a_Node000028"><a xlink:href="_depth_cube_map_frame_buffer_8hpp.html" target="_top" xlink:title=" ">
<polygon fill="white" stroke="#666666" points="2064.5,-272 1889.5,-272 1889.5,-242 2064.5,-242 2064.5,-272"/>
<text text-anchor="start" x="1897.5" y="-260" font-family="Helvetica,sans-Serif" font-size="10.00">src/Rendering/FrameBuffers</text>
<text text-anchor="middle" x="1977" y="-249" font-family="Helvetica,sans-Serif" font-size="10.00">/DepthCubeMapFrameBuffer.hpp</text>
</a>
</g>
</g>
<!-- Node1&#45;&gt;Node28 -->
<g id="edge40_Node000001_Node000028" class="edge">
<title>Node1&#45;&gt;Node28</title>
<g id="a_edge40_Node000001_Node000028"><a xlink:title=" ">
<path fill="none" stroke="#63b8ff" d="M2258.41,-306.28C2203.06,-296.78 2120.15,-282.56 2058.65,-272.01"/>
<polygon fill="#63b8ff" stroke="#63b8ff" points="2257.97,-309.75 2268.42,-307.99 2259.15,-302.85 2257.97,-309.75"/>
</a>
</g>
</g>
<!-- Node30 -->
<g id="Node000030" class="node">
<title>Node30</title>
<g id="a_Node000030"><a xlink:href="_scene_frame_buffer_8hpp.html" target="_top" xlink:title=" ">
<polygon fill="white" stroke="#666666" points="2235,-272 2083,-272 2083,-242 2235,-242 2235,-272"/>
<text text-anchor="start" x="2091" y="-260" font-family="Helvetica,sans-Serif" font-size="10.00">src/Rendering/FrameBuffers</text>
<text text-anchor="middle" x="2159" y="-249" font-family="Helvetica,sans-Serif" font-size="10.00">/SceneFrameBuffer.hpp</text>
</a>
</g>
</g>
<!-- Node1&#45;&gt;Node30 -->
<g id="edge42_Node000001_Node000030" class="edge">
<title>Node1&#45;&gt;Node30</title>
<g id="a_edge42_Node000001_Node000030"><a xlink:title=" ">
<path fill="none" stroke="#63b8ff" d="M2285.27,-304.46C2259.7,-295.05 2224.11,-281.95 2197.23,-272.06"/>
<polygon fill="#63b8ff" stroke="#63b8ff" points="2284.29,-307.83 2294.88,-307.99 2286.7,-301.26 2284.29,-307.83"/>
</a>
</g>
</g>
<!-- Node34 -->
<g id="Node000034" class="node">
<title>Node34</title>
<g id="a_Node000034"><a xlink:href="_asset_utils_8cpp.html" target="_top" xlink:title=" ">
<polygon fill="white" stroke="#666666" points="2382.5,-266.5 2253.5,-266.5 2253.5,-247.5 2382.5,-247.5 2382.5,-266.5"/>
<text text-anchor="middle" x="2318" y="-254.5" font-family="Helvetica,sans-Serif" font-size="10.00">src/Utils/AssetUtils.cpp</text>
</a>
</g>
</g>
<!-- Node1&#45;&gt;Node34 -->
<g id="edge49_Node000001_Node000034" class="edge">
<title>Node1&#45;&gt;Node34</title>
<g id="a_edge49_Node000001_Node000034"><a xlink:title=" ">
<path fill="none" stroke="#63b8ff" d="M2318,-297.66C2318,-287.24 2318,-274.8 2318,-266.67"/>
<polygon fill="#63b8ff" stroke="#63b8ff" points="2314.5,-297.87 2318,-307.87 2321.5,-297.87 2314.5,-297.87"/>
</a>
</g>
</g>
<!-- Node35 -->
<g id="Node000035" class="node">
<title>Node35</title>
<g id="a_Node000035"><a xlink:href="_asset_selector_8hpp.html" target="_top" xlink:title=" ">
<polygon fill="white" stroke="#666666" points="2581,-266.5 2401,-266.5 2401,-247.5 2581,-247.5 2581,-266.5"/>
<text text-anchor="middle" x="2491" y="-254.5" font-family="Helvetica,sans-Serif" font-size="10.00">src/ui/Common/AssetSelector.hpp</text>
</a>
</g>
</g>
<!-- Node1&#45;&gt;Node35 -->
<g id="edge50_Node000001_Node000035" class="edge">
<title>Node1&#45;&gt;Node35</title>
<g id="a_edge50_Node000001_Node000035"><a xlink:title=" ">
<path fill="none" stroke="#63b8ff" d="M2352.98,-304.67C2386.44,-293.36 2436.08,-276.57 2465.81,-266.52"/>
<polygon fill="#63b8ff" stroke="#63b8ff" points="2351.51,-301.47 2343.16,-307.99 2353.75,-308.11 2351.51,-301.47"/>
</a>
</g>
</g>
<!-- Node36 -->
<g id="Node000036" class="node">
<title>Node36</title>
<g id="a_Node000036"><a xlink:href="_component_u_i_8hpp.html" target="_top" xlink:title=" ">
<polygon fill="white" stroke="#666666" points="2733,-266.5 2599,-266.5 2599,-247.5 2733,-247.5 2733,-266.5"/>
<text text-anchor="middle" x="2666" y="-254.5" font-family="Helvetica,sans-Serif" font-size="10.00">src/ui/ComponentUI.hpp</text>
</a>
</g>
</g>
<!-- Node1&#45;&gt;Node36 -->
<g id="edge51_Node000001_Node000036" class="edge">
<title>Node1&#45;&gt;Node36</title>
<g id="a_edge51_Node000001_Node000036"><a xlink:title=" ">
<path fill="none" stroke="#63b8ff" d="M2381.97,-306.41C2437.12,-297.61 2518.88,-284.37 2590,-272 2599.91,-270.28 2610.54,-268.36 2620.61,-266.51"/>
<polygon fill="#63b8ff" stroke="#63b8ff" points="2381.31,-302.97 2371.98,-307.99 2382.41,-309.88 2381.31,-302.97"/>
</a>
</g>
</g>
<!-- Node37 -->
<g id="Node000037" class="node">
<title>Node37</title>
<g id="a_Node000037"><a xlink:href="_console_widget_8hpp.html" target="_top" xlink:title="Contains the declaration of classes related to logging and a console user interface widget.">
<polygon fill="white" stroke="#666666" points="2933,-266.5 2751,-266.5 2751,-247.5 2933,-247.5 2933,-266.5"/>
<text text-anchor="middle" x="2842" y="-254.5" font-family="Helvetica,sans-Serif" font-size="10.00">src/ui/widgets/ConsoleWidget.hpp</text>
</a>
</g>
</g>
<!-- Node1&#45;&gt;Node37 -->
<g id="edge52_Node000001_Node000037" class="edge">
<title>Node1&#45;&gt;Node37</title>
<g id="a_edge52_Node000001_Node000037"><a xlink:title=" ">
<path fill="none" stroke="#63b8ff" d="M2410.16,-307.75C2496.12,-299.38 2627.87,-285.97 2742,-272 2755.49,-270.35 2769.97,-268.41 2783.61,-266.52"/>
<polygon fill="#63b8ff" stroke="#63b8ff" points="2409.79,-304.27 2400.17,-308.72 2410.46,-311.24 2409.79,-304.27"/>
</a>
</g>
</g>
<!-- Node38 -->
<g id="Node000038" class="node">
<title>Node38</title>
<g id="a_Node000038"><a xlink:href="_filesystem_widget_8hpp.html" target="_top" xlink:title="Contains the declaration of the FilesystemWidget class, a user interface widget for interacting with ...">
<polygon fill="white" stroke="#666666" points="3091,-272 2951,-272 2951,-242 3091,-242 3091,-272"/>
<text text-anchor="start" x="2959" y="-260" font-family="Helvetica,sans-Serif" font-size="10.00">src/ui/widgets/Filesystem</text>
<text text-anchor="middle" x="3021" y="-249" font-family="Helvetica,sans-Serif" font-size="10.00">Widget.hpp</text>
</a>
</g>
</g>
<!-- Node1&#45;&gt;Node38 -->
<g id="edge53_Node000001_Node000038" class="edge">
<title>Node1&#45;&gt;Node38</title>
<g id="a_edge53_Node000001_Node000038"><a xlink:title=" ">
<path fill="none" stroke="#63b8ff" d="M2410.08,-312.94C2532.08,-307.53 2753.82,-295.32 2942,-272 2944.9,-271.64 2947.86,-271.25 2950.85,-270.82"/>
<polygon fill="#63b8ff" stroke="#63b8ff" points="2409.87,-309.44 2400.03,-313.38 2410.18,-316.44 2409.87,-309.44"/>
</a>
</g>
</g>
<!-- Node39 -->
<g id="Node000039" class="node">
<title>Node39</title>
<g id="a_Node000039"><a xlink:href="_inspector_widget_8hpp.html" target="_top" xlink:title=" ">
<polygon fill="white" stroke="#666666" points="3241,-272 3109,-272 3109,-242 3241,-242 3241,-272"/>
<text text-anchor="start" x="3117" y="-260" font-family="Helvetica,sans-Serif" font-size="10.00">src/ui/widgets/Inspector</text>
<text text-anchor="middle" x="3175" y="-249" font-family="Helvetica,sans-Serif" font-size="10.00">Widget.hpp</text>
</a>
</g>
</g>
<!-- Node1&#45;&gt;Node39 -->
<g id="edge54_Node000001_Node000039" class="edge">
<title>Node1&#45;&gt;Node39</title>
<g id="a_edge54_Node000001_Node000039"><a xlink:title=" ">
<path fill="none" stroke="#63b8ff" d="M2410.51,-315.05C2557.21,-311.9 2851.99,-302.08 3100,-272 3102.89,-271.65 3105.84,-271.26 3108.82,-270.83"/>
<polygon fill="#63b8ff" stroke="#63b8ff" points="2410.13,-311.56 2400.21,-315.27 2410.28,-318.56 2410.13,-311.56"/>
</a>
</g>
</g>
<!-- Node3 -->
<g id="Node000003" class="node">
<title>Node3</title>
<g id="a_Node000003"><a xlink:href="_material_8cpp.html" target="_top" xlink:title=" ">
<polygon fill="white" stroke="#666666" points="510.5,-200.5 343.5,-200.5 343.5,-181.5 510.5,-181.5 510.5,-200.5"/>
<text text-anchor="middle" x="427" y="-188.5" font-family="Helvetica,sans-Serif" font-size="10.00">src/AssetManager/Material.cpp</text>
</a>
</g>
</g>
<!-- Node2&#45;&gt;Node3 -->
<g id="edge2_Node000002_Node000003" class="edge">
<title>Node2&#45;&gt;Node3</title>
<g id="a_edge2_Node000002_Node000003"><a xlink:title=" ">
<path fill="none" stroke="#63b8ff" d="M742.62,-245.72C668.93,-233.18 545.67,-212.2 477.02,-200.51"/>
<polygon fill="#63b8ff" stroke="#63b8ff" points="742.24,-249.21 752.68,-247.44 743.41,-242.31 742.24,-249.21"/>
</a>
</g>
</g>
<!-- Node4 -->
<g id="Node000004" class="node">
<title>Node4</title>
<g id="a_Node000004"><a xlink:href="_billboard_component_8hpp.html" target="_top" xlink:title=" ">
<polygon fill="white" stroke="#666666" points="970,-206 828,-206 828,-176 970,-176 970,-206"/>
<text text-anchor="start" x="836" y="-194" font-family="Helvetica,sans-Serif" font-size="10.00">src/Components/Billboard</text>
<text text-anchor="middle" x="899" y="-183" font-family="Helvetica,sans-Serif" font-size="10.00">Component.hpp</text>
</a>
</g>
</g>
<!-- Node2&#45;&gt;Node4 -->
<g id="edge3_Node000002_Node000004" class="edge">
<title>Node2&#45;&gt;Node4</title>
<g id="a_edge3_Node000002_Node000004"><a xlink:title=" ">
<path fill="none" stroke="#63b8ff" d="M824.58,-241.62C840.48,-231.01 862.02,-216.66 877.83,-206.12"/>
<polygon fill="#63b8ff" stroke="#63b8ff" points="822.33,-238.91 815.95,-247.37 826.21,-244.73 822.33,-238.91"/>
</a>
</g>
</g>
<!-- Node7 -->
<g id="Node000007" class="node">
<title>Node7</title>
<g id="a_Node000007"><a xlink:href="_billboard_component_u_i_8hpp.html" target="_top" xlink:title=" ">
<polygon fill="white" stroke="#666666" points="611,-140 457,-140 457,-110 611,-110 611,-140"/>
<text text-anchor="start" x="465" y="-128" font-family="Helvetica,sans-Serif" font-size="10.00">src/ui/Components/Billboard</text>
<text text-anchor="middle" x="534" y="-117" font-family="Helvetica,sans-Serif" font-size="10.00">ComponentUI.hpp</text>
</a>
</g>
</g>
<!-- Node2&#45;&gt;Node7 -->
<g id="edge31_Node000002_Node000007" class="edge">
<title>Node2&#45;&gt;Node7</title>
<g id="a_edge31_Node000002_Node000007"><a xlink:title=" ">
<path fill="none" stroke="#63b8ff" d="M708.85,-247.21C671.12,-240.3 628.7,-227.97 595,-206 569.54,-189.41 550.51,-158.41 540.93,-140.26"/>
<polygon fill="#63b8ff" stroke="#63b8ff" points="708.39,-250.68 718.84,-248.94 709.59,-243.79 708.39,-250.68"/>
</a>
</g>
</g>
<!-- Node9 -->
<g id="Node000009" class="node">
<title>Node9</title>
<g id="a_Node000009"><a xlink:href="_model_component_8hpp.html" target="_top" xlink:title=" ">
<polygon fill="white" stroke="#666666" points="810,-200.5 604,-200.5 604,-181.5 810,-181.5 810,-200.5"/>
<text text-anchor="middle" x="707" y="-188.5" font-family="Helvetica,sans-Serif" font-size="10.00">src/Components/ModelComponent.hpp</text>
</a>
</g>
</g>
<!-- Node2&#45;&gt;Node9 -->
<g id="edge8_Node000002_Node000009" class="edge">
<title>Node2&#45;&gt;Node9</title>
<g id="a_edge8_Node000002_Node000009"><a xlink:title=" ">
<path fill="none" stroke="#63b8ff" d="M781.52,-241.68C762.66,-229.11 735.84,-211.23 720.05,-200.7"/>
<polygon fill="#63b8ff" stroke="#63b8ff" points="779.79,-244.73 790.05,-247.37 783.67,-238.91 779.79,-244.73"/>
</a>
</g>
</g>
<!-- Node11 -->
<g id="Node000011" class="node">
<title>Node11</title>
<g id="a_Node000011"><a xlink:href="_model_component_u_i_8hpp.html" target="_top" xlink:title=" ">
<polygon fill="white" stroke="#666666" points="438.5,-140 241.5,-140 241.5,-110 438.5,-110 438.5,-140"/>
<text text-anchor="start" x="249.5" y="-128" font-family="Helvetica,sans-Serif" font-size="10.00">src/ui/Components/ModelComponent</text>
<text text-anchor="middle" x="340" y="-117" font-family="Helvetica,sans-Serif" font-size="10.00">UI.hpp</text>
</a>
</g>
</g>
<!-- Node2&#45;&gt;Node11 -->
<g id="edge32_Node000002_Node000011" class="edge">
<title>Node2&#45;&gt;Node11</title>
<g id="a_edge32_Node000002_Node000011"><a xlink:title=" ">
<path fill="none" stroke="#63b8ff" d="M711.83,-245.96C665.59,-238.68 609.35,-226.4 562,-206 540.6,-196.78 540.08,-185.94 519,-176 485,-159.96 444.88,-148.17 411.24,-140.07"/>
<polygon fill="#63b8ff" stroke="#63b8ff" points="711.43,-249.44 721.84,-247.48 712.48,-242.52 711.43,-249.44"/>
</a>
</g>
</g>
<!-- Node12 -->
<g id="Node000012" class="node">
<title>Node12</title>
<g id="a_Node000012"><a xlink:href="_overlay_model_component_8hpp.html" target="_top" xlink:title=" ">
<polygon fill="white" stroke="#666666" points="1343.5,-206 1176.5,-206 1176.5,-176 1343.5,-176 1343.5,-206"/>
<text text-anchor="start" x="1184.5" y="-194" font-family="Helvetica,sans-Serif" font-size="10.00">src/Components/OverlayModel</text>
<text text-anchor="middle" x="1260" y="-183" font-family="Helvetica,sans-Serif" font-size="10.00">Component.hpp</text>
</a>
</g>
</g>
<!-- Node2&#45;&gt;Node12 -->
<g id="edge14_Node000002_Node000012" class="edge">
<title>Node2&#45;&gt;Node12</title>
<g id="a_edge14_Node000002_Node000012"><a xlink:title=" ">
<path fill="none" stroke="#63b8ff" d="M876.91,-246.13C950.48,-236.24 1066.6,-220.45 1167,-206 1170.07,-205.56 1173.2,-205.1 1176.36,-204.64"/>
<polygon fill="#63b8ff" stroke="#63b8ff" points="876.26,-242.69 866.82,-247.49 877.19,-249.63 876.26,-242.69"/>
</a>
</g>
</g>
<!-- Node14 -->
<g id="Node000014" class="node">
<title>Node14</title>
<g id="a_Node000014"><a xlink:href="_particle_emitter_component_8hpp.html" target="_top" xlink:title=" ">
<polygon fill="white" stroke="#666666" points="1158,-206 988,-206 988,-176 1158,-176 1158,-206"/>
<text text-anchor="start" x="996" y="-194" font-family="Helvetica,sans-Serif" font-size="10.00">src/Components/ParticleEmitter</text>
<text text-anchor="middle" x="1073" y="-183" font-family="Helvetica,sans-Serif" font-size="10.00">Component.hpp</text>
</a>
</g>
</g>
<!-- Node2&#45;&gt;Node14 -->
<g id="edge18_Node000002_Node000014" class="edge">
<title>Node2&#45;&gt;Node14</title>
<g id="a_edge18_Node000002_Node000014"><a xlink:title=" ">
<path fill="none" stroke="#63b8ff" d="M849.02,-245.09C894.49,-234.31 964.26,-217.78 1013.83,-206.02"/>
<polygon fill="#63b8ff" stroke="#63b8ff" points="848.06,-241.72 839.13,-247.44 849.67,-248.53 848.06,-241.72"/>
</a>
</g>
</g>
<!-- Node21 -->
<g id="Node000021" class="node">
<title>Node21</title>
<g id="a_Node000021"><a xlink:href="_rendering_system_8hpp.html" target="_top" xlink:title=" ">
<polygon fill="white" stroke="#666666" points="1706,-200.5 1520,-200.5 1520,-181.5 1706,-181.5 1706,-200.5"/>
<text text-anchor="middle" x="1613" y="-188.5" font-family="Helvetica,sans-Serif" font-size="10.00">src/Systems/RenderingSystem.hpp</text>
</a>
</g>
</g>
<!-- Node2&#45;&gt;Node21 -->
<g id="edge28_Node000002_Node000021" class="edge">
<title>Node2&#45;&gt;Node21</title>
<g id="a_edge28_Node000002_Node000021"><a xlink:title=" ">
<path fill="none" stroke="#63b8ff" d="M897.44,-251.31C1033.34,-244.12 1291.81,-228.76 1511,-206 1525.58,-204.49 1541.28,-202.51 1555.9,-200.51"/>
<polygon fill="#63b8ff" stroke="#63b8ff" points="896.88,-247.84 887.08,-251.86 897.25,-254.83 896.88,-247.84"/>
</a>
</g>
</g>
<!-- Node22 -->
<g id="Node000022" class="node">
<title>Node22</title>
<g id="a_Node000022"><a xlink:href="_filesystem_widget_8cpp.html" target="_top" xlink:title=" ">
<polygon fill="white" stroke="#666666" points="1502,-206 1362,-206 1362,-176 1502,-176 1502,-206"/>
<text text-anchor="start" x="1370" y="-194" font-family="Helvetica,sans-Serif" font-size="10.00">src/ui/widgets/Filesystem</text>
<text text-anchor="middle" x="1432" y="-183" font-family="Helvetica,sans-Serif" font-size="10.00">Widget.cpp</text>
</a>
</g>
</g>
<!-- Node2&#45;&gt;Node22 -->
<g id="edge33_Node000002_Node000022" class="edge">
<title>Node2&#45;&gt;Node22</title>
<g id="a_edge33_Node000002_Node000022"><a xlink:title=" ">
<path fill="none" stroke="#63b8ff" d="M897.45,-249.77C1007.05,-242 1193.07,-227.11 1352,-206 1355.21,-205.57 1358.5,-205.11 1361.81,-204.62"/>
<polygon fill="#63b8ff" stroke="#63b8ff" points="897.15,-246.29 887.42,-250.48 897.64,-253.27 897.15,-246.29"/>
</a>
</g>
</g>
<!-- Node23 -->
<g id="Node000023" class="node">
<title>Node23</title>
<g id="a_Node000023"><a xlink:href="_inspector_widget_8cpp.html" target="_top" xlink:title=" ">
<polygon fill="white" stroke="#666666" points="132,-206 0,-206 0,-176 132,-176 132,-206"/>
<text text-anchor="start" x="8" y="-194" font-family="Helvetica,sans-Serif" font-size="10.00">src/ui/widgets/Inspector</text>
<text text-anchor="middle" x="66" y="-183" font-family="Helvetica,sans-Serif" font-size="10.00">Widget.cpp</text>
</a>
</g>
</g>
<!-- Node2&#45;&gt;Node23 -->
<g id="edge34_Node000002_Node000023" class="edge">
<title>Node2&#45;&gt;Node23</title>
<g id="a_edge34_Node000002_Node000023"><a xlink:title=" ">
<path fill="none" stroke="#63b8ff" d="M708.62,-252.12C579.9,-246.08 342.26,-232.31 141,-206 138.11,-205.62 135.16,-205.21 132.19,-204.76"/>
<polygon fill="#63b8ff" stroke="#63b8ff" points="708.68,-255.62 718.84,-252.59 709.01,-248.63 708.68,-255.62"/>
</a>
</g>
</g>
<!-- Node24 -->
<g id="Node000024" class="node">
<title>Node24</title>
<g id="a_Node000024"><a xlink:href="_profiler_widget_8cpp.html" target="_top" xlink:title=" ">
<polygon fill="white" stroke="#666666" points="326,-200.5 150,-200.5 150,-181.5 326,-181.5 326,-200.5"/>
<text text-anchor="middle" x="238" y="-188.5" font-family="Helvetica,sans-Serif" font-size="10.00">src/ui/widgets/ProfilerWidget.cpp</text>
</a>
</g>
</g>
<!-- Node2&#45;&gt;Node24 -->
<g id="edge35_Node000002_Node000024" class="edge">
<title>Node2&#45;&gt;Node24</title>
<g id="a_edge35_Node000002_Node000024"><a xlink:title=" ">
<path fill="none" stroke="#63b8ff" d="M708.45,-247C613.64,-237.72 463.53,-222.34 334,-206 320.97,-204.36 306.96,-202.41 293.79,-200.51"/>
<polygon fill="#63b8ff" stroke="#63b8ff" points="708.29,-250.5 718.59,-247.99 708.97,-243.54 708.29,-250.5"/>
</a>
</g>
</g>
<!-- Node5 -->
<g id="Node000005" class="node">
<title>Node5</title>
<g id="a_Node000005"><a xlink:href="_rendering_system_8cpp.html" target="_top" xlink:title=" ">
<polygon fill="white" stroke="#666666" points="1595.5,-134.5 1410.5,-134.5 1410.5,-115.5 1595.5,-115.5 1595.5,-134.5"/>
<text text-anchor="middle" x="1503" y="-122.5" font-family="Helvetica,sans-Serif" font-size="10.00">src/Systems/RenderingSystem.cpp</text>
</a>
</g>
</g>
<!-- Node4&#45;&gt;Node5 -->
<g id="edge4_Node000004_Node000005" class="edge">
<title>Node4&#45;&gt;Node5</title>
<g id="a_edge4_Node000004_Node000005"><a xlink:title=" ">
<path fill="none" stroke="#63b8ff" d="M980.23,-175.92C1167.41,-152.06 1217.21,-160.44 1401,-140 1415.21,-138.42 1430.5,-136.46 1444.81,-134.51"/>
<polygon fill="#63b8ff" stroke="#63b8ff" points="979.52,-172.48 970.05,-177.23 980.42,-179.42 979.52,-172.48"/>
</a>
</g>
</g>
<!-- Node6 -->
<g id="Node000006" class="node">
<title>Node6</title>
<g id="a_Node000006"><a xlink:href="main_8cpp.html" target="_top" xlink:title=" ">
<polygon fill="white" stroke="#666666" points="1036.5,-134.5 957.5,-134.5 957.5,-115.5 1036.5,-115.5 1036.5,-134.5"/>
<text text-anchor="middle" x="997" y="-122.5" font-family="Helvetica,sans-Serif" font-size="10.00">src/main.cpp</text>
</a>
</g>
</g>
<!-- Node4&#45;&gt;Node6 -->
<g id="edge5_Node000004_Node000006" class="edge">
<title>Node4&#45;&gt;Node6</title>
<g id="a_edge5_Node000004_Node000006"><a xlink:title=" ">
<path fill="none" stroke="#63b8ff" d="M929.32,-170.2C947.56,-158.29 969.85,-143.73 983.74,-134.66"/>
<polygon fill="#63b8ff" stroke="#63b8ff" points="927.21,-167.4 920.75,-175.8 931.04,-173.26 927.21,-167.4"/>
</a>
</g>
</g>
<!-- Node4&#45;&gt;Node7 -->
<g id="edge6_Node000004_Node000007" class="edge">
<title>Node4&#45;&gt;Node7</title>
<g id="a_edge6_Node000004_Node000007"><a xlink:title=" ">
<path fill="none" stroke="#63b8ff" d="M817.67,-175.74C755.96,-164.92 671.69,-150.14 611.05,-139.51"/>
<polygon fill="#63b8ff" stroke="#63b8ff" points="817.3,-179.23 827.76,-177.51 818.51,-172.33 817.3,-179.23"/>
</a>
</g>
</g>
<!-- Node8 -->
<g id="Node000008" class="node">
<title>Node8</title>
<g id="a_Node000008"><a xlink:href="_properties_widget_8cpp.html" target="_top" xlink:title=" ">
<polygon fill="white" stroke="#666666" points="939.5,-140 802.5,-140 802.5,-110 939.5,-110 939.5,-140"/>
<text text-anchor="start" x="810.5" y="-128" font-family="Helvetica,sans-Serif" font-size="10.00">src/ui/widgets/Properties</text>
<text text-anchor="middle" x="871" y="-117" font-family="Helvetica,sans-Serif" font-size="10.00">Widget.cpp</text>
</a>
</g>
</g>
<!-- Node4&#45;&gt;Node8 -->
<g id="edge7_Node000004_Node000008" class="edge">
<title>Node4&#45;&gt;Node8</title>
<g id="a_edge7_Node000004_Node000008"><a xlink:title=" ">
<path fill="none" stroke="#63b8ff" d="M888.67,-166.39C884.82,-157.59 880.57,-147.86 877.2,-140.16"/>
<polygon fill="#63b8ff" stroke="#63b8ff" points="885.57,-168.04 892.79,-175.8 891.98,-165.23 885.57,-168.04"/>
</a>
</g>
</g>
<!-- Node9&#45;&gt;Node5 -->
<g id="edge10_Node000009_Node000005" class="edge">
<title>Node9&#45;&gt;Node5</title>
<g id="a_edge10_Node000009_Node000005"><a xlink:title=" ">
<path fill="none" stroke="#63b8ff" d="M779.38,-180.28C792.55,-178.7 806.17,-177.2 819,-176 1077.04,-151.92 1143.11,-165.64 1401,-140 1415.76,-138.53 1431.68,-136.54 1446.44,-134.53"/>
<polygon fill="#63b8ff" stroke="#63b8ff" points="778.92,-176.81 769.42,-181.5 779.77,-183.76 778.92,-176.81"/>
</a>
</g>
</g>
<!-- Node9&#45;&gt;Node6 -->
<g id="edge11_Node000009_Node000006" class="edge">
<title>Node9&#45;&gt;Node6</title>
<g id="a_edge11_Node000009_Node000006"><a xlink:title=" ">
<path fill="none" stroke="#63b8ff" d="M763.52,-179.5C812.52,-170.1 885.25,-155.45 948,-140 954.61,-138.37 961.68,-136.46 968.33,-134.57"/>
<polygon fill="#63b8ff" stroke="#63b8ff" points="762.6,-176.11 753.43,-181.42 763.91,-182.99 762.6,-176.11"/>
</a>
</g>
</g>
<!-- Node9&#45;&gt;Node8 -->
<g id="edge13_Node000009_Node000008" class="edge">
<title>Node9&#45;&gt;Node8</title>
<g id="a_edge13_Node000009_Node000008"><a xlink:title=" ">
<path fill="none" stroke="#63b8ff" d="M738.66,-177.65C766.18,-166.9 806.05,-151.35 834.83,-140.12"/>
<polygon fill="#63b8ff" stroke="#63b8ff" points="737.16,-174.47 729.12,-181.37 739.71,-180.99 737.16,-174.47"/>
</a>
</g>
</g>
<!-- Node10 -->
<g id="Node000010" class="node">
<title>Node10</title>
<g id="a_Node000010"><a xlink:href="_object_selection_system_8cpp.html" target="_top" xlink:title=" ">
<polygon fill="white" stroke="#666666" points="784.5,-140 629.5,-140 629.5,-110 784.5,-110 784.5,-140"/>
<text text-anchor="start" x="637.5" y="-128" font-family="Helvetica,sans-Serif" font-size="10.00">src/Systems/ObjectSelection</text>
<text text-anchor="middle" x="707" y="-117" font-family="Helvetica,sans-Serif" font-size="10.00">System.cpp</text>
</a>
</g>
</g>
<!-- Node9&#45;&gt;Node10 -->
<g id="edge9_Node000009_Node000010" class="edge">
<title>Node9&#45;&gt;Node10</title>
<g id="a_edge9_Node000009_Node000010"><a xlink:title=" ">
<path fill="none" stroke="#63b8ff" d="M707,-171.35C707,-161.47 707,-149.51 707,-140.36"/>
<polygon fill="#63b8ff" stroke="#63b8ff" points="703.5,-171.37 707,-181.37 710.5,-171.37 703.5,-171.37"/>
</a>
</g>
</g>
<!-- Node9&#45;&gt;Node11 -->
<g id="edge12_Node000009_Node000011" class="edge">
<title>Node9&#45;&gt;Node11</title>
<g id="a_edge12_Node000009_Node000011"><a xlink:title=" ">
<path fill="none" stroke="#63b8ff" d="M647.92,-179.7C586.24,-168.94 489.08,-152 420.42,-140.02"/>
<polygon fill="#63b8ff" stroke="#63b8ff" points="647.43,-183.17 657.89,-181.44 648.64,-176.27 647.43,-183.17"/>
</a>
</g>
</g>
<!-- Node12&#45;&gt;Node5 -->
<g id="edge16_Node000012_Node000005" class="edge">
<title>Node12&#45;&gt;Node5</title>
<g id="a_edge16_Node000012_Node000005"><a xlink:title=" ">
<path fill="none" stroke="#63b8ff" d="M1323.17,-173.36C1370.44,-160.91 1433.16,-144.4 1470.66,-134.52"/>
<polygon fill="#63b8ff" stroke="#63b8ff" points="1322.11,-170.02 1313.33,-175.95 1323.89,-176.79 1322.11,-170.02"/>
</a>
</g>
</g>
<!-- Node12&#45;&gt;Node6 -->
<g id="edge17_Node000012_Node000006" class="edge">
<title>Node12&#45;&gt;Node6</title>
<g id="a_edge17_Node000012_Node000006"><a xlink:title=" ">
<path fill="none" stroke="#63b8ff" d="M1185.57,-173.75C1144.06,-164.43 1091.5,-152.18 1045,-140 1038.62,-138.33 1031.79,-136.42 1025.35,-134.55"/>
<polygon fill="#63b8ff" stroke="#63b8ff" points="1184.8,-177.17 1195.33,-175.94 1186.33,-170.34 1184.8,-177.17"/>
</a>
</g>
</g>
<!-- Node13 -->
<g id="Node000013" class="node">
<title>Node13</title>
<g id="a_Node000013"><a xlink:href="_gizmo_system_8cpp.html" target="_top" xlink:title=" ">
<polygon fill="white" stroke="#666666" points="1780.5,-134.5 1613.5,-134.5 1613.5,-115.5 1780.5,-115.5 1780.5,-134.5"/>
<text text-anchor="middle" x="1697" y="-122.5" font-family="Helvetica,sans-Serif" font-size="10.00">src/Systems/GizmoSystem.cpp</text>
</a>
</g>
</g>
<!-- Node12&#45;&gt;Node13 -->
<g id="edge15_Node000012_Node000013" class="edge">
<title>Node12&#45;&gt;Node13</title>
<g id="a_edge15_Node000012_Node000013"><a xlink:title=" ">
<path fill="none" stroke="#63b8ff" d="M1353.7,-175.9C1466.15,-159.42 1495.66,-155.92 1604,-140 1615.95,-138.24 1628.77,-136.33 1640.95,-134.5"/>
<polygon fill="#63b8ff" stroke="#63b8ff" points="1353.03,-172.46 1343.65,-177.38 1354.05,-179.39 1353.03,-172.46"/>
</a>
</g>
</g>
<!-- Node14&#45;&gt;Node5 -->
<g id="edge24_Node000014_Node000005" class="edge">
<title>Node14&#45;&gt;Node5</title>
<g id="a_edge24_Node000014_Node000005"><a xlink:title=" ">
<path fill="none" stroke="#63b8ff" d="M1168.09,-175.84C1271.93,-160.38 1380.83,-144.18 1445.63,-134.54"/>
<polygon fill="#63b8ff" stroke="#63b8ff" points="1167.43,-172.4 1158.05,-177.33 1168.46,-179.32 1167.43,-172.4"/>
</a>
</g>
</g>
<!-- Node14&#45;&gt;Node6 -->
<g id="edge25_Node000014_Node000006" class="edge">
<title>Node14&#45;&gt;Node6</title>
<g id="a_edge25_Node000014_Node000006"><a xlink:title=" ">
<path fill="none" stroke="#63b8ff" d="M1048.37,-169.26C1034.54,-157.61 1018.01,-143.69 1007.5,-134.84"/>
<polygon fill="#63b8ff" stroke="#63b8ff" points="1046.23,-172.03 1056.13,-175.8 1050.74,-166.68 1046.23,-172.03"/>
</a>
</g>
</g>
<!-- Node14&#45;&gt;Node8 -->
<g id="edge27_Node000014_Node000008" class="edge">
<title>Node14&#45;&gt;Node8</title>
<g id="a_edge27_Node000014_Node000008"><a xlink:title=" ">
<path fill="none" stroke="#63b8ff" d="M1018.89,-172.86C986.45,-162.58 945.73,-149.68 915.23,-140.01"/>
<polygon fill="#63b8ff" stroke="#63b8ff" points="1018.08,-176.27 1028.67,-175.95 1020.19,-169.6 1018.08,-176.27"/>
</a>
</g>
</g>
<!-- Node15 -->
<g id="Node000015" class="node">
<title>Node15</title>
<g id="a_Node000015"><a xlink:href="_particle_system_8hpp.html" target="_top" xlink:title=" ">
<polygon fill="white" stroke="#666666" points="1227.5,-134.5 1054.5,-134.5 1054.5,-115.5 1227.5,-115.5 1227.5,-134.5"/>
<text text-anchor="middle" x="1141" y="-122.5" font-family="Helvetica,sans-Serif" font-size="10.00">src/Systems/ParticleSystem.hpp</text>
</a>
</g>
</g>
<!-- Node14&#45;&gt;Node15 -->
<g id="edge19_Node000014_Node000015" class="edge">
<title>Node14&#45;&gt;Node15</title>
<g id="a_edge19_Node000014_Node000015"><a xlink:title=" ">
<path fill="none" stroke="#63b8ff" d="M1095.38,-168.93C1107.69,-157.35 1122.29,-143.61 1131.6,-134.84"/>
<polygon fill="#63b8ff" stroke="#63b8ff" points="1092.97,-166.39 1088.09,-175.8 1097.77,-171.49 1092.97,-166.39"/>
</a>
</g>
</g>
<!-- Node20 -->
<g id="Node000020" class="node">
<title>Node20</title>
<g id="a_Node000020"><a xlink:href="_particle_emitter_component_u_i_8hpp.html" target="_top" xlink:title=" ">
<polygon fill="white" stroke="#666666" points="1392,-140 1246,-140 1246,-110 1392,-110 1392,-140"/>
<text text-anchor="start" x="1254" y="-128" font-family="Helvetica,sans-Serif" font-size="10.00">src/ui/Components/Particle</text>
<text text-anchor="middle" x="1319" y="-117" font-family="Helvetica,sans-Serif" font-size="10.00">EmitterComponentUI.hpp</text>
</a>
</g>
</g>
<!-- Node14&#45;&gt;Node20 -->
<g id="edge26_Node000014_Node000020" class="edge">
<title>Node14&#45;&gt;Node20</title>
<g id="a_edge26_Node000014_Node000020"><a xlink:title=" ">
<path fill="none" stroke="#63b8ff" d="M1136.86,-173.39C1176.68,-163.03 1227.36,-149.84 1265.14,-140.01"/>
<polygon fill="#63b8ff" stroke="#63b8ff" points="1135.78,-170.05 1126.99,-175.95 1137.54,-176.82 1135.78,-170.05"/>
</a>
</g>
</g>
<!-- Node16 -->
<g id="Node000016" class="node">
<title>Node16</title>
<g id="a_Node000016"><a xlink:href="_runtime_8hpp.html" target="_top" xlink:title=" ">
<polygon fill="white" stroke="#666666" points="1878,-74 1738,-74 1738,-55 1878,-55 1878,-74"/>
<text text-anchor="middle" x="1808" y="-62" font-family="Helvetica,sans-Serif" font-size="10.00">src/Runtime/Runtime.hpp</text>
</a>
</g>
</g>
<!-- Node15&#45;&gt;Node16 -->
<g id="edge20_Node000015_Node000016" class="edge">
<title>Node15&#45;&gt;Node16</title>
<g id="a_edge20_Node000015_Node000016"><a xlink:title=" ">
<path fill="none" stroke="#63b8ff" d="M1205.08,-114.05C1215.72,-112.57 1226.66,-111.16 1237,-110 1417.09,-89.87 1630.16,-75.85 1737.98,-69.44"/>
<polygon fill="#63b8ff" stroke="#63b8ff" points="1204.4,-110.61 1194.99,-115.48 1205.38,-117.54 1204.4,-110.61"/>
</a>
</g>
</g>
<!-- Node19 -->
<g id="Node000019" class="node">
<title>Node19</title>
<g id="a_Node000019"><a xlink:href="_particle_system_8cpp.html" target="_top" xlink:title=" ">
<polygon fill="white" stroke="#666666" points="1227,-74 1055,-74 1055,-55 1227,-55 1227,-74"/>
<text text-anchor="middle" x="1141" y="-62" font-family="Helvetica,sans-Serif" font-size="10.00">src/Systems/ParticleSystem.cpp</text>
</a>
</g>
</g>
<!-- Node15&#45;&gt;Node19 -->
<g id="edge23_Node000015_Node000019" class="edge">
<title>Node15&#45;&gt;Node19</title>
<g id="a_edge23_Node000015_Node000019"><a xlink:title=" ">
<path fill="none" stroke="#63b8ff" d="M1141,-105.16C1141,-94.74 1141,-82.3 1141,-74.17"/>
<polygon fill="#63b8ff" stroke="#63b8ff" points="1137.5,-105.37 1141,-115.37 1144.5,-105.37 1137.5,-105.37"/>
</a>
</g>
</g>
<!-- Node17 -->
<g id="Node000017" class="node">
<title>Node17</title>
<g id="a_Node000017"><a xlink:href="_runtime_8cpp.html" target="_top" xlink:title=" ">
<polygon fill="white" stroke="#666666" points="1791,-19 1651,-19 1651,0 1791,0 1791,-19"/>
<text text-anchor="middle" x="1721" y="-7" font-family="Helvetica,sans-Serif" font-size="10.00">src/Runtime/Runtime.cpp</text>
</a>
</g>
</g>
<!-- Node16&#45;&gt;Node17 -->
<g id="edge21_Node000016_Node000017" class="edge">
<title>Node16&#45;&gt;Node17</title>
<g id="a_edge21_Node000016_Node000017"><a xlink:title=" ">
<path fill="none" stroke="#63b8ff" d="M1785.34,-49.7C1769.49,-40.04 1748.81,-27.44 1735.23,-19.17"/>
<polygon fill="#63b8ff" stroke="#63b8ff" points="1783.66,-52.77 1794.02,-54.98 1787.3,-46.79 1783.66,-52.77"/>
</a>
</g>
</g>
<!-- Node18 -->
<g id="Node000018" class="node">
<title>Node18</title>
<g id="a_Node000018"><a xlink:href="_scene_widget_8hpp.html" target="_top" xlink:title="Contains the declaration of the SceneWidget class, a user interface widget for rendering scenes.">
<polygon fill="white" stroke="#666666" points="1981,-19 1809,-19 1809,0 1981,0 1981,-19"/>
<text text-anchor="middle" x="1895" y="-7" font-family="Helvetica,sans-Serif" font-size="10.00">src/ui/widgets/SceneWidget.hpp</text>
</a>
</g>
</g>
<!-- Node16&#45;&gt;Node18 -->
<g id="edge22_Node000016_Node000018" class="edge">
<title>Node16&#45;&gt;Node18</title>
<g id="a_edge22_Node000016_Node000018"><a xlink:title=" ">
<path fill="none" stroke="#63b8ff" d="M1830.66,-49.7C1846.51,-40.04 1867.19,-27.44 1880.77,-19.17"/>
<polygon fill="#63b8ff" stroke="#63b8ff" points="1828.7,-46.79 1821.98,-54.98 1832.34,-52.77 1828.7,-46.79"/>
</a>
</g>
</g>
<!-- Node21&#45;&gt;Node5 -->
<g id="edge30_Node000021_Node000005" class="edge">
<title>Node21&#45;&gt;Node5</title>
<g id="a_edge30_Node000021_Node000005"><a xlink:title=" ">
<path fill="none" stroke="#63b8ff" d="M1589.26,-176.19C1567.62,-163.59 1536.29,-145.37 1517.95,-134.7"/>
<polygon fill="#63b8ff" stroke="#63b8ff" points="1587.76,-179.36 1598.16,-181.37 1591.28,-173.31 1587.76,-179.36"/>
</a>
</g>
</g>
<!-- Node21&#45;&gt;Node16 -->
<g id="edge29_Node000021_Node000016" class="edge">
<title>Node21&#45;&gt;Node16</title>
<g id="a_edge29_Node000021_Node000016"><a xlink:title=" ">
<path fill="none" stroke="#63b8ff" d="M1673.21,-179.52C1717.54,-170.62 1772.78,-156.67 1789,-140 1806.69,-121.83 1808.59,-89.59 1808.39,-74.18"/>
<polygon fill="#63b8ff" stroke="#63b8ff" points="1672.51,-176.09 1663.37,-181.45 1673.85,-182.96 1672.51,-176.09"/>
</a>
</g>
</g>
<!-- Node26&#45;&gt;Node21 -->
<g id="edge39_Node000026_Node000021" class="edge">
<title>Node26&#45;&gt;Node21</title>
<g id="a_edge39_Node000026_Node000021"><a xlink:title=" ">
<path fill="none" stroke="#63b8ff" d="M1744.73,-238.58C1709.79,-226.23 1664.44,-210.19 1637.09,-200.52"/>
<polygon fill="#63b8ff" stroke="#63b8ff" points="1743.68,-241.92 1754.28,-241.95 1746.02,-235.32 1743.68,-241.92"/>
</a>
</g>
</g>
<!-- Node27 -->
<g id="Node000027" class="node">
<title>Node27</title>
<g id="a_Node000027"><a xlink:href="_depth_atlas_frame_buffer_8cpp.html" target="_top" xlink:title=" ">
<polygon fill="white" stroke="#666666" points="1877.5,-206 1724.5,-206 1724.5,-176 1877.5,-176 1877.5,-206"/>
<text text-anchor="start" x="1732.5" y="-194" font-family="Helvetica,sans-Serif" font-size="10.00">src/Rendering/FrameBuffers</text>
<text text-anchor="middle" x="1801" y="-183" font-family="Helvetica,sans-Serif" font-size="10.00">/DepthAtlasFrameBuffer.cpp</text>
</a>
</g>
</g>
<!-- Node26&#45;&gt;Node27 -->
<g id="edge38_Node000026_Node000027" class="edge">
<title>Node26&#45;&gt;Node27</title>
<g id="a_edge38_Node000026_Node000027"><a xlink:title=" ">
<path fill="none" stroke="#63b8ff" d="M1796.64,-231.83C1797.59,-223.17 1798.63,-213.7 1799.45,-206.16"/>
<polygon fill="#63b8ff" stroke="#63b8ff" points="1793.16,-231.48 1795.55,-241.8 1800.12,-232.24 1793.16,-231.48"/>
</a>
</g>
</g>
<!-- Node29 -->
<g id="Node000029" class="node">
<title>Node29</title>
<g id="a_Node000029"><a xlink:href="_depth_cube_map_frame_buffer_8cpp.html" target="_top" xlink:title=" ">
<polygon fill="white" stroke="#666666" points="2070,-206 1896,-206 1896,-176 2070,-176 2070,-206"/>
<text text-anchor="start" x="1904" y="-194" font-family="Helvetica,sans-Serif" font-size="10.00">src/Rendering/FrameBuffers</text>
<text text-anchor="middle" x="1983" y="-183" font-family="Helvetica,sans-Serif" font-size="10.00">/DepthCubeMapFrameBuffer.cpp</text>
</a>
</g>
</g>
<!-- Node28&#45;&gt;Node29 -->
<g id="edge41_Node000028_Node000029" class="edge">
<title>Node28&#45;&gt;Node29</title>
<g id="a_edge41_Node000028_Node000029"><a xlink:title=" ">
<path fill="none" stroke="#63b8ff" d="M1979.27,-231.83C1980.08,-223.17 1980.97,-213.7 1981.67,-206.16"/>
<polygon fill="#63b8ff" stroke="#63b8ff" points="1975.78,-231.51 1978.33,-241.8 1982.75,-232.17 1975.78,-231.51"/>
</a>
</g>
</g>
<!-- Node30&#45;&gt;Node16 -->
<g id="edge47_Node000030_Node000016" class="edge">
<title>Node30&#45;&gt;Node16</title>
<g id="a_edge47_Node000030_Node000016"><a xlink:title=" ">
<path fill="none" stroke="#63b8ff" d="M2245.31,-240.5C2311.36,-228.22 2392.02,-212.14 2397,-206 2405.4,-195.65 2404.53,-187 2397,-176 2339.12,-91.43 2021.53,-71.58 1878.21,-66.93"/>
<polygon fill="#63b8ff" stroke="#63b8ff" points="2244.46,-237.09 2235.26,-242.36 2245.73,-243.98 2244.46,-237.09"/>
</a>
</g>
</g>
<!-- Node30&#45;&gt;Node21 -->
<g id="edge48_Node000030_Node000021" class="edge">
<title>Node30&#45;&gt;Node21</title>
<g id="a_edge48_Node000030_Node000021"><a xlink:title=" ">
<path fill="none" stroke="#63b8ff" d="M2072.43,-241.84C1913.31,-221.11 1870.97,-224.52 1715,-206 1701.16,-204.36 1686.28,-202.41 1672.28,-200.51"/>
<polygon fill="#63b8ff" stroke="#63b8ff" points="2072.21,-245.35 2082.58,-243.18 2073.12,-238.4 2072.21,-245.35"/>
</a>
</g>
</g>
<!-- Node31 -->
<g id="Node000031" class="node">
<title>Node31</title>
<g id="a_Node000031"><a xlink:href="_scene_frame_buffer_8cpp.html" target="_top" xlink:title=" ">
<polygon fill="white" stroke="#666666" points="2388,-206 2236,-206 2236,-176 2388,-176 2388,-206"/>
<text text-anchor="start" x="2244" y="-194" font-family="Helvetica,sans-Serif" font-size="10.00">src/Rendering/FrameBuffers</text>
<text text-anchor="middle" x="2312" y="-183" font-family="Helvetica,sans-Serif" font-size="10.00">/SceneFrameBuffer.cpp</text>
</a>
</g>
</g>
<!-- Node30&#45;&gt;Node31 -->
<g id="edge43_Node000030_Node000031" class="edge">
<title>Node30&#45;&gt;Node31</title>
<g id="a_edge43_Node000030_Node000031"><a xlink:title=" ">
<path fill="none" stroke="#63b8ff" d="M2201.9,-238.05C2226.14,-227.91 2256,-215.43 2278.5,-206.01"/>
<polygon fill="#63b8ff" stroke="#63b8ff" points="2200.45,-234.87 2192.58,-241.95 2203.15,-241.32 2200.45,-234.87"/>
</a>
</g>
</g>
<!-- Node32 -->
<g id="Node000032" class="node">
<title>Node32</title>
<g id="a_Node000032"><a xlink:href="_rendering_2_utils_8hpp.html" target="_top" xlink:title=" ">
<polygon fill="white" stroke="#666666" points="2218,-200.5 2088,-200.5 2088,-181.5 2218,-181.5 2218,-200.5"/>
<text text-anchor="middle" x="2153" y="-188.5" font-family="Helvetica,sans-Serif" font-size="10.00">src/Rendering/Utils.hpp</text>
</a>
</g>
</g>
<!-- Node30&#45;&gt;Node32 -->
<g id="edge44_Node000030_Node000032" class="edge">
<title>Node30&#45;&gt;Node32</title>
<g id="a_edge44_Node000030_Node000032"><a xlink:title=" ">
<path fill="none" stroke="#63b8ff" d="M2156.71,-231.6C2155.7,-220.8 2154.57,-208.78 2153.83,-200.84"/>
<polygon fill="#63b8ff" stroke="#63b8ff" points="2153.25,-232.17 2157.67,-241.8 2160.22,-231.51 2153.25,-232.17"/>
</a>
</g>
</g>
<!-- Node32&#45;&gt;Node5 -->
<g id="edge46_Node000032_Node000005" class="edge">
<title>Node32&#45;&gt;Node5</title>
<g id="a_edge46_Node000032_Node000005"><a xlink:title=" ">
<path fill="none" stroke="#63b8ff" d="M2102.33,-179.64C2094.54,-178.27 2086.57,-177 2079,-176 1869.11,-148.28 1814.51,-162.55 1604,-140 1589.65,-138.46 1574.21,-136.49 1559.81,-134.51"/>
<polygon fill="#63b8ff" stroke="#63b8ff" points="2101.95,-183.13 2112.42,-181.48 2103.21,-176.24 2101.95,-183.13"/>
</a>
</g>
</g>
<!-- Node33 -->
<g id="Node000033" class="node">
<title>Node33</title>
<g id="a_Node000033"><a xlink:href="_rendering_2_utils_8cpp.html" target="_top" xlink:title=" ">
<polygon fill="white" stroke="#666666" points="2217.5,-134.5 2088.5,-134.5 2088.5,-115.5 2217.5,-115.5 2217.5,-134.5"/>
<text text-anchor="middle" x="2153" y="-122.5" font-family="Helvetica,sans-Serif" font-size="10.00">src/Rendering/Utils.cpp</text>
</a>
</g>
</g>
<!-- Node32&#45;&gt;Node33 -->
<g id="edge45_Node000032_Node000033" class="edge">
<title>Node32&#45;&gt;Node33</title>
<g id="a_edge45_Node000032_Node000033"><a xlink:title=" ">
<path fill="none" stroke="#63b8ff" d="M2153,-171.08C2153,-159.13 2153,-144.22 2153,-134.91"/>
<polygon fill="#63b8ff" stroke="#63b8ff" points="2149.5,-171.37 2153,-181.37 2156.5,-171.37 2149.5,-171.37"/>
</a>
</g>
</g>
</g>
</svg>
