<?xml version="1.0" encoding="UTF-8" standalone="no"?>
<!DOCTYPE svg PUBLIC "-//W3C//DTD SVG 1.1//EN"
 "http://www.w3.org/Graphics/SVG/1.1/DTD/svg11.dtd">
<!-- Generated by graphviz version 2.43.0 (0)
 -->
<!-- Title: src/Rendering/Texture.hpp Pages: 1 -->
<svg width="727pt" height="252pt"
 viewBox="0.00 0.00 727.00 252.00" xmlns="http://www.w3.org/2000/svg" xmlns:xlink="http://www.w3.org/1999/xlink">
<g id="graph0" class="graph" transform="scale(1 1) rotate(0) translate(4 248)">
<title>src/Rendering/Texture.hpp</title>
<polygon fill="white" stroke="transparent" points="-4,4 -4,-248 723,-248 723,4 -4,4"/>
<!-- Node1 -->
<g id="node1" class="node">
<title>Node1</title>
<g id="a_node1"><a xlink:title=" ">
<polygon fill="#bfbfbf" stroke="black" points="351.5,-224.5 351.5,-243.5 494.5,-243.5 494.5,-224.5 351.5,-224.5"/>
<text text-anchor="middle" x="423" y="-231.5" font-family="Helvetica,sans-Serif" font-size="10.00">src/Rendering/Texture.hpp</text>
</a>
</g>
</g>
<!-- Node2 -->
<g id="node2" class="node">
<title>Node2</title>
<g id="a_node2"><a xlink:href="_frame_buffer_8hpp.html" target="_top" xlink:title=" ">
<polygon fill="white" stroke="black" points="253.5,-168.5 253.5,-187.5 420.5,-187.5 420.5,-168.5 253.5,-168.5"/>
<text text-anchor="middle" x="337" y="-175.5" font-family="Helvetica,sans-Serif" font-size="10.00">src/Rendering/FrameBuffer.hpp</text>
</a>
</g>
</g>
<!-- Node1&#45;&gt;Node2 -->
<g id="edge1" class="edge">
<title>Node1&#45;&gt;Node2</title>
<path fill="none" stroke="midnightblue" d="M400.55,-218.9C384.78,-209 364.19,-196.07 350.78,-187.65"/>
<polygon fill="midnightblue" stroke="midnightblue" points="398.85,-221.97 409.18,-224.32 402.57,-216.04 398.85,-221.97"/>
</g>
<!-- Node11 -->
<g id="node11" class="node">
<title>Node11</title>
<g id="a_node11"><a xlink:href="_texture_8cpp.html" target="_top" xlink:title=" ">
<polygon fill="white" stroke="black" points="438.5,-168.5 438.5,-187.5 581.5,-187.5 581.5,-168.5 438.5,-168.5"/>
<text text-anchor="middle" x="510" y="-175.5" font-family="Helvetica,sans-Serif" font-size="10.00">src/Rendering/Texture.cpp</text>
</a>
</g>
</g>
<!-- Node1&#45;&gt;Node11 -->
<g id="edge12" class="edge">
<title>Node1&#45;&gt;Node11</title>
<path fill="none" stroke="midnightblue" d="M445.72,-218.9C461.67,-209 482.5,-196.07 496.06,-187.65"/>
<polygon fill="midnightblue" stroke="midnightblue" points="443.63,-216.08 436.98,-224.32 447.32,-222.02 443.63,-216.08"/>
</g>
<!-- Node3 -->
<g id="node3" class="node">
<title>Node3</title>
<g id="a_node3"><a xlink:href="_frame_buffer_8cpp.html" target="_top" xlink:title=" ">
<polygon fill="white" stroke="black" points="0,-112.5 0,-131.5 166,-131.5 166,-112.5 0,-112.5"/>
<text text-anchor="middle" x="83" y="-119.5" font-family="Helvetica,sans-Serif" font-size="10.00">src/Rendering/FrameBuffer.cpp</text>
</a>
</g>
</g>
<!-- Node2&#45;&gt;Node3 -->
<g id="edge2" class="edge">
<title>Node2&#45;&gt;Node3</title>
<path fill="none" stroke="midnightblue" d="M286.88,-166.35C238.88,-156.14 167.38,-140.94 123.06,-131.52"/>
<polygon fill="midnightblue" stroke="midnightblue" points="286.24,-169.79 296.75,-168.44 287.7,-162.94 286.24,-169.79"/>
</g>
<!-- Node4 -->
<g id="node4" class="node">
<title>Node4</title>
<g id="a_node4"><a xlink:href="_utils_8hpp.html" target="_top" xlink:title=" ">
<polygon fill="white" stroke="black" points="184,-112.5 184,-131.5 314,-131.5 314,-112.5 184,-112.5"/>
<text text-anchor="middle" x="249" y="-119.5" font-family="Helvetica,sans-Serif" font-size="10.00">src/Rendering/Utils.hpp</text>
</a>
</g>
</g>
<!-- Node2&#45;&gt;Node4 -->
<g id="edge3" class="edge">
<title>Node2&#45;&gt;Node4</title>
<path fill="none" stroke="midnightblue" d="M314.02,-162.9C297.89,-153 276.82,-140.07 263.1,-131.65"/>
<polygon fill="midnightblue" stroke="midnightblue" points="312.51,-166.08 322.86,-168.32 316.17,-160.11 312.51,-166.08"/>
</g>
<!-- Node7 -->
<g id="node7" class="node">
<title>Node7</title>
<g id="a_node7"><a xlink:href="_runtime_8hpp.html" target="_top" xlink:title=" ">
<polygon fill="white" stroke="black" points="476,-56.5 476,-75.5 616,-75.5 616,-56.5 476,-56.5"/>
<text text-anchor="middle" x="546" y="-63.5" font-family="Helvetica,sans-Serif" font-size="10.00">src/Runtime/Runtime.hpp</text>
</a>
</g>
</g>
<!-- Node2&#45;&gt;Node7 -->
<g id="edge6" class="edge">
<title>Node2&#45;&gt;Node7</title>
<path fill="none" stroke="midnightblue" d="M413.76,-166.79C458.98,-159.29 510.49,-147.68 527,-132 542.86,-116.94 545.7,-89.45 546.07,-75.54"/>
<polygon fill="midnightblue" stroke="midnightblue" points="412.94,-163.38 403.62,-168.42 414.05,-170.29 412.94,-163.38"/>
</g>
<!-- Node10 -->
<g id="node10" class="node">
<title>Node10</title>
<g id="a_node10"><a xlink:href="_rendering_system_8hpp.html" target="_top" xlink:title=" ">
<polygon fill="white" stroke="black" points="332,-112.5 332,-131.5 518,-131.5 518,-112.5 332,-112.5"/>
<text text-anchor="middle" x="425" y="-119.5" font-family="Helvetica,sans-Serif" font-size="10.00">src/Systems/RenderingSystem.hpp</text>
</a>
</g>
</g>
<!-- Node2&#45;&gt;Node10 -->
<g id="edge9" class="edge">
<title>Node2&#45;&gt;Node10</title>
<path fill="none" stroke="midnightblue" d="M359.98,-162.9C376.11,-153 397.18,-140.07 410.9,-131.65"/>
<polygon fill="midnightblue" stroke="midnightblue" points="357.83,-160.11 351.14,-168.32 361.49,-166.08 357.83,-160.11"/>
</g>
<!-- Node5 -->
<g id="node5" class="node">
<title>Node5</title>
<g id="a_node5"><a xlink:href="_utils_8cpp.html" target="_top" xlink:title=" ">
<polygon fill="white" stroke="black" points="125.5,-56.5 125.5,-75.5 254.5,-75.5 254.5,-56.5 125.5,-56.5"/>
<text text-anchor="middle" x="190" y="-63.5" font-family="Helvetica,sans-Serif" font-size="10.00">src/Rendering/Utils.cpp</text>
</a>
</g>
</g>
<!-- Node4&#45;&gt;Node5 -->
<g id="edge4" class="edge">
<title>Node4&#45;&gt;Node5</title>
<path fill="none" stroke="midnightblue" d="M232.11,-105.54C221.59,-95.91 208.43,-83.87 199.65,-75.83"/>
<polygon fill="midnightblue" stroke="midnightblue" points="229.78,-108.15 239.52,-112.32 234.51,-102.99 229.78,-108.15"/>
</g>
<!-- Node6 -->
<g id="node6" class="node">
<title>Node6</title>
<g id="a_node6"><a xlink:href="_rendering_system_8cpp.html" target="_top" xlink:title=" ">
<polygon fill="white" stroke="black" points="272.5,-56.5 272.5,-75.5 457.5,-75.5 457.5,-56.5 272.5,-56.5"/>
<text text-anchor="middle" x="365" y="-63.5" font-family="Helvetica,sans-Serif" font-size="10.00">src/Systems/RenderingSystem.cpp</text>
</a>
</g>
</g>
<!-- Node4&#45;&gt;Node6 -->
<g id="edge5" class="edge">
<title>Node4&#45;&gt;Node6</title>
<path fill="none" stroke="midnightblue" d="M276.72,-108.1C298.39,-98.01 327.9,-84.27 346.71,-75.52"/>
<polygon fill="midnightblue" stroke="midnightblue" points="274.97,-105.05 267.38,-112.44 277.92,-111.4 274.97,-105.05"/>
</g>
<!-- Node8 -->
<g id="node8" class="node">
<title>Node8</title>
<g id="a_node8"><a xlink:href="_runtime_8cpp.html" target="_top" xlink:title=" ">
<polygon fill="white" stroke="black" points="389,-0.5 389,-19.5 529,-19.5 529,-0.5 389,-0.5"/>
<text text-anchor="middle" x="459" y="-7.5" font-family="Helvetica,sans-Serif" font-size="10.00">src/Runtime/Runtime.cpp</text>
</a>
</g>
</g>
<!-- Node7&#45;&gt;Node8 -->
<g id="edge7" class="edge">
<title>Node7&#45;&gt;Node8</title>
<path fill="none" stroke="midnightblue" d="M523.28,-50.9C507.33,-41 486.5,-28.07 472.94,-19.65"/>
<polygon fill="midnightblue" stroke="midnightblue" points="521.68,-54.02 532.02,-56.32 525.37,-48.08 521.68,-54.02"/>
</g>
<!-- Node9 -->
<g id="node9" class="node">
<title>Node9</title>
<g id="a_node9"><a xlink:href="_scene_widget_8hpp.html" target="_top" xlink:title="Contains the declaration of the SceneWidget class, a user interface widget for rendering scenes.">
<polygon fill="white" stroke="black" points="547,-0.5 547,-19.5 719,-19.5 719,-0.5 547,-0.5"/>
<text text-anchor="middle" x="633" y="-7.5" font-family="Helvetica,sans-Serif" font-size="10.00">src/ui/widgets/SceneWidget.hpp</text>
</a>
</g>
</g>
<!-- Node7&#45;&gt;Node9 -->
<g id="edge8" class="edge">
<title>Node7&#45;&gt;Node9</title>
<path fill="none" stroke="midnightblue" d="M568.72,-50.9C584.67,-41 605.5,-28.07 619.06,-19.65"/>
<polygon fill="midnightblue" stroke="midnightblue" points="566.63,-48.08 559.98,-56.32 570.32,-54.02 566.63,-48.08"/>
</g>
<!-- Node10&#45;&gt;Node6 -->
<g id="edge11" class="edge">
<title>Node10&#45;&gt;Node6</title>
<path fill="none" stroke="midnightblue" d="M407.82,-105.54C397.12,-95.91 383.74,-83.87 374.82,-75.83"/>
<polygon fill="midnightblue" stroke="midnightblue" points="405.59,-108.24 415.36,-112.32 410.27,-103.03 405.59,-108.24"/>
</g>
<!-- Node10&#45;&gt;Node7 -->
<g id="edge10" class="edge">
<title>Node10&#45;&gt;Node7</title>
<path fill="none" stroke="midnightblue" d="M453.31,-108.37C475.97,-98.26 507.13,-84.35 526.92,-75.52"/>
<polygon fill="midnightblue" stroke="midnightblue" points="451.88,-105.17 444.17,-112.44 454.73,-111.56 451.88,-105.17"/>
</g>
</g>
</svg>
