<?xml version="1.0" encoding="UTF-8" standalone="no"?>
<!DOCTYPE svg PUBLIC "-//W3C//DTD SVG 1.1//EN"
 "http://www.w3.org/Graphics/SVG/1.1/DTD/svg11.dtd">
<!-- Generated by graphviz version 2.43.0 (0)
 -->
<!-- Title: src/Rendering/Texture.hpp Pages: 1 -->
<svg width="284pt" height="196pt"
 viewBox="0.00 0.00 284.00 196.00" xmlns="http://www.w3.org/2000/svg" xmlns:xlink="http://www.w3.org/1999/xlink">
<g id="graph0" class="graph" transform="scale(1 1) rotate(0) translate(4 192)">
<title>src/Rendering/Texture.hpp</title>
<polygon fill="white" stroke="transparent" points="-4,4 -4,-192 280,-192 280,4 -4,4"/>
<!-- Node1 -->
<g id="node1" class="node">
<title>Node1</title>
<g id="a_node1"><a xlink:title=" ">
<polygon fill="#bfbfbf" stroke="black" points="26,-168.5 26,-187.5 169,-187.5 169,-168.5 26,-168.5"/>
<text text-anchor="middle" x="97.5" y="-175.5" font-family="Helvetica,sans-Serif" font-size="10.00">src/Rendering/Texture.hpp</text>
</a>
</g>
</g>
<!-- Node2 -->
<g id="node2" class="node">
<title>Node2</title>
<g id="a_node2"><a xlink:title=" ">
<polygon fill="white" stroke="#bfbfbf" points="0,-112.5 0,-131.5 71,-131.5 71,-112.5 0,-112.5"/>
<text text-anchor="middle" x="35.5" y="-119.5" font-family="Helvetica,sans-Serif" font-size="10.00">glad/glad.h</text>
</a>
</g>
</g>
<!-- Node1&#45;&gt;Node2 -->
<g id="edge1" class="edge">
<title>Node1&#45;&gt;Node2</title>
<path fill="none" stroke="midnightblue" d="M87.54,-168.32C78.37,-160.34 64.56,-148.31 53.47,-138.65"/>
<polygon fill="midnightblue" stroke="midnightblue" points="55.48,-135.76 45.64,-131.83 50.88,-141.04 55.48,-135.76"/>
</g>
<!-- Node3 -->
<g id="node3" class="node">
<title>Node3</title>
<g id="a_node3"><a xlink:href="_image_8hpp.html" target="_top" xlink:title=" ">
<polygon fill="white" stroke="black" points="89,-112.5 89,-131.5 230,-131.5 230,-112.5 89,-112.5"/>
<text text-anchor="middle" x="159.5" y="-119.5" font-family="Helvetica,sans-Serif" font-size="10.00">AssetManager/Image.hpp</text>
</a>
</g>
</g>
<!-- Node1&#45;&gt;Node3 -->
<g id="edge2" class="edge">
<title>Node1&#45;&gt;Node3</title>
<path fill="none" stroke="midnightblue" d="M107.46,-168.32C116.63,-160.34 130.44,-148.31 141.53,-138.65"/>
<polygon fill="midnightblue" stroke="midnightblue" points="144.12,-141.04 149.36,-131.83 139.52,-135.76 144.12,-141.04"/>
</g>
<!-- Node4 -->
<g id="node4" class="node">
<title>Node4</title>
<g id="a_node4"><a xlink:title=" ">
<polygon fill="white" stroke="#bfbfbf" points="124.5,-0.5 124.5,-19.5 192.5,-19.5 192.5,-0.5 124.5,-0.5"/>
<text text-anchor="middle" x="158.5" y="-7.5" font-family="Helvetica,sans-Serif" font-size="10.00">filesystem</text>
</a>
</g>
</g>
<!-- Node3&#45;&gt;Node4 -->
<g id="edge3" class="edge">
<title>Node3&#45;&gt;Node4</title>
<path fill="none" stroke="midnightblue" d="M151.29,-112.18C143.96,-103.66 133.74,-90.02 129.5,-76 124.32,-58.9 134.25,-40.37 143.87,-27.49"/>
<polygon fill="midnightblue" stroke="midnightblue" points="146.72,-29.54 150.29,-19.56 141.28,-25.13 146.72,-29.54"/>
</g>
<!-- Node5 -->
<g id="node5" class="node">
<title>Node5</title>
<g id="a_node5"><a xlink:href="_asset_8hpp.html" target="_top" xlink:title=" ">
<polygon fill="white" stroke="black" points="139,-56.5 139,-75.5 276,-75.5 276,-56.5 139,-56.5"/>
<text text-anchor="middle" x="207.5" y="-63.5" font-family="Helvetica,sans-Serif" font-size="10.00">AssetManager/Asset.hpp</text>
</a>
</g>
</g>
<!-- Node3&#45;&gt;Node5 -->
<g id="edge4" class="edge">
<title>Node3&#45;&gt;Node5</title>
<path fill="none" stroke="midnightblue" d="M167.43,-112.08C174.35,-104.3 184.57,-92.8 192.95,-83.37"/>
<polygon fill="midnightblue" stroke="midnightblue" points="195.69,-85.55 199.72,-75.75 190.46,-80.9 195.69,-85.55"/>
</g>
<!-- Node5&#45;&gt;Node4 -->
<g id="edge5" class="edge">
<title>Node5&#45;&gt;Node4</title>
<path fill="none" stroke="midnightblue" d="M199.41,-56.08C192.34,-48.3 181.91,-36.8 173.35,-27.37"/>
<polygon fill="midnightblue" stroke="midnightblue" points="175.75,-24.8 166.44,-19.75 170.57,-29.51 175.75,-24.8"/>
</g>
</g>
</svg>
