<?xml version="1.0" encoding="UTF-8" standalone="no"?>
<!DOCTYPE svg PUBLIC "-//W3C//DTD SVG 1.1//EN"
 "http://www.w3.org/Graphics/SVG/1.1/DTD/svg11.dtd">
<!-- Generated by graphviz version 2.43.0 (0)
 -->
<!-- Title: src/JobSystem/ThreadWorker.cpp Pages: 1 -->
<svg width="975pt" height="302pt"
 viewBox="0.00 0.00 975.00 302.00" xmlns="http://www.w3.org/2000/svg" xmlns:xlink="http://www.w3.org/1999/xlink">
<g id="graph0" class="graph" transform="scale(1 1) rotate(0) translate(4 298)">
<title>src/JobSystem/ThreadWorker.cpp</title>
<!-- Node1 -->
<g id="Node000001" class="node">
<title>Node1</title>
<g id="a_Node000001"><a xlink:title=" ">
<polygon fill="#999999" stroke="#666666" points="740,-294 564,-294 564,-275 740,-275 740,-294"/>
<text text-anchor="middle" x="652" y="-282" font-family="Helvetica,sans-Serif" font-size="10.00">src/JobSystem/ThreadWorker.cpp</text>
</a>
</g>
</g>
<!-- Node2 -->
<g id="Node000002" class="node">
<title>Node2</title>
<g id="a_Node000002"><a xlink:href="_job_system_8hpp.html" target="_top" xlink:title=" ">
<polygon fill="white" stroke="#666666" points="639,-239 495,-239 495,-220 639,-220 639,-239"/>
<text text-anchor="middle" x="567" y="-227" font-family="Helvetica,sans-Serif" font-size="10.00">JobSystem/JobSystem.hpp</text>
</a>
</g>
</g>
<!-- Node1&#45;&gt;Node2 -->
<g id="edge1_Node000001_Node000002" class="edge">
<title>Node1&#45;&gt;Node2</title>
<g id="a_edge1_Node000001_Node000002"><a xlink:title=" ">
<path fill="none" stroke="#63b8ff" d="M638.34,-274.98C625.16,-266.77 604.97,-254.18 589.43,-244.49"/>
<polygon fill="#63b8ff" stroke="#63b8ff" points="591.24,-241.49 580.91,-239.17 587.54,-247.43 591.24,-241.49"/>
</a>
</g>
</g>
<!-- Node23 -->
<g id="Node000023" class="node">
<title>Node23</title>
<g id="a_Node000023"><a xlink:href="_thread_worker_8hpp.html" target="_top" xlink:title=" ">
<polygon fill="white" stroke="#666666" points="919.5,-239 760.5,-239 760.5,-220 919.5,-220 919.5,-239"/>
<text text-anchor="middle" x="840" y="-227" font-family="Helvetica,sans-Serif" font-size="10.00">JobSystem/ThreadWorker.hpp</text>
</a>
</g>
</g>
<!-- Node1&#45;&gt;Node23 -->
<g id="edge26_Node000001_Node000023" class="edge">
<title>Node1&#45;&gt;Node23</title>
<g id="a_edge26_Node000001_Node000023"><a xlink:title=" ">
<path fill="none" stroke="#63b8ff" d="M682.21,-274.98C714.04,-266.01 764.36,-251.82 799.6,-241.89"/>
<polygon fill="#63b8ff" stroke="#63b8ff" points="800.88,-245.16 809.56,-239.08 798.98,-238.43 800.88,-245.16"/>
</a>
</g>
</g>
<!-- Node3 -->
<g id="Node000003" class="node">
<title>Node3</title>
<g id="a_Node000003"><a xlink:href="_type_info_8hpp.html" target="_top" xlink:title=" ">
<polygon fill="white" stroke="#666666" points="126,-129 0,-129 0,-110 126,-110 126,-129"/>
<text text-anchor="middle" x="63" y="-117" font-family="Helvetica,sans-Serif" font-size="10.00">Common/TypeInfo.hpp</text>
</a>
</g>
</g>
<!-- Node2&#45;&gt;Node3 -->
<g id="edge2_Node000002_Node000003" class="edge">
<title>Node2&#45;&gt;Node3</title>
<g id="a_edge2_Node000002_Node000003"><a xlink:title=" ">
<path fill="none" stroke="#63b8ff" d="M494.82,-227.68C358.04,-225.38 72.02,-216.67 42,-184 30.14,-171.09 39.57,-151.33 49.3,-137.29"/>
<polygon fill="#63b8ff" stroke="#63b8ff" points="52.31,-139.11 55.52,-129.01 46.71,-134.9 52.31,-139.11"/>
</a>
</g>
</g>
<!-- Node6 -->
<g id="Node000006" class="node">
<title>Node6</title>
<g id="a_Node000006"><a xlink:href="_entity_8hpp.html" target="_top" xlink:title=" ">
<polygon fill="white" stroke="#666666" points="284,-74 198,-74 198,-55 284,-55 284,-74"/>
<text text-anchor="middle" x="241" y="-62" font-family="Helvetica,sans-Serif" font-size="10.00">ECS/Entity.hpp</text>
</a>
</g>
</g>
<!-- Node2&#45;&gt;Node6 -->
<g id="edge5_Node000002_Node000006" class="edge">
<title>Node2&#45;&gt;Node6</title>
<g id="a_edge5_Node000002_Node000006"><a xlink:title=" ">
<path fill="none" stroke="#63b8ff" d="M494.76,-221.95C449.03,-215.98 389.42,-204.78 340,-184 300.22,-167.28 285.41,-163.87 260,-129 250.37,-115.78 245.57,-97.65 243.21,-84.15"/>
<polygon fill="#63b8ff" stroke="#63b8ff" points="246.66,-83.5 241.75,-74.11 239.73,-84.51 246.66,-83.5"/>
</a>
</g>
</g>
<!-- Node8 -->
<g id="Node000008" class="node">
<title>Node8</title>
<g id="a_Node000008"><a xlink:href="_sparse_set_8hpp.html" target="_top" xlink:title=" ">
<polygon fill="white" stroke="#666666" points="457,-184 349,-184 349,-165 457,-165 457,-184"/>
<text text-anchor="middle" x="403" y="-172" font-family="Helvetica,sans-Serif" font-size="10.00">ECS/SparseSet.hpp</text>
</a>
</g>
</g>
<!-- Node2&#45;&gt;Node8 -->
<g id="edge7_Node000002_Node000008" class="edge">
<title>Node2&#45;&gt;Node8</title>
<g id="a_edge7_Node000002_Node000008"><a xlink:title=" ">
<path fill="none" stroke="#63b8ff" d="M540.65,-219.98C513.24,-211.13 470.11,-197.19 439.44,-187.28"/>
<polygon fill="#63b8ff" stroke="#63b8ff" points="440.15,-183.83 429.56,-184.08 438,-190.49 440.15,-183.83"/>
</a>
</g>
</g>
<!-- Node16 -->
<g id="Node000016" class="node">
<title>Node16</title>
<g id="a_Node000016"><a xlink:title=" ">
<polygon fill="#e0e0e0" stroke="#999999" points="689.5,-129 620.5,-129 620.5,-110 689.5,-110 689.5,-129"/>
<text text-anchor="middle" x="655" y="-117" font-family="Helvetica,sans-Serif" font-size="10.00">type_traits</text>
</a>
</g>
</g>
<!-- Node2&#45;&gt;Node16 -->
<g id="edge24_Node000002_Node000016" class="edge">
<title>Node2&#45;&gt;Node16</title>
<g id="a_edge24_Node000002_Node000016"><a xlink:title=" ">
<path fill="none" stroke="#63b8ff" d="M547.18,-219.99C523.14,-208.45 487.72,-186.76 504,-165 510.57,-156.21 568.34,-140.93 610.48,-130.77"/>
<polygon fill="#63b8ff" stroke="#63b8ff" points="611.36,-134.16 620.27,-128.43 609.73,-127.35 611.36,-134.16"/>
</a>
</g>
</g>
<!-- Node17 -->
<g id="Node000017" class="node">
<title>Node17</title>
<g id="a_Node000017"><a xlink:href="_requirements_8hpp.html" target="_top" xlink:title=" ">
<polygon fill="white" stroke="#666666" points="212.5,-184 51.5,-184 51.5,-165 212.5,-165 212.5,-184"/>
<text text-anchor="middle" x="132" y="-172" font-family="Helvetica,sans-Serif" font-size="10.00">JobSystem/Requirements.hpp</text>
</a>
</g>
</g>
<!-- Node2&#45;&gt;Node17 -->
<g id="edge18_Node000002_Node000017" class="edge">
<title>Node2&#45;&gt;Node17</title>
<g id="a_edge18_Node000002_Node000017"><a xlink:title=" ">
<path fill="none" stroke="#63b8ff" d="M497.11,-219.98C419.38,-210.51 294.02,-195.24 212.31,-185.29"/>
<polygon fill="#63b8ff" stroke="#63b8ff" points="212.43,-181.77 202.08,-184.04 211.58,-188.72 212.43,-181.77"/>
</a>
</g>
</g>
<!-- Node18 -->
<g id="Node000018" class="node">
<title>Node18</title>
<g id="a_Node000018"><a xlink:title=" ">
<polygon fill="#e0e0e0" stroke="#999999" points="620.5,-184 513.5,-184 513.5,-165 620.5,-165 620.5,-184"/>
<text text-anchor="middle" x="567" y="-172" font-family="Helvetica,sans-Serif" font-size="10.00">condition_variable</text>
</a>
</g>
</g>
<!-- Node2&#45;&gt;Node18 -->
<g id="edge20_Node000002_Node000018" class="edge">
<title>Node2&#45;&gt;Node18</title>
<g id="a_edge20_Node000002_Node000018"><a xlink:title=" ">
<path fill="none" stroke="#63b8ff" d="M567,-219.75C567,-212.8 567,-202.85 567,-194.13"/>
<polygon fill="#63b8ff" stroke="#63b8ff" points="570.5,-194.09 567,-184.09 563.5,-194.09 570.5,-194.09"/>
</a>
</g>
</g>
<!-- Node19 -->
<g id="Node000019" class="node">
<title>Node19</title>
<g id="a_Node000019"><a xlink:title=" ">
<polygon fill="#e0e0e0" stroke="#999999" points="685.5,-184 638.5,-184 638.5,-165 685.5,-165 685.5,-184"/>
<text text-anchor="middle" x="662" y="-172" font-family="Helvetica,sans-Serif" font-size="10.00">deque</text>
</a>
</g>
</g>
<!-- Node2&#45;&gt;Node19 -->
<g id="edge21_Node000002_Node000019" class="edge">
<title>Node2&#45;&gt;Node19</title>
<g id="a_edge21_Node000002_Node000019"><a xlink:title=" ">
<path fill="none" stroke="#63b8ff" d="M582.26,-219.98C597.13,-211.69 619.98,-198.94 637.42,-189.22"/>
<polygon fill="#63b8ff" stroke="#63b8ff" points="639.43,-192.1 646.46,-184.17 636.02,-185.99 639.43,-192.1"/>
</a>
</g>
</g>
<!-- Node20 -->
<g id="Node000020" class="node">
<title>Node20</title>
<g id="a_Node000020"><a xlink:title=" ">
<polygon fill="#e0e0e0" stroke="#999999" points="768.5,-184 703.5,-184 703.5,-165 768.5,-165 768.5,-184"/>
<text text-anchor="middle" x="736" y="-172" font-family="Helvetica,sans-Serif" font-size="10.00">functional</text>
</a>
</g>
</g>
<!-- Node2&#45;&gt;Node20 -->
<g id="edge22_Node000002_Node000020" class="edge">
<title>Node2&#45;&gt;Node20</title>
<g id="a_edge22_Node000002_Node000020"><a xlink:title=" ">
<path fill="none" stroke="#63b8ff" d="M594.15,-219.98C622.53,-211.09 667.23,-197.07 698.86,-187.15"/>
<polygon fill="#63b8ff" stroke="#63b8ff" points="700.14,-190.41 708.63,-184.08 698.05,-183.73 700.14,-190.41"/>
</a>
</g>
</g>
<!-- Node21 -->
<g id="Node000021" class="node">
<title>Node21</title>
<g id="a_Node000021"><a xlink:title=" ">
<polygon fill="#e0e0e0" stroke="#999999" points="835,-184 787,-184 787,-165 835,-165 835,-184"/>
<text text-anchor="middle" x="811" y="-172" font-family="Helvetica,sans-Serif" font-size="10.00">mutex</text>
</a>
</g>
</g>
<!-- Node2&#45;&gt;Node21 -->
<g id="edge23_Node000002_Node000021" class="edge">
<title>Node2&#45;&gt;Node21</title>
<g id="a_edge23_Node000002_Node000021"><a xlink:title=" ">
<path fill="none" stroke="#63b8ff" d="M609.33,-220C651.82,-211.36 719.08,-197.37 777,-184 777.1,-183.98 777.2,-183.95 777.3,-183.93"/>
<polygon fill="#63b8ff" stroke="#63b8ff" points="777.97,-187.37 786.88,-181.64 776.34,-180.56 777.97,-187.37"/>
</a>
</g>
</g>
<!-- Node22 -->
<g id="Node000022" class="node">
<title>Node22</title>
<g id="a_Node000022"><a xlink:title=" ">
<polygon fill="#e0e0e0" stroke="#999999" points="900.5,-184 853.5,-184 853.5,-165 900.5,-165 900.5,-184"/>
<text text-anchor="middle" x="877" y="-172" font-family="Helvetica,sans-Serif" font-size="10.00">vector</text>
</a>
</g>
</g>
<!-- Node2&#45;&gt;Node22 -->
<g id="edge25_Node000002_Node000022" class="edge">
<title>Node2&#45;&gt;Node22</title>
<g id="a_edge25_Node000002_Node000022"><a xlink:title=" ">
<path fill="none" stroke="#63b8ff" d="M630.57,-220C684.6,-212.38 764.41,-200.22 843.17,-184"/>
<polygon fill="#63b8ff" stroke="#63b8ff" points="844.19,-187.36 853.27,-181.89 842.76,-180.51 844.19,-187.36"/>
</a>
</g>
</g>
<!-- Node4 -->
<g id="Node000004" class="node">
<title>Node4</title>
<g id="a_Node000004"><a xlink:title=" ">
<polygon fill="#e0e0e0" stroke="#999999" points="49,-74 17,-74 17,-55 49,-55 49,-74"/>
<text text-anchor="middle" x="33" y="-62" font-family="Helvetica,sans-Serif" font-size="10.00">set</text>
</a>
</g>
</g>
<!-- Node3&#45;&gt;Node4 -->
<g id="edge3_Node000003_Node000004" class="edge">
<title>Node3&#45;&gt;Node4</title>
<g id="a_edge3_Node000003_Node000004"><a xlink:title=" ">
<path fill="none" stroke="#63b8ff" d="M58.05,-109.75C53.94,-102.49 47.97,-91.95 42.9,-82.98"/>
<polygon fill="#63b8ff" stroke="#63b8ff" points="45.83,-81.07 37.86,-74.09 39.74,-84.52 45.83,-81.07"/>
</a>
</g>
</g>
<!-- Node5 -->
<g id="Node000005" class="node">
<title>Node5</title>
<g id="a_Node000005"><a xlink:title=" ">
<polygon fill="#e0e0e0" stroke="#999999" points="140.5,-74 67.5,-74 67.5,-55 140.5,-55 140.5,-74"/>
<text text-anchor="middle" x="104" y="-62" font-family="Helvetica,sans-Serif" font-size="10.00">string_view</text>
</a>
</g>
</g>
<!-- Node3&#45;&gt;Node5 -->
<g id="edge4_Node000003_Node000005" class="edge">
<title>Node3&#45;&gt;Node5</title>
<g id="a_edge4_Node000003_Node000005"><a xlink:title=" ">
<path fill="none" stroke="#63b8ff" d="M69.77,-109.75C75.56,-102.26 84.06,-91.28 91.14,-82.13"/>
<polygon fill="#63b8ff" stroke="#63b8ff" points="94.01,-84.14 97.36,-74.09 88.47,-79.86 94.01,-84.14"/>
</a>
</g>
</g>
<!-- Node7 -->
<g id="Node000007" class="node">
<title>Node7</title>
<g id="a_Node000007"><a xlink:title=" ">
<polygon fill="#e0e0e0" stroke="#999999" points="302.5,-19 249.5,-19 249.5,0 302.5,0 302.5,-19"/>
<text text-anchor="middle" x="276" y="-7" font-family="Helvetica,sans-Serif" font-size="10.00">stdlib.h</text>
</a>
</g>
</g>
<!-- Node6&#45;&gt;Node7 -->
<g id="edge6_Node000006_Node000007" class="edge">
<title>Node6&#45;&gt;Node7</title>
<g id="a_edge6_Node000006_Node000007"><a xlink:title=" ">
<path fill="none" stroke="#63b8ff" d="M246.78,-54.75C251.62,-47.42 258.68,-36.73 264.64,-27.7"/>
<polygon fill="#63b8ff" stroke="#63b8ff" points="267.74,-29.36 270.33,-19.09 261.9,-25.5 267.74,-29.36"/>
</a>
</g>
</g>
<!-- Node9 -->
<g id="Node000009" class="node">
<title>Node9</title>
<g id="a_Node000009"><a xlink:href="_assert_8hpp.html" target="_top" xlink:title=" ">
<polygon fill="white" stroke="#666666" points="531,-129 415,-129 415,-110 531,-110 531,-129"/>
<text text-anchor="middle" x="473" y="-117" font-family="Helvetica,sans-Serif" font-size="10.00">Common/Assert.hpp</text>
</a>
</g>
</g>
<!-- Node8&#45;&gt;Node9 -->
<g id="edge8_Node000008_Node000009" class="edge">
<title>Node8&#45;&gt;Node9</title>
<g id="a_edge8_Node000008_Node000009"><a xlink:title=" ">
<path fill="none" stroke="#63b8ff" d="M414.25,-164.98C424.8,-157 440.8,-144.88 453.44,-135.31"/>
<polygon fill="#63b8ff" stroke="#63b8ff" points="455.69,-138 461.55,-129.17 451.46,-132.42 455.69,-138"/>
</a>
</g>
</g>
<!-- Node13 -->
<g id="Node000013" class="node">
<title>Node13</title>
<g id="a_Node000013"><a xlink:href="_entity_provider_8hpp.html" target="_top" xlink:title="Manages a pool of unused entity identifiers and provides mechanisms for requesting and removing them.">
<polygon fill="white" stroke="#666666" points="397,-129 269,-129 269,-110 397,-110 397,-129"/>
<text text-anchor="middle" x="333" y="-117" font-family="Helvetica,sans-Serif" font-size="10.00">ECS/EntityProvider.hpp</text>
</a>
</g>
</g>
<!-- Node8&#45;&gt;Node13 -->
<g id="edge12_Node000008_Node000013" class="edge">
<title>Node8&#45;&gt;Node13</title>
<g id="a_edge12_Node000008_Node000013"><a xlink:title=" ">
<path fill="none" stroke="#63b8ff" d="M391.75,-164.98C381.2,-157 365.2,-144.88 352.56,-135.31"/>
<polygon fill="#63b8ff" stroke="#63b8ff" points="354.54,-132.42 344.45,-129.17 350.31,-138 354.54,-132.42"/>
</a>
</g>
</g>
<!-- Node15 -->
<g id="Node000015" class="node">
<title>Node15</title>
<g id="a_Node000015"><a xlink:title=" ">
<polygon fill="#e0e0e0" stroke="#999999" points="602.5,-129 549.5,-129 549.5,-110 602.5,-110 602.5,-129"/>
<text text-anchor="middle" x="576" y="-117" font-family="Helvetica,sans-Serif" font-size="10.00">cstddef</text>
</a>
</g>
</g>
<!-- Node8&#45;&gt;Node15 -->
<g id="edge16_Node000008_Node000015" class="edge">
<title>Node8&#45;&gt;Node15</title>
<g id="a_edge16_Node000008_Node000015"><a xlink:title=" ">
<path fill="none" stroke="#63b8ff" d="M430.8,-164.98C460.4,-155.92 507.37,-141.53 539.84,-131.58"/>
<polygon fill="#63b8ff" stroke="#63b8ff" points="540.87,-134.92 549.41,-128.65 538.82,-128.23 540.87,-134.92"/>
</a>
</g>
</g>
<!-- Node8&#45;&gt;Node16 -->
<g id="edge17_Node000008_Node000016" class="edge">
<title>Node8&#45;&gt;Node16</title>
<g id="a_edge17_Node000008_Node000016"><a xlink:title=" ">
<path fill="none" stroke="#63b8ff" d="M443.49,-164.98C489.11,-155.39 563.06,-139.84 610.34,-129.89"/>
<polygon fill="#63b8ff" stroke="#63b8ff" points="611.23,-133.28 620.29,-127.8 609.78,-126.43 611.23,-133.28"/>
</a>
</g>
</g>
<!-- Node10 -->
<g id="Node000010" class="node">
<title>Node10</title>
<g id="a_Node000010"><a xlink:title=" ">
<polygon fill="#e0e0e0" stroke="#999999" points="472.5,-74 405.5,-74 405.5,-55 472.5,-55 472.5,-74"/>
<text text-anchor="middle" x="439" y="-62" font-family="Helvetica,sans-Serif" font-size="10.00">fmt/core.h</text>
</a>
</g>
</g>
<!-- Node9&#45;&gt;Node10 -->
<g id="edge9_Node000009_Node000010" class="edge">
<title>Node9&#45;&gt;Node10</title>
<g id="a_edge9_Node000009_Node000010"><a xlink:title=" ">
<path fill="none" stroke="#63b8ff" d="M467.39,-109.75C462.68,-102.42 455.83,-91.73 450.03,-82.7"/>
<polygon fill="#63b8ff" stroke="#63b8ff" points="452.86,-80.62 444.51,-74.09 446.96,-84.4 452.86,-80.62"/>
</a>
</g>
</g>
<!-- Node11 -->
<g id="Node000011" class="node">
<title>Node11</title>
<g id="a_Node000011"><a xlink:title=" ">
<polygon fill="#e0e0e0" stroke="#999999" points="555.5,-74 490.5,-74 490.5,-55 555.5,-55 555.5,-74"/>
<text text-anchor="middle" x="523" y="-62" font-family="Helvetica,sans-Serif" font-size="10.00">exception</text>
</a>
</g>
</g>
<!-- Node9&#45;&gt;Node11 -->
<g id="edge10_Node000009_Node000011" class="edge">
<title>Node9&#45;&gt;Node11</title>
<g id="a_edge10_Node000009_Node000011"><a xlink:title=" ">
<path fill="none" stroke="#63b8ff" d="M481.26,-109.75C488.46,-102.11 499.11,-90.82 507.85,-81.56"/>
<polygon fill="#63b8ff" stroke="#63b8ff" points="510.58,-83.76 514.9,-74.09 505.49,-78.96 510.58,-83.76"/>
</a>
</g>
</g>
<!-- Node12 -->
<g id="Node000012" class="node">
<title>Node12</title>
<g id="a_Node000012"><a xlink:title=" ">
<polygon fill="#e0e0e0" stroke="#999999" points="634,-74 574,-74 574,-55 634,-55 634,-74"/>
<text text-anchor="middle" x="604" y="-62" font-family="Helvetica,sans-Serif" font-size="10.00">iostream</text>
</a>
</g>
</g>
<!-- Node9&#45;&gt;Node12 -->
<g id="edge11_Node000009_Node000012" class="edge">
<title>Node9&#45;&gt;Node12</title>
<g id="a_edge11_Node000009_Node000012"><a xlink:title=" ">
<path fill="none" stroke="#63b8ff" d="M494.05,-109.98C515.41,-101.34 548.7,-87.87 573.06,-78.02"/>
<polygon fill="#63b8ff" stroke="#63b8ff" points="574.61,-81.17 582.57,-74.17 571.99,-74.68 574.61,-81.17"/>
</a>
</g>
</g>
<!-- Node13&#45;&gt;Node6 -->
<g id="edge15_Node000013_Node000006" class="edge">
<title>Node13&#45;&gt;Node6</title>
<g id="a_edge15_Node000013_Node000006"><a xlink:title=" ">
<path fill="none" stroke="#63b8ff" d="M318.22,-109.98C303.82,-101.69 281.69,-88.94 264.81,-79.22"/>
<polygon fill="#63b8ff" stroke="#63b8ff" points="266.46,-76.13 256.05,-74.17 262.97,-82.19 266.46,-76.13"/>
</a>
</g>
</g>
<!-- Node13&#45;&gt;Node7 -->
<g id="edge13_Node000013_Node000007" class="edge">
<title>Node13&#45;&gt;Node7</title>
<g id="a_edge13_Node000013_Node000007"><a xlink:title=" ">
<path fill="none" stroke="#63b8ff" d="M328.34,-109.66C318.94,-91.85 297.57,-51.37 285.24,-28.01"/>
<polygon fill="#63b8ff" stroke="#63b8ff" points="288.33,-26.37 280.57,-19.16 282.14,-29.64 288.33,-26.37"/>
</a>
</g>
</g>
<!-- Node14 -->
<g id="Node000014" class="node">
<title>Node14</title>
<g id="a_Node000014"><a xlink:title=" ">
<polygon fill="#e0e0e0" stroke="#999999" points="387.5,-74 340.5,-74 340.5,-55 387.5,-55 387.5,-74"/>
<text text-anchor="middle" x="364" y="-62" font-family="Helvetica,sans-Serif" font-size="10.00">queue</text>
</a>
</g>
</g>
<!-- Node13&#45;&gt;Node14 -->
<g id="edge14_Node000013_Node000014" class="edge">
<title>Node13&#45;&gt;Node14</title>
<g id="a_edge14_Node000013_Node000014"><a xlink:title=" ">
<path fill="none" stroke="#63b8ff" d="M338.12,-109.75C342.36,-102.49 348.53,-91.95 353.78,-82.98"/>
<polygon fill="#63b8ff" stroke="#63b8ff" points="356.95,-84.49 358.98,-74.09 350.91,-80.95 356.95,-84.49"/>
</a>
</g>
</g>
<!-- Node17&#45;&gt;Node3 -->
<g id="edge19_Node000017_Node000003" class="edge">
<title>Node17&#45;&gt;Node3</title>
<g id="a_edge19_Node000017_Node000003"><a xlink:title=" ">
<path fill="none" stroke="#63b8ff" d="M120.91,-164.98C110.51,-157 94.74,-144.88 82.28,-135.31"/>
<polygon fill="#63b8ff" stroke="#63b8ff" points="84.35,-132.49 74.29,-129.17 80.09,-138.04 84.35,-132.49"/>
</a>
</g>
</g>
<!-- Node24 -->
<g id="Node000024" class="node">
<title>Node24</title>
<g id="a_Node000024"><a xlink:title=" ">
<polygon fill="#e0e0e0" stroke="#999999" points="967,-184 919,-184 919,-165 967,-165 967,-184"/>
<text text-anchor="middle" x="943" y="-172" font-family="Helvetica,sans-Serif" font-size="10.00">thread</text>
</a>
</g>
</g>
<!-- Node23&#45;&gt;Node24 -->
<g id="edge27_Node000023_Node000024" class="edge">
<title>Node23&#45;&gt;Node24</title>
<g id="a_edge27_Node000023_Node000024"><a xlink:title=" ">
<path fill="none" stroke="#63b8ff" d="M856.55,-219.98C872.89,-211.57 898.13,-198.59 917.13,-188.81"/>
<polygon fill="#63b8ff" stroke="#63b8ff" points="918.86,-191.86 926.15,-184.17 915.66,-185.63 918.86,-191.86"/>
</a>
</g>
</g>
</g>
</svg>
