<?xml version="1.0" encoding="UTF-8" standalone="no"?>
<!DOCTYPE svg PUBLIC "-//W3C//DTD SVG 1.1//EN"
 "http://www.w3.org/Graphics/SVG/1.1/DTD/svg11.dtd">
<!-- Generated by graphviz version 2.43.0 (0)
 -->
<!-- Title: src/Utils/TransformUtils.hpp Pages: 1 -->
<svg width="919pt" height="148pt"
 viewBox="0.00 0.00 918.50 148.00" xmlns="http://www.w3.org/2000/svg" xmlns:xlink="http://www.w3.org/1999/xlink">
<g id="graph0" class="graph" transform="scale(1 1) rotate(0) translate(4 144)">
<title>src/Utils/TransformUtils.hpp</title>
<!-- Node1 -->
<g id="Node000001" class="node">
<title>Node1</title>
<g id="a_Node000001"><a xlink:title=" ">
<polygon fill="#999999" stroke="#666666" points="541,-140 389,-140 389,-121 541,-121 541,-140"/>
<text text-anchor="middle" x="465" y="-128" font-family="Helvetica,sans-Serif" font-size="10.00">src/Utils/TransformUtils.hpp</text>
</a>
</g>
</g>
<!-- Node2 -->
<g id="Node000002" class="node">
<title>Node2</title>
<g id="a_Node000002"><a xlink:href="_audio_system_8cpp.html" target="_top" xlink:title=" ">
<polygon fill="white" stroke="#666666" points="164,-85 0,-85 0,-66 164,-66 164,-85"/>
<text text-anchor="middle" x="82" y="-73" font-family="Helvetica,sans-Serif" font-size="10.00">src/Systems/AudioSystem.cpp</text>
</a>
</g>
</g>
<!-- Node1&#45;&gt;Node2 -->
<g id="edge1_Node000001_Node000002" class="edge">
<title>Node1&#45;&gt;Node2</title>
<g id="a_edge1_Node000001_Node000002"><a xlink:title=" ">
<path fill="none" stroke="#63b8ff" d="M393.14,-119.56C321.23,-109.61 211.79,-94.46 143.7,-85.04"/>
<polygon fill="#63b8ff" stroke="#63b8ff" points="393.08,-123.08 403.46,-120.98 394.04,-116.15 393.08,-123.08"/>
</a>
</g>
</g>
<!-- Node3 -->
<g id="Node000003" class="node">
<title>Node3</title>
<g id="a_Node000003"><a xlink:href="_particle_system_8cpp.html" target="_top" xlink:title=" ">
<polygon fill="white" stroke="#666666" points="354,-85 182,-85 182,-66 354,-66 354,-85"/>
<text text-anchor="middle" x="268" y="-73" font-family="Helvetica,sans-Serif" font-size="10.00">src/Systems/ParticleSystem.cpp</text>
</a>
</g>
</g>
<!-- Node1&#45;&gt;Node3 -->
<g id="edge2_Node000001_Node000003" class="edge">
<title>Node1&#45;&gt;Node3</title>
<g id="a_edge2_Node000001_Node000003"><a xlink:title=" ">
<path fill="none" stroke="#63b8ff" d="M423.41,-118.31C386.55,-108.39 333.5,-94.12 299.9,-85.08"/>
<polygon fill="#63b8ff" stroke="#63b8ff" points="422.78,-121.77 433.35,-120.98 424.6,-115.01 422.78,-121.77"/>
</a>
</g>
</g>
<!-- Node4 -->
<g id="Node000004" class="node">
<title>Node4</title>
<g id="a_Node000004"><a xlink:href="_rendering_system_8hpp.html" target="_top" xlink:title=" ">
<polygon fill="white" stroke="#666666" points="558,-85 372,-85 372,-66 558,-66 558,-85"/>
<text text-anchor="middle" x="465" y="-73" font-family="Helvetica,sans-Serif" font-size="10.00">src/Systems/RenderingSystem.hpp</text>
</a>
</g>
</g>
<!-- Node1&#45;&gt;Node4 -->
<g id="edge3_Node000001_Node000004" class="edge">
<title>Node1&#45;&gt;Node4</title>
<g id="a_edge3_Node000001_Node000004"><a xlink:title=" ">
<path fill="none" stroke="#63b8ff" d="M465,-110.66C465,-101.93 465,-91.99 465,-85.09"/>
<polygon fill="#63b8ff" stroke="#63b8ff" points="461.5,-110.75 465,-120.75 468.5,-110.75 461.5,-110.75"/>
</a>
</g>
</g>
<!-- Node7 -->
<g id="Node000007" class="node">
<title>Node7</title>
<g id="a_Node000007"><a xlink:href="_input_utils_8hpp.html" target="_top" xlink:title=" ">
<polygon fill="white" stroke="#666666" points="713,-85 585,-85 585,-66 713,-66 713,-85"/>
<text text-anchor="middle" x="649" y="-73" font-family="Helvetica,sans-Serif" font-size="10.00">src/Utils/InputUtils.hpp</text>
</a>
</g>
</g>
<!-- Node1&#45;&gt;Node7 -->
<g id="edge6_Node000001_Node000007" class="edge">
<title>Node1&#45;&gt;Node7</title>
<g id="a_edge6_Node000001_Node000007"><a xlink:title=" ">
<path fill="none" stroke="#63b8ff" d="M504.29,-118.18C538.7,-108.27 587.96,-94.08 619.21,-85.08"/>
<polygon fill="#63b8ff" stroke="#63b8ff" points="503.2,-114.85 494.56,-120.98 505.14,-121.58 503.2,-114.85"/>
</a>
</g>
</g>
<!-- Node10 -->
<g id="Node000010" class="node">
<title>Node10</title>
<g id="a_Node000010"><a xlink:href="_transform_utils_8cpp.html" target="_top" xlink:title=" ">
<polygon fill="white" stroke="#666666" points="882.5,-85 731.5,-85 731.5,-66 882.5,-66 882.5,-85"/>
<text text-anchor="middle" x="807" y="-73" font-family="Helvetica,sans-Serif" font-size="10.00">src/Utils/TransformUtils.cpp</text>
</a>
</g>
</g>
<!-- Node1&#45;&gt;Node10 -->
<g id="edge9_Node000001_Node000010" class="edge">
<title>Node1&#45;&gt;Node10</title>
<g id="a_edge9_Node000001_Node000010"><a xlink:title=" ">
<path fill="none" stroke="#63b8ff" d="M529.96,-119.43C594.18,-109.48 691.36,-94.42 751.9,-85.04"/>
<polygon fill="#63b8ff" stroke="#63b8ff" points="529.29,-115.99 519.95,-120.98 530.37,-122.91 529.29,-115.99"/>
</a>
</g>
</g>
<!-- Node5 -->
<g id="Node000005" class="node">
<title>Node5</title>
<g id="a_Node000005"><a xlink:href="main_8cpp.html" target="_top" xlink:title=" ">
<polygon fill="white" stroke="#666666" points="349.5,-24.5 270.5,-24.5 270.5,-5.5 349.5,-5.5 349.5,-24.5"/>
<text text-anchor="middle" x="310" y="-12.5" font-family="Helvetica,sans-Serif" font-size="10.00">src/main.cpp</text>
</a>
</g>
</g>
<!-- Node4&#45;&gt;Node5 -->
<g id="edge4_Node000004_Node000005" class="edge">
<title>Node4&#45;&gt;Node5</title>
<g id="a_edge4_Node000004_Node000005"><a xlink:title=" ">
<path fill="none" stroke="#63b8ff" d="M432.88,-62.38C402.92,-51.07 358.98,-34.49 332.57,-24.52"/>
<polygon fill="#63b8ff" stroke="#63b8ff" points="431.87,-65.74 442.46,-65.99 434.34,-59.19 431.87,-65.74"/>
</a>
</g>
</g>
<!-- Node6 -->
<g id="Node000006" class="node">
<title>Node6</title>
<g id="a_Node000006"><a xlink:href="_runtime_widget_8hpp.html" target="_top" xlink:title=" ">
<polygon fill="white" stroke="#666666" points="552,-24.5 368,-24.5 368,-5.5 552,-5.5 552,-24.5"/>
<text text-anchor="middle" x="460" y="-12.5" font-family="Helvetica,sans-Serif" font-size="10.00">src/ui/widgets/RuntimeWidget.hpp</text>
</a>
</g>
</g>
<!-- Node4&#45;&gt;Node6 -->
<g id="edge5_Node000004_Node000006" class="edge">
<title>Node4&#45;&gt;Node6</title>
<g id="a_edge5_Node000004_Node000006"><a xlink:title=" ">
<path fill="none" stroke="#63b8ff" d="M463.39,-55.66C462.5,-45.24 461.44,-32.8 460.74,-24.67"/>
<polygon fill="#63b8ff" stroke="#63b8ff" points="459.92,-56.2 464.26,-65.87 466.9,-55.61 459.92,-56.2"/>
</a>
</g>
</g>
<!-- Node8 -->
<g id="Node000008" class="node">
<title>Node8</title>
<g id="a_Node000008"><a xlink:href="_gizmo_system_8cpp.html" target="_top" xlink:title=" ">
<polygon fill="white" stroke="#666666" points="737.5,-24.5 570.5,-24.5 570.5,-5.5 737.5,-5.5 737.5,-24.5"/>
<text text-anchor="middle" x="654" y="-12.5" font-family="Helvetica,sans-Serif" font-size="10.00">src/Systems/GizmoSystem.cpp</text>
</a>
</g>
</g>
<!-- Node7&#45;&gt;Node8 -->
<g id="edge7_Node000007_Node000008" class="edge">
<title>Node7&#45;&gt;Node8</title>
<g id="a_edge7_Node000007_Node000008"><a xlink:title=" ">
<path fill="none" stroke="#63b8ff" d="M650.61,-55.66C651.5,-45.24 652.56,-32.8 653.26,-24.67"/>
<polygon fill="#63b8ff" stroke="#63b8ff" points="647.1,-55.61 649.74,-65.87 654.08,-56.2 647.1,-55.61"/>
</a>
</g>
</g>
<!-- Node9 -->
<g id="Node000009" class="node">
<title>Node9</title>
<g id="a_Node000009"><a xlink:href="_object_selection_system_8cpp.html" target="_top" xlink:title=" ">
<polygon fill="white" stroke="#666666" points="910.5,-30 755.5,-30 755.5,0 910.5,0 910.5,-30"/>
<text text-anchor="start" x="763.5" y="-18" font-family="Helvetica,sans-Serif" font-size="10.00">src/Systems/ObjectSelection</text>
<text text-anchor="middle" x="833" y="-7" font-family="Helvetica,sans-Serif" font-size="10.00">System.cpp</text>
</a>
</g>
</g>
<!-- Node7&#45;&gt;Node9 -->
<g id="edge8_Node000007_Node000009" class="edge">
<title>Node7&#45;&gt;Node9</title>
<g id="a_edge8_Node000007_Node000009"><a xlink:title=" ">
<path fill="none" stroke="#63b8ff" d="M685.32,-62.95C715.01,-53.51 757.11,-40.13 788.76,-30.06"/>
<polygon fill="#63b8ff" stroke="#63b8ff" points="684.22,-59.63 675.76,-65.99 686.35,-66.3 684.22,-59.63"/>
</a>
</g>
</g>
</g>
</svg>
