<?xml version="1.0" encoding="UTF-8" standalone="no"?>
<!DOCTYPE svg PUBLIC "-//W3C//DTD SVG 1.1//EN"
 "http://www.w3.org/Graphics/SVG/1.1/DTD/svg11.dtd">
<!-- Generated by graphviz version 2.43.0 (0)
 -->
<!-- Title: src/Components/TransformComponent.hpp Pages: 1 -->
<svg width="1588pt" height="352pt"
 viewBox="0.00 0.00 1588.00 352.00" xmlns="http://www.w3.org/2000/svg" xmlns:xlink="http://www.w3.org/1999/xlink">
<g id="graph0" class="graph" transform="scale(1 1) rotate(0) translate(4 348)">
<title>src/Components/TransformComponent.hpp</title>
<polygon fill="white" stroke="transparent" points="-4,4 -4,-348 1584,-348 1584,4 -4,4"/>
<!-- Node1 -->
<g id="node1" class="node">
<title>Node1</title>
<g id="a_node1"><a xlink:title=" ">
<polygon fill="#bfbfbf" stroke="black" points="783,-313.5 783,-343.5 930,-343.5 930,-313.5 783,-313.5"/>
<text text-anchor="start" x="791" y="-331.5" font-family="Helvetica,sans-Serif" font-size="10.00">src/Components/Transform</text>
<text text-anchor="middle" x="856.5" y="-320.5" font-family="Helvetica,sans-Serif" font-size="10.00">Component.hpp</text>
</a>
</g>
</g>
<!-- Node2 -->
<g id="node2" class="node">
<title>Node2</title>
<g id="a_node2"><a xlink:href="_box_collider_component_8hpp.html" target="_top" xlink:title=" ">
<polygon fill="white" stroke="black" points="156,-246.5 156,-276.5 311,-276.5 311,-246.5 156,-246.5"/>
<text text-anchor="start" x="164" y="-264.5" font-family="Helvetica,sans-Serif" font-size="10.00">src/Components/BoxCollider</text>
<text text-anchor="middle" x="233.5" y="-253.5" font-family="Helvetica,sans-Serif" font-size="10.00">Component.hpp</text>
</a>
</g>
</g>
<!-- Node1&#45;&gt;Node2 -->
<g id="edge1" class="edge">
<title>Node1&#45;&gt;Node2</title>
<path fill="none" stroke="midnightblue" d="M772.92,-318.78C651.8,-306.14 429.11,-282.91 311.31,-270.62"/>
<polygon fill="midnightblue" stroke="midnightblue" points="772.59,-322.26 782.89,-319.82 773.31,-315.3 772.59,-322.26"/>
</g>
<!-- Node3 -->
<g id="node3" class="node">
<title>Node3</title>
<g id="a_node3"><a xlink:href="main_8cpp.html" target="_top" xlink:title=" ">
<polygon fill="white" stroke="black" points="634,-118 634,-137 713,-137 713,-118 634,-118"/>
<text text-anchor="middle" x="673.5" y="-125" font-family="Helvetica,sans-Serif" font-size="10.00">src/main.cpp</text>
</a>
</g>
</g>
<!-- Node1&#45;&gt;Node3 -->
<g id="edge22" class="edge">
<title>Node1&#45;&gt;Node3</title>
<path fill="none" stroke="midnightblue" d="M885.81,-307.11C924.99,-277.39 985.66,-221.15 950.5,-179 920.71,-143.29 782.21,-132.77 713.04,-129.72"/>
<polygon fill="midnightblue" stroke="midnightblue" points="883.29,-304.61 877.34,-313.38 887.46,-310.24 883.29,-304.61"/>
</g>
<!-- Node4 -->
<g id="node4" class="node">
<title>Node4</title>
<g id="a_node4"><a xlink:href="_object_selection_system_8cpp.html" target="_top" xlink:title=" ">
<polygon fill="white" stroke="black" points="350,-179.5 350,-209.5 505,-209.5 505,-179.5 350,-179.5"/>
<text text-anchor="start" x="358" y="-197.5" font-family="Helvetica,sans-Serif" font-size="10.00">src/Systems/ObjectSelection</text>
<text text-anchor="middle" x="427.5" y="-186.5" font-family="Helvetica,sans-Serif" font-size="10.00">System.cpp</text>
</a>
</g>
</g>
<!-- Node1&#45;&gt;Node4 -->
<g id="edge24" class="edge">
<title>Node1&#45;&gt;Node4</title>
<path fill="none" stroke="midnightblue" d="M772.87,-316.18C722.45,-308.07 657.38,-295.32 601.5,-277 546.19,-258.87 485.43,-227.59 452.36,-209.51"/>
<polygon fill="midnightblue" stroke="midnightblue" points="772.33,-319.64 782.75,-317.74 773.42,-312.73 772.33,-319.64"/>
</g>
<!-- Node6 -->
<g id="node6" class="node">
<title>Node6</title>
<g id="a_node6"><a xlink:href="_properties_widget_8cpp.html" target="_top" xlink:title=" ">
<polygon fill="white" stroke="black" points="0,-112.5 0,-142.5 137,-142.5 137,-112.5 0,-112.5"/>
<text text-anchor="start" x="8" y="-130.5" font-family="Helvetica,sans-Serif" font-size="10.00">src/ui/widgets/Properties</text>
<text text-anchor="middle" x="68.5" y="-119.5" font-family="Helvetica,sans-Serif" font-size="10.00">Widget.cpp</text>
</a>
</g>
</g>
<!-- Node1&#45;&gt;Node6 -->
<g id="edge28" class="edge">
<title>Node1&#45;&gt;Node6</title>
<path fill="none" stroke="midnightblue" d="M772.35,-328.32C609.38,-328.82 257.02,-324.17 146.5,-277 105.69,-259.58 91.48,-250.1 72.5,-210 62.2,-188.23 63.81,-159.43 66.06,-142.54"/>
<polygon fill="midnightblue" stroke="midnightblue" points="772.82,-331.82 782.8,-328.29 772.79,-324.82 772.82,-331.82"/>
</g>
<!-- Node7 -->
<g id="node7" class="node">
<title>Node7</title>
<g id="a_node7"><a xlink:href="_camera_component_8hpp.html" target="_top" xlink:title=" ">
<polygon fill="white" stroke="black" points="632.5,-252 632.5,-271 846.5,-271 846.5,-252 632.5,-252"/>
<text text-anchor="middle" x="739.5" y="-259" font-family="Helvetica,sans-Serif" font-size="10.00">src/Components/CameraComponent.hpp</text>
</a>
</g>
</g>
<!-- Node1&#45;&gt;Node7 -->
<g id="edge6" class="edge">
<title>Node1&#45;&gt;Node7</title>
<path fill="none" stroke="midnightblue" d="M822.25,-308.47C799.92,-296.06 771.85,-280.47 754.81,-271.01"/>
<polygon fill="midnightblue" stroke="midnightblue" points="820.67,-311.6 831.11,-313.4 824.07,-305.48 820.67,-311.6"/>
</g>
<!-- Node8 -->
<g id="node8" class="node">
<title>Node8</title>
<g id="a_node8"><a xlink:href="_directional_light_component_8hpp.html" target="_top" xlink:title=" ">
<polygon fill="white" stroke="black" points="523.5,-179.5 523.5,-209.5 675.5,-209.5 675.5,-179.5 523.5,-179.5"/>
<text text-anchor="start" x="531.5" y="-197.5" font-family="Helvetica,sans-Serif" font-size="10.00">src/Components/Directional</text>
<text text-anchor="middle" x="599.5" y="-186.5" font-family="Helvetica,sans-Serif" font-size="10.00">LightComponent.hpp</text>
</a>
</g>
</g>
<!-- Node1&#45;&gt;Node8 -->
<g id="edge21" class="edge">
<title>Node1&#45;&gt;Node8</title>
<path fill="none" stroke="midnightblue" d="M772.67,-318.39C715.03,-310.49 645.13,-297.1 623.5,-277 604.59,-259.43 600.32,-227.79 599.51,-209.54"/>
<polygon fill="midnightblue" stroke="midnightblue" points="772.53,-321.91 782.91,-319.76 773.46,-314.97 772.53,-321.91"/>
</g>
<!-- Node9 -->
<g id="node9" class="node">
<title>Node9</title>
<g id="a_node9"><a xlink:href="_rendering_system_8cpp.html" target="_top" xlink:title=" ">
<polygon fill="white" stroke="black" points="611,-56.5 611,-75.5 796,-75.5 796,-56.5 611,-56.5"/>
<text text-anchor="middle" x="703.5" y="-63.5" font-family="Helvetica,sans-Serif" font-size="10.00">src/Systems/RenderingSystem.cpp</text>
</a>
</g>
</g>
<!-- Node1&#45;&gt;Node9 -->
<g id="edge25" class="edge">
<title>Node1&#45;&gt;Node9</title>
<path fill="none" stroke="midnightblue" d="M906.37,-308.85C921.69,-301.03 937.41,-290.54 948.5,-277 976.73,-242.54 994.14,-216.11 969.5,-179 926.82,-114.72 839.23,-87.24 776.21,-75.56"/>
<polygon fill="midnightblue" stroke="midnightblue" points="904.44,-305.9 896.93,-313.38 907.46,-312.21 904.44,-305.9"/>
</g>
<!-- Node16 -->
<g id="node16" class="node">
<title>Node16</title>
<g id="a_node16"><a xlink:href="_camera_movement_system_8cpp.html" target="_top" xlink:title=" ">
<polygon fill="white" stroke="black" points="1035.5,-246.5 1035.5,-276.5 1205.5,-276.5 1205.5,-246.5 1035.5,-246.5"/>
<text text-anchor="start" x="1043.5" y="-264.5" font-family="Helvetica,sans-Serif" font-size="10.00">src/Systems/CameraMovement</text>
<text text-anchor="middle" x="1120.5" y="-253.5" font-family="Helvetica,sans-Serif" font-size="10.00">System.cpp</text>
</a>
</g>
</g>
<!-- Node1&#45;&gt;Node16 -->
<g id="edge23" class="edge">
<title>Node1&#45;&gt;Node16</title>
<path fill="none" stroke="midnightblue" d="M923.31,-311.05C966.47,-300.43 1022.04,-286.74 1063.19,-276.61"/>
<polygon fill="midnightblue" stroke="midnightblue" points="922.33,-307.69 913.46,-313.48 924.01,-314.48 922.33,-307.69"/>
</g>
<!-- Node17 -->
<g id="node17" class="node">
<title>Node17</title>
<g id="a_node17"><a xlink:href="_transform_component_u_i_8hpp.html" target="_top" xlink:title=" ">
<polygon fill="white" stroke="black" points="1224,-246.5 1224,-276.5 1383,-276.5 1383,-246.5 1224,-246.5"/>
<text text-anchor="start" x="1232" y="-264.5" font-family="Helvetica,sans-Serif" font-size="10.00">src/ui/Components/Transform</text>
<text text-anchor="middle" x="1303.5" y="-253.5" font-family="Helvetica,sans-Serif" font-size="10.00">ComponentUI.hpp</text>
</a>
</g>
</g>
<!-- Node1&#45;&gt;Node17 -->
<g id="edge26" class="edge">
<title>Node1&#45;&gt;Node17</title>
<path fill="none" stroke="midnightblue" d="M940.28,-316.2C1012.88,-306.28 1120.71,-291.25 1214.5,-277 1217.6,-276.53 1220.75,-276.04 1223.94,-275.55"/>
<polygon fill="midnightblue" stroke="midnightblue" points="939.71,-312.74 930.27,-317.56 940.65,-319.68 939.71,-312.74"/>
</g>
<!-- Node18 -->
<g id="node18" class="node">
<title>Node18</title>
<g id="a_node18"><a xlink:href="_objects_widget_8cpp.html" target="_top" xlink:title=" ">
<polygon fill="white" stroke="black" points="1401,-252 1401,-271 1580,-271 1580,-252 1401,-252"/>
<text text-anchor="middle" x="1490.5" y="-259" font-family="Helvetica,sans-Serif" font-size="10.00">src/ui/widgets/ObjectsWidget.cpp</text>
</a>
</g>
</g>
<!-- Node1&#45;&gt;Node18 -->
<g id="edge27" class="edge">
<title>Node1&#45;&gt;Node18</title>
<path fill="none" stroke="midnightblue" d="M940.61,-320.96C1046.28,-312.43 1233.1,-296.29 1392.5,-277 1406.76,-275.27 1422.14,-273.13 1436.4,-271.03"/>
<polygon fill="midnightblue" stroke="midnightblue" points="940.02,-317.5 930.33,-321.79 940.58,-324.48 940.02,-317.5"/>
</g>
<!-- Node2&#45;&gt;Node3 -->
<g id="edge2" class="edge">
<title>Node2&#45;&gt;Node3</title>
<path fill="none" stroke="midnightblue" d="M179.42,-242.84C141.66,-227.76 101.9,-204.51 125.5,-179 160.39,-141.28 535.5,-149.23 586.5,-143 602,-141.11 618.96,-138.42 633.76,-135.87"/>
<polygon fill="midnightblue" stroke="midnightblue" points="178.35,-246.18 188.94,-246.49 180.86,-239.64 178.35,-246.18"/>
</g>
<!-- Node2&#45;&gt;Node4 -->
<g id="edge3" class="edge">
<title>Node2&#45;&gt;Node4</title>
<path fill="none" stroke="midnightblue" d="M285.46,-243.09C316.77,-232.6 356.14,-219.41 385.49,-209.58"/>
<polygon fill="midnightblue" stroke="midnightblue" points="283.97,-239.9 275.6,-246.4 286.19,-246.54 283.97,-239.9"/>
</g>
<!-- Node5 -->
<g id="node5" class="node">
<title>Node5</title>
<g id="a_node5"><a xlink:href="_model_component_u_i_8cpp.html" target="_top" xlink:title=" ">
<polygon fill="white" stroke="black" points="135,-179.5 135,-209.5 332,-209.5 332,-179.5 135,-179.5"/>
<text text-anchor="start" x="143" y="-197.5" font-family="Helvetica,sans-Serif" font-size="10.00">src/ui/Components/ModelComponent</text>
<text text-anchor="middle" x="233.5" y="-186.5" font-family="Helvetica,sans-Serif" font-size="10.00">UI.cpp</text>
</a>
</g>
</g>
<!-- Node2&#45;&gt;Node5 -->
<g id="edge4" class="edge">
<title>Node2&#45;&gt;Node5</title>
<path fill="none" stroke="midnightblue" d="M233.5,-236.11C233.5,-227.15 233.5,-217.32 233.5,-209.58"/>
<polygon fill="midnightblue" stroke="midnightblue" points="230,-236.4 233.5,-246.4 237,-236.4 230,-236.4"/>
</g>
<!-- Node2&#45;&gt;Node6 -->
<g id="edge5" class="edge">
<title>Node2&#45;&gt;Node6</title>
<path fill="none" stroke="midnightblue" d="M146.02,-243.38C126.28,-235.94 106.92,-225.27 92.5,-210 74.98,-191.44 70.18,-160.75 68.91,-142.79"/>
<polygon fill="midnightblue" stroke="midnightblue" points="145.13,-246.77 155.73,-246.78 147.45,-240.17 145.13,-246.77"/>
</g>
<!-- Node7&#45;&gt;Node3 -->
<g id="edge17" class="edge">
<title>Node7&#45;&gt;Node3</title>
<path fill="none" stroke="midnightblue" d="M730.52,-242.54C716.11,-213.72 688.36,-158.22 677.76,-137.02"/>
<polygon fill="midnightblue" stroke="midnightblue" points="727.57,-244.46 735.17,-251.84 733.83,-241.33 727.57,-244.46"/>
</g>
<!-- Node7&#45;&gt;Node4 -->
<g id="edge18" class="edge">
<title>Node7&#45;&gt;Node4</title>
<path fill="none" stroke="midnightblue" d="M688.58,-249.89C635.84,-238.9 553.14,-221.68 494.98,-209.56"/>
<polygon fill="midnightblue" stroke="midnightblue" points="687.89,-253.32 698.39,-251.94 689.31,-246.47 687.89,-253.32"/>
</g>
<!-- Node7&#45;&gt;Node8 -->
<g id="edge7" class="edge">
<title>Node7&#45;&gt;Node8</title>
<path fill="none" stroke="midnightblue" d="M711.76,-247.62C688.08,-236.63 654.08,-220.84 629.71,-209.53"/>
<polygon fill="midnightblue" stroke="midnightblue" points="710.37,-250.83 720.91,-251.87 713.31,-244.48 710.37,-250.83"/>
</g>
<!-- Node7&#45;&gt;Node9 -->
<g id="edge19" class="edge">
<title>Node7&#45;&gt;Node9</title>
<path fill="none" stroke="midnightblue" d="M739.06,-241.87C738.02,-213.42 734.49,-157.66 722.5,-112 719.05,-98.88 712.49,-84.58 708.06,-75.7"/>
<polygon fill="midnightblue" stroke="midnightblue" points="735.57,-242.08 739.37,-251.97 742.57,-241.87 735.57,-242.08"/>
</g>
<!-- Node15 -->
<g id="node15" class="node">
<title>Node15</title>
<g id="a_node15"><a xlink:href="_scene_widget_8cpp.html" target="_top" xlink:title=" ">
<polygon fill="white" stroke="black" points="770,-185 770,-204 941,-204 941,-185 770,-185"/>
<text text-anchor="middle" x="855.5" y="-192" font-family="Helvetica,sans-Serif" font-size="10.00">src/ui/widgets/SceneWidget.cpp</text>
</a>
</g>
</g>
<!-- Node7&#45;&gt;Node15 -->
<g id="edge20" class="edge">
<title>Node7&#45;&gt;Node15</title>
<path fill="none" stroke="midnightblue" d="M763.97,-246.79C786.96,-233.9 820.66,-215.02 840.1,-204.13"/>
<polygon fill="midnightblue" stroke="midnightblue" points="762.16,-243.79 755.14,-251.73 765.58,-249.9 762.16,-243.79"/>
</g>
<!-- Node8&#45;&gt;Node3 -->
<g id="edge8" class="edge">
<title>Node8&#45;&gt;Node3</title>
<path fill="none" stroke="midnightblue" d="M623.21,-172.67C636.87,-160.67 653.33,-146.22 663.6,-137.19"/>
<polygon fill="midnightblue" stroke="midnightblue" points="620.76,-170.17 615.56,-179.4 625.38,-175.43 620.76,-170.17"/>
</g>
<!-- Node8&#45;&gt;Node6 -->
<g id="edge16" class="edge">
<title>Node8&#45;&gt;Node6</title>
<path fill="none" stroke="midnightblue" d="M512.87,-179.02C450.48,-170.91 246.09,-148.15 137.43,-136.11"/>
<polygon fill="midnightblue" stroke="midnightblue" points="512.72,-182.53 523.1,-180.4 513.66,-175.59 512.72,-182.53"/>
</g>
<!-- Node8&#45;&gt;Node9 -->
<g id="edge9" class="edge">
<title>Node8&#45;&gt;Node9</title>
<path fill="none" stroke="midnightblue" d="M602.47,-169.34C605.68,-151.85 612.23,-128.47 625.5,-112 639.43,-94.71 661.9,-82.76 679.16,-75.54"/>
<polygon fill="midnightblue" stroke="midnightblue" points="599,-168.93 600.88,-179.36 605.91,-170.03 599,-168.93"/>
</g>
<!-- Node10 -->
<g id="node10" class="node">
<title>Node10</title>
<g id="a_node10"><a xlink:href="_rendering_system_8hpp.html" target="_top" xlink:title=" ">
<polygon fill="white" stroke="black" points="391.5,-118 391.5,-137 577.5,-137 577.5,-118 391.5,-118"/>
<text text-anchor="middle" x="484.5" y="-125" font-family="Helvetica,sans-Serif" font-size="10.00">src/Systems/RenderingSystem.hpp</text>
</a>
</g>
</g>
<!-- Node8&#45;&gt;Node10 -->
<g id="edge10" class="edge">
<title>Node8&#45;&gt;Node10</title>
<path fill="none" stroke="midnightblue" d="M565.84,-174.47C543.88,-162.06 516.3,-146.47 499.55,-137.01"/>
<polygon fill="midnightblue" stroke="midnightblue" points="564.12,-177.52 574.55,-179.4 567.56,-171.43 564.12,-177.52"/>
</g>
<!-- Node14 -->
<g id="node14" class="node">
<title>Node14</title>
<g id="a_node14"><a xlink:href="_directional_light_component_u_i_8hpp.html" target="_top" xlink:title=" ">
<polygon fill="white" stroke="black" points="209.5,-112.5 209.5,-142.5 373.5,-142.5 373.5,-112.5 209.5,-112.5"/>
<text text-anchor="start" x="217.5" y="-130.5" font-family="Helvetica,sans-Serif" font-size="10.00">src/ui/Components/Directional</text>
<text text-anchor="middle" x="291.5" y="-119.5" font-family="Helvetica,sans-Serif" font-size="10.00">LightComponentUI.hpp</text>
</a>
</g>
</g>
<!-- Node8&#45;&gt;Node14 -->
<g id="edge15" class="edge">
<title>Node8&#45;&gt;Node14</title>
<path fill="none" stroke="midnightblue" d="M523.13,-177.38C472.47,-166.69 406.63,-152.8 358.1,-142.55"/>
<polygon fill="midnightblue" stroke="midnightblue" points="522.54,-180.84 533.05,-179.48 523.99,-173.99 522.54,-180.84"/>
</g>
<!-- Node10&#45;&gt;Node9 -->
<g id="edge14" class="edge">
<title>Node10&#45;&gt;Node9</title>
<path fill="none" stroke="midnightblue" d="M525.64,-115.32C568.18,-103.76 633.67,-85.97 672.18,-75.51"/>
<polygon fill="midnightblue" stroke="midnightblue" points="524.61,-111.98 515.88,-117.98 526.45,-118.73 524.61,-111.98"/>
</g>
<!-- Node11 -->
<g id="node11" class="node">
<title>Node11</title>
<g id="a_node11"><a xlink:href="_runtime_8hpp.html" target="_top" xlink:title=" ">
<polygon fill="white" stroke="black" points="414.5,-56.5 414.5,-75.5 554.5,-75.5 554.5,-56.5 414.5,-56.5"/>
<text text-anchor="middle" x="484.5" y="-63.5" font-family="Helvetica,sans-Serif" font-size="10.00">src/Runtime/Runtime.hpp</text>
</a>
</g>
</g>
<!-- Node10&#45;&gt;Node11 -->
<g id="edge11" class="edge">
<title>Node10&#45;&gt;Node11</title>
<path fill="none" stroke="midnightblue" d="M484.5,-107.82C484.5,-97 484.5,-83.9 484.5,-75.51"/>
<polygon fill="midnightblue" stroke="midnightblue" points="481,-107.98 484.5,-117.98 488,-107.98 481,-107.98"/>
</g>
<!-- Node12 -->
<g id="node12" class="node">
<title>Node12</title>
<g id="a_node12"><a xlink:href="_runtime_8cpp.html" target="_top" xlink:title=" ">
<polygon fill="white" stroke="black" points="327.5,-0.5 327.5,-19.5 467.5,-19.5 467.5,-0.5 327.5,-0.5"/>
<text text-anchor="middle" x="397.5" y="-7.5" font-family="Helvetica,sans-Serif" font-size="10.00">src/Runtime/Runtime.cpp</text>
</a>
</g>
</g>
<!-- Node11&#45;&gt;Node12 -->
<g id="edge12" class="edge">
<title>Node11&#45;&gt;Node12</title>
<path fill="none" stroke="midnightblue" d="M461.78,-50.9C445.83,-41 425,-28.07 411.44,-19.65"/>
<polygon fill="midnightblue" stroke="midnightblue" points="460.18,-54.02 470.52,-56.32 463.87,-48.08 460.18,-54.02"/>
</g>
<!-- Node13 -->
<g id="node13" class="node">
<title>Node13</title>
<g id="a_node13"><a xlink:href="_scene_widget_8hpp.html" target="_top" xlink:title="Contains the declaration of the SceneWidget class, a user interface widget for rendering scenes.">
<polygon fill="white" stroke="black" points="485.5,-0.5 485.5,-19.5 657.5,-19.5 657.5,-0.5 485.5,-0.5"/>
<text text-anchor="middle" x="571.5" y="-7.5" font-family="Helvetica,sans-Serif" font-size="10.00">src/ui/widgets/SceneWidget.hpp</text>
</a>
</g>
</g>
<!-- Node11&#45;&gt;Node13 -->
<g id="edge13" class="edge">
<title>Node11&#45;&gt;Node13</title>
<path fill="none" stroke="midnightblue" d="M507.22,-50.9C523.17,-41 544,-28.07 557.56,-19.65"/>
<polygon fill="midnightblue" stroke="midnightblue" points="505.13,-48.08 498.48,-56.32 508.82,-54.02 505.13,-48.08"/>
</g>
</g>
</svg>
