<?xml version="1.0" encoding="UTF-8" standalone="no"?>
<!DOCTYPE svg PUBLIC "-//W3C//DTD SVG 1.1//EN"
 "http://www.w3.org/Graphics/SVG/1.1/DTD/svg11.dtd">
<!-- Generated by graphviz version 2.43.0 (0)
 -->
<!-- Title: src/Components/TransformComponent.hpp Pages: 1 -->
<svg width="1383pt" height="313pt"
 viewBox="0.00 0.00 1382.50 313.00" xmlns="http://www.w3.org/2000/svg" xmlns:xlink="http://www.w3.org/1999/xlink">
<g id="graph0" class="graph" transform="scale(1 1) rotate(0) translate(4 309)">
<title>src/Components/TransformComponent.hpp</title>
<!-- Node1 -->
<g id="Node000001" class="node">
<title>Node1</title>
<g id="a_Node000001"><a xlink:title=" ">
<polygon fill="#999999" stroke="#666666" points="504.5,-305 357.5,-305 357.5,-275 504.5,-275 504.5,-305"/>
<text text-anchor="start" x="365.5" y="-293" font-family="Helvetica,sans-Serif" font-size="10.00">src/Components/Transform</text>
<text text-anchor="middle" x="431" y="-282" font-family="Helvetica,sans-Serif" font-size="10.00">Component.hpp</text>
</a>
</g>
</g>
<!-- Node2 -->
<g id="Node000002" class="node">
<title>Node2</title>
<g id="a_Node000002"><a xlink:title=" ">
<polygon fill="#e0e0e0" stroke="#999999" points="44,-239 0,-239 0,-220 44,-220 44,-239"/>
<text text-anchor="middle" x="22" y="-227" font-family="Helvetica,sans-Serif" font-size="10.00">string</text>
</a>
</g>
</g>
<!-- Node1&#45;&gt;Node2 -->
<g id="edge1_Node000001_Node000002" class="edge">
<title>Node1&#45;&gt;Node2</title>
<g id="a_edge1_Node000001_Node000002"><a xlink:title=" ">
<path fill="none" stroke="#63b8ff" d="M357.34,-282.25C283.04,-274.77 164.95,-261.03 54.26,-239.01"/>
<polygon fill="#63b8ff" stroke="#63b8ff" points="54.76,-235.54 44.26,-236.99 53.37,-242.4 54.76,-235.54"/>
</a>
</g>
</g>
<!-- Node3 -->
<g id="Node000003" class="node">
<title>Node3</title>
<g id="a_Node000003"><a xlink:title=" ">
<polygon fill="#e0e0e0" stroke="#999999" points="122,-239 62,-239 62,-220 122,-220 122,-239"/>
<text text-anchor="middle" x="92" y="-227" font-family="Helvetica,sans-Serif" font-size="10.00">iostream</text>
</a>
</g>
</g>
<!-- Node1&#45;&gt;Node3 -->
<g id="edge2_Node000001_Node000003" class="edge">
<title>Node1&#45;&gt;Node3</title>
<g id="a_edge2_Node000001_Node000003"><a xlink:title=" ">
<path fill="none" stroke="#63b8ff" d="M357.27,-276.98C297.54,-267.14 211.26,-252.65 136,-239 134.75,-238.77 133.48,-238.54 132.2,-238.31"/>
<polygon fill="#63b8ff" stroke="#63b8ff" points="132.75,-234.85 122.28,-236.44 131.46,-241.73 132.75,-234.85"/>
</a>
</g>
</g>
<!-- Node4 -->
<g id="Node000004" class="node">
<title>Node4</title>
<g id="a_Node000004"><a xlink:title=" ">
<polygon fill="#e0e0e0" stroke="#999999" points="225,-184 147,-184 147,-165 225,-165 225,-184"/>
<text text-anchor="middle" x="186" y="-172" font-family="Helvetica,sans-Serif" font-size="10.00">glm/glm.hpp</text>
</a>
</g>
</g>
<!-- Node1&#45;&gt;Node4 -->
<g id="edge3_Node000001_Node000004" class="edge">
<title>Node1&#45;&gt;Node4</title>
<g id="a_edge3_Node000001_Node000004"><a xlink:title=" ">
<path fill="none" stroke="#63b8ff" d="M357.42,-285.17C288.45,-279.86 192.54,-267.46 169,-239 158.24,-226 165.59,-206.83 173.71,-192.96"/>
<polygon fill="#63b8ff" stroke="#63b8ff" points="176.78,-194.64 179.24,-184.34 170.89,-190.86 176.78,-194.64"/>
</a>
</g>
</g>
<!-- Node5 -->
<g id="Node000005" class="node">
<title>Node5</title>
<g id="a_Node000005"><a xlink:title=" ">
<polygon fill="#e0e0e0" stroke="#999999" points="414,-239 284,-239 284,-220 414,-220 414,-239"/>
<text text-anchor="middle" x="349" y="-227" font-family="Helvetica,sans-Serif" font-size="10.00">glm/gtc/quaternion.hpp</text>
</a>
</g>
</g>
<!-- Node1&#45;&gt;Node5 -->
<g id="edge4_Node000001_Node000005" class="edge">
<title>Node1&#45;&gt;Node5</title>
<g id="a_edge4_Node000001_Node000005"><a xlink:title=" ">
<path fill="none" stroke="#63b8ff" d="M411.15,-274.84C398.52,-265.83 382.2,-254.18 369.45,-245.09"/>
<polygon fill="#63b8ff" stroke="#63b8ff" points="371.46,-242.22 361.29,-239.27 367.4,-247.92 371.46,-242.22"/>
</a>
</g>
</g>
<!-- Node6 -->
<g id="Node000006" class="node">
<title>Node6</title>
<g id="a_Node000006"><a xlink:title=" ">
<polygon fill="#e0e0e0" stroke="#999999" points="595.5,-239 432.5,-239 432.5,-220 595.5,-220 595.5,-239"/>
<text text-anchor="middle" x="514" y="-227" font-family="Helvetica,sans-Serif" font-size="10.00">glm/gtc/matrix_transform.hpp</text>
</a>
</g>
</g>
<!-- Node1&#45;&gt;Node6 -->
<g id="edge5_Node000001_Node000006" class="edge">
<title>Node1&#45;&gt;Node6</title>
<g id="a_edge5_Node000001_Node000006"><a xlink:title=" ">
<path fill="none" stroke="#63b8ff" d="M451.09,-274.84C463.88,-265.83 480.4,-254.18 493.3,-245.09"/>
<polygon fill="#63b8ff" stroke="#63b8ff" points="495.41,-247.89 501.56,-239.27 491.37,-242.17 495.41,-247.89"/>
</a>
</g>
</g>
<!-- Node7 -->
<g id="Node000007" class="node">
<title>Node7</title>
<g id="a_Node000007"><a xlink:title=" ">
<polygon fill="#e0e0e0" stroke="#999999" points="786,-239 614,-239 614,-220 786,-220 786,-239"/>
<text text-anchor="middle" x="700" y="-227" font-family="Helvetica,sans-Serif" font-size="10.00">glm/gtx/matrix_decompose.hpp</text>
</a>
</g>
</g>
<!-- Node1&#45;&gt;Node7 -->
<g id="edge6_Node000001_Node000007" class="edge">
<title>Node1&#45;&gt;Node7</title>
<g id="a_edge6_Node000001_Node000007"><a xlink:title=" ">
<path fill="none" stroke="#63b8ff" d="M495.43,-274.99C543.16,-264.61 607.23,-250.68 650.86,-241.19"/>
<polygon fill="#63b8ff" stroke="#63b8ff" points="651.64,-244.6 660.67,-239.05 650.15,-237.76 651.64,-244.6"/>
</a>
</g>
</g>
<!-- Node8 -->
<g id="Node000008" class="node">
<title>Node8</title>
<g id="a_Node000008"><a xlink:title=" ">
<polygon fill="#e0e0e0" stroke="#999999" points="935.5,-239 804.5,-239 804.5,-220 935.5,-220 935.5,-239"/>
<text text-anchor="middle" x="870" y="-227" font-family="Helvetica,sans-Serif" font-size="10.00">glm/gtx/string_cast.hpp</text>
</a>
</g>
</g>
<!-- Node1&#45;&gt;Node8 -->
<g id="edge7_Node000001_Node000008" class="edge">
<title>Node1&#45;&gt;Node8</title>
<g id="a_edge7_Node000001_Node000008"><a xlink:title=" ">
<path fill="none" stroke="#63b8ff" d="M504.97,-279.14C585.94,-268.35 714.98,-251.16 795.96,-240.37"/>
<polygon fill="#63b8ff" stroke="#63b8ff" points="796.63,-243.81 806.08,-239.02 795.71,-236.87 796.63,-243.81"/>
</a>
</g>
</g>
<!-- Node9 -->
<g id="Node000009" class="node">
<title>Node9</title>
<g id="a_Node000009"><a xlink:href="_math_2_utils_8hpp.html" target="_top" xlink:title=" ">
<polygon fill="white" stroke="#666666" points="266,-239 178,-239 178,-220 266,-220 266,-239"/>
<text text-anchor="middle" x="222" y="-227" font-family="Helvetica,sans-Serif" font-size="10.00">Math/Utils.hpp</text>
</a>
</g>
</g>
<!-- Node1&#45;&gt;Node9 -->
<g id="edge8_Node000001_Node000009" class="edge">
<title>Node1&#45;&gt;Node9</title>
<g id="a_edge8_Node000001_Node000009"><a xlink:title=" ">
<path fill="none" stroke="#63b8ff" d="M380.94,-274.99C344.71,-264.85 296.38,-251.32 262.56,-241.85"/>
<polygon fill="#63b8ff" stroke="#63b8ff" points="263.13,-238.38 252.56,-239.05 261.25,-245.12 263.13,-238.38"/>
</a>
</g>
</g>
<!-- Node10 -->
<g id="Node000010" class="node">
<title>Node10</title>
<g id="a_Node000010"><a xlink:href="_registry_8hpp.html" target="_top" xlink:title=" ">
<polygon fill="white" stroke="#666666" points="1052,-239 954,-239 954,-220 1052,-220 1052,-239"/>
<text text-anchor="middle" x="1003" y="-227" font-family="Helvetica,sans-Serif" font-size="10.00">ECS/Registry.hpp</text>
</a>
</g>
</g>
<!-- Node1&#45;&gt;Node10 -->
<g id="edge10_Node000001_Node000010" class="edge">
<title>Node1&#45;&gt;Node10</title>
<g id="a_edge10_Node000001_Node000010"><a xlink:title=" ">
<path fill="none" stroke="#63b8ff" d="M504.6,-282.9C602.28,-274.56 780.37,-258.52 943.54,-239"/>
<polygon fill="#63b8ff" stroke="#63b8ff" points="944.26,-242.44 953.77,-237.77 943.42,-235.49 944.26,-242.44"/>
</a>
</g>
</g>
<!-- Node24 -->
<g id="Node000024" class="node">
<title>Node24</title>
<g id="a_Node000024"><a xlink:href="_base_component_8hpp.html" target="_top" xlink:title=" ">
<polygon fill="white" stroke="#666666" points="1331,-239 1149,-239 1149,-220 1331,-220 1331,-239"/>
<text text-anchor="middle" x="1240" y="-227" font-family="Helvetica,sans-Serif" font-size="10.00">Components/BaseComponent.hpp</text>
</a>
</g>
</g>
<!-- Node1&#45;&gt;Node24 -->
<g id="edge30_Node000001_Node000024" class="edge">
<title>Node1&#45;&gt;Node24</title>
<g id="a_edge30_Node000001_Node000024"><a xlink:title=" ">
<path fill="none" stroke="#63b8ff" d="M504.58,-283.68C649.75,-273.18 973.25,-249.79 1138.54,-237.84"/>
<polygon fill="#63b8ff" stroke="#63b8ff" points="1138.99,-241.31 1148.71,-237.1 1138.49,-234.33 1138.99,-241.31"/>
</a>
</g>
</g>
<!-- Node9&#45;&gt;Node4 -->
<g id="edge9_Node000009_Node000004" class="edge">
<title>Node9&#45;&gt;Node4</title>
<g id="a_edge9_Node000009_Node000004"><a xlink:title=" ">
<path fill="none" stroke="#63b8ff" d="M216.06,-219.75C211.02,-212.34 203.66,-201.5 197.49,-192.41"/>
<polygon fill="#63b8ff" stroke="#63b8ff" points="200.35,-190.39 191.83,-184.09 194.56,-194.33 200.35,-190.39"/>
</a>
</g>
</g>
<!-- Node11 -->
<g id="Node000011" class="node">
<title>Node11</title>
<g id="a_Node000011"><a xlink:title=" ">
<polygon fill="#e0e0e0" stroke="#999999" points="1205,-129 1119,-129 1119,-110 1205,-110 1205,-129"/>
<text text-anchor="middle" x="1162" y="-117" font-family="Helvetica,sans-Serif" font-size="10.00">unordered_set</text>
</a>
</g>
</g>
<!-- Node10&#45;&gt;Node11 -->
<g id="edge11_Node000010_Node000011" class="edge">
<title>Node10&#45;&gt;Node11</title>
<g id="a_edge11_Node000010_Node000011"><a xlink:title=" ">
<path fill="none" stroke="#63b8ff" d="M1052.33,-222.46C1097.67,-215.78 1160.04,-203.33 1175,-184 1185.09,-170.97 1179.38,-152.07 1172.65,-138.27"/>
<polygon fill="#63b8ff" stroke="#63b8ff" points="1175.62,-136.41 1167.77,-129.29 1169.47,-139.75 1175.62,-136.41"/>
</a>
</g>
</g>
<!-- Node12 -->
<g id="Node000012" class="node">
<title>Node12</title>
<g id="a_Node000012"><a xlink:href="_logger_8hpp.html" target="_top" xlink:title=" ">
<polygon fill="white" stroke="#666666" points="834.5,-184 717.5,-184 717.5,-165 834.5,-165 834.5,-184"/>
<text text-anchor="middle" x="776" y="-172" font-family="Helvetica,sans-Serif" font-size="10.00">Common/Logger.hpp</text>
</a>
</g>
</g>
<!-- Node10&#45;&gt;Node12 -->
<g id="edge12_Node000010_Node000012" class="edge">
<title>Node10&#45;&gt;Node12</title>
<g id="a_edge12_Node000010_Node000012"><a xlink:title=" ">
<path fill="none" stroke="#63b8ff" d="M966.53,-219.98C927.43,-210.86 865.23,-196.33 822.61,-186.38"/>
<polygon fill="#63b8ff" stroke="#63b8ff" points="823.29,-182.95 812.76,-184.08 821.7,-189.76 823.29,-182.95"/>
</a>
</g>
</g>
<!-- Node15 -->
<g id="Node000015" class="node">
<title>Node15</title>
<g id="a_Node000015"><a xlink:href="_entity_8hpp.html" target="_top" xlink:title=" ">
<polygon fill="white" stroke="#666666" points="862,-74 776,-74 776,-55 862,-55 862,-74"/>
<text text-anchor="middle" x="819" y="-62" font-family="Helvetica,sans-Serif" font-size="10.00">ECS/Entity.hpp</text>
</a>
</g>
</g>
<!-- Node10&#45;&gt;Node15 -->
<g id="edge15_Node000010_Node000015" class="edge">
<title>Node10&#45;&gt;Node15</title>
<g id="a_edge15_Node000010_Node000015"><a xlink:title=" ">
<path fill="none" stroke="#63b8ff" d="M1052.36,-222.11C1101.12,-214.9 1171.31,-201.81 1192,-184 1218,-161.61 1236.86,-135.58 1214,-110 1191.63,-84.97 975.09,-72.28 872.46,-67.63"/>
<polygon fill="#63b8ff" stroke="#63b8ff" points="872.44,-64.13 862.3,-67.18 872.13,-71.12 872.44,-64.13"/>
</a>
</g>
</g>
<!-- Node17 -->
<g id="Node000017" class="node">
<title>Node17</title>
<g id="a_Node000017"><a xlink:href="_entity_hierarchy_8hpp.html" target="_top" xlink:title=" ">
<polygon fill="white" stroke="#666666" points="987,-184 853,-184 853,-165 987,-165 987,-184"/>
<text text-anchor="middle" x="920" y="-172" font-family="Helvetica,sans-Serif" font-size="10.00">ECS/EntityHierarchy.hpp</text>
</a>
</g>
</g>
<!-- Node10&#45;&gt;Node17 -->
<g id="edge17_Node000010_Node000017" class="edge">
<title>Node10&#45;&gt;Node17</title>
<g id="a_edge17_Node000010_Node000017"><a xlink:title=" ">
<path fill="none" stroke="#63b8ff" d="M989.66,-219.98C976.91,-211.84 957.45,-199.41 942.33,-189.76"/>
<polygon fill="#63b8ff" stroke="#63b8ff" points="943.89,-186.6 933.58,-184.17 940.12,-192.5 943.89,-186.6"/>
</a>
</g>
</g>
<!-- Node21 -->
<g id="Node000021" class="node">
<title>Node21</title>
<g id="a_Node000021"><a xlink:href="_entity_provider_8hpp.html" target="_top" xlink:title="Manages a pool of unused entity identifiers and provides mechanisms for requesting and removing them.">
<polygon fill="white" stroke="#666666" points="695,-129 567,-129 567,-110 695,-110 695,-129"/>
<text text-anchor="middle" x="631" y="-117" font-family="Helvetica,sans-Serif" font-size="10.00">ECS/EntityProvider.hpp</text>
</a>
</g>
</g>
<!-- Node10&#45;&gt;Node21 -->
<g id="edge23_Node000010_Node000021" class="edge">
<title>Node10&#45;&gt;Node21</title>
<g id="a_edge23_Node000010_Node000021"><a xlink:title=" ">
<path fill="none" stroke="#63b8ff" d="M953.77,-221.24C950.46,-220.81 947.18,-220.39 944,-220 903.88,-215.12 609.13,-213.96 582,-184 567.41,-167.89 588.83,-147.82 607.77,-134.6"/>
<polygon fill="#63b8ff" stroke="#63b8ff" points="609.75,-137.49 616.16,-129.05 605.89,-131.65 609.75,-137.49"/>
</a>
</g>
</g>
<!-- Node22 -->
<g id="Node000022" class="node">
<title>Node22</title>
<g id="a_Node000022"><a xlink:href="_singleton_component_8hpp.html" target="_top" xlink:title=" ">
<polygon fill="white" stroke="#666666" points="1166.5,-184 1005.5,-184 1005.5,-165 1166.5,-165 1166.5,-184"/>
<text text-anchor="middle" x="1086" y="-172" font-family="Helvetica,sans-Serif" font-size="10.00">ECS/SingletonComponent.hpp</text>
</a>
</g>
</g>
<!-- Node10&#45;&gt;Node22 -->
<g id="edge27_Node000010_Node000022" class="edge">
<title>Node10&#45;&gt;Node22</title>
<g id="a_edge27_Node000010_Node000022"><a xlink:title=" ">
<path fill="none" stroke="#63b8ff" d="M1016.34,-219.98C1029.09,-211.84 1048.55,-199.41 1063.67,-189.76"/>
<polygon fill="#63b8ff" stroke="#63b8ff" points="1065.88,-192.5 1072.42,-184.17 1062.11,-186.6 1065.88,-192.5"/>
</a>
</g>
</g>
<!-- Node23 -->
<g id="Node000023" class="node">
<title>Node23</title>
<g id="a_Node000023"><a xlink:href="_sparse_set_8hpp.html" target="_top" xlink:title=" ">
<polygon fill="white" stroke="#666666" points="699,-184 591,-184 591,-165 699,-165 699,-184"/>
<text text-anchor="middle" x="645" y="-172" font-family="Helvetica,sans-Serif" font-size="10.00">ECS/SparseSet.hpp</text>
</a>
</g>
</g>
<!-- Node10&#45;&gt;Node23 -->
<g id="edge28_Node000010_Node000023" class="edge">
<title>Node10&#45;&gt;Node23</title>
<g id="a_edge28_Node000010_Node000023"><a xlink:title=" ">
<path fill="none" stroke="#63b8ff" d="M953.97,-221.24C890.45,-211.84 779.56,-195.42 709.34,-185.02"/>
<polygon fill="#63b8ff" stroke="#63b8ff" points="709.69,-181.54 699.28,-183.54 708.66,-188.46 709.69,-181.54"/>
</a>
</g>
</g>
<!-- Node13 -->
<g id="Node000013" class="node">
<title>Node13</title>
<g id="a_Node000013"><a xlink:title=" ">
<polygon fill="#e0e0e0" stroke="#999999" points="761,-129 713,-129 713,-110 761,-110 761,-129"/>
<text text-anchor="middle" x="737" y="-117" font-family="Helvetica,sans-Serif" font-size="10.00">mutex</text>
</a>
</g>
</g>
<!-- Node12&#45;&gt;Node13 -->
<g id="edge13_Node000012_Node000013" class="edge">
<title>Node12&#45;&gt;Node13</title>
<g id="a_edge13_Node000012_Node000013"><a xlink:title=" ">
<path fill="none" stroke="#63b8ff" d="M769.56,-164.75C764.11,-157.34 756.14,-146.5 749.44,-137.41"/>
<polygon fill="#63b8ff" stroke="#63b8ff" points="752.07,-135.07 743.32,-129.09 746.43,-139.22 752.07,-135.07"/>
</a>
</g>
</g>
<!-- Node14 -->
<g id="Node000014" class="node">
<title>Node14</title>
<g id="a_Node000014"><a xlink:title=" ">
<polygon fill="#e0e0e0" stroke="#999999" points="750.5,-74 703.5,-74 703.5,-55 750.5,-55 750.5,-74"/>
<text text-anchor="middle" x="727" y="-62" font-family="Helvetica,sans-Serif" font-size="10.00">queue</text>
</a>
</g>
</g>
<!-- Node12&#45;&gt;Node14 -->
<g id="edge14_Node000012_Node000014" class="edge">
<title>Node12&#45;&gt;Node14</title>
<g id="a_edge14_Node000012_Node000014"><a xlink:title=" ">
<path fill="none" stroke="#63b8ff" d="M776.93,-164.82C777.91,-152.14 778.33,-128.11 770,-110 764.83,-98.76 755.6,-88.62 747.02,-80.88"/>
<polygon fill="#63b8ff" stroke="#63b8ff" points="749.04,-78 739.14,-74.22 744.52,-83.35 749.04,-78"/>
</a>
</g>
</g>
<!-- Node16 -->
<g id="Node000016" class="node">
<title>Node16</title>
<g id="a_Node000016"><a xlink:title=" ">
<polygon fill="#e0e0e0" stroke="#999999" points="754.5,-19 701.5,-19 701.5,0 754.5,0 754.5,-19"/>
<text text-anchor="middle" x="728" y="-7" font-family="Helvetica,sans-Serif" font-size="10.00">stdlib.h</text>
</a>
</g>
</g>
<!-- Node15&#45;&gt;Node16 -->
<g id="edge16_Node000015_Node000016" class="edge">
<title>Node15&#45;&gt;Node16</title>
<g id="a_edge16_Node000015_Node000016"><a xlink:title=" ">
<path fill="none" stroke="#63b8ff" d="M804.38,-54.98C790.14,-46.69 768.25,-33.94 751.55,-24.22"/>
<polygon fill="#63b8ff" stroke="#63b8ff" points="753.29,-21.18 742.89,-19.17 749.77,-27.23 753.29,-21.18"/>
</a>
</g>
</g>
<!-- Node17&#45;&gt;Node11 -->
<g id="edge21_Node000017_Node000011" class="edge">
<title>Node17&#45;&gt;Node11</title>
<g id="a_edge21_Node000017_Node000011"><a xlink:title=" ">
<path fill="none" stroke="#63b8ff" d="M958.88,-164.98C1000.74,-155.82 1067.43,-141.21 1112.88,-131.26"/>
<polygon fill="#63b8ff" stroke="#63b8ff" points="1113.79,-134.64 1122.81,-129.08 1112.3,-127.8 1113.79,-134.64"/>
</a>
</g>
</g>
<!-- Node17&#45;&gt;Node15 -->
<g id="edge22_Node000017_Node000015" class="edge">
<title>Node17&#45;&gt;Node15</title>
<g id="a_edge22_Node000017_Node000015"><a xlink:title=" ">
<path fill="none" stroke="#63b8ff" d="M898.37,-164.91C882.11,-157.5 860.26,-145.4 846,-129 834.71,-116.02 827.59,-97.62 823.52,-83.96"/>
<polygon fill="#63b8ff" stroke="#63b8ff" points="826.87,-82.96 820.88,-74.23 820.11,-84.79 826.87,-82.96"/>
</a>
</g>
</g>
<!-- Node18 -->
<g id="Node000018" class="node">
<title>Node18</title>
<g id="a_Node000018"><a xlink:title=" ">
<polygon fill="#e0e0e0" stroke="#999999" points="920.5,-129 855.5,-129 855.5,-110 920.5,-110 920.5,-129"/>
<text text-anchor="middle" x="888" y="-117" font-family="Helvetica,sans-Serif" font-size="10.00">functional</text>
</a>
</g>
</g>
<!-- Node17&#45;&gt;Node18 -->
<g id="edge18_Node000017_Node000018" class="edge">
<title>Node17&#45;&gt;Node18</title>
<g id="a_edge18_Node000017_Node000018"><a xlink:title=" ">
<path fill="none" stroke="#63b8ff" d="M914.72,-164.75C910.29,-157.42 903.84,-146.73 898.38,-137.7"/>
<polygon fill="#63b8ff" stroke="#63b8ff" points="901.35,-135.84 893.19,-129.09 895.36,-139.46 901.35,-135.84"/>
</a>
</g>
</g>
<!-- Node19 -->
<g id="Node000019" class="node">
<title>Node19</title>
<g id="a_Node000019"><a xlink:title=" ">
<polygon fill="#e0e0e0" stroke="#999999" points="989,-129 939,-129 939,-110 989,-110 989,-129"/>
<text text-anchor="middle" x="964" y="-117" font-family="Helvetica,sans-Serif" font-size="10.00">ranges</text>
</a>
</g>
</g>
<!-- Node17&#45;&gt;Node19 -->
<g id="edge19_Node000017_Node000019" class="edge">
<title>Node17&#45;&gt;Node19</title>
<g id="a_edge19_Node000017_Node000019"><a xlink:title=" ">
<path fill="none" stroke="#63b8ff" d="M927.27,-164.75C933.54,-157.18 942.79,-146.05 950.43,-136.84"/>
<polygon fill="#63b8ff" stroke="#63b8ff" points="953.17,-139.02 956.87,-129.09 947.79,-134.55 953.17,-139.02"/>
</a>
</g>
</g>
<!-- Node20 -->
<g id="Node000020" class="node">
<title>Node20</title>
<g id="a_Node000020"><a xlink:title=" ">
<polygon fill="#e0e0e0" stroke="#999999" points="1100.5,-129 1007.5,-129 1007.5,-110 1100.5,-110 1100.5,-129"/>
<text text-anchor="middle" x="1054" y="-117" font-family="Helvetica,sans-Serif" font-size="10.00">unordered_map</text>
</a>
</g>
</g>
<!-- Node17&#45;&gt;Node20 -->
<g id="edge20_Node000017_Node000020" class="edge">
<title>Node17&#45;&gt;Node20</title>
<g id="a_edge20_Node000017_Node000020"><a xlink:title=" ">
<path fill="none" stroke="#63b8ff" d="M941.53,-164.98C963.47,-156.3 997.74,-142.75 1022.69,-132.88"/>
<polygon fill="#63b8ff" stroke="#63b8ff" points="1024.07,-136.1 1032.08,-129.17 1021.49,-129.59 1024.07,-136.1"/>
</a>
</g>
</g>
<!-- Node21&#45;&gt;Node14 -->
<g id="edge25_Node000021_Node000014" class="edge">
<title>Node21&#45;&gt;Node14</title>
<g id="a_edge25_Node000021_Node000014"><a xlink:title=" ">
<path fill="none" stroke="#63b8ff" d="M646.42,-109.98C661.45,-101.69 684.54,-88.94 702.16,-79.22"/>
<polygon fill="#63b8ff" stroke="#63b8ff" points="704.23,-82.07 711.3,-74.17 700.85,-75.94 704.23,-82.07"/>
</a>
</g>
</g>
<!-- Node21&#45;&gt;Node15 -->
<g id="edge26_Node000021_Node000015" class="edge">
<title>Node21&#45;&gt;Node15</title>
<g id="a_edge26_Node000021_Node000015"><a xlink:title=" ">
<path fill="none" stroke="#63b8ff" d="M661.21,-109.98C693.04,-101.01 743.36,-86.82 778.6,-76.89"/>
<polygon fill="#63b8ff" stroke="#63b8ff" points="779.88,-80.16 788.56,-74.08 777.98,-73.43 779.88,-80.16"/>
</a>
</g>
</g>
<!-- Node21&#45;&gt;Node16 -->
<g id="edge24_Node000021_Node000016" class="edge">
<title>Node21&#45;&gt;Node16</title>
<g id="a_edge24_Node000021_Node000016"><a xlink:title=" ">
<path fill="none" stroke="#63b8ff" d="M638.94,-109.66C655.22,-91.54 692.6,-49.91 713.39,-26.77"/>
<polygon fill="#63b8ff" stroke="#63b8ff" points="716.15,-28.94 720.22,-19.16 710.94,-24.26 716.15,-28.94"/>
</a>
</g>
</g>
<!-- Node23&#45;&gt;Node21 -->
<g id="edge29_Node000023_Node000021" class="edge">
<title>Node23&#45;&gt;Node21</title>
<g id="a_edge29_Node000023_Node000021"><a xlink:title=" ">
<path fill="none" stroke="#63b8ff" d="M642.69,-164.75C640.83,-157.72 638.16,-147.62 635.85,-138.84"/>
<polygon fill="#63b8ff" stroke="#63b8ff" points="639.21,-137.86 633.27,-129.09 632.44,-139.65 639.21,-137.86"/>
</a>
</g>
</g>
<!-- Node25 -->
<g id="Node000025" class="node">
<title>Node25</title>
<g id="a_Node000025"><a xlink:href="_types_8hpp.html" target="_top" xlink:title=" ">
<polygon fill="white" stroke="#666666" points="1374.5,-184 1261.5,-184 1261.5,-165 1374.5,-165 1374.5,-184"/>
<text text-anchor="middle" x="1318" y="-172" font-family="Helvetica,sans-Serif" font-size="10.00">Common/Types.hpp</text>
</a>
</g>
</g>
<!-- Node24&#45;&gt;Node25 -->
<g id="edge31_Node000024_Node000025" class="edge">
<title>Node24&#45;&gt;Node25</title>
<g id="a_edge31_Node000024_Node000025"><a xlink:title=" ">
<path fill="none" stroke="#63b8ff" d="M1252.53,-219.98C1264.4,-211.92 1282.46,-199.65 1296.61,-190.03"/>
<polygon fill="#63b8ff" stroke="#63b8ff" points="1298.94,-192.69 1305.24,-184.17 1295,-186.9 1298.94,-192.69"/>
</a>
</g>
</g>
<!-- Node26 -->
<g id="Node000026" class="node">
<title>Node26</title>
<g id="a_Node000026"><a xlink:title=" ">
<polygon fill="#e0e0e0" stroke="#999999" points="1352,-129 1284,-129 1284,-110 1352,-110 1352,-129"/>
<text text-anchor="middle" x="1318" y="-117" font-family="Helvetica,sans-Serif" font-size="10.00">filesystem</text>
</a>
</g>
</g>
<!-- Node25&#45;&gt;Node26 -->
<g id="edge32_Node000025_Node000026" class="edge">
<title>Node25&#45;&gt;Node26</title>
<g id="a_edge32_Node000025_Node000026"><a xlink:title=" ">
<path fill="none" stroke="#63b8ff" d="M1318,-164.75C1318,-157.8 1318,-147.85 1318,-139.13"/>
<polygon fill="#63b8ff" stroke="#63b8ff" points="1321.5,-139.09 1318,-129.09 1314.5,-139.09 1321.5,-139.09"/>
</a>
</g>
</g>
</g>
</svg>
