<?xml version="1.0" encoding="UTF-8" standalone="no"?>
<!DOCTYPE svg PUBLIC "-//W3C//DTD SVG 1.1//EN"
 "http://www.w3.org/Graphics/SVG/1.1/DTD/svg11.dtd">
<!-- Generated by graphviz version 2.43.0 (0)
 -->
<!-- Title: src/Components/TransformComponent.hpp Pages: 1 -->
<svg width="1502pt" height="173pt"
 viewBox="0.00 0.00 1502.00 173.00" xmlns="http://www.w3.org/2000/svg" xmlns:xlink="http://www.w3.org/1999/xlink">
<g id="graph0" class="graph" transform="scale(1 1) rotate(0) translate(4 169)">
<title>src/Components/TransformComponent.hpp</title>
<polygon fill="white" stroke="transparent" points="-4,4 -4,-169 1498,-169 1498,4 -4,4"/>
<!-- Node1 -->
<g id="node1" class="node">
<title>Node1</title>
<g id="a_node1"><a xlink:title=" ">
<polygon fill="#bfbfbf" stroke="black" points="689,-134.5 689,-164.5 836,-164.5 836,-134.5 689,-134.5"/>
<text text-anchor="start" x="697" y="-152.5" font-family="Helvetica,sans-Serif" font-size="10.00">src/Components/Transform</text>
<text text-anchor="middle" x="762.5" y="-141.5" font-family="Helvetica,sans-Serif" font-size="10.00">Component.hpp</text>
</a>
</g>
</g>
<!-- Node2 -->
<g id="node2" class="node">
<title>Node2</title>
<g id="a_node2"><a xlink:href="_box_collider_component_8hpp.html" target="_top" xlink:title=" ">
<polygon fill="white" stroke="black" points="738,-67.5 738,-97.5 893,-97.5 893,-67.5 738,-67.5"/>
<text text-anchor="start" x="746" y="-85.5" font-family="Helvetica,sans-Serif" font-size="10.00">src/Components/BoxCollider</text>
<text text-anchor="middle" x="815.5" y="-74.5" font-family="Helvetica,sans-Serif" font-size="10.00">Component.hpp</text>
</a>
</g>
</g>
<!-- Node1&#45;&gt;Node2 -->
<g id="edge1" class="edge">
<title>Node1&#45;&gt;Node2</title>
<path fill="none" stroke="midnightblue" d="M780.48,-126.45C788.27,-116.9 797.15,-106 804.02,-97.58"/>
<polygon fill="midnightblue" stroke="midnightblue" points="777.61,-124.43 774,-134.4 783.03,-128.86 777.61,-124.43"/>
</g>
<!-- Node3 -->
<g id="node3" class="node">
<title>Node3</title>
<g id="a_node3"><a xlink:href="main_8cpp.html" target="_top" xlink:title=" ">
<polygon fill="white" stroke="black" points="772,-6 772,-25 851,-25 851,-6 772,-6"/>
<text text-anchor="middle" x="811.5" y="-13" font-family="Helvetica,sans-Serif" font-size="10.00">src/main.cpp</text>
</a>
</g>
</g>
<!-- Node1&#45;&gt;Node3 -->
<g id="edge12" class="edge">
<title>Node1&#45;&gt;Node3</title>
<path fill="none" stroke="midnightblue" d="M742.9,-126.34C730.55,-109.55 718.79,-86.18 729.5,-67 741.16,-46.13 765.38,-32.82 784.49,-25.13"/>
<polygon fill="midnightblue" stroke="midnightblue" points="740.36,-128.77 749.3,-134.46 745.86,-124.44 740.36,-128.77"/>
</g>
<!-- Node4 -->
<g id="node4" class="node">
<title>Node4</title>
<g id="a_node4"><a xlink:href="_object_selection_system_8cpp.html" target="_top" xlink:title=" ">
<polygon fill="white" stroke="black" points="599,-0.5 599,-30.5 754,-30.5 754,-0.5 599,-0.5"/>
<text text-anchor="start" x="607" y="-18.5" font-family="Helvetica,sans-Serif" font-size="10.00">src/Systems/ObjectSelection</text>
<text text-anchor="middle" x="676.5" y="-7.5" font-family="Helvetica,sans-Serif" font-size="10.00">System.cpp</text>
</a>
</g>
</g>
<!-- Node1&#45;&gt;Node4 -->
<g id="edge15" class="edge">
<title>Node1&#45;&gt;Node4</title>
<path fill="none" stroke="midnightblue" d="M742.49,-126.39C735.17,-117.82 727.08,-107.74 720.5,-98 705.28,-75.49 690.98,-47.18 683.02,-30.54"/>
<polygon fill="midnightblue" stroke="midnightblue" points="739.98,-128.84 749.19,-134.08 745.26,-124.24 739.98,-128.84"/>
</g>
<!-- Node6 -->
<g id="node6" class="node">
<title>Node6</title>
<g id="a_node6"><a xlink:href="_properties_widget_8cpp.html" target="_top" xlink:title=" ">
<polygon fill="white" stroke="black" points="1084,-0.5 1084,-30.5 1221,-30.5 1221,-0.5 1084,-0.5"/>
<text text-anchor="start" x="1092" y="-18.5" font-family="Helvetica,sans-Serif" font-size="10.00">src/ui/widgets/Properties</text>
<text text-anchor="middle" x="1152.5" y="-7.5" font-family="Helvetica,sans-Serif" font-size="10.00">Widget.cpp</text>
</a>
</g>
</g>
<!-- Node1&#45;&gt;Node6 -->
<g id="edge19" class="edge">
<title>Node1&#45;&gt;Node6</title>
<path fill="none" stroke="midnightblue" d="M824.02,-131.3C849.19,-123.01 878.09,-111.82 902.5,-98 921.47,-87.26 920.96,-76.66 940.5,-67 965.47,-54.66 1031.86,-39.8 1083.75,-29.41"/>
<polygon fill="midnightblue" stroke="midnightblue" points="822.66,-128.06 814.21,-134.45 824.8,-134.73 822.66,-128.06"/>
</g>
<!-- Node7 -->
<g id="node7" class="node">
<title>Node7</title>
<g id="a_node7"><a xlink:href="_camera_component_8hpp.html" target="_top" xlink:title=" ">
<polygon fill="white" stroke="black" points="408.5,-73 408.5,-92 622.5,-92 622.5,-73 408.5,-73"/>
<text text-anchor="middle" x="515.5" y="-80" font-family="Helvetica,sans-Serif" font-size="10.00">src/Components/CameraComponent.hpp</text>
</a>
</g>
</g>
<!-- Node1&#45;&gt;Node7 -->
<g id="edge6" class="edge">
<title>Node1&#45;&gt;Node7</title>
<path fill="none" stroke="midnightblue" d="M699.46,-131.91C651.09,-119.18 586.28,-102.13 547.91,-92.03"/>
<polygon fill="midnightblue" stroke="midnightblue" points="698.65,-135.32 709.21,-134.48 700.43,-128.55 698.65,-135.32"/>
</g>
<!-- Node8 -->
<g id="node8" class="node">
<title>Node8</title>
<g id="a_node8"><a xlink:href="_development_renderer_system_8cpp.html" target="_top" xlink:title=" ">
<polygon fill="white" stroke="black" points="0,-0.5 0,-30.5 189,-30.5 189,-0.5 0,-0.5"/>
<text text-anchor="start" x="8" y="-18.5" font-family="Helvetica,sans-Serif" font-size="10.00">src/Systems/DevelopmentRenderer</text>
<text text-anchor="middle" x="94.5" y="-7.5" font-family="Helvetica,sans-Serif" font-size="10.00">System.cpp</text>
</a>
</g>
</g>
<!-- Node1&#45;&gt;Node8 -->
<g id="edge14" class="edge">
<title>Node1&#45;&gt;Node8</title>
<path fill="none" stroke="midnightblue" d="M678.86,-142.96C594.68,-136.3 461.49,-122.78 348.5,-98 269.34,-80.64 179.71,-48.93 130.92,-30.6"/>
<polygon fill="midnightblue" stroke="midnightblue" points="678.64,-146.46 688.88,-143.74 679.18,-139.48 678.64,-146.46"/>
</g>
<!-- Node9 -->
<g id="node9" class="node">
<title>Node9</title>
<g id="a_node9"><a xlink:href="_rendering_system_8cpp.html" target="_top" xlink:title=" ">
<polygon fill="white" stroke="black" points="207,-6 207,-25 392,-25 392,-6 207,-6"/>
<text text-anchor="middle" x="299.5" y="-13" font-family="Helvetica,sans-Serif" font-size="10.00">src/Systems/RenderingSystem.cpp</text>
</a>
</g>
</g>
<!-- Node1&#45;&gt;Node9 -->
<g id="edge16" class="edge">
<title>Node1&#45;&gt;Node9</title>
<path fill="none" stroke="midnightblue" d="M678.63,-142.09C587.42,-134.21 448.13,-119.2 399.5,-98 359.46,-80.55 322.4,-42.4 307.01,-25.2"/>
<polygon fill="midnightblue" stroke="midnightblue" points="678.42,-145.59 688.68,-142.95 679.01,-138.61 678.42,-145.59"/>
</g>
<!-- Node11 -->
<g id="node11" class="node">
<title>Node11</title>
<g id="a_node11"><a xlink:href="_camera_movement_system_8cpp.html" target="_top" xlink:title=" ">
<polygon fill="white" stroke="black" points="949.5,-67.5 949.5,-97.5 1119.5,-97.5 1119.5,-67.5 949.5,-67.5"/>
<text text-anchor="start" x="957.5" y="-85.5" font-family="Helvetica,sans-Serif" font-size="10.00">src/Systems/CameraMovement</text>
<text text-anchor="middle" x="1034.5" y="-74.5" font-family="Helvetica,sans-Serif" font-size="10.00">System.cpp</text>
</a>
</g>
</g>
<!-- Node1&#45;&gt;Node11 -->
<g id="edge13" class="edge">
<title>Node1&#45;&gt;Node11</title>
<path fill="none" stroke="midnightblue" d="M831.05,-132.12C875.56,-121.48 932.97,-107.76 975.45,-97.61"/>
<polygon fill="midnightblue" stroke="midnightblue" points="830.1,-128.75 821.19,-134.48 831.72,-135.56 830.1,-128.75"/>
</g>
<!-- Node12 -->
<g id="node12" class="node">
<title>Node12</title>
<g id="a_node12"><a xlink:href="_transform_component_u_i_8hpp.html" target="_top" xlink:title=" ">
<polygon fill="white" stroke="black" points="1138,-67.5 1138,-97.5 1297,-97.5 1297,-67.5 1138,-67.5"/>
<text text-anchor="start" x="1146" y="-85.5" font-family="Helvetica,sans-Serif" font-size="10.00">src/ui/Components/Transform</text>
<text text-anchor="middle" x="1217.5" y="-74.5" font-family="Helvetica,sans-Serif" font-size="10.00">ComponentUI.hpp</text>
</a>
</g>
</g>
<!-- Node1&#45;&gt;Node12 -->
<g id="edge17" class="edge">
<title>Node1&#45;&gt;Node12</title>
<path fill="none" stroke="midnightblue" d="M846.41,-137.51C920.65,-127.65 1031.87,-112.54 1128.5,-98 1131.6,-97.53 1134.75,-97.05 1137.94,-96.56"/>
<polygon fill="midnightblue" stroke="midnightblue" points="845.64,-134.09 836.18,-138.87 846.56,-141.03 845.64,-134.09"/>
</g>
<!-- Node13 -->
<g id="node13" class="node">
<title>Node13</title>
<g id="a_node13"><a xlink:href="_objects_widget_8cpp.html" target="_top" xlink:title=" ">
<polygon fill="white" stroke="black" points="1315,-73 1315,-92 1494,-92 1494,-73 1315,-73"/>
<text text-anchor="middle" x="1404.5" y="-80" font-family="Helvetica,sans-Serif" font-size="10.00">src/ui/widgets/ObjectsWidget.cpp</text>
</a>
</g>
</g>
<!-- Node1&#45;&gt;Node13 -->
<g id="edge18" class="edge">
<title>Node1&#45;&gt;Node13</title>
<path fill="none" stroke="midnightblue" d="M846.19,-142.15C953.13,-133.71 1143.88,-117.56 1306.5,-98 1320.84,-96.27 1336.33,-94.12 1350.65,-92"/>
<polygon fill="midnightblue" stroke="midnightblue" points="845.8,-138.67 836.11,-142.94 846.35,-145.65 845.8,-138.67"/>
</g>
<!-- Node2&#45;&gt;Node3 -->
<g id="edge2" class="edge">
<title>Node2&#45;&gt;Node3</title>
<path fill="none" stroke="midnightblue" d="M814.01,-57.25C813.32,-46.02 812.54,-33.38 812.04,-25.19"/>
<polygon fill="midnightblue" stroke="midnightblue" points="810.52,-57.63 814.63,-67.4 817.51,-57.2 810.52,-57.63"/>
</g>
<!-- Node2&#45;&gt;Node4 -->
<g id="edge3" class="edge">
<title>Node2&#45;&gt;Node4</title>
<path fill="none" stroke="midnightblue" d="M776.22,-63.13C754.13,-52.8 726.99,-40.11 706.6,-30.58"/>
<polygon fill="midnightblue" stroke="midnightblue" points="774.8,-66.33 785.34,-67.4 777.76,-59.99 774.8,-66.33"/>
</g>
<!-- Node5 -->
<g id="node5" class="node">
<title>Node5</title>
<g id="a_node5"><a xlink:href="_model_component_u_i_8cpp.html" target="_top" xlink:title=" ">
<polygon fill="white" stroke="black" points="869,-0.5 869,-30.5 1066,-30.5 1066,-0.5 869,-0.5"/>
<text text-anchor="start" x="877" y="-18.5" font-family="Helvetica,sans-Serif" font-size="10.00">src/ui/Components/ModelComponent</text>
<text text-anchor="middle" x="967.5" y="-7.5" font-family="Helvetica,sans-Serif" font-size="10.00">UI.cpp</text>
</a>
</g>
</g>
<!-- Node2&#45;&gt;Node5 -->
<g id="edge4" class="edge">
<title>Node2&#45;&gt;Node5</title>
<path fill="none" stroke="midnightblue" d="M857.81,-63.41C882.08,-53.03 912.09,-40.2 934.58,-30.58"/>
<polygon fill="midnightblue" stroke="midnightblue" points="856.3,-60.25 848.48,-67.4 859.05,-66.68 856.3,-60.25"/>
</g>
<!-- Node2&#45;&gt;Node6 -->
<g id="edge5" class="edge">
<title>Node2&#45;&gt;Node6</title>
<path fill="none" stroke="midnightblue" d="M898.28,-65.53C955.33,-54.53 1030.24,-40.08 1083.94,-29.72"/>
<polygon fill="midnightblue" stroke="midnightblue" points="897.37,-62.15 888.21,-67.48 898.69,-69.02 897.37,-62.15"/>
</g>
<!-- Node7&#45;&gt;Node3 -->
<g id="edge7" class="edge">
<title>Node7&#45;&gt;Node3</title>
<path fill="none" stroke="midnightblue" d="M574.35,-71.1C624.82,-61.81 699.33,-47.19 763.5,-31 770.42,-29.25 777.83,-27.14 784.71,-25.07"/>
<polygon fill="midnightblue" stroke="midnightblue" points="573.48,-67.7 564.27,-72.95 574.74,-74.59 573.48,-67.7"/>
</g>
<!-- Node7&#45;&gt;Node4 -->
<g id="edge9" class="edge">
<title>Node7&#45;&gt;Node4</title>
<path fill="none" stroke="midnightblue" d="M546.32,-69.06C573.59,-58.05 613.36,-41.99 641.75,-30.53"/>
<polygon fill="midnightblue" stroke="midnightblue" points="544.84,-65.88 536.88,-72.87 547.46,-72.37 544.84,-65.88"/>
</g>
<!-- Node7&#45;&gt;Node8 -->
<g id="edge8" class="edge">
<title>Node7&#45;&gt;Node8</title>
<path fill="none" stroke="midnightblue" d="M449.87,-71.37C378.88,-60.41 265.18,-42.85 185.56,-30.56"/>
<polygon fill="midnightblue" stroke="midnightblue" points="449.61,-74.87 460.03,-72.94 450.68,-67.95 449.61,-74.87"/>
</g>
<!-- Node7&#45;&gt;Node9 -->
<g id="edge10" class="edge">
<title>Node7&#45;&gt;Node9</title>
<path fill="none" stroke="midnightblue" d="M477.05,-69.93C434.28,-57.06 366.19,-36.57 327.96,-25.06"/>
<polygon fill="midnightblue" stroke="midnightblue" points="476.23,-73.34 486.82,-72.87 478.25,-66.64 476.23,-73.34"/>
</g>
<!-- Node10 -->
<g id="node10" class="node">
<title>Node10</title>
<g id="a_node10"><a xlink:href="_scene_widget_8cpp.html" target="_top" xlink:title=" ">
<polygon fill="white" stroke="black" points="410,-6 410,-25 581,-25 581,-6 410,-6"/>
<text text-anchor="middle" x="495.5" y="-13" font-family="Helvetica,sans-Serif" font-size="10.00">src/ui/widgets/SceneWidget.cpp</text>
</a>
</g>
</g>
<!-- Node7&#45;&gt;Node10 -->
<g id="edge11" class="edge">
<title>Node7&#45;&gt;Node10</title>
<path fill="none" stroke="midnightblue" d="M509.78,-62.91C505.96,-50.49 501.11,-34.72 498.15,-25.13"/>
<polygon fill="midnightblue" stroke="midnightblue" points="506.52,-64.21 512.8,-72.73 513.21,-62.15 506.52,-64.21"/>
</g>
</g>
</svg>
