<?xml version="1.0" encoding="UTF-8" standalone="no"?>
<!DOCTYPE svg PUBLIC "-//W3C//DTD SVG 1.1//EN"
 "http://www.w3.org/Graphics/SVG/1.1/DTD/svg11.dtd">
<!-- Generated by graphviz version 2.43.0 (0)
 -->
<!-- Title: src/ui/Components/TransformComponentUI.hpp Pages: 1 -->
<svg width="831pt" height="151pt"
 viewBox="0.00 0.00 830.50 151.00" xmlns="http://www.w3.org/2000/svg" xmlns:xlink="http://www.w3.org/1999/xlink">
<g id="graph0" class="graph" transform="scale(1 1) rotate(0) translate(4 147)">
<title>src/ui/Components/TransformComponentUI.hpp</title>
<polygon fill="white" stroke="transparent" points="-4,4 -4,-147 826.5,-147 826.5,4 -4,4"/>
<!-- Node1 -->
<g id="node1" class="node">
<title>Node1</title>
<g id="a_node1"><a xlink:title=" ">
<polygon fill="#bfbfbf" stroke="black" points="158,-112.5 158,-142.5 317,-142.5 317,-112.5 158,-112.5"/>
<text text-anchor="start" x="166" y="-130.5" font-family="Helvetica,sans-Serif" font-size="10.00">src/ui/Components/Transform</text>
<text text-anchor="middle" x="237.5" y="-119.5" font-family="Helvetica,sans-Serif" font-size="10.00">ComponentUI.hpp</text>
</a>
</g>
</g>
<!-- Node2 -->
<g id="node2" class="node">
<title>Node2</title>
<g id="a_node2"><a xlink:title=" ">
<polygon fill="white" stroke="#bfbfbf" points="0,-56.5 0,-75.5 53,-75.5 53,-56.5 0,-56.5"/>
<text text-anchor="middle" x="26.5" y="-63.5" font-family="Helvetica,sans-Serif" font-size="10.00">imgui.h</text>
</a>
</g>
</g>
<!-- Node1&#45;&gt;Node2 -->
<g id="edge1" class="edge">
<title>Node1&#45;&gt;Node2</title>
<path fill="none" stroke="midnightblue" d="M187.76,-112.47C149.39,-101.66 97.22,-86.94 62.73,-77.22"/>
<polygon fill="midnightblue" stroke="midnightblue" points="63.64,-73.84 53.07,-74.49 61.74,-80.57 63.64,-73.84"/>
</g>
<!-- Node3 -->
<g id="node3" class="node">
<title>Node3</title>
<g id="a_node3"><a xlink:href="_image_8hpp.html" target="_top" xlink:title=" ">
<polygon fill="white" stroke="black" points="71,-56.5 71,-75.5 212,-75.5 212,-56.5 71,-56.5"/>
<text text-anchor="middle" x="141.5" y="-63.5" font-family="Helvetica,sans-Serif" font-size="10.00">AssetManager/Image.hpp</text>
</a>
</g>
</g>
<!-- Node1&#45;&gt;Node3 -->
<g id="edge2" class="edge">
<title>Node1&#45;&gt;Node3</title>
<path fill="none" stroke="midnightblue" d="M214.75,-112.4C199.51,-102.95 179.51,-90.56 164.26,-81.11"/>
<polygon fill="midnightblue" stroke="midnightblue" points="165.81,-77.95 155.47,-75.66 162.12,-83.9 165.81,-77.95"/>
</g>
<!-- Node5 -->
<g id="node5" class="node">
<title>Node5</title>
<g id="a_node5"><a xlink:href="_transform_component_8hpp.html" target="_top" xlink:title=" ">
<polygon fill="white" stroke="black" points="230,-56.5 230,-75.5 437,-75.5 437,-56.5 230,-56.5"/>
<text text-anchor="middle" x="333.5" y="-63.5" font-family="Helvetica,sans-Serif" font-size="10.00">Components/TransformComponent.hpp</text>
</a>
</g>
</g>
<!-- Node1&#45;&gt;Node5 -->
<g id="edge4" class="edge">
<title>Node1&#45;&gt;Node5</title>
<path fill="none" stroke="midnightblue" d="M260.25,-112.4C275.49,-102.95 295.49,-90.56 310.74,-81.11"/>
<polygon fill="midnightblue" stroke="midnightblue" points="312.88,-83.9 319.53,-75.66 309.19,-77.95 312.88,-83.9"/>
</g>
<!-- Node11 -->
<g id="node11" class="node">
<title>Node11</title>
<g id="a_node11"><a xlink:title=" ">
<polygon fill="white" stroke="#bfbfbf" points="455.5,-56.5 455.5,-75.5 573.5,-75.5 573.5,-56.5 455.5,-56.5"/>
<text text-anchor="middle" x="514.5" y="-63.5" font-family="Helvetica,sans-Serif" font-size="10.00">UI/ComponentUI.hpp</text>
</a>
</g>
</g>
<!-- Node1&#45;&gt;Node11 -->
<g id="edge10" class="edge">
<title>Node1&#45;&gt;Node11</title>
<path fill="none" stroke="midnightblue" d="M302.79,-112.47C352.46,-101.81 419.75,-87.35 465.02,-77.63"/>
<polygon fill="midnightblue" stroke="midnightblue" points="465.86,-81.03 474.9,-75.51 464.39,-74.18 465.86,-81.03"/>
</g>
<!-- Node4 -->
<g id="node4" class="node">
<title>Node4</title>
<g id="a_node4"><a xlink:title=" ">
<polygon fill="white" stroke="#bfbfbf" points="66.5,-0.5 66.5,-19.5 134.5,-19.5 134.5,-0.5 66.5,-0.5"/>
<text text-anchor="middle" x="100.5" y="-7.5" font-family="Helvetica,sans-Serif" font-size="10.00">filesystem</text>
</a>
</g>
</g>
<!-- Node3&#45;&gt;Node4 -->
<g id="edge3" class="edge">
<title>Node3&#45;&gt;Node4</title>
<path fill="none" stroke="midnightblue" d="M134.73,-56.08C128.94,-48.46 120.44,-37.26 113.36,-27.94"/>
<polygon fill="midnightblue" stroke="midnightblue" points="115.98,-25.6 107.14,-19.75 110.4,-29.83 115.98,-25.6"/>
</g>
<!-- Node6 -->
<g id="node6" class="node">
<title>Node6</title>
<g id="a_node6"><a xlink:title=" ">
<polygon fill="white" stroke="#bfbfbf" points="152.5,-0.5 152.5,-19.5 196.5,-19.5 196.5,-0.5 152.5,-0.5"/>
<text text-anchor="middle" x="174.5" y="-7.5" font-family="Helvetica,sans-Serif" font-size="10.00">string</text>
</a>
</g>
</g>
<!-- Node5&#45;&gt;Node6 -->
<g id="edge5" class="edge">
<title>Node5&#45;&gt;Node6</title>
<path fill="none" stroke="midnightblue" d="M308.31,-56.44C280.61,-47.04 236.08,-31.91 206.08,-21.72"/>
<polygon fill="midnightblue" stroke="midnightblue" points="207.1,-18.37 196.5,-18.47 204.85,-25 207.1,-18.37"/>
</g>
<!-- Node7 -->
<g id="node7" class="node">
<title>Node7</title>
<g id="a_node7"><a xlink:title=" ">
<polygon fill="white" stroke="#bfbfbf" points="214.5,-0.5 214.5,-19.5 292.5,-19.5 292.5,-0.5 214.5,-0.5"/>
<text text-anchor="middle" x="253.5" y="-7.5" font-family="Helvetica,sans-Serif" font-size="10.00">glm/glm.hpp</text>
</a>
</g>
</g>
<!-- Node5&#45;&gt;Node7 -->
<g id="edge6" class="edge">
<title>Node5&#45;&gt;Node7</title>
<path fill="none" stroke="midnightblue" d="M320.65,-56.32C308.28,-47.98 289.37,-35.21 274.76,-25.35"/>
<polygon fill="midnightblue" stroke="midnightblue" points="276.57,-22.35 266.32,-19.65 272.65,-28.15 276.57,-22.35"/>
</g>
<!-- Node8 -->
<g id="node8" class="node">
<title>Node8</title>
<g id="a_node8"><a xlink:title=" ">
<polygon fill="white" stroke="#bfbfbf" points="310.5,-0.5 310.5,-19.5 440.5,-19.5 440.5,-0.5 310.5,-0.5"/>
<text text-anchor="middle" x="375.5" y="-7.5" font-family="Helvetica,sans-Serif" font-size="10.00">glm/gtc/quaternion.hpp</text>
</a>
</g>
</g>
<!-- Node5&#45;&gt;Node8 -->
<g id="edge7" class="edge">
<title>Node5&#45;&gt;Node8</title>
<path fill="none" stroke="midnightblue" d="M340.44,-56.08C346.43,-48.38 355.25,-37.03 362.55,-27.65"/>
<polygon fill="midnightblue" stroke="midnightblue" points="365.32,-29.79 368.69,-19.75 359.79,-25.5 365.32,-29.79"/>
</g>
<!-- Node9 -->
<g id="node9" class="node">
<title>Node9</title>
<g id="a_node9"><a xlink:title=" ">
<polygon fill="white" stroke="#bfbfbf" points="459,-0.5 459,-19.5 622,-19.5 622,-0.5 459,-0.5"/>
<text text-anchor="middle" x="540.5" y="-7.5" font-family="Helvetica,sans-Serif" font-size="10.00">glm/gtc/matrix_transform.hpp</text>
</a>
</g>
</g>
<!-- Node5&#45;&gt;Node9 -->
<g id="edge8" class="edge">
<title>Node5&#45;&gt;Node9</title>
<path fill="none" stroke="midnightblue" d="M366.3,-56.44C401.88,-47.16 458.81,-32.31 497.85,-22.13"/>
<polygon fill="midnightblue" stroke="midnightblue" points="499.06,-25.43 507.85,-19.52 497.29,-18.65 499.06,-25.43"/>
</g>
<!-- Node10 -->
<g id="node10" class="node">
<title>Node10</title>
<g id="a_node10"><a xlink:href="_base_component_8hpp.html" target="_top" xlink:title=" ">
<polygon fill="white" stroke="black" points="640.5,-0.5 640.5,-19.5 822.5,-19.5 822.5,-0.5 640.5,-0.5"/>
<text text-anchor="middle" x="731.5" y="-7.5" font-family="Helvetica,sans-Serif" font-size="10.00">Components/BaseComponent.hpp</text>
</a>
</g>
</g>
<!-- Node5&#45;&gt;Node10 -->
<g id="edge9" class="edge">
<title>Node5&#45;&gt;Node10</title>
<path fill="none" stroke="midnightblue" d="M396.56,-56.44C467.74,-46.79 583.36,-31.1 658.42,-20.92"/>
<polygon fill="midnightblue" stroke="midnightblue" points="659.29,-24.33 668.73,-19.52 658.35,-17.39 659.29,-24.33"/>
</g>
</g>
</svg>
