<?xml version="1.0" encoding="UTF-8" standalone="no"?>
<!DOCTYPE svg PUBLIC "-//W3C//DTD SVG 1.1//EN"
 "http://www.w3.org/Graphics/SVG/1.1/DTD/svg11.dtd">
<!-- Generated by graphviz version 2.43.0 (0)
 -->
<!-- Title: src/ui/Components/TransformComponentUI.hpp Pages: 1 -->
<svg width="1281pt" height="368pt"
 viewBox="0.00 0.00 1280.72 368.00" xmlns="http://www.w3.org/2000/svg" xmlns:xlink="http://www.w3.org/1999/xlink">
<g id="graph0" class="graph" transform="scale(1 1) rotate(0) translate(4 364)">
<title>src/ui/Components/TransformComponentUI.hpp</title>
<!-- Node1 -->
<g id="Node000001" class="node">
<title>Node1</title>
<g id="a_Node000001"><a xlink:title=" ">
<polygon fill="#999999" stroke="#666666" points="961.5,-360 802.5,-360 802.5,-330 961.5,-330 961.5,-360"/>
<text text-anchor="start" x="810.5" y="-348" font-family="Helvetica,sans-Serif" font-size="10.00">src/ui/Components/Transform</text>
<text text-anchor="middle" x="882" y="-337" font-family="Helvetica,sans-Serif" font-size="10.00">ComponentUI.hpp</text>
</a>
</g>
</g>
<!-- Node2 -->
<g id="Node000002" class="node">
<title>Node2</title>
<g id="a_Node000002"><a xlink:title=" ">
<polygon fill="#e0e0e0" stroke="#999999" points="664.5,-294 611.5,-294 611.5,-275 664.5,-275 664.5,-294"/>
<text text-anchor="middle" x="638" y="-282" font-family="Helvetica,sans-Serif" font-size="10.00">imgui.h</text>
</a>
</g>
</g>
<!-- Node1&#45;&gt;Node2 -->
<g id="edge1_Node000001_Node000002" class="edge">
<title>Node1&#45;&gt;Node2</title>
<g id="a_edge1_Node000001_Node000002"><a xlink:title=" ">
<path fill="none" stroke="#63b8ff" d="M823.56,-329.99C777.22,-318.88 713.92,-303.7 674.52,-294.26"/>
<polygon fill="#63b8ff" stroke="#63b8ff" points="675.1,-290.8 664.56,-291.87 673.47,-297.6 675.1,-290.8"/>
</a>
</g>
</g>
<!-- Node3 -->
<g id="Node000003" class="node">
<title>Node3</title>
<g id="a_Node000003"><a xlink:href="_image_8hpp.html" target="_top" xlink:title=" ">
<polygon fill="white" stroke="#666666" points="1048.5,-294 907.5,-294 907.5,-275 1048.5,-275 1048.5,-294"/>
<text text-anchor="middle" x="978" y="-282" font-family="Helvetica,sans-Serif" font-size="10.00">AssetManager/Image.hpp</text>
</a>
</g>
</g>
<!-- Node1&#45;&gt;Node3 -->
<g id="edge2_Node000001_Node000003" class="edge">
<title>Node1&#45;&gt;Node3</title>
<g id="a_edge2_Node000001_Node000003"><a xlink:title=" ">
<path fill="none" stroke="#63b8ff" d="M905.24,-329.84C920.4,-320.6 940.11,-308.59 955.19,-299.4"/>
<polygon fill="#63b8ff" stroke="#63b8ff" points="957.18,-302.29 963.9,-294.09 953.54,-296.31 957.18,-302.29"/>
</a>
</g>
</g>
<!-- Node5 -->
<g id="Node000005" class="node">
<title>Node5</title>
<g id="a_Node000005"><a xlink:href="_transform_component_8hpp.html" target="_top" xlink:title=" ">
<polygon fill="white" stroke="#666666" points="889.5,-294 682.5,-294 682.5,-275 889.5,-275 889.5,-294"/>
<text text-anchor="middle" x="786" y="-282" font-family="Helvetica,sans-Serif" font-size="10.00">Components/TransformComponent.hpp</text>
</a>
</g>
</g>
<!-- Node1&#45;&gt;Node5 -->
<g id="edge4_Node000001_Node000005" class="edge">
<title>Node1&#45;&gt;Node5</title>
<g id="a_edge4_Node000001_Node000005"><a xlink:title=" ">
<path fill="none" stroke="#63b8ff" d="M858.76,-329.84C843.6,-320.6 823.89,-308.59 808.81,-299.4"/>
<polygon fill="#63b8ff" stroke="#63b8ff" points="810.46,-296.31 800.1,-294.09 806.82,-302.29 810.46,-296.31"/>
</a>
</g>
</g>
<!-- Node30 -->
<g id="Node000030" class="node">
<title>Node30</title>
<g id="a_Node000030"><a xlink:title=" ">
<polygon fill="#e0e0e0" stroke="#999999" points="1185,-294 1067,-294 1067,-275 1185,-275 1185,-294"/>
<text text-anchor="middle" x="1126" y="-282" font-family="Helvetica,sans-Serif" font-size="10.00">UI/ComponentUI.hpp</text>
</a>
</g>
</g>
<!-- Node1&#45;&gt;Node30 -->
<g id="edge37_Node000001_Node000030" class="edge">
<title>Node1&#45;&gt;Node30</title>
<g id="a_edge37_Node000001_Node000030"><a xlink:title=" ">
<path fill="none" stroke="#63b8ff" d="M940.44,-329.99C983.37,-319.7 1040.87,-305.91 1080.42,-296.43"/>
<polygon fill="#63b8ff" stroke="#63b8ff" points="1081.41,-299.79 1090.32,-294.05 1079.78,-292.98 1081.41,-299.79"/>
</a>
</g>
</g>
<!-- Node4 -->
<g id="Node000004" class="node">
<title>Node4</title>
<g id="a_Node000004"><a xlink:title=" ">
<polygon fill="#e0e0e0" stroke="#999999" points="1271,-129 1203,-129 1203,-110 1271,-110 1271,-129"/>
<text text-anchor="middle" x="1237" y="-117" font-family="Helvetica,sans-Serif" font-size="10.00">filesystem</text>
</a>
</g>
</g>
<!-- Node3&#45;&gt;Node4 -->
<g id="edge3_Node000003_Node000004" class="edge">
<title>Node3&#45;&gt;Node4</title>
<g id="a_edge3_Node000003_Node000004"><a xlink:title=" ">
<path fill="none" stroke="#63b8ff" d="M1046.46,-274.99C1127.96,-264.52 1254.03,-247.15 1261,-239 1285.68,-210.14 1263.5,-162.9 1248.36,-137.66"/>
<polygon fill="#63b8ff" stroke="#63b8ff" points="1251.3,-135.76 1243.01,-129.15 1245.37,-139.48 1251.3,-135.76"/>
</a>
</g>
</g>
<!-- Node6 -->
<g id="Node000006" class="node">
<title>Node6</title>
<g id="a_Node000006"><a xlink:title=" ">
<polygon fill="#e0e0e0" stroke="#999999" points="974,-239 930,-239 930,-220 974,-220 974,-239"/>
<text text-anchor="middle" x="952" y="-227" font-family="Helvetica,sans-Serif" font-size="10.00">string</text>
</a>
</g>
</g>
<!-- Node5&#45;&gt;Node6 -->
<g id="edge5_Node000005_Node000006" class="edge">
<title>Node5&#45;&gt;Node6</title>
<g id="a_edge5_Node000005_Node000006"><a xlink:title=" ">
<path fill="none" stroke="#63b8ff" d="M812.67,-274.98C841.9,-265.65 888.78,-250.68 919.98,-240.72"/>
<polygon fill="#63b8ff" stroke="#63b8ff" points="921.45,-243.93 929.91,-237.55 919.32,-237.26 921.45,-243.93"/>
</a>
</g>
</g>
<!-- Node7 -->
<g id="Node000007" class="node">
<title>Node7</title>
<g id="a_Node000007"><a xlink:title=" ">
<polygon fill="#e0e0e0" stroke="#999999" points="1252,-239 1192,-239 1192,-220 1252,-220 1252,-239"/>
<text text-anchor="middle" x="1222" y="-227" font-family="Helvetica,sans-Serif" font-size="10.00">iostream</text>
</a>
</g>
</g>
<!-- Node5&#45;&gt;Node7 -->
<g id="edge6_Node000005_Node000007" class="edge">
<title>Node5&#45;&gt;Node7</title>
<g id="a_edge6_Node000005_Node000007"><a xlink:title=" ">
<path fill="none" stroke="#63b8ff" d="M887.98,-274.98C965.97,-267.79 1076.33,-256.15 1181.95,-239.02"/>
<polygon fill="#63b8ff" stroke="#63b8ff" points="1182.52,-242.47 1191.83,-237.4 1181.39,-235.56 1182.52,-242.47"/>
</a>
</g>
</g>
<!-- Node8 -->
<g id="Node000008" class="node">
<title>Node8</title>
<g id="a_Node000008"><a xlink:title=" ">
<polygon fill="#e0e0e0" stroke="#999999" points="248,-184 170,-184 170,-165 248,-165 248,-184"/>
<text text-anchor="middle" x="209" y="-172" font-family="Helvetica,sans-Serif" font-size="10.00">glm/glm.hpp</text>
</a>
</g>
</g>
<!-- Node5&#45;&gt;Node8 -->
<g id="edge7_Node000005_Node000008" class="edge">
<title>Node5&#45;&gt;Node8</title>
<g id="a_edge7_Node000005_Node000008"><a xlink:title=" ">
<path fill="none" stroke="#63b8ff" d="M786.25,-274.87C786.13,-260.88 783.65,-233.46 767,-220 747.36,-204.13 391.71,-184.69 258.67,-177.94"/>
<polygon fill="#63b8ff" stroke="#63b8ff" points="258.53,-174.43 248.36,-177.42 258.17,-181.42 258.53,-174.43"/>
</a>
</g>
</g>
<!-- Node9 -->
<g id="Node000009" class="node">
<title>Node9</title>
<g id="a_Node000009"><a xlink:title=" ">
<polygon fill="#e0e0e0" stroke="#999999" points="236,-239 106,-239 106,-220 236,-220 236,-239"/>
<text text-anchor="middle" x="171" y="-227" font-family="Helvetica,sans-Serif" font-size="10.00">glm/gtc/quaternion.hpp</text>
</a>
</g>
</g>
<!-- Node5&#45;&gt;Node9 -->
<g id="edge8_Node000005_Node000009" class="edge">
<title>Node5&#45;&gt;Node9</title>
<g id="a_edge8_Node000005_Node000009"><a xlink:title=" ">
<path fill="none" stroke="#63b8ff" d="M682.44,-275.38C554.41,-265.28 342.61,-248.33 246.4,-239.1"/>
<polygon fill="#63b8ff" stroke="#63b8ff" points="246.65,-235.61 236.36,-238.12 245.97,-242.58 246.65,-235.61"/>
</a>
</g>
</g>
<!-- Node10 -->
<g id="Node000010" class="node">
<title>Node10</title>
<g id="a_Node000010"><a xlink:title=" ">
<polygon fill="#e0e0e0" stroke="#999999" points="417.5,-239 254.5,-239 254.5,-220 417.5,-220 417.5,-239"/>
<text text-anchor="middle" x="336" y="-227" font-family="Helvetica,sans-Serif" font-size="10.00">glm/gtc/matrix_transform.hpp</text>
</a>
</g>
</g>
<!-- Node5&#45;&gt;Node10 -->
<g id="edge9_Node000005_Node000010" class="edge">
<title>Node5&#45;&gt;Node10</title>
<g id="a_edge9_Node000005_Node000010"><a xlink:title=" ">
<path fill="none" stroke="#63b8ff" d="M713.7,-274.98C633.12,-265.49 503.08,-250.18 418.57,-240.22"/>
<polygon fill="#63b8ff" stroke="#63b8ff" points="418.83,-236.73 408.49,-239.04 418.02,-243.68 418.83,-236.73"/>
</a>
</g>
</g>
<!-- Node11 -->
<g id="Node000011" class="node">
<title>Node11</title>
<g id="a_Node000011"><a xlink:title=" ">
<polygon fill="#e0e0e0" stroke="#999999" points="608,-239 436,-239 436,-220 608,-220 608,-239"/>
<text text-anchor="middle" x="522" y="-227" font-family="Helvetica,sans-Serif" font-size="10.00">glm/gtx/matrix_decompose.hpp</text>
</a>
</g>
</g>
<!-- Node5&#45;&gt;Node11 -->
<g id="edge10_Node000005_Node000011" class="edge">
<title>Node5&#45;&gt;Node11</title>
<g id="a_edge10_Node000005_Node000011"><a xlink:title=" ">
<path fill="none" stroke="#63b8ff" d="M743.58,-274.98C697.63,-265.76 624.25,-251.03 574.65,-241.07"/>
<polygon fill="#63b8ff" stroke="#63b8ff" points="575.24,-237.62 564.75,-239.08 573.86,-244.48 575.24,-237.62"/>
</a>
</g>
</g>
<!-- Node12 -->
<g id="Node000012" class="node">
<title>Node12</title>
<g id="a_Node000012"><a xlink:title=" ">
<polygon fill="#e0e0e0" stroke="#999999" points="757.5,-239 626.5,-239 626.5,-220 757.5,-220 757.5,-239"/>
<text text-anchor="middle" x="692" y="-227" font-family="Helvetica,sans-Serif" font-size="10.00">glm/gtx/string_cast.hpp</text>
</a>
</g>
</g>
<!-- Node5&#45;&gt;Node12 -->
<g id="edge11_Node000005_Node000012" class="edge">
<title>Node5&#45;&gt;Node12</title>
<g id="a_edge11_Node000005_Node000012"><a xlink:title=" ">
<path fill="none" stroke="#63b8ff" d="M770.9,-274.98C756.18,-266.69 733.58,-253.94 716.33,-244.22"/>
<polygon fill="#63b8ff" stroke="#63b8ff" points="717.81,-241.03 707.38,-239.17 714.37,-247.13 717.81,-241.03"/>
</a>
</g>
</g>
<!-- Node13 -->
<g id="Node000013" class="node">
<title>Node13</title>
<g id="a_Node000013"><a xlink:href="_math_2_utils_8hpp.html" target="_top" xlink:title=" ">
<polygon fill="white" stroke="#666666" points="88,-239 0,-239 0,-220 88,-220 88,-239"/>
<text text-anchor="middle" x="44" y="-227" font-family="Helvetica,sans-Serif" font-size="10.00">Math/Utils.hpp</text>
</a>
</g>
</g>
<!-- Node5&#45;&gt;Node13 -->
<g id="edge12_Node000005_Node000013" class="edge">
<title>Node5&#45;&gt;Node13</title>
<g id="a_edge12_Node000005_Node000013"><a xlink:title=" ">
<path fill="none" stroke="#63b8ff" d="M682.27,-275.58C679.48,-275.38 676.72,-275.19 674,-275 420.92,-257.5 354.06,-267.13 98.17,-239.02"/>
<polygon fill="#63b8ff" stroke="#63b8ff" points="98.53,-235.54 88.2,-237.92 97.76,-242.5 98.53,-235.54"/>
</a>
</g>
</g>
<!-- Node14 -->
<g id="Node000014" class="node">
<title>Node14</title>
<g id="a_Node000014"><a xlink:href="_registry_8hpp.html" target="_top" xlink:title=" ">
<polygon fill="white" stroke="#666666" points="912,-239 814,-239 814,-220 912,-220 912,-239"/>
<text text-anchor="middle" x="863" y="-227" font-family="Helvetica,sans-Serif" font-size="10.00">ECS/Registry.hpp</text>
</a>
</g>
</g>
<!-- Node5&#45;&gt;Node14 -->
<g id="edge14_Node000005_Node000014" class="edge">
<title>Node5&#45;&gt;Node14</title>
<g id="a_edge14_Node000005_Node000014"><a xlink:title=" ">
<path fill="none" stroke="#63b8ff" d="M798.37,-274.98C810.09,-266.92 827.92,-254.65 841.89,-245.03"/>
<polygon fill="#63b8ff" stroke="#63b8ff" points="844.15,-247.72 850.4,-239.17 840.18,-241.96 844.15,-247.72"/>
</a>
</g>
</g>
<!-- Node28 -->
<g id="Node000028" class="node">
<title>Node28</title>
<g id="a_Node000028"><a xlink:href="_base_component_8hpp.html" target="_top" xlink:title=" ">
<polygon fill="white" stroke="#666666" points="1174,-239 992,-239 992,-220 1174,-220 1174,-239"/>
<text text-anchor="middle" x="1083" y="-227" font-family="Helvetica,sans-Serif" font-size="10.00">Components/BaseComponent.hpp</text>
</a>
</g>
</g>
<!-- Node5&#45;&gt;Node28 -->
<g id="edge34_Node000005_Node000028" class="edge">
<title>Node5&#45;&gt;Node28</title>
<g id="a_edge34_Node000005_Node000028"><a xlink:title=" ">
<path fill="none" stroke="#63b8ff" d="M833.72,-274.98C885.74,-265.7 969,-250.84 1024.82,-240.88"/>
<polygon fill="#63b8ff" stroke="#63b8ff" points="1025.68,-244.28 1034.91,-239.08 1024.45,-237.39 1025.68,-244.28"/>
</a>
</g>
</g>
<!-- Node13&#45;&gt;Node8 -->
<g id="edge13_Node000013_Node000008" class="edge">
<title>Node13&#45;&gt;Node8</title>
<g id="a_edge13_Node000013_Node000008"><a xlink:title=" ">
<path fill="none" stroke="#63b8ff" d="M70.51,-219.98C98.21,-211.09 141.86,-197.07 172.74,-187.15"/>
<polygon fill="#63b8ff" stroke="#63b8ff" points="173.83,-190.47 182.28,-184.08 171.69,-183.81 173.83,-190.47"/>
</a>
</g>
</g>
<!-- Node15 -->
<g id="Node000015" class="node">
<title>Node15</title>
<g id="a_Node000015"><a xlink:title=" ">
<polygon fill="#e0e0e0" stroke="#999999" points="922,-129 836,-129 836,-110 922,-110 922,-129"/>
<text text-anchor="middle" x="879" y="-117" font-family="Helvetica,sans-Serif" font-size="10.00">unordered_set</text>
</a>
</g>
</g>
<!-- Node14&#45;&gt;Node15 -->
<g id="edge15_Node000014_Node000015" class="edge">
<title>Node14&#45;&gt;Node15</title>
<g id="a_edge15_Node000014_Node000015"><a xlink:title=" ">
<path fill="none" stroke="#63b8ff" d="M832.05,-219.94C801.05,-209.71 760.17,-190.7 777,-165 788.13,-148 807.33,-137.46 826.09,-130.94"/>
<polygon fill="#63b8ff" stroke="#63b8ff" points="827.33,-134.22 835.82,-127.88 825.23,-127.54 827.33,-134.22"/>
</a>
</g>
</g>
<!-- Node16 -->
<g id="Node000016" class="node">
<title>Node16</title>
<g id="a_Node000016"><a xlink:href="_logger_8hpp.html" target="_top" xlink:title=" ">
<polygon fill="white" stroke="#666666" points="1120.5,-184 1003.5,-184 1003.5,-165 1120.5,-165 1120.5,-184"/>
<text text-anchor="middle" x="1062" y="-172" font-family="Helvetica,sans-Serif" font-size="10.00">Common/Logger.hpp</text>
</a>
</g>
</g>
<!-- Node14&#45;&gt;Node16 -->
<g id="edge16_Node000014_Node000016" class="edge">
<title>Node14&#45;&gt;Node16</title>
<g id="a_edge16_Node000014_Node000016"><a xlink:title=" ">
<path fill="none" stroke="#63b8ff" d="M894.97,-219.98C928.82,-210.97 982.4,-196.7 1019.71,-186.76"/>
<polygon fill="#63b8ff" stroke="#63b8ff" points="1021.01,-190.04 1029.78,-184.08 1019.21,-183.27 1021.01,-190.04"/>
</a>
</g>
</g>
<!-- Node19 -->
<g id="Node000019" class="node">
<title>Node19</title>
<g id="a_Node000019"><a xlink:href="_entity_8hpp.html" target="_top" xlink:title=" ">
<polygon fill="white" stroke="#666666" points="780,-74 694,-74 694,-55 780,-55 780,-74"/>
<text text-anchor="middle" x="737" y="-62" font-family="Helvetica,sans-Serif" font-size="10.00">ECS/Entity.hpp</text>
</a>
</g>
</g>
<!-- Node14&#45;&gt;Node19 -->
<g id="edge19_Node000014_Node000019" class="edge">
<title>Node14&#45;&gt;Node19</title>
<g id="a_edge19_Node000014_Node000019"><a xlink:title=" ">
<path fill="none" stroke="#63b8ff" d="M903.2,-219.87C922.69,-213.45 944.36,-202.48 956,-184 971.04,-160.12 942.01,-118.99 931,-110 891.44,-77.69 832.89,-67.86 790.46,-65.31"/>
<polygon fill="#63b8ff" stroke="#63b8ff" points="790.47,-61.81 780.32,-64.83 790.14,-68.8 790.47,-61.81"/>
</a>
</g>
</g>
<!-- Node21 -->
<g id="Node000021" class="node">
<title>Node21</title>
<g id="a_Node000021"><a xlink:href="_entity_hierarchy_8hpp.html" target="_top" xlink:title=" ">
<polygon fill="white" stroke="#666666" points="729,-184 595,-184 595,-165 729,-165 729,-184"/>
<text text-anchor="middle" x="662" y="-172" font-family="Helvetica,sans-Serif" font-size="10.00">ECS/EntityHierarchy.hpp</text>
</a>
</g>
</g>
<!-- Node14&#45;&gt;Node21 -->
<g id="edge21_Node000014_Node000021" class="edge">
<title>Node14&#45;&gt;Node21</title>
<g id="a_edge21_Node000014_Node000021"><a xlink:title=" ">
<path fill="none" stroke="#63b8ff" d="M830.71,-219.98C796.38,-210.93 741.94,-196.58 704.23,-186.64"/>
<polygon fill="#63b8ff" stroke="#63b8ff" points="705.11,-183.25 694.55,-184.08 703.32,-190.02 705.11,-183.25"/>
</a>
</g>
</g>
<!-- Node25 -->
<g id="Node000025" class="node">
<title>Node25</title>
<g id="a_Node000025"><a xlink:href="_entity_provider_8hpp.html" target="_top" xlink:title="Manages a pool of unused entity identifiers and provides mechanisms for requesting and removing them.">
<polygon fill="white" stroke="#666666" points="517,-129 389,-129 389,-110 517,-110 517,-129"/>
<text text-anchor="middle" x="453" y="-117" font-family="Helvetica,sans-Serif" font-size="10.00">ECS/EntityProvider.hpp</text>
</a>
</g>
</g>
<!-- Node14&#45;&gt;Node25 -->
<g id="edge27_Node000014_Node000025" class="edge">
<title>Node14&#45;&gt;Node25</title>
<g id="a_edge27_Node000014_Node000025"><a xlink:title=" ">
<path fill="none" stroke="#63b8ff" d="M813.84,-221.73C809.16,-221.13 804.49,-220.54 800,-220 724.57,-210.92 513.84,-237.61 460,-184 448.59,-172.64 447.87,-153.74 449.39,-139.51"/>
<polygon fill="#63b8ff" stroke="#63b8ff" points="452.89,-139.74 450.92,-129.33 445.97,-138.69 452.89,-139.74"/>
</a>
</g>
</g>
<!-- Node26 -->
<g id="Node000026" class="node">
<title>Node26</title>
<g id="a_Node000026"><a xlink:href="_singleton_component_8hpp.html" target="_top" xlink:title=" ">
<polygon fill="white" stroke="#666666" points="946.5,-184 785.5,-184 785.5,-165 946.5,-165 946.5,-184"/>
<text text-anchor="middle" x="866" y="-172" font-family="Helvetica,sans-Serif" font-size="10.00">ECS/SingletonComponent.hpp</text>
</a>
</g>
</g>
<!-- Node14&#45;&gt;Node26 -->
<g id="edge31_Node000014_Node000026" class="edge">
<title>Node14&#45;&gt;Node26</title>
<g id="a_edge31_Node000014_Node000026"><a xlink:title=" ">
<path fill="none" stroke="#63b8ff" d="M863.5,-219.75C863.89,-212.8 864.45,-202.85 864.95,-194.13"/>
<polygon fill="#63b8ff" stroke="#63b8ff" points="868.44,-194.27 865.51,-184.09 861.45,-193.88 868.44,-194.27"/>
</a>
</g>
</g>
<!-- Node27 -->
<g id="Node000027" class="node">
<title>Node27</title>
<g id="a_Node000027"><a xlink:href="_sparse_set_8hpp.html" target="_top" xlink:title=" ">
<polygon fill="white" stroke="#666666" points="577,-184 469,-184 469,-165 577,-165 577,-184"/>
<text text-anchor="middle" x="523" y="-172" font-family="Helvetica,sans-Serif" font-size="10.00">ECS/SparseSet.hpp</text>
</a>
</g>
</g>
<!-- Node14&#45;&gt;Node27 -->
<g id="edge32_Node000014_Node000027" class="edge">
<title>Node14&#45;&gt;Node27</title>
<g id="a_edge32_Node000014_Node000027"><a xlink:title=" ">
<path fill="none" stroke="#63b8ff" d="M813.92,-220.85C754.22,-211.54 653.27,-195.81 587.38,-185.54"/>
<polygon fill="#63b8ff" stroke="#63b8ff" points="587.54,-182.02 577.12,-183.94 586.46,-188.93 587.54,-182.02"/>
</a>
</g>
</g>
<!-- Node17 -->
<g id="Node000017" class="node">
<title>Node17</title>
<g id="a_Node000017"><a xlink:title=" ">
<polygon fill="#e0e0e0" stroke="#999999" points="1051,-129 1003,-129 1003,-110 1051,-110 1051,-129"/>
<text text-anchor="middle" x="1027" y="-117" font-family="Helvetica,sans-Serif" font-size="10.00">mutex</text>
</a>
</g>
</g>
<!-- Node16&#45;&gt;Node17 -->
<g id="edge17_Node000016_Node000017" class="edge">
<title>Node16&#45;&gt;Node17</title>
<g id="a_edge17_Node000016_Node000017"><a xlink:title=" ">
<path fill="none" stroke="#63b8ff" d="M1056.22,-164.75C1051.38,-157.42 1044.32,-146.73 1038.36,-137.7"/>
<polygon fill="#63b8ff" stroke="#63b8ff" points="1041.1,-135.5 1032.67,-129.09 1035.26,-139.36 1041.1,-135.5"/>
</a>
</g>
</g>
<!-- Node18 -->
<g id="Node000018" class="node">
<title>Node18</title>
<g id="a_Node000018"><a xlink:title=" ">
<polygon fill="#e0e0e0" stroke="#999999" points="967.5,-74 920.5,-74 920.5,-55 967.5,-55 967.5,-74"/>
<text text-anchor="middle" x="944" y="-62" font-family="Helvetica,sans-Serif" font-size="10.00">queue</text>
</a>
</g>
</g>
<!-- Node16&#45;&gt;Node18 -->
<g id="edge18_Node000016_Node000018" class="edge">
<title>Node16&#45;&gt;Node18</title>
<g id="a_edge18_Node000016_Node000018"><a xlink:title=" ">
<path fill="none" stroke="#63b8ff" d="M1064.51,-164.75C1067.73,-151.55 1071.63,-126.36 1060,-110 1041.35,-83.77 1005.04,-73 977.99,-68.58"/>
<polygon fill="#63b8ff" stroke="#63b8ff" points="978.16,-65.07 967.77,-67.13 977.18,-72 978.16,-65.07"/>
</a>
</g>
</g>
<!-- Node20 -->
<g id="Node000020" class="node">
<title>Node20</title>
<g id="a_Node000020"><a xlink:title=" ">
<polygon fill="#e0e0e0" stroke="#999999" points="656.5,-19 603.5,-19 603.5,0 656.5,0 656.5,-19"/>
<text text-anchor="middle" x="630" y="-7" font-family="Helvetica,sans-Serif" font-size="10.00">stdlib.h</text>
</a>
</g>
</g>
<!-- Node19&#45;&gt;Node20 -->
<g id="edge20_Node000019_Node000020" class="edge">
<title>Node19&#45;&gt;Node20</title>
<g id="a_edge20_Node000019_Node000020"><a xlink:title=" ">
<path fill="none" stroke="#63b8ff" d="M719.81,-54.98C702.75,-46.54 676.37,-33.47 656.6,-23.68"/>
<polygon fill="#63b8ff" stroke="#63b8ff" points="658.02,-20.47 647.5,-19.17 654.91,-26.75 658.02,-20.47"/>
</a>
</g>
</g>
<!-- Node21&#45;&gt;Node15 -->
<g id="edge25_Node000021_Node000015" class="edge">
<title>Node21&#45;&gt;Node15</title>
<g id="a_edge25_Node000021_Node000015"><a xlink:title=" ">
<path fill="none" stroke="#63b8ff" d="M696.86,-164.98C734.09,-155.89 793.2,-141.46 833.93,-131.51"/>
<polygon fill="#63b8ff" stroke="#63b8ff" points="834.98,-134.85 843.86,-129.08 833.32,-128.05 834.98,-134.85"/>
</a>
</g>
</g>
<!-- Node21&#45;&gt;Node19 -->
<g id="edge26_Node000021_Node000019" class="edge">
<title>Node21&#45;&gt;Node19</title>
<g id="a_edge26_Node000021_Node000019"><a xlink:title=" ">
<path fill="none" stroke="#63b8ff" d="M729.28,-165.76C752.03,-159.56 775.15,-148.53 789,-129 801.6,-111.24 780.63,-92.06 761.68,-79.48"/>
<polygon fill="#63b8ff" stroke="#63b8ff" points="763.3,-76.37 752.97,-74.03 759.59,-82.3 763.3,-76.37"/>
</a>
</g>
</g>
<!-- Node22 -->
<g id="Node000022" class="node">
<title>Node22</title>
<g id="a_Node000022"><a xlink:title=" ">
<polygon fill="#e0e0e0" stroke="#999999" points="779.5,-129 714.5,-129 714.5,-110 779.5,-110 779.5,-129"/>
<text text-anchor="middle" x="747" y="-117" font-family="Helvetica,sans-Serif" font-size="10.00">functional</text>
</a>
</g>
</g>
<!-- Node21&#45;&gt;Node22 -->
<g id="edge22_Node000021_Node000022" class="edge">
<title>Node21&#45;&gt;Node22</title>
<g id="a_edge22_Node000021_Node000022"><a xlink:title=" ">
<path fill="none" stroke="#63b8ff" d="M675.66,-164.98C688.84,-156.77 709.03,-144.18 724.57,-134.49"/>
<polygon fill="#63b8ff" stroke="#63b8ff" points="726.46,-137.43 733.09,-129.17 722.76,-131.49 726.46,-137.43"/>
</a>
</g>
</g>
<!-- Node23 -->
<g id="Node000023" class="node">
<title>Node23</title>
<g id="a_Node000023"><a xlink:title=" ">
<polygon fill="#e0e0e0" stroke="#999999" points="585,-129 535,-129 535,-110 585,-110 585,-129"/>
<text text-anchor="middle" x="560" y="-117" font-family="Helvetica,sans-Serif" font-size="10.00">ranges</text>
</a>
</g>
</g>
<!-- Node21&#45;&gt;Node23 -->
<g id="edge23_Node000021_Node000023" class="edge">
<title>Node21&#45;&gt;Node23</title>
<g id="a_edge23_Node000021_Node000023"><a xlink:title=" ">
<path fill="none" stroke="#63b8ff" d="M645.61,-164.98C629.43,-156.57 604.43,-143.59 585.62,-133.81"/>
<polygon fill="#63b8ff" stroke="#63b8ff" points="587.17,-130.68 576.69,-129.17 583.95,-136.89 587.17,-130.68"/>
</a>
</g>
</g>
<!-- Node24 -->
<g id="Node000024" class="node">
<title>Node24</title>
<g id="a_Node000024"><a xlink:title=" ">
<polygon fill="#e0e0e0" stroke="#999999" points="696.5,-129 603.5,-129 603.5,-110 696.5,-110 696.5,-129"/>
<text text-anchor="middle" x="650" y="-117" font-family="Helvetica,sans-Serif" font-size="10.00">unordered_map</text>
</a>
</g>
</g>
<!-- Node21&#45;&gt;Node24 -->
<g id="edge24_Node000021_Node000024" class="edge">
<title>Node21&#45;&gt;Node24</title>
<g id="a_edge24_Node000021_Node000024"><a xlink:title=" ">
<path fill="none" stroke="#63b8ff" d="M660.02,-164.75C658.43,-157.72 656.14,-147.62 654.15,-138.84"/>
<polygon fill="#63b8ff" stroke="#63b8ff" points="657.57,-138.07 651.94,-129.09 650.74,-139.62 657.57,-138.07"/>
</a>
</g>
</g>
<!-- Node25&#45;&gt;Node18 -->
<g id="edge29_Node000025_Node000018" class="edge">
<title>Node25&#45;&gt;Node18</title>
<g id="a_edge29_Node000025_Node000018"><a xlink:title=" ">
<path fill="none" stroke="#63b8ff" d="M517.09,-111C520.1,-110.66 523.08,-110.33 526,-110 668.81,-94.08 839.21,-76.33 910.28,-68.98"/>
<polygon fill="#63b8ff" stroke="#63b8ff" points="910.83,-72.44 920.42,-67.93 910.12,-65.47 910.83,-72.44"/>
</a>
</g>
</g>
<!-- Node25&#45;&gt;Node19 -->
<g id="edge30_Node000025_Node000019" class="edge">
<title>Node25&#45;&gt;Node19</title>
<g id="a_edge30_Node000025_Node000019"><a xlink:title=" ">
<path fill="none" stroke="#63b8ff" d="M498.63,-109.98C549.15,-100.56 630.5,-85.38 683.86,-75.42"/>
<polygon fill="#63b8ff" stroke="#63b8ff" points="684.62,-78.84 693.81,-73.56 683.34,-71.95 684.62,-78.84"/>
</a>
</g>
</g>
<!-- Node25&#45;&gt;Node20 -->
<g id="edge28_Node000025_Node000020" class="edge">
<title>Node25&#45;&gt;Node20</title>
<g id="a_edge28_Node000025_Node000020"><a xlink:title=" ">
<path fill="none" stroke="#63b8ff" d="M467.19,-109.84C497.74,-91.2 569.99,-47.11 607.11,-24.46"/>
<polygon fill="#63b8ff" stroke="#63b8ff" points="609.03,-27.39 615.75,-19.2 605.39,-21.42 609.03,-27.39"/>
</a>
</g>
</g>
<!-- Node27&#45;&gt;Node25 -->
<g id="edge33_Node000027_Node000025" class="edge">
<title>Node27&#45;&gt;Node25</title>
<g id="a_edge33_Node000027_Node000025"><a xlink:title=" ">
<path fill="none" stroke="#63b8ff" d="M511.75,-164.98C501.2,-157 485.2,-144.88 472.56,-135.31"/>
<polygon fill="#63b8ff" stroke="#63b8ff" points="474.54,-132.42 464.45,-129.17 470.31,-138 474.54,-132.42"/>
</a>
</g>
</g>
<!-- Node29 -->
<g id="Node000029" class="node">
<title>Node29</title>
<g id="a_Node000029"><a xlink:href="_types_8hpp.html" target="_top" xlink:title=" ">
<polygon fill="white" stroke="#666666" points="1251.5,-184 1138.5,-184 1138.5,-165 1251.5,-165 1251.5,-184"/>
<text text-anchor="middle" x="1195" y="-172" font-family="Helvetica,sans-Serif" font-size="10.00">Common/Types.hpp</text>
</a>
</g>
</g>
<!-- Node28&#45;&gt;Node29 -->
<g id="edge35_Node000028_Node000029" class="edge">
<title>Node28&#45;&gt;Node29</title>
<g id="a_edge35_Node000028_Node000029"><a xlink:title=" ">
<path fill="none" stroke="#63b8ff" d="M1100.99,-219.98C1118.93,-211.5 1146.72,-198.35 1167.43,-188.54"/>
<polygon fill="#63b8ff" stroke="#63b8ff" points="1169.14,-191.61 1176.68,-184.17 1166.14,-185.28 1169.14,-191.61"/>
</a>
</g>
</g>
<!-- Node29&#45;&gt;Node4 -->
<g id="edge36_Node000029_Node000004" class="edge">
<title>Node29&#45;&gt;Node4</title>
<g id="a_edge36_Node000029_Node000004"><a xlink:title=" ">
<path fill="none" stroke="#63b8ff" d="M1201.94,-164.75C1207.87,-157.26 1216.57,-146.28 1223.82,-137.13"/>
<polygon fill="#63b8ff" stroke="#63b8ff" points="1226.73,-139.1 1230.19,-129.09 1221.24,-134.75 1226.73,-139.1"/>
</a>
</g>
</g>
</g>
</svg>
