<?xml version="1.0" encoding="UTF-8" standalone="no"?>
<!DOCTYPE svg PUBLIC "-//W3C//DTD SVG 1.1//EN"
 "http://www.w3.org/Graphics/SVG/1.1/DTD/svg11.dtd">
<!-- Generated by graphviz version 2.43.0 (0)
 -->
<!-- Title: src/ui/Components/TransformComponentUI.hpp Pages: 1 -->
<svg width="1313pt" height="368pt"
 viewBox="0.00 0.00 1312.89 368.00" xmlns="http://www.w3.org/2000/svg" xmlns:xlink="http://www.w3.org/1999/xlink">
<g id="graph0" class="graph" transform="scale(1 1) rotate(0) translate(4 364)">
<title>src/ui/Components/TransformComponentUI.hpp</title>
<!-- Node1 -->
<g id="Node000001" class="node">
<title>Node1</title>
<g id="a_Node000001"><a xlink:title=" ">
<polygon fill="#999999" stroke="#666666" points="763.39,-360 604.39,-360 604.39,-330 763.39,-330 763.39,-360"/>
<text text-anchor="start" x="612.39" y="-348" font-family="Helvetica,sans-Serif" font-size="10.00">src/ui/Components/Transform</text>
<text text-anchor="middle" x="683.89" y="-337" font-family="Helvetica,sans-Serif" font-size="10.00">ComponentUI.hpp</text>
</a>
</g>
</g>
<!-- Node2 -->
<g id="Node000002" class="node">
<title>Node2</title>
<g id="a_Node000002"><a xlink:title=" ">
<polygon fill="#e0e0e0" stroke="#999999" points="499.39,-294 446.39,-294 446.39,-275 499.39,-275 499.39,-294"/>
<text text-anchor="middle" x="472.89" y="-282" font-family="Helvetica,sans-Serif" font-size="10.00">imgui.h</text>
</a>
</g>
</g>
<!-- Node1&#45;&gt;Node2 -->
<g id="edge1_Node000001_Node000002" class="edge">
<title>Node1&#45;&gt;Node2</title>
<g id="a_edge1_Node000001_Node000002"><a xlink:title=" ">
<path fill="none" stroke="#63b8ff" d="M633.35,-329.99C595.23,-319.42 543.83,-305.17 509.58,-295.67"/>
<polygon fill="#63b8ff" stroke="#63b8ff" points="510.11,-292.19 499.54,-292.89 508.24,-298.93 510.11,-292.19"/>
</a>
</g>
</g>
<!-- Node3 -->
<g id="Node000003" class="node">
<title>Node3</title>
<g id="a_Node000003"><a xlink:href="_image_8hpp.html" target="_top" xlink:title=" ">
<polygon fill="white" stroke="#666666" points="658.39,-294 517.39,-294 517.39,-275 658.39,-275 658.39,-294"/>
<text text-anchor="middle" x="587.89" y="-282" font-family="Helvetica,sans-Serif" font-size="10.00">AssetManager/Image.hpp</text>
</a>
</g>
</g>
<!-- Node1&#45;&gt;Node3 -->
<g id="edge2_Node000001_Node000003" class="edge">
<title>Node1&#45;&gt;Node3</title>
<g id="a_edge2_Node000001_Node000003"><a xlink:title=" ">
<path fill="none" stroke="#63b8ff" d="M660.65,-329.84C645.48,-320.6 625.78,-308.59 610.7,-299.4"/>
<polygon fill="#63b8ff" stroke="#63b8ff" points="612.35,-296.31 601.99,-294.09 608.71,-302.29 612.35,-296.31"/>
</a>
</g>
</g>
<!-- Node5 -->
<g id="Node000005" class="node">
<title>Node5</title>
<g id="a_Node000005"><a xlink:href="_transform_component_8hpp.html" target="_top" xlink:title=" ">
<polygon fill="white" stroke="#666666" points="883.39,-294 676.39,-294 676.39,-275 883.39,-275 883.39,-294"/>
<text text-anchor="middle" x="779.89" y="-282" font-family="Helvetica,sans-Serif" font-size="10.00">Components/TransformComponent.hpp</text>
</a>
</g>
</g>
<!-- Node1&#45;&gt;Node5 -->
<g id="edge4_Node000001_Node000005" class="edge">
<title>Node1&#45;&gt;Node5</title>
<g id="a_edge4_Node000001_Node000005"><a xlink:title=" ">
<path fill="none" stroke="#63b8ff" d="M707.13,-329.84C722.29,-320.6 742,-308.59 757.08,-299.4"/>
<polygon fill="#63b8ff" stroke="#63b8ff" points="759.07,-302.29 765.78,-294.09 755.42,-296.31 759.07,-302.29"/>
</a>
</g>
</g>
<!-- Node30 -->
<g id="Node000030" class="node">
<title>Node30</title>
<g id="a_Node000030"><a xlink:title=" ">
<polygon fill="#e0e0e0" stroke="#999999" points="1019.89,-294 901.89,-294 901.89,-275 1019.89,-275 1019.89,-294"/>
<text text-anchor="middle" x="960.89" y="-282" font-family="Helvetica,sans-Serif" font-size="10.00">UI/ComponentUI.hpp</text>
</a>
</g>
</g>
<!-- Node1&#45;&gt;Node30 -->
<g id="edge37_Node000001_Node000030" class="edge">
<title>Node1&#45;&gt;Node30</title>
<g id="a_edge37_Node000001_Node000030"><a xlink:title=" ">
<path fill="none" stroke="#63b8ff" d="M750.24,-329.99C799.49,-319.59 865.63,-305.62 910.57,-296.13"/>
<polygon fill="#63b8ff" stroke="#63b8ff" points="911.33,-299.54 920.39,-294.05 909.88,-292.7 911.33,-299.54"/>
</a>
</g>
</g>
<!-- Node4 -->
<g id="Node000004" class="node">
<title>Node4</title>
<g id="a_Node000004"><a xlink:title=" ">
<polygon fill="#e0e0e0" stroke="#999999" points="159.89,-129 91.89,-129 91.89,-110 159.89,-110 159.89,-129"/>
<text text-anchor="middle" x="125.89" y="-117" font-family="Helvetica,sans-Serif" font-size="10.00">filesystem</text>
</a>
</g>
</g>
<!-- Node3&#45;&gt;Node4 -->
<g id="edge3_Node000003_Node000004" class="edge">
<title>Node3&#45;&gt;Node4</title>
<g id="a_edge3_Node000003_Node000004"><a xlink:title=" ">
<path fill="none" stroke="#63b8ff" d="M517.23,-275.86C514.07,-275.56 510.95,-275.27 507.89,-275 452.63,-270.07 47.68,-279.62 9.89,-239 -26.63,-199.74 51.39,-154.88 96.61,-133.35"/>
<polygon fill="#63b8ff" stroke="#63b8ff" points="98.12,-136.51 105.71,-129.12 95.17,-130.16 98.12,-136.51"/>
</a>
</g>
</g>
<!-- Node6 -->
<g id="Node000006" class="node">
<title>Node6</title>
<g id="a_Node000006"><a xlink:title=" ">
<polygon fill="#e0e0e0" stroke="#999999" points="1170.89,-239 1110.89,-239 1110.89,-220 1170.89,-220 1170.89,-239"/>
<text text-anchor="middle" x="1140.89" y="-227" font-family="Helvetica,sans-Serif" font-size="10.00">iostream</text>
</a>
</g>
</g>
<!-- Node5&#45;&gt;Node6 -->
<g id="edge5_Node000005_Node000006" class="edge">
<title>Node5&#45;&gt;Node6</title>
<g id="a_edge5_Node000005_Node000006"><a xlink:title=" ">
<path fill="none" stroke="#63b8ff" d="M853.36,-274.99C916.49,-267.3 1010.15,-254.99 1100.8,-239.07"/>
<polygon fill="#63b8ff" stroke="#63b8ff" points="1101.46,-242.51 1110.7,-237.32 1100.24,-235.62 1101.46,-242.51"/>
</a>
</g>
</g>
<!-- Node7 -->
<g id="Node000007" class="node">
<title>Node7</title>
<g id="a_Node000007"><a xlink:title=" ">
<polygon fill="#e0e0e0" stroke="#999999" points="1232.89,-239 1188.89,-239 1188.89,-220 1232.89,-220 1232.89,-239"/>
<text text-anchor="middle" x="1210.89" y="-227" font-family="Helvetica,sans-Serif" font-size="10.00">string</text>
</a>
</g>
</g>
<!-- Node5&#45;&gt;Node7 -->
<g id="edge6_Node000005_Node000007" class="edge">
<title>Node5&#45;&gt;Node7</title>
<g id="a_edge6_Node000005_Node000007"><a xlink:title=" ">
<path fill="none" stroke="#63b8ff" d="M871.43,-275C965.89,-265.94 1108.04,-251.44 1178.39,-238.96"/>
<polygon fill="#63b8ff" stroke="#63b8ff" points="1179.44,-242.32 1188.64,-237.05 1178.16,-235.44 1179.44,-242.32"/>
</a>
</g>
</g>
<!-- Node8 -->
<g id="Node000008" class="node">
<title>Node8</title>
<g id="a_Node000008"><a xlink:title=" ">
<polygon fill="#e0e0e0" stroke="#999999" points="1304.89,-184 1226.89,-184 1226.89,-165 1304.89,-165 1304.89,-184"/>
<text text-anchor="middle" x="1265.89" y="-172" font-family="Helvetica,sans-Serif" font-size="10.00">glm/glm.hpp</text>
</a>
</g>
</g>
<!-- Node5&#45;&gt;Node8 -->
<g id="edge7_Node000005_Node000008" class="edge">
<title>Node5&#45;&gt;Node8</title>
<g id="a_edge7_Node000005_Node000008"><a xlink:title=" ">
<path fill="none" stroke="#63b8ff" d="M882.13,-275C1016.05,-263.67 1234.8,-244.42 1241.89,-239 1255.77,-228.39 1261.62,-208.78 1264.09,-194.15"/>
<polygon fill="#63b8ff" stroke="#63b8ff" points="1267.57,-194.53 1265.39,-184.16 1260.63,-193.62 1267.57,-194.53"/>
</a>
</g>
</g>
<!-- Node9 -->
<g id="Node000009" class="node">
<title>Node9</title>
<g id="a_Node000009"><a xlink:title=" ">
<polygon fill="#e0e0e0" stroke="#999999" points="182.39,-239 19.39,-239 19.39,-220 182.39,-220 182.39,-239"/>
<text text-anchor="middle" x="100.89" y="-227" font-family="Helvetica,sans-Serif" font-size="10.00">glm/gtc/matrix_transform.hpp</text>
</a>
</g>
</g>
<!-- Node5&#45;&gt;Node9 -->
<g id="edge8_Node000005_Node000009" class="edge">
<title>Node5&#45;&gt;Node9</title>
<g id="a_edge8_Node000005_Node000009"><a xlink:title=" ">
<path fill="none" stroke="#63b8ff" d="M676.38,-275.71C525.15,-264.33 255.73,-244.03 193.06,-239.05"/>
<polygon fill="#63b8ff" stroke="#63b8ff" points="192.99,-235.53 182.73,-238.21 192.42,-242.51 192.99,-235.53"/>
</a>
</g>
</g>
<!-- Node10 -->
<g id="Node000010" class="node">
<title>Node10</title>
<g id="a_Node000010"><a xlink:title=" ">
<polygon fill="#e0e0e0" stroke="#999999" points="330.89,-239 200.89,-239 200.89,-220 330.89,-220 330.89,-239"/>
<text text-anchor="middle" x="265.89" y="-227" font-family="Helvetica,sans-Serif" font-size="10.00">glm/gtc/quaternion.hpp</text>
</a>
</g>
</g>
<!-- Node5&#45;&gt;Node10 -->
<g id="edge9_Node000005_Node000010" class="edge">
<title>Node5&#45;&gt;Node10</title>
<g id="a_edge9_Node000005_Node000010"><a xlink:title=" ">
<path fill="none" stroke="#63b8ff" d="M692.2,-274.98C605.62,-266.5 469.17,-252.9 341.23,-239.13"/>
<polygon fill="#63b8ff" stroke="#63b8ff" points="341.57,-235.65 331.25,-238.06 340.82,-242.61 341.57,-235.65"/>
</a>
</g>
</g>
<!-- Node11 -->
<g id="Node000011" class="node">
<title>Node11</title>
<g id="a_Node000011"><a xlink:title=" ">
<polygon fill="#e0e0e0" stroke="#999999" points="520.89,-239 348.89,-239 348.89,-220 520.89,-220 520.89,-239"/>
<text text-anchor="middle" x="434.89" y="-227" font-family="Helvetica,sans-Serif" font-size="10.00">glm/gtx/matrix_decompose.hpp</text>
</a>
</g>
</g>
<!-- Node5&#45;&gt;Node11 -->
<g id="edge10_Node000005_Node000011" class="edge">
<title>Node5&#45;&gt;Node11</title>
<g id="a_edge10_Node000005_Node000011"><a xlink:title=" ">
<path fill="none" stroke="#63b8ff" d="M724.46,-274.98C663.44,-265.61 565.41,-250.55 500.58,-240.59"/>
<polygon fill="#63b8ff" stroke="#63b8ff" points="500.88,-237.1 490.47,-239.04 499.82,-244.02 500.88,-237.1"/>
</a>
</g>
</g>
<!-- Node12 -->
<g id="Node000012" class="node">
<title>Node12</title>
<g id="a_Node000012"><a xlink:title=" ">
<polygon fill="#e0e0e0" stroke="#999999" points="670.39,-239 539.39,-239 539.39,-220 670.39,-220 670.39,-239"/>
<text text-anchor="middle" x="604.89" y="-227" font-family="Helvetica,sans-Serif" font-size="10.00">glm/gtx/string_cast.hpp</text>
</a>
</g>
</g>
<!-- Node5&#45;&gt;Node12 -->
<g id="edge11_Node000005_Node000012" class="edge">
<title>Node5&#45;&gt;Node12</title>
<g id="a_edge11_Node000005_Node000012"><a xlink:title=" ">
<path fill="none" stroke="#63b8ff" d="M751.77,-274.98C722.26,-266.05 675.7,-251.94 642.92,-242.02"/>
<polygon fill="#63b8ff" stroke="#63b8ff" points="643.81,-238.63 633.23,-239.08 641.78,-245.33 643.81,-238.63"/>
</a>
</g>
</g>
<!-- Node13 -->
<g id="Node000013" class="node">
<title>Node13</title>
<g id="a_Node000013"><a xlink:href="_base_component_8hpp.html" target="_top" xlink:title=" ">
<polygon fill="white" stroke="#666666" points="870.89,-239 688.89,-239 688.89,-220 870.89,-220 870.89,-239"/>
<text text-anchor="middle" x="779.89" y="-227" font-family="Helvetica,sans-Serif" font-size="10.00">Components/BaseComponent.hpp</text>
</a>
</g>
</g>
<!-- Node5&#45;&gt;Node13 -->
<g id="edge12_Node000005_Node000013" class="edge">
<title>Node5&#45;&gt;Node13</title>
<g id="a_edge12_Node000005_Node000013"><a xlink:title=" ">
<path fill="none" stroke="#63b8ff" d="M779.89,-274.75C779.89,-267.8 779.89,-257.85 779.89,-249.13"/>
<polygon fill="#63b8ff" stroke="#63b8ff" points="783.39,-249.09 779.89,-239.09 776.39,-249.09 783.39,-249.09"/>
</a>
</g>
</g>
<!-- Node15 -->
<g id="Node000015" class="node">
<title>Node15</title>
<g id="a_Node000015"><a xlink:href="_registry_8hpp.html" target="_top" xlink:title=" ">
<polygon fill="white" stroke="#666666" points="986.89,-239 888.89,-239 888.89,-220 986.89,-220 986.89,-239"/>
<text text-anchor="middle" x="937.89" y="-227" font-family="Helvetica,sans-Serif" font-size="10.00">ECS/Registry.hpp</text>
</a>
</g>
</g>
<!-- Node5&#45;&gt;Node15 -->
<g id="edge15_Node000005_Node000015" class="edge">
<title>Node5&#45;&gt;Node15</title>
<g id="a_edge15_Node000005_Node000015"><a xlink:title=" ">
<path fill="none" stroke="#63b8ff" d="M805.27,-274.98C831.69,-266.13 873.23,-252.19 902.78,-242.28"/>
<polygon fill="#63b8ff" stroke="#63b8ff" points="903.94,-245.58 912.3,-239.08 901.71,-238.94 903.94,-245.58"/>
</a>
</g>
</g>
<!-- Node29 -->
<g id="Node000029" class="node">
<title>Node29</title>
<g id="a_Node000029"><a xlink:href="_math_2_utils_8hpp.html" target="_top" xlink:title=" ">
<polygon fill="white" stroke="#666666" points="1092.89,-239 1004.89,-239 1004.89,-220 1092.89,-220 1092.89,-239"/>
<text text-anchor="middle" x="1048.89" y="-227" font-family="Helvetica,sans-Serif" font-size="10.00">Math/Utils.hpp</text>
</a>
</g>
</g>
<!-- Node5&#45;&gt;Node29 -->
<g id="edge35_Node000005_Node000029" class="edge">
<title>Node5&#45;&gt;Node29</title>
<g id="a_edge35_Node000005_Node000029"><a xlink:title=" ">
<path fill="none" stroke="#63b8ff" d="M823.11,-274.98C869.93,-265.76 944.7,-251.03 995.25,-241.07"/>
<polygon fill="#63b8ff" stroke="#63b8ff" points="996.2,-244.45 1005.33,-239.08 994.84,-237.58 996.2,-244.45"/>
</a>
</g>
</g>
<!-- Node14 -->
<g id="Node000014" class="node">
<title>Node14</title>
<g id="a_Node000014"><a xlink:href="_types_8hpp.html" target="_top" xlink:title=" ">
<polygon fill="white" stroke="#666666" points="317.39,-184 204.39,-184 204.39,-165 317.39,-165 317.39,-184"/>
<text text-anchor="middle" x="260.89" y="-172" font-family="Helvetica,sans-Serif" font-size="10.00">Common/Types.hpp</text>
</a>
</g>
</g>
<!-- Node13&#45;&gt;Node14 -->
<g id="edge13_Node000013_Node000014" class="edge">
<title>Node13&#45;&gt;Node14</title>
<g id="a_edge13_Node000013_Node000014"><a xlink:title=" ">
<path fill="none" stroke="#63b8ff" d="M696.5,-219.98C593.93,-209.51 421.86,-191.94 327.6,-182.31"/>
<polygon fill="#63b8ff" stroke="#63b8ff" points="327.92,-178.83 317.62,-181.29 327.21,-185.79 327.92,-178.83"/>
</a>
</g>
</g>
<!-- Node14&#45;&gt;Node4 -->
<g id="edge14_Node000014_Node000004" class="edge">
<title>Node14&#45;&gt;Node4</title>
<g id="a_edge14_Node000014_Node000004"><a xlink:title=" ">
<path fill="none" stroke="#63b8ff" d="M239.2,-164.98C217.09,-156.3 182.57,-142.75 157.43,-132.88"/>
<polygon fill="#63b8ff" stroke="#63b8ff" points="158.56,-129.57 147.97,-129.17 156,-136.08 158.56,-129.57"/>
</a>
</g>
</g>
<!-- Node16 -->
<g id="Node000016" class="node">
<title>Node16</title>
<g id="a_Node000016"><a xlink:title=" ">
<polygon fill="#e0e0e0" stroke="#999999" points="1243.89,-129 1157.89,-129 1157.89,-110 1243.89,-110 1243.89,-129"/>
<text text-anchor="middle" x="1200.89" y="-117" font-family="Helvetica,sans-Serif" font-size="10.00">unordered_set</text>
</a>
</g>
</g>
<!-- Node15&#45;&gt;Node16 -->
<g id="edge16_Node000015_Node000016" class="edge">
<title>Node15&#45;&gt;Node16</title>
<g id="a_edge16_Node000015_Node000016"><a xlink:title=" ">
<path fill="none" stroke="#63b8ff" d="M987.01,-220.78C1055.62,-209.8 1172.63,-190.32 1179.89,-184 1192.6,-172.93 1197.65,-153.99 1199.64,-139.67"/>
<polygon fill="#63b8ff" stroke="#63b8ff" points="1203.15,-139.71 1200.66,-129.41 1196.18,-139.01 1203.15,-139.71"/>
</a>
</g>
</g>
<!-- Node17 -->
<g id="Node000017" class="node">
<title>Node17</title>
<g id="a_Node000017"><a xlink:href="_logger_8hpp.html" target="_top" xlink:title=" ">
<polygon fill="white" stroke="#666666" points="636.39,-184 519.39,-184 519.39,-165 636.39,-165 636.39,-184"/>
<text text-anchor="middle" x="577.89" y="-172" font-family="Helvetica,sans-Serif" font-size="10.00">Common/Logger.hpp</text>
</a>
</g>
</g>
<!-- Node15&#45;&gt;Node17 -->
<g id="edge17_Node000015_Node000017" class="edge">
<title>Node15&#45;&gt;Node17</title>
<g id="a_edge17_Node000015_Node000017"><a xlink:title=" ">
<path fill="none" stroke="#63b8ff" d="M888.59,-221.24C825.72,-211.99 716.72,-195.94 645.96,-185.52"/>
<polygon fill="#63b8ff" stroke="#63b8ff" points="646.22,-182.02 635.81,-184.03 645.2,-188.95 646.22,-182.02"/>
</a>
</g>
</g>
<!-- Node20 -->
<g id="Node000020" class="node">
<title>Node20</title>
<g id="a_Node000020"><a xlink:href="_entity_8hpp.html" target="_top" xlink:title=" ">
<polygon fill="white" stroke="#666666" points="865.89,-74 779.89,-74 779.89,-55 865.89,-55 865.89,-74"/>
<text text-anchor="middle" x="822.89" y="-62" font-family="Helvetica,sans-Serif" font-size="10.00">ECS/Entity.hpp</text>
</a>
</g>
</g>
<!-- Node15&#45;&gt;Node20 -->
<g id="edge20_Node000015_Node000020" class="edge">
<title>Node15&#45;&gt;Node20</title>
<g id="a_edge20_Node000015_Node000020"><a xlink:title=" ">
<path fill="none" stroke="#63b8ff" d="M905.33,-219.96C886.12,-213.26 862.9,-201.99 848.89,-184 826.11,-154.74 822.36,-109.69 822.25,-84.4"/>
<polygon fill="#63b8ff" stroke="#63b8ff" points="825.75,-84.35 822.39,-74.3 818.75,-84.24 825.75,-84.35"/>
</a>
</g>
</g>
<!-- Node22 -->
<g id="Node000022" class="node">
<title>Node22</title>
<g id="a_Node000022"><a xlink:href="_entity_hierarchy_8hpp.html" target="_top" xlink:title=" ">
<polygon fill="white" stroke="#666666" points="1170.89,-184 1036.89,-184 1036.89,-165 1170.89,-165 1170.89,-184"/>
<text text-anchor="middle" x="1103.89" y="-172" font-family="Helvetica,sans-Serif" font-size="10.00">ECS/EntityHierarchy.hpp</text>
</a>
</g>
</g>
<!-- Node15&#45;&gt;Node22 -->
<g id="edge22_Node000015_Node000022" class="edge">
<title>Node15&#45;&gt;Node22</title>
<g id="a_edge22_Node000015_Node000022"><a xlink:title=" ">
<path fill="none" stroke="#63b8ff" d="M964.56,-219.98C992.43,-211.09 1036.34,-197.07 1067.41,-187.15"/>
<polygon fill="#63b8ff" stroke="#63b8ff" points="1068.55,-190.46 1077.01,-184.08 1066.42,-183.79 1068.55,-190.46"/>
</a>
</g>
</g>
<!-- Node26 -->
<g id="Node000026" class="node">
<title>Node26</title>
<g id="a_Node000026"><a xlink:href="_entity_provider_8hpp.html" target="_top" xlink:title="Manages a pool of unused entity identifiers and provides mechanisms for requesting and removing them.">
<polygon fill="white" stroke="#666666" points="800.89,-129 672.89,-129 672.89,-110 800.89,-110 800.89,-129"/>
<text text-anchor="middle" x="736.89" y="-117" font-family="Helvetica,sans-Serif" font-size="10.00">ECS/EntityProvider.hpp</text>
</a>
</g>
</g>
<!-- Node15&#45;&gt;Node26 -->
<g id="edge28_Node000015_Node000026" class="edge">
<title>Node15&#45;&gt;Node26</title>
<g id="a_edge28_Node000015_Node000026"><a xlink:title=" ">
<path fill="none" stroke="#63b8ff" d="M888.81,-220.71C815.91,-209.03 687.19,-187.93 683.89,-184 669.57,-166.95 692.04,-147.26 711.98,-134.38"/>
<polygon fill="#63b8ff" stroke="#63b8ff" points="713.84,-137.35 720.55,-129.14 710.19,-131.38 713.84,-137.35"/>
</a>
</g>
</g>
<!-- Node27 -->
<g id="Node000027" class="node">
<title>Node27</title>
<g id="a_Node000027"><a xlink:href="_singleton_component_8hpp.html" target="_top" xlink:title=" ">
<polygon fill="white" stroke="#666666" points="1018.39,-184 857.39,-184 857.39,-165 1018.39,-165 1018.39,-184"/>
<text text-anchor="middle" x="937.89" y="-172" font-family="Helvetica,sans-Serif" font-size="10.00">ECS/SingletonComponent.hpp</text>
</a>
</g>
</g>
<!-- Node15&#45;&gt;Node27 -->
<g id="edge32_Node000015_Node000027" class="edge">
<title>Node15&#45;&gt;Node27</title>
<g id="a_edge32_Node000015_Node000027"><a xlink:title=" ">
<path fill="none" stroke="#63b8ff" d="M937.89,-219.75C937.89,-212.8 937.89,-202.85 937.89,-194.13"/>
<polygon fill="#63b8ff" stroke="#63b8ff" points="941.39,-194.09 937.89,-184.09 934.39,-194.09 941.39,-194.09"/>
</a>
</g>
</g>
<!-- Node28 -->
<g id="Node000028" class="node">
<title>Node28</title>
<g id="a_Node000028"><a xlink:href="_sparse_set_8hpp.html" target="_top" xlink:title=" ">
<polygon fill="white" stroke="#666666" points="800.89,-184 692.89,-184 692.89,-165 800.89,-165 800.89,-184"/>
<text text-anchor="middle" x="746.89" y="-172" font-family="Helvetica,sans-Serif" font-size="10.00">ECS/SparseSet.hpp</text>
</a>
</g>
</g>
<!-- Node15&#45;&gt;Node28 -->
<g id="edge33_Node000015_Node000028" class="edge">
<title>Node15&#45;&gt;Node28</title>
<g id="a_edge33_Node000015_Node000028"><a xlink:title=" ">
<path fill="none" stroke="#63b8ff" d="M907.2,-219.98C874.72,-210.97 823.29,-196.7 787.48,-186.76"/>
<polygon fill="#63b8ff" stroke="#63b8ff" points="788.39,-183.38 777.82,-184.08 786.52,-190.13 788.39,-183.38"/>
</a>
</g>
</g>
<!-- Node18 -->
<g id="Node000018" class="node">
<title>Node18</title>
<g id="a_Node000018"><a xlink:title=" ">
<polygon fill="#e0e0e0" stroke="#999999" points="601.89,-129 553.89,-129 553.89,-110 601.89,-110 601.89,-129"/>
<text text-anchor="middle" x="577.89" y="-117" font-family="Helvetica,sans-Serif" font-size="10.00">mutex</text>
</a>
</g>
</g>
<!-- Node17&#45;&gt;Node18 -->
<g id="edge18_Node000017_Node000018" class="edge">
<title>Node17&#45;&gt;Node18</title>
<g id="a_edge18_Node000017_Node000018"><a xlink:title=" ">
<path fill="none" stroke="#63b8ff" d="M577.89,-164.75C577.89,-157.8 577.89,-147.85 577.89,-139.13"/>
<polygon fill="#63b8ff" stroke="#63b8ff" points="581.39,-139.09 577.89,-129.09 574.39,-139.09 581.39,-139.09"/>
</a>
</g>
</g>
<!-- Node19 -->
<g id="Node000019" class="node">
<title>Node19</title>
<g id="a_Node000019"><a xlink:title=" ">
<polygon fill="#e0e0e0" stroke="#999999" points="686.39,-74 639.39,-74 639.39,-55 686.39,-55 686.39,-74"/>
<text text-anchor="middle" x="662.89" y="-62" font-family="Helvetica,sans-Serif" font-size="10.00">queue</text>
</a>
</g>
</g>
<!-- Node17&#45;&gt;Node19 -->
<g id="edge19_Node000017_Node000019" class="edge">
<title>Node17&#45;&gt;Node19</title>
<g id="a_edge19_Node000017_Node000019"><a xlink:title=" ">
<path fill="none" stroke="#63b8ff" d="M584.84,-164.66C599.05,-146.61 631.58,-105.28 649.84,-82.08"/>
<polygon fill="#63b8ff" stroke="#63b8ff" points="652.64,-84.18 656.07,-74.16 647.14,-79.85 652.64,-84.18"/>
</a>
</g>
</g>
<!-- Node21 -->
<g id="Node000021" class="node">
<title>Node21</title>
<g id="a_Node000021"><a xlink:title=" ">
<polygon fill="#e0e0e0" stroke="#999999" points="808.39,-19 755.39,-19 755.39,0 808.39,0 808.39,-19"/>
<text text-anchor="middle" x="781.89" y="-7" font-family="Helvetica,sans-Serif" font-size="10.00">stdlib.h</text>
</a>
</g>
</g>
<!-- Node20&#45;&gt;Node21 -->
<g id="edge21_Node000020_Node000021" class="edge">
<title>Node20&#45;&gt;Node21</title>
<g id="a_edge21_Node000020_Node000021"><a xlink:title=" ">
<path fill="none" stroke="#63b8ff" d="M816.12,-54.75C810.33,-47.26 801.83,-36.28 794.75,-27.13"/>
<polygon fill="#63b8ff" stroke="#63b8ff" points="797.42,-24.86 788.53,-19.09 791.88,-29.14 797.42,-24.86"/>
</a>
</g>
</g>
<!-- Node22&#45;&gt;Node16 -->
<g id="edge26_Node000022_Node000016" class="edge">
<title>Node22&#45;&gt;Node16</title>
<g id="a_edge26_Node000022_Node000016"><a xlink:title=" ">
<path fill="none" stroke="#63b8ff" d="M1119.47,-164.98C1134.66,-156.69 1157.99,-143.94 1175.79,-134.22"/>
<polygon fill="#63b8ff" stroke="#63b8ff" points="1177.92,-137.04 1185.02,-129.17 1174.57,-130.89 1177.92,-137.04"/>
</a>
</g>
</g>
<!-- Node22&#45;&gt;Node20 -->
<g id="edge27_Node000022_Node000020" class="edge">
<title>Node22&#45;&gt;Node20</title>
<g id="a_edge27_Node000022_Node000020"><a xlink:title=" ">
<path fill="none" stroke="#63b8ff" d="M1069.63,-164.97C1039.08,-156.97 993.37,-144.01 954.89,-129 936.92,-122 933.25,-118.38 915.89,-110 893.79,-99.33 868.69,-87.33 850.14,-78.48"/>
<polygon fill="#63b8ff" stroke="#63b8ff" points="851.62,-75.3 841.08,-74.16 848.6,-81.62 851.62,-75.3"/>
</a>
</g>
</g>
<!-- Node23 -->
<g id="Node000023" class="node">
<title>Node23</title>
<g id="a_Node000023"><a xlink:title=" ">
<polygon fill="#e0e0e0" stroke="#999999" points="1139.39,-129 1074.39,-129 1074.39,-110 1139.39,-110 1139.39,-129"/>
<text text-anchor="middle" x="1106.89" y="-117" font-family="Helvetica,sans-Serif" font-size="10.00">functional</text>
</a>
</g>
</g>
<!-- Node22&#45;&gt;Node23 -->
<g id="edge23_Node000022_Node000023" class="edge">
<title>Node22&#45;&gt;Node23</title>
<g id="a_edge23_Node000022_Node000023"><a xlink:title=" ">
<path fill="none" stroke="#63b8ff" d="M1104.38,-164.75C1104.78,-157.8 1105.34,-147.85 1105.83,-139.13"/>
<polygon fill="#63b8ff" stroke="#63b8ff" points="1109.33,-139.27 1106.4,-129.09 1102.34,-138.88 1109.33,-139.27"/>
</a>
</g>
</g>
<!-- Node24 -->
<g id="Node000024" class="node">
<title>Node24</title>
<g id="a_Node000024"><a xlink:title=" ">
<polygon fill="#e0e0e0" stroke="#999999" points="906.89,-129 856.89,-129 856.89,-110 906.89,-110 906.89,-129"/>
<text text-anchor="middle" x="881.89" y="-117" font-family="Helvetica,sans-Serif" font-size="10.00">ranges</text>
</a>
</g>
</g>
<!-- Node22&#45;&gt;Node24 -->
<g id="edge24_Node000022_Node000024" class="edge">
<title>Node22&#45;&gt;Node24</title>
<g id="a_edge24_Node000022_Node000024"><a xlink:title=" ">
<path fill="none" stroke="#63b8ff" d="M1068.22,-164.98C1026.64,-155.06 958.35,-138.76 917.01,-128.88"/>
<polygon fill="#63b8ff" stroke="#63b8ff" points="917.65,-125.44 907.11,-126.52 916.03,-132.25 917.65,-125.44"/>
</a>
</g>
</g>
<!-- Node25 -->
<g id="Node000025" class="node">
<title>Node25</title>
<g id="a_Node000025"><a xlink:title=" ">
<polygon fill="#e0e0e0" stroke="#999999" points="1056.39,-129 963.39,-129 963.39,-110 1056.39,-110 1056.39,-129"/>
<text text-anchor="middle" x="1009.89" y="-117" font-family="Helvetica,sans-Serif" font-size="10.00">unordered_map</text>
</a>
</g>
</g>
<!-- Node22&#45;&gt;Node25 -->
<g id="edge25_Node000022_Node000025" class="edge">
<title>Node22&#45;&gt;Node25</title>
<g id="a_edge25_Node000022_Node000025"><a xlink:title=" ">
<path fill="none" stroke="#63b8ff" d="M1088.79,-164.98C1074.07,-156.69 1051.46,-143.94 1034.21,-134.22"/>
<polygon fill="#63b8ff" stroke="#63b8ff" points="1035.7,-131.03 1025.27,-129.17 1032.26,-137.13 1035.7,-131.03"/>
</a>
</g>
</g>
<!-- Node26&#45;&gt;Node19 -->
<g id="edge30_Node000026_Node000019" class="edge">
<title>Node26&#45;&gt;Node19</title>
<g id="a_edge30_Node000026_Node000019"><a xlink:title=" ">
<path fill="none" stroke="#63b8ff" d="M725,-109.98C713.74,-101.92 696.6,-89.65 683.18,-80.03"/>
<polygon fill="#63b8ff" stroke="#63b8ff" points="685.16,-77.15 674.99,-74.17 681.09,-82.84 685.16,-77.15"/>
</a>
</g>
</g>
<!-- Node26&#45;&gt;Node20 -->
<g id="edge31_Node000026_Node000020" class="edge">
<title>Node26&#45;&gt;Node20</title>
<g id="a_edge31_Node000026_Node000020"><a xlink:title=" ">
<path fill="none" stroke="#63b8ff" d="M750.71,-109.98C764.04,-101.77 784.47,-89.18 800.19,-79.49"/>
<polygon fill="#63b8ff" stroke="#63b8ff" points="802.14,-82.4 808.82,-74.17 798.47,-76.44 802.14,-82.4"/>
</a>
</g>
</g>
<!-- Node26&#45;&gt;Node21 -->
<g id="edge29_Node000026_Node000021" class="edge">
<title>Node26&#45;&gt;Node21</title>
<g id="a_edge29_Node000026_Node000021"><a xlink:title=" ">
<path fill="none" stroke="#63b8ff" d="M740.57,-109.66C747.92,-92.01 764.56,-52.09 774.33,-28.64"/>
<polygon fill="#63b8ff" stroke="#63b8ff" points="777.67,-29.74 778.28,-19.16 771.2,-27.04 777.67,-29.74"/>
</a>
</g>
</g>
<!-- Node28&#45;&gt;Node26 -->
<g id="edge34_Node000028_Node000026" class="edge">
<title>Node28&#45;&gt;Node26</title>
<g id="a_edge34_Node000028_Node000026"><a xlink:title=" ">
<path fill="none" stroke="#63b8ff" d="M745.24,-164.75C743.93,-157.8 742.05,-147.85 740.4,-139.13"/>
<polygon fill="#63b8ff" stroke="#63b8ff" points="743.8,-138.27 738.51,-129.09 736.92,-139.56 743.8,-138.27"/>
</a>
</g>
</g>
<!-- Node29&#45;&gt;Node8 -->
<g id="edge36_Node000029_Node000008" class="edge">
<title>Node29&#45;&gt;Node8</title>
<g id="a_edge36_Node000029_Node000008"><a xlink:title=" ">
<path fill="none" stroke="#63b8ff" d="M1083.75,-219.98C1120.97,-210.89 1180.08,-196.46 1220.82,-186.51"/>
<polygon fill="#63b8ff" stroke="#63b8ff" points="1221.87,-189.85 1230.75,-184.08 1220.21,-183.05 1221.87,-189.85"/>
</a>
</g>
</g>
</g>
</svg>
