<?xml version="1.0" encoding="UTF-8" standalone="no"?>
<!DOCTYPE svg PUBLIC "-//W3C//DTD SVG 1.1//EN"
 "http://www.w3.org/Graphics/SVG/1.1/DTD/svg11.dtd">
<!-- Generated by graphviz version 2.43.0 (0)
 -->
<!-- Title: src/ui/components/TransformUIComponent.hpp Pages: 1 -->
<svg width="364pt" height="106pt"
 viewBox="0.00 0.00 363.50 106.00" xmlns="http://www.w3.org/2000/svg" xmlns:xlink="http://www.w3.org/1999/xlink">
<g id="graph0" class="graph" transform="scale(1 1) rotate(0) translate(4 102)">
<title>src/ui/components/TransformUIComponent.hpp</title>
<polygon fill="white" stroke="transparent" points="-4,4 -4,-102 359.5,-102 359.5,4 -4,4"/>
<!-- Node1 -->
<g id="node1" class="node">
<title>Node1</title>
<g id="a_node1"><a xlink:title="Contains the declaration of the TransformUIComponent class, representing a user interface component f...">
<polygon fill="#bfbfbf" stroke="black" points="93,-67.5 93,-97.5 251,-97.5 251,-67.5 93,-67.5"/>
<text text-anchor="start" x="101" y="-85.5" font-family="Helvetica,sans-Serif" font-size="10.00">src/ui/components/Transform</text>
<text text-anchor="middle" x="172" y="-74.5" font-family="Helvetica,sans-Serif" font-size="10.00">UIComponent.hpp</text>
</a>
</g>
</g>
<!-- Node2 -->
<g id="node2" class="node">
<title>Node2</title>
<g id="a_node2"><a xlink:href="_transform_u_i_component_8cpp.html" target="_top" xlink:title=" ">
<polygon fill="white" stroke="black" points="0,-0.5 0,-30.5 158,-30.5 158,-0.5 0,-0.5"/>
<text text-anchor="start" x="8" y="-18.5" font-family="Helvetica,sans-Serif" font-size="10.00">src/ui/components/Transform</text>
<text text-anchor="middle" x="79" y="-7.5" font-family="Helvetica,sans-Serif" font-size="10.00">UIComponent.cpp</text>
</a>
</g>
</g>
<!-- Node1&#45;&gt;Node2 -->
<g id="edge1" class="edge">
<title>Node1&#45;&gt;Node2</title>
<path fill="none" stroke="midnightblue" d="M143.31,-61.45C129.01,-51.45 112.05,-39.6 99.14,-30.58"/>
<polygon fill="midnightblue" stroke="midnightblue" points="141.62,-64.54 151.82,-67.4 145.63,-58.8 141.62,-64.54"/>
</g>
<!-- Node3 -->
<g id="node3" class="node">
<title>Node3</title>
<g id="a_node3"><a xlink:href="_objects_widget_8cpp.html" target="_top" xlink:title=" ">
<polygon fill="white" stroke="black" points="176.5,-6 176.5,-25 355.5,-25 355.5,-6 176.5,-6"/>
<text text-anchor="middle" x="266" y="-13" font-family="Helvetica,sans-Serif" font-size="10.00">src/ui/widgets/ObjectsWidget.cpp</text>
</a>
</g>
</g>
<!-- Node1&#45;&gt;Node3 -->
<g id="edge2" class="edge">
<title>Node1&#45;&gt;Node3</title>
<path fill="none" stroke="midnightblue" d="M200.72,-61.64C218.46,-49.37 240.31,-34.26 253.7,-25.01"/>
<polygon fill="midnightblue" stroke="midnightblue" points="198.63,-58.83 192.4,-67.4 202.61,-64.59 198.63,-58.83"/>
</g>
</g>
</svg>
