<?xml version="1.0" encoding="UTF-8" standalone="no"?>
<!DOCTYPE svg PUBLIC "-//W3C//DTD SVG 1.1//EN"
 "http://www.w3.org/Graphics/SVG/1.1/DTD/svg11.dtd">
<!-- Generated by graphviz version 2.43.0 (0)
 -->
<!-- Title: src/ui/Components/TransformComponentUI.hpp Pages: 1 -->
<svg width="1430pt" height="368pt"
 viewBox="0.00 0.00 1429.82 368.00" xmlns="http://www.w3.org/2000/svg" xmlns:xlink="http://www.w3.org/1999/xlink">
<g id="graph0" class="graph" transform="scale(1 1) rotate(0) translate(4 364)">
<title>src/ui/Components/TransformComponentUI.hpp</title>
<!-- Node1 -->
<g id="Node000001" class="node">
<title>Node1</title>
<g id="a_Node000001"><a xlink:title=" ">
<polygon fill="#999999" stroke="#666666" points="567.32,-360 408.32,-360 408.32,-330 567.32,-330 567.32,-360"/>
<text text-anchor="start" x="416.32" y="-348" font-family="Helvetica,sans-Serif" font-size="10.00">src/ui/Components/Transform</text>
<text text-anchor="middle" x="487.82" y="-337" font-family="Helvetica,sans-Serif" font-size="10.00">ComponentUI.hpp</text>
</a>
</g>
</g>
<!-- Node2 -->
<g id="Node000002" class="node">
<title>Node2</title>
<g id="a_Node000002"><a xlink:title=" ">
<polygon fill="#e0e0e0" stroke="#999999" points="129.32,-294 76.32,-294 76.32,-275 129.32,-275 129.32,-294"/>
<text text-anchor="middle" x="102.82" y="-282" font-family="Helvetica,sans-Serif" font-size="10.00">imgui.h</text>
</a>
</g>
</g>
<!-- Node1&#45;&gt;Node2 -->
<g id="edge1_Node000001_Node000002" class="edge">
<title>Node1&#45;&gt;Node2</title>
<g id="a_edge1_Node000001_Node000002"><a xlink:title=" ">
<path fill="none" stroke="#63b8ff" d="M408.23,-334.85C339.41,-326.43 237.11,-312.69 139.55,-294.19"/>
<polygon fill="#63b8ff" stroke="#63b8ff" points="140,-290.71 129.52,-292.26 138.68,-297.58 140,-290.71"/>
</a>
</g>
</g>
<!-- Node3 -->
<g id="Node000003" class="node">
<title>Node3</title>
<g id="a_Node000003"><a xlink:href="_image_8hpp.html" target="_top" xlink:title=" ">
<polygon fill="white" stroke="#666666" points="288.32,-294 147.32,-294 147.32,-275 288.32,-275 288.32,-294"/>
<text text-anchor="middle" x="217.82" y="-282" font-family="Helvetica,sans-Serif" font-size="10.00">AssetManager/Image.hpp</text>
</a>
</g>
</g>
<!-- Node1&#45;&gt;Node3 -->
<g id="edge2_Node000001_Node000003" class="edge">
<title>Node1&#45;&gt;Node3</title>
<g id="a_edge2_Node000001_Node000003"><a xlink:title=" ">
<path fill="none" stroke="#63b8ff" d="M423.15,-329.99C375.24,-319.61 310.94,-305.68 267.15,-296.19"/>
<polygon fill="#63b8ff" stroke="#63b8ff" points="267.82,-292.75 257.3,-294.05 266.33,-299.59 267.82,-292.75"/>
</a>
</g>
</g>
<!-- Node6 -->
<g id="Node000006" class="node">
<title>Node6</title>
<g id="a_Node000006"><a xlink:href="_transform_component_8hpp.html" target="_top" xlink:title=" ">
<polygon fill="white" stroke="#666666" points="812.32,-294 605.32,-294 605.32,-275 812.32,-275 812.32,-294"/>
<text text-anchor="middle" x="708.82" y="-282" font-family="Helvetica,sans-Serif" font-size="10.00">Components/TransformComponent.hpp</text>
</a>
</g>
</g>
<!-- Node1&#45;&gt;Node6 -->
<g id="edge6_Node000001_Node000006" class="edge">
<title>Node1&#45;&gt;Node6</title>
<g id="a_edge6_Node000001_Node000006"><a xlink:title=" ">
<path fill="none" stroke="#63b8ff" d="M540.76,-329.99C579.23,-319.8 630.61,-306.2 666.4,-296.73"/>
<polygon fill="#63b8ff" stroke="#63b8ff" points="667.74,-300 676.51,-294.05 665.95,-293.23 667.74,-300"/>
</a>
</g>
</g>
<!-- Node27 -->
<g id="Node000027" class="node">
<title>Node27</title>
<g id="a_Node000027"><a xlink:title=" ">
<polygon fill="#e0e0e0" stroke="#999999" points="948.82,-294 830.82,-294 830.82,-275 948.82,-275 948.82,-294"/>
<text text-anchor="middle" x="889.82" y="-282" font-family="Helvetica,sans-Serif" font-size="10.00">UI/ComponentUI.hpp</text>
</a>
</g>
</g>
<!-- Node1&#45;&gt;Node27 -->
<g id="edge33_Node000001_Node000027" class="edge">
<title>Node1&#45;&gt;Node27</title>
<g id="a_edge33_Node000001_Node000027"><a xlink:title=" ">
<path fill="none" stroke="#63b8ff" d="M567.73,-332.37C641.82,-321.59 750.91,-305.71 821.17,-295.49"/>
<polygon fill="#63b8ff" stroke="#63b8ff" points="821.86,-298.93 831.25,-294.02 820.85,-292 821.86,-298.93"/>
</a>
</g>
</g>
<!-- Node4 -->
<g id="Node000004" class="node">
<title>Node4</title>
<g id="a_Node000004"><a xlink:title=" ">
<polygon fill="#e0e0e0" stroke="#999999" points="68.82,-184 0.82,-184 0.82,-165 68.82,-165 68.82,-184"/>
<text text-anchor="middle" x="34.82" y="-172" font-family="Helvetica,sans-Serif" font-size="10.00">filesystem</text>
</a>
</g>
</g>
<!-- Node3&#45;&gt;Node4 -->
<g id="edge3_Node000003_Node000004" class="edge">
<title>Node3&#45;&gt;Node4</title>
<g id="a_edge3_Node000003_Node000004"><a xlink:title=" ">
<path fill="none" stroke="#63b8ff" d="M158.31,-274.96C98.74,-265.81 14.56,-250.98 4.82,-239 -6.88,-224.6 5.93,-204.89 18.24,-191.27"/>
<polygon fill="#63b8ff" stroke="#63b8ff" points="20.8,-193.65 25.24,-184.03 15.77,-188.78 20.8,-193.65"/>
</a>
</g>
</g>
<!-- Node5 -->
<g id="Node000005" class="node">
<title>Node5</title>
<g id="a_Node000005"><a xlink:href="_asset_8hpp.html" target="_top" xlink:title=" ">
<polygon fill="white" stroke="#666666" points="151.32,-239 14.32,-239 14.32,-220 151.32,-220 151.32,-239"/>
<text text-anchor="middle" x="82.82" y="-227" font-family="Helvetica,sans-Serif" font-size="10.00">AssetManager/Asset.hpp</text>
</a>
</g>
</g>
<!-- Node3&#45;&gt;Node5 -->
<g id="edge4_Node000003_Node000005" class="edge">
<title>Node3&#45;&gt;Node5</title>
<g id="a_edge4_Node000003_Node000005"><a xlink:title=" ">
<path fill="none" stroke="#63b8ff" d="M196.13,-274.98C174.02,-266.3 139.5,-252.75 114.37,-242.88"/>
<polygon fill="#63b8ff" stroke="#63b8ff" points="115.5,-239.57 104.91,-239.17 112.94,-246.08 115.5,-239.57"/>
</a>
</g>
</g>
<!-- Node5&#45;&gt;Node4 -->
<g id="edge5_Node000005_Node000004" class="edge">
<title>Node5&#45;&gt;Node4</title>
<g id="a_edge5_Node000005_Node000004"><a xlink:title=" ">
<path fill="none" stroke="#63b8ff" d="M74.9,-219.75C67.98,-212.11 57.76,-200.82 49.37,-191.56"/>
<polygon fill="#63b8ff" stroke="#63b8ff" points="51.91,-189.15 42.6,-184.09 46.72,-193.85 51.91,-189.15"/>
</a>
</g>
</g>
<!-- Node7 -->
<g id="Node000007" class="node">
<title>Node7</title>
<g id="a_Node000007"><a xlink:title=" ">
<polygon fill="#e0e0e0" stroke="#999999" points="1343.82,-239 1299.82,-239 1299.82,-220 1343.82,-220 1343.82,-239"/>
<text text-anchor="middle" x="1321.82" y="-227" font-family="Helvetica,sans-Serif" font-size="10.00">string</text>
</a>
</g>
</g>
<!-- Node6&#45;&gt;Node7 -->
<g id="edge7_Node000006_Node000007" class="edge">
<title>Node6&#45;&gt;Node7</title>
<g id="a_edge7_Node000006_Node000007"><a xlink:title=" ">
<path fill="none" stroke="#63b8ff" d="M812.6,-275.69C964.12,-264.27 1233.34,-243.92 1289.63,-238.31"/>
<polygon fill="#63b8ff" stroke="#63b8ff" points="1290.06,-241.79 1299.59,-237.14 1289.25,-234.84 1290.06,-241.79"/>
</a>
</g>
</g>
<!-- Node8 -->
<g id="Node000008" class="node">
<title>Node8</title>
<g id="a_Node000008"><a xlink:title=" ">
<polygon fill="#e0e0e0" stroke="#999999" points="1421.82,-239 1361.82,-239 1361.82,-220 1421.82,-220 1421.82,-239"/>
<text text-anchor="middle" x="1391.82" y="-227" font-family="Helvetica,sans-Serif" font-size="10.00">iostream</text>
</a>
</g>
</g>
<!-- Node6&#45;&gt;Node8 -->
<g id="edge8_Node000006_Node000008" class="edge">
<title>Node6&#45;&gt;Node8</title>
<g id="a_edge8_Node000006_Node000008"><a xlink:title=" ">
<path fill="none" stroke="#63b8ff" d="M812.58,-275.67C815.69,-275.44 818.78,-275.22 821.82,-275 1054.42,-258.37 1116.87,-271.88 1351.45,-238.98"/>
<polygon fill="#63b8ff" stroke="#63b8ff" points="1352.26,-242.4 1361.67,-237.53 1351.28,-235.47 1352.26,-242.4"/>
</a>
</g>
</g>
<!-- Node9 -->
<g id="Node000009" class="node">
<title>Node9</title>
<g id="a_Node000009"><a xlink:title=" ">
<polygon fill="#e0e0e0" stroke="#999999" points="462.82,-184 384.82,-184 384.82,-165 462.82,-165 462.82,-184"/>
<text text-anchor="middle" x="423.82" y="-172" font-family="Helvetica,sans-Serif" font-size="10.00">glm/glm.hpp</text>
</a>
</g>
</g>
<!-- Node6&#45;&gt;Node9 -->
<g id="edge9_Node000006_Node000009" class="edge">
<title>Node6&#45;&gt;Node9</title>
<g id="a_edge9_Node000006_Node000009"><a xlink:title=" ">
<path fill="none" stroke="#63b8ff" d="M605.16,-281.79C464,-278.38 225.68,-268.3 198.82,-239 147.18,-182.66 293.24,-174.85 374.1,-174.65"/>
<polygon fill="#63b8ff" stroke="#63b8ff" points="374.57,-178.15 384.57,-174.67 374.58,-171.15 374.57,-178.15"/>
</a>
</g>
</g>
<!-- Node10 -->
<g id="Node000010" class="node">
<title>Node10</title>
<g id="a_Node000010"><a xlink:title=" ">
<polygon fill="#e0e0e0" stroke="#999999" points="337.82,-239 207.82,-239 207.82,-220 337.82,-220 337.82,-239"/>
<text text-anchor="middle" x="272.82" y="-227" font-family="Helvetica,sans-Serif" font-size="10.00">glm/gtc/quaternion.hpp</text>
</a>
</g>
</g>
<!-- Node6&#45;&gt;Node10 -->
<g id="edge10_Node000006_Node000010" class="edge">
<title>Node6&#45;&gt;Node10</title>
<g id="a_edge10_Node000006_Node000010"><a xlink:title=" ">
<path fill="none" stroke="#63b8ff" d="M638.77,-274.98C559.25,-265.32 429.99,-249.6 348.28,-239.67"/>
<polygon fill="#63b8ff" stroke="#63b8ff" points="348.42,-236.16 338.07,-238.43 347.57,-243.11 348.42,-236.16"/>
</a>
</g>
</g>
<!-- Node11 -->
<g id="Node000011" class="node">
<title>Node11</title>
<g id="a_Node000011"><a xlink:title=" ">
<polygon fill="#e0e0e0" stroke="#999999" points="519.32,-239 356.32,-239 356.32,-220 519.32,-220 519.32,-239"/>
<text text-anchor="middle" x="437.82" y="-227" font-family="Helvetica,sans-Serif" font-size="10.00">glm/gtc/matrix_transform.hpp</text>
</a>
</g>
</g>
<!-- Node6&#45;&gt;Node11 -->
<g id="edge11_Node000006_Node000011" class="edge">
<title>Node6&#45;&gt;Node11</title>
<g id="a_edge11_Node000006_Node000011"><a xlink:title=" ">
<path fill="none" stroke="#63b8ff" d="M665.28,-274.98C618.01,-265.74 542.47,-250.97 491.55,-241.01"/>
<polygon fill="#63b8ff" stroke="#63b8ff" points="492.19,-237.57 481.71,-239.08 490.85,-244.44 492.19,-237.57"/>
</a>
</g>
</g>
<!-- Node12 -->
<g id="Node000012" class="node">
<title>Node12</title>
<g id="a_Node000012"><a xlink:title=" ">
<polygon fill="#e0e0e0" stroke="#999999" points="709.82,-239 537.82,-239 537.82,-220 709.82,-220 709.82,-239"/>
<text text-anchor="middle" x="623.82" y="-227" font-family="Helvetica,sans-Serif" font-size="10.00">glm/gtx/matrix_decompose.hpp</text>
</a>
</g>
</g>
<!-- Node6&#45;&gt;Node12 -->
<g id="edge12_Node000006_Node000012" class="edge">
<title>Node6&#45;&gt;Node12</title>
<g id="a_edge12_Node000006_Node000012"><a xlink:title=" ">
<path fill="none" stroke="#63b8ff" d="M695.17,-274.98C681.99,-266.77 661.8,-254.18 646.25,-244.49"/>
<polygon fill="#63b8ff" stroke="#63b8ff" points="648.07,-241.49 637.73,-239.17 644.36,-247.43 648.07,-241.49"/>
</a>
</g>
</g>
<!-- Node13 -->
<g id="Node000013" class="node">
<title>Node13</title>
<g id="a_Node000013"><a xlink:title=" ">
<polygon fill="#e0e0e0" stroke="#999999" points="859.32,-239 728.32,-239 728.32,-220 859.32,-220 859.32,-239"/>
<text text-anchor="middle" x="793.82" y="-227" font-family="Helvetica,sans-Serif" font-size="10.00">glm/gtx/string_cast.hpp</text>
</a>
</g>
</g>
<!-- Node6&#45;&gt;Node13 -->
<g id="edge13_Node000006_Node000013" class="edge">
<title>Node6&#45;&gt;Node13</title>
<g id="a_edge13_Node000006_Node000013"><a xlink:title=" ">
<path fill="none" stroke="#63b8ff" d="M722.48,-274.98C735.66,-266.77 755.85,-254.18 771.39,-244.49"/>
<polygon fill="#63b8ff" stroke="#63b8ff" points="773.28,-247.43 779.92,-239.17 769.58,-241.49 773.28,-247.43"/>
</a>
</g>
</g>
<!-- Node14 -->
<g id="Node000014" class="node">
<title>Node14</title>
<g id="a_Node000014"><a xlink:href="_math_2_utils_8hpp.html" target="_top" xlink:title=" ">
<polygon fill="white" stroke="#666666" points="965.82,-239 877.82,-239 877.82,-220 965.82,-220 965.82,-239"/>
<text text-anchor="middle" x="921.82" y="-227" font-family="Helvetica,sans-Serif" font-size="10.00">Math/Utils.hpp</text>
</a>
</g>
</g>
<!-- Node6&#45;&gt;Node14 -->
<g id="edge14_Node000006_Node000014" class="edge">
<title>Node6&#45;&gt;Node14</title>
<g id="a_edge14_Node000006_Node000014"><a xlink:title=" ">
<path fill="none" stroke="#63b8ff" d="M743.05,-274.98C779.58,-265.89 837.6,-251.46 877.58,-241.51"/>
<polygon fill="#63b8ff" stroke="#63b8ff" points="878.47,-244.89 887.33,-239.08 876.78,-238.1 878.47,-244.89"/>
</a>
</g>
</g>
<!-- Node15 -->
<g id="Node000015" class="node">
<title>Node15</title>
<g id="a_Node000015"><a xlink:href="_registry_8hpp.html" target="_top" xlink:title=" ">
<polygon fill="white" stroke="#666666" points="1081.82,-239 983.82,-239 983.82,-220 1081.82,-220 1081.82,-239"/>
<text text-anchor="middle" x="1032.82" y="-227" font-family="Helvetica,sans-Serif" font-size="10.00">ECS/Registry.hpp</text>
</a>
</g>
</g>
<!-- Node6&#45;&gt;Node15 -->
<g id="edge16_Node000006_Node000015" class="edge">
<title>Node6&#45;&gt;Node15</title>
<g id="a_edge16_Node000006_Node000015"><a xlink:title=" ">
<path fill="none" stroke="#63b8ff" d="M760.88,-274.98C818.96,-265.48 912.76,-250.14 973.6,-240.19"/>
<polygon fill="#63b8ff" stroke="#63b8ff" points="974.51,-243.59 983.81,-238.52 973.38,-236.68 974.51,-243.59"/>
</a>
</g>
</g>
<!-- Node25 -->
<g id="Node000025" class="node">
<title>Node25</title>
<g id="a_Node000025"><a xlink:href="_base_component_8hpp.html" target="_top" xlink:title=" ">
<polygon fill="white" stroke="#666666" points="1281.82,-239 1099.82,-239 1099.82,-220 1281.82,-220 1281.82,-239"/>
<text text-anchor="middle" x="1190.82" y="-227" font-family="Helvetica,sans-Serif" font-size="10.00">Components/BaseComponent.hpp</text>
</a>
</g>
</g>
<!-- Node6&#45;&gt;Node25 -->
<g id="edge31_Node000006_Node000025" class="edge">
<title>Node6&#45;&gt;Node25</title>
<g id="a_edge31_Node000006_Node000025"><a xlink:title=" ">
<path fill="none" stroke="#63b8ff" d="M786.26,-274.98C872.83,-265.47 1012.71,-250.08 1103.21,-240.13"/>
<polygon fill="#63b8ff" stroke="#63b8ff" points="1103.62,-243.61 1113.17,-239.04 1102.85,-236.65 1103.62,-243.61"/>
</a>
</g>
</g>
<!-- Node14&#45;&gt;Node9 -->
<g id="edge15_Node000014_Node000009" class="edge">
<title>Node14&#45;&gt;Node9</title>
<g id="a_edge15_Node000014_Node000009"><a xlink:title=" ">
<path fill="none" stroke="#63b8ff" d="M877.61,-221.21C874.64,-220.78 871.69,-220.37 868.82,-220 725.4,-201.34 555.08,-186.28 472.95,-179.45"/>
<polygon fill="#63b8ff" stroke="#63b8ff" points="473.16,-175.96 462.9,-178.62 472.58,-182.93 473.16,-175.96"/>
</a>
</g>
</g>
<!-- Node16 -->
<g id="Node000016" class="node">
<title>Node16</title>
<g id="a_Node000016"><a xlink:title=" ">
<polygon fill="#e0e0e0" stroke="#999999" points="904.82,-129 818.82,-129 818.82,-110 904.82,-110 904.82,-129"/>
<text text-anchor="middle" x="861.82" y="-117" font-family="Helvetica,sans-Serif" font-size="10.00">unordered_set</text>
</a>
</g>
</g>
<!-- Node15&#45;&gt;Node16 -->
<g id="edge17_Node000015_Node000016" class="edge">
<title>Node15&#45;&gt;Node16</title>
<g id="a_edge17_Node000015_Node000016"><a xlink:title=" ">
<path fill="none" stroke="#63b8ff" d="M990.78,-219.97C965.27,-213.28 933.06,-202.01 908.82,-184 892.37,-171.77 879.1,-152.17 870.91,-137.98"/>
<polygon fill="#63b8ff" stroke="#63b8ff" points="873.96,-136.25 866.08,-129.17 867.82,-139.62 873.96,-136.25"/>
</a>
</g>
</g>
<!-- Node17 -->
<g id="Node000017" class="node">
<title>Node17</title>
<g id="a_Node000017"><a xlink:href="_entity_8hpp.html" target="_top" xlink:title=" ">
<polygon fill="white" stroke="#666666" points="1050.82,-74 964.82,-74 964.82,-55 1050.82,-55 1050.82,-74"/>
<text text-anchor="middle" x="1007.82" y="-62" font-family="Helvetica,sans-Serif" font-size="10.00">ECS/Entity.hpp</text>
</a>
</g>
</g>
<!-- Node15&#45;&gt;Node17 -->
<g id="edge18_Node000015_Node000017" class="edge">
<title>Node15&#45;&gt;Node17</title>
<g id="a_edge18_Node000015_Node000017"><a xlink:title=" ">
<path fill="none" stroke="#63b8ff" d="M991.83,-219.97C961.56,-212.75 919.87,-200.88 885.82,-184 848.47,-165.48 828.79,-166.13 809.82,-129 805.98,-121.48 804.55,-116.59 809.82,-110 827.62,-87.76 901.95,-75.86 954.28,-70.11"/>
<polygon fill="#63b8ff" stroke="#63b8ff" points="954.85,-73.57 964.43,-69.04 954.12,-66.61 954.85,-73.57"/>
</a>
</g>
</g>
<!-- Node19 -->
<g id="Node000019" class="node">
<title>Node19</title>
<g id="a_Node000019"><a xlink:href="_entity_hierarchy_8hpp.html" target="_top" xlink:title=" ">
<polygon fill="white" stroke="#666666" points="1051.82,-184 917.82,-184 917.82,-165 1051.82,-165 1051.82,-184"/>
<text text-anchor="middle" x="984.82" y="-172" font-family="Helvetica,sans-Serif" font-size="10.00">ECS/EntityHierarchy.hpp</text>
</a>
</g>
</g>
<!-- Node15&#45;&gt;Node19 -->
<g id="edge20_Node000015_Node000019" class="edge">
<title>Node15&#45;&gt;Node19</title>
<g id="a_edge20_Node000015_Node000019"><a xlink:title=" ">
<path fill="none" stroke="#63b8ff" d="M1024.9,-219.75C1017.98,-212.11 1007.76,-200.82 999.37,-191.56"/>
<polygon fill="#63b8ff" stroke="#63b8ff" points="1001.91,-189.15 992.6,-184.09 996.72,-193.85 1001.91,-189.15"/>
</a>
</g>
</g>
<!-- Node22 -->
<g id="Node000022" class="node">
<title>Node22</title>
<g id="a_Node000022"><a xlink:href="_entity_provider_8hpp.html" target="_top" xlink:title="Manages a pool of unused entity identifiers and provides mechanisms for requesting and removing them.">
<polygon fill="white" stroke="#666666" points="1283.82,-129 1155.82,-129 1155.82,-110 1283.82,-110 1283.82,-129"/>
<text text-anchor="middle" x="1219.82" y="-117" font-family="Helvetica,sans-Serif" font-size="10.00">ECS/EntityProvider.hpp</text>
</a>
</g>
</g>
<!-- Node15&#45;&gt;Node22 -->
<g id="edge25_Node000015_Node000022" class="edge">
<title>Node15&#45;&gt;Node22</title>
<g id="a_edge25_Node000015_Node000022"><a xlink:title=" ">
<path fill="none" stroke="#63b8ff" d="M1039.66,-219.94C1050.78,-206.54 1074.02,-180.52 1098.82,-165 1122.48,-150.19 1151.8,-139.25 1175.65,-131.93"/>
<polygon fill="#63b8ff" stroke="#63b8ff" points="1176.91,-135.2 1185.5,-129.01 1174.92,-128.49 1176.91,-135.2"/>
</a>
</g>
</g>
<!-- Node24 -->
<g id="Node000024" class="node">
<title>Node24</title>
<g id="a_Node000024"><a xlink:href="_sparse_set_8hpp.html" target="_top" xlink:title=" ">
<polygon fill="white" stroke="#666666" points="1215.82,-184 1107.82,-184 1107.82,-165 1215.82,-165 1215.82,-184"/>
<text text-anchor="middle" x="1161.82" y="-172" font-family="Helvetica,sans-Serif" font-size="10.00">ECS/SparseSet.hpp</text>
</a>
</g>
</g>
<!-- Node15&#45;&gt;Node24 -->
<g id="edge29_Node000015_Node000024" class="edge">
<title>Node15&#45;&gt;Node24</title>
<g id="a_edge29_Node000015_Node000024"><a xlink:title=" ">
<path fill="none" stroke="#63b8ff" d="M1053.55,-219.98C1074.58,-211.34 1107.37,-197.87 1131.36,-188.02"/>
<polygon fill="#63b8ff" stroke="#63b8ff" points="1132.8,-191.21 1140.72,-184.17 1130.14,-184.73 1132.8,-191.21"/>
</a>
</g>
</g>
<!-- Node18 -->
<g id="Node000018" class="node">
<title>Node18</title>
<g id="a_Node000018"><a xlink:title=" ">
<polygon fill="#e0e0e0" stroke="#999999" points="1102.32,-19 1049.32,-19 1049.32,0 1102.32,0 1102.32,-19"/>
<text text-anchor="middle" x="1075.82" y="-7" font-family="Helvetica,sans-Serif" font-size="10.00">stdlib.h</text>
</a>
</g>
</g>
<!-- Node17&#45;&gt;Node18 -->
<g id="edge19_Node000017_Node000018" class="edge">
<title>Node17&#45;&gt;Node18</title>
<g id="a_edge19_Node000017_Node000018"><a xlink:title=" ">
<path fill="none" stroke="#63b8ff" d="M1018.75,-54.98C1028.9,-47.07 1044.25,-35.11 1056.47,-25.58"/>
<polygon fill="#63b8ff" stroke="#63b8ff" points="1058.96,-28.08 1064.7,-19.17 1054.66,-22.56 1058.96,-28.08"/>
</a>
</g>
</g>
<!-- Node19&#45;&gt;Node16 -->
<g id="edge22_Node000019_Node000016" class="edge">
<title>Node19&#45;&gt;Node16</title>
<g id="a_edge22_Node000019_Node000016"><a xlink:title=" ">
<path fill="none" stroke="#63b8ff" d="M965.06,-164.98C945.1,-156.38 914.02,-142.99 891.17,-133.15"/>
<polygon fill="#63b8ff" stroke="#63b8ff" points="892.51,-129.91 881.94,-129.17 889.74,-136.34 892.51,-129.91"/>
</a>
</g>
</g>
<!-- Node19&#45;&gt;Node17 -->
<g id="edge24_Node000019_Node000017" class="edge">
<title>Node19&#45;&gt;Node17</title>
<g id="a_edge24_Node000019_Node000017"><a xlink:title=" ">
<path fill="none" stroke="#63b8ff" d="M975.09,-164.93C962.53,-152.78 943.36,-129.83 952.82,-110 958.92,-97.23 970.67,-86.94 981.74,-79.49"/>
<polygon fill="#63b8ff" stroke="#63b8ff" points="983.72,-82.38 990.36,-74.12 980.02,-76.43 983.72,-82.38"/>
</a>
</g>
</g>
<!-- Node20 -->
<g id="Node000020" class="node">
<title>Node20</title>
<g id="a_Node000020"><a xlink:title=" ">
<polygon fill="#e0e0e0" stroke="#999999" points="1026.32,-129 961.32,-129 961.32,-110 1026.32,-110 1026.32,-129"/>
<text text-anchor="middle" x="993.82" y="-117" font-family="Helvetica,sans-Serif" font-size="10.00">functional</text>
</a>
</g>
</g>
<!-- Node19&#45;&gt;Node20 -->
<g id="edge21_Node000019_Node000020" class="edge">
<title>Node19&#45;&gt;Node20</title>
<g id="a_edge21_Node000019_Node000020"><a xlink:title=" ">
<path fill="none" stroke="#63b8ff" d="M986.31,-164.75C987.49,-157.8 989.18,-147.85 990.66,-139.13"/>
<polygon fill="#63b8ff" stroke="#63b8ff" points="994.14,-139.53 992.36,-129.09 987.24,-138.36 994.14,-139.53"/>
</a>
</g>
</g>
<!-- Node21 -->
<g id="Node000021" class="node">
<title>Node21</title>
<g id="a_Node000021"><a xlink:title=" ">
<polygon fill="#e0e0e0" stroke="#999999" points="1137.32,-129 1044.32,-129 1044.32,-110 1137.32,-110 1137.32,-129"/>
<text text-anchor="middle" x="1090.82" y="-117" font-family="Helvetica,sans-Serif" font-size="10.00">unordered_map</text>
</a>
</g>
</g>
<!-- Node19&#45;&gt;Node21 -->
<g id="edge23_Node000019_Node000021" class="edge">
<title>Node19&#45;&gt;Node21</title>
<g id="a_edge23_Node000019_Node000021"><a xlink:title=" ">
<path fill="none" stroke="#63b8ff" d="M1001.85,-164.98C1018.75,-156.54 1044.89,-143.47 1064.47,-133.68"/>
<polygon fill="#63b8ff" stroke="#63b8ff" points="1066.1,-136.77 1073.48,-129.17 1062.97,-130.51 1066.1,-136.77"/>
</a>
</g>
</g>
<!-- Node22&#45;&gt;Node17 -->
<g id="edge28_Node000022_Node000017" class="edge">
<title>Node22&#45;&gt;Node17</title>
<g id="a_edge28_Node000022_Node000017"><a xlink:title=" ">
<path fill="none" stroke="#63b8ff" d="M1185.76,-109.98C1149.4,-100.89 1091.65,-86.46 1051.86,-76.51"/>
<polygon fill="#63b8ff" stroke="#63b8ff" points="1052.7,-73.11 1042.15,-74.08 1051,-79.9 1052.7,-73.11"/>
</a>
</g>
</g>
<!-- Node22&#45;&gt;Node18 -->
<g id="edge26_Node000022_Node000018" class="edge">
<title>Node22&#45;&gt;Node18</title>
<g id="a_edge26_Node000022_Node000018"><a xlink:title=" ">
<path fill="none" stroke="#63b8ff" d="M1219.62,-109.9C1218.84,-96.44 1215.41,-70.35 1200.82,-55 1177.75,-30.71 1140.56,-19.66 1112.73,-14.64"/>
<polygon fill="#63b8ff" stroke="#63b8ff" points="1113,-11.14 1102.57,-13 1111.88,-18.05 1113,-11.14"/>
</a>
</g>
</g>
<!-- Node23 -->
<g id="Node000023" class="node">
<title>Node23</title>
<g id="a_Node000023"><a xlink:title=" ">
<polygon fill="#e0e0e0" stroke="#999999" points="1191.32,-74 1144.32,-74 1144.32,-55 1191.32,-55 1191.32,-74"/>
<text text-anchor="middle" x="1167.82" y="-62" font-family="Helvetica,sans-Serif" font-size="10.00">queue</text>
</a>
</g>
</g>
<!-- Node22&#45;&gt;Node23 -->
<g id="edge27_Node000022_Node000023" class="edge">
<title>Node22&#45;&gt;Node23</title>
<g id="a_edge27_Node000022_Node000023"><a xlink:title=" ">
<path fill="none" stroke="#63b8ff" d="M1211.24,-109.75C1203.66,-102.03 1192.45,-90.6 1183.31,-81.28"/>
<polygon fill="#63b8ff" stroke="#63b8ff" points="1185.75,-78.78 1176.25,-74.09 1180.76,-83.68 1185.75,-78.78"/>
</a>
</g>
</g>
<!-- Node24&#45;&gt;Node22 -->
<g id="edge30_Node000024_Node000022" class="edge">
<title>Node24&#45;&gt;Node22</title>
<g id="a_edge30_Node000024_Node000022"><a xlink:title=" ">
<path fill="none" stroke="#63b8ff" d="M1171.14,-164.98C1179.63,-157.23 1192.38,-145.58 1202.71,-136.14"/>
<polygon fill="#63b8ff" stroke="#63b8ff" points="1205.31,-138.5 1210.34,-129.17 1200.59,-133.33 1205.31,-138.5"/>
</a>
</g>
</g>
<!-- Node26 -->
<g id="Node000026" class="node">
<title>Node26</title>
<g id="a_Node000026"><a xlink:href="_types_8hpp.html" target="_top" xlink:title=" ">
<polygon fill="white" stroke="#666666" points="1347.32,-184 1234.32,-184 1234.32,-165 1347.32,-165 1347.32,-184"/>
<text text-anchor="middle" x="1290.82" y="-172" font-family="Helvetica,sans-Serif" font-size="10.00">Common/Types.hpp</text>
</a>
</g>
</g>
<!-- Node25&#45;&gt;Node26 -->
<g id="edge32_Node000025_Node000026" class="edge">
<title>Node25&#45;&gt;Node26</title>
<g id="a_edge32_Node000025_Node000026"><a xlink:title=" ">
<path fill="none" stroke="#63b8ff" d="M1206.89,-219.98C1222.69,-211.61 1247.04,-198.7 1265.45,-188.95"/>
<polygon fill="#63b8ff" stroke="#63b8ff" points="1267.27,-191.95 1274.46,-184.17 1263.99,-185.76 1267.27,-191.95"/>
</a>
</g>
</g>
</g>
</svg>
