<?xml version="1.0" encoding="UTF-8" standalone="no"?>
<!DOCTYPE svg PUBLIC "-//W3C//DTD SVG 1.1//EN"
 "http://www.w3.org/Graphics/SVG/1.1/DTD/svg11.dtd">
<!-- Generated by graphviz version 2.43.0 (0)
 -->
<!-- Title: src/Common/Types.hpp Pages: 1 -->
<svg width="2853pt" height="464pt"
 viewBox="0.00 0.00 2852.50 464.00" xmlns="http://www.w3.org/2000/svg" xmlns:xlink="http://www.w3.org/1999/xlink">
<g id="graph0" class="graph" transform="scale(1 1) rotate(0) translate(4 460)">
<title>src/Common/Types.hpp</title>
<polygon fill="white" stroke="transparent" points="-4,4 -4,-460 2848.5,-460 2848.5,4 -4,4"/>
<!-- Node1 -->
<g id="node1" class="node">
<title>Node1</title>
<g id="a_node1"><a xlink:title=" ">
<polygon fill="#bfbfbf" stroke="black" points="2534.5,-436.5 2534.5,-455.5 2664.5,-455.5 2664.5,-436.5 2534.5,-436.5"/>
<text text-anchor="middle" x="2599.5" y="-443.5" font-family="Helvetica,sans-Serif" font-size="10.00">src/Common/Types.hpp</text>
</a>
</g>
</g>
<!-- Node2 -->
<g id="node2" class="node">
<title>Node2</title>
<g id="a_node2"><a xlink:href="_base_component_8hpp.html" target="_top" xlink:title=" ">
<polygon fill="white" stroke="black" points="1038.5,-380.5 1038.5,-399.5 1238.5,-399.5 1238.5,-380.5 1038.5,-380.5"/>
<text text-anchor="middle" x="1138.5" y="-387.5" font-family="Helvetica,sans-Serif" font-size="10.00">src/Components/BaseComponent.hpp</text>
</a>
</g>
</g>
<!-- Node1&#45;&gt;Node2 -->
<g id="edge1" class="edge">
<title>Node1&#45;&gt;Node2</title>
<path fill="none" stroke="midnightblue" d="M2524.2,-442.22C2280.72,-433.22 1514.57,-404.9 1238.72,-394.7"/>
<polygon fill="midnightblue" stroke="midnightblue" points="2524.24,-445.72 2534.36,-442.59 2524.5,-438.73 2524.24,-445.72"/>
</g>
<!-- Node4 -->
<g id="node4" class="node">
<title>Node4</title>
<g id="a_node4"><a xlink:href="main_8cpp.html" target="_top" xlink:title=" ">
<polygon fill="white" stroke="black" points="1430,-118 1430,-137 1509,-137 1509,-118 1430,-118"/>
<text text-anchor="middle" x="1469.5" y="-125" font-family="Helvetica,sans-Serif" font-size="10.00">src/main.cpp</text>
</a>
</g>
</g>
<!-- Node1&#45;&gt;Node4 -->
<g id="edge63" class="edge">
<title>Node1&#45;&gt;Node4</title>
<path fill="none" stroke="midnightblue" d="M2573.75,-431.57C2542.38,-413.13 2493.5,-376.81 2493.5,-329.5 2493.5,-329.5 2493.5,-329.5 2493.5,-260.5 2493.5,-219.55 2485.02,-201.04 2450.5,-179 2370.19,-127.71 1682.38,-127.49 1509.04,-128.26"/>
<polygon fill="midnightblue" stroke="midnightblue" points="2572.04,-434.62 2582.47,-436.5 2575.49,-428.53 2572.04,-434.62"/>
</g>
<!-- Node12 -->
<g id="node12" class="node">
<title>Node12</title>
<g id="a_node12"><a xlink:href="_rendering_system_8hpp.html" target="_top" xlink:title=" ">
<polygon fill="white" stroke="black" points="2506.5,-118 2506.5,-137 2692.5,-137 2692.5,-118 2506.5,-118"/>
<text text-anchor="middle" x="2599.5" y="-125" font-family="Helvetica,sans-Serif" font-size="10.00">src/Systems/RenderingSystem.hpp</text>
</a>
</g>
</g>
<!-- Node1&#45;&gt;Node12 -->
<g id="edge65" class="edge">
<title>Node1&#45;&gt;Node12</title>
<path fill="none" stroke="midnightblue" d="M2599.5,-426.29C2599.5,-403.45 2599.5,-363.64 2599.5,-329.5 2599.5,-329.5 2599.5,-329.5 2599.5,-260.5 2599.5,-213.98 2599.5,-158.24 2599.5,-137.15"/>
<polygon fill="midnightblue" stroke="midnightblue" points="2596,-426.31 2599.5,-436.31 2603,-426.31 2596,-426.31"/>
</g>
<!-- Node13 -->
<g id="node13" class="node">
<title>Node13</title>
<g id="a_node13"><a xlink:href="_runtime_8hpp.html" target="_top" xlink:title=" ">
<polygon fill="white" stroke="black" points="2560.5,-56.5 2560.5,-75.5 2700.5,-75.5 2700.5,-56.5 2560.5,-56.5"/>
<text text-anchor="middle" x="2630.5" y="-63.5" font-family="Helvetica,sans-Serif" font-size="10.00">src/Runtime/Runtime.hpp</text>
</a>
</g>
</g>
<!-- Node1&#45;&gt;Node13 -->
<g id="edge64" class="edge">
<title>Node1&#45;&gt;Node13</title>
<path fill="none" stroke="midnightblue" d="M2629.67,-432.16C2665.51,-414.65 2720.5,-379.62 2720.5,-329.5 2720.5,-329.5 2720.5,-329.5 2720.5,-193.5 2720.5,-156.31 2723.03,-142.33 2701.5,-112 2689.42,-94.98 2668.68,-82.94 2652.73,-75.62"/>
<polygon fill="midnightblue" stroke="midnightblue" points="2628.14,-429.02 2620.58,-436.44 2631.12,-435.35 2628.14,-429.02"/>
</g>
<!-- Node15 -->
<g id="node15" class="node">
<title>Node15</title>
<g id="a_node15"><a xlink:href="_scene_widget_8hpp.html" target="_top" xlink:title="Contains the declaration of the SceneWidget class, a user interface widget for rendering scenes.">
<polygon fill="white" stroke="black" points="2672.5,-0.5 2672.5,-19.5 2844.5,-19.5 2844.5,-0.5 2672.5,-0.5"/>
<text text-anchor="middle" x="2758.5" y="-7.5" font-family="Helvetica,sans-Serif" font-size="10.00">src/ui/widgets/SceneWidget.hpp</text>
</a>
</g>
</g>
<!-- Node1&#45;&gt;Node15 -->
<g id="edge66" class="edge">
<title>Node1&#45;&gt;Node15</title>
<path fill="none" stroke="midnightblue" d="M2644.09,-433.39C2691.12,-418.13 2758.5,-386.36 2758.5,-329.5 2758.5,-329.5 2758.5,-329.5 2758.5,-126.5 2758.5,-86.6 2758.5,-38.94 2758.5,-19.69"/>
<polygon fill="midnightblue" stroke="midnightblue" points="2642.91,-430.09 2634.39,-436.4 2644.98,-436.78 2642.91,-430.09"/>
</g>
<!-- Node3 -->
<g id="node3" class="node">
<title>Node3</title>
<g id="a_node3"><a xlink:href="_ambient_light_component_8hpp.html" target="_top" xlink:title=" ">
<polygon fill="white" stroke="black" points="426.5,-179.5 426.5,-209.5 590.5,-209.5 590.5,-179.5 426.5,-179.5"/>
<text text-anchor="start" x="434.5" y="-197.5" font-family="Helvetica,sans-Serif" font-size="10.00">src/Components/AmbientLight</text>
<text text-anchor="middle" x="508.5" y="-186.5" font-family="Helvetica,sans-Serif" font-size="10.00">Component.hpp</text>
</a>
</g>
</g>
<!-- Node2&#45;&gt;Node3 -->
<g id="edge2" class="edge">
<title>Node2&#45;&gt;Node3</title>
<path fill="none" stroke="midnightblue" d="M1094.41,-378.02C1059.99,-369.28 1011.03,-356.48 968.5,-344 812.69,-298.26 629.61,-236.83 549.51,-209.55"/>
<polygon fill="midnightblue" stroke="midnightblue" points="1093.61,-381.43 1104.16,-380.48 1095.32,-374.64 1093.61,-381.43"/>
</g>
<!-- Node7 -->
<g id="node7" class="node">
<title>Node7</title>
<g id="a_node7"><a xlink:href="_box_collider_component_8hpp.html" target="_top" xlink:title=" ">
<polygon fill="white" stroke="black" points="1283,-246.5 1283,-276.5 1438,-276.5 1438,-246.5 1283,-246.5"/>
<text text-anchor="start" x="1291" y="-264.5" font-family="Helvetica,sans-Serif" font-size="10.00">src/Components/BoxCollider</text>
<text text-anchor="middle" x="1360.5" y="-253.5" font-family="Helvetica,sans-Serif" font-size="10.00">Component.hpp</text>
</a>
</g>
</g>
<!-- Node2&#45;&gt;Node7 -->
<g id="edge6" class="edge">
<title>Node2&#45;&gt;Node7</title>
<path fill="none" stroke="midnightblue" d="M1162.57,-375.29C1204.98,-351.12 1292.62,-301.18 1335.61,-276.68"/>
<polygon fill="midnightblue" stroke="midnightblue" points="1160.71,-372.31 1153.76,-380.31 1164.18,-378.4 1160.71,-372.31"/>
</g>
<!-- Node11 -->
<g id="node11" class="node">
<title>Node11</title>
<g id="a_node11"><a xlink:href="_directional_light_component_8hpp.html" target="_top" xlink:title=" ">
<polygon fill="white" stroke="black" points="2289.5,-179.5 2289.5,-209.5 2441.5,-209.5 2441.5,-179.5 2289.5,-179.5"/>
<text text-anchor="start" x="2297.5" y="-197.5" font-family="Helvetica,sans-Serif" font-size="10.00">src/Components/Directional</text>
<text text-anchor="middle" x="2365.5" y="-186.5" font-family="Helvetica,sans-Serif" font-size="10.00">LightComponent.hpp</text>
</a>
</g>
</g>
<!-- Node2&#45;&gt;Node11 -->
<g id="edge11" class="edge">
<title>Node2&#45;&gt;Node11</title>
<path fill="none" stroke="midnightblue" d="M1248.93,-387.98C1545.45,-384.07 2341.71,-365.36 2416.5,-277 2434.83,-255.34 2406.33,-226.51 2385.11,-209.58"/>
<polygon fill="midnightblue" stroke="midnightblue" points="1248.55,-384.49 1238.6,-388.12 1248.64,-391.49 1248.55,-384.49"/>
</g>
<!-- Node17 -->
<g id="node17" class="node">
<title>Node17</title>
<g id="a_node17"><a xlink:href="_model_component_8hpp.html" target="_top" xlink:title=" ">
<polygon fill="white" stroke="black" points="905.5,-252 905.5,-271 1111.5,-271 1111.5,-252 905.5,-252"/>
<text text-anchor="middle" x="1008.5" y="-259" font-family="Helvetica,sans-Serif" font-size="10.00">src/Components/ModelComponent.hpp</text>
</a>
</g>
</g>
<!-- Node2&#45;&gt;Node17 -->
<g id="edge21" class="edge">
<title>Node2&#45;&gt;Node17</title>
<path fill="none" stroke="midnightblue" d="M1122.24,-373.17C1094.55,-346.24 1039.18,-292.35 1017.5,-271.26"/>
<polygon fill="midnightblue" stroke="midnightblue" points="1119.96,-375.84 1129.56,-380.31 1124.84,-370.82 1119.96,-375.84"/>
</g>
<!-- Node19 -->
<g id="node19" class="node">
<title>Node19</title>
<g id="a_node19"><a xlink:href="_name_component_8hpp.html" target="_top" xlink:title=" ">
<polygon fill="white" stroke="black" points="1512,-252 1512,-271 1717,-271 1717,-252 1512,-252"/>
<text text-anchor="middle" x="1614.5" y="-259" font-family="Helvetica,sans-Serif" font-size="10.00">src/Components/NameComponent.hpp</text>
</a>
</g>
</g>
<!-- Node2&#45;&gt;Node19 -->
<g id="edge27" class="edge">
<title>Node2&#45;&gt;Node19</title>
<path fill="none" stroke="midnightblue" d="M1180.56,-377.82C1274.33,-352.9 1498.84,-293.24 1582.43,-271.02"/>
<polygon fill="midnightblue" stroke="midnightblue" points="1179.61,-374.45 1170.84,-380.4 1181.41,-381.22 1179.61,-374.45"/>
</g>
<!-- Node22 -->
<g id="node22" class="node">
<title>Node22</title>
<g id="a_node22"><a xlink:href="_point_light_component_8hpp.html" target="_top" xlink:title=" ">
<polygon fill="white" stroke="black" points="93,-179.5 93,-209.5 240,-209.5 240,-179.5 93,-179.5"/>
<text text-anchor="start" x="101" y="-197.5" font-family="Helvetica,sans-Serif" font-size="10.00">src/Components/PointLight</text>
<text text-anchor="middle" x="166.5" y="-186.5" font-family="Helvetica,sans-Serif" font-size="10.00">Component.hpp</text>
</a>
</g>
</g>
<!-- Node2&#45;&gt;Node22 -->
<g id="edge33" class="edge">
<title>Node2&#45;&gt;Node22</title>
<path fill="none" stroke="midnightblue" d="M1027.87,-380.97C946.54,-374.02 833.58,-362.18 735.5,-344 537.49,-307.3 306.81,-239 211.36,-209.58"/>
<polygon fill="midnightblue" stroke="midnightblue" points="1027.87,-384.48 1038.13,-381.83 1028.46,-377.51 1027.87,-384.48"/>
</g>
<!-- Node24 -->
<g id="node24" class="node">
<title>Node24</title>
<g id="a_node24"><a xlink:href="_skybox_component_8hpp.html" target="_top" xlink:title=" ">
<polygon fill="white" stroke="black" points="647,-185 647,-204 858,-204 858,-185 647,-185"/>
<text text-anchor="middle" x="752.5" y="-192" font-family="Helvetica,sans-Serif" font-size="10.00">src/Components/SkyboxComponent.hpp</text>
</a>
</g>
</g>
<!-- Node2&#45;&gt;Node24 -->
<g id="edge38" class="edge">
<title>Node2&#45;&gt;Node24</title>
<path fill="none" stroke="midnightblue" d="M1109.13,-376.33C1063.21,-356.33 971.9,-315.7 896.5,-277 848.2,-252.21 792.73,-219.6 767,-204.23"/>
<polygon fill="midnightblue" stroke="midnightblue" points="1107.91,-379.62 1118.47,-380.39 1110.7,-373.2 1107.91,-379.62"/>
</g>
<!-- Node25 -->
<g id="node25" class="node">
<title>Node25</title>
<g id="a_node25"><a xlink:href="_transform_component_8hpp.html" target="_top" xlink:title=" ">
<polygon fill="white" stroke="black" points="1860,-313.5 1860,-343.5 2007,-343.5 2007,-313.5 1860,-313.5"/>
<text text-anchor="start" x="1868" y="-331.5" font-family="Helvetica,sans-Serif" font-size="10.00">src/Components/Transform</text>
<text text-anchor="middle" x="1933.5" y="-320.5" font-family="Helvetica,sans-Serif" font-size="10.00">Component.hpp</text>
</a>
</g>
</g>
<!-- Node2&#45;&gt;Node25 -->
<g id="edge42" class="edge">
<title>Node2&#45;&gt;Node25</title>
<path fill="none" stroke="midnightblue" d="M1248.95,-380.73C1413.73,-368.4 1719.54,-345.51 1859.77,-335.02"/>
<polygon fill="midnightblue" stroke="midnightblue" points="1248.5,-377.26 1238.78,-381.49 1249.02,-384.24 1248.5,-377.26"/>
</g>
<!-- Node29 -->
<g id="node29" class="node">
<title>Node29</title>
<g id="a_node29"><a xlink:href="_wireframe_component_8hpp.html" target="_top" xlink:title=" ">
<polygon fill="white" stroke="black" points="258.5,-179.5 258.5,-209.5 408.5,-209.5 408.5,-179.5 258.5,-179.5"/>
<text text-anchor="start" x="266.5" y="-197.5" font-family="Helvetica,sans-Serif" font-size="10.00">src/Components/Wireframe</text>
<text text-anchor="middle" x="333.5" y="-186.5" font-family="Helvetica,sans-Serif" font-size="10.00">Component.hpp</text>
</a>
</g>
</g>
<!-- Node2&#45;&gt;Node29 -->
<g id="edge58" class="edge">
<title>Node2&#45;&gt;Node29</title>
<path fill="none" stroke="midnightblue" d="M1064.65,-379.05C1009.48,-371.08 932.39,-358.8 865.5,-344 682.23,-303.44 468.18,-238.08 377.58,-209.57"/>
<polygon fill="midnightblue" stroke="midnightblue" points="1064.29,-382.53 1074.69,-380.49 1065.29,-375.6 1064.29,-382.53"/>
</g>
<!-- Node3&#45;&gt;Node4 -->
<g id="edge3" class="edge">
<title>Node3&#45;&gt;Node4</title>
<path fill="none" stroke="midnightblue" d="M600.94,-182.53C613.22,-181.24 625.66,-180.02 637.5,-179 794.47,-165.42 1286.36,-138.41 1429.84,-130.64"/>
<polygon fill="midnightblue" stroke="midnightblue" points="600.24,-179.08 590.67,-183.62 600.99,-186.04 600.24,-179.08"/>
</g>
<!-- Node5 -->
<g id="node5" class="node">
<title>Node5</title>
<g id="a_node5"><a xlink:href="_rendering_system_8cpp.html" target="_top" xlink:title=" ">
<polygon fill="white" stroke="black" points="1308,-56.5 1308,-75.5 1493,-75.5 1493,-56.5 1308,-56.5"/>
<text text-anchor="middle" x="1400.5" y="-63.5" font-family="Helvetica,sans-Serif" font-size="10.00">src/Systems/RenderingSystem.cpp</text>
</a>
</g>
</g>
<!-- Node3&#45;&gt;Node5 -->
<g id="edge4" class="edge">
<title>Node3&#45;&gt;Node5</title>
<path fill="none" stroke="midnightblue" d="M542.28,-174.35C558.05,-165.18 576.94,-153.86 593.5,-143 613.2,-130.08 614.3,-119.9 636.5,-112 698.19,-90.06 1117.87,-75.22 1307.65,-69.56"/>
<polygon fill="midnightblue" stroke="midnightblue" points="540.31,-171.45 533.4,-179.48 543.81,-177.51 540.31,-171.45"/>
</g>
<!-- Node6 -->
<g id="node6" class="node">
<title>Node6</title>
<g id="a_node6"><a xlink:href="_ambient_light_component_u_i_8hpp.html" target="_top" xlink:title=" ">
<polygon fill="white" stroke="black" points="432.5,-112.5 432.5,-142.5 584.5,-142.5 584.5,-112.5 432.5,-112.5"/>
<text text-anchor="start" x="440.5" y="-130.5" font-family="Helvetica,sans-Serif" font-size="10.00">src/ui/Components/Ambient</text>
<text text-anchor="middle" x="508.5" y="-119.5" font-family="Helvetica,sans-Serif" font-size="10.00">LightComponentUI.hpp</text>
</a>
</g>
</g>
<!-- Node3&#45;&gt;Node6 -->
<g id="edge5" class="edge">
<title>Node3&#45;&gt;Node6</title>
<path fill="none" stroke="midnightblue" d="M508.5,-169.11C508.5,-160.15 508.5,-150.32 508.5,-142.58"/>
<polygon fill="midnightblue" stroke="midnightblue" points="505,-169.4 508.5,-179.4 512,-169.4 505,-169.4"/>
</g>
<!-- Node7&#45;&gt;Node4 -->
<g id="edge7" class="edge">
<title>Node7&#45;&gt;Node4</title>
<path fill="none" stroke="midnightblue" d="M1410.28,-241.91C1425.17,-234.12 1440.25,-223.64 1450.5,-210 1467.25,-187.7 1469.56,-153 1469.67,-137.05"/>
<polygon fill="midnightblue" stroke="midnightblue" points="1408.52,-238.87 1401.07,-246.41 1411.59,-245.16 1408.52,-238.87"/>
</g>
<!-- Node8 -->
<g id="node8" class="node">
<title>Node8</title>
<g id="a_node8"><a xlink:href="_object_selection_system_8cpp.html" target="_top" xlink:title=" ">
<polygon fill="white" stroke="black" points="1498,-179.5 1498,-209.5 1653,-209.5 1653,-179.5 1498,-179.5"/>
<text text-anchor="start" x="1506" y="-197.5" font-family="Helvetica,sans-Serif" font-size="10.00">src/Systems/ObjectSelection</text>
<text text-anchor="middle" x="1575.5" y="-186.5" font-family="Helvetica,sans-Serif" font-size="10.00">System.cpp</text>
</a>
</g>
</g>
<!-- Node7&#45;&gt;Node8 -->
<g id="edge8" class="edge">
<title>Node7&#45;&gt;Node8</title>
<path fill="none" stroke="midnightblue" d="M1416.47,-243.58C1451.39,-233.02 1495.81,-219.59 1528.83,-209.61"/>
<polygon fill="midnightblue" stroke="midnightblue" points="1415.45,-240.23 1406.89,-246.48 1417.47,-246.93 1415.45,-240.23"/>
</g>
<!-- Node9 -->
<g id="node9" class="node">
<title>Node9</title>
<g id="a_node9"><a xlink:href="_model_component_u_i_8cpp.html" target="_top" xlink:title=" ">
<polygon fill="white" stroke="black" points="1244,-179.5 1244,-209.5 1441,-209.5 1441,-179.5 1244,-179.5"/>
<text text-anchor="start" x="1252" y="-197.5" font-family="Helvetica,sans-Serif" font-size="10.00">src/ui/Components/ModelComponent</text>
<text text-anchor="middle" x="1342.5" y="-186.5" font-family="Helvetica,sans-Serif" font-size="10.00">UI.cpp</text>
</a>
</g>
</g>
<!-- Node7&#45;&gt;Node9 -->
<g id="edge9" class="edge">
<title>Node7&#45;&gt;Node9</title>
<path fill="none" stroke="midnightblue" d="M1353.91,-236.7C1351.39,-227.59 1348.59,-217.49 1346.4,-209.58"/>
<polygon fill="midnightblue" stroke="midnightblue" points="1350.55,-237.69 1356.59,-246.4 1357.3,-235.82 1350.55,-237.69"/>
</g>
<!-- Node10 -->
<g id="node10" class="node">
<title>Node10</title>
<g id="a_node10"><a xlink:href="_properties_widget_8cpp.html" target="_top" xlink:title=" ">
<polygon fill="white" stroke="black" points="1052,-112.5 1052,-142.5 1189,-142.5 1189,-112.5 1052,-112.5"/>
<text text-anchor="start" x="1060" y="-130.5" font-family="Helvetica,sans-Serif" font-size="10.00">src/ui/widgets/Properties</text>
<text text-anchor="middle" x="1120.5" y="-119.5" font-family="Helvetica,sans-Serif" font-size="10.00">Widget.cpp</text>
</a>
</g>
</g>
<!-- Node7&#45;&gt;Node10 -->
<g id="edge10" class="edge">
<title>Node7&#45;&gt;Node10</title>
<path fill="none" stroke="midnightblue" d="M1308.53,-242.88C1285.3,-234.19 1257.92,-222.82 1234.5,-210 1197.8,-189.9 1158.95,-160.02 1137.41,-142.57"/>
<polygon fill="midnightblue" stroke="midnightblue" points="1307.62,-246.27 1318.22,-246.43 1310.04,-239.7 1307.62,-246.27"/>
</g>
<!-- Node11&#45;&gt;Node4 -->
<g id="edge12" class="edge">
<title>Node11&#45;&gt;Node4</title>
<path fill="none" stroke="midnightblue" d="M2279.31,-179.78C2277.02,-179.51 2274.74,-179.24 2272.5,-179 1980.55,-147.13 1626.51,-133.55 1509.3,-129.71"/>
<polygon fill="midnightblue" stroke="midnightblue" points="2279.09,-183.28 2289.45,-181.06 2279.96,-176.33 2279.09,-183.28"/>
</g>
<!-- Node11&#45;&gt;Node5 -->
<g id="edge13" class="edge">
<title>Node11&#45;&gt;Node5</title>
<path fill="none" stroke="midnightblue" d="M2330.11,-174.29C2313.85,-165.19 2294.45,-153.93 2277.5,-143 2257.7,-130.23 2256.72,-119.84 2234.5,-112 2166.17,-87.89 1696.14,-74 1493.33,-69.06"/>
<polygon fill="midnightblue" stroke="midnightblue" points="2328.84,-177.59 2339.28,-179.39 2332.24,-171.47 2328.84,-177.59"/>
</g>
<!-- Node11&#45;&gt;Node10 -->
<g id="edge20" class="edge">
<title>Node11&#45;&gt;Node10</title>
<path fill="none" stroke="midnightblue" d="M2278.88,-186.84C2243.16,-184.21 2201.35,-181.27 2163.5,-179 2151.31,-178.27 1419.7,-142.94 1189.24,-131.82"/>
<polygon fill="midnightblue" stroke="midnightblue" points="2279.04,-190.36 2289.27,-187.61 2279.56,-183.38 2279.04,-190.36"/>
</g>
<!-- Node11&#45;&gt;Node12 -->
<g id="edge14" class="edge">
<title>Node11&#45;&gt;Node12</title>
<path fill="none" stroke="midnightblue" d="M2425.8,-176.75C2471.56,-164.04 2532.59,-147.09 2568.8,-137.03"/>
<polygon fill="midnightblue" stroke="midnightblue" points="2424.68,-173.43 2415.99,-179.48 2426.56,-180.17 2424.68,-173.43"/>
</g>
<!-- Node16 -->
<g id="node16" class="node">
<title>Node16</title>
<g id="a_node16"><a xlink:href="_directional_light_component_u_i_8hpp.html" target="_top" xlink:title=" ">
<polygon fill="white" stroke="black" points="2286.5,-112.5 2286.5,-142.5 2450.5,-142.5 2450.5,-112.5 2286.5,-112.5"/>
<text text-anchor="start" x="2294.5" y="-130.5" font-family="Helvetica,sans-Serif" font-size="10.00">src/ui/Components/Directional</text>
<text text-anchor="middle" x="2368.5" y="-119.5" font-family="Helvetica,sans-Serif" font-size="10.00">LightComponentUI.hpp</text>
</a>
</g>
</g>
<!-- Node11&#45;&gt;Node16 -->
<g id="edge19" class="edge">
<title>Node11&#45;&gt;Node16</title>
<path fill="none" stroke="midnightblue" d="M2366.61,-169.4C2367.03,-160.37 2367.49,-150.41 2367.85,-142.58"/>
<polygon fill="midnightblue" stroke="midnightblue" points="2363.12,-169.25 2366.15,-179.4 2370.11,-169.57 2363.12,-169.25"/>
</g>
<!-- Node12&#45;&gt;Node5 -->
<g id="edge18" class="edge">
<title>Node12&#45;&gt;Node5</title>
<path fill="none" stroke="midnightblue" d="M2533.81,-116.61C2520.18,-114.84 2505.89,-113.18 2492.5,-112 2123.22,-79.44 1681.56,-70.37 1493.09,-67.9"/>
<polygon fill="midnightblue" stroke="midnightblue" points="2533.7,-120.13 2544.08,-117.99 2534.63,-113.19 2533.7,-120.13"/>
</g>
<!-- Node12&#45;&gt;Node13 -->
<g id="edge15" class="edge">
<title>Node12&#45;&gt;Node13</title>
<path fill="none" stroke="midnightblue" d="M2608.7,-108.83C2614.44,-97.83 2621.56,-84.16 2626.07,-75.51"/>
<polygon fill="midnightblue" stroke="midnightblue" points="2605.46,-107.49 2603.94,-117.98 2611.67,-110.72 2605.46,-107.49"/>
</g>
<!-- Node14 -->
<g id="node14" class="node">
<title>Node14</title>
<g id="a_node14"><a xlink:href="_runtime_8cpp.html" target="_top" xlink:title=" ">
<polygon fill="white" stroke="black" points="2514.5,-0.5 2514.5,-19.5 2654.5,-19.5 2654.5,-0.5 2514.5,-0.5"/>
<text text-anchor="middle" x="2584.5" y="-7.5" font-family="Helvetica,sans-Serif" font-size="10.00">src/Runtime/Runtime.cpp</text>
</a>
</g>
</g>
<!-- Node13&#45;&gt;Node14 -->
<g id="edge16" class="edge">
<title>Node13&#45;&gt;Node14</title>
<path fill="none" stroke="midnightblue" d="M2616.39,-48.43C2608.32,-38.97 2598.54,-27.48 2591.95,-19.75"/>
<polygon fill="midnightblue" stroke="midnightblue" points="2613.75,-50.74 2622.9,-56.08 2619.08,-46.2 2613.75,-50.74"/>
</g>
<!-- Node13&#45;&gt;Node15 -->
<g id="edge17" class="edge">
<title>Node13&#45;&gt;Node15</title>
<path fill="none" stroke="midnightblue" d="M2660.12,-52.5C2684.12,-42.38 2717.28,-28.39 2738.31,-19.52"/>
<polygon fill="midnightblue" stroke="midnightblue" points="2658.64,-49.33 2650.78,-56.44 2661.36,-55.78 2658.64,-49.33"/>
</g>
<!-- Node17&#45;&gt;Node4 -->
<g id="edge22" class="edge">
<title>Node17&#45;&gt;Node4</title>
<path fill="none" stroke="midnightblue" d="M1038.69,-248.14C1081.63,-230.9 1163.08,-199.45 1234.5,-179 1302.1,-159.64 1382.52,-143.89 1429.6,-135.38"/>
<polygon fill="midnightblue" stroke="midnightblue" points="1037.34,-244.91 1029.38,-251.9 1039.96,-251.4 1037.34,-244.91"/>
</g>
<!-- Node17&#45;&gt;Node5 -->
<g id="edge24" class="edge">
<title>Node17&#45;&gt;Node5</title>
<path fill="none" stroke="midnightblue" d="M894.96,-260.81C798.47,-258.36 670.48,-247.77 637.5,-210 628.44,-199.62 628.96,-189.81 637.5,-179 678.62,-126.92 1113.64,-88.34 1307.81,-73.58"/>
<polygon fill="midnightblue" stroke="midnightblue" points="895.01,-264.31 905.09,-261.04 895.17,-257.31 895.01,-264.31"/>
</g>
<!-- Node17&#45;&gt;Node8 -->
<g id="edge23" class="edge">
<title>Node17&#45;&gt;Node8</title>
<path fill="none" stroke="midnightblue" d="M1093.63,-250.82C1182.63,-240.68 1326.38,-224.29 1450.5,-210 1465.8,-208.24 1482.15,-206.35 1497.82,-204.53"/>
<polygon fill="midnightblue" stroke="midnightblue" points="1093.12,-247.35 1083.58,-251.96 1093.91,-254.31 1093.12,-247.35"/>
</g>
<!-- Node17&#45;&gt;Node10 -->
<g id="edge26" class="edge">
<title>Node17&#45;&gt;Node10</title>
<path fill="none" stroke="midnightblue" d="M1034.69,-246.92C1049.88,-238.03 1068.5,-225.25 1081.5,-210 1098.9,-189.59 1110.46,-160.08 1116.21,-142.74"/>
<polygon fill="midnightblue" stroke="midnightblue" points="1032.77,-243.99 1025.77,-251.94 1036.2,-250.09 1032.77,-243.99"/>
</g>
<!-- Node18 -->
<g id="node18" class="node">
<title>Node18</title>
<g id="a_node18"><a xlink:href="_model_component_u_i_8hpp.html" target="_top" xlink:title=" ">
<polygon fill="white" stroke="black" points="876,-179.5 876,-209.5 1073,-209.5 1073,-179.5 876,-179.5"/>
<text text-anchor="start" x="884" y="-197.5" font-family="Helvetica,sans-Serif" font-size="10.00">src/ui/Components/ModelComponent</text>
<text text-anchor="middle" x="974.5" y="-186.5" font-family="Helvetica,sans-Serif" font-size="10.00">UI.hpp</text>
</a>
</g>
</g>
<!-- Node17&#45;&gt;Node18 -->
<g id="edge25" class="edge">
<title>Node17&#45;&gt;Node18</title>
<path fill="none" stroke="midnightblue" d="M999.2,-242.71C993.74,-232.29 986.95,-219.3 981.87,-209.59"/>
<polygon fill="midnightblue" stroke="midnightblue" points="996.18,-244.5 1003.91,-251.73 1002.38,-241.25 996.18,-244.5"/>
</g>
<!-- Node19&#45;&gt;Node4 -->
<g id="edge28" class="edge">
<title>Node19&#45;&gt;Node4</title>
<path fill="none" stroke="midnightblue" d="M1649.99,-247.91C1666.99,-239.87 1685.73,-227.61 1695.5,-210 1702.19,-197.95 1704.11,-189.75 1695.5,-179 1672.56,-150.37 1567.47,-136.9 1509.02,-131.52"/>
<polygon fill="midnightblue" stroke="midnightblue" points="1648.55,-244.72 1640.8,-251.94 1651.36,-251.13 1648.55,-244.72"/>
</g>
<!-- Node19&#45;&gt;Node5 -->
<g id="edge29" class="edge">
<title>Node19&#45;&gt;Node5</title>
<path fill="none" stroke="midnightblue" d="M1660.24,-248.33C1679.58,-240.68 1700.21,-228.61 1711.5,-210 1718.65,-198.22 1719.42,-190.27 1711.5,-179 1662.5,-109.27 1565.7,-82.75 1493.04,-72.78"/>
<polygon fill="midnightblue" stroke="midnightblue" points="1658.8,-245.13 1650.6,-251.84 1661.19,-251.71 1658.8,-245.13"/>
</g>
<!-- Node19&#45;&gt;Node10 -->
<g id="edge31" class="edge">
<title>Node19&#45;&gt;Node10</title>
<path fill="none" stroke="midnightblue" d="M1634.25,-245.42C1654.64,-228.07 1681.07,-199.38 1662.5,-179 1646.76,-161.72 1331.53,-140.98 1189.2,-132.46"/>
<polygon fill="midnightblue" stroke="midnightblue" points="1631.84,-242.86 1626.3,-251.89 1636.26,-248.29 1631.84,-242.86"/>
</g>
<!-- Node20 -->
<g id="node20" class="node">
<title>Node20</title>
<g id="a_node20"><a xlink:href="_objects_widget_8cpp.html" target="_top" xlink:title=" ">
<polygon fill="white" stroke="black" points="1786,-185 1786,-204 1965,-204 1965,-185 1786,-185"/>
<text text-anchor="middle" x="1875.5" y="-192" font-family="Helvetica,sans-Serif" font-size="10.00">src/ui/widgets/ObjectsWidget.cpp</text>
</a>
</g>
</g>
<!-- Node19&#45;&gt;Node20 -->
<g id="edge30" class="edge">
<title>Node19&#45;&gt;Node20</title>
<path fill="none" stroke="midnightblue" d="M1658.73,-249.48C1710.22,-236.66 1794.15,-215.76 1841.03,-204.08"/>
<polygon fill="midnightblue" stroke="midnightblue" points="1657.75,-246.12 1648.89,-251.94 1659.44,-252.92 1657.75,-246.12"/>
</g>
<!-- Node21 -->
<g id="node21" class="node">
<title>Node21</title>
<g id="a_node21"><a xlink:href="_scene_widget_8cpp.html" target="_top" xlink:title=" ">
<polygon fill="white" stroke="black" points="1983,-185 1983,-204 2154,-204 2154,-185 1983,-185"/>
<text text-anchor="middle" x="2068.5" y="-192" font-family="Helvetica,sans-Serif" font-size="10.00">src/ui/widgets/SceneWidget.cpp</text>
</a>
</g>
</g>
<!-- Node19&#45;&gt;Node21 -->
<g id="edge32" class="edge">
<title>Node19&#45;&gt;Node21</title>
<path fill="none" stroke="midnightblue" d="M1687.27,-250.59C1760.02,-240.61 1875.06,-224.64 1974.5,-210 1987.24,-208.12 2000.95,-206.04 2013.84,-204.06"/>
<polygon fill="midnightblue" stroke="midnightblue" points="1686.73,-247.13 1677.29,-251.96 1687.68,-254.07 1686.73,-247.13"/>
</g>
<!-- Node22&#45;&gt;Node4 -->
<g id="edge34" class="edge">
<title>Node22&#45;&gt;Node4</title>
<path fill="none" stroke="midnightblue" d="M250.18,-179.04C670.49,-135.05 779.59,-162.07 1197.5,-143 1280.17,-139.23 1376.92,-133.84 1429.87,-130.8"/>
<polygon fill="midnightblue" stroke="midnightblue" points="249.77,-175.57 240.19,-180.09 250.51,-182.53 249.77,-175.57"/>
</g>
<!-- Node22&#45;&gt;Node5 -->
<g id="edge35" class="edge">
<title>Node22&#45;&gt;Node5</title>
<path fill="none" stroke="midnightblue" d="M178.13,-170.57C189.38,-151.12 208.4,-124.45 233.5,-112 281.29,-88.28 1039.52,-73.14 1307.54,-68.51"/>
<polygon fill="midnightblue" stroke="midnightblue" points="175,-169 173.24,-179.45 181.13,-172.38 175,-169"/>
</g>
<!-- Node22&#45;&gt;Node10 -->
<g id="edge37" class="edge">
<title>Node22&#45;&gt;Node10</title>
<path fill="none" stroke="midnightblue" d="M250.56,-178.98C555.04,-144.25 906.28,-133.13 1051.95,-129.8"/>
<polygon fill="midnightblue" stroke="midnightblue" points="249.74,-175.55 240.2,-180.17 250.54,-182.5 249.74,-175.55"/>
</g>
<!-- Node23 -->
<g id="node23" class="node">
<title>Node23</title>
<g id="a_node23"><a xlink:href="_point_light_component_u_i_8hpp.html" target="_top" xlink:title=" ">
<polygon fill="white" stroke="black" points="0,-112.5 0,-142.5 159,-142.5 159,-112.5 0,-112.5"/>
<text text-anchor="start" x="8" y="-130.5" font-family="Helvetica,sans-Serif" font-size="10.00">src/ui/Components/PointLight</text>
<text text-anchor="middle" x="79.5" y="-119.5" font-family="Helvetica,sans-Serif" font-size="10.00">ComponentUI.hpp</text>
</a>
</g>
</g>
<!-- Node22&#45;&gt;Node23 -->
<g id="edge36" class="edge">
<title>Node22&#45;&gt;Node23</title>
<path fill="none" stroke="midnightblue" d="M139.29,-173.17C125.98,-163.23 110.3,-151.51 98.34,-142.58"/>
<polygon fill="midnightblue" stroke="midnightblue" points="137.52,-176.21 147.62,-179.4 141.71,-170.61 137.52,-176.21"/>
</g>
<!-- Node24&#45;&gt;Node4 -->
<g id="edge39" class="edge">
<title>Node24&#45;&gt;Node4</title>
<path fill="none" stroke="midnightblue" d="M825.95,-183.69C839.43,-182.02 853.38,-180.38 866.5,-179 1078.58,-156.64 1333.48,-137.99 1429.94,-131.22"/>
<polygon fill="midnightblue" stroke="midnightblue" points="825.25,-180.25 815.76,-184.96 826.12,-187.19 825.25,-180.25"/>
</g>
<!-- Node24&#45;&gt;Node5 -->
<g id="edge40" class="edge">
<title>Node24&#45;&gt;Node5</title>
<path fill="none" stroke="midnightblue" d="M787.99,-181.67C842.24,-164.02 949.32,-130.84 1042.5,-112 1131.84,-93.94 1235.27,-81.87 1307.91,-74.82"/>
<polygon fill="midnightblue" stroke="midnightblue" points="786.59,-178.45 778.18,-184.88 788.77,-185.1 786.59,-178.45"/>
</g>
<!-- Node24&#45;&gt;Node10 -->
<g id="edge41" class="edge">
<title>Node24&#45;&gt;Node10</title>
<path fill="none" stroke="midnightblue" d="M811.14,-183.14C876.63,-171.57 982.53,-152.87 1051.83,-140.63"/>
<polygon fill="midnightblue" stroke="midnightblue" points="810.23,-179.75 800.99,-184.94 811.44,-186.64 810.23,-179.75"/>
</g>
<!-- Node25&#45;&gt;Node4 -->
<g id="edge51" class="edge">
<title>Node25&#45;&gt;Node4</title>
<path fill="none" stroke="midnightblue" d="M2017.36,-321.84C2081.9,-315.53 2163.52,-302.63 2184.5,-277 2196.34,-262.54 2199.97,-198.7 2180.5,-179 2133.13,-131.1 1651.94,-128.15 1509.2,-128.34"/>
<polygon fill="midnightblue" stroke="midnightblue" points="2016.79,-318.38 2007.16,-322.8 2017.44,-325.35 2016.79,-318.38"/>
</g>
<!-- Node25&#45;&gt;Node5 -->
<g id="edge54" class="edge">
<title>Node25&#45;&gt;Node5</title>
<path fill="none" stroke="midnightblue" d="M2017.44,-328.17C2138.28,-327.59 2353.65,-320.25 2416.5,-277 2478.93,-234.04 2511.94,-166.71 2459.5,-112 2426.33,-77.4 1745.53,-69.31 1493.37,-67.5"/>
<polygon fill="midnightblue" stroke="midnightblue" points="2017.11,-324.67 2007.12,-328.21 2017.13,-331.67 2017.11,-324.67"/>
</g>
<!-- Node25&#45;&gt;Node7 -->
<g id="edge43" class="edge">
<title>Node25&#45;&gt;Node7</title>
<path fill="none" stroke="midnightblue" d="M1849.71,-318.99C1756.74,-309.4 1602.28,-293.06 1469.5,-277 1459.36,-275.77 1448.7,-274.43 1438.18,-273.06"/>
<polygon fill="midnightblue" stroke="midnightblue" points="1849.6,-322.49 1859.91,-320.04 1850.32,-315.53 1849.6,-322.49"/>
</g>
<!-- Node25&#45;&gt;Node8 -->
<g id="edge53" class="edge">
<title>Node25&#45;&gt;Node8</title>
<path fill="none" stroke="midnightblue" d="M1849.7,-323.55C1731.09,-317.09 1526.07,-302.38 1503.5,-277 1482.48,-253.37 1519.79,-225.77 1548.1,-209.51"/>
<polygon fill="midnightblue" stroke="midnightblue" points="1849.67,-327.06 1859.84,-324.1 1850.04,-320.07 1849.67,-327.06"/>
</g>
<!-- Node25&#45;&gt;Node10 -->
<g id="edge57" class="edge">
<title>Node25&#45;&gt;Node10</title>
<path fill="none" stroke="midnightblue" d="M1849.68,-326.81C1696.34,-324.6 1376.9,-315.39 1273.5,-277 1203.75,-251.1 1149.21,-174.33 1128.99,-142.53"/>
<polygon fill="midnightblue" stroke="midnightblue" points="1849.94,-330.31 1859.98,-326.95 1850.03,-323.31 1849.94,-330.31"/>
</g>
<!-- Node25&#45;&gt;Node11 -->
<g id="edge50" class="edge">
<title>Node25&#45;&gt;Node11</title>
<path fill="none" stroke="midnightblue" d="M2017.38,-324.38C2144.66,-318.76 2374.49,-304.86 2399.5,-277 2417.11,-257.38 2395.71,-227.33 2379.77,-209.73"/>
<polygon fill="midnightblue" stroke="midnightblue" points="2017.11,-320.88 2007.27,-324.81 2017.42,-327.88 2017.11,-320.88"/>
</g>
<!-- Node25&#45;&gt;Node20 -->
<g id="edge56" class="edge">
<title>Node25&#45;&gt;Node20</title>
<path fill="none" stroke="midnightblue" d="M1930.63,-303.29C1927.99,-286.58 1923.14,-264.19 1914.5,-246 1906.71,-229.59 1892.89,-213.48 1883.97,-204.02"/>
<polygon fill="midnightblue" stroke="midnightblue" points="1927.19,-303.94 1932.06,-313.34 1934.12,-302.95 1927.19,-303.94"/>
</g>
<!-- Node26 -->
<g id="node26" class="node">
<title>Node26</title>
<g id="a_node26"><a xlink:href="_camera_component_8hpp.html" target="_top" xlink:title=" ">
<polygon fill="white" stroke="black" points="1961.5,-252 1961.5,-271 2175.5,-271 2175.5,-252 1961.5,-252"/>
<text text-anchor="middle" x="2068.5" y="-259" font-family="Helvetica,sans-Serif" font-size="10.00">src/Components/CameraComponent.hpp</text>
</a>
</g>
</g>
<!-- Node25&#45;&gt;Node26 -->
<g id="edge44" class="edge">
<title>Node25&#45;&gt;Node26</title>
<path fill="none" stroke="midnightblue" d="M1971.99,-308.97C1997.92,-296.48 2030.91,-280.6 2050.83,-271.01"/>
<polygon fill="midnightblue" stroke="midnightblue" points="1970.28,-305.9 1962.79,-313.4 1973.32,-312.21 1970.28,-305.9"/>
</g>
<!-- Node27 -->
<g id="node27" class="node">
<title>Node27</title>
<g id="a_node27"><a xlink:href="_camera_movement_system_8cpp.html" target="_top" xlink:title=" ">
<polygon fill="white" stroke="black" points="1735.5,-246.5 1735.5,-276.5 1905.5,-276.5 1905.5,-246.5 1735.5,-246.5"/>
<text text-anchor="start" x="1743.5" y="-264.5" font-family="Helvetica,sans-Serif" font-size="10.00">src/Systems/CameraMovement</text>
<text text-anchor="middle" x="1820.5" y="-253.5" font-family="Helvetica,sans-Serif" font-size="10.00">System.cpp</text>
</a>
</g>
</g>
<!-- Node25&#45;&gt;Node27 -->
<g id="edge52" class="edge">
<title>Node25&#45;&gt;Node27</title>
<path fill="none" stroke="midnightblue" d="M1900.11,-308.3C1882.43,-298.12 1861.1,-285.85 1844.97,-276.58"/>
<polygon fill="midnightblue" stroke="midnightblue" points="1898.57,-311.44 1908.98,-313.4 1902.06,-305.38 1898.57,-311.44"/>
</g>
<!-- Node28 -->
<g id="node28" class="node">
<title>Node28</title>
<g id="a_node28"><a xlink:href="_transform_component_u_i_8hpp.html" target="_top" xlink:title=" ">
<polygon fill="white" stroke="black" points="2231,-246.5 2231,-276.5 2390,-276.5 2390,-246.5 2231,-246.5"/>
<text text-anchor="start" x="2239" y="-264.5" font-family="Helvetica,sans-Serif" font-size="10.00">src/ui/Components/Transform</text>
<text text-anchor="middle" x="2310.5" y="-253.5" font-family="Helvetica,sans-Serif" font-size="10.00">ComponentUI.hpp</text>
</a>
</g>
</g>
<!-- Node25&#45;&gt;Node28 -->
<g id="edge55" class="edge">
<title>Node25&#45;&gt;Node28</title>
<path fill="none" stroke="midnightblue" d="M2017.11,-313.08C2080.89,-302.09 2168.16,-287.04 2230.91,-276.22"/>
<polygon fill="midnightblue" stroke="midnightblue" points="2016.34,-309.66 2007.08,-314.81 2017.53,-316.56 2016.34,-309.66"/>
</g>
<!-- Node26&#45;&gt;Node4 -->
<g id="edge46" class="edge">
<title>Node26&#45;&gt;Node4</title>
<path fill="none" stroke="midnightblue" d="M2102.09,-248.2C2138.61,-233.06 2188.63,-206.03 2163.5,-179 2118.82,-130.95 1650.17,-128.09 1509.32,-128.32"/>
<polygon fill="midnightblue" stroke="midnightblue" points="2100.67,-245 2092.69,-251.96 2103.27,-251.5 2100.67,-245"/>
</g>
<!-- Node26&#45;&gt;Node5 -->
<g id="edge48" class="edge">
<title>Node26&#45;&gt;Node5</title>
<path fill="none" stroke="midnightblue" d="M2109.16,-248.83C2151.06,-234.82 2206.82,-209.37 2180.5,-179 2135.95,-127.6 1689.89,-88.47 1493.03,-73.56"/>
<polygon fill="midnightblue" stroke="midnightblue" points="2107.84,-245.57 2099.4,-251.97 2109.99,-252.24 2107.84,-245.57"/>
</g>
<!-- Node26&#45;&gt;Node8 -->
<g id="edge47" class="edge">
<title>Node26&#45;&gt;Node8</title>
<path fill="none" stroke="midnightblue" d="M1993.73,-250.64C1901.81,-238.52 1746.57,-218.05 1653.29,-205.76"/>
<polygon fill="midnightblue" stroke="midnightblue" points="1993.42,-254.13 2003.8,-251.97 1994.34,-247.19 1993.42,-254.13"/>
</g>
<!-- Node26&#45;&gt;Node11 -->
<g id="edge45" class="edge">
<title>Node26&#45;&gt;Node11</title>
<path fill="none" stroke="midnightblue" d="M2117.6,-249.75C2167.83,-238.76 2246.13,-221.63 2301.26,-209.56"/>
<polygon fill="midnightblue" stroke="midnightblue" points="2116.65,-246.38 2107.63,-251.94 2118.15,-253.22 2116.65,-246.38"/>
</g>
<!-- Node26&#45;&gt;Node21 -->
<g id="edge49" class="edge">
<title>Node26&#45;&gt;Node21</title>
<path fill="none" stroke="midnightblue" d="M2068.5,-241.54C2068.5,-229.17 2068.5,-213.62 2068.5,-204.13"/>
<polygon fill="midnightblue" stroke="midnightblue" points="2065,-241.73 2068.5,-251.73 2072,-241.73 2065,-241.73"/>
</g>
<!-- Node29&#45;&gt;Node4 -->
<g id="edge59" class="edge">
<title>Node29&#45;&gt;Node4</title>
<path fill="none" stroke="midnightblue" d="M418.58,-178.98C764.2,-141.77 854.19,-160.07 1197.5,-143 1280.15,-138.89 1376.91,-133.62 1429.86,-130.7"/>
<polygon fill="midnightblue" stroke="midnightblue" points="418.1,-175.51 408.54,-180.07 418.86,-182.47 418.1,-175.51"/>
</g>
<!-- Node29&#45;&gt;Node5 -->
<g id="edge60" class="edge">
<title>Node29&#45;&gt;Node5</title>
<path fill="none" stroke="midnightblue" d="M289.25,-175.14C256.63,-159.12 221.46,-134.91 243.5,-112 280.19,-73.86 1039.71,-68.02 1307.8,-67.15"/>
<polygon fill="midnightblue" stroke="midnightblue" points="287.79,-178.32 298.33,-179.43 290.78,-171.99 287.79,-178.32"/>
</g>
<!-- Node29&#45;&gt;Node10 -->
<g id="edge62" class="edge">
<title>Node29&#45;&gt;Node10</title>
<path fill="none" stroke="midnightblue" d="M418.79,-178.92C657,-150.35 927.7,-136.49 1051.93,-131.16"/>
<polygon fill="midnightblue" stroke="midnightblue" points="418.06,-175.49 408.55,-180.16 418.9,-182.44 418.06,-175.49"/>
</g>
<!-- Node30 -->
<g id="node30" class="node">
<title>Node30</title>
<g id="a_node30"><a xlink:href="_wireframe_component_u_i_8hpp.html" target="_top" xlink:title=" ">
<polygon fill="white" stroke="black" points="252.5,-112.5 252.5,-142.5 414.5,-142.5 414.5,-112.5 252.5,-112.5"/>
<text text-anchor="start" x="260.5" y="-130.5" font-family="Helvetica,sans-Serif" font-size="10.00">src/ui/Components/Wireframe</text>
<text text-anchor="middle" x="333.5" y="-119.5" font-family="Helvetica,sans-Serif" font-size="10.00">ComponentUI.hpp</text>
</a>
</g>
</g>
<!-- Node29&#45;&gt;Node30 -->
<g id="edge61" class="edge">
<title>Node29&#45;&gt;Node30</title>
<path fill="none" stroke="midnightblue" d="M333.5,-169.11C333.5,-160.15 333.5,-150.32 333.5,-142.58"/>
<polygon fill="midnightblue" stroke="midnightblue" points="330,-169.4 333.5,-179.4 337,-169.4 330,-169.4"/>
</g>
</g>
</svg>
