<?xml version="1.0" encoding="UTF-8" standalone="no"?>
<!DOCTYPE svg PUBLIC "-//W3C//DTD SVG 1.1//EN"
 "http://www.w3.org/Graphics/SVG/1.1/DTD/svg11.dtd">
<!-- Generated by graphviz version 2.43.0 (0)
 -->
<!-- Title: src/Common/Types.hpp Pages: 1 -->
<svg width="2838pt" height="285pt"
 viewBox="0.00 0.00 2837.69 285.00" xmlns="http://www.w3.org/2000/svg" xmlns:xlink="http://www.w3.org/1999/xlink">
<g id="graph0" class="graph" transform="scale(1 1) rotate(0) translate(4 281)">
<title>src/Common/Types.hpp</title>
<polygon fill="white" stroke="transparent" points="-4,4 -4,-281 2833.69,-281 2833.69,4 -4,4"/>
<!-- Node1 -->
<g id="node1" class="node">
<title>Node1</title>
<g id="a_node1"><a xlink:title=" ">
<polygon fill="#bfbfbf" stroke="black" points="2434.5,-257.5 2434.5,-276.5 2564.5,-276.5 2564.5,-257.5 2434.5,-257.5"/>
<text text-anchor="middle" x="2499.5" y="-264.5" font-family="Helvetica,sans-Serif" font-size="10.00">src/Common/Types.hpp</text>
</a>
</g>
</g>
<!-- Node2 -->
<g id="node2" class="node">
<title>Node2</title>
<g id="a_node2"><a xlink:href="_base_component_8hpp.html" target="_top" xlink:title=" ">
<polygon fill="white" stroke="black" points="1486.5,-201.5 1486.5,-220.5 1686.5,-220.5 1686.5,-201.5 1486.5,-201.5"/>
<text text-anchor="middle" x="1586.5" y="-208.5" font-family="Helvetica,sans-Serif" font-size="10.00">src/Components/BaseComponent.hpp</text>
</a>
</g>
</g>
<!-- Node1&#45;&gt;Node2 -->
<g id="edge1" class="edge">
<title>Node1&#45;&gt;Node2</title>
<path fill="none" stroke="midnightblue" d="M2424.25,-262.05C2284.15,-254.63 1973.81,-237.8 1712.5,-221 1704.07,-220.46 1695.33,-219.88 1686.56,-219.28"/>
<polygon fill="midnightblue" stroke="midnightblue" points="2424.27,-265.56 2434.44,-262.59 2424.64,-258.57 2424.27,-265.56"/>
</g>
<!-- Node4 -->
<g id="node4" class="node">
<title>Node4</title>
<g id="a_node4"><a xlink:href="main_8cpp.html" target="_top" xlink:title=" ">
<polygon fill="white" stroke="black" points="1553,-6 1553,-25 1632,-25 1632,-6 1553,-6"/>
<text text-anchor="middle" x="1592.5" y="-13" font-family="Helvetica,sans-Serif" font-size="10.00">src/main.cpp</text>
</a>
</g>
</g>
<!-- Node1&#45;&gt;Node4 -->
<g id="edge58" class="edge">
<title>Node1&#45;&gt;Node4</title>
<path fill="none" stroke="midnightblue" d="M2424.17,-260.42C2284.36,-247.69 1977.91,-208.52 1746.5,-98 1726.52,-88.46 1726.46,-78.44 1707.5,-67 1677.81,-49.09 1640.64,-33.95 1616.73,-25.04"/>
<polygon fill="midnightblue" stroke="midnightblue" points="2424.08,-263.93 2434.35,-261.33 2424.7,-256.96 2424.08,-263.93"/>
</g>
<!-- Node28 -->
<g id="node28" class="node">
<title>Node28</title>
<g id="a_node28"><a xlink:href="_runtime_8hpp.html" target="_top" xlink:title=" ">
<polygon fill="white" stroke="black" points="2558.5,-140 2558.5,-159 2698.5,-159 2698.5,-140 2558.5,-140"/>
<text text-anchor="middle" x="2628.5" y="-147" font-family="Helvetica,sans-Serif" font-size="10.00">src/Runtime/Runtime.hpp</text>
</a>
</g>
</g>
<!-- Node1&#45;&gt;Node28 -->
<g id="edge59" class="edge">
<title>Node1&#45;&gt;Node28</title>
<path fill="none" stroke="midnightblue" d="M2512.26,-249.34C2523.21,-235.58 2539.82,-215.96 2556.5,-201 2575.02,-184.38 2599.15,-168.45 2614.23,-159.07"/>
<polygon fill="midnightblue" stroke="midnightblue" points="2509.34,-247.39 2505.94,-257.42 2514.86,-251.7 2509.34,-247.39"/>
</g>
<!-- Node30 -->
<g id="node30" class="node">
<title>Node30</title>
<g id="a_node30"><a xlink:href="_scene_widget_8hpp.html" target="_top" xlink:title="Contains the declaration of the SceneWidget class, a user interface widget for rendering scenes.">
<polygon fill="white" stroke="black" points="2478.5,-73 2478.5,-92 2650.5,-92 2650.5,-73 2478.5,-73"/>
<text text-anchor="middle" x="2564.5" y="-80" font-family="Helvetica,sans-Serif" font-size="10.00">src/ui/widgets/SceneWidget.hpp</text>
</a>
</g>
</g>
<!-- Node1&#45;&gt;Node30 -->
<g id="edge65" class="edge">
<title>Node1&#45;&gt;Node30</title>
<path fill="none" stroke="midnightblue" d="M2506.01,-247.72C2519.77,-209.07 2551.38,-120.33 2561.4,-92.21"/>
<polygon fill="midnightblue" stroke="midnightblue" points="2502.69,-246.6 2502.64,-257.2 2509.29,-248.95 2502.69,-246.6"/>
</g>
<!-- Node31 -->
<g id="node31" class="node">
<title>Node31</title>
<g id="a_node31"><a xlink:href="_rendering_system_8hpp.html" target="_top" xlink:title=" ">
<polygon fill="white" stroke="black" points="2565.5,-201.5 2565.5,-220.5 2751.5,-220.5 2751.5,-201.5 2565.5,-201.5"/>
<text text-anchor="middle" x="2658.5" y="-208.5" font-family="Helvetica,sans-Serif" font-size="10.00">src/Systems/RenderingSystem.hpp</text>
</a>
</g>
</g>
<!-- Node1&#45;&gt;Node31 -->
<g id="edge62" class="edge">
<title>Node1&#45;&gt;Node31</title>
<path fill="none" stroke="midnightblue" d="M2534.33,-254.17C2564.27,-244 2606.72,-229.59 2633.42,-220.52"/>
<polygon fill="midnightblue" stroke="midnightblue" points="2533.04,-250.91 2524.69,-257.44 2535.29,-257.54 2533.04,-250.91"/>
</g>
<!-- Node3 -->
<g id="node3" class="node">
<title>Node3</title>
<g id="a_node3"><a xlink:href="_ambient_light_component_8hpp.html" target="_top" xlink:title=" ">
<polygon fill="white" stroke="black" points="2296.5,-67.5 2296.5,-97.5 2460.5,-97.5 2460.5,-67.5 2296.5,-67.5"/>
<text text-anchor="start" x="2304.5" y="-85.5" font-family="Helvetica,sans-Serif" font-size="10.00">src/Components/AmbientLight</text>
<text text-anchor="middle" x="2378.5" y="-74.5" font-family="Helvetica,sans-Serif" font-size="10.00">Component.hpp</text>
</a>
</g>
</g>
<!-- Node2&#45;&gt;Node3 -->
<g id="edge2" class="edge">
<title>Node2&#45;&gt;Node3</title>
<path fill="none" stroke="midnightblue" d="M1653.47,-199.95C1713.08,-190.96 1802.64,-177.33 1880.5,-165 2026.95,-141.81 2197.43,-113.66 2296.15,-97.24"/>
<polygon fill="midnightblue" stroke="midnightblue" points="1652.8,-196.51 1643.44,-201.46 1653.85,-203.43 1652.8,-196.51"/>
</g>
<!-- Node7 -->
<g id="node7" class="node">
<title>Node7</title>
<g id="a_node7"><a xlink:href="_box_collider_component_8hpp.html" target="_top" xlink:title=" ">
<polygon fill="white" stroke="black" points="341,-67.5 341,-97.5 496,-97.5 496,-67.5 341,-67.5"/>
<text text-anchor="start" x="349" y="-85.5" font-family="Helvetica,sans-Serif" font-size="10.00">src/Components/BoxCollider</text>
<text text-anchor="middle" x="418.5" y="-74.5" font-family="Helvetica,sans-Serif" font-size="10.00">Component.hpp</text>
</a>
</g>
</g>
<!-- Node2&#45;&gt;Node7 -->
<g id="edge6" class="edge">
<title>Node2&#45;&gt;Node7</title>
<path fill="none" stroke="midnightblue" d="M1476.24,-207.69C1271.85,-202.88 841.62,-190.07 694.5,-165 607.08,-150.1 508.2,-116.68 455.78,-97.59"/>
<polygon fill="midnightblue" stroke="midnightblue" points="1476.31,-211.2 1486.39,-207.93 1476.48,-204.2 1476.31,-211.2"/>
</g>
<!-- Node11 -->
<g id="node11" class="node">
<title>Node11</title>
<g id="a_node11"><a xlink:href="_directional_light_component_8hpp.html" target="_top" xlink:title=" ">
<polygon fill="white" stroke="black" points="1920.5,-67.5 1920.5,-97.5 2072.5,-97.5 2072.5,-67.5 1920.5,-67.5"/>
<text text-anchor="start" x="1928.5" y="-85.5" font-family="Helvetica,sans-Serif" font-size="10.00">src/Components/Directional</text>
<text text-anchor="middle" x="1996.5" y="-74.5" font-family="Helvetica,sans-Serif" font-size="10.00">LightComponent.hpp</text>
</a>
</g>
</g>
<!-- Node2&#45;&gt;Node11 -->
<g id="edge11" class="edge">
<title>Node2&#45;&gt;Node11</title>
<path fill="none" stroke="midnightblue" d="M1603.83,-194.6C1628.27,-172.94 1670.36,-135.91 1674.5,-134 1771.27,-89.44 1806.32,-114.96 1911.5,-98 1914.31,-97.55 1917.17,-97.08 1920.06,-96.61"/>
<polygon fill="midnightblue" stroke="midnightblue" points="1601.46,-192.02 1596.3,-201.28 1606.11,-197.26 1601.46,-192.02"/>
</g>
<!-- Node13 -->
<g id="node13" class="node">
<title>Node13</title>
<g id="a_node13"><a xlink:href="_model_component_8hpp.html" target="_top" xlink:title=" ">
<polygon fill="white" stroke="black" points="1224.5,-73 1224.5,-92 1430.5,-92 1430.5,-73 1224.5,-73"/>
<text text-anchor="middle" x="1327.5" y="-80" font-family="Helvetica,sans-Serif" font-size="10.00">src/Components/ModelComponent.hpp</text>
</a>
</g>
</g>
<!-- Node2&#45;&gt;Node13 -->
<g id="edge16" class="edge">
<title>Node2&#45;&gt;Node13</title>
<path fill="none" stroke="midnightblue" d="M1559.55,-196.84C1506.43,-170.89 1389.5,-113.78 1345.08,-92.09"/>
<polygon fill="midnightblue" stroke="midnightblue" points="1558.18,-200.06 1568.7,-201.31 1561.25,-193.77 1558.18,-200.06"/>
</g>
<!-- Node16 -->
<g id="node16" class="node">
<title>Node16</title>
<g id="a_node16"><a xlink:href="_name_component_8hpp.html" target="_top" xlink:title=" ">
<polygon fill="white" stroke="black" points="118,-73 118,-92 323,-92 323,-73 118,-73"/>
<text text-anchor="middle" x="220.5" y="-80" font-family="Helvetica,sans-Serif" font-size="10.00">src/Components/NameComponent.hpp</text>
</a>
</g>
</g>
<!-- Node2&#45;&gt;Node16 -->
<g id="edge23" class="edge">
<title>Node2&#45;&gt;Node16</title>
<path fill="none" stroke="midnightblue" d="M1476.2,-207.71C1250.13,-202.61 740.99,-188.8 568.5,-165 448.02,-148.38 308.03,-109.43 249.03,-92.09"/>
<polygon fill="midnightblue" stroke="midnightblue" points="1476.34,-211.22 1486.42,-207.94 1476.5,-204.22 1476.34,-211.22"/>
</g>
<!-- Node19 -->
<g id="node19" class="node">
<title>Node19</title>
<g id="a_node19"><a xlink:href="_point_light_component_8hpp.html" target="_top" xlink:title=" ">
<polygon fill="white" stroke="black" points="1755,-67.5 1755,-97.5 1902,-97.5 1902,-67.5 1755,-67.5"/>
<text text-anchor="start" x="1763" y="-85.5" font-family="Helvetica,sans-Serif" font-size="10.00">src/Components/PointLight</text>
<text text-anchor="middle" x="1828.5" y="-74.5" font-family="Helvetica,sans-Serif" font-size="10.00">Component.hpp</text>
</a>
</g>
</g>
<!-- Node2&#45;&gt;Node19 -->
<g id="edge28" class="edge">
<title>Node2&#45;&gt;Node19</title>
<path fill="none" stroke="midnightblue" d="M1593.81,-191.85C1601.76,-174.42 1616.11,-148.65 1636.5,-134 1670.93,-109.26 1716.6,-96.64 1754.76,-90.2"/>
<polygon fill="midnightblue" stroke="midnightblue" points="1590.42,-190.87 1589.7,-201.44 1596.85,-193.63 1590.42,-190.87"/>
</g>
<!-- Node21 -->
<g id="node21" class="node">
<title>Node21</title>
<g id="a_node21"><a xlink:href="_skybox_component_8hpp.html" target="_top" xlink:title=" ">
<polygon fill="white" stroke="black" points="1487,-73 1487,-92 1698,-92 1698,-73 1487,-73"/>
<text text-anchor="middle" x="1592.5" y="-80" font-family="Helvetica,sans-Serif" font-size="10.00">src/Components/SkyboxComponent.hpp</text>
</a>
</g>
</g>
<!-- Node2&#45;&gt;Node21 -->
<g id="edge33" class="edge">
<title>Node2&#45;&gt;Node21</title>
<path fill="none" stroke="midnightblue" d="M1587.39,-191.31C1588.7,-163.58 1591.12,-112.63 1592.08,-92.26"/>
<polygon fill="midnightblue" stroke="midnightblue" points="1583.89,-191.15 1586.91,-201.31 1590.88,-191.48 1583.89,-191.15"/>
</g>
<!-- Node22 -->
<g id="node22" class="node">
<title>Node22</title>
<g id="a_node22"><a xlink:href="_transform_component_8hpp.html" target="_top" xlink:title=" ">
<polygon fill="white" stroke="black" points="703,-134.5 703,-164.5 850,-164.5 850,-134.5 703,-134.5"/>
<text text-anchor="start" x="711" y="-152.5" font-family="Helvetica,sans-Serif" font-size="10.00">src/Components/Transform</text>
<text text-anchor="middle" x="776.5" y="-141.5" font-family="Helvetica,sans-Serif" font-size="10.00">Component.hpp</text>
</a>
</g>
</g>
<!-- Node2&#45;&gt;Node22 -->
<g id="edge37" class="edge">
<title>Node2&#45;&gt;Node22</title>
<path fill="none" stroke="midnightblue" d="M1476.26,-201.9C1308.33,-189.57 992.9,-166.4 850.09,-155.91"/>
<polygon fill="midnightblue" stroke="midnightblue" points="1476.14,-205.4 1486.37,-202.64 1476.65,-198.42 1476.14,-205.4"/>
</g>
<!-- Node26 -->
<g id="node26" class="node">
<title>Node26</title>
<g id="a_node26"><a xlink:href="_wireframe_component_8hpp.html" target="_top" xlink:title=" ">
<polygon fill="white" stroke="black" points="2090.5,-67.5 2090.5,-97.5 2240.5,-97.5 2240.5,-67.5 2090.5,-67.5"/>
<text text-anchor="start" x="2098.5" y="-85.5" font-family="Helvetica,sans-Serif" font-size="10.00">src/Components/Wireframe</text>
<text text-anchor="middle" x="2165.5" y="-74.5" font-family="Helvetica,sans-Serif" font-size="10.00">Component.hpp</text>
</a>
</g>
</g>
<!-- Node2&#45;&gt;Node26 -->
<g id="edge53" class="edge">
<title>Node2&#45;&gt;Node26</title>
<path fill="none" stroke="midnightblue" d="M1635.82,-199.22C1740.5,-176.35 1984.81,-122.98 2101.39,-97.51"/>
<polygon fill="midnightblue" stroke="midnightblue" points="1634.86,-195.85 1625.84,-201.4 1636.36,-202.69 1634.86,-195.85"/>
</g>
<!-- Node3&#45;&gt;Node4 -->
<g id="edge3" class="edge">
<title>Node3&#45;&gt;Node4</title>
<path fill="none" stroke="midnightblue" d="M2286.06,-70.51C2273.78,-69.23 2261.34,-68.02 2249.5,-67 1979.79,-43.87 1908.13,-77.71 1641.5,-31 1633.55,-29.61 1625.06,-27.37 1617.42,-25.07"/>
<polygon fill="midnightblue" stroke="midnightblue" points="2286.01,-74.03 2296.33,-71.61 2286.76,-67.07 2286.01,-74.03"/>
</g>
<!-- Node5 -->
<g id="node5" class="node">
<title>Node5</title>
<g id="a_node5"><a xlink:href="_rendering_system_8cpp.html" target="_top" xlink:title=" ">
<polygon fill="white" stroke="black" points="1827,-6 1827,-25 2012,-25 2012,-6 1827,-6"/>
<text text-anchor="middle" x="1919.5" y="-13" font-family="Helvetica,sans-Serif" font-size="10.00">src/Systems/RenderingSystem.cpp</text>
</a>
</g>
</g>
<!-- Node3&#45;&gt;Node5 -->
<g id="edge4" class="edge">
<title>Node3&#45;&gt;Node5</title>
<path fill="none" stroke="midnightblue" d="M2286.33,-67.55C2285.04,-67.37 2283.77,-67.18 2282.5,-67 2166.61,-50.26 2137.47,-47.24 2021.5,-31 2007.77,-29.08 1993.01,-26.99 1979.09,-25.01"/>
<polygon fill="midnightblue" stroke="midnightblue" points="2285.89,-71.03 2296.29,-69.01 2286.9,-64.1 2285.89,-71.03"/>
</g>
<!-- Node6 -->
<g id="node6" class="node">
<title>Node6</title>
<g id="a_node6"><a xlink:href="_ambient_light_component_u_i_8hpp.html" target="_top" xlink:title=" ">
<polygon fill="white" stroke="black" points="2392.5,-0.5 2392.5,-30.5 2544.5,-30.5 2544.5,-0.5 2392.5,-0.5"/>
<text text-anchor="start" x="2400.5" y="-18.5" font-family="Helvetica,sans-Serif" font-size="10.00">src/ui/Components/Ambient</text>
<text text-anchor="middle" x="2468.5" y="-7.5" font-family="Helvetica,sans-Serif" font-size="10.00">LightComponentUI.hpp</text>
</a>
</g>
</g>
<!-- Node3&#45;&gt;Node6 -->
<g id="edge5" class="edge">
<title>Node3&#45;&gt;Node6</title>
<path fill="none" stroke="midnightblue" d="M2406.26,-61.45C2420.11,-51.45 2436.52,-39.6 2449.01,-30.58"/>
<polygon fill="midnightblue" stroke="midnightblue" points="2404.09,-58.7 2398.03,-67.4 2408.18,-64.38 2404.09,-58.7"/>
</g>
<!-- Node7&#45;&gt;Node4 -->
<g id="edge7" class="edge">
<title>Node7&#45;&gt;Node4</title>
<path fill="none" stroke="midnightblue" d="M506.63,-72.83C530.87,-70.67 557.19,-68.53 581.5,-67 1008.95,-40.02 1122.04,-101.5 1544.5,-31 1552.4,-29.68 1560.82,-27.44 1568.37,-25.1"/>
<polygon fill="midnightblue" stroke="midnightblue" points="506.02,-69.37 496.37,-73.75 506.65,-76.34 506.02,-69.37"/>
</g>
<!-- Node8 -->
<g id="node8" class="node">
<title>Node8</title>
<g id="a_node8"><a xlink:href="_object_selection_system_8cpp.html" target="_top" xlink:title=" ">
<polygon fill="white" stroke="black" points="623,-0.5 623,-30.5 778,-30.5 778,-0.5 623,-0.5"/>
<text text-anchor="start" x="631" y="-18.5" font-family="Helvetica,sans-Serif" font-size="10.00">src/Systems/ObjectSelection</text>
<text text-anchor="middle" x="700.5" y="-7.5" font-family="Helvetica,sans-Serif" font-size="10.00">System.cpp</text>
</a>
</g>
</g>
<!-- Node7&#45;&gt;Node8 -->
<g id="edge8" class="edge">
<title>Node7&#45;&gt;Node8</title>
<path fill="none" stroke="midnightblue" d="M489.28,-65.19C535.46,-54.54 595.14,-40.78 639.28,-30.61"/>
<polygon fill="midnightblue" stroke="midnightblue" points="488.3,-61.82 479.34,-67.48 489.87,-68.64 488.3,-61.82"/>
</g>
<!-- Node9 -->
<g id="node9" class="node">
<title>Node9</title>
<g id="a_node9"><a xlink:href="_model_component_u_i_8cpp.html" target="_top" xlink:title=" ">
<polygon fill="white" stroke="black" points="386,-0.5 386,-30.5 583,-30.5 583,-0.5 386,-0.5"/>
<text text-anchor="start" x="394" y="-18.5" font-family="Helvetica,sans-Serif" font-size="10.00">src/ui/Components/ModelComponent</text>
<text text-anchor="middle" x="484.5" y="-7.5" font-family="Helvetica,sans-Serif" font-size="10.00">UI.cpp</text>
</a>
</g>
</g>
<!-- Node7&#45;&gt;Node9 -->
<g id="edge9" class="edge">
<title>Node7&#45;&gt;Node9</title>
<path fill="none" stroke="midnightblue" d="M440.01,-60.31C449.91,-50.56 461.39,-39.26 470.21,-30.58"/>
<polygon fill="midnightblue" stroke="midnightblue" points="437.49,-57.89 432.82,-67.4 442.4,-62.87 437.49,-57.89"/>
</g>
<!-- Node10 -->
<g id="node10" class="node">
<title>Node10</title>
<g id="a_node10"><a xlink:href="_properties_widget_8cpp.html" target="_top" xlink:title=" ">
<polygon fill="white" stroke="black" points="1398,-0.5 1398,-30.5 1535,-30.5 1535,-0.5 1398,-0.5"/>
<text text-anchor="start" x="1406" y="-18.5" font-family="Helvetica,sans-Serif" font-size="10.00">src/ui/widgets/Properties</text>
<text text-anchor="middle" x="1466.5" y="-7.5" font-family="Helvetica,sans-Serif" font-size="10.00">Widget.cpp</text>
</a>
</g>
</g>
<!-- Node7&#45;&gt;Node10 -->
<g id="edge10" class="edge">
<title>Node7&#45;&gt;Node10</title>
<path fill="none" stroke="midnightblue" d="M506.29,-70.88C520.39,-69.42 534.84,-68.05 548.5,-67 921.51,-38.25 1017.83,-73.73 1389.5,-31 1392.2,-30.69 1394.95,-30.34 1397.73,-29.96"/>
<polygon fill="midnightblue" stroke="midnightblue" points="505.67,-67.43 496.1,-71.97 506.41,-74.39 505.67,-67.43"/>
</g>
<!-- Node11&#45;&gt;Node4 -->
<g id="edge12" class="edge">
<title>Node11&#45;&gt;Node4</title>
<path fill="none" stroke="midnightblue" d="M1910.12,-66.84C1790.07,-49.19 1756.78,-55.59 1641.5,-31 1633.95,-29.39 1625.87,-27.2 1618.5,-25.01"/>
<polygon fill="midnightblue" stroke="midnightblue" points="1909.66,-70.31 1920.07,-68.33 1910.69,-63.39 1909.66,-70.31"/>
</g>
<!-- Node11&#45;&gt;Node5 -->
<g id="edge13" class="edge">
<title>Node11&#45;&gt;Node5</title>
<path fill="none" stroke="midnightblue" d="M1971.83,-60.67C1957.61,-48.67 1940.49,-34.22 1929.8,-25.19"/>
<polygon fill="midnightblue" stroke="midnightblue" points="1969.89,-63.62 1979.79,-67.4 1974.41,-58.27 1969.89,-63.62"/>
</g>
<!-- Node11&#45;&gt;Node10 -->
<g id="edge15" class="edge">
<title>Node11&#45;&gt;Node10</title>
<path fill="none" stroke="midnightblue" d="M1909.72,-66.83C1747.28,-45.55 1703.44,-53.53 1544.5,-31 1541.5,-30.57 1538.44,-30.12 1535.35,-29.63"/>
<polygon fill="midnightblue" stroke="midnightblue" points="1909.71,-70.35 1920.08,-68.2 1910.63,-63.41 1909.71,-70.35"/>
</g>
<!-- Node12 -->
<g id="node12" class="node">
<title>Node12</title>
<g id="a_node12"><a xlink:href="_directional_light_component_u_i_8hpp.html" target="_top" xlink:title=" ">
<polygon fill="white" stroke="black" points="2030.5,-0.5 2030.5,-30.5 2194.5,-30.5 2194.5,-0.5 2030.5,-0.5"/>
<text text-anchor="start" x="2038.5" y="-18.5" font-family="Helvetica,sans-Serif" font-size="10.00">src/ui/Components/Directional</text>
<text text-anchor="middle" x="2112.5" y="-7.5" font-family="Helvetica,sans-Serif" font-size="10.00">LightComponentUI.hpp</text>
</a>
</g>
</g>
<!-- Node11&#45;&gt;Node12 -->
<g id="edge14" class="edge">
<title>Node11&#45;&gt;Node12</title>
<path fill="none" stroke="midnightblue" d="M2030.77,-62.3C2048.92,-52.12 2070.82,-39.85 2087.38,-30.58"/>
<polygon fill="midnightblue" stroke="midnightblue" points="2028.68,-59.45 2021.67,-67.4 2032.1,-65.56 2028.68,-59.45"/>
</g>
<!-- Node13&#45;&gt;Node4 -->
<g id="edge17" class="edge">
<title>Node13&#45;&gt;Node4</title>
<path fill="none" stroke="midnightblue" d="M1377.59,-70.81C1421.72,-61.16 1487.64,-46.19 1544.5,-31 1551.31,-29.18 1558.62,-27.06 1565.43,-25.01"/>
<polygon fill="midnightblue" stroke="midnightblue" points="1376.71,-67.42 1367.69,-72.96 1378.2,-74.26 1376.71,-67.42"/>
</g>
<!-- Node13&#45;&gt;Node5 -->
<g id="edge20" class="edge">
<title>Node13&#45;&gt;Node5</title>
<path fill="none" stroke="midnightblue" d="M1424.38,-72C1545.14,-60.08 1744.67,-40.09 1818.5,-31 1832.92,-29.22 1848.46,-27.1 1862.93,-25.03"/>
<polygon fill="midnightblue" stroke="midnightblue" points="1423.99,-68.52 1414.38,-72.99 1424.68,-75.49 1423.99,-68.52"/>
</g>
<!-- Node13&#45;&gt;Node8 -->
<g id="edge19" class="edge">
<title>Node13&#45;&gt;Node8</title>
<path fill="none" stroke="midnightblue" d="M1255.34,-71.72C1242.1,-70.05 1228.39,-68.4 1215.5,-67 1034.97,-47.34 988.98,-51.09 808.5,-31 798.63,-29.9 788.26,-28.64 778.02,-27.34"/>
<polygon fill="midnightblue" stroke="midnightblue" points="1254.99,-75.2 1265.35,-73 1255.87,-68.26 1254.99,-75.2"/>
</g>
<!-- Node13&#45;&gt;Node10 -->
<g id="edge22" class="edge">
<title>Node13&#45;&gt;Node10</title>
<path fill="none" stroke="midnightblue" d="M1355.04,-68.62C1378.56,-57.63 1412.31,-41.84 1436.5,-30.53"/>
<polygon fill="midnightblue" stroke="midnightblue" points="1353.53,-65.46 1345.96,-72.87 1356.5,-71.8 1353.53,-65.46"/>
</g>
<!-- Node14 -->
<g id="node14" class="node">
<title>Node14</title>
<g id="a_node14"><a xlink:href="_development_renderer_system_8cpp.html" target="_top" xlink:title=" ">
<polygon fill="white" stroke="black" points="817,-0.5 817,-30.5 1006,-30.5 1006,-0.5 817,-0.5"/>
<text text-anchor="start" x="825" y="-18.5" font-family="Helvetica,sans-Serif" font-size="10.00">src/Systems/DevelopmentRenderer</text>
<text text-anchor="middle" x="911.5" y="-7.5" font-family="Helvetica,sans-Serif" font-size="10.00">System.cpp</text>
</a>
</g>
</g>
<!-- Node13&#45;&gt;Node14 -->
<g id="edge18" class="edge">
<title>Node13&#45;&gt;Node14</title>
<path fill="none" stroke="midnightblue" d="M1262.65,-71.37C1192.5,-60.41 1080.15,-42.85 1001.48,-30.56"/>
<polygon fill="midnightblue" stroke="midnightblue" points="1262.27,-74.85 1272.69,-72.94 1263.35,-67.93 1262.27,-74.85"/>
</g>
<!-- Node15 -->
<g id="node15" class="node">
<title>Node15</title>
<g id="a_node15"><a xlink:href="_model_component_u_i_8hpp.html" target="_top" xlink:title=" ">
<polygon fill="white" stroke="black" points="1183,-0.5 1183,-30.5 1380,-30.5 1380,-0.5 1183,-0.5"/>
<text text-anchor="start" x="1191" y="-18.5" font-family="Helvetica,sans-Serif" font-size="10.00">src/ui/Components/ModelComponent</text>
<text text-anchor="middle" x="1281.5" y="-7.5" font-family="Helvetica,sans-Serif" font-size="10.00">UI.hpp</text>
</a>
</g>
</g>
<!-- Node13&#45;&gt;Node15 -->
<g id="edge21" class="edge">
<title>Node13&#45;&gt;Node15</title>
<path fill="none" stroke="midnightblue" d="M1315.37,-64.35C1307.91,-53.82 1298.49,-40.5 1291.47,-30.59"/>
<polygon fill="midnightblue" stroke="midnightblue" points="1312.66,-66.59 1321.3,-72.73 1318.38,-62.55 1312.66,-66.59"/>
</g>
<!-- Node16&#45;&gt;Node4 -->
<g id="edge24" class="edge">
<title>Node16&#45;&gt;Node4</title>
<path fill="none" stroke="midnightblue" d="M287.1,-71.7C301.7,-69.86 317.1,-68.15 331.5,-67 600.32,-45.51 1278.34,-74.37 1544.5,-31 1552.4,-29.71 1560.83,-27.48 1568.37,-25.14"/>
<polygon fill="midnightblue" stroke="midnightblue" points="286.61,-68.23 277.14,-72.99 287.51,-75.17 286.61,-68.23"/>
</g>
<!-- Node16&#45;&gt;Node10 -->
<g id="edge26" class="edge">
<title>Node16&#45;&gt;Node10</title>
<path fill="none" stroke="midnightblue" d="M287.76,-71.66C302.17,-69.85 317.32,-68.17 331.5,-67 800.42,-28.48 921.85,-82.68 1389.5,-31 1392.2,-30.7 1394.96,-30.36 1397.73,-29.99"/>
<polygon fill="midnightblue" stroke="midnightblue" points="286.9,-68.24 277.43,-73 287.79,-75.19 286.9,-68.24"/>
</g>
<!-- Node17 -->
<g id="node17" class="node">
<title>Node17</title>
<g id="a_node17"><a xlink:href="_objects_widget_8cpp.html" target="_top" xlink:title=" ">
<polygon fill="white" stroke="black" points="0,-6 0,-25 179,-25 179,-6 0,-6"/>
<text text-anchor="middle" x="89.5" y="-13" font-family="Helvetica,sans-Serif" font-size="10.00">src/ui/widgets/ObjectsWidget.cpp</text>
</a>
</g>
</g>
<!-- Node16&#45;&gt;Node17 -->
<g id="edge25" class="edge">
<title>Node16&#45;&gt;Node17</title>
<path fill="none" stroke="midnightblue" d="M193.84,-68.27C167.9,-55.4 129.22,-36.21 106.97,-25.17"/>
<polygon fill="midnightblue" stroke="midnightblue" points="192.59,-71.56 203.1,-72.87 195.7,-65.29 192.59,-71.56"/>
</g>
<!-- Node18 -->
<g id="node18" class="node">
<title>Node18</title>
<g id="a_node18"><a xlink:href="_scene_widget_8cpp.html" target="_top" xlink:title=" ">
<polygon fill="white" stroke="black" points="197,-6 197,-25 368,-25 368,-6 197,-6"/>
<text text-anchor="middle" x="282.5" y="-13" font-family="Helvetica,sans-Serif" font-size="10.00">src/ui/widgets/SceneWidget.cpp</text>
</a>
</g>
</g>
<!-- Node16&#45;&gt;Node18 -->
<g id="edge27" class="edge">
<title>Node16&#45;&gt;Node18</title>
<path fill="none" stroke="midnightblue" d="M235.76,-65.5C247.92,-52.75 264.48,-35.39 274.27,-25.13"/>
<polygon fill="midnightblue" stroke="midnightblue" points="233.23,-63.08 228.86,-72.73 238.3,-67.91 233.23,-63.08"/>
</g>
<!-- Node19&#45;&gt;Node4 -->
<g id="edge29" class="edge">
<title>Node19&#45;&gt;Node4</title>
<path fill="none" stroke="midnightblue" d="M1765.26,-64.82C1728.98,-55.16 1682.61,-42.63 1641.5,-31 1634.84,-29.12 1627.69,-27.03 1620.97,-25.05"/>
<polygon fill="midnightblue" stroke="midnightblue" points="1764.64,-68.28 1775.21,-67.47 1766.44,-61.52 1764.64,-68.28"/>
</g>
<!-- Node19&#45;&gt;Node5 -->
<g id="edge30" class="edge">
<title>Node19&#45;&gt;Node5</title>
<path fill="none" stroke="midnightblue" d="M1856.77,-61.31C1873.86,-49.1 1894.75,-34.18 1907.59,-25.01"/>
<polygon fill="midnightblue" stroke="midnightblue" points="1854.35,-58.74 1848.25,-67.4 1858.42,-64.43 1854.35,-58.74"/>
</g>
<!-- Node19&#45;&gt;Node10 -->
<g id="edge32" class="edge">
<title>Node19&#45;&gt;Node10</title>
<path fill="none" stroke="midnightblue" d="M1744.94,-66.82C1688.35,-56.83 1611.9,-43.26 1544.5,-31 1541.52,-30.46 1538.47,-29.9 1535.4,-29.34"/>
<polygon fill="midnightblue" stroke="midnightblue" points="1744.46,-70.29 1754.92,-68.58 1745.68,-63.39 1744.46,-70.29"/>
</g>
<!-- Node20 -->
<g id="node20" class="node">
<title>Node20</title>
<g id="a_node20"><a xlink:href="_point_light_component_u_i_8hpp.html" target="_top" xlink:title=" ">
<polygon fill="white" stroke="black" points="1650,-0.5 1650,-30.5 1809,-30.5 1809,-0.5 1650,-0.5"/>
<text text-anchor="start" x="1658" y="-18.5" font-family="Helvetica,sans-Serif" font-size="10.00">src/ui/Components/PointLight</text>
<text text-anchor="middle" x="1729.5" y="-7.5" font-family="Helvetica,sans-Serif" font-size="10.00">ComponentUI.hpp</text>
</a>
</g>
</g>
<!-- Node19&#45;&gt;Node20 -->
<g id="edge31" class="edge">
<title>Node19&#45;&gt;Node20</title>
<path fill="none" stroke="midnightblue" d="M1798.39,-61.73C1783.08,-51.68 1764.81,-39.68 1750.94,-30.58"/>
<polygon fill="midnightblue" stroke="midnightblue" points="1796.74,-64.83 1807.02,-67.4 1800.58,-58.98 1796.74,-64.83"/>
</g>
<!-- Node21&#45;&gt;Node4 -->
<g id="edge34" class="edge">
<title>Node21&#45;&gt;Node4</title>
<path fill="none" stroke="midnightblue" d="M1592.5,-62.54C1592.5,-50.17 1592.5,-34.62 1592.5,-25.13"/>
<polygon fill="midnightblue" stroke="midnightblue" points="1589,-62.73 1592.5,-72.73 1596,-62.73 1589,-62.73"/>
</g>
<!-- Node21&#45;&gt;Node5 -->
<g id="edge35" class="edge">
<title>Node21&#45;&gt;Node5</title>
<path fill="none" stroke="midnightblue" d="M1645.53,-70.96C1709.89,-58.16 1817.16,-36.84 1876.58,-25.03"/>
<polygon fill="midnightblue" stroke="midnightblue" points="1644.71,-67.55 1635.59,-72.94 1646.08,-74.42 1644.71,-67.55"/>
</g>
<!-- Node21&#45;&gt;Node10 -->
<g id="edge36" class="edge">
<title>Node21&#45;&gt;Node10</title>
<path fill="none" stroke="midnightblue" d="M1566.71,-68.19C1545.51,-57.26 1515.56,-41.81 1493.93,-30.65"/>
<polygon fill="midnightblue" stroke="midnightblue" points="1565.28,-71.39 1575.77,-72.87 1568.49,-65.17 1565.28,-71.39"/>
</g>
<!-- Node22&#45;&gt;Node4 -->
<g id="edge45" class="edge">
<title>Node22&#45;&gt;Node4</title>
<path fill="none" stroke="midnightblue" d="M860.54,-148.2C1014.69,-146.65 1336.29,-138.49 1439.5,-98 1460.11,-89.91 1459.56,-78.47 1478.5,-67 1507.94,-49.18 1544.79,-34.01 1568.48,-25.08"/>
<polygon fill="midnightblue" stroke="midnightblue" points="860.15,-144.7 850.19,-148.3 860.22,-151.7 860.15,-144.7"/>
</g>
<!-- Node22&#45;&gt;Node5 -->
<g id="edge49" class="edge">
<title>Node22&#45;&gt;Node5</title>
<path fill="none" stroke="midnightblue" d="M860.42,-147.19C1169.15,-142.15 2225.22,-123.13 2249.5,-98 2259.07,-88.09 2258.48,-77.45 2249.5,-67 2247.3,-64.43 2072.7,-38.74 1978.39,-25.02"/>
<polygon fill="midnightblue" stroke="midnightblue" points="860.14,-143.69 850.19,-147.35 860.25,-150.69 860.14,-143.69"/>
</g>
<!-- Node22&#45;&gt;Node7 -->
<g id="edge38" class="edge">
<title>Node22&#45;&gt;Node7</title>
<path fill="none" stroke="midnightblue" d="M692.64,-133.27C633.13,-122.47 553.85,-108.08 495.86,-97.55"/>
<polygon fill="midnightblue" stroke="midnightblue" points="692.29,-136.77 702.76,-135.11 693.54,-129.88 692.29,-136.77"/>
</g>
<!-- Node22&#45;&gt;Node8 -->
<g id="edge48" class="edge">
<title>Node22&#45;&gt;Node8</title>
<path fill="none" stroke="midnightblue" d="M692.67,-140.83C635.36,-133.66 566.61,-120.56 548.5,-98 521.56,-64.43 572.8,-42.87 622.92,-30.41"/>
<polygon fill="midnightblue" stroke="midnightblue" points="692.51,-144.34 702.86,-142.06 693.35,-137.39 692.51,-144.34"/>
</g>
<!-- Node22&#45;&gt;Node10 -->
<g id="edge52" class="edge">
<title>Node22&#45;&gt;Node10</title>
<path fill="none" stroke="midnightblue" d="M692.79,-139.9C623.33,-129.67 541.86,-108.45 581.5,-67 612.56,-34.53 1344.87,-36.17 1389.5,-31 1392.2,-30.69 1394.95,-30.33 1397.73,-29.95"/>
<polygon fill="midnightblue" stroke="midnightblue" points="692.54,-143.4 702.93,-141.34 693.52,-136.47 692.54,-143.4"/>
</g>
<!-- Node22&#45;&gt;Node14 -->
<g id="edge47" class="edge">
<title>Node22&#45;&gt;Node14</title>
<path fill="none" stroke="midnightblue" d="M776.56,-124.31C777.82,-106.61 782.18,-82.99 795.5,-67 809.91,-49.7 831.38,-38.16 851.94,-30.54"/>
<polygon fill="midnightblue" stroke="midnightblue" points="773.05,-124.3 776.12,-134.44 780.05,-124.6 773.05,-124.3"/>
</g>
<!-- Node22&#45;&gt;Node17 -->
<g id="edge51" class="edge">
<title>Node22&#45;&gt;Node17</title>
<path fill="none" stroke="midnightblue" d="M692.65,-147.62C523.11,-145.06 151.93,-135.23 108.5,-98 86.99,-79.56 87.22,-41.93 88.56,-25.04"/>
<polygon fill="midnightblue" stroke="midnightblue" points="692.73,-151.12 702.78,-147.77 692.83,-144.12 692.73,-151.12"/>
</g>
<!-- Node23 -->
<g id="node23" class="node">
<title>Node23</title>
<g id="a_node23"><a xlink:href="_camera_component_8hpp.html" target="_top" xlink:title=" ">
<polygon fill="white" stroke="black" points="804.5,-73 804.5,-92 1018.5,-92 1018.5,-73 804.5,-73"/>
<text text-anchor="middle" x="911.5" y="-80" font-family="Helvetica,sans-Serif" font-size="10.00">src/Components/CameraComponent.hpp</text>
</a>
</g>
</g>
<!-- Node22&#45;&gt;Node23 -->
<g id="edge39" class="edge">
<title>Node22&#45;&gt;Node23</title>
<path fill="none" stroke="midnightblue" d="M814.99,-129.97C840.92,-117.48 873.91,-101.6 893.83,-92.01"/>
<polygon fill="midnightblue" stroke="midnightblue" points="813.28,-126.9 805.79,-134.4 816.32,-133.21 813.28,-126.9"/>
</g>
<!-- Node24 -->
<g id="node24" class="node">
<title>Node24</title>
<g id="a_node24"><a xlink:href="_camera_movement_system_8cpp.html" target="_top" xlink:title=" ">
<polygon fill="white" stroke="black" points="1036.5,-67.5 1036.5,-97.5 1206.5,-97.5 1206.5,-67.5 1036.5,-67.5"/>
<text text-anchor="start" x="1044.5" y="-85.5" font-family="Helvetica,sans-Serif" font-size="10.00">src/Systems/CameraMovement</text>
<text text-anchor="middle" x="1121.5" y="-74.5" font-family="Helvetica,sans-Serif" font-size="10.00">System.cpp</text>
</a>
</g>
</g>
<!-- Node22&#45;&gt;Node24 -->
<g id="edge46" class="edge">
<title>Node22&#45;&gt;Node24</title>
<path fill="none" stroke="midnightblue" d="M860.17,-132.74C917.24,-121.98 992.15,-107.87 1047.13,-97.51"/>
<polygon fill="midnightblue" stroke="midnightblue" points="859.27,-129.34 850.09,-134.64 860.56,-136.22 859.27,-129.34"/>
</g>
<!-- Node25 -->
<g id="node25" class="node">
<title>Node25</title>
<g id="a_node25"><a xlink:href="_transform_component_u_i_8hpp.html" target="_top" xlink:title=" ">
<polygon fill="white" stroke="black" points="590,-67.5 590,-97.5 749,-97.5 749,-67.5 590,-67.5"/>
<text text-anchor="start" x="598" y="-85.5" font-family="Helvetica,sans-Serif" font-size="10.00">src/ui/Components/Transform</text>
<text text-anchor="middle" x="669.5" y="-74.5" font-family="Helvetica,sans-Serif" font-size="10.00">ComponentUI.hpp</text>
</a>
</g>
</g>
<!-- Node22&#45;&gt;Node25 -->
<g id="edge50" class="edge">
<title>Node22&#45;&gt;Node25</title>
<path fill="none" stroke="midnightblue" d="M744.42,-129.02C727.77,-118.9 707.81,-106.77 692.67,-97.58"/>
<polygon fill="midnightblue" stroke="midnightblue" points="742.92,-132.2 753.28,-134.4 746.55,-126.21 742.92,-132.2"/>
</g>
<!-- Node23&#45;&gt;Node4 -->
<g id="edge40" class="edge">
<title>Node23&#45;&gt;Node4</title>
<path fill="none" stroke="midnightblue" d="M984.82,-71.72C998.97,-70 1013.68,-68.34 1027.5,-67 1256.75,-44.71 1317.95,-72.56 1544.5,-31 1552.21,-29.59 1560.43,-27.37 1567.85,-25.1"/>
<polygon fill="midnightblue" stroke="midnightblue" points="984.14,-68.27 974.64,-72.97 985,-75.22 984.14,-68.27"/>
</g>
<!-- Node23&#45;&gt;Node5 -->
<g id="edge43" class="edge">
<title>Node23&#45;&gt;Node5</title>
<path fill="none" stroke="midnightblue" d="M982.38,-71.74C997.26,-69.94 1012.88,-68.24 1027.5,-67 1378.15,-37.15 1468.14,-64.04 1818.5,-31 1834.28,-29.51 1851.38,-27.29 1866.93,-25.03"/>
<polygon fill="midnightblue" stroke="midnightblue" points="981.71,-68.3 972.21,-72.99 982.56,-75.24 981.71,-68.3"/>
</g>
<!-- Node23&#45;&gt;Node8 -->
<g id="edge42" class="edge">
<title>Node23&#45;&gt;Node8</title>
<path fill="none" stroke="midnightblue" d="M873.9,-69.92C838.12,-58.9 784.23,-42.29 746.04,-30.53"/>
<polygon fill="midnightblue" stroke="midnightblue" points="872.89,-73.27 883.48,-72.87 874.95,-66.58 872.89,-73.27"/>
</g>
<!-- Node23&#45;&gt;Node14 -->
<g id="edge41" class="edge">
<title>Node23&#45;&gt;Node14</title>
<path fill="none" stroke="midnightblue" d="M911.5,-62.41C911.5,-52.22 911.5,-39.9 911.5,-30.59"/>
<polygon fill="midnightblue" stroke="midnightblue" points="908,-62.73 911.5,-72.73 915,-62.73 908,-62.73"/>
</g>
<!-- Node23&#45;&gt;Node18 -->
<g id="edge44" class="edge">
<title>Node23&#45;&gt;Node18</title>
<path fill="none" stroke="midnightblue" d="M811.4,-72.01C793.77,-70.34 775.6,-68.62 758.5,-67 588.73,-50.96 545.73,-52.01 376.5,-31 362.74,-29.29 347.88,-27.14 334.14,-25.03"/>
<polygon fill="midnightblue" stroke="midnightblue" points="811.41,-75.52 821.7,-72.98 812.07,-68.55 811.41,-75.52"/>
</g>
<!-- Node26&#45;&gt;Node4 -->
<g id="edge54" class="edge">
<title>Node26&#45;&gt;Node4</title>
<path fill="none" stroke="midnightblue" d="M2080.43,-66.95C1885.07,-43.09 1831.17,-66.43 1641.5,-31 1633.65,-29.53 1625.27,-27.31 1617.69,-25.03"/>
<polygon fill="midnightblue" stroke="midnightblue" points="2080.09,-70.44 2090.44,-68.2 2080.95,-63.49 2080.09,-70.44"/>
</g>
<!-- Node26&#45;&gt;Node5 -->
<g id="edge55" class="edge">
<title>Node26&#45;&gt;Node5</title>
<path fill="none" stroke="midnightblue" d="M2102.71,-64.91C2054.54,-52.18 1990,-35.13 1951.78,-25.03"/>
<polygon fill="midnightblue" stroke="midnightblue" points="2101.86,-68.31 2112.42,-67.48 2103.65,-61.54 2101.86,-68.31"/>
</g>
<!-- Node26&#45;&gt;Node10 -->
<g id="edge57" class="edge">
<title>Node26&#45;&gt;Node10</title>
<path fill="none" stroke="midnightblue" d="M2080.44,-66.96C1842.26,-39.22 1778.58,-60.5 1544.5,-31 1541.49,-30.62 1538.43,-30.2 1535.34,-29.75"/>
<polygon fill="midnightblue" stroke="midnightblue" points="2080.11,-70.45 2090.45,-68.15 2080.93,-63.5 2080.11,-70.45"/>
</g>
<!-- Node27 -->
<g id="node27" class="node">
<title>Node27</title>
<g id="a_node27"><a xlink:href="_wireframe_component_u_i_8hpp.html" target="_top" xlink:title=" ">
<polygon fill="white" stroke="black" points="2212.5,-0.5 2212.5,-30.5 2374.5,-30.5 2374.5,-0.5 2212.5,-0.5"/>
<text text-anchor="start" x="2220.5" y="-18.5" font-family="Helvetica,sans-Serif" font-size="10.00">src/ui/Components/Wireframe</text>
<text text-anchor="middle" x="2293.5" y="-7.5" font-family="Helvetica,sans-Serif" font-size="10.00">ComponentUI.hpp</text>
</a>
</g>
</g>
<!-- Node26&#45;&gt;Node27 -->
<g id="edge56" class="edge">
<title>Node26&#45;&gt;Node27</title>
<path fill="none" stroke="midnightblue" d="M2202.22,-62.85C2222.46,-52.58 2247.17,-40.03 2265.78,-30.58"/>
<polygon fill="midnightblue" stroke="midnightblue" points="2200.61,-59.75 2193.27,-67.4 2203.78,-65.99 2200.61,-59.75"/>
</g>
<!-- Node29 -->
<g id="node29" class="node">
<title>Node29</title>
<g id="a_node29"><a xlink:href="_runtime_8cpp.html" target="_top" xlink:title=" ">
<polygon fill="white" stroke="black" points="2668.5,-73 2668.5,-92 2808.5,-92 2808.5,-73 2668.5,-73"/>
<text text-anchor="middle" x="2738.5" y="-80" font-family="Helvetica,sans-Serif" font-size="10.00">src/Runtime/Runtime.cpp</text>
</a>
</g>
</g>
<!-- Node28&#45;&gt;Node29 -->
<g id="edge60" class="edge">
<title>Node28&#45;&gt;Node29</title>
<path fill="none" stroke="midnightblue" d="M2652,-134.62C2673.79,-121.74 2705.54,-102.98 2723.9,-92.13"/>
<polygon fill="midnightblue" stroke="midnightblue" points="2650.16,-131.63 2643.34,-139.73 2653.72,-137.66 2650.16,-131.63"/>
</g>
<!-- Node28&#45;&gt;Node30 -->
<g id="edge61" class="edge">
<title>Node28&#45;&gt;Node30</title>
<path fill="none" stroke="midnightblue" d="M2612.74,-132.5C2600.19,-119.75 2583.1,-102.39 2572.99,-92.13"/>
<polygon fill="midnightblue" stroke="midnightblue" points="2610.36,-135.06 2619.87,-139.73 2615.35,-130.15 2610.36,-135.06"/>
</g>
<!-- Node31&#45;&gt;Node5 -->
<g id="edge64" class="edge">
<title>Node31&#45;&gt;Node5</title>
<path fill="none" stroke="midnightblue" d="M2691.42,-197.78C2751.21,-173.91 2867.07,-118.86 2817.5,-67 2786.91,-35 2065.58,-35.12 2021.5,-31 2005.56,-29.51 1988.3,-27.29 1972.59,-25.03"/>
<polygon fill="midnightblue" stroke="midnightblue" points="2690.03,-194.57 2681.99,-201.47 2692.58,-201.09 2690.03,-194.57"/>
</g>
<!-- Node31&#45;&gt;Node28 -->
<g id="edge63" class="edge">
<title>Node31&#45;&gt;Node28</title>
<path fill="none" stroke="midnightblue" d="M2649.59,-192.33C2644.04,-181.33 2637.15,-167.66 2632.79,-159.01"/>
<polygon fill="midnightblue" stroke="midnightblue" points="2646.57,-194.12 2654.2,-201.48 2652.82,-190.97 2646.57,-194.12"/>
</g>
</g>
</svg>
