<?xml version="1.0" encoding="UTF-8" standalone="no"?>
<!DOCTYPE svg PUBLIC "-//W3C//DTD SVG 1.1//EN"
 "http://www.w3.org/Graphics/SVG/1.1/DTD/svg11.dtd">
<!-- Generated by graphviz version 2.43.0 (0)
 -->
<!-- Title: src/ui/UI.cpp Pages: 1 -->
<svg width="2732pt" height="434pt"
 viewBox="0.00 0.00 2732.00 434.00" xmlns="http://www.w3.org/2000/svg" xmlns:xlink="http://www.w3.org/1999/xlink">
<g id="graph0" class="graph" transform="scale(1 1) rotate(0) translate(4 430)">
<title>src/ui/UI.cpp</title>
<!-- Node1 -->
<g id="Node000001" class="node">
<title>Node1</title>
<g id="a_Node000001"><a xlink:title=" ">
<polygon fill="#999999" stroke="#666666" points="1023.5,-426 946.5,-426 946.5,-407 1023.5,-407 1023.5,-426"/>
<text text-anchor="middle" x="985" y="-414" font-family="Helvetica,sans-Serif" font-size="10.00">src/ui/UI.cpp</text>
</a>
</g>
</g>
<!-- Node2 -->
<g id="Node000002" class="node">
<title>Node2</title>
<g id="a_Node000002"><a xlink:title=" ">
<polygon fill="#e0e0e0" stroke="#999999" points="50,-365.5 0,-365.5 0,-346.5 50,-346.5 50,-365.5"/>
<text text-anchor="middle" x="25" y="-353.5" font-family="Helvetica,sans-Serif" font-size="10.00">stdio.h</text>
</a>
</g>
</g>
<!-- Node1&#45;&gt;Node2 -->
<g id="edge1_Node000001_Node000002" class="edge">
<title>Node1&#45;&gt;Node2</title>
<g id="a_edge1_Node000001_Node000002"><a xlink:title=" ">
<path fill="none" stroke="#63b8ff" d="M946.25,-415.4C793.38,-414.72 232.1,-409.58 59,-371 56.77,-370.5 54.5,-369.87 52.25,-369.15"/>
<polygon fill="#63b8ff" stroke="#63b8ff" points="53.22,-365.78 42.63,-365.6 50.79,-372.35 53.22,-365.78"/>
</a>
</g>
</g>
<!-- Node3 -->
<g id="Node000003" class="node">
<title>Node3</title>
<g id="a_Node000003"><a xlink:title=" ">
<polygon fill="#e0e0e0" stroke="#999999" points="118,-365.5 68,-365.5 68,-346.5 118,-346.5 118,-365.5"/>
<text text-anchor="middle" x="93" y="-353.5" font-family="Helvetica,sans-Serif" font-size="10.00">chrono</text>
</a>
</g>
</g>
<!-- Node1&#45;&gt;Node3 -->
<g id="edge2_Node000001_Node000003" class="edge">
<title>Node1&#45;&gt;Node3</title>
<g id="a_edge2_Node000001_Node000003"><a xlink:title=" ">
<path fill="none" stroke="#63b8ff" d="M946.18,-414.98C801.1,-412.79 291.01,-402.97 132,-371 128.99,-370.4 125.91,-369.6 122.85,-368.71"/>
<polygon fill="#63b8ff" stroke="#63b8ff" points="123.92,-365.37 113.32,-365.56 121.72,-372.02 123.92,-365.37"/>
</a>
</g>
</g>
<!-- Node4 -->
<g id="Node000004" class="node">
<title>Node4</title>
<g id="a_Node000004"><a xlink:title=" ">
<polygon fill="#e0e0e0" stroke="#999999" points="164,-184 104,-184 104,-165 164,-165 164,-184"/>
<text text-anchor="middle" x="134" y="-172" font-family="Helvetica,sans-Serif" font-size="10.00">iostream</text>
</a>
</g>
</g>
<!-- Node1&#45;&gt;Node4 -->
<g id="edge3_Node000001_Node000004" class="edge">
<title>Node1&#45;&gt;Node4</title>
<g id="a_edge3_Node000001_Node000004"><a xlink:title=" ">
<path fill="none" stroke="#63b8ff" d="M946.45,-415.94C795.16,-417.31 247.44,-418.92 188,-371 133.86,-327.35 131.12,-234.69 132.69,-194.62"/>
<polygon fill="#63b8ff" stroke="#63b8ff" points="136.2,-194.56 133.24,-184.39 129.21,-194.19 136.2,-194.56"/>
</a>
</g>
</g>
<!-- Node5 -->
<g id="Node000005" class="node">
<title>Node5</title>
<g id="a_Node000005"><a xlink:title=" ">
<polygon fill="#e0e0e0" stroke="#999999" points="294,-184 250,-184 250,-165 294,-165 294,-184"/>
<text text-anchor="middle" x="272" y="-172" font-family="Helvetica,sans-Serif" font-size="10.00">string</text>
</a>
</g>
</g>
<!-- Node1&#45;&gt;Node5 -->
<g id="edge4_Node000001_Node000005" class="edge">
<title>Node1&#45;&gt;Node5</title>
<g id="a_edge4_Node000001_Node000005"><a xlink:title=" ">
<path fill="none" stroke="#63b8ff" d="M985.47,-406.74C985.79,-391.2 984.09,-358.78 966,-341 940.27,-315.71 394.6,-204.51 304.24,-184.06"/>
<polygon fill="#63b8ff" stroke="#63b8ff" points="304.86,-180.61 294.33,-181.72 303.26,-187.42 304.86,-180.61"/>
</a>
</g>
</g>
<!-- Node6 -->
<g id="Node000006" class="node">
<title>Node6</title>
<g id="a_Node000006"><a xlink:title=" ">
<polygon fill="#e0e0e0" stroke="#999999" points="405,-365.5 357,-365.5 357,-346.5 405,-346.5 405,-365.5"/>
<text text-anchor="middle" x="381" y="-353.5" font-family="Helvetica,sans-Serif" font-size="10.00">thread</text>
</a>
</g>
</g>
<!-- Node1&#45;&gt;Node6 -->
<g id="edge5_Node000001_Node000006" class="edge">
<title>Node1&#45;&gt;Node6</title>
<g id="a_edge5_Node000001_Node000006"><a xlink:title=" ">
<path fill="none" stroke="#63b8ff" d="M946.14,-414.1C834.68,-409.85 515.42,-395.77 414,-371 412.05,-370.52 410.07,-369.95 408.09,-369.3"/>
<polygon fill="#63b8ff" stroke="#63b8ff" points="409.04,-365.92 398.45,-365.64 406.56,-372.46 409.04,-365.92"/>
</a>
</g>
</g>
<!-- Node7 -->
<g id="Node000007" class="node">
<title>Node7</title>
<g id="a_Node000007"><a xlink:title=" ">
<polygon fill="#e0e0e0" stroke="#999999" points="543,-371 423,-371 423,-341 543,-341 543,-371"/>
<text text-anchor="start" x="431" y="-359" font-family="Helvetica,sans-Serif" font-size="10.00">backends/imgui_impl</text>
<text text-anchor="middle" x="483" y="-348" font-family="Helvetica,sans-Serif" font-size="10.00">_glfw.h</text>
</a>
</g>
</g>
<!-- Node1&#45;&gt;Node7 -->
<g id="edge6_Node000001_Node000007" class="edge">
<title>Node1&#45;&gt;Node7</title>
<g id="a_edge6_Node000001_Node000007"><a xlink:title=" ">
<path fill="none" stroke="#63b8ff" d="M946.32,-412.8C872.05,-407.34 704.16,-393.67 553.08,-371.07"/>
<polygon fill="#63b8ff" stroke="#63b8ff" points="553.56,-367.6 543.15,-369.56 552.51,-374.52 553.56,-367.6"/>
</a>
</g>
</g>
<!-- Node8 -->
<g id="Node000008" class="node">
<title>Node8</title>
<g id="a_Node000008"><a xlink:title=" ">
<polygon fill="#e0e0e0" stroke="#999999" points="681,-371 561,-371 561,-341 681,-341 681,-371"/>
<text text-anchor="start" x="569" y="-359" font-family="Helvetica,sans-Serif" font-size="10.00">backends/imgui_impl</text>
<text text-anchor="middle" x="621" y="-348" font-family="Helvetica,sans-Serif" font-size="10.00">_opengl3.h</text>
</a>
</g>
</g>
<!-- Node1&#45;&gt;Node8 -->
<g id="edge7_Node000001_Node000008" class="edge">
<title>Node1&#45;&gt;Node8</title>
<g id="a_edge7_Node000001_Node000008"><a xlink:title=" ">
<path fill="none" stroke="#63b8ff" d="M946.38,-410.25C891.96,-402.71 789.37,-388.04 691.37,-371.01"/>
<polygon fill="#63b8ff" stroke="#63b8ff" points="691.75,-367.52 681.3,-369.25 690.54,-374.42 691.75,-367.52"/>
</a>
</g>
</g>
<!-- Node9 -->
<g id="Node000009" class="node">
<title>Node9</title>
<g id="a_Node000009"><a xlink:title=" ">
<polygon fill="#e0e0e0" stroke="#999999" points="770.5,-365.5 699.5,-365.5 699.5,-346.5 770.5,-346.5 770.5,-365.5"/>
<text text-anchor="middle" x="735" y="-353.5" font-family="Helvetica,sans-Serif" font-size="10.00">glad/glad.h</text>
</a>
</g>
</g>
<!-- Node1&#45;&gt;Node9 -->
<g id="edge8_Node000001_Node000009" class="edge">
<title>Node1&#45;&gt;Node9</title>
<g id="a_edge8_Node000001_Node000009"><a xlink:title=" ">
<path fill="none" stroke="#63b8ff" d="M946.22,-408.14C904.82,-400.03 837.4,-386.13 780,-371 777.01,-370.21 773.92,-369.35 770.83,-368.46"/>
<polygon fill="#63b8ff" stroke="#63b8ff" points="771.65,-365.05 761.06,-365.53 769.64,-371.75 771.65,-365.05"/>
</a>
</g>
</g>
<!-- Node10 -->
<g id="Node000010" class="node">
<title>Node10</title>
<g id="a_Node000010"><a xlink:title=" ">
<polygon fill="#e0e0e0" stroke="#999999" points="885,-365.5 789,-365.5 789,-346.5 885,-346.5 885,-365.5"/>
<text text-anchor="middle" x="837" y="-353.5" font-family="Helvetica,sans-Serif" font-size="10.00">imgui_internal.h</text>
</a>
</g>
</g>
<!-- Node1&#45;&gt;Node10 -->
<g id="edge9_Node000001_Node000010" class="edge">
<title>Node1&#45;&gt;Node10</title>
<g id="a_edge9_Node000001_Node000010"><a xlink:title=" ">
<path fill="none" stroke="#63b8ff" d="M963.48,-406.99C938.38,-397.07 896.68,-380.59 868.07,-369.28"/>
<polygon fill="#63b8ff" stroke="#63b8ff" points="869.13,-365.94 858.55,-365.52 866.56,-372.45 869.13,-365.94"/>
</a>
</g>
</g>
<!-- Node11 -->
<g id="Node000011" class="node">
<title>Node11</title>
<g id="a_Node000011"><a xlink:title=" ">
<polygon fill="#e0e0e0" stroke="#999999" points="956.5,-365.5 903.5,-365.5 903.5,-346.5 956.5,-346.5 956.5,-365.5"/>
<text text-anchor="middle" x="930" y="-353.5" font-family="Helvetica,sans-Serif" font-size="10.00">imgui.h</text>
</a>
</g>
</g>
<!-- Node1&#45;&gt;Node11 -->
<g id="edge10_Node000001_Node000011" class="edge">
<title>Node1&#45;&gt;Node11</title>
<g id="a_edge10_Node000001_Node000011"><a xlink:title=" ">
<path fill="none" stroke="#63b8ff" d="M976.88,-406.87C968.6,-398.05 955.53,-384.16 945.3,-373.27"/>
<polygon fill="#63b8ff" stroke="#63b8ff" points="947.55,-370.56 938.15,-365.67 942.45,-375.35 947.55,-370.56"/>
</a>
</g>
</g>
<!-- Node12 -->
<g id="Node000012" class="node">
<title>Node12</title>
<g id="a_Node000012"><a xlink:href="_image_8hpp.html" target="_top" xlink:title=" ">
<polygon fill="white" stroke="#666666" points="338.5,-365.5 197.5,-365.5 197.5,-346.5 338.5,-346.5 338.5,-365.5"/>
<text text-anchor="middle" x="268" y="-353.5" font-family="Helvetica,sans-Serif" font-size="10.00">AssetManager/Image.hpp</text>
</a>
</g>
</g>
<!-- Node1&#45;&gt;Node12 -->
<g id="edge11_Node000001_Node000012" class="edge">
<title>Node1&#45;&gt;Node12</title>
<g id="a_edge11_Node000001_Node000012"><a xlink:title=" ">
<path fill="none" stroke="#63b8ff" d="M946.45,-414.2C847.02,-410.54 573.86,-398.58 348,-371 339.55,-369.97 330.64,-368.64 321.95,-367.22"/>
<polygon fill="#63b8ff" stroke="#63b8ff" points="322.33,-363.74 311.89,-365.52 321.17,-370.64 322.33,-363.74"/>
</a>
</g>
</g>
<!-- Node20 -->
<g id="Node000020" class="node">
<title>Node20</title>
<g id="a_Node000020"><a xlink:href="_input_manager_8hpp.html" target="_top" xlink:title=" ">
<polygon fill="white" stroke="#666666" points="1188.5,-365.5 1013.5,-365.5 1013.5,-346.5 1188.5,-346.5 1188.5,-365.5"/>
<text text-anchor="middle" x="1101" y="-353.5" font-family="Helvetica,sans-Serif" font-size="10.00">InputManager/InputManager.hpp</text>
</a>
</g>
</g>
<!-- Node1&#45;&gt;Node20 -->
<g id="edge17_Node000001_Node000020" class="edge">
<title>Node1&#45;&gt;Node20</title>
<g id="a_edge17_Node000001_Node000020"><a xlink:title=" ">
<path fill="none" stroke="#63b8ff" d="M1002.12,-406.87C1021.22,-397.23 1052.37,-381.53 1074.6,-370.31"/>
<polygon fill="#63b8ff" stroke="#63b8ff" points="1076.46,-373.3 1083.81,-365.67 1073.31,-367.05 1076.46,-373.3"/>
</a>
</g>
</g>
<!-- Node47 -->
<g id="Node000047" class="node">
<title>Node47</title>
<g id="a_Node000047"><a xlink:title=" ">
<polygon fill="#e0e0e0" stroke="#999999" points="1329.5,-365.5 1206.5,-365.5 1206.5,-346.5 1329.5,-346.5 1329.5,-365.5"/>
<text text-anchor="middle" x="1268" y="-353.5" font-family="Helvetica,sans-Serif" font-size="10.00">UI/Common/Style.hpp</text>
</a>
</g>
</g>
<!-- Node1&#45;&gt;Node47 -->
<g id="edge62_Node000001_Node000047" class="edge">
<title>Node1&#45;&gt;Node47</title>
<g id="a_edge62_Node000001_Node000047"><a xlink:title=" ">
<path fill="none" stroke="#63b8ff" d="M1023.76,-407.49C1073.78,-397.15 1160.96,-379.13 1216.51,-367.64"/>
<polygon fill="#63b8ff" stroke="#63b8ff" points="1217.41,-371.03 1226.5,-365.58 1216,-364.18 1217.41,-371.03"/>
</a>
</g>
</g>
<!-- Node48 -->
<g id="Node000048" class="node">
<title>Node48</title>
<g id="a_Node000048"><a xlink:title=" ">
<polygon fill="#e0e0e0" stroke="#999999" points="1410,-365.5 1348,-365.5 1348,-346.5 1410,-346.5 1410,-365.5"/>
<text text-anchor="middle" x="1379" y="-353.5" font-family="Helvetica,sans-Serif" font-size="10.00">UI/UI.hpp</text>
</a>
</g>
</g>
<!-- Node1&#45;&gt;Node48 -->
<g id="edge63_Node000001_Node000048" class="edge">
<title>Node1&#45;&gt;Node48</title>
<g id="a_edge63_Node000001_Node000048"><a xlink:title=" ">
<path fill="none" stroke="#63b8ff" d="M1023.71,-413.32C1089.33,-409.03 1226.24,-397.5 1339,-371 1341.82,-370.34 1344.72,-369.55 1347.61,-368.68"/>
<polygon fill="#63b8ff" stroke="#63b8ff" points="1348.81,-371.97 1357.24,-365.55 1346.65,-365.32 1348.81,-371.97"/>
</a>
</g>
</g>
<!-- Node49 -->
<g id="Node000049" class="node">
<title>Node49</title>
<g id="a_Node000049"><a xlink:title=" ">
<polygon fill="#e0e0e0" stroke="#999999" points="1595.5,-365.5 1428.5,-365.5 1428.5,-346.5 1595.5,-346.5 1595.5,-365.5"/>
<text text-anchor="middle" x="1512" y="-353.5" font-family="Helvetica,sans-Serif" font-size="10.00">UI/Widgets/ConsoleWidget.hpp</text>
</a>
</g>
</g>
<!-- Node1&#45;&gt;Node49 -->
<g id="edge64_Node000001_Node000049" class="edge">
<title>Node1&#45;&gt;Node49</title>
<g id="a_edge64_Node000001_Node000049"><a xlink:title=" ">
<path fill="none" stroke="#63b8ff" d="M1023.68,-412.15C1099.6,-405.44 1273.41,-389.41 1419,-371 1428.5,-369.8 1438.52,-368.41 1448.34,-366.99"/>
<polygon fill="#63b8ff" stroke="#63b8ff" points="1449.07,-370.42 1458.46,-365.5 1448.05,-363.5 1449.07,-370.42"/>
</a>
</g>
</g>
<!-- Node50 -->
<g id="Node000050" class="node">
<title>Node50</title>
<g id="a_Node000050"><a xlink:title=" ">
<polygon fill="#e0e0e0" stroke="#999999" points="1796,-365.5 1614,-365.5 1614,-346.5 1796,-346.5 1796,-365.5"/>
<text text-anchor="middle" x="1705" y="-353.5" font-family="Helvetica,sans-Serif" font-size="10.00">UI/Widgets/FilesystemWidget.hpp</text>
</a>
</g>
</g>
<!-- Node1&#45;&gt;Node50 -->
<g id="edge65_Node000001_Node000050" class="edge">
<title>Node1&#45;&gt;Node50</title>
<g id="a_edge65_Node000001_Node000050"><a xlink:title=" ">
<path fill="none" stroke="#63b8ff" d="M1023.53,-413.64C1121.06,-408.74 1385.54,-394.21 1605,-371 1615.94,-369.84 1627.54,-368.41 1638.8,-366.91"/>
<polygon fill="#63b8ff" stroke="#63b8ff" points="1639.58,-370.33 1649.02,-365.52 1638.64,-363.4 1639.58,-370.33"/>
</a>
</g>
</g>
<!-- Node51 -->
<g id="Node000051" class="node">
<title>Node51</title>
<g id="a_Node000051"><a xlink:title=" ">
<polygon fill="#e0e0e0" stroke="#999999" points="1987.5,-365.5 1814.5,-365.5 1814.5,-346.5 1987.5,-346.5 1987.5,-365.5"/>
<text text-anchor="middle" x="1901" y="-353.5" font-family="Helvetica,sans-Serif" font-size="10.00">UI/Widgets/InspectorWidget.hpp</text>
</a>
</g>
</g>
<!-- Node1&#45;&gt;Node51 -->
<g id="edge66_Node000001_Node000051" class="edge">
<title>Node1&#45;&gt;Node51</title>
<g id="a_edge66_Node000001_Node000051"><a xlink:title=" ">
<path fill="none" stroke="#63b8ff" d="M1023.52,-414.65C1140.99,-411.79 1504.96,-400.96 1805,-371 1815.78,-369.92 1827.2,-368.5 1838.26,-366.98"/>
<polygon fill="#63b8ff" stroke="#63b8ff" points="1838.88,-370.43 1848.29,-365.56 1837.9,-363.5 1838.88,-370.43"/>
</a>
</g>
</g>
<!-- Node52 -->
<g id="Node000052" class="node">
<title>Node52</title>
<g id="a_Node000052"><a xlink:title=" ">
<polygon fill="#e0e0e0" stroke="#999999" points="2170.5,-365.5 2005.5,-365.5 2005.5,-346.5 2170.5,-346.5 2170.5,-365.5"/>
<text text-anchor="middle" x="2088" y="-353.5" font-family="Helvetica,sans-Serif" font-size="10.00">UI/Widgets/ObjectsWidget.hpp</text>
</a>
</g>
</g>
<!-- Node1&#45;&gt;Node52 -->
<g id="edge67_Node000001_Node000052" class="edge">
<title>Node1&#45;&gt;Node52</title>
<g id="a_edge67_Node000001_Node000052"><a xlink:title=" ">
<path fill="none" stroke="#63b8ff" d="M1023.71,-415.31C1158.41,-414.33 1618.97,-408.28 1997,-371 2007.37,-369.98 2018.35,-368.57 2028.97,-367.04"/>
<polygon fill="#63b8ff" stroke="#63b8ff" points="2029.63,-370.48 2039.01,-365.54 2028.6,-363.55 2029.63,-370.48"/>
</a>
</g>
</g>
<!-- Node53 -->
<g id="Node000053" class="node">
<title>Node53</title>
<g id="a_Node000053"><a xlink:title=" ">
<polygon fill="#e0e0e0" stroke="#999999" points="2351.5,-365.5 2188.5,-365.5 2188.5,-346.5 2351.5,-346.5 2351.5,-365.5"/>
<text text-anchor="middle" x="2270" y="-353.5" font-family="Helvetica,sans-Serif" font-size="10.00">UI/Widgets/ProfilerWidget.hpp</text>
</a>
</g>
</g>
<!-- Node1&#45;&gt;Node53 -->
<g id="edge68_Node000001_Node000053" class="edge">
<title>Node1&#45;&gt;Node53</title>
<g id="a_edge68_Node000001_Node000053"><a xlink:title=" ">
<path fill="none" stroke="#63b8ff" d="M1023.54,-415.7C1172.75,-416.14 1726.64,-414.55 2180,-371 2190.38,-370 2201.38,-368.59 2212,-367.04"/>
<polygon fill="#63b8ff" stroke="#63b8ff" points="2212.66,-370.48 2222.02,-365.53 2211.61,-363.56 2212.66,-370.48"/>
</a>
</g>
</g>
<!-- Node54 -->
<g id="Node000054" class="node">
<title>Node54</title>
<g id="a_Node000054"><a xlink:title=" ">
<polygon fill="#e0e0e0" stroke="#999999" points="2548,-365.5 2370,-365.5 2370,-346.5 2548,-346.5 2548,-365.5"/>
<text text-anchor="middle" x="2459" y="-353.5" font-family="Helvetica,sans-Serif" font-size="10.00">UI/Widgets/PropertiesWidget.hpp</text>
</a>
</g>
</g>
<!-- Node1&#45;&gt;Node54 -->
<g id="edge69_Node000001_Node000054" class="edge">
<title>Node1&#45;&gt;Node54</title>
<g id="a_edge69_Node000001_Node000054"><a xlink:title=" ">
<path fill="none" stroke="#63b8ff" d="M1023.67,-415.8C1186.55,-416.73 1832.7,-417.14 2361,-371 2372.59,-369.99 2384.9,-368.53 2396.74,-366.94"/>
<polygon fill="#63b8ff" stroke="#63b8ff" points="2397.57,-370.36 2406.99,-365.51 2396.6,-363.42 2397.57,-370.36"/>
</a>
</g>
</g>
<!-- Node55 -->
<g id="Node000055" class="node">
<title>Node55</title>
<g id="a_Node000055"><a xlink:title=" ">
<polygon fill="#e0e0e0" stroke="#999999" points="2724,-365.5 2566,-365.5 2566,-346.5 2724,-346.5 2724,-365.5"/>
<text text-anchor="middle" x="2645" y="-353.5" font-family="Helvetica,sans-Serif" font-size="10.00">UI/Widgets/SceneWidget.hpp</text>
</a>
</g>
</g>
<!-- Node1&#45;&gt;Node55 -->
<g id="edge70_Node000001_Node000055" class="edge">
<title>Node1&#45;&gt;Node55</title>
<g id="a_edge70_Node000001_Node000055"><a xlink:title=" ">
<path fill="none" stroke="#63b8ff" d="M1023.73,-415.08C1234.56,-412.72 2245.91,-400.03 2557,-371 2567.27,-370.04 2578.16,-368.63 2588.66,-367.07"/>
<polygon fill="#63b8ff" stroke="#63b8ff" points="2589.21,-370.53 2598.56,-365.54 2588.14,-363.61 2589.21,-370.53"/>
</a>
</g>
</g>
<!-- Node13 -->
<g id="Node000013" class="node">
<title>Node13</title>
<g id="a_Node000013"><a xlink:title=" ">
<polygon fill="#e0e0e0" stroke="#999999" points="424,-239 356,-239 356,-220 424,-220 424,-239"/>
<text text-anchor="middle" x="390" y="-227" font-family="Helvetica,sans-Serif" font-size="10.00">filesystem</text>
</a>
</g>
</g>
<!-- Node12&#45;&gt;Node13 -->
<g id="edge12_Node000012_Node000013" class="edge">
<title>Node12&#45;&gt;Node13</title>
<g id="a_edge12_Node000012_Node000013"><a xlink:title=" ">
<path fill="none" stroke="#63b8ff" d="M297.7,-346.39C319.16,-338.75 347.35,-325.56 365,-305 378.57,-289.19 384.85,-265.72 387.7,-249.36"/>
<polygon fill="#63b8ff" stroke="#63b8ff" points="391.18,-249.76 389.18,-239.36 384.26,-248.74 391.18,-249.76"/>
</a>
</g>
</g>
<!-- Node14 -->
<g id="Node000014" class="node">
<title>Node14</title>
<g id="a_Node000014"><a xlink:href="_path_constructible_asset_8hpp.html" target="_top" xlink:title=" ">
<polygon fill="white" stroke="#666666" points="355.5,-305 180.5,-305 180.5,-275 355.5,-275 355.5,-305"/>
<text text-anchor="start" x="188.5" y="-293" font-family="Helvetica,sans-Serif" font-size="10.00">AssetManager/PathConstructible</text>
<text text-anchor="middle" x="268" y="-282" font-family="Helvetica,sans-Serif" font-size="10.00">Asset.hpp</text>
</a>
</g>
</g>
<!-- Node12&#45;&gt;Node14 -->
<g id="edge13_Node000012_Node000014" class="edge">
<title>Node12&#45;&gt;Node14</title>
<g id="a_edge13_Node000012_Node000014"><a xlink:title=" ">
<path fill="none" stroke="#63b8ff" d="M268,-346.37C268,-338.49 268,-326.45 268,-315.6"/>
<polygon fill="#63b8ff" stroke="#63b8ff" points="271.5,-315.36 268,-305.36 264.5,-315.36 271.5,-315.36"/>
</a>
</g>
</g>
<!-- Node14&#45;&gt;Node13 -->
<g id="edge14_Node000014_Node000013" class="edge">
<title>Node14&#45;&gt;Node13</title>
<g id="a_edge14_Node000014_Node000013"><a xlink:title=" ">
<path fill="none" stroke="#63b8ff" d="M297.22,-274.99C317.12,-265.45 343.28,-252.9 362.75,-243.57"/>
<polygon fill="#63b8ff" stroke="#63b8ff" points="364.48,-246.62 371.98,-239.14 361.45,-240.31 364.48,-246.62"/>
</a>
</g>
</g>
<!-- Node15 -->
<g id="Node000015" class="node">
<title>Node15</title>
<g id="a_Node000015"><a xlink:href="_instance_counter_8hpp.html" target="_top" xlink:title=" ">
<polygon fill="#fff0f0" stroke="red" points="338,-239 174,-239 174,-220 338,-220 338,-239"/>
<text text-anchor="middle" x="256" y="-227" font-family="Helvetica,sans-Serif" font-size="10.00">Common/InstanceCounter.hpp</text>
</a>
</g>
</g>
<!-- Node14&#45;&gt;Node15 -->
<g id="edge15_Node000014_Node000015" class="edge">
<title>Node14&#45;&gt;Node15</title>
<g id="a_edge15_Node000014_Node000015"><a xlink:title=" ">
<path fill="none" stroke="#63b8ff" d="M265.1,-274.84C263.51,-267.13 261.54,-257.49 259.83,-249.17"/>
<polygon fill="#63b8ff" stroke="#63b8ff" points="263.24,-248.36 257.8,-239.27 256.38,-249.77 263.24,-248.36"/>
</a>
</g>
</g>
<!-- Node16 -->
<g id="Node000016" class="node">
<title>Node16</title>
<g id="a_Node000016"><a xlink:title=" ">
<polygon fill="#e0e0e0" stroke="#999999" points="232,-184 182,-184 182,-165 232,-165 232,-184"/>
<text text-anchor="middle" x="207" y="-172" font-family="Helvetica,sans-Serif" font-size="10.00">atomic</text>
</a>
</g>
</g>
<!-- Node15&#45;&gt;Node16 -->
<g id="edge16_Node000015_Node000016" class="edge">
<title>Node15&#45;&gt;Node16</title>
<g id="a_edge16_Node000015_Node000016"><a xlink:title=" ">
<path fill="none" stroke="#63b8ff" d="M247.91,-219.75C240.84,-212.11 230.41,-200.82 221.85,-191.56"/>
<polygon fill="#63b8ff" stroke="#63b8ff" points="224.3,-189.06 214.94,-184.09 219.16,-193.81 224.3,-189.06"/>
</a>
</g>
</g>
<!-- Node21 -->
<g id="Node000021" class="node">
<title>Node21</title>
<g id="a_Node000021"><a xlink:title=" ">
<polygon fill="#e0e0e0" stroke="#999999" points="1625.5,-74 1560.5,-74 1560.5,-55 1625.5,-55 1625.5,-74"/>
<text text-anchor="middle" x="1593" y="-62" font-family="Helvetica,sans-Serif" font-size="10.00">functional</text>
</a>
</g>
</g>
<!-- Node20&#45;&gt;Node21 -->
<g id="edge18_Node000020_Node000021" class="edge">
<title>Node20&#45;&gt;Node21</title>
<g id="a_edge18_Node000020_Node000021"><a xlink:title=" ">
<path fill="none" stroke="#63b8ff" d="M1155.55,-346.47C1169.38,-344.48 1184.22,-342.52 1198,-341 1354.76,-323.77 1899,-388.2 1899,-230.5 1899,-230.5 1899,-230.5 1899,-173.5 1899,-144.04 1902.21,-129.36 1880,-110 1861.87,-94.2 1711.38,-77.23 1635.87,-69.62"/>
<polygon fill="#63b8ff" stroke="#63b8ff" points="1636.03,-66.12 1625.73,-68.6 1635.33,-73.08 1636.03,-66.12"/>
</a>
</g>
</g>
<!-- Node22 -->
<g id="Node000022" class="node">
<title>Node22</title>
<g id="a_Node000022"><a xlink:title=" ">
<polygon fill="#e0e0e0" stroke="#999999" points="1663.5,-299.5 1580.5,-299.5 1580.5,-280.5 1663.5,-280.5 1663.5,-299.5"/>
<text text-anchor="middle" x="1622" y="-287.5" font-family="Helvetica,sans-Serif" font-size="10.00">GLFW/glfw3.h</text>
</a>
</g>
</g>
<!-- Node20&#45;&gt;Node22 -->
<g id="edge19_Node000020_Node000022" class="edge">
<title>Node20&#45;&gt;Node22</title>
<g id="a_edge19_Node000020_Node000022"><a xlink:title=" ">
<path fill="none" stroke="#63b8ff" d="M1156.85,-346.49C1170.31,-344.57 1184.66,-342.61 1198,-341 1361.15,-321.26 1404.07,-333 1566,-305 1571.05,-304.13 1576.33,-303.04 1581.53,-301.87"/>
<polygon fill="#63b8ff" stroke="#63b8ff" points="1582.45,-305.25 1591.36,-299.52 1580.83,-298.44 1582.45,-305.25"/>
</a>
</g>
</g>
<!-- Node23 -->
<g id="Node000023" class="node">
<title>Node23</title>
<g id="a_Node000023"><a xlink:title=" ">
<polygon fill="#e0e0e0" stroke="#999999" points="1337,-129 1259,-129 1259,-110 1337,-110 1337,-129"/>
<text text-anchor="middle" x="1298" y="-117" font-family="Helvetica,sans-Serif" font-size="10.00">glm/glm.hpp</text>
</a>
</g>
</g>
<!-- Node20&#45;&gt;Node23 -->
<g id="edge20_Node000020_Node000023" class="edge">
<title>Node20&#45;&gt;Node23</title>
<g id="a_edge20_Node000020_Node000023"><a xlink:title=" ">
<path fill="none" stroke="#63b8ff" d="M1159.62,-346.48C1250.05,-333.25 1413.81,-308.85 1419,-305 1472.85,-265.11 1516.21,-217.85 1475,-165 1459.39,-144.98 1393.97,-132.59 1347.22,-126.12"/>
<polygon fill="#63b8ff" stroke="#63b8ff" points="1347.63,-122.64 1337.25,-124.79 1346.7,-129.58 1347.63,-122.64"/>
</a>
</g>
</g>
<!-- Node24 -->
<g id="Node000024" class="node">
<title>Node24</title>
<g id="a_Node000024"><a xlink:href="_logger_8hpp.html" target="_top" xlink:title=" ">
<polygon fill="white" stroke="#666666" points="2082.5,-129 1965.5,-129 1965.5,-110 2082.5,-110 2082.5,-129"/>
<text text-anchor="middle" x="2024" y="-117" font-family="Helvetica,sans-Serif" font-size="10.00">Common/Logger.hpp</text>
</a>
</g>
</g>
<!-- Node20&#45;&gt;Node24 -->
<g id="edge21_Node000020_Node000024" class="edge">
<title>Node20&#45;&gt;Node24</title>
<g id="a_edge21_Node000020_Node000024"><a xlink:title=" ">
<path fill="none" stroke="#63b8ff" d="M1153.75,-346.48C1168.08,-344.41 1183.61,-342.4 1198,-341 1277.17,-333.31 1844.76,-345.88 1913,-305 1976.33,-267.06 2008.01,-177.84 2019.18,-139.05"/>
<polygon fill="#63b8ff" stroke="#63b8ff" points="2022.63,-139.71 2021.9,-129.14 2015.88,-137.86 2022.63,-139.71"/>
</a>
</g>
</g>
<!-- Node26 -->
<g id="Node000026" class="node">
<title>Node26</title>
<g id="a_Node000026"><a xlink:href="_box_collider_component_8hpp.html" target="_top" xlink:title=" ">
<polygon fill="white" stroke="#666666" points="1079.5,-299.5 864.5,-299.5 864.5,-280.5 1079.5,-280.5 1079.5,-299.5"/>
<text text-anchor="middle" x="972" y="-287.5" font-family="Helvetica,sans-Serif" font-size="10.00">Components/BoxColliderComponent.hpp</text>
</a>
</g>
</g>
<!-- Node20&#45;&gt;Node26 -->
<g id="edge24_Node000020_Node000026" class="edge">
<title>Node20&#45;&gt;Node26</title>
<g id="a_edge24_Node000020_Node000026"><a xlink:title=" ">
<path fill="none" stroke="#63b8ff" d="M1083.6,-346.37C1061.77,-335.54 1024.11,-316.85 998.64,-304.22"/>
<polygon fill="#63b8ff" stroke="#63b8ff" points="1000.05,-301.01 989.53,-299.7 996.94,-307.28 1000.05,-301.01"/>
</a>
</g>
</g>
<!-- Node29 -->
<g id="Node000029" class="node">
<title>Node29</title>
<g id="a_Node000029"><a xlink:href="_transform_component_8hpp.html" target="_top" xlink:title=" ">
<polygon fill="white" stroke="#666666" points="1147.5,-239 940.5,-239 940.5,-220 1147.5,-220 1147.5,-239"/>
<text text-anchor="middle" x="1044" y="-227" font-family="Helvetica,sans-Serif" font-size="10.00">Components/TransformComponent.hpp</text>
</a>
</g>
</g>
<!-- Node20&#45;&gt;Node29 -->
<g id="edge60_Node000020_Node000029" class="edge">
<title>Node20&#45;&gt;Node29</title>
<g id="a_edge60_Node000020_Node000029"><a xlink:title=" ">
<path fill="none" stroke="#63b8ff" d="M1101.44,-346.05C1101.82,-330.65 1100.96,-298.54 1089,-275 1083.21,-263.6 1073.38,-253.37 1064.39,-245.6"/>
<polygon fill="#63b8ff" stroke="#63b8ff" points="1066.47,-242.78 1056.5,-239.19 1062.06,-248.21 1066.47,-242.78"/>
</a>
</g>
</g>
<!-- Node34 -->
<g id="Node000034" class="node">
<title>Node34</title>
<g id="a_Node000034"><a xlink:href="_registry_8hpp.html" target="_top" xlink:title=" ">
<polygon fill="white" stroke="#666666" points="1640,-184 1542,-184 1542,-165 1640,-165 1640,-184"/>
<text text-anchor="middle" x="1591" y="-172" font-family="Helvetica,sans-Serif" font-size="10.00">ECS/Registry.hpp</text>
</a>
</g>
</g>
<!-- Node20&#45;&gt;Node34 -->
<g id="edge61_Node000020_Node000034" class="edge">
<title>Node20&#45;&gt;Node34</title>
<g id="a_edge61_Node000020_Node000034"><a xlink:title=" ">
<path fill="none" stroke="#63b8ff" d="M1157.63,-346.49C1170.87,-344.59 1184.92,-342.66 1198,-341 1271.18,-331.73 1467.68,-347.46 1528,-305 1565.54,-278.57 1581.64,-223.43 1587.74,-194.36"/>
<polygon fill="#63b8ff" stroke="#63b8ff" points="1591.23,-194.77 1589.67,-184.29 1584.35,-193.46 1591.23,-194.77"/>
</a>
</g>
</g>
<!-- Node46 -->
<g id="Node000046" class="node">
<title>Node46</title>
<g id="a_Node000046"><a xlink:href="_camera_component_8hpp.html" target="_top" xlink:title=" ">
<polygon fill="white" stroke="#666666" points="1409.5,-299.5 1212.5,-299.5 1212.5,-280.5 1409.5,-280.5 1409.5,-299.5"/>
<text text-anchor="middle" x="1311" y="-287.5" font-family="Helvetica,sans-Serif" font-size="10.00">Components/CameraComponent.hpp</text>
</a>
</g>
</g>
<!-- Node20&#45;&gt;Node46 -->
<g id="edge56_Node000020_Node000046" class="edge">
<title>Node20&#45;&gt;Node46</title>
<g id="a_edge56_Node000020_Node000046"><a xlink:title=" ">
<path fill="none" stroke="#63b8ff" d="M1129.32,-346.37C1166.45,-335.05 1231.71,-315.16 1273.08,-302.56"/>
<polygon fill="#63b8ff" stroke="#63b8ff" points="1274.25,-305.86 1282.79,-299.6 1272.21,-299.16 1274.25,-305.86"/>
</a>
</g>
</g>
<!-- Node19 -->
<g id="Node000019" class="node">
<title>Node19</title>
<g id="a_Node000019"><a xlink:title=" ">
<polygon fill="#e0e0e0" stroke="#999999" points="2048,-74 2000,-74 2000,-55 2048,-55 2048,-74"/>
<text text-anchor="middle" x="2024" y="-62" font-family="Helvetica,sans-Serif" font-size="10.00">mutex</text>
</a>
</g>
</g>
<!-- Node24&#45;&gt;Node19 -->
<g id="edge22_Node000024_Node000019" class="edge">
<title>Node24&#45;&gt;Node19</title>
<g id="a_edge22_Node000024_Node000019"><a xlink:title=" ">
<path fill="none" stroke="#63b8ff" d="M2024,-109.75C2024,-102.8 2024,-92.85 2024,-84.13"/>
<polygon fill="#63b8ff" stroke="#63b8ff" points="2027.5,-84.09 2024,-74.09 2020.5,-84.09 2027.5,-84.09"/>
</a>
</g>
</g>
<!-- Node25 -->
<g id="Node000025" class="node">
<title>Node25</title>
<g id="a_Node000025"><a xlink:title=" ">
<polygon fill="#e0e0e0" stroke="#999999" points="1899.5,-19 1852.5,-19 1852.5,0 1899.5,0 1899.5,-19"/>
<text text-anchor="middle" x="1876" y="-7" font-family="Helvetica,sans-Serif" font-size="10.00">queue</text>
</a>
</g>
</g>
<!-- Node24&#45;&gt;Node25 -->
<g id="edge23_Node000024_Node000025" class="edge">
<title>Node24&#45;&gt;Node25</title>
<g id="a_edge23_Node000024_Node000025"><a xlink:title=" ">
<path fill="none" stroke="#63b8ff" d="M2012.14,-109.84C1986.92,-91.44 1927.71,-48.23 1896.33,-25.34"/>
<polygon fill="#63b8ff" stroke="#63b8ff" points="1898.06,-22.26 1887.92,-19.2 1893.93,-27.92 1898.06,-22.26"/>
</a>
</g>
</g>
<!-- Node26&#45;&gt;Node5 -->
<g id="edge25_Node000026_Node000005" class="edge">
<title>Node26&#45;&gt;Node5</title>
<g id="a_edge25_Node000026_Node000005"><a xlink:title=" ">
<path fill="none" stroke="#63b8ff" d="M957.38,-280.24C927.54,-262.44 861.48,-223.43 850,-220 619.74,-151.23 545.29,-222.42 304.35,-183.84"/>
<polygon fill="#63b8ff" stroke="#63b8ff" points="304.67,-180.35 294.23,-182.17 303.53,-187.25 304.67,-180.35"/>
</a>
</g>
</g>
<!-- Node27 -->
<g id="Node000027" class="node">
<title>Node27</title>
<g id="a_Node000027"><a xlink:href="_base_component_8hpp.html" target="_top" xlink:title=" ">
<polygon fill="#fff0f0" stroke="red" points="494,-184 312,-184 312,-165 494,-165 494,-184"/>
<text text-anchor="middle" x="403" y="-172" font-family="Helvetica,sans-Serif" font-size="10.00">Components/BaseComponent.hpp</text>
</a>
</g>
</g>
<!-- Node26&#45;&gt;Node27 -->
<g id="edge26_Node000026_Node000027" class="edge">
<title>Node26&#45;&gt;Node27</title>
<g id="a_edge26_Node000026_Node000027"><a xlink:title=" ">
<path fill="none" stroke="#63b8ff" d="M964.74,-280.32C951.37,-265.03 921.17,-233.62 888,-220 883.59,-218.19 644.82,-196.86 503.99,-184.4"/>
<polygon fill="#63b8ff" stroke="#63b8ff" points="504.3,-180.91 494.03,-183.52 503.68,-187.88 504.3,-180.91"/>
</a>
</g>
</g>
<!-- Node26&#45;&gt;Node29 -->
<g id="edge27_Node000026_Node000029" class="edge">
<title>Node26&#45;&gt;Node29</title>
<g id="a_edge27_Node000026_Node000029"><a xlink:title=" ">
<path fill="none" stroke="#63b8ff" d="M982.62,-280.37C993.9,-271.21 1011.92,-256.56 1025.53,-245.51"/>
<polygon fill="#63b8ff" stroke="#63b8ff" points="1027.78,-248.19 1033.33,-239.17 1023.36,-242.76 1027.78,-248.19"/>
</a>
</g>
</g>
<!-- Node44 -->
<g id="Node000044" class="node">
<title>Node44</title>
<g id="a_Node000044"><a xlink:href="_a_a_b_b_8hpp.html" target="_top" xlink:title=" ">
<polygon fill="white" stroke="#666666" points="1378,-239 1286,-239 1286,-220 1378,-220 1378,-239"/>
<text text-anchor="middle" x="1332" y="-227" font-family="Helvetica,sans-Serif" font-size="10.00">Math/AABB.hpp</text>
</a>
</g>
</g>
<!-- Node26&#45;&gt;Node44 -->
<g id="edge52_Node000026_Node000044" class="edge">
<title>Node26&#45;&gt;Node44</title>
<g id="a_edge52_Node000026_Node000044"><a xlink:title=" ">
<path fill="none" stroke="#63b8ff" d="M1024.35,-280.49C1091.31,-269.61 1206.83,-250.84 1275.66,-239.66"/>
<polygon fill="#63b8ff" stroke="#63b8ff" points="1276.57,-243.05 1285.88,-238 1275.44,-236.14 1276.57,-243.05"/>
</a>
</g>
</g>
<!-- Node29&#45;&gt;Node4 -->
<g id="edge28_Node000029_Node000004" class="edge">
<title>Node29&#45;&gt;Node4</title>
<g id="a_edge28_Node000029_Node000004"><a xlink:title=" ">
<path fill="none" stroke="#63b8ff" d="M940.26,-228.67C778.42,-227.72 456.06,-220.96 174.16,-183.91"/>
<polygon fill="#63b8ff" stroke="#63b8ff" points="174.52,-180.43 164.15,-182.58 173.6,-187.37 174.52,-180.43"/>
</a>
</g>
</g>
<!-- Node29&#45;&gt;Node5 -->
<g id="edge29_Node000029_Node000005" class="edge">
<title>Node29&#45;&gt;Node5</title>
<g id="a_edge29_Node000029_Node000005"><a xlink:title=" ">
<path fill="none" stroke="#63b8ff" d="M940.47,-222.85C755.13,-212.67 379.63,-191.66 304.42,-183.51"/>
<polygon fill="#63b8ff" stroke="#63b8ff" points="304.6,-180.01 294.23,-182.19 303.69,-186.95 304.6,-180.01"/>
</a>
</g>
</g>
<!-- Node29&#45;&gt;Node23 -->
<g id="edge30_Node000029_Node000023" class="edge">
<title>Node29&#45;&gt;Node23</title>
<g id="a_edge30_Node000029_Node000023"><a xlink:title=" ">
<path fill="none" stroke="#63b8ff" d="M1143.55,-219.98C1198.2,-213.35 1258.88,-202.14 1279,-184 1291.41,-172.81 1295.85,-153.89 1297.38,-139.61"/>
<polygon fill="#63b8ff" stroke="#63b8ff" points="1300.89,-139.59 1298.07,-129.38 1293.9,-139.12 1300.89,-139.59"/>
</a>
</g>
</g>
<!-- Node29&#45;&gt;Node27 -->
<g id="edge35_Node000029_Node000027" class="edge">
<title>Node29&#45;&gt;Node27</title>
<g id="a_edge35_Node000029_Node000027"><a xlink:title=" ">
<path fill="none" stroke="#63b8ff" d="M940.28,-220.05C833.71,-211.35 662.68,-197.34 504.42,-184.12"/>
<polygon fill="#63b8ff" stroke="#63b8ff" points="504.27,-180.59 494.02,-183.25 503.69,-187.57 504.27,-180.59"/>
</a>
</g>
</g>
<!-- Node30 -->
<g id="Node000030" class="node">
<title>Node30</title>
<g id="a_Node000030"><a xlink:title=" ">
<polygon fill="#e0e0e0" stroke="#999999" points="1269.5,-184 1106.5,-184 1106.5,-165 1269.5,-165 1269.5,-184"/>
<text text-anchor="middle" x="1188" y="-172" font-family="Helvetica,sans-Serif" font-size="10.00">glm/gtc/matrix_transform.hpp</text>
</a>
</g>
</g>
<!-- Node29&#45;&gt;Node30 -->
<g id="edge31_Node000029_Node000030" class="edge">
<title>Node29&#45;&gt;Node30</title>
<g id="a_edge31_Node000029_Node000030"><a xlink:title=" ">
<path fill="none" stroke="#63b8ff" d="M1067.14,-219.98C1090.82,-211.27 1127.87,-197.63 1154.71,-187.75"/>
<polygon fill="#63b8ff" stroke="#63b8ff" points="1156.27,-190.91 1164.44,-184.17 1153.85,-184.34 1156.27,-190.91"/>
</a>
</g>
</g>
<!-- Node31 -->
<g id="Node000031" class="node">
<title>Node31</title>
<g id="a_Node000031"><a xlink:title=" ">
<polygon fill="#e0e0e0" stroke="#999999" points="642,-184 512,-184 512,-165 642,-165 642,-184"/>
<text text-anchor="middle" x="577" y="-172" font-family="Helvetica,sans-Serif" font-size="10.00">glm/gtc/quaternion.hpp</text>
</a>
</g>
</g>
<!-- Node29&#45;&gt;Node31 -->
<g id="edge32_Node000029_Node000031" class="edge">
<title>Node29&#45;&gt;Node31</title>
<g id="a_edge32_Node000029_Node000031"><a xlink:title=" ">
<path fill="none" stroke="#63b8ff" d="M968.29,-219.96C891.39,-211.28 768.55,-197.4 652.5,-184.17"/>
<polygon fill="#63b8ff" stroke="#63b8ff" points="652.7,-180.67 642.37,-183.01 651.91,-187.62 652.7,-180.67"/>
</a>
</g>
</g>
<!-- Node32 -->
<g id="Node000032" class="node">
<title>Node32</title>
<g id="a_Node000032"><a xlink:title=" ">
<polygon fill="#e0e0e0" stroke="#999999" points="832,-184 660,-184 660,-165 832,-165 832,-184"/>
<text text-anchor="middle" x="746" y="-172" font-family="Helvetica,sans-Serif" font-size="10.00">glm/gtx/matrix_decompose.hpp</text>
</a>
</g>
</g>
<!-- Node29&#45;&gt;Node32 -->
<g id="edge33_Node000029_Node000032" class="edge">
<title>Node29&#45;&gt;Node32</title>
<g id="a_edge33_Node000029_Node000032"><a xlink:title=" ">
<path fill="none" stroke="#63b8ff" d="M996.12,-219.98C943.92,-210.7 860.38,-195.84 804.38,-185.88"/>
<polygon fill="#63b8ff" stroke="#63b8ff" points="804.71,-182.39 794.25,-184.08 803.49,-189.28 804.71,-182.39"/>
</a>
</g>
</g>
<!-- Node33 -->
<g id="Node000033" class="node">
<title>Node33</title>
<g id="a_Node000033"><a xlink:title=" ">
<polygon fill="#e0e0e0" stroke="#999999" points="981.5,-184 850.5,-184 850.5,-165 981.5,-165 981.5,-184"/>
<text text-anchor="middle" x="916" y="-172" font-family="Helvetica,sans-Serif" font-size="10.00">glm/gtx/string_cast.hpp</text>
</a>
</g>
</g>
<!-- Node29&#45;&gt;Node33 -->
<g id="edge34_Node000029_Node000033" class="edge">
<title>Node29&#45;&gt;Node33</title>
<g id="a_edge34_Node000029_Node000033"><a xlink:title=" ">
<path fill="none" stroke="#63b8ff" d="M1023.43,-219.98C1002.57,-211.34 970.03,-197.87 946.23,-188.02"/>
<polygon fill="#63b8ff" stroke="#63b8ff" points="947.52,-184.76 936.94,-184.17 944.84,-191.23 947.52,-184.76"/>
</a>
</g>
</g>
<!-- Node29&#45;&gt;Node34 -->
<g id="edge36_Node000029_Node000034" class="edge">
<title>Node29&#45;&gt;Node34</title>
<g id="a_edge36_Node000029_Node000034"><a xlink:title=" ">
<path fill="none" stroke="#63b8ff" d="M1131.89,-219.98C1244.07,-209.12 1435.14,-190.6 1531.57,-181.26"/>
<polygon fill="#63b8ff" stroke="#63b8ff" points="1532.11,-184.72 1541.73,-180.27 1531.44,-177.75 1532.11,-184.72"/>
</a>
</g>
</g>
<!-- Node43 -->
<g id="Node000043" class="node">
<title>Node43</title>
<g id="a_Node000043"><a xlink:href="_math_2_utils_8hpp.html" target="_top" xlink:title=" ">
<polygon fill="white" stroke="#666666" points="1088,-184 1000,-184 1000,-165 1088,-165 1088,-184"/>
<text text-anchor="middle" x="1044" y="-172" font-family="Helvetica,sans-Serif" font-size="10.00">Math/Utils.hpp</text>
</a>
</g>
</g>
<!-- Node29&#45;&gt;Node43 -->
<g id="edge50_Node000029_Node000043" class="edge">
<title>Node29&#45;&gt;Node43</title>
<g id="a_edge50_Node000029_Node000043"><a xlink:title=" ">
<path fill="none" stroke="#63b8ff" d="M1044,-219.75C1044,-212.8 1044,-202.85 1044,-194.13"/>
<polygon fill="#63b8ff" stroke="#63b8ff" points="1047.5,-194.09 1044,-184.09 1040.5,-194.09 1047.5,-194.09"/>
</a>
</g>
</g>
<!-- Node34&#45;&gt;Node24 -->
<g id="edge38_Node000034_Node000024" class="edge">
<title>Node34&#45;&gt;Node24</title>
<g id="a_edge38_Node000034_Node000024"><a xlink:title=" ">
<path fill="none" stroke="#63b8ff" d="M1640.25,-167.47C1717.43,-158.02 1867.13,-139.7 1955.01,-128.94"/>
<polygon fill="#63b8ff" stroke="#63b8ff" points="1955.65,-132.39 1965.15,-127.7 1954.8,-125.44 1955.65,-132.39"/>
</a>
</g>
</g>
<!-- Node35 -->
<g id="Node000035" class="node">
<title>Node35</title>
<g id="a_Node000035"><a xlink:title=" ">
<polygon fill="#e0e0e0" stroke="#999999" points="1479,-74 1393,-74 1393,-55 1479,-55 1479,-74"/>
<text text-anchor="middle" x="1436" y="-62" font-family="Helvetica,sans-Serif" font-size="10.00">unordered_set</text>
</a>
</g>
</g>
<!-- Node34&#45;&gt;Node35 -->
<g id="edge37_Node000034_Node000035" class="edge">
<title>Node34&#45;&gt;Node35</title>
<g id="a_edge37_Node000034_Node000035"><a xlink:title=" ">
<path fill="none" stroke="#63b8ff" d="M1547.58,-164.92C1500.13,-155.1 1429.78,-139.09 1422,-129 1411.91,-115.91 1417.94,-97.01 1424.96,-83.24"/>
<polygon fill="#63b8ff" stroke="#63b8ff" points="1428.15,-84.7 1430.02,-74.27 1422.06,-81.26 1428.15,-84.7"/>
</a>
</g>
</g>
<!-- Node36 -->
<g id="Node000036" class="node">
<title>Node36</title>
<g id="a_Node000036"><a xlink:href="_entity_8hpp.html" target="_top" xlink:title=" ">
<polygon fill="#fff0f0" stroke="red" points="1550,-19 1464,-19 1464,0 1550,0 1550,-19"/>
<text text-anchor="middle" x="1507" y="-7" font-family="Helvetica,sans-Serif" font-size="10.00">ECS/Entity.hpp</text>
</a>
</g>
</g>
<!-- Node34&#45;&gt;Node36 -->
<g id="edge39_Node000034_Node000036" class="edge">
<title>Node34&#45;&gt;Node36</title>
<g id="a_edge39_Node000034_Node000036"><a xlink:title=" ">
<path fill="none" stroke="#63b8ff" d="M1541.96,-166C1496.15,-158.17 1431.93,-144.84 1412,-129 1390.53,-111.93 1390.4,-100.67 1384,-74 1382.03,-65.79 1379.15,-61.91 1384,-55 1399.83,-32.44 1428.31,-21.26 1453.87,-15.76"/>
<polygon fill="#63b8ff" stroke="#63b8ff" points="1454.7,-19.16 1463.86,-13.85 1453.38,-12.29 1454.7,-19.16"/>
</a>
</g>
</g>
<!-- Node38 -->
<g id="Node000038" class="node">
<title>Node38</title>
<g id="a_Node000038"><a xlink:href="_entity_hierarchy_8hpp.html" target="_top" xlink:title=" ">
<polygon fill="#fff0f0" stroke="red" points="1565,-129 1431,-129 1431,-110 1565,-110 1565,-129"/>
<text text-anchor="middle" x="1498" y="-117" font-family="Helvetica,sans-Serif" font-size="10.00">ECS/EntityHierarchy.hpp</text>
</a>
</g>
</g>
<!-- Node34&#45;&gt;Node38 -->
<g id="edge40_Node000034_Node000038" class="edge">
<title>Node34&#45;&gt;Node38</title>
<g id="a_edge40_Node000034_Node000038"><a xlink:title=" ">
<path fill="none" stroke="#63b8ff" d="M1576.06,-164.98C1561.5,-156.69 1539.13,-143.94 1522.07,-134.22"/>
<polygon fill="#63b8ff" stroke="#63b8ff" points="1523.64,-131.08 1513.21,-129.17 1520.17,-137.16 1523.64,-131.08"/>
</a>
</g>
</g>
<!-- Node40 -->
<g id="Node000040" class="node">
<title>Node40</title>
<g id="a_Node000040"><a xlink:href="_entity_provider_8hpp.html" target="_top" xlink:title="Manages a pool of unused entity identifiers and provides mechanisms for requesting and removing them.">
<polygon fill="#fff0f0" stroke="red" points="1870,-74 1742,-74 1742,-55 1870,-55 1870,-74"/>
<text text-anchor="middle" x="1806" y="-62" font-family="Helvetica,sans-Serif" font-size="10.00">ECS/EntityProvider.hpp</text>
</a>
</g>
</g>
<!-- Node34&#45;&gt;Node40 -->
<g id="edge44_Node000034_Node000040" class="edge">
<title>Node34&#45;&gt;Node40</title>
<g id="a_edge44_Node000034_Node000040"><a xlink:title=" ">
<path fill="none" stroke="#63b8ff" d="M1640.11,-173.32C1714.34,-171.89 1849.67,-164.35 1880,-129 1897.06,-109.12 1866.45,-90.07 1839.57,-78.11"/>
<polygon fill="#63b8ff" stroke="#63b8ff" points="1840.88,-74.86 1830.31,-74.19 1838.15,-81.31 1840.88,-74.86"/>
</a>
</g>
</g>
<!-- Node41 -->
<g id="Node000041" class="node">
<title>Node41</title>
<g id="a_Node000041"><a xlink:href="_singleton_component_8hpp.html" target="_top" xlink:title=" ">
<polygon fill="white" stroke="#666666" points="1870.5,-129 1709.5,-129 1709.5,-110 1870.5,-110 1870.5,-129"/>
<text text-anchor="middle" x="1790" y="-117" font-family="Helvetica,sans-Serif" font-size="10.00">ECS/SingletonComponent.hpp</text>
</a>
</g>
</g>
<!-- Node34&#45;&gt;Node41 -->
<g id="edge47_Node000034_Node000041" class="edge">
<title>Node34&#45;&gt;Node41</title>
<g id="a_edge47_Node000034_Node000041"><a xlink:title=" ">
<path fill="none" stroke="#63b8ff" d="M1622.97,-164.98C1656.82,-155.97 1710.4,-141.7 1747.71,-131.76"/>
<polygon fill="#63b8ff" stroke="#63b8ff" points="1749.01,-135.04 1757.78,-129.08 1747.21,-128.27 1749.01,-135.04"/>
</a>
</g>
</g>
<!-- Node42 -->
<g id="Node000042" class="node">
<title>Node42</title>
<g id="a_Node000042"><a xlink:href="_sparse_set_8hpp.html" target="_top" xlink:title=" ">
<polygon fill="white" stroke="#666666" points="1691,-129 1583,-129 1583,-110 1691,-110 1691,-129"/>
<text text-anchor="middle" x="1637" y="-117" font-family="Helvetica,sans-Serif" font-size="10.00">ECS/SparseSet.hpp</text>
</a>
</g>
</g>
<!-- Node34&#45;&gt;Node42 -->
<g id="edge48_Node000034_Node000042" class="edge">
<title>Node34&#45;&gt;Node42</title>
<g id="a_edge48_Node000034_Node000042"><a xlink:title=" ">
<path fill="none" stroke="#63b8ff" d="M1598.6,-164.75C1605.16,-157.18 1614.82,-146.05 1622.81,-136.84"/>
<polygon fill="#63b8ff" stroke="#63b8ff" points="1625.63,-138.94 1629.55,-129.09 1620.35,-134.35 1625.63,-138.94"/>
</a>
</g>
</g>
<!-- Node38&#45;&gt;Node21 -->
<g id="edge41_Node000038_Node000021" class="edge">
<title>Node38&#45;&gt;Node21</title>
<g id="a_edge41_Node000038_Node000021"><a xlink:title=" ">
<path fill="none" stroke="#63b8ff" d="M1513.26,-109.98C1528.13,-101.69 1550.98,-88.94 1568.42,-79.22"/>
<polygon fill="#63b8ff" stroke="#63b8ff" points="1570.43,-82.1 1577.46,-74.17 1567.02,-75.99 1570.43,-82.1"/>
</a>
</g>
</g>
<!-- Node38&#45;&gt;Node35 -->
<g id="edge42_Node000038_Node000035" class="edge">
<title>Node38&#45;&gt;Node35</title>
<g id="a_edge42_Node000038_Node000035"><a xlink:title=" ">
<path fill="none" stroke="#63b8ff" d="M1488.04,-109.98C1478.87,-102.15 1465.06,-90.34 1453.97,-80.86"/>
<polygon fill="#63b8ff" stroke="#63b8ff" points="1456.02,-78.01 1446.14,-74.17 1451.47,-83.33 1456.02,-78.01"/>
</a>
</g>
</g>
<!-- Node38&#45;&gt;Node36 -->
<g id="edge43_Node000038_Node000036" class="edge">
<title>Node38&#45;&gt;Node36</title>
<g id="a_edge43_Node000038_Node000036"><a xlink:title=" ">
<path fill="none" stroke="#63b8ff" d="M1498.74,-109.66C1500.19,-92.17 1503.47,-52.8 1505.44,-29.27"/>
<polygon fill="#63b8ff" stroke="#63b8ff" points="1508.94,-29.41 1506.28,-19.16 1501.96,-28.83 1508.94,-29.41"/>
</a>
</g>
</g>
<!-- Node40&#45;&gt;Node25 -->
<g id="edge45_Node000040_Node000025" class="edge">
<title>Node40&#45;&gt;Node25</title>
<g id="a_edge45_Node000040_Node000025"><a xlink:title=" ">
<path fill="none" stroke="#63b8ff" d="M1817.25,-54.98C1827.8,-47 1843.8,-34.88 1856.44,-25.31"/>
<polygon fill="#63b8ff" stroke="#63b8ff" points="1858.69,-28 1864.55,-19.17 1854.46,-22.42 1858.69,-28"/>
</a>
</g>
</g>
<!-- Node40&#45;&gt;Node36 -->
<g id="edge46_Node000040_Node000036" class="edge">
<title>Node40&#45;&gt;Node36</title>
<g id="a_edge46_Node000040_Node000036"><a xlink:title=" ">
<path fill="none" stroke="#63b8ff" d="M1757.96,-54.98C1703.88,-45.4 1616.26,-29.87 1560.16,-19.92"/>
<polygon fill="#63b8ff" stroke="#63b8ff" points="1560.53,-16.43 1550.07,-18.13 1559.3,-23.33 1560.53,-16.43"/>
</a>
</g>
</g>
<!-- Node42&#45;&gt;Node40 -->
<g id="edge49_Node000042_Node000040" class="edge">
<title>Node42&#45;&gt;Node40</title>
<g id="a_edge49_Node000042_Node000040"><a xlink:title=" ">
<path fill="none" stroke="#63b8ff" d="M1664.15,-109.98C1692.53,-101.09 1737.23,-87.07 1768.86,-77.15"/>
<polygon fill="#63b8ff" stroke="#63b8ff" points="1770.14,-80.41 1778.63,-74.08 1768.05,-73.73 1770.14,-80.41"/>
</a>
</g>
</g>
<!-- Node43&#45;&gt;Node23 -->
<g id="edge51_Node000043_Node000023" class="edge">
<title>Node43&#45;&gt;Node23</title>
<g id="a_edge51_Node000043_Node000023"><a xlink:title=" ">
<path fill="none" stroke="#63b8ff" d="M1084.81,-164.98C1129.58,-155.64 1201.42,-140.65 1249.16,-130.69"/>
<polygon fill="#63b8ff" stroke="#63b8ff" points="1249.89,-134.12 1258.96,-128.65 1248.46,-127.26 1249.89,-134.12"/>
</a>
</g>
</g>
<!-- Node44&#45;&gt;Node23 -->
<g id="edge55_Node000044_Node000023" class="edge">
<title>Node44&#45;&gt;Node23</title>
<g id="a_edge55_Node000044_Node000023"><a xlink:title=" ">
<path fill="none" stroke="#63b8ff" d="M1329.22,-219.66C1323.69,-202.09 1311.21,-162.45 1303.81,-138.95"/>
<polygon fill="#63b8ff" stroke="#63b8ff" points="1307.07,-137.65 1300.73,-129.16 1300.39,-139.75 1307.07,-137.65"/>
</a>
</g>
</g>
<!-- Node45 -->
<g id="Node000045" class="node">
<title>Node45</title>
<g id="a_Node000045"><a xlink:href="_ray_8hpp.html" target="_top" xlink:title=" ">
<polygon fill="white" stroke="#666666" points="1447.5,-184 1364.5,-184 1364.5,-165 1447.5,-165 1447.5,-184"/>
<text text-anchor="middle" x="1406" y="-172" font-family="Helvetica,sans-Serif" font-size="10.00">Math/Ray.hpp</text>
</a>
</g>
</g>
<!-- Node44&#45;&gt;Node45 -->
<g id="edge53_Node000044_Node000045" class="edge">
<title>Node44&#45;&gt;Node45</title>
<g id="a_edge53_Node000044_Node000045"><a xlink:title=" ">
<path fill="none" stroke="#63b8ff" d="M1343.89,-219.98C1355.15,-211.92 1372.29,-199.65 1385.71,-190.03"/>
<polygon fill="#63b8ff" stroke="#63b8ff" points="1387.8,-192.84 1393.89,-184.17 1383.73,-187.15 1387.8,-192.84"/>
</a>
</g>
</g>
<!-- Node45&#45;&gt;Node23 -->
<g id="edge54_Node000045_Node000023" class="edge">
<title>Node45&#45;&gt;Node23</title>
<g id="a_edge54_Node000045_Node000023"><a xlink:title=" ">
<path fill="none" stroke="#63b8ff" d="M1388.65,-164.98C1371.43,-156.54 1344.8,-143.47 1324.85,-133.68"/>
<polygon fill="#63b8ff" stroke="#63b8ff" points="1326.19,-130.43 1315.67,-129.17 1323.1,-136.72 1326.19,-130.43"/>
</a>
</g>
</g>
<!-- Node46&#45;&gt;Node23 -->
<g id="edge57_Node000046_Node000023" class="edge">
<title>Node46&#45;&gt;Node23</title>
<g id="a_edge57_Node000046_Node000023"><a xlink:title=" ">
<path fill="none" stroke="#63b8ff" d="M1337.39,-280.46C1389.34,-262.26 1496.49,-217.06 1457,-165 1450.17,-156 1391.41,-141.2 1347.29,-131.16"/>
<polygon fill="#63b8ff" stroke="#63b8ff" points="1347.81,-127.69 1337.28,-128.91 1346.27,-134.52 1347.81,-127.69"/>
</a>
</g>
</g>
<!-- Node46&#45;&gt;Node29 -->
<g id="edge58_Node000046_Node000029" class="edge">
<title>Node46&#45;&gt;Node29</title>
<g id="a_edge58_Node000046_Node000029"><a xlink:title=" ">
<path fill="none" stroke="#63b8ff" d="M1272.18,-280.49C1224.72,-270.1 1144.37,-252.49 1092.79,-241.19"/>
<polygon fill="#63b8ff" stroke="#63b8ff" points="1093.39,-237.74 1082.87,-239.02 1091.89,-244.58 1093.39,-237.74"/>
</a>
</g>
</g>
<!-- Node46&#45;&gt;Node45 -->
<g id="edge59_Node000046_Node000045" class="edge">
<title>Node46&#45;&gt;Node45</title>
<g id="a_edge59_Node000046_Node000045"><a xlink:title=" ">
<path fill="none" stroke="#63b8ff" d="M1331.34,-280.48C1348.56,-272.27 1372.67,-258.26 1387,-239 1396.77,-225.87 1401.55,-207.74 1403.87,-194.21"/>
<polygon fill="#63b8ff" stroke="#63b8ff" points="1407.35,-194.53 1405.29,-184.14 1400.42,-193.55 1407.35,-194.53"/>
</a>
</g>
</g>
</g>
</svg>
