<?xml version="1.0" encoding="UTF-8" standalone="no"?>
<!DOCTYPE svg PUBLIC "-//W3C//DTD SVG 1.1//EN"
 "http://www.w3.org/Graphics/SVG/1.1/DTD/svg11.dtd">
<!-- Generated by graphviz version 2.43.0 (0)
 -->
<!-- Title: src/ui/UI.cpp Pages: 1 -->
<svg width="2241pt" height="375pt"
 viewBox="0.00 0.00 2241.00 375.00" xmlns="http://www.w3.org/2000/svg" xmlns:xlink="http://www.w3.org/1999/xlink">
<g id="graph0" class="graph" transform="scale(1 1) rotate(0) translate(4 371)">
<title>src/ui/UI.cpp</title>
<polygon fill="white" stroke="transparent" points="-4,4 -4,-371 2237,-371 2237,4 -4,4"/>
<!-- Node1 -->
<g id="node1" class="node">
<title>Node1</title>
<g id="a_node1"><a xlink:title=" ">
<polygon fill="#bfbfbf" stroke="black" points="1143.5,-347.5 1143.5,-366.5 1220.5,-366.5 1220.5,-347.5 1143.5,-347.5"/>
<text text-anchor="middle" x="1182" y="-354.5" font-family="Helvetica,sans-Serif" font-size="10.00">src/ui/UI.cpp</text>
</a>
</g>
</g>
<!-- Node2 -->
<g id="node2" class="node">
<title>Node2</title>
<g id="a_node2"><a xlink:title=" ">
<polygon fill="white" stroke="#bfbfbf" points="0,-286 0,-305 50,-305 50,-286 0,-286"/>
<text text-anchor="middle" x="25" y="-293" font-family="Helvetica,sans-Serif" font-size="10.00">chrono</text>
</a>
</g>
</g>
<!-- Node1&#45;&gt;Node2 -->
<g id="edge1" class="edge">
<title>Node1&#45;&gt;Node2</title>
<path fill="none" stroke="midnightblue" d="M1143.45,-356.32C971.31,-357.46 272.07,-359 59,-311 56.48,-310.43 53.91,-309.68 51.37,-308.83"/>
<polygon fill="midnightblue" stroke="midnightblue" points="52.48,-305.5 41.89,-305.13 49.94,-312.02 52.48,-305.5"/>
</g>
<!-- Node3 -->
<g id="node3" class="node">
<title>Node3</title>
<g id="a_node3"><a xlink:title=" ">
<polygon fill="white" stroke="#bfbfbf" points="68,-286 68,-305 128,-305 128,-286 68,-286"/>
<text text-anchor="middle" x="98" y="-293" font-family="Helvetica,sans-Serif" font-size="10.00">iostream</text>
</a>
</g>
</g>
<!-- Node1&#45;&gt;Node3 -->
<g id="edge2" class="edge">
<title>Node1&#45;&gt;Node3</title>
<path fill="none" stroke="midnightblue" d="M1143.45,-355.95C978.95,-355.48 335.13,-351.06 137,-311 133.74,-310.34 130.4,-309.45 127.1,-308.43"/>
<polygon fill="midnightblue" stroke="midnightblue" points="128.08,-305.07 117.49,-305.11 125.79,-311.69 128.08,-305.07"/>
</g>
<!-- Node4 -->
<g id="node4" class="node">
<title>Node4</title>
<g id="a_node4"><a xlink:title=" ">
<polygon fill="white" stroke="#bfbfbf" points="146,-286 146,-305 196,-305 196,-286 146,-286"/>
<text text-anchor="middle" x="171" y="-293" font-family="Helvetica,sans-Serif" font-size="10.00">stdio.h</text>
</a>
</g>
</g>
<!-- Node1&#45;&gt;Node4 -->
<g id="edge3" class="edge">
<title>Node1&#45;&gt;Node4</title>
<path fill="none" stroke="midnightblue" d="M1143.25,-355.8C985.74,-354.75 393.11,-348.33 210,-311 206.74,-310.34 203.4,-309.44 200.1,-308.42"/>
<polygon fill="midnightblue" stroke="midnightblue" points="201.09,-305.06 190.49,-305.09 198.79,-311.68 201.09,-305.06"/>
</g>
<!-- Node5 -->
<g id="node5" class="node">
<title>Node5</title>
<g id="a_node5"><a xlink:title=" ">
<polygon fill="white" stroke="#bfbfbf" points="405,-56.5 405,-75.5 449,-75.5 449,-56.5 405,-56.5"/>
<text text-anchor="middle" x="427" y="-63.5" font-family="Helvetica,sans-Serif" font-size="10.00">string</text>
</a>
</g>
</g>
<!-- Node1&#45;&gt;Node5 -->
<g id="edge4" class="edge">
<title>Node1&#45;&gt;Node5</title>
<path fill="none" stroke="midnightblue" d="M1143.44,-354.71C969.72,-348.47 265.68,-318.7 206,-244 171.61,-200.95 136.38,-216.62 269,-112 305.83,-82.94 360.56,-72.65 394.98,-69"/>
<polygon fill="midnightblue" stroke="midnightblue" points="395.34,-72.48 404.97,-68.07 394.69,-65.51 395.34,-72.48"/>
</g>
<!-- Node6 -->
<g id="node6" class="node">
<title>Node6</title>
<g id="a_node6"><a xlink:title=" ">
<polygon fill="white" stroke="#bfbfbf" points="1705,-286 1705,-305 1753,-305 1753,-286 1705,-286"/>
<text text-anchor="middle" x="1729" y="-293" font-family="Helvetica,sans-Serif" font-size="10.00">thread</text>
</a>
</g>
</g>
<!-- Node1&#45;&gt;Node6 -->
<g id="edge5" class="edge">
<title>Node1&#45;&gt;Node6</title>
<path fill="none" stroke="midnightblue" d="M1220.56,-356.19C1306.29,-355.85 1518.75,-350.67 1691,-311 1694,-310.31 1697.08,-309.43 1700.13,-308.46"/>
<polygon fill="midnightblue" stroke="midnightblue" points="1701.35,-311.73 1709.6,-305.08 1699,-305.14 1701.35,-311.73"/>
</g>
<!-- Node7 -->
<g id="node7" class="node">
<title>Node7</title>
<g id="a_node7"><a xlink:title=" ">
<polygon fill="white" stroke="#bfbfbf" points="1181.5,-224.5 1181.5,-243.5 1234.5,-243.5 1234.5,-224.5 1181.5,-224.5"/>
<text text-anchor="middle" x="1208" y="-231.5" font-family="Helvetica,sans-Serif" font-size="10.00">imgui.h</text>
</a>
</g>
</g>
<!-- Node1&#45;&gt;Node7 -->
<g id="edge6" class="edge">
<title>Node1&#45;&gt;Node7</title>
<path fill="none" stroke="midnightblue" d="M1183.95,-347.38C1185.98,-338.33 1189.26,-323.67 1192,-311 1196.22,-291.49 1200.91,-269.12 1204.12,-253.73"/>
<polygon fill="midnightblue" stroke="midnightblue" points="1207.55,-254.4 1206.16,-243.9 1200.7,-252.98 1207.55,-254.4"/>
</g>
<!-- Node8 -->
<g id="node8" class="node">
<title>Node8</title>
<g id="a_node8"><a xlink:title=" ">
<polygon fill="white" stroke="#bfbfbf" points="1771,-280.5 1771,-310.5 1891,-310.5 1891,-280.5 1771,-280.5"/>
<text text-anchor="start" x="1779" y="-298.5" font-family="Helvetica,sans-Serif" font-size="10.00">backends/imgui_impl</text>
<text text-anchor="middle" x="1831" y="-287.5" font-family="Helvetica,sans-Serif" font-size="10.00">_glfw.h</text>
</a>
</g>
</g>
<!-- Node1&#45;&gt;Node8 -->
<g id="edge7" class="edge">
<title>Node1&#45;&gt;Node8</title>
<path fill="none" stroke="midnightblue" d="M1220.53,-354.74C1312.41,-351.36 1551.67,-340.39 1760.93,-311.03"/>
<polygon fill="midnightblue" stroke="midnightblue" points="1761.46,-314.49 1770.87,-309.62 1760.48,-307.56 1761.46,-314.49"/>
</g>
<!-- Node9 -->
<g id="node9" class="node">
<title>Node9</title>
<g id="a_node9"><a xlink:title=" ">
<polygon fill="white" stroke="#bfbfbf" points="1909,-280.5 1909,-310.5 2029,-310.5 2029,-280.5 1909,-280.5"/>
<text text-anchor="start" x="1917" y="-298.5" font-family="Helvetica,sans-Serif" font-size="10.00">backends/imgui_impl</text>
<text text-anchor="middle" x="1969" y="-287.5" font-family="Helvetica,sans-Serif" font-size="10.00">_opengl3.h</text>
</a>
</g>
</g>
<!-- Node1&#45;&gt;Node9 -->
<g id="edge8" class="edge">
<title>Node1&#45;&gt;Node9</title>
<path fill="none" stroke="midnightblue" d="M1220.72,-355.54C1327.35,-353.85 1634.34,-346.17 1898.7,-311.04"/>
<polygon fill="midnightblue" stroke="midnightblue" points="1899.43,-314.47 1908.88,-309.67 1898.5,-307.53 1899.43,-314.47"/>
</g>
<!-- Node10 -->
<g id="node10" class="node">
<title>Node10</title>
<g id="a_node10"><a xlink:title=" ">
<polygon fill="white" stroke="#bfbfbf" points="2047.5,-286 2047.5,-305 2118.5,-305 2118.5,-286 2047.5,-286"/>
<text text-anchor="middle" x="2083" y="-293" font-family="Helvetica,sans-Serif" font-size="10.00">glad/glad.h</text>
</a>
</g>
</g>
<!-- Node1&#45;&gt;Node10 -->
<g id="edge9" class="edge">
<title>Node1&#45;&gt;Node10</title>
<path fill="none" stroke="midnightblue" d="M1220.68,-355.3C1365.82,-352.45 1877.83,-340.5 2038,-311 2042.18,-310.23 2046.5,-309.18 2050.75,-307.99"/>
<polygon fill="midnightblue" stroke="midnightblue" points="2051.86,-311.31 2060.4,-305.04 2049.82,-304.62 2051.86,-311.31"/>
</g>
<!-- Node11 -->
<g id="node11" class="node">
<title>Node11</title>
<g id="a_node11"><a xlink:title=" ">
<polygon fill="white" stroke="#bfbfbf" points="2137,-286 2137,-305 2233,-305 2233,-286 2137,-286"/>
<text text-anchor="middle" x="2185" y="-293" font-family="Helvetica,sans-Serif" font-size="10.00">imgui_internal.h</text>
</a>
</g>
</g>
<!-- Node1&#45;&gt;Node11 -->
<g id="edge10" class="edge">
<title>Node1&#45;&gt;Node11</title>
<path fill="none" stroke="midnightblue" d="M1220.66,-355.2C1375.15,-351.85 1948.51,-337.82 2128,-311 2133.95,-310.11 2140.18,-308.86 2146.25,-307.47"/>
<polygon fill="midnightblue" stroke="midnightblue" points="2147.35,-310.8 2156.23,-305.02 2145.69,-304 2147.35,-310.8"/>
</g>
<!-- Node12 -->
<g id="node12" class="node">
<title>Node12</title>
<g id="a_node12"><a xlink:href="_image_8hpp.html" target="_top" xlink:title=" ">
<polygon fill="white" stroke="black" points="1718,-168.5 1718,-187.5 1810,-187.5 1810,-168.5 1718,-168.5"/>
<text text-anchor="middle" x="1764" y="-175.5" font-family="Helvetica,sans-Serif" font-size="10.00">core/Image.hpp</text>
</a>
</g>
</g>
<!-- Node1&#45;&gt;Node12 -->
<g id="edge11" class="edge">
<title>Node1&#45;&gt;Node12</title>
<path fill="none" stroke="midnightblue" d="M1220.69,-355.23C1319.51,-352.79 1579,-343.41 1658,-311 1678.17,-302.73 1676.03,-288.73 1696,-280 1748.43,-257.07 1913.47,-287.2 1951,-244 1990.4,-198.65 1888.84,-184.93 1820.42,-180.78"/>
<polygon fill="midnightblue" stroke="midnightblue" points="1820.35,-177.27 1810.17,-180.22 1819.97,-184.26 1820.35,-177.27"/>
</g>
<!-- Node14 -->
<g id="node14" class="node">
<title>Node14</title>
<g id="a_node14"><a xlink:href="_events_8hpp.html" target="_top" xlink:title="Contains the declarations for Python interaction functions and event handling.">
<polygon fill="white" stroke="black" points="1541.5,-286 1541.5,-305 1648.5,-305 1648.5,-286 1541.5,-286"/>
<text text-anchor="middle" x="1595" y="-293" font-family="Helvetica,sans-Serif" font-size="10.00">python/Events.hpp</text>
</a>
</g>
</g>
<!-- Node1&#45;&gt;Node14 -->
<g id="edge13" class="edge">
<title>Node1&#45;&gt;Node14</title>
<path fill="none" stroke="midnightblue" d="M1220.63,-352.35C1285.49,-345.94 1420.24,-331.36 1533,-311 1538.92,-309.93 1545.13,-308.66 1551.24,-307.32"/>
<polygon fill="midnightblue" stroke="midnightblue" points="1552.36,-310.66 1561.34,-305.03 1550.82,-303.83 1552.36,-310.66"/>
</g>
<!-- Node26 -->
<g id="node26" class="node">
<title>Node26</title>
<g id="a_node26"><a xlink:href="_interpreter_8hpp.html" target="_top" xlink:title=" ">
<polygon fill="white" stroke="black" points="1398.5,-286 1398.5,-305 1523.5,-305 1523.5,-286 1398.5,-286"/>
<text text-anchor="middle" x="1461" y="-293" font-family="Helvetica,sans-Serif" font-size="10.00">python/Interpreter.hpp</text>
</a>
</g>
</g>
<!-- Node1&#45;&gt;Node26 -->
<g id="edge28" class="edge">
<title>Node1&#45;&gt;Node26</title>
<path fill="none" stroke="midnightblue" d="M1220.5,-347.79C1270.18,-337.2 1356.68,-318.75 1411.28,-307.1"/>
<polygon fill="midnightblue" stroke="midnightblue" points="1412.04,-310.52 1421.09,-305.01 1410.58,-303.67 1412.04,-310.52"/>
</g>
<!-- Node27 -->
<g id="node27" class="node">
<title>Node27</title>
<g id="a_node27"><a xlink:href="_u_i_8hpp.html" target="_top" xlink:title="Contains the declaration of the UI class, responsible for handling the user interface.">
<polygon fill="white" stroke="black" points="1123,-286 1123,-305 1183,-305 1183,-286 1123,-286"/>
<text text-anchor="middle" x="1153" y="-293" font-family="Helvetica,sans-Serif" font-size="10.00">ui/UI.hpp</text>
</a>
</g>
</g>
<!-- Node1&#45;&gt;Node27 -->
<g id="edge33" class="edge">
<title>Node1&#45;&gt;Node27</title>
<path fill="none" stroke="midnightblue" d="M1177.85,-347.48C1173.62,-338.82 1166.96,-325.15 1161.6,-314.15"/>
<polygon fill="midnightblue" stroke="midnightblue" points="1164.67,-312.46 1157.15,-305.01 1158.38,-315.53 1164.67,-312.46"/>
</g>
<!-- Node31 -->
<g id="node31" class="node">
<title>Node31</title>
<g id="a_node31"><a xlink:href="_console_widget_8hpp.html" target="_top" xlink:title="Contains the declaration of classes related to logging and a console user interface widget.">
<polygon fill="white" stroke="black" points="409,-224.5 409,-243.5 573,-243.5 573,-224.5 409,-224.5"/>
<text text-anchor="middle" x="491" y="-231.5" font-family="Helvetica,sans-Serif" font-size="10.00">ui/widgets/ConsoleWidget.hpp</text>
</a>
</g>
</g>
<!-- Node1&#45;&gt;Node31 -->
<g id="edge44" class="edge">
<title>Node1&#45;&gt;Node31</title>
<path fill="none" stroke="midnightblue" d="M1143.44,-352.74C1075.93,-346.71 932.08,-332.45 812,-311 710.47,-292.87 592.94,-262.64 532.16,-246.3"/>
<polygon fill="midnightblue" stroke="midnightblue" points="532.76,-242.84 522.2,-243.61 530.94,-249.6 532.76,-242.84"/>
</g>
<!-- Node33 -->
<g id="node33" class="node">
<title>Node33</title>
<g id="a_node33"><a xlink:href="_filesystem_widget_8hpp.html" target="_top" xlink:title="Contains the declaration of the FilesystemWidget class, a user interface widget for interacting with ...">
<polygon fill="white" stroke="black" points="1395.5,-224.5 1395.5,-243.5 1574.5,-243.5 1574.5,-224.5 1395.5,-224.5"/>
<text text-anchor="middle" x="1485" y="-231.5" font-family="Helvetica,sans-Serif" font-size="10.00">ui/widgets/FilesystemWidget.hpp</text>
</a>
</g>
</g>
<!-- Node1&#45;&gt;Node33 -->
<g id="edge49" class="edge">
<title>Node1&#45;&gt;Node33</title>
<path fill="none" stroke="midnightblue" d="M1203.31,-347.49C1255.88,-326.5 1391.98,-272.15 1453.72,-247.49"/>
<polygon fill="midnightblue" stroke="midnightblue" points="1455.32,-250.62 1463.31,-243.66 1452.73,-244.12 1455.32,-250.62"/>
</g>
<!-- Node37 -->
<g id="node37" class="node">
<title>Node37</title>
<g id="a_node37"><a xlink:href="_objects_widget_8hpp.html" target="_top" xlink:title="Contains the declaration of the ObjectsWidget class, a user interface widget for managing game object...">
<polygon fill="white" stroke="black" points="887,-224.5 887,-243.5 1049,-243.5 1049,-224.5 887,-224.5"/>
<text text-anchor="middle" x="968" y="-231.5" font-family="Helvetica,sans-Serif" font-size="10.00">ui/widgets/ObjectsWidget.hpp</text>
</a>
</g>
</g>
<!-- Node1&#45;&gt;Node37 -->
<g id="edge58" class="edge">
<title>Node1&#45;&gt;Node37</title>
<path fill="none" stroke="midnightblue" d="M1143.47,-354.58C1082.05,-351.41 966.29,-341.45 941,-311 926.68,-293.76 940.83,-268.36 953.44,-251.75"/>
<polygon fill="midnightblue" stroke="midnightblue" points="956.18,-253.93 959.74,-243.95 950.73,-249.53 956.18,-253.93"/>
</g>
<!-- Node38 -->
<g id="node38" class="node">
<title>Node38</title>
<g id="a_node38"><a xlink:href="_preview_widget_8hpp.html" target="_top" xlink:title="Contains the declaration of the PreviewWidget class, a user interface widget for previewing content.">
<polygon fill="white" stroke="black" points="591,-224.5 591,-243.5 755,-243.5 755,-224.5 591,-224.5"/>
<text text-anchor="middle" x="673" y="-231.5" font-family="Helvetica,sans-Serif" font-size="10.00">ui/widgets/PreviewWidget.hpp</text>
</a>
</g>
</g>
<!-- Node1&#45;&gt;Node38 -->
<g id="edge63" class="edge">
<title>Node1&#45;&gt;Node38</title>
<path fill="none" stroke="midnightblue" d="M1143.3,-350.45C1093.6,-343.02 1004.82,-328.69 930,-311 849.72,-292.02 757.38,-262.88 708.18,-246.76"/>
<polygon fill="midnightblue" stroke="midnightblue" points="709.24,-243.42 698.65,-243.61 707.05,-250.07 709.24,-243.42"/>
</g>
<!-- Node39 -->
<g id="node39" class="node">
<title>Node39</title>
<g id="a_node39"><a xlink:href="_properties_widget_8hpp.html" target="_top" xlink:title="Contains the declaration of the PropertiesWidget class, a user interface widget for managing game obj...">
<polygon fill="white" stroke="black" points="215.5,-224.5 215.5,-243.5 390.5,-243.5 390.5,-224.5 215.5,-224.5"/>
<text text-anchor="middle" x="303" y="-231.5" font-family="Helvetica,sans-Serif" font-size="10.00">ui/widgets/PropertiesWidget.hpp</text>
</a>
</g>
</g>
<!-- Node1&#45;&gt;Node39 -->
<g id="edge65" class="edge">
<title>Node1&#45;&gt;Node39</title>
<path fill="none" stroke="midnightblue" d="M1143.3,-354.21C1057.17,-349.87 843.25,-337.19 666,-311 549.83,-293.84 414.94,-262.55 346.97,-245.98"/>
<polygon fill="midnightblue" stroke="midnightblue" points="347.58,-242.53 337.04,-243.55 345.92,-249.33 347.58,-242.53"/>
</g>
<!-- Node42 -->
<g id="node42" class="node">
<title>Node42</title>
<g id="a_node42"><a xlink:href="_scene_widget_8hpp.html" target="_top" xlink:title="Contains the declaration of the SceneWidget class, a user interface widget for rendering scenes.">
<polygon fill="white" stroke="black" points="949.5,-286 949.5,-305 1104.5,-305 1104.5,-286 949.5,-286"/>
<text text-anchor="middle" x="1027" y="-293" font-family="Helvetica,sans-Serif" font-size="10.00">ui/widgets/SceneWidget.hpp</text>
</a>
</g>
</g>
<!-- Node1&#45;&gt;Node42 -->
<g id="edge71" class="edge">
<title>Node1&#45;&gt;Node42</title>
<path fill="none" stroke="midnightblue" d="M1159.79,-347.48C1133.32,-337.31 1088.89,-320.26 1058.78,-308.7"/>
<polygon fill="midnightblue" stroke="midnightblue" points="1059.76,-305.33 1049.17,-305.01 1057.25,-311.86 1059.76,-305.33"/>
</g>
<!-- Node13 -->
<g id="node13" class="node">
<title>Node13</title>
<g id="a_node13"><a xlink:title=" ">
<polygon fill="white" stroke="#bfbfbf" points="1396,-56.5 1396,-75.5 1464,-75.5 1464,-56.5 1396,-56.5"/>
<text text-anchor="middle" x="1430" y="-63.5" font-family="Helvetica,sans-Serif" font-size="10.00">filesystem</text>
</a>
</g>
</g>
<!-- Node12&#45;&gt;Node13 -->
<g id="edge12" class="edge">
<title>Node12&#45;&gt;Node13</title>
<path fill="none" stroke="midnightblue" d="M1738.07,-168.46C1678.88,-148.97 1533.72,-101.16 1465.95,-78.84"/>
<polygon fill="midnightblue" stroke="midnightblue" points="1466.74,-75.41 1456.14,-75.61 1464.55,-82.06 1466.74,-75.41"/>
</g>
<!-- Node15 -->
<g id="node15" class="node">
<title>Node15</title>
<g id="a_node15"><a xlink:title=" ">
<polygon fill="white" stroke="#bfbfbf" points="1697.5,-224.5 1697.5,-243.5 1804.5,-243.5 1804.5,-224.5 1697.5,-224.5"/>
<text text-anchor="middle" x="1751" y="-231.5" font-family="Helvetica,sans-Serif" font-size="10.00">pybind11/embed.h</text>
</a>
</g>
</g>
<!-- Node14&#45;&gt;Node15 -->
<g id="edge14" class="edge">
<title>Node14&#45;&gt;Node15</title>
<path fill="none" stroke="midnightblue" d="M1617.35,-285.98C1643.99,-275.81 1688.71,-258.76 1719.01,-247.2"/>
<polygon fill="midnightblue" stroke="midnightblue" points="1720.59,-250.34 1728.69,-243.51 1718.1,-243.8 1720.59,-250.34"/>
</g>
<!-- Node16 -->
<g id="node16" class="node">
<title>Node16</title>
<g id="a_node16"><a xlink:title=" ">
<polygon fill="white" stroke="#bfbfbf" points="1822.5,-224.5 1822.5,-243.5 1941.5,-243.5 1941.5,-224.5 1822.5,-224.5"/>
<text text-anchor="middle" x="1882" y="-231.5" font-family="Helvetica,sans-Serif" font-size="10.00">pybind11/pybind11.h</text>
</a>
</g>
</g>
<!-- Node14&#45;&gt;Node16 -->
<g id="edge15" class="edge">
<title>Node14&#45;&gt;Node16</title>
<path fill="none" stroke="midnightblue" d="M1634.9,-285.94C1644.13,-283.98 1653.9,-281.9 1663,-280 1720.1,-268.05 1785.64,-254.62 1830.02,-245.57"/>
<polygon fill="midnightblue" stroke="midnightblue" points="1830.9,-248.96 1840,-243.53 1829.5,-242.1 1830.9,-248.96"/>
</g>
<!-- Node17 -->
<g id="node17" class="node">
<title>Node17</title>
<g id="a_node17"><a xlink:title=" ">
<polygon fill="white" stroke="#bfbfbf" points="1593,-224.5 1593,-243.5 1679,-243.5 1679,-224.5 1593,-224.5"/>
<text text-anchor="middle" x="1636" y="-231.5" font-family="Helvetica,sans-Serif" font-size="10.00">pybind11/stl.h</text>
</a>
</g>
</g>
<!-- Node14&#45;&gt;Node17 -->
<g id="edge16" class="edge">
<title>Node14&#45;&gt;Node17</title>
<path fill="none" stroke="midnightblue" d="M1600.87,-285.98C1606.96,-277.14 1616.64,-263.09 1624.3,-251.98"/>
<polygon fill="midnightblue" stroke="midnightblue" points="1627.34,-253.73 1630.14,-243.51 1621.58,-249.76 1627.34,-253.73"/>
</g>
<!-- Node18 -->
<g id="node18" class="node">
<title>Node18</title>
<g id="a_node18"><a xlink:href="_renderer_8hpp.html" target="_top" xlink:title=" ">
<polygon fill="white" stroke="black" points="1252.5,-224.5 1252.5,-243.5 1377.5,-243.5 1377.5,-224.5 1252.5,-224.5"/>
<text text-anchor="middle" x="1315" y="-231.5" font-family="Helvetica,sans-Serif" font-size="10.00">renderer/Renderer.hpp</text>
</a>
</g>
</g>
<!-- Node14&#45;&gt;Node18 -->
<g id="edge17" class="edge">
<title>Node14&#45;&gt;Node18</title>
<path fill="none" stroke="midnightblue" d="M1559.3,-285.98C1550.7,-283.98 1541.53,-281.88 1533,-280 1476.8,-267.63 1412.23,-254.43 1368.03,-245.54"/>
<polygon fill="midnightblue" stroke="midnightblue" points="1368.58,-242.08 1358.09,-243.55 1367.2,-248.95 1368.58,-242.08"/>
</g>
<!-- Node19 -->
<g id="node19" class="node">
<title>Node19</title>
<g id="a_node19"><a xlink:href="_game_8hpp.html" target="_top" xlink:title="Contains the declaration of the Game class, representing the game environment.">
<polygon fill="white" stroke="black" points="1030,-168.5 1030,-187.5 1128,-187.5 1128,-168.5 1030,-168.5"/>
<text text-anchor="middle" x="1079" y="-175.5" font-family="Helvetica,sans-Serif" font-size="10.00">game/Game.hpp</text>
</a>
</g>
</g>
<!-- Node18&#45;&gt;Node19 -->
<g id="edge18" class="edge">
<title>Node18&#45;&gt;Node19</title>
<path fill="none" stroke="midnightblue" d="M1277.61,-224.44C1236.61,-215.06 1170.75,-199.99 1126.22,-189.8"/>
<polygon fill="midnightblue" stroke="midnightblue" points="1126.75,-186.34 1116.22,-187.52 1125.19,-193.16 1126.75,-186.34"/>
</g>
<!-- Node20 -->
<g id="node20" class="node">
<title>Node20</title>
<g id="a_node20"><a xlink:title=" ">
<polygon fill="white" stroke="#bfbfbf" points="917,-56.5 917,-75.5 975,-75.5 975,-56.5 917,-56.5"/>
<text text-anchor="middle" x="946" y="-63.5" font-family="Helvetica,sans-Serif" font-size="10.00">memory</text>
</a>
</g>
</g>
<!-- Node19&#45;&gt;Node20 -->
<g id="edge19" class="edge">
<title>Node19&#45;&gt;Node20</title>
<path fill="none" stroke="midnightblue" d="M1068.56,-168.37C1046.03,-149.73 992.59,-105.53 964.3,-82.13"/>
<polygon fill="midnightblue" stroke="midnightblue" points="966.32,-79.27 956.39,-75.59 961.86,-84.66 966.32,-79.27"/>
</g>
<!-- Node21 -->
<g id="node21" class="node">
<title>Node21</title>
<g id="a_node21"><a xlink:title=" ">
<polygon fill="white" stroke="#bfbfbf" points="1036.5,-56.5 1036.5,-75.5 1083.5,-75.5 1083.5,-56.5 1036.5,-56.5"/>
<text text-anchor="middle" x="1060" y="-63.5" font-family="Helvetica,sans-Serif" font-size="10.00">vector</text>
</a>
</g>
</g>
<!-- Node19&#45;&gt;Node21 -->
<g id="edge20" class="edge">
<title>Node19&#45;&gt;Node21</title>
<path fill="none" stroke="midnightblue" d="M1077.51,-168.37C1074.44,-150.62 1067.37,-109.67 1063.21,-85.6"/>
<polygon fill="midnightblue" stroke="midnightblue" points="1066.64,-84.85 1061.48,-75.59 1059.74,-86.04 1066.64,-84.85"/>
</g>
<!-- Node22 -->
<g id="node22" class="node">
<title>Node22</title>
<g id="a_node22"><a xlink:href="_game_object_8hpp.html" target="_top" xlink:title="Contains the declaration of the GameObject class, representing a game object in the system.">
<polygon fill="white" stroke="black" points="451.5,-112.5 451.5,-131.5 580.5,-131.5 580.5,-112.5 451.5,-112.5"/>
<text text-anchor="middle" x="516" y="-119.5" font-family="Helvetica,sans-Serif" font-size="10.00">game/GameObject.hpp</text>
</a>
</g>
</g>
<!-- Node19&#45;&gt;Node22 -->
<g id="edge21" class="edge">
<title>Node19&#45;&gt;Node22</title>
<path fill="none" stroke="midnightblue" d="M1029.53,-172.26C930.68,-162.77 708.24,-141.44 591.22,-130.21"/>
<polygon fill="midnightblue" stroke="midnightblue" points="591.21,-126.7 580.92,-129.23 590.54,-133.67 591.21,-126.7"/>
</g>
<!-- Node22&#45;&gt;Node5 -->
<g id="edge23" class="edge">
<title>Node22&#45;&gt;Node5</title>
<path fill="none" stroke="midnightblue" d="M501.7,-112.32C487.82,-103.9 466.51,-90.97 450.2,-81.07"/>
<polygon fill="midnightblue" stroke="midnightblue" points="451.63,-77.85 441.26,-75.65 448,-83.83 451.63,-77.85"/>
</g>
<!-- Node22&#45;&gt;Node20 -->
<g id="edge22" class="edge">
<title>Node22&#45;&gt;Node20</title>
<path fill="none" stroke="midnightblue" d="M580.84,-112.86C671.18,-101.51 832.18,-81.29 906.45,-71.97"/>
<polygon fill="midnightblue" stroke="midnightblue" points="907.28,-75.39 916.76,-70.67 906.41,-68.44 907.28,-75.39"/>
</g>
<!-- Node22&#45;&gt;Node21 -->
<g id="edge24" class="edge">
<title>Node22&#45;&gt;Node21</title>
<path fill="none" stroke="midnightblue" d="M580.77,-115.23C671.14,-107.07 840.15,-91.43 984,-76 997.86,-74.51 1013.13,-72.73 1026.33,-71.15"/>
<polygon fill="midnightblue" stroke="midnightblue" points="1026.89,-74.61 1036.39,-69.93 1026.05,-67.66 1026.89,-74.61"/>
</g>
<!-- Node23 -->
<g id="node23" class="node">
<title>Node23</title>
<g id="a_node23"><a xlink:href="_entity_8hpp.html" target="_top" xlink:title=" ">
<polygon fill="white" stroke="black" points="471.5,-56.5 471.5,-75.5 560.5,-75.5 560.5,-56.5 471.5,-56.5"/>
<text text-anchor="middle" x="516" y="-63.5" font-family="Helvetica,sans-Serif" font-size="10.00">core/Entity.hpp</text>
</a>
</g>
</g>
<!-- Node22&#45;&gt;Node23 -->
<g id="edge25" class="edge">
<title>Node22&#45;&gt;Node23</title>
<path fill="none" stroke="midnightblue" d="M516,-112.08C516,-105.01 516,-94.86 516,-85.99"/>
<polygon fill="midnightblue" stroke="midnightblue" points="519.5,-85.75 516,-75.75 512.5,-85.75 519.5,-85.75"/>
</g>
<!-- Node24 -->
<g id="node24" class="node">
<title>Node24</title>
<g id="a_node24"><a xlink:title=" ">
<polygon fill="white" stroke="#bfbfbf" points="389,-0.5 389,-19.5 519,-19.5 519,-0.5 389,-0.5"/>
<text text-anchor="middle" x="454" y="-7.5" font-family="Helvetica,sans-Serif" font-size="10.00">glm/gtc/quaternion.hpp</text>
</a>
</g>
</g>
<!-- Node23&#45;&gt;Node24 -->
<g id="edge26" class="edge">
<title>Node23&#45;&gt;Node24</title>
<path fill="none" stroke="midnightblue" d="M506.04,-56.32C496.87,-48.34 483.06,-36.31 471.97,-26.65"/>
<polygon fill="midnightblue" stroke="midnightblue" points="473.98,-23.76 464.14,-19.83 469.38,-29.04 473.98,-23.76"/>
</g>
<!-- Node25 -->
<g id="node25" class="node">
<title>Node25</title>
<g id="a_node25"><a xlink:title=" ">
<polygon fill="white" stroke="#bfbfbf" points="537.5,-0.5 537.5,-19.5 620.5,-19.5 620.5,-0.5 537.5,-0.5"/>
<text text-anchor="middle" x="579" y="-7.5" font-family="Helvetica,sans-Serif" font-size="10.00">glm/vec3.hpp</text>
</a>
</g>
</g>
<!-- Node23&#45;&gt;Node25 -->
<g id="edge27" class="edge">
<title>Node23&#45;&gt;Node25</title>
<path fill="none" stroke="midnightblue" d="M526.12,-56.32C535.53,-48.26 549.74,-36.08 561.07,-26.37"/>
<polygon fill="midnightblue" stroke="midnightblue" points="563.38,-29 568.69,-19.83 558.82,-23.68 563.38,-29"/>
</g>
<!-- Node26&#45;&gt;Node15 -->
<g id="edge29" class="edge">
<title>Node26&#45;&gt;Node15</title>
<path fill="none" stroke="midnightblue" d="M1502.55,-285.98C1554.45,-275.33 1643.24,-257.11 1699.43,-245.58"/>
<polygon fill="midnightblue" stroke="midnightblue" points="1700.43,-248.95 1709.53,-243.51 1699.03,-242.09 1700.43,-248.95"/>
</g>
<!-- Node26&#45;&gt;Node16 -->
<g id="edge30" class="edge">
<title>Node26&#45;&gt;Node16</title>
<path fill="none" stroke="midnightblue" d="M1500.9,-285.94C1511.32,-283.85 1522.56,-281.72 1533,-280 1654.08,-260.08 1687.46,-260.24 1812.35,-244.2"/>
<polygon fill="midnightblue" stroke="midnightblue" points="1812.83,-247.67 1822.3,-242.92 1811.93,-240.73 1812.83,-247.67"/>
</g>
<!-- Node26&#45;&gt;Node17 -->
<g id="edge31" class="edge">
<title>Node26&#45;&gt;Node17</title>
<path fill="none" stroke="midnightblue" d="M1486.07,-285.98C1516.35,-275.68 1567.44,-258.31 1601.44,-246.75"/>
<polygon fill="midnightblue" stroke="midnightblue" points="1602.63,-250.04 1610.97,-243.51 1600.38,-243.41 1602.63,-250.04"/>
</g>
<!-- Node26&#45;&gt;Node18 -->
<g id="edge32" class="edge">
<title>Node26&#45;&gt;Node18</title>
<path fill="none" stroke="midnightblue" d="M1440.08,-285.98C1415.25,-275.86 1373.66,-258.9 1345.31,-247.35"/>
<polygon fill="midnightblue" stroke="midnightblue" points="1346.46,-244.04 1335.88,-243.51 1343.82,-250.52 1346.46,-244.04"/>
</g>
<!-- Node27&#45;&gt;Node7 -->
<g id="edge36" class="edge">
<title>Node27&#45;&gt;Node7</title>
<path fill="none" stroke="midnightblue" d="M1160.88,-285.98C1169.29,-276.87 1182.82,-262.24 1193.23,-250.98"/>
<polygon fill="midnightblue" stroke="midnightblue" points="1195.92,-253.23 1200.13,-243.51 1190.78,-248.48 1195.92,-253.23"/>
</g>
<!-- Node27&#45;&gt;Node18 -->
<g id="edge39" class="edge">
<title>Node27&#45;&gt;Node18</title>
<path fill="none" stroke="midnightblue" d="M1176.21,-285.98C1204,-275.77 1250.72,-258.61 1282.19,-247.05"/>
<polygon fill="midnightblue" stroke="midnightblue" points="1283.65,-250.24 1291.83,-243.51 1281.24,-243.67 1283.65,-250.24"/>
</g>
<!-- Node27&#45;&gt;Node19 -->
<g id="edge38" class="edge">
<title>Node27&#45;&gt;Node19</title>
<path fill="none" stroke="midnightblue" d="M1147.44,-285.82C1135.28,-266.84 1106.13,-221.35 1090.08,-196.29"/>
<polygon fill="midnightblue" stroke="midnightblue" points="1092.97,-194.31 1084.63,-187.78 1087.07,-198.09 1092.97,-194.31"/>
</g>
<!-- Node27&#45;&gt;Node20 -->
<g id="edge34" class="edge">
<title>Node27&#45;&gt;Node20</title>
<path fill="none" stroke="midnightblue" d="M1141.33,-285.89C1112.9,-264.77 1040.88,-210.51 1021,-188 991.94,-155.09 967.1,-109.6 954.61,-84.83"/>
<polygon fill="midnightblue" stroke="midnightblue" points="957.61,-82.99 950.04,-75.58 951.33,-86.09 957.61,-82.99"/>
</g>
<!-- Node27&#45;&gt;Node21 -->
<g id="edge35" class="edge">
<title>Node27&#45;&gt;Node21</title>
<path fill="none" stroke="midnightblue" d="M1153.42,-285.83C1154.11,-264.76 1154.03,-209.59 1137,-168 1123.1,-134.05 1094.74,-101.57 1076.59,-82.99"/>
<polygon fill="midnightblue" stroke="midnightblue" points="1078.83,-80.28 1069.29,-75.69 1073.89,-85.23 1078.83,-80.28"/>
</g>
<!-- Node28 -->
<g id="node28" class="node">
<title>Node28</title>
<g id="a_node28"><a xlink:title=" ">
<polygon fill="white" stroke="#bfbfbf" points="814.5,-112.5 814.5,-131.5 897.5,-131.5 897.5,-112.5 814.5,-112.5"/>
<text text-anchor="middle" x="856" y="-119.5" font-family="Helvetica,sans-Serif" font-size="10.00">GLFW/glfw3.h</text>
</a>
</g>
</g>
<!-- Node27&#45;&gt;Node28 -->
<g id="edge37" class="edge">
<title>Node27&#45;&gt;Node28</title>
<path fill="none" stroke="midnightblue" d="M1132.2,-285.87C1126.39,-283.71 1120.01,-281.56 1114,-280 1062.65,-266.69 916.04,-280.97 878,-244 850.4,-217.18 850.76,-168.14 853.39,-141.47"/>
<polygon fill="midnightblue" stroke="midnightblue" points="856.86,-141.88 854.58,-131.54 849.91,-141.05 856.86,-141.88"/>
</g>
<!-- Node29 -->
<g id="node29" class="node">
<title>Node29</title>
<g id="a_node29"><a xlink:href="_widget_8hpp.html" target="_top" xlink:title="Contains the declaration of the Widget class, an abstract base class for GUI widgets.">
<polygon fill="white" stroke="black" points="741,-168.5 741,-187.5 825,-187.5 825,-168.5 741,-168.5"/>
<text text-anchor="middle" x="783" y="-175.5" font-family="Helvetica,sans-Serif" font-size="10.00">ui/Widget.hpp</text>
</a>
</g>
</g>
<!-- Node27&#45;&gt;Node29 -->
<g id="edge40" class="edge">
<title>Node27&#45;&gt;Node29</title>
<path fill="none" stroke="midnightblue" d="M1132.63,-285.95C1126.7,-283.73 1120.17,-281.54 1114,-280 996.97,-250.8 952.49,-298.74 845,-244 823.36,-232.98 805.11,-211.32 794.13,-196.04"/>
<polygon fill="midnightblue" stroke="midnightblue" points="796.82,-193.77 788.27,-187.51 791.04,-197.73 796.82,-193.77"/>
</g>
<!-- Node29&#45;&gt;Node5 -->
<g id="edge43" class="edge">
<title>Node29&#45;&gt;Node5</title>
<path fill="none" stroke="midnightblue" d="M740.78,-172.72C651.95,-163.53 452.97,-141.96 442,-132 429.3,-120.46 426.27,-100.49 425.98,-85.72"/>
<polygon fill="midnightblue" stroke="midnightblue" points="429.48,-85.74 426.18,-75.67 422.48,-85.6 429.48,-85.74"/>
</g>
<!-- Node29&#45;&gt;Node28 -->
<g id="edge41" class="edge">
<title>Node29&#45;&gt;Node28</title>
<path fill="none" stroke="midnightblue" d="M794.73,-168.32C805.84,-160.11 822.74,-147.6 835.98,-137.81"/>
<polygon fill="midnightblue" stroke="midnightblue" points="838.1,-140.59 844.06,-131.83 833.94,-134.97 838.1,-140.59"/>
</g>
<!-- Node30 -->
<g id="node30" class="node">
<title>Node30</title>
<g id="a_node30"><a xlink:title=" ">
<polygon fill="white" stroke="#bfbfbf" points="749.5,-112.5 749.5,-131.5 796.5,-131.5 796.5,-112.5 749.5,-112.5"/>
<text text-anchor="middle" x="773" y="-119.5" font-family="Helvetica,sans-Serif" font-size="10.00">cmath</text>
</a>
</g>
</g>
<!-- Node29&#45;&gt;Node30 -->
<g id="edge42" class="edge">
<title>Node29&#45;&gt;Node30</title>
<path fill="none" stroke="midnightblue" d="M781.35,-168.08C780.02,-160.93 778.12,-150.64 776.46,-141.69"/>
<polygon fill="midnightblue" stroke="midnightblue" points="779.88,-140.95 774.62,-131.75 773,-142.22 779.88,-140.95"/>
</g>
<!-- Node31&#45;&gt;Node20 -->
<g id="edge45" class="edge">
<title>Node31&#45;&gt;Node20</title>
<path fill="none" stroke="midnightblue" d="M502.46,-224.37C532.78,-201.99 618.26,-141.8 699,-112 769.63,-85.94 857.38,-74.56 907.01,-69.91"/>
<polygon fill="midnightblue" stroke="midnightblue" points="907.35,-73.4 917,-69.02 906.73,-66.42 907.35,-73.4"/>
</g>
<!-- Node31&#45;&gt;Node21 -->
<g id="edge47" class="edge">
<title>Node31&#45;&gt;Node21</title>
<path fill="none" stroke="midnightblue" d="M554.22,-224.46C605.15,-216.6 671.78,-203.78 694,-188 726.38,-165 707.75,-133.72 741,-112 752.89,-104.23 946.76,-80.46 1026.32,-70.97"/>
<polygon fill="midnightblue" stroke="midnightblue" points="1026.81,-74.44 1036.32,-69.78 1025.98,-67.49 1026.81,-74.44"/>
</g>
<!-- Node31&#45;&gt;Node29 -->
<g id="edge48" class="edge">
<title>Node31&#45;&gt;Node29</title>
<path fill="none" stroke="midnightblue" d="M537.27,-224.44C589.95,-214.7 675.82,-198.82 730.84,-188.65"/>
<polygon fill="midnightblue" stroke="midnightblue" points="731.54,-192.08 740.74,-186.82 730.27,-185.19 731.54,-192.08"/>
</g>
<!-- Node32 -->
<g id="node32" class="node">
<title>Node32</title>
<g id="a_node32"><a xlink:title=" ">
<polygon fill="white" stroke="#bfbfbf" points="637,-168.5 637,-187.5 685,-187.5 685,-168.5 637,-168.5"/>
<text text-anchor="middle" x="661" y="-175.5" font-family="Helvetica,sans-Serif" font-size="10.00">mutex</text>
</a>
</g>
</g>
<!-- Node31&#45;&gt;Node32 -->
<g id="edge46" class="edge">
<title>Node31&#45;&gt;Node32</title>
<path fill="none" stroke="midnightblue" d="M517.94,-224.44C547.51,-215.05 595.03,-199.96 627.11,-189.77"/>
<polygon fill="midnightblue" stroke="midnightblue" points="628.47,-193.01 636.94,-186.64 626.35,-186.34 628.47,-193.01"/>
</g>
<!-- Node33&#45;&gt;Node29 -->
<g id="edge57" class="edge">
<title>Node33&#45;&gt;Node29</title>
<path fill="none" stroke="midnightblue" d="M1395.28,-224.7C1392.49,-224.46 1389.72,-224.23 1387,-224 1182.91,-207.03 939.76,-189.83 835.11,-182.58"/>
<polygon fill="midnightblue" stroke="midnightblue" points="835.34,-179.09 825.12,-181.89 834.86,-186.07 835.34,-179.09"/>
</g>
<!-- Node34 -->
<g id="node34" class="node">
<title>Node34</title>
<g id="a_node34"><a xlink:title=" ">
<polygon fill="white" stroke="#bfbfbf" points="1391.5,-168.5 1391.5,-187.5 1456.5,-187.5 1456.5,-168.5 1391.5,-168.5"/>
<text text-anchor="middle" x="1424" y="-175.5" font-family="Helvetica,sans-Serif" font-size="10.00">functional</text>
</a>
</g>
</g>
<!-- Node33&#45;&gt;Node34 -->
<g id="edge50" class="edge">
<title>Node33&#45;&gt;Node34</title>
<path fill="none" stroke="midnightblue" d="M1475.2,-224.32C1466.18,-216.34 1452.59,-204.31 1441.68,-194.65"/>
<polygon fill="midnightblue" stroke="midnightblue" points="1443.79,-191.84 1433.98,-187.83 1439.15,-197.08 1443.79,-191.84"/>
</g>
<!-- Node35 -->
<g id="node35" class="node">
<title>Node35</title>
<g id="a_node35"><a xlink:href="_filesystem_8hpp.html" target="_top" xlink:title=" ">
<polygon fill="white" stroke="black" points="1184.5,-112.5 1184.5,-131.5 1299.5,-131.5 1299.5,-112.5 1184.5,-112.5"/>
<text text-anchor="middle" x="1242" y="-119.5" font-family="Helvetica,sans-Serif" font-size="10.00">core/Filesystem.hpp</text>
</a>
</g>
</g>
<!-- Node33&#45;&gt;Node35 -->
<g id="edge51" class="edge">
<title>Node33&#45;&gt;Node35</title>
<path fill="none" stroke="midnightblue" d="M1485.13,-224.39C1484.84,-210.4 1482.11,-182.78 1466,-168 1443.49,-147.35 1367,-135.26 1309.62,-128.91"/>
<polygon fill="midnightblue" stroke="midnightblue" points="1309.82,-125.41 1299.51,-127.82 1309.08,-132.37 1309.82,-125.41"/>
</g>
<!-- Node35&#45;&gt;Node5 -->
<g id="edge55" class="edge">
<title>Node35&#45;&gt;Node5</title>
<path fill="none" stroke="midnightblue" d="M1184.24,-119.07C1028.46,-113.63 602.11,-97.22 463,-76 461.75,-75.81 460.47,-75.59 459.19,-75.36"/>
<polygon fill="midnightblue" stroke="midnightblue" points="459.85,-71.92 449.34,-73.27 458.39,-78.77 459.85,-71.92"/>
</g>
<!-- Node35&#45;&gt;Node13 -->
<g id="edge52" class="edge">
<title>Node35&#45;&gt;Node13</title>
<path fill="none" stroke="midnightblue" d="M1271.79,-112.44C1303.83,-103.24 1354.93,-88.56 1390.35,-78.39"/>
<polygon fill="midnightblue" stroke="midnightblue" points="1391.71,-81.64 1400.35,-75.52 1389.77,-74.91 1391.71,-81.64"/>
</g>
<!-- Node35&#45;&gt;Node20 -->
<g id="edge54" class="edge">
<title>Node35&#45;&gt;Node20</title>
<path fill="none" stroke="midnightblue" d="M1195.1,-112.44C1137.06,-101.85 1039.28,-84.02 985.1,-74.13"/>
<polygon fill="midnightblue" stroke="midnightblue" points="985.65,-70.68 975.19,-72.32 984.4,-77.56 985.65,-70.68"/>
</g>
<!-- Node35&#45;&gt;Node21 -->
<g id="edge56" class="edge">
<title>Node35&#45;&gt;Node21</title>
<path fill="none" stroke="midnightblue" d="M1213.16,-112.44C1180.73,-102.82 1128.13,-87.21 1093.8,-77.03"/>
<polygon fill="midnightblue" stroke="midnightblue" points="1094.36,-73.54 1083.77,-74.05 1092.36,-80.25 1094.36,-73.54"/>
</g>
<!-- Node36 -->
<g id="node36" class="node">
<title>Node36</title>
<g id="a_node36"><a xlink:title=" ">
<polygon fill="white" stroke="#bfbfbf" points="1223,-56.5 1223,-75.5 1261,-75.5 1261,-56.5 1223,-56.5"/>
<text text-anchor="middle" x="1242" y="-63.5" font-family="Helvetica,sans-Serif" font-size="10.00">map</text>
</a>
</g>
</g>
<!-- Node35&#45;&gt;Node36 -->
<g id="edge53" class="edge">
<title>Node35&#45;&gt;Node36</title>
<path fill="none" stroke="midnightblue" d="M1242,-112.08C1242,-105.01 1242,-94.86 1242,-85.99"/>
<polygon fill="midnightblue" stroke="midnightblue" points="1245.5,-85.75 1242,-75.75 1238.5,-85.75 1245.5,-85.75"/>
</g>
<!-- Node37&#45;&gt;Node19 -->
<g id="edge61" class="edge">
<title>Node37&#45;&gt;Node19</title>
<path fill="none" stroke="midnightblue" d="M985.83,-224.32C1003.72,-215.62 1031.48,-202.12 1052.05,-192.11"/>
<polygon fill="midnightblue" stroke="midnightblue" points="1053.75,-195.18 1061.21,-187.65 1050.69,-188.88 1053.75,-195.18"/>
</g>
<!-- Node37&#45;&gt;Node20 -->
<g id="edge59" class="edge">
<title>Node37&#45;&gt;Node20</title>
<path fill="none" stroke="midnightblue" d="M963.47,-224.32C959.1,-215.46 952.76,-201.18 950,-188 942.55,-152.47 943.33,-109.8 944.63,-85.8"/>
<polygon fill="midnightblue" stroke="midnightblue" points="948.13,-85.83 945.27,-75.63 941.15,-85.39 948.13,-85.83"/>
</g>
<!-- Node37&#45;&gt;Node21 -->
<g id="edge60" class="edge">
<title>Node37&#45;&gt;Node21</title>
<path fill="none" stroke="midnightblue" d="M972.95,-224.08C987.55,-197.72 1030.69,-119.88 1050.21,-84.66"/>
<polygon fill="midnightblue" stroke="midnightblue" points="1053.47,-86.01 1055.25,-75.57 1047.34,-82.62 1053.47,-86.01"/>
</g>
<!-- Node37&#45;&gt;Node29 -->
<g id="edge62" class="edge">
<title>Node37&#45;&gt;Node29</title>
<path fill="none" stroke="midnightblue" d="M938.69,-224.44C907.16,-215.24 856.87,-200.56 822.01,-190.39"/>
<polygon fill="midnightblue" stroke="midnightblue" points="822.76,-186.96 812.18,-187.52 820.8,-193.68 822.76,-186.96"/>
</g>
<!-- Node38&#45;&gt;Node29 -->
<g id="edge64" class="edge">
<title>Node38&#45;&gt;Node29</title>
<path fill="none" stroke="midnightblue" d="M690.67,-224.32C708.39,-215.62 735.9,-202.12 756.29,-192.11"/>
<polygon fill="midnightblue" stroke="midnightblue" points="757.94,-195.2 765.37,-187.65 754.85,-188.92 757.94,-195.2"/>
</g>
<!-- Node39&#45;&gt;Node22 -->
<g id="edge66" class="edge">
<title>Node39&#45;&gt;Node22</title>
<path fill="none" stroke="midnightblue" d="M320.1,-224.45C338.05,-215.45 367.06,-200.84 392,-188 426.3,-170.34 465.73,-149.59 490.75,-136.37"/>
<polygon fill="midnightblue" stroke="midnightblue" points="492.39,-139.47 499.59,-131.7 489.12,-133.28 492.39,-139.47"/>
</g>
<!-- Node39&#45;&gt;Node29 -->
<g id="edge70" class="edge">
<title>Node39&#45;&gt;Node29</title>
<path fill="none" stroke="midnightblue" d="M378.79,-224.47C477.04,-213.42 645.81,-194.43 730.83,-184.87"/>
<polygon fill="midnightblue" stroke="midnightblue" points="731.22,-188.35 740.77,-183.75 730.44,-181.39 731.22,-188.35"/>
</g>
<!-- Node40 -->
<g id="node40" class="node">
<title>Node40</title>
<g id="a_node40"><a xlink:href="_u_i_component_8hpp.html" target="_top" xlink:title="Contains the declaration of the UIComponent class, a base class for user interface of objects&#39; compon...">
<polygon fill="white" stroke="black" points="267,-168.5 267,-187.5 383,-187.5 383,-168.5 267,-168.5"/>
<text text-anchor="middle" x="325" y="-175.5" font-family="Helvetica,sans-Serif" font-size="10.00">ui/UIComponent.hpp</text>
</a>
</g>
</g>
<!-- Node39&#45;&gt;Node40 -->
<g id="edge67" class="edge">
<title>Node39&#45;&gt;Node40</title>
<path fill="none" stroke="midnightblue" d="M306.63,-224.08C309.61,-216.77 313.93,-206.18 317.62,-197.1"/>
<polygon fill="midnightblue" stroke="midnightblue" points="320.9,-198.33 321.43,-187.75 314.42,-195.69 320.9,-198.33"/>
</g>
<!-- Node40&#45;&gt;Node22 -->
<g id="edge69" class="edge">
<title>Node40&#45;&gt;Node22</title>
<path fill="none" stroke="midnightblue" d="M355.26,-168.44C387.96,-159.2 440.18,-144.44 476.18,-134.26"/>
<polygon fill="midnightblue" stroke="midnightblue" points="477.21,-137.61 485.88,-131.52 475.3,-130.87 477.21,-137.61"/>
</g>
<!-- Node41 -->
<g id="node41" class="node">
<title>Node41</title>
<g id="a_node41"><a xlink:title=" ">
<polygon fill="white" stroke="#bfbfbf" points="278.5,-112.5 278.5,-131.5 371.5,-131.5 371.5,-112.5 278.5,-112.5"/>
<text text-anchor="middle" x="325" y="-119.5" font-family="Helvetica,sans-Serif" font-size="10.00">unordered_map</text>
</a>
</g>
</g>
<!-- Node40&#45;&gt;Node41 -->
<g id="edge68" class="edge">
<title>Node40&#45;&gt;Node41</title>
<path fill="none" stroke="midnightblue" d="M325,-168.08C325,-161.01 325,-150.86 325,-141.99"/>
<polygon fill="midnightblue" stroke="midnightblue" points="328.5,-141.75 325,-131.75 321.5,-141.75 328.5,-141.75"/>
</g>
<!-- Node42&#45;&gt;Node18 -->
<g id="edge72" class="edge">
<title>Node42&#45;&gt;Node18</title>
<path fill="none" stroke="midnightblue" d="M1068.26,-285.98C1119.8,-275.33 1207.98,-257.11 1263.79,-245.58"/>
<polygon fill="midnightblue" stroke="midnightblue" points="1264.73,-248.96 1273.81,-243.51 1263.31,-242.1 1264.73,-248.96"/>
</g>
<!-- Node42&#45;&gt;Node29 -->
<g id="edge73" class="edge">
<title>Node42&#45;&gt;Node29</title>
<path fill="none" stroke="midnightblue" d="M958.37,-285.97C902.49,-277.74 829.33,-263.64 807,-244 793.61,-232.23 787.68,-212.3 785.06,-197.6"/>
<polygon fill="midnightblue" stroke="midnightblue" points="788.51,-197.01 783.63,-187.61 781.58,-198 788.51,-197.01"/>
</g>
</g>
</svg>
