<?xml version="1.0" encoding="UTF-8" standalone="no"?>
<!DOCTYPE svg PUBLIC "-//W3C//DTD SVG 1.1//EN"
 "http://www.w3.org/Graphics/SVG/1.1/DTD/svg11.dtd">
<!-- Generated by graphviz version 2.43.0 (0)
 -->
<!-- Title: src/ui/UI.cpp Pages: 1 -->
<svg width="3357pt" height="434pt"
 viewBox="0.00 0.00 3357.00 434.00" xmlns="http://www.w3.org/2000/svg" xmlns:xlink="http://www.w3.org/1999/xlink">
<g id="graph0" class="graph" transform="scale(1 1) rotate(0) translate(4 430)">
<title>src/ui/UI.cpp</title>
<!-- Node1 -->
<g id="Node000001" class="node">
<title>Node1</title>
<g id="a_Node000001"><a xlink:title=" ">
<polygon fill="#999999" stroke="#666666" points="1666.5,-426 1589.5,-426 1589.5,-407 1666.5,-407 1666.5,-426"/>
<text text-anchor="middle" x="1628" y="-414" font-family="Helvetica,sans-Serif" font-size="10.00">src/ui/UI.cpp</text>
</a>
</g>
</g>
<!-- Node2 -->
<g id="Node000002" class="node">
<title>Node2</title>
<g id="a_Node000002"><a xlink:title=" ">
<polygon fill="#e0e0e0" stroke="#999999" points="50,-365.5 0,-365.5 0,-346.5 50,-346.5 50,-365.5"/>
<text text-anchor="middle" x="25" y="-353.5" font-family="Helvetica,sans-Serif" font-size="10.00">stdio.h</text>
</a>
</g>
</g>
<!-- Node1&#45;&gt;Node2 -->
<g id="edge1_Node000001_Node000002" class="edge">
<title>Node1&#45;&gt;Node2</title>
<g id="a_edge1_Node000001_Node000002"><a xlink:title=" ">
<path fill="none" stroke="#63b8ff" d="M1589.34,-415.24C1362.84,-413.59 212.68,-403.67 59,-371 56.63,-370.5 54.21,-369.83 51.82,-369.07"/>
<polygon fill="#63b8ff" stroke="#63b8ff" points="52.85,-365.72 42.26,-365.52 50.41,-372.28 52.85,-365.72"/>
</a>
</g>
</g>
<!-- Node3 -->
<g id="Node000003" class="node">
<title>Node3</title>
<g id="a_Node000003"><a xlink:title=" ">
<polygon fill="#e0e0e0" stroke="#999999" points="118,-365.5 68,-365.5 68,-346.5 118,-346.5 118,-365.5"/>
<text text-anchor="middle" x="93" y="-353.5" font-family="Helvetica,sans-Serif" font-size="10.00">chrono</text>
</a>
</g>
</g>
<!-- Node1&#45;&gt;Node3 -->
<g id="edge2_Node000001_Node000003" class="edge">
<title>Node1&#45;&gt;Node3</title>
<g id="a_edge2_Node000001_Node000003"><a xlink:title=" ">
<path fill="none" stroke="#63b8ff" d="M1589.38,-415.08C1369.37,-412.57 278.8,-398.8 132,-371 128.92,-370.42 125.76,-369.63 122.63,-368.72"/>
<polygon fill="#63b8ff" stroke="#63b8ff" points="123.5,-365.32 112.9,-365.51 121.3,-371.96 123.5,-365.32"/>
</a>
</g>
</g>
<!-- Node4 -->
<g id="Node000004" class="node">
<title>Node4</title>
<g id="a_Node000004"><a xlink:title=" ">
<polygon fill="#e0e0e0" stroke="#999999" points="176,-184 116,-184 116,-165 176,-165 176,-184"/>
<text text-anchor="middle" x="146" y="-172" font-family="Helvetica,sans-Serif" font-size="10.00">iostream</text>
</a>
</g>
</g>
<!-- Node1&#45;&gt;Node4 -->
<g id="edge3_Node000001_Node000004" class="edge">
<title>Node1&#45;&gt;Node4</title>
<g id="a_edge3_Node000001_Node000004"><a xlink:title=" ">
<path fill="none" stroke="#63b8ff" d="M1589.35,-415.03C1438.14,-412.99 886.63,-403.43 715,-371 624.68,-353.93 605.97,-334.74 519,-305 394.02,-262.26 245.86,-210.49 180.22,-187.5"/>
<polygon fill="#63b8ff" stroke="#63b8ff" points="181.01,-184.07 170.41,-184.06 178.69,-190.67 181.01,-184.07"/>
</a>
</g>
</g>
<!-- Node5 -->
<g id="Node000005" class="node">
<title>Node5</title>
<g id="a_Node000005"><a xlink:title=" ">
<polygon fill="#e0e0e0" stroke="#999999" points="238,-184 194,-184 194,-165 238,-165 238,-184"/>
<text text-anchor="middle" x="216" y="-172" font-family="Helvetica,sans-Serif" font-size="10.00">string</text>
</a>
</g>
</g>
<!-- Node1&#45;&gt;Node5 -->
<g id="edge4_Node000001_Node000005" class="edge">
<title>Node1&#45;&gt;Node5</title>
<g id="a_edge4_Node000001_Node000005"><a xlink:title=" ">
<path fill="none" stroke="#63b8ff" d="M1589.5,-414.48C1453.51,-410.71 996.19,-396.4 852,-371 650.93,-335.58 606.9,-299.8 412,-239 354.01,-220.91 286.71,-198.88 247.96,-186.09"/>
<polygon fill="#63b8ff" stroke="#63b8ff" points="248.88,-182.71 238.29,-182.9 246.69,-189.36 248.88,-182.71"/>
</a>
</g>
</g>
<!-- Node6 -->
<g id="Node000006" class="node">
<title>Node6</title>
<g id="a_Node000006"><a xlink:title=" ">
<polygon fill="#e0e0e0" stroke="#999999" points="1103,-365.5 1055,-365.5 1055,-346.5 1103,-346.5 1103,-365.5"/>
<text text-anchor="middle" x="1079" y="-353.5" font-family="Helvetica,sans-Serif" font-size="10.00">thread</text>
</a>
</g>
</g>
<!-- Node1&#45;&gt;Node6 -->
<g id="edge5_Node000001_Node000006" class="edge">
<title>Node1&#45;&gt;Node6</title>
<g id="a_edge5_Node000001_Node000006"><a xlink:title=" ">
<path fill="none" stroke="#63b8ff" d="M1589.46,-416.27C1502.75,-417.13 1286.3,-414.33 1112,-371 1110.05,-370.52 1108.07,-369.93 1106.1,-369.28"/>
<polygon fill="#63b8ff" stroke="#63b8ff" points="1107.05,-365.9 1096.46,-365.61 1104.56,-372.44 1107.05,-365.9"/>
</a>
</g>
</g>
<!-- Node7 -->
<g id="Node000007" class="node">
<title>Node7</title>
<g id="a_Node000007"><a xlink:title=" ">
<polygon fill="#e0e0e0" stroke="#999999" points="1192.5,-365.5 1121.5,-365.5 1121.5,-346.5 1192.5,-346.5 1192.5,-365.5"/>
<text text-anchor="middle" x="1157" y="-353.5" font-family="Helvetica,sans-Serif" font-size="10.00">glad/glad.h</text>
</a>
</g>
</g>
<!-- Node1&#45;&gt;Node7 -->
<g id="edge6_Node000001_Node000007" class="edge">
<title>Node1&#45;&gt;Node7</title>
<g id="a_edge6_Node000001_Node000007"><a xlink:title=" ">
<path fill="none" stroke="#63b8ff" d="M1589.43,-414.02C1514.2,-410.58 1342.94,-399.99 1202,-371 1198.53,-370.29 1194.94,-369.41 1191.38,-368.45"/>
<polygon fill="#63b8ff" stroke="#63b8ff" points="1192.11,-365.02 1181.53,-365.59 1190.15,-371.74 1192.11,-365.02"/>
</a>
</g>
</g>
<!-- Node8 -->
<g id="Node000008" class="node">
<title>Node8</title>
<g id="a_Node000008"><a xlink:title=" ">
<polygon fill="#e0e0e0" stroke="#999999" points="1331,-371 1211,-371 1211,-341 1331,-341 1331,-371"/>
<text text-anchor="start" x="1219" y="-359" font-family="Helvetica,sans-Serif" font-size="10.00">backends/imgui_impl</text>
<text text-anchor="middle" x="1271" y="-348" font-family="Helvetica,sans-Serif" font-size="10.00">_glfw.h</text>
</a>
</g>
</g>
<!-- Node1&#45;&gt;Node8 -->
<g id="edge7_Node000001_Node000008" class="edge">
<title>Node1&#45;&gt;Node8</title>
<g id="a_edge7_Node000001_Node000008"><a xlink:title=" ">
<path fill="none" stroke="#63b8ff" d="M1589.24,-410.1C1535.74,-402.52 1436.02,-387.92 1341.22,-371.17"/>
<polygon fill="#63b8ff" stroke="#63b8ff" points="1341.64,-367.69 1331.18,-369.38 1340.41,-374.58 1341.64,-367.69"/>
</a>
</g>
</g>
<!-- Node9 -->
<g id="Node000009" class="node">
<title>Node9</title>
<g id="a_Node000009"><a xlink:title=" ">
<polygon fill="#e0e0e0" stroke="#999999" points="1469,-371 1349,-371 1349,-341 1469,-341 1469,-371"/>
<text text-anchor="start" x="1357" y="-359" font-family="Helvetica,sans-Serif" font-size="10.00">backends/imgui_impl</text>
<text text-anchor="middle" x="1409" y="-348" font-family="Helvetica,sans-Serif" font-size="10.00">_opengl3.h</text>
</a>
</g>
</g>
<!-- Node1&#45;&gt;Node9 -->
<g id="edge8_Node000001_Node000009" class="edge">
<title>Node1&#45;&gt;Node9</title>
<g id="a_edge8_Node000001_Node000009"><a xlink:title=" ">
<path fill="none" stroke="#63b8ff" d="M1596.16,-406.99C1563.61,-398.3 1512.19,-384.57 1471.49,-373.69"/>
<polygon fill="#63b8ff" stroke="#63b8ff" points="1472.22,-370.26 1461.65,-371.06 1470.41,-377.03 1472.22,-370.26"/>
</a>
</g>
</g>
<!-- Node10 -->
<g id="Node000010" class="node">
<title>Node10</title>
<g id="a_Node000010"><a xlink:title=" ">
<polygon fill="#e0e0e0" stroke="#999999" points="1583,-365.5 1487,-365.5 1487,-346.5 1583,-346.5 1583,-365.5"/>
<text text-anchor="middle" x="1535" y="-353.5" font-family="Helvetica,sans-Serif" font-size="10.00">imgui_internal.h</text>
</a>
</g>
</g>
<!-- Node1&#45;&gt;Node10 -->
<g id="edge9_Node000001_Node000010" class="edge">
<title>Node1&#45;&gt;Node10</title>
<g id="a_edge9_Node000001_Node000010"><a xlink:title=" ">
<path fill="none" stroke="#63b8ff" d="M1614.28,-406.87C1599.3,-397.45 1575.11,-382.23 1557.38,-371.08"/>
<polygon fill="#63b8ff" stroke="#63b8ff" points="1559.11,-368.03 1548.78,-365.67 1555.38,-373.95 1559.11,-368.03"/>
</a>
</g>
</g>
<!-- Node11 -->
<g id="Node000011" class="node">
<title>Node11</title>
<g id="a_Node000011"><a xlink:title=" ">
<polygon fill="#e0e0e0" stroke="#999999" points="1654.5,-365.5 1601.5,-365.5 1601.5,-346.5 1654.5,-346.5 1654.5,-365.5"/>
<text text-anchor="middle" x="1628" y="-353.5" font-family="Helvetica,sans-Serif" font-size="10.00">imgui.h</text>
</a>
</g>
</g>
<!-- Node1&#45;&gt;Node11 -->
<g id="edge10_Node000001_Node000011" class="edge">
<title>Node1&#45;&gt;Node11</title>
<g id="a_edge10_Node000001_Node000011"><a xlink:title=" ">
<path fill="none" stroke="#63b8ff" d="M1628,-406.87C1628,-398.75 1628,-386.31 1628,-375.89"/>
<polygon fill="#63b8ff" stroke="#63b8ff" points="1631.5,-375.67 1628,-365.67 1624.5,-375.67 1631.5,-375.67"/>
</a>
</g>
</g>
<!-- Node12 -->
<g id="Node000012" class="node">
<title>Node12</title>
<g id="a_Node000012"><a xlink:href="_image_8hpp.html" target="_top" xlink:title=" ">
<polygon fill="white" stroke="#666666" points="1813.5,-365.5 1672.5,-365.5 1672.5,-346.5 1813.5,-346.5 1813.5,-365.5"/>
<text text-anchor="middle" x="1743" y="-353.5" font-family="Helvetica,sans-Serif" font-size="10.00">AssetManager/Image.hpp</text>
</a>
</g>
</g>
<!-- Node1&#45;&gt;Node12 -->
<g id="edge11_Node000001_Node000012" class="edge">
<title>Node1&#45;&gt;Node12</title>
<g id="a_edge11_Node000001_Node000012"><a xlink:title=" ">
<path fill="none" stroke="#63b8ff" d="M1644.97,-406.87C1663.91,-397.23 1694.79,-381.53 1716.83,-370.31"/>
<polygon fill="#63b8ff" stroke="#63b8ff" points="1718.64,-373.32 1725.96,-365.67 1715.46,-367.08 1718.64,-373.32"/>
</a>
</g>
</g>
<!-- Node20 -->
<g id="Node000020" class="node">
<title>Node20</title>
<g id="a_Node000020"><a xlink:href="_input_manager_8hpp.html" target="_top" xlink:title=" ">
<polygon fill="white" stroke="#666666" points="1036.5,-365.5 861.5,-365.5 861.5,-346.5 1036.5,-346.5 1036.5,-365.5"/>
<text text-anchor="middle" x="949" y="-353.5" font-family="Helvetica,sans-Serif" font-size="10.00">InputManager/InputManager.hpp</text>
</a>
</g>
</g>
<!-- Node1&#45;&gt;Node20 -->
<g id="edge17_Node000001_Node000020" class="edge">
<title>Node1&#45;&gt;Node20</title>
<g id="a_edge17_Node000001_Node000020"><a xlink:title=" ">
<path fill="none" stroke="#63b8ff" d="M1589.44,-413.45C1496.02,-408.28 1250.22,-393.52 1046,-371 1035.55,-369.85 1024.5,-368.44 1013.75,-366.96"/>
<polygon fill="#63b8ff" stroke="#63b8ff" points="1013.94,-363.45 1003.55,-365.53 1012.97,-370.38 1013.94,-363.45"/>
</a>
</g>
</g>
<!-- Node47 -->
<g id="Node000047" class="node">
<title>Node47</title>
<g id="a_Node000047"><a xlink:title=" ">
<polygon fill="#e0e0e0" stroke="#999999" points="1954.5,-365.5 1831.5,-365.5 1831.5,-346.5 1954.5,-346.5 1954.5,-365.5"/>
<text text-anchor="middle" x="1893" y="-353.5" font-family="Helvetica,sans-Serif" font-size="10.00">UI/Common/Style.hpp</text>
</a>
</g>
</g>
<!-- Node1&#45;&gt;Node47 -->
<g id="edge62_Node000001_Node000047" class="edge">
<title>Node1&#45;&gt;Node47</title>
<g id="a_edge62_Node000001_Node000047"><a xlink:title=" ">
<path fill="none" stroke="#63b8ff" d="M1666.53,-406.99C1713.64,-396.6 1793.38,-378.99 1844.58,-367.69"/>
<polygon fill="#63b8ff" stroke="#63b8ff" points="1845.41,-371.09 1854.42,-365.52 1843.9,-364.25 1845.41,-371.09"/>
</a>
</g>
</g>
<!-- Node48 -->
<g id="Node000048" class="node">
<title>Node48</title>
<g id="a_Node000048"><a xlink:title=" ">
<polygon fill="#e0e0e0" stroke="#999999" points="2139.5,-365.5 1972.5,-365.5 1972.5,-346.5 2139.5,-346.5 2139.5,-365.5"/>
<text text-anchor="middle" x="2056" y="-353.5" font-family="Helvetica,sans-Serif" font-size="10.00">UI/Widgets/ConsoleWidget.hpp</text>
</a>
</g>
</g>
<!-- Node1&#45;&gt;Node48 -->
<g id="edge63_Node000001_Node000048" class="edge">
<title>Node1&#45;&gt;Node48</title>
<g id="a_edge63_Node000001_Node000048"><a xlink:title=" ">
<path fill="none" stroke="#63b8ff" d="M1666.58,-410.64C1729.09,-402.7 1856.37,-386.31 1964,-371 1972.72,-369.76 1981.89,-368.41 1990.93,-367.06"/>
<polygon fill="#63b8ff" stroke="#63b8ff" points="1991.68,-370.49 2001.05,-365.54 1990.64,-363.57 1991.68,-370.49"/>
</a>
</g>
</g>
<!-- Node49 -->
<g id="Node000049" class="node">
<title>Node49</title>
<g id="a_Node000049"><a xlink:title=" ">
<polygon fill="#e0e0e0" stroke="#999999" points="2340,-365.5 2158,-365.5 2158,-346.5 2340,-346.5 2340,-365.5"/>
<text text-anchor="middle" x="2249" y="-353.5" font-family="Helvetica,sans-Serif" font-size="10.00">UI/Widgets/FilesystemWidget.hpp</text>
</a>
</g>
</g>
<!-- Node1&#45;&gt;Node49 -->
<g id="edge64_Node000001_Node000049" class="edge">
<title>Node1&#45;&gt;Node49</title>
<g id="a_edge64_Node000001_Node000049"><a xlink:title=" ">
<path fill="none" stroke="#63b8ff" d="M1666.63,-412.92C1753.16,-406.97 1969.03,-391.27 2149,-371 2159.67,-369.8 2170.96,-368.37 2181.96,-366.89"/>
<polygon fill="#63b8ff" stroke="#63b8ff" points="2182.52,-370.35 2191.95,-365.53 2181.57,-363.41 2182.52,-370.35"/>
</a>
</g>
</g>
<!-- Node50 -->
<g id="Node000050" class="node">
<title>Node50</title>
<g id="a_Node000050"><a xlink:title=" ">
<polygon fill="#e0e0e0" stroke="#999999" points="2521.5,-365.5 2358.5,-365.5 2358.5,-346.5 2521.5,-346.5 2521.5,-365.5"/>
<text text-anchor="middle" x="2440" y="-353.5" font-family="Helvetica,sans-Serif" font-size="10.00">UI/Widgets/ProfilerWidget.hpp</text>
</a>
</g>
</g>
<!-- Node1&#45;&gt;Node50 -->
<g id="edge65_Node000001_Node000050" class="edge">
<title>Node1&#45;&gt;Node50</title>
<g id="a_edge65_Node000001_Node000050"><a xlink:title=" ">
<path fill="none" stroke="#63b8ff" d="M1666.79,-414.35C1775.01,-410.87 2089.33,-398.93 2349,-371 2359.01,-369.92 2369.61,-368.53 2379.89,-367.04"/>
<polygon fill="#63b8ff" stroke="#63b8ff" points="2380.67,-370.46 2390.04,-365.52 2379.64,-363.54 2380.67,-370.46"/>
</a>
</g>
</g>
<!-- Node51 -->
<g id="Node000051" class="node">
<title>Node51</title>
<g id="a_Node000051"><a xlink:title=" ">
<polygon fill="#e0e0e0" stroke="#999999" points="2704.5,-365.5 2539.5,-365.5 2539.5,-346.5 2704.5,-346.5 2704.5,-365.5"/>
<text text-anchor="middle" x="2622" y="-353.5" font-family="Helvetica,sans-Serif" font-size="10.00">UI/Widgets/ObjectsWidget.hpp</text>
</a>
</g>
</g>
<!-- Node1&#45;&gt;Node51 -->
<g id="edge66_Node000001_Node000051" class="edge">
<title>Node1&#45;&gt;Node51</title>
<g id="a_edge66_Node000001_Node000051"><a xlink:title=" ">
<path fill="none" stroke="#63b8ff" d="M1666.83,-415.02C1792.24,-413.16 2197.59,-404.77 2531,-371 2541.24,-369.96 2552.09,-368.56 2562.6,-367.04"/>
<polygon fill="#63b8ff" stroke="#63b8ff" points="2563.15,-370.5 2572.53,-365.56 2562.12,-363.58 2563.15,-370.5"/>
</a>
</g>
</g>
<!-- Node52 -->
<g id="Node000052" class="node">
<title>Node52</title>
<g id="a_Node000052"><a xlink:title=" ">
<polygon fill="#e0e0e0" stroke="#999999" points="2901,-365.5 2723,-365.5 2723,-346.5 2901,-346.5 2901,-365.5"/>
<text text-anchor="middle" x="2812" y="-353.5" font-family="Helvetica,sans-Serif" font-size="10.00">UI/Widgets/PropertiesWidget.hpp</text>
</a>
</g>
</g>
<!-- Node1&#45;&gt;Node52 -->
<g id="edge67_Node000001_Node000052" class="edge">
<title>Node1&#45;&gt;Node52</title>
<g id="a_edge67_Node000001_Node000052"><a xlink:title=" ">
<path fill="none" stroke="#63b8ff" d="M1666.57,-415.33C1807.15,-414.39 2305.29,-408.47 2714,-371 2725.38,-369.96 2737.47,-368.51 2749.12,-366.94"/>
<polygon fill="#63b8ff" stroke="#63b8ff" points="2749.8,-370.38 2759.22,-365.54 2748.83,-363.45 2749.8,-370.38"/>
</a>
</g>
</g>
<!-- Node53 -->
<g id="Node000053" class="node">
<title>Node53</title>
<g id="a_Node000053"><a xlink:title=" ">
<polygon fill="#e0e0e0" stroke="#999999" points="3092.5,-365.5 2919.5,-365.5 2919.5,-346.5 3092.5,-346.5 3092.5,-365.5"/>
<text text-anchor="middle" x="3006" y="-353.5" font-family="Helvetica,sans-Serif" font-size="10.00">UI/Widgets/InspectorWidget.hpp</text>
</a>
</g>
</g>
<!-- Node1&#45;&gt;Node53 -->
<g id="edge68_Node000001_Node000053" class="edge">
<title>Node1&#45;&gt;Node53</title>
<g id="a_edge68_Node000001_Node000053"><a xlink:title=" ">
<path fill="none" stroke="#63b8ff" d="M1666.64,-415.71C1822.58,-416.22 2420.64,-415.04 2910,-371 2921.29,-369.98 2933.27,-368.54 2944.81,-366.95"/>
<polygon fill="#63b8ff" stroke="#63b8ff" points="2945.4,-370.4 2954.81,-365.53 2944.41,-363.47 2945.4,-370.4"/>
</a>
</g>
</g>
<!-- Node54 -->
<g id="Node000054" class="node">
<title>Node54</title>
<g id="a_Node000054"><a xlink:title=" ">
<polygon fill="#e0e0e0" stroke="#999999" points="3269,-365.5 3111,-365.5 3111,-346.5 3269,-346.5 3269,-365.5"/>
<text text-anchor="middle" x="3190" y="-353.5" font-family="Helvetica,sans-Serif" font-size="10.00">UI/Widgets/SceneWidget.hpp</text>
</a>
</g>
</g>
<!-- Node1&#45;&gt;Node54 -->
<g id="edge69_Node000001_Node000054" class="edge">
<title>Node1&#45;&gt;Node54</title>
<g id="a_edge69_Node000001_Node000054"><a xlink:title=" ">
<path fill="none" stroke="#63b8ff" d="M1666.61,-415C1869.24,-412.29 2811.43,-398.39 3102,-371 3112.27,-370.03 3123.16,-368.62 3133.65,-367.06"/>
<polygon fill="#63b8ff" stroke="#63b8ff" points="3134.21,-370.51 3143.56,-365.52 3133.14,-363.59 3134.21,-370.51"/>
</a>
</g>
</g>
<!-- Node55 -->
<g id="Node000055" class="node">
<title>Node55</title>
<g id="a_Node000055"><a xlink:title=" ">
<polygon fill="#e0e0e0" stroke="#999999" points="3349,-365.5 3287,-365.5 3287,-346.5 3349,-346.5 3349,-365.5"/>
<text text-anchor="middle" x="3318" y="-353.5" font-family="Helvetica,sans-Serif" font-size="10.00">UI/UI.hpp</text>
</a>
</g>
</g>
<!-- Node1&#45;&gt;Node55 -->
<g id="edge70_Node000001_Node000055" class="edge">
<title>Node1&#45;&gt;Node55</title>
<g id="a_edge70_Node000001_Node000055"><a xlink:title=" ">
<path fill="none" stroke="#63b8ff" d="M1666.72,-415.17C1900.11,-413.1 3115.06,-400.96 3278,-371 3281.26,-370.4 3284.6,-369.58 3287.91,-368.63"/>
<polygon fill="#63b8ff" stroke="#63b8ff" points="3289.13,-371.92 3297.57,-365.52 3286.98,-365.26 3289.13,-371.92"/>
</a>
</g>
</g>
<!-- Node13 -->
<g id="Node000013" class="node">
<title>Node13</title>
<g id="a_Node000013"><a xlink:title=" ">
<polygon fill="#e0e0e0" stroke="#999999" points="1786,-239 1718,-239 1718,-220 1786,-220 1786,-239"/>
<text text-anchor="middle" x="1752" y="-227" font-family="Helvetica,sans-Serif" font-size="10.00">filesystem</text>
</a>
</g>
</g>
<!-- Node12&#45;&gt;Node13 -->
<g id="edge12_Node000012_Node000013" class="edge">
<title>Node12&#45;&gt;Node13</title>
<g id="a_edge12_Node000012_Node000013"><a xlink:title=" ">
<path fill="none" stroke="#63b8ff" d="M1743.62,-346.44C1745.06,-326.54 1748.66,-276.76 1750.64,-249.35"/>
<polygon fill="#63b8ff" stroke="#63b8ff" points="1754.15,-249.34 1751.38,-239.12 1747.17,-248.84 1754.15,-249.34"/>
</a>
</g>
</g>
<!-- Node14 -->
<g id="Node000014" class="node">
<title>Node14</title>
<g id="a_Node000014"><a xlink:href="_path_constructible_asset_8hpp.html" target="_top" xlink:title=" ">
<polygon fill="white" stroke="#666666" points="1955.5,-305 1780.5,-305 1780.5,-275 1955.5,-275 1955.5,-305"/>
<text text-anchor="start" x="1788.5" y="-293" font-family="Helvetica,sans-Serif" font-size="10.00">AssetManager/PathConstructible</text>
<text text-anchor="middle" x="1868" y="-282" font-family="Helvetica,sans-Serif" font-size="10.00">Asset.hpp</text>
</a>
</g>
</g>
<!-- Node12&#45;&gt;Node14 -->
<g id="edge13_Node000012_Node000014" class="edge">
<title>Node12&#45;&gt;Node14</title>
<g id="a_edge13_Node000012_Node000014"><a xlink:title=" ">
<path fill="none" stroke="#63b8ff" d="M1759.86,-346.37C1778.1,-337.03 1807.73,-321.86 1831.37,-309.75"/>
<polygon fill="#63b8ff" stroke="#63b8ff" points="1833.12,-312.79 1840.43,-305.12 1829.93,-306.56 1833.12,-312.79"/>
</a>
</g>
</g>
<!-- Node14&#45;&gt;Node13 -->
<g id="edge14_Node000014_Node000013" class="edge">
<title>Node14&#45;&gt;Node13</title>
<g id="a_edge14_Node000014_Node000013"><a xlink:title=" ">
<path fill="none" stroke="#63b8ff" d="M1840.22,-274.99C1821.38,-265.49 1796.65,-253.02 1778.16,-243.69"/>
<polygon fill="#63b8ff" stroke="#63b8ff" points="1779.64,-240.52 1769.13,-239.14 1776.48,-246.77 1779.64,-240.52"/>
</a>
</g>
</g>
<!-- Node15 -->
<g id="Node000015" class="node">
<title>Node15</title>
<g id="a_Node000015"><a xlink:href="_instance_counter_8hpp.html" target="_top" xlink:title=" ">
<polygon fill="#fff0f0" stroke="red" points="1968,-239 1804,-239 1804,-220 1968,-220 1968,-239"/>
<text text-anchor="middle" x="1886" y="-227" font-family="Helvetica,sans-Serif" font-size="10.00">Common/InstanceCounter.hpp</text>
</a>
</g>
</g>
<!-- Node14&#45;&gt;Node15 -->
<g id="edge15_Node000014_Node000015" class="edge">
<title>Node14&#45;&gt;Node15</title>
<g id="a_edge15_Node000014_Node000015"><a xlink:title=" ">
<path fill="none" stroke="#63b8ff" d="M1872.36,-274.84C1874.76,-267.04 1877.76,-257.27 1880.34,-248.89"/>
<polygon fill="#63b8ff" stroke="#63b8ff" points="1883.71,-249.85 1883.3,-239.27 1877.02,-247.79 1883.71,-249.85"/>
</a>
</g>
</g>
<!-- Node16 -->
<g id="Node000016" class="node">
<title>Node16</title>
<g id="a_Node000016"><a xlink:title=" ">
<polygon fill="#e0e0e0" stroke="#999999" points="1911,-184 1861,-184 1861,-165 1911,-165 1911,-184"/>
<text text-anchor="middle" x="1886" y="-172" font-family="Helvetica,sans-Serif" font-size="10.00">atomic</text>
</a>
</g>
</g>
<!-- Node15&#45;&gt;Node16 -->
<g id="edge16_Node000015_Node000016" class="edge">
<title>Node15&#45;&gt;Node16</title>
<g id="a_edge16_Node000015_Node000016"><a xlink:title=" ">
<path fill="none" stroke="#63b8ff" d="M1886,-219.75C1886,-212.8 1886,-202.85 1886,-194.13"/>
<polygon fill="#63b8ff" stroke="#63b8ff" points="1889.5,-194.09 1886,-184.09 1882.5,-194.09 1889.5,-194.09"/>
</a>
</g>
</g>
<!-- Node21 -->
<g id="Node000021" class="node">
<title>Node21</title>
<g id="a_Node000021"><a xlink:title=" ">
<polygon fill="#e0e0e0" stroke="#999999" points="1611.5,-74 1546.5,-74 1546.5,-55 1611.5,-55 1611.5,-74"/>
<text text-anchor="middle" x="1579" y="-62" font-family="Helvetica,sans-Serif" font-size="10.00">functional</text>
</a>
</g>
</g>
<!-- Node20&#45;&gt;Node21 -->
<g id="edge18_Node000020_Node000021" class="edge">
<title>Node20&#45;&gt;Node21</title>
<g id="a_edge18_Node000020_Node000021"><a xlink:title=" ">
<path fill="none" stroke="#63b8ff" d="M1005.89,-346.48C1019.05,-344.6 1033,-342.67 1046,-341 1164.9,-325.76 1574,-350.38 1574,-230.5 1574,-230.5 1574,-230.5 1574,-173.5 1574,-142.16 1576.13,-105.75 1577.61,-84.22"/>
<polygon fill="#63b8ff" stroke="#63b8ff" points="1581.1,-84.4 1578.33,-74.17 1574.12,-83.9 1581.1,-84.4"/>
</a>
</g>
</g>
<!-- Node22 -->
<g id="Node000022" class="node">
<title>Node22</title>
<g id="a_Node000022"><a xlink:title=" ">
<polygon fill="#e0e0e0" stroke="#999999" points="1723.5,-299.5 1640.5,-299.5 1640.5,-280.5 1723.5,-280.5 1723.5,-299.5"/>
<text text-anchor="middle" x="1682" y="-287.5" font-family="Helvetica,sans-Serif" font-size="10.00">GLFW/glfw3.h</text>
</a>
</g>
</g>
<!-- Node20&#45;&gt;Node22 -->
<g id="edge19_Node000020_Node000022" class="edge">
<title>Node20&#45;&gt;Node22</title>
<g id="a_edge19_Node000020_Node000022"><a xlink:title=" ">
<path fill="none" stroke="#63b8ff" d="M1002.52,-346.48C1016.63,-344.45 1031.87,-342.46 1046,-341 1302.91,-314.53 1370.76,-344.49 1626,-305 1631.39,-304.17 1637.01,-303.06 1642.53,-301.82"/>
<polygon fill="#63b8ff" stroke="#63b8ff" points="1643.35,-305.22 1652.27,-299.51 1641.73,-298.41 1643.35,-305.22"/>
</a>
</g>
</g>
<!-- Node23 -->
<g id="Node000023" class="node">
<title>Node23</title>
<g id="a_Node000023"><a xlink:title=" ">
<polygon fill="#e0e0e0" stroke="#999999" points="1138,-129 1060,-129 1060,-110 1138,-110 1138,-129"/>
<text text-anchor="middle" x="1099" y="-117" font-family="Helvetica,sans-Serif" font-size="10.00">glm/glm.hpp</text>
</a>
</g>
</g>
<!-- Node20&#45;&gt;Node23 -->
<g id="edge20_Node000020_Node000023" class="edge">
<title>Node20&#45;&gt;Node23</title>
<g id="a_edge20_Node000020_Node000023"><a xlink:title=" ">
<path fill="none" stroke="#63b8ff" d="M861.22,-349.44C624.71,-332.87 -0.9,-277.85 107,-165 139.88,-130.61 853.99,-122.44 1049.76,-120.84"/>
<polygon fill="#63b8ff" stroke="#63b8ff" points="1049.79,-124.34 1059.76,-120.76 1049.73,-117.34 1049.79,-124.34"/>
</a>
</g>
</g>
<!-- Node24 -->
<g id="Node000024" class="node">
<title>Node24</title>
<g id="a_Node000024"><a xlink:href="_registry_8hpp.html" target="_top" xlink:title=" ">
<polygon fill="white" stroke="#666666" points="1546,-184 1448,-184 1448,-165 1546,-165 1546,-184"/>
<text text-anchor="middle" x="1497" y="-172" font-family="Helvetica,sans-Serif" font-size="10.00">ECS/Registry.hpp</text>
</a>
</g>
</g>
<!-- Node20&#45;&gt;Node24 -->
<g id="edge21_Node000020_Node000024" class="edge">
<title>Node20&#45;&gt;Node24</title>
<g id="a_edge21_Node000020_Node000024"><a xlink:title=" ">
<path fill="none" stroke="#63b8ff" d="M1006.94,-346.49C1019.8,-344.65 1033.36,-342.73 1046,-341 1169.88,-324.07 1209.21,-352.17 1325,-305 1390.85,-278.18 1453.81,-219.71 1481.81,-191.44"/>
<polygon fill="#63b8ff" stroke="#63b8ff" points="1484.58,-193.62 1489.05,-184.01 1479.57,-188.73 1484.58,-193.62"/>
</a>
</g>
</g>
<!-- Node26 -->
<g id="Node000026" class="node">
<title>Node26</title>
<g id="a_Node000026"><a xlink:href="_logger_8hpp.html" target="_top" xlink:title=" ">
<polygon fill="white" stroke="#666666" points="1883.5,-129 1766.5,-129 1766.5,-110 1883.5,-110 1883.5,-129"/>
<text text-anchor="middle" x="1825" y="-117" font-family="Helvetica,sans-Serif" font-size="10.00">Common/Logger.hpp</text>
</a>
</g>
</g>
<!-- Node20&#45;&gt;Node26 -->
<g id="edge37_Node000020_Node000026" class="edge">
<title>Node20&#45;&gt;Node26</title>
<g id="a_edge37_Node000020_Node000026"><a xlink:title=" ">
<path fill="none" stroke="#63b8ff" d="M1002.78,-346.49C1016.82,-344.47 1031.96,-342.48 1046,-341 1166.05,-328.37 1475.19,-347.96 1588,-305 1600.81,-300.12 1752.5,-178.76 1806.26,-135.58"/>
<polygon fill="#63b8ff" stroke="#63b8ff" points="1808.68,-138.12 1814.28,-129.13 1804.3,-132.66 1808.68,-138.12"/>
</a>
</g>
</g>
<!-- Node35 -->
<g id="Node000035" class="node">
<title>Node35</title>
<g id="a_Node000035"><a xlink:href="_camera_component_8hpp.html" target="_top" xlink:title=" ">
<polygon fill="white" stroke="#666666" points="1316.5,-299.5 1119.5,-299.5 1119.5,-280.5 1316.5,-280.5 1316.5,-299.5"/>
<text text-anchor="middle" x="1218" y="-287.5" font-family="Helvetica,sans-Serif" font-size="10.00">Components/CameraComponent.hpp</text>
</a>
</g>
</g>
<!-- Node20&#45;&gt;Node35 -->
<g id="edge38_Node000020_Node000035" class="edge">
<title>Node20&#45;&gt;Node35</title>
<g id="a_edge38_Node000020_Node000035"><a xlink:title=" ">
<path fill="none" stroke="#63b8ff" d="M985,-346.44C1033.42,-334.92 1119.54,-314.43 1172.42,-301.84"/>
<polygon fill="#63b8ff" stroke="#63b8ff" points="1173.3,-305.23 1182.21,-299.51 1171.68,-298.42 1173.3,-305.23"/>
</a>
</g>
</g>
<!-- Node37 -->
<g id="Node000037" class="node">
<title>Node37</title>
<g id="a_Node000037"><a xlink:href="_transform_component_8hpp.html" target="_top" xlink:title=" ">
<polygon fill="white" stroke="#666666" points="862.5,-239 655.5,-239 655.5,-220 862.5,-220 862.5,-239"/>
<text text-anchor="middle" x="759" y="-227" font-family="Helvetica,sans-Serif" font-size="10.00">Components/TransformComponent.hpp</text>
</a>
</g>
</g>
<!-- Node20&#45;&gt;Node37 -->
<g id="edge61_Node000020_Node000037" class="edge">
<title>Node20&#45;&gt;Node37</title>
<g id="a_edge61_Node000020_Node000037"><a xlink:title=" ">
<path fill="none" stroke="#63b8ff" d="M943.08,-346.32C931.66,-330.19 905.08,-295.37 875,-275 853.06,-260.14 825.48,-249.3 802.71,-242.04"/>
<polygon fill="#63b8ff" stroke="#63b8ff" points="803.54,-238.63 792.95,-239.05 801.49,-245.32 803.54,-238.63"/>
</a>
</g>
</g>
<!-- Node45 -->
<g id="Node000045" class="node">
<title>Node45</title>
<g id="a_Node000045"><a xlink:href="_box_collider_component_8hpp.html" target="_top" xlink:title=" ">
<polygon fill="white" stroke="#666666" points="866.5,-299.5 651.5,-299.5 651.5,-280.5 866.5,-280.5 866.5,-299.5"/>
<text text-anchor="middle" x="759" y="-287.5" font-family="Helvetica,sans-Serif" font-size="10.00">Components/BoxColliderComponent.hpp</text>
</a>
</g>
</g>
<!-- Node20&#45;&gt;Node45 -->
<g id="edge54_Node000020_Node000045" class="edge">
<title>Node20&#45;&gt;Node45</title>
<g id="a_edge54_Node000020_Node000045"><a xlink:title=" ">
<path fill="none" stroke="#63b8ff" d="M923.38,-346.37C889.99,-335.12 831.49,-315.42 794.03,-302.8"/>
<polygon fill="#63b8ff" stroke="#63b8ff" points="795.12,-299.47 784.52,-299.6 792.88,-306.11 795.12,-299.47"/>
</a>
</g>
</g>
<!-- Node25 -->
<g id="Node000025" class="node">
<title>Node25</title>
<g id="a_Node000025"><a xlink:title=" ">
<polygon fill="#e0e0e0" stroke="#999999" points="1405,-74 1319,-74 1319,-55 1405,-55 1405,-74"/>
<text text-anchor="middle" x="1362" y="-62" font-family="Helvetica,sans-Serif" font-size="10.00">unordered_set</text>
</a>
</g>
</g>
<!-- Node24&#45;&gt;Node25 -->
<g id="edge22_Node000024_Node000025" class="edge">
<title>Node24&#45;&gt;Node25</title>
<g id="a_edge22_Node000024_Node000025"><a xlink:title=" ">
<path fill="none" stroke="#63b8ff" d="M1455.84,-164.94C1421.41,-156.86 1376.18,-143.82 1365,-129 1355.45,-116.35 1355.67,-97.91 1357.71,-84.16"/>
<polygon fill="#63b8ff" stroke="#63b8ff" points="1361.15,-84.81 1359.57,-74.33 1354.27,-83.5 1361.15,-84.81"/>
</a>
</g>
</g>
<!-- Node24&#45;&gt;Node26 -->
<g id="edge23_Node000024_Node000026" class="edge">
<title>Node24&#45;&gt;Node26</title>
<g id="a_edge23_Node000024_Node000026"><a xlink:title=" ">
<path fill="none" stroke="#63b8ff" d="M1546.1,-165.57C1603.66,-156.26 1699.17,-140.83 1762.1,-130.66"/>
<polygon fill="#63b8ff" stroke="#63b8ff" points="1762.98,-134.07 1772.3,-129.02 1761.87,-127.16 1762.98,-134.07"/>
</a>
</g>
</g>
<!-- Node28 -->
<g id="Node000028" class="node">
<title>Node28</title>
<g id="a_Node000028"><a xlink:href="_entity_8hpp.html" target="_top" xlink:title=" ">
<polygon fill="#fff0f0" stroke="red" points="1561,-19 1475,-19 1475,0 1561,0 1561,-19"/>
<text text-anchor="middle" x="1518" y="-7" font-family="Helvetica,sans-Serif" font-size="10.00">ECS/Entity.hpp</text>
</a>
</g>
</g>
<!-- Node24&#45;&gt;Node28 -->
<g id="edge26_Node000024_Node000028" class="edge">
<title>Node24&#45;&gt;Node28</title>
<g id="a_edge26_Node000024_Node000028"><a xlink:title=" ">
<path fill="none" stroke="#63b8ff" d="M1502.29,-164.68C1507.19,-155.96 1514.14,-142.07 1517,-129 1524.56,-94.46 1522.42,-52.88 1520.2,-29.29"/>
<polygon fill="#63b8ff" stroke="#63b8ff" points="1523.67,-28.84 1519.14,-19.26 1516.71,-29.57 1523.67,-28.84"/>
</a>
</g>
</g>
<!-- Node30 -->
<g id="Node000030" class="node">
<title>Node30</title>
<g id="a_Node000030"><a xlink:href="_entity_hierarchy_8hpp.html" target="_top" xlink:title=" ">
<polygon fill="#fff0f0" stroke="red" points="1508,-129 1374,-129 1374,-110 1508,-110 1508,-129"/>
<text text-anchor="middle" x="1441" y="-117" font-family="Helvetica,sans-Serif" font-size="10.00">ECS/EntityHierarchy.hpp</text>
</a>
</g>
</g>
<!-- Node24&#45;&gt;Node30 -->
<g id="edge27_Node000024_Node000030" class="edge">
<title>Node24&#45;&gt;Node30</title>
<g id="a_edge27_Node000024_Node000030"><a xlink:title=" ">
<path fill="none" stroke="#63b8ff" d="M1488,-164.98C1479.81,-157.23 1467.49,-145.58 1457.53,-136.14"/>
<polygon fill="#63b8ff" stroke="#63b8ff" points="1459.83,-133.5 1450.16,-129.17 1455.02,-138.59 1459.83,-133.5"/>
</a>
</g>
</g>
<!-- Node32 -->
<g id="Node000032" class="node">
<title>Node32</title>
<g id="a_Node000032"><a xlink:href="_entity_provider_8hpp.html" target="_top" xlink:title="Manages a pool of unused entity identifiers and provides mechanisms for requesting and removing them.">
<polygon fill="#fff0f0" stroke="red" points="1758,-74 1630,-74 1630,-55 1758,-55 1758,-74"/>
<text text-anchor="middle" x="1694" y="-62" font-family="Helvetica,sans-Serif" font-size="10.00">ECS/EntityProvider.hpp</text>
</a>
</g>
</g>
<!-- Node24&#45;&gt;Node32 -->
<g id="edge31_Node000024_Node000032" class="edge">
<title>Node24&#45;&gt;Node32</title>
<g id="a_edge31_Node000024_Node000032"><a xlink:title=" ">
<path fill="none" stroke="#63b8ff" d="M1512.79,-164.84C1547.09,-146.04 1628.64,-101.33 1669.61,-78.87"/>
<polygon fill="#63b8ff" stroke="#63b8ff" points="1671.32,-81.92 1678.41,-74.05 1667.96,-75.79 1671.32,-81.92"/>
</a>
</g>
</g>
<!-- Node33 -->
<g id="Node000033" class="node">
<title>Node33</title>
<g id="a_Node000033"><a xlink:href="_sparse_set_8hpp.html" target="_top" xlink:title=" ">
<polygon fill="white" stroke="#666666" points="1748,-129 1640,-129 1640,-110 1748,-110 1748,-129"/>
<text text-anchor="middle" x="1694" y="-117" font-family="Helvetica,sans-Serif" font-size="10.00">ECS/SparseSet.hpp</text>
</a>
</g>
</g>
<!-- Node24&#45;&gt;Node33 -->
<g id="edge34_Node000024_Node000033" class="edge">
<title>Node24&#45;&gt;Node33</title>
<g id="a_edge34_Node000024_Node000033"><a xlink:title=" ">
<path fill="none" stroke="#63b8ff" d="M1528.65,-164.98C1562.16,-155.97 1615.2,-141.7 1652.14,-131.76"/>
<polygon fill="#63b8ff" stroke="#63b8ff" points="1653.35,-135.06 1662.1,-129.08 1651.53,-128.3 1653.35,-135.06"/>
</a>
</g>
</g>
<!-- Node34 -->
<g id="Node000034" class="node">
<title>Node34</title>
<g id="a_Node000034"><a xlink:href="_singleton_component_8hpp.html" target="_top" xlink:title=" ">
<polygon fill="white" stroke="#666666" points="1317.5,-129 1156.5,-129 1156.5,-110 1317.5,-110 1317.5,-129"/>
<text text-anchor="middle" x="1237" y="-117" font-family="Helvetica,sans-Serif" font-size="10.00">ECS/SingletonComponent.hpp</text>
</a>
</g>
</g>
<!-- Node24&#45;&gt;Node34 -->
<g id="edge36_Node000024_Node000034" class="edge">
<title>Node24&#45;&gt;Node34</title>
<g id="a_edge36_Node000024_Node000034"><a xlink:title=" ">
<path fill="none" stroke="#63b8ff" d="M1455.23,-164.98C1410.06,-155.78 1338,-141.09 1289.15,-131.13"/>
<polygon fill="#63b8ff" stroke="#63b8ff" points="1289.6,-127.65 1279.1,-129.08 1288.2,-134.51 1289.6,-127.65"/>
</a>
</g>
</g>
<!-- Node18 -->
<g id="Node000018" class="node">
<title>Node18</title>
<g id="a_Node000018"><a xlink:title=" ">
<polygon fill="#e0e0e0" stroke="#999999" points="1862,-74 1814,-74 1814,-55 1862,-55 1862,-74"/>
<text text-anchor="middle" x="1838" y="-62" font-family="Helvetica,sans-Serif" font-size="10.00">mutex</text>
</a>
</g>
</g>
<!-- Node26&#45;&gt;Node18 -->
<g id="edge24_Node000026_Node000018" class="edge">
<title>Node26&#45;&gt;Node18</title>
<g id="a_edge24_Node000026_Node000018"><a xlink:title=" ">
<path fill="none" stroke="#63b8ff" d="M1827.15,-109.75C1828.87,-102.72 1831.35,-92.62 1833.5,-83.84"/>
<polygon fill="#63b8ff" stroke="#63b8ff" points="1836.91,-84.63 1835.89,-74.09 1830.11,-82.97 1836.91,-84.63"/>
</a>
</g>
</g>
<!-- Node27 -->
<g id="Node000027" class="node">
<title>Node27</title>
<g id="a_Node000027"><a xlink:title=" ">
<polygon fill="#e0e0e0" stroke="#999999" points="1763.5,-19 1716.5,-19 1716.5,0 1763.5,0 1763.5,-19"/>
<text text-anchor="middle" x="1740" y="-7" font-family="Helvetica,sans-Serif" font-size="10.00">queue</text>
</a>
</g>
</g>
<!-- Node26&#45;&gt;Node27 -->
<g id="edge25_Node000026_Node000027" class="edge">
<title>Node26&#45;&gt;Node27</title>
<g id="a_edge25_Node000026_Node000027"><a xlink:title=" ">
<path fill="none" stroke="#63b8ff" d="M1818.04,-109.66C1803.84,-91.61 1771.31,-50.28 1753.05,-27.08"/>
<polygon fill="#63b8ff" stroke="#63b8ff" points="1755.75,-24.85 1746.81,-19.16 1750.25,-29.18 1755.75,-24.85"/>
</a>
</g>
</g>
<!-- Node30&#45;&gt;Node21 -->
<g id="edge28_Node000030_Node000021" class="edge">
<title>Node30&#45;&gt;Node21</title>
<g id="a_edge28_Node000030_Node000021"><a xlink:title=" ">
<path fill="none" stroke="#63b8ff" d="M1463.17,-109.98C1485.77,-101.3 1521.06,-87.75 1546.75,-77.88"/>
<polygon fill="#63b8ff" stroke="#63b8ff" points="1548.34,-81.02 1556.42,-74.17 1545.83,-74.49 1548.34,-81.02"/>
</a>
</g>
</g>
<!-- Node30&#45;&gt;Node25 -->
<g id="edge29_Node000030_Node000025" class="edge">
<title>Node30&#45;&gt;Node25</title>
<g id="a_edge29_Node000030_Node000025"><a xlink:title=" ">
<path fill="none" stroke="#63b8ff" d="M1428.31,-109.98C1416.17,-101.84 1397.64,-89.41 1383.25,-79.76"/>
<polygon fill="#63b8ff" stroke="#63b8ff" points="1385.18,-76.84 1374.92,-74.17 1381.28,-82.65 1385.18,-76.84"/>
</a>
</g>
</g>
<!-- Node30&#45;&gt;Node28 -->
<g id="edge30_Node000030_Node000028" class="edge">
<title>Node30&#45;&gt;Node28</title>
<g id="a_edge30_Node000030_Node000028"><a xlink:title=" ">
<path fill="none" stroke="#63b8ff" d="M1447.3,-109.66C1460.11,-91.69 1489.38,-50.64 1505.96,-27.38"/>
<polygon fill="#63b8ff" stroke="#63b8ff" points="1508.87,-29.33 1511.83,-19.16 1503.17,-25.27 1508.87,-29.33"/>
</a>
</g>
</g>
<!-- Node32&#45;&gt;Node27 -->
<g id="edge32_Node000032_Node000027" class="edge">
<title>Node32&#45;&gt;Node27</title>
<g id="a_edge32_Node000032_Node000027"><a xlink:title=" ">
<path fill="none" stroke="#63b8ff" d="M1701.6,-54.75C1708.16,-47.18 1717.82,-36.05 1725.81,-26.84"/>
<polygon fill="#63b8ff" stroke="#63b8ff" points="1728.63,-28.94 1732.55,-19.09 1723.35,-24.35 1728.63,-28.94"/>
</a>
</g>
</g>
<!-- Node32&#45;&gt;Node28 -->
<g id="edge33_Node000032_Node000028" class="edge">
<title>Node32&#45;&gt;Node28</title>
<g id="a_edge33_Node000032_Node000028"><a xlink:title=" ">
<path fill="none" stroke="#63b8ff" d="M1665.72,-54.98C1636.05,-46.05 1589.21,-31.94 1556.25,-22.02"/>
<polygon fill="#63b8ff" stroke="#63b8ff" points="1557.08,-18.61 1546.5,-19.08 1555.07,-25.32 1557.08,-18.61"/>
</a>
</g>
</g>
<!-- Node33&#45;&gt;Node32 -->
<g id="edge35_Node000033_Node000032" class="edge">
<title>Node33&#45;&gt;Node32</title>
<g id="a_edge35_Node000033_Node000032"><a xlink:title=" ">
<path fill="none" stroke="#63b8ff" d="M1694,-109.75C1694,-102.8 1694,-92.85 1694,-84.13"/>
<polygon fill="#63b8ff" stroke="#63b8ff" points="1697.5,-84.09 1694,-74.09 1690.5,-84.09 1697.5,-84.09"/>
</a>
</g>
</g>
<!-- Node35&#45;&gt;Node23 -->
<g id="edge39_Node000035_Node000023" class="edge">
<title>Node35&#45;&gt;Node23</title>
<g id="a_edge39_Node000035_Node000023"><a xlink:title=" ">
<path fill="none" stroke="#63b8ff" d="M1253.66,-280.49C1319.36,-263.24 1448.55,-220.95 1400,-165 1364.6,-124.2 1218.38,-136.55 1148.2,-128.87"/>
<polygon fill="#63b8ff" stroke="#63b8ff" points="1148.39,-125.37 1138.01,-127.52 1147.47,-132.31 1148.39,-125.37"/>
</a>
</g>
</g>
<!-- Node36 -->
<g id="Node000036" class="node">
<title>Node36</title>
<g id="a_Node000036"><a xlink:href="_ray_8hpp.html" target="_top" xlink:title=" ">
<polygon fill="white" stroke="#666666" points="1391.5,-184 1308.5,-184 1308.5,-165 1391.5,-165 1391.5,-184"/>
<text text-anchor="middle" x="1350" y="-172" font-family="Helvetica,sans-Serif" font-size="10.00">Math/Ray.hpp</text>
</a>
</g>
</g>
<!-- Node35&#45;&gt;Node36 -->
<g id="edge40_Node000035_Node000036" class="edge">
<title>Node35&#45;&gt;Node36</title>
<g id="a_edge40_Node000035_Node000036"><a xlink:title=" ">
<path fill="none" stroke="#63b8ff" d="M1257.58,-280.45C1281.92,-273.25 1311.99,-260.56 1331,-239 1341.82,-226.73 1346.48,-208.5 1348.49,-194.71"/>
<polygon fill="#63b8ff" stroke="#63b8ff" points="1352.01,-194.74 1349.63,-184.41 1345.05,-193.97 1352.01,-194.74"/>
</a>
</g>
</g>
<!-- Node35&#45;&gt;Node37 -->
<g id="edge42_Node000035_Node000037" class="edge">
<title>Node35&#45;&gt;Node37</title>
<g id="a_edge42_Node000035_Node000037"><a xlink:title=" ">
<path fill="none" stroke="#63b8ff" d="M1151.26,-280.49C1067.46,-269.81 924.03,-251.53 835.77,-240.29"/>
<polygon fill="#63b8ff" stroke="#63b8ff" points="836.19,-236.81 825.82,-239.02 835.3,-243.75 836.19,-236.81"/>
</a>
</g>
</g>
<!-- Node36&#45;&gt;Node23 -->
<g id="edge41_Node000036_Node000023" class="edge">
<title>Node36&#45;&gt;Node23</title>
<g id="a_edge41_Node000036_Node000023"><a xlink:title=" ">
<path fill="none" stroke="#63b8ff" d="M1309.67,-164.98C1265.78,-155.72 1195.56,-140.89 1148.39,-130.93"/>
<polygon fill="#63b8ff" stroke="#63b8ff" points="1148.91,-127.46 1138.4,-128.82 1147.46,-134.31 1148.91,-127.46"/>
</a>
</g>
</g>
<!-- Node37&#45;&gt;Node4 -->
<g id="edge44_Node000037_Node000004" class="edge">
<title>Node37&#45;&gt;Node4</title>
<g id="a_edge44_Node000037_Node000004"><a xlink:title=" ">
<path fill="none" stroke="#63b8ff" d="M655.35,-224.75C542.28,-219.68 355.87,-208.48 186.27,-183.98"/>
<polygon fill="#63b8ff" stroke="#63b8ff" points="186.56,-180.49 176.16,-182.5 185.55,-187.41 186.56,-180.49"/>
</a>
</g>
</g>
<!-- Node37&#45;&gt;Node5 -->
<g id="edge43_Node000037_Node000005" class="edge">
<title>Node37&#45;&gt;Node5</title>
<g id="a_edge43_Node000037_Node000005"><a xlink:title=" ">
<path fill="none" stroke="#63b8ff" d="M655.31,-224.99C553.7,-220.29 394.43,-209.58 248.29,-183.91"/>
<polygon fill="#63b8ff" stroke="#63b8ff" points="248.7,-180.43 238.24,-182.12 247.47,-187.32 248.7,-180.43"/>
</a>
</g>
</g>
<!-- Node37&#45;&gt;Node23 -->
<g id="edge45_Node000037_Node000023" class="edge">
<title>Node37&#45;&gt;Node23</title>
<g id="a_edge45_Node000037_Node000023"><a xlink:title=" ">
<path fill="none" stroke="#63b8ff" d="M655.4,-225.25C587.33,-220.67 506.94,-209.79 485,-184 479.53,-177.57 479.25,-171.18 485,-165 523.13,-124 910.2,-120.31 1049.44,-120.31"/>
<polygon fill="#63b8ff" stroke="#63b8ff" points="1049.81,-123.81 1059.81,-120.32 1049.81,-116.81 1049.81,-123.81"/>
</a>
</g>
</g>
<!-- Node37&#45;&gt;Node24 -->
<g id="edge52_Node000037_Node000024" class="edge">
<title>Node37&#45;&gt;Node24</title>
<g id="a_edge52_Node000037_Node000024"><a xlink:title=" ">
<path fill="none" stroke="#63b8ff" d="M862.57,-221.89C989.34,-213.66 1210.53,-198.88 1400,-184 1412.11,-183.05 1425.07,-181.96 1437.44,-180.89"/>
<polygon fill="#63b8ff" stroke="#63b8ff" points="1438.01,-184.35 1447.67,-180 1437.4,-177.38 1438.01,-184.35"/>
</a>
</g>
</g>
<!-- Node38 -->
<g id="Node000038" class="node">
<title>Node38</title>
<g id="a_Node000038"><a xlink:title=" ">
<polygon fill="#e0e0e0" stroke="#999999" points="964,-184 834,-184 834,-165 964,-165 964,-184"/>
<text text-anchor="middle" x="899" y="-172" font-family="Helvetica,sans-Serif" font-size="10.00">glm/gtc/quaternion.hpp</text>
</a>
</g>
</g>
<!-- Node37&#45;&gt;Node38 -->
<g id="edge46_Node000037_Node000038" class="edge">
<title>Node37&#45;&gt;Node38</title>
<g id="a_edge46_Node000037_Node000038"><a xlink:title=" ">
<path fill="none" stroke="#63b8ff" d="M781.49,-219.98C804.52,-211.27 840.54,-197.63 866.63,-187.75"/>
<polygon fill="#63b8ff" stroke="#63b8ff" points="867.98,-190.98 876.1,-184.17 865.51,-184.44 867.98,-190.98"/>
</a>
</g>
</g>
<!-- Node39 -->
<g id="Node000039" class="node">
<title>Node39</title>
<g id="a_Node000039"><a xlink:title=" ">
<polygon fill="#e0e0e0" stroke="#999999" points="1145.5,-184 982.5,-184 982.5,-165 1145.5,-165 1145.5,-184"/>
<text text-anchor="middle" x="1064" y="-172" font-family="Helvetica,sans-Serif" font-size="10.00">glm/gtc/matrix_transform.hpp</text>
</a>
</g>
</g>
<!-- Node37&#45;&gt;Node39 -->
<g id="edge47_Node000037_Node000039" class="edge">
<title>Node37&#45;&gt;Node39</title>
<g id="a_edge47_Node000037_Node000039"><a xlink:title=" ">
<path fill="none" stroke="#63b8ff" d="M808,-219.98C861.62,-210.67 947.54,-195.74 1004.86,-185.78"/>
<polygon fill="#63b8ff" stroke="#63b8ff" points="1005.61,-189.2 1014.87,-184.04 1004.41,-182.3 1005.61,-189.2"/>
</a>
</g>
</g>
<!-- Node40 -->
<g id="Node000040" class="node">
<title>Node40</title>
<g id="a_Node000040"><a xlink:title=" ">
<polygon fill="#e0e0e0" stroke="#999999" points="666,-184 494,-184 494,-165 666,-165 666,-184"/>
<text text-anchor="middle" x="580" y="-172" font-family="Helvetica,sans-Serif" font-size="10.00">glm/gtx/matrix_decompose.hpp</text>
</a>
</g>
</g>
<!-- Node37&#45;&gt;Node40 -->
<g id="edge48_Node000037_Node000040" class="edge">
<title>Node37&#45;&gt;Node40</title>
<g id="a_edge48_Node000037_Node000040"><a xlink:title=" ">
<path fill="none" stroke="#63b8ff" d="M730.24,-219.98C700.06,-211.05 652.43,-196.94 618.9,-187.02"/>
<polygon fill="#63b8ff" stroke="#63b8ff" points="619.57,-183.57 608.98,-184.08 617.58,-190.28 619.57,-183.57"/>
</a>
</g>
</g>
<!-- Node41 -->
<g id="Node000041" class="node">
<title>Node41</title>
<g id="a_Node000041"><a xlink:title=" ">
<polygon fill="#e0e0e0" stroke="#999999" points="815.5,-184 684.5,-184 684.5,-165 815.5,-165 815.5,-184"/>
<text text-anchor="middle" x="750" y="-172" font-family="Helvetica,sans-Serif" font-size="10.00">glm/gtx/string_cast.hpp</text>
</a>
</g>
</g>
<!-- Node37&#45;&gt;Node41 -->
<g id="edge49_Node000037_Node000041" class="edge">
<title>Node37&#45;&gt;Node41</title>
<g id="a_edge49_Node000037_Node000041"><a xlink:title=" ">
<path fill="none" stroke="#63b8ff" d="M757.51,-219.75C756.33,-212.8 754.64,-202.85 753.16,-194.13"/>
<polygon fill="#63b8ff" stroke="#63b8ff" points="756.58,-193.36 751.46,-184.09 749.68,-194.53 756.58,-193.36"/>
</a>
</g>
</g>
<!-- Node42 -->
<g id="Node000042" class="node">
<title>Node42</title>
<g id="a_Node000042"><a xlink:href="_math_2_utils_8hpp.html" target="_top" xlink:title=" ">
<polygon fill="white" stroke="#666666" points="1252,-184 1164,-184 1164,-165 1252,-165 1252,-184"/>
<text text-anchor="middle" x="1208" y="-172" font-family="Helvetica,sans-Serif" font-size="10.00">Math/Utils.hpp</text>
</a>
</g>
</g>
<!-- Node37&#45;&gt;Node42 -->
<g id="edge50_Node000037_Node000042" class="edge">
<title>Node37&#45;&gt;Node42</title>
<g id="a_edge50_Node000037_Node000042"><a xlink:title=" ">
<path fill="none" stroke="#63b8ff" d="M844.28,-219.99C922.02,-211.97 1040.31,-199.15 1153.58,-184"/>
<polygon fill="#63b8ff" stroke="#63b8ff" points="1154.38,-187.42 1163.82,-182.62 1153.44,-180.48 1154.38,-187.42"/>
</a>
</g>
</g>
<!-- Node43 -->
<g id="Node000043" class="node">
<title>Node43</title>
<g id="a_Node000043"><a xlink:href="_base_component_8hpp.html" target="_top" xlink:title=" ">
<polygon fill="#fff0f0" stroke="red" points="438,-184 256,-184 256,-165 438,-165 438,-184"/>
<text text-anchor="middle" x="347" y="-172" font-family="Helvetica,sans-Serif" font-size="10.00">Components/BaseComponent.hpp</text>
</a>
</g>
</g>
<!-- Node37&#45;&gt;Node43 -->
<g id="edge53_Node000037_Node000043" class="edge">
<title>Node37&#45;&gt;Node43</title>
<g id="a_edge53_Node000037_Node000043"><a xlink:title=" ">
<path fill="none" stroke="#63b8ff" d="M692.81,-219.98C619.33,-210.53 500.94,-195.3 423.54,-185.35"/>
<polygon fill="#63b8ff" stroke="#63b8ff" points="423.74,-181.84 413.37,-184.04 422.84,-188.79 423.74,-181.84"/>
</a>
</g>
</g>
<!-- Node42&#45;&gt;Node23 -->
<g id="edge51_Node000042_Node000023" class="edge">
<title>Node42&#45;&gt;Node23</title>
<g id="a_edge51_Node000042_Node000023"><a xlink:title=" ">
<path fill="none" stroke="#63b8ff" d="M1190.49,-164.98C1173.03,-156.5 1145.99,-143.35 1125.83,-133.54"/>
<polygon fill="#63b8ff" stroke="#63b8ff" points="1127.36,-130.4 1116.83,-129.17 1124.29,-136.69 1127.36,-130.4"/>
</a>
</g>
</g>
<!-- Node45&#45;&gt;Node5 -->
<g id="edge55_Node000045_Node000005" class="edge">
<title>Node45&#45;&gt;Node5</title>
<g id="a_edge55_Node000045_Node000005"><a xlink:title=" ">
<path fill="none" stroke="#63b8ff" d="M712.18,-280.48C623.45,-264.11 424.63,-226.3 248.03,-184.13"/>
<polygon fill="#63b8ff" stroke="#63b8ff" points="248.85,-180.73 238.31,-181.8 247.22,-187.53 248.85,-180.73"/>
</a>
</g>
</g>
<!-- Node45&#45;&gt;Node37 -->
<g id="edge60_Node000045_Node000037" class="edge">
<title>Node45&#45;&gt;Node37</title>
<g id="a_edge60_Node000045_Node000037"><a xlink:title=" ">
<path fill="none" stroke="#63b8ff" d="M759,-280.37C759,-272.25 759,-259.81 759,-249.39"/>
<polygon fill="#63b8ff" stroke="#63b8ff" points="762.5,-249.17 759,-239.17 755.5,-249.17 762.5,-249.17"/>
</a>
</g>
</g>
<!-- Node45&#45;&gt;Node43 -->
<g id="edge59_Node000045_Node000043" class="edge">
<title>Node45&#45;&gt;Node43</title>
<g id="a_edge59_Node000045_Node000043"><a xlink:title=" ">
<path fill="none" stroke="#63b8ff" d="M728.03,-280.47C654.65,-260.25 470.16,-209.43 387.8,-186.74"/>
<polygon fill="#63b8ff" stroke="#63b8ff" points="388.62,-183.33 378.04,-184.05 386.76,-190.08 388.62,-183.33"/>
</a>
</g>
</g>
<!-- Node46 -->
<g id="Node000046" class="node">
<title>Node46</title>
<g id="a_Node000046"><a xlink:href="_a_a_b_b_8hpp.html" target="_top" xlink:title=" ">
<polygon fill="white" stroke="#666666" points="1322,-239 1230,-239 1230,-220 1322,-220 1322,-239"/>
<text text-anchor="middle" x="1276" y="-227" font-family="Helvetica,sans-Serif" font-size="10.00">Math/AABB.hpp</text>
</a>
</g>
</g>
<!-- Node45&#45;&gt;Node46 -->
<g id="edge56_Node000045_Node000046" class="edge">
<title>Node45&#45;&gt;Node46</title>
<g id="a_edge56_Node000045_Node000046"><a xlink:title=" ">
<path fill="none" stroke="#63b8ff" d="M834.18,-280.49C938.91,-268.64 1126.37,-247.43 1219.82,-236.86"/>
<polygon fill="#63b8ff" stroke="#63b8ff" points="1220.38,-240.32 1229.93,-235.71 1219.6,-233.36 1220.38,-240.32"/>
</a>
</g>
</g>
<!-- Node46&#45;&gt;Node23 -->
<g id="edge57_Node000046_Node000023" class="edge">
<title>Node46&#45;&gt;Node23</title>
<g id="a_edge57_Node000046_Node000023"><a xlink:title=" ">
<path fill="none" stroke="#63b8ff" d="M1276.54,-219.82C1276.89,-206.24 1275.47,-180 1261,-165 1252.98,-156.68 1192.78,-141.6 1148.1,-131.33"/>
<polygon fill="#63b8ff" stroke="#63b8ff" points="1148.78,-127.89 1138.25,-129.08 1147.22,-134.72 1148.78,-127.89"/>
</a>
</g>
</g>
<!-- Node46&#45;&gt;Node36 -->
<g id="edge58_Node000046_Node000036" class="edge">
<title>Node46&#45;&gt;Node36</title>
<g id="a_edge58_Node000046_Node000036"><a xlink:title=" ">
<path fill="none" stroke="#63b8ff" d="M1287.89,-219.98C1299.15,-211.92 1316.29,-199.65 1329.71,-190.03"/>
<polygon fill="#63b8ff" stroke="#63b8ff" points="1331.8,-192.84 1337.89,-184.17 1327.73,-187.15 1331.8,-192.84"/>
</a>
</g>
</g>
</g>
</svg>
