<?xml version="1.0" encoding="UTF-8" standalone="no"?>
<!DOCTYPE svg PUBLIC "-//W3C//DTD SVG 1.1//EN"
 "http://www.w3.org/Graphics/SVG/1.1/DTD/svg11.dtd">
<!-- Generated by graphviz version 2.43.0 (0)
 -->
<!-- Title: src/ui/UI.cpp Pages: 1 -->
<svg width="2968pt" height="423pt"
 viewBox="0.00 0.00 2968.00 423.00" xmlns="http://www.w3.org/2000/svg" xmlns:xlink="http://www.w3.org/1999/xlink">
<g id="graph0" class="graph" transform="scale(1 1) rotate(0) translate(4 419)">
<title>src/ui/UI.cpp</title>
<!-- Node1 -->
<g id="Node000001" class="node">
<title>Node1</title>
<g id="a_Node000001"><a xlink:title=" ">
<polygon fill="#999999" stroke="#666666" points="1277.5,-415 1200.5,-415 1200.5,-396 1277.5,-396 1277.5,-415"/>
<text text-anchor="middle" x="1239" y="-403" font-family="Helvetica,sans-Serif" font-size="10.00">src/ui/UI.cpp</text>
</a>
</g>
</g>
<!-- Node2 -->
<g id="Node000002" class="node">
<title>Node2</title>
<g id="a_Node000002"><a xlink:title=" ">
<polygon fill="#e0e0e0" stroke="#999999" points="50,-354.5 0,-354.5 0,-335.5 50,-335.5 50,-354.5"/>
<text text-anchor="middle" x="25" y="-342.5" font-family="Helvetica,sans-Serif" font-size="10.00">stdio.h</text>
</a>
</g>
</g>
<!-- Node1&#45;&gt;Node2 -->
<g id="edge1_Node000001_Node000002" class="edge">
<title>Node1&#45;&gt;Node2</title>
<g id="a_edge1_Node000001_Node000002"><a xlink:title=" ">
<path fill="none" stroke="#63b8ff" d="M1200.31,-404.86C1022.63,-406.25 283.99,-408.93 59,-360 56.77,-359.52 54.5,-358.89 52.24,-358.18"/>
<polygon fill="#63b8ff" stroke="#63b8ff" points="53.21,-354.81 42.62,-354.63 50.79,-361.37 53.21,-354.81"/>
</a>
</g>
</g>
<!-- Node3 -->
<g id="Node000003" class="node">
<title>Node3</title>
<g id="a_Node000003"><a xlink:title=" ">
<polygon fill="#e0e0e0" stroke="#999999" points="118,-354.5 68,-354.5 68,-335.5 118,-335.5 118,-354.5"/>
<text text-anchor="middle" x="93" y="-342.5" font-family="Helvetica,sans-Serif" font-size="10.00">chrono</text>
</a>
</g>
</g>
<!-- Node1&#45;&gt;Node3 -->
<g id="edge2_Node000001_Node000003" class="edge">
<title>Node1&#45;&gt;Node3</title>
<g id="a_edge2_Node000001_Node000003"><a xlink:title=" ">
<path fill="none" stroke="#63b8ff" d="M1200.49,-404.52C1030.1,-404.36 343.09,-401.13 132,-360 128.99,-359.41 125.9,-358.63 122.84,-357.74"/>
<polygon fill="#63b8ff" stroke="#63b8ff" points="123.91,-354.41 113.31,-354.61 121.72,-361.06 123.91,-354.41"/>
</a>
</g>
</g>
<!-- Node4 -->
<g id="Node000004" class="node">
<title>Node4</title>
<g id="a_Node000004"><a xlink:title=" ">
<polygon fill="#e0e0e0" stroke="#999999" points="179,-184 119,-184 119,-165 179,-165 179,-184"/>
<text text-anchor="middle" x="149" y="-172" font-family="Helvetica,sans-Serif" font-size="10.00">iostream</text>
</a>
</g>
</g>
<!-- Node1&#45;&gt;Node4 -->
<g id="edge3_Node000001_Node000004" class="edge">
<title>Node1&#45;&gt;Node4</title>
<g id="a_edge3_Node000001_Node000004"><a xlink:title=" ">
<path fill="none" stroke="#63b8ff" d="M1200.39,-404.51C1031.87,-404.32 365.36,-400.97 282,-360 211.56,-325.38 170.32,-233.29 155.41,-193.85"/>
<polygon fill="#63b8ff" stroke="#63b8ff" points="158.68,-192.61 151.97,-184.41 152.1,-195 158.68,-192.61"/>
</a>
</g>
</g>
<!-- Node5 -->
<g id="Node000005" class="node">
<title>Node5</title>
<g id="a_Node000005"><a xlink:title=" ">
<polygon fill="#e0e0e0" stroke="#999999" points="241,-184 197,-184 197,-165 241,-165 241,-184"/>
<text text-anchor="middle" x="219" y="-172" font-family="Helvetica,sans-Serif" font-size="10.00">string</text>
</a>
</g>
</g>
<!-- Node1&#45;&gt;Node5 -->
<g id="edge4_Node000001_Node000005" class="edge">
<title>Node1&#45;&gt;Node5</title>
<g id="a_edge4_Node000001_Node000005"><a xlink:title=" ">
<path fill="none" stroke="#63b8ff" d="M1200.5,-403.47C1064.52,-399.66 607.22,-385.22 463,-360 361.6,-342.27 309.85,-370.52 241,-294 216.13,-266.36 215.19,-219.99 216.94,-194.22"/>
<polygon fill="#63b8ff" stroke="#63b8ff" points="220.42,-194.52 217.82,-184.25 213.45,-193.91 220.42,-194.52"/>
</a>
</g>
</g>
<!-- Node6 -->
<g id="Node000006" class="node">
<title>Node6</title>
<g id="a_Node000006"><a xlink:title=" ">
<polygon fill="#e0e0e0" stroke="#999999" points="714,-354.5 666,-354.5 666,-335.5 714,-335.5 714,-354.5"/>
<text text-anchor="middle" x="690" y="-342.5" font-family="Helvetica,sans-Serif" font-size="10.00">thread</text>
</a>
</g>
</g>
<!-- Node1&#45;&gt;Node6 -->
<g id="edge5_Node000001_Node000006" class="edge">
<title>Node1&#45;&gt;Node6</title>
<g id="a_edge5_Node000001_Node000006"><a xlink:title=" ">
<path fill="none" stroke="#63b8ff" d="M1200.46,-405.27C1113.75,-406.13 897.3,-403.33 723,-360 721.05,-359.52 719.07,-358.93 717.1,-358.28"/>
<polygon fill="#63b8ff" stroke="#63b8ff" points="718.05,-354.9 707.46,-354.61 715.56,-361.44 718.05,-354.9"/>
</a>
</g>
</g>
<!-- Node7 -->
<g id="Node000007" class="node">
<title>Node7</title>
<g id="a_Node000007"><a xlink:title=" ">
<polygon fill="#e0e0e0" stroke="#999999" points="852,-360 732,-360 732,-330 852,-330 852,-360"/>
<text text-anchor="start" x="740" y="-348" font-family="Helvetica,sans-Serif" font-size="10.00">backends/imgui_impl</text>
<text text-anchor="middle" x="792" y="-337" font-family="Helvetica,sans-Serif" font-size="10.00">_glfw.h</text>
</a>
</g>
</g>
<!-- Node1&#45;&gt;Node7 -->
<g id="edge6_Node000001_Node000007" class="edge">
<title>Node1&#45;&gt;Node7</title>
<g id="a_edge6_Node000001_Node000007"><a xlink:title=" ">
<path fill="none" stroke="#63b8ff" d="M1200.49,-401.03C1133.71,-394.79 991.92,-380.51 862.26,-360.12"/>
<polygon fill="#63b8ff" stroke="#63b8ff" points="862.58,-356.62 852.16,-358.51 861.48,-363.54 862.58,-356.62"/>
</a>
</g>
</g>
<!-- Node8 -->
<g id="Node000008" class="node">
<title>Node8</title>
<g id="a_Node000008"><a xlink:title=" ">
<polygon fill="#e0e0e0" stroke="#999999" points="990,-360 870,-360 870,-330 990,-330 990,-360"/>
<text text-anchor="start" x="878" y="-348" font-family="Helvetica,sans-Serif" font-size="10.00">backends/imgui_impl</text>
<text text-anchor="middle" x="930" y="-337" font-family="Helvetica,sans-Serif" font-size="10.00">_opengl3.h</text>
</a>
</g>
</g>
<!-- Node1&#45;&gt;Node8 -->
<g id="edge7_Node000001_Node000008" class="edge">
<title>Node1&#45;&gt;Node8</title>
<g id="a_edge7_Node000001_Node000008"><a xlink:title=" ">
<path fill="none" stroke="#63b8ff" d="M1200.47,-397.49C1155.15,-389.21 1077.37,-374.88 1000.21,-360.03"/>
<polygon fill="#63b8ff" stroke="#63b8ff" points="1000.8,-356.57 990.32,-358.12 999.48,-363.45 1000.8,-356.57"/>
</a>
</g>
</g>
<!-- Node9 -->
<g id="Node000009" class="node">
<title>Node9</title>
<g id="a_Node000009"><a xlink:title=" ">
<polygon fill="#e0e0e0" stroke="#999999" points="1079.5,-354.5 1008.5,-354.5 1008.5,-335.5 1079.5,-335.5 1079.5,-354.5"/>
<text text-anchor="middle" x="1044" y="-342.5" font-family="Helvetica,sans-Serif" font-size="10.00">glad/glad.h</text>
</a>
</g>
</g>
<!-- Node1&#45;&gt;Node9 -->
<g id="edge8_Node000001_Node000009" class="edge">
<title>Node1&#45;&gt;Node9</title>
<g id="a_edge8_Node000001_Node000009"><a xlink:title=" ">
<path fill="none" stroke="#63b8ff" d="M1209.93,-396C1179.69,-387.13 1130.97,-372.75 1089,-360 1086.45,-359.22 1083.81,-358.42 1081.16,-357.6"/>
<polygon fill="#63b8ff" stroke="#63b8ff" points="1082.18,-354.25 1071.59,-354.65 1080.11,-360.94 1082.18,-354.25"/>
</a>
</g>
</g>
<!-- Node10 -->
<g id="Node000010" class="node">
<title>Node10</title>
<g id="a_Node000010"><a xlink:title=" ">
<polygon fill="#e0e0e0" stroke="#999999" points="1194,-354.5 1098,-354.5 1098,-335.5 1194,-335.5 1194,-354.5"/>
<text text-anchor="middle" x="1146" y="-342.5" font-family="Helvetica,sans-Serif" font-size="10.00">imgui_internal.h</text>
</a>
</g>
</g>
<!-- Node1&#45;&gt;Node10 -->
<g id="edge9_Node000001_Node000010" class="edge">
<title>Node1&#45;&gt;Node10</title>
<g id="a_edge9_Node000001_Node000010"><a xlink:title=" ">
<path fill="none" stroke="#63b8ff" d="M1225.28,-395.87C1210.3,-386.45 1186.11,-371.23 1168.38,-360.08"/>
<polygon fill="#63b8ff" stroke="#63b8ff" points="1170.11,-357.03 1159.78,-354.67 1166.38,-362.95 1170.11,-357.03"/>
</a>
</g>
</g>
<!-- Node11 -->
<g id="Node000011" class="node">
<title>Node11</title>
<g id="a_Node000011"><a xlink:title=" ">
<polygon fill="#e0e0e0" stroke="#999999" points="1265.5,-354.5 1212.5,-354.5 1212.5,-335.5 1265.5,-335.5 1265.5,-354.5"/>
<text text-anchor="middle" x="1239" y="-342.5" font-family="Helvetica,sans-Serif" font-size="10.00">imgui.h</text>
</a>
</g>
</g>
<!-- Node1&#45;&gt;Node11 -->
<g id="edge10_Node000001_Node000011" class="edge">
<title>Node1&#45;&gt;Node11</title>
<g id="a_edge10_Node000001_Node000011"><a xlink:title=" ">
<path fill="none" stroke="#63b8ff" d="M1239,-395.87C1239,-387.75 1239,-375.31 1239,-364.89"/>
<polygon fill="#63b8ff" stroke="#63b8ff" points="1242.5,-364.67 1239,-354.67 1235.5,-364.67 1242.5,-364.67"/>
</a>
</g>
</g>
<!-- Node12 -->
<g id="Node000012" class="node">
<title>Node12</title>
<g id="a_Node000012"><a xlink:href="_image_8hpp.html" target="_top" xlink:title=" ">
<polygon fill="white" stroke="#666666" points="1424.5,-354.5 1283.5,-354.5 1283.5,-335.5 1424.5,-335.5 1424.5,-354.5"/>
<text text-anchor="middle" x="1354" y="-342.5" font-family="Helvetica,sans-Serif" font-size="10.00">AssetManager/Image.hpp</text>
</a>
</g>
</g>
<!-- Node1&#45;&gt;Node12 -->
<g id="edge11_Node000001_Node000012" class="edge">
<title>Node1&#45;&gt;Node12</title>
<g id="a_edge11_Node000001_Node000012"><a xlink:title=" ">
<path fill="none" stroke="#63b8ff" d="M1255.97,-395.87C1274.91,-386.23 1305.79,-370.53 1327.83,-359.31"/>
<polygon fill="#63b8ff" stroke="#63b8ff" points="1329.64,-362.32 1336.96,-354.67 1326.46,-356.08 1329.64,-362.32"/>
</a>
</g>
</g>
<!-- Node14 -->
<g id="Node000014" class="node">
<title>Node14</title>
<g id="a_Node000014"><a xlink:href="_input_manager_8hpp.html" target="_top" xlink:title=" ">
<polygon fill="white" stroke="#666666" points="647.5,-354.5 472.5,-354.5 472.5,-335.5 647.5,-335.5 647.5,-354.5"/>
<text text-anchor="middle" x="560" y="-342.5" font-family="Helvetica,sans-Serif" font-size="10.00">InputManager/InputManager.hpp</text>
</a>
</g>
</g>
<!-- Node1&#45;&gt;Node14 -->
<g id="edge13_Node000001_Node000014" class="edge">
<title>Node1&#45;&gt;Node14</title>
<g id="a_edge13_Node000001_Node000014"><a xlink:title=" ">
<path fill="none" stroke="#63b8ff" d="M1200.44,-402.45C1107.02,-397.28 861.22,-382.52 657,-360 646.55,-358.85 635.5,-357.44 624.75,-355.96"/>
<polygon fill="#63b8ff" stroke="#63b8ff" points="624.94,-352.45 614.55,-354.53 623.97,-359.38 624.94,-352.45"/>
</a>
</g>
</g>
<!-- Node46 -->
<g id="Node000046" class="node">
<title>Node46</title>
<g id="a_Node000046"><a xlink:title=" ">
<polygon fill="#e0e0e0" stroke="#999999" points="1565.5,-354.5 1442.5,-354.5 1442.5,-335.5 1565.5,-335.5 1565.5,-354.5"/>
<text text-anchor="middle" x="1504" y="-342.5" font-family="Helvetica,sans-Serif" font-size="10.00">UI/Common/Style.hpp</text>
</a>
</g>
</g>
<!-- Node1&#45;&gt;Node46 -->
<g id="edge62_Node000001_Node000046" class="edge">
<title>Node1&#45;&gt;Node46</title>
<g id="a_edge62_Node000001_Node000046"><a xlink:title=" ">
<path fill="none" stroke="#63b8ff" d="M1277.53,-395.99C1324.64,-385.6 1404.38,-367.99 1455.58,-356.69"/>
<polygon fill="#63b8ff" stroke="#63b8ff" points="1456.41,-360.09 1465.42,-354.52 1454.9,-353.25 1456.41,-360.09"/>
</a>
</g>
</g>
<!-- Node47 -->
<g id="Node000047" class="node">
<title>Node47</title>
<g id="a_Node000047"><a xlink:title=" ">
<polygon fill="#e0e0e0" stroke="#999999" points="1646,-354.5 1584,-354.5 1584,-335.5 1646,-335.5 1646,-354.5"/>
<text text-anchor="middle" x="1615" y="-342.5" font-family="Helvetica,sans-Serif" font-size="10.00">UI/UI.hpp</text>
</a>
</g>
</g>
<!-- Node1&#45;&gt;Node47 -->
<g id="edge63_Node000001_Node000047" class="edge">
<title>Node1&#45;&gt;Node47</title>
<g id="a_edge63_Node000001_Node000047"><a xlink:title=" ">
<path fill="none" stroke="#63b8ff" d="M1277.51,-401.98C1340.45,-397.28 1468.97,-385.29 1575,-360 1577.82,-359.33 1580.72,-358.53 1583.6,-357.66"/>
<polygon fill="#63b8ff" stroke="#63b8ff" points="1584.81,-360.95 1593.23,-354.53 1582.64,-354.3 1584.81,-360.95"/>
</a>
</g>
</g>
<!-- Node48 -->
<g id="Node000048" class="node">
<title>Node48</title>
<g id="a_Node000048"><a xlink:title=" ">
<polygon fill="#e0e0e0" stroke="#999999" points="1831.5,-354.5 1664.5,-354.5 1664.5,-335.5 1831.5,-335.5 1831.5,-354.5"/>
<text text-anchor="middle" x="1748" y="-342.5" font-family="Helvetica,sans-Serif" font-size="10.00">UI/Widgets/ConsoleWidget.hpp</text>
</a>
</g>
</g>
<!-- Node1&#45;&gt;Node48 -->
<g id="edge64_Node000001_Node000048" class="edge">
<title>Node1&#45;&gt;Node48</title>
<g id="a_edge64_Node000001_Node000048"><a xlink:title=" ">
<path fill="none" stroke="#63b8ff" d="M1277.78,-400.91C1351.41,-393.97 1516.5,-377.82 1655,-360 1664.37,-358.79 1674.27,-357.42 1683.96,-356.01"/>
<polygon fill="#63b8ff" stroke="#63b8ff" points="1684.58,-359.46 1693.96,-354.54 1683.56,-352.53 1684.58,-359.46"/>
</a>
</g>
</g>
<!-- Node49 -->
<g id="Node000049" class="node">
<title>Node49</title>
<g id="a_Node000049"><a xlink:title=" ">
<polygon fill="#e0e0e0" stroke="#999999" points="2032,-354.5 1850,-354.5 1850,-335.5 2032,-335.5 2032,-354.5"/>
<text text-anchor="middle" x="1941" y="-342.5" font-family="Helvetica,sans-Serif" font-size="10.00">UI/Widgets/FilesystemWidget.hpp</text>
</a>
</g>
</g>
<!-- Node1&#45;&gt;Node49 -->
<g id="edge65_Node000001_Node000049" class="edge">
<title>Node1&#45;&gt;Node49</title>
<g id="a_edge65_Node000001_Node000049"><a xlink:title=" ">
<path fill="none" stroke="#63b8ff" d="M1277.81,-402.51C1373.62,-397.41 1628.94,-382.66 1841,-360 1851.88,-358.84 1863.39,-357.41 1874.59,-355.92"/>
<polygon fill="#63b8ff" stroke="#63b8ff" points="1875.32,-359.35 1884.75,-354.53 1874.37,-352.41 1875.32,-359.35"/>
</a>
</g>
</g>
<!-- Node50 -->
<g id="Node000050" class="node">
<title>Node50</title>
<g id="a_Node000050"><a xlink:title=" ">
<polygon fill="#e0e0e0" stroke="#999999" points="2223.5,-354.5 2050.5,-354.5 2050.5,-335.5 2223.5,-335.5 2223.5,-354.5"/>
<text text-anchor="middle" x="2137" y="-342.5" font-family="Helvetica,sans-Serif" font-size="10.00">UI/Widgets/InspectorWidget.hpp</text>
</a>
</g>
</g>
<!-- Node1&#45;&gt;Node50 -->
<g id="edge66_Node000001_Node000050" class="edge">
<title>Node1&#45;&gt;Node50</title>
<g id="a_edge66_Node000001_Node000050"><a xlink:title=" ">
<path fill="none" stroke="#63b8ff" d="M1277.9,-403.57C1394.09,-400.54 1748.58,-389.38 2041,-360 2051.78,-358.92 2063.2,-357.5 2074.26,-355.97"/>
<polygon fill="#63b8ff" stroke="#63b8ff" points="2074.88,-359.42 2084.29,-354.55 2073.9,-352.49 2074.88,-359.42"/>
</a>
</g>
</g>
<!-- Node51 -->
<g id="Node000051" class="node">
<title>Node51</title>
<g id="a_Node000051"><a xlink:title=" ">
<polygon fill="#e0e0e0" stroke="#999999" points="2406.5,-354.5 2241.5,-354.5 2241.5,-335.5 2406.5,-335.5 2406.5,-354.5"/>
<text text-anchor="middle" x="2324" y="-342.5" font-family="Helvetica,sans-Serif" font-size="10.00">UI/Widgets/ObjectsWidget.hpp</text>
</a>
</g>
</g>
<!-- Node1&#45;&gt;Node51 -->
<g id="edge67_Node000001_Node000051" class="edge">
<title>Node1&#45;&gt;Node51</title>
<g id="a_edge67_Node000001_Node000051"><a xlink:title=" ">
<path fill="none" stroke="#63b8ff" d="M1277.95,-404.27C1411.42,-403.14 1862.55,-396.68 2233,-360 2243.37,-358.97 2254.35,-357.56 2264.97,-356.03"/>
<polygon fill="#63b8ff" stroke="#63b8ff" points="2265.63,-359.47 2275.01,-354.53 2264.6,-352.55 2265.63,-359.47"/>
</a>
</g>
</g>
<!-- Node52 -->
<g id="Node000052" class="node">
<title>Node52</title>
<g id="a_Node000052"><a xlink:title=" ">
<polygon fill="#e0e0e0" stroke="#999999" points="2587.5,-354.5 2424.5,-354.5 2424.5,-335.5 2587.5,-335.5 2587.5,-354.5"/>
<text text-anchor="middle" x="2506" y="-342.5" font-family="Helvetica,sans-Serif" font-size="10.00">UI/Widgets/ProfilerWidget.hpp</text>
</a>
</g>
</g>
<!-- Node1&#45;&gt;Node52 -->
<g id="edge68_Node000001_Node000052" class="edge">
<title>Node1&#45;&gt;Node52</title>
<g id="a_edge68_Node000001_Node000052"><a xlink:title=" ">
<path fill="none" stroke="#63b8ff" d="M1277.72,-404.67C1425.79,-404.98 1970.24,-402.95 2416,-360 2426.38,-359 2437.38,-357.59 2447.99,-356.04"/>
<polygon fill="#63b8ff" stroke="#63b8ff" points="2448.66,-359.48 2458.02,-354.52 2447.61,-352.56 2448.66,-359.48"/>
</a>
</g>
</g>
<!-- Node53 -->
<g id="Node000053" class="node">
<title>Node53</title>
<g id="a_Node000053"><a xlink:title=" ">
<polygon fill="#e0e0e0" stroke="#999999" points="2784,-354.5 2606,-354.5 2606,-335.5 2784,-335.5 2784,-354.5"/>
<text text-anchor="middle" x="2695" y="-342.5" font-family="Helvetica,sans-Serif" font-size="10.00">UI/Widgets/PropertiesWidget.hpp</text>
</a>
</g>
</g>
<!-- Node1&#45;&gt;Node53 -->
<g id="edge69_Node000001_Node000053" class="edge">
<title>Node1&#45;&gt;Node53</title>
<g id="a_edge69_Node000001_Node000053"><a xlink:title=" ">
<path fill="none" stroke="#63b8ff" d="M1277.71,-404.77C1439.35,-405.6 2076.2,-405.6 2597,-360 2608.59,-358.99 2620.9,-357.53 2632.74,-355.94"/>
<polygon fill="#63b8ff" stroke="#63b8ff" points="2633.57,-359.35 2642.99,-354.51 2632.6,-352.42 2633.57,-359.35"/>
</a>
</g>
</g>
<!-- Node54 -->
<g id="Node000054" class="node">
<title>Node54</title>
<g id="a_Node000054"><a xlink:title=" ">
<polygon fill="#e0e0e0" stroke="#999999" points="2960,-354.5 2802,-354.5 2802,-335.5 2960,-335.5 2960,-354.5"/>
<text text-anchor="middle" x="2881" y="-342.5" font-family="Helvetica,sans-Serif" font-size="10.00">UI/Widgets/SceneWidget.hpp</text>
</a>
</g>
</g>
<!-- Node1&#45;&gt;Node54 -->
<g id="edge70_Node000001_Node000054" class="edge">
<title>Node1&#45;&gt;Node54</title>
<g id="a_edge70_Node000001_Node000054"><a xlink:title=" ">
<path fill="none" stroke="#63b8ff" d="M1277.63,-404.07C1486.79,-401.65 2485.64,-388.73 2793,-360 2803.27,-359.04 2814.16,-357.63 2824.66,-356.07"/>
<polygon fill="#63b8ff" stroke="#63b8ff" points="2825.21,-359.53 2834.56,-354.54 2824.14,-352.61 2825.21,-359.53"/>
</a>
</g>
</g>
<!-- Node13 -->
<g id="Node000013" class="node">
<title>Node13</title>
<g id="a_Node000013"><a xlink:title=" ">
<polygon fill="#e0e0e0" stroke="#999999" points="2061,-294 1993,-294 1993,-275 2061,-275 2061,-294"/>
<text text-anchor="middle" x="2027" y="-282" font-family="Helvetica,sans-Serif" font-size="10.00">filesystem</text>
</a>
</g>
</g>
<!-- Node12&#45;&gt;Node13 -->
<g id="edge12_Node000012_Node000013" class="edge">
<title>Node12&#45;&gt;Node13</title>
<g id="a_edge12_Node000012_Node000013"><a xlink:title=" ">
<path fill="none" stroke="#63b8ff" d="M1397.89,-335.45C1409.59,-333.41 1422.24,-331.41 1434,-330 1675.02,-301.04 1738.01,-323.21 1979,-294 1980.28,-293.85 1981.57,-293.68 1982.87,-293.5"/>
<polygon fill="#63b8ff" stroke="#63b8ff" points="1983.61,-296.93 1992.98,-292 1982.57,-290.01 1983.61,-296.93"/>
</a>
</g>
</g>
<!-- Node15 -->
<g id="Node000015" class="node">
<title>Node15</title>
<g id="a_Node000015"><a xlink:title=" ">
<polygon fill="#e0e0e0" stroke="#999999" points="1980.5,-74 1915.5,-74 1915.5,-55 1980.5,-55 1980.5,-74"/>
<text text-anchor="middle" x="1948" y="-62" font-family="Helvetica,sans-Serif" font-size="10.00">functional</text>
</a>
</g>
</g>
<!-- Node14&#45;&gt;Node15 -->
<g id="edge14_Node000014_Node000015" class="edge">
<title>Node14&#45;&gt;Node15</title>
<g id="a_edge14_Node000014_Node000015"><a xlink:title=" ">
<path fill="none" stroke="#63b8ff" d="M612.24,-335.48C626.7,-333.39 642.43,-331.36 657,-330 1029.94,-295.2 1125.92,-327.32 1499,-294 1603.1,-284.7 1965,-335.01 1965,-230.5 1965,-230.5 1965,-230.5 1965,-173.5 1965,-141.8 1957.77,-105.51 1952.74,-84.09"/>
<polygon fill="#63b8ff" stroke="#63b8ff" points="1956.07,-82.99 1950.29,-74.11 1949.27,-84.65 1956.07,-82.99"/>
</a>
</g>
</g>
<!-- Node16 -->
<g id="Node000016" class="node">
<title>Node16</title>
<g id="a_Node000016"><a xlink:title=" ">
<polygon fill="#e0e0e0" stroke="#999999" points="954.5,-294 871.5,-294 871.5,-275 954.5,-275 954.5,-294"/>
<text text-anchor="middle" x="913" y="-282" font-family="Helvetica,sans-Serif" font-size="10.00">GLFW/glfw3.h</text>
</a>
</g>
</g>
<!-- Node14&#45;&gt;Node16 -->
<g id="edge15_Node000014_Node000016" class="edge">
<title>Node14&#45;&gt;Node16</title>
<g id="a_edge15_Node000014_Node000016"><a xlink:title=" ">
<path fill="none" stroke="#63b8ff" d="M612.02,-335.49C670.32,-325.94 767.96,-309.9 861.36,-294.27"/>
<polygon fill="#63b8ff" stroke="#63b8ff" points="861.98,-297.71 871.26,-292.61 860.82,-290.81 861.98,-297.71"/>
</a>
</g>
</g>
<!-- Node17 -->
<g id="Node000017" class="node">
<title>Node17</title>
<g id="a_Node000017"><a xlink:title=" ">
<polygon fill="#e0e0e0" stroke="#999999" points="1229,-129 1151,-129 1151,-110 1229,-110 1229,-129"/>
<text text-anchor="middle" x="1190" y="-117" font-family="Helvetica,sans-Serif" font-size="10.00">glm/glm.hpp</text>
</a>
</g>
</g>
<!-- Node14&#45;&gt;Node17 -->
<g id="edge16_Node000014_Node000017" class="edge">
<title>Node14&#45;&gt;Node17</title>
<g id="a_edge16_Node000014_Node000017"><a xlink:title=" ">
<path fill="none" stroke="#63b8ff" d="M472.49,-338.19C312.09,-324.58 -2.65,-282.39 110,-165 146.1,-127.38 933.6,-121.54 1140.55,-120.65"/>
<polygon fill="#63b8ff" stroke="#63b8ff" points="1140.82,-124.15 1150.81,-120.61 1140.79,-117.15 1140.82,-124.15"/>
</a>
</g>
</g>
<!-- Node18 -->
<g id="Node000018" class="node">
<title>Node18</title>
<g id="a_Node000018"><a xlink:href="_assert_8hpp.html" target="_top" xlink:title=" ">
<polygon fill="white" stroke="#666666" points="366,-294 250,-294 250,-275 366,-275 366,-294"/>
<text text-anchor="middle" x="308" y="-282" font-family="Helvetica,sans-Serif" font-size="10.00">Common/Assert.hpp</text>
</a>
</g>
</g>
<!-- Node14&#45;&gt;Node18 -->
<g id="edge17_Node000014_Node000018" class="edge">
<title>Node14&#45;&gt;Node18</title>
<g id="a_edge17_Node000014_Node000018"><a xlink:title=" ">
<path fill="none" stroke="#63b8ff" d="M523.36,-335.49C478.75,-325.14 403.37,-307.64 354.66,-296.33"/>
<polygon fill="#63b8ff" stroke="#63b8ff" points="355.22,-292.87 344.69,-294.02 353.64,-299.69 355.22,-292.87"/>
</a>
</g>
</g>
<!-- Node21 -->
<g id="Node000021" class="node">
<title>Node21</title>
<g id="a_Node000021"><a xlink:href="_logger_8hpp.html" target="_top" xlink:title=" ">
<polygon fill="white" stroke="#666666" points="1364.5,-129 1247.5,-129 1247.5,-110 1364.5,-110 1364.5,-129"/>
<text text-anchor="middle" x="1306" y="-117" font-family="Helvetica,sans-Serif" font-size="10.00">Common/Logger.hpp</text>
</a>
</g>
</g>
<!-- Node14&#45;&gt;Node21 -->
<g id="edge21_Node000014_Node000021" class="edge">
<title>Node14&#45;&gt;Node21</title>
<g id="a_edge21_Node000014_Node000021"><a xlink:title=" ">
<path fill="none" stroke="#63b8ff" d="M617.16,-335.49C630.24,-333.62 644.09,-331.69 657,-330 818.44,-308.89 1245.57,-324.71 1384,-239 1415.26,-219.64 1441.79,-195.33 1421,-165 1410.02,-148.98 1392.39,-138.73 1374.2,-132.17"/>
<polygon fill="#63b8ff" stroke="#63b8ff" points="1375.26,-128.83 1364.66,-129.06 1373.09,-135.49 1375.26,-128.83"/>
</a>
</g>
</g>
<!-- Node24 -->
<g id="Node000024" class="node">
<title>Node24</title>
<g id="a_Node000024"><a xlink:href="_box_collider_component_8hpp.html" target="_top" xlink:title=" ">
<polygon fill="white" stroke="#666666" points="599.5,-294 384.5,-294 384.5,-275 599.5,-275 599.5,-294"/>
<text text-anchor="middle" x="492" y="-282" font-family="Helvetica,sans-Serif" font-size="10.00">Components/BoxColliderComponent.hpp</text>
</a>
</g>
</g>
<!-- Node14&#45;&gt;Node24 -->
<g id="edge24_Node000014_Node000024" class="edge">
<title>Node14&#45;&gt;Node24</title>
<g id="a_edge24_Node000014_Node000024"><a xlink:title=" ">
<path fill="none" stroke="#63b8ff" d="M549.97,-335.37C539.42,-326.3 522.61,-311.84 509.81,-300.82"/>
<polygon fill="#63b8ff" stroke="#63b8ff" points="511.94,-298.04 502.07,-294.17 507.37,-303.34 511.94,-298.04"/>
</a>
</g>
</g>
<!-- Node27 -->
<g id="Node000027" class="node">
<title>Node27</title>
<g id="a_Node000027"><a xlink:href="_transform_component_8hpp.html" target="_top" xlink:title=" ">
<polygon fill="white" stroke="#666666" points="731.5,-239 524.5,-239 524.5,-220 731.5,-220 731.5,-239"/>
<text text-anchor="middle" x="628" y="-227" font-family="Helvetica,sans-Serif" font-size="10.00">Components/TransformComponent.hpp</text>
</a>
</g>
</g>
<!-- Node14&#45;&gt;Node27 -->
<g id="edge60_Node000014_Node000027" class="edge">
<title>Node14&#45;&gt;Node27</title>
<g id="a_edge60_Node000014_Node000027"><a xlink:title=" ">
<path fill="none" stroke="#63b8ff" d="M571.05,-335.17C581.89,-325.95 598.18,-310.56 608,-294 616.29,-280.02 621.51,-262.24 624.52,-249.05"/>
<polygon fill="#63b8ff" stroke="#63b8ff" points="627.96,-249.74 626.56,-239.23 621.1,-248.31 627.96,-249.74"/>
</a>
</g>
</g>
<!-- Node33 -->
<g id="Node000033" class="node">
<title>Node33</title>
<g id="a_Node000033"><a xlink:href="_registry_8hpp.html" target="_top" xlink:title=" ">
<polygon fill="white" stroke="#666666" points="1587,-184 1489,-184 1489,-165 1587,-165 1587,-184"/>
<text text-anchor="middle" x="1538" y="-172" font-family="Helvetica,sans-Serif" font-size="10.00">ECS/Registry.hpp</text>
</a>
</g>
</g>
<!-- Node14&#45;&gt;Node33 -->
<g id="edge61_Node000014_Node000033" class="edge">
<title>Node14&#45;&gt;Node33</title>
<g id="a_edge61_Node000014_Node000033"><a xlink:title=" ">
<path fill="none" stroke="#63b8ff" d="M612.24,-335.49C626.7,-333.4 642.43,-331.37 657,-330 747.58,-321.49 1398.07,-342.56 1475,-294 1510.85,-271.37 1527.56,-221.06 1534.23,-193.84"/>
<polygon fill="#63b8ff" stroke="#63b8ff" points="1537.66,-194.56 1536.44,-184.03 1530.83,-193.02 1537.66,-194.56"/>
</a>
</g>
</g>
<!-- Node45 -->
<g id="Node000045" class="node">
<title>Node45</title>
<g id="a_Node000045"><a xlink:href="_camera_component_8hpp.html" target="_top" xlink:title=" ">
<polygon fill="white" stroke="#666666" points="853.5,-294 656.5,-294 656.5,-275 853.5,-275 853.5,-294"/>
<text text-anchor="middle" x="755" y="-282" font-family="Helvetica,sans-Serif" font-size="10.00">Components/CameraComponent.hpp</text>
</a>
</g>
</g>
<!-- Node14&#45;&gt;Node45 -->
<g id="edge56_Node000014_Node000045" class="edge">
<title>Node14&#45;&gt;Node45</title>
<g id="a_edge56_Node000014_Node000045"><a xlink:title=" ">
<path fill="none" stroke="#63b8ff" d="M588.35,-335.49C622.29,-325.31 679.26,-308.22 716.99,-296.9"/>
<polygon fill="#63b8ff" stroke="#63b8ff" points="718.04,-300.24 726.61,-294.02 716.03,-293.54 718.04,-300.24"/>
</a>
</g>
</g>
<!-- Node18&#45;&gt;Node4 -->
<g id="edge20_Node000018_Node000004" class="edge">
<title>Node18&#45;&gt;Node4</title>
<g id="a_edge20_Node000018_Node000004"><a xlink:title=" ">
<path fill="none" stroke="#63b8ff" d="M295.26,-274.84C268.04,-256.36 204,-212.86 170.41,-190.05"/>
<polygon fill="#63b8ff" stroke="#63b8ff" points="172.04,-186.92 161.8,-184.2 168.11,-192.71 172.04,-186.92"/>
</a>
</g>
</g>
<!-- Node19 -->
<g id="Node000019" class="node">
<title>Node19</title>
<g id="a_Node000019"><a xlink:title=" ">
<polygon fill="#e0e0e0" stroke="#999999" points="329.5,-239 262.5,-239 262.5,-220 329.5,-220 329.5,-239"/>
<text text-anchor="middle" x="296" y="-227" font-family="Helvetica,sans-Serif" font-size="10.00">fmt/core.h</text>
</a>
</g>
</g>
<!-- Node18&#45;&gt;Node19 -->
<g id="edge18_Node000018_Node000019" class="edge">
<title>Node18&#45;&gt;Node19</title>
<g id="a_edge18_Node000018_Node000019"><a xlink:title=" ">
<path fill="none" stroke="#63b8ff" d="M306.02,-274.75C304.43,-267.72 302.14,-257.62 300.15,-248.84"/>
<polygon fill="#63b8ff" stroke="#63b8ff" points="303.57,-248.07 297.94,-239.09 296.74,-249.62 303.57,-248.07"/>
</a>
</g>
</g>
<!-- Node20 -->
<g id="Node000020" class="node">
<title>Node20</title>
<g id="a_Node000020"><a xlink:title=" ">
<polygon fill="#e0e0e0" stroke="#999999" points="412.5,-239 347.5,-239 347.5,-220 412.5,-220 412.5,-239"/>
<text text-anchor="middle" x="380" y="-227" font-family="Helvetica,sans-Serif" font-size="10.00">exception</text>
</a>
</g>
</g>
<!-- Node18&#45;&gt;Node20 -->
<g id="edge19_Node000018_Node000020" class="edge">
<title>Node18&#45;&gt;Node20</title>
<g id="a_edge19_Node000018_Node000020"><a xlink:title=" ">
<path fill="none" stroke="#63b8ff" d="M319.57,-274.98C330.42,-267 346.88,-254.88 359.88,-245.31"/>
<polygon fill="#63b8ff" stroke="#63b8ff" points="362.24,-247.92 368.22,-239.17 358.09,-242.28 362.24,-247.92"/>
</a>
</g>
</g>
<!-- Node22 -->
<g id="Node000022" class="node">
<title>Node22</title>
<g id="a_Node000022"><a xlink:title=" ">
<polygon fill="#e0e0e0" stroke="#999999" points="1382,-74 1334,-74 1334,-55 1382,-55 1382,-74"/>
<text text-anchor="middle" x="1358" y="-62" font-family="Helvetica,sans-Serif" font-size="10.00">mutex</text>
</a>
</g>
</g>
<!-- Node21&#45;&gt;Node22 -->
<g id="edge22_Node000021_Node000022" class="edge">
<title>Node21&#45;&gt;Node22</title>
<g id="a_edge22_Node000021_Node000022"><a xlink:title=" ">
<path fill="none" stroke="#63b8ff" d="M1314.59,-109.75C1322.16,-102.03 1333.38,-90.6 1342.51,-81.28"/>
<polygon fill="#63b8ff" stroke="#63b8ff" points="1345.07,-83.68 1349.57,-74.09 1340.07,-78.78 1345.07,-83.68"/>
</a>
</g>
</g>
<!-- Node23 -->
<g id="Node000023" class="node">
<title>Node23</title>
<g id="a_Node000023"><a xlink:title=" ">
<polygon fill="#e0e0e0" stroke="#999999" points="1409.5,-19 1362.5,-19 1362.5,0 1409.5,0 1409.5,-19"/>
<text text-anchor="middle" x="1386" y="-7" font-family="Helvetica,sans-Serif" font-size="10.00">queue</text>
</a>
</g>
</g>
<!-- Node21&#45;&gt;Node23 -->
<g id="edge23_Node000021_Node000023" class="edge">
<title>Node21&#45;&gt;Node23</title>
<g id="a_edge23_Node000021_Node000023"><a xlink:title=" ">
<path fill="none" stroke="#63b8ff" d="M1306.81,-109.94C1308.4,-96.98 1312.91,-72.1 1325,-55 1333.93,-42.38 1347.58,-31.94 1359.7,-24.36"/>
<polygon fill="#63b8ff" stroke="#63b8ff" points="1361.74,-27.22 1368.57,-19.12 1358.18,-21.19 1361.74,-27.22"/>
</a>
</g>
</g>
<!-- Node24&#45;&gt;Node5 -->
<g id="edge25_Node000024_Node000005" class="edge">
<title>Node24&#45;&gt;Node5</title>
<g id="a_edge25_Node000024_Node000005"><a xlink:title=" ">
<path fill="none" stroke="#63b8ff" d="M485.13,-274.97C473.49,-261.12 448.44,-233.89 421,-220 354.55,-186.36 327.71,-200.94 251.38,-184.13"/>
<polygon fill="#63b8ff" stroke="#63b8ff" points="251.84,-180.64 241.31,-181.79 250.26,-187.46 251.84,-180.64"/>
</a>
</g>
</g>
<!-- Node25 -->
<g id="Node000025" class="node">
<title>Node25</title>
<g id="a_Node000025"><a xlink:href="_base_component_8hpp.html" target="_top" xlink:title=" ">
<polygon fill="#fff0f0" stroke="red" points="441,-184 259,-184 259,-165 441,-165 441,-184"/>
<text text-anchor="middle" x="350" y="-172" font-family="Helvetica,sans-Serif" font-size="10.00">Components/BaseComponent.hpp</text>
</a>
</g>
</g>
<!-- Node24&#45;&gt;Node25 -->
<g id="edge26_Node000024_Node000025" class="edge">
<title>Node24&#45;&gt;Node25</title>
<g id="a_edge26_Node000024_Node000025"><a xlink:title=" ">
<path fill="none" stroke="#63b8ff" d="M489.95,-274.9C486.31,-261.45 477.53,-235.37 461,-220 444.07,-204.26 420.86,-193.79 400.04,-186.99"/>
<polygon fill="#63b8ff" stroke="#63b8ff" points="400.95,-183.61 390.37,-184.03 398.9,-190.3 400.95,-183.61"/>
</a>
</g>
</g>
<!-- Node24&#45;&gt;Node27 -->
<g id="edge27_Node000024_Node000027" class="edge">
<title>Node24&#45;&gt;Node27</title>
<g id="a_edge27_Node000024_Node000027"><a xlink:title=" ">
<path fill="none" stroke="#63b8ff" d="M513.85,-274.98C536.12,-266.3 570.9,-252.75 596.22,-242.88"/>
<polygon fill="#63b8ff" stroke="#63b8ff" points="597.71,-246.06 605.75,-239.17 595.16,-239.54 597.71,-246.06"/>
</a>
</g>
</g>
<!-- Node43 -->
<g id="Node000043" class="node">
<title>Node43</title>
<g id="a_Node000043"><a xlink:href="_a_a_b_b_8hpp.html" target="_top" xlink:title=" ">
<polygon fill="white" stroke="#666666" points="1325,-239 1233,-239 1233,-220 1325,-220 1325,-239"/>
<text text-anchor="middle" x="1279" y="-227" font-family="Helvetica,sans-Serif" font-size="10.00">Math/AABB.hpp</text>
</a>
</g>
</g>
<!-- Node24&#45;&gt;Node43 -->
<g id="edge52_Node000024_Node000043" class="edge">
<title>Node24&#45;&gt;Node43</title>
<g id="a_edge52_Node000024_Node000043"><a xlink:title=" ">
<path fill="none" stroke="#63b8ff" d="M599.78,-276.24C769.26,-264.83 1092.17,-243.08 1222.43,-234.31"/>
<polygon fill="#63b8ff" stroke="#63b8ff" points="1222.84,-237.79 1232.58,-233.63 1222.37,-230.81 1222.84,-237.79"/>
</a>
</g>
</g>
<!-- Node27&#45;&gt;Node4 -->
<g id="edge29_Node000027_Node000004" class="edge">
<title>Node27&#45;&gt;Node4</title>
<g id="a_edge29_Node000027_Node000004"><a xlink:title=" ">
<path fill="none" stroke="#63b8ff" d="M524.44,-221.37C437.45,-214.61 309.71,-202.87 189.31,-184.04"/>
<polygon fill="#63b8ff" stroke="#63b8ff" points="189.59,-180.54 179.17,-182.43 188.5,-187.45 189.59,-180.54"/>
</a>
</g>
</g>
<!-- Node27&#45;&gt;Node5 -->
<g id="edge28_Node000027_Node000005" class="edge">
<title>Node27&#45;&gt;Node5</title>
<g id="a_edge28_Node000027_Node000005"><a xlink:title=" ">
<path fill="none" stroke="#63b8ff" d="M524.27,-220.52C450.49,-213.86 348.94,-202.68 251.3,-183.99"/>
<polygon fill="#63b8ff" stroke="#63b8ff" points="251.74,-180.51 241.26,-182.03 250.4,-187.38 251.74,-180.51"/>
</a>
</g>
</g>
<!-- Node27&#45;&gt;Node17 -->
<g id="edge30_Node000027_Node000017" class="edge">
<title>Node27&#45;&gt;Node17</title>
<g id="a_edge30_Node000027_Node000017"><a xlink:title=" ">
<path fill="none" stroke="#63b8ff" d="M562.26,-219.96C513.73,-211.09 460.51,-194.29 488,-165 510.31,-141.23 984.08,-126.15 1140.43,-121.8"/>
<polygon fill="#63b8ff" stroke="#63b8ff" points="1140.79,-125.29 1150.69,-121.52 1140.6,-118.3 1140.79,-125.29"/>
</a>
</g>
</g>
<!-- Node27&#45;&gt;Node25 -->
<g id="edge51_Node000027_Node000025" class="edge">
<title>Node27&#45;&gt;Node25</title>
<g id="a_edge51_Node000027_Node000025"><a xlink:title=" ">
<path fill="none" stroke="#63b8ff" d="M583.33,-219.98C534.84,-210.74 457.35,-195.97 405.11,-186.01"/>
<polygon fill="#63b8ff" stroke="#63b8ff" points="405.49,-182.52 395.02,-184.08 404.18,-189.39 405.49,-182.52"/>
</a>
</g>
</g>
<!-- Node28 -->
<g id="Node000028" class="node">
<title>Node28</title>
<g id="a_Node000028"><a xlink:title=" ">
<polygon fill="#e0e0e0" stroke="#999999" points="967,-184 837,-184 837,-165 967,-165 967,-184"/>
<text text-anchor="middle" x="902" y="-172" font-family="Helvetica,sans-Serif" font-size="10.00">glm/gtc/quaternion.hpp</text>
</a>
</g>
</g>
<!-- Node27&#45;&gt;Node28 -->
<g id="edge31_Node000027_Node000028" class="edge">
<title>Node27&#45;&gt;Node28</title>
<g id="a_edge31_Node000027_Node000028"><a xlink:title=" ">
<path fill="none" stroke="#63b8ff" d="M672.02,-219.98C719.82,-210.74 796.2,-195.97 847.68,-186.01"/>
<polygon fill="#63b8ff" stroke="#63b8ff" points="848.48,-189.42 857.63,-184.08 847.15,-182.54 848.48,-189.42"/>
</a>
</g>
</g>
<!-- Node29 -->
<g id="Node000029" class="node">
<title>Node29</title>
<g id="a_Node000029"><a xlink:title=" ">
<polygon fill="#e0e0e0" stroke="#999999" points="1148.5,-184 985.5,-184 985.5,-165 1148.5,-165 1148.5,-184"/>
<text text-anchor="middle" x="1067" y="-172" font-family="Helvetica,sans-Serif" font-size="10.00">glm/gtc/matrix_transform.hpp</text>
</a>
</g>
</g>
<!-- Node27&#45;&gt;Node29 -->
<g id="edge32_Node000027_Node000029" class="edge">
<title>Node27&#45;&gt;Node29</title>
<g id="a_edge32_Node000027_Node000029"><a xlink:title=" ">
<path fill="none" stroke="#63b8ff" d="M698.53,-219.98C777.06,-210.5 903.75,-195.21 986.2,-185.26"/>
<polygon fill="#63b8ff" stroke="#63b8ff" points="986.77,-188.71 996.28,-184.04 985.93,-181.76 986.77,-188.71"/>
</a>
</g>
</g>
<!-- Node30 -->
<g id="Node000030" class="node">
<title>Node30</title>
<g id="a_Node000030"><a xlink:title=" ">
<polygon fill="#e0e0e0" stroke="#999999" points="669,-184 497,-184 497,-165 669,-165 669,-184"/>
<text text-anchor="middle" x="583" y="-172" font-family="Helvetica,sans-Serif" font-size="10.00">glm/gtx/matrix_decompose.hpp</text>
</a>
</g>
</g>
<!-- Node27&#45;&gt;Node30 -->
<g id="edge33_Node000027_Node000030" class="edge">
<title>Node27&#45;&gt;Node30</title>
<g id="a_edge33_Node000027_Node000030"><a xlink:title=" ">
<path fill="none" stroke="#63b8ff" d="M620.57,-219.75C614.15,-212.18 604.69,-201.05 596.88,-191.84"/>
<polygon fill="#63b8ff" stroke="#63b8ff" points="599.43,-189.45 590.29,-184.09 594.1,-193.98 599.43,-189.45"/>
</a>
</g>
</g>
<!-- Node31 -->
<g id="Node000031" class="node">
<title>Node31</title>
<g id="a_Node000031"><a xlink:title=" ">
<polygon fill="#e0e0e0" stroke="#999999" points="818.5,-184 687.5,-184 687.5,-165 818.5,-165 818.5,-184"/>
<text text-anchor="middle" x="753" y="-172" font-family="Helvetica,sans-Serif" font-size="10.00">glm/gtx/string_cast.hpp</text>
</a>
</g>
</g>
<!-- Node27&#45;&gt;Node31 -->
<g id="edge34_Node000027_Node000031" class="edge">
<title>Node27&#45;&gt;Node31</title>
<g id="a_edge34_Node000027_Node000031"><a xlink:title=" ">
<path fill="none" stroke="#63b8ff" d="M648.08,-219.98C668.37,-211.38 699.96,-197.99 723.17,-188.15"/>
<polygon fill="#63b8ff" stroke="#63b8ff" points="724.71,-191.3 732.55,-184.17 721.98,-184.85 724.71,-191.3"/>
</a>
</g>
</g>
<!-- Node32 -->
<g id="Node000032" class="node">
<title>Node32</title>
<g id="a_Node000032"><a xlink:href="_math_2_utils_8hpp.html" target="_top" xlink:title=" ">
<polygon fill="white" stroke="#666666" points="1255,-184 1167,-184 1167,-165 1255,-165 1255,-184"/>
<text text-anchor="middle" x="1211" y="-172" font-family="Helvetica,sans-Serif" font-size="10.00">Math/Utils.hpp</text>
</a>
</g>
</g>
<!-- Node27&#45;&gt;Node32 -->
<g id="edge35_Node000027_Node000032" class="edge">
<title>Node27&#45;&gt;Node32</title>
<g id="a_edge35_Node000027_Node000032"><a xlink:title=" ">
<path fill="none" stroke="#63b8ff" d="M731.82,-222.1C836.55,-215.12 1003.09,-202.56 1156.69,-184.07"/>
<polygon fill="#63b8ff" stroke="#63b8ff" points="1157.28,-187.53 1166.79,-182.85 1156.44,-180.58 1157.28,-187.53"/>
</a>
</g>
</g>
<!-- Node27&#45;&gt;Node33 -->
<g id="edge37_Node000027_Node000033" class="edge">
<title>Node27&#45;&gt;Node33</title>
<g id="a_edge37_Node000027_Node000033"><a xlink:title=" ">
<path fill="none" stroke="#63b8ff" d="M731.56,-222.76C880.36,-214.47 1163.23,-198.54 1404,-184 1428.53,-182.52 1455.57,-180.82 1478.9,-179.33"/>
<polygon fill="#63b8ff" stroke="#63b8ff" points="1479.24,-182.81 1489,-178.68 1478.79,-175.83 1479.24,-182.81"/>
</a>
</g>
</g>
<!-- Node32&#45;&gt;Node17 -->
<g id="edge36_Node000032_Node000017" class="edge">
<title>Node32&#45;&gt;Node17</title>
<g id="a_edge36_Node000032_Node000017"><a xlink:title=" ">
<path fill="none" stroke="#63b8ff" d="M1207.53,-164.75C1204.72,-157.65 1200.66,-147.4 1197.15,-138.56"/>
<polygon fill="#63b8ff" stroke="#63b8ff" points="1200.34,-137.1 1193.4,-129.09 1193.83,-139.68 1200.34,-137.1"/>
</a>
</g>
</g>
<!-- Node33&#45;&gt;Node21 -->
<g id="edge39_Node000033_Node000021" class="edge">
<title>Node33&#45;&gt;Node21</title>
<g id="a_edge39_Node000033_Node000021"><a xlink:title=" ">
<path fill="none" stroke="#63b8ff" d="M1500.73,-164.98C1460.68,-155.84 1396.93,-141.27 1353.36,-131.32"/>
<polygon fill="#63b8ff" stroke="#63b8ff" points="1354.1,-127.9 1343.57,-129.08 1352.54,-134.72 1354.1,-127.9"/>
</a>
</g>
</g>
<!-- Node34 -->
<g id="Node000034" class="node">
<title>Node34</title>
<g id="a_Node000034"><a xlink:title=" ">
<polygon fill="#e0e0e0" stroke="#999999" points="1824,-74 1738,-74 1738,-55 1824,-55 1824,-74"/>
<text text-anchor="middle" x="1781" y="-62" font-family="Helvetica,sans-Serif" font-size="10.00">unordered_set</text>
</a>
</g>
</g>
<!-- Node33&#45;&gt;Node34 -->
<g id="edge38_Node000033_Node000034" class="edge">
<title>Node33&#45;&gt;Node34</title>
<g id="a_edge38_Node000033_Node000034"><a xlink:title=" ">
<path fill="none" stroke="#63b8ff" d="M1587.26,-168.9C1643.49,-162.74 1730.93,-150.05 1756,-129 1769.17,-117.94 1775.45,-99 1778.41,-84.68"/>
<polygon fill="#63b8ff" stroke="#63b8ff" points="1781.93,-84.86 1780.14,-74.42 1775.02,-83.69 1781.93,-84.86"/>
</a>
</g>
</g>
<!-- Node35 -->
<g id="Node000035" class="node">
<title>Node35</title>
<g id="a_Node000035"><a xlink:href="_entity_8hpp.html" target="_top" xlink:title=" ">
<polygon fill="#fff0f0" stroke="red" points="1600,-19 1514,-19 1514,0 1600,0 1600,-19"/>
<text text-anchor="middle" x="1557" y="-7" font-family="Helvetica,sans-Serif" font-size="10.00">ECS/Entity.hpp</text>
</a>
</g>
</g>
<!-- Node33&#45;&gt;Node35 -->
<g id="edge40_Node000033_Node000035" class="edge">
<title>Node33&#45;&gt;Node35</title>
<g id="a_edge40_Node000033_Node000035"><a xlink:title=" ">
<path fill="none" stroke="#63b8ff" d="M1539.02,-164.74C1541.99,-139.31 1550.64,-65.08 1554.76,-29.69"/>
<polygon fill="#63b8ff" stroke="#63b8ff" points="1558.29,-29.64 1555.97,-19.31 1551.34,-28.83 1558.29,-29.64"/>
</a>
</g>
</g>
<!-- Node37 -->
<g id="Node000037" class="node">
<title>Node37</title>
<g id="a_Node000037"><a xlink:href="_entity_hierarchy_8hpp.html" target="_top" xlink:title=" ">
<polygon fill="#fff0f0" stroke="red" points="1937,-129 1803,-129 1803,-110 1937,-110 1937,-129"/>
<text text-anchor="middle" x="1870" y="-117" font-family="Helvetica,sans-Serif" font-size="10.00">ECS/EntityHierarchy.hpp</text>
</a>
</g>
</g>
<!-- Node33&#45;&gt;Node37 -->
<g id="edge41_Node000033_Node000037" class="edge">
<title>Node33&#45;&gt;Node37</title>
<g id="a_edge41_Node000033_Node000037"><a xlink:title=" ">
<path fill="none" stroke="#63b8ff" d="M1587.35,-165.62C1645.64,-156.32 1742.75,-140.81 1806.58,-130.62"/>
<polygon fill="#63b8ff" stroke="#63b8ff" points="1807.21,-134.07 1816.53,-129.04 1806.1,-127.16 1807.21,-134.07"/>
</a>
</g>
</g>
<!-- Node40 -->
<g id="Node000040" class="node">
<title>Node40</title>
<g id="a_Node000040"><a xlink:href="_entity_provider_8hpp.html" target="_top" xlink:title="Manages a pool of unused entity identifiers and provides mechanisms for requesting and removing them.">
<polygon fill="#fff0f0" stroke="red" points="1529,-74 1401,-74 1401,-55 1529,-55 1529,-74"/>
<text text-anchor="middle" x="1465" y="-62" font-family="Helvetica,sans-Serif" font-size="10.00">ECS/EntityProvider.hpp</text>
</a>
</g>
</g>
<!-- Node33&#45;&gt;Node40 -->
<g id="edge45_Node000033_Node000040" class="edge">
<title>Node33&#45;&gt;Node40</title>
<g id="a_edge45_Node000033_Node000040"><a xlink:title=" ">
<path fill="none" stroke="#63b8ff" d="M1533.18,-164.65C1526.27,-152.18 1512.97,-128.84 1500,-110 1493.38,-100.39 1485.37,-90.12 1478.69,-81.87"/>
<polygon fill="#63b8ff" stroke="#63b8ff" points="1481.37,-79.62 1472.31,-74.12 1475.96,-84.06 1481.37,-79.62"/>
</a>
</g>
</g>
<!-- Node41 -->
<g id="Node000041" class="node">
<title>Node41</title>
<g id="a_Node000041"><a xlink:href="_singleton_component_8hpp.html" target="_top" xlink:title=" ">
<polygon fill="white" stroke="#666666" points="1746.5,-129 1585.5,-129 1585.5,-110 1746.5,-110 1746.5,-129"/>
<text text-anchor="middle" x="1666" y="-117" font-family="Helvetica,sans-Serif" font-size="10.00">ECS/SingletonComponent.hpp</text>
</a>
</g>
</g>
<!-- Node33&#45;&gt;Node41 -->
<g id="edge48_Node000033_Node000041" class="edge">
<title>Node33&#45;&gt;Node41</title>
<g id="a_edge48_Node000033_Node000041"><a xlink:title=" ">
<path fill="none" stroke="#63b8ff" d="M1558.57,-164.98C1579.43,-156.34 1611.97,-142.87 1635.77,-133.02"/>
<polygon fill="#63b8ff" stroke="#63b8ff" points="1637.16,-136.23 1645.06,-129.17 1634.48,-129.76 1637.16,-136.23"/>
</a>
</g>
</g>
<!-- Node42 -->
<g id="Node000042" class="node">
<title>Node42</title>
<g id="a_Node000042"><a xlink:href="_sparse_set_8hpp.html" target="_top" xlink:title=" ">
<polygon fill="white" stroke="#666666" points="1491,-129 1383,-129 1383,-110 1491,-110 1491,-129"/>
<text text-anchor="middle" x="1437" y="-117" font-family="Helvetica,sans-Serif" font-size="10.00">ECS/SparseSet.hpp</text>
</a>
</g>
</g>
<!-- Node33&#45;&gt;Node42 -->
<g id="edge49_Node000033_Node000042" class="edge">
<title>Node33&#45;&gt;Node42</title>
<g id="a_edge49_Node000033_Node000042"><a xlink:title=" ">
<path fill="none" stroke="#63b8ff" d="M1521.77,-164.98C1505.82,-156.61 1481.22,-143.7 1462.62,-133.95"/>
<polygon fill="#63b8ff" stroke="#63b8ff" points="1464,-130.72 1453.52,-129.17 1460.75,-136.92 1464,-130.72"/>
</a>
</g>
</g>
<!-- Node37&#45;&gt;Node15 -->
<g id="edge42_Node000037_Node000015" class="edge">
<title>Node37&#45;&gt;Node15</title>
<g id="a_edge42_Node000037_Node000015"><a xlink:title=" ">
<path fill="none" stroke="#63b8ff" d="M1882.53,-109.98C1894.4,-101.92 1912.46,-89.65 1926.61,-80.03"/>
<polygon fill="#63b8ff" stroke="#63b8ff" points="1928.94,-82.69 1935.24,-74.17 1925,-76.9 1928.94,-82.69"/>
</a>
</g>
</g>
<!-- Node37&#45;&gt;Node34 -->
<g id="edge43_Node000037_Node000034" class="edge">
<title>Node37&#45;&gt;Node34</title>
<g id="a_edge43_Node000037_Node000034"><a xlink:title=" ">
<path fill="none" stroke="#63b8ff" d="M1855.7,-109.98C1841.9,-101.77 1820.76,-89.18 1804.49,-79.49"/>
<polygon fill="#63b8ff" stroke="#63b8ff" points="1805.94,-76.28 1795.56,-74.17 1802.36,-82.29 1805.94,-76.28"/>
</a>
</g>
</g>
<!-- Node37&#45;&gt;Node35 -->
<g id="edge44_Node000037_Node000035" class="edge">
<title>Node37&#45;&gt;Node35</title>
<g id="a_edge44_Node000037_Node000035"><a xlink:title=" ">
<path fill="none" stroke="#63b8ff" d="M1867.6,-109.87C1863.23,-95.87 1852.57,-68.43 1833,-55 1797.75,-30.8 1680.27,-18.83 1610.45,-13.72"/>
<polygon fill="#63b8ff" stroke="#63b8ff" points="1610.32,-10.2 1600.1,-12.99 1609.82,-17.19 1610.32,-10.2"/>
</a>
</g>
</g>
<!-- Node40&#45;&gt;Node23 -->
<g id="edge46_Node000040_Node000023" class="edge">
<title>Node40&#45;&gt;Node23</title>
<g id="a_edge46_Node000040_Node000023"><a xlink:title=" ">
<path fill="none" stroke="#63b8ff" d="M1452.31,-54.98C1440.17,-46.84 1421.64,-34.41 1407.25,-24.76"/>
<polygon fill="#63b8ff" stroke="#63b8ff" points="1409.18,-21.84 1398.92,-19.17 1405.28,-27.65 1409.18,-21.84"/>
</a>
</g>
</g>
<!-- Node40&#45;&gt;Node35 -->
<g id="edge47_Node000040_Node000035" class="edge">
<title>Node40&#45;&gt;Node35</title>
<g id="a_edge47_Node000040_Node000035"><a xlink:title=" ">
<path fill="none" stroke="#63b8ff" d="M1479.78,-54.98C1494.18,-46.69 1516.31,-33.94 1533.19,-24.22"/>
<polygon fill="#63b8ff" stroke="#63b8ff" points="1535.03,-27.19 1541.95,-19.17 1531.54,-21.13 1535.03,-27.19"/>
</a>
</g>
</g>
<!-- Node42&#45;&gt;Node40 -->
<g id="edge50_Node000042_Node000040" class="edge">
<title>Node42&#45;&gt;Node40</title>
<g id="a_edge50_Node000042_Node000040"><a xlink:title=" ">
<path fill="none" stroke="#63b8ff" d="M1441.62,-109.75C1445.46,-102.49 1451.02,-91.95 1455.76,-82.98"/>
<polygon fill="#63b8ff" stroke="#63b8ff" points="1458.89,-84.57 1460.46,-74.09 1452.7,-81.3 1458.89,-84.57"/>
</a>
</g>
</g>
<!-- Node43&#45;&gt;Node17 -->
<g id="edge53_Node000043_Node000017" class="edge">
<title>Node43&#45;&gt;Node17</title>
<g id="a_edge53_Node000043_Node000017"><a xlink:title=" ">
<path fill="none" stroke="#63b8ff" d="M1279.01,-219.82C1278.61,-206.72 1276.16,-181.65 1264,-165 1253.78,-151 1237.68,-140.56 1223.11,-133.33"/>
<polygon fill="#63b8ff" stroke="#63b8ff" points="1224.38,-130.06 1213.84,-129.04 1221.44,-136.41 1224.38,-130.06"/>
</a>
</g>
</g>
<!-- Node44 -->
<g id="Node000044" class="node">
<title>Node44</title>
<g id="a_Node000044"><a xlink:href="_ray_8hpp.html" target="_top" xlink:title=" ">
<polygon fill="white" stroke="#666666" points="1394.5,-184 1311.5,-184 1311.5,-165 1394.5,-165 1394.5,-184"/>
<text text-anchor="middle" x="1353" y="-172" font-family="Helvetica,sans-Serif" font-size="10.00">Math/Ray.hpp</text>
</a>
</g>
</g>
<!-- Node43&#45;&gt;Node44 -->
<g id="edge54_Node000043_Node000044" class="edge">
<title>Node43&#45;&gt;Node44</title>
<g id="a_edge54_Node000043_Node000044"><a xlink:title=" ">
<path fill="none" stroke="#63b8ff" d="M1290.89,-219.98C1302.15,-211.92 1319.29,-199.65 1332.71,-190.03"/>
<polygon fill="#63b8ff" stroke="#63b8ff" points="1334.8,-192.84 1340.89,-184.17 1330.73,-187.15 1334.8,-192.84"/>
</a>
</g>
</g>
<!-- Node44&#45;&gt;Node17 -->
<g id="edge55_Node000044_Node000017" class="edge">
<title>Node44&#45;&gt;Node17</title>
<g id="a_edge55_Node000044_Node000017"><a xlink:title=" ">
<path fill="none" stroke="#63b8ff" d="M1326.81,-164.98C1299.56,-156.13 1256.7,-142.19 1226.22,-132.28"/>
<polygon fill="#63b8ff" stroke="#63b8ff" points="1226.99,-128.85 1216.39,-129.08 1224.82,-135.5 1226.99,-128.85"/>
</a>
</g>
</g>
<!-- Node45&#45;&gt;Node17 -->
<g id="edge57_Node000045_Node000017" class="edge">
<title>Node45&#45;&gt;Node17</title>
<g id="a_edge57_Node000045_Node000017"><a xlink:title=" ">
<path fill="none" stroke="#63b8ff" d="M853.59,-275.72C856.76,-275.48 859.91,-275.24 863,-275 972.09,-266.71 1255.63,-286.89 1354,-239 1389.69,-221.62 1429.05,-195.79 1404,-165 1398.77,-158.57 1300.94,-140.18 1239.38,-129.16"/>
<polygon fill="#63b8ff" stroke="#63b8ff" points="1239.92,-125.7 1229.46,-127.39 1238.69,-132.59 1239.92,-125.7"/>
</a>
</g>
</g>
<!-- Node45&#45;&gt;Node27 -->
<g id="edge58_Node000045_Node000027" class="edge">
<title>Node45&#45;&gt;Node27</title>
<g id="a_edge58_Node000045_Node000027"><a xlink:title=" ">
<path fill="none" stroke="#63b8ff" d="M734.6,-274.98C713.98,-266.38 681.89,-252.99 658.31,-243.15"/>
<polygon fill="#63b8ff" stroke="#63b8ff" points="659.35,-239.79 648.78,-239.17 656.66,-246.25 659.35,-239.79"/>
</a>
</g>
</g>
<!-- Node45&#45;&gt;Node44 -->
<g id="edge59_Node000045_Node000044" class="edge">
<title>Node45&#45;&gt;Node44</title>
<g id="a_edge59_Node000045_Node000044"><a xlink:title=" ">
<path fill="none" stroke="#63b8ff" d="M853.59,-275.73C856.76,-275.48 859.91,-275.24 863,-275 915.33,-270.94 1293.13,-271.93 1334,-239 1347.15,-228.4 1351.47,-209.09 1352.76,-194.53"/>
<polygon fill="#63b8ff" stroke="#63b8ff" points="1356.27,-194.29 1353.25,-184.13 1349.28,-193.96 1356.27,-194.29"/>
</a>
</g>
</g>
</g>
</svg>
