<?xml version="1.0" encoding="UTF-8" standalone="no"?>
<!DOCTYPE svg PUBLIC "-//W3C//DTD SVG 1.1//EN"
 "http://www.w3.org/Graphics/SVG/1.1/DTD/svg11.dtd">
<!-- Generated by graphviz version 2.43.0 (0)
 -->
<!-- Title: src/AssetManager/Wireframe.cpp Pages: 1 -->
<svg width="794pt" height="203pt"
 viewBox="0.00 0.00 794.00 203.00" xmlns="http://www.w3.org/2000/svg" xmlns:xlink="http://www.w3.org/1999/xlink">
<g id="graph0" class="graph" transform="scale(1 1) rotate(0) translate(4 199)">
<title>src/AssetManager/Wireframe.cpp</title>
<!-- Node1 -->
<g id="Node000001" class="node">
<title>Node1</title>
<g id="a_Node000001"><a xlink:title=" ">
<polygon fill="#999999" stroke="#666666" points="683.5,-195 504.5,-195 504.5,-176 683.5,-176 683.5,-195"/>
<text text-anchor="middle" x="594" y="-183" font-family="Helvetica,sans-Serif" font-size="10.00">src/AssetManager/Wireframe.cpp</text>
</a>
</g>
</g>
<!-- Node2 -->
<g id="Node000002" class="node">
<title>Node2</title>
<g id="a_Node000002"><a xlink:href="_wireframe_8hpp.html" target="_top" xlink:title=" ">
<polygon fill="white" stroke="#666666" points="322,-140 160,-140 160,-121 322,-121 322,-140"/>
<text text-anchor="middle" x="241" y="-128" font-family="Helvetica,sans-Serif" font-size="10.00">AssetManager/Wireframe.hpp</text>
</a>
</g>
</g>
<!-- Node1&#45;&gt;Node2 -->
<g id="edge1_Node000001_Node000002" class="edge">
<title>Node1&#45;&gt;Node2</title>
<g id="a_edge1_Node000001_Node000002"><a xlink:title=" ">
<path fill="none" stroke="#63b8ff" d="M537.28,-175.98C474.72,-166.59 374.14,-151.49 307.8,-141.53"/>
<polygon fill="#63b8ff" stroke="#63b8ff" points="308.28,-138.06 297.87,-140.04 307.24,-144.98 308.28,-138.06"/>
</a>
</g>
</g>
<!-- Node9 -->
<g id="Node000009" class="node">
<title>Node9</title>
<g id="a_Node000009"><a xlink:href="_logger_8hpp.html" target="_top" xlink:title=" ">
<polygon fill="white" stroke="#666666" points="589.5,-140 472.5,-140 472.5,-121 589.5,-121 589.5,-140"/>
<text text-anchor="middle" x="531" y="-128" font-family="Helvetica,sans-Serif" font-size="10.00">Common/Logger.hpp</text>
</a>
</g>
</g>
<!-- Node1&#45;&gt;Node9 -->
<g id="edge8_Node000001_Node000009" class="edge">
<title>Node1&#45;&gt;Node9</title>
<g id="a_edge8_Node000001_Node000009"><a xlink:title=" ">
<path fill="none" stroke="#63b8ff" d="M583.88,-175.98C574.56,-168.15 560.53,-156.34 549.26,-146.86"/>
<polygon fill="#63b8ff" stroke="#63b8ff" points="551.21,-143.93 541.31,-140.17 546.71,-149.29 551.21,-143.93"/>
</a>
</g>
</g>
<!-- Node12 -->
<g id="Node000012" class="node">
<title>Node12</title>
<g id="a_Node000012"><a xlink:title=" ">
<polygon fill="#e0e0e0" stroke="#999999" points="708,-140 608,-140 608,-121 708,-121 708,-140"/>
<text text-anchor="middle" x="658" y="-128" font-family="Helvetica,sans-Serif" font-size="10.00">tiny_obj_loader.h</text>
</a>
</g>
</g>
<!-- Node1&#45;&gt;Node12 -->
<g id="edge11_Node000001_Node000012" class="edge">
<title>Node1&#45;&gt;Node12</title>
<g id="a_edge11_Node000001_Node000012"><a xlink:title=" ">
<path fill="none" stroke="#63b8ff" d="M604.28,-175.98C613.84,-168.07 628.28,-156.11 639.78,-146.58"/>
<polygon fill="#63b8ff" stroke="#63b8ff" points="642.06,-149.24 647.53,-140.17 637.6,-143.85 642.06,-149.24"/>
</a>
</g>
</g>
<!-- Node13 -->
<g id="Node000013" class="node">
<title>Node13</title>
<g id="a_Node000013"><a xlink:title=" ">
<polygon fill="#e0e0e0" stroke="#999999" points="786,-140 726,-140 726,-121 786,-121 786,-140"/>
<text text-anchor="middle" x="756" y="-128" font-family="Helvetica,sans-Serif" font-size="10.00">iostream</text>
</a>
</g>
</g>
<!-- Node1&#45;&gt;Node13 -->
<g id="edge12_Node000001_Node000013" class="edge">
<title>Node1&#45;&gt;Node13</title>
<g id="a_edge12_Node000001_Node000013"><a xlink:title=" ">
<path fill="none" stroke="#63b8ff" d="M620.03,-175.98C647.11,-167.13 689.71,-153.19 720.01,-143.28"/>
<polygon fill="#63b8ff" stroke="#63b8ff" points="721.35,-146.52 729.77,-140.08 719.18,-139.87 721.35,-146.52"/>
</a>
</g>
</g>
<!-- Node3 -->
<g id="Node000003" class="node">
<title>Node3</title>
<g id="a_Node000003"><a xlink:title=" ">
<polygon fill="#e0e0e0" stroke="#999999" points="78,-79.5 0,-79.5 0,-60.5 78,-60.5 78,-79.5"/>
<text text-anchor="middle" x="39" y="-67.5" font-family="Helvetica,sans-Serif" font-size="10.00">glm/glm.hpp</text>
</a>
</g>
</g>
<!-- Node2&#45;&gt;Node3 -->
<g id="edge2_Node000002_Node000003" class="edge">
<title>Node2&#45;&gt;Node3</title>
<g id="a_edge2_Node000002_Node000003"><a xlink:title=" ">
<path fill="none" stroke="#63b8ff" d="M211.47,-120.99C180.47,-112.05 130.3,-97.57 87,-85 84.05,-84.14 81,-83.26 77.94,-82.37"/>
<polygon fill="#63b8ff" stroke="#63b8ff" points="78.77,-78.96 68.19,-79.53 76.81,-85.68 78.77,-78.96"/>
</a>
</g>
</g>
<!-- Node4 -->
<g id="Node000004" class="node">
<title>Node4</title>
<g id="a_Node000004"><a xlink:title=" ">
<polygon fill="#e0e0e0" stroke="#999999" points="167.5,-79.5 96.5,-79.5 96.5,-60.5 167.5,-60.5 167.5,-79.5"/>
<text text-anchor="middle" x="132" y="-67.5" font-family="Helvetica,sans-Serif" font-size="10.00">glad/glad.h</text>
</a>
</g>
</g>
<!-- Node2&#45;&gt;Node4 -->
<g id="edge3_Node000002_Node000004" class="edge">
<title>Node2&#45;&gt;Node4</title>
<g id="a_edge3_Node000002_Node000004"><a xlink:title=" ">
<path fill="none" stroke="#63b8ff" d="M224.92,-120.87C207.05,-111.28 177.96,-95.67 157.09,-84.47"/>
<polygon fill="#63b8ff" stroke="#63b8ff" points="158.62,-81.31 148.15,-79.67 155.31,-87.48 158.62,-81.31"/>
</a>
</g>
</g>
<!-- Node5 -->
<g id="Node000005" class="node">
<title>Node5</title>
<g id="a_Node000005"><a xlink:title=" ">
<polygon fill="#e0e0e0" stroke="#999999" points="232.5,-79.5 185.5,-79.5 185.5,-60.5 232.5,-60.5 232.5,-79.5"/>
<text text-anchor="middle" x="209" y="-67.5" font-family="Helvetica,sans-Serif" font-size="10.00">vector</text>
</a>
</g>
</g>
<!-- Node2&#45;&gt;Node5 -->
<g id="edge4_Node000002_Node000005" class="edge">
<title>Node2&#45;&gt;Node5</title>
<g id="a_edge4_Node000002_Node000005"><a xlink:title=" ">
<path fill="none" stroke="#63b8ff" d="M236.28,-120.87C231.65,-112.4 224.45,-99.24 218.61,-88.57"/>
<polygon fill="#63b8ff" stroke="#63b8ff" points="221.61,-86.76 213.74,-79.67 215.47,-90.12 221.61,-86.76"/>
</a>
</g>
</g>
<!-- Node6 -->
<g id="Node000006" class="node">
<title>Node6</title>
<g id="a_Node000006"><a xlink:title=" ">
<polygon fill="#e0e0e0" stroke="#999999" points="295,-79.5 251,-79.5 251,-60.5 295,-60.5 295,-79.5"/>
<text text-anchor="middle" x="273" y="-67.5" font-family="Helvetica,sans-Serif" font-size="10.00">string</text>
</a>
</g>
</g>
<!-- Node2&#45;&gt;Node6 -->
<g id="edge5_Node000002_Node000006" class="edge">
<title>Node2&#45;&gt;Node6</title>
<g id="a_edge5_Node000002_Node000006"><a xlink:title=" ">
<path fill="none" stroke="#63b8ff" d="M245.72,-120.87C250.35,-112.4 257.55,-99.24 263.39,-88.57"/>
<polygon fill="#63b8ff" stroke="#63b8ff" points="266.53,-90.12 268.26,-79.67 260.39,-86.76 266.53,-90.12"/>
</a>
</g>
</g>
<!-- Node7 -->
<g id="Node000007" class="node">
<title>Node7</title>
<g id="a_Node000007"><a xlink:href="_path_constructible_asset_8hpp.html" target="_top" xlink:title=" ">
<polygon fill="white" stroke="#666666" points="488.5,-85 313.5,-85 313.5,-55 488.5,-55 488.5,-85"/>
<text text-anchor="start" x="321.5" y="-73" font-family="Helvetica,sans-Serif" font-size="10.00">AssetManager/PathConstructible</text>
<text text-anchor="middle" x="401" y="-62" font-family="Helvetica,sans-Serif" font-size="10.00">Asset.hpp</text>
</a>
</g>
</g>
<!-- Node2&#45;&gt;Node7 -->
<g id="edge6_Node000002_Node000007" class="edge">
<title>Node2&#45;&gt;Node7</title>
<g id="a_edge6_Node000002_Node000007"><a xlink:title=" ">
<path fill="none" stroke="#63b8ff" d="M264.27,-120.99C287.39,-112.54 323.55,-99.32 352.88,-88.59"/>
<polygon fill="#63b8ff" stroke="#63b8ff" points="354.34,-91.79 362.53,-85.06 351.94,-85.21 354.34,-91.79"/>
</a>
</g>
</g>
<!-- Node8 -->
<g id="Node000008" class="node">
<title>Node8</title>
<g id="a_Node000008"><a xlink:title=" ">
<polygon fill="#e0e0e0" stroke="#999999" points="435,-19 367,-19 367,0 435,0 435,-19"/>
<text text-anchor="middle" x="401" y="-7" font-family="Helvetica,sans-Serif" font-size="10.00">filesystem</text>
</a>
</g>
</g>
<!-- Node7&#45;&gt;Node8 -->
<g id="edge7_Node000007_Node000008" class="edge">
<title>Node7&#45;&gt;Node8</title>
<g id="a_edge7_Node000007_Node000008"><a xlink:title=" ">
<path fill="none" stroke="#63b8ff" d="M401,-54.84C401,-47.21 401,-37.7 401,-29.45"/>
<polygon fill="#63b8ff" stroke="#63b8ff" points="404.5,-29.27 401,-19.27 397.5,-29.27 404.5,-29.27"/>
</a>
</g>
</g>
<!-- Node10 -->
<g id="Node000010" class="node">
<title>Node10</title>
<g id="a_Node000010"><a xlink:title=" ">
<polygon fill="#e0e0e0" stroke="#999999" points="555,-79.5 507,-79.5 507,-60.5 555,-60.5 555,-79.5"/>
<text text-anchor="middle" x="531" y="-67.5" font-family="Helvetica,sans-Serif" font-size="10.00">mutex</text>
</a>
</g>
</g>
<!-- Node9&#45;&gt;Node10 -->
<g id="edge9_Node000009_Node000010" class="edge">
<title>Node9&#45;&gt;Node10</title>
<g id="a_edge9_Node000009_Node000010"><a xlink:title=" ">
<path fill="none" stroke="#63b8ff" d="M531,-120.87C531,-112.75 531,-100.31 531,-89.89"/>
<polygon fill="#63b8ff" stroke="#63b8ff" points="534.5,-89.67 531,-79.67 527.5,-89.67 534.5,-89.67"/>
</a>
</g>
</g>
<!-- Node11 -->
<g id="Node000011" class="node">
<title>Node11</title>
<g id="a_Node000011"><a xlink:title=" ">
<polygon fill="#e0e0e0" stroke="#999999" points="620.5,-79.5 573.5,-79.5 573.5,-60.5 620.5,-60.5 620.5,-79.5"/>
<text text-anchor="middle" x="597" y="-67.5" font-family="Helvetica,sans-Serif" font-size="10.00">queue</text>
</a>
</g>
</g>
<!-- Node9&#45;&gt;Node11 -->
<g id="edge10_Node000009_Node000011" class="edge">
<title>Node9&#45;&gt;Node11</title>
<g id="a_edge10_Node000009_Node000011"><a xlink:title=" ">
<path fill="none" stroke="#63b8ff" d="M540.74,-120.87C550.97,-111.8 567.29,-97.34 579.72,-86.32"/>
<polygon fill="#63b8ff" stroke="#63b8ff" points="582.06,-88.92 587.22,-79.67 577.42,-83.68 582.06,-88.92"/>
</a>
</g>
</g>
</g>
</svg>
