<?xml version="1.0" encoding="UTF-8" standalone="no"?>
<!DOCTYPE svg PUBLIC "-//W3C//DTD SVG 1.1//EN"
 "http://www.w3.org/Graphics/SVG/1.1/DTD/svg11.dtd">
<!-- Generated by graphviz version 2.43.0 (0)
 -->
<!-- Title: src/AssetManager/Wireframe.hpp Pages: 1 -->
<svg width="459pt" height="140pt"
 viewBox="0.00 0.00 458.50 140.00" xmlns="http://www.w3.org/2000/svg" xmlns:xlink="http://www.w3.org/1999/xlink">
<g id="graph0" class="graph" transform="scale(1 1) rotate(0) translate(4 136)">
<title>src/AssetManager/Wireframe.hpp</title>
<polygon fill="white" stroke="transparent" points="-4,4 -4,-136 454.5,-136 454.5,4 -4,4"/>
<!-- Node1 -->
<g id="node1" class="node">
<title>Node1</title>
<g id="a_node1"><a xlink:title=" ">
<polygon fill="#bfbfbf" stroke="black" points="119.5,-112.5 119.5,-131.5 298.5,-131.5 298.5,-112.5 119.5,-112.5"/>
<text text-anchor="middle" x="209" y="-119.5" font-family="Helvetica,sans-Serif" font-size="10.00">src/AssetManager/Wireframe.hpp</text>
</a>
</g>
</g>
<!-- Node2 -->
<g id="node2" class="node">
<title>Node2</title>
<g id="a_node2"><a xlink:title=" ">
<polygon fill="white" stroke="#bfbfbf" points="0,-56.5 0,-75.5 78,-75.5 78,-56.5 0,-56.5"/>
<text text-anchor="middle" x="39" y="-63.5" font-family="Helvetica,sans-Serif" font-size="10.00">glm/glm.hpp</text>
</a>
</g>
</g>
<!-- Node1&#45;&gt;Node2 -->
<g id="edge1" class="edge">
<title>Node1&#45;&gt;Node2</title>
<path fill="none" stroke="midnightblue" d="M182.06,-112.44C153.34,-103.32 107.67,-88.81 75.68,-78.65"/>
<polygon fill="midnightblue" stroke="midnightblue" points="76.4,-75.21 65.81,-75.52 74.28,-81.88 76.4,-75.21"/>
</g>
<!-- Node3 -->
<g id="node3" class="node">
<title>Node3</title>
<g id="a_node3"><a xlink:title=" ">
<polygon fill="white" stroke="#bfbfbf" points="96.5,-56.5 96.5,-75.5 167.5,-75.5 167.5,-56.5 96.5,-56.5"/>
<text text-anchor="middle" x="132" y="-63.5" font-family="Helvetica,sans-Serif" font-size="10.00">glad/glad.h</text>
</a>
</g>
</g>
<!-- Node1&#45;&gt;Node3 -->
<g id="edge2" class="edge">
<title>Node1&#45;&gt;Node3</title>
<path fill="none" stroke="midnightblue" d="M196.63,-112.32C184.84,-104.06 166.87,-91.45 152.86,-81.63"/>
<polygon fill="midnightblue" stroke="midnightblue" points="154.54,-78.53 144.34,-75.65 150.52,-84.26 154.54,-78.53"/>
</g>
<!-- Node4 -->
<g id="node4" class="node">
<title>Node4</title>
<g id="a_node4"><a xlink:title=" ">
<polygon fill="white" stroke="#bfbfbf" points="185.5,-56.5 185.5,-75.5 232.5,-75.5 232.5,-56.5 185.5,-56.5"/>
<text text-anchor="middle" x="209" y="-63.5" font-family="Helvetica,sans-Serif" font-size="10.00">vector</text>
</a>
</g>
</g>
<!-- Node1&#45;&gt;Node4 -->
<g id="edge3" class="edge">
<title>Node1&#45;&gt;Node4</title>
<path fill="none" stroke="midnightblue" d="M209,-112.08C209,-105.01 209,-94.86 209,-85.99"/>
<polygon fill="midnightblue" stroke="midnightblue" points="212.5,-85.75 209,-75.75 205.5,-85.75 212.5,-85.75"/>
</g>
<!-- Node5 -->
<g id="node5" class="node">
<title>Node5</title>
<g id="a_node5"><a xlink:title=" ">
<polygon fill="white" stroke="#bfbfbf" points="251,-56.5 251,-75.5 295,-75.5 295,-56.5 251,-56.5"/>
<text text-anchor="middle" x="273" y="-63.5" font-family="Helvetica,sans-Serif" font-size="10.00">string</text>
</a>
</g>
</g>
<!-- Node1&#45;&gt;Node5 -->
<g id="edge4" class="edge">
<title>Node1&#45;&gt;Node5</title>
<path fill="none" stroke="midnightblue" d="M219.28,-112.32C228.84,-104.26 243.28,-92.08 254.78,-82.37"/>
<polygon fill="midnightblue" stroke="midnightblue" points="257.14,-84.96 262.53,-75.83 252.63,-79.61 257.14,-84.96"/>
</g>
<!-- Node6 -->
<g id="node6" class="node">
<title>Node6</title>
<g id="a_node6"><a xlink:href="_asset_8hpp.html" target="_top" xlink:title=" ">
<polygon fill="white" stroke="black" points="313.5,-56.5 313.5,-75.5 450.5,-75.5 450.5,-56.5 313.5,-56.5"/>
<text text-anchor="middle" x="382" y="-63.5" font-family="Helvetica,sans-Serif" font-size="10.00">AssetManager/Asset.hpp</text>
</a>
</g>
</g>
<!-- Node1&#45;&gt;Node6 -->
<g id="edge5" class="edge">
<title>Node1&#45;&gt;Node6</title>
<path fill="none" stroke="midnightblue" d="M236.41,-112.44C265.77,-103.28 312.52,-88.69 345.1,-78.52"/>
<polygon fill="midnightblue" stroke="midnightblue" points="346.21,-81.84 354.72,-75.52 344.13,-75.16 346.21,-81.84"/>
</g>
<!-- Node7 -->
<g id="node7" class="node">
<title>Node7</title>
<g id="a_node7"><a xlink:title=" ">
<polygon fill="white" stroke="#bfbfbf" points="348,-0.5 348,-19.5 416,-19.5 416,-0.5 348,-0.5"/>
<text text-anchor="middle" x="382" y="-7.5" font-family="Helvetica,sans-Serif" font-size="10.00">filesystem</text>
</a>
</g>
</g>
<!-- Node6&#45;&gt;Node7 -->
<g id="edge6" class="edge">
<title>Node6&#45;&gt;Node7</title>
<path fill="none" stroke="midnightblue" d="M382,-56.08C382,-49.01 382,-38.86 382,-29.99"/>
<polygon fill="midnightblue" stroke="midnightblue" points="385.5,-29.75 382,-19.75 378.5,-29.75 385.5,-29.75"/>
</g>
</g>
</svg>
