<?xml version="1.0" encoding="UTF-8" standalone="no"?>
<!DOCTYPE svg PUBLIC "-//W3C//DTD SVG 1.1//EN"
 "http://www.w3.org/Graphics/SVG/1.1/DTD/svg11.dtd">
<!-- Generated by graphviz version 2.43.0 (0)
 -->
<!-- Title: src/AssetManager/Wireframe.hpp Pages: 1 -->
<svg width="787pt" height="159pt"
 viewBox="0.00 0.00 786.50 159.00" xmlns="http://www.w3.org/2000/svg" xmlns:xlink="http://www.w3.org/1999/xlink">
<g id="graph0" class="graph" transform="scale(1 1) rotate(0) translate(4 155)">
<title>src/AssetManager/Wireframe.hpp</title>
<!-- Node1 -->
<g id="Node000001" class="node">
<title>Node1</title>
<g id="a_Node000001"><a xlink:title=" ">
<polygon fill="#999999" stroke="#666666" points="492,-151 313,-151 313,-132 492,-132 492,-151"/>
<text text-anchor="middle" x="402.5" y="-139" font-family="Helvetica,sans-Serif" font-size="10.00">src/AssetManager/Wireframe.hpp</text>
</a>
</g>
</g>
<!-- Node2 -->
<g id="Node000002" class="node">
<title>Node2</title>
<g id="a_Node000002"><a xlink:href="_wireframe_8cpp.html" target="_top" xlink:title=" ">
<polygon fill="white" stroke="#666666" points="218,-90.5 39,-90.5 39,-71.5 218,-71.5 218,-90.5"/>
<text text-anchor="middle" x="128.5" y="-78.5" font-family="Helvetica,sans-Serif" font-size="10.00">src/AssetManager/Wireframe.cpp</text>
</a>
</g>
</g>
<!-- Node1&#45;&gt;Node2 -->
<g id="edge1_Node000001_Node000002" class="edge">
<title>Node1&#45;&gt;Node2</title>
<g id="a_edge1_Node000001_Node000002"><a xlink:title=" ">
<path fill="none" stroke="#63b8ff" d="M352.82,-129.89C299.91,-118.6 217.22,-100.94 168.39,-90.52"/>
<polygon fill="#63b8ff" stroke="#63b8ff" points="352.15,-133.33 362.66,-131.99 353.61,-126.48 352.15,-133.33"/>
</a>
</g>
</g>
<!-- Node3 -->
<g id="Node000003" class="node">
<title>Node3</title>
<g id="a_Node000003"><a xlink:href="_wireframe_component_8hpp.html" target="_top" xlink:title=" ">
<polygon fill="white" stroke="#666666" points="386.5,-96 236.5,-96 236.5,-66 386.5,-66 386.5,-96"/>
<text text-anchor="start" x="244.5" y="-84" font-family="Helvetica,sans-Serif" font-size="10.00">src/Components/Wireframe</text>
<text text-anchor="middle" x="311.5" y="-73" font-family="Helvetica,sans-Serif" font-size="10.00">Component.hpp</text>
</a>
</g>
</g>
<!-- Node1&#45;&gt;Node3 -->
<g id="edge2_Node000001_Node000003" class="edge">
<title>Node1&#45;&gt;Node3</title>
<g id="a_edge2_Node000001_Node000003"><a xlink:title=" ">
<path fill="none" stroke="#63b8ff" d="M380.4,-126.29C366.15,-117.13 347.68,-105.26 333.46,-96.11"/>
<polygon fill="#63b8ff" stroke="#63b8ff" points="378.77,-129.4 389.07,-131.87 382.55,-123.52 378.77,-129.4"/>
</a>
</g>
</g>
<!-- Node8 -->
<g id="Node000008" class="node">
<title>Node8</title>
<g id="a_Node000008"><a xlink:href="_asset_selector_8hpp.html" target="_top" xlink:title=" ">
<polygon fill="white" stroke="#666666" points="584.5,-90.5 404.5,-90.5 404.5,-71.5 584.5,-71.5 584.5,-90.5"/>
<text text-anchor="middle" x="494.5" y="-78.5" font-family="Helvetica,sans-Serif" font-size="10.00">src/ui/Common/AssetSelector.hpp</text>
</a>
</g>
</g>
<!-- Node1&#45;&gt;Node8 -->
<g id="edge7_Node000001_Node000008" class="edge">
<title>Node1&#45;&gt;Node8</title>
<g id="a_edge7_Node000001_Node000008"><a xlink:title=" ">
<path fill="none" stroke="#63b8ff" d="M424.57,-126.47C442.09,-115.32 466.03,-100.1 480.87,-90.67"/>
<polygon fill="#63b8ff" stroke="#63b8ff" points="422.64,-123.55 416.07,-131.87 426.39,-129.46 422.64,-123.55"/>
</a>
</g>
</g>
<!-- Node9 -->
<g id="Node000009" class="node">
<title>Node9</title>
<g id="a_Node000009"><a xlink:href="_profiler_widget_8cpp.html" target="_top" xlink:title=" ">
<polygon fill="white" stroke="#666666" points="778.5,-90.5 602.5,-90.5 602.5,-71.5 778.5,-71.5 778.5,-90.5"/>
<text text-anchor="middle" x="690.5" y="-78.5" font-family="Helvetica,sans-Serif" font-size="10.00">src/ui/widgets/ProfilerWidget.cpp</text>
</a>
</g>
</g>
<!-- Node1&#45;&gt;Node9 -->
<g id="edge8_Node000001_Node000009" class="edge">
<title>Node1&#45;&gt;Node9</title>
<g id="a_edge8_Node000001_Node000009"><a xlink:title=" ">
<path fill="none" stroke="#63b8ff" d="M454.38,-129.96C509.97,-118.67 597.14,-100.96 648.57,-90.52"/>
<polygon fill="#63b8ff" stroke="#63b8ff" points="453.48,-126.57 444.38,-131.99 454.87,-133.43 453.48,-126.57"/>
</a>
</g>
</g>
<!-- Node4 -->
<g id="Node000004" class="node">
<title>Node4</title>
<g id="a_Node000004"><a xlink:href="_rendering_system_8cpp.html" target="_top" xlink:title=" ">
<polygon fill="white" stroke="#666666" points="185,-24.5 0,-24.5 0,-5.5 185,-5.5 185,-24.5"/>
<text text-anchor="middle" x="92.5" y="-12.5" font-family="Helvetica,sans-Serif" font-size="10.00">src/Systems/RenderingSystem.cpp</text>
</a>
</g>
</g>
<!-- Node3&#45;&gt;Node4 -->
<g id="edge3_Node000003_Node000004" class="edge">
<title>Node3&#45;&gt;Node4</title>
<g id="a_edge3_Node000003_Node000004"><a xlink:title=" ">
<path fill="none" stroke="#63b8ff" d="M253.77,-63.13C211.26,-50.71 155.23,-34.33 121.65,-24.52"/>
<polygon fill="#63b8ff" stroke="#63b8ff" points="252.86,-66.51 263.44,-65.95 254.82,-59.79 252.86,-66.51"/>
</a>
</g>
</g>
<!-- Node5 -->
<g id="Node000005" class="node">
<title>Node5</title>
<g id="a_Node000005"><a xlink:href="main_8cpp.html" target="_top" xlink:title=" ">
<polygon fill="white" stroke="#666666" points="282,-24.5 203,-24.5 203,-5.5 282,-5.5 282,-24.5"/>
<text text-anchor="middle" x="242.5" y="-12.5" font-family="Helvetica,sans-Serif" font-size="10.00">src/main.cpp</text>
</a>
</g>
</g>
<!-- Node3&#45;&gt;Node5 -->
<g id="edge4_Node000003_Node000005" class="edge">
<title>Node3&#45;&gt;Node5</title>
<g id="a_edge4_Node000003_Node000005"><a xlink:title=" ">
<path fill="none" stroke="#63b8ff" d="M288.79,-58.93C276.3,-47.35 261.48,-33.61 252.04,-24.84"/>
<polygon fill="#63b8ff" stroke="#63b8ff" points="286.47,-61.56 296.19,-65.8 291.24,-56.43 286.47,-61.56"/>
</a>
</g>
</g>
<!-- Node6 -->
<g id="Node000006" class="node">
<title>Node6</title>
<g id="a_Node000006"><a xlink:href="_wireframe_component_u_i_8hpp.html" target="_top" xlink:title=" ">
<polygon fill="white" stroke="#666666" points="462.5,-30 300.5,-30 300.5,0 462.5,0 462.5,-30"/>
<text text-anchor="start" x="308.5" y="-18" font-family="Helvetica,sans-Serif" font-size="10.00">src/ui/Components/Wireframe</text>
<text text-anchor="middle" x="381.5" y="-7" font-family="Helvetica,sans-Serif" font-size="10.00">ComponentUI.hpp</text>
</a>
</g>
</g>
<!-- Node3&#45;&gt;Node6 -->
<g id="edge5_Node000003_Node000006" class="edge">
<title>Node3&#45;&gt;Node6</title>
<g id="a_edge5_Node000003_Node000006"><a xlink:title=" ">
<path fill="none" stroke="#63b8ff" d="M334.55,-58.92C344.87,-49.49 356.77,-38.61 366.01,-30.16"/>
<polygon fill="#63b8ff" stroke="#63b8ff" points="332.05,-56.47 327.04,-65.8 336.78,-61.63 332.05,-56.47"/>
</a>
</g>
</g>
<!-- Node7 -->
<g id="Node000007" class="node">
<title>Node7</title>
<g id="a_Node000007"><a xlink:href="_properties_widget_8cpp.html" target="_top" xlink:title=" ">
<polygon fill="white" stroke="#666666" points="618,-30 481,-30 481,0 618,0 618,-30"/>
<text text-anchor="start" x="489" y="-18" font-family="Helvetica,sans-Serif" font-size="10.00">src/ui/widgets/Properties</text>
<text text-anchor="middle" x="549.5" y="-7" font-family="Helvetica,sans-Serif" font-size="10.00">Widget.cpp</text>
</a>
</g>
</g>
<!-- Node3&#45;&gt;Node7 -->
<g id="edge6_Node000003_Node000007" class="edge">
<title>Node3&#45;&gt;Node7</title>
<g id="a_edge6_Node000003_Node000007"><a xlink:title=" ">
<path fill="none" stroke="#63b8ff" d="M373.78,-63.25C412.23,-52.91 460.99,-39.8 497.39,-30.01"/>
<polygon fill="#63b8ff" stroke="#63b8ff" points="372.48,-59.98 363.73,-65.95 374.3,-66.74 372.48,-59.98"/>
</a>
</g>
</g>
</g>
</svg>
