<?xml version="1.0" encoding="UTF-8" standalone="no"?>
<!DOCTYPE svg PUBLIC "-//W3C//DTD SVG 1.1//EN"
 "http://www.w3.org/Graphics/SVG/1.1/DTD/svg11.dtd">
<!-- Generated by graphviz version 2.43.0 (0)
 -->
<!-- Title: src/ui/Components/WireframeComponentUI.cpp Pages: 1 -->
<svg width="516pt" height="225pt"
 viewBox="0.00 0.00 516.00 225.00" xmlns="http://www.w3.org/2000/svg" xmlns:xlink="http://www.w3.org/1999/xlink">
<g id="graph0" class="graph" transform="scale(1 1) rotate(0) translate(4 221)">
<title>src/ui/Components/WireframeComponentUI.cpp</title>
<!-- Node1 -->
<g id="Node000001" class="node">
<title>Node1</title>
<g id="a_Node000001"><a xlink:title=" ">
<polygon fill="#999999" stroke="#666666" points="253.5,-217 91.5,-217 91.5,-187 253.5,-187 253.5,-217"/>
<text text-anchor="start" x="99.5" y="-205" font-family="Helvetica,sans-Serif" font-size="10.00">src/ui/Components/Wireframe</text>
<text text-anchor="middle" x="172.5" y="-194" font-family="Helvetica,sans-Serif" font-size="10.00">ComponentUI.cpp</text>
</a>
</g>
</g>
<!-- Node2 -->
<g id="Node000002" class="node">
<title>Node2</title>
<g id="a_Node000002"><a xlink:title=" ">
<polygon fill="#e0e0e0" stroke="#999999" points="53,-145.5 0,-145.5 0,-126.5 53,-126.5 53,-145.5"/>
<text text-anchor="middle" x="26.5" y="-133.5" font-family="Helvetica,sans-Serif" font-size="10.00">imgui.h</text>
</a>
</g>
</g>
<!-- Node1&#45;&gt;Node2 -->
<g id="edge1_Node000001_Node000002" class="edge">
<title>Node1&#45;&gt;Node2</title>
<g id="a_edge1_Node000001_Node000002"><a xlink:title=" ">
<path fill="none" stroke="#63b8ff" d="M140.46,-186.95C115.08,-175.83 79.94,-160.42 55.41,-149.67"/>
<polygon fill="#63b8ff" stroke="#63b8ff" points="56.49,-146.33 45.93,-145.52 53.68,-152.74 56.49,-146.33"/>
</a>
</g>
</g>
<!-- Node3 -->
<g id="Node000003" class="node">
<title>Node3</title>
<g id="a_Node000003"><a xlink:title=" ">
<polygon fill="#e0e0e0" stroke="#999999" points="274,-151 71,-151 71,-121 274,-121 274,-151"/>
<text text-anchor="start" x="79" y="-139" font-family="Helvetica,sans-Serif" font-size="10.00">UI/Components/WireframeComponent</text>
<text text-anchor="middle" x="172.5" y="-128" font-family="Helvetica,sans-Serif" font-size="10.00">UI.hpp</text>
</a>
</g>
</g>
<!-- Node1&#45;&gt;Node3 -->
<g id="edge2_Node000001_Node000003" class="edge">
<title>Node1&#45;&gt;Node3</title>
<g id="a_edge2_Node000001_Node000003"><a xlink:title=" ">
<path fill="none" stroke="#63b8ff" d="M172.5,-186.8C172.5,-179.34 172.5,-169.99 172.5,-161.41"/>
<polygon fill="#63b8ff" stroke="#63b8ff" points="176,-161.16 172.5,-151.16 169,-161.16 176,-161.16"/>
</a>
</g>
</g>
<!-- Node4 -->
<g id="Node000004" class="node">
<title>Node4</title>
<g id="a_Node000004"><a xlink:href="_image_8hpp.html" target="_top" xlink:title=" ">
<polygon fill="white" stroke="#666666" points="433,-145.5 292,-145.5 292,-126.5 433,-126.5 433,-145.5"/>
<text text-anchor="middle" x="362.5" y="-133.5" font-family="Helvetica,sans-Serif" font-size="10.00">AssetManager/Image.hpp</text>
</a>
</g>
</g>
<!-- Node1&#45;&gt;Node4 -->
<g id="edge3_Node000001_Node000004" class="edge">
<title>Node1&#45;&gt;Node4</title>
<g id="a_edge3_Node000001_Node000004"><a xlink:title=" ">
<path fill="none" stroke="#63b8ff" d="M214.2,-186.95C248.1,-175.53 295.41,-159.6 327.4,-148.82"/>
<polygon fill="#63b8ff" stroke="#63b8ff" points="328.85,-152.03 337.21,-145.52 326.62,-145.39 328.85,-152.03"/>
</a>
</g>
</g>
<!-- Node5 -->
<g id="Node000005" class="node">
<title>Node5</title>
<g id="a_Node000005"><a xlink:title=" ">
<polygon fill="#e0e0e0" stroke="#999999" points="396.5,-19 328.5,-19 328.5,0 396.5,0 396.5,-19"/>
<text text-anchor="middle" x="362.5" y="-7" font-family="Helvetica,sans-Serif" font-size="10.00">filesystem</text>
</a>
</g>
</g>
<!-- Node4&#45;&gt;Node5 -->
<g id="edge4_Node000004_Node000005" class="edge">
<title>Node4&#45;&gt;Node5</title>
<g id="a_edge4_Node000004_Node000005"><a xlink:title=" ">
<path fill="none" stroke="#63b8ff" d="M352.58,-126.21C343.03,-117.02 329.23,-101.66 323.5,-85 319.16,-72.39 318.81,-67.48 323.5,-55 327.68,-43.89 336.02,-33.75 343.93,-25.96"/>
<polygon fill="#63b8ff" stroke="#63b8ff" points="346.51,-28.35 351.51,-19.01 341.78,-23.19 346.51,-28.35"/>
</a>
</g>
</g>
<!-- Node6 -->
<g id="Node000006" class="node">
<title>Node6</title>
<g id="a_Node000006"><a xlink:href="_path_constructible_asset_8hpp.html" target="_top" xlink:title=" ">
<polygon fill="white" stroke="#666666" points="508,-85 333,-85 333,-55 508,-55 508,-85"/>
<text text-anchor="start" x="341" y="-73" font-family="Helvetica,sans-Serif" font-size="10.00">AssetManager/PathConstructible</text>
<text text-anchor="middle" x="420.5" y="-62" font-family="Helvetica,sans-Serif" font-size="10.00">Asset.hpp</text>
</a>
</g>
</g>
<!-- Node4&#45;&gt;Node6 -->
<g id="edge5_Node000004_Node000006" class="edge">
<title>Node4&#45;&gt;Node6</title>
<g id="a_edge5_Node000004_Node000006"><a xlink:title=" ">
<path fill="none" stroke="#63b8ff" d="M370.32,-126.37C378.06,-117.83 390.22,-104.41 400.63,-92.92"/>
<polygon fill="#63b8ff" stroke="#63b8ff" points="403.36,-95.12 407.49,-85.36 398.18,-90.42 403.36,-95.12"/>
</a>
</g>
</g>
<!-- Node6&#45;&gt;Node5 -->
<g id="edge6_Node000006_Node000005" class="edge">
<title>Node6&#45;&gt;Node5</title>
<g id="a_edge6_Node000006_Node000005"><a xlink:title=" ">
<path fill="none" stroke="#63b8ff" d="M406.46,-54.84C397.95,-46.26 387.09,-35.3 378.28,-26.42"/>
<polygon fill="#63b8ff" stroke="#63b8ff" points="380.72,-23.9 371.19,-19.27 375.75,-28.83 380.72,-23.9"/>
</a>
</g>
</g>
</g>
</svg>
