<?xml version="1.0" encoding="UTF-8" standalone="no"?>
<!DOCTYPE svg PUBLIC "-//W3C//DTD SVG 1.1//EN"
 "http://www.w3.org/Graphics/SVG/1.1/DTD/svg11.dtd">
<!-- Generated by graphviz version 2.43.0 (0)
 -->
<!-- Title: src/AssetManager/Wireframe.cpp Pages: 1 -->
<svg width="830pt" height="313pt"
 viewBox="0.00 0.00 830.00 313.00" xmlns="http://www.w3.org/2000/svg" xmlns:xlink="http://www.w3.org/1999/xlink">
<g id="graph0" class="graph" transform="scale(1 1) rotate(0) translate(4 309)">
<title>src/AssetManager/Wireframe.cpp</title>
<!-- Node1 -->
<g id="Node000001" class="node">
<title>Node1</title>
<g id="a_Node000001"><a xlink:title=" ">
<polygon fill="#999999" stroke="#666666" points="719.5,-305 540.5,-305 540.5,-286 719.5,-286 719.5,-305"/>
<text text-anchor="middle" x="630" y="-293" font-family="Helvetica,sans-Serif" font-size="10.00">src/AssetManager/Wireframe.cpp</text>
</a>
</g>
</g>
<!-- Node2 -->
<g id="Node000002" class="node">
<title>Node2</title>
<g id="a_Node000002"><a xlink:href="_wireframe_8hpp.html" target="_top" xlink:title=" ">
<polygon fill="white" stroke="#666666" points="316,-250 154,-250 154,-231 316,-231 316,-250"/>
<text text-anchor="middle" x="235" y="-238" font-family="Helvetica,sans-Serif" font-size="10.00">AssetManager/Wireframe.hpp</text>
</a>
</g>
</g>
<!-- Node1&#45;&gt;Node2 -->
<g id="edge1_Node000001_Node000002" class="edge">
<title>Node1&#45;&gt;Node2</title>
<g id="a_edge1_Node000001_Node000002"><a xlink:title=" ">
<path fill="none" stroke="#63b8ff" d="M566.54,-285.98C496.24,-276.55 383.05,-261.36 308.84,-251.41"/>
<polygon fill="#63b8ff" stroke="#63b8ff" points="309.01,-247.9 298.63,-250.04 308.08,-254.84 309.01,-247.9"/>
</a>
</g>
</g>
<!-- Node16 -->
<g id="Node000016" class="node">
<title>Node16</title>
<g id="a_Node000016"><a xlink:href="_logger_8hpp.html" target="_top" xlink:title=" ">
<polygon fill="white" stroke="#666666" points="625.5,-250 508.5,-250 508.5,-231 625.5,-231 625.5,-250"/>
<text text-anchor="middle" x="567" y="-238" font-family="Helvetica,sans-Serif" font-size="10.00">Common/Logger.hpp</text>
</a>
</g>
</g>
<!-- Node1&#45;&gt;Node16 -->
<g id="edge16_Node000001_Node000016" class="edge">
<title>Node1&#45;&gt;Node16</title>
<g id="a_edge16_Node000001_Node000016"><a xlink:title=" ">
<path fill="none" stroke="#63b8ff" d="M619.88,-285.98C610.56,-278.15 596.53,-266.34 585.26,-256.86"/>
<polygon fill="#63b8ff" stroke="#63b8ff" points="587.21,-253.93 577.31,-250.17 582.71,-259.29 587.21,-253.93"/>
</a>
</g>
</g>
<!-- Node18 -->
<g id="Node000018" class="node">
<title>Node18</title>
<g id="a_Node000018"><a xlink:title=" ">
<polygon fill="#e0e0e0" stroke="#999999" points="744,-250 644,-250 644,-231 744,-231 744,-250"/>
<text text-anchor="middle" x="694" y="-238" font-family="Helvetica,sans-Serif" font-size="10.00">tiny_obj_loader.h</text>
</a>
</g>
</g>
<!-- Node1&#45;&gt;Node18 -->
<g id="edge19_Node000001_Node000018" class="edge">
<title>Node1&#45;&gt;Node18</title>
<g id="a_edge19_Node000001_Node000018"><a xlink:title=" ">
<path fill="none" stroke="#63b8ff" d="M640.28,-285.98C649.84,-278.07 664.28,-266.11 675.78,-256.58"/>
<polygon fill="#63b8ff" stroke="#63b8ff" points="678.06,-259.24 683.53,-250.17 673.6,-253.85 678.06,-259.24"/>
</a>
</g>
</g>
<!-- Node19 -->
<g id="Node000019" class="node">
<title>Node19</title>
<g id="a_Node000019"><a xlink:title=" ">
<polygon fill="#e0e0e0" stroke="#999999" points="822,-250 762,-250 762,-231 822,-231 822,-250"/>
<text text-anchor="middle" x="792" y="-238" font-family="Helvetica,sans-Serif" font-size="10.00">iostream</text>
</a>
</g>
</g>
<!-- Node1&#45;&gt;Node19 -->
<g id="edge20_Node000001_Node000019" class="edge">
<title>Node1&#45;&gt;Node19</title>
<g id="a_edge20_Node000001_Node000019"><a xlink:title=" ">
<path fill="none" stroke="#63b8ff" d="M656.03,-285.98C683.11,-277.13 725.71,-263.19 756.01,-253.28"/>
<polygon fill="#63b8ff" stroke="#63b8ff" points="757.35,-256.52 765.77,-250.08 755.18,-249.87 757.35,-256.52"/>
</a>
</g>
</g>
<!-- Node3 -->
<g id="Node000003" class="node">
<title>Node3</title>
<g id="a_Node000003"><a xlink:title=" ">
<polygon fill="#e0e0e0" stroke="#999999" points="78,-189.5 0,-189.5 0,-170.5 78,-170.5 78,-189.5"/>
<text text-anchor="middle" x="39" y="-177.5" font-family="Helvetica,sans-Serif" font-size="10.00">glm/glm.hpp</text>
</a>
</g>
</g>
<!-- Node2&#45;&gt;Node3 -->
<g id="edge2_Node000002_Node000003" class="edge">
<title>Node2&#45;&gt;Node3</title>
<g id="a_edge2_Node000002_Node000003"><a xlink:title=" ">
<path fill="none" stroke="#63b8ff" d="M206.5,-230.99C172.39,-220.81 115.13,-203.72 77.21,-192.4"/>
<polygon fill="#63b8ff" stroke="#63b8ff" points="78.12,-189.02 67.53,-189.52 76.12,-195.73 78.12,-189.02"/>
</a>
</g>
</g>
<!-- Node4 -->
<g id="Node000004" class="node">
<title>Node4</title>
<g id="a_Node000004"><a xlink:title=" ">
<polygon fill="#e0e0e0" stroke="#999999" points="167.5,-189.5 96.5,-189.5 96.5,-170.5 167.5,-170.5 167.5,-189.5"/>
<text text-anchor="middle" x="132" y="-177.5" font-family="Helvetica,sans-Serif" font-size="10.00">glad/glad.h</text>
</a>
</g>
</g>
<!-- Node2&#45;&gt;Node4 -->
<g id="edge3_Node000002_Node000004" class="edge">
<title>Node2&#45;&gt;Node4</title>
<g id="a_edge3_Node000002_Node000004"><a xlink:title=" ">
<path fill="none" stroke="#63b8ff" d="M219.8,-230.87C202.99,-221.32 175.68,-205.81 155.98,-194.62"/>
<polygon fill="#63b8ff" stroke="#63b8ff" points="157.68,-191.56 147.26,-189.67 154.23,-197.65 157.68,-191.56"/>
</a>
</g>
</g>
<!-- Node5 -->
<g id="Node000005" class="node">
<title>Node5</title>
<g id="a_Node000005"><a xlink:title=" ">
<polygon fill="#e0e0e0" stroke="#999999" points="232.5,-189.5 185.5,-189.5 185.5,-170.5 232.5,-170.5 232.5,-189.5"/>
<text text-anchor="middle" x="209" y="-177.5" font-family="Helvetica,sans-Serif" font-size="10.00">vector</text>
</a>
</g>
</g>
<!-- Node2&#45;&gt;Node5 -->
<g id="edge4_Node000002_Node000005" class="edge">
<title>Node2&#45;&gt;Node5</title>
<g id="a_edge4_Node000002_Node000005"><a xlink:title=" ">
<path fill="none" stroke="#63b8ff" d="M231.16,-230.87C227.44,-222.49 221.67,-209.51 216.95,-198.89"/>
<polygon fill="#63b8ff" stroke="#63b8ff" points="220.11,-197.38 212.85,-189.67 213.72,-200.23 220.11,-197.38"/>
</a>
</g>
</g>
<!-- Node6 -->
<g id="Node000006" class="node">
<title>Node6</title>
<g id="a_Node000006"><a xlink:title=" ">
<polygon fill="#e0e0e0" stroke="#999999" points="309,-19 265,-19 265,0 309,0 309,-19"/>
<text text-anchor="middle" x="287" y="-7" font-family="Helvetica,sans-Serif" font-size="10.00">string</text>
</a>
</g>
</g>
<!-- Node2&#45;&gt;Node6 -->
<g id="edge5_Node000002_Node000006" class="edge">
<title>Node2&#45;&gt;Node6</title>
<g id="a_edge5_Node000002_Node000006"><a xlink:title=" ">
<path fill="none" stroke="#63b8ff" d="M236.97,-230.8C244.58,-197.29 272.11,-76.08 282.75,-29.2"/>
<polygon fill="#63b8ff" stroke="#63b8ff" points="286.22,-29.73 285.02,-19.21 279.4,-28.18 286.22,-29.73"/>
</a>
</g>
</g>
<!-- Node7 -->
<g id="Node000007" class="node">
<title>Node7</title>
<g id="a_Node000007"><a xlink:href="_path_constructible_asset_8hpp.html" target="_top" xlink:title=" ">
<polygon fill="white" stroke="#666666" points="464.5,-195 289.5,-195 289.5,-165 464.5,-165 464.5,-195"/>
<text text-anchor="start" x="297.5" y="-183" font-family="Helvetica,sans-Serif" font-size="10.00">AssetManager/PathConstructible</text>
<text text-anchor="middle" x="377" y="-172" font-family="Helvetica,sans-Serif" font-size="10.00">Asset.hpp</text>
</a>
</g>
</g>
<!-- Node2&#45;&gt;Node7 -->
<g id="edge6_Node000002_Node000007" class="edge">
<title>Node2&#45;&gt;Node7</title>
<g id="a_edge6_Node000002_Node000007"><a xlink:title=" ">
<path fill="none" stroke="#63b8ff" d="M255.65,-230.99C275.99,-222.61 307.71,-209.55 333.61,-198.87"/>
<polygon fill="#63b8ff" stroke="#63b8ff" points="334.95,-202.11 342.86,-195.06 332.28,-195.64 334.95,-202.11"/>
</a>
</g>
</g>
<!-- Node8 -->
<g id="Node000008" class="node">
<title>Node8</title>
<g id="a_Node000008"><a xlink:title=" ">
<polygon fill="#e0e0e0" stroke="#999999" points="357,-129 289,-129 289,-110 357,-110 357,-129"/>
<text text-anchor="middle" x="323" y="-117" font-family="Helvetica,sans-Serif" font-size="10.00">filesystem</text>
</a>
</g>
</g>
<!-- Node7&#45;&gt;Node8 -->
<g id="edge7_Node000007_Node000008" class="edge">
<title>Node7&#45;&gt;Node8</title>
<g id="a_edge7_Node000007_Node000008"><a xlink:title=" ">
<path fill="none" stroke="#63b8ff" d="M363.93,-164.84C356.09,-156.35 346.09,-145.52 337.94,-136.69"/>
<polygon fill="#63b8ff" stroke="#63b8ff" points="340.45,-134.24 331.09,-129.27 335.3,-138.99 340.45,-134.24"/>
</a>
</g>
</g>
<!-- Node9 -->
<g id="Node000009" class="node">
<title>Node9</title>
<g id="a_Node000009"><a xlink:href="_instance_counter_8hpp.html" target="_top" xlink:title=" ">
<polygon fill="white" stroke="#666666" points="539,-129 375,-129 375,-110 539,-110 539,-129"/>
<text text-anchor="middle" x="457" y="-117" font-family="Helvetica,sans-Serif" font-size="10.00">Common/InstanceCounter.hpp</text>
</a>
</g>
</g>
<!-- Node7&#45;&gt;Node9 -->
<g id="edge8_Node000007_Node000009" class="edge">
<title>Node7&#45;&gt;Node9</title>
<g id="a_edge8_Node000007_Node000009"><a xlink:title=" ">
<path fill="none" stroke="#63b8ff" d="M396.37,-164.84C408.57,-155.91 424.31,-144.41 436.69,-135.35"/>
<polygon fill="#63b8ff" stroke="#63b8ff" points="439.01,-137.99 445.01,-129.27 434.87,-132.34 439.01,-137.99"/>
</a>
</g>
</g>
<!-- Node10 -->
<g id="Node000010" class="node">
<title>Node10</title>
<g id="a_Node000010"><a xlink:title=" ">
<polygon fill="#e0e0e0" stroke="#999999" points="379,-74 329,-74 329,-55 379,-55 379,-74"/>
<text text-anchor="middle" x="354" y="-62" font-family="Helvetica,sans-Serif" font-size="10.00">atomic</text>
</a>
</g>
</g>
<!-- Node9&#45;&gt;Node10 -->
<g id="edge9_Node000009_Node000010" class="edge">
<title>Node9&#45;&gt;Node10</title>
<g id="a_edge9_Node000009_Node000010"><a xlink:title=" ">
<path fill="none" stroke="#63b8ff" d="M440.45,-109.98C424.11,-101.57 398.87,-88.59 379.87,-78.81"/>
<polygon fill="#63b8ff" stroke="#63b8ff" points="381.34,-75.63 370.85,-74.17 378.14,-81.86 381.34,-75.63"/>
</a>
</g>
</g>
<!-- Node11 -->
<g id="Node000011" class="node">
<title>Node11</title>
<g id="a_Node000011"><a xlink:href="_profiler_8hpp.html" target="_top" xlink:title=" ">
<polygon fill="white" stroke="#666666" points="516.5,-74 397.5,-74 397.5,-55 516.5,-55 516.5,-74"/>
<text text-anchor="middle" x="457" y="-62" font-family="Helvetica,sans-Serif" font-size="10.00">Common/Profiler.hpp</text>
</a>
</g>
</g>
<!-- Node9&#45;&gt;Node11 -->
<g id="edge10_Node000009_Node000011" class="edge">
<title>Node9&#45;&gt;Node11</title>
<g id="a_edge10_Node000009_Node000011"><a xlink:title=" ">
<path fill="none" stroke="#63b8ff" d="M457,-109.75C457,-102.8 457,-92.85 457,-84.13"/>
<polygon fill="#63b8ff" stroke="#63b8ff" points="460.5,-84.09 457,-74.09 453.5,-84.09 460.5,-84.09"/>
</a>
</g>
</g>
<!-- Node11&#45;&gt;Node6 -->
<g id="edge15_Node000011_Node000006" class="edge">
<title>Node11&#45;&gt;Node6</title>
<g id="a_edge15_Node000011_Node000006"><a xlink:title=" ">
<path fill="none" stroke="#63b8ff" d="M429.69,-54.98C399.45,-45.56 350.78,-30.38 318.84,-20.43"/>
<polygon fill="#63b8ff" stroke="#63b8ff" points="319.69,-17.03 309.1,-17.39 317.61,-23.71 319.69,-17.03"/>
</a>
</g>
</g>
<!-- Node12 -->
<g id="Node000012" class="node">
<title>Node12</title>
<g id="a_Node000012"><a xlink:title=" ">
<polygon fill="#e0e0e0" stroke="#999999" points="403,-19 353,-19 353,0 403,0 403,-19"/>
<text text-anchor="middle" x="378" y="-7" font-family="Helvetica,sans-Serif" font-size="10.00">chrono</text>
</a>
</g>
</g>
<!-- Node11&#45;&gt;Node12 -->
<g id="edge11_Node000011_Node000012" class="edge">
<title>Node11&#45;&gt;Node12</title>
<g id="a_edge11_Node000011_Node000012"><a xlink:title=" ">
<path fill="none" stroke="#63b8ff" d="M444.31,-54.98C432.17,-46.84 413.64,-34.41 399.25,-24.76"/>
<polygon fill="#63b8ff" stroke="#63b8ff" points="401.18,-21.84 390.92,-19.17 397.28,-27.65 401.18,-21.84"/>
</a>
</g>
</g>
<!-- Node13 -->
<g id="Node000013" class="node">
<title>Node13</title>
<g id="a_Node000013"><a xlink:title=" ">
<polygon fill="#e0e0e0" stroke="#999999" points="469,-19 421,-19 421,0 469,0 469,-19"/>
<text text-anchor="middle" x="445" y="-7" font-family="Helvetica,sans-Serif" font-size="10.00">thread</text>
</a>
</g>
</g>
<!-- Node11&#45;&gt;Node13 -->
<g id="edge12_Node000011_Node000013" class="edge">
<title>Node11&#45;&gt;Node13</title>
<g id="a_edge12_Node000011_Node000013"><a xlink:title=" ">
<path fill="none" stroke="#63b8ff" d="M455.02,-54.75C453.43,-47.72 451.14,-37.62 449.15,-28.84"/>
<polygon fill="#63b8ff" stroke="#63b8ff" points="452.57,-28.07 446.94,-19.09 445.74,-29.62 452.57,-28.07"/>
</a>
</g>
</g>
<!-- Node14 -->
<g id="Node000014" class="node">
<title>Node14</title>
<g id="a_Node000014"><a xlink:title=" ">
<polygon fill="#e0e0e0" stroke="#999999" points="591,-19 543,-19 543,0 591,0 591,-19"/>
<text text-anchor="middle" x="567" y="-7" font-family="Helvetica,sans-Serif" font-size="10.00">mutex</text>
</a>
</g>
</g>
<!-- Node11&#45;&gt;Node14 -->
<g id="edge13_Node000011_Node000014" class="edge">
<title>Node11&#45;&gt;Node14</title>
<g id="a_edge13_Node000011_Node000014"><a xlink:title=" ">
<path fill="none" stroke="#63b8ff" d="M474.67,-54.98C492.29,-46.5 519.58,-33.35 539.93,-23.54"/>
<polygon fill="#63b8ff" stroke="#63b8ff" points="541.52,-26.66 549.01,-19.17 538.48,-20.36 541.52,-26.66"/>
</a>
</g>
</g>
<!-- Node15 -->
<g id="Node000015" class="node">
<title>Node15</title>
<g id="a_Node000015"><a xlink:title=" ">
<polygon fill="#e0e0e0" stroke="#999999" points="525,-19 487,-19 487,0 525,0 525,-19"/>
<text text-anchor="middle" x="506" y="-7" font-family="Helvetica,sans-Serif" font-size="10.00">map</text>
</a>
</g>
</g>
<!-- Node11&#45;&gt;Node15 -->
<g id="edge14_Node000011_Node000015" class="edge">
<title>Node11&#45;&gt;Node15</title>
<g id="a_edge14_Node000011_Node000015"><a xlink:title=" ">
<path fill="none" stroke="#63b8ff" d="M465.09,-54.75C472.16,-47.11 482.59,-35.82 491.15,-26.56"/>
<polygon fill="#63b8ff" stroke="#63b8ff" points="493.84,-28.81 498.06,-19.09 488.7,-24.06 493.84,-28.81"/>
</a>
</g>
</g>
<!-- Node16&#45;&gt;Node14 -->
<g id="edge17_Node000016_Node000014" class="edge">
<title>Node16&#45;&gt;Node14</title>
<g id="a_edge17_Node000016_Node000014"><a xlink:title=" ">
<path fill="none" stroke="#63b8ff" d="M567,-230.8C567,-197.36 567,-76.59 567,-29.49"/>
<polygon fill="#63b8ff" stroke="#63b8ff" points="570.5,-29.21 567,-19.21 563.5,-29.21 570.5,-29.21"/>
</a>
</g>
</g>
<!-- Node17 -->
<g id="Node000017" class="node">
<title>Node17</title>
<g id="a_Node000017"><a xlink:title=" ">
<polygon fill="#e0e0e0" stroke="#999999" points="642.5,-189.5 595.5,-189.5 595.5,-170.5 642.5,-170.5 642.5,-189.5"/>
<text text-anchor="middle" x="619" y="-177.5" font-family="Helvetica,sans-Serif" font-size="10.00">queue</text>
</a>
</g>
</g>
<!-- Node16&#45;&gt;Node17 -->
<g id="edge18_Node000016_Node000017" class="edge">
<title>Node16&#45;&gt;Node17</title>
<g id="a_edge18_Node000016_Node000017"><a xlink:title=" ">
<path fill="none" stroke="#63b8ff" d="M574.67,-230.87C582.51,-222.05 594.86,-208.16 604.54,-197.27"/>
<polygon fill="#63b8ff" stroke="#63b8ff" points="607.27,-199.47 611.3,-189.67 602.04,-194.82 607.27,-199.47"/>
</a>
</g>
</g>
</g>
</svg>
