<?xml version="1.0" encoding="UTF-8" standalone="no"?>
<!DOCTYPE svg PUBLIC "-//W3C//DTD SVG 1.1//EN"
 "http://www.w3.org/Graphics/SVG/1.1/DTD/svg11.dtd">
<!-- Generated by graphviz version 2.43.0 (0)
 -->
<!-- Title: src/AssetManager/Wireframe.cpp Pages: 1 -->
<svg width="851pt" height="478pt"
 viewBox="0.00 0.00 851.38 478.00" xmlns="http://www.w3.org/2000/svg" xmlns:xlink="http://www.w3.org/1999/xlink">
<g id="graph0" class="graph" transform="scale(1 1) rotate(0) translate(4 474)">
<title>src/AssetManager/Wireframe.cpp</title>
<!-- Node1 -->
<g id="Node000001" class="node">
<title>Node1</title>
<g id="a_Node000001"><a xlink:title=" ">
<polygon fill="#999999" stroke="#666666" points="765.88,-470 586.88,-470 586.88,-451 765.88,-451 765.88,-470"/>
<text text-anchor="middle" x="676.38" y="-458" font-family="Helvetica,sans-Serif" font-size="10.00">src/AssetManager/Wireframe.cpp</text>
</a>
</g>
</g>
<!-- Node2 -->
<g id="Node000002" class="node">
<title>Node2</title>
<g id="a_Node000002"><a xlink:href="_wireframe_8hpp.html" target="_top" xlink:title=" ">
<polygon fill="white" stroke="#666666" points="479.38,-415 317.38,-415 317.38,-396 479.38,-396 479.38,-415"/>
<text text-anchor="middle" x="398.38" y="-403" font-family="Helvetica,sans-Serif" font-size="10.00">AssetManager/Wireframe.hpp</text>
</a>
</g>
</g>
<!-- Node1&#45;&gt;Node2 -->
<g id="edge1_Node000001_Node000002" class="edge">
<title>Node1&#45;&gt;Node2</title>
<g id="a_edge1_Node000001_Node000002"><a xlink:title=" ">
<path fill="none" stroke="#63b8ff" d="M631.71,-450.98C583.22,-441.74 505.73,-426.97 453.49,-417.01"/>
<polygon fill="#63b8ff" stroke="#63b8ff" points="453.87,-413.52 443.39,-415.08 452.56,-420.39 453.87,-413.52"/>
</a>
</g>
</g>
<!-- Node12 -->
<g id="Node000012" class="node">
<title>Node12</title>
<g id="a_Node000012"><a xlink:href="_logger_8hpp.html" target="_top" xlink:title=" ">
<polygon fill="white" stroke="#666666" points="701.88,-184 584.88,-184 584.88,-165 701.88,-165 701.88,-184"/>
<text text-anchor="middle" x="643.38" y="-172" font-family="Helvetica,sans-Serif" font-size="10.00">Common/Logger.hpp</text>
</a>
</g>
</g>
<!-- Node1&#45;&gt;Node12 -->
<g id="edge29_Node000001_Node000012" class="edge">
<title>Node1&#45;&gt;Node12</title>
<g id="a_edge29_Node000001_Node000012"><a xlink:title=" ">
<path fill="none" stroke="#63b8ff" d="M671.12,-450.73C660.47,-432.13 637.38,-387.05 637.38,-346 637.38,-346 637.38,-346 637.38,-283.5 637.38,-252.14 639.93,-215.74 641.71,-194.22"/>
<polygon fill="#63b8ff" stroke="#63b8ff" points="645.2,-194.43 642.57,-184.17 638.23,-193.83 645.2,-194.43"/>
</a>
</g>
</g>
<!-- Node23 -->
<g id="Node000023" class="node">
<title>Node23</title>
<g id="a_Node000023"><a xlink:title=" ">
<polygon fill="#e0e0e0" stroke="#999999" points="765.38,-415 665.38,-415 665.38,-396 765.38,-396 765.38,-415"/>
<text text-anchor="middle" x="715.38" y="-403" font-family="Helvetica,sans-Serif" font-size="10.00">tiny_obj_loader.h</text>
</a>
</g>
</g>
<!-- Node1&#45;&gt;Node23 -->
<g id="edge30_Node000001_Node000023" class="edge">
<title>Node1&#45;&gt;Node23</title>
<g id="a_edge30_Node000001_Node000023"><a xlink:title=" ">
<path fill="none" stroke="#63b8ff" d="M682.82,-450.75C688.27,-443.34 696.24,-432.5 702.93,-423.41"/>
<polygon fill="#63b8ff" stroke="#63b8ff" points="705.95,-425.22 709.06,-415.09 700.31,-421.07 705.95,-425.22"/>
</a>
</g>
</g>
<!-- Node24 -->
<g id="Node000024" class="node">
<title>Node24</title>
<g id="a_Node000024"><a xlink:title=" ">
<polygon fill="#e0e0e0" stroke="#999999" points="843.38,-415 783.38,-415 783.38,-396 843.38,-396 843.38,-415"/>
<text text-anchor="middle" x="813.38" y="-403" font-family="Helvetica,sans-Serif" font-size="10.00">iostream</text>
</a>
</g>
</g>
<!-- Node1&#45;&gt;Node24 -->
<g id="edge31_Node000001_Node000024" class="edge">
<title>Node1&#45;&gt;Node24</title>
<g id="a_edge31_Node000001_Node000024"><a xlink:title=" ">
<path fill="none" stroke="#63b8ff" d="M698.39,-450.98C720.83,-442.3 755.86,-428.75 781.37,-418.88"/>
<polygon fill="#63b8ff" stroke="#63b8ff" points="782.9,-422.04 790.97,-415.17 780.38,-415.51 782.9,-422.04"/>
</a>
</g>
</g>
<!-- Node3 -->
<g id="Node000003" class="node">
<title>Node3</title>
<g id="a_Node000003"><a xlink:title=" ">
<polygon fill="#e0e0e0" stroke="#999999" points="509.38,-354.5 431.38,-354.5 431.38,-335.5 509.38,-335.5 509.38,-354.5"/>
<text text-anchor="middle" x="470.38" y="-342.5" font-family="Helvetica,sans-Serif" font-size="10.00">glm/glm.hpp</text>
</a>
</g>
</g>
<!-- Node2&#45;&gt;Node3 -->
<g id="edge2_Node000002_Node000003" class="edge">
<title>Node2&#45;&gt;Node3</title>
<g id="a_edge2_Node000002_Node000003"><a xlink:title=" ">
<path fill="none" stroke="#63b8ff" d="M409,-395.87C420.28,-386.71 438.3,-372.06 451.91,-361.01"/>
<polygon fill="#63b8ff" stroke="#63b8ff" points="454.16,-363.69 459.71,-354.67 449.74,-358.26 454.16,-363.69"/>
</a>
</g>
</g>
<!-- Node4 -->
<g id="Node000004" class="node">
<title>Node4</title>
<g id="a_Node000004"><a xlink:title=" ">
<polygon fill="#e0e0e0" stroke="#999999" points="598.88,-354.5 527.88,-354.5 527.88,-335.5 598.88,-335.5 598.88,-354.5"/>
<text text-anchor="middle" x="563.38" y="-342.5" font-family="Helvetica,sans-Serif" font-size="10.00">glad/glad.h</text>
</a>
</g>
</g>
<!-- Node2&#45;&gt;Node4 -->
<g id="edge3_Node000002_Node000004" class="edge">
<title>Node2&#45;&gt;Node4</title>
<g id="a_edge3_Node000002_Node000004"><a xlink:title=" ">
<path fill="none" stroke="#63b8ff" d="M422.37,-395.99C450.6,-385.99 497.65,-369.3 529.57,-357.99"/>
<polygon fill="#63b8ff" stroke="#63b8ff" points="531.1,-361.16 539.36,-354.52 528.76,-354.56 531.1,-361.16"/>
</a>
</g>
</g>
<!-- Node5 -->
<g id="Node000005" class="node">
<title>Node5</title>
<g id="a_Node000005"><a xlink:title=" ">
<polygon fill="#e0e0e0" stroke="#999999" points="156.88,-354.5 109.88,-354.5 109.88,-335.5 156.88,-335.5 156.88,-354.5"/>
<text text-anchor="middle" x="133.38" y="-342.5" font-family="Helvetica,sans-Serif" font-size="10.00">vector</text>
</a>
</g>
</g>
<!-- Node2&#45;&gt;Node5 -->
<g id="edge4_Node000002_Node000005" class="edge">
<title>Node2&#45;&gt;Node5</title>
<g id="a_edge4_Node000002_Node000005"><a xlink:title=" ">
<path fill="none" stroke="#63b8ff" d="M334.48,-395.97C287.38,-388.79 222.09,-376.95 166.38,-360 164.7,-359.49 162.99,-358.92 161.28,-358.32"/>
<polygon fill="#63b8ff" stroke="#63b8ff" points="162.21,-354.92 151.62,-354.55 159.67,-361.44 162.21,-354.92"/>
</a>
</g>
</g>
<!-- Node6 -->
<g id="Node000006" class="node">
<title>Node6</title>
<g id="a_Node000006"><a xlink:title=" ">
<polygon fill="#e0e0e0" stroke="#999999" points="219.38,-354.5 175.38,-354.5 175.38,-335.5 219.38,-335.5 219.38,-354.5"/>
<text text-anchor="middle" x="197.38" y="-342.5" font-family="Helvetica,sans-Serif" font-size="10.00">string</text>
</a>
</g>
</g>
<!-- Node2&#45;&gt;Node6 -->
<g id="edge5_Node000002_Node000006" class="edge">
<title>Node2&#45;&gt;Node6</title>
<g id="a_edge5_Node000002_Node000006"><a xlink:title=" ">
<path fill="none" stroke="#63b8ff" d="M357.96,-395.94C323.15,-388.09 271.81,-375.37 228.38,-360 226.99,-359.51 225.57,-358.98 224.15,-358.42"/>
<polygon fill="#63b8ff" stroke="#63b8ff" points="225.45,-355.17 214.87,-354.52 222.73,-361.62 225.45,-355.17"/>
</a>
</g>
</g>
<!-- Node7 -->
<g id="Node000007" class="node">
<title>Node7</title>
<g id="a_Node000007"><a xlink:href="_path_constructible_asset_8hpp.html" target="_top" xlink:title=" ">
<polygon fill="white" stroke="#666666" points="412.88,-360 237.88,-360 237.88,-330 412.88,-330 412.88,-360"/>
<text text-anchor="start" x="245.88" y="-348" font-family="Helvetica,sans-Serif" font-size="10.00">AssetManager/PathConstructible</text>
<text text-anchor="middle" x="325.38" y="-337" font-family="Helvetica,sans-Serif" font-size="10.00">Asset.hpp</text>
</a>
</g>
</g>
<!-- Node2&#45;&gt;Node7 -->
<g id="edge6_Node000002_Node000007" class="edge">
<title>Node2&#45;&gt;Node7</title>
<g id="a_edge6_Node000002_Node000007"><a xlink:title=" ">
<path fill="none" stroke="#63b8ff" d="M387.61,-395.87C377.98,-388.15 363.49,-376.54 350.91,-366.46"/>
<polygon fill="#63b8ff" stroke="#63b8ff" points="352.98,-363.64 342.99,-360.11 348.61,-369.1 352.98,-363.64"/>
</a>
</g>
</g>
<!-- Node8 -->
<g id="Node000008" class="node">
<title>Node8</title>
<g id="a_Node000008"><a xlink:title=" ">
<polygon fill="#e0e0e0" stroke="#999999" points="259.38,-239 191.38,-239 191.38,-220 259.38,-220 259.38,-239"/>
<text text-anchor="middle" x="225.38" y="-227" font-family="Helvetica,sans-Serif" font-size="10.00">filesystem</text>
</a>
</g>
</g>
<!-- Node7&#45;&gt;Node8 -->
<g id="edge7_Node000007_Node000008" class="edge">
<title>Node7&#45;&gt;Node8</title>
<g id="a_edge7_Node000007_Node000008"><a xlink:title=" ">
<path fill="none" stroke="#63b8ff" d="M293.62,-329.92C277.8,-321.49 259.52,-309.42 247.38,-294 237.11,-280.97 231.46,-262.82 228.47,-249.27"/>
<polygon fill="#63b8ff" stroke="#63b8ff" points="231.86,-248.33 226.54,-239.17 224.98,-249.65 231.86,-248.33"/>
</a>
</g>
</g>
<!-- Node9 -->
<g id="Node000009" class="node">
<title>Node9</title>
<g id="a_Node000009"><a xlink:href="_asset_8hpp.html" target="_top" xlink:title=" ">
<polygon fill="white" stroke="#666666" points="393.88,-294 256.88,-294 256.88,-275 393.88,-275 393.88,-294"/>
<text text-anchor="middle" x="325.38" y="-282" font-family="Helvetica,sans-Serif" font-size="10.00">AssetManager/Asset.hpp</text>
</a>
</g>
</g>
<!-- Node7&#45;&gt;Node9 -->
<g id="edge8_Node000007_Node000009" class="edge">
<title>Node7&#45;&gt;Node9</title>
<g id="a_edge8_Node000007_Node000009"><a xlink:title=" ">
<path fill="none" stroke="#63b8ff" d="M325.38,-329.84C325.38,-322.21 325.38,-312.7 325.38,-304.45"/>
<polygon fill="#63b8ff" stroke="#63b8ff" points="328.88,-304.27 325.38,-294.27 321.88,-304.27 328.88,-304.27"/>
</a>
</g>
</g>
<!-- Node9&#45;&gt;Node8 -->
<g id="edge9_Node000009_Node000008" class="edge">
<title>Node9&#45;&gt;Node8</title>
<g id="a_edge9_Node000009_Node000008"><a xlink:title=" ">
<path fill="none" stroke="#63b8ff" d="M309.31,-274.98C293.51,-266.61 269.16,-253.7 250.75,-243.95"/>
<polygon fill="#63b8ff" stroke="#63b8ff" points="252.21,-240.76 241.74,-239.17 248.93,-246.95 252.21,-240.76"/>
</a>
</g>
</g>
<!-- Node10 -->
<g id="Node000010" class="node">
<title>Node10</title>
<g id="a_Node000010"><a xlink:href="_registry_8hpp.html" target="_top" xlink:title=" ">
<polygon fill="white" stroke="#666666" points="375.38,-239 277.38,-239 277.38,-220 375.38,-220 375.38,-239"/>
<text text-anchor="middle" x="326.38" y="-227" font-family="Helvetica,sans-Serif" font-size="10.00">ECS/Registry.hpp</text>
</a>
</g>
</g>
<!-- Node9&#45;&gt;Node10 -->
<g id="edge10_Node000009_Node000010" class="edge">
<title>Node9&#45;&gt;Node10</title>
<g id="a_edge10_Node000009_Node000010"><a xlink:title=" ">
<path fill="none" stroke="#63b8ff" d="M325.54,-274.75C325.67,-267.8 325.86,-257.85 326.03,-249.13"/>
<polygon fill="#63b8ff" stroke="#63b8ff" points="329.53,-249.15 326.22,-239.09 322.53,-249.02 329.53,-249.15"/>
</a>
</g>
</g>
<!-- Node11 -->
<g id="Node000011" class="node">
<title>Node11</title>
<g id="a_Node000011"><a xlink:title=" ">
<polygon fill="#e0e0e0" stroke="#999999" points="331.38,-129 245.38,-129 245.38,-110 331.38,-110 331.38,-129"/>
<text text-anchor="middle" x="288.38" y="-117" font-family="Helvetica,sans-Serif" font-size="10.00">unordered_set</text>
</a>
</g>
</g>
<!-- Node10&#45;&gt;Node11 -->
<g id="edge11_Node000010_Node000011" class="edge">
<title>Node10&#45;&gt;Node11</title>
<g id="a_edge11_Node000010_Node000011"><a xlink:title=" ">
<path fill="none" stroke="#63b8ff" d="M284.85,-219.94C265.07,-213.55 243.2,-202.6 231.38,-184 219.38,-165.14 241.33,-146.45 261.38,-134.28"/>
<polygon fill="#63b8ff" stroke="#63b8ff" points="263.37,-137.17 270.32,-129.18 259.9,-131.09 263.37,-137.17"/>
</a>
</g>
</g>
<!-- Node10&#45;&gt;Node12 -->
<g id="edge12_Node000010_Node000012" class="edge">
<title>Node10&#45;&gt;Node12</title>
<g id="a_edge12_Node000010_Node000012"><a xlink:title=" ">
<path fill="none" stroke="#63b8ff" d="M375.56,-220.28C431.29,-210.96 522.18,-195.76 582.38,-185.7"/>
<polygon fill="#63b8ff" stroke="#63b8ff" points="583.22,-189.11 592.5,-184.01 582.06,-182.2 583.22,-189.11"/>
</a>
</g>
</g>
<!-- Node15 -->
<g id="Node000015" class="node">
<title>Node15</title>
<g id="a_Node000015"><a xlink:href="_entity_8hpp.html" target="_top" xlink:title=" ">
<polygon fill="white" stroke="#666666" points="336.38,-74 250.38,-74 250.38,-55 336.38,-55 336.38,-74"/>
<text text-anchor="middle" x="293.38" y="-62" font-family="Helvetica,sans-Serif" font-size="10.00">ECS/Entity.hpp</text>
</a>
</g>
</g>
<!-- Node10&#45;&gt;Node15 -->
<g id="edge15_Node000010_Node000015" class="edge">
<title>Node10&#45;&gt;Node15</title>
<g id="a_edge15_Node000010_Node000015"><a xlink:title=" ">
<path fill="none" stroke="#63b8ff" d="M277.26,-221.08C196.4,-208.83 43.87,-185.56 41.38,-184 16.21,-168.2 12.22,-157.36 3.38,-129 0.86,-120.94 -2.12,-116.41 3.38,-110 33.28,-75.16 164.87,-67.32 240.11,-65.73"/>
<polygon fill="#63b8ff" stroke="#63b8ff" points="240.4,-69.23 250.34,-65.55 240.27,-62.23 240.4,-69.23"/>
</a>
</g>
</g>
<!-- Node17 -->
<g id="Node000017" class="node">
<title>Node17</title>
<g id="a_Node000017"><a xlink:href="_entity_hierarchy_8hpp.html" target="_top" xlink:title=" ">
<polygon fill="white" stroke="#666666" points="184.38,-184 50.38,-184 50.38,-165 184.38,-165 184.38,-184"/>
<text text-anchor="middle" x="117.38" y="-172" font-family="Helvetica,sans-Serif" font-size="10.00">ECS/EntityHierarchy.hpp</text>
</a>
</g>
</g>
<!-- Node10&#45;&gt;Node17 -->
<g id="edge17_Node000010_Node000017" class="edge">
<title>Node10&#45;&gt;Node17</title>
<g id="a_edge17_Node000010_Node000017"><a xlink:title=" ">
<path fill="none" stroke="#63b8ff" d="M292.8,-219.98C257.03,-210.91 200.26,-196.52 161.04,-186.57"/>
<polygon fill="#63b8ff" stroke="#63b8ff" points="161.77,-183.15 151.22,-184.08 160.05,-189.93 161.77,-183.15"/>
</a>
</g>
</g>
<!-- Node20 -->
<g id="Node000020" class="node">
<title>Node20</title>
<g id="a_Node000020"><a xlink:href="_entity_provider_8hpp.html" target="_top" xlink:title="Manages a pool of unused entity identifiers and provides mechanisms for requesting and removing them.">
<polygon fill="white" stroke="#666666" points="538.38,-129 410.38,-129 410.38,-110 538.38,-110 538.38,-129"/>
<text text-anchor="middle" x="474.38" y="-117" font-family="Helvetica,sans-Serif" font-size="10.00">ECS/EntityProvider.hpp</text>
</a>
</g>
</g>
<!-- Node10&#45;&gt;Node20 -->
<g id="edge22_Node000010_Node000020" class="edge">
<title>Node10&#45;&gt;Node20</title>
<g id="a_edge22_Node000010_Node000020"><a xlink:title=" ">
<path fill="none" stroke="#63b8ff" d="M375.52,-225.13C431.37,-220.16 517.39,-208.64 537.38,-184 552.58,-165.26 526.12,-145.88 502.97,-133.53"/>
<polygon fill="#63b8ff" stroke="#63b8ff" points="504.54,-130.4 494.03,-129.01 501.38,-136.65 504.54,-130.4"/>
</a>
</g>
</g>
<!-- Node21 -->
<g id="Node000021" class="node">
<title>Node21</title>
<g id="a_Node000021"><a xlink:href="_sparse_set_8hpp.html" target="_top" xlink:title=" ">
<polygon fill="white" stroke="#666666" points="528.38,-184 420.38,-184 420.38,-165 528.38,-165 528.38,-184"/>
<text text-anchor="middle" x="474.38" y="-172" font-family="Helvetica,sans-Serif" font-size="10.00">ECS/SparseSet.hpp</text>
</a>
</g>
</g>
<!-- Node10&#45;&gt;Node21 -->
<g id="edge26_Node000010_Node000021" class="edge">
<title>Node10&#45;&gt;Node21</title>
<g id="a_edge26_Node000010_Node000021"><a xlink:title=" ">
<path fill="none" stroke="#63b8ff" d="M350.16,-219.98C374.61,-211.23 412.91,-197.51 440.52,-187.62"/>
<polygon fill="#63b8ff" stroke="#63b8ff" points="441.93,-190.84 450.17,-184.17 439.57,-184.25 441.93,-190.84"/>
</a>
</g>
</g>
<!-- Node22 -->
<g id="Node000022" class="node">
<title>Node22</title>
<g id="a_Node000022"><a xlink:href="_singleton_component_8hpp.html" target="_top" xlink:title=" ">
<polygon fill="white" stroke="#666666" points="401.88,-184 240.88,-184 240.88,-165 401.88,-165 401.88,-184"/>
<text text-anchor="middle" x="321.38" y="-172" font-family="Helvetica,sans-Serif" font-size="10.00">ECS/SingletonComponent.hpp</text>
</a>
</g>
</g>
<!-- Node10&#45;&gt;Node22 -->
<g id="edge28_Node000010_Node000022" class="edge">
<title>Node10&#45;&gt;Node22</title>
<g id="a_edge28_Node000010_Node000022"><a xlink:title=" ">
<path fill="none" stroke="#63b8ff" d="M325.55,-219.75C324.9,-212.8 323.96,-202.85 323.14,-194.13"/>
<polygon fill="#63b8ff" stroke="#63b8ff" points="326.61,-193.72 322.19,-184.09 319.64,-194.37 326.61,-193.72"/>
</a>
</g>
</g>
<!-- Node13 -->
<g id="Node000013" class="node">
<title>Node13</title>
<g id="a_Node000013"><a xlink:title=" ">
<polygon fill="#e0e0e0" stroke="#999999" points="667.38,-129 619.38,-129 619.38,-110 667.38,-110 667.38,-129"/>
<text text-anchor="middle" x="643.38" y="-117" font-family="Helvetica,sans-Serif" font-size="10.00">mutex</text>
</a>
</g>
</g>
<!-- Node12&#45;&gt;Node13 -->
<g id="edge13_Node000012_Node000013" class="edge">
<title>Node12&#45;&gt;Node13</title>
<g id="a_edge13_Node000012_Node000013"><a xlink:title=" ">
<path fill="none" stroke="#63b8ff" d="M643.38,-164.75C643.38,-157.8 643.38,-147.85 643.38,-139.13"/>
<polygon fill="#63b8ff" stroke="#63b8ff" points="646.88,-139.09 643.38,-129.09 639.88,-139.09 646.88,-139.09"/>
</a>
</g>
</g>
<!-- Node14 -->
<g id="Node000014" class="node">
<title>Node14</title>
<g id="a_Node000014"><a xlink:title=" ">
<polygon fill="#e0e0e0" stroke="#999999" points="539.88,-74 492.88,-74 492.88,-55 539.88,-55 539.88,-74"/>
<text text-anchor="middle" x="516.38" y="-62" font-family="Helvetica,sans-Serif" font-size="10.00">queue</text>
</a>
</g>
</g>
<!-- Node12&#45;&gt;Node14 -->
<g id="edge14_Node000012_Node000014" class="edge">
<title>Node12&#45;&gt;Node14</title>
<g id="a_edge14_Node000012_Node000014"><a xlink:title=" ">
<path fill="none" stroke="#63b8ff" d="M632.99,-164.66C611.39,-146.3 561.43,-103.81 534.45,-80.87"/>
<polygon fill="#63b8ff" stroke="#63b8ff" points="536.45,-77.97 526.56,-74.16 531.91,-83.3 536.45,-77.97"/>
</a>
</g>
</g>
<!-- Node16 -->
<g id="Node000016" class="node">
<title>Node16</title>
<g id="a_Node000016"><a xlink:title=" ">
<polygon fill="#e0e0e0" stroke="#999999" points="354.88,-19 301.88,-19 301.88,0 354.88,0 354.88,-19"/>
<text text-anchor="middle" x="328.38" y="-7" font-family="Helvetica,sans-Serif" font-size="10.00">stdlib.h</text>
</a>
</g>
</g>
<!-- Node15&#45;&gt;Node16 -->
<g id="edge16_Node000015_Node000016" class="edge">
<title>Node15&#45;&gt;Node16</title>
<g id="a_edge16_Node000015_Node000016"><a xlink:title=" ">
<path fill="none" stroke="#63b8ff" d="M299.16,-54.75C304,-47.42 311.06,-36.73 317.02,-27.7"/>
<polygon fill="#63b8ff" stroke="#63b8ff" points="320.12,-29.36 322.71,-19.09 314.28,-25.5 320.12,-29.36"/>
</a>
</g>
</g>
<!-- Node17&#45;&gt;Node11 -->
<g id="edge19_Node000017_Node000011" class="edge">
<title>Node17&#45;&gt;Node11</title>
<g id="a_edge19_Node000017_Node000011"><a xlink:title=" ">
<path fill="none" stroke="#63b8ff" d="M144.85,-164.98C173.56,-156.09 218.8,-142.07 250.8,-132.15"/>
<polygon fill="#63b8ff" stroke="#63b8ff" points="252.17,-135.39 260.69,-129.08 250.1,-128.7 252.17,-135.39"/>
</a>
</g>
</g>
<!-- Node17&#45;&gt;Node15 -->
<g id="edge21_Node000017_Node000015" class="edge">
<title>Node17&#45;&gt;Node15</title>
<g id="a_edge21_Node000017_Node000015"><a xlink:title=" ">
<path fill="none" stroke="#63b8ff" d="M133.52,-164.99C149.83,-156.29 175.65,-142.2 197.38,-129 223.92,-112.88 253.61,-92.93 272.85,-79.74"/>
<polygon fill="#63b8ff" stroke="#63b8ff" points="274.9,-82.58 281.15,-74.03 270.93,-76.82 274.9,-82.58"/>
</a>
</g>
</g>
<!-- Node18 -->
<g id="Node000018" class="node">
<title>Node18</title>
<g id="a_Node000018"><a xlink:title=" ">
<polygon fill="#e0e0e0" stroke="#999999" points="188.88,-129 123.88,-129 123.88,-110 188.88,-110 188.88,-129"/>
<text text-anchor="middle" x="156.38" y="-117" font-family="Helvetica,sans-Serif" font-size="10.00">functional</text>
</a>
</g>
</g>
<!-- Node17&#45;&gt;Node18 -->
<g id="edge18_Node000017_Node000018" class="edge">
<title>Node17&#45;&gt;Node18</title>
<g id="a_edge18_Node000017_Node000018"><a xlink:title=" ">
<path fill="none" stroke="#63b8ff" d="M123.82,-164.75C129.27,-157.34 137.24,-146.5 143.93,-137.41"/>
<polygon fill="#63b8ff" stroke="#63b8ff" points="146.95,-139.22 150.06,-129.09 141.31,-135.07 146.95,-139.22"/>
</a>
</g>
</g>
<!-- Node19 -->
<g id="Node000019" class="node">
<title>Node19</title>
<g id="a_Node000019"><a xlink:title=" ">
<polygon fill="#e0e0e0" stroke="#999999" points="105.88,-129 12.88,-129 12.88,-110 105.88,-110 105.88,-129"/>
<text text-anchor="middle" x="59.38" y="-117" font-family="Helvetica,sans-Serif" font-size="10.00">unordered_map</text>
</a>
</g>
</g>
<!-- Node17&#45;&gt;Node19 -->
<g id="edge20_Node000017_Node000019" class="edge">
<title>Node17&#45;&gt;Node19</title>
<g id="a_edge20_Node000017_Node000019"><a xlink:title=" ">
<path fill="none" stroke="#63b8ff" d="M108.06,-164.98C99.57,-157.23 86.82,-145.58 76.5,-136.14"/>
<polygon fill="#63b8ff" stroke="#63b8ff" points="78.61,-133.33 68.87,-129.17 73.89,-138.5 78.61,-133.33"/>
</a>
</g>
</g>
<!-- Node20&#45;&gt;Node14 -->
<g id="edge24_Node000020_Node000014" class="edge">
<title>Node20&#45;&gt;Node14</title>
<g id="a_edge24_Node000020_Node000014"><a xlink:title=" ">
<path fill="none" stroke="#63b8ff" d="M481.31,-109.75C487.25,-102.26 495.95,-91.28 503.2,-82.13"/>
<polygon fill="#63b8ff" stroke="#63b8ff" points="506.1,-84.1 509.57,-74.09 500.62,-79.75 506.1,-84.1"/>
</a>
</g>
</g>
<!-- Node20&#45;&gt;Node15 -->
<g id="edge25_Node000020_Node000015" class="edge">
<title>Node20&#45;&gt;Node15</title>
<g id="a_edge25_Node000020_Node000015"><a xlink:title=" ">
<path fill="none" stroke="#63b8ff" d="M445.3,-109.98C414.78,-101.05 366.61,-86.94 332.71,-77.02"/>
<polygon fill="#63b8ff" stroke="#63b8ff" points="333.27,-73.53 322.69,-74.08 331.3,-80.25 333.27,-73.53"/>
</a>
</g>
</g>
<!-- Node20&#45;&gt;Node16 -->
<g id="edge23_Node000020_Node000016" class="edge">
<title>Node20&#45;&gt;Node16</title>
<g id="a_edge23_Node000020_Node000016"><a xlink:title=" ">
<path fill="none" stroke="#63b8ff" d="M462.68,-109.84C437.8,-91.44 379.39,-48.23 348.44,-25.34"/>
<polygon fill="#63b8ff" stroke="#63b8ff" points="350.26,-22.33 340.14,-19.2 346.09,-27.96 350.26,-22.33"/>
</a>
</g>
</g>
<!-- Node21&#45;&gt;Node20 -->
<g id="edge27_Node000021_Node000020" class="edge">
<title>Node21&#45;&gt;Node20</title>
<g id="a_edge27_Node000021_Node000020"><a xlink:title=" ">
<path fill="none" stroke="#63b8ff" d="M474.38,-164.75C474.38,-157.8 474.38,-147.85 474.38,-139.13"/>
<polygon fill="#63b8ff" stroke="#63b8ff" points="477.88,-139.09 474.38,-129.09 470.88,-139.09 477.88,-139.09"/>
</a>
</g>
</g>
</g>
</svg>
