<?xml version="1.0" encoding="UTF-8" standalone="no"?>
<!DOCTYPE svg PUBLIC "-//W3C//DTD SVG 1.1//EN"
 "http://www.w3.org/Graphics/SVG/1.1/DTD/svg11.dtd">
<!-- Generated by graphviz version 2.43.0 (0)
 -->
<!-- Title: src/Systems/WireframeRendererSystem.hpp Pages: 1 -->
<svg width="709pt" height="263pt"
 viewBox="0.00 0.00 709.00 263.00" xmlns="http://www.w3.org/2000/svg" xmlns:xlink="http://www.w3.org/1999/xlink">
<g id="graph0" class="graph" transform="scale(1 1) rotate(0) translate(4 259)">
<title>src/Systems/WireframeRendererSystem.hpp</title>
<polygon fill="white" stroke="transparent" points="-4,4 -4,-259 705,-259 705,4 -4,4"/>
<!-- Node1 -->
<g id="node1" class="node">
<title>Node1</title>
<g id="a_node1"><a xlink:title=" ">
<polygon fill="#bfbfbf" stroke="black" points="120.5,-224.5 120.5,-254.5 295.5,-254.5 295.5,-224.5 120.5,-224.5"/>
<text text-anchor="start" x="128.5" y="-242.5" font-family="Helvetica,sans-Serif" font-size="10.00">src/Systems/WireframeRenderer</text>
<text text-anchor="middle" x="208" y="-231.5" font-family="Helvetica,sans-Serif" font-size="10.00">System.hpp</text>
</a>
</g>
</g>
<!-- Node2 -->
<g id="node2" class="node">
<title>Node2</title>
<g id="a_node2"><a xlink:title=" ">
<polygon fill="white" stroke="#bfbfbf" points="174,-112.5 174,-131.5 232,-131.5 232,-112.5 174,-112.5"/>
<text text-anchor="middle" x="203" y="-119.5" font-family="Helvetica,sans-Serif" font-size="10.00">memory</text>
</a>
</g>
</g>
<!-- Node1&#45;&gt;Node2 -->
<g id="edge1" class="edge">
<title>Node1&#45;&gt;Node2</title>
<path fill="none" stroke="midnightblue" d="M207.39,-224.34C206.49,-203.62 204.82,-165.02 203.82,-141.9"/>
<polygon fill="midnightblue" stroke="midnightblue" points="207.3,-141.51 203.38,-131.67 200.31,-141.81 207.3,-141.51"/>
</g>
<!-- Node3 -->
<g id="node3" class="node">
<title>Node3</title>
<g id="a_node3"><a xlink:href="_registry_8hpp.html" target="_top" xlink:title=" ">
<polygon fill="white" stroke="black" points="82,-168.5 82,-187.5 180,-187.5 180,-168.5 82,-168.5"/>
<text text-anchor="middle" x="131" y="-175.5" font-family="Helvetica,sans-Serif" font-size="10.00">ECS/Registry.hpp</text>
</a>
</g>
</g>
<!-- Node1&#45;&gt;Node3 -->
<g id="edge2" class="edge">
<title>Node1&#45;&gt;Node3</title>
<path fill="none" stroke="midnightblue" d="M189.75,-224.4C177.87,-215.22 162.39,-203.26 150.31,-193.92"/>
<polygon fill="midnightblue" stroke="midnightblue" points="152.26,-191 142.2,-187.66 147.98,-196.54 152.26,-191"/>
</g>
<!-- Node8 -->
<g id="node8" class="node">
<title>Node8</title>
<g id="a_node8"><a xlink:href="_shader_program_8hpp.html" target="_top" xlink:title=" ">
<polygon fill="white" stroke="black" points="350.5,-168.5 350.5,-187.5 515.5,-187.5 515.5,-168.5 350.5,-168.5"/>
<text text-anchor="middle" x="433" y="-175.5" font-family="Helvetica,sans-Serif" font-size="10.00">Rendering/ShaderProgram.hpp</text>
</a>
</g>
</g>
<!-- Node1&#45;&gt;Node8 -->
<g id="edge8" class="edge">
<title>Node1&#45;&gt;Node8</title>
<path fill="none" stroke="midnightblue" d="M261.04,-224.47C300.7,-213.99 354.21,-199.84 390.94,-190.12"/>
<polygon fill="midnightblue" stroke="midnightblue" points="392.06,-193.45 400.83,-187.51 390.27,-186.68 392.06,-193.45"/>
</g>
<!-- Node4 -->
<g id="node4" class="node">
<title>Node4</title>
<g id="a_node4"><a xlink:href="_entity_provider_8hpp.html" target="_top" xlink:title="Manages a pool of unused entity identifiers and provides mechanisms for requesting and removing them.">
<polygon fill="white" stroke="black" points="31,-56.5 31,-75.5 159,-75.5 159,-56.5 31,-56.5"/>
<text text-anchor="middle" x="95" y="-63.5" font-family="Helvetica,sans-Serif" font-size="10.00">ECS/EntityProvider.hpp</text>
</a>
</g>
</g>
<!-- Node3&#45;&gt;Node4 -->
<g id="edge3" class="edge">
<title>Node3&#45;&gt;Node4</title>
<path fill="none" stroke="midnightblue" d="M129.83,-168.41C127.96,-155.79 123.8,-131.63 117,-112 113.76,-102.65 109.06,-92.73 104.83,-84.58"/>
<polygon fill="midnightblue" stroke="midnightblue" points="107.86,-82.84 100.04,-75.69 101.7,-86.16 107.86,-82.84"/>
</g>
<!-- Node7 -->
<g id="node7" class="node">
<title>Node7</title>
<g id="a_node7"><a xlink:href="_sparse_set_8hpp.html" target="_top" xlink:title=" ">
<polygon fill="white" stroke="black" points="0,-112.5 0,-131.5 108,-131.5 108,-112.5 0,-112.5"/>
<text text-anchor="middle" x="54" y="-119.5" font-family="Helvetica,sans-Serif" font-size="10.00">ECS/SparseSet.hpp</text>
</a>
</g>
</g>
<!-- Node3&#45;&gt;Node7 -->
<g id="edge6" class="edge">
<title>Node3&#45;&gt;Node7</title>
<path fill="none" stroke="midnightblue" d="M118.63,-168.32C106.84,-160.06 88.87,-147.45 74.86,-137.63"/>
<polygon fill="midnightblue" stroke="midnightblue" points="76.54,-134.53 66.34,-131.65 72.52,-140.26 76.54,-134.53"/>
</g>
<!-- Node5 -->
<g id="node5" class="node">
<title>Node5</title>
<g id="a_node5"><a xlink:title=" ">
<polygon fill="white" stroke="#bfbfbf" points="102.5,-0.5 102.5,-19.5 155.5,-19.5 155.5,-0.5 102.5,-0.5"/>
<text text-anchor="middle" x="129" y="-7.5" font-family="Helvetica,sans-Serif" font-size="10.00">stdlib.h</text>
</a>
</g>
</g>
<!-- Node4&#45;&gt;Node5 -->
<g id="edge4" class="edge">
<title>Node4&#45;&gt;Node5</title>
<path fill="none" stroke="midnightblue" d="M100.61,-56.08C105.37,-48.53 112.32,-37.49 118.15,-28.23"/>
<polygon fill="midnightblue" stroke="midnightblue" points="121.12,-30.08 123.49,-19.75 115.2,-26.35 121.12,-30.08"/>
</g>
<!-- Node6 -->
<g id="node6" class="node">
<title>Node6</title>
<g id="a_node6"><a xlink:title=" ">
<polygon fill="white" stroke="#bfbfbf" points="37.5,-0.5 37.5,-19.5 84.5,-19.5 84.5,-0.5 37.5,-0.5"/>
<text text-anchor="middle" x="61" y="-7.5" font-family="Helvetica,sans-Serif" font-size="10.00">queue</text>
</a>
</g>
</g>
<!-- Node4&#45;&gt;Node6 -->
<g id="edge5" class="edge">
<title>Node4&#45;&gt;Node6</title>
<path fill="none" stroke="midnightblue" d="M89.39,-56.08C84.63,-48.53 77.68,-37.49 71.85,-28.23"/>
<polygon fill="midnightblue" stroke="midnightblue" points="74.8,-26.35 66.51,-19.75 68.88,-30.08 74.8,-26.35"/>
</g>
<!-- Node7&#45;&gt;Node4 -->
<g id="edge7" class="edge">
<title>Node7&#45;&gt;Node4</title>
<path fill="none" stroke="midnightblue" d="M60.77,-112.08C66.56,-104.46 75.06,-93.26 82.14,-83.94"/>
<polygon fill="midnightblue" stroke="midnightblue" points="85.1,-85.83 88.36,-75.75 79.52,-81.6 85.1,-85.83"/>
</g>
<!-- Node8&#45;&gt;Node2 -->
<g id="edge11" class="edge">
<title>Node8&#45;&gt;Node2</title>
<path fill="none" stroke="midnightblue" d="M396.56,-168.44C354.46,-158.56 285.45,-142.36 242.22,-132.21"/>
<polygon fill="midnightblue" stroke="midnightblue" points="242.88,-128.77 232.34,-129.89 241.28,-135.58 242.88,-128.77"/>
</g>
<!-- Node9 -->
<g id="node9" class="node">
<title>Node9</title>
<g id="a_node9"><a xlink:title=" ">
<polygon fill="white" stroke="#bfbfbf" points="497.5,-56.5 497.5,-75.5 568.5,-75.5 568.5,-56.5 497.5,-56.5"/>
<text text-anchor="middle" x="533" y="-63.5" font-family="Helvetica,sans-Serif" font-size="10.00">glad/glad.h</text>
</a>
</g>
</g>
<!-- Node8&#45;&gt;Node9 -->
<g id="edge9" class="edge">
<title>Node8&#45;&gt;Node9</title>
<path fill="none" stroke="midnightblue" d="M459.16,-168.49C477.04,-161.4 499.94,-149.6 514,-132 524.65,-118.66 529.33,-99.55 531.39,-85.5"/>
<polygon fill="midnightblue" stroke="midnightblue" points="534.87,-85.86 532.54,-75.52 527.92,-85.06 534.87,-85.86"/>
</g>
<!-- Node10 -->
<g id="node10" class="node">
<title>Node10</title>
<g id="a_node10"><a xlink:title=" ">
<polygon fill="white" stroke="#bfbfbf" points="561,-112.5 561,-131.5 639,-131.5 639,-112.5 561,-112.5"/>
<text text-anchor="middle" x="600" y="-119.5" font-family="Helvetica,sans-Serif" font-size="10.00">glm/glm.hpp</text>
</a>
</g>
</g>
<!-- Node8&#45;&gt;Node10 -->
<g id="edge10" class="edge">
<title>Node8&#45;&gt;Node10</title>
<path fill="none" stroke="midnightblue" d="M459.46,-168.44C487.68,-159.32 532.54,-144.81 563.97,-134.65"/>
<polygon fill="midnightblue" stroke="midnightblue" points="565.22,-137.92 573.66,-131.52 563.07,-131.26 565.22,-137.92"/>
</g>
<!-- Node11 -->
<g id="node11" class="node">
<title>Node11</title>
<g id="a_node11"><a xlink:title=" ">
<polygon fill="white" stroke="#bfbfbf" points="657,-112.5 657,-131.5 701,-131.5 701,-112.5 657,-112.5"/>
<text text-anchor="middle" x="679" y="-119.5" font-family="Helvetica,sans-Serif" font-size="10.00">string</text>
</a>
</g>
</g>
<!-- Node8&#45;&gt;Node11 -->
<g id="edge12" class="edge">
<title>Node8&#45;&gt;Node11</title>
<path fill="none" stroke="midnightblue" d="M478.95,-168.44C520.5,-160.45 583.56,-147.76 646.94,-132.12"/>
<polygon fill="midnightblue" stroke="midnightblue" points="647.85,-135.51 656.7,-129.69 646.15,-128.71 647.85,-135.51"/>
</g>
<!-- Node12 -->
<g id="node12" class="node">
<title>Node12</title>
<g id="a_node12"><a xlink:title=" ">
<polygon fill="white" stroke="#bfbfbf" points="250.5,-112.5 250.5,-131.5 343.5,-131.5 343.5,-112.5 250.5,-112.5"/>
<text text-anchor="middle" x="297" y="-119.5" font-family="Helvetica,sans-Serif" font-size="10.00">unordered_map</text>
</a>
</g>
</g>
<!-- Node8&#45;&gt;Node12 -->
<g id="edge13" class="edge">
<title>Node8&#45;&gt;Node12</title>
<path fill="none" stroke="midnightblue" d="M411.45,-168.44C388.97,-159.52 353.51,-145.44 328.02,-135.32"/>
<polygon fill="midnightblue" stroke="midnightblue" points="329.03,-131.95 318.45,-131.52 326.45,-138.46 329.03,-131.95"/>
</g>
<!-- Node13 -->
<g id="node13" class="node">
<title>Node13</title>
<g id="a_node13"><a xlink:href="_shader_8hpp.html" target="_top" xlink:title=" ">
<polygon fill="white" stroke="black" points="361.5,-112.5 361.5,-131.5 504.5,-131.5 504.5,-112.5 361.5,-112.5"/>
<text text-anchor="middle" x="433" y="-119.5" font-family="Helvetica,sans-Serif" font-size="10.00">AssetManager/Shader.hpp</text>
</a>
</g>
</g>
<!-- Node8&#45;&gt;Node13 -->
<g id="edge14" class="edge">
<title>Node8&#45;&gt;Node13</title>
<path fill="none" stroke="midnightblue" d="M433,-168.08C433,-161.01 433,-150.86 433,-141.99"/>
<polygon fill="midnightblue" stroke="midnightblue" points="436.5,-141.75 433,-131.75 429.5,-141.75 436.5,-141.75"/>
</g>
<!-- Node13&#45;&gt;Node9 -->
<g id="edge15" class="edge">
<title>Node13&#45;&gt;Node9</title>
<path fill="none" stroke="midnightblue" d="M449.07,-112.32C464.96,-103.74 489.51,-90.49 507.96,-80.52"/>
<polygon fill="midnightblue" stroke="midnightblue" points="509.84,-83.49 516.97,-75.65 506.51,-77.33 509.84,-83.49"/>
</g>
<!-- Node14 -->
<g id="node14" class="node">
<title>Node14</title>
<g id="a_node14"><a xlink:href="_asset_8hpp.html" target="_top" xlink:title=" ">
<polygon fill="white" stroke="black" points="342.5,-56.5 342.5,-75.5 479.5,-75.5 479.5,-56.5 342.5,-56.5"/>
<text text-anchor="middle" x="411" y="-63.5" font-family="Helvetica,sans-Serif" font-size="10.00">AssetManager/Asset.hpp</text>
</a>
</g>
</g>
<!-- Node13&#45;&gt;Node14 -->
<g id="edge16" class="edge">
<title>Node13&#45;&gt;Node14</title>
<path fill="none" stroke="midnightblue" d="M429.37,-112.08C426.39,-104.77 422.07,-94.18 418.38,-85.1"/>
<polygon fill="midnightblue" stroke="midnightblue" points="421.58,-83.69 414.57,-75.75 415.1,-86.33 421.58,-83.69"/>
</g>
<!-- Node15 -->
<g id="node15" class="node">
<title>Node15</title>
<g id="a_node15"><a xlink:title=" ">
<polygon fill="white" stroke="#bfbfbf" points="377,-0.5 377,-19.5 445,-19.5 445,-0.5 377,-0.5"/>
<text text-anchor="middle" x="411" y="-7.5" font-family="Helvetica,sans-Serif" font-size="10.00">filesystem</text>
</a>
</g>
</g>
<!-- Node14&#45;&gt;Node15 -->
<g id="edge17" class="edge">
<title>Node14&#45;&gt;Node15</title>
<path fill="none" stroke="midnightblue" d="M411,-56.08C411,-49.01 411,-38.86 411,-29.99"/>
<polygon fill="midnightblue" stroke="midnightblue" points="414.5,-29.75 411,-19.75 407.5,-29.75 414.5,-29.75"/>
</g>
</g>
</svg>
