<?xml version="1.0" encoding="UTF-8" standalone="no"?>
<!DOCTYPE svg PUBLIC "-//W3C//DTD SVG 1.1//EN"
 "http://www.w3.org/Graphics/SVG/1.1/DTD/svg11.dtd">
<!-- Generated by graphviz version 2.43.0 (0)
 -->
<!-- Title: shkyera::PropertiesWidget Pages: 1 -->
<svg width="348pt" height="151pt"
 viewBox="0.00 0.00 348.00 151.00" xmlns="http://www.w3.org/2000/svg" xmlns:xlink="http://www.w3.org/1999/xlink">
<g id="graph0" class="graph" transform="scale(1 1) rotate(0) translate(4 147)">
<title>shkyera::PropertiesWidget</title>
<polygon fill="white" stroke="transparent" points="-4,4 -4,-147 344,-147 344,4 -4,4"/>
<!-- Node1 -->
<g id="node1" class="node">
<title>Node1</title>
<g id="a_node1"><a xlink:title="A user interface widget for managing game object properties.">
<polygon fill="#bfbfbf" stroke="black" points="91,-67.5 91,-86.5 236,-86.5 236,-67.5 91,-67.5"/>
<text text-anchor="middle" x="163.5" y="-74.5" font-family="Helvetica,sans-Serif" font-size="10.00">shkyera::PropertiesWidget</text>
</a>
</g>
</g>
<!-- Node3 -->
<g id="node3" class="node">
<title>Node3</title>
<g id="a_node3"><a xlink:href="classshkyera_1_1_camera_properties_widget.html" target="_top" xlink:title=" ">
<polygon fill="white" stroke="black" points="0,-0.5 0,-30.5 149,-30.5 149,-0.5 0,-0.5"/>
<text text-anchor="start" x="8" y="-18.5" font-family="Helvetica,sans-Serif" font-size="10.00">shkyera::CameraProperties</text>
<text text-anchor="middle" x="74.5" y="-7.5" font-family="Helvetica,sans-Serif" font-size="10.00">Widget</text>
</a>
</g>
</g>
<!-- Node1&#45;&gt;Node3 -->
<g id="edge2" class="edge">
<title>Node1&#45;&gt;Node3</title>
<path fill="none" stroke="midnightblue" d="M142.17,-61.74C128.02,-52.28 109.55,-39.93 95.48,-30.52"/>
<polygon fill="midnightblue" stroke="midnightblue" points="140.49,-64.83 150.75,-67.48 144.38,-59.01 140.49,-64.83"/>
</g>
<!-- Node4 -->
<g id="node4" class="node">
<title>Node4</title>
<g id="a_node4"><a xlink:href="classshkyera_1_1_environment_properties_widget.html" target="_top" xlink:title=" ">
<polygon fill="white" stroke="black" points="167,-0.5 167,-30.5 340,-30.5 340,-0.5 167,-0.5"/>
<text text-anchor="start" x="175" y="-18.5" font-family="Helvetica,sans-Serif" font-size="10.00">shkyera::EnvironmentProperties</text>
<text text-anchor="middle" x="253.5" y="-7.5" font-family="Helvetica,sans-Serif" font-size="10.00">Widget</text>
</a>
</g>
</g>
<!-- Node1&#45;&gt;Node4 -->
<g id="edge3" class="edge">
<title>Node1&#45;&gt;Node4</title>
<path fill="none" stroke="midnightblue" d="M185.07,-61.74C199.38,-52.28 218.06,-39.93 232.29,-30.52"/>
<polygon fill="midnightblue" stroke="midnightblue" points="182.81,-59.04 176.39,-67.48 186.67,-64.88 182.81,-59.04"/>
</g>
<!-- Node2 -->
<g id="node2" class="node">
<title>Node2</title>
<g id="a_node2"><a xlink:href="classshkyera_1_1_widget.html" target="_top" xlink:title="An abstract base class representing a GUI widget.">
<polygon fill="white" stroke="black" points="116,-123.5 116,-142.5 211,-142.5 211,-123.5 116,-123.5"/>
<text text-anchor="middle" x="163.5" y="-130.5" font-family="Helvetica,sans-Serif" font-size="10.00">shkyera::Widget</text>
</a>
</g>
</g>
<!-- Node2&#45;&gt;Node1 -->
<g id="edge1" class="edge">
<title>Node2&#45;&gt;Node1</title>
<path fill="none" stroke="midnightblue" d="M163.5,-112.8C163.5,-103.91 163.5,-93.78 163.5,-86.75"/>
<polygon fill="midnightblue" stroke="midnightblue" points="160,-113.08 163.5,-123.08 167,-113.08 160,-113.08"/>
</g>
</g>
</svg>
