<?xml version="1.0" encoding="UTF-8" standalone="no"?>
<!DOCTYPE svg PUBLIC "-//W3C//DTD SVG 1.1//EN"
 "http://www.w3.org/Graphics/SVG/1.1/DTD/svg11.dtd">
<!-- Generated by graphviz version 2.43.0 (0)
 -->
<!-- Title: shkyera::Asset Pages: 1 -->
<svg width="458pt" height="84pt"
 viewBox="0.00 0.00 458.00 84.00" xmlns="http://www.w3.org/2000/svg" xmlns:xlink="http://www.w3.org/1999/xlink">
<g id="graph0" class="graph" transform="scale(1 1) rotate(0) translate(4 80)">
<title>shkyera::Asset</title>
<polygon fill="white" stroke="transparent" points="-4,4 -4,-80 454,-80 454,4 -4,4"/>
<!-- Node1 -->
<g id="node1" class="node">
<title>Node1</title>
<g id="a_node1"><a xlink:title=" ">
<polygon fill="#bfbfbf" stroke="black" points="172.5,-56.5 172.5,-75.5 260.5,-75.5 260.5,-56.5 172.5,-56.5"/>
<text text-anchor="middle" x="216.5" y="-63.5" font-family="Helvetica,sans-Serif" font-size="10.00">shkyera::Asset</text>
</a>
</g>
</g>
<!-- Node2 -->
<g id="node2" class="node">
<title>Node2</title>
<g id="a_node2"><a xlink:href="classshkyera_1_1_material.html" target="_top" xlink:title=" ">
<polygon fill="white" stroke="black" points="0,-0.5 0,-19.5 101,-19.5 101,-0.5 0,-0.5"/>
<text text-anchor="middle" x="50.5" y="-7.5" font-family="Helvetica,sans-Serif" font-size="10.00">shkyera::Material</text>
</a>
</g>
</g>
<!-- Node1&#45;&gt;Node2 -->
<g id="edge1" class="edge">
<title>Node1&#45;&gt;Node2</title>
<path fill="none" stroke="midnightblue" d="M180.55,-53.3C149.27,-43.13 104.68,-28.62 76.68,-19.52"/>
<polygon fill="midnightblue" stroke="midnightblue" points="179.6,-56.68 190.2,-56.44 181.77,-50.02 179.6,-56.68"/>
</g>
<!-- Node3 -->
<g id="node3" class="node">
<title>Node3</title>
<g id="a_node3"><a xlink:href="classshkyera_1_1_mesh.html" target="_top" xlink:title=" ">
<polygon fill="white" stroke="black" points="119,-0.5 119,-19.5 206,-19.5 206,-0.5 119,-0.5"/>
<text text-anchor="middle" x="162.5" y="-7.5" font-family="Helvetica,sans-Serif" font-size="10.00">shkyera::Mesh</text>
</a>
</g>
</g>
<!-- Node1&#45;&gt;Node3 -->
<g id="edge2" class="edge">
<title>Node1&#45;&gt;Node3</title>
<path fill="none" stroke="midnightblue" d="M200.5,-49C190.93,-39.43 179.14,-27.64 171.25,-19.75"/>
<polygon fill="midnightblue" stroke="midnightblue" points="198.04,-51.49 207.58,-56.08 202.99,-46.54 198.04,-51.49"/>
</g>
<!-- Node4 -->
<g id="node4" class="node">
<title>Node4</title>
<g id="a_node4"><a xlink:href="classshkyera_1_1_shader.html" target="_top" xlink:title=" ">
<polygon fill="white" stroke="black" points="224,-0.5 224,-19.5 319,-19.5 319,-0.5 224,-0.5"/>
<text text-anchor="middle" x="271.5" y="-7.5" font-family="Helvetica,sans-Serif" font-size="10.00">shkyera::Shader</text>
</a>
</g>
</g>
<!-- Node1&#45;&gt;Node4 -->
<g id="edge3" class="edge">
<title>Node1&#45;&gt;Node4</title>
<path fill="none" stroke="midnightblue" d="M232.79,-49C242.54,-39.43 254.55,-27.64 262.59,-19.75"/>
<polygon fill="midnightblue" stroke="midnightblue" points="230.27,-46.58 225.58,-56.08 235.17,-51.57 230.27,-46.58"/>
</g>
<!-- Node5 -->
<g id="node5" class="node">
<title>Node5</title>
<g id="a_node5"><a xlink:href="classshkyera_1_1_wireframe.html" target="_top" xlink:title=" ">
<polygon fill="white" stroke="black" points="337,-0.5 337,-19.5 450,-19.5 450,-0.5 337,-0.5"/>
<text text-anchor="middle" x="393.5" y="-7.5" font-family="Helvetica,sans-Serif" font-size="10.00">shkyera::Wireframe</text>
</a>
</g>
</g>
<!-- Node1&#45;&gt;Node5 -->
<g id="edge4" class="edge">
<title>Node1&#45;&gt;Node5</title>
<path fill="none" stroke="midnightblue" d="M254.4,-53.44C287.78,-43.26 335.6,-28.66 365.59,-19.52"/>
<polygon fill="midnightblue" stroke="midnightblue" points="253.09,-50.18 244.55,-56.44 255.13,-56.87 253.09,-50.18"/>
</g>
</g>
</svg>
