<?xml version="1.0" encoding="UTF-8" standalone="no"?>
<!DOCTYPE svg PUBLIC "-//W3C//DTD SVG 1.1//EN"
 "http://www.w3.org/Graphics/SVG/1.1/DTD/svg11.dtd">
<!-- Generated by graphviz version 2.43.0 (0)
 -->
<!-- Title: shkyera::UIComponent Pages: 1 -->
<svg width="358pt" height="84pt"
 viewBox="0.00 0.00 357.50 84.00" xmlns="http://www.w3.org/2000/svg" xmlns:xlink="http://www.w3.org/1999/xlink">
<g id="graph0" class="graph" transform="scale(1 1) rotate(0) translate(4 80)">
<title>shkyera::UIComponent</title>
<polygon fill="white" stroke="transparent" points="-4,4 -4,-80 353.5,-80 353.5,4 -4,4"/>
<!-- Node1 -->
<g id="node1" class="node">
<title>Node1</title>
<g id="a_node1"><a xlink:title="A base class representing a user interface (UI) for a game object&#39;s component.">
<polygon fill="#bfbfbf" stroke="black" points="105.5,-56.5 105.5,-75.5 233.5,-75.5 233.5,-56.5 105.5,-56.5"/>
<text text-anchor="middle" x="169.5" y="-63.5" font-family="Helvetica,sans-Serif" font-size="10.00">shkyera::UIComponent</text>
</a>
</g>
</g>
<!-- Node2 -->
<g id="node2" class="node">
<title>Node2</title>
<g id="a_node2"><a xlink:href="classshkyera_1_1_script_u_i_component.html" target="_top" xlink:title="A class representing a user interface component for interacting with scripts.">
<polygon fill="white" stroke="black" points="0,-0.5 0,-19.5 155,-19.5 155,-0.5 0,-0.5"/>
<text text-anchor="middle" x="77.5" y="-7.5" font-family="Helvetica,sans-Serif" font-size="10.00">shkyera::ScriptUIComponent</text>
</a>
</g>
</g>
<!-- Node1&#45;&gt;Node2 -->
<g id="edge1" class="edge">
<title>Node1&#45;&gt;Node2</title>
<path fill="none" stroke="midnightblue" d="M145.95,-51.18C129.02,-41.24 106.72,-28.15 92.24,-19.65"/>
<polygon fill="midnightblue" stroke="midnightblue" points="144.32,-54.28 154.72,-56.32 147.87,-48.24 144.32,-54.28"/>
</g>
<!-- Node3 -->
<g id="node3" class="node">
<title>Node3</title>
<g id="a_node3"><a xlink:href="classshkyera_1_1_transform_u_i_component.html" target="_top" xlink:title="A class representing a user interface component for manipulating object transformations.">
<polygon fill="white" stroke="black" points="173.5,-0.5 173.5,-19.5 349.5,-19.5 349.5,-0.5 173.5,-0.5"/>
<text text-anchor="middle" x="261.5" y="-7.5" font-family="Helvetica,sans-Serif" font-size="10.00">shkyera::TransformUIComponent</text>
</a>
</g>
</g>
<!-- Node1&#45;&gt;Node3 -->
<g id="edge2" class="edge">
<title>Node1&#45;&gt;Node3</title>
<path fill="none" stroke="midnightblue" d="M193.05,-51.18C209.98,-41.24 232.28,-28.15 246.76,-19.65"/>
<polygon fill="midnightblue" stroke="midnightblue" points="191.13,-48.24 184.28,-56.32 194.68,-54.28 191.13,-48.24"/>
</g>
</g>
</svg>
