<?xml version="1.0" encoding="UTF-8" standalone="no"?>
<!DOCTYPE svg PUBLIC "-//W3C//DTD SVG 1.1//EN"
 "http://www.w3.org/Graphics/SVG/1.1/DTD/svg11.dtd">
<!-- Generated by graphviz version 2.43.0 (0)
 -->
<!-- Title: shkyera::GizmoHandleComponent Pages: 1 -->
<svg width="191pt" height="148pt"
 viewBox="0.00 0.00 191.00 148.00" xmlns="http://www.w3.org/2000/svg" xmlns:xlink="http://www.w3.org/1999/xlink">
<g id="graph0" class="graph" transform="scale(1 1) rotate(0) translate(4 144)">
<title>shkyera::GizmoHandleComponent</title>
<!-- Node1 -->
<g id="Node000001" class="node">
<title>Node1</title>
<g id="a_Node000001"><a xlink:title=" ">
<polygon fill="#999999" stroke="#666666" points="183,-19 0,-19 0,0 183,0 183,-19"/>
<text text-anchor="middle" x="91.5" y="-7" font-family="Helvetica,sans-Serif" font-size="10.00">shkyera::GizmoHandleComponent</text>
</a>
</g>
</g>
<!-- Node2 -->
<g id="Node000002" class="node">
<title>Node2</title>
<g id="a_Node000002"><a xlink:href="classshkyera_1_1_base_component.html" target="_top" xlink:title=" ">
<polygon fill="white" stroke="#666666" points="172,-85 11,-85 11,-55 172,-55 172,-85"/>
<text text-anchor="start" x="19" y="-73" font-family="Helvetica,sans-Serif" font-size="10.00">shkyera::BaseComponent</text>
<text text-anchor="middle" x="91.5" y="-62" font-family="Helvetica,sans-Serif" font-size="10.00">&lt; GizmoHandleComponent &gt;</text>
</a>
</g>
</g>
<!-- Node2&#45;&gt;Node1 -->
<g id="edge1_Node000001_Node000002" class="edge">
<title>Node2&#45;&gt;Node1</title>
<g id="a_edge1_Node000001_Node000002"><a xlink:title=" ">
<path fill="none" stroke="#63b8ff" d="M91.5,-44.75C91.5,-35.72 91.5,-26.03 91.5,-19.27"/>
<polygon fill="#63b8ff" stroke="#63b8ff" points="88,-44.84 91.5,-54.84 95,-44.84 88,-44.84"/>
</a>
</g>
</g>
<!-- Node3 -->
<g id="Node000003" class="node">
<title>Node3</title>
<g id="a_Node000003"><a xlink:href="structshkyera_1_1_resource_tag.html" target="_top" xlink:title=" ">
<polygon fill="white" stroke="#666666" points="152.5,-140 30.5,-140 30.5,-121 152.5,-121 152.5,-140"/>
<text text-anchor="middle" x="91.5" y="-128" font-family="Helvetica,sans-Serif" font-size="10.00">shkyera::ResourceTag</text>
</a>
</g>
</g>
<!-- Node3&#45;&gt;Node2 -->
<g id="edge2_Node000002_Node000003" class="edge">
<title>Node3&#45;&gt;Node2</title>
<g id="a_edge2_Node000002_Node000003"><a xlink:title=" ">
<path fill="none" stroke="#63b8ff" d="M91.5,-110.65C91.5,-102.36 91.5,-92.78 91.5,-85.11"/>
<polygon fill="#63b8ff" stroke="#63b8ff" points="88,-110.87 91.5,-120.87 95,-110.87 88,-110.87"/>
</a>
</g>
</g>
</g>
</svg>
