<?xml version="1.0" encoding="UTF-8" standalone="no"?>
<!DOCTYPE svg PUBLIC "-//W3C//DTD SVG 1.1//EN"
 "http://www.w3.org/Graphics/SVG/1.1/DTD/svg11.dtd">
<!-- Generated by graphviz version 2.43.0 (0)
 -->
<!-- Title: shkyera::TransformComponent Pages: 1 -->
<svg width="174pt" height="148pt"
 viewBox="0.00 0.00 174.00 148.00" xmlns="http://www.w3.org/2000/svg" xmlns:xlink="http://www.w3.org/1999/xlink">
<g id="graph0" class="graph" transform="scale(1 1) rotate(0) translate(4 144)">
<title>shkyera::TransformComponent</title>
<!-- Node1 -->
<g id="Node000001" class="node">
<title>Node1</title>
<g id="a_Node000001"><a xlink:title=" ">
<polygon fill="#999999" stroke="#666666" points="166,-19 0,-19 0,0 166,0 166,-19"/>
<text text-anchor="middle" x="83" y="-7" font-family="Helvetica,sans-Serif" font-size="10.00">shkyera::TransformComponent</text>
</a>
</g>
</g>
<!-- Node2 -->
<g id="Node000002" class="node">
<title>Node2</title>
<g id="a_Node000002"><a xlink:href="classshkyera_1_1_base_component.html" target="_top" xlink:title=" ">
<polygon fill="white" stroke="#666666" points="155,-85 11,-85 11,-55 155,-55 155,-85"/>
<text text-anchor="start" x="19" y="-73" font-family="Helvetica,sans-Serif" font-size="10.00">shkyera::BaseComponent</text>
<text text-anchor="middle" x="83" y="-62" font-family="Helvetica,sans-Serif" font-size="10.00">&lt; TransformComponent &gt;</text>
</a>
</g>
</g>
<!-- Node2&#45;&gt;Node1 -->
<g id="edge1_Node000001_Node000002" class="edge">
<title>Node2&#45;&gt;Node1</title>
<g id="a_edge1_Node000001_Node000002"><a xlink:title=" ">
<path fill="none" stroke="#63b8ff" d="M83,-44.75C83,-35.72 83,-26.03 83,-19.27"/>
<polygon fill="#63b8ff" stroke="#63b8ff" points="79.5,-44.84 83,-54.84 86.5,-44.84 79.5,-44.84"/>
</a>
</g>
</g>
<!-- Node3 -->
<g id="Node000003" class="node">
<title>Node3</title>
<g id="a_Node000003"><a xlink:href="structshkyera_1_1_resource_tag.html" target="_top" xlink:title=" ">
<polygon fill="white" stroke="#666666" points="144,-140 22,-140 22,-121 144,-121 144,-140"/>
<text text-anchor="middle" x="83" y="-128" font-family="Helvetica,sans-Serif" font-size="10.00">shkyera::ResourceTag</text>
</a>
</g>
</g>
<!-- Node3&#45;&gt;Node2 -->
<g id="edge2_Node000002_Node000003" class="edge">
<title>Node3&#45;&gt;Node2</title>
<g id="a_edge2_Node000002_Node000003"><a xlink:title=" ">
<path fill="none" stroke="#63b8ff" d="M83,-110.65C83,-102.36 83,-92.78 83,-85.11"/>
<polygon fill="#63b8ff" stroke="#63b8ff" points="79.5,-110.87 83,-120.87 86.5,-110.87 79.5,-110.87"/>
</a>
</g>
</g>
</g>
</svg>
