<?xml version="1.0" encoding="UTF-8" standalone="no"?>
<!DOCTYPE svg PUBLIC "-//W3C//DTD SVG 1.1//EN"
 "http://www.w3.org/Graphics/SVG/1.1/DTD/svg11.dtd">
<!-- Generated by graphviz version 2.43.0 (0)
 -->
<!-- Title: src/ui Pages: 1 -->
<svg width="398pt" height="247pt"
 viewBox="0.00 0.00 398.00 247.00" xmlns="http://www.w3.org/2000/svg" xmlns:xlink="http://www.w3.org/1999/xlink">
<g id="graph0" class="graph" transform="scale(1 1) rotate(0) translate(4 243)">
<title>src/ui</title>
<polygon fill="white" stroke="transparent" points="-4,4 -4,-243 394,-243 394,4 -4,4"/>
<g id="clust1" class="cluster">
<title>clusterdir_68267d1309a1af8e8297ef4c3efbcdba</title>
<g id="a_clust1"><a xlink:href="dir_68267d1309a1af8e8297ef4c3efbcdba.html" target="_top" xlink:title="src">
<polygon fill="#ddddee" stroke="black" points="8,-8 8,-231 382,-231 382,-8 8,-8"/>
<text text-anchor="middle" x="195" y="-219" font-family="Helvetica,sans-Serif" font-size="10.00">src</text>
</a>
</g>
</g>
<g id="clust2" class="cluster">
<title>clusterdir_da5c6b39c0a2f54e57df6799511cd3ab</title>
<g id="a_clust2"><a xlink:href="dir_da5c6b39c0a2f54e57df6799511cd3ab.html" target="_top">
<polygon fill="#eeeeff" stroke="black" points="16,-152 16,-204 336,-204 336,-152 16,-152"/>
</a>
</g>
</g>
<!-- dir_17dd1609571feee8469e465ffa40a219 -->
<g id="node1" class="node">
<title>dir_17dd1609571feee8469e465ffa40a219</title>
<g id="a_node1"><a xlink:href="dir_17dd1609571feee8469e465ffa40a219.html" target="_top" xlink:title="AssetManager">
<polygon fill="none" stroke="black" points="138,-52 52,-52 52,-16 138,-16 138,-52"/>
<text text-anchor="middle" x="95" y="-31.5" font-family="Helvetica,sans-Serif" font-size="10.00">AssetManager</text>
</a>
</g>
</g>
<!-- dir_6aed981759055a22f0901385cc3ba5db -->
<g id="node2" class="node">
<title>dir_6aed981759055a22f0901385cc3ba5db</title>
<g id="a_node2"><a xlink:href="dir_6aed981759055a22f0901385cc3ba5db.html" target="_top" xlink:title="InputManager">
<polygon fill="none" stroke="black" points="374,-52 290,-52 290,-16 374,-16 374,-52"/>
<text text-anchor="middle" x="332" y="-31.5" font-family="Helvetica,sans-Serif" font-size="10.00">InputManager</text>
</a>
</g>
</g>
<!-- dir_b1a122bf62c958266ec5bf64d14fde5a -->
<g id="node3" class="node">
<title>dir_b1a122bf62c958266ec5bf64d14fde5a</title>
<g id="a_node3"><a xlink:href="dir_b1a122bf62c958266ec5bf64d14fde5a.html" target="_top" xlink:title="ECS">
<polygon fill="none" stroke="black" points="272,-52 218,-52 218,-16 272,-16 272,-52"/>
<text text-anchor="middle" x="245" y="-31.5" font-family="Helvetica,sans-Serif" font-size="10.00">ECS</text>
</a>
</g>
</g>
<!-- dir_c610c8504d46288da7634b3c0b18263f -->
<g id="node4" class="node">
<title>dir_c610c8504d46288da7634b3c0b18263f</title>
<g id="a_node4"><a xlink:href="dir_c610c8504d46288da7634b3c0b18263f.html" target="_top" xlink:title="Components">
<polygon fill="none" stroke="black" points="134,-124 56,-124 56,-88 134,-88 134,-124"/>
<text text-anchor="middle" x="95" y="-103.5" font-family="Helvetica,sans-Serif" font-size="10.00">Components</text>
</a>
</g>
</g>
<!-- dir_c610c8504d46288da7634b3c0b18263f&#45;&gt;dir_17dd1609571feee8469e465ffa40a219 -->
<g id="edge1" class="edge">
<title>dir_c610c8504d46288da7634b3c0b18263f&#45;&gt;dir_17dd1609571feee8469e465ffa40a219</title>
<path fill="none" stroke="black" d="M95,-87.7C95,-79.98 95,-70.71 95,-62.11"/>
<polygon fill="black" stroke="black" points="98.5,-62.1 95,-52.1 91.5,-62.1 98.5,-62.1"/>
<g id="a_edge1&#45;headlabel"><a xlink:href="dir_000004_000003.html" target="_top" xlink:title="3">
<text text-anchor="middle" x="101.34" y="-63.2" font-family="Helvetica,sans-Serif" font-size="10.00">3</text>
</a>
</g>
</g>
<!-- dir_d4e015951b263415729819c1a4b61808 -->
<g id="node5" class="node">
<title>dir_d4e015951b263415729819c1a4b61808</title>
<g id="a_node5"><a xlink:href="dir_d4e015951b263415729819c1a4b61808.html" target="_top" xlink:title="Rendering">
<polygon fill="none" stroke="black" points="218,-124 152,-124 152,-88 218,-88 218,-124"/>
<text text-anchor="middle" x="185" y="-103.5" font-family="Helvetica,sans-Serif" font-size="10.00">Rendering</text>
</a>
</g>
</g>
<!-- dir_d4e015951b263415729819c1a4b61808&#45;&gt;dir_17dd1609571feee8469e465ffa40a219 -->
<g id="edge4" class="edge">
<title>dir_d4e015951b263415729819c1a4b61808&#45;&gt;dir_17dd1609571feee8469e465ffa40a219</title>
<path fill="none" stroke="black" d="M162.75,-87.7C151.42,-78.88 137.47,-68.03 125.18,-58.47"/>
<polygon fill="black" stroke="black" points="127.03,-55.48 116.99,-52.1 122.74,-61.01 127.03,-55.48"/>
<g id="a_edge4&#45;headlabel"><a xlink:href="dir_000007_000003.html" target="_top" xlink:title="1">
<text text-anchor="middle" x="131.61" y="-52.95" font-family="Helvetica,sans-Serif" font-size="10.00">1</text>
</a>
</g>
</g>
<!-- dir_336443d5468dfc2bb33128b4e5b96f42 -->
<g id="node6" class="node">
<title>dir_336443d5468dfc2bb33128b4e5b96f42</title>
<g id="a_node6"><a xlink:href="dir_336443d5468dfc2bb33128b4e5b96f42.html" target="_top" xlink:title="Runtime">
<polygon fill="none" stroke="black" points="354,-124 296,-124 296,-88 354,-88 354,-124"/>
<text text-anchor="middle" x="325" y="-103.5" font-family="Helvetica,sans-Serif" font-size="10.00">Runtime</text>
</a>
</g>
</g>
<!-- dir_336443d5468dfc2bb33128b4e5b96f42&#45;&gt;dir_6aed981759055a22f0901385cc3ba5db -->
<g id="edge2" class="edge">
<title>dir_336443d5468dfc2bb33128b4e5b96f42&#45;&gt;dir_6aed981759055a22f0901385cc3ba5db</title>
<path fill="none" stroke="black" d="M326.73,-87.7C327.5,-79.98 328.43,-70.71 329.29,-62.11"/>
<polygon fill="black" stroke="black" points="332.78,-62.4 330.29,-52.1 325.81,-61.71 332.78,-62.4"/>
<g id="a_edge2&#45;headlabel"><a xlink:href="dir_000008_000006.html" target="_top" xlink:title="1">
<text text-anchor="middle" x="335.24" y="-63.76" font-family="Helvetica,sans-Serif" font-size="10.00">1</text>
</a>
</g>
</g>
<!-- dir_336443d5468dfc2bb33128b4e5b96f42&#45;&gt;dir_b1a122bf62c958266ec5bf64d14fde5a -->
<g id="edge3" class="edge">
<title>dir_336443d5468dfc2bb33128b4e5b96f42&#45;&gt;dir_b1a122bf62c958266ec5bf64d14fde5a</title>
<path fill="none" stroke="black" d="M305.22,-87.7C295.25,-78.97 282.99,-68.24 272.14,-58.75"/>
<polygon fill="black" stroke="black" points="274.38,-56.06 264.55,-52.1 269.77,-61.32 274.38,-56.06"/>
<g id="a_edge3&#45;headlabel"><a xlink:href="dir_000008_000005.html" target="_top" xlink:title="1">
<text text-anchor="middle" x="278.95" y="-53.79" font-family="Helvetica,sans-Serif" font-size="10.00">1</text>
</a>
</g>
</g>
<!-- dir_da5c6b39c0a2f54e57df6799511cd3ab -->
<g id="node7" class="node">
<title>dir_da5c6b39c0a2f54e57df6799511cd3ab</title>
<text text-anchor="middle" x="301" y="-175.5" font-family="Helvetica,sans-Serif" font-size="10.00">ui</text>
</g>
<!-- dir_da5c6b39c0a2f54e57df6799511cd3ab&#45;&gt;dir_6aed981759055a22f0901385cc3ba5db -->
<g id="edge13" class="edge">
<title>dir_da5c6b39c0a2f54e57df6799511cd3ab&#45;&gt;dir_6aed981759055a22f0901385cc3ba5db</title>
<path fill="none" stroke="black" d="M328.24,-161.54C341.35,-152.46 355.77,-139.69 363,-124 372.5,-103.37 362.59,-78.95 351.52,-60.91"/>
<polygon fill="black" stroke="black" points="354.14,-58.54 345.72,-52.11 348.3,-62.39 354.14,-58.54"/>
<g id="a_edge13&#45;headlabel"><a xlink:href="dir_000010_000006.html" target="_top" xlink:title="1">
<text text-anchor="middle" x="358.49" y="-57.48" font-family="Helvetica,sans-Serif" font-size="10.00">1</text>
</a>
</g>
</g>
<!-- dir_da5c6b39c0a2f54e57df6799511cd3ab&#45;&gt;dir_b1a122bf62c958266ec5bf64d14fde5a -->
<g id="edge14" class="edge">
<title>dir_da5c6b39c0a2f54e57df6799511cd3ab&#45;&gt;dir_b1a122bf62c958266ec5bf64d14fde5a</title>
<path fill="none" stroke="black" d="M294.25,-159.87C284.62,-135.46 266.86,-90.43 255.5,-61.64"/>
<polygon fill="black" stroke="black" points="258.7,-60.21 251.78,-52.19 252.19,-62.78 258.7,-60.21"/>
<g id="a_edge14&#45;headlabel"><a xlink:href="dir_000010_000005.html" target="_top" xlink:title="3">
<text text-anchor="middle" x="262.66" y="-60.01" font-family="Helvetica,sans-Serif" font-size="10.00">3</text>
</a>
</g>
</g>
<!-- dir_d7ad328dce0a2963719b09f0a7b7580e -->
<g id="node8" class="node">
<title>dir_d7ad328dce0a2963719b09f0a7b7580e</title>
<g id="a_node8"><a xlink:href="dir_d7ad328dce0a2963719b09f0a7b7580e.html" target="_top" xlink:title="Common">
<polygon fill="white" stroke="black" points="85.5,-196 24.5,-196 24.5,-160 85.5,-160 85.5,-196"/>
<text text-anchor="middle" x="55" y="-175.5" font-family="Helvetica,sans-Serif" font-size="10.00">Common</text>
</a>
</g>
</g>
<!-- dir_d7ad328dce0a2963719b09f0a7b7580e&#45;&gt;dir_17dd1609571feee8469e465ffa40a219 -->
<g id="edge5" class="edge">
<title>dir_d7ad328dce0a2963719b09f0a7b7580e&#45;&gt;dir_17dd1609571feee8469e465ffa40a219</title>
<path fill="none" stroke="black" d="M43.94,-159.97C33.5,-141.58 20.95,-111.73 32,-88 37.43,-76.34 46.82,-66.34 56.72,-58.26"/>
<polygon fill="black" stroke="black" points="58.85,-61.03 64.7,-52.2 54.62,-55.45 58.85,-61.03"/>
<g id="a_edge5&#45;headlabel"><a xlink:href="dir_000011_000003.html" target="_top" xlink:title="1">
<text text-anchor="middle" x="57.71" y="-62.96" font-family="Helvetica,sans-Serif" font-size="10.00">1</text>
</a>
</g>
</g>
<!-- dir_03b2673553046158dff6b880fc282c90 -->
<g id="node9" class="node">
<title>dir_03b2673553046158dff6b880fc282c90</title>
<g id="a_node9"><a xlink:href="dir_03b2673553046158dff6b880fc282c90.html" target="_top" xlink:title="Components">
<polygon fill="white" stroke="black" points="182,-196 104,-196 104,-160 182,-160 182,-196"/>
<text text-anchor="middle" x="143" y="-175.5" font-family="Helvetica,sans-Serif" font-size="10.00">Components</text>
</a>
</g>
</g>
<!-- dir_03b2673553046158dff6b880fc282c90&#45;&gt;dir_17dd1609571feee8469e465ffa40a219 -->
<g id="edge6" class="edge">
<title>dir_03b2673553046158dff6b880fc282c90&#45;&gt;dir_17dd1609571feee8469e465ffa40a219</title>
<path fill="none" stroke="black" d="M110.31,-159.97C83.22,-145.69 48.86,-127.16 47,-124 38.87,-110.22 41.24,-102.93 47,-88 51.1,-77.36 58.44,-67.53 66.17,-59.3"/>
<polygon fill="black" stroke="black" points="68.67,-61.75 73.29,-52.21 63.73,-56.78 68.67,-61.75"/>
<g id="a_edge6&#45;headlabel"><a xlink:href="dir_000012_000003.html" target="_top" xlink:title="8">
<text text-anchor="middle" x="68.12" y="-63.79" font-family="Helvetica,sans-Serif" font-size="10.00">8</text>
</a>
</g>
</g>
<!-- dir_03b2673553046158dff6b880fc282c90&#45;&gt;dir_c610c8504d46288da7634b3c0b18263f -->
<g id="edge7" class="edge">
<title>dir_03b2673553046158dff6b880fc282c90&#45;&gt;dir_c610c8504d46288da7634b3c0b18263f</title>
<path fill="none" stroke="black" d="M131.13,-159.7C125.5,-151.47 118.65,-141.48 112.43,-132.42"/>
<polygon fill="black" stroke="black" points="115.27,-130.37 106.73,-124.1 109.5,-134.33 115.27,-130.37"/>
<g id="a_edge7&#45;headlabel"><a xlink:href="dir_000012_000004.html" target="_top" xlink:title="4">
<text text-anchor="middle" x="119.65" y="-129.23" font-family="Helvetica,sans-Serif" font-size="10.00">4</text>
</a>
</g>
</g>
<!-- dir_f3911b9629b0e27ea480d06d47573cbf -->
<g id="node10" class="node">
<title>dir_f3911b9629b0e27ea480d06d47573cbf</title>
<g id="a_node10"><a xlink:href="dir_f3911b9629b0e27ea480d06d47573cbf.html" target="_top" xlink:title="widgets">
<polygon fill="white" stroke="black" points="255.5,-196 200.5,-196 200.5,-160 255.5,-160 255.5,-196"/>
<text text-anchor="middle" x="228" y="-175.5" font-family="Helvetica,sans-Serif" font-size="10.00">widgets</text>
</a>
</g>
</g>
<!-- dir_f3911b9629b0e27ea480d06d47573cbf&#45;&gt;dir_17dd1609571feee8469e465ffa40a219 -->
<g id="edge8" class="edge">
<title>dir_f3911b9629b0e27ea480d06d47573cbf&#45;&gt;dir_17dd1609571feee8469e465ffa40a219</title>
<path fill="none" stroke="black" d="M233.01,-159.93C237.56,-140.68 241.57,-109.3 227,-88 209.22,-62.02 176.42,-48.77 147.97,-42.02"/>
<polygon fill="black" stroke="black" points="148.63,-38.58 138.11,-39.89 147.15,-45.42 148.63,-38.58"/>
<g id="a_edge8&#45;headlabel"><a xlink:href="dir_000013_000003.html" target="_top" xlink:title="6">
<text text-anchor="middle" x="152.74" y="-34.06" font-family="Helvetica,sans-Serif" font-size="10.00">6</text>
</a>
</g>
</g>
<!-- dir_f3911b9629b0e27ea480d06d47573cbf&#45;&gt;dir_b1a122bf62c958266ec5bf64d14fde5a -->
<g id="edge10" class="edge">
<title>dir_f3911b9629b0e27ea480d06d47573cbf&#45;&gt;dir_b1a122bf62c958266ec5bf64d14fde5a</title>
<path fill="none" stroke="black" d="M233.67,-159.54C236.73,-149.3 240.23,-136.05 242,-124 245.02,-103.48 245.7,-80.03 245.66,-62.35"/>
<polygon fill="black" stroke="black" points="249.16,-62.13 245.56,-52.16 242.16,-62.2 249.16,-62.13"/>
<g id="a_edge10&#45;headlabel"><a xlink:href="dir_000013_000005.html" target="_top" xlink:title="2">
<text text-anchor="middle" x="252.03" y="-63.19" font-family="Helvetica,sans-Serif" font-size="10.00">2</text>
</a>
</g>
</g>
<!-- dir_f3911b9629b0e27ea480d06d47573cbf&#45;&gt;dir_c610c8504d46288da7634b3c0b18263f -->
<g id="edge11" class="edge">
<title>dir_f3911b9629b0e27ea480d06d47573cbf&#45;&gt;dir_c610c8504d46288da7634b3c0b18263f</title>
<path fill="none" stroke="black" d="M203.66,-159.78C199.51,-157.06 195.18,-154.37 191,-152 176.02,-143.5 159.16,-135.2 143.81,-128.09"/>
<polygon fill="black" stroke="black" points="145.02,-124.79 134.47,-123.83 142.11,-131.16 145.02,-124.79"/>
<g id="a_edge11&#45;headlabel"><a xlink:href="dir_000013_000004.html" target="_top" xlink:title="8">
<text text-anchor="middle" x="149.47" y="-121.2" font-family="Helvetica,sans-Serif" font-size="10.00">8</text>
</a>
</g>
</g>
<!-- dir_f3911b9629b0e27ea480d06d47573cbf&#45;&gt;dir_d4e015951b263415729819c1a4b61808 -->
<g id="edge12" class="edge">
<title>dir_f3911b9629b0e27ea480d06d47573cbf&#45;&gt;dir_d4e015951b263415729819c1a4b61808</title>
<path fill="none" stroke="black" d="M217.37,-159.7C212.37,-151.56 206.31,-141.69 200.79,-132.7"/>
<polygon fill="black" stroke="black" points="203.72,-130.79 195.51,-124.1 197.76,-134.46 203.72,-130.79"/>
<g id="a_edge12&#45;headlabel"><a xlink:href="dir_000013_000007.html" target="_top" xlink:title="1">
<text text-anchor="middle" x="208.02" y="-129.87" font-family="Helvetica,sans-Serif" font-size="10.00">1</text>
</a>
</g>
</g>
<!-- dir_f3911b9629b0e27ea480d06d47573cbf&#45;&gt;dir_336443d5468dfc2bb33128b4e5b96f42 -->
<g id="edge9" class="edge">
<title>dir_f3911b9629b0e27ea480d06d47573cbf&#45;&gt;dir_336443d5468dfc2bb33128b4e5b96f42</title>
<path fill="none" stroke="black" d="M251.98,-159.7C264.31,-150.8 279.52,-139.82 292.85,-130.2"/>
<polygon fill="black" stroke="black" points="295.24,-132.79 301.3,-124.1 291.14,-127.12 295.24,-132.79"/>
<g id="a_edge9&#45;headlabel"><a xlink:href="dir_000013_000008.html" target="_top" xlink:title="1">
<text text-anchor="middle" x="293.98" y="-134.7" font-family="Helvetica,sans-Serif" font-size="10.00">1</text>
</a>
</g>
</g>
</g>
</svg>
