<?xml version="1.0" encoding="UTF-8" standalone="no"?>
<!DOCTYPE svg PUBLIC "-//W3C//DTD SVG 1.1//EN"
 "http://www.w3.org/Graphics/SVG/1.1/DTD/svg11.dtd">
<!-- Generated by graphviz version 2.43.0 (0)
 -->
<!-- Title: src Pages: 1 -->
<svg width="476pt" height="436pt"
 viewBox="0.00 0.00 476.00 436.00" xmlns="http://www.w3.org/2000/svg" xmlns:xlink="http://www.w3.org/1999/xlink">
<g id="graph0" class="graph" transform="scale(1 1) rotate(0) translate(4 432)">
<title>src</title>
<polygon fill="white" stroke="transparent" points="-4,4 -4,-432 472,-432 472,4 -4,4"/>
<g id="clust1" class="cluster">
<title>clusterdir_68267d1309a1af8e8297ef4c3efbcdba</title>
<g id="a_clust1"><a xlink:href="dir_68267d1309a1af8e8297ef4c3efbcdba.html" target="_top">
<polygon fill="#eeeeff" stroke="black" points="8,-8 8,-420 460,-420 460,-8 8,-8"/>
</a>
</g>
</g>
<!-- dir_68267d1309a1af8e8297ef4c3efbcdba -->
<g id="node1" class="node">
<title>dir_68267d1309a1af8e8297ef4c3efbcdba</title>
<text text-anchor="middle" x="355" y="-391.5" font-family="Helvetica,sans-Serif" font-size="10.00">src</text>
</g>
<!-- dir_17dd1609571feee8469e465ffa40a219 -->
<g id="node2" class="node">
<title>dir_17dd1609571feee8469e465ffa40a219</title>
<g id="a_node2"><a xlink:href="dir_17dd1609571feee8469e465ffa40a219.html" target="_top" xlink:title="AssetManager">
<polygon fill="white" stroke="black" points="292,-124 206,-124 206,-88 292,-88 292,-124"/>
<text text-anchor="middle" x="249" y="-103.5" font-family="Helvetica,sans-Serif" font-size="10.00">AssetManager</text>
</a>
</g>
</g>
<!-- dir_3813464283bee2267f39dcf080a84d74 -->
<g id="node7" class="node">
<title>dir_3813464283bee2267f39dcf080a84d74</title>
<g id="a_node7"><a xlink:href="dir_3813464283bee2267f39dcf080a84d74.html" target="_top" xlink:title="Math">
<polygon fill="white" stroke="black" points="245,-52 191,-52 191,-16 245,-16 245,-52"/>
<text text-anchor="middle" x="218" y="-31.5" font-family="Helvetica,sans-Serif" font-size="10.00">Math</text>
</a>
</g>
</g>
<!-- dir_17dd1609571feee8469e465ffa40a219&#45;&gt;dir_3813464283bee2267f39dcf080a84d74 -->
<g id="edge15" class="edge">
<title>dir_17dd1609571feee8469e465ffa40a219&#45;&gt;dir_3813464283bee2267f39dcf080a84d74</title>
<path fill="none" stroke="black" d="M241.34,-87.7C237.81,-79.73 233.54,-70.1 229.63,-61.26"/>
<polygon fill="black" stroke="black" points="232.82,-59.83 225.57,-52.1 226.42,-62.67 232.82,-59.83"/>
<g id="a_edge15&#45;headlabel"><a xlink:href="dir_000003_000008.html" target="_top" xlink:title="1">
<text text-anchor="middle" x="236.88" y="-59.47" font-family="Helvetica,sans-Serif" font-size="10.00">1</text>
</a>
</g>
</g>
<!-- dir_ba210d1fa67db7bee1bb22e0a3c11d9f -->
<g id="node3" class="node">
<title>dir_ba210d1fa67db7bee1bb22e0a3c11d9f</title>
<g id="a_node3"><a xlink:href="dir_ba210d1fa67db7bee1bb22e0a3c11d9f.html" target="_top" xlink:title="Common">
<polygon fill="white" stroke="black" points="118.5,-124 57.5,-124 57.5,-88 118.5,-88 118.5,-124"/>
<text text-anchor="middle" x="88" y="-103.5" font-family="Helvetica,sans-Serif" font-size="10.00">Common</text>
</a>
</g>
</g>
<!-- dir_c610c8504d46288da7634b3c0b18263f -->
<g id="node4" class="node">
<title>dir_c610c8504d46288da7634b3c0b18263f</title>
<g id="a_node4"><a xlink:href="dir_c610c8504d46288da7634b3c0b18263f.html" target="_top" xlink:title="Components">
<polygon fill="white" stroke="black" points="226,-196 148,-196 148,-160 226,-160 226,-196"/>
<text text-anchor="middle" x="187" y="-175.5" font-family="Helvetica,sans-Serif" font-size="10.00">Components</text>
</a>
</g>
</g>
<!-- dir_c610c8504d46288da7634b3c0b18263f&#45;&gt;dir_17dd1609571feee8469e465ffa40a219 -->
<g id="edge1" class="edge">
<title>dir_c610c8504d46288da7634b3c0b18263f&#45;&gt;dir_17dd1609571feee8469e465ffa40a219</title>
<path fill="none" stroke="black" d="M202.33,-159.7C209.76,-151.3 218.82,-141.07 226.98,-131.86"/>
<polygon fill="black" stroke="black" points="229.84,-133.91 233.85,-124.1 224.6,-129.27 229.84,-133.91"/>
<g id="a_edge1&#45;headlabel"><a xlink:href="dir_000005_000003.html" target="_top" xlink:title="3">
<text text-anchor="middle" x="229.58" y="-135.98" font-family="Helvetica,sans-Serif" font-size="10.00">3</text>
</a>
</g>
</g>
<!-- dir_c610c8504d46288da7634b3c0b18263f&#45;&gt;dir_ba210d1fa67db7bee1bb22e0a3c11d9f -->
<g id="edge3" class="edge">
<title>dir_c610c8504d46288da7634b3c0b18263f&#45;&gt;dir_ba210d1fa67db7bee1bb22e0a3c11d9f</title>
<path fill="none" stroke="black" d="M162.78,-159.88C150.08,-150.89 134.34,-139.76 120.58,-130.03"/>
<polygon fill="black" stroke="black" points="122.5,-127.11 112.31,-124.19 118.46,-132.82 122.5,-127.11"/>
<g id="a_edge3&#45;headlabel"><a xlink:href="dir_000005_000004.html" target="_top" xlink:title="1">
<text text-anchor="middle" x="127.07" y="-124.36" font-family="Helvetica,sans-Serif" font-size="10.00">1</text>
</a>
</g>
</g>
<!-- dir_c610c8504d46288da7634b3c0b18263f&#45;&gt;dir_3813464283bee2267f39dcf080a84d74 -->
<g id="edge2" class="edge">
<title>dir_c610c8504d46288da7634b3c0b18263f&#45;&gt;dir_3813464283bee2267f39dcf080a84d74</title>
<path fill="none" stroke="black" d="M187.59,-159.7C188.52,-141.59 190.9,-112.44 197,-88 199.2,-79.17 202.54,-69.84 205.9,-61.51"/>
<polygon fill="black" stroke="black" points="209.13,-62.86 209.8,-52.28 202.68,-60.13 209.13,-62.86"/>
<g id="a_edge2&#45;headlabel"><a xlink:href="dir_000005_000008.html" target="_top" xlink:title="2">
<text text-anchor="middle" x="210.35" y="-64.77" font-family="Helvetica,sans-Serif" font-size="10.00">2</text>
</a>
</g>
</g>
<!-- dir_b1a122bf62c958266ec5bf64d14fde5a -->
<g id="node5" class="node">
<title>dir_b1a122bf62c958266ec5bf64d14fde5a</title>
<g id="a_node5"><a xlink:href="dir_b1a122bf62c958266ec5bf64d14fde5a.html" target="_top" xlink:title="ECS">
<polygon fill="white" stroke="black" points="110,-196 56,-196 56,-160 110,-160 110,-196"/>
<text text-anchor="middle" x="83" y="-175.5" font-family="Helvetica,sans-Serif" font-size="10.00">ECS</text>
</a>
</g>
</g>
<!-- dir_6aed981759055a22f0901385cc3ba5db -->
<g id="node6" class="node">
<title>dir_6aed981759055a22f0901385cc3ba5db</title>
<g id="a_node6"><a xlink:href="dir_6aed981759055a22f0901385cc3ba5db.html" target="_top" xlink:title="InputManager">
<polygon fill="white" stroke="black" points="432,-196 348,-196 348,-160 432,-160 432,-196"/>
<text text-anchor="middle" x="390" y="-175.5" font-family="Helvetica,sans-Serif" font-size="10.00">InputManager</text>
</a>
</g>
</g>
<!-- dir_d4e015951b263415729819c1a4b61808 -->
<g id="node8" class="node">
<title>dir_d4e015951b263415729819c1a4b61808</title>
<g id="a_node8"><a xlink:href="dir_d4e015951b263415729819c1a4b61808.html" target="_top" xlink:title="Rendering">
<polygon fill="white" stroke="black" points="330,-196 264,-196 264,-160 330,-160 330,-196"/>
<text text-anchor="middle" x="297" y="-175.5" font-family="Helvetica,sans-Serif" font-size="10.00">Rendering</text>
</a>
</g>
</g>
<!-- dir_d4e015951b263415729819c1a4b61808&#45;&gt;dir_17dd1609571feee8469e465ffa40a219 -->
<g id="edge8" class="edge">
<title>dir_d4e015951b263415729819c1a4b61808&#45;&gt;dir_17dd1609571feee8469e465ffa40a219</title>
<path fill="none" stroke="black" d="M285.13,-159.7C279.5,-151.47 272.65,-141.48 266.43,-132.42"/>
<polygon fill="black" stroke="black" points="269.27,-130.37 260.73,-124.1 263.5,-134.33 269.27,-130.37"/>
<g id="a_edge8&#45;headlabel"><a xlink:href="dir_000009_000003.html" target="_top" xlink:title="1">
<text text-anchor="middle" x="273.65" y="-129.23" font-family="Helvetica,sans-Serif" font-size="10.00">1</text>
</a>
</g>
</g>
<!-- dir_336443d5468dfc2bb33128b4e5b96f42 -->
<g id="node9" class="node">
<title>dir_336443d5468dfc2bb33128b4e5b96f42</title>
<g id="a_node9"><a xlink:href="dir_336443d5468dfc2bb33128b4e5b96f42.html" target="_top" xlink:title="Runtime">
<polygon fill="white" stroke="black" points="160,-340 102,-340 102,-304 160,-304 160,-340"/>
<text text-anchor="middle" x="131" y="-319.5" font-family="Helvetica,sans-Serif" font-size="10.00">Runtime</text>
</a>
</g>
</g>
<!-- dir_336443d5468dfc2bb33128b4e5b96f42&#45;&gt;dir_ba210d1fa67db7bee1bb22e0a3c11d9f -->
<g id="edge6" class="edge">
<title>dir_336443d5468dfc2bb33128b4e5b96f42&#45;&gt;dir_ba210d1fa67db7bee1bb22e0a3c11d9f</title>
<path fill="none" stroke="black" d="M114.39,-303.75C93.91,-281.14 60.19,-239.27 47,-196 42.34,-180.7 41.83,-175.14 47,-160 50.44,-149.93 56.66,-140.28 63.23,-132.05"/>
<polygon fill="black" stroke="black" points="66,-134.2 69.83,-124.32 60.68,-129.65 66,-134.2"/>
<g id="a_edge6&#45;headlabel"><a xlink:href="dir_000010_000004.html" target="_top" xlink:title="1">
<text text-anchor="middle" x="65.82" y="-136.28" font-family="Helvetica,sans-Serif" font-size="10.00">1</text>
</a>
</g>
</g>
<!-- dir_336443d5468dfc2bb33128b4e5b96f42&#45;&gt;dir_b1a122bf62c958266ec5bf64d14fde5a -->
<g id="edge5" class="edge">
<title>dir_336443d5468dfc2bb33128b4e5b96f42&#45;&gt;dir_b1a122bf62c958266ec5bf64d14fde5a</title>
<path fill="none" stroke="black" d="M125.21,-303.87C116.99,-279.56 101.87,-234.82 92.13,-206.01"/>
<polygon fill="black" stroke="black" points="95.33,-204.54 88.81,-196.19 88.7,-206.78 95.33,-204.54"/>
<g id="a_edge5&#45;headlabel"><a xlink:href="dir_000010_000006.html" target="_top" xlink:title="1">
<text text-anchor="middle" x="99.17" y="-204.54" font-family="Helvetica,sans-Serif" font-size="10.00">1</text>
</a>
</g>
</g>
<!-- dir_336443d5468dfc2bb33128b4e5b96f42&#45;&gt;dir_d4e015951b263415729819c1a4b61808 -->
<g id="edge7" class="edge">
<title>dir_336443d5468dfc2bb33128b4e5b96f42&#45;&gt;dir_d4e015951b263415729819c1a4b61808</title>
<path fill="none" stroke="black" d="M160.23,-316.98C190.85,-311.28 238.39,-297.97 267,-268 282.96,-251.28 290.44,-225.79 293.94,-206.37"/>
<polygon fill="black" stroke="black" points="297.43,-206.71 295.51,-196.3 290.51,-205.64 297.43,-206.71"/>
<g id="a_edge7&#45;headlabel"><a xlink:href="dir_000010_000009.html" target="_top" xlink:title="1">
<text text-anchor="middle" x="299.69" y="-208.2" font-family="Helvetica,sans-Serif" font-size="10.00">1</text>
</a>
</g>
</g>
<!-- dir_900c20bb70493231141df6997ccd6b87 -->
<g id="node10" class="node">
<title>dir_900c20bb70493231141df6997ccd6b87</title>
<g id="a_node10"><a xlink:href="dir_900c20bb70493231141df6997ccd6b87.html" target="_top" xlink:title="Systems">
<polygon fill="white" stroke="black" points="257.5,-268 198.5,-268 198.5,-232 257.5,-232 257.5,-268"/>
<text text-anchor="middle" x="228" y="-247.5" font-family="Helvetica,sans-Serif" font-size="10.00">Systems</text>
</a>
</g>
</g>
<!-- dir_336443d5468dfc2bb33128b4e5b96f42&#45;&gt;dir_900c20bb70493231141df6997ccd6b87 -->
<g id="edge4" class="edge">
<title>dir_336443d5468dfc2bb33128b4e5b96f42&#45;&gt;dir_900c20bb70493231141df6997ccd6b87</title>
<path fill="none" stroke="black" d="M154.98,-303.7C167.31,-294.8 182.52,-283.82 195.85,-274.2"/>
<polygon fill="black" stroke="black" points="198.24,-276.79 204.3,-268.1 194.14,-271.12 198.24,-276.79"/>
<g id="a_edge4&#45;headlabel"><a xlink:href="dir_000010_000011.html" target="_top" xlink:title="4">
<text text-anchor="middle" x="196.98" y="-278.7" font-family="Helvetica,sans-Serif" font-size="10.00">4</text>
</a>
</g>
</g>
<!-- dir_900c20bb70493231141df6997ccd6b87&#45;&gt;dir_17dd1609571feee8469e465ffa40a219 -->
<g id="edge9" class="edge">
<title>dir_900c20bb70493231141df6997ccd6b87&#45;&gt;dir_17dd1609571feee8469e465ffa40a219</title>
<path fill="none" stroke="black" d="M230.53,-231.87C234.11,-207.67 240.69,-163.21 244.95,-134.39"/>
<polygon fill="black" stroke="black" points="248.46,-134.59 246.46,-124.19 241.53,-133.57 248.46,-134.59"/>
<g id="a_edge9&#45;headlabel"><a xlink:href="dir_000011_000003.html" target="_top" xlink:title="2">
<text text-anchor="middle" x="250.74" y="-136.07" font-family="Helvetica,sans-Serif" font-size="10.00">2</text>
</a>
</g>
</g>
<!-- dir_900c20bb70493231141df6997ccd6b87&#45;&gt;dir_ba210d1fa67db7bee1bb22e0a3c11d9f -->
<g id="edge12" class="edge">
<title>dir_900c20bb70493231141df6997ccd6b87&#45;&gt;dir_ba210d1fa67db7bee1bb22e0a3c11d9f</title>
<path fill="none" stroke="black" d="M198.48,-236.35C179.73,-227.21 155.91,-213.42 139,-196 126.25,-182.86 128.07,-175.9 119,-160 113.96,-151.16 108.37,-141.54 103.34,-132.96"/>
<polygon fill="black" stroke="black" points="106.23,-130.98 98.15,-124.13 100.2,-134.52 106.23,-130.98"/>
<g id="a_edge12&#45;headlabel"><a xlink:href="dir_000011_000004.html" target="_top" xlink:title="1">
<text text-anchor="middle" x="110.5" y="-130.14" font-family="Helvetica,sans-Serif" font-size="10.00">1</text>
</a>
</g>
</g>
<!-- dir_900c20bb70493231141df6997ccd6b87&#45;&gt;dir_c610c8504d46288da7634b3c0b18263f -->
<g id="edge13" class="edge">
<title>dir_900c20bb70493231141df6997ccd6b87&#45;&gt;dir_c610c8504d46288da7634b3c0b18263f</title>
<path fill="none" stroke="black" d="M217.87,-231.7C213.15,-223.64 207.44,-213.89 202.22,-204.98"/>
<polygon fill="black" stroke="black" points="205.09,-202.96 197.02,-196.1 199.05,-206.5 205.09,-202.96"/>
<g id="a_edge13&#45;headlabel"><a xlink:href="dir_000011_000005.html" target="_top" xlink:title="14">
<text text-anchor="middle" x="209.36" y="-202.13" font-family="Helvetica,sans-Serif" font-size="10.00">14</text>
</a>
</g>
</g>
<!-- dir_900c20bb70493231141df6997ccd6b87&#45;&gt;dir_b1a122bf62c958266ec5bf64d14fde5a -->
<g id="edge11" class="edge">
<title>dir_900c20bb70493231141df6997ccd6b87&#45;&gt;dir_b1a122bf62c958266ec5bf64d14fde5a</title>
<path fill="none" stroke="black" d="M198.31,-234.67C175.49,-223.65 143.85,-208.37 119.48,-196.61"/>
<polygon fill="black" stroke="black" points="120.73,-193.33 110.2,-192.13 117.69,-199.63 120.73,-193.33"/>
<g id="a_edge11&#45;headlabel"><a xlink:href="dir_000011_000006.html" target="_top" xlink:title="4">
<text text-anchor="middle" x="125.2" y="-189.83" font-family="Helvetica,sans-Serif" font-size="10.00">4</text>
</a>
</g>
</g>
<!-- dir_900c20bb70493231141df6997ccd6b87&#45;&gt;dir_6aed981759055a22f0901385cc3ba5db -->
<g id="edge10" class="edge">
<title>dir_900c20bb70493231141df6997ccd6b87&#45;&gt;dir_6aed981759055a22f0901385cc3ba5db</title>
<path fill="none" stroke="black" d="M257.71,-236.16C281,-226.1 313.9,-211.88 341.06,-200.15"/>
<polygon fill="black" stroke="black" points="342.61,-203.29 350.4,-196.11 339.83,-196.87 342.61,-203.29"/>
<g id="a_edge10&#45;headlabel"><a xlink:href="dir_000011_000007.html" target="_top" xlink:title="2">
<text text-anchor="middle" x="340.43" y="-204.82" font-family="Helvetica,sans-Serif" font-size="10.00">2</text>
</a>
</g>
</g>
<!-- dir_900c20bb70493231141df6997ccd6b87&#45;&gt;dir_d4e015951b263415729819c1a4b61808 -->
<g id="edge14" class="edge">
<title>dir_900c20bb70493231141df6997ccd6b87&#45;&gt;dir_d4e015951b263415729819c1a4b61808</title>
<path fill="none" stroke="black" d="M245.06,-231.7C253.5,-223.14 263.82,-212.66 273.04,-203.3"/>
<polygon fill="black" stroke="black" points="275.61,-205.68 280.14,-196.1 270.63,-200.77 275.61,-205.68"/>
<g id="a_edge14&#45;headlabel"><a xlink:href="dir_000011_000009.html" target="_top" xlink:title="4">
<text text-anchor="middle" x="275.11" y="-207.74" font-family="Helvetica,sans-Serif" font-size="10.00">4</text>
</a>
</g>
</g>
<!-- dir_da5c6b39c0a2f54e57df6799511cd3ab -->
<g id="node11" class="node">
<title>dir_da5c6b39c0a2f54e57df6799511cd3ab</title>
<g id="a_node11"><a xlink:href="dir_da5c6b39c0a2f54e57df6799511cd3ab.html" target="_top" xlink:title="ui">
<polygon fill="white" stroke="red" points="223,-412 169,-412 169,-376 223,-376 223,-412"/>
<text text-anchor="middle" x="196" y="-391.5" font-family="Helvetica,sans-Serif" font-size="10.00">ui</text>
</a>
</g>
</g>
<!-- dir_da5c6b39c0a2f54e57df6799511cd3ab&#45;&gt;dir_17dd1609571feee8469e465ffa40a219 -->
<g id="edge16" class="edge">
<title>dir_da5c6b39c0a2f54e57df6799511cd3ab&#45;&gt;dir_17dd1609571feee8469e465ffa40a219</title>
<path fill="none" stroke="black" d="M223.21,-381.48C277.32,-356.83 396.99,-293.21 441,-196 447.6,-181.42 450.69,-172.73 441,-160 424.2,-137.93 353.04,-122.7 302.26,-114.41"/>
<polygon fill="black" stroke="black" points="302.5,-110.91 292.08,-112.8 301.4,-117.82 302.5,-110.91"/>
<g id="a_edge16&#45;headlabel"><a xlink:href="dir_000012_000003.html" target="_top" xlink:title="17">
<text text-anchor="middle" x="306.5" y="-106.17" font-family="Helvetica,sans-Serif" font-size="10.00">17</text>
</a>
</g>
</g>
<!-- dir_da5c6b39c0a2f54e57df6799511cd3ab&#45;&gt;dir_ba210d1fa67db7bee1bb22e0a3c11d9f -->
<g id="edge21" class="edge">
<title>dir_da5c6b39c0a2f54e57df6799511cd3ab&#45;&gt;dir_ba210d1fa67db7bee1bb22e0a3c11d9f</title>
<path fill="none" stroke="black" d="M168.99,-388.5C141.07,-382.41 98.24,-368.8 74,-340 21.52,-277.65 9.29,-235.89 39,-160 43.2,-149.28 50.69,-139.43 58.58,-131.2"/>
<polygon fill="black" stroke="black" points="61.12,-133.61 65.85,-124.13 56.24,-128.59 61.12,-133.61"/>
<g id="a_edge21&#45;headlabel"><a xlink:href="dir_000012_000004.html" target="_top" xlink:title="1">
<text text-anchor="middle" x="60.53" y="-135.65" font-family="Helvetica,sans-Serif" font-size="10.00">1</text>
</a>
</g>
</g>
<!-- dir_da5c6b39c0a2f54e57df6799511cd3ab&#45;&gt;dir_c610c8504d46288da7634b3c0b18263f -->
<g id="edge20" class="edge">
<title>dir_da5c6b39c0a2f54e57df6799511cd3ab&#45;&gt;dir_c610c8504d46288da7634b3c0b18263f</title>
<path fill="none" stroke="black" d="M195.09,-375.61C193.84,-351.47 191.57,-306.42 190,-268 189.15,-247.28 188.37,-223.83 187.82,-206.21"/>
<polygon fill="black" stroke="black" points="191.31,-205.95 187.5,-196.06 184.31,-206.17 191.31,-205.95"/>
<g id="a_edge20&#45;headlabel"><a xlink:href="dir_000012_000005.html" target="_top" xlink:title="17">
<text text-anchor="middle" x="194.26" y="-206.96" font-family="Helvetica,sans-Serif" font-size="10.00">17</text>
</a>
</g>
</g>
<!-- dir_da5c6b39c0a2f54e57df6799511cd3ab&#45;&gt;dir_b1a122bf62c958266ec5bf64d14fde5a -->
<g id="edge19" class="edge">
<title>dir_da5c6b39c0a2f54e57df6799511cd3ab&#45;&gt;dir_b1a122bf62c958266ec5bf64d14fde5a</title>
<path fill="none" stroke="black" d="M168.98,-387.08C144.66,-380.2 110.16,-366.26 93,-340 66.6,-299.6 71.21,-240.62 77.05,-206.4"/>
<polygon fill="black" stroke="black" points="80.56,-206.68 78.95,-196.21 73.67,-205.4 80.56,-206.68"/>
<g id="a_edge19&#45;headlabel"><a xlink:href="dir_000012_000006.html" target="_top" xlink:title="4">
<text text-anchor="middle" x="82.69" y="-208.23" font-family="Helvetica,sans-Serif" font-size="10.00">4</text>
</a>
</g>
</g>
<!-- dir_da5c6b39c0a2f54e57df6799511cd3ab&#45;&gt;dir_6aed981759055a22f0901385cc3ba5db -->
<g id="edge17" class="edge">
<title>dir_da5c6b39c0a2f54e57df6799511cd3ab&#45;&gt;dir_6aed981759055a22f0901385cc3ba5db</title>
<path fill="none" stroke="black" d="M217.38,-375.91C229.45,-365.9 244.56,-352.75 257,-340 300.92,-294.97 346.4,-237.03 371.15,-204.36"/>
<polygon fill="black" stroke="black" points="374.05,-206.32 377.27,-196.23 368.46,-202.11 374.05,-206.32"/>
<g id="a_edge17&#45;headlabel"><a xlink:href="dir_000012_000007.html" target="_top" xlink:title="2">
<text text-anchor="middle" x="374.15" y="-208.4" font-family="Helvetica,sans-Serif" font-size="10.00">2</text>
</a>
</g>
</g>
<!-- dir_da5c6b39c0a2f54e57df6799511cd3ab&#45;&gt;dir_d4e015951b263415729819c1a4b61808 -->
<g id="edge22" class="edge">
<title>dir_da5c6b39c0a2f54e57df6799511cd3ab&#45;&gt;dir_d4e015951b263415729819c1a4b61808</title>
<path fill="none" stroke="black" d="M211.52,-375.82C231.25,-352.96 264.8,-310.48 282,-268 289.98,-248.3 293.71,-224.5 295.46,-206.46"/>
<polygon fill="black" stroke="black" points="298.96,-206.58 296.3,-196.33 291.99,-206.01 298.96,-206.58"/>
<g id="a_edge22&#45;headlabel"><a xlink:href="dir_000012_000009.html" target="_top" xlink:title="1">
<text text-anchor="middle" x="301.5" y="-207.9" font-family="Helvetica,sans-Serif" font-size="10.00">1</text>
</a>
</g>
</g>
<!-- dir_da5c6b39c0a2f54e57df6799511cd3ab&#45;&gt;dir_336443d5468dfc2bb33128b4e5b96f42 -->
<g id="edge23" class="edge">
<title>dir_da5c6b39c0a2f54e57df6799511cd3ab&#45;&gt;dir_336443d5468dfc2bb33128b4e5b96f42</title>
<path fill="none" stroke="black" d="M179.93,-375.7C172.06,-367.22 162.44,-356.86 153.83,-347.58"/>
<polygon fill="black" stroke="black" points="156.25,-345.05 146.88,-340.1 151.12,-349.81 156.25,-345.05"/>
<g id="a_edge23&#45;headlabel"><a xlink:href="dir_000012_000010.html" target="_top" xlink:title="1">
<text text-anchor="middle" x="160.78" y="-343.25" font-family="Helvetica,sans-Serif" font-size="10.00">1</text>
</a>
</g>
</g>
<!-- dir_da5c6b39c0a2f54e57df6799511cd3ab&#45;&gt;dir_900c20bb70493231141df6997ccd6b87 -->
<g id="edge18" class="edge">
<title>dir_da5c6b39c0a2f54e57df6799511cd3ab&#45;&gt;dir_900c20bb70493231141df6997ccd6b87</title>
<path fill="none" stroke="black" d="M199.86,-375.87C205.34,-351.56 215.42,-306.82 221.91,-278.01"/>
<polygon fill="black" stroke="black" points="225.34,-278.71 224.13,-268.19 218.51,-277.18 225.34,-278.71"/>
<g id="a_edge18&#45;headlabel"><a xlink:href="dir_000012_000011.html" target="_top" xlink:title="1">
<text text-anchor="middle" x="227.32" y="-280.34" font-family="Helvetica,sans-Serif" font-size="10.00">1</text>
</a>
</g>
</g>
</g>
</svg>
