<?xml version="1.0" encoding="UTF-8" standalone="no"?>
<!DOCTYPE svg PUBLIC "-//W3C//DTD SVG 1.1//EN"
 "http://www.w3.org/Graphics/SVG/1.1/DTD/svg11.dtd">
<!-- Generated by graphviz version 2.43.0 (0)
 -->
<!-- Title: src/ui/widgets Pages: 1 -->
<svg width="201pt" height="295pt"
 viewBox="0.00 0.00 201.00 295.00" xmlns="http://www.w3.org/2000/svg" xmlns:xlink="http://www.w3.org/1999/xlink">
<g id="graph0" class="graph" transform="scale(1 1) rotate(0) translate(4 291)">
<title>src/ui/widgets</title>
<polygon fill="white" stroke="transparent" points="-4,4 -4,-291 197,-291 197,4 -4,4"/>
<g id="clust1" class="cluster">
<title>clusterdir_da5c6b39c0a2f54e57df6799511cd3ab</title>
<g id="a_clust1"><a xlink:href="dir_da5c6b39c0a2f54e57df6799511cd3ab.html" target="_top" xlink:title="ui">
<polygon fill="#ddddee" stroke="black" points="91,-136 91,-279 185,-279 185,-136 91,-136"/>
<text text-anchor="middle" x="138" y="-267" font-family="Helvetica,sans-Serif" font-size="10.00">ui</text>
</a>
</g>
</g>
<!-- dir_90003aba6c11e382cedb0e28930e6873 -->
<g id="node1" class="node">
<title>dir_90003aba6c11e382cedb0e28930e6873</title>
<g id="a_node1"><a xlink:href="dir_90003aba6c11e382cedb0e28930e6873.html" target="_top" xlink:title="components">
<polygon fill="white" stroke="red" points="176.5,-252 99.5,-252 99.5,-216 176.5,-216 176.5,-252"/>
<text text-anchor="middle" x="138" y="-231.5" font-family="Helvetica,sans-Serif" font-size="10.00">components</text>
</a>
</g>
</g>
<!-- dir_f3911b9629b0e27ea480d06d47573cbf -->
<g id="node2" class="node">
<title>dir_f3911b9629b0e27ea480d06d47573cbf</title>
<g id="a_node2"><a xlink:href="dir_f3911b9629b0e27ea480d06d47573cbf.html" target="_top" xlink:title="widgets">
<polygon fill="#eeeeff" stroke="black" points="165.5,-180 110.5,-180 110.5,-144 165.5,-144 165.5,-180"/>
<text text-anchor="middle" x="138" y="-159.5" font-family="Helvetica,sans-Serif" font-size="10.00">widgets</text>
</a>
</g>
</g>
<!-- dir_90003aba6c11e382cedb0e28930e6873&#45;&gt;dir_f3911b9629b0e27ea480d06d47573cbf -->
<g id="edge15" class="edge">
<title>dir_90003aba6c11e382cedb0e28930e6873&#45;&gt;dir_f3911b9629b0e27ea480d06d47573cbf</title>
<path fill="none" stroke="black" d="M132.08,-215.7C131.29,-207.98 131.06,-198.71 131.4,-190.11"/>
<polygon fill="black" stroke="black" points="134.9,-190.32 132.1,-180.1 127.92,-189.84 134.9,-190.32"/>
<g id="a_edge15&#45;headlabel"><a xlink:href="dir_000012_000014.html" target="_top" xlink:title="6">
<text text-anchor="middle" x="137.48" y="-191.61" font-family="Helvetica,sans-Serif" font-size="10.00">6</text>
</a>
</g>
</g>
<!-- dir_1699be727a800b1d059c6f7f2b91d2ee -->
<g id="node3" class="node">
<title>dir_1699be727a800b1d059c6f7f2b91d2ee</title>
<g id="a_node3"><a xlink:href="dir_1699be727a800b1d059c6f7f2b91d2ee.html" target="_top" xlink:title="game">
<polygon fill="white" stroke="red" points="54,-180 0,-180 0,-144 54,-144 54,-180"/>
<text text-anchor="middle" x="27" y="-159.5" font-family="Helvetica,sans-Serif" font-size="10.00">game</text>
</a>
</g>
</g>
<!-- dir_90003aba6c11e382cedb0e28930e6873&#45;&gt;dir_1699be727a800b1d059c6f7f2b91d2ee -->
<g id="edge12" class="edge">
<title>dir_90003aba6c11e382cedb0e28930e6873&#45;&gt;dir_1699be727a800b1d059c6f7f2b91d2ee</title>
<path fill="none" stroke="black" d="M110.85,-215.88C96.47,-206.81 78.62,-195.55 63.09,-185.76"/>
<polygon fill="black" stroke="black" points="64.58,-182.56 54.26,-180.19 60.85,-188.48 64.58,-182.56"/>
<g id="a_edge12&#45;headlabel"><a xlink:href="dir_000012_000004.html" target="_top" xlink:title="7">
<text text-anchor="middle" x="69.14" y="-179.58" font-family="Helvetica,sans-Serif" font-size="10.00">7</text>
</a>
</g>
</g>
<!-- dir_5c0d64f70903e893b1efe571a4b8de29 -->
<g id="node4" class="node">
<title>dir_5c0d64f70903e893b1efe571a4b8de29</title>
<g id="a_node4"><a xlink:href="dir_5c0d64f70903e893b1efe571a4b8de29.html" target="_top" xlink:title="python">
<polygon fill="white" stroke="red" points="101,-108 47,-108 47,-72 101,-72 101,-108"/>
<text text-anchor="middle" x="74" y="-87.5" font-family="Helvetica,sans-Serif" font-size="10.00">python</text>
</a>
</g>
</g>
<!-- dir_90003aba6c11e382cedb0e28930e6873&#45;&gt;dir_5c0d64f70903e893b1efe571a4b8de29 -->
<g id="edge13" class="edge">
<title>dir_90003aba6c11e382cedb0e28930e6873&#45;&gt;dir_5c0d64f70903e893b1efe571a4b8de29</title>
<path fill="none" stroke="black" d="M124.3,-215.64C116.92,-205.65 108.11,-192.62 102,-180 92.39,-160.13 85.07,-136.2 80.34,-118.16"/>
<polygon fill="black" stroke="black" points="83.69,-117.13 77.85,-108.29 76.9,-118.85 83.69,-117.13"/>
<g id="a_edge13&#45;headlabel"><a xlink:href="dir_000012_000007.html" target="_top" xlink:title="1">
<text text-anchor="middle" x="87.32" y="-117.42" font-family="Helvetica,sans-Serif" font-size="10.00">1</text>
</a>
</g>
</g>
<!-- dir_aebb8dcc11953d78e620bbef0b9e2183 -->
<g id="node6" class="node">
<title>dir_aebb8dcc11953d78e620bbef0b9e2183</title>
<g id="a_node6"><a xlink:href="dir_aebb8dcc11953d78e620bbef0b9e2183.html" target="_top" xlink:title="core">
<polygon fill="none" stroke="black" points="173,-108 119,-108 119,-72 173,-72 173,-108"/>
<text text-anchor="middle" x="146" y="-87.5" font-family="Helvetica,sans-Serif" font-size="10.00">core</text>
</a>
</g>
</g>
<!-- dir_90003aba6c11e382cedb0e28930e6873&#45;&gt;dir_aebb8dcc11953d78e620bbef0b9e2183 -->
<g id="edge14" class="edge">
<title>dir_90003aba6c11e382cedb0e28930e6873&#45;&gt;dir_aebb8dcc11953d78e620bbef0b9e2183</title>
<path fill="none" stroke="black" d="M154.04,-215.85C162.01,-206.12 170.83,-193.27 175,-180 180.87,-161.35 180.52,-154.76 175,-136 173.03,-129.29 169.71,-122.64 166,-116.59"/>
<polygon fill="black" stroke="black" points="168.88,-114.59 160.41,-108.22 163.06,-118.48 168.88,-114.59"/>
<g id="a_edge14&#45;headlabel"><a xlink:href="dir_000012_000003.html" target="_top" xlink:title="7">
<text text-anchor="middle" x="173.24" y="-113.5" font-family="Helvetica,sans-Serif" font-size="10.00">7</text>
</a>
</g>
</g>
<!-- dir_f3911b9629b0e27ea480d06d47573cbf&#45;&gt;dir_90003aba6c11e382cedb0e28930e6873 -->
<g id="edge7" class="edge">
<title>dir_f3911b9629b0e27ea480d06d47573cbf&#45;&gt;dir_90003aba6c11e382cedb0e28930e6873</title>
<path fill="none" stroke="black" d="M143.9,-180.1C144.7,-187.79 144.94,-197.05 144.6,-205.67"/>
<polygon fill="black" stroke="black" points="141.11,-205.48 143.92,-215.7 148.09,-205.96 141.11,-205.48"/>
<g id="a_edge7&#45;headlabel"><a xlink:href="dir_000014_000012.html" target="_top" xlink:title="5">
<text text-anchor="middle" x="138.52" y="-199.2" font-family="Helvetica,sans-Serif" font-size="10.00">5</text>
</a>
</g>
</g>
<!-- dir_f3911b9629b0e27ea480d06d47573cbf&#45;&gt;dir_1699be727a800b1d059c6f7f2b91d2ee -->
<g id="edge4" class="edge">
<title>dir_f3911b9629b0e27ea480d06d47573cbf&#45;&gt;dir_1699be727a800b1d059c6f7f2b91d2ee</title>
<path fill="none" stroke="black" d="M110.21,-162C94.93,-162 79.65,-162 64.36,-162"/>
<polygon fill="black" stroke="black" points="64.32,-158.5 54.32,-162 64.32,-165.5 64.32,-158.5"/>
<g id="a_edge4&#45;headlabel"><a xlink:href="dir_000014_000004.html" target="_top" xlink:title="3">
<text text-anchor="middle" x="67.91" y="-153.16" font-family="Helvetica,sans-Serif" font-size="10.00">3</text>
</a>
</g>
</g>
<!-- dir_f3911b9629b0e27ea480d06d47573cbf&#45;&gt;dir_5c0d64f70903e893b1efe571a4b8de29 -->
<g id="edge5" class="edge">
<title>dir_f3911b9629b0e27ea480d06d47573cbf&#45;&gt;dir_5c0d64f70903e893b1efe571a4b8de29</title>
<path fill="none" stroke="black" d="M116.26,-143.7C107.73,-135.3 98.18,-125.07 90.24,-115.86"/>
<polygon fill="black" stroke="black" points="92.85,-113.52 83.74,-108.1 87.48,-118.02 92.85,-113.52"/>
<g id="a_edge5&#45;headlabel"><a xlink:href="dir_000014_000007.html" target="_top" xlink:title="1">
<text text-anchor="middle" x="97.33" y="-111.96" font-family="Helvetica,sans-Serif" font-size="10.00">1</text>
</a>
</g>
</g>
<!-- dir_7bc5e25958a2fb25a8561f3aa0def6c5 -->
<g id="node5" class="node">
<title>dir_7bc5e25958a2fb25a8561f3aa0def6c5</title>
<g id="a_node5"><a xlink:href="dir_7bc5e25958a2fb25a8561f3aa0def6c5.html" target="_top" xlink:title="renderer">
<polygon fill="none" stroke="black" points="71,-36 13,-36 13,0 71,0 71,-36"/>
<text text-anchor="middle" x="42" y="-15.5" font-family="Helvetica,sans-Serif" font-size="10.00">renderer</text>
</a>
</g>
</g>
<!-- dir_f3911b9629b0e27ea480d06d47573cbf&#45;&gt;dir_7bc5e25958a2fb25a8561f3aa0def6c5 -->
<g id="edge6" class="edge">
<title>dir_f3911b9629b0e27ea480d06d47573cbf&#45;&gt;dir_7bc5e25958a2fb25a8561f3aa0def6c5</title>
<path fill="none" stroke="black" d="M157.19,-143.79C175.49,-125.24 198.06,-95.26 182,-72 159.54,-39.49 114.38,-26.9 81.4,-22.04"/>
<polygon fill="black" stroke="black" points="81.53,-18.52 71.16,-20.71 80.63,-25.47 81.53,-18.52"/>
<g id="a_edge6&#45;headlabel"><a xlink:href="dir_000014_000010.html" target="_top" xlink:title="2">
<text text-anchor="middle" x="85.46" y="-13.67" font-family="Helvetica,sans-Serif" font-size="10.00">2</text>
</a>
</g>
</g>
<!-- dir_f3911b9629b0e27ea480d06d47573cbf&#45;&gt;dir_aebb8dcc11953d78e620bbef0b9e2183 -->
<g id="edge8" class="edge">
<title>dir_f3911b9629b0e27ea480d06d47573cbf&#45;&gt;dir_aebb8dcc11953d78e620bbef0b9e2183</title>
<path fill="none" stroke="black" d="M139.98,-143.7C140.86,-135.98 141.92,-126.71 142.9,-118.11"/>
<polygon fill="black" stroke="black" points="146.39,-118.44 144.05,-108.1 139.43,-117.64 146.39,-118.44"/>
<g id="a_edge8&#45;headlabel"><a xlink:href="dir_000014_000003.html" target="_top" xlink:title="4">
<text text-anchor="middle" x="148.8" y="-119.83" font-family="Helvetica,sans-Serif" font-size="10.00">4</text>
</a>
</g>
</g>
<!-- dir_1699be727a800b1d059c6f7f2b91d2ee&#45;&gt;dir_5c0d64f70903e893b1efe571a4b8de29 -->
<g id="edge9" class="edge">
<title>dir_1699be727a800b1d059c6f7f2b91d2ee&#45;&gt;dir_5c0d64f70903e893b1efe571a4b8de29</title>
<path fill="none" stroke="black" d="M32.7,-143.7C37.42,-135.39 44.02,-125.28 50.61,-116.14"/>
<polygon fill="black" stroke="black" points="53.44,-118.21 56.62,-108.1 47.83,-114.02 53.44,-118.21"/>
<g id="a_edge9&#45;headlabel"><a xlink:href="dir_000004_000007.html" target="_top" xlink:title="1">
<text text-anchor="middle" x="53.56" y="-120.29" font-family="Helvetica,sans-Serif" font-size="10.00">1</text>
</a>
</g>
</g>
<!-- dir_1699be727a800b1d059c6f7f2b91d2ee&#45;&gt;dir_7bc5e25958a2fb25a8561f3aa0def6c5 -->
<g id="edge11" class="edge">
<title>dir_1699be727a800b1d059c6f7f2b91d2ee&#45;&gt;dir_7bc5e25958a2fb25a8561f3aa0def6c5</title>
<path fill="none" stroke="black" d="M24.22,-143.87C24.22,-119.56 28.67,-74.82 33.71,-46.01"/>
<polygon fill="black" stroke="black" points="37.15,-46.67 35.59,-36.19 30.28,-45.35 37.15,-46.67"/>
<g id="a_edge11&#45;headlabel"><a xlink:href="dir_000004_000010.html" target="_top" xlink:title="1">
<text text-anchor="middle" x="39.27" y="-48.23" font-family="Helvetica,sans-Serif" font-size="10.00">1</text>
</a>
</g>
</g>
<!-- dir_1699be727a800b1d059c6f7f2b91d2ee&#45;&gt;dir_aebb8dcc11953d78e620bbef0b9e2183 -->
<g id="edge10" class="edge">
<title>dir_1699be727a800b1d059c6f7f2b91d2ee&#45;&gt;dir_aebb8dcc11953d78e620bbef0b9e2183</title>
<path fill="none" stroke="black" d="M54,-145.12C70.47,-135.43 91.73,-122.92 109.66,-112.38"/>
<polygon fill="black" stroke="black" points="111.85,-115.15 118.69,-107.06 108.3,-109.12 111.85,-115.15"/>
<g id="a_edge10&#45;headlabel"><a xlink:href="dir_000004_000003.html" target="_top" xlink:title="2">
<text text-anchor="middle" x="110.19" y="-116.92" font-family="Helvetica,sans-Serif" font-size="10.00">2</text>
</a>
</g>
</g>
<!-- dir_5c0d64f70903e893b1efe571a4b8de29&#45;&gt;dir_f3911b9629b0e27ea480d06d47573cbf -->
<g id="edge3" class="edge">
<title>dir_5c0d64f70903e893b1efe571a4b8de29&#45;&gt;dir_f3911b9629b0e27ea480d06d47573cbf</title>
<path fill="none" stroke="black" d="M95.53,-108.1C104.06,-116.47 113.61,-126.69 121.57,-135.92"/>
<polygon fill="black" stroke="black" points="118.99,-138.28 128.1,-143.7 124.35,-133.79 118.99,-138.28"/>
<g id="a_edge3&#45;headlabel"><a xlink:href="dir_000007_000014.html" target="_top" xlink:title="1">
<text text-anchor="middle" x="114.5" y="-134.85" font-family="Helvetica,sans-Serif" font-size="10.00">1</text>
</a>
</g>
</g>
<!-- dir_5c0d64f70903e893b1efe571a4b8de29&#45;&gt;dir_1699be727a800b1d059c6f7f2b91d2ee -->
<g id="edge1" class="edge">
<title>dir_5c0d64f70903e893b1efe571a4b8de29&#45;&gt;dir_1699be727a800b1d059c6f7f2b91d2ee</title>
<path fill="none" stroke="black" d="M68.41,-108.1C63.72,-116.38 57.14,-126.49 50.54,-135.64"/>
<polygon fill="black" stroke="black" points="47.71,-133.59 44.53,-143.7 53.32,-137.77 47.71,-133.59"/>
<g id="a_edge1&#45;headlabel"><a xlink:href="dir_000007_000004.html" target="_top" xlink:title="4">
<text text-anchor="middle" x="47.58" y="-126.51" font-family="Helvetica,sans-Serif" font-size="10.00">4</text>
</a>
</g>
</g>
<!-- dir_5c0d64f70903e893b1efe571a4b8de29&#45;&gt;dir_7bc5e25958a2fb25a8561f3aa0def6c5 -->
<g id="edge2" class="edge">
<title>dir_5c0d64f70903e893b1efe571a4b8de29&#45;&gt;dir_7bc5e25958a2fb25a8561f3aa0def6c5</title>
<path fill="none" stroke="black" d="M66.09,-71.7C62.45,-63.73 58.05,-54.1 54.01,-45.26"/>
<polygon fill="black" stroke="black" points="57.16,-43.74 49.82,-36.1 50.79,-46.65 57.16,-43.74"/>
<g id="a_edge2&#45;headlabel"><a xlink:href="dir_000007_000010.html" target="_top" xlink:title="2">
<text text-anchor="middle" x="61.24" y="-43.33" font-family="Helvetica,sans-Serif" font-size="10.00">2</text>
</a>
</g>
</g>
<!-- dir_7bc5e25958a2fb25a8561f3aa0def6c5&#45;&gt;dir_1699be727a800b1d059c6f7f2b91d2ee -->
<g id="edge16" class="edge">
<title>dir_7bc5e25958a2fb25a8561f3aa0def6c5&#45;&gt;dir_1699be727a800b1d059c6f7f2b91d2ee</title>
<path fill="none" stroke="black" d="M44.78,-36.19C44.77,-60.42 40.36,-104.89 35.34,-133.68"/>
<polygon fill="black" stroke="black" points="31.83,-133.39 33.39,-143.87 38.71,-134.71 31.83,-133.39"/>
<g id="a_edge16&#45;headlabel"><a xlink:href="dir_000010_000004.html" target="_top" xlink:title="1">
<text text-anchor="middle" x="29.72" y="-126.83" font-family="Helvetica,sans-Serif" font-size="10.00">1</text>
</a>
</g>
</g>
</g>
</svg>
