<?xml version="1.0" encoding="UTF-8" standalone="no"?>
<!DOCTYPE svg PUBLIC "-//W3C//DTD SVG 1.1//EN"
 "http://www.w3.org/Graphics/SVG/1.1/DTD/svg11.dtd">
<!-- Generated by graphviz version 2.43.0 (0)
 -->
<!-- Title: src/Systems Pages: 1 -->
<svg width="352pt" height="311pt"
 viewBox="0.00 0.00 352.00 311.00" xmlns="http://www.w3.org/2000/svg" xmlns:xlink="http://www.w3.org/1999/xlink">
<g id="graph0" class="graph" transform="scale(1 1) rotate(0) translate(4 307)">
<title>src/Systems</title>
<polygon fill="white" stroke="transparent" points="-4,4 -4,-307 348,-307 348,4 -4,4"/>
<g id="clust1" class="cluster">
<title>clusterdir_68267d1309a1af8e8297ef4c3efbcdba</title>
<g id="a_clust1"><a xlink:href="dir_68267d1309a1af8e8297ef4c3efbcdba.html" target="_top" xlink:title="src">
<polygon fill="#ddddee" stroke="black" points="8,-8 8,-295 336,-295 336,-8 8,-8"/>
<text text-anchor="middle" x="172" y="-283" font-family="Helvetica,sans-Serif" font-size="10.00">src</text>
</a>
</g>
</g>
<!-- dir_17dd1609571feee8469e465ffa40a219 -->
<g id="node1" class="node">
<title>dir_17dd1609571feee8469e465ffa40a219</title>
<g id="a_node1"><a xlink:href="dir_17dd1609571feee8469e465ffa40a219.html" target="_top" xlink:title="AssetManager">
<polygon fill="none" stroke="black" points="286,-52 200,-52 200,-16 286,-16 286,-52"/>
<text text-anchor="middle" x="243" y="-31.5" font-family="Helvetica,sans-Serif" font-size="10.00">AssetManager</text>
</a>
</g>
</g>
<!-- dir_6aed981759055a22f0901385cc3ba5db -->
<g id="node2" class="node">
<title>dir_6aed981759055a22f0901385cc3ba5db</title>
<g id="a_node2"><a xlink:href="dir_6aed981759055a22f0901385cc3ba5db.html" target="_top" xlink:title="InputManager">
<polygon fill="none" stroke="black" points="120,-196 36,-196 36,-160 120,-160 120,-196"/>
<text text-anchor="middle" x="78" y="-175.5" font-family="Helvetica,sans-Serif" font-size="10.00">InputManager</text>
</a>
</g>
</g>
<!-- dir_b1a122bf62c958266ec5bf64d14fde5a -->
<g id="node3" class="node">
<title>dir_b1a122bf62c958266ec5bf64d14fde5a</title>
<g id="a_node3"><a xlink:href="dir_b1a122bf62c958266ec5bf64d14fde5a.html" target="_top" xlink:title="ECS">
<polygon fill="none" stroke="black" points="192,-196 138,-196 138,-160 192,-160 192,-196"/>
<text text-anchor="middle" x="165" y="-175.5" font-family="Helvetica,sans-Serif" font-size="10.00">ECS</text>
</a>
</g>
</g>
<!-- dir_ba210d1fa67db7bee1bb22e0a3c11d9f -->
<g id="node4" class="node">
<title>dir_ba210d1fa67db7bee1bb22e0a3c11d9f</title>
<g id="a_node4"><a xlink:href="dir_ba210d1fa67db7bee1bb22e0a3c11d9f.html" target="_top" xlink:title="Common">
<polygon fill="none" stroke="black" points="223.5,-124 162.5,-124 162.5,-88 223.5,-88 223.5,-124"/>
<text text-anchor="middle" x="193" y="-103.5" font-family="Helvetica,sans-Serif" font-size="10.00">Common</text>
</a>
</g>
</g>
<!-- dir_c610c8504d46288da7634b3c0b18263f -->
<g id="node5" class="node">
<title>dir_c610c8504d46288da7634b3c0b18263f</title>
<g id="a_node5"><a xlink:href="dir_c610c8504d46288da7634b3c0b18263f.html" target="_top" xlink:title="Components">
<polygon fill="none" stroke="black" points="308,-196 230,-196 230,-160 308,-160 308,-196"/>
<text text-anchor="middle" x="269" y="-175.5" font-family="Helvetica,sans-Serif" font-size="10.00">Components</text>
</a>
</g>
</g>
<!-- dir_c610c8504d46288da7634b3c0b18263f&#45;&gt;dir_17dd1609571feee8469e465ffa40a219 -->
<g id="edge1" class="edge">
<title>dir_c610c8504d46288da7634b3c0b18263f&#45;&gt;dir_17dd1609571feee8469e465ffa40a219</title>
<path fill="none" stroke="black" d="M262.86,-159.54C259.47,-149.3 255.47,-136.05 253,-124 248.8,-103.57 246.26,-80.11 244.79,-62.41"/>
<polygon fill="black" stroke="black" points="248.26,-61.91 244.01,-52.21 241.28,-62.44 248.26,-61.91"/>
<g id="a_edge1&#45;headlabel"><a xlink:href="dir_000005_000003.html" target="_top" xlink:title="3">
<text text-anchor="middle" x="251.37" y="-62.78" font-family="Helvetica,sans-Serif" font-size="10.00">3</text>
</a>
</g>
</g>
<!-- dir_c610c8504d46288da7634b3c0b18263f&#45;&gt;dir_ba210d1fa67db7bee1bb22e0a3c11d9f -->
<g id="edge2" class="edge">
<title>dir_c610c8504d46288da7634b3c0b18263f&#45;&gt;dir_ba210d1fa67db7bee1bb22e0a3c11d9f</title>
<path fill="none" stroke="black" d="M250.21,-159.7C240.83,-151.05 229.32,-140.45 219.09,-131.03"/>
<polygon fill="black" stroke="black" points="221.3,-128.3 211.57,-124.1 216.55,-133.45 221.3,-128.3"/>
<g id="a_edge2&#45;headlabel"><a xlink:href="dir_000005_000004.html" target="_top" xlink:title="1">
<text text-anchor="middle" x="225.86" y="-126.15" font-family="Helvetica,sans-Serif" font-size="10.00">1</text>
</a>
</g>
</g>
<!-- dir_d4e015951b263415729819c1a4b61808 -->
<g id="node6" class="node">
<title>dir_d4e015951b263415729819c1a4b61808</title>
<g id="a_node6"><a xlink:href="dir_d4e015951b263415729819c1a4b61808.html" target="_top" xlink:title="Rendering">
<polygon fill="none" stroke="black" points="328,-124 262,-124 262,-88 328,-88 328,-124"/>
<text text-anchor="middle" x="295" y="-103.5" font-family="Helvetica,sans-Serif" font-size="10.00">Rendering</text>
</a>
</g>
</g>
<!-- dir_c610c8504d46288da7634b3c0b18263f&#45;&gt;dir_d4e015951b263415729819c1a4b61808 -->
<g id="edge3" class="edge">
<title>dir_c610c8504d46288da7634b3c0b18263f&#45;&gt;dir_d4e015951b263415729819c1a4b61808</title>
<path fill="none" stroke="black" d="M275.43,-159.7C278.36,-151.81 281.89,-142.3 285.14,-133.55"/>
<polygon fill="black" stroke="black" points="288.45,-134.7 288.65,-124.1 281.88,-132.26 288.45,-134.7"/>
<g id="a_edge3&#45;headlabel"><a xlink:href="dir_000005_000009.html" target="_top" xlink:title="1">
<text text-anchor="middle" x="289.86" y="-136.56" font-family="Helvetica,sans-Serif" font-size="10.00">1</text>
</a>
</g>
</g>
<!-- dir_d4e015951b263415729819c1a4b61808&#45;&gt;dir_17dd1609571feee8469e465ffa40a219 -->
<g id="edge4" class="edge">
<title>dir_d4e015951b263415729819c1a4b61808&#45;&gt;dir_17dd1609571feee8469e465ffa40a219</title>
<path fill="none" stroke="black" d="M282.15,-87.7C275.97,-79.39 268.46,-69.28 261.68,-60.14"/>
<polygon fill="black" stroke="black" points="264.48,-58.04 255.71,-52.1 258.86,-62.22 264.48,-58.04"/>
<g id="a_edge4&#45;headlabel"><a xlink:href="dir_000009_000003.html" target="_top" xlink:title="4">
<text text-anchor="middle" x="268.9" y="-56.74" font-family="Helvetica,sans-Serif" font-size="10.00">4</text>
</a>
</g>
</g>
<!-- dir_900c20bb70493231141df6997ccd6b87 -->
<g id="node7" class="node">
<title>dir_900c20bb70493231141df6997ccd6b87</title>
<g id="a_node7"><a xlink:href="dir_900c20bb70493231141df6997ccd6b87.html" target="_top" xlink:title="Systems">
<polygon fill="#eeeeff" stroke="black" points="217.5,-268 158.5,-268 158.5,-232 217.5,-232 217.5,-268"/>
<text text-anchor="middle" x="188" y="-247.5" font-family="Helvetica,sans-Serif" font-size="10.00">Systems</text>
</a>
</g>
</g>
<!-- dir_900c20bb70493231141df6997ccd6b87&#45;&gt;dir_17dd1609571feee8469e465ffa40a219 -->
<g id="edge5" class="edge">
<title>dir_900c20bb70493231141df6997ccd6b87&#45;&gt;dir_17dd1609571feee8469e465ffa40a219</title>
<path fill="none" stroke="black" d="M158.27,-248.94C120.61,-247.06 57.02,-237.48 27,-196 17.62,-183.04 19.01,-173.86 27,-160 61.77,-99.7 137.96,-65.86 189.89,-49.01"/>
<polygon fill="black" stroke="black" points="191.12,-52.3 199.62,-45.96 189.03,-45.62 191.12,-52.3"/>
<g id="a_edge5&#45;headlabel"><a xlink:href="dir_000011_000003.html" target="_top" xlink:title="2">
<text text-anchor="middle" x="188.54" y="-53.58" font-family="Helvetica,sans-Serif" font-size="10.00">2</text>
</a>
</g>
</g>
<!-- dir_900c20bb70493231141df6997ccd6b87&#45;&gt;dir_6aed981759055a22f0901385cc3ba5db -->
<g id="edge6" class="edge">
<title>dir_900c20bb70493231141df6997ccd6b87&#45;&gt;dir_6aed981759055a22f0901385cc3ba5db</title>
<path fill="none" stroke="black" d="M161.09,-231.88C146.84,-222.81 129.15,-211.55 113.76,-201.76"/>
<polygon fill="black" stroke="black" points="115.33,-198.61 105.01,-196.19 111.57,-204.51 115.33,-198.61"/>
<g id="a_edge6&#45;headlabel"><a xlink:href="dir_000011_000007.html" target="_top" xlink:title="2">
<text text-anchor="middle" x="119.89" y="-195.64" font-family="Helvetica,sans-Serif" font-size="10.00">2</text>
</a>
</g>
</g>
<!-- dir_900c20bb70493231141df6997ccd6b87&#45;&gt;dir_b1a122bf62c958266ec5bf64d14fde5a -->
<g id="edge7" class="edge">
<title>dir_900c20bb70493231141df6997ccd6b87&#45;&gt;dir_b1a122bf62c958266ec5bf64d14fde5a</title>
<path fill="none" stroke="black" d="M182.31,-231.7C179.75,-223.9 176.67,-214.51 173.82,-205.83"/>
<polygon fill="black" stroke="black" points="177.07,-204.51 170.62,-196.1 170.42,-206.7 177.07,-204.51"/>
<g id="a_edge7&#45;headlabel"><a xlink:href="dir_000011_000006.html" target="_top" xlink:title="4">
<text text-anchor="middle" x="180.89" y="-204.54" font-family="Helvetica,sans-Serif" font-size="10.00">4</text>
</a>
</g>
</g>
<!-- dir_900c20bb70493231141df6997ccd6b87&#45;&gt;dir_ba210d1fa67db7bee1bb22e0a3c11d9f -->
<g id="edge8" class="edge">
<title>dir_900c20bb70493231141df6997ccd6b87&#45;&gt;dir_ba210d1fa67db7bee1bb22e0a3c11d9f</title>
<path fill="none" stroke="black" d="M193.41,-231.53C196.3,-221.29 199.55,-208.04 201,-196 203.5,-175.34 201.18,-151.89 198.41,-134.25"/>
<polygon fill="black" stroke="black" points="201.81,-133.36 196.66,-124.09 194.91,-134.54 201.81,-133.36"/>
<g id="a_edge8&#45;headlabel"><a xlink:href="dir_000011_000004.html" target="_top" xlink:title="1">
<text text-anchor="middle" x="205.21" y="-133.92" font-family="Helvetica,sans-Serif" font-size="10.00">1</text>
</a>
</g>
</g>
<!-- dir_900c20bb70493231141df6997ccd6b87&#45;&gt;dir_c610c8504d46288da7634b3c0b18263f -->
<g id="edge9" class="edge">
<title>dir_900c20bb70493231141df6997ccd6b87&#45;&gt;dir_c610c8504d46288da7634b3c0b18263f</title>
<path fill="none" stroke="black" d="M208.02,-231.7C218.13,-222.97 230.54,-212.24 241.52,-202.75"/>
<polygon fill="black" stroke="black" points="243.93,-205.29 249.21,-196.1 239.35,-199.99 243.93,-205.29"/>
<g id="a_edge9&#45;headlabel"><a xlink:href="dir_000011_000005.html" target="_top" xlink:title="16">
<text text-anchor="middle" x="243.07" y="-207.29" font-family="Helvetica,sans-Serif" font-size="10.00">16</text>
</a>
</g>
</g>
<!-- dir_900c20bb70493231141df6997ccd6b87&#45;&gt;dir_d4e015951b263415729819c1a4b61808 -->
<g id="edge10" class="edge">
<title>dir_900c20bb70493231141df6997ccd6b87&#45;&gt;dir_d4e015951b263415729819c1a4b61808</title>
<path fill="none" stroke="black" d="M217.72,-246.12C248.45,-241.38 294.96,-228.88 317,-196 329.58,-177.22 321.44,-151.89 311.69,-133.06"/>
<polygon fill="black" stroke="black" points="314.63,-131.15 306.7,-124.13 308.52,-134.57 314.63,-131.15"/>
<g id="a_edge10&#45;headlabel"><a xlink:href="dir_000011_000009.html" target="_top" xlink:title="5">
<text text-anchor="middle" x="318.86" y="-130.41" font-family="Helvetica,sans-Serif" font-size="10.00">5</text>
</a>
</g>
</g>
</g>
</svg>
