<?xml version="1.0" encoding="UTF-8" standalone="no"?>
<!DOCTYPE svg PUBLIC "-//W3C//DTD SVG 1.1//EN"
 "http://www.w3.org/Graphics/SVG/1.1/DTD/svg11.dtd">
<!-- Generated by graphviz version 2.43.0 (0)
 -->
<!-- Title: src Pages: 1 -->
<svg width="580pt" height="499pt"
 viewBox="0.00 0.00 580.00 499.00" xmlns="http://www.w3.org/2000/svg" xmlns:xlink="http://www.w3.org/1999/xlink">
<g id="graph0" class="graph" transform="scale(1 1) rotate(0) translate(4 495)">
<title>src</title>
<g id="clust1" class="cluster">
<title>clusterdir_68267d1309a1af8e8297ef4c3efbcdba</title>
<g id="a_clust1"><a xlink:href="dir_68267d1309a1af8e8297ef4c3efbcdba.html" target="_top">
<polygon fill="#f0d4ff" stroke="#404040" stroke-width="2" points="8,-8 8,-483 564,-483 564,-8 8,-8"/>
</a>
</g>
</g>
<!-- dir_68267d1309a1af8e8297ef4c3efbcdba -->
<g id="node1" class="node">
<title>dir_68267d1309a1af8e8297ef4c3efbcdba</title>
<text text-anchor="middle" x="483" y="-463" font-family="Helvetica,sans-Serif" font-size="10.00">src</text>
</g>
<!-- dir_17dd1609571feee8469e465ffa40a219 -->
<g id="node2" class="node">
<title>dir_17dd1609571feee8469e465ffa40a219</title>
<g id="a_node2"><a xlink:href="dir_17dd1609571feee8469e465ffa40a219.html" target="_top" xlink:title="AssetManager">
<polygon fill="#b836ff" stroke="#404040" points="384,-310 298,-310 298,-291 384,-291 384,-310"/>
<text text-anchor="middle" x="341" y="-298" font-family="Helvetica,sans-Serif" font-size="10.00">AssetManager</text>
</a>
</g>
</g>
<!-- dir_68267d1309a1af8e8297ef4c3efbcdba&#45;&gt;dir_17dd1609571feee8469e465ffa40a219 -->
<g id="edge1" class="edge">
<title>dir_68267d1309a1af8e8297ef4c3efbcdba&#45;&gt;dir_17dd1609571feee8469e465ffa40a219</title>
<g id="a_edge1"><a xlink:href="dir_000013_000001.html" target="_top">
<path fill="none" stroke="#63b8ff" d="M475.37,-455.74C452.64,-429.65 385.14,-352.17 355.38,-318"/>
<polygon fill="#63b8ff" stroke="#63b8ff" points="357.88,-315.55 348.67,-310.31 352.6,-320.15 357.88,-315.55"/>
</a>
</g>
<g id="a_edge1&#45;headlabel"><a xlink:href="dir_000013_000001.html" target="_top" xlink:title="75">
<text text-anchor="middle" x="362.38" y="-313.89" font-family="Helvetica,sans-Serif" font-size="10.00" fill="#63b8ff">75</text>
</a>
</g>
</g>
<!-- dir_ba210d1fa67db7bee1bb22e0a3c11d9f -->
<g id="node3" class="node">
<title>dir_ba210d1fa67db7bee1bb22e0a3c11d9f</title>
<g id="a_node3"><a xlink:href="dir_ba210d1fa67db7bee1bb22e0a3c11d9f.html" target="_top" xlink:title="Common">
<polygon fill="#b836ff" stroke="#404040" points="367.5,-35 306.5,-35 306.5,-16 367.5,-16 367.5,-35"/>
<text text-anchor="middle" x="337" y="-23" font-family="Helvetica,sans-Serif" font-size="10.00">Common</text>
</a>
</g>
</g>
<!-- dir_68267d1309a1af8e8297ef4c3efbcdba&#45;&gt;dir_ba210d1fa67db7bee1bb22e0a3c11d9f -->
<g id="edge5" class="edge">
<title>dir_68267d1309a1af8e8297ef4c3efbcdba&#45;&gt;dir_ba210d1fa67db7bee1bb22e0a3c11d9f</title>
<g id="a_edge5"><a xlink:href="dir_000013_000002.html" target="_top">
<path fill="none" stroke="#63b8ff" d="M493.94,-456C514.08,-439.29 555,-399.99 555,-356.5 555,-356.5 555,-356.5 555,-134.5 555,-56.28 440.92,-34.71 377.81,-28.76"/>
<polygon fill="#63b8ff" stroke="#63b8ff" points="378.03,-25.27 367.77,-27.91 377.44,-32.25 378.03,-25.27"/>
</a>
</g>
<g id="a_edge5&#45;headlabel"><a xlink:href="dir_000013_000002.html" target="_top" xlink:title="47">
<text text-anchor="middle" x="381.86" y="-20.25" font-family="Helvetica,sans-Serif" font-size="10.00" fill="#63b8ff">47</text>
</a>
</g>
</g>
<!-- dir_c610c8504d46288da7634b3c0b18263f -->
<g id="node4" class="node">
<title>dir_c610c8504d46288da7634b3c0b18263f</title>
<g id="a_node4"><a xlink:href="dir_c610c8504d46288da7634b3c0b18263f.html" target="_top" xlink:title="Components">
<polygon fill="#b836ff" stroke="#404040" points="376,-145 298,-145 298,-126 376,-126 376,-145"/>
<text text-anchor="middle" x="337" y="-133" font-family="Helvetica,sans-Serif" font-size="10.00">Components</text>
</a>
</g>
</g>
<!-- dir_68267d1309a1af8e8297ef4c3efbcdba&#45;&gt;dir_c610c8504d46288da7634b3c0b18263f -->
<g id="edge6" class="edge">
<title>dir_68267d1309a1af8e8297ef4c3efbcdba&#45;&gt;dir_c610c8504d46288da7634b3c0b18263f</title>
<g id="a_edge6"><a xlink:href="dir_000013_000004.html" target="_top">
<path fill="none" stroke="#63b8ff" d="M485.33,-455.87C493.62,-423.12 518.45,-304.83 465,-236 442.32,-206.8 419.18,-222.71 390,-200 373.24,-186.96 358.16,-167.79 348.41,-153.93"/>
<polygon fill="#63b8ff" stroke="#63b8ff" points="351.07,-151.63 342.56,-145.33 345.28,-155.56 351.07,-151.63"/>
</a>
</g>
<g id="a_edge6&#45;headlabel"><a xlink:href="dir_000013_000004.html" target="_top" xlink:title="126">
<text text-anchor="middle" x="355.44" y="-150.5" font-family="Helvetica,sans-Serif" font-size="10.00" fill="#63b8ff">126</text>
</a>
</g>
</g>
<!-- dir_b1a122bf62c958266ec5bf64d14fde5a -->
<g id="node5" class="node">
<title>dir_b1a122bf62c958266ec5bf64d14fde5a</title>
<g id="a_node5"><a xlink:href="dir_b1a122bf62c958266ec5bf64d14fde5a.html" target="_top" xlink:title="ECS">
<polygon fill="#b836ff" stroke="#404040" points="276.5,-90 241.5,-90 241.5,-71 276.5,-71 276.5,-90"/>
<text text-anchor="middle" x="259" y="-78" font-family="Helvetica,sans-Serif" font-size="10.00">ECS</text>
</a>
</g>
</g>
<!-- dir_68267d1309a1af8e8297ef4c3efbcdba&#45;&gt;dir_b1a122bf62c958266ec5bf64d14fde5a -->
<g id="edge4" class="edge">
<title>dir_68267d1309a1af8e8297ef4c3efbcdba&#45;&gt;dir_b1a122bf62c958266ec5bf64d14fde5a</title>
<g id="a_edge4"><a xlink:href="dir_000013_000007.html" target="_top">
<path fill="none" stroke="#63b8ff" d="M467.37,-463.36C423.93,-459.88 303.22,-447.83 277,-420 191.3,-329.05 235.39,-156.09 252.92,-99.74"/>
<polygon fill="#63b8ff" stroke="#63b8ff" points="256.29,-100.68 256.02,-90.08 249.63,-98.53 256.29,-100.68"/>
</a>
</g>
<g id="a_edge4&#45;headlabel"><a xlink:href="dir_000013_000007.html" target="_top" xlink:title="27">
<text text-anchor="middle" x="257.89" y="-102.47" font-family="Helvetica,sans-Serif" font-size="10.00" fill="#63b8ff">27</text>
</a>
</g>
</g>
<!-- dir_e7c9606de6dc9534b0042ecacee5f21f -->
<g id="node9" class="node">
<title>dir_e7c9606de6dc9534b0042ecacee5f21f</title>
<g id="a_node9"><a xlink:href="dir_e7c9606de6dc9534b0042ecacee5f21f.html" target="_top" xlink:title="Serialization">
<polygon fill="#b836ff" stroke="#404040" points="475.5,-200 398.5,-200 398.5,-181 475.5,-181 475.5,-200"/>
<text text-anchor="middle" x="437" y="-188" font-family="Helvetica,sans-Serif" font-size="10.00">Serialization</text>
</a>
</g>
</g>
<!-- dir_68267d1309a1af8e8297ef4c3efbcdba&#45;&gt;dir_e7c9606de6dc9534b0042ecacee5f21f -->
<g id="edge7" class="edge">
<title>dir_68267d1309a1af8e8297ef4c3efbcdba&#45;&gt;dir_e7c9606de6dc9534b0042ecacee5f21f</title>
<g id="a_edge7"><a xlink:href="dir_000013_000012.html" target="_top">
<path fill="none" stroke="#63b8ff" d="M489.63,-455.88C495.76,-447.32 504.46,-433.54 508,-420 522.51,-364.53 521.37,-346.75 508,-291 501.6,-264.33 495.93,-258.33 480,-236 472.62,-225.66 462.89,-215.38 454.55,-207.31"/>
<polygon fill="#63b8ff" stroke="#63b8ff" points="456.79,-204.61 447.1,-200.32 452,-209.72 456.79,-204.61"/>
</a>
</g>
<g id="a_edge7&#45;headlabel"><a xlink:href="dir_000013_000012.html" target="_top" xlink:title="2">
<text text-anchor="middle" x="461.35" y="-202.5" font-family="Helvetica,sans-Serif" font-size="10.00" fill="#63b8ff">2</text>
</a>
</g>
</g>
<!-- dir_900c20bb70493231141df6997ccd6b87 -->
<g id="node10" class="node">
<title>dir_900c20bb70493231141df6997ccd6b87</title>
<g id="a_node10"><a xlink:href="dir_900c20bb70493231141df6997ccd6b87.html" target="_top" xlink:title="Systems">
<polygon fill="#b836ff" stroke="#404040" points="344.5,-420 285.5,-420 285.5,-401 344.5,-401 344.5,-420"/>
<text text-anchor="middle" x="315" y="-408" font-family="Helvetica,sans-Serif" font-size="10.00">Systems</text>
</a>
</g>
</g>
<!-- dir_68267d1309a1af8e8297ef4c3efbcdba&#45;&gt;dir_900c20bb70493231141df6997ccd6b87 -->
<g id="edge2" class="edge">
<title>dir_68267d1309a1af8e8297ef4c3efbcdba&#45;&gt;dir_900c20bb70493231141df6997ccd6b87</title>
<g id="a_edge2"><a xlink:href="dir_000013_000014.html" target="_top">
<path fill="none" stroke="#63b8ff" d="M467.5,-459.61C441.36,-451.36 387.85,-434.48 351.69,-423.08"/>
<polygon fill="#63b8ff" stroke="#63b8ff" points="352.58,-419.69 341.99,-420.02 350.48,-426.36 352.58,-419.69"/>
</a>
</g>
<g id="a_edge2&#45;headlabel"><a xlink:href="dir_000013_000014.html" target="_top" xlink:title="9">
<text text-anchor="middle" x="356.86" y="-415.56" font-family="Helvetica,sans-Serif" font-size="10.00" fill="#63b8ff">9</text>
</a>
</g>
</g>
<!-- dir_a7363e98f9e0bdd87618633653859815 -->
<g id="node12" class="node">
<title>dir_a7363e98f9e0bdd87618633653859815</title>
<g id="a_node12"><a xlink:href="dir_a7363e98f9e0bdd87618633653859815.html" target="_top" xlink:title="Utils">
<polygon fill="#b836ff" stroke="#404040" points="455.5,-255 416.5,-255 416.5,-236 455.5,-236 455.5,-255"/>
<text text-anchor="middle" x="436" y="-243" font-family="Helvetica,sans-Serif" font-size="10.00">Utils</text>
</a>
</g>
</g>
<!-- dir_68267d1309a1af8e8297ef4c3efbcdba&#45;&gt;dir_a7363e98f9e0bdd87618633653859815 -->
<g id="edge3" class="edge">
<title>dir_68267d1309a1af8e8297ef4c3efbcdba&#45;&gt;dir_a7363e98f9e0bdd87618633653859815</title>
<g id="a_edge3"><a xlink:href="dir_000013_000017.html" target="_top">
<path fill="none" stroke="#63b8ff" d="M483.83,-455.85C485.98,-429.9 490.16,-350.82 468,-291 464.21,-280.78 457.41,-270.79 451.04,-262.88"/>
<polygon fill="#63b8ff" stroke="#63b8ff" points="453.63,-260.52 444.47,-255.19 448.31,-265.07 453.63,-260.52"/>
</a>
</g>
<g id="a_edge3&#45;headlabel"><a xlink:href="dir_000013_000017.html" target="_top" xlink:title="17">
<text text-anchor="middle" x="458.12" y="-258.91" font-family="Helvetica,sans-Serif" font-size="10.00" fill="#63b8ff">17</text>
</a>
</g>
</g>
<!-- dir_17dd1609571feee8469e465ffa40a219&#45;&gt;dir_ba210d1fa67db7bee1bb22e0a3c11d9f -->
<g id="edge11" class="edge">
<title>dir_17dd1609571feee8469e465ffa40a219&#45;&gt;dir_ba210d1fa67db7bee1bb22e0a3c11d9f</title>
<g id="a_edge11"><a xlink:href="dir_000001_000002.html" target="_top">
<path fill="none" stroke="#63b8ff" d="M297.86,-296.81C238.75,-290.54 134.51,-269.64 87,-200 27.77,-113.19 211.52,-56.54 296.42,-35.58"/>
<polygon fill="#63b8ff" stroke="#63b8ff" points="297.36,-38.96 306.25,-33.21 295.71,-32.15 297.36,-38.96"/>
</a>
</g>
<g id="a_edge11&#45;headlabel"><a xlink:href="dir_000001_000002.html" target="_top" xlink:title="6">
<text text-anchor="middle" x="294.53" y="-40.06" font-family="Helvetica,sans-Serif" font-size="10.00" fill="#63b8ff">6</text>
</a>
</g>
</g>
<!-- dir_17dd1609571feee8469e465ffa40a219&#45;&gt;dir_b1a122bf62c958266ec5bf64d14fde5a -->
<g id="edge10" class="edge">
<title>dir_17dd1609571feee8469e465ffa40a219&#45;&gt;dir_b1a122bf62c958266ec5bf64d14fde5a</title>
<g id="a_edge10"><a xlink:href="dir_000001_000007.html" target="_top">
<path fill="none" stroke="#63b8ff" d="M333.92,-290.82C316.17,-268.39 270.01,-206.04 254,-145 250.14,-130.27 251.88,-113.02 254.31,-100.22"/>
<polygon fill="#63b8ff" stroke="#63b8ff" points="257.76,-100.81 256.5,-90.29 250.93,-99.3 257.76,-100.81"/>
</a>
</g>
<g id="a_edge10&#45;headlabel"><a xlink:href="dir_000001_000007.html" target="_top" xlink:title="1">
<text text-anchor="middle" x="259.76" y="-102.43" font-family="Helvetica,sans-Serif" font-size="10.00" fill="#63b8ff">1</text>
</a>
</g>
</g>
<!-- dir_3813464283bee2267f39dcf080a84d74 -->
<g id="node7" class="node">
<title>dir_3813464283bee2267f39dcf080a84d74</title>
<g id="a_node7"><a xlink:href="dir_3813464283bee2267f39dcf080a84d74.html" target="_top" xlink:title="Math">
<polygon fill="#b836ff" stroke="#404040" points="435.5,-90 394.5,-90 394.5,-71 435.5,-71 435.5,-90"/>
<text text-anchor="middle" x="415" y="-78" font-family="Helvetica,sans-Serif" font-size="10.00">Math</text>
</a>
</g>
</g>
<!-- dir_17dd1609571feee8469e465ffa40a219&#45;&gt;dir_3813464283bee2267f39dcf080a84d74 -->
<g id="edge8" class="edge">
<title>dir_17dd1609571feee8469e465ffa40a219&#45;&gt;dir_3813464283bee2267f39dcf080a84d74</title>
<g id="a_edge8"><a xlink:href="dir_000001_000010.html" target="_top">
<path fill="none" stroke="#63b8ff" d="M343.9,-290.95C354.81,-258.81 393.54,-144.72 408.78,-99.83"/>
<polygon fill="#63b8ff" stroke="#63b8ff" points="412.14,-100.82 412.04,-90.22 405.51,-98.57 412.14,-100.82"/>
</a>
</g>
<g id="a_edge8&#45;headlabel"><a xlink:href="dir_000001_000010.html" target="_top" xlink:title="1">
<text text-anchor="middle" x="413.67" y="-102.63" font-family="Helvetica,sans-Serif" font-size="10.00" fill="#63b8ff">1</text>
</a>
</g>
</g>
<!-- dir_17dd1609571feee8469e465ffa40a219&#45;&gt;dir_a7363e98f9e0bdd87618633653859815 -->
<g id="edge9" class="edge">
<title>dir_17dd1609571feee8469e465ffa40a219&#45;&gt;dir_a7363e98f9e0bdd87618633653859815</title>
<g id="a_edge9"><a xlink:href="dir_000001_000017.html" target="_top">
<path fill="none" stroke="#63b8ff" d="M351.15,-290.98C364.61,-282.42 388.2,-269.12 407.2,-259.29"/>
<polygon fill="#63b8ff" stroke="#63b8ff" points="409.03,-262.29 416.37,-254.65 405.86,-256.04 409.03,-262.29"/>
</a>
</g>
<g id="a_edge9&#45;headlabel"><a xlink:href="dir_000001_000017.html" target="_top" xlink:title="2">
<text text-anchor="middle" x="407.11" y="-263.95" font-family="Helvetica,sans-Serif" font-size="10.00" fill="#63b8ff">2</text>
</a>
</g>
</g>
<!-- dir_c610c8504d46288da7634b3c0b18263f&#45;&gt;dir_17dd1609571feee8469e465ffa40a219 -->
<g id="edge12" class="edge">
<title>dir_c610c8504d46288da7634b3c0b18263f&#45;&gt;dir_17dd1609571feee8469e465ffa40a219</title>
<g id="a_edge12"><a xlink:href="dir_000004_000001.html" target="_top">
<path fill="none" stroke="#63b8ff" d="M337.22,-145.31C337.84,-170.79 339.66,-245.03 340.53,-280.37"/>
<polygon fill="#63b8ff" stroke="#63b8ff" points="337.04,-280.83 340.78,-290.74 344.04,-280.65 337.04,-280.83"/>
</a>
</g>
<g id="a_edge12&#45;headlabel"><a xlink:href="dir_000004_000001.html" target="_top" xlink:title="14">
<text text-anchor="middle" x="334.11" y="-274.8" font-family="Helvetica,sans-Serif" font-size="10.00" fill="#63b8ff">14</text>
</a>
</g>
</g>
<!-- dir_c610c8504d46288da7634b3c0b18263f&#45;&gt;dir_ba210d1fa67db7bee1bb22e0a3c11d9f -->
<g id="edge15" class="edge">
<title>dir_c610c8504d46288da7634b3c0b18263f&#45;&gt;dir_ba210d1fa67db7bee1bb22e0a3c11d9f</title>
<g id="a_edge15"><a xlink:href="dir_000004_000002.html" target="_top">
<path fill="none" stroke="#63b8ff" d="M337,-125.66C337,-108.17 337,-68.8 337,-45.27"/>
<polygon fill="#63b8ff" stroke="#63b8ff" points="340.5,-45.16 337,-35.16 333.5,-45.16 340.5,-45.16"/>
</a>
</g>
<g id="a_edge15&#45;headlabel"><a xlink:href="dir_000004_000002.html" target="_top" xlink:title="1">
<text text-anchor="middle" x="343.34" y="-46.25" font-family="Helvetica,sans-Serif" font-size="10.00" fill="#63b8ff">1</text>
</a>
</g>
</g>
<!-- dir_c610c8504d46288da7634b3c0b18263f&#45;&gt;dir_b1a122bf62c958266ec5bf64d14fde5a -->
<g id="edge14" class="edge">
<title>dir_c610c8504d46288da7634b3c0b18263f&#45;&gt;dir_b1a122bf62c958266ec5bf64d14fde5a</title>
<g id="a_edge14"><a xlink:href="dir_000004_000007.html" target="_top">
<path fill="none" stroke="#63b8ff" d="M324.47,-125.98C312.6,-117.92 294.54,-105.65 280.39,-96.03"/>
<polygon fill="#63b8ff" stroke="#63b8ff" points="282,-92.9 271.76,-90.17 278.06,-98.69 282,-92.9"/>
</a>
</g>
<g id="a_edge14&#45;headlabel"><a xlink:href="dir_000004_000007.html" target="_top" xlink:title="6">
<text text-anchor="middle" x="286.57" y="-90.07" font-family="Helvetica,sans-Serif" font-size="10.00" fill="#63b8ff">6</text>
</a>
</g>
</g>
<!-- dir_c610c8504d46288da7634b3c0b18263f&#45;&gt;dir_3813464283bee2267f39dcf080a84d74 -->
<g id="edge13" class="edge">
<title>dir_c610c8504d46288da7634b3c0b18263f&#45;&gt;dir_3813464283bee2267f39dcf080a84d74</title>
<g id="a_edge13"><a xlink:href="dir_000004_000010.html" target="_top">
<path fill="none" stroke="#63b8ff" d="M349.53,-125.98C361.4,-117.92 379.46,-105.65 393.61,-96.03"/>
<polygon fill="#63b8ff" stroke="#63b8ff" points="395.94,-98.69 402.24,-90.17 392,-92.9 395.94,-98.69"/>
</a>
</g>
<g id="a_edge13&#45;headlabel"><a xlink:href="dir_000004_000010.html" target="_top" xlink:title="3">
<text text-anchor="middle" x="394.56" y="-100.55" font-family="Helvetica,sans-Serif" font-size="10.00" fill="#63b8ff">3</text>
</a>
</g>
</g>
<!-- dir_b1a122bf62c958266ec5bf64d14fde5a&#45;&gt;dir_ba210d1fa67db7bee1bb22e0a3c11d9f -->
<g id="edge16" class="edge">
<title>dir_b1a122bf62c958266ec5bf64d14fde5a&#45;&gt;dir_ba210d1fa67db7bee1bb22e0a3c11d9f</title>
<g id="a_edge16"><a xlink:href="dir_000007_000002.html" target="_top">
<path fill="none" stroke="#63b8ff" d="M271.53,-70.98C283.4,-62.92 301.46,-50.65 315.61,-41.03"/>
<polygon fill="#63b8ff" stroke="#63b8ff" points="317.94,-43.69 324.24,-35.17 314,-37.9 317.94,-43.69"/>
</a>
</g>
<g id="a_edge16&#45;headlabel"><a xlink:href="dir_000007_000002.html" target="_top" xlink:title="2">
<text text-anchor="middle" x="316.56" y="-45.55" font-family="Helvetica,sans-Serif" font-size="10.00" fill="#63b8ff">2</text>
</a>
</g>
</g>
<!-- dir_6aed981759055a22f0901385cc3ba5db -->
<g id="node6" class="node">
<title>dir_6aed981759055a22f0901385cc3ba5db</title>
<g id="a_node6"><a xlink:href="dir_6aed981759055a22f0901385cc3ba5db.html" target="_top" xlink:title="InputManager">
<polygon fill="#b836ff" stroke="#404040" points="180,-200 96,-200 96,-181 180,-181 180,-200"/>
<text text-anchor="middle" x="138" y="-188" font-family="Helvetica,sans-Serif" font-size="10.00">InputManager</text>
</a>
</g>
</g>
<!-- dir_6aed981759055a22f0901385cc3ba5db&#45;&gt;dir_ba210d1fa67db7bee1bb22e0a3c11d9f -->
<g id="edge18" class="edge">
<title>dir_6aed981759055a22f0901385cc3ba5db&#45;&gt;dir_ba210d1fa67db7bee1bb22e0a3c11d9f</title>
<g id="a_edge18"><a xlink:href="dir_000009_000002.html" target="_top">
<path fill="none" stroke="#63b8ff" d="M141.36,-180.7C146.52,-167.87 157.25,-143.64 171,-126 193.65,-96.95 201.89,-90.72 233,-71 254.34,-57.48 280.49,-46.31 301.23,-38.54"/>
<polygon fill="#63b8ff" stroke="#63b8ff" points="302.44,-41.83 310.63,-35.11 300.04,-35.25 302.44,-41.83"/>
</a>
</g>
<g id="a_edge18&#45;headlabel"><a xlink:href="dir_000009_000002.html" target="_top" xlink:title="3">
<text text-anchor="middle" x="300.03" y="-43.22" font-family="Helvetica,sans-Serif" font-size="10.00" fill="#63b8ff">3</text>
</a>
</g>
</g>
<!-- dir_6aed981759055a22f0901385cc3ba5db&#45;&gt;dir_c610c8504d46288da7634b3c0b18263f -->
<g id="edge19" class="edge">
<title>dir_6aed981759055a22f0901385cc3ba5db&#45;&gt;dir_c610c8504d46288da7634b3c0b18263f</title>
<g id="a_edge19"><a xlink:href="dir_000009_000004.html" target="_top">
<path fill="none" stroke="#63b8ff" d="M169.97,-180.98C203.82,-171.97 257.4,-157.7 294.71,-147.76"/>
<polygon fill="#63b8ff" stroke="#63b8ff" points="296.01,-151.04 304.78,-145.08 294.21,-144.27 296.01,-151.04"/>
</a>
</g>
<g id="a_edge19&#45;headlabel"><a xlink:href="dir_000009_000004.html" target="_top" xlink:title="3">
<text text-anchor="middle" x="293.27" y="-152.21" font-family="Helvetica,sans-Serif" font-size="10.00" fill="#63b8ff">3</text>
</a>
</g>
</g>
<!-- dir_6aed981759055a22f0901385cc3ba5db&#45;&gt;dir_b1a122bf62c958266ec5bf64d14fde5a -->
<g id="edge17" class="edge">
<title>dir_6aed981759055a22f0901385cc3ba5db&#45;&gt;dir_b1a122bf62c958266ec5bf64d14fde5a</title>
<g id="a_edge17"><a xlink:href="dir_000009_000007.html" target="_top">
<path fill="none" stroke="#63b8ff" d="M144.64,-180.67C154.55,-167.8 174.18,-143.53 194,-126 206.86,-114.63 222.74,-103.71 235.58,-95.53"/>
<polygon fill="#63b8ff" stroke="#63b8ff" points="237.67,-98.35 244.31,-90.1 233.97,-92.41 237.67,-98.35"/>
</a>
</g>
<g id="a_edge17&#45;headlabel"><a xlink:href="dir_000009_000007.html" target="_top" xlink:title="1">
<text text-anchor="middle" x="236.12" y="-100.16" font-family="Helvetica,sans-Serif" font-size="10.00" fill="#63b8ff">1</text>
</a>
</g>
</g>
<!-- dir_3813464283bee2267f39dcf080a84d74&#45;&gt;dir_ba210d1fa67db7bee1bb22e0a3c11d9f -->
<g id="edge20" class="edge">
<title>dir_3813464283bee2267f39dcf080a84d74&#45;&gt;dir_ba210d1fa67db7bee1bb22e0a3c11d9f</title>
<g id="a_edge20"><a xlink:href="dir_000010_000002.html" target="_top">
<path fill="none" stroke="#63b8ff" d="M402.47,-70.98C390.6,-62.92 372.54,-50.65 358.39,-41.03"/>
<polygon fill="#63b8ff" stroke="#63b8ff" points="360,-37.9 349.76,-35.17 356.06,-43.69 360,-37.9"/>
</a>
</g>
<g id="a_edge20&#45;headlabel"><a xlink:href="dir_000010_000002.html" target="_top" xlink:title="1">
<text text-anchor="middle" x="364.57" y="-35.07" font-family="Helvetica,sans-Serif" font-size="10.00" fill="#63b8ff">1</text>
</a>
</g>
</g>
<!-- dir_d4e015951b263415729819c1a4b61808 -->
<g id="node8" class="node">
<title>dir_d4e015951b263415729819c1a4b61808</title>
<g id="a_node8"><a xlink:href="dir_d4e015951b263415729819c1a4b61808.html" target="_top" xlink:title="Rendering">
<polygon fill="#b836ff" stroke="#404040" points="200,-365 134,-365 134,-346 200,-346 200,-365"/>
<text text-anchor="middle" x="167" y="-353" font-family="Helvetica,sans-Serif" font-size="10.00">Rendering</text>
</a>
</g>
</g>
<!-- dir_d4e015951b263415729819c1a4b61808&#45;&gt;dir_17dd1609571feee8469e465ffa40a219 -->
<g id="edge21" class="edge">
<title>dir_d4e015951b263415729819c1a4b61808&#45;&gt;dir_17dd1609571feee8469e465ffa40a219</title>
<g id="a_edge21"><a xlink:href="dir_000011_000001.html" target="_top">
<path fill="none" stroke="#63b8ff" d="M194.96,-345.98C224.3,-337.05 270.6,-322.94 303.19,-313.02"/>
<polygon fill="#63b8ff" stroke="#63b8ff" points="304.28,-316.34 312.82,-310.08 302.24,-309.65 304.28,-316.34"/>
</a>
</g>
<g id="a_edge21&#45;headlabel"><a xlink:href="dir_000011_000001.html" target="_top" xlink:title="4">
<text text-anchor="middle" x="301.67" y="-317.61" font-family="Helvetica,sans-Serif" font-size="10.00" fill="#63b8ff">4</text>
</a>
</g>
</g>
<!-- dir_d4e015951b263415729819c1a4b61808&#45;&gt;dir_ba210d1fa67db7bee1bb22e0a3c11d9f -->
<g id="edge22" class="edge">
<title>dir_d4e015951b263415729819c1a4b61808&#45;&gt;dir_ba210d1fa67db7bee1bb22e0a3c11d9f</title>
<g id="a_edge22"><a xlink:href="dir_000011_000002.html" target="_top">
<path fill="none" stroke="#63b8ff" d="M158.08,-345.58C128.18,-314.59 35.68,-208.95 76,-126 115.06,-45.64 233.09,-29.41 296.18,-26.63"/>
<polygon fill="#63b8ff" stroke="#63b8ff" points="296.32,-30.13 306.19,-26.28 296.07,-23.13 296.32,-30.13"/>
</a>
</g>
<g id="a_edge22&#45;headlabel"><a xlink:href="dir_000011_000002.html" target="_top" xlink:title="4">
<text text-anchor="middle" x="292.82" y="-30.59" font-family="Helvetica,sans-Serif" font-size="10.00" fill="#63b8ff">4</text>
</a>
</g>
</g>
<!-- dir_e7c9606de6dc9534b0042ecacee5f21f&#45;&gt;dir_17dd1609571feee8469e465ffa40a219 -->
<g id="edge23" class="edge">
<title>dir_e7c9606de6dc9534b0042ecacee5f21f&#45;&gt;dir_17dd1609571feee8469e465ffa40a219</title>
<g id="a_edge23"><a xlink:href="dir_000012_000001.html" target="_top">
<path fill="none" stroke="#63b8ff" d="M429.61,-200.2C419.13,-212.5 399.3,-235.64 382,-255 373.51,-264.5 363.87,-274.98 356.07,-283.39"/>
<polygon fill="#63b8ff" stroke="#63b8ff" points="353.5,-281 349.25,-290.71 358.63,-285.78 353.5,-281"/>
</a>
</g>
<g id="a_edge23&#45;headlabel"><a xlink:href="dir_000012_000001.html" target="_top" xlink:title="5">
<text text-anchor="middle" x="353.87" y="-273.94" font-family="Helvetica,sans-Serif" font-size="10.00" fill="#63b8ff">5</text>
</a>
</g>
</g>
<!-- dir_e7c9606de6dc9534b0042ecacee5f21f&#45;&gt;dir_ba210d1fa67db7bee1bb22e0a3c11d9f -->
<g id="edge27" class="edge">
<title>dir_e7c9606de6dc9534b0042ecacee5f21f&#45;&gt;dir_ba210d1fa67db7bee1bb22e0a3c11d9f</title>
<g id="a_edge27"><a xlink:href="dir_000012_000002.html" target="_top">
<path fill="none" stroke="#63b8ff" d="M440.88,-180.84C449.61,-159.91 468.29,-105.78 445,-71 430.04,-48.66 401.62,-37.53 377.68,-31.98"/>
<polygon fill="#63b8ff" stroke="#63b8ff" points="378.25,-28.52 367.75,-29.93 376.84,-35.38 378.25,-28.52"/>
</a>
</g>
<g id="a_edge27&#45;headlabel"><a xlink:href="dir_000012_000002.html" target="_top" xlink:title="1">
<text text-anchor="middle" x="382.35" y="-23.97" font-family="Helvetica,sans-Serif" font-size="10.00" fill="#63b8ff">1</text>
</a>
</g>
</g>
<!-- dir_e7c9606de6dc9534b0042ecacee5f21f&#45;&gt;dir_c610c8504d46288da7634b3c0b18263f -->
<g id="edge28" class="edge">
<title>dir_e7c9606de6dc9534b0042ecacee5f21f&#45;&gt;dir_c610c8504d46288da7634b3c0b18263f</title>
<g id="a_edge28"><a xlink:href="dir_000012_000004.html" target="_top">
<path fill="none" stroke="#63b8ff" d="M420.93,-180.98C405.14,-172.61 380.78,-159.7 362.37,-149.95"/>
<polygon fill="#63b8ff" stroke="#63b8ff" points="363.83,-146.76 353.36,-145.17 360.56,-152.95 363.83,-146.76"/>
</a>
</g>
<g id="a_edge28&#45;headlabel"><a xlink:href="dir_000012_000004.html" target="_top" xlink:title="19">
<text text-anchor="middle" x="368.34" y="-143.44" font-family="Helvetica,sans-Serif" font-size="10.00" fill="#63b8ff">19</text>
</a>
</g>
</g>
<!-- dir_e7c9606de6dc9534b0042ecacee5f21f&#45;&gt;dir_b1a122bf62c958266ec5bf64d14fde5a -->
<g id="edge26" class="edge">
<title>dir_e7c9606de6dc9534b0042ecacee5f21f&#45;&gt;dir_b1a122bf62c958266ec5bf64d14fde5a</title>
<g id="a_edge26"><a xlink:href="dir_000012_000007.html" target="_top">
<path fill="none" stroke="#63b8ff" d="M432.07,-180.83C423.93,-167.28 406.46,-141.06 385,-126 354.83,-104.82 313.56,-92.79 286.61,-86.71"/>
<polygon fill="#63b8ff" stroke="#63b8ff" points="287.19,-83.25 276.68,-84.59 285.74,-90.1 287.19,-83.25"/>
</a>
</g>
<g id="a_edge26&#45;headlabel"><a xlink:href="dir_000012_000007.html" target="_top" xlink:title="2">
<text text-anchor="middle" x="291.3" y="-78.73" font-family="Helvetica,sans-Serif" font-size="10.00" fill="#63b8ff">2</text>
</a>
</g>
</g>
<!-- dir_e7c9606de6dc9534b0042ecacee5f21f&#45;&gt;dir_3813464283bee2267f39dcf080a84d74 -->
<g id="edge24" class="edge">
<title>dir_e7c9606de6dc9534b0042ecacee5f21f&#45;&gt;dir_3813464283bee2267f39dcf080a84d74</title>
<g id="a_edge24"><a xlink:href="dir_000012_000010.html" target="_top">
<path fill="none" stroke="#63b8ff" d="M435.2,-180.66C431.64,-163.17 423.62,-123.8 418.82,-100.27"/>
<polygon fill="#63b8ff" stroke="#63b8ff" points="422.19,-99.26 416.76,-90.16 415.33,-100.66 422.19,-99.26"/>
</a>
</g>
<g id="a_edge24&#45;headlabel"><a xlink:href="dir_000012_000010.html" target="_top" xlink:title="1">
<text text-anchor="middle" x="425.69" y="-99.71" font-family="Helvetica,sans-Serif" font-size="10.00" fill="#63b8ff">1</text>
</a>
</g>
</g>
<!-- dir_e7c9606de6dc9534b0042ecacee5f21f&#45;&gt;dir_a7363e98f9e0bdd87618633653859815 -->
<g id="edge25" class="edge">
<title>dir_e7c9606de6dc9534b0042ecacee5f21f&#45;&gt;dir_a7363e98f9e0bdd87618633653859815</title>
<g id="a_edge25"><a xlink:href="dir_000012_000017.html" target="_top">
<path fill="none" stroke="#63b8ff" d="M441.97,-200.09C443.35,-206.99 443.61,-216.93 442.85,-225.66"/>
<polygon fill="#63b8ff" stroke="#63b8ff" points="439.36,-225.34 441.33,-235.75 446.28,-226.38 439.36,-225.34"/>
</a>
</g>
<g id="a_edge25&#45;headlabel"><a xlink:href="dir_000012_000017.html" target="_top" xlink:title="2">
<text text-anchor="middle" x="437.08" y="-218.86" font-family="Helvetica,sans-Serif" font-size="10.00" fill="#63b8ff">2</text>
</a>
</g>
</g>
<!-- dir_900c20bb70493231141df6997ccd6b87&#45;&gt;dir_17dd1609571feee8469e465ffa40a219 -->
<g id="edge29" class="edge">
<title>dir_900c20bb70493231141df6997ccd6b87&#45;&gt;dir_17dd1609571feee8469e465ffa40a219</title>
<g id="a_edge29"><a xlink:href="dir_000014_000001.html" target="_top">
<path fill="none" stroke="#63b8ff" d="M317.13,-400.66C321.36,-383.09 330.9,-343.45 336.56,-319.95"/>
<polygon fill="#63b8ff" stroke="#63b8ff" points="339.98,-320.7 338.92,-310.16 333.17,-319.06 339.98,-320.7"/>
</a>
</g>
<g id="a_edge29&#45;headlabel"><a xlink:href="dir_000014_000001.html" target="_top" xlink:title="4">
<text text-anchor="middle" x="341.9" y="-322.36" font-family="Helvetica,sans-Serif" font-size="10.00" fill="#63b8ff">4</text>
</a>
</g>
</g>
<!-- dir_900c20bb70493231141df6997ccd6b87&#45;&gt;dir_ba210d1fa67db7bee1bb22e0a3c11d9f -->
<g id="edge34" class="edge">
<title>dir_900c20bb70493231141df6997ccd6b87&#45;&gt;dir_ba210d1fa67db7bee1bb22e0a3c11d9f</title>
<g id="a_edge34"><a xlink:href="dir_000014_000002.html" target="_top">
<path fill="none" stroke="#63b8ff" d="M336.09,-400.83C391.16,-376.64 535,-302.8 535,-191.5 535,-191.5 535,-191.5 535,-134.5 535,-63.39 435.37,-38.82 377.45,-30.55"/>
<polygon fill="#63b8ff" stroke="#63b8ff" points="377.88,-27.07 367.5,-29.23 376.96,-34.01 377.88,-27.07"/>
</a>
</g>
<g id="a_edge34&#45;headlabel"><a xlink:href="dir_000014_000002.html" target="_top" xlink:title="11">
<text text-anchor="middle" x="381.81" y="-22.23" font-family="Helvetica,sans-Serif" font-size="10.00" fill="#63b8ff">11</text>
</a>
</g>
</g>
<!-- dir_900c20bb70493231141df6997ccd6b87&#45;&gt;dir_c610c8504d46288da7634b3c0b18263f -->
<g id="edge35" class="edge">
<title>dir_900c20bb70493231141df6997ccd6b87&#45;&gt;dir_c610c8504d46288da7634b3c0b18263f</title>
<g id="a_edge35"><a xlink:href="dir_000014_000004.html" target="_top">
<path fill="none" stroke="#63b8ff" d="M311.94,-400.86C306.07,-383.78 293.41,-344.35 289,-310 281.52,-251.79 310.84,-185.63 327,-154.5"/>
<polygon fill="#63b8ff" stroke="#63b8ff" points="330.26,-155.81 331.9,-145.35 324.09,-152.51 330.26,-155.81"/>
</a>
</g>
<g id="a_edge35&#45;headlabel"><a xlink:href="dir_000014_000004.html" target="_top" xlink:title="31">
<text text-anchor="middle" x="331.07" y="-157.82" font-family="Helvetica,sans-Serif" font-size="10.00" fill="#63b8ff">31</text>
</a>
</g>
</g>
<!-- dir_900c20bb70493231141df6997ccd6b87&#45;&gt;dir_b1a122bf62c958266ec5bf64d14fde5a -->
<g id="edge33" class="edge">
<title>dir_900c20bb70493231141df6997ccd6b87&#45;&gt;dir_b1a122bf62c958266ec5bf64d14fde5a</title>
<g id="a_edge33"><a xlink:href="dir_000014_000007.html" target="_top">
<path fill="none" stroke="#63b8ff" d="M309.63,-400.68C295.61,-376.78 259,-308.44 259,-246.5 259,-246.5 259,-246.5 259,-189.5 259,-158.19 259,-121.77 259,-100.23"/>
<polygon fill="#63b8ff" stroke="#63b8ff" points="262.5,-100.18 259,-90.18 255.5,-100.18 262.5,-100.18"/>
</a>
</g>
<g id="a_edge33&#45;headlabel"><a xlink:href="dir_000014_000007.html" target="_top" xlink:title="6">
<text text-anchor="middle" x="265.34" y="-101.27" font-family="Helvetica,sans-Serif" font-size="10.00" fill="#63b8ff">6</text>
</a>
</g>
</g>
<!-- dir_900c20bb70493231141df6997ccd6b87&#45;&gt;dir_6aed981759055a22f0901385cc3ba5db -->
<g id="edge31" class="edge">
<title>dir_900c20bb70493231141df6997ccd6b87&#45;&gt;dir_6aed981759055a22f0901385cc3ba5db</title>
<g id="a_edge31"><a xlink:href="dir_000014_000009.html" target="_top">
<path fill="none" stroke="#63b8ff" d="M306.62,-400.82C298.18,-391.99 284.89,-377.8 274,-365 226.61,-309.27 174.18,-240.04 150.64,-208.54"/>
<polygon fill="#63b8ff" stroke="#63b8ff" points="153.33,-206.29 144.55,-200.36 147.72,-210.47 153.33,-206.29"/>
</a>
</g>
<g id="a_edge31&#45;headlabel"><a xlink:href="dir_000014_000009.html" target="_top" xlink:title="3">
<text text-anchor="middle" x="157.76" y="-204.98" font-family="Helvetica,sans-Serif" font-size="10.00" fill="#63b8ff">3</text>
</a>
</g>
</g>
<!-- dir_900c20bb70493231141df6997ccd6b87&#45;&gt;dir_3813464283bee2267f39dcf080a84d74 -->
<g id="edge30" class="edge">
<title>dir_900c20bb70493231141df6997ccd6b87&#45;&gt;dir_3813464283bee2267f39dcf080a84d74</title>
<g id="a_edge30"><a xlink:href="dir_000014_000010.html" target="_top">
<path fill="none" stroke="#63b8ff" d="M324.52,-400.8C334.13,-391.94 349.32,-377.75 362,-365 385.61,-341.26 447.48,-283.54 465,-255 478.61,-232.83 480.49,-225.62 485,-200 492.31,-158.53 456.38,-118 433.29,-96.77"/>
<polygon fill="#63b8ff" stroke="#63b8ff" points="435.55,-94.1 425.74,-90.09 430.91,-99.34 435.55,-94.1"/>
</a>
</g>
<g id="a_edge30&#45;headlabel"><a xlink:href="dir_000014_000010.html" target="_top" xlink:title="1">
<text text-anchor="middle" x="440.12" y="-91.86" font-family="Helvetica,sans-Serif" font-size="10.00" fill="#63b8ff">1</text>
</a>
</g>
</g>
<!-- dir_900c20bb70493231141df6997ccd6b87&#45;&gt;dir_d4e015951b263415729819c1a4b61808 -->
<g id="edge36" class="edge">
<title>dir_900c20bb70493231141df6997ccd6b87&#45;&gt;dir_d4e015951b263415729819c1a4b61808</title>
<g id="a_edge36"><a xlink:href="dir_000014_000011.html" target="_top">
<path fill="none" stroke="#63b8ff" d="M291.22,-400.98C266.77,-392.23 228.47,-378.51 200.85,-368.62"/>
<polygon fill="#63b8ff" stroke="#63b8ff" points="201.81,-365.25 191.21,-365.17 199.45,-371.84 201.81,-365.25"/>
</a>
</g>
<g id="a_edge36&#45;headlabel"><a xlink:href="dir_000014_000011.html" target="_top" xlink:title="4">
<text text-anchor="middle" x="206.15" y="-361.29" font-family="Helvetica,sans-Serif" font-size="10.00" fill="#63b8ff">4</text>
</a>
</g>
</g>
<!-- dir_900c20bb70493231141df6997ccd6b87&#45;&gt;dir_a7363e98f9e0bdd87618633653859815 -->
<g id="edge32" class="edge">
<title>dir_900c20bb70493231141df6997ccd6b87&#45;&gt;dir_a7363e98f9e0bdd87618633653859815</title>
<g id="a_edge32"><a xlink:href="dir_000014_000017.html" target="_top">
<path fill="none" stroke="#63b8ff" d="M322.09,-400.87C336.05,-383.81 367.91,-344.41 393,-310 404.24,-294.59 416.36,-276.55 424.86,-263.64"/>
<polygon fill="#63b8ff" stroke="#63b8ff" points="427.8,-265.54 430.35,-255.26 421.94,-261.71 427.8,-265.54"/>
</a>
</g>
<g id="a_edge32&#45;headlabel"><a xlink:href="dir_000014_000017.html" target="_top" xlink:title="3">
<text text-anchor="middle" x="428.2" y="-267.61" font-family="Helvetica,sans-Serif" font-size="10.00" fill="#63b8ff">3</text>
</a>
</g>
</g>
<!-- dir_da5c6b39c0a2f54e57df6799511cd3ab -->
<g id="node11" class="node">
<title>dir_da5c6b39c0a2f54e57df6799511cd3ab</title>
<g id="a_node11"><a xlink:href="dir_da5c6b39c0a2f54e57df6799511cd3ab.html" target="_top" xlink:title="ui">
<polygon fill="#b836ff" stroke="#404040" points="147.5,-475 118.5,-475 118.5,-456 147.5,-456 147.5,-475"/>
<text text-anchor="middle" x="133" y="-463" font-family="Helvetica,sans-Serif" font-size="10.00">ui</text>
</a>
</g>
</g>
<!-- dir_da5c6b39c0a2f54e57df6799511cd3ab&#45;&gt;dir_17dd1609571feee8469e465ffa40a219 -->
<g id="edge37" class="edge">
<title>dir_da5c6b39c0a2f54e57df6799511cd3ab&#45;&gt;dir_17dd1609571feee8469e465ffa40a219</title>
<g id="a_edge37"><a xlink:href="dir_000016_000001.html" target="_top">
<path fill="none" stroke="#63b8ff" d="M143.89,-455.97C177.44,-429.68 279.51,-349.69 322.06,-316.34"/>
<polygon fill="#63b8ff" stroke="#63b8ff" points="324.25,-319.07 329.97,-310.15 319.94,-313.56 324.25,-319.07"/>
</a>
</g>
<g id="a_edge37&#45;headlabel"><a xlink:href="dir_000016_000001.html" target="_top" xlink:title="36">
<text text-anchor="middle" x="323.18" y="-321.02" font-family="Helvetica,sans-Serif" font-size="10.00" fill="#63b8ff">36</text>
</a>
</g>
</g>
<!-- dir_da5c6b39c0a2f54e57df6799511cd3ab&#45;&gt;dir_ba210d1fa67db7bee1bb22e0a3c11d9f -->
<g id="edge42" class="edge">
<title>dir_da5c6b39c0a2f54e57df6799511cd3ab&#45;&gt;dir_ba210d1fa67db7bee1bb22e0a3c11d9f</title>
<g id="a_edge42"><a xlink:href="dir_000016_000002.html" target="_top">
<path fill="none" stroke="#63b8ff" d="M118.31,-458.97C87.09,-446.14 17,-411.26 17,-356.5 17,-356.5 17,-356.5 17,-134.5 17,-88.05 57.58,-89.91 100,-71 164.84,-42.1 247.75,-31.96 296.36,-28.41"/>
<polygon fill="#63b8ff" stroke="#63b8ff" points="296.74,-31.89 306.48,-27.73 296.27,-24.91 296.74,-31.89"/>
</a>
</g>
<g id="a_edge42&#45;headlabel"><a xlink:href="dir_000016_000002.html" target="_top" xlink:title="11">
<text text-anchor="middle" x="293.35" y="-32.46" font-family="Helvetica,sans-Serif" font-size="10.00" fill="#63b8ff">11</text>
</a>
</g>
</g>
<!-- dir_da5c6b39c0a2f54e57df6799511cd3ab&#45;&gt;dir_c610c8504d46288da7634b3c0b18263f -->
<g id="edge43" class="edge">
<title>dir_da5c6b39c0a2f54e57df6799511cd3ab&#45;&gt;dir_c610c8504d46288da7634b3c0b18263f</title>
<g id="a_edge43"><a xlink:href="dir_000016_000004.html" target="_top">
<path fill="none" stroke="#63b8ff" d="M129.84,-455.74C123.07,-435.48 109.03,-384.24 125,-346 164,-252.64 267.1,-179.68 313.63,-150.42"/>
<polygon fill="#63b8ff" stroke="#63b8ff" points="315.73,-153.23 322.4,-145 312.05,-147.28 315.73,-153.23"/>
</a>
</g>
<g id="a_edge43&#45;headlabel"><a xlink:href="dir_000016_000004.html" target="_top" xlink:title="46">
<text text-anchor="middle" x="314.17" y="-155.04" font-family="Helvetica,sans-Serif" font-size="10.00" fill="#63b8ff">46</text>
</a>
</g>
</g>
<!-- dir_da5c6b39c0a2f54e57df6799511cd3ab&#45;&gt;dir_b1a122bf62c958266ec5bf64d14fde5a -->
<g id="edge41" class="edge">
<title>dir_da5c6b39c0a2f54e57df6799511cd3ab&#45;&gt;dir_b1a122bf62c958266ec5bf64d14fde5a</title>
<g id="a_edge41"><a xlink:href="dir_000016_000007.html" target="_top">
<path fill="none" stroke="#63b8ff" d="M124.44,-455.83C108.31,-438.52 75,-397.79 75,-356.5 75,-356.5 75,-356.5 75,-299.5 75,-246.56 59.51,-226.24 87,-181 119.4,-127.68 191.85,-100.04 231.6,-88.41"/>
<polygon fill="#63b8ff" stroke="#63b8ff" points="232.74,-91.72 241.43,-85.66 230.85,-84.98 232.74,-91.72"/>
</a>
</g>
<g id="a_edge41&#45;headlabel"><a xlink:href="dir_000016_000007.html" target="_top" xlink:title="8">
<text text-anchor="middle" x="230.04" y="-92.93" font-family="Helvetica,sans-Serif" font-size="10.00" fill="#63b8ff">8</text>
</a>
</g>
</g>
<!-- dir_da5c6b39c0a2f54e57df6799511cd3ab&#45;&gt;dir_6aed981759055a22f0901385cc3ba5db -->
<g id="edge38" class="edge">
<title>dir_da5c6b39c0a2f54e57df6799511cd3ab&#45;&gt;dir_6aed981759055a22f0901385cc3ba5db</title>
<g id="a_edge38"><a xlink:href="dir_000016_000009.html" target="_top">
<path fill="none" stroke="#63b8ff" d="M127.72,-455.9C117.27,-438.07 95,-395.46 95,-356.5 95,-356.5 95,-356.5 95,-299.5 95,-265.53 113.59,-229.53 126.33,-208.87"/>
<polygon fill="#63b8ff" stroke="#63b8ff" points="129.39,-210.58 131.84,-200.27 123.5,-206.8 129.39,-210.58"/>
</a>
</g>
<g id="a_edge38&#45;headlabel"><a xlink:href="dir_000016_000009.html" target="_top" xlink:title="4">
<text text-anchor="middle" x="129.84" y="-212.64" font-family="Helvetica,sans-Serif" font-size="10.00" fill="#63b8ff">4</text>
</a>
</g>
</g>
<!-- dir_da5c6b39c0a2f54e57df6799511cd3ab&#45;&gt;dir_d4e015951b263415729819c1a4b61808 -->
<g id="edge44" class="edge">
<title>dir_da5c6b39c0a2f54e57df6799511cd3ab&#45;&gt;dir_d4e015951b263415729819c1a4b61808</title>
<g id="a_edge44"><a xlink:href="dir_000016_000011.html" target="_top">
<path fill="none" stroke="#63b8ff" d="M135.78,-455.66C141.31,-438.09 153.79,-398.45 161.19,-374.95"/>
<polygon fill="#63b8ff" stroke="#63b8ff" points="164.61,-375.75 164.27,-365.16 157.93,-373.65 164.61,-375.75"/>
</a>
</g>
<g id="a_edge44&#45;headlabel"><a xlink:href="dir_000016_000011.html" target="_top" xlink:title="2">
<text text-anchor="middle" x="166.24" y="-377.53" font-family="Helvetica,sans-Serif" font-size="10.00" fill="#63b8ff">2</text>
</a>
</g>
</g>
<!-- dir_da5c6b39c0a2f54e57df6799511cd3ab&#45;&gt;dir_900c20bb70493231141df6997ccd6b87 -->
<g id="edge39" class="edge">
<title>dir_da5c6b39c0a2f54e57df6799511cd3ab&#45;&gt;dir_900c20bb70493231141df6997ccd6b87</title>
<g id="a_edge39"><a xlink:href="dir_000016_000014.html" target="_top">
<path fill="none" stroke="#63b8ff" d="M147.59,-460.25C175.11,-452.24 235.56,-434.63 275.78,-422.92"/>
<polygon fill="#63b8ff" stroke="#63b8ff" points="276.92,-426.23 285.54,-420.08 274.96,-419.51 276.92,-426.23"/>
</a>
</g>
<g id="a_edge39&#45;headlabel"><a xlink:href="dir_000016_000014.html" target="_top" xlink:title="8">
<text text-anchor="middle" x="274.26" y="-427.47" font-family="Helvetica,sans-Serif" font-size="10.00" fill="#63b8ff">8</text>
</a>
</g>
</g>
<!-- dir_da5c6b39c0a2f54e57df6799511cd3ab&#45;&gt;dir_a7363e98f9e0bdd87618633653859815 -->
<g id="edge40" class="edge">
<title>dir_da5c6b39c0a2f54e57df6799511cd3ab&#45;&gt;dir_a7363e98f9e0bdd87618633653859815</title>
<g id="a_edge40"><a xlink:href="dir_000016_000017.html" target="_top">
<path fill="none" stroke="#63b8ff" d="M147.76,-463.25C191.82,-459.24 321.4,-445.51 354,-420 404.9,-380.17 425.75,-301.07 432.86,-265.09"/>
<polygon fill="#63b8ff" stroke="#63b8ff" points="436.34,-265.5 434.7,-255.03 429.46,-264.23 436.34,-265.5"/>
</a>
</g>
<g id="a_edge40&#45;headlabel"><a xlink:href="dir_000016_000017.html" target="_top" xlink:title="8">
<text text-anchor="middle" x="438.49" y="-267.04" font-family="Helvetica,sans-Serif" font-size="10.00" fill="#63b8ff">8</text>
</a>
</g>
</g>
<!-- dir_a7363e98f9e0bdd87618633653859815&#45;&gt;dir_17dd1609571feee8469e465ffa40a219 -->
<g id="edge45" class="edge">
<title>dir_a7363e98f9e0bdd87618633653859815&#45;&gt;dir_17dd1609571feee8469e465ffa40a219</title>
<g id="a_edge45"><a xlink:href="dir_000017_000001.html" target="_top">
<path fill="none" stroke="#63b8ff" d="M425.61,-255.17C412.27,-263.64 389.23,-276.63 370.46,-286.37"/>
<polygon fill="#63b8ff" stroke="#63b8ff" points="368.71,-283.33 361.38,-290.98 371.88,-289.57 368.71,-283.33"/>
</a>
</g>
<g id="a_edge45&#45;headlabel"><a xlink:href="dir_000017_000001.html" target="_top" xlink:title="8">
<text text-anchor="middle" x="370.62" y="-276.67" font-family="Helvetica,sans-Serif" font-size="10.00" fill="#63b8ff">8</text>
</a>
</g>
</g>
<!-- dir_a7363e98f9e0bdd87618633653859815&#45;&gt;dir_ba210d1fa67db7bee1bb22e0a3c11d9f -->
<g id="edge47" class="edge">
<title>dir_a7363e98f9e0bdd87618633653859815&#45;&gt;dir_ba210d1fa67db7bee1bb22e0a3c11d9f</title>
<g id="a_edge47"><a xlink:href="dir_000017_000002.html" target="_top">
<path fill="none" stroke="#63b8ff" d="M451.13,-235.73C462.81,-227.99 478.12,-215.55 485,-200 502.4,-160.7 515.03,-137.7 454,-71 434.27,-49.44 402.99,-38.25 377.73,-32.49"/>
<polygon fill="#63b8ff" stroke="#63b8ff" points="378.18,-29.01 367.68,-30.4 376.76,-35.86 378.18,-29.01"/>
</a>
</g>
<g id="a_edge47&#45;headlabel"><a xlink:href="dir_000017_000002.html" target="_top" xlink:title="5">
<text text-anchor="middle" x="382.28" y="-24.46" font-family="Helvetica,sans-Serif" font-size="10.00" fill="#63b8ff">5</text>
</a>
</g>
</g>
<!-- dir_a7363e98f9e0bdd87618633653859815&#45;&gt;dir_c610c8504d46288da7634b3c0b18263f -->
<g id="edge48" class="edge">
<title>dir_a7363e98f9e0bdd87618633653859815&#45;&gt;dir_c610c8504d46288da7634b3c0b18263f</title>
<g id="a_edge48"><a xlink:href="dir_000017_000004.html" target="_top">
<path fill="none" stroke="#63b8ff" d="M416.47,-238.89C397.71,-232.49 369.94,-220.22 354,-200 343.95,-187.26 339.82,-169.08 338.14,-155.44"/>
<polygon fill="#63b8ff" stroke="#63b8ff" points="341.6,-154.91 337.22,-145.26 334.63,-155.54 341.6,-154.91"/>
</a>
</g>
<g id="a_edge48&#45;headlabel"><a xlink:href="dir_000017_000004.html" target="_top" xlink:title="9">
<text text-anchor="middle" x="344.75" y="-155.73" font-family="Helvetica,sans-Serif" font-size="10.00" fill="#63b8ff">9</text>
</a>
</g>
</g>
<!-- dir_a7363e98f9e0bdd87618633653859815&#45;&gt;dir_b1a122bf62c958266ec5bf64d14fde5a -->
<g id="edge46" class="edge">
<title>dir_a7363e98f9e0bdd87618633653859815&#45;&gt;dir_b1a122bf62c958266ec5bf64d14fde5a</title>
<g id="a_edge46"><a xlink:href="dir_000017_000007.html" target="_top">
<path fill="none" stroke="#63b8ff" d="M416.41,-237.98C396.12,-230.67 364.07,-217.5 340,-200 313.04,-180.4 307.67,-172.62 289,-145 279.3,-130.65 271.13,-112.68 265.78,-99.52"/>
<polygon fill="#63b8ff" stroke="#63b8ff" points="269.02,-98.2 262.11,-90.16 262.5,-100.75 269.02,-98.2"/>
</a>
</g>
<g id="a_edge46&#45;headlabel"><a xlink:href="dir_000017_000007.html" target="_top" xlink:title="2">
<text text-anchor="middle" x="272.97" y="-98.01" font-family="Helvetica,sans-Serif" font-size="10.00" fill="#63b8ff">2</text>
</a>
</g>
</g>
<!-- dir_a7363e98f9e0bdd87618633653859815&#45;&gt;dir_e7c9606de6dc9534b0042ecacee5f21f -->
<g id="edge49" class="edge">
<title>dir_a7363e98f9e0bdd87618633653859815&#45;&gt;dir_e7c9606de6dc9534b0042ecacee5f21f</title>
<g id="a_edge49"><a xlink:href="dir_000017_000012.html" target="_top">
<path fill="none" stroke="#63b8ff" d="M431,-235.75C429.64,-228.8 429.39,-218.85 430.17,-210.13"/>
<polygon fill="#63b8ff" stroke="#63b8ff" points="433.65,-210.5 431.71,-200.09 426.73,-209.44 433.65,-210.5"/>
</a>
</g>
<g id="a_edge49&#45;headlabel"><a xlink:href="dir_000017_000012.html" target="_top" xlink:title="1">
<text text-anchor="middle" x="435.92" y="-211.99" font-family="Helvetica,sans-Serif" font-size="10.00" fill="#63b8ff">1</text>
</a>
</g>
</g>
</g>
</svg>
