<?xml version="1.0" encoding="UTF-8" standalone="no"?>
<!DOCTYPE svg PUBLIC "-//W3C//DTD SVG 1.1//EN"
 "http://www.w3.org/Graphics/SVG/1.1/DTD/svg11.dtd">
<!-- Generated by graphviz version 2.43.0 (0)
 -->
<!-- Title: src/Rendering Pages: 1 -->
<svg width="234pt" height="183pt"
 viewBox="0.00 0.00 234.00 183.00" xmlns="http://www.w3.org/2000/svg" xmlns:xlink="http://www.w3.org/1999/xlink">
<g id="graph0" class="graph" transform="scale(1 1) rotate(0) translate(4 179)">
<title>src/Rendering</title>
<polygon fill="white" stroke="transparent" points="-4,4 -4,-179 230,-179 230,4 -4,4"/>
<g id="clust1" class="cluster">
<title>clusterdir_68267d1309a1af8e8297ef4c3efbcdba</title>
<g id="a_clust1"><a xlink:href="dir_68267d1309a1af8e8297ef4c3efbcdba.html" target="_top" xlink:title="src">
<polygon fill="#ddddee" stroke="black" points="8,-8 8,-167 218,-167 218,-8 8,-8"/>
<text text-anchor="middle" x="113" y="-155" font-family="Helvetica,sans-Serif" font-size="10.00">src</text>
</a>
</g>
</g>
<g id="clust2" class="cluster">
<title>clusterdir_d4e015951b263415729819c1a4b61808</title>
<g id="a_clust2"><a xlink:href="dir_d4e015951b263415729819c1a4b61808.html" target="_top">
<polygon fill="#eeeeff" stroke="black" points="16,-16 16,-140 114,-140 114,-16 16,-16"/>
</a>
</g>
</g>
<!-- dir_17dd1609571feee8469e465ffa40a219 -->
<g id="node1" class="node">
<title>dir_17dd1609571feee8469e465ffa40a219</title>
<g id="a_node1"><a xlink:href="dir_17dd1609571feee8469e465ffa40a219.html" target="_top" xlink:title="AssetManager">
<polygon fill="none" stroke="black" points="210,-60 124,-60 124,-24 210,-24 210,-60"/>
<text text-anchor="middle" x="167" y="-39.5" font-family="Helvetica,sans-Serif" font-size="10.00">AssetManager</text>
</a>
</g>
</g>
<!-- dir_d4e015951b263415729819c1a4b61808 -->
<g id="node2" class="node">
<title>dir_d4e015951b263415729819c1a4b61808</title>
<text text-anchor="middle" x="69" y="-111.5" font-family="Helvetica,sans-Serif" font-size="10.00">Rendering</text>
</g>
<!-- dir_d4e015951b263415729819c1a4b61808&#45;&gt;dir_17dd1609571feee8469e465ffa40a219 -->
<g id="edge1" class="edge">
<title>dir_d4e015951b263415729819c1a4b61808&#45;&gt;dir_17dd1609571feee8469e465ffa40a219</title>
<path fill="none" stroke="black" d="M92.97,-95.88C105.55,-86.89 121.13,-75.76 134.75,-66.03"/>
<polygon fill="black" stroke="black" points="136.83,-68.85 142.93,-60.19 132.76,-63.15 136.83,-68.85"/>
<g id="a_edge1&#45;headlabel"><a xlink:href="dir_000009_000003.html" target="_top" xlink:title="4">
<text text-anchor="middle" x="135.56" y="-70.75" font-family="Helvetica,sans-Serif" font-size="10.00">4</text>
</a>
</g>
</g>
<!-- dir_5922d2f67d1e31f4baabce9528dc8eb2 -->
<g id="node3" class="node">
<title>dir_5922d2f67d1e31f4baabce9528dc8eb2</title>
<g id="a_node3"><a xlink:href="dir_5922d2f67d1e31f4baabce9528dc8eb2.html" target="_top" xlink:title="FrameBuffers">
<polygon fill="white" stroke="black" points="106,-60 24,-60 24,-24 106,-24 106,-60"/>
<text text-anchor="middle" x="65" y="-39.5" font-family="Helvetica,sans-Serif" font-size="10.00">FrameBuffers</text>
</a>
</g>
</g>
<!-- dir_d4e015951b263415729819c1a4b61808&#45;&gt;dir_5922d2f67d1e31f4baabce9528dc8eb2 -->
<g id="edge2" class="edge">
<title>dir_d4e015951b263415729819c1a4b61808&#45;&gt;dir_5922d2f67d1e31f4baabce9528dc8eb2</title>
<path fill="none" stroke="black" d="M68.01,-95.7C67.57,-87.98 67.04,-78.71 66.55,-70.11"/>
<polygon fill="black" stroke="black" points="70.04,-69.89 65.98,-60.1 63.05,-70.29 70.04,-69.89"/>
<g id="a_edge2&#45;headlabel"><a xlink:href="dir_000009_000010.html" target="_top" xlink:title="1">
<text text-anchor="middle" x="73.08" y="-70.82" font-family="Helvetica,sans-Serif" font-size="10.00">1</text>
</a>
</g>
</g>
</g>
</svg>
