<?xml version="1.0" encoding="UTF-8" standalone="no"?>
<!DOCTYPE svg PUBLIC "-//W3C//DTD SVG 1.1//EN"
 "http://www.w3.org/Graphics/SVG/1.1/DTD/svg11.dtd">
<!-- Generated by graphviz version 2.43.0 (0)
 -->
<!-- Title: src Pages: 1 -->
<svg width="416pt" height="364pt"
 viewBox="0.00 0.00 416.00 364.00" xmlns="http://www.w3.org/2000/svg" xmlns:xlink="http://www.w3.org/1999/xlink">
<g id="graph0" class="graph" transform="scale(1 1) rotate(0) translate(4 360)">
<title>src</title>
<polygon fill="white" stroke="transparent" points="-4,4 -4,-360 412,-360 412,4 -4,4"/>
<g id="clust1" class="cluster">
<title>clusterdir_68267d1309a1af8e8297ef4c3efbcdba</title>
<g id="a_clust1"><a xlink:href="dir_68267d1309a1af8e8297ef4c3efbcdba.html" target="_top">
<polygon fill="#eeeeff" stroke="black" points="8,-8 8,-348 400,-348 400,-8 8,-8"/>
</a>
</g>
</g>
<!-- dir_68267d1309a1af8e8297ef4c3efbcdba -->
<g id="node1" class="node">
<title>dir_68267d1309a1af8e8297ef4c3efbcdba</title>
<text text-anchor="middle" x="345" y="-319.5" font-family="Helvetica,sans-Serif" font-size="10.00">src</text>
</g>
<!-- dir_17dd1609571feee8469e465ffa40a219 -->
<g id="node2" class="node">
<title>dir_17dd1609571feee8469e465ffa40a219</title>
<g id="a_node2"><a xlink:href="dir_17dd1609571feee8469e465ffa40a219.html" target="_top" xlink:title="AssetManager">
<polygon fill="white" stroke="black" points="305,-52 219,-52 219,-16 305,-16 305,-52"/>
<text text-anchor="middle" x="262" y="-31.5" font-family="Helvetica,sans-Serif" font-size="10.00">AssetManager</text>
</a>
</g>
</g>
<!-- dir_c610c8504d46288da7634b3c0b18263f -->
<g id="node3" class="node">
<title>dir_c610c8504d46288da7634b3c0b18263f</title>
<g id="a_node3"><a xlink:href="dir_c610c8504d46288da7634b3c0b18263f.html" target="_top" xlink:title="Components">
<polygon fill="white" stroke="black" points="94,-124 16,-124 16,-88 94,-88 94,-124"/>
<text text-anchor="middle" x="55" y="-103.5" font-family="Helvetica,sans-Serif" font-size="10.00">Components</text>
</a>
</g>
</g>
<!-- dir_c610c8504d46288da7634b3c0b18263f&#45;&gt;dir_17dd1609571feee8469e465ffa40a219 -->
<g id="edge1" class="edge">
<title>dir_c610c8504d46288da7634b3c0b18263f&#45;&gt;dir_17dd1609571feee8469e465ffa40a219</title>
<path fill="none" stroke="black" d="M94.01,-91.12C97.05,-90.05 100.07,-89.01 103,-88 138.26,-75.88 178.05,-62.62 209.01,-52.39"/>
<polygon fill="black" stroke="black" points="210.34,-55.64 218.74,-49.18 208.14,-48.99 210.34,-55.64"/>
<g id="a_edge1&#45;headlabel"><a xlink:href="dir_000004_000003.html" target="_top" xlink:title="3">
<text text-anchor="middle" x="207.81" y="-56.96" font-family="Helvetica,sans-Serif" font-size="10.00">3</text>
</a>
</g>
</g>
<!-- dir_b1a122bf62c958266ec5bf64d14fde5a -->
<g id="node4" class="node">
<title>dir_b1a122bf62c958266ec5bf64d14fde5a</title>
<g id="a_node4"><a xlink:href="dir_b1a122bf62c958266ec5bf64d14fde5a.html" target="_top" xlink:title="ECS">
<polygon fill="white" stroke="black" points="166,-124 112,-124 112,-88 166,-88 166,-124"/>
<text text-anchor="middle" x="139" y="-103.5" font-family="Helvetica,sans-Serif" font-size="10.00">ECS</text>
</a>
</g>
</g>
<!-- dir_6aed981759055a22f0901385cc3ba5db -->
<g id="node5" class="node">
<title>dir_6aed981759055a22f0901385cc3ba5db</title>
<g id="a_node5"><a xlink:href="dir_6aed981759055a22f0901385cc3ba5db.html" target="_top" xlink:title="InputManager">
<polygon fill="white" stroke="black" points="288,-124 204,-124 204,-88 288,-88 288,-124"/>
<text text-anchor="middle" x="246" y="-103.5" font-family="Helvetica,sans-Serif" font-size="10.00">InputManager</text>
</a>
</g>
</g>
<!-- dir_d4e015951b263415729819c1a4b61808 -->
<g id="node6" class="node">
<title>dir_d4e015951b263415729819c1a4b61808</title>
<g id="a_node6"><a xlink:href="dir_d4e015951b263415729819c1a4b61808.html" target="_top" xlink:title="Rendering">
<polygon fill="white" stroke="black" points="372,-124 306,-124 306,-88 372,-88 372,-124"/>
<text text-anchor="middle" x="339" y="-103.5" font-family="Helvetica,sans-Serif" font-size="10.00">Rendering</text>
</a>
</g>
</g>
<!-- dir_d4e015951b263415729819c1a4b61808&#45;&gt;dir_17dd1609571feee8469e465ffa40a219 -->
<g id="edge5" class="edge">
<title>dir_d4e015951b263415729819c1a4b61808&#45;&gt;dir_17dd1609571feee8469e465ffa40a219</title>
<path fill="none" stroke="black" d="M319.97,-87.7C310.46,-79.05 298.79,-68.45 288.43,-59.03"/>
<polygon fill="black" stroke="black" points="290.57,-56.24 280.81,-52.1 285.86,-61.42 290.57,-56.24"/>
<g id="a_edge5&#45;headlabel"><a xlink:href="dir_000007_000003.html" target="_top" xlink:title="1">
<text text-anchor="middle" x="295.14" y="-54.06" font-family="Helvetica,sans-Serif" font-size="10.00">1</text>
</a>
</g>
</g>
<!-- dir_336443d5468dfc2bb33128b4e5b96f42 -->
<g id="node7" class="node">
<title>dir_336443d5468dfc2bb33128b4e5b96f42</title>
<g id="a_node7"><a xlink:href="dir_336443d5468dfc2bb33128b4e5b96f42.html" target="_top" xlink:title="Runtime">
<polygon fill="white" stroke="black" points="231,-268 173,-268 173,-232 231,-232 231,-268"/>
<text text-anchor="middle" x="202" y="-247.5" font-family="Helvetica,sans-Serif" font-size="10.00">Runtime</text>
</a>
</g>
</g>
<!-- dir_336443d5468dfc2bb33128b4e5b96f42&#45;&gt;dir_b1a122bf62c958266ec5bf64d14fde5a -->
<g id="edge4" class="edge">
<title>dir_336443d5468dfc2bb33128b4e5b96f42&#45;&gt;dir_b1a122bf62c958266ec5bf64d14fde5a</title>
<path fill="none" stroke="black" d="M181.74,-231.84C171.82,-222.3 160.61,-209.63 154,-196 144.63,-176.67 140.99,-152.52 139.64,-134.26"/>
<polygon fill="black" stroke="black" points="143.13,-134.05 139.08,-124.26 136.14,-134.44 143.13,-134.05"/>
<g id="a_edge4&#45;headlabel"><a xlink:href="dir_000008_000005.html" target="_top" xlink:title="1">
<text text-anchor="middle" x="146.17" y="-134.98" font-family="Helvetica,sans-Serif" font-size="10.00">1</text>
</a>
</g>
</g>
<!-- dir_336443d5468dfc2bb33128b4e5b96f42&#45;&gt;dir_6aed981759055a22f0901385cc3ba5db -->
<g id="edge2" class="edge">
<title>dir_336443d5468dfc2bb33128b4e5b96f42&#45;&gt;dir_6aed981759055a22f0901385cc3ba5db</title>
<path fill="none" stroke="black" d="M213.49,-231.54C219.58,-221.52 226.67,-208.49 231,-196 237.96,-175.92 241.76,-152.14 243.79,-134.21"/>
<polygon fill="black" stroke="black" points="247.28,-134.45 244.81,-124.15 240.32,-133.74 247.28,-134.45"/>
<g id="a_edge2&#45;headlabel"><a xlink:href="dir_000008_000006.html" target="_top" xlink:title="1">
<text text-anchor="middle" x="249.74" y="-135.82" font-family="Helvetica,sans-Serif" font-size="10.00">1</text>
</a>
</g>
</g>
<!-- dir_900c20bb70493231141df6997ccd6b87 -->
<g id="node8" class="node">
<title>dir_900c20bb70493231141df6997ccd6b87</title>
<g id="a_node8"><a xlink:href="dir_900c20bb70493231141df6997ccd6b87.html" target="_top" xlink:title="Systems">
<polygon fill="white" stroke="black" points="221.5,-196 162.5,-196 162.5,-160 221.5,-160 221.5,-196"/>
<text text-anchor="middle" x="192" y="-175.5" font-family="Helvetica,sans-Serif" font-size="10.00">Systems</text>
</a>
</g>
</g>
<!-- dir_336443d5468dfc2bb33128b4e5b96f42&#45;&gt;dir_900c20bb70493231141df6997ccd6b87 -->
<g id="edge3" class="edge">
<title>dir_336443d5468dfc2bb33128b4e5b96f42&#45;&gt;dir_900c20bb70493231141df6997ccd6b87</title>
<path fill="none" stroke="black" d="M199.53,-231.7C198.43,-223.98 197.1,-214.71 195.87,-206.11"/>
<polygon fill="black" stroke="black" points="199.32,-205.51 194.44,-196.1 192.39,-206.5 199.32,-205.51"/>
<g id="a_edge3&#45;headlabel"><a xlink:href="dir_000008_000009.html" target="_top" xlink:title="4">
<text text-anchor="middle" x="202.64" y="-206.17" font-family="Helvetica,sans-Serif" font-size="10.00">4</text>
</a>
</g>
</g>
<!-- dir_900c20bb70493231141df6997ccd6b87&#45;&gt;dir_17dd1609571feee8469e465ffa40a219 -->
<g id="edge6" class="edge">
<title>dir_900c20bb70493231141df6997ccd6b87&#45;&gt;dir_17dd1609571feee8469e465ffa40a219</title>
<path fill="none" stroke="black" d="M188.51,-159.89C185.58,-141.16 183.5,-110.77 195,-88 200.96,-76.2 210.9,-66.18 221.32,-58.15"/>
<polygon fill="black" stroke="black" points="223.62,-60.8 229.71,-52.13 219.54,-55.11 223.62,-60.8"/>
<g id="a_edge6&#45;headlabel"><a xlink:href="dir_000009_000003.html" target="_top" xlink:title="3">
<text text-anchor="middle" x="222.35" y="-62.71" font-family="Helvetica,sans-Serif" font-size="10.00">3</text>
</a>
</g>
</g>
<!-- dir_900c20bb70493231141df6997ccd6b87&#45;&gt;dir_c610c8504d46288da7634b3c0b18263f -->
<g id="edge9" class="edge">
<title>dir_900c20bb70493231141df6997ccd6b87&#45;&gt;dir_c610c8504d46288da7634b3c0b18263f</title>
<path fill="none" stroke="black" d="M162.27,-161.81C143.35,-152.14 118.55,-139.47 97.56,-128.74"/>
<polygon fill="black" stroke="black" points="99.02,-125.56 88.52,-124.13 95.83,-131.79 99.02,-125.56"/>
<g id="a_edge9&#45;headlabel"><a xlink:href="dir_000009_000004.html" target="_top" xlink:title="9">
<text text-anchor="middle" x="103.51" y="-122.17" font-family="Helvetica,sans-Serif" font-size="10.00">9</text>
</a>
</g>
</g>
<!-- dir_900c20bb70493231141df6997ccd6b87&#45;&gt;dir_b1a122bf62c958266ec5bf64d14fde5a -->
<g id="edge8" class="edge">
<title>dir_900c20bb70493231141df6997ccd6b87&#45;&gt;dir_b1a122bf62c958266ec5bf64d14fde5a</title>
<path fill="none" stroke="black" d="M178.9,-159.7C172.61,-151.39 164.95,-141.28 158.04,-132.14"/>
<polygon fill="black" stroke="black" points="160.78,-129.96 151.95,-124.1 155.2,-134.19 160.78,-129.96"/>
<g id="a_edge8&#45;headlabel"><a xlink:href="dir_000009_000005.html" target="_top" xlink:title="4">
<text text-anchor="middle" x="165.21" y="-128.62" font-family="Helvetica,sans-Serif" font-size="10.00">4</text>
</a>
</g>
</g>
<!-- dir_900c20bb70493231141df6997ccd6b87&#45;&gt;dir_6aed981759055a22f0901385cc3ba5db -->
<g id="edge7" class="edge">
<title>dir_900c20bb70493231141df6997ccd6b87&#45;&gt;dir_6aed981759055a22f0901385cc3ba5db</title>
<path fill="none" stroke="black" d="M205.35,-159.7C211.76,-151.39 219.56,-141.28 226.61,-132.14"/>
<polygon fill="black" stroke="black" points="229.47,-134.16 232.81,-124.1 223.93,-129.88 229.47,-134.16"/>
<g id="a_edge7&#45;headlabel"><a xlink:href="dir_000009_000006.html" target="_top" xlink:title="1">
<text text-anchor="middle" x="229.52" y="-136.24" font-family="Helvetica,sans-Serif" font-size="10.00">1</text>
</a>
</g>
</g>
<!-- dir_900c20bb70493231141df6997ccd6b87&#45;&gt;dir_d4e015951b263415729819c1a4b61808 -->
<g id="edge10" class="edge">
<title>dir_900c20bb70493231141df6997ccd6b87&#45;&gt;dir_d4e015951b263415729819c1a4b61808</title>
<path fill="none" stroke="black" d="M221.75,-162.83C243.3,-152.57 272.74,-138.55 296.73,-127.13"/>
<polygon fill="black" stroke="black" points="298.44,-130.19 305.97,-122.73 295.43,-123.87 298.44,-130.19"/>
<g id="a_edge10&#45;headlabel"><a xlink:href="dir_000009_000007.html" target="_top" xlink:title="2">
<text text-anchor="middle" x="296.42" y="-131.8" font-family="Helvetica,sans-Serif" font-size="10.00">2</text>
</a>
</g>
</g>
<!-- dir_da5c6b39c0a2f54e57df6799511cd3ab -->
<g id="node9" class="node">
<title>dir_da5c6b39c0a2f54e57df6799511cd3ab</title>
<g id="a_node9"><a xlink:href="dir_da5c6b39c0a2f54e57df6799511cd3ab.html" target="_top" xlink:title="ui">
<polygon fill="white" stroke="red" points="248,-340 194,-340 194,-304 248,-304 248,-340"/>
<text text-anchor="middle" x="221" y="-319.5" font-family="Helvetica,sans-Serif" font-size="10.00">ui</text>
</a>
</g>
</g>
<!-- dir_da5c6b39c0a2f54e57df6799511cd3ab&#45;&gt;dir_17dd1609571feee8469e465ffa40a219 -->
<g id="edge11" class="edge">
<title>dir_da5c6b39c0a2f54e57df6799511cd3ab&#45;&gt;dir_17dd1609571feee8469e465ffa40a219</title>
<path fill="none" stroke="black" d="M242.16,-303.97C278.9,-272.85 353.23,-202.74 381,-124 386.32,-108.91 389.71,-101.42 381,-88 366.33,-65.41 339.56,-52.37 315.12,-44.88"/>
<polygon fill="black" stroke="black" points="315.76,-41.42 305.18,-42.09 313.86,-48.16 315.76,-41.42"/>
<g id="a_edge11&#45;headlabel"><a xlink:href="dir_000010_000003.html" target="_top" xlink:title="16">
<text text-anchor="middle" x="319.99" y="-37.16" font-family="Helvetica,sans-Serif" font-size="10.00">16</text>
</a>
</g>
</g>
<!-- dir_da5c6b39c0a2f54e57df6799511cd3ab&#45;&gt;dir_c610c8504d46288da7634b3c0b18263f -->
<g id="edge14" class="edge">
<title>dir_da5c6b39c0a2f54e57df6799511cd3ab&#45;&gt;dir_c610c8504d46288da7634b3c0b18263f</title>
<path fill="none" stroke="black" d="M193.67,-307.1C177.21,-297.72 156.66,-284.13 142,-268 105.01,-227.3 78.27,-168.03 64.83,-133.91"/>
<polygon fill="black" stroke="black" points="67.94,-132.26 61.08,-124.18 61.41,-134.77 67.94,-132.26"/>
<g id="a_edge14&#45;headlabel"><a xlink:href="dir_000010_000004.html" target="_top" xlink:title="12">
<text text-anchor="middle" x="71.88" y="-132.1" font-family="Helvetica,sans-Serif" font-size="10.00">12</text>
</a>
</g>
</g>
<!-- dir_da5c6b39c0a2f54e57df6799511cd3ab&#45;&gt;dir_b1a122bf62c958266ec5bf64d14fde5a -->
<g id="edge13" class="edge">
<title>dir_da5c6b39c0a2f54e57df6799511cd3ab&#45;&gt;dir_b1a122bf62c958266ec5bf64d14fde5a</title>
<path fill="none" stroke="black" d="M197.9,-303.99C186.37,-294.49 173.01,-281.81 164,-268 145.49,-239.63 144.63,-229.4 139,-196 135.55,-175.56 135.72,-152.1 136.66,-134.4"/>
<polygon fill="black" stroke="black" points="140.16,-134.41 137.32,-124.2 133.18,-133.96 140.16,-134.41"/>
<g id="a_edge13&#45;headlabel"><a xlink:href="dir_000010_000005.html" target="_top" xlink:title="3">
<text text-anchor="middle" x="142.77" y="-135.68" font-family="Helvetica,sans-Serif" font-size="10.00">3</text>
</a>
</g>
</g>
<!-- dir_da5c6b39c0a2f54e57df6799511cd3ab&#45;&gt;dir_6aed981759055a22f0901385cc3ba5db -->
<g id="edge12" class="edge">
<title>dir_da5c6b39c0a2f54e57df6799511cd3ab&#45;&gt;dir_6aed981759055a22f0901385cc3ba5db</title>
<path fill="none" stroke="black" d="M228.72,-303.71C232.88,-293.53 237.63,-280.28 240,-268 248.96,-221.61 248.71,-166.35 247.5,-134.12"/>
<polygon fill="black" stroke="black" points="251,-133.95 247.07,-124.12 244,-134.26 251,-133.95"/>
<g id="a_edge12&#45;headlabel"><a xlink:href="dir_000010_000006.html" target="_top" xlink:title="1">
<text text-anchor="middle" x="253.99" y="-134.92" font-family="Helvetica,sans-Serif" font-size="10.00">1</text>
</a>
</g>
</g>
<!-- dir_da5c6b39c0a2f54e57df6799511cd3ab&#45;&gt;dir_d4e015951b263415729819c1a4b61808 -->
<g id="edge15" class="edge">
<title>dir_da5c6b39c0a2f54e57df6799511cd3ab&#45;&gt;dir_d4e015951b263415729819c1a4b61808</title>
<path fill="none" stroke="black" d="M230.46,-303.85C251.04,-266.52 300.02,-177.69 324.52,-133.26"/>
<polygon fill="black" stroke="black" points="327.73,-134.68 329.5,-124.23 321.6,-131.3 327.73,-134.68"/>
<g id="a_edge15&#45;headlabel"><a xlink:href="dir_000010_000007.html" target="_top" xlink:title="1">
<text text-anchor="middle" x="328.48" y="-136.7" font-family="Helvetica,sans-Serif" font-size="10.00">1</text>
</a>
</g>
</g>
<!-- dir_da5c6b39c0a2f54e57df6799511cd3ab&#45;&gt;dir_336443d5468dfc2bb33128b4e5b96f42 -->
<g id="edge16" class="edge">
<title>dir_da5c6b39c0a2f54e57df6799511cd3ab&#45;&gt;dir_336443d5468dfc2bb33128b4e5b96f42</title>
<path fill="none" stroke="black" d="M216.3,-303.7C214.19,-295.9 211.64,-286.51 209.28,-277.83"/>
<polygon fill="black" stroke="black" points="212.64,-276.84 206.64,-268.1 205.88,-278.67 212.64,-276.84"/>
<g id="a_edge16&#45;headlabel"><a xlink:href="dir_000010_000008.html" target="_top" xlink:title="1">
<text text-anchor="middle" x="216.32" y="-277.06" font-family="Helvetica,sans-Serif" font-size="10.00">1</text>
</a>
</g>
</g>
</g>
</svg>
