<?xml version="1.0" encoding="UTF-8" standalone="no"?>
<!DOCTYPE svg PUBLIC "-//W3C//DTD SVG 1.1//EN"
 "http://www.w3.org/Graphics/SVG/1.1/DTD/svg11.dtd">
<!-- Generated by graphviz version 2.43.0 (0)
 -->
<!-- Title: src/ui/Components Pages: 1 -->
<svg width="177pt" height="223pt"
 viewBox="0.00 0.00 177.00 223.00" xmlns="http://www.w3.org/2000/svg" xmlns:xlink="http://www.w3.org/1999/xlink">
<g id="graph0" class="graph" transform="scale(1 1) rotate(0) translate(4 219)">
<title>src/ui/Components</title>
<polygon fill="white" stroke="transparent" points="-4,4 -4,-219 173,-219 173,4 -4,4"/>
<g id="clust1" class="cluster">
<title>clusterdir_da5c6b39c0a2f54e57df6799511cd3ab</title>
<g id="a_clust1"><a xlink:href="dir_da5c6b39c0a2f54e57df6799511cd3ab.html" target="_top" xlink:title="ui">
<polygon fill="#ddddee" stroke="black" points="40,-136 40,-207 134,-207 134,-136 40,-136"/>
<text text-anchor="middle" x="87" y="-195" font-family="Helvetica,sans-Serif" font-size="10.00">ui</text>
</a>
</g>
</g>
<!-- dir_03b2673553046158dff6b880fc282c90 -->
<g id="node1" class="node">
<title>dir_03b2673553046158dff6b880fc282c90</title>
<g id="a_node1"><a xlink:href="dir_03b2673553046158dff6b880fc282c90.html" target="_top" xlink:title="Components">
<polygon fill="#eeeeff" stroke="black" points="126,-180 48,-180 48,-144 126,-144 126,-180"/>
<text text-anchor="middle" x="87" y="-159.5" font-family="Helvetica,sans-Serif" font-size="10.00">Components</text>
</a>
</g>
</g>
<!-- dir_17dd1609571feee8469e465ffa40a219 -->
<g id="node2" class="node">
<title>dir_17dd1609571feee8469e465ffa40a219</title>
<g id="a_node2"><a xlink:href="dir_17dd1609571feee8469e465ffa40a219.html" target="_top" xlink:title="AssetManager">
<polygon fill="none" stroke="black" points="86,-36 0,-36 0,0 86,0 86,-36"/>
<text text-anchor="middle" x="43" y="-15.5" font-family="Helvetica,sans-Serif" font-size="10.00">AssetManager</text>
</a>
</g>
</g>
<!-- dir_03b2673553046158dff6b880fc282c90&#45;&gt;dir_17dd1609571feee8469e465ffa40a219 -->
<g id="edge3" class="edge">
<title>dir_03b2673553046158dff6b880fc282c90&#45;&gt;dir_17dd1609571feee8469e465ffa40a219</title>
<path fill="none" stroke="black" d="M65.29,-143.79C55.24,-134.41 44.36,-121.9 39,-108 31.37,-88.22 33.06,-64.1 36.28,-45.96"/>
<polygon fill="black" stroke="black" points="39.73,-46.55 38.29,-36.05 32.87,-45.16 39.73,-46.55"/>
<g id="a_edge3&#45;headlabel"><a xlink:href="dir_000015_000003.html" target="_top" xlink:title="10">
<text text-anchor="middle" x="41.8" y="-48.13" font-family="Helvetica,sans-Serif" font-size="10.00">10</text>
</a>
</g>
</g>
<!-- dir_b1a122bf62c958266ec5bf64d14fde5a -->
<g id="node3" class="node">
<title>dir_b1a122bf62c958266ec5bf64d14fde5a</title>
<g id="a_node3"><a xlink:href="dir_b1a122bf62c958266ec5bf64d14fde5a.html" target="_top" xlink:title="ECS">
<polygon fill="none" stroke="black" points="169,-36 115,-36 115,0 169,0 169,-36"/>
<text text-anchor="middle" x="142" y="-15.5" font-family="Helvetica,sans-Serif" font-size="10.00">ECS</text>
</a>
</g>
</g>
<!-- dir_03b2673553046158dff6b880fc282c90&#45;&gt;dir_b1a122bf62c958266ec5bf64d14fde5a -->
<g id="edge4" class="edge">
<title>dir_03b2673553046158dff6b880fc282c90&#45;&gt;dir_b1a122bf62c958266ec5bf64d14fde5a</title>
<path fill="none" stroke="black" d="M108.25,-143.6C118.18,-134.18 129.1,-121.68 135,-108 143.38,-88.58 144.81,-64.58 144.33,-46.39"/>
<polygon fill="black" stroke="black" points="147.81,-46 143.84,-36.18 140.82,-46.33 147.81,-46"/>
<g id="a_edge4&#45;headlabel"><a xlink:href="dir_000015_000006.html" target="_top" xlink:title="1">
<text text-anchor="middle" x="150.82" y="-46.96" font-family="Helvetica,sans-Serif" font-size="10.00">1</text>
</a>
</g>
</g>
<!-- dir_c610c8504d46288da7634b3c0b18263f -->
<g id="node4" class="node">
<title>dir_c610c8504d46288da7634b3c0b18263f</title>
<g id="a_node4"><a xlink:href="dir_c610c8504d46288da7634b3c0b18263f.html" target="_top" xlink:title="Components">
<polygon fill="none" stroke="black" points="126,-108 48,-108 48,-72 126,-72 126,-108"/>
<text text-anchor="middle" x="87" y="-87.5" font-family="Helvetica,sans-Serif" font-size="10.00">Components</text>
</a>
</g>
</g>
<!-- dir_03b2673553046158dff6b880fc282c90&#45;&gt;dir_c610c8504d46288da7634b3c0b18263f -->
<g id="edge5" class="edge">
<title>dir_03b2673553046158dff6b880fc282c90&#45;&gt;dir_c610c8504d46288da7634b3c0b18263f</title>
<path fill="none" stroke="black" d="M87,-143.7C87,-135.98 87,-126.71 87,-118.11"/>
<polygon fill="black" stroke="black" points="90.5,-118.1 87,-108.1 83.5,-118.1 90.5,-118.1"/>
<g id="a_edge5&#45;headlabel"><a xlink:href="dir_000015_000005.html" target="_top" xlink:title="7">
<text text-anchor="middle" x="93.34" y="-119.2" font-family="Helvetica,sans-Serif" font-size="10.00">7</text>
</a>
</g>
</g>
<!-- dir_c610c8504d46288da7634b3c0b18263f&#45;&gt;dir_17dd1609571feee8469e465ffa40a219 -->
<g id="edge1" class="edge">
<title>dir_c610c8504d46288da7634b3c0b18263f&#45;&gt;dir_17dd1609571feee8469e465ffa40a219</title>
<path fill="none" stroke="black" d="M76.12,-71.7C71.01,-63.56 64.8,-53.69 59.16,-44.7"/>
<polygon fill="black" stroke="black" points="62.04,-42.71 53.75,-36.1 56.11,-46.43 62.04,-42.71"/>
<g id="a_edge1&#45;headlabel"><a xlink:href="dir_000005_000003.html" target="_top" xlink:title="3">
<text text-anchor="middle" x="66.35" y="-41.74" font-family="Helvetica,sans-Serif" font-size="10.00">3</text>
</a>
</g>
</g>
<!-- dir_c610c8504d46288da7634b3c0b18263f&#45;&gt;dir_b1a122bf62c958266ec5bf64d14fde5a -->
<g id="edge2" class="edge">
<title>dir_c610c8504d46288da7634b3c0b18263f&#45;&gt;dir_b1a122bf62c958266ec5bf64d14fde5a</title>
<path fill="none" stroke="black" d="M100.6,-71.7C107.12,-63.39 115.07,-53.28 122.25,-44.14"/>
<polygon fill="black" stroke="black" points="125.13,-46.13 128.56,-36.1 119.63,-41.81 125.13,-46.13"/>
<g id="a_edge2&#45;headlabel"><a xlink:href="dir_000005_000006.html" target="_top" xlink:title="1">
<text text-anchor="middle" x="125.15" y="-48.21" font-family="Helvetica,sans-Serif" font-size="10.00">1</text>
</a>
</g>
</g>
</g>
</svg>
