<?xml version="1.0" encoding="UTF-8" standalone="no"?>
<!DOCTYPE svg PUBLIC "-//W3C//DTD SVG 1.1//EN"
 "http://www.w3.org/Graphics/SVG/1.1/DTD/svg11.dtd">
<!-- Generated by graphviz version 2.43.0 (0)
 -->
<!-- Title: src Pages: 1 -->
<svg width="170pt" height="292pt"
 viewBox="0.00 0.00 170.00 292.00" xmlns="http://www.w3.org/2000/svg" xmlns:xlink="http://www.w3.org/1999/xlink">
<g id="graph0" class="graph" transform="scale(1 1) rotate(0) translate(4 288)">
<title>src</title>
<polygon fill="white" stroke="transparent" points="-4,4 -4,-288 166,-288 166,4 -4,4"/>
<g id="clust1" class="cluster">
<title>clusterdir_68267d1309a1af8e8297ef4c3efbcdba</title>
<g id="a_clust1"><a xlink:href="dir_68267d1309a1af8e8297ef4c3efbcdba.html" target="_top">
<polygon fill="#eeeeff" stroke="black" points="8,-8 8,-276 154,-276 154,-8 8,-8"/>
</a>
</g>
</g>
<!-- dir_68267d1309a1af8e8297ef4c3efbcdba -->
<g id="node1" class="node">
<title>dir_68267d1309a1af8e8297ef4c3efbcdba</title>
<text text-anchor="middle" x="119" y="-247.5" font-family="Helvetica,sans-Serif" font-size="10.00">src</text>
</g>
<!-- dir_aebb8dcc11953d78e620bbef0b9e2183 -->
<g id="node2" class="node">
<title>dir_aebb8dcc11953d78e620bbef0b9e2183</title>
<g id="a_node2"><a xlink:href="dir_aebb8dcc11953d78e620bbef0b9e2183.html" target="_top" xlink:title="core">
<polygon fill="white" stroke="black" points="70,-52 16,-52 16,-16 70,-16 70,-52"/>
<text text-anchor="middle" x="43" y="-31.5" font-family="Helvetica,sans-Serif" font-size="10.00">core</text>
</a>
</g>
</g>
<!-- dir_1699be727a800b1d059c6f7f2b91d2ee -->
<g id="node3" class="node">
<title>dir_1699be727a800b1d059c6f7f2b91d2ee</title>
<g id="a_node3"><a xlink:href="dir_1699be727a800b1d059c6f7f2b91d2ee.html" target="_top" xlink:title="game">
<polygon fill="white" stroke="red" points="74,-268 20,-268 20,-232 74,-232 74,-268"/>
<text text-anchor="middle" x="47" y="-247.5" font-family="Helvetica,sans-Serif" font-size="10.00">game</text>
</a>
</g>
</g>
<!-- dir_1699be727a800b1d059c6f7f2b91d2ee&#45;&gt;dir_aebb8dcc11953d78e620bbef0b9e2183 -->
<g id="edge5" class="edge">
<title>dir_1699be727a800b1d059c6f7f2b91d2ee&#45;&gt;dir_aebb8dcc11953d78e620bbef0b9e2183</title>
<path fill="none" stroke="black" d="M42.87,-231.59C36.39,-202.05 25.16,-140.2 31,-88 31.96,-79.43 33.76,-70.22 35.69,-61.93"/>
<polygon fill="black" stroke="black" points="39.13,-62.57 38.13,-52.02 32.34,-60.89 39.13,-62.57"/>
<g id="a_edge5&#45;headlabel"><a xlink:href="dir_000004_000003.html" target="_top" xlink:title="2">
<text text-anchor="middle" x="41.03" y="-64.24" font-family="Helvetica,sans-Serif" font-size="10.00">2</text>
</a>
</g>
</g>
<!-- dir_5c0d64f70903e893b1efe571a4b8de29 -->
<g id="node4" class="node">
<title>dir_5c0d64f70903e893b1efe571a4b8de29</title>
<g id="a_node4"><a xlink:href="dir_5c0d64f70903e893b1efe571a4b8de29.html" target="_top" xlink:title="python">
<polygon fill="white" stroke="red" points="114,-196 60,-196 60,-160 114,-160 114,-196"/>
<text text-anchor="middle" x="87" y="-175.5" font-family="Helvetica,sans-Serif" font-size="10.00">python</text>
</a>
</g>
</g>
<!-- dir_1699be727a800b1d059c6f7f2b91d2ee&#45;&gt;dir_5c0d64f70903e893b1efe571a4b8de29 -->
<g id="edge4" class="edge">
<title>dir_1699be727a800b1d059c6f7f2b91d2ee&#45;&gt;dir_5c0d64f70903e893b1efe571a4b8de29</title>
<path fill="none" stroke="black" d="M50.97,-231.7C54.78,-223.56 60.22,-213.69 65.78,-204.7"/>
<polygon fill="black" stroke="black" points="68.85,-206.4 71.33,-196.1 62.97,-202.61 68.85,-206.4"/>
<g id="a_edge4&#45;headlabel"><a xlink:href="dir_000004_000006.html" target="_top" xlink:title="1">
<text text-anchor="middle" x="69.28" y="-208.46" font-family="Helvetica,sans-Serif" font-size="10.00">1</text>
</a>
</g>
</g>
<!-- dir_5c0d64f70903e893b1efe571a4b8de29&#45;&gt;dir_1699be727a800b1d059c6f7f2b91d2ee -->
<g id="edge1" class="edge">
<title>dir_5c0d64f70903e893b1efe571a4b8de29&#45;&gt;dir_1699be727a800b1d059c6f7f2b91d2ee</title>
<path fill="none" stroke="black" d="M83.12,-196.1C79.34,-204.21 73.92,-214.08 68.36,-223.08"/>
<polygon fill="black" stroke="black" points="65.28,-221.39 62.8,-231.7 71.16,-225.19 65.28,-221.39"/>
<g id="a_edge1&#45;headlabel"><a xlink:href="dir_000006_000004.html" target="_top" xlink:title="3">
<text text-anchor="middle" x="64.84" y="-214.34" font-family="Helvetica,sans-Serif" font-size="10.00">3</text>
</a>
</g>
</g>
<!-- dir_7bc5e25958a2fb25a8561f3aa0def6c5 -->
<g id="node5" class="node">
<title>dir_7bc5e25958a2fb25a8561f3aa0def6c5</title>
<g id="a_node5"><a xlink:href="dir_7bc5e25958a2fb25a8561f3aa0def6c5.html" target="_top" xlink:title="renderer">
<polygon fill="white" stroke="black" points="146,-52 88,-52 88,-16 146,-16 146,-52"/>
<text text-anchor="middle" x="117" y="-31.5" font-family="Helvetica,sans-Serif" font-size="10.00">renderer</text>
</a>
</g>
</g>
<!-- dir_5c0d64f70903e893b1efe571a4b8de29&#45;&gt;dir_7bc5e25958a2fb25a8561f3aa0def6c5 -->
<g id="edge2" class="edge">
<title>dir_5c0d64f70903e893b1efe571a4b8de29&#45;&gt;dir_7bc5e25958a2fb25a8561f3aa0def6c5</title>
<path fill="none" stroke="black" d="M92.79,-159.97C96.13,-149.66 100.22,-136.18 103,-124 107.67,-103.54 111.29,-80.09 113.68,-62.39"/>
<polygon fill="black" stroke="black" points="117.19,-62.56 115.01,-52.19 110.25,-61.66 117.19,-62.56"/>
<g id="a_edge2&#45;headlabel"><a xlink:href="dir_000006_000009.html" target="_top" xlink:title="2">
<text text-anchor="middle" x="119.54" y="-63.99" font-family="Helvetica,sans-Serif" font-size="10.00">2</text>
</a>
</g>
</g>
<!-- dir_da5c6b39c0a2f54e57df6799511cd3ab -->
<g id="node6" class="node">
<title>dir_da5c6b39c0a2f54e57df6799511cd3ab</title>
<g id="a_node6"><a xlink:href="dir_da5c6b39c0a2f54e57df6799511cd3ab.html" target="_top" xlink:title="ui">
<polygon fill="white" stroke="red" points="94,-124 40,-124 40,-88 94,-88 94,-124"/>
<text text-anchor="middle" x="67" y="-103.5" font-family="Helvetica,sans-Serif" font-size="10.00">ui</text>
</a>
</g>
</g>
<!-- dir_5c0d64f70903e893b1efe571a4b8de29&#45;&gt;dir_da5c6b39c0a2f54e57df6799511cd3ab -->
<g id="edge3" class="edge">
<title>dir_5c0d64f70903e893b1efe571a4b8de29&#45;&gt;dir_da5c6b39c0a2f54e57df6799511cd3ab</title>
<path fill="none" stroke="black" d="M76.14,-159.7C73.14,-151.98 70.27,-142.71 68.15,-134.11"/>
<polygon fill="black" stroke="black" points="71.52,-133.14 65.99,-124.1 64.68,-134.62 71.52,-133.14"/>
<g id="a_edge3&#45;headlabel"><a xlink:href="dir_000006_000010.html" target="_top" xlink:title="1">
<text text-anchor="middle" x="75.06" y="-133.56" font-family="Helvetica,sans-Serif" font-size="10.00">1</text>
</a>
</g>
</g>
<!-- dir_7bc5e25958a2fb25a8561f3aa0def6c5&#45;&gt;dir_1699be727a800b1d059c6f7f2b91d2ee -->
<g id="edge10" class="edge">
<title>dir_7bc5e25958a2fb25a8561f3aa0def6c5&#45;&gt;dir_1699be727a800b1d059c6f7f2b91d2ee</title>
<path fill="none" stroke="black" d="M122.89,-52.19C132.37,-83.02 147.58,-148.88 123,-196 118.37,-204.87 100.32,-217.62 82.96,-228.4"/>
<polygon fill="black" stroke="black" points="80.76,-225.64 74.03,-233.82 84.39,-231.62 80.76,-225.64"/>
<g id="a_edge10&#45;headlabel"><a xlink:href="dir_000009_000004.html" target="_top" xlink:title="1">
<text text-anchor="middle" x="82.36" y="-218.85" font-family="Helvetica,sans-Serif" font-size="10.00">1</text>
</a>
</g>
</g>
<!-- dir_da5c6b39c0a2f54e57df6799511cd3ab&#45;&gt;dir_aebb8dcc11953d78e620bbef0b9e2183 -->
<g id="edge9" class="edge">
<title>dir_da5c6b39c0a2f54e57df6799511cd3ab&#45;&gt;dir_aebb8dcc11953d78e620bbef0b9e2183</title>
<path fill="none" stroke="black" d="M61.07,-87.7C58.39,-79.9 55.17,-70.51 52.2,-61.83"/>
<polygon fill="black" stroke="black" points="55.42,-60.43 48.86,-52.1 48.8,-62.7 55.42,-60.43"/>
<g id="a_edge9&#45;headlabel"><a xlink:href="dir_000010_000003.html" target="_top" xlink:title="9">
<text text-anchor="middle" x="59.27" y="-60.41" font-family="Helvetica,sans-Serif" font-size="10.00">9</text>
</a>
</g>
</g>
<!-- dir_da5c6b39c0a2f54e57df6799511cd3ab&#45;&gt;dir_1699be727a800b1d059c6f7f2b91d2ee -->
<g id="edge6" class="edge">
<title>dir_da5c6b39c0a2f54e57df6799511cd3ab&#45;&gt;dir_1699be727a800b1d059c6f7f2b91d2ee</title>
<path fill="none" stroke="black" d="M60.55,-124.4C57.07,-134.62 53.07,-147.87 51,-160 47.51,-180.45 46.58,-203.91 46.48,-221.61"/>
<polygon fill="black" stroke="black" points="42.98,-221.82 46.52,-231.8 49.98,-221.79 42.98,-221.82"/>
<g id="a_edge6&#45;headlabel"><a xlink:href="dir_000010_000004.html" target="_top" xlink:title="6">
<text text-anchor="middle" x="40.13" y="-215.73" font-family="Helvetica,sans-Serif" font-size="10.00">6</text>
</a>
</g>
</g>
<!-- dir_da5c6b39c0a2f54e57df6799511cd3ab&#45;&gt;dir_5c0d64f70903e893b1efe571a4b8de29 -->
<g id="edge7" class="edge">
<title>dir_da5c6b39c0a2f54e57df6799511cd3ab&#45;&gt;dir_5c0d64f70903e893b1efe571a4b8de29</title>
<path fill="none" stroke="black" d="M77.78,-124.1C80.78,-131.79 83.67,-141.05 85.79,-149.67"/>
<polygon fill="black" stroke="black" points="82.43,-150.67 87.97,-159.7 89.27,-149.18 82.43,-150.67"/>
<g id="a_edge7&#45;headlabel"><a xlink:href="dir_000010_000006.html" target="_top" xlink:title="4">
<text text-anchor="middle" x="78.89" y="-145.26" font-family="Helvetica,sans-Serif" font-size="10.00">4</text>
</a>
</g>
</g>
<!-- dir_da5c6b39c0a2f54e57df6799511cd3ab&#45;&gt;dir_7bc5e25958a2fb25a8561f3aa0def6c5 -->
<g id="edge8" class="edge">
<title>dir_da5c6b39c0a2f54e57df6799511cd3ab&#45;&gt;dir_7bc5e25958a2fb25a8561f3aa0def6c5</title>
<path fill="none" stroke="black" d="M79.36,-87.7C85.23,-79.47 92.37,-69.48 98.84,-60.42"/>
<polygon fill="black" stroke="black" points="101.82,-62.28 104.78,-52.1 96.12,-58.21 101.82,-62.28"/>
<g id="a_edge8&#45;headlabel"><a xlink:href="dir_000010_000009.html" target="_top" xlink:title="2">
<text text-anchor="middle" x="102.04" y="-64.35" font-family="Helvetica,sans-Serif" font-size="10.00">2</text>
</a>
</g>
</g>
</g>
</svg>
