<?xml version="1.0" encoding="UTF-8" standalone="no"?>
<!DOCTYPE svg PUBLIC "-//W3C//DTD SVG 1.1//EN"
 "http://www.w3.org/Graphics/SVG/1.1/DTD/svg11.dtd">
<!-- Generated by graphviz version 2.43.0 (0)
 -->
<!-- Title: src/ui Pages: 1 -->
<svg width="753pt" height="141pt"
 viewBox="0.00 0.00 753.00 141.00" xmlns="http://www.w3.org/2000/svg" xmlns:xlink="http://www.w3.org/1999/xlink">
<g id="graph0" class="graph" transform="scale(1 1) rotate(0) translate(4 137)">
<title>src/ui</title>
<g id="clust1" class="cluster">
<title>clusterdir_68267d1309a1af8e8297ef4c3efbcdba</title>
<g id="a_clust1"><a xlink:href="dir_68267d1309a1af8e8297ef4c3efbcdba.html" target="_top" xlink:title="src">
<polygon fill="#f0d4ff" stroke="#404040" stroke-dasharray="5,2" points="8,-8 8,-125 737,-125 737,-8 8,-8"/>
<text text-anchor="middle" x="372.5" y="-113" font-family="Helvetica,sans-Serif" font-size="10.00">src</text>
</a>
</g>
</g>
<g id="clust2" class="cluster">
<title>clusterdir_da5c6b39c0a2f54e57df6799511cd3ab</title>
<g id="a_clust2"><a xlink:href="dir_da5c6b39c0a2f54e57df6799511cd3ab.html" target="_top">
<polygon fill="#f0d4ff" stroke="#404040" stroke-width="2" points="191,-63 191,-98 486,-98 486,-63 191,-63"/>
</a>
</g>
</g>
<!-- dir_17dd1609571feee8469e465ffa40a219 -->
<g id="node1" class="node">
<title>dir_17dd1609571feee8469e465ffa40a219</title>
<g id="a_node1"><a xlink:href="dir_17dd1609571feee8469e465ffa40a219.html" target="_top" xlink:title="AssetManager">
<polygon fill="#b836ff" stroke="#404040" points="180,-35 94,-35 94,-16 180,-16 180,-35"/>
<text text-anchor="middle" x="137" y="-23" font-family="Helvetica,sans-Serif" font-size="10.00">AssetManager</text>
</a>
</g>
</g>
<!-- dir_6aed981759055a22f0901385cc3ba5db -->
<g id="node2" class="node">
<title>dir_6aed981759055a22f0901385cc3ba5db</title>
<g id="a_node2"><a xlink:href="dir_6aed981759055a22f0901385cc3ba5db.html" target="_top" xlink:title="InputManager">
<polygon fill="#b836ff" stroke="#404040" points="282,-35 198,-35 198,-16 282,-16 282,-35"/>
<text text-anchor="middle" x="240" y="-23" font-family="Helvetica,sans-Serif" font-size="10.00">InputManager</text>
</a>
</g>
</g>
<!-- dir_900c20bb70493231141df6997ccd6b87 -->
<g id="node3" class="node">
<title>dir_900c20bb70493231141df6997ccd6b87</title>
<g id="a_node3"><a xlink:href="dir_900c20bb70493231141df6997ccd6b87.html" target="_top" xlink:title="Systems">
<polygon fill="#b836ff" stroke="#404040" points="75.5,-35 16.5,-35 16.5,-16 75.5,-16 75.5,-35"/>
<text text-anchor="middle" x="46" y="-23" font-family="Helvetica,sans-Serif" font-size="10.00">Systems</text>
</a>
</g>
</g>
<!-- dir_a7363e98f9e0bdd87618633653859815 -->
<g id="node4" class="node">
<title>dir_a7363e98f9e0bdd87618633653859815</title>
<g id="a_node4"><a xlink:href="dir_a7363e98f9e0bdd87618633653859815.html" target="_top" xlink:title="Utils">
<polygon fill="#b836ff" stroke="#404040" points="392.5,-35 353.5,-35 353.5,-16 392.5,-16 392.5,-35"/>
<text text-anchor="middle" x="373" y="-23" font-family="Helvetica,sans-Serif" font-size="10.00">Utils</text>
</a>
</g>
</g>
<!-- dir_b1a122bf62c958266ec5bf64d14fde5a -->
<g id="node5" class="node">
<title>dir_b1a122bf62c958266ec5bf64d14fde5a</title>
<g id="a_node5"><a xlink:href="dir_b1a122bf62c958266ec5bf64d14fde5a.html" target="_top" xlink:title="ECS">
<polygon fill="#b836ff" stroke="#404040" points="335.5,-35 300.5,-35 300.5,-16 335.5,-16 335.5,-35"/>
<text text-anchor="middle" x="318" y="-23" font-family="Helvetica,sans-Serif" font-size="10.00">ECS</text>
</a>
</g>
</g>
<!-- dir_ba210d1fa67db7bee1bb22e0a3c11d9f -->
<g id="node6" class="node">
<title>dir_ba210d1fa67db7bee1bb22e0a3c11d9f</title>
<g id="a_node6"><a xlink:href="dir_ba210d1fa67db7bee1bb22e0a3c11d9f.html" target="_top" xlink:title="Common">
<polygon fill="#b836ff" stroke="#404040" points="568.5,-35 507.5,-35 507.5,-16 568.5,-16 568.5,-35"/>
<text text-anchor="middle" x="538" y="-23" font-family="Helvetica,sans-Serif" font-size="10.00">Common</text>
</a>
</g>
</g>
<!-- dir_c610c8504d46288da7634b3c0b18263f -->
<g id="node7" class="node">
<title>dir_c610c8504d46288da7634b3c0b18263f</title>
<g id="a_node7"><a xlink:href="dir_c610c8504d46288da7634b3c0b18263f.html" target="_top" xlink:title="Components">
<polygon fill="#b836ff" stroke="red" points="489,-35 411,-35 411,-16 489,-16 489,-35"/>
<text text-anchor="middle" x="450" y="-23" font-family="Helvetica,sans-Serif" font-size="10.00">Components</text>
</a>
</g>
</g>
<!-- dir_d4e015951b263415729819c1a4b61808 -->
<g id="node8" class="node">
<title>dir_d4e015951b263415729819c1a4b61808</title>
<g id="a_node8"><a xlink:href="dir_d4e015951b263415729819c1a4b61808.html" target="_top" xlink:title="Rendering">
<polygon fill="#b836ff" stroke="red" points="729,-35 663,-35 663,-16 729,-16 729,-35"/>
<text text-anchor="middle" x="696" y="-23" font-family="Helvetica,sans-Serif" font-size="10.00">Rendering</text>
</a>
</g>
</g>
<!-- dir_336443d5468dfc2bb33128b4e5b96f42 -->
<g id="node9" class="node">
<title>dir_336443d5468dfc2bb33128b4e5b96f42</title>
<g id="a_node9"><a xlink:href="dir_336443d5468dfc2bb33128b4e5b96f42.html" target="_top" xlink:title="Runtime">
<polygon fill="#b836ff" stroke="#404040" points="645,-35 587,-35 587,-16 645,-16 645,-35"/>
<text text-anchor="middle" x="616" y="-23" font-family="Helvetica,sans-Serif" font-size="10.00">Runtime</text>
</a>
</g>
</g>
<!-- dir_da5c6b39c0a2f54e57df6799511cd3ab -->
<g id="node10" class="node">
<title>dir_da5c6b39c0a2f54e57df6799511cd3ab</title>
<text text-anchor="middle" x="214" y="-78" font-family="Helvetica,sans-Serif" font-size="10.00">ui</text>
</g>
<!-- dir_da5c6b39c0a2f54e57df6799511cd3ab&#45;&gt;dir_17dd1609571feee8469e465ffa40a219 -->
<g id="edge1" class="edge">
<title>dir_da5c6b39c0a2f54e57df6799511cd3ab&#45;&gt;dir_17dd1609571feee8469e465ffa40a219</title>
<g id="a_edge1"><a xlink:href="dir_000016_000001.html" target="_top">
<path fill="none" stroke="#63b8ff" d="M201.63,-70.98C189.91,-62.92 172.08,-50.65 158.11,-41.03"/>
<polygon fill="#63b8ff" stroke="#63b8ff" points="159.82,-37.96 149.6,-35.17 155.85,-43.72 159.82,-37.96"/>
</a>
</g>
<g id="a_edge1&#45;headlabel"><a xlink:href="dir_000016_000001.html" target="_top" xlink:title="29">
<text text-anchor="middle" x="164.39" y="-35.16" font-family="Helvetica,sans-Serif" font-size="10.00" fill="#63b8ff">29</text>
</a>
</g>
</g>
<!-- dir_da5c6b39c0a2f54e57df6799511cd3ab&#45;&gt;dir_6aed981759055a22f0901385cc3ba5db -->
<g id="edge2" class="edge">
<title>dir_da5c6b39c0a2f54e57df6799511cd3ab&#45;&gt;dir_6aed981759055a22f0901385cc3ba5db</title>
<g id="a_edge2"><a xlink:href="dir_000016_000009.html" target="_top">
<path fill="none" stroke="#63b8ff" d="M218.29,-70.75C221.81,-63.57 226.91,-53.18 231.28,-44.27"/>
<polygon fill="#63b8ff" stroke="#63b8ff" points="234.52,-45.61 235.79,-35.09 228.24,-42.53 234.52,-45.61"/>
</a>
</g>
<g id="a_edge2&#45;headlabel"><a xlink:href="dir_000016_000009.html" target="_top" xlink:title="3">
<text text-anchor="middle" x="235.49" y="-47.59" font-family="Helvetica,sans-Serif" font-size="10.00" fill="#63b8ff">3</text>
</a>
</g>
</g>
<!-- dir_da5c6b39c0a2f54e57df6799511cd3ab&#45;&gt;dir_900c20bb70493231141df6997ccd6b87 -->
<g id="edge3" class="edge">
<title>dir_da5c6b39c0a2f54e57df6799511cd3ab&#45;&gt;dir_900c20bb70493231141df6997ccd6b87</title>
<g id="a_edge3"><a xlink:href="dir_000016_000014.html" target="_top">
<path fill="none" stroke="#63b8ff" d="M199.38,-74.89C173.63,-66.76 119.42,-49.66 82.85,-38.12"/>
<polygon fill="#63b8ff" stroke="#63b8ff" points="83.63,-34.7 73.04,-35.03 81.52,-41.38 83.63,-34.7"/>
</a>
</g>
<g id="a_edge3&#45;headlabel"><a xlink:href="dir_000016_000014.html" target="_top" xlink:title="2">
<text text-anchor="middle" x="87.91" y="-30.57" font-family="Helvetica,sans-Serif" font-size="10.00" fill="#63b8ff">2</text>
</a>
</g>
</g>
<!-- dir_da5c6b39c0a2f54e57df6799511cd3ab&#45;&gt;dir_a7363e98f9e0bdd87618633653859815 -->
<g id="edge4" class="edge">
<title>dir_da5c6b39c0a2f54e57df6799511cd3ab&#45;&gt;dir_a7363e98f9e0bdd87618633653859815</title>
<g id="a_edge4"><a xlink:href="dir_000016_000017.html" target="_top">
<path fill="none" stroke="#63b8ff" d="M224.75,-70.93C228.73,-68.08 233.4,-65.1 238,-63 279.99,-43.79 295.77,-47.76 343.75,-35.19"/>
<polygon fill="#63b8ff" stroke="#63b8ff" points="344.72,-38.55 353.45,-32.54 342.88,-31.8 344.72,-38.55"/>
</a>
</g>
<g id="a_edge4&#45;headlabel"><a xlink:href="dir_000016_000017.html" target="_top" xlink:title="5">
<text text-anchor="middle" x="342" y="-39.74" font-family="Helvetica,sans-Serif" font-size="10.00" fill="#63b8ff">5</text>
</a>
</g>
</g>
<!-- dir_da5c6b39c0a2f54e57df6799511cd3ab&#45;&gt;dir_b1a122bf62c958266ec5bf64d14fde5a -->
<g id="edge5" class="edge">
<title>dir_da5c6b39c0a2f54e57df6799511cd3ab&#45;&gt;dir_b1a122bf62c958266ec5bf64d14fde5a</title>
<g id="a_edge5"><a xlink:href="dir_000016_000007.html" target="_top">
<path fill="none" stroke="#63b8ff" d="M225.94,-70.68C229.71,-68.07 233.95,-65.29 238,-63 255,-53.38 274.99,-44.25 290.74,-37.53"/>
<polygon fill="#63b8ff" stroke="#63b8ff" points="292.53,-40.58 300.4,-33.49 289.83,-34.12 292.53,-40.58"/>
</a>
</g>
<g id="a_edge5&#45;headlabel"><a xlink:href="dir_000016_000007.html" target="_top" xlink:title="8">
<text text-anchor="middle" x="290.31" y="-42.09" font-family="Helvetica,sans-Serif" font-size="10.00" fill="#63b8ff">8</text>
</a>
</g>
</g>
<!-- dir_d7ad328dce0a2963719b09f0a7b7580e -->
<g id="node11" class="node">
<title>dir_d7ad328dce0a2963719b09f0a7b7580e</title>
<g id="a_node11"><a xlink:href="dir_d7ad328dce0a2963719b09f0a7b7580e.html" target="_top" xlink:title="Common">
<polygon fill="#b836ff" stroke="#404040" points="404.5,-90 343.5,-90 343.5,-71 404.5,-71 404.5,-90"/>
<text text-anchor="middle" x="374" y="-78" font-family="Helvetica,sans-Serif" font-size="10.00">Common</text>
</a>
</g>
</g>
<!-- dir_d7ad328dce0a2963719b09f0a7b7580e&#45;&gt;dir_17dd1609571feee8469e465ffa40a219 -->
<g id="edge6" class="edge">
<title>dir_d7ad328dce0a2963719b09f0a7b7580e&#45;&gt;dir_17dd1609571feee8469e465ffa40a219</title>
<g id="a_edge6"><a xlink:href="dir_000003_000001.html" target="_top">
<path fill="none" stroke="#63b8ff" d="M355.57,-70.96C348.88,-68.11 341.2,-65.13 334,-63 320.37,-58.97 243.82,-45.21 190.27,-35.78"/>
<polygon fill="#63b8ff" stroke="#63b8ff" points="190.68,-32.3 180.22,-34.02 189.47,-39.19 190.68,-32.3"/>
</a>
</g>
<g id="a_edge6&#45;headlabel"><a xlink:href="dir_000003_000001.html" target="_top" xlink:title="4">
<text text-anchor="middle" x="194.71" y="-27.62" font-family="Helvetica,sans-Serif" font-size="10.00" fill="#63b8ff">4</text>
</a>
</g>
</g>
<!-- dir_d7ad328dce0a2963719b09f0a7b7580e&#45;&gt;dir_a7363e98f9e0bdd87618633653859815 -->
<g id="edge7" class="edge">
<title>dir_d7ad328dce0a2963719b09f0a7b7580e&#45;&gt;dir_a7363e98f9e0bdd87618633653859815</title>
<g id="a_edge7"><a xlink:href="dir_000003_000017.html" target="_top">
<path fill="none" stroke="#63b8ff" d="M373.83,-70.75C373.7,-63.8 373.52,-53.85 373.35,-45.13"/>
<polygon fill="#63b8ff" stroke="#63b8ff" points="376.85,-45.02 373.16,-35.09 369.85,-45.15 376.85,-45.02"/>
</a>
</g>
<g id="a_edge7&#45;headlabel"><a xlink:href="dir_000003_000017.html" target="_top" xlink:title="1">
<text text-anchor="middle" x="379.76" y="-46.06" font-family="Helvetica,sans-Serif" font-size="10.00" fill="#63b8ff">1</text>
</a>
</g>
</g>
<!-- dir_d7ad328dce0a2963719b09f0a7b7580e&#45;&gt;dir_b1a122bf62c958266ec5bf64d14fde5a -->
<g id="edge8" class="edge">
<title>dir_d7ad328dce0a2963719b09f0a7b7580e&#45;&gt;dir_b1a122bf62c958266ec5bf64d14fde5a</title>
<g id="a_edge8"><a xlink:href="dir_000003_000007.html" target="_top">
<path fill="none" stroke="#63b8ff" d="M365,-70.98C356.81,-63.23 344.49,-51.58 334.53,-42.14"/>
<polygon fill="#63b8ff" stroke="#63b8ff" points="336.83,-39.5 327.16,-35.17 332.02,-44.59 336.83,-39.5"/>
</a>
</g>
<g id="a_edge8&#45;headlabel"><a xlink:href="dir_000003_000007.html" target="_top" xlink:title="1">
<text text-anchor="middle" x="341.39" y="-37.41" font-family="Helvetica,sans-Serif" font-size="10.00" fill="#63b8ff">1</text>
</a>
</g>
</g>
<!-- dir_d7ad328dce0a2963719b09f0a7b7580e&#45;&gt;dir_ba210d1fa67db7bee1bb22e0a3c11d9f -->
<g id="edge9" class="edge">
<title>dir_d7ad328dce0a2963719b09f0a7b7580e&#45;&gt;dir_ba210d1fa67db7bee1bb22e0a3c11d9f</title>
<g id="a_edge9"><a xlink:href="dir_000003_000002.html" target="_top">
<path fill="none" stroke="#63b8ff" d="M393.78,-70.86C400.18,-68.19 407.34,-65.35 414,-63 441.62,-53.27 473.31,-43.97 497.74,-37.2"/>
<polygon fill="#63b8ff" stroke="#63b8ff" points="498.68,-40.57 507.39,-34.54 496.82,-33.82 498.68,-40.57"/>
</a>
</g>
<g id="a_edge9&#45;headlabel"><a xlink:href="dir_000003_000002.html" target="_top" xlink:title="1">
<text text-anchor="middle" x="495.96" y="-41.76" font-family="Helvetica,sans-Serif" font-size="10.00" fill="#63b8ff">1</text>
</a>
</g>
</g>
<!-- dir_d7ad328dce0a2963719b09f0a7b7580e&#45;&gt;dir_c610c8504d46288da7634b3c0b18263f -->
<g id="edge10" class="edge">
<title>dir_d7ad328dce0a2963719b09f0a7b7580e&#45;&gt;dir_c610c8504d46288da7634b3c0b18263f</title>
<g id="a_edge10"><a xlink:href="dir_000003_000004.html" target="_top">
<path fill="none" stroke="#63b8ff" d="M386.21,-70.98C397.78,-62.92 415.38,-50.65 429.16,-41.03"/>
<polygon fill="#63b8ff" stroke="#63b8ff" points="431.37,-43.76 437.57,-35.17 427.36,-38.02 431.37,-43.76"/>
</a>
</g>
<g id="a_edge10&#45;headlabel"><a xlink:href="dir_000003_000004.html" target="_top" xlink:title="2">
<text text-anchor="middle" x="430.04" y="-45.65" font-family="Helvetica,sans-Serif" font-size="10.00" fill="#63b8ff">2</text>
</a>
</g>
</g>
<!-- dir_03b2673553046158dff6b880fc282c90 -->
<g id="node12" class="node">
<title>dir_03b2673553046158dff6b880fc282c90</title>
<g id="a_node12"><a xlink:href="dir_03b2673553046158dff6b880fc282c90.html" target="_top" xlink:title="Components">
<polygon fill="#b836ff" stroke="#404040" points="325,-90 247,-90 247,-71 325,-71 325,-90"/>
<text text-anchor="middle" x="286" y="-78" font-family="Helvetica,sans-Serif" font-size="10.00">Components</text>
</a>
</g>
</g>
<!-- dir_03b2673553046158dff6b880fc282c90&#45;&gt;dir_17dd1609571feee8469e465ffa40a219 -->
<g id="edge11" class="edge">
<title>dir_03b2673553046158dff6b880fc282c90&#45;&gt;dir_17dd1609571feee8469e465ffa40a219</title>
<g id="a_edge11"><a xlink:href="dir_000005_000001.html" target="_top">
<path fill="none" stroke="#63b8ff" d="M262.06,-70.98C237.44,-62.23 198.88,-48.51 171.08,-38.62"/>
<polygon fill="#63b8ff" stroke="#63b8ff" points="171.97,-35.22 161.38,-35.17 169.62,-41.82 171.97,-35.22"/>
</a>
</g>
<g id="a_edge11&#45;headlabel"><a xlink:href="dir_000005_000001.html" target="_top" xlink:title="11">
<text text-anchor="middle" x="176.31" y="-31.25" font-family="Helvetica,sans-Serif" font-size="10.00" fill="#63b8ff">11</text>
</a>
</g>
</g>
<!-- dir_03b2673553046158dff6b880fc282c90&#45;&gt;dir_b1a122bf62c958266ec5bf64d14fde5a -->
<g id="edge12" class="edge">
<title>dir_03b2673553046158dff6b880fc282c90&#45;&gt;dir_b1a122bf62c958266ec5bf64d14fde5a</title>
<g id="a_edge12"><a xlink:href="dir_000005_000007.html" target="_top">
<path fill="none" stroke="#63b8ff" d="M291.28,-70.75C295.71,-63.42 302.16,-52.73 307.62,-43.7"/>
<polygon fill="#63b8ff" stroke="#63b8ff" points="310.64,-45.46 312.81,-35.09 304.65,-41.84 310.64,-45.46"/>
</a>
</g>
<g id="a_edge12&#45;headlabel"><a xlink:href="dir_000005_000007.html" target="_top" xlink:title="2">
<text text-anchor="middle" x="311.21" y="-47.5" font-family="Helvetica,sans-Serif" font-size="10.00" fill="#63b8ff">2</text>
</a>
</g>
</g>
<!-- dir_03b2673553046158dff6b880fc282c90&#45;&gt;dir_c610c8504d46288da7634b3c0b18263f -->
<g id="edge13" class="edge">
<title>dir_03b2673553046158dff6b880fc282c90&#45;&gt;dir_c610c8504d46288da7634b3c0b18263f</title>
<g id="a_edge13"><a xlink:href="dir_000005_000004.html" target="_top">
<path fill="none" stroke="#63b8ff" d="M311.15,-70.94C318.8,-68.36 327.24,-65.54 335,-63 360.9,-54.53 390.17,-45.24 412.7,-38.16"/>
<polygon fill="#63b8ff" stroke="#63b8ff" points="414.05,-41.4 422.54,-35.07 411.95,-34.72 414.05,-41.4"/>
</a>
</g>
<g id="a_edge13&#45;headlabel"><a xlink:href="dir_000005_000004.html" target="_top" xlink:title="12">
<text text-anchor="middle" x="411.47" y="-42.69" font-family="Helvetica,sans-Serif" font-size="10.00" fill="#63b8ff">12</text>
</a>
</g>
</g>
<!-- dir_f3911b9629b0e27ea480d06d47573cbf -->
<g id="node13" class="node">
<title>dir_f3911b9629b0e27ea480d06d47573cbf</title>
<g id="a_node13"><a xlink:href="dir_f3911b9629b0e27ea480d06d47573cbf.html" target="_top" xlink:title="widgets">
<polygon fill="#b836ff" stroke="#404040" points="477.5,-90 422.5,-90 422.5,-71 477.5,-71 477.5,-90"/>
<text text-anchor="middle" x="450" y="-78" font-family="Helvetica,sans-Serif" font-size="10.00">widgets</text>
</a>
</g>
</g>
<!-- dir_f3911b9629b0e27ea480d06d47573cbf&#45;&gt;dir_17dd1609571feee8469e465ffa40a219 -->
<g id="edge14" class="edge">
<title>dir_f3911b9629b0e27ea480d06d47573cbf&#45;&gt;dir_17dd1609571feee8469e465ffa40a219</title>
<g id="a_edge14"><a xlink:href="dir_000018_000001.html" target="_top">
<path fill="none" stroke="#63b8ff" d="M433.91,-70.85C427.83,-67.92 420.75,-64.92 414,-63 320.09,-36.32 290.58,-48.53 190.06,-35.06"/>
<polygon fill="#63b8ff" stroke="#63b8ff" points="190.5,-31.59 180.11,-33.68 189.53,-38.52 190.5,-31.59"/>
</a>
</g>
<g id="a_edge14&#45;headlabel"><a xlink:href="dir_000018_000001.html" target="_top" xlink:title="12">
<text text-anchor="middle" x="194.45" y="-26.77" font-family="Helvetica,sans-Serif" font-size="10.00" fill="#63b8ff">12</text>
</a>
</g>
</g>
<!-- dir_f3911b9629b0e27ea480d06d47573cbf&#45;&gt;dir_6aed981759055a22f0901385cc3ba5db -->
<g id="edge16" class="edge">
<title>dir_f3911b9629b0e27ea480d06d47573cbf&#45;&gt;dir_6aed981759055a22f0901385cc3ba5db</title>
<g id="a_edge16"><a xlink:href="dir_000018_000009.html" target="_top">
<path fill="none" stroke="#63b8ff" d="M433.46,-70.98C427.45,-68.14 420.53,-65.15 414,-63 391.81,-55.69 335.03,-44.26 292.32,-36.14"/>
<polygon fill="#63b8ff" stroke="#63b8ff" points="292.82,-32.68 282.35,-34.26 291.52,-39.56 292.82,-32.68"/>
</a>
</g>
<g id="a_edge16&#45;headlabel"><a xlink:href="dir_000018_000009.html" target="_top" xlink:title="2">
<text text-anchor="middle" x="296.88" y="-28.06" font-family="Helvetica,sans-Serif" font-size="10.00" fill="#63b8ff">2</text>
</a>
</g>
</g>
<!-- dir_f3911b9629b0e27ea480d06d47573cbf&#45;&gt;dir_a7363e98f9e0bdd87618633653859815 -->
<g id="edge17" class="edge">
<title>dir_f3911b9629b0e27ea480d06d47573cbf&#45;&gt;dir_a7363e98f9e0bdd87618633653859815</title>
<g id="a_edge17"><a xlink:href="dir_000018_000017.html" target="_top">
<path fill="none" stroke="#63b8ff" d="M437.63,-70.98C425.91,-62.92 408.08,-50.65 394.11,-41.03"/>
<polygon fill="#63b8ff" stroke="#63b8ff" points="395.82,-37.96 385.6,-35.17 391.85,-43.72 395.82,-37.96"/>
</a>
</g>
<g id="a_edge17&#45;headlabel"><a xlink:href="dir_000018_000017.html" target="_top" xlink:title="3">
<text text-anchor="middle" x="400.39" y="-35.16" font-family="Helvetica,sans-Serif" font-size="10.00" fill="#63b8ff">3</text>
</a>
</g>
</g>
<!-- dir_f3911b9629b0e27ea480d06d47573cbf&#45;&gt;dir_b1a122bf62c958266ec5bf64d14fde5a -->
<g id="edge18" class="edge">
<title>dir_f3911b9629b0e27ea480d06d47573cbf&#45;&gt;dir_b1a122bf62c958266ec5bf64d14fde5a</title>
<g id="a_edge18"><a xlink:href="dir_000018_000007.html" target="_top">
<path fill="none" stroke="#63b8ff" d="M431.79,-70.87C426.12,-68.26 419.83,-65.44 414,-63 391.03,-53.38 364.55,-43.4 345.23,-36.3"/>
<polygon fill="#63b8ff" stroke="#63b8ff" points="346.43,-33.02 335.83,-32.88 344.03,-39.59 346.43,-33.02"/>
</a>
</g>
<g id="a_edge18&#45;headlabel"><a xlink:href="dir_000018_000007.html" target="_top" xlink:title="4">
<text text-anchor="middle" x="350.78" y="-29.08" font-family="Helvetica,sans-Serif" font-size="10.00" fill="#63b8ff">4</text>
</a>
</g>
</g>
<!-- dir_f3911b9629b0e27ea480d06d47573cbf&#45;&gt;dir_ba210d1fa67db7bee1bb22e0a3c11d9f -->
<g id="edge19" class="edge">
<title>dir_f3911b9629b0e27ea480d06d47573cbf&#45;&gt;dir_ba210d1fa67db7bee1bb22e0a3c11d9f</title>
<g id="a_edge19"><a xlink:href="dir_000018_000002.html" target="_top">
<path fill="none" stroke="#63b8ff" d="M464.14,-70.98C477.79,-62.77 498.69,-50.18 514.78,-40.49"/>
<polygon fill="#63b8ff" stroke="#63b8ff" points="516.84,-43.33 523.6,-35.17 513.23,-37.33 516.84,-43.33"/>
</a>
</g>
<g id="a_edge19&#45;headlabel"><a xlink:href="dir_000018_000002.html" target="_top" xlink:title="5">
<text text-anchor="middle" x="515.23" y="-45.11" font-family="Helvetica,sans-Serif" font-size="10.00" fill="#63b8ff">5</text>
</a>
</g>
</g>
<!-- dir_f3911b9629b0e27ea480d06d47573cbf&#45;&gt;dir_c610c8504d46288da7634b3c0b18263f -->
<g id="edge20" class="edge">
<title>dir_f3911b9629b0e27ea480d06d47573cbf&#45;&gt;dir_c610c8504d46288da7634b3c0b18263f</title>
<g id="a_edge20"><a xlink:href="dir_000018_000004.html" target="_top">
<path fill="none" stroke="#63b8ff" d="M450,-70.75C450,-63.8 450,-53.85 450,-45.13"/>
<polygon fill="#63b8ff" stroke="#63b8ff" points="453.5,-45.09 450,-35.09 446.5,-45.09 453.5,-45.09"/>
</a>
</g>
<g id="a_edge20&#45;headlabel"><a xlink:href="dir_000018_000004.html" target="_top" xlink:title="21">
<text text-anchor="middle" x="456.34" y="-46.18" font-family="Helvetica,sans-Serif" font-size="10.00" fill="#63b8ff">21</text>
</a>
</g>
</g>
<!-- dir_f3911b9629b0e27ea480d06d47573cbf&#45;&gt;dir_d4e015951b263415729819c1a4b61808 -->
<g id="edge21" class="edge">
<title>dir_f3911b9629b0e27ea480d06d47573cbf&#45;&gt;dir_d4e015951b263415729819c1a4b61808</title>
<g id="a_edge21"><a xlink:href="dir_000018_000011.html" target="_top">
<path fill="none" stroke="#63b8ff" d="M477.74,-73.52C520.41,-64.33 602.5,-46.64 652.94,-35.78"/>
<polygon fill="#63b8ff" stroke="#63b8ff" points="653.86,-39.16 662.89,-33.63 652.38,-32.32 653.86,-39.16"/>
</a>
</g>
<g id="a_edge21&#45;headlabel"><a xlink:href="dir_000018_000011.html" target="_top" xlink:title="1">
<text text-anchor="middle" x="650.94" y="-40.19" font-family="Helvetica,sans-Serif" font-size="10.00" fill="#63b8ff">1</text>
</a>
</g>
</g>
<!-- dir_f3911b9629b0e27ea480d06d47573cbf&#45;&gt;dir_336443d5468dfc2bb33128b4e5b96f42 -->
<g id="edge15" class="edge">
<title>dir_f3911b9629b0e27ea480d06d47573cbf&#45;&gt;dir_336443d5468dfc2bb33128b4e5b96f42</title>
<g id="a_edge15"><a xlink:href="dir_000018_000012.html" target="_top">
<path fill="none" stroke="#63b8ff" d="M476.67,-70.98C504.54,-62.09 548.45,-48.07 579.52,-38.15"/>
<polygon fill="#63b8ff" stroke="#63b8ff" points="580.66,-41.46 589.12,-35.08 578.53,-34.79 580.66,-41.46"/>
</a>
</g>
<g id="a_edge15&#45;headlabel"><a xlink:href="dir_000018_000012.html" target="_top" xlink:title="1">
<text text-anchor="middle" x="578.1" y="-42.76" font-family="Helvetica,sans-Serif" font-size="10.00" fill="#63b8ff">1</text>
</a>
</g>
</g>
</g>
</svg>
