<?xml version="1.0" encoding="UTF-8" standalone="no"?>
<!DOCTYPE svg PUBLIC "-//W3C//DTD SVG 1.1//EN"
 "http://www.w3.org/Graphics/SVG/1.1/DTD/svg11.dtd">
<!-- Generated by graphviz version 2.43.0 (0)
 -->
<!-- Title: src Pages: 1 -->
<svg width="416pt" height="436pt"
 viewBox="0.00 0.00 416.00 436.00" xmlns="http://www.w3.org/2000/svg" xmlns:xlink="http://www.w3.org/1999/xlink">
<g id="graph0" class="graph" transform="scale(1 1) rotate(0) translate(4 432)">
<title>src</title>
<polygon fill="white" stroke="transparent" points="-4,4 -4,-432 412,-432 412,4 -4,4"/>
<g id="clust1" class="cluster">
<title>clusterdir_68267d1309a1af8e8297ef4c3efbcdba</title>
<g id="a_clust1"><a xlink:href="dir_68267d1309a1af8e8297ef4c3efbcdba.html" target="_top">
<polygon fill="#eeeeff" stroke="black" points="8,-8 8,-420 400,-420 400,-8 8,-8"/>
</a>
</g>
</g>
<!-- dir_68267d1309a1af8e8297ef4c3efbcdba -->
<g id="node1" class="node">
<title>dir_68267d1309a1af8e8297ef4c3efbcdba</title>
<text text-anchor="middle" x="311" y="-391.5" font-family="Helvetica,sans-Serif" font-size="10.00">src</text>
</g>
<!-- dir_17dd1609571feee8469e465ffa40a219 -->
<g id="node2" class="node">
<title>dir_17dd1609571feee8469e465ffa40a219</title>
<g id="a_node2"><a xlink:href="dir_17dd1609571feee8469e465ffa40a219.html" target="_top" xlink:title="AssetManager">
<polygon fill="white" stroke="black" points="160,-124 74,-124 74,-88 160,-88 160,-124"/>
<text text-anchor="middle" x="117" y="-103.5" font-family="Helvetica,sans-Serif" font-size="10.00">AssetManager</text>
</a>
</g>
</g>
<!-- dir_3813464283bee2267f39dcf080a84d74 -->
<g id="node6" class="node">
<title>dir_3813464283bee2267f39dcf080a84d74</title>
<g id="a_node6"><a xlink:href="dir_3813464283bee2267f39dcf080a84d74.html" target="_top" xlink:title="Math">
<polygon fill="white" stroke="black" points="113,-52 59,-52 59,-16 113,-16 113,-52"/>
<text text-anchor="middle" x="86" y="-31.5" font-family="Helvetica,sans-Serif" font-size="10.00">Math</text>
</a>
</g>
</g>
<!-- dir_17dd1609571feee8469e465ffa40a219&#45;&gt;dir_3813464283bee2267f39dcf080a84d74 -->
<g id="edge12" class="edge">
<title>dir_17dd1609571feee8469e465ffa40a219&#45;&gt;dir_3813464283bee2267f39dcf080a84d74</title>
<path fill="none" stroke="black" d="M109.34,-87.7C105.81,-79.73 101.54,-70.1 97.63,-61.26"/>
<polygon fill="black" stroke="black" points="100.82,-59.83 93.57,-52.1 94.42,-62.67 100.82,-59.83"/>
<g id="a_edge12&#45;headlabel"><a xlink:href="dir_000003_000007.html" target="_top" xlink:title="1">
<text text-anchor="middle" x="104.88" y="-59.47" font-family="Helvetica,sans-Serif" font-size="10.00">1</text>
</a>
</g>
</g>
<!-- dir_c610c8504d46288da7634b3c0b18263f -->
<g id="node3" class="node">
<title>dir_c610c8504d46288da7634b3c0b18263f</title>
<g id="a_node3"><a xlink:href="dir_c610c8504d46288da7634b3c0b18263f.html" target="_top" xlink:title="Components">
<polygon fill="white" stroke="black" points="94,-196 16,-196 16,-160 94,-160 94,-196"/>
<text text-anchor="middle" x="55" y="-175.5" font-family="Helvetica,sans-Serif" font-size="10.00">Components</text>
</a>
</g>
</g>
<!-- dir_c610c8504d46288da7634b3c0b18263f&#45;&gt;dir_17dd1609571feee8469e465ffa40a219 -->
<g id="edge1" class="edge">
<title>dir_c610c8504d46288da7634b3c0b18263f&#45;&gt;dir_17dd1609571feee8469e465ffa40a219</title>
<path fill="none" stroke="black" d="M70.33,-159.7C77.76,-151.3 86.82,-141.07 94.98,-131.86"/>
<polygon fill="black" stroke="black" points="97.84,-133.91 101.85,-124.1 92.6,-129.27 97.84,-133.91"/>
<g id="a_edge1&#45;headlabel"><a xlink:href="dir_000004_000003.html" target="_top" xlink:title="3">
<text text-anchor="middle" x="97.58" y="-135.98" font-family="Helvetica,sans-Serif" font-size="10.00">3</text>
</a>
</g>
</g>
<!-- dir_c610c8504d46288da7634b3c0b18263f&#45;&gt;dir_3813464283bee2267f39dcf080a84d74 -->
<g id="edge2" class="edge">
<title>dir_c610c8504d46288da7634b3c0b18263f&#45;&gt;dir_3813464283bee2267f39dcf080a84d74</title>
<path fill="none" stroke="black" d="M55.59,-159.7C56.52,-141.59 58.9,-112.44 65,-88 67.2,-79.17 70.54,-69.84 73.9,-61.51"/>
<polygon fill="black" stroke="black" points="77.13,-62.86 77.8,-52.28 70.68,-60.13 77.13,-62.86"/>
<g id="a_edge2&#45;headlabel"><a xlink:href="dir_000004_000007.html" target="_top" xlink:title="2">
<text text-anchor="middle" x="78.35" y="-64.77" font-family="Helvetica,sans-Serif" font-size="10.00">2</text>
</a>
</g>
</g>
<!-- dir_b1a122bf62c958266ec5bf64d14fde5a -->
<g id="node4" class="node">
<title>dir_b1a122bf62c958266ec5bf64d14fde5a</title>
<g id="a_node4"><a xlink:href="dir_b1a122bf62c958266ec5bf64d14fde5a.html" target="_top" xlink:title="ECS">
<polygon fill="white" stroke="black" points="186,-196 132,-196 132,-160 186,-160 186,-196"/>
<text text-anchor="middle" x="159" y="-175.5" font-family="Helvetica,sans-Serif" font-size="10.00">ECS</text>
</a>
</g>
</g>
<!-- dir_6aed981759055a22f0901385cc3ba5db -->
<g id="node5" class="node">
<title>dir_6aed981759055a22f0901385cc3ba5db</title>
<g id="a_node5"><a xlink:href="dir_6aed981759055a22f0901385cc3ba5db.html" target="_top" xlink:title="InputManager">
<polygon fill="white" stroke="black" points="308,-196 224,-196 224,-160 308,-160 308,-196"/>
<text text-anchor="middle" x="266" y="-175.5" font-family="Helvetica,sans-Serif" font-size="10.00">InputManager</text>
</a>
</g>
</g>
<!-- dir_d4e015951b263415729819c1a4b61808 -->
<g id="node7" class="node">
<title>dir_d4e015951b263415729819c1a4b61808</title>
<g id="a_node7"><a xlink:href="dir_d4e015951b263415729819c1a4b61808.html" target="_top" xlink:title="Rendering">
<polygon fill="white" stroke="black" points="392,-196 326,-196 326,-160 392,-160 392,-196"/>
<text text-anchor="middle" x="359" y="-175.5" font-family="Helvetica,sans-Serif" font-size="10.00">Rendering</text>
</a>
</g>
</g>
<!-- dir_d4e015951b263415729819c1a4b61808&#45;&gt;dir_17dd1609571feee8469e465ffa40a219 -->
<g id="edge6" class="edge">
<title>dir_d4e015951b263415729819c1a4b61808&#45;&gt;dir_17dd1609571feee8469e465ffa40a219</title>
<path fill="none" stroke="black" d="M325.67,-163.07C322.76,-161.98 319.84,-160.95 317,-160 267.99,-143.66 210.93,-128.95 170.33,-119.2"/>
<polygon fill="black" stroke="black" points="170.92,-115.74 160.38,-116.83 169.29,-122.55 170.92,-115.74"/>
<g id="a_edge6&#45;headlabel"><a xlink:href="dir_000008_000003.html" target="_top" xlink:title="1">
<text text-anchor="middle" x="175.07" y="-111.31" font-family="Helvetica,sans-Serif" font-size="10.00">1</text>
</a>
</g>
</g>
<!-- dir_336443d5468dfc2bb33128b4e5b96f42 -->
<g id="node8" class="node">
<title>dir_336443d5468dfc2bb33128b4e5b96f42</title>
<g id="a_node8"><a xlink:href="dir_336443d5468dfc2bb33128b4e5b96f42.html" target="_top" xlink:title="Runtime">
<polygon fill="white" stroke="black" points="214,-340 156,-340 156,-304 214,-304 214,-340"/>
<text text-anchor="middle" x="185" y="-319.5" font-family="Helvetica,sans-Serif" font-size="10.00">Runtime</text>
</a>
</g>
</g>
<!-- dir_336443d5468dfc2bb33128b4e5b96f42&#45;&gt;dir_b1a122bf62c958266ec5bf64d14fde5a -->
<g id="edge5" class="edge">
<title>dir_336443d5468dfc2bb33128b4e5b96f42&#45;&gt;dir_b1a122bf62c958266ec5bf64d14fde5a</title>
<path fill="none" stroke="black" d="M178.39,-303.58C174.77,-293.36 170.52,-280.11 168,-268 163.75,-247.6 161.48,-224.14 160.29,-206.43"/>
<polygon fill="black" stroke="black" points="163.77,-206 159.67,-196.22 156.78,-206.42 163.77,-206"/>
<g id="a_edge5&#45;headlabel"><a xlink:href="dir_000009_000005.html" target="_top" xlink:title="1">
<text text-anchor="middle" x="166.82" y="-206.91" font-family="Helvetica,sans-Serif" font-size="10.00">1</text>
</a>
</g>
</g>
<!-- dir_336443d5468dfc2bb33128b4e5b96f42&#45;&gt;dir_6aed981759055a22f0901385cc3ba5db -->
<g id="edge3" class="edge">
<title>dir_336443d5468dfc2bb33128b4e5b96f42&#45;&gt;dir_6aed981759055a22f0901385cc3ba5db</title>
<path fill="none" stroke="black" d="M210.86,-303.9C222.94,-294.64 236.5,-282.19 245,-268 256.25,-249.21 261.47,-224.83 263.9,-206.34"/>
<polygon fill="black" stroke="black" points="267.4,-206.55 265.03,-196.22 260.44,-205.77 267.4,-206.55"/>
<g id="a_edge3&#45;headlabel"><a xlink:href="dir_000009_000006.html" target="_top" xlink:title="1">
<text text-anchor="middle" x="269.82" y="-207.94" font-family="Helvetica,sans-Serif" font-size="10.00">1</text>
</a>
</g>
</g>
<!-- dir_900c20bb70493231141df6997ccd6b87 -->
<g id="node9" class="node">
<title>dir_900c20bb70493231141df6997ccd6b87</title>
<g id="a_node9"><a xlink:href="dir_900c20bb70493231141df6997ccd6b87.html" target="_top" xlink:title="Systems">
<polygon fill="white" stroke="black" points="235.5,-268 176.5,-268 176.5,-232 235.5,-232 235.5,-268"/>
<text text-anchor="middle" x="206" y="-247.5" font-family="Helvetica,sans-Serif" font-size="10.00">Systems</text>
</a>
</g>
</g>
<!-- dir_336443d5468dfc2bb33128b4e5b96f42&#45;&gt;dir_900c20bb70493231141df6997ccd6b87 -->
<g id="edge4" class="edge">
<title>dir_336443d5468dfc2bb33128b4e5b96f42&#45;&gt;dir_900c20bb70493231141df6997ccd6b87</title>
<path fill="none" stroke="black" d="M190.19,-303.7C192.53,-295.9 195.35,-286.51 197.95,-277.83"/>
<polygon fill="black" stroke="black" points="201.35,-278.69 200.87,-268.1 194.64,-276.68 201.35,-278.69"/>
<g id="a_edge4&#45;headlabel"><a xlink:href="dir_000009_000010.html" target="_top" xlink:title="5">
<text text-anchor="middle" x="203.03" y="-280.45" font-family="Helvetica,sans-Serif" font-size="10.00">5</text>
</a>
</g>
</g>
<!-- dir_900c20bb70493231141df6997ccd6b87&#45;&gt;dir_17dd1609571feee8469e465ffa40a219 -->
<g id="edge7" class="edge">
<title>dir_900c20bb70493231141df6997ccd6b87&#45;&gt;dir_17dd1609571feee8469e465ffa40a219</title>
<path fill="none" stroke="black" d="M207.87,-231.91C209.1,-212.93 208.47,-182.05 195,-160 187.44,-147.63 175.79,-137.48 163.77,-129.49"/>
<polygon fill="black" stroke="black" points="165.35,-126.36 155.01,-124.06 161.66,-132.3 165.35,-126.36"/>
<g id="a_edge7&#45;headlabel"><a xlink:href="dir_000010_000003.html" target="_top" xlink:title="3">
<text text-anchor="middle" x="169.9" y="-123.34" font-family="Helvetica,sans-Serif" font-size="10.00">3</text>
</a>
</g>
</g>
<!-- dir_900c20bb70493231141df6997ccd6b87&#45;&gt;dir_c610c8504d46288da7634b3c0b18263f -->
<g id="edge10" class="edge">
<title>dir_900c20bb70493231141df6997ccd6b87&#45;&gt;dir_c610c8504d46288da7634b3c0b18263f</title>
<path fill="none" stroke="black" d="M176.17,-235.17C154.68,-225.21 125.27,-211.58 100.82,-200.24"/>
<polygon fill="black" stroke="black" points="102.26,-197.05 91.71,-196.02 99.31,-203.4 102.26,-197.05"/>
<g id="a_edge10&#45;headlabel"><a xlink:href="dir_000010_000004.html" target="_top" xlink:title="13">
<text text-anchor="middle" x="106.71" y="-193.49" font-family="Helvetica,sans-Serif" font-size="10.00">13</text>
</a>
</g>
</g>
<!-- dir_900c20bb70493231141df6997ccd6b87&#45;&gt;dir_b1a122bf62c958266ec5bf64d14fde5a -->
<g id="edge9" class="edge">
<title>dir_900c20bb70493231141df6997ccd6b87&#45;&gt;dir_b1a122bf62c958266ec5bf64d14fde5a</title>
<path fill="none" stroke="black" d="M194.38,-231.7C188.86,-223.47 182.15,-213.48 176.07,-204.42"/>
<polygon fill="black" stroke="black" points="178.96,-202.46 170.48,-196.1 173.15,-206.36 178.96,-202.46"/>
<g id="a_edge9&#45;headlabel"><a xlink:href="dir_000010_000005.html" target="_top" xlink:title="5">
<text text-anchor="middle" x="183.33" y="-201.36" font-family="Helvetica,sans-Serif" font-size="10.00">5</text>
</a>
</g>
</g>
<!-- dir_900c20bb70493231141df6997ccd6b87&#45;&gt;dir_6aed981759055a22f0901385cc3ba5db -->
<g id="edge8" class="edge">
<title>dir_900c20bb70493231141df6997ccd6b87&#45;&gt;dir_6aed981759055a22f0901385cc3ba5db</title>
<path fill="none" stroke="black" d="M220.83,-231.7C228.02,-223.3 236.8,-213.07 244.69,-203.86"/>
<polygon fill="black" stroke="black" points="247.49,-205.97 251.34,-196.1 242.17,-201.42 247.49,-205.97"/>
<g id="a_edge8&#45;headlabel"><a xlink:href="dir_000010_000006.html" target="_top" xlink:title="2">
<text text-anchor="middle" x="247.31" y="-208.05" font-family="Helvetica,sans-Serif" font-size="10.00">2</text>
</a>
</g>
</g>
<!-- dir_900c20bb70493231141df6997ccd6b87&#45;&gt;dir_d4e015951b263415729819c1a4b61808 -->
<g id="edge11" class="edge">
<title>dir_900c20bb70493231141df6997ccd6b87&#45;&gt;dir_d4e015951b263415729819c1a4b61808</title>
<path fill="none" stroke="black" d="M235.86,-235.34C258.87,-224.81 290.97,-210.13 316.63,-198.39"/>
<polygon fill="black" stroke="black" points="318.12,-201.55 325.76,-194.21 315.21,-195.19 318.12,-201.55"/>
<g id="a_edge11&#45;headlabel"><a xlink:href="dir_000010_000008.html" target="_top" xlink:title="2">
<text text-anchor="middle" x="316.03" y="-203.13" font-family="Helvetica,sans-Serif" font-size="10.00">2</text>
</a>
</g>
</g>
<!-- dir_da5c6b39c0a2f54e57df6799511cd3ab -->
<g id="node10" class="node">
<title>dir_da5c6b39c0a2f54e57df6799511cd3ab</title>
<g id="a_node10"><a xlink:href="dir_da5c6b39c0a2f54e57df6799511cd3ab.html" target="_top" xlink:title="ui">
<polygon fill="white" stroke="red" points="212,-412 158,-412 158,-376 212,-376 212,-412"/>
<text text-anchor="middle" x="185" y="-391.5" font-family="Helvetica,sans-Serif" font-size="10.00">ui</text>
</a>
</g>
</g>
<!-- dir_da5c6b39c0a2f54e57df6799511cd3ab&#45;&gt;dir_17dd1609571feee8469e465ffa40a219 -->
<g id="edge13" class="edge">
<title>dir_da5c6b39c0a2f54e57df6799511cd3ab&#45;&gt;dir_17dd1609571feee8469e465ffa40a219</title>
<path fill="none" stroke="black" d="M163.63,-375.89C153.44,-366.45 142.16,-353.86 136,-340 105.32,-270.96 109.21,-179.12 113.62,-134.15"/>
<polygon fill="black" stroke="black" points="117.12,-134.34 114.7,-124.02 110.16,-133.59 117.12,-134.34"/>
<g id="a_edge13&#45;headlabel"><a xlink:href="dir_000011_000003.html" target="_top" xlink:title="16">
<text text-anchor="middle" x="119.56" y="-135.71" font-family="Helvetica,sans-Serif" font-size="10.00">16</text>
</a>
</g>
</g>
<!-- dir_da5c6b39c0a2f54e57df6799511cd3ab&#45;&gt;dir_c610c8504d46288da7634b3c0b18263f -->
<g id="edge17" class="edge">
<title>dir_da5c6b39c0a2f54e57df6799511cd3ab&#45;&gt;dir_c610c8504d46288da7634b3c0b18263f</title>
<path fill="none" stroke="black" d="M157.72,-380.02C141.22,-370.9 120.94,-357.27 108,-340 77.59,-299.41 64.1,-240.5 58.54,-206.34"/>
<polygon fill="black" stroke="black" points="61.96,-205.53 57,-196.17 55.03,-206.58 61.96,-205.53"/>
<g id="a_edge17&#45;headlabel"><a xlink:href="dir_000011_000004.html" target="_top" xlink:title="14">
<text text-anchor="middle" x="65.3" y="-206.16" font-family="Helvetica,sans-Serif" font-size="10.00">14</text>
</a>
</g>
</g>
<!-- dir_da5c6b39c0a2f54e57df6799511cd3ab&#45;&gt;dir_b1a122bf62c958266ec5bf64d14fde5a -->
<g id="edge16" class="edge">
<title>dir_da5c6b39c0a2f54e57df6799511cd3ab&#45;&gt;dir_b1a122bf62c958266ec5bf64d14fde5a</title>
<path fill="none" stroke="black" d="M168.54,-375.92C160.35,-366.22 151.3,-353.37 147,-340 132.45,-294.73 142.45,-238.76 150.86,-206.15"/>
<polygon fill="black" stroke="black" points="154.25,-206.99 153.5,-196.43 147.5,-205.16 154.25,-206.99"/>
<g id="a_edge16&#45;headlabel"><a xlink:href="dir_000011_000005.html" target="_top" xlink:title="4">
<text text-anchor="middle" x="156.05" y="-208.71" font-family="Helvetica,sans-Serif" font-size="10.00">4</text>
</a>
</g>
</g>
<!-- dir_da5c6b39c0a2f54e57df6799511cd3ab&#45;&gt;dir_6aed981759055a22f0901385cc3ba5db -->
<g id="edge14" class="edge">
<title>dir_da5c6b39c0a2f54e57df6799511cd3ab&#45;&gt;dir_6aed981759055a22f0901385cc3ba5db</title>
<path fill="none" stroke="black" d="M201.66,-375.96C210.66,-366.08 221.44,-353.03 229,-340 246.15,-310.44 248.03,-301.23 256,-268 260.86,-247.72 263.38,-224.25 264.67,-206.51"/>
<polygon fill="black" stroke="black" points="268.17,-206.48 265.32,-196.28 261.19,-206.03 268.17,-206.48"/>
<g id="a_edge14&#45;headlabel"><a xlink:href="dir_000011_000006.html" target="_top" xlink:title="2">
<text text-anchor="middle" x="270.78" y="-207.75" font-family="Helvetica,sans-Serif" font-size="10.00">2</text>
</a>
</g>
</g>
<!-- dir_da5c6b39c0a2f54e57df6799511cd3ab&#45;&gt;dir_d4e015951b263415729819c1a4b61808 -->
<g id="edge18" class="edge">
<title>dir_da5c6b39c0a2f54e57df6799511cd3ab&#45;&gt;dir_d4e015951b263415729819c1a4b61808</title>
<path fill="none" stroke="black" d="M205.16,-375.97C216.5,-365.99 230.62,-352.84 242,-340 281.59,-295.32 321.03,-237.63 342.49,-204.83"/>
<polygon fill="black" stroke="black" points="345.54,-206.56 348.05,-196.27 339.67,-202.75 345.54,-206.56"/>
<g id="a_edge18&#45;headlabel"><a xlink:href="dir_000011_000008.html" target="_top" xlink:title="1">
<text text-anchor="middle" x="345.96" y="-208.62" font-family="Helvetica,sans-Serif" font-size="10.00">1</text>
</a>
</g>
</g>
<!-- dir_da5c6b39c0a2f54e57df6799511cd3ab&#45;&gt;dir_336443d5468dfc2bb33128b4e5b96f42 -->
<g id="edge19" class="edge">
<title>dir_da5c6b39c0a2f54e57df6799511cd3ab&#45;&gt;dir_336443d5468dfc2bb33128b4e5b96f42</title>
<path fill="none" stroke="black" d="M185,-375.7C185,-367.98 185,-358.71 185,-350.11"/>
<polygon fill="black" stroke="black" points="188.5,-350.1 185,-340.1 181.5,-350.1 188.5,-350.1"/>
<g id="a_edge19&#45;headlabel"><a xlink:href="dir_000011_000009.html" target="_top" xlink:title="1">
<text text-anchor="middle" x="191.34" y="-351.2" font-family="Helvetica,sans-Serif" font-size="10.00">1</text>
</a>
</g>
</g>
<!-- dir_da5c6b39c0a2f54e57df6799511cd3ab&#45;&gt;dir_900c20bb70493231141df6997ccd6b87 -->
<g id="edge15" class="edge">
<title>dir_da5c6b39c0a2f54e57df6799511cd3ab&#45;&gt;dir_900c20bb70493231141df6997ccd6b87</title>
<path fill="none" stroke="black" d="M201.46,-375.92C209.65,-366.22 218.7,-353.37 223,-340 229.59,-319.5 224.27,-295.47 217.89,-277.56"/>
<polygon fill="black" stroke="black" points="221.08,-276.1 214.21,-268.04 214.56,-278.63 221.08,-276.1"/>
<g id="a_edge15&#45;headlabel"><a xlink:href="dir_000011_000010.html" target="_top" xlink:title="1">
<text text-anchor="middle" x="225.03" y="-275.92" font-family="Helvetica,sans-Serif" font-size="10.00">1</text>
</a>
</g>
</g>
</g>
</svg>
