<?xml version="1.0" encoding="UTF-8" standalone="no"?>
<!DOCTYPE svg PUBLIC "-//W3C//DTD SVG 1.1//EN"
 "http://www.w3.org/Graphics/SVG/1.1/DTD/svg11.dtd">
<!-- Generated by graphviz version 2.43.0 (0)
 -->
<!-- Title: src/Runtime Pages: 1 -->
<svg width="258pt" height="239pt"
 viewBox="0.00 0.00 258.00 239.00" xmlns="http://www.w3.org/2000/svg" xmlns:xlink="http://www.w3.org/1999/xlink">
<g id="graph0" class="graph" transform="scale(1 1) rotate(0) translate(4 235)">
<title>src/Runtime</title>
<polygon fill="white" stroke="transparent" points="-4,4 -4,-235 254,-235 254,4 -4,4"/>
<g id="clust1" class="cluster">
<title>clusterdir_68267d1309a1af8e8297ef4c3efbcdba</title>
<g id="a_clust1"><a xlink:href="dir_68267d1309a1af8e8297ef4c3efbcdba.html" target="_top" xlink:title="src">
<polygon fill="#ddddee" stroke="black" points="8,-8 8,-223 242,-223 242,-8 8,-8"/>
<text text-anchor="middle" x="125" y="-211" font-family="Helvetica,sans-Serif" font-size="10.00">src</text>
</a>
</g>
</g>
<!-- dir_900c20bb70493231141df6997ccd6b87 -->
<g id="node1" class="node">
<title>dir_900c20bb70493231141df6997ccd6b87</title>
<g id="a_node1"><a xlink:href="dir_900c20bb70493231141df6997ccd6b87.html" target="_top" xlink:title="Systems">
<polygon fill="none" stroke="black" points="141.5,-124 82.5,-124 82.5,-88 141.5,-88 141.5,-124"/>
<text text-anchor="middle" x="112" y="-103.5" font-family="Helvetica,sans-Serif" font-size="10.00">Systems</text>
</a>
</g>
</g>
<!-- dir_b1a122bf62c958266ec5bf64d14fde5a -->
<g id="node2" class="node">
<title>dir_b1a122bf62c958266ec5bf64d14fde5a</title>
<g id="a_node2"><a xlink:href="dir_b1a122bf62c958266ec5bf64d14fde5a.html" target="_top" xlink:title="ECS">
<polygon fill="none" stroke="black" points="70,-52 16,-52 16,-16 70,-16 70,-52"/>
<text text-anchor="middle" x="43" y="-31.5" font-family="Helvetica,sans-Serif" font-size="10.00">ECS</text>
</a>
</g>
</g>
<!-- dir_900c20bb70493231141df6997ccd6b87&#45;&gt;dir_b1a122bf62c958266ec5bf64d14fde5a -->
<g id="edge5" class="edge">
<title>dir_900c20bb70493231141df6997ccd6b87&#45;&gt;dir_b1a122bf62c958266ec5bf64d14fde5a</title>
<path fill="none" stroke="black" d="M94.94,-87.7C86.5,-79.14 76.18,-68.66 66.96,-59.3"/>
<polygon fill="black" stroke="black" points="69.37,-56.77 59.86,-52.1 64.39,-61.68 69.37,-56.77"/>
<g id="a_edge5&#45;headlabel"><a xlink:href="dir_000012_000006.html" target="_top" xlink:title="4">
<text text-anchor="middle" x="73.92" y="-54.84" font-family="Helvetica,sans-Serif" font-size="10.00">4</text>
</a>
</g>
</g>
<!-- dir_ba210d1fa67db7bee1bb22e0a3c11d9f -->
<g id="node3" class="node">
<title>dir_ba210d1fa67db7bee1bb22e0a3c11d9f</title>
<g id="a_node3"><a xlink:href="dir_ba210d1fa67db7bee1bb22e0a3c11d9f.html" target="_top" xlink:title="Common">
<polygon fill="none" stroke="black" points="149.5,-52 88.5,-52 88.5,-16 149.5,-16 149.5,-52"/>
<text text-anchor="middle" x="119" y="-31.5" font-family="Helvetica,sans-Serif" font-size="10.00">Common</text>
</a>
</g>
</g>
<!-- dir_900c20bb70493231141df6997ccd6b87&#45;&gt;dir_ba210d1fa67db7bee1bb22e0a3c11d9f -->
<g id="edge6" class="edge">
<title>dir_900c20bb70493231141df6997ccd6b87&#45;&gt;dir_ba210d1fa67db7bee1bb22e0a3c11d9f</title>
<path fill="none" stroke="black" d="M113.73,-87.7C114.5,-79.98 115.43,-70.71 116.29,-62.11"/>
<polygon fill="black" stroke="black" points="119.78,-62.4 117.29,-52.1 112.81,-61.71 119.78,-62.4"/>
<g id="a_edge6&#45;headlabel"><a xlink:href="dir_000012_000004.html" target="_top" xlink:title="1">
<text text-anchor="middle" x="122.24" y="-63.76" font-family="Helvetica,sans-Serif" font-size="10.00">1</text>
</a>
</g>
</g>
<!-- dir_d4e015951b263415729819c1a4b61808 -->
<g id="node4" class="node">
<title>dir_d4e015951b263415729819c1a4b61808</title>
<g id="a_node4"><a xlink:href="dir_d4e015951b263415729819c1a4b61808.html" target="_top" xlink:title="Rendering">
<polygon fill="white" stroke="red" points="234,-52 168,-52 168,-16 234,-16 234,-52"/>
<text text-anchor="middle" x="201" y="-31.5" font-family="Helvetica,sans-Serif" font-size="10.00">Rendering</text>
</a>
</g>
</g>
<!-- dir_900c20bb70493231141df6997ccd6b87&#45;&gt;dir_d4e015951b263415729819c1a4b61808 -->
<g id="edge7" class="edge">
<title>dir_900c20bb70493231141df6997ccd6b87&#45;&gt;dir_d4e015951b263415729819c1a4b61808</title>
<path fill="none" stroke="black" d="M134,-87.7C145.21,-78.88 159,-68.03 171.15,-58.47"/>
<polygon fill="black" stroke="black" points="173.56,-61.04 179.25,-52.1 169.23,-55.54 173.56,-61.04"/>
<g id="a_edge7&#45;headlabel"><a xlink:href="dir_000012_000009.html" target="_top" xlink:title="6">
<text text-anchor="middle" x="172.49" y="-62.99" font-family="Helvetica,sans-Serif" font-size="10.00">6</text>
</a>
</g>
</g>
<!-- dir_336443d5468dfc2bb33128b4e5b96f42 -->
<g id="node5" class="node">
<title>dir_336443d5468dfc2bb33128b4e5b96f42</title>
<g id="a_node5"><a xlink:href="dir_336443d5468dfc2bb33128b4e5b96f42.html" target="_top" xlink:title="Runtime">
<polygon fill="#eeeeff" stroke="black" points="165,-196 107,-196 107,-160 165,-160 165,-196"/>
<text text-anchor="middle" x="136" y="-175.5" font-family="Helvetica,sans-Serif" font-size="10.00">Runtime</text>
</a>
</g>
</g>
<!-- dir_336443d5468dfc2bb33128b4e5b96f42&#45;&gt;dir_900c20bb70493231141df6997ccd6b87 -->
<g id="edge1" class="edge">
<title>dir_336443d5468dfc2bb33128b4e5b96f42&#45;&gt;dir_900c20bb70493231141df6997ccd6b87</title>
<path fill="none" stroke="black" d="M130.07,-159.7C127.39,-151.9 124.17,-142.51 121.2,-133.83"/>
<polygon fill="black" stroke="black" points="124.42,-132.43 117.86,-124.1 117.8,-134.7 124.42,-132.43"/>
<g id="a_edge1&#45;headlabel"><a xlink:href="dir_000011_000012.html" target="_top" xlink:title="4">
<text text-anchor="middle" x="128.27" y="-132.41" font-family="Helvetica,sans-Serif" font-size="10.00">4</text>
</a>
</g>
</g>
<!-- dir_336443d5468dfc2bb33128b4e5b96f42&#45;&gt;dir_b1a122bf62c958266ec5bf64d14fde5a -->
<g id="edge2" class="edge">
<title>dir_336443d5468dfc2bb33128b4e5b96f42&#45;&gt;dir_b1a122bf62c958266ec5bf64d14fde5a</title>
<path fill="none" stroke="black" d="M110.21,-159.9C97.81,-150.55 83.59,-138.03 74,-124 61.21,-105.28 53.18,-80.75 48.51,-62.18"/>
<polygon fill="black" stroke="black" points="51.88,-61.23 46.19,-52.29 45.07,-62.83 51.88,-61.23"/>
<g id="a_edge2&#45;headlabel"><a xlink:href="dir_000011_000006.html" target="_top" xlink:title="1">
<text text-anchor="middle" x="55.47" y="-61.58" font-family="Helvetica,sans-Serif" font-size="10.00">1</text>
</a>
</g>
</g>
<!-- dir_336443d5468dfc2bb33128b4e5b96f42&#45;&gt;dir_ba210d1fa67db7bee1bb22e0a3c11d9f -->
<g id="edge3" class="edge">
<title>dir_336443d5468dfc2bb33128b4e5b96f42&#45;&gt;dir_ba210d1fa67db7bee1bb22e0a3c11d9f</title>
<path fill="none" stroke="black" d="M143.34,-159.7C149.99,-141.6 157.81,-112.45 151,-88 148.33,-78.42 143.41,-68.84 138.22,-60.51"/>
<polygon fill="black" stroke="black" points="141.02,-58.41 132.56,-52.03 135.2,-62.29 141.02,-58.41"/>
<g id="a_edge3&#45;headlabel"><a xlink:href="dir_000011_000004.html" target="_top" xlink:title="1">
<text text-anchor="middle" x="145.38" y="-57.33" font-family="Helvetica,sans-Serif" font-size="10.00">1</text>
</a>
</g>
</g>
<!-- dir_336443d5468dfc2bb33128b4e5b96f42&#45;&gt;dir_d4e015951b263415729819c1a4b61808 -->
<g id="edge4" class="edge">
<title>dir_336443d5468dfc2bb33128b4e5b96f42&#45;&gt;dir_d4e015951b263415729819c1a4b61808</title>
<path fill="none" stroke="black" d="M143.84,-159.87C155.02,-135.46 175.63,-90.43 188.81,-61.64"/>
<polygon fill="black" stroke="black" points="192.15,-62.74 193.13,-52.19 185.79,-59.83 192.15,-62.74"/>
<g id="a_edge4&#45;headlabel"><a xlink:href="dir_000011_000009.html" target="_top" xlink:title="1">
<text text-anchor="middle" x="193.24" y="-64.69" font-family="Helvetica,sans-Serif" font-size="10.00">1</text>
</a>
</g>
</g>
</g>
</svg>
