<?xml version="1.0" encoding="UTF-8" standalone="no"?>
<!DOCTYPE svg PUBLIC "-//W3C//DTD SVG 1.1//EN"
 "http://www.w3.org/Graphics/SVG/1.1/DTD/svg11.dtd">
<!-- Generated by graphviz version 2.43.0 (0)
 -->
<!-- Title: src/game Pages: 1 -->
<svg width="274pt" height="239pt"
 viewBox="0.00 0.00 274.00 239.00" xmlns="http://www.w3.org/2000/svg" xmlns:xlink="http://www.w3.org/1999/xlink">
<g id="graph0" class="graph" transform="scale(1 1) rotate(0) translate(4 235)">
<title>src/game</title>
<polygon fill="white" stroke="transparent" points="-4,4 -4,-235 270,-235 270,4 -4,4"/>
<g id="clust1" class="cluster">
<title>clusterdir_68267d1309a1af8e8297ef4c3efbcdba</title>
<g id="a_clust1"><a xlink:href="dir_68267d1309a1af8e8297ef4c3efbcdba.html" target="_top" xlink:title="src">
<polygon fill="#ddddee" stroke="black" points="8,-8 8,-223 258,-223 258,-8 8,-8"/>
<text text-anchor="middle" x="133" y="-211" font-family="Helvetica,sans-Serif" font-size="10.00">src</text>
</a>
</g>
</g>
<g id="clust2" class="cluster">
<title>clusterdir_1699be727a800b1d059c6f7f2b91d2ee</title>
<g id="a_clust2"><a xlink:href="dir_1699be727a800b1d059c6f7f2b91d2ee.html" target="_top">
<polygon fill="#eeeeff" stroke="black" points="84,-80 84,-132 250,-132 250,-80 84,-80"/>
</a>
</g>
</g>
<!-- dir_5c0d64f70903e893b1efe571a4b8de29 -->
<g id="node1" class="node">
<title>dir_5c0d64f70903e893b1efe571a4b8de29</title>
<g id="a_node1"><a xlink:href="dir_5c0d64f70903e893b1efe571a4b8de29.html" target="_top" xlink:title="python">
<polygon fill="white" stroke="red" points="158,-196 104,-196 104,-160 158,-160 158,-196"/>
<text text-anchor="middle" x="131" y="-175.5" font-family="Helvetica,sans-Serif" font-size="10.00">python</text>
</a>
</g>
</g>
<!-- dir_7bc5e25958a2fb25a8561f3aa0def6c5 -->
<g id="node3" class="node">
<title>dir_7bc5e25958a2fb25a8561f3aa0def6c5</title>
<g id="a_node3"><a xlink:href="dir_7bc5e25958a2fb25a8561f3aa0def6c5.html" target="_top" xlink:title="renderer">
<polygon fill="none" stroke="black" points="74,-124 16,-124 16,-88 74,-88 74,-124"/>
<text text-anchor="middle" x="45" y="-103.5" font-family="Helvetica,sans-Serif" font-size="10.00">renderer</text>
</a>
</g>
</g>
<!-- dir_5c0d64f70903e893b1efe571a4b8de29&#45;&gt;dir_7bc5e25958a2fb25a8561f3aa0def6c5 -->
<g id="edge5" class="edge">
<title>dir_5c0d64f70903e893b1efe571a4b8de29&#45;&gt;dir_7bc5e25958a2fb25a8561f3aa0def6c5</title>
<path fill="none" stroke="black" d="M109.74,-159.7C98.91,-150.88 85.58,-140.03 73.84,-130.47"/>
<polygon fill="black" stroke="black" points="75.98,-127.7 66.01,-124.1 71.56,-133.13 75.98,-127.7"/>
<g id="a_edge5&#45;headlabel"><a xlink:href="dir_000007_000010.html" target="_top" xlink:title="2">
<text text-anchor="middle" x="80.56" y="-125.27" font-family="Helvetica,sans-Serif" font-size="10.00">2</text>
</a>
</g>
</g>
<!-- dir_1699be727a800b1d059c6f7f2b91d2ee -->
<g id="node4" class="node">
<title>dir_1699be727a800b1d059c6f7f2b91d2ee</title>
<text text-anchor="middle" x="215" y="-103.5" font-family="Helvetica,sans-Serif" font-size="10.00">game</text>
</g>
<!-- dir_5c0d64f70903e893b1efe571a4b8de29&#45;&gt;dir_1699be727a800b1d059c6f7f2b91d2ee -->
<g id="edge4" class="edge">
<title>dir_5c0d64f70903e893b1efe571a4b8de29&#45;&gt;dir_1699be727a800b1d059c6f7f2b91d2ee</title>
<path fill="none" stroke="black" d="M151.76,-159.7C162.24,-150.97 175.11,-140.24 186.5,-130.75"/>
<polygon fill="black" stroke="black" points="189.03,-133.19 194.47,-124.1 184.55,-127.82 189.03,-133.19"/>
<g id="a_edge4&#45;headlabel"><a xlink:href="dir_000007_000004.html" target="_top" xlink:title="4">
<text text-anchor="middle" x="188.09" y="-135.18" font-family="Helvetica,sans-Serif" font-size="10.00">4</text>
</a>
</g>
</g>
<!-- dir_a5f74f5d785ec5e5a721a58d25c88c44 -->
<g id="node5" class="node">
<title>dir_a5f74f5d785ec5e5a721a58d25c88c44</title>
<g id="a_node5"><a xlink:href="dir_a5f74f5d785ec5e5a721a58d25c88c44.html" target="_top" xlink:title="components">
<polygon fill="white" stroke="red" points="169.5,-124 92.5,-124 92.5,-88 169.5,-88 169.5,-124"/>
<text text-anchor="middle" x="131" y="-103.5" font-family="Helvetica,sans-Serif" font-size="10.00">components</text>
</a>
</g>
</g>
<!-- dir_5c0d64f70903e893b1efe571a4b8de29&#45;&gt;dir_a5f74f5d785ec5e5a721a58d25c88c44 -->
<g id="edge6" class="edge">
<title>dir_5c0d64f70903e893b1efe571a4b8de29&#45;&gt;dir_a5f74f5d785ec5e5a721a58d25c88c44</title>
<path fill="none" stroke="black" d="M136.92,-159.7C137.71,-151.98 137.94,-142.71 137.6,-134.11"/>
<polygon fill="black" stroke="black" points="141.08,-133.84 136.9,-124.1 134.1,-134.32 141.08,-133.84"/>
<g id="a_edge6&#45;headlabel"><a xlink:href="dir_000007_000005.html" target="_top" xlink:title="2">
<text text-anchor="middle" x="144.17" y="-134.72" font-family="Helvetica,sans-Serif" font-size="10.00">2</text>
</a>
</g>
</g>
<!-- dir_aebb8dcc11953d78e620bbef0b9e2183 -->
<g id="node2" class="node">
<title>dir_aebb8dcc11953d78e620bbef0b9e2183</title>
<g id="a_node2"><a xlink:href="dir_aebb8dcc11953d78e620bbef0b9e2183.html" target="_top" xlink:title="core">
<polygon fill="none" stroke="black" points="158,-52 104,-52 104,-16 158,-16 158,-52"/>
<text text-anchor="middle" x="131" y="-31.5" font-family="Helvetica,sans-Serif" font-size="10.00">core</text>
</a>
</g>
</g>
<!-- dir_7bc5e25958a2fb25a8561f3aa0def6c5&#45;&gt;dir_1699be727a800b1d059c6f7f2b91d2ee -->
<g id="edge7" class="edge">
<title>dir_7bc5e25958a2fb25a8561f3aa0def6c5&#45;&gt;dir_1699be727a800b1d059c6f7f2b91d2ee</title>
<path fill="none" stroke="black" d="M59.28,-124.09C67.05,-132.46 77.45,-141.53 89,-146 122.58,-158.98 136.35,-158.79 170,-146 178.43,-142.8 186.28,-137.21 193,-131.21"/>
<polygon fill="black" stroke="black" points="195.59,-133.58 200.32,-124.1 190.71,-128.56 195.59,-133.58"/>
<g id="a_edge7&#45;headlabel"><a xlink:href="dir_000010_000004.html" target="_top" xlink:title="1">
<text text-anchor="middle" x="194.99" y="-135.62" font-family="Helvetica,sans-Serif" font-size="10.00">1</text>
</a>
</g>
</g>
<!-- dir_a5f74f5d785ec5e5a721a58d25c88c44&#45;&gt;dir_5c0d64f70903e893b1efe571a4b8de29 -->
<g id="edge1" class="edge">
<title>dir_a5f74f5d785ec5e5a721a58d25c88c44&#45;&gt;dir_5c0d64f70903e893b1efe571a4b8de29</title>
<path fill="none" stroke="black" d="M125.1,-124.1C124.3,-131.79 124.06,-141.05 124.4,-149.67"/>
<polygon fill="black" stroke="black" points="120.91,-149.96 125.08,-159.7 127.89,-149.48 120.91,-149.96"/>
<g id="a_edge1&#45;headlabel"><a xlink:href="dir_000005_000007.html" target="_top" xlink:title="1">
<text text-anchor="middle" x="117.83" y="-144.07" font-family="Helvetica,sans-Serif" font-size="10.00">1</text>
</a>
</g>
</g>
<!-- dir_a5f74f5d785ec5e5a721a58d25c88c44&#45;&gt;dir_aebb8dcc11953d78e620bbef0b9e2183 -->
<g id="edge2" class="edge">
<title>dir_a5f74f5d785ec5e5a721a58d25c88c44&#45;&gt;dir_aebb8dcc11953d78e620bbef0b9e2183</title>
<path fill="none" stroke="black" d="M131,-87.7C131,-79.98 131,-70.71 131,-62.11"/>
<polygon fill="black" stroke="black" points="134.5,-62.1 131,-52.1 127.5,-62.1 134.5,-62.1"/>
<g id="a_edge2&#45;headlabel"><a xlink:href="dir_000005_000003.html" target="_top" xlink:title="1">
<text text-anchor="middle" x="137.34" y="-63.2" font-family="Helvetica,sans-Serif" font-size="10.00">1</text>
</a>
</g>
</g>
<!-- dir_a5f74f5d785ec5e5a721a58d25c88c44&#45;&gt;dir_7bc5e25958a2fb25a8561f3aa0def6c5 -->
<g id="edge3" class="edge">
<title>dir_a5f74f5d785ec5e5a721a58d25c88c44&#45;&gt;dir_7bc5e25958a2fb25a8561f3aa0def6c5</title>
<path fill="none" stroke="black" d="M92.41,-106C89.76,-106 87.11,-106 84.46,-106"/>
<polygon fill="black" stroke="black" points="84.23,-102.5 74.23,-106 84.23,-109.5 84.23,-102.5"/>
<g id="a_edge3&#45;headlabel"><a xlink:href="dir_000005_000010.html" target="_top" xlink:title="1">
<text text-anchor="middle" x="87.82" y="-97.16" font-family="Helvetica,sans-Serif" font-size="10.00">1</text>
</a>
</g>
</g>
</g>
</svg>
