<?xml version="1.0" encoding="UTF-8" standalone="no"?>
<!DOCTYPE svg PUBLIC "-//W3C//DTD SVG 1.1//EN"
 "http://www.w3.org/Graphics/SVG/1.1/DTD/svg11.dtd">
<!-- Generated by graphviz version 2.43.0 (0)
 -->
<!-- Title: Graphical Class Hierarchy Pages: 1 -->
<svg width="302pt" height="98pt"
 viewBox="0.00 0.00 302.00 97.50" xmlns="http://www.w3.org/2000/svg" xmlns:xlink="http://www.w3.org/1999/xlink">
<g id="graph0" class="graph" transform="scale(1 1) rotate(0) translate(4 93.5)">
<title>Graphical Class Hierarchy</title>
<!-- Node0 -->
<g id="Node000000" class="node">
<title>Node0</title>
<g id="a_Node000000"><a xlink:href="classshkyera_1_1_sparse_set_base.html" target="_top" xlink:title=" ">
<polygon fill="white" stroke="#666666" points="134,-51.5 0,-51.5 0,-32.5 134,-32.5 134,-51.5"/>
<text text-anchor="middle" x="67" y="-39.5" font-family="Helvetica,sans-Serif" font-size="10.00">shkyera::SparseSetBase</text>
</a>
</g>
</g>
<!-- Node1 -->
<g id="Node000001" class="node">
<title>Node1</title>
<g id="a_Node000001"><a xlink:href="classshkyera_1_1_sparse_set.html" target="_top" xlink:title=" ">
<polygon fill="white" stroke="#666666" points="294,-89.5 170,-89.5 170,-48.5 294,-48.5 294,-89.5"/>
<text text-anchor="start" x="178" y="-77.5" font-family="Helvetica,sans-Serif" font-size="10.00">shkyera::SparseSet</text>
<text text-anchor="start" x="178" y="-66.5" font-family="Helvetica,sans-Serif" font-size="10.00">&lt; shkyera::JobSystem</text>
<text text-anchor="middle" x="232" y="-55.5" font-family="Helvetica,sans-Serif" font-size="10.00">::Job &gt;</text>
</a>
</g>
</g>
<!-- Node0&#45;&gt;Node1 -->
<g id="edge55_Node000000_Node000001" class="edge">
<title>Node0&#45;&gt;Node1</title>
<g id="a_edge55_Node000000_Node000001"><a xlink:title=" ">
<path fill="none" stroke="#63b8ff" d="M135.39,-53.16C146.83,-55.06 158.64,-57.01 169.91,-58.88"/>
<polygon fill="#63b8ff" stroke="#63b8ff" points="135.91,-49.7 125.47,-51.52 134.76,-56.61 135.91,-49.7"/>
</a>
</g>
</g>
<!-- Node2 -->
<g id="Node000002" class="node">
<title>Node2</title>
<g id="a_Node000002"><a xlink:href="classshkyera_1_1_sparse_set.html" target="_top" xlink:title=" ">
<polygon fill="white" stroke="#666666" points="287,-30 177,-30 177,0 287,0 287,-30"/>
<text text-anchor="start" x="185" y="-18" font-family="Helvetica,sans-Serif" font-size="10.00">shkyera::SparseSet</text>
<text text-anchor="middle" x="232" y="-7" font-family="Helvetica,sans-Serif" font-size="10.00">&lt; Component &gt;</text>
</a>
</g>
</g>
<!-- Node0&#45;&gt;Node2 -->
<g id="edge56_Node000000_Node000002" class="edge">
<title>Node0&#45;&gt;Node2</title>
<g id="a_edge56_Node000000_Node000002"><a xlink:title=" ">
<path fill="none" stroke="#63b8ff" d="M135.39,-30.84C149.18,-28.55 163.52,-26.18 176.78,-23.98"/>
<polygon fill="#63b8ff" stroke="#63b8ff" points="134.76,-27.39 125.47,-32.48 135.91,-34.3 134.76,-27.39"/>
</a>
</g>
</g>
</g>
</svg>
