<?xml version="1.0" encoding="UTF-8" standalone="no"?>
<!DOCTYPE svg PUBLIC "-//W3C//DTD SVG 1.1//EN"
 "http://www.w3.org/Graphics/SVG/1.1/DTD/svg11.dtd">
<!-- Generated by graphviz version 2.43.0 (0)
 -->
<!-- Title: Graphical Class Hierarchy Pages: 1 -->
<svg width="365pt" height="261pt"
 viewBox="0.00 0.00 365.00 261.00" xmlns="http://www.w3.org/2000/svg" xmlns:xlink="http://www.w3.org/1999/xlink">
<g id="graph0" class="graph" transform="scale(1 1) rotate(0) translate(4 257)">
<title>Graphical Class Hierarchy</title>
<!-- Node0 -->
<g id="Node000000" class="node">
<title>Node0</title>
<g id="a_Node000000"><a xlink:href="classshkyera_1_1_component_u_i.html" target="_top" xlink:title=" ">
<polygon fill="white" stroke="#666666" points="128,-130 0,-130 0,-111 128,-111 128,-130"/>
<text text-anchor="middle" x="64" y="-118" font-family="Helvetica,sans-Serif" font-size="10.00">shkyera::ComponentUI</text>
</a>
</g>
</g>
<!-- Node1 -->
<g id="Node000001" class="node">
<title>Node1</title>
<g id="a_Node000001"><a xlink:href="classshkyera_1_1_ambient_light_component_u_i.html" target="_top" xlink:title=" ">
<polygon fill="white" stroke="#666666" points="357,-253 164,-253 164,-234 357,-234 357,-253"/>
<text text-anchor="middle" x="260.5" y="-241" font-family="Helvetica,sans-Serif" font-size="10.00">shkyera::AmbientLightComponentUI</text>
</a>
</g>
</g>
<!-- Node0&#45;&gt;Node1 -->
<g id="edge19_Node000000_Node000001" class="edge">
<title>Node0&#45;&gt;Node1</title>
<g id="a_edge19_Node000000_Node000001"><a xlink:title=" ">
<path fill="none" stroke="#63b8ff" d="M76.79,-138.55C93.3,-162.27 125.63,-203.38 164,-224.5 170.96,-228.33 178.58,-231.4 186.39,-233.85"/>
<polygon fill="#63b8ff" stroke="#63b8ff" points="79.58,-136.43 71.08,-130.11 73.79,-140.36 79.58,-136.43"/>
</a>
</g>
</g>
<!-- Node2 -->
<g id="Node000002" class="node">
<title>Node2</title>
<g id="a_Node000002"><a xlink:href="classshkyera_1_1_directional_light_component_u_i.html" target="_top" xlink:title=" ">
<polygon fill="white" stroke="#666666" points="329.5,-215.5 191.5,-215.5 191.5,-185.5 329.5,-185.5 329.5,-215.5"/>
<text text-anchor="start" x="199.5" y="-203.5" font-family="Helvetica,sans-Serif" font-size="10.00">shkyera::DirectionalLight</text>
<text text-anchor="middle" x="260.5" y="-192.5" font-family="Helvetica,sans-Serif" font-size="10.00">ComponentUI</text>
</a>
</g>
</g>
<!-- Node0&#45;&gt;Node2 -->
<g id="edge20_Node000000_Node000002" class="edge">
<title>Node0&#45;&gt;Node2</title>
<g id="a_edge20_Node000000_Node000002"><a xlink:title=" ">
<path fill="none" stroke="#63b8ff" d="M87.64,-135.64C107.15,-148.12 136.46,-165.48 164,-176.5 172.73,-179.99 182.12,-183.09 191.48,-185.81"/>
<polygon fill="#63b8ff" stroke="#63b8ff" points="89.44,-132.64 79.15,-130.13 85.63,-138.51 89.44,-132.64"/>
</a>
</g>
</g>
<!-- Node3 -->
<g id="Node000003" class="node">
<title>Node3</title>
<g id="a_Node000003"><a xlink:href="classshkyera_1_1_model_component_u_i.html" target="_top" xlink:title=" ">
<polygon fill="white" stroke="#666666" points="339.5,-167 181.5,-167 181.5,-148 339.5,-148 339.5,-167"/>
<text text-anchor="middle" x="260.5" y="-155" font-family="Helvetica,sans-Serif" font-size="10.00">shkyera::ModelComponentUI</text>
</a>
</g>
</g>
<!-- Node0&#45;&gt;Node3 -->
<g id="edge21_Node000000_Node000003" class="edge">
<title>Node0&#45;&gt;Node3</title>
<g id="a_edge21_Node000000_Node000003"><a xlink:title=" ">
<path fill="none" stroke="#63b8ff" d="M124.2,-131.89C137.3,-134.41 151.12,-137.05 164,-139.5 178.42,-142.24 194.07,-145.2 208.45,-147.91"/>
<polygon fill="#63b8ff" stroke="#63b8ff" points="124.82,-128.45 114.34,-130 123.5,-135.33 124.82,-128.45"/>
</a>
</g>
</g>
<!-- Node4 -->
<g id="Node000004" class="node">
<title>Node4</title>
<g id="a_Node000004"><a xlink:href="classshkyera_1_1_point_light_component_u_i.html" target="_top" xlink:title=" ">
<polygon fill="white" stroke="#666666" points="348.5,-130 172.5,-130 172.5,-111 348.5,-111 348.5,-130"/>
<text text-anchor="middle" x="260.5" y="-118" font-family="Helvetica,sans-Serif" font-size="10.00">shkyera::PointLightComponentUI</text>
</a>
</g>
</g>
<!-- Node0&#45;&gt;Node4 -->
<g id="edge22_Node000000_Node000004" class="edge">
<title>Node0&#45;&gt;Node4</title>
<g id="a_edge22_Node000000_Node000004"><a xlink:title=" ">
<path fill="none" stroke="#63b8ff" d="M138.22,-120.5C149.33,-120.5 160.9,-120.5 172.28,-120.5"/>
<polygon fill="#63b8ff" stroke="#63b8ff" points="138.15,-117 128.15,-120.5 138.15,-124 138.15,-117"/>
</a>
</g>
</g>
<!-- Node5 -->
<g id="Node000005" class="node">
<title>Node5</title>
<g id="a_Node000005"><a xlink:href="classshkyera_1_1_spot_light_component_u_i.html" target="_top" xlink:title=" ">
<polygon fill="white" stroke="#666666" points="347,-93 174,-93 174,-74 347,-74 347,-93"/>
<text text-anchor="middle" x="260.5" y="-81" font-family="Helvetica,sans-Serif" font-size="10.00">shkyera::SpotLightComponentUI</text>
</a>
</g>
</g>
<!-- Node0&#45;&gt;Node5 -->
<g id="edge23_Node000000_Node000005" class="edge">
<title>Node0&#45;&gt;Node5</title>
<g id="a_edge23_Node000000_Node000005"><a xlink:title=" ">
<path fill="none" stroke="#63b8ff" d="M125.18,-109.05C152.14,-103.92 183.57,-97.94 209.24,-93.06"/>
<polygon fill="#63b8ff" stroke="#63b8ff" points="124.26,-105.66 115.09,-110.97 125.57,-112.54 124.26,-105.66"/>
</a>
</g>
</g>
<!-- Node6 -->
<g id="Node000006" class="node">
<title>Node6</title>
<g id="a_Node000006"><a xlink:href="classshkyera_1_1_transform_component_u_i.html" target="_top" xlink:title=" ">
<polygon fill="white" stroke="#666666" points="348.5,-56 172.5,-56 172.5,-37 348.5,-37 348.5,-56"/>
<text text-anchor="middle" x="260.5" y="-44" font-family="Helvetica,sans-Serif" font-size="10.00">shkyera::TransformComponentUI</text>
</a>
</g>
</g>
<!-- Node0&#45;&gt;Node6 -->
<g id="edge24_Node000000_Node000006" class="edge">
<title>Node0&#45;&gt;Node6</title>
<g id="a_edge24_Node000000_Node000006"><a xlink:title=" ">
<path fill="none" stroke="#63b8ff" d="M87.54,-105.3C107,-92.85 136.27,-75.68 164,-65.5 174.47,-61.66 185.9,-58.53 197.08,-56.01"/>
<polygon fill="#63b8ff" stroke="#63b8ff" points="85.55,-102.42 79.08,-110.81 89.37,-108.29 85.55,-102.42"/>
</a>
</g>
</g>
<!-- Node7 -->
<g id="Node000007" class="node">
<title>Node7</title>
<g id="a_Node000007"><a xlink:href="classshkyera_1_1_wireframe_component_u_i.html" target="_top" xlink:title=" ">
<polygon fill="white" stroke="#666666" points="350,-19 171,-19 171,0 350,0 350,-19"/>
<text text-anchor="middle" x="260.5" y="-7" font-family="Helvetica,sans-Serif" font-size="10.00">shkyera::WireframeComponentUI</text>
</a>
</g>
</g>
<!-- Node0&#45;&gt;Node7 -->
<g id="edge25_Node000000_Node000007" class="edge">
<title>Node0&#45;&gt;Node7</title>
<g id="a_edge25_Node000000_Node000007"><a xlink:title=" ">
<path fill="none" stroke="#63b8ff" d="M78.56,-102.99C95.96,-81.83 128.19,-46.8 164,-28.5 171.6,-24.61 179.92,-21.52 188.38,-19.06"/>
<polygon fill="#63b8ff" stroke="#63b8ff" points="75.77,-100.88 72.25,-110.87 81.23,-105.26 75.77,-100.88"/>
</a>
</g>
</g>
</g>
</svg>
