<?xml version="1.0" encoding="UTF-8" standalone="no"?>
<!DOCTYPE svg PUBLIC "-//W3C//DTD SVG 1.1//EN"
 "http://www.w3.org/Graphics/SVG/1.1/DTD/svg11.dtd">
<!-- Generated by graphviz version 2.43.0 (0)
 -->
<!-- Title: Graphical Class Hierarchy Pages: 1 -->
<svg width="245pt" height="142pt"
 viewBox="0.00 0.00 245.00 142.00" xmlns="http://www.w3.org/2000/svg" xmlns:xlink="http://www.w3.org/1999/xlink">
<g id="graph0" class="graph" transform="scale(1 1) rotate(0) translate(4 138)">
<title>Graphical Class Hierarchy</title>
<polygon fill="white" stroke="transparent" points="-4,4 -4,-138 241,-138 241,4 -4,4"/>
<!-- Node0 -->
<g id="node1" class="node">
<title>Node0</title>
<g id="a_node1"><a xlink:href="classshkyera_1_1_asset.html" target="_top" xlink:title=" ">
<polygon fill="white" stroke="black" points="0,-57.5 0,-76.5 88,-76.5 88,-57.5 0,-57.5"/>
<text text-anchor="middle" x="44" y="-64.5" font-family="Helvetica,sans-Serif" font-size="10.00">shkyera::Asset</text>
</a>
</g>
</g>
<!-- Node1 -->
<g id="node2" class="node">
<title>Node1</title>
<g id="a_node2"><a xlink:href="classshkyera_1_1_material.html" target="_top" xlink:title=" ">
<polygon fill="white" stroke="black" points="130,-114.5 130,-133.5 231,-133.5 231,-114.5 130,-114.5"/>
<text text-anchor="middle" x="180.5" y="-121.5" font-family="Helvetica,sans-Serif" font-size="10.00">shkyera::Material</text>
</a>
</g>
</g>
<!-- Node0&#45;&gt;Node1 -->
<g id="edge1" class="edge">
<title>Node0&#45;&gt;Node1</title>
<path fill="none" stroke="midnightblue" d="M72.47,-81.2C87.5,-88.72 106.56,-97.85 124,-105 132.2,-108.36 141.23,-111.63 149.59,-114.49"/>
<polygon fill="midnightblue" stroke="midnightblue" points="73.74,-77.92 63.24,-76.53 70.58,-84.17 73.74,-77.92"/>
</g>
<!-- Node2 -->
<g id="node3" class="node">
<title>Node2</title>
<g id="a_node3"><a xlink:href="classshkyera_1_1_mesh.html" target="_top" xlink:title=" ">
<polygon fill="white" stroke="black" points="137,-76.5 137,-95.5 224,-95.5 224,-76.5 137,-76.5"/>
<text text-anchor="middle" x="180.5" y="-83.5" font-family="Helvetica,sans-Serif" font-size="10.00">shkyera::Mesh</text>
</a>
</g>
</g>
<!-- Node0&#45;&gt;Node2 -->
<g id="edge2" class="edge">
<title>Node0&#45;&gt;Node2</title>
<path fill="none" stroke="midnightblue" d="M98.34,-74.53C111.09,-76.34 124.54,-78.24 136.74,-79.96"/>
<polygon fill="midnightblue" stroke="midnightblue" points="98.69,-71.05 88.3,-73.12 97.71,-77.98 98.69,-71.05"/>
</g>
<!-- Node3 -->
<g id="node4" class="node">
<title>Node3</title>
<g id="a_node4"><a xlink:href="classshkyera_1_1_shader.html" target="_top" xlink:title=" ">
<polygon fill="white" stroke="black" points="133,-38.5 133,-57.5 228,-57.5 228,-38.5 133,-38.5"/>
<text text-anchor="middle" x="180.5" y="-45.5" font-family="Helvetica,sans-Serif" font-size="10.00">shkyera::Shader</text>
</a>
</g>
</g>
<!-- Node0&#45;&gt;Node3 -->
<g id="edge3" class="edge">
<title>Node0&#45;&gt;Node3</title>
<path fill="none" stroke="midnightblue" d="M98.46,-59.45C109.74,-57.86 121.55,-56.19 132.56,-54.63"/>
<polygon fill="midnightblue" stroke="midnightblue" points="97.71,-56.02 88.3,-60.88 98.69,-62.95 97.71,-56.02"/>
</g>
<!-- Node4 -->
<g id="node5" class="node">
<title>Node4</title>
<g id="a_node5"><a xlink:href="classshkyera_1_1_wireframe.html" target="_top" xlink:title=" ">
<polygon fill="white" stroke="black" points="124,-0.5 124,-19.5 237,-19.5 237,-0.5 124,-0.5"/>
<text text-anchor="middle" x="180.5" y="-7.5" font-family="Helvetica,sans-Serif" font-size="10.00">shkyera::Wireframe</text>
</a>
</g>
</g>
<!-- Node0&#45;&gt;Node4 -->
<g id="edge4" class="edge">
<title>Node0&#45;&gt;Node4</title>
<path fill="none" stroke="midnightblue" d="M72.47,-52.8C87.5,-45.28 106.56,-36.15 124,-29 132.2,-25.64 141.23,-22.37 149.59,-19.51"/>
<polygon fill="midnightblue" stroke="midnightblue" points="70.58,-49.83 63.24,-57.47 73.74,-56.08 70.58,-49.83"/>
</g>
</g>
</svg>
