<?xml version="1.0" encoding="UTF-8" standalone="no"?>
<!DOCTYPE svg PUBLIC "-//W3C//DTD SVG 1.1//EN"
 "http://www.w3.org/Graphics/SVG/1.1/DTD/svg11.dtd">
<!-- Generated by graphviz version 2.43.0 (0)
 -->
<!-- Title: Graphical Class Hierarchy Pages: 1 -->
<svg width="497pt" height="286pt"
 viewBox="0.00 0.00 497.00 286.00" xmlns="http://www.w3.org/2000/svg" xmlns:xlink="http://www.w3.org/1999/xlink">
<g id="graph0" class="graph" transform="scale(1 1) rotate(0) translate(4 282)">
<title>Graphical Class Hierarchy</title>
<!-- Node0 -->
<g id="Node000000" class="node">
<title>Node0</title>
<g id="a_Node000000"><a xlink:href="classshkyera_1_1_widget.html" target="_top" xlink:title="An abstract base class representing a GUI widget.">
<polygon fill="white" stroke="#666666" points="95,-148 0,-148 0,-129 95,-129 95,-148"/>
<text text-anchor="middle" x="47.5" y="-136" font-family="Helvetica,sans-Serif" font-size="10.00">shkyera::Widget</text>
</a>
</g>
</g>
<!-- Node1 -->
<g id="Node000001" class="node">
<title>Node1</title>
<g id="a_Node000001"><a xlink:href="classshkyera_1_1_console_widget.html" target="_top" xlink:title="A user interface widget for the console, used for logging and displaying messages.">
<polygon fill="white" stroke="#666666" points="272.5,-278 138.5,-278 138.5,-259 272.5,-259 272.5,-278"/>
<text text-anchor="middle" x="205.5" y="-266" font-family="Helvetica,sans-Serif" font-size="10.00">shkyera::ConsoleWidget</text>
</a>
</g>
</g>
<!-- Node0&#45;&gt;Node1 -->
<g id="edge36_Node000000_Node000001" class="edge">
<title>Node0&#45;&gt;Node1</title>
<g id="a_edge36_Node000000_Node000001"><a xlink:title=" ">
<path fill="none" stroke="#63b8ff" d="M57.13,-157.29C69.71,-182.49 95.5,-226.83 131,-250.5 136.14,-253.93 141.87,-256.7 147.8,-258.95"/>
<polygon fill="#63b8ff" stroke="#63b8ff" points="60.18,-155.55 52.7,-148.06 53.87,-158.59 60.18,-155.55"/>
</a>
</g>
</g>
<!-- Node2 -->
<g id="Node000002" class="node">
<title>Node2</title>
<g id="a_Node000002"><a xlink:href="classshkyera_1_1_filesystem_widget.html" target="_top" xlink:title="A user interface widget for interacting with the filesystem.">
<polygon fill="white" stroke="#666666" points="280,-241 131,-241 131,-222 280,-222 280,-241"/>
<text text-anchor="middle" x="205.5" y="-229" font-family="Helvetica,sans-Serif" font-size="10.00">shkyera::FilesystemWidget</text>
</a>
</g>
</g>
<!-- Node0&#45;&gt;Node2 -->
<g id="edge37_Node000000_Node000002" class="edge">
<title>Node0&#45;&gt;Node2</title>
<g id="a_edge37_Node000000_Node000002"><a xlink:title=" ">
<path fill="none" stroke="#63b8ff" d="M62.87,-155.87C78.04,-173.07 103.54,-198.89 131,-213.5 137.38,-216.89 144.41,-219.66 151.52,-221.91"/>
<polygon fill="#63b8ff" stroke="#63b8ff" points="65.46,-153.51 56.28,-148.2 60.15,-158.07 65.46,-153.51"/>
</a>
</g>
</g>
<!-- Node3 -->
<g id="Node000003" class="node">
<title>Node3</title>
<g id="a_Node000003"><a xlink:href="classshkyera_1_1_inspector_widget.html" target="_top" xlink:title=" ">
<polygon fill="white" stroke="#666666" points="275.5,-204 135.5,-204 135.5,-185 275.5,-185 275.5,-204"/>
<text text-anchor="middle" x="205.5" y="-192" font-family="Helvetica,sans-Serif" font-size="10.00">shkyera::InspectorWidget</text>
</a>
</g>
</g>
<!-- Node0&#45;&gt;Node3 -->
<g id="edge38_Node000000_Node000003" class="edge">
<title>Node0&#45;&gt;Node3</title>
<g id="a_edge38_Node000000_Node000003"><a xlink:title=" ">
<path fill="none" stroke="#63b8ff" d="M75.94,-152.75C91.74,-160.54 112.14,-169.91 131,-176.5 140.05,-179.66 149.92,-182.48 159.4,-184.9"/>
<polygon fill="#63b8ff" stroke="#63b8ff" points="77.26,-149.5 66.76,-148.14 74.13,-155.75 77.26,-149.5"/>
</a>
</g>
</g>
<!-- Node4 -->
<g id="Node000004" class="node">
<title>Node4</title>
<g id="a_Node000004"><a xlink:href="classshkyera_1_1_objects_widget.html" target="_top" xlink:title="A user interface widget for managing game objects.">
<polygon fill="white" stroke="#666666" points="271.5,-167 139.5,-167 139.5,-148 271.5,-148 271.5,-167"/>
<text text-anchor="middle" x="205.5" y="-155" font-family="Helvetica,sans-Serif" font-size="10.00">shkyera::ObjectsWidget</text>
</a>
</g>
</g>
<!-- Node0&#45;&gt;Node4 -->
<g id="edge39_Node000000_Node000004" class="edge">
<title>Node0&#45;&gt;Node4</title>
<g id="a_edge39_Node000000_Node000004"><a xlink:title=" ">
<path fill="none" stroke="#63b8ff" d="M105.25,-145.41C116.3,-146.76 127.97,-148.18 139.27,-149.56"/>
<polygon fill="#63b8ff" stroke="#63b8ff" points="105.65,-141.94 95.31,-144.2 104.81,-148.88 105.65,-141.94"/>
</a>
</g>
</g>
<!-- Node5 -->
<g id="Node000005" class="node">
<title>Node5</title>
<g id="a_Node000005"><a xlink:href="classshkyera_1_1_profiler_widget.html" target="_top" xlink:title=" ">
<polygon fill="white" stroke="#666666" points="270.5,-130 140.5,-130 140.5,-111 270.5,-111 270.5,-130"/>
<text text-anchor="middle" x="205.5" y="-118" font-family="Helvetica,sans-Serif" font-size="10.00">shkyera::ProfilerWidget</text>
</a>
</g>
</g>
<!-- Node0&#45;&gt;Node5 -->
<g id="edge40_Node000000_Node000005" class="edge">
<title>Node0&#45;&gt;Node5</title>
<g id="a_edge40_Node000000_Node000005"><a xlink:title=" ">
<path fill="none" stroke="#63b8ff" d="M105.52,-131.92C116.86,-130.61 128.85,-129.23 140.42,-127.89"/>
<polygon fill="#63b8ff" stroke="#63b8ff" points="104.84,-128.48 95.31,-133.1 105.64,-135.43 104.84,-128.48"/>
</a>
</g>
</g>
<!-- Node6 -->
<g id="Node000006" class="node">
<title>Node6</title>
<g id="a_Node000006"><a xlink:href="classshkyera_1_1_properties_widget.html" target="_top" xlink:title="A user interface widget for managing game object properties.">
<polygon fill="white" stroke="#666666" points="278,-93 133,-93 133,-74 278,-74 278,-93"/>
<text text-anchor="middle" x="205.5" y="-81" font-family="Helvetica,sans-Serif" font-size="10.00">shkyera::PropertiesWidget</text>
</a>
</g>
</g>
<!-- Node0&#45;&gt;Node6 -->
<g id="edge41_Node000000_Node000006" class="edge">
<title>Node0&#45;&gt;Node6</title>
<g id="a_edge41_Node000000_Node000006"><a xlink:title=" ">
<path fill="none" stroke="#63b8ff" d="M77.3,-124.59C92.95,-117.38 112.77,-108.79 131,-102.5 141.22,-98.98 152.43,-95.76 162.95,-93.02"/>
<polygon fill="#63b8ff" stroke="#63b8ff" points="75.73,-121.46 68.15,-128.87 78.69,-127.8 75.73,-121.46"/>
</a>
</g>
</g>
<!-- Node9 -->
<g id="Node000009" class="node">
<title>Node9</title>
<g id="a_Node000009"><a xlink:href="classshkyera_1_1_runtime_widget.html" target="_top" xlink:title="A user interface widget for running and rendering the game runtime.">
<polygon fill="white" stroke="#666666" points="274,-56 137,-56 137,-37 274,-37 274,-56"/>
<text text-anchor="middle" x="205.5" y="-44" font-family="Helvetica,sans-Serif" font-size="10.00">shkyera::RuntimeWidget</text>
</a>
</g>
</g>
<!-- Node0&#45;&gt;Node9 -->
<g id="edge44_Node000000_Node000009" class="edge">
<title>Node0&#45;&gt;Node9</title>
<g id="a_edge44_Node000000_Node000009"><a xlink:title=" ">
<path fill="none" stroke="#63b8ff" d="M63.67,-120.96C79.02,-104.29 104.25,-79.72 131,-65.5 138.22,-61.66 146.25,-58.57 154.28,-56.09"/>
<polygon fill="#63b8ff" stroke="#63b8ff" points="60.66,-119.07 56.59,-128.86 65.87,-123.75 60.66,-119.07"/>
</a>
</g>
</g>
<!-- Node10 -->
<g id="Node000010" class="node">
<title>Node10</title>
<g id="a_Node000010"><a xlink:href="classshkyera_1_1_scene_widget.html" target="_top" xlink:title="A user interface widget for rendering scenes.">
<polygon fill="white" stroke="#666666" points="268,-19 143,-19 143,0 268,0 268,-19"/>
<text text-anchor="middle" x="205.5" y="-7" font-family="Helvetica,sans-Serif" font-size="10.00">shkyera::SceneWidget</text>
</a>
</g>
</g>
<!-- Node0&#45;&gt;Node10 -->
<g id="edge45_Node000000_Node000010" class="edge">
<title>Node0&#45;&gt;Node10</title>
<g id="a_edge45_Node000000_Node000010"><a xlink:title=" ">
<path fill="none" stroke="#63b8ff" d="M57.37,-119.51C70.06,-94.46 95.83,-50.84 131,-27.5 136.14,-24.09 141.88,-21.32 147.81,-19.08"/>
<polygon fill="#63b8ff" stroke="#63b8ff" points="54.12,-118.18 52.87,-128.7 60.41,-121.25 54.12,-118.18"/>
</a>
</g>
</g>
<!-- Node7 -->
<g id="Node000007" class="node">
<title>Node7</title>
<g id="a_Node000007"><a xlink:href="classshkyera_1_1_camera_properties_widget.html" target="_top" xlink:title=" ">
<polygon fill="white" stroke="#666666" points="477,-122.5 328,-122.5 328,-92.5 477,-92.5 477,-122.5"/>
<text text-anchor="start" x="336" y="-110.5" font-family="Helvetica,sans-Serif" font-size="10.00">shkyera::CameraProperties</text>
<text text-anchor="middle" x="402.5" y="-99.5" font-family="Helvetica,sans-Serif" font-size="10.00">Widget</text>
</a>
</g>
</g>
<!-- Node6&#45;&gt;Node7 -->
<g id="edge42_Node000006_Node000007" class="edge">
<title>Node6&#45;&gt;Node7</title>
<g id="a_edge42_Node000006_Node000007"><a xlink:title=" ">
<path fill="none" stroke="#63b8ff" d="M287.98,-93.53C301.16,-95.15 314.74,-96.82 327.72,-98.42"/>
<polygon fill="#63b8ff" stroke="#63b8ff" points="288.36,-90.05 278,-92.3 287.5,-97 288.36,-90.05"/>
</a>
</g>
</g>
<!-- Node8 -->
<g id="Node000008" class="node">
<title>Node8</title>
<g id="a_Node000008"><a xlink:href="classshkyera_1_1_environment_properties_widget.html" target="_top" xlink:title=" ">
<polygon fill="white" stroke="#666666" points="489,-74.5 316,-74.5 316,-44.5 489,-44.5 489,-74.5"/>
<text text-anchor="start" x="324" y="-62.5" font-family="Helvetica,sans-Serif" font-size="10.00">shkyera::EnvironmentProperties</text>
<text text-anchor="middle" x="402.5" y="-51.5" font-family="Helvetica,sans-Serif" font-size="10.00">Widget</text>
</a>
</g>
</g>
<!-- Node6&#45;&gt;Node8 -->
<g id="edge43_Node000006_Node000008" class="edge">
<title>Node6&#45;&gt;Node8</title>
<g id="a_edge43_Node000006_Node000008"><a xlink:title=" ">
<path fill="none" stroke="#63b8ff" d="M288.19,-73.45C297.31,-72.32 306.61,-71.18 315.77,-70.05"/>
<polygon fill="#63b8ff" stroke="#63b8ff" points="287.5,-70 278,-74.7 288.36,-76.95 287.5,-70"/>
</a>
</g>
</g>
</g>
</svg>
