<?xml version="1.0" encoding="UTF-8" standalone="no"?>
<!DOCTYPE svg PUBLIC "-//W3C//DTD SVG 1.1//EN"
 "http://www.w3.org/Graphics/SVG/1.1/DTD/svg11.dtd">
<!-- Generated by graphviz version 2.43.0 (0)
 -->
<!-- Title: shkyera::SceneCamera Pages: 1 -->
<svg width="353pt" height="214pt"
 viewBox="0.00 0.00 353.00 214.00" xmlns="http://www.w3.org/2000/svg" xmlns:xlink="http://www.w3.org/1999/xlink">
<g id="graph0" class="graph" transform="scale(1 1) rotate(0) translate(4 210)">
<title>shkyera::SceneCamera</title>
<!-- Node1 -->
<g id="Node000001" class="node">
<title>Node1</title>
<g id="a_Node000001"><a xlink:title=" ">
<polygon fill="#999999" stroke="#666666" points="240.5,-19 112.5,-19 112.5,0 240.5,0 240.5,-19"/>
<text text-anchor="middle" x="176.5" y="-7" font-family="Helvetica,sans-Serif" font-size="10.00">shkyera::SceneCamera</text>
</a>
</g>
</g>
<!-- Node2 -->
<g id="Node000002" class="node">
<title>Node2</title>
<g id="a_Node000002"><a xlink:href="structshkyera_1_1_rendering_texture_component.html" target="_top" xlink:title=" ">
<polygon fill="white" stroke="#666666" points="163.5,-85 17.5,-85 17.5,-55 163.5,-55 163.5,-85"/>
<text text-anchor="start" x="25.5" y="-73" font-family="Helvetica,sans-Serif" font-size="10.00">shkyera::RenderingTexture</text>
<text text-anchor="middle" x="90.5" y="-62" font-family="Helvetica,sans-Serif" font-size="10.00">Component</text>
</a>
</g>
</g>
<!-- Node2&#45;&gt;Node1 -->
<g id="edge1_Node000001_Node000002" class="edge">
<title>Node2&#45;&gt;Node1</title>
<g id="a_edge1_Node000001_Node000002"><a xlink:title=" ">
<path fill="none" stroke="#63b8ff" d="M119.81,-49.06C134.82,-38.85 152.32,-26.95 163.87,-19.09"/>
<polygon fill="#63b8ff" stroke="#63b8ff" points="117.62,-46.32 111.32,-54.84 121.56,-52.11 117.62,-46.32"/>
</a>
</g>
</g>
<!-- Node3 -->
<g id="Node000003" class="node">
<title>Node3</title>
<g id="a_Node000003"><a xlink:href="classshkyera_1_1_base_component.html" target="_top" xlink:title=" ">
<polygon fill="white" stroke="#666666" points="181,-151 0,-151 0,-121 181,-121 181,-151"/>
<text text-anchor="start" x="8" y="-139" font-family="Helvetica,sans-Serif" font-size="10.00">shkyera::BaseComponent</text>
<text text-anchor="middle" x="90.5" y="-128" font-family="Helvetica,sans-Serif" font-size="10.00">&lt; RenderingTextureComponent &gt;</text>
</a>
</g>
</g>
<!-- Node3&#45;&gt;Node2 -->
<g id="edge2_Node000002_Node000003" class="edge">
<title>Node3&#45;&gt;Node2</title>
<g id="a_edge2_Node000002_Node000003"><a xlink:title=" ">
<path fill="none" stroke="#63b8ff" d="M90.5,-110.54C90.5,-101.96 90.5,-92.61 90.5,-85.16"/>
<polygon fill="#63b8ff" stroke="#63b8ff" points="87,-110.8 90.5,-120.8 94,-110.8 87,-110.8"/>
</a>
</g>
</g>
<!-- Node4 -->
<g id="Node000004" class="node">
<title>Node4</title>
<g id="a_Node000004"><a xlink:href="structshkyera_1_1_resource_tag.html" target="_top" xlink:title=" ">
<polygon fill="white" stroke="#666666" points="151.5,-206 29.5,-206 29.5,-187 151.5,-187 151.5,-206"/>
<text text-anchor="middle" x="90.5" y="-194" font-family="Helvetica,sans-Serif" font-size="10.00">shkyera::ResourceTag</text>
</a>
</g>
</g>
<!-- Node4&#45;&gt;Node3 -->
<g id="edge3_Node000003_Node000004" class="edge">
<title>Node4&#45;&gt;Node3</title>
<g id="a_edge3_Node000003_Node000004"><a xlink:title=" ">
<path fill="none" stroke="#63b8ff" d="M90.5,-176.65C90.5,-168.36 90.5,-158.78 90.5,-151.11"/>
<polygon fill="#63b8ff" stroke="#63b8ff" points="87,-176.87 90.5,-186.87 94,-176.87 87,-176.87"/>
</a>
</g>
</g>
<!-- Node5 -->
<g id="Node000005" class="node">
<title>Node5</title>
<g id="a_Node000005"><a xlink:href="structshkyera_1_1_singleton_component.html" target="_top" xlink:title=" ">
<polygon fill="white" stroke="#666666" points="345,-85 182,-85 182,-55 345,-55 345,-85"/>
<text text-anchor="start" x="190" y="-73" font-family="Helvetica,sans-Serif" font-size="10.00">shkyera::SingletonComponent</text>
<text text-anchor="middle" x="263.5" y="-62" font-family="Helvetica,sans-Serif" font-size="10.00">&lt; SceneCamera &gt;</text>
</a>
</g>
</g>
<!-- Node5&#45;&gt;Node1 -->
<g id="edge4_Node000001_Node000005" class="edge">
<title>Node5&#45;&gt;Node1</title>
<g id="a_edge4_Node000001_Node000005"><a xlink:title=" ">
<path fill="none" stroke="#63b8ff" d="M233.85,-49.06C218.66,-38.85 200.96,-26.95 189.28,-19.09"/>
<polygon fill="#63b8ff" stroke="#63b8ff" points="232.19,-52.16 242.44,-54.84 236.09,-46.35 232.19,-52.16"/>
</a>
</g>
</g>
</g>
</svg>
