<?xml version="1.0" encoding="UTF-8" standalone="no"?>
<!DOCTYPE svg PUBLIC "-//W3C//DTD SVG 1.1//EN"
 "http://www.w3.org/Graphics/SVG/1.1/DTD/svg11.dtd">
<!-- Generated by graphviz version 2.43.0 (0)
 -->
<!-- Title: shkyera::SingletonComponent Pages: 1 -->
<svg width="393pt" height="138pt"
 viewBox="0.00 0.00 393.00 138.00" xmlns="http://www.w3.org/2000/svg" xmlns:xlink="http://www.w3.org/1999/xlink">
<g id="graph0" class="graph" transform="scale(1 1) rotate(0) translate(4 134)">
<title>shkyera::SingletonComponent</title>
<!-- Node1 -->
<g id="Node000001" class="node">
<title>Node1</title>
<g id="a_Node000001"><a xlink:title="Marker to denote Singleton Components.">
<polygon fill="#999999" stroke="#666666" points="163,-74 0,-74 0,-55 163,-55 163,-74"/>
<text text-anchor="middle" x="81.5" y="-62" font-family="Helvetica,sans-Serif" font-size="10.00">shkyera::SingletonComponent</text>
</a>
</g>
</g>
<!-- Node2 -->
<g id="Node000002" class="node">
<title>Node2</title>
<g id="a_Node000002"><a xlink:href="structshkyera_1_1_asset_root.html" target="_top" xlink:title=" ">
<polygon fill="white" stroke="#666666" points="347,-130 237,-130 237,-111 347,-111 347,-130"/>
<text text-anchor="middle" x="292" y="-118" font-family="Helvetica,sans-Serif" font-size="10.00">shkyera::AssetRoot</text>
</a>
</g>
</g>
<!-- Node1&#45;&gt;Node2 -->
<g id="edge1_Node000001_Node000002" class="edge">
<title>Node1&#45;&gt;Node2</title>
<g id="a_edge1_Node000001_Node000002"><a xlink:title=" ">
<path fill="none" stroke="#63b8ff" d="M118.23,-77.41C141.11,-85.36 171.56,-95.37 199,-102.5 211.13,-105.65 224.28,-108.54 236.75,-111.03"/>
<polygon fill="#63b8ff" stroke="#63b8ff" points="119.2,-74.04 108.6,-74.03 116.88,-80.64 119.2,-74.04"/>
</a>
</g>
</g>
<!-- Node3 -->
<g id="Node000003" class="node">
<title>Node3</title>
<g id="a_Node000003"><a xlink:href="structshkyera_1_1_environment.html" target="_top" xlink:title=" ">
<polygon fill="white" stroke="#666666" points="353.5,-93 230.5,-93 230.5,-74 353.5,-74 353.5,-93"/>
<text text-anchor="middle" x="292" y="-81" font-family="Helvetica,sans-Serif" font-size="10.00">shkyera::Environment</text>
</a>
</g>
</g>
<!-- Node1&#45;&gt;Node3 -->
<g id="edge2_Node000001_Node000003" class="edge">
<title>Node1&#45;&gt;Node3</title>
<g id="a_edge2_Node000001_Node000003"><a xlink:title=" ">
<path fill="none" stroke="#63b8ff" d="M173.15,-72.76C192.48,-74.52 212.45,-76.34 230.33,-77.97"/>
<polygon fill="#63b8ff" stroke="#63b8ff" points="173.39,-69.27 163.11,-71.85 172.75,-76.24 173.39,-69.27"/>
</a>
</g>
</g>
<!-- Node4 -->
<g id="Node000004" class="node">
<title>Node4</title>
<g id="a_Node000004"><a xlink:href="structshkyera_1_1_scene_camera.html" target="_top" xlink:title=" ">
<polygon fill="white" stroke="#666666" points="356,-56 228,-56 228,-37 356,-37 356,-56"/>
<text text-anchor="middle" x="292" y="-44" font-family="Helvetica,sans-Serif" font-size="10.00">shkyera::SceneCamera</text>
</a>
</g>
</g>
<!-- Node1&#45;&gt;Node4 -->
<g id="edge3_Node000001_Node000004" class="edge">
<title>Node1&#45;&gt;Node4</title>
<g id="a_edge3_Node000001_Node000004"><a xlink:title=" ">
<path fill="none" stroke="#63b8ff" d="M173.24,-56.67C191.62,-55.08 210.56,-53.44 227.73,-51.96"/>
<polygon fill="#63b8ff" stroke="#63b8ff" points="172.77,-53.19 163.11,-57.54 173.38,-60.17 172.77,-53.19"/>
</a>
</g>
</g>
<!-- Node5 -->
<g id="Node000005" class="node">
<title>Node5</title>
<g id="a_Node000005"><a xlink:href="structshkyera_1_1_selected_asset_component.html" target="_top" xlink:title=" ">
<polygon fill="white" stroke="#666666" points="385,-19 199,-19 199,0 385,0 385,-19"/>
<text text-anchor="middle" x="292" y="-7" font-family="Helvetica,sans-Serif" font-size="10.00">shkyera::SelectedAssetComponent</text>
</a>
</g>
</g>
<!-- Node1&#45;&gt;Node5 -->
<g id="edge4_Node000001_Node000005" class="edge">
<title>Node1&#45;&gt;Node5</title>
<g id="a_edge4_Node000001_Node000005"><a xlink:title=" ">
<path fill="none" stroke="#63b8ff" d="M120.58,-51.72C143.21,-44.38 172.57,-35.3 199,-28.5 212.27,-25.09 226.73,-21.87 240.18,-19.09"/>
<polygon fill="#63b8ff" stroke="#63b8ff" points="119.42,-48.41 111.01,-54.85 121.6,-55.07 119.42,-48.41"/>
</a>
</g>
</g>
</g>
</svg>
